<?xml version="1.0" encoding="UTF-8" standalone="no"?>
<!DOCTYPE svg PUBLIC "-//W3C//DTD SVG 1.1//EN" 
  "http://www.w3.org/Graphics/SVG/1.1/DTD/svg11.dtd">
<svg width="64" height="64"
	 xmlns="http://www.w3.org/2000/svg" version="1.1">
 <path d="  M 7,6  L 6,6  L 6,5  L 7,5  Z  M 15,7  L 15,6  L 10,6  L 10,5  L 8,5  L 8,4  L 6,4  L 6,3  L 3,3  L 3,4  L 4,4  L 4,5  L 5,5  L 5,7  L 6,7  L 6,8  L 7,8  L 7,9  L 8,9  L 8,10  L 9,10  L 9,11  L 10,11  L 10,12  L 11,12  L 11,13  L 13,13  L 13,14  L 15,14  L 15,15  L 17,15  L 17,16  L 19,16  L 19,17  L 22,17  L 22,18  L 28,18  L 28,13  L 27,13  L 27,12  L 26,12  L 26,11  L 24,11  L 24,10  L 22,10  L 22,9  L 20,9  L 20,8  L 18,8  L 18,7  Z  M 11,7  L 11,8  L 13,8  L 13,9  L 16,9  L 16,10  L 18,10  L 18,11  L 19,11  L 19,12  L 22,12  L 22,13  L 23,13  L 23,14  L 26,14  L 26,15  L 22,15  L 22,14  L 21,14  L 21,13  L 18,13  L 18,12  L 17,12  L 17,11  L 14,11  L 14,10  L 12,10  L 12,9  L 9,9  L 9,8  L 8,8  L 8,7  L 7,7  L 7,6  L 9,6  L 9,7  Z  " style="fill:rgb(105, 144, 34); fill-opacity:1.000; stroke:none;" />
 <path d="  M 4,5  L 4,4  L 3,4  L 3,5  Z  " style="fill:rgb(86, 129, 18); fill-opacity:1.000; stroke:none;" />
 <path d="  M 4,5  L 4,6  L 5,6  L 5,5  Z  " style="fill:rgb(86, 129, 18); fill-opacity:1.000; stroke:none;" />
 <path d="  M 6,7  L 5,7  L 5,8  L 6,8  Z  " style="fill:rgb(86, 129, 18); fill-opacity:1.000; stroke:none;" />
 <path d="  M 7,9  L 7,8  L 6,8  L 6,9  Z  " style="fill:rgb(86, 129, 18); fill-opacity:1.000; stroke:none;" />
 <path d="  M 8,10  L 8,9  L 7,9  L 7,10  Z  " style="fill:rgb(86, 129, 18); fill-opacity:1.000; stroke:none;" />
 <path d="  M 8,4  L 8,5  L 10,5  L 10,4  Z  " style="fill:rgb(86, 129, 18); fill-opacity:1.000; stroke:none;" />
 <path d="  M 9,11  L 9,10  L 8,10  L 8,11  Z  " style="fill:rgb(86, 129, 18); fill-opacity:1.000; stroke:none;" />
 <path d="  M 10,12  L 10,11  L 9,11  L 9,12  Z  " style="fill:rgb(86, 129, 18); fill-opacity:1.000; stroke:none;" />
 <path d="  M 13,6  L 13,5  L 10,5  L 10,6  Z  " style="fill:rgb(86, 129, 18); fill-opacity:1.000; stroke:none;" />
 <path d="  M 11,13  L 11,12  L 10,12  L 10,13  Z  " style="fill:rgb(86, 129, 18); fill-opacity:1.000; stroke:none;" />
 <path d="  M 12,13  L 12,14  L 13,14  L 13,13  Z  " style="fill:rgb(86, 129, 18); fill-opacity:1.000; stroke:none;" />
 <path d="  M 15,14  L 14,14  L 14,15  L 15,15  Z  " style="fill:rgb(86, 129, 18); fill-opacity:1.000; stroke:none;" />
 <path d="  M 18,7  L 18,6  L 15,6  L 15,7  Z  " style="fill:rgb(86, 129, 18); fill-opacity:1.000; stroke:none;" />
 <path d="  M 17,15  L 16,15  L 16,16  L 17,16  Z  " style="fill:rgb(86, 129, 18); fill-opacity:1.000; stroke:none;" />
 <path d="  M 18,7  L 18,8  L 20,8  L 20,7  Z  " style="fill:rgb(86, 129, 18); fill-opacity:1.000; stroke:none;" />
 <path d="  M 19,16  L 18,16  L 18,17  L 19,17  Z  " style="fill:rgb(86, 129, 18); fill-opacity:1.000; stroke:none;" />
 <path d="  M 20,8  L 20,9  L 22,9  L 22,8  Z  " style="fill:rgb(86, 129, 18); fill-opacity:1.000; stroke:none;" />
 <path d="  M 20,17  L 20,18  L 22,18  L 22,17  Z  " style="fill:rgb(86, 129, 18); fill-opacity:1.000; stroke:none;" />
 <path d="  M 24,10  L 24,9  L 22,9  L 22,10  Z  " style="fill:rgb(86, 129, 18); fill-opacity:1.000; stroke:none;" />
 <path d="  M 28,19  L 28,18  L 23,18  L 23,19  Z  " style="fill:rgb(86, 129, 18); fill-opacity:1.000; stroke:none;" />
 <path d="  M 24,11  L 26,11  L 26,10  L 24,10  Z  " style="fill:rgb(86, 129, 18); fill-opacity:1.000; stroke:none;" />
 <path d="  M 26,12  L 27,12  L 27,11  L 26,11  Z  " style="fill:rgb(86, 129, 18); fill-opacity:1.000; stroke:none;" />
 <path d="  M 28,12  L 27,12  L 27,13  L 28,13  Z  " style="fill:rgb(86, 129, 18); fill-opacity:1.000; stroke:none;" />
 <path d="  M 4,8  L 5,8  L 5,6  L 4,6  Z  " style="fill:rgb(80, 117, 22); fill-opacity:1.000; stroke:none;" />
 <path d="  M 5,8  L 5,9  L 6,9  L 6,8  Z  " style="fill:rgb(80, 117, 22); fill-opacity:1.000; stroke:none;" />
 <path d="  M 7,9  L 6,9  L 6,10  L 7,10  Z  " style="fill:rgb(80, 117, 22); fill-opacity:1.000; stroke:none;" />
 <path d="  M 7,11  L 8,11  L 8,10  L 7,10  Z  " style="fill:rgb(80, 117, 22); fill-opacity:1.000; stroke:none;" />
 <path d="  M 8,12  L 9,12  L 9,11  L 8,11  Z  " style="fill:rgb(80, 117, 22); fill-opacity:1.000; stroke:none;" />
 <path d="  M 10,12  L 9,12  L 9,13  L 10,13  Z  " style="fill:rgb(80, 117, 22); fill-opacity:1.000; stroke:none;" />
 <path d="  M 10,13  L 10,14  L 12,14  L 12,13  Z  " style="fill:rgb(80, 117, 22); fill-opacity:1.000; stroke:none;" />
 <path d="  M 14,15  L 14,14  L 12,14  L 12,15  Z  " style="fill:rgb(80, 117, 22); fill-opacity:1.000; stroke:none;" />
 <path d="  M 16,16  L 16,15  L 14,15  L 14,16  Z  " style="fill:rgb(80, 117, 22); fill-opacity:1.000; stroke:none;" />
 <path d="  M 16,17  L 18,17  L 18,16  L 16,16  Z  " style="fill:rgb(80, 117, 22); fill-opacity:1.000; stroke:none;" />
 <path d="  M 18,17  L 18,18  L 20,18  L 20,17  Z  " style="fill:rgb(80, 117, 22); fill-opacity:1.000; stroke:none;" />
 <path d="  M 22,19  L 23,19  L 23,18  L 22,18  Z  " style="fill:rgb(80, 117, 22); fill-opacity:1.000; stroke:none;" />
 <path d="  M 7,6  L 7,5  L 6,5  L 6,6  Z  " style="fill:rgb(123, 163, 52); fill-opacity:1.000; stroke:none;" />
 <path d="  M 9,7  L 9,6  L 8,6  L 8,7  Z  " style="fill:rgb(123, 163, 52); fill-opacity:1.000; stroke:none;" />
 <path d="  M 10,8  L 9,8  L 9,9  L 10,9  Z  " style="fill:rgb(123, 163, 52); fill-opacity:1.000; stroke:none;" />
 <path d="  M 10,7  L 10,8  L 11,8  L 11,7  Z  " style="fill:rgb(123, 163, 52); fill-opacity:1.000; stroke:none;" />
 <path d="  M 12,9  L 13,9  L 13,8  L 12,8  Z  " style="fill:rgb(123, 163, 52); fill-opacity:1.000; stroke:none;" />
 <path d="  M 14,10  L 14,11  L 15,11  L 15,10  Z  " style="fill:rgb(123, 163, 52); fill-opacity:1.000; stroke:none;" />
 <path d="  M 16,10  L 16,9  L 15,9  L 15,10  Z  " style="fill:rgb(123, 163, 52); fill-opacity:1.000; stroke:none;" />
 <path d="  M 17,11  L 18,11  L 18,10  L 17,10  Z  " style="fill:rgb(123, 163, 52); fill-opacity:1.000; stroke:none;" />
 <path d="  M 18,13  L 19,13  L 19,12  L 18,12  Z  " style="fill:rgb(123, 163, 52); fill-opacity:1.000; stroke:none;" />
 <path d="  M 21,12  L 21,13  L 22,13  L 22,12  Z  " style="fill:rgb(123, 163, 52); fill-opacity:1.000; stroke:none;" />
 <path d="  M 23,15  L 23,14  L 22,14  L 22,15  Z  " style="fill:rgb(123, 163, 52); fill-opacity:1.000; stroke:none;" />
 <path d="  M 26,15  L 26,14  L 24,14  L 24,15  Z  " style="fill:rgb(123, 163, 52); fill-opacity:1.000; stroke:none;" />
 <path d="  M 7,7  L 8,7  L 8,6  L 7,6  Z  " style="fill:rgb(148, 187, 79); fill-opacity:1.000; stroke:none;" />
 <path d="  M 8,7  L 8,8  L 10,8  L 10,7  Z  " style="fill:rgb(148, 187, 79); fill-opacity:1.000; stroke:none;" />
 <path d="  M 10,9  L 12,9  L 12,8  L 10,8  Z  " style="fill:rgb(148, 187, 79); fill-opacity:1.000; stroke:none;" />
 <path d="  M 15,10  L 15,9  L 12,9  L 12,10  Z  " style="fill:rgb(148, 187, 79); fill-opacity:1.000; stroke:none;" />
 <path d="  M 17,10  L 15,10  L 15,11  L 17,11  Z  " style="fill:rgb(148, 187, 79); fill-opacity:1.000; stroke:none;" />
 <path d="  M 17,12  L 19,12  L 19,11  L 17,11  Z  " style="fill:rgb(148, 187, 79); fill-opacity:1.000; stroke:none;" />
 <path d="  M 19,12  L 19,13  L 21,13  L 21,12  Z  " style="fill:rgb(148, 187, 79); fill-opacity:1.000; stroke:none;" />
 <path d="  M 21,14  L 23,14  L 23,13  L 21,13  Z  " style="fill:rgb(148, 187, 79); fill-opacity:1.000; stroke:none;" />
 <path d="  M 23,14  L 23,15  L 24,15  L 24,14  Z  " style="fill:rgb(148, 187, 79); fill-opacity:1.000; stroke:none;" />
</svg>
