<?xml version="1.0" encoding="UTF-8" standalone="no"?>
<!DOCTYPE svg PUBLIC "-//W3C//DTD SVG 1.1//EN" 
  "http://www.w3.org/Graphics/SVG/1.1/DTD/svg11.dtd">
<svg width="64" height="64"
	 xmlns="http://www.w3.org/2000/svg" version="1.1">
 <path d="  M 1,1  L 2,1  L 2,0  L 0,0  L 0,2  L 1,2  Z  " style="fill:rgb(128, 94, 54); fill-opacity:1.000; stroke:none;" />
 <path d="  M 0,64  L 2,64  L 2,63  L 1,63  L 1,62  L 0,62  Z  " style="fill:rgb(128, 94, 54); fill-opacity:1.000; stroke:none;" />
 <path d="  M 2,32  L 3,32  L 3,31  L 2,31  Z  " style="fill:rgb(128, 94, 54); fill-opacity:1.000; stroke:none;" />
 <path d="  M 3,46  L 4,46  L 4,45  L 3,45  Z  " style="fill:rgb(128, 94, 54); fill-opacity:1.000; stroke:none;" />
 <path d="  M 6,32  L 6,36  L 7,36  L 7,32  L 8,32  L 8,30  L 7,30  L 7,28  L 6,28  L 6,30  L 5,30  L 5,31  L 4,31  L 4,32  Z  " style="fill:rgb(128, 94, 54); fill-opacity:1.000; stroke:none;" />
 <path d="  M 4,44  L 4,45  L 5,45  L 5,46  L 11,46  L 11,44  L 10,44  L 10,42  L 9,42  L 9,44  Z  " style="fill:rgb(128, 94, 54); fill-opacity:1.000; stroke:none;" />
 <path d="  M 8,28  L 8,24  L 7,24  L 7,28  Z  " style="fill:rgb(128, 94, 54); fill-opacity:1.000; stroke:none;" />
 <path d="  M 7,40  L 8,40  L 8,36  L 7,36  Z  " style="fill:rgb(128, 94, 54); fill-opacity:1.000; stroke:none;" />
 <path d="  M 9,22  L 8,22  L 8,24  L 9,24  Z  " style="fill:rgb(128, 94, 54); fill-opacity:1.000; stroke:none;" />
 <path d="  M 9,40  L 8,40  L 8,42  L 9,42  Z  " style="fill:rgb(128, 94, 54); fill-opacity:1.000; stroke:none;" />
 <path d="  M 10,20  L 9,20  L 9,22  L 10,22  Z  " style="fill:rgb(128, 94, 54); fill-opacity:1.000; stroke:none;" />
 <path d="  M 11,18  L 10,18  L 10,20  L 11,20  Z  " style="fill:rgb(128, 94, 54); fill-opacity:1.000; stroke:none;" />
 <path d="  M 13,17  L 13,15  L 12,15  L 12,16  L 11,16  L 11,18  L 12,18  L 12,17  Z  " style="fill:rgb(128, 94, 54); fill-opacity:1.000; stroke:none;" />
 <path d="  M 11,48  L 12,48  L 12,46  L 11,46  Z  " style="fill:rgb(128, 94, 54); fill-opacity:1.000; stroke:none;" />
 <path d="  M 12,33  L 12,34  L 13,34  L 13,33  Z  " style="fill:rgb(128, 94, 54); fill-opacity:1.000; stroke:none;" />
 <path d="  M 12,39  L 13,39  L 13,38  L 12,38  Z  " style="fill:rgb(128, 94, 54); fill-opacity:1.000; stroke:none;" />
 <path d="  M 12,48  L 12,49  L 13,49  L 13,48  Z  " style="fill:rgb(128, 94, 54); fill-opacity:1.000; stroke:none;" />
 <path d="  M 13,15  L 14,15  L 14,14  L 13,14  Z  " style="fill:rgb(128, 94, 54); fill-opacity:1.000; stroke:none;" />
 <path d="  M 13,32  L 13,33  L 14,33  L 14,32  Z  " style="fill:rgb(128, 94, 54); fill-opacity:1.000; stroke:none;" />
 <path d="  M 13,39  L 13,40  L 14,40  L 14,39  Z  " style="fill:rgb(128, 94, 54); fill-opacity:1.000; stroke:none;" />
 <path d="  M 13,49  L 13,50  L 14,50  L 14,49  Z  " style="fill:rgb(128, 94, 54); fill-opacity:1.000; stroke:none;" />
 <path d="  M 14,14  L 15,14  L 15,13  L 14,13  Z  " style="fill:rgb(128, 94, 54); fill-opacity:1.000; stroke:none;" />
 <path d="  M 17,51  L 16,51  L 16,49  L 15,49  L 15,50  L 14,50  L 14,51  L 15,51  L 15,52  L 16,52  L 16,53  L 18,53  L 18,52  L 17,52  Z  " style="fill:rgb(128, 94, 54); fill-opacity:1.000; stroke:none;" />
 <path d="  M 15,12  L 15,13  L 16,13  L 16,12  Z  " style="fill:rgb(128, 94, 54); fill-opacity:1.000; stroke:none;" />
 <path d="  M 18,12  L 18,11  L 16,11  L 16,12  Z  " style="fill:rgb(128, 94, 54); fill-opacity:1.000; stroke:none;" />
 <path d="  M 24,13  L 23,13  L 23,9  L 24,9  L 24,8  L 22,8  L 22,9  L 20,9  L 20,10  L 18,10  L 18,11  L 19,11  L 19,16  L 18,16  L 18,19  L 19,19  L 19,17  L 20,17  L 20,13  L 21,13  L 21,10  L 22,10  L 22,15  L 21,15  L 21,17  L 22,17  L 22,16  L 23,16  L 23,18  L 24,18  Z  " style="fill:rgb(128, 94, 54); fill-opacity:1.000; stroke:none;" />
 <path d="  M 19,33  L 19,32  L 18,32  L 18,33  Z  " style="fill:rgb(128, 94, 54); fill-opacity:1.000; stroke:none;" />
 <path d="  M 18,39  L 18,40  L 19,40  L 19,39  Z  " style="fill:rgb(128, 94, 54); fill-opacity:1.000; stroke:none;" />
 <path d="  M 20,53  L 18,53  L 18,54  L 20,54  Z  " style="fill:rgb(128, 94, 54); fill-opacity:1.000; stroke:none;" />
 <path d="  M 19,34  L 20,34  L 20,33  L 19,33  Z  " style="fill:rgb(128, 94, 54); fill-opacity:1.000; stroke:none;" />
 <path d="  M 19,38  L 19,39  L 20,39  L 20,38  Z  " style="fill:rgb(128, 94, 54); fill-opacity:1.000; stroke:none;" />
 <path d="  M 24,33  L 23,33  L 23,31  L 24,31  L 24,28  L 23,28  L 23,30  L 22,30  L 22,35  L 21,35  L 21,34  L 20,34  L 20,38  L 21,38  L 21,37  L 22,37  L 22,38  L 23,38  L 23,36  L 24,36  Z  " style="fill:rgb(128, 94, 54); fill-opacity:1.000; stroke:none;" />
 <path d="  M 20,54  L 20,55  L 22,55  L 22,56  L 24,56  L 24,55  L 23,55  L 23,54  Z  " style="fill:rgb(128, 94, 54); fill-opacity:1.000; stroke:none;" />
 <path d="  M 22,19  L 23,19  L 23,18  L 22,18  Z  " style="fill:rgb(128, 94, 54); fill-opacity:1.000; stroke:none;" />
 <path d="  M 22,26  L 23,26  L 23,24  L 24,24  L 24,20  L 23,20  L 23,22  L 22,22  Z  " style="fill:rgb(128, 94, 54); fill-opacity:1.000; stroke:none;" />
 <path d="  M 23,27  L 22,27  L 22,28  L 23,28  Z  " style="fill:rgb(128, 94, 54); fill-opacity:1.000; stroke:none;" />
 <path d="  M 23,47  L 23,46  L 24,46  L 24,45  L 23,45  L 23,42  L 24,42  L 24,38  L 23,38  L 23,41  L 22,41  L 22,47  Z  " style="fill:rgb(128, 94, 54); fill-opacity:1.000; stroke:none;" />
 <path d="  M 23,54  L 24,54  L 24,48  L 23,48  L 23,50  L 22,50  L 22,53  L 23,53  Z  " style="fill:rgb(128, 94, 54); fill-opacity:1.000; stroke:none;" />
 <path d="  M 25,9  L 26,9  L 26,10  L 27,10  L 27,9  L 28,9  L 28,7  L 24,7  L 24,8  L 25,8  Z  " style="fill:rgb(128, 94, 54); fill-opacity:1.000; stroke:none;" />
 <path d="  M 37,53  L 37,51  L 36,51  L 36,56  L 35,56  L 35,54  L 34,54  L 34,57  L 31,57  L 31,55  L 30,55  L 30,52  L 29,52  L 29,56  L 24,56  L 24,57  L 26,57  L 26,60  L 27,60  L 27,61  L 28,61  L 28,58  L 36,58  L 36,61  L 37,61  L 37,60  L 38,60  L 38,57  L 40,57  L 40,56  L 38,56  L 38,55  L 39,55  L 39,54  L 38,54  L 38,53  Z  " style="fill:rgb(128, 94, 54); fill-opacity:1.000; stroke:none;" />
 <path d="  M 25,12  L 25,14  L 26,14  L 26,12  Z  " style="fill:rgb(128, 94, 54); fill-opacity:1.000; stroke:none;" />
 <path d="  M 26,18  L 27,18  L 27,17  L 28,17  L 28,16  L 27,16  L 27,15  L 28,15  L 28,12  L 27,12  L 27,14  L 26,14  Z  " style="fill:rgb(128, 94, 54); fill-opacity:1.000; stroke:none;" />
 <path d="  M 33,9  L 33,8  L 32,8  L 32,7  L 34,7  L 34,8  L 35,8  L 35,10  L 36,10  L 36,14  L 37,14  L 37,9  L 38,9  L 38,8  L 40,8  L 40,7  L 36,7  L 36,6  L 30,6  L 30,3  L 29,3  L 29,2  L 28,2  L 28,7  L 29,7  L 29,8  L 30,8  L 30,12  L 31,12  L 31,10  L 32,10  L 32,9  Z  " style="fill:rgb(128, 94, 54); fill-opacity:1.000; stroke:none;" />
 <path d="  M 37,47  L 36,47  L 36,48  L 37,48  Z  " style="fill:rgb(128, 94, 54); fill-opacity:1.000; stroke:none;" />
 <path d="  M 37,50  L 38,50  L 38,48  L 37,48  Z  " style="fill:rgb(128, 94, 54); fill-opacity:1.000; stroke:none;" />
 <path d="  M 37,62  L 38,62  L 38,61  L 37,61  Z  " style="fill:rgb(128, 94, 54); fill-opacity:1.000; stroke:none;" />
 <path d="  M 42,8  L 40,8  L 40,11  L 41,11  L 41,14  L 42,14  L 42,10  L 44,10  L 44,9  L 42,9  Z  " style="fill:rgb(128, 94, 54); fill-opacity:1.000; stroke:none;" />
 <path d="  M 41,21  L 41,19  L 42,19  L 42,16  L 41,16  L 41,15  L 40,15  L 40,22  L 41,22  L 41,23  L 42,23  L 42,21  Z  " style="fill:rgb(128, 94, 54); fill-opacity:1.000; stroke:none;" />
 <path d="  M 41,26  L 42,26  L 42,24  L 40,24  L 40,27  L 41,27  Z  " style="fill:rgb(128, 94, 54); fill-opacity:1.000; stroke:none;" />
 <path d="  M 41,31  L 41,30  L 40,30  L 40,31  Z  " style="fill:rgb(128, 94, 54); fill-opacity:1.000; stroke:none;" />
 <path d="  M 42,35  L 42,31  L 41,31  L 41,32  L 40,32  L 40,34  L 41,34  L 41,35  Z  " style="fill:rgb(128, 94, 54); fill-opacity:1.000; stroke:none;" />
 <path d="  M 42,36  L 41,36  L 41,38  L 40,38  L 40,42  L 41,42  L 41,43  L 40,43  L 40,45  L 41,45  L 41,44  L 42,44  L 42,41  L 41,41  L 41,40  L 42,40  Z  " style="fill:rgb(128, 94, 54); fill-opacity:1.000; stroke:none;" />
 <path d="  M 40,56  L 42,56  L 42,55  L 44,55  L 44,54  L 42,54  L 42,50  L 41,50  L 41,46  L 40,46  L 40,51  L 41,51  L 41,52  L 40,52  L 40,53  L 41,53  L 41,54  L 40,54  Z  " style="fill:rgb(128, 94, 54); fill-opacity:1.000; stroke:none;" />
 <path d="  M 41,29  L 42,29  L 42,27  L 41,27  Z  " style="fill:rgb(128, 94, 54); fill-opacity:1.000; stroke:none;" />
 <path d="  M 44,52  L 44,51  L 43,51  L 43,53  L 44,53  L 44,54  L 46,54  L 46,53  L 45,53  L 45,52  Z  " style="fill:rgb(128, 94, 54); fill-opacity:1.000; stroke:none;" />
 <path d="  M 46,10  L 44,10  L 44,13  L 45,13  L 45,11  L 46,11  L 46,12  L 48,12  L 48,5  L 47,5  L 47,3  L 46,3  Z  " style="fill:rgb(128, 94, 54); fill-opacity:1.000; stroke:none;" />
 <path d="  M 47,52  L 46,52  L 46,53  L 48,53  L 48,52  L 49,52  L 49,51  L 48,51  L 48,49  L 47,49  Z  " style="fill:rgb(128, 94, 54); fill-opacity:1.000; stroke:none;" />
 <path d="  M 48,13  L 49,13  L 49,12  L 48,12  Z  " style="fill:rgb(128, 94, 54); fill-opacity:1.000; stroke:none;" />
 <path d="  M 51,15  L 51,14  L 50,14  L 50,13  L 49,13  L 49,14  L 48,14  L 48,17  L 49,17  L 49,15  Z  " style="fill:rgb(128, 94, 54); fill-opacity:1.000; stroke:none;" />
 <path d="  M 50,18  L 49,18  L 49,20  L 50,20  Z  " style="fill:rgb(128, 94, 54); fill-opacity:1.000; stroke:none;" />
 <path d="  M 49,49  L 50,49  L 50,47  L 49,47  Z  " style="fill:rgb(128, 94, 54); fill-opacity:1.000; stroke:none;" />
 <path d="  M 50,50  L 49,50  L 49,51  L 50,51  Z  " style="fill:rgb(128, 94, 54); fill-opacity:1.000; stroke:none;" />
 <path d="  M 51,20  L 50,20  L 50,21  L 51,21  Z  " style="fill:rgb(128, 94, 54); fill-opacity:1.000; stroke:none;" />
 <path d="  M 52,48  L 53,48  L 53,46  L 52,46  L 52,43  L 51,43  L 51,40  L 50,40  L 50,44  L 51,44  L 51,46  L 50,46  L 50,47  L 51,47  L 51,49  L 52,49  Z  " style="fill:rgb(128, 94, 54); fill-opacity:1.000; stroke:none;" />
 <path d="  M 51,50  L 51,49  L 50,49  L 50,50  Z  " style="fill:rgb(128, 94, 54); fill-opacity:1.000; stroke:none;" />
 <path d="  M 52,15  L 51,15  L 51,16  L 52,16  Z  " style="fill:rgb(128, 94, 54); fill-opacity:1.000; stroke:none;" />
 <path d="  M 53,18  L 53,16  L 52,16  L 52,18  Z  " style="fill:rgb(128, 94, 54); fill-opacity:1.000; stroke:none;" />
 <path d="  M 53,20  L 54,20  L 54,18  L 53,18  Z  " style="fill:rgb(128, 94, 54); fill-opacity:1.000; stroke:none;" />
 <path d="  M 54,44  L 53,44  L 53,46  L 54,46  Z  " style="fill:rgb(128, 94, 54); fill-opacity:1.000; stroke:none;" />
 <path d="  M 55,20  L 54,20  L 54,22  L 55,22  Z  " style="fill:rgb(128, 94, 54); fill-opacity:1.000; stroke:none;" />
 <path d="  M 61,43  L 60,43  L 60,42  L 56,42  L 56,40  L 55,40  L 55,42  L 54,42  L 54,44  L 61,44  Z  " style="fill:rgb(128, 94, 54); fill-opacity:1.000; stroke:none;" />
 <path d="  M 55,24  L 56,24  L 56,22  L 55,22  Z  " style="fill:rgb(128, 94, 54); fill-opacity:1.000; stroke:none;" />
 <path d="  M 61,28  L 61,27  L 60,27  L 60,26  L 57,26  L 57,24  L 56,24  L 56,28  L 57,28  L 57,36  L 58,36  L 58,28  Z  " style="fill:rgb(128, 94, 54); fill-opacity:1.000; stroke:none;" />
 <path d="  M 56,40  L 57,40  L 57,36  L 56,36  Z  " style="fill:rgb(128, 94, 54); fill-opacity:1.000; stroke:none;" />
 <path d="  M 61,27  L 62,27  L 62,26  L 61,26  Z  " style="fill:rgb(128, 94, 54); fill-opacity:1.000; stroke:none;" />
 <path d="  M 62,42  L 61,42  L 61,43  L 62,43  Z  " style="fill:rgb(128, 94, 54); fill-opacity:1.000; stroke:none;" />
 <path d="  M 64,0  L 62,0  L 62,1  L 63,1  L 63,2  L 64,2  Z  " style="fill:rgb(128, 94, 54); fill-opacity:1.000; stroke:none;" />
 <path d="  M 64,64  L 64,62  L 63,62  L 63,63  L 62,63  L 62,64  Z  " style="fill:rgb(128, 94, 54); fill-opacity:1.000; stroke:none;" />
 <path d="  M 3,3  L 3,2  L 2,2  L 2,1  L 1,1  L 1,2  L 0,2  L 0,4  L 1,4  L 1,3  Z  " style="fill:rgb(139, 103, 60); fill-opacity:1.000; stroke:none;" />
 <path d="  M 2,19  L 2,14  L 1,14  L 1,13  L 0,13  L 0,16  L 1,16  L 1,18  L 0,18  L 0,20  L 1,20  L 1,19  Z  " style="fill:rgb(139, 103, 60); fill-opacity:1.000; stroke:none;" />
 <path d="  M 0,29  L 1,29  L 1,28  L 0,28  Z  " style="fill:rgb(139, 103, 60); fill-opacity:1.000; stroke:none;" />
 <path d="  M 3,32  L 4,32  L 4,31  L 5,31  L 5,30  L 2,30  L 2,29  L 1,29  L 1,30  L 0,30  L 0,32  L 2,32  L 2,31  L 3,31  Z  " style="fill:rgb(139, 103, 60); fill-opacity:1.000; stroke:none;" />
 <path d="  M 0,34  L 1,34  L 1,33  L 0,33  Z  " style="fill:rgb(139, 103, 60); fill-opacity:1.000; stroke:none;" />
 <path d="  M 2,38  L 2,34  L 1,34  L 1,35  L 0,35  L 0,37  L 1,37  L 1,38  Z  " style="fill:rgb(139, 103, 60); fill-opacity:1.000; stroke:none;" />
 <path d="  M 1,43  L 0,43  L 0,45  L 1,45  Z  " style="fill:rgb(139, 103, 60); fill-opacity:1.000; stroke:none;" />
 <path d="  M 4,45  L 4,44  L 2,44  L 2,45  L 1,45  L 1,46  L 0,46  L 0,48  L 1,48  L 1,49  L 2,49  L 2,46  L 3,46  L 3,45  Z  " style="fill:rgb(139, 103, 60); fill-opacity:1.000; stroke:none;" />
 <path d="  M 0,51  L 1,51  L 1,49  L 0,49  Z  " style="fill:rgb(139, 103, 60); fill-opacity:1.000; stroke:none;" />
 <path d="  M 0,53  L 0,56  L 1,56  L 1,57  L 2,57  L 2,55  L 1,55  L 1,54  L 2,54  L 2,52  L 1,52  L 1,53  Z  " style="fill:rgb(139, 103, 60); fill-opacity:1.000; stroke:none;" />
 <path d="  M 0,59  L 0,60  L 1,60  L 1,59  Z  " style="fill:rgb(139, 103, 60); fill-opacity:1.000; stroke:none;" />
 <path d="  M 1,63  L 2,63  L 2,64  L 4,64  L 4,63  L 5,63  L 5,62  L 3,62  L 3,61  L 2,61  L 2,60  L 1,60  L 1,61  L 0,61  L 0,62  L 1,62  Z  " style="fill:rgb(139, 103, 60); fill-opacity:1.000; stroke:none;" />
 <path d="  M 1,4  L 1,5  L 2,5  L 2,4  Z  " style="fill:rgb(139, 103, 60); fill-opacity:1.000; stroke:none;" />
 <path d="  M 1,13  L 2,13  L 2,12  L 1,12  Z  " style="fill:rgb(139, 103, 60); fill-opacity:1.000; stroke:none;" />
 <path d="  M 6,1  L 7,1  L 7,0  L 2,0  L 2,1  L 4,1  L 4,2  L 6,2  Z  " style="fill:rgb(139, 103, 60); fill-opacity:1.000; stroke:none;" />
 <path d="  M 5,45  L 4,45  L 4,46  L 5,46  Z  " style="fill:rgb(139, 103, 60); fill-opacity:1.000; stroke:none;" />
 <path d="  M 7,64  L 7,63  L 5,63  L 5,64  Z  " style="fill:rgb(139, 103, 60); fill-opacity:1.000; stroke:none;" />
 <path d="  M 7,28  L 7,30  L 8,30  L 8,28  Z  " style="fill:rgb(139, 103, 60); fill-opacity:1.000; stroke:none;" />
 <path d="  M 7,36  L 8,36  L 8,33  L 9,33  L 9,30  L 8,30  L 8,32  L 7,32  Z  " style="fill:rgb(139, 103, 60); fill-opacity:1.000; stroke:none;" />
 <path d="  M 8,24  L 8,25  L 9,25  L 9,24  Z  " style="fill:rgb(139, 103, 60); fill-opacity:1.000; stroke:none;" />
 <path d="  M 8,27  L 8,28  L 9,28  L 9,27  Z  " style="fill:rgb(139, 103, 60); fill-opacity:1.000; stroke:none;" />
 <path d="  M 9,37  L 8,37  L 8,38  L 9,38  Z  " style="fill:rgb(139, 103, 60); fill-opacity:1.000; stroke:none;" />
 <path d="  M 8,39  L 8,40  L 9,40  L 9,39  Z  " style="fill:rgb(139, 103, 60); fill-opacity:1.000; stroke:none;" />
 <path d="  M 9,64  L 9,63  L 8,63  L 8,64  Z  " style="fill:rgb(139, 103, 60); fill-opacity:1.000; stroke:none;" />
 <path d="  M 9,23  L 10,23  L 10,22  L 9,22  Z  " style="fill:rgb(139, 103, 60); fill-opacity:1.000; stroke:none;" />
 <path d="  M 11,23  L 10,23  L 10,25  L 9,25  L 9,26  L 10,26  L 10,28  L 11,28  L 11,26  L 12,26  L 12,24  L 11,24  Z  " style="fill:rgb(139, 103, 60); fill-opacity:1.000; stroke:none;" />
 <path d="  M 9,42  L 10,42  L 10,41  L 9,41  Z  " style="fill:rgb(139, 103, 60); fill-opacity:1.000; stroke:none;" />
 <path d="  M 11,22  L 11,20  L 10,20  L 10,22  Z  " style="fill:rgb(139, 103, 60); fill-opacity:1.000; stroke:none;" />
 <path d="  M 12,39  L 12,33  L 11,33  L 11,34  L 10,34  L 10,36  L 11,36  L 11,39  Z  " style="fill:rgb(139, 103, 60); fill-opacity:1.000; stroke:none;" />
 <path d="  M 10,42  L 10,44  L 11,44  L 11,43  L 12,43  L 12,42  L 14,42  L 14,43  L 16,43  L 16,42  L 15,42  L 15,41  L 18,41  L 18,42  L 19,42  L 19,41  L 20,41  L 20,40  L 21,40  L 21,41  L 23,41  L 23,38  L 22,38  L 22,37  L 21,37  L 21,38  L 20,38  L 20,39  L 19,39  L 19,40  L 13,40  L 13,41  L 12,41  L 12,40  L 11,40  L 11,42  Z  " style="fill:rgb(139, 103, 60); fill-opacity:1.000; stroke:none;" />
 <path d="  M 13,64  L 13,63  L 14,63  L 14,64  L 16,64  L 16,63  L 15,63  L 15,62  L 11,62  L 11,63  L 10,63  L 10,64  Z  " style="fill:rgb(139, 103, 60); fill-opacity:1.000; stroke:none;" />
 <path d="  M 12,1  L 11,1  L 11,2  L 12,2  Z  " style="fill:rgb(139, 103, 60); fill-opacity:1.000; stroke:none;" />
 <path d="  M 13,24  L 13,22  L 14,22  L 14,19  L 13,19  L 13,17  L 12,17  L 12,18  L 11,18  L 11,20  L 12,20  L 12,24  Z  " style="fill:rgb(139, 103, 60); fill-opacity:1.000; stroke:none;" />
 <path d="  M 11,44  L 11,46  L 12,46  L 12,44  Z  " style="fill:rgb(139, 103, 60); fill-opacity:1.000; stroke:none;" />
 <path d="  M 13,1  L 13,0  L 12,0  L 12,1  Z  " style="fill:rgb(139, 103, 60); fill-opacity:1.000; stroke:none;" />
 <path d="  M 13,32  L 12,32  L 12,33  L 13,33  Z  " style="fill:rgb(139, 103, 60); fill-opacity:1.000; stroke:none;" />
 <path d="  M 13,40  L 13,39  L 12,39  L 12,40  Z  " style="fill:rgb(139, 103, 60); fill-opacity:1.000; stroke:none;" />
 <path d="  M 13,48  L 13,47  L 12,47  L 12,48  Z  " style="fill:rgb(139, 103, 60); fill-opacity:1.000; stroke:none;" />
 <path d="  M 19,11  L 18,11  L 18,12  L 16,12  L 16,13  L 15,13  L 15,14  L 14,14  L 14,15  L 13,15  L 13,17  L 14,17  L 14,18  L 15,18  L 15,15  L 16,15  L 16,16  L 17,16  L 17,14  L 18,14  L 18,16  L 19,16  Z  " style="fill:rgb(139, 103, 60); fill-opacity:1.000; stroke:none;" />
 <path d="  M 13,29  L 13,30  L 14,30  L 14,29  Z  " style="fill:rgb(139, 103, 60); fill-opacity:1.000; stroke:none;" />
 <path d="  M 19,32  L 19,33  L 20,33  L 20,34  L 21,34  L 21,35  L 22,35  L 22,31  L 21,31  L 21,32  L 20,32  L 20,31  L 19,31  L 19,30  L 18,30  L 18,31  L 16,31  L 16,30  L 17,30  L 17,29  L 15,29  L 15,30  L 14,30  L 14,31  L 13,31  L 13,32  Z  " style="fill:rgb(139, 103, 60); fill-opacity:1.000; stroke:none;" />
 <path d="  M 15,50  L 15,49  L 16,49  L 16,51  L 17,51  L 17,52  L 18,52  L 18,53  L 20,53  L 20,52  L 19,52  L 19,51  L 18,51  L 18,50  L 17,50  L 17,46  L 16,46  L 16,48  L 15,48  L 15,47  L 14,47  L 14,48  L 13,48  L 13,49  L 14,49  L 14,50  Z  " style="fill:rgb(139, 103, 60); fill-opacity:1.000; stroke:none;" />
 <path d="  M 18,2  L 18,1  L 17,1  L 17,0  L 15,0  L 15,1  L 14,1  L 14,2  Z  " style="fill:rgb(139, 103, 60); fill-opacity:1.000; stroke:none;" />
 <path d="  M 18,17  L 18,16  L 17,16  L 17,17  Z  " style="fill:rgb(139, 103, 60); fill-opacity:1.000; stroke:none;" />
 <path d="  M 19,21  L 19,19  L 18,19  L 18,21  Z  " style="fill:rgb(139, 103, 60); fill-opacity:1.000; stroke:none;" />
 <path d="  M 18,64  L 22,64  L 22,63  L 23,63  L 23,62  L 20,62  L 20,63  L 18,63  Z  " style="fill:rgb(139, 103, 60); fill-opacity:1.000; stroke:none;" />
 <path d="  M 26,10  L 26,9  L 25,9  L 25,8  L 24,8  L 24,9  L 23,9  L 23,13  L 24,13  L 24,18  L 23,18  L 23,16  L 22,16  L 22,17  L 21,17  L 21,15  L 22,15  L 22,10  L 21,10  L 21,13  L 20,13  L 20,17  L 19,17  L 19,19  L 20,19  L 20,18  L 21,18  L 21,21  L 22,21  L 22,22  L 23,22  L 23,20  L 25,20  L 25,18  L 26,18  L 26,14  L 27,14  L 27,12  L 28,12  L 28,15  L 27,15  L 27,16  L 28,16  L 28,17  L 29,17  L 29,14  L 30,14  L 30,18  L 31,18  L 31,15  L 32,15  L 32,12  L 33,12  L 33,17  L 34,17  L 34,14  L 35,14  L 35,16  L 36,16  L 36,19  L 37,19  L 37,20  L 38,20  L 38,12  L 39,12  L 39,18  L 40,18  L 40,15  L 41,15  L 41,16  L 42,16  L 42,17  L 43,17  L 43,15  L 42,15  L 42,14  L 41,14  L 41,11  L 40,11  L 40,8  L 38,8  L 38,9  L 37,9  L 37,14  L 36,14  L 36,10  L 35,10  L 35,8  L 34,8  L 34,7  L 32,7  L 32,8  L 33,8  L 33,9  L 32,9  L 32,10  L 31,10  L 31,12  L 30,12  L 30,8  L 29,8  L 29,7  L 28,7  L 28,9  L 27,9  L 27,10  Z  M 26,14  L 25,14  L 25,12  L 26,12  Z  M 23,18  L 23,19  L 22,19  L 22,18  Z  " style="fill:rgb(139, 103, 60); fill-opacity:1.000; stroke:none;" />
 <path d="  M 19,51  L 20,51  L 20,49  L 19,49  Z  " style="fill:rgb(139, 103, 60); fill-opacity:1.000; stroke:none;" />
 <path d="  M 24,2  L 24,1  L 22,1  L 22,0  L 21,0  L 21,1  L 20,1  L 20,2  Z  " style="fill:rgb(139, 103, 60); fill-opacity:1.000; stroke:none;" />
 <path d="  M 20,21  L 20,23  L 21,23  L 21,21  Z  " style="fill:rgb(139, 103, 60); fill-opacity:1.000; stroke:none;" />
 <path d="  M 21,30  L 20,30  L 20,31  L 21,31  Z  " style="fill:rgb(139, 103, 60); fill-opacity:1.000; stroke:none;" />
 <path d="  M 23,54  L 23,53  L 22,53  L 22,52  L 21,52  L 21,53  L 20,53  L 20,54  Z  " style="fill:rgb(139, 103, 60); fill-opacity:1.000; stroke:none;" />
 <path d="  M 21,25  L 21,27  L 23,27  L 23,28  L 24,28  L 24,29  L 25,29  L 25,27  L 24,27  L 24,25  L 25,25  L 25,23  L 24,23  L 24,24  L 23,24  L 23,26  L 22,26  L 22,25  Z  " style="fill:rgb(139, 103, 60); fill-opacity:1.000; stroke:none;" />
 <path d="  M 22,42  L 21,42  L 21,44  L 22,44  Z  " style="fill:rgb(139, 103, 60); fill-opacity:1.000; stroke:none;" />
 <path d="  M 21,49  L 22,49  L 22,50  L 23,50  L 23,48  L 24,48  L 24,46  L 23,46  L 23,47  L 22,47  L 22,48  L 21,48  Z  " style="fill:rgb(139, 103, 60); fill-opacity:1.000; stroke:none;" />
 <path d="  M 21,51  L 22,51  L 22,50  L 21,50  Z  " style="fill:rgb(139, 103, 60); fill-opacity:1.000; stroke:none;" />
 <path d="  M 22,30  L 23,30  L 23,28  L 22,28  Z  " style="fill:rgb(139, 103, 60); fill-opacity:1.000; stroke:none;" />
 <path d="  M 23,33  L 24,33  L 24,31  L 23,31  Z  " style="fill:rgb(139, 103, 60); fill-opacity:1.000; stroke:none;" />
 <path d="  M 25,37  L 24,37  L 24,36  L 23,36  L 23,38  L 24,38  L 24,39  L 25,39  Z  " style="fill:rgb(139, 103, 60); fill-opacity:1.000; stroke:none;" />
 <path d="  M 23,45  L 24,45  L 24,46  L 25,46  L 25,45  L 26,45  L 26,42  L 25,42  L 25,44  L 24,44  L 24,42  L 23,42  Z  " style="fill:rgb(139, 103, 60); fill-opacity:1.000; stroke:none;" />
 <path d="  M 26,56  L 26,55  L 25,55  L 25,54  L 23,54  L 23,55  L 24,55  L 24,56  Z  " style="fill:rgb(139, 103, 60); fill-opacity:1.000; stroke:none;" />
 <path d="  M 26,1  L 26,0  L 24,0  L 24,1  Z  " style="fill:rgb(139, 103, 60); fill-opacity:1.000; stroke:none;" />
 <path d="  M 24,35  L 25,35  L 25,34  L 24,34  Z  " style="fill:rgb(139, 103, 60); fill-opacity:1.000; stroke:none;" />
 <path d="  M 24,52  L 25,52  L 25,49  L 24,49  Z  " style="fill:rgb(139, 103, 60); fill-opacity:1.000; stroke:none;" />
 <path d="  M 26,60  L 26,63  L 24,63  L 24,64  L 27,64  L 27,63  L 29,63  L 29,62  L 28,62  L 28,61  L 27,61  L 27,60  Z  " style="fill:rgb(139, 103, 60); fill-opacity:1.000; stroke:none;" />
 <path d="  M 29,23  L 29,21  L 30,21  L 30,18  L 29,18  L 29,20  L 28,20  L 28,17  L 27,17  L 27,18  L 26,18  L 26,24  L 27,24  L 27,22  L 28,22  L 28,23  Z  " style="fill:rgb(139, 103, 60); fill-opacity:1.000; stroke:none;" />
 <path d="  M 27,42  L 27,40  L 26,40  L 26,42  Z  " style="fill:rgb(139, 103, 60); fill-opacity:1.000; stroke:none;" />
 <path d="  M 26,52  L 26,54  L 27,54  L 27,52  Z  " style="fill:rgb(139, 103, 60); fill-opacity:1.000; stroke:none;" />
 <path d="  M 29,2  L 29,3  L 30,3  L 30,2  L 31,2  L 31,1  L 30,1  L 30,0  L 28,0  L 28,1  L 27,1  L 27,2  Z  " style="fill:rgb(139, 103, 60); fill-opacity:1.000; stroke:none;" />
 <path d="  M 27,54  L 27,56  L 29,56  L 29,52  L 28,52  L 28,54  Z  " style="fill:rgb(139, 103, 60); fill-opacity:1.000; stroke:none;" />
 <path d="  M 29,27  L 30,27  L 30,23  L 29,23  L 29,24  L 28,24  L 28,25  L 29,25  Z  " style="fill:rgb(139, 103, 60); fill-opacity:1.000; stroke:none;" />
 <path d="  M 28,29  L 29,29  L 29,27  L 28,27  Z  " style="fill:rgb(139, 103, 60); fill-opacity:1.000; stroke:none;" />
 <path d="  M 29,31  L 29,30  L 28,30  L 28,31  Z  " style="fill:rgb(139, 103, 60); fill-opacity:1.000; stroke:none;" />
 <path d="  M 29,47  L 29,49  L 30,49  L 30,47  Z  " style="fill:rgb(139, 103, 60); fill-opacity:1.000; stroke:none;" />
 <path d="  M 30,50  L 29,50  L 29,52  L 30,52  Z  " style="fill:rgb(139, 103, 60); fill-opacity:1.000; stroke:none;" />
 <path d="  M 30,55  L 31,55  L 31,54  L 30,54  Z  " style="fill:rgb(139, 103, 60); fill-opacity:1.000; stroke:none;" />
 <path d="  M 37,53  L 38,53  L 38,54  L 39,54  L 39,55  L 38,55  L 38,56  L 40,56  L 40,54  L 41,54  L 41,53  L 40,53  L 40,52  L 41,52  L 41,51  L 40,51  L 40,50  L 39,50  L 39,48  L 38,48  L 38,50  L 37,50  L 37,48  L 35,48  L 35,50  L 34,50  L 34,52  L 32,52  L 32,51  L 31,51  L 31,54  L 32,54  L 32,55  L 31,55  L 31,57  L 34,57  L 34,54  L 35,54  L 35,56  L 36,56  L 36,51  L 37,51  Z  M 34,52  L 35,52  L 35,53  L 34,53  Z  " style="fill:rgb(139, 103, 60); fill-opacity:1.000; stroke:none;" />
 <path d="  M 32,63  L 31,63  L 31,64  L 35,64  L 35,63  L 34,63  L 34,62  L 32,62  Z  " style="fill:rgb(139, 103, 60); fill-opacity:1.000; stroke:none;" />
 <path d="  M 34,38  L 34,39  L 35,39  L 35,38  Z  " style="fill:rgb(139, 103, 60); fill-opacity:1.000; stroke:none;" />
 <path d="  M 34,42  L 35,42  L 35,40  L 34,40  Z  " style="fill:rgb(139, 103, 60); fill-opacity:1.000; stroke:none;" />
 <path d="  M 38,2  L 38,0  L 35,0  L 35,1  L 36,1  L 36,2  Z  " style="fill:rgb(139, 103, 60); fill-opacity:1.000; stroke:none;" />
 <path d="  M 36,31  L 36,30  L 35,30  L 35,31  Z  " style="fill:rgb(139, 103, 60); fill-opacity:1.000; stroke:none;" />
 <path d="  M 37,44  L 36,44  L 36,42  L 35,42  L 35,45  L 36,45  L 36,47  L 37,47  L 37,48  L 38,48  L 38,46  L 37,46  Z  " style="fill:rgb(139, 103, 60); fill-opacity:1.000; stroke:none;" />
 <path d="  M 37,30  L 37,28  L 38,28  L 38,26  L 37,26  L 37,27  L 36,27  L 36,30  Z  " style="fill:rgb(139, 103, 60); fill-opacity:1.000; stroke:none;" />
 <path d="  M 40,64  L 40,63  L 38,63  L 38,62  L 37,62  L 37,61  L 36,61  L 36,64  Z  " style="fill:rgb(139, 103, 60); fill-opacity:1.000; stroke:none;" />
 <path d="  M 38,21  L 37,21  L 37,22  L 38,22  Z  " style="fill:rgb(139, 103, 60); fill-opacity:1.000; stroke:none;" />
 <path d="  M 38,44  L 38,43  L 37,43  L 37,44  Z  " style="fill:rgb(139, 103, 60); fill-opacity:1.000; stroke:none;" />
 <path d="  M 38,60  L 37,60  L 37,61  L 38,61  Z  " style="fill:rgb(139, 103, 60); fill-opacity:1.000; stroke:none;" />
 <path d="  M 38,26  L 39,26  L 39,28  L 40,28  L 40,30  L 41,30  L 41,31  L 42,31  L 42,29  L 41,29  L 41,27  L 40,27  L 40,25  L 39,25  L 39,22  L 38,22  Z  " style="fill:rgb(139, 103, 60); fill-opacity:1.000; stroke:none;" />
 <path d="  M 39,35  L 40,35  L 40,37  L 39,37  L 39,39  L 40,39  L 40,38  L 41,38  L 41,36  L 42,36  L 42,35  L 41,35  L 41,34  L 40,34  L 40,32  L 39,32  Z  " style="fill:rgb(139, 103, 60); fill-opacity:1.000; stroke:none;" />
 <path d="  M 39,41  L 39,42  L 40,42  L 40,41  Z  " style="fill:rgb(139, 103, 60); fill-opacity:1.000; stroke:none;" />
 <path d="  M 42,45  L 43,45  L 43,43  L 42,43  L 42,44  L 41,44  L 41,45  L 40,45  L 40,44  L 39,44  L 39,47  L 40,47  L 40,46  L 41,46  L 41,50  L 42,50  Z  " style="fill:rgb(139, 103, 60); fill-opacity:1.000; stroke:none;" />
 <path d="  M 40,22  L 40,24  L 42,24  L 42,26  L 43,26  L 43,23  L 41,23  L 41,22  Z  " style="fill:rgb(139, 103, 60); fill-opacity:1.000; stroke:none;" />
 <path d="  M 40,31  L 40,32  L 41,32  L 41,31  Z  " style="fill:rgb(139, 103, 60); fill-opacity:1.000; stroke:none;" />
 <path d="  M 41,42  L 40,42  L 40,43  L 41,43  Z  " style="fill:rgb(139, 103, 60); fill-opacity:1.000; stroke:none;" />
 <path d="  M 41,62  L 40,62  L 40,63  L 41,63  Z  " style="fill:rgb(139, 103, 60); fill-opacity:1.000; stroke:none;" />
 <path d="  M 41,1  L 41,2  L 44,2  L 44,1  L 45,1  L 45,0  L 43,0  L 43,1  Z  " style="fill:rgb(139, 103, 60); fill-opacity:1.000; stroke:none;" />
 <path d="  M 43,21  L 43,20  L 42,20  L 42,19  L 41,19  L 41,21  Z  " style="fill:rgb(139, 103, 60); fill-opacity:1.000; stroke:none;" />
 <path d="  M 42,27  L 42,26  L 41,26  L 41,27  Z  " style="fill:rgb(139, 103, 60); fill-opacity:1.000; stroke:none;" />
 <path d="  M 41,40  L 41,41  L 42,41  L 42,40  Z  " style="fill:rgb(139, 103, 60); fill-opacity:1.000; stroke:none;" />
 <path d="  M 42,13  L 43,13  L 43,12  L 44,12  L 44,10  L 42,10  Z  " style="fill:rgb(139, 103, 60); fill-opacity:1.000; stroke:none;" />
 <path d="  M 42,27  L 42,28  L 43,28  L 43,27  Z  " style="fill:rgb(139, 103, 60); fill-opacity:1.000; stroke:none;" />
 <path d="  M 42,32  L 42,35  L 43,35  L 43,32  Z  " style="fill:rgb(139, 103, 60); fill-opacity:1.000; stroke:none;" />
 <path d="  M 43,39  L 43,38  L 42,38  L 42,39  Z  " style="fill:rgb(139, 103, 60); fill-opacity:1.000; stroke:none;" />
 <path d="  M 43,50  L 42,50  L 42,54  L 44,54  L 44,53  L 43,53  L 43,51  L 44,51  L 44,48  L 43,48  Z  " style="fill:rgb(139, 103, 60); fill-opacity:1.000; stroke:none;" />
 <path d="  M 48,63  L 48,64  L 49,64  L 49,62  L 45,62  L 45,63  L 42,63  L 42,64  L 47,64  L 47,63  Z  " style="fill:rgb(139, 103, 60); fill-opacity:1.000; stroke:none;" />
 <path d="  M 44,15  L 45,15  L 45,13  L 44,13  Z  " style="fill:rgb(139, 103, 60); fill-opacity:1.000; stroke:none;" />
 <path d="  M 46,16  L 45,16  L 45,18  L 44,18  L 44,20  L 45,20  L 45,19  L 46,19  Z  " style="fill:rgb(139, 103, 60); fill-opacity:1.000; stroke:none;" />
 <path d="  M 44,51  L 44,52  L 45,52  L 45,51  Z  " style="fill:rgb(139, 103, 60); fill-opacity:1.000; stroke:none;" />
 <path d="  M 46,16  L 47,16  L 47,14  L 49,14  L 49,13  L 48,13  L 48,12  L 46,12  L 46,11  L 45,11  L 45,13  L 46,13  Z  " style="fill:rgb(139, 103, 60); fill-opacity:1.000; stroke:none;" />
 <path d="  M 45,40  L 46,40  L 46,37  L 45,37  Z  " style="fill:rgb(139, 103, 60); fill-opacity:1.000; stroke:none;" />
 <path d="  M 46,53  L 46,52  L 45,52  L 45,53  Z  " style="fill:rgb(139, 103, 60); fill-opacity:1.000; stroke:none;" />
 <path d="  M 47,2  L 47,1  L 46,1  L 46,3  L 47,3  L 47,5  L 48,5  L 48,2  Z  " style="fill:rgb(139, 103, 60); fill-opacity:1.000; stroke:none;" />
 <path d="  M 46,24  L 47,24  L 47,22  L 46,22  Z  " style="fill:rgb(139, 103, 60); fill-opacity:1.000; stroke:none;" />
 <path d="  M 47,26  L 46,26  L 46,28  L 47,28  Z  " style="fill:rgb(139, 103, 60); fill-opacity:1.000; stroke:none;" />
 <path d="  M 46,44  L 47,44  L 47,42  L 48,42  L 48,40  L 47,40  L 47,41  L 46,41  Z  " style="fill:rgb(139, 103, 60); fill-opacity:1.000; stroke:none;" />
 <path d="  M 46,45  L 46,47  L 47,47  L 47,49  L 48,49  L 48,51  L 49,51  L 49,50  L 50,50  L 50,49  L 49,49  L 49,48  L 48,48  L 48,46  L 47,46  L 47,45  Z  " style="fill:rgb(139, 103, 60); fill-opacity:1.000; stroke:none;" />
 <path d="  M 47,50  L 46,50  L 46,52  L 47,52  Z  " style="fill:rgb(139, 103, 60); fill-opacity:1.000; stroke:none;" />
 <path d="  M 54,0  L 52,0  L 52,1  L 51,1  L 51,0  L 47,0  L 47,1  L 48,1  L 48,2  L 54,2  Z  " style="fill:rgb(139, 103, 60); fill-opacity:1.000; stroke:none;" />
 <path d="  M 48,20  L 47,20  L 47,22  L 48,22  Z  " style="fill:rgb(139, 103, 60); fill-opacity:1.000; stroke:none;" />
 <path d="  M 47,28  L 47,30  L 48,30  L 48,28  Z  " style="fill:rgb(139, 103, 60); fill-opacity:1.000; stroke:none;" />
 <path d="  M 49,20  L 49,18  L 50,18  L 50,17  L 51,17  L 51,19  L 52,19  L 52,20  L 53,20  L 53,18  L 52,18  L 52,16  L 51,16  L 51,15  L 49,15  L 49,17  L 48,17  L 48,20  Z  " style="fill:rgb(139, 103, 60); fill-opacity:1.000; stroke:none;" />
 <path d="  M 49,34  L 48,34  L 48,36  L 49,36  Z  " style="fill:rgb(139, 103, 60); fill-opacity:1.000; stroke:none;" />
 <path d="  M 49,20  L 49,21  L 50,21  L 50,20  Z  " style="fill:rgb(139, 103, 60); fill-opacity:1.000; stroke:none;" />
 <path d="  M 51,33  L 50,33  L 50,32  L 49,32  L 49,34  L 50,34  L 50,36  L 51,36  Z  " style="fill:rgb(139, 103, 60); fill-opacity:1.000; stroke:none;" />
 <path d="  M 50,23  L 51,23  L 51,26  L 52,26  L 52,22  L 51,22  L 51,21  L 50,21  Z  " style="fill:rgb(139, 103, 60); fill-opacity:1.000; stroke:none;" />
 <path d="  M 51,32  L 51,31  L 50,31  L 50,32  Z  " style="fill:rgb(139, 103, 60); fill-opacity:1.000; stroke:none;" />
 <path d="  M 50,40  L 51,40  L 51,38  L 50,38  Z  " style="fill:rgb(139, 103, 60); fill-opacity:1.000; stroke:none;" />
 <path d="  M 51,44  L 50,44  L 50,46  L 51,46  Z  " style="fill:rgb(139, 103, 60); fill-opacity:1.000; stroke:none;" />
 <path d="  M 50,49  L 51,49  L 51,47  L 50,47  Z  " style="fill:rgb(139, 103, 60); fill-opacity:1.000; stroke:none;" />
 <path d="  M 51,63  L 51,62  L 50,62  L 50,63  Z  " style="fill:rgb(139, 103, 60); fill-opacity:1.000; stroke:none;" />
 <path d="  M 52,42  L 52,41  L 51,41  L 51,43  L 53,43  L 53,44  L 54,44  L 54,42  L 55,42  L 55,40  L 54,40  L 54,41  L 53,41  L 53,42  Z  " style="fill:rgb(139, 103, 60); fill-opacity:1.000; stroke:none;" />
 <path d="  M 52,62  L 52,63  L 51,63  L 51,64  L 59,64  L 59,63  L 57,63  L 57,62  L 56,62  L 56,63  L 54,63  L 54,62  Z  " style="fill:rgb(139, 103, 60); fill-opacity:1.000; stroke:none;" />
 <path d="  M 52,22  L 53,22  L 53,24  L 54,24  L 54,25  L 55,25  L 55,27  L 56,27  L 56,24  L 55,24  L 55,22  L 54,22  L 54,21  L 52,21  Z  " style="fill:rgb(139, 103, 60); fill-opacity:1.000; stroke:none;" />
 <path d="  M 52,44  L 52,46  L 53,46  L 53,44  Z  " style="fill:rgb(139, 103, 60); fill-opacity:1.000; stroke:none;" />
 <path d="  M 55,35  L 56,35  L 56,36  L 57,36  L 57,28  L 56,28  L 56,31  L 55,31  L 55,33  L 56,33  L 56,34  L 55,34  Z  " style="fill:rgb(139, 103, 60); fill-opacity:1.000; stroke:none;" />
 <path d="  M 55,37  L 55,40  L 56,40  L 56,37  Z  " style="fill:rgb(139, 103, 60); fill-opacity:1.000; stroke:none;" />
 <path d="  M 61,1  L 61,0  L 58,0  L 58,1  L 59,1  L 59,2  L 61,2  L 61,3  L 63,3  L 63,1  Z  " style="fill:rgb(139, 103, 60); fill-opacity:1.000; stroke:none;" />
 <path d="  M 60,27  L 61,27  L 61,26  L 60,26  Z  " style="fill:rgb(139, 103, 60); fill-opacity:1.000; stroke:none;" />
 <path d="  M 60,42  L 60,43  L 61,43  L 61,42  Z  " style="fill:rgb(139, 103, 60); fill-opacity:1.000; stroke:none;" />
 <path d="  M 64,26  L 63,26  L 63,25  L 62,25  L 62,27  L 61,27  L 61,28  L 62,28  L 62,29  L 63,29  L 63,32  L 64,32  Z  " style="fill:rgb(139, 103, 60); fill-opacity:1.000; stroke:none;" />
 <path d="  M 61,44  L 63,44  L 63,45  L 64,45  L 64,42  L 63,42  L 63,41  L 62,41  L 62,43  L 61,43  Z  " style="fill:rgb(139, 103, 60); fill-opacity:1.000; stroke:none;" />
 <path d="  M 64,62  L 64,60  L 63,60  L 63,61  L 61,61  L 61,62  L 62,62  L 62,63  L 63,63  L 63,62  Z  " style="fill:rgb(139, 103, 60); fill-opacity:1.000; stroke:none;" />
 <path d="  M 62,64  L 62,63  L 61,63  L 61,64  Z  " style="fill:rgb(139, 103, 60); fill-opacity:1.000; stroke:none;" />
 <path d="  M 63,7  L 64,7  L 64,4  L 62,4  L 62,5  L 63,5  Z  " style="fill:rgb(139, 103, 60); fill-opacity:1.000; stroke:none;" />
 <path d="  M 63,7  L 62,7  L 62,9  L 63,9  Z  " style="fill:rgb(139, 103, 60); fill-opacity:1.000; stroke:none;" />
 <path d="  M 64,17  L 64,10  L 62,10  L 62,12  L 63,12  L 63,13  L 62,13  L 62,15  L 63,15  L 63,17  Z  " style="fill:rgb(139, 103, 60); fill-opacity:1.000; stroke:none;" />
 <path d="  M 63,21  L 64,21  L 64,18  L 63,18  L 63,17  L 62,17  L 62,19  L 63,19  Z  " style="fill:rgb(139, 103, 60); fill-opacity:1.000; stroke:none;" />
 <path d="  M 62,39  L 63,39  L 63,40  L 64,40  L 64,36  L 63,36  L 63,34  L 62,34  Z  " style="fill:rgb(139, 103, 60); fill-opacity:1.000; stroke:none;" />
 <path d="  M 62,53  L 63,53  L 63,54  L 64,54  L 64,51  L 63,51  L 63,49  L 62,49  Z  " style="fill:rgb(139, 103, 60); fill-opacity:1.000; stroke:none;" />
 <path d="  M 63,56  L 63,55  L 62,55  L 62,57  L 63,57  L 63,58  L 64,58  L 64,56  Z  " style="fill:rgb(139, 103, 60); fill-opacity:1.000; stroke:none;" />
 <path d="  M 63,22  L 63,24  L 64,24  L 64,22  Z  " style="fill:rgb(139, 103, 60); fill-opacity:1.000; stroke:none;" />
 <path d="  M 0,13  L 1,13  L 1,12  L 2,12  L 2,5  L 1,5  L 1,4  L 0,4  Z  " style="fill:rgb(153, 113, 64); fill-opacity:1.000; stroke:none;" />
 <path d="  M 0,18  L 1,18  L 1,16  L 0,16  Z  " style="fill:rgb(153, 113, 64); fill-opacity:1.000; stroke:none;" />
 <path d="  M 2,19  L 1,19  L 1,20  L 0,20  L 0,28  L 1,28  L 1,29  L 2,29  Z  " style="fill:rgb(153, 113, 64); fill-opacity:1.000; stroke:none;" />
 <path d="  M 1,29  L 0,29  L 0,30  L 1,30  Z  " style="fill:rgb(153, 113, 64); fill-opacity:1.000; stroke:none;" />
 <path d="  M 2,32  L 0,32  L 0,33  L 1,33  L 1,34  L 2,34  Z  " style="fill:rgb(153, 113, 64); fill-opacity:1.000; stroke:none;" />
 <path d="  M 1,35  L 1,34  L 0,34  L 0,35  Z  " style="fill:rgb(153, 113, 64); fill-opacity:1.000; stroke:none;" />
 <path d="  M 2,38  L 1,38  L 1,37  L 0,37  L 0,43  L 1,43  L 1,45  L 2,45  Z  " style="fill:rgb(153, 113, 64); fill-opacity:1.000; stroke:none;" />
 <path d="  M 0,46  L 1,46  L 1,45  L 0,45  Z  " style="fill:rgb(153, 113, 64); fill-opacity:1.000; stroke:none;" />
 <path d="  M 1,49  L 1,48  L 0,48  L 0,49  Z  " style="fill:rgb(153, 113, 64); fill-opacity:1.000; stroke:none;" />
 <path d="  M 1,51  L 0,51  L 0,53  L 1,53  L 1,52  L 2,52  L 2,49  L 1,49  Z  " style="fill:rgb(153, 113, 64); fill-opacity:1.000; stroke:none;" />
 <path d="  M 2,57  L 1,57  L 1,56  L 0,56  L 0,59  L 1,59  L 1,60  L 2,60  Z  " style="fill:rgb(153, 113, 64); fill-opacity:1.000; stroke:none;" />
 <path d="  M 1,61  L 1,60  L 0,60  L 0,61  Z  " style="fill:rgb(153, 113, 64); fill-opacity:1.000; stroke:none;" />
 <path d="  M 2,4  L 2,3  L 1,3  L 1,4  Z  " style="fill:rgb(153, 113, 64); fill-opacity:1.000; stroke:none;" />
 <path d="  M 1,13  L 1,14  L 2,14  L 2,13  Z  " style="fill:rgb(153, 113, 64); fill-opacity:1.000; stroke:none;" />
 <path d="  M 1,55  L 2,55  L 2,54  L 1,54  Z  " style="fill:rgb(153, 113, 64); fill-opacity:1.000; stroke:none;" />
 <path d="  M 4,2  L 4,1  L 2,1  L 2,2  Z  " style="fill:rgb(153, 113, 64); fill-opacity:1.000; stroke:none;" />
 <path d="  M 5,64  L 5,63  L 4,63  L 4,64  Z  " style="fill:rgb(153, 113, 64); fill-opacity:1.000; stroke:none;" />
 <path d="  M 7,63  L 7,64  L 8,64  L 8,63  L 9,63  L 9,64  L 10,64  L 10,63  L 11,63  L 11,62  L 5,62  L 5,63  Z  " style="fill:rgb(153, 113, 64); fill-opacity:1.000; stroke:none;" />
 <path d="  M 6,1  L 6,2  L 11,2  L 11,1  L 12,1  L 12,0  L 7,0  L 7,1  Z  " style="fill:rgb(153, 113, 64); fill-opacity:1.000; stroke:none;" />
 <path d="  M 13,29  L 14,29  L 14,30  L 13,30  Z  M 19,30  L 19,31  L 20,31  L 20,30  L 21,30  L 21,31  L 22,31  L 22,27  L 21,27  L 21,25  L 22,25  L 22,21  L 21,21  L 21,18  L 20,18  L 20,19  L 19,19  L 19,21  L 18,21  L 18,17  L 17,17  L 17,16  L 16,16  L 16,15  L 15,15  L 15,18  L 14,18  L 14,17  L 13,17  L 13,19  L 14,19  L 14,22  L 13,22  L 13,24  L 12,24  L 12,26  L 11,26  L 11,28  L 10,28  L 10,26  L 9,26  L 9,25  L 8,25  L 8,27  L 9,27  L 9,28  L 8,28  L 8,30  L 9,30  L 9,33  L 8,33  L 8,37  L 9,37  L 9,38  L 8,38  L 8,39  L 9,39  L 9,41  L 10,41  L 10,42  L 11,42  L 11,40  L 12,40  L 12,39  L 11,39  L 11,36  L 10,36  L 10,34  L 11,34  L 11,33  L 12,33  L 12,32  L 13,32  L 13,31  L 14,31  L 14,30  L 15,30  L 15,29  L 17,29  L 17,30  L 16,30  L 16,31  L 18,31  L 18,30  Z  M 20,21  L 21,21  L 21,23  L 20,23  Z  " style="fill:rgb(153, 113, 64); fill-opacity:1.000; stroke:none;" />
 <path d="  M 9,25  L 10,25  L 10,23  L 9,23  Z  " style="fill:rgb(153, 113, 64); fill-opacity:1.000; stroke:none;" />
 <path d="  M 11,23  L 11,24  L 12,24  L 12,20  L 11,20  L 11,22  L 10,22  L 10,23  Z  " style="fill:rgb(153, 113, 64); fill-opacity:1.000; stroke:none;" />
 <path d="  M 22,44  L 21,44  L 21,42  L 22,42  L 22,41  L 21,41  L 21,40  L 20,40  L 20,41  L 19,41  L 19,42  L 18,42  L 18,41  L 15,41  L 15,42  L 16,42  L 16,43  L 14,43  L 14,42  L 12,42  L 12,43  L 11,43  L 11,44  L 12,44  L 12,47  L 13,47  L 13,48  L 14,48  L 14,47  L 15,47  L 15,48  L 16,48  L 16,46  L 17,46  L 17,50  L 18,50  L 18,51  L 19,51  L 19,52  L 20,52  L 20,53  L 21,53  L 21,52  L 22,52  L 22,51  L 21,51  L 21,50  L 22,50  L 22,49  L 21,49  L 21,48  L 22,48  Z  M 20,49  L 20,51  L 19,51  L 19,49  Z  " style="fill:rgb(153, 113, 64); fill-opacity:1.000; stroke:none;" />
 <path d="  M 14,2  L 14,1  L 15,1  L 15,0  L 13,0  L 13,1  L 12,1  L 12,2  Z  " style="fill:rgb(153, 113, 64); fill-opacity:1.000; stroke:none;" />
 <path d="  M 12,40  L 12,41  L 13,41  L 13,40  Z  " style="fill:rgb(153, 113, 64); fill-opacity:1.000; stroke:none;" />
 <path d="  M 13,64  L 14,64  L 14,63  L 13,63  Z  " style="fill:rgb(153, 113, 64); fill-opacity:1.000; stroke:none;" />
 <path d="  M 20,63  L 20,62  L 15,62  L 15,63  L 16,63  L 16,64  L 18,64  L 18,63  Z  " style="fill:rgb(153, 113, 64); fill-opacity:1.000; stroke:none;" />
 <path d="  M 17,0  L 17,1  L 18,1  L 18,2  L 20,2  L 20,1  L 21,1  L 21,0  Z  " style="fill:rgb(153, 113, 64); fill-opacity:1.000; stroke:none;" />
 <path d="  M 17,16  L 18,16  L 18,14  L 17,14  Z  " style="fill:rgb(153, 113, 64); fill-opacity:1.000; stroke:none;" />
 <path d="  M 21,32  L 21,31  L 20,31  L 20,32  Z  " style="fill:rgb(153, 113, 64); fill-opacity:1.000; stroke:none;" />
 <path d="  M 24,1  L 24,0  L 22,0  L 22,1  Z  " style="fill:rgb(153, 113, 64); fill-opacity:1.000; stroke:none;" />
 <path d="  M 22,64  L 24,64  L 24,63  L 26,63  L 26,62  L 23,62  L 23,63  L 22,63  Z  " style="fill:rgb(153, 113, 64); fill-opacity:1.000; stroke:none;" />
 <path d="  M 27,2  L 27,1  L 28,1  L 28,0  L 26,0  L 26,1  L 24,1  L 24,2  Z  " style="fill:rgb(153, 113, 64); fill-opacity:1.000; stroke:none;" />
 <path d="  M 38,22  L 39,22  L 39,25  L 40,25  L 40,18  L 39,18  L 39,12  L 38,12  L 38,20  L 37,20  L 37,19  L 36,19  L 36,16  L 35,16  L 35,14  L 34,14  L 34,17  L 33,17  L 33,12  L 32,12  L 32,15  L 31,15  L 31,18  L 30,18  L 30,21  L 29,21  L 29,23  L 28,23  L 28,22  L 27,22  L 27,24  L 26,24  L 26,18  L 25,18  L 25,20  L 24,20  L 24,23  L 25,23  L 25,25  L 24,25  L 24,27  L 25,27  L 25,29  L 24,29  L 24,34  L 25,34  L 25,35  L 24,35  L 24,37  L 25,37  L 25,39  L 24,39  L 24,44  L 25,44  L 25,42  L 26,42  L 26,45  L 25,45  L 25,46  L 24,46  L 24,49  L 25,49  L 25,52  L 24,52  L 24,54  L 25,54  L 25,55  L 26,55  L 26,56  L 27,56  L 27,54  L 28,54  L 28,52  L 29,52  L 29,50  L 30,50  L 30,54  L 31,54  L 31,51  L 32,51  L 32,52  L 34,52  L 34,50  L 35,50  L 35,48  L 36,48  L 36,45  L 35,45  L 35,42  L 36,42  L 36,44  L 37,44  L 37,46  L 38,46  L 38,48  L 39,48  L 39,50  L 40,50  L 40,47  L 39,47  L 39,44  L 40,44  L 40,42  L 39,42  L 39,41  L 40,41  L 40,39  L 39,39  L 39,37  L 40,37  L 40,35  L 39,35  L 39,32  L 40,32  L 40,28  L 39,28  L 39,26  L 38,26  Z  M 29,25  L 28,25  L 28,24  L 29,24  L 29,23  L 30,23  L 30,27  L 29,27  Z  M 35,42  L 34,42  L 34,40  L 35,40  Z  M 26,42  L 26,40  L 27,40  L 27,42  Z  M 36,27  L 37,27  L 37,26  L 38,26  L 38,28  L 37,28  L 37,30  L 36,30  Z  M 34,39  L 34,38  L 35,38  L 35,39  Z  M 29,49  L 29,47  L 30,47  L 30,49  Z  M 28,27  L 29,27  L 29,29  L 28,29  Z  M 28,30  L 29,30  L 29,31  L 28,31  Z  M 27,54  L 26,54  L 26,52  L 27,52  Z  M 35,30  L 36,30  L 36,31  L 35,31  Z  M 38,22  L 37,22  L 37,21  L 38,21  Z  M 38,44  L 37,44  L 37,43  L 38,43  Z  " style="fill:rgb(153, 113, 64); fill-opacity:1.000; stroke:none;" />
 <path d="  M 31,64  L 31,63  L 32,63  L 32,62  L 29,62  L 29,63  L 27,63  L 27,64  Z  " style="fill:rgb(153, 113, 64); fill-opacity:1.000; stroke:none;" />
 <path d="  M 30,18  L 30,14  L 29,14  L 29,17  L 28,17  L 28,20  L 29,20  L 29,18  Z  " style="fill:rgb(153, 113, 64); fill-opacity:1.000; stroke:none;" />
 <path d="  M 36,2  L 36,1  L 35,1  L 35,0  L 30,0  L 30,1  L 31,1  L 31,2  Z  " style="fill:rgb(153, 113, 64); fill-opacity:1.000; stroke:none;" />
 <path d="  M 31,54  L 31,55  L 32,55  L 32,54  Z  " style="fill:rgb(153, 113, 64); fill-opacity:1.000; stroke:none;" />
 <path d="  M 34,52  L 34,53  L 35,53  L 35,52  Z  " style="fill:rgb(153, 113, 64); fill-opacity:1.000; stroke:none;" />
 <path d="  M 36,62  L 34,62  L 34,63  L 35,63  L 35,64  L 36,64  Z  " style="fill:rgb(153, 113, 64); fill-opacity:1.000; stroke:none;" />
 <path d="  M 41,1  L 43,1  L 43,0  L 38,0  L 38,2  L 41,2  Z  " style="fill:rgb(153, 113, 64); fill-opacity:1.000; stroke:none;" />
 <path d="  M 38,63  L 40,63  L 40,62  L 38,62  Z  " style="fill:rgb(153, 113, 64); fill-opacity:1.000; stroke:none;" />
 <path d="  M 42,63  L 45,63  L 45,62  L 41,62  L 41,63  L 40,63  L 40,64  L 42,64  Z  " style="fill:rgb(153, 113, 64); fill-opacity:1.000; stroke:none;" />
 <path d="  M 51,36  L 50,36  L 50,34  L 49,34  L 49,32  L 50,32  L 50,33  L 51,33  Z  M 45,15  L 44,15  L 44,12  L 43,12  L 43,13  L 42,13  L 42,15  L 43,15  L 43,17  L 42,17  L 42,20  L 43,20  L 43,21  L 42,21  L 42,23  L 43,23  L 43,26  L 42,26  L 42,27  L 43,27  L 43,28  L 42,28  L 42,32  L 43,32  L 43,35  L 42,35  L 42,38  L 43,38  L 43,39  L 42,39  L 42,43  L 43,43  L 43,45  L 42,45  L 42,50  L 43,50  L 43,48  L 44,48  L 44,51  L 45,51  L 45,52  L 46,52  L 46,50  L 47,50  L 47,47  L 46,47  L 46,45  L 47,45  L 47,46  L 48,46  L 48,48  L 49,48  L 49,47  L 50,47  L 50,38  L 51,38  L 51,41  L 52,41  L 52,42  L 53,42  L 53,41  L 54,41  L 54,40  L 55,40  L 55,37  L 56,37  L 56,35  L 55,35  L 55,34  L 56,34  L 56,33  L 55,33  L 55,31  L 56,31  L 56,27  L 55,27  L 55,25  L 54,25  L 54,24  L 53,24  L 53,22  L 52,22  L 52,26  L 51,26  L 51,23  L 50,23  L 50,21  L 49,21  L 49,20  L 48,20  L 48,14  L 47,14  L 47,16  L 46,16  L 46,13  L 45,13  Z  M 47,44  L 46,44  L 46,41  L 47,41  L 47,40  L 48,40  L 48,42  L 47,42  Z  M 47,28  L 46,28  L 46,26  L 47,26  Z  M 47,22  L 47,20  L 48,20  L 48,22  Z  M 46,37  L 46,40  L 45,40  L 45,37  Z  M 47,28  L 48,28  L 48,30  L 47,30  Z  M 46,19  L 45,19  L 45,20  L 44,20  L 44,18  L 45,18  L 45,16  L 46,16  Z  M 51,32  L 50,32  L 50,31  L 51,31  Z  M 46,24  L 46,22  L 47,22  L 47,24  Z  M 48,34  L 49,34  L 49,36  L 48,36  Z  " style="fill:rgb(153, 113, 64); fill-opacity:1.000; stroke:none;" />
 <path d="  M 46,1  L 47,1  L 47,0  L 45,0  L 45,1  L 44,1  L 44,2  L 46,2  Z  " style="fill:rgb(153, 113, 64); fill-opacity:1.000; stroke:none;" />
 <path d="  M 47,1  L 47,2  L 48,2  L 48,1  Z  " style="fill:rgb(153, 113, 64); fill-opacity:1.000; stroke:none;" />
 <path d="  M 47,64  L 48,64  L 48,63  L 47,63  Z  " style="fill:rgb(153, 113, 64); fill-opacity:1.000; stroke:none;" />
 <path d="  M 51,64  L 51,63  L 50,63  L 50,62  L 49,62  L 49,64  Z  " style="fill:rgb(153, 113, 64); fill-opacity:1.000; stroke:none;" />
 <path d="  M 50,17  L 50,20  L 51,20  L 51,22  L 52,22  L 52,21  L 54,21  L 54,20  L 52,20  L 52,19  L 51,19  L 51,17  Z  " style="fill:rgb(153, 113, 64); fill-opacity:1.000; stroke:none;" />
 <path d="  M 51,0  L 51,1  L 52,1  L 52,0  Z  " style="fill:rgb(153, 113, 64); fill-opacity:1.000; stroke:none;" />
 <path d="  M 51,63  L 52,63  L 52,62  L 51,62  Z  " style="fill:rgb(153, 113, 64); fill-opacity:1.000; stroke:none;" />
 <path d="  M 52,43  L 52,44  L 53,44  L 53,43  Z  " style="fill:rgb(153, 113, 64); fill-opacity:1.000; stroke:none;" />
 <path d="  M 58,0  L 54,0  L 54,2  L 59,2  L 59,1  L 58,1  Z  " style="fill:rgb(153, 113, 64); fill-opacity:1.000; stroke:none;" />
 <path d="  M 56,63  L 56,62  L 54,62  L 54,63  Z  " style="fill:rgb(153, 113, 64); fill-opacity:1.000; stroke:none;" />
 <path d="  M 57,62  L 57,63  L 59,63  L 59,64  L 61,64  L 61,63  L 62,63  L 62,62  Z  " style="fill:rgb(153, 113, 64); fill-opacity:1.000; stroke:none;" />
 <path d="  M 61,1  L 62,1  L 62,0  L 61,0  Z  " style="fill:rgb(153, 113, 64); fill-opacity:1.000; stroke:none;" />
 <path d="  M 64,4  L 64,2  L 63,2  L 63,3  L 62,3  L 62,4  Z  " style="fill:rgb(153, 113, 64); fill-opacity:1.000; stroke:none;" />
 <path d="  M 62,5  L 62,7  L 63,7  L 63,5  Z  " style="fill:rgb(153, 113, 64); fill-opacity:1.000; stroke:none;" />
 <path d="  M 62,9  L 62,10  L 64,10  L 64,7  L 63,7  L 63,9  Z  " style="fill:rgb(153, 113, 64); fill-opacity:1.000; stroke:none;" />
 <path d="  M 62,13  L 63,13  L 63,12  L 62,12  Z  " style="fill:rgb(153, 113, 64); fill-opacity:1.000; stroke:none;" />
 <path d="  M 62,17  L 63,17  L 63,15  L 62,15  Z  " style="fill:rgb(153, 113, 64); fill-opacity:1.000; stroke:none;" />
 <path d="  M 63,22  L 64,22  L 64,21  L 63,21  L 63,19  L 62,19  L 62,25  L 63,25  L 63,26  L 64,26  L 64,24  L 63,24  Z  " style="fill:rgb(153, 113, 64); fill-opacity:1.000; stroke:none;" />
 <path d="  M 63,29  L 62,29  L 62,34  L 63,34  L 63,36  L 64,36  L 64,32  L 63,32  Z  " style="fill:rgb(153, 113, 64); fill-opacity:1.000; stroke:none;" />
 <path d="  M 64,40  L 63,40  L 63,39  L 62,39  L 62,41  L 63,41  L 63,42  L 64,42  Z  " style="fill:rgb(153, 113, 64); fill-opacity:1.000; stroke:none;" />
 <path d="  M 64,51  L 64,45  L 63,45  L 63,44  L 62,44  L 62,49  L 63,49  L 63,51  Z  " style="fill:rgb(153, 113, 64); fill-opacity:1.000; stroke:none;" />
 <path d="  M 64,56  L 64,54  L 63,54  L 63,53  L 62,53  L 62,55  L 63,55  L 63,56  Z  " style="fill:rgb(153, 113, 64); fill-opacity:1.000; stroke:none;" />
 <path d="  M 63,58  L 63,57  L 62,57  L 62,61  L 63,61  L 63,60  L 64,60  L 64,58  Z  " style="fill:rgb(153, 113, 64); fill-opacity:1.000; stroke:none;" />
 <path d="  M 63,18  L 64,18  L 64,17  L 63,17  Z  " style="fill:rgb(153, 113, 64); fill-opacity:1.000; stroke:none;" />
 <path d="  M 3,4  L 4,4  L 4,3  L 6,3  L 6,2  L 3,2  L 3,3  L 2,3  L 2,6  L 3,6  Z  " style="fill:rgb(102, 77, 40); fill-opacity:1.000; stroke:none;" />
 <path d="  M 2,9  L 3,9  L 3,7  L 2,7  Z  " style="fill:rgb(102, 77, 40); fill-opacity:1.000; stroke:none;" />
 <path d="  M 3,12  L 4,12  L 4,10  L 3,10  L 3,11  L 2,11  L 2,14  L 3,14  Z  " style="fill:rgb(102, 77, 40); fill-opacity:1.000; stroke:none;" />
 <path d="  M 3,17  L 2,17  L 2,18  L 3,18  Z  " style="fill:rgb(102, 77, 40); fill-opacity:1.000; stroke:none;" />
 <path d="  M 3,21  L 4,21  L 4,18  L 3,18  L 3,20  L 2,20  L 2,22  L 3,22  Z  " style="fill:rgb(102, 77, 40); fill-opacity:1.000; stroke:none;" />
 <path d="  M 3,27  L 2,27  L 2,30  L 6,30  L 6,28  L 7,28  L 7,26  L 6,26  L 6,27  L 5,27  L 5,29  L 4,29  L 4,28  L 3,28  Z  " style="fill:rgb(102, 77, 40); fill-opacity:1.000; stroke:none;" />
 <path d="  M 3,35  L 3,33  L 2,33  L 2,35  Z  " style="fill:rgb(102, 77, 40); fill-opacity:1.000; stroke:none;" />
 <path d="  M 3,49  L 3,48  L 4,48  L 4,47  L 7,47  L 7,46  L 3,46  L 3,47  L 2,47  L 2,49  Z  " style="fill:rgb(102, 77, 40); fill-opacity:1.000; stroke:none;" />
 <path d="  M 2,60  L 3,60  L 3,58  L 2,58  Z  " style="fill:rgb(102, 77, 40); fill-opacity:1.000; stroke:none;" />
 <path d="  M 3,32  L 3,33  L 4,33  L 4,34  L 6,34  L 6,32  Z  " style="fill:rgb(102, 77, 40); fill-opacity:1.000; stroke:none;" />
 <path d="  M 6,62  L 6,61  L 4,61  L 4,60  L 3,60  L 3,62  Z  " style="fill:rgb(102, 77, 40); fill-opacity:1.000; stroke:none;" />
 <path d="  M 6,43  L 5,43  L 5,44  L 6,44  Z  " style="fill:rgb(102, 77, 40); fill-opacity:1.000; stroke:none;" />
 <path d="  M 6,40  L 7,40  L 7,36  L 6,36  Z  " style="fill:rgb(102, 77, 40); fill-opacity:1.000; stroke:none;" />
 <path d="  M 7,41  L 8,41  L 8,40  L 7,40  Z  " style="fill:rgb(102, 77, 40); fill-opacity:1.000; stroke:none;" />
 <path d="  M 9,44  L 9,42  L 8,42  L 8,43  L 7,43  L 7,44  Z  " style="fill:rgb(102, 77, 40); fill-opacity:1.000; stroke:none;" />
 <path d="  M 13,3  L 13,2  L 9,2  L 9,3  L 8,3  L 8,4  L 10,4  L 10,3  Z  " style="fill:rgb(102, 77, 40); fill-opacity:1.000; stroke:none;" />
 <path d="  M 8,61  L 8,62  L 9,62  L 9,61  Z  " style="fill:rgb(102, 77, 40); fill-opacity:1.000; stroke:none;" />
 <path d="  M 11,46  L 9,46  L 9,47  L 10,47  L 10,48  L 11,48  Z  " style="fill:rgb(102, 77, 40); fill-opacity:1.000; stroke:none;" />
 <path d="  M 11,49  L 12,49  L 12,48  L 11,48  Z  " style="fill:rgb(102, 77, 40); fill-opacity:1.000; stroke:none;" />
 <path d="  M 17,62  L 17,61  L 16,61  L 16,60  L 14,60  L 14,61  L 11,61  L 11,62  Z  " style="fill:rgb(102, 77, 40); fill-opacity:1.000; stroke:none;" />
 <path d="  M 18,3  L 20,3  L 20,2  L 18,2  Z  " style="fill:rgb(102, 77, 40); fill-opacity:1.000; stroke:none;" />
 <path d="  M 18,61  L 18,62  L 19,62  L 19,61  Z  " style="fill:rgb(102, 77, 40); fill-opacity:1.000; stroke:none;" />
 <path d="  M 22,3  L 22,2  L 21,2  L 21,3  Z  " style="fill:rgb(102, 77, 40); fill-opacity:1.000; stroke:none;" />
 <path d="  M 28,2  L 23,2  L 23,3  L 26,3  L 26,4  L 27,4  L 27,6  L 28,6  Z  " style="fill:rgb(102, 77, 40); fill-opacity:1.000; stroke:none;" />
 <path d="  M 23,56  L 23,57  L 24,57  L 24,56  Z  " style="fill:rgb(102, 77, 40); fill-opacity:1.000; stroke:none;" />
 <path d="  M 26,62  L 26,61  L 25,61  L 25,60  L 24,60  L 24,61  L 23,61  L 23,62  Z  " style="fill:rgb(102, 77, 40); fill-opacity:1.000; stroke:none;" />
 <path d="  M 24,57  L 24,58  L 26,58  L 26,57  Z  " style="fill:rgb(102, 77, 40); fill-opacity:1.000; stroke:none;" />
 <path d="  M 26,60  L 26,59  L 25,59  L 25,60  Z  " style="fill:rgb(102, 77, 40); fill-opacity:1.000; stroke:none;" />
 <path d="  M 28,62  L 31,62  L 31,61  L 29,61  L 29,60  L 28,60  Z  " style="fill:rgb(102, 77, 40); fill-opacity:1.000; stroke:none;" />
 <path d="  M 30,2  L 30,4  L 32,4  L 32,3  L 34,3  L 34,2  Z  " style="fill:rgb(102, 77, 40); fill-opacity:1.000; stroke:none;" />
 <path d="  M 34,62  L 35,62  L 35,61  L 34,61  Z  " style="fill:rgb(102, 77, 40); fill-opacity:1.000; stroke:none;" />
 <path d="  M 35,3  L 36,3  L 36,2  L 35,2  Z  " style="fill:rgb(102, 77, 40); fill-opacity:1.000; stroke:none;" />
 <path d="  M 36,61  L 36,60  L 35,60  L 35,61  Z  " style="fill:rgb(102, 77, 40); fill-opacity:1.000; stroke:none;" />
 <path d="  M 40,57  L 38,57  L 38,61  L 39,61  L 39,60  L 40,60  Z  " style="fill:rgb(102, 77, 40); fill-opacity:1.000; stroke:none;" />
 <path d="  M 43,62  L 43,60  L 42,60  L 42,61  L 39,61  L 39,62  Z  " style="fill:rgb(102, 77, 40); fill-opacity:1.000; stroke:none;" />
 <path d="  M 40,57  L 41,57  L 41,56  L 40,56  Z  " style="fill:rgb(102, 77, 40); fill-opacity:1.000; stroke:none;" />
 <path d="  M 46,2  L 42,2  L 42,3  L 44,3  L 44,4  L 45,4  L 45,5  L 46,5  Z  " style="fill:rgb(102, 77, 40); fill-opacity:1.000; stroke:none;" />
 <path d="  M 47,61  L 45,61  L 45,62  L 47,62  Z  " style="fill:rgb(102, 77, 40); fill-opacity:1.000; stroke:none;" />
 <path d="  M 48,3  L 49,3  L 49,4  L 50,4  L 50,3  L 52,3  L 52,2  L 48,2  Z  " style="fill:rgb(102, 77, 40); fill-opacity:1.000; stroke:none;" />
 <path d="  M 48,61  L 48,62  L 51,62  L 51,61  Z  " style="fill:rgb(102, 77, 40); fill-opacity:1.000; stroke:none;" />
 <path d="  M 51,61  L 52,61  L 52,60  L 51,60  Z  " style="fill:rgb(102, 77, 40); fill-opacity:1.000; stroke:none;" />
 <path d="  M 54,47  L 54,46  L 53,46  L 53,47  Z  " style="fill:rgb(102, 77, 40); fill-opacity:1.000; stroke:none;" />
 <path d="  M 55,45  L 57,45  L 57,44  L 54,44  L 54,46  L 55,46  Z  " style="fill:rgb(102, 77, 40); fill-opacity:1.000; stroke:none;" />
 <path d="  M 57,23  L 56,23  L 56,24  L 57,24  Z  " style="fill:rgb(102, 77, 40); fill-opacity:1.000; stroke:none;" />
 <path d="  M 57,41  L 56,41  L 56,42  L 57,42  Z  " style="fill:rgb(102, 77, 40); fill-opacity:1.000; stroke:none;" />
 <path d="  M 60,3  L 60,4  L 61,4  L 61,6  L 62,6  L 62,3  L 61,3  L 61,2  L 57,2  L 57,3  Z  " style="fill:rgb(102, 77, 40); fill-opacity:1.000; stroke:none;" />
 <path d="  M 57,24  L 57,26  L 62,26  L 62,21  L 61,21  L 61,24  L 60,24  L 60,25  L 58,25  L 58,24  Z  " style="fill:rgb(102, 77, 40); fill-opacity:1.000; stroke:none;" />
 <path d="  M 62,42  L 62,37  L 61,37  L 61,41  L 60,41  L 60,40  L 59,40  L 59,41  L 58,41  L 58,42  Z  " style="fill:rgb(102, 77, 40); fill-opacity:1.000; stroke:none;" />
 <path d="  M 60,31  L 61,31  L 61,32  L 62,32  L 62,28  L 59,28  L 59,29  L 60,29  Z  " style="fill:rgb(102, 77, 40); fill-opacity:1.000; stroke:none;" />
 <path d="  M 62,44  L 59,44  L 59,45  L 60,45  L 60,47  L 61,47  L 61,48  L 62,48  Z  " style="fill:rgb(102, 77, 40); fill-opacity:1.000; stroke:none;" />
 <path d="  M 62,59  L 61,59  L 61,60  L 60,60  L 60,61  L 59,61  L 59,62  L 61,62  L 61,61  L 62,61  Z  " style="fill:rgb(102, 77, 40); fill-opacity:1.000; stroke:none;" />
 <path d="  M 62,53  L 61,53  L 61,54  L 60,54  L 60,56  L 61,56  L 61,57  L 62,57  Z  " style="fill:rgb(102, 77, 40); fill-opacity:1.000; stroke:none;" />
 <path d="  M 61,59  L 61,58  L 60,58  L 60,59  Z  " style="fill:rgb(102, 77, 40); fill-opacity:1.000; stroke:none;" />
 <path d="  M 61,7  L 61,8  L 62,8  L 62,7  Z  " style="fill:rgb(102, 77, 40); fill-opacity:1.000; stroke:none;" />
 <path d="  M 61,16  L 62,16  L 62,13  L 61,13  Z  " style="fill:rgb(102, 77, 40); fill-opacity:1.000; stroke:none;" />
 <path d="  M 10,3  L 10,4  L 8,4  L 8,3  L 9,3  L 9,2  L 6,2  L 6,3  L 4,3  L 4,4  L 3,4  L 3,6  L 2,6  L 2,7  L 3,7  L 3,9  L 2,9  L 2,11  L 3,11  L 3,10  L 4,10  L 4,12  L 3,12  L 3,14  L 2,14  L 2,17  L 3,17  L 3,18  L 4,18  L 4,21  L 3,21  L 3,22  L 2,22  L 2,27  L 3,27  L 3,28  L 4,28  L 4,29  L 5,29  L 5,27  L 6,27  L 6,26  L 7,26  L 7,24  L 8,24  L 8,22  L 9,22  L 9,20  L 10,20  L 10,18  L 11,18  L 11,16  L 12,16  L 12,15  L 13,15  L 13,14  L 14,14  L 14,13  L 15,13  L 15,12  L 16,12  L 16,11  L 18,11  L 18,10  L 20,10  L 20,9  L 22,9  L 22,8  L 24,8  L 24,7  L 28,7  L 28,6  L 27,6  L 27,4  L 26,4  L 26,3  L 23,3  L 23,2  L 22,2  L 22,3  L 21,3  L 21,2  L 20,2  L 20,3  L 18,3  L 18,2  L 13,2  L 13,3  Z  " style="fill:rgb(107, 83, 50); fill-opacity:1.000; stroke:none;" />
 <path d="  M 3,20  L 3,18  L 2,18  L 2,20  Z  " style="fill:rgb(107, 83, 50); fill-opacity:1.000; stroke:none;" />
 <path d="  M 3,33  L 3,32  L 2,32  L 2,33  Z  " style="fill:rgb(107, 83, 50); fill-opacity:1.000; stroke:none;" />
 <path d="  M 8,41  L 7,41  L 7,40  L 6,40  L 6,34  L 4,34  L 4,33  L 3,33  L 3,35  L 2,35  L 2,44  L 5,44  L 5,43  L 6,43  L 6,44  L 7,44  L 7,43  L 8,43  Z  " style="fill:rgb(107, 83, 50); fill-opacity:1.000; stroke:none;" />
 <path d="  M 3,46  L 2,46  L 2,47  L 3,47  Z  " style="fill:rgb(107, 83, 50); fill-opacity:1.000; stroke:none;" />
 <path d="  M 25,59  L 26,59  L 26,58  L 24,58  L 24,57  L 23,57  L 23,56  L 22,56  L 22,55  L 20,55  L 20,54  L 18,54  L 18,53  L 16,53  L 16,52  L 15,52  L 15,51  L 14,51  L 14,50  L 13,50  L 13,49  L 11,49  L 11,48  L 10,48  L 10,47  L 9,47  L 9,46  L 7,46  L 7,47  L 4,47  L 4,48  L 3,48  L 3,49  L 2,49  L 2,58  L 3,58  L 3,60  L 4,60  L 4,61  L 6,61  L 6,62  L 8,62  L 8,61  L 9,61  L 9,62  L 11,62  L 11,61  L 14,61  L 14,60  L 16,60  L 16,61  L 17,61  L 17,62  L 18,62  L 18,61  L 19,61  L 19,62  L 23,62  L 23,61  L 24,61  L 24,60  L 25,60  Z  " style="fill:rgb(107, 83, 50); fill-opacity:1.000; stroke:none;" />
 <path d="  M 2,60  L 2,61  L 3,61  L 3,60  Z  " style="fill:rgb(107, 83, 50); fill-opacity:1.000; stroke:none;" />
 <path d="  M 25,61  L 26,61  L 26,60  L 25,60  Z  " style="fill:rgb(107, 83, 50); fill-opacity:1.000; stroke:none;" />
 <path d="  M 31,61  L 31,62  L 34,62  L 34,61  L 35,61  L 35,60  L 36,60  L 36,58  L 28,58  L 28,60  L 29,60  L 29,61  Z  " style="fill:rgb(107, 83, 50); fill-opacity:1.000; stroke:none;" />
 <path d="  M 32,4  L 30,4  L 30,6  L 36,6  L 36,7  L 40,7  L 40,8  L 42,8  L 42,9  L 44,9  L 44,10  L 46,10  L 46,5  L 45,5  L 45,4  L 44,4  L 44,3  L 42,3  L 42,2  L 36,2  L 36,3  L 35,3  L 35,2  L 34,2  L 34,3  L 32,3  Z  " style="fill:rgb(107, 83, 50); fill-opacity:1.000; stroke:none;" />
 <path d="  M 35,61  L 35,62  L 36,62  L 36,61  Z  " style="fill:rgb(107, 83, 50); fill-opacity:1.000; stroke:none;" />
 <path d="  M 39,61  L 38,61  L 38,62  L 39,62  Z  " style="fill:rgb(107, 83, 50); fill-opacity:1.000; stroke:none;" />
 <path d="  M 59,62  L 59,61  L 60,61  L 60,60  L 61,60  L 61,59  L 62,59  L 62,57  L 61,57  L 61,56  L 60,56  L 60,54  L 61,54  L 61,53  L 62,53  L 62,48  L 61,48  L 61,47  L 60,47  L 60,45  L 59,45  L 59,44  L 57,44  L 57,45  L 55,45  L 55,46  L 54,46  L 54,47  L 53,47  L 53,48  L 52,48  L 52,49  L 51,49  L 51,50  L 50,50  L 50,51  L 49,51  L 49,52  L 48,52  L 48,53  L 46,53  L 46,54  L 44,54  L 44,55  L 42,55  L 42,56  L 41,56  L 41,57  L 40,57  L 40,60  L 39,60  L 39,61  L 42,61  L 42,60  L 43,60  L 43,62  L 45,62  L 45,61  L 47,61  L 47,62  L 48,62  L 48,61  L 51,61  L 51,62  Z  M 60,59  L 60,58  L 61,58  L 61,59  Z  M 52,61  L 51,61  L 51,60  L 52,60  Z  " style="fill:rgb(107, 83, 50); fill-opacity:1.000; stroke:none;" />
 <path d="  M 61,6  L 61,4  L 60,4  L 60,3  L 57,3  L 57,2  L 52,2  L 52,3  L 50,3  L 50,4  L 49,4  L 49,3  L 48,3  L 48,12  L 49,12  L 49,13  L 50,13  L 50,14  L 51,14  L 51,15  L 52,15  L 52,16  L 53,16  L 53,18  L 54,18  L 54,20  L 55,20  L 55,22  L 56,22  L 56,23  L 57,23  L 57,24  L 58,24  L 58,25  L 60,25  L 60,24  L 61,24  L 61,21  L 62,21  L 62,16  L 61,16  L 61,13  L 62,13  L 62,8  L 61,8  L 61,7  L 62,7  L 62,6  Z  " style="fill:rgb(107, 83, 50); fill-opacity:1.000; stroke:none;" />
 <path d="  M 57,40  L 56,40  L 56,41  L 57,41  L 57,42  L 58,42  L 58,41  L 59,41  L 59,40  L 60,40  L 60,41  L 61,41  L 61,37  L 62,37  L 62,32  L 61,32  L 61,31  L 60,31  L 60,29  L 59,29  L 59,28  L 58,28  L 58,36  L 57,36  Z  " style="fill:rgb(107, 83, 50); fill-opacity:1.000; stroke:none;" />
 <path d="  M 13,34  L 12,34  L 12,38  L 13,38  Z  " style="fill:rgb(91, 91, 91); fill-opacity:1.000; stroke:none;" />
 <path d="  M 13,34  L 14,34  L 14,33  L 13,33  Z  " style="fill:rgb(91, 91, 91); fill-opacity:1.000; stroke:none;" />
 <path d="  M 14,38  L 13,38  L 13,39  L 14,39  Z  " style="fill:rgb(91, 91, 91); fill-opacity:1.000; stroke:none;" />
 <path d="  M 18,32  L 14,32  L 14,33  L 16,33  L 16,34  L 18,34  L 18,36  L 19,36  L 19,38  L 20,38  L 20,34  L 19,34  L 19,33  L 18,33  Z  " style="fill:rgb(91, 91, 91); fill-opacity:1.000; stroke:none;" />
 <path d="  M 14,39  L 14,40  L 18,40  L 18,39  Z  " style="fill:rgb(91, 91, 91); fill-opacity:1.000; stroke:none;" />
 <path d="  M 19,38  L 18,38  L 18,39  L 19,39  Z  " style="fill:rgb(91, 91, 91); fill-opacity:1.000; stroke:none;" />
 <path d="  M 18,36  L 18,34  L 16,34  L 16,33  L 14,33  L 14,34  L 13,34  L 13,38  L 14,38  L 14,39  L 18,39  L 18,38  L 19,38  L 19,36  Z  " style="fill:rgb(122, 122, 122); fill-opacity:1.000; stroke:none;" />
</svg>
