<?xml version="1.0" encoding="UTF-8" standalone="no"?>
<!DOCTYPE svg PUBLIC "-//W3C//DTD SVG 1.1//EN" 
  "http://www.w3.org/Graphics/SVG/1.1/DTD/svg11.dtd">
<svg width="64" height="64"
	 xmlns="http://www.w3.org/2000/svg" version="1.1">
 <path d="  M 4,4  L 64,4  L 64,0  L 0,0  L 0,60  L 4,60  Z  " style="fill:rgb(255, 255, 255); fill-opacity:1.000; stroke:none;" />
 <path d="  M 0,60  L 0,64  L 64,64  L 64,4  L 60,4  L 60,60  Z  " style="fill:rgb(204, 235, 238); fill-opacity:1.000; stroke:none;" />
 <path d="  M 7,14  L 7,11  L 8,11  L 8,10  L 9,10  L 9,9  L 10,9  L 10,7  L 11,7  L 11,6  L 14,6  L 14,5  L 13,5  L 13,4  L 12,4  L 12,5  L 11,5  L 11,4  L 4,4  L 4,15  L 5,15  L 5,14  Z  " style="fill:rgb(47, 186, 174); fill-opacity:1.000; stroke:none;" />
 <path d="  M 4,60  L 17,60  L 17,58  L 15,58  L 15,57  L 12,57  L 12,56  L 10,56  L 10,55  L 9,55  L 9,54  L 8,54  L 8,52  L 7,52  L 7,51  L 6,51  L 6,50  L 5,50  L 5,51  L 4,51  Z  " style="fill:rgb(47, 186, 174); fill-opacity:1.000; stroke:none;" />
 <path d="  M 60,49  L 58,49  L 58,50  L 56,50  L 56,51  L 55,51  L 55,52  L 56,52  L 56,53  L 55,53  L 55,54  L 54,54  L 54,53  L 53,53  L 53,54  L 52,54  L 52,56  L 51,56  L 51,57  L 48,57  L 48,58  L 46,58  L 46,59  L 45,59  L 45,60  L 60,60  Z  " style="fill:rgb(47, 186, 174); fill-opacity:1.000; stroke:none;" />
 <path d="  M 52,5  L 51,5  L 51,6  L 52,6  Z  " style="fill:rgb(47, 186, 174); fill-opacity:1.000; stroke:none;" />
 <path d="  M 52,4  L 52,5  L 53,5  L 53,7  L 55,7  L 55,8  L 54,8  L 54,9  L 56,9  L 56,10  L 57,10  L 57,12  L 58,12  L 58,14  L 59,14  L 59,15  L 60,15  L 60,4  Z  " style="fill:rgb(47, 186, 174); fill-opacity:1.000; stroke:none;" />
 <path d="  M 4,16  L 6,16  L 6,14  L 5,14  L 5,15  L 4,15  Z  " style="fill:rgb(42, 189, 183); fill-opacity:1.000; stroke:none;" />
 <path d="  M 4,50  L 4,51  L 5,51  L 5,50  Z  " style="fill:rgb(42, 189, 183); fill-opacity:1.000; stroke:none;" />
 <path d="  M 7,51  L 7,50  L 6,50  L 6,51  Z  " style="fill:rgb(42, 189, 183); fill-opacity:1.000; stroke:none;" />
 <path d="  M 7,11  L 7,13  L 8,13  L 8,14  L 9,14  L 9,11  L 11,11  L 11,10  L 10,10  L 10,9  L 9,9  L 9,10  L 8,10  L 8,11  Z  " style="fill:rgb(42, 189, 183); fill-opacity:1.000; stroke:none;" />
 <path d="  M 8,51  L 7,51  L 7,52  L 8,52  Z  " style="fill:rgb(42, 189, 183); fill-opacity:1.000; stroke:none;" />
 <path d="  M 8,54  L 9,54  L 9,53  L 8,53  Z  " style="fill:rgb(42, 189, 183); fill-opacity:1.000; stroke:none;" />
 <path d="  M 10,55  L 10,54  L 9,54  L 9,55  Z  " style="fill:rgb(42, 189, 183); fill-opacity:1.000; stroke:none;" />
 <path d="  M 10,9  L 11,9  L 11,7  L 10,7  Z  " style="fill:rgb(42, 189, 183); fill-opacity:1.000; stroke:none;" />
 <path d="  M 10,54  L 11,54  L 11,53  L 10,53  Z  " style="fill:rgb(42, 189, 183); fill-opacity:1.000; stroke:none;" />
 <path d="  M 10,55  L 10,56  L 12,56  L 12,57  L 13,57  L 13,55  Z  " style="fill:rgb(42, 189, 183); fill-opacity:1.000; stroke:none;" />
 <path d="  M 11,4  L 11,5  L 12,5  L 12,4  Z  " style="fill:rgb(42, 189, 183); fill-opacity:1.000; stroke:none;" />
 <path d="  M 12,6  L 11,6  L 11,7  L 12,7  Z  " style="fill:rgb(42, 189, 183); fill-opacity:1.000; stroke:none;" />
 <path d="  M 15,5  L 15,4  L 13,4  L 13,5  Z  " style="fill:rgb(42, 189, 183); fill-opacity:1.000; stroke:none;" />
 <path d="  M 15,58  L 16,58  L 16,57  L 15,57  Z  " style="fill:rgb(42, 189, 183); fill-opacity:1.000; stroke:none;" />
 <path d="  M 17,58  L 17,60  L 21,60  L 21,59  L 19,59  L 19,58  Z  " style="fill:rgb(42, 189, 183); fill-opacity:1.000; stroke:none;" />
 <path d="  M 43,60  L 43,59  L 41,59  L 41,60  Z  " style="fill:rgb(42, 189, 183); fill-opacity:1.000; stroke:none;" />
 <path d="  M 44,60  L 45,60  L 45,59  L 44,59  Z  " style="fill:rgb(42, 189, 183); fill-opacity:1.000; stroke:none;" />
 <path d="  M 49,4  L 49,5  L 52,5  L 52,4  Z  " style="fill:rgb(42, 189, 183); fill-opacity:1.000; stroke:none;" />
 <path d="  M 50,57  L 51,57  L 51,56  L 50,56  Z  " style="fill:rgb(42, 189, 183); fill-opacity:1.000; stroke:none;" />
 <path d="  M 51,56  L 52,56  L 52,55  L 51,55  Z  " style="fill:rgb(42, 189, 183); fill-opacity:1.000; stroke:none;" />
 <path d="  M 52,7  L 53,7  L 53,5  L 52,5  Z  " style="fill:rgb(42, 189, 183); fill-opacity:1.000; stroke:none;" />
 <path d="  M 54,9  L 54,8  L 55,8  L 55,7  L 53,7  L 53,9  Z  " style="fill:rgb(42, 189, 183); fill-opacity:1.000; stroke:none;" />
 <path d="  M 53,52  L 53,53  L 54,53  L 54,54  L 55,54  L 55,53  L 56,53  L 56,52  L 55,52  L 55,51  L 54,51  L 54,52  Z  " style="fill:rgb(42, 189, 183); fill-opacity:1.000; stroke:none;" />
 <path d="  M 55,10  L 55,11  L 57,11  L 57,10  L 56,10  L 56,9  L 54,9  L 54,10  Z  " style="fill:rgb(42, 189, 183); fill-opacity:1.000; stroke:none;" />
 <path d="  M 55,49  L 55,50  L 56,50  L 56,49  Z  " style="fill:rgb(42, 189, 183); fill-opacity:1.000; stroke:none;" />
 <path d="  M 58,13  L 58,12  L 57,12  L 57,13  Z  " style="fill:rgb(42, 189, 183); fill-opacity:1.000; stroke:none;" />
 <path d="  M 59,14  L 57,14  L 57,15  L 59,15  Z  " style="fill:rgb(42, 189, 183); fill-opacity:1.000; stroke:none;" />
 <path d="  M 60,49  L 60,45  L 59,45  L 59,44  L 58,44  L 58,48  L 57,48  L 57,50  L 58,50  L 58,49  Z  " style="fill:rgb(42, 189, 183); fill-opacity:1.000; stroke:none;" />
 <path d="  M 60,16  L 60,15  L 59,15  L 59,16  Z  " style="fill:rgb(42, 189, 183); fill-opacity:1.000; stroke:none;" />
 <path d="  M 15,4  L 15,5  L 14,5  L 14,6  L 12,6  L 12,7  L 11,7  L 11,9  L 10,9  L 10,10  L 11,10  L 11,11  L 9,11  L 9,14  L 8,14  L 8,13  L 7,13  L 7,14  L 6,14  L 6,16  L 4,16  L 4,22  L 6,22  L 6,21  L 7,21  L 7,19  L 8,19  L 8,18  L 9,18  L 9,17  L 10,17  L 10,15  L 11,15  L 11,13  L 12,13  L 12,12  L 13,12  L 13,11  L 14,11  L 14,10  L 15,10  L 15,9  L 16,9  L 16,8  L 18,8  L 18,7  L 20,7  L 20,6  L 22,6  L 22,5  L 23,5  L 23,4  Z  M 8,18  L 7,18  L 7,17  L 8,17  Z  " style="fill:rgb(35, 194, 181); fill-opacity:1.000; stroke:none;" />
 <path d="  M 5,39  L 4,39  L 4,50  L 7,50  L 7,51  L 8,51  L 8,53  L 9,53  L 9,54  L 10,54  L 10,55  L 13,55  L 13,57  L 16,57  L 16,58  L 17,58  L 17,56  L 15,56  L 15,55  L 14,55  L 14,54  L 13,54  L 13,53  L 12,53  L 12,52  L 11,52  L 11,51  L 10,51  L 10,50  L 9,50  L 9,48  L 8,48  L 8,46  L 7,46  L 7,43  L 6,43  L 6,41  L 5,41  Z  M 11,54  L 10,54  L 10,53  L 11,53  Z  " style="fill:rgb(35, 194, 181); fill-opacity:1.000; stroke:none;" />
 <path d="  M 19,58  L 19,59  L 21,59  L 21,60  L 24,60  L 24,59  L 23,59  L 23,58  L 20,58  L 20,57  L 18,57  L 18,58  Z  " style="fill:rgb(35, 194, 181); fill-opacity:1.000; stroke:none;" />
 <path d="  M 58,48  L 58,44  L 59,44  L 59,45  L 60,45  L 60,36  L 59,36  L 59,38  L 58,38  L 58,41  L 57,41  L 57,43  L 56,43  L 56,45  L 55,45  L 55,47  L 54,47  L 54,49  L 53,49  L 53,50  L 52,50  L 52,51  L 51,51  L 51,52  L 50,52  L 50,53  L 49,53  L 49,54  L 48,54  L 48,55  L 46,55  L 46,56  L 44,56  L 44,57  L 42,57  L 42,58  L 39,58  L 39,59  L 38,59  L 38,60  L 41,60  L 41,59  L 43,59  L 43,60  L 44,60  L 44,59  L 46,59  L 46,58  L 48,58  L 48,57  L 50,57  L 50,56  L 51,56  L 51,55  L 52,55  L 52,54  L 53,54  L 53,52  L 54,52  L 54,51  L 56,51  L 56,50  L 57,50  L 57,48  Z  M 55,49  L 56,49  L 56,50  L 55,50  Z  M 45,57  L 45,58  L 44,58  L 44,57  Z  " style="fill:rgb(35, 194, 181); fill-opacity:1.000; stroke:none;" />
 <path d="  M 52,11  L 52,12  L 54,12  L 54,13  L 55,13  L 55,15  L 56,15  L 56,17  L 57,17  L 57,19  L 58,19  L 58,21  L 59,21  L 59,22  L 60,22  L 60,16  L 59,16  L 59,15  L 57,15  L 57,14  L 58,14  L 58,13  L 57,13  L 57,11  L 55,11  L 55,10  L 54,10  L 54,9  L 53,9  L 53,7  L 52,7  L 52,6  L 51,6  L 51,5  L 49,5  L 49,4  L 39,4  L 39,5  L 43,5  L 43,6  L 45,6  L 45,7  L 47,7  L 47,8  L 49,8  L 49,9  L 50,9  L 50,10  L 51,10  L 51,11  Z  " style="fill:rgb(35, 194, 181); fill-opacity:1.000; stroke:none;" />
 <path d="  M 5,32  L 6,32  L 6,31  L 7,31  L 7,22  L 8,22  L 8,20  L 9,20  L 9,19  L 10,19  L 10,18  L 11,18  L 11,16  L 12,16  L 12,15  L 13,15  L 13,14  L 14,14  L 14,12  L 15,12  L 15,11  L 16,11  L 16,10  L 17,10  L 17,9  L 19,9  L 19,8  L 21,8  L 21,7  L 26,7  L 26,6  L 32,6  L 32,5  L 33,5  L 33,4  L 23,4  L 23,5  L 22,5  L 22,6  L 20,6  L 20,7  L 18,7  L 18,8  L 16,8  L 16,9  L 15,9  L 15,10  L 14,10  L 14,11  L 13,11  L 13,12  L 12,12  L 12,13  L 11,13  L 11,15  L 10,15  L 10,17  L 9,17  L 9,18  L 8,18  L 8,19  L 7,19  L 7,21  L 6,21  L 6,22  L 4,22  L 4,31  L 5,31  Z  " style="fill:rgb(33, 199, 192); fill-opacity:1.000; stroke:none;" />
 <path d="  M 42,58  L 42,57  L 44,57  L 44,56  L 46,56  L 46,55  L 48,55  L 48,54  L 49,54  L 49,53  L 50,53  L 50,52  L 51,52  L 51,51  L 52,51  L 52,50  L 53,50  L 53,49  L 54,49  L 54,47  L 55,47  L 55,45  L 56,45  L 56,43  L 57,43  L 57,41  L 56,41  L 56,42  L 55,42  L 55,44  L 54,44  L 54,46  L 53,46  L 53,47  L 52,47  L 52,48  L 51,48  L 51,50  L 50,50  L 50,51  L 49,51  L 49,52  L 48,52  L 48,53  L 47,53  L 47,54  L 45,54  L 45,55  L 43,55  L 43,56  L 41,56  L 41,57  L 36,57  L 36,58  L 32,58  L 32,59  L 29,59  L 29,58  L 25,58  L 25,57  L 22,57  L 22,56  L 19,56  L 19,55  L 18,55  L 18,54  L 16,54  L 16,53  L 15,53  L 15,52  L 14,52  L 14,51  L 13,51  L 13,50  L 12,50  L 12,49  L 11,49  L 11,47  L 10,47  L 10,45  L 9,45  L 9,44  L 8,44  L 8,41  L 7,41  L 7,40  L 6,40  L 6,35  L 5,35  L 5,34  L 4,34  L 4,39  L 5,39  L 5,41  L 6,41  L 6,43  L 7,43  L 7,46  L 8,46  L 8,48  L 9,48  L 9,50  L 10,50  L 10,51  L 11,51  L 11,52  L 12,52  L 12,53  L 13,53  L 13,54  L 14,54  L 14,55  L 15,55  L 15,56  L 17,56  L 17,58  L 18,58  L 18,57  L 20,57  L 20,58  L 23,58  L 23,59  L 24,59  L 24,60  L 38,60  L 38,59  L 39,59  L 39,58  Z  " style="fill:rgb(33, 199, 192); fill-opacity:1.000; stroke:none;" />
 <path d="  M 8,17  L 7,17  L 7,18  L 8,18  Z  " style="fill:rgb(33, 199, 192); fill-opacity:1.000; stroke:none;" />
 <path d="  M 59,28  L 60,28  L 60,22  L 59,22  L 59,21  L 58,21  L 58,19  L 57,19  L 57,17  L 56,17  L 56,15  L 55,15  L 55,13  L 54,13  L 54,12  L 52,12  L 52,11  L 51,11  L 51,10  L 50,10  L 50,9  L 49,9  L 49,8  L 47,8  L 47,7  L 45,7  L 45,6  L 43,6  L 43,5  L 39,5  L 39,4  L 34,4  L 34,5  L 38,5  L 38,6  L 42,6  L 42,7  L 44,7  L 44,8  L 45,8  L 45,9  L 46,9  L 46,10  L 48,10  L 48,11  L 49,11  L 49,12  L 50,12  L 50,13  L 52,13  L 52,14  L 53,14  L 53,15  L 54,15  L 54,16  L 55,16  L 55,18  L 56,18  L 56,20  L 57,20  L 57,25  L 58,25  L 58,27  L 59,27  Z  " style="fill:rgb(33, 199, 192); fill-opacity:1.000; stroke:none;" />
 <path d="  M 45,58  L 45,57  L 44,57  L 44,58  Z  " style="fill:rgb(33, 199, 192); fill-opacity:1.000; stroke:none;" />
 <path d="  M 58,38  L 57,38  L 57,41  L 58,41  Z  " style="fill:rgb(33, 199, 192); fill-opacity:1.000; stroke:none;" />
 <path d="  M 58,38  L 59,38  L 59,36  L 60,36  L 60,29  L 59,29  L 59,34  L 58,34  Z  " style="fill:rgb(33, 199, 192); fill-opacity:1.000; stroke:none;" />
 <path d="  M 51,17  L 51,18  L 52,18  L 52,20  L 53,20  L 53,22  L 54,22  L 54,23  L 55,23  L 55,24  L 54,24  L 54,27  L 55,27  L 55,38  L 54,38  L 54,41  L 53,41  L 53,42  L 52,42  L 52,44  L 51,44  L 51,47  L 49,47  L 49,48  L 48,48  L 48,50  L 46,50  L 46,51  L 45,51  L 45,52  L 44,52  L 44,53  L 41,53  L 41,54  L 40,54  L 40,55  L 37,55  L 37,56  L 30,56  L 30,55  L 29,55  L 29,56  L 28,56  L 28,55  L 27,55  L 27,54  L 25,54  L 25,55  L 24,55  L 24,54  L 23,54  L 23,53  L 22,53  L 22,54  L 21,54  L 21,53  L 19,53  L 19,52  L 18,52  L 18,51  L 17,51  L 17,50  L 16,50  L 16,49  L 15,49  L 15,48  L 14,48  L 14,47  L 13,47  L 13,45  L 12,45  L 12,41  L 11,41  L 11,38  L 10,38  L 10,34  L 9,34  L 9,24  L 10,24  L 10,22  L 11,22  L 11,19  L 12,19  L 12,18  L 13,18  L 13,16  L 14,16  L 14,15  L 15,15  L 15,14  L 16,14  L 16,12  L 17,12  L 17,11  L 19,11  L 19,10  L 20,10  L 20,9  L 24,9  L 24,8  L 26,8  L 26,9  L 27,9  L 27,8  L 30,8  L 30,9  L 35,9  L 35,8  L 37,8  L 37,7  L 40,7  L 40,8  L 43,8  L 43,10  L 45,10  L 45,11  L 46,11  L 46,12  L 47,12  L 47,13  L 48,13  L 48,14  L 49,14  L 49,15  L 50,15  L 50,17  Z  M 41,57  L 41,56  L 43,56  L 43,55  L 45,55  L 45,54  L 47,54  L 47,53  L 48,53  L 48,52  L 49,52  L 49,51  L 50,51  L 50,50  L 51,50  L 51,48  L 52,48  L 52,47  L 53,47  L 53,46  L 54,46  L 54,44  L 55,44  L 55,42  L 56,42  L 56,41  L 57,41  L 57,38  L 58,38  L 58,34  L 59,34  L 59,29  L 60,29  L 60,28  L 59,28  L 59,27  L 58,27  L 58,25  L 57,25  L 57,20  L 56,20  L 56,18  L 55,18  L 55,16  L 54,16  L 54,15  L 53,15  L 53,14  L 52,14  L 52,13  L 50,13  L 50,12  L 49,12  L 49,11  L 48,11  L 48,10  L 46,10  L 46,9  L 45,9  L 45,8  L 44,8  L 44,7  L 42,7  L 42,6  L 38,6  L 38,5  L 34,5  L 34,4  L 33,4  L 33,5  L 32,5  L 32,6  L 26,6  L 26,7  L 21,7  L 21,8  L 19,8  L 19,9  L 17,9  L 17,10  L 16,10  L 16,11  L 15,11  L 15,12  L 14,12  L 14,14  L 13,14  L 13,15  L 12,15  L 12,16  L 11,16  L 11,18  L 10,18  L 10,19  L 9,19  L 9,20  L 8,20  L 8,22  L 7,22  L 7,31  L 6,31  L 6,32  L 5,32  L 5,31  L 4,31  L 4,34  L 5,34  L 5,35  L 6,35  L 6,40  L 7,40  L 7,41  L 8,41  L 8,44  L 9,44  L 9,45  L 10,45  L 10,47  L 11,47  L 11,49  L 12,49  L 12,50  L 13,50  L 13,51  L 14,51  L 14,52  L 15,52  L 15,53  L 16,53  L 16,54  L 18,54  L 18,55  L 19,55  L 19,56  L 22,56  L 22,57  L 25,57  L 25,58  L 29,58  L 29,59  L 32,59  L 32,58  L 36,58  L 36,57  Z  " style="fill:rgb(43, 204, 196); fill-opacity:1.000; stroke:none;" />
 <path d="  M 9,24  L 9,30  L 10,30  L 10,24  Z  " style="fill:rgb(49, 209, 201); fill-opacity:1.000; stroke:none;" />
 <path d="  M 9,32  L 9,34  L 10,34  L 10,32  Z  " style="fill:rgb(49, 209, 201); fill-opacity:1.000; stroke:none;" />
 <path d="  M 10,38  L 11,38  L 11,36  L 10,36  Z  " style="fill:rgb(49, 209, 201); fill-opacity:1.000; stroke:none;" />
 <path d="  M 12,41  L 12,39  L 11,39  L 11,41  Z  " style="fill:rgb(49, 209, 201); fill-opacity:1.000; stroke:none;" />
 <path d="  M 13,42  L 12,42  L 12,45  L 13,45  L 13,47  L 14,47  L 14,44  L 13,44  Z  " style="fill:rgb(49, 209, 201); fill-opacity:1.000; stroke:none;" />
 <path d="  M 16,15  L 17,15  L 17,13  L 16,13  L 16,14  L 15,14  L 15,15  L 14,15  L 14,16  L 13,16  L 13,17  L 14,17  L 14,18  L 15,18  L 15,16  L 16,16  Z  " style="fill:rgb(49, 209, 201); fill-opacity:1.000; stroke:none;" />
 <path d="  M 14,18  L 13,18  L 13,19  L 14,19  Z  " style="fill:rgb(49, 209, 201); fill-opacity:1.000; stroke:none;" />
 <path d="  M 17,11  L 17,12  L 18,12  L 18,11  Z  " style="fill:rgb(49, 209, 201); fill-opacity:1.000; stroke:none;" />
 <path d="  M 17,50  L 17,51  L 18,51  L 18,50  Z  " style="fill:rgb(49, 209, 201); fill-opacity:1.000; stroke:none;" />
 <path d="  M 18,51  L 18,52  L 19,52  L 19,51  Z  " style="fill:rgb(49, 209, 201); fill-opacity:1.000; stroke:none;" />
 <path d="  M 20,10  L 19,10  L 19,13  L 20,13  L 20,12  L 21,12  L 21,11  L 20,11  Z  " style="fill:rgb(49, 209, 201); fill-opacity:1.000; stroke:none;" />
 <path d="  M 23,10  L 23,9  L 20,9  L 20,10  L 21,10  L 21,11  L 22,11  L 22,10  Z  " style="fill:rgb(49, 209, 201); fill-opacity:1.000; stroke:none;" />
 <path d="  M 20,52  L 20,53  L 21,53  L 21,52  Z  " style="fill:rgb(49, 209, 201); fill-opacity:1.000; stroke:none;" />
 <path d="  M 24,11  L 24,10  L 23,10  L 23,11  Z  " style="fill:rgb(49, 209, 201); fill-opacity:1.000; stroke:none;" />
 <path d="  M 25,10  L 25,11  L 26,11  L 26,10  Z  " style="fill:rgb(49, 209, 201); fill-opacity:1.000; stroke:none;" />
 <path d="  M 27,10  L 27,9  L 26,9  L 26,10  Z  " style="fill:rgb(49, 209, 201); fill-opacity:1.000; stroke:none;" />
 <path d="  M 27,54  L 27,55  L 28,55  L 28,54  Z  " style="fill:rgb(49, 209, 201); fill-opacity:1.000; stroke:none;" />
 <path d="  M 31,10  L 31,9  L 29,9  L 29,10  Z  " style="fill:rgb(49, 209, 201); fill-opacity:1.000; stroke:none;" />
 <path d="  M 31,55  L 31,56  L 35,56  L 35,55  Z  " style="fill:rgb(49, 209, 201); fill-opacity:1.000; stroke:none;" />
 <path d="  M 33,9  L 32,9  L 32,10  L 33,10  Z  " style="fill:rgb(49, 209, 201); fill-opacity:1.000; stroke:none;" />
 <path d="  M 35,55  L 36,55  L 36,54  L 35,54  Z  " style="fill:rgb(49, 209, 201); fill-opacity:1.000; stroke:none;" />
 <path d="  M 42,8  L 36,8  L 36,10  L 39,10  L 39,9  L 41,9  L 41,10  L 43,10  L 43,9  L 42,9  Z  " style="fill:rgb(49, 209, 201); fill-opacity:1.000; stroke:none;" />
 <path d="  M 37,55  L 39,55  L 39,53  L 38,53  L 38,54  L 37,54  Z  " style="fill:rgb(49, 209, 201); fill-opacity:1.000; stroke:none;" />
 <path d="  M 40,54  L 41,54  L 41,53  L 40,53  Z  " style="fill:rgb(49, 209, 201); fill-opacity:1.000; stroke:none;" />
 <path d="  M 42,53  L 43,53  L 43,52  L 42,52  Z  " style="fill:rgb(49, 209, 201); fill-opacity:1.000; stroke:none;" />
 <path d="  M 44,11  L 45,11  L 45,10  L 44,10  Z  " style="fill:rgb(49, 209, 201); fill-opacity:1.000; stroke:none;" />
 <path d="  M 44,51  L 44,52  L 45,52  L 45,51  Z  " style="fill:rgb(49, 209, 201); fill-opacity:1.000; stroke:none;" />
 <path d="  M 45,11  L 45,12  L 46,12  L 46,11  Z  " style="fill:rgb(49, 209, 201); fill-opacity:1.000; stroke:none;" />
 <path d="  M 46,50  L 45,50  L 45,51  L 46,51  Z  " style="fill:rgb(49, 209, 201); fill-opacity:1.000; stroke:none;" />
 <path d="  M 46,50  L 47,50  L 47,49  L 46,49  Z  " style="fill:rgb(49, 209, 201); fill-opacity:1.000; stroke:none;" />
 <path d="  M 47,49  L 48,49  L 48,48  L 47,48  Z  " style="fill:rgb(49, 209, 201); fill-opacity:1.000; stroke:none;" />
 <path d="  M 49,15  L 49,16  L 50,16  L 50,15  Z  " style="fill:rgb(49, 209, 201); fill-opacity:1.000; stroke:none;" />
 <path d="  M 50,45  L 50,46  L 51,46  L 51,45  Z  " style="fill:rgb(49, 209, 201); fill-opacity:1.000; stroke:none;" />
 <path d="  M 52,19  L 52,18  L 51,18  L 51,19  Z  " style="fill:rgb(49, 209, 201); fill-opacity:1.000; stroke:none;" />
 <path d="  M 51,44  L 52,44  L 52,43  L 51,43  Z  " style="fill:rgb(49, 209, 201); fill-opacity:1.000; stroke:none;" />
 <path d="  M 53,21  L 53,20  L 52,20  L 52,21  Z  " style="fill:rgb(49, 209, 201); fill-opacity:1.000; stroke:none;" />
 <path d="  M 52,41  L 52,42  L 53,42  L 53,41  Z  " style="fill:rgb(49, 209, 201); fill-opacity:1.000; stroke:none;" />
 <path d="  M 53,25  L 54,25  L 54,22  L 53,22  Z  " style="fill:rgb(49, 209, 201); fill-opacity:1.000; stroke:none;" />
 <path d="  M 53,40  L 53,41  L 54,41  L 54,40  Z  " style="fill:rgb(49, 209, 201); fill-opacity:1.000; stroke:none;" />
 <path d="  M 55,28  L 54,28  L 54,32  L 55,32  Z  " style="fill:rgb(49, 209, 201); fill-opacity:1.000; stroke:none;" />
 <path d="  M 55,35  L 54,35  L 54,38  L 55,38  Z  " style="fill:rgb(49, 209, 201); fill-opacity:1.000; stroke:none;" />
 <path d="  M 11,22  L 10,22  L 10,30  L 9,30  L 9,32  L 10,32  L 10,36  L 11,36  L 11,39  L 12,39  L 12,42  L 13,42  L 13,44  L 14,44  L 14,48  L 15,48  L 15,49  L 16,49  L 16,50  L 18,50  L 18,51  L 19,51  L 19,52  L 21,52  L 21,53  L 22,53  L 22,52  L 23,52  L 23,53  L 25,53  L 25,54  L 28,54  L 28,55  L 35,55  L 35,54  L 36,54  L 36,55  L 37,55  L 37,54  L 38,54  L 38,53  L 39,53  L 39,54  L 40,54  L 40,53  L 42,53  L 42,51  L 43,51  L 43,52  L 44,52  L 44,51  L 45,51  L 45,50  L 46,50  L 46,49  L 47,49  L 47,48  L 49,48  L 49,47  L 50,47  L 50,45  L 51,45  L 51,43  L 52,43  L 52,41  L 53,41  L 53,40  L 54,40  L 54,35  L 55,35  L 55,32  L 54,32  L 54,25  L 53,25  L 53,21  L 52,21  L 52,19  L 51,19  L 51,17  L 50,17  L 50,16  L 49,16  L 49,14  L 48,14  L 48,13  L 47,13  L 47,12  L 45,12  L 45,11  L 44,11  L 44,10  L 41,10  L 41,9  L 39,9  L 39,10  L 36,10  L 36,9  L 33,9  L 33,10  L 29,10  L 29,9  L 27,9  L 27,10  L 26,10  L 26,11  L 25,11  L 25,9  L 23,9  L 23,10  L 22,10  L 22,11  L 21,11  L 21,12  L 20,12  L 20,13  L 19,13  L 19,11  L 18,11  L 18,12  L 17,12  L 17,15  L 16,15  L 16,16  L 15,16  L 15,18  L 14,18  L 14,19  L 13,19  L 13,18  L 12,18  L 12,21  L 11,21  Z  M 24,50  L 24,49  L 23,49  L 23,48  L 21,48  L 21,47  L 20,47  L 20,46  L 18,46  L 18,45  L 17,45  L 17,44  L 16,44  L 16,43  L 15,43  L 15,42  L 14,42  L 14,41  L 13,41  L 13,33  L 12,33  L 12,28  L 13,28  L 13,23  L 14,23  L 14,22  L 15,22  L 15,19  L 18,19  L 18,18  L 19,18  L 19,17  L 20,17  L 20,16  L 21,16  L 21,15  L 24,15  L 24,14  L 26,14  L 26,13  L 29,13  L 29,12  L 35,12  L 35,13  L 39,13  L 39,14  L 40,14  L 40,13  L 41,13  L 41,14  L 42,14  L 42,15  L 43,15  L 43,16  L 44,16  L 44,17  L 45,17  L 45,18  L 46,18  L 46,19  L 47,19  L 47,20  L 48,20  L 48,21  L 49,21  L 49,22  L 50,22  L 50,23  L 51,23  L 51,27  L 52,27  L 52,30  L 51,30  L 51,35  L 50,35  L 50,39  L 49,39  L 49,41  L 48,41  L 48,42  L 47,42  L 47,44  L 46,44  L 46,45  L 45,45  L 45,46  L 44,46  L 44,47  L 42,47  L 42,48  L 40,48  L 40,49  L 38,49  L 38,50  L 33,50  L 33,51  L 27,51  L 27,50  Z  M 23,10  L 24,10  L 24,11  L 23,11  Z  " style="fill:rgb(55, 212, 204); fill-opacity:1.000; stroke:none;" />
 <path d="  M 13,17  L 13,18  L 14,18  L 14,17  Z  " style="fill:rgb(55, 212, 204); fill-opacity:1.000; stroke:none;" />
 <path d="  M 21,10  L 20,10  L 20,11  L 21,11  Z  " style="fill:rgb(55, 212, 204); fill-opacity:1.000; stroke:none;" />
 <path d="  M 11,21  L 12,21  L 12,19  L 11,19  Z  " style="fill:rgb(56, 208, 194); fill-opacity:1.000; stroke:none;" />
 <path d="  M 16,12  L 16,13  L 17,13  L 17,12  Z  " style="fill:rgb(56, 208, 194); fill-opacity:1.000; stroke:none;" />
 <path d="  M 19,52  L 19,53  L 20,53  L 20,52  Z  " style="fill:rgb(56, 208, 194); fill-opacity:1.000; stroke:none;" />
 <path d="  M 21,53  L 21,54  L 22,54  L 22,53  Z  " style="fill:rgb(56, 208, 194); fill-opacity:1.000; stroke:none;" />
 <path d="  M 22,53  L 23,53  L 23,52  L 22,52  Z  " style="fill:rgb(56, 208, 194); fill-opacity:1.000; stroke:none;" />
 <path d="  M 23,54  L 24,54  L 24,55  L 25,55  L 25,53  L 23,53  Z  " style="fill:rgb(56, 208, 194); fill-opacity:1.000; stroke:none;" />
 <path d="  M 24,8  L 24,9  L 25,9  L 25,10  L 26,10  L 26,8  Z  " style="fill:rgb(56, 208, 194); fill-opacity:1.000; stroke:none;" />
 <path d="  M 27,8  L 27,9  L 30,9  L 30,8  Z  " style="fill:rgb(56, 208, 194); fill-opacity:1.000; stroke:none;" />
 <path d="  M 28,56  L 29,56  L 29,55  L 28,55  Z  " style="fill:rgb(56, 208, 194); fill-opacity:1.000; stroke:none;" />
 <path d="  M 31,55  L 30,55  L 30,56  L 31,56  Z  " style="fill:rgb(56, 208, 194); fill-opacity:1.000; stroke:none;" />
 <path d="  M 32,10  L 32,9  L 31,9  L 31,10  Z  " style="fill:rgb(56, 208, 194); fill-opacity:1.000; stroke:none;" />
 <path d="  M 36,8  L 35,8  L 35,9  L 36,9  Z  " style="fill:rgb(56, 208, 194); fill-opacity:1.000; stroke:none;" />
 <path d="  M 35,55  L 35,56  L 37,56  L 37,55  Z  " style="fill:rgb(56, 208, 194); fill-opacity:1.000; stroke:none;" />
 <path d="  M 37,7  L 37,8  L 40,8  L 40,7  Z  " style="fill:rgb(56, 208, 194); fill-opacity:1.000; stroke:none;" />
 <path d="  M 39,13  L 38,13  L 38,14  L 39,14  Z  " style="fill:rgb(56, 208, 194); fill-opacity:1.000; stroke:none;" />
 <path d="  M 39,54  L 39,55  L 40,55  L 40,54  Z  " style="fill:rgb(56, 208, 194); fill-opacity:1.000; stroke:none;" />
 <path d="  M 43,8  L 42,8  L 42,9  L 43,9  Z  " style="fill:rgb(56, 208, 194); fill-opacity:1.000; stroke:none;" />
 <path d="  M 43,51  L 42,51  L 42,52  L 43,52  Z  " style="fill:rgb(56, 208, 194); fill-opacity:1.000; stroke:none;" />
 <path d="  M 44,52  L 43,52  L 43,53  L 44,53  Z  " style="fill:rgb(56, 208, 194); fill-opacity:1.000; stroke:none;" />
 <path d="  M 48,50  L 48,49  L 47,49  L 47,50  Z  " style="fill:rgb(56, 208, 194); fill-opacity:1.000; stroke:none;" />
 <path d="  M 50,46  L 50,47  L 51,47  L 51,46  Z  " style="fill:rgb(56, 208, 194); fill-opacity:1.000; stroke:none;" />
 <path d="  M 54,24  L 55,24  L 55,23  L 54,23  Z  " style="fill:rgb(56, 208, 194); fill-opacity:1.000; stroke:none;" />
 <path d="  M 54,27  L 54,28  L 55,28  L 55,27  Z  " style="fill:rgb(56, 208, 194); fill-opacity:1.000; stroke:none;" />
 <path d="  M 13,29  L 14,29  L 14,24  L 15,24  L 15,22  L 14,22  L 14,23  L 13,23  L 13,28  L 12,28  L 12,30  L 13,30  Z  " style="fill:rgb(60, 214, 207); fill-opacity:1.000; stroke:none;" />
 <path d="  M 15,22  L 16,22  L 16,20  L 17,20  L 17,19  L 15,19  Z  " style="fill:rgb(60, 214, 207); fill-opacity:1.000; stroke:none;" />
 <path d="  M 24,49  L 24,50  L 27,50  L 27,51  L 33,51  L 33,50  L 28,50  L 28,49  Z  " style="fill:rgb(60, 214, 207); fill-opacity:1.000; stroke:none;" />
 <path d="  M 48,20  L 47,20  L 47,21  L 48,21  Z  " style="fill:rgb(60, 214, 207); fill-opacity:1.000; stroke:none;" />
 <path d="  M 49,21  L 48,21  L 48,22  L 49,22  Z  " style="fill:rgb(60, 214, 207); fill-opacity:1.000; stroke:none;" />
 <path d="  M 49,22  L 49,26  L 50,26  L 50,30  L 52,30  L 52,27  L 51,27  L 51,23  L 50,23  L 50,22  Z  " style="fill:rgb(60, 214, 207); fill-opacity:1.000; stroke:none;" />
 <path d="  M 51,32  L 50,32  L 50,35  L 51,35  Z  " style="fill:rgb(60, 214, 207); fill-opacity:1.000; stroke:none;" />
 <path d="  M 20,46  L 20,45  L 19,45  L 19,44  L 18,44  L 18,43  L 17,43  L 17,41  L 16,41  L 16,39  L 15,39  L 15,37  L 14,37  L 14,36  L 15,36  L 15,35  L 14,35  L 14,29  L 13,29  L 13,30  L 12,30  L 12,33  L 13,33  L 13,41  L 14,41  L 14,42  L 15,42  L 15,43  L 16,43  L 16,44  L 17,44  L 17,45  L 18,45  L 18,46  Z  " style="fill:rgb(78, 214, 208); fill-opacity:1.000; stroke:none;" />
 <path d="  M 15,24  L 14,24  L 14,29  L 15,29  Z  " style="fill:rgb(78, 214, 208); fill-opacity:1.000; stroke:none;" />
 <path d="  M 16,24  L 16,22  L 15,22  L 15,24  Z  " style="fill:rgb(78, 214, 208); fill-opacity:1.000; stroke:none;" />
 <path d="  M 29,12  L 29,13  L 26,13  L 26,14  L 24,14  L 24,15  L 21,15  L 21,16  L 20,16  L 20,17  L 19,17  L 19,18  L 18,18  L 18,19  L 17,19  L 17,20  L 16,20  L 16,22  L 17,22  L 17,21  L 18,21  L 18,20  L 19,20  L 19,19  L 20,19  L 20,18  L 22,18  L 22,17  L 24,17  L 24,16  L 26,16  L 26,15  L 30,15  L 30,14  L 34,14  L 34,15  L 40,15  L 40,16  L 42,16  L 42,17  L 43,17  L 43,18  L 44,18  L 44,19  L 45,19  L 45,21  L 47,21  L 47,19  L 46,19  L 46,18  L 45,18  L 45,17  L 44,17  L 44,16  L 43,16  L 43,15  L 42,15  L 42,14  L 41,14  L 41,13  L 40,13  L 40,14  L 38,14  L 38,13  L 35,13  L 35,12  Z  " style="fill:rgb(78, 214, 208); fill-opacity:1.000; stroke:none;" />
 <path d="  M 22,46  L 20,46  L 20,47  L 21,47  L 21,48  L 23,48  L 23,49  L 27,49  L 27,48  L 24,48  L 24,47  L 22,47  Z  " style="fill:rgb(78, 214, 208); fill-opacity:1.000; stroke:none;" />
 <path d="  M 38,50  L 38,49  L 40,49  L 40,48  L 42,48  L 42,47  L 44,47  L 44,46  L 45,46  L 45,45  L 46,45  L 46,44  L 47,44  L 47,42  L 48,42  L 48,41  L 49,41  L 49,39  L 50,39  L 50,34  L 49,34  L 49,37  L 48,37  L 48,40  L 47,40  L 47,41  L 46,41  L 46,42  L 45,42  L 45,43  L 44,43  L 44,44  L 43,44  L 43,45  L 42,45  L 42,46  L 40,46  L 40,47  L 38,47  L 38,48  L 35,48  L 35,49  L 28,49  L 28,50  Z  " style="fill:rgb(78, 214, 208); fill-opacity:1.000; stroke:none;" />
 <path d="  M 47,21  L 47,22  L 48,22  L 48,21  Z  " style="fill:rgb(78, 214, 208); fill-opacity:1.000; stroke:none;" />
 <path d="  M 49,22  L 48,22  L 48,24  L 49,24  Z  " style="fill:rgb(78, 214, 208); fill-opacity:1.000; stroke:none;" />
 <path d="  M 50,27  L 50,26  L 49,26  L 49,27  Z  " style="fill:rgb(78, 214, 208); fill-opacity:1.000; stroke:none;" />
 <path d="  M 50,32  L 51,32  L 51,30  L 50,30  Z  " style="fill:rgb(78, 214, 208); fill-opacity:1.000; stroke:none;" />
 <path d="  M 22,44  L 21,44  L 21,43  L 20,43  L 20,42  L 19,42  L 19,41  L 18,41  L 18,40  L 17,40  L 17,37  L 16,37  L 16,33  L 15,33  L 15,31  L 16,31  L 16,26  L 17,26  L 17,24  L 18,24  L 18,23  L 19,23  L 19,21  L 20,21  L 20,20  L 21,20  L 21,19  L 23,19  L 23,18  L 25,18  L 25,17  L 26,17  L 26,16  L 24,16  L 24,17  L 22,17  L 22,18  L 20,18  L 20,19  L 19,19  L 19,20  L 18,20  L 18,21  L 17,21  L 17,22  L 16,22  L 16,24  L 15,24  L 15,29  L 14,29  L 14,35  L 15,35  L 15,36  L 14,36  L 14,37  L 15,37  L 15,39  L 16,39  L 16,41  L 17,41  L 17,43  L 18,43  L 18,44  L 19,44  L 19,45  L 20,45  L 20,46  L 22,46  L 22,47  L 24,47  L 24,48  L 27,48  L 27,49  L 35,49  L 35,48  L 31,48  L 31,47  L 25,47  L 25,46  L 24,46  L 24,45  L 22,45  Z  " style="fill:rgb(83, 219, 213); fill-opacity:1.000; stroke:none;" />
 <path d="  M 26,15  L 26,16  L 31,16  L 31,15  L 34,15  L 34,14  L 30,14  L 30,15  Z  " style="fill:rgb(83, 219, 213); fill-opacity:1.000; stroke:none;" />
 <path d="  M 34,15  L 34,16  L 37,16  L 37,17  L 40,17  L 40,18  L 41,18  L 41,19  L 42,19  L 42,20  L 44,20  L 44,21  L 45,21  L 45,19  L 44,19  L 44,18  L 43,18  L 43,17  L 42,17  L 42,16  L 40,16  L 40,15  Z  " style="fill:rgb(83, 219, 213); fill-opacity:1.000; stroke:none;" />
 <path d="  M 47,38  L 46,38  L 46,40  L 45,40  L 45,41  L 44,41  L 44,42  L 43,42  L 43,43  L 42,43  L 42,44  L 41,44  L 41,45  L 39,45  L 39,46  L 37,46  L 37,47  L 35,47  L 35,48  L 38,48  L 38,47  L 40,47  L 40,46  L 42,46  L 42,45  L 43,45  L 43,44  L 44,44  L 44,43  L 45,43  L 45,42  L 46,42  L 46,41  L 47,41  L 47,40  L 48,40  L 48,37  L 49,37  L 49,34  L 50,34  L 50,27  L 49,27  L 49,24  L 48,24  L 48,22  L 47,22  L 47,21  L 45,21  L 45,23  L 46,23  L 46,24  L 47,24  L 47,26  L 48,26  L 48,35  L 47,35  Z  " style="fill:rgb(83, 219, 213); fill-opacity:1.000; stroke:none;" />
 <path d="  M 15,33  L 16,33  L 16,31  L 15,31  Z  " style="fill:rgb(101, 223, 217); fill-opacity:1.000; stroke:none;" />
 <path d="  M 17,37  L 17,35  L 16,35  L 16,37  Z  " style="fill:rgb(101, 223, 217); fill-opacity:1.000; stroke:none;" />
 <path d="  M 17,25  L 18,25  L 18,24  L 17,24  Z  " style="fill:rgb(101, 223, 217); fill-opacity:1.000; stroke:none;" />
 <path d="  M 17,40  L 18,40  L 18,39  L 17,39  Z  " style="fill:rgb(101, 223, 217); fill-opacity:1.000; stroke:none;" />
 <path d="  M 19,24  L 19,23  L 18,23  L 18,24  Z  " style="fill:rgb(101, 223, 217); fill-opacity:1.000; stroke:none;" />
 <path d="  M 19,21  L 19,22  L 20,22  L 20,21  Z  " style="fill:rgb(101, 223, 217); fill-opacity:1.000; stroke:none;" />
 <path d="  M 21,20  L 20,20  L 20,21  L 21,21  Z  " style="fill:rgb(101, 223, 217); fill-opacity:1.000; stroke:none;" />
 <path d="  M 21,20  L 22,20  L 22,19  L 21,19  Z  " style="fill:rgb(101, 223, 217); fill-opacity:1.000; stroke:none;" />
 <path d="  M 24,45  L 24,46  L 25,46  L 25,45  Z  " style="fill:rgb(101, 223, 217); fill-opacity:1.000; stroke:none;" />
 <path d="  M 26,46  L 25,46  L 25,47  L 26,47  Z  " style="fill:rgb(101, 223, 217); fill-opacity:1.000; stroke:none;" />
 <path d="  M 26,17  L 27,17  L 27,16  L 26,16  Z  " style="fill:rgb(101, 223, 217); fill-opacity:1.000; stroke:none;" />
 <path d="  M 31,16  L 34,16  L 34,15  L 31,15  Z  " style="fill:rgb(101, 223, 217); fill-opacity:1.000; stroke:none;" />
 <path d="  M 31,47  L 31,48  L 35,48  L 35,47  Z  " style="fill:rgb(101, 223, 217); fill-opacity:1.000; stroke:none;" />
 <path d="  M 37,16  L 36,16  L 36,17  L 37,17  Z  " style="fill:rgb(101, 223, 217); fill-opacity:1.000; stroke:none;" />
 <path d="  M 40,17  L 39,17  L 39,18  L 40,18  Z  " style="fill:rgb(101, 223, 217); fill-opacity:1.000; stroke:none;" />
 <path d="  M 41,45  L 41,44  L 40,44  L 40,45  Z  " style="fill:rgb(101, 223, 217); fill-opacity:1.000; stroke:none;" />
 <path d="  M 43,20  L 43,21  L 44,21  L 44,20  Z  " style="fill:rgb(101, 223, 217); fill-opacity:1.000; stroke:none;" />
 <path d="  M 45,22  L 45,21  L 44,21  L 44,22  Z  " style="fill:rgb(101, 223, 217); fill-opacity:1.000; stroke:none;" />
 <path d="  M 45,23  L 45,24  L 46,24  L 46,23  Z  " style="fill:rgb(101, 223, 217); fill-opacity:1.000; stroke:none;" />
 <path d="  M 45,39  L 45,40  L 46,40  L 46,39  Z  " style="fill:rgb(101, 223, 217); fill-opacity:1.000; stroke:none;" />
 <path d="  M 46,25  L 47,25  L 47,24  L 46,24  Z  " style="fill:rgb(101, 223, 217); fill-opacity:1.000; stroke:none;" />
 <path d="  M 46,37  L 46,38  L 47,38  L 47,37  Z  " style="fill:rgb(101, 223, 217); fill-opacity:1.000; stroke:none;" />
 <path d="  M 47,26  L 47,27  L 48,27  L 48,26  Z  " style="fill:rgb(101, 223, 217); fill-opacity:1.000; stroke:none;" />
 <path d="  M 47,34  L 47,35  L 48,35  L 48,34  Z  " style="fill:rgb(101, 223, 217); fill-opacity:1.000; stroke:none;" />
 <path d="  M 37,47  L 37,46  L 39,46  L 39,45  L 40,45  L 40,44  L 42,44  L 42,43  L 43,43  L 43,42  L 44,42  L 44,41  L 45,41  L 45,39  L 46,39  L 46,37  L 47,37  L 47,34  L 48,34  L 48,27  L 47,27  L 47,25  L 46,25  L 46,24  L 45,24  L 45,26  L 46,26  L 46,36  L 45,36  L 45,38  L 44,38  L 44,39  L 43,39  L 43,41  L 42,41  L 42,42  L 40,42  L 40,43  L 39,43  L 39,44  L 37,44  L 37,45  L 26,45  L 26,44  L 23,44  L 23,43  L 22,43  L 22,42  L 21,42  L 21,41  L 20,41  L 20,40  L 19,40  L 19,37  L 18,37  L 18,34  L 17,34  L 17,33  L 18,33  L 18,31  L 17,31  L 17,28  L 18,28  L 18,26  L 19,26  L 19,24  L 18,24  L 18,25  L 17,25  L 17,26  L 16,26  L 16,35  L 17,35  L 17,39  L 18,39  L 18,41  L 19,41  L 19,42  L 20,42  L 20,43  L 21,43  L 21,44  L 22,44  L 22,45  L 25,45  L 25,46  L 26,46  L 26,47  Z  " style="fill:rgb(106, 227, 221); fill-opacity:1.000; stroke:none;" />
 <path d="  M 20,21  L 20,22  L 19,22  L 19,24  L 20,24  L 20,23  L 21,23  L 21,22  L 22,22  L 22,21  L 23,21  L 23,20  L 25,20  L 25,19  L 28,19  L 28,18  L 31,18  L 31,17  L 34,17  L 34,18  L 37,18  L 37,19  L 39,19  L 39,20  L 41,20  L 41,21  L 43,21  L 43,20  L 42,20  L 42,19  L 41,19  L 41,18  L 39,18  L 39,17  L 36,17  L 36,16  L 27,16  L 27,17  L 25,17  L 25,18  L 23,18  L 23,19  L 22,19  L 22,20  L 21,20  L 21,21  Z  " style="fill:rgb(106, 227, 221); fill-opacity:1.000; stroke:none;" />
 <path d="  M 44,21  L 43,21  L 43,22  L 44,22  Z  " style="fill:rgb(106, 227, 221); fill-opacity:1.000; stroke:none;" />
 <path d="  M 44,22  L 44,24  L 45,24  L 45,22  Z  " style="fill:rgb(106, 227, 221); fill-opacity:1.000; stroke:none;" />
 <path d="  M 21,41  L 21,42  L 22,42  L 22,40  L 21,40  L 21,38  L 20,38  L 20,36  L 19,36  L 19,26  L 18,26  L 18,28  L 17,28  L 17,31  L 18,31  L 18,33  L 17,33  L 17,34  L 18,34  L 18,37  L 19,37  L 19,40  L 20,40  L 20,41  Z  " style="fill:rgb(123, 232, 228); fill-opacity:1.000; stroke:none;" />
 <path d="  M 19,26  L 20,26  L 20,24  L 19,24  Z  " style="fill:rgb(123, 232, 228); fill-opacity:1.000; stroke:none;" />
 <path d="  M 21,24  L 21,23  L 20,23  L 20,24  Z  " style="fill:rgb(123, 232, 228); fill-opacity:1.000; stroke:none;" />
 <path d="  M 22,22  L 21,22  L 21,23  L 22,23  Z  " style="fill:rgb(123, 232, 228); fill-opacity:1.000; stroke:none;" />
 <path d="  M 24,22  L 24,20  L 23,20  L 23,21  L 22,21  L 22,22  Z  " style="fill:rgb(123, 232, 228); fill-opacity:1.000; stroke:none;" />
 <path d="  M 23,43  L 23,44  L 26,44  L 26,43  L 24,43  L 24,42  L 22,42  L 22,43  Z  " style="fill:rgb(123, 232, 228); fill-opacity:1.000; stroke:none;" />
 <path d="  M 25,21  L 26,21  L 26,20  L 28,20  L 28,19  L 25,19  Z  " style="fill:rgb(123, 232, 228); fill-opacity:1.000; stroke:none;" />
 <path d="  M 37,45  L 37,44  L 39,44  L 39,43  L 40,43  L 40,42  L 38,42  L 38,43  L 36,43  L 36,44  L 26,44  L 26,45  Z  " style="fill:rgb(123, 232, 228); fill-opacity:1.000; stroke:none;" />
 <path d="  M 41,20  L 39,20  L 39,19  L 37,19  L 37,18  L 34,18  L 34,17  L 31,17  L 31,18  L 28,18  L 28,19  L 36,19  L 36,20  L 38,20  L 38,21  L 40,21  L 40,22  L 41,22  Z  " style="fill:rgb(123, 232, 228); fill-opacity:1.000; stroke:none;" />
 <path d="  M 43,39  L 42,39  L 42,40  L 41,40  L 41,41  L 40,41  L 40,42  L 42,42  L 42,41  L 43,41  Z  " style="fill:rgb(123, 232, 228); fill-opacity:1.000; stroke:none;" />
 <path d="  M 44,22  L 43,22  L 43,21  L 42,21  L 42,23  L 43,23  L 43,24  L 44,24  Z  " style="fill:rgb(123, 232, 228); fill-opacity:1.000; stroke:none;" />
 <path d="  M 44,35  L 44,37  L 43,37  L 43,39  L 44,39  L 44,38  L 45,38  L 45,36  L 46,36  L 46,32  L 45,32  L 45,35  Z  " style="fill:rgb(123, 232, 228); fill-opacity:1.000; stroke:none;" />
 <path d="  M 45,24  L 44,24  L 44,26  L 45,26  Z  " style="fill:rgb(123, 232, 228); fill-opacity:1.000; stroke:none;" />
 <path d="  M 45,31  L 46,31  L 46,26  L 45,26  Z  " style="fill:rgb(123, 232, 228); fill-opacity:1.000; stroke:none;" />
 <path d="  M 19,35  L 20,35  L 20,38  L 21,38  L 21,40  L 22,40  L 22,37  L 21,37  L 21,34  L 20,34  L 20,26  L 19,26  Z  " style="fill:rgb(139, 237, 235); fill-opacity:1.000; stroke:none;" />
 <path d="  M 20,24  L 20,25  L 21,25  L 21,24  Z  " style="fill:rgb(139, 237, 235); fill-opacity:1.000; stroke:none;" />
 <path d="  M 22,24  L 23,24  L 23,23  L 22,23  Z  " style="fill:rgb(139, 237, 235); fill-opacity:1.000; stroke:none;" />
 <path d="  M 23,40  L 22,40  L 22,42  L 24,42  L 24,41  L 23,41  Z  " style="fill:rgb(139, 237, 235); fill-opacity:1.000; stroke:none;" />
 <path d="  M 24,21  L 24,22  L 25,22  L 25,21  Z  " style="fill:rgb(139, 237, 235); fill-opacity:1.000; stroke:none;" />
 <path d="  M 24,42  L 24,43  L 26,43  L 26,42  Z  " style="fill:rgb(139, 237, 235); fill-opacity:1.000; stroke:none;" />
 <path d="  M 29,43  L 28,43  L 28,44  L 29,44  Z  " style="fill:rgb(139, 237, 235); fill-opacity:1.000; stroke:none;" />
 <path d="  M 33,19  L 33,20  L 34,20  L 34,19  Z  " style="fill:rgb(139, 237, 235); fill-opacity:1.000; stroke:none;" />
 <path d="  M 36,44  L 36,43  L 34,43  L 34,44  Z  " style="fill:rgb(139, 237, 235); fill-opacity:1.000; stroke:none;" />
 <path d="  M 35,20  L 36,20  L 36,19  L 35,19  Z  " style="fill:rgb(139, 237, 235); fill-opacity:1.000; stroke:none;" />
 <path d="  M 38,20  L 36,20  L 36,21  L 38,21  Z  " style="fill:rgb(139, 237, 235); fill-opacity:1.000; stroke:none;" />
 <path d="  M 38,41  L 38,42  L 40,42  L 40,41  Z  " style="fill:rgb(139, 237, 235); fill-opacity:1.000; stroke:none;" />
 <path d="  M 40,22  L 40,21  L 39,21  L 39,22  Z  " style="fill:rgb(139, 237, 235); fill-opacity:1.000; stroke:none;" />
 <path d="  M 41,41  L 41,40  L 40,40  L 40,41  Z  " style="fill:rgb(139, 237, 235); fill-opacity:1.000; stroke:none;" />
 <path d="  M 44,26  L 44,24  L 43,24  L 43,23  L 42,23  L 42,22  L 41,22  L 41,24  L 42,24  L 42,25  L 43,25  L 43,27  L 44,27  L 44,32  L 45,32  L 45,26  Z  " style="fill:rgb(139, 237, 235); fill-opacity:1.000; stroke:none;" />
 <path d="  M 41,39  L 41,40  L 42,40  L 42,39  Z  " style="fill:rgb(139, 237, 235); fill-opacity:1.000; stroke:none;" />
 <path d="  M 42,38  L 43,38  L 43,37  L 42,37  Z  " style="fill:rgb(139, 237, 235); fill-opacity:1.000; stroke:none;" />
 <path d="  M 44,35  L 45,35  L 45,33  L 44,33  L 44,34  L 43,34  L 43,36  L 44,36  Z  " style="fill:rgb(139, 237, 235); fill-opacity:1.000; stroke:none;" />
 <path d="  M 19,35  L 19,36  L 20,36  L 20,35  Z  " style="fill:rgb(145, 239, 230); fill-opacity:1.000; stroke:none;" />
 <path d="  M 21,25  L 20,25  L 20,26  L 21,26  Z  " style="fill:rgb(145, 239, 230); fill-opacity:1.000; stroke:none;" />
 <path d="  M 22,23  L 21,23  L 21,24  L 22,24  Z  " style="fill:rgb(145, 239, 230); fill-opacity:1.000; stroke:none;" />
 <path d="  M 24,23  L 24,22  L 22,22  L 22,23  Z  " style="fill:rgb(145, 239, 230); fill-opacity:1.000; stroke:none;" />
 <path d="  M 22,39  L 22,40  L 23,40  L 23,39  Z  " style="fill:rgb(145, 239, 230); fill-opacity:1.000; stroke:none;" />
 <path d="  M 24,41  L 24,40  L 23,40  L 23,41  Z  " style="fill:rgb(145, 239, 230); fill-opacity:1.000; stroke:none;" />
 <path d="  M 25,21  L 25,20  L 24,20  L 24,21  Z  " style="fill:rgb(145, 239, 230); fill-opacity:1.000; stroke:none;" />
 <path d="  M 24,42  L 25,42  L 25,41  L 24,41  Z  " style="fill:rgb(145, 239, 230); fill-opacity:1.000; stroke:none;" />
 <path d="  M 25,22  L 26,22  L 26,21  L 25,21  Z  " style="fill:rgb(145, 239, 230); fill-opacity:1.000; stroke:none;" />
 <path d="  M 26,20  L 26,21  L 27,21  L 27,20  Z  " style="fill:rgb(145, 239, 230); fill-opacity:1.000; stroke:none;" />
 <path d="  M 26,44  L 28,44  L 28,43  L 26,43  Z  " style="fill:rgb(145, 239, 230); fill-opacity:1.000; stroke:none;" />
 <path d="  M 30,20  L 30,19  L 28,19  L 28,20  Z  " style="fill:rgb(145, 239, 230); fill-opacity:1.000; stroke:none;" />
 <path d="  M 31,44  L 31,43  L 29,43  L 29,44  Z  " style="fill:rgb(145, 239, 230); fill-opacity:1.000; stroke:none;" />
 <path d="  M 35,20  L 35,19  L 34,19  L 34,20  Z  " style="fill:rgb(145, 239, 230); fill-opacity:1.000; stroke:none;" />
 <path d="  M 36,20  L 35,20  L 35,21  L 36,21  Z  " style="fill:rgb(145, 239, 230); fill-opacity:1.000; stroke:none;" />
 <path d="  M 38,43  L 38,42  L 36,42  L 36,43  Z  " style="fill:rgb(145, 239, 230); fill-opacity:1.000; stroke:none;" />
 <path d="  M 38,21  L 38,22  L 39,22  L 39,21  Z  " style="fill:rgb(145, 239, 230); fill-opacity:1.000; stroke:none;" />
 <path d="  M 41,22  L 40,22  L 40,23  L 41,23  Z  " style="fill:rgb(145, 239, 230); fill-opacity:1.000; stroke:none;" />
 <path d="  M 41,21  L 41,22  L 42,22  L 42,21  Z  " style="fill:rgb(145, 239, 230); fill-opacity:1.000; stroke:none;" />
 <path d="  M 42,24  L 41,24  L 41,25  L 42,25  Z  " style="fill:rgb(145, 239, 230); fill-opacity:1.000; stroke:none;" />
 <path d="  M 41,38  L 41,39  L 43,39  L 43,38  Z  " style="fill:rgb(145, 239, 230); fill-opacity:1.000; stroke:none;" />
 <path d="  M 43,25  L 42,25  L 42,26  L 43,26  Z  " style="fill:rgb(145, 239, 230); fill-opacity:1.000; stroke:none;" />
 <path d="  M 44,36  L 43,36  L 43,37  L 44,37  Z  " style="fill:rgb(145, 239, 230); fill-opacity:1.000; stroke:none;" />
 <path d="  M 44,32  L 44,33  L 45,33  L 45,32  Z  " style="fill:rgb(145, 239, 230); fill-opacity:1.000; stroke:none;" />
 <path d="  M 46,31  L 45,31  L 45,32  L 46,32  Z  " style="fill:rgb(145, 239, 230); fill-opacity:1.000; stroke:none;" />
 <path d="  M 21,29  L 21,27  L 22,27  L 22,26  L 23,26  L 23,25  L 24,25  L 24,23  L 23,23  L 23,24  L 21,24  L 21,26  L 20,26  L 20,29  Z  " style="fill:rgb(158, 243, 237); fill-opacity:1.000; stroke:none;" />
 <path d="  M 21,32  L 20,32  L 20,34  L 21,34  Z  " style="fill:rgb(158, 243, 237); fill-opacity:1.000; stroke:none;" />
 <path d="  M 22,34  L 21,34  L 21,37  L 22,37  Z  " style="fill:rgb(158, 243, 237); fill-opacity:1.000; stroke:none;" />
 <path d="  M 23,38  L 23,37  L 22,37  L 22,39  L 23,39  L 23,40  L 24,40  L 24,38  Z  " style="fill:rgb(158, 243, 237); fill-opacity:1.000; stroke:none;" />
 <path d="  M 24,23  L 26,23  L 26,22  L 24,22  Z  " style="fill:rgb(158, 243, 237); fill-opacity:1.000; stroke:none;" />
 <path d="  M 24,40  L 24,41  L 25,41  L 25,40  Z  " style="fill:rgb(158, 243, 237); fill-opacity:1.000; stroke:none;" />
 <path d="  M 27,41  L 25,41  L 25,42  L 26,42  L 26,43  L 31,43  L 31,42  L 27,42  Z  " style="fill:rgb(158, 243, 237); fill-opacity:1.000; stroke:none;" />
 <path d="  M 27,22  L 27,21  L 26,21  L 26,22  Z  " style="fill:rgb(158, 243, 237); fill-opacity:1.000; stroke:none;" />
 <path d="  M 28,20  L 27,20  L 27,21  L 28,21  Z  " style="fill:rgb(158, 243, 237); fill-opacity:1.000; stroke:none;" />
 <path d="  M 33,19  L 30,19  L 30,20  L 33,20  Z  " style="fill:rgb(158, 243, 237); fill-opacity:1.000; stroke:none;" />
 <path d="  M 34,44  L 34,43  L 31,43  L 31,44  Z  " style="fill:rgb(158, 243, 237); fill-opacity:1.000; stroke:none;" />
 <path d="  M 34,20  L 34,21  L 35,21  L 35,20  Z  " style="fill:rgb(158, 243, 237); fill-opacity:1.000; stroke:none;" />
 <path d="  M 36,42  L 34,42  L 34,43  L 36,43  Z  " style="fill:rgb(158, 243, 237); fill-opacity:1.000; stroke:none;" />
 <path d="  M 36,21  L 36,22  L 38,22  L 38,21  Z  " style="fill:rgb(158, 243, 237); fill-opacity:1.000; stroke:none;" />
 <path d="  M 36,41  L 36,42  L 38,42  L 38,41  Z  " style="fill:rgb(158, 243, 237); fill-opacity:1.000; stroke:none;" />
 <path d="  M 40,22  L 38,22  L 38,23  L 39,23  L 39,24  L 40,24  L 40,25  L 41,25  L 41,23  L 40,23  Z  " style="fill:rgb(158, 243, 237); fill-opacity:1.000; stroke:none;" />
 <path d="  M 39,40  L 38,40  L 38,41  L 40,41  L 40,40  L 41,40  L 41,38  L 40,38  L 40,39  L 39,39  Z  " style="fill:rgb(158, 243, 237); fill-opacity:1.000; stroke:none;" />
 <path d="  M 42,26  L 42,25  L 41,25  L 41,26  Z  " style="fill:rgb(158, 243, 237); fill-opacity:1.000; stroke:none;" />
 <path d="  M 42,38  L 42,37  L 41,37  L 41,38  Z  " style="fill:rgb(158, 243, 237); fill-opacity:1.000; stroke:none;" />
 <path d="  M 43,28  L 43,34  L 44,34  L 44,27  L 43,27  L 43,26  L 42,26  L 42,28  Z  " style="fill:rgb(158, 243, 237); fill-opacity:1.000; stroke:none;" />
 <path d="  M 42,37  L 43,37  L 43,35  L 42,35  Z  " style="fill:rgb(158, 243, 237); fill-opacity:1.000; stroke:none;" />
 <path d="  M 21,32  L 21,30  L 22,30  L 22,29  L 23,29  L 23,27  L 24,27  L 24,25  L 23,25  L 23,26  L 22,26  L 22,27  L 21,27  L 21,29  L 20,29  L 20,32  Z  " style="fill:rgb(172, 247, 241); fill-opacity:1.000; stroke:none;" />
 <path d="  M 22,33  L 21,33  L 21,34  L 22,34  Z  " style="fill:rgb(172, 247, 241); fill-opacity:1.000; stroke:none;" />
 <path d="  M 23,35  L 22,35  L 22,37  L 23,37  Z  " style="fill:rgb(172, 247, 241); fill-opacity:1.000; stroke:none;" />
 <path d="  M 24,38  L 24,37  L 23,37  L 23,38  Z  " style="fill:rgb(172, 247, 241); fill-opacity:1.000; stroke:none;" />
 <path d="  M 24,23  L 24,25  L 25,25  L 25,24  L 26,24  L 26,23  Z  " style="fill:rgb(172, 247, 241); fill-opacity:1.000; stroke:none;" />
 <path d="  M 31,42  L 31,43  L 34,43  L 34,42  L 36,42  L 36,41  L 28,41  L 28,40  L 26,40  L 26,39  L 25,39  L 25,38  L 24,38  L 24,40  L 25,40  L 25,41  L 27,41  L 27,42  Z  " style="fill:rgb(172, 247, 241); fill-opacity:1.000; stroke:none;" />
 <path d="  M 28,21  L 27,21  L 27,22  L 26,22  L 26,23  L 28,23  L 28,22  L 29,22  L 29,21  L 30,21  L 30,20  L 28,20  Z  " style="fill:rgb(172, 247, 241); fill-opacity:1.000; stroke:none;" />
 <path d="  M 34,21  L 34,20  L 32,20  L 32,21  Z  " style="fill:rgb(172, 247, 241); fill-opacity:1.000; stroke:none;" />
 <path d="  M 36,22  L 36,21  L 34,21  L 34,22  Z  " style="fill:rgb(172, 247, 241); fill-opacity:1.000; stroke:none;" />
 <path d="  M 37,23  L 38,23  L 38,22  L 37,22  Z  " style="fill:rgb(172, 247, 241); fill-opacity:1.000; stroke:none;" />
 <path d="  M 37,41  L 38,41  L 38,40  L 37,40  Z  " style="fill:rgb(172, 247, 241); fill-opacity:1.000; stroke:none;" />
 <path d="  M 39,23  L 38,23  L 38,24  L 39,24  Z  " style="fill:rgb(172, 247, 241); fill-opacity:1.000; stroke:none;" />
 <path d="  M 38,39  L 38,40  L 39,40  L 39,39  Z  " style="fill:rgb(172, 247, 241); fill-opacity:1.000; stroke:none;" />
 <path d="  M 42,28  L 42,26  L 41,26  L 41,25  L 40,25  L 40,24  L 39,24  L 39,26  L 40,26  L 40,27  L 41,27  L 41,30  L 42,30  L 42,35  L 43,35  L 43,28  Z  " style="fill:rgb(172, 247, 241); fill-opacity:1.000; stroke:none;" />
 <path d="  M 40,39  L 40,38  L 39,38  L 39,39  Z  " style="fill:rgb(172, 247, 241); fill-opacity:1.000; stroke:none;" />
 <path d="  M 41,37  L 40,37  L 40,38  L 41,38  Z  " style="fill:rgb(172, 247, 241); fill-opacity:1.000; stroke:none;" />
 <path d="  M 42,35  L 41,35  L 41,37  L 42,37  Z  " style="fill:rgb(172, 247, 241); fill-opacity:1.000; stroke:none;" />
 <path d="  M 22,30  L 21,30  L 21,33  L 22,33  Z  " style="fill:rgb(185, 250, 246); fill-opacity:1.000; stroke:none;" />
 <path d="  M 23,30  L 23,29  L 22,29  L 22,30  Z  " style="fill:rgb(185, 250, 246); fill-opacity:1.000; stroke:none;" />
 <path d="  M 22,35  L 23,35  L 23,34  L 22,34  Z  " style="fill:rgb(185, 250, 246); fill-opacity:1.000; stroke:none;" />
 <path d="  M 23,29  L 24,29  L 24,27  L 23,27  Z  " style="fill:rgb(185, 250, 246); fill-opacity:1.000; stroke:none;" />
 <path d="  M 25,38  L 25,39  L 26,39  L 26,37  L 25,37  L 25,36  L 24,36  L 24,35  L 23,35  L 23,37  L 24,37  L 24,38  Z  " style="fill:rgb(185, 250, 246); fill-opacity:1.000; stroke:none;" />
 <path d="  M 25,26  L 25,25  L 24,25  L 24,26  Z  " style="fill:rgb(185, 250, 246); fill-opacity:1.000; stroke:none;" />
 <path d="  M 27,24  L 28,24  L 28,23  L 26,23  L 26,24  L 25,24  L 25,25  L 27,25  Z  " style="fill:rgb(185, 250, 246); fill-opacity:1.000; stroke:none;" />
 <path d="  M 28,39  L 26,39  L 26,40  L 28,40  Z  " style="fill:rgb(185, 250, 246); fill-opacity:1.000; stroke:none;" />
 <path d="  M 28,23  L 30,23  L 30,21  L 29,21  L 29,22  L 28,22  Z  " style="fill:rgb(185, 250, 246); fill-opacity:1.000; stroke:none;" />
 <path d="  M 37,40  L 38,40  L 38,39  L 35,39  L 35,40  L 28,40  L 28,41  L 37,41  Z  " style="fill:rgb(185, 250, 246); fill-opacity:1.000; stroke:none;" />
 <path d="  M 30,20  L 30,21  L 32,21  L 32,20  Z  " style="fill:rgb(185, 250, 246); fill-opacity:1.000; stroke:none;" />
 <path d="  M 34,22  L 34,21  L 32,21  L 32,22  Z  " style="fill:rgb(185, 250, 246); fill-opacity:1.000; stroke:none;" />
 <path d="  M 38,23  L 37,23  L 37,22  L 34,22  L 34,23  L 36,23  L 36,24  L 37,24  L 37,25  L 38,25  L 38,26  L 39,26  L 39,24  L 38,24  Z  " style="fill:rgb(185, 250, 246); fill-opacity:1.000; stroke:none;" />
 <path d="  M 38,38  L 38,39  L 39,39  L 39,38  Z  " style="fill:rgb(185, 250, 246); fill-opacity:1.000; stroke:none;" />
 <path d="  M 42,35  L 42,30  L 41,30  L 41,27  L 40,27  L 40,26  L 39,26  L 39,28  L 40,28  L 40,32  L 41,32  L 41,35  Z  " style="fill:rgb(185, 250, 246); fill-opacity:1.000; stroke:none;" />
 <path d="  M 40,37  L 39,37  L 39,38  L 40,38  Z  " style="fill:rgb(185, 250, 246); fill-opacity:1.000; stroke:none;" />
 <path d="  M 41,35  L 40,35  L 40,37  L 41,37  Z  " style="fill:rgb(185, 250, 246); fill-opacity:1.000; stroke:none;" />
 <path d="  M 27,27  L 27,26  L 28,26  L 28,24  L 27,24  L 27,25  L 25,25  L 25,26  L 24,26  L 24,29  L 23,29  L 23,30  L 22,30  L 22,34  L 23,34  L 23,31  L 24,31  L 24,30  L 25,30  L 25,27  Z  " style="fill:rgb(196, 253, 251); fill-opacity:1.000; stroke:none;" />
 <path d="  M 23,34  L 23,35  L 24,35  L 24,34  Z  " style="fill:rgb(196, 253, 251); fill-opacity:1.000; stroke:none;" />
 <path d="  M 24,35  L 24,36  L 25,36  L 25,35  Z  " style="fill:rgb(196, 253, 251); fill-opacity:1.000; stroke:none;" />
 <path d="  M 25,37  L 26,37  L 26,36  L 25,36  Z  " style="fill:rgb(196, 253, 251); fill-opacity:1.000; stroke:none;" />
 <path d="  M 35,40  L 35,39  L 30,39  L 30,38  L 28,38  L 28,37  L 26,37  L 26,39  L 28,39  L 28,40  Z  " style="fill:rgb(196, 253, 251); fill-opacity:1.000; stroke:none;" />
 <path d="  M 28,23  L 28,24  L 31,24  L 31,23  L 32,23  L 32,24  L 35,24  L 35,25  L 36,25  L 36,26  L 37,26  L 37,27  L 38,27  L 38,28  L 39,28  L 39,26  L 38,26  L 38,25  L 37,25  L 37,24  L 36,24  L 36,23  L 34,23  L 34,22  L 32,22  L 32,21  L 30,21  L 30,23  Z  " style="fill:rgb(196, 253, 251); fill-opacity:1.000; stroke:none;" />
 <path d="  M 39,36  L 38,36  L 38,37  L 37,37  L 37,38  L 35,38  L 35,39  L 38,39  L 38,38  L 39,38  L 39,37  L 40,37  L 40,35  L 41,35  L 41,32  L 40,32  L 40,28  L 39,28  Z  " style="fill:rgb(196, 253, 251); fill-opacity:1.000; stroke:none;" />
 <path d="  M 27,29  L 28,29  L 28,27  L 29,27  L 29,26  L 30,26  L 30,25  L 32,25  L 32,26  L 36,26  L 36,25  L 35,25  L 35,24  L 32,24  L 32,23  L 31,23  L 31,24  L 28,24  L 28,26  L 27,26  L 27,27  L 25,27  L 25,30  L 24,30  L 24,31  L 23,31  L 23,34  L 24,34  L 24,35  L 25,35  L 25,36  L 26,36  L 26,37  L 28,37  L 28,36  L 27,36  L 27,35  L 26,35  L 26,34  L 25,34  L 25,32  L 26,32  L 26,30  L 27,30  Z  " style="fill:rgb(206, 254, 254); fill-opacity:1.000; stroke:none;" />
 <path d="  M 39,28  L 38,28  L 38,27  L 37,27  L 37,26  L 36,26  L 36,28  L 37,28  L 37,30  L 38,30  L 38,34  L 37,34  L 37,36  L 35,36  L 35,37  L 28,37  L 28,38  L 30,38  L 30,39  L 35,39  L 35,38  L 37,38  L 37,37  L 38,37  L 38,36  L 39,36  Z  " style="fill:rgb(206, 254, 254); fill-opacity:1.000; stroke:none;" />
 <path d="  M 25,32  L 25,34  L 26,34  L 26,35  L 27,35  L 27,31  L 28,31  L 28,29  L 27,29  L 27,30  L 26,30  L 26,32  Z  " style="fill:rgb(216, 255, 255); fill-opacity:1.000; stroke:none;" />
 <path d="  M 28,35  L 27,35  L 27,36  L 28,36  Z  " style="fill:rgb(216, 255, 255); fill-opacity:1.000; stroke:none;" />
 <path d="  M 35,27  L 35,28  L 36,28  L 36,26  L 32,26  L 32,25  L 30,25  L 30,26  L 29,26  L 29,27  L 28,27  L 28,29  L 29,29  L 29,28  L 30,28  L 30,27  Z  " style="fill:rgb(216, 255, 255); fill-opacity:1.000; stroke:none;" />
 <path d="  M 35,37  L 35,36  L 28,36  L 28,37  Z  " style="fill:rgb(216, 255, 255); fill-opacity:1.000; stroke:none;" />
 <path d="  M 36,31  L 37,31  L 37,33  L 36,33  L 36,35  L 35,35  L 35,36  L 37,36  L 37,34  L 38,34  L 38,30  L 37,30  L 37,28  L 36,28  Z  " style="fill:rgb(216, 255, 255); fill-opacity:1.000; stroke:none;" />
 <path d="  M 36,28  L 35,28  L 35,27  L 30,27  L 30,28  L 29,28  L 29,29  L 28,29  L 28,31  L 27,31  L 27,35  L 28,35  L 28,36  L 35,36  L 35,35  L 36,35  L 36,33  L 37,33  L 37,31  L 36,31  Z  " style="fill:rgb(234, 255, 254); fill-opacity:1.000; stroke:none;" />
</svg>
