<?xml version="1.0" encoding="UTF-8" standalone="no"?>
<!DOCTYPE svg PUBLIC "-//W3C//DTD SVG 1.1//EN" 
  "http://www.w3.org/Graphics/SVG/1.1/DTD/svg11.dtd">
<svg width="64" height="64"
	 xmlns="http://www.w3.org/2000/svg" version="1.1">
 <path d="  M 1,1  L 4,1  L 4,0  L 0,0  L 0,4  L 1,4  Z  " style="fill:rgb(233, 177, 21); fill-opacity:1.000; stroke:none;" />
 <path d="  M 4,32  L 4,31  L 1,31  L 1,28  L 0,28  L 0,32  Z  " style="fill:rgb(233, 177, 21); fill-opacity:1.000; stroke:none;" />
 <path d="  M 11,19  L 13,19  L 13,20  L 14,20  L 14,21  L 19,21  L 19,20  L 20,20  L 20,19  L 21,19  L 21,13  L 19,13  L 19,12  L 18,12  L 18,11  L 14,11  L 14,12  L 13,12  L 13,13  L 12,13  L 12,14  L 11,14  Z  " style="fill:rgb(233, 177, 21); fill-opacity:1.000; stroke:none;" />
 <path d="  M 32,0  L 28,0  L 28,1  L 31,1  L 31,4  L 32,4  Z  " style="fill:rgb(233, 177, 21); fill-opacity:1.000; stroke:none;" />
 <path d="  M 31,31  L 28,31  L 28,32  L 32,32  L 32,28  L 31,28  Z  " style="fill:rgb(233, 177, 21); fill-opacity:1.000; stroke:none;" />
 <path d="  M 1,4  L 0,4  L 0,12  L 1,12  Z  " style="fill:rgb(242, 187, 74); fill-opacity:1.000; stroke:none;" />
 <path d="  M 1,20  L 0,20  L 0,28  L 1,28  Z  " style="fill:rgb(242, 187, 74); fill-opacity:1.000; stroke:none;" />
 <path d="  M 12,1  L 12,0  L 4,0  L 4,1  Z  " style="fill:rgb(242, 187, 74); fill-opacity:1.000; stroke:none;" />
 <path d="  M 4,31  L 4,32  L 12,32  L 12,31  Z  " style="fill:rgb(242, 187, 74); fill-opacity:1.000; stroke:none;" />
 <path d="  M 13,19  L 12,19  L 12,20  L 13,20  Z  " style="fill:rgb(242, 187, 74); fill-opacity:1.000; stroke:none;" />
 <path d="  M 19,22  L 19,21  L 14,21  L 14,20  L 13,20  L 13,22  Z  " style="fill:rgb(242, 187, 74); fill-opacity:1.000; stroke:none;" />
 <path d="  M 19,11  L 19,10  L 18,10  L 18,11  Z  " style="fill:rgb(242, 187, 74); fill-opacity:1.000; stroke:none;" />
 <path d="  M 19,12  L 20,12  L 20,13  L 21,13  L 21,11  L 19,11  Z  " style="fill:rgb(242, 187, 74); fill-opacity:1.000; stroke:none;" />
 <path d="  M 20,20  L 19,20  L 19,21  L 21,21  L 21,19  L 20,19  Z  " style="fill:rgb(242, 187, 74); fill-opacity:1.000; stroke:none;" />
 <path d="  M 28,1  L 28,0  L 20,0  L 20,1  Z  " style="fill:rgb(242, 187, 74); fill-opacity:1.000; stroke:none;" />
 <path d="  M 20,31  L 20,32  L 28,32  L 28,31  Z  " style="fill:rgb(242, 187, 74); fill-opacity:1.000; stroke:none;" />
 <path d="  M 21,19  L 22,19  L 22,13  L 21,13  Z  " style="fill:rgb(242, 187, 74); fill-opacity:1.000; stroke:none;" />
 <path d="  M 32,4  L 31,4  L 31,12  L 32,12  Z  " style="fill:rgb(242, 187, 74); fill-opacity:1.000; stroke:none;" />
 <path d="  M 31,28  L 32,28  L 32,20  L 31,20  Z  " style="fill:rgb(242, 187, 74); fill-opacity:1.000; stroke:none;" />
 <path d="  M 0,20  L 1,20  L 1,12  L 0,12  Z  " style="fill:rgb(255, 221, 90); fill-opacity:1.000; stroke:none;" />
 <path d="  M 11,14  L 12,14  L 12,13  L 13,13  L 13,12  L 14,12  L 14,11  L 18,11  L 18,10  L 13,10  L 13,11  L 11,11  L 11,13  L 10,13  L 10,19  L 11,19  Z  " style="fill:rgb(255, 221, 90); fill-opacity:1.000; stroke:none;" />
 <path d="  M 11,21  L 13,21  L 13,20  L 12,20  L 12,19  L 11,19  Z  " style="fill:rgb(255, 221, 90); fill-opacity:1.000; stroke:none;" />
 <path d="  M 20,1  L 20,0  L 12,0  L 12,1  Z  " style="fill:rgb(255, 221, 90); fill-opacity:1.000; stroke:none;" />
 <path d="  M 20,32  L 20,31  L 12,31  L 12,32  Z  " style="fill:rgb(255, 221, 90); fill-opacity:1.000; stroke:none;" />
 <path d="  M 19,12  L 19,11  L 18,11  L 18,12  Z  " style="fill:rgb(255, 221, 90); fill-opacity:1.000; stroke:none;" />
 <path d="  M 20,12  L 19,12  L 19,13  L 20,13  Z  " style="fill:rgb(255, 221, 90); fill-opacity:1.000; stroke:none;" />
 <path d="  M 31,20  L 32,20  L 32,12  L 31,12  Z  " style="fill:rgb(255, 221, 90); fill-opacity:1.000; stroke:none;" />
 <path d="  M 3,2  L 5,2  L 5,1  L 1,1  L 1,5  L 2,5  L 2,3  L 3,3  Z  " style="fill:rgb(170, 134, 35); fill-opacity:1.000; stroke:none;" />
 <path d="  M 2,27  L 1,27  L 1,31  L 5,31  L 5,30  L 3,30  L 3,29  L 2,29  Z  " style="fill:rgb(170, 134, 35); fill-opacity:1.000; stroke:none;" />
 <path d="  M 27,1  L 27,2  L 29,2  L 29,3  L 30,3  L 30,5  L 31,5  L 31,1  Z  " style="fill:rgb(170, 134, 35); fill-opacity:1.000; stroke:none;" />
 <path d="  M 30,29  L 29,29  L 29,30  L 27,30  L 27,31  L 31,31  L 31,27  L 30,27  Z  " style="fill:rgb(170, 134, 35); fill-opacity:1.000; stroke:none;" />
 <path d="  M 1,20  L 2,20  L 2,5  L 1,5  Z  " style="fill:rgb(208, 174, 43); fill-opacity:1.000; stroke:none;" />
 <path d="  M 20,2  L 20,1  L 12,1  L 12,2  Z  " style="fill:rgb(208, 174, 43); fill-opacity:1.000; stroke:none;" />
 <path d="  M 20,31  L 20,30  L 12,30  L 12,31  Z  " style="fill:rgb(208, 174, 43); fill-opacity:1.000; stroke:none;" />
 <path d="  M 31,12  L 30,12  L 30,20  L 31,20  Z  " style="fill:rgb(208, 174, 43); fill-opacity:1.000; stroke:none;" />
 <path d="  M 2,20  L 1,20  L 1,27  L 2,27  Z  " style="fill:rgb(195, 140, 27); fill-opacity:1.000; stroke:none;" />
 <path d="  M 12,2  L 12,1  L 5,1  L 5,2  Z  " style="fill:rgb(195, 140, 27); fill-opacity:1.000; stroke:none;" />
 <path d="  M 5,30  L 5,31  L 12,31  L 12,30  Z  " style="fill:rgb(195, 140, 27); fill-opacity:1.000; stroke:none;" />
 <path d="  M 27,2  L 27,1  L 20,1  L 20,2  Z  " style="fill:rgb(195, 140, 27); fill-opacity:1.000; stroke:none;" />
 <path d="  M 20,30  L 20,31  L 27,31  L 27,30  Z  " style="fill:rgb(195, 140, 27); fill-opacity:1.000; stroke:none;" />
 <path d="  M 30,12  L 31,12  L 31,5  L 30,5  Z  " style="fill:rgb(195, 140, 27); fill-opacity:1.000; stroke:none;" />
 <path d="  M 31,20  L 30,20  L 30,27  L 31,27  Z  " style="fill:rgb(195, 140, 27); fill-opacity:1.000; stroke:none;" />
 <path d="  M 3,4  L 4,4  L 4,3  L 12,3  L 12,2  L 3,2  L 3,3  L 2,3  L 2,12  L 3,12  Z  " style="fill:rgb(140, 107, 13); fill-opacity:1.000; stroke:none;" />
 <path d="  M 12,30  L 12,29  L 4,29  L 4,28  L 3,28  L 3,20  L 2,20  L 2,29  L 3,29  L 3,30  Z  " style="fill:rgb(140, 107, 13); fill-opacity:1.000; stroke:none;" />
 <path d="  M 20,2  L 20,3  L 28,3  L 28,4  L 29,4  L 29,12  L 30,12  L 30,3  L 29,3  L 29,2  Z  " style="fill:rgb(140, 107, 13); fill-opacity:1.000; stroke:none;" />
 <path d="  M 29,30  L 29,29  L 30,29  L 30,20  L 29,20  L 29,28  L 28,28  L 28,29  L 20,29  L 20,30  Z  " style="fill:rgb(140, 107, 13); fill-opacity:1.000; stroke:none;" />
 <path d="  M 4,3  L 4,4  L 3,4  L 3,12  L 2,12  L 2,20  L 3,20  L 3,28  L 4,28  L 4,29  L 12,29  L 12,30  L 20,30  L 20,29  L 28,29  L 28,28  L 29,28  L 29,20  L 30,20  L 30,12  L 29,12  L 29,4  L 28,4  L 28,3  L 20,3  L 20,2  L 12,2  L 12,3  Z  M 19,10  L 19,11  L 21,11  L 21,13  L 22,13  L 22,19  L 21,19  L 21,21  L 19,21  L 19,22  L 13,22  L 13,21  L 11,21  L 11,19  L 10,19  L 10,13  L 11,13  L 11,11  L 13,11  L 13,10  Z  " style="fill:rgb(123, 94, 13); fill-opacity:1.000; stroke:none;" />
</svg>
