<?xml version="1.0" encoding="UTF-8" standalone="no"?>
<!DOCTYPE svg PUBLIC "-//W3C//DTD SVG 1.1//EN" 
  "http://www.w3.org/Graphics/SVG/1.1/DTD/svg11.dtd">
<svg width="64" height="64"
	 xmlns="http://www.w3.org/2000/svg" version="1.1">
 <path d="  M 1,1  L 1,0  L 0,0  L 0,1  Z  " style="fill:rgb(80, 105, 44); fill-opacity:1.000; stroke:none;" />
 <path d="  M 2,3  L 4,3  L 4,2  L 3,2  L 3,1  L 1,1  L 1,2  L 2,2  Z  " style="fill:rgb(80, 105, 44); fill-opacity:1.000; stroke:none;" />
 <path d="  M 4,3  L 4,4  L 5,4  L 5,5  L 7,5  L 7,4  L 6,4  L 6,3  Z  " style="fill:rgb(80, 105, 44); fill-opacity:1.000; stroke:none;" />
 <path d="  M 10,7  L 10,6  L 9,6  L 9,5  L 7,5  L 7,6  L 8,6  L 8,7  Z  " style="fill:rgb(80, 105, 44); fill-opacity:1.000; stroke:none;" />
 <path d="  M 12,8  L 12,7  L 10,7  L 10,8  Z  " style="fill:rgb(80, 105, 44); fill-opacity:1.000; stroke:none;" />
 <path d="  M 34,4  L 33,4  L 33,15  L 34,15  Z  " style="fill:rgb(80, 105, 44); fill-opacity:1.000; stroke:none;" />
 <path d="  M 54,8  L 54,7  L 52,7  L 52,8  Z  " style="fill:rgb(80, 105, 44); fill-opacity:1.000; stroke:none;" />
 <path d="  M 56,7  L 56,6  L 57,6  L 57,5  L 55,5  L 55,6  L 54,6  L 54,7  Z  " style="fill:rgb(80, 105, 44); fill-opacity:1.000; stroke:none;" />
 <path d="  M 58,3  L 58,4  L 57,4  L 57,5  L 59,5  L 59,4  L 60,4  L 60,3  Z  " style="fill:rgb(80, 105, 44); fill-opacity:1.000; stroke:none;" />
 <path d="  M 61,1  L 61,2  L 60,2  L 60,3  L 62,3  L 62,2  L 63,2  L 63,1  Z  " style="fill:rgb(80, 105, 44); fill-opacity:1.000; stroke:none;" />
 <path d="  M 64,0  L 63,0  L 63,1  L 64,1  Z  " style="fill:rgb(80, 105, 44); fill-opacity:1.000; stroke:none;" />
 <path d="  M 32,3  L 33,3  L 33,0  L 30,0  L 30,1  L 28,1  L 28,2  L 26,2  L 26,3  L 24,3  L 24,4  L 16,4  L 16,3  L 14,3  L 14,2  L 12,2  L 12,1  L 10,1  L 10,0  L 1,0  L 1,1  L 3,1  L 3,2  L 4,2  L 4,3  L 6,3  L 6,4  L 7,4  L 7,5  L 10,5  L 10,6  L 14,6  L 14,7  L 17,7  L 17,8  L 19,8  L 19,9  L 21,9  L 21,10  L 23,10  L 23,11  L 25,11  L 25,12  L 27,12  L 27,13  L 29,13  L 29,14  L 31,14  L 31,13  L 32,13  Z  " style="fill:rgb(112, 146, 45); fill-opacity:1.000; stroke:none;" />
 <path d="  M 61,1  L 63,1  L 63,0  L 54,0  L 54,1  L 52,1  L 52,2  L 50,2  L 50,3  L 48,3  L 48,4  L 40,4  L 40,3  L 38,3  L 38,2  L 36,2  L 36,1  L 34,1  L 34,9  L 35,9  L 35,12  L 36,12  L 36,13  L 37,13  L 37,12  L 39,12  L 39,11  L 41,11  L 41,10  L 43,10  L 43,9  L 45,9  L 45,8  L 47,8  L 47,7  L 50,7  L 50,6  L 54,6  L 54,5  L 57,5  L 57,4  L 58,4  L 58,3  L 60,3  L 60,2  L 61,2  Z  " style="fill:rgb(112, 146, 45); fill-opacity:1.000; stroke:none;" />
 <path d="  M 9,6  L 10,6  L 10,5  L 9,5  Z  " style="fill:rgb(108, 128, 49); fill-opacity:1.000; stroke:none;" />
 <path d="  M 28,14  L 28,15  L 33,15  L 33,11  L 32,11  L 32,13  L 31,13  L 31,14  L 29,14  L 29,13  L 27,13  L 27,12  L 25,12  L 25,11  L 23,11  L 23,10  L 21,10  L 21,9  L 19,9  L 19,8  L 17,8  L 17,7  L 14,7  L 14,6  L 10,6  L 10,7  L 12,7  L 12,8  L 15,8  L 15,9  L 16,9  L 16,10  L 18,10  L 18,11  L 20,11  L 20,12  L 23,12  L 23,13  L 26,13  L 26,14  Z  " style="fill:rgb(108, 128, 49); fill-opacity:1.000; stroke:none;" />
 <path d="  M 32,3  L 32,7  L 33,7  L 33,4  L 34,4  L 34,0  L 33,0  L 33,3  Z  " style="fill:rgb(108, 128, 49); fill-opacity:1.000; stroke:none;" />
 <path d="  M 52,7  L 54,7  L 54,6  L 50,6  L 50,7  L 47,7  L 47,8  L 45,8  L 45,9  L 43,9  L 43,10  L 41,10  L 41,11  L 39,11  L 39,12  L 37,12  L 37,13  L 36,13  L 36,12  L 35,12  L 35,9  L 34,9  L 34,15  L 36,15  L 36,14  L 38,14  L 38,13  L 41,13  L 41,12  L 44,12  L 44,11  L 46,11  L 46,10  L 48,10  L 48,9  L 49,9  L 49,8  L 52,8  Z  " style="fill:rgb(108, 128, 49); fill-opacity:1.000; stroke:none;" />
 <path d="  M 54,5  L 54,6  L 55,6  L 55,5  Z  " style="fill:rgb(108, 128, 49); fill-opacity:1.000; stroke:none;" />
 <path d="  M 26,2  L 28,2  L 28,1  L 30,1  L 30,0  L 10,0  L 10,1  L 12,1  L 12,2  L 14,2  L 14,3  L 16,3  L 16,4  L 24,4  L 24,3  L 26,3  Z  " style="fill:rgb(132, 168, 60); fill-opacity:1.000; stroke:none;" />
 <path d="  M 33,7  L 32,7  L 32,11  L 33,11  Z  " style="fill:rgb(132, 168, 60); fill-opacity:1.000; stroke:none;" />
 <path d="  M 36,1  L 36,2  L 38,2  L 38,3  L 40,3  L 40,4  L 48,4  L 48,3  L 50,3  L 50,2  L 52,2  L 52,1  L 54,1  L 54,0  L 34,0  L 34,1  Z  " style="fill:rgb(132, 168, 60); fill-opacity:1.000; stroke:none;" />
 <path d="  M 12,9  L 14,9  L 14,10  L 16,10  L 16,9  L 15,9  L 15,8  L 12,8  Z  " style="fill:rgb(66, 85, 45); fill-opacity:1.000; stroke:none;" />
 <path d="  M 16,10  L 16,11  L 17,11  L 17,12  L 20,12  L 20,11  L 18,11  L 18,10  Z  " style="fill:rgb(66, 85, 45); fill-opacity:1.000; stroke:none;" />
 <path d="  M 20,13  L 23,13  L 23,12  L 20,12  Z  " style="fill:rgb(66, 85, 45); fill-opacity:1.000; stroke:none;" />
 <path d="  M 26,14  L 26,13  L 23,13  L 23,14  Z  " style="fill:rgb(66, 85, 45); fill-opacity:1.000; stroke:none;" />
 <path d="  M 26,14  L 26,15  L 28,15  L 28,14  Z  " style="fill:rgb(66, 85, 45); fill-opacity:1.000; stroke:none;" />
 <path d="  M 36,15  L 28,15  L 28,16  L 36,16  Z  " style="fill:rgb(66, 85, 45); fill-opacity:1.000; stroke:none;" />
 <path d="  M 36,14  L 36,15  L 38,15  L 38,14  Z  " style="fill:rgb(66, 85, 45); fill-opacity:1.000; stroke:none;" />
 <path d="  M 38,13  L 38,14  L 41,14  L 41,13  Z  " style="fill:rgb(66, 85, 45); fill-opacity:1.000; stroke:none;" />
 <path d="  M 44,13  L 44,12  L 41,12  L 41,13  Z  " style="fill:rgb(66, 85, 45); fill-opacity:1.000; stroke:none;" />
 <path d="  M 46,10  L 46,11  L 44,11  L 44,12  L 47,12  L 47,11  L 48,11  L 48,10  Z  " style="fill:rgb(66, 85, 45); fill-opacity:1.000; stroke:none;" />
 <path d="  M 49,8  L 49,9  L 48,9  L 48,10  L 50,10  L 50,9  L 52,9  L 52,8  Z  " style="fill:rgb(66, 85, 45); fill-opacity:1.000; stroke:none;" />
</svg>
