<?xml version="1.0" encoding="UTF-8" standalone="no"?>
<!DOCTYPE svg PUBLIC "-//W3C//DTD SVG 1.1//EN" 
  "http://www.w3.org/Graphics/SVG/1.1/DTD/svg11.dtd">
<svg width="64" height="64"
	 xmlns="http://www.w3.org/2000/svg" version="1.1">
 <path d="  M 0,0  L 0,4  L 1,4  L 1,1  L 6,1  L 6,0  Z  " style="fill:rgb(158, 139, 97); fill-opacity:1.000; stroke:none;" />
 <path d="  M 1,6  L 0,6  L 0,8  L 1,8  Z  " style="fill:rgb(158, 139, 97); fill-opacity:1.000; stroke:none;" />
 <path d="  M 0,20  L 1,20  L 1,18  L 0,18  Z  " style="fill:rgb(158, 139, 97); fill-opacity:1.000; stroke:none;" />
 <path d="  M 0,22  L 0,24  L 1,24  L 1,22  Z  " style="fill:rgb(158, 139, 97); fill-opacity:1.000; stroke:none;" />
 <path d="  M 1,28  L 0,28  L 0,36  L 1,36  Z  " style="fill:rgb(158, 139, 97); fill-opacity:1.000; stroke:none;" />
 <path d="  M 0,42  L 0,44  L 1,44  L 1,42  Z  " style="fill:rgb(158, 139, 97); fill-opacity:1.000; stroke:none;" />
 <path d="  M 1,56  L 1,54  L 0,54  L 0,56  Z  " style="fill:rgb(158, 139, 97); fill-opacity:1.000; stroke:none;" />
 <path d="  M 0,64  L 4,64  L 4,63  L 1,63  L 1,58  L 0,58  Z  " style="fill:rgb(158, 139, 97); fill-opacity:1.000; stroke:none;" />
 <path d="  M 10,64  L 10,63  L 8,63  L 8,64  Z  " style="fill:rgb(158, 139, 97); fill-opacity:1.000; stroke:none;" />
 <path d="  M 13,10  L 13,11  L 14,11  L 14,10  Z  " style="fill:rgb(158, 139, 97); fill-opacity:1.000; stroke:none;" />
 <path d="  M 14,0  L 14,1  L 16,1  L 16,0  Z  " style="fill:rgb(158, 139, 97); fill-opacity:1.000; stroke:none;" />
 <path d="  M 24,1  L 24,0  L 18,0  L 18,1  Z  " style="fill:rgb(158, 139, 97); fill-opacity:1.000; stroke:none;" />
 <path d="  M 30,63  L 18,63  L 18,64  L 30,64  Z  " style="fill:rgb(158, 139, 97); fill-opacity:1.000; stroke:none;" />
 <path d="  M 19,10  L 19,11  L 22,11  L 22,10  Z  " style="fill:rgb(158, 139, 97); fill-opacity:1.000; stroke:none;" />
 <path d="  M 21,53  L 21,54  L 22,54  L 22,53  Z  " style="fill:rgb(158, 139, 97); fill-opacity:1.000; stroke:none;" />
 <path d="  M 24,10  L 24,11  L 30,11  L 30,10  Z  " style="fill:rgb(158, 139, 97); fill-opacity:1.000; stroke:none;" />
 <path d="  M 26,0  L 26,1  L 28,1  L 28,0  Z  " style="fill:rgb(158, 139, 97); fill-opacity:1.000; stroke:none;" />
 <path d="  M 32,10  L 32,11  L 38,11  L 38,10  Z  " style="fill:rgb(158, 139, 97); fill-opacity:1.000; stroke:none;" />
 <path d="  M 38,63  L 34,63  L 34,64  L 38,64  Z  " style="fill:rgb(158, 139, 97); fill-opacity:1.000; stroke:none;" />
 <path d="  M 44,1  L 44,0  L 38,0  L 38,1  Z  " style="fill:rgb(158, 139, 97); fill-opacity:1.000; stroke:none;" />
 <path d="  M 46,10  L 46,11  L 48,11  L 48,10  Z  " style="fill:rgb(158, 139, 97); fill-opacity:1.000; stroke:none;" />
 <path d="  M 50,1  L 50,0  L 48,0  L 48,1  Z  " style="fill:rgb(158, 139, 97); fill-opacity:1.000; stroke:none;" />
 <path d="  M 48,63  L 48,64  L 50,64  L 50,63  Z  " style="fill:rgb(158, 139, 97); fill-opacity:1.000; stroke:none;" />
 <path d="  M 53,11  L 53,14  L 54,14  L 54,10  L 50,10  L 50,11  Z  " style="fill:rgb(158, 139, 97); fill-opacity:1.000; stroke:none;" />
 <path d="  M 60,63  L 52,63  L 52,64  L 60,64  Z  " style="fill:rgb(158, 139, 97); fill-opacity:1.000; stroke:none;" />
 <path d="  M 53,20  L 53,26  L 54,26  L 54,20  Z  " style="fill:rgb(158, 139, 97); fill-opacity:1.000; stroke:none;" />
 <path d="  M 53,30  L 54,30  L 54,28  L 53,28  Z  " style="fill:rgb(158, 139, 97); fill-opacity:1.000; stroke:none;" />
 <path d="  M 54,34  L 53,34  L 53,40  L 54,40  Z  " style="fill:rgb(158, 139, 97); fill-opacity:1.000; stroke:none;" />
 <path d="  M 53,53  L 54,53  L 54,50  L 53,50  Z  " style="fill:rgb(158, 139, 97); fill-opacity:1.000; stroke:none;" />
 <path d="  M 56,0  L 56,1  L 58,1  L 58,0  Z  " style="fill:rgb(158, 139, 97); fill-opacity:1.000; stroke:none;" />
 <path d="  M 64,0  L 60,0  L 60,1  L 63,1  L 63,2  L 64,2  Z  " style="fill:rgb(158, 139, 97); fill-opacity:1.000; stroke:none;" />
 <path d="  M 63,6  L 64,6  L 64,4  L 63,4  Z  " style="fill:rgb(158, 139, 97); fill-opacity:1.000; stroke:none;" />
 <path d="  M 63,12  L 64,12  L 64,10  L 63,10  Z  " style="fill:rgb(158, 139, 97); fill-opacity:1.000; stroke:none;" />
 <path d="  M 63,20  L 63,24  L 64,24  L 64,20  Z  " style="fill:rgb(158, 139, 97); fill-opacity:1.000; stroke:none;" />
 <path d="  M 64,28  L 64,26  L 63,26  L 63,28  Z  " style="fill:rgb(158, 139, 97); fill-opacity:1.000; stroke:none;" />
 <path d="  M 63,32  L 63,38  L 64,38  L 64,32  Z  " style="fill:rgb(158, 139, 97); fill-opacity:1.000; stroke:none;" />
 <path d="  M 64,40  L 63,40  L 63,52  L 64,52  Z  " style="fill:rgb(158, 139, 97); fill-opacity:1.000; stroke:none;" />
 <path d="  M 63,56  L 63,58  L 64,58  L 64,56  Z  " style="fill:rgb(158, 139, 97); fill-opacity:1.000; stroke:none;" />
 <path d="  M 64,62  L 64,60  L 63,60  L 63,62  Z  " style="fill:rgb(158, 139, 97); fill-opacity:1.000; stroke:none;" />
 <path d="  M 0,6  L 1,6  L 1,4  L 0,4  Z  " style="fill:rgb(165, 148, 103); fill-opacity:1.000; stroke:none;" />
 <path d="  M 0,18  L 1,18  L 1,8  L 0,8  Z  " style="fill:rgb(165, 148, 103); fill-opacity:1.000; stroke:none;" />
 <path d="  M 1,20  L 0,20  L 0,22  L 1,22  Z  " style="fill:rgb(165, 148, 103); fill-opacity:1.000; stroke:none;" />
 <path d="  M 1,24  L 0,24  L 0,28  L 1,28  Z  " style="fill:rgb(165, 148, 103); fill-opacity:1.000; stroke:none;" />
 <path d="  M 0,42  L 1,42  L 1,36  L 0,36  Z  " style="fill:rgb(165, 148, 103); fill-opacity:1.000; stroke:none;" />
 <path d="  M 0,54  L 1,54  L 1,44  L 0,44  Z  " style="fill:rgb(165, 148, 103); fill-opacity:1.000; stroke:none;" />
 <path d="  M 0,58  L 1,58  L 1,56  L 0,56  Z  " style="fill:rgb(165, 148, 103); fill-opacity:1.000; stroke:none;" />
 <path d="  M 8,64  L 8,63  L 4,63  L 4,64  Z  " style="fill:rgb(165, 148, 103); fill-opacity:1.000; stroke:none;" />
 <path d="  M 6,1  L 14,1  L 14,0  L 6,0  Z  " style="fill:rgb(165, 148, 103); fill-opacity:1.000; stroke:none;" />
 <path d="  M 18,64  L 18,63  L 10,63  L 10,64  Z  " style="fill:rgb(165, 148, 103); fill-opacity:1.000; stroke:none;" />
 <path d="  M 11,11  L 13,11  L 13,10  L 11,10  Z  " style="fill:rgb(165, 148, 103); fill-opacity:1.000; stroke:none;" />
 <path d="  M 14,10  L 14,11  L 19,11  L 19,10  Z  " style="fill:rgb(165, 148, 103); fill-opacity:1.000; stroke:none;" />
 <path d="  M 18,1  L 18,0  L 16,0  L 16,1  Z  " style="fill:rgb(165, 148, 103); fill-opacity:1.000; stroke:none;" />
 <path d="  M 21,53  L 22,53  L 22,50  L 21,50  Z  " style="fill:rgb(165, 148, 103); fill-opacity:1.000; stroke:none;" />
 <path d="  M 24,11  L 24,10  L 22,10  L 22,11  Z  " style="fill:rgb(165, 148, 103); fill-opacity:1.000; stroke:none;" />
 <path d="  M 26,1  L 26,0  L 24,0  L 24,1  Z  " style="fill:rgb(165, 148, 103); fill-opacity:1.000; stroke:none;" />
 <path d="  M 38,1  L 38,0  L 28,0  L 28,1  Z  " style="fill:rgb(165, 148, 103); fill-opacity:1.000; stroke:none;" />
 <path d="  M 32,11  L 32,10  L 30,10  L 30,11  Z  " style="fill:rgb(165, 148, 103); fill-opacity:1.000; stroke:none;" />
 <path d="  M 30,64  L 34,64  L 34,63  L 30,63  Z  " style="fill:rgb(165, 148, 103); fill-opacity:1.000; stroke:none;" />
 <path d="  M 38,11  L 46,11  L 46,10  L 38,10  Z  " style="fill:rgb(165, 148, 103); fill-opacity:1.000; stroke:none;" />
 <path d="  M 48,64  L 48,63  L 38,63  L 38,64  Z  " style="fill:rgb(165, 148, 103); fill-opacity:1.000; stroke:none;" />
 <path d="  M 48,1  L 48,0  L 44,0  L 44,1  Z  " style="fill:rgb(165, 148, 103); fill-opacity:1.000; stroke:none;" />
 <path d="  M 48,11  L 50,11  L 50,10  L 48,10  Z  " style="fill:rgb(165, 148, 103); fill-opacity:1.000; stroke:none;" />
 <path d="  M 56,1  L 56,0  L 50,0  L 50,1  Z  " style="fill:rgb(165, 148, 103); fill-opacity:1.000; stroke:none;" />
 <path d="  M 52,64  L 52,63  L 50,63  L 50,64  Z  " style="fill:rgb(165, 148, 103); fill-opacity:1.000; stroke:none;" />
 <path d="  M 53,20  L 54,20  L 54,14  L 53,14  Z  " style="fill:rgb(165, 148, 103); fill-opacity:1.000; stroke:none;" />
 <path d="  M 53,28  L 54,28  L 54,26  L 53,26  Z  " style="fill:rgb(165, 148, 103); fill-opacity:1.000; stroke:none;" />
 <path d="  M 53,30  L 53,34  L 54,34  L 54,30  Z  " style="fill:rgb(165, 148, 103); fill-opacity:1.000; stroke:none;" />
 <path d="  M 53,50  L 54,50  L 54,40  L 53,40  Z  " style="fill:rgb(165, 148, 103); fill-opacity:1.000; stroke:none;" />
 <path d="  M 60,1  L 60,0  L 58,0  L 58,1  Z  " style="fill:rgb(165, 148, 103); fill-opacity:1.000; stroke:none;" />
 <path d="  M 64,64  L 64,62  L 63,62  L 63,63  L 60,63  L 60,64  Z  " style="fill:rgb(165, 148, 103); fill-opacity:1.000; stroke:none;" />
 <path d="  M 63,4  L 64,4  L 64,2  L 63,2  Z  " style="fill:rgb(165, 148, 103); fill-opacity:1.000; stroke:none;" />
 <path d="  M 63,6  L 63,10  L 64,10  L 64,6  Z  " style="fill:rgb(165, 148, 103); fill-opacity:1.000; stroke:none;" />
 <path d="  M 64,12  L 63,12  L 63,20  L 64,20  Z  " style="fill:rgb(165, 148, 103); fill-opacity:1.000; stroke:none;" />
 <path d="  M 63,26  L 64,26  L 64,24  L 63,24  Z  " style="fill:rgb(165, 148, 103); fill-opacity:1.000; stroke:none;" />
 <path d="  M 64,28  L 63,28  L 63,32  L 64,32  Z  " style="fill:rgb(165, 148, 103); fill-opacity:1.000; stroke:none;" />
 <path d="  M 63,40  L 64,40  L 64,38  L 63,38  Z  " style="fill:rgb(165, 148, 103); fill-opacity:1.000; stroke:none;" />
 <path d="  M 64,52  L 63,52  L 63,56  L 64,56  Z  " style="fill:rgb(165, 148, 103); fill-opacity:1.000; stroke:none;" />
 <path d="  M 64,60  L 64,58  L 63,58  L 63,60  Z  " style="fill:rgb(165, 148, 103); fill-opacity:1.000; stroke:none;" />
 <path d="  M 8,2  L 8,1  L 1,1  L 1,3  L 2,3  L 2,2  Z  " style="fill:rgb(193, 170, 120); fill-opacity:1.000; stroke:none;" />
 <path d="  M 2,6  L 1,6  L 1,10  L 2,10  Z  " style="fill:rgb(193, 170, 120); fill-opacity:1.000; stroke:none;" />
 <path d="  M 1,11  L 1,15  L 2,15  L 2,11  Z  " style="fill:rgb(193, 170, 120); fill-opacity:1.000; stroke:none;" />
 <path d="  M 2,18  L 1,18  L 1,21  L 2,21  Z  " style="fill:rgb(193, 170, 120); fill-opacity:1.000; stroke:none;" />
 <path d="  M 2,24  L 2,22  L 1,22  L 1,24  Z  " style="fill:rgb(193, 170, 120); fill-opacity:1.000; stroke:none;" />
 <path d="  M 2,25  L 1,25  L 1,26  L 2,26  Z  " style="fill:rgb(193, 170, 120); fill-opacity:1.000; stroke:none;" />
 <path d="  M 2,27  L 1,27  L 1,36  L 2,36  Z  " style="fill:rgb(193, 170, 120); fill-opacity:1.000; stroke:none;" />
 <path d="  M 2,39  L 1,39  L 1,40  L 2,40  Z  " style="fill:rgb(193, 170, 120); fill-opacity:1.000; stroke:none;" />
 <path d="  M 1,46  L 2,46  L 2,41  L 1,41  Z  " style="fill:rgb(193, 170, 120); fill-opacity:1.000; stroke:none;" />
 <path d="  M 2,49  L 2,47  L 1,47  L 1,49  Z  " style="fill:rgb(193, 170, 120); fill-opacity:1.000; stroke:none;" />
 <path d="  M 1,56  L 2,56  L 2,50  L 1,50  Z  " style="fill:rgb(193, 170, 120); fill-opacity:1.000; stroke:none;" />
 <path d="  M 2,57  L 1,57  L 1,63  L 4,63  L 4,62  L 2,62  Z  " style="fill:rgb(193, 170, 120); fill-opacity:1.000; stroke:none;" />
 <path d="  M 7,62  L 7,63  L 10,63  L 10,62  Z  " style="fill:rgb(193, 170, 120); fill-opacity:1.000; stroke:none;" />
 <path d="  M 10,10  L 10,11  L 11,11  L 11,10  Z  " style="fill:rgb(193, 170, 120); fill-opacity:1.000; stroke:none;" />
 <path d="  M 11,11  L 11,12  L 17,12  L 17,11  Z  " style="fill:rgb(193, 170, 120); fill-opacity:1.000; stroke:none;" />
 <path d="  M 11,62  L 11,63  L 14,63  L 14,62  Z  " style="fill:rgb(193, 170, 120); fill-opacity:1.000; stroke:none;" />
 <path d="  M 12,1  L 12,2  L 13,2  L 13,1  Z  " style="fill:rgb(193, 170, 120); fill-opacity:1.000; stroke:none;" />
 <path d="  M 14,1  L 14,2  L 17,2  L 17,1  Z  " style="fill:rgb(193, 170, 120); fill-opacity:1.000; stroke:none;" />
 <path d="  M 30,63  L 30,62  L 16,62  L 16,63  Z  " style="fill:rgb(193, 170, 120); fill-opacity:1.000; stroke:none;" />
 <path d="  M 25,2  L 25,1  L 18,1  L 18,2  Z  " style="fill:rgb(193, 170, 120); fill-opacity:1.000; stroke:none;" />
 <path d="  M 22,12  L 22,11  L 20,11  L 20,12  Z  " style="fill:rgb(193, 170, 120); fill-opacity:1.000; stroke:none;" />
 <path d="  M 23,11  L 23,12  L 27,12  L 27,11  Z  " style="fill:rgb(193, 170, 120); fill-opacity:1.000; stroke:none;" />
 <path d="  M 26,2  L 28,2  L 28,1  L 26,1  Z  " style="fill:rgb(193, 170, 120); fill-opacity:1.000; stroke:none;" />
 <path d="  M 29,1  L 29,2  L 31,2  L 31,1  Z  " style="fill:rgb(193, 170, 120); fill-opacity:1.000; stroke:none;" />
 <path d="  M 31,62  L 31,63  L 38,63  L 38,62  Z  " style="fill:rgb(193, 170, 120); fill-opacity:1.000; stroke:none;" />
 <path d="  M 36,2  L 36,1  L 33,1  L 33,2  Z  " style="fill:rgb(193, 170, 120); fill-opacity:1.000; stroke:none;" />
 <path d="  M 38,12  L 38,11  L 34,11  L 34,12  Z  " style="fill:rgb(193, 170, 120); fill-opacity:1.000; stroke:none;" />
 <path d="  M 46,2  L 46,1  L 37,1  L 37,2  Z  " style="fill:rgb(193, 170, 120); fill-opacity:1.000; stroke:none;" />
 <path d="  M 41,12  L 41,11  L 39,11  L 39,12  Z  " style="fill:rgb(193, 170, 120); fill-opacity:1.000; stroke:none;" />
 <path d="  M 45,63  L 45,62  L 40,62  L 40,63  Z  " style="fill:rgb(193, 170, 120); fill-opacity:1.000; stroke:none;" />
 <path d="  M 45,12  L 45,11  L 44,11  L 44,12  Z  " style="fill:rgb(193, 170, 120); fill-opacity:1.000; stroke:none;" />
 <path d="  M 49,12  L 49,11  L 47,11  L 47,12  Z  " style="fill:rgb(193, 170, 120); fill-opacity:1.000; stroke:none;" />
 <path d="  M 47,62  L 47,63  L 50,63  L 50,62  Z  " style="fill:rgb(193, 170, 120); fill-opacity:1.000; stroke:none;" />
 <path d="  M 48,1  L 48,2  L 51,2  L 51,1  Z  " style="fill:rgb(193, 170, 120); fill-opacity:1.000; stroke:none;" />
 <path d="  M 50,11  L 50,12  L 52,12  L 52,13  L 53,13  L 53,11  Z  " style="fill:rgb(193, 170, 120); fill-opacity:1.000; stroke:none;" />
 <path d="  M 51,62  L 51,63  L 62,63  L 62,62  Z  " style="fill:rgb(193, 170, 120); fill-opacity:1.000; stroke:none;" />
 <path d="  M 52,1  L 52,2  L 53,2  L 53,1  Z  " style="fill:rgb(193, 170, 120); fill-opacity:1.000; stroke:none;" />
 <path d="  M 53,15  L 52,15  L 52,19  L 53,19  Z  " style="fill:rgb(193, 170, 120); fill-opacity:1.000; stroke:none;" />
 <path d="  M 53,20  L 52,20  L 52,27  L 53,27  Z  " style="fill:rgb(193, 170, 120); fill-opacity:1.000; stroke:none;" />
 <path d="  M 53,30  L 53,29  L 52,29  L 52,30  Z  " style="fill:rgb(193, 170, 120); fill-opacity:1.000; stroke:none;" />
 <path d="  M 53,33  L 52,33  L 52,41  L 53,41  Z  " style="fill:rgb(193, 170, 120); fill-opacity:1.000; stroke:none;" />
 <path d="  M 52,44  L 52,46  L 53,46  L 53,44  Z  " style="fill:rgb(193, 170, 120); fill-opacity:1.000; stroke:none;" />
 <path d="  M 52,53  L 53,53  L 53,49  L 52,49  Z  " style="fill:rgb(193, 170, 120); fill-opacity:1.000; stroke:none;" />
 <path d="  M 53,54  L 54,54  L 54,53  L 53,53  Z  " style="fill:rgb(193, 170, 120); fill-opacity:1.000; stroke:none;" />
 <path d="  M 56,1  L 56,2  L 58,2  L 58,1  Z  " style="fill:rgb(193, 170, 120); fill-opacity:1.000; stroke:none;" />
 <path d="  M 59,1  L 59,2  L 62,2  L 62,3  L 63,3  L 63,1  Z  " style="fill:rgb(193, 170, 120); fill-opacity:1.000; stroke:none;" />
 <path d="  M 63,4  L 62,4  L 62,6  L 63,6  Z  " style="fill:rgb(193, 170, 120); fill-opacity:1.000; stroke:none;" />
 <path d="  M 62,12  L 63,12  L 63,7  L 62,7  Z  " style="fill:rgb(193, 170, 120); fill-opacity:1.000; stroke:none;" />
 <path d="  M 63,14  L 62,14  L 62,15  L 63,15  Z  " style="fill:rgb(193, 170, 120); fill-opacity:1.000; stroke:none;" />
 <path d="  M 63,20  L 62,20  L 62,25  L 63,25  Z  " style="fill:rgb(193, 170, 120); fill-opacity:1.000; stroke:none;" />
 <path d="  M 63,26  L 62,26  L 62,28  L 63,28  Z  " style="fill:rgb(193, 170, 120); fill-opacity:1.000; stroke:none;" />
 <path d="  M 62,39  L 63,39  L 63,30  L 62,30  Z  " style="fill:rgb(193, 170, 120); fill-opacity:1.000; stroke:none;" />
 <path d="  M 62,54  L 63,54  L 63,40  L 62,40  Z  " style="fill:rgb(193, 170, 120); fill-opacity:1.000; stroke:none;" />
 <path d="  M 63,58  L 63,56  L 62,56  L 62,58  Z  " style="fill:rgb(193, 170, 120); fill-opacity:1.000; stroke:none;" />
 <path d="  M 63,59  L 62,59  L 62,62  L 63,62  Z  " style="fill:rgb(193, 170, 120); fill-opacity:1.000; stroke:none;" />
 <path d="  M 2,3  L 1,3  L 1,6  L 2,6  Z  " style="fill:rgb(201, 180, 126); fill-opacity:1.000; stroke:none;" />
 <path d="  M 1,11  L 2,11  L 2,10  L 1,10  Z  " style="fill:rgb(201, 180, 126); fill-opacity:1.000; stroke:none;" />
 <path d="  M 2,15  L 1,15  L 1,18  L 2,18  Z  " style="fill:rgb(201, 180, 126); fill-opacity:1.000; stroke:none;" />
 <path d="  M 1,21  L 1,22  L 2,22  L 2,21  Z  " style="fill:rgb(201, 180, 126); fill-opacity:1.000; stroke:none;" />
 <path d="  M 2,24  L 1,24  L 1,25  L 2,25  Z  " style="fill:rgb(201, 180, 126); fill-opacity:1.000; stroke:none;" />
 <path d="  M 1,26  L 1,27  L 2,27  L 2,26  Z  " style="fill:rgb(201, 180, 126); fill-opacity:1.000; stroke:none;" />
 <path d="  M 2,36  L 1,36  L 1,39  L 2,39  Z  " style="fill:rgb(201, 180, 126); fill-opacity:1.000; stroke:none;" />
 <path d="  M 2,41  L 2,40  L 1,40  L 1,41  Z  " style="fill:rgb(201, 180, 126); fill-opacity:1.000; stroke:none;" />
 <path d="  M 2,46  L 1,46  L 1,47  L 2,47  Z  " style="fill:rgb(201, 180, 126); fill-opacity:1.000; stroke:none;" />
 <path d="  M 1,50  L 2,50  L 2,49  L 1,49  Z  " style="fill:rgb(201, 180, 126); fill-opacity:1.000; stroke:none;" />
 <path d="  M 1,56  L 1,57  L 2,57  L 2,56  Z  " style="fill:rgb(201, 180, 126); fill-opacity:1.000; stroke:none;" />
 <path d="  M 7,63  L 7,62  L 4,62  L 4,63  Z  " style="fill:rgb(201, 180, 126); fill-opacity:1.000; stroke:none;" />
 <path d="  M 8,1  L 8,2  L 12,2  L 12,1  Z  " style="fill:rgb(201, 180, 126); fill-opacity:1.000; stroke:none;" />
 <path d="  M 10,62  L 10,63  L 11,63  L 11,62  Z  " style="fill:rgb(201, 180, 126); fill-opacity:1.000; stroke:none;" />
 <path d="  M 13,2  L 14,2  L 14,1  L 13,1  Z  " style="fill:rgb(201, 180, 126); fill-opacity:1.000; stroke:none;" />
 <path d="  M 14,62  L 14,63  L 16,63  L 16,62  Z  " style="fill:rgb(201, 180, 126); fill-opacity:1.000; stroke:none;" />
 <path d="  M 18,2  L 18,1  L 17,1  L 17,2  Z  " style="fill:rgb(201, 180, 126); fill-opacity:1.000; stroke:none;" />
 <path d="  M 20,12  L 20,11  L 17,11  L 17,12  Z  " style="fill:rgb(201, 180, 126); fill-opacity:1.000; stroke:none;" />
 <path d="  M 20,54  L 21,54  L 21,50  L 20,50  Z  " style="fill:rgb(201, 180, 126); fill-opacity:1.000; stroke:none;" />
 <path d="  M 22,12  L 23,12  L 23,11  L 22,11  Z  " style="fill:rgb(201, 180, 126); fill-opacity:1.000; stroke:none;" />
 <path d="  M 25,1  L 25,2  L 26,2  L 26,1  Z  " style="fill:rgb(201, 180, 126); fill-opacity:1.000; stroke:none;" />
 <path d="  M 34,12  L 34,11  L 27,11  L 27,12  Z  " style="fill:rgb(201, 180, 126); fill-opacity:1.000; stroke:none;" />
 <path d="  M 28,2  L 29,2  L 29,1  L 28,1  Z  " style="fill:rgb(201, 180, 126); fill-opacity:1.000; stroke:none;" />
 <path d="  M 31,63  L 31,62  L 30,62  L 30,63  Z  " style="fill:rgb(201, 180, 126); fill-opacity:1.000; stroke:none;" />
 <path d="  M 33,2  L 33,1  L 31,1  L 31,2  Z  " style="fill:rgb(201, 180, 126); fill-opacity:1.000; stroke:none;" />
 <path d="  M 37,1  L 36,1  L 36,2  L 37,2  Z  " style="fill:rgb(201, 180, 126); fill-opacity:1.000; stroke:none;" />
 <path d="  M 39,12  L 39,11  L 38,11  L 38,12  Z  " style="fill:rgb(201, 180, 126); fill-opacity:1.000; stroke:none;" />
 <path d="  M 38,63  L 40,63  L 40,62  L 38,62  Z  " style="fill:rgb(201, 180, 126); fill-opacity:1.000; stroke:none;" />
 <path d="  M 41,11  L 41,12  L 44,12  L 44,11  Z  " style="fill:rgb(201, 180, 126); fill-opacity:1.000; stroke:none;" />
 <path d="  M 47,12  L 47,11  L 45,11  L 45,12  Z  " style="fill:rgb(201, 180, 126); fill-opacity:1.000; stroke:none;" />
 <path d="  M 47,63  L 47,62  L 45,62  L 45,63  Z  " style="fill:rgb(201, 180, 126); fill-opacity:1.000; stroke:none;" />
 <path d="  M 46,1  L 46,2  L 48,2  L 48,1  Z  " style="fill:rgb(201, 180, 126); fill-opacity:1.000; stroke:none;" />
 <path d="  M 50,12  L 50,11  L 49,11  L 49,12  Z  " style="fill:rgb(201, 180, 126); fill-opacity:1.000; stroke:none;" />
 <path d="  M 51,63  L 51,62  L 50,62  L 50,63  Z  " style="fill:rgb(201, 180, 126); fill-opacity:1.000; stroke:none;" />
 <path d="  M 51,2  L 52,2  L 52,1  L 51,1  Z  " style="fill:rgb(201, 180, 126); fill-opacity:1.000; stroke:none;" />
 <path d="  M 53,13  L 52,13  L 52,15  L 53,15  Z  " style="fill:rgb(201, 180, 126); fill-opacity:1.000; stroke:none;" />
 <path d="  M 52,19  L 52,20  L 53,20  L 53,19  Z  " style="fill:rgb(201, 180, 126); fill-opacity:1.000; stroke:none;" />
 <path d="  M 52,29  L 53,29  L 53,27  L 52,27  Z  " style="fill:rgb(201, 180, 126); fill-opacity:1.000; stroke:none;" />
 <path d="  M 52,33  L 53,33  L 53,30  L 52,30  Z  " style="fill:rgb(201, 180, 126); fill-opacity:1.000; stroke:none;" />
 <path d="  M 52,44  L 53,44  L 53,41  L 52,41  Z  " style="fill:rgb(201, 180, 126); fill-opacity:1.000; stroke:none;" />
 <path d="  M 53,46  L 52,46  L 52,49  L 53,49  Z  " style="fill:rgb(201, 180, 126); fill-opacity:1.000; stroke:none;" />
 <path d="  M 53,1  L 53,2  L 56,2  L 56,1  Z  " style="fill:rgb(201, 180, 126); fill-opacity:1.000; stroke:none;" />
 <path d="  M 59,1  L 58,1  L 58,2  L 59,2  Z  " style="fill:rgb(201, 180, 126); fill-opacity:1.000; stroke:none;" />
 <path d="  M 62,4  L 63,4  L 63,3  L 62,3  Z  " style="fill:rgb(201, 180, 126); fill-opacity:1.000; stroke:none;" />
 <path d="  M 62,6  L 62,7  L 63,7  L 63,6  Z  " style="fill:rgb(201, 180, 126); fill-opacity:1.000; stroke:none;" />
 <path d="  M 62,14  L 63,14  L 63,12  L 62,12  Z  " style="fill:rgb(201, 180, 126); fill-opacity:1.000; stroke:none;" />
 <path d="  M 63,20  L 63,15  L 62,15  L 62,20  Z  " style="fill:rgb(201, 180, 126); fill-opacity:1.000; stroke:none;" />
 <path d="  M 62,25  L 62,26  L 63,26  L 63,25  Z  " style="fill:rgb(201, 180, 126); fill-opacity:1.000; stroke:none;" />
 <path d="  M 62,30  L 63,30  L 63,28  L 62,28  Z  " style="fill:rgb(201, 180, 126); fill-opacity:1.000; stroke:none;" />
 <path d="  M 62,40  L 63,40  L 63,39  L 62,39  Z  " style="fill:rgb(201, 180, 126); fill-opacity:1.000; stroke:none;" />
 <path d="  M 63,56  L 63,54  L 62,54  L 62,56  Z  " style="fill:rgb(201, 180, 126); fill-opacity:1.000; stroke:none;" />
 <path d="  M 62,58  L 62,59  L 63,59  L 63,58  Z  " style="fill:rgb(201, 180, 126); fill-opacity:1.000; stroke:none;" />
 <path d="  M 63,63  L 63,62  L 62,62  L 62,63  Z  " style="fill:rgb(201, 180, 126); fill-opacity:1.000; stroke:none;" />
 <path d="  M 2,4  L 3,4  L 3,3  L 4,3  L 4,2  L 2,2  Z  " style="fill:rgb(215, 193, 133); fill-opacity:1.000; stroke:none;" />
 <path d="  M 4,9  L 3,9  L 3,7  L 2,7  L 2,10  L 3,10  L 3,12  L 4,12  L 4,10  L 5,10  L 5,8  L 4,8  Z  " style="fill:rgb(215, 193, 133); fill-opacity:1.000; stroke:none;" />
 <path d="  M 3,12  L 2,12  L 2,15  L 3,15  Z  " style="fill:rgb(215, 193, 133); fill-opacity:1.000; stroke:none;" />
 <path d="  M 2,26  L 3,26  L 3,23  L 4,23  L 4,22  L 5,22  L 5,21  L 4,21  L 4,18  L 3,18  L 3,22  L 2,22  Z  " style="fill:rgb(215, 193, 133); fill-opacity:1.000; stroke:none;" />
 <path d="  M 3,29  L 2,29  L 2,30  L 3,30  Z  " style="fill:rgb(215, 193, 133); fill-opacity:1.000; stroke:none;" />
 <path d="  M 3,32  L 4,32  L 4,30  L 3,30  L 3,31  L 2,31  L 2,34  L 3,34  Z  " style="fill:rgb(215, 193, 133); fill-opacity:1.000; stroke:none;" />
 <path d="  M 4,40  L 4,38  L 3,38  L 3,36  L 2,36  L 2,40  L 3,40  L 3,42  L 4,42  L 4,41  L 5,41  L 5,40  Z  " style="fill:rgb(215, 193, 133); fill-opacity:1.000; stroke:none;" />
 <path d="  M 4,45  L 3,45  L 3,44  L 2,44  L 2,46  L 3,46  L 3,48  L 4,48  Z  " style="fill:rgb(215, 193, 133); fill-opacity:1.000; stroke:none;" />
 <path d="  M 3,48  L 2,48  L 2,50  L 3,50  Z  " style="fill:rgb(215, 193, 133); fill-opacity:1.000; stroke:none;" />
 <path d="  M 3,57  L 3,55  L 2,55  L 2,58  L 3,58  L 3,59  L 4,59  L 4,58  L 5,58  L 5,57  L 6,57  L 6,56  L 5,56  L 5,55  L 4,55  L 4,57  Z  " style="fill:rgb(215, 193, 133); fill-opacity:1.000; stroke:none;" />
 <path d="  M 2,60  L 2,62  L 4,62  L 4,61  L 3,61  L 3,60  Z  " style="fill:rgb(215, 193, 133); fill-opacity:1.000; stroke:none;" />
 <path d="  M 15,5  L 15,4  L 13,4  L 13,5  L 11,5  L 11,6  L 9,6  L 9,5  L 10,5  L 10,4  L 7,4  L 7,5  L 5,5  L 5,4  L 3,4  L 3,6  L 4,6  L 4,7  L 5,7  L 5,8  L 6,8  L 6,10  L 5,10  L 5,12  L 6,12  L 6,14  L 7,14  L 7,12  L 8,12  L 8,11  L 7,11  L 7,9  L 8,9  L 8,8  L 10,8  L 10,7  L 12,7  L 12,6  L 14,6  L 14,5  Z  M 7,7  L 7,6  L 9,6  L 9,7  Z  " style="fill:rgb(215, 193, 133); fill-opacity:1.000; stroke:none;" />
 <path d="  M 9,17  L 10,17  L 10,15  L 9,15  L 9,13  L 8,13  L 8,14  L 7,14  L 7,16  L 8,16  L 8,19  L 7,19  L 7,18  L 6,18  L 6,14  L 5,14  L 5,13  L 4,13  L 4,18  L 5,18  L 5,20  L 6,20  L 6,22  L 5,22  L 5,24  L 4,24  L 4,26  L 3,26  L 3,28  L 4,28  L 4,30  L 5,30  L 5,28  L 6,28  L 6,27  L 5,27  L 5,25  L 6,25  L 6,23  L 7,23  L 7,20  L 8,20  L 8,22  L 9,22  Z  " style="fill:rgb(215, 193, 133); fill-opacity:1.000; stroke:none;" />
 <path d="  M 4,52  L 3,52  L 3,55  L 4,55  Z  " style="fill:rgb(215, 193, 133); fill-opacity:1.000; stroke:none;" />
 <path d="  M 6,35  L 6,34  L 5,34  L 5,33  L 4,33  L 4,38  L 5,38  L 5,40  L 6,40  L 6,37  L 5,37  L 5,35  Z  " style="fill:rgb(215, 193, 133); fill-opacity:1.000; stroke:none;" />
 <path d="  M 4,45  L 5,45  L 5,42  L 4,42  Z  " style="fill:rgb(215, 193, 133); fill-opacity:1.000; stroke:none;" />
 <path d="  M 4,52  L 5,52  L 5,54  L 6,54  L 6,50  L 5,50  L 5,48  L 4,48  Z  " style="fill:rgb(215, 193, 133); fill-opacity:1.000; stroke:none;" />
 <path d="  M 6,61  L 6,60  L 4,60  L 4,61  L 5,61  L 5,62  L 8,62  L 8,61  Z  " style="fill:rgb(215, 193, 133); fill-opacity:1.000; stroke:none;" />
 <path d="  M 5,3  L 5,4  L 6,4  L 6,3  Z  " style="fill:rgb(215, 193, 133); fill-opacity:1.000; stroke:none;" />
 <path d="  M 8,38  L 7,38  L 7,40  L 6,40  L 6,42  L 7,42  L 7,44  L 6,44  L 6,46  L 5,46  L 5,47  L 6,47  L 6,49  L 7,49  L 7,52  L 8,52  L 8,50  L 9,50  L 9,48  L 10,48  L 10,46  L 9,46  L 9,44  L 8,44  Z  M 9,47  L 8,47  L 8,46  L 9,46  Z  " style="fill:rgb(215, 193, 133); fill-opacity:1.000; stroke:none;" />
 <path d="  M 6,59  L 6,58  L 5,58  L 5,59  Z  " style="fill:rgb(215, 193, 133); fill-opacity:1.000; stroke:none;" />
 <path d="  M 9,2  L 6,2  L 6,3  L 9,3  Z  " style="fill:rgb(215, 193, 133); fill-opacity:1.000; stroke:none;" />
 <path d="  M 7,29  L 6,29  L 6,33  L 7,33  L 7,30  L 8,30  L 8,23  L 7,23  L 7,26  L 6,26  L 6,27  L 7,27  Z  " style="fill:rgb(215, 193, 133); fill-opacity:1.000; stroke:none;" />
 <path d="  M 7,35  L 6,35  L 6,37  L 7,37  Z  " style="fill:rgb(215, 193, 133); fill-opacity:1.000; stroke:none;" />
 <path d="  M 9,51  L 9,52  L 8,52  L 8,55  L 7,55  L 7,54  L 6,54  L 6,56  L 11,56  L 11,55  L 9,55  L 9,54  L 10,54  L 10,51  Z  " style="fill:rgb(215, 193, 133); fill-opacity:1.000; stroke:none;" />
 <path d="  M 8,59  L 6,59  L 6,60  L 9,60  L 9,61  L 11,61  L 11,60  L 12,60  L 12,59  L 14,59  L 14,58  L 10,58  L 10,57  L 7,57  L 7,58  L 8,58  Z  M 9,58  L 10,58  L 10,59  L 9,59  Z  " style="fill:rgb(215, 193, 133); fill-opacity:1.000; stroke:none;" />
 <path d="  M 12,9  L 13,9  L 13,8  L 17,8  L 17,9  L 20,9  L 20,8  L 18,8  L 18,7  L 16,7  L 16,6  L 14,6  L 14,7  L 12,7  L 12,8  L 11,8  L 11,9  L 8,9  L 8,11  L 9,11  L 9,12  L 10,12  L 10,10  L 12,10  Z  " style="fill:rgb(215, 193, 133); fill-opacity:1.000; stroke:none;" />
 <path d="  M 9,30  L 8,30  L 8,33  L 9,33  L 9,35  L 10,35  L 10,28  L 9,28  Z  " style="fill:rgb(215, 193, 133); fill-opacity:1.000; stroke:none;" />
 <path d="  M 8,38  L 9,38  L 9,41  L 10,41  L 10,37  L 9,37  L 9,35  L 8,35  Z  " style="fill:rgb(215, 193, 133); fill-opacity:1.000; stroke:none;" />
 <path d="  M 9,25  L 10,25  L 10,22  L 9,22  Z  " style="fill:rgb(215, 193, 133); fill-opacity:1.000; stroke:none;" />
 <path d="  M 10,3  L 10,4  L 12,4  L 12,3  Z  " style="fill:rgb(215, 193, 133); fill-opacity:1.000; stroke:none;" />
 <path d="  M 11,54  L 11,55  L 13,55  L 13,54  Z  " style="fill:rgb(215, 193, 133); fill-opacity:1.000; stroke:none;" />
 <path d="  M 21,56  L 21,57  L 19,57  L 19,56  Z  M 23,55  L 23,56  L 22,56  L 22,55  L 20,55  L 20,54  L 16,54  L 16,55  L 13,55  L 13,56  L 12,56  L 12,57  L 14,57  L 14,58  L 17,58  L 17,57  L 16,57  L 16,56  L 18,56  L 18,57  L 19,57  L 19,58  L 22,58  L 22,57  L 24,57  L 24,55  Z  " style="fill:rgb(215, 193, 133); fill-opacity:1.000; stroke:none;" />
 <path d="  M 15,61  L 15,60  L 12,60  L 12,61  Z  " style="fill:rgb(215, 193, 133); fill-opacity:1.000; stroke:none;" />
 <path d="  M 19,4  L 19,5  L 21,5  L 21,4  L 20,4  L 20,3  L 18,3  L 18,2  L 14,2  L 14,3  L 15,3  L 15,4  Z  " style="fill:rgb(215, 193, 133); fill-opacity:1.000; stroke:none;" />
 <path d="  M 15,9  L 15,10  L 17,10  L 17,9  Z  " style="fill:rgb(215, 193, 133); fill-opacity:1.000; stroke:none;" />
 <path d="  M 21,61  L 21,60  L 19,60  L 19,59  L 17,59  L 17,60  L 18,60  L 18,61  L 16,61  L 16,62  L 24,62  L 24,61  Z  " style="fill:rgb(215, 193, 133); fill-opacity:1.000; stroke:none;" />
 <path d="  M 29,6  L 29,5  L 33,5  L 33,6  L 35,6  L 35,5  L 34,5  L 34,4  L 30,4  L 30,3  L 28,3  L 28,4  L 27,4  L 27,5  L 25,5  L 25,4  L 26,4  L 26,3  L 25,3  L 25,2  L 23,2  L 23,3  L 24,3  L 24,4  L 22,4  L 22,5  L 23,5  L 23,6  L 20,6  L 20,7  L 22,7  L 22,8  L 26,8  L 26,9  L 24,9  L 24,10  L 35,10  L 35,9  L 33,9  L 33,8  L 35,8  L 35,7  L 32,7  L 32,8  L 30,8  L 30,9  L 28,9  L 28,8  L 29,8  L 29,7  L 31,7  L 31,6  Z  M 27,8  L 26,8  L 26,7  L 24,7  L 24,6  L 28,6  L 28,7  L 27,7  Z  " style="fill:rgb(215, 193, 133); fill-opacity:1.000; stroke:none;" />
 <path d="  M 22,50  L 22,51  L 25,51  L 25,50  Z  " style="fill:rgb(215, 193, 133); fill-opacity:1.000; stroke:none;" />
 <path d="  M 25,54  L 25,53  L 24,53  L 24,52  L 22,52  L 22,54  Z  " style="fill:rgb(215, 193, 133); fill-opacity:1.000; stroke:none;" />
 <path d="  M 24,60  L 24,61  L 28,61  L 28,60  L 26,60  L 26,59  L 24,59  L 24,58  L 23,58  L 23,59  L 22,59  L 22,60  Z  " style="fill:rgb(215, 193, 133); fill-opacity:1.000; stroke:none;" />
 <path d="  M 27,50  L 27,51  L 25,51  L 25,52  L 28,52  L 28,53  L 30,53  L 30,54  L 34,54  L 34,53  L 32,53  L 32,52  L 30,52  L 30,51  L 29,51  L 29,50  Z  " style="fill:rgb(215, 193, 133); fill-opacity:1.000; stroke:none;" />
 <path d="  M 28,2  L 26,2  L 26,3  L 28,3  Z  " style="fill:rgb(215, 193, 133); fill-opacity:1.000; stroke:none;" />
 <path d="  M 29,59  L 29,58  L 27,58  L 27,59  Z  " style="fill:rgb(215, 193, 133); fill-opacity:1.000; stroke:none;" />
 <path d="  M 34,59  L 34,60  L 36,60  L 36,59  L 37,59  L 37,58  L 31,58  L 31,59  L 29,59  L 29,60  L 32,60  L 32,59  Z  " style="fill:rgb(215, 193, 133); fill-opacity:1.000; stroke:none;" />
 <path d="  M 35,61  L 34,61  L 34,60  L 32,60  L 32,61  L 30,61  L 30,62  L 35,62  Z  " style="fill:rgb(215, 193, 133); fill-opacity:1.000; stroke:none;" />
 <path d="  M 37,52  L 37,51  L 35,51  L 35,50  L 31,50  L 31,51  L 32,51  L 32,52  L 33,52  L 33,51  L 34,51  L 34,52  Z  " style="fill:rgb(215, 193, 133); fill-opacity:1.000; stroke:none;" />
 <path d="  M 32,3  L 34,3  L 34,2  L 32,2  Z  " style="fill:rgb(215, 193, 133); fill-opacity:1.000; stroke:none;" />
 <path d="  M 39,3  L 41,3  L 41,4  L 39,4  Z  M 49,5  L 48,5  L 48,4  L 47,4  L 47,3  L 45,3  L 45,2  L 36,2  L 36,3  L 34,3  L 34,4  L 37,4  L 37,5  L 38,5  L 38,4  L 39,4  L 39,5  L 43,5  L 43,6  L 40,6  L 40,7  L 38,7  L 38,8  L 36,8  L 36,9  L 39,9  L 39,8  L 42,8  L 42,7  L 47,7  L 47,6  L 49,6  Z  M 43,4  L 45,4  L 45,5  L 43,5  Z  " style="fill:rgb(215, 193, 133); fill-opacity:1.000; stroke:none;" />
 <path d="  M 37,7  L 37,6  L 35,6  L 35,7  Z  " style="fill:rgb(215, 193, 133); fill-opacity:1.000; stroke:none;" />
 <path d="  M 43,58  L 43,59  L 41,59  L 41,60  L 39,60  L 39,59  L 38,59  L 38,60  L 36,60  L 36,61  L 37,61  L 37,62  L 38,62  L 38,61  L 42,61  L 42,60  L 45,60  L 45,59  L 47,59  L 47,58  L 48,58  L 48,57  L 46,57  L 46,56  L 49,56  L 49,55  L 47,55  L 47,54  L 46,54  L 46,55  L 44,55  L 44,56  L 42,56  L 42,57  L 45,57  L 45,58  Z  " style="fill:rgb(215, 193, 133); fill-opacity:1.000; stroke:none;" />
 <path d="  M 39,50  L 37,50  L 37,51  L 39,51  Z  " style="fill:rgb(215, 193, 133); fill-opacity:1.000; stroke:none;" />
 <path d="  M 40,56  L 41,56  L 41,55  L 44,55  L 44,54  L 42,54  L 42,53  L 40,53  L 40,52  L 38,52  L 38,53  L 37,53  L 37,54  L 40,54  Z  " style="fill:rgb(215, 193, 133); fill-opacity:1.000; stroke:none;" />
 <path d="  M 39,5  L 38,5  L 38,6  L 39,6  Z  " style="fill:rgb(215, 193, 133); fill-opacity:1.000; stroke:none;" />
 <path d="  M 39,10  L 41,10  L 41,9  L 39,9  Z  " style="fill:rgb(215, 193, 133); fill-opacity:1.000; stroke:none;" />
 <path d="  M 41,59  L 41,58  L 42,58  L 42,57  L 40,57  L 40,58  L 39,58  L 39,59  Z  " style="fill:rgb(215, 193, 133); fill-opacity:1.000; stroke:none;" />
 <path d="  M 42,52  L 42,51  L 40,51  L 40,52  Z  " style="fill:rgb(215, 193, 133); fill-opacity:1.000; stroke:none;" />
 <path d="  M 43,10  L 44,10  L 44,9  L 43,9  Z  " style="fill:rgb(215, 193, 133); fill-opacity:1.000; stroke:none;" />
 <path d="  M 50,6  L 49,6  L 49,7  L 47,7  L 47,8  L 44,8  L 44,9  L 46,9  L 46,10  L 48,10  L 48,9  L 49,9  L 49,8  L 52,8  L 52,7  L 51,7  L 51,6  L 52,6  L 52,5  L 50,5  Z  " style="fill:rgb(215, 193, 133); fill-opacity:1.000; stroke:none;" />
 <path d="  M 46,60  L 46,61  L 48,61  L 48,62  L 51,62  L 51,61  L 50,61  L 50,60  L 48,60  L 48,59  L 47,59  L 47,60  Z  " style="fill:rgb(215, 193, 133); fill-opacity:1.000; stroke:none;" />
 <path d="  M 47,3  L 49,3  L 49,4  L 52,4  L 52,5  L 55,5  L 55,4  L 53,4  L 53,3  L 52,3  L 52,2  L 47,2  Z  " style="fill:rgb(215, 193, 133); fill-opacity:1.000; stroke:none;" />
 <path d="  M 49,54  L 49,55  L 51,55  L 51,54  Z  " style="fill:rgb(215, 193, 133); fill-opacity:1.000; stroke:none;" />
 <path d="  M 49,58  L 49,59  L 50,59  L 50,60  L 53,60  L 53,59  L 52,59  L 52,58  Z  " style="fill:rgb(215, 193, 133); fill-opacity:1.000; stroke:none;" />
 <path d="  M 53,7  L 54,7  L 54,8  L 52,8  L 52,9  L 50,9  L 50,10  L 54,10  L 54,9  L 55,9  L 55,8  L 57,8  L 57,7  L 58,7  L 58,6  L 60,6  L 60,5  L 62,5  L 62,2  L 61,2  L 61,3  L 60,3  L 60,4  L 58,4  L 58,5  L 56,5  L 56,6  L 53,6  Z  " style="fill:rgb(215, 193, 133); fill-opacity:1.000; stroke:none;" />
 <path d="  M 52,57  L 52,56  L 53,56  L 53,55  L 51,55  L 51,56  L 50,56  L 50,57  Z  " style="fill:rgb(215, 193, 133); fill-opacity:1.000; stroke:none;" />
 <path d="  M 52,58  L 55,58  L 55,59  L 58,59  L 58,60  L 60,60  L 60,59  L 59,59  L 59,58  L 57,58  L 57,57  L 56,57  L 56,56  L 55,56  L 55,57  L 52,57  Z  " style="fill:rgb(215, 193, 133); fill-opacity:1.000; stroke:none;" />
 <path d="  M 53,60  L 53,61  L 55,61  L 55,62  L 56,62  L 56,61  L 57,61  L 57,60  Z  " style="fill:rgb(215, 193, 133); fill-opacity:1.000; stroke:none;" />
 <path d="  M 54,3  L 55,3  L 55,2  L 54,2  Z  " style="fill:rgb(215, 193, 133); fill-opacity:1.000; stroke:none;" />
 <path d="  M 55,24  L 56,24  L 56,26  L 57,26  L 57,23  L 56,23  L 56,20  L 55,20  L 55,18  L 54,18  L 54,22  L 55,22  Z  " style="fill:rgb(215, 193, 133); fill-opacity:1.000; stroke:none;" />
 <path d="  M 54,29  L 55,29  L 55,31  L 56,31  L 56,27  L 55,27  L 55,25  L 54,25  Z  " style="fill:rgb(215, 193, 133); fill-opacity:1.000; stroke:none;" />
 <path d="  M 57,39  L 58,39  L 58,35  L 59,35  L 59,32  L 60,32  L 60,29  L 61,29  L 61,27  L 62,27  L 62,24  L 61,24  L 61,25  L 60,25  L 60,27  L 59,27  L 59,30  L 58,30  L 58,28  L 57,28  L 57,32  L 56,32  L 56,34  L 55,34  L 55,31  L 54,31  L 54,36  L 55,36  L 55,35  L 56,35  L 56,37  L 57,37  Z  M 57,33  L 58,33  L 58,35  L 57,35  Z  " style="fill:rgb(215, 193, 133); fill-opacity:1.000; stroke:none;" />
 <path d="  M 56,37  L 55,37  L 55,38  L 54,38  L 54,40  L 55,40  L 55,42  L 56,42  L 56,44  L 57,44  L 57,42  L 58,42  L 58,41  L 57,41  L 57,39  L 56,39  Z  " style="fill:rgb(215, 193, 133); fill-opacity:1.000; stroke:none;" />
 <path d="  M 55,44  L 55,43  L 54,43  L 54,44  Z  " style="fill:rgb(215, 193, 133); fill-opacity:1.000; stroke:none;" />
 <path d="  M 55,46  L 54,46  L 54,48  L 55,48  L 55,50  L 56,50  L 56,44  L 55,44  Z  " style="fill:rgb(215, 193, 133); fill-opacity:1.000; stroke:none;" />
 <path d="  M 54,51  L 55,51  L 55,50  L 54,50  Z  " style="fill:rgb(215, 193, 133); fill-opacity:1.000; stroke:none;" />
 <path d="  M 56,55  L 56,56  L 58,56  L 58,55  L 60,55  L 60,54  L 59,54  L 59,53  L 57,53  L 57,54  L 55,54  L 55,53  L 54,53  L 54,55  Z  " style="fill:rgb(215, 193, 133); fill-opacity:1.000; stroke:none;" />
 <path d="  M 55,3  L 55,4  L 58,4  L 58,3  Z  " style="fill:rgb(215, 193, 133); fill-opacity:1.000; stroke:none;" />
 <path d="  M 59,8  L 57,8  L 57,9  L 56,9  L 56,10  L 55,10  L 55,14  L 56,14  L 56,12  L 57,12  L 57,10  L 58,10  L 58,9  L 59,9  Z  " style="fill:rgb(215, 193, 133); fill-opacity:1.000; stroke:none;" />
 <path d="  M 58,15  L 59,15  L 59,14  L 58,14  L 58,13  L 57,13  L 57,14  L 56,14  L 56,16  L 55,16  L 55,17  L 56,17  L 56,20  L 57,20  L 57,22  L 58,22  L 58,21  L 59,21  L 59,19  L 60,19  L 60,16  L 59,16  L 59,18  L 58,18  L 58,19  L 57,19  L 57,17  L 58,17  Z  " style="fill:rgb(215, 193, 133); fill-opacity:1.000; stroke:none;" />
 <path d="  M 60,51  L 60,52  L 61,52  L 61,51  L 62,51  L 62,50  L 61,50  L 61,47  L 60,47  L 60,49  L 59,49  L 59,46  L 60,46  L 60,42  L 61,42  L 61,40  L 62,40  L 62,38  L 61,38  L 61,39  L 60,39  L 60,37  L 59,37  L 59,40  L 58,40  L 58,41  L 59,41  L 59,43  L 58,43  L 58,44  L 57,44  L 57,45  L 58,45  L 58,47  L 57,47  L 57,49  L 58,49  L 58,51  L 57,51  L 57,50  L 56,50  L 56,53  L 57,53  L 57,52  L 59,52  L 59,51  Z  " style="fill:rgb(215, 193, 133); fill-opacity:1.000; stroke:none;" />
 <path d="  M 57,61  L 57,62  L 62,62  L 62,60  L 60,60  L 60,61  Z  " style="fill:rgb(215, 193, 133); fill-opacity:1.000; stroke:none;" />
 <path d="  M 60,12  L 59,12  L 59,11  L 58,11  L 58,13  L 59,13  L 59,14  L 60,14  Z  " style="fill:rgb(215, 193, 133); fill-opacity:1.000; stroke:none;" />
 <path d="  M 60,25  L 60,22  L 61,22  L 61,19  L 60,19  L 60,21  L 59,21  L 59,23  L 58,23  L 58,27  L 59,27  L 59,25  Z  " style="fill:rgb(215, 193, 133); fill-opacity:1.000; stroke:none;" />
 <path d="  M 62,57  L 62,54  L 61,54  L 61,55  L 60,55  L 60,56  L 58,56  L 58,57  L 59,57  L 59,58  L 61,58  L 61,57  Z  " style="fill:rgb(215, 193, 133); fill-opacity:1.000; stroke:none;" />
 <path d="  M 59,7  L 59,8  L 62,8  L 62,6  L 60,6  L 60,7  Z  " style="fill:rgb(215, 193, 133); fill-opacity:1.000; stroke:none;" />
 <path d="  M 62,9  L 59,9  L 59,10  L 60,10  L 60,12  L 61,12  L 61,13  L 62,13  Z  " style="fill:rgb(215, 193, 133); fill-opacity:1.000; stroke:none;" />
 <path d="  M 61,18  L 62,18  L 62,15  L 61,15  L 61,14  L 60,14  L 60,16  L 61,16  Z  " style="fill:rgb(215, 193, 133); fill-opacity:1.000; stroke:none;" />
 <path d="  M 60,32  L 60,37  L 61,37  L 61,34  L 62,34  L 62,30  L 61,30  L 61,32  Z  " style="fill:rgb(215, 193, 133); fill-opacity:1.000; stroke:none;" />
 <path d="  M 61,45  L 62,45  L 62,43  L 61,43  Z  " style="fill:rgb(215, 193, 133); fill-opacity:1.000; stroke:none;" />
 <path d="  M 61,58  L 61,59  L 62,59  L 62,58  Z  " style="fill:rgb(215, 193, 133); fill-opacity:1.000; stroke:none;" />
 <path d="  M 3,4  L 2,4  L 2,7  L 3,7  L 3,9  L 4,9  L 4,8  L 5,8  L 5,7  L 4,7  L 4,6  L 3,6  Z  " style="fill:rgb(215, 203, 141); fill-opacity:1.000; stroke:none;" />
 <path d="  M 2,12  L 3,12  L 3,10  L 2,10  Z  " style="fill:rgb(215, 203, 141); fill-opacity:1.000; stroke:none;" />
 <path d="  M 4,13  L 5,13  L 5,14  L 6,14  L 6,12  L 5,12  L 5,10  L 4,10  L 4,12  L 3,12  L 3,15  L 2,15  L 2,22  L 3,22  L 3,18  L 4,18  Z  " style="fill:rgb(215, 203, 141); fill-opacity:1.000; stroke:none;" />
 <path d="  M 2,29  L 3,29  L 3,30  L 4,30  L 4,28  L 3,28  L 3,26  L 2,26  Z  " style="fill:rgb(215, 203, 141); fill-opacity:1.000; stroke:none;" />
 <path d="  M 2,30  L 2,31  L 3,31  L 3,30  Z  " style="fill:rgb(215, 203, 141); fill-opacity:1.000; stroke:none;" />
 <path d="  M 7,35  L 7,37  L 6,37  L 6,40  L 7,40  L 7,38  L 8,38  L 8,35  L 9,35  L 9,33  L 8,33  L 8,30  L 7,30  L 7,33  L 6,33  L 6,29  L 7,29  L 7,27  L 6,27  L 6,28  L 5,28  L 5,30  L 4,30  L 4,32  L 3,32  L 3,34  L 2,34  L 2,36  L 3,36  L 3,38  L 4,38  L 4,33  L 5,33  L 5,34  L 6,34  L 6,35  Z  " style="fill:rgb(215, 203, 141); fill-opacity:1.000; stroke:none;" />
 <path d="  M 3,40  L 2,40  L 2,44  L 3,44  L 3,45  L 4,45  L 4,42  L 3,42  Z  " style="fill:rgb(215, 203, 141); fill-opacity:1.000; stroke:none;" />
 <path d="  M 3,48  L 3,46  L 2,46  L 2,48  Z  " style="fill:rgb(215, 203, 141); fill-opacity:1.000; stroke:none;" />
 <path d="  M 4,48  L 3,48  L 3,50  L 2,50  L 2,55  L 3,55  L 3,52  L 4,52  Z  " style="fill:rgb(215, 203, 141); fill-opacity:1.000; stroke:none;" />
 <path d="  M 4,59  L 3,59  L 3,58  L 2,58  L 2,60  L 3,60  L 3,61  L 4,61  L 4,60  L 6,60  L 6,59  L 5,59  L 5,58  L 4,58  Z  " style="fill:rgb(215, 203, 141); fill-opacity:1.000; stroke:none;" />
 <path d="  M 5,3  L 6,3  L 6,2  L 4,2  L 4,3  L 3,3  L 3,4  L 5,4  Z  " style="fill:rgb(215, 203, 141); fill-opacity:1.000; stroke:none;" />
 <path d="  M 4,24  L 5,24  L 5,22  L 4,22  L 4,23  L 3,23  L 3,26  L 4,26  Z  " style="fill:rgb(215, 203, 141); fill-opacity:1.000; stroke:none;" />
 <path d="  M 4,55  L 3,55  L 3,57  L 4,57  Z  " style="fill:rgb(215, 203, 141); fill-opacity:1.000; stroke:none;" />
 <path d="  M 4,18  L 4,21  L 5,21  L 5,22  L 6,22  L 6,20  L 5,20  L 5,18  Z  " style="fill:rgb(215, 203, 141); fill-opacity:1.000; stroke:none;" />
 <path d="  M 5,40  L 5,38  L 4,38  L 4,40  Z  " style="fill:rgb(215, 203, 141); fill-opacity:1.000; stroke:none;" />
 <path d="  M 4,41  L 4,42  L 5,42  L 5,45  L 4,45  L 4,48  L 5,48  L 5,50  L 6,50  L 6,54  L 7,54  L 7,55  L 8,55  L 8,52  L 7,52  L 7,49  L 6,49  L 6,47  L 5,47  L 5,46  L 6,46  L 6,44  L 7,44  L 7,42  L 6,42  L 6,40  L 5,40  L 5,41  Z  " style="fill:rgb(215, 203, 141); fill-opacity:1.000; stroke:none;" />
 <path d="  M 4,55  L 5,55  L 5,56  L 6,56  L 6,54  L 5,54  L 5,52  L 4,52  Z  " style="fill:rgb(215, 203, 141); fill-opacity:1.000; stroke:none;" />
 <path d="  M 4,62  L 5,62  L 5,61  L 4,61  Z  " style="fill:rgb(215, 203, 141); fill-opacity:1.000; stroke:none;" />
 <path d="  M 12,3  L 12,4  L 10,4  L 10,3  Z  M 9,6  L 11,6  L 11,5  L 13,5  L 13,4  L 15,4  L 15,3  L 14,3  L 14,2  L 9,2  L 9,3  L 6,3  L 6,4  L 5,4  L 5,5  L 7,5  L 7,4  L 10,4  L 10,5  L 9,5  Z  " style="fill:rgb(215, 203, 141); fill-opacity:1.000; stroke:none;" />
 <path d="  M 5,10  L 6,10  L 6,8  L 5,8  Z  " style="fill:rgb(215, 203, 141); fill-opacity:1.000; stroke:none;" />
 <path d="  M 5,25  L 5,27  L 6,27  L 6,26  L 7,26  L 7,23  L 6,23  L 6,25  Z  " style="fill:rgb(215, 203, 141); fill-opacity:1.000; stroke:none;" />
 <path d="  M 6,35  L 5,35  L 5,37  L 6,37  Z  " style="fill:rgb(215, 203, 141); fill-opacity:1.000; stroke:none;" />
 <path d="  M 6,56  L 6,57  L 5,57  L 5,58  L 6,58  L 6,59  L 8,59  L 8,58  L 7,58  L 7,57  L 10,57  L 10,58  L 14,58  L 14,57  L 12,57  L 12,56  L 13,56  L 13,55  L 11,55  L 11,56  Z  " style="fill:rgb(215, 203, 141); fill-opacity:1.000; stroke:none;" />
 <path d="  M 8,16  L 7,16  L 7,14  L 6,14  L 6,18  L 7,18  L 7,19  L 8,19  Z  " style="fill:rgb(215, 203, 141); fill-opacity:1.000; stroke:none;" />
 <path d="  M 6,60  L 6,61  L 8,61  L 8,62  L 16,62  L 16,61  L 18,61  L 18,60  L 17,60  L 17,59  L 19,59  L 19,60  L 21,60  L 21,61  L 24,61  L 24,60  L 22,60  L 22,59  L 23,59  L 23,58  L 24,58  L 24,57  L 22,57  L 22,58  L 19,58  L 19,57  L 18,57  L 18,56  L 16,56  L 16,57  L 17,57  L 17,58  L 14,58  L 14,59  L 12,59  L 12,60  L 11,60  L 11,61  L 9,61  L 9,60  Z  M 15,60  L 15,61  L 12,61  L 12,60  Z  " style="fill:rgb(215, 203, 141); fill-opacity:1.000; stroke:none;" />
 <path d="  M 9,7  L 9,6  L 7,6  L 7,7  Z  " style="fill:rgb(215, 203, 141); fill-opacity:1.000; stroke:none;" />
 <path d="  M 7,11  L 8,11  L 8,9  L 7,9  Z  " style="fill:rgb(215, 203, 141); fill-opacity:1.000; stroke:none;" />
 <path d="  M 8,12  L 7,12  L 7,14  L 8,14  L 8,13  L 9,13  L 9,15  L 10,15  L 10,12  L 9,12  L 9,11  L 8,11  Z  " style="fill:rgb(215, 203, 141); fill-opacity:1.000; stroke:none;" />
 <path d="  M 7,23  L 8,23  L 8,30  L 9,30  L 9,28  L 10,28  L 10,25  L 9,25  L 9,22  L 8,22  L 8,20  L 7,20  Z  " style="fill:rgb(215, 203, 141); fill-opacity:1.000; stroke:none;" />
 <path d="  M 11,9  L 11,8  L 12,8  L 12,7  L 10,7  L 10,8  L 8,8  L 8,9  Z  " style="fill:rgb(215, 203, 141); fill-opacity:1.000; stroke:none;" />
 <path d="  M 8,44  L 9,44  L 9,46  L 10,46  L 10,41  L 9,41  L 9,38  L 8,38  Z  " style="fill:rgb(215, 203, 141); fill-opacity:1.000; stroke:none;" />
 <path d="  M 9,47  L 9,46  L 8,46  L 8,47  Z  " style="fill:rgb(215, 203, 141); fill-opacity:1.000; stroke:none;" />
 <path d="  M 10,48  L 9,48  L 9,50  L 8,50  L 8,52  L 9,52  L 9,51  L 10,51  Z  " style="fill:rgb(215, 203, 141); fill-opacity:1.000; stroke:none;" />
 <path d="  M 10,17  L 9,17  L 9,22  L 10,22  Z  " style="fill:rgb(215, 203, 141); fill-opacity:1.000; stroke:none;" />
 <path d="  M 9,37  L 10,37  L 10,35  L 9,35  Z  " style="fill:rgb(215, 203, 141); fill-opacity:1.000; stroke:none;" />
 <path d="  M 11,53  L 10,53  L 10,54  L 9,54  L 9,55  L 11,55  Z  " style="fill:rgb(215, 203, 141); fill-opacity:1.000; stroke:none;" />
 <path d="  M 10,58  L 9,58  L 9,59  L 10,59  Z  " style="fill:rgb(215, 203, 141); fill-opacity:1.000; stroke:none;" />
 <path d="  M 12,6  L 12,7  L 14,7  L 14,6  Z  " style="fill:rgb(215, 203, 141); fill-opacity:1.000; stroke:none;" />
 <path d="  M 15,10  L 15,9  L 17,9  L 17,8  L 13,8  L 13,9  L 12,9  L 12,10  Z  " style="fill:rgb(215, 203, 141); fill-opacity:1.000; stroke:none;" />
 <path d="  M 16,54  L 13,54  L 13,55  L 16,55  Z  " style="fill:rgb(215, 203, 141); fill-opacity:1.000; stroke:none;" />
 <path d="  M 15,4  L 15,5  L 14,5  L 14,6  L 16,6  L 16,7  L 18,7  L 18,8  L 20,8  L 20,9  L 17,9  L 17,10  L 24,10  L 24,9  L 26,9  L 26,8  L 22,8  L 22,7  L 20,7  L 20,6  L 23,6  L 23,5  L 22,5  L 22,4  L 24,4  L 24,3  L 23,3  L 23,2  L 18,2  L 18,3  L 20,3  L 20,4  L 21,4  L 21,5  L 19,5  L 19,4  Z  " style="fill:rgb(215, 203, 141); fill-opacity:1.000; stroke:none;" />
 <path d="  M 21,57  L 21,56  L 19,56  L 19,57  Z  " style="fill:rgb(215, 203, 141); fill-opacity:1.000; stroke:none;" />
 <path d="  M 20,54  L 20,55  L 22,55  L 22,56  L 23,56  L 23,55  L 24,55  L 24,54  Z  " style="fill:rgb(215, 203, 141); fill-opacity:1.000; stroke:none;" />
 <path d="  M 25,52  L 25,51  L 22,51  L 22,52  L 24,52  L 24,53  L 25,53  L 25,54  L 30,54  L 30,53  L 28,53  L 28,52  Z  " style="fill:rgb(215, 203, 141); fill-opacity:1.000; stroke:none;" />
 <path d="  M 24,6  L 24,7  L 26,7  L 26,8  L 27,8  L 27,7  L 28,7  L 28,6  Z  " style="fill:rgb(215, 203, 141); fill-opacity:1.000; stroke:none;" />
 <path d="  M 32,61  L 32,60  L 29,60  L 29,59  L 27,59  L 27,58  L 24,58  L 24,59  L 26,59  L 26,60  L 28,60  L 28,61  L 24,61  L 24,62  L 30,62  L 30,61  Z  " style="fill:rgb(215, 203, 141); fill-opacity:1.000; stroke:none;" />
 <path d="  M 25,2  L 25,3  L 26,3  L 26,2  Z  " style="fill:rgb(215, 203, 141); fill-opacity:1.000; stroke:none;" />
 <path d="  M 27,5  L 27,4  L 28,4  L 28,3  L 26,3  L 26,4  L 25,4  L 25,5  Z  " style="fill:rgb(215, 203, 141); fill-opacity:1.000; stroke:none;" />
 <path d="  M 25,51  L 27,51  L 27,50  L 25,50  Z  " style="fill:rgb(215, 203, 141); fill-opacity:1.000; stroke:none;" />
 <path d="  M 28,3  L 30,3  L 30,4  L 34,4  L 34,3  L 32,3  L 32,2  L 28,2  Z  " style="fill:rgb(215, 203, 141); fill-opacity:1.000; stroke:none;" />
 <path d="  M 29,6  L 31,6  L 31,7  L 29,7  L 29,8  L 28,8  L 28,9  L 30,9  L 30,8  L 32,8  L 32,7  L 35,7  L 35,6  L 33,6  L 33,5  L 29,5  Z  " style="fill:rgb(215, 203, 141); fill-opacity:1.000; stroke:none;" />
 <path d="  M 29,50  L 29,51  L 30,51  L 30,52  L 32,52  L 32,51  L 31,51  L 31,50  Z  " style="fill:rgb(215, 203, 141); fill-opacity:1.000; stroke:none;" />
 <path d="  M 31,59  L 31,58  L 29,58  L 29,59  Z  " style="fill:rgb(215, 203, 141); fill-opacity:1.000; stroke:none;" />
 <path d="  M 34,53  L 34,54  L 37,54  L 37,53  L 38,53  L 38,52  L 40,52  L 40,51  L 42,51  L 42,50  L 39,50  L 39,51  L 37,51  L 37,52  L 34,52  L 34,51  L 33,51  L 33,52  L 32,52  L 32,53  Z  " style="fill:rgb(215, 203, 141); fill-opacity:1.000; stroke:none;" />
 <path d="  M 34,60  L 34,59  L 32,59  L 32,60  Z  " style="fill:rgb(215, 203, 141); fill-opacity:1.000; stroke:none;" />
 <path d="  M 43,6  L 43,5  L 39,5  L 39,6  L 38,6  L 38,5  L 37,5  L 37,4  L 34,4  L 34,5  L 35,5  L 35,6  L 37,6  L 37,7  L 35,7  L 35,8  L 33,8  L 33,9  L 35,9  L 35,10  L 39,10  L 39,9  L 36,9  L 36,8  L 38,8  L 38,7  L 40,7  L 40,6  Z  " style="fill:rgb(215, 203, 141); fill-opacity:1.000; stroke:none;" />
 <path d="  M 36,2  L 34,2  L 34,3  L 36,3  Z  " style="fill:rgb(215, 203, 141); fill-opacity:1.000; stroke:none;" />
 <path d="  M 36,60  L 34,60  L 34,61  L 35,61  L 35,62  L 37,62  L 37,61  L 36,61  Z  " style="fill:rgb(215, 203, 141); fill-opacity:1.000; stroke:none;" />
 <path d="  M 37,51  L 37,50  L 35,50  L 35,51  Z  " style="fill:rgb(215, 203, 141); fill-opacity:1.000; stroke:none;" />
 <path d="  M 36,59  L 36,60  L 38,60  L 38,59  L 39,59  L 39,58  L 37,58  L 37,59  Z  " style="fill:rgb(215, 203, 141); fill-opacity:1.000; stroke:none;" />
 <path d="  M 38,5  L 39,5  L 39,4  L 38,4  Z  " style="fill:rgb(215, 203, 141); fill-opacity:1.000; stroke:none;" />
 <path d="  M 38,61  L 38,62  L 48,62  L 48,61  L 46,61  L 46,60  L 47,60  L 47,59  L 45,59  L 45,60  L 42,60  L 42,61  Z  " style="fill:rgb(215, 203, 141); fill-opacity:1.000; stroke:none;" />
 <path d="  M 41,3  L 39,3  L 39,4  L 41,4  Z  " style="fill:rgb(215, 203, 141); fill-opacity:1.000; stroke:none;" />
 <path d="  M 42,8  L 39,8  L 39,9  L 41,9  L 41,10  L 43,10  L 43,9  L 44,9  L 44,8  L 47,8  L 47,7  L 42,7  Z  " style="fill:rgb(215, 203, 141); fill-opacity:1.000; stroke:none;" />
 <path d="  M 39,60  L 41,60  L 41,59  L 39,59  Z  " style="fill:rgb(215, 203, 141); fill-opacity:1.000; stroke:none;" />
 <path d="  M 42,53  L 42,52  L 40,52  L 40,53  Z  " style="fill:rgb(215, 203, 141); fill-opacity:1.000; stroke:none;" />
 <path d="  M 42,57  L 42,56  L 44,56  L 44,55  L 41,55  L 41,56  L 40,56  L 40,57  Z  " style="fill:rgb(215, 203, 141); fill-opacity:1.000; stroke:none;" />
 <path d="  M 42,58  L 41,58  L 41,59  L 43,59  L 43,58  L 45,58  L 45,57  L 42,57  Z  " style="fill:rgb(215, 203, 141); fill-opacity:1.000; stroke:none;" />
 <path d="  M 42,54  L 43,54  L 43,53  L 42,53  Z  " style="fill:rgb(215, 203, 141); fill-opacity:1.000; stroke:none;" />
 <path d="  M 45,5  L 45,4  L 43,4  L 43,5  Z  " style="fill:rgb(215, 203, 141); fill-opacity:1.000; stroke:none;" />
 <path d="  M 44,9  L 44,10  L 46,10  L 46,9  Z  " style="fill:rgb(215, 203, 141); fill-opacity:1.000; stroke:none;" />
 <path d="  M 46,55  L 46,54  L 44,54  L 44,55  Z  " style="fill:rgb(215, 203, 141); fill-opacity:1.000; stroke:none;" />
 <path d="  M 45,2  L 45,3  L 47,3  L 47,2  Z  " style="fill:rgb(215, 203, 141); fill-opacity:1.000; stroke:none;" />
 <path d="  M 48,57  L 48,58  L 47,58  L 47,59  L 48,59  L 48,60  L 50,60  L 50,59  L 49,59  L 49,58  L 52,58  L 52,57  L 50,57  L 50,56  L 51,56  L 51,55  L 49,55  L 49,56  L 46,56  L 46,57  Z  " style="fill:rgb(215, 203, 141); fill-opacity:1.000; stroke:none;" />
 <path d="  M 49,5  L 49,6  L 50,6  L 50,5  L 52,5  L 52,4  L 49,4  L 49,3  L 47,3  L 47,4  L 48,4  L 48,5  Z  " style="fill:rgb(215, 203, 141); fill-opacity:1.000; stroke:none;" />
 <path d="  M 49,7  L 49,6  L 47,6  L 47,7  Z  " style="fill:rgb(215, 203, 141); fill-opacity:1.000; stroke:none;" />
 <path d="  M 47,55  L 49,55  L 49,54  L 47,54  Z  " style="fill:rgb(215, 203, 141); fill-opacity:1.000; stroke:none;" />
 <path d="  M 49,8  L 49,9  L 48,9  L 48,10  L 50,10  L 50,9  L 52,9  L 52,8  Z  " style="fill:rgb(215, 203, 141); fill-opacity:1.000; stroke:none;" />
 <path d="  M 51,61  L 51,62  L 55,62  L 55,61  L 53,61  L 53,60  L 50,60  L 50,61  Z  " style="fill:rgb(215, 203, 141); fill-opacity:1.000; stroke:none;" />
 <path d="  M 56,6  L 56,5  L 58,5  L 58,4  L 55,4  L 55,5  L 52,5  L 52,6  L 51,6  L 51,7  L 52,7  L 52,8  L 54,8  L 54,7  L 53,7  L 53,6  Z  " style="fill:rgb(215, 203, 141); fill-opacity:1.000; stroke:none;" />
 <path d="  M 51,54  L 51,55  L 53,55  L 53,56  L 52,56  L 52,57  L 55,57  L 55,56  L 56,56  L 56,55  L 54,55  L 54,54  Z  " style="fill:rgb(215, 203, 141); fill-opacity:1.000; stroke:none;" />
 <path d="  M 55,4  L 55,3  L 54,3  L 54,2  L 52,2  L 52,3  L 53,3  L 53,4  Z  " style="fill:rgb(215, 203, 141); fill-opacity:1.000; stroke:none;" />
 <path d="  M 53,59  L 53,60  L 57,60  L 57,61  L 60,61  L 60,60  L 58,60  L 58,59  L 55,59  L 55,58  L 52,58  L 52,59  Z  " style="fill:rgb(215, 203, 141); fill-opacity:1.000; stroke:none;" />
 <path d="  M 55,8  L 55,9  L 54,9  L 54,18  L 55,18  L 55,20  L 56,20  L 56,17  L 55,17  L 55,16  L 56,16  L 56,14  L 55,14  L 55,10  L 56,10  L 56,9  L 57,9  L 57,8  Z  " style="fill:rgb(215, 203, 141); fill-opacity:1.000; stroke:none;" />
 <path d="  M 55,27  L 56,27  L 56,31  L 55,31  L 55,34  L 56,34  L 56,32  L 57,32  L 57,28  L 58,28  L 58,30  L 59,30  L 59,27  L 58,27  L 58,23  L 59,23  L 59,21  L 58,21  L 58,22  L 57,22  L 57,20  L 56,20  L 56,23  L 57,23  L 57,26  L 56,26  L 56,24  L 55,24  L 55,22  L 54,22  L 54,25  L 55,25  Z  " style="fill:rgb(215, 203, 141); fill-opacity:1.000; stroke:none;" />
 <path d="  M 55,29  L 54,29  L 54,31  L 55,31  Z  " style="fill:rgb(215, 203, 141); fill-opacity:1.000; stroke:none;" />
 <path d="  M 55,37  L 56,37  L 56,35  L 55,35  L 55,36  L 54,36  L 54,38  L 55,38  Z  " style="fill:rgb(215, 203, 141); fill-opacity:1.000; stroke:none;" />
 <path d="  M 56,44  L 56,42  L 55,42  L 55,40  L 54,40  L 54,43  L 55,43  L 55,44  Z  " style="fill:rgb(215, 203, 141); fill-opacity:1.000; stroke:none;" />
 <path d="  M 55,44  L 54,44  L 54,46  L 55,46  Z  " style="fill:rgb(215, 203, 141); fill-opacity:1.000; stroke:none;" />
 <path d="  M 55,48  L 54,48  L 54,50  L 55,50  Z  " style="fill:rgb(215, 203, 141); fill-opacity:1.000; stroke:none;" />
 <path d="  M 57,54  L 57,53  L 56,53  L 56,50  L 55,50  L 55,51  L 54,51  L 54,53  L 55,53  L 55,54  Z  " style="fill:rgb(215, 203, 141); fill-opacity:1.000; stroke:none;" />
 <path d="  M 58,3  L 58,4  L 60,4  L 60,3  L 61,3  L 61,2  L 55,2  L 55,3  Z  " style="fill:rgb(215, 203, 141); fill-opacity:1.000; stroke:none;" />
 <path d="  M 59,12  L 60,12  L 60,10  L 59,10  L 59,9  L 58,9  L 58,10  L 57,10  L 57,12  L 56,12  L 56,14  L 57,14  L 57,13  L 58,13  L 58,11  L 59,11  Z  " style="fill:rgb(215, 203, 141); fill-opacity:1.000; stroke:none;" />
 <path d="  M 57,37  L 56,37  L 56,39  L 57,39  Z  " style="fill:rgb(215, 203, 141); fill-opacity:1.000; stroke:none;" />
 <path d="  M 58,49  L 57,49  L 57,47  L 58,47  L 58,45  L 57,45  L 57,44  L 56,44  L 56,50  L 57,50  L 57,51  L 58,51  Z  " style="fill:rgb(215, 203, 141); fill-opacity:1.000; stroke:none;" />
 <path d="  M 56,57  L 57,57  L 57,58  L 59,58  L 59,57  L 58,57  L 58,56  L 56,56  Z  " style="fill:rgb(215, 203, 141); fill-opacity:1.000; stroke:none;" />
 <path d="  M 57,61  L 56,61  L 56,62  L 57,62  Z  " style="fill:rgb(215, 203, 141); fill-opacity:1.000; stroke:none;" />
 <path d="  M 59,8  L 59,7  L 60,7  L 60,6  L 58,6  L 58,7  L 57,7  L 57,8  Z  " style="fill:rgb(215, 203, 141); fill-opacity:1.000; stroke:none;" />
 <path d="  M 57,17  L 57,19  L 58,19  L 58,18  L 59,18  L 59,16  L 60,16  L 60,14  L 59,14  L 59,15  L 58,15  L 58,17  Z  " style="fill:rgb(215, 203, 141); fill-opacity:1.000; stroke:none;" />
 <path d="  M 57,35  L 58,35  L 58,33  L 57,33  Z  " style="fill:rgb(215, 203, 141); fill-opacity:1.000; stroke:none;" />
 <path d="  M 59,40  L 59,37  L 60,37  L 60,32  L 59,32  L 59,35  L 58,35  L 58,39  L 57,39  L 57,41  L 58,41  L 58,40  Z  " style="fill:rgb(215, 203, 141); fill-opacity:1.000; stroke:none;" />
 <path d="  M 57,44  L 58,44  L 58,43  L 59,43  L 59,41  L 58,41  L 58,42  L 57,42  Z  " style="fill:rgb(215, 203, 141); fill-opacity:1.000; stroke:none;" />
 <path d="  M 60,52  L 60,51  L 59,51  L 59,52  L 57,52  L 57,53  L 59,53  L 59,54  L 60,54  L 60,55  L 61,55  L 61,54  L 62,54  L 62,51  L 61,51  L 61,52  Z  " style="fill:rgb(215, 203, 141); fill-opacity:1.000; stroke:none;" />
 <path d="  M 58,14  L 59,14  L 59,13  L 58,13  Z  " style="fill:rgb(215, 203, 141); fill-opacity:1.000; stroke:none;" />
 <path d="  M 60,56  L 60,55  L 58,55  L 58,56  Z  " style="fill:rgb(215, 203, 141); fill-opacity:1.000; stroke:none;" />
 <path d="  M 62,9  L 62,8  L 59,8  L 59,9  Z  " style="fill:rgb(215, 203, 141); fill-opacity:1.000; stroke:none;" />
 <path d="  M 59,21  L 60,21  L 60,19  L 59,19  Z  " style="fill:rgb(215, 203, 141); fill-opacity:1.000; stroke:none;" />
 <path d="  M 60,25  L 59,25  L 59,27  L 60,27  Z  " style="fill:rgb(215, 203, 141); fill-opacity:1.000; stroke:none;" />
 <path d="  M 62,40  L 61,40  L 61,42  L 60,42  L 60,46  L 59,46  L 59,49  L 60,49  L 60,47  L 61,47  L 61,50  L 62,50  L 62,45  L 61,45  L 61,43  L 62,43  Z  " style="fill:rgb(215, 203, 141); fill-opacity:1.000; stroke:none;" />
 <path d="  M 60,59  L 60,60  L 62,60  L 62,59  L 61,59  L 61,58  L 59,58  L 59,59  Z  " style="fill:rgb(215, 203, 141); fill-opacity:1.000; stroke:none;" />
 <path d="  M 60,5  L 60,6  L 62,6  L 62,5  Z  " style="fill:rgb(215, 203, 141); fill-opacity:1.000; stroke:none;" />
 <path d="  M 60,14  L 61,14  L 61,15  L 62,15  L 62,13  L 61,13  L 61,12  L 60,12  Z  " style="fill:rgb(215, 203, 141); fill-opacity:1.000; stroke:none;" />
 <path d="  M 62,18  L 61,18  L 61,16  L 60,16  L 60,19  L 61,19  L 61,22  L 60,22  L 60,25  L 61,25  L 61,24  L 62,24  Z  " style="fill:rgb(215, 203, 141); fill-opacity:1.000; stroke:none;" />
 <path d="  M 62,27  L 61,27  L 61,29  L 60,29  L 60,32  L 61,32  L 61,30  L 62,30  Z  " style="fill:rgb(215, 203, 141); fill-opacity:1.000; stroke:none;" />
 <path d="  M 61,38  L 62,38  L 62,34  L 61,34  L 61,37  L 60,37  L 60,39  L 61,39  Z  " style="fill:rgb(215, 203, 141); fill-opacity:1.000; stroke:none;" />
 <path d="  M 62,57  L 61,57  L 61,58  L 62,58  Z  " style="fill:rgb(215, 203, 141); fill-opacity:1.000; stroke:none;" />
 <path d="  M 10,53  L 11,53  L 11,54  L 20,54  L 20,53  L 18,53  L 18,52  L 17,52  L 17,53  L 14,53  L 14,52  L 12,52  L 12,51  L 11,51  L 11,50  L 12,50  L 12,49  L 11,49  L 11,47  L 12,47  L 12,46  L 11,46  L 11,43  L 12,43  L 12,39  L 11,39  L 11,34  L 12,34  L 12,33  L 11,33  L 11,29  L 12,29  L 12,27  L 11,27  L 11,21  L 12,21  L 12,20  L 11,20  L 11,17  L 12,17  L 12,13  L 11,13  L 11,11  L 10,11  Z  " style="fill:rgb(219, 210, 161); fill-opacity:1.000; stroke:none;" />
 <path d="  M 42,50  L 42,53  L 43,53  L 43,51  L 44,51  L 44,50  L 43,50  L 43,49  L 41,49  L 41,48  L 39,48  L 39,49  L 37,49  L 37,48  L 36,48  L 36,49  L 28,49  L 28,48  L 24,48  L 24,49  L 20,49  L 20,50  Z  " style="fill:rgb(219, 210, 161); fill-opacity:1.000; stroke:none;" />
 <path d="  M 45,53  L 43,53  L 43,54  L 53,54  L 53,53  L 51,53  L 51,52  L 50,52  L 50,53  L 48,53  L 48,52  L 45,52  Z  " style="fill:rgb(219, 210, 161); fill-opacity:1.000; stroke:none;" />
 <path d="  M 11,13  L 12,13  L 12,12  L 11,12  Z  " style="fill:rgb(227, 219, 175); fill-opacity:1.000; stroke:none;" />
 <path d="  M 11,17  L 11,20  L 12,20  L 12,17  Z  " style="fill:rgb(227, 219, 175); fill-opacity:1.000; stroke:none;" />
 <path d="  M 12,21  L 11,21  L 11,27  L 12,27  Z  " style="fill:rgb(227, 219, 175); fill-opacity:1.000; stroke:none;" />
 <path d="  M 11,33  L 12,33  L 12,29  L 11,29  Z  " style="fill:rgb(227, 219, 175); fill-opacity:1.000; stroke:none;" />
 <path d="  M 12,39  L 12,34  L 11,34  L 11,39  Z  " style="fill:rgb(227, 219, 175); fill-opacity:1.000; stroke:none;" />
 <path d="  M 11,46  L 12,46  L 12,43  L 11,43  Z  " style="fill:rgb(227, 219, 175); fill-opacity:1.000; stroke:none;" />
 <path d="  M 11,47  L 11,49  L 12,49  L 12,47  Z  " style="fill:rgb(227, 219, 175); fill-opacity:1.000; stroke:none;" />
 <path d="  M 12,51  L 12,50  L 11,50  L 11,51  Z  " style="fill:rgb(227, 219, 175); fill-opacity:1.000; stroke:none;" />
 <path d="  M 17,53  L 17,52  L 14,52  L 14,53  Z  " style="fill:rgb(227, 219, 175); fill-opacity:1.000; stroke:none;" />
 <path d="  M 20,52  L 18,52  L 18,53  L 20,53  Z  " style="fill:rgb(227, 219, 175); fill-opacity:1.000; stroke:none;" />
 <path d="  M 24,49  L 24,48  L 20,48  L 20,49  Z  " style="fill:rgb(227, 219, 175); fill-opacity:1.000; stroke:none;" />
 <path d="  M 36,49  L 36,48  L 28,48  L 28,49  Z  " style="fill:rgb(227, 219, 175); fill-opacity:1.000; stroke:none;" />
 <path d="  M 39,48  L 37,48  L 37,49  L 39,49  Z  " style="fill:rgb(227, 219, 175); fill-opacity:1.000; stroke:none;" />
 <path d="  M 41,48  L 41,49  L 43,49  L 43,50  L 44,50  L 44,48  Z  " style="fill:rgb(227, 219, 175); fill-opacity:1.000; stroke:none;" />
 <path d="  M 44,52  L 44,51  L 43,51  L 43,53  L 45,53  L 45,52  Z  " style="fill:rgb(227, 219, 175); fill-opacity:1.000; stroke:none;" />
 <path d="  M 48,52  L 48,53  L 50,53  L 50,52  Z  " style="fill:rgb(227, 219, 175); fill-opacity:1.000; stroke:none;" />
 <path d="  M 51,53  L 52,53  L 52,52  L 51,52  Z  " style="fill:rgb(227, 219, 175); fill-opacity:1.000; stroke:none;" />
 <path d="  M 12,12  L 12,14  L 13,14  L 13,13  L 14,13  L 14,12  Z  " style="fill:rgb(238, 234, 222); fill-opacity:1.000; stroke:none;" />
 <path d="  M 14,51  L 13,51  L 13,50  L 12,50  L 12,52  L 14,52  Z  " style="fill:rgb(238, 234, 222); fill-opacity:1.000; stroke:none;" />
 <path d="  M 13,38  L 13,39  L 14,39  L 14,40  L 18,40  L 18,39  L 16,39  L 16,38  Z  " style="fill:rgb(238, 234, 222); fill-opacity:1.000; stroke:none;" />
 <path d="  M 16,25  L 16,26  L 24,26  L 24,25  L 25,25  L 25,24  L 26,24  L 26,22  L 25,22  L 25,23  L 24,23  L 24,24  L 22,24  L 22,25  Z  " style="fill:rgb(238, 234, 222); fill-opacity:1.000; stroke:none;" />
 <path d="  M 18,51  L 18,52  L 20,52  L 20,50  L 19,50  L 19,51  Z  " style="fill:rgb(238, 234, 222); fill-opacity:1.000; stroke:none;" />
 <path d="  M 21,38  L 20,38  L 20,39  L 19,39  L 19,40  L 22,40  L 22,39  L 21,39  Z  " style="fill:rgb(238, 234, 222); fill-opacity:1.000; stroke:none;" />
 <path d="  M 25,26  L 24,26  L 24,27  L 25,27  Z  " style="fill:rgb(238, 234, 222); fill-opacity:1.000; stroke:none;" />
 <path d="  M 25,32  L 25,34  L 26,34  L 26,27  L 25,27  L 25,28  L 24,28  L 24,32  Z  " style="fill:rgb(238, 234, 222); fill-opacity:1.000; stroke:none;" />
 <path d="  M 24,45  L 25,45  L 25,46  L 26,46  L 26,43  L 25,43  L 25,40  L 24,40  Z  " style="fill:rgb(238, 234, 222); fill-opacity:1.000; stroke:none;" />
 <path d="  M 26,14  L 25,14  L 25,20  L 26,20  Z  " style="fill:rgb(238, 234, 222); fill-opacity:1.000; stroke:none;" />
 <path d="  M 33,24  L 31,24  L 31,25  L 33,25  Z  " style="fill:rgb(238, 234, 222); fill-opacity:1.000; stroke:none;" />
 <path d="  M 44,26  L 44,25  L 41,25  L 41,24  L 40,24  L 40,18  L 39,18  L 39,23  L 38,23  L 38,24  L 37,24  L 37,25  L 33,25  L 33,26  L 38,26  L 38,27  L 39,27  L 39,29  L 40,29  L 40,26  Z  " style="fill:rgb(238, 234, 222); fill-opacity:1.000; stroke:none;" />
 <path d="  M 38,40  L 38,41  L 39,41  L 39,44  L 40,44  L 40,40  L 42,40  L 42,39  L 40,39  L 40,37  L 39,37  L 39,38  L 37,38  L 37,39  L 34,39  L 34,40  Z  " style="fill:rgb(238, 234, 222); fill-opacity:1.000; stroke:none;" />
 <path d="  M 39,16  L 40,16  L 40,14  L 39,14  Z  " style="fill:rgb(238, 234, 222); fill-opacity:1.000; stroke:none;" />
 <path d="  M 39,34  L 39,36  L 40,36  L 40,34  Z  " style="fill:rgb(238, 234, 222); fill-opacity:1.000; stroke:none;" />
 <path d="  M 46,52  L 46,51  L 45,51  L 45,50  L 44,50  L 44,52  Z  " style="fill:rgb(238, 234, 222); fill-opacity:1.000; stroke:none;" />
 <path d="  M 47,38  L 47,39  L 48,39  L 48,40  L 51,40  L 51,39  L 50,39  L 50,38  Z  " style="fill:rgb(238, 234, 222); fill-opacity:1.000; stroke:none;" />
 <path d="  M 51,13  L 51,14  L 52,14  L 52,12  L 50,12  L 50,13  Z  " style="fill:rgb(238, 234, 222); fill-opacity:1.000; stroke:none;" />
 <path d="  M 51,50  L 51,51  L 50,51  L 50,52  L 52,52  L 52,50  Z  " style="fill:rgb(238, 234, 222); fill-opacity:1.000; stroke:none;" />
 <path d="  M 52,39  L 52,38  L 51,38  L 51,39  Z  " style="fill:rgb(238, 234, 222); fill-opacity:1.000; stroke:none;" />
 <path d="  M 23,15  L 24,15  L 24,12  L 14,12  L 14,13  L 13,13  L 13,14  L 12,14  L 12,24  L 16,24  L 16,23  L 15,23  L 15,22  L 14,22  L 14,21  L 15,21  L 15,20  L 16,20  L 16,18  L 18,18  L 18,17  L 17,17  L 17,16  L 16,16  L 16,15  L 18,15  L 18,16  L 19,16  L 19,17  L 20,17  L 20,16  L 21,16  L 21,15  L 22,15  L 22,16  L 23,16  Z  M 15,18  L 15,17  L 16,17  L 16,18  Z  " style="fill:rgb(246, 242, 222); fill-opacity:1.000; stroke:none;" />
 <path d="  M 18,32  L 17,32  L 17,30  L 16,30  L 16,29  L 15,29  L 15,28  L 16,28  L 16,27  L 17,27  L 17,26  L 12,26  L 12,38  L 14,38  L 14,37  L 16,37  L 16,36  L 17,36  L 17,35  L 16,35  L 16,34  L 18,34  Z  M 16,33  L 16,34  L 15,34  L 15,33  Z  " style="fill:rgb(246, 242, 222); fill-opacity:1.000; stroke:none;" />
 <path d="  M 16,44  L 16,42  L 15,42  L 15,41  L 14,41  L 14,40  L 12,40  L 12,50  L 13,50  L 13,51  L 14,51  L 14,52  L 18,52  L 18,51  L 19,51  L 19,50  L 20,50  L 20,48  L 24,48  L 24,43  L 23,43  L 23,42  L 22,42  L 22,44  L 23,44  L 23,45  L 22,45  L 22,46  L 21,46  L 21,47  L 20,47  L 20,46  L 19,46  L 19,47  L 18,47  L 18,48  L 16,48  L 16,47  L 15,47  L 15,46  L 14,46  L 14,45  L 15,45  L 15,44  Z  M 16,49  L 15,49  L 15,48  L 16,48  Z  " style="fill:rgb(246, 242, 222); fill-opacity:1.000; stroke:none;" />
 <path d="  M 16,44  L 16,45  L 17,45  L 17,44  Z  " style="fill:rgb(246, 242, 222); fill-opacity:1.000; stroke:none;" />
 <path d="  M 18,45  L 17,45  L 17,46  L 18,46  Z  " style="fill:rgb(246, 242, 222); fill-opacity:1.000; stroke:none;" />
 <path d="  M 18,27  L 19,27  L 19,28  L 21,28  L 21,29  L 20,29  L 20,30  L 22,30  L 22,29  L 23,29  L 23,28  L 24,28  L 24,26  L 18,26  Z  M 21,27  L 22,27  L 22,28  L 21,28  Z  " style="fill:rgb(246, 242, 222); fill-opacity:1.000; stroke:none;" />
 <path d="  M 19,29  L 19,28  L 18,28  L 18,29  Z  " style="fill:rgb(246, 242, 222); fill-opacity:1.000; stroke:none;" />
 <path d="  M 20,41  L 20,42  L 22,42  L 22,41  L 21,41  L 21,40  L 18,40  L 18,41  Z  " style="fill:rgb(246, 242, 222); fill-opacity:1.000; stroke:none;" />
 <path d="  M 20,21  L 20,22  L 22,22  L 22,21  L 23,21  L 23,20  L 22,20  L 22,19  L 21,19  L 21,20  L 19,20  L 19,21  Z  " style="fill:rgb(246, 242, 222); fill-opacity:1.000; stroke:none;" />
 <path d="  M 20,22  L 19,22  L 19,23  L 20,23  Z  " style="fill:rgb(246, 242, 222); fill-opacity:1.000; stroke:none;" />
 <path d="  M 20,42  L 19,42  L 19,43  L 20,43  Z  " style="fill:rgb(246, 242, 222); fill-opacity:1.000; stroke:none;" />
 <path d="  M 20,17  L 20,18  L 21,18  L 21,17  Z  " style="fill:rgb(246, 242, 222); fill-opacity:1.000; stroke:none;" />
 <path d="  M 21,37  L 20,37  L 20,38  L 21,38  Z  " style="fill:rgb(246, 242, 222); fill-opacity:1.000; stroke:none;" />
 <path d="  M 21,16  L 21,17  L 22,17  L 22,16  Z  " style="fill:rgb(246, 242, 222); fill-opacity:1.000; stroke:none;" />
 <path d="  M 24,33  L 23,33  L 23,34  L 21,34  L 21,35  L 22,35  L 22,36  L 21,36  L 21,37  L 23,37  L 23,36  L 24,36  Z  " style="fill:rgb(246, 242, 222); fill-opacity:1.000; stroke:none;" />
 <path d="  M 22,44  L 21,44  L 21,45  L 22,45  Z  " style="fill:rgb(246, 242, 222); fill-opacity:1.000; stroke:none;" />
 <path d="  M 23,30  L 22,30  L 22,31  L 23,31  Z  " style="fill:rgb(246, 242, 222); fill-opacity:1.000; stroke:none;" />
 <path d="  M 23,41  L 23,42  L 24,42  L 24,41  Z  " style="fill:rgb(246, 242, 222); fill-opacity:1.000; stroke:none;" />
 <path d="  M 29,14  L 29,15  L 30,15  L 30,16  L 32,16  L 32,15  L 31,15  L 31,14  L 33,14  L 33,13  L 35,13  L 35,14  L 37,14  L 37,15  L 38,15  L 38,12  L 26,12  L 26,14  Z  M 31,13  L 31,14  L 30,14  L 30,13  Z  " style="fill:rgb(246, 242, 222); fill-opacity:1.000; stroke:none;" />
 <path d="  M 27,19  L 27,20  L 28,20  L 28,19  L 29,19  L 29,18  L 27,18  L 27,17  L 26,17  L 26,19  Z  " style="fill:rgb(246, 242, 222); fill-opacity:1.000; stroke:none;" />
 <path d="  M 27,29  L 28,29  L 28,30  L 27,30  Z  M 26,36  L 29,36  L 29,35  L 30,35  L 30,33  L 29,33  L 29,32  L 27,32  L 27,31  L 28,31  L 28,30  L 31,30  L 31,29  L 30,29  L 30,28  L 32,28  L 32,27  L 34,27  L 34,26  L 26,26  Z  M 29,34  L 29,35  L 28,35  L 28,34  Z  M 30,28  L 29,28  L 29,27  L 30,27  Z  " style="fill:rgb(246, 242, 222); fill-opacity:1.000; stroke:none;" />
 <path d="  M 27,38  L 27,37  L 26,37  L 26,38  Z  " style="fill:rgb(246, 242, 222); fill-opacity:1.000; stroke:none;" />
 <path d="  M 31,47  L 31,46  L 32,46  L 32,45  L 30,45  L 30,44  L 28,44  L 28,42  L 27,42  L 27,41  L 26,41  L 26,48  L 33,48  L 33,47  Z  M 28,45  L 27,45  L 27,44  L 28,44  Z  " style="fill:rgb(246, 242, 222); fill-opacity:1.000; stroke:none;" />
 <path d="  M 29,41  L 29,42  L 30,42  L 30,41  L 31,41  L 31,40  L 27,40  L 27,41  Z  " style="fill:rgb(246, 242, 222); fill-opacity:1.000; stroke:none;" />
 <path d="  M 30,32  L 30,31  L 29,31  L 29,32  Z  " style="fill:rgb(246, 242, 222); fill-opacity:1.000; stroke:none;" />
 <path d="  M 33,22  L 35,22  L 35,21  L 34,21  L 34,20  L 33,20  L 33,21  L 32,21  L 32,22  L 30,22  L 30,23  L 31,23  L 31,24  L 32,24  L 32,23  L 33,23  Z  " style="fill:rgb(246, 242, 222); fill-opacity:1.000; stroke:none;" />
 <path d="  M 31,32  L 30,32  L 30,33  L 31,33  Z  " style="fill:rgb(246, 242, 222); fill-opacity:1.000; stroke:none;" />
 <path d="  M 32,38  L 32,37  L 30,37  L 30,38  Z  " style="fill:rgb(246, 242, 222); fill-opacity:1.000; stroke:none;" />
 <path d="  M 31,21  L 32,21  L 32,20  L 31,20  Z  " style="fill:rgb(246, 242, 222); fill-opacity:1.000; stroke:none;" />
 <path d="  M 32,17  L 33,17  L 33,18  L 35,18  L 35,17  L 34,17  L 34,16  L 32,16  Z  " style="fill:rgb(246, 242, 222); fill-opacity:1.000; stroke:none;" />
 <path d="  M 32,19  L 32,20  L 33,20  L 33,19  Z  " style="fill:rgb(246, 242, 222); fill-opacity:1.000; stroke:none;" />
 <path d="  M 38,38  L 38,35  L 37,35  L 37,36  L 36,36  L 36,35  L 35,35  L 35,34  L 34,34  L 34,36  L 32,36  L 32,37  L 33,37  L 33,38  Z  M 36,36  L 36,37  L 35,37  L 35,36  Z  " style="fill:rgb(246, 242, 222); fill-opacity:1.000; stroke:none;" />
 <path d="  M 33,46  L 33,47  L 34,47  L 34,46  Z  " style="fill:rgb(246, 242, 222); fill-opacity:1.000; stroke:none;" />
 <path d="  M 34,16  L 36,16  L 36,15  L 35,15  L 35,14  L 34,14  Z  " style="fill:rgb(246, 242, 222); fill-opacity:1.000; stroke:none;" />
 <path d="  M 36,42  L 35,42  L 35,43  L 37,43  L 37,42  L 38,42  L 38,40  L 34,40  L 34,41  L 36,41  Z  " style="fill:rgb(246, 242, 222); fill-opacity:1.000; stroke:none;" />
 <path d="  M 37,33  L 37,34  L 38,34  L 38,27  L 37,27  L 37,28  L 36,28  L 36,30  L 35,30  L 35,32  L 36,32  L 36,33  Z  M 37,31  L 36,31  L 36,30  L 37,30  Z  " style="fill:rgb(246, 242, 222); fill-opacity:1.000; stroke:none;" />
 <path d="  M 36,46  L 36,45  L 35,45  L 35,46  Z  " style="fill:rgb(246, 242, 222); fill-opacity:1.000; stroke:none;" />
 <path d="  M 36,47  L 35,47  L 35,48  L 38,48  L 38,45  L 37,45  L 37,46  L 36,46  Z  " style="fill:rgb(246, 242, 222); fill-opacity:1.000; stroke:none;" />
 <path d="  M 36,16  L 36,17  L 37,17  L 37,18  L 38,18  L 38,16  Z  " style="fill:rgb(246, 242, 222); fill-opacity:1.000; stroke:none;" />
 <path d="  M 37,18  L 36,18  L 36,19  L 37,19  Z  " style="fill:rgb(246, 242, 222); fill-opacity:1.000; stroke:none;" />
 <path d="  M 40,12  L 40,15  L 41,15  L 41,16  L 43,16  L 43,17  L 44,17  L 44,18  L 45,18  L 45,17  L 46,17  L 46,16  L 44,16  L 44,15  L 45,15  L 45,14  L 46,14  L 46,15  L 47,15  L 47,16  L 48,16  L 48,17  L 49,17  L 49,18  L 50,18  L 50,19  L 49,19  L 49,20  L 47,20  L 47,21  L 48,21  L 48,22  L 50,22  L 50,23  L 51,23  L 51,22  L 52,22  L 52,14  L 51,14  L 51,13  L 50,13  L 50,12  Z  M 41,15  L 41,14  L 42,14  L 42,15  Z  M 49,21  L 49,20  L 50,20  L 50,21  Z  M 48,16  L 48,15  L 49,15  L 49,16  Z  " style="fill:rgb(246, 242, 222); fill-opacity:1.000; stroke:none;" />
 <path d="  M 40,29  L 41,29  L 41,28  L 40,28  Z  " style="fill:rgb(246, 242, 222); fill-opacity:1.000; stroke:none;" />
 <path d="  M 41,30  L 40,30  L 40,32  L 41,32  Z  " style="fill:rgb(246, 242, 222); fill-opacity:1.000; stroke:none;" />
 <path d="  M 41,35  L 40,35  L 40,38  L 43,38  L 43,37  L 42,37  L 42,36  L 41,36  Z  " style="fill:rgb(246, 242, 222); fill-opacity:1.000; stroke:none;" />
 <path d="  M 42,40  L 40,40  L 40,42  L 41,42  L 41,41  L 42,41  Z  " style="fill:rgb(246, 242, 222); fill-opacity:1.000; stroke:none;" />
 <path d="  M 41,48  L 41,47  L 42,47  L 42,46  L 41,46  L 41,45  L 40,45  L 40,48  Z  " style="fill:rgb(246, 242, 222); fill-opacity:1.000; stroke:none;" />
 <path d="  M 41,26  L 41,27  L 42,27  L 42,29  L 43,29  L 43,28  L 44,28  L 44,27  L 46,27  L 46,28  L 48,28  L 48,29  L 47,29  L 47,30  L 49,30  L 49,31  L 50,31  L 50,33  L 49,33  L 49,34  L 50,34  L 50,35  L 49,35  L 49,37  L 48,37  L 48,38  L 52,38  L 52,26  Z  M 51,30  L 51,31  L 50,31  L 50,30  Z  M 48,27  L 49,27  L 49,28  L 48,28  Z  " style="fill:rgb(246, 242, 222); fill-opacity:1.000; stroke:none;" />
 <path d="  M 42,30  L 42,29  L 41,29  L 41,30  Z  " style="fill:rgb(246, 242, 222); fill-opacity:1.000; stroke:none;" />
 <path d="  M 43,23  L 42,23  L 42,24  L 44,24  L 44,23  L 45,23  L 45,22  L 43,22  Z  " style="fill:rgb(246, 242, 222); fill-opacity:1.000; stroke:none;" />
 <path d="  M 47,49  L 47,48  L 48,48  L 48,49  Z  M 43,46  L 44,46  L 44,47  L 42,47  L 42,48  L 44,48  L 44,50  L 45,50  L 45,51  L 46,51  L 46,52  L 50,52  L 50,51  L 51,51  L 51,50  L 52,50  L 52,40  L 51,40  L 51,41  L 50,41  L 50,42  L 49,42  L 49,44  L 48,44  L 48,45  L 49,45  L 49,46  L 50,46  L 50,47  L 49,47  L 49,48  L 48,48  L 48,47  L 47,47  L 47,46  L 46,46  L 46,45  L 47,45  L 47,44  L 44,44  L 44,45  L 43,45  Z  M 51,43  L 50,43  L 50,42  L 51,42  Z  " style="fill:rgb(246, 242, 222); fill-opacity:1.000; stroke:none;" />
 <path d="  M 44,18  L 43,18  L 43,19  L 44,19  Z  " style="fill:rgb(246, 242, 222); fill-opacity:1.000; stroke:none;" />
 <path d="  M 44,35  L 43,35  L 43,36  L 44,36  Z  " style="fill:rgb(246, 242, 222); fill-opacity:1.000; stroke:none;" />
 <path d="  M 44,43  L 43,43  L 43,44  L 44,44  Z  " style="fill:rgb(246, 242, 222); fill-opacity:1.000; stroke:none;" />
 <path d="  M 44,35  L 45,35  L 45,34  L 46,34  L 46,32  L 45,32  L 45,33  L 44,33  Z  " style="fill:rgb(246, 242, 222); fill-opacity:1.000; stroke:none;" />
 <path d="  M 44,37  L 44,38  L 45,38  L 45,37  Z  " style="fill:rgb(246, 242, 222); fill-opacity:1.000; stroke:none;" />
 <path d="  M 44,41  L 45,41  L 45,42  L 46,42  L 46,41  L 47,41  L 47,40  L 44,40  Z  " style="fill:rgb(246, 242, 222); fill-opacity:1.000; stroke:none;" />
 <path d="  M 45,36  L 45,37  L 46,37  L 46,36  Z  " style="fill:rgb(246, 242, 222); fill-opacity:1.000; stroke:none;" />
 <path d="  M 46,24  L 49,24  L 49,23  L 48,23  L 48,22  L 47,22  L 47,23  L 46,23  Z  " style="fill:rgb(246, 242, 222); fill-opacity:1.000; stroke:none;" />
 <path d="  M 47,41  L 47,42  L 48,42  L 48,41  Z  " style="fill:rgb(246, 242, 222); fill-opacity:1.000; stroke:none;" />
 <path d="  M 49,33  L 49,32  L 48,32  L 48,33  Z  " style="fill:rgb(246, 242, 222); fill-opacity:1.000; stroke:none;" />
 <path d="  M 51,24  L 52,24  L 52,23  L 51,23  Z  " style="fill:rgb(246, 242, 222); fill-opacity:1.000; stroke:none;" />
 <path d="  M 12,24  L 12,26  L 16,26  L 16,25  L 22,25  L 22,24  Z  " style="fill:rgb(238, 230, 213); fill-opacity:1.000; stroke:none;" />
 <path d="  M 14,39  L 13,39  L 13,38  L 12,38  L 12,40  L 14,40  Z  " style="fill:rgb(238, 230, 213); fill-opacity:1.000; stroke:none;" />
 <path d="  M 19,39  L 20,39  L 20,38  L 16,38  L 16,39  L 18,39  L 18,40  L 19,40  Z  " style="fill:rgb(238, 230, 213); fill-opacity:1.000; stroke:none;" />
 <path d="  M 34,40  L 34,39  L 37,39  L 37,38  L 26,38  L 26,34  L 25,34  L 25,32  L 24,32  L 24,38  L 21,38  L 21,39  L 22,39  L 22,40  L 25,40  L 25,43  L 26,43  L 26,40  Z  " style="fill:rgb(238, 230, 213); fill-opacity:1.000; stroke:none;" />
 <path d="  M 24,23  L 25,23  L 25,22  L 26,22  L 26,20  L 25,20  L 25,14  L 26,14  L 26,12  L 24,12  Z  " style="fill:rgb(238, 230, 213); fill-opacity:1.000; stroke:none;" />
 <path d="  M 24,25  L 24,26  L 25,26  L 25,27  L 26,27  L 26,26  L 33,26  L 33,25  L 31,25  L 31,24  L 25,24  L 25,25  Z  " style="fill:rgb(238, 230, 213); fill-opacity:1.000; stroke:none;" />
 <path d="  M 25,27  L 24,27  L 24,28  L 25,28  Z  " style="fill:rgb(238, 230, 213); fill-opacity:1.000; stroke:none;" />
 <path d="  M 26,48  L 26,46  L 25,46  L 25,45  L 24,45  L 24,48  Z  " style="fill:rgb(238, 230, 213); fill-opacity:1.000; stroke:none;" />
 <path d="  M 37,25  L 37,24  L 33,24  L 33,25  Z  " style="fill:rgb(238, 230, 213); fill-opacity:1.000; stroke:none;" />
 <path d="  M 38,23  L 39,23  L 39,18  L 40,18  L 40,16  L 39,16  L 39,14  L 40,14  L 40,12  L 38,12  Z  " style="fill:rgb(238, 230, 213); fill-opacity:1.000; stroke:none;" />
 <path d="  M 39,34  L 40,34  L 40,29  L 39,29  L 39,27  L 38,27  L 38,38  L 39,38  L 39,37  L 40,37  L 40,36  L 39,36  Z  " style="fill:rgb(238, 230, 213); fill-opacity:1.000; stroke:none;" />
 <path d="  M 39,41  L 38,41  L 38,48  L 40,48  L 40,44  L 39,44  Z  " style="fill:rgb(238, 230, 213); fill-opacity:1.000; stroke:none;" />
 <path d="  M 40,38  L 40,39  L 42,39  L 42,40  L 48,40  L 48,39  L 47,39  L 47,38  Z  " style="fill:rgb(238, 230, 213); fill-opacity:1.000; stroke:none;" />
 <path d="  M 52,24  L 41,24  L 41,25  L 44,25  L 44,26  L 52,26  Z  " style="fill:rgb(238, 230, 213); fill-opacity:1.000; stroke:none;" />
 <path d="  M 50,38  L 50,39  L 51,39  L 51,38  Z  " style="fill:rgb(238, 230, 213); fill-opacity:1.000; stroke:none;" />
 <path d="  M 51,39  L 51,40  L 52,40  L 52,39  Z  " style="fill:rgb(238, 230, 213); fill-opacity:1.000; stroke:none;" />
 <path d="  M 24,15  L 23,15  L 23,16  L 22,16  L 22,17  L 21,17  L 21,18  L 20,18  L 20,17  L 19,17  L 19,16  L 18,16  L 18,15  L 16,15  L 16,16  L 17,16  L 17,17  L 18,17  L 18,18  L 16,18  L 16,20  L 15,20  L 15,21  L 14,21  L 14,22  L 15,22  L 15,23  L 16,23  L 16,24  L 24,24  Z  M 19,21  L 19,20  L 21,20  L 21,19  L 22,19  L 22,20  L 23,20  L 23,21  L 22,21  L 22,22  L 20,22  L 20,21  Z  M 19,22  L 20,22  L 20,23  L 19,23  Z  " style="fill:rgb(255, 246, 230); fill-opacity:1.000; stroke:none;" />
 <path d="  M 21,29  L 21,28  L 19,28  L 19,27  L 18,27  L 18,26  L 17,26  L 17,27  L 16,27  L 16,28  L 15,28  L 15,29  L 16,29  L 16,30  L 17,30  L 17,32  L 18,32  L 18,34  L 16,34  L 16,35  L 17,35  L 17,36  L 16,36  L 16,37  L 14,37  L 14,38  L 20,38  L 20,37  L 21,37  L 21,36  L 22,36  L 22,35  L 21,35  L 21,34  L 23,34  L 23,33  L 24,33  L 24,28  L 23,28  L 23,29  L 22,29  L 22,30  L 20,30  L 20,29  Z  M 18,28  L 19,28  L 19,29  L 18,29  Z  M 22,30  L 23,30  L 23,31  L 22,31  Z  " style="fill:rgb(255, 246, 230); fill-opacity:1.000; stroke:none;" />
 <path d="  M 19,46  L 20,46  L 20,47  L 21,47  L 21,46  L 22,46  L 22,45  L 21,45  L 21,44  L 22,44  L 22,42  L 20,42  L 20,41  L 18,41  L 18,40  L 14,40  L 14,41  L 15,41  L 15,42  L 16,42  L 16,44  L 15,44  L 15,45  L 14,45  L 14,46  L 15,46  L 15,47  L 16,47  L 16,48  L 18,48  L 18,47  L 19,47  Z  M 17,45  L 18,45  L 18,46  L 17,46  Z  M 16,45  L 16,44  L 17,44  L 17,45  Z  M 20,42  L 20,43  L 19,43  L 19,42  Z  " style="fill:rgb(255, 246, 230); fill-opacity:1.000; stroke:none;" />
 <path d="  M 16,17  L 15,17  L 15,18  L 16,18  Z  " style="fill:rgb(255, 246, 230); fill-opacity:1.000; stroke:none;" />
 <path d="  M 16,33  L 15,33  L 15,34  L 16,34  Z  " style="fill:rgb(255, 246, 230); fill-opacity:1.000; stroke:none;" />
 <path d="  M 16,49  L 16,48  L 15,48  L 15,49  Z  " style="fill:rgb(255, 246, 230); fill-opacity:1.000; stroke:none;" />
 <path d="  M 20,16  L 20,17  L 21,17  L 21,16  Z  " style="fill:rgb(255, 246, 230); fill-opacity:1.000; stroke:none;" />
 <path d="  M 22,16  L 22,15  L 21,15  L 21,16  Z  " style="fill:rgb(255, 246, 230); fill-opacity:1.000; stroke:none;" />
 <path d="  M 22,27  L 21,27  L 21,28  L 22,28  Z  " style="fill:rgb(255, 246, 230); fill-opacity:1.000; stroke:none;" />
 <path d="  M 21,37  L 21,38  L 24,38  L 24,36  L 23,36  L 23,37  Z  " style="fill:rgb(255, 246, 230); fill-opacity:1.000; stroke:none;" />
 <path d="  M 23,42  L 23,41  L 24,41  L 24,40  L 21,40  L 21,41  L 22,41  L 22,42  Z  " style="fill:rgb(255, 246, 230); fill-opacity:1.000; stroke:none;" />
 <path d="  M 22,44  L 22,45  L 23,45  L 23,44  Z  " style="fill:rgb(255, 246, 230); fill-opacity:1.000; stroke:none;" />
 <path d="  M 24,43  L 24,42  L 23,42  L 23,43  Z  " style="fill:rgb(255, 246, 230); fill-opacity:1.000; stroke:none;" />
 <path d="  M 30,22  L 32,22  L 32,21  L 31,21  L 31,20  L 32,20  L 32,19  L 33,19  L 33,20  L 34,20  L 34,21  L 35,21  L 35,22  L 33,22  L 33,23  L 32,23  L 32,24  L 38,24  L 38,18  L 37,18  L 37,17  L 36,17  L 36,16  L 34,16  L 34,17  L 35,17  L 35,18  L 33,18  L 33,17  L 32,17  L 32,16  L 30,16  L 30,15  L 29,15  L 29,14  L 26,14  L 26,17  L 27,17  L 27,18  L 29,18  L 29,19  L 28,19  L 28,20  L 27,20  L 27,19  L 26,19  L 26,24  L 31,24  L 31,23  L 30,23  Z  M 36,19  L 36,18  L 37,18  L 37,19  Z  " style="fill:rgb(255, 246, 230); fill-opacity:1.000; stroke:none;" />
 <path d="  M 38,26  L 34,26  L 34,27  L 32,27  L 32,28  L 30,28  L 30,29  L 31,29  L 31,30  L 28,30  L 28,31  L 27,31  L 27,32  L 29,32  L 29,31  L 30,31  L 30,32  L 31,32  L 31,33  L 30,33  L 30,35  L 29,35  L 29,36  L 26,36  L 26,37  L 27,37  L 27,38  L 30,38  L 30,37  L 32,37  L 32,36  L 34,36  L 34,34  L 35,34  L 35,35  L 36,35  L 36,36  L 37,36  L 37,35  L 38,35  L 38,34  L 37,34  L 37,33  L 36,33  L 36,32  L 35,32  L 35,30  L 36,30  L 36,28  L 37,28  L 37,27  L 38,27  Z  " style="fill:rgb(255, 246, 230); fill-opacity:1.000; stroke:none;" />
 <path d="  M 27,40  L 26,40  L 26,41  L 27,41  Z  " style="fill:rgb(255, 246, 230); fill-opacity:1.000; stroke:none;" />
 <path d="  M 27,29  L 27,30  L 28,30  L 28,29  Z  " style="fill:rgb(255, 246, 230); fill-opacity:1.000; stroke:none;" />
 <path d="  M 31,40  L 31,41  L 30,41  L 30,42  L 29,42  L 29,41  L 27,41  L 27,42  L 28,42  L 28,44  L 30,44  L 30,45  L 32,45  L 32,46  L 31,46  L 31,47  L 33,47  L 33,48  L 35,48  L 35,47  L 36,47  L 36,46  L 37,46  L 37,45  L 38,45  L 38,42  L 37,42  L 37,43  L 35,43  L 35,42  L 36,42  L 36,41  L 34,41  L 34,40  Z  M 33,47  L 33,46  L 34,46  L 34,47  Z  M 36,45  L 36,46  L 35,46  L 35,45  Z  " style="fill:rgb(255, 246, 230); fill-opacity:1.000; stroke:none;" />
 <path d="  M 28,44  L 27,44  L 27,45  L 28,45  Z  " style="fill:rgb(255, 246, 230); fill-opacity:1.000; stroke:none;" />
 <path d="  M 29,35  L 29,34  L 28,34  L 28,35  Z  " style="fill:rgb(255, 246, 230); fill-opacity:1.000; stroke:none;" />
 <path d="  M 29,28  L 30,28  L 30,27  L 29,27  Z  " style="fill:rgb(255, 246, 230); fill-opacity:1.000; stroke:none;" />
 <path d="  M 29,33  L 30,33  L 30,32  L 29,32  Z  " style="fill:rgb(255, 246, 230); fill-opacity:1.000; stroke:none;" />
 <path d="  M 31,14  L 31,13  L 30,13  L 30,14  Z  " style="fill:rgb(255, 246, 230); fill-opacity:1.000; stroke:none;" />
 <path d="  M 33,14  L 31,14  L 31,15  L 32,15  L 32,16  L 34,16  L 34,14  L 35,14  L 35,13  L 33,13  Z  " style="fill:rgb(255, 246, 230); fill-opacity:1.000; stroke:none;" />
 <path d="  M 33,20  L 32,20  L 32,21  L 33,21  Z  " style="fill:rgb(255, 246, 230); fill-opacity:1.000; stroke:none;" />
 <path d="  M 33,37  L 32,37  L 32,38  L 33,38  Z  " style="fill:rgb(255, 246, 230); fill-opacity:1.000; stroke:none;" />
 <path d="  M 36,15  L 36,16  L 38,16  L 38,15  L 37,15  L 37,14  L 35,14  L 35,15  Z  " style="fill:rgb(255, 246, 230); fill-opacity:1.000; stroke:none;" />
 <path d="  M 35,36  L 35,37  L 36,37  L 36,36  Z  " style="fill:rgb(255, 246, 230); fill-opacity:1.000; stroke:none;" />
 <path d="  M 37,30  L 36,30  L 36,31  L 37,31  Z  " style="fill:rgb(255, 246, 230); fill-opacity:1.000; stroke:none;" />
 <path d="  M 44,15  L 44,16  L 46,16  L 46,17  L 45,17  L 45,18  L 44,18  L 44,17  L 43,17  L 43,16  L 41,16  L 41,15  L 40,15  L 40,24  L 42,24  L 42,23  L 43,23  L 43,22  L 45,22  L 45,23  L 44,23  L 44,24  L 46,24  L 46,23  L 47,23  L 47,22  L 48,22  L 48,21  L 47,21  L 47,20  L 49,20  L 49,19  L 50,19  L 50,18  L 49,18  L 49,17  L 48,17  L 48,16  L 47,16  L 47,15  L 46,15  L 46,14  L 45,14  L 45,15  Z  M 43,19  L 43,18  L 44,18  L 44,19  Z  " style="fill:rgb(255, 246, 230); fill-opacity:1.000; stroke:none;" />
 <path d="  M 41,29  L 42,29  L 42,27  L 41,27  L 41,26  L 40,26  L 40,28  L 41,28  Z  " style="fill:rgb(255, 246, 230); fill-opacity:1.000; stroke:none;" />
 <path d="  M 40,30  L 41,30  L 41,29  L 40,29  Z  " style="fill:rgb(255, 246, 230); fill-opacity:1.000; stroke:none;" />
 <path d="  M 43,28  L 43,29  L 42,29  L 42,30  L 41,30  L 41,32  L 40,32  L 40,35  L 41,35  L 41,36  L 42,36  L 42,37  L 43,37  L 43,38  L 44,38  L 44,37  L 45,37  L 45,38  L 48,38  L 48,37  L 49,37  L 49,35  L 50,35  L 50,34  L 49,34  L 49,33  L 50,33  L 50,31  L 49,31  L 49,30  L 47,30  L 47,29  L 48,29  L 48,28  L 46,28  L 46,27  L 44,27  L 44,28  Z  M 44,35  L 44,36  L 43,36  L 43,35  Z  M 49,33  L 48,33  L 48,32  L 49,32  Z  M 45,35  L 44,35  L 44,33  L 45,33  L 45,32  L 46,32  L 46,34  L 45,34  Z  M 46,37  L 45,37  L 45,36  L 46,36  Z  " style="fill:rgb(255, 246, 230); fill-opacity:1.000; stroke:none;" />
 <path d="  M 47,44  L 47,45  L 46,45  L 46,46  L 47,46  L 47,47  L 48,47  L 48,48  L 49,48  L 49,47  L 50,47  L 50,46  L 49,46  L 49,45  L 48,45  L 48,44  L 49,44  L 49,42  L 50,42  L 50,41  L 51,41  L 51,40  L 47,40  L 47,41  L 46,41  L 46,42  L 45,42  L 45,41  L 44,41  L 44,40  L 42,40  L 42,41  L 41,41  L 41,42  L 40,42  L 40,45  L 41,45  L 41,46  L 42,46  L 42,47  L 44,47  L 44,46  L 43,46  L 43,45  L 44,45  L 44,44  Z  M 43,44  L 43,43  L 44,43  L 44,44  Z  M 47,42  L 47,41  L 48,41  L 48,42  Z  " style="fill:rgb(255, 246, 230); fill-opacity:1.000; stroke:none;" />
 <path d="  M 41,15  L 42,15  L 42,14  L 41,14  Z  " style="fill:rgb(255, 246, 230); fill-opacity:1.000; stroke:none;" />
 <path d="  M 42,47  L 41,47  L 41,48  L 42,48  Z  " style="fill:rgb(255, 246, 230); fill-opacity:1.000; stroke:none;" />
 <path d="  M 47,49  L 48,49  L 48,48  L 47,48  Z  " style="fill:rgb(255, 246, 230); fill-opacity:1.000; stroke:none;" />
 <path d="  M 48,15  L 48,16  L 49,16  L 49,15  Z  " style="fill:rgb(255, 246, 230); fill-opacity:1.000; stroke:none;" />
 <path d="  M 50,22  L 48,22  L 48,23  L 49,23  L 49,24  L 51,24  L 51,23  L 50,23  Z  " style="fill:rgb(255, 246, 230); fill-opacity:1.000; stroke:none;" />
 <path d="  M 48,27  L 48,28  L 49,28  L 49,27  Z  " style="fill:rgb(255, 246, 230); fill-opacity:1.000; stroke:none;" />
 <path d="  M 49,20  L 49,21  L 50,21  L 50,20  Z  " style="fill:rgb(255, 246, 230); fill-opacity:1.000; stroke:none;" />
 <path d="  M 50,31  L 51,31  L 51,30  L 50,30  Z  " style="fill:rgb(255, 246, 230); fill-opacity:1.000; stroke:none;" />
 <path d="  M 51,43  L 51,42  L 50,42  L 50,43  Z  " style="fill:rgb(255, 246, 230); fill-opacity:1.000; stroke:none;" />
 <path d="  M 52,22  L 51,22  L 51,23  L 52,23  Z  " style="fill:rgb(255, 246, 230); fill-opacity:1.000; stroke:none;" />
 <path d="  M 24,54  L 24,56  L 25,56  L 25,55  L 39,55  L 39,56  L 40,56  L 40,54  Z  " style="fill:rgb(91, 62, 31); fill-opacity:1.000; stroke:none;" />
 <path d="  M 26,56  L 25,56  L 25,57  L 26,57  Z  " style="fill:rgb(91, 62, 31); fill-opacity:1.000; stroke:none;" />
 <path d="  M 26,57  L 26,58  L 38,58  L 38,57  Z  " style="fill:rgb(91, 62, 31); fill-opacity:1.000; stroke:none;" />
 <path d="  M 39,57  L 39,56  L 38,56  L 38,57  Z  " style="fill:rgb(91, 62, 31); fill-opacity:1.000; stroke:none;" />
 <path d="  M 24,58  L 26,58  L 26,57  L 25,57  L 25,56  L 24,56  Z  " style="fill:rgb(68, 46, 23); fill-opacity:1.000; stroke:none;" />
 <path d="  M 38,58  L 40,58  L 40,56  L 39,56  L 39,57  L 38,57  Z  " style="fill:rgb(68, 46, 23); fill-opacity:1.000; stroke:none;" />
 <path d="  M 38,57  L 38,56  L 39,56  L 39,55  L 25,55  L 25,56  L 26,56  L 26,57  Z  " style="fill:rgb(107, 72, 35); fill-opacity:1.000; stroke:none;" />
</svg>
