<?xml version="1.0" encoding="UTF-8" standalone="no"?>
<!DOCTYPE svg PUBLIC "-//W3C//DTD SVG 1.1//EN" 
  "http://www.w3.org/Graphics/SVG/1.1/DTD/svg11.dtd">
<svg width="64" height="64"
	 xmlns="http://www.w3.org/2000/svg" version="1.1">
 <path d="  M 0,6  L 1,6  L 1,5  L 2,5  L 2,3  L 3,3  L 3,2  L 2,2  L 2,1  L 3,1  L 3,0  L 0,0  Z  " style="fill:rgb(240, 238, 235); fill-opacity:1.000; stroke:none;" />
 <path d="  M 0,7  L 0,9  L 1,9  L 1,7  Z  " style="fill:rgb(240, 238, 235); fill-opacity:1.000; stroke:none;" />
 <path d="  M 3,9  L 2,9  L 2,10  L 0,10  L 0,13  L 1,13  L 1,12  L 2,12  L 2,11  L 4,11  L 4,10  L 5,10  L 5,9  L 6,9  L 6,10  L 7,10  L 7,9  L 8,9  L 8,10  L 12,10  L 12,11  L 13,11  L 13,10  L 15,10  L 15,9  L 16,9  L 16,8  L 15,8  L 15,7  L 13,7  L 13,8  L 10,8  L 10,7  L 11,7  L 11,6  L 13,6  L 13,5  L 15,5  L 15,4  L 13,4  L 13,3  L 11,3  L 11,4  L 9,4  L 9,5  L 7,5  L 7,6  L 4,6  L 4,8  L 3,8  Z  M 10,8  L 10,9  L 9,9  L 9,8  Z  " style="fill:rgb(240, 238, 235); fill-opacity:1.000; stroke:none;" />
 <path d="  M 1,15  L 0,15  L 0,16  L 1,16  Z  " style="fill:rgb(240, 238, 235); fill-opacity:1.000; stroke:none;" />
 <path d="  M 0,34  L 2,34  L 2,33  L 4,33  L 4,34  L 5,34  L 5,35  L 6,35  L 6,34  L 8,34  L 8,33  L 6,33  L 6,32  L 2,32  L 2,31  L 0,31  Z  " style="fill:rgb(240, 238, 235); fill-opacity:1.000; stroke:none;" />
 <path d="  M 0,37  L 1,37  L 1,39  L 2,39  L 2,38  L 4,38  L 4,37  L 5,37  L 5,36  L 4,36  L 4,35  L 3,35  L 3,36  L 1,36  L 1,35  L 0,35  Z  " style="fill:rgb(240, 238, 235); fill-opacity:1.000; stroke:none;" />
 <path d="  M 4,42  L 5,42  L 5,41  L 6,41  L 6,40  L 7,40  L 7,38  L 6,38  L 6,39  L 3,39  L 3,40  L 1,40  L 1,39  L 0,39  L 0,45  L 1,45  L 1,44  L 3,44  L 3,43  L 4,43  Z  " style="fill:rgb(240, 238, 235); fill-opacity:1.000; stroke:none;" />
 <path d="  M 0,64  L 6,64  L 6,63  L 4,63  L 4,62  L 3,62  L 3,61  L 2,61  L 2,60  L 1,60  L 1,58  L 0,58  Z  " style="fill:rgb(240, 238, 235); fill-opacity:1.000; stroke:none;" />
 <path d="  M 5,15  L 5,16  L 1,16  L 1,17  L 2,17  L 2,19  L 3,19  L 3,20  L 6,20  L 6,19  L 7,19  L 7,18  L 6,18  L 6,17  L 8,17  L 8,16  L 9,16  L 9,15  L 11,15  L 11,14  L 8,14  L 8,15  Z  " style="fill:rgb(240, 238, 235); fill-opacity:1.000; stroke:none;" />
 <path d="  M 3,7  L 2,7  L 2,8  L 3,8  Z  " style="fill:rgb(240, 238, 235); fill-opacity:1.000; stroke:none;" />
 <path d="  M 4,2  L 4,1  L 3,1  L 3,2  Z  " style="fill:rgb(240, 238, 235); fill-opacity:1.000; stroke:none;" />
 <path d="  M 4,1  L 5,1  L 5,0  L 4,0  Z  " style="fill:rgb(240, 238, 235); fill-opacity:1.000; stroke:none;" />
 <path d="  M 5,3  L 4,3  L 4,4  L 5,4  Z  " style="fill:rgb(240, 238, 235); fill-opacity:1.000; stroke:none;" />
 <path d="  M 5,12  L 5,11  L 4,11  L 4,12  Z  " style="fill:rgb(240, 238, 235); fill-opacity:1.000; stroke:none;" />
 <path d="  M 6,14  L 6,13  L 4,13  L 4,14  Z  " style="fill:rgb(240, 238, 235); fill-opacity:1.000; stroke:none;" />
 <path d="  M 16,54  L 15,54  L 15,55  L 14,55  L 14,54  L 13,54  L 13,53  L 12,53  L 12,52  L 11,52  L 11,51  L 10,51  L 10,50  L 9,50  L 9,51  L 6,51  L 6,52  L 4,52  L 4,53  L 5,53  L 5,54  L 10,54  L 10,55  L 11,55  L 11,56  L 12,56  L 12,57  L 16,57  L 16,58  L 18,58  L 18,59  L 23,59  L 23,58  L 22,58  L 22,57  L 21,57  L 21,56  L 19,56  L 19,55  L 18,55  L 18,56  L 17,56  L 17,55  L 16,55  Z  " style="fill:rgb(240, 238, 235); fill-opacity:1.000; stroke:none;" />
 <path d="  M 5,3  L 6,3  L 6,2  L 5,2  Z  " style="fill:rgb(240, 238, 235); fill-opacity:1.000; stroke:none;" />
 <path d="  M 5,10  L 5,11  L 6,11  L 6,10  Z  " style="fill:rgb(240, 238, 235); fill-opacity:1.000; stroke:none;" />
 <path d="  M 57,28  L 57,29  L 54,29  L 54,30  L 49,30  L 49,29  L 47,29  L 47,28  L 46,28  L 46,29  L 45,29  L 45,30  L 47,30  L 47,31  L 48,31  L 48,32  L 49,32  L 49,33  L 51,33  L 51,34  L 52,34  L 52,35  L 53,35  L 53,37  L 52,37  L 52,38  L 50,38  L 50,37  L 49,37  L 49,36  L 48,36  L 48,37  L 46,37  L 46,38  L 45,38  L 45,39  L 42,39  L 42,38  L 41,38  L 41,39  L 40,39  L 40,40  L 39,40  L 39,41  L 37,41  L 37,42  L 33,42  L 33,41  L 31,41  L 31,40  L 30,40  L 30,39  L 28,39  L 28,40  L 29,40  L 29,41  L 30,41  L 30,42  L 31,42  L 31,43  L 29,43  L 29,42  L 28,42  L 28,41  L 26,41  L 26,39  L 24,39  L 24,38  L 23,38  L 23,37  L 25,37  L 25,38  L 27,38  L 27,37  L 28,37  L 28,38  L 31,38  L 31,37  L 34,37  L 34,36  L 36,36  L 36,35  L 37,35  L 37,34  L 39,34  L 39,33  L 40,33  L 40,32  L 42,32  L 42,31  L 39,31  L 39,32  L 37,32  L 37,33  L 36,33  L 36,32  L 34,32  L 34,34  L 33,34  L 33,35  L 31,35  L 31,36  L 30,36  L 30,35  L 27,35  L 27,36  L 23,36  L 23,35  L 21,35  L 21,34  L 19,34  L 19,33  L 18,33  L 18,32  L 14,32  L 14,31  L 12,31  L 12,32  L 13,32  L 13,33  L 14,33  L 14,34  L 16,34  L 16,35  L 19,35  L 19,36  L 21,36  L 21,37  L 19,37  L 19,38  L 18,38  L 18,37  L 17,37  L 17,38  L 16,38  L 16,39  L 14,39  L 14,38  L 11,38  L 11,39  L 10,39  L 10,40  L 8,40  L 8,41  L 7,41  L 7,43  L 6,43  L 6,44  L 5,44  L 5,45  L 6,45  L 6,46  L 7,46  L 7,47  L 8,47  L 8,48  L 10,48  L 10,49  L 12,49  L 12,48  L 13,48  L 13,47  L 11,47  L 11,46  L 8,46  L 8,45  L 9,45  L 9,44  L 10,44  L 10,43  L 11,43  L 11,42  L 14,42  L 14,41  L 15,41  L 15,40  L 16,40  L 16,41  L 17,41  L 17,42  L 18,42  L 18,41  L 19,41  L 19,40  L 23,40  L 23,41  L 24,41  L 24,42  L 25,42  L 25,43  L 27,43  L 27,44  L 29,44  L 29,45  L 30,45  L 30,46  L 31,46  L 31,47  L 33,47  L 33,48  L 34,48  L 34,47  L 36,47  L 36,46  L 38,46  L 38,45  L 40,45  L 40,43  L 41,43  L 41,42  L 42,42  L 42,41  L 45,41  L 45,40  L 49,40  L 49,39  L 53,39  L 53,38  L 54,38  L 54,37  L 55,37  L 55,36  L 56,36  L 56,35  L 57,35  L 57,34  L 58,34  L 58,33  L 61,33  L 61,32  L 64,32  L 64,31  L 63,31  L 63,30  L 62,30  L 62,29  L 61,29  L 61,30  L 60,30  L 60,31  L 58,31  L 58,32  L 57,32  L 57,33  L 56,33  L 56,31  L 57,31  L 57,30  L 59,30  L 59,29  L 60,29  L 60,27  L 59,27  L 59,28  Z  M 29,37  L 29,36  L 30,36  L 30,37  Z  M 39,42  L 40,42  L 40,43  L 39,43  Z  M 31,44  L 31,43  L 32,43  L 32,44  Z  M 21,37  L 22,37  L 22,38  L 21,38  Z  M 55,34  L 55,33  L 56,33  L 56,34  Z  " style="fill:rgb(240, 238, 235); fill-opacity:1.000; stroke:none;" />
 <path d="  M 6,1  L 6,2  L 7,2  L 7,3  L 9,3  L 9,2  L 8,2  L 8,1  Z  " style="fill:rgb(240, 238, 235); fill-opacity:1.000; stroke:none;" />
 <path d="  M 7,12  L 8,12  L 8,11  L 7,11  Z  " style="fill:rgb(240, 238, 235); fill-opacity:1.000; stroke:none;" />
 <path d="  M 14,29  L 14,30  L 17,30  L 17,29  L 19,29  L 19,28  L 17,28  L 17,27  L 16,27  L 16,26  L 15,26  L 15,25  L 14,25  L 14,24  L 13,24  L 13,25  L 12,25  L 12,23  L 10,23  L 10,24  L 8,24  L 8,25  L 7,25  L 7,26  L 8,26  L 8,27  L 9,27  L 9,28  L 10,28  L 10,29  Z  " style="fill:rgb(240, 238, 235); fill-opacity:1.000; stroke:none;" />
 <path d="  M 7,35  L 7,36  L 8,36  L 8,37  L 9,37  L 9,36  L 10,36  L 10,35  L 12,35  L 12,34  L 10,34  L 10,33  L 9,33  L 9,34  L 8,34  L 8,35  Z  " style="fill:rgb(240, 238, 235); fill-opacity:1.000; stroke:none;" />
 <path d="  M 8,13  L 9,13  L 9,12  L 8,12  Z  " style="fill:rgb(240, 238, 235); fill-opacity:1.000; stroke:none;" />
 <path d="  M 9,1  L 11,1  L 11,0  L 9,0  Z  " style="fill:rgb(240, 238, 235); fill-opacity:1.000; stroke:none;" />
 <path d="  M 16,16  L 14,16  L 14,17  L 12,17  L 12,16  L 10,16  L 10,17  L 9,17  L 9,18  L 12,18  L 12,19  L 13,19  L 13,18  L 15,18  L 15,17  L 16,17  Z  " style="fill:rgb(240, 238, 235); fill-opacity:1.000; stroke:none;" />
 <path d="  M 12,11  L 10,11  L 10,12  L 12,12  Z  " style="fill:rgb(240, 238, 235); fill-opacity:1.000; stroke:none;" />
 <path d="  M 16,64  L 16,63  L 13,63  L 13,62  L 12,62  L 12,63  L 10,63  L 10,64  Z  " style="fill:rgb(240, 238, 235); fill-opacity:1.000; stroke:none;" />
 <path d="  M 12,31  L 12,30  L 11,30  L 11,31  Z  " style="fill:rgb(240, 238, 235); fill-opacity:1.000; stroke:none;" />
 <path d="  M 13,51  L 13,52  L 14,52  L 14,51  L 15,51  L 15,52  L 16,52  L 16,51  L 17,51  L 17,50  L 19,50  L 19,49  L 21,49  L 21,50  L 22,50  L 22,49  L 23,49  L 23,48  L 25,48  L 25,49  L 27,49  L 27,50  L 28,50  L 28,51  L 27,51  L 27,52  L 26,52  L 26,53  L 28,53  L 28,54  L 29,54  L 29,55  L 31,55  L 31,56  L 32,56  L 32,57  L 34,57  L 34,58  L 36,58  L 36,57  L 37,57  L 37,56  L 34,56  L 34,55  L 32,55  L 32,54  L 35,54  L 35,55  L 36,55  L 36,54  L 37,54  L 37,53  L 41,53  L 41,52  L 44,52  L 44,51  L 48,51  L 48,50  L 49,50  L 49,49  L 48,49  L 48,48  L 49,48  L 49,47  L 50,47  L 50,46  L 48,46  L 48,45  L 49,45  L 49,44  L 50,44  L 50,43  L 52,43  L 52,42  L 49,42  L 49,43  L 46,43  L 46,44  L 45,44  L 45,46  L 44,46  L 44,45  L 43,45  L 43,44  L 41,44  L 41,45  L 42,45  L 42,46  L 43,46  L 43,47  L 44,47  L 44,48  L 42,48  L 42,49  L 41,49  L 41,51  L 39,51  L 39,52  L 37,52  L 37,51  L 34,51  L 34,50  L 32,50  L 32,49  L 30,49  L 30,48  L 29,48  L 29,47  L 28,47  L 28,46  L 27,46  L 27,45  L 26,45  L 26,44  L 25,44  L 25,45  L 22,45  L 22,46  L 20,46  L 20,47  L 19,47  L 19,48  L 13,48  L 13,49  L 12,49  L 12,50  L 11,50  L 11,51  Z  M 32,53  L 32,54  L 31,54  L 31,53  Z  M 44,49  L 44,48  L 45,48  L 45,49  Z  M 29,52  L 28,52  L 28,51  L 29,51  Z  " style="fill:rgb(240, 238, 235); fill-opacity:1.000; stroke:none;" />
 <path d="  M 12,23  L 13,23  L 13,22  L 12,22  Z  " style="fill:rgb(240, 238, 235); fill-opacity:1.000; stroke:none;" />
 <path d="  M 12,36  L 13,36  L 13,35  L 12,35  Z  " style="fill:rgb(240, 238, 235); fill-opacity:1.000; stroke:none;" />
 <path d="  M 13,44  L 12,44  L 12,45  L 13,45  Z  " style="fill:rgb(240, 238, 235); fill-opacity:1.000; stroke:none;" />
 <path d="  M 13,15  L 13,16  L 14,16  L 14,15  Z  " style="fill:rgb(240, 238, 235); fill-opacity:1.000; stroke:none;" />
 <path d="  M 14,43  L 13,43  L 13,44  L 14,44  Z  " style="fill:rgb(240, 238, 235); fill-opacity:1.000; stroke:none;" />
 <path d="  M 15,43  L 15,42  L 14,42  L 14,43  Z  " style="fill:rgb(240, 238, 235); fill-opacity:1.000; stroke:none;" />
 <path d="  M 15,54  L 15,53  L 14,53  L 14,54  Z  " style="fill:rgb(240, 238, 235); fill-opacity:1.000; stroke:none;" />
 <path d="  M 14,60  L 14,61  L 15,61  L 15,60  Z  " style="fill:rgb(240, 238, 235); fill-opacity:1.000; stroke:none;" />
 <path d="  M 18,4  L 16,4  L 16,5  L 15,5  L 15,7  L 17,7  L 17,8  L 21,8  L 21,9  L 22,9  L 22,10  L 24,10  L 24,11  L 25,11  L 25,12  L 29,12  L 29,11  L 27,11  L 27,10  L 29,10  L 29,9  L 32,9  L 32,8  L 34,8  L 34,7  L 32,7  L 32,6  L 28,6  L 28,7  L 26,7  L 26,8  L 24,8  L 24,7  L 25,7  L 25,6  L 24,6  L 24,5  L 22,5  L 22,6  L 19,6  L 19,5  L 18,5  Z  " style="fill:rgb(240, 238, 235); fill-opacity:1.000; stroke:none;" />
 <path d="  M 17,43  L 15,43  L 15,44  L 16,44  L 16,45  L 18,45  L 18,44  L 17,44  Z  " style="fill:rgb(240, 238, 235); fill-opacity:1.000; stroke:none;" />
 <path d="  M 16,62  L 16,61  L 15,61  L 15,62  Z  " style="fill:rgb(240, 238, 235); fill-opacity:1.000; stroke:none;" />
 <path d="  M 19,1  L 19,2  L 20,2  L 20,3  L 22,3  L 22,4  L 24,4  L 24,3  L 27,3  L 27,4  L 29,4  L 29,3  L 28,3  L 28,2  L 29,2  L 29,1  L 32,1  L 32,0  L 16,0  L 16,1  Z  M 24,2  L 24,3  L 23,3  L 23,2  Z  " style="fill:rgb(240, 238, 235); fill-opacity:1.000; stroke:none;" />
 <path d="  M 17,15  L 16,15  L 16,16  L 17,16  Z  " style="fill:rgb(240, 238, 235); fill-opacity:1.000; stroke:none;" />
 <path d="  M 17,19  L 17,20  L 16,20  L 16,21  L 17,21  L 17,22  L 18,22  L 18,21  L 21,21  L 21,20  L 20,20  L 20,19  Z  " style="fill:rgb(240, 238, 235); fill-opacity:1.000; stroke:none;" />
 <path d="  M 17,26  L 17,25  L 16,25  L 16,26  Z  " style="fill:rgb(240, 238, 235); fill-opacity:1.000; stroke:none;" />
 <path d="  M 18,61  L 18,62  L 16,62  L 16,63  L 17,63  L 17,64  L 20,64  L 20,63  L 21,63  L 21,62  L 22,62  L 22,61  L 23,61  L 23,60  L 21,60  L 21,61  Z  " style="fill:rgb(240, 238, 235); fill-opacity:1.000; stroke:none;" />
 <path d="  M 18,55  L 18,53  L 17,53  L 17,55  Z  " style="fill:rgb(240, 238, 235); fill-opacity:1.000; stroke:none;" />
 <path d="  M 17,60  L 17,61  L 18,61  L 18,60  Z  " style="fill:rgb(240, 238, 235); fill-opacity:1.000; stroke:none;" />
 <path d="  M 21,29  L 21,28  L 20,28  L 20,29  L 19,29  L 19,30  L 18,30  L 18,32  L 21,32  L 21,33  L 24,33  L 24,34  L 27,34  L 27,33  L 26,33  L 26,32  L 29,32  L 29,30  L 28,30  L 28,31  L 25,31  L 25,30  L 23,30  L 23,29  Z  M 22,30  L 23,30  L 23,31  L 22,31  Z  " style="fill:rgb(240, 238, 235); fill-opacity:1.000; stroke:none;" />
 <path d="  M 20,42  L 19,42  L 19,43  L 18,43  L 18,44  L 21,44  L 21,43  L 20,43  Z  " style="fill:rgb(240, 238, 235); fill-opacity:1.000; stroke:none;" />
 <path d="  M 18,51  L 18,53  L 19,53  L 19,51  Z  " style="fill:rgb(240, 238, 235); fill-opacity:1.000; stroke:none;" />
 <path d="  M 20,52  L 20,53  L 21,53  L 21,52  Z  " style="fill:rgb(240, 238, 235); fill-opacity:1.000; stroke:none;" />
 <path d="  M 21,20  L 22,20  L 22,19  L 21,19  Z  " style="fill:rgb(240, 238, 235); fill-opacity:1.000; stroke:none;" />
 <path d="  M 21,43  L 22,43  L 22,42  L 21,42  Z  " style="fill:rgb(240, 238, 235); fill-opacity:1.000; stroke:none;" />
 <path d="  M 23,62  L 23,63  L 21,63  L 21,64  L 30,64  L 30,62  L 31,62  L 31,60  L 28,60  L 28,61  L 26,61  L 26,62  Z  " style="fill:rgb(240, 238, 235); fill-opacity:1.000; stroke:none;" />
 <path d="  M 22,54  L 23,54  L 23,55  L 24,55  L 24,56  L 25,56  L 25,55  L 27,55  L 27,54  L 25,54  L 25,53  L 24,53  L 24,52  L 22,52  Z  " style="fill:rgb(240, 238, 235); fill-opacity:1.000; stroke:none;" />
 <path d="  M 24,57  L 24,59  L 23,59  L 23,60  L 26,60  L 26,59  L 25,59  L 25,58  L 28,58  L 28,57  Z  " style="fill:rgb(240, 238, 235); fill-opacity:1.000; stroke:none;" />
 <path d="  M 40,25  L 40,26  L 43,26  L 43,25  L 45,25  L 45,26  L 44,26  L 44,27  L 42,27  L 42,28  L 45,28  L 45,27  L 47,27  L 47,26  L 48,26  L 48,27  L 49,27  L 49,28  L 53,28  L 53,27  L 54,27  L 54,26  L 57,26  L 57,25  L 56,25  L 56,24  L 50,24  L 50,23  L 49,23  L 49,22  L 47,22  L 47,21  L 46,21  L 46,22  L 44,22  L 44,23  L 43,23  L 43,22  L 41,22  L 41,21  L 40,21  L 40,20  L 39,20  L 39,19  L 37,19  L 37,20  L 32,20  L 32,21  L 34,21  L 34,22  L 36,22  L 36,23  L 33,23  L 33,24  L 31,24  L 31,25  L 28,25  L 28,26  L 26,26  L 26,27  L 24,27  L 24,28  L 25,28  L 25,29  L 28,29  L 28,28  L 30,28  L 30,27  L 31,27  L 31,26  L 33,26  L 33,25  Z  M 45,23  L 45,24  L 44,24  L 44,23  Z  M 36,24  L 36,23  L 37,23  L 37,24  Z  " style="fill:rgb(240, 238, 235); fill-opacity:1.000; stroke:none;" />
 <path d="  M 24,52  L 25,52  L 25,51  L 24,51  Z  " style="fill:rgb(240, 238, 235); fill-opacity:1.000; stroke:none;" />
 <path d="  M 26,5  L 26,4  L 25,4  L 25,5  Z  " style="fill:rgb(240, 238, 235); fill-opacity:1.000; stroke:none;" />
 <path d="  M 27,5  L 26,5  L 26,6  L 27,6  Z  " style="fill:rgb(240, 238, 235); fill-opacity:1.000; stroke:none;" />
 <path d="  M 28,39  L 28,38  L 27,38  L 27,39  Z  " style="fill:rgb(240, 238, 235); fill-opacity:1.000; stroke:none;" />
 <path d="  M 28,58  L 28,59  L 29,59  L 29,58  Z  " style="fill:rgb(240, 238, 235); fill-opacity:1.000; stroke:none;" />
 <path d="  M 61,6  L 61,5  L 58,5  L 58,6  L 60,6  L 60,7  L 57,7  L 57,8  L 56,8  L 56,9  L 54,9  L 54,10  L 52,10  L 52,11  L 51,11  L 51,12  L 50,12  L 50,10  L 49,10  L 49,9  L 48,9  L 48,8  L 47,8  L 47,7  L 46,7  L 46,6  L 44,6  L 44,7  L 45,7  L 45,9  L 43,9  L 43,8  L 42,8  L 42,7  L 43,7  L 43,6  L 42,6  L 42,5  L 41,5  L 41,6  L 40,6  L 40,5  L 39,5  L 39,4  L 36,4  L 36,3  L 34,3  L 34,2  L 29,2  L 29,3  L 32,3  L 32,4  L 34,4  L 34,5  L 37,5  L 37,6  L 38,6  L 38,7  L 39,7  L 39,8  L 37,8  L 37,7  L 35,7  L 35,9  L 33,9  L 33,10  L 30,10  L 30,11  L 32,11  L 32,12  L 33,12  L 33,14  L 35,14  L 35,15  L 36,15  L 36,16  L 37,16  L 37,17  L 39,17  L 39,16  L 40,16  L 40,15  L 41,15  L 41,14  L 43,14  L 43,13  L 47,13  L 47,12  L 49,12  L 49,13  L 51,13  L 51,14  L 53,14  L 53,13  L 54,13  L 54,12  L 55,12  L 55,10  L 59,10  L 59,9  L 61,9  L 61,8  L 63,8  L 63,9  L 64,9  L 64,4  L 63,4  L 63,5  L 62,5  L 62,6  Z  M 39,11  L 39,10  L 41,10  L 41,9  L 43,9  L 43,10  L 42,10  L 42,11  L 40,11  L 40,12  L 38,12  L 38,11  Z  M 45,10  L 45,9  L 46,9  L 46,10  Z  " style="fill:rgb(240, 238, 235); fill-opacity:1.000; stroke:none;" />
 <path d="  M 29,30  L 30,30  L 30,29  L 29,29  Z  " style="fill:rgb(240, 238, 235); fill-opacity:1.000; stroke:none;" />
 <path d="  M 30,56  L 29,56  L 29,57  L 30,57  Z  " style="fill:rgb(240, 238, 235); fill-opacity:1.000; stroke:none;" />
 <path d="  M 31,57  L 30,57  L 30,58  L 31,58  Z  " style="fill:rgb(240, 238, 235); fill-opacity:1.000; stroke:none;" />
 <path d="  M 31,13  L 32,13  L 32,12  L 31,12  Z  " style="fill:rgb(240, 238, 235); fill-opacity:1.000; stroke:none;" />
 <path d="  M 32,21  L 31,21  L 31,22  L 32,22  Z  " style="fill:rgb(240, 238, 235); fill-opacity:1.000; stroke:none;" />
 <path d="  M 32,58  L 31,58  L 31,59  L 32,59  Z  " style="fill:rgb(240, 238, 235); fill-opacity:1.000; stroke:none;" />
 <path d="  M 34,59  L 34,60  L 33,60  L 33,61  L 32,61  L 32,63  L 31,63  L 31,64  L 36,64  L 36,63  L 37,63  L 37,62  L 38,62  L 38,61  L 39,61  L 39,58  L 38,58  L 38,57  L 37,57  L 37,58  L 36,58  L 36,59  Z  M 34,61  L 34,62  L 33,62  L 33,61  Z  " style="fill:rgb(240, 238, 235); fill-opacity:1.000; stroke:none;" />
 <path d="  M 32,34  L 33,34  L 33,33  L 32,33  Z  " style="fill:rgb(240, 238, 235); fill-opacity:1.000; stroke:none;" />
 <path d="  M 38,38  L 38,37  L 40,37  L 40,36  L 37,36  L 37,37  L 35,37  L 35,38  L 32,38  L 32,39  L 33,39  L 33,40  L 36,40  L 36,39  L 37,39  L 37,38  Z  " style="fill:rgb(240, 238, 235); fill-opacity:1.000; stroke:none;" />
 <path d="  M 33,28  L 33,29  L 34,29  L 34,28  Z  " style="fill:rgb(240, 238, 235); fill-opacity:1.000; stroke:none;" />
 <path d="  M 35,6  L 34,6  L 34,7  L 35,7  Z  " style="fill:rgb(240, 238, 235); fill-opacity:1.000; stroke:none;" />
 <path d="  M 36,28  L 36,27  L 34,27  L 34,28  Z  " style="fill:rgb(240, 238, 235); fill-opacity:1.000; stroke:none;" />
 <path d="  M 36,27  L 37,27  L 37,26  L 36,26  Z  " style="fill:rgb(240, 238, 235); fill-opacity:1.000; stroke:none;" />
 <path d="  M 37,31  L 36,31  L 36,32  L 37,32  Z  " style="fill:rgb(240, 238, 235); fill-opacity:1.000; stroke:none;" />
 <path d="  M 37,49  L 37,50  L 38,50  L 38,49  L 40,49  L 40,48  L 39,48  L 39,47  L 37,47  L 37,48  L 36,48  L 36,49  Z  " style="fill:rgb(240, 238, 235); fill-opacity:1.000; stroke:none;" />
 <path d="  M 38,30  L 37,30  L 37,31  L 38,31  Z  " style="fill:rgb(240, 238, 235); fill-opacity:1.000; stroke:none;" />
 <path d="  M 41,16  L 41,17  L 39,17  L 39,18  L 40,18  L 40,19  L 41,19  L 41,18  L 42,18  L 42,17  L 43,17  L 43,16  Z  " style="fill:rgb(240, 238, 235); fill-opacity:1.000; stroke:none;" />
 <path d="  M 40,29  L 39,29  L 39,30  L 40,30  Z  " style="fill:rgb(240, 238, 235); fill-opacity:1.000; stroke:none;" />
 <path d="  M 44,3  L 44,1  L 45,1  L 45,0  L 40,0  L 40,1  L 42,1  L 42,2  L 43,2  L 43,3  Z  " style="fill:rgb(240, 238, 235); fill-opacity:1.000; stroke:none;" />
 <path d="  M 40,29  L 41,29  L 41,28  L 40,28  Z  " style="fill:rgb(240, 238, 235); fill-opacity:1.000; stroke:none;" />
 <path d="  M 49,33  L 48,33  L 48,32  L 46,32  L 46,31  L 44,31  L 44,30  L 42,30  L 42,31  L 43,31  L 43,32  L 42,32  L 42,33  L 41,33  L 41,34  L 40,34  L 40,35  L 41,35  L 41,36  L 42,36  L 42,37  L 43,37  L 43,38  L 44,38  L 44,37  L 45,37  L 45,36  L 46,36  L 46,35  L 47,35  L 47,34  L 49,34  Z  " style="fill:rgb(240, 238, 235); fill-opacity:1.000; stroke:none;" />
 <path d="  M 41,48  L 41,47  L 40,47  L 40,48  Z  " style="fill:rgb(240, 238, 235); fill-opacity:1.000; stroke:none;" />
 <path d="  M 43,19  L 41,19  L 41,20  L 43,20  Z  " style="fill:rgb(240, 238, 235); fill-opacity:1.000; stroke:none;" />
 <path d="  M 50,64  L 50,63  L 51,63  L 51,62  L 52,62  L 52,61  L 53,61  L 53,60  L 51,60  L 51,61  L 48,61  L 48,62  L 45,62  L 45,63  L 42,63  L 42,64  Z  " style="fill:rgb(240, 238, 235); fill-opacity:1.000; stroke:none;" />
 <path d="  M 45,15  L 43,15  L 43,16  L 45,16  Z  " style="fill:rgb(240, 238, 235); fill-opacity:1.000; stroke:none;" />
 <path d="  M 43,20  L 43,21  L 44,21  L 44,20  Z  " style="fill:rgb(240, 238, 235); fill-opacity:1.000; stroke:none;" />
 <path d="  M 44,3  L 44,4  L 45,4  L 45,3  Z  " style="fill:rgb(240, 238, 235); fill-opacity:1.000; stroke:none;" />
 <path d="  M 46,1  L 46,2  L 45,2  L 45,3  L 48,3  L 48,2  L 51,2  L 51,1  L 52,1  L 52,0  L 48,0  L 48,1  Z  " style="fill:rgb(240, 238, 235); fill-opacity:1.000; stroke:none;" />
 <path d="  M 64,17  L 64,16  L 63,16  L 63,14  L 61,14  L 61,13  L 60,13  L 60,12  L 58,12  L 58,13  L 57,13  L 57,14  L 56,14  L 56,15  L 54,15  L 54,16  L 51,16  L 51,15  L 49,15  L 49,14  L 46,14  L 46,15  L 47,15  L 47,16  L 48,16  L 48,17  L 50,17  L 50,18  L 46,18  L 46,19  L 45,19  L 45,20  L 47,20  L 47,19  L 53,19  L 53,18  L 55,18  L 55,17  L 56,17  L 56,16  L 57,16  L 57,15  L 58,15  L 58,14  L 59,14  L 59,15  L 60,15  L 60,16  L 62,16  L 62,17  Z  " style="fill:rgb(240, 238, 235); fill-opacity:1.000; stroke:none;" />
 <path d="  M 49,49  L 51,49  L 51,48  L 49,48  Z  " style="fill:rgb(240, 238, 235); fill-opacity:1.000; stroke:none;" />
 <path d="  M 52,35  L 50,35  L 50,37  L 51,37  L 51,36  L 52,36  Z  " style="fill:rgb(240, 238, 235); fill-opacity:1.000; stroke:none;" />
 <path d="  M 51,46  L 54,46  L 54,45  L 55,45  L 55,44  L 56,44  L 56,43  L 57,43  L 57,42  L 54,42  L 54,43  L 52,43  L 52,44  L 51,44  Z  M 54,45  L 53,45  L 53,44  L 54,44  Z  " style="fill:rgb(240, 238, 235); fill-opacity:1.000; stroke:none;" />
 <path d="  M 52,47  L 51,47  L 51,48  L 52,48  Z  " style="fill:rgb(240, 238, 235); fill-opacity:1.000; stroke:none;" />
 <path d="  M 53,40  L 53,41  L 52,41  L 52,42  L 54,42  L 54,41  L 55,41  L 55,40  Z  " style="fill:rgb(240, 238, 235); fill-opacity:1.000; stroke:none;" />
 <path d="  M 54,60  L 54,59  L 53,59  L 53,60  Z  " style="fill:rgb(240, 238, 235); fill-opacity:1.000; stroke:none;" />
 <path d="  M 56,2  L 55,2  L 55,3  L 56,3  Z  " style="fill:rgb(240, 238, 235); fill-opacity:1.000; stroke:none;" />
 <path d="  M 61,36  L 62,36  L 62,37  L 61,37  Z  M 64,38  L 62,38  L 62,37  L 64,37  L 64,34  L 61,34  L 61,35  L 57,35  L 57,36  L 58,36  L 58,37  L 59,37  L 59,38  L 56,38  L 56,39  L 55,39  L 55,40  L 58,40  L 58,41  L 61,41  L 61,43  L 62,43  L 62,44  L 60,44  L 60,43  L 58,43  L 58,44  L 57,44  L 57,45  L 56,45  L 56,47  L 57,47  L 57,46  L 59,46  L 59,47  L 62,47  L 62,46  L 64,46  Z  M 59,46  L 59,45  L 60,45  L 60,46  Z  M 61,38  L 61,39  L 59,39  L 59,38  Z  M 61,40  L 61,39  L 62,39  L 62,40  Z  M 60,36  L 60,37  L 59,37  L 59,36  Z  M 62,45  L 62,44  L 63,44  L 63,45  Z  " style="fill:rgb(240, 238, 235); fill-opacity:1.000; stroke:none;" />
 <path d="  M 58,3  L 60,3  L 60,4  L 62,4  L 62,3  L 63,3  L 63,2  L 64,2  L 64,0  L 56,0  L 56,2  L 58,2  Z  " style="fill:rgb(240, 238, 235); fill-opacity:1.000; stroke:none;" />
 <path d="  M 57,4  L 57,3  L 56,3  L 56,4  Z  " style="fill:rgb(240, 238, 235); fill-opacity:1.000; stroke:none;" />
 <path d="  M 64,64  L 64,59  L 63,59  L 63,60  L 61,60  L 61,61  L 60,61  L 60,62  L 58,62  L 58,63  L 56,63  L 56,64  Z  " style="fill:rgb(240, 238, 235); fill-opacity:1.000; stroke:none;" />
 <path d="  M 58,4  L 57,4  L 57,5  L 58,5  Z  " style="fill:rgb(240, 238, 235); fill-opacity:1.000; stroke:none;" />
 <path d="  M 57,26  L 57,27  L 58,27  L 58,26  Z  " style="fill:rgb(240, 238, 235); fill-opacity:1.000; stroke:none;" />
 <path d="  M 62,50  L 63,50  L 63,49  L 61,49  L 61,48  L 59,48  L 59,47  L 58,47  L 58,49  L 60,49  L 60,50  L 61,50  L 61,51  L 62,51  Z  " style="fill:rgb(240, 238, 235); fill-opacity:1.000; stroke:none;" />
 <path d="  M 63,12  L 63,13  L 64,13  L 64,10  L 63,10  L 63,11  L 61,11  L 61,12  Z  " style="fill:rgb(240, 238, 235); fill-opacity:1.000; stroke:none;" />
 <path d="  M 2,4  L 2,5  L 1,5  L 1,6  L 0,6  L 0,7  L 1,7  L 1,8  L 2,8  L 2,7  L 3,7  L 3,5  L 4,5  L 4,4  Z  " style="fill:rgb(216, 216, 206); fill-opacity:1.000; stroke:none;" />
 <path d="  M 2,19  L 2,17  L 1,17  L 1,16  L 0,16  L 0,19  L 1,19  L 1,20  L 2,20  L 2,21  L 3,21  L 3,19  Z  " style="fill:rgb(216, 216, 206); fill-opacity:1.000; stroke:none;" />
 <path d="  M 0,31  L 2,31  L 2,32  L 4,32  L 4,30  L 3,30  L 3,29  L 2,29  L 2,28  L 0,28  Z  M 2,30  L 1,30  L 1,29  L 2,29  Z  " style="fill:rgb(216, 216, 206); fill-opacity:1.000; stroke:none;" />
 <path d="  M 8,38  L 7,38  L 7,40  L 6,40  L 6,41  L 5,41  L 5,42  L 4,42  L 4,43  L 3,43  L 3,44  L 1,44  L 1,45  L 0,45  L 0,49  L 1,49  L 1,48  L 2,48  L 2,47  L 3,47  L 3,48  L 4,48  L 4,49  L 5,49  L 5,48  L 8,48  L 8,47  L 7,47  L 7,46  L 6,46  L 6,45  L 5,45  L 5,44  L 6,44  L 6,43  L 7,43  L 7,41  L 8,41  L 8,40  L 10,40  L 10,38  L 11,38  L 11,37  L 12,37  L 12,35  L 10,35  L 10,36  L 9,36  L 9,37  L 8,37  Z  " style="fill:rgb(216, 216, 206); fill-opacity:1.000; stroke:none;" />
 <path d="  M 1,51  L 1,52  L 2,52  L 2,53  L 4,53  L 4,52  L 3,52  L 3,51  Z  " style="fill:rgb(216, 216, 206); fill-opacity:1.000; stroke:none;" />
 <path d="  M 12,63  L 12,61  L 8,61  L 8,60  L 4,60  L 4,59  L 1,59  L 1,60  L 2,60  L 2,61  L 3,61  L 3,62  L 4,62  L 4,63  L 6,63  L 6,64  L 10,64  L 10,63  Z  " style="fill:rgb(216, 216, 206); fill-opacity:1.000; stroke:none;" />
 <path d="  M 5,27  L 4,27  L 4,29  L 5,29  Z  " style="fill:rgb(216, 216, 206); fill-opacity:1.000; stroke:none;" />
 <path d="  M 4,50  L 4,51  L 5,51  L 5,52  L 6,52  L 6,51  L 9,51  L 9,50  L 8,50  L 8,49  L 7,49  L 7,50  Z  " style="fill:rgb(216, 216, 206); fill-opacity:1.000; stroke:none;" />
 <path d="  M 5,54  L 5,53  L 4,53  L 4,54  Z  " style="fill:rgb(216, 216, 206); fill-opacity:1.000; stroke:none;" />
 <path d="  M 6,27  L 6,26  L 5,26  L 5,27  Z  " style="fill:rgb(216, 216, 206); fill-opacity:1.000; stroke:none;" />
 <path d="  M 9,32  L 7,32  L 7,31  L 5,31  L 5,32  L 6,32  L 6,33  L 9,33  Z  " style="fill:rgb(216, 216, 206); fill-opacity:1.000; stroke:none;" />
 <path d="  M 7,19  L 8,19  L 8,22  L 7,22  L 7,24  L 10,24  L 10,23  L 12,23  L 12,25  L 13,25  L 13,24  L 14,24  L 14,25  L 15,25  L 15,26  L 16,26  L 16,27  L 17,27  L 17,28  L 21,28  L 21,29  L 23,29  L 23,30  L 26,30  L 26,29  L 25,29  L 25,28  L 23,28  L 23,27  L 22,27  L 22,26  L 20,26  L 20,25  L 21,25  L 21,24  L 22,24  L 22,23  L 23,23  L 23,22  L 24,22  L 24,21  L 23,21  L 23,20  L 21,20  L 21,21  L 18,21  L 18,22  L 17,22  L 17,21  L 16,21  L 16,20  L 17,20  L 17,19  L 18,19  L 18,18  L 17,18  L 17,17  L 15,17  L 15,18  L 13,18  L 13,19  L 12,19  L 12,18  L 9,18  L 9,17  L 10,17  L 10,16  L 12,16  L 12,17  L 14,17  L 14,16  L 16,16  L 16,14  L 15,14  L 15,13  L 13,13  L 13,12  L 9,12  L 9,13  L 8,13  L 8,14  L 11,14  L 11,15  L 9,15  L 9,16  L 8,16  L 8,17  L 6,17  L 6,18  L 7,18  Z  M 14,16  L 13,16  L 13,15  L 14,15  Z  M 12,23  L 12,22  L 13,22  L 13,23  Z  M 12,14  L 12,13  L 13,13  L 13,14  Z  M 16,25  L 17,25  L 17,26  L 16,26  Z  " style="fill:rgb(216, 216, 206); fill-opacity:1.000; stroke:none;" />
 <path d="  M 7,19  L 6,19  L 6,20  L 7,20  Z  " style="fill:rgb(216, 216, 206); fill-opacity:1.000; stroke:none;" />
 <path d="  M 7,26  L 7,25  L 6,25  L 6,26  Z  " style="fill:rgb(216, 216, 206); fill-opacity:1.000; stroke:none;" />
 <path d="  M 8,15  L 8,14  L 7,14  L 7,15  Z  " style="fill:rgb(216, 216, 206); fill-opacity:1.000; stroke:none;" />
 <path d="  M 8,26  L 7,26  L 7,27  L 8,27  Z  " style="fill:rgb(216, 216, 206); fill-opacity:1.000; stroke:none;" />
 <path d="  M 16,36  L 17,36  L 17,35  L 16,35  L 16,34  L 14,34  L 14,33  L 13,33  L 13,32  L 12,32  L 12,31  L 11,31  L 11,29  L 10,29  L 10,28  L 9,28  L 9,27  L 8,27  L 8,29  L 7,29  L 7,30  L 8,30  L 8,31  L 9,31  L 9,32  L 10,32  L 10,34  L 12,34  L 12,35  L 14,35  L 14,36  L 13,36  L 13,37  L 16,37  Z  " style="fill:rgb(216, 216, 206); fill-opacity:1.000; stroke:none;" />
 <path d="  M 8,55  L 8,54  L 7,54  L 7,55  Z  " style="fill:rgb(216, 216, 206); fill-opacity:1.000; stroke:none;" />
 <path d="  M 10,48  L 8,48  L 8,49  L 9,49  L 9,50  L 12,50  L 12,49  L 10,49  Z  " style="fill:rgb(216, 216, 206); fill-opacity:1.000; stroke:none;" />
 <path d="  M 9,55  L 8,55  L 8,56  L 9,56  Z  " style="fill:rgb(216, 216, 206); fill-opacity:1.000; stroke:none;" />
 <path d="  M 9,56  L 9,57  L 11,57  L 11,56  Z  " style="fill:rgb(216, 216, 206); fill-opacity:1.000; stroke:none;" />
 <path d="  M 21,61  L 21,60  L 23,60  L 23,59  L 18,59  L 18,58  L 16,58  L 16,57  L 11,57  L 11,58  L 13,58  L 13,59  L 14,59  L 14,60  L 18,60  L 18,61  Z  " style="fill:rgb(216, 216, 206); fill-opacity:1.000; stroke:none;" />
 <path d="  M 15,2  L 16,2  L 16,3  L 15,3  Z  M 20,2  L 19,2  L 19,1  L 16,1  L 16,0  L 13,0  L 13,1  L 12,1  L 12,2  L 14,2  L 14,3  L 15,3  L 15,4  L 17,4  L 17,3  L 20,3  Z  " style="fill:rgb(216, 216, 206); fill-opacity:1.000; stroke:none;" />
 <path d="  M 12,48  L 12,49  L 13,49  L 13,48  Z  " style="fill:rgb(216, 216, 206); fill-opacity:1.000; stroke:none;" />
 <path d="  M 16,44  L 15,44  L 15,43  L 14,43  L 14,44  L 13,44  L 13,45  L 15,45  L 15,46  L 16,46  L 16,47  L 17,47  L 17,46  L 18,46  L 18,45  L 16,45  Z  " style="fill:rgb(216, 216, 206); fill-opacity:1.000; stroke:none;" />
 <path d="  M 15,6  L 14,6  L 14,7  L 15,7  Z  " style="fill:rgb(216, 216, 206); fill-opacity:1.000; stroke:none;" />
 <path d="  M 15,11  L 14,11  L 14,12  L 15,12  Z  " style="fill:rgb(216, 216, 206); fill-opacity:1.000; stroke:none;" />
 <path d="  M 23,48  L 23,49  L 22,49  L 22,50  L 21,50  L 21,49  L 19,49  L 19,50  L 17,50  L 17,51  L 16,51  L 16,52  L 15,52  L 15,51  L 14,51  L 14,53  L 15,53  L 15,54  L 16,54  L 16,55  L 17,55  L 17,52  L 18,52  L 18,51  L 19,51  L 19,52  L 21,52  L 21,53  L 22,53  L 22,52  L 23,52  L 23,51  L 25,51  L 25,52  L 27,52  L 27,51  L 28,51  L 28,50  L 27,50  L 27,49  L 25,49  L 25,48  Z  " style="fill:rgb(216, 216, 206); fill-opacity:1.000; stroke:none;" />
 <path d="  M 20,9  L 19,9  L 19,10  L 17,10  L 17,8  L 16,8  L 16,9  L 15,9  L 15,10  L 16,10  L 16,11  L 19,11  L 19,12  L 22,12  L 22,13  L 24,13  L 24,14  L 25,14  L 25,13  L 27,13  L 27,12  L 25,12  L 25,11  L 24,11  L 24,10  L 22,10  L 22,11  L 21,11  L 21,10  L 20,10  Z  " style="fill:rgb(216, 216, 206); fill-opacity:1.000; stroke:none;" />
 <path d="  M 17,55  L 17,56  L 18,56  L 18,55  Z  " style="fill:rgb(216, 216, 206); fill-opacity:1.000; stroke:none;" />
 <path d="  M 18,5  L 19,5  L 19,4  L 18,4  Z  " style="fill:rgb(216, 216, 206); fill-opacity:1.000; stroke:none;" />
 <path d="  M 19,35  L 18,35  L 18,36  L 19,36  Z  " style="fill:rgb(216, 216, 206); fill-opacity:1.000; stroke:none;" />
 <path d="  M 19,45  L 19,44  L 18,44  L 18,45  Z  " style="fill:rgb(216, 216, 206); fill-opacity:1.000; stroke:none;" />
 <path d="  M 21,18  L 19,18  L 19,19  L 20,19  L 20,20  L 21,20  Z  " style="fill:rgb(216, 216, 206); fill-opacity:1.000; stroke:none;" />
 <path d="  M 20,4  L 21,4  L 21,3  L 20,3  Z  " style="fill:rgb(216, 216, 206); fill-opacity:1.000; stroke:none;" />
 <path d="  M 21,4  L 21,5  L 22,5  L 22,4  Z  " style="fill:rgb(216, 216, 206); fill-opacity:1.000; stroke:none;" />
 <path d="  M 21,9  L 21,10  L 22,10  L 22,9  Z  " style="fill:rgb(216, 216, 206); fill-opacity:1.000; stroke:none;" />
 <path d="  M 23,30  L 22,30  L 22,31  L 23,31  Z  " style="fill:rgb(216, 216, 206); fill-opacity:1.000; stroke:none;" />
 <path d="  M 25,38  L 25,37  L 23,37  L 23,38  L 24,38  L 24,39  L 26,39  L 26,38  Z  " style="fill:rgb(216, 216, 206); fill-opacity:1.000; stroke:none;" />
 <path d="  M 23,59  L 24,59  L 24,58  L 23,58  Z  " style="fill:rgb(216, 216, 206); fill-opacity:1.000; stroke:none;" />
 <path d="  M 25,4  L 24,4  L 24,6  L 26,6  L 26,5  L 25,5  Z  " style="fill:rgb(216, 216, 206); fill-opacity:1.000; stroke:none;" />
 <path d="  M 26,27  L 26,26  L 25,26  L 25,27  Z  " style="fill:rgb(216, 216, 206); fill-opacity:1.000; stroke:none;" />
 <path d="  M 26,25  L 26,26  L 28,26  L 28,25  Z  " style="fill:rgb(216, 216, 206); fill-opacity:1.000; stroke:none;" />
 <path d="  M 26,41  L 27,41  L 27,39  L 26,39  Z  " style="fill:rgb(216, 216, 206); fill-opacity:1.000; stroke:none;" />
 <path d="  M 27,57  L 28,57  L 28,58  L 30,58  L 30,57  L 29,57  L 29,56  L 27,56  Z  " style="fill:rgb(216, 216, 206); fill-opacity:1.000; stroke:none;" />
 <path d="  M 27,58  L 27,59  L 28,59  L 28,58  Z  " style="fill:rgb(216, 216, 206); fill-opacity:1.000; stroke:none;" />
 <path d="  M 28,2  L 28,3  L 29,3  L 29,2  Z  " style="fill:rgb(216, 216, 206); fill-opacity:1.000; stroke:none;" />
 <path d="  M 31,22  L 31,21  L 32,21  L 32,20  L 37,20  L 37,19  L 39,19  L 39,20  L 40,20  L 40,21  L 41,21  L 41,22  L 43,22  L 43,23  L 44,23  L 44,22  L 46,22  L 46,21  L 47,21  L 47,22  L 49,22  L 49,23  L 50,23  L 50,24  L 54,24  L 54,23  L 51,23  L 51,21  L 50,21  L 50,20  L 49,20  L 49,19  L 47,19  L 47,20  L 44,20  L 44,21  L 43,21  L 43,20  L 41,20  L 41,19  L 40,19  L 40,18  L 39,18  L 39,17  L 37,17  L 37,16  L 36,16  L 36,15  L 35,15  L 35,14  L 33,14  L 33,13  L 31,13  L 31,15  L 32,15  L 32,16  L 34,16  L 34,17  L 36,17  L 36,18  L 34,18  L 34,19  L 31,19  L 31,20  L 28,20  L 28,21  L 29,21  L 29,22  Z  " style="fill:rgb(216, 216, 206); fill-opacity:1.000; stroke:none;" />
 <path d="  M 29,52  L 29,51  L 28,51  L 28,52  Z  " style="fill:rgb(216, 216, 206); fill-opacity:1.000; stroke:none;" />
 <path d="  M 34,2  L 34,3  L 36,3  L 36,4  L 39,4  L 39,5  L 40,5  L 40,6  L 41,6  L 41,5  L 42,5  L 42,4  L 40,4  L 40,3  L 38,3  L 38,2  L 37,2  L 37,1  L 36,1  L 36,0  L 32,0  L 32,1  L 29,1  L 29,2  Z  M 35,1  L 36,1  L 36,2  L 35,2  Z  " style="fill:rgb(216, 216, 206); fill-opacity:1.000; stroke:none;" />
 <path d="  M 31,25  L 31,24  L 29,24  L 29,25  Z  " style="fill:rgb(216, 216, 206); fill-opacity:1.000; stroke:none;" />
 <path d="  M 29,31  L 30,31  L 30,30  L 29,30  Z  " style="fill:rgb(216, 216, 206); fill-opacity:1.000; stroke:none;" />
 <path d="  M 29,37  L 30,37  L 30,36  L 29,36  Z  " style="fill:rgb(216, 216, 206); fill-opacity:1.000; stroke:none;" />
 <path d="  M 29,42  L 29,43  L 30,43  L 30,42  Z  " style="fill:rgb(216, 216, 206); fill-opacity:1.000; stroke:none;" />
 <path d="  M 31,13  L 31,12  L 30,12  L 30,13  Z  " style="fill:rgb(216, 216, 206); fill-opacity:1.000; stroke:none;" />
 <path d="  M 31,28  L 31,29  L 30,29  L 30,30  L 32,30  L 32,29  L 33,29  L 33,28  Z  " style="fill:rgb(216, 216, 206); fill-opacity:1.000; stroke:none;" />
 <path d="  M 30,34  L 30,36  L 31,36  L 31,35  L 33,35  L 33,34  Z  " style="fill:rgb(216, 216, 206); fill-opacity:1.000; stroke:none;" />
 <path d="  M 31,23  L 32,23  L 32,22  L 31,22  Z  " style="fill:rgb(216, 216, 206); fill-opacity:1.000; stroke:none;" />
 <path d="  M 32,44  L 32,43  L 31,43  L 31,44  Z  " style="fill:rgb(216, 216, 206); fill-opacity:1.000; stroke:none;" />
 <path d="  M 32,54  L 32,53  L 31,53  L 31,54  Z  " style="fill:rgb(216, 216, 206); fill-opacity:1.000; stroke:none;" />
 <path d="  M 34,22  L 34,21  L 32,21  L 32,22  Z  " style="fill:rgb(216, 216, 206); fill-opacity:1.000; stroke:none;" />
 <path d="  M 33,23  L 32,23  L 32,24  L 33,24  Z  " style="fill:rgb(216, 216, 206); fill-opacity:1.000; stroke:none;" />
 <path d="  M 32,54  L 32,55  L 34,55  L 34,56  L 37,56  L 37,55  L 35,55  L 35,54  Z  " style="fill:rgb(216, 216, 206); fill-opacity:1.000; stroke:none;" />
 <path d="  M 34,27  L 33,27  L 33,28  L 34,28  Z  " style="fill:rgb(216, 216, 206); fill-opacity:1.000; stroke:none;" />
 <path d="  M 33,33  L 33,34  L 34,34  L 34,33  Z  " style="fill:rgb(216, 216, 206); fill-opacity:1.000; stroke:none;" />
 <path d="  M 34,23  L 36,23  L 36,22  L 34,22  Z  " style="fill:rgb(216, 216, 206); fill-opacity:1.000; stroke:none;" />
 <path d="  M 36,23  L 36,24  L 37,24  L 37,23  Z  " style="fill:rgb(216, 216, 206); fill-opacity:1.000; stroke:none;" />
 <path d="  M 37,33  L 37,32  L 36,32  L 36,33  Z  " style="fill:rgb(216, 216, 206); fill-opacity:1.000; stroke:none;" />
 <path d="  M 36,64  L 37,64  L 37,63  L 36,63  Z  " style="fill:rgb(216, 216, 206); fill-opacity:1.000; stroke:none;" />
 <path d="  M 38,31  L 37,31  L 37,32  L 39,32  L 39,31  L 42,31  L 42,29  L 43,29  L 43,28  L 41,28  L 41,29  L 40,29  L 40,30  L 38,30  Z  " style="fill:rgb(216, 216, 206); fill-opacity:1.000; stroke:none;" />
 <path d="  M 37,55  L 40,55  L 40,54  L 41,54  L 41,53  L 37,53  Z  " style="fill:rgb(216, 216, 206); fill-opacity:1.000; stroke:none;" />
 <path d="  M 38,56  L 37,56  L 37,57  L 38,57  Z  " style="fill:rgb(216, 216, 206); fill-opacity:1.000; stroke:none;" />
 <path d="  M 38,1  L 40,1  L 40,0  L 38,0  Z  " style="fill:rgb(216, 216, 206); fill-opacity:1.000; stroke:none;" />
 <path d="  M 38,58  L 39,58  L 39,59  L 40,59  L 40,57  L 38,57  Z  " style="fill:rgb(216, 216, 206); fill-opacity:1.000; stroke:none;" />
 <path d="  M 40,42  L 39,42  L 39,43  L 40,43  Z  " style="fill:rgb(216, 216, 206); fill-opacity:1.000; stroke:none;" />
 <path d="  M 42,63  L 45,63  L 45,62  L 48,62  L 48,61  L 51,61  L 51,60  L 53,60  L 53,61  L 52,61  L 52,62  L 51,62  L 51,63  L 50,63  L 50,64  L 56,64  L 56,63  L 58,63  L 58,62  L 60,62  L 60,61  L 57,61  L 57,60  L 56,60  L 56,59  L 55,59  L 55,58  L 54,58  L 54,57  L 53,57  L 53,58  L 51,58  L 51,57  L 50,57  L 50,58  L 47,58  L 47,59  L 45,59  L 45,60  L 43,60  L 43,61  L 41,61  L 41,62  L 40,62  L 40,63  L 39,63  L 39,64  L 42,64  Z  M 53,60  L 53,59  L 54,59  L 54,60  Z  " style="fill:rgb(216, 216, 206); fill-opacity:1.000; stroke:none;" />
 <path d="  M 42,41  L 42,42  L 41,42  L 41,43  L 40,43  L 40,44  L 43,44  L 43,45  L 44,45  L 44,46  L 45,46  L 45,44  L 44,44  L 44,43  L 45,43  L 45,42  L 47,42  L 47,41  L 48,41  L 48,40  L 45,40  L 45,41  Z  " style="fill:rgb(216, 216, 206); fill-opacity:1.000; stroke:none;" />
 <path d="  M 41,1  L 41,2  L 42,2  L 42,1  Z  " style="fill:rgb(216, 216, 206); fill-opacity:1.000; stroke:none;" />
 <path d="  M 42,52  L 41,52  L 41,53  L 42,53  Z  " style="fill:rgb(216, 216, 206); fill-opacity:1.000; stroke:none;" />
 <path d="  M 43,2  L 42,2  L 42,3  L 43,3  Z  " style="fill:rgb(216, 216, 206); fill-opacity:1.000; stroke:none;" />
 <path d="  M 44,8  L 44,9  L 45,9  L 45,7  L 44,7  L 44,5  L 42,5  L 42,6  L 43,6  L 43,7  L 42,7  L 42,8  Z  " style="fill:rgb(216, 216, 206); fill-opacity:1.000; stroke:none;" />
 <path d="  M 43,3  L 43,4  L 44,4  L 44,3  Z  " style="fill:rgb(216, 216, 206); fill-opacity:1.000; stroke:none;" />
 <path d="  M 51,5  L 51,4  L 53,4  L 53,5  L 54,5  L 54,6  L 55,6  L 55,7  L 56,7  L 56,6  L 57,6  L 57,7  L 60,7  L 60,6  L 58,6  L 58,5  L 57,5  L 57,4  L 55,4  L 55,2  L 56,2  L 56,0  L 52,0  L 52,1  L 51,1  L 51,2  L 48,2  L 48,3  L 45,3  L 45,4  L 44,4  L 44,5  L 45,5  L 45,6  L 46,6  L 46,4  L 47,4  L 47,5  L 48,5  L 48,6  L 49,6  L 49,5  Z  " style="fill:rgb(216, 216, 206); fill-opacity:1.000; stroke:none;" />
 <path d="  M 45,24  L 45,23  L 44,23  L 44,24  Z  " style="fill:rgb(216, 216, 206); fill-opacity:1.000; stroke:none;" />
 <path d="  M 45,30  L 44,30  L 44,31  L 45,31  Z  " style="fill:rgb(216, 216, 206); fill-opacity:1.000; stroke:none;" />
 <path d="  M 52,50  L 54,50  L 54,49  L 53,49  L 53,48  L 51,48  L 51,49  L 49,49  L 49,50  L 48,50  L 48,51  L 44,51  L 44,53  L 46,53  L 46,54  L 47,54  L 47,55  L 48,55  L 48,54  L 49,54  L 49,53  L 50,53  L 50,52  L 51,52  L 51,51  L 52,51  Z  M 46,52  L 47,52  L 47,53  L 46,53  Z  " style="fill:rgb(216, 216, 206); fill-opacity:1.000; stroke:none;" />
 <path d="  M 45,10  L 46,10  L 46,9  L 45,9  Z  " style="fill:rgb(216, 216, 206); fill-opacity:1.000; stroke:none;" />
 <path d="  M 59,27  L 60,27  L 60,26  L 59,26  L 59,25  L 58,25  L 58,24  L 56,24  L 56,25  L 57,25  L 57,26  L 54,26  L 54,27  L 53,27  L 53,28  L 49,28  L 49,27  L 48,27  L 48,26  L 47,26  L 47,27  L 45,27  L 45,28  L 47,28  L 47,29  L 49,29  L 49,30  L 54,30  L 54,29  L 57,29  L 57,28  L 59,28  Z  M 58,26  L 58,27  L 57,27  L 57,26  Z  " style="fill:rgb(216, 216, 206); fill-opacity:1.000; stroke:none;" />
 <path d="  M 47,6  L 46,6  L 46,7  L 47,7  Z  " style="fill:rgb(216, 216, 206); fill-opacity:1.000; stroke:none;" />
 <path d="  M 46,32  L 47,32  L 47,31  L 46,31  Z  " style="fill:rgb(216, 216, 206); fill-opacity:1.000; stroke:none;" />
 <path d="  M 49,7  L 47,7  L 47,8  L 48,8  L 48,9  L 49,9  L 49,10  L 50,10  L 50,12  L 51,12  L 51,11  L 52,11  L 52,10  L 54,10  L 54,9  L 55,9  L 55,8  L 53,8  L 53,7  L 51,7  L 51,8  L 49,8  Z  M 53,9  L 52,9  L 52,8  L 53,8  Z  " style="fill:rgb(216, 216, 206); fill-opacity:1.000; stroke:none;" />
 <path d="  M 49,33  L 49,32  L 48,32  L 48,33  Z  " style="fill:rgb(216, 216, 206); fill-opacity:1.000; stroke:none;" />
 <path d="  M 48,42  L 48,43  L 49,43  L 49,42  Z  " style="fill:rgb(216, 216, 206); fill-opacity:1.000; stroke:none;" />
 <path d="  M 50,36  L 49,36  L 49,37  L 50,37  Z  " style="fill:rgb(216, 216, 206); fill-opacity:1.000; stroke:none;" />
 <path d="  M 51,40  L 51,39  L 49,39  L 49,40  Z  " style="fill:rgb(216, 216, 206); fill-opacity:1.000; stroke:none;" />
 <path d="  M 50,37  L 50,38  L 52,38  L 52,37  L 53,37  L 53,36  L 51,36  L 51,37  Z  " style="fill:rgb(216, 216, 206); fill-opacity:1.000; stroke:none;" />
 <path d="  M 55,21  L 55,19  L 56,19  L 56,18  L 57,18  L 57,16  L 56,16  L 56,17  L 55,17  L 55,18  L 53,18  L 53,19  L 51,19  L 51,20  L 53,20  L 53,21  Z  " style="fill:rgb(216, 216, 206); fill-opacity:1.000; stroke:none;" />
 <path d="  M 51,41  L 51,42  L 52,42  L 52,41  Z  " style="fill:rgb(216, 216, 206); fill-opacity:1.000; stroke:none;" />
 <path d="  M 52,41  L 53,41  L 53,40  L 52,40  Z  " style="fill:rgb(216, 216, 206); fill-opacity:1.000; stroke:none;" />
 <path d="  M 55,40  L 55,39  L 56,39  L 56,38  L 59,38  L 59,37  L 58,37  L 58,36  L 55,36  L 55,37  L 54,37  L 54,39  L 53,39  L 53,40  Z  " style="fill:rgb(216, 216, 206); fill-opacity:1.000; stroke:none;" />
 <path d="  M 55,34  L 56,34  L 56,33  L 55,33  Z  " style="fill:rgb(216, 216, 206); fill-opacity:1.000; stroke:none;" />
 <path d="  M 55,49  L 56,49  L 56,48  L 55,48  Z  " style="fill:rgb(216, 216, 206); fill-opacity:1.000; stroke:none;" />
 <path d="  M 56,7  L 56,8  L 57,8  L 57,7  Z  " style="fill:rgb(216, 216, 206); fill-opacity:1.000; stroke:none;" />
 <path d="  M 57,30  L 57,31  L 56,31  L 56,33  L 57,33  L 57,32  L 58,32  L 58,31  L 60,31  L 60,30  L 61,30  L 61,29  L 62,29  L 62,30  L 63,30  L 63,31  L 64,31  L 64,29  L 63,29  L 63,28  L 61,28  L 61,27  L 60,27  L 60,29  L 59,29  L 59,30  Z  " style="fill:rgb(216, 216, 206); fill-opacity:1.000; stroke:none;" />
 <path d="  M 58,15  L 57,15  L 57,16  L 58,16  Z  " style="fill:rgb(216, 216, 206); fill-opacity:1.000; stroke:none;" />
 <path d="  M 57,48  L 57,49  L 58,49  L 58,48  Z  " style="fill:rgb(216, 216, 206); fill-opacity:1.000; stroke:none;" />
 <path d="  M 58,15  L 59,15  L 59,14  L 58,14  Z  " style="fill:rgb(216, 216, 206); fill-opacity:1.000; stroke:none;" />
 <path d="  M 59,15  L 59,17  L 60,17  L 60,15  Z  " style="fill:rgb(216, 216, 206); fill-opacity:1.000; stroke:none;" />
 <path d="  M 59,37  L 60,37  L 60,36  L 59,36  Z  " style="fill:rgb(216, 216, 206); fill-opacity:1.000; stroke:none;" />
 <path d="  M 61,39  L 61,38  L 59,38  L 59,39  Z  " style="fill:rgb(216, 216, 206); fill-opacity:1.000; stroke:none;" />
 <path d="  M 62,50  L 62,51  L 63,51  L 63,52  L 64,52  L 64,46  L 62,46  L 62,47  L 59,47  L 59,48  L 61,48  L 61,49  L 63,49  L 63,50  Z  " style="fill:rgb(216, 216, 206); fill-opacity:1.000; stroke:none;" />
 <path d="  M 61,60  L 60,60  L 60,61  L 61,61  Z  " style="fill:rgb(216, 216, 206); fill-opacity:1.000; stroke:none;" />
 <path d="  M 61,39  L 61,40  L 62,40  L 62,39  Z  " style="fill:rgb(216, 216, 206); fill-opacity:1.000; stroke:none;" />
 <path d="  M 63,60  L 63,59  L 62,59  L 62,60  Z  " style="fill:rgb(216, 216, 206); fill-opacity:1.000; stroke:none;" />
 <path d="  M 63,18  L 64,18  L 64,17  L 63,17  Z  " style="fill:rgb(216, 216, 206); fill-opacity:1.000; stroke:none;" />
 <path d="  M 0,10  L 2,10  L 2,9  L 3,9  L 3,8  L 1,8  L 1,9  L 0,9  Z  " style="fill:rgb(255, 255, 255); fill-opacity:1.000; stroke:none;" />
 <path d="  M 4,11  L 2,11  L 2,12  L 1,12  L 1,13  L 0,13  L 0,15  L 1,15  L 1,16  L 5,16  L 5,15  L 7,15  L 7,14  L 8,14  L 8,12  L 10,12  L 10,11  L 12,11  L 12,10  L 8,10  L 8,9  L 7,9  L 7,10  L 6,10  L 6,11  L 5,11  L 5,12  L 4,12  Z  M 7,11  L 8,11  L 8,12  L 7,12  Z  M 4,13  L 6,13  L 6,14  L 4,14  Z  " style="fill:rgb(255, 255, 255); fill-opacity:1.000; stroke:none;" />
 <path d="  M 5,36  L 5,37  L 4,37  L 4,38  L 2,38  L 2,39  L 1,39  L 1,40  L 3,40  L 3,39  L 6,39  L 6,38  L 8,38  L 8,36  L 7,36  L 7,35  L 8,35  L 8,34  L 6,34  L 6,35  L 5,35  L 5,34  L 4,34  L 4,33  L 2,33  L 2,34  L 0,34  L 0,35  L 1,35  L 1,36  L 3,36  L 3,35  L 4,35  L 4,36  Z  " style="fill:rgb(255, 255, 255); fill-opacity:1.000; stroke:none;" />
 <path d="  M 0,39  L 1,39  L 1,37  L 0,37  Z  " style="fill:rgb(255, 255, 255); fill-opacity:1.000; stroke:none;" />
 <path d="  M 2,2  L 3,2  L 3,1  L 2,1  Z  " style="fill:rgb(255, 255, 255); fill-opacity:1.000; stroke:none;" />
 <path d="  M 5,0  L 5,1  L 4,1  L 4,2  L 3,2  L 3,3  L 2,3  L 2,4  L 4,4  L 4,3  L 5,3  L 5,2  L 6,2  L 6,1  L 8,1  L 8,2  L 10,2  L 10,1  L 9,1  L 9,0  Z  " style="fill:rgb(255, 255, 255); fill-opacity:1.000; stroke:none;" />
 <path d="  M 3,0  L 3,1  L 4,1  L 4,0  Z  " style="fill:rgb(255, 255, 255); fill-opacity:1.000; stroke:none;" />
 <path d="  M 3,8  L 4,8  L 4,7  L 3,7  Z  " style="fill:rgb(255, 255, 255); fill-opacity:1.000; stroke:none;" />
 <path d="  M 4,11  L 5,11  L 5,10  L 4,10  Z  " style="fill:rgb(255, 255, 255); fill-opacity:1.000; stroke:none;" />
 <path d="  M 5,9  L 5,10  L 6,10  L 6,9  Z  " style="fill:rgb(255, 255, 255); fill-opacity:1.000; stroke:none;" />
 <path d="  M 7,2  L 6,2  L 6,3  L 7,3  Z  " style="fill:rgb(255, 255, 255); fill-opacity:1.000; stroke:none;" />
 <path d="  M 8,34  L 9,34  L 9,33  L 8,33  Z  " style="fill:rgb(255, 255, 255); fill-opacity:1.000; stroke:none;" />
 <path d="  M 17,47  L 16,47  L 16,46  L 15,46  L 15,45  L 12,45  L 12,44  L 13,44  L 13,43  L 14,43  L 14,42  L 15,42  L 15,43  L 17,43  L 17,44  L 18,44  L 18,43  L 19,43  L 19,42  L 20,42  L 20,43  L 21,43  L 21,44  L 19,44  L 19,45  L 18,45  L 18,46  L 17,46  Z  M 28,47  L 29,47  L 29,48  L 30,48  L 30,49  L 32,49  L 32,50  L 34,50  L 34,51  L 37,51  L 37,52  L 39,52  L 39,51  L 41,51  L 41,49  L 42,49  L 42,48  L 44,48  L 44,47  L 43,47  L 43,46  L 42,46  L 42,45  L 41,45  L 41,44  L 40,44  L 40,45  L 38,45  L 38,46  L 36,46  L 36,47  L 34,47  L 34,48  L 33,48  L 33,47  L 31,47  L 31,46  L 30,46  L 30,45  L 29,45  L 29,44  L 27,44  L 27,43  L 25,43  L 25,42  L 24,42  L 24,41  L 23,41  L 23,40  L 19,40  L 19,41  L 18,41  L 18,42  L 17,42  L 17,41  L 16,41  L 16,40  L 15,40  L 15,41  L 14,41  L 14,42  L 11,42  L 11,43  L 10,43  L 10,44  L 9,44  L 9,45  L 8,45  L 8,46  L 11,46  L 11,47  L 13,47  L 13,48  L 19,48  L 19,47  L 20,47  L 20,46  L 22,46  L 22,45  L 25,45  L 25,44  L 26,44  L 26,45  L 27,45  L 27,46  L 28,46  Z  M 37,50  L 37,49  L 36,49  L 36,48  L 37,48  L 37,47  L 39,47  L 39,48  L 40,48  L 40,49  L 38,49  L 38,50  Z  M 21,42  L 22,42  L 22,43  L 21,43  Z  M 40,47  L 41,47  L 41,48  L 40,48  Z  " style="fill:rgb(255, 255, 255); fill-opacity:1.000; stroke:none;" />
 <path d="  M 8,54  L 8,55  L 9,55  L 9,56  L 11,56  L 11,55  L 10,55  L 10,54  Z  " style="fill:rgb(255, 255, 255); fill-opacity:1.000; stroke:none;" />
 <path d="  M 10,8  L 9,8  L 9,9  L 10,9  Z  " style="fill:rgb(255, 255, 255); fill-opacity:1.000; stroke:none;" />
 <path d="  M 14,7  L 14,6  L 15,6  L 15,5  L 13,5  L 13,6  L 11,6  L 11,7  L 10,7  L 10,8  L 13,8  L 13,7  Z  " style="fill:rgb(255, 255, 255); fill-opacity:1.000; stroke:none;" />
 <path d="  M 10,51  L 11,51  L 11,50  L 10,50  Z  " style="fill:rgb(255, 255, 255); fill-opacity:1.000; stroke:none;" />
 <path d="  M 14,29  L 11,29  L 11,30  L 12,30  L 12,31  L 14,31  L 14,32  L 18,32  L 18,30  L 19,30  L 19,29  L 17,29  L 17,30  L 14,30  Z  " style="fill:rgb(255, 255, 255); fill-opacity:1.000; stroke:none;" />
 <path d="  M 13,54  L 14,54  L 14,52  L 13,52  L 13,51  L 11,51  L 11,52  L 12,52  L 12,53  L 13,53  Z  " style="fill:rgb(255, 255, 255); fill-opacity:1.000; stroke:none;" />
 <path d="  M 11,56  L 11,57  L 12,57  L 12,56  Z  " style="fill:rgb(255, 255, 255); fill-opacity:1.000; stroke:none;" />
 <path d="  M 15,54  L 14,54  L 14,55  L 15,55  Z  " style="fill:rgb(255, 255, 255); fill-opacity:1.000; stroke:none;" />
 <path d="  M 16,5  L 16,4  L 15,4  L 15,5  Z  " style="fill:rgb(255, 255, 255); fill-opacity:1.000; stroke:none;" />
 <path d="  M 18,62  L 18,61  L 17,61  L 17,60  L 15,60  L 15,61  L 16,61  L 16,62  Z  " style="fill:rgb(255, 255, 255); fill-opacity:1.000; stroke:none;" />
 <path d="  M 17,53  L 18,53  L 18,52  L 17,52  Z  " style="fill:rgb(255, 255, 255); fill-opacity:1.000; stroke:none;" />
 <path d="  M 23,35  L 23,36  L 27,36  L 27,35  L 30,35  L 30,34  L 32,34  L 32,33  L 34,33  L 34,32  L 36,32  L 36,31  L 37,31  L 37,30  L 39,30  L 39,29  L 40,29  L 40,28  L 42,28  L 42,27  L 44,27  L 44,26  L 45,26  L 45,25  L 43,25  L 43,26  L 40,26  L 40,25  L 33,25  L 33,26  L 31,26  L 31,27  L 30,27  L 30,28  L 28,28  L 28,29  L 26,29  L 26,30  L 25,30  L 25,31  L 28,31  L 28,30  L 29,30  L 29,29  L 31,29  L 31,28  L 33,28  L 33,27  L 36,27  L 36,28  L 34,28  L 34,29  L 32,29  L 32,30  L 30,30  L 30,31  L 29,31  L 29,32  L 26,32  L 26,33  L 27,33  L 27,34  L 24,34  L 24,33  L 21,33  L 21,32  L 18,32  L 18,33  L 19,33  L 19,34  L 21,34  L 21,35  Z  M 37,26  L 37,27  L 36,27  L 36,26  Z  " style="fill:rgb(255, 255, 255); fill-opacity:1.000; stroke:none;" />
 <path d="  M 25,59  L 26,59  L 26,60  L 23,60  L 23,61  L 22,61  L 22,62  L 21,62  L 21,63  L 23,63  L 23,62  L 26,62  L 26,61  L 28,61  L 28,60  L 31,60  L 31,62  L 30,62  L 30,64  L 31,64  L 31,63  L 32,63  L 32,61  L 33,61  L 33,60  L 34,60  L 34,59  L 36,59  L 36,58  L 34,58  L 34,57  L 32,57  L 32,56  L 31,56  L 31,55  L 29,55  L 29,54  L 28,54  L 28,53  L 26,53  L 26,52  L 24,52  L 24,53  L 25,53  L 25,54  L 27,54  L 27,55  L 25,55  L 25,56  L 24,56  L 24,55  L 23,55  L 23,54  L 22,54  L 22,53  L 20,53  L 20,52  L 19,52  L 19,53  L 18,53  L 18,55  L 19,55  L 19,56  L 21,56  L 21,57  L 22,57  L 22,58  L 24,58  L 24,57  L 27,57  L 27,56  L 30,56  L 30,57  L 31,57  L 31,58  L 29,58  L 29,59  L 27,59  L 27,58  L 25,58  Z  M 32,59  L 31,59  L 31,58  L 32,58  Z  " style="fill:rgb(255, 255, 255); fill-opacity:1.000; stroke:none;" />
 <path d="  M 19,29  L 20,29  L 20,28  L 19,28  Z  " style="fill:rgb(255, 255, 255); fill-opacity:1.000; stroke:none;" />
 <path d="  M 20,63  L 20,64  L 21,64  L 21,63  Z  " style="fill:rgb(255, 255, 255); fill-opacity:1.000; stroke:none;" />
 <path d="  M 23,3  L 24,3  L 24,2  L 23,2  Z  " style="fill:rgb(255, 255, 255); fill-opacity:1.000; stroke:none;" />
 <path d="  M 23,51  L 23,52  L 24,52  L 24,51  Z  " style="fill:rgb(255, 255, 255); fill-opacity:1.000; stroke:none;" />
 <path d="  M 25,6  L 25,7  L 24,7  L 24,8  L 26,8  L 26,7  L 28,7  L 28,6  L 32,6  L 32,7  L 34,7  L 34,6  L 35,6  L 35,7  L 37,7  L 37,8  L 39,8  L 39,7  L 38,7  L 38,6  L 37,6  L 37,5  L 34,5  L 34,4  L 32,4  L 32,3  L 29,3  L 29,4  L 27,4  L 27,3  L 24,3  L 24,4  L 26,4  L 26,5  L 27,5  L 27,6  Z  " style="fill:rgb(255, 255, 255); fill-opacity:1.000; stroke:none;" />
 <path d="  M 29,11  L 29,12  L 32,12  L 32,11  L 30,11  L 30,10  L 33,10  L 33,9  L 35,9  L 35,7  L 34,7  L 34,8  L 32,8  L 32,9  L 29,9  L 29,10  L 27,10  L 27,11  Z  " style="fill:rgb(255, 255, 255); fill-opacity:1.000; stroke:none;" />
 <path d="  M 27,37  L 27,38  L 28,38  L 28,37  Z  " style="fill:rgb(255, 255, 255); fill-opacity:1.000; stroke:none;" />
 <path d="  M 36,40  L 33,40  L 33,39  L 32,39  L 32,38  L 35,38  L 35,37  L 37,37  L 37,36  L 40,36  L 40,37  L 38,37  L 38,38  L 37,38  L 37,39  L 36,39  Z  M 52,34  L 51,34  L 51,33  L 49,33  L 49,34  L 47,34  L 47,35  L 46,35  L 46,36  L 45,36  L 45,37  L 44,37  L 44,38  L 43,38  L 43,37  L 42,37  L 42,36  L 41,36  L 41,35  L 40,35  L 40,34  L 41,34  L 41,33  L 42,33  L 42,32  L 40,32  L 40,33  L 39,33  L 39,34  L 37,34  L 37,35  L 36,35  L 36,36  L 34,36  L 34,37  L 31,37  L 31,38  L 28,38  L 28,39  L 30,39  L 30,40  L 31,40  L 31,41  L 33,41  L 33,42  L 37,42  L 37,41  L 39,41  L 39,40  L 40,40  L 40,39  L 41,39  L 41,38  L 42,38  L 42,39  L 45,39  L 45,38  L 46,38  L 46,37  L 48,37  L 48,36  L 50,36  L 50,35  L 52,35  Z  " style="fill:rgb(255, 255, 255); fill-opacity:1.000; stroke:none;" />
 <path d="  M 32,12  L 32,13  L 33,13  L 33,12  Z  " style="fill:rgb(255, 255, 255); fill-opacity:1.000; stroke:none;" />
 <path d="  M 33,62  L 34,62  L 34,61  L 33,61  Z  " style="fill:rgb(255, 255, 255); fill-opacity:1.000; stroke:none;" />
 <path d="  M 36,57  L 36,58  L 37,58  L 37,57  Z  " style="fill:rgb(255, 255, 255); fill-opacity:1.000; stroke:none;" />
 <path d="  M 40,12  L 40,11  L 42,11  L 42,10  L 43,10  L 43,9  L 41,9  L 41,10  L 39,10  L 39,11  L 38,11  L 38,12  Z  " style="fill:rgb(255, 255, 255); fill-opacity:1.000; stroke:none;" />
 <path d="  M 46,14  L 49,14  L 49,15  L 51,15  L 51,16  L 54,16  L 54,15  L 56,15  L 56,14  L 57,14  L 57,13  L 58,13  L 58,12  L 60,12  L 60,13  L 61,13  L 61,14  L 63,14  L 63,16  L 64,16  L 64,13  L 63,13  L 63,12  L 61,12  L 61,11  L 63,11  L 63,10  L 64,10  L 64,9  L 63,9  L 63,8  L 61,8  L 61,9  L 59,9  L 59,10  L 55,10  L 55,12  L 54,12  L 54,13  L 53,13  L 53,14  L 51,14  L 51,13  L 49,13  L 49,12  L 47,12  L 47,13  L 43,13  L 43,14  L 41,14  L 41,15  L 40,15  L 40,16  L 39,16  L 39,17  L 41,17  L 41,16  L 43,16  L 43,17  L 42,17  L 42,18  L 41,18  L 41,19  L 43,19  L 43,20  L 45,20  L 45,19  L 46,19  L 46,18  L 50,18  L 50,17  L 48,17  L 48,16  L 47,16  L 47,15  L 46,15  Z  M 45,16  L 43,16  L 43,15  L 45,15  Z  " style="fill:rgb(255, 255, 255); fill-opacity:1.000; stroke:none;" />
 <path d="  M 43,31  L 42,31  L 42,32  L 43,32  Z  " style="fill:rgb(255, 255, 255); fill-opacity:1.000; stroke:none;" />
 <path d="  M 43,8  L 43,9  L 44,9  L 44,8  Z  " style="fill:rgb(255, 255, 255); fill-opacity:1.000; stroke:none;" />
 <path d="  M 46,1  L 48,1  L 48,0  L 45,0  L 45,1  L 44,1  L 44,3  L 45,3  L 45,2  L 46,2  Z  " style="fill:rgb(255, 255, 255); fill-opacity:1.000; stroke:none;" />
 <path d="  M 45,49  L 45,48  L 44,48  L 44,49  Z  " style="fill:rgb(255, 255, 255); fill-opacity:1.000; stroke:none;" />
 <path d="  M 62,44  L 62,43  L 61,43  L 61,41  L 58,41  L 58,40  L 55,40  L 55,41  L 54,41  L 54,42  L 57,42  L 57,43  L 56,43  L 56,44  L 55,44  L 55,45  L 54,45  L 54,46  L 51,46  L 51,44  L 52,44  L 52,43  L 50,43  L 50,44  L 49,44  L 49,45  L 48,45  L 48,46  L 50,46  L 50,47  L 49,47  L 49,48  L 51,48  L 51,47  L 52,47  L 52,48  L 53,48  L 53,49  L 55,49  L 55,48  L 58,48  L 58,47  L 59,47  L 59,46  L 57,46  L 57,47  L 56,47  L 56,45  L 57,45  L 57,44  L 58,44  L 58,43  L 60,43  L 60,44  Z  " style="fill:rgb(255, 255, 255); fill-opacity:1.000; stroke:none;" />
 <path d="  M 48,49  L 49,49  L 49,48  L 48,48  Z  " style="fill:rgb(255, 255, 255); fill-opacity:1.000; stroke:none;" />
 <path d="  M 53,36  L 53,35  L 52,35  L 52,36  Z  " style="fill:rgb(255, 255, 255); fill-opacity:1.000; stroke:none;" />
 <path d="  M 52,42  L 52,43  L 54,43  L 54,42  Z  " style="fill:rgb(255, 255, 255); fill-opacity:1.000; stroke:none;" />
 <path d="  M 54,45  L 54,44  L 53,44  L 53,45  Z  " style="fill:rgb(255, 255, 255); fill-opacity:1.000; stroke:none;" />
 <path d="  M 56,3  L 55,3  L 55,4  L 56,4  Z  " style="fill:rgb(255, 255, 255); fill-opacity:1.000; stroke:none;" />
 <path d="  M 58,4  L 58,5  L 61,5  L 61,6  L 62,6  L 62,5  L 63,5  L 63,4  L 64,4  L 64,2  L 63,2  L 63,3  L 62,3  L 62,4  L 60,4  L 60,3  L 58,3  L 58,2  L 56,2  L 56,3  L 57,3  L 57,4  Z  " style="fill:rgb(255, 255, 255); fill-opacity:1.000; stroke:none;" />
 <path d="  M 57,36  L 57,35  L 56,35  L 56,36  Z  " style="fill:rgb(255, 255, 255); fill-opacity:1.000; stroke:none;" />
 <path d="  M 64,32  L 61,32  L 61,33  L 58,33  L 58,34  L 57,34  L 57,35  L 61,35  L 61,34  L 64,34  Z  " style="fill:rgb(255, 255, 255); fill-opacity:1.000; stroke:none;" />
 <path d="  M 60,45  L 59,45  L 59,46  L 60,46  Z  " style="fill:rgb(255, 255, 255); fill-opacity:1.000; stroke:none;" />
 <path d="  M 62,37  L 62,36  L 61,36  L 61,37  Z  " style="fill:rgb(255, 255, 255); fill-opacity:1.000; stroke:none;" />
 <path d="  M 64,38  L 64,37  L 62,37  L 62,38  Z  " style="fill:rgb(255, 255, 255); fill-opacity:1.000; stroke:none;" />
 <path d="  M 62,45  L 63,45  L 63,44  L 62,44  Z  " style="fill:rgb(255, 255, 255); fill-opacity:1.000; stroke:none;" />
 <path d="  M 0,19  L 0,21  L 2,21  L 2,20  L 1,20  L 1,19  Z  " style="fill:rgb(190, 190, 174); fill-opacity:1.000; stroke:none;" />
 <path d="  M 1,30  L 2,30  L 2,29  L 1,29  Z  " style="fill:rgb(190, 190, 174); fill-opacity:1.000; stroke:none;" />
 <path d="  M 2,29  L 3,29  L 3,28  L 4,28  L 4,27  L 5,27  L 5,26  L 6,26  L 6,25  L 4,25  L 4,26  L 3,26  L 3,27  L 2,27  Z  " style="fill:rgb(190, 190, 174); fill-opacity:1.000; stroke:none;" />
 <path d="  M 4,54  L 4,53  L 3,53  L 3,54  Z  " style="fill:rgb(190, 190, 174); fill-opacity:1.000; stroke:none;" />
 <path d="  M 5,54  L 5,55  L 6,55  L 6,56  L 8,56  L 8,55  L 7,55  L 7,54  Z  " style="fill:rgb(190, 190, 174); fill-opacity:1.000; stroke:none;" />
 <path d="  M 6,23  L 6,25  L 7,25  L 7,23  Z  " style="fill:rgb(190, 190, 174); fill-opacity:1.000; stroke:none;" />
 <path d="  M 8,22  L 8,21  L 7,21  L 7,22  Z  " style="fill:rgb(190, 190, 174); fill-opacity:1.000; stroke:none;" />
 <path d="  M 12,13  L 12,14  L 13,14  L 13,13  Z  " style="fill:rgb(190, 190, 174); fill-opacity:1.000; stroke:none;" />
 <path d="  M 17,15  L 17,16  L 16,16  L 16,17  L 17,17  L 17,18  L 18,18  L 18,19  L 19,19  L 19,18  L 20,18  L 20,17  L 19,17  L 19,16  L 18,16  L 18,14  L 17,14  L 17,13  L 16,13  L 16,12  L 19,12  L 19,11  L 15,11  L 15,12  L 13,12  L 13,13  L 15,13  L 15,14  L 16,14  L 16,15  Z  " style="fill:rgb(190, 190, 174); fill-opacity:1.000; stroke:none;" />
 <path d="  M 20,13  L 22,13  L 22,12  L 20,12  Z  " style="fill:rgb(190, 190, 174); fill-opacity:1.000; stroke:none;" />
 <path d="  M 26,22  L 26,21  L 28,21  L 28,20  L 24,20  L 24,19  L 22,19  L 22,20  L 23,20  L 23,21  L 24,21  L 24,22  Z  " style="fill:rgb(190, 190, 174); fill-opacity:1.000; stroke:none;" />
 <path d="  M 50,53  L 51,53  L 51,52  L 50,52  Z  " style="fill:rgb(190, 190, 174); fill-opacity:1.000; stroke:none;" />
 <path d="  M 52,50  L 52,51  L 51,51  L 51,52  L 54,52  L 54,51  L 55,51  L 55,50  L 56,50  L 56,49  L 54,49  L 54,50  Z  " style="fill:rgb(190, 190, 174); fill-opacity:1.000; stroke:none;" />
 <path d="  M 53,58  L 53,57  L 51,57  L 51,58  Z  " style="fill:rgb(190, 190, 174); fill-opacity:1.000; stroke:none;" />
 <path d="  M 57,61  L 60,61  L 60,60  L 62,60  L 62,59  L 57,59  L 57,58  L 56,58  L 56,57  L 55,57  L 55,56  L 53,56  L 53,57  L 54,57  L 54,58  L 55,58  L 55,59  L 56,59  L 56,60  L 57,60  Z  " style="fill:rgb(190, 190, 174); fill-opacity:1.000; stroke:none;" />
 <path d="  M 57,49  L 57,48  L 56,48  L 56,49  Z  " style="fill:rgb(190, 190, 174); fill-opacity:1.000; stroke:none;" />
 <path d="  M 61,18  L 61,20  L 62,20  L 62,21  L 64,21  L 64,20  L 63,20  L 63,19  L 62,19  L 62,17  L 61,17  L 61,16  L 60,16  L 60,17  L 59,17  L 59,18  Z  " style="fill:rgb(190, 190, 174); fill-opacity:1.000; stroke:none;" />
 <path d="  M 61,28  L 63,28  L 63,27  L 62,27  L 62,26  L 61,26  L 61,25  L 59,25  L 59,26  L 60,26  L 60,27  L 61,27  Z  " style="fill:rgb(190, 190, 174); fill-opacity:1.000; stroke:none;" />
 <path d="  M 64,28  L 63,28  L 63,29  L 64,29  Z  " style="fill:rgb(190, 190, 174); fill-opacity:1.000; stroke:none;" />
 <path d="  M 64,58  L 63,58  L 63,59  L 64,59  Z  " style="fill:rgb(190, 190, 174); fill-opacity:1.000; stroke:none;" />
 <path d="  M 2,22  L 2,21  L 0,21  L 0,22  Z  " style="fill:rgb(149, 148, 136); fill-opacity:1.000; stroke:none;" />
 <path d="  M 1,28  L 2,28  L 2,27  L 1,27  Z  " style="fill:rgb(149, 148, 136); fill-opacity:1.000; stroke:none;" />
 <path d="  M 2,53  L 2,52  L 1,52  L 1,53  Z  " style="fill:rgb(149, 148, 136); fill-opacity:1.000; stroke:none;" />
 <path d="  M 2,59  L 2,58  L 1,58  L 1,59  Z  " style="fill:rgb(149, 148, 136); fill-opacity:1.000; stroke:none;" />
 <path d="  M 2,26  L 2,27  L 3,27  L 3,26  Z  " style="fill:rgb(149, 148, 136); fill-opacity:1.000; stroke:none;" />
 <path d="  M 3,53  L 2,53  L 2,54  L 3,54  Z  " style="fill:rgb(149, 148, 136); fill-opacity:1.000; stroke:none;" />
 <path d="  M 5,21  L 5,20  L 3,20  L 3,21  Z  " style="fill:rgb(149, 148, 136); fill-opacity:1.000; stroke:none;" />
 <path d="  M 4,25  L 3,25  L 3,26  L 4,26  Z  " style="fill:rgb(149, 148, 136); fill-opacity:1.000; stroke:none;" />
 <path d="  M 5,55  L 5,54  L 4,54  L 4,55  Z  " style="fill:rgb(149, 148, 136); fill-opacity:1.000; stroke:none;" />
 <path d="  M 4,60  L 5,60  L 5,59  L 4,59  Z  " style="fill:rgb(149, 148, 136); fill-opacity:1.000; stroke:none;" />
 <path d="  M 6,24  L 5,24  L 5,25  L 6,25  Z  " style="fill:rgb(149, 148, 136); fill-opacity:1.000; stroke:none;" />
 <path d="  M 6,56  L 6,55  L 5,55  L 5,56  Z  " style="fill:rgb(149, 148, 136); fill-opacity:1.000; stroke:none;" />
 <path d="  M 6,23  L 7,23  L 7,22  L 6,22  Z  " style="fill:rgb(149, 148, 136); fill-opacity:1.000; stroke:none;" />
 <path d="  M 8,20  L 7,20  L 7,21  L 8,21  Z  " style="fill:rgb(149, 148, 136); fill-opacity:1.000; stroke:none;" />
 <path d="  M 8,56  L 8,57  L 9,57  L 9,56  Z  " style="fill:rgb(149, 148, 136); fill-opacity:1.000; stroke:none;" />
 <path d="  M 8,61  L 9,61  L 9,60  L 8,60  Z  " style="fill:rgb(149, 148, 136); fill-opacity:1.000; stroke:none;" />
 <path d="  M 11,57  L 10,57  L 10,58  L 11,58  Z  " style="fill:rgb(149, 148, 136); fill-opacity:1.000; stroke:none;" />
 <path d="  M 12,58  L 12,59  L 13,59  L 13,58  Z  " style="fill:rgb(149, 148, 136); fill-opacity:1.000; stroke:none;" />
 <path d="  M 13,62  L 13,61  L 12,61  L 12,62  Z  " style="fill:rgb(149, 148, 136); fill-opacity:1.000; stroke:none;" />
 <path d="  M 13,59  L 13,60  L 14,60  L 14,59  Z  " style="fill:rgb(149, 148, 136); fill-opacity:1.000; stroke:none;" />
 <path d="  M 14,63  L 14,62  L 13,62  L 13,63  Z  " style="fill:rgb(149, 148, 136); fill-opacity:1.000; stroke:none;" />
 <path d="  M 14,62  L 15,62  L 15,61  L 14,61  Z  " style="fill:rgb(149, 148, 136); fill-opacity:1.000; stroke:none;" />
 <path d="  M 16,62  L 15,62  L 15,63  L 16,63  Z  " style="fill:rgb(149, 148, 136); fill-opacity:1.000; stroke:none;" />
 <path d="  M 16,64  L 17,64  L 17,63  L 16,63  Z  " style="fill:rgb(149, 148, 136); fill-opacity:1.000; stroke:none;" />
 <path d="  M 18,13  L 20,13  L 20,12  L 18,12  Z  " style="fill:rgb(149, 148, 136); fill-opacity:1.000; stroke:none;" />
 <path d="  M 19,16  L 19,15  L 18,15  L 18,16  Z  " style="fill:rgb(149, 148, 136); fill-opacity:1.000; stroke:none;" />
 <path d="  M 19,17  L 20,17  L 20,16  L 19,16  Z  " style="fill:rgb(149, 148, 136); fill-opacity:1.000; stroke:none;" />
 <path d="  M 22,19  L 22,18  L 21,18  L 21,19  Z  " style="fill:rgb(149, 148, 136); fill-opacity:1.000; stroke:none;" />
 <path d="  M 25,20  L 25,19  L 24,19  L 24,20  Z  " style="fill:rgb(149, 148, 136); fill-opacity:1.000; stroke:none;" />
 <path d="  M 26,14  L 26,13  L 25,13  L 25,14  Z  " style="fill:rgb(149, 148, 136); fill-opacity:1.000; stroke:none;" />
 <path d="  M 28,12  L 27,12  L 27,13  L 28,13  Z  " style="fill:rgb(149, 148, 136); fill-opacity:1.000; stroke:none;" />
 <path d="  M 30,19  L 30,20  L 31,20  L 31,19  Z  " style="fill:rgb(149, 148, 136); fill-opacity:1.000; stroke:none;" />
 <path d="  M 33,17  L 34,17  L 34,16  L 33,16  Z  " style="fill:rgb(149, 148, 136); fill-opacity:1.000; stroke:none;" />
 <path d="  M 33,18  L 33,19  L 34,19  L 34,18  Z  " style="fill:rgb(149, 148, 136); fill-opacity:1.000; stroke:none;" />
 <path d="  M 34,17  L 34,18  L 36,18  L 36,17  Z  " style="fill:rgb(149, 148, 136); fill-opacity:1.000; stroke:none;" />
 <path d="  M 40,59  L 39,59  L 39,60  L 40,60  Z  " style="fill:rgb(149, 148, 136); fill-opacity:1.000; stroke:none;" />
 <path d="  M 40,58  L 40,59  L 41,59  L 41,58  Z  " style="fill:rgb(149, 148, 136); fill-opacity:1.000; stroke:none;" />
 <path d="  M 42,57  L 41,57  L 41,58  L 42,58  Z  " style="fill:rgb(149, 148, 136); fill-opacity:1.000; stroke:none;" />
 <path d="  M 41,61  L 42,61  L 42,60  L 41,60  Z  " style="fill:rgb(149, 148, 136); fill-opacity:1.000; stroke:none;" />
 <path d="  M 43,60  L 43,59  L 42,59  L 42,60  Z  " style="fill:rgb(149, 148, 136); fill-opacity:1.000; stroke:none;" />
 <path d="  M 44,57  L 44,56  L 43,56  L 43,57  Z  " style="fill:rgb(149, 148, 136); fill-opacity:1.000; stroke:none;" />
 <path d="  M 45,56  L 46,56  L 46,55  L 45,55  Z  " style="fill:rgb(149, 148, 136); fill-opacity:1.000; stroke:none;" />
 <path d="  M 46,59  L 47,59  L 47,58  L 46,58  Z  " style="fill:rgb(149, 148, 136); fill-opacity:1.000; stroke:none;" />
 <path d="  M 49,55  L 49,54  L 48,54  L 48,55  Z  " style="fill:rgb(149, 148, 136); fill-opacity:1.000; stroke:none;" />
 <path d="  M 51,20  L 51,19  L 49,19  L 49,20  Z  " style="fill:rgb(149, 148, 136); fill-opacity:1.000; stroke:none;" />
 <path d="  M 50,54  L 50,53  L 49,53  L 49,54  Z  " style="fill:rgb(149, 148, 136); fill-opacity:1.000; stroke:none;" />
 <path d="  M 49,58  L 50,58  L 50,57  L 49,57  Z  " style="fill:rgb(149, 148, 136); fill-opacity:1.000; stroke:none;" />
 <path d="  M 52,22  L 51,22  L 51,23  L 52,23  Z  " style="fill:rgb(149, 148, 136); fill-opacity:1.000; stroke:none;" />
 <path d="  M 51,53  L 52,53  L 52,52  L 51,52  Z  " style="fill:rgb(149, 148, 136); fill-opacity:1.000; stroke:none;" />
 <path d="  M 53,21  L 53,20  L 52,20  L 52,21  Z  " style="fill:rgb(149, 148, 136); fill-opacity:1.000; stroke:none;" />
 <path d="  M 52,57  L 53,57  L 53,56  L 52,56  Z  " style="fill:rgb(149, 148, 136); fill-opacity:1.000; stroke:none;" />
 <path d="  M 54,24  L 55,24  L 55,23  L 54,23  Z  " style="fill:rgb(149, 148, 136); fill-opacity:1.000; stroke:none;" />
 <path d="  M 55,52  L 55,51  L 54,51  L 54,52  Z  " style="fill:rgb(149, 148, 136); fill-opacity:1.000; stroke:none;" />
 <path d="  M 56,19  L 55,19  L 55,20  L 56,20  Z  " style="fill:rgb(149, 148, 136); fill-opacity:1.000; stroke:none;" />
 <path d="  M 56,51  L 56,50  L 55,50  L 55,51  Z  " style="fill:rgb(149, 148, 136); fill-opacity:1.000; stroke:none;" />
 <path d="  M 56,57  L 56,56  L 55,56  L 55,57  Z  " style="fill:rgb(149, 148, 136); fill-opacity:1.000; stroke:none;" />
 <path d="  M 57,18  L 56,18  L 56,19  L 57,19  Z  " style="fill:rgb(149, 148, 136); fill-opacity:1.000; stroke:none;" />
 <path d="  M 56,49  L 56,50  L 57,50  L 57,49  Z  " style="fill:rgb(149, 148, 136); fill-opacity:1.000; stroke:none;" />
 <path d="  M 57,57  L 56,57  L 56,58  L 57,58  Z  " style="fill:rgb(149, 148, 136); fill-opacity:1.000; stroke:none;" />
 <path d="  M 57,58  L 57,59  L 58,59  L 58,58  Z  " style="fill:rgb(149, 148, 136); fill-opacity:1.000; stroke:none;" />
 <path d="  M 58,15  L 58,17  L 59,17  L 59,15  Z  " style="fill:rgb(149, 148, 136); fill-opacity:1.000; stroke:none;" />
 <path d="  M 59,25  L 59,24  L 58,24  L 58,25  Z  " style="fill:rgb(149, 148, 136); fill-opacity:1.000; stroke:none;" />
 <path d="  M 59,50  L 60,50  L 60,49  L 59,49  Z  " style="fill:rgb(149, 148, 136); fill-opacity:1.000; stroke:none;" />
 <path d="  M 60,18  L 60,19  L 61,19  L 61,18  Z  " style="fill:rgb(149, 148, 136); fill-opacity:1.000; stroke:none;" />
 <path d="  M 60,51  L 61,51  L 61,50  L 60,50  Z  " style="fill:rgb(149, 148, 136); fill-opacity:1.000; stroke:none;" />
 <path d="  M 61,20  L 61,21  L 62,21  L 62,20  Z  " style="fill:rgb(149, 148, 136); fill-opacity:1.000; stroke:none;" />
 <path d="  M 62,26  L 62,25  L 61,25  L 61,26  Z  " style="fill:rgb(149, 148, 136); fill-opacity:1.000; stroke:none;" />
 <path d="  M 63,51  L 62,51  L 62,52  L 63,52  Z  " style="fill:rgb(149, 148, 136); fill-opacity:1.000; stroke:none;" />
 <path d="  M 62,58  L 62,59  L 63,59  L 63,58  Z  " style="fill:rgb(149, 148, 136); fill-opacity:1.000; stroke:none;" />
 <path d="  M 63,22  L 64,22  L 64,21  L 63,21  Z  " style="fill:rgb(149, 148, 136); fill-opacity:1.000; stroke:none;" />
 <path d="  M 64,28  L 64,27  L 63,27  L 63,28  Z  " style="fill:rgb(149, 148, 136); fill-opacity:1.000; stroke:none;" />
 <path d="  M 2,22  L 0,22  L 0,24  L 1,24  L 1,23  L 2,23  Z  " style="fill:rgb(96, 94, 84); fill-opacity:1.000; stroke:none;" />
 <path d="  M 2,27  L 2,26  L 0,26  L 0,28  L 1,28  L 1,27  Z  " style="fill:rgb(96, 94, 84); fill-opacity:1.000; stroke:none;" />
 <path d="  M 4,54  L 2,54  L 2,53  L 1,53  L 1,52  L 0,52  L 0,54  L 1,54  L 1,55  L 3,55  L 3,56  L 5,56  L 5,55  L 4,55  Z  " style="fill:rgb(96, 94, 84); fill-opacity:1.000; stroke:none;" />
 <path d="  M 0,57  L 0,58  L 1,58  L 1,57  Z  " style="fill:rgb(96, 94, 84); fill-opacity:1.000; stroke:none;" />
 <path d="  M 4,22  L 4,21  L 2,21  L 2,22  Z  " style="fill:rgb(96, 94, 84); fill-opacity:1.000; stroke:none;" />
 <path d="  M 3,25  L 2,25  L 2,26  L 3,26  Z  " style="fill:rgb(96, 94, 84); fill-opacity:1.000; stroke:none;" />
 <path d="  M 5,25  L 5,23  L 4,23  L 4,24  L 3,24  L 3,25  Z  " style="fill:rgb(96, 94, 84); fill-opacity:1.000; stroke:none;" />
 <path d="  M 7,20  L 6,20  L 6,21  L 5,21  L 5,22  L 7,22  Z  " style="fill:rgb(96, 94, 84); fill-opacity:1.000; stroke:none;" />
 <path d="  M 6,59  L 6,58  L 5,58  L 5,59  Z  " style="fill:rgb(96, 94, 84); fill-opacity:1.000; stroke:none;" />
 <path d="  M 8,56  L 6,56  L 6,57  L 8,57  Z  " style="fill:rgb(96, 94, 84); fill-opacity:1.000; stroke:none;" />
 <path d="  M 13,61  L 13,62  L 14,62  L 14,60  L 13,60  L 13,59  L 12,59  L 12,58  L 10,58  L 10,59  L 8,59  L 8,58  L 7,58  L 7,59  L 6,59  L 6,60  L 9,60  L 9,61  Z  M 11,60  L 10,60  L 10,59  L 11,59  Z  " style="fill:rgb(96, 94, 84); fill-opacity:1.000; stroke:none;" />
 <path d="  M 7,20  L 8,20  L 8,19  L 7,19  Z  " style="fill:rgb(96, 94, 84); fill-opacity:1.000; stroke:none;" />
 <path d="  M 10,57  L 9,57  L 9,58  L 10,58  Z  " style="fill:rgb(96, 94, 84); fill-opacity:1.000; stroke:none;" />
 <path d="  M 14,62  L 14,63  L 15,63  L 15,62  Z  " style="fill:rgb(96, 94, 84); fill-opacity:1.000; stroke:none;" />
 <path d="  M 18,12  L 16,12  L 16,13  L 17,13  L 17,14  L 18,14  Z  " style="fill:rgb(96, 94, 84); fill-opacity:1.000; stroke:none;" />
 <path d="  M 22,17  L 22,16  L 21,16  L 21,15  L 20,15  L 20,14  L 18,14  L 18,15  L 19,15  L 19,16  L 20,16  L 20,18  L 22,18  L 22,19  L 24,19  L 24,18  L 25,18  L 25,17  L 26,17  L 26,16  L 24,16  L 24,17  Z  " style="fill:rgb(96, 94, 84); fill-opacity:1.000; stroke:none;" />
 <path d="  M 22,14  L 21,14  L 21,15  L 22,15  Z  " style="fill:rgb(96, 94, 84); fill-opacity:1.000; stroke:none;" />
 <path d="  M 26,20  L 28,20  L 28,19  L 27,19  L 27,18  L 26,18  Z  " style="fill:rgb(96, 94, 84); fill-opacity:1.000; stroke:none;" />
 <path d="  M 30,12  L 28,12  L 28,14  L 29,14  L 29,13  L 30,13  Z  " style="fill:rgb(96, 94, 84); fill-opacity:1.000; stroke:none;" />
 <path d="  M 31,13  L 30,13  L 30,15  L 31,15  Z  " style="fill:rgb(96, 94, 84); fill-opacity:1.000; stroke:none;" />
 <path d="  M 31,16  L 32,16  L 32,15  L 31,15  Z  " style="fill:rgb(96, 94, 84); fill-opacity:1.000; stroke:none;" />
 <path d="  M 32,17  L 33,17  L 33,16  L 32,16  Z  " style="fill:rgb(96, 94, 84); fill-opacity:1.000; stroke:none;" />
 <path d="  M 33,19  L 33,18  L 32,18  L 32,19  Z  " style="fill:rgb(96, 94, 84); fill-opacity:1.000; stroke:none;" />
 <path d="  M 44,58  L 43,58  L 43,57  L 42,57  L 42,58  L 41,58  L 41,59  L 40,59  L 40,60  L 42,60  L 42,59  L 44,59  Z  " style="fill:rgb(96, 94, 84); fill-opacity:1.000; stroke:none;" />
 <path d="  M 46,57  L 47,57  L 47,56  L 48,56  L 48,55  L 46,55  L 46,56  L 45,56  L 45,57  L 44,57  L 44,58  L 46,58  Z  " style="fill:rgb(96, 94, 84); fill-opacity:1.000; stroke:none;" />
 <path d="  M 48,56  L 48,57  L 52,57  L 52,56  L 53,56  L 53,55  L 51,55  L 51,56  Z  " style="fill:rgb(96, 94, 84); fill-opacity:1.000; stroke:none;" />
 <path d="  M 50,54  L 49,54  L 49,55  L 50,55  Z  " style="fill:rgb(96, 94, 84); fill-opacity:1.000; stroke:none;" />
 <path d="  M 53,22  L 53,21  L 52,21  L 52,20  L 50,20  L 50,21  L 51,21  L 51,22  Z  " style="fill:rgb(96, 94, 84); fill-opacity:1.000; stroke:none;" />
 <path d="  M 50,53  L 50,54  L 52,54  L 52,53  Z  " style="fill:rgb(96, 94, 84); fill-opacity:1.000; stroke:none;" />
 <path d="  M 53,52  L 52,52  L 52,53  L 53,53  Z  " style="fill:rgb(96, 94, 84); fill-opacity:1.000; stroke:none;" />
 <path d="  M 54,22  L 53,22  L 53,23  L 54,23  Z  " style="fill:rgb(96, 94, 84); fill-opacity:1.000; stroke:none;" />
 <path d="  M 57,23  L 57,22  L 58,22  L 58,21  L 57,21  L 57,20  L 55,20  L 55,21  L 54,21  L 54,22  L 55,22  L 55,23  Z  " style="fill:rgb(96, 94, 84); fill-opacity:1.000; stroke:none;" />
 <path d="  M 55,55  L 54,55  L 54,56  L 55,56  Z  " style="fill:rgb(96, 94, 84); fill-opacity:1.000; stroke:none;" />
 <path d="  M 58,49  L 57,49  L 57,50  L 56,50  L 56,52  L 55,52  L 55,53  L 56,53  L 56,54  L 57,54  L 57,53  L 58,53  L 58,52  L 59,52  L 59,51  L 60,51  L 60,50  L 58,50  Z  " style="fill:rgb(96, 94, 84); fill-opacity:1.000; stroke:none;" />
 <path d="  M 56,56  L 56,57  L 57,57  L 57,56  Z  " style="fill:rgb(96, 94, 84); fill-opacity:1.000; stroke:none;" />
 <path d="  M 57,19  L 58,19  L 58,18  L 59,18  L 59,17  L 58,17  L 58,16  L 57,16  Z  " style="fill:rgb(96, 94, 84); fill-opacity:1.000; stroke:none;" />
 <path d="  M 62,59  L 62,58  L 60,58  L 60,57  L 57,57  L 57,58  L 58,58  L 58,59  Z  " style="fill:rgb(96, 94, 84); fill-opacity:1.000; stroke:none;" />
 <path d="  M 58,20  L 59,20  L 59,19  L 58,19  Z  " style="fill:rgb(96, 94, 84); fill-opacity:1.000; stroke:none;" />
 <path d="  M 59,19  L 60,19  L 60,18  L 59,18  Z  " style="fill:rgb(96, 94, 84); fill-opacity:1.000; stroke:none;" />
 <path d="  M 62,24  L 62,23  L 60,23  L 60,24  L 59,24  L 59,25  L 62,25  L 62,27  L 64,27  L 64,25  L 63,25  L 63,24  Z  " style="fill:rgb(96, 94, 84); fill-opacity:1.000; stroke:none;" />
 <path d="  M 59,53  L 60,53  L 60,52  L 59,52  Z  " style="fill:rgb(96, 94, 84); fill-opacity:1.000; stroke:none;" />
 <path d="  M 60,51  L 60,52  L 62,52  L 62,51  Z  " style="fill:rgb(96, 94, 84); fill-opacity:1.000; stroke:none;" />
 <path d="  M 62,21  L 62,22  L 63,22  L 63,21  Z  " style="fill:rgb(96, 94, 84); fill-opacity:1.000; stroke:none;" />
 <path d="  M 62,53  L 63,53  L 63,52  L 62,52  Z  " style="fill:rgb(96, 94, 84); fill-opacity:1.000; stroke:none;" />
 <path d="  M 62,57  L 62,58  L 64,58  L 64,56  L 63,56  L 63,57  Z  " style="fill:rgb(96, 94, 84); fill-opacity:1.000; stroke:none;" />
 <path d="  M 64,23  L 64,22  L 63,22  L 63,23  Z  " style="fill:rgb(96, 94, 84); fill-opacity:1.000; stroke:none;" />
 <path d="  M 2,22  L 2,23  L 1,23  L 1,24  L 0,24  L 0,26  L 2,26  L 2,25  L 3,25  L 3,24  L 4,24  L 4,23  L 5,23  L 5,24  L 6,24  L 6,22  L 5,22  L 5,21  L 4,21  L 4,22  Z  " style="fill:rgb(54, 52, 42); fill-opacity:1.000; stroke:none;" />
 <path d="  M 1,58  L 2,58  L 2,59  L 5,59  L 5,58  L 6,58  L 6,59  L 7,59  L 7,58  L 8,58  L 8,59  L 10,59  L 10,58  L 9,58  L 9,57  L 6,57  L 6,56  L 3,56  L 3,55  L 1,55  L 1,54  L 0,54  L 0,57  L 1,57  Z  " style="fill:rgb(54, 52, 42); fill-opacity:1.000; stroke:none;" />
 <path d="  M 6,20  L 5,20  L 5,21  L 6,21  Z  " style="fill:rgb(54, 52, 42); fill-opacity:1.000; stroke:none;" />
 <path d="  M 5,60  L 6,60  L 6,59  L 5,59  Z  " style="fill:rgb(54, 52, 42); fill-opacity:1.000; stroke:none;" />
 <path d="  M 11,60  L 11,59  L 10,59  L 10,60  Z  " style="fill:rgb(54, 52, 42); fill-opacity:1.000; stroke:none;" />
 <path d="  M 24,18  L 24,19  L 25,19  L 25,20  L 26,20  L 26,18  L 27,18  L 27,19  L 28,19  L 28,20  L 30,20  L 30,19  L 32,19  L 32,18  L 34,18  L 34,17  L 32,17  L 32,16  L 31,16  L 31,15  L 30,15  L 30,13  L 29,13  L 29,14  L 28,14  L 28,13  L 26,13  L 26,14  L 24,14  L 24,13  L 18,13  L 18,14  L 20,14  L 20,15  L 21,15  L 21,16  L 22,16  L 22,17  L 24,17  L 24,16  L 26,16  L 26,17  L 25,17  L 25,18  Z  M 22,15  L 21,15  L 21,14  L 22,14  Z  " style="fill:rgb(54, 52, 42); fill-opacity:1.000; stroke:none;" />
 <path d="  M 44,58  L 44,57  L 43,57  L 43,58  Z  " style="fill:rgb(54, 52, 42); fill-opacity:1.000; stroke:none;" />
 <path d="  M 44,56  L 44,57  L 45,57  L 45,56  Z  " style="fill:rgb(54, 52, 42); fill-opacity:1.000; stroke:none;" />
 <path d="  M 44,58  L 44,59  L 46,59  L 46,58  Z  " style="fill:rgb(54, 52, 42); fill-opacity:1.000; stroke:none;" />
 <path d="  M 47,56  L 47,57  L 46,57  L 46,58  L 49,58  L 49,57  L 48,57  L 48,56  Z  " style="fill:rgb(54, 52, 42); fill-opacity:1.000; stroke:none;" />
 <path d="  M 53,52  L 53,53  L 52,53  L 52,54  L 50,54  L 50,55  L 48,55  L 48,56  L 51,56  L 51,55  L 53,55  L 53,56  L 54,56  L 54,55  L 55,55  L 55,56  L 57,56  L 57,57  L 60,57  L 60,58  L 62,58  L 62,57  L 63,57  L 63,56  L 64,56  L 64,52  L 63,52  L 63,53  L 62,53  L 62,52  L 60,52  L 60,53  L 59,53  L 59,52  L 58,52  L 58,53  L 57,53  L 57,54  L 56,54  L 56,53  L 55,53  L 55,52  Z  " style="fill:rgb(54, 52, 42); fill-opacity:1.000; stroke:none;" />
 <path d="  M 53,23  L 53,22  L 52,22  L 52,23  Z  " style="fill:rgb(54, 52, 42); fill-opacity:1.000; stroke:none;" />
 <path d="  M 53,21  L 53,22  L 54,22  L 54,21  Z  " style="fill:rgb(54, 52, 42); fill-opacity:1.000; stroke:none;" />
 <path d="  M 54,22  L 54,23  L 55,23  L 55,22  Z  " style="fill:rgb(54, 52, 42); fill-opacity:1.000; stroke:none;" />
 <path d="  M 63,23  L 63,22  L 62,22  L 62,21  L 61,21  L 61,19  L 59,19  L 59,20  L 58,20  L 58,19  L 56,19  L 56,20  L 57,20  L 57,21  L 58,21  L 58,22  L 57,22  L 57,23  L 55,23  L 55,24  L 60,24  L 60,23  L 62,23  L 62,24  L 63,24  L 63,25  L 64,25  L 64,23  Z  " style="fill:rgb(54, 52, 42); fill-opacity:1.000; stroke:none;" />
 <path d="  M 55,52  L 56,52  L 56,51  L 55,51  Z  " style="fill:rgb(54, 52, 42); fill-opacity:1.000; stroke:none;" />
 <path d="  M 59,18  L 58,18  L 58,19  L 59,19  Z  " style="fill:rgb(54, 52, 42); fill-opacity:1.000; stroke:none;" />
 <path d="  M 58,50  L 59,50  L 59,49  L 58,49  Z  " style="fill:rgb(54, 52, 42); fill-opacity:1.000; stroke:none;" />
 <path d="  M 60,52  L 60,51  L 59,51  L 59,52  Z  " style="fill:rgb(54, 52, 42); fill-opacity:1.000; stroke:none;" />
 <path d="  M 3,48  L 3,47  L 2,47  L 2,48  L 1,48  L 1,49  L 0,49  L 0,52  L 1,52  L 1,51  L 3,51  L 3,52  L 5,52  L 5,51  L 4,51  L 4,50  L 7,50  L 7,49  L 8,49  L 8,48  L 5,48  L 5,49  L 4,49  L 4,48  Z  " style="fill:rgb(222, 211, 213); fill-opacity:1.000; stroke:none;" />
 <path d="  M 9,5  L 9,4  L 11,4  L 11,3  L 13,3  L 13,4  L 15,4  L 15,3  L 14,3  L 14,2  L 12,2  L 12,1  L 13,1  L 13,0  L 11,0  L 11,1  L 10,1  L 10,2  L 9,2  L 9,3  L 5,3  L 5,4  L 4,4  L 4,5  L 3,5  L 3,7  L 4,7  L 4,6  L 7,6  L 7,5  Z  " style="fill:rgb(222, 211, 213); fill-opacity:1.000; stroke:none;" />
 <path d="  M 8,27  L 7,27  L 7,26  L 6,26  L 6,27  L 5,27  L 5,29  L 4,29  L 4,28  L 3,28  L 3,30  L 4,30  L 4,32  L 5,32  L 5,31  L 7,31  L 7,32  L 9,32  L 9,31  L 8,31  L 8,30  L 7,30  L 7,29  L 8,29  Z  " style="fill:rgb(222, 211, 213); fill-opacity:1.000; stroke:none;" />
 <path d="  M 8,25  L 8,24  L 7,24  L 7,25  Z  " style="fill:rgb(222, 211, 213); fill-opacity:1.000; stroke:none;" />
 <path d="  M 9,50  L 9,49  L 8,49  L 8,50  Z  " style="fill:rgb(222, 211, 213); fill-opacity:1.000; stroke:none;" />
 <path d="  M 10,32  L 9,32  L 9,33  L 10,33  Z  " style="fill:rgb(222, 211, 213); fill-opacity:1.000; stroke:none;" />
 <path d="  M 11,39  L 11,38  L 10,38  L 10,39  Z  " style="fill:rgb(222, 211, 213); fill-opacity:1.000; stroke:none;" />
 <path d="  M 18,36  L 18,35  L 17,35  L 17,36  L 16,36  L 16,37  L 13,37  L 13,36  L 12,36  L 12,37  L 11,37  L 11,38  L 14,38  L 14,39  L 16,39  L 16,38  L 17,38  L 17,37  L 18,37  L 18,38  L 19,38  L 19,37  L 21,37  L 21,36  Z  " style="fill:rgb(222, 211, 213); fill-opacity:1.000; stroke:none;" />
 <path d="  M 13,11  L 12,11  L 12,12  L 14,12  L 14,11  L 16,11  L 16,10  L 13,10  Z  " style="fill:rgb(222, 211, 213); fill-opacity:1.000; stroke:none;" />
 <path d="  M 14,35  L 13,35  L 13,36  L 14,36  Z  " style="fill:rgb(222, 211, 213); fill-opacity:1.000; stroke:none;" />
 <path d="  M 16,2  L 15,2  L 15,3  L 16,3  Z  " style="fill:rgb(222, 211, 213); fill-opacity:1.000; stroke:none;" />
 <path d="  M 17,7  L 15,7  L 15,8  L 17,8  Z  " style="fill:rgb(222, 211, 213); fill-opacity:1.000; stroke:none;" />
 <path d="  M 19,4  L 19,6  L 22,6  L 22,5  L 21,5  L 21,4  L 20,4  L 20,3  L 17,3  L 17,4  Z  " style="fill:rgb(222, 211, 213); fill-opacity:1.000; stroke:none;" />
 <path d="  M 17,8  L 17,10  L 19,10  L 19,9  L 20,9  L 20,10  L 21,10  L 21,8  Z  " style="fill:rgb(222, 211, 213); fill-opacity:1.000; stroke:none;" />
 <path d="  M 21,25  L 20,25  L 20,26  L 22,26  L 22,27  L 23,27  L 23,28  L 24,28  L 24,27  L 25,27  L 25,26  L 26,26  L 26,25  L 29,25  L 29,24  L 32,24  L 32,23  L 31,23  L 31,22  L 29,22  L 29,21  L 26,21  L 26,22  L 23,22  L 23,23  L 22,23  L 22,24  L 21,24  Z  " style="fill:rgb(222, 211, 213); fill-opacity:1.000; stroke:none;" />
 <path d="  M 22,3  L 21,3  L 21,4  L 22,4  Z  " style="fill:rgb(222, 211, 213); fill-opacity:1.000; stroke:none;" />
 <path d="  M 22,11  L 22,10  L 21,10  L 21,11  Z  " style="fill:rgb(222, 211, 213); fill-opacity:1.000; stroke:none;" />
 <path d="  M 22,37  L 21,37  L 21,38  L 22,38  Z  " style="fill:rgb(222, 211, 213); fill-opacity:1.000; stroke:none;" />
 <path d="  M 22,5  L 24,5  L 24,4  L 22,4  Z  " style="fill:rgb(222, 211, 213); fill-opacity:1.000; stroke:none;" />
 <path d="  M 26,38  L 26,39  L 27,39  L 27,38  Z  " style="fill:rgb(222, 211, 213); fill-opacity:1.000; stroke:none;" />
 <path d="  M 28,39  L 27,39  L 27,41  L 28,41  L 28,42  L 30,42  L 30,41  L 29,41  L 29,40  L 28,40  Z  " style="fill:rgb(222, 211, 213); fill-opacity:1.000; stroke:none;" />
 <path d="  M 31,42  L 30,42  L 30,43  L 31,43  Z  " style="fill:rgb(222, 211, 213); fill-opacity:1.000; stroke:none;" />
 <path d="  M 34,23  L 34,22  L 32,22  L 32,23  Z  " style="fill:rgb(222, 211, 213); fill-opacity:1.000; stroke:none;" />
 <path d="  M 35,2  L 36,2  L 36,1  L 35,1  Z  " style="fill:rgb(222, 211, 213); fill-opacity:1.000; stroke:none;" />
 <path d="  M 40,3  L 40,4  L 42,4  L 42,5  L 44,5  L 44,4  L 43,4  L 43,3  L 42,3  L 42,2  L 41,2  L 41,1  L 38,1  L 38,0  L 36,0  L 36,1  L 37,1  L 37,2  L 38,2  L 38,3  Z  " style="fill:rgb(222, 211, 213); fill-opacity:1.000; stroke:none;" />
 <path d="  M 37,55  L 37,54  L 36,54  L 36,55  Z  " style="fill:rgb(222, 211, 213); fill-opacity:1.000; stroke:none;" />
 <path d="  M 44,53  L 44,52  L 42,52  L 42,53  L 41,53  L 41,54  L 40,54  L 40,55  L 37,55  L 37,56  L 38,56  L 38,57  L 40,57  L 40,58  L 41,58  L 41,57  L 43,57  L 43,56  L 45,56  L 45,55  L 47,55  L 47,54  L 46,54  L 46,53  Z  " style="fill:rgb(222, 211, 213); fill-opacity:1.000; stroke:none;" />
 <path d="  M 39,64  L 39,63  L 40,63  L 40,62  L 41,62  L 41,60  L 39,60  L 39,61  L 38,61  L 38,62  L 37,62  L 37,64  Z  " style="fill:rgb(222, 211, 213); fill-opacity:1.000; stroke:none;" />
 <path d="  M 43,28  L 43,29  L 42,29  L 42,30  L 45,30  L 45,29  L 46,29  L 46,28  Z  " style="fill:rgb(222, 211, 213); fill-opacity:1.000; stroke:none;" />
 <path d="  M 42,61  L 43,61  L 43,60  L 42,60  Z  " style="fill:rgb(222, 211, 213); fill-opacity:1.000; stroke:none;" />
 <path d="  M 45,59  L 43,59  L 43,60  L 45,60  Z  " style="fill:rgb(222, 211, 213); fill-opacity:1.000; stroke:none;" />
 <path d="  M 44,5  L 44,6  L 45,6  L 45,5  Z  " style="fill:rgb(222, 211, 213); fill-opacity:1.000; stroke:none;" />
 <path d="  M 46,44  L 46,43  L 48,43  L 48,42  L 51,42  L 51,41  L 52,41  L 52,40  L 53,40  L 53,39  L 51,39  L 51,40  L 48,40  L 48,41  L 47,41  L 47,42  L 45,42  L 45,43  L 44,43  L 44,44  Z  " style="fill:rgb(222, 211, 213); fill-opacity:1.000; stroke:none;" />
 <path d="  M 47,31  L 47,30  L 45,30  L 45,31  Z  " style="fill:rgb(222, 211, 213); fill-opacity:1.000; stroke:none;" />
 <path d="  M 53,4  L 51,4  L 51,5  L 49,5  L 49,6  L 48,6  L 48,5  L 47,5  L 47,4  L 46,4  L 46,6  L 47,6  L 47,7  L 49,7  L 49,8  L 51,8  L 51,7  L 53,7  L 53,8  L 55,8  L 55,9  L 56,9  L 56,7  L 55,7  L 55,6  L 54,6  L 54,5  L 53,5  Z  " style="fill:rgb(222, 211, 213); fill-opacity:1.000; stroke:none;" />
 <path d="  M 46,53  L 47,53  L 47,52  L 46,52  Z  " style="fill:rgb(222, 211, 213); fill-opacity:1.000; stroke:none;" />
 <path d="  M 47,31  L 47,32  L 48,32  L 48,31  Z  " style="fill:rgb(222, 211, 213); fill-opacity:1.000; stroke:none;" />
 <path d="  M 52,9  L 53,9  L 53,8  L 52,8  Z  " style="fill:rgb(222, 211, 213); fill-opacity:1.000; stroke:none;" />
 <path d="  M 53,39  L 54,39  L 54,38  L 53,38  Z  " style="fill:rgb(222, 211, 213); fill-opacity:1.000; stroke:none;" />
 <path d="  M 57,7  L 57,6  L 56,6  L 56,7  Z  " style="fill:rgb(222, 211, 213); fill-opacity:1.000; stroke:none;" />
 <path d="  M 61,17  L 62,17  L 62,16  L 61,16  Z  " style="fill:rgb(222, 211, 213); fill-opacity:1.000; stroke:none;" />
 <path d="  M 64,20  L 64,18  L 63,18  L 63,17  L 62,17  L 62,19  L 63,19  L 63,20  Z  " style="fill:rgb(222, 211, 213); fill-opacity:1.000; stroke:none;" />
</svg>
