<?xml version="1.0" encoding="UTF-8" standalone="no"?>
<!DOCTYPE svg PUBLIC "-//W3C//DTD SVG 1.1//EN" 
  "http://www.w3.org/Graphics/SVG/1.1/DTD/svg11.dtd">
<svg width="64" height="64"
	 xmlns="http://www.w3.org/2000/svg" version="1.1">
 <path d="  M 10,42  L 10,43  L 12,43  L 12,42  Z  " style="fill:rgb(47, 206, 253); fill-opacity:1.000; stroke:none;" />
 <path d="  M 12,46  L 14,46  L 14,45  L 13,45  L 13,44  L 12,44  Z  " style="fill:rgb(47, 206, 253); fill-opacity:1.000; stroke:none;" />
 <path d="  M 13,41  L 13,42  L 14,42  L 14,41  Z  " style="fill:rgb(47, 206, 253); fill-opacity:1.000; stroke:none;" />
 <path d="  M 14,46  L 14,47  L 15,47  L 15,46  Z  " style="fill:rgb(47, 206, 253); fill-opacity:1.000; stroke:none;" />
 <path d="  M 18,42  L 18,43  L 19,43  L 19,41  L 17,41  L 17,40  L 16,40  L 16,42  Z  " style="fill:rgb(47, 206, 253); fill-opacity:1.000; stroke:none;" />
 <path d="  M 16,44  L 16,45  L 17,45  L 17,44  Z  " style="fill:rgb(47, 206, 253); fill-opacity:1.000; stroke:none;" />
 <path d="  M 17,40  L 18,40  L 18,39  L 17,39  Z  " style="fill:rgb(47, 206, 253); fill-opacity:1.000; stroke:none;" />
 <path d="  M 18,43  L 17,43  L 17,44  L 18,44  Z  " style="fill:rgb(47, 206, 253); fill-opacity:1.000; stroke:none;" />
 <path d="  M 19,41  L 20,41  L 20,40  L 19,40  Z  " style="fill:rgb(47, 206, 253); fill-opacity:1.000; stroke:none;" />
 <path d="  M 22,24  L 21,24  L 21,25  L 22,25  Z  " style="fill:rgb(47, 206, 253); fill-opacity:1.000; stroke:none;" />
 <path d="  M 23,27  L 23,26  L 22,26  L 22,27  Z  " style="fill:rgb(47, 206, 253); fill-opacity:1.000; stroke:none;" />
 <path d="  M 23,28  L 24,28  L 24,27  L 23,27  Z  " style="fill:rgb(47, 206, 253); fill-opacity:1.000; stroke:none;" />
 <path d="  M 25,28  L 24,28  L 24,29  L 25,29  Z  " style="fill:rgb(47, 206, 253); fill-opacity:1.000; stroke:none;" />
 <path d="  M 26,29  L 27,29  L 27,28  L 26,28  Z  " style="fill:rgb(47, 206, 253); fill-opacity:1.000; stroke:none;" />
 <path d="  M 29,28  L 29,27  L 28,27  L 28,26  L 27,26  L 27,28  Z  " style="fill:rgb(47, 206, 253); fill-opacity:1.000; stroke:none;" />
 <path d="  M 27,29  L 27,30  L 28,30  L 28,29  Z  " style="fill:rgb(47, 206, 253); fill-opacity:1.000; stroke:none;" />
 <path d="  M 30,41  L 30,42  L 31,42  L 31,41  Z  " style="fill:rgb(47, 206, 253); fill-opacity:1.000; stroke:none;" />
 <path d="  M 33,19  L 31,19  L 31,20  L 33,20  Z  " style="fill:rgb(47, 206, 253); fill-opacity:1.000; stroke:none;" />
 <path d="  M 33,42  L 33,41  L 32,41  L 32,42  L 31,42  L 31,43  L 33,43  L 33,44  L 34,44  L 34,43  L 35,43  L 35,42  Z  " style="fill:rgb(47, 206, 253); fill-opacity:1.000; stroke:none;" />
 <path d="  M 34,18  L 34,17  L 33,17  L 33,18  Z  " style="fill:rgb(47, 206, 253); fill-opacity:1.000; stroke:none;" />
 <path d="  M 34,23  L 35,23  L 35,22  L 34,22  Z  " style="fill:rgb(47, 206, 253); fill-opacity:1.000; stroke:none;" />
 <path d="  M 36,46  L 36,45  L 35,45  L 35,46  Z  " style="fill:rgb(47, 206, 253); fill-opacity:1.000; stroke:none;" />
 <path d="  M 37,18  L 37,17  L 36,17  L 36,18  Z  " style="fill:rgb(47, 206, 253); fill-opacity:1.000; stroke:none;" />
 <path d="  M 36,21  L 36,22  L 37,22  L 37,21  Z  " style="fill:rgb(47, 206, 253); fill-opacity:1.000; stroke:none;" />
 <path d="  M 41,46  L 41,45  L 40,45  L 40,44  L 39,44  L 39,46  L 38,46  L 38,45  L 37,45  L 37,46  L 36,46  L 36,47  L 37,47  L 37,48  L 38,48  L 38,47  L 40,47  L 40,46  Z  " style="fill:rgb(47, 206, 253); fill-opacity:1.000; stroke:none;" />
 <path d="  M 37,23  L 38,23  L 38,22  L 37,22  Z  " style="fill:rgb(47, 206, 253); fill-opacity:1.000; stroke:none;" />
 <path d="  M 39,20  L 39,18  L 38,18  L 38,20  Z  " style="fill:rgb(47, 206, 253); fill-opacity:1.000; stroke:none;" />
 <path d="  M 42,45  L 42,44  L 41,44  L 41,45  Z  " style="fill:rgb(47, 206, 253); fill-opacity:1.000; stroke:none;" />
 <path d="  M 51,25  L 51,23  L 50,23  L 50,25  Z  " style="fill:rgb(47, 206, 253); fill-opacity:1.000; stroke:none;" />
 <path d="  M 51,22  L 51,23  L 53,23  L 53,22  Z  " style="fill:rgb(47, 206, 253); fill-opacity:1.000; stroke:none;" />
 <path d="  M 52,26  L 52,25  L 51,25  L 51,26  Z  " style="fill:rgb(47, 206, 253); fill-opacity:1.000; stroke:none;" />
 <path d="  M 53,21  L 53,22  L 54,22  L 54,21  Z  " style="fill:rgb(47, 206, 253); fill-opacity:1.000; stroke:none;" />
 <path d="  M 55,27  L 55,28  L 56,28  L 56,27  Z  " style="fill:rgb(47, 206, 253); fill-opacity:1.000; stroke:none;" />
 <path d="  M 56,25  L 57,25  L 57,24  L 56,24  Z  " style="fill:rgb(47, 206, 253); fill-opacity:1.000; stroke:none;" />
 <path d="  M 57,28  L 56,28  L 56,29  L 57,29  Z  " style="fill:rgb(47, 206, 253); fill-opacity:1.000; stroke:none;" />
 <path d="  M 57,26  L 57,27  L 58,27  L 58,26  Z  " style="fill:rgb(47, 206, 253); fill-opacity:1.000; stroke:none;" />
 <path d="  M 10,44  L 11,44  L 11,43  L 10,43  Z  " style="fill:rgb(39, 169, 244); fill-opacity:1.000; stroke:none;" />
 <path d="  M 11,41  L 11,42  L 12,42  L 12,41  Z  " style="fill:rgb(39, 169, 244); fill-opacity:1.000; stroke:none;" />
 <path d="  M 12,45  L 11,45  L 11,46  L 12,46  Z  " style="fill:rgb(39, 169, 244); fill-opacity:1.000; stroke:none;" />
 <path d="  M 12,48  L 12,47  L 11,47  L 11,48  Z  " style="fill:rgb(39, 169, 244); fill-opacity:1.000; stroke:none;" />
 <path d="  M 12,43  L 12,44  L 13,44  L 13,43  Z  " style="fill:rgb(39, 169, 244); fill-opacity:1.000; stroke:none;" />
 <path d="  M 13,47  L 13,46  L 12,46  L 12,47  Z  " style="fill:rgb(39, 169, 244); fill-opacity:1.000; stroke:none;" />
 <path d="  M 13,41  L 15,41  L 15,40  L 13,40  Z  " style="fill:rgb(39, 169, 244); fill-opacity:1.000; stroke:none;" />
 <path d="  M 14,48  L 14,47  L 13,47  L 13,48  Z  " style="fill:rgb(39, 169, 244); fill-opacity:1.000; stroke:none;" />
 <path d="  M 15,43  L 15,42  L 14,42  L 14,43  Z  " style="fill:rgb(39, 169, 244); fill-opacity:1.000; stroke:none;" />
 <path d="  M 17,49  L 17,48  L 14,48  L 14,49  Z  " style="fill:rgb(39, 169, 244); fill-opacity:1.000; stroke:none;" />
 <path d="  M 16,39  L 15,39  L 15,40  L 16,40  Z  " style="fill:rgb(39, 169, 244); fill-opacity:1.000; stroke:none;" />
 <path d="  M 16,46  L 16,47  L 17,47  L 17,46  Z  " style="fill:rgb(39, 169, 244); fill-opacity:1.000; stroke:none;" />
 <path d="  M 18,45  L 17,45  L 17,46  L 18,46  Z  " style="fill:rgb(39, 169, 244); fill-opacity:1.000; stroke:none;" />
 <path d="  M 17,48  L 18,48  L 18,47  L 17,47  Z  " style="fill:rgb(39, 169, 244); fill-opacity:1.000; stroke:none;" />
 <path d="  M 18,39  L 18,40  L 19,40  L 19,39  Z  " style="fill:rgb(39, 169, 244); fill-opacity:1.000; stroke:none;" />
 <path d="  M 19,45  L 19,44  L 18,44  L 18,45  Z  " style="fill:rgb(39, 169, 244); fill-opacity:1.000; stroke:none;" />
 <path d="  M 18,46  L 18,47  L 19,47  L 19,46  Z  " style="fill:rgb(39, 169, 244); fill-opacity:1.000; stroke:none;" />
 <path d="  M 20,25  L 20,24  L 19,24  L 19,25  Z  " style="fill:rgb(39, 169, 244); fill-opacity:1.000; stroke:none;" />
 <path d="  M 20,42  L 19,42  L 19,44  L 20,44  Z  " style="fill:rgb(39, 169, 244); fill-opacity:1.000; stroke:none;" />
 <path d="  M 21,24  L 21,23  L 20,23  L 20,24  Z  " style="fill:rgb(39, 169, 244); fill-opacity:1.000; stroke:none;" />
 <path d="  M 21,25  L 20,25  L 20,27  L 21,27  Z  " style="fill:rgb(39, 169, 244); fill-opacity:1.000; stroke:none;" />
 <path d="  M 20,41  L 20,42  L 21,42  L 21,41  Z  " style="fill:rgb(39, 169, 244); fill-opacity:1.000; stroke:none;" />
 <path d="  M 21,23  L 23,23  L 23,22  L 21,22  Z  " style="fill:rgb(39, 169, 244); fill-opacity:1.000; stroke:none;" />
 <path d="  M 22,27  L 21,27  L 21,28  L 22,28  Z  " style="fill:rgb(39, 169, 244); fill-opacity:1.000; stroke:none;" />
 <path d="  M 22,30  L 22,29  L 21,29  L 21,30  Z  " style="fill:rgb(39, 169, 244); fill-opacity:1.000; stroke:none;" />
 <path d="  M 22,24  L 22,25  L 23,25  L 23,24  Z  " style="fill:rgb(39, 169, 244); fill-opacity:1.000; stroke:none;" />
 <path d="  M 23,29  L 23,28  L 22,28  L 22,29  Z  " style="fill:rgb(39, 169, 244); fill-opacity:1.000; stroke:none;" />
 <path d="  M 23,30  L 22,30  L 22,31  L 23,31  Z  " style="fill:rgb(39, 169, 244); fill-opacity:1.000; stroke:none;" />
 <path d="  M 24,21  L 23,21  L 23,22  L 24,22  Z  " style="fill:rgb(39, 169, 244); fill-opacity:1.000; stroke:none;" />
 <path d="  M 23,23  L 23,24  L 24,24  L 24,23  Z  " style="fill:rgb(39, 169, 244); fill-opacity:1.000; stroke:none;" />
 <path d="  M 24,26  L 24,25  L 23,25  L 23,26  Z  " style="fill:rgb(39, 169, 244); fill-opacity:1.000; stroke:none;" />
 <path d="  M 23,29  L 23,30  L 24,30  L 24,29  Z  " style="fill:rgb(39, 169, 244); fill-opacity:1.000; stroke:none;" />
 <path d="  M 25,23  L 25,22  L 24,22  L 24,23  Z  " style="fill:rgb(39, 169, 244); fill-opacity:1.000; stroke:none;" />
 <path d="  M 25,31  L 25,30  L 24,30  L 24,31  Z  " style="fill:rgb(39, 169, 244); fill-opacity:1.000; stroke:none;" />
 <path d="  M 25,22  L 26,22  L 26,21  L 25,21  Z  " style="fill:rgb(39, 169, 244); fill-opacity:1.000; stroke:none;" />
 <path d="  M 25,27  L 25,28  L 26,28  L 26,27  Z  " style="fill:rgb(39, 169, 244); fill-opacity:1.000; stroke:none;" />
 <path d="  M 27,31  L 25,31  L 25,32  L 27,32  Z  " style="fill:rgb(39, 169, 244); fill-opacity:1.000; stroke:none;" />
 <path d="  M 27,23  L 27,22  L 26,22  L 26,23  Z  " style="fill:rgb(39, 169, 244); fill-opacity:1.000; stroke:none;" />
 <path d="  M 27,27  L 27,26  L 26,26  L 26,27  Z  " style="fill:rgb(39, 169, 244); fill-opacity:1.000; stroke:none;" />
 <path d="  M 27,29  L 26,29  L 26,30  L 27,30  Z  " style="fill:rgb(39, 169, 244); fill-opacity:1.000; stroke:none;" />
 <path d="  M 27,24  L 28,24  L 28,23  L 27,23  Z  " style="fill:rgb(39, 169, 244); fill-opacity:1.000; stroke:none;" />
 <path d="  M 27,26  L 28,26  L 28,25  L 27,25  Z  " style="fill:rgb(39, 169, 244); fill-opacity:1.000; stroke:none;" />
 <path d="  M 27,29  L 28,29  L 28,28  L 27,28  Z  " style="fill:rgb(39, 169, 244); fill-opacity:1.000; stroke:none;" />
 <path d="  M 28,27  L 29,27  L 29,26  L 28,26  Z  " style="fill:rgb(39, 169, 244); fill-opacity:1.000; stroke:none;" />
 <path d="  M 29,44  L 30,44  L 30,41  L 29,41  Z  " style="fill:rgb(39, 169, 244); fill-opacity:1.000; stroke:none;" />
 <path d="  M 30,17  L 30,18  L 31,18  L 31,17  Z  " style="fill:rgb(39, 169, 244); fill-opacity:1.000; stroke:none;" />
 <path d="  M 30,21  L 31,21  L 31,20  L 30,20  Z  " style="fill:rgb(39, 169, 244); fill-opacity:1.000; stroke:none;" />
 <path d="  M 31,41  L 31,40  L 30,40  L 30,41  Z  " style="fill:rgb(39, 169, 244); fill-opacity:1.000; stroke:none;" />
 <path d="  M 31,46  L 31,45  L 30,45  L 30,46  Z  " style="fill:rgb(39, 169, 244); fill-opacity:1.000; stroke:none;" />
 <path d="  M 31,17  L 32,17  L 32,16  L 31,16  Z  " style="fill:rgb(39, 169, 244); fill-opacity:1.000; stroke:none;" />
 <path d="  M 31,19  L 32,19  L 32,18  L 31,18  Z  " style="fill:rgb(39, 169, 244); fill-opacity:1.000; stroke:none;" />
 <path d="  M 31,23  L 32,23  L 32,22  L 31,22  Z  " style="fill:rgb(39, 169, 244); fill-opacity:1.000; stroke:none;" />
 <path d="  M 32,40  L 32,39  L 31,39  L 31,40  Z  " style="fill:rgb(39, 169, 244); fill-opacity:1.000; stroke:none;" />
 <path d="  M 32,46  L 31,46  L 31,47  L 32,47  Z  " style="fill:rgb(39, 169, 244); fill-opacity:1.000; stroke:none;" />
 <path d="  M 34,16  L 34,15  L 32,15  L 32,16  Z  " style="fill:rgb(39, 169, 244); fill-opacity:1.000; stroke:none;" />
 <path d="  M 33,23  L 32,23  L 32,24  L 33,24  Z  " style="fill:rgb(39, 169, 244); fill-opacity:1.000; stroke:none;" />
 <path d="  M 33,40  L 32,40  L 32,41  L 33,41  Z  " style="fill:rgb(39, 169, 244); fill-opacity:1.000; stroke:none;" />
 <path d="  M 33,44  L 32,44  L 32,46  L 33,46  Z  " style="fill:rgb(39, 169, 244); fill-opacity:1.000; stroke:none;" />
 <path d="  M 32,48  L 33,48  L 33,47  L 32,47  Z  " style="fill:rgb(39, 169, 244); fill-opacity:1.000; stroke:none;" />
 <path d="  M 33,18  L 33,19  L 34,19  L 34,18  Z  " style="fill:rgb(39, 169, 244); fill-opacity:1.000; stroke:none;" />
 <path d="  M 33,22  L 34,22  L 34,21  L 33,21  Z  " style="fill:rgb(39, 169, 244); fill-opacity:1.000; stroke:none;" />
 <path d="  M 34,25  L 34,24  L 33,24  L 33,25  Z  " style="fill:rgb(39, 169, 244); fill-opacity:1.000; stroke:none;" />
 <path d="  M 33,40  L 35,40  L 35,39  L 33,39  Z  " style="fill:rgb(39, 169, 244); fill-opacity:1.000; stroke:none;" />
 <path d="  M 35,46  L 33,46  L 33,47  L 35,47  Z  " style="fill:rgb(39, 169, 244); fill-opacity:1.000; stroke:none;" />
 <path d="  M 35,49  L 35,48  L 33,48  L 33,49  Z  " style="fill:rgb(39, 169, 244); fill-opacity:1.000; stroke:none;" />
 <path d="  M 34,17  L 34,18  L 36,18  L 36,17  Z  " style="fill:rgb(39, 169, 244); fill-opacity:1.000; stroke:none;" />
 <path d="  M 34,25  L 34,26  L 37,26  L 37,25  Z  " style="fill:rgb(39, 169, 244); fill-opacity:1.000; stroke:none;" />
 <path d="  M 34,42  L 35,42  L 35,41  L 34,41  Z  " style="fill:rgb(39, 169, 244); fill-opacity:1.000; stroke:none;" />
 <path d="  M 34,44  L 34,45  L 35,45  L 35,44  Z  " style="fill:rgb(39, 169, 244); fill-opacity:1.000; stroke:none;" />
 <path d="  M 35,41  L 36,41  L 36,40  L 35,40  Z  " style="fill:rgb(39, 169, 244); fill-opacity:1.000; stroke:none;" />
 <path d="  M 37,49  L 35,49  L 35,50  L 37,50  Z  " style="fill:rgb(39, 169, 244); fill-opacity:1.000; stroke:none;" />
 <path d="  M 37,16  L 36,16  L 36,17  L 37,17  Z  " style="fill:rgb(39, 169, 244); fill-opacity:1.000; stroke:none;" />
 <path d="  M 36,19  L 38,19  L 38,17  L 37,17  L 37,18  L 36,18  Z  " style="fill:rgb(39, 169, 244); fill-opacity:1.000; stroke:none;" />
 <path d="  M 36,23  L 36,24  L 37,24  L 37,23  Z  " style="fill:rgb(39, 169, 244); fill-opacity:1.000; stroke:none;" />
 <path d="  M 37,47  L 36,47  L 36,48  L 37,48  Z  " style="fill:rgb(39, 169, 244); fill-opacity:1.000; stroke:none;" />
 <path d="  M 37,20  L 37,21  L 38,21  L 38,20  Z  " style="fill:rgb(39, 169, 244); fill-opacity:1.000; stroke:none;" />
 <path d="  M 38,25  L 38,24  L 37,24  L 37,25  Z  " style="fill:rgb(39, 169, 244); fill-opacity:1.000; stroke:none;" />
 <path d="  M 37,41  L 37,42  L 38,42  L 38,43  L 39,43  L 39,42  L 40,42  L 40,41  Z  " style="fill:rgb(39, 169, 244); fill-opacity:1.000; stroke:none;" />
 <path d="  M 38,21  L 38,22  L 39,22  L 39,23  L 40,23  L 40,21  Z  " style="fill:rgb(39, 169, 244); fill-opacity:1.000; stroke:none;" />
 <path d="  M 39,48  L 39,47  L 38,47  L 38,48  Z  " style="fill:rgb(39, 169, 244); fill-opacity:1.000; stroke:none;" />
 <path d="  M 40,39  L 39,39  L 39,40  L 40,40  Z  " style="fill:rgb(39, 169, 244); fill-opacity:1.000; stroke:none;" />
 <path d="  M 40,44  L 40,43  L 39,43  L 39,44  Z  " style="fill:rgb(39, 169, 244); fill-opacity:1.000; stroke:none;" />
 <path d="  M 39,48  L 39,49  L 41,49  L 41,48  Z  " style="fill:rgb(39, 169, 244); fill-opacity:1.000; stroke:none;" />
 <path d="  M 41,41  L 41,40  L 40,40  L 40,41  Z  " style="fill:rgb(39, 169, 244); fill-opacity:1.000; stroke:none;" />
 <path d="  M 41,42  L 40,42  L 40,43  L 41,43  Z  " style="fill:rgb(39, 169, 244); fill-opacity:1.000; stroke:none;" />
 <path d="  M 40,46  L 40,47  L 41,47  L 41,46  Z  " style="fill:rgb(39, 169, 244); fill-opacity:1.000; stroke:none;" />
 <path d="  M 42,41  L 41,41  L 41,42  L 42,42  Z  " style="fill:rgb(39, 169, 244); fill-opacity:1.000; stroke:none;" />
 <path d="  M 42,45  L 41,45  L 41,46  L 42,46  Z  " style="fill:rgb(39, 169, 244); fill-opacity:1.000; stroke:none;" />
 <path d="  M 42,47  L 41,47  L 41,48  L 42,48  Z  " style="fill:rgb(39, 169, 244); fill-opacity:1.000; stroke:none;" />
 <path d="  M 43,42  L 42,42  L 42,44  L 43,44  Z  " style="fill:rgb(39, 169, 244); fill-opacity:1.000; stroke:none;" />
 <path d="  M 43,46  L 42,46  L 42,47  L 43,47  Z  " style="fill:rgb(39, 169, 244); fill-opacity:1.000; stroke:none;" />
 <path d="  M 49,22  L 49,23  L 50,23  L 50,22  Z  " style="fill:rgb(39, 169, 244); fill-opacity:1.000; stroke:none;" />
 <path d="  M 50,25  L 49,25  L 49,26  L 50,26  Z  " style="fill:rgb(39, 169, 244); fill-opacity:1.000; stroke:none;" />
 <path d="  M 50,21  L 50,22  L 51,22  L 51,21  Z  " style="fill:rgb(39, 169, 244); fill-opacity:1.000; stroke:none;" />
 <path d="  M 52,27  L 52,26  L 51,26  L 51,27  Z  " style="fill:rgb(39, 169, 244); fill-opacity:1.000; stroke:none;" />
 <path d="  M 52,29  L 52,28  L 51,28  L 51,29  Z  " style="fill:rgb(39, 169, 244); fill-opacity:1.000; stroke:none;" />
 <path d="  M 54,21  L 54,20  L 52,20  L 52,21  Z  " style="fill:rgb(39, 169, 244); fill-opacity:1.000; stroke:none;" />
 <path d="  M 53,25  L 54,25  L 54,24  L 52,24  L 52,26  L 53,26  Z  " style="fill:rgb(39, 169, 244); fill-opacity:1.000; stroke:none;" />
 <path d="  M 53,30  L 53,29  L 52,29  L 52,30  Z  " style="fill:rgb(39, 169, 244); fill-opacity:1.000; stroke:none;" />
 <path d="  M 54,22  L 53,22  L 53,23  L 54,23  Z  " style="fill:rgb(39, 169, 244); fill-opacity:1.000; stroke:none;" />
 <path d="  M 53,27  L 53,28  L 54,28  L 54,27  Z  " style="fill:rgb(39, 169, 244); fill-opacity:1.000; stroke:none;" />
 <path d="  M 57,30  L 53,30  L 53,31  L 57,31  Z  " style="fill:rgb(39, 169, 244); fill-opacity:1.000; stroke:none;" />
 <path d="  M 54,22  L 55,22  L 55,21  L 54,21  Z  " style="fill:rgb(39, 169, 244); fill-opacity:1.000; stroke:none;" />
 <path d="  M 55,25  L 56,25  L 56,23  L 54,23  L 54,24  L 55,24  Z  " style="fill:rgb(39, 169, 244); fill-opacity:1.000; stroke:none;" />
 <path d="  M 55,29  L 55,28  L 54,28  L 54,29  Z  " style="fill:rgb(39, 169, 244); fill-opacity:1.000; stroke:none;" />
 <path d="  M 56,22  L 56,23  L 57,23  L 57,22  Z  " style="fill:rgb(39, 169, 244); fill-opacity:1.000; stroke:none;" />
 <path d="  M 57,26  L 57,25  L 56,25  L 56,26  Z  " style="fill:rgb(39, 169, 244); fill-opacity:1.000; stroke:none;" />
 <path d="  M 58,27  L 56,27  L 56,28  L 58,28  Z  " style="fill:rgb(39, 169, 244); fill-opacity:1.000; stroke:none;" />
 <path d="  M 57,24  L 57,25  L 58,25  L 58,24  Z  " style="fill:rgb(39, 169, 244); fill-opacity:1.000; stroke:none;" />
 <path d="  M 58,30  L 58,29  L 57,29  L 57,30  Z  " style="fill:rgb(39, 169, 244); fill-opacity:1.000; stroke:none;" />
 <path d="  M 10,44  L 10,46  L 11,46  L 11,44  Z  " style="fill:rgb(28, 146, 214); fill-opacity:1.000; stroke:none;" />
 <path d="  M 11,46  L 11,47  L 12,47  L 12,46  Z  " style="fill:rgb(28, 146, 214); fill-opacity:1.000; stroke:none;" />
 <path d="  M 12,42  L 13,42  L 13,40  L 12,40  Z  " style="fill:rgb(28, 146, 214); fill-opacity:1.000; stroke:none;" />
 <path d="  M 12,48  L 12,49  L 14,49  L 14,48  Z  " style="fill:rgb(28, 146, 214); fill-opacity:1.000; stroke:none;" />
 <path d="  M 13,39  L 13,40  L 15,40  L 15,39  Z  " style="fill:rgb(28, 146, 214); fill-opacity:1.000; stroke:none;" />
 <path d="  M 14,42  L 13,42  L 13,44  L 14,44  Z  " style="fill:rgb(28, 146, 214); fill-opacity:1.000; stroke:none;" />
 <path d="  M 15,45  L 15,44  L 14,44  L 14,45  Z  " style="fill:rgb(28, 146, 214); fill-opacity:1.000; stroke:none;" />
 <path d="  M 17,47  L 14,47  L 14,48  L 17,48  Z  " style="fill:rgb(28, 146, 214); fill-opacity:1.000; stroke:none;" />
 <path d="  M 16,43  L 16,41  L 15,41  L 15,43  Z  " style="fill:rgb(28, 146, 214); fill-opacity:1.000; stroke:none;" />
 <path d="  M 16,45  L 15,45  L 15,46  L 16,46  Z  " style="fill:rgb(28, 146, 214); fill-opacity:1.000; stroke:none;" />
 <path d="  M 17,44  L 17,43  L 16,43  L 16,44  Z  " style="fill:rgb(28, 146, 214); fill-opacity:1.000; stroke:none;" />
 <path d="  M 17,42  L 17,43  L 18,43  L 18,42  Z  " style="fill:rgb(28, 146, 214); fill-opacity:1.000; stroke:none;" />
 <path d="  M 18,46  L 17,46  L 17,47  L 18,47  Z  " style="fill:rgb(28, 146, 214); fill-opacity:1.000; stroke:none;" />
 <path d="  M 20,46  L 20,44  L 19,44  L 19,45  L 18,45  L 18,46  Z  " style="fill:rgb(28, 146, 214); fill-opacity:1.000; stroke:none;" />
 <path d="  M 19,25  L 19,27  L 20,27  L 20,25  Z  " style="fill:rgb(28, 146, 214); fill-opacity:1.000; stroke:none;" />
 <path d="  M 21,22  L 20,22  L 20,23  L 21,23  Z  " style="fill:rgb(28, 146, 214); fill-opacity:1.000; stroke:none;" />
 <path d="  M 20,27  L 20,29  L 22,29  L 22,28  L 21,28  L 21,27  Z  " style="fill:rgb(28, 146, 214); fill-opacity:1.000; stroke:none;" />
 <path d="  M 21,42  L 20,42  L 20,44  L 21,44  Z  " style="fill:rgb(28, 146, 214); fill-opacity:1.000; stroke:none;" />
 <path d="  M 21,22  L 23,22  L 23,21  L 21,21  Z  " style="fill:rgb(28, 146, 214); fill-opacity:1.000; stroke:none;" />
 <path d="  M 23,30  L 23,29  L 22,29  L 22,30  Z  " style="fill:rgb(28, 146, 214); fill-opacity:1.000; stroke:none;" />
 <path d="  M 30,25  L 29,25  L 29,24  L 26,24  L 26,22  L 25,22  L 25,23  L 24,23  L 24,24  L 23,24  L 23,25  L 24,25  L 24,26  L 25,26  L 25,25  L 26,25  L 26,26  L 27,26  L 27,25  L 28,25  L 28,26  L 29,26  L 29,28  L 28,28  L 28,30  L 29,30  L 29,29  L 30,29  Z  " style="fill:rgb(28, 146, 214); fill-opacity:1.000; stroke:none;" />
 <path d="  M 23,26  L 23,27  L 24,27  L 24,26  Z  " style="fill:rgb(28, 146, 214); fill-opacity:1.000; stroke:none;" />
 <path d="  M 23,31  L 24,31  L 24,30  L 23,30  Z  " style="fill:rgb(28, 146, 214); fill-opacity:1.000; stroke:none;" />
 <path d="  M 24,21  L 24,22  L 25,22  L 25,21  Z  " style="fill:rgb(28, 146, 214); fill-opacity:1.000; stroke:none;" />
 <path d="  M 25,27  L 24,27  L 24,28  L 25,28  Z  " style="fill:rgb(28, 146, 214); fill-opacity:1.000; stroke:none;" />
 <path d="  M 25,30  L 25,31  L 28,31  L 28,30  L 26,30  L 26,29  L 24,29  L 24,30  Z  " style="fill:rgb(28, 146, 214); fill-opacity:1.000; stroke:none;" />
 <path d="  M 24,31  L 24,32  L 25,32  L 25,31  Z  " style="fill:rgb(28, 146, 214); fill-opacity:1.000; stroke:none;" />
 <path d="  M 26,27  L 26,26  L 25,26  L 25,27  Z  " style="fill:rgb(28, 146, 214); fill-opacity:1.000; stroke:none;" />
 <path d="  M 30,20  L 31,20  L 31,18  L 30,18  Z  " style="fill:rgb(28, 146, 214); fill-opacity:1.000; stroke:none;" />
 <path d="  M 31,45  L 31,46  L 32,46  L 32,44  L 31,44  L 31,42  L 30,42  L 30,45  Z  " style="fill:rgb(28, 146, 214); fill-opacity:1.000; stroke:none;" />
 <path d="  M 31,18  L 32,18  L 32,17  L 31,17  Z  " style="fill:rgb(28, 146, 214); fill-opacity:1.000; stroke:none;" />
 <path d="  M 33,23  L 33,20  L 32,20  L 32,21  L 31,21  L 31,22  L 32,22  L 32,23  Z  " style="fill:rgb(28, 146, 214); fill-opacity:1.000; stroke:none;" />
 <path d="  M 34,15  L 34,16  L 32,16  L 32,17  L 35,17  L 35,16  L 36,16  L 36,15  Z  " style="fill:rgb(28, 146, 214); fill-opacity:1.000; stroke:none;" />
 <path d="  M 32,40  L 33,40  L 33,39  L 32,39  Z  " style="fill:rgb(28, 146, 214); fill-opacity:1.000; stroke:none;" />
 <path d="  M 33,44  L 33,43  L 32,43  L 32,44  Z  " style="fill:rgb(28, 146, 214); fill-opacity:1.000; stroke:none;" />
 <path d="  M 32,46  L 32,47  L 33,47  L 33,46  Z  " style="fill:rgb(28, 146, 214); fill-opacity:1.000; stroke:none;" />
 <path d="  M 33,19  L 33,20  L 34,20  L 34,19  Z  " style="fill:rgb(28, 146, 214); fill-opacity:1.000; stroke:none;" />
 <path d="  M 34,25  L 37,25  L 37,24  L 35,24  L 35,23  L 33,23  L 33,24  L 34,24  Z  " style="fill:rgb(28, 146, 214); fill-opacity:1.000; stroke:none;" />
 <path d="  M 35,39  L 35,38  L 33,38  L 33,39  Z  " style="fill:rgb(28, 146, 214); fill-opacity:1.000; stroke:none;" />
 <path d="  M 37,49  L 37,50  L 39,50  L 39,48  L 36,48  L 36,47  L 33,47  L 33,48  L 35,48  L 35,49  Z  " style="fill:rgb(28, 146, 214); fill-opacity:1.000; stroke:none;" />
 <path d="  M 36,19  L 36,18  L 34,18  L 34,19  Z  " style="fill:rgb(28, 146, 214); fill-opacity:1.000; stroke:none;" />
 <path d="  M 34,20  L 34,21  L 35,21  L 35,20  Z  " style="fill:rgb(28, 146, 214); fill-opacity:1.000; stroke:none;" />
 <path d="  M 35,43  L 34,43  L 34,44  L 35,44  Z  " style="fill:rgb(28, 146, 214); fill-opacity:1.000; stroke:none;" />
 <path d="  M 35,21  L 35,22  L 36,22  L 36,21  Z  " style="fill:rgb(28, 146, 214); fill-opacity:1.000; stroke:none;" />
 <path d="  M 35,39  L 35,40  L 36,40  L 36,39  Z  " style="fill:rgb(28, 146, 214); fill-opacity:1.000; stroke:none;" />
 <path d="  M 36,43  L 36,42  L 35,42  L 35,43  Z  " style="fill:rgb(28, 146, 214); fill-opacity:1.000; stroke:none;" />
 <path d="  M 36,44  L 35,44  L 35,45  L 36,45  Z  " style="fill:rgb(28, 146, 214); fill-opacity:1.000; stroke:none;" />
 <path d="  M 38,20  L 38,19  L 36,19  L 36,21  L 37,21  L 37,20  Z  " style="fill:rgb(28, 146, 214); fill-opacity:1.000; stroke:none;" />
 <path d="  M 36,42  L 37,42  L 37,41  L 40,41  L 40,40  L 39,40  L 39,39  L 38,39  L 38,40  L 36,40  Z  " style="fill:rgb(28, 146, 214); fill-opacity:1.000; stroke:none;" />
 <path d="  M 37,45  L 36,45  L 36,46  L 37,46  Z  " style="fill:rgb(28, 146, 214); fill-opacity:1.000; stroke:none;" />
 <path d="  M 38,16  L 37,16  L 37,17  L 38,17  Z  " style="fill:rgb(28, 146, 214); fill-opacity:1.000; stroke:none;" />
 <path d="  M 38,23  L 37,23  L 37,24  L 39,24  L 39,22  L 38,22  Z  " style="fill:rgb(28, 146, 214); fill-opacity:1.000; stroke:none;" />
 <path d="  M 38,43  L 38,42  L 37,42  L 37,43  Z  " style="fill:rgb(28, 146, 214); fill-opacity:1.000; stroke:none;" />
 <path d="  M 38,43  L 38,44  L 37,44  L 37,45  L 39,45  L 39,43  Z  " style="fill:rgb(28, 146, 214); fill-opacity:1.000; stroke:none;" />
 <path d="  M 39,17  L 38,17  L 38,18  L 39,18  Z  " style="fill:rgb(28, 146, 214); fill-opacity:1.000; stroke:none;" />
 <path d="  M 40,20  L 39,20  L 39,21  L 40,21  Z  " style="fill:rgb(28, 146, 214); fill-opacity:1.000; stroke:none;" />
 <path d="  M 39,47  L 39,48  L 41,48  L 41,47  Z  " style="fill:rgb(28, 146, 214); fill-opacity:1.000; stroke:none;" />
 <path d="  M 40,42  L 41,42  L 41,41  L 40,41  Z  " style="fill:rgb(28, 146, 214); fill-opacity:1.000; stroke:none;" />
 <path d="  M 41,42  L 41,44  L 42,44  L 42,42  Z  " style="fill:rgb(28, 146, 214); fill-opacity:1.000; stroke:none;" />
 <path d="  M 42,47  L 42,46  L 41,46  L 41,47  Z  " style="fill:rgb(28, 146, 214); fill-opacity:1.000; stroke:none;" />
 <path d="  M 43,44  L 42,44  L 42,46  L 43,46  Z  " style="fill:rgb(28, 146, 214); fill-opacity:1.000; stroke:none;" />
 <path d="  M 49,25  L 50,25  L 50,24  L 49,24  Z  " style="fill:rgb(28, 146, 214); fill-opacity:1.000; stroke:none;" />
 <path d="  M 52,27  L 51,27  L 51,25  L 50,25  L 50,28  L 52,28  Z  " style="fill:rgb(28, 146, 214); fill-opacity:1.000; stroke:none;" />
 <path d="  M 52,28  L 52,29  L 53,29  L 53,30  L 57,30  L 57,29  L 54,29  L 54,28  Z  " style="fill:rgb(28, 146, 214); fill-opacity:1.000; stroke:none;" />
 <path d="  M 53,23  L 53,24  L 54,24  L 54,23  Z  " style="fill:rgb(28, 146, 214); fill-opacity:1.000; stroke:none;" />
 <path d="  M 53,27  L 54,27  L 54,26  L 53,26  Z  " style="fill:rgb(28, 146, 214); fill-opacity:1.000; stroke:none;" />
 <path d="  M 54,22  L 54,23  L 56,23  L 56,22  L 57,22  L 57,21  L 55,21  L 55,22  Z  " style="fill:rgb(28, 146, 214); fill-opacity:1.000; stroke:none;" />
 <path d="  M 55,25  L 55,24  L 54,24  L 54,26  L 55,26  L 55,27  L 56,27  L 56,25  Z  " style="fill:rgb(28, 146, 214); fill-opacity:1.000; stroke:none;" />
 <path d="  M 54,27  L 54,28  L 55,28  L 55,27  Z  " style="fill:rgb(28, 146, 214); fill-opacity:1.000; stroke:none;" />
 <path d="  M 57,22  L 57,24  L 58,24  L 58,22  Z  " style="fill:rgb(28, 146, 214); fill-opacity:1.000; stroke:none;" />
 <path d="  M 57,29  L 59,29  L 59,26  L 58,26  L 58,28  L 57,28  Z  " style="fill:rgb(28, 146, 214); fill-opacity:1.000; stroke:none;" />
 <path d="  M 59,25  L 59,24  L 58,24  L 58,25  Z  " style="fill:rgb(28, 146, 214); fill-opacity:1.000; stroke:none;" />
 <path d="  M 11,45  L 12,45  L 12,43  L 11,43  Z  " style="fill:rgb(42, 191, 253); fill-opacity:1.000; stroke:none;" />
 <path d="  M 13,42  L 12,42  L 12,43  L 13,43  Z  " style="fill:rgb(42, 191, 253); fill-opacity:1.000; stroke:none;" />
 <path d="  M 13,48  L 13,47  L 12,47  L 12,48  Z  " style="fill:rgb(42, 191, 253); fill-opacity:1.000; stroke:none;" />
 <path d="  M 13,44  L 13,45  L 14,45  L 14,44  Z  " style="fill:rgb(42, 191, 253); fill-opacity:1.000; stroke:none;" />
 <path d="  M 14,46  L 13,46  L 13,47  L 14,47  Z  " style="fill:rgb(42, 191, 253); fill-opacity:1.000; stroke:none;" />
 <path d="  M 15,42  L 15,41  L 14,41  L 14,42  Z  " style="fill:rgb(42, 191, 253); fill-opacity:1.000; stroke:none;" />
 <path d="  M 15,45  L 14,45  L 14,46  L 15,46  Z  " style="fill:rgb(42, 191, 253); fill-opacity:1.000; stroke:none;" />
 <path d="  M 15,40  L 15,41  L 16,41  L 16,40  Z  " style="fill:rgb(42, 191, 253); fill-opacity:1.000; stroke:none;" />
 <path d="  M 16,47  L 16,46  L 15,46  L 15,47  Z  " style="fill:rgb(42, 191, 253); fill-opacity:1.000; stroke:none;" />
 <path d="  M 17,39  L 16,39  L 16,40  L 17,40  Z  " style="fill:rgb(42, 191, 253); fill-opacity:1.000; stroke:none;" />
 <path d="  M 17,45  L 16,45  L 16,46  L 17,46  Z  " style="fill:rgb(42, 191, 253); fill-opacity:1.000; stroke:none;" />
 <path d="  M 17,41  L 19,41  L 19,40  L 17,40  Z  " style="fill:rgb(42, 191, 253); fill-opacity:1.000; stroke:none;" />
 <path d="  M 17,45  L 18,45  L 18,44  L 17,44  Z  " style="fill:rgb(42, 191, 253); fill-opacity:1.000; stroke:none;" />
 <path d="  M 18,43  L 18,44  L 19,44  L 19,43  Z  " style="fill:rgb(42, 191, 253); fill-opacity:1.000; stroke:none;" />
 <path d="  M 20,42  L 20,41  L 19,41  L 19,42  Z  " style="fill:rgb(42, 191, 253); fill-opacity:1.000; stroke:none;" />
 <path d="  M 20,24  L 20,25  L 21,25  L 21,24  Z  " style="fill:rgb(42, 191, 253); fill-opacity:1.000; stroke:none;" />
 <path d="  M 23,24  L 23,23  L 21,23  L 21,24  Z  " style="fill:rgb(42, 191, 253); fill-opacity:1.000; stroke:none;" />
 <path d="  M 21,25  L 21,27  L 22,27  L 22,26  L 23,26  L 23,25  Z  " style="fill:rgb(42, 191, 253); fill-opacity:1.000; stroke:none;" />
 <path d="  M 23,27  L 22,27  L 22,28  L 23,28  Z  " style="fill:rgb(42, 191, 253); fill-opacity:1.000; stroke:none;" />
 <path d="  M 23,22  L 23,23  L 24,23  L 24,22  Z  " style="fill:rgb(42, 191, 253); fill-opacity:1.000; stroke:none;" />
 <path d="  M 23,29  L 24,29  L 24,28  L 23,28  Z  " style="fill:rgb(42, 191, 253); fill-opacity:1.000; stroke:none;" />
 <path d="  M 26,29  L 26,28  L 25,28  L 25,29  Z  " style="fill:rgb(42, 191, 253); fill-opacity:1.000; stroke:none;" />
 <path d="  M 26,24  L 27,24  L 27,23  L 26,23  Z  " style="fill:rgb(42, 191, 253); fill-opacity:1.000; stroke:none;" />
 <path d="  M 26,28  L 27,28  L 27,27  L 26,27  Z  " style="fill:rgb(42, 191, 253); fill-opacity:1.000; stroke:none;" />
 <path d="  M 31,21  L 32,21  L 32,20  L 31,20  Z  " style="fill:rgb(42, 191, 253); fill-opacity:1.000; stroke:none;" />
 <path d="  M 31,40  L 31,42  L 32,42  L 32,40  Z  " style="fill:rgb(42, 191, 253); fill-opacity:1.000; stroke:none;" />
 <path d="  M 32,44  L 32,43  L 31,43  L 31,44  Z  " style="fill:rgb(42, 191, 253); fill-opacity:1.000; stroke:none;" />
 <path d="  M 33,19  L 33,17  L 32,17  L 32,19  Z  " style="fill:rgb(42, 191, 253); fill-opacity:1.000; stroke:none;" />
 <path d="  M 34,20  L 33,20  L 33,21  L 34,21  Z  " style="fill:rgb(42, 191, 253); fill-opacity:1.000; stroke:none;" />
 <path d="  M 34,23  L 34,22  L 33,22  L 33,23  Z  " style="fill:rgb(42, 191, 253); fill-opacity:1.000; stroke:none;" />
 <path d="  M 33,40  L 33,42  L 34,42  L 34,41  L 35,41  L 35,40  Z  " style="fill:rgb(42, 191, 253); fill-opacity:1.000; stroke:none;" />
 <path d="  M 34,45  L 34,44  L 33,44  L 33,46  L 35,46  L 35,45  Z  " style="fill:rgb(42, 191, 253); fill-opacity:1.000; stroke:none;" />
 <path d="  M 35,22  L 35,21  L 34,21  L 34,22  Z  " style="fill:rgb(42, 191, 253); fill-opacity:1.000; stroke:none;" />
 <path d="  M 35,16  L 35,17  L 36,17  L 36,16  Z  " style="fill:rgb(42, 191, 253); fill-opacity:1.000; stroke:none;" />
 <path d="  M 35,24  L 36,24  L 36,23  L 37,23  L 37,22  L 35,22  Z  " style="fill:rgb(42, 191, 253); fill-opacity:1.000; stroke:none;" />
 <path d="  M 35,41  L 35,42  L 36,42  L 36,41  Z  " style="fill:rgb(42, 191, 253); fill-opacity:1.000; stroke:none;" />
 <path d="  M 35,46  L 35,47  L 36,47  L 36,46  Z  " style="fill:rgb(42, 191, 253); fill-opacity:1.000; stroke:none;" />
 <path d="  M 36,15  L 36,16  L 37,16  L 37,15  Z  " style="fill:rgb(42, 191, 253); fill-opacity:1.000; stroke:none;" />
 <path d="  M 38,21  L 37,21  L 37,22  L 38,22  Z  " style="fill:rgb(42, 191, 253); fill-opacity:1.000; stroke:none;" />
 <path d="  M 39,21  L 39,20  L 38,20  L 38,21  Z  " style="fill:rgb(42, 191, 253); fill-opacity:1.000; stroke:none;" />
 <path d="  M 38,46  L 39,46  L 39,45  L 38,45  Z  " style="fill:rgb(42, 191, 253); fill-opacity:1.000; stroke:none;" />
 <path d="  M 39,19  L 39,20  L 40,20  L 40,19  Z  " style="fill:rgb(42, 191, 253); fill-opacity:1.000; stroke:none;" />
 <path d="  M 40,42  L 39,42  L 39,43  L 40,43  Z  " style="fill:rgb(42, 191, 253); fill-opacity:1.000; stroke:none;" />
 <path d="  M 41,39  L 40,39  L 40,40  L 41,40  Z  " style="fill:rgb(42, 191, 253); fill-opacity:1.000; stroke:none;" />
 <path d="  M 41,43  L 40,43  L 40,45  L 41,45  Z  " style="fill:rgb(42, 191, 253); fill-opacity:1.000; stroke:none;" />
 <path d="  M 41,40  L 41,41  L 42,41  L 42,40  Z  " style="fill:rgb(42, 191, 253); fill-opacity:1.000; stroke:none;" />
 <path d="  M 50,24  L 50,23  L 49,23  L 49,24  Z  " style="fill:rgb(42, 191, 253); fill-opacity:1.000; stroke:none;" />
 <path d="  M 50,23  L 51,23  L 51,22  L 50,22  Z  " style="fill:rgb(42, 191, 253); fill-opacity:1.000; stroke:none;" />
 <path d="  M 53,22  L 53,21  L 51,21  L 51,22  Z  " style="fill:rgb(42, 191, 253); fill-opacity:1.000; stroke:none;" />
 <path d="  M 51,23  L 51,25  L 52,25  L 52,24  L 53,24  L 53,23  Z  " style="fill:rgb(42, 191, 253); fill-opacity:1.000; stroke:none;" />
 <path d="  M 53,26  L 52,26  L 52,28  L 53,28  Z  " style="fill:rgb(42, 191, 253); fill-opacity:1.000; stroke:none;" />
 <path d="  M 55,21  L 55,20  L 54,20  L 54,21  Z  " style="fill:rgb(42, 191, 253); fill-opacity:1.000; stroke:none;" />
 <path d="  M 55,28  L 55,29  L 56,29  L 56,28  Z  " style="fill:rgb(42, 191, 253); fill-opacity:1.000; stroke:none;" />
 <path d="  M 57,23  L 56,23  L 56,24  L 57,24  Z  " style="fill:rgb(42, 191, 253); fill-opacity:1.000; stroke:none;" />
 <path d="  M 57,26  L 56,26  L 56,27  L 57,27  Z  " style="fill:rgb(42, 191, 253); fill-opacity:1.000; stroke:none;" />
 <path d="  M 59,25  L 57,25  L 57,26  L 59,26  Z  " style="fill:rgb(42, 191, 253); fill-opacity:1.000; stroke:none;" />
 <path d="  M 16,43  L 14,43  L 14,44  L 15,44  L 15,45  L 16,45  Z  " style="fill:rgb(10, 63, 144); fill-opacity:1.000; stroke:none;" />
 <path d="  M 17,42  L 16,42  L 16,43  L 17,43  Z  " style="fill:rgb(10, 63, 144); fill-opacity:1.000; stroke:none;" />
 <path d="  M 25,26  L 24,26  L 24,27  L 25,27  Z  " style="fill:rgb(10, 63, 144); fill-opacity:1.000; stroke:none;" />
 <path d="  M 25,25  L 25,26  L 26,26  L 26,25  Z  " style="fill:rgb(10, 63, 144); fill-opacity:1.000; stroke:none;" />
 <path d="  M 36,19  L 34,19  L 34,20  L 35,20  L 35,21  L 36,21  Z  " style="fill:rgb(10, 63, 144); fill-opacity:1.000; stroke:none;" />
 <path d="  M 35,44  L 36,44  L 36,45  L 37,45  L 37,44  L 38,44  L 38,43  L 37,43  L 37,42  L 36,42  L 36,43  L 35,43  Z  " style="fill:rgb(10, 63, 144); fill-opacity:1.000; stroke:none;" />
 <path d="  M 54,25  L 53,25  L 53,26  L 54,26  Z  " style="fill:rgb(10, 63, 144); fill-opacity:1.000; stroke:none;" />
 <path d="  M 55,26  L 54,26  L 54,27  L 55,27  Z  " style="fill:rgb(10, 63, 144); fill-opacity:1.000; stroke:none;" />
 <path d="  M 19,48  L 19,47  L 18,47  L 18,48  Z  " style="fill:rgb(23, 124, 4); fill-opacity:1.000; stroke:none;" />
 <path d="  M 20,44  L 20,46  L 19,46  L 19,47  L 21,47  L 21,46  L 22,46  L 22,45  L 21,45  L 21,44  Z  " style="fill:rgb(23, 124, 4); fill-opacity:1.000; stroke:none;" />
 <path d="  M 23,47  L 24,47  L 24,46  L 23,46  Z  " style="fill:rgb(23, 124, 4); fill-opacity:1.000; stroke:none;" />
 <path d="  M 25,48  L 26,48  L 26,47  L 25,47  Z  " style="fill:rgb(23, 124, 4); fill-opacity:1.000; stroke:none;" />
 <path d="  M 28,49  L 28,48  L 27,48  L 27,49  Z  " style="fill:rgb(23, 124, 4); fill-opacity:1.000; stroke:none;" />
 <path d="  M 29,31  L 29,30  L 28,30  L 28,31  Z  " style="fill:rgb(23, 124, 4); fill-opacity:1.000; stroke:none;" />
 <path d="  M 29,49  L 28,49  L 28,50  L 29,50  Z  " style="fill:rgb(23, 124, 4); fill-opacity:1.000; stroke:none;" />
 <path d="  M 29,30  L 30,30  L 30,29  L 29,29  Z  " style="fill:rgb(23, 124, 4); fill-opacity:1.000; stroke:none;" />
 <path d="  M 30,51  L 30,50  L 29,50  L 29,51  Z  " style="fill:rgb(23, 124, 4); fill-opacity:1.000; stroke:none;" />
 <path d="  M 30,28  L 30,29  L 31,29  L 31,28  Z  " style="fill:rgb(23, 124, 4); fill-opacity:1.000; stroke:none;" />
 <path d="  M 31,31  L 31,30  L 30,30  L 30,31  Z  " style="fill:rgb(23, 124, 4); fill-opacity:1.000; stroke:none;" />
 <path d="  M 30,52  L 31,52  L 31,51  L 30,51  Z  " style="fill:rgb(23, 124, 4); fill-opacity:1.000; stroke:none;" />
 <path d="  M 31,23  L 31,24  L 32,24  L 32,23  Z  " style="fill:rgb(23, 124, 4); fill-opacity:1.000; stroke:none;" />
 <path d="  M 32,31  L 31,31  L 31,32  L 32,32  Z  " style="fill:rgb(23, 124, 4); fill-opacity:1.000; stroke:none;" />
 <path d="  M 32,54  L 32,53  L 31,53  L 31,54  Z  " style="fill:rgb(23, 124, 4); fill-opacity:1.000; stroke:none;" />
 <path d="  M 33,25  L 33,24  L 32,24  L 32,25  Z  " style="fill:rgb(23, 124, 4); fill-opacity:1.000; stroke:none;" />
 <path d="  M 33,32  L 32,32  L 32,34  L 33,34  Z  " style="fill:rgb(23, 124, 4); fill-opacity:1.000; stroke:none;" />
 <path d="  M 33,54  L 32,54  L 32,55  L 33,55  Z  " style="fill:rgb(23, 124, 4); fill-opacity:1.000; stroke:none;" />
 <path d="  M 34,25  L 33,25  L 33,27  L 34,27  Z  " style="fill:rgb(23, 124, 4); fill-opacity:1.000; stroke:none;" />
 <path d="  M 34,36  L 34,35  L 33,35  L 33,36  Z  " style="fill:rgb(23, 124, 4); fill-opacity:1.000; stroke:none;" />
 <path d="  M 34,57  L 34,56  L 33,56  L 33,57  Z  " style="fill:rgb(23, 124, 4); fill-opacity:1.000; stroke:none;" />
 <path d="  M 34,37  L 35,37  L 35,36  L 34,36  Z  " style="fill:rgb(23, 124, 4); fill-opacity:1.000; stroke:none;" />
 <path d="  M 35,58  L 34,58  L 34,59  L 35,59  Z  " style="fill:rgb(23, 124, 4); fill-opacity:1.000; stroke:none;" />
 <path d="  M 36,39  L 36,37  L 35,37  L 35,39  Z  " style="fill:rgb(23, 124, 4); fill-opacity:1.000; stroke:none;" />
 <path d="  M 35,59  L 35,64  L 36,64  L 36,59  Z  " style="fill:rgb(23, 124, 4); fill-opacity:1.000; stroke:none;" />
 <path d="  M 36,39  L 36,40  L 37,40  L 37,39  Z  " style="fill:rgb(23, 124, 4); fill-opacity:1.000; stroke:none;" />
 <path d="  M 36,51  L 37,51  L 37,52  L 38,52  L 38,50  L 36,50  Z  " style="fill:rgb(23, 124, 4); fill-opacity:1.000; stroke:none;" />
 <path d="  M 37,52  L 36,52  L 36,57  L 37,57  Z  " style="fill:rgb(23, 124, 4); fill-opacity:1.000; stroke:none;" />
 <path d="  M 39,58  L 37,58  L 37,59  L 39,59  Z  " style="fill:rgb(23, 124, 4); fill-opacity:1.000; stroke:none;" />
 <path d="  M 37,60  L 37,61  L 39,61  L 39,60  Z  " style="fill:rgb(23, 124, 4); fill-opacity:1.000; stroke:none;" />
 <path d="  M 40,39  L 40,38  L 39,38  L 39,39  Z  " style="fill:rgb(23, 124, 4); fill-opacity:1.000; stroke:none;" />
 <path d="  M 39,57  L 39,58  L 41,58  L 41,57  Z  " style="fill:rgb(23, 124, 4); fill-opacity:1.000; stroke:none;" />
 <path d="  M 39,60  L 41,60  L 41,59  L 39,59  Z  " style="fill:rgb(23, 124, 4); fill-opacity:1.000; stroke:none;" />
 <path d="  M 42,38  L 42,37  L 40,37  L 40,38  Z  " style="fill:rgb(23, 124, 4); fill-opacity:1.000; stroke:none;" />
 <path d="  M 42,56  L 41,56  L 41,57  L 42,57  Z  " style="fill:rgb(23, 124, 4); fill-opacity:1.000; stroke:none;" />
 <path d="  M 42,59  L 42,58  L 41,58  L 41,59  Z  " style="fill:rgb(23, 124, 4); fill-opacity:1.000; stroke:none;" />
 <path d="  M 42,37  L 43,37  L 43,36  L 42,36  Z  " style="fill:rgb(23, 124, 4); fill-opacity:1.000; stroke:none;" />
 <path d="  M 42,58  L 43,58  L 43,57  L 42,57  Z  " style="fill:rgb(23, 124, 4); fill-opacity:1.000; stroke:none;" />
 <path d="  M 44,35  L 44,34  L 43,34  L 43,35  Z  " style="fill:rgb(23, 124, 4); fill-opacity:1.000; stroke:none;" />
 <path d="  M 44,54  L 43,54  L 43,57  L 44,57  Z  " style="fill:rgb(23, 124, 4); fill-opacity:1.000; stroke:none;" />
 <path d="  M 22,44  L 21,44  L 21,45  L 22,45  Z  " style="fill:rgb(74, 143, 40); fill-opacity:1.000; stroke:none;" />
 <path d="  M 22,46  L 24,46  L 24,45  L 22,45  Z  " style="fill:rgb(74, 143, 40); fill-opacity:1.000; stroke:none;" />
 <path d="  M 25,46  L 24,46  L 24,47  L 25,47  Z  " style="fill:rgb(74, 143, 40); fill-opacity:1.000; stroke:none;" />
 <path d="  M 28,48  L 28,49  L 29,49  L 29,48  Z  " style="fill:rgb(74, 143, 40); fill-opacity:1.000; stroke:none;" />
 <path d="  M 29,50  L 30,50  L 30,49  L 29,49  Z  " style="fill:rgb(74, 143, 40); fill-opacity:1.000; stroke:none;" />
 <path d="  M 30,29  L 30,30  L 31,30  L 31,29  Z  " style="fill:rgb(74, 143, 40); fill-opacity:1.000; stroke:none;" />
 <path d="  M 31,31  L 32,31  L 32,32  L 33,32  L 33,30  L 31,30  Z  " style="fill:rgb(74, 143, 40); fill-opacity:1.000; stroke:none;" />
 <path d="  M 31,53  L 32,53  L 32,52  L 31,52  Z  " style="fill:rgb(74, 143, 40); fill-opacity:1.000; stroke:none;" />
 <path d="  M 33,26  L 32,26  L 32,27  L 33,27  Z  " style="fill:rgb(74, 143, 40); fill-opacity:1.000; stroke:none;" />
 <path d="  M 33,54  L 33,53  L 32,53  L 32,54  Z  " style="fill:rgb(74, 143, 40); fill-opacity:1.000; stroke:none;" />
 <path d="  M 34,35  L 34,34  L 33,34  L 33,35  Z  " style="fill:rgb(74, 143, 40); fill-opacity:1.000; stroke:none;" />
 <path d="  M 34,54  L 33,54  L 33,56  L 34,56  Z  " style="fill:rgb(74, 143, 40); fill-opacity:1.000; stroke:none;" />
 <path d="  M 35,55  L 35,56  L 34,56  L 34,58  L 35,58  L 35,57  L 36,57  L 36,55  Z  " style="fill:rgb(74, 143, 40); fill-opacity:1.000; stroke:none;" />
 <path d="  M 35,36  L 35,37  L 36,37  L 36,36  Z  " style="fill:rgb(74, 143, 40); fill-opacity:1.000; stroke:none;" />
 <path d="  M 36,39  L 37,39  L 37,38  L 36,38  Z  " style="fill:rgb(74, 143, 40); fill-opacity:1.000; stroke:none;" />
 <path d="  M 36,52  L 37,52  L 37,51  L 36,51  Z  " style="fill:rgb(74, 143, 40); fill-opacity:1.000; stroke:none;" />
 <path d="  M 36,57  L 36,58  L 37,58  L 37,57  Z  " style="fill:rgb(74, 143, 40); fill-opacity:1.000; stroke:none;" />
 <path d="  M 37,60  L 36,60  L 36,61  L 37,61  Z  " style="fill:rgb(74, 143, 40); fill-opacity:1.000; stroke:none;" />
 <path d="  M 37,64  L 37,62  L 36,62  L 36,64  Z  " style="fill:rgb(74, 143, 40); fill-opacity:1.000; stroke:none;" />
 <path d="  M 37,40  L 38,40  L 38,39  L 37,39  Z  " style="fill:rgb(74, 143, 40); fill-opacity:1.000; stroke:none;" />
 <path d="  M 37,59  L 37,60  L 39,60  L 39,59  Z  " style="fill:rgb(74, 143, 40); fill-opacity:1.000; stroke:none;" />
 <path d="  M 38,38  L 38,39  L 39,39  L 39,38  Z  " style="fill:rgb(74, 143, 40); fill-opacity:1.000; stroke:none;" />
 <path d="  M 40,37  L 39,37  L 39,38  L 40,38  Z  " style="fill:rgb(74, 143, 40); fill-opacity:1.000; stroke:none;" />
 <path d="  M 40,59  L 40,58  L 39,58  L 39,59  Z  " style="fill:rgb(74, 143, 40); fill-opacity:1.000; stroke:none;" />
 <path d="  M 40,57  L 41,57  L 41,56  L 40,56  Z  " style="fill:rgb(74, 143, 40); fill-opacity:1.000; stroke:none;" />
 <path d="  M 41,37  L 42,37  L 42,36  L 41,36  Z  " style="fill:rgb(74, 143, 40); fill-opacity:1.000; stroke:none;" />
 <path d="  M 42,55  L 41,55  L 41,56  L 42,56  Z  " style="fill:rgb(74, 143, 40); fill-opacity:1.000; stroke:none;" />
 <path d="  M 43,36  L 43,35  L 42,35  L 42,36  Z  " style="fill:rgb(74, 143, 40); fill-opacity:1.000; stroke:none;" />
 <path d="  M 42,54  L 42,55  L 43,55  L 43,54  Z  " style="fill:rgb(74, 143, 40); fill-opacity:1.000; stroke:none;" />
 <path d="  M 44,34  L 45,34  L 45,33  L 44,33  Z  " style="fill:rgb(74, 143, 40); fill-opacity:1.000; stroke:none;" />
 <path d="  M 46,32  L 46,33  L 47,33  L 47,32  Z  " style="fill:rgb(74, 143, 40); fill-opacity:1.000; stroke:none;" />
 <path d="  M 47,31  L 47,32  L 48,32  L 48,31  Z  " style="fill:rgb(74, 143, 40); fill-opacity:1.000; stroke:none;" />
 <path d="  M 49,31  L 50,31  L 50,30  L 49,30  Z  " style="fill:rgb(74, 143, 40); fill-opacity:1.000; stroke:none;" />
 <path d="  M 52,30  L 52,29  L 51,29  L 51,30  Z  " style="fill:rgb(74, 143, 40); fill-opacity:1.000; stroke:none;" />
 <path d="  M 26,46  L 25,46  L 25,47  L 26,47  Z  " style="fill:rgb(85, 171, 45); fill-opacity:1.000; stroke:none;" />
 <path d="  M 28,48  L 28,47  L 26,47  L 26,48  Z  " style="fill:rgb(85, 171, 45); fill-opacity:1.000; stroke:none;" />
 <path d="  M 30,51  L 31,51  L 31,50  L 30,50  Z  " style="fill:rgb(85, 171, 45); fill-opacity:1.000; stroke:none;" />
 <path d="  M 32,51  L 31,51  L 31,52  L 32,52  Z  " style="fill:rgb(85, 171, 45); fill-opacity:1.000; stroke:none;" />
 <path d="  M 33,26  L 33,25  L 32,25  L 32,26  Z  " style="fill:rgb(85, 171, 45); fill-opacity:1.000; stroke:none;" />
 <path d="  M 33,27  L 32,27  L 32,30  L 33,30  Z  " style="fill:rgb(85, 171, 45); fill-opacity:1.000; stroke:none;" />
 <path d="  M 33,33  L 33,34  L 34,34  L 34,33  Z  " style="fill:rgb(85, 171, 45); fill-opacity:1.000; stroke:none;" />
 <path d="  M 35,35  L 34,35  L 34,36  L 35,36  Z  " style="fill:rgb(85, 171, 45); fill-opacity:1.000; stroke:none;" />
 <path d="  M 35,51  L 35,55  L 36,55  L 36,51  Z  " style="fill:rgb(85, 171, 45); fill-opacity:1.000; stroke:none;" />
 <path d="  M 36,57  L 35,57  L 35,59  L 36,59  L 36,60  L 37,60  L 37,58  L 36,58  Z  " style="fill:rgb(85, 171, 45); fill-opacity:1.000; stroke:none;" />
 <path d="  M 36,62  L 37,62  L 37,61  L 36,61  Z  " style="fill:rgb(85, 171, 45); fill-opacity:1.000; stroke:none;" />
 <path d="  M 38,58  L 39,58  L 39,57  L 38,57  Z  " style="fill:rgb(85, 171, 45); fill-opacity:1.000; stroke:none;" />
 <path d="  M 40,56  L 39,56  L 39,57  L 40,57  Z  " style="fill:rgb(85, 171, 45); fill-opacity:1.000; stroke:none;" />
 <path d="  M 40,58  L 40,59  L 41,59  L 41,58  Z  " style="fill:rgb(85, 171, 45); fill-opacity:1.000; stroke:none;" />
 <path d="  M 42,57  L 41,57  L 41,58  L 42,58  Z  " style="fill:rgb(85, 171, 45); fill-opacity:1.000; stroke:none;" />
 <path d="  M 42,34  L 42,35  L 43,35  L 43,34  Z  " style="fill:rgb(85, 171, 45); fill-opacity:1.000; stroke:none;" />
 <path d="  M 43,55  L 42,55  L 42,57  L 43,57  Z  " style="fill:rgb(85, 171, 45); fill-opacity:1.000; stroke:none;" />
 <path d="  M 43,33  L 43,34  L 44,34  L 44,33  Z  " style="fill:rgb(85, 171, 45); fill-opacity:1.000; stroke:none;" />
 <path d="  M 44,53  L 43,53  L 43,54  L 44,54  Z  " style="fill:rgb(85, 171, 45); fill-opacity:1.000; stroke:none;" />
 <path d="  M 46,32  L 44,32  L 44,33  L 46,33  Z  " style="fill:rgb(85, 171, 45); fill-opacity:1.000; stroke:none;" />
 <path d="  M 46,32  L 47,32  L 47,31  L 46,31  Z  " style="fill:rgb(85, 171, 45); fill-opacity:1.000; stroke:none;" />
 <path d="  M 47,30  L 47,31  L 49,31  L 49,30  Z  " style="fill:rgb(85, 171, 45); fill-opacity:1.000; stroke:none;" />
 <path d="  M 51,30  L 51,29  L 49,29  L 49,30  Z  " style="fill:rgb(85, 171, 45); fill-opacity:1.000; stroke:none;" />
</svg>
