<?xml version="1.0" encoding="UTF-8" standalone="no"?>
<!DOCTYPE svg PUBLIC "-//W3C//DTD SVG 1.1//EN" 
  "http://www.w3.org/Graphics/SVG/1.1/DTD/svg11.dtd">
<svg width="64" height="64"
	 xmlns="http://www.w3.org/2000/svg" version="1.1">
 <path d="  M 11,8  L 12,8  L 12,6  L 11,6  L 11,4  L 4,4  L 4,11  L 6,11  L 6,10  L 7,10  L 7,9  L 8,9  L 8,8  L 9,8  L 9,7  L 10,7  L 10,9  L 11,9  Z  M 7,9  L 6,9  L 6,8  L 7,8  Z  " style="fill:rgb(127, 58, 29); fill-opacity:1.000; stroke:none;" />
 <path d="  M 7,54  L 7,53  L 6,53  L 6,52  L 4,52  L 4,60  L 8,60  L 8,59  L 10,59  L 10,58  L 11,58  L 11,57  L 12,57  L 12,55  L 11,55  L 11,54  L 10,54  L 10,55  L 9,55  L 9,54  Z  M 6,53  L 6,54  L 5,54  L 5,53  Z  M 10,57  L 10,56  L 11,56  L 11,57  Z  " style="fill:rgb(127, 58, 29); fill-opacity:1.000; stroke:none;" />
 <path d="  M 7,11  L 6,11  L 6,12  L 7,12  Z  " style="fill:rgb(127, 58, 29); fill-opacity:1.000; stroke:none;" />
 <path d="  M 49,55  L 49,54  L 51,54  L 51,55  L 53,55  L 53,56  L 54,56  L 54,57  L 53,57  L 53,58  L 52,58  L 52,59  L 54,59  L 54,60  L 60,60  L 60,52  L 59,52  L 59,53  L 58,53  L 58,54  L 57,54  L 57,53  L 56,53  L 56,50  L 55,50  L 55,49  L 54,49  L 54,47  L 53,47  L 53,45  L 54,45  L 54,43  L 53,43  L 53,41  L 54,41  L 54,40  L 53,40  L 53,39  L 52,39  L 52,38  L 51,38  L 51,37  L 53,37  L 53,35  L 52,35  L 52,33  L 53,33  L 53,31  L 54,31  L 54,29  L 53,29  L 53,30  L 52,30  L 52,29  L 51,29  L 51,28  L 50,28  L 50,27  L 51,27  L 51,25  L 52,25  L 52,24  L 51,24  L 51,23  L 52,23  L 52,22  L 53,22  L 53,21  L 54,21  L 54,20  L 53,20  L 53,19  L 54,19  L 54,18  L 53,18  L 53,17  L 52,17  L 52,16  L 51,16  L 51,17  L 50,17  L 50,18  L 49,18  L 49,17  L 48,17  L 48,15  L 47,15  L 47,16  L 46,16  L 46,18  L 45,18  L 45,19  L 44,19  L 44,18  L 43,18  L 43,17  L 42,17  L 42,16  L 44,16  L 44,15  L 45,15  L 45,14  L 44,14  L 44,13  L 42,13  L 42,14  L 41,14  L 41,13  L 40,13  L 40,15  L 39,15  L 39,16  L 37,16  L 37,15  L 38,15  L 38,14  L 36,14  L 36,13  L 35,13  L 35,14  L 34,14  L 34,15  L 33,15  L 33,14  L 32,14  L 32,15  L 31,15  L 31,13  L 30,13  L 30,12  L 29,12  L 29,11  L 27,11  L 27,10  L 26,10  L 26,9  L 25,9  L 25,10  L 23,10  L 23,11  L 26,11  L 26,12  L 24,12  L 24,13  L 25,13  L 25,14  L 23,14  L 23,13  L 20,13  L 20,12  L 21,12  L 21,11  L 20,11  L 20,10  L 21,10  L 21,9  L 19,9  L 19,10  L 17,10  L 17,9  L 15,9  L 15,10  L 14,10  L 14,8  L 12,8  L 12,9  L 11,9  L 11,10  L 9,10  L 9,11  L 10,11  L 10,14  L 11,14  L 11,15  L 12,15  L 12,17  L 13,17  L 13,18  L 14,18  L 14,20  L 15,20  L 15,21  L 14,21  L 14,22  L 16,22  L 16,23  L 17,23  L 17,24  L 18,24  L 18,25  L 17,25  L 17,27  L 16,27  L 16,28  L 15,28  L 15,27  L 14,27  L 14,28  L 13,28  L 13,30  L 14,30  L 14,31  L 13,31  L 13,32  L 11,32  L 11,33  L 12,33  L 12,35  L 13,35  L 13,36  L 12,36  L 12,37  L 13,37  L 13,38  L 14,38  L 14,39  L 13,39  L 13,41  L 14,41  L 14,40  L 15,40  L 15,42  L 14,42  L 14,44  L 15,44  L 15,46  L 14,46  L 14,48  L 13,48  L 13,49  L 12,49  L 12,50  L 11,50  L 11,51  L 10,51  L 10,52  L 12,52  L 12,53  L 11,53  L 11,54  L 13,54  L 13,55  L 15,55  L 15,54  L 14,54  L 14,53  L 16,53  L 16,52  L 17,52  L 17,51  L 18,51  L 18,52  L 19,52  L 19,51  L 20,51  L 20,53  L 21,53  L 21,54  L 23,54  L 23,53  L 25,53  L 25,54  L 26,54  L 26,55  L 27,55  L 27,56  L 28,56  L 28,55  L 29,55  L 29,56  L 32,56  L 32,57  L 34,57  L 34,56  L 36,56  L 36,55  L 38,55  L 38,54  L 39,54  L 39,55  L 42,55  L 42,56  L 44,56  L 44,55  L 45,55  L 45,56  L 47,56  L 47,54  L 48,54  L 48,55  Z  M 35,35  L 34,35  L 34,36  L 33,36  L 33,37  L 32,37  L 32,36  L 30,36  L 30,35  L 32,35  L 32,33  L 33,33  L 33,34  L 35,34  Z  M 23,52  L 23,49  L 24,49  L 24,48  L 25,48  L 25,49  L 28,49  L 28,51  L 27,51  L 27,52  L 25,52  L 25,51  L 24,51  L 24,52  Z  M 35,48  L 35,47  L 34,47  L 34,46  L 33,46  L 33,44  L 34,44  L 34,45  L 35,45  L 35,44  L 36,44  L 36,43  L 37,43  L 37,44  L 38,44  L 38,46  L 37,46  L 37,47  L 38,47  L 38,48  Z  M 27,29  L 27,28  L 26,28  L 26,27  L 25,27  L 25,28  L 24,28  L 24,26  L 25,26  L 25,25  L 24,25  L 24,24  L 25,24  L 25,23  L 27,23  L 27,22  L 28,22  L 28,23  L 29,23  L 29,24  L 28,24  L 28,25  L 30,25  L 30,26  L 29,26  L 29,27  L 30,27  L 30,28  L 29,28  L 29,29  Z  M 45,52  L 44,52  L 44,51  L 43,51  L 43,49  L 44,49  L 44,50  L 45,50  L 45,49  L 47,49  L 47,50  L 48,50  L 48,52  L 47,52  L 47,53  L 46,53  L 46,54  L 45,54  Z  M 34,52  L 34,53  L 32,53  L 32,52  L 31,52  L 31,50  L 30,50  L 30,49  L 33,49  L 33,48  L 35,48  L 35,50  L 34,50  L 34,51  L 36,51  L 36,52  Z  M 47,29  L 47,28  L 48,28  L 48,29  L 49,29  L 49,30  L 48,30  L 48,31  L 50,31  L 50,32  L 49,32  L 49,33  L 48,33  L 48,32  L 45,32  L 45,31  L 44,31  L 44,30  L 45,30  L 45,29  Z  M 43,25  L 42,25  L 42,27  L 41,27  L 41,26  L 39,26  L 39,25  L 40,25  L 40,24  L 41,24  L 41,23  L 43,23  Z  M 31,24  L 31,23  L 32,23  L 32,22  L 33,22  L 33,20  L 34,20  L 34,21  L 36,21  L 36,22  L 35,22  L 35,24  L 34,24  L 34,25  L 33,25  L 33,24  Z  M 16,17  L 16,16  L 17,16  L 17,14  L 18,14  L 18,13  L 19,13  L 19,14  L 23,14  L 23,15  L 22,15  L 22,16  L 23,16  L 23,17  L 22,17  L 22,18  L 21,18  L 21,17  L 20,17  L 20,18  L 19,18  L 19,17  Z  M 47,47  L 47,46  L 46,46  L 46,45  L 47,45  L 47,44  L 48,44  L 48,42  L 49,42  L 49,43  L 50,43  L 50,44  L 51,44  L 51,45  L 50,45  L 50,46  L 49,46  L 49,47  Z  M 41,36  L 42,36  L 42,37  L 41,37  L 41,38  L 40,38  L 40,37  L 39,37  L 39,36  L 38,36  L 38,35  L 39,35  L 39,34  L 38,34  L 38,33  L 37,33  L 37,32  L 38,32  L 38,31  L 39,31  L 39,32  L 41,32  L 41,33  L 40,33  L 40,35  L 41,35  Z  M 42,35  L 43,35  L 43,36  L 42,36  Z  M 23,44  L 23,43  L 24,43  L 24,44  L 25,44  L 25,45  L 24,45  L 24,47  L 22,47  L 22,46  L 21,46  L 21,45  L 22,45  L 22,44  Z  M 53,49  L 53,51  L 52,51  L 52,52  L 51,52  L 51,51  L 50,51  L 50,52  L 49,52  L 49,50  L 50,50  L 50,48  L 51,48  L 51,47  L 52,47  L 52,49  Z  M 26,48  L 25,48  L 25,47  L 26,47  Z  M 21,33  L 21,32  L 23,32  L 23,31  L 24,31  L 24,32  L 26,32  L 26,33  L 24,33  L 24,34  L 23,34  L 23,35  L 22,35  L 22,37  L 21,37  L 21,39  L 20,39  L 20,38  L 19,38  L 19,39  L 18,39  L 18,40  L 17,40  L 17,38  L 18,38  L 18,36  L 17,36  L 17,34  L 18,34  L 18,33  L 19,33  L 19,34  L 20,34  L 20,33  Z  M 37,16  L 37,17  L 36,17  L 36,16  Z  M 52,40  L 51,40  L 51,39  L 52,39  Z  M 42,21  L 43,21  L 43,22  L 42,22  Z  M 44,25  L 44,26  L 43,26  L 43,25  Z  M 48,17  L 48,18  L 47,18  L 47,17  Z  M 42,14  L 43,14  L 43,15  L 42,15  Z  M 13,50  L 13,51  L 12,51  L 12,50  Z  M 49,27  L 49,26  L 50,26  L 50,27  Z  M 22,52  L 23,52  L 23,53  L 22,53  Z  M 15,11  L 15,10  L 16,10  L 16,11  Z  M 54,51  L 54,50  L 55,50  L 55,51  Z  M 45,24  L 44,24  L 44,23  L 43,23  L 43,22  L 45,22  Z  M 30,13  L 30,14  L 29,14  L 29,13  Z  M 16,36  L 17,36  L 17,37  L 16,37  Z  M 42,34  L 41,34  L 41,33  L 42,33  Z  " style="fill:rgb(127, 58, 29); fill-opacity:1.000; stroke:none;" />
 <path d="  M 12,17  L 11,17  L 11,18  L 12,18  Z  " style="fill:rgb(127, 58, 29); fill-opacity:1.000; stroke:none;" />
 <path d="  M 12,31  L 13,31  L 13,30  L 12,30  Z  " style="fill:rgb(127, 58, 29); fill-opacity:1.000; stroke:none;" />
 <path d="  M 12,58  L 12,59  L 13,59  L 13,58  Z  " style="fill:rgb(127, 58, 29); fill-opacity:1.000; stroke:none;" />
 <path d="  M 13,22  L 13,23  L 14,23  L 14,22  Z  " style="fill:rgb(127, 58, 29); fill-opacity:1.000; stroke:none;" />
 <path d="  M 14,24  L 15,24  L 15,23  L 14,23  Z  " style="fill:rgb(127, 58, 29); fill-opacity:1.000; stroke:none;" />
 <path d="  M 18,14  L 18,15  L 19,15  L 19,14  Z  " style="fill:rgb(127, 58, 29); fill-opacity:1.000; stroke:none;" />
 <path d="  M 22,35  L 22,34  L 20,34  L 20,35  Z  " style="fill:rgb(127, 58, 29); fill-opacity:1.000; stroke:none;" />
 <path d="  M 21,54  L 20,54  L 20,55  L 21,55  Z  " style="fill:rgb(127, 58, 29); fill-opacity:1.000; stroke:none;" />
 <path d="  M 22,11  L 22,10  L 21,10  L 21,11  Z  " style="fill:rgb(127, 58, 29); fill-opacity:1.000; stroke:none;" />
 <path d="  M 24,55  L 24,54  L 23,54  L 23,55  Z  " style="fill:rgb(127, 58, 29); fill-opacity:1.000; stroke:none;" />
 <path d="  M 28,9  L 27,9  L 27,10  L 28,10  Z  " style="fill:rgb(127, 58, 29); fill-opacity:1.000; stroke:none;" />
 <path d="  M 27,26  L 28,26  L 28,25  L 27,25  Z  " style="fill:rgb(127, 58, 29); fill-opacity:1.000; stroke:none;" />
 <path d="  M 33,14  L 34,14  L 34,13  L 33,13  Z  " style="fill:rgb(127, 58, 29); fill-opacity:1.000; stroke:none;" />
 <path d="  M 36,45  L 37,45  L 37,44  L 36,44  Z  " style="fill:rgb(127, 58, 29); fill-opacity:1.000; stroke:none;" />
 <path d="  M 36,56  L 36,57  L 37,57  L 37,56  Z  " style="fill:rgb(127, 58, 29); fill-opacity:1.000; stroke:none;" />
 <path d="  M 38,55  L 38,56  L 39,56  L 39,55  Z  " style="fill:rgb(127, 58, 29); fill-opacity:1.000; stroke:none;" />
 <path d="  M 47,14  L 47,13  L 49,13  L 49,14  L 51,14  L 51,13  L 53,13  L 53,14  L 54,14  L 54,12  L 55,12  L 55,10  L 54,10  L 54,8  L 55,8  L 55,7  L 56,7  L 56,9  L 57,9  L 57,10  L 58,10  L 58,11  L 59,11  L 59,12  L 60,12  L 60,4  L 52,4  L 52,5  L 53,5  L 53,8  L 52,8  L 52,9  L 51,9  L 51,8  L 50,8  L 50,9  L 49,9  L 49,10  L 48,10  L 48,11  L 47,11  L 47,12  L 46,12  L 46,13  L 45,13  L 45,14  Z  M 49,13  L 49,12  L 50,12  L 50,13  Z  M 53,11  L 54,11  L 54,12  L 53,12  Z  " style="fill:rgb(127, 58, 29); fill-opacity:1.000; stroke:none;" />
 <path d="  M 50,17  L 50,16  L 49,16  L 49,17  Z  " style="fill:rgb(127, 58, 29); fill-opacity:1.000; stroke:none;" />
 <path d="  M 50,16  L 51,16  L 51,15  L 50,15  Z  " style="fill:rgb(127, 58, 29); fill-opacity:1.000; stroke:none;" />
 <path d="  M 52,7  L 51,7  L 51,8  L 52,8  Z  " style="fill:rgb(127, 58, 29); fill-opacity:1.000; stroke:none;" />
 <path d="  M 51,51  L 52,51  L 52,50  L 51,50  Z  " style="fill:rgb(127, 58, 29); fill-opacity:1.000; stroke:none;" />
 <path d="  M 52,28  L 52,29  L 53,29  L 53,28  Z  " style="fill:rgb(127, 58, 29); fill-opacity:1.000; stroke:none;" />
 <path d="  M 57,11  L 57,12  L 58,12  L 58,11  Z  " style="fill:rgb(127, 58, 29); fill-opacity:1.000; stroke:none;" />
 <path d="  M 57,53  L 58,53  L 58,52  L 57,52  Z  " style="fill:rgb(127, 58, 29); fill-opacity:1.000; stroke:none;" />
 <path d="  M 59,13  L 59,12  L 58,12  L 58,13  Z  " style="fill:rgb(127, 58, 29); fill-opacity:1.000; stroke:none;" />
 <path d="  M 12,36  L 13,36  L 13,35  L 12,35  L 12,33  L 11,33  L 11,32  L 13,32  L 13,31  L 12,31  L 12,30  L 13,30  L 13,28  L 14,28  L 14,24  L 13,24  L 13,22  L 14,22  L 14,21  L 15,21  L 15,20  L 14,20  L 14,18  L 13,18  L 13,17  L 12,17  L 12,15  L 11,15  L 11,14  L 10,14  L 10,11  L 9,11  L 9,10  L 11,10  L 11,9  L 10,9  L 10,7  L 9,7  L 9,8  L 8,8  L 8,9  L 7,9  L 7,10  L 6,10  L 6,11  L 4,11  L 4,52  L 6,52  L 6,53  L 7,53  L 7,54  L 9,54  L 9,55  L 10,55  L 10,54  L 11,54  L 11,53  L 12,53  L 12,52  L 10,52  L 10,51  L 11,51  L 11,50  L 12,50  L 12,49  L 13,49  L 13,48  L 12,48  L 12,47  L 11,47  L 11,46  L 12,46  L 12,45  L 15,45  L 15,44  L 14,44  L 14,42  L 15,42  L 15,40  L 14,40  L 14,41  L 13,41  L 13,39  L 14,39  L 14,38  L 13,38  L 13,37  L 12,37  Z  M 5,23  L 5,20  L 7,20  L 7,18  L 8,18  L 8,19  L 9,19  L 9,21  L 8,21  L 8,22  L 6,22  L 6,23  Z  M 6,12  L 6,11  L 7,11  L 7,12  Z  M 7,43  L 7,42  L 8,42  L 8,40  L 9,40  L 9,41  L 10,41  L 10,42  L 11,42  L 11,43  L 12,43  L 12,44  L 11,44  L 11,45  L 9,45  L 9,43  Z  M 11,25  L 11,24  L 12,24  L 12,25  L 13,25  L 13,26  L 12,26  L 12,28  L 10,28  L 10,27  L 9,27  L 9,25  Z  M 12,17  L 12,18  L 11,18  L 11,17  Z  " style="fill:rgb(141, 67, 36); fill-opacity:1.000; stroke:none;" />
 <path d="  M 6,53  L 5,53  L 5,54  L 6,54  Z  " style="fill:rgb(141, 67, 36); fill-opacity:1.000; stroke:none;" />
 <path d="  M 7,9  L 7,8  L 6,8  L 6,9  Z  " style="fill:rgb(141, 67, 36); fill-opacity:1.000; stroke:none;" />
 <path d="  M 54,60  L 54,59  L 52,59  L 52,58  L 53,58  L 53,57  L 54,57  L 54,56  L 53,56  L 53,55  L 51,55  L 51,54  L 50,54  L 50,55  L 49,55  L 49,56  L 48,56  L 48,57  L 47,57  L 47,56  L 46,56  L 46,57  L 44,57  L 44,59  L 43,59  L 43,58  L 41,58  L 41,57  L 42,57  L 42,55  L 39,55  L 39,56  L 38,56  L 38,55  L 36,55  L 36,56  L 34,56  L 34,57  L 32,57  L 32,56  L 29,56  L 29,55  L 28,55  L 28,56  L 27,56  L 27,55  L 25,55  L 25,56  L 24,56  L 24,55  L 22,55  L 22,56  L 21,56  L 21,55  L 20,55  L 20,54  L 21,54  L 21,53  L 20,53  L 20,51  L 19,51  L 19,52  L 18,52  L 18,51  L 17,51  L 17,52  L 16,52  L 16,53  L 14,53  L 14,54  L 15,54  L 15,55  L 13,55  L 13,54  L 11,54  L 11,55  L 12,55  L 12,57  L 11,57  L 11,58  L 10,58  L 10,59  L 8,59  L 8,60  Z  M 50,56  L 50,57  L 49,57  L 49,56  Z  M 36,56  L 37,56  L 37,57  L 36,57  Z  M 30,59  L 26,59  L 26,58  L 27,58  L 27,57  L 30,57  Z  M 13,59  L 12,59  L 12,58  L 13,58  Z  " style="fill:rgb(141, 67, 36); fill-opacity:1.000; stroke:none;" />
 <path d="  M 11,57  L 11,56  L 10,56  L 10,57  Z  " style="fill:rgb(141, 67, 36); fill-opacity:1.000; stroke:none;" />
 <path d="  M 11,4  L 11,6  L 12,6  L 12,8  L 14,8  L 14,10  L 15,10  L 15,9  L 17,9  L 17,10  L 19,10  L 19,9  L 21,9  L 21,8  L 22,8  L 22,7  L 24,7  L 24,8  L 26,8  L 26,10  L 27,10  L 27,11  L 29,11  L 29,12  L 30,12  L 30,13  L 31,13  L 31,15  L 32,15  L 32,14  L 33,14  L 33,13  L 34,13  L 34,14  L 35,14  L 35,13  L 36,13  L 36,14  L 38,14  L 38,15  L 37,15  L 37,16  L 39,16  L 39,15  L 40,15  L 40,13  L 41,13  L 41,14  L 42,14  L 42,13  L 44,13  L 44,14  L 45,14  L 45,13  L 46,13  L 46,12  L 47,12  L 47,11  L 46,11  L 46,10  L 44,10  L 44,9  L 45,9  L 45,8  L 46,8  L 46,9  L 47,9  L 47,8  L 48,8  L 48,7  L 49,7  L 49,8  L 51,8  L 51,7  L 52,7  L 52,8  L 53,8  L 53,5  L 52,5  L 52,4  Z  M 37,11  L 37,10  L 36,10  L 36,9  L 39,9  L 39,10  L 40,10  L 40,9  L 41,9  L 41,10  L 42,10  L 42,11  L 41,11  L 41,12  L 39,12  L 39,11  Z  M 28,9  L 28,10  L 27,10  L 27,9  Z  M 32,5  L 32,6  L 31,6  L 31,5  Z  M 35,5  L 35,6  L 36,6  L 36,7  L 34,7  L 34,8  L 33,8  L 33,9  L 31,9  L 31,7  L 32,7  L 32,6  L 33,6  L 33,5  Z  " style="fill:rgb(141, 67, 36); fill-opacity:1.000; stroke:none;" />
 <path d="  M 12,9  L 12,8  L 11,8  L 11,9  Z  " style="fill:rgb(141, 67, 36); fill-opacity:1.000; stroke:none;" />
 <path d="  M 12,50  L 12,51  L 13,51  L 13,50  Z  " style="fill:rgb(141, 67, 36); fill-opacity:1.000; stroke:none;" />
 <path d="  M 14,31  L 14,30  L 13,30  L 13,31  Z  " style="fill:rgb(141, 67, 36); fill-opacity:1.000; stroke:none;" />
 <path d="  M 15,23  L 15,22  L 14,22  L 14,23  Z  " style="fill:rgb(141, 67, 36); fill-opacity:1.000; stroke:none;" />
 <path d="  M 15,11  L 16,11  L 16,10  L 15,10  Z  " style="fill:rgb(141, 67, 36); fill-opacity:1.000; stroke:none;" />
 <path d="  M 17,16  L 16,16  L 16,17  L 19,17  L 19,18  L 20,18  L 20,17  L 21,17  L 21,18  L 22,18  L 22,17  L 23,17  L 23,16  L 22,16  L 22,15  L 23,15  L 23,14  L 19,14  L 19,15  L 18,15  L 18,14  L 17,14  Z  " style="fill:rgb(141, 67, 36); fill-opacity:1.000; stroke:none;" />
 <path d="  M 16,36  L 16,37  L 17,37  L 17,36  Z  " style="fill:rgb(141, 67, 36); fill-opacity:1.000; stroke:none;" />
 <path d="  M 21,37  L 22,37  L 22,35  L 20,35  L 20,34  L 19,34  L 19,33  L 18,33  L 18,34  L 17,34  L 17,36  L 18,36  L 18,38  L 17,38  L 17,40  L 18,40  L 18,39  L 19,39  L 19,38  L 20,38  L 20,39  L 21,39  Z  " style="fill:rgb(141, 67, 36); fill-opacity:1.000; stroke:none;" />
 <path d="  M 19,14  L 19,13  L 18,13  L 18,14  Z  " style="fill:rgb(141, 67, 36); fill-opacity:1.000; stroke:none;" />
 <path d="  M 21,10  L 20,10  L 20,11  L 21,11  Z  " style="fill:rgb(141, 67, 36); fill-opacity:1.000; stroke:none;" />
 <path d="  M 23,10  L 23,9  L 21,9  L 21,10  Z  " style="fill:rgb(141, 67, 36); fill-opacity:1.000; stroke:none;" />
 <path d="  M 22,53  L 23,53  L 23,52  L 22,52  Z  " style="fill:rgb(141, 67, 36); fill-opacity:1.000; stroke:none;" />
 <path d="  M 25,49  L 25,48  L 24,48  L 24,49  L 23,49  L 23,52  L 24,52  L 24,51  L 25,51  L 25,52  L 27,52  L 27,51  L 28,51  L 28,49  Z  " style="fill:rgb(141, 67, 36); fill-opacity:1.000; stroke:none;" />
 <path d="  M 25,10  L 25,9  L 24,9  L 24,10  Z  " style="fill:rgb(141, 67, 36); fill-opacity:1.000; stroke:none;" />
 <path d="  M 27,29  L 29,29  L 29,28  L 30,28  L 30,27  L 29,27  L 29,26  L 30,26  L 30,25  L 28,25  L 28,24  L 29,24  L 29,23  L 28,23  L 28,22  L 27,22  L 27,23  L 25,23  L 25,24  L 24,24  L 24,25  L 25,25  L 25,26  L 24,26  L 24,28  L 25,28  L 25,27  L 26,27  L 26,28  L 27,28  Z  M 27,26  L 27,25  L 28,25  L 28,26  Z  " style="fill:rgb(141, 67, 36); fill-opacity:1.000; stroke:none;" />
 <path d="  M 25,54  L 25,53  L 24,53  L 24,54  Z  " style="fill:rgb(141, 67, 36); fill-opacity:1.000; stroke:none;" />
 <path d="  M 25,48  L 26,48  L 26,47  L 25,47  Z  " style="fill:rgb(141, 67, 36); fill-opacity:1.000; stroke:none;" />
 <path d="  M 29,13  L 29,14  L 30,14  L 30,13  Z  " style="fill:rgb(141, 67, 36); fill-opacity:1.000; stroke:none;" />
 <path d="  M 33,14  L 33,15  L 34,15  L 34,14  Z  " style="fill:rgb(141, 67, 36); fill-opacity:1.000; stroke:none;" />
 <path d="  M 35,48  L 38,48  L 38,47  L 37,47  L 37,46  L 38,46  L 38,44  L 37,44  L 37,45  L 36,45  L 36,44  L 35,44  L 35,45  L 34,45  L 34,44  L 33,44  L 33,46  L 34,46  L 34,47  L 35,47  Z  " style="fill:rgb(141, 67, 36); fill-opacity:1.000; stroke:none;" />
 <path d="  M 34,49  L 35,49  L 35,48  L 34,48  Z  " style="fill:rgb(141, 67, 36); fill-opacity:1.000; stroke:none;" />
 <path d="  M 37,16  L 36,16  L 36,17  L 37,17  Z  " style="fill:rgb(141, 67, 36); fill-opacity:1.000; stroke:none;" />
 <path d="  M 37,43  L 36,43  L 36,44  L 37,44  Z  " style="fill:rgb(141, 67, 36); fill-opacity:1.000; stroke:none;" />
 <path d="  M 39,34  L 39,35  L 38,35  L 38,36  L 39,36  L 39,37  L 40,37  L 40,38  L 41,38  L 41,37  L 42,37  L 42,36  L 41,36  L 41,35  L 40,35  L 40,33  L 41,33  L 41,32  L 39,32  L 39,31  L 38,31  L 38,32  L 37,32  L 37,33  L 38,33  L 38,34  Z  " style="fill:rgb(141, 67, 36); fill-opacity:1.000; stroke:none;" />
 <path d="  M 39,55  L 39,54  L 38,54  L 38,55  Z  " style="fill:rgb(141, 67, 36); fill-opacity:1.000; stroke:none;" />
 <path d="  M 41,26  L 41,27  L 42,27  L 42,25  L 43,25  L 43,23  L 41,23  L 41,24  L 40,24  L 40,25  L 39,25  L 39,26  Z  " style="fill:rgb(141, 67, 36); fill-opacity:1.000; stroke:none;" />
 <path d="  M 42,33  L 41,33  L 41,34  L 42,34  Z  " style="fill:rgb(141, 67, 36); fill-opacity:1.000; stroke:none;" />
 <path d="  M 42,14  L 42,15  L 43,15  L 43,14  Z  " style="fill:rgb(141, 67, 36); fill-opacity:1.000; stroke:none;" />
 <path d="  M 43,22  L 43,21  L 42,21  L 42,22  Z  " style="fill:rgb(141, 67, 36); fill-opacity:1.000; stroke:none;" />
 <path d="  M 43,36  L 43,35  L 42,35  L 42,36  Z  " style="fill:rgb(141, 67, 36); fill-opacity:1.000; stroke:none;" />
 <path d="  M 43,22  L 43,23  L 44,23  L 44,24  L 45,24  L 45,22  Z  " style="fill:rgb(141, 67, 36); fill-opacity:1.000; stroke:none;" />
 <path d="  M 43,25  L 43,26  L 44,26  L 44,25  Z  " style="fill:rgb(141, 67, 36); fill-opacity:1.000; stroke:none;" />
 <path d="  M 45,56  L 45,55  L 44,55  L 44,56  Z  " style="fill:rgb(141, 67, 36); fill-opacity:1.000; stroke:none;" />
 <path d="  M 56,37  L 54,37  L 54,36  L 55,36  L 55,34  L 56,34  L 56,35  L 57,35  L 57,34  L 59,34  L 59,36  L 58,36  L 58,37  L 57,37  L 57,38  L 56,38  Z  M 60,16  L 58,16  L 58,15  L 57,15  L 57,16  L 56,16  L 56,15  L 55,15  L 55,14  L 56,14  L 56,13  L 57,13  L 57,14  L 59,14  L 59,15  L 60,15  L 60,12  L 59,12  L 59,13  L 58,13  L 58,12  L 57,12  L 57,11  L 58,11  L 58,10  L 57,10  L 57,9  L 56,9  L 56,7  L 55,7  L 55,8  L 54,8  L 54,10  L 55,10  L 55,12  L 54,12  L 54,14  L 53,14  L 53,13  L 51,13  L 51,14  L 49,14  L 49,13  L 47,13  L 47,14  L 45,14  L 45,15  L 46,15  L 46,16  L 47,16  L 47,15  L 48,15  L 48,17  L 49,17  L 49,16  L 50,16  L 50,15  L 51,15  L 51,16  L 52,16  L 52,17  L 53,17  L 53,18  L 54,18  L 54,19  L 53,19  L 53,20  L 54,20  L 54,21  L 53,21  L 53,22  L 52,22  L 52,23  L 51,23  L 51,24  L 53,24  L 53,23  L 56,23  L 56,24  L 55,24  L 55,26  L 53,26  L 53,25  L 52,25  L 52,26  L 51,26  L 51,27  L 50,27  L 50,28  L 51,28  L 51,29  L 52,29  L 52,28  L 53,28  L 53,29  L 54,29  L 54,31  L 53,31  L 53,33  L 52,33  L 52,35  L 53,35  L 53,37  L 51,37  L 51,38  L 52,38  L 52,39  L 53,39  L 53,40  L 54,40  L 54,41  L 53,41  L 53,42  L 54,42  L 54,43  L 55,43  L 55,42  L 57,42  L 57,43  L 58,43  L 58,44  L 55,44  L 55,45  L 53,45  L 53,47  L 54,47  L 54,49  L 55,49  L 55,50  L 56,50  L 56,53  L 57,53  L 57,52  L 58,52  L 58,53  L 59,53  L 59,52  L 60,52  Z  " style="fill:rgb(141, 67, 36); fill-opacity:1.000; stroke:none;" />
 <path d="  M 48,18  L 48,17  L 47,17  L 47,18  Z  " style="fill:rgb(141, 67, 36); fill-opacity:1.000; stroke:none;" />
 <path d="  M 48,50  L 47,50  L 47,51  L 48,51  Z  " style="fill:rgb(141, 67, 36); fill-opacity:1.000; stroke:none;" />
 <path d="  M 49,9  L 48,9  L 48,10  L 49,10  Z  " style="fill:rgb(141, 67, 36); fill-opacity:1.000; stroke:none;" />
 <path d="  M 49,13  L 50,13  L 50,12  L 49,12  Z  " style="fill:rgb(141, 67, 36); fill-opacity:1.000; stroke:none;" />
 <path d="  M 49,18  L 50,18  L 50,17  L 49,17  Z  " style="fill:rgb(141, 67, 36); fill-opacity:1.000; stroke:none;" />
 <path d="  M 50,27  L 50,26  L 49,26  L 49,27  Z  " style="fill:rgb(141, 67, 36); fill-opacity:1.000; stroke:none;" />
 <path d="  M 52,51  L 53,51  L 53,49  L 52,49  L 52,47  L 51,47  L 51,48  L 50,48  L 50,50  L 49,50  L 49,52  L 50,52  L 50,51  L 51,51  L 51,50  L 52,50  Z  " style="fill:rgb(141, 67, 36); fill-opacity:1.000; stroke:none;" />
 <path d="  M 51,16  L 50,16  L 50,17  L 51,17  Z  " style="fill:rgb(141, 67, 36); fill-opacity:1.000; stroke:none;" />
 <path d="  M 51,9  L 52,9  L 52,8  L 51,8  Z  " style="fill:rgb(141, 67, 36); fill-opacity:1.000; stroke:none;" />
 <path d="  M 51,39  L 51,40  L 52,40  L 52,39  Z  " style="fill:rgb(141, 67, 36); fill-opacity:1.000; stroke:none;" />
 <path d="  M 52,51  L 51,51  L 51,52  L 52,52  Z  " style="fill:rgb(141, 67, 36); fill-opacity:1.000; stroke:none;" />
 <path d="  M 53,30  L 53,29  L 52,29  L 52,30  Z  " style="fill:rgb(141, 67, 36); fill-opacity:1.000; stroke:none;" />
 <path d="  M 53,12  L 54,12  L 54,11  L 53,11  Z  " style="fill:rgb(141, 67, 36); fill-opacity:1.000; stroke:none;" />
 <path d="  M 54,51  L 55,51  L 55,50  L 54,50  Z  " style="fill:rgb(141, 67, 36); fill-opacity:1.000; stroke:none;" />
 <path d="  M 57,53  L 57,54  L 58,54  L 58,53  Z  " style="fill:rgb(141, 67, 36); fill-opacity:1.000; stroke:none;" />
 <path d="  M 59,11  L 58,11  L 58,12  L 59,12  Z  " style="fill:rgb(141, 67, 36); fill-opacity:1.000; stroke:none;" />
 <path d="  M 6,20  L 5,20  L 5,21  L 6,21  Z  " style="fill:rgb(156, 71, 36); fill-opacity:1.000; stroke:none;" />
 <path d="  M 6,21  L 6,22  L 7,22  L 7,21  Z  " style="fill:rgb(156, 71, 36); fill-opacity:1.000; stroke:none;" />
 <path d="  M 7,19  L 8,19  L 8,18  L 7,18  Z  " style="fill:rgb(156, 71, 36); fill-opacity:1.000; stroke:none;" />
 <path d="  M 9,20  L 8,20  L 8,21  L 9,21  Z  " style="fill:rgb(156, 71, 36); fill-opacity:1.000; stroke:none;" />
 <path d="  M 8,41  L 9,41  L 9,40  L 8,40  Z  " style="fill:rgb(156, 71, 36); fill-opacity:1.000; stroke:none;" />
 <path d="  M 9,42  L 8,42  L 8,43  L 9,43  Z  " style="fill:rgb(156, 71, 36); fill-opacity:1.000; stroke:none;" />
 <path d="  M 9,27  L 10,27  L 10,26  L 9,26  Z  " style="fill:rgb(156, 71, 36); fill-opacity:1.000; stroke:none;" />
 <path d="  M 9,42  L 10,42  L 10,41  L 9,41  Z  " style="fill:rgb(156, 71, 36); fill-opacity:1.000; stroke:none;" />
 <path d="  M 9,45  L 10,45  L 10,44  L 9,44  Z  " style="fill:rgb(156, 71, 36); fill-opacity:1.000; stroke:none;" />
 <path d="  M 11,25  L 10,25  L 10,26  L 11,26  Z  " style="fill:rgb(156, 71, 36); fill-opacity:1.000; stroke:none;" />
 <path d="  M 11,42  L 10,42  L 10,43  L 11,43  Z  " style="fill:rgb(156, 71, 36); fill-opacity:1.000; stroke:none;" />
 <path d="  M 11,25  L 12,25  L 12,24  L 11,24  Z  " style="fill:rgb(156, 71, 36); fill-opacity:1.000; stroke:none;" />
 <path d="  M 11,27  L 11,28  L 12,28  L 12,27  Z  " style="fill:rgb(156, 71, 36); fill-opacity:1.000; stroke:none;" />
 <path d="  M 12,43  L 11,43  L 11,44  L 12,44  Z  " style="fill:rgb(156, 71, 36); fill-opacity:1.000; stroke:none;" />
 <path d="  M 11,46  L 11,47  L 12,47  L 12,46  Z  " style="fill:rgb(156, 71, 36); fill-opacity:1.000; stroke:none;" />
 <path d="  M 12,45  L 12,46  L 13,46  L 13,45  Z  " style="fill:rgb(156, 71, 36); fill-opacity:1.000; stroke:none;" />
 <path d="  M 13,48  L 13,47  L 12,47  L 12,48  Z  " style="fill:rgb(156, 71, 36); fill-opacity:1.000; stroke:none;" />
 <path d="  M 15,45  L 14,45  L 14,46  L 15,46  Z  " style="fill:rgb(156, 71, 36); fill-opacity:1.000; stroke:none;" />
 <path d="  M 21,9  L 22,9  L 22,8  L 21,8  Z  " style="fill:rgb(156, 71, 36); fill-opacity:1.000; stroke:none;" />
 <path d="  M 22,55  L 21,55  L 21,56  L 22,56  Z  " style="fill:rgb(156, 71, 36); fill-opacity:1.000; stroke:none;" />
 <path d="  M 23,7  L 22,7  L 22,8  L 23,8  Z  " style="fill:rgb(156, 71, 36); fill-opacity:1.000; stroke:none;" />
 <path d="  M 25,55  L 24,55  L 24,56  L 25,56  Z  " style="fill:rgb(156, 71, 36); fill-opacity:1.000; stroke:none;" />
 <path d="  M 26,8  L 25,8  L 25,9  L 26,9  Z  " style="fill:rgb(156, 71, 36); fill-opacity:1.000; stroke:none;" />
 <path d="  M 25,54  L 25,55  L 26,55  L 26,54  Z  " style="fill:rgb(156, 71, 36); fill-opacity:1.000; stroke:none;" />
 <path d="  M 27,59  L 27,58  L 26,58  L 26,59  Z  " style="fill:rgb(156, 71, 36); fill-opacity:1.000; stroke:none;" />
 <path d="  M 28,58  L 28,59  L 29,59  L 29,58  Z  " style="fill:rgb(156, 71, 36); fill-opacity:1.000; stroke:none;" />
 <path d="  M 30,58  L 30,57  L 29,57  L 29,58  Z  " style="fill:rgb(156, 71, 36); fill-opacity:1.000; stroke:none;" />
 <path d="  M 32,8  L 32,7  L 31,7  L 31,8  Z  " style="fill:rgb(156, 71, 36); fill-opacity:1.000; stroke:none;" />
 <path d="  M 32,9  L 33,9  L 33,8  L 32,8  Z  " style="fill:rgb(156, 71, 36); fill-opacity:1.000; stroke:none;" />
 <path d="  M 34,6  L 35,6  L 35,5  L 34,5  Z  " style="fill:rgb(156, 71, 36); fill-opacity:1.000; stroke:none;" />
 <path d="  M 36,7  L 36,6  L 35,6  L 35,7  Z  " style="fill:rgb(156, 71, 36); fill-opacity:1.000; stroke:none;" />
 <path d="  M 37,10  L 37,9  L 36,9  L 36,10  Z  " style="fill:rgb(156, 71, 36); fill-opacity:1.000; stroke:none;" />
 <path d="  M 38,11  L 38,10  L 37,10  L 37,11  Z  " style="fill:rgb(156, 71, 36); fill-opacity:1.000; stroke:none;" />
 <path d="  M 38,10  L 39,10  L 39,9  L 38,9  Z  " style="fill:rgb(156, 71, 36); fill-opacity:1.000; stroke:none;" />
 <path d="  M 40,12  L 41,12  L 41,11  L 40,11  Z  " style="fill:rgb(156, 71, 36); fill-opacity:1.000; stroke:none;" />
 <path d="  M 41,10  L 41,11  L 42,11  L 42,10  Z  " style="fill:rgb(156, 71, 36); fill-opacity:1.000; stroke:none;" />
 <path d="  M 42,58  L 43,58  L 43,57  L 42,57  Z  " style="fill:rgb(156, 71, 36); fill-opacity:1.000; stroke:none;" />
 <path d="  M 44,58  L 43,58  L 43,59  L 44,59  Z  " style="fill:rgb(156, 71, 36); fill-opacity:1.000; stroke:none;" />
 <path d="  M 44,9  L 44,10  L 46,10  L 46,9  Z  " style="fill:rgb(156, 71, 36); fill-opacity:1.000; stroke:none;" />
 <path d="  M 45,57  L 46,57  L 46,56  L 45,56  Z  " style="fill:rgb(156, 71, 36); fill-opacity:1.000; stroke:none;" />
 <path d="  M 48,11  L 48,10  L 47,10  L 47,11  Z  " style="fill:rgb(156, 71, 36); fill-opacity:1.000; stroke:none;" />
 <path d="  M 47,57  L 48,57  L 48,56  L 47,56  Z  " style="fill:rgb(156, 71, 36); fill-opacity:1.000; stroke:none;" />
 <path d="  M 48,7  L 48,8  L 49,8  L 49,7  Z  " style="fill:rgb(156, 71, 36); fill-opacity:1.000; stroke:none;" />
 <path d="  M 48,55  L 48,56  L 49,56  L 49,55  Z  " style="fill:rgb(156, 71, 36); fill-opacity:1.000; stroke:none;" />
 <path d="  M 49,8  L 49,9  L 50,9  L 50,8  Z  " style="fill:rgb(156, 71, 36); fill-opacity:1.000; stroke:none;" />
 <path d="  M 54,25  L 53,25  L 53,26  L 54,26  Z  " style="fill:rgb(156, 71, 36); fill-opacity:1.000; stroke:none;" />
 <path d="  M 54,24  L 54,25  L 55,25  L 55,24  Z  " style="fill:rgb(156, 71, 36); fill-opacity:1.000; stroke:none;" />
 <path d="  M 54,37  L 55,37  L 55,36  L 54,36  Z  " style="fill:rgb(156, 71, 36); fill-opacity:1.000; stroke:none;" />
 <path d="  M 54,45  L 55,45  L 55,44  L 54,44  Z  " style="fill:rgb(156, 71, 36); fill-opacity:1.000; stroke:none;" />
 <path d="  M 55,23  L 55,24  L 56,24  L 56,23  Z  " style="fill:rgb(156, 71, 36); fill-opacity:1.000; stroke:none;" />
 <path d="  M 56,35  L 55,35  L 55,36  L 56,36  Z  " style="fill:rgb(156, 71, 36); fill-opacity:1.000; stroke:none;" />
 <path d="  M 57,15  L 56,15  L 56,16  L 57,16  Z  " style="fill:rgb(156, 71, 36); fill-opacity:1.000; stroke:none;" />
 <path d="  M 57,38  L 57,37  L 56,37  L 56,38  Z  " style="fill:rgb(156, 71, 36); fill-opacity:1.000; stroke:none;" />
 <path d="  M 56,42  L 56,43  L 57,43  L 57,42  Z  " style="fill:rgb(156, 71, 36); fill-opacity:1.000; stroke:none;" />
 <path d="  M 57,14  L 57,15  L 58,15  L 58,14  Z  " style="fill:rgb(156, 71, 36); fill-opacity:1.000; stroke:none;" />
 <path d="  M 58,36  L 57,36  L 57,37  L 58,37  Z  " style="fill:rgb(156, 71, 36); fill-opacity:1.000; stroke:none;" />
 <path d="  M 57,43  L 57,44  L 58,44  L 58,43  Z  " style="fill:rgb(156, 71, 36); fill-opacity:1.000; stroke:none;" />
 <path d="  M 59,35  L 59,34  L 58,34  L 58,35  Z  " style="fill:rgb(156, 71, 36); fill-opacity:1.000; stroke:none;" />
 <path d="  M 60,16  L 60,15  L 59,15  L 59,16  Z  " style="fill:rgb(156, 71, 36); fill-opacity:1.000; stroke:none;" />
 <path d="  M 6,23  L 6,21  L 5,21  L 5,23  Z  " style="fill:rgb(167, 75, 36); fill-opacity:1.000; stroke:none;" />
 <path d="  M 7,20  L 6,20  L 6,21  L 7,21  L 7,22  L 8,22  L 8,20  L 9,20  L 9,19  L 7,19  Z  " style="fill:rgb(167, 75, 36); fill-opacity:1.000; stroke:none;" />
 <path d="  M 7,42  L 7,43  L 8,43  L 8,42  Z  " style="fill:rgb(167, 75, 36); fill-opacity:1.000; stroke:none;" />
 <path d="  M 8,41  L 8,42  L 9,42  L 9,41  Z  " style="fill:rgb(167, 75, 36); fill-opacity:1.000; stroke:none;" />
 <path d="  M 10,26  L 10,25  L 9,25  L 9,26  Z  " style="fill:rgb(167, 75, 36); fill-opacity:1.000; stroke:none;" />
 <path d="  M 9,44  L 10,44  L 10,45  L 11,45  L 11,43  L 10,43  L 10,42  L 9,42  Z  " style="fill:rgb(167, 75, 36); fill-opacity:1.000; stroke:none;" />
 <path d="  M 13,25  L 11,25  L 11,26  L 10,26  L 10,28  L 11,28  L 11,27  L 12,27  L 12,26  L 13,26  Z  " style="fill:rgb(167, 75, 36); fill-opacity:1.000; stroke:none;" />
 <path d="  M 13,48  L 14,48  L 14,45  L 13,45  L 13,46  L 12,46  L 12,47  L 13,47  Z  " style="fill:rgb(167, 75, 36); fill-opacity:1.000; stroke:none;" />
 <path d="  M 21,54  L 21,55  L 23,55  L 23,54  Z  " style="fill:rgb(167, 75, 36); fill-opacity:1.000; stroke:none;" />
 <path d="  M 24,10  L 24,9  L 25,9  L 25,8  L 24,8  L 24,7  L 23,7  L 23,8  L 22,8  L 22,9  L 23,9  L 23,10  Z  " style="fill:rgb(167, 75, 36); fill-opacity:1.000; stroke:none;" />
 <path d="  M 23,54  L 24,54  L 24,53  L 23,53  Z  " style="fill:rgb(167, 75, 36); fill-opacity:1.000; stroke:none;" />
 <path d="  M 24,54  L 24,55  L 25,55  L 25,54  Z  " style="fill:rgb(167, 75, 36); fill-opacity:1.000; stroke:none;" />
 <path d="  M 28,59  L 28,58  L 29,58  L 29,57  L 27,57  L 27,59  Z  " style="fill:rgb(167, 75, 36); fill-opacity:1.000; stroke:none;" />
 <path d="  M 30,58  L 29,58  L 29,59  L 30,59  Z  " style="fill:rgb(167, 75, 36); fill-opacity:1.000; stroke:none;" />
 <path d="  M 31,6  L 32,6  L 32,5  L 31,5  Z  " style="fill:rgb(167, 75, 36); fill-opacity:1.000; stroke:none;" />
 <path d="  M 31,8  L 31,9  L 32,9  L 32,8  Z  " style="fill:rgb(167, 75, 36); fill-opacity:1.000; stroke:none;" />
 <path d="  M 34,8  L 34,7  L 35,7  L 35,6  L 34,6  L 34,5  L 33,5  L 33,6  L 32,6  L 32,8  Z  " style="fill:rgb(167, 75, 36); fill-opacity:1.000; stroke:none;" />
 <path d="  M 37,10  L 38,10  L 38,9  L 37,9  Z  " style="fill:rgb(167, 75, 36); fill-opacity:1.000; stroke:none;" />
 <path d="  M 40,12  L 40,11  L 41,11  L 41,9  L 40,9  L 40,10  L 38,10  L 38,11  L 39,11  L 39,12  Z  " style="fill:rgb(167, 75, 36); fill-opacity:1.000; stroke:none;" />
 <path d="  M 42,57  L 41,57  L 41,58  L 42,58  Z  " style="fill:rgb(167, 75, 36); fill-opacity:1.000; stroke:none;" />
 <path d="  M 44,58  L 44,57  L 45,57  L 45,56  L 42,56  L 42,57  L 43,57  L 43,58  Z  " style="fill:rgb(167, 75, 36); fill-opacity:1.000; stroke:none;" />
 <path d="  M 45,9  L 46,9  L 46,8  L 45,8  Z  " style="fill:rgb(167, 75, 36); fill-opacity:1.000; stroke:none;" />
 <path d="  M 47,9  L 46,9  L 46,11  L 47,11  L 47,10  L 48,10  L 48,9  L 49,9  L 49,8  L 47,8  Z  " style="fill:rgb(167, 75, 36); fill-opacity:1.000; stroke:none;" />
 <path d="  M 48,56  L 48,54  L 47,54  L 47,56  Z  " style="fill:rgb(167, 75, 36); fill-opacity:1.000; stroke:none;" />
 <path d="  M 50,54  L 49,54  L 49,55  L 50,55  Z  " style="fill:rgb(167, 75, 36); fill-opacity:1.000; stroke:none;" />
 <path d="  M 49,57  L 50,57  L 50,56  L 49,56  Z  " style="fill:rgb(167, 75, 36); fill-opacity:1.000; stroke:none;" />
 <path d="  M 52,26  L 52,25  L 51,25  L 51,26  Z  " style="fill:rgb(167, 75, 36); fill-opacity:1.000; stroke:none;" />
 <path d="  M 54,25  L 54,24  L 55,24  L 55,23  L 53,23  L 53,24  L 52,24  L 52,25  Z  " style="fill:rgb(167, 75, 36); fill-opacity:1.000; stroke:none;" />
 <path d="  M 54,42  L 53,42  L 53,43  L 54,43  Z  " style="fill:rgb(167, 75, 36); fill-opacity:1.000; stroke:none;" />
 <path d="  M 54,26  L 55,26  L 55,25  L 54,25  Z  " style="fill:rgb(167, 75, 36); fill-opacity:1.000; stroke:none;" />
 <path d="  M 57,44  L 57,43  L 56,43  L 56,42  L 55,42  L 55,43  L 54,43  L 54,44  Z  " style="fill:rgb(167, 75, 36); fill-opacity:1.000; stroke:none;" />
 <path d="  M 56,13  L 56,14  L 55,14  L 55,15  L 57,15  L 57,13  Z  " style="fill:rgb(167, 75, 36); fill-opacity:1.000; stroke:none;" />
 <path d="  M 55,34  L 55,35  L 56,35  L 56,34  Z  " style="fill:rgb(167, 75, 36); fill-opacity:1.000; stroke:none;" />
 <path d="  M 55,37  L 57,37  L 57,36  L 59,36  L 59,35  L 58,35  L 58,34  L 57,34  L 57,35  L 56,35  L 56,36  L 55,36  Z  " style="fill:rgb(167, 75, 36); fill-opacity:1.000; stroke:none;" />
 <path d="  M 58,16  L 59,16  L 59,14  L 58,14  Z  " style="fill:rgb(167, 75, 36); fill-opacity:1.000; stroke:none;" />
 <path d="  M 14,23  L 13,23  L 13,24  L 14,24  Z  " style="fill:rgb(107, 52, 32); fill-opacity:1.000; stroke:none;" />
 <path d="  M 17,26  L 17,24  L 16,24  L 16,23  L 15,23  L 15,24  L 14,24  L 14,25  L 15,25  L 15,26  L 14,26  L 14,27  L 16,27  L 16,26  Z  " style="fill:rgb(107, 52, 32); fill-opacity:1.000; stroke:none;" />
 <path d="  M 23,12  L 23,11  L 21,11  L 21,12  L 22,12  L 22,13  L 24,13  L 24,12  Z  " style="fill:rgb(107, 52, 32); fill-opacity:1.000; stroke:none;" />
 <path d="  M 23,32  L 22,32  L 22,33  L 21,33  L 21,34  L 23,34  L 23,33  L 25,33  L 25,32  L 24,32  L 24,31  L 23,31  Z  " style="fill:rgb(107, 52, 32); fill-opacity:1.000; stroke:none;" />
 <path d="  M 22,47  L 23,47  L 23,46  L 24,46  L 24,44  L 23,44  L 23,45  L 22,45  Z  " style="fill:rgb(107, 52, 32); fill-opacity:1.000; stroke:none;" />
 <path d="  M 25,12  L 25,11  L 24,11  L 24,12  Z  " style="fill:rgb(107, 52, 32); fill-opacity:1.000; stroke:none;" />
 <path d="  M 24,13  L 24,14  L 25,14  L 25,13  Z  " style="fill:rgb(107, 52, 32); fill-opacity:1.000; stroke:none;" />
 <path d="  M 33,36  L 33,35  L 31,35  L 31,36  Z  " style="fill:rgb(107, 52, 32); fill-opacity:1.000; stroke:none;" />
 <path d="  M 33,50  L 32,50  L 32,49  L 31,49  L 31,51  L 32,51  L 32,53  L 33,53  L 33,52  L 35,52  L 35,51  L 33,51  Z  " style="fill:rgb(107, 52, 32); fill-opacity:1.000; stroke:none;" />
 <path d="  M 33,25  L 34,25  L 34,23  L 33,23  L 33,22  L 32,22  L 32,24  L 33,24  Z  " style="fill:rgb(107, 52, 32); fill-opacity:1.000; stroke:none;" />
 <path d="  M 32,34  L 33,34  L 33,33  L 32,33  Z  " style="fill:rgb(107, 52, 32); fill-opacity:1.000; stroke:none;" />
 <path d="  M 33,22  L 34,22  L 34,21  L 33,21  Z  " style="fill:rgb(107, 52, 32); fill-opacity:1.000; stroke:none;" />
 <path d="  M 34,35  L 34,34  L 33,34  L 33,35  Z  " style="fill:rgb(107, 52, 32); fill-opacity:1.000; stroke:none;" />
 <path d="  M 34,50  L 34,49  L 33,49  L 33,50  Z  " style="fill:rgb(107, 52, 32); fill-opacity:1.000; stroke:none;" />
 <path d="  M 34,23  L 35,23  L 35,22  L 34,22  Z  " style="fill:rgb(107, 52, 32); fill-opacity:1.000; stroke:none;" />
 <path d="  M 44,15  L 44,17  L 43,17  L 43,18  L 45,18  L 45,17  L 46,17  L 46,16  L 45,16  L 45,15  Z  " style="fill:rgb(107, 52, 32); fill-opacity:1.000; stroke:none;" />
 <path d="  M 43,50  L 44,50  L 44,49  L 43,49  Z  " style="fill:rgb(107, 52, 32); fill-opacity:1.000; stroke:none;" />
 <path d="  M 46,53  L 46,52  L 47,52  L 47,50  L 46,50  L 46,49  L 45,49  L 45,50  L 44,50  L 44,52  L 45,52  L 45,53  Z  " style="fill:rgb(107, 52, 32); fill-opacity:1.000; stroke:none;" />
 <path d="  M 45,29  L 45,31  L 46,31  L 46,32  L 49,32  L 49,31  L 48,31  L 48,29  L 47,29  L 47,30  L 46,30  L 46,29  Z  " style="fill:rgb(107, 52, 32); fill-opacity:1.000; stroke:none;" />
 <path d="  M 48,45  L 47,45  L 47,46  L 48,46  L 48,47  L 49,47  L 49,46  L 50,46  L 50,44  L 49,44  L 49,43  L 48,43  Z  " style="fill:rgb(107, 52, 32); fill-opacity:1.000; stroke:none;" />
 <path d="  M 14,25  L 14,26  L 15,26  L 15,25  Z  " style="fill:rgb(117, 56, 34); fill-opacity:1.000; stroke:none;" />
 <path d="  M 15,22  L 15,23  L 16,23  L 16,22  Z  " style="fill:rgb(117, 56, 34); fill-opacity:1.000; stroke:none;" />
 <path d="  M 16,27  L 15,27  L 15,28  L 16,28  Z  " style="fill:rgb(117, 56, 34); fill-opacity:1.000; stroke:none;" />
 <path d="  M 17,24  L 17,23  L 16,23  L 16,24  Z  " style="fill:rgb(117, 56, 34); fill-opacity:1.000; stroke:none;" />
 <path d="  M 16,26  L 16,27  L 17,27  L 17,26  Z  " style="fill:rgb(117, 56, 34); fill-opacity:1.000; stroke:none;" />
 <path d="  M 17,25  L 18,25  L 18,24  L 17,24  Z  " style="fill:rgb(117, 56, 34); fill-opacity:1.000; stroke:none;" />
 <path d="  M 20,13  L 22,13  L 22,12  L 20,12  Z  " style="fill:rgb(117, 56, 34); fill-opacity:1.000; stroke:none;" />
 <path d="  M 20,34  L 21,34  L 21,33  L 20,33  Z  " style="fill:rgb(117, 56, 34); fill-opacity:1.000; stroke:none;" />
 <path d="  M 22,32  L 21,32  L 21,33  L 22,33  Z  " style="fill:rgb(117, 56, 34); fill-opacity:1.000; stroke:none;" />
 <path d="  M 21,46  L 22,46  L 22,45  L 21,45  Z  " style="fill:rgb(117, 56, 34); fill-opacity:1.000; stroke:none;" />
 <path d="  M 22,10  L 22,11  L 23,11  L 23,10  Z  " style="fill:rgb(117, 56, 34); fill-opacity:1.000; stroke:none;" />
 <path d="  M 22,35  L 23,35  L 23,34  L 22,34  Z  " style="fill:rgb(117, 56, 34); fill-opacity:1.000; stroke:none;" />
 <path d="  M 22,44  L 22,45  L 23,45  L 23,44  Z  " style="fill:rgb(117, 56, 34); fill-opacity:1.000; stroke:none;" />
 <path d="  M 23,11  L 23,12  L 24,12  L 24,11  Z  " style="fill:rgb(117, 56, 34); fill-opacity:1.000; stroke:none;" />
 <path d="  M 24,13  L 23,13  L 23,14  L 24,14  Z  " style="fill:rgb(117, 56, 34); fill-opacity:1.000; stroke:none;" />
 <path d="  M 24,33  L 23,33  L 23,34  L 24,34  Z  " style="fill:rgb(117, 56, 34); fill-opacity:1.000; stroke:none;" />
 <path d="  M 23,43  L 23,44  L 24,44  L 24,43  Z  " style="fill:rgb(117, 56, 34); fill-opacity:1.000; stroke:none;" />
 <path d="  M 23,47  L 24,47  L 24,46  L 23,46  Z  " style="fill:rgb(117, 56, 34); fill-opacity:1.000; stroke:none;" />
 <path d="  M 24,45  L 25,45  L 25,44  L 24,44  Z  " style="fill:rgb(117, 56, 34); fill-opacity:1.000; stroke:none;" />
 <path d="  M 26,12  L 26,11  L 25,11  L 25,12  Z  " style="fill:rgb(117, 56, 34); fill-opacity:1.000; stroke:none;" />
 <path d="  M 25,32  L 25,33  L 26,33  L 26,32  Z  " style="fill:rgb(117, 56, 34); fill-opacity:1.000; stroke:none;" />
 <path d="  M 31,36  L 31,35  L 30,35  L 30,36  Z  " style="fill:rgb(117, 56, 34); fill-opacity:1.000; stroke:none;" />
 <path d="  M 30,50  L 31,50  L 31,49  L 30,49  Z  " style="fill:rgb(117, 56, 34); fill-opacity:1.000; stroke:none;" />
 <path d="  M 31,23  L 31,24  L 32,24  L 32,23  Z  " style="fill:rgb(117, 56, 34); fill-opacity:1.000; stroke:none;" />
 <path d="  M 32,51  L 31,51  L 31,52  L 32,52  Z  " style="fill:rgb(117, 56, 34); fill-opacity:1.000; stroke:none;" />
 <path d="  M 32,34  L 32,35  L 33,35  L 33,34  Z  " style="fill:rgb(117, 56, 34); fill-opacity:1.000; stroke:none;" />
 <path d="  M 33,37  L 33,36  L 32,36  L 32,37  Z  " style="fill:rgb(117, 56, 34); fill-opacity:1.000; stroke:none;" />
 <path d="  M 33,49  L 32,49  L 32,50  L 33,50  Z  " style="fill:rgb(117, 56, 34); fill-opacity:1.000; stroke:none;" />
 <path d="  M 34,20  L 33,20  L 33,21  L 34,21  Z  " style="fill:rgb(117, 56, 34); fill-opacity:1.000; stroke:none;" />
 <path d="  M 34,23  L 34,22  L 33,22  L 33,23  Z  " style="fill:rgb(117, 56, 34); fill-opacity:1.000; stroke:none;" />
 <path d="  M 34,36  L 34,35  L 33,35  L 33,36  Z  " style="fill:rgb(117, 56, 34); fill-opacity:1.000; stroke:none;" />
 <path d="  M 33,49  L 34,49  L 34,48  L 33,48  Z  " style="fill:rgb(117, 56, 34); fill-opacity:1.000; stroke:none;" />
 <path d="  M 34,50  L 33,50  L 33,51  L 34,51  Z  " style="fill:rgb(117, 56, 34); fill-opacity:1.000; stroke:none;" />
 <path d="  M 34,52  L 33,52  L 33,53  L 34,53  Z  " style="fill:rgb(117, 56, 34); fill-opacity:1.000; stroke:none;" />
 <path d="  M 36,22  L 36,21  L 34,21  L 34,22  Z  " style="fill:rgb(117, 56, 34); fill-opacity:1.000; stroke:none;" />
 <path d="  M 34,23  L 34,24  L 35,24  L 35,23  Z  " style="fill:rgb(117, 56, 34); fill-opacity:1.000; stroke:none;" />
 <path d="  M 35,34  L 34,34  L 34,35  L 35,35  Z  " style="fill:rgb(117, 56, 34); fill-opacity:1.000; stroke:none;" />
 <path d="  M 34,49  L 34,50  L 35,50  L 35,49  Z  " style="fill:rgb(117, 56, 34); fill-opacity:1.000; stroke:none;" />
 <path d="  M 36,51  L 35,51  L 35,52  L 36,52  Z  " style="fill:rgb(117, 56, 34); fill-opacity:1.000; stroke:none;" />
 <path d="  M 42,16  L 42,17  L 44,17  L 44,16  Z  " style="fill:rgb(117, 56, 34); fill-opacity:1.000; stroke:none;" />
 <path d="  M 43,50  L 43,51  L 44,51  L 44,50  Z  " style="fill:rgb(117, 56, 34); fill-opacity:1.000; stroke:none;" />
 <path d="  M 45,19  L 45,18  L 44,18  L 44,19  Z  " style="fill:rgb(117, 56, 34); fill-opacity:1.000; stroke:none;" />
 <path d="  M 45,30  L 44,30  L 44,31  L 45,31  Z  " style="fill:rgb(117, 56, 34); fill-opacity:1.000; stroke:none;" />
 <path d="  M 46,15  L 45,15  L 45,16  L 46,16  Z  " style="fill:rgb(117, 56, 34); fill-opacity:1.000; stroke:none;" />
 <path d="  M 46,18  L 46,17  L 45,17  L 45,18  Z  " style="fill:rgb(117, 56, 34); fill-opacity:1.000; stroke:none;" />
 <path d="  M 46,31  L 45,31  L 45,32  L 46,32  Z  " style="fill:rgb(117, 56, 34); fill-opacity:1.000; stroke:none;" />
 <path d="  M 45,53  L 45,54  L 46,54  L 46,53  Z  " style="fill:rgb(117, 56, 34); fill-opacity:1.000; stroke:none;" />
 <path d="  M 47,29  L 46,29  L 46,30  L 47,30  Z  " style="fill:rgb(117, 56, 34); fill-opacity:1.000; stroke:none;" />
 <path d="  M 46,45  L 46,46  L 47,46  L 47,45  Z  " style="fill:rgb(117, 56, 34); fill-opacity:1.000; stroke:none;" />
 <path d="  M 46,50  L 47,50  L 47,49  L 46,49  Z  " style="fill:rgb(117, 56, 34); fill-opacity:1.000; stroke:none;" />
 <path d="  M 46,53  L 47,53  L 47,52  L 46,52  Z  " style="fill:rgb(117, 56, 34); fill-opacity:1.000; stroke:none;" />
 <path d="  M 47,28  L 47,29  L 48,29  L 48,28  Z  " style="fill:rgb(117, 56, 34); fill-opacity:1.000; stroke:none;" />
 <path d="  M 48,45  L 48,44  L 47,44  L 47,45  Z  " style="fill:rgb(117, 56, 34); fill-opacity:1.000; stroke:none;" />
 <path d="  M 48,46  L 47,46  L 47,47  L 48,47  Z  " style="fill:rgb(117, 56, 34); fill-opacity:1.000; stroke:none;" />
 <path d="  M 47,52  L 48,52  L 48,51  L 47,51  Z  " style="fill:rgb(117, 56, 34); fill-opacity:1.000; stroke:none;" />
 <path d="  M 48,30  L 49,30  L 49,29  L 48,29  Z  " style="fill:rgb(117, 56, 34); fill-opacity:1.000; stroke:none;" />
 <path d="  M 49,33  L 49,32  L 48,32  L 48,33  Z  " style="fill:rgb(117, 56, 34); fill-opacity:1.000; stroke:none;" />
 <path d="  M 48,42  L 48,43  L 49,43  L 49,42  Z  " style="fill:rgb(117, 56, 34); fill-opacity:1.000; stroke:none;" />
 <path d="  M 50,31  L 49,31  L 49,32  L 50,32  Z  " style="fill:rgb(117, 56, 34); fill-opacity:1.000; stroke:none;" />
 <path d="  M 50,43  L 49,43  L 49,44  L 50,44  Z  " style="fill:rgb(117, 56, 34); fill-opacity:1.000; stroke:none;" />
 <path d="  M 51,45  L 51,44  L 50,44  L 50,45  Z  " style="fill:rgb(117, 56, 34); fill-opacity:1.000; stroke:none;" />
</svg>
