<?xml version="1.0" encoding="UTF-8" standalone="no"?>
<!DOCTYPE svg PUBLIC "-//W3C//DTD SVG 1.1//EN" 
  "http://www.w3.org/Graphics/SVG/1.1/DTD/svg11.dtd">
<svg width="64" height="64"
	 xmlns="http://www.w3.org/2000/svg" version="1.1">
 <path d="  M 5,32  L 4,32  L 4,46  L 5,46  Z  " style="fill:rgb(246, 232, 203); fill-opacity:1.000; stroke:none;" />
 <path d="  M 6,46  L 5,46  L 5,47  L 6,47  Z  " style="fill:rgb(246, 232, 203); fill-opacity:1.000; stroke:none;" />
 <path d="  M 6,47  L 6,48  L 8,48  L 8,47  Z  " style="fill:rgb(246, 232, 203); fill-opacity:1.000; stroke:none;" />
 <path d="  M 9,46  L 9,47  L 10,47  L 10,46  Z  " style="fill:rgb(246, 232, 203); fill-opacity:1.000; stroke:none;" />
 <path d="  M 10,44  L 10,46  L 12,46  L 12,45  L 11,45  L 11,44  Z  " style="fill:rgb(246, 232, 203); fill-opacity:1.000; stroke:none;" />
 <path d="  M 13,44  L 13,45  L 14,45  L 14,44  Z  " style="fill:rgb(246, 232, 203); fill-opacity:1.000; stroke:none;" />
 <path d="  M 14,43  L 14,44  L 18,44  L 18,43  Z  " style="fill:rgb(246, 232, 203); fill-opacity:1.000; stroke:none;" />
 <path d="  M 22,46  L 24,46  L 24,45  L 23,45  L 23,44  L 19,44  L 19,45  L 22,45  Z  " style="fill:rgb(246, 232, 203); fill-opacity:1.000; stroke:none;" />
 <path d="  M 24,46  L 24,47  L 26,47  L 26,46  Z  " style="fill:rgb(246, 232, 203); fill-opacity:1.000; stroke:none;" />
 <path d="  M 27,48  L 27,47  L 26,47  L 26,48  Z  " style="fill:rgb(246, 232, 203); fill-opacity:1.000; stroke:none;" />
 <path d="  M 28,46  L 28,45  L 27,45  L 27,46  Z  " style="fill:rgb(246, 232, 203); fill-opacity:1.000; stroke:none;" />
 <path d="  M 30,44  L 35,44  L 35,43  L 29,43  L 29,44  L 28,44  L 28,45  L 30,45  Z  " style="fill:rgb(246, 232, 203); fill-opacity:1.000; stroke:none;" />
 <path d="  M 37,45  L 37,44  L 35,44  L 35,45  Z  " style="fill:rgb(246, 232, 203); fill-opacity:1.000; stroke:none;" />
 <path d="  M 39,45  L 38,45  L 38,47  L 39,47  Z  " style="fill:rgb(246, 232, 203); fill-opacity:1.000; stroke:none;" />
 <path d="  M 40,47  L 39,47  L 39,48  L 40,48  Z  " style="fill:rgb(246, 232, 203); fill-opacity:1.000; stroke:none;" />
 <path d="  M 42,47  L 42,46  L 40,46  L 40,47  Z  " style="fill:rgb(246, 232, 203); fill-opacity:1.000; stroke:none;" />
 <path d="  M 42,46  L 43,46  L 43,45  L 42,45  Z  " style="fill:rgb(246, 232, 203); fill-opacity:1.000; stroke:none;" />
 <path d="  M 44,45  L 45,45  L 45,44  L 44,44  Z  " style="fill:rgb(246, 232, 203); fill-opacity:1.000; stroke:none;" />
 <path d="  M 52,44  L 52,43  L 46,43  L 46,44  Z  " style="fill:rgb(246, 232, 203); fill-opacity:1.000; stroke:none;" />
 <path d="  M 53,45  L 53,44  L 52,44  L 52,45  Z  " style="fill:rgb(246, 232, 203); fill-opacity:1.000; stroke:none;" />
 <path d="  M 54,45  L 53,45  L 53,46  L 54,46  Z  " style="fill:rgb(246, 232, 203); fill-opacity:1.000; stroke:none;" />
 <path d="  M 58,48  L 58,47  L 57,47  L 57,48  Z  " style="fill:rgb(246, 232, 203); fill-opacity:1.000; stroke:none;" />
 <path d="  M 59,47  L 59,46  L 58,46  L 58,47  Z  " style="fill:rgb(246, 232, 203); fill-opacity:1.000; stroke:none;" />
 <path d="  M 60,32  L 59,32  L 59,46  L 60,46  Z  " style="fill:rgb(246, 232, 203); fill-opacity:1.000; stroke:none;" />
 <path d="  M 4,48  L 6,48  L 6,47  L 5,47  L 5,46  L 4,46  Z  " style="fill:rgb(224, 211, 184); fill-opacity:1.000; stroke:none;" />
 <path d="  M 60,46  L 59,46  L 59,47  L 58,47  L 58,48  L 60,48  Z  " style="fill:rgb(224, 211, 184); fill-opacity:1.000; stroke:none;" />
 <path d="  M 5,48  L 4,48  L 4,64  L 14,64  L 14,63  L 7,63  L 7,62  L 6,62  L 6,63  L 5,63  Z  " style="fill:rgb(127, 58, 29); fill-opacity:1.000; stroke:none;" />
 <path d="  M 16,45  L 15,45  L 15,46  L 16,46  Z  " style="fill:rgb(127, 58, 29); fill-opacity:1.000; stroke:none;" />
 <path d="  M 19,63  L 19,64  L 24,64  L 24,63  Z  " style="fill:rgb(127, 58, 29); fill-opacity:1.000; stroke:none;" />
 <path d="  M 21,47  L 22,47  L 22,46  L 21,46  Z  " style="fill:rgb(127, 58, 29); fill-opacity:1.000; stroke:none;" />
 <path d="  M 30,63  L 26,63  L 26,64  L 30,64  Z  " style="fill:rgb(127, 58, 29); fill-opacity:1.000; stroke:none;" />
 <path d="  M 28,49  L 27,49  L 27,50  L 28,50  Z  " style="fill:rgb(127, 58, 29); fill-opacity:1.000; stroke:none;" />
 <path d="  M 31,46  L 32,46  L 32,45  L 31,45  Z  " style="fill:rgb(127, 58, 29); fill-opacity:1.000; stroke:none;" />
 <path d="  M 39,64  L 39,63  L 34,63  L 34,64  Z  " style="fill:rgb(127, 58, 29); fill-opacity:1.000; stroke:none;" />
 <path d="  M 47,64  L 47,63  L 41,63  L 41,64  Z  " style="fill:rgb(127, 58, 29); fill-opacity:1.000; stroke:none;" />
 <path d="  M 50,45  L 48,45  L 48,46  L 50,46  Z  " style="fill:rgb(127, 58, 29); fill-opacity:1.000; stroke:none;" />
 <path d="  M 51,64  L 51,63  L 49,63  L 49,64  Z  " style="fill:rgb(127, 58, 29); fill-opacity:1.000; stroke:none;" />
 <path d="  M 60,48  L 59,48  L 59,63  L 53,63  L 53,64  L 60,64  Z  " style="fill:rgb(127, 58, 29); fill-opacity:1.000; stroke:none;" />
 <path d="  M 5,46  L 6,46  L 6,47  L 9,47  L 9,46  L 8,46  L 8,44  L 7,44  L 7,42  L 6,42  L 6,32  L 5,32  Z  " style="fill:rgb(253, 244, 216); fill-opacity:1.000; stroke:none;" />
 <path d="  M 10,46  L 10,45  L 9,45  L 9,46  Z  " style="fill:rgb(253, 244, 216); fill-opacity:1.000; stroke:none;" />
 <path d="  M 10,44  L 11,44  L 11,43  L 10,43  Z  " style="fill:rgb(253, 244, 216); fill-opacity:1.000; stroke:none;" />
 <path d="  M 11,44  L 11,45  L 13,45  L 13,44  Z  " style="fill:rgb(253, 244, 216); fill-opacity:1.000; stroke:none;" />
 <path d="  M 14,43  L 13,43  L 13,44  L 14,44  Z  " style="fill:rgb(253, 244, 216); fill-opacity:1.000; stroke:none;" />
 <path d="  M 18,42  L 15,42  L 15,43  L 18,43  Z  " style="fill:rgb(253, 244, 216); fill-opacity:1.000; stroke:none;" />
 <path d="  M 18,43  L 18,44  L 20,44  L 20,43  Z  " style="fill:rgb(253, 244, 216); fill-opacity:1.000; stroke:none;" />
 <path d="  M 21,44  L 22,44  L 22,43  L 21,43  Z  " style="fill:rgb(253, 244, 216); fill-opacity:1.000; stroke:none;" />
 <path d="  M 24,44  L 23,44  L 23,45  L 24,45  Z  " style="fill:rgb(253, 244, 216); fill-opacity:1.000; stroke:none;" />
 <path d="  M 26,46  L 26,47  L 27,47  L 27,45  L 24,45  L 24,46  Z  " style="fill:rgb(253, 244, 216); fill-opacity:1.000; stroke:none;" />
 <path d="  M 28,44  L 27,44  L 27,45  L 28,45  Z  " style="fill:rgb(253, 244, 216); fill-opacity:1.000; stroke:none;" />
 <path d="  M 29,43  L 28,43  L 28,44  L 29,44  Z  " style="fill:rgb(253, 244, 216); fill-opacity:1.000; stroke:none;" />
 <path d="  M 31,42  L 31,43  L 35,43  L 35,42  Z  " style="fill:rgb(253, 244, 216); fill-opacity:1.000; stroke:none;" />
 <path d="  M 35,43  L 35,44  L 36,44  L 36,43  Z  " style="fill:rgb(253, 244, 216); fill-opacity:1.000; stroke:none;" />
 <path d="  M 37,46  L 38,46  L 38,44  L 37,44  Z  " style="fill:rgb(253, 244, 216); fill-opacity:1.000; stroke:none;" />
 <path d="  M 42,45  L 41,45  L 41,46  L 42,46  Z  " style="fill:rgb(253, 244, 216); fill-opacity:1.000; stroke:none;" />
 <path d="  M 44,45  L 44,44  L 42,44  L 42,45  Z  " style="fill:rgb(253, 244, 216); fill-opacity:1.000; stroke:none;" />
 <path d="  M 46,44  L 46,43  L 44,43  L 44,44  Z  " style="fill:rgb(253, 244, 216); fill-opacity:1.000; stroke:none;" />
 <path d="  M 46,42  L 46,43  L 49,43  L 49,42  Z  " style="fill:rgb(253, 244, 216); fill-opacity:1.000; stroke:none;" />
 <path d="  M 51,43  L 51,42  L 50,42  L 50,43  Z  " style="fill:rgb(253, 244, 216); fill-opacity:1.000; stroke:none;" />
 <path d="  M 52,43  L 52,44  L 53,44  L 53,43  Z  " style="fill:rgb(253, 244, 216); fill-opacity:1.000; stroke:none;" />
 <path d="  M 55,44  L 53,44  L 53,45  L 54,45  L 54,46  L 55,46  L 55,47  L 58,47  L 58,46  L 59,46  L 59,32  L 58,32  L 58,43  L 57,43  L 57,46  L 56,46  L 56,45  L 55,45  Z  " style="fill:rgb(253, 244, 216); fill-opacity:1.000; stroke:none;" />
 <path d="  M 5,48  L 5,49  L 6,49  L 6,48  Z  " style="fill:rgb(211, 129, 76); fill-opacity:1.000; stroke:none;" />
 <path d="  M 8,49  L 8,48  L 7,48  L 7,49  Z  " style="fill:rgb(211, 129, 76); fill-opacity:1.000; stroke:none;" />
 <path d="  M 8,47  L 8,48  L 10,48  L 10,47  Z  " style="fill:rgb(211, 129, 76); fill-opacity:1.000; stroke:none;" />
 <path d="  M 13,47  L 13,46  L 12,46  L 12,47  Z  " style="fill:rgb(211, 129, 76); fill-opacity:1.000; stroke:none;" />
 <path d="  M 14,45  L 13,45  L 13,46  L 14,46  Z  " style="fill:rgb(211, 129, 76); fill-opacity:1.000; stroke:none;" />
 <path d="  M 16,44  L 14,44  L 14,45  L 16,45  Z  " style="fill:rgb(211, 129, 76); fill-opacity:1.000; stroke:none;" />
 <path d="  M 19,45  L 19,44  L 18,44  L 18,45  Z  " style="fill:rgb(211, 129, 76); fill-opacity:1.000; stroke:none;" />
 <path d="  M 19,46  L 21,46  L 21,45  L 19,45  Z  " style="fill:rgb(211, 129, 76); fill-opacity:1.000; stroke:none;" />
 <path d="  M 23,47  L 23,46  L 22,46  L 22,47  Z  " style="fill:rgb(211, 129, 76); fill-opacity:1.000; stroke:none;" />
 <path d="  M 23,47  L 23,48  L 25,48  L 25,47  Z  " style="fill:rgb(211, 129, 76); fill-opacity:1.000; stroke:none;" />
 <path d="  M 28,47  L 27,47  L 27,48  L 28,48  Z  " style="fill:rgb(211, 129, 76); fill-opacity:1.000; stroke:none;" />
 <path d="  M 28,47  L 29,47  L 29,46  L 30,46  L 30,45  L 28,45  Z  " style="fill:rgb(211, 129, 76); fill-opacity:1.000; stroke:none;" />
 <path d="  M 31,44  L 30,44  L 30,45  L 31,45  Z  " style="fill:rgb(211, 129, 76); fill-opacity:1.000; stroke:none;" />
 <path d="  M 34,44  L 34,45  L 35,45  L 35,44  Z  " style="fill:rgb(211, 129, 76); fill-opacity:1.000; stroke:none;" />
 <path d="  M 36,46  L 36,45  L 35,45  L 35,46  Z  " style="fill:rgb(211, 129, 76); fill-opacity:1.000; stroke:none;" />
 <path d="  M 39,48  L 39,47  L 38,47  L 38,48  Z  " style="fill:rgb(211, 129, 76); fill-opacity:1.000; stroke:none;" />
 <path d="  M 40,49  L 39,49  L 39,50  L 40,50  Z  " style="fill:rgb(211, 129, 76); fill-opacity:1.000; stroke:none;" />
 <path d="  M 40,49  L 41,49  L 41,48  L 40,48  Z  " style="fill:rgb(211, 129, 76); fill-opacity:1.000; stroke:none;" />
 <path d="  M 42,47  L 41,47  L 41,48  L 42,48  Z  " style="fill:rgb(211, 129, 76); fill-opacity:1.000; stroke:none;" />
 <path d="  M 43,46  L 42,46  L 42,47  L 43,47  Z  " style="fill:rgb(211, 129, 76); fill-opacity:1.000; stroke:none;" />
 <path d="  M 45,45  L 44,45  L 44,46  L 45,46  Z  " style="fill:rgb(211, 129, 76); fill-opacity:1.000; stroke:none;" />
 <path d="  M 48,44  L 48,45  L 50,45  L 50,44  Z  " style="fill:rgb(211, 129, 76); fill-opacity:1.000; stroke:none;" />
 <path d="  M 51,44  L 51,45  L 52,45  L 52,44  Z  " style="fill:rgb(211, 129, 76); fill-opacity:1.000; stroke:none;" />
 <path d="  M 52,45  L 52,46  L 53,46  L 53,45  Z  " style="fill:rgb(211, 129, 76); fill-opacity:1.000; stroke:none;" />
 <path d="  M 54,47  L 54,46  L 53,46  L 53,47  Z  " style="fill:rgb(211, 129, 76); fill-opacity:1.000; stroke:none;" />
 <path d="  M 56,47  L 54,47  L 54,48  L 56,48  Z  " style="fill:rgb(211, 129, 76); fill-opacity:1.000; stroke:none;" />
 <path d="  M 58,49  L 59,49  L 59,48  L 58,48  Z  " style="fill:rgb(211, 129, 76); fill-opacity:1.000; stroke:none;" />
 <path d="  M 5,51  L 6,51  L 6,49  L 5,49  Z  " style="fill:rgb(141, 67, 36); fill-opacity:1.000; stroke:none;" />
 <path d="  M 5,56  L 6,56  L 6,54  L 7,54  L 7,53  L 6,53  L 6,52  L 5,52  Z  " style="fill:rgb(141, 67, 36); fill-opacity:1.000; stroke:none;" />
 <path d="  M 6,56  L 6,57  L 5,57  L 5,63  L 6,63  L 6,62  L 7,62  L 7,61  L 6,61  L 6,60  L 7,60  L 7,56  Z  " style="fill:rgb(141, 67, 36); fill-opacity:1.000; stroke:none;" />
 <path d="  M 7,62  L 7,63  L 10,63  L 10,62  Z  " style="fill:rgb(141, 67, 36); fill-opacity:1.000; stroke:none;" />
 <path d="  M 11,48  L 11,47  L 10,47  L 10,48  Z  " style="fill:rgb(141, 67, 36); fill-opacity:1.000; stroke:none;" />
 <path d="  M 24,63  L 24,62  L 18,62  L 18,61  L 16,61  L 16,62  L 13,62  L 13,63  L 14,63  L 14,64  L 19,64  L 19,63  Z  " style="fill:rgb(141, 67, 36); fill-opacity:1.000; stroke:none;" />
 <path d="  M 18,46  L 18,45  L 16,45  L 16,46  Z  " style="fill:rgb(141, 67, 36); fill-opacity:1.000; stroke:none;" />
 <path d="  M 26,64  L 26,63  L 24,63  L 24,64  Z  " style="fill:rgb(141, 67, 36); fill-opacity:1.000; stroke:none;" />
 <path d="  M 26,48  L 25,48  L 25,49  L 26,49  Z  " style="fill:rgb(141, 67, 36); fill-opacity:1.000; stroke:none;" />
 <path d="  M 28,49  L 28,48  L 27,48  L 27,49  Z  " style="fill:rgb(141, 67, 36); fill-opacity:1.000; stroke:none;" />
 <path d="  M 27,51  L 28,51  L 28,50  L 27,50  Z  " style="fill:rgb(141, 67, 36); fill-opacity:1.000; stroke:none;" />
 <path d="  M 30,64  L 34,64  L 34,63  L 31,63  L 31,62  L 27,62  L 27,63  L 30,63  Z  " style="fill:rgb(141, 67, 36); fill-opacity:1.000; stroke:none;" />
 <path d="  M 31,46  L 31,45  L 30,45  L 30,46  Z  " style="fill:rgb(141, 67, 36); fill-opacity:1.000; stroke:none;" />
 <path d="  M 34,45  L 33,45  L 33,46  L 34,46  Z  " style="fill:rgb(141, 67, 36); fill-opacity:1.000; stroke:none;" />
 <path d="  M 36,62  L 34,62  L 34,63  L 36,63  Z  " style="fill:rgb(141, 67, 36); fill-opacity:1.000; stroke:none;" />
 <path d="  M 40,50  L 39,50  L 39,51  L 40,51  Z  " style="fill:rgb(141, 67, 36); fill-opacity:1.000; stroke:none;" />
 <path d="  M 46,63  L 46,62  L 43,62  L 43,61  L 42,61  L 42,62  L 40,62  L 40,63  L 39,63  L 39,64  L 41,64  L 41,63  Z  " style="fill:rgb(141, 67, 36); fill-opacity:1.000; stroke:none;" />
 <path d="  M 42,48  L 41,48  L 41,49  L 42,49  Z  " style="fill:rgb(141, 67, 36); fill-opacity:1.000; stroke:none;" />
 <path d="  M 43,47  L 44,47  L 44,46  L 43,46  Z  " style="fill:rgb(141, 67, 36); fill-opacity:1.000; stroke:none;" />
 <path d="  M 47,46  L 48,46  L 48,45  L 47,45  Z  " style="fill:rgb(141, 67, 36); fill-opacity:1.000; stroke:none;" />
 <path d="  M 47,63  L 47,64  L 49,64  L 49,63  Z  " style="fill:rgb(141, 67, 36); fill-opacity:1.000; stroke:none;" />
 <path d="  M 52,46  L 52,45  L 51,45  L 51,46  Z  " style="fill:rgb(141, 67, 36); fill-opacity:1.000; stroke:none;" />
 <path d="  M 51,64  L 53,64  L 53,63  L 56,63  L 56,62  L 52,62  L 52,63  L 51,63  Z  " style="fill:rgb(141, 67, 36); fill-opacity:1.000; stroke:none;" />
 <path d="  M 57,49  L 57,48  L 56,48  L 56,49  Z  " style="fill:rgb(141, 67, 36); fill-opacity:1.000; stroke:none;" />
 <path d="  M 58,51  L 59,51  L 59,49  L 58,49  L 58,50  L 57,50  L 57,52  L 58,52  Z  " style="fill:rgb(141, 67, 36); fill-opacity:1.000; stroke:none;" />
 <path d="  M 58,59  L 57,59  L 57,60  L 58,60  Z  " style="fill:rgb(141, 67, 36); fill-opacity:1.000; stroke:none;" />
 <path d="  M 58,62  L 57,62  L 57,63  L 59,63  L 59,61  L 58,61  Z  " style="fill:rgb(141, 67, 36); fill-opacity:1.000; stroke:none;" />
 <path d="  M 59,52  L 58,52  L 58,58  L 59,58  Z  " style="fill:rgb(141, 67, 36); fill-opacity:1.000; stroke:none;" />
 <path d="  M 11,49  L 11,48  L 8,48  L 8,49  L 6,49  L 6,51  L 5,51  L 5,52  L 6,52  L 6,53  L 7,53  L 7,51  L 8,51  L 8,50  L 9,50  L 9,49  Z  " style="fill:rgb(167, 75, 36); fill-opacity:1.000; stroke:none;" />
 <path d="  M 5,56  L 5,57  L 6,57  L 6,56  Z  " style="fill:rgb(167, 75, 36); fill-opacity:1.000; stroke:none;" />
 <path d="  M 8,55  L 8,53  L 7,53  L 7,54  L 6,54  L 6,56  L 7,56  L 7,55  Z  " style="fill:rgb(167, 75, 36); fill-opacity:1.000; stroke:none;" />
 <path d="  M 8,60  L 8,59  L 7,59  L 7,60  L 6,60  L 6,61  L 7,61  L 7,62  L 10,62  L 10,61  L 9,61  L 9,60  Z  " style="fill:rgb(167, 75, 36); fill-opacity:1.000; stroke:none;" />
 <path d="  M 8,56  L 7,56  L 7,58  L 8,58  Z  " style="fill:rgb(167, 75, 36); fill-opacity:1.000; stroke:none;" />
 <path d="  M 12,62  L 12,61  L 11,61  L 11,62  L 10,62  L 10,63  L 13,63  L 13,62  Z  " style="fill:rgb(167, 75, 36); fill-opacity:1.000; stroke:none;" />
 <path d="  M 13,48  L 13,47  L 11,47  L 11,48  Z  " style="fill:rgb(167, 75, 36); fill-opacity:1.000; stroke:none;" />
 <path d="  M 15,45  L 14,45  L 14,46  L 13,46  L 13,47  L 15,47  Z  " style="fill:rgb(167, 75, 36); fill-opacity:1.000; stroke:none;" />
 <path d="  M 16,62  L 16,61  L 14,61  L 14,62  Z  " style="fill:rgb(167, 75, 36); fill-opacity:1.000; stroke:none;" />
 <path d="  M 16,61  L 17,61  L 17,60  L 16,60  Z  " style="fill:rgb(167, 75, 36); fill-opacity:1.000; stroke:none;" />
 <path d="  M 19,45  L 18,45  L 18,47  L 21,47  L 21,46  L 19,46  Z  " style="fill:rgb(167, 75, 36); fill-opacity:1.000; stroke:none;" />
 <path d="  M 21,47  L 21,48  L 23,48  L 23,47  Z  " style="fill:rgb(167, 75, 36); fill-opacity:1.000; stroke:none;" />
 <path d="  M 23,48  L 23,49  L 25,49  L 25,48  Z  " style="fill:rgb(167, 75, 36); fill-opacity:1.000; stroke:none;" />
 <path d="  M 27,62  L 24,62  L 24,63  L 27,63  Z  " style="fill:rgb(167, 75, 36); fill-opacity:1.000; stroke:none;" />
 <path d="  M 27,49  L 25,49  L 25,50  L 26,50  L 26,51  L 27,51  Z  " style="fill:rgb(167, 75, 36); fill-opacity:1.000; stroke:none;" />
 <path d="  M 28,52  L 28,51  L 27,51  L 27,52  Z  " style="fill:rgb(167, 75, 36); fill-opacity:1.000; stroke:none;" />
 <path d="  M 29,47  L 28,47  L 28,49  L 29,49  L 29,48  L 30,48  L 30,47  L 32,47  L 32,46  L 29,46  Z  " style="fill:rgb(167, 75, 36); fill-opacity:1.000; stroke:none;" />
 <path d="  M 34,63  L 34,62  L 31,62  L 31,63  Z  " style="fill:rgb(167, 75, 36); fill-opacity:1.000; stroke:none;" />
 <path d="  M 32,46  L 33,46  L 33,45  L 32,45  Z  " style="fill:rgb(167, 75, 36); fill-opacity:1.000; stroke:none;" />
 <path d="  M 34,45  L 34,46  L 35,46  L 35,45  Z  " style="fill:rgb(167, 75, 36); fill-opacity:1.000; stroke:none;" />
 <path d="  M 35,47  L 37,47  L 37,46  L 35,46  Z  " style="fill:rgb(167, 75, 36); fill-opacity:1.000; stroke:none;" />
 <path d="  M 40,63  L 40,62  L 36,62  L 36,63  Z  " style="fill:rgb(167, 75, 36); fill-opacity:1.000; stroke:none;" />
 <path d="  M 38,47  L 37,47  L 37,48  L 38,48  Z  " style="fill:rgb(167, 75, 36); fill-opacity:1.000; stroke:none;" />
 <path d="  M 39,48  L 38,48  L 38,49  L 39,49  Z  " style="fill:rgb(167, 75, 36); fill-opacity:1.000; stroke:none;" />
 <path d="  M 39,51  L 39,53  L 40,53  L 40,51  Z  " style="fill:rgb(167, 75, 36); fill-opacity:1.000; stroke:none;" />
 <path d="  M 40,51  L 41,51  L 41,50  L 42,50  L 42,49  L 40,49  Z  " style="fill:rgb(167, 75, 36); fill-opacity:1.000; stroke:none;" />
 <path d="  M 40,62  L 42,62  L 42,61  L 40,61  Z  " style="fill:rgb(167, 75, 36); fill-opacity:1.000; stroke:none;" />
 <path d="  M 44,48  L 44,47  L 42,47  L 42,48  Z  " style="fill:rgb(167, 75, 36); fill-opacity:1.000; stroke:none;" />
 <path d="  M 42,61  L 43,61  L 43,60  L 42,60  Z  " style="fill:rgb(167, 75, 36); fill-opacity:1.000; stroke:none;" />
 <path d="  M 46,47  L 46,46  L 47,46  L 47,45  L 45,45  L 45,46  L 44,46  L 44,47  Z  " style="fill:rgb(167, 75, 36); fill-opacity:1.000; stroke:none;" />
 <path d="  M 51,61  L 51,62  L 46,62  L 46,63  L 52,63  L 52,62  L 53,62  L 53,61  Z  " style="fill:rgb(167, 75, 36); fill-opacity:1.000; stroke:none;" />
 <path d="  M 53,46  L 51,46  L 51,45  L 50,45  L 50,47  L 53,47  Z  " style="fill:rgb(167, 75, 36); fill-opacity:1.000; stroke:none;" />
 <path d="  M 53,47  L 53,48  L 54,48  L 54,47  Z  " style="fill:rgb(167, 75, 36); fill-opacity:1.000; stroke:none;" />
 <path d="  M 58,49  L 56,49  L 56,48  L 54,48  L 54,49  L 55,49  L 55,50  L 56,50  L 56,53  L 57,53  L 57,59  L 58,59  L 58,60  L 57,60  L 57,61  L 55,61  L 55,60  L 53,60  L 53,61  L 54,61  L 54,62  L 56,62  L 56,63  L 57,63  L 57,62  L 58,62  L 58,61  L 59,61  L 59,58  L 58,58  L 58,52  L 57,52  L 57,50  L 58,50  Z  " style="fill:rgb(167, 75, 36); fill-opacity:1.000; stroke:none;" />
 <path d="  M 56,60  L 57,60  L 57,59  L 56,59  Z  " style="fill:rgb(167, 75, 36); fill-opacity:1.000; stroke:none;" />
 <path d="  M 59,52  L 59,51  L 58,51  L 58,52  Z  " style="fill:rgb(167, 75, 36); fill-opacity:1.000; stroke:none;" />
 <path d="  M 18,42  L 18,43  L 20,43  L 20,44  L 21,44  L 21,43  L 22,43  L 22,44  L 24,44  L 24,45  L 27,45  L 27,44  L 28,44  L 28,43  L 31,43  L 31,42  L 35,42  L 35,43  L 36,43  L 36,44  L 38,44  L 38,45  L 39,45  L 39,47  L 40,47  L 40,46  L 41,46  L 41,45  L 42,45  L 42,44  L 44,44  L 44,43  L 46,43  L 46,42  L 49,42  L 49,43  L 50,43  L 50,42  L 51,42  L 51,43  L 53,43  L 53,44  L 55,44  L 55,45  L 56,45  L 56,46  L 57,46  L 57,43  L 58,43  L 58,32  L 6,32  L 6,42  L 7,42  L 7,44  L 8,44  L 8,46  L 9,46  L 9,45  L 10,45  L 10,43  L 11,43  L 11,44  L 13,44  L 13,43  L 15,43  L 15,42  Z  " style="fill:rgb(255, 253, 254); fill-opacity:1.000; stroke:none;" />
 <path d="  M 6,48  L 6,49  L 7,49  L 7,48  Z  " style="fill:rgb(221, 156, 110); fill-opacity:1.000; stroke:none;" />
 <path d="  M 10,46  L 10,47  L 12,47  L 12,46  Z  " style="fill:rgb(221, 156, 110); fill-opacity:1.000; stroke:none;" />
 <path d="  M 12,45  L 12,46  L 13,46  L 13,45  Z  " style="fill:rgb(221, 156, 110); fill-opacity:1.000; stroke:none;" />
 <path d="  M 18,45  L 18,44  L 16,44  L 16,45  Z  " style="fill:rgb(221, 156, 110); fill-opacity:1.000; stroke:none;" />
 <path d="  M 21,46  L 22,46  L 22,45  L 21,45  Z  " style="fill:rgb(221, 156, 110); fill-opacity:1.000; stroke:none;" />
 <path d="  M 23,47  L 24,47  L 24,46  L 23,46  Z  " style="fill:rgb(221, 156, 110); fill-opacity:1.000; stroke:none;" />
 <path d="  M 25,48  L 26,48  L 26,47  L 25,47  Z  " style="fill:rgb(221, 156, 110); fill-opacity:1.000; stroke:none;" />
 <path d="  M 26,48  L 26,49  L 27,49  L 27,48  Z  " style="fill:rgb(221, 156, 110); fill-opacity:1.000; stroke:none;" />
 <path d="  M 28,46  L 27,46  L 27,47  L 28,47  Z  " style="fill:rgb(221, 156, 110); fill-opacity:1.000; stroke:none;" />
 <path d="  M 34,45  L 34,44  L 31,44  L 31,45  Z  " style="fill:rgb(221, 156, 110); fill-opacity:1.000; stroke:none;" />
 <path d="  M 37,45  L 36,45  L 36,46  L 37,46  Z  " style="fill:rgb(221, 156, 110); fill-opacity:1.000; stroke:none;" />
 <path d="  M 37,46  L 37,47  L 38,47  L 38,46  Z  " style="fill:rgb(221, 156, 110); fill-opacity:1.000; stroke:none;" />
 <path d="  M 39,49  L 40,49  L 40,48  L 39,48  Z  " style="fill:rgb(221, 156, 110); fill-opacity:1.000; stroke:none;" />
 <path d="  M 41,48  L 41,47  L 40,47  L 40,48  Z  " style="fill:rgb(221, 156, 110); fill-opacity:1.000; stroke:none;" />
 <path d="  M 44,45  L 43,45  L 43,46  L 44,46  Z  " style="fill:rgb(221, 156, 110); fill-opacity:1.000; stroke:none;" />
 <path d="  M 48,45  L 48,44  L 45,44  L 45,45  Z  " style="fill:rgb(221, 156, 110); fill-opacity:1.000; stroke:none;" />
 <path d="  M 51,45  L 51,44  L 50,44  L 50,45  Z  " style="fill:rgb(221, 156, 110); fill-opacity:1.000; stroke:none;" />
 <path d="  M 55,46  L 54,46  L 54,47  L 55,47  Z  " style="fill:rgb(221, 156, 110); fill-opacity:1.000; stroke:none;" />
 <path d="  M 56,48  L 57,48  L 57,47  L 56,47  Z  " style="fill:rgb(221, 156, 110); fill-opacity:1.000; stroke:none;" />
 <path d="  M 57,48  L 57,49  L 58,49  L 58,48  Z  " style="fill:rgb(221, 156, 110); fill-opacity:1.000; stroke:none;" />
 <path d="  M 7,59  L 8,59  L 8,60  L 9,60  L 9,61  L 10,61  L 10,62  L 11,62  L 11,61  L 12,61  L 12,62  L 14,62  L 14,61  L 16,61  L 16,60  L 11,60  L 11,59  L 10,59  L 10,58  L 9,58  L 9,53  L 10,53  L 10,51  L 11,51  L 11,50  L 12,50  L 12,49  L 14,49  L 14,48  L 21,48  L 21,47  L 18,47  L 18,46  L 15,46  L 15,47  L 13,47  L 13,48  L 11,48  L 11,49  L 9,49  L 9,50  L 8,50  L 8,51  L 7,51  L 7,53  L 8,53  L 8,55  L 7,55  L 7,56  L 8,56  L 8,58  L 7,58  Z  " style="fill:rgb(187, 88, 29); fill-opacity:1.000; stroke:none;" />
 <path d="  M 21,49  L 23,49  L 23,48  L 21,48  Z  " style="fill:rgb(187, 88, 29); fill-opacity:1.000; stroke:none;" />
 <path d="  M 26,61  L 26,60  L 24,60  L 24,61  L 22,61  L 22,62  L 31,62  L 31,61  L 30,61  L 30,60  L 29,60  L 29,61  Z  " style="fill:rgb(187, 88, 29); fill-opacity:1.000; stroke:none;" />
 <path d="  M 25,50  L 25,49  L 23,49  L 23,50  Z  " style="fill:rgb(187, 88, 29); fill-opacity:1.000; stroke:none;" />
 <path d="  M 26,50  L 25,50  L 25,51  L 26,51  Z  " style="fill:rgb(187, 88, 29); fill-opacity:1.000; stroke:none;" />
 <path d="  M 26,53  L 27,53  L 27,55  L 28,55  L 28,52  L 27,52  L 27,51  L 26,51  Z  " style="fill:rgb(187, 88, 29); fill-opacity:1.000; stroke:none;" />
 <path d="  M 29,52  L 29,49  L 28,49  L 28,52  Z  " style="fill:rgb(187, 88, 29); fill-opacity:1.000; stroke:none;" />
 <path d="  M 30,49  L 30,48  L 29,48  L 29,49  Z  " style="fill:rgb(187, 88, 29); fill-opacity:1.000; stroke:none;" />
 <path d="  M 31,47  L 30,47  L 30,48  L 31,48  Z  " style="fill:rgb(187, 88, 29); fill-opacity:1.000; stroke:none;" />
 <path d="  M 37,49  L 37,50  L 38,50  L 38,51  L 39,51  L 39,49  L 38,49  L 38,48  L 37,48  L 37,47  L 35,47  L 35,46  L 32,46  L 32,47  L 33,47  L 33,48  L 35,48  L 35,49  Z  " style="fill:rgb(187, 88, 29); fill-opacity:1.000; stroke:none;" />
 <path d="  M 40,61  L 38,61  L 38,60  L 37,60  L 37,61  L 35,61  L 35,60  L 33,60  L 33,61  L 32,61  L 32,62  L 40,62  Z  " style="fill:rgb(187, 88, 29); fill-opacity:1.000; stroke:none;" />
 <path d="  M 53,47  L 50,47  L 50,46  L 46,46  L 46,47  L 44,47  L 44,48  L 42,48  L 42,50  L 41,50  L 41,51  L 40,51  L 40,55  L 41,55  L 41,52  L 42,52  L 42,51  L 43,51  L 43,50  L 45,50  L 45,49  L 47,49  L 47,48  L 51,48  L 51,49  L 53,49  L 53,50  L 54,50  L 54,52  L 55,52  L 55,55  L 54,55  L 54,57  L 53,57  L 53,59  L 52,59  L 52,60  L 50,60  L 50,61  L 46,61  L 46,62  L 51,62  L 51,61  L 53,61  L 53,60  L 55,60  L 55,61  L 57,61  L 57,60  L 56,60  L 56,59  L 57,59  L 57,53  L 56,53  L 56,50  L 55,50  L 55,49  L 54,49  L 54,48  L 53,48  Z  " style="fill:rgb(187, 88, 29); fill-opacity:1.000; stroke:none;" />
 <path d="  M 41,61  L 42,61  L 42,60  L 41,60  Z  " style="fill:rgb(187, 88, 29); fill-opacity:1.000; stroke:none;" />
 <path d="  M 43,62  L 45,62  L 45,61  L 44,61  L 44,60  L 43,60  Z  " style="fill:rgb(187, 88, 29); fill-opacity:1.000; stroke:none;" />
 <path d="  M 53,62  L 54,62  L 54,61  L 53,61  Z  " style="fill:rgb(187, 88, 29); fill-opacity:1.000; stroke:none;" />
 <path d="  M 32,61  L 33,61  L 33,60  L 35,60  L 35,61  L 37,61  L 37,60  L 38,60  L 38,61  L 41,61  L 41,60  L 44,60  L 44,61  L 45,61  L 45,62  L 46,62  L 46,61  L 50,61  L 50,60  L 52,60  L 52,59  L 53,59  L 53,57  L 54,57  L 54,55  L 55,55  L 55,52  L 54,52  L 54,50  L 53,50  L 53,49  L 51,49  L 51,48  L 47,48  L 47,49  L 45,49  L 45,50  L 43,50  L 43,51  L 42,51  L 42,52  L 41,52  L 41,55  L 40,55  L 40,53  L 39,53  L 39,51  L 38,51  L 38,50  L 37,50  L 37,49  L 35,49  L 35,48  L 33,48  L 33,47  L 31,47  L 31,48  L 30,48  L 30,49  L 29,49  L 29,52  L 28,52  L 28,55  L 27,55  L 27,53  L 26,53  L 26,51  L 25,51  L 25,50  L 23,50  L 23,49  L 21,49  L 21,48  L 14,48  L 14,49  L 12,49  L 12,50  L 11,50  L 11,51  L 10,51  L 10,53  L 9,53  L 9,58  L 10,58  L 10,59  L 12,59  L 12,60  L 17,60  L 17,61  L 18,61  L 18,62  L 22,62  L 22,61  L 24,61  L 24,60  L 26,60  L 26,61  L 29,61  L 29,60  L 30,60  L 30,61  L 31,61  L 31,62  L 32,62  Z  " style="fill:rgb(199, 97, 36); fill-opacity:1.000; stroke:none;" />
 <path d="  M 11,60  L 12,60  L 12,59  L 11,59  Z  " style="fill:rgb(194, 95, 36); fill-opacity:1.000; stroke:none;" />
</svg>
