<?xml version="1.0" encoding="UTF-8" standalone="no"?>
<!DOCTYPE svg PUBLIC "-//W3C//DTD SVG 1.1//EN" 
  "http://www.w3.org/Graphics/SVG/1.1/DTD/svg11.dtd">
<svg width="64" height="64"
	 xmlns="http://www.w3.org/2000/svg" version="1.1">
 <path d="  M 10,3  L 10,2  L 9,2  L 9,1  L 7,1  L 7,0  L 0,0  L 0,14  L 1,14  L 1,15  L 2,15  L 2,16  L 3,16  L 3,19  L 4,19  L 4,14  L 3,14  L 3,12  L 4,12  L 4,8  L 3,8  L 3,10  L 2,10  L 2,12  L 1,12  L 1,5  L 2,5  L 2,2  L 4,2  L 4,1  L 6,1  L 6,2  L 7,2  L 7,3  L 8,3  L 8,4  L 12,4  L 12,3  Z  " style="fill:rgb(79, 79, 79); fill-opacity:1.000; stroke:none;" />
 <path d="  M 3,57  L 4,57  L 4,44  L 3,44  L 3,48  L 2,48  L 2,50  L 1,50  L 1,53  L 0,53  L 0,56  L 1,56  L 1,55  L 2,55  L 2,54  L 3,54  Z  " style="fill:rgb(79, 79, 79); fill-opacity:1.000; stroke:none;" />
 <path d="  M 0,64  L 9,64  L 9,63  L 6,63  L 6,62  L 2,62  L 2,60  L 1,60  L 1,58  L 0,58  Z  " style="fill:rgb(79, 79, 79); fill-opacity:1.000; stroke:none;" />
 <path d="  M 40,6  L 40,7  L 36,7  L 36,6  L 34,6  L 34,7  L 28,7  L 28,6  L 22,6  L 22,7  L 7,7  L 7,8  L 6,8  L 6,12  L 7,12  L 7,14  L 6,14  L 6,18  L 7,18  L 7,20  L 6,20  L 6,24  L 7,24  L 7,30  L 6,30  L 6,42  L 7,42  L 7,48  L 6,48  L 6,52  L 7,52  L 7,54  L 6,54  L 6,56  L 7,56  L 7,57  L 10,57  L 10,58  L 18,58  L 18,57  L 22,57  L 22,58  L 30,58  L 30,57  L 34,57  L 34,58  L 38,58  L 38,57  L 44,57  L 44,58  L 50,58  L 50,57  L 54,57  L 54,58  L 56,58  L 56,57  L 57,57  L 57,56  L 58,56  L 58,50  L 57,50  L 57,46  L 58,46  L 58,44  L 57,44  L 57,34  L 58,34  L 58,28  L 57,28  L 57,14  L 58,14  L 58,8  L 57,8  L 57,7  L 52,7  L 52,6  Z  M 8,8  L 56,8  L 56,56  L 8,56  Z  " style="fill:rgb(79, 79, 79); fill-opacity:1.000; stroke:none;" />
 <path d="  M 12,60  L 12,61  L 13,61  L 13,62  L 15,62  L 15,63  L 16,63  L 16,62  L 17,62  L 17,61  L 21,61  L 21,60  Z  " style="fill:rgb(79, 79, 79); fill-opacity:1.000; stroke:none;" />
 <path d="  M 50,1  L 50,2  L 52,2  L 52,3  L 54,3  L 54,4  L 55,4  L 55,3  L 56,3  L 56,2  L 58,2  L 58,1  L 62,1  L 62,2  L 63,2  L 63,4  L 64,4  L 64,0  L 45,0  L 45,1  Z  " style="fill:rgb(79, 79, 79); fill-opacity:1.000; stroke:none;" />
 <path d="  M 64,64  L 64,59  L 63,59  L 63,60  L 62,60  L 62,62  L 60,62  L 60,63  L 58,63  L 58,62  L 57,62  L 57,61  L 55,61  L 55,62  L 54,62  L 54,63  L 52,63  L 52,64  Z  " style="fill:rgb(79, 79, 79); fill-opacity:1.000; stroke:none;" />
 <path d="  M 63,6  L 63,8  L 62,8  L 62,9  L 61,9  L 61,11  L 60,11  L 60,15  L 61,15  L 61,13  L 62,13  L 62,11  L 63,11  L 63,13  L 64,13  L 64,6  Z  " style="fill:rgb(79, 79, 79); fill-opacity:1.000; stroke:none;" />
 <path d="  M 63,51  L 62,51  L 62,49  L 61,49  L 61,50  L 60,50  L 60,51  L 61,51  L 61,54  L 62,54  L 62,56  L 63,56  L 63,58  L 64,58  L 64,52  L 63,52  Z  " style="fill:rgb(79, 79, 79); fill-opacity:1.000; stroke:none;" />
 <path d="  M 64,43  L 63,43  L 63,44  L 62,44  L 62,47  L 63,47  L 63,49  L 64,49  Z  " style="fill:rgb(79, 79, 79); fill-opacity:1.000; stroke:none;" />
 <path d="  M 0,53  L 1,53  L 1,50  L 2,50  L 2,48  L 3,48  L 3,44  L 4,44  L 4,19  L 3,19  L 3,16  L 2,16  L 2,15  L 1,15  L 1,14  L 0,14  L 0,16  L 1,16  L 1,17  L 2,17  L 2,22  L 3,22  L 3,24  L 2,24  L 2,25  L 1,25  L 1,26  L 2,26  L 2,28  L 3,28  L 3,30  L 2,30  L 2,34  L 3,34  L 3,36  L 2,36  L 2,41  L 1,41  L 1,44  L 0,44  Z  " style="fill:rgb(89, 88, 88); fill-opacity:1.000; stroke:none;" />
 <path d="  M 63,58  L 63,56  L 62,56  L 62,54  L 61,54  L 61,51  L 60,51  L 60,60  L 21,60  L 21,61  L 17,61  L 17,62  L 16,62  L 16,63  L 15,63  L 15,62  L 13,62  L 13,61  L 12,61  L 12,60  L 4,60  L 4,57  L 3,57  L 3,54  L 2,54  L 2,55  L 1,55  L 1,56  L 0,56  L 0,58  L 1,58  L 1,60  L 2,60  L 2,62  L 6,62  L 6,63  L 9,63  L 9,64  L 18,64  L 18,63  L 21,63  L 21,62  L 22,62  L 22,61  L 24,61  L 24,62  L 28,62  L 28,61  L 30,61  L 30,62  L 33,62  L 33,63  L 37,63  L 37,62  L 38,62  L 38,61  L 41,61  L 41,62  L 44,62  L 44,63  L 48,63  L 48,64  L 52,64  L 52,63  L 54,63  L 54,62  L 55,62  L 55,61  L 57,61  L 57,62  L 58,62  L 58,63  L 60,63  L 60,62  L 62,62  L 62,60  L 63,60  L 63,59  L 64,59  L 64,58  Z  " style="fill:rgb(89, 88, 88); fill-opacity:1.000; stroke:none;" />
 <path d="  M 1,12  L 2,12  L 2,10  L 3,10  L 3,8  L 4,8  L 4,4  L 8,4  L 8,3  L 7,3  L 7,2  L 6,2  L 6,1  L 4,1  L 4,2  L 2,2  L 2,5  L 1,5  Z  " style="fill:rgb(89, 88, 88); fill-opacity:1.000; stroke:none;" />
 <path d="  M 3,14  L 4,14  L 4,12  L 3,12  Z  " style="fill:rgb(89, 88, 88); fill-opacity:1.000; stroke:none;" />
 <path d="  M 38,2  L 38,3  L 36,3  L 36,2  L 34,2  L 34,1  L 32,1  L 32,2  L 30,2  L 30,3  L 26,3  L 26,2  L 25,2  L 25,1  L 18,1  L 18,0  L 7,0  L 7,1  L 9,1  L 9,2  L 10,2  L 10,3  L 12,3  L 12,4  L 54,4  L 54,3  L 52,3  L 52,2  L 50,2  L 50,1  L 45,1  L 45,0  L 44,0  L 44,1  L 41,1  L 41,2  Z  " style="fill:rgb(89, 88, 88); fill-opacity:1.000; stroke:none;" />
 <path d="  M 58,1  L 58,2  L 56,2  L 56,3  L 55,3  L 55,4  L 60,4  L 60,11  L 61,11  L 61,9  L 62,9  L 62,8  L 63,8  L 63,6  L 64,6  L 64,4  L 63,4  L 63,2  L 62,2  L 62,1  Z  " style="fill:rgb(89, 88, 88); fill-opacity:1.000; stroke:none;" />
 <path d="  M 62,13  L 61,13  L 61,15  L 60,15  L 60,50  L 61,50  L 61,49  L 62,49  L 62,51  L 63,51  L 63,52  L 64,52  L 64,49  L 63,49  L 63,47  L 62,47  L 62,44  L 63,44  L 63,43  L 64,43  L 64,42  L 63,42  L 63,40  L 62,40  L 62,38  L 61,38  L 61,37  L 62,37  L 62,35  L 63,35  L 63,30  L 62,30  L 62,29  L 61,29  L 61,28  L 62,28  L 62,25  L 63,25  L 63,24  L 62,24  L 62,20  L 63,20  L 63,18  L 64,18  L 64,13  L 63,13  L 63,11  L 62,11  Z  " style="fill:rgb(89, 88, 88); fill-opacity:1.000; stroke:none;" />
 <path d="  M 2,36  L 3,36  L 3,34  L 2,34  L 2,30  L 3,30  L 3,28  L 2,28  L 2,26  L 1,26  L 1,25  L 2,25  L 2,24  L 3,24  L 3,22  L 2,22  L 2,17  L 1,17  L 1,16  L 0,16  L 0,44  L 1,44  L 1,41  L 2,41  Z  " style="fill:rgb(103, 97, 97); fill-opacity:1.000; stroke:none;" />
 <path d="  M 36,3  L 38,3  L 38,2  L 41,2  L 41,1  L 44,1  L 44,0  L 18,0  L 18,1  L 25,1  L 25,2  L 26,2  L 26,3  L 30,3  L 30,2  L 32,2  L 32,1  L 34,1  L 34,2  L 36,2  Z  " style="fill:rgb(103, 97, 97); fill-opacity:1.000; stroke:none;" />
 <path d="  M 28,61  L 28,62  L 24,62  L 24,61  L 22,61  L 22,62  L 21,62  L 21,63  L 18,63  L 18,64  L 48,64  L 48,63  L 44,63  L 44,62  L 41,62  L 41,61  L 38,61  L 38,62  L 37,62  L 37,63  L 33,63  L 33,62  L 30,62  L 30,61  Z  " style="fill:rgb(103, 97, 97); fill-opacity:1.000; stroke:none;" />
 <path d="  M 64,18  L 63,18  L 63,20  L 62,20  L 62,24  L 63,24  L 63,25  L 62,25  L 62,28  L 61,28  L 61,29  L 62,29  L 62,30  L 63,30  L 63,35  L 62,35  L 62,37  L 61,37  L 61,38  L 62,38  L 62,40  L 63,40  L 63,42  L 64,42  Z  " style="fill:rgb(103, 97, 97); fill-opacity:1.000; stroke:none;" />
 <path d="  M 5,5  L 10,5  L 10,4  L 4,4  L 4,6  L 5,6  Z  " style="fill:rgb(45, 45, 50); fill-opacity:1.000; stroke:none;" />
 <path d="  M 4,14  L 5,14  L 5,8  L 4,8  Z  " style="fill:rgb(45, 45, 50); fill-opacity:1.000; stroke:none;" />
 <path d="  M 4,18  L 4,20  L 5,20  L 5,18  Z  " style="fill:rgb(45, 45, 50); fill-opacity:1.000; stroke:none;" />
 <path d="  M 4,48  L 5,48  L 5,42  L 4,42  Z  " style="fill:rgb(45, 45, 50); fill-opacity:1.000; stroke:none;" />
 <path d="  M 4,50  L 4,52  L 5,52  L 5,50  Z  " style="fill:rgb(45, 45, 50); fill-opacity:1.000; stroke:none;" />
 <path d="  M 5,56  L 4,56  L 4,58  L 5,58  Z  " style="fill:rgb(45, 45, 50); fill-opacity:1.000; stroke:none;" />
 <path d="  M 12,60  L 12,59  L 10,59  L 10,60  Z  " style="fill:rgb(45, 45, 50); fill-opacity:1.000; stroke:none;" />
 <path d="  M 14,59  L 14,60  L 16,60  L 16,59  Z  " style="fill:rgb(45, 45, 50); fill-opacity:1.000; stroke:none;" />
 <path d="  M 42,5  L 42,4  L 34,4  L 34,5  Z  " style="fill:rgb(45, 45, 50); fill-opacity:1.000; stroke:none;" />
 <path d="  M 40,60  L 40,59  L 38,59  L 38,60  Z  " style="fill:rgb(45, 45, 50); fill-opacity:1.000; stroke:none;" />
 <path d="  M 42,59  L 42,60  L 48,60  L 48,59  Z  " style="fill:rgb(45, 45, 50); fill-opacity:1.000; stroke:none;" />
 <path d="  M 44,4  L 44,5  L 46,5  L 46,4  Z  " style="fill:rgb(45, 45, 50); fill-opacity:1.000; stroke:none;" />
 <path d="  M 52,4  L 52,5  L 59,5  L 59,6  L 60,6  L 60,4  Z  " style="fill:rgb(45, 45, 50); fill-opacity:1.000; stroke:none;" />
 <path d="  M 60,12  L 59,12  L 59,20  L 60,20  Z  " style="fill:rgb(45, 45, 50); fill-opacity:1.000; stroke:none;" />
 <path d="  M 60,46  L 59,46  L 59,58  L 60,58  Z  " style="fill:rgb(45, 45, 50); fill-opacity:1.000; stroke:none;" />
 <path d="  M 4,8  L 5,8  L 5,6  L 4,6  Z  " style="fill:rgb(52, 52, 56); fill-opacity:1.000; stroke:none;" />
 <path d="  M 5,14  L 4,14  L 4,18  L 5,18  Z  " style="fill:rgb(52, 52, 56); fill-opacity:1.000; stroke:none;" />
 <path d="  M 5,20  L 4,20  L 4,42  L 5,42  Z  " style="fill:rgb(52, 52, 56); fill-opacity:1.000; stroke:none;" />
 <path d="  M 4,48  L 4,50  L 5,50  L 5,48  Z  " style="fill:rgb(52, 52, 56); fill-opacity:1.000; stroke:none;" />
 <path d="  M 5,52  L 4,52  L 4,56  L 5,56  Z  " style="fill:rgb(52, 52, 56); fill-opacity:1.000; stroke:none;" />
 <path d="  M 5,59  L 5,58  L 4,58  L 4,60  L 10,60  L 10,59  Z  " style="fill:rgb(52, 52, 56); fill-opacity:1.000; stroke:none;" />
 <path d="  M 10,4  L 10,5  L 34,5  L 34,4  Z  " style="fill:rgb(52, 52, 56); fill-opacity:1.000; stroke:none;" />
 <path d="  M 14,60  L 14,59  L 12,59  L 12,60  Z  " style="fill:rgb(52, 52, 56); fill-opacity:1.000; stroke:none;" />
 <path d="  M 38,60  L 38,59  L 16,59  L 16,60  Z  " style="fill:rgb(52, 52, 56); fill-opacity:1.000; stroke:none;" />
 <path d="  M 42,60  L 42,59  L 40,59  L 40,60  Z  " style="fill:rgb(52, 52, 56); fill-opacity:1.000; stroke:none;" />
 <path d="  M 42,4  L 42,5  L 44,5  L 44,4  Z  " style="fill:rgb(52, 52, 56); fill-opacity:1.000; stroke:none;" />
 <path d="  M 46,4  L 46,5  L 52,5  L 52,4  Z  " style="fill:rgb(52, 52, 56); fill-opacity:1.000; stroke:none;" />
 <path d="  M 48,60  L 50,60  L 50,59  L 48,59  Z  " style="fill:rgb(52, 52, 56); fill-opacity:1.000; stroke:none;" />
 <path d="  M 60,60  L 60,58  L 59,58  L 59,59  L 52,59  L 52,60  Z  " style="fill:rgb(52, 52, 56); fill-opacity:1.000; stroke:none;" />
 <path d="  M 59,12  L 60,12  L 60,6  L 59,6  Z  " style="fill:rgb(52, 52, 56); fill-opacity:1.000; stroke:none;" />
 <path d="  M 60,20  L 59,20  L 59,46  L 60,46  Z  " style="fill:rgb(52, 52, 56); fill-opacity:1.000; stroke:none;" />
 <path d="  M 6,58  L 6,6  L 58,6  L 58,58  Z  M 50,59  L 50,60  L 52,60  L 52,59  L 59,59  L 59,5  L 5,5  L 5,59  Z  " style="fill:rgb(63, 62, 66); fill-opacity:1.000; stroke:none;" />
 <path d="  M 22,6  L 6,6  L 6,8  L 7,8  L 7,7  L 22,7  Z  " style="fill:rgb(73, 72, 72); fill-opacity:1.000; stroke:none;" />
 <path d="  M 7,12  L 6,12  L 6,14  L 7,14  Z  " style="fill:rgb(73, 72, 72); fill-opacity:1.000; stroke:none;" />
 <path d="  M 7,20  L 7,18  L 6,18  L 6,20  Z  " style="fill:rgb(73, 72, 72); fill-opacity:1.000; stroke:none;" />
 <path d="  M 7,24  L 6,24  L 6,30  L 7,30  Z  " style="fill:rgb(73, 72, 72); fill-opacity:1.000; stroke:none;" />
 <path d="  M 7,42  L 6,42  L 6,48  L 7,48  Z  " style="fill:rgb(73, 72, 72); fill-opacity:1.000; stroke:none;" />
 <path d="  M 6,54  L 7,54  L 7,52  L 6,52  Z  " style="fill:rgb(73, 72, 72); fill-opacity:1.000; stroke:none;" />
 <path d="  M 7,56  L 6,56  L 6,58  L 10,58  L 10,57  L 7,57  Z  " style="fill:rgb(73, 72, 72); fill-opacity:1.000; stroke:none;" />
 <path d="  M 22,58  L 22,57  L 18,57  L 18,58  Z  " style="fill:rgb(73, 72, 72); fill-opacity:1.000; stroke:none;" />
 <path d="  M 34,7  L 34,6  L 28,6  L 28,7  Z  " style="fill:rgb(73, 72, 72); fill-opacity:1.000; stroke:none;" />
 <path d="  M 34,58  L 34,57  L 30,57  L 30,58  Z  " style="fill:rgb(73, 72, 72); fill-opacity:1.000; stroke:none;" />
 <path d="  M 36,6  L 36,7  L 40,7  L 40,6  Z  " style="fill:rgb(73, 72, 72); fill-opacity:1.000; stroke:none;" />
 <path d="  M 44,58  L 44,57  L 38,57  L 38,58  Z  " style="fill:rgb(73, 72, 72); fill-opacity:1.000; stroke:none;" />
 <path d="  M 50,57  L 50,58  L 54,58  L 54,57  Z  " style="fill:rgb(73, 72, 72); fill-opacity:1.000; stroke:none;" />
 <path d="  M 52,6  L 52,7  L 57,7  L 57,8  L 58,8  L 58,6  Z  " style="fill:rgb(73, 72, 72); fill-opacity:1.000; stroke:none;" />
 <path d="  M 57,56  L 57,57  L 56,57  L 56,58  L 58,58  L 58,56  Z  " style="fill:rgb(73, 72, 72); fill-opacity:1.000; stroke:none;" />
 <path d="  M 57,28  L 58,28  L 58,14  L 57,14  Z  " style="fill:rgb(73, 72, 72); fill-opacity:1.000; stroke:none;" />
 <path d="  M 58,34  L 57,34  L 57,44  L 58,44  Z  " style="fill:rgb(73, 72, 72); fill-opacity:1.000; stroke:none;" />
 <path d="  M 58,46  L 57,46  L 57,50  L 58,50  Z  " style="fill:rgb(73, 72, 72); fill-opacity:1.000; stroke:none;" />
</svg>
