<?xml version="1.0" encoding="UTF-8" standalone="no"?>
<!DOCTYPE svg PUBLIC "-//W3C//DTD SVG 1.1//EN" 
  "http://www.w3.org/Graphics/SVG/1.1/DTD/svg11.dtd">
<svg width="64" height="64"
	 xmlns="http://www.w3.org/2000/svg" version="1.1">
 <path d="  M 5,3  L 4,3  L 4,2  L 3,2  L 3,1  L 2,1  L 2,0  L 0,0  L 0,1  L 1,1  L 1,2  L 0,2  L 0,3  L 1,3  L 1,4  L 3,4  L 3,5  L 4,5  L 4,4  L 5,4  Z  M 2,2  L 3,2  L 3,3  L 2,3  Z  " style="fill:rgb(203, 110, 36); fill-opacity:1.000; stroke:none;" />
 <path d="  M 3,16  L 4,16  L 4,18  L 5,18  L 5,17  L 6,17  L 6,15  L 8,15  L 8,13  L 7,13  L 7,12  L 6,12  L 6,11  L 5,11  L 5,13  L 4,13  L 4,14  L 3,14  L 3,13  L 2,13  L 2,14  L 1,14  L 1,18  L 2,18  L 2,17  L 3,17  Z  M 7,14  L 6,14  L 6,13  L 7,13  Z  M 2,15  L 3,15  L 3,16  L 2,16  Z  M 4,14  L 5,14  L 5,15  L 4,15  Z  " style="fill:rgb(203, 110, 36); fill-opacity:1.000; stroke:none;" />
 <path d="  M 1,21  L 1,22  L 2,22  L 2,21  Z  " style="fill:rgb(203, 110, 36); fill-opacity:1.000; stroke:none;" />
 <path d="  M 2,24  L 2,23  L 1,23  L 1,25  L 2,25  L 2,27  L 3,27  L 3,24  Z  " style="fill:rgb(203, 110, 36); fill-opacity:1.000; stroke:none;" />
 <path d="  M 1,36  L 2,36  L 2,35  L 1,35  Z  " style="fill:rgb(203, 110, 36); fill-opacity:1.000; stroke:none;" />
 <path d="  M 2,38  L 2,37  L 1,37  L 1,38  Z  " style="fill:rgb(203, 110, 36); fill-opacity:1.000; stroke:none;" />
 <path d="  M 2,45  L 1,45  L 1,48  L 2,48  Z  " style="fill:rgb(203, 110, 36); fill-opacity:1.000; stroke:none;" />
 <path d="  M 2,53  L 2,52  L 1,52  L 1,53  Z  " style="fill:rgb(203, 110, 36); fill-opacity:1.000; stroke:none;" />
 <path d="  M 1,58  L 2,58  L 2,56  L 1,56  Z  " style="fill:rgb(203, 110, 36); fill-opacity:1.000; stroke:none;" />
 <path d="  M 1,60  L 1,62  L 2,62  L 2,60  Z  " style="fill:rgb(203, 110, 36); fill-opacity:1.000; stroke:none;" />
 <path d="  M 3,19  L 2,19  L 2,21  L 3,21  Z  " style="fill:rgb(203, 110, 36); fill-opacity:1.000; stroke:none;" />
 <path d="  M 2,33  L 2,34  L 3,34  L 3,33  Z  " style="fill:rgb(203, 110, 36); fill-opacity:1.000; stroke:none;" />
 <path d="  M 3,41  L 2,41  L 2,45  L 3,45  Z  " style="fill:rgb(203, 110, 36); fill-opacity:1.000; stroke:none;" />
 <path d="  M 3,50  L 2,50  L 2,52  L 3,52  Z  " style="fill:rgb(203, 110, 36); fill-opacity:1.000; stroke:none;" />
 <path d="  M 2,56  L 3,56  L 3,54  L 2,54  Z  " style="fill:rgb(203, 110, 36); fill-opacity:1.000; stroke:none;" />
 <path d="  M 3,0  L 3,1  L 4,1  L 4,0  Z  " style="fill:rgb(203, 110, 36); fill-opacity:1.000; stroke:none;" />
 <path d="  M 4,12  L 3,12  L 3,13  L 4,13  Z  " style="fill:rgb(203, 110, 36); fill-opacity:1.000; stroke:none;" />
 <path d="  M 9,2  L 9,1  L 8,1  L 8,2  L 6,2  L 6,1  L 4,1  L 4,2  L 5,2  L 5,3  L 6,3  L 6,4  L 8,4  L 8,5  L 10,5  L 10,4  L 9,4  L 9,3  L 12,3  L 12,4  L 13,4  L 13,3  L 15,3  L 15,2  L 16,2  L 16,4  L 18,4  L 18,3  L 17,3  L 17,2  L 18,2  L 18,1  L 14,1  L 14,2  L 12,2  L 12,1  L 11,1  L 11,2  Z  " style="fill:rgb(203, 110, 36); fill-opacity:1.000; stroke:none;" />
 <path d="  M 4,35  L 5,35  L 5,36  L 6,36  L 6,34  L 5,34  L 5,32  L 6,32  L 6,31  L 4,31  Z  " style="fill:rgb(203, 110, 36); fill-opacity:1.000; stroke:none;" />
 <path d="  M 5,4  L 5,5  L 6,5  L 6,4  Z  " style="fill:rgb(203, 110, 36); fill-opacity:1.000; stroke:none;" />
 <path d="  M 5,30  L 6,30  L 6,28  L 5,28  Z  " style="fill:rgb(203, 110, 36); fill-opacity:1.000; stroke:none;" />
 <path d="  M 5,46  L 6,46  L 6,45  L 5,45  Z  " style="fill:rgb(203, 110, 36); fill-opacity:1.000; stroke:none;" />
 <path d="  M 7,34  L 7,32  L 6,32  L 6,34  Z  " style="fill:rgb(203, 110, 36); fill-opacity:1.000; stroke:none;" />
 <path d="  M 7,36  L 6,36  L 6,37  L 7,37  Z  " style="fill:rgb(203, 110, 36); fill-opacity:1.000; stroke:none;" />
 <path d="  M 7,46  L 6,46  L 6,47  L 7,47  Z  " style="fill:rgb(203, 110, 36); fill-opacity:1.000; stroke:none;" />
 <path d="  M 8,16  L 7,16  L 7,17  L 8,17  Z  " style="fill:rgb(203, 110, 36); fill-opacity:1.000; stroke:none;" />
 <path d="  M 8,13  L 9,13  L 9,12  L 8,12  Z  " style="fill:rgb(203, 110, 36); fill-opacity:1.000; stroke:none;" />
 <path d="  M 9,11  L 9,12  L 10,12  L 10,13  L 12,13  L 12,14  L 13,14  L 13,15  L 12,15  L 12,16  L 11,16  L 11,15  L 9,15  L 9,16  L 10,16  L 10,18  L 9,18  L 9,17  L 8,17  L 8,19  L 9,19  L 9,20  L 13,20  L 13,19  L 12,19  L 12,18  L 13,18  L 13,17  L 14,17  L 14,15  L 16,15  L 16,14  L 18,14  L 18,13  L 17,13  L 17,12  L 14,12  L 14,13  L 13,13  L 13,12  L 11,12  L 11,11  Z  M 10,19  L 10,18  L 11,18  L 11,19  Z  M 15,14  L 14,14  L 14,13  L 15,13  Z  " style="fill:rgb(203, 110, 36); fill-opacity:1.000; stroke:none;" />
 <path d="  M 9,43  L 9,44  L 10,44  L 10,43  L 11,43  L 11,42  L 10,42  L 10,41  L 9,41  L 9,42  L 8,42  L 8,43  Z  " style="fill:rgb(203, 110, 36); fill-opacity:1.000; stroke:none;" />
 <path d="  M 9,50  L 8,50  L 8,51  L 9,51  Z  " style="fill:rgb(203, 110, 36); fill-opacity:1.000; stroke:none;" />
 <path d="  M 9,52  L 8,52  L 8,53  L 9,53  Z  " style="fill:rgb(203, 110, 36); fill-opacity:1.000; stroke:none;" />
 <path d="  M 10,1  L 10,0  L 9,0  L 9,1  Z  " style="fill:rgb(203, 110, 36); fill-opacity:1.000; stroke:none;" />
 <path d="  M 10,13  L 9,13  L 9,14  L 10,14  Z  " style="fill:rgb(203, 110, 36); fill-opacity:1.000; stroke:none;" />
 <path d="  M 9,51  L 9,52  L 11,52  L 11,51  L 12,51  L 12,50  L 10,50  L 10,51  Z  " style="fill:rgb(203, 110, 36); fill-opacity:1.000; stroke:none;" />
 <path d="  M 11,25  L 10,25  L 10,26  L 11,26  Z  " style="fill:rgb(203, 110, 36); fill-opacity:1.000; stroke:none;" />
 <path d="  M 10,44  L 10,45  L 11,45  L 11,44  Z  " style="fill:rgb(203, 110, 36); fill-opacity:1.000; stroke:none;" />
 <path d="  M 11,4  L 11,5  L 12,5  L 12,4  Z  " style="fill:rgb(203, 110, 36); fill-opacity:1.000; stroke:none;" />
 <path d="  M 11,14  L 11,15  L 12,15  L 12,14  Z  " style="fill:rgb(203, 110, 36); fill-opacity:1.000; stroke:none;" />
 <path d="  M 11,25  L 12,25  L 12,24  L 11,24  Z  " style="fill:rgb(203, 110, 36); fill-opacity:1.000; stroke:none;" />
 <path d="  M 11,41  L 11,42  L 12,42  L 12,41  Z  " style="fill:rgb(203, 110, 36); fill-opacity:1.000; stroke:none;" />
 <path d="  M 11,49  L 12,49  L 12,48  L 11,48  Z  " style="fill:rgb(203, 110, 36); fill-opacity:1.000; stroke:none;" />
 <path d="  M 13,1  L 13,0  L 12,0  L 12,1  Z  " style="fill:rgb(203, 110, 36); fill-opacity:1.000; stroke:none;" />
 <path d="  M 13,32  L 12,32  L 12,33  L 13,33  Z  " style="fill:rgb(203, 110, 36); fill-opacity:1.000; stroke:none;" />
 <path d="  M 13,49  L 12,49  L 12,50  L 13,50  Z  " style="fill:rgb(203, 110, 36); fill-opacity:1.000; stroke:none;" />
 <path d="  M 15,54  L 14,54  L 14,55  L 15,55  Z  " style="fill:rgb(203, 110, 36); fill-opacity:1.000; stroke:none;" />
 <path d="  M 16,47  L 16,46  L 15,46  L 15,47  Z  " style="fill:rgb(203, 110, 36); fill-opacity:1.000; stroke:none;" />
 <path d="  M 16,54  L 16,53  L 15,53  L 15,54  Z  " style="fill:rgb(203, 110, 36); fill-opacity:1.000; stroke:none;" />
 <path d="  M 16,19  L 16,20  L 18,20  L 18,19  Z  " style="fill:rgb(203, 110, 36); fill-opacity:1.000; stroke:none;" />
 <path d="  M 16,37  L 18,37  L 18,36  L 16,36  Z  " style="fill:rgb(203, 110, 36); fill-opacity:1.000; stroke:none;" />
 <path d="  M 17,55  L 16,55  L 16,56  L 17,56  Z  " style="fill:rgb(203, 110, 36); fill-opacity:1.000; stroke:none;" />
 <path d="  M 18,45  L 17,45  L 17,46  L 18,46  Z  " style="fill:rgb(203, 110, 36); fill-opacity:1.000; stroke:none;" />
 <path d="  M 19,54  L 18,54  L 18,53  L 17,53  L 17,55  L 18,55  L 18,56  L 20,56  L 20,55  L 19,55  Z  " style="fill:rgb(203, 110, 36); fill-opacity:1.000; stroke:none;" />
 <path d="  M 18,1  L 20,1  L 20,2  L 22,2  L 22,1  L 21,1  L 21,0  L 18,0  Z  " style="fill:rgb(203, 110, 36); fill-opacity:1.000; stroke:none;" />
 <path d="  M 18,14  L 18,15  L 19,15  L 19,14  Z  " style="fill:rgb(203, 110, 36); fill-opacity:1.000; stroke:none;" />
 <path d="  M 19,19  L 19,18  L 18,18  L 18,19  Z  " style="fill:rgb(203, 110, 36); fill-opacity:1.000; stroke:none;" />
 <path d="  M 18,22  L 20,22  L 20,21  L 19,21  L 19,20  L 18,20  Z  " style="fill:rgb(203, 110, 36); fill-opacity:1.000; stroke:none;" />
 <path d="  M 19,24  L 19,23  L 18,23  L 18,24  Z  " style="fill:rgb(203, 110, 36); fill-opacity:1.000; stroke:none;" />
 <path d="  M 18,27  L 21,27  L 21,28  L 22,28  L 22,26  L 18,26  Z  " style="fill:rgb(203, 110, 36); fill-opacity:1.000; stroke:none;" />
 <path d="  M 19,35  L 18,35  L 18,36  L 19,36  Z  " style="fill:rgb(203, 110, 36); fill-opacity:1.000; stroke:none;" />
 <path d="  M 18,50  L 19,50  L 19,49  L 18,49  Z  " style="fill:rgb(203, 110, 36); fill-opacity:1.000; stroke:none;" />
 <path d="  M 20,3  L 20,2  L 19,2  L 19,3  Z  " style="fill:rgb(203, 110, 36); fill-opacity:1.000; stroke:none;" />
 <path d="  M 19,14  L 20,14  L 20,13  L 19,13  Z  " style="fill:rgb(203, 110, 36); fill-opacity:1.000; stroke:none;" />
 <path d="  M 20,17  L 19,17  L 19,18  L 20,18  Z  " style="fill:rgb(203, 110, 36); fill-opacity:1.000; stroke:none;" />
 <path d="  M 19,33  L 20,33  L 20,32  L 19,32  Z  " style="fill:rgb(203, 110, 36); fill-opacity:1.000; stroke:none;" />
 <path d="  M 21,51  L 21,52  L 22,52  L 22,53  L 23,53  L 23,52  L 24,52  L 24,51  L 23,51  L 23,49  L 22,49  L 22,48  L 23,48  L 23,47  L 24,47  L 24,48  L 25,48  L 25,46  L 26,46  L 26,45  L 25,45  L 25,42  L 24,42  L 24,45  L 23,45  L 23,44  L 22,44  L 22,46  L 21,46  L 21,45  L 20,45  L 20,46  L 19,46  L 19,47  L 20,47  L 20,50  L 19,50  L 19,51  Z  M 22,47  L 22,48  L 21,48  L 21,47  Z  " style="fill:rgb(203, 110, 36); fill-opacity:1.000; stroke:none;" />
 <path d="  M 20,16  L 20,17  L 21,17  L 21,16  Z  " style="fill:rgb(203, 110, 36); fill-opacity:1.000; stroke:none;" />
 <path d="  M 22,18  L 21,18  L 21,19  L 20,19  L 20,21  L 21,21  L 21,22  L 22,22  Z  " style="fill:rgb(203, 110, 36); fill-opacity:1.000; stroke:none;" />
 <path d="  M 21,22  L 20,22  L 20,23  L 21,23  Z  " style="fill:rgb(203, 110, 36); fill-opacity:1.000; stroke:none;" />
 <path d="  M 20,24  L 20,25  L 22,25  L 22,24  Z  " style="fill:rgb(203, 110, 36); fill-opacity:1.000; stroke:none;" />
 <path d="  M 22,2  L 22,3  L 21,3  L 21,4  L 23,4  L 23,3  L 24,3  L 24,2  Z  " style="fill:rgb(203, 110, 36); fill-opacity:1.000; stroke:none;" />
 <path d="  M 25,13  L 25,12  L 21,12  L 21,13  L 22,13  L 22,14  L 23,14  L 23,13  Z  " style="fill:rgb(203, 110, 36); fill-opacity:1.000; stroke:none;" />
 <path d="  M 22,14  L 21,14  L 21,15  L 22,15  Z  " style="fill:rgb(203, 110, 36); fill-opacity:1.000; stroke:none;" />
 <path d="  M 21,32  L 21,34  L 22,34  L 22,32  Z  " style="fill:rgb(203, 110, 36); fill-opacity:1.000; stroke:none;" />
 <path d="  M 24,16  L 24,15  L 25,15  L 25,16  L 28,16  L 28,15  L 30,15  L 30,14  L 27,14  L 27,13  L 25,13  L 25,14  L 23,14  L 23,15  L 22,15  L 22,16  Z  " style="fill:rgb(203, 110, 36); fill-opacity:1.000; stroke:none;" />
 <path d="  M 23,36  L 22,36  L 22,37  L 23,37  Z  " style="fill:rgb(203, 110, 36); fill-opacity:1.000; stroke:none;" />
 <path d="  M 23,54  L 24,54  L 24,53  L 23,53  Z  " style="fill:rgb(203, 110, 36); fill-opacity:1.000; stroke:none;" />
 <path d="  M 26,1  L 24,1  L 24,2  L 25,2  L 25,3  L 26,3  L 26,4  L 27,4  L 27,2  L 26,2  Z  " style="fill:rgb(203, 110, 36); fill-opacity:1.000; stroke:none;" />
 <path d="  M 26,42  L 26,41  L 25,41  L 25,42  Z  " style="fill:rgb(203, 110, 36); fill-opacity:1.000; stroke:none;" />
 <path d="  M 26,48  L 25,48  L 25,49  L 26,49  Z  " style="fill:rgb(203, 110, 36); fill-opacity:1.000; stroke:none;" />
 <path d="  M 26,24  L 30,24  L 30,23  L 31,23  L 31,22  L 30,22  L 30,21  L 27,21  L 27,22  L 26,22  Z  M 28,23  L 27,23  L 27,22  L 28,22  Z  " style="fill:rgb(203, 110, 36); fill-opacity:1.000; stroke:none;" />
 <path d="  M 27,29  L 28,29  L 28,28  L 26,28  L 26,30  L 27,30  Z  " style="fill:rgb(203, 110, 36); fill-opacity:1.000; stroke:none;" />
 <path d="  M 27,43  L 27,42  L 26,42  L 26,43  Z  " style="fill:rgb(203, 110, 36); fill-opacity:1.000; stroke:none;" />
 <path d="  M 27,2  L 28,2  L 28,1  L 27,1  Z  " style="fill:rgb(203, 110, 36); fill-opacity:1.000; stroke:none;" />
 <path d="  M 28,44  L 28,43  L 27,43  L 27,44  Z  " style="fill:rgb(203, 110, 36); fill-opacity:1.000; stroke:none;" />
 <path d="  M 28,0  L 28,1  L 29,1  L 29,2  L 30,2  L 30,1  L 31,1  L 31,0  Z  " style="fill:rgb(203, 110, 36); fill-opacity:1.000; stroke:none;" />
 <path d="  M 28,2  L 28,3  L 29,3  L 29,2  Z  " style="fill:rgb(203, 110, 36); fill-opacity:1.000; stroke:none;" />
 <path d="  M 29,12  L 29,13  L 30,13  L 30,14  L 31,14  L 31,15  L 33,15  L 33,14  L 35,14  L 35,15  L 36,15  L 36,13  L 35,13  L 35,12  L 34,12  L 34,11  L 32,11  L 32,12  Z  M 33,12  L 33,13  L 32,13  L 32,12  Z  " style="fill:rgb(203, 110, 36); fill-opacity:1.000; stroke:none;" />
 <path d="  M 29,37  L 29,38  L 30,38  L 30,37  Z  " style="fill:rgb(203, 110, 36); fill-opacity:1.000; stroke:none;" />
 <path d="  M 29,42  L 29,43  L 30,43  L 30,42  Z  " style="fill:rgb(203, 110, 36); fill-opacity:1.000; stroke:none;" />
 <path d="  M 29,54  L 29,55  L 30,55  L 30,54  Z  " style="fill:rgb(203, 110, 36); fill-opacity:1.000; stroke:none;" />
 <path d="  M 34,28  L 33,28  L 33,27  L 32,27  L 32,25  L 33,25  L 33,23  L 31,23  L 31,24  L 30,24  L 30,28  L 31,28  L 31,29  L 32,29  L 32,30  L 33,30  L 33,31  L 35,31  L 35,29  L 34,29  Z  " style="fill:rgb(203, 110, 36); fill-opacity:1.000; stroke:none;" />
 <path d="  M 32,1  L 31,1  L 31,2  L 32,2  Z  " style="fill:rgb(203, 110, 36); fill-opacity:1.000; stroke:none;" />
 <path d="  M 31,3  L 31,4  L 32,4  L 32,3  Z  " style="fill:rgb(203, 110, 36); fill-opacity:1.000; stroke:none;" />
 <path d="  M 36,0  L 36,1  L 34,1  L 34,0  L 32,0  L 32,1  L 33,1  L 33,2  L 32,2  L 32,3  L 33,3  L 33,4  L 34,4  L 34,3  L 35,3  L 35,2  L 37,2  L 37,1  L 38,1  L 38,0  Z  " style="fill:rgb(203, 110, 36); fill-opacity:1.000; stroke:none;" />
 <path d="  M 35,4  L 34,4  L 34,5  L 35,5  Z  " style="fill:rgb(203, 110, 36); fill-opacity:1.000; stroke:none;" />
 <path d="  M 34,49  L 34,50  L 35,50  L 35,49  Z  " style="fill:rgb(203, 110, 36); fill-opacity:1.000; stroke:none;" />
 <path d="  M 34,55  L 35,55  L 35,54  L 34,54  Z  " style="fill:rgb(203, 110, 36); fill-opacity:1.000; stroke:none;" />
 <path d="  M 35,3  L 35,4  L 37,4  L 37,3  Z  " style="fill:rgb(203, 110, 36); fill-opacity:1.000; stroke:none;" />
 <path d="  M 35,32  L 36,32  L 36,31  L 35,31  Z  " style="fill:rgb(203, 110, 36); fill-opacity:1.000; stroke:none;" />
 <path d="  M 36,55  L 35,55  L 35,56  L 36,56  Z  " style="fill:rgb(203, 110, 36); fill-opacity:1.000; stroke:none;" />
 <path d="  M 36,59  L 35,59  L 35,60  L 36,60  Z  " style="fill:rgb(203, 110, 36); fill-opacity:1.000; stroke:none;" />
 <path d="  M 37,13  L 37,12  L 36,12  L 36,13  Z  " style="fill:rgb(203, 110, 36); fill-opacity:1.000; stroke:none;" />
 <path d="  M 37,24  L 38,24  L 38,21  L 37,21  L 37,20  L 36,20  L 36,22  L 37,22  Z  " style="fill:rgb(203, 110, 36); fill-opacity:1.000; stroke:none;" />
 <path d="  M 37,36  L 36,36  L 36,37  L 37,37  Z  " style="fill:rgb(203, 110, 36); fill-opacity:1.000; stroke:none;" />
 <path d="  M 37,48  L 36,48  L 36,49  L 37,49  Z  " style="fill:rgb(203, 110, 36); fill-opacity:1.000; stroke:none;" />
 <path d="  M 38,59  L 38,58  L 36,58  L 36,59  L 37,59  L 37,60  L 39,60  L 39,59  Z  " style="fill:rgb(203, 110, 36); fill-opacity:1.000; stroke:none;" />
 <path d="  M 41,3  L 41,2  L 40,2  L 40,1  L 39,1  L 39,2  L 37,2  L 37,3  L 38,3  L 38,4  L 39,4  L 39,3  Z  " style="fill:rgb(203, 110, 36); fill-opacity:1.000; stroke:none;" />
 <path d="  M 41,15  L 41,14  L 42,14  L 42,13  L 40,13  L 40,14  L 39,14  L 39,13  L 37,13  L 37,14  L 38,14  L 38,15  L 40,15  L 40,16  L 42,16  L 42,15  Z  " style="fill:rgb(203, 110, 36); fill-opacity:1.000; stroke:none;" />
 <path d="  M 37,55  L 39,55  L 39,54  L 37,54  Z  " style="fill:rgb(203, 110, 36); fill-opacity:1.000; stroke:none;" />
 <path d="  M 39,61  L 38,61  L 38,62  L 39,62  Z  " style="fill:rgb(203, 110, 36); fill-opacity:1.000; stroke:none;" />
 <path d="  M 40,57  L 39,57  L 39,58  L 40,58  Z  " style="fill:rgb(203, 110, 36); fill-opacity:1.000; stroke:none;" />
 <path d="  M 39,61  L 40,61  L 40,60  L 39,60  Z  " style="fill:rgb(203, 110, 36); fill-opacity:1.000; stroke:none;" />
 <path d="  M 40,1  L 41,1  L 41,0  L 40,0  Z  " style="fill:rgb(203, 110, 36); fill-opacity:1.000; stroke:none;" />
 <path d="  M 41,46  L 41,45  L 40,45  L 40,46  Z  " style="fill:rgb(203, 110, 36); fill-opacity:1.000; stroke:none;" />
 <path d="  M 40,49  L 41,49  L 41,48  L 40,48  Z  " style="fill:rgb(203, 110, 36); fill-opacity:1.000; stroke:none;" />
 <path d="  M 40,58  L 40,59  L 41,59  L 41,58  Z  " style="fill:rgb(203, 110, 36); fill-opacity:1.000; stroke:none;" />
 <path d="  M 45,2  L 45,1  L 44,1  L 44,0  L 42,0  L 42,1  L 41,1  L 41,2  L 43,2  L 43,3  L 45,3  L 45,4  L 46,4  L 46,2  Z  " style="fill:rgb(203, 110, 36); fill-opacity:1.000; stroke:none;" />
 <path d="  M 42,47  L 41,47  L 41,48  L 42,48  Z  " style="fill:rgb(203, 110, 36); fill-opacity:1.000; stroke:none;" />
 <path d="  M 42,4  L 43,4  L 43,3  L 42,3  Z  " style="fill:rgb(203, 110, 36); fill-opacity:1.000; stroke:none;" />
 <path d="  M 44,12  L 42,12  L 42,13  L 43,13  L 43,14  L 42,14  L 42,15  L 44,15  L 44,14  L 46,14  L 46,13  L 44,13  Z  " style="fill:rgb(203, 110, 36); fill-opacity:1.000; stroke:none;" />
 <path d="  M 45,24  L 44,24  L 44,25  L 43,25  L 43,24  L 42,24  L 42,26  L 43,26  L 43,27  L 44,27  L 44,28  L 45,28  L 45,27  L 46,27  L 46,25  L 45,25  Z  " style="fill:rgb(203, 110, 36); fill-opacity:1.000; stroke:none;" />
 <path d="  M 42,43  L 43,43  L 43,42  L 42,42  Z  " style="fill:rgb(203, 110, 36); fill-opacity:1.000; stroke:none;" />
 <path d="  M 42,47  L 43,47  L 43,46  L 44,46  L 44,44  L 42,44  Z  " style="fill:rgb(203, 110, 36); fill-opacity:1.000; stroke:none;" />
 <path d="  M 44,60  L 44,59  L 42,59  L 42,60  Z  " style="fill:rgb(203, 110, 36); fill-opacity:1.000; stroke:none;" />
 <path d="  M 43,33  L 43,34  L 44,34  L 44,33  Z  " style="fill:rgb(203, 110, 36); fill-opacity:1.000; stroke:none;" />
 <path d="  M 44,32  L 44,33  L 45,33  L 45,32  Z  " style="fill:rgb(203, 110, 36); fill-opacity:1.000; stroke:none;" />
 <path d="  M 46,44  L 47,44  L 47,43  L 48,43  L 48,42  L 49,42  L 49,41  L 50,41  L 50,40  L 46,40  L 46,41  L 44,41  L 44,44  L 45,44  L 45,45  L 46,45  Z  M 47,43  L 46,43  L 46,42  L 47,42  Z  " style="fill:rgb(203, 110, 36); fill-opacity:1.000; stroke:none;" />
 <path d="  M 45,49  L 46,49  L 46,48  L 47,48  L 47,47  L 46,47  L 46,46  L 45,46  L 45,47  L 44,47  L 44,48  L 45,48  Z  " style="fill:rgb(203, 110, 36); fill-opacity:1.000; stroke:none;" />
 <path d="  M 45,58  L 44,58  L 44,59  L 45,59  Z  " style="fill:rgb(203, 110, 36); fill-opacity:1.000; stroke:none;" />
 <path d="  M 57,1  L 57,2  L 54,2  L 54,1  L 52,1  L 52,2  L 50,2  L 50,1  L 47,1  L 47,0  L 45,0  L 45,1  L 46,1  L 46,2  L 47,2  L 47,3  L 48,3  L 48,2  L 49,2  L 49,4  L 52,4  L 52,3  L 55,3  L 55,4  L 56,4  L 56,3  L 58,3  L 58,4  L 60,4  L 60,3  L 59,3  L 59,2  L 58,2  L 58,1  Z  " style="fill:rgb(203, 110, 36); fill-opacity:1.000; stroke:none;" />
 <path d="  M 46,15  L 45,15  L 45,16  L 46,16  Z  " style="fill:rgb(203, 110, 36); fill-opacity:1.000; stroke:none;" />
 <path d="  M 45,18  L 45,19  L 46,19  L 46,18  Z  " style="fill:rgb(203, 110, 36); fill-opacity:1.000; stroke:none;" />
 <path d="  M 46,21  L 46,20  L 45,20  L 45,21  Z  " style="fill:rgb(203, 110, 36); fill-opacity:1.000; stroke:none;" />
 <path d="  M 45,23  L 45,24  L 46,24  L 46,23  Z  " style="fill:rgb(203, 110, 36); fill-opacity:1.000; stroke:none;" />
 <path d="  M 47,14  L 46,14  L 46,15  L 47,15  Z  " style="fill:rgb(203, 110, 36); fill-opacity:1.000; stroke:none;" />
 <path d="  M 49,20  L 49,19  L 48,19  L 48,18  L 47,18  L 47,19  L 46,19  L 46,20  Z  " style="fill:rgb(203, 110, 36); fill-opacity:1.000; stroke:none;" />
 <path d="  M 47,34  L 46,34  L 46,35  L 47,35  Z  " style="fill:rgb(203, 110, 36); fill-opacity:1.000; stroke:none;" />
 <path d="  M 47,14  L 48,14  L 48,13  L 47,13  Z  " style="fill:rgb(203, 110, 36); fill-opacity:1.000; stroke:none;" />
 <path d="  M 48,36  L 48,35  L 47,35  L 47,36  Z  " style="fill:rgb(203, 110, 36); fill-opacity:1.000; stroke:none;" />
 <path d="  M 48,50  L 48,49  L 47,49  L 47,50  Z  " style="fill:rgb(203, 110, 36); fill-opacity:1.000; stroke:none;" />
 <path d="  M 49,5  L 49,4  L 48,4  L 48,5  Z  " style="fill:rgb(203, 110, 36); fill-opacity:1.000; stroke:none;" />
 <path d="  M 51,15  L 51,14  L 52,14  L 52,13  L 51,13  L 51,12  L 48,12  L 48,13  L 50,13  L 50,14  L 48,14  L 48,16  L 50,16  L 50,15  Z  " style="fill:rgb(203, 110, 36); fill-opacity:1.000; stroke:none;" />
 <path d="  M 49,44  L 48,44  L 48,46  L 49,46  Z  " style="fill:rgb(203, 110, 36); fill-opacity:1.000; stroke:none;" />
 <path d="  M 49,48  L 49,47  L 48,47  L 48,48  Z  " style="fill:rgb(203, 110, 36); fill-opacity:1.000; stroke:none;" />
 <path d="  M 50,43  L 49,43  L 49,44  L 50,44  Z  " style="fill:rgb(203, 110, 36); fill-opacity:1.000; stroke:none;" />
 <path d="  M 50,1  L 51,1  L 51,0  L 50,0  Z  " style="fill:rgb(203, 110, 36); fill-opacity:1.000; stroke:none;" />
 <path d="  M 51,17  L 51,18  L 50,18  L 50,19  L 51,19  L 51,20  L 52,20  L 52,19  L 53,19  L 53,17  Z  " style="fill:rgb(203, 110, 36); fill-opacity:1.000; stroke:none;" />
 <path d="  M 50,27  L 51,27  L 51,26  L 50,26  Z  " style="fill:rgb(203, 110, 36); fill-opacity:1.000; stroke:none;" />
 <path d="  M 56,18  L 57,18  L 57,17  L 56,17  L 56,16  L 54,16  L 54,15  L 53,15  L 53,14  L 52,14  L 52,15  L 51,15  L 51,16  L 53,16  L 53,17  L 54,17  L 54,18  L 55,18  L 55,20  L 56,20  Z  " style="fill:rgb(203, 110, 36); fill-opacity:1.000; stroke:none;" />
 <path d="  M 52,12  L 53,12  L 53,11  L 52,11  Z  " style="fill:rgb(203, 110, 36); fill-opacity:1.000; stroke:none;" />
 <path d="  M 55,12  L 53,12  L 53,14  L 54,14  L 54,15  L 55,15  L 55,14  L 56,14  L 56,13  L 55,13  Z  " style="fill:rgb(203, 110, 36); fill-opacity:1.000; stroke:none;" />
 <path d="  M 53,27  L 53,28  L 54,28  L 54,27  Z  " style="fill:rgb(203, 110, 36); fill-opacity:1.000; stroke:none;" />
 <path d="  M 55,35  L 55,33  L 54,33  L 54,34  L 53,34  L 53,35  Z  " style="fill:rgb(203, 110, 36); fill-opacity:1.000; stroke:none;" />
 <path d="  M 55,1  L 55,0  L 54,0  L 54,1  Z  " style="fill:rgb(203, 110, 36); fill-opacity:1.000; stroke:none;" />
 <path d="  M 56,50  L 57,50  L 57,49  L 58,49  L 58,48  L 57,48  L 57,47  L 58,47  L 58,45  L 57,45  L 57,46  L 56,46  L 56,47  L 55,47  L 55,48  L 56,48  Z  " style="fill:rgb(203, 110, 36); fill-opacity:1.000; stroke:none;" />
 <path d="  M 56,14  L 56,15  L 57,15  L 57,16  L 58,16  L 58,15  L 59,15  L 59,14  L 60,14  L 60,13  L 59,13  L 59,12  L 58,12  L 58,14  Z  " style="fill:rgb(203, 110, 36); fill-opacity:1.000; stroke:none;" />
 <path d="  M 57,34  L 56,34  L 56,35  L 57,35  Z  " style="fill:rgb(203, 110, 36); fill-opacity:1.000; stroke:none;" />
 <path d="  M 56,44  L 56,45  L 57,45  L 57,44  Z  " style="fill:rgb(203, 110, 36); fill-opacity:1.000; stroke:none;" />
 <path d="  M 58,18  L 57,18  L 57,19  L 58,19  Z  " style="fill:rgb(203, 110, 36); fill-opacity:1.000; stroke:none;" />
 <path d="  M 57,50  L 57,51  L 58,51  L 58,50  Z  " style="fill:rgb(203, 110, 36); fill-opacity:1.000; stroke:none;" />
 <path d="  M 60,1  L 60,0  L 58,0  L 58,1  L 59,1  L 59,2  L 61,2  L 61,4  L 63,4  L 63,3  L 62,3  L 62,1  Z  " style="fill:rgb(203, 110, 36); fill-opacity:1.000; stroke:none;" />
 <path d="  M 58,27  L 58,28  L 59,28  L 59,27  Z  " style="fill:rgb(203, 110, 36); fill-opacity:1.000; stroke:none;" />
 <path d="  M 58,45  L 60,45  L 60,44  L 59,44  L 59,42  L 58,42  Z  " style="fill:rgb(203, 110, 36); fill-opacity:1.000; stroke:none;" />
 <path d="  M 58,50  L 59,50  L 59,49  L 58,49  Z  " style="fill:rgb(203, 110, 36); fill-opacity:1.000; stroke:none;" />
 <path d="  M 60,51  L 60,52  L 59,52  L 59,51  L 58,51  L 58,53  L 59,53  L 59,54  L 60,54  L 60,53  L 61,53  L 61,51  Z  " style="fill:rgb(203, 110, 36); fill-opacity:1.000; stroke:none;" />
 <path d="  M 60,16  L 59,16  L 59,17  L 60,17  Z  " style="fill:rgb(203, 110, 36); fill-opacity:1.000; stroke:none;" />
 <path d="  M 59,47  L 60,47  L 60,46  L 59,46  Z  " style="fill:rgb(203, 110, 36); fill-opacity:1.000; stroke:none;" />
 <path d="  M 60,50  L 59,50  L 59,51  L 60,51  Z  " style="fill:rgb(203, 110, 36); fill-opacity:1.000; stroke:none;" />
 <path d="  M 61,5  L 61,4  L 60,4  L 60,5  Z  " style="fill:rgb(203, 110, 36); fill-opacity:1.000; stroke:none;" />
 <path d="  M 62,13  L 62,12  L 60,12  L 60,13  Z  " style="fill:rgb(203, 110, 36); fill-opacity:1.000; stroke:none;" />
 <path d="  M 60,14  L 60,16  L 61,16  L 61,15  L 62,15  L 62,14  Z  " style="fill:rgb(203, 110, 36); fill-opacity:1.000; stroke:none;" />
 <path d="  M 61,45  L 60,45  L 60,46  L 61,46  Z  " style="fill:rgb(203, 110, 36); fill-opacity:1.000; stroke:none;" />
 <path d="  M 61,48  L 61,47  L 60,47  L 60,48  Z  " style="fill:rgb(203, 110, 36); fill-opacity:1.000; stroke:none;" />
 <path d="  M 62,53  L 61,53  L 61,55  L 60,55  L 60,57  L 61,57  L 61,58  L 62,58  Z  " style="fill:rgb(203, 110, 36); fill-opacity:1.000; stroke:none;" />
 <path d="  M 61,45  L 62,45  L 62,43  L 61,43  Z  " style="fill:rgb(203, 110, 36); fill-opacity:1.000; stroke:none;" />
 <path d="  M 64,0  L 62,0  L 62,1  L 63,1  L 63,2  L 64,2  Z  " style="fill:rgb(203, 110, 36); fill-opacity:1.000; stroke:none;" />
 <path d="  M 0,1  L 0,2  L 1,2  L 1,1  Z  " style="fill:rgb(192, 104, 34); fill-opacity:1.000; stroke:none;" />
 <path d="  M 0,6  L 1,6  L 1,7  L 2,7  L 2,6  L 3,6  L 3,7  L 4,7  L 4,6  L 6,6  L 6,5  L 5,5  L 5,4  L 4,4  L 4,5  L 3,5  L 3,4  L 1,4  L 1,3  L 0,3  Z  " style="fill:rgb(192, 104, 34); fill-opacity:1.000; stroke:none;" />
 <path d="  M 1,38  L 0,38  L 0,39  L 1,39  Z  " style="fill:rgb(192, 104, 34); fill-opacity:1.000; stroke:none;" />
 <path d="  M 0,64  L 1,64  L 1,63  L 0,63  Z  " style="fill:rgb(192, 104, 34); fill-opacity:1.000; stroke:none;" />
 <path d="  M 2,63  L 2,62  L 1,62  L 1,63  Z  " style="fill:rgb(192, 104, 34); fill-opacity:1.000; stroke:none;" />
 <path d="  M 3,3  L 3,2  L 2,2  L 2,3  Z  " style="fill:rgb(192, 104, 34); fill-opacity:1.000; stroke:none;" />
 <path d="  M 3,15  L 2,15  L 2,16  L 3,16  Z  " style="fill:rgb(192, 104, 34); fill-opacity:1.000; stroke:none;" />
 <path d="  M 4,16  L 3,16  L 3,17  L 2,17  L 2,19  L 3,19  L 3,21  L 2,21  L 2,24  L 3,24  L 3,27  L 2,27  L 2,33  L 3,33  L 3,34  L 2,34  L 2,38  L 17,38  L 17,37  L 16,37  L 16,36  L 18,36  L 18,35  L 19,35  L 19,37  L 18,37  L 18,38  L 29,38  L 29,37  L 30,37  L 30,36  L 23,36  L 23,37  L 22,37  L 22,34  L 21,34  L 21,32  L 20,32  L 20,33  L 19,33  L 19,32  L 13,32  L 13,33  L 12,33  L 12,32  L 7,32  L 7,34  L 6,34  L 6,36  L 5,36  L 5,35  L 4,35  L 4,31  L 5,31  L 5,28  L 6,28  L 6,20  L 9,20  L 9,19  L 8,19  L 8,17  L 7,17  L 7,16  L 9,16  L 9,15  L 11,15  L 11,14  L 12,14  L 12,13  L 10,13  L 10,14  L 9,14  L 9,13  L 8,13  L 8,15  L 6,15  L 6,17  L 5,17  L 5,18  L 4,18  Z  M 6,36  L 7,36  L 7,37  L 6,37  Z  " style="fill:rgb(192, 104, 34); fill-opacity:1.000; stroke:none;" />
 <path d="  M 7,59  L 8,59  L 8,58  L 10,58  L 10,59  L 11,59  L 11,60  L 12,60  L 12,59  L 13,59  L 13,58  L 14,58  L 14,59  L 15,59  L 15,60  L 16,60  L 16,58  L 17,58  L 17,59  L 18,59  L 18,58  L 19,58  L 19,57  L 21,57  L 21,58  L 22,58  L 22,57  L 23,57  L 23,58  L 24,58  L 24,60  L 25,60  L 25,61  L 24,61  L 24,62  L 26,62  L 26,61  L 27,61  L 27,60  L 28,60  L 28,61  L 30,61  L 30,62  L 31,62  L 31,61  L 32,61  L 32,60  L 31,60  L 31,59  L 33,59  L 33,60  L 35,60  L 35,59  L 36,59  L 36,58  L 38,58  L 38,59  L 40,59  L 40,58  L 39,58  L 39,57  L 42,57  L 42,56  L 41,56  L 41,55  L 43,55  L 43,56  L 45,56  L 45,55  L 46,55  L 46,56  L 47,56  L 47,57  L 48,57  L 48,58  L 46,58  L 46,57  L 45,57  L 45,59  L 44,59  L 44,61  L 46,61  L 46,60  L 48,60  L 48,62  L 49,62  L 49,61  L 50,61  L 50,62  L 52,62  L 52,61  L 53,61  L 53,60  L 52,60  L 52,59  L 54,59  L 54,60  L 56,60  L 56,61  L 57,61  L 57,62  L 58,62  L 58,61  L 59,61  L 59,60  L 58,60  L 58,59  L 60,59  L 60,60  L 61,60  L 61,59  L 62,59  L 62,58  L 61,58  L 61,57  L 60,57  L 60,55  L 61,55  L 61,53  L 60,53  L 60,54  L 59,54  L 59,53  L 58,53  L 58,51  L 57,51  L 57,50  L 56,50  L 56,48  L 55,48  L 55,47  L 56,47  L 56,46  L 57,46  L 57,45  L 58,45  L 58,42  L 59,42  L 59,44  L 60,44  L 60,45  L 61,45  L 61,43  L 62,43  L 62,40  L 50,40  L 50,41  L 49,41  L 49,42  L 50,42  L 50,44  L 49,44  L 49,46  L 48,46  L 48,47  L 49,47  L 49,48  L 48,48  L 48,50  L 47,50  L 47,48  L 46,48  L 46,49  L 45,49  L 45,48  L 44,48  L 44,46  L 43,46  L 43,47  L 42,47  L 42,48  L 41,48  L 41,49  L 40,49  L 40,45  L 41,45  L 41,44  L 42,44  L 42,42  L 44,42  L 44,41  L 46,41  L 46,40  L 38,40  L 38,42  L 34,42  L 34,44  L 38,44  L 38,48  L 37,48  L 37,49  L 38,49  L 38,54  L 39,54  L 39,55  L 36,55  L 36,56  L 34,56  L 34,58  L 30,58  L 30,55  L 29,55  L 29,54  L 26,54  L 26,50  L 28,50  L 28,49  L 29,49  L 29,48  L 26,48  L 26,49  L 25,49  L 25,52  L 24,52  L 24,54  L 23,54  L 23,53  L 22,53  L 22,52  L 21,52  L 21,51  L 19,51  L 19,50  L 20,50  L 20,47  L 19,47  L 19,46  L 20,46  L 20,45  L 21,45  L 21,46  L 22,46  L 22,44  L 23,44  L 23,45  L 24,45  L 24,42  L 25,42  L 25,41  L 26,41  L 26,40  L 12,40  L 12,42  L 11,42  L 11,43  L 10,43  L 10,44  L 9,44  L 9,43  L 8,43  L 8,42  L 9,42  L 9,41  L 10,41  L 10,40  L 2,40  L 2,41  L 3,41  L 3,45  L 2,45  L 2,50  L 3,50  L 3,52  L 2,52  L 2,54  L 3,54  L 3,56  L 2,56  L 2,60  L 4,60  L 4,59  L 6,59  L 6,60  L 7,60  Z  M 18,49  L 19,49  L 19,50  L 18,50  Z  M 17,48  L 14,48  L 14,47  L 15,47  L 15,46  L 17,46  L 17,45  L 19,45  L 19,46  L 18,46  L 18,47  L 17,47  Z  M 5,45  L 6,45  L 6,46  L 7,46  L 7,47  L 5,47  Z  M 10,49  L 11,49  L 11,47  L 13,47  L 13,48  L 14,48  L 14,49  L 13,49  L 13,50  L 12,50  L 12,51  L 11,51  L 11,52  L 9,52  L 9,51  L 8,51  L 8,50  L 10,50  Z  M 43,55  L 43,54  L 44,54  L 44,55  Z  M 3,59  L 3,58  L 4,58  L 4,59  Z  M 8,53  L 8,52  L 9,52  L 9,53  Z  M 57,44  L 57,45  L 56,45  L 56,44  Z  M 56,60  L 56,59  L 57,59  L 57,60  Z  M 15,50  L 14,50  L 14,49  L 15,49  Z  M 19,55  L 20,55  L 20,56  L 19,56  L 19,57  L 18,57  L 18,56  L 16,56  L 16,55  L 14,55  L 14,54  L 15,54  L 15,53  L 16,53  L 16,54  L 17,54  L 17,53  L 18,53  L 18,54  L 19,54  Z  M 11,45  L 10,45  L 10,44  L 11,44  Z  M 51,61  L 50,61  L 50,60  L 51,60  Z  " style="fill:rgb(192, 104, 34); fill-opacity:1.000; stroke:none;" />
 <path d="  M 3,61  L 2,61  L 2,62  L 3,62  Z  " style="fill:rgb(192, 104, 34); fill-opacity:1.000; stroke:none;" />
 <path d="  M 3,14  L 4,14  L 4,13  L 3,13  Z  " style="fill:rgb(192, 104, 34); fill-opacity:1.000; stroke:none;" />
 <path d="  M 4,3  L 5,3  L 5,2  L 4,2  Z  " style="fill:rgb(192, 104, 34); fill-opacity:1.000; stroke:none;" />
 <path d="  M 5,7  L 4,7  L 4,8  L 5,8  Z  " style="fill:rgb(192, 104, 34); fill-opacity:1.000; stroke:none;" />
 <path d="  M 5,15  L 5,14  L 4,14  L 4,15  Z  " style="fill:rgb(192, 104, 34); fill-opacity:1.000; stroke:none;" />
 <path d="  M 5,3  L 5,4  L 6,4  L 6,3  Z  " style="fill:rgb(192, 104, 34); fill-opacity:1.000; stroke:none;" />
 <path d="  M 8,6  L 8,7  L 7,7  L 7,8  L 9,8  L 9,7  L 11,7  L 11,6  L 10,6  L 10,5  L 8,5  L 8,4  L 6,4  L 6,5  L 7,5  L 7,6  Z  " style="fill:rgb(192, 104, 34); fill-opacity:1.000; stroke:none;" />
 <path d="  M 7,6  L 6,6  L 6,7  L 7,7  Z  " style="fill:rgb(192, 104, 34); fill-opacity:1.000; stroke:none;" />
 <path d="  M 6,13  L 6,14  L 7,14  L 7,13  Z  " style="fill:rgb(192, 104, 34); fill-opacity:1.000; stroke:none;" />
 <path d="  M 9,3  L 9,4  L 10,4  L 10,5  L 11,5  L 11,4  L 12,4  L 12,3  Z  " style="fill:rgb(192, 104, 34); fill-opacity:1.000; stroke:none;" />
 <path d="  M 10,12  L 9,12  L 9,13  L 10,13  Z  " style="fill:rgb(192, 104, 34); fill-opacity:1.000; stroke:none;" />
 <path d="  M 10,59  L 9,59  L 9,60  L 10,60  Z  " style="fill:rgb(192, 104, 34); fill-opacity:1.000; stroke:none;" />
 <path d="  M 14,26  L 13,26  L 13,25  L 11,25  L 11,26  L 10,26  L 10,28  L 11,28  L 11,27  L 12,27  L 12,28  L 14,28  Z  " style="fill:rgb(192, 104, 34); fill-opacity:1.000; stroke:none;" />
 <path d="  M 12,16  L 12,15  L 11,15  L 11,16  Z  " style="fill:rgb(192, 104, 34); fill-opacity:1.000; stroke:none;" />
 <path d="  M 18,4  L 16,4  L 16,2  L 15,2  L 15,3  L 13,3  L 13,4  L 12,4  L 12,6  L 13,6  L 13,5  L 14,5  L 14,6  L 15,6  L 15,7  L 17,7  L 17,6  L 18,6  L 18,5  L 21,5  L 21,6  L 22,6  L 22,7  L 24,7  L 24,6  L 23,6  L 23,5  L 25,5  L 25,4  L 26,4  L 26,3  L 25,3  L 25,2  L 24,2  L 24,3  L 23,3  L 23,4  L 21,4  L 21,3  L 22,3  L 22,2  L 20,2  L 20,1  L 18,1  L 18,2  L 17,2  L 17,3  L 18,3  Z  M 20,2  L 20,3  L 19,3  L 19,2  Z  M 16,6  L 16,5  L 17,5  L 17,6  Z  " style="fill:rgb(192, 104, 34); fill-opacity:1.000; stroke:none;" />
 <path d="  M 13,15  L 13,14  L 12,14  L 12,15  Z  " style="fill:rgb(192, 104, 34); fill-opacity:1.000; stroke:none;" />
 <path d="  M 13,17  L 13,18  L 12,18  L 12,19  L 13,19  L 13,20  L 14,20  L 14,19  L 16,19  L 16,18  L 17,18  L 17,17  L 19,17  L 19,16  L 22,16  L 22,15  L 21,15  L 21,14  L 22,14  L 22,13  L 20,13  L 20,14  L 19,14  L 19,15  L 18,15  L 18,14  L 16,14  L 16,15  L 14,15  L 14,17  Z  M 15,18  L 15,17  L 16,17  L 16,18  Z  " style="fill:rgb(192, 104, 34); fill-opacity:1.000; stroke:none;" />
 <path d="  M 13,24  L 13,25  L 14,25  L 14,24  Z  " style="fill:rgb(192, 104, 34); fill-opacity:1.000; stroke:none;" />
 <path d="  M 15,8  L 15,7  L 14,7  L 14,8  Z  " style="fill:rgb(192, 104, 34); fill-opacity:1.000; stroke:none;" />
 <path d="  M 14,14  L 15,14  L 15,13  L 14,13  Z  " style="fill:rgb(192, 104, 34); fill-opacity:1.000; stroke:none;" />
 <path d="  M 19,14  L 19,13  L 18,13  L 18,14  Z  " style="fill:rgb(192, 104, 34); fill-opacity:1.000; stroke:none;" />
 <path d="  M 21,24  L 21,23  L 20,23  L 20,22  L 18,22  L 18,23  L 19,23  L 19,24  L 18,24  L 18,26  L 20,26  L 20,24  Z  " style="fill:rgb(192, 104, 34); fill-opacity:1.000; stroke:none;" />
 <path d="  M 21,28  L 21,27  L 18,27  L 18,28  Z  " style="fill:rgb(192, 104, 34); fill-opacity:1.000; stroke:none;" />
 <path d="  M 19,6  L 19,7  L 21,7  L 21,6  Z  " style="fill:rgb(192, 104, 34); fill-opacity:1.000; stroke:none;" />
 <path d="  M 23,15  L 23,14  L 22,14  L 22,15  Z  " style="fill:rgb(192, 104, 34); fill-opacity:1.000; stroke:none;" />
 <path d="  M 25,14  L 25,13  L 23,13  L 23,14  Z  " style="fill:rgb(192, 104, 34); fill-opacity:1.000; stroke:none;" />
 <path d="  M 25,16  L 25,15  L 24,15  L 24,16  Z  " style="fill:rgb(192, 104, 34); fill-opacity:1.000; stroke:none;" />
 <path d="  M 25,5  L 25,6  L 26,6  L 26,5  Z  " style="fill:rgb(192, 104, 34); fill-opacity:1.000; stroke:none;" />
 <path d="  M 32,4  L 31,4  L 31,3  L 32,3  Z  M 29,6  L 31,6  L 31,5  L 32,5  L 32,6  L 35,6  L 35,5  L 34,5  L 34,4  L 33,4  L 33,3  L 32,3  L 32,2  L 31,2  L 31,1  L 30,1  L 30,2  L 29,2  L 29,3  L 28,3  L 28,2  L 27,2  L 27,4  L 26,4  L 26,5  L 28,5  L 28,4  L 29,4  Z  " style="fill:rgb(192, 104, 34); fill-opacity:1.000; stroke:none;" />
 <path d="  M 26,20  L 26,22  L 27,22  L 27,21  L 28,21  L 28,20  Z  " style="fill:rgb(192, 104, 34); fill-opacity:1.000; stroke:none;" />
 <path d="  M 33,31  L 33,30  L 32,30  L 32,29  L 31,29  L 31,28  L 28,28  L 28,29  L 27,29  L 27,30  L 26,30  L 26,32  L 34,32  L 34,31  Z  " style="fill:rgb(192, 104, 34); fill-opacity:1.000; stroke:none;" />
 <path d="  M 27,14  L 30,14  L 30,13  L 27,13  Z  " style="fill:rgb(192, 104, 34); fill-opacity:1.000; stroke:none;" />
 <path d="  M 28,22  L 27,22  L 27,23  L 28,23  Z  " style="fill:rgb(192, 104, 34); fill-opacity:1.000; stroke:none;" />
 <path d="  M 30,44  L 30,43  L 29,43  L 29,42  L 27,42  L 27,43  L 28,43  L 28,44  Z  " style="fill:rgb(192, 104, 34); fill-opacity:1.000; stroke:none;" />
 <path d="  M 40,16  L 40,15  L 38,15  L 38,14  L 37,14  L 37,13  L 36,13  L 36,15  L 35,15  L 35,14  L 33,14  L 33,15  L 31,15  L 31,14  L 30,14  L 30,15  L 28,15  L 28,16  Z  " style="fill:rgb(192, 104, 34); fill-opacity:1.000; stroke:none;" />
 <path d="  M 32,22  L 33,22  L 33,23  L 34,23  L 34,24  L 37,24  L 37,22  L 36,22  L 36,20  L 30,20  L 30,21  L 32,21  Z  " style="fill:rgb(192, 104, 34); fill-opacity:1.000; stroke:none;" />
 <path d="  M 32,7  L 32,6  L 31,6  L 31,7  Z  " style="fill:rgb(192, 104, 34); fill-opacity:1.000; stroke:none;" />
 <path d="  M 33,2  L 33,1  L 32,1  L 32,2  Z  " style="fill:rgb(192, 104, 34); fill-opacity:1.000; stroke:none;" />
 <path d="  M 34,24  L 33,24  L 33,25  L 32,25  L 32,27  L 33,27  L 33,28  L 34,28  Z  " style="fill:rgb(192, 104, 34); fill-opacity:1.000; stroke:none;" />
 <path d="  M 33,62  L 33,61  L 32,61  L 32,62  Z  " style="fill:rgb(192, 104, 34); fill-opacity:1.000; stroke:none;" />
 <path d="  M 34,3  L 34,4  L 35,4  L 35,3  Z  " style="fill:rgb(192, 104, 34); fill-opacity:1.000; stroke:none;" />
 <path d="  M 34,28  L 34,29  L 35,29  L 35,30  L 37,30  L 37,31  L 38,31  L 38,28  Z  " style="fill:rgb(192, 104, 34); fill-opacity:1.000; stroke:none;" />
 <path d="  M 56,37  L 55,37  L 55,36  L 54,36  L 54,35  L 53,35  L 53,34  L 54,34  L 54,33  L 55,33  L 55,34  L 58,34  L 58,35  L 57,35  L 57,36  L 56,36  Z  M 45,32  L 45,33  L 44,33  L 44,34  L 43,34  L 43,33  L 42,33  L 42,36  L 37,36  L 37,37  L 36,37  L 36,36  L 34,36  L 34,38  L 62,38  L 62,15  L 61,15  L 61,16  L 60,16  L 60,14  L 59,14  L 59,15  L 58,15  L 58,16  L 57,16  L 57,15  L 56,15  L 56,14  L 55,14  L 55,15  L 54,15  L 54,16  L 56,16  L 56,17  L 57,17  L 57,18  L 56,18  L 56,20  L 58,20  L 58,27  L 59,27  L 59,28  L 58,28  L 58,32  Z  M 58,19  L 57,19  L 57,18  L 58,18  Z  M 60,17  L 59,17  L 59,16  L 60,16  Z  M 48,35  L 48,36  L 47,36  L 47,35  Z  M 47,34  L 47,35  L 46,35  L 46,34  Z  " style="fill:rgb(192, 104, 34); fill-opacity:1.000; stroke:none;" />
 <path d="  M 37,3  L 37,2  L 35,2  L 35,3  Z  " style="fill:rgb(192, 104, 34); fill-opacity:1.000; stroke:none;" />
 <path d="  M 42,6  L 43,6  L 43,5  L 46,5  L 46,6  L 48,6  L 48,4  L 49,4  L 49,2  L 48,2  L 48,3  L 47,3  L 47,2  L 46,2  L 46,4  L 45,4  L 45,3  L 43,3  L 43,2  L 41,2  L 41,3  L 39,3  L 39,4  L 38,4  L 38,3  L 37,3  L 37,4  L 35,4  L 35,5  L 36,5  L 36,6  L 35,6  L 35,7  L 37,7  L 37,6  L 38,6  L 38,7  L 39,7  L 39,6  L 41,6  L 41,5  L 42,5  Z  M 42,4  L 42,3  L 43,3  L 43,4  Z  " style="fill:rgb(192, 104, 34); fill-opacity:1.000; stroke:none;" />
 <path d="  M 35,50  L 36,50  L 36,49  L 35,49  Z  " style="fill:rgb(192, 104, 34); fill-opacity:1.000; stroke:none;" />
 <path d="  M 36,61  L 36,60  L 35,60  L 35,61  Z  " style="fill:rgb(192, 104, 34); fill-opacity:1.000; stroke:none;" />
 <path d="  M 36,59  L 36,60  L 37,60  L 37,59  Z  " style="fill:rgb(192, 104, 34); fill-opacity:1.000; stroke:none;" />
 <path d="  M 37,20  L 37,21  L 38,21  L 38,20  Z  " style="fill:rgb(192, 104, 34); fill-opacity:1.000; stroke:none;" />
 <path d="  M 37,62  L 38,62  L 38,61  L 37,61  Z  " style="fill:rgb(192, 104, 34); fill-opacity:1.000; stroke:none;" />
 <path d="  M 39,60  L 38,60  L 38,61  L 39,61  Z  " style="fill:rgb(192, 104, 34); fill-opacity:1.000; stroke:none;" />
 <path d="  M 39,14  L 40,14  L 40,13  L 39,13  Z  " style="fill:rgb(192, 104, 34); fill-opacity:1.000; stroke:none;" />
 <path d="  M 41,59  L 40,59  L 40,60  L 41,60  Z  " style="fill:rgb(192, 104, 34); fill-opacity:1.000; stroke:none;" />
 <path d="  M 41,7  L 42,7  L 42,6  L 41,6  Z  " style="fill:rgb(192, 104, 34); fill-opacity:1.000; stroke:none;" />
 <path d="  M 41,15  L 42,15  L 42,14  L 41,14  Z  " style="fill:rgb(192, 104, 34); fill-opacity:1.000; stroke:none;" />
 <path d="  M 43,14  L 43,13  L 42,13  L 42,14  Z  " style="fill:rgb(192, 104, 34); fill-opacity:1.000; stroke:none;" />
 <path d="  M 46,15  L 46,14  L 44,14  L 44,15  L 42,15  L 42,17  L 43,17  L 43,16  L 45,16  L 45,15  Z  " style="fill:rgb(192, 104, 34); fill-opacity:1.000; stroke:none;" />
 <path d="  M 43,19  L 42,19  L 42,20  L 43,20  L 43,21  L 42,21  L 42,24  L 43,24  L 43,25  L 44,25  L 44,24  L 45,24  L 45,23  L 46,23  L 46,21  L 45,21  L 45,20  L 46,20  L 46,19  L 45,19  L 45,18  L 44,18  L 44,17  L 43,17  Z  M 44,22  L 43,22  L 43,21  L 44,21  Z  " style="fill:rgb(192, 104, 34); fill-opacity:1.000; stroke:none;" />
 <path d="  M 42,28  L 44,28  L 44,27  L 43,27  L 43,26  L 42,26  Z  " style="fill:rgb(192, 104, 34); fill-opacity:1.000; stroke:none;" />
 <path d="  M 42,58  L 43,58  L 43,57  L 42,57  Z  " style="fill:rgb(192, 104, 34); fill-opacity:1.000; stroke:none;" />
 <path d="  M 42,61  L 43,61  L 43,60  L 42,60  Z  " style="fill:rgb(192, 104, 34); fill-opacity:1.000; stroke:none;" />
 <path d="  M 44,58  L 43,58  L 43,59  L 44,59  Z  " style="fill:rgb(192, 104, 34); fill-opacity:1.000; stroke:none;" />
 <path d="  M 46,7  L 46,6  L 44,6  L 44,7  Z  " style="fill:rgb(192, 104, 34); fill-opacity:1.000; stroke:none;" />
 <path d="  M 45,1  L 45,2  L 46,2  L 46,1  Z  " style="fill:rgb(192, 104, 34); fill-opacity:1.000; stroke:none;" />
 <path d="  M 51,16  L 51,15  L 50,15  L 50,16  L 48,16  L 48,14  L 47,14  L 47,15  L 46,15  L 46,16  L 45,16  L 45,17  L 46,17  L 46,18  L 48,18  L 48,19  L 49,19  L 49,20  L 51,20  L 51,19  L 50,19  L 50,18  L 51,18  L 51,17  L 53,17  L 53,16  Z  " style="fill:rgb(192, 104, 34); fill-opacity:1.000; stroke:none;" />
 <path d="  M 45,27  L 45,28  L 46,28  L 46,27  Z  " style="fill:rgb(192, 104, 34); fill-opacity:1.000; stroke:none;" />
 <path d="  M 47,14  L 47,13  L 46,13  L 46,14  Z  " style="fill:rgb(192, 104, 34); fill-opacity:1.000; stroke:none;" />
 <path d="  M 48,7  L 49,7  L 49,6  L 48,6  Z  " style="fill:rgb(192, 104, 34); fill-opacity:1.000; stroke:none;" />
 <path d="  M 48,14  L 50,14  L 50,13  L 48,13  Z  " style="fill:rgb(192, 104, 34); fill-opacity:1.000; stroke:none;" />
 <path d="  M 55,3  L 52,3  L 52,4  L 49,4  L 49,6  L 50,6  L 50,7  L 52,7  L 52,6  L 53,6  L 53,5  L 54,5  L 54,6  L 55,6  L 55,5  L 57,5  L 57,6  L 59,6  L 59,7  L 61,7  L 61,6  L 63,6  L 63,5  L 64,5  L 64,2  L 62,2  L 62,3  L 63,3  L 63,4  L 61,4  L 61,5  L 60,5  L 60,4  L 58,4  L 58,3  L 56,3  L 56,4  L 55,4  Z  " style="fill:rgb(192, 104, 34); fill-opacity:1.000; stroke:none;" />
 <path d="  M 50,24  L 50,26  L 51,26  L 51,27  L 50,27  L 50,28  L 53,28  L 53,27  L 54,27  L 54,24  Z  " style="fill:rgb(192, 104, 34); fill-opacity:1.000; stroke:none;" />
 <path d="  M 52,15  L 52,14  L 51,14  L 51,15  Z  " style="fill:rgb(192, 104, 34); fill-opacity:1.000; stroke:none;" />
 <path d="  M 52,14  L 53,14  L 53,13  L 52,13  Z  " style="fill:rgb(192, 104, 34); fill-opacity:1.000; stroke:none;" />
 <path d="  M 55,20  L 55,18  L 54,18  L 54,17  L 53,17  L 53,19  L 52,19  L 52,20  Z  " style="fill:rgb(192, 104, 34); fill-opacity:1.000; stroke:none;" />
 <path d="  M 54,15  L 54,14  L 53,14  L 53,15  Z  " style="fill:rgb(192, 104, 34); fill-opacity:1.000; stroke:none;" />
 <path d="  M 55,6  L 55,7  L 57,7  L 57,6  Z  " style="fill:rgb(192, 104, 34); fill-opacity:1.000; stroke:none;" />
 <path d="  M 58,14  L 58,13  L 56,13  L 56,14  Z  " style="fill:rgb(192, 104, 34); fill-opacity:1.000; stroke:none;" />
 <path d="  M 57,8  L 58,8  L 58,7  L 57,7  Z  " style="fill:rgb(192, 104, 34); fill-opacity:1.000; stroke:none;" />
 <path d="  M 58,49  L 57,49  L 57,50  L 58,50  Z  " style="fill:rgb(192, 104, 34); fill-opacity:1.000; stroke:none;" />
 <path d="  M 59,45  L 58,45  L 58,46  L 59,46  Z  " style="fill:rgb(192, 104, 34); fill-opacity:1.000; stroke:none;" />
 <path d="  M 61,2  L 59,2  L 59,3  L 60,3  L 60,4  L 61,4  Z  " style="fill:rgb(192, 104, 34); fill-opacity:1.000; stroke:none;" />
 <path d="  M 59,61  L 59,62  L 60,62  L 60,61  Z  " style="fill:rgb(192, 104, 34); fill-opacity:1.000; stroke:none;" />
 <path d="  M 60,13  L 60,14  L 62,14  L 62,13  Z  " style="fill:rgb(192, 104, 34); fill-opacity:1.000; stroke:none;" />
 <path d="  M 61,7  L 61,8  L 62,8  L 62,7  Z  " style="fill:rgb(192, 104, 34); fill-opacity:1.000; stroke:none;" />
 <path d="  M 62,61  L 62,60  L 61,60  L 61,61  Z  " style="fill:rgb(192, 104, 34); fill-opacity:1.000; stroke:none;" />
 <path d="  M 62,13  L 63,13  L 63,12  L 62,12  Z  " style="fill:rgb(192, 104, 34); fill-opacity:1.000; stroke:none;" />
 <path d="  M 63,6  L 63,7  L 64,7  L 64,6  Z  " style="fill:rgb(192, 104, 34); fill-opacity:1.000; stroke:none;" />
 <path d="  M 1,7  L 1,6  L 0,6  L 0,8  L 2,8  L 2,7  Z  " style="fill:rgb(178, 96, 31); fill-opacity:1.000; stroke:none;" />
 <path d="  M 2,6  L 2,7  L 3,7  L 3,6  Z  " style="fill:rgb(178, 96, 31); fill-opacity:1.000; stroke:none;" />
 <path d="  M 2,9  L 5,9  L 5,8  L 4,8  L 4,7  L 3,7  L 3,8  L 2,8  Z  " style="fill:rgb(178, 96, 31); fill-opacity:1.000; stroke:none;" />
 <path d="  M 2,60  L 2,61  L 3,61  L 3,62  L 4,62  L 4,61  L 5,61  L 5,60  L 6,60  L 6,59  L 4,59  L 4,60  Z  " style="fill:rgb(178, 96, 31); fill-opacity:1.000; stroke:none;" />
 <path d="  M 4,59  L 4,58  L 3,58  L 3,59  Z  " style="fill:rgb(178, 96, 31); fill-opacity:1.000; stroke:none;" />
 <path d="  M 5,8  L 6,8  L 6,6  L 4,6  L 4,7  L 5,7  Z  " style="fill:rgb(178, 96, 31); fill-opacity:1.000; stroke:none;" />
 <path d="  M 6,46  L 5,46  L 5,47  L 6,47  Z  " style="fill:rgb(178, 96, 31); fill-opacity:1.000; stroke:none;" />
 <path d="  M 7,6  L 7,5  L 6,5  L 6,6  Z  " style="fill:rgb(178, 96, 31); fill-opacity:1.000; stroke:none;" />
 <path d="  M 7,9  L 7,8  L 6,8  L 6,9  Z  " style="fill:rgb(178, 96, 31); fill-opacity:1.000; stroke:none;" />
 <path d="  M 6,60  L 6,61  L 7,61  L 7,60  Z  " style="fill:rgb(178, 96, 31); fill-opacity:1.000; stroke:none;" />
 <path d="  M 7,7  L 8,7  L 8,6  L 7,6  Z  " style="fill:rgb(178, 96, 31); fill-opacity:1.000; stroke:none;" />
 <path d="  M 8,59  L 7,59  L 7,60  L 8,60  L 8,61  L 9,61  L 9,62  L 10,62  L 10,61  L 11,61  L 11,62  L 12,62  L 12,61  L 13,61  L 13,60  L 14,60  L 14,61  L 15,61  L 15,62  L 17,62  L 17,61  L 16,61  L 16,60  L 15,60  L 15,59  L 14,59  L 14,58  L 13,58  L 13,59  L 12,59  L 12,60  L 11,60  L 11,59  L 10,59  L 10,58  L 8,58  Z  M 9,60  L 9,59  L 10,59  L 10,60  Z  " style="fill:rgb(178, 96, 31); fill-opacity:1.000; stroke:none;" />
 <path d="  M 8,61  L 7,61  L 7,62  L 8,62  Z  " style="fill:rgb(178, 96, 31); fill-opacity:1.000; stroke:none;" />
 <path d="  M 9,7  L 9,9  L 10,9  L 10,8  L 11,8  L 11,7  Z  " style="fill:rgb(178, 96, 31); fill-opacity:1.000; stroke:none;" />
 <path d="  M 10,50  L 9,50  L 9,51  L 10,51  Z  " style="fill:rgb(178, 96, 31); fill-opacity:1.000; stroke:none;" />
 <path d="  M 12,9  L 16,9  L 16,8  L 17,8  L 17,9  L 20,9  L 20,8  L 21,8  L 21,9  L 22,9  L 22,8  L 24,8  L 24,7  L 22,7  L 22,6  L 21,6  L 21,5  L 18,5  L 18,6  L 17,6  L 17,7  L 15,7  L 15,6  L 14,6  L 14,5  L 13,5  L 13,6  L 12,6  L 12,5  L 10,5  L 10,6  L 11,6  L 11,7  L 13,7  L 13,8  L 12,8  Z  M 19,7  L 19,6  L 21,6  L 21,7  Z  M 14,8  L 14,7  L 15,7  L 15,8  Z  M 18,8  L 18,7  L 19,7  L 19,8  Z  " style="fill:rgb(178, 96, 31); fill-opacity:1.000; stroke:none;" />
 <path d="  M 11,39  L 11,38  L 10,38  L 10,39  Z  " style="fill:rgb(178, 96, 31); fill-opacity:1.000; stroke:none;" />
 <path d="  M 10,50  L 12,50  L 12,49  L 10,49  Z  " style="fill:rgb(178, 96, 31); fill-opacity:1.000; stroke:none;" />
 <path d="  M 11,27  L 11,28  L 12,28  L 12,27  Z  " style="fill:rgb(178, 96, 31); fill-opacity:1.000; stroke:none;" />
 <path d="  M 13,48  L 13,47  L 11,47  L 11,48  L 12,48  L 12,49  L 14,49  L 14,48  Z  " style="fill:rgb(178, 96, 31); fill-opacity:1.000; stroke:none;" />
 <path d="  M 13,25  L 13,24  L 12,24  L 12,25  Z  " style="fill:rgb(178, 96, 31); fill-opacity:1.000; stroke:none;" />
 <path d="  M 12,39  L 13,39  L 13,38  L 12,38  Z  " style="fill:rgb(178, 96, 31); fill-opacity:1.000; stroke:none;" />
 <path d="  M 14,26  L 14,25  L 13,25  L 13,26  Z  " style="fill:rgb(178, 96, 31); fill-opacity:1.000; stroke:none;" />
 <path d="  M 16,20  L 16,19  L 14,19  L 14,20  Z  " style="fill:rgb(178, 96, 31); fill-opacity:1.000; stroke:none;" />
 <path d="  M 18,47  L 18,46  L 16,46  L 16,47  L 14,47  L 14,48  L 17,48  L 17,47  Z  " style="fill:rgb(178, 96, 31); fill-opacity:1.000; stroke:none;" />
 <path d="  M 15,49  L 14,49  L 14,50  L 15,50  Z  " style="fill:rgb(178, 96, 31); fill-opacity:1.000; stroke:none;" />
 <path d="  M 16,17  L 15,17  L 15,18  L 16,18  Z  " style="fill:rgb(178, 96, 31); fill-opacity:1.000; stroke:none;" />
 <path d="  M 16,5  L 16,6  L 17,6  L 17,5  Z  " style="fill:rgb(178, 96, 31); fill-opacity:1.000; stroke:none;" />
 <path d="  M 17,17  L 17,18  L 16,18  L 16,19  L 18,19  L 18,18  L 19,18  L 19,17  Z  " style="fill:rgb(178, 96, 31); fill-opacity:1.000; stroke:none;" />
 <path d="  M 18,59  L 17,59  L 17,58  L 16,58  L 16,60  L 17,60  L 17,61  L 18,61  Z  " style="fill:rgb(178, 96, 31); fill-opacity:1.000; stroke:none;" />
 <path d="  M 17,38  L 17,39  L 22,39  L 22,38  Z  " style="fill:rgb(178, 96, 31); fill-opacity:1.000; stroke:none;" />
 <path d="  M 18,46  L 19,46  L 19,45  L 18,45  Z  " style="fill:rgb(178, 96, 31); fill-opacity:1.000; stroke:none;" />
 <path d="  M 18,56  L 18,57  L 19,57  L 19,56  Z  " style="fill:rgb(178, 96, 31); fill-opacity:1.000; stroke:none;" />
 <path d="  M 19,58  L 18,58  L 18,59  L 19,59  Z  " style="fill:rgb(178, 96, 31); fill-opacity:1.000; stroke:none;" />
 <path d="  M 19,17  L 20,17  L 20,16  L 19,16  Z  " style="fill:rgb(178, 96, 31); fill-opacity:1.000; stroke:none;" />
 <path d="  M 20,58  L 20,59  L 22,59  L 22,58  L 21,58  L 21,57  L 19,57  L 19,58  Z  " style="fill:rgb(178, 96, 31); fill-opacity:1.000; stroke:none;" />
 <path d="  M 20,60  L 20,59  L 19,59  L 19,60  Z  " style="fill:rgb(178, 96, 31); fill-opacity:1.000; stroke:none;" />
 <path d="  M 21,10  L 21,9  L 20,9  L 20,10  Z  " style="fill:rgb(178, 96, 31); fill-opacity:1.000; stroke:none;" />
 <path d="  M 21,63  L 22,63  L 22,62  L 23,62  L 23,63  L 25,63  L 25,62  L 24,62  L 24,61  L 25,61  L 25,60  L 24,60  L 24,58  L 23,58  L 23,60  L 22,60  L 22,61  L 20,61  L 20,62  L 21,62  Z  " style="fill:rgb(178, 96, 31); fill-opacity:1.000; stroke:none;" />
 <path d="  M 22,57  L 22,58  L 23,58  L 23,57  Z  " style="fill:rgb(178, 96, 31); fill-opacity:1.000; stroke:none;" />
 <path d="  M 24,7  L 25,7  L 25,5  L 23,5  L 23,6  L 24,6  Z  " style="fill:rgb(178, 96, 31); fill-opacity:1.000; stroke:none;" />
 <path d="  M 23,39  L 24,39  L 24,38  L 23,38  Z  " style="fill:rgb(178, 96, 31); fill-opacity:1.000; stroke:none;" />
 <path d="  M 25,8  L 24,8  L 24,9  L 25,9  Z  " style="fill:rgb(178, 96, 31); fill-opacity:1.000; stroke:none;" />
 <path d="  M 26,5  L 26,4  L 25,4  L 25,5  Z  " style="fill:rgb(178, 96, 31); fill-opacity:1.000; stroke:none;" />
 <path d="  M 26,5  L 26,7  L 27,7  L 27,6  L 29,6  L 29,4  L 28,4  L 28,5  Z  " style="fill:rgb(178, 96, 31); fill-opacity:1.000; stroke:none;" />
 <path d="  M 28,62  L 28,60  L 27,60  L 27,61  L 26,61  L 26,62  Z  " style="fill:rgb(178, 96, 31); fill-opacity:1.000; stroke:none;" />
 <path d="  M 30,10  L 30,8  L 29,8  L 29,9  L 27,9  L 27,10  Z  " style="fill:rgb(178, 96, 31); fill-opacity:1.000; stroke:none;" />
 <path d="  M 28,8  L 29,8  L 29,7  L 28,7  Z  " style="fill:rgb(178, 96, 31); fill-opacity:1.000; stroke:none;" />
 <path d="  M 29,62  L 28,62  L 28,63  L 29,63  Z  " style="fill:rgb(178, 96, 31); fill-opacity:1.000; stroke:none;" />
 <path d="  M 29,6  L 29,7  L 31,7  L 31,6  Z  " style="fill:rgb(178, 96, 31); fill-opacity:1.000; stroke:none;" />
 <path d="  M 29,62  L 30,62  L 30,61  L 29,61  Z  " style="fill:rgb(178, 96, 31); fill-opacity:1.000; stroke:none;" />
 <path d="  M 31,6  L 32,6  L 32,5  L 31,5  Z  " style="fill:rgb(178, 96, 31); fill-opacity:1.000; stroke:none;" />
 <path d="  M 32,61  L 34,61  L 34,62  L 37,62  L 37,61  L 38,61  L 38,60  L 36,60  L 36,61  L 35,61  L 35,60  L 33,60  L 33,59  L 31,59  L 31,60  L 32,60  Z  " style="fill:rgb(178, 96, 31); fill-opacity:1.000; stroke:none;" />
 <path d="  M 34,63  L 34,62  L 32,62  L 32,61  L 31,61  L 31,63  Z  " style="fill:rgb(178, 96, 31); fill-opacity:1.000; stroke:none;" />
 <path d="  M 33,7  L 33,8  L 34,8  L 34,7  L 35,7  L 35,6  L 32,6  L 32,7  Z  " style="fill:rgb(178, 96, 31); fill-opacity:1.000; stroke:none;" />
 <path d="  M 32,9  L 33,9  L 33,8  L 32,8  Z  " style="fill:rgb(178, 96, 31); fill-opacity:1.000; stroke:none;" />
 <path d="  M 35,8  L 34,8  L 34,9  L 35,9  Z  " style="fill:rgb(178, 96, 31); fill-opacity:1.000; stroke:none;" />
 <path d="  M 34,49  L 36,49  L 36,48  L 34,48  Z  " style="fill:rgb(178, 96, 31); fill-opacity:1.000; stroke:none;" />
 <path d="  M 36,5  L 35,5  L 35,6  L 36,6  Z  " style="fill:rgb(178, 96, 31); fill-opacity:1.000; stroke:none;" />
 <path d="  M 35,8  L 36,8  L 36,7  L 35,7  Z  " style="fill:rgb(178, 96, 31); fill-opacity:1.000; stroke:none;" />
 <path d="  M 36,32  L 38,32  L 38,31  L 37,31  L 37,30  L 36,30  Z  " style="fill:rgb(178, 96, 31); fill-opacity:1.000; stroke:none;" />
 <path d="  M 38,50  L 38,49  L 36,49  L 36,50  Z  " style="fill:rgb(178, 96, 31); fill-opacity:1.000; stroke:none;" />
 <path d="  M 38,6  L 37,6  L 37,7  L 38,7  Z  " style="fill:rgb(178, 96, 31); fill-opacity:1.000; stroke:none;" />
 <path d="  M 37,8  L 37,9  L 38,9  L 38,8  Z  " style="fill:rgb(178, 96, 31); fill-opacity:1.000; stroke:none;" />
 <path d="  M 42,7  L 41,7  L 41,6  L 39,6  L 39,7  L 38,7  L 38,8  L 39,8  L 39,9  L 40,9  L 40,8  L 42,8  Z  " style="fill:rgb(178, 96, 31); fill-opacity:1.000; stroke:none;" />
 <path d="  M 39,38  L 39,39  L 44,39  L 44,38  Z  " style="fill:rgb(178, 96, 31); fill-opacity:1.000; stroke:none;" />
 <path d="  M 41,62  L 41,61  L 42,61  L 42,60  L 40,60  L 40,61  L 39,61  L 39,62  Z  " style="fill:rgb(178, 96, 31); fill-opacity:1.000; stroke:none;" />
 <path d="  M 42,6  L 42,5  L 41,5  L 41,6  Z  " style="fill:rgb(178, 96, 31); fill-opacity:1.000; stroke:none;" />
 <path d="  M 45,58  L 45,57  L 46,57  L 46,58  L 48,58  L 48,57  L 47,57  L 47,56  L 46,56  L 46,55  L 45,55  L 45,56  L 43,56  L 43,55  L 41,55  L 41,56  L 42,56  L 42,57  L 43,57  L 43,58  Z  " style="fill:rgb(178, 96, 31); fill-opacity:1.000; stroke:none;" />
 <path d="  M 42,57  L 41,57  L 41,58  L 42,58  Z  " style="fill:rgb(178, 96, 31); fill-opacity:1.000; stroke:none;" />
 <path d="  M 44,7  L 44,6  L 46,6  L 46,5  L 43,5  L 43,6  L 42,6  L 42,7  Z  " style="fill:rgb(178, 96, 31); fill-opacity:1.000; stroke:none;" />
 <path d="  M 43,8  L 42,8  L 42,9  L 43,9  Z  " style="fill:rgb(178, 96, 31); fill-opacity:1.000; stroke:none;" />
 <path d="  M 43,17  L 42,17  L 42,19  L 43,19  Z  " style="fill:rgb(178, 96, 31); fill-opacity:1.000; stroke:none;" />
 <path d="  M 42,20  L 42,21  L 43,21  L 43,20  Z  " style="fill:rgb(178, 96, 31); fill-opacity:1.000; stroke:none;" />
 <path d="  M 42,32  L 42,33  L 44,33  L 44,32  Z  " style="fill:rgb(178, 96, 31); fill-opacity:1.000; stroke:none;" />
 <path d="  M 43,61  L 42,61  L 42,62  L 47,62  L 47,63  L 49,63  L 49,62  L 48,62  L 48,60  L 46,60  L 46,61  L 44,61  L 44,60  L 43,60  Z  " style="fill:rgb(178, 96, 31); fill-opacity:1.000; stroke:none;" />
 <path d="  M 46,18  L 46,17  L 45,17  L 45,16  L 43,16  L 43,17  L 44,17  L 44,18  Z  " style="fill:rgb(178, 96, 31); fill-opacity:1.000; stroke:none;" />
 <path d="  M 44,21  L 43,21  L 43,22  L 44,22  Z  " style="fill:rgb(178, 96, 31); fill-opacity:1.000; stroke:none;" />
 <path d="  M 43,55  L 44,55  L 44,54  L 43,54  Z  " style="fill:rgb(178, 96, 31); fill-opacity:1.000; stroke:none;" />
 <path d="  M 50,6  L 49,6  L 49,7  L 48,7  L 48,6  L 46,6  L 46,7  L 44,7  L 44,8  L 45,8  L 45,9  L 46,9  L 46,8  L 48,8  L 48,9  L 49,9  L 49,8  L 50,8  Z  " style="fill:rgb(178, 96, 31); fill-opacity:1.000; stroke:none;" />
 <path d="  M 47,19  L 47,18  L 46,18  L 46,19  Z  " style="fill:rgb(178, 96, 31); fill-opacity:1.000; stroke:none;" />
 <path d="  M 47,38  L 47,39  L 48,39  L 48,38  Z  " style="fill:rgb(178, 96, 31); fill-opacity:1.000; stroke:none;" />
 <path d="  M 49,6  L 49,5  L 48,5  L 48,6  Z  " style="fill:rgb(178, 96, 31); fill-opacity:1.000; stroke:none;" />
 <path d="  M 50,62  L 50,61  L 49,61  L 49,62  Z  " style="fill:rgb(178, 96, 31); fill-opacity:1.000; stroke:none;" />
 <path d="  M 50,61  L 51,61  L 51,60  L 50,60  Z  " style="fill:rgb(178, 96, 31); fill-opacity:1.000; stroke:none;" />
 <path d="  M 53,8  L 52,8  L 52,7  L 51,7  L 51,9  L 53,9  Z  " style="fill:rgb(178, 96, 31); fill-opacity:1.000; stroke:none;" />
 <path d="  M 52,6  L 52,7  L 53,7  L 53,6  Z  " style="fill:rgb(178, 96, 31); fill-opacity:1.000; stroke:none;" />
 <path d="  M 57,38  L 52,38  L 52,39  L 57,39  Z  " style="fill:rgb(178, 96, 31); fill-opacity:1.000; stroke:none;" />
 <path d="  M 52,60  L 53,60  L 53,61  L 52,61  L 52,62  L 54,62  L 54,63  L 55,63  L 55,62  L 56,62  L 56,63  L 58,63  L 58,62  L 57,62  L 57,61  L 56,61  L 56,60  L 54,60  L 54,59  L 52,59  Z  " style="fill:rgb(178, 96, 31); fill-opacity:1.000; stroke:none;" />
 <path d="  M 54,6  L 54,5  L 53,5  L 53,6  Z  " style="fill:rgb(178, 96, 31); fill-opacity:1.000; stroke:none;" />
 <path d="  M 54,8  L 54,7  L 53,7  L 53,8  Z  " style="fill:rgb(178, 96, 31); fill-opacity:1.000; stroke:none;" />
 <path d="  M 55,6  L 54,6  L 54,7  L 55,7  Z  " style="fill:rgb(178, 96, 31); fill-opacity:1.000; stroke:none;" />
 <path d="  M 55,37  L 56,37  L 56,36  L 57,36  L 57,35  L 56,35  L 56,34  L 55,34  L 55,35  L 54,35  L 54,36  L 55,36  Z  " style="fill:rgb(178, 96, 31); fill-opacity:1.000; stroke:none;" />
 <path d="  M 55,6  L 57,6  L 57,5  L 55,5  Z  " style="fill:rgb(178, 96, 31); fill-opacity:1.000; stroke:none;" />
 <path d="  M 56,8  L 55,8  L 55,9  L 58,9  L 58,8  L 57,8  L 57,7  L 56,7  Z  " style="fill:rgb(178, 96, 31); fill-opacity:1.000; stroke:none;" />
 <path d="  M 56,60  L 57,60  L 57,59  L 56,59  Z  " style="fill:rgb(178, 96, 31); fill-opacity:1.000; stroke:none;" />
 <path d="  M 59,7  L 59,6  L 57,6  L 57,7  L 58,7  L 58,8  L 60,8  L 60,9  L 61,9  L 61,7  Z  " style="fill:rgb(178, 96, 31); fill-opacity:1.000; stroke:none;" />
 <path d="  M 58,35  L 58,34  L 57,34  L 57,35  Z  " style="fill:rgb(178, 96, 31); fill-opacity:1.000; stroke:none;" />
 <path d="  M 59,61  L 60,61  L 60,62  L 62,62  L 62,61  L 61,61  L 61,60  L 60,60  L 60,59  L 58,59  L 58,60  L 59,60  Z  " style="fill:rgb(178, 96, 31); fill-opacity:1.000; stroke:none;" />
 <path d="  M 58,62  L 59,62  L 59,61  L 58,61  Z  " style="fill:rgb(178, 96, 31); fill-opacity:1.000; stroke:none;" />
 <path d="  M 61,6  L 61,7  L 62,7  L 62,8  L 63,8  L 63,9  L 64,9  L 64,7  L 63,7  L 63,6  Z  " style="fill:rgb(178, 96, 31); fill-opacity:1.000; stroke:none;" />
 <path d="  M 61,59  L 61,60  L 62,60  L 62,59  Z  " style="fill:rgb(178, 96, 31); fill-opacity:1.000; stroke:none;" />
 <path d="  M 63,33  L 63,26  L 62,26  L 62,33  Z  " style="fill:rgb(178, 96, 31); fill-opacity:1.000; stroke:none;" />
 <path d="  M 63,42  L 63,39  L 62,39  L 62,42  Z  " style="fill:rgb(178, 96, 31); fill-opacity:1.000; stroke:none;" />
 <path d="  M 63,56  L 62,56  L 62,59  L 63,59  Z  " style="fill:rgb(178, 96, 31); fill-opacity:1.000; stroke:none;" />
 <path d="  M 64,6  L 64,5  L 63,5  L 63,6  Z  " style="fill:rgb(178, 96, 31); fill-opacity:1.000; stroke:none;" />
 <path d="  M 64,12  L 64,11  L 63,11  L 63,12  Z  " style="fill:rgb(178, 96, 31); fill-opacity:1.000; stroke:none;" />
 <path d="  M 2,9  L 2,8  L 0,8  L 0,10  L 1,10  L 1,11  L 3,11  L 3,10  L 10,10  L 10,11  L 11,11  L 11,10  L 12,10  L 12,11  L 14,11  L 14,10  L 15,10  L 15,11  L 16,11  L 16,10  L 17,10  L 17,11  L 18,11  L 18,10  L 20,10  L 20,9  L 17,9  L 17,8  L 16,8  L 16,9  L 12,9  L 12,8  L 13,8  L 13,7  L 11,7  L 11,8  L 10,8  L 10,9  L 9,9  L 9,8  L 7,8  L 7,9  L 6,9  L 6,8  L 5,8  L 5,9  Z  " style="fill:rgb(172, 87, 18); fill-opacity:1.000; stroke:none;" />
 <path d="  M 1,38  L 1,39  L 5,39  L 5,40  L 8,40  L 8,39  L 10,39  L 10,38  Z  " style="fill:rgb(172, 87, 18); fill-opacity:1.000; stroke:none;" />
 <path d="  M 3,7  L 2,7  L 2,8  L 3,8  Z  " style="fill:rgb(172, 87, 18); fill-opacity:1.000; stroke:none;" />
 <path d="  M 23,58  L 22,58  L 22,59  L 20,59  L 20,60  L 19,60  L 19,59  L 18,59  L 18,61  L 17,61  L 17,62  L 15,62  L 15,61  L 14,61  L 14,60  L 13,60  L 13,61  L 12,61  L 12,62  L 11,62  L 11,61  L 10,61  L 10,62  L 9,62  L 9,61  L 8,61  L 8,62  L 7,62  L 7,61  L 6,61  L 6,60  L 5,60  L 5,61  L 4,61  L 4,62  L 2,62  L 2,63  L 9,63  L 9,64  L 10,64  L 10,63  L 15,63  L 15,64  L 17,64  L 17,63  L 21,63  L 21,62  L 20,62  L 20,61  L 22,61  L 22,60  L 23,60  Z  " style="fill:rgb(172, 87, 18); fill-opacity:1.000; stroke:none;" />
 <path d="  M 6,7  L 6,8  L 7,8  L 7,7  Z  " style="fill:rgb(172, 87, 18); fill-opacity:1.000; stroke:none;" />
 <path d="  M 35,28  L 38,28  L 38,30  L 39,30  L 39,33  L 26,33  L 26,28  L 30,28  L 30,25  L 26,25  L 26,20  L 38,20  L 38,19  L 39,19  L 39,25  L 35,25  Z  M 42,36  L 42,32  L 58,32  L 58,20  L 54,20  L 54,21  L 46,21  L 46,24  L 47,24  L 47,29  L 42,29  L 42,16  L 36,16  L 36,17  L 34,17  L 34,18  L 33,18  L 33,17  L 26,17  L 26,16  L 24,16  L 24,17  L 22,17  L 22,20  L 23,20  L 23,29  L 18,29  L 18,20  L 10,20  L 10,21  L 7,21  L 7,24  L 8,24  L 8,25  L 7,25  L 7,28  L 6,28  L 6,30  L 7,30  L 7,31  L 8,31  L 8,32  L 23,32  L 23,36  L 31,36  L 31,40  L 30,40  L 30,39  L 26,39  L 26,42  L 30,42  L 30,44  L 34,44  L 34,42  L 38,42  L 38,39  L 34,39  L 34,36  Z  M 10,29  L 10,24  L 14,24  L 14,23  L 15,23  L 15,26  L 16,26  L 16,27  L 15,27  L 15,29  Z  M 56,25  L 55,25  L 55,29  L 50,29  L 50,24  L 54,24  L 54,23  L 55,23  L 55,24  L 56,24  Z  " style="fill:rgb(172, 87, 18); fill-opacity:1.000; stroke:none;" />
 <path d="  M 7,60  L 7,61  L 8,61  L 8,60  Z  " style="fill:rgb(172, 87, 18); fill-opacity:1.000; stroke:none;" />
 <path d="  M 12,39  L 12,38  L 11,38  L 11,39  Z  " style="fill:rgb(172, 87, 18); fill-opacity:1.000; stroke:none;" />
 <path d="  M 15,38  L 15,39  L 17,39  L 17,38  Z  " style="fill:rgb(172, 87, 18); fill-opacity:1.000; stroke:none;" />
 <path d="  M 16,61  L 17,61  L 17,60  L 16,60  Z  " style="fill:rgb(172, 87, 18); fill-opacity:1.000; stroke:none;" />
 <path d="  M 18,7  L 18,8  L 19,8  L 19,7  Z  " style="fill:rgb(172, 87, 18); fill-opacity:1.000; stroke:none;" />
 <path d="  M 20,40  L 20,39  L 19,39  L 19,40  Z  " style="fill:rgb(172, 87, 18); fill-opacity:1.000; stroke:none;" />
 <path d="  M 20,58  L 19,58  L 19,59  L 20,59  Z  " style="fill:rgb(172, 87, 18); fill-opacity:1.000; stroke:none;" />
 <path d="  M 21,8  L 20,8  L 20,9  L 21,9  Z  " style="fill:rgb(172, 87, 18); fill-opacity:1.000; stroke:none;" />
 <path d="  M 26,7  L 26,6  L 25,6  L 25,7  L 24,7  L 24,8  L 22,8  L 22,9  L 21,9  L 21,10  L 20,10  L 20,11  L 23,11  L 23,10  L 27,10  L 27,9  L 29,9  L 29,8  L 28,8  L 28,7  L 29,7  L 29,6  L 27,6  L 27,7  Z  M 25,9  L 24,9  L 24,8  L 25,8  Z  " style="fill:rgb(172, 87, 18); fill-opacity:1.000; stroke:none;" />
 <path d="  M 24,64  L 24,63  L 23,63  L 23,62  L 22,62  L 22,63  L 21,63  L 21,64  Z  " style="fill:rgb(172, 87, 18); fill-opacity:1.000; stroke:none;" />
 <path d="  M 22,39  L 23,39  L 23,38  L 22,38  Z  " style="fill:rgb(172, 87, 18); fill-opacity:1.000; stroke:none;" />
 <path d="  M 24,38  L 24,39  L 26,39  L 26,38  Z  " style="fill:rgb(172, 87, 18); fill-opacity:1.000; stroke:none;" />
 <path d="  M 25,62  L 25,63  L 28,63  L 28,62  Z  " style="fill:rgb(172, 87, 18); fill-opacity:1.000; stroke:none;" />
 <path d="  M 38,48  L 38,45  L 27,45  L 27,48  L 31,48  L 31,50  L 34,50  L 34,48  Z  " style="fill:rgb(172, 87, 18); fill-opacity:1.000; stroke:none;" />
 <path d="  M 31,54  L 31,58  L 34,58  L 34,54  L 38,54  L 38,50  L 36,50  L 36,51  L 27,51  L 27,54  Z  " style="fill:rgb(172, 87, 18); fill-opacity:1.000; stroke:none;" />
 <path d="  M 29,11  L 29,10  L 28,10  L 28,11  Z  " style="fill:rgb(172, 87, 18); fill-opacity:1.000; stroke:none;" />
 <path d="  M 28,62  L 29,62  L 29,61  L 28,61  Z  " style="fill:rgb(172, 87, 18); fill-opacity:1.000; stroke:none;" />
 <path d="  M 42,8  L 40,8  L 40,9  L 39,9  L 39,8  L 38,8  L 38,7  L 36,7  L 36,8  L 35,8  L 35,9  L 34,9  L 34,8  L 33,8  L 33,7  L 29,7  L 29,8  L 30,8  L 30,10  L 37,10  L 37,11  L 39,11  L 39,10  L 43,10  L 43,11  L 45,11  L 45,10  L 47,10  L 47,11  L 48,11  L 48,10  L 55,10  L 55,11  L 59,11  L 59,10  L 64,10  L 64,9  L 63,9  L 63,8  L 61,8  L 61,9  L 60,9  L 60,8  L 58,8  L 58,9  L 55,9  L 55,8  L 56,8  L 56,7  L 54,7  L 54,8  L 53,8  L 53,9  L 51,9  L 51,7  L 50,7  L 50,8  L 49,8  L 49,9  L 48,9  L 48,8  L 46,8  L 46,9  L 45,9  L 45,8  L 44,8  L 44,7  L 42,7  Z  M 43,9  L 42,9  L 42,8  L 43,8  Z  M 33,8  L 33,9  L 32,9  L 32,8  Z  M 37,8  L 38,8  L 38,9  L 37,9  Z  " style="fill:rgb(172, 87, 18); fill-opacity:1.000; stroke:none;" />
 <path d="  M 31,63  L 31,62  L 29,62  L 29,63  Z  " style="fill:rgb(172, 87, 18); fill-opacity:1.000; stroke:none;" />
 <path d="  M 32,64  L 34,64  L 34,63  L 32,63  Z  " style="fill:rgb(172, 87, 18); fill-opacity:1.000; stroke:none;" />
 <path d="  M 33,62  L 34,62  L 34,61  L 33,61  Z  " style="fill:rgb(172, 87, 18); fill-opacity:1.000; stroke:none;" />
 <path d="  M 35,7  L 34,7  L 34,8  L 35,8  Z  " style="fill:rgb(172, 87, 18); fill-opacity:1.000; stroke:none;" />
 <path d="  M 47,63  L 47,62  L 42,62  L 42,61  L 41,61  L 41,62  L 34,62  L 34,63  L 38,63  L 38,64  L 39,64  L 39,63  Z  " style="fill:rgb(172, 87, 18); fill-opacity:1.000; stroke:none;" />
 <path d="  M 38,38  L 38,39  L 39,39  L 39,38  Z  " style="fill:rgb(172, 87, 18); fill-opacity:1.000; stroke:none;" />
 <path d="  M 41,39  L 41,40  L 45,40  L 45,39  L 47,39  L 47,38  L 44,38  L 44,39  Z  " style="fill:rgb(172, 87, 18); fill-opacity:1.000; stroke:none;" />
 <path d="  M 47,63  L 47,64  L 49,64  L 49,63  Z  " style="fill:rgb(172, 87, 18); fill-opacity:1.000; stroke:none;" />
 <path d="  M 48,38  L 48,39  L 52,39  L 52,38  Z  " style="fill:rgb(172, 87, 18); fill-opacity:1.000; stroke:none;" />
 <path d="  M 49,62  L 49,63  L 54,63  L 54,62  Z  " style="fill:rgb(172, 87, 18); fill-opacity:1.000; stroke:none;" />
 <path d="  M 53,8  L 53,7  L 52,7  L 52,8  Z  " style="fill:rgb(172, 87, 18); fill-opacity:1.000; stroke:none;" />
 <path d="  M 54,6  L 53,6  L 53,7  L 54,7  Z  " style="fill:rgb(172, 87, 18); fill-opacity:1.000; stroke:none;" />
 <path d="  M 56,62  L 55,62  L 55,63  L 56,63  Z  " style="fill:rgb(172, 87, 18); fill-opacity:1.000; stroke:none;" />
 <path d="  M 57,39  L 61,39  L 61,40  L 62,40  L 62,39  L 63,39  L 63,33  L 62,33  L 62,38  L 57,38  Z  " style="fill:rgb(172, 87, 18); fill-opacity:1.000; stroke:none;" />
 <path d="  M 63,63  L 63,59  L 62,59  L 62,62  L 58,62  L 58,63  Z  " style="fill:rgb(172, 87, 18); fill-opacity:1.000; stroke:none;" />
 <path d="  M 63,13  L 62,13  L 62,26  L 63,26  Z  " style="fill:rgb(172, 87, 18); fill-opacity:1.000; stroke:none;" />
 <path d="  M 62,56  L 63,56  L 63,42  L 62,42  Z  " style="fill:rgb(172, 87, 18); fill-opacity:1.000; stroke:none;" />
 <path d="  M 64,27  L 63,27  L 63,30  L 64,30  Z  " style="fill:rgb(172, 87, 18); fill-opacity:1.000; stroke:none;" />
 <path d="  M 64,58  L 63,58  L 63,59  L 64,59  Z  " style="fill:rgb(172, 87, 18); fill-opacity:1.000; stroke:none;" />
 <path d="  M 0,11  L 1,11  L 1,10  L 0,10  Z  " style="fill:rgb(159, 78, 11); fill-opacity:1.000; stroke:none;" />
 <path d="  M 5,40  L 5,39  L 0,39  L 0,40  Z  " style="fill:rgb(159, 78, 11); fill-opacity:1.000; stroke:none;" />
 <path d="  M 1,63  L 1,64  L 9,64  L 9,63  Z  " style="fill:rgb(159, 78, 11); fill-opacity:1.000; stroke:none;" />
 <path d="  M 3,10  L 3,11  L 10,11  L 10,10  Z  " style="fill:rgb(159, 78, 11); fill-opacity:1.000; stroke:none;" />
 <path d="  M 6,20  L 6,28  L 7,28  L 7,25  L 8,25  L 8,24  L 7,24  L 7,21  L 10,21  L 10,20  Z  " style="fill:rgb(159, 78, 11); fill-opacity:1.000; stroke:none;" />
 <path d="  M 8,32  L 8,31  L 7,31  L 7,30  L 6,30  L 6,32  Z  " style="fill:rgb(159, 78, 11); fill-opacity:1.000; stroke:none;" />
 <path d="  M 8,39  L 8,40  L 19,40  L 19,39  L 15,39  L 15,38  L 13,38  L 13,39  Z  " style="fill:rgb(159, 78, 11); fill-opacity:1.000; stroke:none;" />
 <path d="  M 15,29  L 15,27  L 16,27  L 16,26  L 15,26  L 15,23  L 14,23  L 14,28  L 10,28  L 10,29  Z  " style="fill:rgb(159, 78, 11); fill-opacity:1.000; stroke:none;" />
 <path d="  M 15,64  L 15,63  L 10,63  L 10,64  Z  " style="fill:rgb(159, 78, 11); fill-opacity:1.000; stroke:none;" />
 <path d="  M 12,10  L 11,10  L 11,11  L 12,11  Z  " style="fill:rgb(159, 78, 11); fill-opacity:1.000; stroke:none;" />
 <path d="  M 14,10  L 14,11  L 15,11  L 15,10  Z  " style="fill:rgb(159, 78, 11); fill-opacity:1.000; stroke:none;" />
 <path d="  M 17,11  L 17,10  L 16,10  L 16,11  Z  " style="fill:rgb(159, 78, 11); fill-opacity:1.000; stroke:none;" />
 <path d="  M 21,64  L 21,63  L 17,63  L 17,64  Z  " style="fill:rgb(159, 78, 11); fill-opacity:1.000; stroke:none;" />
 <path d="  M 18,10  L 18,11  L 20,11  L 20,10  Z  " style="fill:rgb(159, 78, 11); fill-opacity:1.000; stroke:none;" />
 <path d="  M 23,29  L 23,20  L 22,20  L 22,28  L 18,28  L 18,29  Z  " style="fill:rgb(159, 78, 11); fill-opacity:1.000; stroke:none;" />
 <path d="  M 26,40  L 26,39  L 20,39  L 20,40  Z  " style="fill:rgb(159, 78, 11); fill-opacity:1.000; stroke:none;" />
 <path d="  M 22,16  L 22,17  L 24,17  L 24,16  Z  " style="fill:rgb(159, 78, 11); fill-opacity:1.000; stroke:none;" />
 <path d="  M 23,32  L 22,32  L 22,36  L 23,36  Z  " style="fill:rgb(159, 78, 11); fill-opacity:1.000; stroke:none;" />
 <path d="  M 23,10  L 23,11  L 28,11  L 28,10  Z  " style="fill:rgb(159, 78, 11); fill-opacity:1.000; stroke:none;" />
 <path d="  M 24,63  L 24,64  L 32,64  L 32,63  Z  " style="fill:rgb(159, 78, 11); fill-opacity:1.000; stroke:none;" />
 <path d="  M 33,17  L 33,18  L 34,18  L 34,17  L 36,17  L 36,16  L 26,16  L 26,17  Z  " style="fill:rgb(159, 78, 11); fill-opacity:1.000; stroke:none;" />
 <path d="  M 30,24  L 26,24  L 26,25  L 30,25  Z  " style="fill:rgb(159, 78, 11); fill-opacity:1.000; stroke:none;" />
 <path d="  M 39,33  L 39,30  L 38,30  L 38,32  L 26,32  L 26,33  Z  " style="fill:rgb(159, 78, 11); fill-opacity:1.000; stroke:none;" />
 <path d="  M 26,38  L 26,39  L 30,39  L 30,40  L 31,40  L 31,36  L 30,36  L 30,38  Z  " style="fill:rgb(159, 78, 11); fill-opacity:1.000; stroke:none;" />
 <path d="  M 38,45  L 38,44  L 26,44  L 26,48  L 27,48  L 27,45  Z  " style="fill:rgb(159, 78, 11); fill-opacity:1.000; stroke:none;" />
 <path d="  M 26,54  L 27,54  L 27,51  L 36,51  L 36,50  L 31,50  L 31,48  L 30,48  L 30,50  L 26,50  Z  " style="fill:rgb(159, 78, 11); fill-opacity:1.000; stroke:none;" />
 <path d="  M 37,11  L 37,10  L 29,10  L 29,11  Z  " style="fill:rgb(159, 78, 11); fill-opacity:1.000; stroke:none;" />
 <path d="  M 31,54  L 30,54  L 30,58  L 31,58  Z  " style="fill:rgb(159, 78, 11); fill-opacity:1.000; stroke:none;" />
 <path d="  M 38,24  L 34,24  L 34,28  L 35,28  L 35,25  L 39,25  L 39,19  L 38,19  Z  " style="fill:rgb(159, 78, 11); fill-opacity:1.000; stroke:none;" />
 <path d="  M 34,38  L 34,39  L 38,39  L 38,38  Z  " style="fill:rgb(159, 78, 11); fill-opacity:1.000; stroke:none;" />
 <path d="  M 38,63  L 34,63  L 34,64  L 38,64  Z  " style="fill:rgb(159, 78, 11); fill-opacity:1.000; stroke:none;" />
 <path d="  M 41,40  L 41,39  L 38,39  L 38,40  Z  " style="fill:rgb(159, 78, 11); fill-opacity:1.000; stroke:none;" />
 <path d="  M 39,10  L 39,11  L 43,11  L 43,10  Z  " style="fill:rgb(159, 78, 11); fill-opacity:1.000; stroke:none;" />
 <path d="  M 47,64  L 47,63  L 39,63  L 39,64  Z  " style="fill:rgb(159, 78, 11); fill-opacity:1.000; stroke:none;" />
 <path d="  M 46,28  L 42,28  L 42,29  L 47,29  L 47,24  L 46,24  Z  " style="fill:rgb(159, 78, 11); fill-opacity:1.000; stroke:none;" />
 <path d="  M 47,11  L 47,10  L 45,10  L 45,11  Z  " style="fill:rgb(159, 78, 11); fill-opacity:1.000; stroke:none;" />
 <path d="  M 61,40  L 61,39  L 45,39  L 45,40  Z  " style="fill:rgb(159, 78, 11); fill-opacity:1.000; stroke:none;" />
 <path d="  M 46,20  L 46,21  L 54,21  L 54,20  Z  " style="fill:rgb(159, 78, 11); fill-opacity:1.000; stroke:none;" />
 <path d="  M 55,11  L 55,10  L 48,10  L 48,11  Z  " style="fill:rgb(159, 78, 11); fill-opacity:1.000; stroke:none;" />
 <path d="  M 49,63  L 49,64  L 64,64  L 64,59  L 63,59  L 63,63  Z  " style="fill:rgb(159, 78, 11); fill-opacity:1.000; stroke:none;" />
 <path d="  M 55,29  L 55,25  L 56,25  L 56,24  L 55,24  L 55,23  L 54,23  L 54,28  L 50,28  L 50,29  Z  " style="fill:rgb(159, 78, 11); fill-opacity:1.000; stroke:none;" />
 <path d="  M 64,11  L 64,10  L 59,10  L 59,11  Z  " style="fill:rgb(159, 78, 11); fill-opacity:1.000; stroke:none;" />
 <path d="  M 63,27  L 64,27  L 64,12  L 63,12  Z  " style="fill:rgb(159, 78, 11); fill-opacity:1.000; stroke:none;" />
 <path d="  M 64,30  L 63,30  L 63,58  L 64,58  Z  " style="fill:rgb(159, 78, 11); fill-opacity:1.000; stroke:none;" />
 <path d="  M 1,11  L 0,11  L 0,15  L 1,15  Z  " style="fill:rgb(217, 123, 48); fill-opacity:1.000; stroke:none;" />
 <path d="  M 0,43  L 1,43  L 1,40  L 0,40  Z  " style="fill:rgb(217, 123, 48); fill-opacity:1.000; stroke:none;" />
 <path d="  M 1,47  L 0,47  L 0,55  L 1,55  Z  " style="fill:rgb(217, 123, 48); fill-opacity:1.000; stroke:none;" />
 <path d="  M 0,56  L 0,57  L 1,57  L 1,56  Z  " style="fill:rgb(217, 123, 48); fill-opacity:1.000; stroke:none;" />
 <path d="  M 2,12  L 3,12  L 3,11  L 2,11  Z  " style="fill:rgb(217, 123, 48); fill-opacity:1.000; stroke:none;" />
 <path d="  M 21,12  L 21,11  L 20,11  L 20,12  Z  " style="fill:rgb(217, 123, 48); fill-opacity:1.000; stroke:none;" />
 <path d="  M 22,11  L 22,12  L 24,12  L 24,11  Z  " style="fill:rgb(217, 123, 48); fill-opacity:1.000; stroke:none;" />
 <path d="  M 25,11  L 25,12  L 27,12  L 27,11  Z  " style="fill:rgb(217, 123, 48); fill-opacity:1.000; stroke:none;" />
 <path d="  M 41,12  L 41,11  L 38,11  L 38,12  Z  " style="fill:rgb(217, 123, 48); fill-opacity:1.000; stroke:none;" />
 <path d="  M 48,12  L 48,11  L 45,11  L 45,12  Z  " style="fill:rgb(217, 123, 48); fill-opacity:1.000; stroke:none;" />
 <path d="  M 2,18  L 1,18  L 1,15  L 0,15  L 0,38  L 1,38  L 1,37  L 2,37  L 2,36  L 1,36  L 1,35  L 2,35  L 2,25  L 1,25  L 1,23  L 2,23  L 2,22  L 1,22  L 1,21  L 2,21  Z  " style="fill:rgb(210, 117, 43); fill-opacity:1.000; stroke:none;" />
 <path d="  M 0,47  L 1,47  L 1,45  L 2,45  L 2,40  L 1,40  L 1,43  L 0,43  Z  " style="fill:rgb(210, 117, 43); fill-opacity:1.000; stroke:none;" />
 <path d="  M 1,55  L 0,55  L 0,56  L 2,56  L 2,53  L 1,53  Z  " style="fill:rgb(210, 117, 43); fill-opacity:1.000; stroke:none;" />
 <path d="  M 1,57  L 0,57  L 0,63  L 1,63  L 1,60  L 2,60  L 2,58  L 1,58  Z  " style="fill:rgb(210, 117, 43); fill-opacity:1.000; stroke:none;" />
 <path d="  M 1,11  L 1,14  L 2,14  L 2,13  L 3,13  L 3,12  L 2,12  L 2,11  Z  " style="fill:rgb(210, 117, 43); fill-opacity:1.000; stroke:none;" />
 <path d="  M 1,52  L 2,52  L 2,48  L 1,48  Z  " style="fill:rgb(210, 117, 43); fill-opacity:1.000; stroke:none;" />
 <path d="  M 3,0  L 2,0  L 2,1  L 3,1  Z  " style="fill:rgb(210, 117, 43); fill-opacity:1.000; stroke:none;" />
 <path d="  M 4,2  L 4,1  L 3,1  L 3,2  Z  " style="fill:rgb(210, 117, 43); fill-opacity:1.000; stroke:none;" />
 <path d="  M 4,13  L 5,13  L 5,11  L 3,11  L 3,12  L 4,12  Z  " style="fill:rgb(210, 117, 43); fill-opacity:1.000; stroke:none;" />
 <path d="  M 6,1  L 6,2  L 8,2  L 8,1  L 9,1  L 9,0  L 4,0  L 4,1  Z  " style="fill:rgb(210, 117, 43); fill-opacity:1.000; stroke:none;" />
 <path d="  M 6,30  L 5,30  L 5,31  L 6,31  Z  " style="fill:rgb(210, 117, 43); fill-opacity:1.000; stroke:none;" />
 <path d="  M 5,34  L 6,34  L 6,32  L 5,32  Z  " style="fill:rgb(210, 117, 43); fill-opacity:1.000; stroke:none;" />
 <path d="  M 6,11  L 6,12  L 7,12  L 7,13  L 8,13  L 8,12  L 9,12  L 9,11  Z  " style="fill:rgb(210, 117, 43); fill-opacity:1.000; stroke:none;" />
 <path d="  M 10,18  L 10,16  L 8,16  L 8,17  L 9,17  L 9,18  Z  " style="fill:rgb(210, 117, 43); fill-opacity:1.000; stroke:none;" />
 <path d="  M 10,1  L 9,1  L 9,2  L 11,2  L 11,1  L 12,1  L 12,0  L 10,0  Z  " style="fill:rgb(210, 117, 43); fill-opacity:1.000; stroke:none;" />
 <path d="  M 11,18  L 10,18  L 10,19  L 11,19  Z  " style="fill:rgb(210, 117, 43); fill-opacity:1.000; stroke:none;" />
 <path d="  M 11,25  L 11,24  L 10,24  L 10,25  Z  " style="fill:rgb(210, 117, 43); fill-opacity:1.000; stroke:none;" />
 <path d="  M 12,41  L 12,40  L 10,40  L 10,42  L 11,42  L 11,41  Z  " style="fill:rgb(210, 117, 43); fill-opacity:1.000; stroke:none;" />
 <path d="  M 21,13  L 21,12  L 20,12  L 20,11  L 11,11  L 11,12  L 13,12  L 13,13  L 14,13  L 14,12  L 17,12  L 17,13  Z  " style="fill:rgb(210, 117, 43); fill-opacity:1.000; stroke:none;" />
 <path d="  M 14,2  L 14,1  L 18,1  L 18,0  L 13,0  L 13,1  L 12,1  L 12,2  Z  " style="fill:rgb(210, 117, 43); fill-opacity:1.000; stroke:none;" />
 <path d="  M 15,54  L 15,55  L 17,55  L 17,54  Z  " style="fill:rgb(210, 117, 43); fill-opacity:1.000; stroke:none;" />
 <path d="  M 17,38  L 18,38  L 18,37  L 17,37  Z  " style="fill:rgb(210, 117, 43); fill-opacity:1.000; stroke:none;" />
 <path d="  M 17,55  L 17,56  L 18,56  L 18,55  Z  " style="fill:rgb(210, 117, 43); fill-opacity:1.000; stroke:none;" />
 <path d="  M 20,21  L 20,19  L 21,19  L 21,18  L 22,18  L 22,16  L 21,16  L 21,17  L 20,17  L 20,18  L 19,18  L 19,19  L 18,19  L 18,20  L 19,20  L 19,21  Z  " style="fill:rgb(210, 117, 43); fill-opacity:1.000; stroke:none;" />
 <path d="  M 18,37  L 19,37  L 19,36  L 18,36  Z  " style="fill:rgb(210, 117, 43); fill-opacity:1.000; stroke:none;" />
 <path d="  M 20,21  L 20,22  L 21,22  L 21,21  Z  " style="fill:rgb(210, 117, 43); fill-opacity:1.000; stroke:none;" />
 <path d="  M 22,26  L 22,25  L 20,25  L 20,26  Z  " style="fill:rgb(210, 117, 43); fill-opacity:1.000; stroke:none;" />
 <path d="  M 26,2  L 27,2  L 27,1  L 28,1  L 28,0  L 21,0  L 21,1  L 22,1  L 22,2  L 24,2  L 24,1  L 26,1  Z  " style="fill:rgb(210, 117, 43); fill-opacity:1.000; stroke:none;" />
 <path d="  M 21,11  L 21,12  L 22,12  L 22,11  Z  " style="fill:rgb(210, 117, 43); fill-opacity:1.000; stroke:none;" />
 <path d="  M 22,22  L 21,22  L 21,24  L 22,24  Z  " style="fill:rgb(210, 117, 43); fill-opacity:1.000; stroke:none;" />
 <path d="  M 22,48  L 22,47  L 21,47  L 21,48  Z  " style="fill:rgb(210, 117, 43); fill-opacity:1.000; stroke:none;" />
 <path d="  M 24,52  L 25,52  L 25,48  L 24,48  L 24,47  L 23,47  L 23,48  L 22,48  L 22,49  L 23,49  L 23,51  L 24,51  Z  " style="fill:rgb(210, 117, 43); fill-opacity:1.000; stroke:none;" />
 <path d="  M 24,52  L 23,52  L 23,53  L 24,53  Z  " style="fill:rgb(210, 117, 43); fill-opacity:1.000; stroke:none;" />
 <path d="  M 25,12  L 25,11  L 24,11  L 24,12  Z  " style="fill:rgb(210, 117, 43); fill-opacity:1.000; stroke:none;" />
 <path d="  M 25,12  L 25,13  L 29,13  L 29,12  L 32,12  L 32,11  L 27,11  L 27,12  Z  " style="fill:rgb(210, 117, 43); fill-opacity:1.000; stroke:none;" />
 <path d="  M 26,44  L 27,44  L 27,43  L 26,43  L 26,42  L 25,42  L 25,45  L 26,45  Z  " style="fill:rgb(210, 117, 43); fill-opacity:1.000; stroke:none;" />
 <path d="  M 25,48  L 26,48  L 26,46  L 25,46  Z  " style="fill:rgb(210, 117, 43); fill-opacity:1.000; stroke:none;" />
 <path d="  M 28,2  L 29,2  L 29,1  L 28,1  Z  " style="fill:rgb(210, 117, 43); fill-opacity:1.000; stroke:none;" />
 <path d="  M 30,20  L 28,20  L 28,21  L 30,21  Z  " style="fill:rgb(210, 117, 43); fill-opacity:1.000; stroke:none;" />
 <path d="  M 30,50  L 30,48  L 29,48  L 29,49  L 28,49  L 28,50  Z  " style="fill:rgb(210, 117, 43); fill-opacity:1.000; stroke:none;" />
 <path d="  M 30,22  L 31,22  L 31,23  L 33,23  L 33,22  L 32,22  L 32,21  L 30,21  Z  " style="fill:rgb(210, 117, 43); fill-opacity:1.000; stroke:none;" />
 <path d="  M 31,24  L 31,23  L 30,23  L 30,24  Z  " style="fill:rgb(210, 117, 43); fill-opacity:1.000; stroke:none;" />
 <path d="  M 31,1  L 32,1  L 32,0  L 31,0  Z  " style="fill:rgb(210, 117, 43); fill-opacity:1.000; stroke:none;" />
 <path d="  M 32,12  L 32,13  L 33,13  L 33,12  Z  " style="fill:rgb(210, 117, 43); fill-opacity:1.000; stroke:none;" />
 <path d="  M 34,23  L 33,23  L 33,24  L 34,24  Z  " style="fill:rgb(210, 117, 43); fill-opacity:1.000; stroke:none;" />
 <path d="  M 36,1  L 36,0  L 34,0  L 34,1  Z  " style="fill:rgb(210, 117, 43); fill-opacity:1.000; stroke:none;" />
 <path d="  M 38,12  L 38,11  L 34,11  L 34,12  L 35,12  L 35,13  L 36,13  L 36,12  L 37,12  L 37,13  L 42,13  L 42,12  L 44,12  L 44,13  L 48,13  L 48,12  L 45,12  L 45,11  L 41,11  L 41,12  Z  " style="fill:rgb(210, 117, 43); fill-opacity:1.000; stroke:none;" />
 <path d="  M 35,32  L 35,31  L 34,31  L 34,32  Z  " style="fill:rgb(210, 117, 43); fill-opacity:1.000; stroke:none;" />
 <path d="  M 35,56  L 35,55  L 34,55  L 34,56  Z  " style="fill:rgb(210, 117, 43); fill-opacity:1.000; stroke:none;" />
 <path d="  M 36,31  L 36,30  L 35,30  L 35,31  Z  " style="fill:rgb(210, 117, 43); fill-opacity:1.000; stroke:none;" />
 <path d="  M 37,55  L 37,54  L 35,54  L 35,55  Z  " style="fill:rgb(210, 117, 43); fill-opacity:1.000; stroke:none;" />
 <path d="  M 38,1  L 37,1  L 37,2  L 39,2  L 39,1  L 40,1  L 40,0  L 38,0  Z  " style="fill:rgb(210, 117, 43); fill-opacity:1.000; stroke:none;" />
 <path d="  M 40,59  L 39,59  L 39,60  L 40,60  Z  " style="fill:rgb(210, 117, 43); fill-opacity:1.000; stroke:none;" />
 <path d="  M 40,1  L 40,2  L 41,2  L 41,1  Z  " style="fill:rgb(210, 117, 43); fill-opacity:1.000; stroke:none;" />
 <path d="  M 42,44  L 41,44  L 41,46  L 40,46  L 40,48  L 41,48  L 41,47  L 42,47  Z  " style="fill:rgb(210, 117, 43); fill-opacity:1.000; stroke:none;" />
 <path d="  M 41,57  L 40,57  L 40,58  L 41,58  Z  " style="fill:rgb(210, 117, 43); fill-opacity:1.000; stroke:none;" />
 <path d="  M 42,0  L 41,0  L 41,1  L 42,1  Z  " style="fill:rgb(210, 117, 43); fill-opacity:1.000; stroke:none;" />
 <path d="  M 41,58  L 41,60  L 42,60  L 42,59  L 43,59  L 43,58  Z  " style="fill:rgb(210, 117, 43); fill-opacity:1.000; stroke:none;" />
 <path d="  M 42,44  L 44,44  L 44,42  L 43,42  L 43,43  L 42,43  Z  " style="fill:rgb(210, 117, 43); fill-opacity:1.000; stroke:none;" />
 <path d="  M 44,0  L 44,1  L 45,1  L 45,0  Z  " style="fill:rgb(210, 117, 43); fill-opacity:1.000; stroke:none;" />
 <path d="  M 47,44  L 46,44  L 46,45  L 45,45  L 45,44  L 44,44  L 44,47  L 45,47  L 45,46  L 46,46  L 46,47  L 47,47  L 47,49  L 48,49  L 48,44  L 49,44  L 49,43  L 50,43  L 50,42  L 48,42  L 48,43  L 47,43  Z  " style="fill:rgb(210, 117, 43); fill-opacity:1.000; stroke:none;" />
 <path d="  M 46,24  L 45,24  L 45,25  L 46,25  Z  " style="fill:rgb(210, 117, 43); fill-opacity:1.000; stroke:none;" />
 <path d="  M 46,42  L 46,43  L 47,43  L 47,42  Z  " style="fill:rgb(210, 117, 43); fill-opacity:1.000; stroke:none;" />
 <path d="  M 50,1  L 50,0  L 47,0  L 47,1  Z  " style="fill:rgb(210, 117, 43); fill-opacity:1.000; stroke:none;" />
 <path d="  M 53,12  L 52,12  L 52,11  L 48,11  L 48,12  L 51,12  L 51,13  L 53,13  Z  " style="fill:rgb(210, 117, 43); fill-opacity:1.000; stroke:none;" />
 <path d="  M 52,2  L 52,1  L 54,1  L 54,0  L 51,0  L 51,1  L 50,1  L 50,2  Z  " style="fill:rgb(210, 117, 43); fill-opacity:1.000; stroke:none;" />
 <path d="  M 58,13  L 58,12  L 59,12  L 59,13  L 60,13  L 60,12  L 63,12  L 63,11  L 53,11  L 53,12  L 55,12  L 55,13  Z  " style="fill:rgb(210, 117, 43); fill-opacity:1.000; stroke:none;" />
 <path d="  M 57,2  L 57,1  L 58,1  L 58,0  L 55,0  L 55,1  L 54,1  L 54,2  Z  " style="fill:rgb(210, 117, 43); fill-opacity:1.000; stroke:none;" />
 <path d="  M 57,47  L 57,48  L 58,48  L 58,49  L 59,49  L 59,50  L 60,50  L 60,51  L 61,51  L 61,53  L 62,53  L 62,45  L 61,45  L 61,46  L 60,46  L 60,47  L 59,47  L 59,46  L 58,46  L 58,47  Z  M 60,47  L 61,47  L 61,48  L 60,48  Z  " style="fill:rgb(210, 117, 43); fill-opacity:1.000; stroke:none;" />
 <path d="  M 59,1  L 58,1  L 58,2  L 59,2  Z  " style="fill:rgb(210, 117, 43); fill-opacity:1.000; stroke:none;" />
 <path d="  M 59,50  L 58,50  L 58,51  L 59,51  Z  " style="fill:rgb(210, 117, 43); fill-opacity:1.000; stroke:none;" />
 <path d="  M 60,45  L 59,45  L 59,46  L 60,46  Z  " style="fill:rgb(210, 117, 43); fill-opacity:1.000; stroke:none;" />
 <path d="  M 60,52  L 60,51  L 59,51  L 59,52  Z  " style="fill:rgb(210, 117, 43); fill-opacity:1.000; stroke:none;" />
 <path d="  M 60,0  L 60,1  L 62,1  L 62,0  Z  " style="fill:rgb(210, 117, 43); fill-opacity:1.000; stroke:none;" />
 <path d="  M 63,2  L 63,1  L 62,1  L 62,2  Z  " style="fill:rgb(210, 117, 43); fill-opacity:1.000; stroke:none;" />
</svg>
