<?xml version="1.0" encoding="UTF-8" standalone="no"?>
<!DOCTYPE svg PUBLIC "-//W3C//DTD SVG 1.1//EN" 
  "http://www.w3.org/Graphics/SVG/1.1/DTD/svg11.dtd">
<svg width="64" height="64"
	 xmlns="http://www.w3.org/2000/svg" version="1.1">
 <path d="  M 62,2  L 62,1  L 63,1  L 63,0  L 0,0  L 0,16  L 2,16  L 2,2  Z  " style="fill:rgb(90, 66, 44); fill-opacity:1.000; stroke:none;" />
 <path d="  M 2,24  L 0,24  L 0,60  L 2,60  Z  " style="fill:rgb(90, 66, 44); fill-opacity:1.000; stroke:none;" />
 <path d="  M 0,16  L 0,21  L 1,21  L 1,17  L 3,17  L 3,16  Z  " style="fill:rgb(111, 111, 111); fill-opacity:1.000; stroke:none;" />
 <path d="  M 3,61  L 3,60  L 0,60  L 0,64  L 1,64  L 1,61  Z  " style="fill:rgb(111, 111, 111); fill-opacity:1.000; stroke:none;" />
 <path d="  M 1,21  L 0,21  L 0,23  L 1,23  Z  " style="fill:rgb(82, 82, 82); fill-opacity:1.000; stroke:none;" />
 <path d="  M 2,19  L 3,19  L 3,17  L 1,17  L 1,18  L 2,18  Z  " style="fill:rgb(82, 82, 82); fill-opacity:1.000; stroke:none;" />
 <path d="  M 2,19  L 1,19  L 1,21  L 2,21  Z  " style="fill:rgb(82, 82, 82); fill-opacity:1.000; stroke:none;" />
 <path d="  M 3,63  L 3,61  L 1,61  L 1,62  L 2,62  L 2,63  Z  " style="fill:rgb(82, 82, 82); fill-opacity:1.000; stroke:none;" />
 <path d="  M 2,63  L 1,63  L 1,64  L 2,64  Z  " style="fill:rgb(82, 82, 82); fill-opacity:1.000; stroke:none;" />
 <path d="  M 3,17  L 4,17  L 4,16  L 3,16  Z  " style="fill:rgb(82, 82, 82); fill-opacity:1.000; stroke:none;" />
 <path d="  M 4,60  L 3,60  L 3,61  L 4,61  Z  " style="fill:rgb(82, 82, 82); fill-opacity:1.000; stroke:none;" />
 <path d="  M 0,23  L 0,24  L 1,24  L 1,23  Z  " style="fill:rgb(71, 71, 71); fill-opacity:1.000; stroke:none;" />
 <path d="  M 2,19  L 2,18  L 1,18  L 1,19  Z  " style="fill:rgb(71, 71, 71); fill-opacity:1.000; stroke:none;" />
 <path d="  M 3,17  L 3,19  L 2,19  L 2,21  L 1,21  L 1,23  L 2,23  L 2,22  L 3,22  L 3,20  L 4,20  L 4,17  Z  " style="fill:rgb(71, 71, 71); fill-opacity:1.000; stroke:none;" />
 <path d="  M 2,63  L 2,62  L 1,62  L 1,63  Z  " style="fill:rgb(71, 71, 71); fill-opacity:1.000; stroke:none;" />
 <path d="  M 3,63  L 2,63  L 2,64  L 4,64  L 4,61  L 3,61  Z  " style="fill:rgb(71, 71, 71); fill-opacity:1.000; stroke:none;" />
 <path d="  M 4,22  L 3,22  L 3,23  L 4,23  Z  " style="fill:rgb(71, 71, 71); fill-opacity:1.000; stroke:none;" />
 <path d="  M 1,23  L 1,24  L 4,24  L 4,23  L 3,23  L 3,22  L 2,22  L 2,23  Z  " style="fill:rgb(53, 53, 53); fill-opacity:1.000; stroke:none;" />
 <path d="  M 4,22  L 4,20  L 3,20  L 3,22  Z  " style="fill:rgb(53, 53, 53); fill-opacity:1.000; stroke:none;" />
 <path d="  M 3,5  L 3,4  L 5,4  L 5,3  L 4,3  L 4,2  L 2,2  L 2,5  Z  " style="fill:rgb(83, 54, 26); fill-opacity:1.000; stroke:none;" />
 <path d="  M 2,6  L 2,7  L 3,7  L 3,6  Z  " style="fill:rgb(83, 54, 26); fill-opacity:1.000; stroke:none;" />
 <path d="  M 3,9  L 2,9  L 2,13  L 3,13  L 3,12  L 4,12  L 4,11  L 3,11  L 3,10  L 4,10  L 4,8  L 5,8  L 5,7  L 3,7  Z  " style="fill:rgb(83, 54, 26); fill-opacity:1.000; stroke:none;" />
 <path d="  M 3,28  L 3,27  L 2,27  L 2,32  L 3,32  L 3,30  L 4,30  L 4,28  Z  " style="fill:rgb(83, 54, 26); fill-opacity:1.000; stroke:none;" />
 <path d="  M 3,46  L 4,46  L 4,40  L 3,40  L 3,44  L 2,44  L 2,52  L 3,52  L 3,54  L 4,54  L 4,50  L 3,50  Z  " style="fill:rgb(83, 54, 26); fill-opacity:1.000; stroke:none;" />
 <path d="  M 3,16  L 4,16  L 4,14  L 3,14  Z  " style="fill:rgb(83, 54, 26); fill-opacity:1.000; stroke:none;" />
 <path d="  M 4,27  L 4,25  L 5,25  L 5,26  L 6,26  L 6,23  L 5,23  L 5,24  L 3,24  L 3,27  Z  " style="fill:rgb(83, 54, 26); fill-opacity:1.000; stroke:none;" />
 <path d="  M 4,55  L 3,55  L 3,57  L 4,57  Z  " style="fill:rgb(83, 54, 26); fill-opacity:1.000; stroke:none;" />
 <path d="  M 6,13  L 5,13  L 5,12  L 4,12  L 4,14  L 5,14  L 5,16  L 6,16  Z  " style="fill:rgb(83, 54, 26); fill-opacity:1.000; stroke:none;" />
 <path d="  M 4,23  L 5,23  L 5,20  L 4,20  Z  " style="fill:rgb(83, 54, 26); fill-opacity:1.000; stroke:none;" />
 <path d="  M 5,33  L 6,33  L 6,32  L 5,32  L 5,30  L 4,30  L 4,35  L 5,35  Z  " style="fill:rgb(83, 54, 26); fill-opacity:1.000; stroke:none;" />
 <path d="  M 5,40  L 5,38  L 4,38  L 4,40  Z  " style="fill:rgb(83, 54, 26); fill-opacity:1.000; stroke:none;" />
 <path d="  M 4,48  L 4,50  L 5,50  L 5,48  Z  " style="fill:rgb(83, 54, 26); fill-opacity:1.000; stroke:none;" />
 <path d="  M 4,58  L 4,60  L 5,60  L 5,59  L 6,59  L 6,56  L 5,56  L 5,58  Z  " style="fill:rgb(83, 54, 26); fill-opacity:1.000; stroke:none;" />
 <path d="  M 5,3  L 8,3  L 8,2  L 5,2  Z  " style="fill:rgb(83, 54, 26); fill-opacity:1.000; stroke:none;" />
 <path d="  M 6,29  L 6,28  L 5,28  L 5,29  Z  " style="fill:rgb(83, 54, 26); fill-opacity:1.000; stroke:none;" />
 <path d="  M 5,38  L 6,38  L 6,37  L 5,37  Z  " style="fill:rgb(83, 54, 26); fill-opacity:1.000; stroke:none;" />
 <path d="  M 6,47  L 6,45  L 5,45  L 5,47  Z  " style="fill:rgb(83, 54, 26); fill-opacity:1.000; stroke:none;" />
 <path d="  M 6,51  L 6,50  L 5,50  L 5,51  Z  " style="fill:rgb(83, 54, 26); fill-opacity:1.000; stroke:none;" />
 <path d="  M 6,62  L 6,60  L 5,60  L 5,62  Z  " style="fill:rgb(83, 54, 26); fill-opacity:1.000; stroke:none;" />
 <path d="  M 6,4  L 6,5  L 7,5  L 7,6  L 12,6  L 12,5  L 8,5  L 8,4  Z  " style="fill:rgb(83, 54, 26); fill-opacity:1.000; stroke:none;" />
 <path d="  M 6,9  L 7,9  L 7,11  L 8,11  L 8,8  L 7,8  L 7,7  L 6,7  Z  " style="fill:rgb(83, 54, 26); fill-opacity:1.000; stroke:none;" />
 <path d="  M 7,11  L 6,11  L 6,13  L 7,13  Z  " style="fill:rgb(83, 54, 26); fill-opacity:1.000; stroke:none;" />
 <path d="  M 6,29  L 6,32  L 7,32  L 7,30  L 8,30  L 8,29  Z  " style="fill:rgb(83, 54, 26); fill-opacity:1.000; stroke:none;" />
 <path d="  M 8,42  L 8,36  L 7,36  L 7,34  L 6,34  L 6,37  L 7,37  L 7,40  L 6,40  L 6,44  L 7,44  L 7,42  Z  " style="fill:rgb(83, 54, 26); fill-opacity:1.000; stroke:none;" />
 <path d="  M 6,63  L 6,64  L 8,64  L 8,63  Z  " style="fill:rgb(83, 54, 26); fill-opacity:1.000; stroke:none;" />
 <path d="  M 7,27  L 8,27  L 8,25  L 9,25  L 9,26  L 10,26  L 10,24  L 9,24  L 9,20  L 8,20  L 8,24  L 7,24  Z  " style="fill:rgb(83, 54, 26); fill-opacity:1.000; stroke:none;" />
 <path d="  M 10,17  L 9,17  L 9,16  L 8,16  L 8,18  L 9,18  L 9,20  L 10,20  Z  " style="fill:rgb(83, 54, 26); fill-opacity:1.000; stroke:none;" />
 <path d="  M 9,38  L 10,38  L 10,30  L 8,30  L 8,36  L 9,36  Z  " style="fill:rgb(83, 54, 26); fill-opacity:1.000; stroke:none;" />
 <path d="  M 8,46  L 8,49  L 9,49  L 9,47  L 10,47  L 10,44  L 9,44  L 9,46  Z  " style="fill:rgb(83, 54, 26); fill-opacity:1.000; stroke:none;" />
 <path d="  M 8,59  L 9,59  L 9,57  L 8,57  Z  " style="fill:rgb(83, 54, 26); fill-opacity:1.000; stroke:none;" />
 <path d="  M 11,61  L 11,60  L 8,60  L 8,61  L 10,61  L 10,63  L 11,63  L 11,62  L 13,62  L 13,61  Z  " style="fill:rgb(83, 54, 26); fill-opacity:1.000; stroke:none;" />
 <path d="  M 9,42  L 10,42  L 10,40  L 9,40  Z  " style="fill:rgb(83, 54, 26); fill-opacity:1.000; stroke:none;" />
 <path d="  M 10,51  L 10,49  L 9,49  L 9,51  Z  " style="fill:rgb(83, 54, 26); fill-opacity:1.000; stroke:none;" />
 <path d="  M 11,2  L 10,2  L 10,3  L 11,3  Z  " style="fill:rgb(83, 54, 26); fill-opacity:1.000; stroke:none;" />
 <path d="  M 15,4  L 15,3  L 11,3  L 11,4  Z  " style="fill:rgb(83, 54, 26); fill-opacity:1.000; stroke:none;" />
 <path d="  M 12,6  L 12,7  L 14,7  L 14,6  Z  " style="fill:rgb(83, 54, 26); fill-opacity:1.000; stroke:none;" />
 <path d="  M 12,38  L 13,38  L 13,37  L 12,37  Z  " style="fill:rgb(83, 54, 26); fill-opacity:1.000; stroke:none;" />
 <path d="  M 13,40  L 13,39  L 12,39  L 12,40  Z  " style="fill:rgb(83, 54, 26); fill-opacity:1.000; stroke:none;" />
 <path d="  M 26,46  L 24,46  L 24,42  L 23,42  L 23,44  L 22,44  L 22,43  L 21,43  L 21,40  L 20,40  L 20,47  L 19,47  L 19,48  L 18,48  L 18,50  L 17,50  L 17,52  L 16,52  L 16,50  L 15,50  L 15,49  L 14,49  L 14,48  L 13,48  L 13,51  L 12,51  L 12,58  L 26,58  Z  M 19,55  L 18,55  L 18,52  L 19,52  L 19,54  L 20,54  L 20,56  L 19,56  Z  M 24,46  L 24,49  L 23,49  L 23,50  L 22,50  L 22,48  L 23,48  L 23,46  Z  M 15,52  L 16,52  L 16,53  L 15,53  Z  " style="fill:rgb(83, 54, 26); fill-opacity:1.000; stroke:none;" />
 <path d="  M 12,63  L 12,64  L 16,64  L 16,63  Z  " style="fill:rgb(83, 54, 26); fill-opacity:1.000; stroke:none;" />
 <path d="  M 14,40  L 13,40  L 13,44  L 14,44  Z  " style="fill:rgb(83, 54, 26); fill-opacity:1.000; stroke:none;" />
 <path d="  M 14,46  L 14,48  L 15,48  L 15,46  Z  " style="fill:rgb(83, 54, 26); fill-opacity:1.000; stroke:none;" />
 <path d="  M 15,61  L 15,62  L 18,62  L 18,61  L 16,61  L 16,60  L 14,60  L 14,61  Z  " style="fill:rgb(83, 54, 26); fill-opacity:1.000; stroke:none;" />
 <path d="  M 15,2  L 15,3  L 18,3  L 18,4  L 20,4  L 20,3  L 22,3  L 22,2  Z  " style="fill:rgb(83, 54, 26); fill-opacity:1.000; stroke:none;" />
 <path d="  M 20,6  L 20,5  L 16,5  L 16,6  Z  " style="fill:rgb(83, 54, 26); fill-opacity:1.000; stroke:none;" />
 <path d="  M 17,36  L 18,36  L 18,33  L 17,33  Z  " style="fill:rgb(83, 54, 26); fill-opacity:1.000; stroke:none;" />
 <path d="  M 17,38  L 17,39  L 18,39  L 18,38  Z  " style="fill:rgb(83, 54, 26); fill-opacity:1.000; stroke:none;" />
 <path d="  M 18,43  L 17,43  L 17,44  L 18,44  Z  " style="fill:rgb(83, 54, 26); fill-opacity:1.000; stroke:none;" />
 <path d="  M 19,44  L 18,44  L 18,47  L 19,47  Z  " style="fill:rgb(83, 54, 26); fill-opacity:1.000; stroke:none;" />
 <path d="  M 19,62  L 18,62  L 18,63  L 19,63  Z  " style="fill:rgb(83, 54, 26); fill-opacity:1.000; stroke:none;" />
 <path d="  M 21,7  L 21,6  L 20,6  L 20,7  Z  " style="fill:rgb(83, 54, 26); fill-opacity:1.000; stroke:none;" />
 <path d="  M 21,40  L 22,40  L 22,38  L 21,38  Z  " style="fill:rgb(83, 54, 26); fill-opacity:1.000; stroke:none;" />
 <path d="  M 23,64  L 23,63  L 24,63  L 24,62  L 22,62  L 22,63  L 21,63  L 21,64  Z  " style="fill:rgb(83, 54, 26); fill-opacity:1.000; stroke:none;" />
 <path d="  M 22,3  L 22,4  L 24,4  L 24,3  Z  " style="fill:rgb(83, 54, 26); fill-opacity:1.000; stroke:none;" />
 <path d="  M 23,36  L 22,36  L 22,37  L 23,37  Z  " style="fill:rgb(83, 54, 26); fill-opacity:1.000; stroke:none;" />
 <path d="  M 26,61  L 26,60  L 23,60  L 23,61  L 24,61  L 24,62  L 25,62  L 25,63  L 28,63  L 28,62  L 27,62  L 27,61  Z  " style="fill:rgb(83, 54, 26); fill-opacity:1.000; stroke:none;" />
 <path d="  M 32,5  L 32,4  L 36,4  L 36,3  L 33,3  L 33,2  L 28,2  L 28,3  L 31,3  L 31,4  L 24,4  L 24,6  L 26,6  L 26,5  Z  " style="fill:rgb(83, 54, 26); fill-opacity:1.000; stroke:none;" />
 <path d="  M 25,63  L 24,63  L 24,64  L 25,64  Z  " style="fill:rgb(83, 54, 26); fill-opacity:1.000; stroke:none;" />
 <path d="  M 29,11  L 30,11  L 30,10  L 29,10  L 29,9  L 26,9  L 26,10  L 28,10  L 28,13  L 29,13  Z  " style="fill:rgb(83, 54, 26); fill-opacity:1.000; stroke:none;" />
 <path d="  M 30,61  L 30,60  L 27,60  L 27,61  Z  " style="fill:rgb(83, 54, 26); fill-opacity:1.000; stroke:none;" />
 <path d="  M 28,34  L 29,34  L 29,31  L 28,31  Z  " style="fill:rgb(83, 54, 26); fill-opacity:1.000; stroke:none;" />
 <path d="  M 28,37  L 29,37  L 29,36  L 30,36  L 30,34  L 29,34  L 29,35  L 28,35  Z  " style="fill:rgb(83, 54, 26); fill-opacity:1.000; stroke:none;" />
 <path d="  M 28,46  L 29,46  L 29,42  L 28,42  Z  " style="fill:rgb(83, 54, 26); fill-opacity:1.000; stroke:none;" />
 <path d="  M 29,55  L 29,56  L 28,56  L 28,57  L 29,57  L 29,58  L 30,58  L 30,55  Z  " style="fill:rgb(83, 54, 26); fill-opacity:1.000; stroke:none;" />
 <path d="  M 32,9  L 32,8  L 29,8  L 29,9  Z  " style="fill:rgb(83, 54, 26); fill-opacity:1.000; stroke:none;" />
 <path d="  M 31,47  L 30,47  L 30,46  L 29,46  L 29,48  L 30,48  L 30,50  L 31,50  Z  " style="fill:rgb(83, 54, 26); fill-opacity:1.000; stroke:none;" />
 <path d="  M 29,63  L 29,64  L 34,64  L 34,63  L 32,63  L 32,62  L 31,62  L 31,63  Z  " style="fill:rgb(83, 54, 26); fill-opacity:1.000; stroke:none;" />
 <path d="  M 30,11  L 30,12  L 31,12  L 31,11  Z  " style="fill:rgb(83, 54, 26); fill-opacity:1.000; stroke:none;" />
 <path d="  M 31,20  L 30,20  L 30,23  L 31,23  Z  " style="fill:rgb(83, 54, 26); fill-opacity:1.000; stroke:none;" />
 <path d="  M 30,58  L 30,60  L 31,60  L 31,58  Z  " style="fill:rgb(83, 54, 26); fill-opacity:1.000; stroke:none;" />
 <path d="  M 33,22  L 32,22  L 32,24  L 31,24  L 31,25  L 32,25  L 32,26  L 33,26  L 33,28  L 34,28  L 34,26  L 35,26  L 35,24  L 34,24  L 34,25  L 33,25  Z  " style="fill:rgb(83, 54, 26); fill-opacity:1.000; stroke:none;" />
 <path d="  M 31,40  L 31,43  L 32,43  L 32,41  L 33,41  L 33,38  L 34,38  L 34,35  L 33,35  L 33,37  L 32,37  L 32,40  Z  " style="fill:rgb(83, 54, 26); fill-opacity:1.000; stroke:none;" />
 <path d="  M 31,45  L 31,47  L 32,47  L 32,46  L 33,46  L 33,44  L 34,44  L 34,41  L 33,41  L 33,43  L 32,43  L 32,45  Z  " style="fill:rgb(83, 54, 26); fill-opacity:1.000; stroke:none;" />
 <path d="  M 31,52  L 32,52  L 32,50  L 31,50  Z  " style="fill:rgb(83, 54, 26); fill-opacity:1.000; stroke:none;" />
 <path d="  M 36,7  L 36,6  L 32,6  L 32,7  Z  " style="fill:rgb(83, 54, 26); fill-opacity:1.000; stroke:none;" />
 <path d="  M 35,19  L 34,19  L 34,15  L 33,15  L 33,14  L 32,14  L 32,16  L 33,16  L 33,20  L 34,20  L 34,21  L 35,21  L 35,20  L 36,20  L 36,16  L 35,16  Z  " style="fill:rgb(83, 54, 26); fill-opacity:1.000; stroke:none;" />
 <path d="  M 32,56  L 32,57  L 33,57  L 33,56  Z  " style="fill:rgb(83, 54, 26); fill-opacity:1.000; stroke:none;" />
 <path d="  M 34,59  L 34,57  L 33,57  L 33,58  L 32,58  L 32,59  Z  " style="fill:rgb(83, 54, 26); fill-opacity:1.000; stroke:none;" />
 <path d="  M 34,49  L 35,49  L 35,46  L 34,46  L 34,48  L 33,48  L 33,51  L 34,51  Z  " style="fill:rgb(83, 54, 26); fill-opacity:1.000; stroke:none;" />
 <path d="  M 33,62  L 34,62  L 34,61  L 33,61  Z  " style="fill:rgb(83, 54, 26); fill-opacity:1.000; stroke:none;" />
 <path d="  M 36,9  L 35,9  L 35,12  L 34,12  L 34,15  L 35,15  L 35,13  L 36,13  Z  " style="fill:rgb(83, 54, 26); fill-opacity:1.000; stroke:none;" />
 <path d="  M 34,38  L 34,39  L 35,39  L 35,38  Z  " style="fill:rgb(83, 54, 26); fill-opacity:1.000; stroke:none;" />
 <path d="  M 34,59  L 34,60  L 35,60  L 35,61  L 40,61  L 40,60  L 36,60  L 36,59  Z  " style="fill:rgb(83, 54, 26); fill-opacity:1.000; stroke:none;" />
 <path d="  M 35,24  L 36,24  L 36,22  L 35,22  Z  " style="fill:rgb(83, 54, 26); fill-opacity:1.000; stroke:none;" />
 <path d="  M 36,46  L 36,45  L 35,45  L 35,46  Z  " style="fill:rgb(83, 54, 26); fill-opacity:1.000; stroke:none;" />
 <path d="  M 38,6  L 38,5  L 39,5  L 39,4  L 37,4  L 37,5  L 36,5  L 36,6  Z  " style="fill:rgb(83, 54, 26); fill-opacity:1.000; stroke:none;" />
 <path d="  M 36,8  L 40,8  L 40,7  L 42,7  L 42,6  L 39,6  L 39,7  L 36,7  Z  " style="fill:rgb(83, 54, 26); fill-opacity:1.000; stroke:none;" />
 <path d="  M 42,3  L 40,3  L 40,2  L 38,2  L 38,3  L 39,3  L 39,4  L 42,4  Z  " style="fill:rgb(83, 54, 26); fill-opacity:1.000; stroke:none;" />
 <path d="  M 38,58  L 52,58  L 52,42  L 51,42  L 51,45  L 50,45  L 50,41  L 49,41  L 49,44  L 48,44  L 48,46  L 46,46  L 46,45  L 45,45  L 45,43  L 44,43  L 44,46  L 45,46  L 45,47  L 46,47  L 46,49  L 45,49  L 45,51  L 44,51  L 44,52  L 43,52  L 43,54  L 42,54  L 42,55  L 41,55  L 41,54  L 40,54  L 40,53  L 39,53  L 39,51  L 38,51  Z  M 49,48  L 48,48  L 48,46  L 49,46  Z  M 46,54  L 46,55  L 45,55  L 45,54  Z  M 44,54  L 44,52  L 45,52  L 45,54  Z  " style="fill:rgb(83, 54, 26); fill-opacity:1.000; stroke:none;" />
 <path d="  M 40,39  L 39,39  L 39,40  L 40,40  Z  " style="fill:rgb(83, 54, 26); fill-opacity:1.000; stroke:none;" />
 <path d="  M 40,46  L 39,46  L 39,48  L 40,48  Z  " style="fill:rgb(83, 54, 26); fill-opacity:1.000; stroke:none;" />
 <path d="  M 39,62  L 39,63  L 42,63  L 42,62  Z  " style="fill:rgb(83, 54, 26); fill-opacity:1.000; stroke:none;" />
 <path d="  M 40,8  L 40,9  L 43,9  L 43,8  Z  " style="fill:rgb(83, 54, 26); fill-opacity:1.000; stroke:none;" />
 <path d="  M 41,40  L 40,40  L 40,44  L 41,44  L 41,43  L 42,43  L 42,42  L 41,42  Z  " style="fill:rgb(83, 54, 26); fill-opacity:1.000; stroke:none;" />
 <path d="  M 42,52  L 41,52  L 41,50  L 42,50  L 42,49  L 41,49  L 41,48  L 40,48  L 40,53  L 41,53  L 41,54  L 42,54  Z  " style="fill:rgb(83, 54, 26); fill-opacity:1.000; stroke:none;" />
 <path d="  M 42,60  L 42,61  L 45,61  L 45,62  L 46,62  L 46,60  Z  " style="fill:rgb(83, 54, 26); fill-opacity:1.000; stroke:none;" />
 <path d="  M 44,63  L 42,63  L 42,64  L 44,64  Z  " style="fill:rgb(83, 54, 26); fill-opacity:1.000; stroke:none;" />
 <path d="  M 43,8  L 45,8  L 45,7  L 43,7  Z  " style="fill:rgb(83, 54, 26); fill-opacity:1.000; stroke:none;" />
 <path d="  M 43,41  L 43,43  L 44,43  L 44,41  Z  " style="fill:rgb(83, 54, 26); fill-opacity:1.000; stroke:none;" />
 <path d="  M 43,50  L 43,51  L 44,51  L 44,50  Z  " style="fill:rgb(83, 54, 26); fill-opacity:1.000; stroke:none;" />
 <path d="  M 44,35  L 45,35  L 45,34  L 44,34  Z  " style="fill:rgb(83, 54, 26); fill-opacity:1.000; stroke:none;" />
 <path d="  M 44,38  L 45,38  L 45,36  L 44,36  Z  " style="fill:rgb(83, 54, 26); fill-opacity:1.000; stroke:none;" />
 <path d="  M 45,47  L 44,47  L 44,49  L 45,49  Z  " style="fill:rgb(83, 54, 26); fill-opacity:1.000; stroke:none;" />
 <path d="  M 46,31  L 46,30  L 45,30  L 45,31  Z  " style="fill:rgb(83, 54, 26); fill-opacity:1.000; stroke:none;" />
 <path d="  M 49,3  L 49,2  L 46,2  L 46,3  Z  " style="fill:rgb(83, 54, 26); fill-opacity:1.000; stroke:none;" />
 <path d="  M 47,44  L 48,44  L 48,42  L 47,42  Z  " style="fill:rgb(83, 54, 26); fill-opacity:1.000; stroke:none;" />
 <path d="  M 52,3  L 52,2  L 50,2  L 50,3  L 49,3  L 49,4  L 51,4  L 51,3  Z  " style="fill:rgb(83, 54, 26); fill-opacity:1.000; stroke:none;" />
 <path d="  M 50,38  L 49,38  L 49,40  L 50,40  Z  " style="fill:rgb(83, 54, 26); fill-opacity:1.000; stroke:none;" />
 <path d="  M 50,6  L 51,6  L 51,7  L 52,7  L 52,6  L 53,6  L 53,5  L 50,5  Z  " style="fill:rgb(83, 54, 26); fill-opacity:1.000; stroke:none;" />
 <path d="  M 50,37  L 50,38  L 51,38  L 51,37  Z  " style="fill:rgb(83, 54, 26); fill-opacity:1.000; stroke:none;" />
 <path d="  M 51,41  L 51,40  L 50,40  L 50,41  Z  " style="fill:rgb(83, 54, 26); fill-opacity:1.000; stroke:none;" />
 <path d="  M 56,3  L 53,3  L 53,4  L 56,4  Z  " style="fill:rgb(83, 54, 26); fill-opacity:1.000; stroke:none;" />
 <path d="  M 55,14  L 55,13  L 54,13  L 54,15  L 55,15  L 55,18  L 56,18  L 56,23  L 57,23  L 57,22  L 58,22  L 58,19  L 57,19  L 57,16  L 56,16  L 56,14  Z  " style="fill:rgb(83, 54, 26); fill-opacity:1.000; stroke:none;" />
 <path d="  M 55,18  L 54,18  L 54,20  L 55,20  Z  " style="fill:rgb(83, 54, 26); fill-opacity:1.000; stroke:none;" />
 <path d="  M 55,26  L 56,26  L 56,24  L 54,24  L 54,27  L 55,27  Z  " style="fill:rgb(83, 54, 26); fill-opacity:1.000; stroke:none;" />
 <path d="  M 57,37  L 57,38  L 58,38  L 58,36  L 59,36  L 59,34  L 58,34  L 58,31  L 57,31  L 57,28  L 56,28  L 56,27  L 55,27  L 55,30  L 54,30  L 54,34  L 55,34  L 55,31  L 56,31  L 56,33  L 57,33  L 57,36  L 56,36  L 56,37  Z  " style="fill:rgb(83, 54, 26); fill-opacity:1.000; stroke:none;" />
 <path d="  M 55,43  L 55,41  L 56,41  L 56,39  L 55,39  L 55,36  L 54,36  L 54,43  Z  " style="fill:rgb(83, 54, 26); fill-opacity:1.000; stroke:none;" />
 <path d="  M 55,46  L 54,46  L 54,48  L 55,48  Z  " style="fill:rgb(83, 54, 26); fill-opacity:1.000; stroke:none;" />
 <path d="  M 58,10  L 55,10  L 55,11  L 56,11  L 56,12  L 57,12  L 57,11  L 58,11  Z  " style="fill:rgb(83, 54, 26); fill-opacity:1.000; stroke:none;" />
 <path d="  M 56,13  L 56,12  L 55,12  L 55,13  Z  " style="fill:rgb(83, 54, 26); fill-opacity:1.000; stroke:none;" />
 <path d="  M 55,44  L 56,44  L 56,43  L 55,43  Z  " style="fill:rgb(83, 54, 26); fill-opacity:1.000; stroke:none;" />
 <path d="  M 56,52  L 56,53  L 57,53  L 57,56  L 56,56  L 56,58  L 58,58  L 58,59  L 59,59  L 59,57  L 58,57  L 58,52  L 57,52  L 57,50  L 56,50  L 56,48  L 55,48  L 55,52  Z  " style="fill:rgb(83, 54, 26); fill-opacity:1.000; stroke:none;" />
 <path d="  M 56,58  L 55,58  L 55,60  L 56,60  Z  " style="fill:rgb(83, 54, 26); fill-opacity:1.000; stroke:none;" />
 <path d="  M 56,6  L 56,7  L 58,7  L 58,6  Z  " style="fill:rgb(83, 54, 26); fill-opacity:1.000; stroke:none;" />
 <path d="  M 58,3  L 59,3  L 59,4  L 60,4  L 60,3  L 61,3  L 61,2  L 58,2  Z  " style="fill:rgb(83, 54, 26); fill-opacity:1.000; stroke:none;" />
 <path d="  M 60,6  L 60,5  L 58,5  L 58,6  Z  " style="fill:rgb(83, 54, 26); fill-opacity:1.000; stroke:none;" />
 <path d="  M 59,11  L 58,11  L 58,12  L 59,12  Z  " style="fill:rgb(83, 54, 26); fill-opacity:1.000; stroke:none;" />
 <path d="  M 59,25  L 59,23  L 58,23  L 58,26  L 59,26  L 59,28  L 58,28  L 58,31  L 59,31  L 59,29  L 60,29  L 60,30  L 61,30  L 61,29  L 62,29  L 62,26  L 61,26  L 61,28  L 60,28  L 60,25  Z  " style="fill:rgb(83, 54, 26); fill-opacity:1.000; stroke:none;" />
 <path d="  M 58,40  L 59,40  L 59,38  L 58,38  Z  " style="fill:rgb(83, 54, 26); fill-opacity:1.000; stroke:none;" />
 <path d="  M 61,9  L 60,9  L 60,10  L 59,10  L 59,11  L 61,11  Z  " style="fill:rgb(83, 54, 26); fill-opacity:1.000; stroke:none;" />
 <path d="  M 60,12  L 59,12  L 59,14  L 60,14  Z  " style="fill:rgb(83, 54, 26); fill-opacity:1.000; stroke:none;" />
 <path d="  M 60,20  L 59,20  L 59,21  L 60,21  Z  " style="fill:rgb(83, 54, 26); fill-opacity:1.000; stroke:none;" />
 <path d="  M 60,32  L 59,32  L 59,34  L 60,34  Z  " style="fill:rgb(83, 54, 26); fill-opacity:1.000; stroke:none;" />
 <path d="  M 59,42  L 60,42  L 60,41  L 59,41  Z  " style="fill:rgb(83, 54, 26); fill-opacity:1.000; stroke:none;" />
 <path d="  M 60,50  L 59,50  L 59,51  L 60,51  Z  " style="fill:rgb(83, 54, 26); fill-opacity:1.000; stroke:none;" />
 <path d="  M 60,54  L 60,52  L 59,52  L 59,55  L 60,55  L 60,56  L 61,56  L 61,54  Z  " style="fill:rgb(83, 54, 26); fill-opacity:1.000; stroke:none;" />
 <path d="  M 61,34  L 60,34  L 60,37  L 61,37  L 61,39  L 62,39  L 62,36  L 61,36  Z  " style="fill:rgb(83, 54, 26); fill-opacity:1.000; stroke:none;" />
 <path d="  M 62,49  L 62,46  L 61,46  L 61,48  L 60,48  L 60,50  L 61,50  L 61,49  Z  " style="fill:rgb(83, 54, 26); fill-opacity:1.000; stroke:none;" />
 <path d="  M 62,3  L 61,3  L 61,4  L 62,4  Z  " style="fill:rgb(83, 54, 26); fill-opacity:1.000; stroke:none;" />
 <path d="  M 62,9  L 62,8  L 61,8  L 61,9  Z  " style="fill:rgb(83, 54, 26); fill-opacity:1.000; stroke:none;" />
 <path d="  M 62,54  L 62,53  L 61,53  L 61,54  Z  " style="fill:rgb(83, 54, 26); fill-opacity:1.000; stroke:none;" />
 <path d="  M 3,6  L 3,5  L 2,5  L 2,6  Z  " style="fill:rgb(73, 49, 22); fill-opacity:1.000; stroke:none;" />
 <path d="  M 2,9  L 3,9  L 3,7  L 2,7  Z  " style="fill:rgb(73, 49, 22); fill-opacity:1.000; stroke:none;" />
 <path d="  M 2,16  L 3,16  L 3,14  L 4,14  L 4,12  L 3,12  L 3,13  L 2,13  Z  " style="fill:rgb(73, 49, 22); fill-opacity:1.000; stroke:none;" />
 <path d="  M 2,24  L 2,27  L 3,27  L 3,24  Z  " style="fill:rgb(73, 49, 22); fill-opacity:1.000; stroke:none;" />
 <path d="  M 3,32  L 2,32  L 2,35  L 3,35  Z  " style="fill:rgb(73, 49, 22); fill-opacity:1.000; stroke:none;" />
 <path d="  M 4,40  L 4,39  L 3,39  L 3,38  L 2,38  L 2,40  Z  " style="fill:rgb(73, 49, 22); fill-opacity:1.000; stroke:none;" />
 <path d="  M 3,41  L 2,41  L 2,44  L 3,44  Z  " style="fill:rgb(73, 49, 22); fill-opacity:1.000; stroke:none;" />
 <path d="  M 3,57  L 3,55  L 5,55  L 5,50  L 4,50  L 4,54  L 3,54  L 3,52  L 2,52  L 2,60  L 3,60  L 3,58  L 4,58  L 4,57  Z  " style="fill:rgb(73, 49, 22); fill-opacity:1.000; stroke:none;" />
 <path d="  M 3,4  L 3,5  L 4,5  L 4,6  L 7,6  L 7,5  L 6,5  L 6,4  L 8,4  L 8,5  L 11,5  L 11,4  L 9,4  L 9,3  L 10,3  L 10,2  L 8,2  L 8,3  L 5,3  L 5,4  Z  " style="fill:rgb(73, 49, 22); fill-opacity:1.000; stroke:none;" />
 <path d="  M 3,7  L 4,7  L 4,6  L 3,6  Z  " style="fill:rgb(73, 49, 22); fill-opacity:1.000; stroke:none;" />
 <path d="  M 3,10  L 3,11  L 4,11  L 4,10  Z  " style="fill:rgb(73, 49, 22); fill-opacity:1.000; stroke:none;" />
 <path d="  M 5,27  L 3,27  L 3,28  L 4,28  L 4,30  L 5,30  L 5,32  L 6,32  L 6,29  L 5,29  Z  " style="fill:rgb(73, 49, 22); fill-opacity:1.000; stroke:none;" />
 <path d="  M 3,32  L 4,32  L 4,30  L 3,30  Z  " style="fill:rgb(73, 49, 22); fill-opacity:1.000; stroke:none;" />
 <path d="  M 4,36  L 4,37  L 5,37  L 5,35  L 3,35  L 3,36  Z  " style="fill:rgb(73, 49, 22); fill-opacity:1.000; stroke:none;" />
 <path d="  M 4,46  L 3,46  L 3,50  L 4,50  L 4,48  L 5,48  L 5,50  L 6,50  L 6,48  L 7,48  L 7,49  L 8,49  L 8,46  L 9,46  L 9,44  L 10,44  L 10,42  L 9,42  L 9,40  L 10,40  L 10,38  L 9,38  L 9,36  L 8,36  L 8,42  L 7,42  L 7,44  L 6,44  L 6,40  L 7,40  L 7,37  L 6,37  L 6,38  L 5,38  L 5,40  L 4,40  Z  M 5,47  L 5,45  L 6,45  L 6,47  Z  " style="fill:rgb(73, 49, 22); fill-opacity:1.000; stroke:none;" />
 <path d="  M 4,3  L 5,3  L 5,2  L 4,2  Z  " style="fill:rgb(73, 49, 22); fill-opacity:1.000; stroke:none;" />
 <path d="  M 5,11  L 7,11  L 7,9  L 6,9  L 6,7  L 5,7  L 5,8  L 4,8  L 4,9  L 5,9  Z  " style="fill:rgb(73, 49, 22); fill-opacity:1.000; stroke:none;" />
 <path d="  M 5,12  L 5,11  L 4,11  L 4,12  Z  " style="fill:rgb(73, 49, 22); fill-opacity:1.000; stroke:none;" />
 <path d="  M 5,14  L 4,14  L 4,18  L 5,18  Z  " style="fill:rgb(73, 49, 22); fill-opacity:1.000; stroke:none;" />
 <path d="  M 9,27  L 10,27  L 10,26  L 9,26  L 9,25  L 8,25  L 8,27  L 7,27  L 7,24  L 8,24  L 8,23  L 7,23  L 7,21  L 8,21  L 8,20  L 9,20  L 9,18  L 7,18  L 7,20  L 6,20  L 6,18  L 5,18  L 5,19  L 4,19  L 4,20  L 5,20  L 5,23  L 6,23  L 6,29  L 8,29  L 8,28  L 9,28  Z  " style="fill:rgb(73, 49, 22); fill-opacity:1.000; stroke:none;" />
 <path d="  M 5,24  L 5,23  L 4,23  L 4,24  Z  " style="fill:rgb(73, 49, 22); fill-opacity:1.000; stroke:none;" />
 <path d="  M 5,63  L 5,60  L 4,60  L 4,63  Z  " style="fill:rgb(73, 49, 22); fill-opacity:1.000; stroke:none;" />
 <path d="  M 6,33  L 5,33  L 5,34  L 6,34  Z  " style="fill:rgb(73, 49, 22); fill-opacity:1.000; stroke:none;" />
 <path d="  M 6,56  L 6,55  L 5,55  L 5,56  Z  " style="fill:rgb(73, 49, 22); fill-opacity:1.000; stroke:none;" />
 <path d="  M 5,60  L 6,60  L 6,59  L 5,59  Z  " style="fill:rgb(73, 49, 22); fill-opacity:1.000; stroke:none;" />
 <path d="  M 6,64  L 6,63  L 5,63  L 5,64  Z  " style="fill:rgb(73, 49, 22); fill-opacity:1.000; stroke:none;" />
 <path d="  M 7,11  L 7,13  L 6,13  L 6,17  L 7,17  L 7,14  L 8,14  L 8,11  Z  " style="fill:rgb(73, 49, 22); fill-opacity:1.000; stroke:none;" />
 <path d="  M 8,30  L 7,30  L 7,32  L 6,32  L 6,33  L 7,33  L 7,36  L 8,36  Z  " style="fill:rgb(73, 49, 22); fill-opacity:1.000; stroke:none;" />
 <path d="  M 7,50  L 6,50  L 6,54  L 7,54  L 7,56  L 8,56  L 8,52  L 7,52  Z  " style="fill:rgb(73, 49, 22); fill-opacity:1.000; stroke:none;" />
 <path d="  M 7,56  L 6,56  L 6,58  L 7,58  Z  " style="fill:rgb(73, 49, 22); fill-opacity:1.000; stroke:none;" />
 <path d="  M 10,7  L 10,6  L 7,6  L 7,7  Z  " style="fill:rgb(73, 49, 22); fill-opacity:1.000; stroke:none;" />
 <path d="  M 7,59  L 7,61  L 8,61  L 8,60  L 10,60  L 10,55  L 9,55  L 9,56  L 8,56  L 8,57  L 9,57  L 9,59  Z  " style="fill:rgb(73, 49, 22); fill-opacity:1.000; stroke:none;" />
 <path d="  M 7,63  L 8,63  L 8,62  L 7,62  Z  " style="fill:rgb(73, 49, 22); fill-opacity:1.000; stroke:none;" />
 <path d="  M 9,9  L 9,8  L 8,8  L 8,10  L 10,10  L 10,9  Z  " style="fill:rgb(73, 49, 22); fill-opacity:1.000; stroke:none;" />
 <path d="  M 10,12  L 9,12  L 9,14  L 8,14  L 8,16  L 9,16  L 9,17  L 10,17  Z  " style="fill:rgb(73, 49, 22); fill-opacity:1.000; stroke:none;" />
 <path d="  M 8,29  L 8,30  L 10,30  L 10,28  L 9,28  L 9,29  Z  " style="fill:rgb(73, 49, 22); fill-opacity:1.000; stroke:none;" />
 <path d="  M 9,51  L 9,49  L 8,49  L 8,52  L 9,52  L 9,54  L 10,54  L 10,51  Z  " style="fill:rgb(73, 49, 22); fill-opacity:1.000; stroke:none;" />
 <path d="  M 10,62  L 10,61  L 8,61  L 8,62  Z  " style="fill:rgb(73, 49, 22); fill-opacity:1.000; stroke:none;" />
 <path d="  M 12,64  L 12,63  L 15,63  L 15,61  L 13,61  L 13,62  L 11,62  L 11,63  L 8,63  L 8,64  Z  " style="fill:rgb(73, 49, 22); fill-opacity:1.000; stroke:none;" />
 <path d="  M 10,20  L 9,20  L 9,24  L 10,24  Z  " style="fill:rgb(73, 49, 22); fill-opacity:1.000; stroke:none;" />
 <path d="  M 9,49  L 10,49  L 10,47  L 9,47  Z  " style="fill:rgb(73, 49, 22); fill-opacity:1.000; stroke:none;" />
 <path d="  M 11,7  L 11,8  L 14,8  L 14,7  Z  " style="fill:rgb(73, 49, 22); fill-opacity:1.000; stroke:none;" />
 <path d="  M 12,2  L 12,3  L 15,3  L 15,2  Z  " style="fill:rgb(73, 49, 22); fill-opacity:1.000; stroke:none;" />
 <path d="  M 16,10  L 16,9  L 18,9  L 18,8  L 14,8  L 14,9  L 12,9  L 12,10  Z  " style="fill:rgb(73, 49, 22); fill-opacity:1.000; stroke:none;" />
 <path d="  M 19,31  L 18,31  L 18,29  L 19,29  Z  M 12,32  L 12,37  L 13,37  L 13,38  L 12,38  L 12,39  L 13,39  L 13,40  L 12,40  L 12,51  L 13,51  L 13,48  L 14,48  L 14,49  L 15,49  L 15,50  L 16,50  L 16,52  L 17,52  L 17,50  L 18,50  L 18,48  L 19,48  L 19,47  L 20,47  L 20,40  L 21,40  L 21,43  L 22,43  L 22,44  L 23,44  L 23,42  L 24,42  L 24,46  L 26,46  L 26,38  L 25,38  L 25,34  L 24,34  L 24,32  L 25,32  L 25,30  L 24,30  L 24,27  L 23,27  L 23,30  L 22,30  L 22,29  L 21,29  L 21,31  L 22,31  L 22,33  L 21,33  L 21,32  L 20,32  L 20,29  L 19,29  L 19,28  L 18,28  L 18,26  L 17,26  L 17,28  L 16,28  L 16,32  L 15,32  L 15,33  L 14,33  L 14,30  L 13,30  L 13,32  Z  M 18,44  L 19,44  L 19,47  L 18,47  Z  M 16,35  L 16,38  L 15,38  L 15,35  Z  M 14,44  L 13,44  L 13,40  L 14,40  Z  M 18,31  L 18,32  L 17,32  L 17,31  Z  M 15,40  L 15,39  L 16,39  L 16,40  Z  M 20,35  L 19,35  L 19,32  L 20,32  Z  M 17,33  L 18,33  L 18,35  L 19,35  L 19,36  L 17,36  Z  M 17,39  L 17,38  L 18,38  L 18,39  Z  M 22,33  L 23,33  L 23,34  L 22,34  Z  M 14,46  L 15,46  L 15,48  L 14,48  Z  M 17,42  L 16,42  L 16,40  L 17,40  Z  M 16,34  L 15,34  L 15,33  L 16,33  Z  M 23,36  L 23,37  L 22,37  L 22,36  Z  M 22,38  L 22,40  L 21,40  L 21,38  Z  M 17,44  L 17,43  L 18,43  L 18,44  Z  " style="fill:rgb(73, 49, 22); fill-opacity:1.000; stroke:none;" />
 <path d="  M 18,7  L 18,8  L 19,8  L 19,9  L 21,9  L 21,10  L 26,10  L 26,9  L 28,9  L 28,8  L 25,8  L 25,9  L 22,9  L 22,8  L 24,8  L 24,7  L 22,7  L 22,6  L 21,6  L 21,7  L 20,7  L 20,6  L 16,6  L 16,5  L 18,5  L 18,3  L 15,3  L 15,4  L 13,4  L 13,5  L 15,5  L 15,6  L 14,6  L 14,7  Z  " style="fill:rgb(73, 49, 22); fill-opacity:1.000; stroke:none;" />
 <path d="  M 16,53  L 16,52  L 15,52  L 15,53  Z  " style="fill:rgb(73, 49, 22); fill-opacity:1.000; stroke:none;" />
 <path d="  M 17,24  L 17,23  L 16,23  L 16,24  Z  " style="fill:rgb(73, 49, 22); fill-opacity:1.000; stroke:none;" />
 <path d="  M 18,60  L 16,60  L 16,61  L 18,61  Z  " style="fill:rgb(73, 49, 22); fill-opacity:1.000; stroke:none;" />
 <path d="  M 16,64  L 17,64  L 17,63  L 16,63  Z  " style="fill:rgb(73, 49, 22); fill-opacity:1.000; stroke:none;" />
 <path d="  M 17,25  L 18,25  L 18,24  L 17,24  Z  " style="fill:rgb(73, 49, 22); fill-opacity:1.000; stroke:none;" />
 <path d="  M 18,55  L 19,55  L 19,56  L 20,56  L 20,54  L 19,54  L 19,52  L 18,52  Z  " style="fill:rgb(73, 49, 22); fill-opacity:1.000; stroke:none;" />
 <path d="  M 20,62  L 20,61  L 18,61  L 18,62  L 19,62  L 19,63  L 21,63  L 21,62  Z  " style="fill:rgb(73, 49, 22); fill-opacity:1.000; stroke:none;" />
 <path d="  M 22,4  L 22,3  L 20,3  L 20,4  L 21,4  L 21,5  L 23,5  L 23,6  L 24,6  L 24,4  Z  " style="fill:rgb(73, 49, 22); fill-opacity:1.000; stroke:none;" />
 <path d="  M 23,61  L 23,60  L 21,60  L 21,61  Z  " style="fill:rgb(73, 49, 22); fill-opacity:1.000; stroke:none;" />
 <path d="  M 22,2  L 22,3  L 24,3  L 24,4  L 25,4  L 25,3  L 28,3  L 28,2  Z  " style="fill:rgb(73, 49, 22); fill-opacity:1.000; stroke:none;" />
 <path d="  M 23,48  L 22,48  L 22,50  L 23,50  L 23,49  L 24,49  L 24,46  L 23,46  Z  " style="fill:rgb(73, 49, 22); fill-opacity:1.000; stroke:none;" />
 <path d="  M 23,62  L 24,62  L 24,61  L 23,61  Z  " style="fill:rgb(73, 49, 22); fill-opacity:1.000; stroke:none;" />
 <path d="  M 23,64  L 24,64  L 24,63  L 23,63  Z  " style="fill:rgb(73, 49, 22); fill-opacity:1.000; stroke:none;" />
 <path d="  M 26,7  L 26,6  L 24,6  L 24,7  Z  " style="fill:rgb(73, 49, 22); fill-opacity:1.000; stroke:none;" />
 <path d="  M 25,26  L 24,26  L 24,27  L 25,27  Z  " style="fill:rgb(73, 49, 22); fill-opacity:1.000; stroke:none;" />
 <path d="  M 24,62  L 24,63  L 25,63  L 25,62  Z  " style="fill:rgb(73, 49, 22); fill-opacity:1.000; stroke:none;" />
 <path d="  M 25,34  L 26,34  L 26,33  L 25,33  Z  " style="fill:rgb(73, 49, 22); fill-opacity:1.000; stroke:none;" />
 <path d="  M 29,64  L 29,63  L 25,63  L 25,64  Z  " style="fill:rgb(73, 49, 22); fill-opacity:1.000; stroke:none;" />
 <path d="  M 26,5  L 26,6  L 27,6  L 27,7  L 28,7  L 28,6  L 31,6  L 31,5  Z  " style="fill:rgb(73, 49, 22); fill-opacity:1.000; stroke:none;" />
 <path d="  M 27,61  L 27,60  L 26,60  L 26,61  Z  " style="fill:rgb(73, 49, 22); fill-opacity:1.000; stroke:none;" />
 <path d="  M 27,62  L 29,62  L 29,61  L 27,61  Z  " style="fill:rgb(73, 49, 22); fill-opacity:1.000; stroke:none;" />
 <path d="  M 28,3  L 28,4  L 31,4  L 31,3  Z  " style="fill:rgb(73, 49, 22); fill-opacity:1.000; stroke:none;" />
 <path d="  M 28,7  L 28,8  L 32,8  L 32,9  L 31,9  L 31,10  L 33,10  L 33,9  L 36,9  L 36,8  L 34,8  L 34,7  L 32,7  L 32,6  L 31,6  L 31,7  Z  " style="fill:rgb(73, 49, 22); fill-opacity:1.000; stroke:none;" />
 <path d="  M 28,14  L 29,14  L 29,13  L 28,13  Z  " style="fill:rgb(73, 49, 22); fill-opacity:1.000; stroke:none;" />
 <path d="  M 34,28  L 33,28  L 33,26  L 32,26  L 32,25  L 31,25  L 31,24  L 32,24  L 32,23  L 30,23  L 30,21  L 29,21  L 29,19  L 30,19  L 30,15  L 29,15  L 29,17  L 28,17  L 28,24  L 30,24  L 30,28  L 29,28  L 29,30  L 28,30  L 28,31  L 29,31  L 29,34  L 30,34  L 30,35  L 31,35  L 31,32  L 32,32  L 32,33  L 33,33  L 33,30  L 34,30  L 34,32  L 35,32  L 35,29  L 36,29  L 36,24  L 35,24  L 35,26  L 34,26  Z  M 30,29  L 31,29  L 31,32  L 30,32  Z  " style="fill:rgb(73, 49, 22); fill-opacity:1.000; stroke:none;" />
 <path d="  M 29,35  L 29,34  L 28,34  L 28,35  Z  " style="fill:rgb(73, 49, 22); fill-opacity:1.000; stroke:none;" />
 <path d="  M 29,38  L 29,39  L 30,39  L 30,36  L 29,36  L 29,37  L 28,37  L 28,38  Z  " style="fill:rgb(73, 49, 22); fill-opacity:1.000; stroke:none;" />
 <path d="  M 29,40  L 28,40  L 28,42  L 29,42  Z  " style="fill:rgb(73, 49, 22); fill-opacity:1.000; stroke:none;" />
 <path d="  M 30,48  L 29,48  L 29,46  L 28,46  L 28,49  L 29,49  L 29,51  L 30,51  Z  " style="fill:rgb(73, 49, 22); fill-opacity:1.000; stroke:none;" />
 <path d="  M 29,51  L 28,51  L 28,54  L 29,54  Z  " style="fill:rgb(73, 49, 22); fill-opacity:1.000; stroke:none;" />
 <path d="  M 28,56  L 29,56  L 29,55  L 28,55  Z  " style="fill:rgb(73, 49, 22); fill-opacity:1.000; stroke:none;" />
 <path d="  M 30,60  L 30,58  L 29,58  L 29,57  L 28,57  L 28,60  Z  " style="fill:rgb(73, 49, 22); fill-opacity:1.000; stroke:none;" />
 <path d="  M 30,10  L 30,9  L 29,9  L 29,10  Z  " style="fill:rgb(73, 49, 22); fill-opacity:1.000; stroke:none;" />
 <path d="  M 29,11  L 29,12  L 30,12  L 30,11  Z  " style="fill:rgb(73, 49, 22); fill-opacity:1.000; stroke:none;" />
 <path d="  M 29,42  L 29,46  L 30,46  L 30,47  L 31,47  L 31,45  L 30,45  L 30,42  Z  " style="fill:rgb(73, 49, 22); fill-opacity:1.000; stroke:none;" />
 <path d="  M 29,54  L 29,55  L 30,55  L 30,54  Z  " style="fill:rgb(73, 49, 22); fill-opacity:1.000; stroke:none;" />
 <path d="  M 30,10  L 30,11  L 31,11  L 31,10  Z  " style="fill:rgb(73, 49, 22); fill-opacity:1.000; stroke:none;" />
 <path d="  M 32,17  L 33,17  L 33,16  L 32,16  L 32,14  L 33,14  L 33,15  L 34,15  L 34,12  L 35,12  L 35,10  L 33,10  L 33,11  L 32,11  L 32,12  L 30,12  L 30,15  L 31,15  L 31,18  L 32,18  Z  " style="fill:rgb(73, 49, 22); fill-opacity:1.000; stroke:none;" />
 <path d="  M 30,19  L 30,20  L 31,20  L 31,19  Z  " style="fill:rgb(73, 49, 22); fill-opacity:1.000; stroke:none;" />
 <path d="  M 34,35  L 34,33  L 33,33  L 33,34  L 32,34  L 32,36  L 31,36  L 31,39  L 30,39  L 30,42  L 31,42  L 31,40  L 32,40  L 32,37  L 33,37  L 33,35  Z  " style="fill:rgb(73, 49, 22); fill-opacity:1.000; stroke:none;" />
 <path d="  M 35,54  L 35,52  L 34,52  L 34,51  L 33,51  L 33,48  L 34,48  L 34,46  L 35,46  L 35,45  L 36,45  L 36,33  L 35,33  L 35,37  L 34,37  L 34,38  L 33,38  L 33,41  L 34,41  L 34,44  L 33,44  L 33,46  L 32,46  L 32,47  L 31,47  L 31,50  L 32,50  L 32,52  L 30,52  L 30,53  L 31,53  L 31,55  L 32,55  L 32,54  L 33,54  L 33,53  L 34,53  L 34,54  Z  M 34,39  L 34,38  L 35,38  L 35,39  Z  " style="fill:rgb(73, 49, 22); fill-opacity:1.000; stroke:none;" />
 <path d="  M 33,61  L 33,60  L 34,60  L 34,59  L 32,59  L 32,58  L 33,58  L 33,57  L 31,57  L 31,55  L 30,55  L 30,58  L 31,58  L 31,60  L 30,60  L 30,61  Z  " style="fill:rgb(73, 49, 22); fill-opacity:1.000; stroke:none;" />
 <path d="  M 31,63  L 31,62  L 30,62  L 30,63  Z  " style="fill:rgb(73, 49, 22); fill-opacity:1.000; stroke:none;" />
 <path d="  M 32,45  L 32,43  L 31,43  L 31,45  Z  " style="fill:rgb(73, 49, 22); fill-opacity:1.000; stroke:none;" />
 <path d="  M 32,5  L 34,5  L 34,4  L 32,4  Z  " style="fill:rgb(73, 49, 22); fill-opacity:1.000; stroke:none;" />
 <path d="  M 35,22  L 36,22  L 36,20  L 35,20  L 35,21  L 34,21  L 34,20  L 33,20  L 33,18  L 32,18  L 32,21  L 33,21  L 33,25  L 34,25  L 34,24  L 35,24  Z  " style="fill:rgb(73, 49, 22); fill-opacity:1.000; stroke:none;" />
 <path d="  M 33,41  L 32,41  L 32,43  L 33,43  Z  " style="fill:rgb(73, 49, 22); fill-opacity:1.000; stroke:none;" />
 <path d="  M 32,62  L 32,63  L 37,63  L 37,62  Z  " style="fill:rgb(73, 49, 22); fill-opacity:1.000; stroke:none;" />
 <path d="  M 36,3  L 36,4  L 39,4  L 39,3  L 38,3  L 38,2  L 33,2  L 33,3  Z  " style="fill:rgb(73, 49, 22); fill-opacity:1.000; stroke:none;" />
 <path d="  M 34,54  L 33,54  L 33,57  L 34,57  L 34,59  L 36,59  L 36,55  L 35,55  L 35,56  L 34,56  Z  " style="fill:rgb(73, 49, 22); fill-opacity:1.000; stroke:none;" />
 <path d="  M 34,15  L 34,19  L 35,19  L 35,16  L 36,16  L 36,13  L 35,13  L 35,15  Z  " style="fill:rgb(73, 49, 22); fill-opacity:1.000; stroke:none;" />
 <path d="  M 34,49  L 34,50  L 35,50  L 35,52  L 36,52  L 36,46  L 35,46  L 35,49  Z  " style="fill:rgb(73, 49, 22); fill-opacity:1.000; stroke:none;" />
 <path d="  M 36,5  L 35,5  L 35,6  L 36,6  Z  " style="fill:rgb(73, 49, 22); fill-opacity:1.000; stroke:none;" />
 <path d="  M 38,5  L 38,6  L 36,6  L 36,7  L 39,7  L 39,6  L 42,6  L 42,5  L 41,5  L 41,4  L 39,4  L 39,5  Z  " style="fill:rgb(73, 49, 22); fill-opacity:1.000; stroke:none;" />
 <path d="  M 37,10  L 37,9  L 36,9  L 36,10  Z  " style="fill:rgb(73, 49, 22); fill-opacity:1.000; stroke:none;" />
 <path d="  M 40,61  L 37,61  L 37,62  L 40,62  Z  " style="fill:rgb(73, 49, 22); fill-opacity:1.000; stroke:none;" />
 <path d="  M 40,9  L 40,8  L 38,8  L 38,9  Z  " style="fill:rgb(73, 49, 22); fill-opacity:1.000; stroke:none;" />
 <path d="  M 43,29  L 42,29  L 42,33  L 41,33  L 41,32  L 40,32  L 40,31  L 39,31  L 39,33  L 38,33  L 38,51  L 39,51  L 39,53  L 40,53  L 40,48  L 41,48  L 41,49  L 42,49  L 42,50  L 41,50  L 41,52  L 42,52  L 42,54  L 43,54  L 43,52  L 44,52  L 44,51  L 45,51  L 45,49  L 44,49  L 44,47  L 45,47  L 45,46  L 44,46  L 44,43  L 45,43  L 45,45  L 46,45  L 46,46  L 48,46  L 48,44  L 49,44  L 49,41  L 50,41  L 50,45  L 51,45  L 51,42  L 52,42  L 52,30  L 51,30  L 51,29  L 50,29  L 50,31  L 49,31  L 49,32  L 48,32  L 48,30  L 49,30  L 49,29  L 48,29  L 48,28  L 47,28  L 47,30  L 46,30  L 46,31  L 44,31  L 44,29  L 45,29  L 45,28  L 44,28  L 44,26  L 43,26  Z  M 47,32  L 48,32  L 48,35  L 47,35  Z  M 45,36  L 45,38  L 44,38  L 44,36  Z  M 44,34  L 43,34  L 43,31  L 44,31  Z  M 50,38  L 50,37  L 51,37  L 51,38  Z  M 39,46  L 40,46  L 40,48  L 39,48  Z  M 40,34  L 41,34  L 41,36  L 40,36  Z  M 45,34  L 45,35  L 44,35  L 44,34  Z  M 50,40  L 49,40  L 49,38  L 50,38  Z  M 47,44  L 47,42  L 48,42  L 48,44  Z  M 43,41  L 44,41  L 44,43  L 43,43  Z  M 39,40  L 39,39  L 40,39  L 40,40  Z  M 51,41  L 50,41  L 50,40  L 51,40  Z  M 40,40  L 41,40  L 41,42  L 42,42  L 42,43  L 41,43  L 41,44  L 40,44  Z  M 43,50  L 44,50  L 44,51  L 43,51  Z  M 39,34  L 39,33  L 40,33  L 40,34  Z  " style="fill:rgb(73, 49, 22); fill-opacity:1.000; stroke:none;" />
 <path d="  M 38,64  L 42,64  L 42,63  L 38,63  Z  " style="fill:rgb(73, 49, 22); fill-opacity:1.000; stroke:none;" />
 <path d="  M 48,5  L 48,4  L 44,4  L 44,3  L 46,3  L 46,2  L 40,2  L 40,3  L 42,3  L 42,4  L 43,4  L 43,5  L 46,5  L 46,6  L 48,6  L 48,7  L 49,7  L 49,6  L 50,6  L 50,5  Z  " style="fill:rgb(73, 49, 22); fill-opacity:1.000; stroke:none;" />
 <path d="  M 48,8  L 48,7  L 46,7  L 46,6  L 42,6  L 42,7  L 40,7  L 40,8  L 43,8  L 43,7  L 45,7  L 45,8  Z  " style="fill:rgb(73, 49, 22); fill-opacity:1.000; stroke:none;" />
 <path d="  M 40,9  L 40,10  L 48,10  L 48,9  L 45,9  L 45,8  L 43,8  L 43,9  Z  " style="fill:rgb(73, 49, 22); fill-opacity:1.000; stroke:none;" />
 <path d="  M 40,54  L 41,54  L 41,53  L 40,53  Z  " style="fill:rgb(73, 49, 22); fill-opacity:1.000; stroke:none;" />
 <path d="  M 42,61  L 42,60  L 40,60  L 40,61  Z  " style="fill:rgb(73, 49, 22); fill-opacity:1.000; stroke:none;" />
 <path d="  M 41,29  L 42,29  L 42,27  L 41,27  Z  " style="fill:rgb(73, 49, 22); fill-opacity:1.000; stroke:none;" />
 <path d="  M 42,55  L 42,54  L 41,54  L 41,55  Z  " style="fill:rgb(73, 49, 22); fill-opacity:1.000; stroke:none;" />
 <path d="  M 42,61  L 42,62  L 43,62  L 43,63  L 45,63  L 45,61  Z  " style="fill:rgb(73, 49, 22); fill-opacity:1.000; stroke:none;" />
 <path d="  M 45,24  L 44,24  L 44,26  L 45,26  Z  " style="fill:rgb(73, 49, 22); fill-opacity:1.000; stroke:none;" />
 <path d="  M 44,54  L 45,54  L 45,52  L 44,52  Z  " style="fill:rgb(73, 49, 22); fill-opacity:1.000; stroke:none;" />
 <path d="  M 45,29  L 45,30  L 46,30  L 46,29  Z  " style="fill:rgb(73, 49, 22); fill-opacity:1.000; stroke:none;" />
 <path d="  M 46,47  L 45,47  L 45,49  L 46,49  Z  " style="fill:rgb(73, 49, 22); fill-opacity:1.000; stroke:none;" />
 <path d="  M 46,54  L 45,54  L 45,55  L 46,55  Z  " style="fill:rgb(73, 49, 22); fill-opacity:1.000; stroke:none;" />
 <path d="  M 46,60  L 46,61  L 48,61  L 48,60  Z  " style="fill:rgb(73, 49, 22); fill-opacity:1.000; stroke:none;" />
 <path d="  M 49,26  L 48,26  L 48,28  L 49,28  Z  " style="fill:rgb(73, 49, 22); fill-opacity:1.000; stroke:none;" />
 <path d="  M 49,48  L 49,46  L 48,46  L 48,48  Z  " style="fill:rgb(73, 49, 22); fill-opacity:1.000; stroke:none;" />
 <path d="  M 49,3  L 50,3  L 50,2  L 49,2  Z  " style="fill:rgb(73, 49, 22); fill-opacity:1.000; stroke:none;" />
 <path d="  M 56,8  L 54,8  L 54,7  L 51,7  L 51,6  L 50,6  L 50,7  L 49,7  L 49,8  L 53,8  L 53,9  L 56,9  Z  " style="fill:rgb(73, 49, 22); fill-opacity:1.000; stroke:none;" />
 <path d="  M 50,9  L 50,10  L 53,10  L 53,9  Z  " style="fill:rgb(73, 49, 22); fill-opacity:1.000; stroke:none;" />
 <path d="  M 53,4  L 51,4  L 51,5  L 53,5  Z  " style="fill:rgb(73, 49, 22); fill-opacity:1.000; stroke:none;" />
 <path d="  M 52,26  L 51,26  L 51,29  L 52,29  Z  " style="fill:rgb(73, 49, 22); fill-opacity:1.000; stroke:none;" />
 <path d="  M 59,3  L 58,3  L 58,2  L 52,2  L 52,3  L 56,3  L 56,4  L 59,4  Z  " style="fill:rgb(73, 49, 22); fill-opacity:1.000; stroke:none;" />
 <path d="  M 58,5  L 56,5  L 56,4  L 54,4  L 54,5  L 53,5  L 53,6  L 55,6  L 55,7  L 56,7  L 56,6  L 58,6  Z  " style="fill:rgb(73, 49, 22); fill-opacity:1.000; stroke:none;" />
 <path d="  M 54,13  L 55,13  L 55,12  L 56,12  L 56,11  L 55,11  L 55,10  L 54,10  Z  " style="fill:rgb(73, 49, 22); fill-opacity:1.000; stroke:none;" />
 <path d="  M 55,15  L 54,15  L 54,18  L 55,18  Z  " style="fill:rgb(73, 49, 22); fill-opacity:1.000; stroke:none;" />
 <path d="  M 55,20  L 54,20  L 54,22  L 55,22  Z  " style="fill:rgb(73, 49, 22); fill-opacity:1.000; stroke:none;" />
 <path d="  M 55,23  L 54,23  L 54,24  L 56,24  L 56,22  L 55,22  Z  " style="fill:rgb(73, 49, 22); fill-opacity:1.000; stroke:none;" />
 <path d="  M 54,27  L 54,30  L 55,30  L 55,27  Z  " style="fill:rgb(73, 49, 22); fill-opacity:1.000; stroke:none;" />
 <path d="  M 55,34  L 54,34  L 54,36  L 55,36  Z  " style="fill:rgb(73, 49, 22); fill-opacity:1.000; stroke:none;" />
 <path d="  M 55,43  L 54,43  L 54,46  L 55,46  Z  " style="fill:rgb(73, 49, 22); fill-opacity:1.000; stroke:none;" />
 <path d="  M 54,52  L 55,52  L 55,48  L 54,48  Z  " style="fill:rgb(73, 49, 22); fill-opacity:1.000; stroke:none;" />
 <path d="  M 55,53  L 54,53  L 54,55  L 55,55  Z  " style="fill:rgb(73, 49, 22); fill-opacity:1.000; stroke:none;" />
 <path d="  M 54,60  L 55,60  L 55,58  L 54,58  Z  " style="fill:rgb(73, 49, 22); fill-opacity:1.000; stroke:none;" />
 <path d="  M 56,13  L 55,13  L 55,14  L 56,14  L 56,16  L 58,16  L 58,14  L 57,14  L 57,12  L 56,12  Z  " style="fill:rgb(73, 49, 22); fill-opacity:1.000; stroke:none;" />
 <path d="  M 55,18  L 55,20  L 56,20  L 56,18  Z  " style="fill:rgb(73, 49, 22); fill-opacity:1.000; stroke:none;" />
 <path d="  M 55,26  L 55,27  L 56,27  L 56,28  L 57,28  L 57,25  L 56,25  L 56,26  Z  " style="fill:rgb(73, 49, 22); fill-opacity:1.000; stroke:none;" />
 <path d="  M 55,34  L 56,34  L 56,36  L 57,36  L 57,33  L 56,33  L 56,31  L 55,31  Z  " style="fill:rgb(73, 49, 22); fill-opacity:1.000; stroke:none;" />
 <path d="  M 55,37  L 55,39  L 56,39  L 56,38  L 57,38  L 57,37  Z  " style="fill:rgb(73, 49, 22); fill-opacity:1.000; stroke:none;" />
 <path d="  M 56,48  L 56,47  L 57,47  L 57,45  L 58,45  L 58,43  L 57,43  L 57,41  L 55,41  L 55,43  L 56,43  L 56,46  L 55,46  L 55,48  Z  " style="fill:rgb(73, 49, 22); fill-opacity:1.000; stroke:none;" />
 <path d="  M 55,52  L 55,53  L 56,53  L 56,52  Z  " style="fill:rgb(73, 49, 22); fill-opacity:1.000; stroke:none;" />
 <path d="  M 56,58  L 56,56  L 55,56  L 55,58  Z  " style="fill:rgb(73, 49, 22); fill-opacity:1.000; stroke:none;" />
 <path d="  M 59,8  L 59,7  L 56,7  L 56,8  Z  " style="fill:rgb(73, 49, 22); fill-opacity:1.000; stroke:none;" />
 <path d="  M 56,50  L 57,50  L 57,48  L 56,48  Z  " style="fill:rgb(73, 49, 22); fill-opacity:1.000; stroke:none;" />
 <path d="  M 56,56  L 57,56  L 57,53  L 56,53  Z  " style="fill:rgb(73, 49, 22); fill-opacity:1.000; stroke:none;" />
 <path d="  M 58,59  L 58,58  L 56,58  L 56,59  Z  " style="fill:rgb(73, 49, 22); fill-opacity:1.000; stroke:none;" />
 <path d="  M 57,10  L 58,10  L 58,11  L 59,11  L 59,10  L 60,10  L 60,9  L 57,9  Z  " style="fill:rgb(73, 49, 22); fill-opacity:1.000; stroke:none;" />
 <path d="  M 57,11  L 57,12  L 58,12  L 58,11  Z  " style="fill:rgb(73, 49, 22); fill-opacity:1.000; stroke:none;" />
 <path d="  M 62,18  L 61,18  L 61,16  L 60,16  L 60,14  L 59,14  L 59,16  L 58,16  L 58,17  L 57,17  L 57,19  L 58,19  L 58,21  L 59,21  L 59,17  L 60,17  L 60,19  L 61,19  L 61,22  L 62,22  Z  " style="fill:rgb(73, 49, 22); fill-opacity:1.000; stroke:none;" />
 <path d="  M 57,22  L 57,24  L 58,24  L 58,22  Z  " style="fill:rgb(73, 49, 22); fill-opacity:1.000; stroke:none;" />
 <path d="  M 58,28  L 57,28  L 57,31  L 58,31  Z  " style="fill:rgb(73, 49, 22); fill-opacity:1.000; stroke:none;" />
 <path d="  M 57,38  L 57,39  L 58,39  L 58,38  Z  " style="fill:rgb(73, 49, 22); fill-opacity:1.000; stroke:none;" />
 <path d="  M 59,55  L 59,52  L 60,52  L 60,54  L 61,54  L 61,53  L 62,53  L 62,49  L 61,49  L 61,50  L 60,50  L 60,51  L 58,51  L 58,50  L 57,50  L 57,52  L 58,52  L 58,55  Z  " style="fill:rgb(73, 49, 22); fill-opacity:1.000; stroke:none;" />
 <path d="  M 59,13  L 59,12  L 58,12  L 58,13  Z  " style="fill:rgb(73, 49, 22); fill-opacity:1.000; stroke:none;" />
 <path d="  M 58,28  L 59,28  L 59,26  L 58,26  Z  " style="fill:rgb(73, 49, 22); fill-opacity:1.000; stroke:none;" />
 <path d="  M 58,34  L 59,34  L 59,32  L 60,32  L 60,29  L 59,29  L 59,31  L 58,31  Z  " style="fill:rgb(73, 49, 22); fill-opacity:1.000; stroke:none;" />
 <path d="  M 59,36  L 58,36  L 58,38  L 59,38  L 59,40  L 58,40  L 58,43  L 59,43  L 59,45  L 60,45  L 60,43  L 61,43  L 61,46  L 62,46  L 62,42  L 61,42  L 61,40  L 60,40  L 60,38  L 61,38  L 61,37  L 60,37  L 60,34  L 59,34  Z  M 60,41  L 60,42  L 59,42  L 59,41  Z  " style="fill:rgb(73, 49, 22); fill-opacity:1.000; stroke:none;" />
 <path d="  M 59,45  L 58,45  L 58,46  L 59,46  Z  " style="fill:rgb(73, 49, 22); fill-opacity:1.000; stroke:none;" />
 <path d="  M 58,48  L 58,49  L 59,49  L 59,50  L 60,50  L 60,48  Z  " style="fill:rgb(73, 49, 22); fill-opacity:1.000; stroke:none;" />
 <path d="  M 59,61  L 60,61  L 60,59  L 58,59  L 58,60  L 59,60  Z  " style="fill:rgb(73, 49, 22); fill-opacity:1.000; stroke:none;" />
 <path d="  M 62,5  L 62,4  L 61,4  L 61,3  L 60,3  L 60,4  L 59,4  L 59,5  Z  " style="fill:rgb(73, 49, 22); fill-opacity:1.000; stroke:none;" />
 <path d="  M 59,6  L 59,7  L 61,7  L 61,8  L 62,8  L 62,6  Z  " style="fill:rgb(73, 49, 22); fill-opacity:1.000; stroke:none;" />
 <path d="  M 62,9  L 61,9  L 61,11  L 59,11  L 59,12  L 60,12  L 60,14  L 61,14  L 61,15  L 62,15  Z  " style="fill:rgb(73, 49, 22); fill-opacity:1.000; stroke:none;" />
 <path d="  M 61,22  L 60,22  L 60,21  L 59,21  L 59,23  L 60,23  L 60,24  L 61,24  Z  " style="fill:rgb(73, 49, 22); fill-opacity:1.000; stroke:none;" />
 <path d="  M 60,56  L 60,55  L 59,55  L 59,58  L 60,58  L 60,57  L 61,57  L 61,56  Z  " style="fill:rgb(73, 49, 22); fill-opacity:1.000; stroke:none;" />
 <path d="  M 61,8  L 60,8  L 60,9  L 61,9  Z  " style="fill:rgb(73, 49, 22); fill-opacity:1.000; stroke:none;" />
 <path d="  M 60,27  L 60,28  L 61,28  L 61,27  Z  " style="fill:rgb(73, 49, 22); fill-opacity:1.000; stroke:none;" />
 <path d="  M 60,34  L 61,34  L 61,33  L 60,33  Z  " style="fill:rgb(73, 49, 22); fill-opacity:1.000; stroke:none;" />
 <path d="  M 60,48  L 61,48  L 61,46  L 60,46  Z  " style="fill:rgb(73, 49, 22); fill-opacity:1.000; stroke:none;" />
 <path d="  M 61,63  L 61,61  L 60,61  L 60,63  Z  " style="fill:rgb(73, 49, 22); fill-opacity:1.000; stroke:none;" />
 <path d="  M 61,2  L 61,3  L 62,3  L 62,2  Z  " style="fill:rgb(73, 49, 22); fill-opacity:1.000; stroke:none;" />
 <path d="  M 62,26  L 62,25  L 61,25  L 61,26  Z  " style="fill:rgb(73, 49, 22); fill-opacity:1.000; stroke:none;" />
 <path d="  M 61,33  L 62,33  L 62,29  L 61,29  Z  " style="fill:rgb(73, 49, 22); fill-opacity:1.000; stroke:none;" />
 <path d="  M 62,36  L 62,35  L 61,35  L 61,36  Z  " style="fill:rgb(73, 49, 22); fill-opacity:1.000; stroke:none;" />
 <path d="  M 61,39  L 61,40  L 62,40  L 62,39  Z  " style="fill:rgb(73, 49, 22); fill-opacity:1.000; stroke:none;" />
 <path d="  M 61,56  L 62,56  L 62,54  L 61,54  Z  " style="fill:rgb(73, 49, 22); fill-opacity:1.000; stroke:none;" />
 <path d="  M 61,59  L 61,60  L 62,60  L 62,59  Z  " style="fill:rgb(73, 49, 22); fill-opacity:1.000; stroke:none;" />
 <path d="  M 62,64  L 62,63  L 61,63  L 61,64  Z  " style="fill:rgb(73, 49, 22); fill-opacity:1.000; stroke:none;" />
 <path d="  M 63,2  L 63,1  L 62,1  L 62,2  Z  " style="fill:rgb(73, 49, 22); fill-opacity:1.000; stroke:none;" />
 <path d="  M 64,0  L 63,0  L 63,1  L 64,1  Z  " style="fill:rgb(73, 49, 22); fill-opacity:1.000; stroke:none;" />
 <path d="  M 3,35  L 2,35  L 2,38  L 3,38  L 3,39  L 4,39  L 4,38  L 5,38  L 5,37  L 4,37  L 4,36  L 3,36  Z  " style="fill:rgb(65, 43, 19); fill-opacity:1.000; stroke:none;" />
 <path d="  M 3,41  L 3,40  L 2,40  L 2,41  Z  " style="fill:rgb(65, 43, 19); fill-opacity:1.000; stroke:none;" />
 <path d="  M 3,6  L 4,6  L 4,5  L 3,5  Z  " style="fill:rgb(65, 43, 19); fill-opacity:1.000; stroke:none;" />
 <path d="  M 3,32  L 3,35  L 4,35  L 4,32  Z  " style="fill:rgb(65, 43, 19); fill-opacity:1.000; stroke:none;" />
 <path d="  M 4,58  L 3,58  L 3,60  L 4,60  Z  " style="fill:rgb(65, 43, 19); fill-opacity:1.000; stroke:none;" />
 <path d="  M 7,7  L 7,6  L 4,6  L 4,7  Z  " style="fill:rgb(65, 43, 19); fill-opacity:1.000; stroke:none;" />
 <path d="  M 4,9  L 4,11  L 5,11  L 5,9  Z  " style="fill:rgb(65, 43, 19); fill-opacity:1.000; stroke:none;" />
 <path d="  M 5,19  L 5,18  L 4,18  L 4,19  Z  " style="fill:rgb(65, 43, 19); fill-opacity:1.000; stroke:none;" />
 <path d="  M 4,25  L 4,27  L 5,27  L 5,28  L 6,28  L 6,26  L 5,26  L 5,25  Z  " style="fill:rgb(65, 43, 19); fill-opacity:1.000; stroke:none;" />
 <path d="  M 5,58  L 5,55  L 4,55  L 4,58  Z  " style="fill:rgb(65, 43, 19); fill-opacity:1.000; stroke:none;" />
 <path d="  M 5,64  L 5,63  L 4,63  L 4,64  Z  " style="fill:rgb(65, 43, 19); fill-opacity:1.000; stroke:none;" />
 <path d="  M 5,13  L 6,13  L 6,11  L 5,11  Z  " style="fill:rgb(65, 43, 19); fill-opacity:1.000; stroke:none;" />
 <path d="  M 7,17  L 6,17  L 6,16  L 5,16  L 5,18  L 6,18  L 6,20  L 7,20  L 7,18  L 8,18  L 8,14  L 7,14  Z  " style="fill:rgb(65, 43, 19); fill-opacity:1.000; stroke:none;" />
 <path d="  M 5,37  L 6,37  L 6,34  L 5,34  Z  " style="fill:rgb(65, 43, 19); fill-opacity:1.000; stroke:none;" />
 <path d="  M 5,55  L 6,55  L 6,56  L 7,56  L 7,54  L 6,54  L 6,51  L 5,51  Z  " style="fill:rgb(65, 43, 19); fill-opacity:1.000; stroke:none;" />
 <path d="  M 7,59  L 8,59  L 8,56  L 7,56  L 7,58  L 6,58  L 6,62  L 5,62  L 5,63  L 7,63  L 7,62  L 8,62  L 8,61  L 7,61  Z  " style="fill:rgb(65, 43, 19); fill-opacity:1.000; stroke:none;" />
 <path d="  M 7,34  L 7,33  L 6,33  L 6,34  Z  " style="fill:rgb(65, 43, 19); fill-opacity:1.000; stroke:none;" />
 <path d="  M 7,48  L 6,48  L 6,50  L 7,50  L 7,52  L 8,52  L 8,49  L 7,49  Z  " style="fill:rgb(65, 43, 19); fill-opacity:1.000; stroke:none;" />
 <path d="  M 12,9  L 14,9  L 14,8  L 11,8  L 11,7  L 12,7  L 12,6  L 10,6  L 10,7  L 7,7  L 7,8  L 9,8  L 9,9  L 10,9  L 10,10  L 12,10  Z  " style="fill:rgb(65, 43, 19); fill-opacity:1.000; stroke:none;" />
 <path d="  M 7,23  L 8,23  L 8,21  L 7,21  Z  " style="fill:rgb(65, 43, 19); fill-opacity:1.000; stroke:none;" />
 <path d="  M 8,10  L 8,14  L 9,14  L 9,12  L 10,12  L 10,10  Z  " style="fill:rgb(65, 43, 19); fill-opacity:1.000; stroke:none;" />
 <path d="  M 9,29  L 9,28  L 8,28  L 8,29  Z  " style="fill:rgb(65, 43, 19); fill-opacity:1.000; stroke:none;" />
 <path d="  M 8,56  L 9,56  L 9,55  L 10,55  L 10,54  L 9,54  L 9,52  L 8,52  Z  " style="fill:rgb(65, 43, 19); fill-opacity:1.000; stroke:none;" />
 <path d="  M 8,62  L 8,63  L 10,63  L 10,62  Z  " style="fill:rgb(65, 43, 19); fill-opacity:1.000; stroke:none;" />
 <path d="  M 11,3  L 9,3  L 9,4  L 11,4  Z  " style="fill:rgb(65, 43, 19); fill-opacity:1.000; stroke:none;" />
 <path d="  M 10,27  L 9,27  L 9,28  L 10,28  Z  " style="fill:rgb(65, 43, 19); fill-opacity:1.000; stroke:none;" />
 <path d="  M 11,2  L 11,3  L 12,3  L 12,2  Z  " style="fill:rgb(65, 43, 19); fill-opacity:1.000; stroke:none;" />
 <path d="  M 13,4  L 11,4  L 11,5  L 12,5  L 12,6  L 15,6  L 15,5  L 13,5  Z  " style="fill:rgb(65, 43, 19); fill-opacity:1.000; stroke:none;" />
 <path d="  M 14,60  L 11,60  L 11,61  L 14,61  Z  " style="fill:rgb(65, 43, 19); fill-opacity:1.000; stroke:none;" />
 <path d="  M 15,28  L 15,27  L 14,27  L 14,24  L 13,24  L 13,26  L 12,26  L 12,32  L 13,32  L 13,30  L 14,30  L 14,28  Z  " style="fill:rgb(65, 43, 19); fill-opacity:1.000; stroke:none;" />
 <path d="  M 14,21  L 14,20  L 13,20  L 13,21  Z  " style="fill:rgb(65, 43, 19); fill-opacity:1.000; stroke:none;" />
 <path d="  M 14,8  L 18,8  L 18,7  L 14,7  Z  " style="fill:rgb(65, 43, 19); fill-opacity:1.000; stroke:none;" />
 <path d="  M 23,27  L 24,27  L 24,30  L 25,30  L 25,32  L 24,32  L 24,34  L 25,34  L 25,33  L 26,33  L 26,19  L 25,19  L 25,23  L 24,23  L 24,20  L 23,20  L 23,18  L 22,18  L 22,22  L 21,22  L 21,18  L 20,18  L 20,21  L 19,21  L 19,19  L 18,19  L 18,16  L 17,16  L 17,18  L 16,18  L 16,17  L 15,17  L 15,19  L 16,19  L 16,22  L 15,22  L 15,21  L 14,21  L 14,24  L 15,24  L 15,26  L 16,26  L 16,28  L 17,28  L 17,26  L 18,26  L 18,28  L 19,28  L 19,29  L 20,29  L 20,32  L 21,32  L 21,33  L 22,33  L 22,31  L 21,31  L 21,29  L 22,29  L 22,30  L 23,30  Z  M 25,26  L 25,27  L 24,27  L 24,26  Z  M 21,24  L 22,24  L 22,26  L 21,26  L 21,25  L 20,25  L 20,23  L 21,23  Z  M 17,24  L 18,24  L 18,25  L 17,25  Z  M 16,24  L 16,23  L 17,23  L 17,24  Z  M 20,26  L 21,26  L 21,28  L 20,28  Z  M 22,22  L 23,22  L 23,23  L 22,23  Z  " style="fill:rgb(65, 43, 19); fill-opacity:1.000; stroke:none;" />
 <path d="  M 15,30  L 14,30  L 14,33  L 15,33  L 15,32  L 16,32  L 16,28  L 15,28  Z  " style="fill:rgb(65, 43, 19); fill-opacity:1.000; stroke:none;" />
 <path d="  M 15,15  L 15,16  L 16,16  L 16,15  Z  " style="fill:rgb(65, 43, 19); fill-opacity:1.000; stroke:none;" />
 <path d="  M 16,33  L 15,33  L 15,34  L 16,34  Z  " style="fill:rgb(65, 43, 19); fill-opacity:1.000; stroke:none;" />
 <path d="  M 15,35  L 15,38  L 16,38  L 16,35  Z  " style="fill:rgb(65, 43, 19); fill-opacity:1.000; stroke:none;" />
 <path d="  M 16,39  L 15,39  L 15,40  L 16,40  Z  " style="fill:rgb(65, 43, 19); fill-opacity:1.000; stroke:none;" />
 <path d="  M 21,64  L 21,63  L 18,63  L 18,62  L 15,62  L 15,63  L 17,63  L 17,64  Z  " style="fill:rgb(65, 43, 19); fill-opacity:1.000; stroke:none;" />
 <path d="  M 19,8  L 18,8  L 18,9  L 16,9  L 16,10  L 21,10  L 21,9  L 19,9  Z  " style="fill:rgb(65, 43, 19); fill-opacity:1.000; stroke:none;" />
 <path d="  M 16,42  L 17,42  L 17,40  L 16,40  Z  " style="fill:rgb(65, 43, 19); fill-opacity:1.000; stroke:none;" />
 <path d="  M 18,32  L 18,31  L 17,31  L 17,32  Z  " style="fill:rgb(65, 43, 19); fill-opacity:1.000; stroke:none;" />
 <path d="  M 24,7  L 24,6  L 23,6  L 23,5  L 21,5  L 21,4  L 18,4  L 18,5  L 20,5  L 20,6  L 22,6  L 22,7  Z  " style="fill:rgb(65, 43, 19); fill-opacity:1.000; stroke:none;" />
 <path d="  M 19,29  L 18,29  L 18,31  L 19,31  Z  " style="fill:rgb(65, 43, 19); fill-opacity:1.000; stroke:none;" />
 <path d="  M 19,35  L 18,35  L 18,36  L 19,36  Z  " style="fill:rgb(65, 43, 19); fill-opacity:1.000; stroke:none;" />
 <path d="  M 18,60  L 18,61  L 20,61  L 20,62  L 21,62  L 21,63  L 22,63  L 22,62  L 23,62  L 23,61  L 21,61  L 21,60  Z  " style="fill:rgb(65, 43, 19); fill-opacity:1.000; stroke:none;" />
 <path d="  M 19,17  L 20,17  L 20,16  L 19,16  Z  " style="fill:rgb(65, 43, 19); fill-opacity:1.000; stroke:none;" />
 <path d="  M 19,35  L 20,35  L 20,32  L 19,32  Z  " style="fill:rgb(65, 43, 19); fill-opacity:1.000; stroke:none;" />
 <path d="  M 20,16  L 21,16  L 21,14  L 20,14  Z  " style="fill:rgb(65, 43, 19); fill-opacity:1.000; stroke:none;" />
 <path d="  M 25,9  L 25,8  L 28,8  L 28,7  L 27,7  L 27,6  L 26,6  L 26,7  L 24,7  L 24,8  L 22,8  L 22,9  Z  " style="fill:rgb(65, 43, 19); fill-opacity:1.000; stroke:none;" />
 <path d="  M 22,33  L 22,34  L 23,34  L 23,33  Z  " style="fill:rgb(65, 43, 19); fill-opacity:1.000; stroke:none;" />
 <path d="  M 23,18  L 24,18  L 24,16  L 23,16  Z  " style="fill:rgb(65, 43, 19); fill-opacity:1.000; stroke:none;" />
 <path d="  M 25,16  L 25,15  L 24,15  L 24,16  Z  " style="fill:rgb(65, 43, 19); fill-opacity:1.000; stroke:none;" />
 <path d="  M 28,4  L 28,3  L 25,3  L 25,4  Z  " style="fill:rgb(65, 43, 19); fill-opacity:1.000; stroke:none;" />
 <path d="  M 25,34  L 25,38  L 26,38  L 26,34  Z  " style="fill:rgb(65, 43, 19); fill-opacity:1.000; stroke:none;" />
 <path d="  M 31,7  L 31,6  L 28,6  L 28,7  Z  " style="fill:rgb(65, 43, 19); fill-opacity:1.000; stroke:none;" />
 <path d="  M 28,9  L 29,9  L 29,8  L 28,8  Z  " style="fill:rgb(65, 43, 19); fill-opacity:1.000; stroke:none;" />
 <path d="  M 28,14  L 28,17  L 29,17  L 29,15  L 30,15  L 30,12  L 29,12  L 29,14  Z  " style="fill:rgb(65, 43, 19); fill-opacity:1.000; stroke:none;" />
 <path d="  M 28,30  L 29,30  L 29,28  L 30,28  L 30,24  L 28,24  Z  " style="fill:rgb(65, 43, 19); fill-opacity:1.000; stroke:none;" />
 <path d="  M 30,39  L 29,39  L 29,38  L 28,38  L 28,40  L 29,40  L 29,42  L 30,42  Z  " style="fill:rgb(65, 43, 19); fill-opacity:1.000; stroke:none;" />
 <path d="  M 29,51  L 29,49  L 28,49  L 28,51  Z  " style="fill:rgb(65, 43, 19); fill-opacity:1.000; stroke:none;" />
 <path d="  M 29,55  L 29,54  L 28,54  L 28,55  Z  " style="fill:rgb(65, 43, 19); fill-opacity:1.000; stroke:none;" />
 <path d="  M 29,62  L 28,62  L 28,63  L 30,63  L 30,62  L 33,62  L 33,61  L 29,61  Z  " style="fill:rgb(65, 43, 19); fill-opacity:1.000; stroke:none;" />
 <path d="  M 29,19  L 29,21  L 30,21  L 30,19  Z  " style="fill:rgb(65, 43, 19); fill-opacity:1.000; stroke:none;" />
 <path d="  M 30,55  L 31,55  L 31,53  L 30,53  L 30,52  L 31,52  L 31,50  L 30,50  L 30,51  L 29,51  L 29,54  L 30,54  Z  " style="fill:rgb(65, 43, 19); fill-opacity:1.000; stroke:none;" />
 <path d="  M 31,9  L 30,9  L 30,10  L 31,10  Z  " style="fill:rgb(65, 43, 19); fill-opacity:1.000; stroke:none;" />
 <path d="  M 31,23  L 32,23  L 32,22  L 33,22  L 33,21  L 32,21  L 32,18  L 31,18  L 31,15  L 30,15  L 30,19  L 31,19  Z  " style="fill:rgb(65, 43, 19); fill-opacity:1.000; stroke:none;" />
 <path d="  M 31,29  L 30,29  L 30,32  L 31,32  Z  " style="fill:rgb(65, 43, 19); fill-opacity:1.000; stroke:none;" />
 <path d="  M 30,39  L 31,39  L 31,36  L 32,36  L 32,34  L 33,34  L 33,33  L 32,33  L 32,32  L 31,32  L 31,35  L 30,35  Z  " style="fill:rgb(65, 43, 19); fill-opacity:1.000; stroke:none;" />
 <path d="  M 30,45  L 31,45  L 31,42  L 30,42  Z  " style="fill:rgb(65, 43, 19); fill-opacity:1.000; stroke:none;" />
 <path d="  M 35,6  L 35,5  L 37,5  L 37,4  L 34,4  L 34,5  L 31,5  L 31,6  Z  " style="fill:rgb(65, 43, 19); fill-opacity:1.000; stroke:none;" />
 <path d="  M 33,10  L 31,10  L 31,12  L 32,12  L 32,11  L 33,11  Z  " style="fill:rgb(65, 43, 19); fill-opacity:1.000; stroke:none;" />
 <path d="  M 33,56  L 33,54  L 32,54  L 32,55  L 31,55  L 31,57  L 32,57  L 32,56  Z  " style="fill:rgb(65, 43, 19); fill-opacity:1.000; stroke:none;" />
 <path d="  M 32,17  L 32,18  L 33,18  L 33,17  Z  " style="fill:rgb(65, 43, 19); fill-opacity:1.000; stroke:none;" />
 <path d="  M 35,9  L 33,9  L 33,10  L 35,10  Z  " style="fill:rgb(65, 43, 19); fill-opacity:1.000; stroke:none;" />
 <path d="  M 35,33  L 36,33  L 36,29  L 35,29  L 35,32  L 34,32  L 34,30  L 33,30  L 33,33  L 34,33  L 34,37  L 35,37  Z  " style="fill:rgb(65, 43, 19); fill-opacity:1.000; stroke:none;" />
 <path d="  M 33,54  L 34,54  L 34,53  L 33,53  Z  " style="fill:rgb(65, 43, 19); fill-opacity:1.000; stroke:none;" />
 <path d="  M 33,61  L 34,61  L 34,62  L 37,62  L 37,61  L 35,61  L 35,60  L 33,60  Z  " style="fill:rgb(65, 43, 19); fill-opacity:1.000; stroke:none;" />
 <path d="  M 36,8  L 36,7  L 34,7  L 34,8  Z  " style="fill:rgb(65, 43, 19); fill-opacity:1.000; stroke:none;" />
 <path d="  M 35,50  L 34,50  L 34,52  L 35,52  Z  " style="fill:rgb(65, 43, 19); fill-opacity:1.000; stroke:none;" />
 <path d="  M 36,52  L 35,52  L 35,54  L 34,54  L 34,56  L 35,56  L 35,55  L 36,55  Z  " style="fill:rgb(65, 43, 19); fill-opacity:1.000; stroke:none;" />
 <path d="  M 34,63  L 34,64  L 38,64  L 38,63  L 39,63  L 39,62  L 37,62  L 37,63  Z  " style="fill:rgb(65, 43, 19); fill-opacity:1.000; stroke:none;" />
 <path d="  M 36,8  L 36,9  L 37,9  L 37,10  L 40,10  L 40,9  L 38,9  L 38,8  Z  " style="fill:rgb(65, 43, 19); fill-opacity:1.000; stroke:none;" />
 <path d="  M 38,24  L 38,33  L 39,33  L 39,31  L 40,31  L 40,32  L 41,32  L 41,33  L 42,33  L 42,29  L 43,29  L 43,26  L 42,26  L 42,24  L 41,24  L 41,23  L 40,23  L 40,26  L 39,26  L 39,24  Z  M 39,30  L 39,28  L 40,28  L 40,30  Z  M 41,27  L 42,27  L 42,29  L 41,29  Z  M 41,30  L 41,31  L 40,31  L 40,30  Z  " style="fill:rgb(65, 43, 19); fill-opacity:1.000; stroke:none;" />
 <path d="  M 40,34  L 40,33  L 39,33  L 39,34  Z  " style="fill:rgb(65, 43, 19); fill-opacity:1.000; stroke:none;" />
 <path d="  M 41,36  L 41,34  L 40,34  L 40,36  Z  " style="fill:rgb(65, 43, 19); fill-opacity:1.000; stroke:none;" />
 <path d="  M 40,62  L 42,62  L 42,61  L 40,61  Z  " style="fill:rgb(65, 43, 19); fill-opacity:1.000; stroke:none;" />
 <path d="  M 42,6  L 46,6  L 46,5  L 43,5  L 43,4  L 41,4  L 41,5  L 42,5  Z  " style="fill:rgb(65, 43, 19); fill-opacity:1.000; stroke:none;" />
 <path d="  M 44,26  L 44,24  L 45,24  L 45,26  Z  M 46,24  L 47,24  L 47,22  L 48,22  L 48,25  L 47,25  L 47,26  L 46,26  Z  M 49,31  L 50,31  L 50,29  L 51,29  L 51,26  L 52,26  L 52,21  L 51,21  L 51,20  L 50,20  L 50,19  L 49,19  L 49,20  L 48,20  L 48,18  L 47,18  L 47,19  L 46,19  L 46,21  L 45,21  L 45,16  L 44,16  L 44,17  L 43,17  L 43,16  L 42,16  L 42,18  L 43,18  L 43,19  L 44,19  L 44,22  L 43,22  L 43,21  L 42,21  L 42,20  L 41,20  L 41,22  L 42,22  L 42,24  L 43,24  L 43,26  L 44,26  L 44,28  L 45,28  L 45,29  L 46,29  L 46,30  L 47,30  L 47,28  L 48,28  L 48,29  L 49,29  L 49,30  L 48,30  L 48,32  L 49,32  Z  M 51,23  L 50,23  L 50,21  L 51,21  Z  M 49,26  L 49,28  L 48,28  L 48,26  Z  " style="fill:rgb(65, 43, 19); fill-opacity:1.000; stroke:none;" />
 <path d="  M 42,63  L 43,63  L 43,62  L 42,62  Z  " style="fill:rgb(65, 43, 19); fill-opacity:1.000; stroke:none;" />
 <path d="  M 44,34  L 44,31  L 43,31  L 43,34  Z  " style="fill:rgb(65, 43, 19); fill-opacity:1.000; stroke:none;" />
 <path d="  M 48,4  L 48,5  L 51,5  L 51,4  L 49,4  L 49,3  L 44,3  L 44,4  Z  " style="fill:rgb(65, 43, 19); fill-opacity:1.000; stroke:none;" />
 <path d="  M 44,31  L 45,31  L 45,29  L 44,29  Z  " style="fill:rgb(65, 43, 19); fill-opacity:1.000; stroke:none;" />
 <path d="  M 45,8  L 45,9  L 48,9  L 48,10  L 50,10  L 50,9  L 53,9  L 53,8  L 49,8  L 49,7  L 48,7  L 48,8  Z  " style="fill:rgb(65, 43, 19); fill-opacity:1.000; stroke:none;" />
 <path d="  M 46,15  L 45,15  L 45,16  L 46,16  Z  " style="fill:rgb(65, 43, 19); fill-opacity:1.000; stroke:none;" />
 <path d="  M 46,6  L 46,7  L 48,7  L 48,6  Z  " style="fill:rgb(65, 43, 19); fill-opacity:1.000; stroke:none;" />
 <path d="  M 48,32  L 47,32  L 47,35  L 48,35  Z  " style="fill:rgb(65, 43, 19); fill-opacity:1.000; stroke:none;" />
 <path d="  M 50,7  L 50,6  L 49,6  L 49,7  Z  " style="fill:rgb(65, 43, 19); fill-opacity:1.000; stroke:none;" />
 <path d="  M 50,17  L 50,19  L 51,19  L 51,17  Z  " style="fill:rgb(65, 43, 19); fill-opacity:1.000; stroke:none;" />
 <path d="  M 51,4  L 53,4  L 53,3  L 51,3  Z  " style="fill:rgb(65, 43, 19); fill-opacity:1.000; stroke:none;" />
 <path d="  M 52,30  L 52,29  L 51,29  L 51,30  Z  " style="fill:rgb(65, 43, 19); fill-opacity:1.000; stroke:none;" />
 <path d="  M 52,6  L 52,7  L 54,7  L 54,8  L 56,8  L 56,7  L 55,7  L 55,6  Z  " style="fill:rgb(65, 43, 19); fill-opacity:1.000; stroke:none;" />
 <path d="  M 54,4  L 53,4  L 53,5  L 54,5  Z  " style="fill:rgb(65, 43, 19); fill-opacity:1.000; stroke:none;" />
 <path d="  M 59,8  L 56,8  L 56,9  L 53,9  L 53,10  L 57,10  L 57,9  L 60,9  L 60,8  L 61,8  L 61,7  L 59,7  Z  " style="fill:rgb(65, 43, 19); fill-opacity:1.000; stroke:none;" />
 <path d="  M 54,22  L 54,23  L 55,23  L 55,22  Z  " style="fill:rgb(65, 43, 19); fill-opacity:1.000; stroke:none;" />
 <path d="  M 54,53  L 55,53  L 55,52  L 54,52  Z  " style="fill:rgb(65, 43, 19); fill-opacity:1.000; stroke:none;" />
 <path d="  M 55,53  L 55,55  L 54,55  L 54,58  L 55,58  L 55,56  L 56,56  L 56,53  Z  " style="fill:rgb(65, 43, 19); fill-opacity:1.000; stroke:none;" />
 <path d="  M 56,20  L 55,20  L 55,22  L 56,22  Z  " style="fill:rgb(65, 43, 19); fill-opacity:1.000; stroke:none;" />
 <path d="  M 55,37  L 56,37  L 56,34  L 55,34  Z  " style="fill:rgb(65, 43, 19); fill-opacity:1.000; stroke:none;" />
 <path d="  M 55,46  L 56,46  L 56,44  L 55,44  Z  " style="fill:rgb(65, 43, 19); fill-opacity:1.000; stroke:none;" />
 <path d="  M 56,4  L 56,5  L 59,5  L 59,4  Z  " style="fill:rgb(65, 43, 19); fill-opacity:1.000; stroke:none;" />
 <path d="  M 56,25  L 57,25  L 57,28  L 58,28  L 58,24  L 57,24  L 57,23  L 56,23  Z  " style="fill:rgb(65, 43, 19); fill-opacity:1.000; stroke:none;" />
 <path d="  M 57,38  L 56,38  L 56,41  L 57,41  L 57,43  L 58,43  L 58,39  L 57,39  Z  " style="fill:rgb(65, 43, 19); fill-opacity:1.000; stroke:none;" />
 <path d="  M 56,48  L 57,48  L 57,50  L 58,50  L 58,51  L 59,51  L 59,49  L 58,49  L 58,48  L 60,48  L 60,46  L 61,46  L 61,43  L 60,43  L 60,45  L 59,45  L 59,46  L 58,46  L 58,45  L 57,45  L 57,47  L 56,47  Z  " style="fill:rgb(65, 43, 19); fill-opacity:1.000; stroke:none;" />
 <path d="  M 57,14  L 58,14  L 58,16  L 59,16  L 59,13  L 58,13  L 58,12  L 57,12  Z  " style="fill:rgb(65, 43, 19); fill-opacity:1.000; stroke:none;" />
 <path d="  M 57,16  L 57,17  L 58,17  L 58,16  Z  " style="fill:rgb(65, 43, 19); fill-opacity:1.000; stroke:none;" />
 <path d="  M 59,6  L 58,6  L 58,7  L 59,7  Z  " style="fill:rgb(65, 43, 19); fill-opacity:1.000; stroke:none;" />
 <path d="  M 59,21  L 58,21  L 58,23  L 59,23  Z  " style="fill:rgb(65, 43, 19); fill-opacity:1.000; stroke:none;" />
 <path d="  M 58,45  L 59,45  L 59,43  L 58,43  Z  " style="fill:rgb(65, 43, 19); fill-opacity:1.000; stroke:none;" />
 <path d="  M 59,55  L 58,55  L 58,57  L 59,57  Z  " style="fill:rgb(65, 43, 19); fill-opacity:1.000; stroke:none;" />
 <path d="  M 60,17  L 59,17  L 59,20  L 60,20  L 60,22  L 61,22  L 61,19  L 60,19  Z  " style="fill:rgb(65, 43, 19); fill-opacity:1.000; stroke:none;" />
 <path d="  M 62,22  L 61,22  L 61,24  L 60,24  L 60,23  L 59,23  L 59,25  L 60,25  L 60,27  L 61,27  L 61,25  L 62,25  Z  " style="fill:rgb(65, 43, 19); fill-opacity:1.000; stroke:none;" />
 <path d="  M 62,56  L 61,56  L 61,57  L 60,57  L 60,58  L 59,58  L 59,59  L 60,59  L 60,61  L 61,61  L 61,63  L 62,63  L 62,60  L 61,60  L 61,59  L 62,59  Z  " style="fill:rgb(65, 43, 19); fill-opacity:1.000; stroke:none;" />
 <path d="  M 60,5  L 60,6  L 62,6  L 62,5  Z  " style="fill:rgb(65, 43, 19); fill-opacity:1.000; stroke:none;" />
 <path d="  M 61,18  L 62,18  L 62,15  L 61,15  L 61,14  L 60,14  L 60,16  L 61,16  Z  " style="fill:rgb(65, 43, 19); fill-opacity:1.000; stroke:none;" />
 <path d="  M 60,33  L 61,33  L 61,30  L 60,30  Z  " style="fill:rgb(65, 43, 19); fill-opacity:1.000; stroke:none;" />
 <path d="  M 61,40  L 61,38  L 60,38  L 60,40  Z  " style="fill:rgb(65, 43, 19); fill-opacity:1.000; stroke:none;" />
 <path d="  M 60,64  L 61,64  L 61,63  L 60,63  Z  " style="fill:rgb(65, 43, 19); fill-opacity:1.000; stroke:none;" />
 <path d="  M 62,33  L 61,33  L 61,35  L 62,35  Z  " style="fill:rgb(65, 43, 19); fill-opacity:1.000; stroke:none;" />
 <path d="  M 62,42  L 62,40  L 61,40  L 61,42  Z  " style="fill:rgb(65, 43, 19); fill-opacity:1.000; stroke:none;" />
 <path d="  M 10,17  L 11,17  L 11,18  L 10,18  L 10,23  L 11,23  L 11,20  L 12,20  L 12,14  L 11,14  L 11,11  L 14,11  L 14,10  L 10,10  Z  " style="fill:rgb(41, 26, 12); fill-opacity:1.000; stroke:none;" />
 <path d="  M 10,31  L 11,31  L 11,28  L 12,28  L 12,23  L 11,23  L 11,27  L 10,27  Z  " style="fill:rgb(41, 26, 12); fill-opacity:1.000; stroke:none;" />
 <path d="  M 10,42  L 11,42  L 11,40  L 12,40  L 12,36  L 11,36  L 11,35  L 12,35  L 12,33  L 11,33  L 11,34  L 10,34  Z  " style="fill:rgb(41, 26, 12); fill-opacity:1.000; stroke:none;" />
 <path d="  M 10,50  L 11,50  L 11,48  L 12,48  L 12,44  L 11,44  L 11,43  L 10,43  Z  " style="fill:rgb(41, 26, 12); fill-opacity:1.000; stroke:none;" />
 <path d="  M 10,51  L 10,54  L 11,54  L 11,56  L 12,56  L 12,53  L 11,53  L 11,51  Z  " style="fill:rgb(41, 26, 12); fill-opacity:1.000; stroke:none;" />
 <path d="  M 11,57  L 10,57  L 10,59  L 11,59  Z  " style="fill:rgb(41, 26, 12); fill-opacity:1.000; stroke:none;" />
 <path d="  M 12,42  L 11,42  L 11,43  L 12,43  Z  " style="fill:rgb(41, 26, 12); fill-opacity:1.000; stroke:none;" />
 <path d="  M 18,11  L 20,11  L 20,10  L 17,10  L 17,11  L 15,11  L 15,12  L 18,12  Z  " style="fill:rgb(41, 26, 12); fill-opacity:1.000; stroke:none;" />
 <path d="  M 23,10  L 23,11  L 26,11  L 26,10  Z  " style="fill:rgb(41, 26, 12); fill-opacity:1.000; stroke:none;" />
 <path d="  M 36,17  L 37,17  L 37,18  L 36,18  L 36,23  L 37,23  L 37,20  L 38,20  L 38,14  L 37,14  L 37,11  L 40,11  L 40,10  L 36,10  Z  " style="fill:rgb(41, 26, 12); fill-opacity:1.000; stroke:none;" />
 <path d="  M 38,23  L 37,23  L 37,27  L 36,27  L 36,31  L 37,31  L 37,28  L 38,28  Z  " style="fill:rgb(41, 26, 12); fill-opacity:1.000; stroke:none;" />
 <path d="  M 37,40  L 38,40  L 38,36  L 37,36  L 37,35  L 38,35  L 38,33  L 37,33  L 37,34  L 36,34  L 36,42  L 37,42  Z  " style="fill:rgb(41, 26, 12); fill-opacity:1.000; stroke:none;" />
 <path d="  M 36,50  L 37,50  L 37,48  L 38,48  L 38,44  L 37,44  L 37,43  L 36,43  Z  " style="fill:rgb(41, 26, 12); fill-opacity:1.000; stroke:none;" />
 <path d="  M 37,53  L 37,51  L 36,51  L 36,54  L 37,54  L 37,56  L 38,56  L 38,53  Z  " style="fill:rgb(41, 26, 12); fill-opacity:1.000; stroke:none;" />
 <path d="  M 37,59  L 37,57  L 36,57  L 36,59  Z  " style="fill:rgb(41, 26, 12); fill-opacity:1.000; stroke:none;" />
 <path d="  M 38,43  L 38,42  L 37,42  L 37,43  Z  " style="fill:rgb(41, 26, 12); fill-opacity:1.000; stroke:none;" />
 <path d="  M 43,11  L 41,11  L 41,12  L 44,12  L 44,11  L 46,11  L 46,10  L 43,10  Z  " style="fill:rgb(41, 26, 12); fill-opacity:1.000; stroke:none;" />
 <path d="  M 49,10  L 49,11  L 52,11  L 52,10  Z  " style="fill:rgb(41, 26, 12); fill-opacity:1.000; stroke:none;" />
 <path d="  M 10,17  L 10,18  L 11,18  L 11,17  Z  " style="fill:rgb(50, 33, 15); fill-opacity:1.000; stroke:none;" />
 <path d="  M 11,23  L 10,23  L 10,27  L 11,27  Z  " style="fill:rgb(50, 33, 15); fill-opacity:1.000; stroke:none;" />
 <path d="  M 10,34  L 11,34  L 11,33  L 12,33  L 12,28  L 11,28  L 11,31  L 10,31  Z  " style="fill:rgb(50, 33, 15); fill-opacity:1.000; stroke:none;" />
 <path d="  M 11,42  L 10,42  L 10,43  L 11,43  Z  " style="fill:rgb(50, 33, 15); fill-opacity:1.000; stroke:none;" />
 <path d="  M 10,51  L 11,51  L 11,53  L 12,53  L 12,48  L 11,48  L 11,50  L 10,50  Z  " style="fill:rgb(50, 33, 15); fill-opacity:1.000; stroke:none;" />
 <path d="  M 11,54  L 10,54  L 10,57  L 11,57  L 11,58  L 12,58  L 12,56  L 11,56  Z  " style="fill:rgb(50, 33, 15); fill-opacity:1.000; stroke:none;" />
 <path d="  M 14,10  L 14,11  L 11,11  L 11,14  L 12,14  L 12,12  L 15,12  L 15,11  L 17,11  L 17,10  Z  " style="fill:rgb(50, 33, 15); fill-opacity:1.000; stroke:none;" />
 <path d="  M 12,20  L 11,20  L 11,23  L 12,23  Z  " style="fill:rgb(50, 33, 15); fill-opacity:1.000; stroke:none;" />
 <path d="  M 12,36  L 12,35  L 11,35  L 11,36  Z  " style="fill:rgb(50, 33, 15); fill-opacity:1.000; stroke:none;" />
 <path d="  M 12,40  L 11,40  L 11,42  L 12,42  Z  " style="fill:rgb(50, 33, 15); fill-opacity:1.000; stroke:none;" />
 <path d="  M 12,43  L 11,43  L 11,44  L 12,44  Z  " style="fill:rgb(50, 33, 15); fill-opacity:1.000; stroke:none;" />
 <path d="  M 26,12  L 26,11  L 23,11  L 23,10  L 20,10  L 20,11  L 18,11  L 18,12  Z  " style="fill:rgb(50, 33, 15); fill-opacity:1.000; stroke:none;" />
 <path d="  M 26,11  L 27,11  L 27,10  L 26,10  Z  " style="fill:rgb(50, 33, 15); fill-opacity:1.000; stroke:none;" />
 <path d="  M 37,18  L 37,17  L 36,17  L 36,18  Z  " style="fill:rgb(50, 33, 15); fill-opacity:1.000; stroke:none;" />
 <path d="  M 36,23  L 36,27  L 37,27  L 37,23  Z  " style="fill:rgb(50, 33, 15); fill-opacity:1.000; stroke:none;" />
 <path d="  M 36,34  L 37,34  L 37,33  L 38,33  L 38,28  L 37,28  L 37,31  L 36,31  Z  " style="fill:rgb(50, 33, 15); fill-opacity:1.000; stroke:none;" />
 <path d="  M 36,42  L 36,43  L 37,43  L 37,42  Z  " style="fill:rgb(50, 33, 15); fill-opacity:1.000; stroke:none;" />
 <path d="  M 37,50  L 36,50  L 36,51  L 37,51  L 37,53  L 38,53  L 38,48  L 37,48  Z  " style="fill:rgb(50, 33, 15); fill-opacity:1.000; stroke:none;" />
 <path d="  M 37,57  L 37,58  L 38,58  L 38,56  L 37,56  L 37,54  L 36,54  L 36,57  Z  " style="fill:rgb(50, 33, 15); fill-opacity:1.000; stroke:none;" />
 <path d="  M 37,11  L 37,14  L 38,14  L 38,12  L 41,12  L 41,11  L 43,11  L 43,10  L 40,10  L 40,11  Z  " style="fill:rgb(50, 33, 15); fill-opacity:1.000; stroke:none;" />
 <path d="  M 38,20  L 37,20  L 37,23  L 38,23  Z  " style="fill:rgb(50, 33, 15); fill-opacity:1.000; stroke:none;" />
 <path d="  M 38,36  L 38,35  L 37,35  L 37,36  Z  " style="fill:rgb(50, 33, 15); fill-opacity:1.000; stroke:none;" />
 <path d="  M 37,40  L 37,42  L 38,42  L 38,40  Z  " style="fill:rgb(50, 33, 15); fill-opacity:1.000; stroke:none;" />
 <path d="  M 38,44  L 38,43  L 37,43  L 37,44  Z  " style="fill:rgb(50, 33, 15); fill-opacity:1.000; stroke:none;" />
 <path d="  M 46,10  L 46,11  L 44,11  L 44,12  L 52,12  L 52,11  L 49,11  L 49,10  Z  " style="fill:rgb(50, 33, 15); fill-opacity:1.000; stroke:none;" />
 <path d="  M 53,11  L 53,10  L 52,10  L 52,11  Z  " style="fill:rgb(50, 33, 15); fill-opacity:1.000; stroke:none;" />
 <path d="  M 63,4  L 64,4  L 64,2  L 63,2  L 63,3  L 62,3  L 62,6  L 63,6  Z  " style="fill:rgb(50, 33, 15); fill-opacity:1.000; stroke:none;" />
 <path d="  M 63,14  L 64,14  L 64,10  L 63,10  L 63,8  L 62,8  L 62,11  L 63,11  Z  " style="fill:rgb(50, 33, 15); fill-opacity:1.000; stroke:none;" />
 <path d="  M 63,18  L 64,18  L 64,15  L 63,15  L 63,17  L 62,17  L 62,20  L 63,20  Z  " style="fill:rgb(50, 33, 15); fill-opacity:1.000; stroke:none;" />
 <path d="  M 64,31  L 64,27  L 63,27  L 63,26  L 62,26  L 62,28  L 63,28  L 63,31  Z  " style="fill:rgb(50, 33, 15); fill-opacity:1.000; stroke:none;" />
 <path d="  M 63,32  L 62,32  L 62,34  L 63,34  Z  " style="fill:rgb(50, 33, 15); fill-opacity:1.000; stroke:none;" />
 <path d="  M 63,35  L 62,35  L 62,37  L 63,37  L 63,36  L 64,36  L 64,34  L 63,34  Z  " style="fill:rgb(50, 33, 15); fill-opacity:1.000; stroke:none;" />
 <path d="  M 64,46  L 64,42  L 63,42  L 63,40  L 62,40  L 62,43  L 63,43  L 63,46  Z  " style="fill:rgb(50, 33, 15); fill-opacity:1.000; stroke:none;" />
 <path d="  M 62,49  L 63,49  L 63,47  L 62,47  Z  " style="fill:rgb(50, 33, 15); fill-opacity:1.000; stroke:none;" />
 <path d="  M 64,51  L 63,51  L 63,54  L 62,54  L 62,57  L 63,57  L 63,56  L 64,56  Z  " style="fill:rgb(50, 33, 15); fill-opacity:1.000; stroke:none;" />
 <path d="  M 64,58  L 63,58  L 63,60  L 62,60  L 62,63  L 63,63  L 63,61  L 64,61  Z  " style="fill:rgb(50, 33, 15); fill-opacity:1.000; stroke:none;" />
 <path d="  M 63,8  L 64,8  L 64,7  L 63,7  Z  " style="fill:rgb(50, 33, 15); fill-opacity:1.000; stroke:none;" />
 <path d="  M 63,20  L 63,21  L 64,21  L 64,20  Z  " style="fill:rgb(50, 33, 15); fill-opacity:1.000; stroke:none;" />
 <path d="  M 63,25  L 64,25  L 64,22  L 63,22  Z  " style="fill:rgb(50, 33, 15); fill-opacity:1.000; stroke:none;" />
 <path d="  M 64,37  L 63,37  L 63,39  L 64,39  Z  " style="fill:rgb(50, 33, 15); fill-opacity:1.000; stroke:none;" />
 <path d="  M 63,64  L 64,64  L 64,63  L 63,63  Z  " style="fill:rgb(50, 33, 15); fill-opacity:1.000; stroke:none;" />
 <path d="  M 11,60  L 11,59  L 10,59  L 10,60  Z  " style="fill:rgb(61, 40, 18); fill-opacity:1.000; stroke:none;" />
 <path d="  M 11,59  L 12,59  L 12,58  L 11,58  Z  " style="fill:rgb(61, 40, 18); fill-opacity:1.000; stroke:none;" />
 <path d="  M 24,16  L 24,15  L 25,15  L 25,16  Z  M 16,16  L 15,16  L 15,15  L 16,15  Z  M 23,20  L 24,20  L 24,23  L 25,23  L 25,19  L 26,19  L 26,12  L 12,12  L 12,26  L 13,26  L 13,24  L 14,24  L 14,21  L 15,21  L 15,22  L 16,22  L 16,19  L 15,19  L 15,17  L 16,17  L 16,18  L 17,18  L 17,16  L 18,16  L 18,19  L 19,19  L 19,21  L 20,21  L 20,18  L 21,18  L 21,22  L 22,22  L 22,18  L 23,18  Z  M 13,21  L 13,20  L 14,20  L 14,21  Z  M 19,16  L 20,16  L 20,17  L 19,17  Z  M 23,18  L 23,16  L 24,16  L 24,18  Z  M 20,14  L 21,14  L 21,16  L 20,16  Z  " style="fill:rgb(61, 40, 18); fill-opacity:1.000; stroke:none;" />
 <path d="  M 14,27  L 15,27  L 15,28  L 16,28  L 16,26  L 15,26  L 15,24  L 14,24  Z  " style="fill:rgb(61, 40, 18); fill-opacity:1.000; stroke:none;" />
 <path d="  M 15,30  L 15,28  L 14,28  L 14,30  Z  " style="fill:rgb(61, 40, 18); fill-opacity:1.000; stroke:none;" />
 <path d="  M 21,24  L 21,23  L 20,23  L 20,25  L 21,25  L 21,26  L 22,26  L 22,24  Z  " style="fill:rgb(61, 40, 18); fill-opacity:1.000; stroke:none;" />
 <path d="  M 20,28  L 21,28  L 21,26  L 20,26  Z  " style="fill:rgb(61, 40, 18); fill-opacity:1.000; stroke:none;" />
 <path d="  M 23,23  L 23,22  L 22,22  L 22,23  Z  " style="fill:rgb(61, 40, 18); fill-opacity:1.000; stroke:none;" />
 <path d="  M 26,12  L 27,12  L 27,11  L 26,11  Z  " style="fill:rgb(61, 40, 18); fill-opacity:1.000; stroke:none;" />
 <path d="  M 28,10  L 27,10  L 27,11  L 28,11  Z  " style="fill:rgb(61, 40, 18); fill-opacity:1.000; stroke:none;" />
 <path d="  M 36,59  L 36,60  L 37,60  L 37,59  Z  " style="fill:rgb(61, 40, 18); fill-opacity:1.000; stroke:none;" />
 <path d="  M 38,59  L 38,58  L 37,58  L 37,59  Z  " style="fill:rgb(61, 40, 18); fill-opacity:1.000; stroke:none;" />
 <path d="  M 51,17  L 51,19  L 50,19  L 50,17  Z  M 52,12  L 38,12  L 38,24  L 39,24  L 39,26  L 40,26  L 40,23  L 41,23  L 41,24  L 42,24  L 42,22  L 41,22  L 41,20  L 42,20  L 42,21  L 43,21  L 43,22  L 44,22  L 44,19  L 43,19  L 43,18  L 42,18  L 42,16  L 43,16  L 43,17  L 44,17  L 44,16  L 45,16  L 45,21  L 46,21  L 46,19  L 47,19  L 47,18  L 48,18  L 48,20  L 49,20  L 49,19  L 50,19  L 50,20  L 51,20  L 51,21  L 52,21  Z  M 46,16  L 45,16  L 45,15  L 46,15  Z  " style="fill:rgb(61, 40, 18); fill-opacity:1.000; stroke:none;" />
 <path d="  M 39,28  L 39,30  L 40,30  L 40,28  Z  " style="fill:rgb(61, 40, 18); fill-opacity:1.000; stroke:none;" />
 <path d="  M 41,31  L 41,30  L 40,30  L 40,31  Z  " style="fill:rgb(61, 40, 18); fill-opacity:1.000; stroke:none;" />
 <path d="  M 43,24  L 42,24  L 42,26  L 43,26  Z  " style="fill:rgb(61, 40, 18); fill-opacity:1.000; stroke:none;" />
 <path d="  M 46,26  L 47,26  L 47,25  L 48,25  L 48,22  L 47,22  L 47,24  L 46,24  Z  " style="fill:rgb(61, 40, 18); fill-opacity:1.000; stroke:none;" />
 <path d="  M 50,23  L 51,23  L 51,21  L 50,21  Z  " style="fill:rgb(61, 40, 18); fill-opacity:1.000; stroke:none;" />
 <path d="  M 52,12  L 53,12  L 53,11  L 52,11  Z  " style="fill:rgb(61, 40, 18); fill-opacity:1.000; stroke:none;" />
 <path d="  M 54,11  L 54,10  L 53,10  L 53,11  Z  " style="fill:rgb(61, 40, 18); fill-opacity:1.000; stroke:none;" />
 <path d="  M 63,2  L 62,2  L 62,3  L 63,3  Z  " style="fill:rgb(61, 40, 18); fill-opacity:1.000; stroke:none;" />
 <path d="  M 63,7  L 64,7  L 64,4  L 63,4  L 63,6  L 62,6  L 62,8  L 63,8  Z  " style="fill:rgb(61, 40, 18); fill-opacity:1.000; stroke:none;" />
 <path d="  M 62,17  L 63,17  L 63,15  L 64,15  L 64,14  L 63,14  L 63,11  L 62,11  Z  " style="fill:rgb(61, 40, 18); fill-opacity:1.000; stroke:none;" />
 <path d="  M 63,22  L 64,22  L 64,21  L 63,21  L 63,20  L 62,20  L 62,26  L 63,26  L 63,27  L 64,27  L 64,25  L 63,25  Z  " style="fill:rgb(61, 40, 18); fill-opacity:1.000; stroke:none;" />
 <path d="  M 63,31  L 63,28  L 62,28  L 62,32  L 63,32  L 63,34  L 64,34  L 64,31  Z  " style="fill:rgb(61, 40, 18); fill-opacity:1.000; stroke:none;" />
 <path d="  M 63,34  L 62,34  L 62,35  L 63,35  Z  " style="fill:rgb(61, 40, 18); fill-opacity:1.000; stroke:none;" />
 <path d="  M 64,39  L 63,39  L 63,37  L 62,37  L 62,40  L 63,40  L 63,42  L 64,42  Z  " style="fill:rgb(61, 40, 18); fill-opacity:1.000; stroke:none;" />
 <path d="  M 62,54  L 63,54  L 63,51  L 64,51  L 64,46  L 63,46  L 63,43  L 62,43  L 62,47  L 63,47  L 63,49  L 62,49  Z  " style="fill:rgb(61, 40, 18); fill-opacity:1.000; stroke:none;" />
 <path d="  M 62,57  L 62,60  L 63,60  L 63,58  L 64,58  L 64,56  L 63,56  L 63,57  Z  " style="fill:rgb(61, 40, 18); fill-opacity:1.000; stroke:none;" />
 <path d="  M 63,63  L 62,63  L 62,64  L 63,64  Z  " style="fill:rgb(61, 40, 18); fill-opacity:1.000; stroke:none;" />
 <path d="  M 63,1  L 63,2  L 64,2  L 64,1  Z  " style="fill:rgb(61, 40, 18); fill-opacity:1.000; stroke:none;" />
 <path d="  M 63,10  L 64,10  L 64,8  L 63,8  Z  " style="fill:rgb(61, 40, 18); fill-opacity:1.000; stroke:none;" />
 <path d="  M 64,20  L 64,18  L 63,18  L 63,20  Z  " style="fill:rgb(61, 40, 18); fill-opacity:1.000; stroke:none;" />
 <path d="  M 64,37  L 64,36  L 63,36  L 63,37  Z  " style="fill:rgb(61, 40, 18); fill-opacity:1.000; stroke:none;" />
 <path d="  M 64,61  L 63,61  L 63,63  L 64,63  Z  " style="fill:rgb(61, 40, 18); fill-opacity:1.000; stroke:none;" />
 <path d="  M 26,59  L 26,60  L 28,60  L 28,58  L 27,58  L 27,50  L 28,50  L 28,49  L 27,49  L 27,44  L 28,44  L 28,42  L 27,42  L 27,32  L 28,32  L 28,30  L 27,30  L 27,25  L 28,25  L 28,22  L 27,22  L 27,21  L 28,21  L 28,19  L 27,19  L 27,16  L 28,16  L 28,12  L 27,12  L 27,13  L 26,13  L 26,58  L 12,58  L 12,59  L 11,59  L 11,60  L 14,60  L 14,59  L 15,59  L 15,60  L 17,60  L 17,59  L 21,59  L 21,60  L 24,60  L 24,59  Z  " style="fill:rgb(98, 66, 36); fill-opacity:1.000; stroke:none;" />
 <path d="  M 38,58  L 38,59  L 37,59  L 37,60  L 40,60  L 40,59  L 41,59  L 41,60  L 43,60  L 43,59  L 47,59  L 47,60  L 50,60  L 50,59  L 52,59  L 52,60  L 54,60  L 54,58  L 53,58  L 53,50  L 54,50  L 54,49  L 53,49  L 53,44  L 54,44  L 54,42  L 53,42  L 53,32  L 54,32  L 54,30  L 53,30  L 53,25  L 54,25  L 54,22  L 53,22  L 53,21  L 54,21  L 54,19  L 53,19  L 53,16  L 54,16  L 54,12  L 53,12  L 53,13  L 52,13  L 52,58  Z  " style="fill:rgb(98, 66, 36); fill-opacity:1.000; stroke:none;" />
 <path d="  M 15,59  L 14,59  L 14,60  L 15,60  Z  " style="fill:rgb(114, 74, 36); fill-opacity:1.000; stroke:none;" />
 <path d="  M 17,59  L 17,60  L 21,60  L 21,59  Z  " style="fill:rgb(114, 74, 36); fill-opacity:1.000; stroke:none;" />
 <path d="  M 24,60  L 26,60  L 26,59  L 24,59  Z  " style="fill:rgb(114, 74, 36); fill-opacity:1.000; stroke:none;" />
 <path d="  M 27,19  L 28,19  L 28,16  L 27,16  Z  " style="fill:rgb(114, 74, 36); fill-opacity:1.000; stroke:none;" />
 <path d="  M 27,22  L 28,22  L 28,21  L 27,21  Z  " style="fill:rgb(114, 74, 36); fill-opacity:1.000; stroke:none;" />
 <path d="  M 27,30  L 28,30  L 28,25  L 27,25  Z  " style="fill:rgb(114, 74, 36); fill-opacity:1.000; stroke:none;" />
 <path d="  M 28,32  L 27,32  L 27,42  L 28,42  Z  " style="fill:rgb(114, 74, 36); fill-opacity:1.000; stroke:none;" />
 <path d="  M 27,49  L 28,49  L 28,44  L 27,44  Z  " style="fill:rgb(114, 74, 36); fill-opacity:1.000; stroke:none;" />
 <path d="  M 28,50  L 27,50  L 27,58  L 28,58  Z  " style="fill:rgb(114, 74, 36); fill-opacity:1.000; stroke:none;" />
 <path d="  M 41,59  L 40,59  L 40,60  L 41,60  Z  " style="fill:rgb(114, 74, 36); fill-opacity:1.000; stroke:none;" />
 <path d="  M 43,59  L 43,60  L 47,60  L 47,59  Z  " style="fill:rgb(114, 74, 36); fill-opacity:1.000; stroke:none;" />
 <path d="  M 52,60  L 52,59  L 50,59  L 50,60  Z  " style="fill:rgb(114, 74, 36); fill-opacity:1.000; stroke:none;" />
 <path d="  M 54,16  L 53,16  L 53,19  L 54,19  Z  " style="fill:rgb(114, 74, 36); fill-opacity:1.000; stroke:none;" />
 <path d="  M 53,21  L 53,22  L 54,22  L 54,21  Z  " style="fill:rgb(114, 74, 36); fill-opacity:1.000; stroke:none;" />
 <path d="  M 53,25  L 53,30  L 54,30  L 54,25  Z  " style="fill:rgb(114, 74, 36); fill-opacity:1.000; stroke:none;" />
 <path d="  M 53,32  L 53,42  L 54,42  L 54,32  Z  " style="fill:rgb(114, 74, 36); fill-opacity:1.000; stroke:none;" />
 <path d="  M 53,49  L 54,49  L 54,44  L 53,44  Z  " style="fill:rgb(114, 74, 36); fill-opacity:1.000; stroke:none;" />
 <path d="  M 53,58  L 54,58  L 54,50  L 53,50  Z  " style="fill:rgb(114, 74, 36); fill-opacity:1.000; stroke:none;" />
 <path d="  M 27,12  L 26,12  L 26,13  L 27,13  Z  " style="fill:rgb(80, 53, 27); fill-opacity:1.000; stroke:none;" />
 <path d="  M 27,12  L 28,12  L 28,11  L 27,11  Z  " style="fill:rgb(80, 53, 27); fill-opacity:1.000; stroke:none;" />
 <path d="  M 53,13  L 53,12  L 52,12  L 52,13  Z  " style="fill:rgb(80, 53, 27); fill-opacity:1.000; stroke:none;" />
 <path d="  M 53,12  L 54,12  L 54,11  L 53,11  Z  " style="fill:rgb(80, 53, 27); fill-opacity:1.000; stroke:none;" />
 <path d="  M 45,64  L 45,63  L 44,63  L 44,64  Z  " style="fill:rgb(255, 229, 0); fill-opacity:1.000; stroke:none;" />
 <path d="  M 46,62  L 45,62  L 45,63  L 46,63  Z  " style="fill:rgb(255, 229, 0); fill-opacity:1.000; stroke:none;" />
 <path d="  M 48,61  L 46,61  L 46,62  L 48,62  Z  " style="fill:rgb(255, 229, 0); fill-opacity:1.000; stroke:none;" />
 <path d="  M 48,60  L 48,61  L 52,61  L 52,60  Z  " style="fill:rgb(255, 229, 0); fill-opacity:1.000; stroke:none;" />
 <path d="  M 45,64  L 46,64  L 46,63  L 45,63  Z  " style="fill:rgb(204, 148, 0); fill-opacity:1.000; stroke:none;" />
 <path d="  M 47,62  L 46,62  L 46,63  L 47,63  Z  " style="fill:rgb(204, 148, 0); fill-opacity:1.000; stroke:none;" />
 <path d="  M 52,62  L 51,62  L 51,61  L 48,61  L 48,62  L 49,62  L 49,63  L 52,63  Z  " style="fill:rgb(204, 148, 0); fill-opacity:1.000; stroke:none;" />
 <path d="  M 48,64  L 49,64  L 49,63  L 48,63  Z  " style="fill:rgb(204, 148, 0); fill-opacity:1.000; stroke:none;" />
 <path d="  M 59,61  L 58,61  L 58,60  L 52,60  L 52,61  L 53,61  L 53,62  L 54,62  L 54,61  L 56,61  L 56,62  L 57,62  L 57,63  L 58,63  L 58,64  L 59,64  Z  " style="fill:rgb(204, 148, 0); fill-opacity:1.000; stroke:none;" />
 <path d="  M 56,62  L 55,62  L 55,63  L 56,63  Z  " style="fill:rgb(204, 148, 0); fill-opacity:1.000; stroke:none;" />
 <path d="  M 47,63  L 46,63  L 46,64  L 48,64  L 48,63  L 49,63  L 49,62  L 47,62  Z  " style="fill:rgb(165, 119, 0); fill-opacity:1.000; stroke:none;" />
 <path d="  M 51,61  L 51,62  L 52,62  L 52,63  L 49,63  L 49,64  L 58,64  L 58,63  L 57,63  L 57,62  L 56,62  L 56,61  L 54,61  L 54,62  L 53,62  L 53,61  Z  M 56,63  L 55,63  L 55,62  L 56,62  Z  " style="fill:rgb(165, 119, 0); fill-opacity:1.000; stroke:none;" />
 <path d="  M 58,59  L 56,59  L 56,60  L 58,60  Z  " style="fill:rgb(165, 119, 0); fill-opacity:1.000; stroke:none;" />
 <path d="  M 58,61  L 59,61  L 59,60  L 58,60  Z  " style="fill:rgb(165, 119, 0); fill-opacity:1.000; stroke:none;" />
 <path d="  M 60,61  L 59,61  L 59,64  L 60,64  Z  " style="fill:rgb(165, 119, 0); fill-opacity:1.000; stroke:none;" />
</svg>
