<?xml version="1.0" encoding="UTF-8" standalone="no"?>
<!DOCTYPE svg PUBLIC "-//W3C//DTD SVG 1.1//EN" 
  "http://www.w3.org/Graphics/SVG/1.1/DTD/svg11.dtd">
<svg width="64" height="64"
	 xmlns="http://www.w3.org/2000/svg" version="1.1">
 <path d="  M 2,55  L 4,55  L 4,54  L 3,54  L 3,52  L 2,52  L 2,51  L 1,51  L 1,49  L 0,49  L 0,52  L 1,52  L 1,53  L 2,53  Z  " style="fill:rgb(93, 90, 89); fill-opacity:1.000; stroke:none;" />
 <path d="  M 8,48  L 8,47  L 9,47  L 9,46  L 10,46  L 10,44  L 9,44  L 9,45  L 8,45  L 8,44  L 7,44  L 7,47  L 6,47  L 6,46  L 4,46  L 4,45  L 3,45  L 3,44  L 2,44  L 2,46  L 3,46  L 3,47  L 4,47  L 4,48  Z  " style="fill:rgb(93, 90, 89); fill-opacity:1.000; stroke:none;" />
 <path d="  M 5,56  L 3,56  L 3,57  L 4,57  L 4,58  L 5,58  L 5,59  L 6,59  L 6,60  L 7,60  L 7,58  L 6,58  L 6,57  L 5,57  Z  " style="fill:rgb(93, 90, 89); fill-opacity:1.000; stroke:none;" />
 <path d="  M 6,56  L 6,57  L 7,57  L 7,56  Z  " style="fill:rgb(93, 90, 89); fill-opacity:1.000; stroke:none;" />
 <path d="  M 9,59  L 8,59  L 8,60  L 7,60  L 7,61  L 10,61  L 10,60  L 9,60  Z  " style="fill:rgb(93, 90, 89); fill-opacity:1.000; stroke:none;" />
 <path d="  M 9,44  L 9,43  L 8,43  L 8,44  Z  " style="fill:rgb(93, 90, 89); fill-opacity:1.000; stroke:none;" />
 <path d="  M 8,49  L 9,49  L 9,48  L 8,48  Z  " style="fill:rgb(93, 90, 89); fill-opacity:1.000; stroke:none;" />
 <path d="  M 10,48  L 10,47  L 9,47  L 9,48  Z  " style="fill:rgb(93, 90, 89); fill-opacity:1.000; stroke:none;" />
 <path d="  M 11,60  L 11,59  L 10,59  L 10,60  Z  " style="fill:rgb(93, 90, 89); fill-opacity:1.000; stroke:none;" />
 <path d="  M 11,51  L 11,52  L 12,52  L 12,51  Z  " style="fill:rgb(93, 90, 89); fill-opacity:1.000; stroke:none;" />
 <path d="  M 13,40  L 13,39  L 12,39  L 12,41  L 13,41  L 13,43  L 14,43  L 14,40  Z  " style="fill:rgb(93, 90, 89); fill-opacity:1.000; stroke:none;" />
 <path d="  M 15,50  L 15,49  L 16,49  L 16,50  L 17,50  L 17,48  L 16,48  L 16,47  L 17,47  L 17,45  L 18,45  L 18,44  L 19,44  L 19,42  L 18,42  L 18,43  L 17,43  L 17,44  L 15,44  L 15,45  L 16,45  L 16,46  L 15,46  L 15,48  L 14,48  L 14,49  L 13,49  L 13,52  L 12,52  L 12,55  L 13,55  L 13,53  L 14,53  L 14,50  Z  " style="fill:rgb(93, 90, 89); fill-opacity:1.000; stroke:none;" />
 <path d="  M 13,62  L 13,61  L 12,61  L 12,62  Z  " style="fill:rgb(93, 90, 89); fill-opacity:1.000; stroke:none;" />
 <path d="  M 13,63  L 12,63  L 12,64  L 13,64  Z  " style="fill:rgb(93, 90, 89); fill-opacity:1.000; stroke:none;" />
 <path d="  M 14,38  L 13,38  L 13,39  L 14,39  Z  " style="fill:rgb(93, 90, 89); fill-opacity:1.000; stroke:none;" />
 <path d="  M 13,56  L 14,56  L 14,55  L 13,55  Z  " style="fill:rgb(93, 90, 89); fill-opacity:1.000; stroke:none;" />
 <path d="  M 18,62  L 18,61  L 16,61  L 16,62  L 13,62  L 13,63  L 14,63  L 14,64  L 20,64  L 20,63  L 21,63  L 21,62  L 19,62  L 19,63  L 17,63  L 17,62  Z  " style="fill:rgb(93, 90, 89); fill-opacity:1.000; stroke:none;" />
 <path d="  M 15,38  L 15,37  L 14,37  L 14,38  Z  " style="fill:rgb(93, 90, 89); fill-opacity:1.000; stroke:none;" />
 <path d="  M 15,54  L 15,53  L 14,53  L 14,54  Z  " style="fill:rgb(93, 90, 89); fill-opacity:1.000; stroke:none;" />
 <path d="  M 16,37  L 16,36  L 15,36  L 15,37  Z  " style="fill:rgb(93, 90, 89); fill-opacity:1.000; stroke:none;" />
 <path d="  M 16,39  L 16,38  L 15,38  L 15,39  Z  " style="fill:rgb(93, 90, 89); fill-opacity:1.000; stroke:none;" />
 <path d="  M 15,51  L 16,51  L 16,50  L 15,50  Z  " style="fill:rgb(93, 90, 89); fill-opacity:1.000; stroke:none;" />
 <path d="  M 17,31  L 17,30  L 16,30  L 16,31  Z  " style="fill:rgb(93, 90, 89); fill-opacity:1.000; stroke:none;" />
 <path d="  M 18,29  L 17,29  L 17,30  L 18,30  Z  " style="fill:rgb(93, 90, 89); fill-opacity:1.000; stroke:none;" />
 <path d="  M 17,32  L 18,32  L 18,33  L 19,33  L 19,32  L 20,32  L 20,31  L 19,31  L 19,30  L 18,30  L 18,31  L 17,31  Z  " style="fill:rgb(93, 90, 89); fill-opacity:1.000; stroke:none;" />
 <path d="  M 17,48  L 18,48  L 18,47  L 17,47  Z  " style="fill:rgb(93, 90, 89); fill-opacity:1.000; stroke:none;" />
 <path d="  M 18,46  L 19,46  L 19,45  L 18,45  Z  " style="fill:rgb(93, 90, 89); fill-opacity:1.000; stroke:none;" />
 <path d="  M 21,25  L 20,25  L 20,27  L 21,27  L 21,28  L 22,28  L 22,26  L 21,26  Z  " style="fill:rgb(93, 90, 89); fill-opacity:1.000; stroke:none;" />
 <path d="  M 20,58  L 20,59  L 21,59  L 21,58  Z  " style="fill:rgb(93, 90, 89); fill-opacity:1.000; stroke:none;" />
 <path d="  M 22,24  L 21,24  L 21,25  L 22,25  Z  " style="fill:rgb(93, 90, 89); fill-opacity:1.000; stroke:none;" />
 <path d="  M 21,60  L 22,60  L 22,59  L 21,59  Z  " style="fill:rgb(93, 90, 89); fill-opacity:1.000; stroke:none;" />
 <path d="  M 22,63  L 21,63  L 21,64  L 22,64  Z  " style="fill:rgb(93, 90, 89); fill-opacity:1.000; stroke:none;" />
 <path d="  M 22,24  L 23,24  L 23,22  L 24,22  L 24,20  L 23,20  L 23,21  L 22,21  Z  " style="fill:rgb(93, 90, 89); fill-opacity:1.000; stroke:none;" />
 <path d="  M 23,25  L 22,25  L 22,26  L 23,26  Z  " style="fill:rgb(93, 90, 89); fill-opacity:1.000; stroke:none;" />
 <path d="  M 22,53  L 22,54  L 23,54  L 23,53  Z  " style="fill:rgb(93, 90, 89); fill-opacity:1.000; stroke:none;" />
 <path d="  M 22,58  L 22,59  L 24,59  L 24,58  L 25,58  L 25,55  L 24,55  L 24,54  L 23,54  L 23,56  L 24,56  L 24,57  L 23,57  L 23,58  Z  " style="fill:rgb(93, 90, 89); fill-opacity:1.000; stroke:none;" />
 <path d="  M 25,23  L 24,23  L 24,24  L 25,24  Z  " style="fill:rgb(93, 90, 89); fill-opacity:1.000; stroke:none;" />
 <path d="  M 28,41  L 29,41  L 29,40  L 30,40  L 30,39  L 29,39  L 29,38  L 28,38  L 28,39  L 27,39  L 27,38  L 26,38  L 26,37  L 24,37  L 24,38  L 25,38  L 25,39  L 26,39  L 26,40  L 27,40  L 27,42  L 28,42  Z  " style="fill:rgb(93, 90, 89); fill-opacity:1.000; stroke:none;" />
 <path d="  M 26,61  L 26,60  L 27,60  L 27,61  Z  M 28,62  L 28,61  L 29,61  L 29,62  Z  M 30,63  L 30,64  L 33,64  L 33,63  L 32,63  L 32,62  L 33,62  L 33,61  L 31,61  L 31,62  L 30,62  L 30,61  L 29,61  L 29,60  L 31,60  L 31,59  L 30,59  L 30,58  L 29,58  L 29,59  L 28,59  L 28,60  L 27,60  L 27,59  L 25,59  L 25,60  L 24,60  L 24,61  L 25,61  L 25,62  L 27,62  L 27,63  Z  " style="fill:rgb(93, 90, 89); fill-opacity:1.000; stroke:none;" />
 <path d="  M 26,41  L 26,40  L 25,40  L 25,41  Z  " style="fill:rgb(93, 90, 89); fill-opacity:1.000; stroke:none;" />
 <path d="  M 25,55  L 26,55  L 26,52  L 25,52  Z  " style="fill:rgb(93, 90, 89); fill-opacity:1.000; stroke:none;" />
 <path d="  M 26,31  L 27,31  L 27,30  L 26,30  Z  " style="fill:rgb(93, 90, 89); fill-opacity:1.000; stroke:none;" />
 <path d="  M 27,36  L 26,36  L 26,37  L 27,37  Z  " style="fill:rgb(93, 90, 89); fill-opacity:1.000; stroke:none;" />
 <path d="  M 27,48  L 27,47  L 26,47  L 26,48  Z  " style="fill:rgb(93, 90, 89); fill-opacity:1.000; stroke:none;" />
 <path d="  M 29,52  L 29,50  L 28,50  L 28,48  L 27,48  L 27,50  L 26,50  L 26,52  L 27,52  L 27,51  L 28,51  L 28,52  Z  " style="fill:rgb(93, 90, 89); fill-opacity:1.000; stroke:none;" />
 <path d="  M 27,29  L 27,30  L 28,30  L 28,29  Z  " style="fill:rgb(93, 90, 89); fill-opacity:1.000; stroke:none;" />
 <path d="  M 29,31  L 30,31  L 30,30  L 28,30  L 28,31  L 27,31  L 27,32  L 29,32  Z  " style="fill:rgb(93, 90, 89); fill-opacity:1.000; stroke:none;" />
 <path d="  M 27,47  L 28,47  L 28,48  L 29,48  L 29,46  L 28,46  L 28,45  L 27,45  Z  " style="fill:rgb(93, 90, 89); fill-opacity:1.000; stroke:none;" />
 <path d="  M 27,53  L 28,53  L 28,52  L 27,52  Z  " style="fill:rgb(93, 90, 89); fill-opacity:1.000; stroke:none;" />
 <path d="  M 28,34  L 29,34  L 29,33  L 28,33  Z  " style="fill:rgb(93, 90, 89); fill-opacity:1.000; stroke:none;" />
 <path d="  M 29,43  L 29,42  L 28,42  L 28,43  Z  " style="fill:rgb(93, 90, 89); fill-opacity:1.000; stroke:none;" />
 <path d="  M 29,57  L 28,57  L 28,58  L 29,58  Z  " style="fill:rgb(93, 90, 89); fill-opacity:1.000; stroke:none;" />
 <path d="  M 31,33  L 31,31  L 30,31  L 30,32  L 29,32  L 29,33  Z  " style="fill:rgb(93, 90, 89); fill-opacity:1.000; stroke:none;" />
 <path d="  M 30,42  L 30,41  L 29,41  L 29,42  Z  " style="fill:rgb(93, 90, 89); fill-opacity:1.000; stroke:none;" />
 <path d="  M 29,50  L 30,50  L 30,49  L 29,49  Z  " style="fill:rgb(93, 90, 89); fill-opacity:1.000; stroke:none;" />
 <path d="  M 32,33  L 31,33  L 31,34  L 32,34  Z  " style="fill:rgb(93, 90, 89); fill-opacity:1.000; stroke:none;" />
 <path d="  M 34,63  L 34,62  L 33,62  L 33,63  Z  " style="fill:rgb(93, 90, 89); fill-opacity:1.000; stroke:none;" />
 <path d="  M 38,51  L 37,51  L 37,52  L 36,52  L 36,54  L 35,54  L 35,57  L 36,57  L 36,56  L 37,56  L 37,55  L 38,55  L 38,54  L 37,54  L 37,53  L 38,53  Z  " style="fill:rgb(93, 90, 89); fill-opacity:1.000; stroke:none;" />
 <path d="  M 37,50  L 38,50  L 38,51  L 39,51  L 39,49  L 38,49  L 38,48  L 39,48  L 39,45  L 40,45  L 40,43  L 39,43  L 39,44  L 38,44  L 38,47  L 37,47  L 37,49  L 36,49  L 36,51  L 37,51  Z  " style="fill:rgb(93, 90, 89); fill-opacity:1.000; stroke:none;" />
 <path d="  M 38,44  L 38,43  L 37,43  L 37,44  Z  " style="fill:rgb(93, 90, 89); fill-opacity:1.000; stroke:none;" />
 <path d="  M 37,59  L 38,59  L 38,60  L 39,60  L 39,58  L 40,58  L 40,57  L 41,57  L 41,55  L 40,55  L 40,56  L 39,56  L 39,55  L 38,55  L 38,56  L 37,56  Z  " style="fill:rgb(93, 90, 89); fill-opacity:1.000; stroke:none;" />
 <path d="  M 39,49  L 40,49  L 40,48  L 39,48  Z  " style="fill:rgb(93, 90, 89); fill-opacity:1.000; stroke:none;" />
 <path d="  M 39,54  L 39,55  L 40,55  L 40,54  Z  " style="fill:rgb(93, 90, 89); fill-opacity:1.000; stroke:none;" />
 <path d="  M 41,46  L 41,45  L 40,45  L 40,46  Z  " style="fill:rgb(93, 90, 89); fill-opacity:1.000; stroke:none;" />
 <path d="  M 42,47  L 42,46  L 41,46  L 41,47  Z  " style="fill:rgb(93, 90, 89); fill-opacity:1.000; stroke:none;" />
 <path d="  M 44,35  L 44,34  L 43,34  L 43,35  Z  " style="fill:rgb(93, 90, 89); fill-opacity:1.000; stroke:none;" />
 <path d="  M 44,40  L 44,37  L 43,37  L 43,40  Z  " style="fill:rgb(93, 90, 89); fill-opacity:1.000; stroke:none;" />
 <path d="  M 45,29  L 44,29  L 44,30  L 45,30  Z  " style="fill:rgb(93, 90, 89); fill-opacity:1.000; stroke:none;" />
 <path d="  M 44,32  L 44,33  L 45,33  L 45,32  Z  " style="fill:rgb(93, 90, 89); fill-opacity:1.000; stroke:none;" />
 <path d="  M 44,35  L 44,37  L 45,37  L 45,36  L 46,36  L 46,34  L 47,34  L 47,32  L 48,32  L 48,30  L 47,30  L 47,31  L 46,31  L 46,30  L 45,30  L 45,32  L 46,32  L 46,33  L 45,33  L 45,35  Z  " style="fill:rgb(93, 90, 89); fill-opacity:1.000; stroke:none;" />
 <path d="  M 45,42  L 45,41  L 46,41  L 46,39  L 45,39  L 45,40  L 44,40  L 44,42  Z  " style="fill:rgb(93, 90, 89); fill-opacity:1.000; stroke:none;" />
 <path d="  M 45,23  L 45,24  L 46,24  L 46,23  Z  " style="fill:rgb(93, 90, 89); fill-opacity:1.000; stroke:none;" />
 <path d="  M 47,25  L 48,25  L 48,22  L 47,22  L 47,24  L 46,24  L 46,25  L 45,25  L 45,29  L 46,29  L 46,26  L 47,26  Z  " style="fill:rgb(93, 90, 89); fill-opacity:1.000; stroke:none;" />
 <path d="  M 46,38  L 46,37  L 45,37  L 45,38  Z  " style="fill:rgb(93, 90, 89); fill-opacity:1.000; stroke:none;" />
 <path d="  M 46,20  L 46,21  L 47,21  L 47,20  Z  " style="fill:rgb(93, 90, 89); fill-opacity:1.000; stroke:none;" />
 <path d="  M 47,42  L 47,41  L 46,41  L 46,42  Z  " style="fill:rgb(93, 90, 89); fill-opacity:1.000; stroke:none;" />
 <path d="  M 47,26  L 47,27  L 48,27  L 48,26  Z  " style="fill:rgb(93, 90, 89); fill-opacity:1.000; stroke:none;" />
 <path d="  M 49,33  L 49,32  L 48,32  L 48,33  Z  " style="fill:rgb(93, 90, 89); fill-opacity:1.000; stroke:none;" />
 <path d="  M 49,50  L 50,50  L 50,51  L 51,51  L 51,49  L 50,49  L 50,47  L 49,47  L 49,48  L 48,48  L 48,49  L 49,49  Z  " style="fill:rgb(93, 90, 89); fill-opacity:1.000; stroke:none;" />
 <path d="  M 49,52  L 50,52  L 50,51  L 49,51  Z  " style="fill:rgb(93, 90, 89); fill-opacity:1.000; stroke:none;" />
 <path d="  M 52,46  L 52,44  L 54,44  L 54,43  L 53,43  L 53,42  L 52,42  L 52,43  L 51,43  L 51,45  L 50,45  L 50,47  L 51,47  L 51,46  Z  " style="fill:rgb(93, 90, 89); fill-opacity:1.000; stroke:none;" />
 <path d="  M 53,55  L 53,53  L 52,53  L 52,54  L 51,54  L 51,56  L 50,56  L 50,57  L 51,57  L 51,58  L 52,58  L 52,55  Z  " style="fill:rgb(93, 90, 89); fill-opacity:1.000; stroke:none;" />
 <path d="  M 52,47  L 51,47  L 51,48  L 52,48  Z  " style="fill:rgb(93, 90, 89); fill-opacity:1.000; stroke:none;" />
 <path d="  M 52,28  L 52,29  L 53,29  L 53,28  Z  " style="fill:rgb(93, 90, 89); fill-opacity:1.000; stroke:none;" />
 <path d="  M 53,27  L 53,28  L 54,28  L 54,27  Z  " style="fill:rgb(93, 90, 89); fill-opacity:1.000; stroke:none;" />
 <path d="  M 53,53  L 54,53  L 54,54  L 55,54  L 55,52  L 54,52  L 54,51  L 53,51  Z  " style="fill:rgb(93, 90, 89); fill-opacity:1.000; stroke:none;" />
 <path d="  M 54,55  L 53,55  L 53,56  L 54,56  Z  " style="fill:rgb(93, 90, 89); fill-opacity:1.000; stroke:none;" />
 <path d="  M 55,25  L 54,25  L 54,27  L 55,27  Z  " style="fill:rgb(93, 90, 89); fill-opacity:1.000; stroke:none;" />
 <path d="  M 55,43  L 55,42  L 54,42  L 54,43  Z  " style="fill:rgb(93, 90, 89); fill-opacity:1.000; stroke:none;" />
 <path d="  M 55,49  L 54,49  L 54,51  L 55,51  Z  " style="fill:rgb(93, 90, 89); fill-opacity:1.000; stroke:none;" />
 <path d="  M 56,49  L 56,50  L 57,50  L 57,48  L 56,48  L 56,47  L 57,47  L 57,45  L 56,45  L 56,46  L 55,46  L 55,49  Z  " style="fill:rgb(93, 90, 89); fill-opacity:1.000; stroke:none;" />
 <path d="  M 55,52  L 56,52  L 56,51  L 55,51  Z  " style="fill:rgb(93, 90, 89); fill-opacity:1.000; stroke:none;" />
 <path d="  M 58,45  L 58,44  L 57,44  L 57,45  Z  " style="fill:rgb(93, 90, 89); fill-opacity:1.000; stroke:none;" />
 <path d="  M 3,51  L 2,51  L 2,52  L 3,52  Z  " style="fill:rgb(134, 123, 119); fill-opacity:1.000; stroke:none;" />
 <path d="  M 4,54  L 4,53  L 3,53  L 3,54  Z  " style="fill:rgb(134, 123, 119); fill-opacity:1.000; stroke:none;" />
 <path d="  M 3,56  L 4,56  L 4,55  L 3,55  Z  " style="fill:rgb(134, 123, 119); fill-opacity:1.000; stroke:none;" />
 <path d="  M 4,36  L 4,37  L 5,37  L 5,36  Z  " style="fill:rgb(134, 123, 119); fill-opacity:1.000; stroke:none;" />
 <path d="  M 5,41  L 5,40  L 6,40  L 6,39  L 4,39  L 4,41  Z  " style="fill:rgb(134, 123, 119); fill-opacity:1.000; stroke:none;" />
 <path d="  M 5,45  L 4,45  L 4,46  L 5,46  Z  " style="fill:rgb(134, 123, 119); fill-opacity:1.000; stroke:none;" />
 <path d="  M 5,55  L 5,54  L 4,54  L 4,55  Z  " style="fill:rgb(134, 123, 119); fill-opacity:1.000; stroke:none;" />
 <path d="  M 6,42  L 5,42  L 5,43  L 6,43  Z  " style="fill:rgb(134, 123, 119); fill-opacity:1.000; stroke:none;" />
 <path d="  M 6,55  L 5,55  L 5,57  L 6,57  Z  " style="fill:rgb(134, 123, 119); fill-opacity:1.000; stroke:none;" />
 <path d="  M 7,35  L 7,36  L 8,36  L 8,35  L 9,35  L 9,37  L 10,37  L 10,36  L 11,36  L 11,34  L 10,34  L 10,33  L 9,33  L 9,32  L 7,32  L 7,33  L 6,33  L 6,35  Z  M 8,33  L 8,34  L 7,34  L 7,33  Z  " style="fill:rgb(134, 123, 119); fill-opacity:1.000; stroke:none;" />
 <path d="  M 7,36  L 6,36  L 6,37  L 7,37  Z  " style="fill:rgb(134, 123, 119); fill-opacity:1.000; stroke:none;" />
 <path d="  M 7,42  L 7,41  L 6,41  L 6,42  Z  " style="fill:rgb(134, 123, 119); fill-opacity:1.000; stroke:none;" />
 <path d="  M 8,43  L 9,43  L 9,42  L 7,42  L 7,43  L 6,43  L 6,44  L 8,44  Z  " style="fill:rgb(134, 123, 119); fill-opacity:1.000; stroke:none;" />
 <path d="  M 7,46  L 6,46  L 6,47  L 7,47  Z  " style="fill:rgb(134, 123, 119); fill-opacity:1.000; stroke:none;" />
 <path d="  M 8,38  L 8,37  L 7,37  L 7,38  Z  " style="fill:rgb(134, 123, 119); fill-opacity:1.000; stroke:none;" />
 <path d="  M 8,60  L 8,58  L 7,58  L 7,60  Z  " style="fill:rgb(134, 123, 119); fill-opacity:1.000; stroke:none;" />
 <path d="  M 8,39  L 9,39  L 9,41  L 10,41  L 10,39  L 11,39  L 11,38  L 8,38  Z  " style="fill:rgb(134, 123, 119); fill-opacity:1.000; stroke:none;" />
 <path d="  M 9,44  L 8,44  L 8,45  L 9,45  Z  " style="fill:rgb(134, 123, 119); fill-opacity:1.000; stroke:none;" />
 <path d="  M 8,47  L 8,48  L 9,48  L 9,47  Z  " style="fill:rgb(134, 123, 119); fill-opacity:1.000; stroke:none;" />
 <path d="  M 9,58  L 9,57  L 8,57  L 8,58  Z  " style="fill:rgb(134, 123, 119); fill-opacity:1.000; stroke:none;" />
 <path d="  M 9,43  L 9,44  L 13,44  L 13,41  L 11,41  L 11,42  L 10,42  L 10,43  Z  M 12,43  L 11,43  L 11,42  L 12,42  Z  " style="fill:rgb(134, 123, 119); fill-opacity:1.000; stroke:none;" />
 <path d="  M 9,46  L 9,47  L 10,47  L 10,46  Z  " style="fill:rgb(134, 123, 119); fill-opacity:1.000; stroke:none;" />
 <path d="  M 11,51  L 12,51  L 12,52  L 13,52  L 13,50  L 12,50  L 12,49  L 11,49  L 11,47  L 10,47  L 10,48  L 9,48  L 9,50  L 10,50  L 10,52  L 11,52  Z  " style="fill:rgb(134, 123, 119); fill-opacity:1.000; stroke:none;" />
 <path d="  M 9,58  L 9,60  L 10,60  L 10,58  Z  " style="fill:rgb(134, 123, 119); fill-opacity:1.000; stroke:none;" />
 <path d="  M 9,61  L 9,62  L 10,62  L 10,61  Z  " style="fill:rgb(134, 123, 119); fill-opacity:1.000; stroke:none;" />
 <path d="  M 10,45  L 10,46  L 11,46  L 11,45  Z  " style="fill:rgb(134, 123, 119); fill-opacity:1.000; stroke:none;" />
 <path d="  M 11,61  L 11,60  L 10,60  L 10,61  Z  " style="fill:rgb(134, 123, 119); fill-opacity:1.000; stroke:none;" />
 <path d="  M 12,62  L 12,61  L 11,61  L 11,62  L 10,62  L 10,63  L 13,63  L 13,62  Z  " style="fill:rgb(134, 123, 119); fill-opacity:1.000; stroke:none;" />
 <path d="  M 12,34  L 12,33  L 11,33  L 11,34  Z  " style="fill:rgb(134, 123, 119); fill-opacity:1.000; stroke:none;" />
 <path d="  M 11,39  L 11,40  L 12,40  L 12,39  Z  " style="fill:rgb(134, 123, 119); fill-opacity:1.000; stroke:none;" />
 <path d="  M 11,46  L 11,47  L 12,47  L 12,46  Z  " style="fill:rgb(134, 123, 119); fill-opacity:1.000; stroke:none;" />
 <path d="  M 12,52  L 11,52  L 11,54  L 12,54  Z  " style="fill:rgb(134, 123, 119); fill-opacity:1.000; stroke:none;" />
 <path d="  M 11,60  L 12,60  L 12,59  L 11,59  Z  " style="fill:rgb(134, 123, 119); fill-opacity:1.000; stroke:none;" />
 <path d="  M 12,23  L 13,23  L 13,22  L 12,22  Z  " style="fill:rgb(134, 123, 119); fill-opacity:1.000; stroke:none;" />
 <path d="  M 12,32  L 13,32  L 13,31  L 12,31  Z  " style="fill:rgb(134, 123, 119); fill-opacity:1.000; stroke:none;" />
 <path d="  M 14,46  L 14,47  L 13,47  L 13,48  L 12,48  L 12,49  L 14,49  L 14,48  L 15,48  L 15,46  Z  " style="fill:rgb(134, 123, 119); fill-opacity:1.000; stroke:none;" />
 <path d="  M 12,60  L 12,61  L 13,61  L 13,60  Z  " style="fill:rgb(134, 123, 119); fill-opacity:1.000; stroke:none;" />
 <path d="  M 13,24  L 13,25  L 14,25  L 14,24  Z  " style="fill:rgb(134, 123, 119); fill-opacity:1.000; stroke:none;" />
 <path d="  M 13,29  L 14,29  L 14,28  L 13,28  Z  " style="fill:rgb(134, 123, 119); fill-opacity:1.000; stroke:none;" />
 <path d="  M 13,34  L 14,34  L 14,33  L 13,33  Z  " style="fill:rgb(134, 123, 119); fill-opacity:1.000; stroke:none;" />
 <path d="  M 13,35  L 13,37  L 14,37  L 14,36  L 15,36  L 15,35  Z  " style="fill:rgb(134, 123, 119); fill-opacity:1.000; stroke:none;" />
 <path d="  M 14,45  L 13,45  L 13,46  L 14,46  Z  " style="fill:rgb(134, 123, 119); fill-opacity:1.000; stroke:none;" />
 <path d="  M 20,51  L 21,51  L 21,50  L 20,50  L 20,49  L 19,49  L 19,47  L 18,47  L 18,48  L 17,48  L 17,50  L 16,50  L 16,51  L 15,51  L 15,50  L 14,50  L 14,53  L 13,53  L 13,55  L 14,55  L 14,58  L 16,58  L 16,56  L 17,56  L 17,54  L 18,54  L 18,53  L 19,53  L 19,52  L 20,52  Z  M 17,54  L 16,54  L 16,53  L 17,53  Z  M 18,49  L 19,49  L 19,50  L 18,50  Z  M 14,53  L 15,53  L 15,54  L 14,54  Z  M 19,52  L 18,52  L 18,51  L 19,51  Z  M 15,56  L 15,55  L 16,55  L 16,56  Z  " style="fill:rgb(134, 123, 119); fill-opacity:1.000; stroke:none;" />
 <path d="  M 16,62  L 16,61  L 13,61  L 13,62  Z  " style="fill:rgb(134, 123, 119); fill-opacity:1.000; stroke:none;" />
 <path d="  M 13,64  L 14,64  L 14,63  L 13,63  Z  " style="fill:rgb(134, 123, 119); fill-opacity:1.000; stroke:none;" />
 <path d="  M 15,26  L 14,26  L 14,27  L 15,27  Z  " style="fill:rgb(134, 123, 119); fill-opacity:1.000; stroke:none;" />
 <path d="  M 15,32  L 15,30  L 17,30  L 17,28  L 16,28  L 16,27  L 15,27  L 15,29  L 14,29  L 14,32  Z  " style="fill:rgb(134, 123, 119); fill-opacity:1.000; stroke:none;" />
 <path d="  M 15,45  L 15,44  L 14,44  L 14,45  Z  " style="fill:rgb(134, 123, 119); fill-opacity:1.000; stroke:none;" />
 <path d="  M 19,38  L 20,38  L 20,37  L 21,37  L 21,36  L 20,36  L 20,35  L 19,35  L 19,34  L 17,34  L 17,33  L 16,33  L 16,34  L 15,34  L 15,35  L 16,35  L 16,36  L 17,36  L 17,37  L 19,37  Z  M 17,35  L 18,35  L 18,36  L 17,36  Z  " style="fill:rgb(134, 123, 119); fill-opacity:1.000; stroke:none;" />
 <path d="  M 16,45  L 15,45  L 15,46  L 16,46  Z  " style="fill:rgb(134, 123, 119); fill-opacity:1.000; stroke:none;" />
 <path d="  M 16,50  L 16,49  L 15,49  L 15,50  Z  " style="fill:rgb(134, 123, 119); fill-opacity:1.000; stroke:none;" />
 <path d="  M 15,59  L 15,60  L 16,60  L 16,59  Z  " style="fill:rgb(134, 123, 119); fill-opacity:1.000; stroke:none;" />
 <path d="  M 17,38  L 17,37  L 16,37  L 16,38  Z  " style="fill:rgb(134, 123, 119); fill-opacity:1.000; stroke:none;" />
 <path d="  M 17,39  L 16,39  L 16,40  L 17,40  Z  " style="fill:rgb(134, 123, 119); fill-opacity:1.000; stroke:none;" />
 <path d="  M 17,44  L 17,43  L 16,43  L 16,44  Z  " style="fill:rgb(134, 123, 119); fill-opacity:1.000; stroke:none;" />
 <path d="  M 16,48  L 17,48  L 17,47  L 16,47  Z  " style="fill:rgb(134, 123, 119); fill-opacity:1.000; stroke:none;" />
 <path d="  M 16,61  L 17,61  L 17,60  L 16,60  Z  " style="fill:rgb(134, 123, 119); fill-opacity:1.000; stroke:none;" />
 <path d="  M 18,32  L 17,32  L 17,33  L 18,33  Z  " style="fill:rgb(134, 123, 119); fill-opacity:1.000; stroke:none;" />
 <path d="  M 17,38  L 17,39  L 18,39  L 18,38  Z  " style="fill:rgb(134, 123, 119); fill-opacity:1.000; stroke:none;" />
 <path d="  M 18,47  L 18,45  L 17,45  L 17,47  Z  " style="fill:rgb(134, 123, 119); fill-opacity:1.000; stroke:none;" />
 <path d="  M 17,58  L 17,59  L 18,59  L 18,60  L 19,60  L 19,61  L 20,61  L 20,62  L 21,62  L 21,63  L 22,63  L 22,64  L 25,64  L 25,63  L 24,63  L 24,62  L 23,62  L 23,61  L 22,61  L 22,60  L 21,60  L 21,59  L 20,59  L 20,57  L 21,57  L 21,56  L 20,56  L 20,55  L 19,55  L 19,57  L 18,57  L 18,58  Z  " style="fill:rgb(134, 123, 119); fill-opacity:1.000; stroke:none;" />
 <path d="  M 19,63  L 19,61  L 18,61  L 18,62  L 17,62  L 17,63  Z  " style="fill:rgb(134, 123, 119); fill-opacity:1.000; stroke:none;" />
 <path d="  M 19,34  L 20,34  L 20,33  L 19,33  Z  " style="fill:rgb(134, 123, 119); fill-opacity:1.000; stroke:none;" />
 <path d="  M 21,27  L 20,27  L 20,28  L 21,28  Z  " style="fill:rgb(134, 123, 119); fill-opacity:1.000; stroke:none;" />
 <path d="  M 21,29  L 20,29  L 20,30  L 21,30  Z  " style="fill:rgb(134, 123, 119); fill-opacity:1.000; stroke:none;" />
 <path d="  M 22,35  L 23,35  L 23,34  L 22,34  L 22,33  L 23,33  L 23,31  L 22,31  L 22,32  L 20,32  L 20,33  L 21,33  L 21,34  L 20,34  L 20,35  L 21,35  L 21,36  L 22,36  Z  " style="fill:rgb(134, 123, 119); fill-opacity:1.000; stroke:none;" />
 <path d="  M 20,44  L 20,45  L 21,45  L 21,44  Z  " style="fill:rgb(134, 123, 119); fill-opacity:1.000; stroke:none;" />
 <path d="  M 20,46  L 20,47  L 21,47  L 21,46  Z  " style="fill:rgb(134, 123, 119); fill-opacity:1.000; stroke:none;" />
 <path d="  M 20,63  L 20,64  L 21,64  L 21,63  Z  " style="fill:rgb(134, 123, 119); fill-opacity:1.000; stroke:none;" />
 <path d="  M 22,26  L 22,25  L 21,25  L 21,26  Z  " style="fill:rgb(134, 123, 119); fill-opacity:1.000; stroke:none;" />
 <path d="  M 21,28  L 21,29  L 22,29  L 22,28  Z  " style="fill:rgb(134, 123, 119); fill-opacity:1.000; stroke:none;" />
 <path d="  M 21,31  L 22,31  L 22,30  L 21,30  Z  " style="fill:rgb(134, 123, 119); fill-opacity:1.000; stroke:none;" />
 <path d="  M 21,41  L 21,42  L 22,42  L 22,41  Z  " style="fill:rgb(134, 123, 119); fill-opacity:1.000; stroke:none;" />
 <path d="  M 23,44  L 24,44  L 24,43  L 23,43  L 23,42  L 22,42  L 22,43  L 21,43  L 21,44  L 22,44  L 22,45  L 21,45  L 21,46  L 22,46  L 22,47  L 21,47  L 21,49  L 22,49  L 22,51  L 23,51  L 23,49  L 24,49  L 24,46  L 23,46  Z  " style="fill:rgb(134, 123, 119); fill-opacity:1.000; stroke:none;" />
 <path d="  M 22,55  L 22,53  L 21,53  L 21,55  Z  " style="fill:rgb(134, 123, 119); fill-opacity:1.000; stroke:none;" />
 <path d="  M 21,59  L 22,59  L 22,58  L 23,58  L 23,57  L 24,57  L 24,56  L 23,56  L 23,55  L 22,55  L 22,57  L 21,57  Z  " style="fill:rgb(134, 123, 119); fill-opacity:1.000; stroke:none;" />
 <path d="  M 22,25  L 23,25  L 23,26  L 24,26  L 24,25  L 25,25  L 25,24  L 24,24  L 24,22  L 23,22  L 23,24  L 22,24  Z  " style="fill:rgb(134, 123, 119); fill-opacity:1.000; stroke:none;" />
 <path d="  M 23,29  L 24,29  L 24,27  L 23,27  L 23,26  L 22,26  L 22,28  L 23,28  Z  " style="fill:rgb(134, 123, 119); fill-opacity:1.000; stroke:none;" />
 <path d="  M 23,30  L 23,29  L 22,29  L 22,30  Z  " style="fill:rgb(134, 123, 119); fill-opacity:1.000; stroke:none;" />
 <path d="  M 23,36  L 22,36  L 22,37  L 23,37  Z  " style="fill:rgb(134, 123, 119); fill-opacity:1.000; stroke:none;" />
 <path d="  M 23,54  L 24,54  L 24,55  L 25,55  L 25,51  L 23,51  L 23,52  L 22,52  L 22,53  L 23,53  Z  " style="fill:rgb(134, 123, 119); fill-opacity:1.000; stroke:none;" />
 <path d="  M 24,33  L 23,33  L 23,34  L 24,34  Z  " style="fill:rgb(134, 123, 119); fill-opacity:1.000; stroke:none;" />
 <path d="  M 25,26  L 24,26  L 24,27  L 25,27  Z  " style="fill:rgb(134, 123, 119); fill-opacity:1.000; stroke:none;" />
 <path d="  M 24,31  L 24,32  L 25,32  L 25,31  Z  " style="fill:rgb(134, 123, 119); fill-opacity:1.000; stroke:none;" />
 <path d="  M 26,37  L 26,36  L 24,36  L 24,37  Z  " style="fill:rgb(134, 123, 119); fill-opacity:1.000; stroke:none;" />
 <path d="  M 24,45  L 25,45  L 25,44  L 24,44  Z  " style="fill:rgb(134, 123, 119); fill-opacity:1.000; stroke:none;" />
 <path d="  M 25,27  L 25,28  L 26,28  L 26,27  Z  " style="fill:rgb(134, 123, 119); fill-opacity:1.000; stroke:none;" />
 <path d="  M 26,30  L 25,30  L 25,31  L 26,31  Z  " style="fill:rgb(134, 123, 119); fill-opacity:1.000; stroke:none;" />
 <path d="  M 25,32  L 25,33  L 26,33  L 26,32  Z  " style="fill:rgb(134, 123, 119); fill-opacity:1.000; stroke:none;" />
 <path d="  M 26,35  L 26,34  L 25,34  L 25,35  Z  " style="fill:rgb(134, 123, 119); fill-opacity:1.000; stroke:none;" />
 <path d="  M 25,59  L 27,59  L 27,60  L 28,60  L 28,59  L 29,59  L 29,58  L 28,58  L 28,57  L 29,57  L 29,56  L 28,56  L 28,55  L 31,55  L 31,54  L 30,54  L 30,52  L 31,52  L 31,53  L 32,53  L 32,51  L 31,51  L 31,48  L 32,48  L 32,46  L 31,46  L 31,47  L 30,47  L 30,48  L 29,48  L 29,49  L 30,49  L 30,50  L 29,50  L 29,52  L 28,52  L 28,53  L 27,53  L 27,56  L 26,56  L 26,58  L 25,58  Z  " style="fill:rgb(134, 123, 119); fill-opacity:1.000; stroke:none;" />
 <path d="  M 27,29  L 26,29  L 26,30  L 27,30  Z  " style="fill:rgb(134, 123, 119); fill-opacity:1.000; stroke:none;" />
 <path d="  M 26,34  L 27,34  L 27,33  L 26,33  Z  " style="fill:rgb(134, 123, 119); fill-opacity:1.000; stroke:none;" />
 <path d="  M 27,40  L 26,40  L 26,41  L 27,41  Z  " style="fill:rgb(134, 123, 119); fill-opacity:1.000; stroke:none;" />
 <path d="  M 26,45  L 26,46  L 27,46  L 27,45  Z  " style="fill:rgb(134, 123, 119); fill-opacity:1.000; stroke:none;" />
 <path d="  M 27,61  L 27,60  L 26,60  L 26,61  Z  " style="fill:rgb(134, 123, 119); fill-opacity:1.000; stroke:none;" />
 <path d="  M 31,40  L 31,41  L 32,41  L 32,40  L 33,40  L 33,39  L 31,39  L 31,36  L 32,36  L 32,34  L 31,34  L 31,35  L 30,35  L 30,36  L 29,36  L 29,35  L 27,35  L 27,36  L 28,36  L 28,37  L 29,37  L 29,39  L 30,39  L 30,40  Z  " style="fill:rgb(134, 123, 119); fill-opacity:1.000; stroke:none;" />
 <path d="  M 28,39  L 28,37  L 27,37  L 27,39  Z  " style="fill:rgb(134, 123, 119); fill-opacity:1.000; stroke:none;" />
 <path d="  M 28,43  L 28,42  L 27,42  L 27,45  L 28,45  L 28,44  L 29,44  L 29,43  Z  " style="fill:rgb(134, 123, 119); fill-opacity:1.000; stroke:none;" />
 <path d="  M 28,52  L 28,51  L 27,51  L 27,52  Z  " style="fill:rgb(134, 123, 119); fill-opacity:1.000; stroke:none;" />
 <path d="  M 28,23  L 28,25  L 29,25  L 29,26  L 32,26  L 32,24  L 31,24  L 31,23  Z  M 31,25  L 30,25  L 30,24  L 31,24  Z  " style="fill:rgb(134, 123, 119); fill-opacity:1.000; stroke:none;" />
 <path d="  M 28,27  L 29,27  L 29,26  L 28,26  Z  " style="fill:rgb(134, 123, 119); fill-opacity:1.000; stroke:none;" />
 <path d="  M 28,41  L 28,42  L 29,42  L 29,41  Z  " style="fill:rgb(134, 123, 119); fill-opacity:1.000; stroke:none;" />
 <path d="  M 28,62  L 29,62  L 29,61  L 28,61  Z  " style="fill:rgb(134, 123, 119); fill-opacity:1.000; stroke:none;" />
 <path d="  M 29,35  L 30,35  L 30,34  L 29,34  Z  " style="fill:rgb(134, 123, 119); fill-opacity:1.000; stroke:none;" />
 <path d="  M 29,40  L 29,41  L 30,41  L 30,40  Z  " style="fill:rgb(134, 123, 119); fill-opacity:1.000; stroke:none;" />
 <path d="  M 29,42  L 29,43  L 30,43  L 30,44  L 31,44  L 31,45  L 32,45  L 32,43  L 31,43  L 31,41  L 30,41  L 30,42  Z  " style="fill:rgb(134, 123, 119); fill-opacity:1.000; stroke:none;" />
 <path d="  M 29,47  L 30,47  L 30,44  L 29,44  Z  " style="fill:rgb(134, 123, 119); fill-opacity:1.000; stroke:none;" />
 <path d="  M 36,57  L 35,57  L 35,55  L 34,55  L 34,53  L 33,53  L 33,57  L 34,57  L 34,60  L 33,60  L 33,59  L 32,59  L 32,58  L 31,58  L 31,57  L 29,57  L 29,58  L 30,58  L 30,59  L 31,59  L 31,60  L 29,60  L 29,61  L 30,61  L 30,62  L 31,62  L 31,61  L 33,61  L 33,62  L 34,62  L 34,63  L 33,63  L 33,64  L 36,64  L 36,63  L 37,63  L 37,61  L 38,61  L 38,59  L 37,59  L 37,56  L 36,56  Z  M 35,60  L 35,61  L 34,61  L 34,60  Z  " style="fill:rgb(134, 123, 119); fill-opacity:1.000; stroke:none;" />
 <path d="  M 30,27  L 30,28  L 32,28  L 32,27  Z  " style="fill:rgb(134, 123, 119); fill-opacity:1.000; stroke:none;" />
 <path d="  M 31,55  L 31,56  L 32,56  L 32,55  Z  " style="fill:rgb(134, 123, 119); fill-opacity:1.000; stroke:none;" />
 <path d="  M 33,26  L 32,26  L 32,27  L 33,27  Z  " style="fill:rgb(134, 123, 119); fill-opacity:1.000; stroke:none;" />
 <path d="  M 32,29  L 33,29  L 33,28  L 32,28  Z  " style="fill:rgb(134, 123, 119); fill-opacity:1.000; stroke:none;" />
 <path d="  M 32,42  L 32,43  L 33,43  L 33,42  Z  " style="fill:rgb(134, 123, 119); fill-opacity:1.000; stroke:none;" />
 <path d="  M 32,63  L 33,63  L 33,62  L 32,62  Z  " style="fill:rgb(134, 123, 119); fill-opacity:1.000; stroke:none;" />
 <path d="  M 34,23  L 34,22  L 33,22  L 33,23  Z  " style="fill:rgb(134, 123, 119); fill-opacity:1.000; stroke:none;" />
 <path d="  M 34,27  L 33,27  L 33,28  L 34,28  Z  " style="fill:rgb(134, 123, 119); fill-opacity:1.000; stroke:none;" />
 <path d="  M 33,29  L 33,30  L 34,30  L 34,29  Z  " style="fill:rgb(134, 123, 119); fill-opacity:1.000; stroke:none;" />
 <path d="  M 33,38  L 33,39  L 34,39  L 34,38  Z  " style="fill:rgb(134, 123, 119); fill-opacity:1.000; stroke:none;" />
 <path d="  M 38,24  L 37,24  L 37,23  L 36,23  L 36,24  L 35,24  L 35,23  L 34,23  L 34,25  L 35,25  L 35,26  L 36,26  L 36,25  L 37,25  L 37,26  L 38,26  Z  " style="fill:rgb(134, 123, 119); fill-opacity:1.000; stroke:none;" />
 <path d="  M 34,28  L 34,29  L 35,29  L 35,28  Z  " style="fill:rgb(134, 123, 119); fill-opacity:1.000; stroke:none;" />
 <path d="  M 35,32  L 35,31  L 34,31  L 34,32  Z  " style="fill:rgb(134, 123, 119); fill-opacity:1.000; stroke:none;" />
 <path d="  M 34,38  L 36,38  L 36,37  L 35,37  L 35,36  L 34,36  Z  " style="fill:rgb(134, 123, 119); fill-opacity:1.000; stroke:none;" />
 <path d="  M 36,42  L 35,42  L 35,43  L 34,43  L 34,46  L 35,46  L 35,45  L 36,45  L 36,44  L 37,44  L 37,43  L 36,43  Z  " style="fill:rgb(134, 123, 119); fill-opacity:1.000; stroke:none;" />
 <path d="  M 36,47  L 35,47  L 35,48  L 34,48  L 34,50  L 35,50  L 35,52  L 34,52  L 34,53  L 35,53  L 35,54  L 36,54  L 36,52  L 37,52  L 37,51  L 36,51  L 36,49  L 37,49  L 37,47  L 38,47  L 38,44  L 37,44  L 37,45  L 36,45  Z  " style="fill:rgb(134, 123, 119); fill-opacity:1.000; stroke:none;" />
 <path d="  M 35,29  L 35,31  L 36,31  L 36,32  L 37,32  L 37,30  L 36,30  L 36,29  Z  " style="fill:rgb(134, 123, 119); fill-opacity:1.000; stroke:none;" />
 <path d="  M 35,34  L 36,34  L 36,32  L 35,32  Z  " style="fill:rgb(134, 123, 119); fill-opacity:1.000; stroke:none;" />
 <path d="  M 37,40  L 38,40  L 38,41  L 37,41  Z  M 36,41  L 37,41  L 37,43  L 38,43  L 38,44  L 39,44  L 39,43  L 40,43  L 40,42  L 39,42  L 39,39  L 40,39  L 40,38  L 41,38  L 41,37  L 42,37  L 42,38  L 43,38  L 43,37  L 44,37  L 44,35  L 43,35  L 43,34  L 42,34  L 42,33  L 41,33  L 41,34  L 40,34  L 40,33  L 39,33  L 39,34  L 38,34  L 38,35  L 37,35  L 37,34  L 36,34  L 36,35  L 35,35  L 35,36  L 36,36  L 36,37  L 37,37  L 37,38  L 36,38  L 36,39  L 35,39  L 35,40  L 36,40  Z  M 40,37  L 40,38  L 39,38  L 39,37  Z  M 42,36  L 42,35  L 43,35  L 43,36  Z  " style="fill:rgb(134, 123, 119); fill-opacity:1.000; stroke:none;" />
 <path d="  M 37,28  L 36,28  L 36,29  L 37,29  Z  " style="fill:rgb(134, 123, 119); fill-opacity:1.000; stroke:none;" />
 <path d="  M 38,21  L 37,21  L 37,22  L 38,22  Z  " style="fill:rgb(134, 123, 119); fill-opacity:1.000; stroke:none;" />
 <path d="  M 37,34  L 38,34  L 38,32  L 37,32  Z  " style="fill:rgb(134, 123, 119); fill-opacity:1.000; stroke:none;" />
 <path d="  M 37,50  L 37,51  L 38,51  L 38,50  Z  " style="fill:rgb(134, 123, 119); fill-opacity:1.000; stroke:none;" />
 <path d="  M 38,55  L 39,55  L 39,54  L 40,54  L 40,53  L 41,53  L 41,52  L 42,52  L 42,51  L 41,51  L 41,49  L 39,49  L 39,51  L 38,51  L 38,53  L 37,53  L 37,54  L 38,54  Z  " style="fill:rgb(134, 123, 119); fill-opacity:1.000; stroke:none;" />
 <path d="  M 38,56  L 38,55  L 37,55  L 37,56  Z  " style="fill:rgb(134, 123, 119); fill-opacity:1.000; stroke:none;" />
 <path d="  M 39,21  L 39,20  L 38,20  L 38,21  Z  " style="fill:rgb(134, 123, 119); fill-opacity:1.000; stroke:none;" />
 <path d="  M 39,23  L 38,23  L 38,24  L 39,24  Z  " style="fill:rgb(134, 123, 119); fill-opacity:1.000; stroke:none;" />
 <path d="  M 38,31  L 38,32  L 39,32  L 39,31  Z  " style="fill:rgb(134, 123, 119); fill-opacity:1.000; stroke:none;" />
 <path d="  M 39,48  L 38,48  L 38,49  L 39,49  Z  " style="fill:rgb(134, 123, 119); fill-opacity:1.000; stroke:none;" />
 <path d="  M 40,27  L 39,27  L 39,28  L 40,28  Z  " style="fill:rgb(134, 123, 119); fill-opacity:1.000; stroke:none;" />
 <path d="  M 42,47  L 41,47  L 41,46  L 40,46  L 40,45  L 39,45  L 39,48  L 41,48  L 41,49  L 42,49  L 42,50  L 43,50  L 43,52  L 44,52  L 44,53  L 45,53  L 45,54  L 46,54  L 46,53  L 47,53  L 47,54  L 48,54  L 48,53  L 50,53  L 50,52  L 49,52  L 49,51  L 50,51  L 50,50  L 49,50  L 49,49  L 47,49  L 47,50  L 46,50  L 46,48  L 45,48  L 45,47  L 43,47  L 43,46  L 42,46  Z  M 43,50  L 43,49  L 44,49  L 44,50  Z  " style="fill:rgb(134, 123, 119); fill-opacity:1.000; stroke:none;" />
 <path d="  M 40,56  L 40,55  L 39,55  L 39,56  Z  " style="fill:rgb(134, 123, 119); fill-opacity:1.000; stroke:none;" />
 <path d="  M 43,26  L 43,25  L 42,25  L 42,24  L 41,24  L 41,26  L 40,26  L 40,27  L 42,27  L 42,26  Z  " style="fill:rgb(134, 123, 119); fill-opacity:1.000; stroke:none;" />
 <path d="  M 40,29  L 41,29  L 41,28  L 40,28  Z  " style="fill:rgb(134, 123, 119); fill-opacity:1.000; stroke:none;" />
 <path d="  M 41,32  L 40,32  L 40,33  L 41,33  Z  " style="fill:rgb(134, 123, 119); fill-opacity:1.000; stroke:none;" />
 <path d="  M 41,43  L 40,43  L 40,45  L 41,45  Z  " style="fill:rgb(134, 123, 119); fill-opacity:1.000; stroke:none;" />
 <path d="  M 41,54  L 40,54  L 40,55  L 41,55  Z  " style="fill:rgb(134, 123, 119); fill-opacity:1.000; stroke:none;" />
 <path d="  M 41,62  L 40,62  L 40,63  L 41,63  Z  " style="fill:rgb(134, 123, 119); fill-opacity:1.000; stroke:none;" />
 <path d="  M 42,45  L 41,45  L 41,46  L 42,46  Z  " style="fill:rgb(134, 123, 119); fill-opacity:1.000; stroke:none;" />
 <path d="  M 42,53  L 41,53  L 41,54  L 42,54  Z  " style="fill:rgb(134, 123, 119); fill-opacity:1.000; stroke:none;" />
 <path d="  M 42,55  L 41,55  L 41,56  L 42,56  Z  " style="fill:rgb(134, 123, 119); fill-opacity:1.000; stroke:none;" />
 <path d="  M 42,63  L 44,63  L 44,62  L 43,62  L 43,61  L 41,61  L 41,62  L 42,62  Z  " style="fill:rgb(134, 123, 119); fill-opacity:1.000; stroke:none;" />
 <path d="  M 43,28  L 42,28  L 42,29  L 43,29  Z  " style="fill:rgb(134, 123, 119); fill-opacity:1.000; stroke:none;" />
 <path d="  M 44,26  L 43,26  L 43,28  L 45,28  L 45,27  L 44,27  Z  " style="fill:rgb(134, 123, 119); fill-opacity:1.000; stroke:none;" />
 <path d="  M 45,30  L 43,30  L 43,31  L 44,31  L 44,32  L 45,32  Z  " style="fill:rgb(134, 123, 119); fill-opacity:1.000; stroke:none;" />
 <path d="  M 43,33  L 43,34  L 44,34  L 44,35  L 45,35  L 45,33  Z  " style="fill:rgb(134, 123, 119); fill-opacity:1.000; stroke:none;" />
 <path d="  M 50,61  L 52,61  L 52,60  L 55,60  L 55,59  L 56,59  L 56,58  L 54,58  L 54,57  L 53,57  L 53,55  L 52,55  L 52,58  L 51,58  L 51,57  L 49,57  L 49,59  L 48,59  L 48,60  L 46,60  L 46,59  L 45,59  L 45,60  L 44,60  L 44,59  L 43,59  L 43,61  L 44,61  L 44,62  L 45,62  L 45,63  L 44,63  L 44,64  L 46,64  L 46,63  L 48,63  L 48,62  L 49,62  L 49,63  L 50,63  Z  M 50,61  L 49,61  L 49,60  L 50,60  Z  " style="fill:rgb(134, 123, 119); fill-opacity:1.000; stroke:none;" />
 <path d="  M 50,38  L 49,38  L 49,36  L 50,36  L 50,37  L 52,37  L 52,36  L 51,36  L 51,35  L 49,35  L 49,34  L 50,34  L 50,33  L 51,33  L 51,31  L 50,31  L 50,32  L 49,32  L 49,33  L 48,33  L 48,32  L 47,32  L 47,34  L 46,34  L 46,36  L 45,36  L 45,37  L 44,37  L 44,40  L 45,40  L 45,39  L 46,39  L 46,41  L 45,41  L 45,44  L 46,44  L 46,46  L 47,46  L 47,44  L 48,44  L 48,43  L 49,43  L 49,40  L 50,40  Z  M 46,37  L 46,38  L 45,38  L 45,37  Z  M 46,41  L 47,41  L 47,42  L 46,42  Z  " style="fill:rgb(134, 123, 119); fill-opacity:1.000; stroke:none;" />
 <path d="  M 44,55  L 45,55  L 45,54  L 44,54  Z  " style="fill:rgb(134, 123, 119); fill-opacity:1.000; stroke:none;" />
 <path d="  M 45,29  L 45,30  L 46,30  L 46,31  L 47,31  L 47,30  L 48,30  L 48,29  L 47,29  L 47,28  L 46,28  L 46,29  Z  " style="fill:rgb(134, 123, 119); fill-opacity:1.000; stroke:none;" />
 <path d="  M 46,33  L 46,32  L 45,32  L 45,33  Z  " style="fill:rgb(134, 123, 119); fill-opacity:1.000; stroke:none;" />
 <path d="  M 45,56  L 46,56  L 46,55  L 45,55  Z  " style="fill:rgb(134, 123, 119); fill-opacity:1.000; stroke:none;" />
 <path d="  M 47,56  L 48,56  L 48,55  L 47,55  Z  " style="fill:rgb(134, 123, 119); fill-opacity:1.000; stroke:none;" />
 <path d="  M 48,32  L 49,32  L 49,31  L 48,31  Z  " style="fill:rgb(134, 123, 119); fill-opacity:1.000; stroke:none;" />
 <path d="  M 50,49  L 52,49  L 52,48  L 51,48  L 51,47  L 50,47  Z  " style="fill:rgb(134, 123, 119); fill-opacity:1.000; stroke:none;" />
 <path d="  M 50,52  L 51,52  L 51,51  L 50,51  Z  " style="fill:rgb(134, 123, 119); fill-opacity:1.000; stroke:none;" />
 <path d="  M 51,31  L 52,31  L 52,32  L 53,32  L 53,30  L 52,30  L 52,29  L 51,29  Z  " style="fill:rgb(134, 123, 119); fill-opacity:1.000; stroke:none;" />
 <path d="  M 51,35  L 52,35  L 52,34  L 53,34  L 53,33  L 51,33  Z  " style="fill:rgb(134, 123, 119); fill-opacity:1.000; stroke:none;" />
 <path d="  M 52,39  L 52,38  L 51,38  L 51,39  Z  " style="fill:rgb(134, 123, 119); fill-opacity:1.000; stroke:none;" />
 <path d="  M 53,45  L 52,45  L 52,46  L 51,46  L 51,47  L 52,47  L 52,48  L 53,48  L 53,46  L 54,46  L 54,45  L 55,45  L 55,44  L 56,44  L 56,43  L 57,43  L 57,42  L 56,42  L 56,41  L 55,41  L 55,40  L 54,40  L 54,41  L 53,41  L 53,43  L 54,43  L 54,44  L 53,44  Z  M 55,43  L 54,43  L 54,42  L 55,42  Z  " style="fill:rgb(134, 123, 119); fill-opacity:1.000; stroke:none;" />
 <path d="  M 53,36  L 53,35  L 52,35  L 52,36  Z  " style="fill:rgb(134, 123, 119); fill-opacity:1.000; stroke:none;" />
 <path d="  M 53,37  L 52,37  L 52,38  L 53,38  Z  " style="fill:rgb(134, 123, 119); fill-opacity:1.000; stroke:none;" />
 <path d="  M 52,41  L 53,41  L 53,40  L 52,40  Z  " style="fill:rgb(134, 123, 119); fill-opacity:1.000; stroke:none;" />
 <path d="  M 55,30  L 55,29  L 54,29  L 54,28  L 53,28  L 53,30  Z  " style="fill:rgb(134, 123, 119); fill-opacity:1.000; stroke:none;" />
 <path d="  M 53,39  L 53,40  L 54,40  L 54,39  Z  " style="fill:rgb(134, 123, 119); fill-opacity:1.000; stroke:none;" />
 <path d="  M 56,55  L 56,54  L 54,54  L 54,53  L 53,53  L 53,55  L 54,55  L 54,57  L 55,57  L 55,55  Z  " style="fill:rgb(134, 123, 119); fill-opacity:1.000; stroke:none;" />
 <path d="  M 54,27  L 54,28  L 55,28  L 55,27  Z  " style="fill:rgb(134, 123, 119); fill-opacity:1.000; stroke:none;" />
 <path d="  M 54,34  L 55,34  L 55,33  L 54,33  Z  " style="fill:rgb(134, 123, 119); fill-opacity:1.000; stroke:none;" />
 <path d="  M 55,48  L 54,48  L 54,49  L 55,49  Z  " style="fill:rgb(134, 123, 119); fill-opacity:1.000; stroke:none;" />
 <path d="  M 55,52  L 55,51  L 54,51  L 54,52  Z  " style="fill:rgb(134, 123, 119); fill-opacity:1.000; stroke:none;" />
 <path d="  M 55,27  L 56,27  L 56,26  L 55,26  Z  " style="fill:rgb(134, 123, 119); fill-opacity:1.000; stroke:none;" />
 <path d="  M 55,35  L 56,35  L 56,36  L 55,36  L 55,37  L 57,37  L 57,36  L 58,36  L 58,35  L 57,35  L 57,34  L 58,34  L 58,31  L 57,31  L 57,29  L 56,29  L 56,31  L 55,31  L 55,33  L 56,33  L 56,34  L 55,34  Z  " style="fill:rgb(134, 123, 119); fill-opacity:1.000; stroke:none;" />
 <path d="  M 57,54  L 57,53  L 58,53  L 58,54  L 59,54  L 59,53  L 60,53  L 60,52  L 59,52  L 59,49  L 58,49  L 58,48  L 57,48  L 57,50  L 56,50  L 56,49  L 55,49  L 55,51  L 56,51  L 56,52  L 55,52  L 55,53  L 56,53  L 56,54  Z  " style="fill:rgb(134, 123, 119); fill-opacity:1.000; stroke:none;" />
 <path d="  M 56,48  L 57,48  L 57,47  L 56,47  Z  " style="fill:rgb(134, 123, 119); fill-opacity:1.000; stroke:none;" />
 <path d="  M 57,57  L 56,57  L 56,58  L 57,58  Z  " style="fill:rgb(134, 123, 119); fill-opacity:1.000; stroke:none;" />
 <path d="  M 58,37  L 57,37  L 57,38  L 58,38  Z  " style="fill:rgb(134, 123, 119); fill-opacity:1.000; stroke:none;" />
 <path d="  M 57,47  L 58,47  L 58,45  L 57,45  Z  " style="fill:rgb(134, 123, 119); fill-opacity:1.000; stroke:none;" />
 <path d="  M 58,54  L 57,54  L 57,56  L 58,56  Z  " style="fill:rgb(134, 123, 119); fill-opacity:1.000; stroke:none;" />
 <path d="  M 59,35  L 59,34  L 58,34  L 58,35  Z  " style="fill:rgb(134, 123, 119); fill-opacity:1.000; stroke:none;" />
 <path d="  M 58,39  L 59,39  L 59,38  L 58,38  Z  " style="fill:rgb(134, 123, 119); fill-opacity:1.000; stroke:none;" />
 <path d="  M 59,37  L 60,37  L 60,36  L 59,36  Z  " style="fill:rgb(134, 123, 119); fill-opacity:1.000; stroke:none;" />
 <path d="  M 59,47  L 59,48  L 60,48  L 60,47  Z  " style="fill:rgb(134, 123, 119); fill-opacity:1.000; stroke:none;" />
 <path d="  M 60,32  L 60,36  L 61,36  L 61,32  Z  " style="fill:rgb(134, 123, 119); fill-opacity:1.000; stroke:none;" />
 <path d="  M 60,51  L 61,51  L 61,50  L 60,50  Z  " style="fill:rgb(134, 123, 119); fill-opacity:1.000; stroke:none;" />
 <path d="  M 60,54  L 61,54  L 61,53  L 60,53  Z  " style="fill:rgb(134, 123, 119); fill-opacity:1.000; stroke:none;" />
 <path d="  M 61,53  L 62,53  L 62,51  L 61,51  Z  " style="fill:rgb(134, 123, 119); fill-opacity:1.000; stroke:none;" />
 <path d="  M 62,51  L 63,51  L 63,53  L 64,53  L 64,47  L 63,47  L 63,48  L 62,48  Z  " style="fill:rgb(134, 123, 119); fill-opacity:1.000; stroke:none;" />
 <path d="  M 5,54  L 5,52  L 3,52  L 3,53  L 4,53  L 4,54  Z  " style="fill:rgb(153, 147, 141); fill-opacity:1.000; stroke:none;" />
 <path d="  M 4,28  L 4,29  L 5,29  L 5,28  Z  " style="fill:rgb(153, 147, 141); fill-opacity:1.000; stroke:none;" />
 <path d="  M 5,39  L 5,37  L 4,37  L 4,39  Z  " style="fill:rgb(153, 147, 141); fill-opacity:1.000; stroke:none;" />
 <path d="  M 4,56  L 5,56  L 5,55  L 4,55  Z  " style="fill:rgb(153, 147, 141); fill-opacity:1.000; stroke:none;" />
 <path d="  M 8,32  L 8,31  L 7,31  L 7,30  L 6,30  L 6,29  L 5,29  L 5,31  L 6,31  L 6,33  L 7,33  L 7,32  Z  " style="fill:rgb(153, 147, 141); fill-opacity:1.000; stroke:none;" />
 <path d="  M 5,37  L 6,37  L 6,36  L 7,36  L 7,35  L 6,35  L 6,34  L 5,34  Z  " style="fill:rgb(153, 147, 141); fill-opacity:1.000; stroke:none;" />
 <path d="  M 7,41  L 7,40  L 5,40  L 5,42  L 6,42  L 6,41  Z  " style="fill:rgb(153, 147, 141); fill-opacity:1.000; stroke:none;" />
 <path d="  M 5,55  L 6,55  L 6,54  L 5,54  Z  " style="fill:rgb(153, 147, 141); fill-opacity:1.000; stroke:none;" />
 <path d="  M 7,38  L 7,37  L 6,37  L 6,38  Z  " style="fill:rgb(153, 147, 141); fill-opacity:1.000; stroke:none;" />
 <path d="  M 7,43  L 7,42  L 6,42  L 6,43  Z  " style="fill:rgb(153, 147, 141); fill-opacity:1.000; stroke:none;" />
 <path d="  M 6,55  L 6,56  L 7,56  L 7,55  Z  " style="fill:rgb(153, 147, 141); fill-opacity:1.000; stroke:none;" />
 <path d="  M 8,56  L 7,56  L 7,57  L 6,57  L 6,58  L 8,58  Z  " style="fill:rgb(153, 147, 141); fill-opacity:1.000; stroke:none;" />
 <path d="  M 7,34  L 8,34  L 8,33  L 7,33  Z  " style="fill:rgb(153, 147, 141); fill-opacity:1.000; stroke:none;" />
 <path d="  M 8,38  L 7,38  L 7,39  L 8,39  Z  " style="fill:rgb(153, 147, 141); fill-opacity:1.000; stroke:none;" />
 <path d="  M 9,42  L 9,41  L 7,41  L 7,42  Z  " style="fill:rgb(153, 147, 141); fill-opacity:1.000; stroke:none;" />
 <path d="  M 8,55  L 8,54  L 7,54  L 7,55  Z  " style="fill:rgb(153, 147, 141); fill-opacity:1.000; stroke:none;" />
 <path d="  M 9,36  L 9,35  L 8,35  L 8,36  Z  " style="fill:rgb(153, 147, 141); fill-opacity:1.000; stroke:none;" />
 <path d="  M 8,39  L 8,40  L 9,40  L 9,39  Z  " style="fill:rgb(153, 147, 141); fill-opacity:1.000; stroke:none;" />
 <path d="  M 9,59  L 9,58  L 8,58  L 8,59  Z  " style="fill:rgb(153, 147, 141); fill-opacity:1.000; stroke:none;" />
 <path d="  M 10,43  L 10,42  L 9,42  L 9,43  Z  " style="fill:rgb(153, 147, 141); fill-opacity:1.000; stroke:none;" />
 <path d="  M 10,57  L 9,57  L 9,58  L 10,58  Z  " style="fill:rgb(153, 147, 141); fill-opacity:1.000; stroke:none;" />
 <path d="  M 12,41  L 12,40  L 11,40  L 11,39  L 10,39  L 10,42  L 11,42  L 11,41  Z  " style="fill:rgb(153, 147, 141); fill-opacity:1.000; stroke:none;" />
 <path d="  M 11,47  L 11,46  L 10,46  L 10,47  Z  " style="fill:rgb(153, 147, 141); fill-opacity:1.000; stroke:none;" />
 <path d="  M 11,57  L 11,56  L 10,56  L 10,57  Z  " style="fill:rgb(153, 147, 141); fill-opacity:1.000; stroke:none;" />
 <path d="  M 12,59  L 12,60  L 13,60  L 13,61  L 16,61  L 16,60  L 14,60  L 14,59  L 13,59  L 13,58  L 10,58  L 10,59  Z  " style="fill:rgb(153, 147, 141); fill-opacity:1.000; stroke:none;" />
 <path d="  M 10,61  L 10,62  L 11,62  L 11,61  Z  " style="fill:rgb(153, 147, 141); fill-opacity:1.000; stroke:none;" />
 <path d="  M 12,42  L 11,42  L 11,43  L 12,43  Z  " style="fill:rgb(153, 147, 141); fill-opacity:1.000; stroke:none;" />
 <path d="  M 13,48  L 13,47  L 14,47  L 14,46  L 13,46  L 13,45  L 11,45  L 11,46  L 12,46  L 12,47  L 11,47  L 11,49  L 12,49  L 12,48  Z  " style="fill:rgb(153, 147, 141); fill-opacity:1.000; stroke:none;" />
 <path d="  M 12,60  L 11,60  L 11,61  L 12,61  Z  " style="fill:rgb(153, 147, 141); fill-opacity:1.000; stroke:none;" />
 <path d="  M 13,21  L 12,21  L 12,22  L 13,22  Z  " style="fill:rgb(153, 147, 141); fill-opacity:1.000; stroke:none;" />
 <path d="  M 14,23  L 12,23  L 12,25  L 13,25  L 13,24  L 14,24  Z  " style="fill:rgb(153, 147, 141); fill-opacity:1.000; stroke:none;" />
 <path d="  M 13,49  L 12,49  L 12,50  L 13,50  Z  " style="fill:rgb(153, 147, 141); fill-opacity:1.000; stroke:none;" />
 <path d="  M 15,27  L 16,27  L 16,25  L 15,25  L 15,24  L 14,24  L 14,25  L 13,25  L 13,28  L 14,28  L 14,29  L 15,29  Z  M 14,27  L 14,26  L 15,26  L 15,27  Z  " style="fill:rgb(153, 147, 141); fill-opacity:1.000; stroke:none;" />
 <path d="  M 13,29  L 13,30  L 14,30  L 14,29  Z  " style="fill:rgb(153, 147, 141); fill-opacity:1.000; stroke:none;" />
 <path d="  M 15,34  L 13,34  L 13,35  L 15,35  Z  " style="fill:rgb(153, 147, 141); fill-opacity:1.000; stroke:none;" />
 <path d="  M 15,45  L 14,45  L 14,46  L 15,46  Z  " style="fill:rgb(153, 147, 141); fill-opacity:1.000; stroke:none;" />
 <path d="  M 16,31  L 16,30  L 15,30  L 15,31  Z  " style="fill:rgb(153, 147, 141); fill-opacity:1.000; stroke:none;" />
 <path d="  M 15,36  L 16,36  L 16,35  L 15,35  Z  " style="fill:rgb(153, 147, 141); fill-opacity:1.000; stroke:none;" />
 <path d="  M 15,56  L 16,56  L 16,55  L 15,55  Z  " style="fill:rgb(153, 147, 141); fill-opacity:1.000; stroke:none;" />
 <path d="  M 21,56  L 21,57  L 22,57  L 22,55  L 21,55  L 21,53  L 22,53  L 22,52  L 23,52  L 23,51  L 22,51  L 22,49  L 21,49  L 21,47  L 20,47  L 20,46  L 19,46  L 19,49  L 20,49  L 20,50  L 21,50  L 21,51  L 20,51  L 20,52  L 19,52  L 19,53  L 18,53  L 18,54  L 17,54  L 17,56  L 16,56  L 16,58  L 15,58  L 15,59  L 16,59  L 16,60  L 17,60  L 17,61  L 19,61  L 19,60  L 18,60  L 18,59  L 17,59  L 17,58  L 18,58  L 18,57  L 19,57  L 19,55  L 20,55  L 20,56  Z  " style="fill:rgb(153, 147, 141); fill-opacity:1.000; stroke:none;" />
 <path d="  M 16,27  L 16,28  L 17,28  L 17,27  Z  " style="fill:rgb(153, 147, 141); fill-opacity:1.000; stroke:none;" />
 <path d="  M 16,36  L 16,37  L 17,37  L 17,36  Z  " style="fill:rgb(153, 147, 141); fill-opacity:1.000; stroke:none;" />
 <path d="  M 17,38  L 16,38  L 16,39  L 17,39  Z  " style="fill:rgb(153, 147, 141); fill-opacity:1.000; stroke:none;" />
 <path d="  M 16,53  L 16,54  L 17,54  L 17,53  Z  " style="fill:rgb(153, 147, 141); fill-opacity:1.000; stroke:none;" />
 <path d="  M 18,33  L 17,33  L 17,34  L 18,34  Z  " style="fill:rgb(153, 147, 141); fill-opacity:1.000; stroke:none;" />
 <path d="  M 18,35  L 17,35  L 17,36  L 18,36  Z  " style="fill:rgb(153, 147, 141); fill-opacity:1.000; stroke:none;" />
 <path d="  M 17,38  L 18,38  L 18,39  L 17,39  L 17,40  L 20,40  L 20,39  L 21,39  L 21,38  L 23,38  L 23,37  L 22,37  L 22,36  L 21,36  L 21,37  L 20,37  L 20,38  L 19,38  L 19,37  L 17,37  Z  " style="fill:rgb(153, 147, 141); fill-opacity:1.000; stroke:none;" />
 <path d="  M 18,50  L 19,50  L 19,49  L 18,49  Z  " style="fill:rgb(153, 147, 141); fill-opacity:1.000; stroke:none;" />
 <path d="  M 18,51  L 18,52  L 19,52  L 19,51  Z  " style="fill:rgb(153, 147, 141); fill-opacity:1.000; stroke:none;" />
 <path d="  M 20,62  L 20,61  L 19,61  L 19,62  Z  " style="fill:rgb(153, 147, 141); fill-opacity:1.000; stroke:none;" />
 <path d="  M 21,29  L 21,28  L 20,28  L 20,29  Z  " style="fill:rgb(153, 147, 141); fill-opacity:1.000; stroke:none;" />
 <path d="  M 21,36  L 21,35  L 20,35  L 20,36  Z  " style="fill:rgb(153, 147, 141); fill-opacity:1.000; stroke:none;" />
 <path d="  M 20,58  L 21,58  L 21,57  L 20,57  Z  " style="fill:rgb(153, 147, 141); fill-opacity:1.000; stroke:none;" />
 <path d="  M 22,30  L 22,29  L 21,29  L 21,30  Z  " style="fill:rgb(153, 147, 141); fill-opacity:1.000; stroke:none;" />
 <path d="  M 21,47  L 22,47  L 22,46  L 21,46  Z  " style="fill:rgb(153, 147, 141); fill-opacity:1.000; stroke:none;" />
 <path d="  M 23,29  L 23,28  L 22,28  L 22,29  Z  " style="fill:rgb(153, 147, 141); fill-opacity:1.000; stroke:none;" />
 <path d="  M 23,30  L 22,30  L 22,31  L 23,31  Z  " style="fill:rgb(153, 147, 141); fill-opacity:1.000; stroke:none;" />
 <path d="  M 22,33  L 22,34  L 23,34  L 23,33  Z  " style="fill:rgb(153, 147, 141); fill-opacity:1.000; stroke:none;" />
 <path d="  M 23,35  L 22,35  L 22,36  L 23,36  L 23,37  L 24,37  L 24,36  L 25,36  L 25,33  L 24,33  L 24,34  L 23,34  Z  " style="fill:rgb(153, 147, 141); fill-opacity:1.000; stroke:none;" />
 <path d="  M 23,55  L 23,54  L 22,54  L 22,55  Z  " style="fill:rgb(153, 147, 141); fill-opacity:1.000; stroke:none;" />
 <path d="  M 23,26  L 23,27  L 24,27  L 24,26  Z  " style="fill:rgb(153, 147, 141); fill-opacity:1.000; stroke:none;" />
 <path d="  M 23,29  L 23,30  L 24,30  L 24,29  Z  " style="fill:rgb(153, 147, 141); fill-opacity:1.000; stroke:none;" />
 <path d="  M 24,33  L 24,32  L 23,32  L 23,33  Z  " style="fill:rgb(153, 147, 141); fill-opacity:1.000; stroke:none;" />
 <path d="  M 24,50  L 23,50  L 23,51  L 24,51  Z  " style="fill:rgb(153, 147, 141); fill-opacity:1.000; stroke:none;" />
 <path d="  M 25,26  L 25,25  L 24,25  L 24,26  Z  " style="fill:rgb(153, 147, 141); fill-opacity:1.000; stroke:none;" />
 <path d="  M 24,29  L 25,29  L 25,27  L 24,27  Z  " style="fill:rgb(153, 147, 141); fill-opacity:1.000; stroke:none;" />
 <path d="  M 26,29  L 25,29  L 25,30  L 26,30  Z  " style="fill:rgb(153, 147, 141); fill-opacity:1.000; stroke:none;" />
 <path d="  M 33,54  L 32,54  L 32,53  L 31,53  L 31,52  L 30,52  L 30,54  L 31,54  L 31,55  L 28,55  L 28,56  L 29,56  L 29,57  L 31,57  L 31,58  L 32,58  L 32,59  L 33,59  L 33,60  L 34,60  L 34,57  L 33,57  Z  M 31,56  L 31,55  L 32,55  L 32,56  Z  " style="fill:rgb(153, 147, 141); fill-opacity:1.000; stroke:none;" />
 <path d="  M 29,22  L 29,23  L 30,23  L 30,22  Z  " style="fill:rgb(153, 147, 141); fill-opacity:1.000; stroke:none;" />
 <path d="  M 30,22  L 31,22  L 31,20  L 30,20  Z  " style="fill:rgb(153, 147, 141); fill-opacity:1.000; stroke:none;" />
 <path d="  M 31,24  L 30,24  L 30,25  L 31,25  Z  " style="fill:rgb(153, 147, 141); fill-opacity:1.000; stroke:none;" />
 <path d="  M 31,41  L 31,40  L 30,40  L 30,41  Z  " style="fill:rgb(153, 147, 141); fill-opacity:1.000; stroke:none;" />
 <path d="  M 31,45  L 31,44  L 30,44  L 30,47  L 31,47  L 31,46  L 32,46  L 32,45  Z  " style="fill:rgb(153, 147, 141); fill-opacity:1.000; stroke:none;" />
 <path d="  M 31,18  L 31,20  L 32,20  L 32,18  Z  " style="fill:rgb(153, 147, 141); fill-opacity:1.000; stroke:none;" />
 <path d="  M 31,23  L 31,24  L 32,24  L 32,23  Z  " style="fill:rgb(153, 147, 141); fill-opacity:1.000; stroke:none;" />
 <path d="  M 31,27  L 32,27  L 32,26  L 31,26  Z  " style="fill:rgb(153, 147, 141); fill-opacity:1.000; stroke:none;" />
 <path d="  M 32,43  L 32,41  L 31,41  L 31,43  Z  " style="fill:rgb(153, 147, 141); fill-opacity:1.000; stroke:none;" />
 <path d="  M 32,49  L 32,48  L 31,48  L 31,49  Z  " style="fill:rgb(153, 147, 141); fill-opacity:1.000; stroke:none;" />
 <path d="  M 31,50  L 31,51  L 32,51  L 32,50  Z  " style="fill:rgb(153, 147, 141); fill-opacity:1.000; stroke:none;" />
 <path d="  M 33,20  L 32,20  L 32,22  L 33,22  Z  " style="fill:rgb(153, 147, 141); fill-opacity:1.000; stroke:none;" />
 <path d="  M 36,27  L 36,26  L 35,26  L 35,25  L 33,25  L 33,24  L 32,24  L 32,26  L 33,26  L 33,27  L 34,27  L 34,28  L 35,28  L 35,29  L 36,29  L 36,28  L 37,28  L 37,27  Z  " style="fill:rgb(153, 147, 141); fill-opacity:1.000; stroke:none;" />
 <path d="  M 33,39  L 33,38  L 32,38  L 32,39  Z  " style="fill:rgb(153, 147, 141); fill-opacity:1.000; stroke:none;" />
 <path d="  M 34,41  L 34,40  L 32,40  L 32,41  Z  " style="fill:rgb(153, 147, 141); fill-opacity:1.000; stroke:none;" />
 <path d="  M 33,44  L 32,44  L 32,45  L 33,45  Z  " style="fill:rgb(153, 147, 141); fill-opacity:1.000; stroke:none;" />
 <path d="  M 32,46  L 32,47  L 33,47  L 33,46  Z  " style="fill:rgb(153, 147, 141); fill-opacity:1.000; stroke:none;" />
 <path d="  M 34,23  L 33,23  L 33,24  L 34,24  Z  " style="fill:rgb(153, 147, 141); fill-opacity:1.000; stroke:none;" />
 <path d="  M 33,28  L 33,29  L 34,29  L 34,28  Z  " style="fill:rgb(153, 147, 141); fill-opacity:1.000; stroke:none;" />
 <path d="  M 34,45  L 33,45  L 33,46  L 34,46  Z  " style="fill:rgb(153, 147, 141); fill-opacity:1.000; stroke:none;" />
 <path d="  M 34,48  L 33,48  L 33,51  L 34,51  Z  " style="fill:rgb(153, 147, 141); fill-opacity:1.000; stroke:none;" />
 <path d="  M 34,52  L 33,52  L 33,53  L 34,53  Z  " style="fill:rgb(153, 147, 141); fill-opacity:1.000; stroke:none;" />
 <path d="  M 34,38  L 34,40  L 35,40  L 35,39  L 36,39  L 36,38  Z  " style="fill:rgb(153, 147, 141); fill-opacity:1.000; stroke:none;" />
 <path d="  M 34,42  L 34,43  L 35,43  L 35,42  Z  " style="fill:rgb(153, 147, 141); fill-opacity:1.000; stroke:none;" />
 <path d="  M 36,45  L 35,45  L 35,46  L 34,46  L 34,48  L 35,48  L 35,47  L 36,47  Z  " style="fill:rgb(153, 147, 141); fill-opacity:1.000; stroke:none;" />
 <path d="  M 35,52  L 35,51  L 34,51  L 34,52  Z  " style="fill:rgb(153, 147, 141); fill-opacity:1.000; stroke:none;" />
 <path d="  M 35,53  L 34,53  L 34,55  L 35,55  Z  " style="fill:rgb(153, 147, 141); fill-opacity:1.000; stroke:none;" />
 <path d="  M 34,60  L 34,61  L 35,61  L 35,60  Z  " style="fill:rgb(153, 147, 141); fill-opacity:1.000; stroke:none;" />
 <path d="  M 36,43  L 37,43  L 37,41  L 36,41  L 36,40  L 35,40  L 35,42  L 36,42  Z  " style="fill:rgb(153, 147, 141); fill-opacity:1.000; stroke:none;" />
 <path d="  M 36,25  L 36,26  L 37,26  L 37,25  Z  " style="fill:rgb(153, 147, 141); fill-opacity:1.000; stroke:none;" />
 <path d="  M 38,30  L 38,29  L 36,29  L 36,30  Z  " style="fill:rgb(153, 147, 141); fill-opacity:1.000; stroke:none;" />
 <path d="  M 37,33  L 37,32  L 36,32  L 36,33  Z  " style="fill:rgb(153, 147, 141); fill-opacity:1.000; stroke:none;" />
 <path d="  M 37,38  L 37,37  L 36,37  L 36,38  Z  " style="fill:rgb(153, 147, 141); fill-opacity:1.000; stroke:none;" />
 <path d="  M 36,45  L 37,45  L 37,44  L 36,44  Z  " style="fill:rgb(153, 147, 141); fill-opacity:1.000; stroke:none;" />
 <path d="  M 38,21  L 38,22  L 37,22  L 37,24  L 38,24  L 38,23  L 39,23  L 39,25  L 40,25  L 40,24  L 41,24  L 41,23  L 40,23  L 40,21  Z  " style="fill:rgb(153, 147, 141); fill-opacity:1.000; stroke:none;" />
 <path d="  M 38,27  L 38,26  L 37,26  L 37,27  Z  " style="fill:rgb(153, 147, 141); fill-opacity:1.000; stroke:none;" />
 <path d="  M 38,31  L 37,31  L 37,32  L 38,32  Z  " style="fill:rgb(153, 147, 141); fill-opacity:1.000; stroke:none;" />
 <path d="  M 37,34  L 37,35  L 38,35  L 38,34  Z  " style="fill:rgb(153, 147, 141); fill-opacity:1.000; stroke:none;" />
 <path d="  M 37,41  L 38,41  L 38,40  L 37,40  Z  " style="fill:rgb(153, 147, 141); fill-opacity:1.000; stroke:none;" />
 <path d="  M 38,30  L 38,31  L 39,31  L 39,30  Z  " style="fill:rgb(153, 147, 141); fill-opacity:1.000; stroke:none;" />
 <path d="  M 39,31  L 39,32  L 38,32  L 38,34  L 39,34  L 39,33  L 40,33  L 40,31  Z  " style="fill:rgb(153, 147, 141); fill-opacity:1.000; stroke:none;" />
 <path d="  M 40,28  L 39,28  L 39,29  L 40,29  Z  " style="fill:rgb(153, 147, 141); fill-opacity:1.000; stroke:none;" />
 <path d="  M 40,37  L 39,37  L 39,38  L 40,38  Z  " style="fill:rgb(153, 147, 141); fill-opacity:1.000; stroke:none;" />
 <path d="  M 41,26  L 41,25  L 40,25  L 40,26  Z  " style="fill:rgb(153, 147, 141); fill-opacity:1.000; stroke:none;" />
 <path d="  M 41,29  L 42,29  L 42,28  L 43,28  L 43,26  L 42,26  L 42,27  L 40,27  L 40,28  L 41,28  Z  " style="fill:rgb(153, 147, 141); fill-opacity:1.000; stroke:none;" />
 <path d="  M 40,30  L 41,30  L 41,29  L 40,29  Z  " style="fill:rgb(153, 147, 141); fill-opacity:1.000; stroke:none;" />
 <path d="  M 41,34  L 41,33  L 40,33  L 40,34  Z  " style="fill:rgb(153, 147, 141); fill-opacity:1.000; stroke:none;" />
 <path d="  M 40,49  L 41,49  L 41,48  L 40,48  Z  " style="fill:rgb(153, 147, 141); fill-opacity:1.000; stroke:none;" />
 <path d="  M 40,54  L 41,54  L 41,53  L 40,53  Z  " style="fill:rgb(153, 147, 141); fill-opacity:1.000; stroke:none;" />
 <path d="  M 41,61  L 40,61  L 40,62  L 41,62  Z  " style="fill:rgb(153, 147, 141); fill-opacity:1.000; stroke:none;" />
 <path d="  M 41,51  L 42,51  L 42,52  L 41,52  L 41,53  L 42,53  L 42,54  L 43,54  L 43,53  L 44,53  L 44,52  L 43,52  L 43,50  L 42,50  L 42,49  L 41,49  Z  " style="fill:rgb(153, 147, 141); fill-opacity:1.000; stroke:none;" />
 <path d="  M 42,55  L 42,54  L 41,54  L 41,55  Z  " style="fill:rgb(153, 147, 141); fill-opacity:1.000; stroke:none;" />
 <path d="  M 41,61  L 42,61  L 42,60  L 41,60  Z  " style="fill:rgb(153, 147, 141); fill-opacity:1.000; stroke:none;" />
 <path d="  M 43,36  L 43,35  L 42,35  L 42,36  Z  " style="fill:rgb(153, 147, 141); fill-opacity:1.000; stroke:none;" />
 <path d="  M 43,60  L 43,59  L 42,59  L 42,60  Z  " style="fill:rgb(153, 147, 141); fill-opacity:1.000; stroke:none;" />
 <path d="  M 43,50  L 44,50  L 44,49  L 43,49  Z  " style="fill:rgb(153, 147, 141); fill-opacity:1.000; stroke:none;" />
 <path d="  M 43,55  L 44,55  L 44,54  L 43,54  Z  " style="fill:rgb(153, 147, 141); fill-opacity:1.000; stroke:none;" />
 <path d="  M 44,57  L 44,56  L 43,56  L 43,57  Z  " style="fill:rgb(153, 147, 141); fill-opacity:1.000; stroke:none;" />
 <path d="  M 43,62  L 44,62  L 44,61  L 43,61  Z  " style="fill:rgb(153, 147, 141); fill-opacity:1.000; stroke:none;" />
 <path d="  M 45,54  L 45,53  L 44,53  L 44,54  Z  " style="fill:rgb(153, 147, 141); fill-opacity:1.000; stroke:none;" />
 <path d="  M 45,56  L 45,55  L 44,55  L 44,56  Z  " style="fill:rgb(153, 147, 141); fill-opacity:1.000; stroke:none;" />
 <path d="  M 44,60  L 45,60  L 45,59  L 46,59  L 46,58  L 44,58  Z  " style="fill:rgb(153, 147, 141); fill-opacity:1.000; stroke:none;" />
 <path d="  M 49,55  L 49,53  L 48,53  L 48,54  L 47,54  L 47,53  L 46,53  L 46,54  L 45,54  L 45,55  L 46,55  L 46,56  L 45,56  L 45,57  L 47,57  L 47,55  Z  " style="fill:rgb(153, 147, 141); fill-opacity:1.000; stroke:none;" />
 <path d="  M 50,33  L 50,34  L 49,34  L 49,35  L 51,35  L 51,33  Z  " style="fill:rgb(153, 147, 141); fill-opacity:1.000; stroke:none;" />
 <path d="  M 50,37  L 50,38  L 52,38  L 52,37  Z  " style="fill:rgb(153, 147, 141); fill-opacity:1.000; stroke:none;" />
 <path d="  M 55,35  L 55,34  L 54,34  L 54,33  L 55,33  L 55,31  L 56,31  L 56,27  L 55,27  L 55,28  L 54,28  L 54,29  L 55,29  L 55,30  L 53,30  L 53,32  L 52,32  L 52,31  L 51,31  L 51,33  L 53,33  L 53,34  L 52,34  L 52,35  L 54,35  L 54,36  L 56,36  L 56,35  Z  " style="fill:rgb(153, 147, 141); fill-opacity:1.000; stroke:none;" />
 <path d="  M 51,36  L 52,36  L 52,35  L 51,35  Z  " style="fill:rgb(153, 147, 141); fill-opacity:1.000; stroke:none;" />
 <path d="  M 53,30  L 53,29  L 52,29  L 52,30  Z  " style="fill:rgb(153, 147, 141); fill-opacity:1.000; stroke:none;" />
 <path d="  M 52,36  L 52,37  L 54,37  L 54,36  Z  " style="fill:rgb(153, 147, 141); fill-opacity:1.000; stroke:none;" />
 <path d="  M 53,40  L 53,39  L 52,39  L 52,40  Z  " style="fill:rgb(153, 147, 141); fill-opacity:1.000; stroke:none;" />
 <path d="  M 52,41  L 52,42  L 53,42  L 53,41  Z  " style="fill:rgb(153, 147, 141); fill-opacity:1.000; stroke:none;" />
 <path d="  M 53,39  L 54,39  L 54,38  L 53,38  Z  " style="fill:rgb(153, 147, 141); fill-opacity:1.000; stroke:none;" />
 <path d="  M 53,40  L 53,41  L 54,41  L 54,40  Z  " style="fill:rgb(153, 147, 141); fill-opacity:1.000; stroke:none;" />
 <path d="  M 53,57  L 54,57  L 54,56  L 53,56  Z  " style="fill:rgb(153, 147, 141); fill-opacity:1.000; stroke:none;" />
 <path d="  M 55,39  L 54,39  L 54,40  L 55,40  Z  " style="fill:rgb(153, 147, 141); fill-opacity:1.000; stroke:none;" />
 <path d="  M 56,54  L 56,55  L 55,55  L 55,57  L 54,57  L 54,58  L 56,58  L 56,56  L 57,56  L 57,54  Z  " style="fill:rgb(153, 147, 141); fill-opacity:1.000; stroke:none;" />
 <path d="  M 55,34  L 56,34  L 56,33  L 55,33  Z  " style="fill:rgb(153, 147, 141); fill-opacity:1.000; stroke:none;" />
 <path d="  M 55,37  L 55,38  L 56,38  L 56,37  Z  " style="fill:rgb(153, 147, 141); fill-opacity:1.000; stroke:none;" />
 <path d="  M 55,54  L 56,54  L 56,53  L 55,53  Z  " style="fill:rgb(153, 147, 141); fill-opacity:1.000; stroke:none;" />
 <path d="  M 56,60  L 56,59  L 55,59  L 55,60  Z  " style="fill:rgb(153, 147, 141); fill-opacity:1.000; stroke:none;" />
 <path d="  M 57,38  L 56,38  L 56,39  L 57,39  Z  " style="fill:rgb(153, 147, 141); fill-opacity:1.000; stroke:none;" />
 <path d="  M 56,41  L 56,42  L 58,42  L 58,40  L 57,40  L 57,41  Z  " style="fill:rgb(153, 147, 141); fill-opacity:1.000; stroke:none;" />
 <path d="  M 58,59  L 58,58  L 56,58  L 56,59  Z  " style="fill:rgb(153, 147, 141); fill-opacity:1.000; stroke:none;" />
 <path d="  M 58,35  L 58,34  L 57,34  L 57,35  Z  " style="fill:rgb(153, 147, 141); fill-opacity:1.000; stroke:none;" />
 <path d="  M 58,37  L 58,38  L 59,38  L 59,36  L 60,36  L 60,34  L 59,34  L 59,35  L 58,35  L 58,36  L 57,36  L 57,37  Z  " style="fill:rgb(153, 147, 141); fill-opacity:1.000; stroke:none;" />
 <path d="  M 57,47  L 57,48  L 58,48  L 58,49  L 59,49  L 59,52  L 60,52  L 60,53  L 61,53  L 61,51  L 60,51  L 60,50  L 61,50  L 61,49  L 60,49  L 60,48  L 59,48  L 59,46  L 58,46  L 58,47  Z  " style="fill:rgb(153, 147, 141); fill-opacity:1.000; stroke:none;" />
 <path d="  M 57,53  L 57,54  L 58,54  L 58,53  Z  " style="fill:rgb(153, 147, 141); fill-opacity:1.000; stroke:none;" />
 <path d="  M 58,57  L 58,56  L 57,56  L 57,57  Z  " style="fill:rgb(153, 147, 141); fill-opacity:1.000; stroke:none;" />
 <path d="  M 59,34  L 59,33  L 58,33  L 58,34  Z  " style="fill:rgb(153, 147, 141); fill-opacity:1.000; stroke:none;" />
 <path d="  M 59,55  L 58,55  L 58,56  L 59,56  Z  " style="fill:rgb(153, 147, 141); fill-opacity:1.000; stroke:none;" />
 <path d="  M 60,53  L 59,53  L 59,55  L 60,55  Z  " style="fill:rgb(153, 147, 141); fill-opacity:1.000; stroke:none;" />
 <path d="  M 59,56  L 59,58  L 60,58  L 60,56  Z  " style="fill:rgb(153, 147, 141); fill-opacity:1.000; stroke:none;" />
 <path d="  M 62,50  L 61,50  L 61,51  L 62,51  Z  " style="fill:rgb(153, 147, 141); fill-opacity:1.000; stroke:none;" />
 <path d="  M 62,53  L 61,53  L 61,54  L 62,54  L 62,55  L 63,55  L 63,51  L 62,51  Z  " style="fill:rgb(153, 147, 141); fill-opacity:1.000; stroke:none;" />
 <path d="  M 62,55  L 61,55  L 61,56  L 62,56  Z  " style="fill:rgb(153, 147, 141); fill-opacity:1.000; stroke:none;" />
 <path d="  M 9,40  L 8,40  L 8,39  L 7,39  L 7,38  L 6,38  L 6,37  L 5,37  L 5,39  L 6,39  L 6,40  L 7,40  L 7,41  L 9,41  Z  " style="fill:rgb(164, 160, 156); fill-opacity:1.000; stroke:none;" />
 <path d="  M 6,53  L 5,53  L 5,54  L 6,54  Z  " style="fill:rgb(164, 160, 156); fill-opacity:1.000; stroke:none;" />
 <path d="  M 6,55  L 7,55  L 7,54  L 6,54  Z  " style="fill:rgb(164, 160, 156); fill-opacity:1.000; stroke:none;" />
 <path d="  M 7,56  L 8,56  L 8,57  L 10,57  L 10,56  L 9,56  L 9,55  L 7,55  Z  " style="fill:rgb(164, 160, 156); fill-opacity:1.000; stroke:none;" />
 <path d="  M 9,42  L 10,42  L 10,41  L 9,41  Z  " style="fill:rgb(164, 160, 156); fill-opacity:1.000; stroke:none;" />
 <path d="  M 10,57  L 10,58  L 12,58  L 12,57  Z  " style="fill:rgb(164, 160, 156); fill-opacity:1.000; stroke:none;" />
 <path d="  M 24,29  L 24,30  L 23,30  L 23,32  L 24,32  L 24,31  L 25,31  L 25,29  Z  " style="fill:rgb(164, 160, 156); fill-opacity:1.000; stroke:none;" />
 <path d="  M 25,33  L 25,32  L 24,32  L 24,33  Z  " style="fill:rgb(164, 160, 156); fill-opacity:1.000; stroke:none;" />
 <path d="  M 26,29  L 26,28  L 25,28  L 25,29  Z  " style="fill:rgb(164, 160, 156); fill-opacity:1.000; stroke:none;" />
 <path d="  M 25,34  L 26,34  L 26,33  L 25,33  Z  " style="fill:rgb(164, 160, 156); fill-opacity:1.000; stroke:none;" />
 <path d="  M 30,23  L 32,23  L 32,24  L 33,24  L 33,22  L 32,22  L 32,20  L 31,20  L 31,22  L 30,22  Z  " style="fill:rgb(164, 160, 156); fill-opacity:1.000; stroke:none;" />
 <path d="  M 33,48  L 34,48  L 34,46  L 33,46  L 33,47  L 32,47  L 32,49  L 31,49  L 31,50  L 32,50  L 32,54  L 33,54  L 33,52  L 34,52  L 34,51  L 33,51  Z  " style="fill:rgb(164, 160, 156); fill-opacity:1.000; stroke:none;" />
 <path d="  M 34,45  L 34,42  L 35,42  L 35,40  L 34,40  L 34,41  L 32,41  L 32,42  L 33,42  L 33,43  L 32,43  L 32,44  L 33,44  L 33,45  Z  " style="fill:rgb(164, 160, 156); fill-opacity:1.000; stroke:none;" />
 <path d="  M 32,46  L 33,46  L 33,45  L 32,45  Z  " style="fill:rgb(164, 160, 156); fill-opacity:1.000; stroke:none;" />
 <path d="  M 34,25  L 34,24  L 33,24  L 33,25  Z  " style="fill:rgb(164, 160, 156); fill-opacity:1.000; stroke:none;" />
 <path d="  M 34,40  L 34,39  L 33,39  L 33,40  Z  " style="fill:rgb(164, 160, 156); fill-opacity:1.000; stroke:none;" />
 <path d="  M 35,51  L 35,50  L 34,50  L 34,51  Z  " style="fill:rgb(164, 160, 156); fill-opacity:1.000; stroke:none;" />
 <path d="  M 36,27  L 37,27  L 37,26  L 36,26  Z  " style="fill:rgb(164, 160, 156); fill-opacity:1.000; stroke:none;" />
 <path d="  M 38,24  L 38,27  L 37,27  L 37,29  L 38,29  L 38,30  L 39,30  L 39,31  L 40,31  L 40,29  L 39,29  L 39,27  L 40,27  L 40,25  L 39,25  L 39,24  Z  " style="fill:rgb(164, 160, 156); fill-opacity:1.000; stroke:none;" />
 <path d="  M 38,30  L 37,30  L 37,31  L 38,31  Z  " style="fill:rgb(164, 160, 156); fill-opacity:1.000; stroke:none;" />
 <path d="  M 40,24  L 40,25  L 41,25  L 41,24  Z  " style="fill:rgb(164, 160, 156); fill-opacity:1.000; stroke:none;" />
 <path d="  M 42,56  L 44,56  L 44,55  L 43,55  L 43,54  L 42,54  Z  " style="fill:rgb(164, 160, 156); fill-opacity:1.000; stroke:none;" />
 <path d="  M 42,61  L 43,61  L 43,60  L 42,60  Z  " style="fill:rgb(164, 160, 156); fill-opacity:1.000; stroke:none;" />
 <path d="  M 44,53  L 43,53  L 43,54  L 44,54  Z  " style="fill:rgb(164, 160, 156); fill-opacity:1.000; stroke:none;" />
 <path d="  M 44,58  L 43,58  L 43,59  L 44,59  Z  " style="fill:rgb(164, 160, 156); fill-opacity:1.000; stroke:none;" />
 <path d="  M 46,58  L 46,57  L 45,57  L 45,56  L 44,56  L 44,58  Z  " style="fill:rgb(164, 160, 156); fill-opacity:1.000; stroke:none;" />
 <path d="  M 52,39  L 53,39  L 53,38  L 52,38  Z  " style="fill:rgb(164, 160, 156); fill-opacity:1.000; stroke:none;" />
 <path d="  M 53,35  L 53,36  L 54,36  L 54,35  Z  " style="fill:rgb(164, 160, 156); fill-opacity:1.000; stroke:none;" />
 <path d="  M 55,36  L 54,36  L 54,37  L 53,37  L 53,38  L 54,38  L 54,39  L 55,39  L 55,41  L 57,41  L 57,40  L 58,40  L 58,38  L 57,38  L 57,39  L 56,39  L 56,38  L 55,38  Z  " style="fill:rgb(164, 160, 156); fill-opacity:1.000; stroke:none;" />
 <path d="  M 57,38  L 57,37  L 56,37  L 56,38  Z  " style="fill:rgb(164, 160, 156); fill-opacity:1.000; stroke:none;" />
 <path d="  M 56,56  L 56,57  L 57,57  L 57,56  Z  " style="fill:rgb(164, 160, 156); fill-opacity:1.000; stroke:none;" />
 <path d="  M 59,58  L 59,56  L 58,56  L 58,57  L 57,57  L 57,58  Z  " style="fill:rgb(164, 160, 156); fill-opacity:1.000; stroke:none;" />
 <path d="  M 58,54  L 58,55  L 59,55  L 59,54  Z  " style="fill:rgb(164, 160, 156); fill-opacity:1.000; stroke:none;" />
 <path d="  M 60,56  L 60,57  L 61,57  L 61,55  L 62,55  L 62,54  L 60,54  L 60,55  L 59,55  L 59,56  Z  " style="fill:rgb(164, 160, 156); fill-opacity:1.000; stroke:none;" />
 <path d="  M 11,38  L 11,39  L 13,39  L 13,38  L 14,38  L 14,37  L 13,37  L 13,33  L 14,33  L 14,34  L 16,34  L 16,33  L 17,33  L 17,31  L 15,31  L 15,32  L 14,32  L 14,30  L 13,30  L 13,32  L 12,32  L 12,34  L 11,34  L 11,36  L 10,36  L 10,37  L 9,37  L 9,36  L 7,36  L 7,37  L 8,37  L 8,38  Z  " style="fill:rgb(116, 106, 102); fill-opacity:1.000; stroke:none;" />
 <path d="  M 13,39  L 13,40  L 14,40  L 14,39  Z  " style="fill:rgb(116, 106, 102); fill-opacity:1.000; stroke:none;" />
 <path d="  M 15,37  L 15,36  L 14,36  L 14,37  Z  " style="fill:rgb(116, 106, 102); fill-opacity:1.000; stroke:none;" />
 <path d="  M 16,37  L 15,37  L 15,38  L 16,38  Z  " style="fill:rgb(116, 106, 102); fill-opacity:1.000; stroke:none;" />
 <path d="  M 17,31  L 18,31  L 18,30  L 17,30  Z  " style="fill:rgb(116, 106, 102); fill-opacity:1.000; stroke:none;" />
 <path d="  M 19,34  L 19,33  L 18,33  L 18,34  Z  " style="fill:rgb(116, 106, 102); fill-opacity:1.000; stroke:none;" />
 <path d="  M 19,46  L 21,46  L 21,45  L 20,45  L 20,44  L 21,44  L 21,43  L 22,43  L 22,42  L 19,42  L 19,44  L 18,44  L 18,45  L 19,45  Z  " style="fill:rgb(116, 106, 102); fill-opacity:1.000; stroke:none;" />
 <path d="  M 18,46  L 18,47  L 19,47  L 19,46  Z  " style="fill:rgb(116, 106, 102); fill-opacity:1.000; stroke:none;" />
 <path d="  M 19,33  L 20,33  L 20,32  L 19,32  Z  " style="fill:rgb(116, 106, 102); fill-opacity:1.000; stroke:none;" />
 <path d="  M 20,34  L 19,34  L 19,35  L 20,35  Z  " style="fill:rgb(116, 106, 102); fill-opacity:1.000; stroke:none;" />
 <path d="  M 21,32  L 21,31  L 20,31  L 20,32  Z  " style="fill:rgb(116, 106, 102); fill-opacity:1.000; stroke:none;" />
 <path d="  M 20,34  L 21,34  L 21,33  L 20,33  Z  " style="fill:rgb(116, 106, 102); fill-opacity:1.000; stroke:none;" />
 <path d="  M 22,44  L 21,44  L 21,45  L 22,45  Z  " style="fill:rgb(116, 106, 102); fill-opacity:1.000; stroke:none;" />
 <path d="  M 23,40  L 22,40  L 22,42  L 23,42  L 23,43  L 24,43  L 24,44  L 25,44  L 25,45  L 24,45  L 24,46  L 25,46  L 25,47  L 27,47  L 27,46  L 26,46  L 26,45  L 27,45  L 27,41  L 25,41  L 25,40  L 26,40  L 26,39  L 25,39  L 25,38  L 24,38  L 24,39  L 23,39  Z  " style="fill:rgb(116, 106, 102); fill-opacity:1.000; stroke:none;" />
 <path d="  M 27,31  L 25,31  L 25,32  L 26,32  L 26,33  L 27,33  L 27,34  L 26,34  L 26,35  L 25,35  L 25,36  L 27,36  L 27,35  L 29,35  L 29,34  L 28,34  L 28,33  L 29,33  L 29,32  L 27,32  Z  " style="fill:rgb(116, 106, 102); fill-opacity:1.000; stroke:none;" />
 <path d="  M 26,29  L 27,29  L 27,28  L 26,28  Z  " style="fill:rgb(116, 106, 102); fill-opacity:1.000; stroke:none;" />
 <path d="  M 27,38  L 27,37  L 26,37  L 26,38  Z  " style="fill:rgb(116, 106, 102); fill-opacity:1.000; stroke:none;" />
 <path d="  M 27,31  L 28,31  L 28,30  L 27,30  Z  " style="fill:rgb(116, 106, 102); fill-opacity:1.000; stroke:none;" />
 <path d="  M 27,37  L 28,37  L 28,36  L 27,36  Z  " style="fill:rgb(116, 106, 102); fill-opacity:1.000; stroke:none;" />
 <path d="  M 28,47  L 27,47  L 27,48  L 28,48  Z  " style="fill:rgb(116, 106, 102); fill-opacity:1.000; stroke:none;" />
 <path d="  M 29,26  L 29,25  L 28,25  L 28,26  Z  " style="fill:rgb(116, 106, 102); fill-opacity:1.000; stroke:none;" />
 <path d="  M 29,38  L 29,37  L 28,37  L 28,38  Z  " style="fill:rgb(116, 106, 102); fill-opacity:1.000; stroke:none;" />
 <path d="  M 28,46  L 29,46  L 29,44  L 28,44  Z  " style="fill:rgb(116, 106, 102); fill-opacity:1.000; stroke:none;" />
 <path d="  M 29,48  L 28,48  L 28,50  L 29,50  Z  " style="fill:rgb(116, 106, 102); fill-opacity:1.000; stroke:none;" />
 <path d="  M 29,26  L 29,28  L 30,28  L 30,27  L 31,27  L 31,26  Z  " style="fill:rgb(116, 106, 102); fill-opacity:1.000; stroke:none;" />
 <path d="  M 30,32  L 30,31  L 29,31  L 29,32  Z  " style="fill:rgb(116, 106, 102); fill-opacity:1.000; stroke:none;" />
 <path d="  M 31,33  L 29,33  L 29,34  L 30,34  L 30,35  L 31,35  Z  " style="fill:rgb(116, 106, 102); fill-opacity:1.000; stroke:none;" />
 <path d="  M 29,36  L 30,36  L 30,35  L 29,35  Z  " style="fill:rgb(116, 106, 102); fill-opacity:1.000; stroke:none;" />
 <path d="  M 30,44  L 30,43  L 29,43  L 29,44  Z  " style="fill:rgb(116, 106, 102); fill-opacity:1.000; stroke:none;" />
 <path d="  M 30,47  L 29,47  L 29,48  L 30,48  Z  " style="fill:rgb(116, 106, 102); fill-opacity:1.000; stroke:none;" />
 <path d="  M 35,36  L 35,35  L 36,35  L 36,34  L 35,34  L 35,32  L 34,32  L 34,31  L 35,31  L 35,29  L 34,29  L 34,30  L 33,30  L 33,29  L 32,29  L 32,28  L 30,28  L 30,29  L 31,29  L 31,30  L 32,30  L 32,31  L 33,31  L 33,33  L 34,33  L 34,35  L 33,35  L 33,37  L 32,37  L 32,38  L 34,38  L 34,36  Z  " style="fill:rgb(116, 106, 102); fill-opacity:1.000; stroke:none;" />
 <path d="  M 33,27  L 32,27  L 32,28  L 33,28  Z  " style="fill:rgb(116, 106, 102); fill-opacity:1.000; stroke:none;" />
 <path d="  M 35,32  L 36,32  L 36,31  L 35,31  Z  " style="fill:rgb(116, 106, 102); fill-opacity:1.000; stroke:none;" />
 <path d="  M 35,36  L 35,37  L 36,37  L 36,36  Z  " style="fill:rgb(116, 106, 102); fill-opacity:1.000; stroke:none;" />
 <path d="  M 37,33  L 36,33  L 36,34  L 37,34  Z  " style="fill:rgb(116, 106, 102); fill-opacity:1.000; stroke:none;" />
 <path d="  M 42,62  L 41,62  L 41,63  L 40,63  L 40,62  L 39,62  L 39,63  L 37,63  L 37,64  L 44,64  L 44,63  L 42,63  Z  " style="fill:rgb(116, 106, 102); fill-opacity:1.000; stroke:none;" />
 <path d="  M 43,28  L 43,29  L 42,29  L 42,30  L 44,30  L 44,29  L 45,29  L 45,28  Z  " style="fill:rgb(116, 106, 102); fill-opacity:1.000; stroke:none;" />
 <path d="  M 44,25  L 44,27  L 45,27  L 45,25  Z  " style="fill:rgb(116, 106, 102); fill-opacity:1.000; stroke:none;" />
 <path d="  M 45,63  L 45,62  L 44,62  L 44,63  Z  " style="fill:rgb(116, 106, 102); fill-opacity:1.000; stroke:none;" />
 <path d="  M 46,24  L 45,24  L 45,25  L 46,25  Z  " style="fill:rgb(116, 106, 102); fill-opacity:1.000; stroke:none;" />
 <path d="  M 46,24  L 47,24  L 47,21  L 46,21  Z  " style="fill:rgb(116, 106, 102); fill-opacity:1.000; stroke:none;" />
 <path d="  M 48,27  L 47,27  L 47,26  L 48,26  Z  M 46,28  L 47,28  L 47,29  L 49,29  L 49,27  L 50,27  L 50,26  L 49,26  L 49,24  L 48,24  L 48,25  L 47,25  L 47,26  L 46,26  Z  " style="fill:rgb(116, 106, 102); fill-opacity:1.000; stroke:none;" />
 <path d="  M 49,63  L 49,62  L 48,62  L 48,63  L 46,63  L 46,64  L 52,64  L 52,63  L 53,63  L 53,62  L 54,62  L 54,61  L 55,61  L 55,60  L 52,60  L 52,61  L 50,61  L 50,63  Z  " style="fill:rgb(116, 106, 102); fill-opacity:1.000; stroke:none;" />
 <path d="  M 50,61  L 50,60  L 49,60  L 49,61  Z  " style="fill:rgb(116, 106, 102); fill-opacity:1.000; stroke:none;" />
 <path d="  M 53,45  L 53,44  L 52,44  L 52,45  Z  " style="fill:rgb(116, 106, 102); fill-opacity:1.000; stroke:none;" />
</svg>
