<?xml version="1.0" encoding="UTF-8" standalone="no"?>
<!DOCTYPE svg PUBLIC "-//W3C//DTD SVG 1.1//EN" 
  "http://www.w3.org/Graphics/SVG/1.1/DTD/svg11.dtd">
<svg width="64" height="64"
	 xmlns="http://www.w3.org/2000/svg" version="1.1">
 <path d="  M 26,21  L 25,21  L 25,24  L 26,24  Z  " style="fill:rgb(61, 61, 61); fill-opacity:1.000; stroke:none;" />
 <path d="  M 26,26  L 27,26  L 27,24  L 26,24  Z  " style="fill:rgb(61, 61, 61); fill-opacity:1.000; stroke:none;" />
 <path d="  M 27,27  L 28,27  L 28,26  L 27,26  Z  " style="fill:rgb(61, 61, 61); fill-opacity:1.000; stroke:none;" />
 <path d="  M 28,29  L 29,29  L 29,27  L 28,27  Z  " style="fill:rgb(61, 61, 61); fill-opacity:1.000; stroke:none;" />
 <path d="  M 29,30  L 30,30  L 30,29  L 29,29  Z  " style="fill:rgb(61, 61, 61); fill-opacity:1.000; stroke:none;" />
 <path d="  M 31,31  L 31,30  L 30,30  L 30,31  Z  " style="fill:rgb(61, 61, 61); fill-opacity:1.000; stroke:none;" />
 <path d="  M 32,31  L 31,31  L 31,32  L 32,32  Z  " style="fill:rgb(61, 61, 61); fill-opacity:1.000; stroke:none;" />
 <path d="  M 32,35  L 31,35  L 31,39  L 32,39  Z  " style="fill:rgb(61, 61, 61); fill-opacity:1.000; stroke:none;" />
 <path d="  M 32,32  L 32,35  L 33,35  L 33,33  L 35,33  L 35,32  Z  " style="fill:rgb(61, 61, 61); fill-opacity:1.000; stroke:none;" />
 <path d="  M 35,32  L 36,32  L 36,31  L 35,31  Z  " style="fill:rgb(61, 61, 61); fill-opacity:1.000; stroke:none;" />
 <path d="  M 37,30  L 36,30  L 36,31  L 37,31  Z  " style="fill:rgb(61, 61, 61); fill-opacity:1.000; stroke:none;" />
 <path d="  M 38,30  L 38,28  L 37,28  L 37,30  Z  " style="fill:rgb(61, 61, 61); fill-opacity:1.000; stroke:none;" />
 <path d="  M 26,25  L 26,24  L 25,24  L 25,25  Z  " style="fill:rgb(155, 155, 155); fill-opacity:1.000; stroke:none;" />
 <path d="  M 27,27  L 27,26  L 26,26  L 26,27  Z  " style="fill:rgb(155, 155, 155); fill-opacity:1.000; stroke:none;" />
 <path d="  M 27,27  L 27,28  L 28,28  L 28,27  Z  " style="fill:rgb(155, 155, 155); fill-opacity:1.000; stroke:none;" />
 <path d="  M 28,29  L 28,30  L 29,30  L 29,29  Z  " style="fill:rgb(155, 155, 155); fill-opacity:1.000; stroke:none;" />
 <path d="  M 29,31  L 30,31  L 30,30  L 29,30  Z  " style="fill:rgb(155, 155, 155); fill-opacity:1.000; stroke:none;" />
 <path d="  M 30,31  L 30,32  L 31,32  L 31,31  Z  " style="fill:rgb(155, 155, 155); fill-opacity:1.000; stroke:none;" />
 <path d="  M 31,32  L 31,33  L 32,33  L 32,32  Z  " style="fill:rgb(155, 155, 155); fill-opacity:1.000; stroke:none;" />
 <path d="  M 32,40  L 32,39  L 31,39  L 31,40  Z  " style="fill:rgb(155, 155, 155); fill-opacity:1.000; stroke:none;" />
 <path d="  M 32,36  L 33,36  L 33,35  L 32,35  Z  " style="fill:rgb(155, 155, 155); fill-opacity:1.000; stroke:none;" />
 <path d="  M 35,34  L 35,33  L 33,33  L 33,34  Z  " style="fill:rgb(155, 155, 155); fill-opacity:1.000; stroke:none;" />
 <path d="  M 36,32  L 35,32  L 35,33  L 36,33  Z  " style="fill:rgb(155, 155, 155); fill-opacity:1.000; stroke:none;" />
 <path d="  M 37,31  L 36,31  L 36,32  L 37,32  Z  " style="fill:rgb(155, 155, 155); fill-opacity:1.000; stroke:none;" />
 <path d="  M 38,30  L 37,30  L 37,31  L 38,31  Z  " style="fill:rgb(155, 155, 155); fill-opacity:1.000; stroke:none;" />
</svg>
