<?xml version="1.0" encoding="UTF-8" standalone="no"?>
<!DOCTYPE svg PUBLIC "-//W3C//DTD SVG 1.1//EN" 
  "http://www.w3.org/Graphics/SVG/1.1/DTD/svg11.dtd">
<svg width="64" height="64"
	 xmlns="http://www.w3.org/2000/svg" version="1.1">
 <path d="  M 6,5  L 6,4  L 4,4  L 4,6  L 5,6  L 5,7  L 7,7  L 7,6  L 8,6  L 8,5  Z  " style="fill:rgb(166, 130, 77); fill-opacity:1.000; stroke:none;" />
 <path d="  M 5,7  L 4,7  L 4,8  L 5,8  Z  " style="fill:rgb(166, 130, 77); fill-opacity:1.000; stroke:none;" />
 <path d="  M 5,10  L 5,9  L 4,9  L 4,10  Z  " style="fill:rgb(166, 130, 77); fill-opacity:1.000; stroke:none;" />
 <path d="  M 7,26  L 7,25  L 4,25  L 4,26  Z  " style="fill:rgb(166, 130, 77); fill-opacity:1.000; stroke:none;" />
 <path d="  M 6,38  L 6,37  L 4,37  L 4,38  Z  " style="fill:rgb(166, 130, 77); fill-opacity:1.000; stroke:none;" />
 <path d="  M 4,53  L 5,53  L 5,52  L 4,52  Z  " style="fill:rgb(166, 130, 77); fill-opacity:1.000; stroke:none;" />
 <path d="  M 5,55  L 5,54  L 4,54  L 4,55  Z  " style="fill:rgb(166, 130, 77); fill-opacity:1.000; stroke:none;" />
 <path d="  M 4,56  L 4,57  L 6,57  L 6,56  Z  " style="fill:rgb(166, 130, 77); fill-opacity:1.000; stroke:none;" />
 <path d="  M 8,10  L 8,9  L 6,9  L 6,10  Z  " style="fill:rgb(166, 130, 77); fill-opacity:1.000; stroke:none;" />
 <path d="  M 6,53  L 7,53  L 7,52  L 6,52  Z  " style="fill:rgb(166, 130, 77); fill-opacity:1.000; stroke:none;" />
 <path d="  M 8,25  L 8,24  L 7,24  L 7,25  Z  " style="fill:rgb(166, 130, 77); fill-opacity:1.000; stroke:none;" />
 <path d="  M 16,4  L 16,5  L 17,5  L 17,4  Z  " style="fill:rgb(166, 130, 77); fill-opacity:1.000; stroke:none;" />
 <path d="  M 20,5  L 18,5  L 18,7  L 16,7  L 16,9  L 17,9  L 17,8  L 20,8  L 20,7  L 21,7  L 21,6  L 20,6  Z  " style="fill:rgb(166, 130, 77); fill-opacity:1.000; stroke:none;" />
 <path d="  M 16,23  L 16,24  L 18,24  L 18,23  Z  " style="fill:rgb(166, 130, 77); fill-opacity:1.000; stroke:none;" />
 <path d="  M 17,26  L 17,25  L 16,25  L 16,26  Z  " style="fill:rgb(166, 130, 77); fill-opacity:1.000; stroke:none;" />
 <path d="  M 16,41  L 16,42  L 17,42  L 17,41  Z  " style="fill:rgb(166, 130, 77); fill-opacity:1.000; stroke:none;" />
 <path d="  M 17,55  L 16,55  L 16,56  L 17,56  Z  " style="fill:rgb(166, 130, 77); fill-opacity:1.000; stroke:none;" />
 <path d="  M 17,58  L 17,57  L 16,57  L 16,58  Z  " style="fill:rgb(166, 130, 77); fill-opacity:1.000; stroke:none;" />
 <path d="  M 17,9  L 17,10  L 19,10  L 19,9  Z  " style="fill:rgb(166, 130, 77); fill-opacity:1.000; stroke:none;" />
 <path d="  M 17,56  L 17,57  L 19,57  L 19,56  Z  " style="fill:rgb(166, 130, 77); fill-opacity:1.000; stroke:none;" />
 <path d="  M 20,25  L 20,24  L 18,24  L 18,25  Z  " style="fill:rgb(166, 130, 77); fill-opacity:1.000; stroke:none;" />
 <path d="  M 18,52  L 18,53  L 19,53  L 19,54  L 20,54  L 20,53  L 23,53  L 23,52  Z  " style="fill:rgb(166, 130, 77); fill-opacity:1.000; stroke:none;" />
 <path d="  M 20,56  L 22,56  L 22,55  L 20,55  Z  " style="fill:rgb(166, 130, 77); fill-opacity:1.000; stroke:none;" />
 <path d="  M 28,9  L 27,9  L 27,8  L 29,8  L 29,7  L 28,7  L 28,6  L 27,6  L 27,5  L 24,5  L 24,6  L 26,6  L 26,8  L 22,8  L 22,9  L 25,9  L 25,10  L 28,10  Z  " style="fill:rgb(166, 130, 77); fill-opacity:1.000; stroke:none;" />
 <path d="  M 25,55  L 25,54  L 23,54  L 23,55  Z  " style="fill:rgb(166, 130, 77); fill-opacity:1.000; stroke:none;" />
 <path d="  M 24,58  L 24,57  L 23,57  L 23,58  Z  " style="fill:rgb(166, 130, 77); fill-opacity:1.000; stroke:none;" />
 <path d="  M 27,55  L 27,54  L 26,54  L 26,56  L 28,56  L 28,55  Z  " style="fill:rgb(166, 130, 77); fill-opacity:1.000; stroke:none;" />
 <path d="  M 30,54  L 28,54  L 28,55  L 30,55  Z  " style="fill:rgb(166, 130, 77); fill-opacity:1.000; stroke:none;" />
 <path d="  M 30,57  L 28,57  L 28,58  L 30,58  Z  " style="fill:rgb(166, 130, 77); fill-opacity:1.000; stroke:none;" />
 <path d="  M 32,5  L 32,4  L 29,4  L 29,5  Z  " style="fill:rgb(166, 130, 77); fill-opacity:1.000; stroke:none;" />
 <path d="  M 31,9  L 31,10  L 34,10  L 34,9  Z  " style="fill:rgb(166, 130, 77); fill-opacity:1.000; stroke:none;" />
 <path d="  M 32,5  L 32,6  L 35,6  L 35,5  L 34,5  L 34,4  L 33,4  L 33,5  Z  " style="fill:rgb(166, 130, 77); fill-opacity:1.000; stroke:none;" />
 <path d="  M 33,54  L 32,54  L 32,55  L 33,55  Z  " style="fill:rgb(166, 130, 77); fill-opacity:1.000; stroke:none;" />
 <path d="  M 35,57  L 35,56  L 34,56  L 34,57  L 33,57  L 33,58  L 44,58  L 44,57  L 40,57  L 40,56  L 38,56  L 38,57  Z  " style="fill:rgb(166, 130, 77); fill-opacity:1.000; stroke:none;" />
 <path d="  M 35,56  L 38,56  L 38,55  L 36,55  L 36,54  L 35,54  Z  " style="fill:rgb(166, 130, 77); fill-opacity:1.000; stroke:none;" />
 <path d="  M 36,8  L 38,8  L 38,7  L 36,7  Z  " style="fill:rgb(166, 130, 77); fill-opacity:1.000; stroke:none;" />
 <path d="  M 36,53  L 36,54  L 41,54  L 41,53  Z  " style="fill:rgb(166, 130, 77); fill-opacity:1.000; stroke:none;" />
 <path d="  M 38,6  L 38,7  L 41,7  L 41,6  Z  " style="fill:rgb(166, 130, 77); fill-opacity:1.000; stroke:none;" />
 <path d="  M 47,8  L 47,9  L 42,9  L 42,10  L 48,10  L 48,7  L 44,7  L 44,8  Z  " style="fill:rgb(166, 130, 77); fill-opacity:1.000; stroke:none;" />
 <path d="  M 47,4  L 44,4  L 44,5  L 47,5  Z  " style="fill:rgb(166, 130, 77); fill-opacity:1.000; stroke:none;" />
 <path d="  M 47,22  L 47,21  L 44,21  L 44,22  Z  " style="fill:rgb(166, 130, 77); fill-opacity:1.000; stroke:none;" />
 <path d="  M 46,23  L 44,23  L 44,25  L 45,25  L 45,24  L 46,24  Z  " style="fill:rgb(166, 130, 77); fill-opacity:1.000; stroke:none;" />
 <path d="  M 48,57  L 48,56  L 44,56  L 44,57  Z  " style="fill:rgb(166, 130, 77); fill-opacity:1.000; stroke:none;" />
 <path d="  M 45,41  L 45,42  L 46,42  L 46,41  Z  " style="fill:rgb(166, 130, 77); fill-opacity:1.000; stroke:none;" />
 <path d="  M 48,26  L 48,24  L 47,24  L 47,25  L 46,25  L 46,26  Z  " style="fill:rgb(166, 130, 77); fill-opacity:1.000; stroke:none;" />
 <path d="  M 48,55  L 48,54  L 46,54  L 46,55  Z  " style="fill:rgb(166, 130, 77); fill-opacity:1.000; stroke:none;" />
 <path d="  M 48,20  L 47,20  L 47,21  L 48,21  Z  " style="fill:rgb(166, 130, 77); fill-opacity:1.000; stroke:none;" />
 <path d="  M 47,41  L 47,42  L 48,42  L 48,41  Z  " style="fill:rgb(166, 130, 77); fill-opacity:1.000; stroke:none;" />
 <path d="  M 58,5  L 56,5  L 56,6  L 58,6  Z  " style="fill:rgb(166, 130, 77); fill-opacity:1.000; stroke:none;" />
 <path d="  M 57,21  L 56,21  L 56,22  L 57,22  Z  " style="fill:rgb(166, 130, 77); fill-opacity:1.000; stroke:none;" />
 <path d="  M 60,42  L 60,41  L 56,41  L 56,42  Z  " style="fill:rgb(166, 130, 77); fill-opacity:1.000; stroke:none;" />
 <path d="  M 56,52  L 56,53  L 60,53  L 60,52  Z  " style="fill:rgb(166, 130, 77); fill-opacity:1.000; stroke:none;" />
 <path d="  M 56,54  L 56,55  L 58,55  L 58,54  Z  " style="fill:rgb(166, 130, 77); fill-opacity:1.000; stroke:none;" />
 <path d="  M 57,10  L 60,10  L 60,9  L 57,9  Z  " style="fill:rgb(166, 130, 77); fill-opacity:1.000; stroke:none;" />
 <path d="  M 59,21  L 59,20  L 57,20  L 57,21  Z  " style="fill:rgb(166, 130, 77); fill-opacity:1.000; stroke:none;" />
 <path d="  M 57,39  L 57,40  L 60,40  L 60,39  Z  " style="fill:rgb(166, 130, 77); fill-opacity:1.000; stroke:none;" />
 <path d="  M 60,55  L 59,55  L 59,56  L 58,56  L 58,57  L 57,57  L 57,58  L 60,58  Z  " style="fill:rgb(166, 130, 77); fill-opacity:1.000; stroke:none;" />
 <path d="  M 59,26  L 59,25  L 58,25  L 58,26  Z  " style="fill:rgb(166, 130, 77); fill-opacity:1.000; stroke:none;" />
 <path d="  M 5,7  L 5,6  L 4,6  L 4,7  Z  " style="fill:rgb(126, 98, 55); fill-opacity:1.000; stroke:none;" />
 <path d="  M 4,8  L 4,9  L 5,9  L 5,10  L 6,10  L 6,9  L 8,9  L 8,7  L 7,7  L 7,8  Z  " style="fill:rgb(126, 98, 55); fill-opacity:1.000; stroke:none;" />
 <path d="  M 4,21  L 4,23  L 5,23  L 5,22  L 6,22  L 6,21  Z  " style="fill:rgb(126, 98, 55); fill-opacity:1.000; stroke:none;" />
 <path d="  M 4,24  L 4,25  L 7,25  L 7,24  Z  " style="fill:rgb(126, 98, 55); fill-opacity:1.000; stroke:none;" />
 <path d="  M 8,42  L 8,41  L 7,41  L 7,40  L 8,40  L 8,39  L 7,39  L 7,38  L 4,38  L 4,39  L 6,39  L 6,40  L 4,40  L 4,41  L 5,41  L 5,42  Z  " style="fill:rgb(126, 98, 55); fill-opacity:1.000; stroke:none;" />
 <path d="  M 5,54  L 5,53  L 4,53  L 4,54  Z  " style="fill:rgb(126, 98, 55); fill-opacity:1.000; stroke:none;" />
 <path d="  M 8,56  L 7,56  L 7,57  L 4,57  L 4,58  L 8,58  Z  " style="fill:rgb(126, 98, 55); fill-opacity:1.000; stroke:none;" />
 <path d="  M 5,52  L 5,53  L 6,53  L 6,52  Z  " style="fill:rgb(126, 98, 55); fill-opacity:1.000; stroke:none;" />
 <path d="  M 8,55  L 8,54  L 5,54  L 5,55  Z  " style="fill:rgb(126, 98, 55); fill-opacity:1.000; stroke:none;" />
 <path d="  M 6,20  L 6,21  L 8,21  L 8,20  Z  " style="fill:rgb(126, 98, 55); fill-opacity:1.000; stroke:none;" />
 <path d="  M 6,23  L 7,23  L 7,24  L 8,24  L 8,22  L 6,22  Z  " style="fill:rgb(126, 98, 55); fill-opacity:1.000; stroke:none;" />
 <path d="  M 6,36  L 6,37  L 8,37  L 8,36  Z  " style="fill:rgb(126, 98, 55); fill-opacity:1.000; stroke:none;" />
 <path d="  M 7,26  L 8,26  L 8,25  L 7,25  Z  " style="fill:rgb(126, 98, 55); fill-opacity:1.000; stroke:none;" />
 <path d="  M 7,52  L 7,53  L 8,53  L 8,52  Z  " style="fill:rgb(126, 98, 55); fill-opacity:1.000; stroke:none;" />
 <path d="  M 18,6  L 18,5  L 16,5  L 16,6  Z  " style="fill:rgb(126, 98, 55); fill-opacity:1.000; stroke:none;" />
 <path d="  M 16,10  L 17,10  L 17,9  L 16,9  Z  " style="fill:rgb(126, 98, 55); fill-opacity:1.000; stroke:none;" />
 <path d="  M 19,20  L 16,20  L 16,21  L 19,21  Z  " style="fill:rgb(126, 98, 55); fill-opacity:1.000; stroke:none;" />
 <path d="  M 16,22  L 16,23  L 18,23  L 18,24  L 20,24  L 20,23  L 19,23  L 19,22  Z  " style="fill:rgb(126, 98, 55); fill-opacity:1.000; stroke:none;" />
 <path d="  M 19,37  L 19,36  L 16,36  L 16,37  Z  " style="fill:rgb(126, 98, 55); fill-opacity:1.000; stroke:none;" />
 <path d="  M 18,38  L 16,38  L 16,39  L 18,39  Z  " style="fill:rgb(126, 98, 55); fill-opacity:1.000; stroke:none;" />
 <path d="  M 18,41  L 18,40  L 16,40  L 16,41  Z  " style="fill:rgb(126, 98, 55); fill-opacity:1.000; stroke:none;" />
 <path d="  M 17,55  L 17,54  L 19,54  L 19,53  L 16,53  L 16,55  Z  " style="fill:rgb(126, 98, 55); fill-opacity:1.000; stroke:none;" />
 <path d="  M 19,10  L 25,10  L 25,9  L 20,9  L 20,8  L 17,8  L 17,9  L 19,9  Z  " style="fill:rgb(126, 98, 55); fill-opacity:1.000; stroke:none;" />
 <path d="  M 19,55  L 17,55  L 17,56  L 19,56  Z  " style="fill:rgb(126, 98, 55); fill-opacity:1.000; stroke:none;" />
 <path d="  M 21,58  L 21,57  L 17,57  L 17,58  Z  " style="fill:rgb(126, 98, 55); fill-opacity:1.000; stroke:none;" />
 <path d="  M 26,7  L 26,6  L 23,6  L 23,5  L 21,5  L 21,4  L 18,4  L 18,5  L 20,5  L 20,6  L 21,6  L 21,7  L 20,7  L 20,8  L 22,8  L 22,7  Z  " style="fill:rgb(126, 98, 55); fill-opacity:1.000; stroke:none;" />
 <path d="  M 19,21  L 19,22  L 20,22  L 20,21  Z  " style="fill:rgb(126, 98, 55); fill-opacity:1.000; stroke:none;" />
 <path d="  M 19,25  L 19,26  L 20,26  L 20,25  Z  " style="fill:rgb(126, 98, 55); fill-opacity:1.000; stroke:none;" />
 <path d="  M 19,37  L 19,38  L 20,38  L 20,37  Z  " style="fill:rgb(126, 98, 55); fill-opacity:1.000; stroke:none;" />
 <path d="  M 20,40  L 20,39  L 19,39  L 19,40  Z  " style="fill:rgb(126, 98, 55); fill-opacity:1.000; stroke:none;" />
 <path d="  M 22,54  L 22,55  L 23,55  L 23,54  L 24,54  L 24,53  L 25,53  L 25,54  L 26,54  L 26,53  L 27,53  L 27,52  L 23,52  L 23,53  L 20,53  L 20,54  Z  " style="fill:rgb(126, 98, 55); fill-opacity:1.000; stroke:none;" />
 <path d="  M 21,56  L 21,57  L 24,57  L 24,56  Z  " style="fill:rgb(126, 98, 55); fill-opacity:1.000; stroke:none;" />
 <path d="  M 24,57  L 24,58  L 25,58  L 25,57  Z  " style="fill:rgb(126, 98, 55); fill-opacity:1.000; stroke:none;" />
 <path d="  M 29,57  L 29,56  L 26,56  L 26,58  L 27,58  L 27,57  Z  " style="fill:rgb(126, 98, 55); fill-opacity:1.000; stroke:none;" />
 <path d="  M 27,53  L 27,54  L 29,54  L 29,53  Z  " style="fill:rgb(126, 98, 55); fill-opacity:1.000; stroke:none;" />
 <path d="  M 43,6  L 43,5  L 44,5  L 44,4  L 42,4  L 42,5  L 36,5  L 36,6  L 31,6  L 31,5  L 28,5  L 28,6  L 30,6  L 30,7  L 31,7  L 31,8  L 32,8  L 32,7  L 34,7  L 34,8  L 35,8  L 35,9  L 39,9  L 39,10  L 42,10  L 42,9  L 40,9  L 40,8  L 36,8  L 36,7  L 38,7  L 38,6  Z  " style="fill:rgb(126, 98, 55); fill-opacity:1.000; stroke:none;" />
 <path d="  M 31,8  L 30,8  L 30,9  L 31,9  Z  " style="fill:rgb(126, 98, 55); fill-opacity:1.000; stroke:none;" />
 <path d="  M 30,53  L 31,53  L 31,52  L 30,52  Z  " style="fill:rgb(126, 98, 55); fill-opacity:1.000; stroke:none;" />
 <path d="  M 31,56  L 30,56  L 30,58  L 31,58  Z  " style="fill:rgb(126, 98, 55); fill-opacity:1.000; stroke:none;" />
 <path d="  M 32,54  L 31,54  L 31,56  L 32,56  Z  " style="fill:rgb(126, 98, 55); fill-opacity:1.000; stroke:none;" />
 <path d="  M 32,9  L 33,9  L 33,8  L 32,8  Z  " style="fill:rgb(126, 98, 55); fill-opacity:1.000; stroke:none;" />
 <path d="  M 32,56  L 32,57  L 33,57  L 33,56  Z  " style="fill:rgb(126, 98, 55); fill-opacity:1.000; stroke:none;" />
 <path d="  M 33,52  L 33,53  L 37,53  L 37,52  Z  " style="fill:rgb(126, 98, 55); fill-opacity:1.000; stroke:none;" />
 <path d="  M 33,55  L 33,56  L 35,56  L 35,55  Z  " style="fill:rgb(126, 98, 55); fill-opacity:1.000; stroke:none;" />
 <path d="  M 35,9  L 34,9  L 34,10  L 35,10  Z  " style="fill:rgb(126, 98, 55); fill-opacity:1.000; stroke:none;" />
 <path d="  M 35,5  L 36,5  L 36,4  L 35,4  Z  " style="fill:rgb(126, 98, 55); fill-opacity:1.000; stroke:none;" />
 <path d="  M 38,57  L 38,56  L 35,56  L 35,57  Z  " style="fill:rgb(126, 98, 55); fill-opacity:1.000; stroke:none;" />
 <path d="  M 39,55  L 39,54  L 36,54  L 36,55  Z  " style="fill:rgb(126, 98, 55); fill-opacity:1.000; stroke:none;" />
 <path d="  M 44,56  L 44,55  L 42,55  L 42,54  L 43,54  L 43,53  L 42,53  L 42,52  L 40,52  L 40,53  L 41,53  L 41,54  L 40,54  L 40,55  L 39,55  L 39,56  Z  " style="fill:rgb(126, 98, 55); fill-opacity:1.000; stroke:none;" />
 <path d="  M 44,8  L 44,7  L 48,7  L 48,6  L 43,6  L 43,7  L 42,7  L 42,8  Z  " style="fill:rgb(126, 98, 55); fill-opacity:1.000; stroke:none;" />
 <path d="  M 47,9  L 47,8  L 44,8  L 44,9  Z  " style="fill:rgb(126, 98, 55); fill-opacity:1.000; stroke:none;" />
 <path d="  M 44,20  L 44,21  L 47,21  L 47,20  Z  " style="fill:rgb(126, 98, 55); fill-opacity:1.000; stroke:none;" />
 <path d="  M 44,22  L 44,23  L 46,23  L 46,24  L 48,24  L 48,23  L 47,23  L 47,22  Z  " style="fill:rgb(126, 98, 55); fill-opacity:1.000; stroke:none;" />
 <path d="  M 46,26  L 46,25  L 44,25  L 44,26  Z  " style="fill:rgb(126, 98, 55); fill-opacity:1.000; stroke:none;" />
 <path d="  M 44,39  L 45,39  L 45,38  L 47,38  L 47,37  L 44,37  Z  " style="fill:rgb(126, 98, 55); fill-opacity:1.000; stroke:none;" />
 <path d="  M 48,41  L 48,40  L 44,40  L 44,41  L 46,41  L 46,42  L 47,42  L 47,41  Z  " style="fill:rgb(126, 98, 55); fill-opacity:1.000; stroke:none;" />
 <path d="  M 45,54  L 45,53  L 44,53  L 44,54  Z  " style="fill:rgb(126, 98, 55); fill-opacity:1.000; stroke:none;" />
 <path d="  M 45,57  L 45,58  L 47,58  L 47,57  Z  " style="fill:rgb(126, 98, 55); fill-opacity:1.000; stroke:none;" />
 <path d="  M 46,53  L 48,53  L 48,52  L 46,52  Z  " style="fill:rgb(126, 98, 55); fill-opacity:1.000; stroke:none;" />
 <path d="  M 48,55  L 46,55  L 46,56  L 48,56  Z  " style="fill:rgb(126, 98, 55); fill-opacity:1.000; stroke:none;" />
 <path d="  M 47,21  L 47,22  L 48,22  L 48,21  Z  " style="fill:rgb(126, 98, 55); fill-opacity:1.000; stroke:none;" />
 <path d="  M 56,9  L 58,9  L 58,8  L 60,8  L 60,6  L 59,6  L 59,7  L 56,7  Z  " style="fill:rgb(126, 98, 55); fill-opacity:1.000; stroke:none;" />
 <path d="  M 57,21  L 57,20  L 56,20  L 56,21  Z  " style="fill:rgb(126, 98, 55); fill-opacity:1.000; stroke:none;" />
 <path d="  M 56,25  L 57,25  L 57,26  L 58,26  L 58,25  L 59,25  L 59,24  L 57,24  L 57,23  L 56,23  Z  " style="fill:rgb(126, 98, 55); fill-opacity:1.000; stroke:none;" />
 <path d="  M 57,57  L 56,57  L 56,58  L 57,58  Z  " style="fill:rgb(126, 98, 55); fill-opacity:1.000; stroke:none;" />
 <path d="  M 60,23  L 60,22  L 57,22  L 57,23  Z  " style="fill:rgb(126, 98, 55); fill-opacity:1.000; stroke:none;" />
 <path d="  M 57,38  L 57,39  L 58,39  L 58,38  Z  " style="fill:rgb(126, 98, 55); fill-opacity:1.000; stroke:none;" />
 <path d="  M 57,57  L 58,57  L 58,56  L 59,56  L 59,55  L 57,55  Z  " style="fill:rgb(126, 98, 55); fill-opacity:1.000; stroke:none;" />
 <path d="  M 60,4  L 58,4  L 58,5  L 60,5  Z  " style="fill:rgb(126, 98, 55); fill-opacity:1.000; stroke:none;" />
 <path d="  M 58,37  L 58,38  L 60,38  L 60,36  L 59,36  L 59,37  Z  " style="fill:rgb(126, 98, 55); fill-opacity:1.000; stroke:none;" />
 <path d="  M 60,54  L 60,53  L 58,53  L 58,54  Z  " style="fill:rgb(126, 98, 55); fill-opacity:1.000; stroke:none;" />
 <path d="  M 60,20  L 59,20  L 59,21  L 60,21  Z  " style="fill:rgb(126, 98, 55); fill-opacity:1.000; stroke:none;" />
 <path d="  M 60,26  L 60,25  L 59,25  L 59,26  Z  " style="fill:rgb(126, 98, 55); fill-opacity:1.000; stroke:none;" />
 <path d="  M 4,11  L 5,11  L 5,10  L 4,10  Z  " style="fill:rgb(103, 80, 44); fill-opacity:1.000; stroke:none;" />
 <path d="  M 4,26  L 4,27  L 6,27  L 6,26  Z  " style="fill:rgb(103, 80, 44); fill-opacity:1.000; stroke:none;" />
 <path d="  M 4,58  L 4,59  L 7,59  L 7,58  Z  " style="fill:rgb(103, 80, 44); fill-opacity:1.000; stroke:none;" />
 <path d="  M 8,43  L 8,42  L 5,42  L 5,43  Z  " style="fill:rgb(103, 80, 44); fill-opacity:1.000; stroke:none;" />
 <path d="  M 8,11  L 8,10  L 6,10  L 6,11  Z  " style="fill:rgb(103, 80, 44); fill-opacity:1.000; stroke:none;" />
 <path d="  M 8,26  L 7,26  L 7,27  L 8,27  Z  " style="fill:rgb(103, 80, 44); fill-opacity:1.000; stroke:none;" />
 <path d="  M 16,10  L 16,11  L 20,11  L 20,10  Z  " style="fill:rgb(103, 80, 44); fill-opacity:1.000; stroke:none;" />
 <path d="  M 17,42  L 16,42  L 16,43  L 17,43  Z  " style="fill:rgb(103, 80, 44); fill-opacity:1.000; stroke:none;" />
 <path d="  M 20,27  L 20,26  L 17,26  L 17,27  Z  " style="fill:rgb(103, 80, 44); fill-opacity:1.000; stroke:none;" />
 <path d="  M 27,59  L 27,58  L 17,58  L 17,59  Z  " style="fill:rgb(103, 80, 44); fill-opacity:1.000; stroke:none;" />
 <path d="  M 20,42  L 18,42  L 18,43  L 20,43  Z  " style="fill:rgb(103, 80, 44); fill-opacity:1.000; stroke:none;" />
 <path d="  M 23,10  L 23,11  L 30,11  L 30,10  Z  " style="fill:rgb(103, 80, 44); fill-opacity:1.000; stroke:none;" />
 <path d="  M 36,59  L 36,58  L 28,58  L 28,59  Z  " style="fill:rgb(103, 80, 44); fill-opacity:1.000; stroke:none;" />
 <path d="  M 44,11  L 44,10  L 31,10  L 31,11  Z  " style="fill:rgb(103, 80, 44); fill-opacity:1.000; stroke:none;" />
 <path d="  M 40,58  L 40,59  L 47,59  L 47,58  Z  " style="fill:rgb(103, 80, 44); fill-opacity:1.000; stroke:none;" />
 <path d="  M 44,26  L 44,27  L 47,27  L 47,26  Z  " style="fill:rgb(103, 80, 44); fill-opacity:1.000; stroke:none;" />
 <path d="  M 48,11  L 48,10  L 45,10  L 45,11  Z  " style="fill:rgb(103, 80, 44); fill-opacity:1.000; stroke:none;" />
 <path d="  M 45,42  L 45,43  L 48,43  L 48,42  Z  " style="fill:rgb(103, 80, 44); fill-opacity:1.000; stroke:none;" />
 <path d="  M 56,10  L 56,11  L 57,11  L 57,10  Z  " style="fill:rgb(103, 80, 44); fill-opacity:1.000; stroke:none;" />
 <path d="  M 56,27  L 59,27  L 59,26  L 56,26  Z  " style="fill:rgb(103, 80, 44); fill-opacity:1.000; stroke:none;" />
 <path d="  M 58,42  L 56,42  L 56,43  L 58,43  Z  " style="fill:rgb(103, 80, 44); fill-opacity:1.000; stroke:none;" />
 <path d="  M 58,59  L 58,58  L 56,58  L 56,59  Z  " style="fill:rgb(103, 80, 44); fill-opacity:1.000; stroke:none;" />
 <path d="  M 58,10  L 58,11  L 60,11  L 60,10  Z  " style="fill:rgb(103, 80, 44); fill-opacity:1.000; stroke:none;" />
 <path d="  M 59,43  L 60,43  L 60,42  L 59,42  Z  " style="fill:rgb(103, 80, 44); fill-opacity:1.000; stroke:none;" />
 <path d="  M 59,59  L 60,59  L 60,58  L 59,58  Z  " style="fill:rgb(103, 80, 44); fill-opacity:1.000; stroke:none;" />
 <path d="  M 6,11  L 6,10  L 5,10  L 5,11  L 4,11  L 4,12  L 8,12  L 8,11  Z  " style="fill:rgb(81, 61, 36); fill-opacity:1.000; stroke:none;" />
 <path d="  M 4,27  L 4,28  L 8,28  L 8,27  L 7,27  L 7,26  L 6,26  L 6,27  Z  " style="fill:rgb(81, 61, 36); fill-opacity:1.000; stroke:none;" />
 <path d="  M 5,43  L 5,42  L 4,42  L 4,44  L 8,44  L 8,43  Z  " style="fill:rgb(81, 61, 36); fill-opacity:1.000; stroke:none;" />
 <path d="  M 8,60  L 8,58  L 7,58  L 7,59  L 4,59  L 4,60  Z  " style="fill:rgb(81, 61, 36); fill-opacity:1.000; stroke:none;" />
 <path d="  M 31,11  L 31,10  L 30,10  L 30,11  L 23,11  L 23,10  L 20,10  L 20,11  L 16,11  L 16,12  L 48,12  L 48,11  L 45,11  L 45,10  L 44,10  L 44,11  Z  " style="fill:rgb(81, 61, 36); fill-opacity:1.000; stroke:none;" />
 <path d="  M 20,28  L 20,27  L 17,27  L 17,26  L 16,26  L 16,28  Z  " style="fill:rgb(81, 61, 36); fill-opacity:1.000; stroke:none;" />
 <path d="  M 17,42  L 17,43  L 16,43  L 16,44  L 20,44  L 20,43  L 18,43  L 18,42  Z  " style="fill:rgb(81, 61, 36); fill-opacity:1.000; stroke:none;" />
 <path d="  M 28,59  L 28,58  L 27,58  L 27,59  L 17,59  L 17,58  L 16,58  L 16,60  L 48,60  L 48,58  L 47,58  L 47,59  L 40,59  L 40,58  L 36,58  L 36,59  Z  " style="fill:rgb(81, 61, 36); fill-opacity:1.000; stroke:none;" />
 <path d="  M 47,27  L 44,27  L 44,28  L 48,28  L 48,26  L 47,26  Z  " style="fill:rgb(81, 61, 36); fill-opacity:1.000; stroke:none;" />
 <path d="  M 48,44  L 48,43  L 45,43  L 45,42  L 44,42  L 44,44  Z  " style="fill:rgb(81, 61, 36); fill-opacity:1.000; stroke:none;" />
 <path d="  M 58,10  L 57,10  L 57,11  L 56,11  L 56,12  L 60,12  L 60,11  L 58,11  Z  " style="fill:rgb(81, 61, 36); fill-opacity:1.000; stroke:none;" />
 <path d="  M 60,28  L 60,26  L 59,26  L 59,27  L 56,27  L 56,28  Z  " style="fill:rgb(81, 61, 36); fill-opacity:1.000; stroke:none;" />
 <path d="  M 58,43  L 56,43  L 56,44  L 60,44  L 60,43  L 59,43  L 59,42  L 58,42  Z  " style="fill:rgb(81, 61, 36); fill-opacity:1.000; stroke:none;" />
 <path d="  M 56,60  L 60,60  L 60,59  L 59,59  L 59,58  L 58,58  L 58,59  L 56,59  Z  " style="fill:rgb(81, 61, 36); fill-opacity:1.000; stroke:none;" />
 <path d="  M 6,21  L 6,20  L 4,20  L 4,21  Z  " style="fill:rgb(150, 116, 65); fill-opacity:1.000; stroke:none;" />
 <path d="  M 6,23  L 6,22  L 5,22  L 5,23  L 4,23  L 4,24  L 7,24  L 7,23  Z  " style="fill:rgb(150, 116, 65); fill-opacity:1.000; stroke:none;" />
 <path d="  M 4,36  L 4,37  L 6,37  L 6,36  Z  " style="fill:rgb(150, 116, 65); fill-opacity:1.000; stroke:none;" />
 <path d="  M 4,39  L 4,40  L 6,40  L 6,39  Z  " style="fill:rgb(150, 116, 65); fill-opacity:1.000; stroke:none;" />
 <path d="  M 4,41  L 4,42  L 5,42  L 5,41  Z  " style="fill:rgb(150, 116, 65); fill-opacity:1.000; stroke:none;" />
 <path d="  M 4,55  L 4,56  L 6,56  L 6,57  L 7,57  L 7,56  L 8,56  L 8,55  Z  " style="fill:rgb(150, 116, 65); fill-opacity:1.000; stroke:none;" />
 <path d="  M 7,8  L 7,7  L 5,7  L 5,8  Z  " style="fill:rgb(150, 116, 65); fill-opacity:1.000; stroke:none;" />
 <path d="  M 5,53  L 5,54  L 8,54  L 8,53  Z  " style="fill:rgb(150, 116, 65); fill-opacity:1.000; stroke:none;" />
 <path d="  M 6,4  L 6,5  L 8,5  L 8,4  Z  " style="fill:rgb(150, 116, 65); fill-opacity:1.000; stroke:none;" />
 <path d="  M 6,22  L 8,22  L 8,21  L 6,21  Z  " style="fill:rgb(150, 116, 65); fill-opacity:1.000; stroke:none;" />
 <path d="  M 6,37  L 6,38  L 7,38  L 7,39  L 8,39  L 8,37  Z  " style="fill:rgb(150, 116, 65); fill-opacity:1.000; stroke:none;" />
 <path d="  M 7,7  L 8,7  L 8,6  L 7,6  Z  " style="fill:rgb(150, 116, 65); fill-opacity:1.000; stroke:none;" />
 <path d="  M 7,41  L 8,41  L 8,40  L 7,40  Z  " style="fill:rgb(150, 116, 65); fill-opacity:1.000; stroke:none;" />
 <path d="  M 16,6  L 16,7  L 18,7  L 18,6  Z  " style="fill:rgb(150, 116, 65); fill-opacity:1.000; stroke:none;" />
 <path d="  M 19,22  L 19,21  L 16,21  L 16,22  Z  " style="fill:rgb(150, 116, 65); fill-opacity:1.000; stroke:none;" />
 <path d="  M 16,25  L 17,25  L 17,26  L 19,26  L 19,25  L 18,25  L 18,24  L 16,24  Z  " style="fill:rgb(150, 116, 65); fill-opacity:1.000; stroke:none;" />
 <path d="  M 18,38  L 18,39  L 16,39  L 16,40  L 18,40  L 18,41  L 17,41  L 17,42  L 20,42  L 20,40  L 19,40  L 19,39  L 20,39  L 20,38  L 19,38  L 19,37  L 16,37  L 16,38  Z  " style="fill:rgb(150, 116, 65); fill-opacity:1.000; stroke:none;" />
 <path d="  M 16,52  L 16,53  L 18,53  L 18,52  Z  " style="fill:rgb(150, 116, 65); fill-opacity:1.000; stroke:none;" />
 <path d="  M 17,56  L 16,56  L 16,57  L 17,57  Z  " style="fill:rgb(150, 116, 65); fill-opacity:1.000; stroke:none;" />
 <path d="  M 18,4  L 17,4  L 17,5  L 18,5  Z  " style="fill:rgb(150, 116, 65); fill-opacity:1.000; stroke:none;" />
 <path d="  M 17,54  L 17,55  L 19,55  L 19,57  L 21,57  L 21,56  L 20,56  L 20,55  L 22,55  L 22,54  Z  " style="fill:rgb(150, 116, 65); fill-opacity:1.000; stroke:none;" />
 <path d="  M 19,21  L 20,21  L 20,20  L 19,20  Z  " style="fill:rgb(150, 116, 65); fill-opacity:1.000; stroke:none;" />
 <path d="  M 20,22  L 19,22  L 19,23  L 20,23  Z  " style="fill:rgb(150, 116, 65); fill-opacity:1.000; stroke:none;" />
 <path d="  M 20,37  L 20,36  L 19,36  L 19,37  Z  " style="fill:rgb(150, 116, 65); fill-opacity:1.000; stroke:none;" />
 <path d="  M 20,8  L 20,9  L 22,9  L 22,8  Z  " style="fill:rgb(150, 116, 65); fill-opacity:1.000; stroke:none;" />
 <path d="  M 24,6  L 24,5  L 27,5  L 27,6  L 28,6  L 28,5  L 29,5  L 29,4  L 21,4  L 21,5  L 23,5  L 23,6  Z  " style="fill:rgb(150, 116, 65); fill-opacity:1.000; stroke:none;" />
 <path d="  M 23,58  L 23,57  L 21,57  L 21,58  Z  " style="fill:rgb(150, 116, 65); fill-opacity:1.000; stroke:none;" />
 <path d="  M 22,7  L 22,8  L 26,8  L 26,7  Z  " style="fill:rgb(150, 116, 65); fill-opacity:1.000; stroke:none;" />
 <path d="  M 24,57  L 25,57  L 25,58  L 26,58  L 26,54  L 25,54  L 25,55  L 22,55  L 22,56  L 24,56  Z  " style="fill:rgb(150, 116, 65); fill-opacity:1.000; stroke:none;" />
 <path d="  M 25,54  L 25,53  L 24,53  L 24,54  Z  " style="fill:rgb(150, 116, 65); fill-opacity:1.000; stroke:none;" />
 <path d="  M 27,53  L 26,53  L 26,54  L 27,54  Z  " style="fill:rgb(150, 116, 65); fill-opacity:1.000; stroke:none;" />
 <path d="  M 31,10  L 31,9  L 30,9  L 30,8  L 31,8  L 31,7  L 30,7  L 30,6  L 28,6  L 28,7  L 29,7  L 29,8  L 27,8  L 27,9  L 28,9  L 28,10  Z  " style="fill:rgb(150, 116, 65); fill-opacity:1.000; stroke:none;" />
 <path d="  M 30,56  L 31,56  L 31,54  L 33,54  L 33,55  L 35,55  L 35,54  L 36,54  L 36,53  L 33,53  L 33,52  L 31,52  L 31,53  L 30,53  L 30,52  L 27,52  L 27,53  L 29,53  L 29,54  L 30,54  L 30,55  L 28,55  L 28,56  L 29,56  L 29,57  L 30,57  Z  " style="fill:rgb(150, 116, 65); fill-opacity:1.000; stroke:none;" />
 <path d="  M 27,54  L 27,55  L 28,55  L 28,54  Z  " style="fill:rgb(150, 116, 65); fill-opacity:1.000; stroke:none;" />
 <path d="  M 27,58  L 28,58  L 28,57  L 27,57  Z  " style="fill:rgb(150, 116, 65); fill-opacity:1.000; stroke:none;" />
 <path d="  M 31,6  L 32,6  L 32,5  L 31,5  Z  " style="fill:rgb(150, 116, 65); fill-opacity:1.000; stroke:none;" />
 <path d="  M 31,8  L 31,9  L 32,9  L 32,8  Z  " style="fill:rgb(150, 116, 65); fill-opacity:1.000; stroke:none;" />
 <path d="  M 31,58  L 33,58  L 33,57  L 32,57  L 32,56  L 31,56  Z  " style="fill:rgb(150, 116, 65); fill-opacity:1.000; stroke:none;" />
 <path d="  M 33,5  L 33,4  L 32,4  L 32,5  Z  " style="fill:rgb(150, 116, 65); fill-opacity:1.000; stroke:none;" />
 <path d="  M 32,8  L 33,8  L 33,9  L 35,9  L 35,8  L 34,8  L 34,7  L 32,7  Z  " style="fill:rgb(150, 116, 65); fill-opacity:1.000; stroke:none;" />
 <path d="  M 32,56  L 33,56  L 33,55  L 32,55  Z  " style="fill:rgb(150, 116, 65); fill-opacity:1.000; stroke:none;" />
 <path d="  M 34,57  L 34,56  L 33,56  L 33,57  Z  " style="fill:rgb(150, 116, 65); fill-opacity:1.000; stroke:none;" />
 <path d="  M 35,4  L 34,4  L 34,5  L 35,5  Z  " style="fill:rgb(150, 116, 65); fill-opacity:1.000; stroke:none;" />
 <path d="  M 36,5  L 35,5  L 35,6  L 36,6  Z  " style="fill:rgb(150, 116, 65); fill-opacity:1.000; stroke:none;" />
 <path d="  M 35,10  L 39,10  L 39,9  L 35,9  Z  " style="fill:rgb(150, 116, 65); fill-opacity:1.000; stroke:none;" />
 <path d="  M 42,5  L 42,4  L 36,4  L 36,5  Z  " style="fill:rgb(150, 116, 65); fill-opacity:1.000; stroke:none;" />
 <path d="  M 37,52  L 37,53  L 40,53  L 40,52  Z  " style="fill:rgb(150, 116, 65); fill-opacity:1.000; stroke:none;" />
 <path d="  M 44,9  L 44,8  L 42,8  L 42,7  L 43,7  L 43,6  L 41,6  L 41,7  L 38,7  L 38,8  L 40,8  L 40,9  Z  " style="fill:rgb(150, 116, 65); fill-opacity:1.000; stroke:none;" />
 <path d="  M 38,55  L 38,56  L 39,56  L 39,55  Z  " style="fill:rgb(150, 116, 65); fill-opacity:1.000; stroke:none;" />
 <path d="  M 39,54  L 39,55  L 40,55  L 40,54  Z  " style="fill:rgb(150, 116, 65); fill-opacity:1.000; stroke:none;" />
 <path d="  M 40,56  L 40,57  L 44,57  L 44,56  Z  " style="fill:rgb(150, 116, 65); fill-opacity:1.000; stroke:none;" />
 <path d="  M 44,55  L 44,56  L 46,56  L 46,54  L 48,54  L 48,53  L 46,53  L 46,52  L 42,52  L 42,53  L 43,53  L 43,54  L 42,54  L 42,55  Z  M 45,54  L 44,54  L 44,53  L 45,53  Z  " style="fill:rgb(150, 116, 65); fill-opacity:1.000; stroke:none;" />
 <path d="  M 47,5  L 43,5  L 43,6  L 48,6  L 48,4  L 47,4  Z  " style="fill:rgb(150, 116, 65); fill-opacity:1.000; stroke:none;" />
 <path d="  M 48,36  L 44,36  L 44,37  L 47,37  L 47,38  L 45,38  L 45,39  L 44,39  L 44,40  L 48,40  Z  " style="fill:rgb(150, 116, 65); fill-opacity:1.000; stroke:none;" />
 <path d="  M 44,42  L 45,42  L 45,41  L 44,41  Z  " style="fill:rgb(150, 116, 65); fill-opacity:1.000; stroke:none;" />
 <path d="  M 45,58  L 45,57  L 44,57  L 44,58  Z  " style="fill:rgb(150, 116, 65); fill-opacity:1.000; stroke:none;" />
 <path d="  M 47,25  L 47,24  L 45,24  L 45,25  Z  " style="fill:rgb(150, 116, 65); fill-opacity:1.000; stroke:none;" />
 <path d="  M 48,23  L 48,22  L 47,22  L 47,23  Z  " style="fill:rgb(150, 116, 65); fill-opacity:1.000; stroke:none;" />
 <path d="  M 48,57  L 47,57  L 47,58  L 48,58  Z  " style="fill:rgb(150, 116, 65); fill-opacity:1.000; stroke:none;" />
 <path d="  M 56,4  L 56,5  L 58,5  L 58,4  Z  " style="fill:rgb(150, 116, 65); fill-opacity:1.000; stroke:none;" />
 <path d="  M 59,7  L 59,6  L 60,6  L 60,5  L 58,5  L 58,6  L 56,6  L 56,7  Z  " style="fill:rgb(150, 116, 65); fill-opacity:1.000; stroke:none;" />
 <path d="  M 57,10  L 57,9  L 56,9  L 56,10  Z  " style="fill:rgb(150, 116, 65); fill-opacity:1.000; stroke:none;" />
 <path d="  M 56,22  L 56,23  L 57,23  L 57,22  Z  " style="fill:rgb(150, 116, 65); fill-opacity:1.000; stroke:none;" />
 <path d="  M 57,26  L 57,25  L 56,25  L 56,26  Z  " style="fill:rgb(150, 116, 65); fill-opacity:1.000; stroke:none;" />
 <path d="  M 56,41  L 60,41  L 60,40  L 57,40  L 57,38  L 58,38  L 58,37  L 59,37  L 59,36  L 56,36  Z  " style="fill:rgb(150, 116, 65); fill-opacity:1.000; stroke:none;" />
 <path d="  M 56,53  L 56,54  L 58,54  L 58,53  Z  " style="fill:rgb(150, 116, 65); fill-opacity:1.000; stroke:none;" />
 <path d="  M 57,55  L 56,55  L 56,57  L 57,57  Z  " style="fill:rgb(150, 116, 65); fill-opacity:1.000; stroke:none;" />
 <path d="  M 57,22  L 60,22  L 60,21  L 57,21  Z  " style="fill:rgb(150, 116, 65); fill-opacity:1.000; stroke:none;" />
 <path d="  M 60,23  L 57,23  L 57,24  L 59,24  L 59,25  L 60,25  Z  " style="fill:rgb(150, 116, 65); fill-opacity:1.000; stroke:none;" />
 <path d="  M 58,8  L 58,9  L 60,9  L 60,8  Z  " style="fill:rgb(150, 116, 65); fill-opacity:1.000; stroke:none;" />
 <path d="  M 58,39  L 60,39  L 60,38  L 58,38  Z  " style="fill:rgb(150, 116, 65); fill-opacity:1.000; stroke:none;" />
 <path d="  M 58,55  L 60,55  L 60,54  L 58,54  Z  " style="fill:rgb(150, 116, 65); fill-opacity:1.000; stroke:none;" />
 <path d="  M 9,0  L 8,0  L 8,64  L 9,64  Z  " style="fill:rgb(191, 191, 191); fill-opacity:1.000; stroke:none;" />
 <path d="  M 56,0  L 55,0  L 55,64  L 56,64  Z  " style="fill:rgb(191, 191, 191); fill-opacity:1.000; stroke:none;" />
 <path d="  M 10,0  L 9,0  L 9,64  L 10,64  Z  " style="fill:rgb(171, 172, 171); fill-opacity:1.000; stroke:none;" />
 <path d="  M 40,23  L 40,22  L 22,22  L 22,41  L 23,41  L 23,23  Z  " style="fill:rgb(171, 172, 171); fill-opacity:1.000; stroke:none;" />
 <path d="  M 55,0  L 54,0  L 54,64  L 55,64  Z  " style="fill:rgb(171, 172, 171); fill-opacity:1.000; stroke:none;" />
 <path d="  M 14,64  L 14,0  L 10,0  L 10,64  Z  " style="fill:rgb(156, 156, 156); fill-opacity:1.000; stroke:none;" />
 <path d="  M 41,22  L 40,22  L 40,23  L 23,23  L 23,41  L 41,41  Z  " style="fill:rgb(156, 156, 156); fill-opacity:1.000; stroke:none;" />
 <path d="  M 50,64  L 54,64  L 54,0  L 50,0  Z  " style="fill:rgb(156, 156, 156); fill-opacity:1.000; stroke:none;" />
 <path d="  M 15,0  L 14,0  L 14,64  L 15,64  Z  " style="fill:rgb(114, 121, 110); fill-opacity:1.000; stroke:none;" />
 <path d="  M 25,42  L 25,41  L 22,41  L 22,42  Z  " style="fill:rgb(114, 121, 110); fill-opacity:1.000; stroke:none;" />
 <path d="  M 41,28  L 42,28  L 42,22  L 41,22  Z  " style="fill:rgb(114, 121, 110); fill-opacity:1.000; stroke:none;" />
 <path d="  M 49,0  L 49,64  L 50,64  L 50,0  Z  " style="fill:rgb(114, 121, 110); fill-opacity:1.000; stroke:none;" />
 <path d="  M 16,0  L 15,0  L 15,64  L 16,64  Z  " style="fill:rgb(104, 104, 104); fill-opacity:1.000; stroke:none;" />
 <path d="  M 42,28  L 41,28  L 41,41  L 25,41  L 25,42  L 42,42  Z  " style="fill:rgb(104, 104, 104); fill-opacity:1.000; stroke:none;" />
 <path d="  M 49,0  L 48,0  L 48,64  L 49,64  Z  " style="fill:rgb(104, 104, 104); fill-opacity:1.000; stroke:none;" />
 <path d="  M 43,43  L 21,43  L 21,21  L 43,21  Z  M 44,20  L 20,20  L 20,44  L 44,44  Z  " style="fill:rgb(74, 3, 3); fill-opacity:1.000; stroke:none;" />
 <path d="  M 42,22  L 42,42  L 22,42  L 22,22  Z  M 21,43  L 43,43  L 43,21  L 21,21  Z  " style="fill:rgb(98, 2, 2); fill-opacity:1.000; stroke:none;" />
</svg>
