<?xml version="1.0" encoding="UTF-8" standalone="no"?>
<!DOCTYPE svg PUBLIC "-//W3C//DTD SVG 1.1//EN" 
  "http://www.w3.org/Graphics/SVG/1.1/DTD/svg11.dtd">
<svg width="64" height="64"
	 xmlns="http://www.w3.org/2000/svg" version="1.1">
 <path d="  M 24,19  L 24,17  L 25,17  L 25,16  L 26,16  L 26,20  L 25,20  L 25,23  L 24,23  L 24,25  L 23,25  L 23,27  L 22,27  L 22,30  L 23,30  L 23,34  L 22,34  L 22,35  L 21,35  L 21,36  L 19,36  L 19,35  L 18,35  L 18,34  L 20,34  L 20,32  L 19,32  L 19,30  L 18,30  L 18,27  L 19,27  L 19,25  L 20,25  L 20,24  L 21,24  L 21,22  L 22,22  L 22,20  L 23,20  L 23,19  Z  M 29,22  L 30,22  L 30,21  L 31,21  L 31,20  L 32,20  L 32,16  L 31,16  L 31,15  L 30,15  L 30,14  L 29,14  L 29,10  L 30,10  L 30,9  L 31,9  L 31,8  L 34,8  L 34,9  L 33,9  L 33,10  L 32,10  L 32,12  L 33,12  L 33,13  L 34,13  L 34,14  L 35,14  L 35,16  L 36,16  L 36,20  L 38,20  L 38,21  L 39,21  L 39,22  L 40,22  L 40,26  L 39,26  L 39,27  L 37,27  L 37,29  L 38,29  L 38,31  L 39,31  L 39,32  L 40,32  L 40,38  L 39,38  L 39,39  L 38,39  L 38,40  L 37,40  L 37,44  L 38,44  L 38,46  L 39,46  L 39,47  L 41,47  L 41,44  L 43,44  L 43,45  L 44,45  L 44,47  L 45,47  L 45,49  L 44,49  L 44,50  L 43,50  L 43,51  L 41,51  L 41,52  L 38,52  L 38,51  L 36,51  L 36,50  L 35,50  L 35,49  L 34,49  L 34,47  L 33,47  L 33,38  L 34,38  L 34,36  L 35,36  L 35,33  L 34,33  L 34,32  L 33,32  L 33,31  L 32,31  L 32,30  L 31,30  L 31,28  L 30,28  L 30,27  L 29,27  Z  M 0,0  L 0,3  L 1,3  L 1,2  L 4,2  L 4,3  L 5,3  L 5,4  L 6,4  L 6,7  L 5,7  L 5,8  L 4,8  L 4,10  L 3,10  L 3,12  L 4,12  L 4,13  L 6,13  L 6,14  L 3,14  L 3,13  L 2,13  L 2,12  L 1,12  L 1,9  L 0,9  L 0,49  L 1,49  L 1,48  L 2,48  L 2,47  L 3,47  L 3,46  L 4,46  L 4,44  L 5,44  L 5,42  L 6,42  L 6,41  L 8,41  L 8,40  L 11,40  L 11,41  L 12,41  L 12,42  L 10,42  L 10,43  L 9,43  L 9,44  L 12,44  L 12,45  L 14,45  L 14,44  L 15,44  L 15,45  L 17,45  L 17,46  L 18,46  L 18,47  L 19,47  L 19,48  L 20,48  L 20,51  L 21,51  L 21,55  L 22,55  L 22,56  L 20,56  L 20,55  L 19,55  L 19,53  L 18,53  L 18,52  L 17,52  L 17,49  L 16,49  L 16,46  L 15,46  L 15,48  L 14,48  L 14,49  L 12,49  L 12,48  L 11,48  L 11,49  L 10,49  L 10,50  L 9,50  L 9,52  L 10,52  L 10,53  L 11,53  L 11,54  L 12,54  L 12,55  L 11,55  L 11,56  L 10,56  L 10,55  L 8,55  L 8,54  L 7,54  L 7,53  L 6,53  L 6,55  L 7,55  L 7,57  L 8,57  L 8,60  L 7,60  L 7,61  L 6,61  L 6,62  L 5,62  L 5,63  L 3,63  L 3,64  L 17,64  L 17,63  L 14,63  L 14,62  L 13,62  L 13,61  L 12,61  L 12,57  L 13,57  L 13,56  L 14,56  L 14,58  L 15,58  L 15,59  L 23,59  L 23,58  L 25,58  L 25,57  L 27,57  L 27,56  L 28,56  L 28,55  L 29,55  L 29,54  L 28,54  L 28,53  L 27,53  L 27,52  L 29,52  L 29,53  L 30,53  L 30,54  L 31,54  L 31,56  L 32,56  L 32,59  L 31,59  L 31,61  L 30,61  L 30,62  L 28,62  L 28,63  L 26,63  L 26,64  L 40,64  L 40,63  L 39,63  L 39,61  L 38,61  L 38,59  L 39,59  L 39,60  L 41,60  L 41,59  L 40,59  L 40,56  L 41,56  L 41,55  L 42,55  L 42,54  L 44,54  L 44,55  L 45,55  L 45,56  L 46,56  L 46,57  L 47,57  L 47,56  L 50,56  L 50,57  L 51,57  L 51,58  L 49,58  L 49,59  L 48,59  L 48,60  L 47,60  L 47,61  L 46,61  L 46,63  L 45,63  L 45,64  L 64,64  L 64,51  L 63,51  L 63,53  L 62,53  L 62,54  L 61,54  L 61,55  L 60,55  L 60,56  L 58,56  L 58,57  L 56,57  L 56,56  L 55,56  L 55,55  L 54,55  L 54,52  L 55,52  L 55,53  L 56,53  L 56,54  L 58,54  L 58,52  L 59,52  L 59,51  L 60,51  L 60,49  L 61,49  L 61,48  L 60,48  L 60,47  L 59,47  L 59,46  L 58,46  L 58,47  L 56,47  L 56,46  L 57,46  L 57,44  L 58,44  L 58,43  L 61,43  L 61,44  L 62,44  L 62,45  L 63,45  L 63,47  L 64,47  L 64,0  L 43,0  L 43,1  L 44,1  L 44,3  L 43,3  L 43,4  L 42,4  L 42,6  L 41,6  L 41,5  L 40,5  L 40,4  L 39,4  L 39,2  L 40,2  L 40,1  L 41,1  L 41,0  Z  M 7,12  L 7,13  L 6,13  L 6,12  Z  M 5,32  L 6,32  L 6,31  L 7,31  L 7,30  L 9,30  L 9,29  L 8,29  L 8,28  L 7,28  L 7,27  L 5,27  L 5,26  L 4,26  L 4,23  L 5,23  L 5,22  L 6,22  L 6,21  L 7,21  L 7,20  L 9,20  L 9,21  L 8,21  L 8,22  L 7,22  L 7,23  L 8,23  L 8,24  L 9,24  L 9,25  L 10,25  L 10,26  L 11,26  L 11,27  L 12,27  L 12,30  L 11,30  L 11,31  L 9,31  L 9,32  L 7,32  L 7,33  L 5,33  Z  M 50,32  L 53,32  L 53,31  L 55,31  L 55,30  L 54,30  L 54,28  L 53,28  L 53,26  L 52,26  L 52,24  L 51,24  L 51,23  L 50,23  L 50,15  L 51,15  L 51,8  L 52,8  L 52,6  L 53,6  L 53,3  L 54,3  L 54,4  L 55,4  L 55,6  L 56,6  L 56,9  L 55,9  L 55,11  L 56,11  L 56,13  L 57,13  L 57,14  L 58,14  L 58,15  L 59,15  L 59,17  L 60,17  L 60,19  L 59,19  L 59,21  L 58,21  L 58,22  L 57,22  L 57,20  L 58,20  L 58,19  L 57,19  L 57,18  L 56,18  L 56,19  L 55,19  L 55,23  L 56,23  L 56,25  L 57,25  L 57,26  L 58,26  L 58,28  L 59,28  L 59,29  L 60,29  L 60,31  L 59,31  L 59,32  L 58,32  L 58,33  L 57,33  L 57,34  L 56,34  L 56,35  L 53,35  L 53,36  L 52,36  L 52,38  L 53,38  L 53,39  L 54,39  L 54,40  L 52,40  L 52,39  L 49,39  L 49,38  L 48,38  L 48,35  L 49,35  L 49,33  L 50,33  Z  M 14,12  L 18,12  L 18,13  L 19,13  L 19,14  L 20,14  L 20,18  L 19,18  L 19,19  L 18,19  L 18,20  L 14,20  L 14,19  L 13,19  L 13,18  L 12,18  L 12,15  L 13,15  L 13,13  L 14,13  Z  M 46,13  L 46,15  L 45,15  L 45,14  L 44,14  L 44,13  L 43,13  L 43,9  L 44,9  L 44,8  L 45,8  L 45,7  L 46,7  L 46,6  L 48,6  L 48,7  L 49,7  L 49,8  L 50,8  L 50,11  L 49,11  L 49,12  L 48,12  L 48,13  Z  M 14,4  L 16,4  L 16,5  L 22,5  L 22,6  L 23,6  L 23,7  L 24,7  L 24,11  L 23,11  L 23,12  L 22,12  L 22,9  L 20,9  L 20,8  L 16,8  L 16,7  L 13,7  L 13,6  L 12,6  L 12,5  L 10,5  L 10,4  L 11,4  L 11,3  L 13,3  L 13,2  L 15,2  L 15,3  L 14,3  Z  M 53,3  L 52,3  L 52,2  L 53,2  Z  M 27,39  L 29,39  L 29,40  L 30,40  L 30,42  L 29,42  L 29,43  L 28,43  L 28,45  L 27,45  L 27,46  L 26,46  L 26,47  L 25,47  L 25,48  L 23,48  L 23,47  L 22,47  L 22,45  L 23,45  L 23,44  L 24,44  L 24,43  L 25,43  L 25,42  L 26,42  L 26,40  L 27,40  Z  M 52,58  L 52,59  L 51,59  L 51,58  Z  M 12,42  L 13,42  L 13,43  L 12,43  Z  M 9,20  L 9,19  L 10,19  L 10,20  Z  M 40,43  L 41,43  L 41,44  L 40,44  Z  M 25,15  L 25,16  L 24,16  L 24,15  Z  M 12,54  L 12,53  L 13,53  L 13,54  Z  M 17,33  L 18,33  L 18,34  L 17,34  Z  M 23,55  L 22,55  L 22,54  L 23,54  Z  M 15,56  L 14,56  L 14,55  L 15,55  Z  M 35,10  L 34,10  L 34,9  L 35,9  Z  M 55,39  L 54,39  L 54,38  L 55,38  Z  M 22,13  L 21,13  L 21,12  L 22,12  Z  M 26,53  L 27,53  L 27,54  L 26,54  Z  M 9,5  L 10,5  L 10,6  L 9,6  Z  M 56,52  L 55,52  L 55,51  L 56,51  Z  M 55,48  L 55,47  L 56,47  L 56,48  Z  M 42,6  L 43,6  L 43,7  L 42,7  Z  " style="fill:rgb(8, 8, 12); fill-opacity:1.000; stroke:none;" />
 <path d="  M 2,63  L 2,61  L 3,61  L 3,58  L 2,58  L 2,56  L 1,56  L 1,54  L 0,54  L 0,62  L 1,62  L 1,63  Z  " style="fill:rgb(8, 8, 12); fill-opacity:1.000; stroke:none;" />
 <path d="  M 0,64  L 1,64  L 1,63  L 0,63  Z  " style="fill:rgb(8, 8, 12); fill-opacity:1.000; stroke:none;" />
 <path d="  M 15,45  L 14,45  L 14,46  L 15,46  Z  " style="fill:rgb(8, 8, 12); fill-opacity:1.000; stroke:none;" />
 <path d="  M 36,25  L 36,27  L 37,27  L 37,26  L 38,26  L 38,25  Z  " style="fill:rgb(8, 8, 12); fill-opacity:1.000; stroke:none;" />
 <path d="  M 1,12  L 2,12  L 2,13  L 3,13  L 3,14  L 6,14  L 6,13  L 4,13  L 4,12  L 3,12  L 3,10  L 4,10  L 4,8  L 5,8  L 5,7  L 6,7  L 6,4  L 5,4  L 5,3  L 4,3  L 4,2  L 1,2  L 1,3  L 0,3  L 0,9  L 1,9  Z  " style="fill:rgb(16, 16, 16); fill-opacity:1.000; stroke:none;" />
 <path d="  M 5,63  L 5,62  L 6,62  L 6,61  L 7,61  L 7,60  L 8,60  L 8,57  L 7,57  L 7,55  L 6,55  L 6,48  L 7,48  L 7,46  L 8,46  L 8,45  L 9,45  L 9,43  L 10,43  L 10,42  L 12,42  L 12,41  L 11,41  L 11,40  L 8,40  L 8,41  L 6,41  L 6,42  L 5,42  L 5,44  L 4,44  L 4,46  L 3,46  L 3,47  L 2,47  L 2,48  L 1,48  L 1,49  L 0,49  L 0,54  L 1,54  L 1,56  L 2,56  L 2,58  L 3,58  L 3,61  L 2,61  L 2,63  L 1,63  L 1,64  L 3,64  L 3,63  Z  " style="fill:rgb(16, 16, 16); fill-opacity:1.000; stroke:none;" />
 <path d="  M 0,62  L 0,63  L 1,63  L 1,62  Z  " style="fill:rgb(16, 16, 16); fill-opacity:1.000; stroke:none;" />
 <path d="  M 9,29  L 9,30  L 7,30  L 7,31  L 6,31  L 6,32  L 5,32  L 5,33  L 7,33  L 7,32  L 9,32  L 9,31  L 11,31  L 11,30  L 12,30  L 12,27  L 11,27  L 11,26  L 10,26  L 10,25  L 9,25  L 9,24  L 8,24  L 8,23  L 7,23  L 7,22  L 8,22  L 8,21  L 9,21  L 9,20  L 7,20  L 7,21  L 6,21  L 6,22  L 5,22  L 5,23  L 4,23  L 4,26  L 5,26  L 5,27  L 7,27  L 7,28  L 8,28  L 8,29  Z  " style="fill:rgb(16, 16, 16); fill-opacity:1.000; stroke:none;" />
 <path d="  M 6,13  L 7,13  L 7,12  L 6,12  Z  " style="fill:rgb(16, 16, 16); fill-opacity:1.000; stroke:none;" />
 <path d="  M 9,6  L 10,6  L 10,5  L 9,5  Z  " style="fill:rgb(16, 16, 16); fill-opacity:1.000; stroke:none;" />
 <path d="  M 9,19  L 9,20  L 10,20  L 10,19  Z  " style="fill:rgb(16, 16, 16); fill-opacity:1.000; stroke:none;" />
 <path d="  M 12,5  L 12,6  L 13,6  L 13,7  L 16,7  L 16,8  L 20,8  L 20,9  L 22,9  L 22,12  L 23,12  L 23,11  L 24,11  L 24,7  L 23,7  L 23,6  L 22,6  L 22,5  L 16,5  L 16,4  L 14,4  L 14,3  L 15,3  L 15,2  L 13,2  L 13,3  L 11,3  L 11,4  L 10,4  L 10,5  Z  " style="fill:rgb(16, 16, 16); fill-opacity:1.000; stroke:none;" />
 <path d="  M 13,42  L 12,42  L 12,43  L 13,43  Z  " style="fill:rgb(16, 16, 16); fill-opacity:1.000; stroke:none;" />
 <path d="  M 26,64  L 26,63  L 28,63  L 28,62  L 30,62  L 30,61  L 31,61  L 31,59  L 32,59  L 32,56  L 31,56  L 31,54  L 30,54  L 30,53  L 29,53  L 29,52  L 27,52  L 27,53  L 28,53  L 28,54  L 29,54  L 29,55  L 28,55  L 28,56  L 27,56  L 27,57  L 25,57  L 25,58  L 23,58  L 23,59  L 15,59  L 15,58  L 14,58  L 14,56  L 13,56  L 13,57  L 12,57  L 12,61  L 13,61  L 13,62  L 14,62  L 14,63  L 17,63  L 17,64  Z  " style="fill:rgb(16, 16, 16); fill-opacity:1.000; stroke:none;" />
 <path d="  M 15,45  L 15,44  L 14,44  L 14,45  Z  " style="fill:rgb(16, 16, 16); fill-opacity:1.000; stroke:none;" />
 <path d="  M 14,55  L 14,56  L 15,56  L 15,55  Z  " style="fill:rgb(16, 16, 16); fill-opacity:1.000; stroke:none;" />
 <path d="  M 16,49  L 17,49  L 17,52  L 18,52  L 18,53  L 19,53  L 19,55  L 20,55  L 20,56  L 22,56  L 22,55  L 21,55  L 21,51  L 20,51  L 20,48  L 19,48  L 19,47  L 18,47  L 18,46  L 17,46  L 17,45  L 15,45  L 15,46  L 16,46  Z  " style="fill:rgb(16, 16, 16); fill-opacity:1.000; stroke:none;" />
 <path d="  M 18,33  L 17,33  L 17,34  L 18,34  Z  " style="fill:rgb(16, 16, 16); fill-opacity:1.000; stroke:none;" />
 <path d="  M 19,30  L 19,32  L 20,32  L 20,34  L 18,34  L 18,35  L 19,35  L 19,36  L 21,36  L 21,35  L 22,35  L 22,34  L 23,34  L 23,30  L 22,30  L 22,27  L 23,27  L 23,25  L 24,25  L 24,23  L 25,23  L 25,20  L 26,20  L 26,16  L 25,16  L 25,17  L 24,17  L 24,19  L 23,19  L 23,20  L 22,20  L 22,22  L 21,22  L 21,24  L 20,24  L 20,25  L 19,25  L 19,27  L 18,27  L 18,30  Z  " style="fill:rgb(16, 16, 16); fill-opacity:1.000; stroke:none;" />
 <path d="  M 21,12  L 21,13  L 22,13  L 22,12  Z  " style="fill:rgb(16, 16, 16); fill-opacity:1.000; stroke:none;" />
 <path d="  M 23,55  L 23,54  L 22,54  L 22,55  Z  " style="fill:rgb(16, 16, 16); fill-opacity:1.000; stroke:none;" />
 <path d="  M 25,16  L 25,15  L 24,15  L 24,16  Z  " style="fill:rgb(16, 16, 16); fill-opacity:1.000; stroke:none;" />
 <path d="  M 27,53  L 26,53  L 26,54  L 27,54  Z  " style="fill:rgb(16, 16, 16); fill-opacity:1.000; stroke:none;" />
 <path d="  M 41,47  L 39,47  L 39,46  L 38,46  L 38,44  L 37,44  L 37,40  L 38,40  L 38,39  L 39,39  L 39,38  L 40,38  L 40,32  L 39,32  L 39,31  L 38,31  L 38,29  L 37,29  L 37,27  L 36,27  L 36,26  L 35,26  L 35,28  L 34,28  L 34,27  L 33,27  L 33,26  L 32,26  L 32,22  L 33,22  L 33,21  L 34,21  L 34,20  L 36,20  L 36,16  L 35,16  L 35,14  L 34,14  L 34,13  L 33,13  L 33,12  L 32,12  L 32,10  L 33,10  L 33,9  L 34,9  L 34,8  L 31,8  L 31,9  L 30,9  L 30,10  L 29,10  L 29,14  L 30,14  L 30,15  L 31,15  L 31,16  L 32,16  L 32,20  L 31,20  L 31,21  L 30,21  L 30,22  L 29,22  L 29,27  L 30,27  L 30,28  L 31,28  L 31,30  L 32,30  L 32,31  L 33,31  L 33,32  L 34,32  L 34,33  L 35,33  L 35,36  L 34,36  L 34,38  L 33,38  L 33,47  L 34,47  L 34,49  L 35,49  L 35,50  L 36,50  L 36,51  L 38,51  L 38,52  L 41,52  L 41,51  L 43,51  L 43,50  L 44,50  L 44,49  L 45,49  L 45,47  L 44,47  L 44,45  L 43,45  L 43,44  L 41,44  Z  M 35,28  L 36,28  L 36,29  L 35,29  Z  " style="fill:rgb(16, 16, 16); fill-opacity:1.000; stroke:none;" />
 <path d="  M 35,9  L 34,9  L 34,10  L 35,10  Z  " style="fill:rgb(16, 16, 16); fill-opacity:1.000; stroke:none;" />
 <path d="  M 48,59  L 49,59  L 49,58  L 51,58  L 51,57  L 50,57  L 50,56  L 47,56  L 47,57  L 46,57  L 46,58  L 45,58  L 45,59  L 43,59  L 43,60  L 39,60  L 39,59  L 38,59  L 38,61  L 39,61  L 39,63  L 40,63  L 40,64  L 45,64  L 45,63  L 46,63  L 46,61  L 47,61  L 47,60  L 48,60  Z  " style="fill:rgb(16, 16, 16); fill-opacity:1.000; stroke:none;" />
 <path d="  M 44,3  L 44,1  L 43,1  L 43,0  L 41,0  L 41,1  L 40,1  L 40,2  L 39,2  L 39,4  L 40,4  L 40,5  L 41,5  L 41,6  L 42,6  L 42,4  L 43,4  L 43,3  Z  " style="fill:rgb(16, 16, 16); fill-opacity:1.000; stroke:none;" />
 <path d="  M 40,43  L 40,44  L 41,44  L 41,43  Z  " style="fill:rgb(16, 16, 16); fill-opacity:1.000; stroke:none;" />
 <path d="  M 43,7  L 43,6  L 42,6  L 42,7  Z  " style="fill:rgb(16, 16, 16); fill-opacity:1.000; stroke:none;" />
 <path d="  M 52,8  L 51,8  L 51,15  L 50,15  L 50,23  L 51,23  L 51,24  L 52,24  L 52,26  L 53,26  L 53,28  L 54,28  L 54,30  L 56,30  L 56,29  L 57,29  L 57,28  L 58,28  L 58,26  L 57,26  L 57,25  L 56,25  L 56,23  L 55,23  L 55,19  L 56,19  L 56,18  L 57,18  L 57,19  L 58,19  L 58,20  L 57,20  L 57,22  L 58,22  L 58,21  L 59,21  L 59,19  L 60,19  L 60,17  L 59,17  L 59,15  L 58,15  L 58,14  L 57,14  L 57,13  L 56,13  L 56,11  L 55,11  L 55,9  L 56,9  L 56,6  L 55,6  L 55,4  L 54,4  L 54,3  L 53,3  L 53,6  L 52,6  Z  " style="fill:rgb(16, 16, 16); fill-opacity:1.000; stroke:none;" />
 <path d="  M 51,58  L 51,59  L 52,59  L 52,58  Z  " style="fill:rgb(16, 16, 16); fill-opacity:1.000; stroke:none;" />
 <path d="  M 52,3  L 53,3  L 53,2  L 52,2  Z  " style="fill:rgb(16, 16, 16); fill-opacity:1.000; stroke:none;" />
 <path d="  M 59,47  L 60,47  L 60,48  L 61,48  L 61,49  L 60,49  L 60,51  L 59,51  L 59,52  L 58,52  L 58,54  L 56,54  L 56,53  L 55,53  L 55,52  L 54,52  L 54,55  L 55,55  L 55,56  L 56,56  L 56,57  L 58,57  L 58,56  L 60,56  L 60,55  L 61,55  L 61,54  L 62,54  L 62,53  L 63,53  L 63,51  L 64,51  L 64,47  L 63,47  L 63,45  L 62,45  L 62,44  L 61,44  L 61,43  L 58,43  L 58,44  L 57,44  L 57,46  L 56,46  L 56,47  L 58,47  L 58,46  L 59,46  Z  " style="fill:rgb(16, 16, 16); fill-opacity:1.000; stroke:none;" />
 <path d="  M 56,48  L 56,47  L 55,47  L 55,48  Z  " style="fill:rgb(16, 16, 16); fill-opacity:1.000; stroke:none;" />
 <path d="  M 55,52  L 56,52  L 56,51  L 55,51  Z  " style="fill:rgb(16, 16, 16); fill-opacity:1.000; stroke:none;" />
 <path d="  M 7,53  L 7,54  L 8,54  L 8,55  L 10,55  L 10,56  L 11,56  L 11,55  L 12,55  L 12,54  L 11,54  L 11,53  L 10,53  L 10,52  L 9,52  L 9,50  L 10,50  L 10,49  L 11,49  L 11,48  L 12,48  L 12,49  L 14,49  L 14,48  L 15,48  L 15,46  L 14,46  L 14,45  L 12,45  L 12,44  L 9,44  L 9,45  L 8,45  L 8,46  L 7,46  L 7,48  L 6,48  L 6,53  Z  " style="fill:rgb(45, 1, 51); fill-opacity:1.000; stroke:none;" />
 <path d="  M 20,14  L 19,14  L 19,13  L 18,13  L 18,12  L 14,12  L 14,13  L 13,13  L 13,15  L 12,15  L 12,18  L 13,18  L 13,19  L 14,19  L 14,20  L 18,20  L 18,19  L 19,19  L 19,18  L 20,18  Z  " style="fill:rgb(45, 1, 51); fill-opacity:1.000; stroke:none;" />
 <path d="  M 13,54  L 13,53  L 12,53  L 12,54  Z  " style="fill:rgb(45, 1, 51); fill-opacity:1.000; stroke:none;" />
 <path d="  M 27,39  L 27,40  L 26,40  L 26,42  L 25,42  L 25,43  L 24,43  L 24,44  L 23,44  L 23,45  L 22,45  L 22,47  L 23,47  L 23,48  L 25,48  L 25,47  L 26,47  L 26,46  L 27,46  L 27,45  L 28,45  L 28,43  L 29,43  L 29,42  L 30,42  L 30,40  L 29,40  L 29,39  Z  " style="fill:rgb(45, 1, 51); fill-opacity:1.000; stroke:none;" />
 <path d="  M 38,26  L 37,26  L 37,27  L 39,27  L 39,26  L 40,26  L 40,22  L 39,22  L 39,21  L 38,21  L 38,20  L 34,20  L 34,21  L 33,21  L 33,22  L 32,22  L 32,26  L 33,26  L 33,27  L 34,27  L 34,28  L 35,28  L 35,26  L 36,26  L 36,25  L 38,25  Z  " style="fill:rgb(45, 1, 51); fill-opacity:1.000; stroke:none;" />
 <path d="  M 36,29  L 36,28  L 35,28  L 35,29  Z  " style="fill:rgb(45, 1, 51); fill-opacity:1.000; stroke:none;" />
 <path d="  M 40,59  L 41,59  L 41,60  L 43,60  L 43,59  L 45,59  L 45,58  L 46,58  L 46,56  L 45,56  L 45,55  L 44,55  L 44,54  L 42,54  L 42,55  L 41,55  L 41,56  L 40,56  Z  " style="fill:rgb(45, 1, 51); fill-opacity:1.000; stroke:none;" />
 <path d="  M 49,11  L 50,11  L 50,8  L 49,8  L 49,7  L 48,7  L 48,6  L 46,6  L 46,7  L 45,7  L 45,8  L 44,8  L 44,9  L 43,9  L 43,13  L 44,13  L 44,14  L 45,14  L 45,15  L 46,15  L 46,13  L 48,13  L 48,12  L 49,12  Z  " style="fill:rgb(45, 1, 51); fill-opacity:1.000; stroke:none;" />
 <path d="  M 58,32  L 59,32  L 59,31  L 60,31  L 60,29  L 59,29  L 59,28  L 57,28  L 57,29  L 56,29  L 56,30  L 55,30  L 55,31  L 53,31  L 53,32  L 50,32  L 50,33  L 49,33  L 49,35  L 48,35  L 48,38  L 49,38  L 49,39  L 52,39  L 52,40  L 54,40  L 54,39  L 53,39  L 53,38  L 52,38  L 52,36  L 53,36  L 53,35  L 56,35  L 56,34  L 57,34  L 57,33  L 58,33  Z  " style="fill:rgb(45, 1, 51); fill-opacity:1.000; stroke:none;" />
 <path d="  M 54,39  L 55,39  L 55,38  L 54,38  Z  " style="fill:rgb(45, 1, 51); fill-opacity:1.000; stroke:none;" />
</svg>
