<?xml version="1.0" encoding="UTF-8" standalone="no"?>
<!DOCTYPE svg PUBLIC "-//W3C//DTD SVG 1.1//EN" 
  "http://www.w3.org/Graphics/SVG/1.1/DTD/svg11.dtd">
<svg width="64" height="64"
	 xmlns="http://www.w3.org/2000/svg" version="1.1">
 <path d="  M 63,1  L 63,0  L 0,0  L 0,63  L 1,63  L 1,1  Z  " style="fill:rgb(23, 221, 98); fill-opacity:1.000; stroke:none;" />
 <path d="  M 4,48  L 5,48  L 5,50  L 4,50  L 4,52  L 3,52  L 3,60  L 4,60  L 4,61  L 6,61  L 6,60  L 5,60  L 5,59  L 4,59  L 4,54  L 5,54  L 5,52  L 6,52  L 6,50  L 7,50  L 7,49  L 8,49  L 8,42  L 7,42  L 7,44  L 6,44  L 6,45  L 5,45  L 5,43  L 4,43  Z  M 5,47  L 6,47  L 6,48  L 5,48  Z  " style="fill:rgb(23, 221, 98); fill-opacity:1.000; stroke:none;" />
 <path d="  M 7,19  L 8,19  L 8,18  L 7,18  L 7,16  L 8,16  L 8,14  L 7,14  L 7,15  L 6,15  L 6,17  L 5,17  L 5,19  L 4,19  L 4,20  L 5,20  L 5,21  L 6,21  L 6,20  L 7,20  Z  " style="fill:rgb(23, 221, 98); fill-opacity:1.000; stroke:none;" />
 <path d="  M 5,39  L 6,39  L 6,37  L 5,37  L 5,35  L 6,35  L 6,32  L 7,32  L 7,29  L 8,29  L 8,24  L 7,24  L 7,25  L 6,25  L 6,26  L 5,26  L 5,29  L 4,29  L 4,41  L 5,41  Z  " style="fill:rgb(23, 221, 98); fill-opacity:1.000; stroke:none;" />
 <path d="  M 7,11  L 6,11  L 6,12  L 5,12  L 5,15  L 6,15  L 6,13  L 7,13  Z  " style="fill:rgb(23, 221, 98); fill-opacity:1.000; stroke:none;" />
 <path d="  M 6,42  L 5,42  L 5,43  L 6,43  Z  " style="fill:rgb(23, 221, 98); fill-opacity:1.000; stroke:none;" />
 <path d="  M 15,5  L 15,4  L 13,4  L 13,5  L 10,5  L 10,6  L 7,6  L 7,7  L 6,7  L 6,8  L 7,8  L 7,9  L 8,9  L 8,8  L 9,8  L 9,7  L 11,7  L 11,6  L 14,6  L 14,7  L 16,7  L 16,6  L 19,6  L 19,5  Z  " style="fill:rgb(23, 221, 98); fill-opacity:1.000; stroke:none;" />
 <path d="  M 10,62  L 10,61  L 6,61  L 6,62  Z  " style="fill:rgb(23, 221, 98); fill-opacity:1.000; stroke:none;" />
 <path d="  M 13,40  L 13,36  L 12,36  L 12,33  L 11,33  L 11,40  L 10,40  L 10,44  L 11,44  L 11,41  L 12,41  L 12,40  Z  " style="fill:rgb(23, 221, 98); fill-opacity:1.000; stroke:none;" />
 <path d="  M 13,47  L 11,47  L 11,48  L 12,48  L 12,49  L 13,49  Z  " style="fill:rgb(23, 221, 98); fill-opacity:1.000; stroke:none;" />
 <path d="  M 13,18  L 12,18  L 12,23  L 13,23  Z  " style="fill:rgb(23, 221, 98); fill-opacity:1.000; stroke:none;" />
 <path d="  M 13,7  L 13,8  L 14,8  L 14,7  Z  " style="fill:rgb(23, 221, 98); fill-opacity:1.000; stroke:none;" />
 <path d="  M 13,49  L 13,50  L 14,50  L 14,49  Z  " style="fill:rgb(23, 221, 98); fill-opacity:1.000; stroke:none;" />
 <path d="  M 16,52  L 18,52  L 18,53  L 22,53  L 22,54  L 26,54  L 26,53  L 23,53  L 23,52  L 20,52  L 20,51  L 17,51  L 17,50  L 14,50  L 14,51  L 16,51  Z  " style="fill:rgb(23, 221, 98); fill-opacity:1.000; stroke:none;" />
 <path d="  M 27,13  L 27,12  L 18,12  L 18,13  Z  " style="fill:rgb(23, 221, 98); fill-opacity:1.000; stroke:none;" />
 <path d="  M 23,32  L 22,32  L 22,33  L 23,33  Z  " style="fill:rgb(23, 221, 98); fill-opacity:1.000; stroke:none;" />
 <path d="  M 23,33  L 23,34  L 24,34  L 24,35  L 25,35  L 25,36  L 26,36  L 26,37  L 27,37  L 27,38  L 28,38  L 28,39  L 29,39  L 29,40  L 30,40  L 30,41  L 31,41  L 31,33  Z  " style="fill:rgb(23, 221, 98); fill-opacity:1.000; stroke:none;" />
 <path d="  M 30,8  L 30,7  L 29,7  L 29,6  L 27,6  L 27,7  L 24,7  L 24,8  Z  " style="fill:rgb(23, 221, 98); fill-opacity:1.000; stroke:none;" />
 <path d="  M 42,4  L 35,4  L 35,5  L 33,5  L 33,6  L 30,6  L 30,7  L 35,7  L 35,6  L 39,6  L 39,5  L 43,5  L 43,4  L 46,4  L 46,3  L 42,3  Z  " style="fill:rgb(23, 221, 98); fill-opacity:1.000; stroke:none;" />
 <path d="  M 31,41  L 31,42  L 32,42  L 32,41  Z  " style="fill:rgb(23, 221, 98); fill-opacity:1.000; stroke:none;" />
 <path d="  M 51,18  L 52,18  L 52,22  L 53,22  L 53,28  L 54,28  L 54,20  L 53,20  L 53,17  L 52,17  L 52,12  L 49,12  L 49,11  L 46,11  L 46,10  L 32,10  L 32,11  L 42,11  L 42,12  L 47,12  L 47,13  L 49,13  L 49,14  L 51,14  Z  " style="fill:rgb(23, 221, 98); fill-opacity:1.000; stroke:none;" />
 <path d="  M 35,24  L 35,25  L 36,25  L 36,26  L 37,26  L 37,27  L 38,27  L 38,28  L 39,28  L 39,29  L 40,29  L 40,30  L 41,30  L 41,31  L 42,31  L 42,32  L 45,32  L 45,22  L 44,22  L 44,20  L 42,20  L 42,19  L 32,19  L 32,22  L 33,22  L 33,23  L 34,23  L 34,24  Z  " style="fill:rgb(23, 221, 98); fill-opacity:1.000; stroke:none;" />
 <path d="  M 41,33  L 41,32  L 32,32  L 32,41  L 33,41  L 33,33  Z  " style="fill:rgb(23, 221, 98); fill-opacity:1.000; stroke:none;" />
 <path d="  M 46,46  L 46,32  L 45,32  L 45,44  L 44,44  L 44,45  L 32,45  L 32,46  Z  " style="fill:rgb(23, 221, 98); fill-opacity:1.000; stroke:none;" />
 <path d="  M 53,40  L 52,40  L 52,46  L 51,46  L 51,49  L 50,49  L 50,50  L 48,50  L 48,51  L 46,51  L 46,52  L 43,52  L 43,53  L 36,53  L 36,54  L 44,54  L 44,53  L 47,53  L 47,52  L 51,52  L 51,51  L 52,51  L 52,49  L 53,49  L 53,44  L 54,44  L 54,36  L 53,36  Z  " style="fill:rgb(23, 221, 98); fill-opacity:1.000; stroke:none;" />
 <path d="  M 48,59  L 52,59  L 52,58  L 49,58  L 49,57  L 45,57  L 45,56  L 40,56  L 40,57  L 44,57  L 44,58  L 48,58  Z  " style="fill:rgb(23, 221, 98); fill-opacity:1.000; stroke:none;" />
 <path d="  M 50,4  L 50,5  L 48,5  L 48,4  L 46,4  L 46,5  L 45,5  L 45,6  L 44,6  L 44,7  L 48,7  L 48,6  L 54,6  L 54,5  L 55,5  L 55,4  Z  " style="fill:rgb(23, 221, 98); fill-opacity:1.000; stroke:none;" />
 <path d="  M 53,11  L 53,13  L 54,13  L 54,10  L 51,10  L 51,11  Z  " style="fill:rgb(23, 221, 98); fill-opacity:1.000; stroke:none;" />
 <path d="  M 51,53  L 51,54  L 54,54  L 54,51  L 53,51  L 53,53  Z  " style="fill:rgb(23, 221, 98); fill-opacity:1.000; stroke:none;" />
 <path d="  M 56,58  L 54,58  L 54,59  L 56,59  Z  " style="fill:rgb(23, 221, 98); fill-opacity:1.000; stroke:none;" />
 <path d="  M 59,8  L 59,6  L 58,6  L 58,5  L 55,5  L 55,6  L 57,6  L 57,7  L 58,7  L 58,8  Z  " style="fill:rgb(23, 221, 98); fill-opacity:1.000; stroke:none;" />
 <path d="  M 58,18  L 58,17  L 59,17  L 59,18  L 60,18  L 60,8  L 59,8  L 59,12  L 58,12  L 58,14  L 57,14  L 57,16  L 56,16  L 56,19  L 57,19  L 57,18  Z  " style="fill:rgb(23, 221, 98); fill-opacity:1.000; stroke:none;" />
 <path d="  M 57,51  L 58,51  L 58,54  L 59,54  L 59,55  L 60,55  L 60,52  L 59,52  L 59,47  L 58,47  L 58,41  L 57,41  L 57,38  L 56,38  L 56,46  L 57,46  Z  " style="fill:rgb(23, 221, 98); fill-opacity:1.000; stroke:none;" />
 <path d="  M 57,56  L 57,57  L 56,57  L 56,58  L 58,58  L 58,57  L 59,57  L 59,55  L 58,55  L 58,56  Z  " style="fill:rgb(23, 221, 98); fill-opacity:1.000; stroke:none;" />
 <path d="  M 62,20  L 61,20  L 61,18  L 60,18  L 60,24  L 61,24  L 61,28  L 62,28  Z  " style="fill:rgb(23, 221, 98); fill-opacity:1.000; stroke:none;" />
 <path d="  M 0,64  L 1,64  L 1,63  L 0,63  Z  " style="fill:rgb(23, 197, 68); fill-opacity:1.000; stroke:none;" />
 <path d="  M 2,2  L 63,2  L 63,1  L 1,1  L 1,63  L 2,63  Z  " style="fill:rgb(23, 197, 68); fill-opacity:1.000; stroke:none;" />
 <path d="  M 48,6  L 48,7  L 44,7  L 44,6  L 45,6  L 45,5  L 46,5  L 46,4  L 43,4  L 43,5  L 39,5  L 39,6  L 35,6  L 35,7  L 30,7  L 30,8  L 13,8  L 13,7  L 14,7  L 14,6  L 11,6  L 11,7  L 9,7  L 9,8  L 8,8  L 8,16  L 7,16  L 7,18  L 8,18  L 8,29  L 7,29  L 7,32  L 6,32  L 6,35  L 5,35  L 5,37  L 6,37  L 6,39  L 5,39  L 5,42  L 6,42  L 6,43  L 5,43  L 5,45  L 6,45  L 6,44  L 7,44  L 7,42  L 8,42  L 8,49  L 7,49  L 7,50  L 6,50  L 6,52  L 5,52  L 5,54  L 4,54  L 4,59  L 5,59  L 5,60  L 6,60  L 6,61  L 10,61  L 10,62  L 11,62  L 11,61  L 14,61  L 14,60  L 20,60  L 20,59  L 23,59  L 23,60  L 26,60  L 26,61  L 30,61  L 30,62  L 38,62  L 38,61  L 41,61  L 41,60  L 49,60  L 49,61  L 52,61  L 52,62  L 56,62  L 56,61  L 60,61  L 60,60  L 61,60  L 61,56  L 62,56  L 62,46  L 61,46  L 61,47  L 60,47  L 60,44  L 61,44  L 61,43  L 60,43  L 60,40  L 59,40  L 59,37  L 60,37  L 60,35  L 61,35  L 61,30  L 62,30  L 62,28  L 61,28  L 61,24  L 60,24  L 60,18  L 59,18  L 59,17  L 58,17  L 58,18  L 57,18  L 57,19  L 56,19  L 56,16  L 57,16  L 57,14  L 58,14  L 58,12  L 59,12  L 59,8  L 58,8  L 58,7  L 57,7  L 57,6  L 55,6  L 55,5  L 54,5  L 54,6  Z  M 24,56  L 19,56  L 19,55  L 9,55  L 9,39  L 8,39  L 8,40  L 7,40  L 7,36  L 8,36  L 8,32  L 9,32  L 9,9  L 11,9  L 11,8  L 13,8  L 13,9  L 34,9  L 34,8  L 38,8  L 38,7  L 40,7  L 40,6  L 42,6  L 42,7  L 43,7  L 43,8  L 46,8  L 46,9  L 49,9  L 49,8  L 54,8  L 54,9  L 55,9  L 55,10  L 56,10  L 56,15  L 55,15  L 55,29  L 56,29  L 56,27  L 57,27  L 57,34  L 56,34  L 56,36  L 55,36  L 55,55  L 52,55  L 52,56  L 56,56  L 56,38  L 57,38  L 57,41  L 58,41  L 58,47  L 59,47  L 59,52  L 60,52  L 60,55  L 59,55  L 59,57  L 58,57  L 58,58  L 56,58  L 56,59  L 48,59  L 48,58  L 44,58  L 44,57  L 40,57  L 40,56  L 32,56  L 32,57  L 33,57  L 33,58  L 30,58  L 30,57  L 24,57  Z  " style="fill:rgb(23, 197, 68); fill-opacity:1.000; stroke:none;" />
 <path d="  M 12,36  L 13,36  L 13,40  L 12,40  L 12,41  L 11,41  L 11,46  L 12,46  L 12,47  L 13,47  L 13,49  L 14,49  L 14,50  L 17,50  L 17,51  L 20,51  L 20,52  L 23,52  L 23,53  L 26,53  L 26,54  L 28,54  L 28,53  L 32,53  L 32,52  L 37,52  L 37,53  L 43,53  L 43,52  L 46,52  L 46,51  L 48,51  L 48,50  L 50,50  L 50,49  L 51,49  L 51,46  L 52,46  L 52,40  L 53,40  L 53,36  L 54,36  L 54,28  L 53,28  L 53,22  L 52,22  L 52,18  L 51,18  L 51,14  L 49,14  L 49,13  L 47,13  L 47,12  L 42,12  L 42,11  L 28,11  L 28,12  L 27,12  L 27,13  L 15,13  L 15,14  L 14,14  L 14,15  L 13,15  L 13,23  L 12,23  L 12,26  L 11,26  L 11,33  L 12,33  Z  M 37,14  L 37,15  L 41,15  L 41,16  L 45,16  L 45,17  L 47,17  L 47,33  L 48,33  L 48,35  L 49,35  L 49,39  L 48,39  L 48,42  L 47,42  L 47,47  L 42,47  L 42,48  L 32,48  L 32,49  L 29,49  L 29,50  L 27,50  L 27,49  L 24,49  L 24,48  L 22,48  L 22,47  L 17,47  L 17,38  L 16,38  L 16,30  L 15,30  L 15,25  L 16,25  L 16,23  L 17,23  L 17,17  L 26,17  L 26,16  L 28,16  L 28,15  L 32,15  L 32,14  Z  " style="fill:rgb(23, 197, 68); fill-opacity:1.000; stroke:none;" />
 <path d="  M 28,39  L 28,38  L 27,38  L 27,37  L 26,37  L 26,36  L 25,36  L 25,35  L 24,35  L 24,34  L 23,34  L 23,33  L 22,33  L 22,32  L 19,32  L 19,42  L 20,42  L 20,44  L 22,44  L 22,45  L 44,45  L 44,44  L 45,44  L 45,32  L 44,32  L 44,43  L 43,43  L 43,44  L 32,44  L 32,42  L 31,42  L 31,41  L 30,41  L 30,40  L 29,40  L 29,39  Z  " style="fill:rgb(23, 197, 68); fill-opacity:1.000; stroke:none;" />
 <path d="  M 33,42  L 33,41  L 32,41  L 32,42  Z  " style="fill:rgb(23, 197, 68); fill-opacity:1.000; stroke:none;" />
 <path d="  M 33,41  L 34,41  L 34,40  L 35,40  L 35,39  L 36,39  L 36,38  L 37,38  L 37,37  L 38,37  L 38,36  L 39,36  L 39,35  L 40,35  L 40,34  L 41,34  L 41,33  L 33,33  Z  " style="fill:rgb(23, 197, 68); fill-opacity:1.000; stroke:none;" />
 <path d="  M 41,32  L 41,33  L 42,33  L 42,32  Z  " style="fill:rgb(23, 197, 68); fill-opacity:1.000; stroke:none;" />
 <path d="  M 64,0  L 63,0  L 63,1  L 64,1  Z  " style="fill:rgb(23, 197, 68); fill-opacity:1.000; stroke:none;" />
 <path d="  M 63,32  L 62,32  L 62,37  L 61,37  L 61,43  L 62,43  L 62,42  L 63,42  L 63,61  L 62,61  L 62,62  L 60,62  L 60,63  L 45,63  L 45,62  L 47,62  L 47,61  L 42,61  L 42,62  L 39,62  L 39,63  L 21,63  L 21,62  L 23,62  L 23,61  L 16,61  L 16,62  L 12,62  L 12,63  L 1,63  L 1,64  L 64,64  L 64,1  L 63,1  Z  " style="fill:rgb(28, 152, 41); fill-opacity:1.000; stroke:none;" />
 <path d="  M 2,2  L 2,15  L 3,15  L 3,13  L 4,13  L 4,11  L 5,11  L 5,10  L 6,10  L 6,9  L 4,9  L 4,10  L 3,10  L 3,8  L 4,8  L 4,7  L 3,7  L 3,5  L 4,5  L 4,4  L 6,4  L 6,3  L 7,3  L 7,4  L 9,4  L 9,3  L 16,3  L 16,4  L 18,4  L 18,3  L 21,3  L 21,4  L 23,4  L 23,5  L 22,5  L 22,6  L 20,6  L 20,7  L 19,7  L 19,8  L 22,8  L 22,7  L 23,7  L 23,6  L 25,6  L 25,5  L 26,5  L 26,4  L 30,4  L 30,3  L 32,3  L 32,2  Z  " style="fill:rgb(130, 246, 173); fill-opacity:1.000; stroke:none;" />
 <path d="  M 2,28  L 3,28  L 3,27  L 4,27  L 4,24  L 3,24  L 3,16  L 2,16  Z  " style="fill:rgb(130, 246, 173); fill-opacity:1.000; stroke:none;" />
 <path d="  M 3,32  L 2,32  L 2,36  L 3,36  Z  " style="fill:rgb(130, 246, 173); fill-opacity:1.000; stroke:none;" />
 <path d="  M 3,40  L 2,40  L 2,42  L 3,42  Z  " style="fill:rgb(130, 246, 173); fill-opacity:1.000; stroke:none;" />
 <path d="  M 3,44  L 2,44  L 2,47  L 3,47  Z  " style="fill:rgb(130, 246, 173); fill-opacity:1.000; stroke:none;" />
 <path d="  M 3,48  L 2,48  L 2,52  L 3,52  Z  " style="fill:rgb(130, 246, 173); fill-opacity:1.000; stroke:none;" />
 <path d="  M 12,10  L 12,11  L 11,11  L 11,12  L 10,12  L 10,28  L 11,28  L 11,13  L 12,13  L 12,12  L 15,12  L 15,11  L 28,11  L 28,10  Z  " style="fill:rgb(130, 246, 173); fill-opacity:1.000; stroke:none;" />
 <path d="  M 12,52  L 12,51  L 11,51  L 11,48  L 10,48  L 10,53  L 11,53  L 11,54  L 16,54  L 16,53  L 13,53  L 13,52  Z  " style="fill:rgb(130, 246, 173); fill-opacity:1.000; stroke:none;" />
 <path d="  M 18,18  L 18,32  L 19,32  L 19,20  L 20,20  L 20,19  L 32,19  L 32,18  Z  " style="fill:rgb(130, 246, 173); fill-opacity:1.000; stroke:none;" />
 <path d="  M 22,46  L 22,45  L 20,45  L 20,44  L 19,44  L 19,42  L 18,42  L 18,46  Z  " style="fill:rgb(130, 246, 173); fill-opacity:1.000; stroke:none;" />
 <path d="  M 26,28  L 25,28  L 25,29  L 24,29  L 24,30  L 23,30  L 23,31  L 22,31  L 22,32  L 32,32  L 32,22  L 31,22  L 31,23  L 30,23  L 30,24  L 29,24  L 29,25  L 28,25  L 28,26  L 27,26  L 27,27  L 26,27  Z  " style="fill:rgb(130, 246, 173); fill-opacity:1.000; stroke:none;" />
 <path d="  M 33,2  L 33,3  L 35,3  L 35,2  Z  " style="fill:rgb(130, 246, 173); fill-opacity:1.000; stroke:none;" />
 <path d="  M 36,3  L 44,3  L 44,2  L 36,2  Z  " style="fill:rgb(130, 246, 173); fill-opacity:1.000; stroke:none;" />
 <path d="  M 46,18  L 42,18  L 42,19  L 44,19  L 44,20  L 45,20  L 45,22  L 46,22  Z  " style="fill:rgb(130, 246, 173); fill-opacity:1.000; stroke:none;" />
 <path d="  M 47,57  L 53,57  L 53,58  L 54,58  L 54,57  L 56,57  L 56,56  L 47,56  Z  " style="fill:rgb(130, 246, 173); fill-opacity:1.000; stroke:none;" />
 <path d="  M 52,4  L 52,3  L 57,3  L 57,2  L 48,2  L 48,3  L 49,3  L 49,4  Z  " style="fill:rgb(130, 246, 173); fill-opacity:1.000; stroke:none;" />
 <path d="  M 56,56  L 57,56  L 57,55  L 58,55  L 58,54  L 57,54  L 57,51  L 56,51  Z  " style="fill:rgb(130, 246, 173); fill-opacity:1.000; stroke:none;" />
 <path d="  M 58,3  L 60,3  L 60,4  L 61,4  L 61,6  L 62,6  L 62,2  L 58,2  Z  " style="fill:rgb(130, 246, 173); fill-opacity:1.000; stroke:none;" />
 <path d="  M 62,7  L 61,7  L 61,14  L 62,14  Z  " style="fill:rgb(130, 246, 173); fill-opacity:1.000; stroke:none;" />
 <path d="  M 61,17  L 62,17  L 62,16  L 61,16  Z  " style="fill:rgb(130, 246, 173); fill-opacity:1.000; stroke:none;" />
 <path d="  M 9,3  L 9,4  L 7,4  L 7,3  L 6,3  L 6,4  L 4,4  L 4,5  L 3,5  L 3,7  L 4,7  L 4,8  L 3,8  L 3,10  L 4,10  L 4,9  L 6,9  L 6,10  L 5,10  L 5,11  L 4,11  L 4,13  L 3,13  L 3,15  L 2,15  L 2,16  L 3,16  L 3,24  L 4,24  L 4,27  L 3,27  L 3,28  L 2,28  L 2,32  L 3,32  L 3,36  L 2,36  L 2,40  L 3,40  L 3,42  L 2,42  L 2,44  L 3,44  L 3,47  L 2,47  L 2,48  L 3,48  L 3,52  L 4,52  L 4,50  L 5,50  L 5,48  L 4,48  L 4,43  L 5,43  L 5,41  L 4,41  L 4,29  L 5,29  L 5,26  L 6,26  L 6,25  L 7,25  L 7,24  L 8,24  L 8,19  L 7,19  L 7,20  L 6,20  L 6,21  L 5,21  L 5,20  L 4,20  L 4,19  L 5,19  L 5,17  L 6,17  L 6,15  L 7,15  L 7,14  L 8,14  L 8,9  L 7,9  L 7,8  L 6,8  L 6,7  L 7,7  L 7,6  L 10,6  L 10,5  L 13,5  L 13,4  L 15,4  L 15,5  L 19,5  L 19,6  L 16,6  L 16,7  L 14,7  L 14,8  L 19,8  L 19,7  L 20,7  L 20,6  L 22,6  L 22,5  L 23,5  L 23,4  L 21,4  L 21,3  L 18,3  L 18,4  L 16,4  L 16,3  Z  M 7,13  L 6,13  L 6,15  L 5,15  L 5,12  L 6,12  L 6,11  L 7,11  Z  " style="fill:rgb(65, 243, 132); fill-opacity:1.000; stroke:none;" />
 <path d="  M 3,52  L 2,52  L 2,62  L 6,62  L 6,61  L 4,61  L 4,60  L 3,60  Z  " style="fill:rgb(65, 243, 132); fill-opacity:1.000; stroke:none;" />
 <path d="  M 5,48  L 6,48  L 6,47  L 5,47  Z  " style="fill:rgb(65, 243, 132); fill-opacity:1.000; stroke:none;" />
 <path d="  M 10,10  L 10,12  L 11,12  L 11,11  L 12,11  L 12,10  Z  " style="fill:rgb(65, 243, 132); fill-opacity:1.000; stroke:none;" />
 <path d="  M 10,40  L 11,40  L 11,28  L 10,28  Z  " style="fill:rgb(65, 243, 132); fill-opacity:1.000; stroke:none;" />
 <path d="  M 10,48  L 11,48  L 11,47  L 12,47  L 12,46  L 11,46  L 11,44  L 10,44  Z  " style="fill:rgb(65, 243, 132); fill-opacity:1.000; stroke:none;" />
 <path d="  M 10,54  L 11,54  L 11,53  L 10,53  Z  " style="fill:rgb(65, 243, 132); fill-opacity:1.000; stroke:none;" />
 <path d="  M 11,26  L 12,26  L 12,18  L 13,18  L 13,15  L 14,15  L 14,14  L 15,14  L 15,13  L 18,13  L 18,12  L 28,12  L 28,11  L 15,11  L 15,12  L 12,12  L 12,13  L 11,13  Z  " style="fill:rgb(65, 243, 132); fill-opacity:1.000; stroke:none;" />
 <path d="  M 16,51  L 14,51  L 14,50  L 13,50  L 13,49  L 12,49  L 12,48  L 11,48  L 11,51  L 12,51  L 12,52  L 13,52  L 13,53  L 16,53  L 16,54  L 22,54  L 22,53  L 18,53  L 18,52  L 16,52  Z  " style="fill:rgb(65, 243, 132); fill-opacity:1.000; stroke:none;" />
 <path d="  M 18,32  L 18,42  L 19,42  L 19,32  Z  " style="fill:rgb(65, 243, 132); fill-opacity:1.000; stroke:none;" />
 <path d="  M 19,32  L 22,32  L 22,31  L 23,31  L 23,30  L 24,30  L 24,29  L 25,29  L 25,28  L 26,28  L 26,27  L 27,27  L 27,26  L 28,26  L 28,25  L 29,25  L 29,24  L 30,24  L 30,23  L 31,23  L 31,22  L 32,22  L 32,19  L 20,19  L 20,20  L 19,20  Z  " style="fill:rgb(65, 243, 132); fill-opacity:1.000; stroke:none;" />
 <path d="  M 20,42  L 19,42  L 19,44  L 20,44  Z  " style="fill:rgb(65, 243, 132); fill-opacity:1.000; stroke:none;" />
 <path d="  M 20,44  L 20,45  L 22,45  L 22,44  Z  " style="fill:rgb(65, 243, 132); fill-opacity:1.000; stroke:none;" />
 <path d="  M 42,4  L 42,3  L 36,3  L 36,2  L 35,2  L 35,3  L 33,3  L 33,2  L 32,2  L 32,3  L 30,3  L 30,4  L 26,4  L 26,5  L 25,5  L 25,6  L 23,6  L 23,7  L 22,7  L 22,8  L 24,8  L 24,7  L 27,7  L 27,6  L 29,6  L 29,7  L 30,7  L 30,6  L 33,6  L 33,5  L 35,5  L 35,4  Z  " style="fill:rgb(65, 243, 132); fill-opacity:1.000; stroke:none;" />
 <path d="  M 32,46  L 32,45  L 22,45  L 22,46  Z  " style="fill:rgb(65, 243, 132); fill-opacity:1.000; stroke:none;" />
 <path d="  M 31,41  L 32,41  L 32,32  L 23,32  L 23,33  L 31,33  Z  " style="fill:rgb(65, 243, 132); fill-opacity:1.000; stroke:none;" />
 <path d="  M 32,11  L 32,10  L 28,10  L 28,11  Z  " style="fill:rgb(65, 243, 132); fill-opacity:1.000; stroke:none;" />
 <path d="  M 42,19  L 42,18  L 32,18  L 32,19  Z  " style="fill:rgb(65, 243, 132); fill-opacity:1.000; stroke:none;" />
 <path d="  M 41,31  L 41,30  L 40,30  L 40,29  L 39,29  L 39,28  L 38,28  L 38,27  L 37,27  L 37,26  L 36,26  L 36,25  L 35,25  L 35,24  L 34,24  L 34,23  L 33,23  L 33,22  L 32,22  L 32,32  L 42,32  L 42,31  Z  " style="fill:rgb(65, 243, 132); fill-opacity:1.000; stroke:none;" />
 <path d="  M 42,19  L 42,20  L 44,20  L 44,19  Z  " style="fill:rgb(65, 243, 132); fill-opacity:1.000; stroke:none;" />
 <path d="  M 50,4  L 49,4  L 49,3  L 48,3  L 48,2  L 44,2  L 44,3  L 46,3  L 46,4  L 48,4  L 48,5  L 50,5  Z  " style="fill:rgb(65, 243, 132); fill-opacity:1.000; stroke:none;" />
 <path d="  M 44,20  L 44,22  L 45,22  L 45,20  Z  " style="fill:rgb(65, 243, 132); fill-opacity:1.000; stroke:none;" />
 <path d="  M 44,53  L 44,54  L 51,54  L 51,53  L 53,53  L 53,51  L 54,51  L 54,44  L 53,44  L 53,49  L 52,49  L 52,51  L 51,51  L 51,52  L 47,52  L 47,53  Z  " style="fill:rgb(65, 243, 132); fill-opacity:1.000; stroke:none;" />
 <path d="  M 46,32  L 46,22  L 45,22  L 45,32  Z  " style="fill:rgb(65, 243, 132); fill-opacity:1.000; stroke:none;" />
 <path d="  M 47,56  L 45,56  L 45,57  L 47,57  Z  " style="fill:rgb(65, 243, 132); fill-opacity:1.000; stroke:none;" />
 <path d="  M 46,10  L 46,11  L 49,11  L 49,12  L 52,12  L 52,17  L 53,17  L 53,20  L 54,20  L 54,13  L 53,13  L 53,11  L 51,11  L 51,10  Z  " style="fill:rgb(65, 243, 132); fill-opacity:1.000; stroke:none;" />
 <path d="  M 49,58  L 52,58  L 52,59  L 54,59  L 54,58  L 53,58  L 53,57  L 49,57  Z  " style="fill:rgb(65, 243, 132); fill-opacity:1.000; stroke:none;" />
 <path d="  M 60,18  L 61,18  L 61,20  L 62,20  L 62,17  L 61,17  L 61,16  L 62,16  L 62,14  L 61,14  L 61,7  L 62,7  L 62,6  L 61,6  L 61,4  L 60,4  L 60,3  L 58,3  L 58,2  L 57,2  L 57,3  L 52,3  L 52,4  L 55,4  L 55,5  L 58,5  L 58,6  L 59,6  L 59,8  L 60,8  Z  " style="fill:rgb(65, 243, 132); fill-opacity:1.000; stroke:none;" />
 <path d="  M 54,57  L 54,58  L 56,58  L 56,57  Z  " style="fill:rgb(65, 243, 132); fill-opacity:1.000; stroke:none;" />
 <path d="  M 56,51  L 57,51  L 57,46  L 56,46  Z  " style="fill:rgb(65, 243, 132); fill-opacity:1.000; stroke:none;" />
 <path d="  M 56,56  L 56,57  L 57,57  L 57,56  Z  " style="fill:rgb(65, 243, 132); fill-opacity:1.000; stroke:none;" />
 <path d="  M 57,54  L 58,54  L 58,51  L 57,51  Z  " style="fill:rgb(65, 243, 132); fill-opacity:1.000; stroke:none;" />
 <path d="  M 57,56  L 58,56  L 58,55  L 57,55  Z  " style="fill:rgb(65, 243, 132); fill-opacity:1.000; stroke:none;" />
 <path d="  M 58,54  L 58,55  L 59,55  L 59,54  Z  " style="fill:rgb(65, 243, 132); fill-opacity:1.000; stroke:none;" />
 <path d="  M 63,42  L 62,42  L 62,43  L 61,43  L 61,44  L 60,44  L 60,47  L 61,47  L 61,46  L 62,46  L 62,56  L 61,56  L 61,60  L 60,60  L 60,61  L 56,61  L 56,62  L 52,62  L 52,61  L 49,61  L 49,60  L 41,60  L 41,61  L 38,61  L 38,62  L 30,62  L 30,61  L 26,61  L 26,60  L 23,60  L 23,59  L 20,59  L 20,60  L 14,60  L 14,61  L 11,61  L 11,62  L 2,62  L 2,63  L 12,63  L 12,62  L 16,62  L 16,61  L 23,61  L 23,62  L 21,62  L 21,63  L 39,63  L 39,62  L 42,62  L 42,61  L 47,61  L 47,62  L 45,62  L 45,63  L 60,63  L 60,62  L 62,62  L 62,61  L 63,61  Z  " style="fill:rgb(26, 174, 53); fill-opacity:1.000; stroke:none;" />
 <path d="  M 56,15  L 56,10  L 55,10  L 55,9  L 54,9  L 54,8  L 49,8  L 49,9  L 46,9  L 46,8  L 43,8  L 43,7  L 42,7  L 42,6  L 40,6  L 40,7  L 38,7  L 38,8  L 34,8  L 34,9  L 13,9  L 13,8  L 11,8  L 11,9  L 9,9  L 9,32  L 8,32  L 8,36  L 7,36  L 7,40  L 8,40  L 8,39  L 9,39  L 9,55  L 19,55  L 19,56  L 24,56  L 24,57  L 30,57  L 30,58  L 33,58  L 33,57  L 32,57  L 32,56  L 52,56  L 52,55  L 55,55  L 55,36  L 56,36  L 56,34  L 57,34  L 57,27  L 56,27  L 56,29  L 55,29  L 55,15  Z  M 10,54  L 10,10  L 54,10  L 54,54  L 36,54  L 36,53  L 37,53  L 37,52  L 32,52  L 32,53  L 28,53  L 28,54  Z  " style="fill:rgb(26, 174, 53); fill-opacity:1.000; stroke:none;" />
 <path d="  M 46,46  L 18,46  L 18,18  L 46,18  Z  M 47,33  L 47,17  L 45,17  L 45,16  L 41,16  L 41,15  L 37,15  L 37,14  L 32,14  L 32,15  L 28,15  L 28,16  L 26,16  L 26,17  L 17,17  L 17,23  L 16,23  L 16,25  L 15,25  L 15,30  L 16,30  L 16,38  L 17,38  L 17,47  L 22,47  L 22,48  L 24,48  L 24,49  L 27,49  L 27,50  L 29,50  L 29,49  L 32,49  L 32,48  L 42,48  L 42,47  L 47,47  L 47,42  L 48,42  L 48,39  L 49,39  L 49,35  L 48,35  L 48,33  Z  " style="fill:rgb(26, 174, 53); fill-opacity:1.000; stroke:none;" />
 <path d="  M 32,42  L 32,44  L 43,44  L 43,43  L 44,43  L 44,32  L 42,32  L 42,33  L 41,33  L 41,34  L 40,34  L 40,35  L 39,35  L 39,36  L 38,36  L 38,37  L 37,37  L 37,38  L 36,38  L 36,39  L 35,39  L 35,40  L 34,40  L 34,41  L 33,41  L 33,42  Z  " style="fill:rgb(26, 174, 53); fill-opacity:1.000; stroke:none;" />
 <path d="  M 62,30  L 61,30  L 61,35  L 60,35  L 60,37  L 59,37  L 59,40  L 60,40  L 60,43  L 61,43  L 61,37  L 62,37  L 62,32  L 63,32  L 63,2  L 62,2  Z  " style="fill:rgb(26, 174, 53); fill-opacity:1.000; stroke:none;" />
</svg>
