<?xml version="1.0" encoding="UTF-8" standalone="no"?>
<!DOCTYPE svg PUBLIC "-//W3C//DTD SVG 1.1//EN" 
  "http://www.w3.org/Graphics/SVG/1.1/DTD/svg11.dtd">
<svg width="64" height="64"
	 xmlns="http://www.w3.org/2000/svg" version="1.1">
 <path d="  M 14,17  L 14,16  L 0,16  L 0,30  L 1,30  L 1,17  Z  " style="fill:rgb(255, 255, 255); fill-opacity:1.000; stroke:none;" />
 <path d="  M 63,30  L 64,30  L 64,16  L 50,16  L 50,17  L 63,17  Z  " style="fill:rgb(255, 255, 255); fill-opacity:1.000; stroke:none;" />
 <path d="  M 0,32  L 2,32  L 2,31  L 1,31  L 1,30  L 0,30  Z  " style="fill:rgb(44, 205, 177); fill-opacity:1.000; stroke:none;" />
 <path d="  M 14,16  L 14,17  L 15,17  L 15,18  L 16,18  L 16,16  Z  " style="fill:rgb(44, 205, 177); fill-opacity:1.000; stroke:none;" />
 <path d="  M 50,17  L 50,16  L 48,16  L 48,18  L 49,18  L 49,17  Z  " style="fill:rgb(44, 205, 177); fill-opacity:1.000; stroke:none;" />
 <path d="  M 64,30  L 63,30  L 63,31  L 62,31  L 62,32  L 64,32  Z  " style="fill:rgb(44, 205, 177); fill-opacity:1.000; stroke:none;" />
 <path d="  M 0,34  L 1,34  L 1,33  L 2,33  L 2,32  L 0,32  Z  " style="fill:rgb(16, 12, 28); fill-opacity:1.000; stroke:none;" />
 <path d="  M 1,37  L 0,37  L 0,38  L 1,38  Z  " style="fill:rgb(16, 12, 28); fill-opacity:1.000; stroke:none;" />
 <path d="  M 1,44  L 1,43  L 0,43  L 0,44  Z  " style="fill:rgb(16, 12, 28); fill-opacity:1.000; stroke:none;" />
 <path d="  M 1,51  L 0,51  L 0,52  L 1,52  Z  " style="fill:rgb(16, 12, 28); fill-opacity:1.000; stroke:none;" />
 <path d="  M 0,53  L 0,56  L 1,56  L 1,53  Z  " style="fill:rgb(16, 12, 28); fill-opacity:1.000; stroke:none;" />
 <path d="  M 0,64  L 2,64  L 2,63  L 1,63  L 1,62  L 0,62  Z  " style="fill:rgb(16, 12, 28); fill-opacity:1.000; stroke:none;" />
 <path d="  M 2,37  L 2,36  L 1,36  L 1,37  Z  " style="fill:rgb(16, 12, 28); fill-opacity:1.000; stroke:none;" />
 <path d="  M 1,43  L 2,43  L 2,42  L 1,42  Z  " style="fill:rgb(16, 12, 28); fill-opacity:1.000; stroke:none;" />
 <path d="  M 1,50  L 1,51  L 2,51  L 2,50  Z  " style="fill:rgb(16, 12, 28); fill-opacity:1.000; stroke:none;" />
 <path d="  M 2,53  L 2,52  L 1,52  L 1,53  Z  " style="fill:rgb(16, 12, 28); fill-opacity:1.000; stroke:none;" />
 <path d="  M 2,59  L 1,59  L 1,60  L 2,60  Z  " style="fill:rgb(16, 12, 28); fill-opacity:1.000; stroke:none;" />
 <path d="  M 2,60  L 2,61  L 1,61  L 1,62  L 3,62  L 3,63  L 4,63  L 4,62  L 5,62  L 5,61  L 4,61  L 4,60  Z  " style="fill:rgb(16, 12, 28); fill-opacity:1.000; stroke:none;" />
 <path d="  M 4,34  L 3,34  L 3,35  L 2,35  L 2,36  L 4,36  Z  " style="fill:rgb(16, 12, 28); fill-opacity:1.000; stroke:none;" />
 <path d="  M 2,37  L 2,38  L 3,38  L 3,37  Z  " style="fill:rgb(16, 12, 28); fill-opacity:1.000; stroke:none;" />
 <path d="  M 2,41  L 2,42  L 4,42  L 4,41  Z  " style="fill:rgb(16, 12, 28); fill-opacity:1.000; stroke:none;" />
 <path d="  M 4,47  L 2,47  L 2,48  L 3,48  L 3,49  L 4,49  L 4,50  L 5,50  L 5,49  L 6,49  L 6,48  L 4,48  Z  " style="fill:rgb(16, 12, 28); fill-opacity:1.000; stroke:none;" />
 <path d="  M 2,50  L 3,50  L 3,49  L 2,49  Z  " style="fill:rgb(16, 12, 28); fill-opacity:1.000; stroke:none;" />
 <path d="  M 3,51  L 2,51  L 2,52  L 3,52  Z  " style="fill:rgb(16, 12, 28); fill-opacity:1.000; stroke:none;" />
 <path d="  M 7,59  L 8,59  L 8,58  L 9,58  L 9,57  L 7,57  L 7,56  L 6,56  L 6,57  L 5,57  L 5,56  L 3,56  L 3,55  L 4,55  L 4,54  L 2,54  L 2,57  L 3,57  L 3,59  L 4,59  L 4,60  L 5,60  L 5,61  L 6,61  L 6,58  L 7,58  Z  " style="fill:rgb(16, 12, 28); fill-opacity:1.000; stroke:none;" />
 <path d="  M 4,33  L 4,34  L 5,34  L 5,33  Z  " style="fill:rgb(16, 12, 28); fill-opacity:1.000; stroke:none;" />
 <path d="  M 5,37  L 4,37  L 4,38  L 5,38  Z  " style="fill:rgb(16, 12, 28); fill-opacity:1.000; stroke:none;" />
 <path d="  M 7,41  L 7,39  L 6,39  L 6,40  L 4,40  L 4,41  L 5,41  L 5,42  L 6,42  L 6,41  Z  " style="fill:rgb(16, 12, 28); fill-opacity:1.000; stroke:none;" />
 <path d="  M 5,43  L 5,42  L 4,42  L 4,43  Z  " style="fill:rgb(16, 12, 28); fill-opacity:1.000; stroke:none;" />
 <path d="  M 5,47  L 5,46  L 4,46  L 4,47  Z  " style="fill:rgb(16, 12, 28); fill-opacity:1.000; stroke:none;" />
 <path d="  M 5,54  L 5,53  L 4,53  L 4,54  Z  " style="fill:rgb(16, 12, 28); fill-opacity:1.000; stroke:none;" />
 <path d="  M 5,32  L 5,33  L 6,33  L 6,32  Z  " style="fill:rgb(16, 12, 28); fill-opacity:1.000; stroke:none;" />
 <path d="  M 5,34  L 5,35  L 6,35  L 6,34  Z  " style="fill:rgb(16, 12, 28); fill-opacity:1.000; stroke:none;" />
 <path d="  M 6,36  L 5,36  L 5,37  L 6,37  Z  " style="fill:rgb(16, 12, 28); fill-opacity:1.000; stroke:none;" />
 <path d="  M 6,38  L 5,38  L 5,39  L 6,39  Z  " style="fill:rgb(16, 12, 28); fill-opacity:1.000; stroke:none;" />
 <path d="  M 5,52  L 5,53  L 6,53  L 6,52  Z  " style="fill:rgb(16, 12, 28); fill-opacity:1.000; stroke:none;" />
 <path d="  M 6,56  L 6,55  L 5,55  L 5,56  Z  " style="fill:rgb(16, 12, 28); fill-opacity:1.000; stroke:none;" />
 <path d="  M 9,32  L 7,32  L 7,33  L 6,33  L 6,34  L 7,34  L 7,35  L 8,35  L 8,36  L 11,36  L 11,35  L 9,35  L 9,34  L 8,34  L 8,33  L 9,33  Z  " style="fill:rgb(16, 12, 28); fill-opacity:1.000; stroke:none;" />
 <path d="  M 6,35  L 6,36  L 7,36  L 7,35  Z  " style="fill:rgb(16, 12, 28); fill-opacity:1.000; stroke:none;" />
 <path d="  M 7,38  L 7,37  L 6,37  L 6,38  Z  " style="fill:rgb(16, 12, 28); fill-opacity:1.000; stroke:none;" />
 <path d="  M 7,46  L 6,46  L 6,48  L 8,48  L 8,47  L 7,47  Z  " style="fill:rgb(16, 12, 28); fill-opacity:1.000; stroke:none;" />
 <path d="  M 7,49  L 6,49  L 6,50  L 7,50  Z  " style="fill:rgb(16, 12, 28); fill-opacity:1.000; stroke:none;" />
 <path d="  M 8,54  L 6,54  L 6,55  L 7,55  L 7,56  L 8,56  Z  " style="fill:rgb(16, 12, 28); fill-opacity:1.000; stroke:none;" />
 <path d="  M 6,63  L 6,64  L 8,64  L 8,63  L 9,63  L 9,62  L 7,62  L 7,63  Z  " style="fill:rgb(16, 12, 28); fill-opacity:1.000; stroke:none;" />
 <path d="  M 8,37  L 8,36  L 7,36  L 7,37  Z  " style="fill:rgb(16, 12, 28); fill-opacity:1.000; stroke:none;" />
 <path d="  M 8,38  L 7,38  L 7,39  L 8,39  Z  " style="fill:rgb(16, 12, 28); fill-opacity:1.000; stroke:none;" />
 <path d="  M 7,45  L 7,46  L 8,46  L 8,45  Z  " style="fill:rgb(16, 12, 28); fill-opacity:1.000; stroke:none;" />
 <path d="  M 8,39  L 8,40  L 9,40  L 9,39  Z  " style="fill:rgb(16, 12, 28); fill-opacity:1.000; stroke:none;" />
 <path d="  M 11,47  L 10,47  L 10,46  L 8,46  L 8,47  L 9,47  L 9,48  L 11,48  Z  " style="fill:rgb(16, 12, 28); fill-opacity:1.000; stroke:none;" />
 <path d="  M 8,54  L 9,54  L 9,53  L 8,53  Z  " style="fill:rgb(16, 12, 28); fill-opacity:1.000; stroke:none;" />
 <path d="  M 10,33  L 9,33  L 9,34  L 10,34  Z  " style="fill:rgb(16, 12, 28); fill-opacity:1.000; stroke:none;" />
 <path d="  M 9,37  L 9,39  L 10,39  L 10,38  L 11,38  L 11,37  Z  " style="fill:rgb(16, 12, 28); fill-opacity:1.000; stroke:none;" />
 <path d="  M 9,45  L 10,45  L 10,44  L 9,44  Z  " style="fill:rgb(16, 12, 28); fill-opacity:1.000; stroke:none;" />
 <path d="  M 13,53  L 12,53  L 12,54  L 10,54  L 10,55  L 9,55  L 9,56  L 12,56  L 12,55  L 14,55  L 14,54  L 15,54  L 15,53  L 14,53  L 14,52  L 13,52  Z  " style="fill:rgb(16, 12, 28); fill-opacity:1.000; stroke:none;" />
 <path d="  M 10,64  L 10,63  L 9,63  L 9,64  Z  " style="fill:rgb(16, 12, 28); fill-opacity:1.000; stroke:none;" />
 <path d="  M 11,44  L 11,45  L 10,45  L 10,46  L 11,46  L 11,47  L 12,47  L 12,45  L 13,45  L 13,43  L 12,43  L 12,44  Z  " style="fill:rgb(16, 12, 28); fill-opacity:1.000; stroke:none;" />
 <path d="  M 11,52  L 10,52  L 10,53  L 11,53  Z  " style="fill:rgb(16, 12, 28); fill-opacity:1.000; stroke:none;" />
 <path d="  M 11,34  L 11,35  L 12,35  L 12,34  Z  " style="fill:rgb(16, 12, 28); fill-opacity:1.000; stroke:none;" />
 <path d="  M 12,51  L 12,50  L 11,50  L 11,51  Z  " style="fill:rgb(16, 12, 28); fill-opacity:1.000; stroke:none;" />
 <path d="  M 12,62  L 14,62  L 14,61  L 16,61  L 16,60  L 15,60  L 15,59  L 13,59  L 13,58  L 12,58  L 12,59  L 11,59  L 11,60  L 13,60  L 13,61  L 12,61  Z  " style="fill:rgb(16, 12, 28); fill-opacity:1.000; stroke:none;" />
 <path d="  M 13,37  L 13,36  L 15,36  L 15,35  L 16,35  L 16,33  L 15,33  L 15,32  L 14,32  L 14,33  L 13,33  L 13,35  L 12,35  L 12,37  Z  M 15,34  L 15,35  L 14,35  L 14,34  Z  " style="fill:rgb(16, 12, 28); fill-opacity:1.000; stroke:none;" />
 <path d="  M 13,49  L 12,49  L 12,50  L 13,50  Z  " style="fill:rgb(16, 12, 28); fill-opacity:1.000; stroke:none;" />
 <path d="  M 13,57  L 13,56  L 12,56  L 12,57  Z  " style="fill:rgb(16, 12, 28); fill-opacity:1.000; stroke:none;" />
 <path d="  M 14,37  L 13,37  L 13,38  L 14,38  Z  " style="fill:rgb(16, 12, 28); fill-opacity:1.000; stroke:none;" />
 <path d="  M 14,45  L 13,45  L 13,46  L 14,46  Z  " style="fill:rgb(16, 12, 28); fill-opacity:1.000; stroke:none;" />
 <path d="  M 13,49  L 14,49  L 14,48  L 13,48  Z  " style="fill:rgb(16, 12, 28); fill-opacity:1.000; stroke:none;" />
 <path d="  M 15,49  L 14,49  L 14,50  L 13,50  L 13,51  L 14,51  L 14,52  L 15,52  L 15,53  L 16,53  L 16,52  L 17,52  L 17,51  L 16,51  L 16,50  L 15,50  Z  " style="fill:rgb(16, 12, 28); fill-opacity:1.000; stroke:none;" />
 <path d="  M 19,36  L 19,37  L 18,37  L 18,36  Z  M 16,39  L 18,39  L 18,38  L 19,38  L 19,37  L 20,37  L 20,36  L 21,36  L 21,35  L 20,35  L 20,34  L 21,34  L 21,32  L 20,32  L 20,33  L 19,33  L 19,34  L 18,34  L 18,35  L 17,35  L 17,36  L 16,36  L 16,37  L 15,37  L 15,38  L 14,38  L 14,39  L 15,39  L 15,40  L 16,40  Z  " style="fill:rgb(16, 12, 28); fill-opacity:1.000; stroke:none;" />
 <path d="  M 15,45  L 15,44  L 14,44  L 14,45  Z  " style="fill:rgb(16, 12, 28); fill-opacity:1.000; stroke:none;" />
 <path d="  M 14,46  L 14,47  L 15,47  L 15,46  Z  " style="fill:rgb(16, 12, 28); fill-opacity:1.000; stroke:none;" />
 <path d="  M 18,30  L 16,30  L 16,31  L 15,31  L 15,32  L 16,32  L 16,33  L 17,33  L 17,31  L 18,31  Z  " style="fill:rgb(16, 12, 28); fill-opacity:1.000; stroke:none;" />
 <path d="  M 19,45  L 18,45  L 18,44  L 17,44  L 17,45  L 16,45  L 16,47  L 15,47  L 15,48  L 17,48  L 17,47  L 18,47  L 18,46  L 19,46  Z  " style="fill:rgb(16, 12, 28); fill-opacity:1.000; stroke:none;" />
 <path d="  M 15,59  L 16,59  L 16,58  L 15,58  Z  " style="fill:rgb(16, 12, 28); fill-opacity:1.000; stroke:none;" />
 <path d="  M 16,25  L 17,25  L 17,24  L 16,24  Z  " style="fill:rgb(16, 12, 28); fill-opacity:1.000; stroke:none;" />
 <path d="  M 17,50  L 17,49  L 16,49  L 16,50  Z  " style="fill:rgb(16, 12, 28); fill-opacity:1.000; stroke:none;" />
 <path d="  M 16,60  L 17,60  L 17,59  L 16,59  Z  " style="fill:rgb(16, 12, 28); fill-opacity:1.000; stroke:none;" />
 <path d="  M 18,25  L 17,25  L 17,26  L 18,26  Z  " style="fill:rgb(16, 12, 28); fill-opacity:1.000; stroke:none;" />
 <path d="  M 18,49  L 18,48  L 17,48  L 17,49  Z  " style="fill:rgb(16, 12, 28); fill-opacity:1.000; stroke:none;" />
 <path d="  M 18,54  L 18,55  L 19,55  L 19,54  L 20,54  L 20,53  L 19,53  L 19,52  L 18,52  L 18,53  L 17,53  L 17,54  Z  " style="fill:rgb(16, 12, 28); fill-opacity:1.000; stroke:none;" />
 <path d="  M 17,60  L 17,61  L 18,61  L 18,60  Z  " style="fill:rgb(16, 12, 28); fill-opacity:1.000; stroke:none;" />
 <path d="  M 18,63  L 19,63  L 19,61  L 18,61  L 18,62  L 17,62  L 17,64  L 18,64  Z  " style="fill:rgb(16, 12, 28); fill-opacity:1.000; stroke:none;" />
 <path d="  M 18,29  L 18,30  L 19,30  L 19,29  Z  " style="fill:rgb(16, 12, 28); fill-opacity:1.000; stroke:none;" />
 <path d="  M 19,33  L 19,32  L 18,32  L 18,33  Z  " style="fill:rgb(16, 12, 28); fill-opacity:1.000; stroke:none;" />
 <path d="  M 20,58  L 20,59  L 18,59  L 18,60  L 19,60  L 19,61  L 20,61  L 20,60  L 22,60  L 22,59  L 21,59  L 21,58  Z  " style="fill:rgb(16, 12, 28); fill-opacity:1.000; stroke:none;" />
 <path d="  M 20,32  L 20,31  L 19,31  L 19,32  Z  " style="fill:rgb(16, 12, 28); fill-opacity:1.000; stroke:none;" />
 <path d="  M 19,45  L 20,45  L 20,44  L 19,44  Z  " style="fill:rgb(16, 12, 28); fill-opacity:1.000; stroke:none;" />
 <path d="  M 19,57  L 19,58  L 20,58  L 20,57  Z  " style="fill:rgb(16, 12, 28); fill-opacity:1.000; stroke:none;" />
 <path d="  M 21,51  L 21,52  L 20,52  L 20,53  L 22,53  L 22,52  L 24,52  L 24,51  L 23,51  L 23,50  L 22,50  L 22,51  Z  " style="fill:rgb(16, 12, 28); fill-opacity:1.000; stroke:none;" />
 <path d="  M 21,54  L 20,54  L 20,55  L 21,55  Z  " style="fill:rgb(16, 12, 28); fill-opacity:1.000; stroke:none;" />
 <path d="  M 21,31  L 21,32  L 22,32  L 22,31  Z  " style="fill:rgb(16, 12, 28); fill-opacity:1.000; stroke:none;" />
 <path d="  M 21,41  L 21,42  L 22,42  L 22,41  Z  " style="fill:rgb(16, 12, 28); fill-opacity:1.000; stroke:none;" />
 <path d="  M 22,58  L 22,59  L 24,59  L 24,58  L 23,58  L 23,57  L 21,57  L 21,58  Z  " style="fill:rgb(16, 12, 28); fill-opacity:1.000; stroke:none;" />
 <path d="  M 23,30  L 22,30  L 22,31  L 23,31  Z  " style="fill:rgb(16, 12, 28); fill-opacity:1.000; stroke:none;" />
 <path d="  M 24,33  L 23,33  L 23,34  L 22,34  L 22,35  L 23,35  L 23,36  L 24,36  L 24,35  L 25,35  L 25,34  L 24,34  Z  " style="fill:rgb(16, 12, 28); fill-opacity:1.000; stroke:none;" />
 <path d="  M 24,36  L 24,38  L 23,38  L 23,39  L 22,39  L 22,41  L 23,41  L 23,40  L 25,40  L 25,38  L 26,38  L 26,37  L 25,37  L 25,36  Z  " style="fill:rgb(16, 12, 28); fill-opacity:1.000; stroke:none;" />
 <path d="  M 23,42  L 22,42  L 22,44  L 23,44  L 23,45  L 24,45  L 24,43  L 23,43  Z  " style="fill:rgb(16, 12, 28); fill-opacity:1.000; stroke:none;" />
 <path d="  M 23,56  L 23,57  L 24,57  L 24,56  Z  " style="fill:rgb(16, 12, 28); fill-opacity:1.000; stroke:none;" />
 <path d="  M 24,62  L 23,62  L 23,63  L 24,63  Z  " style="fill:rgb(16, 12, 28); fill-opacity:1.000; stroke:none;" />
 <path d="  M 24,42  L 24,43  L 25,43  L 25,44  L 26,44  L 26,42  L 27,42  L 27,41  L 28,41  L 28,40  L 26,40  L 26,41  L 25,41  L 25,42  Z  " style="fill:rgb(16, 12, 28); fill-opacity:1.000; stroke:none;" />
 <path d="  M 26,64  L 26,63  L 27,63  L 27,62  L 25,62  L 25,63  L 24,63  L 24,64  Z  " style="fill:rgb(16, 12, 28); fill-opacity:1.000; stroke:none;" />
 <path d="  M 25,34  L 26,34  L 26,33  L 25,33  Z  " style="fill:rgb(16, 12, 28); fill-opacity:1.000; stroke:none;" />
 <path d="  M 26,36  L 26,35  L 25,35  L 25,36  Z  " style="fill:rgb(16, 12, 28); fill-opacity:1.000; stroke:none;" />
 <path d="  M 26,56  L 25,56  L 25,57  L 26,57  Z  " style="fill:rgb(16, 12, 28); fill-opacity:1.000; stroke:none;" />
 <path d="  M 27,34  L 26,34  L 26,35  L 27,35  Z  " style="fill:rgb(16, 12, 28); fill-opacity:1.000; stroke:none;" />
 <path d="  M 27,36  L 26,36  L 26,37  L 27,37  Z  " style="fill:rgb(16, 12, 28); fill-opacity:1.000; stroke:none;" />
 <path d="  M 28,52  L 28,51  L 26,51  L 26,52  Z  " style="fill:rgb(16, 12, 28); fill-opacity:1.000; stroke:none;" />
 <path d="  M 26,55  L 26,56  L 27,56  L 27,55  Z  " style="fill:rgb(16, 12, 28); fill-opacity:1.000; stroke:none;" />
 <path d="  M 28,59  L 26,59  L 26,60  L 28,60  Z  " style="fill:rgb(16, 12, 28); fill-opacity:1.000; stroke:none;" />
 <path d="  M 28,35  L 27,35  L 27,36  L 28,36  Z  " style="fill:rgb(16, 12, 28); fill-opacity:1.000; stroke:none;" />
 <path d="  M 28,47  L 28,48  L 27,48  L 27,49  L 29,49  L 29,48  L 30,48  L 30,47  Z  " style="fill:rgb(16, 12, 28); fill-opacity:1.000; stroke:none;" />
 <path d="  M 27,54  L 27,55  L 28,55  L 28,54  Z  " style="fill:rgb(16, 12, 28); fill-opacity:1.000; stroke:none;" />
 <path d="  M 27,57  L 28,57  L 28,58  L 29,58  L 29,59  L 30,59  L 30,57  L 29,57  L 29,56  L 27,56  Z  " style="fill:rgb(16, 12, 28); fill-opacity:1.000; stroke:none;" />
 <path d="  M 30,61  L 30,60  L 28,60  L 28,61  L 27,61  L 27,62  L 29,62  L 29,61  Z  " style="fill:rgb(16, 12, 28); fill-opacity:1.000; stroke:none;" />
 <path d="  M 30,42  L 30,40  L 31,40  L 31,39  L 32,39  L 32,37  L 30,37  L 30,38  L 29,38  L 29,39  L 28,39  L 28,40  L 29,40  L 29,41  L 28,41  L 28,42  Z  " style="fill:rgb(16, 12, 28); fill-opacity:1.000; stroke:none;" />
 <path d="  M 28,50  L 28,51  L 29,51  L 29,52  L 30,52  L 30,51  L 31,51  L 31,50  Z  " style="fill:rgb(16, 12, 28); fill-opacity:1.000; stroke:none;" />
 <path d="  M 29,52  L 28,52  L 28,53  L 29,53  Z  " style="fill:rgb(16, 12, 28); fill-opacity:1.000; stroke:none;" />
 <path d="  M 30,44  L 30,43  L 29,43  L 29,44  Z  " style="fill:rgb(16, 12, 28); fill-opacity:1.000; stroke:none;" />
 <path d="  M 32,53  L 31,53  L 31,52  L 30,52  L 30,53  L 29,53  L 29,55  L 30,55  L 30,56  L 31,56  L 31,54  L 32,54  Z  " style="fill:rgb(16, 12, 28); fill-opacity:1.000; stroke:none;" />
 <path d="  M 31,42  L 30,42  L 30,43  L 31,43  Z  " style="fill:rgb(16, 12, 28); fill-opacity:1.000; stroke:none;" />
 <path d="  M 31,46  L 30,46  L 30,47  L 31,47  Z  " style="fill:rgb(16, 12, 28); fill-opacity:1.000; stroke:none;" />
 <path d="  M 30,49  L 31,49  L 31,48  L 30,48  Z  " style="fill:rgb(16, 12, 28); fill-opacity:1.000; stroke:none;" />
 <path d="  M 30,60  L 31,60  L 31,59  L 30,59  Z  " style="fill:rgb(16, 12, 28); fill-opacity:1.000; stroke:none;" />
 <path d="  M 32,47  L 31,47  L 31,48  L 33,48  L 33,47  L 34,47  L 34,46  L 32,46  Z  " style="fill:rgb(16, 12, 28); fill-opacity:1.000; stroke:none;" />
 <path d="  M 32,50  L 32,49  L 31,49  L 31,50  Z  " style="fill:rgb(16, 12, 28); fill-opacity:1.000; stroke:none;" />
 <path d="  M 34,52  L 33,52  L 33,51  L 31,51  L 31,52  L 32,52  L 32,53  L 34,53  Z  " style="fill:rgb(16, 12, 28); fill-opacity:1.000; stroke:none;" />
 <path d="  M 34,53  L 34,54  L 32,54  L 32,56  L 31,56  L 31,57  L 32,57  L 32,58  L 33,58  L 33,57  L 34,57  L 34,56  L 35,56  L 35,57  L 36,57  L 36,56  L 37,56  L 37,54  L 36,54  L 36,53  Z  M 34,56  L 33,56  L 33,55  L 34,55  Z  M 35,55  L 35,54  L 36,54  L 36,55  Z  " style="fill:rgb(16, 12, 28); fill-opacity:1.000; stroke:none;" />
 <path d="  M 33,37  L 33,36  L 32,36  L 32,37  Z  " style="fill:rgb(16, 12, 28); fill-opacity:1.000; stroke:none;" />
 <path d="  M 34,38  L 34,37  L 33,37  L 33,39  L 34,39  L 34,40  L 35,40  L 35,38  Z  " style="fill:rgb(16, 12, 28); fill-opacity:1.000; stroke:none;" />
 <path d="  M 34,41  L 34,40  L 33,40  L 33,41  Z  " style="fill:rgb(16, 12, 28); fill-opacity:1.000; stroke:none;" />
 <path d="  M 34,45  L 34,46  L 35,46  L 35,47  L 36,47  L 36,46  L 37,46  L 37,45  L 38,45  L 38,44  L 37,44  L 37,43  L 35,43  L 35,44  L 33,44  L 33,45  Z  M 36,45  L 35,45  L 35,44  L 36,44  Z  " style="fill:rgb(16, 12, 28); fill-opacity:1.000; stroke:none;" />
 <path d="  M 33,49  L 34,49  L 34,48  L 33,48  Z  " style="fill:rgb(16, 12, 28); fill-opacity:1.000; stroke:none;" />
 <path d="  M 34,50  L 33,50  L 33,51  L 34,51  Z  " style="fill:rgb(16, 12, 28); fill-opacity:1.000; stroke:none;" />
 <path d="  M 33,58  L 33,59  L 34,59  L 34,58  Z  " style="fill:rgb(16, 12, 28); fill-opacity:1.000; stroke:none;" />
 <path d="  M 35,52  L 35,51  L 34,51  L 34,52  Z  " style="fill:rgb(16, 12, 28); fill-opacity:1.000; stroke:none;" />
 <path d="  M 35,36  L 35,37  L 36,37  L 36,36  Z  " style="fill:rgb(16, 12, 28); fill-opacity:1.000; stroke:none;" />
 <path d="  M 35,41  L 36,41  L 36,40  L 35,40  Z  " style="fill:rgb(16, 12, 28); fill-opacity:1.000; stroke:none;" />
 <path d="  M 35,50  L 35,51  L 36,51  L 36,52  L 38,52  L 38,51  L 37,51  L 37,50  Z  " style="fill:rgb(16, 12, 28); fill-opacity:1.000; stroke:none;" />
 <path d="  M 36,35  L 36,36  L 37,36  L 37,35  Z  " style="fill:rgb(16, 12, 28); fill-opacity:1.000; stroke:none;" />
 <path d="  M 36,39  L 36,40  L 37,40  L 37,39  Z  " style="fill:rgb(16, 12, 28); fill-opacity:1.000; stroke:none;" />
 <path d="  M 38,37  L 38,36  L 37,36  L 37,37  Z  " style="fill:rgb(16, 12, 28); fill-opacity:1.000; stroke:none;" />
 <path d="  M 41,43  L 41,42  L 39,42  L 39,41  L 38,41  L 38,42  L 37,42  L 37,43  L 38,43  L 38,44  L 39,44  L 39,43  L 40,43  L 40,44  L 42,44  L 42,43  Z  " style="fill:rgb(16, 12, 28); fill-opacity:1.000; stroke:none;" />
 <path d="  M 37,49  L 37,50  L 38,50  L 38,49  Z  " style="fill:rgb(16, 12, 28); fill-opacity:1.000; stroke:none;" />
 <path d="  M 42,51  L 41,51  L 41,50  L 42,50  L 42,48  L 41,48  L 41,49  L 40,49  L 40,50  L 39,50  L 39,51  L 40,51  L 40,52  L 38,52  L 38,53  L 37,53  L 37,54  L 39,54  L 39,53  L 41,53  L 41,52  L 42,52  Z  " style="fill:rgb(16, 12, 28); fill-opacity:1.000; stroke:none;" />
 <path d="  M 40,60  L 40,61  L 42,61  L 42,62  L 43,62  L 43,61  L 44,61  L 44,60  L 43,60  L 43,59  L 42,59  L 42,60  L 41,60  L 41,59  L 39,59  L 39,58  L 38,58  L 38,59  L 37,59  L 37,60  Z  " style="fill:rgb(16, 12, 28); fill-opacity:1.000; stroke:none;" />
 <path d="  M 41,64  L 41,63  L 42,63  L 42,62  L 40,62  L 40,63  L 39,63  L 39,62  L 38,62  L 38,63  L 37,63  L 37,64  Z  " style="fill:rgb(16, 12, 28); fill-opacity:1.000; stroke:none;" />
 <path d="  M 39,35  L 39,36  L 40,36  L 40,34  L 38,34  L 38,35  Z  " style="fill:rgb(16, 12, 28); fill-opacity:1.000; stroke:none;" />
 <path d="  M 41,41  L 41,40  L 40,40  L 40,39  L 38,39  L 38,40  L 39,40  L 39,41  Z  " style="fill:rgb(16, 12, 28); fill-opacity:1.000; stroke:none;" />
 <path d="  M 39,54  L 39,55  L 40,55  L 40,54  Z  " style="fill:rgb(16, 12, 28); fill-opacity:1.000; stroke:none;" />
 <path d="  M 40,56  L 39,56  L 39,57  L 40,57  Z  " style="fill:rgb(16, 12, 28); fill-opacity:1.000; stroke:none;" />
 <path d="  M 39,61  L 39,62  L 40,62  L 40,61  Z  " style="fill:rgb(16, 12, 28); fill-opacity:1.000; stroke:none;" />
 <path d="  M 41,34  L 41,33  L 40,33  L 40,34  Z  " style="fill:rgb(16, 12, 28); fill-opacity:1.000; stroke:none;" />
 <path d="  M 41,38  L 40,38  L 40,39  L 41,39  Z  " style="fill:rgb(16, 12, 28); fill-opacity:1.000; stroke:none;" />
 <path d="  M 41,59  L 42,59  L 42,58  L 44,58  L 44,57  L 43,57  L 43,56  L 42,56  L 42,57  L 40,57  L 40,58  L 41,58  Z  " style="fill:rgb(16, 12, 28); fill-opacity:1.000; stroke:none;" />
 <path d="  M 41,39  L 41,40  L 42,40  L 42,39  Z  " style="fill:rgb(16, 12, 28); fill-opacity:1.000; stroke:none;" />
 <path d="  M 42,55  L 41,55  L 41,56  L 42,56  Z  " style="fill:rgb(16, 12, 28); fill-opacity:1.000; stroke:none;" />
 <path d="  M 44,29  L 42,29  L 42,30  L 44,30  Z  " style="fill:rgb(16, 12, 28); fill-opacity:1.000; stroke:none;" />
 <path d="  M 42,41  L 43,41  L 43,40  L 42,40  Z  " style="fill:rgb(16, 12, 28); fill-opacity:1.000; stroke:none;" />
 <path d="  M 43,48  L 43,47  L 42,47  L 42,48  Z  " style="fill:rgb(16, 12, 28); fill-opacity:1.000; stroke:none;" />
 <path d="  M 42,51  L 43,51  L 43,50  L 42,50  Z  " style="fill:rgb(16, 12, 28); fill-opacity:1.000; stroke:none;" />
 <path d="  M 46,40  L 47,40  L 47,39  L 46,39  L 46,38  L 45,38  L 45,39  L 43,39  L 43,40  L 45,40  L 45,41  L 46,41  Z  " style="fill:rgb(16, 12, 28); fill-opacity:1.000; stroke:none;" />
 <path d="  M 43,42  L 44,42  L 44,41  L 43,41  Z  " style="fill:rgb(16, 12, 28); fill-opacity:1.000; stroke:none;" />
 <path d="  M 43,45  L 43,47  L 44,47  L 44,46  L 45,46  L 45,47  L 46,47  L 46,46  L 47,46  L 47,45  L 46,45  L 46,44  L 45,44  L 45,43  L 44,43  L 44,45  Z  " style="fill:rgb(16, 12, 28); fill-opacity:1.000; stroke:none;" />
 <path d="  M 43,55  L 44,55  L 44,54  L 43,54  Z  " style="fill:rgb(16, 12, 28); fill-opacity:1.000; stroke:none;" />
 <path d="  M 48,26  L 47,26  L 47,25  L 46,25  L 46,26  L 45,26  L 45,27  L 44,27  L 44,29  L 45,29  L 45,28  L 46,28  L 46,29  L 47,29  L 47,28  L 48,28  Z  " style="fill:rgb(16, 12, 28); fill-opacity:1.000; stroke:none;" />
 <path d="  M 45,30  L 44,30  L 44,31  L 45,31  Z  " style="fill:rgb(16, 12, 28); fill-opacity:1.000; stroke:none;" />
 <path d="  M 44,48  L 45,48  L 45,47  L 44,47  Z  " style="fill:rgb(16, 12, 28); fill-opacity:1.000; stroke:none;" />
 <path d="  M 45,54  L 45,53  L 44,53  L 44,54  Z  " style="fill:rgb(16, 12, 28); fill-opacity:1.000; stroke:none;" />
 <path d="  M 44,56  L 44,57  L 45,57  L 45,56  Z  " style="fill:rgb(16, 12, 28); fill-opacity:1.000; stroke:none;" />
 <path d="  M 44,60  L 45,60  L 45,59  L 44,59  Z  " style="fill:rgb(16, 12, 28); fill-opacity:1.000; stroke:none;" />
 <path d="  M 45,29  L 45,30  L 46,30  L 46,29  Z  " style="fill:rgb(16, 12, 28); fill-opacity:1.000; stroke:none;" />
 <path d="  M 46,43  L 46,42  L 45,42  L 45,43  Z  " style="fill:rgb(16, 12, 28); fill-opacity:1.000; stroke:none;" />
 <path d="  M 46,49  L 45,49  L 45,50  L 47,50  L 47,49  L 48,49  L 48,48  L 46,48  Z  " style="fill:rgb(16, 12, 28); fill-opacity:1.000; stroke:none;" />
 <path d="  M 46,55  L 46,54  L 45,54  L 45,56  L 47,56  L 47,55  Z  " style="fill:rgb(16, 12, 28); fill-opacity:1.000; stroke:none;" />
 <path d="  M 46,62  L 45,62  L 45,63  L 46,63  Z  " style="fill:rgb(16, 12, 28); fill-opacity:1.000; stroke:none;" />
 <path d="  M 47,36  L 47,37  L 46,37  L 46,38  L 48,38  L 48,39  L 49,39  L 49,38  L 50,38  L 50,36  L 49,36  L 49,37  L 48,37  L 48,36  Z  " style="fill:rgb(16, 12, 28); fill-opacity:1.000; stroke:none;" />
 <path d="  M 46,64  L 47,64  L 47,63  L 46,63  Z  " style="fill:rgb(16, 12, 28); fill-opacity:1.000; stroke:none;" />
 <path d="  M 48,41  L 48,40  L 47,40  L 47,41  Z  " style="fill:rgb(16, 12, 28); fill-opacity:1.000; stroke:none;" />
 <path d="  M 48,62  L 47,62  L 47,63  L 48,63  Z  " style="fill:rgb(16, 12, 28); fill-opacity:1.000; stroke:none;" />
 <path d="  M 48,32  L 48,34  L 50,34  L 50,33  L 49,33  L 49,32  Z  " style="fill:rgb(16, 12, 28); fill-opacity:1.000; stroke:none;" />
 <path d="  M 49,45  L 48,45  L 48,46  L 49,46  Z  " style="fill:rgb(16, 12, 28); fill-opacity:1.000; stroke:none;" />
 <path d="  M 49,48  L 49,47  L 48,47  L 48,48  Z  " style="fill:rgb(16, 12, 28); fill-opacity:1.000; stroke:none;" />
 <path d="  M 50,54  L 50,53  L 51,53  L 51,51  L 50,51  L 50,52  L 48,52  L 48,53  L 49,53  L 49,54  Z  " style="fill:rgb(16, 12, 28); fill-opacity:1.000; stroke:none;" />
 <path d="  M 48,60  L 49,60  L 49,59  L 48,59  Z  " style="fill:rgb(16, 12, 28); fill-opacity:1.000; stroke:none;" />
 <path d="  M 49,62  L 49,61  L 48,61  L 48,62  Z  " style="fill:rgb(16, 12, 28); fill-opacity:1.000; stroke:none;" />
 <path d="  M 51,32  L 51,31  L 49,31  L 49,32  Z  " style="fill:rgb(16, 12, 28); fill-opacity:1.000; stroke:none;" />
 <path d="  M 49,40  L 50,40  L 50,39  L 49,39  Z  " style="fill:rgb(16, 12, 28); fill-opacity:1.000; stroke:none;" />
 <path d="  M 49,45  L 50,45  L 50,43  L 49,43  Z  " style="fill:rgb(16, 12, 28); fill-opacity:1.000; stroke:none;" />
 <path d="  M 50,50  L 49,50  L 49,51  L 50,51  Z  " style="fill:rgb(16, 12, 28); fill-opacity:1.000; stroke:none;" />
 <path d="  M 50,58  L 49,58  L 49,59  L 50,59  Z  " style="fill:rgb(16, 12, 28); fill-opacity:1.000; stroke:none;" />
 <path d="  M 50,35  L 51,35  L 51,34  L 50,34  Z  " style="fill:rgb(16, 12, 28); fill-opacity:1.000; stroke:none;" />
 <path d="  M 50,40  L 50,41  L 52,41  L 52,40  Z  " style="fill:rgb(16, 12, 28); fill-opacity:1.000; stroke:none;" />
 <path d="  M 52,42  L 50,42  L 50,43  L 52,43  Z  " style="fill:rgb(16, 12, 28); fill-opacity:1.000; stroke:none;" />
 <path d="  M 50,48  L 51,48  L 51,47  L 50,47  Z  " style="fill:rgb(16, 12, 28); fill-opacity:1.000; stroke:none;" />
 <path d="  M 51,51  L 52,51  L 52,49  L 53,49  L 53,48  L 51,48  L 51,49  L 50,49  L 50,50  L 51,50  Z  " style="fill:rgb(16, 12, 28); fill-opacity:1.000; stroke:none;" />
 <path d="  M 51,56  L 52,56  L 52,55  L 53,55  L 53,54  L 50,54  L 50,55  L 51,55  Z  " style="fill:rgb(16, 12, 28); fill-opacity:1.000; stroke:none;" />
 <path d="  M 51,32  L 51,33  L 52,33  L 52,34  L 54,34  L 54,33  L 53,33  L 53,32  Z  " style="fill:rgb(16, 12, 28); fill-opacity:1.000; stroke:none;" />
 <path d="  M 51,36  L 51,37  L 52,37  L 52,36  Z  " style="fill:rgb(16, 12, 28); fill-opacity:1.000; stroke:none;" />
 <path d="  M 52,37  L 52,38  L 54,38  L 54,37  Z  " style="fill:rgb(16, 12, 28); fill-opacity:1.000; stroke:none;" />
 <path d="  M 52,41  L 52,42  L 53,42  L 53,41  Z  " style="fill:rgb(16, 12, 28); fill-opacity:1.000; stroke:none;" />
 <path d="  M 53,46  L 52,46  L 52,47  L 53,47  L 53,48  L 55,48  L 55,47  L 54,47  L 54,46  L 55,46  L 55,45  L 53,45  Z  " style="fill:rgb(16, 12, 28); fill-opacity:1.000; stroke:none;" />
 <path d="  M 52,58  L 53,58  L 53,59  L 54,59  L 54,60  L 53,60  L 53,61  L 52,61  L 52,62  L 53,62  L 53,63  L 54,63  L 54,64  L 55,64  L 55,63  L 56,63  L 56,62  L 54,62  L 54,61  L 55,61  L 55,60  L 56,60  L 56,56  L 55,56  L 55,58  L 54,58  L 54,57  L 52,57  Z  " style="fill:rgb(16, 12, 28); fill-opacity:1.000; stroke:none;" />
 <path d="  M 53,59  L 52,59  L 52,60  L 53,60  Z  " style="fill:rgb(16, 12, 28); fill-opacity:1.000; stroke:none;" />
 <path d="  M 54,52  L 54,53  L 53,53  L 53,54  L 54,54  L 54,55  L 55,55  L 55,54  L 56,54  L 56,53  L 58,53  L 58,52  Z  " style="fill:rgb(16, 12, 28); fill-opacity:1.000; stroke:none;" />
 <path d="  M 54,55  L 53,55  L 53,56  L 54,56  Z  " style="fill:rgb(16, 12, 28); fill-opacity:1.000; stroke:none;" />
 <path d="  M 54,35  L 55,35  L 55,36  L 56,36  L 56,34  L 54,34  Z  " style="fill:rgb(16, 12, 28); fill-opacity:1.000; stroke:none;" />
 <path d="  M 54,37  L 55,37  L 55,36  L 54,36  Z  " style="fill:rgb(16, 12, 28); fill-opacity:1.000; stroke:none;" />
 <path d="  M 56,47  L 56,46  L 55,46  L 55,47  Z  " style="fill:rgb(16, 12, 28); fill-opacity:1.000; stroke:none;" />
 <path d="  M 56,33  L 57,33  L 57,32  L 56,32  Z  " style="fill:rgb(16, 12, 28); fill-opacity:1.000; stroke:none;" />
 <path d="  M 57,45  L 56,45  L 56,46  L 58,46  L 58,45  L 59,45  L 59,44  L 57,44  Z  " style="fill:rgb(16, 12, 28); fill-opacity:1.000; stroke:none;" />
 <path d="  M 56,48  L 57,48  L 57,47  L 56,47  Z  " style="fill:rgb(16, 12, 28); fill-opacity:1.000; stroke:none;" />
 <path d="  M 56,54  L 56,56  L 57,56  L 57,55  L 58,55  L 58,54  Z  " style="fill:rgb(16, 12, 28); fill-opacity:1.000; stroke:none;" />
 <path d="  M 58,62  L 58,63  L 60,63  L 60,62  L 59,62  L 59,61  L 58,61  L 58,60  L 56,60  L 56,62  Z  " style="fill:rgb(16, 12, 28); fill-opacity:1.000; stroke:none;" />
 <path d="  M 57,33  L 57,34  L 58,34  L 58,33  Z  " style="fill:rgb(16, 12, 28); fill-opacity:1.000; stroke:none;" />
 <path d="  M 58,35  L 57,35  L 57,36  L 58,36  Z  " style="fill:rgb(16, 12, 28); fill-opacity:1.000; stroke:none;" />
 <path d="  M 57,64  L 58,64  L 58,63  L 57,63  Z  " style="fill:rgb(16, 12, 28); fill-opacity:1.000; stroke:none;" />
 <path d="  M 58,32  L 58,33  L 59,33  L 59,32  Z  " style="fill:rgb(16, 12, 28); fill-opacity:1.000; stroke:none;" />
 <path d="  M 60,35  L 60,34  L 58,34  L 58,35  Z  " style="fill:rgb(16, 12, 28); fill-opacity:1.000; stroke:none;" />
 <path d="  M 58,47  L 59,47  L 59,48  L 60,48  L 60,47  L 61,47  L 61,46  L 60,46  L 60,45  L 59,45  L 59,46  L 58,46  Z  " style="fill:rgb(16, 12, 28); fill-opacity:1.000; stroke:none;" />
 <path d="  M 60,52  L 60,50  L 59,50  L 59,51  L 58,51  L 58,52  Z  " style="fill:rgb(16, 12, 28); fill-opacity:1.000; stroke:none;" />
 <path d="  M 58,54  L 59,54  L 59,53  L 58,53  Z  " style="fill:rgb(16, 12, 28); fill-opacity:1.000; stroke:none;" />
 <path d="  M 59,57  L 58,57  L 58,58  L 59,58  Z  " style="fill:rgb(16, 12, 28); fill-opacity:1.000; stroke:none;" />
 <path d="  M 58,59  L 58,60  L 59,60  L 59,59  Z  " style="fill:rgb(16, 12, 28); fill-opacity:1.000; stroke:none;" />
 <path d="  M 60,40  L 60,39  L 59,39  L 59,40  Z  " style="fill:rgb(16, 12, 28); fill-opacity:1.000; stroke:none;" />
 <path d="  M 59,57  L 60,57  L 60,56  L 61,56  L 61,55  L 59,55  Z  " style="fill:rgb(16, 12, 28); fill-opacity:1.000; stroke:none;" />
 <path d="  M 60,33  L 60,34  L 62,34  L 62,33  L 64,33  L 64,32  L 61,32  L 61,33  Z  " style="fill:rgb(16, 12, 28); fill-opacity:1.000; stroke:none;" />
 <path d="  M 60,40  L 60,41  L 61,41  L 61,42  L 62,42  L 62,40  Z  " style="fill:rgb(16, 12, 28); fill-opacity:1.000; stroke:none;" />
 <path d="  M 61,48  L 60,48  L 60,50  L 62,50  L 62,49  L 63,49  L 63,48  L 62,48  L 62,47  L 61,47  Z  " style="fill:rgb(16, 12, 28); fill-opacity:1.000; stroke:none;" />
 <path d="  M 62,53  L 61,53  L 61,52  L 60,52  L 60,54  L 62,54  Z  " style="fill:rgb(16, 12, 28); fill-opacity:1.000; stroke:none;" />
 <path d="  M 61,57  L 60,57  L 60,58  L 61,58  Z  " style="fill:rgb(16, 12, 28); fill-opacity:1.000; stroke:none;" />
 <path d="  M 60,64  L 61,64  L 61,63  L 60,63  Z  " style="fill:rgb(16, 12, 28); fill-opacity:1.000; stroke:none;" />
 <path d="  M 62,38  L 61,38  L 61,39  L 62,39  Z  " style="fill:rgb(16, 12, 28); fill-opacity:1.000; stroke:none;" />
 <path d="  M 61,57  L 62,57  L 62,56  L 61,56  Z  " style="fill:rgb(16, 12, 28); fill-opacity:1.000; stroke:none;" />
 <path d="  M 64,41  L 64,38  L 63,38  L 63,39  L 62,39  L 62,40  L 63,40  L 63,41  Z  " style="fill:rgb(16, 12, 28); fill-opacity:1.000; stroke:none;" />
 <path d="  M 63,43  L 63,44  L 64,44  L 64,42  L 62,42  L 62,43  Z  " style="fill:rgb(16, 12, 28); fill-opacity:1.000; stroke:none;" />
 <path d="  M 62,47  L 63,47  L 63,46  L 62,46  Z  " style="fill:rgb(16, 12, 28); fill-opacity:1.000; stroke:none;" />
 <path d="  M 64,55  L 63,55  L 63,54  L 62,54  L 62,56  L 63,56  L 63,57  L 64,57  Z  " style="fill:rgb(16, 12, 28); fill-opacity:1.000; stroke:none;" />
 <path d="  M 63,61  L 63,60  L 62,60  L 62,61  Z  " style="fill:rgb(16, 12, 28); fill-opacity:1.000; stroke:none;" />
 <path d="  M 63,63  L 63,62  L 62,62  L 62,63  Z  " style="fill:rgb(16, 12, 28); fill-opacity:1.000; stroke:none;" />
 <path d="  M 64,62  L 64,61  L 63,61  L 63,62  Z  " style="fill:rgb(16, 12, 28); fill-opacity:1.000; stroke:none;" />
 <path d="  M 0,37  L 1,37  L 1,36  L 2,36  L 2,35  L 3,35  L 3,34  L 4,34  L 4,33  L 5,33  L 5,32  L 2,32  L 2,33  L 1,33  L 1,34  L 0,34  Z  " style="fill:rgb(0, 0, 1); fill-opacity:1.000; stroke:none;" />
 <path d="  M 0,42  L 0,43  L 1,43  L 1,42  Z  " style="fill:rgb(0, 0, 1); fill-opacity:1.000; stroke:none;" />
 <path d="  M 44,58  L 42,58  L 42,59  L 43,59  L 43,60  L 44,60  L 44,61  L 43,61  L 43,62  L 42,62  L 42,63  L 41,63  L 41,64  L 46,64  L 46,63  L 45,63  L 45,62  L 46,62  L 46,61  L 47,61  L 47,60  L 48,60  L 48,59  L 49,59  L 49,58  L 50,58  L 50,60  L 49,60  L 49,62  L 48,62  L 48,63  L 47,63  L 47,64  L 54,64  L 54,63  L 53,63  L 53,62  L 52,62  L 52,61  L 53,61  L 53,60  L 52,60  L 52,59  L 53,59  L 53,58  L 52,58  L 52,57  L 54,57  L 54,58  L 55,58  L 55,55  L 54,55  L 54,56  L 53,56  L 53,55  L 52,55  L 52,56  L 51,56  L 51,55  L 50,55  L 50,54  L 49,54  L 49,53  L 48,53  L 48,52  L 50,52  L 50,51  L 49,51  L 49,50  L 50,50  L 50,49  L 51,49  L 51,48  L 53,48  L 53,47  L 52,47  L 52,46  L 53,46  L 53,45  L 55,45  L 55,46  L 56,46  L 56,45  L 57,45  L 57,44  L 59,44  L 59,45  L 60,45  L 60,46  L 61,46  L 61,47  L 62,47  L 62,48  L 63,48  L 63,49  L 62,49  L 62,50  L 60,50  L 60,52  L 61,52  L 61,53  L 62,53  L 62,54  L 63,54  L 63,55  L 64,55  L 64,44  L 63,44  L 63,43  L 62,43  L 62,42  L 61,42  L 61,41  L 60,41  L 60,40  L 61,40  L 61,38  L 62,38  L 62,39  L 63,39  L 63,38  L 64,38  L 64,33  L 62,33  L 62,34  L 60,34  L 60,35  L 58,35  L 58,36  L 56,36  L 56,37  L 54,37  L 54,38  L 52,38  L 52,37  L 51,37  L 51,36  L 50,36  L 50,35  L 49,35  L 49,34  L 48,34  L 48,32  L 49,32  L 49,31  L 50,31  L 50,30  L 49,30  L 49,28  L 47,28  L 47,29  L 46,29  L 46,30  L 45,30  L 45,31  L 44,31  L 44,30  L 41,30  L 41,31  L 40,31  L 40,32  L 39,32  L 39,33  L 38,33  L 38,34  L 37,34  L 37,36  L 36,36  L 36,37  L 35,37  L 35,36  L 34,36  L 34,38  L 35,38  L 35,40  L 34,40  L 34,39  L 33,39  L 33,38  L 32,38  L 32,39  L 31,39  L 31,40  L 30,40  L 30,42  L 28,42  L 28,41  L 27,41  L 27,42  L 26,42  L 26,44  L 25,44  L 25,43  L 24,43  L 24,45  L 23,45  L 23,44  L 22,44  L 22,42  L 21,42  L 21,41  L 22,41  L 22,39  L 23,39  L 23,38  L 24,38  L 24,36  L 23,36  L 23,35  L 22,35  L 22,34  L 23,34  L 23,33  L 24,33  L 24,34  L 25,34  L 25,32  L 24,32  L 24,31  L 22,31  L 22,32  L 21,32  L 21,34  L 20,34  L 20,35  L 21,35  L 21,36  L 20,36  L 20,37  L 19,37  L 19,38  L 18,38  L 18,39  L 16,39  L 16,40  L 15,40  L 15,39  L 14,39  L 14,38  L 13,38  L 13,37  L 12,37  L 12,36  L 10,36  L 10,37  L 11,37  L 11,38  L 10,38  L 10,39  L 9,39  L 9,40  L 8,40  L 8,39  L 7,39  L 7,41  L 6,41  L 6,42  L 5,42  L 5,43  L 4,43  L 4,42  L 3,42  L 3,43  L 1,43  L 1,44  L 0,44  L 0,51  L 1,51  L 1,50  L 2,50  L 2,49  L 3,49  L 3,48  L 2,48  L 2,47  L 4,47  L 4,48  L 6,48  L 6,46  L 7,46  L 7,45  L 8,45  L 8,46  L 10,46  L 10,45  L 11,45  L 11,44  L 12,44  L 12,43  L 13,43  L 13,45  L 14,45  L 14,46  L 16,46  L 16,45  L 17,45  L 17,44  L 18,44  L 18,45  L 19,45  L 19,46  L 18,46  L 18,49  L 17,49  L 17,50  L 16,50  L 16,51  L 17,51  L 17,52  L 16,52  L 16,53  L 15,53  L 15,54  L 14,54  L 14,55  L 12,55  L 12,56  L 9,56  L 9,55  L 10,55  L 10,54  L 11,54  L 11,53  L 9,53  L 9,54  L 8,54  L 8,56  L 7,56  L 7,57  L 9,57  L 9,58  L 8,58  L 8,59  L 7,59  L 7,58  L 6,58  L 6,61  L 5,61  L 5,62  L 4,62  L 4,63  L 3,63  L 3,62  L 1,62  L 1,63  L 2,63  L 2,64  L 6,64  L 6,63  L 7,63  L 7,62  L 8,62  L 8,61  L 10,61  L 10,62  L 11,62  L 11,63  L 10,63  L 10,64  L 17,64  L 17,62  L 18,62  L 18,61  L 17,61  L 17,60  L 18,60  L 18,59  L 20,59  L 20,58  L 21,58  L 21,57  L 23,57  L 23,56  L 24,56  L 24,57  L 25,57  L 25,56  L 26,56  L 26,55  L 27,55  L 27,56  L 29,56  L 29,57  L 30,57  L 30,59  L 31,59  L 31,60  L 30,60  L 30,61  L 29,61  L 29,62  L 27,62  L 27,63  L 26,63  L 26,64  L 37,64  L 37,63  L 38,63  L 38,62  L 39,62  L 39,61  L 40,61  L 40,60  L 37,60  L 37,59  L 38,59  L 38,58  L 39,58  L 39,59  L 41,59  L 41,58  L 40,58  L 40,57  L 42,57  L 42,56  L 41,56  L 41,55  L 43,55  L 43,54  L 44,54  L 44,53  L 45,53  L 45,54  L 46,54  L 46,55  L 47,55  L 47,56  L 45,56  L 45,57  L 44,57  Z  M 28,47  L 30,47  L 30,46  L 31,46  L 31,47  L 32,47  L 32,46  L 34,46  L 34,45  L 33,45  L 33,44  L 35,44  L 35,43  L 37,43  L 37,42  L 38,42  L 38,41  L 39,41  L 39,40  L 38,40  L 38,39  L 40,39  L 40,38  L 41,38  L 41,39  L 42,39  L 42,40  L 43,40  L 43,39  L 45,39  L 45,38  L 46,38  L 46,37  L 47,37  L 47,36  L 48,36  L 48,37  L 49,37  L 49,36  L 50,36  L 50,38  L 49,38  L 49,39  L 50,39  L 50,40  L 52,40  L 52,41  L 53,41  L 53,42  L 52,42  L 52,43  L 51,43  L 51,44  L 50,44  L 50,46  L 49,46  L 49,48  L 48,48  L 48,49  L 47,49  L 47,50  L 43,50  L 43,51  L 42,51  L 42,52  L 41,52  L 41,53  L 39,53  L 39,54  L 37,54  L 37,56  L 36,56  L 36,57  L 34,57  L 34,59  L 33,59  L 33,58  L 32,58  L 32,57  L 31,57  L 31,56  L 30,56  L 30,55  L 29,55  L 29,53  L 28,53  L 28,52  L 26,52  L 26,51  L 27,51  L 27,50  L 28,50  L 28,49  L 27,49  L 27,48  L 28,48  Z  M 38,34  L 40,34  L 40,36  L 39,36  L 39,35  L 38,35  Z  M 20,54  L 19,54  L 19,55  L 18,55  L 18,54  L 17,54  L 17,53  L 18,53  L 18,52  L 19,52  L 19,53  L 20,53  Z  M 14,45  L 14,44  L 15,44  L 15,45  Z  M 30,43  L 30,44  L 29,44  L 29,43  Z  M 40,34  L 40,33  L 41,33  L 41,34  Z  M 23,51  L 24,51  L 24,52  L 22,52  L 22,53  L 20,53  L 20,52  L 21,52  L 21,51  L 22,51  L 22,50  L 23,50  Z  M 30,43  L 30,42  L 31,42  L 31,43  Z  M 17,59  L 17,60  L 16,60  L 16,61  L 14,61  L 14,62  L 12,62  L 12,61  L 13,61  L 13,60  L 11,60  L 11,59  L 12,59  L 12,58  L 13,58  L 13,59  L 15,59  L 15,58  L 16,58  L 16,59  Z  M 36,41  L 35,41  L 35,40  L 36,40  Z  M 21,54  L 21,55  L 20,55  L 20,54  Z  M 37,36  L 38,36  L 38,37  L 37,37  Z  M 33,40  L 34,40  L 34,41  L 33,41  Z  M 20,44  L 20,45  L 19,45  L 19,44  Z  M 19,57  L 20,57  L 20,58  L 19,58  Z  M 59,39  L 60,39  L 60,40  L 59,40  Z  M 9,44  L 10,44  L 10,45  L 9,45  Z  M 40,54  L 40,55  L 39,55  L 39,54  Z  M 12,57  L 12,56  L 13,56  L 13,57  Z  M 51,47  L 51,48  L 50,48  L 50,47  Z  M 63,47  L 62,47  L 62,46  L 63,46  Z  M 28,55  L 27,55  L 27,54  L 28,54  Z  M 44,60  L 44,59  L 45,59  L 45,60  Z  M 40,57  L 39,57  L 39,56  L 40,56  Z  M 4,46  L 5,46  L 5,47  L 4,47  Z  M 37,40  L 36,40  L 36,39  L 37,39  Z  " style="fill:rgb(0, 0, 1); fill-opacity:1.000; stroke:none;" />
 <path d="  M 0,53  L 1,53  L 1,52  L 0,52  Z  " style="fill:rgb(0, 0, 1); fill-opacity:1.000; stroke:none;" />
 <path d="  M 4,59  L 3,59  L 3,57  L 2,57  L 2,55  L 1,55  L 1,56  L 0,56  L 0,62  L 1,62  L 1,61  L 2,61  L 2,60  L 4,60  Z  M 1,59  L 2,59  L 2,60  L 1,60  Z  " style="fill:rgb(0, 0, 1); fill-opacity:1.000; stroke:none;" />
 <path d="  M 2,54  L 2,53  L 1,53  L 1,54  Z  " style="fill:rgb(0, 0, 1); fill-opacity:1.000; stroke:none;" />
 <path d="  M 4,41  L 4,42  L 5,42  L 5,41  Z  " style="fill:rgb(0, 0, 1); fill-opacity:1.000; stroke:none;" />
 <path d="  M 5,60  L 4,60  L 4,61  L 5,61  Z  " style="fill:rgb(0, 0, 1); fill-opacity:1.000; stroke:none;" />
 <path d="  M 6,33  L 5,33  L 5,34  L 6,34  Z  " style="fill:rgb(0, 0, 1); fill-opacity:1.000; stroke:none;" />
 <path d="  M 7,33  L 7,32  L 6,32  L 6,33  Z  " style="fill:rgb(0, 0, 1); fill-opacity:1.000; stroke:none;" />
 <path d="  M 7,34  L 6,34  L 6,35  L 7,35  Z  " style="fill:rgb(0, 0, 1); fill-opacity:1.000; stroke:none;" />
 <path d="  M 7,35  L 7,36  L 8,36  L 8,35  Z  " style="fill:rgb(0, 0, 1); fill-opacity:1.000; stroke:none;" />
 <path d="  M 7,46  L 7,47  L 8,47  L 8,46  Z  " style="fill:rgb(0, 0, 1); fill-opacity:1.000; stroke:none;" />
 <path d="  M 8,34  L 9,34  L 9,33  L 8,33  Z  " style="fill:rgb(0, 0, 1); fill-opacity:1.000; stroke:none;" />
 <path d="  M 8,39  L 9,39  L 9,38  L 8,38  Z  " style="fill:rgb(0, 0, 1); fill-opacity:1.000; stroke:none;" />
 <path d="  M 10,32  L 9,32  L 9,33  L 10,33  Z  " style="fill:rgb(0, 0, 1); fill-opacity:1.000; stroke:none;" />
 <path d="  M 9,35  L 10,35  L 10,34  L 9,34  Z  " style="fill:rgb(0, 0, 1); fill-opacity:1.000; stroke:none;" />
 <path d="  M 12,53  L 12,52  L 11,52  L 11,53  Z  " style="fill:rgb(0, 0, 1); fill-opacity:1.000; stroke:none;" />
 <path d="  M 12,45  L 12,46  L 13,46  L 13,45  Z  " style="fill:rgb(0, 0, 1); fill-opacity:1.000; stroke:none;" />
 <path d="  M 15,38  L 15,36  L 13,36  L 13,37  L 14,37  L 14,38  Z  " style="fill:rgb(0, 0, 1); fill-opacity:1.000; stroke:none;" />
 <path d="  M 15,35  L 15,34  L 14,34  L 14,35  Z  " style="fill:rgb(0, 0, 1); fill-opacity:1.000; stroke:none;" />
 <path d="  M 15,53  L 15,52  L 14,52  L 14,53  Z  " style="fill:rgb(0, 0, 1); fill-opacity:1.000; stroke:none;" />
 <path d="  M 16,32  L 15,32  L 15,33  L 16,33  Z  " style="fill:rgb(0, 0, 1); fill-opacity:1.000; stroke:none;" />
 <path d="  M 15,36  L 16,36  L 16,35  L 15,35  Z  " style="fill:rgb(0, 0, 1); fill-opacity:1.000; stroke:none;" />
 <path d="  M 15,59  L 15,60  L 16,60  L 16,59  Z  " style="fill:rgb(0, 0, 1); fill-opacity:1.000; stroke:none;" />
 <path d="  M 17,26  L 17,25  L 16,25  L 16,26  Z  " style="fill:rgb(0, 0, 1); fill-opacity:1.000; stroke:none;" />
 <path d="  M 17,33  L 16,33  L 16,34  L 17,34  Z  " style="fill:rgb(0, 0, 1); fill-opacity:1.000; stroke:none;" />
 <path d="  M 18,32  L 17,32  L 17,33  L 18,33  Z  " style="fill:rgb(0, 0, 1); fill-opacity:1.000; stroke:none;" />
 <path d="  M 18,37  L 19,37  L 19,36  L 18,36  Z  " style="fill:rgb(0, 0, 1); fill-opacity:1.000; stroke:none;" />
 <path d="  M 19,60  L 18,60  L 18,61  L 19,61  Z  " style="fill:rgb(0, 0, 1); fill-opacity:1.000; stroke:none;" />
 <path d="  M 21,58  L 21,59  L 22,59  L 22,58  Z  " style="fill:rgb(0, 0, 1); fill-opacity:1.000; stroke:none;" />
 <path d="  M 24,40  L 23,40  L 23,41  L 22,41  L 22,42  L 24,42  Z  " style="fill:rgb(0, 0, 1); fill-opacity:1.000; stroke:none;" />
 <path d="  M 24,58  L 24,57  L 23,57  L 23,58  Z  " style="fill:rgb(0, 0, 1); fill-opacity:1.000; stroke:none;" />
 <path d="  M 24,35  L 24,36  L 25,36  L 25,35  Z  " style="fill:rgb(0, 0, 1); fill-opacity:1.000; stroke:none;" />
 <path d="  M 26,35  L 26,34  L 25,34  L 25,35  Z  " style="fill:rgb(0, 0, 1); fill-opacity:1.000; stroke:none;" />
 <path d="  M 26,62  L 27,62  L 27,61  L 26,61  Z  " style="fill:rgb(0, 0, 1); fill-opacity:1.000; stroke:none;" />
 <path d="  M 27,61  L 28,61  L 28,60  L 27,60  Z  " style="fill:rgb(0, 0, 1); fill-opacity:1.000; stroke:none;" />
 <path d="  M 29,52  L 29,51  L 28,51  L 28,52  Z  " style="fill:rgb(0, 0, 1); fill-opacity:1.000; stroke:none;" />
 <path d="  M 29,52  L 29,53  L 30,53  L 30,52  Z  " style="fill:rgb(0, 0, 1); fill-opacity:1.000; stroke:none;" />
 <path d="  M 31,47  L 30,47  L 30,48  L 31,48  Z  " style="fill:rgb(0, 0, 1); fill-opacity:1.000; stroke:none;" />
 <path d="  M 30,52  L 31,52  L 31,51  L 30,51  Z  " style="fill:rgb(0, 0, 1); fill-opacity:1.000; stroke:none;" />
 <path d="  M 31,50  L 31,51  L 32,51  L 32,50  Z  " style="fill:rgb(0, 0, 1); fill-opacity:1.000; stroke:none;" />
 <path d="  M 31,53  L 32,53  L 32,52  L 31,52  Z  " style="fill:rgb(0, 0, 1); fill-opacity:1.000; stroke:none;" />
 <path d="  M 32,54  L 31,54  L 31,56  L 32,56  Z  " style="fill:rgb(0, 0, 1); fill-opacity:1.000; stroke:none;" />
 <path d="  M 33,54  L 33,53  L 32,53  L 32,54  Z  " style="fill:rgb(0, 0, 1); fill-opacity:1.000; stroke:none;" />
 <path d="  M 33,55  L 33,56  L 34,56  L 34,55  Z  " style="fill:rgb(0, 0, 1); fill-opacity:1.000; stroke:none;" />
 <path d="  M 36,44  L 35,44  L 35,45  L 36,45  Z  " style="fill:rgb(0, 0, 1); fill-opacity:1.000; stroke:none;" />
 <path d="  M 35,55  L 36,55  L 36,54  L 35,54  Z  " style="fill:rgb(0, 0, 1); fill-opacity:1.000; stroke:none;" />
 <path d="  M 38,44  L 38,43  L 37,43  L 37,44  Z  " style="fill:rgb(0, 0, 1); fill-opacity:1.000; stroke:none;" />
 <path d="  M 39,41  L 39,42  L 40,42  L 40,41  Z  " style="fill:rgb(0, 0, 1); fill-opacity:1.000; stroke:none;" />
 <path d="  M 39,63  L 40,63  L 40,62  L 39,62  Z  " style="fill:rgb(0, 0, 1); fill-opacity:1.000; stroke:none;" />
 <path d="  M 41,39  L 40,39  L 40,40  L 41,40  Z  " style="fill:rgb(0, 0, 1); fill-opacity:1.000; stroke:none;" />
 <path d="  M 40,62  L 42,62  L 42,61  L 40,61  Z  " style="fill:rgb(0, 0, 1); fill-opacity:1.000; stroke:none;" />
 <path d="  M 41,50  L 41,51  L 42,51  L 42,50  Z  " style="fill:rgb(0, 0, 1); fill-opacity:1.000; stroke:none;" />
 <path d="  M 42,59  L 41,59  L 41,60  L 42,60  Z  " style="fill:rgb(0, 0, 1); fill-opacity:1.000; stroke:none;" />
 <path d="  M 42,44  L 44,44  L 44,43  L 45,43  L 45,42  L 47,42  L 47,40  L 46,40  L 46,41  L 45,41  L 45,40  L 44,40  L 44,42  L 43,42  L 43,43  L 42,43  Z  " style="fill:rgb(0, 0, 1); fill-opacity:1.000; stroke:none;" />
 <path d="  M 43,49  L 44,49  L 44,48  L 42,48  L 42,50  L 43,50  Z  " style="fill:rgb(0, 0, 1); fill-opacity:1.000; stroke:none;" />
 <path d="  M 43,28  L 43,29  L 44,29  L 44,28  Z  " style="fill:rgb(0, 0, 1); fill-opacity:1.000; stroke:none;" />
 <path d="  M 45,29  L 44,29  L 44,30  L 45,30  Z  " style="fill:rgb(0, 0, 1); fill-opacity:1.000; stroke:none;" />
 <path d="  M 44,47  L 45,47  L 45,46  L 44,46  Z  " style="fill:rgb(0, 0, 1); fill-opacity:1.000; stroke:none;" />
 <path d="  M 46,28  L 45,28  L 45,29  L 46,29  Z  " style="fill:rgb(0, 0, 1); fill-opacity:1.000; stroke:none;" />
 <path d="  M 46,48  L 46,47  L 45,47  L 45,48  Z  " style="fill:rgb(0, 0, 1); fill-opacity:1.000; stroke:none;" />
 <path d="  M 47,46  L 46,46  L 46,47  L 47,47  Z  " style="fill:rgb(0, 0, 1); fill-opacity:1.000; stroke:none;" />
 <path d="  M 50,51  L 51,51  L 51,50  L 50,50  Z  " style="fill:rgb(0, 0, 1); fill-opacity:1.000; stroke:none;" />
 <path d="  M 53,35  L 53,34  L 52,34  L 52,35  Z  " style="fill:rgb(0, 0, 1); fill-opacity:1.000; stroke:none;" />
 <path d="  M 53,35  L 53,36  L 54,36  L 54,35  Z  " style="fill:rgb(0, 0, 1); fill-opacity:1.000; stroke:none;" />
 <path d="  M 53,54  L 53,55  L 54,55  L 54,54  Z  " style="fill:rgb(0, 0, 1); fill-opacity:1.000; stroke:none;" />
 <path d="  M 54,60  L 54,59  L 53,59  L 53,60  Z  " style="fill:rgb(0, 0, 1); fill-opacity:1.000; stroke:none;" />
 <path d="  M 55,46  L 54,46  L 54,47  L 55,47  Z  " style="fill:rgb(0, 0, 1); fill-opacity:1.000; stroke:none;" />
 <path d="  M 55,61  L 54,61  L 54,62  L 55,62  Z  " style="fill:rgb(0, 0, 1); fill-opacity:1.000; stroke:none;" />
 <path d="  M 55,54  L 55,55  L 56,55  L 56,54  Z  " style="fill:rgb(0, 0, 1); fill-opacity:1.000; stroke:none;" />
 <path d="  M 56,60  L 55,60  L 55,61  L 56,61  Z  " style="fill:rgb(0, 0, 1); fill-opacity:1.000; stroke:none;" />
 <path d="  M 56,53  L 56,54  L 58,54  L 58,53  Z  " style="fill:rgb(0, 0, 1); fill-opacity:1.000; stroke:none;" />
 <path d="  M 57,57  L 57,58  L 56,58  L 56,60  L 58,60  L 58,61  L 60,61  L 60,62  L 61,62  L 61,61  L 62,61  L 62,60  L 63,60  L 63,61  L 64,61  L 64,57  L 63,57  L 63,56  L 62,56  L 62,57  L 61,57  L 61,58  L 58,58  L 58,57  Z  M 59,60  L 58,60  L 58,59  L 59,59  Z  " style="fill:rgb(0, 0, 1); fill-opacity:1.000; stroke:none;" />
 <path d="  M 59,33  L 58,33  L 58,34  L 60,34  L 60,33  L 61,33  L 61,32  L 59,32  Z  " style="fill:rgb(0, 0, 1); fill-opacity:1.000; stroke:none;" />
 <path d="  M 59,54  L 60,54  L 60,52  L 58,52  L 58,53  L 59,53  Z  " style="fill:rgb(0, 0, 1); fill-opacity:1.000; stroke:none;" />
 <path d="  M 60,63  L 58,63  L 58,64  L 60,64  Z  " style="fill:rgb(0, 0, 1); fill-opacity:1.000; stroke:none;" />
 <path d="  M 61,48  L 61,47  L 60,47  L 60,48  Z  " style="fill:rgb(0, 0, 1); fill-opacity:1.000; stroke:none;" />
 <path d="  M 61,56  L 62,56  L 62,54  L 60,54  L 60,55  L 61,55  Z  " style="fill:rgb(0, 0, 1); fill-opacity:1.000; stroke:none;" />
 <path d="  M 60,57  L 61,57  L 61,56  L 60,56  Z  " style="fill:rgb(0, 0, 1); fill-opacity:1.000; stroke:none;" />
 <path d="  M 64,62  L 63,62  L 63,63  L 64,63  Z  " style="fill:rgb(0, 0, 1); fill-opacity:1.000; stroke:none;" />
 <path d="  M 3,40  L 3,39  L 4,39  L 4,37  L 3,37  L 3,38  L 0,38  L 0,39  L 1,39  L 1,40  Z  " style="fill:rgb(59, 39, 84); fill-opacity:1.000; stroke:none;" />
 <path d="  M 0,40  L 0,41  L 1,41  L 1,40  Z  " style="fill:rgb(59, 39, 84); fill-opacity:1.000; stroke:none;" />
 <path d="  M 4,41  L 4,40  L 3,40  L 3,41  Z  " style="fill:rgb(59, 39, 84); fill-opacity:1.000; stroke:none;" />
 <path d="  M 5,52  L 6,52  L 6,51  L 5,51  Z  " style="fill:rgb(59, 39, 84); fill-opacity:1.000; stroke:none;" />
 <path d="  M 10,51  L 10,49  L 9,49  L 9,48  L 8,48  L 8,49  L 7,49  L 7,50  L 6,50  L 6,51  L 7,51  L 7,52  L 9,52  L 9,51  Z  M 9,51  L 8,51  L 8,50  L 9,50  Z  " style="fill:rgb(59, 39, 84); fill-opacity:1.000; stroke:none;" />
 <path d="  M 11,34  L 11,33  L 10,33  L 10,34  Z  " style="fill:rgb(59, 39, 84); fill-opacity:1.000; stroke:none;" />
 <path d="  M 10,49  L 11,49  L 11,50  L 12,50  L 12,49  L 13,49  L 13,48  L 12,48  L 12,47  L 11,47  L 11,48  L 10,48  Z  " style="fill:rgb(59, 39, 84); fill-opacity:1.000; stroke:none;" />
 <path d="  M 11,32  L 11,33  L 12,33  L 12,32  Z  " style="fill:rgb(59, 39, 84); fill-opacity:1.000; stroke:none;" />
 <path d="  M 12,32  L 14,32  L 14,31  L 12,31  Z  " style="fill:rgb(59, 39, 84); fill-opacity:1.000; stroke:none;" />
 <path d="  M 14,48  L 14,47  L 13,47  L 13,48  Z  " style="fill:rgb(59, 39, 84); fill-opacity:1.000; stroke:none;" />
 <path d="  M 14,30  L 14,31  L 15,31  L 15,30  Z  " style="fill:rgb(59, 39, 84); fill-opacity:1.000; stroke:none;" />
 <path d="  M 16,30  L 16,29  L 15,29  L 15,30  Z  " style="fill:rgb(59, 39, 84); fill-opacity:1.000; stroke:none;" />
 <path d="  M 17,28  L 20,28  L 20,27  L 19,27  L 19,26  L 17,26  L 17,27  L 16,27  L 16,29  L 17,29  Z  " style="fill:rgb(59, 39, 84); fill-opacity:1.000; stroke:none;" />
 <path d="  M 18,29  L 17,29  L 17,30  L 18,30  Z  " style="fill:rgb(59, 39, 84); fill-opacity:1.000; stroke:none;" />
 <path d="  M 19,32  L 19,31  L 18,31  L 18,32  Z  " style="fill:rgb(59, 39, 84); fill-opacity:1.000; stroke:none;" />
 <path d="  M 19,30  L 19,31  L 20,31  L 20,30  Z  " style="fill:rgb(59, 39, 84); fill-opacity:1.000; stroke:none;" />
 <path d="  M 21,29  L 21,28  L 20,28  L 20,29  Z  " style="fill:rgb(59, 39, 84); fill-opacity:1.000; stroke:none;" />
 <path d="  M 25,59  L 26,59  L 26,58  L 24,58  L 24,59  L 23,59  L 23,60  L 22,60  L 22,61  L 20,61  L 20,62  L 21,62  L 21,63  L 22,63  L 22,62  L 23,62  L 23,61  L 24,61  L 24,60  L 25,60  Z  " style="fill:rgb(59, 39, 84); fill-opacity:1.000; stroke:none;" />
 <path d="  M 20,63  L 20,64  L 21,64  L 21,63  Z  " style="fill:rgb(59, 39, 84); fill-opacity:1.000; stroke:none;" />
 <path d="  M 24,62  L 25,62  L 25,61  L 24,61  Z  " style="fill:rgb(59, 39, 84); fill-opacity:1.000; stroke:none;" />
 <path d="  M 25,40  L 26,40  L 26,39  L 25,39  Z  " style="fill:rgb(59, 39, 84); fill-opacity:1.000; stroke:none;" />
 <path d="  M 26,39  L 28,39  L 28,38  L 27,38  L 27,37  L 26,37  Z  " style="fill:rgb(59, 39, 84); fill-opacity:1.000; stroke:none;" />
 <path d="  M 26,57  L 26,58  L 27,58  L 27,57  Z  " style="fill:rgb(59, 39, 84); fill-opacity:1.000; stroke:none;" />
 <path d="  M 29,38  L 29,37  L 30,37  L 30,36  L 28,36  L 28,38  Z  " style="fill:rgb(59, 39, 84); fill-opacity:1.000; stroke:none;" />
 <path d="  M 35,49  L 36,49  L 36,48  L 35,48  Z  " style="fill:rgb(59, 39, 84); fill-opacity:1.000; stroke:none;" />
 <path d="  M 38,48  L 38,47  L 39,47  L 39,46  L 37,46  L 37,47  L 36,47  L 36,48  Z  " style="fill:rgb(59, 39, 84); fill-opacity:1.000; stroke:none;" />
 <path d="  M 39,48  L 38,48  L 38,49  L 39,49  Z  " style="fill:rgb(59, 39, 84); fill-opacity:1.000; stroke:none;" />
 <path d="  M 42,45  L 42,44  L 40,44  L 40,45  L 39,45  L 39,46  L 40,46  L 40,47  L 39,47  L 39,48  L 41,48  L 41,47  L 42,47  L 42,46  L 41,46  L 41,45  Z  " style="fill:rgb(59, 39, 84); fill-opacity:1.000; stroke:none;" />
 <path d="  M 42,46  L 43,46  L 43,45  L 42,45  Z  " style="fill:rgb(59, 39, 84); fill-opacity:1.000; stroke:none;" />
 <path d="  M 48,40  L 48,42  L 47,42  L 47,43  L 46,43  L 46,44  L 48,44  L 48,43  L 49,43  L 49,41  L 50,41  L 50,40  Z  " style="fill:rgb(59, 39, 84); fill-opacity:1.000; stroke:none;" />
 <path d="  M 48,39  L 47,39  L 47,40  L 48,40  Z  " style="fill:rgb(59, 39, 84); fill-opacity:1.000; stroke:none;" />
 <path d="  M 51,42  L 51,41  L 50,41  L 50,42  Z  " style="fill:rgb(59, 39, 84); fill-opacity:1.000; stroke:none;" />
 <path d="  M 51,53  L 52,53  L 52,52  L 51,52  Z  " style="fill:rgb(59, 39, 84); fill-opacity:1.000; stroke:none;" />
 <path d="  M 54,52  L 54,51  L 55,51  L 55,50  L 53,50  L 53,51  L 52,51  L 52,52  Z  " style="fill:rgb(59, 39, 84); fill-opacity:1.000; stroke:none;" />
 <path d="  M 57,34  L 57,33  L 56,33  L 56,32  L 54,32  L 54,33  L 55,33  L 55,34  Z  " style="fill:rgb(59, 39, 84); fill-opacity:1.000; stroke:none;" />
 <path d="  M 55,48  L 54,48  L 54,49  L 55,49  Z  " style="fill:rgb(59, 39, 84); fill-opacity:1.000; stroke:none;" />
 <path d="  M 56,48  L 56,49  L 55,49  L 55,50  L 56,50  L 56,51  L 58,51  L 58,50  L 57,50  L 57,49  L 58,49  L 58,48  Z  " style="fill:rgb(59, 39, 84); fill-opacity:1.000; stroke:none;" />
 <path d="  M 55,52  L 56,52  L 56,51  L 55,51  Z  " style="fill:rgb(59, 39, 84); fill-opacity:1.000; stroke:none;" />
 <path d="  M 58,35  L 58,34  L 57,34  L 57,35  Z  " style="fill:rgb(59, 39, 84); fill-opacity:1.000; stroke:none;" />
 <path d="  M 1,39  L 0,39  L 0,40  L 1,40  Z  " style="fill:rgb(39, 30, 61); fill-opacity:1.000; stroke:none;" />
 <path d="  M 3,41  L 3,40  L 1,40  L 1,41  L 0,41  L 0,42  L 2,42  L 2,41  Z  " style="fill:rgb(39, 30, 61); fill-opacity:1.000; stroke:none;" />
 <path d="  M 2,38  L 2,37  L 1,37  L 1,38  Z  " style="fill:rgb(39, 30, 61); fill-opacity:1.000; stroke:none;" />
 <path d="  M 2,52  L 2,51  L 1,51  L 1,52  Z  " style="fill:rgb(39, 30, 61); fill-opacity:1.000; stroke:none;" />
 <path d="  M 1,55  L 2,55  L 2,54  L 1,54  Z  " style="fill:rgb(39, 30, 61); fill-opacity:1.000; stroke:none;" />
 <path d="  M 6,35  L 5,35  L 5,34  L 4,34  L 4,36  L 2,36  L 2,37  L 5,37  L 5,36  L 6,36  Z  " style="fill:rgb(39, 30, 61); fill-opacity:1.000; stroke:none;" />
 <path d="  M 3,42  L 2,42  L 2,43  L 3,43  Z  " style="fill:rgb(39, 30, 61); fill-opacity:1.000; stroke:none;" />
 <path d="  M 4,54  L 4,53  L 5,53  L 5,51  L 6,51  L 6,49  L 5,49  L 5,50  L 4,50  L 4,49  L 3,49  L 3,50  L 2,50  L 2,51  L 3,51  L 3,52  L 2,52  L 2,54  Z  " style="fill:rgb(39, 30, 61); fill-opacity:1.000; stroke:none;" />
 <path d="  M 6,39  L 5,39  L 5,38  L 4,38  L 4,39  L 3,39  L 3,40  L 6,40  Z  " style="fill:rgb(39, 30, 61); fill-opacity:1.000; stroke:none;" />
 <path d="  M 9,51  L 9,52  L 7,52  L 7,51  L 6,51  L 6,53  L 5,53  L 5,54  L 4,54  L 4,55  L 3,55  L 3,56  L 5,56  L 5,55  L 6,55  L 6,54  L 8,54  L 8,53  L 10,53  L 10,52  L 12,52  L 12,53  L 13,53  L 13,52  L 14,52  L 14,51  L 13,51  L 13,50  L 12,50  L 12,51  L 11,51  L 11,49  L 10,49  L 10,51  Z  " style="fill:rgb(39, 30, 61); fill-opacity:1.000; stroke:none;" />
 <path d="  M 5,38  L 6,38  L 6,37  L 5,37  Z  " style="fill:rgb(39, 30, 61); fill-opacity:1.000; stroke:none;" />
 <path d="  M 5,56  L 5,57  L 6,57  L 6,56  Z  " style="fill:rgb(39, 30, 61); fill-opacity:1.000; stroke:none;" />
 <path d="  M 7,36  L 6,36  L 6,37  L 7,37  Z  " style="fill:rgb(39, 30, 61); fill-opacity:1.000; stroke:none;" />
 <path d="  M 6,38  L 6,39  L 7,39  L 7,38  Z  " style="fill:rgb(39, 30, 61); fill-opacity:1.000; stroke:none;" />
 <path d="  M 6,48  L 6,49  L 8,49  L 8,48  Z  " style="fill:rgb(39, 30, 61); fill-opacity:1.000; stroke:none;" />
 <path d="  M 6,55  L 6,56  L 7,56  L 7,55  Z  " style="fill:rgb(39, 30, 61); fill-opacity:1.000; stroke:none;" />
 <path d="  M 8,36  L 8,37  L 7,37  L 7,38  L 9,38  L 9,37  L 10,37  L 10,36  Z  " style="fill:rgb(39, 30, 61); fill-opacity:1.000; stroke:none;" />
 <path d="  M 8,47  L 8,48  L 9,48  L 9,47  Z  " style="fill:rgb(39, 30, 61); fill-opacity:1.000; stroke:none;" />
 <path d="  M 9,50  L 8,50  L 8,51  L 9,51  Z  " style="fill:rgb(39, 30, 61); fill-opacity:1.000; stroke:none;" />
 <path d="  M 10,62  L 10,61  L 8,61  L 8,62  L 9,62  L 9,63  L 11,63  L 11,62  Z  " style="fill:rgb(39, 30, 61); fill-opacity:1.000; stroke:none;" />
 <path d="  M 9,64  L 9,63  L 8,63  L 8,64  Z  " style="fill:rgb(39, 30, 61); fill-opacity:1.000; stroke:none;" />
 <path d="  M 10,48  L 9,48  L 9,49  L 10,49  Z  " style="fill:rgb(39, 30, 61); fill-opacity:1.000; stroke:none;" />
 <path d="  M 11,32  L 10,32  L 10,33  L 11,33  Z  " style="fill:rgb(39, 30, 61); fill-opacity:1.000; stroke:none;" />
 <path d="  M 11,35  L 11,34  L 10,34  L 10,35  Z  " style="fill:rgb(39, 30, 61); fill-opacity:1.000; stroke:none;" />
 <path d="  M 11,47  L 11,46  L 10,46  L 10,47  Z  " style="fill:rgb(39, 30, 61); fill-opacity:1.000; stroke:none;" />
 <path d="  M 12,33  L 11,33  L 11,34  L 12,34  L 12,35  L 13,35  L 13,33  L 14,33  L 14,32  L 12,32  Z  " style="fill:rgb(39, 30, 61); fill-opacity:1.000; stroke:none;" />
 <path d="  M 12,36  L 12,35  L 11,35  L 11,36  Z  " style="fill:rgb(39, 30, 61); fill-opacity:1.000; stroke:none;" />
 <path d="  M 11,54  L 12,54  L 12,53  L 11,53  Z  " style="fill:rgb(39, 30, 61); fill-opacity:1.000; stroke:none;" />
 <path d="  M 13,48  L 13,47  L 14,47  L 14,46  L 12,46  L 12,48  Z  " style="fill:rgb(39, 30, 61); fill-opacity:1.000; stroke:none;" />
 <path d="  M 13,49  L 13,50  L 14,50  L 14,49  Z  " style="fill:rgb(39, 30, 61); fill-opacity:1.000; stroke:none;" />
 <path d="  M 15,32  L 15,31  L 14,31  L 14,32  Z  " style="fill:rgb(39, 30, 61); fill-opacity:1.000; stroke:none;" />
 <path d="  M 16,49  L 17,49  L 17,48  L 15,48  L 15,47  L 14,47  L 14,49  L 15,49  L 15,50  L 16,50  Z  " style="fill:rgb(39, 30, 61); fill-opacity:1.000; stroke:none;" />
 <path d="  M 15,29  L 16,29  L 16,28  L 15,28  Z  " style="fill:rgb(39, 30, 61); fill-opacity:1.000; stroke:none;" />
 <path d="  M 16,31  L 16,30  L 15,30  L 15,31  Z  " style="fill:rgb(39, 30, 61); fill-opacity:1.000; stroke:none;" />
 <path d="  M 16,37  L 16,36  L 15,36  L 15,37  Z  " style="fill:rgb(39, 30, 61); fill-opacity:1.000; stroke:none;" />
 <path d="  M 16,47  L 16,46  L 15,46  L 15,47  Z  " style="fill:rgb(39, 30, 61); fill-opacity:1.000; stroke:none;" />
 <path d="  M 16,26  L 16,27  L 17,27  L 17,26  Z  " style="fill:rgb(39, 30, 61); fill-opacity:1.000; stroke:none;" />
 <path d="  M 16,29  L 16,30  L 17,30  L 17,29  Z  " style="fill:rgb(39, 30, 61); fill-opacity:1.000; stroke:none;" />
 <path d="  M 18,34  L 19,34  L 19,33  L 17,33  L 17,34  L 16,34  L 16,36  L 17,36  L 17,35  L 18,35  Z  " style="fill:rgb(39, 30, 61); fill-opacity:1.000; stroke:none;" />
 <path d="  M 20,29  L 20,28  L 17,28  L 17,29  L 19,29  L 19,30  L 20,30  L 20,32  L 21,32  L 21,31  L 22,31  L 22,29  Z  " style="fill:rgb(39, 30, 61); fill-opacity:1.000; stroke:none;" />
 <path d="  M 18,32  L 18,31  L 17,31  L 17,32  Z  " style="fill:rgb(39, 30, 61); fill-opacity:1.000; stroke:none;" />
 <path d="  M 17,48  L 18,48  L 18,47  L 17,47  Z  " style="fill:rgb(39, 30, 61); fill-opacity:1.000; stroke:none;" />
 <path d="  M 19,31  L 19,30  L 18,30  L 18,31  Z  " style="fill:rgb(39, 30, 61); fill-opacity:1.000; stroke:none;" />
 <path d="  M 18,64  L 20,64  L 20,63  L 21,63  L 21,62  L 20,62  L 20,61  L 19,61  L 19,63  L 18,63  Z  " style="fill:rgb(39, 30, 61); fill-opacity:1.000; stroke:none;" />
 <path d="  M 19,33  L 20,33  L 20,32  L 19,32  Z  " style="fill:rgb(39, 30, 61); fill-opacity:1.000; stroke:none;" />
 <path d="  M 20,61  L 22,61  L 22,60  L 20,60  Z  " style="fill:rgb(39, 30, 61); fill-opacity:1.000; stroke:none;" />
 <path d="  M 24,64  L 24,63  L 23,63  L 23,62  L 22,62  L 22,63  L 21,63  L 21,64  Z  " style="fill:rgb(39, 30, 61); fill-opacity:1.000; stroke:none;" />
 <path d="  M 23,59  L 22,59  L 22,60  L 23,60  Z  " style="fill:rgb(39, 30, 61); fill-opacity:1.000; stroke:none;" />
 <path d="  M 24,43  L 24,42  L 23,42  L 23,43  Z  " style="fill:rgb(39, 30, 61); fill-opacity:1.000; stroke:none;" />
 <path d="  M 23,62  L 24,62  L 24,61  L 23,61  Z  " style="fill:rgb(39, 30, 61); fill-opacity:1.000; stroke:none;" />
 <path d="  M 24,42  L 25,42  L 25,41  L 26,41  L 26,40  L 24,40  Z  " style="fill:rgb(39, 30, 61); fill-opacity:1.000; stroke:none;" />
 <path d="  M 24,57  L 24,58  L 26,58  L 26,57  Z  " style="fill:rgb(39, 30, 61); fill-opacity:1.000; stroke:none;" />
 <path d="  M 25,62  L 26,62  L 26,61  L 27,61  L 27,60  L 26,60  L 26,59  L 25,59  L 25,60  L 24,60  L 24,61  L 25,61  Z  " style="fill:rgb(39, 30, 61); fill-opacity:1.000; stroke:none;" />
 <path d="  M 24,62  L 24,63  L 25,63  L 25,62  Z  " style="fill:rgb(39, 30, 61); fill-opacity:1.000; stroke:none;" />
 <path d="  M 25,37  L 26,37  L 26,36  L 25,36  Z  " style="fill:rgb(39, 30, 61); fill-opacity:1.000; stroke:none;" />
 <path d="  M 26,39  L 26,38  L 25,38  L 25,39  Z  " style="fill:rgb(39, 30, 61); fill-opacity:1.000; stroke:none;" />
 <path d="  M 26,35  L 26,36  L 27,36  L 27,35  Z  " style="fill:rgb(39, 30, 61); fill-opacity:1.000; stroke:none;" />
 <path d="  M 28,39  L 26,39  L 26,40  L 28,40  Z  " style="fill:rgb(39, 30, 61); fill-opacity:1.000; stroke:none;" />
 <path d="  M 27,56  L 26,56  L 26,57  L 27,57  Z  " style="fill:rgb(39, 30, 61); fill-opacity:1.000; stroke:none;" />
 <path d="  M 30,60  L 30,59  L 29,59  L 29,58  L 28,58  L 28,57  L 27,57  L 27,58  L 26,58  L 26,59  L 28,59  L 28,60  Z  " style="fill:rgb(39, 30, 61); fill-opacity:1.000; stroke:none;" />
 <path d="  M 27,38  L 28,38  L 28,36  L 27,36  Z  " style="fill:rgb(39, 30, 61); fill-opacity:1.000; stroke:none;" />
 <path d="  M 27,51  L 28,51  L 28,50  L 27,50  Z  " style="fill:rgb(39, 30, 61); fill-opacity:1.000; stroke:none;" />
 <path d="  M 28,38  L 28,39  L 29,39  L 29,38  Z  " style="fill:rgb(39, 30, 61); fill-opacity:1.000; stroke:none;" />
 <path d="  M 29,41  L 29,40  L 28,40  L 28,41  Z  " style="fill:rgb(39, 30, 61); fill-opacity:1.000; stroke:none;" />
 <path d="  M 29,49  L 28,49  L 28,50  L 31,50  L 31,49  L 30,49  L 30,48  L 29,48  Z  " style="fill:rgb(39, 30, 61); fill-opacity:1.000; stroke:none;" />
 <path d="  M 29,37  L 29,38  L 30,38  L 30,37  Z  " style="fill:rgb(39, 30, 61); fill-opacity:1.000; stroke:none;" />
 <path d="  M 30,36  L 30,37  L 32,37  L 32,36  Z  " style="fill:rgb(39, 30, 61); fill-opacity:1.000; stroke:none;" />
 <path d="  M 36,48  L 36,47  L 35,47  L 35,46  L 34,46  L 34,47  L 33,47  L 33,48  L 31,48  L 31,49  L 32,49  L 32,51  L 33,51  L 33,50  L 34,50  L 34,51  L 35,51  L 35,50  L 37,50  L 37,49  L 38,49  L 38,48  Z  M 35,48  L 36,48  L 36,49  L 35,49  Z  M 33,48  L 34,48  L 34,49  L 33,49  Z  " style="fill:rgb(39, 30, 61); fill-opacity:1.000; stroke:none;" />
 <path d="  M 33,37  L 32,37  L 32,38  L 33,38  Z  " style="fill:rgb(39, 30, 61); fill-opacity:1.000; stroke:none;" />
 <path d="  M 33,37  L 34,37  L 34,36  L 33,36  Z  " style="fill:rgb(39, 30, 61); fill-opacity:1.000; stroke:none;" />
 <path d="  M 33,51  L 33,52  L 34,52  L 34,51  Z  " style="fill:rgb(39, 30, 61); fill-opacity:1.000; stroke:none;" />
 <path d="  M 33,54  L 34,54  L 34,53  L 33,53  Z  " style="fill:rgb(39, 30, 61); fill-opacity:1.000; stroke:none;" />
 <path d="  M 34,58  L 34,57  L 33,57  L 33,58  Z  " style="fill:rgb(39, 30, 61); fill-opacity:1.000; stroke:none;" />
 <path d="  M 35,51  L 35,52  L 34,52  L 34,53  L 36,53  L 36,54  L 37,54  L 37,53  L 38,53  L 38,52  L 36,52  L 36,51  Z  " style="fill:rgb(39, 30, 61); fill-opacity:1.000; stroke:none;" />
 <path d="  M 35,56  L 34,56  L 34,57  L 35,57  Z  " style="fill:rgb(39, 30, 61); fill-opacity:1.000; stroke:none;" />
 <path d="  M 37,47  L 37,46  L 36,46  L 36,47  Z  " style="fill:rgb(39, 30, 61); fill-opacity:1.000; stroke:none;" />
 <path d="  M 37,45  L 37,46  L 39,46  L 39,45  L 40,45  L 40,43  L 39,43  L 39,44  L 38,44  L 38,45  Z  " style="fill:rgb(39, 30, 61); fill-opacity:1.000; stroke:none;" />
 <path d="  M 40,50  L 40,49  L 41,49  L 41,48  L 39,48  L 39,49  L 38,49  L 38,50  L 37,50  L 37,51  L 38,51  L 38,52  L 40,52  L 40,51  L 39,51  L 39,50  Z  " style="fill:rgb(39, 30, 61); fill-opacity:1.000; stroke:none;" />
 <path d="  M 39,48  L 39,47  L 38,47  L 38,48  Z  " style="fill:rgb(39, 30, 61); fill-opacity:1.000; stroke:none;" />
 <path d="  M 40,47  L 40,46  L 39,46  L 39,47  Z  " style="fill:rgb(39, 30, 61); fill-opacity:1.000; stroke:none;" />
 <path d="  M 41,40  L 41,41  L 40,41  L 40,42  L 41,42  L 41,43  L 43,43  L 43,41  L 42,41  L 42,40  Z  " style="fill:rgb(39, 30, 61); fill-opacity:1.000; stroke:none;" />
 <path d="  M 42,45  L 41,45  L 41,46  L 42,46  Z  " style="fill:rgb(39, 30, 61); fill-opacity:1.000; stroke:none;" />
 <path d="  M 42,47  L 41,47  L 41,48  L 42,48  Z  " style="fill:rgb(39, 30, 61); fill-opacity:1.000; stroke:none;" />
 <path d="  M 44,45  L 44,44  L 42,44  L 42,45  Z  " style="fill:rgb(39, 30, 61); fill-opacity:1.000; stroke:none;" />
 <path d="  M 43,46  L 42,46  L 42,47  L 43,47  Z  " style="fill:rgb(39, 30, 61); fill-opacity:1.000; stroke:none;" />
 <path d="  M 42,55  L 42,56  L 43,56  L 43,57  L 44,57  L 44,56  L 45,56  L 45,54  L 44,54  L 44,55  Z  " style="fill:rgb(39, 30, 61); fill-opacity:1.000; stroke:none;" />
 <path d="  M 43,40  L 43,41  L 44,41  L 44,40  Z  " style="fill:rgb(39, 30, 61); fill-opacity:1.000; stroke:none;" />
 <path d="  M 43,47  L 43,48  L 44,48  L 44,47  Z  " style="fill:rgb(39, 30, 61); fill-opacity:1.000; stroke:none;" />
 <path d="  M 45,49  L 46,49  L 46,48  L 44,48  L 44,49  L 43,49  L 43,50  L 45,50  Z  " style="fill:rgb(39, 30, 61); fill-opacity:1.000; stroke:none;" />
 <path d="  M 45,43  L 45,44  L 46,44  L 46,43  Z  " style="fill:rgb(39, 30, 61); fill-opacity:1.000; stroke:none;" />
 <path d="  M 48,39  L 48,38  L 46,38  L 46,39  Z  " style="fill:rgb(39, 30, 61); fill-opacity:1.000; stroke:none;" />
 <path d="  M 46,42  L 46,43  L 47,43  L 47,42  Z  " style="fill:rgb(39, 30, 61); fill-opacity:1.000; stroke:none;" />
 <path d="  M 46,44  L 46,45  L 47,45  L 47,47  L 46,47  L 46,48  L 48,48  L 48,47  L 49,47  L 49,46  L 48,46  L 48,45  L 49,45  L 49,43  L 48,43  L 48,44  Z  " style="fill:rgb(39, 30, 61); fill-opacity:1.000; stroke:none;" />
 <path d="  M 49,60  L 47,60  L 47,61  L 46,61  L 46,63  L 47,63  L 47,62  L 48,62  L 48,61  L 49,61  Z  " style="fill:rgb(39, 30, 61); fill-opacity:1.000; stroke:none;" />
 <path d="  M 47,26  L 48,26  L 48,24  L 47,24  Z  " style="fill:rgb(39, 30, 61); fill-opacity:1.000; stroke:none;" />
 <path d="  M 47,41  L 47,42  L 48,42  L 48,41  Z  " style="fill:rgb(39, 30, 61); fill-opacity:1.000; stroke:none;" />
 <path d="  M 49,40  L 49,39  L 48,39  L 48,40  Z  " style="fill:rgb(39, 30, 61); fill-opacity:1.000; stroke:none;" />
 <path d="  M 52,36  L 52,37  L 54,37  L 54,36  L 53,36  L 53,35  L 52,35  L 52,33  L 51,33  L 51,32  L 49,32  L 49,33  L 50,33  L 50,34  L 51,34  L 51,35  L 50,35  L 50,36  Z  " style="fill:rgb(39, 30, 61); fill-opacity:1.000; stroke:none;" />
 <path d="  M 49,35  L 50,35  L 50,34  L 49,34  Z  " style="fill:rgb(39, 30, 61); fill-opacity:1.000; stroke:none;" />
 <path d="  M 49,43  L 50,43  L 50,41  L 49,41  Z  " style="fill:rgb(39, 30, 61); fill-opacity:1.000; stroke:none;" />
 <path d="  M 50,46  L 50,45  L 49,45  L 49,46  Z  " style="fill:rgb(39, 30, 61); fill-opacity:1.000; stroke:none;" />
 <path d="  M 49,59  L 49,60  L 50,60  L 50,59  Z  " style="fill:rgb(39, 30, 61); fill-opacity:1.000; stroke:none;" />
 <path d="  M 50,44  L 51,44  L 51,43  L 50,43  Z  " style="fill:rgb(39, 30, 61); fill-opacity:1.000; stroke:none;" />
 <path d="  M 50,53  L 50,54  L 53,54  L 53,53  L 54,53  L 54,52  L 52,52  L 52,53  Z  " style="fill:rgb(39, 30, 61); fill-opacity:1.000; stroke:none;" />
 <path d="  M 52,32  L 52,31  L 51,31  L 51,32  Z  " style="fill:rgb(39, 30, 61); fill-opacity:1.000; stroke:none;" />
 <path d="  M 51,41  L 51,42  L 52,42  L 52,41  Z  " style="fill:rgb(39, 30, 61); fill-opacity:1.000; stroke:none;" />
 <path d="  M 52,51  L 51,51  L 51,52  L 52,52  Z  " style="fill:rgb(39, 30, 61); fill-opacity:1.000; stroke:none;" />
 <path d="  M 52,51  L 53,51  L 53,50  L 55,50  L 55,49  L 54,49  L 54,48  L 53,48  L 53,49  L 52,49  Z  " style="fill:rgb(39, 30, 61); fill-opacity:1.000; stroke:none;" />
 <path d="  M 53,32  L 53,33  L 54,33  L 54,32  Z  " style="fill:rgb(39, 30, 61); fill-opacity:1.000; stroke:none;" />
 <path d="  M 53,34  L 53,35  L 54,35  L 54,34  Z  " style="fill:rgb(39, 30, 61); fill-opacity:1.000; stroke:none;" />
 <path d="  M 54,34  L 55,34  L 55,33  L 54,33  Z  " style="fill:rgb(39, 30, 61); fill-opacity:1.000; stroke:none;" />
 <path d="  M 55,36  L 55,35  L 54,35  L 54,36  Z  " style="fill:rgb(39, 30, 61); fill-opacity:1.000; stroke:none;" />
 <path d="  M 55,52  L 55,51  L 54,51  L 54,52  Z  " style="fill:rgb(39, 30, 61); fill-opacity:1.000; stroke:none;" />
 <path d="  M 56,37  L 56,36  L 55,36  L 55,37  Z  " style="fill:rgb(39, 30, 61); fill-opacity:1.000; stroke:none;" />
 <path d="  M 56,47  L 55,47  L 55,49  L 56,49  Z  " style="fill:rgb(39, 30, 61); fill-opacity:1.000; stroke:none;" />
 <path d="  M 56,51  L 56,50  L 55,50  L 55,51  Z  " style="fill:rgb(39, 30, 61); fill-opacity:1.000; stroke:none;" />
 <path d="  M 56,55  L 55,55  L 55,56  L 56,56  Z  " style="fill:rgb(39, 30, 61); fill-opacity:1.000; stroke:none;" />
 <path d="  M 56,62  L 56,61  L 55,61  L 55,62  Z  " style="fill:rgb(39, 30, 61); fill-opacity:1.000; stroke:none;" />
 <path d="  M 58,62  L 56,62  L 56,63  L 55,63  L 55,64  L 57,64  L 57,63  L 58,63  Z  " style="fill:rgb(39, 30, 61); fill-opacity:1.000; stroke:none;" />
 <path d="  M 57,34  L 56,34  L 56,36  L 57,36  Z  " style="fill:rgb(39, 30, 61); fill-opacity:1.000; stroke:none;" />
 <path d="  M 58,49  L 57,49  L 57,50  L 58,50  L 58,51  L 59,51  L 59,50  L 60,50  L 60,48  L 59,48  L 59,47  L 58,47  L 58,46  L 56,46  L 56,47  L 57,47  L 57,48  L 58,48  Z  " style="fill:rgb(39, 30, 61); fill-opacity:1.000; stroke:none;" />
 <path d="  M 56,51  L 56,52  L 58,52  L 58,51  Z  " style="fill:rgb(39, 30, 61); fill-opacity:1.000; stroke:none;" />
 <path d="  M 59,55  L 60,55  L 60,54  L 58,54  L 58,55  L 57,55  L 57,56  L 56,56  L 56,58  L 57,58  L 57,57  L 59,57  Z  " style="fill:rgb(39, 30, 61); fill-opacity:1.000; stroke:none;" />
 <path d="  M 58,33  L 58,32  L 57,32  L 57,33  Z  " style="fill:rgb(39, 30, 61); fill-opacity:1.000; stroke:none;" />
 <path d="  M 59,45  L 58,45  L 58,46  L 59,46  Z  " style="fill:rgb(39, 30, 61); fill-opacity:1.000; stroke:none;" />
 <path d="  M 59,58  L 60,58  L 60,57  L 59,57  Z  " style="fill:rgb(39, 30, 61); fill-opacity:1.000; stroke:none;" />
 <path d="  M 59,61  L 59,62  L 60,62  L 60,61  Z  " style="fill:rgb(39, 30, 61); fill-opacity:1.000; stroke:none;" />
 <path d="  M 64,64  L 64,63  L 62,63  L 62,62  L 63,62  L 63,61  L 61,61  L 61,62  L 60,62  L 60,63  L 61,63  L 61,64  Z  " style="fill:rgb(39, 30, 61); fill-opacity:1.000; stroke:none;" />
 <path d="  M 61,39  L 61,40  L 62,40  L 62,39  Z  " style="fill:rgb(39, 30, 61); fill-opacity:1.000; stroke:none;" />
 <path d="  M 63,40  L 62,40  L 62,42  L 64,42  L 64,41  L 63,41  Z  " style="fill:rgb(39, 30, 61); fill-opacity:1.000; stroke:none;" />
 <path d="  M 2,18  L 14,18  L 14,17  L 1,17  L 1,30  L 2,30  Z  " style="fill:rgb(195, 251, 241); fill-opacity:1.000; stroke:none;" />
 <path d="  M 63,17  L 50,17  L 50,18  L 62,18  L 62,30  L 63,30  Z  " style="fill:rgb(195, 251, 241); fill-opacity:1.000; stroke:none;" />
 <path d="  M 2,31  L 2,30  L 1,30  L 1,31  Z  " style="fill:rgb(74, 237, 209); fill-opacity:1.000; stroke:none;" />
 <path d="  M 12,32  L 12,31  L 2,31  L 2,32  Z  " style="fill:rgb(74, 237, 209); fill-opacity:1.000; stroke:none;" />
 <path d="  M 12,30  L 12,31  L 14,31  L 14,30  Z  " style="fill:rgb(74, 237, 209); fill-opacity:1.000; stroke:none;" />
 <path d="  M 15,18  L 15,17  L 14,17  L 14,18  Z  " style="fill:rgb(74, 237, 209); fill-opacity:1.000; stroke:none;" />
 <path d="  M 15,30  L 15,28  L 14,28  L 14,30  Z  " style="fill:rgb(74, 237, 209); fill-opacity:1.000; stroke:none;" />
 <path d="  M 16,18  L 15,18  L 15,28  L 16,28  Z  " style="fill:rgb(74, 237, 209); fill-opacity:1.000; stroke:none;" />
 <path d="  M 49,18  L 48,18  L 48,28  L 49,28  Z  " style="fill:rgb(74, 237, 209); fill-opacity:1.000; stroke:none;" />
 <path d="  M 49,18  L 50,18  L 50,17  L 49,17  Z  " style="fill:rgb(74, 237, 209); fill-opacity:1.000; stroke:none;" />
 <path d="  M 50,28  L 49,28  L 49,30  L 50,30  Z  " style="fill:rgb(74, 237, 209); fill-opacity:1.000; stroke:none;" />
 <path d="  M 52,31  L 52,30  L 50,30  L 50,31  Z  " style="fill:rgb(74, 237, 209); fill-opacity:1.000; stroke:none;" />
 <path d="  M 62,32  L 62,31  L 52,31  L 52,32  Z  " style="fill:rgb(74, 237, 209); fill-opacity:1.000; stroke:none;" />
 <path d="  M 62,30  L 62,31  L 63,31  L 63,30  Z  " style="fill:rgb(74, 237, 209); fill-opacity:1.000; stroke:none;" />
 <path d="  M 15,19  L 15,18  L 2,18  L 2,31  L 3,31  L 3,19  Z  " style="fill:rgb(128, 243, 223); fill-opacity:1.000; stroke:none;" />
 <path d="  M 62,18  L 49,18  L 49,19  L 61,19  L 61,31  L 62,31  Z  " style="fill:rgb(128, 243, 223); fill-opacity:1.000; stroke:none;" />
 <path d="  M 12,30  L 12,29  L 13,29  L 13,28  L 14,28  L 14,19  L 3,19  L 3,30  Z  " style="fill:rgb(162, 246, 231); fill-opacity:1.000; stroke:none;" />
 <path d="  M 61,30  L 61,19  L 50,19  L 50,28  L 51,28  L 51,29  L 52,29  L 52,30  Z  " style="fill:rgb(162, 246, 231); fill-opacity:1.000; stroke:none;" />
 <path d="  M 3,30  L 3,31  L 12,31  L 12,30  Z  " style="fill:rgb(175, 247, 234); fill-opacity:1.000; stroke:none;" />
 <path d="  M 14,28  L 13,28  L 13,29  L 12,29  L 12,30  L 14,30  Z  " style="fill:rgb(175, 247, 234); fill-opacity:1.000; stroke:none;" />
 <path d="  M 15,19  L 14,19  L 14,28  L 15,28  Z  " style="fill:rgb(175, 247, 234); fill-opacity:1.000; stroke:none;" />
 <path d="  M 50,19  L 49,19  L 49,28  L 50,28  Z  " style="fill:rgb(175, 247, 234); fill-opacity:1.000; stroke:none;" />
 <path d="  M 52,30  L 52,29  L 51,29  L 51,28  L 50,28  L 50,30  Z  " style="fill:rgb(175, 247, 234); fill-opacity:1.000; stroke:none;" />
 <path d="  M 52,30  L 52,31  L 61,31  L 61,30  Z  " style="fill:rgb(175, 247, 234); fill-opacity:1.000; stroke:none;" />
 <path d="  M 16,24  L 17,24  L 17,16  L 16,16  Z  " style="fill:rgb(107, 0, 47); fill-opacity:1.000; stroke:none;" />
 <path d="  M 17,25  L 18,25  L 18,24  L 17,24  Z  " style="fill:rgb(107, 0, 47); fill-opacity:1.000; stroke:none;" />
 <path d="  M 19,25  L 18,25  L 18,26  L 19,26  Z  " style="fill:rgb(107, 0, 47); fill-opacity:1.000; stroke:none;" />
 <path d="  M 19,27  L 20,27  L 20,26  L 19,26  Z  " style="fill:rgb(107, 0, 47); fill-opacity:1.000; stroke:none;" />
 <path d="  M 21,27  L 20,27  L 20,28  L 21,28  Z  " style="fill:rgb(107, 0, 47); fill-opacity:1.000; stroke:none;" />
 <path d="  M 21,28  L 21,29  L 22,29  L 22,28  Z  " style="fill:rgb(107, 0, 47); fill-opacity:1.000; stroke:none;" />
 <path d="  M 23,30  L 23,29  L 22,29  L 22,30  Z  " style="fill:rgb(107, 0, 47); fill-opacity:1.000; stroke:none;" />
 <path d="  M 23,31  L 24,31  L 24,30  L 23,30  Z  " style="fill:rgb(107, 0, 47); fill-opacity:1.000; stroke:none;" />
 <path d="  M 24,31  L 24,32  L 25,32  L 25,31  Z  " style="fill:rgb(107, 0, 47); fill-opacity:1.000; stroke:none;" />
 <path d="  M 25,32  L 25,33  L 26,33  L 26,32  Z  " style="fill:rgb(107, 0, 47); fill-opacity:1.000; stroke:none;" />
 <path d="  M 26,34  L 27,34  L 27,33  L 26,33  Z  " style="fill:rgb(107, 0, 47); fill-opacity:1.000; stroke:none;" />
 <path d="  M 28,34  L 27,34  L 27,35  L 28,35  Z  " style="fill:rgb(107, 0, 47); fill-opacity:1.000; stroke:none;" />
 <path d="  M 36,36  L 36,35  L 28,35  L 28,36  Z  " style="fill:rgb(107, 0, 47); fill-opacity:1.000; stroke:none;" />
 <path d="  M 37,35  L 37,34  L 36,34  L 36,35  Z  " style="fill:rgb(107, 0, 47); fill-opacity:1.000; stroke:none;" />
 <path d="  M 38,33  L 37,33  L 37,34  L 38,34  Z  " style="fill:rgb(107, 0, 47); fill-opacity:1.000; stroke:none;" />
 <path d="  M 38,33  L 39,33  L 39,32  L 38,32  Z  " style="fill:rgb(107, 0, 47); fill-opacity:1.000; stroke:none;" />
 <path d="  M 39,31  L 39,32  L 40,32  L 40,31  Z  " style="fill:rgb(107, 0, 47); fill-opacity:1.000; stroke:none;" />
 <path d="  M 41,31  L 41,30  L 40,30  L 40,31  Z  " style="fill:rgb(107, 0, 47); fill-opacity:1.000; stroke:none;" />
 <path d="  M 42,30  L 42,29  L 41,29  L 41,30  Z  " style="fill:rgb(107, 0, 47); fill-opacity:1.000; stroke:none;" />
 <path d="  M 43,28  L 42,28  L 42,29  L 43,29  Z  " style="fill:rgb(107, 0, 47); fill-opacity:1.000; stroke:none;" />
 <path d="  M 44,28  L 44,27  L 43,27  L 43,28  Z  " style="fill:rgb(107, 0, 47); fill-opacity:1.000; stroke:none;" />
 <path d="  M 45,27  L 45,26  L 44,26  L 44,27  Z  " style="fill:rgb(107, 0, 47); fill-opacity:1.000; stroke:none;" />
 <path d="  M 46,26  L 46,25  L 45,25  L 45,26  Z  " style="fill:rgb(107, 0, 47); fill-opacity:1.000; stroke:none;" />
 <path d="  M 46,25  L 47,25  L 47,24  L 46,24  Z  " style="fill:rgb(107, 0, 47); fill-opacity:1.000; stroke:none;" />
 <path d="  M 47,24  L 48,24  L 48,16  L 47,16  Z  " style="fill:rgb(107, 0, 47); fill-opacity:1.000; stroke:none;" />
 <path d="  M 17,24  L 18,24  L 18,16  L 17,16  Z  " style="fill:rgb(127, 7, 40); fill-opacity:1.000; stroke:none;" />
 <path d="  M 18,24  L 18,25  L 19,25  L 19,24  Z  " style="fill:rgb(127, 7, 40); fill-opacity:1.000; stroke:none;" />
 <path d="  M 19,25  L 19,26  L 20,26  L 20,25  Z  " style="fill:rgb(127, 7, 40); fill-opacity:1.000; stroke:none;" />
 <path d="  M 20,27  L 21,27  L 21,26  L 20,26  Z  " style="fill:rgb(127, 7, 40); fill-opacity:1.000; stroke:none;" />
 <path d="  M 22,27  L 21,27  L 21,28  L 22,28  Z  " style="fill:rgb(127, 7, 40); fill-opacity:1.000; stroke:none;" />
 <path d="  M 23,29  L 23,28  L 22,28  L 22,29  Z  " style="fill:rgb(127, 7, 40); fill-opacity:1.000; stroke:none;" />
 <path d="  M 23,29  L 23,30  L 24,30  L 24,29  Z  " style="fill:rgb(127, 7, 40); fill-opacity:1.000; stroke:none;" />
 <path d="  M 25,31  L 25,30  L 24,30  L 24,31  Z  " style="fill:rgb(127, 7, 40); fill-opacity:1.000; stroke:none;" />
 <path d="  M 25,32  L 26,32  L 26,31  L 25,31  Z  " style="fill:rgb(127, 7, 40); fill-opacity:1.000; stroke:none;" />
 <path d="  M 26,32  L 26,33  L 27,33  L 27,32  Z  " style="fill:rgb(127, 7, 40); fill-opacity:1.000; stroke:none;" />
 <path d="  M 28,34  L 28,33  L 27,33  L 27,34  Z  " style="fill:rgb(127, 7, 40); fill-opacity:1.000; stroke:none;" />
 <path d="  M 28,34  L 28,35  L 36,35  L 36,34  Z  " style="fill:rgb(127, 7, 40); fill-opacity:1.000; stroke:none;" />
 <path d="  M 37,33  L 36,33  L 36,34  L 37,34  Z  " style="fill:rgb(127, 7, 40); fill-opacity:1.000; stroke:none;" />
 <path d="  M 37,33  L 38,33  L 38,32  L 37,32  Z  " style="fill:rgb(127, 7, 40); fill-opacity:1.000; stroke:none;" />
 <path d="  M 38,31  L 38,32  L 39,32  L 39,31  Z  " style="fill:rgb(127, 7, 40); fill-opacity:1.000; stroke:none;" />
 <path d="  M 39,31  L 40,31  L 40,30  L 39,30  Z  " style="fill:rgb(127, 7, 40); fill-opacity:1.000; stroke:none;" />
 <path d="  M 40,30  L 41,30  L 41,29  L 40,29  Z  " style="fill:rgb(127, 7, 40); fill-opacity:1.000; stroke:none;" />
 <path d="  M 42,28  L 41,28  L 41,29  L 42,29  Z  " style="fill:rgb(127, 7, 40); fill-opacity:1.000; stroke:none;" />
 <path d="  M 42,27  L 42,28  L 43,28  L 43,27  Z  " style="fill:rgb(127, 7, 40); fill-opacity:1.000; stroke:none;" />
 <path d="  M 43,27  L 44,27  L 44,26  L 43,26  Z  " style="fill:rgb(127, 7, 40); fill-opacity:1.000; stroke:none;" />
 <path d="  M 44,26  L 45,26  L 45,25  L 44,25  Z  " style="fill:rgb(127, 7, 40); fill-opacity:1.000; stroke:none;" />
 <path d="  M 46,24  L 45,24  L 45,25  L 46,25  Z  " style="fill:rgb(127, 7, 40); fill-opacity:1.000; stroke:none;" />
 <path d="  M 46,24  L 47,24  L 47,16  L 46,16  Z  " style="fill:rgb(127, 7, 40); fill-opacity:1.000; stroke:none;" />
 <path d="  M 18,24  L 19,24  L 19,16  L 18,16  Z  " style="fill:rgb(149, 28, 41); fill-opacity:1.000; stroke:none;" />
 <path d="  M 20,25  L 20,24  L 19,24  L 19,25  Z  " style="fill:rgb(149, 28, 41); fill-opacity:1.000; stroke:none;" />
 <path d="  M 21,25  L 20,25  L 20,26  L 21,26  Z  " style="fill:rgb(149, 28, 41); fill-opacity:1.000; stroke:none;" />
 <path d="  M 22,27  L 22,26  L 21,26  L 21,27  Z  " style="fill:rgb(149, 28, 41); fill-opacity:1.000; stroke:none;" />
 <path d="  M 23,27  L 22,27  L 22,28  L 23,28  Z  " style="fill:rgb(149, 28, 41); fill-opacity:1.000; stroke:none;" />
 <path d="  M 23,29  L 24,29  L 24,28  L 23,28  Z  " style="fill:rgb(149, 28, 41); fill-opacity:1.000; stroke:none;" />
 <path d="  M 24,30  L 25,30  L 25,29  L 24,29  Z  " style="fill:rgb(149, 28, 41); fill-opacity:1.000; stroke:none;" />
 <path d="  M 26,30  L 25,30  L 25,31  L 26,31  Z  " style="fill:rgb(149, 28, 41); fill-opacity:1.000; stroke:none;" />
 <path d="  M 27,31  L 26,31  L 26,32  L 27,32  Z  " style="fill:rgb(149, 28, 41); fill-opacity:1.000; stroke:none;" />
 <path d="  M 27,32  L 27,33  L 28,33  L 28,32  Z  " style="fill:rgb(149, 28, 41); fill-opacity:1.000; stroke:none;" />
 <path d="  M 28,34  L 36,34  L 36,33  L 28,33  Z  " style="fill:rgb(149, 28, 41); fill-opacity:1.000; stroke:none;" />
 <path d="  M 37,33  L 37,32  L 36,32  L 36,33  Z  " style="fill:rgb(149, 28, 41); fill-opacity:1.000; stroke:none;" />
 <path d="  M 38,31  L 37,31  L 37,32  L 38,32  Z  " style="fill:rgb(149, 28, 41); fill-opacity:1.000; stroke:none;" />
 <path d="  M 38,30  L 38,31  L 39,31  L 39,30  Z  " style="fill:rgb(149, 28, 41); fill-opacity:1.000; stroke:none;" />
 <path d="  M 40,29  L 39,29  L 39,30  L 40,30  Z  " style="fill:rgb(149, 28, 41); fill-opacity:1.000; stroke:none;" />
 <path d="  M 40,29  L 41,29  L 41,28  L 40,28  Z  " style="fill:rgb(149, 28, 41); fill-opacity:1.000; stroke:none;" />
 <path d="  M 42,28  L 42,27  L 41,27  L 41,28  Z  " style="fill:rgb(149, 28, 41); fill-opacity:1.000; stroke:none;" />
 <path d="  M 43,26  L 42,26  L 42,27  L 43,27  Z  " style="fill:rgb(149, 28, 41); fill-opacity:1.000; stroke:none;" />
 <path d="  M 43,25  L 43,26  L 44,26  L 44,25  Z  " style="fill:rgb(149, 28, 41); fill-opacity:1.000; stroke:none;" />
 <path d="  M 44,25  L 45,25  L 45,24  L 44,24  Z  " style="fill:rgb(149, 28, 41); fill-opacity:1.000; stroke:none;" />
 <path d="  M 46,16  L 45,16  L 45,24  L 46,24  Z  " style="fill:rgb(149, 28, 41); fill-opacity:1.000; stroke:none;" />
 <path d="  M 19,24  L 20,24  L 20,16  L 19,16  Z  " style="fill:rgb(157, 36, 41); fill-opacity:1.000; stroke:none;" />
 <path d="  M 20,24  L 20,25  L 21,25  L 21,24  Z  " style="fill:rgb(157, 36, 41); fill-opacity:1.000; stroke:none;" />
 <path d="  M 22,26  L 22,25  L 21,25  L 21,26  Z  " style="fill:rgb(157, 36, 41); fill-opacity:1.000; stroke:none;" />
 <path d="  M 23,27  L 23,26  L 22,26  L 22,27  Z  " style="fill:rgb(157, 36, 41); fill-opacity:1.000; stroke:none;" />
 <path d="  M 23,28  L 24,28  L 24,27  L 23,27  Z  " style="fill:rgb(157, 36, 41); fill-opacity:1.000; stroke:none;" />
 <path d="  M 25,28  L 24,28  L 24,29  L 25,29  Z  " style="fill:rgb(157, 36, 41); fill-opacity:1.000; stroke:none;" />
 <path d="  M 26,29  L 25,29  L 25,30  L 26,30  Z  " style="fill:rgb(157, 36, 41); fill-opacity:1.000; stroke:none;" />
 <path d="  M 26,31  L 27,31  L 27,30  L 26,30  Z  " style="fill:rgb(157, 36, 41); fill-opacity:1.000; stroke:none;" />
 <path d="  M 27,32  L 28,32  L 28,31  L 27,31  Z  " style="fill:rgb(157, 36, 41); fill-opacity:1.000; stroke:none;" />
 <path d="  M 28,32  L 28,33  L 36,33  L 36,32  Z  " style="fill:rgb(157, 36, 41); fill-opacity:1.000; stroke:none;" />
 <path d="  M 37,31  L 36,31  L 36,32  L 37,32  Z  " style="fill:rgb(157, 36, 41); fill-opacity:1.000; stroke:none;" />
 <path d="  M 38,30  L 37,30  L 37,31  L 38,31  Z  " style="fill:rgb(157, 36, 41); fill-opacity:1.000; stroke:none;" />
 <path d="  M 39,30  L 39,29  L 38,29  L 38,30  Z  " style="fill:rgb(157, 36, 41); fill-opacity:1.000; stroke:none;" />
 <path d="  M 40,28  L 39,28  L 39,29  L 40,29  Z  " style="fill:rgb(157, 36, 41); fill-opacity:1.000; stroke:none;" />
 <path d="  M 41,27  L 40,27  L 40,28  L 41,28  Z  " style="fill:rgb(157, 36, 41); fill-opacity:1.000; stroke:none;" />
 <path d="  M 42,27  L 42,26  L 41,26  L 41,27  Z  " style="fill:rgb(157, 36, 41); fill-opacity:1.000; stroke:none;" />
 <path d="  M 43,25  L 42,25  L 42,26  L 43,26  Z  " style="fill:rgb(157, 36, 41); fill-opacity:1.000; stroke:none;" />
 <path d="  M 43,25  L 44,25  L 44,24  L 43,24  Z  " style="fill:rgb(157, 36, 41); fill-opacity:1.000; stroke:none;" />
 <path d="  M 44,24  L 45,24  L 45,16  L 44,16  Z  " style="fill:rgb(157, 36, 41); fill-opacity:1.000; stroke:none;" />
 <path d="  M 20,16  L 20,24  L 21,24  L 21,25  L 22,25  L 22,26  L 23,26  L 23,27  L 24,27  L 24,28  L 25,28  L 25,29  L 26,29  L 26,30  L 27,30  L 27,31  L 28,31  L 28,32  L 36,32  L 36,31  L 37,31  L 37,30  L 38,30  L 38,29  L 39,29  L 39,28  L 40,28  L 40,27  L 41,27  L 41,26  L 42,26  L 42,25  L 43,25  L 43,24  L 44,24  L 44,16  Z  " style="fill:rgb(162, 41, 41); fill-opacity:1.000; stroke:none;" />
</svg>
