<?xml version="1.0" encoding="UTF-8" standalone="no"?>
<!DOCTYPE svg PUBLIC "-//W3C//DTD SVG 1.1//EN" 
  "http://www.w3.org/Graphics/SVG/1.1/DTD/svg11.dtd">
<svg width="64" height="64"
	 xmlns="http://www.w3.org/2000/svg" version="1.1">
 <path d="  M 63,13  L 63,12  L 0,12  L 0,13  Z  " style="fill:rgb(66, 115, 103); fill-opacity:1.000; stroke:none;" />
 <path d="  M 37,34  L 37,35  L 52,35  L 52,34  Z  " style="fill:rgb(66, 115, 103); fill-opacity:1.000; stroke:none;" />
 <path d="  M 54,33  L 52,33  L 52,34  L 54,34  Z  " style="fill:rgb(66, 115, 103); fill-opacity:1.000; stroke:none;" />
 <path d="  M 54,32  L 54,33  L 55,33  L 55,32  Z  " style="fill:rgb(66, 115, 103); fill-opacity:1.000; stroke:none;" />
 <path d="  M 55,32  L 56,32  L 56,31  L 55,31  Z  " style="fill:rgb(66, 115, 103); fill-opacity:1.000; stroke:none;" />
 <path d="  M 57,30  L 56,30  L 56,31  L 57,31  Z  " style="fill:rgb(66, 115, 103); fill-opacity:1.000; stroke:none;" />
 <path d="  M 58,28  L 57,28  L 57,30  L 58,30  Z  " style="fill:rgb(66, 115, 103); fill-opacity:1.000; stroke:none;" />
 <path d="  M 62,18  L 61,18  L 61,19  L 62,19  L 62,20  L 63,20  L 63,13  L 0,13  L 0,24  L 1,24  L 1,14  L 2,14  L 2,15  L 3,15  L 3,14  L 6,14  L 6,15  L 5,15  L 5,16  L 7,16  L 7,15  L 10,15  L 10,14  L 54,14  L 54,15  L 57,15  L 57,16  L 59,16  L 59,15  L 58,15  L 58,14  L 61,14  L 61,15  L 62,15  Z  " style="fill:rgb(47, 88, 78); fill-opacity:1.000; stroke:none;" />
 <path d="  M 3,19  L 3,18  L 2,18  L 2,19  Z  " style="fill:rgb(47, 88, 78); fill-opacity:1.000; stroke:none;" />
 <path d="  M 4,17  L 3,17  L 3,18  L 4,18  Z  " style="fill:rgb(47, 88, 78); fill-opacity:1.000; stroke:none;" />
 <path d="  M 4,16  L 4,17  L 5,17  L 5,16  Z  " style="fill:rgb(47, 88, 78); fill-opacity:1.000; stroke:none;" />
 <path d="  M 14,34  L 14,35  L 37,35  L 37,34  Z  " style="fill:rgb(47, 88, 78); fill-opacity:1.000; stroke:none;" />
 <path d="  M 52,36  L 52,35  L 40,35  L 40,36  Z  " style="fill:rgb(47, 88, 78); fill-opacity:1.000; stroke:none;" />
 <path d="  M 52,34  L 52,35  L 54,35  L 54,34  Z  " style="fill:rgb(47, 88, 78); fill-opacity:1.000; stroke:none;" />
 <path d="  M 54,34  L 55,34  L 55,33  L 54,33  Z  " style="fill:rgb(47, 88, 78); fill-opacity:1.000; stroke:none;" />
 <path d="  M 55,32  L 55,33  L 56,33  L 56,32  Z  " style="fill:rgb(47, 88, 78); fill-opacity:1.000; stroke:none;" />
 <path d="  M 57,31  L 56,31  L 56,32  L 57,32  Z  " style="fill:rgb(47, 88, 78); fill-opacity:1.000; stroke:none;" />
 <path d="  M 57,22  L 57,24  L 58,24  L 58,22  Z  " style="fill:rgb(47, 88, 78); fill-opacity:1.000; stroke:none;" />
 <path d="  M 58,30  L 57,30  L 57,31  L 58,31  Z  " style="fill:rgb(47, 88, 78); fill-opacity:1.000; stroke:none;" />
 <path d="  M 59,24  L 58,24  L 58,30  L 59,30  Z  " style="fill:rgb(47, 88, 78); fill-opacity:1.000; stroke:none;" />
 <path d="  M 60,16  L 59,16  L 59,17  L 60,17  Z  " style="fill:rgb(47, 88, 78); fill-opacity:1.000; stroke:none;" />
 <path d="  M 61,17  L 60,17  L 60,18  L 61,18  Z  " style="fill:rgb(47, 88, 78); fill-opacity:1.000; stroke:none;" />
 <path d="  M 63,13  L 64,13  L 64,12  L 63,12  Z  " style="fill:rgb(47, 88, 78); fill-opacity:1.000; stroke:none;" />
 <path d="  M 0,29  L 1,29  L 1,24  L 0,24  Z  " style="fill:rgb(24, 53, 62); fill-opacity:1.000; stroke:none;" />
 <path d="  M 2,24  L 2,21  L 1,21  L 1,24  Z  " style="fill:rgb(24, 53, 62); fill-opacity:1.000; stroke:none;" />
 <path d="  M 2,32  L 2,29  L 1,29  L 1,32  Z  " style="fill:rgb(24, 53, 62); fill-opacity:1.000; stroke:none;" />
 <path d="  M 3,19  L 2,19  L 2,21  L 3,21  Z  " style="fill:rgb(24, 53, 62); fill-opacity:1.000; stroke:none;" />
 <path d="  M 3,32  L 2,32  L 2,34  L 3,34  Z  " style="fill:rgb(24, 53, 62); fill-opacity:1.000; stroke:none;" />
 <path d="  M 3,19  L 4,19  L 4,18  L 3,18  Z  " style="fill:rgb(24, 53, 62); fill-opacity:1.000; stroke:none;" />
 <path d="  M 3,34  L 3,35  L 4,35  L 4,34  Z  " style="fill:rgb(24, 53, 62); fill-opacity:1.000; stroke:none;" />
 <path d="  M 4,18  L 5,18  L 5,17  L 4,17  Z  " style="fill:rgb(24, 53, 62); fill-opacity:1.000; stroke:none;" />
 <path d="  M 4,36  L 5,36  L 5,35  L 4,35  Z  " style="fill:rgb(24, 53, 62); fill-opacity:1.000; stroke:none;" />
 <path d="  M 5,16  L 5,17  L 7,17  L 7,16  Z  " style="fill:rgb(24, 53, 62); fill-opacity:1.000; stroke:none;" />
 <path d="  M 6,36  L 5,36  L 5,37  L 6,37  Z  " style="fill:rgb(24, 53, 62); fill-opacity:1.000; stroke:none;" />
 <path d="  M 7,28  L 6,28  L 6,30  L 7,30  Z  " style="fill:rgb(24, 53, 62); fill-opacity:1.000; stroke:none;" />
 <path d="  M 7,38  L 7,37  L 6,37  L 6,38  Z  " style="fill:rgb(24, 53, 62); fill-opacity:1.000; stroke:none;" />
 <path d="  M 10,16  L 10,15  L 7,15  L 7,16  Z  " style="fill:rgb(24, 53, 62); fill-opacity:1.000; stroke:none;" />
 <path d="  M 7,30  L 7,31  L 8,31  L 8,30  Z  " style="fill:rgb(24, 53, 62); fill-opacity:1.000; stroke:none;" />
 <path d="  M 8,32  L 9,32  L 9,31  L 8,31  Z  " style="fill:rgb(24, 53, 62); fill-opacity:1.000; stroke:none;" />
 <path d="  M 10,32  L 9,32  L 9,33  L 10,33  Z  " style="fill:rgb(24, 53, 62); fill-opacity:1.000; stroke:none;" />
 <path d="  M 54,15  L 54,14  L 10,14  L 10,15  Z  " style="fill:rgb(24, 53, 62); fill-opacity:1.000; stroke:none;" />
 <path d="  M 12,34  L 12,33  L 10,33  L 10,34  Z  " style="fill:rgb(24, 53, 62); fill-opacity:1.000; stroke:none;" />
 <path d="  M 57,16  L 57,15  L 54,15  L 54,16  Z  " style="fill:rgb(24, 53, 62); fill-opacity:1.000; stroke:none;" />
 <path d="  M 57,17  L 59,17  L 59,16  L 57,16  Z  " style="fill:rgb(24, 53, 62); fill-opacity:1.000; stroke:none;" />
 <path d="  M 58,37  L 59,37  L 59,36  L 58,36  Z  " style="fill:rgb(24, 53, 62); fill-opacity:1.000; stroke:none;" />
 <path d="  M 60,17  L 59,17  L 59,18  L 60,18  Z  " style="fill:rgb(24, 53, 62); fill-opacity:1.000; stroke:none;" />
 <path d="  M 59,36  L 60,36  L 60,35  L 59,35  Z  " style="fill:rgb(24, 53, 62); fill-opacity:1.000; stroke:none;" />
 <path d="  M 60,18  L 60,19  L 61,19  L 61,18  Z  " style="fill:rgb(24, 53, 62); fill-opacity:1.000; stroke:none;" />
 <path d="  M 60,34  L 60,35  L 61,35  L 61,34  Z  " style="fill:rgb(24, 53, 62); fill-opacity:1.000; stroke:none;" />
 <path d="  M 62,19  L 61,19  L 61,21  L 62,21  Z  " style="fill:rgb(24, 53, 62); fill-opacity:1.000; stroke:none;" />
 <path d="  M 61,32  L 61,34  L 62,34  L 62,32  Z  " style="fill:rgb(24, 53, 62); fill-opacity:1.000; stroke:none;" />
 <path d="  M 63,21  L 62,21  L 62,24  L 63,24  Z  " style="fill:rgb(24, 53, 62); fill-opacity:1.000; stroke:none;" />
 <path d="  M 63,29  L 62,29  L 62,32  L 63,32  Z  " style="fill:rgb(24, 53, 62); fill-opacity:1.000; stroke:none;" />
 <path d="  M 63,29  L 64,29  L 64,24  L 63,24  Z  " style="fill:rgb(24, 53, 62); fill-opacity:1.000; stroke:none;" />
 <path d="  M 1,29  L 0,29  L 0,31  L 1,31  Z  " style="fill:rgb(184, 168, 118); fill-opacity:1.000; stroke:none;" />
 <path d="  M 2,32  L 1,32  L 1,34  L 2,34  Z  " style="fill:rgb(184, 168, 118); fill-opacity:1.000; stroke:none;" />
 <path d="  M 3,34  L 2,34  L 2,35  L 3,35  Z  " style="fill:rgb(184, 168, 118); fill-opacity:1.000; stroke:none;" />
 <path d="  M 4,36  L 4,35  L 3,35  L 3,36  Z  " style="fill:rgb(184, 168, 118); fill-opacity:1.000; stroke:none;" />
 <path d="  M 7,24  L 6,24  L 6,28  L 7,28  Z  " style="fill:rgb(184, 168, 118); fill-opacity:1.000; stroke:none;" />
 <path d="  M 7,22  L 7,24  L 8,24  L 8,22  Z  " style="fill:rgb(184, 168, 118); fill-opacity:1.000; stroke:none;" />
 <path d="  M 7,28  L 7,30  L 8,30  L 8,28  Z  " style="fill:rgb(184, 168, 118); fill-opacity:1.000; stroke:none;" />
 <path d="  M 8,22  L 9,22  L 9,21  L 8,21  Z  " style="fill:rgb(184, 168, 118); fill-opacity:1.000; stroke:none;" />
 <path d="  M 9,30  L 8,30  L 8,31  L 9,31  Z  " style="fill:rgb(184, 168, 118); fill-opacity:1.000; stroke:none;" />
 <path d="  M 10,21  L 10,20  L 9,20  L 9,21  Z  " style="fill:rgb(184, 168, 118); fill-opacity:1.000; stroke:none;" />
 <path d="  M 9,32  L 10,32  L 10,31  L 9,31  Z  " style="fill:rgb(184, 168, 118); fill-opacity:1.000; stroke:none;" />
 <path d="  M 10,32  L 10,33  L 12,33  L 12,32  Z  " style="fill:rgb(184, 168, 118); fill-opacity:1.000; stroke:none;" />
 <path d="  M 12,33  L 12,34  L 13,34  L 13,33  Z  " style="fill:rgb(184, 168, 118); fill-opacity:1.000; stroke:none;" />
 <path d="  M 46,19  L 46,18  L 18,18  L 18,19  Z  " style="fill:rgb(184, 168, 118); fill-opacity:1.000; stroke:none;" />
 <path d="  M 20,40  L 20,41  L 44,41  L 44,40  Z  " style="fill:rgb(184, 168, 118); fill-opacity:1.000; stroke:none;" />
 <path d="  M 55,21  L 55,20  L 54,20  L 54,21  Z  " style="fill:rgb(184, 168, 118); fill-opacity:1.000; stroke:none;" />
 <path d="  M 55,21  L 55,22  L 56,22  L 56,21  Z  " style="fill:rgb(184, 168, 118); fill-opacity:1.000; stroke:none;" />
 <path d="  M 56,24  L 57,24  L 57,22  L 56,22  Z  " style="fill:rgb(184, 168, 118); fill-opacity:1.000; stroke:none;" />
 <path d="  M 56,30  L 57,30  L 57,28  L 56,28  Z  " style="fill:rgb(184, 168, 118); fill-opacity:1.000; stroke:none;" />
 <path d="  M 57,24  L 57,28  L 58,28  L 58,24  Z  " style="fill:rgb(184, 168, 118); fill-opacity:1.000; stroke:none;" />
 <path d="  M 61,35  L 60,35  L 60,36  L 61,36  Z  " style="fill:rgb(184, 168, 118); fill-opacity:1.000; stroke:none;" />
 <path d="  M 61,35  L 62,35  L 62,34  L 61,34  Z  " style="fill:rgb(184, 168, 118); fill-opacity:1.000; stroke:none;" />
 <path d="  M 63,32  L 62,32  L 62,34  L 63,34  Z  " style="fill:rgb(184, 168, 118); fill-opacity:1.000; stroke:none;" />
 <path d="  M 64,31  L 64,29  L 63,29  L 63,31  Z  " style="fill:rgb(184, 168, 118); fill-opacity:1.000; stroke:none;" />
 <path d="  M 0,32  L 1,32  L 1,31  L 0,31  Z  " style="fill:rgb(222, 230, 164); fill-opacity:1.000; stroke:none;" />
 <path d="  M 1,44  L 1,43  L 0,43  L 0,44  Z  " style="fill:rgb(222, 230, 164); fill-opacity:1.000; stroke:none;" />
 <path d="  M 1,49  L 0,49  L 0,50  L 1,50  Z  " style="fill:rgb(222, 230, 164); fill-opacity:1.000; stroke:none;" />
 <path d="  M 0,55  L 1,55  L 1,56  L 3,56  L 3,57  L 4,57  L 4,58  L 5,58  L 5,57  L 6,57  L 6,56  L 7,56  L 7,55  L 9,55  L 9,54  L 11,54  L 11,53  L 13,53  L 13,52  L 14,52  L 14,53  L 15,53  L 15,51  L 16,51  L 16,49  L 15,49  L 15,48  L 14,48  L 14,49  L 13,49  L 13,48  L 12,48  L 12,49  L 11,49  L 11,50  L 10,50  L 10,49  L 9,49  L 9,50  L 8,50  L 8,51  L 6,51  L 6,52  L 4,52  L 4,53  L 2,53  L 2,52  L 1,52  L 1,51  L 0,51  Z  M 14,50  L 15,50  L 15,51  L 14,51  Z  " style="fill:rgb(222, 230, 164); fill-opacity:1.000; stroke:none;" />
 <path d="  M 3,41  L 2,41  L 2,42  L 3,42  Z  " style="fill:rgb(222, 230, 164); fill-opacity:1.000; stroke:none;" />
 <path d="  M 4,41  L 4,40  L 3,40  L 3,41  Z  " style="fill:rgb(222, 230, 164); fill-opacity:1.000; stroke:none;" />
 <path d="  M 6,51  L 6,50  L 5,50  L 5,51  Z  " style="fill:rgb(222, 230, 164); fill-opacity:1.000; stroke:none;" />
 <path d="  M 7,59  L 7,58  L 5,58  L 5,59  L 6,59  L 6,60  L 8,60  L 8,61  L 9,61  L 9,62  L 10,62  L 10,63  L 11,63  L 11,62  L 12,62  L 12,60  L 11,60  L 11,61  L 10,61  L 10,60  L 9,60  L 9,59  Z  " style="fill:rgb(222, 230, 164); fill-opacity:1.000; stroke:none;" />
 <path d="  M 7,49  L 6,49  L 6,50  L 7,50  Z  " style="fill:rgb(222, 230, 164); fill-opacity:1.000; stroke:none;" />
 <path d="  M 8,26  L 7,26  L 7,27  L 8,27  Z  " style="fill:rgb(222, 230, 164); fill-opacity:1.000; stroke:none;" />
 <path d="  M 8,58  L 8,57  L 7,57  L 7,58  Z  " style="fill:rgb(222, 230, 164); fill-opacity:1.000; stroke:none;" />
 <path d="  M 8,26  L 9,26  L 9,25  L 10,25  L 10,24  L 11,24  L 11,23  L 10,23  L 10,22  L 9,22  L 9,23  L 8,23  Z  " style="fill:rgb(222, 230, 164); fill-opacity:1.000; stroke:none;" />
 <path d="  M 9,27  L 9,28  L 8,28  L 8,29  L 10,29  L 10,28  L 11,28  L 11,27  Z  " style="fill:rgb(222, 230, 164); fill-opacity:1.000; stroke:none;" />
 <path d="  M 8,41  L 9,41  L 9,40  L 8,40  Z  " style="fill:rgb(222, 230, 164); fill-opacity:1.000; stroke:none;" />
 <path d="  M 11,22  L 11,21  L 10,21  L 10,22  Z  " style="fill:rgb(222, 230, 164); fill-opacity:1.000; stroke:none;" />
 <path d="  M 10,41  L 10,42  L 11,42  L 11,43  L 13,43  L 13,42  L 12,42  L 12,41  Z  " style="fill:rgb(222, 230, 164); fill-opacity:1.000; stroke:none;" />
 <path d="  M 10,49  L 11,49  L 11,48  L 10,48  Z  " style="fill:rgb(222, 230, 164); fill-opacity:1.000; stroke:none;" />
 <path d="  M 12,48  L 12,47  L 11,47  L 11,48  Z  " style="fill:rgb(222, 230, 164); fill-opacity:1.000; stroke:none;" />
 <path d="  M 11,56  L 11,57  L 12,57  L 12,56  Z  " style="fill:rgb(222, 230, 164); fill-opacity:1.000; stroke:none;" />
 <path d="  M 11,63  L 11,64  L 12,64  L 12,63  Z  " style="fill:rgb(222, 230, 164); fill-opacity:1.000; stroke:none;" />
 <path d="  M 13,25  L 12,25  L 12,27  L 13,27  L 13,26  L 14,26  L 14,25  L 16,25  L 16,24  L 19,24  L 19,25  L 20,25  L 20,24  L 21,24  L 21,25  L 23,25  L 23,26  L 24,26  L 24,28  L 25,28  L 25,33  L 24,33  L 24,34  L 27,34  L 27,33  L 28,33  L 28,32  L 30,32  L 30,31  L 28,31  L 28,29  L 29,29  L 29,27  L 28,27  L 28,26  L 27,26  L 27,27  L 26,27  L 26,26  L 25,26  L 25,25  L 24,25  L 24,24  L 23,24  L 23,23  L 22,23  L 22,22  L 17,22  L 17,21  L 15,21  L 15,22  L 16,22  L 16,23  L 14,23  L 14,24  L 13,24  Z  M 27,29  L 27,28  L 28,28  L 28,29  Z  " style="fill:rgb(222, 230, 164); fill-opacity:1.000; stroke:none;" />
 <path d="  M 12,57  L 12,58  L 13,58  L 13,59  L 15,59  L 15,58  L 14,58  L 14,56  L 13,56  L 13,57  Z  " style="fill:rgb(222, 230, 164); fill-opacity:1.000; stroke:none;" />
 <path d="  M 12,63  L 13,63  L 13,62  L 12,62  Z  " style="fill:rgb(222, 230, 164); fill-opacity:1.000; stroke:none;" />
 <path d="  M 17,42  L 18,42  L 18,43  L 17,43  Z  M 23,42  L 23,41  L 20,41  L 20,42  L 18,42  L 18,41  L 13,41  L 13,42  L 15,42  L 15,43  L 16,43  L 16,44  L 20,44  L 20,43  L 21,43  L 21,42  Z  " style="fill:rgb(222, 230, 164); fill-opacity:1.000; stroke:none;" />
 <path d="  M 14,43  L 13,43  L 13,44  L 14,44  Z  " style="fill:rgb(222, 230, 164); fill-opacity:1.000; stroke:none;" />
 <path d="  M 13,54  L 14,54  L 14,53  L 13,53  Z  " style="fill:rgb(222, 230, 164); fill-opacity:1.000; stroke:none;" />
 <path d="  M 15,45  L 15,44  L 14,44  L 14,45  Z  " style="fill:rgb(222, 230, 164); fill-opacity:1.000; stroke:none;" />
 <path d="  M 16,51  L 16,52  L 17,52  L 17,51  Z  " style="fill:rgb(222, 230, 164); fill-opacity:1.000; stroke:none;" />
 <path d="  M 17,56  L 16,56  L 16,57  L 17,57  Z  " style="fill:rgb(222, 230, 164); fill-opacity:1.000; stroke:none;" />
 <path d="  M 17,20  L 17,21  L 18,21  L 18,20  Z  " style="fill:rgb(222, 230, 164); fill-opacity:1.000; stroke:none;" />
 <path d="  M 17,59  L 18,59  L 18,60  L 17,60  L 17,63  L 18,63  L 18,64  L 20,64  L 20,62  L 19,62  L 19,58  L 18,58  L 18,57  L 17,57  Z  " style="fill:rgb(222, 230, 164); fill-opacity:1.000; stroke:none;" />
 <path d="  M 18,50  L 19,50  L 19,49  L 18,49  Z  " style="fill:rgb(222, 230, 164); fill-opacity:1.000; stroke:none;" />
 <path d="  M 19,58  L 20,58  L 20,53  L 19,53  L 19,56  L 18,56  L 18,57  L 19,57  Z  " style="fill:rgb(222, 230, 164); fill-opacity:1.000; stroke:none;" />
 <path d="  M 19,27  L 20,27  L 20,26  L 19,26  Z  " style="fill:rgb(222, 230, 164); fill-opacity:1.000; stroke:none;" />
 <path d="  M 19,48  L 19,49  L 21,49  L 21,48  L 22,48  L 22,47  L 20,47  L 20,48  Z  " style="fill:rgb(222, 230, 164); fill-opacity:1.000; stroke:none;" />
 <path d="  M 21,25  L 20,25  L 20,26  L 21,26  Z  " style="fill:rgb(222, 230, 164); fill-opacity:1.000; stroke:none;" />
 <path d="  M 20,51  L 20,53  L 21,53  L 21,51  Z  " style="fill:rgb(222, 230, 164); fill-opacity:1.000; stroke:none;" />
 <path d="  M 21,21  L 23,21  L 23,20  L 21,20  Z  " style="fill:rgb(222, 230, 164); fill-opacity:1.000; stroke:none;" />
 <path d="  M 22,27  L 22,26  L 21,26  L 21,27  Z  " style="fill:rgb(222, 230, 164); fill-opacity:1.000; stroke:none;" />
 <path d="  M 23,47  L 23,48  L 22,48  L 22,49  L 21,49  L 21,51  L 22,51  L 22,50  L 23,50  L 23,49  L 24,49  L 24,48  L 25,48  L 25,47  Z  " style="fill:rgb(222, 230, 164); fill-opacity:1.000; stroke:none;" />
 <path d="  M 24,21  L 23,21  L 23,22  L 24,22  Z  " style="fill:rgb(222, 230, 164); fill-opacity:1.000; stroke:none;" />
 <path d="  M 25,23  L 25,22  L 24,22  L 24,23  Z  " style="fill:rgb(222, 230, 164); fill-opacity:1.000; stroke:none;" />
 <path d="  M 24,62  L 24,63  L 25,63  L 25,62  Z  " style="fill:rgb(222, 230, 164); fill-opacity:1.000; stroke:none;" />
 <path d="  M 26,43  L 26,42  L 25,42  L 25,43  Z  " style="fill:rgb(222, 230, 164); fill-opacity:1.000; stroke:none;" />
 <path d="  M 28,47  L 28,46  L 25,46  L 25,47  Z  " style="fill:rgb(222, 230, 164); fill-opacity:1.000; stroke:none;" />
 <path d="  M 25,62  L 26,62  L 26,61  L 25,61  Z  " style="fill:rgb(222, 230, 164); fill-opacity:1.000; stroke:none;" />
 <path d="  M 26,64  L 26,63  L 25,63  L 25,64  Z  " style="fill:rgb(222, 230, 164); fill-opacity:1.000; stroke:none;" />
 <path d="  M 29,24  L 29,23  L 31,23  L 31,22  L 32,22  L 32,21  L 33,21  L 33,20  L 30,20  L 30,21  L 29,21  L 29,22  L 28,22  L 28,23  L 26,23  L 26,24  Z  " style="fill:rgb(222, 230, 164); fill-opacity:1.000; stroke:none;" />
 <path d="  M 31,49  L 31,48  L 32,48  L 32,46  L 34,46  L 34,45  L 35,45  L 35,44  L 37,44  L 37,43  L 38,43  L 38,42  L 36,42  L 36,43  L 35,43  L 35,42  L 34,42  L 34,43  L 31,43  L 31,42  L 29,42  L 29,41  L 27,41  L 27,43  L 26,43  L 26,45  L 27,45  L 27,44  L 28,44  L 28,46  L 29,46  L 29,47  L 28,47  L 28,48  L 30,48  L 30,50  L 31,50  L 31,51  L 32,51  L 32,49  Z  M 30,45  L 31,45  L 31,44  L 33,44  L 33,45  L 32,45  L 32,46  L 30,46  Z  M 30,44  L 30,45  L 29,45  L 29,44  Z  " style="fill:rgb(222, 230, 164); fill-opacity:1.000; stroke:none;" />
 <path d="  M 27,22  L 28,22  L 28,21  L 27,21  Z  " style="fill:rgb(222, 230, 164); fill-opacity:1.000; stroke:none;" />
 <path d="  M 27,63  L 27,64  L 28,64  L 28,63  Z  " style="fill:rgb(222, 230, 164); fill-opacity:1.000; stroke:none;" />
 <path d="  M 29,21  L 29,20  L 28,20  L 28,21  Z  " style="fill:rgb(222, 230, 164); fill-opacity:1.000; stroke:none;" />
 <path d="  M 46,45  L 46,46  L 47,46  L 47,47  L 48,47  L 48,48  L 49,48  L 49,49  L 47,49  L 47,51  L 46,51  L 46,53  L 45,53  L 45,54  L 44,54  L 44,55  L 42,55  L 42,56  L 41,56  L 41,55  L 40,55  L 40,56  L 38,56  L 38,55  L 37,55  L 37,51  L 36,51  L 36,54  L 35,54  L 35,53  L 34,53  L 34,55  L 35,55  L 35,58  L 34,58  L 34,59  L 33,59  L 33,60  L 32,60  L 32,61  L 31,61  L 31,62  L 30,62  L 30,63  L 29,63  L 29,64  L 34,64  L 34,63  L 36,63  L 36,62  L 38,62  L 38,61  L 37,61  L 37,60  L 38,60  L 38,59  L 40,59  L 40,60  L 44,60  L 44,61  L 45,61  L 45,62  L 47,62  L 47,63  L 48,63  L 48,64  L 49,64  L 49,63  L 51,63  L 51,62  L 52,62  L 52,61  L 54,61  L 54,62  L 55,62  L 55,63  L 56,63  L 56,64  L 58,64  L 58,63  L 57,63  L 57,62  L 56,62  L 56,61  L 55,61  L 55,59  L 56,59  L 56,58  L 58,58  L 58,57  L 60,57  L 60,56  L 62,56  L 62,55  L 64,55  L 64,53  L 62,53  L 62,54  L 61,54  L 61,55  L 58,55  L 58,56  L 57,56  L 57,55  L 56,55  L 56,56  L 55,56  L 55,57  L 54,57  L 54,58  L 53,58  L 53,59  L 52,59  L 52,60  L 50,60  L 50,59  L 49,59  L 49,58  L 46,58  L 46,59  L 44,59  L 44,58  L 45,58  L 45,56  L 46,56  L 46,54  L 47,54  L 47,53  L 48,53  L 48,55  L 47,55  L 47,56  L 49,56  L 49,55  L 52,55  L 52,54  L 54,54  L 54,53  L 58,53  L 58,52  L 60,52  L 60,53  L 61,53  L 61,52  L 63,52  L 63,51  L 64,51  L 64,50  L 62,50  L 62,49  L 61,49  L 61,48  L 62,48  L 62,47  L 63,47  L 63,46  L 64,46  L 64,45  L 63,45  L 63,44  L 61,44  L 61,45  L 59,45  L 59,46  L 58,46  L 58,47  L 56,47  L 56,46  L 57,46  L 57,45  L 58,45  L 58,43  L 60,43  L 60,42  L 61,42  L 61,41  L 63,41  L 63,40  L 64,40  L 64,36  L 63,36  L 63,37  L 61,37  L 61,38  L 60,38  L 60,37  L 59,37  L 59,39  L 58,39  L 58,41  L 57,41  L 57,42  L 55,42  L 55,43  L 54,43  L 54,44  L 52,44  L 52,45  L 51,45  L 51,46  L 48,46  L 48,45  L 50,45  L 50,44  L 49,44  L 49,43  L 48,43  L 48,44  L 47,44  L 47,43  L 46,43  L 46,42  L 45,42  L 45,41  L 41,41  L 41,42  L 40,42  L 40,43  L 39,43  L 39,44  L 40,44  L 40,45  L 41,45  L 41,44  L 44,44  L 44,45  Z  M 59,50  L 59,48  L 60,48  L 60,50  Z  M 53,46  L 53,47  L 52,47  L 52,46  Z  M 35,62  L 35,61  L 36,61  L 36,62  Z  M 51,48  L 52,48  L 52,49  L 53,49  L 53,50  L 55,50  L 55,49  L 57,49  L 57,48  L 58,48  L 58,50  L 57,50  L 57,51  L 55,51  L 55,52  L 53,52  L 53,53  L 50,53  L 50,54  L 49,54  L 49,52  L 48,52  L 48,51  L 50,51  L 50,50  L 51,50  Z  M 41,59  L 40,59  L 40,58  L 41,58  Z  M 49,49  L 50,49  L 50,50  L 49,50  Z  M 61,38  L 62,38  L 62,39  L 61,39  Z  M 61,47  L 61,48  L 60,48  L 60,47  Z  M 44,43  L 44,42  L 45,42  L 45,43  Z  M 51,47  L 51,48  L 50,48  L 50,47  Z  M 45,60  L 46,60  L 46,61  L 45,61  Z  M 55,48  L 55,47  L 56,47  L 56,48  Z  " style="fill:rgb(222, 230, 164); fill-opacity:1.000; stroke:none;" />
 <path d="  M 31,31  L 31,30  L 30,30  L 30,31  Z  " style="fill:rgb(222, 230, 164); fill-opacity:1.000; stroke:none;" />
 <path d="  M 31,29  L 32,29  L 32,28  L 31,28  Z  " style="fill:rgb(222, 230, 164); fill-opacity:1.000; stroke:none;" />
 <path d="  M 32,30  L 35,30  L 35,31  L 37,31  L 37,32  L 38,32  L 38,33  L 39,33  L 39,34  L 43,34  L 43,33  L 42,33  L 42,32  L 40,32  L 40,31  L 39,31  L 39,29  L 38,29  L 38,28  L 36,28  L 36,29  L 32,29  Z  M 37,29  L 38,29  L 38,30  L 37,30  Z  " style="fill:rgb(222, 230, 164); fill-opacity:1.000; stroke:none;" />
 <path d="  M 32,51  L 32,52  L 33,52  L 33,51  Z  " style="fill:rgb(222, 230, 164); fill-opacity:1.000; stroke:none;" />
 <path d="  M 34,52  L 33,52  L 33,53  L 34,53  Z  " style="fill:rgb(222, 230, 164); fill-opacity:1.000; stroke:none;" />
 <path d="  M 33,55  L 33,56  L 34,56  L 34,55  Z  " style="fill:rgb(222, 230, 164); fill-opacity:1.000; stroke:none;" />
 <path d="  M 35,20  L 35,22  L 36,22  L 36,21  L 37,21  L 37,20  Z  " style="fill:rgb(222, 230, 164); fill-opacity:1.000; stroke:none;" />
 <path d="  M 36,24  L 36,23  L 35,23  L 35,24  Z  " style="fill:rgb(222, 230, 164); fill-opacity:1.000; stroke:none;" />
 <path d="  M 35,41  L 35,42  L 36,42  L 36,41  Z  " style="fill:rgb(222, 230, 164); fill-opacity:1.000; stroke:none;" />
 <path d="  M 35,50  L 36,50  L 36,49  L 35,49  Z  " style="fill:rgb(222, 230, 164); fill-opacity:1.000; stroke:none;" />
 <path d="  M 36,22  L 36,23  L 38,23  L 38,21  L 37,21  L 37,22  Z  " style="fill:rgb(222, 230, 164); fill-opacity:1.000; stroke:none;" />
 <path d="  M 36,25  L 37,25  L 37,24  L 36,24  Z  " style="fill:rgb(222, 230, 164); fill-opacity:1.000; stroke:none;" />
 <path d="  M 37,49  L 37,51  L 38,51  L 38,48  L 37,48  L 37,47  L 36,47  L 36,49  Z  " style="fill:rgb(222, 230, 164); fill-opacity:1.000; stroke:none;" />
 <path d="  M 39,23  L 38,23  L 38,24  L 39,24  Z  " style="fill:rgb(222, 230, 164); fill-opacity:1.000; stroke:none;" />
 <path d="  M 38,42  L 39,42  L 39,41  L 38,41  Z  " style="fill:rgb(222, 230, 164); fill-opacity:1.000; stroke:none;" />
 <path d="  M 39,44  L 38,44  L 38,45  L 39,45  Z  " style="fill:rgb(222, 230, 164); fill-opacity:1.000; stroke:none;" />
 <path d="  M 39,48  L 39,47  L 38,47  L 38,48  Z  " style="fill:rgb(222, 230, 164); fill-opacity:1.000; stroke:none;" />
 <path d="  M 39,60  L 38,60  L 38,61  L 39,61  Z  " style="fill:rgb(222, 230, 164); fill-opacity:1.000; stroke:none;" />
 <path d="  M 40,47  L 40,45  L 39,45  L 39,47  Z  " style="fill:rgb(222, 230, 164); fill-opacity:1.000; stroke:none;" />
 <path d="  M 40,24  L 40,25  L 41,25  L 41,24  Z  " style="fill:rgb(222, 230, 164); fill-opacity:1.000; stroke:none;" />
 <path d="  M 43,28  L 43,29  L 42,29  L 42,31  L 43,31  L 43,30  L 44,30  L 44,31  L 45,31  L 45,30  L 46,30  L 46,29  L 47,29  L 47,28  L 48,28  L 48,27  L 49,27  L 49,25  L 50,25  L 50,24  L 51,24  L 51,21  L 52,21  L 52,20  L 49,20  L 49,22  L 48,22  L 48,23  L 47,23  L 47,24  L 46,24  L 46,23  L 45,23  L 45,24  L 44,24  L 44,25  L 41,25  L 41,27  L 42,27  L 42,28  Z  M 44,29  L 44,27  L 45,27  L 45,26  L 46,26  L 46,28  L 45,28  L 45,29  Z  M 44,26  L 44,27  L 43,27  L 43,26  Z  " style="fill:rgb(222, 230, 164); fill-opacity:1.000; stroke:none;" />
 <path d="  M 42,28  L 41,28  L 41,29  L 42,29  Z  " style="fill:rgb(222, 230, 164); fill-opacity:1.000; stroke:none;" />
 <path d="  M 42,55  L 42,54  L 41,54  L 41,55  Z  " style="fill:rgb(222, 230, 164); fill-opacity:1.000; stroke:none;" />
 <path d="  M 44,51  L 44,52  L 45,52  L 45,51  Z  " style="fill:rgb(222, 230, 164); fill-opacity:1.000; stroke:none;" />
 <path d="  M 46,50  L 45,50  L 45,51  L 46,51  Z  " style="fill:rgb(222, 230, 164); fill-opacity:1.000; stroke:none;" />
 <path d="  M 46,57  L 47,57  L 47,56  L 46,56  Z  " style="fill:rgb(222, 230, 164); fill-opacity:1.000; stroke:none;" />
 <path d="  M 46,64  L 47,64  L 47,63  L 46,63  Z  " style="fill:rgb(222, 230, 164); fill-opacity:1.000; stroke:none;" />
 <path d="  M 47,21  L 47,22  L 48,22  L 48,21  Z  " style="fill:rgb(222, 230, 164); fill-opacity:1.000; stroke:none;" />
 <path d="  M 48,43  L 48,42  L 47,42  L 47,43  Z  " style="fill:rgb(222, 230, 164); fill-opacity:1.000; stroke:none;" />
 <path d="  M 49,28  L 48,28  L 48,29  L 49,29  Z  " style="fill:rgb(222, 230, 164); fill-opacity:1.000; stroke:none;" />
 <path d="  M 48,42  L 49,42  L 49,41  L 48,41  Z  " style="fill:rgb(222, 230, 164); fill-opacity:1.000; stroke:none;" />
 <path d="  M 49,43  L 50,43  L 50,42  L 49,42  Z  " style="fill:rgb(222, 230, 164); fill-opacity:1.000; stroke:none;" />
 <path d="  M 54,30  L 55,30  L 55,28  L 57,28  L 57,26  L 56,26  L 56,24  L 55,24  L 55,22  L 54,22  L 54,23  L 53,23  L 53,25  L 54,25  L 54,26  L 53,26  L 53,27  L 50,27  L 50,28  L 53,28  L 53,29  L 54,29  Z  " style="fill:rgb(222, 230, 164); fill-opacity:1.000; stroke:none;" />
 <path d="  M 52,64  L 52,63  L 51,63  L 51,64  Z  " style="fill:rgb(222, 230, 164); fill-opacity:1.000; stroke:none;" />
 <path d="  M 53,25  L 52,25  L 52,26  L 53,26  Z  " style="fill:rgb(222, 230, 164); fill-opacity:1.000; stroke:none;" />
 <path d="  M 52,58  L 53,58  L 53,57  L 52,57  Z  " style="fill:rgb(222, 230, 164); fill-opacity:1.000; stroke:none;" />
 <path d="  M 54,42  L 53,42  L 53,43  L 54,43  Z  " style="fill:rgb(222, 230, 164); fill-opacity:1.000; stroke:none;" />
 <path d="  M 54,55  L 53,55  L 53,56  L 54,56  Z  " style="fill:rgb(222, 230, 164); fill-opacity:1.000; stroke:none;" />
 <path d="  M 53,62  L 53,63  L 54,63  L 54,62  Z  " style="fill:rgb(222, 230, 164); fill-opacity:1.000; stroke:none;" />
 <path d="  M 54,42  L 55,42  L 55,41  L 54,41  Z  " style="fill:rgb(222, 230, 164); fill-opacity:1.000; stroke:none;" />
 <path d="  M 56,39  L 56,41  L 57,41  L 57,39  Z  " style="fill:rgb(222, 230, 164); fill-opacity:1.000; stroke:none;" />
 <path d="  M 63,32  L 64,32  L 64,31  L 63,31  Z  " style="fill:rgb(222, 230, 164); fill-opacity:1.000; stroke:none;" />
 <path d="  M 64,34  L 64,33  L 63,33  L 63,34  Z  " style="fill:rgb(222, 230, 164); fill-opacity:1.000; stroke:none;" />
 <path d="  M 1,33  L 1,32  L 0,32  L 0,33  Z  " style="fill:rgb(238, 246, 180); fill-opacity:1.000; stroke:none;" />
 <path d="  M 2,37  L 1,37  L 1,38  L 0,38  L 0,43  L 1,43  L 1,42  L 2,42  L 2,41  L 3,41  L 3,40  L 8,40  L 8,39  L 5,39  L 5,38  L 4,38  L 4,39  L 2,39  Z  M 1,40  L 1,39  L 2,39  L 2,40  Z  " style="fill:rgb(238, 246, 180); fill-opacity:1.000; stroke:none;" />
 <path d="  M 1,51  L 1,50  L 0,50  L 0,51  Z  " style="fill:rgb(238, 246, 180); fill-opacity:1.000; stroke:none;" />
 <path d="  M 3,37  L 4,37  L 4,36  L 3,36  Z  " style="fill:rgb(238, 246, 180); fill-opacity:1.000; stroke:none;" />
 <path d="  M 11,53  L 11,54  L 9,54  L 9,55  L 7,55  L 7,56  L 6,56  L 6,57  L 5,57  L 5,58  L 7,58  L 7,57  L 8,57  L 8,58  L 9,58  L 9,56  L 10,56  L 10,55  L 11,55  L 11,56  L 12,56  L 12,57  L 13,57  L 13,56  L 14,56  L 14,57  L 15,57  L 15,54  L 13,54  L 13,53  Z  " style="fill:rgb(238, 246, 180); fill-opacity:1.000; stroke:none;" />
 <path d="  M 7,26  L 8,26  L 8,25  L 7,25  Z  " style="fill:rgb(238, 246, 180); fill-opacity:1.000; stroke:none;" />
 <path d="  M 9,27  L 11,27  L 11,28  L 12,28  L 12,25  L 13,25  L 13,24  L 14,24  L 14,23  L 16,23  L 16,22  L 15,22  L 15,20  L 14,20  L 14,21  L 13,21  L 13,22  L 12,22  L 12,21  L 11,21  L 11,22  L 10,22  L 10,23  L 11,23  L 11,24  L 10,24  L 10,25  L 9,25  L 9,26  L 8,26  L 8,27  L 7,27  L 7,28  L 9,28  Z  " style="fill:rgb(238, 246, 180); fill-opacity:1.000; stroke:none;" />
 <path d="  M 7,59  L 8,59  L 8,58  L 7,58  Z  " style="fill:rgb(238, 246, 180); fill-opacity:1.000; stroke:none;" />
 <path d="  M 10,59  L 9,59  L 9,60  L 10,60  Z  " style="fill:rgb(238, 246, 180); fill-opacity:1.000; stroke:none;" />
 <path d="  M 11,57  L 11,56  L 10,56  L 10,57  Z  " style="fill:rgb(238, 246, 180); fill-opacity:1.000; stroke:none;" />
 <path d="  M 17,60  L 18,60  L 18,59  L 17,59  L 17,57  L 15,57  L 15,59  L 13,59  L 13,58  L 12,58  L 12,57  L 11,57  L 11,58  L 10,58  L 10,59  L 11,59  L 11,60  L 12,60  L 12,62  L 13,62  L 13,63  L 12,63  L 12,64  L 18,64  L 18,63  L 17,63  Z  M 15,62  L 14,62  L 14,61  L 15,61  Z  M 14,61  L 13,61  L 13,60  L 14,60  Z  M 16,63  L 15,63  L 15,62  L 16,62  Z  " style="fill:rgb(238, 246, 180); fill-opacity:1.000; stroke:none;" />
 <path d="  M 11,61  L 11,60  L 10,60  L 10,61  Z  " style="fill:rgb(238, 246, 180); fill-opacity:1.000; stroke:none;" />
 <path d="  M 12,63  L 12,62  L 11,62  L 11,63  Z  " style="fill:rgb(238, 246, 180); fill-opacity:1.000; stroke:none;" />
 <path d="  M 12,41  L 12,42  L 13,42  L 13,41  Z  " style="fill:rgb(238, 246, 180); fill-opacity:1.000; stroke:none;" />
 <path d="  M 16,44  L 16,43  L 15,43  L 15,42  L 13,42  L 13,43  L 14,43  L 14,44  L 15,44  L 15,49  L 16,49  L 16,51  L 19,51  L 19,52  L 18,52  L 18,54  L 19,54  L 19,53  L 20,53  L 20,51  L 21,51  L 21,49  L 19,49  L 19,48  L 20,48  L 20,47  L 18,47  L 18,48  L 16,48  L 16,46  L 17,46  L 17,45  L 18,45  L 18,46  L 19,46  L 19,45  L 20,45  L 20,44  Z  M 18,49  L 19,49  L 19,50  L 18,50  Z  " style="fill:rgb(238, 246, 180); fill-opacity:1.000; stroke:none;" />
 <path d="  M 14,52  L 13,52  L 13,53  L 14,53  Z  " style="fill:rgb(238, 246, 180); fill-opacity:1.000; stroke:none;" />
 <path d="  M 14,50  L 14,51  L 15,51  L 15,50  Z  " style="fill:rgb(238, 246, 180); fill-opacity:1.000; stroke:none;" />
 <path d="  M 17,53  L 17,52  L 16,52  L 16,51  L 15,51  L 15,54  L 16,54  L 16,53  Z  " style="fill:rgb(238, 246, 180); fill-opacity:1.000; stroke:none;" />
 <path d="  M 16,20  L 16,21  L 17,21  L 17,20  Z  " style="fill:rgb(238, 246, 180); fill-opacity:1.000; stroke:none;" />
 <path d="  M 19,55  L 18,55  L 18,54  L 17,54  L 17,55  L 16,55  L 16,56  L 17,56  L 17,57  L 18,57  L 18,56  L 19,56  Z  " style="fill:rgb(238, 246, 180); fill-opacity:1.000; stroke:none;" />
 <path d="  M 29,26  L 29,24  L 26,24  L 26,23  L 24,23  L 24,22  L 23,22  L 23,21  L 21,21  L 21,20  L 18,20  L 18,21  L 17,21  L 17,22  L 22,22  L 22,23  L 23,23  L 23,24  L 24,24  L 24,25  L 25,25  L 25,26  L 26,26  L 26,27  L 27,27  L 27,26  L 28,26  L 28,27  L 30,27  L 30,26  Z  " style="fill:rgb(238, 246, 180); fill-opacity:1.000; stroke:none;" />
 <path d="  M 19,58  L 19,57  L 18,57  L 18,58  Z  " style="fill:rgb(238, 246, 180); fill-opacity:1.000; stroke:none;" />
 <path d="  M 23,42  L 21,42  L 21,43  L 20,43  L 20,44  L 23,44  Z  " style="fill:rgb(238, 246, 180); fill-opacity:1.000; stroke:none;" />
 <path d="  M 22,46  L 20,46  L 20,47  L 22,47  L 22,48  L 23,48  L 23,47  L 25,47  L 25,46  L 28,46  L 28,44  L 27,44  L 27,45  L 26,45  L 26,43  L 25,43  L 25,42  L 24,42  L 24,44  L 25,44  L 25,45  L 24,45  L 24,46  L 23,46  L 23,45  L 22,45  Z  " style="fill:rgb(238, 246, 180); fill-opacity:1.000; stroke:none;" />
 <path d="  M 21,48  L 21,49  L 22,49  L 22,48  Z  " style="fill:rgb(238, 246, 180); fill-opacity:1.000; stroke:none;" />
 <path d="  M 23,41  L 23,42  L 24,42  L 24,41  Z  " style="fill:rgb(238, 246, 180); fill-opacity:1.000; stroke:none;" />
 <path d="  M 27,41  L 25,41  L 25,42  L 26,42  L 26,43  L 27,43  Z  " style="fill:rgb(238, 246, 180); fill-opacity:1.000; stroke:none;" />
 <path d="  M 27,29  L 28,29  L 28,28  L 27,28  Z  " style="fill:rgb(238, 246, 180); fill-opacity:1.000; stroke:none;" />
 <path d="  M 30,31  L 30,30  L 28,30  L 28,31  Z  " style="fill:rgb(238, 246, 180); fill-opacity:1.000; stroke:none;" />
 <path d="  M 28,46  L 28,47  L 29,47  L 29,46  Z  " style="fill:rgb(238, 246, 180); fill-opacity:1.000; stroke:none;" />
 <path d="  M 30,24  L 30,25  L 31,25  L 31,24  L 32,24  L 32,23  L 33,23  L 33,21  L 32,21  L 32,22  L 31,22  L 31,23  L 29,23  L 29,24  Z  " style="fill:rgb(238, 246, 180); fill-opacity:1.000; stroke:none;" />
 <path d="  M 30,28  L 30,30  L 32,30  L 32,29  L 31,29  L 31,28  Z  " style="fill:rgb(238, 246, 180); fill-opacity:1.000; stroke:none;" />
 <path d="  M 31,25  L 31,26  L 32,26  L 32,25  Z  " style="fill:rgb(238, 246, 180); fill-opacity:1.000; stroke:none;" />
 <path d="  M 31,28  L 32,28  L 32,27  L 31,27  Z  " style="fill:rgb(238, 246, 180); fill-opacity:1.000; stroke:none;" />
 <path d="  M 36,47  L 37,47  L 37,48  L 38,48  L 38,47  L 39,47  L 39,45  L 38,45  L 38,44  L 39,44  L 39,43  L 40,43  L 40,42  L 41,42  L 41,41  L 39,41  L 39,42  L 38,42  L 38,43  L 37,43  L 37,44  L 35,44  L 35,45  L 34,45  L 34,46  L 33,46  L 33,47  L 32,47  L 32,48  L 31,48  L 31,49  L 32,49  L 32,51  L 33,51  L 33,52  L 34,52  L 34,53  L 35,53  L 35,54  L 36,54  L 36,51  L 37,51  L 37,49  L 36,49  Z  M 36,50  L 35,50  L 35,49  L 36,49  Z  " style="fill:rgb(238, 246, 180); fill-opacity:1.000; stroke:none;" />
 <path d="  M 33,25  L 33,24  L 32,24  L 32,25  Z  " style="fill:rgb(238, 246, 180); fill-opacity:1.000; stroke:none;" />
 <path d="  M 32,29  L 33,29  L 33,28  L 32,28  Z  " style="fill:rgb(238, 246, 180); fill-opacity:1.000; stroke:none;" />
 <path d="  M 34,25  L 36,25  L 36,24  L 35,24  L 35,23  L 36,23  L 36,22  L 35,22  L 35,20  L 33,20  L 33,21  L 34,21  Z  " style="fill:rgb(238, 246, 180); fill-opacity:1.000; stroke:none;" />
 <path d="  M 36,28  L 34,28  L 34,29  L 36,29  Z  " style="fill:rgb(238, 246, 180); fill-opacity:1.000; stroke:none;" />
 <path d="  M 34,63  L 34,64  L 37,64  L 37,62  L 36,62  L 36,63  Z  " style="fill:rgb(238, 246, 180); fill-opacity:1.000; stroke:none;" />
 <path d="  M 35,27  L 36,27  L 36,26  L 35,26  Z  " style="fill:rgb(238, 246, 180); fill-opacity:1.000; stroke:none;" />
 <path d="  M 35,61  L 35,62  L 36,62  L 36,61  Z  " style="fill:rgb(238, 246, 180); fill-opacity:1.000; stroke:none;" />
 <path d="  M 36,21  L 36,22  L 37,22  L 37,21  Z  " style="fill:rgb(238, 246, 180); fill-opacity:1.000; stroke:none;" />
 <path d="  M 38,28  L 38,29  L 39,29  L 39,31  L 40,31  L 40,32  L 42,32  L 42,33  L 43,33  L 43,32  L 44,32  L 44,30  L 43,30  L 43,31  L 42,31  L 42,29  L 41,29  L 41,28  L 42,28  L 42,27  L 41,27  L 41,25  L 40,25  L 40,24  L 38,24  L 38,23  L 36,23  L 36,24  L 37,24  L 37,26  L 39,26  L 39,27  L 37,27  L 37,28  Z  " style="fill:rgb(238, 246, 180); fill-opacity:1.000; stroke:none;" />
 <path d="  M 37,29  L 37,30  L 38,30  L 38,29  Z  " style="fill:rgb(238, 246, 180); fill-opacity:1.000; stroke:none;" />
 <path d="  M 40,45  L 40,44  L 39,44  L 39,45  Z  " style="fill:rgb(238, 246, 180); fill-opacity:1.000; stroke:none;" />
 <path d="  M 43,28  L 42,28  L 42,29  L 43,29  Z  " style="fill:rgb(238, 246, 180); fill-opacity:1.000; stroke:none;" />
 <path d="  M 50,60  L 52,60  L 52,59  L 53,59  L 53,58  L 54,58  L 54,57  L 55,57  L 55,55  L 54,55  L 54,54  L 52,54  L 52,55  L 49,55  L 49,56  L 47,56  L 47,57  L 45,57  L 45,58  L 44,58  L 44,59  L 46,59  L 46,58  L 49,58  L 49,59  L 50,59  Z  M 53,57  L 53,58  L 52,58  L 52,57  Z  M 53,56  L 53,55  L 54,55  L 54,56  Z  " style="fill:rgb(238, 246, 180); fill-opacity:1.000; stroke:none;" />
 <path d="  M 47,28  L 47,29  L 48,29  L 48,28  Z  " style="fill:rgb(238, 246, 180); fill-opacity:1.000; stroke:none;" />
 <path d="  M 50,28  L 50,27  L 53,27  L 53,26  L 52,26  L 52,25  L 53,25  L 53,23  L 54,23  L 54,21  L 51,21  L 51,24  L 50,24  L 50,25  L 49,25  L 49,27  L 48,27  L 48,28  Z  " style="fill:rgb(238, 246, 180); fill-opacity:1.000; stroke:none;" />
 <path d="  M 51,64  L 51,63  L 49,63  L 49,64  Z  " style="fill:rgb(238, 246, 180); fill-opacity:1.000; stroke:none;" />
 <path d="  M 52,62  L 51,62  L 51,63  L 52,63  L 52,64  L 56,64  L 56,63  L 55,63  L 55,62  L 54,62  L 54,61  L 52,61  Z  M 53,63  L 53,62  L 54,62  L 54,63  Z  " style="fill:rgb(238, 246, 180); fill-opacity:1.000; stroke:none;" />
 <path d="  M 54,25  L 53,25  L 53,26  L 54,26  Z  " style="fill:rgb(238, 246, 180); fill-opacity:1.000; stroke:none;" />
 <path d="  M 55,53  L 54,53  L 54,54  L 55,54  Z  " style="fill:rgb(238, 246, 180); fill-opacity:1.000; stroke:none;" />
 <path d="  M 56,48  L 56,47  L 55,47  L 55,48  Z  " style="fill:rgb(238, 246, 180); fill-opacity:1.000; stroke:none;" />
 <path d="  M 55,54  L 55,55  L 56,55  L 56,54  Z  " style="fill:rgb(238, 246, 180); fill-opacity:1.000; stroke:none;" />
 <path d="  M 61,44  L 63,44  L 63,45  L 64,45  L 64,40  L 63,40  L 63,41  L 61,41  L 61,42  L 60,42  L 60,43  L 58,43  L 58,45  L 57,45  L 57,46  L 56,46  L 56,47  L 58,47  L 58,46  L 59,46  L 59,45  L 61,45  Z  " style="fill:rgb(238, 246, 180); fill-opacity:1.000; stroke:none;" />
 <path d="  M 59,54  L 59,53  L 60,53  L 60,52  L 58,52  L 58,53  L 57,53  L 57,54  Z  " style="fill:rgb(238, 246, 180); fill-opacity:1.000; stroke:none;" />
 <path d="  M 57,56  L 58,56  L 58,55  L 57,55  Z  " style="fill:rgb(238, 246, 180); fill-opacity:1.000; stroke:none;" />
 <path d="  M 64,34  L 62,34  L 62,35  L 61,35  L 61,36  L 60,36  L 60,38  L 61,38  L 61,37  L 63,37  L 63,36  L 64,36  Z  " style="fill:rgb(238, 246, 180); fill-opacity:1.000; stroke:none;" />
 <path d="  M 60,54  L 60,55  L 61,55  L 61,54  Z  " style="fill:rgb(238, 246, 180); fill-opacity:1.000; stroke:none;" />
 <path d="  M 62,38  L 61,38  L 61,39  L 62,39  Z  " style="fill:rgb(238, 246, 180); fill-opacity:1.000; stroke:none;" />
 <path d="  M 62,54  L 62,53  L 61,53  L 61,54  Z  " style="fill:rgb(238, 246, 180); fill-opacity:1.000; stroke:none;" />
 <path d="  M 63,51  L 63,52  L 62,52  L 62,53  L 64,53  L 64,51  Z  " style="fill:rgb(238, 246, 180); fill-opacity:1.000; stroke:none;" />
 <path d="  M 64,32  L 63,32  L 63,33  L 64,33  Z  " style="fill:rgb(238, 246, 180); fill-opacity:1.000; stroke:none;" />
 <path d="  M 3,35  L 2,35  L 2,34  L 1,34  L 1,33  L 0,33  L 0,38  L 1,38  L 1,37  L 2,37  L 2,39  L 4,39  L 4,38  L 5,38  L 5,37  L 3,37  Z  " style="fill:rgb(246, 250, 189); fill-opacity:1.000; stroke:none;" />
 <path d="  M 2,39  L 1,39  L 1,40  L 2,40  Z  " style="fill:rgb(246, 250, 189); fill-opacity:1.000; stroke:none;" />
 <path d="  M 6,38  L 5,38  L 5,39  L 6,39  Z  " style="fill:rgb(246, 250, 189); fill-opacity:1.000; stroke:none;" />
 <path d="  M 9,56  L 9,58  L 8,58  L 8,59  L 10,59  L 10,58  L 11,58  L 11,57  L 10,57  L 10,56  Z  " style="fill:rgb(246, 250, 189); fill-opacity:1.000; stroke:none;" />
 <path d="  M 10,56  L 11,56  L 11,55  L 10,55  Z  " style="fill:rgb(246, 250, 189); fill-opacity:1.000; stroke:none;" />
 <path d="  M 11,60  L 11,59  L 10,59  L 10,60  Z  " style="fill:rgb(246, 250, 189); fill-opacity:1.000; stroke:none;" />
 <path d="  M 14,21  L 14,20  L 12,20  L 12,22  L 13,22  L 13,21  Z  " style="fill:rgb(246, 250, 189); fill-opacity:1.000; stroke:none;" />
 <path d="  M 13,61  L 14,61  L 14,60  L 13,60  Z  " style="fill:rgb(246, 250, 189); fill-opacity:1.000; stroke:none;" />
 <path d="  M 15,54  L 15,53  L 14,53  L 14,54  Z  " style="fill:rgb(246, 250, 189); fill-opacity:1.000; stroke:none;" />
 <path d="  M 14,58  L 15,58  L 15,57  L 14,57  Z  " style="fill:rgb(246, 250, 189); fill-opacity:1.000; stroke:none;" />
 <path d="  M 14,62  L 15,62  L 15,61  L 14,61  Z  " style="fill:rgb(246, 250, 189); fill-opacity:1.000; stroke:none;" />
 <path d="  M 15,20  L 15,21  L 16,21  L 16,20  Z  " style="fill:rgb(246, 250, 189); fill-opacity:1.000; stroke:none;" />
 <path d="  M 16,54  L 15,54  L 15,57  L 16,57  L 16,55  L 17,55  L 17,54  L 18,54  L 18,52  L 19,52  L 19,51  L 17,51  L 17,53  L 16,53  Z  " style="fill:rgb(246, 250, 189); fill-opacity:1.000; stroke:none;" />
 <path d="  M 16,62  L 15,62  L 15,63  L 16,63  Z  " style="fill:rgb(246, 250, 189); fill-opacity:1.000; stroke:none;" />
 <path d="  M 20,44  L 20,45  L 19,45  L 19,46  L 18,46  L 18,45  L 17,45  L 17,46  L 16,46  L 16,48  L 18,48  L 18,47  L 20,47  L 20,46  L 22,46  L 22,45  L 23,45  L 23,46  L 24,46  L 24,45  L 25,45  L 25,44  L 24,44  L 24,42  L 23,42  L 23,44  Z  " style="fill:rgb(246, 250, 189); fill-opacity:1.000; stroke:none;" />
 <path d="  M 19,54  L 18,54  L 18,55  L 19,55  Z  " style="fill:rgb(246, 250, 189); fill-opacity:1.000; stroke:none;" />
 <path d="  M 24,42  L 25,42  L 25,41  L 24,41  Z  " style="fill:rgb(246, 250, 189); fill-opacity:1.000; stroke:none;" />
 <path d="  M 37,26  L 37,25  L 34,25  L 34,21  L 33,21  L 33,23  L 32,23  L 32,24  L 33,24  L 33,25  L 32,25  L 32,26  L 31,26  L 31,25  L 30,25  L 30,24  L 29,24  L 29,26  L 30,26  L 30,27  L 29,27  L 29,29  L 28,29  L 28,30  L 30,30  L 30,28  L 31,28  L 31,27  L 32,27  L 32,28  L 33,28  L 33,29  L 34,29  L 34,28  L 37,28  L 37,27  L 39,27  L 39,26  Z  M 36,26  L 36,27  L 35,27  L 35,26  Z  " style="fill:rgb(246, 250, 189); fill-opacity:1.000; stroke:none;" />
 <path d="  M 32,24  L 31,24  L 31,25  L 32,25  Z  " style="fill:rgb(246, 250, 189); fill-opacity:1.000; stroke:none;" />
 <path d="  M 55,54  L 54,54  L 54,55  L 55,55  Z  " style="fill:rgb(246, 250, 189); fill-opacity:1.000; stroke:none;" />
 <path d="  M 56,54  L 56,55  L 60,55  L 60,54  L 61,54  L 61,53  L 59,53  L 59,54  L 57,54  L 57,53  L 55,53  L 55,54  Z  " style="fill:rgb(246, 250, 189); fill-opacity:1.000; stroke:none;" />
 <path d="  M 56,55  L 55,55  L 55,56  L 56,56  Z  " style="fill:rgb(246, 250, 189); fill-opacity:1.000; stroke:none;" />
 <path d="  M 61,53  L 62,53  L 62,52  L 61,52  Z  " style="fill:rgb(246, 250, 189); fill-opacity:1.000; stroke:none;" />
 <path d="  M 1,45  L 1,44  L 0,44  L 0,45  Z  " style="fill:rgb(213, 218, 148); fill-opacity:1.000; stroke:none;" />
 <path d="  M 1,49  L 1,52  L 2,52  L 2,53  L 4,53  L 4,52  L 6,52  L 6,51  L 5,51  L 5,50  L 4,50  L 4,49  L 5,49  L 5,48  L 6,48  L 6,47  L 7,47  L 7,46  L 5,46  L 5,47  L 4,47  L 4,48  L 2,48  L 2,47  L 1,47  L 1,48  L 0,48  L 0,49  Z  M 3,51  L 3,50  L 4,50  L 4,51  Z  " style="fill:rgb(213, 218, 148); fill-opacity:1.000; stroke:none;" />
 <path d="  M 0,56  L 1,56  L 1,55  L 0,55  Z  " style="fill:rgb(213, 218, 148); fill-opacity:1.000; stroke:none;" />
 <path d="  M 0,64  L 5,64  L 5,63  L 3,63  L 3,62  L 4,62  L 4,61  L 2,61  L 2,60  L 0,60  L 0,61  L 1,61  L 1,62  L 0,62  Z  " style="fill:rgb(213, 218, 148); fill-opacity:1.000; stroke:none;" />
 <path d="  M 1,44  L 2,44  L 2,42  L 1,42  Z  " style="fill:rgb(213, 218, 148); fill-opacity:1.000; stroke:none;" />
 <path d="  M 3,46  L 2,46  L 2,47  L 3,47  Z  " style="fill:rgb(213, 218, 148); fill-opacity:1.000; stroke:none;" />
 <path d="  M 3,56  L 2,56  L 2,57  L 3,57  Z  " style="fill:rgb(213, 218, 148); fill-opacity:1.000; stroke:none;" />
 <path d="  M 5,49  L 5,50  L 6,50  L 6,49  Z  " style="fill:rgb(213, 218, 148); fill-opacity:1.000; stroke:none;" />
 <path d="  M 5,60  L 6,60  L 6,59  L 5,59  Z  " style="fill:rgb(213, 218, 148); fill-opacity:1.000; stroke:none;" />
 <path d="  M 5,63  L 6,63  L 6,62  L 5,62  Z  " style="fill:rgb(213, 218, 148); fill-opacity:1.000; stroke:none;" />
 <path d="  M 10,46  L 9,46  L 9,48  L 8,48  L 8,49  L 7,49  L 7,50  L 6,50  L 6,51  L 8,51  L 8,50  L 9,50  L 9,49  L 10,49  L 10,48  L 11,48  L 11,47  L 10,47  Z  " style="fill:rgb(213, 218, 148); fill-opacity:1.000; stroke:none;" />
 <path d="  M 11,63  L 10,63  L 10,62  L 9,62  L 9,61  L 8,61  L 8,60  L 7,60  L 7,61  L 6,61  L 6,62  L 7,62  L 7,63  L 6,63  L 6,64  L 11,64  Z  " style="fill:rgb(213, 218, 148); fill-opacity:1.000; stroke:none;" />
 <path d="  M 7,45  L 7,46  L 8,46  L 8,45  Z  " style="fill:rgb(213, 218, 148); fill-opacity:1.000; stroke:none;" />
 <path d="  M 9,29  L 8,29  L 8,30  L 9,30  Z  " style="fill:rgb(213, 218, 148); fill-opacity:1.000; stroke:none;" />
 <path d="  M 9,40  L 9,41  L 11,41  L 11,40  Z  " style="fill:rgb(213, 218, 148); fill-opacity:1.000; stroke:none;" />
 <path d="  M 10,45  L 10,46  L 11,46  L 11,45  Z  " style="fill:rgb(213, 218, 148); fill-opacity:1.000; stroke:none;" />
 <path d="  M 10,49  L 10,50  L 11,50  L 11,49  Z  " style="fill:rgb(213, 218, 148); fill-opacity:1.000; stroke:none;" />
 <path d="  M 12,43  L 11,43  L 11,44  L 12,44  Z  " style="fill:rgb(213, 218, 148); fill-opacity:1.000; stroke:none;" />
 <path d="  M 13,49  L 14,49  L 14,48  L 15,48  L 15,45  L 14,45  L 14,44  L 12,44  L 12,46  L 11,46  L 11,47  L 12,47  L 12,48  L 13,48  Z  " style="fill:rgb(213, 218, 148); fill-opacity:1.000; stroke:none;" />
 <path d="  M 11,49  L 12,49  L 12,48  L 11,48  Z  " style="fill:rgb(213, 218, 148); fill-opacity:1.000; stroke:none;" />
 <path d="  M 19,34  L 19,32  L 18,32  L 18,33  L 17,33  L 17,32  L 16,32  L 16,33  L 14,33  L 14,34  Z  " style="fill:rgb(213, 218, 148); fill-opacity:1.000; stroke:none;" />
 <path d="  M 16,25  L 18,25  L 18,26  L 20,26  L 20,25  L 19,25  L 19,24  L 16,24  Z  " style="fill:rgb(213, 218, 148); fill-opacity:1.000; stroke:none;" />
 <path d="  M 18,32  L 18,31  L 17,31  L 17,32  Z  " style="fill:rgb(213, 218, 148); fill-opacity:1.000; stroke:none;" />
 <path d="  M 17,42  L 17,43  L 18,43  L 18,42  Z  " style="fill:rgb(213, 218, 148); fill-opacity:1.000; stroke:none;" />
 <path d="  M 20,41  L 18,41  L 18,42  L 20,42  Z  " style="fill:rgb(213, 218, 148); fill-opacity:1.000; stroke:none;" />
 <path d="  M 19,30  L 19,31  L 20,31  L 20,30  Z  " style="fill:rgb(213, 218, 148); fill-opacity:1.000; stroke:none;" />
 <path d="  M 32,61  L 32,60  L 33,60  L 33,59  L 34,59  L 34,58  L 35,58  L 35,55  L 34,55  L 34,56  L 33,56  L 33,55  L 32,55  L 32,56  L 31,56  L 31,57  L 30,57  L 30,58  L 27,58  L 27,59  L 26,59  L 26,60  L 23,60  L 23,59  L 22,59  L 22,58  L 21,58  L 21,56  L 20,56  L 20,58  L 19,58  L 19,62  L 20,62  L 20,64  L 25,64  L 25,63  L 26,63  L 26,64  L 27,64  L 27,63  L 28,63  L 28,64  L 29,64  L 29,63  L 30,63  L 30,62  L 31,62  L 31,61  Z  M 25,61  L 26,61  L 26,62  L 25,62  Z  M 21,60  L 21,59  L 22,59  L 22,60  Z  M 24,63  L 24,62  L 25,62  L 25,63  Z  " style="fill:rgb(213, 218, 148); fill-opacity:1.000; stroke:none;" />
 <path d="  M 20,24  L 20,25  L 21,25  L 21,24  Z  " style="fill:rgb(213, 218, 148); fill-opacity:1.000; stroke:none;" />
 <path d="  M 21,29  L 21,28  L 22,28  L 22,29  Z  M 24,33  L 25,33  L 25,28  L 24,28  L 24,26  L 23,26  L 23,25  L 21,25  L 21,26  L 20,26  L 20,29  L 21,29  L 21,31  L 22,31  L 22,32  L 21,32  L 21,33  L 22,33  L 22,34  L 24,34  Z  M 21,27  L 21,26  L 22,26  L 22,27  Z  " style="fill:rgb(213, 218, 148); fill-opacity:1.000; stroke:none;" />
 <path d="  M 21,32  L 21,31  L 20,31  L 20,32  Z  " style="fill:rgb(213, 218, 148); fill-opacity:1.000; stroke:none;" />
 <path d="  M 21,53  L 20,53  L 20,54  L 21,54  Z  " style="fill:rgb(213, 218, 148); fill-opacity:1.000; stroke:none;" />
 <path d="  M 21,51  L 21,53  L 22,53  L 22,54  L 23,54  L 23,53  L 24,53  L 24,52  L 23,52  L 23,50  L 22,50  L 22,51  Z  " style="fill:rgb(213, 218, 148); fill-opacity:1.000; stroke:none;" />
 <path d="  M 21,55  L 22,55  L 22,54  L 21,54  Z  " style="fill:rgb(213, 218, 148); fill-opacity:1.000; stroke:none;" />
 <path d="  M 23,20  L 23,21  L 24,21  L 24,22  L 25,22  L 25,23  L 28,23  L 28,22  L 27,22  L 27,21  L 28,21  L 28,20  Z  " style="fill:rgb(213, 218, 148); fill-opacity:1.000; stroke:none;" />
 <path d="  M 24,50  L 24,49  L 23,49  L 23,50  Z  " style="fill:rgb(213, 218, 148); fill-opacity:1.000; stroke:none;" />
 <path d="  M 25,47  L 25,48  L 24,48  L 24,49  L 25,49  L 25,50  L 26,50  L 26,49  L 27,49  L 27,48  L 28,48  L 28,47  Z  " style="fill:rgb(213, 218, 148); fill-opacity:1.000; stroke:none;" />
 <path d="  M 25,51  L 25,50  L 24,50  L 24,51  Z  " style="fill:rgb(213, 218, 148); fill-opacity:1.000; stroke:none;" />
 <path d="  M 35,33  L 37,33  L 37,34  L 39,34  L 39,33  L 38,33  L 38,32  L 37,32  L 37,31  L 35,31  L 35,30  L 31,30  L 31,31  L 30,31  L 30,32  L 28,32  L 28,33  L 27,33  L 27,34  L 29,34  L 29,33  L 30,33  L 30,34  L 31,34  L 31,33  L 32,33  L 32,32  L 35,32  Z  " style="fill:rgb(213, 218, 148); fill-opacity:1.000; stroke:none;" />
 <path d="  M 28,21  L 28,22  L 29,22  L 29,21  Z  " style="fill:rgb(213, 218, 148); fill-opacity:1.000; stroke:none;" />
 <path d="  M 28,48  L 28,49  L 30,49  L 30,48  Z  " style="fill:rgb(213, 218, 148); fill-opacity:1.000; stroke:none;" />
 <path d="  M 29,21  L 30,21  L 30,20  L 29,20  Z  " style="fill:rgb(213, 218, 148); fill-opacity:1.000; stroke:none;" />
 <path d="  M 30,42  L 30,41  L 29,41  L 29,42  Z  " style="fill:rgb(213, 218, 148); fill-opacity:1.000; stroke:none;" />
 <path d="  M 29,45  L 30,45  L 30,44  L 29,44  Z  " style="fill:rgb(213, 218, 148); fill-opacity:1.000; stroke:none;" />
 <path d="  M 32,46  L 32,45  L 33,45  L 33,44  L 31,44  L 31,45  L 30,45  L 30,46  Z  " style="fill:rgb(213, 218, 148); fill-opacity:1.000; stroke:none;" />
 <path d="  M 33,42  L 32,42  L 32,41  L 31,41  L 31,43  L 33,43  Z  " style="fill:rgb(213, 218, 148); fill-opacity:1.000; stroke:none;" />
 <path d="  M 32,46  L 32,47  L 33,47  L 33,46  Z  " style="fill:rgb(213, 218, 148); fill-opacity:1.000; stroke:none;" />
 <path d="  M 33,52  L 32,52  L 32,53  L 33,53  Z  " style="fill:rgb(213, 218, 148); fill-opacity:1.000; stroke:none;" />
 <path d="  M 35,42  L 35,41  L 33,41  L 33,42  Z  " style="fill:rgb(213, 218, 148); fill-opacity:1.000; stroke:none;" />
 <path d="  M 33,55  L 34,55  L 34,53  L 33,53  Z  " style="fill:rgb(213, 218, 148); fill-opacity:1.000; stroke:none;" />
 <path d="  M 36,43  L 36,42  L 35,42  L 35,43  Z  " style="fill:rgb(213, 218, 148); fill-opacity:1.000; stroke:none;" />
 <path d="  M 36,41  L 36,42  L 38,42  L 38,41  Z  " style="fill:rgb(213, 218, 148); fill-opacity:1.000; stroke:none;" />
 <path d="  M 37,20  L 37,21  L 38,21  L 38,20  Z  " style="fill:rgb(213, 218, 148); fill-opacity:1.000; stroke:none;" />
 <path d="  M 42,53  L 42,52  L 41,52  L 41,51  L 40,51  L 40,52  L 39,52  L 39,53  L 38,53  L 38,54  L 37,54  L 37,55  L 38,55  L 38,56  L 40,56  L 40,55  L 41,55  L 41,54  L 42,54  L 42,55  L 44,55  L 44,54  L 45,54  L 45,53  L 46,53  L 46,51  L 45,51  L 45,52  L 44,52  L 44,51  L 43,51  L 43,53  Z  M 40,53  L 40,54  L 39,54  L 39,53  Z  " style="fill:rgb(213, 218, 148); fill-opacity:1.000; stroke:none;" />
 <path d="  M 38,60  L 37,60  L 37,61  L 38,61  Z  " style="fill:rgb(213, 218, 148); fill-opacity:1.000; stroke:none;" />
 <path d="  M 39,63  L 40,63  L 40,62  L 41,62  L 41,61  L 44,61  L 44,60  L 40,60  L 40,59  L 38,59  L 38,60  L 39,60  L 39,61  L 38,61  L 38,62  L 37,62  L 37,64  L 39,64  Z  " style="fill:rgb(213, 218, 148); fill-opacity:1.000; stroke:none;" />
 <path d="  M 39,22  L 38,22  L 38,23  L 39,23  Z  " style="fill:rgb(213, 218, 148); fill-opacity:1.000; stroke:none;" />
 <path d="  M 39,23  L 39,24  L 41,24  L 41,23  Z  " style="fill:rgb(213, 218, 148); fill-opacity:1.000; stroke:none;" />
 <path d="  M 40,58  L 40,59  L 41,59  L 41,58  Z  " style="fill:rgb(213, 218, 148); fill-opacity:1.000; stroke:none;" />
 <path d="  M 46,24  L 47,24  L 47,23  L 48,23  L 48,22  L 49,22  L 49,20  L 46,20  L 46,21  L 45,21  L 45,22  L 44,22  L 44,21  L 43,21  L 43,22  L 42,22  L 42,23  L 43,23  L 43,24  L 41,24  L 41,25  L 44,25  L 44,24  L 45,24  L 45,23  L 46,23  Z  M 47,22  L 47,21  L 48,21  L 48,22  Z  " style="fill:rgb(213, 218, 148); fill-opacity:1.000; stroke:none;" />
 <path d="  M 42,55  L 41,55  L 41,56  L 42,56  Z  " style="fill:rgb(213, 218, 148); fill-opacity:1.000; stroke:none;" />
 <path d="  M 42,51  L 43,51  L 43,50  L 42,50  Z  " style="fill:rgb(213, 218, 148); fill-opacity:1.000; stroke:none;" />
 <path d="  M 43,27  L 44,27  L 44,26  L 43,26  Z  " style="fill:rgb(213, 218, 148); fill-opacity:1.000; stroke:none;" />
 <path d="  M 43,50  L 44,50  L 44,49  L 43,49  Z  " style="fill:rgb(213, 218, 148); fill-opacity:1.000; stroke:none;" />
 <path d="  M 46,26  L 45,26  L 45,27  L 44,27  L 44,29  L 45,29  L 45,28  L 46,28  Z  " style="fill:rgb(213, 218, 148); fill-opacity:1.000; stroke:none;" />
 <path d="  M 44,43  L 45,43  L 45,42  L 44,42  Z  " style="fill:rgb(213, 218, 148); fill-opacity:1.000; stroke:none;" />
 <path d="  M 45,49  L 45,48  L 44,48  L 44,49  Z  " style="fill:rgb(213, 218, 148); fill-opacity:1.000; stroke:none;" />
 <path d="  M 45,51  L 45,50  L 44,50  L 44,51  Z  " style="fill:rgb(213, 218, 148); fill-opacity:1.000; stroke:none;" />
 <path d="  M 45,61  L 44,61  L 44,62  L 45,62  Z  " style="fill:rgb(213, 218, 148); fill-opacity:1.000; stroke:none;" />
 <path d="  M 46,42  L 46,43  L 47,43  L 47,42  L 48,42  L 48,41  L 45,41  L 45,42  Z  " style="fill:rgb(213, 218, 148); fill-opacity:1.000; stroke:none;" />
 <path d="  M 46,45  L 45,45  L 45,46  L 46,46  Z  " style="fill:rgb(213, 218, 148); fill-opacity:1.000; stroke:none;" />
 <path d="  M 46,49  L 45,49  L 45,50  L 46,50  Z  " style="fill:rgb(213, 218, 148); fill-opacity:1.000; stroke:none;" />
 <path d="  M 45,57  L 46,57  L 46,56  L 45,56  Z  " style="fill:rgb(213, 218, 148); fill-opacity:1.000; stroke:none;" />
 <path d="  M 45,61  L 46,61  L 46,60  L 45,60  Z  " style="fill:rgb(213, 218, 148); fill-opacity:1.000; stroke:none;" />
 <path d="  M 45,64  L 46,64  L 46,63  L 47,63  L 47,62  L 45,62  Z  " style="fill:rgb(213, 218, 148); fill-opacity:1.000; stroke:none;" />
 <path d="  M 47,29  L 46,29  L 46,30  L 47,30  Z  " style="fill:rgb(213, 218, 148); fill-opacity:1.000; stroke:none;" />
 <path d="  M 46,50  L 46,51  L 47,51  L 47,50  Z  " style="fill:rgb(213, 218, 148); fill-opacity:1.000; stroke:none;" />
 <path d="  M 47,55  L 48,55  L 48,53  L 47,53  L 47,54  L 46,54  L 46,56  L 47,56  Z  " style="fill:rgb(213, 218, 148); fill-opacity:1.000; stroke:none;" />
 <path d="  M 47,43  L 47,44  L 48,44  L 48,43  Z  " style="fill:rgb(213, 218, 148); fill-opacity:1.000; stroke:none;" />
 <path d="  M 47,64  L 48,64  L 48,63  L 47,63  Z  " style="fill:rgb(213, 218, 148); fill-opacity:1.000; stroke:none;" />
 <path d="  M 48,42  L 48,43  L 49,43  L 49,42  Z  " style="fill:rgb(213, 218, 148); fill-opacity:1.000; stroke:none;" />
 <path d="  M 48,45  L 48,46  L 51,46  L 51,45  L 52,45  L 52,44  L 54,44  L 54,43  L 53,43  L 53,42  L 54,42  L 54,41  L 55,41  L 55,42  L 57,42  L 57,41  L 56,41  L 56,40  L 53,40  L 53,41  L 49,41  L 49,42  L 50,42  L 50,43  L 49,43  L 49,44  L 50,44  L 50,45  Z  " style="fill:rgb(213, 218, 148); fill-opacity:1.000; stroke:none;" />
 <path d="  M 48,49  L 49,49  L 49,48  L 48,48  Z  " style="fill:rgb(213, 218, 148); fill-opacity:1.000; stroke:none;" />
 <path d="  M 48,51  L 48,52  L 49,52  L 49,54  L 50,54  L 50,53  L 53,53  L 53,52  L 55,52  L 55,51  L 57,51  L 57,50  L 58,50  L 58,48  L 57,48  L 57,49  L 55,49  L 55,50  L 53,50  L 53,49  L 52,49  L 52,48  L 51,48  L 51,50  L 50,50  L 50,51  Z  " style="fill:rgb(213, 218, 148); fill-opacity:1.000; stroke:none;" />
 <path d="  M 49,50  L 50,50  L 50,49  L 49,49  Z  " style="fill:rgb(213, 218, 148); fill-opacity:1.000; stroke:none;" />
 <path d="  M 50,48  L 51,48  L 51,47  L 50,47  Z  " style="fill:rgb(213, 218, 148); fill-opacity:1.000; stroke:none;" />
 <path d="  M 52,28  L 52,29  L 53,29  L 53,28  Z  " style="fill:rgb(213, 218, 148); fill-opacity:1.000; stroke:none;" />
 <path d="  M 53,47  L 53,46  L 52,46  L 52,47  Z  " style="fill:rgb(213, 218, 148); fill-opacity:1.000; stroke:none;" />
 <path d="  M 54,31  L 55,31  L 55,30  L 54,30  Z  " style="fill:rgb(213, 218, 148); fill-opacity:1.000; stroke:none;" />
 <path d="  M 55,43  L 55,42  L 54,42  L 54,43  Z  " style="fill:rgb(213, 218, 148); fill-opacity:1.000; stroke:none;" />
 <path d="  M 55,23  L 55,24  L 56,24  L 56,23  Z  " style="fill:rgb(213, 218, 148); fill-opacity:1.000; stroke:none;" />
 <path d="  M 55,30  L 56,30  L 56,28  L 55,28  Z  " style="fill:rgb(213, 218, 148); fill-opacity:1.000; stroke:none;" />
 <path d="  M 57,59  L 58,59  L 58,58  L 56,58  L 56,59  L 55,59  L 55,61  L 56,61  L 56,60  L 57,60  Z  " style="fill:rgb(213, 218, 148); fill-opacity:1.000; stroke:none;" />
 <path d="  M 57,26  L 57,25  L 56,25  L 56,26  Z  " style="fill:rgb(213, 218, 148); fill-opacity:1.000; stroke:none;" />
 <path d="  M 57,41  L 58,41  L 58,39  L 57,39  Z  " style="fill:rgb(213, 218, 148); fill-opacity:1.000; stroke:none;" />
 <path d="  M 58,39  L 59,39  L 59,38  L 58,38  Z  " style="fill:rgb(213, 218, 148); fill-opacity:1.000; stroke:none;" />
 <path d="  M 59,57  L 58,57  L 58,58  L 59,58  Z  " style="fill:rgb(213, 218, 148); fill-opacity:1.000; stroke:none;" />
 <path d="  M 59,48  L 59,50  L 60,50  L 60,48  Z  " style="fill:rgb(213, 218, 148); fill-opacity:1.000; stroke:none;" />
 <path d="  M 61,48  L 61,47  L 60,47  L 60,48  Z  " style="fill:rgb(213, 218, 148); fill-opacity:1.000; stroke:none;" />
 <path d="  M 62,50  L 64,50  L 64,46  L 63,46  L 63,47  L 62,47  L 62,48  L 61,48  L 61,49  L 62,49  Z  " style="fill:rgb(213, 218, 148); fill-opacity:1.000; stroke:none;" />
 <path d="  M 61,62  L 61,63  L 62,63  L 62,62  Z  " style="fill:rgb(213, 218, 148); fill-opacity:1.000; stroke:none;" />
 <path d="  M 64,64  L 64,62  L 63,62  L 63,63  L 62,63  L 62,64  Z  " style="fill:rgb(213, 218, 148); fill-opacity:1.000; stroke:none;" />
 <path d="  M 8,42  L 8,41  L 6,41  L 6,40  L 5,40  L 5,41  L 3,41  L 3,43  L 2,43  L 2,44  L 1,44  L 1,45  L 0,45  L 0,46  L 2,46  L 2,45  L 4,45  L 4,44  L 5,44  L 5,43  L 6,43  L 6,42  L 7,42  L 7,43  L 9,43  L 9,42  Z  " style="fill:rgb(197, 190, 139); fill-opacity:1.000; stroke:none;" />
 <path d="  M 2,57  L 0,57  L 0,59  L 2,59  L 2,60  L 3,60  L 3,58  L 2,58  Z  " style="fill:rgb(197, 190, 139); fill-opacity:1.000; stroke:none;" />
 <path d="  M 4,57  L 3,57  L 3,58  L 4,58  Z  " style="fill:rgb(197, 190, 139); fill-opacity:1.000; stroke:none;" />
 <path d="  M 4,36  L 4,37  L 5,37  L 5,36  Z  " style="fill:rgb(197, 190, 139); fill-opacity:1.000; stroke:none;" />
 <path d="  M 5,45  L 4,45  L 4,46  L 5,46  Z  " style="fill:rgb(197, 190, 139); fill-opacity:1.000; stroke:none;" />
 <path d="  M 5,38  L 6,38  L 6,37  L 5,37  Z  " style="fill:rgb(197, 190, 139); fill-opacity:1.000; stroke:none;" />
 <path d="  M 8,39  L 8,38  L 6,38  L 6,39  Z  " style="fill:rgb(197, 190, 139); fill-opacity:1.000; stroke:none;" />
 <path d="  M 6,43  L 6,44  L 7,44  L 7,43  Z  " style="fill:rgb(197, 190, 139); fill-opacity:1.000; stroke:none;" />
 <path d="  M 8,25  L 8,24  L 7,24  L 7,25  Z  " style="fill:rgb(197, 190, 139); fill-opacity:1.000; stroke:none;" />
 <path d="  M 9,22  L 8,22  L 8,23  L 9,23  Z  " style="fill:rgb(197, 190, 139); fill-opacity:1.000; stroke:none;" />
 <path d="  M 8,39  L 8,40  L 11,40  L 11,39  Z  " style="fill:rgb(197, 190, 139); fill-opacity:1.000; stroke:none;" />
 <path d="  M 10,21  L 9,21  L 9,22  L 10,22  Z  " style="fill:rgb(197, 190, 139); fill-opacity:1.000; stroke:none;" />
 <path d="  M 9,29  L 9,31  L 10,31  L 10,32  L 12,32  L 12,31  L 13,31  L 13,30  L 14,30  L 14,29  L 16,29  L 16,28  L 17,28  L 17,27  L 16,27  L 16,26  L 17,26  L 17,25  L 14,25  L 14,26  L 13,26  L 13,27  L 12,27  L 12,28  L 10,28  L 10,29  Z  M 10,30  L 11,30  L 11,31  L 10,31  Z  M 11,29  L 12,29  L 12,30  L 11,30  Z  " style="fill:rgb(197, 190, 139); fill-opacity:1.000; stroke:none;" />
 <path d="  M 10,20  L 10,21  L 12,21  L 12,20  Z  " style="fill:rgb(197, 190, 139); fill-opacity:1.000; stroke:none;" />
 <path d="  M 20,41  L 20,40  L 11,40  L 11,41  Z  " style="fill:rgb(197, 190, 139); fill-opacity:1.000; stroke:none;" />
 <path d="  M 12,19  L 12,20  L 26,20  L 26,19  Z  " style="fill:rgb(197, 190, 139); fill-opacity:1.000; stroke:none;" />
 <path d="  M 14,30  L 14,31  L 15,31  L 15,30  Z  " style="fill:rgb(197, 190, 139); fill-opacity:1.000; stroke:none;" />
 <path d="  M 18,27  L 18,26  L 17,26  L 17,27  Z  " style="fill:rgb(197, 190, 139); fill-opacity:1.000; stroke:none;" />
 <path d="  M 17,28  L 17,29  L 18,29  L 18,28  Z  " style="fill:rgb(197, 190, 139); fill-opacity:1.000; stroke:none;" />
 <path d="  M 30,53  L 30,52  L 28,52  L 28,53  L 29,53  L 29,54  L 28,54  L 28,55  L 27,55  L 27,56  L 25,56  L 25,57  L 24,57  L 24,58  L 23,58  L 23,57  L 21,57  L 21,58  L 22,58  L 22,59  L 23,59  L 23,60  L 26,60  L 26,59  L 27,59  L 27,58  L 30,58  L 30,57  L 31,57  L 31,56  L 32,56  L 32,55  L 33,55  L 33,53  L 32,53  L 32,51  L 31,51  L 31,53  Z  M 31,54  L 31,55  L 30,55  L 30,54  Z  M 28,56  L 28,57  L 27,57  L 27,56  Z  " style="fill:rgb(197, 190, 139); fill-opacity:1.000; stroke:none;" />
 <path d="  M 24,54  L 24,55  L 25,55  L 25,54  Z  " style="fill:rgb(197, 190, 139); fill-opacity:1.000; stroke:none;" />
 <path d="  M 25,54  L 26,54  L 26,53  L 25,53  Z  " style="fill:rgb(197, 190, 139); fill-opacity:1.000; stroke:none;" />
 <path d="  M 28,54  L 28,53  L 27,53  L 27,54  Z  " style="fill:rgb(197, 190, 139); fill-opacity:1.000; stroke:none;" />
 <path d="  M 30,51  L 31,51  L 31,50  L 30,50  Z  " style="fill:rgb(197, 190, 139); fill-opacity:1.000; stroke:none;" />
 <path d="  M 33,32  L 32,32  L 32,34  L 34,34  L 34,33  L 33,33  Z  " style="fill:rgb(197, 190, 139); fill-opacity:1.000; stroke:none;" />
 <path d="  M 38,51  L 37,51  L 37,52  L 38,52  Z  " style="fill:rgb(197, 190, 139); fill-opacity:1.000; stroke:none;" />
 <path d="  M 38,22  L 39,22  L 39,21  L 40,21  L 40,20  L 52,20  L 52,19  L 38,19  Z  " style="fill:rgb(197, 190, 139); fill-opacity:1.000; stroke:none;" />
 <path d="  M 39,48  L 38,48  L 38,51  L 41,51  L 41,50  L 42,50  L 42,49  L 43,49  L 43,48  L 44,48  L 44,47  L 43,47  L 43,46  L 42,46  L 42,45  L 43,45  L 43,44  L 41,44  L 41,45  L 40,45  L 40,47  L 39,47  Z  M 42,47  L 41,47  L 41,46  L 42,46  Z  " style="fill:rgb(197, 190, 139); fill-opacity:1.000; stroke:none;" />
 <path d="  M 42,61  L 41,61  L 41,62  L 40,62  L 40,63  L 39,63  L 39,64  L 41,64  L 41,63  L 42,63  Z  " style="fill:rgb(197, 190, 139); fill-opacity:1.000; stroke:none;" />
 <path d="  M 43,63  L 42,63  L 42,64  L 43,64  Z  " style="fill:rgb(197, 190, 139); fill-opacity:1.000; stroke:none;" />
 <path d="  M 50,30  L 50,29  L 52,29  L 52,28  L 49,28  L 49,29  L 47,29  L 47,30  L 45,30  L 45,31  L 44,31  L 44,32  L 43,32  L 43,34  L 44,34  L 44,33  L 45,33  L 45,34  L 47,34  L 47,33  L 48,33  L 48,32  L 47,32  L 47,31  L 48,31  L 48,30  Z  " style="fill:rgb(197, 190, 139); fill-opacity:1.000; stroke:none;" />
 <path d="  M 44,63  L 44,62  L 43,62  L 43,63  Z  " style="fill:rgb(197, 190, 139); fill-opacity:1.000; stroke:none;" />
 <path d="  M 53,41  L 53,40  L 44,40  L 44,41  Z  " style="fill:rgb(197, 190, 139); fill-opacity:1.000; stroke:none;" />
 <path d="  M 45,45  L 44,45  L 44,46  L 45,46  Z  " style="fill:rgb(197, 190, 139); fill-opacity:1.000; stroke:none;" />
 <path d="  M 48,32  L 49,32  L 49,31  L 48,31  Z  " style="fill:rgb(197, 190, 139); fill-opacity:1.000; stroke:none;" />
 <path d="  M 49,32  L 49,33  L 50,33  L 50,32  Z  " style="fill:rgb(197, 190, 139); fill-opacity:1.000; stroke:none;" />
 <path d="  M 52,33  L 54,33  L 54,32  L 53,32  L 53,31  L 52,31  L 52,30  L 50,30  L 50,31  L 51,31  L 51,32  L 52,32  Z  " style="fill:rgb(197, 190, 139); fill-opacity:1.000; stroke:none;" />
 <path d="  M 52,34  L 52,33  L 51,33  L 51,34  Z  " style="fill:rgb(197, 190, 139); fill-opacity:1.000; stroke:none;" />
 <path d="  M 54,21  L 54,20  L 52,20  L 52,21  Z  " style="fill:rgb(197, 190, 139); fill-opacity:1.000; stroke:none;" />
 <path d="  M 53,30  L 53,29  L 52,29  L 52,30  Z  " style="fill:rgb(197, 190, 139); fill-opacity:1.000; stroke:none;" />
 <path d="  M 56,40  L 56,39  L 53,39  L 53,40  Z  " style="fill:rgb(197, 190, 139); fill-opacity:1.000; stroke:none;" />
 <path d="  M 54,22  L 55,22  L 55,21  L 54,21  Z  " style="fill:rgb(197, 190, 139); fill-opacity:1.000; stroke:none;" />
 <path d="  M 55,31  L 54,31  L 54,32  L 55,32  Z  " style="fill:rgb(197, 190, 139); fill-opacity:1.000; stroke:none;" />
 <path d="  M 55,23  L 56,23  L 56,22  L 55,22  Z  " style="fill:rgb(197, 190, 139); fill-opacity:1.000; stroke:none;" />
 <path d="  M 55,30  L 55,31  L 56,31  L 56,30  Z  " style="fill:rgb(197, 190, 139); fill-opacity:1.000; stroke:none;" />
 <path d="  M 56,25  L 57,25  L 57,24  L 56,24  Z  " style="fill:rgb(197, 190, 139); fill-opacity:1.000; stroke:none;" />
 <path d="  M 56,38  L 56,39  L 58,39  L 58,38  Z  " style="fill:rgb(197, 190, 139); fill-opacity:1.000; stroke:none;" />
 <path d="  M 58,60  L 59,60  L 59,59  L 57,59  L 57,60  L 56,60  L 56,62  L 57,62  L 57,63  L 59,63  L 59,64  L 60,64  L 60,63  L 61,63  L 61,61  L 59,61  L 59,62  L 58,62  Z  " style="fill:rgb(197, 190, 139); fill-opacity:1.000; stroke:none;" />
 <path d="  M 58,37  L 58,38  L 59,38  L 59,37  Z  " style="fill:rgb(197, 190, 139); fill-opacity:1.000; stroke:none;" />
 <path d="  M 59,37  L 60,37  L 60,36  L 59,36  Z  " style="fill:rgb(197, 190, 139); fill-opacity:1.000; stroke:none;" />
 <path d="  M 59,59  L 60,59  L 60,58  L 59,58  Z  " style="fill:rgb(197, 190, 139); fill-opacity:1.000; stroke:none;" />
 <path d="  M 64,60  L 64,57  L 63,57  L 63,56  L 61,56  L 61,58  L 62,58  L 62,59  L 63,59  L 63,60  Z  " style="fill:rgb(197, 190, 139); fill-opacity:1.000; stroke:none;" />
 <path d="  M 62,61  L 62,60  L 61,60  L 61,61  Z  " style="fill:rgb(197, 190, 139); fill-opacity:1.000; stroke:none;" />
 <path d="  M 63,61  L 62,61  L 62,62  L 63,62  Z  " style="fill:rgb(197, 190, 139); fill-opacity:1.000; stroke:none;" />
 <path d="  M 63,55  L 63,56  L 64,56  L 64,55  Z  " style="fill:rgb(197, 190, 139); fill-opacity:1.000; stroke:none;" />
 <path d="  M 2,47  L 2,46  L 0,46  L 0,48  L 1,48  L 1,47  Z  " style="fill:rgb(205, 198, 139); fill-opacity:1.000; stroke:none;" />
 <path d="  M 0,56  L 0,57  L 2,57  L 2,56  Z  " style="fill:rgb(205, 198, 139); fill-opacity:1.000; stroke:none;" />
 <path d="  M 2,60  L 2,59  L 0,59  L 0,60  Z  " style="fill:rgb(205, 198, 139); fill-opacity:1.000; stroke:none;" />
 <path d="  M 1,62  L 1,61  L 0,61  L 0,62  Z  " style="fill:rgb(205, 198, 139); fill-opacity:1.000; stroke:none;" />
 <path d="  M 3,42  L 2,42  L 2,43  L 3,43  Z  " style="fill:rgb(205, 198, 139); fill-opacity:1.000; stroke:none;" />
 <path d="  M 4,45  L 2,45  L 2,46  L 3,46  L 3,47  L 2,47  L 2,48  L 4,48  L 4,47  L 5,47  L 5,46  L 4,46  Z  " style="fill:rgb(205, 198, 139); fill-opacity:1.000; stroke:none;" />
 <path d="  M 3,58  L 3,57  L 2,57  L 2,58  Z  " style="fill:rgb(205, 198, 139); fill-opacity:1.000; stroke:none;" />
 <path d="  M 5,63  L 5,62  L 6,62  L 6,61  L 7,61  L 7,60  L 5,60  L 5,58  L 3,58  L 3,60  L 2,60  L 2,61  L 4,61  L 4,62  L 3,62  L 3,63  Z  " style="fill:rgb(205, 198, 139); fill-opacity:1.000; stroke:none;" />
 <path d="  M 3,51  L 4,51  L 4,50  L 3,50  Z  " style="fill:rgb(205, 198, 139); fill-opacity:1.000; stroke:none;" />
 <path d="  M 5,41  L 5,40  L 4,40  L 4,41  Z  " style="fill:rgb(205, 198, 139); fill-opacity:1.000; stroke:none;" />
 <path d="  M 4,44  L 4,45  L 5,45  L 5,46  L 7,46  L 7,47  L 6,47  L 6,48  L 5,48  L 5,49  L 8,49  L 8,48  L 9,48  L 9,46  L 10,46  L 10,45  L 11,45  L 11,46  L 12,46  L 12,44  L 11,44  L 11,42  L 10,42  L 10,41  L 8,41  L 8,42  L 9,42  L 9,43  L 7,43  L 7,44  L 6,44  L 6,43  L 5,43  L 5,44  Z  M 7,46  L 7,45  L 8,45  L 8,46  Z  " style="fill:rgb(205, 198, 139); fill-opacity:1.000; stroke:none;" />
 <path d="  M 5,50  L 5,49  L 4,49  L 4,50  Z  " style="fill:rgb(205, 198, 139); fill-opacity:1.000; stroke:none;" />
 <path d="  M 6,64  L 6,63  L 5,63  L 5,64  Z  " style="fill:rgb(205, 198, 139); fill-opacity:1.000; stroke:none;" />
 <path d="  M 8,41  L 8,40  L 6,40  L 6,41  Z  " style="fill:rgb(205, 198, 139); fill-opacity:1.000; stroke:none;" />
 <path d="  M 7,43  L 7,42  L 6,42  L 6,43  Z  " style="fill:rgb(205, 198, 139); fill-opacity:1.000; stroke:none;" />
 <path d="  M 7,63  L 7,62  L 6,62  L 6,63  Z  " style="fill:rgb(205, 198, 139); fill-opacity:1.000; stroke:none;" />
 <path d="  M 10,31  L 11,31  L 11,30  L 10,30  Z  " style="fill:rgb(205, 198, 139); fill-opacity:1.000; stroke:none;" />
 <path d="  M 11,47  L 11,46  L 10,46  L 10,47  Z  " style="fill:rgb(205, 198, 139); fill-opacity:1.000; stroke:none;" />
 <path d="  M 11,30  L 12,30  L 12,29  L 11,29  Z  " style="fill:rgb(205, 198, 139); fill-opacity:1.000; stroke:none;" />
 <path d="  M 15,30  L 15,31  L 14,31  L 14,30  Z  M 12,33  L 13,33  L 13,34  L 14,34  L 14,33  L 16,33  L 16,32  L 17,32  L 17,31  L 18,31  L 18,32  L 19,32  L 19,34  L 22,34  L 22,33  L 21,33  L 21,32  L 20,32  L 20,31  L 21,31  L 21,29  L 20,29  L 20,27  L 19,27  L 19,26  L 18,26  L 18,27  L 17,27  L 17,28  L 16,28  L 16,29  L 14,29  L 14,30  L 13,30  L 13,31  L 12,31  Z  M 17,29  L 17,28  L 18,28  L 18,29  Z  M 19,31  L 19,30  L 20,30  L 20,31  Z  " style="fill:rgb(205, 198, 139); fill-opacity:1.000; stroke:none;" />
 <path d="  M 12,43  L 12,44  L 13,44  L 13,43  Z  " style="fill:rgb(205, 198, 139); fill-opacity:1.000; stroke:none;" />
 <path d="  M 16,26  L 16,27  L 17,27  L 17,26  Z  " style="fill:rgb(205, 198, 139); fill-opacity:1.000; stroke:none;" />
 <path d="  M 18,25  L 17,25  L 17,26  L 18,26  Z  " style="fill:rgb(205, 198, 139); fill-opacity:1.000; stroke:none;" />
 <path d="  M 18,32  L 17,32  L 17,33  L 18,33  Z  " style="fill:rgb(205, 198, 139); fill-opacity:1.000; stroke:none;" />
 <path d="  M 21,56  L 21,57  L 23,57  L 23,58  L 24,58  L 24,57  L 25,57  L 25,56  L 27,56  L 27,55  L 28,55  L 28,54  L 27,54  L 27,53  L 28,53  L 28,52  L 30,52  L 30,53  L 31,53  L 31,51  L 30,51  L 30,49  L 28,49  L 28,48  L 27,48  L 27,49  L 26,49  L 26,50  L 25,50  L 25,51  L 24,51  L 24,50  L 23,50  L 23,52  L 24,52  L 24,53  L 23,53  L 23,54  L 22,54  L 22,55  L 21,55  L 21,54  L 20,54  L 20,56  Z  M 26,53  L 26,54  L 25,54  L 25,53  Z  M 25,54  L 25,55  L 24,55  L 24,54  Z  " style="fill:rgb(205, 198, 139); fill-opacity:1.000; stroke:none;" />
 <path d="  M 21,28  L 21,29  L 22,29  L 22,28  Z  " style="fill:rgb(205, 198, 139); fill-opacity:1.000; stroke:none;" />
 <path d="  M 21,31  L 21,32  L 22,32  L 22,31  Z  " style="fill:rgb(205, 198, 139); fill-opacity:1.000; stroke:none;" />
 <path d="  M 21,53  L 21,54  L 22,54  L 22,53  Z  " style="fill:rgb(205, 198, 139); fill-opacity:1.000; stroke:none;" />
 <path d="  M 21,60  L 22,60  L 22,59  L 21,59  Z  " style="fill:rgb(205, 198, 139); fill-opacity:1.000; stroke:none;" />
 <path d="  M 25,50  L 25,49  L 24,49  L 24,50  Z  " style="fill:rgb(205, 198, 139); fill-opacity:1.000; stroke:none;" />
 <path d="  M 26,19  L 26,20  L 38,20  L 38,19  Z  " style="fill:rgb(205, 198, 139); fill-opacity:1.000; stroke:none;" />
 <path d="  M 28,56  L 27,56  L 27,57  L 28,57  Z  " style="fill:rgb(205, 198, 139); fill-opacity:1.000; stroke:none;" />
 <path d="  M 28,53  L 28,54  L 29,54  L 29,53  Z  " style="fill:rgb(205, 198, 139); fill-opacity:1.000; stroke:none;" />
 <path d="  M 29,33  L 29,34  L 30,34  L 30,33  Z  " style="fill:rgb(205, 198, 139); fill-opacity:1.000; stroke:none;" />
 <path d="  M 30,41  L 30,42  L 31,42  L 31,41  Z  " style="fill:rgb(205, 198, 139); fill-opacity:1.000; stroke:none;" />
 <path d="  M 30,55  L 31,55  L 31,54  L 30,54  Z  " style="fill:rgb(205, 198, 139); fill-opacity:1.000; stroke:none;" />
 <path d="  M 32,33  L 31,33  L 31,34  L 32,34  Z  " style="fill:rgb(205, 198, 139); fill-opacity:1.000; stroke:none;" />
 <path d="  M 33,42  L 33,41  L 32,41  L 32,42  Z  " style="fill:rgb(205, 198, 139); fill-opacity:1.000; stroke:none;" />
 <path d="  M 33,33  L 34,33  L 34,34  L 37,34  L 37,33  L 35,33  L 35,32  L 33,32  Z  " style="fill:rgb(205, 198, 139); fill-opacity:1.000; stroke:none;" />
 <path d="  M 34,43  L 34,42  L 33,42  L 33,43  Z  " style="fill:rgb(205, 198, 139); fill-opacity:1.000; stroke:none;" />
 <path d="  M 37,52  L 37,54  L 38,54  L 38,53  L 39,53  L 39,52  L 40,52  L 40,51  L 38,51  L 38,52  Z  " style="fill:rgb(205, 198, 139); fill-opacity:1.000; stroke:none;" />
 <path d="  M 46,21  L 46,20  L 40,20  L 40,21  L 39,21  L 39,23  L 41,23  L 41,24  L 43,24  L 43,23  L 42,23  L 42,22  L 43,22  L 43,21  L 44,21  L 44,22  L 45,22  L 45,21  Z  " style="fill:rgb(205, 198, 139); fill-opacity:1.000; stroke:none;" />
 <path d="  M 39,54  L 40,54  L 40,53  L 39,53  Z  " style="fill:rgb(205, 198, 139); fill-opacity:1.000; stroke:none;" />
 <path d="  M 42,47  L 42,46  L 41,46  L 41,47  Z  " style="fill:rgb(205, 198, 139); fill-opacity:1.000; stroke:none;" />
 <path d="  M 43,51  L 42,51  L 42,50  L 41,50  L 41,52  L 42,52  L 42,53  L 43,53  Z  " style="fill:rgb(205, 198, 139); fill-opacity:1.000; stroke:none;" />
 <path d="  M 42,63  L 41,63  L 41,64  L 42,64  Z  " style="fill:rgb(205, 198, 139); fill-opacity:1.000; stroke:none;" />
 <path d="  M 44,47  L 44,48  L 45,48  L 45,49  L 46,49  L 46,50  L 47,50  L 47,49  L 48,49  L 48,47  L 47,47  L 47,46  L 44,46  L 44,44  L 43,44  L 43,45  L 42,45  L 42,46  L 43,46  L 43,47  Z  " style="fill:rgb(205, 198, 139); fill-opacity:1.000; stroke:none;" />
 <path d="  M 42,49  L 42,50  L 43,50  L 43,49  Z  " style="fill:rgb(205, 198, 139); fill-opacity:1.000; stroke:none;" />
 <path d="  M 42,61  L 42,63  L 43,63  L 43,62  L 44,62  L 44,61  Z  " style="fill:rgb(205, 198, 139); fill-opacity:1.000; stroke:none;" />
 <path d="  M 43,49  L 44,49  L 44,48  L 43,48  Z  " style="fill:rgb(205, 198, 139); fill-opacity:1.000; stroke:none;" />
 <path d="  M 43,50  L 43,51  L 44,51  L 44,50  Z  " style="fill:rgb(205, 198, 139); fill-opacity:1.000; stroke:none;" />
 <path d="  M 44,63  L 43,63  L 43,64  L 45,64  L 45,62  L 44,62  Z  " style="fill:rgb(205, 198, 139); fill-opacity:1.000; stroke:none;" />
 <path d="  M 44,34  L 45,34  L 45,33  L 44,33  Z  " style="fill:rgb(205, 198, 139); fill-opacity:1.000; stroke:none;" />
 <path d="  M 44,49  L 44,50  L 45,50  L 45,49  Z  " style="fill:rgb(205, 198, 139); fill-opacity:1.000; stroke:none;" />
 <path d="  M 47,31  L 47,32  L 48,32  L 48,31  Z  " style="fill:rgb(205, 198, 139); fill-opacity:1.000; stroke:none;" />
 <path d="  M 51,34  L 51,33  L 52,33  L 52,32  L 51,32  L 51,31  L 50,31  L 50,30  L 48,30  L 48,31  L 49,31  L 49,32  L 48,32  L 48,33  L 47,33  L 47,34  Z  M 50,33  L 49,33  L 49,32  L 50,32  Z  " style="fill:rgb(205, 198, 139); fill-opacity:1.000; stroke:none;" />
 <path d="  M 52,30  L 52,29  L 50,29  L 50,30  Z  " style="fill:rgb(205, 198, 139); fill-opacity:1.000; stroke:none;" />
 <path d="  M 53,29  L 53,30  L 52,30  L 52,31  L 53,31  L 53,32  L 54,32  L 54,29  Z  " style="fill:rgb(205, 198, 139); fill-opacity:1.000; stroke:none;" />
 <path d="  M 58,59  L 59,59  L 59,58  L 58,58  Z  " style="fill:rgb(205, 198, 139); fill-opacity:1.000; stroke:none;" />
 <path d="  M 60,57  L 59,57  L 59,58  L 60,58  L 60,59  L 59,59  L 59,60  L 58,60  L 58,62  L 59,62  L 59,61  L 61,61  L 61,60  L 62,60  L 62,61  L 63,61  L 63,62  L 64,62  L 64,60  L 63,60  L 63,59  L 62,59  L 62,58  L 61,58  L 61,56  L 60,56  Z  " style="fill:rgb(205, 198, 139); fill-opacity:1.000; stroke:none;" />
 <path d="  M 58,64  L 59,64  L 59,63  L 58,63  Z  " style="fill:rgb(205, 198, 139); fill-opacity:1.000; stroke:none;" />
 <path d="  M 60,63  L 60,64  L 62,64  L 62,63  Z  " style="fill:rgb(205, 198, 139); fill-opacity:1.000; stroke:none;" />
 <path d="  M 61,61  L 61,62  L 62,62  L 62,61  Z  " style="fill:rgb(205, 198, 139); fill-opacity:1.000; stroke:none;" />
 <path d="  M 62,55  L 62,56  L 63,56  L 63,55  Z  " style="fill:rgb(205, 198, 139); fill-opacity:1.000; stroke:none;" />
 <path d="  M 63,63  L 63,62  L 62,62  L 62,63  Z  " style="fill:rgb(205, 198, 139); fill-opacity:1.000; stroke:none;" />
 <path d="  M 63,57  L 64,57  L 64,56  L 63,56  Z  " style="fill:rgb(205, 198, 139); fill-opacity:1.000; stroke:none;" />
 <path d="  M 2,14  L 1,14  L 1,21  L 2,21  Z  " style="fill:rgb(36, 67, 59); fill-opacity:1.000; stroke:none;" />
 <path d="  M 12,34  L 12,35  L 14,35  L 14,34  Z  " style="fill:rgb(36, 67, 59); fill-opacity:1.000; stroke:none;" />
 <path d="  M 40,36  L 40,35  L 14,35  L 14,36  Z  " style="fill:rgb(36, 67, 59); fill-opacity:1.000; stroke:none;" />
 <path d="  M 64,13  L 63,13  L 63,20  L 62,20  L 62,21  L 63,21  L 63,24  L 64,24  Z  " style="fill:rgb(36, 67, 59); fill-opacity:1.000; stroke:none;" />
 <path d="  M 14,36  L 14,35  L 12,35  L 12,34  L 10,34  L 10,33  L 9,33  L 9,32  L 8,32  L 8,31  L 7,31  L 7,30  L 6,30  L 6,24  L 7,24  L 7,22  L 8,22  L 8,21  L 9,21  L 9,20  L 10,20  L 10,19  L 12,19  L 12,18  L 52,18  L 52,19  L 54,19  L 54,20  L 55,20  L 55,21  L 56,21  L 56,22  L 58,22  L 58,24  L 59,24  L 59,30  L 58,30  L 58,31  L 57,31  L 57,32  L 56,32  L 56,33  L 55,33  L 55,34  L 54,34  L 54,35  L 52,35  L 52,36  Z  M 63,24  L 62,24  L 62,21  L 61,21  L 61,19  L 60,19  L 60,18  L 59,18  L 59,17  L 57,17  L 57,16  L 54,16  L 54,15  L 10,15  L 10,16  L 7,16  L 7,17  L 5,17  L 5,18  L 4,18  L 4,19  L 3,19  L 3,21  L 2,21  L 2,24  L 1,24  L 1,29  L 2,29  L 2,32  L 3,32  L 3,34  L 4,34  L 4,35  L 5,35  L 5,36  L 6,36  L 6,37  L 7,37  L 7,38  L 8,38  L 8,39  L 11,39  L 11,40  L 53,40  L 53,39  L 56,39  L 56,38  L 58,38  L 58,36  L 59,36  L 59,35  L 60,35  L 60,34  L 61,34  L 61,32  L 62,32  L 62,29  L 63,29  Z  " style="fill:rgb(19, 46, 55); fill-opacity:1.000; stroke:none;" />
 <path d="  M 3,17  L 3,16  L 4,16  L 4,15  L 5,15  L 5,14  L 3,14  L 3,15  L 2,15  L 2,17  Z  " style="fill:rgb(153, 198, 147); fill-opacity:1.000; stroke:none;" />
 <path d="  M 61,14  L 59,14  L 59,15  L 60,15  L 60,16  L 61,16  L 61,17  L 62,17  L 62,15  L 61,15  Z  " style="fill:rgb(153, 198, 147); fill-opacity:1.000; stroke:none;" />
 <path d="  M 3,17  L 2,17  L 2,18  L 3,18  Z  " style="fill:rgb(114, 178, 120); fill-opacity:1.000; stroke:none;" />
 <path d="  M 3,17  L 4,17  L 4,16  L 3,16  Z  " style="fill:rgb(114, 178, 120); fill-opacity:1.000; stroke:none;" />
 <path d="  M 5,16  L 5,15  L 4,15  L 4,16  Z  " style="fill:rgb(114, 178, 120); fill-opacity:1.000; stroke:none;" />
 <path d="  M 6,15  L 6,14  L 5,14  L 5,15  Z  " style="fill:rgb(114, 178, 120); fill-opacity:1.000; stroke:none;" />
 <path d="  M 58,15  L 59,15  L 59,14  L 58,14  Z  " style="fill:rgb(114, 178, 120); fill-opacity:1.000; stroke:none;" />
 <path d="  M 60,16  L 60,15  L 59,15  L 59,16  Z  " style="fill:rgb(114, 178, 120); fill-opacity:1.000; stroke:none;" />
 <path d="  M 61,17  L 61,16  L 60,16  L 60,17  Z  " style="fill:rgb(114, 178, 120); fill-opacity:1.000; stroke:none;" />
 <path d="  M 61,17  L 61,18  L 62,18  L 62,17  Z  " style="fill:rgb(114, 178, 120); fill-opacity:1.000; stroke:none;" />
 <path d="  M 12,20  L 12,19  L 10,19  L 10,20  Z  " style="fill:rgb(171, 134, 95); fill-opacity:1.000; stroke:none;" />
 <path d="  M 12,18  L 12,19  L 18,19  L 18,18  Z  " style="fill:rgb(171, 134, 95); fill-opacity:1.000; stroke:none;" />
 <path d="  M 46,18  L 46,19  L 52,19  L 52,18  Z  " style="fill:rgb(171, 134, 95); fill-opacity:1.000; stroke:none;" />
 <path d="  M 54,20  L 54,19  L 52,19  L 52,20  Z  " style="fill:rgb(171, 134, 95); fill-opacity:1.000; stroke:none;" />
</svg>
