<?xml version="1.0" encoding="UTF-8" standalone="no"?>
<!DOCTYPE svg PUBLIC "-//W3C//DTD SVG 1.1//EN" 
  "http://www.w3.org/Graphics/SVG/1.1/DTD/svg11.dtd">
<svg width="64" height="64"
	 xmlns="http://www.w3.org/2000/svg" version="1.1">
 <path d="  M 4,37  L 4,36  L 3,36  L 3,34  L 1,34  L 1,35  L 2,35  L 2,37  Z  " style="fill:rgb(83, 85, 83); fill-opacity:1.000; stroke:none;" />
 <path d="  M 3,34  L 4,34  L 4,31  L 3,31  Z  " style="fill:rgb(83, 85, 83); fill-opacity:1.000; stroke:none;" />
 <path d="  M 4,31  L 5,31  L 5,30  L 4,30  Z  " style="fill:rgb(83, 85, 83); fill-opacity:1.000; stroke:none;" />
 <path d="  M 5,37  L 4,37  L 4,38  L 5,38  Z  " style="fill:rgb(83, 85, 83); fill-opacity:1.000; stroke:none;" />
 <path d="  M 5,30  L 6,30  L 6,29  L 7,29  L 7,28  L 8,28  L 8,27  L 6,27  L 6,28  L 5,28  Z  " style="fill:rgb(83, 85, 83); fill-opacity:1.000; stroke:none;" />
 <path d="  M 6,37  L 6,38  L 7,38  L 7,36  L 5,36  L 5,37  Z  " style="fill:rgb(83, 85, 83); fill-opacity:1.000; stroke:none;" />
 <path d="  M 6,38  L 5,38  L 5,39  L 6,39  Z  " style="fill:rgb(83, 85, 83); fill-opacity:1.000; stroke:none;" />
 <path d="  M 11,27  L 11,26  L 8,26  L 8,27  Z  " style="fill:rgb(83, 85, 83); fill-opacity:1.000; stroke:none;" />
 <path d="  M 9,37  L 8,37  L 8,38  L 9,38  Z  " style="fill:rgb(83, 85, 83); fill-opacity:1.000; stroke:none;" />
 <path d="  M 10,37  L 11,37  L 11,38  L 12,38  L 12,37  L 13,37  L 13,36  L 12,36  L 12,35  L 11,35  L 11,36  L 10,36  Z  " style="fill:rgb(83, 85, 83); fill-opacity:1.000; stroke:none;" />
 <path d="  M 11,39  L 11,38  L 10,38  L 10,39  Z  " style="fill:rgb(83, 85, 83); fill-opacity:1.000; stroke:none;" />
 <path d="  M 11,39  L 11,40  L 12,40  L 12,39  Z  " style="fill:rgb(83, 85, 83); fill-opacity:1.000; stroke:none;" />
 <path d="  M 15,38  L 15,37  L 14,37  L 14,38  Z  " style="fill:rgb(83, 85, 83); fill-opacity:1.000; stroke:none;" />
 <path d="  M 17,38  L 16,38  L 16,39  L 17,39  Z  " style="fill:rgb(83, 85, 83); fill-opacity:1.000; stroke:none;" />
 <path d="  M 17,42  L 18,42  L 18,40  L 17,40  Z  " style="fill:rgb(83, 85, 83); fill-opacity:1.000; stroke:none;" />
 <path d="  M 19,44  L 19,42  L 18,42  L 18,44  Z  " style="fill:rgb(83, 85, 83); fill-opacity:1.000; stroke:none;" />
 <path d="  M 19,46  L 20,46  L 20,44  L 19,44  Z  " style="fill:rgb(83, 85, 83); fill-opacity:1.000; stroke:none;" />
 <path d="  M 20,46  L 20,47  L 21,47  L 21,46  Z  " style="fill:rgb(83, 85, 83); fill-opacity:1.000; stroke:none;" />
 <path d="  M 26,6  L 25,6  L 25,10  L 26,10  L 26,11  L 27,11  L 27,9  L 28,9  L 28,7  L 29,7  L 29,9  L 30,9  L 30,6  L 29,6  L 29,5  L 28,5  L 28,4  L 27,4  L 27,5  L 26,5  Z  M 27,8  L 27,9  L 26,9  L 26,8  Z  M 27,7  L 27,6  L 28,6  L 28,7  Z  " style="fill:rgb(83, 85, 83); fill-opacity:1.000; stroke:none;" />
 <path d="  M 25,22  L 28,22  L 28,21  L 29,21  L 29,20  L 27,20  L 27,21  L 25,21  Z  " style="fill:rgb(83, 85, 83); fill-opacity:1.000; stroke:none;" />
 <path d="  M 26,18  L 27,18  L 27,17  L 26,17  Z  " style="fill:rgb(83, 85, 83); fill-opacity:1.000; stroke:none;" />
 <path d="  M 27,12  L 28,12  L 28,11  L 27,11  Z  " style="fill:rgb(83, 85, 83); fill-opacity:1.000; stroke:none;" />
 <path d="  M 27,19  L 29,19  L 29,20  L 30,20  L 30,18  L 29,18  L 29,17  L 28,17  L 28,18  L 27,18  Z  " style="fill:rgb(83, 85, 83); fill-opacity:1.000; stroke:none;" />
 <path d="  M 28,3  L 28,4  L 29,4  L 29,5  L 30,5  L 30,3  Z  " style="fill:rgb(83, 85, 83); fill-opacity:1.000; stroke:none;" />
 <path d="  M 29,11  L 29,10  L 28,10  L 28,11  Z  " style="fill:rgb(83, 85, 83); fill-opacity:1.000; stroke:none;" />
 <path d="  M 30,12  L 29,12  L 29,13  L 30,13  Z  " style="fill:rgb(83, 85, 83); fill-opacity:1.000; stroke:none;" />
 <path d="  M 30,16  L 29,16  L 29,17  L 30,17  Z  " style="fill:rgb(83, 85, 83); fill-opacity:1.000; stroke:none;" />
 <path d="  M 30,3  L 31,3  L 31,2  L 32,2  L 32,1  L 30,1  Z  " style="fill:rgb(83, 85, 83); fill-opacity:1.000; stroke:none;" />
 <path d="  M 32,3  L 32,6  L 33,6  L 33,8  L 34,8  L 34,7  L 35,7  L 35,6  L 36,6  L 36,5  L 35,5  L 35,4  L 34,4  L 34,3  Z  M 33,5  L 34,5  L 34,6  L 33,6  Z  " style="fill:rgb(83, 85, 83); fill-opacity:1.000; stroke:none;" />
 <path d="  M 33,8  L 32,8  L 32,10  L 33,10  Z  " style="fill:rgb(83, 85, 83); fill-opacity:1.000; stroke:none;" />
 <path d="  M 32,12  L 32,13  L 33,13  L 33,12  Z  " style="fill:rgb(83, 85, 83); fill-opacity:1.000; stroke:none;" />
 <path d="  M 33,16  L 32,16  L 32,18  L 34,18  L 34,19  L 37,19  L 37,18  L 38,18  L 38,17  L 36,17  L 36,18  L 35,18  L 35,17  L 33,17  Z  " style="fill:rgb(83, 85, 83); fill-opacity:1.000; stroke:none;" />
 <path d="  M 32,19  L 32,20  L 34,20  L 34,19  Z  " style="fill:rgb(83, 85, 83); fill-opacity:1.000; stroke:none;" />
 <path d="  M 33,10  L 33,11  L 35,11  L 35,10  Z  " style="fill:rgb(83, 85, 83); fill-opacity:1.000; stroke:none;" />
 <path d="  M 34,20  L 34,21  L 36,21  L 36,22  L 38,22  L 38,21  L 37,21  L 37,20  Z  " style="fill:rgb(83, 85, 83); fill-opacity:1.000; stroke:none;" />
 <path d="  M 36,8  L 37,8  L 37,6  L 36,6  L 36,7  L 35,7  L 35,10  L 36,10  Z  " style="fill:rgb(83, 85, 83); fill-opacity:1.000; stroke:none;" />
 <path d="  M 39,22  L 38,22  L 38,23  L 39,23  Z  " style="fill:rgb(83, 85, 83); fill-opacity:1.000; stroke:none;" />
 <path d="  M 43,47  L 43,48  L 44,48  L 44,47  Z  " style="fill:rgb(83, 85, 83); fill-opacity:1.000; stroke:none;" />
 <path d="  M 46,32  L 44,32  L 44,33  L 46,33  Z  " style="fill:rgb(83, 85, 83); fill-opacity:1.000; stroke:none;" />
 <path d="  M 46,47  L 46,46  L 44,46  L 44,47  Z  " style="fill:rgb(83, 85, 83); fill-opacity:1.000; stroke:none;" />
 <path d="  M 46,32  L 47,32  L 47,31  L 46,31  Z  " style="fill:rgb(83, 85, 83); fill-opacity:1.000; stroke:none;" />
 <path d="  M 46,45  L 46,46  L 47,46  L 47,45  Z  " style="fill:rgb(83, 85, 83); fill-opacity:1.000; stroke:none;" />
 <path d="  M 47,30  L 47,31  L 49,31  L 49,30  Z  " style="fill:rgb(83, 85, 83); fill-opacity:1.000; stroke:none;" />
 <path d="  M 48,45  L 48,44  L 47,44  L 47,45  Z  " style="fill:rgb(83, 85, 83); fill-opacity:1.000; stroke:none;" />
 <path d="  M 48,44  L 50,44  L 50,43  L 48,43  Z  " style="fill:rgb(83, 85, 83); fill-opacity:1.000; stroke:none;" />
 <path d="  M 50,29  L 50,30  L 51,30  L 51,29  Z  " style="fill:rgb(83, 85, 83); fill-opacity:1.000; stroke:none;" />
 <path d="  M 54,29  L 54,28  L 51,28  L 51,29  Z  " style="fill:rgb(83, 85, 83); fill-opacity:1.000; stroke:none;" />
 <path d="  M 51,42  L 51,43  L 52,43  L 52,42  Z  " style="fill:rgb(83, 85, 83); fill-opacity:1.000; stroke:none;" />
 <path d="  M 55,41  L 53,41  L 53,42  L 55,42  Z  " style="fill:rgb(83, 85, 83); fill-opacity:1.000; stroke:none;" />
 <path d="  M 54,30  L 55,30  L 55,31  L 56,31  L 56,29  L 54,29  Z  " style="fill:rgb(83, 85, 83); fill-opacity:1.000; stroke:none;" />
 <path d="  M 57,31  L 56,31  L 56,32  L 57,32  Z  " style="fill:rgb(83, 85, 83); fill-opacity:1.000; stroke:none;" />
 <path d="  M 58,30  L 57,30  L 57,31  L 58,31  Z  " style="fill:rgb(83, 85, 83); fill-opacity:1.000; stroke:none;" />
 <path d="  M 58,32  L 58,33  L 59,33  L 59,32  Z  " style="fill:rgb(83, 85, 83); fill-opacity:1.000; stroke:none;" />
 <path d="  M 59,40  L 58,40  L 58,41  L 59,41  Z  " style="fill:rgb(83, 85, 83); fill-opacity:1.000; stroke:none;" />
 <path d="  M 60,34  L 59,34  L 59,35  L 60,35  Z  " style="fill:rgb(83, 85, 83); fill-opacity:1.000; stroke:none;" />
 <path d="  M 61,40  L 61,38  L 60,38  L 60,39  L 59,39  L 59,40  Z  " style="fill:rgb(83, 85, 83); fill-opacity:1.000; stroke:none;" />
 <path d="  M 61,36  L 60,36  L 60,37  L 61,37  Z  " style="fill:rgb(83, 85, 83); fill-opacity:1.000; stroke:none;" />
 <path d="  M 1,37  L 2,37  L 2,35  L 1,35  Z  " style="fill:rgb(66, 69, 66); fill-opacity:1.000; stroke:none;" />
 <path d="  M 3,32  L 2,32  L 2,34  L 3,34  Z  " style="fill:rgb(66, 69, 66); fill-opacity:1.000; stroke:none;" />
 <path d="  M 2,37  L 2,38  L 3,38  L 3,39  L 5,39  L 5,38  L 4,38  L 4,37  Z  " style="fill:rgb(66, 69, 66); fill-opacity:1.000; stroke:none;" />
 <path d="  M 4,30  L 3,30  L 3,31  L 4,31  Z  " style="fill:rgb(66, 69, 66); fill-opacity:1.000; stroke:none;" />
 <path d="  M 4,29  L 4,30  L 5,30  L 5,29  Z  " style="fill:rgb(66, 69, 66); fill-opacity:1.000; stroke:none;" />
 <path d="  M 5,38  L 6,38  L 6,37  L 5,37  Z  " style="fill:rgb(66, 69, 66); fill-opacity:1.000; stroke:none;" />
 <path d="  M 8,38  L 8,37  L 7,37  L 7,38  Z  " style="fill:rgb(66, 69, 66); fill-opacity:1.000; stroke:none;" />
 <path d="  M 8,39  L 9,39  L 9,40  L 11,40  L 11,39  L 10,39  L 10,38  L 8,38  Z  " style="fill:rgb(66, 69, 66); fill-opacity:1.000; stroke:none;" />
 <path d="  M 10,37  L 10,38  L 11,38  L 11,37  Z  " style="fill:rgb(66, 69, 66); fill-opacity:1.000; stroke:none;" />
 <path d="  M 12,37  L 12,38  L 11,38  L 11,39  L 13,39  L 13,38  L 14,38  L 14,37  Z  " style="fill:rgb(66, 69, 66); fill-opacity:1.000; stroke:none;" />
 <path d="  M 26,8  L 26,9  L 27,9  L 27,8  Z  " style="fill:rgb(66, 69, 66); fill-opacity:1.000; stroke:none;" />
 <path d="  M 27,7  L 28,7  L 28,6  L 27,6  Z  " style="fill:rgb(66, 69, 66); fill-opacity:1.000; stroke:none;" />
 <path d="  M 30,9  L 29,9  L 29,7  L 28,7  L 28,9  L 27,9  L 27,10  L 29,10  L 29,12  L 30,12  Z  " style="fill:rgb(66, 69, 66); fill-opacity:1.000; stroke:none;" />
 <path d="  M 32,8  L 33,8  L 33,6  L 32,6  Z  " style="fill:rgb(66, 69, 66); fill-opacity:1.000; stroke:none;" />
 <path d="  M 32,12  L 33,12  L 33,10  L 32,10  Z  " style="fill:rgb(66, 69, 66); fill-opacity:1.000; stroke:none;" />
 <path d="  M 34,5  L 33,5  L 33,6  L 34,6  Z  " style="fill:rgb(66, 69, 66); fill-opacity:1.000; stroke:none;" />
 <path d="  M 33,10  L 34,10  L 34,9  L 35,9  L 35,7  L 34,7  L 34,8  L 33,8  Z  " style="fill:rgb(66, 69, 66); fill-opacity:1.000; stroke:none;" />
 <path d="  M 36,7  L 36,6  L 35,6  L 35,7  Z  " style="fill:rgb(66, 69, 66); fill-opacity:1.000; stroke:none;" />
 <path d="  M 48,30  L 50,30  L 50,29  L 48,29  Z  " style="fill:rgb(66, 69, 66); fill-opacity:1.000; stroke:none;" />
 <path d="  M 51,29  L 51,28  L 50,28  L 50,29  Z  " style="fill:rgb(66, 69, 66); fill-opacity:1.000; stroke:none;" />
 <path d="  M 50,44  L 51,44  L 51,43  L 50,43  Z  " style="fill:rgb(66, 69, 66); fill-opacity:1.000; stroke:none;" />
 <path d="  M 52,42  L 52,43  L 54,43  L 54,42  Z  " style="fill:rgb(66, 69, 66); fill-opacity:1.000; stroke:none;" />
 <path d="  M 56,40  L 56,41  L 55,41  L 55,42  L 57,42  L 57,41  L 58,41  L 58,40  Z  " style="fill:rgb(66, 69, 66); fill-opacity:1.000; stroke:none;" />
 <path d="  M 57,30  L 56,30  L 56,31  L 57,31  Z  " style="fill:rgb(66, 69, 66); fill-opacity:1.000; stroke:none;" />
 <path d="  M 59,32  L 59,31  L 57,31  L 57,32  Z  " style="fill:rgb(66, 69, 66); fill-opacity:1.000; stroke:none;" />
 <path d="  M 60,32  L 59,32  L 59,34  L 60,34  Z  " style="fill:rgb(66, 69, 66); fill-opacity:1.000; stroke:none;" />
 <path d="  M 60,41  L 60,40  L 59,40  L 59,41  Z  " style="fill:rgb(66, 69, 66); fill-opacity:1.000; stroke:none;" />
 <path d="  M 61,34  L 60,34  L 60,36  L 61,36  Z  " style="fill:rgb(66, 69, 66); fill-opacity:1.000; stroke:none;" />
 <path d="  M 61,39  L 62,39  L 62,36  L 61,36  Z  " style="fill:rgb(66, 69, 66); fill-opacity:1.000; stroke:none;" />
 <path d="  M 4,34  L 3,34  L 3,36  L 4,36  Z  " style="fill:rgb(107, 110, 107); fill-opacity:1.000; stroke:none;" />
 <path d="  M 5,32  L 6,32  L 6,30  L 5,30  L 5,31  L 4,31  L 4,34  L 5,34  Z  " style="fill:rgb(107, 110, 107); fill-opacity:1.000; stroke:none;" />
 <path d="  M 4,36  L 4,37  L 5,37  L 5,36  Z  " style="fill:rgb(107, 110, 107); fill-opacity:1.000; stroke:none;" />
 <path d="  M 7,32  L 6,32  L 6,35  L 5,35  L 5,36  L 7,36  L 7,33  L 8,33  L 8,31  L 9,31  L 9,30  L 7,30  Z  " style="fill:rgb(107, 110, 107); fill-opacity:1.000; stroke:none;" />
 <path d="  M 6,30  L 7,30  L 7,29  L 6,29  Z  " style="fill:rgb(107, 110, 107); fill-opacity:1.000; stroke:none;" />
 <path d="  M 7,28  L 7,29  L 8,29  L 8,28  Z  " style="fill:rgb(107, 110, 107); fill-opacity:1.000; stroke:none;" />
 <path d="  M 9,37  L 9,38  L 10,38  L 10,36  L 9,36  L 9,35  L 8,35  L 8,36  L 7,36  L 7,37  Z  " style="fill:rgb(107, 110, 107); fill-opacity:1.000; stroke:none;" />
 <path d="  M 10,27  L 8,27  L 8,28  L 10,28  Z  " style="fill:rgb(107, 110, 107); fill-opacity:1.000; stroke:none;" />
 <path d="  M 10,30  L 10,29  L 9,29  L 9,30  Z  " style="fill:rgb(107, 110, 107); fill-opacity:1.000; stroke:none;" />
 <path d="  M 18,32  L 16,32  L 16,31  L 15,31  L 15,32  L 14,32  L 14,33  L 12,33  L 12,32  L 13,32  L 13,30  L 12,30  L 12,31  L 11,31  L 11,32  L 10,32  L 10,33  L 9,33  L 9,35  L 10,35  L 10,36  L 11,36  L 11,35  L 12,35  L 12,36  L 13,36  L 13,37  L 15,37  L 15,36  L 14,36  L 14,35  L 16,35  L 16,36  L 17,36  L 17,34  L 18,34  L 18,35  L 19,35  L 19,37  L 20,37  L 20,36  L 21,36  L 21,35  L 20,35  L 20,34  L 19,34  L 19,33  L 18,33  Z  M 17,33  L 17,34  L 16,34  L 16,33  Z  M 12,33  L 12,34  L 11,34  L 11,33  Z  M 13,35  L 13,34  L 14,34  L 14,35  Z  " style="fill:rgb(107, 110, 107); fill-opacity:1.000; stroke:none;" />
 <path d="  M 17,29  L 17,28  L 15,28  L 15,27  L 12,27  L 12,28  L 10,28  L 10,29  Z  " style="fill:rgb(107, 110, 107); fill-opacity:1.000; stroke:none;" />
 <path d="  M 12,26  L 11,26  L 11,27  L 12,27  Z  " style="fill:rgb(107, 110, 107); fill-opacity:1.000; stroke:none;" />
 <path d="  M 12,25  L 12,26  L 14,26  L 14,25  Z  " style="fill:rgb(107, 110, 107); fill-opacity:1.000; stroke:none;" />
 <path d="  M 16,26  L 16,25  L 15,25  L 15,26  Z  " style="fill:rgb(107, 110, 107); fill-opacity:1.000; stroke:none;" />
 <path d="  M 17,37  L 15,37  L 15,38  L 17,38  Z  " style="fill:rgb(107, 110, 107); fill-opacity:1.000; stroke:none;" />
 <path d="  M 16,26  L 16,27  L 17,27  L 17,26  Z  " style="fill:rgb(107, 110, 107); fill-opacity:1.000; stroke:none;" />
 <path d="  M 19,29  L 17,29  L 17,30  L 19,30  Z  " style="fill:rgb(107, 110, 107); fill-opacity:1.000; stroke:none;" />
 <path d="  M 18,37  L 18,36  L 17,36  L 17,37  Z  " style="fill:rgb(107, 110, 107); fill-opacity:1.000; stroke:none;" />
 <path d="  M 17,38  L 17,40  L 18,40  L 18,38  Z  " style="fill:rgb(107, 110, 107); fill-opacity:1.000; stroke:none;" />
 <path d="  M 18,41  L 18,42  L 19,42  L 19,41  Z  " style="fill:rgb(107, 110, 107); fill-opacity:1.000; stroke:none;" />
 <path d="  M 20,42  L 19,42  L 19,44  L 20,44  Z  " style="fill:rgb(107, 110, 107); fill-opacity:1.000; stroke:none;" />
 <path d="  M 23,40  L 22,40  L 22,38  L 21,38  L 21,37  L 20,37  L 20,39  L 21,39  L 21,41  L 22,41  L 22,42  L 21,42  L 21,44  L 20,44  L 20,46  L 21,46  L 21,45  L 22,45  L 22,47  L 23,47  L 23,48  L 24,48  L 24,46  L 23,46  L 23,44  L 22,44  L 22,43  L 23,43  Z  " style="fill:rgb(107, 110, 107); fill-opacity:1.000; stroke:none;" />
 <path d="  M 23,30  L 21,30  L 21,31  L 25,31  L 25,30  L 27,30  L 27,29  L 23,29  Z  " style="fill:rgb(107, 110, 107); fill-opacity:1.000; stroke:none;" />
 <path d="  M 24,19  L 24,20  L 26,20  L 26,19  L 27,19  L 27,18  L 25,18  L 25,19  Z  " style="fill:rgb(107, 110, 107); fill-opacity:1.000; stroke:none;" />
 <path d="  M 24,21  L 24,22  L 25,22  L 25,21  Z  " style="fill:rgb(107, 110, 107); fill-opacity:1.000; stroke:none;" />
 <path d="  M 25,48  L 24,48  L 24,49  L 25,49  Z  " style="fill:rgb(107, 110, 107); fill-opacity:1.000; stroke:none;" />
 <path d="  M 28,23  L 28,22  L 25,22  L 25,23  Z  " style="fill:rgb(107, 110, 107); fill-opacity:1.000; stroke:none;" />
 <path d="  M 27,29  L 29,29  L 29,28  L 30,28  L 30,27  L 29,27  L 29,26  L 30,26  L 30,25  L 27,25  L 27,26  L 25,26  L 25,27  L 28,27  L 28,28  L 27,28  Z  " style="fill:rgb(107, 110, 107); fill-opacity:1.000; stroke:none;" />
 <path d="  M 25,32  L 26,32  L 26,31  L 25,31  Z  " style="fill:rgb(107, 110, 107); fill-opacity:1.000; stroke:none;" />
 <path d="  M 26,20  L 26,21  L 27,21  L 27,20  Z  " style="fill:rgb(107, 110, 107); fill-opacity:1.000; stroke:none;" />
 <path d="  M 26,25  L 27,25  L 27,24  L 26,24  Z  " style="fill:rgb(107, 110, 107); fill-opacity:1.000; stroke:none;" />
 <path d="  M 27,32  L 26,32  L 26,33  L 28,33  L 28,32  L 30,32  L 30,31  L 27,31  Z  " style="fill:rgb(107, 110, 107); fill-opacity:1.000; stroke:none;" />
 <path d="  M 28,10  L 27,10  L 27,11  L 28,11  Z  " style="fill:rgb(107, 110, 107); fill-opacity:1.000; stroke:none;" />
 <path d="  M 28,14  L 28,16  L 27,16  L 27,18  L 28,18  L 28,17  L 29,17  L 29,16  L 30,16  L 30,15  L 29,15  L 29,14  Z  " style="fill:rgb(107, 110, 107); fill-opacity:1.000; stroke:none;" />
 <path d="  M 27,19  L 27,20  L 29,20  L 29,19  Z  " style="fill:rgb(107, 110, 107); fill-opacity:1.000; stroke:none;" />
 <path d="  M 27,63  L 27,64  L 28,64  L 28,63  Z  " style="fill:rgb(107, 110, 107); fill-opacity:1.000; stroke:none;" />
 <path d="  M 28,5  L 29,5  L 29,4  L 28,4  Z  " style="fill:rgb(107, 110, 107); fill-opacity:1.000; stroke:none;" />
 <path d="  M 29,11  L 28,11  L 28,13  L 29,13  Z  " style="fill:rgb(107, 110, 107); fill-opacity:1.000; stroke:none;" />
 <path d="  M 30,20  L 29,20  L 29,21  L 28,21  L 28,22  L 30,22  Z  " style="fill:rgb(107, 110, 107); fill-opacity:1.000; stroke:none;" />
 <path d="  M 28,23  L 28,24  L 30,24  L 30,23  Z  " style="fill:rgb(107, 110, 107); fill-opacity:1.000; stroke:none;" />
 <path d="  M 29,62  L 28,62  L 28,63  L 29,63  Z  " style="fill:rgb(107, 110, 107); fill-opacity:1.000; stroke:none;" />
 <path d="  M 30,2  L 29,2  L 29,3  L 30,3  Z  " style="fill:rgb(107, 110, 107); fill-opacity:1.000; stroke:none;" />
 <path d="  M 31,5  L 29,5  L 29,6  L 30,6  L 30,7  L 31,7  Z  " style="fill:rgb(107, 110, 107); fill-opacity:1.000; stroke:none;" />
 <path d="  M 29,13  L 29,14  L 30,14  L 30,13  Z  " style="fill:rgb(107, 110, 107); fill-opacity:1.000; stroke:none;" />
 <path d="  M 29,18  L 30,18  L 30,17  L 29,17  Z  " style="fill:rgb(107, 110, 107); fill-opacity:1.000; stroke:none;" />
 <path d="  M 31,3  L 30,3  L 30,4  L 31,4  L 31,5  L 32,5  L 32,3  L 33,3  L 33,2  L 31,2  Z  " style="fill:rgb(107, 110, 107); fill-opacity:1.000; stroke:none;" />
 <path d="  M 33,14  L 33,13  L 32,13  L 32,14  Z  " style="fill:rgb(107, 110, 107); fill-opacity:1.000; stroke:none;" />
 <path d="  M 33,16  L 33,17  L 35,17  L 35,16  L 34,16  L 34,15  L 32,15  L 32,16  Z  " style="fill:rgb(107, 110, 107); fill-opacity:1.000; stroke:none;" />
 <path d="  M 32,19  L 34,19  L 34,18  L 32,18  Z  " style="fill:rgb(107, 110, 107); fill-opacity:1.000; stroke:none;" />
 <path d="  M 33,22  L 36,22  L 36,21  L 34,21  L 34,20  L 32,20  L 32,23  L 33,23  Z  " style="fill:rgb(107, 110, 107); fill-opacity:1.000; stroke:none;" />
 <path d="  M 33,26  L 33,25  L 32,25  L 32,26  Z  " style="fill:rgb(107, 110, 107); fill-opacity:1.000; stroke:none;" />
 <path d="  M 32,27  L 32,28  L 34,28  L 34,29  L 37,29  L 37,28  L 35,28  L 35,27  Z  " style="fill:rgb(107, 110, 107); fill-opacity:1.000; stroke:none;" />
 <path d="  M 36,33  L 36,32  L 34,32  L 34,31  L 35,31  L 35,30  L 34,30  L 34,29  L 32,29  L 32,30  L 33,30  L 33,31  L 32,31  L 32,32  L 33,32  L 33,33  Z  " style="fill:rgb(107, 110, 107); fill-opacity:1.000; stroke:none;" />
 <path d="  M 32,34  L 33,34  L 33,33  L 32,33  Z  " style="fill:rgb(107, 110, 107); fill-opacity:1.000; stroke:none;" />
 <path d="  M 35,12  L 35,11  L 33,11  L 33,13  L 34,13  L 34,12  Z  " style="fill:rgb(107, 110, 107); fill-opacity:1.000; stroke:none;" />
 <path d="  M 36,22  L 36,23  L 34,23  L 34,24  L 33,24  L 33,25  L 34,25  L 34,26  L 36,26  L 36,25  L 35,25  L 35,24  L 37,24  L 37,23  L 38,23  L 38,22  Z  " style="fill:rgb(107, 110, 107); fill-opacity:1.000; stroke:none;" />
 <path d="  M 35,9  L 34,9  L 34,10  L 35,10  Z  " style="fill:rgb(107, 110, 107); fill-opacity:1.000; stroke:none;" />
 <path d="  M 36,20  L 36,19  L 34,19  L 34,20  Z  " style="fill:rgb(107, 110, 107); fill-opacity:1.000; stroke:none;" />
 <path d="  M 36,11  L 36,10  L 35,10  L 35,11  Z  " style="fill:rgb(107, 110, 107); fill-opacity:1.000; stroke:none;" />
 <path d="  M 36,17  L 35,17  L 35,18  L 36,18  Z  " style="fill:rgb(107, 110, 107); fill-opacity:1.000; stroke:none;" />
 <path d="  M 36,62  L 35,62  L 35,63  L 36,63  Z  " style="fill:rgb(107, 110, 107); fill-opacity:1.000; stroke:none;" />
 <path d="  M 36,8  L 36,10  L 37,10  L 37,8  Z  " style="fill:rgb(107, 110, 107); fill-opacity:1.000; stroke:none;" />
 <path d="  M 38,26  L 36,26  L 36,27  L 38,27  Z  " style="fill:rgb(107, 110, 107); fill-opacity:1.000; stroke:none;" />
 <path d="  M 36,31  L 36,32  L 38,32  L 38,31  Z  " style="fill:rgb(107, 110, 107); fill-opacity:1.000; stroke:none;" />
 <path d="  M 36,33  L 36,34  L 38,34  L 38,33  Z  " style="fill:rgb(107, 110, 107); fill-opacity:1.000; stroke:none;" />
 <path d="  M 36,64  L 37,64  L 37,63  L 36,63  Z  " style="fill:rgb(107, 110, 107); fill-opacity:1.000; stroke:none;" />
 <path d="  M 37,19  L 39,19  L 39,18  L 37,18  Z  " style="fill:rgb(107, 110, 107); fill-opacity:1.000; stroke:none;" />
 <path d="  M 37,20  L 37,21  L 38,21  L 38,20  Z  " style="fill:rgb(107, 110, 107); fill-opacity:1.000; stroke:none;" />
 <path d="  M 37,29  L 37,30  L 39,30  L 39,29  Z  " style="fill:rgb(107, 110, 107); fill-opacity:1.000; stroke:none;" />
 <path d="  M 38,21  L 38,22  L 39,22  L 39,21  Z  " style="fill:rgb(107, 110, 107); fill-opacity:1.000; stroke:none;" />
 <path d="  M 39,23  L 38,23  L 38,24  L 39,24  Z  " style="fill:rgb(107, 110, 107); fill-opacity:1.000; stroke:none;" />
 <path d="  M 39,26  L 39,25  L 38,25  L 38,26  Z  " style="fill:rgb(107, 110, 107); fill-opacity:1.000; stroke:none;" />
 <path d="  M 39,19  L 39,20  L 40,20  L 40,19  Z  " style="fill:rgb(107, 110, 107); fill-opacity:1.000; stroke:none;" />
 <path d="  M 40,22  L 39,22  L 39,23  L 40,23  Z  " style="fill:rgb(107, 110, 107); fill-opacity:1.000; stroke:none;" />
 <path d="  M 39,31  L 40,31  L 40,30  L 39,30  Z  " style="fill:rgb(107, 110, 107); fill-opacity:1.000; stroke:none;" />
 <path d="  M 39,49  L 40,49  L 40,48  L 39,48  Z  " style="fill:rgb(107, 110, 107); fill-opacity:1.000; stroke:none;" />
 <path d="  M 41,48  L 41,47  L 40,47  L 40,48  Z  " style="fill:rgb(107, 110, 107); fill-opacity:1.000; stroke:none;" />
 <path d="  M 41,45  L 41,47  L 42,47  L 42,46  L 43,46  L 43,45  L 45,45  L 45,44  L 46,44  L 46,43  L 47,43  L 47,44  L 48,44  L 48,43  L 51,43  L 51,42  L 53,42  L 53,41  L 56,41  L 56,40  L 59,40  L 59,39  L 60,39  L 60,38  L 59,38  L 59,37  L 58,37  L 58,35  L 57,35  L 57,34  L 56,34  L 56,33  L 54,33  L 54,34  L 55,34  L 55,36  L 56,36  L 56,38  L 54,38  L 54,39  L 52,39  L 52,38  L 49,38  L 49,39  L 50,39  L 50,40  L 48,40  L 48,41  L 47,41  L 47,42  L 45,42  L 45,43  L 44,43  L 44,44  L 42,44  L 42,45  Z  M 56,39  L 56,38  L 57,38  L 57,39  Z  M 51,41  L 50,41  L 50,40  L 51,40  Z  M 55,40  L 54,40  L 54,39  L 55,39  Z  " style="fill:rgb(107, 110, 107); fill-opacity:1.000; stroke:none;" />
 <path d="  M 42,43  L 43,43  L 43,42  L 42,42  Z  " style="fill:rgb(107, 110, 107); fill-opacity:1.000; stroke:none;" />
 <path d="  M 43,33  L 43,34  L 45,34  L 45,35  L 46,35  L 46,33  Z  " style="fill:rgb(107, 110, 107); fill-opacity:1.000; stroke:none;" />
 <path d="  M 47,39  L 47,38  L 46,38  L 46,39  L 44,39  L 44,41  L 43,41  L 43,42  L 45,42  L 45,41  L 46,41  L 46,40  L 48,40  L 48,39  Z  " style="fill:rgb(107, 110, 107); fill-opacity:1.000; stroke:none;" />
 <path d="  M 46,32  L 46,33  L 47,33  L 47,32  Z  " style="fill:rgb(107, 110, 107); fill-opacity:1.000; stroke:none;" />
 <path d="  M 46,45  L 47,45  L 47,44  L 46,44  Z  " style="fill:rgb(107, 110, 107); fill-opacity:1.000; stroke:none;" />
 <path d="  M 50,32  L 50,31  L 47,31  L 47,32  Z  " style="fill:rgb(107, 110, 107); fill-opacity:1.000; stroke:none;" />
 <path d="  M 49,38  L 49,37  L 47,37  L 47,38  Z  " style="fill:rgb(107, 110, 107); fill-opacity:1.000; stroke:none;" />
 <path d="  M 51,33  L 48,33  L 48,34  L 52,34  L 52,33  L 54,33  L 54,32  L 51,32  Z  " style="fill:rgb(107, 110, 107); fill-opacity:1.000; stroke:none;" />
 <path d="  M 51,36  L 51,35  L 50,35  L 50,36  Z  " style="fill:rgb(107, 110, 107); fill-opacity:1.000; stroke:none;" />
 <path d="  M 52,30  L 52,29  L 51,29  L 51,30  Z  " style="fill:rgb(107, 110, 107); fill-opacity:1.000; stroke:none;" />
 <path d="  M 51,37  L 53,37  L 53,36  L 51,36  Z  " style="fill:rgb(107, 110, 107); fill-opacity:1.000; stroke:none;" />
 <path d="  M 53,29  L 53,30  L 52,30  L 52,31  L 55,31  L 55,30  L 54,30  L 54,29  Z  " style="fill:rgb(107, 110, 107); fill-opacity:1.000; stroke:none;" />
 <path d="  M 53,34  L 53,35  L 54,35  L 54,34  Z  " style="fill:rgb(107, 110, 107); fill-opacity:1.000; stroke:none;" />
 <path d="  M 54,37  L 53,37  L 53,38  L 54,38  Z  " style="fill:rgb(107, 110, 107); fill-opacity:1.000; stroke:none;" />
 <path d="  M 55,32  L 56,32  L 56,31  L 55,31  Z  " style="fill:rgb(107, 110, 107); fill-opacity:1.000; stroke:none;" />
 <path d="  M 58,33  L 58,32  L 56,32  L 56,33  Z  " style="fill:rgb(107, 110, 107); fill-opacity:1.000; stroke:none;" />
 <path d="  M 59,33  L 58,33  L 58,35  L 59,35  Z  " style="fill:rgb(107, 110, 107); fill-opacity:1.000; stroke:none;" />
 <path d="  M 60,35  L 59,35  L 59,37  L 60,37  Z  " style="fill:rgb(107, 110, 107); fill-opacity:1.000; stroke:none;" />
 <path d="  M 60,37  L 60,38  L 61,38  L 61,37  Z  " style="fill:rgb(107, 110, 107); fill-opacity:1.000; stroke:none;" />
 <path d="  M 5,34  L 4,34  L 4,36  L 5,36  L 5,35  L 6,35  L 6,32  L 5,32  Z  " style="fill:rgb(124, 126, 124); fill-opacity:1.000; stroke:none;" />
 <path d="  M 7,30  L 6,30  L 6,32  L 7,32  Z  " style="fill:rgb(124, 126, 124); fill-opacity:1.000; stroke:none;" />
 <path d="  M 8,28  L 8,29  L 7,29  L 7,30  L 9,30  L 9,29  L 10,29  L 10,28  Z  " style="fill:rgb(124, 126, 124); fill-opacity:1.000; stroke:none;" />
 <path d="  M 7,34  L 8,34  L 8,33  L 7,33  Z  " style="fill:rgb(124, 126, 124); fill-opacity:1.000; stroke:none;" />
 <path d="  M 8,32  L 9,32  L 9,31  L 8,31  Z  " style="fill:rgb(124, 126, 124); fill-opacity:1.000; stroke:none;" />
 <path d="  M 8,34  L 8,35  L 9,35  L 9,34  Z  " style="fill:rgb(124, 126, 124); fill-opacity:1.000; stroke:none;" />
 <path d="  M 10,30  L 9,30  L 9,31  L 10,31  Z  " style="fill:rgb(124, 126, 124); fill-opacity:1.000; stroke:none;" />
 <path d="  M 10,32  L 9,32  L 9,33  L 10,33  Z  " style="fill:rgb(124, 126, 124); fill-opacity:1.000; stroke:none;" />
 <path d="  M 9,36  L 10,36  L 10,35  L 9,35  Z  " style="fill:rgb(124, 126, 124); fill-opacity:1.000; stroke:none;" />
 <path d="  M 12,28  L 12,27  L 10,27  L 10,28  Z  " style="fill:rgb(124, 126, 124); fill-opacity:1.000; stroke:none;" />
 <path d="  M 11,29  L 10,29  L 10,30  L 11,30  Z  " style="fill:rgb(124, 126, 124); fill-opacity:1.000; stroke:none;" />
 <path d="  M 10,31  L 10,32  L 11,32  L 11,31  Z  " style="fill:rgb(124, 126, 124); fill-opacity:1.000; stroke:none;" />
 <path d="  M 12,31  L 12,30  L 11,30  L 11,31  Z  " style="fill:rgb(124, 126, 124); fill-opacity:1.000; stroke:none;" />
 <path d="  M 12,34  L 12,33  L 11,33  L 11,34  Z  " style="fill:rgb(124, 126, 124); fill-opacity:1.000; stroke:none;" />
 <path d="  M 15,27  L 15,28  L 17,28  L 17,29  L 19,29  L 19,28  L 18,28  L 18,27  L 16,27  L 16,26  L 15,26  L 15,25  L 14,25  L 14,26  L 12,26  L 12,27  Z  " style="fill:rgb(124, 126, 124); fill-opacity:1.000; stroke:none;" />
 <path d="  M 15,32  L 15,31  L 14,31  L 14,30  L 13,30  L 13,32  L 12,32  L 12,33  L 14,33  L 14,32  Z  " style="fill:rgb(124, 126, 124); fill-opacity:1.000; stroke:none;" />
 <path d="  M 13,34  L 13,35  L 14,35  L 14,34  Z  " style="fill:rgb(124, 126, 124); fill-opacity:1.000; stroke:none;" />
 <path d="  M 17,37  L 17,36  L 16,36  L 16,35  L 14,35  L 14,36  L 15,36  L 15,37  Z  " style="fill:rgb(124, 126, 124); fill-opacity:1.000; stroke:none;" />
 <path d="  M 16,29  L 16,30  L 17,30  L 17,29  Z  " style="fill:rgb(124, 126, 124); fill-opacity:1.000; stroke:none;" />
 <path d="  M 16,32  L 17,32  L 17,31  L 16,31  Z  " style="fill:rgb(124, 126, 124); fill-opacity:1.000; stroke:none;" />
 <path d="  M 17,33  L 16,33  L 16,34  L 17,34  Z  " style="fill:rgb(124, 126, 124); fill-opacity:1.000; stroke:none;" />
 <path d="  M 17,38  L 18,38  L 18,41  L 19,41  L 19,42  L 20,42  L 20,44  L 21,44  L 21,42  L 22,42  L 22,41  L 21,41  L 21,39  L 20,39  L 20,37  L 19,37  L 19,35  L 18,35  L 18,34  L 17,34  L 17,36  L 18,36  L 18,37  L 17,37  Z  " style="fill:rgb(124, 126, 124); fill-opacity:1.000; stroke:none;" />
 <path d="  M 19,33  L 19,32  L 18,32  L 18,33  Z  " style="fill:rgb(124, 126, 124); fill-opacity:1.000; stroke:none;" />
 <path d="  M 19,31  L 21,31  L 21,30  L 20,30  L 20,29  L 19,29  Z  " style="fill:rgb(124, 126, 124); fill-opacity:1.000; stroke:none;" />
 <path d="  M 19,34  L 20,34  L 20,33  L 19,33  Z  " style="fill:rgb(124, 126, 124); fill-opacity:1.000; stroke:none;" />
 <path d="  M 21,34  L 20,34  L 20,35  L 21,35  Z  " style="fill:rgb(124, 126, 124); fill-opacity:1.000; stroke:none;" />
 <path d="  M 22,35  L 21,35  L 21,36  L 20,36  L 20,37  L 21,37  L 21,38  L 22,38  Z  " style="fill:rgb(124, 126, 124); fill-opacity:1.000; stroke:none;" />
 <path d="  M 26,33  L 26,32  L 25,32  L 25,31  L 21,31  L 21,32  L 24,32  L 24,33  Z  " style="fill:rgb(124, 126, 124); fill-opacity:1.000; stroke:none;" />
 <path d="  M 24,48  L 23,48  L 23,47  L 22,47  L 22,45  L 21,45  L 21,48  L 22,48  L 22,49  L 24,49  Z  " style="fill:rgb(124, 126, 124); fill-opacity:1.000; stroke:none;" />
 <path d="  M 23,30  L 23,29  L 22,29  L 22,30  Z  " style="fill:rgb(124, 126, 124); fill-opacity:1.000; stroke:none;" />
 <path d="  M 23,40  L 23,38  L 22,38  L 22,40  Z  " style="fill:rgb(124, 126, 124); fill-opacity:1.000; stroke:none;" />
 <path d="  M 26,45  L 25,45  L 25,44  L 24,44  L 24,41  L 23,41  L 23,43  L 22,43  L 22,44  L 23,44  L 23,46  L 24,46  L 24,48  L 25,48  L 25,49  L 24,49  L 24,50  L 26,50  L 26,51  L 27,51  L 27,52  L 28,52  L 28,50  L 27,50  L 27,49  L 26,49  Z  " style="fill:rgb(124, 126, 124); fill-opacity:1.000; stroke:none;" />
 <path d="  M 27,29  L 27,28  L 28,28  L 28,27  L 24,27  L 24,28  L 23,28  L 23,29  Z  " style="fill:rgb(124, 126, 124); fill-opacity:1.000; stroke:none;" />
 <path d="  M 23,34  L 23,36  L 24,36  L 24,37  L 26,37  L 26,36  L 25,36  L 25,35  L 26,35  L 26,34  Z  " style="fill:rgb(124, 126, 124); fill-opacity:1.000; stroke:none;" />
 <path d="  M 26,20  L 24,20  L 24,21  L 26,21  Z  " style="fill:rgb(124, 126, 124); fill-opacity:1.000; stroke:none;" />
 <path d="  M 24,38  L 24,39  L 25,39  L 25,41  L 26,41  L 26,40  L 28,40  L 28,39  L 29,39  L 29,38  L 28,38  L 28,37  L 26,37  L 26,38  Z  " style="fill:rgb(124, 126, 124); fill-opacity:1.000; stroke:none;" />
 <path d="  M 25,23  L 25,24  L 27,24  L 27,25  L 30,25  L 30,24  L 28,24  L 28,23  Z  " style="fill:rgb(124, 126, 124); fill-opacity:1.000; stroke:none;" />
 <path d="  M 25,30  L 25,31  L 26,31  L 26,32  L 27,32  L 27,30  Z  " style="fill:rgb(124, 126, 124); fill-opacity:1.000; stroke:none;" />
 <path d="  M 27,19  L 26,19  L 26,20  L 27,20  Z  " style="fill:rgb(124, 126, 124); fill-opacity:1.000; stroke:none;" />
 <path d="  M 26,26  L 27,26  L 27,25  L 26,25  Z  " style="fill:rgb(124, 126, 124); fill-opacity:1.000; stroke:none;" />
 <path d="  M 29,34  L 29,33  L 30,33  L 30,32  L 28,32  L 28,33  L 26,33  L 26,34  Z  " style="fill:rgb(124, 126, 124); fill-opacity:1.000; stroke:none;" />
 <path d="  M 26,41  L 26,43  L 28,43  L 28,42  L 29,42  L 29,43  L 30,43  L 30,41  Z  " style="fill:rgb(124, 126, 124); fill-opacity:1.000; stroke:none;" />
 <path d="  M 27,29  L 27,30  L 28,30  L 28,29  Z  " style="fill:rgb(124, 126, 124); fill-opacity:1.000; stroke:none;" />
 <path d="  M 28,14  L 29,14  L 29,13  L 28,13  Z  " style="fill:rgb(124, 126, 124); fill-opacity:1.000; stroke:none;" />
 <path d="  M 28,23  L 30,23  L 30,22  L 28,22  Z  " style="fill:rgb(124, 126, 124); fill-opacity:1.000; stroke:none;" />
 <path d="  M 30,31  L 30,28  L 29,28  L 29,30  L 28,30  L 28,31  Z  " style="fill:rgb(124, 126, 124); fill-opacity:1.000; stroke:none;" />
 <path d="  M 28,61  L 28,62  L 29,62  L 29,63  L 30,63  L 30,61  Z  " style="fill:rgb(124, 126, 124); fill-opacity:1.000; stroke:none;" />
 <path d="  M 28,63  L 28,64  L 29,64  L 29,63  Z  " style="fill:rgb(124, 126, 124); fill-opacity:1.000; stroke:none;" />
 <path d="  M 30,15  L 30,14  L 29,14  L 29,15  Z  " style="fill:rgb(124, 126, 124); fill-opacity:1.000; stroke:none;" />
 <path d="  M 30,26  L 29,26  L 29,27  L 30,27  Z  " style="fill:rgb(124, 126, 124); fill-opacity:1.000; stroke:none;" />
 <path d="  M 29,38  L 30,38  L 30,36  L 29,36  Z  " style="fill:rgb(124, 126, 124); fill-opacity:1.000; stroke:none;" />
 <path d="  M 30,4  L 30,5  L 31,5  L 31,4  Z  " style="fill:rgb(124, 126, 124); fill-opacity:1.000; stroke:none;" />
 <path d="  M 30,7  L 30,9  L 31,9  L 31,8  L 32,8  L 32,5  L 31,5  L 31,7  Z  " style="fill:rgb(124, 126, 124); fill-opacity:1.000; stroke:none;" />
 <path d="  M 33,14  L 32,14  L 32,15  L 34,15  L 34,14  L 35,14  L 35,12  L 34,12  L 34,13  L 33,13  Z  " style="fill:rgb(124, 126, 124); fill-opacity:1.000; stroke:none;" />
 <path d="  M 33,23  L 32,23  L 32,25  L 33,25  L 33,24  L 34,24  L 34,23  L 36,23  L 36,22  L 33,22  Z  " style="fill:rgb(124, 126, 124); fill-opacity:1.000; stroke:none;" />
 <path d="  M 35,27  L 35,28  L 37,28  L 37,29  L 39,29  L 39,28  L 38,28  L 38,27  L 36,27  L 36,26  L 34,26  L 34,25  L 33,25  L 33,26  L 32,26  L 32,27  Z  " style="fill:rgb(124, 126, 124); fill-opacity:1.000; stroke:none;" />
 <path d="  M 34,28  L 32,28  L 32,29  L 34,29  Z  " style="fill:rgb(124, 126, 124); fill-opacity:1.000; stroke:none;" />
 <path d="  M 32,31  L 33,31  L 33,30  L 32,30  Z  " style="fill:rgb(124, 126, 124); fill-opacity:1.000; stroke:none;" />
 <path d="  M 33,32  L 32,32  L 32,33  L 33,33  Z  " style="fill:rgb(124, 126, 124); fill-opacity:1.000; stroke:none;" />
 <path d="  M 34,34  L 36,34  L 36,33  L 33,33  L 33,34  L 32,34  L 32,35  L 34,35  Z  " style="fill:rgb(124, 126, 124); fill-opacity:1.000; stroke:none;" />
 <path d="  M 32,42  L 34,42  L 34,41  L 36,41  L 36,40  L 34,40  L 34,39  L 33,39  L 33,40  L 32,40  Z  " style="fill:rgb(124, 126, 124); fill-opacity:1.000; stroke:none;" />
 <path d="  M 34,45  L 32,45  L 32,46  L 34,46  Z  " style="fill:rgb(124, 126, 124); fill-opacity:1.000; stroke:none;" />
 <path d="  M 36,48  L 37,48  L 37,47  L 38,47  L 38,45  L 35,45  L 35,46  L 34,46  L 34,47  L 33,47  L 33,48  L 34,48  L 34,50  L 35,50  L 35,49  L 36,49  Z  " style="fill:rgb(124, 126, 124); fill-opacity:1.000; stroke:none;" />
 <path d="  M 34,15  L 34,16  L 35,16  L 35,15  Z  " style="fill:rgb(124, 126, 124); fill-opacity:1.000; stroke:none;" />
 <path d="  M 34,30  L 35,30  L 35,29  L 34,29  Z  " style="fill:rgb(124, 126, 124); fill-opacity:1.000; stroke:none;" />
 <path d="  M 36,32  L 36,30  L 35,30  L 35,31  L 34,31  L 34,32  Z  " style="fill:rgb(124, 126, 124); fill-opacity:1.000; stroke:none;" />
 <path d="  M 35,36  L 35,37  L 36,37  L 36,36  L 37,36  L 37,35  L 34,35  L 34,36  Z  " style="fill:rgb(124, 126, 124); fill-opacity:1.000; stroke:none;" />
 <path d="  M 34,63  L 34,64  L 36,64  L 36,63  Z  " style="fill:rgb(124, 126, 124); fill-opacity:1.000; stroke:none;" />
 <path d="  M 35,12  L 36,12  L 36,11  L 35,11  Z  " style="fill:rgb(124, 126, 124); fill-opacity:1.000; stroke:none;" />
 <path d="  M 35,16  L 35,17  L 36,17  L 36,16  Z  " style="fill:rgb(124, 126, 124); fill-opacity:1.000; stroke:none;" />
 <path d="  M 38,23  L 37,23  L 37,24  L 35,24  L 35,25  L 36,25  L 36,26  L 38,26  L 38,25  L 39,25  L 39,24  L 38,24  Z  " style="fill:rgb(124, 126, 124); fill-opacity:1.000; stroke:none;" />
 <path d="  M 40,40  L 40,41  L 41,41  L 41,39  L 42,39  L 42,38  L 43,38  L 43,37  L 41,37  L 41,38  L 38,38  L 38,37  L 36,37  L 36,38  L 35,38  L 35,39  L 36,39  L 36,40  Z  " style="fill:rgb(124, 126, 124); fill-opacity:1.000; stroke:none;" />
 <path d="  M 35,44  L 38,44  L 38,45  L 39,45  L 39,43  L 40,43  L 40,41  L 37,41  L 37,42  L 36,42  L 36,43  L 35,43  Z  " style="fill:rgb(124, 126, 124); fill-opacity:1.000; stroke:none;" />
 <path d="  M 35,61  L 35,62  L 36,62  L 36,61  Z  " style="fill:rgb(124, 126, 124); fill-opacity:1.000; stroke:none;" />
 <path d="  M 40,22  L 40,20  L 39,20  L 39,19  L 36,19  L 36,20  L 38,20  L 38,21  L 39,21  L 39,22  Z  " style="fill:rgb(124, 126, 124); fill-opacity:1.000; stroke:none;" />
 <path d="  M 37,30  L 37,29  L 36,29  L 36,30  Z  " style="fill:rgb(124, 126, 124); fill-opacity:1.000; stroke:none;" />
 <path d="  M 41,33  L 41,32  L 42,32  L 42,31  L 39,31  L 39,30  L 37,30  L 37,31  L 38,31  L 38,32  L 36,32  L 36,33  Z  " style="fill:rgb(124, 126, 124); fill-opacity:1.000; stroke:none;" />
 <path d="  M 44,36  L 45,36  L 45,34  L 43,34  L 43,33  L 44,33  L 44,32  L 42,32  L 42,33  L 41,33  L 41,34  L 39,34  L 39,35  L 38,35  L 38,36  L 39,36  L 39,37  L 41,37  L 41,36  L 42,36  L 42,35  L 44,35  Z  " style="fill:rgb(124, 126, 124); fill-opacity:1.000; stroke:none;" />
 <path d="  M 42,47  L 41,47  L 41,48  L 40,48  L 40,49  L 39,49  L 39,50  L 38,50  L 38,52  L 39,52  L 39,51  L 40,51  L 40,50  L 41,50  L 41,49  L 42,49  L 42,48  L 43,48  L 43,47  L 44,47  L 44,46  L 46,46  L 46,44  L 45,44  L 45,45  L 43,45  L 43,46  L 42,46  Z  " style="fill:rgb(124, 126, 124); fill-opacity:1.000; stroke:none;" />
 <path d="  M 39,24  L 40,24  L 40,23  L 39,23  Z  " style="fill:rgb(124, 126, 124); fill-opacity:1.000; stroke:none;" />
 <path d="  M 40,47  L 39,47  L 39,48  L 40,48  Z  " style="fill:rgb(124, 126, 124); fill-opacity:1.000; stroke:none;" />
 <path d="  M 40,47  L 41,47  L 41,45  L 40,45  Z  " style="fill:rgb(124, 126, 124); fill-opacity:1.000; stroke:none;" />
 <path d="  M 42,45  L 42,44  L 44,44  L 44,43  L 45,43  L 45,42  L 43,42  L 43,43  L 41,43  L 41,45  Z  " style="fill:rgb(124, 126, 124); fill-opacity:1.000; stroke:none;" />
 <path d="  M 43,41  L 42,41  L 42,42  L 43,42  Z  " style="fill:rgb(124, 126, 124); fill-opacity:1.000; stroke:none;" />
 <path d="  M 44,36  L 43,36  L 43,37  L 44,37  Z  " style="fill:rgb(124, 126, 124); fill-opacity:1.000; stroke:none;" />
 <path d="  M 43,40  L 43,41  L 44,41  L 44,40  Z  " style="fill:rgb(124, 126, 124); fill-opacity:1.000; stroke:none;" />
 <path d="  M 44,38  L 44,39  L 46,39  L 46,38  L 47,38  L 47,37  L 45,37  L 45,38  Z  " style="fill:rgb(124, 126, 124); fill-opacity:1.000; stroke:none;" />
 <path d="  M 46,40  L 46,41  L 45,41  L 45,42  L 47,42  L 47,41  L 48,41  L 48,40  Z  " style="fill:rgb(124, 126, 124); fill-opacity:1.000; stroke:none;" />
 <path d="  M 49,31  L 50,31  L 50,32  L 47,32  L 47,33  L 46,33  L 46,35  L 47,35  L 47,34  L 48,34  L 48,33  L 51,33  L 51,32  L 54,32  L 54,33  L 56,33  L 56,32  L 55,32  L 55,31  L 52,31  L 52,30  L 49,30  Z  " style="fill:rgb(124, 126, 124); fill-opacity:1.000; stroke:none;" />
 <path d="  M 47,44  L 47,43  L 46,43  L 46,44  Z  " style="fill:rgb(124, 126, 124); fill-opacity:1.000; stroke:none;" />
 <path d="  M 47,36  L 47,37  L 49,37  L 49,38  L 52,38  L 52,39  L 54,39  L 54,38  L 53,38  L 53,37  L 51,37  L 51,36  L 50,36  L 50,35  L 49,35  L 49,36  Z  " style="fill:rgb(124, 126, 124); fill-opacity:1.000; stroke:none;" />
 <path d="  M 49,38  L 47,38  L 47,39  L 48,39  L 48,40  L 50,40  L 50,39  L 49,39  Z  " style="fill:rgb(124, 126, 124); fill-opacity:1.000; stroke:none;" />
 <path d="  M 51,41  L 51,40  L 50,40  L 50,41  Z  " style="fill:rgb(124, 126, 124); fill-opacity:1.000; stroke:none;" />
 <path d="  M 51,36  L 52,36  L 52,35  L 51,35  Z  " style="fill:rgb(124, 126, 124); fill-opacity:1.000; stroke:none;" />
 <path d="  M 53,30  L 53,29  L 52,29  L 52,30  Z  " style="fill:rgb(124, 126, 124); fill-opacity:1.000; stroke:none;" />
 <path d="  M 53,35  L 53,34  L 54,34  L 54,33  L 52,33  L 52,35  Z  " style="fill:rgb(124, 126, 124); fill-opacity:1.000; stroke:none;" />
 <path d="  M 54,37  L 54,36  L 53,36  L 53,37  Z  " style="fill:rgb(124, 126, 124); fill-opacity:1.000; stroke:none;" />
 <path d="  M 55,34  L 54,34  L 54,36  L 55,36  Z  " style="fill:rgb(124, 126, 124); fill-opacity:1.000; stroke:none;" />
 <path d="  M 55,37  L 54,37  L 54,38  L 55,38  Z  " style="fill:rgb(124, 126, 124); fill-opacity:1.000; stroke:none;" />
 <path d="  M 55,39  L 54,39  L 54,40  L 55,40  Z  " style="fill:rgb(124, 126, 124); fill-opacity:1.000; stroke:none;" />
 <path d="  M 56,37  L 56,36  L 55,36  L 55,37  Z  " style="fill:rgb(124, 126, 124); fill-opacity:1.000; stroke:none;" />
 <path d="  M 56,34  L 57,34  L 57,35  L 58,35  L 58,33  L 56,33  Z  " style="fill:rgb(124, 126, 124); fill-opacity:1.000; stroke:none;" />
 <path d="  M 57,38  L 56,38  L 56,39  L 57,39  Z  " style="fill:rgb(124, 126, 124); fill-opacity:1.000; stroke:none;" />
 <path d="  M 58,37  L 59,37  L 59,35  L 58,35  Z  " style="fill:rgb(124, 126, 124); fill-opacity:1.000; stroke:none;" />
 <path d="  M 59,38  L 60,38  L 60,37  L 59,37  Z  " style="fill:rgb(124, 126, 124); fill-opacity:1.000; stroke:none;" />
 <path d="  M 7,36  L 8,36  L 8,34  L 7,34  Z  " style="fill:rgb(140, 138, 140); fill-opacity:1.000; stroke:none;" />
 <path d="  M 9,32  L 8,32  L 8,34  L 9,34  Z  " style="fill:rgb(140, 138, 140); fill-opacity:1.000; stroke:none;" />
 <path d="  M 9,32  L 10,32  L 10,31  L 9,31  Z  " style="fill:rgb(140, 138, 140); fill-opacity:1.000; stroke:none;" />
 <path d="  M 10,31  L 11,31  L 11,30  L 10,30  Z  " style="fill:rgb(140, 138, 140); fill-opacity:1.000; stroke:none;" />
 <path d="  M 11,30  L 13,30  L 13,29  L 11,29  Z  " style="fill:rgb(140, 138, 140); fill-opacity:1.000; stroke:none;" />
 <path d="  M 14,30  L 14,31  L 15,31  L 15,30  Z  " style="fill:rgb(140, 138, 140); fill-opacity:1.000; stroke:none;" />
 <path d="  M 16,30  L 16,29  L 15,29  L 15,30  Z  " style="fill:rgb(140, 138, 140); fill-opacity:1.000; stroke:none;" />
 <path d="  M 18,32  L 18,31  L 17,31  L 17,32  Z  " style="fill:rgb(140, 138, 140); fill-opacity:1.000; stroke:none;" />
 <path d="  M 19,31  L 19,30  L 18,30  L 18,31  Z  " style="fill:rgb(140, 138, 140); fill-opacity:1.000; stroke:none;" />
 <path d="  M 19,33  L 20,33  L 20,32  L 19,32  Z  " style="fill:rgb(140, 138, 140); fill-opacity:1.000; stroke:none;" />
 <path d="  M 21,32  L 21,31  L 20,31  L 20,32  Z  " style="fill:rgb(140, 138, 140); fill-opacity:1.000; stroke:none;" />
 <path d="  M 20,34  L 21,34  L 21,33  L 20,33  Z  " style="fill:rgb(140, 138, 140); fill-opacity:1.000; stroke:none;" />
 <path d="  M 21,32  L 21,33  L 22,33  L 22,34  L 26,34  L 26,33  L 24,33  L 24,32  Z  " style="fill:rgb(140, 138, 140); fill-opacity:1.000; stroke:none;" />
 <path d="  M 21,34  L 21,35  L 22,35  L 22,34  Z  " style="fill:rgb(140, 138, 140); fill-opacity:1.000; stroke:none;" />
 <path d="  M 23,37  L 22,37  L 22,38  L 23,38  Z  " style="fill:rgb(140, 138, 140); fill-opacity:1.000; stroke:none;" />
 <path d="  M 24,36  L 23,36  L 23,37  L 24,37  Z  " style="fill:rgb(140, 138, 140); fill-opacity:1.000; stroke:none;" />
 <path d="  M 24,41  L 24,40  L 23,40  L 23,41  Z  " style="fill:rgb(140, 138, 140); fill-opacity:1.000; stroke:none;" />
 <path d="  M 24,50  L 24,49  L 23,49  L 23,50  Z  " style="fill:rgb(140, 138, 140); fill-opacity:1.000; stroke:none;" />
 <path d="  M 24,37  L 24,38  L 26,38  L 26,37  Z  " style="fill:rgb(140, 138, 140); fill-opacity:1.000; stroke:none;" />
 <path d="  M 25,39  L 24,39  L 24,40  L 25,40  Z  " style="fill:rgb(140, 138, 140); fill-opacity:1.000; stroke:none;" />
 <path d="  M 24,42  L 24,44  L 25,44  L 25,42  Z  " style="fill:rgb(140, 138, 140); fill-opacity:1.000; stroke:none;" />
 <path d="  M 26,51  L 26,50  L 24,50  L 24,51  Z  " style="fill:rgb(140, 138, 140); fill-opacity:1.000; stroke:none;" />
 <path d="  M 26,34  L 26,35  L 25,35  L 25,36  L 26,36  L 26,37  L 28,37  L 28,38  L 29,38  L 29,36  L 27,36  L 27,35  L 29,35  L 29,34  Z  " style="fill:rgb(140, 138, 140); fill-opacity:1.000; stroke:none;" />
 <path d="  M 26,42  L 26,41  L 25,41  L 25,42  Z  " style="fill:rgb(140, 138, 140); fill-opacity:1.000; stroke:none;" />
 <path d="  M 25,45  L 26,45  L 26,44  L 25,44  Z  " style="fill:rgb(140, 138, 140); fill-opacity:1.000; stroke:none;" />
 <path d="  M 30,41  L 30,40  L 29,40  L 29,39  L 28,39  L 28,40  L 26,40  L 26,41  Z  " style="fill:rgb(140, 138, 140); fill-opacity:1.000; stroke:none;" />
 <path d="  M 26,44  L 28,44  L 28,43  L 26,43  Z  " style="fill:rgb(140, 138, 140); fill-opacity:1.000; stroke:none;" />
 <path d="  M 26,49  L 27,49  L 27,47  L 26,47  Z  " style="fill:rgb(140, 138, 140); fill-opacity:1.000; stroke:none;" />
 <path d="  M 27,52  L 27,51  L 26,51  L 26,52  Z  " style="fill:rgb(140, 138, 140); fill-opacity:1.000; stroke:none;" />
 <path d="  M 28,49  L 27,49  L 27,50  L 28,50  Z  " style="fill:rgb(140, 138, 140); fill-opacity:1.000; stroke:none;" />
 <path d="  M 28,52  L 27,52  L 27,54  L 28,54  L 28,53  L 29,53  L 29,51  L 28,51  Z  " style="fill:rgb(140, 138, 140); fill-opacity:1.000; stroke:none;" />
 <path d="  M 29,43  L 29,42  L 28,42  L 28,43  Z  " style="fill:rgb(140, 138, 140); fill-opacity:1.000; stroke:none;" />
 <path d="  M 29,57  L 28,57  L 28,58  L 29,58  Z  " style="fill:rgb(140, 138, 140); fill-opacity:1.000; stroke:none;" />
 <path d="  M 29,33  L 29,34  L 30,34  L 30,33  Z  " style="fill:rgb(140, 138, 140); fill-opacity:1.000; stroke:none;" />
 <path d="  M 29,36  L 30,36  L 30,35  L 29,35  Z  " style="fill:rgb(140, 138, 140); fill-opacity:1.000; stroke:none;" />
 <path d="  M 29,38  L 29,39  L 30,39  L 30,38  Z  " style="fill:rgb(140, 138, 140); fill-opacity:1.000; stroke:none;" />
 <path d="  M 30,44  L 30,43  L 29,43  L 29,44  Z  " style="fill:rgb(140, 138, 140); fill-opacity:1.000; stroke:none;" />
 <path d="  M 29,61  L 30,61  L 30,62  L 31,62  L 31,60  L 30,60  L 30,58  L 29,58  Z  " style="fill:rgb(140, 138, 140); fill-opacity:1.000; stroke:none;" />
 <path d="  M 29,63  L 29,64  L 31,64  L 31,63  Z  " style="fill:rgb(140, 138, 140); fill-opacity:1.000; stroke:none;" />
 <path d="  M 32,12  L 32,8  L 31,8  L 31,9  L 30,9  L 30,14  L 31,14  L 31,12  Z  " style="fill:rgb(140, 138, 140); fill-opacity:1.000; stroke:none;" />
 <path d="  M 32,38  L 33,38  L 33,37  L 35,37  L 35,36  L 34,36  L 34,35  L 32,35  Z  " style="fill:rgb(140, 138, 140); fill-opacity:1.000; stroke:none;" />
 <path d="  M 32,40  L 33,40  L 33,39  L 32,39  Z  " style="fill:rgb(140, 138, 140); fill-opacity:1.000; stroke:none;" />
 <path d="  M 32,42  L 32,43  L 34,43  L 34,42  Z  " style="fill:rgb(140, 138, 140); fill-opacity:1.000; stroke:none;" />
 <path d="  M 38,45  L 38,44  L 35,44  L 35,43  L 34,43  L 34,44  L 32,44  L 32,45  L 34,45  L 34,46  L 35,46  L 35,45  Z  " style="fill:rgb(140, 138, 140); fill-opacity:1.000; stroke:none;" />
 <path d="  M 34,47  L 34,46  L 32,46  L 32,47  Z  " style="fill:rgb(140, 138, 140); fill-opacity:1.000; stroke:none;" />
 <path d="  M 36,40  L 36,39  L 35,39  L 35,38  L 33,38  L 33,39  L 34,39  L 34,40  Z  " style="fill:rgb(140, 138, 140); fill-opacity:1.000; stroke:none;" />
 <path d="  M 33,49  L 34,49  L 34,48  L 33,48  Z  " style="fill:rgb(140, 138, 140); fill-opacity:1.000; stroke:none;" />
 <path d="  M 33,63  L 33,64  L 34,64  L 34,63  Z  " style="fill:rgb(140, 138, 140); fill-opacity:1.000; stroke:none;" />
 <path d="  M 39,35  L 39,34  L 41,34  L 41,33  L 38,33  L 38,34  L 34,34  L 34,35  L 37,35  L 37,36  L 36,36  L 36,37  L 38,37  L 38,38  L 41,38  L 41,37  L 39,37  L 39,36  L 38,36  L 38,35  Z  " style="fill:rgb(140, 138, 140); fill-opacity:1.000; stroke:none;" />
 <path d="  M 36,40  L 36,41  L 34,41  L 34,42  L 35,42  L 35,43  L 36,43  L 36,42  L 37,42  L 37,41  L 40,41  L 40,40  Z  " style="fill:rgb(140, 138, 140); fill-opacity:1.000; stroke:none;" />
 <path d="  M 36,58  L 36,55  L 35,55  L 35,57  L 34,57  L 34,59  L 35,59  L 35,58  Z  " style="fill:rgb(140, 138, 140); fill-opacity:1.000; stroke:none;" />
 <path d="  M 34,63  L 35,63  L 35,60  L 34,60  Z  " style="fill:rgb(140, 138, 140); fill-opacity:1.000; stroke:none;" />
 <path d="  M 36,37  L 35,37  L 35,38  L 36,38  Z  " style="fill:rgb(140, 138, 140); fill-opacity:1.000; stroke:none;" />
 <path d="  M 35,50  L 36,50  L 36,49  L 35,49  Z  " style="fill:rgb(140, 138, 140); fill-opacity:1.000; stroke:none;" />
 <path d="  M 37,48  L 36,48  L 36,49  L 37,49  Z  " style="fill:rgb(140, 138, 140); fill-opacity:1.000; stroke:none;" />
 <path d="  M 37,55  L 37,54  L 36,54  L 36,55  Z  " style="fill:rgb(140, 138, 140); fill-opacity:1.000; stroke:none;" />
 <path d="  M 38,47  L 37,47  L 37,48  L 38,48  Z  " style="fill:rgb(140, 138, 140); fill-opacity:1.000; stroke:none;" />
 <path d="  M 37,52  L 37,54  L 38,54  L 38,52  Z  " style="fill:rgb(140, 138, 140); fill-opacity:1.000; stroke:none;" />
 <path d="  M 38,46  L 39,46  L 39,45  L 38,45  Z  " style="fill:rgb(140, 138, 140); fill-opacity:1.000; stroke:none;" />
 <path d="  M 38,50  L 39,50  L 39,48  L 38,48  Z  " style="fill:rgb(140, 138, 140); fill-opacity:1.000; stroke:none;" />
 <path d="  M 40,44  L 40,43  L 39,43  L 39,44  Z  " style="fill:rgb(140, 138, 140); fill-opacity:1.000; stroke:none;" />
 <path d="  M 40,47  L 40,46  L 39,46  L 39,47  Z  " style="fill:rgb(140, 138, 140); fill-opacity:1.000; stroke:none;" />
 <path d="  M 40,42  L 41,42  L 41,41  L 40,41  Z  " style="fill:rgb(140, 138, 140); fill-opacity:1.000; stroke:none;" />
 <path d="  M 41,45  L 41,44  L 40,44  L 40,45  Z  " style="fill:rgb(140, 138, 140); fill-opacity:1.000; stroke:none;" />
 <path d="  M 41,32  L 41,33  L 42,33  L 42,32  Z  " style="fill:rgb(140, 138, 140); fill-opacity:1.000; stroke:none;" />
 <path d="  M 43,37  L 43,36  L 44,36  L 44,35  L 42,35  L 42,36  L 41,36  L 41,37  Z  " style="fill:rgb(140, 138, 140); fill-opacity:1.000; stroke:none;" />
 <path d="  M 41,39  L 41,40  L 42,40  L 42,39  Z  " style="fill:rgb(140, 138, 140); fill-opacity:1.000; stroke:none;" />
 <path d="  M 42,43  L 42,42  L 41,42  L 41,43  Z  " style="fill:rgb(140, 138, 140); fill-opacity:1.000; stroke:none;" />
 <path d="  M 43,39  L 43,38  L 42,38  L 42,39  Z  " style="fill:rgb(140, 138, 140); fill-opacity:1.000; stroke:none;" />
 <path d="  M 42,41  L 43,41  L 43,40  L 42,40  Z  " style="fill:rgb(140, 138, 140); fill-opacity:1.000; stroke:none;" />
 <path d="  M 43,38  L 44,38  L 44,37  L 43,37  Z  " style="fill:rgb(140, 138, 140); fill-opacity:1.000; stroke:none;" />
 <path d="  M 44,40  L 44,39  L 43,39  L 43,40  Z  " style="fill:rgb(140, 138, 140); fill-opacity:1.000; stroke:none;" />
 <path d="  M 45,37  L 45,36  L 44,36  L 44,37  Z  " style="fill:rgb(140, 138, 140); fill-opacity:1.000; stroke:none;" />
 <path d="  M 46,36  L 46,35  L 45,35  L 45,36  Z  " style="fill:rgb(140, 138, 140); fill-opacity:1.000; stroke:none;" />
 <path d="  M 47,36  L 46,36  L 46,37  L 47,37  Z  " style="fill:rgb(140, 138, 140); fill-opacity:1.000; stroke:none;" />
 <path d="  M 47,34  L 47,35  L 48,35  L 48,34  Z  " style="fill:rgb(140, 138, 140); fill-opacity:1.000; stroke:none;" />
 <path d="  M 48,35  L 48,36  L 49,36  L 49,35  Z  " style="fill:rgb(140, 138, 140); fill-opacity:1.000; stroke:none;" />
 <path d="  M 52,35  L 52,34  L 50,34  L 50,35  Z  " style="fill:rgb(140, 138, 140); fill-opacity:1.000; stroke:none;" />
 <path d="  M 52,35  L 52,36  L 54,36  L 54,35  Z  " style="fill:rgb(140, 138, 140); fill-opacity:1.000; stroke:none;" />
 <path d="  M 54,37  L 55,37  L 55,36  L 54,36  Z  " style="fill:rgb(140, 138, 140); fill-opacity:1.000; stroke:none;" />
 <path d="  M 55,37  L 55,38  L 56,38  L 56,37  Z  " style="fill:rgb(140, 138, 140); fill-opacity:1.000; stroke:none;" />
 <path d="  M 13,29  L 13,30  L 15,30  L 15,29  Z  " style="fill:rgb(165, 162, 165); fill-opacity:1.000; stroke:none;" />
 <path d="  M 15,30  L 15,31  L 18,31  L 18,30  Z  " style="fill:rgb(165, 162, 165); fill-opacity:1.000; stroke:none;" />
 <path d="  M 18,31  L 18,32  L 20,32  L 20,31  Z  " style="fill:rgb(165, 162, 165); fill-opacity:1.000; stroke:none;" />
 <path d="  M 20,33  L 21,33  L 21,32  L 20,32  Z  " style="fill:rgb(165, 162, 165); fill-opacity:1.000; stroke:none;" />
 <path d="  M 22,33  L 21,33  L 21,34  L 22,34  Z  " style="fill:rgb(165, 162, 165); fill-opacity:1.000; stroke:none;" />
 <path d="  M 22,37  L 23,37  L 23,34  L 22,34  Z  " style="fill:rgb(165, 162, 165); fill-opacity:1.000; stroke:none;" />
 <path d="  M 23,40  L 24,40  L 24,37  L 23,37  Z  " style="fill:rgb(165, 162, 165); fill-opacity:1.000; stroke:none;" />
 <path d="  M 24,42  L 25,42  L 25,40  L 24,40  Z  " style="fill:rgb(165, 162, 165); fill-opacity:1.000; stroke:none;" />
 <path d="  M 25,44  L 26,44  L 26,42  L 25,42  Z  " style="fill:rgb(165, 162, 165); fill-opacity:1.000; stroke:none;" />
 <path d="  M 25,51  L 25,52  L 26,52  L 26,51  Z  " style="fill:rgb(165, 162, 165); fill-opacity:1.000; stroke:none;" />
 <path d="  M 29,44  L 29,45  L 30,45  L 30,46  L 28,46  L 28,45  L 27,45  L 27,44  L 26,44  L 26,47  L 27,47  L 27,49  L 28,49  L 28,51  L 29,51  L 29,53  L 28,53  L 28,54  L 27,54  L 27,56  L 28,56  L 28,57  L 29,57  L 29,58  L 30,58  L 30,60  L 31,60  L 31,62  L 30,62  L 30,63  L 31,63  L 31,64  L 33,64  L 33,63  L 34,63  L 34,60  L 35,60  L 35,59  L 34,59  L 34,57  L 35,57  L 35,55  L 36,55  L 36,54  L 37,54  L 37,52  L 38,52  L 38,48  L 37,48  L 37,49  L 36,49  L 36,50  L 34,50  L 34,49  L 33,49  L 33,47  L 32,47  L 32,44  L 34,44  L 34,43  L 32,43  L 32,39  L 33,39  L 33,38  L 32,38  L 32,35  L 30,35  L 30,36  L 31,36  L 31,37  L 30,37  L 30,39  L 29,39  L 29,40  L 30,40  L 30,41  L 31,41  L 31,44  Z  " style="fill:rgb(165, 162, 165); fill-opacity:1.000; stroke:none;" />
 <path d="  M 26,52  L 26,54  L 27,54  L 27,52  Z  " style="fill:rgb(165, 162, 165); fill-opacity:1.000; stroke:none;" />
 <path d="  M 27,35  L 27,36  L 29,36  L 29,35  Z  " style="fill:rgb(165, 162, 165); fill-opacity:1.000; stroke:none;" />
 <path d="  M 29,43  L 28,43  L 28,44  L 29,44  Z  " style="fill:rgb(165, 162, 165); fill-opacity:1.000; stroke:none;" />
 <path d="  M 29,35  L 30,35  L 30,34  L 29,34  Z  " style="fill:rgb(165, 162, 165); fill-opacity:1.000; stroke:none;" />
 <path d="  M 31,17  L 32,17  L 32,13  L 31,13  L 31,15  L 30,15  L 30,16  L 31,16  Z  " style="fill:rgb(165, 162, 165); fill-opacity:1.000; stroke:none;" />
 <path d="  M 31,18  L 31,19  L 30,19  L 30,20  L 31,20  L 31,22  L 32,22  L 32,18  Z  " style="fill:rgb(165, 162, 165); fill-opacity:1.000; stroke:none;" />
 <path d="  M 31,24  L 31,23  L 30,23  L 30,25  L 31,25  L 31,26  L 30,26  L 30,29  L 31,29  L 31,28  L 32,28  L 32,24  Z  " style="fill:rgb(165, 162, 165); fill-opacity:1.000; stroke:none;" />
 <path d="  M 31,29  L 31,32  L 30,32  L 30,33  L 31,33  L 31,34  L 32,34  L 32,29  Z  " style="fill:rgb(165, 162, 165); fill-opacity:1.000; stroke:none;" />
 <path d="  M 35,38  L 35,37  L 33,37  L 33,38  Z  " style="fill:rgb(165, 162, 165); fill-opacity:1.000; stroke:none;" />
 <path d="  M 34,42  L 34,43  L 35,43  L 35,42  Z  " style="fill:rgb(165, 162, 165); fill-opacity:1.000; stroke:none;" />
 <path d="  M 38,46  L 38,48  L 39,48  L 39,46  Z  " style="fill:rgb(165, 162, 165); fill-opacity:1.000; stroke:none;" />
 <path d="  M 40,44  L 39,44  L 39,46  L 40,46  Z  " style="fill:rgb(165, 162, 165); fill-opacity:1.000; stroke:none;" />
 <path d="  M 41,42  L 40,42  L 40,44  L 41,44  Z  " style="fill:rgb(165, 162, 165); fill-opacity:1.000; stroke:none;" />
 <path d="  M 41,40  L 41,42  L 42,42  L 42,40  Z  " style="fill:rgb(165, 162, 165); fill-opacity:1.000; stroke:none;" />
 <path d="  M 43,39  L 42,39  L 42,40  L 43,40  Z  " style="fill:rgb(165, 162, 165); fill-opacity:1.000; stroke:none;" />
 <path d="  M 44,38  L 43,38  L 43,39  L 44,39  Z  " style="fill:rgb(165, 162, 165); fill-opacity:1.000; stroke:none;" />
 <path d="  M 44,37  L 44,38  L 45,38  L 45,37  Z  " style="fill:rgb(165, 162, 165); fill-opacity:1.000; stroke:none;" />
 <path d="  M 45,36  L 45,37  L 46,37  L 46,36  Z  " style="fill:rgb(165, 162, 165); fill-opacity:1.000; stroke:none;" />
 <path d="  M 46,35  L 46,36  L 48,36  L 48,35  Z  " style="fill:rgb(165, 162, 165); fill-opacity:1.000; stroke:none;" />
 <path d="  M 48,34  L 48,35  L 50,35  L 50,34  Z  " style="fill:rgb(165, 162, 165); fill-opacity:1.000; stroke:none;" />
 <path d="  M 30,46  L 30,45  L 29,45  L 29,44  L 27,44  L 27,45  L 28,45  L 28,46  Z  " style="fill:rgb(157, 154, 157); fill-opacity:1.000; stroke:none;" />
 <path d="  M 30,14  L 30,15  L 31,15  L 31,14  Z  " style="fill:rgb(157, 154, 157); fill-opacity:1.000; stroke:none;" />
 <path d="  M 30,19  L 31,19  L 31,18  L 32,18  L 32,17  L 31,17  L 31,16  L 30,16  Z  " style="fill:rgb(157, 154, 157); fill-opacity:1.000; stroke:none;" />
 <path d="  M 31,20  L 30,20  L 30,23  L 31,23  L 31,24  L 32,24  L 32,22  L 31,22  Z  " style="fill:rgb(157, 154, 157); fill-opacity:1.000; stroke:none;" />
 <path d="  M 31,26  L 31,25  L 30,25  L 30,26  Z  " style="fill:rgb(157, 154, 157); fill-opacity:1.000; stroke:none;" />
 <path d="  M 31,29  L 30,29  L 30,32  L 31,32  Z  " style="fill:rgb(157, 154, 157); fill-opacity:1.000; stroke:none;" />
 <path d="  M 32,34  L 31,34  L 31,33  L 30,33  L 30,35  L 32,35  Z  " style="fill:rgb(157, 154, 157); fill-opacity:1.000; stroke:none;" />
 <path d="  M 30,36  L 30,37  L 31,37  L 31,36  Z  " style="fill:rgb(157, 154, 157); fill-opacity:1.000; stroke:none;" />
 <path d="  M 30,44  L 31,44  L 31,41  L 30,41  Z  " style="fill:rgb(157, 154, 157); fill-opacity:1.000; stroke:none;" />
 <path d="  M 31,13  L 32,13  L 32,12  L 31,12  Z  " style="fill:rgb(157, 154, 157); fill-opacity:1.000; stroke:none;" />
 <path d="  M 31,29  L 32,29  L 32,28  L 31,28  Z  " style="fill:rgb(157, 154, 157); fill-opacity:1.000; stroke:none;" />
</svg>
