<?xml version="1.0" encoding="UTF-8" standalone="no"?>
<!DOCTYPE svg PUBLIC "-//W3C//DTD SVG 1.1//EN" 
  "http://www.w3.org/Graphics/SVG/1.1/DTD/svg11.dtd">
<svg width="64" height="64"
	 xmlns="http://www.w3.org/2000/svg" version="1.1">
 <path d="  M 1,2  L 2,2  L 2,1  L 4,1  L 4,0  L 0,0  L 0,4  L 1,4  Z  " style="fill:rgb(73, 72, 72); fill-opacity:1.000; stroke:none;" />
 <path d="  M 2,63  L 2,62  L 1,62  L 1,60  L 0,60  L 0,64  L 4,64  L 4,63  Z  " style="fill:rgb(73, 72, 72); fill-opacity:1.000; stroke:none;" />
 <path d="  M 5,17  L 6,17  L 6,16  L 5,16  Z  " style="fill:rgb(73, 72, 72); fill-opacity:1.000; stroke:none;" />
 <path d="  M 6,8  L 8,8  L 8,6  L 7,6  L 7,7  L 6,7  Z  " style="fill:rgb(73, 72, 72); fill-opacity:1.000; stroke:none;" />
 <path d="  M 8,18  L 7,18  L 7,17  L 8,17  Z  M 6,24  L 7,24  L 7,23  L 8,23  L 8,25  L 9,25  L 9,24  L 10,24  L 10,10  L 17,10  L 17,9  L 14,9  L 14,8  L 17,8  L 17,7  L 16,7  L 16,6  L 15,6  L 15,7  L 13,7  L 13,6  L 12,6  L 12,7  L 11,7  L 11,6  L 10,6  L 10,7  L 9,7  L 9,8  L 8,8  L 8,9  L 7,9  L 7,10  L 6,10  L 6,15  L 7,15  L 7,14  L 8,14  L 8,16  L 7,16  L 7,17  L 6,17  Z  " style="fill:rgb(73, 72, 72); fill-opacity:1.000; stroke:none;" />
 <path d="  M 7,36  L 6,36  L 6,37  L 7,37  L 7,38  L 8,38  L 8,40  L 9,40  L 9,39  L 10,39  L 10,27  L 9,27  L 9,26  L 8,26  L 8,25  L 7,25  L 7,26  L 6,26  L 6,28  L 7,28  L 7,27  L 8,27  L 8,28  L 9,28  L 9,29  L 8,29  L 8,30  L 7,30  L 7,31  L 6,31  L 6,33  L 8,33  L 8,34  L 7,34  Z  M 8,32  L 7,32  L 7,31  L 8,31  Z  " style="fill:rgb(73, 72, 72); fill-opacity:1.000; stroke:none;" />
 <path d="  M 6,40  L 7,40  L 7,38  L 6,38  Z  " style="fill:rgb(73, 72, 72); fill-opacity:1.000; stroke:none;" />
 <path d="  M 40,58  L 40,57  L 41,57  L 41,58  L 42,58  L 42,57  L 43,57  L 43,58  L 48,58  L 48,57  L 47,57  L 47,56  L 46,56  L 46,55  L 45,55  L 45,54  L 10,54  L 10,40  L 9,40  L 9,41  L 8,41  L 8,42  L 7,42  L 7,44  L 6,44  L 6,46  L 7,46  L 7,47  L 8,47  L 8,48  L 7,48  L 7,49  L 8,49  L 8,50  L 7,50  L 7,51  L 6,51  L 6,54  L 7,54  L 7,53  L 8,53  L 8,55  L 7,55  L 7,56  L 6,56  L 6,57  L 7,57  L 7,58  L 8,58  L 8,56  L 9,56  L 9,57  L 10,57  L 10,58  L 15,58  L 15,57  L 14,57  L 14,56  L 16,56  L 16,57  L 17,57  L 17,58  L 19,58  L 19,57  L 20,57  L 20,58  L 22,58  L 22,57  L 23,57  L 23,56  L 24,56  L 24,57  L 25,57  L 25,58  L 26,58  L 26,57  L 28,57  L 28,58  L 30,58  L 30,57  L 29,57  L 29,56  L 30,56  L 30,55  L 31,55  L 31,56  L 32,56  L 32,57  L 31,57  L 31,58  L 34,58  L 34,57  L 36,57  L 36,58  Z  M 10,57  L 10,55  L 12,55  L 12,56  L 11,56  L 11,57  Z  M 36,56  L 38,56  L 38,57  L 36,57  Z  M 33,56  L 34,56  L 34,57  L 33,57  Z  M 9,53  L 8,53  L 8,52  L 9,52  Z  M 21,57  L 21,56  L 22,56  L 22,57  Z  M 28,56  L 28,55  L 29,55  L 29,56  Z  " style="fill:rgb(73, 72, 72); fill-opacity:1.000; stroke:none;" />
 <path d="  M 7,49  L 6,49  L 6,50  L 7,50  Z  " style="fill:rgb(73, 72, 72); fill-opacity:1.000; stroke:none;" />
 <path d="  M 19,7  L 19,6  L 17,6  L 17,7  Z  " style="fill:rgb(73, 72, 72); fill-opacity:1.000; stroke:none;" />
 <path d="  M 54,10  L 54,12  L 55,12  L 55,13  L 56,13  L 56,14  L 57,14  L 57,13  L 58,13  L 58,12  L 57,12  L 57,11  L 58,11  L 58,9  L 57,9  L 57,10  L 56,10  L 56,8  L 55,8  L 55,7  L 54,7  L 54,6  L 52,6  L 52,7  L 50,7  L 50,8  L 49,8  L 49,9  L 48,9  L 48,8  L 47,8  L 47,7  L 46,7  L 46,6  L 45,6  L 45,7  L 44,7  L 44,8  L 42,8  L 42,9  L 40,9  L 40,8  L 41,8  L 41,7  L 40,7  L 40,6  L 38,6  L 38,7  L 37,7  L 37,6  L 34,6  L 34,7  L 33,7  L 33,6  L 32,6  L 32,8  L 30,8  L 30,7  L 28,7  L 28,6  L 27,6  L 27,7  L 26,7  L 26,6  L 21,6  L 21,7  L 22,7  L 22,8  L 19,8  L 19,9  L 18,9  L 18,10  Z  M 24,8  L 24,9  L 22,9  L 22,8  Z  M 25,7  L 25,8  L 24,8  L 24,7  Z  M 55,10  L 56,10  L 56,11  L 55,11  Z  M 38,7  L 39,7  L 39,8  L 38,8  Z  M 45,9  L 44,9  L 44,8  L 45,8  Z  M 33,8  L 33,9  L 32,9  L 32,8  Z  " style="fill:rgb(73, 72, 72); fill-opacity:1.000; stroke:none;" />
 <path d="  M 57,39  L 58,39  L 58,33  L 57,33  L 57,32  L 56,32  L 56,30  L 57,30  L 57,31  L 58,31  L 58,28  L 57,28  L 57,27  L 56,27  L 56,26  L 55,26  L 55,25  L 57,25  L 57,26  L 58,26  L 58,23  L 57,23  L 57,22  L 56,22  L 56,21  L 55,21  L 55,20  L 54,20  L 54,54  L 46,54  L 46,55  L 48,55  L 48,56  L 50,56  L 50,57  L 52,57  L 52,58  L 56,58  L 56,57  L 57,57  L 57,58  L 58,58  L 58,56  L 57,56  L 57,55  L 56,55  L 56,54  L 58,54  L 58,53  L 57,53  L 57,52  L 56,52  L 56,50  L 58,50  L 58,46  L 57,46  L 57,43  L 56,43  L 56,41  L 57,41  L 57,40  L 56,40  L 56,38  L 57,38  Z  M 55,49  L 56,49  L 56,50  L 55,50  Z  M 55,29  L 56,29  L 56,30  L 55,30  Z  M 56,37  L 56,38  L 55,38  L 55,37  Z  M 52,56  L 54,56  L 54,57  L 52,57  Z  " style="fill:rgb(73, 72, 72); fill-opacity:1.000; stroke:none;" />
 <path d="  M 48,7  L 48,8  L 49,8  L 49,7  Z  " style="fill:rgb(73, 72, 72); fill-opacity:1.000; stroke:none;" />
 <path d="  M 55,13  L 54,13  L 54,19  L 55,19  L 55,20  L 56,20  L 56,15  L 55,15  Z  " style="fill:rgb(73, 72, 72); fill-opacity:1.000; stroke:none;" />
 <path d="  M 58,8  L 58,7  L 57,7  L 57,6  L 56,6  L 56,8  Z  " style="fill:rgb(73, 72, 72); fill-opacity:1.000; stroke:none;" />
 <path d="  M 57,41  L 57,42  L 58,42  L 58,41  Z  " style="fill:rgb(73, 72, 72); fill-opacity:1.000; stroke:none;" />
 <path d="  M 58,32  L 59,32  L 59,31  L 58,31  Z  " style="fill:rgb(73, 72, 72); fill-opacity:1.000; stroke:none;" />
 <path d="  M 63,4  L 64,4  L 64,0  L 60,0  L 60,1  L 62,1  L 62,2  L 63,2  Z  " style="fill:rgb(73, 72, 72); fill-opacity:1.000; stroke:none;" />
 <path d="  M 64,60  L 63,60  L 63,62  L 62,62  L 62,63  L 60,63  L 60,64  L 64,64  Z  " style="fill:rgb(73, 72, 72); fill-opacity:1.000; stroke:none;" />
 <path d="  M 1,2  L 1,4  L 0,4  L 0,16  L 1,16  L 1,8  L 2,8  L 2,6  L 3,6  L 3,4  L 4,4  L 4,3  L 5,3  L 5,2  L 8,2  L 8,1  L 12,1  L 12,0  L 4,0  L 4,1  L 2,1  L 2,2  Z  " style="fill:rgb(79, 79, 79); fill-opacity:1.000; stroke:none;" />
 <path d="  M 12,64  L 12,63  L 8,63  L 8,62  L 3,62  L 3,61  L 2,61  L 2,56  L 1,56  L 1,52  L 0,52  L 0,60  L 1,60  L 1,62  L 2,62  L 2,63  L 4,63  L 4,64  Z  " style="fill:rgb(79, 79, 79); fill-opacity:1.000; stroke:none;" />
 <path d="  M 7,51  L 7,50  L 6,50  L 6,49  L 5,49  L 5,48  L 4,48  L 4,49  L 3,49  L 3,50  L 4,50  L 4,52  L 5,52  L 5,54  L 6,54  L 6,51  Z  " style="fill:rgb(79, 79, 79); fill-opacity:1.000; stroke:none;" />
 <path d="  M 4,53  L 4,52  L 3,52  L 3,53  Z  " style="fill:rgb(79, 79, 79); fill-opacity:1.000; stroke:none;" />
 <path d="  M 4,4  L 4,5  L 5,5  L 5,4  Z  " style="fill:rgb(79, 79, 79); fill-opacity:1.000; stroke:none;" />
 <path d="  M 5,17  L 5,16  L 6,16  L 6,17  Z  M 7,15  L 6,15  L 6,12  L 5,12  L 5,15  L 4,15  L 4,18  L 5,18  L 5,19  L 6,19  L 6,17  L 7,17  L 7,16  L 8,16  L 8,14  L 7,14  Z  " style="fill:rgb(79, 79, 79); fill-opacity:1.000; stroke:none;" />
 <path d="  M 4,33  L 4,34  L 5,34  L 5,33  Z  " style="fill:rgb(79, 79, 79); fill-opacity:1.000; stroke:none;" />
 <path d="  M 6,33  L 6,34  L 5,34  L 5,36  L 4,36  L 4,37  L 5,37  L 5,39  L 6,39  L 6,38  L 7,38  L 7,37  L 6,37  L 6,36  L 7,36  L 7,34  L 8,34  L 8,33  Z  " style="fill:rgb(79, 79, 79); fill-opacity:1.000; stroke:none;" />
 <path d="  M 4,41  L 4,42  L 5,42  L 5,41  Z  " style="fill:rgb(79, 79, 79); fill-opacity:1.000; stroke:none;" />
 <path d="  M 4,56  L 5,56  L 5,55  L 4,55  Z  " style="fill:rgb(79, 79, 79); fill-opacity:1.000; stroke:none;" />
 <path d="  M 7,59  L 8,59  L 8,58  L 7,58  L 7,57  L 6,57  L 6,56  L 5,56  L 5,57  L 4,57  L 4,58  L 5,58  L 5,59  L 6,59  L 6,60  L 7,60  Z  " style="fill:rgb(79, 79, 79); fill-opacity:1.000; stroke:none;" />
 <path d="  M 5,3  L 5,4  L 6,4  L 6,3  Z  " style="fill:rgb(79, 79, 79); fill-opacity:1.000; stroke:none;" />
 <path d="  M 8,8  L 9,8  L 9,7  L 10,7  L 10,6  L 9,6  L 9,5  L 10,5  L 10,4  L 8,4  L 8,5  L 6,5  L 6,6  L 5,6  L 5,7  L 7,7  L 7,6  L 8,6  Z  " style="fill:rgb(79, 79, 79); fill-opacity:1.000; stroke:none;" />
 <path d="  M 5,24  L 6,24  L 6,23  L 5,23  Z  " style="fill:rgb(79, 79, 79); fill-opacity:1.000; stroke:none;" />
 <path d="  M 8,27  L 7,27  L 7,28  L 5,28  L 5,29  L 6,29  L 6,31  L 7,31  L 7,30  L 8,30  L 8,29  L 9,29  L 9,28  L 8,28  Z  " style="fill:rgb(79, 79, 79); fill-opacity:1.000; stroke:none;" />
 <path d="  M 8,42  L 8,41  L 9,41  L 9,40  L 8,40  L 8,38  L 7,38  L 7,40  L 6,40  L 6,42  L 5,42  L 5,43  L 6,43  L 6,44  L 7,44  L 7,42  Z  " style="fill:rgb(79, 79, 79); fill-opacity:1.000; stroke:none;" />
 <path d="  M 5,46  L 6,46  L 6,45  L 5,45  Z  " style="fill:rgb(79, 79, 79); fill-opacity:1.000; stroke:none;" />
 <path d="  M 6,8  L 6,10  L 7,10  L 7,9  L 8,9  L 8,8  Z  " style="fill:rgb(79, 79, 79); fill-opacity:1.000; stroke:none;" />
 <path d="  M 7,25  L 8,25  L 8,23  L 7,23  L 7,24  L 6,24  L 6,26  L 7,26  Z  " style="fill:rgb(79, 79, 79); fill-opacity:1.000; stroke:none;" />
 <path d="  M 7,46  L 6,46  L 6,49  L 7,49  L 7,48  L 8,48  L 8,47  L 7,47  Z  " style="fill:rgb(79, 79, 79); fill-opacity:1.000; stroke:none;" />
 <path d="  M 8,55  L 8,53  L 7,53  L 7,54  L 6,54  L 6,56  L 7,56  L 7,55  Z  " style="fill:rgb(79, 79, 79); fill-opacity:1.000; stroke:none;" />
 <path d="  M 8,17  L 7,17  L 7,18  L 8,18  Z  " style="fill:rgb(79, 79, 79); fill-opacity:1.000; stroke:none;" />
 <path d="  M 8,32  L 8,31  L 7,31  L 7,32  Z  " style="fill:rgb(79, 79, 79); fill-opacity:1.000; stroke:none;" />
 <path d="  M 8,50  L 8,49  L 7,49  L 7,50  Z  " style="fill:rgb(79, 79, 79); fill-opacity:1.000; stroke:none;" />
 <path d="  M 9,27  L 10,27  L 10,24  L 9,24  L 9,25  L 8,25  L 8,26  L 9,26  Z  " style="fill:rgb(79, 79, 79); fill-opacity:1.000; stroke:none;" />
 <path d="  M 9,52  L 8,52  L 8,53  L 9,53  Z  " style="fill:rgb(79, 79, 79); fill-opacity:1.000; stroke:none;" />
 <path d="  M 12,59  L 12,58  L 10,58  L 10,57  L 9,57  L 9,56  L 8,56  L 8,58  L 9,58  L 9,59  Z  " style="fill:rgb(79, 79, 79); fill-opacity:1.000; stroke:none;" />
 <path d="  M 9,59  L 8,59  L 8,60  L 9,60  Z  " style="fill:rgb(79, 79, 79); fill-opacity:1.000; stroke:none;" />
 <path d="  M 9,39  L 9,40  L 10,40  L 10,39  Z  " style="fill:rgb(79, 79, 79); fill-opacity:1.000; stroke:none;" />
 <path d="  M 11,5  L 10,5  L 10,6  L 11,6  Z  " style="fill:rgb(79, 79, 79); fill-opacity:1.000; stroke:none;" />
 <path d="  M 12,55  L 10,55  L 10,57  L 11,57  L 11,56  L 12,56  Z  " style="fill:rgb(79, 79, 79); fill-opacity:1.000; stroke:none;" />
 <path d="  M 12,6  L 11,6  L 11,7  L 12,7  Z  " style="fill:rgb(79, 79, 79); fill-opacity:1.000; stroke:none;" />
 <path d="  M 13,4  L 12,4  L 12,6  L 13,6  L 13,7  L 15,7  L 15,6  L 14,6  L 14,5  L 13,5  Z  " style="fill:rgb(79, 79, 79); fill-opacity:1.000; stroke:none;" />
 <path d="  M 13,59  L 13,60  L 14,60  L 14,59  Z  " style="fill:rgb(79, 79, 79); fill-opacity:1.000; stroke:none;" />
 <path d="  M 17,7  L 17,8  L 14,8  L 14,9  L 17,9  L 17,10  L 18,10  L 18,9  L 19,9  L 19,8  L 22,8  L 22,7  L 21,7  L 21,6  L 19,6  L 19,7  Z  " style="fill:rgb(79, 79, 79); fill-opacity:1.000; stroke:none;" />
 <path d="  M 15,58  L 17,58  L 17,57  L 16,57  L 16,56  L 14,56  L 14,57  L 15,57  Z  " style="fill:rgb(79, 79, 79); fill-opacity:1.000; stroke:none;" />
 <path d="  M 15,62  L 15,61  L 16,61  L 16,60  L 14,60  L 14,62  Z  " style="fill:rgb(79, 79, 79); fill-opacity:1.000; stroke:none;" />
 <path d="  M 16,6  L 16,7  L 17,7  L 17,6  Z  " style="fill:rgb(79, 79, 79); fill-opacity:1.000; stroke:none;" />
 <path d="  M 17,58  L 17,59  L 18,59  L 18,60  L 19,60  L 19,59  L 20,59  L 20,57  L 19,57  L 19,58  Z  " style="fill:rgb(79, 79, 79); fill-opacity:1.000; stroke:none;" />
 <path d="  M 19,6  L 19,5  L 18,5  L 18,6  Z  " style="fill:rgb(79, 79, 79); fill-opacity:1.000; stroke:none;" />
 <path d="  M 21,56  L 21,57  L 22,57  L 22,56  Z  " style="fill:rgb(79, 79, 79); fill-opacity:1.000; stroke:none;" />
 <path d="  M 27,60  L 27,59  L 26,59  L 26,58  L 25,58  L 25,57  L 24,57  L 24,56  L 23,56  L 23,57  L 22,57  L 22,58  L 21,58  L 21,59  L 23,59  L 23,60  L 24,60  L 24,59  L 25,59  L 25,60  Z  " style="fill:rgb(79, 79, 79); fill-opacity:1.000; stroke:none;" />
 <path d="  M 22,5  L 23,5  L 23,4  L 22,4  Z  " style="fill:rgb(79, 79, 79); fill-opacity:1.000; stroke:none;" />
 <path d="  M 24,9  L 24,8  L 22,8  L 22,9  Z  " style="fill:rgb(79, 79, 79); fill-opacity:1.000; stroke:none;" />
 <path d="  M 26,6  L 26,7  L 27,7  L 27,6  L 28,6  L 28,5  L 29,5  L 29,4  L 27,4  L 27,5  L 25,5  L 25,4  L 24,4  L 24,5  L 23,5  L 23,6  Z  " style="fill:rgb(79, 79, 79); fill-opacity:1.000; stroke:none;" />
 <path d="  M 25,8  L 25,7  L 24,7  L 24,8  Z  " style="fill:rgb(79, 79, 79); fill-opacity:1.000; stroke:none;" />
 <path d="  M 26,3  L 26,4  L 27,4  L 27,3  Z  " style="fill:rgb(79, 79, 79); fill-opacity:1.000; stroke:none;" />
 <path d="  M 28,58  L 28,57  L 26,57  L 26,58  Z  " style="fill:rgb(79, 79, 79); fill-opacity:1.000; stroke:none;" />
 <path d="  M 30,7  L 30,8  L 32,8  L 32,6  L 33,6  L 33,5  L 31,5  L 31,6  L 28,6  L 28,7  Z  " style="fill:rgb(79, 79, 79); fill-opacity:1.000; stroke:none;" />
 <path d="  M 28,56  L 29,56  L 29,55  L 28,55  Z  " style="fill:rgb(79, 79, 79); fill-opacity:1.000; stroke:none;" />
 <path d="  M 31,57  L 32,57  L 32,56  L 31,56  L 31,55  L 30,55  L 30,56  L 29,56  L 29,57  L 30,57  L 30,58  L 31,58  Z  " style="fill:rgb(79, 79, 79); fill-opacity:1.000; stroke:none;" />
 <path d="  M 32,9  L 33,9  L 33,8  L 32,8  Z  " style="fill:rgb(79, 79, 79); fill-opacity:1.000; stroke:none;" />
 <path d="  M 33,6  L 33,7  L 34,7  L 34,6  Z  " style="fill:rgb(79, 79, 79); fill-opacity:1.000; stroke:none;" />
 <path d="  M 34,57  L 34,56  L 33,56  L 33,57  Z  " style="fill:rgb(79, 79, 79); fill-opacity:1.000; stroke:none;" />
 <path d="  M 36,57  L 34,57  L 34,58  L 33,58  L 33,59  L 34,59  L 34,60  L 35,60  L 35,59  L 36,59  Z  " style="fill:rgb(79, 79, 79); fill-opacity:1.000; stroke:none;" />
 <path d="  M 38,5  L 38,4  L 36,4  L 36,5  L 35,5  L 35,6  L 37,6  L 37,7  L 38,7  L 38,6  L 39,6  L 39,5  Z  " style="fill:rgb(79, 79, 79); fill-opacity:1.000; stroke:none;" />
 <path d="  M 38,57  L 38,56  L 36,56  L 36,57  Z  " style="fill:rgb(79, 79, 79); fill-opacity:1.000; stroke:none;" />
 <path d="  M 39,4  L 39,3  L 38,3  L 38,4  Z  " style="fill:rgb(79, 79, 79); fill-opacity:1.000; stroke:none;" />
 <path d="  M 38,7  L 38,8  L 39,8  L 39,7  Z  " style="fill:rgb(79, 79, 79); fill-opacity:1.000; stroke:none;" />
 <path d="  M 41,59  L 42,59  L 42,58  L 41,58  L 41,57  L 40,57  L 40,58  L 38,58  L 38,59  L 39,59  L 39,60  L 41,60  Z  " style="fill:rgb(79, 79, 79); fill-opacity:1.000; stroke:none;" />
 <path d="  M 43,5  L 42,5  L 42,6  L 40,6  L 40,7  L 41,7  L 41,8  L 40,8  L 40,9  L 42,9  L 42,8  L 44,8  L 44,7  L 45,7  L 45,6  L 43,6  Z  " style="fill:rgb(79, 79, 79); fill-opacity:1.000; stroke:none;" />
 <path d="  M 42,58  L 43,58  L 43,57  L 42,57  Z  " style="fill:rgb(79, 79, 79); fill-opacity:1.000; stroke:none;" />
 <path d="  M 45,5  L 45,4  L 44,4  L 44,5  Z  " style="fill:rgb(79, 79, 79); fill-opacity:1.000; stroke:none;" />
 <path d="  M 44,9  L 45,9  L 45,8  L 44,8  Z  " style="fill:rgb(79, 79, 79); fill-opacity:1.000; stroke:none;" />
 <path d="  M 45,3  L 45,4  L 46,4  L 46,5  L 48,5  L 48,4  L 47,4  L 47,3  L 48,3  L 48,2  L 46,2  L 46,3  Z  " style="fill:rgb(79, 79, 79); fill-opacity:1.000; stroke:none;" />
 <path d="  M 46,54  L 45,54  L 45,55  L 46,55  Z  " style="fill:rgb(79, 79, 79); fill-opacity:1.000; stroke:none;" />
 <path d="  M 48,5  L 48,6  L 46,6  L 46,7  L 47,7  L 47,8  L 48,8  L 48,7  L 49,7  L 49,8  L 50,8  L 50,7  L 52,7  L 52,6  L 54,6  L 54,5  L 52,5  L 52,4  L 50,4  L 50,5  Z  " style="fill:rgb(79, 79, 79); fill-opacity:1.000; stroke:none;" />
 <path d="  M 51,58  L 51,59  L 53,59  L 53,58  L 52,58  L 52,57  L 50,57  L 50,56  L 48,56  L 48,55  L 46,55  L 46,56  L 47,56  L 47,57  L 48,57  L 48,58  Z  " style="fill:rgb(79, 79, 79); fill-opacity:1.000; stroke:none;" />
 <path d="  M 47,58  L 47,59  L 48,59  L 48,58  Z  " style="fill:rgb(79, 79, 79); fill-opacity:1.000; stroke:none;" />
 <path d="  M 64,4  L 63,4  L 63,2  L 62,2  L 62,1  L 60,1  L 60,0  L 48,0  L 48,1  L 56,1  L 56,2  L 61,2  L 61,3  L 62,3  L 62,8  L 63,8  L 63,16  L 64,16  Z  " style="fill:rgb(79, 79, 79); fill-opacity:1.000; stroke:none;" />
 <path d="  M 48,8  L 48,9  L 49,9  L 49,8  Z  " style="fill:rgb(79, 79, 79); fill-opacity:1.000; stroke:none;" />
 <path d="  M 48,63  L 48,64  L 60,64  L 60,63  L 62,63  L 62,62  L 63,62  L 63,60  L 64,60  L 64,52  L 63,52  L 63,56  L 62,56  L 62,61  L 61,61  L 61,62  L 56,62  L 56,63  Z  " style="fill:rgb(79, 79, 79); fill-opacity:1.000; stroke:none;" />
 <path d="  M 50,60  L 51,60  L 51,59  L 50,59  Z  " style="fill:rgb(79, 79, 79); fill-opacity:1.000; stroke:none;" />
 <path d="  M 52,56  L 52,57  L 54,57  L 54,56  Z  " style="fill:rgb(79, 79, 79); fill-opacity:1.000; stroke:none;" />
 <path d="  M 56,8  L 56,6  L 54,6  L 54,7  L 55,7  L 55,8  Z  " style="fill:rgb(79, 79, 79); fill-opacity:1.000; stroke:none;" />
 <path d="  M 54,12  L 54,13  L 55,13  L 55,12  Z  " style="fill:rgb(79, 79, 79); fill-opacity:1.000; stroke:none;" />
 <path d="  M 55,19  L 54,19  L 54,20  L 55,20  Z  " style="fill:rgb(79, 79, 79); fill-opacity:1.000; stroke:none;" />
 <path d="  M 56,10  L 55,10  L 55,11  L 56,11  Z  " style="fill:rgb(79, 79, 79); fill-opacity:1.000; stroke:none;" />
 <path d="  M 56,13  L 55,13  L 55,15  L 56,15  L 56,16  L 57,16  L 57,14  L 56,14  Z  " style="fill:rgb(79, 79, 79); fill-opacity:1.000; stroke:none;" />
 <path d="  M 57,18  L 56,18  L 56,20  L 55,20  L 55,21  L 56,21  L 56,22  L 57,22  L 57,23  L 58,23  L 58,21  L 57,21  Z  " style="fill:rgb(79, 79, 79); fill-opacity:1.000; stroke:none;" />
 <path d="  M 55,26  L 56,26  L 56,27  L 57,27  L 57,28  L 58,28  L 58,27  L 59,27  L 59,26  L 57,26  L 57,25  L 55,25  Z  " style="fill:rgb(79, 79, 79); fill-opacity:1.000; stroke:none;" />
 <path d="  M 56,30  L 56,29  L 55,29  L 55,30  Z  " style="fill:rgb(79, 79, 79); fill-opacity:1.000; stroke:none;" />
 <path d="  M 55,37  L 55,38  L 56,38  L 56,37  Z  " style="fill:rgb(79, 79, 79); fill-opacity:1.000; stroke:none;" />
 <path d="  M 55,49  L 55,50  L 56,50  L 56,49  Z  " style="fill:rgb(79, 79, 79); fill-opacity:1.000; stroke:none;" />
 <path d="  M 56,5  L 56,6  L 57,6  L 57,5  Z  " style="fill:rgb(79, 79, 79); fill-opacity:1.000; stroke:none;" />
 <path d="  M 56,8  L 56,10  L 57,10  L 57,9  L 58,9  L 58,8  Z  " style="fill:rgb(79, 79, 79); fill-opacity:1.000; stroke:none;" />
 <path d="  M 57,30  L 56,30  L 56,32  L 57,32  L 57,33  L 58,33  L 58,36  L 59,36  L 59,34  L 60,34  L 60,30  L 59,30  L 59,28  L 58,28  L 58,31  L 57,31  Z  M 59,31  L 59,32  L 58,32  L 58,31  Z  " style="fill:rgb(79, 79, 79); fill-opacity:1.000; stroke:none;" />
 <path d="  M 57,38  L 56,38  L 56,40  L 57,40  L 57,41  L 58,41  L 58,39  L 57,39  Z  " style="fill:rgb(79, 79, 79); fill-opacity:1.000; stroke:none;" />
 <path d="  M 57,43  L 57,46  L 58,46  L 58,44  L 59,44  L 59,42  L 57,42  L 57,41  L 56,41  L 56,43  Z  " style="fill:rgb(79, 79, 79); fill-opacity:1.000; stroke:none;" />
 <path d="  M 58,51  L 58,50  L 56,50  L 56,52  L 57,52  L 57,53  L 58,53  L 58,52  L 59,52  L 59,51  Z  " style="fill:rgb(79, 79, 79); fill-opacity:1.000; stroke:none;" />
 <path d="  M 56,54  L 56,55  L 57,55  L 57,56  L 58,56  L 58,55  L 59,55  L 59,53  L 58,53  L 58,54  Z  " style="fill:rgb(79, 79, 79); fill-opacity:1.000; stroke:none;" />
 <path d="  M 57,57  L 56,57  L 56,58  L 57,58  Z  " style="fill:rgb(79, 79, 79); fill-opacity:1.000; stroke:none;" />
 <path d="  M 59,7  L 59,5  L 58,5  L 58,6  L 57,6  L 57,7  Z  " style="fill:rgb(79, 79, 79); fill-opacity:1.000; stroke:none;" />
 <path d="  M 57,11  L 57,12  L 58,12  L 58,11  Z  " style="fill:rgb(79, 79, 79); fill-opacity:1.000; stroke:none;" />
 <path d="  M 57,13  L 57,14  L 58,14  L 58,13  Z  " style="fill:rgb(79, 79, 79); fill-opacity:1.000; stroke:none;" />
 <path d="  M 57,58  L 57,59  L 59,59  L 59,57  L 58,57  L 58,58  Z  " style="fill:rgb(79, 79, 79); fill-opacity:1.000; stroke:none;" />
 <path d="  M 59,10  L 58,10  L 58,11  L 59,11  Z  " style="fill:rgb(79, 79, 79); fill-opacity:1.000; stroke:none;" />
 <path d="  M 59,23  L 58,23  L 58,24  L 59,24  Z  " style="fill:rgb(79, 79, 79); fill-opacity:1.000; stroke:none;" />
 <path d="  M 59,48  L 58,48  L 58,50  L 59,50  Z  " style="fill:rgb(79, 79, 79); fill-opacity:1.000; stroke:none;" />
 <path d="  M 59,4  L 59,5  L 60,5  L 60,4  Z  " style="fill:rgb(79, 79, 79); fill-opacity:1.000; stroke:none;" />
 <path d="  M 60,26  L 60,25  L 59,25  L 59,26  Z  " style="fill:rgb(79, 79, 79); fill-opacity:1.000; stroke:none;" />
 <path d="  M 59,45  L 60,45  L 60,44  L 59,44  Z  " style="fill:rgb(79, 79, 79); fill-opacity:1.000; stroke:none;" />
 <path d="  M 59,60  L 60,60  L 60,59  L 59,59  Z  " style="fill:rgb(79, 79, 79); fill-opacity:1.000; stroke:none;" />
 <path d="  M 42,58  L 42,59  L 41,59  L 41,60  L 39,60  L 39,59  L 38,59  L 38,58  L 36,58  L 36,59  L 35,59  L 35,60  L 34,60  L 34,59  L 33,59  L 33,58  L 26,58  L 26,59  L 27,59  L 27,60  L 25,60  L 25,59  L 24,59  L 24,60  L 23,60  L 23,59  L 21,59  L 21,58  L 20,58  L 20,59  L 19,59  L 19,60  L 18,60  L 18,59  L 17,59  L 17,58  L 12,58  L 12,59  L 9,59  L 9,60  L 8,60  L 8,59  L 7,59  L 7,60  L 6,60  L 6,59  L 5,59  L 5,58  L 4,58  L 4,57  L 5,57  L 5,56  L 6,56  L 6,54  L 5,54  L 5,52  L 4,52  L 4,50  L 3,50  L 3,49  L 4,49  L 4,48  L 5,48  L 5,49  L 6,49  L 6,46  L 5,46  L 5,45  L 6,45  L 6,43  L 5,43  L 5,42  L 6,42  L 6,39  L 5,39  L 5,37  L 4,37  L 4,36  L 5,36  L 5,34  L 6,34  L 6,29  L 5,29  L 5,28  L 6,28  L 6,24  L 5,24  L 5,23  L 6,23  L 6,19  L 5,19  L 5,18  L 4,18  L 4,15  L 5,15  L 5,12  L 6,12  L 6,7  L 5,7  L 5,6  L 6,6  L 6,5  L 8,5  L 8,4  L 10,4  L 10,5  L 11,5  L 11,6  L 12,6  L 12,4  L 13,4  L 13,5  L 14,5  L 14,6  L 18,6  L 18,5  L 19,5  L 19,6  L 23,6  L 23,5  L 24,5  L 24,4  L 25,4  L 25,5  L 27,5  L 27,4  L 29,4  L 29,5  L 28,5  L 28,6  L 31,6  L 31,5  L 33,5  L 33,6  L 35,6  L 35,5  L 36,5  L 36,4  L 38,4  L 38,5  L 39,5  L 39,6  L 42,6  L 42,5  L 43,5  L 43,6  L 48,6  L 48,5  L 50,5  L 50,4  L 52,4  L 52,5  L 54,5  L 54,6  L 56,6  L 56,5  L 57,5  L 57,6  L 58,6  L 58,5  L 59,5  L 59,7  L 58,7  L 58,10  L 59,10  L 59,11  L 58,11  L 58,14  L 57,14  L 57,16  L 56,16  L 56,18  L 57,18  L 57,21  L 58,21  L 58,23  L 59,23  L 59,24  L 58,24  L 58,26  L 59,26  L 59,27  L 58,27  L 58,28  L 59,28  L 59,30  L 60,30  L 60,34  L 59,34  L 59,36  L 58,36  L 58,42  L 59,42  L 59,44  L 58,44  L 58,48  L 59,48  L 59,50  L 58,50  L 58,51  L 59,51  L 59,52  L 58,52  L 58,53  L 59,53  L 59,55  L 58,55  L 58,57  L 59,57  L 59,59  L 57,59  L 57,58  L 53,58  L 53,59  L 51,59  L 51,58  L 48,58  L 48,59  L 47,59  L 47,58  Z  M 61,2  L 56,2  L 56,1  L 48,1  L 48,0  L 39,0  L 39,1  L 38,1  L 38,2  L 34,2  L 34,1  L 32,1  L 32,0  L 28,0  L 28,1  L 31,1  L 31,2  L 24,2  L 24,1  L 22,1  L 22,0  L 12,0  L 12,1  L 8,1  L 8,2  L 5,2  L 5,3  L 6,3  L 6,4  L 5,4  L 5,5  L 4,5  L 4,4  L 3,4  L 3,6  L 2,6  L 2,8  L 1,8  L 1,16  L 0,16  L 0,22  L 1,22  L 1,23  L 2,23  L 2,25  L 1,25  L 1,30  L 2,30  L 2,37  L 1,37  L 1,39  L 2,39  L 2,40  L 1,40  L 1,41  L 0,41  L 0,52  L 1,52  L 1,56  L 2,56  L 2,61  L 3,61  L 3,62  L 8,62  L 8,63  L 12,63  L 12,64  L 20,64  L 20,63  L 21,63  L 21,64  L 24,64  L 24,63  L 28,63  L 28,62  L 30,62  L 30,63  L 34,63  L 34,62  L 36,62  L 36,63  L 37,63  L 37,64  L 38,64  L 38,63  L 39,63  L 39,64  L 48,64  L 48,63  L 56,63  L 56,62  L 61,62  L 61,61  L 62,61  L 62,56  L 63,56  L 63,52  L 64,52  L 64,40  L 63,40  L 63,38  L 62,38  L 62,32  L 63,32  L 63,31  L 62,31  L 62,26  L 63,26  L 63,25  L 64,25  L 64,22  L 63,22  L 63,20  L 64,20  L 64,16  L 63,16  L 63,8  L 62,8  L 62,3  L 61,3  Z  M 59,4  L 60,4  L 60,5  L 59,5  Z  M 46,4  L 45,4  L 45,3  L 46,3  L 46,2  L 48,2  L 48,3  L 47,3  L 47,4  L 48,4  L 48,5  L 46,5  Z  M 51,59  L 51,60  L 50,60  L 50,59  Z  M 4,41  L 5,41  L 5,42  L 4,42  Z  M 3,52  L 4,52  L 4,53  L 3,53  Z  M 4,33  L 5,33  L 5,34  L 4,34  Z  M 45,5  L 44,5  L 44,4  L 45,4  Z  M 26,3  L 27,3  L 27,4  L 26,4  Z  M 13,60  L 13,59  L 14,59  L 14,60  Z  M 59,60  L 59,59  L 60,59  L 60,60  Z  M 38,4  L 38,3  L 39,3  L 39,4  Z  M 15,61  L 15,62  L 14,62  L 14,60  L 16,60  L 16,61  Z  M 60,26  L 59,26  L 59,25  L 60,25  Z  M 59,45  L 59,44  L 60,44  L 60,45  Z  M 23,5  L 22,5  L 22,4  L 23,4  Z  M 5,55  L 5,56  L 4,56  L 4,55  Z  M 22,62  L 22,63  L 21,63  L 21,62  Z  " style="fill:rgb(89, 88, 88); fill-opacity:1.000; stroke:none;" />
 <path d="  M 0,25  L 1,25  L 1,24  L 0,24  Z  " style="fill:rgb(89, 88, 88); fill-opacity:1.000; stroke:none;" />
 <path d="  M 1,36  L 0,36  L 0,37  L 1,37  Z  " style="fill:rgb(89, 88, 88); fill-opacity:1.000; stroke:none;" />
 <path d="  M 5,3  L 4,3  L 4,4  L 5,4  Z  " style="fill:rgb(89, 88, 88); fill-opacity:1.000; stroke:none;" />
 <path d="  M 9,59  L 9,58  L 8,58  L 8,59  Z  " style="fill:rgb(89, 88, 88); fill-opacity:1.000; stroke:none;" />
 <path d="  M 9,6  L 10,6  L 10,5  L 9,5  Z  " style="fill:rgb(89, 88, 88); fill-opacity:1.000; stroke:none;" />
 <path d="  M 24,1  L 25,1  L 25,0  L 24,0  Z  " style="fill:rgb(89, 88, 88); fill-opacity:1.000; stroke:none;" />
 <path d="  M 30,63  L 29,63  L 29,64  L 30,64  Z  " style="fill:rgb(89, 88, 88); fill-opacity:1.000; stroke:none;" />
 <path d="  M 63,27  L 64,27  L 64,26  L 63,26  Z  " style="fill:rgb(89, 88, 88); fill-opacity:1.000; stroke:none;" />
 <path d="  M 2,23  L 1,23  L 1,22  L 0,22  L 0,24  L 1,24  L 1,25  L 2,25  Z  " style="fill:rgb(103, 97, 97); fill-opacity:1.000; stroke:none;" />
 <path d="  M 1,37  L 2,37  L 2,30  L 1,30  L 1,25  L 0,25  L 0,36  L 1,36  Z  " style="fill:rgb(103, 97, 97); fill-opacity:1.000; stroke:none;" />
 <path d="  M 0,41  L 1,41  L 1,40  L 2,40  L 2,39  L 1,39  L 1,37  L 0,37  Z  " style="fill:rgb(103, 97, 97); fill-opacity:1.000; stroke:none;" />
 <path d="  M 20,63  L 20,64  L 21,64  L 21,63  Z  " style="fill:rgb(103, 97, 97); fill-opacity:1.000; stroke:none;" />
 <path d="  M 22,63  L 22,62  L 21,62  L 21,63  Z  " style="fill:rgb(103, 97, 97); fill-opacity:1.000; stroke:none;" />
 <path d="  M 24,1  L 24,0  L 22,0  L 22,1  Z  " style="fill:rgb(103, 97, 97); fill-opacity:1.000; stroke:none;" />
 <path d="  M 31,2  L 31,1  L 28,1  L 28,0  L 25,0  L 25,1  L 24,1  L 24,2  Z  " style="fill:rgb(103, 97, 97); fill-opacity:1.000; stroke:none;" />
 <path d="  M 28,62  L 28,63  L 24,63  L 24,64  L 29,64  L 29,63  L 30,63  L 30,62  Z  " style="fill:rgb(103, 97, 97); fill-opacity:1.000; stroke:none;" />
 <path d="  M 30,64  L 37,64  L 37,63  L 36,63  L 36,62  L 34,62  L 34,63  L 30,63  Z  " style="fill:rgb(103, 97, 97); fill-opacity:1.000; stroke:none;" />
 <path d="  M 38,2  L 38,1  L 39,1  L 39,0  L 32,0  L 32,1  L 34,1  L 34,2  Z  " style="fill:rgb(103, 97, 97); fill-opacity:1.000; stroke:none;" />
 <path d="  M 38,64  L 39,64  L 39,63  L 38,63  Z  " style="fill:rgb(103, 97, 97); fill-opacity:1.000; stroke:none;" />
 <path d="  M 62,31  L 63,31  L 63,32  L 62,32  L 62,38  L 63,38  L 63,40  L 64,40  L 64,27  L 63,27  L 63,26  L 62,26  Z  " style="fill:rgb(103, 97, 97); fill-opacity:1.000; stroke:none;" />
 <path d="  M 63,20  L 63,22  L 64,22  L 64,20  Z  " style="fill:rgb(103, 97, 97); fill-opacity:1.000; stroke:none;" />
 <path d="  M 63,25  L 63,26  L 64,26  L 64,25  Z  " style="fill:rgb(103, 97, 97); fill-opacity:1.000; stroke:none;" />
 <path d="  M 50,11  L 50,12  L 52,12  L 52,14  L 53,14  L 53,48  L 52,48  L 52,52  L 50,52  L 50,53  L 14,53  L 14,52  L 12,52  L 12,50  L 11,50  L 11,14  L 12,14  L 12,12  L 14,12  L 14,11  Z  M 10,10  L 10,54  L 54,54  L 54,10  Z  " style="fill:rgb(52, 52, 56); fill-opacity:1.000; stroke:none;" />
 <path d="  M 11,50  L 12,50  L 12,14  L 11,14  Z  " style="fill:rgb(63, 62, 66); fill-opacity:1.000; stroke:none;" />
 <path d="  M 14,11  L 14,12  L 50,12  L 50,11  Z  " style="fill:rgb(63, 62, 66); fill-opacity:1.000; stroke:none;" />
 <path d="  M 50,53  L 50,52  L 14,52  L 14,53  Z  " style="fill:rgb(63, 62, 66); fill-opacity:1.000; stroke:none;" />
 <path d="  M 52,48  L 53,48  L 53,14  L 52,14  Z  " style="fill:rgb(63, 62, 66); fill-opacity:1.000; stroke:none;" />
</svg>
