<?xml version="1.0" encoding="UTF-8" standalone="no"?>
<!DOCTYPE svg PUBLIC "-//W3C//DTD SVG 1.1//EN" 
  "http://www.w3.org/Graphics/SVG/1.1/DTD/svg11.dtd">
<svg width="64" height="64"
	 xmlns="http://www.w3.org/2000/svg" version="1.1">
 <path d="  M 1,2  L 2,2  L 2,1  L 4,1  L 4,0  L 0,0  L 0,4  L 1,4  Z  " style="fill:rgb(41, 36, 34); fill-opacity:1.000; stroke:none;" />
 <path d="  M 2,63  L 2,62  L 1,62  L 1,60  L 0,60  L 0,64  L 4,64  L 4,63  Z  " style="fill:rgb(41, 36, 34); fill-opacity:1.000; stroke:none;" />
 <path d="  M 64,60  L 63,60  L 63,62  L 62,62  L 62,63  L 60,63  L 60,64  L 64,64  Z  " style="fill:rgb(41, 36, 34); fill-opacity:1.000; stroke:none;" />
 <path d="  M 1,2  L 1,4  L 0,4  L 0,12  L 1,12  L 1,5  L 2,5  L 2,3  L 3,3  L 3,2  L 5,2  L 5,1  L 12,1  L 12,0  L 4,0  L 4,1  L 2,1  L 2,2  Z  " style="fill:rgb(49, 44, 40); fill-opacity:1.000; stroke:none;" />
 <path d="  M 12,64  L 12,63  L 5,63  L 5,62  L 3,62  L 3,61  L 2,61  L 2,59  L 1,59  L 1,36  L 0,36  L 0,60  L 1,60  L 1,62  L 2,62  L 2,63  L 4,63  L 4,64  Z  " style="fill:rgb(49, 44, 40); fill-opacity:1.000; stroke:none;" />
 <path d="  M 24,63  L 24,64  L 32,64  L 32,63  Z  " style="fill:rgb(49, 44, 40); fill-opacity:1.000; stroke:none;" />
 <path d="  M 59,1  L 59,2  L 61,2  L 61,3  L 62,3  L 62,5  L 63,5  L 63,24  L 64,24  L 64,4  L 63,4  L 63,2  L 62,2  L 62,1  L 60,1  L 60,0  L 36,0  L 36,1  Z  " style="fill:rgb(49, 44, 40); fill-opacity:1.000; stroke:none;" />
 <path d="  M 64,52  L 63,52  L 63,59  L 62,59  L 62,61  L 61,61  L 61,62  L 59,62  L 59,63  L 56,63  L 56,64  L 60,64  L 60,63  L 62,63  L 62,62  L 63,62  L 63,60  L 64,60  Z  " style="fill:rgb(49, 44, 40); fill-opacity:1.000; stroke:none;" />
 <path d="  M 32,63  L 32,64  L 56,64  L 56,63  L 59,63  L 59,62  L 61,62  L 61,61  L 62,61  L 62,59  L 63,59  L 63,52  L 64,52  L 64,24  L 63,24  L 63,5  L 62,5  L 62,3  L 61,3  L 61,2  L 59,2  L 59,1  L 36,1  L 36,0  L 12,0  L 12,1  L 5,1  L 5,2  L 3,2  L 3,3  L 2,3  L 2,5  L 1,5  L 1,12  L 0,12  L 0,36  L 1,36  L 1,59  L 2,59  L 2,61  L 3,61  L 3,62  L 5,62  L 5,63  Z  M 4,4  L 60,4  L 60,60  L 4,60  Z  " style="fill:rgb(54, 50, 47); fill-opacity:1.000; stroke:none;" />
 <path d="  M 4,8  L 5,8  L 5,5  L 8,5  L 8,4  L 4,4  Z  " style="fill:rgb(134, 73, 45); fill-opacity:1.000; stroke:none;" />
 <path d="  M 4,14  L 5,14  L 5,12  L 4,12  Z  " style="fill:rgb(134, 73, 45); fill-opacity:1.000; stroke:none;" />
 <path d="  M 4,18  L 5,18  L 5,16  L 4,16  Z  " style="fill:rgb(134, 73, 45); fill-opacity:1.000; stroke:none;" />
 <path d="  M 5,22  L 4,22  L 4,26  L 5,26  Z  " style="fill:rgb(134, 73, 45); fill-opacity:1.000; stroke:none;" />
 <path d="  M 4,30  L 5,30  L 5,28  L 4,28  Z  " style="fill:rgb(134, 73, 45); fill-opacity:1.000; stroke:none;" />
 <path d="  M 4,38  L 5,38  L 5,34  L 4,34  Z  " style="fill:rgb(134, 73, 45); fill-opacity:1.000; stroke:none;" />
 <path d="  M 4,44  L 4,46  L 5,46  L 5,44  Z  " style="fill:rgb(134, 73, 45); fill-opacity:1.000; stroke:none;" />
 <path d="  M 4,48  L 4,50  L 5,50  L 5,48  Z  " style="fill:rgb(134, 73, 45); fill-opacity:1.000; stroke:none;" />
 <path d="  M 5,54  L 4,54  L 4,58  L 5,58  Z  " style="fill:rgb(134, 73, 45); fill-opacity:1.000; stroke:none;" />
 <path d="  M 8,59  L 8,60  L 12,60  L 12,59  Z  " style="fill:rgb(134, 73, 45); fill-opacity:1.000; stroke:none;" />
 <path d="  M 24,59  L 20,59  L 20,60  L 24,60  Z  " style="fill:rgb(134, 73, 45); fill-opacity:1.000; stroke:none;" />
 <path d="  M 26,59  L 26,60  L 30,60  L 30,59  Z  " style="fill:rgb(134, 73, 45); fill-opacity:1.000; stroke:none;" />
 <path d="  M 36,60  L 36,59  L 32,59  L 32,60  Z  " style="fill:rgb(134, 73, 45); fill-opacity:1.000; stroke:none;" />
 <path d="  M 40,5  L 40,4  L 36,4  L 36,5  Z  " style="fill:rgb(134, 73, 45); fill-opacity:1.000; stroke:none;" />
 <path d="  M 48,4  L 48,5  L 52,5  L 52,4  Z  " style="fill:rgb(134, 73, 45); fill-opacity:1.000; stroke:none;" />
 <path d="  M 59,10  L 60,10  L 60,6  L 59,6  Z  " style="fill:rgb(134, 73, 45); fill-opacity:1.000; stroke:none;" />
 <path d="  M 60,12  L 59,12  L 59,14  L 60,14  Z  " style="fill:rgb(134, 73, 45); fill-opacity:1.000; stroke:none;" />
 <path d="  M 60,18  L 60,16  L 59,16  L 59,18  Z  " style="fill:rgb(134, 73, 45); fill-opacity:1.000; stroke:none;" />
 <path d="  M 60,26  L 60,24  L 59,24  L 59,26  Z  " style="fill:rgb(134, 73, 45); fill-opacity:1.000; stroke:none;" />
 <path d="  M 59,30  L 60,30  L 60,28  L 59,28  Z  " style="fill:rgb(134, 73, 45); fill-opacity:1.000; stroke:none;" />
 <path d="  M 60,32  L 59,32  L 59,34  L 60,34  Z  " style="fill:rgb(134, 73, 45); fill-opacity:1.000; stroke:none;" />
 <path d="  M 59,42  L 60,42  L 60,40  L 59,40  Z  " style="fill:rgb(134, 73, 45); fill-opacity:1.000; stroke:none;" />
 <path d="  M 59,44  L 59,46  L 60,46  L 60,44  Z  " style="fill:rgb(134, 73, 45); fill-opacity:1.000; stroke:none;" />
 <path d="  M 59,48  L 59,50  L 60,50  L 60,48  Z  " style="fill:rgb(134, 73, 45); fill-opacity:1.000; stroke:none;" />
 <path d="  M 4,12  L 5,12  L 5,8  L 4,8  Z  " style="fill:rgb(115, 64, 41); fill-opacity:1.000; stroke:none;" />
 <path d="  M 4,16  L 5,16  L 5,14  L 4,14  Z  " style="fill:rgb(115, 64, 41); fill-opacity:1.000; stroke:none;" />
 <path d="  M 4,18  L 4,20  L 5,20  L 5,18  Z  " style="fill:rgb(115, 64, 41); fill-opacity:1.000; stroke:none;" />
 <path d="  M 5,26  L 4,26  L 4,28  L 5,28  Z  " style="fill:rgb(115, 64, 41); fill-opacity:1.000; stroke:none;" />
 <path d="  M 5,30  L 4,30  L 4,34  L 5,34  Z  " style="fill:rgb(115, 64, 41); fill-opacity:1.000; stroke:none;" />
 <path d="  M 4,42  L 5,42  L 5,40  L 4,40  Z  " style="fill:rgb(115, 64, 41); fill-opacity:1.000; stroke:none;" />
 <path d="  M 4,48  L 5,48  L 5,46  L 4,46  Z  " style="fill:rgb(115, 64, 41); fill-opacity:1.000; stroke:none;" />
 <path d="  M 4,50  L 4,52  L 5,52  L 5,50  Z  " style="fill:rgb(115, 64, 41); fill-opacity:1.000; stroke:none;" />
 <path d="  M 8,60  L 8,59  L 5,59  L 5,58  L 4,58  L 4,60  Z  " style="fill:rgb(115, 64, 41); fill-opacity:1.000; stroke:none;" />
 <path d="  M 7,35  L 7,36  L 8,36  L 8,35  Z  " style="fill:rgb(115, 64, 41); fill-opacity:1.000; stroke:none;" />
 <path d="  M 8,4  L 8,5  L 24,5  L 24,4  Z  " style="fill:rgb(115, 64, 41); fill-opacity:1.000; stroke:none;" />
 <path d="  M 9,56  L 9,57  L 10,57  L 10,56  Z  " style="fill:rgb(115, 64, 41); fill-opacity:1.000; stroke:none;" />
 <path d="  M 11,26  L 10,26  L 10,27  L 11,27  Z  " style="fill:rgb(115, 64, 41); fill-opacity:1.000; stroke:none;" />
 <path d="  M 12,11  L 11,11  L 11,12  L 12,12  Z  " style="fill:rgb(115, 64, 41); fill-opacity:1.000; stroke:none;" />
 <path d="  M 15,42  L 15,41  L 14,41  L 14,42  Z  " style="fill:rgb(115, 64, 41); fill-opacity:1.000; stroke:none;" />
 <path d="  M 17,53  L 18,53  L 18,52  L 17,52  Z  " style="fill:rgb(115, 64, 41); fill-opacity:1.000; stroke:none;" />
 <path d="  M 24,60  L 26,60  L 26,59  L 24,59  Z  " style="fill:rgb(115, 64, 41); fill-opacity:1.000; stroke:none;" />
 <path d="  M 32,60  L 32,59  L 30,59  L 30,60  Z  " style="fill:rgb(115, 64, 41); fill-opacity:1.000; stroke:none;" />
 <path d="  M 36,4  L 34,4  L 34,5  L 36,5  Z  " style="fill:rgb(115, 64, 41); fill-opacity:1.000; stroke:none;" />
 <path d="  M 36,59  L 36,60  L 38,60  L 38,59  Z  " style="fill:rgb(115, 64, 41); fill-opacity:1.000; stroke:none;" />
 <path d="  M 41,53  L 41,52  L 40,52  L 40,53  Z  " style="fill:rgb(115, 64, 41); fill-opacity:1.000; stroke:none;" />
 <path d="  M 44,13  L 44,12  L 43,12  L 43,13  Z  " style="fill:rgb(115, 64, 41); fill-opacity:1.000; stroke:none;" />
 <path d="  M 58,60  L 58,59  L 44,59  L 44,60  Z  " style="fill:rgb(115, 64, 41); fill-opacity:1.000; stroke:none;" />
 <path d="  M 45,18  L 45,19  L 46,19  L 46,18  Z  " style="fill:rgb(115, 64, 41); fill-opacity:1.000; stroke:none;" />
 <path d="  M 48,8  L 47,8  L 47,9  L 48,9  Z  " style="fill:rgb(115, 64, 41); fill-opacity:1.000; stroke:none;" />
 <path d="  M 47,18  L 47,19  L 48,19  L 48,18  Z  " style="fill:rgb(115, 64, 41); fill-opacity:1.000; stroke:none;" />
 <path d="  M 51,42  L 51,43  L 52,43  L 52,42  Z  " style="fill:rgb(115, 64, 41); fill-opacity:1.000; stroke:none;" />
 <path d="  M 52,4  L 52,5  L 59,5  L 59,6  L 60,6  L 60,4  Z  " style="fill:rgb(115, 64, 41); fill-opacity:1.000; stroke:none;" />
 <path d="  M 56,52  L 56,53  L 57,53  L 57,52  Z  " style="fill:rgb(115, 64, 41); fill-opacity:1.000; stroke:none;" />
 <path d="  M 59,12  L 60,12  L 60,10  L 59,10  Z  " style="fill:rgb(115, 64, 41); fill-opacity:1.000; stroke:none;" />
 <path d="  M 59,16  L 60,16  L 60,14  L 59,14  Z  " style="fill:rgb(115, 64, 41); fill-opacity:1.000; stroke:none;" />
 <path d="  M 59,20  L 60,20  L 60,18  L 59,18  Z  " style="fill:rgb(115, 64, 41); fill-opacity:1.000; stroke:none;" />
 <path d="  M 60,22  L 59,22  L 59,24  L 60,24  Z  " style="fill:rgb(115, 64, 41); fill-opacity:1.000; stroke:none;" />
 <path d="  M 59,30  L 59,32  L 60,32  L 60,30  Z  " style="fill:rgb(115, 64, 41); fill-opacity:1.000; stroke:none;" />
 <path d="  M 60,38  L 60,36  L 59,36  L 59,38  Z  " style="fill:rgb(115, 64, 41); fill-opacity:1.000; stroke:none;" />
 <path d="  M 60,42  L 59,42  L 59,44  L 60,44  Z  " style="fill:rgb(115, 64, 41); fill-opacity:1.000; stroke:none;" />
 <path d="  M 60,46  L 59,46  L 59,48  L 60,48  Z  " style="fill:rgb(115, 64, 41); fill-opacity:1.000; stroke:none;" />
 <path d="  M 60,52  L 60,50  L 59,50  L 59,52  Z  " style="fill:rgb(115, 64, 41); fill-opacity:1.000; stroke:none;" />
 <path d="  M 59,56  L 59,58  L 60,58  L 60,56  Z  " style="fill:rgb(115, 64, 41); fill-opacity:1.000; stroke:none;" />
 <path d="  M 4,22  L 5,22  L 5,20  L 4,20  Z  " style="fill:rgb(129, 71, 44); fill-opacity:1.000; stroke:none;" />
 <path d="  M 5,40  L 5,38  L 4,38  L 4,40  Z  " style="fill:rgb(129, 71, 44); fill-opacity:1.000; stroke:none;" />
 <path d="  M 5,42  L 4,42  L 4,44  L 5,44  Z  " style="fill:rgb(129, 71, 44); fill-opacity:1.000; stroke:none;" />
 <path d="  M 5,54  L 5,52  L 4,52  L 4,54  Z  " style="fill:rgb(129, 71, 44); fill-opacity:1.000; stroke:none;" />
 <path d="  M 12,59  L 12,60  L 20,60  L 20,59  Z  " style="fill:rgb(129, 71, 44); fill-opacity:1.000; stroke:none;" />
 <path d="  M 24,4  L 24,5  L 34,5  L 34,4  Z  " style="fill:rgb(129, 71, 44); fill-opacity:1.000; stroke:none;" />
 <path d="  M 44,60  L 44,59  L 38,59  L 38,60  Z  " style="fill:rgb(129, 71, 44); fill-opacity:1.000; stroke:none;" />
 <path d="  M 40,4  L 40,5  L 48,5  L 48,4  Z  " style="fill:rgb(129, 71, 44); fill-opacity:1.000; stroke:none;" />
 <path d="  M 60,58  L 59,58  L 59,59  L 58,59  L 58,60  L 60,60  Z  " style="fill:rgb(129, 71, 44); fill-opacity:1.000; stroke:none;" />
 <path d="  M 60,20  L 59,20  L 59,22  L 60,22  Z  " style="fill:rgb(129, 71, 44); fill-opacity:1.000; stroke:none;" />
 <path d="  M 59,28  L 60,28  L 60,26  L 59,26  Z  " style="fill:rgb(129, 71, 44); fill-opacity:1.000; stroke:none;" />
 <path d="  M 59,36  L 60,36  L 60,34  L 59,34  Z  " style="fill:rgb(129, 71, 44); fill-opacity:1.000; stroke:none;" />
 <path d="  M 60,38  L 59,38  L 59,40  L 60,40  Z  " style="fill:rgb(129, 71, 44); fill-opacity:1.000; stroke:none;" />
 <path d="  M 60,56  L 60,52  L 59,52  L 59,56  Z  " style="fill:rgb(129, 71, 44); fill-opacity:1.000; stroke:none;" />
 <path d="  M 16,6  L 16,5  L 5,5  L 5,6  Z  " style="fill:rgb(127, 69, 39); fill-opacity:1.000; stroke:none;" />
 <path d="  M 5,8  L 5,9  L 9,9  L 9,8  Z  " style="fill:rgb(127, 69, 39); fill-opacity:1.000; stroke:none;" />
 <path d="  M 8,19  L 8,18  L 5,18  L 5,19  Z  " style="fill:rgb(127, 69, 39); fill-opacity:1.000; stroke:none;" />
 <path d="  M 8,24  L 8,23  L 5,23  L 5,24  Z  " style="fill:rgb(127, 69, 39); fill-opacity:1.000; stroke:none;" />
 <path d="  M 5,26  L 5,27  L 7,27  L 7,26  Z  " style="fill:rgb(127, 69, 39); fill-opacity:1.000; stroke:none;" />
 <path d="  M 7,32  L 7,33  L 5,33  L 5,34  L 8,34  L 8,33  L 10,33  L 10,32  Z  " style="fill:rgb(127, 69, 39); fill-opacity:1.000; stroke:none;" />
 <path d="  M 6,37  L 6,38  L 9,38  L 9,37  L 7,37  L 7,36  L 5,36  L 5,37  Z  " style="fill:rgb(127, 69, 39); fill-opacity:1.000; stroke:none;" />
 <path d="  M 9,42  L 9,41  L 5,41  L 5,42  Z  " style="fill:rgb(127, 69, 39); fill-opacity:1.000; stroke:none;" />
 <path d="  M 6,46  L 5,46  L 5,47  L 6,47  Z  " style="fill:rgb(127, 69, 39); fill-opacity:1.000; stroke:none;" />
 <path d="  M 6,53  L 5,53  L 5,54  L 6,54  Z  " style="fill:rgb(127, 69, 39); fill-opacity:1.000; stroke:none;" />
 <path d="  M 6,13  L 7,13  L 7,12  L 6,12  Z  " style="fill:rgb(127, 69, 39); fill-opacity:1.000; stroke:none;" />
 <path d="  M 6,47  L 6,48  L 10,48  L 10,47  Z  " style="fill:rgb(127, 69, 39); fill-opacity:1.000; stroke:none;" />
 <path d="  M 7,13  L 7,14  L 8,14  L 8,13  Z  " style="fill:rgb(127, 69, 39); fill-opacity:1.000; stroke:none;" />
 <path d="  M 7,27  L 7,28  L 12,28  L 12,26  L 11,26  L 11,27  Z  " style="fill:rgb(127, 69, 39); fill-opacity:1.000; stroke:none;" />
 <path d="  M 8,14  L 8,15  L 11,15  L 11,14  Z  " style="fill:rgb(127, 69, 39); fill-opacity:1.000; stroke:none;" />
 <path d="  M 8,20  L 11,20  L 11,21  L 12,21  L 12,20  L 15,20  L 15,19  L 16,19  L 16,18  L 14,18  L 14,19  L 8,19  Z  " style="fill:rgb(127, 69, 39); fill-opacity:1.000; stroke:none;" />
 <path d="  M 8,25  L 12,25  L 12,26  L 14,26  L 14,24  L 8,24  Z  " style="fill:rgb(127, 69, 39); fill-opacity:1.000; stroke:none;" />
 <path d="  M 8,29  L 8,30  L 11,30  L 11,29  Z  " style="fill:rgb(127, 69, 39); fill-opacity:1.000; stroke:none;" />
 <path d="  M 8,34  L 8,35  L 14,35  L 14,34  Z  " style="fill:rgb(127, 69, 39); fill-opacity:1.000; stroke:none;" />
 <path d="  M 13,49  L 8,49  L 8,50  L 13,50  Z  " style="fill:rgb(127, 69, 39); fill-opacity:1.000; stroke:none;" />
 <path d="  M 11,54  L 11,53  L 8,53  L 8,54  L 10,54  L 10,55  L 17,55  L 17,54  Z  " style="fill:rgb(127, 69, 39); fill-opacity:1.000; stroke:none;" />
 <path d="  M 9,42  L 9,43  L 15,43  L 15,42  Z  " style="fill:rgb(127, 69, 39); fill-opacity:1.000; stroke:none;" />
 <path d="  M 10,9  L 10,10  L 16,10  L 16,9  Z  " style="fill:rgb(127, 69, 39); fill-opacity:1.000; stroke:none;" />
 <path d="  M 11,47  L 11,46  L 10,46  L 10,47  Z  " style="fill:rgb(127, 69, 39); fill-opacity:1.000; stroke:none;" />
 <path d="  M 24,16  L 24,15  L 11,15  L 11,16  Z  " style="fill:rgb(127, 69, 39); fill-opacity:1.000; stroke:none;" />
 <path d="  M 14,30  L 11,30  L 11,31  L 14,31  Z  " style="fill:rgb(127, 69, 39); fill-opacity:1.000; stroke:none;" />
 <path d="  M 13,57  L 13,56  L 11,56  L 11,57  L 12,57  L 12,58  L 22,58  L 22,57  Z  " style="fill:rgb(127, 69, 39); fill-opacity:1.000; stroke:none;" />
 <path d="  M 15,22  L 15,21  L 12,21  L 12,22  Z  " style="fill:rgb(127, 69, 39); fill-opacity:1.000; stroke:none;" />
 <path d="  M 12,46  L 16,46  L 16,45  L 13,45  L 13,44  L 12,44  Z  " style="fill:rgb(127, 69, 39); fill-opacity:1.000; stroke:none;" />
 <path d="  M 14,11  L 14,12  L 16,12  L 16,11  Z  " style="fill:rgb(127, 69, 39); fill-opacity:1.000; stroke:none;" />
 <path d="  M 14,49  L 14,50  L 23,50  L 23,49  Z  " style="fill:rgb(127, 69, 39); fill-opacity:1.000; stroke:none;" />
 <path d="  M 15,22  L 15,23  L 16,23  L 16,22  Z  " style="fill:rgb(127, 69, 39); fill-opacity:1.000; stroke:none;" />
 <path d="  M 15,42  L 16,42  L 16,40  L 15,40  Z  " style="fill:rgb(127, 69, 39); fill-opacity:1.000; stroke:none;" />
 <path d="  M 21,13  L 21,12  L 16,12  L 16,13  Z  " style="fill:rgb(127, 69, 39); fill-opacity:1.000; stroke:none;" />
 <path d="  M 16,17  L 16,18  L 19,18  L 19,17  Z  " style="fill:rgb(127, 69, 39); fill-opacity:1.000; stroke:none;" />
 <path d="  M 20,47  L 20,46  L 17,46  L 17,47  Z  " style="fill:rgb(127, 69, 39); fill-opacity:1.000; stroke:none;" />
 <path d="  M 20,8  L 20,9  L 23,9  L 23,8  L 24,8  L 24,7  L 22,7  L 22,8  Z  " style="fill:rgb(127, 69, 39); fill-opacity:1.000; stroke:none;" />
 <path d="  M 22,57  L 24,57  L 24,56  L 22,56  Z  " style="fill:rgb(127, 69, 39); fill-opacity:1.000; stroke:none;" />
 <path d="  M 26,9  L 23,9  L 23,10  L 26,10  Z  " style="fill:rgb(127, 69, 39); fill-opacity:1.000; stroke:none;" />
 <path d="  M 24,13  L 23,13  L 23,14  L 24,14  Z  " style="fill:rgb(127, 69, 39); fill-opacity:1.000; stroke:none;" />
 <path d="  M 33,56  L 33,55  L 24,55  L 24,56  Z  " style="fill:rgb(127, 69, 39); fill-opacity:1.000; stroke:none;" />
 <path d="  M 30,8  L 30,7  L 26,7  L 26,8  Z  " style="fill:rgb(127, 69, 39); fill-opacity:1.000; stroke:none;" />
 <path d="  M 26,10  L 26,11  L 31,11  L 31,10  Z  " style="fill:rgb(127, 69, 39); fill-opacity:1.000; stroke:none;" />
 <path d="  M 29,53  L 29,54  L 34,54  L 34,53  L 36,53  L 36,52  L 33,52  L 33,53  Z  " style="fill:rgb(127, 69, 39); fill-opacity:1.000; stroke:none;" />
 <path d="  M 36,9  L 36,8  L 30,8  L 30,9  Z  " style="fill:rgb(127, 69, 39); fill-opacity:1.000; stroke:none;" />
 <path d="  M 39,13  L 39,12  L 31,12  L 31,13  Z  " style="fill:rgb(127, 69, 39); fill-opacity:1.000; stroke:none;" />
 <path d="  M 36,51  L 47,51  L 47,50  L 44,50  L 44,49  L 43,49  L 43,50  L 36,50  Z  " style="fill:rgb(127, 69, 39); fill-opacity:1.000; stroke:none;" />
 <path d="  M 37,53  L 37,54  L 40,54  L 40,53  Z  " style="fill:rgb(127, 69, 39); fill-opacity:1.000; stroke:none;" />
 <path d="  M 47,10  L 47,9  L 39,9  L 39,11  L 40,11  L 40,10  Z  " style="fill:rgb(127, 69, 39); fill-opacity:1.000; stroke:none;" />
 <path d="  M 41,53  L 41,54  L 50,54  L 50,53  Z  " style="fill:rgb(127, 69, 39); fill-opacity:1.000; stroke:none;" />
 <path d="  M 45,47  L 45,48  L 44,48  L 44,49  L 46,49  L 46,48  L 49,48  L 49,47  L 51,47  L 51,46  L 48,46  L 48,47  Z  " style="fill:rgb(127, 69, 39); fill-opacity:1.000; stroke:none;" />
 <path d="  M 46,13  L 45,13  L 45,14  L 47,14  L 47,13  L 50,13  L 50,12  L 46,12  Z  " style="fill:rgb(127, 69, 39); fill-opacity:1.000; stroke:none;" />
 <path d="  M 47,20  L 47,21  L 51,21  L 51,20  Z  " style="fill:rgb(127, 69, 39); fill-opacity:1.000; stroke:none;" />
 <path d="  M 56,8  L 56,7  L 48,7  L 48,8  Z  " style="fill:rgb(127, 69, 39); fill-opacity:1.000; stroke:none;" />
 <path d="  M 55,15  L 55,14  L 48,14  L 48,15  Z  " style="fill:rgb(127, 69, 39); fill-opacity:1.000; stroke:none;" />
 <path d="  M 50,23  L 50,22  L 48,22  L 48,23  Z  " style="fill:rgb(127, 69, 39); fill-opacity:1.000; stroke:none;" />
 <path d="  M 50,57  L 50,56  L 48,56  L 48,57  Z  " style="fill:rgb(127, 69, 39); fill-opacity:1.000; stroke:none;" />
 <path d="  M 49,10  L 49,11  L 54,11  L 54,10  Z  " style="fill:rgb(127, 69, 39); fill-opacity:1.000; stroke:none;" />
 <path d="  M 59,32  L 59,31  L 54,31  L 54,30  L 50,30  L 50,31  L 53,31  L 53,32  Z  " style="fill:rgb(127, 69, 39); fill-opacity:1.000; stroke:none;" />
 <path d="  M 57,58  L 57,57  L 50,57  L 50,58  Z  " style="fill:rgb(127, 69, 39); fill-opacity:1.000; stroke:none;" />
 <path d="  M 51,19  L 51,20  L 58,20  L 58,19  Z  " style="fill:rgb(127, 69, 39); fill-opacity:1.000; stroke:none;" />
 <path d="  M 56,35  L 56,34  L 51,34  L 51,36  L 52,36  L 52,35  Z  " style="fill:rgb(127, 69, 39); fill-opacity:1.000; stroke:none;" />
 <path d="  M 51,41  L 51,42  L 54,42  L 54,41  Z  " style="fill:rgb(127, 69, 39); fill-opacity:1.000; stroke:none;" />
 <path d="  M 51,54  L 51,55  L 55,55  L 55,56  L 57,56  L 57,55  L 56,55  L 56,54  Z  " style="fill:rgb(127, 69, 39); fill-opacity:1.000; stroke:none;" />
 <path d="  M 52,24  L 53,24  L 53,23  L 52,23  Z  " style="fill:rgb(127, 69, 39); fill-opacity:1.000; stroke:none;" />
 <path d="  M 52,50  L 52,51  L 59,51  L 59,50  Z  " style="fill:rgb(127, 69, 39); fill-opacity:1.000; stroke:none;" />
 <path d="  M 55,12  L 55,11  L 54,11  L 54,12  Z  " style="fill:rgb(127, 69, 39); fill-opacity:1.000; stroke:none;" />
 <path d="  M 54,26  L 55,26  L 55,25  L 54,25  Z  " style="fill:rgb(127, 69, 39); fill-opacity:1.000; stroke:none;" />
 <path d="  M 58,42  L 54,42  L 54,43  L 58,43  Z  " style="fill:rgb(127, 69, 39); fill-opacity:1.000; stroke:none;" />
 <path d="  M 55,45  L 55,46  L 54,46  L 54,47  L 56,47  L 56,46  L 58,46  L 58,47  L 59,47  L 59,45  Z  " style="fill:rgb(127, 69, 39); fill-opacity:1.000; stroke:none;" />
 <path d="  M 59,14  L 59,13  L 55,13  L 55,14  Z  " style="fill:rgb(127, 69, 39); fill-opacity:1.000; stroke:none;" />
 <path d="  M 55,26  L 55,27  L 58,27  L 58,26  Z  " style="fill:rgb(127, 69, 39); fill-opacity:1.000; stroke:none;" />
 <path d="  M 58,20  L 58,21  L 59,21  L 59,20  Z  " style="fill:rgb(127, 69, 39); fill-opacity:1.000; stroke:none;" />
 <path d="  M 58,27  L 58,28  L 59,28  L 59,27  Z  " style="fill:rgb(127, 69, 39); fill-opacity:1.000; stroke:none;" />
 <path d="  M 5,6  L 5,8  L 6,8  L 6,7  L 21,7  L 21,6  L 18,6  L 18,5  L 16,5  L 16,6  Z  " style="fill:rgb(148, 76, 41); fill-opacity:1.000; stroke:none;" />
 <path d="  M 5,11  L 10,11  L 10,12  L 11,12  L 11,11  L 12,11  L 12,12  L 14,12  L 14,11  L 24,11  L 24,10  L 10,10  L 10,9  L 5,9  Z  " style="fill:rgb(148, 76, 41); fill-opacity:1.000; stroke:none;" />
 <path d="  M 15,17  L 15,18  L 16,18  L 16,17  L 19,17  L 19,18  L 20,18  L 20,17  L 22,17  L 22,16  L 11,16  L 11,15  L 8,15  L 8,14  L 5,14  L 5,16  L 9,16  L 9,17  Z  " style="fill:rgb(148, 76, 41); fill-opacity:1.000; stroke:none;" />
 <path d="  M 8,18  L 8,17  L 5,17  L 5,18  Z  " style="fill:rgb(148, 76, 41); fill-opacity:1.000; stroke:none;" />
 <path d="  M 15,22  L 12,22  L 12,21  L 8,21  L 8,20  L 5,20  L 5,22  L 10,22  L 10,23  L 15,23  Z  " style="fill:rgb(148, 76, 41); fill-opacity:1.000; stroke:none;" />
 <path d="  M 8,25  L 8,24  L 5,24  L 5,25  Z  " style="fill:rgb(148, 76, 41); fill-opacity:1.000; stroke:none;" />
 <path d="  M 5,33  L 7,33  L 7,32  L 10,32  L 10,31  L 8,31  L 8,30  L 5,30  Z  " style="fill:rgb(148, 76, 41); fill-opacity:1.000; stroke:none;" />
 <path d="  M 9,41  L 9,42  L 14,42  L 14,40  L 5,40  L 5,41  Z  " style="fill:rgb(148, 76, 41); fill-opacity:1.000; stroke:none;" />
 <path d="  M 9,43  L 9,42  L 5,42  L 5,43  L 7,43  L 7,44  L 13,44  L 13,43  Z  " style="fill:rgb(148, 76, 41); fill-opacity:1.000; stroke:none;" />
 <path d="  M 5,45  L 6,45  L 6,44  L 5,44  Z  " style="fill:rgb(148, 76, 41); fill-opacity:1.000; stroke:none;" />
 <path d="  M 17,49  L 17,48  L 6,48  L 6,47  L 5,47  L 5,50  L 8,50  L 8,49  Z  " style="fill:rgb(148, 76, 41); fill-opacity:1.000; stroke:none;" />
 <path d="  M 10,52  L 10,51  L 5,51  L 5,52  Z  " style="fill:rgb(148, 76, 41); fill-opacity:1.000; stroke:none;" />
 <path d="  M 7,54  L 7,53  L 6,53  L 6,54  L 5,54  L 5,56  L 10,56  L 10,57  L 11,57  L 11,56  L 12,56  L 12,55  L 9,55  L 9,54  Z  " style="fill:rgb(148, 76, 41); fill-opacity:1.000; stroke:none;" />
 <path d="  M 10,59  L 10,58  L 9,58  L 9,57  L 5,57  L 5,59  Z  " style="fill:rgb(148, 76, 41); fill-opacity:1.000; stroke:none;" />
 <path d="  M 7,28  L 7,27  L 6,27  L 6,28  Z  " style="fill:rgb(148, 76, 41); fill-opacity:1.000; stroke:none;" />
 <path d="  M 8,39  L 8,38  L 6,38  L 6,39  Z  " style="fill:rgb(148, 76, 41); fill-opacity:1.000; stroke:none;" />
 <path d="  M 6,46  L 6,47  L 10,47  L 10,46  Z  " style="fill:rgb(148, 76, 41); fill-opacity:1.000; stroke:none;" />
 <path d="  M 7,26  L 7,27  L 9,27  L 9,26  Z  " style="fill:rgb(148, 76, 41); fill-opacity:1.000; stroke:none;" />
 <path d="  M 7,28  L 7,29  L 8,29  L 8,28  Z  " style="fill:rgb(148, 76, 41); fill-opacity:1.000; stroke:none;" />
 <path d="  M 14,18  L 8,18  L 8,19  L 14,19  Z  " style="fill:rgb(148, 76, 41); fill-opacity:1.000; stroke:none;" />
 <path d="  M 10,32  L 10,33  L 8,33  L 8,34  L 13,34  L 13,33  L 14,33  L 14,32  Z  " style="fill:rgb(148, 76, 41); fill-opacity:1.000; stroke:none;" />
 <path d="  M 9,38  L 12,38  L 12,37  L 14,37  L 14,36  L 9,36  Z  " style="fill:rgb(148, 76, 41); fill-opacity:1.000; stroke:none;" />
 <path d="  M 10,25  L 10,26  L 12,26  L 12,25  Z  " style="fill:rgb(148, 76, 41); fill-opacity:1.000; stroke:none;" />
 <path d="  M 12,28  L 10,28  L 10,29  L 13,29  L 13,28  L 14,28  L 14,27  L 12,27  Z  " style="fill:rgb(148, 76, 41); fill-opacity:1.000; stroke:none;" />
 <path d="  M 19,45  L 16,45  L 16,46  L 12,46  L 12,45  L 11,45  L 11,47  L 17,47  L 17,46  L 19,46  Z  " style="fill:rgb(148, 76, 41); fill-opacity:1.000; stroke:none;" />
 <path d="  M 12,57  L 11,57  L 11,58  L 12,58  Z  " style="fill:rgb(148, 76, 41); fill-opacity:1.000; stroke:none;" />
 <path d="  M 12,38  L 12,39  L 14,39  L 14,40  L 15,40  L 15,38  Z  " style="fill:rgb(148, 76, 41); fill-opacity:1.000; stroke:none;" />
 <path d="  M 13,29  L 13,30  L 14,30  L 14,29  Z  " style="fill:rgb(148, 76, 41); fill-opacity:1.000; stroke:none;" />
 <path d="  M 13,51  L 15,51  L 15,50  L 13,50  Z  " style="fill:rgb(148, 76, 41); fill-opacity:1.000; stroke:none;" />
 <path d="  M 13,57  L 15,57  L 15,56  L 13,56  Z  " style="fill:rgb(148, 76, 41); fill-opacity:1.000; stroke:none;" />
 <path d="  M 15,26  L 15,24  L 14,24  L 14,26  Z  " style="fill:rgb(148, 76, 41); fill-opacity:1.000; stroke:none;" />
 <path d="  M 15,45  L 15,44  L 14,44  L 14,45  Z  " style="fill:rgb(148, 76, 41); fill-opacity:1.000; stroke:none;" />
 <path d="  M 21,59  L 21,58  L 14,58  L 14,59  Z  " style="fill:rgb(148, 76, 41); fill-opacity:1.000; stroke:none;" />
 <path d="  M 15,20  L 16,20  L 16,21  L 15,21  L 15,22  L 17,22  L 17,20  L 18,20  L 18,19  L 19,19  L 19,18  L 16,18  L 16,19  L 15,19  Z  " style="fill:rgb(148, 76, 41); fill-opacity:1.000; stroke:none;" />
 <path d="  M 17,43  L 15,43  L 15,44  L 17,44  Z  " style="fill:rgb(148, 76, 41); fill-opacity:1.000; stroke:none;" />
 <path d="  M 17,52  L 15,52  L 15,53  L 16,53  L 16,54  L 17,54  Z  " style="fill:rgb(148, 76, 41); fill-opacity:1.000; stroke:none;" />
 <path d="  M 18,56  L 18,55  L 15,55  L 15,56  Z  " style="fill:rgb(148, 76, 41); fill-opacity:1.000; stroke:none;" />
 <path d="  M 18,50  L 16,50  L 16,51  L 18,51  Z  " style="fill:rgb(148, 76, 41); fill-opacity:1.000; stroke:none;" />
 <path d="  M 17,8  L 17,9  L 20,9  L 20,8  Z  " style="fill:rgb(148, 76, 41); fill-opacity:1.000; stroke:none;" />
 <path d="  M 24,48  L 22,48  L 22,47  L 18,47  L 18,48  L 19,48  L 19,49  L 23,49  L 23,50  L 25,50  L 25,51  L 28,51  L 28,50  L 27,50  L 27,49  L 24,49  Z  " style="fill:rgb(148, 76, 41); fill-opacity:1.000; stroke:none;" />
 <path d="  M 21,53  L 20,53  L 20,54  L 21,54  Z  " style="fill:rgb(148, 76, 41); fill-opacity:1.000; stroke:none;" />
 <path d="  M 21,12  L 21,13  L 22,13  L 22,12  Z  " style="fill:rgb(148, 76, 41); fill-opacity:1.000; stroke:none;" />
 <path d="  M 21,52  L 21,53  L 23,53  L 23,52  Z  " style="fill:rgb(148, 76, 41); fill-opacity:1.000; stroke:none;" />
 <path d="  M 24,56  L 24,57  L 22,57  L 22,58  L 27,58  L 27,57  L 26,57  L 26,56  Z  " style="fill:rgb(148, 76, 41); fill-opacity:1.000; stroke:none;" />
 <path d="  M 25,9  L 25,8  L 23,8  L 23,9  Z  " style="fill:rgb(148, 76, 41); fill-opacity:1.000; stroke:none;" />
 <path d="  M 27,5  L 24,5  L 24,6  L 27,6  Z  " style="fill:rgb(148, 76, 41); fill-opacity:1.000; stroke:none;" />
 <path d="  M 27,14  L 36,14  L 36,13  L 26,13  L 26,12  L 33,12  L 33,11  L 25,11  L 25,13  L 24,13  L 24,15  L 27,15  Z  " style="fill:rgb(148, 76, 41); fill-opacity:1.000; stroke:none;" />
 <path d="  M 32,53  L 32,52  L 25,52  L 25,53  Z  " style="fill:rgb(148, 76, 41); fill-opacity:1.000; stroke:none;" />
 <path d="  M 27,10  L 27,9  L 26,9  L 26,10  Z  " style="fill:rgb(148, 76, 41); fill-opacity:1.000; stroke:none;" />
 <path d="  M 31,59  L 31,58  L 27,58  L 27,59  Z  " style="fill:rgb(148, 76, 41); fill-opacity:1.000; stroke:none;" />
 <path d="  M 31,6  L 31,5  L 29,5  L 29,6  Z  " style="fill:rgb(148, 76, 41); fill-opacity:1.000; stroke:none;" />
 <path d="  M 29,8  L 29,9  L 30,9  L 30,8  Z  " style="fill:rgb(148, 76, 41); fill-opacity:1.000; stroke:none;" />
 <path d="  M 30,7  L 30,8  L 31,8  L 31,7  Z  " style="fill:rgb(148, 76, 41); fill-opacity:1.000; stroke:none;" />
 <path d="  M 31,58  L 32,58  L 32,57  L 31,57  Z  " style="fill:rgb(148, 76, 41); fill-opacity:1.000; stroke:none;" />
 <path d="  M 32,9  L 32,10  L 34,10  L 34,11  L 39,11  L 39,9  Z  " style="fill:rgb(148, 76, 41); fill-opacity:1.000; stroke:none;" />
 <path d="  M 34,54  L 32,54  L 32,55  L 33,55  L 33,56  L 35,56  L 35,55  L 38,55  L 38,54  L 37,54  L 37,53  L 34,53  Z  " style="fill:rgb(148, 76, 41); fill-opacity:1.000; stroke:none;" />
 <path d="  M 36,51  L 36,50  L 34,50  L 34,51  Z  " style="fill:rgb(148, 76, 41); fill-opacity:1.000; stroke:none;" />
 <path d="  M 39,5  L 36,5  L 36,6  L 39,6  Z  " style="fill:rgb(148, 76, 41); fill-opacity:1.000; stroke:none;" />
 <path d="  M 36,52  L 37,52  L 37,51  L 36,51  Z  " style="fill:rgb(148, 76, 41); fill-opacity:1.000; stroke:none;" />
 <path d="  M 36,56  L 36,57  L 37,57  L 37,56  Z  " style="fill:rgb(148, 76, 41); fill-opacity:1.000; stroke:none;" />
 <path d="  M 38,59  L 38,58  L 36,58  L 36,59  Z  " style="fill:rgb(148, 76, 41); fill-opacity:1.000; stroke:none;" />
 <path d="  M 41,15  L 41,14  L 40,14  L 40,13  L 38,13  L 38,14  L 37,14  L 37,15  L 40,15  L 40,16  L 42,16  L 42,17  L 44,17  L 44,18  L 45,18  L 45,16  L 44,16  L 44,15  Z  " style="fill:rgb(148, 76, 41); fill-opacity:1.000; stroke:none;" />
 <path d="  M 37,49  L 37,50  L 43,50  L 43,49  L 44,49  L 44,48  L 45,48  L 45,47  L 42,47  L 42,48  L 40,48  L 40,49  Z  " style="fill:rgb(148, 76, 41); fill-opacity:1.000; stroke:none;" />
 <path d="  M 47,8  L 46,8  L 46,7  L 38,7  L 38,8  L 44,8  L 44,9  L 47,9  Z  " style="fill:rgb(148, 76, 41); fill-opacity:1.000; stroke:none;" />
 <path d="  M 43,56  L 43,55  L 45,55  L 45,54  L 42,54  L 42,55  L 38,55  L 38,56  Z  " style="fill:rgb(148, 76, 41); fill-opacity:1.000; stroke:none;" />
 <path d="  M 41,10  L 40,10  L 40,11  L 41,11  Z  " style="fill:rgb(148, 76, 41); fill-opacity:1.000; stroke:none;" />
 <path d="  M 40,54  L 41,54  L 41,53  L 40,53  Z  " style="fill:rgb(148, 76, 41); fill-opacity:1.000; stroke:none;" />
 <path d="  M 42,6  L 47,6  L 47,5  L 42,5  Z  " style="fill:rgb(148, 76, 41); fill-opacity:1.000; stroke:none;" />
 <path d="  M 49,11  L 49,10  L 42,10  L 42,11  L 43,11  L 43,12  L 44,12  L 44,13  L 46,13  L 46,12  L 45,12  L 45,11  Z  " style="fill:rgb(148, 76, 41); fill-opacity:1.000; stroke:none;" />
 <path d="  M 43,12  L 42,12  L 42,13  L 43,13  Z  " style="fill:rgb(148, 76, 41); fill-opacity:1.000; stroke:none;" />
 <path d="  M 46,49  L 44,49  L 44,50  L 47,50  L 47,49  L 49,49  L 49,48  L 46,48  Z  " style="fill:rgb(148, 76, 41); fill-opacity:1.000; stroke:none;" />
 <path d="  M 53,59  L 53,58  L 50,58  L 50,57  L 48,57  L 48,56  L 44,56  L 44,57  L 47,57  L 47,58  L 44,58  L 44,59  Z  " style="fill:rgb(148, 76, 41); fill-opacity:1.000; stroke:none;" />
 <path d="  M 45,15  L 45,16  L 46,16  L 46,17  L 47,17  L 47,15  Z  " style="fill:rgb(148, 76, 41); fill-opacity:1.000; stroke:none;" />
 <path d="  M 48,53  L 48,52  L 45,52  L 45,53  Z  " style="fill:rgb(148, 76, 41); fill-opacity:1.000; stroke:none;" />
 <path d="  M 51,20  L 51,19  L 46,19  L 46,20  Z  " style="fill:rgb(148, 76, 41); fill-opacity:1.000; stroke:none;" />
 <path d="  M 50,40  L 50,41  L 49,41  L 49,40  L 48,40  L 48,42  L 47,42  L 47,44  L 46,44  L 46,45  L 49,45  L 49,42  L 51,42  L 51,41  L 54,41  L 54,42  L 58,42  L 58,43  L 54,43  L 54,44  L 59,44  L 59,40  Z  " style="fill:rgb(148, 76, 41); fill-opacity:1.000; stroke:none;" />
 <path d="  M 46,54  L 46,55  L 47,55  L 47,54  Z  " style="fill:rgb(148, 76, 41); fill-opacity:1.000; stroke:none;" />
 <path d="  M 48,8  L 48,7  L 47,7  L 47,8  Z  " style="fill:rgb(148, 76, 41); fill-opacity:1.000; stroke:none;" />
 <path d="  M 49,21  L 47,21  L 47,22  L 49,22  Z  " style="fill:rgb(148, 76, 41); fill-opacity:1.000; stroke:none;" />
 <path d="  M 48,8  L 48,9  L 49,9  L 49,8  Z  " style="fill:rgb(148, 76, 41); fill-opacity:1.000; stroke:none;" />
 <path d="  M 48,17  L 48,18  L 57,18  L 57,17  Z  " style="fill:rgb(148, 76, 41); fill-opacity:1.000; stroke:none;" />
 <path d="  M 48,23  L 48,24  L 49,24  L 49,26  L 50,26  L 50,25  L 52,25  L 52,23  Z  " style="fill:rgb(148, 76, 41); fill-opacity:1.000; stroke:none;" />
 <path d="  M 53,7  L 53,6  L 49,6  L 49,7  Z  " style="fill:rgb(148, 76, 41); fill-opacity:1.000; stroke:none;" />
 <path d="  M 49,37  L 49,38  L 54,38  L 54,37  L 51,37  L 51,36  L 50,36  L 50,37  Z  " style="fill:rgb(148, 76, 41); fill-opacity:1.000; stroke:none;" />
 <path d="  M 49,40  L 50,40  L 50,39  L 49,39  Z  " style="fill:rgb(148, 76, 41); fill-opacity:1.000; stroke:none;" />
 <path d="  M 49,48  L 50,48  L 50,47  L 49,47  Z  " style="fill:rgb(148, 76, 41); fill-opacity:1.000; stroke:none;" />
 <path d="  M 49,50  L 56,50  L 56,49  L 49,49  Z  " style="fill:rgb(148, 76, 41); fill-opacity:1.000; stroke:none;" />
 <path d="  M 55,56  L 55,55  L 51,55  L 51,54  L 50,54  L 50,55  L 49,55  L 49,56  Z  " style="fill:rgb(148, 76, 41); fill-opacity:1.000; stroke:none;" />
 <path d="  M 52,13  L 52,12  L 50,12  L 50,13  Z  " style="fill:rgb(148, 76, 41); fill-opacity:1.000; stroke:none;" />
 <path d="  M 51,29  L 51,28  L 50,28  L 50,29  Z  " style="fill:rgb(148, 76, 41); fill-opacity:1.000; stroke:none;" />
 <path d="  M 53,33  L 53,31  L 52,31  L 52,32  L 50,32  L 50,33  Z  " style="fill:rgb(148, 76, 41); fill-opacity:1.000; stroke:none;" />
 <path d="  M 50,35  L 51,35  L 51,34  L 50,34  Z  " style="fill:rgb(148, 76, 41); fill-opacity:1.000; stroke:none;" />
 <path d="  M 50,45  L 52,45  L 52,44  L 50,44  Z  " style="fill:rgb(148, 76, 41); fill-opacity:1.000; stroke:none;" />
 <path d="  M 51,53  L 55,53  L 55,52  L 54,52  L 54,51  L 50,51  L 50,52  L 51,52  Z  " style="fill:rgb(148, 76, 41); fill-opacity:1.000; stroke:none;" />
 <path d="  M 51,16  L 53,16  L 53,15  L 51,15  Z  " style="fill:rgb(148, 76, 41); fill-opacity:1.000; stroke:none;" />
 <path d="  M 54,22  L 54,21  L 57,21  L 57,20  L 51,20  L 51,22  Z  " style="fill:rgb(148, 76, 41); fill-opacity:1.000; stroke:none;" />
 <path d="  M 58,28  L 58,27  L 55,27  L 55,26  L 51,26  L 51,27  L 52,27  L 52,28  Z  " style="fill:rgb(148, 76, 41); fill-opacity:1.000; stroke:none;" />
 <path d="  M 59,30  L 59,28  L 58,28  L 58,29  L 51,29  L 51,30  Z  " style="fill:rgb(148, 76, 41); fill-opacity:1.000; stroke:none;" />
 <path d="  M 51,46  L 51,47  L 54,47  L 54,46  Z  " style="fill:rgb(148, 76, 41); fill-opacity:1.000; stroke:none;" />
 <path d="  M 52,12  L 54,12  L 54,11  L 52,11  Z  " style="fill:rgb(148, 76, 41); fill-opacity:1.000; stroke:none;" />
 <path d="  M 59,37  L 59,35  L 52,35  L 52,36  L 55,36  L 55,37  Z  " style="fill:rgb(148, 76, 41); fill-opacity:1.000; stroke:none;" />
 <path d="  M 59,34  L 59,32  L 58,32  L 58,33  L 57,33  L 57,32  L 56,32  L 56,33  L 54,33  L 54,34  Z  " style="fill:rgb(148, 76, 41); fill-opacity:1.000; stroke:none;" />
 <path d="  M 55,46  L 55,45  L 54,45  L 54,46  Z  " style="fill:rgb(148, 76, 41); fill-opacity:1.000; stroke:none;" />
 <path d="  M 56,47  L 54,47  L 54,48  L 56,48  Z  " style="fill:rgb(148, 76, 41); fill-opacity:1.000; stroke:none;" />
 <path d="  M 55,6  L 56,6  L 56,8  L 57,8  L 57,5  L 55,5  Z  " style="fill:rgb(148, 76, 41); fill-opacity:1.000; stroke:none;" />
 <path d="  M 55,11  L 55,12  L 59,12  L 59,11  Z  " style="fill:rgb(148, 76, 41); fill-opacity:1.000; stroke:none;" />
 <path d="  M 55,14  L 55,15  L 58,15  L 58,16  L 57,16  L 57,17  L 59,17  L 59,14  Z  " style="fill:rgb(148, 76, 41); fill-opacity:1.000; stroke:none;" />
 <path d="  M 55,23  L 55,24  L 58,24  L 58,25  L 55,25  L 55,26  L 58,26  L 58,27  L 59,27  L 59,23  L 58,23  L 58,22  L 56,22  L 56,23  Z  " style="fill:rgb(148, 76, 41); fill-opacity:1.000; stroke:none;" />
 <path d="  M 57,48  L 56,48  L 56,49  L 59,49  L 59,47  L 58,47  L 58,46  L 56,46  L 56,47  L 57,47  Z  " style="fill:rgb(148, 76, 41); fill-opacity:1.000; stroke:none;" />
 <path d="  M 56,55  L 58,55  L 58,54  L 59,54  L 59,53  L 58,53  L 58,52  L 57,52  L 57,53  L 56,53  Z  " style="fill:rgb(148, 76, 41); fill-opacity:1.000; stroke:none;" />
 <path d="  M 59,59  L 59,58  L 56,58  L 56,59  Z  " style="fill:rgb(148, 76, 41); fill-opacity:1.000; stroke:none;" />
 <path d="  M 57,18  L 57,19  L 58,19  L 58,20  L 59,20  L 59,18  Z  " style="fill:rgb(148, 76, 41); fill-opacity:1.000; stroke:none;" />
 <path d="  M 59,8  L 59,6  L 58,6  L 58,8  Z  " style="fill:rgb(148, 76, 41); fill-opacity:1.000; stroke:none;" />
 <path d="  M 58,39  L 59,39  L 59,38  L 58,38  Z  " style="fill:rgb(148, 76, 41); fill-opacity:1.000; stroke:none;" />
 <path d="  M 58,56  L 58,57  L 59,57  L 59,56  Z  " style="fill:rgb(148, 76, 41); fill-opacity:1.000; stroke:none;" />
 <path d="  M 5,11  L 5,12  L 10,12  L 10,11  Z  " style="fill:rgb(131, 72, 41); fill-opacity:1.000; stroke:none;" />
 <path d="  M 15,18  L 15,17  L 9,17  L 9,16  L 5,16  L 5,17  L 8,17  L 8,18  Z  " style="fill:rgb(131, 72, 41); fill-opacity:1.000; stroke:none;" />
 <path d="  M 9,23  L 9,24  L 14,24  L 14,23  L 10,23  L 10,22  L 5,22  L 5,23  Z  " style="fill:rgb(131, 72, 41); fill-opacity:1.000; stroke:none;" />
 <path d="  M 5,30  L 8,30  L 8,29  L 6,29  L 6,28  L 5,28  Z  " style="fill:rgb(131, 72, 41); fill-opacity:1.000; stroke:none;" />
 <path d="  M 5,35  L 5,36  L 7,36  L 7,35  Z  " style="fill:rgb(131, 72, 41); fill-opacity:1.000; stroke:none;" />
 <path d="  M 7,44  L 7,43  L 5,43  L 5,44  L 6,44  L 6,45  L 12,45  L 12,44  Z  " style="fill:rgb(131, 72, 41); fill-opacity:1.000; stroke:none;" />
 <path d="  M 5,56  L 5,57  L 9,57  L 9,56  Z  " style="fill:rgb(131, 72, 41); fill-opacity:1.000; stroke:none;" />
 <path d="  M 17,9  L 17,8  L 14,8  L 14,7  L 6,7  L 6,8  L 13,8  L 13,9  L 16,9  L 16,10  L 23,10  L 23,9  Z  " style="fill:rgb(131, 72, 41); fill-opacity:1.000; stroke:none;" />
 <path d="  M 13,51  L 13,50  L 6,50  L 6,51  Z  " style="fill:rgb(131, 72, 41); fill-opacity:1.000; stroke:none;" />
 <path d="  M 12,39  L 12,38  L 8,38  L 8,39  L 7,39  L 7,40  L 9,40  L 9,39  L 11,39  L 11,40  L 14,40  L 14,39  Z  " style="fill:rgb(131, 72, 41); fill-opacity:1.000; stroke:none;" />
 <path d="  M 8,28  L 8,29  L 10,29  L 10,28  Z  " style="fill:rgb(131, 72, 41); fill-opacity:1.000; stroke:none;" />
 <path d="  M 11,31  L 11,30  L 8,30  L 8,31  Z  " style="fill:rgb(131, 72, 41); fill-opacity:1.000; stroke:none;" />
 <path d="  M 8,35  L 8,36  L 10,36  L 10,35  Z  " style="fill:rgb(131, 72, 41); fill-opacity:1.000; stroke:none;" />
 <path d="  M 23,52  L 23,53  L 24,53  L 24,54  L 29,54  L 29,53  L 25,53  L 25,52  L 28,52  L 28,51  L 16,51  L 16,50  L 15,50  L 15,51  L 14,51  L 14,52  L 9,52  L 9,53  L 15,53  L 15,52  Z  " style="fill:rgb(131, 72, 41); fill-opacity:1.000; stroke:none;" />
 <path d="  M 14,59  L 14,58  L 11,58  L 11,57  L 9,57  L 9,58  L 10,58  L 10,59  Z  " style="fill:rgb(131, 72, 41); fill-opacity:1.000; stroke:none;" />
 <path d="  M 10,47  L 10,48  L 17,48  L 17,49  L 19,49  L 19,48  L 18,48  L 18,47  Z  " style="fill:rgb(131, 72, 41); fill-opacity:1.000; stroke:none;" />
 <path d="  M 11,30  L 13,30  L 13,29  L 11,29  Z  " style="fill:rgb(131, 72, 41); fill-opacity:1.000; stroke:none;" />
 <path d="  M 14,32  L 14,31  L 11,31  L 11,32  Z  " style="fill:rgb(131, 72, 41); fill-opacity:1.000; stroke:none;" />
 <path d="  M 22,12  L 22,13  L 12,13  L 12,14  L 23,14  L 23,13  L 25,13  L 25,12  L 23,12  L 23,11  L 19,11  L 19,12  Z  " style="fill:rgb(131, 72, 41); fill-opacity:1.000; stroke:none;" />
 <path d="  M 15,38  L 15,37  L 12,37  L 12,38  Z  " style="fill:rgb(131, 72, 41); fill-opacity:1.000; stroke:none;" />
 <path d="  M 13,29  L 14,29  L 14,28  L 13,28  Z  " style="fill:rgb(131, 72, 41); fill-opacity:1.000; stroke:none;" />
 <path d="  M 13,49  L 13,50  L 14,50  L 14,49  Z  " style="fill:rgb(131, 72, 41); fill-opacity:1.000; stroke:none;" />
 <path d="  M 15,44  L 15,45  L 18,45  L 18,44  Z  " style="fill:rgb(131, 72, 41); fill-opacity:1.000; stroke:none;" />
 <path d="  M 20,7  L 17,7  L 17,8  L 20,8  Z  " style="fill:rgb(131, 72, 41); fill-opacity:1.000; stroke:none;" />
 <path d="  M 20,53  L 17,53  L 17,54  L 19,54  L 19,55  L 24,55  L 24,54  L 20,54  Z  " style="fill:rgb(131, 72, 41); fill-opacity:1.000; stroke:none;" />
 <path d="  M 24,6  L 24,5  L 19,5  L 19,6  Z  " style="fill:rgb(131, 72, 41); fill-opacity:1.000; stroke:none;" />
 <path d="  M 21,59  L 27,59  L 27,58  L 21,58  Z  " style="fill:rgb(131, 72, 41); fill-opacity:1.000; stroke:none;" />
 <path d="  M 34,11  L 34,10  L 32,10  L 32,9  L 28,9  L 28,8  L 26,8  L 26,7  L 24,7  L 24,8  L 25,8  L 25,9  L 27,9  L 27,10  L 31,10  L 31,11  Z  " style="fill:rgb(131, 72, 41); fill-opacity:1.000; stroke:none;" />
 <path d="  M 26,12  L 26,13  L 31,13  L 31,12  Z  " style="fill:rgb(131, 72, 41); fill-opacity:1.000; stroke:none;" />
 <path d="  M 27,57  L 27,58  L 31,58  L 31,57  L 32,57  L 32,56  L 30,56  L 30,57  Z  " style="fill:rgb(131, 72, 41); fill-opacity:1.000; stroke:none;" />
 <path d="  M 34,50  L 28,50  L 28,51  L 34,51  Z  " style="fill:rgb(131, 72, 41); fill-opacity:1.000; stroke:none;" />
 <path d="  M 34,7  L 34,6  L 35,6  L 35,5  L 33,5  L 33,6  L 30,6  L 30,7  Z  " style="fill:rgb(131, 72, 41); fill-opacity:1.000; stroke:none;" />
 <path d="  M 36,59  L 36,58  L 31,58  L 31,59  Z  " style="fill:rgb(131, 72, 41); fill-opacity:1.000; stroke:none;" />
 <path d="  M 34,11  L 34,12  L 43,12  L 43,11  Z  " style="fill:rgb(131, 72, 41); fill-opacity:1.000; stroke:none;" />
 <path d="  M 37,57  L 39,57  L 39,58  L 47,58  L 47,57  L 41,57  L 41,56  L 38,56  L 38,55  L 35,55  L 35,56  L 34,56  L 34,57  L 36,57  L 36,56  L 37,56  Z  " style="fill:rgb(131, 72, 41); fill-opacity:1.000; stroke:none;" />
 <path d="  M 36,8  L 36,9  L 43,9  L 43,8  Z  " style="fill:rgb(131, 72, 41); fill-opacity:1.000; stroke:none;" />
 <path d="  M 50,53  L 50,54  L 56,54  L 56,52  L 55,52  L 55,53  L 51,53  L 51,52  L 50,52  L 50,51  L 37,51  L 37,52  L 36,52  L 36,53  L 38,53  L 38,52  L 48,52  L 48,53  Z  " style="fill:rgb(131, 72, 41); fill-opacity:1.000; stroke:none;" />
 <path d="  M 42,55  L 42,54  L 38,54  L 38,55  Z  " style="fill:rgb(131, 72, 41); fill-opacity:1.000; stroke:none;" />
 <path d="  M 39,58  L 38,58  L 38,59  L 39,59  Z  " style="fill:rgb(131, 72, 41); fill-opacity:1.000; stroke:none;" />
 <path d="  M 39,5  L 39,6  L 42,6  L 42,5  Z  " style="fill:rgb(131, 72, 41); fill-opacity:1.000; stroke:none;" />
 <path d="  M 40,13  L 40,14  L 41,14  L 41,13  Z  " style="fill:rgb(131, 72, 41); fill-opacity:1.000; stroke:none;" />
 <path d="  M 44,15  L 44,16  L 45,16  L 45,15  L 48,15  L 48,13  L 47,13  L 47,14  L 41,14  L 41,15  Z  " style="fill:rgb(131, 72, 41); fill-opacity:1.000; stroke:none;" />
 <path d="  M 48,5  L 48,6  L 42,6  L 42,7  L 46,7  L 46,8  L 47,8  L 47,7  L 49,7  L 49,6  L 50,6  L 50,5  Z  " style="fill:rgb(131, 72, 41); fill-opacity:1.000; stroke:none;" />
 <path d="  M 52,12  L 52,11  L 45,11  L 45,12  Z  " style="fill:rgb(131, 72, 41); fill-opacity:1.000; stroke:none;" />
 <path d="  M 46,18  L 46,19  L 47,19  L 47,18  L 48,18  L 48,17  L 53,17  L 53,16  L 47,16  L 47,17  L 46,17  L 46,16  L 45,16  L 45,18  Z  " style="fill:rgb(131, 72, 41); fill-opacity:1.000; stroke:none;" />
 <path d="  M 45,45  L 45,46  L 54,46  L 54,45  Z  " style="fill:rgb(131, 72, 41); fill-opacity:1.000; stroke:none;" />
 <path d="  M 46,54  L 45,54  L 45,55  L 46,55  Z  " style="fill:rgb(131, 72, 41); fill-opacity:1.000; stroke:none;" />
 <path d="  M 48,55  L 46,55  L 46,56  L 49,56  L 49,55  L 50,55  L 50,54  L 48,54  Z  " style="fill:rgb(131, 72, 41); fill-opacity:1.000; stroke:none;" />
 <path d="  M 49,8  L 49,9  L 47,9  L 47,10  L 51,10  L 51,9  L 57,9  L 57,8  Z  " style="fill:rgb(131, 72, 41); fill-opacity:1.000; stroke:none;" />
 <path d="  M 47,49  L 47,50  L 49,50  L 49,49  Z  " style="fill:rgb(131, 72, 41); fill-opacity:1.000; stroke:none;" />
 <path d="  M 57,19  L 57,18  L 48,18  L 48,19  Z  " style="fill:rgb(131, 72, 41); fill-opacity:1.000; stroke:none;" />
 <path d="  M 58,22  L 58,23  L 59,23  L 59,21  L 54,21  L 54,22  L 51,22  L 51,21  L 49,21  L 49,22  L 50,22  L 50,23  L 55,23  L 55,22  Z  " style="fill:rgb(131, 72, 41); fill-opacity:1.000; stroke:none;" />
 <path d="  M 50,41  L 50,40  L 49,40  L 49,41  Z  " style="fill:rgb(131, 72, 41); fill-opacity:1.000; stroke:none;" />
 <path d="  M 49,49  L 56,49  L 56,48  L 49,48  Z  " style="fill:rgb(131, 72, 41); fill-opacity:1.000; stroke:none;" />
 <path d="  M 50,26  L 54,26  L 54,25  L 50,25  Z  " style="fill:rgb(131, 72, 41); fill-opacity:1.000; stroke:none;" />
 <path d="  M 58,28  L 52,28  L 52,27  L 50,27  L 50,28  L 51,28  L 51,29  L 58,29  Z  " style="fill:rgb(131, 72, 41); fill-opacity:1.000; stroke:none;" />
 <path d="  M 50,33  L 50,34  L 54,34  L 54,33  L 56,33  L 56,32  L 53,32  L 53,33  Z  " style="fill:rgb(131, 72, 41); fill-opacity:1.000; stroke:none;" />
 <path d="  M 51,36  L 51,35  L 50,35  L 50,36  Z  " style="fill:rgb(131, 72, 41); fill-opacity:1.000; stroke:none;" />
 <path d="  M 50,39  L 50,40  L 59,40  L 59,39  Z  " style="fill:rgb(131, 72, 41); fill-opacity:1.000; stroke:none;" />
 <path d="  M 59,54  L 58,54  L 58,55  L 57,55  L 57,56  L 50,56  L 50,57  L 57,57  L 57,58  L 59,58  L 59,57  L 58,57  L 58,56  L 59,56  Z  " style="fill:rgb(131, 72, 41); fill-opacity:1.000; stroke:none;" />
 <path d="  M 55,37  L 55,36  L 51,36  L 51,37  L 54,37  L 54,38  L 59,38  L 59,37  Z  " style="fill:rgb(131, 72, 41); fill-opacity:1.000; stroke:none;" />
 <path d="  M 54,44  L 54,43  L 51,43  L 51,44  Z  " style="fill:rgb(131, 72, 41); fill-opacity:1.000; stroke:none;" />
 <path d="  M 52,12  L 52,13  L 59,13  L 59,12  Z  " style="fill:rgb(131, 72, 41); fill-opacity:1.000; stroke:none;" />
 <path d="  M 53,6  L 53,7  L 56,7  L 56,6  Z  " style="fill:rgb(131, 72, 41); fill-opacity:1.000; stroke:none;" />
 <path d="  M 58,15  L 53,15  L 53,16  L 58,16  Z  " style="fill:rgb(131, 72, 41); fill-opacity:1.000; stroke:none;" />
 <path d="  M 54,10  L 54,11  L 59,11  L 59,10  Z  " style="fill:rgb(131, 72, 41); fill-opacity:1.000; stroke:none;" />
 <path d="  M 54,25  L 58,25  L 58,24  L 54,24  Z  " style="fill:rgb(131, 72, 41); fill-opacity:1.000; stroke:none;" />
 <path d="  M 58,45  L 58,44  L 54,44  L 54,45  Z  " style="fill:rgb(131, 72, 41); fill-opacity:1.000; stroke:none;" />
 <path d="  M 55,30  L 55,31  L 59,31  L 59,30  Z  " style="fill:rgb(131, 72, 41); fill-opacity:1.000; stroke:none;" />
 <path d="  M 59,35  L 59,34  L 56,34  L 56,35  Z  " style="fill:rgb(131, 72, 41); fill-opacity:1.000; stroke:none;" />
 <path d="  M 56,48  L 57,48  L 57,47  L 56,47  Z  " style="fill:rgb(131, 72, 41); fill-opacity:1.000; stroke:none;" />
 <path d="  M 59,52  L 59,51  L 56,51  L 56,52  Z  " style="fill:rgb(131, 72, 41); fill-opacity:1.000; stroke:none;" />
 <path d="  M 57,5  L 57,6  L 59,6  L 59,5  Z  " style="fill:rgb(131, 72, 41); fill-opacity:1.000; stroke:none;" />
 <path d="  M 58,18  L 58,17  L 57,17  L 57,18  Z  " style="fill:rgb(131, 72, 41); fill-opacity:1.000; stroke:none;" />
 <path d="  M 58,33  L 58,32  L 57,32  L 57,33  Z  " style="fill:rgb(131, 72, 41); fill-opacity:1.000; stroke:none;" />
 <path d="  M 7,14  L 7,13  L 6,13  L 6,12  L 5,12  L 5,14  Z  " style="fill:rgb(139, 73, 42); fill-opacity:1.000; stroke:none;" />
 <path d="  M 8,20  L 8,19  L 5,19  L 5,20  Z  " style="fill:rgb(139, 73, 42); fill-opacity:1.000; stroke:none;" />
 <path d="  M 9,27  L 10,27  L 10,25  L 5,25  L 5,26  L 9,26  Z  " style="fill:rgb(139, 73, 42); fill-opacity:1.000; stroke:none;" />
 <path d="  M 5,28  L 6,28  L 6,27  L 5,27  Z  " style="fill:rgb(139, 73, 42); fill-opacity:1.000; stroke:none;" />
 <path d="  M 8,35  L 8,34  L 5,34  L 5,35  Z  " style="fill:rgb(139, 73, 42); fill-opacity:1.000; stroke:none;" />
 <path d="  M 6,39  L 6,37  L 5,37  L 5,40  L 7,40  L 7,39  Z  " style="fill:rgb(139, 73, 42); fill-opacity:1.000; stroke:none;" />
 <path d="  M 5,46  L 11,46  L 11,45  L 5,45  Z  " style="fill:rgb(139, 73, 42); fill-opacity:1.000; stroke:none;" />
 <path d="  M 6,51  L 6,50  L 5,50  L 5,51  Z  " style="fill:rgb(139, 73, 42); fill-opacity:1.000; stroke:none;" />
 <path d="  M 7,53  L 7,54  L 8,54  L 8,53  L 9,53  L 9,52  L 5,52  L 5,53  Z  " style="fill:rgb(139, 73, 42); fill-opacity:1.000; stroke:none;" />
 <path d="  M 6,28  L 6,29  L 7,29  L 7,28  Z  " style="fill:rgb(139, 73, 42); fill-opacity:1.000; stroke:none;" />
 <path d="  M 24,15  L 24,14  L 12,14  L 12,13  L 16,13  L 16,12  L 7,12  L 7,13  L 8,13  L 8,14  L 11,14  L 11,15  Z  " style="fill:rgb(139, 73, 42); fill-opacity:1.000; stroke:none;" />
 <path d="  M 7,36  L 7,37  L 9,37  L 9,36  Z  " style="fill:rgb(139, 73, 42); fill-opacity:1.000; stroke:none;" />
 <path d="  M 8,20  L 8,21  L 11,21  L 11,20  Z  " style="fill:rgb(139, 73, 42); fill-opacity:1.000; stroke:none;" />
 <path d="  M 9,24  L 9,23  L 8,23  L 8,24  Z  " style="fill:rgb(139, 73, 42); fill-opacity:1.000; stroke:none;" />
 <path d="  M 13,9  L 13,8  L 9,8  L 9,9  Z  " style="fill:rgb(139, 73, 42); fill-opacity:1.000; stroke:none;" />
 <path d="  M 11,39  L 9,39  L 9,40  L 11,40  Z  " style="fill:rgb(139, 73, 42); fill-opacity:1.000; stroke:none;" />
 <path d="  M 10,55  L 10,54  L 9,54  L 9,55  Z  " style="fill:rgb(139, 73, 42); fill-opacity:1.000; stroke:none;" />
 <path d="  M 10,31  L 10,32  L 11,32  L 11,31  Z  " style="fill:rgb(139, 73, 42); fill-opacity:1.000; stroke:none;" />
 <path d="  M 14,36  L 14,35  L 10,35  L 10,36  Z  " style="fill:rgb(139, 73, 42); fill-opacity:1.000; stroke:none;" />
 <path d="  M 10,51  L 10,52  L 14,52  L 14,51  Z  " style="fill:rgb(139, 73, 42); fill-opacity:1.000; stroke:none;" />
 <path d="  M 16,54  L 16,53  L 11,53  L 11,54  Z  " style="fill:rgb(139, 73, 42); fill-opacity:1.000; stroke:none;" />
 <path d="  M 16,20  L 12,20  L 12,21  L 16,21  Z  " style="fill:rgb(139, 73, 42); fill-opacity:1.000; stroke:none;" />
 <path d="  M 12,26  L 12,27  L 15,27  L 15,26  Z  " style="fill:rgb(139, 73, 42); fill-opacity:1.000; stroke:none;" />
 <path d="  M 15,55  L 12,55  L 12,56  L 15,56  Z  " style="fill:rgb(139, 73, 42); fill-opacity:1.000; stroke:none;" />
 <path d="  M 13,34  L 14,34  L 14,33  L 13,33  Z  " style="fill:rgb(139, 73, 42); fill-opacity:1.000; stroke:none;" />
 <path d="  M 15,44  L 15,43  L 13,43  L 13,45  L 14,45  L 14,44  Z  " style="fill:rgb(139, 73, 42); fill-opacity:1.000; stroke:none;" />
 <path d="  M 14,8  L 17,8  L 17,7  L 14,7  Z  " style="fill:rgb(139, 73, 42); fill-opacity:1.000; stroke:none;" />
 <path d="  M 14,24  L 16,24  L 16,23  L 14,23  Z  " style="fill:rgb(139, 73, 42); fill-opacity:1.000; stroke:none;" />
 <path d="  M 14,40  L 14,41  L 15,41  L 15,40  Z  " style="fill:rgb(139, 73, 42); fill-opacity:1.000; stroke:none;" />
 <path d="  M 15,43  L 17,43  L 17,42  L 15,42  Z  " style="fill:rgb(139, 73, 42); fill-opacity:1.000; stroke:none;" />
 <path d="  M 24,55  L 19,55  L 19,54  L 17,54  L 17,55  L 18,55  L 18,56  L 15,56  L 15,57  L 22,57  L 22,56  L 24,56  Z  " style="fill:rgb(139, 73, 42); fill-opacity:1.000; stroke:none;" />
 <path d="  M 19,12  L 19,11  L 16,11  L 16,12  Z  " style="fill:rgb(139, 73, 42); fill-opacity:1.000; stroke:none;" />
 <path d="  M 19,6  L 19,5  L 18,5  L 18,6  Z  " style="fill:rgb(139, 73, 42); fill-opacity:1.000; stroke:none;" />
 <path d="  M 18,50  L 18,51  L 25,51  L 25,50  Z  " style="fill:rgb(139, 73, 42); fill-opacity:1.000; stroke:none;" />
 <path d="  M 18,52  L 18,53  L 21,53  L 21,52  Z  " style="fill:rgb(139, 73, 42); fill-opacity:1.000; stroke:none;" />
 <path d="  M 21,6  L 21,7  L 20,7  L 20,8  L 22,8  L 22,7  L 30,7  L 30,6  L 29,6  L 29,5  L 27,5  L 27,6  Z  " style="fill:rgb(139, 73, 42); fill-opacity:1.000; stroke:none;" />
 <path d="  M 21,54  L 24,54  L 24,53  L 21,53  Z  " style="fill:rgb(139, 73, 42); fill-opacity:1.000; stroke:none;" />
 <path d="  M 25,12  L 25,11  L 26,11  L 26,10  L 24,10  L 24,11  L 23,11  L 23,12  Z  " style="fill:rgb(139, 73, 42); fill-opacity:1.000; stroke:none;" />
 <path d="  M 24,54  L 24,55  L 32,55  L 32,54  Z  " style="fill:rgb(139, 73, 42); fill-opacity:1.000; stroke:none;" />
 <path d="  M 30,57  L 30,56  L 26,56  L 26,57  Z  " style="fill:rgb(139, 73, 42); fill-opacity:1.000; stroke:none;" />
 <path d="  M 28,9  L 29,9  L 29,8  L 28,8  Z  " style="fill:rgb(139, 73, 42); fill-opacity:1.000; stroke:none;" />
 <path d="  M 36,52  L 36,51  L 28,51  L 28,52  L 32,52  L 32,53  L 33,53  L 33,52  Z  " style="fill:rgb(139, 73, 42); fill-opacity:1.000; stroke:none;" />
 <path d="  M 31,6  L 33,6  L 33,5  L 31,5  Z  " style="fill:rgb(139, 73, 42); fill-opacity:1.000; stroke:none;" />
 <path d="  M 42,7  L 42,6  L 36,6  L 36,5  L 35,5  L 35,6  L 34,6  L 34,7  L 31,7  L 31,8  L 38,8  L 38,7  Z  " style="fill:rgb(139, 73, 42); fill-opacity:1.000; stroke:none;" />
 <path d="  M 34,57  L 34,56  L 32,56  L 32,58  L 39,58  L 39,57  Z  " style="fill:rgb(139, 73, 42); fill-opacity:1.000; stroke:none;" />
 <path d="  M 33,11  L 33,12  L 34,12  L 34,11  Z  " style="fill:rgb(139, 73, 42); fill-opacity:1.000; stroke:none;" />
 <path d="  M 36,13  L 36,14  L 38,14  L 38,13  Z  " style="fill:rgb(139, 73, 42); fill-opacity:1.000; stroke:none;" />
 <path d="  M 38,52  L 38,53  L 40,53  L 40,52  Z  " style="fill:rgb(139, 73, 42); fill-opacity:1.000; stroke:none;" />
 <path d="  M 41,14  L 45,14  L 45,13  L 42,13  L 42,12  L 39,12  L 39,13  L 41,13  Z  " style="fill:rgb(139, 73, 42); fill-opacity:1.000; stroke:none;" />
 <path d="  M 44,58  L 39,58  L 39,59  L 44,59  Z  " style="fill:rgb(139, 73, 42); fill-opacity:1.000; stroke:none;" />
 <path d="  M 41,10  L 41,11  L 42,11  L 42,10  Z  " style="fill:rgb(139, 73, 42); fill-opacity:1.000; stroke:none;" />
 <path d="  M 41,52  L 41,53  L 45,53  L 45,52  Z  " style="fill:rgb(139, 73, 42); fill-opacity:1.000; stroke:none;" />
 <path d="  M 43,55  L 43,56  L 41,56  L 41,57  L 44,57  L 44,56  L 46,56  L 46,55  Z  " style="fill:rgb(139, 73, 42); fill-opacity:1.000; stroke:none;" />
 <path d="  M 43,8  L 43,9  L 44,9  L 44,8  Z  " style="fill:rgb(139, 73, 42); fill-opacity:1.000; stroke:none;" />
 <path d="  M 48,46  L 44,46  L 44,47  L 48,47  Z  " style="fill:rgb(139, 73, 42); fill-opacity:1.000; stroke:none;" />
 <path d="  M 48,6  L 48,5  L 47,5  L 47,6  Z  " style="fill:rgb(139, 73, 42); fill-opacity:1.000; stroke:none;" />
 <path d="  M 47,15  L 47,16  L 51,16  L 51,15  Z  " style="fill:rgb(139, 73, 42); fill-opacity:1.000; stroke:none;" />
 <path d="  M 52,51  L 52,50  L 47,50  L 47,51  Z  " style="fill:rgb(139, 73, 42); fill-opacity:1.000; stroke:none;" />
 <path d="  M 48,54  L 47,54  L 47,55  L 48,55  Z  " style="fill:rgb(139, 73, 42); fill-opacity:1.000; stroke:none;" />
 <path d="  M 55,14  L 55,13  L 48,13  L 48,14  Z  " style="fill:rgb(139, 73, 42); fill-opacity:1.000; stroke:none;" />
 <path d="  M 51,26  L 49,26  L 49,27  L 51,27  Z  " style="fill:rgb(139, 73, 42); fill-opacity:1.000; stroke:none;" />
 <path d="  M 49,38  L 49,39  L 58,39  L 58,38  Z  " style="fill:rgb(139, 73, 42); fill-opacity:1.000; stroke:none;" />
 <path d="  M 50,44  L 51,44  L 51,42  L 49,42  L 49,45  L 50,45  Z  " style="fill:rgb(139, 73, 42); fill-opacity:1.000; stroke:none;" />
 <path d="  M 55,6  L 55,5  L 50,5  L 50,6  Z  " style="fill:rgb(139, 73, 42); fill-opacity:1.000; stroke:none;" />
 <path d="  M 50,29  L 50,30  L 51,30  L 51,29  Z  " style="fill:rgb(139, 73, 42); fill-opacity:1.000; stroke:none;" />
 <path d="  M 50,31  L 50,32  L 52,32  L 52,31  Z  " style="fill:rgb(139, 73, 42); fill-opacity:1.000; stroke:none;" />
 <path d="  M 54,48  L 54,47  L 50,47  L 50,48  Z  " style="fill:rgb(139, 73, 42); fill-opacity:1.000; stroke:none;" />
 <path d="  M 59,8  L 58,8  L 58,6  L 57,6  L 57,9  L 51,9  L 51,10  L 59,10  Z  " style="fill:rgb(139, 73, 42); fill-opacity:1.000; stroke:none;" />
 <path d="  M 54,25  L 54,24  L 55,24  L 55,23  L 53,23  L 53,24  L 52,24  L 52,25  Z  " style="fill:rgb(139, 73, 42); fill-opacity:1.000; stroke:none;" />
 <path d="  M 52,42  L 52,43  L 54,43  L 54,42  Z  " style="fill:rgb(139, 73, 42); fill-opacity:1.000; stroke:none;" />
 <path d="  M 52,45  L 54,45  L 54,44  L 52,44  Z  " style="fill:rgb(139, 73, 42); fill-opacity:1.000; stroke:none;" />
 <path d="  M 57,16  L 53,16  L 53,17  L 57,17  Z  " style="fill:rgb(139, 73, 42); fill-opacity:1.000; stroke:none;" />
 <path d="  M 53,58  L 53,59  L 56,59  L 56,58  Z  " style="fill:rgb(139, 73, 42); fill-opacity:1.000; stroke:none;" />
 <path d="  M 54,31  L 55,31  L 55,30  L 54,30  Z  " style="fill:rgb(139, 73, 42); fill-opacity:1.000; stroke:none;" />
 <path d="  M 56,51  L 54,51  L 54,52  L 56,52  Z  " style="fill:rgb(139, 73, 42); fill-opacity:1.000; stroke:none;" />
 <path d="  M 55,23  L 56,23  L 56,22  L 55,22  Z  " style="fill:rgb(139, 73, 42); fill-opacity:1.000; stroke:none;" />
 <path d="  M 56,49  L 56,50  L 59,50  L 59,49  Z  " style="fill:rgb(139, 73, 42); fill-opacity:1.000; stroke:none;" />
 <path d="  M 58,21  L 58,20  L 57,20  L 57,21  Z  " style="fill:rgb(139, 73, 42); fill-opacity:1.000; stroke:none;" />
 <path d="  M 59,17  L 58,17  L 58,18  L 59,18  Z  " style="fill:rgb(139, 73, 42); fill-opacity:1.000; stroke:none;" />
 <path d="  M 58,44  L 58,45  L 59,45  L 59,44  Z  " style="fill:rgb(139, 73, 42); fill-opacity:1.000; stroke:none;" />
 <path d="  M 59,52  L 58,52  L 58,53  L 59,53  Z  " style="fill:rgb(139, 73, 42); fill-opacity:1.000; stroke:none;" />
 <path d="  M 12,63  L 12,64  L 16,64  L 16,63  Z  " style="fill:rgb(53, 44, 41); fill-opacity:1.000; stroke:none;" />
 <path d="  M 15,27  L 14,27  L 14,28  L 15,28  Z  " style="fill:rgb(159, 81, 45); fill-opacity:1.000; stroke:none;" />
 <path d="  M 16,25  L 16,24  L 15,24  L 15,25  Z  " style="fill:rgb(159, 81, 45); fill-opacity:1.000; stroke:none;" />
 <path d="  M 16,27  L 16,26  L 15,26  L 15,27  Z  " style="fill:rgb(159, 81, 45); fill-opacity:1.000; stroke:none;" />
 <path d="  M 17,22  L 16,22  L 16,24  L 17,24  Z  " style="fill:rgb(159, 81, 45); fill-opacity:1.000; stroke:none;" />
 <path d="  M 17,20  L 17,22  L 18,22  L 18,20  Z  " style="fill:rgb(159, 81, 45); fill-opacity:1.000; stroke:none;" />
 <path d="  M 18,20  L 19,20  L 19,19  L 18,19  Z  " style="fill:rgb(159, 81, 45); fill-opacity:1.000; stroke:none;" />
 <path d="  M 27,16  L 27,15  L 24,15  L 24,16  Z  " style="fill:rgb(159, 81, 45); fill-opacity:1.000; stroke:none;" />
 <path d="  M 34,15  L 37,15  L 37,14  L 34,14  Z  " style="fill:rgb(159, 81, 45); fill-opacity:1.000; stroke:none;" />
 <path d="  M 14,28  L 14,29  L 15,29  L 15,28  Z  " style="fill:rgb(168, 84, 43); fill-opacity:1.000; stroke:none;" />
 <path d="  M 15,30  L 14,30  L 14,34  L 15,34  Z  " style="fill:rgb(168, 84, 43); fill-opacity:1.000; stroke:none;" />
 <path d="  M 15,37  L 15,36  L 14,36  L 14,37  Z  " style="fill:rgb(168, 84, 43); fill-opacity:1.000; stroke:none;" />
 <path d="  M 16,37  L 15,37  L 15,38  L 16,38  Z  " style="fill:rgb(168, 84, 43); fill-opacity:1.000; stroke:none;" />
 <path d="  M 16,42  L 17,42  L 17,40  L 16,40  Z  " style="fill:rgb(168, 84, 43); fill-opacity:1.000; stroke:none;" />
 <path d="  M 19,19  L 20,19  L 20,18  L 19,18  Z  " style="fill:rgb(168, 84, 43); fill-opacity:1.000; stroke:none;" />
 <path d="  M 20,17  L 20,18  L 22,18  L 22,17  Z  " style="fill:rgb(168, 84, 43); fill-opacity:1.000; stroke:none;" />
 <path d="  M 20,47  L 22,47  L 22,46  L 20,46  Z  " style="fill:rgb(168, 84, 43); fill-opacity:1.000; stroke:none;" />
 <path d="  M 22,16  L 22,17  L 24,17  L 24,16  Z  " style="fill:rgb(168, 84, 43); fill-opacity:1.000; stroke:none;" />
 <path d="  M 37,15  L 37,16  L 39,16  L 39,15  Z  " style="fill:rgb(168, 84, 43); fill-opacity:1.000; stroke:none;" />
 <path d="  M 44,18  L 44,17  L 42,17  L 42,18  Z  " style="fill:rgb(168, 84, 43); fill-opacity:1.000; stroke:none;" />
 <path d="  M 45,45  L 44,45  L 44,46  L 45,46  Z  " style="fill:rgb(168, 84, 43); fill-opacity:1.000; stroke:none;" />
 <path d="  M 45,19  L 45,20  L 46,20  L 46,19  Z  " style="fill:rgb(168, 84, 43); fill-opacity:1.000; stroke:none;" />
 <path d="  M 46,20  L 46,21  L 47,21  L 47,20  Z  " style="fill:rgb(168, 84, 43); fill-opacity:1.000; stroke:none;" />
 <path d="  M 48,23  L 48,22  L 47,22  L 47,23  Z  " style="fill:rgb(168, 84, 43); fill-opacity:1.000; stroke:none;" />
 <path d="  M 48,40  L 47,40  L 47,42  L 48,42  Z  " style="fill:rgb(168, 84, 43); fill-opacity:1.000; stroke:none;" />
 <path d="  M 48,25  L 49,25  L 49,24  L 48,24  Z  " style="fill:rgb(168, 84, 43); fill-opacity:1.000; stroke:none;" />
 <path d="  M 49,31  L 50,31  L 50,30  L 49,30  Z  " style="fill:rgb(168, 84, 43); fill-opacity:1.000; stroke:none;" />
 <path d="  M 49,35  L 50,35  L 50,34  L 49,34  Z  " style="fill:rgb(168, 84, 43); fill-opacity:1.000; stroke:none;" />
 <path d="  M 15,29  L 14,29  L 14,30  L 15,30  Z  " style="fill:rgb(151, 81, 44); fill-opacity:1.000; stroke:none;" />
 <path d="  M 15,34  L 14,34  L 14,36  L 15,36  Z  " style="fill:rgb(151, 81, 44); fill-opacity:1.000; stroke:none;" />
 <path d="  M 16,38  L 15,38  L 15,40  L 16,40  Z  " style="fill:rgb(151, 81, 44); fill-opacity:1.000; stroke:none;" />
 <path d="  M 17,42  L 17,43  L 18,43  L 18,42  Z  " style="fill:rgb(151, 81, 44); fill-opacity:1.000; stroke:none;" />
 <path d="  M 19,45  L 19,44  L 18,44  L 18,45  Z  " style="fill:rgb(151, 81, 44); fill-opacity:1.000; stroke:none;" />
 <path d="  M 19,45  L 19,46  L 20,46  L 20,45  Z  " style="fill:rgb(151, 81, 44); fill-opacity:1.000; stroke:none;" />
 <path d="  M 24,48  L 24,47  L 22,47  L 22,48  Z  " style="fill:rgb(151, 81, 44); fill-opacity:1.000; stroke:none;" />
 <path d="  M 26,48  L 26,49  L 27,49  L 27,48  Z  " style="fill:rgb(151, 81, 44); fill-opacity:1.000; stroke:none;" />
 <path d="  M 27,15  L 28,15  L 28,14  L 27,14  Z  " style="fill:rgb(151, 81, 44); fill-opacity:1.000; stroke:none;" />
 <path d="  M 31,49  L 29,49  L 29,50  L 31,50  Z  " style="fill:rgb(151, 81, 44); fill-opacity:1.000; stroke:none;" />
 <path d="  M 37,50  L 37,49  L 36,49  L 36,50  Z  " style="fill:rgb(151, 81, 44); fill-opacity:1.000; stroke:none;" />
 <path d="  M 42,17  L 42,16  L 40,16  L 40,17  Z  " style="fill:rgb(151, 81, 44); fill-opacity:1.000; stroke:none;" />
 <path d="  M 42,48  L 42,47  L 40,47  L 40,48  Z  " style="fill:rgb(151, 81, 44); fill-opacity:1.000; stroke:none;" />
 <path d="  M 44,46  L 42,46  L 42,47  L 44,47  Z  " style="fill:rgb(151, 81, 44); fill-opacity:1.000; stroke:none;" />
 <path d="  M 45,19  L 45,18  L 44,18  L 44,19  Z  " style="fill:rgb(151, 81, 44); fill-opacity:1.000; stroke:none;" />
 <path d="  M 46,22  L 47,22  L 47,21  L 46,21  Z  " style="fill:rgb(151, 81, 44); fill-opacity:1.000; stroke:none;" />
 <path d="  M 47,44  L 47,43  L 46,43  L 46,44  Z  " style="fill:rgb(151, 81, 44); fill-opacity:1.000; stroke:none;" />
 <path d="  M 48,24  L 48,23  L 47,23  L 47,24  Z  " style="fill:rgb(151, 81, 44); fill-opacity:1.000; stroke:none;" />
 <path d="  M 48,27  L 49,27  L 49,26  L 48,26  Z  " style="fill:rgb(151, 81, 44); fill-opacity:1.000; stroke:none;" />
 <path d="  M 49,37  L 48,37  L 48,39  L 49,39  Z  " style="fill:rgb(151, 81, 44); fill-opacity:1.000; stroke:none;" />
 <path d="  M 49,27  L 49,28  L 50,28  L 50,27  Z  " style="fill:rgb(151, 81, 44); fill-opacity:1.000; stroke:none;" />
 <path d="  M 50,29  L 49,29  L 49,30  L 50,30  Z  " style="fill:rgb(151, 81, 44); fill-opacity:1.000; stroke:none;" />
 <path d="  M 50,31  L 49,31  L 49,32  L 50,32  Z  " style="fill:rgb(151, 81, 44); fill-opacity:1.000; stroke:none;" />
 <path d="  M 50,33  L 49,33  L 49,34  L 50,34  Z  " style="fill:rgb(151, 81, 44); fill-opacity:1.000; stroke:none;" />
 <path d="  M 50,36  L 49,36  L 49,37  L 50,37  Z  " style="fill:rgb(151, 81, 44); fill-opacity:1.000; stroke:none;" />
 <path d="  M 16,26  L 16,25  L 15,25  L 15,26  Z  " style="fill:rgb(147, 78, 42); fill-opacity:1.000; stroke:none;" />
 <path d="  M 18,43  L 17,43  L 17,44  L 18,44  Z  " style="fill:rgb(147, 78, 42); fill-opacity:1.000; stroke:none;" />
 <path d="  M 24,48  L 24,49  L 26,49  L 26,48  Z  " style="fill:rgb(147, 78, 42); fill-opacity:1.000; stroke:none;" />
 <path d="  M 29,49  L 27,49  L 27,50  L 29,50  Z  " style="fill:rgb(147, 78, 42); fill-opacity:1.000; stroke:none;" />
 <path d="  M 28,14  L 28,15  L 34,15  L 34,14  Z  " style="fill:rgb(147, 78, 42); fill-opacity:1.000; stroke:none;" />
 <path d="  M 31,49  L 31,50  L 36,50  L 36,49  Z  " style="fill:rgb(147, 78, 42); fill-opacity:1.000; stroke:none;" />
 <path d="  M 37,48  L 37,49  L 40,49  L 40,48  Z  " style="fill:rgb(147, 78, 42); fill-opacity:1.000; stroke:none;" />
 <path d="  M 40,15  L 39,15  L 39,16  L 40,16  Z  " style="fill:rgb(147, 78, 42); fill-opacity:1.000; stroke:none;" />
 <path d="  M 46,44  L 45,44  L 45,45  L 46,45  Z  " style="fill:rgb(147, 78, 42); fill-opacity:1.000; stroke:none;" />
 <path d="  M 46,42  L 46,43  L 47,43  L 47,42  Z  " style="fill:rgb(147, 78, 42); fill-opacity:1.000; stroke:none;" />
 <path d="  M 49,25  L 48,25  L 48,26  L 49,26  Z  " style="fill:rgb(147, 78, 42); fill-opacity:1.000; stroke:none;" />
 <path d="  M 49,40  L 49,39  L 48,39  L 48,40  Z  " style="fill:rgb(147, 78, 42); fill-opacity:1.000; stroke:none;" />
 <path d="  M 50,29  L 50,28  L 49,28  L 49,29  Z  " style="fill:rgb(147, 78, 42); fill-opacity:1.000; stroke:none;" />
 <path d="  M 49,32  L 49,33  L 50,33  L 50,32  Z  " style="fill:rgb(147, 78, 42); fill-opacity:1.000; stroke:none;" />
 <path d="  M 50,35  L 49,35  L 49,36  L 50,36  Z  " style="fill:rgb(147, 78, 42); fill-opacity:1.000; stroke:none;" />
 <path d="  M 16,27  L 15,27  L 15,28  L 16,28  Z  " style="fill:rgb(164, 85, 49); fill-opacity:1.000; stroke:none;" />
 <path d="  M 15,29  L 15,32  L 17,32  L 17,31  L 18,31  L 18,30  L 20,30  L 20,29  Z  " style="fill:rgb(164, 85, 49); fill-opacity:1.000; stroke:none;" />
 <path d="  M 15,34  L 15,37  L 16,37  L 16,35  L 20,35  L 20,34  Z  " style="fill:rgb(164, 85, 49); fill-opacity:1.000; stroke:none;" />
 <path d="  M 17,28  L 20,28  L 20,27  L 21,27  L 21,26  L 18,26  L 18,25  L 17,25  L 17,24  L 16,24  L 16,27  L 17,27  Z  " style="fill:rgb(164, 85, 49); fill-opacity:1.000; stroke:none;" />
 <path d="  M 16,37  L 16,39  L 18,39  L 18,40  L 19,40  L 19,39  L 20,39  L 20,38  L 23,38  L 23,37  Z  " style="fill:rgb(164, 85, 49); fill-opacity:1.000; stroke:none;" />
 <path d="  M 22,24  L 22,23  L 19,23  L 19,22  L 18,22  L 18,23  L 17,23  L 17,24  Z  " style="fill:rgb(164, 85, 49); fill-opacity:1.000; stroke:none;" />
 <path d="  M 17,42  L 18,42  L 18,41  L 17,41  Z  " style="fill:rgb(164, 85, 49); fill-opacity:1.000; stroke:none;" />
 <path d="  M 18,32  L 18,33  L 20,33  L 20,32  Z  " style="fill:rgb(164, 85, 49); fill-opacity:1.000; stroke:none;" />
 <path d="  M 26,43  L 26,42  L 18,42  L 18,44  L 19,44  L 19,45  L 20,45  L 20,46  L 22,46  L 22,47  L 23,47  L 23,46  L 39,46  L 39,45  L 25,45  L 25,44  L 20,44  L 20,43  Z  " style="fill:rgb(164, 85, 49); fill-opacity:1.000; stroke:none;" />
 <path d="  M 32,20  L 23,20  L 23,19  L 19,19  L 19,20  L 20,20  L 20,21  L 25,21  L 25,22  L 28,22  L 28,21  L 32,21  Z  " style="fill:rgb(164, 85, 49); fill-opacity:1.000; stroke:none;" />
 <path d="  M 25,31  L 25,30  L 22,30  L 22,29  L 26,29  L 26,30  L 29,30  L 29,29  L 27,29  L 27,28  L 21,28  L 21,31  L 20,31  L 20,32  L 24,32  L 24,33  L 25,33  L 25,32  L 28,32  L 28,31  Z  " style="fill:rgb(164, 85, 49); fill-opacity:1.000; stroke:none;" />
 <path d="  M 25,40  L 25,39  L 20,39  L 20,40  Z  " style="fill:rgb(164, 85, 49); fill-opacity:1.000; stroke:none;" />
 <path d="  M 24,33  L 21,33  L 21,34  L 24,34  Z  " style="fill:rgb(164, 85, 49); fill-opacity:1.000; stroke:none;" />
 <path d="  M 22,17  L 22,18  L 23,18  L 23,17  Z  " style="fill:rgb(164, 85, 49); fill-opacity:1.000; stroke:none;" />
 <path d="  M 28,26  L 28,25  L 25,25  L 25,24  L 23,24  L 23,25  L 22,25  L 22,26  Z  " style="fill:rgb(164, 85, 49); fill-opacity:1.000; stroke:none;" />
 <path d="  M 23,22  L 23,23  L 24,23  L 24,22  Z  " style="fill:rgb(164, 85, 49); fill-opacity:1.000; stroke:none;" />
 <path d="  M 27,15  L 27,16  L 24,16  L 24,17  L 30,17  L 30,16  L 37,16  L 37,15  Z  " style="fill:rgb(164, 85, 49); fill-opacity:1.000; stroke:none;" />
 <path d="  M 24,18  L 24,19  L 32,19  L 32,20  L 35,20  L 35,19  L 34,19  L 34,18  Z  " style="fill:rgb(164, 85, 49); fill-opacity:1.000; stroke:none;" />
 <path d="  M 24,37  L 25,37  L 25,36  L 24,36  Z  " style="fill:rgb(164, 85, 49); fill-opacity:1.000; stroke:none;" />
 <path d="  M 26,48  L 26,47  L 24,47  L 24,48  Z  " style="fill:rgb(164, 85, 49); fill-opacity:1.000; stroke:none;" />
 <path d="  M 28,34  L 28,35  L 26,35  L 26,36  L 27,36  L 27,37  L 29,37  L 29,36  L 31,36  L 31,35  L 33,35  L 33,34  Z  " style="fill:rgb(164, 85, 49); fill-opacity:1.000; stroke:none;" />
 <path d="  M 27,38  L 27,37  L 26,37  L 26,38  Z  " style="fill:rgb(164, 85, 49); fill-opacity:1.000; stroke:none;" />
 <path d="  M 27,24  L 32,24  L 32,23  L 27,23  Z  " style="fill:rgb(164, 85, 49); fill-opacity:1.000; stroke:none;" />
 <path d="  M 31,40  L 31,41  L 30,41  L 30,43  L 27,43  L 27,44  L 35,44  L 35,43  L 34,43  L 34,42  L 32,42  L 32,40  Z  " style="fill:rgb(164, 85, 49); fill-opacity:1.000; stroke:none;" />
 <path d="  M 28,49  L 28,48  L 27,48  L 27,49  Z  " style="fill:rgb(164, 85, 49); fill-opacity:1.000; stroke:none;" />
 <path d="  M 30,27  L 28,27  L 28,28  L 30,28  Z  " style="fill:rgb(164, 85, 49); fill-opacity:1.000; stroke:none;" />
 <path d="  M 36,41  L 40,41  L 40,40  L 41,40  L 41,39  L 35,39  L 35,38  L 28,38  L 28,39  L 29,39  L 29,40  L 31,40  L 31,39  L 32,39  L 32,40  L 36,40  Z  " style="fill:rgb(164, 85, 49); fill-opacity:1.000; stroke:none;" />
 <path d="  M 29,41  L 29,40  L 28,40  L 28,41  Z  " style="fill:rgb(164, 85, 49); fill-opacity:1.000; stroke:none;" />
 <path d="  M 33,31  L 33,29  L 32,29  L 32,30  L 29,30  L 29,31  Z  " style="fill:rgb(164, 85, 49); fill-opacity:1.000; stroke:none;" />
 <path d="  M 29,47  L 29,48  L 32,48  L 32,47  Z  " style="fill:rgb(164, 85, 49); fill-opacity:1.000; stroke:none;" />
 <path d="  M 30,33  L 32,33  L 32,32  L 30,32  Z  " style="fill:rgb(164, 85, 49); fill-opacity:1.000; stroke:none;" />
 <path d="  M 35,25  L 35,24  L 32,24  L 32,25  Z  " style="fill:rgb(164, 85, 49); fill-opacity:1.000; stroke:none;" />
 <path d="  M 34,35  L 34,36  L 32,36  L 32,37  L 35,37  L 35,36  L 37,36  L 37,35  Z  " style="fill:rgb(164, 85, 49); fill-opacity:1.000; stroke:none;" />
 <path d="  M 38,22  L 44,22  L 44,23  L 47,23  L 47,22  L 46,22  L 46,21  L 37,21  L 37,22  L 35,22  L 35,21  L 34,21  L 34,22  L 33,22  L 33,23  L 36,23  L 36,24  L 42,24  L 42,23  L 38,23  Z  " style="fill:rgb(164, 85, 49); fill-opacity:1.000; stroke:none;" />
 <path d="  M 34,26  L 34,27  L 35,27  L 35,28  L 36,28  L 36,27  L 39,27  L 39,28  L 44,28  L 44,27  L 41,27  L 41,26  Z  " style="fill:rgb(164, 85, 49); fill-opacity:1.000; stroke:none;" />
 <path d="  M 36,32  L 36,31  L 34,31  L 34,32  Z  " style="fill:rgb(164, 85, 49); fill-opacity:1.000; stroke:none;" />
 <path d="  M 34,34  L 38,34  L 38,33  L 34,33  Z  " style="fill:rgb(164, 85, 49); fill-opacity:1.000; stroke:none;" />
 <path d="  M 34,42  L 35,42  L 35,41  L 34,41  Z  " style="fill:rgb(164, 85, 49); fill-opacity:1.000; stroke:none;" />
 <path d="  M 40,19  L 40,18  L 42,18  L 42,17  L 40,17  L 40,16  L 39,16  L 39,18  L 38,18  L 38,17  L 37,17  L 37,18  L 35,18  L 35,19  Z  " style="fill:rgb(164, 85, 49); fill-opacity:1.000; stroke:none;" />
 <path d="  M 35,20  L 35,21  L 37,21  L 37,20  Z  " style="fill:rgb(164, 85, 49); fill-opacity:1.000; stroke:none;" />
 <path d="  M 37,48  L 35,48  L 35,49  L 37,49  Z  " style="fill:rgb(164, 85, 49); fill-opacity:1.000; stroke:none;" />
 <path d="  M 46,30  L 46,32  L 47,32  L 47,31  L 49,31  L 49,27  L 48,27  L 48,28  L 46,28  L 46,29  L 39,29  L 39,28  L 36,28  L 36,29  L 37,29  L 37,30  Z  " style="fill:rgb(164, 85, 49); fill-opacity:1.000; stroke:none;" />
 <path d="  M 41,38  L 41,37  L 36,37  L 36,38  Z  " style="fill:rgb(164, 85, 49); fill-opacity:1.000; stroke:none;" />
 <path d="  M 40,43  L 36,43  L 36,44  L 40,44  Z  " style="fill:rgb(164, 85, 49); fill-opacity:1.000; stroke:none;" />
 <path d="  M 38,31  L 38,32  L 40,32  L 40,31  Z  " style="fill:rgb(164, 85, 49); fill-opacity:1.000; stroke:none;" />
 <path d="  M 42,35  L 42,34  L 38,34  L 38,35  L 41,35  L 41,36  L 45,36  L 45,35  Z  " style="fill:rgb(164, 85, 49); fill-opacity:1.000; stroke:none;" />
 <path d="  M 40,47  L 38,47  L 38,48  L 40,48  Z  " style="fill:rgb(164, 85, 49); fill-opacity:1.000; stroke:none;" />
 <path d="  M 42,19  L 40,19  L 40,20  L 42,20  Z  " style="fill:rgb(164, 85, 49); fill-opacity:1.000; stroke:none;" />
 <path d="  M 45,33  L 45,32  L 40,32  L 40,33  Z  " style="fill:rgb(164, 85, 49); fill-opacity:1.000; stroke:none;" />
 <path d="  M 41,41  L 41,42  L 40,42  L 40,43  L 44,43  L 44,42  L 45,42  L 45,41  Z  " style="fill:rgb(164, 85, 49); fill-opacity:1.000; stroke:none;" />
 <path d="  M 45,45  L 45,44  L 40,44  L 40,45  Z  " style="fill:rgb(164, 85, 49); fill-opacity:1.000; stroke:none;" />
 <path d="  M 41,25  L 41,26  L 46,26  L 46,27  L 48,27  L 48,25  L 45,25  L 45,24  L 44,24  L 44,25  Z  " style="fill:rgb(164, 85, 49); fill-opacity:1.000; stroke:none;" />
 <path d="  M 42,47  L 42,46  L 41,46  L 41,47  Z  " style="fill:rgb(164, 85, 49); fill-opacity:1.000; stroke:none;" />
 <path d="  M 44,18  L 43,18  L 43,19  L 44,19  Z  " style="fill:rgb(164, 85, 49); fill-opacity:1.000; stroke:none;" />
 <path d="  M 44,37  L 44,38  L 45,38  L 45,39  L 48,39  L 48,37  Z  " style="fill:rgb(164, 85, 49); fill-opacity:1.000; stroke:none;" />
 <path d="  M 45,43  L 45,44  L 46,44  L 46,43  Z  " style="fill:rgb(164, 85, 49); fill-opacity:1.000; stroke:none;" />
 <path d="  M 49,34  L 49,33  L 46,33  L 46,34  Z  " style="fill:rgb(164, 85, 49); fill-opacity:1.000; stroke:none;" />
 <path d="  M 46,40  L 46,42  L 47,42  L 47,40  Z  " style="fill:rgb(164, 85, 49); fill-opacity:1.000; stroke:none;" />
 <path d="  M 47,36  L 49,36  L 49,35  L 47,35  Z  " style="fill:rgb(164, 85, 49); fill-opacity:1.000; stroke:none;" />
 <path d="  M 15,29  L 18,29  L 18,28  L 15,28  Z  " style="fill:rgb(158, 81, 47); fill-opacity:1.000; stroke:none;" />
 <path d="  M 20,31  L 21,31  L 21,29  L 20,29  L 20,30  L 18,30  L 18,31  L 17,31  L 17,32  L 15,32  L 15,33  L 18,33  L 18,32  L 20,32  Z  " style="fill:rgb(158, 81, 47); fill-opacity:1.000; stroke:none;" />
 <path d="  M 25,36  L 25,37  L 27,37  L 27,36  L 26,36  L 26,35  L 16,35  L 16,37  L 18,37  L 18,36  Z  " style="fill:rgb(158, 81, 47); fill-opacity:1.000; stroke:none;" />
 <path d="  M 18,22  L 17,22  L 17,23  L 18,23  Z  " style="fill:rgb(158, 81, 47); fill-opacity:1.000; stroke:none;" />
 <path d="  M 47,24  L 47,23  L 44,23  L 44,22  L 38,22  L 38,23  L 43,23  L 43,24  L 36,24  L 36,23  L 33,23  L 33,22  L 34,22  L 34,21  L 32,21  L 32,22  L 26,22  L 26,23  L 23,23  L 23,22  L 20,22  L 20,21  L 18,21  L 18,22  L 19,22  L 19,23  L 22,23  L 22,24  L 27,24  L 27,23  L 32,23  L 32,24  L 35,24  L 35,25  L 28,25  L 28,26  L 22,26  L 22,25  L 18,25  L 18,26  L 21,26  L 21,27  L 34,27  L 34,26  L 37,26  L 37,25  L 44,25  L 44,24  Z  " style="fill:rgb(158, 81, 47); fill-opacity:1.000; stroke:none;" />
 <path d="  M 20,40  L 20,39  L 19,39  L 19,40  L 18,40  L 18,41  L 23,41  L 23,42  L 30,42  L 30,41  L 31,41  L 31,40  L 29,40  L 29,41  L 24,41  L 24,40  Z  " style="fill:rgb(158, 81, 47); fill-opacity:1.000; stroke:none;" />
 <path d="  M 24,19  L 24,18  L 20,18  L 20,19  L 23,19  L 23,20  L 31,20  L 31,19  Z  " style="fill:rgb(158, 81, 47); fill-opacity:1.000; stroke:none;" />
 <path d="  M 20,32  L 20,33  L 24,33  L 24,32  Z  " style="fill:rgb(158, 81, 47); fill-opacity:1.000; stroke:none;" />
 <path d="  M 26,39  L 26,38  L 20,38  L 20,39  L 25,39  L 25,40  L 29,40  L 29,39  Z  " style="fill:rgb(158, 81, 47); fill-opacity:1.000; stroke:none;" />
 <path d="  M 22,30  L 25,30  L 25,31  L 28,31  L 28,32  L 34,32  L 34,31  L 29,31  L 29,30  L 26,30  L 26,29  L 22,29  Z  " style="fill:rgb(158, 81, 47); fill-opacity:1.000; stroke:none;" />
 <path d="  M 25,44  L 25,45  L 39,45  L 39,46  L 44,46  L 44,45  L 40,45  L 40,44  L 36,44  L 36,43  L 40,43  L 40,42  L 34,42  L 34,43  L 35,43  L 35,44  L 26,44  L 26,43  L 22,43  L 22,44  Z  " style="fill:rgb(158, 81, 47); fill-opacity:1.000; stroke:none;" />
 <path d="  M 38,35  L 38,34  L 42,34  L 42,35  L 45,35  L 45,36  L 43,36  L 43,37  L 41,37  L 41,38  L 36,38  L 36,37  L 32,37  L 32,36  L 34,36  L 34,35  L 37,35  L 37,36  L 38,36  L 38,37  L 40,37  L 40,36  L 39,36  L 39,35  Z  M 43,34  L 43,33  L 38,33  L 38,34  L 34,34  L 34,33  L 25,33  L 25,34  L 33,34  L 33,35  L 31,35  L 31,36  L 29,36  L 29,37  L 31,37  L 31,38  L 35,38  L 35,39  L 45,39  L 45,38  L 44,38  L 44,37  L 49,37  L 49,36  L 47,36  L 47,35  L 49,35  L 49,34  Z  " style="fill:rgb(158, 81, 47); fill-opacity:1.000; stroke:none;" />
 <path d="  M 32,47  L 32,48  L 38,48  L 38,47  L 34,47  L 34,46  L 25,46  L 25,47  Z  " style="fill:rgb(158, 81, 47); fill-opacity:1.000; stroke:none;" />
 <path d="  M 35,16  L 35,17  L 29,17  L 29,18  L 34,18  L 34,19  L 35,19  L 35,18  L 36,18  L 36,17  L 38,17  L 38,18  L 39,18  L 39,16  Z  " style="fill:rgb(158, 81, 47); fill-opacity:1.000; stroke:none;" />
 <path d="  M 34,28  L 31,28  L 31,29  L 29,29  L 29,30  L 32,30  L 32,29  L 34,29  Z  " style="fill:rgb(158, 81, 47); fill-opacity:1.000; stroke:none;" />
 <path d="  M 32,42  L 34,42  L 34,41  L 32,41  Z  " style="fill:rgb(158, 81, 47); fill-opacity:1.000; stroke:none;" />
 <path d="  M 41,31  L 41,30  L 34,30  L 34,31  L 36,31  L 36,32  L 38,32  L 38,31  L 40,31  L 40,32  L 45,32  L 45,33  L 48,33  L 48,32  L 49,32  L 49,31  L 47,31  L 47,32  L 46,32  L 46,31  Z  " style="fill:rgb(158, 81, 47); fill-opacity:1.000; stroke:none;" />
 <path d="  M 39,19  L 35,19  L 35,20  L 39,20  Z  " style="fill:rgb(158, 81, 47); fill-opacity:1.000; stroke:none;" />
 <path d="  M 36,27  L 36,28  L 39,28  L 39,27  Z  " style="fill:rgb(158, 81, 47); fill-opacity:1.000; stroke:none;" />
 <path d="  M 46,21  L 46,20  L 39,20  L 39,21  Z  " style="fill:rgb(158, 81, 47); fill-opacity:1.000; stroke:none;" />
 <path d="  M 48,27  L 46,27  L 46,26  L 41,26  L 41,27  L 44,27  L 44,28  L 39,28  L 39,29  L 46,29  L 46,28  L 48,28  Z  " style="fill:rgb(158, 81, 47); fill-opacity:1.000; stroke:none;" />
 <path d="  M 46,41  L 46,40  L 40,40  L 40,41  Z  " style="fill:rgb(158, 81, 47); fill-opacity:1.000; stroke:none;" />
 <path d="  M 40,43  L 40,44  L 41,44  L 41,43  Z  " style="fill:rgb(158, 81, 47); fill-opacity:1.000; stroke:none;" />
 <path d="  M 28,35  L 28,34  L 25,34  L 25,33  L 24,33  L 24,34  L 21,34  L 21,33  L 15,33  L 15,34  L 20,34  L 20,35  Z  " style="fill:rgb(172, 93, 49); fill-opacity:1.000; stroke:none;" />
 <path d="  M 16,27  L 16,28  L 17,28  L 17,27  Z  " style="fill:rgb(172, 93, 49); fill-opacity:1.000; stroke:none;" />
 <path d="  M 16,39  L 16,40  L 17,40  L 17,41  L 18,41  L 18,39  Z  " style="fill:rgb(172, 93, 49); fill-opacity:1.000; stroke:none;" />
 <path d="  M 23,25  L 23,24  L 17,24  L 17,25  Z  " style="fill:rgb(172, 93, 49); fill-opacity:1.000; stroke:none;" />
 <path d="  M 20,20  L 18,20  L 18,21  L 20,21  Z  " style="fill:rgb(172, 93, 49); fill-opacity:1.000; stroke:none;" />
 <path d="  M 21,29  L 21,28  L 27,28  L 27,29  L 31,29  L 31,28  L 34,28  L 34,29  L 33,29  L 33,31  L 34,31  L 34,30  L 37,30  L 37,29  L 36,29  L 36,28  L 35,28  L 35,27  L 30,27  L 30,28  L 28,28  L 28,27  L 20,27  L 20,28  L 18,28  L 18,29  Z  " style="fill:rgb(172, 93, 49); fill-opacity:1.000; stroke:none;" />
 <path d="  M 23,38  L 26,38  L 26,37  L 24,37  L 24,36  L 18,36  L 18,37  L 23,37  Z  " style="fill:rgb(172, 93, 49); fill-opacity:1.000; stroke:none;" />
 <path d="  M 18,41  L 18,42  L 23,42  L 23,41  Z  " style="fill:rgb(172, 93, 49); fill-opacity:1.000; stroke:none;" />
 <path d="  M 20,21  L 20,22  L 24,22  L 24,23  L 26,23  L 26,22  L 25,22  L 25,21  Z  " style="fill:rgb(172, 93, 49); fill-opacity:1.000; stroke:none;" />
 <path d="  M 20,43  L 20,44  L 22,44  L 22,43  Z  " style="fill:rgb(172, 93, 49); fill-opacity:1.000; stroke:none;" />
 <path d="  M 29,18  L 29,17  L 23,17  L 23,18  Z  " style="fill:rgb(172, 93, 49); fill-opacity:1.000; stroke:none;" />
 <path d="  M 25,47  L 25,46  L 23,46  L 23,47  Z  " style="fill:rgb(172, 93, 49); fill-opacity:1.000; stroke:none;" />
 <path d="  M 24,41  L 28,41  L 28,40  L 24,40  Z  " style="fill:rgb(172, 93, 49); fill-opacity:1.000; stroke:none;" />
 <path d="  M 32,25  L 32,24  L 25,24  L 25,25  Z  " style="fill:rgb(172, 93, 49); fill-opacity:1.000; stroke:none;" />
 <path d="  M 25,32  L 25,33  L 30,33  L 30,32  Z  " style="fill:rgb(172, 93, 49); fill-opacity:1.000; stroke:none;" />
 <path d="  M 26,38  L 26,39  L 28,39  L 28,38  L 31,38  L 31,37  L 27,37  L 27,38  Z  " style="fill:rgb(172, 93, 49); fill-opacity:1.000; stroke:none;" />
 <path d="  M 30,43  L 30,42  L 26,42  L 26,44  L 27,44  L 27,43  Z  " style="fill:rgb(172, 93, 49); fill-opacity:1.000; stroke:none;" />
 <path d="  M 35,49  L 35,48  L 29,48  L 29,47  L 26,47  L 26,48  L 28,48  L 28,49  Z  " style="fill:rgb(172, 93, 49); fill-opacity:1.000; stroke:none;" />
 <path d="  M 32,22  L 32,21  L 28,21  L 28,22  Z  " style="fill:rgb(172, 93, 49); fill-opacity:1.000; stroke:none;" />
 <path d="  M 35,17  L 35,16  L 30,16  L 30,17  Z  " style="fill:rgb(172, 93, 49); fill-opacity:1.000; stroke:none;" />
 <path d="  M 32,19  L 31,19  L 31,20  L 32,20  Z  " style="fill:rgb(172, 93, 49); fill-opacity:1.000; stroke:none;" />
 <path d="  M 32,40  L 32,39  L 31,39  L 31,40  Z  " style="fill:rgb(172, 93, 49); fill-opacity:1.000; stroke:none;" />
 <path d="  M 35,20  L 32,20  L 32,21  L 35,21  Z  " style="fill:rgb(172, 93, 49); fill-opacity:1.000; stroke:none;" />
 <path d="  M 32,32  L 32,33  L 40,33  L 40,32  Z  " style="fill:rgb(172, 93, 49); fill-opacity:1.000; stroke:none;" />
 <path d="  M 36,41  L 36,40  L 32,40  L 32,41  L 35,41  L 35,42  L 41,42  L 41,41  Z  " style="fill:rgb(172, 93, 49); fill-opacity:1.000; stroke:none;" />
 <path d="  M 41,47  L 41,46  L 34,46  L 34,47  Z  " style="fill:rgb(172, 93, 49); fill-opacity:1.000; stroke:none;" />
 <path d="  M 35,21  L 35,22  L 37,22  L 37,21  Z  " style="fill:rgb(172, 93, 49); fill-opacity:1.000; stroke:none;" />
 <path d="  M 35,36  L 35,37  L 38,37  L 38,36  Z  " style="fill:rgb(172, 93, 49); fill-opacity:1.000; stroke:none;" />
 <path d="  M 37,18  L 37,17  L 36,17  L 36,18  Z  " style="fill:rgb(172, 93, 49); fill-opacity:1.000; stroke:none;" />
 <path d="  M 37,20  L 37,21  L 39,21  L 39,20  Z  " style="fill:rgb(172, 93, 49); fill-opacity:1.000; stroke:none;" />
 <path d="  M 41,26  L 41,25  L 37,25  L 37,26  Z  " style="fill:rgb(172, 93, 49); fill-opacity:1.000; stroke:none;" />
 <path d="  M 39,19  L 39,20  L 40,20  L 40,19  Z  " style="fill:rgb(172, 93, 49); fill-opacity:1.000; stroke:none;" />
 <path d="  M 43,37  L 43,36  L 41,36  L 41,35  L 39,35  L 39,36  L 40,36  L 40,37  Z  " style="fill:rgb(172, 93, 49); fill-opacity:1.000; stroke:none;" />
 <path d="  M 45,19  L 43,19  L 43,18  L 40,18  L 40,19  L 42,19  L 42,20  L 45,20  Z  " style="fill:rgb(172, 93, 49); fill-opacity:1.000; stroke:none;" />
 <path d="  M 41,30  L 41,31  L 46,31  L 46,30  Z  " style="fill:rgb(172, 93, 49); fill-opacity:1.000; stroke:none;" />
 <path d="  M 41,39  L 41,40  L 48,40  L 48,39  Z  " style="fill:rgb(172, 93, 49); fill-opacity:1.000; stroke:none;" />
 <path d="  M 45,44  L 45,43  L 46,43  L 46,41  L 45,41  L 45,42  L 44,42  L 44,43  L 41,43  L 41,44  Z  " style="fill:rgb(172, 93, 49); fill-opacity:1.000; stroke:none;" />
 <path d="  M 42,24  L 43,24  L 43,23  L 42,23  Z  " style="fill:rgb(172, 93, 49); fill-opacity:1.000; stroke:none;" />
 <path d="  M 43,33  L 43,34  L 46,34  L 46,33  Z  " style="fill:rgb(172, 93, 49); fill-opacity:1.000; stroke:none;" />
 <path d="  M 48,25  L 48,24  L 45,24  L 45,25  Z  " style="fill:rgb(172, 93, 49); fill-opacity:1.000; stroke:none;" />
 <path d="  M 49,33  L 49,32  L 48,32  L 48,33  Z  " style="fill:rgb(172, 93, 49); fill-opacity:1.000; stroke:none;" />
 <path d="  M 24,64  L 24,63  L 16,63  L 16,64  Z  " style="fill:rgb(51, 45, 42); fill-opacity:1.000; stroke:none;" />
 <path d="  M 63,4  L 64,4  L 64,0  L 60,0  L 60,1  L 62,1  L 62,2  L 63,2  Z  " style="fill:rgb(39, 34, 32); fill-opacity:1.000; stroke:none;" />
</svg>
