<?xml version="1.0" encoding="UTF-8" standalone="no"?>
<!DOCTYPE svg PUBLIC "-//W3C//DTD SVG 1.1//EN" 
  "http://www.w3.org/Graphics/SVG/1.1/DTD/svg11.dtd">
<svg width="64" height="64"
	 xmlns="http://www.w3.org/2000/svg" version="1.1">
 <path d="  M 15,51  L 16,51  L 16,50  L 15,50  Z  " style="fill:rgb(255, 253, 213); fill-opacity:1.000; stroke:none;" />
 <path d="  M 16,51  L 16,52  L 17,52  L 17,51  Z  " style="fill:rgb(255, 253, 213); fill-opacity:1.000; stroke:none;" />
 <path d="  M 17,53  L 18,53  L 18,52  L 17,52  Z  " style="fill:rgb(255, 253, 213); fill-opacity:1.000; stroke:none;" />
 <path d="  M 18,54  L 19,54  L 19,53  L 18,53  Z  " style="fill:rgb(255, 253, 213); fill-opacity:1.000; stroke:none;" />
 <path d="  M 19,54  L 19,55  L 20,55  L 20,54  Z  " style="fill:rgb(255, 253, 213); fill-opacity:1.000; stroke:none;" />
 <path d="  M 32,42  L 32,38  L 31,38  L 31,39  L 30,39  L 30,40  L 29,40  L 29,41  L 27,41  L 27,42  Z  " style="fill:rgb(255, 253, 213); fill-opacity:1.000; stroke:none;" />
 <path d="  M 44,56  L 44,55  L 43,55  L 43,56  Z  " style="fill:rgb(255, 253, 213); fill-opacity:1.000; stroke:none;" />
 <path d="  M 44,55  L 45,55  L 45,54  L 44,54  Z  " style="fill:rgb(255, 253, 213); fill-opacity:1.000; stroke:none;" />
 <path d="  M 45,53  L 45,54  L 46,54  L 46,53  Z  " style="fill:rgb(255, 253, 213); fill-opacity:1.000; stroke:none;" />
 <path d="  M 46,53  L 47,53  L 47,52  L 46,52  Z  " style="fill:rgb(255, 253, 213); fill-opacity:1.000; stroke:none;" />
 <path d="  M 47,52  L 48,52  L 48,51  L 47,51  Z  " style="fill:rgb(255, 253, 213); fill-opacity:1.000; stroke:none;" />
 <path d="  M 49,50  L 48,50  L 48,51  L 49,51  Z  " style="fill:rgb(255, 253, 213); fill-opacity:1.000; stroke:none;" />
 <path d="  M 17,56  L 17,55  L 16,55  L 16,51  L 15,51  L 15,56  L 16,56  L 16,57  L 17,57  L 17,58  L 18,58  L 18,56  Z  " style="fill:rgb(207, 160, 243); fill-opacity:1.000; stroke:none;" />
 <path d="  M 20,50  L 16,50  L 16,51  L 18,51  L 18,52  L 20,52  L 20,53  L 21,53  L 21,54  L 23,54  L 23,53  L 22,53  L 22,52  L 21,52  L 21,51  L 20,51  Z  " style="fill:rgb(207, 160, 243); fill-opacity:1.000; stroke:none;" />
 <path d="  M 19,58  L 18,58  L 18,59  L 19,59  Z  " style="fill:rgb(207, 160, 243); fill-opacity:1.000; stroke:none;" />
 <path d="  M 20,60  L 20,59  L 19,59  L 19,60  Z  " style="fill:rgb(207, 160, 243); fill-opacity:1.000; stroke:none;" />
 <path d="  M 24,55  L 24,54  L 23,54  L 23,55  Z  " style="fill:rgb(207, 160, 243); fill-opacity:1.000; stroke:none;" />
 <path d="  M 24,42  L 24,45  L 25,45  L 25,44  L 26,44  L 26,43  L 27,43  L 27,42  Z  " style="fill:rgb(207, 160, 243); fill-opacity:1.000; stroke:none;" />
 <path d="  M 25,55  L 24,55  L 24,56  L 25,56  Z  " style="fill:rgb(207, 160, 243); fill-opacity:1.000; stroke:none;" />
 <path d="  M 32,42  L 30,42  L 30,46  L 31,46  L 31,50  L 32,50  Z  " style="fill:rgb(207, 160, 243); fill-opacity:1.000; stroke:none;" />
 <path d="  M 32,60  L 31,60  L 31,64  L 32,64  Z  " style="fill:rgb(207, 160, 243); fill-opacity:1.000; stroke:none;" />
 <path d="  M 32,34  L 32,35  L 33,35  L 33,34  Z  " style="fill:rgb(207, 160, 243); fill-opacity:1.000; stroke:none;" />
 <path d="  M 32,42  L 36,42  L 36,41  L 35,41  L 35,40  L 34,40  L 34,39  L 33,39  L 33,38  L 32,38  Z  " style="fill:rgb(207, 160, 243); fill-opacity:1.000; stroke:none;" />
 <path d="  M 34,36  L 34,35  L 33,35  L 33,36  Z  " style="fill:rgb(207, 160, 243); fill-opacity:1.000; stroke:none;" />
 <path d="  M 34,37  L 35,37  L 35,36  L 34,36  Z  " style="fill:rgb(207, 160, 243); fill-opacity:1.000; stroke:none;" />
 <path d="  M 36,37  L 35,37  L 35,38  L 36,38  Z  " style="fill:rgb(207, 160, 243); fill-opacity:1.000; stroke:none;" />
 <path d="  M 36,39  L 37,39  L 37,38  L 36,38  Z  " style="fill:rgb(207, 160, 243); fill-opacity:1.000; stroke:none;" />
 <path d="  M 37,40  L 38,40  L 38,39  L 37,39  Z  " style="fill:rgb(207, 160, 243); fill-opacity:1.000; stroke:none;" />
 <path d="  M 39,40  L 38,40  L 38,41  L 39,41  Z  " style="fill:rgb(207, 160, 243); fill-opacity:1.000; stroke:none;" />
 <path d="  M 39,60  L 38,60  L 38,61  L 39,61  Z  " style="fill:rgb(207, 160, 243); fill-opacity:1.000; stroke:none;" />
 <path d="  M 39,41  L 39,42  L 40,42  L 40,41  Z  " style="fill:rgb(207, 160, 243); fill-opacity:1.000; stroke:none;" />
 <path d="  M 40,56  L 40,55  L 39,55  L 39,56  Z  " style="fill:rgb(207, 160, 243); fill-opacity:1.000; stroke:none;" />
 <path d="  M 40,59  L 39,59  L 39,60  L 40,60  Z  " style="fill:rgb(207, 160, 243); fill-opacity:1.000; stroke:none;" />
 <path d="  M 41,54  L 40,54  L 40,55  L 41,55  Z  " style="fill:rgb(207, 160, 243); fill-opacity:1.000; stroke:none;" />
 <path d="  M 47,52  L 47,51  L 48,51  L 48,50  L 44,50  L 44,51  L 43,51  L 43,52  L 42,52  L 42,53  L 41,53  L 41,54  L 43,54  L 43,53  L 45,53  L 45,52  Z  " style="fill:rgb(207, 160, 243); fill-opacity:1.000; stroke:none;" />
 <path d="  M 44,60  L 45,60  L 45,59  L 44,59  Z  " style="fill:rgb(207, 160, 243); fill-opacity:1.000; stroke:none;" />
 <path d="  M 45,58  L 45,59  L 46,59  L 46,58  Z  " style="fill:rgb(207, 160, 243); fill-opacity:1.000; stroke:none;" />
 <path d="  M 48,55  L 47,55  L 47,56  L 46,56  L 46,58  L 47,58  L 47,57  L 48,57  L 48,56  L 49,56  L 49,51  L 48,51  Z  " style="fill:rgb(207, 160, 243); fill-opacity:1.000; stroke:none;" />
 <path d="  M 16,55  L 17,55  L 17,56  L 18,56  L 18,58  L 19,58  L 19,56  L 20,56  L 20,55  L 19,55  L 19,54  L 17,54  L 17,52  L 16,52  Z  " style="fill:rgb(141, 106, 204); fill-opacity:1.000; stroke:none;" />
 <path d="  M 20,58  L 19,58  L 19,59  L 20,59  Z  " style="fill:rgb(141, 106, 204); fill-opacity:1.000; stroke:none;" />
 <path d="  M 19,60  L 19,61  L 20,61  L 20,60  Z  " style="fill:rgb(141, 106, 204); fill-opacity:1.000; stroke:none;" />
 <path d="  M 21,53  L 20,53  L 20,54  L 21,54  Z  " style="fill:rgb(141, 106, 204); fill-opacity:1.000; stroke:none;" />
 <path d="  M 20,56  L 20,57  L 21,57  L 21,56  Z  " style="fill:rgb(141, 106, 204); fill-opacity:1.000; stroke:none;" />
 <path d="  M 22,55  L 21,55  L 21,56  L 22,56  Z  " style="fill:rgb(141, 106, 204); fill-opacity:1.000; stroke:none;" />
 <path d="  M 22,58  L 22,57  L 21,57  L 21,58  Z  " style="fill:rgb(141, 106, 204); fill-opacity:1.000; stroke:none;" />
 <path d="  M 22,56  L 22,57  L 23,57  L 23,56  Z  " style="fill:rgb(141, 106, 204); fill-opacity:1.000; stroke:none;" />
 <path d="  M 23,62  L 22,62  L 22,63  L 23,63  Z  " style="fill:rgb(141, 106, 204); fill-opacity:1.000; stroke:none;" />
 <path d="  M 24,57  L 25,57  L 25,56  L 24,56  Z  " style="fill:rgb(141, 106, 204); fill-opacity:1.000; stroke:none;" />
 <path d="  M 24,59  L 24,60  L 25,60  L 25,59  Z  " style="fill:rgb(141, 106, 204); fill-opacity:1.000; stroke:none;" />
 <path d="  M 25,58  L 26,58  L 26,57  L 25,57  Z  " style="fill:rgb(141, 106, 204); fill-opacity:1.000; stroke:none;" />
 <path d="  M 31,46  L 30,46  L 30,42  L 28,42  L 28,43  L 27,43  L 27,44  L 26,44  L 26,46  L 27,46  L 27,48  L 26,48  L 26,50  L 27,50  L 27,51  L 28,51  L 28,52  L 27,52  L 27,53  L 28,53  L 28,54  L 30,54  L 30,53  L 31,53  Z  M 27,45  L 28,45  L 28,46  L 27,46  Z  M 28,50  L 27,50  L 27,49  L 28,49  Z  " style="fill:rgb(141, 106, 204); fill-opacity:1.000; stroke:none;" />
 <path d="  M 27,59  L 27,58  L 26,58  L 26,59  Z  " style="fill:rgb(141, 106, 204); fill-opacity:1.000; stroke:none;" />
 <path d="  M 27,56  L 28,56  L 28,55  L 27,55  Z  " style="fill:rgb(141, 106, 204); fill-opacity:1.000; stroke:none;" />
 <path d="  M 28,57  L 29,57  L 29,56  L 28,56  Z  " style="fill:rgb(141, 106, 204); fill-opacity:1.000; stroke:none;" />
 <path d="  M 28,58  L 28,59  L 29,59  L 29,58  Z  " style="fill:rgb(141, 106, 204); fill-opacity:1.000; stroke:none;" />
 <path d="  M 30,59  L 31,59  L 31,60  L 32,60  L 32,58  L 33,58  L 33,56  L 32,56  L 32,57  L 31,57  L 31,56  L 30,56  L 30,57  L 29,57  L 29,58  L 30,58  Z  " style="fill:rgb(141, 106, 204); fill-opacity:1.000; stroke:none;" />
 <path d="  M 30,55  L 31,55  L 31,54  L 30,54  Z  " style="fill:rgb(141, 106, 204); fill-opacity:1.000; stroke:none;" />
 <path d="  M 36,45  L 35,45  L 35,44  L 34,44  L 34,42  L 32,42  L 32,55  L 33,55  L 33,54  L 34,54  L 34,53  L 35,53  L 35,52  L 36,52  L 36,50  L 35,50  L 35,49  L 34,49  L 34,48  L 35,48  L 35,47  L 36,47  Z  M 34,52  L 34,51  L 35,51  L 35,52  Z  M 33,45  L 33,44  L 34,44  L 34,45  Z  " style="fill:rgb(141, 106, 204); fill-opacity:1.000; stroke:none;" />
 <path d="  M 32,62  L 33,62  L 33,60  L 32,60  Z  " style="fill:rgb(141, 106, 204); fill-opacity:1.000; stroke:none;" />
 <path d="  M 33,55  L 33,56  L 34,56  L 34,55  Z  " style="fill:rgb(141, 106, 204); fill-opacity:1.000; stroke:none;" />
 <path d="  M 34,62  L 35,62  L 35,61  L 34,61  Z  " style="fill:rgb(141, 106, 204); fill-opacity:1.000; stroke:none;" />
 <path d="  M 36,45  L 37,45  L 37,43  L 36,43  Z  " style="fill:rgb(141, 106, 204); fill-opacity:1.000; stroke:none;" />
 <path d="  M 38,59  L 38,58  L 36,58  L 36,59  Z  " style="fill:rgb(141, 106, 204); fill-opacity:1.000; stroke:none;" />
 <path d="  M 37,62  L 38,62  L 38,61  L 37,61  Z  " style="fill:rgb(141, 106, 204); fill-opacity:1.000; stroke:none;" />
 <path d="  M 38,58  L 39,58  L 39,57  L 38,57  Z  " style="fill:rgb(141, 106, 204); fill-opacity:1.000; stroke:none;" />
 <path d="  M 39,59  L 38,59  L 38,60  L 39,60  Z  " style="fill:rgb(141, 106, 204); fill-opacity:1.000; stroke:none;" />
 <path d="  M 42,57  L 42,56  L 43,56  L 43,55  L 41,55  L 41,56  L 39,56  L 39,57  L 40,57  L 40,58  L 41,58  L 41,57  Z  " style="fill:rgb(141, 106, 204); fill-opacity:1.000; stroke:none;" />
 <path d="  M 40,59  L 40,58  L 39,58  L 39,59  Z  " style="fill:rgb(141, 106, 204); fill-opacity:1.000; stroke:none;" />
 <path d="  M 39,61  L 40,61  L 40,60  L 39,60  Z  " style="fill:rgb(141, 106, 204); fill-opacity:1.000; stroke:none;" />
 <path d="  M 41,59  L 40,59  L 40,60  L 41,60  Z  " style="fill:rgb(141, 106, 204); fill-opacity:1.000; stroke:none;" />
 <path d="  M 42,59  L 42,58  L 41,58  L 41,59  Z  " style="fill:rgb(141, 106, 204); fill-opacity:1.000; stroke:none;" />
 <path d="  M 42,62  L 41,62  L 41,64  L 42,64  Z  " style="fill:rgb(141, 106, 204); fill-opacity:1.000; stroke:none;" />
 <path d="  M 42,58  L 43,58  L 43,57  L 42,57  Z  " style="fill:rgb(141, 106, 204); fill-opacity:1.000; stroke:none;" />
 <path d="  M 43,56  L 43,57  L 44,57  L 44,58  L 46,58  L 46,56  L 47,56  L 47,55  L 48,55  L 48,53  L 47,53  L 47,54  L 46,54  L 46,55  L 45,55  L 45,56  Z  " style="fill:rgb(141, 106, 204); fill-opacity:1.000; stroke:none;" />
 <path d="  M 45,60  L 44,60  L 44,61  L 45,61  Z  " style="fill:rgb(141, 106, 204); fill-opacity:1.000; stroke:none;" />
 <path d="  M 18,52  L 18,51  L 17,51  L 17,52  Z  " style="fill:rgb(179, 142, 243); fill-opacity:1.000; stroke:none;" />
 <path d="  M 18,53  L 17,53  L 17,54  L 18,54  Z  " style="fill:rgb(179, 142, 243); fill-opacity:1.000; stroke:none;" />
 <path d="  M 20,52  L 18,52  L 18,53  L 19,53  L 19,54  L 20,54  Z  " style="fill:rgb(179, 142, 243); fill-opacity:1.000; stroke:none;" />
 <path d="  M 21,54  L 20,54  L 20,55  L 21,55  Z  " style="fill:rgb(179, 142, 243); fill-opacity:1.000; stroke:none;" />
 <path d="  M 20,61  L 21,61  L 21,60  L 20,60  Z  " style="fill:rgb(179, 142, 243); fill-opacity:1.000; stroke:none;" />
 <path d="  M 22,62  L 22,61  L 21,61  L 21,62  Z  " style="fill:rgb(179, 142, 243); fill-opacity:1.000; stroke:none;" />
 <path d="  M 23,55  L 23,54  L 22,54  L 22,55  Z  " style="fill:rgb(179, 142, 243); fill-opacity:1.000; stroke:none;" />
 <path d="  M 24,55  L 23,55  L 23,56  L 24,56  Z  " style="fill:rgb(179, 142, 243); fill-opacity:1.000; stroke:none;" />
 <path d="  M 23,59  L 24,59  L 24,58  L 23,58  Z  " style="fill:rgb(179, 142, 243); fill-opacity:1.000; stroke:none;" />
 <path d="  M 24,45  L 24,46  L 25,46  L 25,45  Z  " style="fill:rgb(179, 142, 243); fill-opacity:1.000; stroke:none;" />
 <path d="  M 25,45  L 26,45  L 26,44  L 25,44  Z  " style="fill:rgb(179, 142, 243); fill-opacity:1.000; stroke:none;" />
 <path d="  M 26,56  L 25,56  L 25,57  L 26,57  Z  " style="fill:rgb(179, 142, 243); fill-opacity:1.000; stroke:none;" />
 <path d="  M 27,44  L 27,43  L 26,43  L 26,44  Z  " style="fill:rgb(179, 142, 243); fill-opacity:1.000; stroke:none;" />
 <path d="  M 26,57  L 26,58  L 27,58  L 27,57  Z  " style="fill:rgb(179, 142, 243); fill-opacity:1.000; stroke:none;" />
 <path d="  M 28,42  L 27,42  L 27,43  L 28,43  Z  " style="fill:rgb(179, 142, 243); fill-opacity:1.000; stroke:none;" />
 <path d="  M 27,58  L 27,59  L 28,59  L 28,58  Z  " style="fill:rgb(179, 142, 243); fill-opacity:1.000; stroke:none;" />
 <path d="  M 29,59  L 28,59  L 28,60  L 29,60  Z  " style="fill:rgb(179, 142, 243); fill-opacity:1.000; stroke:none;" />
 <path d="  M 31,57  L 32,57  L 32,50  L 31,50  Z  " style="fill:rgb(179, 142, 243); fill-opacity:1.000; stroke:none;" />
 <path d="  M 39,41  L 38,41  L 38,40  L 37,40  L 37,39  L 36,39  L 36,38  L 35,38  L 35,37  L 34,37  L 34,36  L 33,36  L 33,35  L 32,35  L 32,38  L 33,38  L 33,39  L 34,39  L 34,40  L 35,40  L 35,41  L 36,41  L 36,42  L 39,42  Z  " style="fill:rgb(179, 142, 243); fill-opacity:1.000; stroke:none;" />
 <path d="  M 37,57  L 37,58  L 38,58  L 38,57  Z  " style="fill:rgb(179, 142, 243); fill-opacity:1.000; stroke:none;" />
 <path d="  M 39,57  L 39,56  L 38,56  L 38,57  Z  " style="fill:rgb(179, 142, 243); fill-opacity:1.000; stroke:none;" />
 <path d="  M 40,56  L 41,56  L 41,55  L 40,55  Z  " style="fill:rgb(179, 142, 243); fill-opacity:1.000; stroke:none;" />
 <path d="  M 45,53  L 43,53  L 43,54  L 41,54  L 41,55  L 44,55  L 44,54  L 45,54  Z  " style="fill:rgb(179, 142, 243); fill-opacity:1.000; stroke:none;" />
 <path d="  M 42,61  L 42,62  L 43,62  L 43,61  Z  " style="fill:rgb(179, 142, 243); fill-opacity:1.000; stroke:none;" />
 <path d="  M 44,60  L 43,60  L 43,61  L 44,61  Z  " style="fill:rgb(179, 142, 243); fill-opacity:1.000; stroke:none;" />
 <path d="  M 45,56  L 45,55  L 44,55  L 44,56  Z  " style="fill:rgb(179, 142, 243); fill-opacity:1.000; stroke:none;" />
 <path d="  M 46,53  L 46,52  L 45,52  L 45,53  Z  " style="fill:rgb(179, 142, 243); fill-opacity:1.000; stroke:none;" />
 <path d="  M 46,54  L 45,54  L 45,55  L 46,55  Z  " style="fill:rgb(179, 142, 243); fill-opacity:1.000; stroke:none;" />
 <path d="  M 47,53  L 46,53  L 46,54  L 47,54  Z  " style="fill:rgb(179, 142, 243); fill-opacity:1.000; stroke:none;" />
 <path d="  M 48,52  L 47,52  L 47,53  L 48,53  Z  " style="fill:rgb(179, 142, 243); fill-opacity:1.000; stroke:none;" />
 <path d="  M 23,58  L 21,58  L 21,57  L 20,57  L 20,56  L 19,56  L 19,58  L 20,58  L 20,59  L 21,59  L 21,60  L 22,60  L 22,61  L 23,61  L 23,60  L 24,60  L 24,59  L 23,59  Z  " style="fill:rgb(122, 91, 181); fill-opacity:1.000; stroke:none;" />
 <path d="  M 20,61  L 20,62  L 21,62  L 21,61  Z  " style="fill:rgb(122, 91, 181); fill-opacity:1.000; stroke:none;" />
 <path d="  M 21,55  L 22,55  L 22,54  L 21,54  Z  " style="fill:rgb(122, 91, 181); fill-opacity:1.000; stroke:none;" />
 <path d="  M 22,63  L 22,62  L 21,62  L 21,63  Z  " style="fill:rgb(122, 91, 181); fill-opacity:1.000; stroke:none;" />
 <path d="  M 22,56  L 23,56  L 23,55  L 22,55  Z  " style="fill:rgb(122, 91, 181); fill-opacity:1.000; stroke:none;" />
 <path d="  M 27,61  L 27,60  L 28,60  L 28,59  L 26,59  L 26,58  L 25,58  L 25,57  L 24,57  L 24,56  L 23,56  L 23,58  L 24,58  L 24,59  L 25,59  L 25,60  L 24,60  L 24,61  Z  " style="fill:rgb(122, 91, 181); fill-opacity:1.000; stroke:none;" />
 <path d="  M 26,56  L 27,56  L 27,55  L 28,55  L 28,56  L 29,56  L 29,57  L 30,57  L 30,56  L 31,56  L 31,55  L 30,55  L 30,54  L 28,54  L 28,53  L 27,53  L 27,52  L 28,52  L 28,51  L 27,51  L 27,50  L 26,50  L 26,48  L 27,48  L 27,46  L 26,46  L 26,45  L 25,45  L 25,51  L 26,51  Z  " style="fill:rgb(122, 91, 181); fill-opacity:1.000; stroke:none;" />
 <path d="  M 26,63  L 26,62  L 25,62  L 25,63  Z  " style="fill:rgb(122, 91, 181); fill-opacity:1.000; stroke:none;" />
 <path d="  M 26,63  L 26,64  L 27,64  L 27,63  Z  " style="fill:rgb(122, 91, 181); fill-opacity:1.000; stroke:none;" />
 <path d="  M 28,46  L 28,45  L 27,45  L 27,46  Z  " style="fill:rgb(122, 91, 181); fill-opacity:1.000; stroke:none;" />
 <path d="  M 28,49  L 27,49  L 27,50  L 28,50  Z  " style="fill:rgb(122, 91, 181); fill-opacity:1.000; stroke:none;" />
 <path d="  M 28,56  L 27,56  L 27,57  L 28,57  Z  " style="fill:rgb(122, 91, 181); fill-opacity:1.000; stroke:none;" />
 <path d="  M 30,61  L 30,60  L 28,60  L 28,61  L 27,61  L 27,62  L 29,62  L 29,61  Z  " style="fill:rgb(122, 91, 181); fill-opacity:1.000; stroke:none;" />
 <path d="  M 29,57  L 28,57  L 28,58  L 29,58  Z  " style="fill:rgb(122, 91, 181); fill-opacity:1.000; stroke:none;" />
 <path d="  M 30,58  L 29,58  L 29,59  L 30,59  Z  " style="fill:rgb(122, 91, 181); fill-opacity:1.000; stroke:none;" />
 <path d="  M 30,53  L 30,54  L 31,54  L 31,53  Z  " style="fill:rgb(122, 91, 181); fill-opacity:1.000; stroke:none;" />
 <path d="  M 30,60  L 31,60  L 31,59  L 30,59  Z  " style="fill:rgb(122, 91, 181); fill-opacity:1.000; stroke:none;" />
 <path d="  M 32,56  L 33,56  L 33,55  L 32,55  Z  " style="fill:rgb(122, 91, 181); fill-opacity:1.000; stroke:none;" />
 <path d="  M 33,61  L 34,61  L 34,59  L 33,59  L 33,58  L 32,58  L 32,60  L 33,60  Z  " style="fill:rgb(122, 91, 181); fill-opacity:1.000; stroke:none;" />
 <path d="  M 34,45  L 34,44  L 33,44  L 33,45  Z  " style="fill:rgb(122, 91, 181); fill-opacity:1.000; stroke:none;" />
 <path d="  M 37,53  L 37,50  L 36,50  L 36,52  L 35,52  L 35,53  L 34,53  L 34,54  L 33,54  L 33,55  L 34,55  L 34,56  L 33,56  L 33,58  L 34,58  L 34,57  L 35,57  L 35,56  L 36,56  L 36,55  L 35,55  L 35,54  L 36,54  L 36,53  Z  " style="fill:rgb(122, 91, 181); fill-opacity:1.000; stroke:none;" />
 <path d="  M 34,42  L 34,44  L 35,44  L 35,45  L 36,45  L 36,43  L 37,43  L 37,42  Z  " style="fill:rgb(122, 91, 181); fill-opacity:1.000; stroke:none;" />
 <path d="  M 36,47  L 35,47  L 35,48  L 34,48  L 34,49  L 35,49  L 35,50  L 36,50  L 36,49  L 37,49  L 37,48  L 38,48  L 38,47  L 37,47  L 37,46  L 38,46  L 38,43  L 37,43  L 37,45  L 36,45  Z  " style="fill:rgb(122, 91, 181); fill-opacity:1.000; stroke:none;" />
 <path d="  M 35,52  L 35,51  L 34,51  L 34,52  Z  " style="fill:rgb(122, 91, 181); fill-opacity:1.000; stroke:none;" />
 <path d="  M 38,60  L 36,60  L 36,59  L 35,59  L 35,61  L 36,61  L 36,62  L 37,62  L 37,61  L 38,61  Z  " style="fill:rgb(122, 91, 181); fill-opacity:1.000; stroke:none;" />
 <path d="  M 38,56  L 37,56  L 37,57  L 38,57  Z  " style="fill:rgb(122, 91, 181); fill-opacity:1.000; stroke:none;" />
 <path d="  M 37,63  L 39,63  L 39,62  L 40,62  L 40,61  L 38,61  L 38,62  L 37,62  Z  " style="fill:rgb(122, 91, 181); fill-opacity:1.000; stroke:none;" />
 <path d="  M 39,58  L 38,58  L 38,59  L 39,59  Z  " style="fill:rgb(122, 91, 181); fill-opacity:1.000; stroke:none;" />
 <path d="  M 40,57  L 39,57  L 39,58  L 40,58  Z  " style="fill:rgb(122, 91, 181); fill-opacity:1.000; stroke:none;" />
 <path d="  M 44,59  L 45,59  L 45,58  L 44,58  L 44,57  L 43,57  L 43,58  L 42,58  L 42,59  L 41,59  L 41,60  L 40,60  L 40,61  L 41,61  L 41,62  L 42,62  L 42,61  L 43,61  L 43,60  L 44,60  Z  " style="fill:rgb(122, 91, 181); fill-opacity:1.000; stroke:none;" />
 <path d="  M 41,62  L 40,62  L 40,63  L 41,63  Z  " style="fill:rgb(122, 91, 181); fill-opacity:1.000; stroke:none;" />
 <path d="  M 42,63  L 43,63  L 43,62  L 42,62  Z  " style="fill:rgb(122, 91, 181); fill-opacity:1.000; stroke:none;" />
 <path d="  M 43,62  L 44,62  L 44,61  L 43,61  Z  " style="fill:rgb(122, 91, 181); fill-opacity:1.000; stroke:none;" />
 <path d="  M 20,56  L 21,56  L 21,55  L 20,55  Z  " style="fill:rgb(254, 203, 230); fill-opacity:1.000; stroke:none;" />
 <path d="  M 21,56  L 21,57  L 22,57  L 22,56  Z  " style="fill:rgb(254, 203, 230); fill-opacity:1.000; stroke:none;" />
 <path d="  M 22,57  L 22,58  L 23,58  L 23,57  Z  " style="fill:rgb(254, 203, 230); fill-opacity:1.000; stroke:none;" />
 <path d="  M 32,34  L 31,34  L 31,35  L 30,35  L 30,36  L 29,36  L 29,37  L 28,37  L 28,38  L 27,38  L 27,39  L 26,39  L 26,40  L 25,40  L 25,41  L 24,41  L 24,42  L 27,42  L 27,41  L 29,41  L 29,40  L 30,40  L 30,39  L 31,39  L 31,38  L 32,38  Z  " style="fill:rgb(254, 203, 230); fill-opacity:1.000; stroke:none;" />
 <path d="  M 40,58  L 40,59  L 41,59  L 41,58  Z  " style="fill:rgb(254, 203, 230); fill-opacity:1.000; stroke:none;" />
 <path d="  M 42,57  L 41,57  L 41,58  L 42,58  Z  " style="fill:rgb(254, 203, 230); fill-opacity:1.000; stroke:none;" />
 <path d="  M 43,56  L 42,56  L 42,57  L 43,57  Z  " style="fill:rgb(254, 203, 230); fill-opacity:1.000; stroke:none;" />
 <path d="  M 21,59  L 20,59  L 20,60  L 21,60  Z  " style="fill:rgb(100, 71, 158); fill-opacity:1.000; stroke:none;" />
 <path d="  M 21,61  L 22,61  L 22,60  L 21,60  Z  " style="fill:rgb(100, 71, 158); fill-opacity:1.000; stroke:none;" />
 <path d="  M 26,64  L 26,63  L 27,63  L 27,64  L 31,64  L 31,60  L 30,60  L 30,61  L 29,61  L 29,62  L 27,62  L 27,61  L 24,61  L 24,60  L 23,60  L 23,61  L 22,61  L 22,62  L 23,62  L 23,63  L 22,63  L 22,64  Z  M 25,63  L 25,62  L 26,62  L 26,63  Z  " style="fill:rgb(100, 71, 158); fill-opacity:1.000; stroke:none;" />
 <path d="  M 27,56  L 26,56  L 26,57  L 27,57  Z  " style="fill:rgb(100, 71, 158); fill-opacity:1.000; stroke:none;" />
 <path d="  M 27,58  L 28,58  L 28,57  L 27,57  Z  " style="fill:rgb(100, 71, 158); fill-opacity:1.000; stroke:none;" />
 <path d="  M 27,61  L 28,61  L 28,60  L 27,60  Z  " style="fill:rgb(100, 71, 158); fill-opacity:1.000; stroke:none;" />
 <path d="  M 29,59  L 29,60  L 30,60  L 30,59  Z  " style="fill:rgb(100, 71, 158); fill-opacity:1.000; stroke:none;" />
 <path d="  M 37,62  L 36,62  L 36,61  L 35,61  L 35,62  L 34,62  L 34,61  L 33,61  L 33,62  L 32,62  L 32,64  L 41,64  L 41,63  L 40,63  L 40,62  L 39,62  L 39,63  L 37,63  Z  " style="fill:rgb(100, 71, 158); fill-opacity:1.000; stroke:none;" />
 <path d="  M 34,59  L 34,61  L 35,61  L 35,59  L 36,59  L 36,58  L 37,58  L 37,56  L 38,56  L 38,51  L 39,51  L 39,46  L 40,46  L 40,42  L 37,42  L 37,43  L 38,43  L 38,46  L 37,46  L 37,47  L 38,47  L 38,48  L 37,48  L 37,49  L 36,49  L 36,50  L 37,50  L 37,53  L 36,53  L 36,54  L 35,54  L 35,55  L 36,55  L 36,56  L 35,56  L 35,57  L 34,57  L 34,58  L 33,58  L 33,59  Z  " style="fill:rgb(100, 71, 158); fill-opacity:1.000; stroke:none;" />
 <path d="  M 36,59  L 36,60  L 38,60  L 38,59  Z  " style="fill:rgb(100, 71, 158); fill-opacity:1.000; stroke:none;" />
 <path d="  M 41,61  L 40,61  L 40,62  L 41,62  Z  " style="fill:rgb(100, 71, 158); fill-opacity:1.000; stroke:none;" />
</svg>
