<?xml version="1.0" encoding="UTF-8" standalone="no"?>
<!DOCTYPE svg PUBLIC "-//W3C//DTD SVG 1.1//EN" 
  "http://www.w3.org/Graphics/SVG/1.1/DTD/svg11.dtd">
<svg width="64" height="64"
	 xmlns="http://www.w3.org/2000/svg" version="1.1">
 <path d="  M 64,1  L 64,0  L 0,0  L 0,1  Z  " style="fill:rgb(193, 159, 106); fill-opacity:1.000; stroke:none;" />
 <path d="  M 2,63  L 2,62  L 1,62  L 1,63  Z  " style="fill:rgb(193, 159, 106); fill-opacity:1.000; stroke:none;" />
 <path d="  M 62,64  L 62,63  L 2,63  L 2,64  Z  " style="fill:rgb(193, 159, 106); fill-opacity:1.000; stroke:none;" />
 <path d="  M 4,8  L 3,8  L 3,20  L 4,20  Z  " style="fill:rgb(193, 159, 106); fill-opacity:1.000; stroke:none;" />
 <path d="  M 51,47  L 51,55  L 52,55  L 52,46  L 12,46  L 12,55  L 13,55  L 13,47  Z  " style="fill:rgb(193, 159, 106); fill-opacity:1.000; stroke:none;" />
 <path d="  M 14,27  L 15,27  L 15,22  L 16,22  L 16,20  L 17,20  L 17,19  L 22,19  L 22,18  L 14,18  Z  " style="fill:rgb(193, 159, 106); fill-opacity:1.000; stroke:none;" />
 <path d="  M 24,18  L 24,19  L 27,19  L 27,20  L 30,20  L 30,19  L 32,19  L 32,18  Z  " style="fill:rgb(193, 159, 106); fill-opacity:1.000; stroke:none;" />
 <path d="  M 40,20  L 40,19  L 43,19  L 43,18  L 36,18  L 36,19  L 37,19  L 37,20  Z  " style="fill:rgb(193, 159, 106); fill-opacity:1.000; stroke:none;" />
 <path d="  M 44,18  L 44,19  L 47,19  L 47,20  L 48,20  L 48,21  L 49,21  L 49,22  L 50,22  L 50,18  Z  " style="fill:rgb(193, 159, 106); fill-opacity:1.000; stroke:none;" />
 <path d="  M 60,18  L 61,18  L 61,8  L 60,8  Z  " style="fill:rgb(193, 159, 106); fill-opacity:1.000; stroke:none;" />
 <path d="  M 63,63  L 63,62  L 62,62  L 62,63  Z  " style="fill:rgb(193, 159, 106); fill-opacity:1.000; stroke:none;" />
 <path d="  M 2,8  L 2,9  L 3,9  L 3,7  L 2,7  L 2,5  L 3,5  L 3,1  L 0,1  L 0,4  L 1,4  L 1,8  Z  M 1,4  L 1,3  L 2,3  L 2,4  Z  " style="fill:rgb(181, 141, 80); fill-opacity:1.000; stroke:none;" />
 <path d="  M 1,12  L 0,12  L 0,30  L 1,30  L 1,32  L 2,32  L 2,31  L 3,31  L 3,30  L 2,30  L 2,28  L 1,28  Z  " style="fill:rgb(181, 141, 80); fill-opacity:1.000; stroke:none;" />
 <path d="  M 0,40  L 1,40  L 1,38  L 0,38  Z  " style="fill:rgb(181, 141, 80); fill-opacity:1.000; stroke:none;" />
 <path d="  M 0,47  L 1,47  L 1,46  L 2,46  L 2,43  L 3,43  L 3,40  L 4,40  L 4,38  L 3,38  L 3,36  L 2,36  L 2,34  L 1,34  L 1,37  L 2,37  L 2,41  L 1,41  L 1,43  L 0,43  Z  " style="fill:rgb(181, 141, 80); fill-opacity:1.000; stroke:none;" />
 <path d="  M 8,53  L 7,53  L 7,57  L 6,57  L 6,59  L 5,59  L 5,60  L 4,60  L 4,58  L 3,58  L 3,61  L 2,61  L 2,58  L 1,58  L 1,50  L 0,50  L 0,62  L 2,62  L 2,63  L 12,63  L 12,60  L 10,60  L 10,62  L 9,62  L 9,58  L 8,58  Z  M 6,59  L 7,59  L 7,62  L 6,62  Z  " style="fill:rgb(181, 141, 80); fill-opacity:1.000; stroke:none;" />
 <path d="  M 1,11  L 2,11  L 2,9  L 1,9  Z  " style="fill:rgb(181, 141, 80); fill-opacity:1.000; stroke:none;" />
 <path d="  M 2,27  L 3,27  L 3,24  L 4,24  L 4,20  L 3,20  L 3,18  L 2,18  Z  " style="fill:rgb(181, 141, 80); fill-opacity:1.000; stroke:none;" />
 <path d="  M 3,48  L 4,48  L 4,47  L 3,47  L 3,46  L 2,46  L 2,51  L 3,51  Z  " style="fill:rgb(181, 141, 80); fill-opacity:1.000; stroke:none;" />
 <path d="  M 4,5  L 3,5  L 3,7  L 4,7  L 4,6  L 5,6  L 5,5  L 6,5  L 6,4  L 5,4  L 5,2  L 6,2  L 6,1  L 4,1  Z  " style="fill:rgb(181, 141, 80); fill-opacity:1.000; stroke:none;" />
 <path d="  M 3,29  L 3,30  L 4,30  L 4,29  Z  " style="fill:rgb(181, 141, 80); fill-opacity:1.000; stroke:none;" />
 <path d="  M 3,35  L 4,35  L 4,31  L 3,31  Z  " style="fill:rgb(181, 141, 80); fill-opacity:1.000; stroke:none;" />
 <path d="  M 4,54  L 3,54  L 3,57  L 4,57  L 4,58  L 5,58  L 5,56  L 4,56  Z  " style="fill:rgb(181, 141, 80); fill-opacity:1.000; stroke:none;" />
 <path d="  M 6,6  L 6,7  L 5,7  L 5,8  L 7,8  L 7,6  Z  " style="fill:rgb(181, 141, 80); fill-opacity:1.000; stroke:none;" />
 <path d="  M 7,23  L 8,23  L 8,14  L 10,14  L 10,11  L 9,11  L 9,13  L 8,13  L 8,11  L 7,11  L 7,18  L 6,18  L 6,20  L 7,20  Z  " style="fill:rgb(181, 141, 80); fill-opacity:1.000; stroke:none;" />
 <path d="  M 8,32  L 8,31  L 7,31  L 7,30  L 6,30  L 6,34  L 7,34  L 7,32  Z  " style="fill:rgb(181, 141, 80); fill-opacity:1.000; stroke:none;" />
 <path d="  M 6,52  L 7,52  L 7,51  L 8,51  L 8,48  L 9,48  L 9,47  L 7,47  L 7,50  L 6,50  Z  " style="fill:rgb(181, 141, 80); fill-opacity:1.000; stroke:none;" />
 <path d="  M 8,3  L 8,2  L 9,2  L 9,1  L 7,1  L 7,3  Z  " style="fill:rgb(181, 141, 80); fill-opacity:1.000; stroke:none;" />
 <path d="  M 8,8  L 10,8  L 10,7  L 9,7  L 9,5  L 8,5  L 8,4  L 7,4  L 7,6  L 8,6  Z  " style="fill:rgb(181, 141, 80); fill-opacity:1.000; stroke:none;" />
 <path d="  M 11,28  L 10,28  L 10,27  L 9,27  L 9,25  L 7,25  L 7,29  L 8,29  L 8,28  L 9,28  L 9,29  L 10,29  L 10,30  L 11,30  L 11,29  L 12,29  L 12,27  L 11,27  Z  " style="fill:rgb(181, 141, 80); fill-opacity:1.000; stroke:none;" />
 <path d="  M 7,37  L 8,37  L 8,40  L 7,40  L 7,46  L 8,46  L 8,42  L 9,42  L 9,36  L 8,36  L 8,35  L 9,35  L 9,33  L 8,33  L 8,34  L 7,34  Z  " style="fill:rgb(181, 141, 80); fill-opacity:1.000; stroke:none;" />
 <path d="  M 8,29  L 8,31  L 9,31  L 9,29  Z  " style="fill:rgb(181, 141, 80); fill-opacity:1.000; stroke:none;" />
 <path d="  M 11,14  L 10,14  L 10,15  L 9,15  L 9,16  L 10,16  L 10,17  L 9,17  L 9,20  L 10,20  L 10,18  L 11,18  Z  " style="fill:rgb(181, 141, 80); fill-opacity:1.000; stroke:none;" />
 <path d="  M 9,25  L 10,25  L 10,26  L 11,26  L 11,23  L 9,23  Z  " style="fill:rgb(181, 141, 80); fill-opacity:1.000; stroke:none;" />
 <path d="  M 9,32  L 10,32  L 10,31  L 9,31  Z  " style="fill:rgb(181, 141, 80); fill-opacity:1.000; stroke:none;" />
 <path d="  M 10,37  L 11,37  L 11,35  L 12,35  L 12,31  L 11,31  L 11,34  L 10,34  L 10,35  L 9,35  L 9,36  L 10,36  Z  " style="fill:rgb(181, 141, 80); fill-opacity:1.000; stroke:none;" />
 <path d="  M 9,43  L 9,47  L 10,47  L 10,43  Z  " style="fill:rgb(181, 141, 80); fill-opacity:1.000; stroke:none;" />
 <path d="  M 10,48  L 9,48  L 9,49  L 10,49  Z  " style="fill:rgb(181, 141, 80); fill-opacity:1.000; stroke:none;" />
 <path d="  M 12,56  L 11,56  L 11,54  L 10,54  L 10,55  L 9,55  L 9,56  L 10,56  L 10,59  L 11,59  L 11,57  L 12,57  Z  " style="fill:rgb(181, 141, 80); fill-opacity:1.000; stroke:none;" />
 <path d="  M 12,1  L 10,1  L 10,3  L 11,3  L 11,5  L 12,5  L 12,7  L 13,7  L 13,6  L 14,6  L 14,5  L 15,5  L 15,4  L 14,4  L 14,1  L 13,1  L 13,4  L 12,4  Z  " style="fill:rgb(181, 141, 80); fill-opacity:1.000; stroke:none;" />
 <path d="  M 10,7  L 11,7  L 11,6  L 10,6  Z  " style="fill:rgb(181, 141, 80); fill-opacity:1.000; stroke:none;" />
 <path d="  M 12,14  L 12,12  L 14,12  L 14,13  L 13,13  L 13,15  L 14,15  L 14,16  L 17,16  L 17,13  L 16,13  L 16,15  L 15,15  L 15,11  L 14,11  L 14,10  L 12,10  L 12,11  L 11,11  L 11,14  Z  " style="fill:rgb(181, 141, 80); fill-opacity:1.000; stroke:none;" />
 <path d="  M 12,19  L 11,19  L 11,23  L 12,23  Z  " style="fill:rgb(181, 141, 80); fill-opacity:1.000; stroke:none;" />
 <path d="  M 12,38  L 11,38  L 11,40  L 12,40  Z  " style="fill:rgb(181, 141, 80); fill-opacity:1.000; stroke:none;" />
 <path d="  M 12,43  L 11,43  L 11,44  L 12,44  Z  " style="fill:rgb(181, 141, 80); fill-opacity:1.000; stroke:none;" />
 <path d="  M 11,49  L 12,49  L 12,48  L 11,48  Z  " style="fill:rgb(181, 141, 80); fill-opacity:1.000; stroke:none;" />
 <path d="  M 11,52  L 12,52  L 12,50  L 11,50  Z  " style="fill:rgb(181, 141, 80); fill-opacity:1.000; stroke:none;" />
 <path d="  M 19,55  L 18,55  L 18,53  L 17,53  L 17,49  L 19,49  L 19,48  L 14,48  L 14,56  L 18,56  L 18,58  L 12,58  L 12,59  L 13,59  L 13,63  L 15,63  L 15,60  L 16,60  L 16,62  L 17,62  L 17,63  L 18,63  L 18,61  L 19,61  Z  M 15,49  L 16,49  L 16,55  L 15,55  Z  " style="fill:rgb(181, 141, 80); fill-opacity:1.000; stroke:none;" />
 <path d="  M 15,6  L 14,6  L 14,7  L 15,7  Z  " style="fill:rgb(181, 141, 80); fill-opacity:1.000; stroke:none;" />
 <path d="  M 15,1  L 15,3  L 16,3  L 16,5  L 17,5  L 17,3  L 18,3  L 18,1  Z  " style="fill:rgb(181, 141, 80); fill-opacity:1.000; stroke:none;" />
 <path d="  M 16,5  L 15,5  L 15,6  L 16,6  Z  " style="fill:rgb(181, 141, 80); fill-opacity:1.000; stroke:none;" />
 <path d="  M 28,44  L 32,44  L 32,40  L 31,40  L 31,24  L 33,24  L 33,26  L 32,26  L 32,33  L 33,33  L 33,41  L 34,41  L 34,43  L 35,43  L 35,40  L 36,40  L 36,42  L 37,42  L 37,38  L 38,38  L 38,44  L 43,44  L 43,40  L 44,40  L 44,38  L 43,38  L 43,36  L 42,36  L 42,33  L 41,33  L 41,28  L 42,28  L 42,32  L 43,32  L 43,34  L 44,34  L 44,36  L 45,36  L 45,40  L 46,40  L 46,42  L 47,42  L 47,43  L 48,43  L 48,42  L 49,42  L 49,34  L 50,34  L 50,26  L 49,26  L 49,25  L 48,25  L 48,24  L 46,24  L 46,23  L 41,23  L 41,22  L 24,22  L 24,23  L 21,23  L 21,24  L 20,24  L 20,25  L 19,25  L 19,26  L 18,26  L 18,30  L 17,30  L 17,34  L 16,34  L 16,39  L 15,39  L 15,44  L 22,44  L 22,42  L 23,42  L 23,44  L 27,44  L 27,36  L 28,36  Z  M 43,24  L 44,24  L 44,31  L 43,31  Z  M 27,30  L 27,27  L 28,27  L 28,30  Z  M 22,24  L 23,24  L 23,32  L 22,32  Z  M 28,24  L 28,25  L 27,25  L 27,24  Z  M 23,39  L 22,39  L 22,33  L 23,33  Z  " style="fill:rgb(181, 141, 80); fill-opacity:1.000; stroke:none;" />
 <path d="  M 16,6  L 16,8  L 18,8  L 18,6  Z  " style="fill:rgb(181, 141, 80); fill-opacity:1.000; stroke:none;" />
 <path d="  M 20,16  L 20,14  L 19,14  L 19,11  L 17,11  L 17,12  L 18,12  L 18,16  Z  " style="fill:rgb(181, 141, 80); fill-opacity:1.000; stroke:none;" />
 <path d="  M 18,5  L 19,5  L 19,4  L 18,4  Z  " style="fill:rgb(181, 141, 80); fill-opacity:1.000; stroke:none;" />
 <path d="  M 19,50  L 18,50  L 18,52  L 19,52  Z  " style="fill:rgb(181, 141, 80); fill-opacity:1.000; stroke:none;" />
 <path d="  M 19,1  L 19,2  L 20,2  L 20,8  L 22,8  L 22,5  L 21,5  L 21,4  L 22,4  L 22,3  L 21,3  L 21,1  Z  " style="fill:rgb(181, 141, 80); fill-opacity:1.000; stroke:none;" />
 <path d="  M 20,53  L 19,53  L 19,54  L 20,54  Z  " style="fill:rgb(181, 141, 80); fill-opacity:1.000; stroke:none;" />
 <path d="  M 23,63  L 23,61  L 22,61  L 22,57  L 21,57  L 21,59  L 20,59  L 20,62  L 19,62  L 19,63  Z  " style="fill:rgb(181, 141, 80); fill-opacity:1.000; stroke:none;" />
 <path d="  M 20,13  L 21,13  L 21,12  L 22,12  L 22,11  L 20,11  Z  " style="fill:rgb(181, 141, 80); fill-opacity:1.000; stroke:none;" />
 <path d="  M 20,48  L 20,49  L 22,49  L 22,50  L 21,50  L 21,52  L 22,52  L 22,53  L 23,53  L 23,52  L 24,52  L 24,49  L 25,49  L 25,48  Z  " style="fill:rgb(181, 141, 80); fill-opacity:1.000; stroke:none;" />
 <path d="  M 20,54  L 20,57  L 21,57  L 21,54  Z  " style="fill:rgb(181, 141, 80); fill-opacity:1.000; stroke:none;" />
 <path d="  M 21,15  L 22,15  L 22,13  L 21,13  Z  " style="fill:rgb(181, 141, 80); fill-opacity:1.000; stroke:none;" />
 <path d="  M 22,2  L 23,2  L 23,1  L 22,1  Z  " style="fill:rgb(181, 141, 80); fill-opacity:1.000; stroke:none;" />
 <path d="  M 23,15  L 22,15  L 22,16  L 23,16  Z  " style="fill:rgb(181, 141, 80); fill-opacity:1.000; stroke:none;" />
 <path d="  M 22,54  L 22,56  L 23,56  L 23,54  Z  " style="fill:rgb(181, 141, 80); fill-opacity:1.000; stroke:none;" />
 <path d="  M 23,7  L 25,7  L 25,6  L 24,6  L 24,4  L 23,4  Z  " style="fill:rgb(181, 141, 80); fill-opacity:1.000; stroke:none;" />
 <path d="  M 23,15  L 24,15  L 24,12  L 25,12  L 25,15  L 26,15  L 26,16  L 27,16  L 27,14  L 26,14  L 26,12  L 27,12  L 27,11  L 23,11  Z  " style="fill:rgb(181, 141, 80); fill-opacity:1.000; stroke:none;" />
 <path d="  M 26,60  L 25,60  L 25,54  L 24,54  L 24,57  L 23,57  L 23,58  L 24,58  L 24,62  L 25,62  L 25,63  L 26,63  Z  " style="fill:rgb(181, 141, 80); fill-opacity:1.000; stroke:none;" />
 <path d="  M 25,2  L 26,2  L 26,3  L 25,3  Z  M 24,1  L 24,3  L 25,3  L 25,6  L 26,6  L 26,7  L 27,7  L 27,8  L 30,8  L 30,6  L 29,6  L 29,7  L 28,7  L 28,6  L 27,6  L 27,3  L 28,3  L 28,5  L 29,5  L 29,4  L 30,4  L 30,3  L 31,3  L 31,1  Z  " style="fill:rgb(181, 141, 80); fill-opacity:1.000; stroke:none;" />
 <path d="  M 25,16  L 25,15  L 24,15  L 24,16  Z  " style="fill:rgb(181, 141, 80); fill-opacity:1.000; stroke:none;" />
 <path d="  M 28,54  L 29,54  L 29,51  L 28,51  L 28,48  L 26,48  L 26,50  L 25,50  L 25,54  L 26,54  L 26,53  L 27,53  L 27,52  L 28,52  Z  " style="fill:rgb(181, 141, 80); fill-opacity:1.000; stroke:none;" />
 <path d="  M 27,55  L 27,54  L 26,54  L 26,60  L 27,60  L 27,58  L 28,58  L 28,61  L 29,61  L 29,62  L 27,62  L 27,63  L 30,63  L 30,60  L 31,60  L 31,59  L 29,59  L 29,56  L 28,56  L 28,55  Z  " style="fill:rgb(181, 141, 80); fill-opacity:1.000; stroke:none;" />
 <path d="  M 29,11  L 29,10  L 27,10  L 27,11  Z  " style="fill:rgb(181, 141, 80); fill-opacity:1.000; stroke:none;" />
 <path d="  M 28,15  L 29,15  L 29,13  L 28,13  Z  " style="fill:rgb(181, 141, 80); fill-opacity:1.000; stroke:none;" />
 <path d="  M 29,13  L 30,13  L 30,15  L 29,15  L 29,16  L 32,16  L 32,14  L 34,14  L 34,13  L 35,13  L 35,11  L 29,11  Z  M 31,12  L 33,12  L 33,13  L 32,13  L 32,14  L 31,14  Z  " style="fill:rgb(181, 141, 80); fill-opacity:1.000; stroke:none;" />
 <path d="  M 35,54  L 35,51  L 34,51  L 34,49  L 33,49  L 33,48  L 29,48  L 29,50  L 30,50  L 30,54  L 31,54  L 31,53  L 32,53  L 32,51  L 33,51  L 33,54  L 34,54  L 34,57  L 35,57  L 35,60  L 36,60  L 36,58  L 37,58  L 37,57  L 36,57  L 36,54  Z  M 31,49  L 32,49  L 32,51  L 31,51  Z  " style="fill:rgb(181, 141, 80); fill-opacity:1.000; stroke:none;" />
 <path d="  M 29,54  L 29,55  L 30,55  L 30,54  Z  " style="fill:rgb(181, 141, 80); fill-opacity:1.000; stroke:none;" />
 <path d="  M 32,4  L 33,4  L 33,3  L 34,3  L 34,1  L 32,1  L 32,3  L 31,3  L 31,5  L 30,5  L 30,6  L 31,6  L 31,8  L 32,8  Z  " style="fill:rgb(181, 141, 80); fill-opacity:1.000; stroke:none;" />
 <path d="  M 42,56  L 41,56  L 41,59  L 40,59  L 40,56  L 39,56  L 39,58  L 38,58  L 38,59  L 37,59  L 37,60  L 38,60  L 38,62  L 37,62  L 37,61  L 36,61  L 36,62  L 35,62  L 35,60  L 34,60  L 34,58  L 33,58  L 33,54  L 32,54  L 32,57  L 31,57  L 31,58  L 32,58  L 32,60  L 33,60  L 33,61  L 31,61  L 31,63  L 42,63  L 42,62  L 43,62  L 43,60  L 42,60  Z  M 34,61  L 34,62  L 33,62  L 33,61  Z  M 40,61  L 40,62  L 39,62  L 39,61  Z  " style="fill:rgb(181, 141, 80); fill-opacity:1.000; stroke:none;" />
 <path d="  M 36,2  L 38,2  L 38,1  L 35,1  L 35,3  L 34,3  L 34,4  L 33,4  L 33,5  L 34,5  L 34,6  L 33,6  L 33,7  L 34,7  L 34,8  L 38,8  L 38,7  L 37,7  L 37,6  L 36,6  Z  " style="fill:rgb(181, 141, 80); fill-opacity:1.000; stroke:none;" />
 <path d="  M 34,15  L 34,16  L 37,16  L 37,15  L 36,15  L 36,14  L 35,14  L 35,15  Z  " style="fill:rgb(181, 141, 80); fill-opacity:1.000; stroke:none;" />
 <path d="  M 34,49  L 36,49  L 36,51  L 37,51  L 37,49  L 38,49  L 38,50  L 39,50  L 39,48  L 34,48  Z  " style="fill:rgb(181, 141, 80); fill-opacity:1.000; stroke:none;" />
 <path d="  M 36,11  L 36,13  L 37,13  L 37,14  L 38,14  L 38,13  L 39,13  L 39,12  L 41,12  L 41,13  L 40,13  L 40,14  L 39,14  L 39,16  L 43,16  L 43,15  L 42,15  L 42,12  L 44,12  L 44,11  Z  " style="fill:rgb(181, 141, 80); fill-opacity:1.000; stroke:none;" />
 <path d="  M 37,52  L 37,53  L 36,53  L 36,54  L 37,54  L 37,57  L 38,57  L 38,56  L 39,56  L 39,55  L 38,55  L 38,52  Z  " style="fill:rgb(181, 141, 80); fill-opacity:1.000; stroke:none;" />
 <path d="  M 38,4  L 38,3  L 37,3  L 37,5  L 38,5  L 38,6  L 39,6  L 39,4  Z  " style="fill:rgb(181, 141, 80); fill-opacity:1.000; stroke:none;" />
 <path d="  M 39,2  L 39,3  L 40,3  L 40,6  L 39,6  L 39,8  L 42,8  L 42,6  L 41,6  L 41,2  L 42,2  L 42,1  L 40,1  L 40,2  Z  " style="fill:rgb(181, 141, 80); fill-opacity:1.000; stroke:none;" />
 <path d="  M 40,56  L 41,56  L 41,53  L 40,53  L 40,51  L 39,51  L 39,55  L 40,55  Z  " style="fill:rgb(181, 141, 80); fill-opacity:1.000; stroke:none;" />
 <path d="  M 47,48  L 40,48  L 40,51  L 41,51  L 41,49  L 42,49  L 42,50  L 43,50  L 43,49  L 44,49  L 44,50  L 45,50  L 45,51  L 44,51  L 44,52  L 45,52  L 45,53  L 46,53  L 46,50  L 47,50  Z  " style="fill:rgb(181, 141, 80); fill-opacity:1.000; stroke:none;" />
 <path d="  M 42,52  L 41,52  L 41,53  L 42,53  Z  " style="fill:rgb(181, 141, 80); fill-opacity:1.000; stroke:none;" />
 <path d="  M 43,3  L 42,3  L 42,5  L 43,5  Z  " style="fill:rgb(181, 141, 80); fill-opacity:1.000; stroke:none;" />
 <path d="  M 47,1  L 43,1  L 43,2  L 44,2  L 44,6  L 45,6  L 45,8  L 46,8  L 46,3  L 47,3  Z  M 46,2  L 46,3  L 45,3  L 45,2  Z  " style="fill:rgb(181, 141, 80); fill-opacity:1.000; stroke:none;" />
 <path d="  M 43,13  L 43,14  L 44,14  L 44,15  L 45,15  L 45,12  L 44,12  L 44,13  Z  " style="fill:rgb(181, 141, 80); fill-opacity:1.000; stroke:none;" />
 <path d="  M 44,53  L 43,53  L 43,59  L 44,59  Z  " style="fill:rgb(181, 141, 80); fill-opacity:1.000; stroke:none;" />
 <path d="  M 46,44  L 46,43  L 45,43  L 45,41  L 44,41  L 44,44  Z  " style="fill:rgb(181, 141, 80); fill-opacity:1.000; stroke:none;" />
 <path d="  M 45,59  L 44,59  L 44,63  L 49,63  L 49,61  L 48,61  L 48,59  L 47,59  L 47,58  L 46,58  L 46,56  L 50,56  L 50,54  L 49,54  L 49,53  L 50,53  L 50,52  L 48,52  L 48,51  L 47,51  L 47,53  L 46,53  L 46,55  L 45,55  Z  M 45,59  L 46,59  L 46,60  L 45,60  Z  M 47,61  L 46,61  L 46,60  L 47,60  Z  " style="fill:rgb(181, 141, 80); fill-opacity:1.000; stroke:none;" />
 <path d="  M 46,11  L 46,10  L 45,10  L 45,12  L 47,12  L 47,15  L 48,15  L 48,12  L 49,12  L 49,11  Z  " style="fill:rgb(181, 141, 80); fill-opacity:1.000; stroke:none;" />
 <path d="  M 49,1  L 48,1  L 48,3  L 47,3  L 47,6  L 48,6  L 48,7  L 49,7  L 49,5  L 50,5  L 50,3  L 49,3  Z  " style="fill:rgb(181, 141, 80); fill-opacity:1.000; stroke:none;" />
 <path d="  M 49,50  L 49,51  L 50,51  L 50,48  L 48,48  L 48,50  Z  " style="fill:rgb(181, 141, 80); fill-opacity:1.000; stroke:none;" />
 <path d="  M 51,15  L 51,13  L 52,13  L 52,15  Z  M 55,12  L 54,12  L 54,11  L 50,11  L 50,12  L 49,12  L 49,16  L 52,16  L 52,15  L 53,15  L 53,17  L 54,17  L 54,19  L 55,19  Z  " style="fill:rgb(181, 141, 80); fill-opacity:1.000; stroke:none;" />
 <path d="  M 53,60  L 52,60  L 52,58  L 49,58  L 49,60  L 50,60  L 50,63  L 62,63  L 62,62  L 61,62  L 61,60  L 60,60  L 60,59  L 61,59  L 61,58  L 59,58  L 59,60  L 58,60  L 58,61  L 57,61  L 57,62  L 55,62  L 55,60  L 54,60  L 54,56  L 53,56  L 53,54  L 52,54  L 52,57  L 53,57  Z  M 51,60  L 52,60  L 52,61  L 51,61  Z  " style="fill:rgb(181, 141, 80); fill-opacity:1.000; stroke:none;" />
 <path d="  M 51,4  L 53,4  L 53,1  L 51,1  Z  " style="fill:rgb(181, 141, 80); fill-opacity:1.000; stroke:none;" />
 <path d="  M 53,19  L 52,19  L 52,25  L 53,25  Z  " style="fill:rgb(181, 141, 80); fill-opacity:1.000; stroke:none;" />
 <path d="  M 54,25  L 53,25  L 53,30  L 52,30  L 52,33  L 53,33  L 53,31  L 54,31  Z  " style="fill:rgb(181, 141, 80); fill-opacity:1.000; stroke:none;" />
 <path d="  M 53,38  L 52,38  L 52,43  L 53,43  Z  " style="fill:rgb(181, 141, 80); fill-opacity:1.000; stroke:none;" />
 <path d="  M 52,51  L 53,51  L 53,50  L 54,50  L 54,48  L 53,48  L 53,47  L 52,47  Z  " style="fill:rgb(181, 141, 80); fill-opacity:1.000; stroke:none;" />
 <path d="  M 56,5  L 55,5  L 55,4  L 57,4  L 57,2  L 58,2  L 58,4  L 59,4  L 59,2  L 62,2  L 62,1  L 54,1  L 54,4  L 53,4  L 53,6  L 54,6  L 54,8  L 56,8  Z  " style="fill:rgb(181, 141, 80); fill-opacity:1.000; stroke:none;" />
 <path d="  M 54,33  L 53,33  L 53,37  L 54,37  Z  " style="fill:rgb(181, 141, 80); fill-opacity:1.000; stroke:none;" />
 <path d="  M 55,42  L 54,42  L 54,44  L 53,44  L 53,45  L 54,45  L 54,47  L 55,47  Z  " style="fill:rgb(181, 141, 80); fill-opacity:1.000; stroke:none;" />
 <path d="  M 54,22  L 54,23  L 55,23  L 55,22  Z  " style="fill:rgb(181, 141, 80); fill-opacity:1.000; stroke:none;" />
 <path d="  M 56,37  L 54,37  L 54,40  L 55,40  L 55,38  L 56,38  Z  " style="fill:rgb(181, 141, 80); fill-opacity:1.000; stroke:none;" />
 <path d="  M 57,11  L 55,11  L 55,12  L 56,12  L 56,14  L 57,14  Z  " style="fill:rgb(181, 141, 80); fill-opacity:1.000; stroke:none;" />
 <path d="  M 56,15  L 56,19  L 55,19  L 55,21  L 57,21  L 57,18  L 58,18  L 58,17  L 57,17  L 57,15  Z  " style="fill:rgb(181, 141, 80); fill-opacity:1.000; stroke:none;" />
 <path d="  M 55,23  L 55,27  L 56,27  L 56,35  L 57,35  L 57,32  L 58,32  L 58,30  L 57,30  L 57,22  L 56,22  L 56,23  Z  " style="fill:rgb(181, 141, 80); fill-opacity:1.000; stroke:none;" />
 <path d="  M 55,53  L 56,53  L 56,51  L 57,51  L 57,50  L 58,50  L 58,48  L 57,48  L 57,46  L 56,46  L 56,48  L 55,48  Z  " style="fill:rgb(181, 141, 80); fill-opacity:1.000; stroke:none;" />
 <path d="  M 56,57  L 55,57  L 55,60  L 56,60  L 56,61  L 57,61  L 57,59  L 56,59  Z  " style="fill:rgb(181, 141, 80); fill-opacity:1.000; stroke:none;" />
 <path d="  M 56,45  L 57,45  L 57,43  L 58,43  L 58,40  L 57,40  L 57,42  L 56,42  Z  " style="fill:rgb(181, 141, 80); fill-opacity:1.000; stroke:none;" />
 <path d="  M 56,55  L 57,55  L 57,54  L 58,54  L 58,52  L 57,52  L 57,53  L 56,53  Z  " style="fill:rgb(181, 141, 80); fill-opacity:1.000; stroke:none;" />
 <path d="  M 58,5  L 57,5  L 57,6  L 58,6  Z  " style="fill:rgb(181, 141, 80); fill-opacity:1.000; stroke:none;" />
 <path d="  M 64,1  L 63,1  L 63,5  L 62,5  L 62,7  L 61,7  L 61,6  L 60,6  L 60,7  L 57,7  L 57,8  L 61,8  L 61,16  L 62,16  L 62,9  L 64,9  Z  " style="fill:rgb(181, 141, 80); fill-opacity:1.000; stroke:none;" />
 <path d="  M 58,36  L 57,36  L 57,37  L 58,37  Z  " style="fill:rgb(181, 141, 80); fill-opacity:1.000; stroke:none;" />
 <path d="  M 57,59  L 58,59  L 58,57  L 57,57  Z  " style="fill:rgb(181, 141, 80); fill-opacity:1.000; stroke:none;" />
 <path d="  M 60,21  L 61,21  L 61,18  L 60,18  Z  " style="fill:rgb(181, 141, 80); fill-opacity:1.000; stroke:none;" />
 <path d="  M 61,24  L 60,24  L 60,30  L 61,30  Z  " style="fill:rgb(181, 141, 80); fill-opacity:1.000; stroke:none;" />
 <path d="  M 61,36  L 60,36  L 60,37  L 61,37  Z  " style="fill:rgb(181, 141, 80); fill-opacity:1.000; stroke:none;" />
 <path d="  M 60,52  L 60,55  L 61,55  L 61,52  Z  " style="fill:rgb(181, 141, 80); fill-opacity:1.000; stroke:none;" />
 <path d="  M 61,5  L 62,5  L 62,3  L 61,3  Z  " style="fill:rgb(181, 141, 80); fill-opacity:1.000; stroke:none;" />
 <path d="  M 64,31  L 63,31  L 63,34  L 62,34  L 62,36  L 63,36  L 63,39  L 61,39  L 61,42  L 62,42  L 62,46  L 63,46  L 63,47  L 64,47  Z  " style="fill:rgb(181, 141, 80); fill-opacity:1.000; stroke:none;" />
 <path d="  M 62,46  L 61,46  L 61,51  L 62,51  Z  " style="fill:rgb(181, 141, 80); fill-opacity:1.000; stroke:none;" />
 <path d="  M 63,56  L 62,56  L 62,59  L 61,59  L 61,60  L 62,60  L 62,62  L 64,62  L 64,49  L 63,49  Z  " style="fill:rgb(181, 141, 80); fill-opacity:1.000; stroke:none;" />
 <path d="  M 63,25  L 63,28  L 64,28  L 64,12  L 63,12  L 63,21  L 62,21  L 62,25  Z  " style="fill:rgb(181, 141, 80); fill-opacity:1.000; stroke:none;" />
 <path d="  M 0,12  L 1,12  L 1,15  L 2,15  L 2,18  L 3,18  L 3,14  L 2,14  L 2,11  L 1,11  L 1,4  L 0,4  Z  " style="fill:rgb(166, 130, 77); fill-opacity:1.000; stroke:none;" />
 <path d="  M 0,37  L 1,37  L 1,34  L 2,34  L 2,36  L 3,36  L 3,38  L 4,38  L 4,35  L 3,35  L 3,31  L 2,31  L 2,32  L 1,32  L 1,30  L 0,30  Z  " style="fill:rgb(166, 130, 77); fill-opacity:1.000; stroke:none;" />
 <path d="  M 0,43  L 1,43  L 1,41  L 2,41  L 2,37  L 1,37  L 1,40  L 0,40  Z  " style="fill:rgb(166, 130, 77); fill-opacity:1.000; stroke:none;" />
 <path d="  M 1,48  L 0,48  L 0,50  L 1,50  Z  " style="fill:rgb(166, 130, 77); fill-opacity:1.000; stroke:none;" />
 <path d="  M 0,64  L 2,64  L 2,63  L 1,63  L 1,62  L 0,62  Z  " style="fill:rgb(166, 130, 77); fill-opacity:1.000; stroke:none;" />
 <path d="  M 2,4  L 2,3  L 1,3  L 1,4  Z  " style="fill:rgb(166, 130, 77); fill-opacity:1.000; stroke:none;" />
 <path d="  M 2,18  L 1,18  L 1,21  L 2,21  Z  " style="fill:rgb(166, 130, 77); fill-opacity:1.000; stroke:none;" />
 <path d="  M 3,27  L 2,27  L 2,23  L 1,23  L 1,28  L 2,28  L 2,30  L 3,30  L 3,29  L 4,29  L 4,24  L 3,24  Z  " style="fill:rgb(166, 130, 77); fill-opacity:1.000; stroke:none;" />
 <path d="  M 2,46  L 1,46  L 1,48  L 2,48  Z  " style="fill:rgb(166, 130, 77); fill-opacity:1.000; stroke:none;" />
 <path d="  M 3,57  L 3,54  L 4,54  L 4,48  L 3,48  L 3,52  L 2,52  L 2,54  L 1,54  L 1,56  L 2,56  L 2,61  L 3,61  L 3,58  L 4,58  L 4,57  Z  " style="fill:rgb(166, 130, 77); fill-opacity:1.000; stroke:none;" />
 <path d="  M 2,7  L 3,7  L 3,5  L 2,5  Z  " style="fill:rgb(166, 130, 77); fill-opacity:1.000; stroke:none;" />
 <path d="  M 4,40  L 3,40  L 3,43  L 2,43  L 2,46  L 3,46  L 3,47  L 4,47  Z  " style="fill:rgb(166, 130, 77); fill-opacity:1.000; stroke:none;" />
 <path d="  M 3,5  L 4,5  L 4,1  L 3,1  Z  " style="fill:rgb(166, 130, 77); fill-opacity:1.000; stroke:none;" />
 <path d="  M 8,4  L 8,3  L 6,3  L 6,5  L 5,5  L 5,6  L 4,6  L 4,7  L 3,7  L 3,8  L 5,8  L 5,7  L 6,7  L 6,6  L 7,6  L 7,4  Z  " style="fill:rgb(166, 130, 77); fill-opacity:1.000; stroke:none;" />
 <path d="  M 4,30  L 3,30  L 3,31  L 4,31  Z  " style="fill:rgb(166, 130, 77); fill-opacity:1.000; stroke:none;" />
 <path d="  M 6,56  L 5,56  L 5,58  L 4,58  L 4,60  L 5,60  L 5,59  L 6,59  L 6,57  L 7,57  L 7,53  L 8,53  L 8,51  L 7,51  L 7,52  L 6,52  Z  " style="fill:rgb(166, 130, 77); fill-opacity:1.000; stroke:none;" />
 <path d="  M 6,34  L 6,36  L 7,36  L 7,34  Z  " style="fill:rgb(166, 130, 77); fill-opacity:1.000; stroke:none;" />
 <path d="  M 10,37  L 10,38  L 9,38  L 9,42  L 8,42  L 8,46  L 7,46  L 7,44  L 6,44  L 6,50  L 7,50  L 7,47  L 9,47  L 9,43  L 10,43  L 10,39  L 11,39  L 11,38  L 12,38  L 12,35  L 11,35  L 11,37  Z  " style="fill:rgb(166, 130, 77); fill-opacity:1.000; stroke:none;" />
 <path d="  M 7,59  L 6,59  L 6,62  L 7,62  Z  " style="fill:rgb(166, 130, 77); fill-opacity:1.000; stroke:none;" />
 <path d="  M 7,8  L 8,8  L 8,6  L 7,6  Z  " style="fill:rgb(166, 130, 77); fill-opacity:1.000; stroke:none;" />
 <path d="  M 7,31  L 8,31  L 8,29  L 7,29  Z  " style="fill:rgb(166, 130, 77); fill-opacity:1.000; stroke:none;" />
 <path d="  M 7,34  L 8,34  L 8,32  L 7,32  Z  " style="fill:rgb(166, 130, 77); fill-opacity:1.000; stroke:none;" />
 <path d="  M 9,20  L 9,15  L 10,15  L 10,14  L 8,14  L 8,20  Z  " style="fill:rgb(166, 130, 77); fill-opacity:1.000; stroke:none;" />
 <path d="  M 9,29  L 9,28  L 8,28  L 8,29  Z  " style="fill:rgb(166, 130, 77); fill-opacity:1.000; stroke:none;" />
 <path d="  M 9,48  L 8,48  L 8,51  L 9,51  Z  " style="fill:rgb(166, 130, 77); fill-opacity:1.000; stroke:none;" />
 <path d="  M 11,3  L 10,3  L 10,1  L 9,1  L 9,4  L 10,4  L 10,6  L 11,6  L 11,7  L 10,7  L 10,8  L 16,8  L 16,6  L 15,6  L 15,7  L 14,7  L 14,6  L 13,6  L 13,7  L 12,7  L 12,5  L 11,5  Z  " style="fill:rgb(166, 130, 77); fill-opacity:1.000; stroke:none;" />
 <path d="  M 11,31  L 12,31  L 12,29  L 11,29  L 11,30  L 10,30  L 10,29  L 9,29  L 9,31  L 10,31  L 10,34  L 11,34  Z  " style="fill:rgb(166, 130, 77); fill-opacity:1.000; stroke:none;" />
 <path d="  M 10,48  L 10,47  L 9,47  L 9,48  Z  " style="fill:rgb(166, 130, 77); fill-opacity:1.000; stroke:none;" />
 <path d="  M 12,52  L 11,52  L 11,50  L 10,50  L 10,52  L 9,52  L 9,55  L 10,55  L 10,54  L 11,54  L 11,56  L 12,56  Z  " style="fill:rgb(166, 130, 77); fill-opacity:1.000; stroke:none;" />
 <path d="  M 9,56  L 9,59  L 10,59  L 10,56  Z  " style="fill:rgb(166, 130, 77); fill-opacity:1.000; stroke:none;" />
 <path d="  M 10,14  L 11,14  L 11,11  L 10,11  Z  " style="fill:rgb(166, 130, 77); fill-opacity:1.000; stroke:none;" />
 <path d="  M 11,18  L 10,18  L 10,23  L 11,23  L 11,19  L 12,19  L 12,16  L 14,16  L 14,15  L 13,15  L 13,13  L 14,13  L 14,12  L 12,12  L 12,14  L 11,14  Z  " style="fill:rgb(166, 130, 77); fill-opacity:1.000; stroke:none;" />
 <path d="  M 11,48  L 12,48  L 12,44  L 11,44  L 11,43  L 10,43  L 10,45  L 11,45  Z  " style="fill:rgb(166, 130, 77); fill-opacity:1.000; stroke:none;" />
 <path d="  M 11,60  L 11,59  L 10,59  L 10,60  Z  " style="fill:rgb(166, 130, 77); fill-opacity:1.000; stroke:none;" />
 <path d="  M 11,27  L 12,27  L 12,23  L 11,23  Z  " style="fill:rgb(166, 130, 77); fill-opacity:1.000; stroke:none;" />
 <path d="  M 12,40  L 11,40  L 11,43  L 12,43  Z  " style="fill:rgb(166, 130, 77); fill-opacity:1.000; stroke:none;" />
 <path d="  M 12,49  L 11,49  L 11,50  L 12,50  Z  " style="fill:rgb(166, 130, 77); fill-opacity:1.000; stroke:none;" />
 <path d="  M 12,1  L 12,4  L 13,4  L 13,1  Z  " style="fill:rgb(166, 130, 77); fill-opacity:1.000; stroke:none;" />
 <path d="  M 13,17  L 13,44  L 14,44  L 14,18  L 50,18  L 50,44  L 51,44  L 51,17  Z  " style="fill:rgb(166, 130, 77); fill-opacity:1.000; stroke:none;" />
 <path d="  M 13,57  L 18,57  L 18,56  L 13,56  Z  " style="fill:rgb(166, 130, 77); fill-opacity:1.000; stroke:none;" />
 <path d="  M 14,4  L 15,4  L 15,5  L 16,5  L 16,3  L 15,3  L 15,1  L 14,1  Z  " style="fill:rgb(166, 130, 77); fill-opacity:1.000; stroke:none;" />
 <path d="  M 14,6  L 15,6  L 15,5  L 14,5  Z  " style="fill:rgb(166, 130, 77); fill-opacity:1.000; stroke:none;" />
 <path d="  M 15,11  L 15,12  L 17,12  L 17,11  Z  " style="fill:rgb(166, 130, 77); fill-opacity:1.000; stroke:none;" />
 <path d="  M 16,49  L 15,49  L 15,55  L 16,55  Z  " style="fill:rgb(166, 130, 77); fill-opacity:1.000; stroke:none;" />
 <path d="  M 16,62  L 16,60  L 15,60  L 15,63  L 17,63  L 17,62  Z  " style="fill:rgb(166, 130, 77); fill-opacity:1.000; stroke:none;" />
 <path d="  M 18,6  L 18,8  L 20,8  L 20,7  L 19,7  L 19,5  L 18,5  L 18,4  L 19,4  L 19,2  L 18,2  L 18,3  L 17,3  L 17,5  L 16,5  L 16,6  Z  " style="fill:rgb(166, 130, 77); fill-opacity:1.000; stroke:none;" />
 <path d="  M 17,16  L 18,16  L 18,12  L 17,12  Z  " style="fill:rgb(166, 130, 77); fill-opacity:1.000; stroke:none;" />
 <path d="  M 18,50  L 19,50  L 19,49  L 17,49  L 17,53  L 18,53  Z  " style="fill:rgb(166, 130, 77); fill-opacity:1.000; stroke:none;" />
 <path d="  M 18,54  L 19,54  L 19,53  L 18,53  Z  " style="fill:rgb(166, 130, 77); fill-opacity:1.000; stroke:none;" />
 <path d="  M 20,62  L 20,56  L 19,56  L 19,61  L 18,61  L 18,63  L 19,63  L 19,62  Z  " style="fill:rgb(166, 130, 77); fill-opacity:1.000; stroke:none;" />
 <path d="  M 21,57  L 22,57  L 22,54  L 23,54  L 23,53  L 22,53  L 22,52  L 21,52  L 21,50  L 22,50  L 22,49  L 20,49  L 20,54  L 21,54  Z  " style="fill:rgb(166, 130, 77); fill-opacity:1.000; stroke:none;" />
 <path d="  M 23,2  L 22,2  L 22,1  L 21,1  L 21,3  L 22,3  L 22,5  L 23,5  Z  " style="fill:rgb(166, 130, 77); fill-opacity:1.000; stroke:none;" />
 <path d="  M 23,11  L 22,11  L 22,15  L 23,15  Z  " style="fill:rgb(166, 130, 77); fill-opacity:1.000; stroke:none;" />
 <path d="  M 22,30  L 23,30  L 23,24  L 22,24  Z  " style="fill:rgb(166, 130, 77); fill-opacity:1.000; stroke:none;" />
 <path d="  M 23,32  L 23,31  L 22,31  L 22,32  Z  " style="fill:rgb(166, 130, 77); fill-opacity:1.000; stroke:none;" />
 <path d="  M 23,33  L 22,33  L 22,36  L 23,36  Z  " style="fill:rgb(166, 130, 77); fill-opacity:1.000; stroke:none;" />
 <path d="  M 22,39  L 23,39  L 23,38  L 22,38  Z  " style="fill:rgb(166, 130, 77); fill-opacity:1.000; stroke:none;" />
 <path d="  M 23,42  L 22,42  L 22,44  L 23,44  Z  " style="fill:rgb(166, 130, 77); fill-opacity:1.000; stroke:none;" />
 <path d="  M 22,61  L 23,61  L 23,57  L 22,57  Z  " style="fill:rgb(166, 130, 77); fill-opacity:1.000; stroke:none;" />
 <path d="  M 26,7  L 26,6  L 25,6  L 25,7  L 23,7  L 23,8  L 27,8  L 27,7  Z  " style="fill:rgb(166, 130, 77); fill-opacity:1.000; stroke:none;" />
 <path d="  M 24,16  L 24,15  L 23,15  L 23,16  Z  " style="fill:rgb(166, 130, 77); fill-opacity:1.000; stroke:none;" />
 <path d="  M 24,52  L 23,52  L 23,53  L 24,53  Z  " style="fill:rgb(166, 130, 77); fill-opacity:1.000; stroke:none;" />
 <path d="  M 25,3  L 24,3  L 24,6  L 25,6  Z  " style="fill:rgb(166, 130, 77); fill-opacity:1.000; stroke:none;" />
 <path d="  M 24,52  L 25,52  L 25,50  L 26,50  L 26,48  L 25,48  L 25,49  L 24,49  Z  " style="fill:rgb(166, 130, 77); fill-opacity:1.000; stroke:none;" />
 <path d="  M 25,2  L 25,3  L 26,3  L 26,2  Z  " style="fill:rgb(166, 130, 77); fill-opacity:1.000; stroke:none;" />
 <path d="  M 26,54  L 25,54  L 25,60  L 26,60  Z  " style="fill:rgb(166, 130, 77); fill-opacity:1.000; stroke:none;" />
 <path d="  M 27,12  L 26,12  L 26,14  L 27,14  L 27,16  L 29,16  L 29,15  L 28,15  L 28,12  L 29,12  L 29,11  L 27,11  Z  " style="fill:rgb(166, 130, 77); fill-opacity:1.000; stroke:none;" />
 <path d="  M 27,54  L 27,55  L 28,55  L 28,56  L 29,56  L 29,59  L 30,59  L 30,55  L 29,55  L 29,54  L 28,54  L 28,52  L 27,52  L 27,53  L 26,53  L 26,54  Z  " style="fill:rgb(166, 130, 77); fill-opacity:1.000; stroke:none;" />
 <path d="  M 26,60  L 26,63  L 27,63  L 27,62  L 29,62  L 29,61  L 28,61  L 28,58  L 27,58  L 27,60  Z  " style="fill:rgb(166, 130, 77); fill-opacity:1.000; stroke:none;" />
 <path d="  M 29,5  L 28,5  L 28,3  L 27,3  L 27,6  L 28,6  L 28,7  L 29,7  L 29,6  L 30,6  L 30,5  L 31,5  L 31,3  L 30,3  L 30,4  L 29,4  Z  " style="fill:rgb(166, 130, 77); fill-opacity:1.000; stroke:none;" />
 <path d="  M 30,50  L 29,50  L 29,48  L 28,48  L 28,51  L 29,51  L 29,54  L 30,54  Z  " style="fill:rgb(166, 130, 77); fill-opacity:1.000; stroke:none;" />
 <path d="  M 30,8  L 31,8  L 31,6  L 30,6  Z  " style="fill:rgb(166, 130, 77); fill-opacity:1.000; stroke:none;" />
 <path d="  M 32,61  L 32,58  L 31,58  L 31,60  L 30,60  L 30,63  L 31,63  L 31,61  Z  " style="fill:rgb(166, 130, 77); fill-opacity:1.000; stroke:none;" />
 <path d="  M 31,3  L 32,3  L 32,1  L 31,1  Z  " style="fill:rgb(166, 130, 77); fill-opacity:1.000; stroke:none;" />
 <path d="  M 33,13  L 33,12  L 31,12  L 31,14  L 32,14  L 32,13  Z  " style="fill:rgb(166, 130, 77); fill-opacity:1.000; stroke:none;" />
 <path d="  M 31,29  L 32,29  L 32,24  L 31,24  Z  " style="fill:rgb(166, 130, 77); fill-opacity:1.000; stroke:none;" />
 <path d="  M 31,30  L 31,31  L 32,31  L 32,30  Z  " style="fill:rgb(166, 130, 77); fill-opacity:1.000; stroke:none;" />
 <path d="  M 32,33  L 31,33  L 31,40  L 32,40  Z  " style="fill:rgb(166, 130, 77); fill-opacity:1.000; stroke:none;" />
 <path d="  M 32,49  L 31,49  L 31,51  L 32,51  Z  " style="fill:rgb(166, 130, 77); fill-opacity:1.000; stroke:none;" />
 <path d="  M 32,53  L 31,53  L 31,57  L 32,57  L 32,54  L 33,54  L 33,51  L 32,51  Z  " style="fill:rgb(166, 130, 77); fill-opacity:1.000; stroke:none;" />
 <path d="  M 34,8  L 34,7  L 33,7  L 33,6  L 34,6  L 34,5  L 33,5  L 33,4  L 32,4  L 32,8  Z  " style="fill:rgb(166, 130, 77); fill-opacity:1.000; stroke:none;" />
 <path d="  M 33,14  L 32,14  L 32,16  L 33,16  Z  " style="fill:rgb(166, 130, 77); fill-opacity:1.000; stroke:none;" />
 <path d="  M 34,3  L 33,3  L 33,4  L 34,4  Z  " style="fill:rgb(166, 130, 77); fill-opacity:1.000; stroke:none;" />
 <path d="  M 33,49  L 34,49  L 34,48  L 33,48  Z  " style="fill:rgb(166, 130, 77); fill-opacity:1.000; stroke:none;" />
 <path d="  M 34,54  L 33,54  L 33,58  L 34,58  L 34,60  L 35,60  L 35,57  L 34,57  Z  " style="fill:rgb(166, 130, 77); fill-opacity:1.000; stroke:none;" />
 <path d="  M 35,3  L 35,1  L 34,1  L 34,3  Z  " style="fill:rgb(166, 130, 77); fill-opacity:1.000; stroke:none;" />
 <path d="  M 37,49  L 37,51  L 36,51  L 36,49  L 34,49  L 34,51  L 35,51  L 35,54  L 36,54  L 36,53  L 37,53  L 37,52  L 38,52  L 38,55  L 39,55  L 39,51  L 40,51  L 40,48  L 39,48  L 39,50  L 38,50  L 38,49  Z  " style="fill:rgb(166, 130, 77); fill-opacity:1.000; stroke:none;" />
 <path d="  M 36,60  L 35,60  L 35,62  L 36,62  Z  " style="fill:rgb(166, 130, 77); fill-opacity:1.000; stroke:none;" />
 <path d="  M 38,6  L 38,5  L 37,5  L 37,3  L 39,3  L 39,1  L 38,1  L 38,2  L 36,2  L 36,6  L 37,6  L 37,7  L 38,7  L 38,8  L 39,8  L 39,6  Z  " style="fill:rgb(166, 130, 77); fill-opacity:1.000; stroke:none;" />
 <path d="  M 36,57  L 37,57  L 37,54  L 36,54  Z  " style="fill:rgb(166, 130, 77); fill-opacity:1.000; stroke:none;" />
 <path d="  M 37,16  L 38,16  L 38,15  L 39,15  L 39,14  L 37,14  Z  " style="fill:rgb(166, 130, 77); fill-opacity:1.000; stroke:none;" />
 <path d="  M 37,57  L 37,58  L 38,58  L 38,57  Z  " style="fill:rgb(166, 130, 77); fill-opacity:1.000; stroke:none;" />
 <path d="  M 39,57  L 39,56  L 38,56  L 38,57  Z  " style="fill:rgb(166, 130, 77); fill-opacity:1.000; stroke:none;" />
 <path d="  M 39,14  L 40,14  L 40,13  L 39,13  Z  " style="fill:rgb(166, 130, 77); fill-opacity:1.000; stroke:none;" />
 <path d="  M 40,56  L 40,55  L 39,55  L 39,56  Z  " style="fill:rgb(166, 130, 77); fill-opacity:1.000; stroke:none;" />
 <path d="  M 39,61  L 39,62  L 40,62  L 40,61  Z  " style="fill:rgb(166, 130, 77); fill-opacity:1.000; stroke:none;" />
 <path d="  M 41,51  L 40,51  L 40,53  L 41,53  L 41,52  L 42,52  L 42,53  L 43,53  L 43,51  L 44,51  L 44,49  L 43,49  L 43,50  L 42,50  L 42,49  L 41,49  Z  " style="fill:rgb(166, 130, 77); fill-opacity:1.000; stroke:none;" />
 <path d="  M 40,59  L 41,59  L 41,56  L 40,56  Z  " style="fill:rgb(166, 130, 77); fill-opacity:1.000; stroke:none;" />
 <path d="  M 43,5  L 42,5  L 42,3  L 43,3  L 43,1  L 42,1  L 42,2  L 41,2  L 41,6  L 42,6  L 42,8  L 45,8  L 45,6  L 44,6  L 44,7  L 43,7  Z  " style="fill:rgb(166, 130, 77); fill-opacity:1.000; stroke:none;" />
 <path d="  M 42,53  L 41,53  L 41,56  L 42,56  Z  " style="fill:rgb(166, 130, 77); fill-opacity:1.000; stroke:none;" />
 <path d="  M 43,13  L 44,13  L 44,12  L 42,12  L 42,15  L 43,15  L 43,16  L 45,16  L 45,15  L 44,15  L 44,14  L 43,14  Z  " style="fill:rgb(166, 130, 77); fill-opacity:1.000; stroke:none;" />
 <path d="  M 43,56  L 42,56  L 42,59  L 43,59  Z  " style="fill:rgb(166, 130, 77); fill-opacity:1.000; stroke:none;" />
 <path d="  M 42,63  L 44,63  L 44,59  L 43,59  L 43,62  L 42,62  Z  " style="fill:rgb(166, 130, 77); fill-opacity:1.000; stroke:none;" />
 <path d="  M 44,24  L 43,24  L 43,27  L 44,27  Z  " style="fill:rgb(166, 130, 77); fill-opacity:1.000; stroke:none;" />
 <path d="  M 43,28  L 43,29  L 44,29  L 44,28  Z  " style="fill:rgb(166, 130, 77); fill-opacity:1.000; stroke:none;" />
 <path d="  M 43,44  L 44,44  L 44,40  L 43,40  Z  " style="fill:rgb(166, 130, 77); fill-opacity:1.000; stroke:none;" />
 <path d="  M 45,12  L 45,11  L 44,11  L 44,12  Z  " style="fill:rgb(166, 130, 77); fill-opacity:1.000; stroke:none;" />
 <path d="  M 46,55  L 46,53  L 45,53  L 45,52  L 44,52  L 44,59  L 45,59  L 45,55  Z  " style="fill:rgb(166, 130, 77); fill-opacity:1.000; stroke:none;" />
 <path d="  M 45,2  L 45,3  L 46,3  L 46,2  Z  " style="fill:rgb(166, 130, 77); fill-opacity:1.000; stroke:none;" />
 <path d="  M 46,59  L 45,59  L 45,60  L 46,60  Z  " style="fill:rgb(166, 130, 77); fill-opacity:1.000; stroke:none;" />
 <path d="  M 52,7  L 51,7  L 51,6  L 50,6  L 50,5  L 49,5  L 49,7  L 48,7  L 48,6  L 47,6  L 47,3  L 46,3  L 46,8  L 54,8  L 54,6  L 53,6  L 53,4  L 51,4  L 51,5  L 52,5  Z  " style="fill:rgb(166, 130, 77); fill-opacity:1.000; stroke:none;" />
 <path d="  M 46,15  L 47,15  L 47,13  L 46,13  Z  " style="fill:rgb(166, 130, 77); fill-opacity:1.000; stroke:none;" />
 <path d="  M 50,52  L 50,51  L 49,51  L 49,50  L 48,50  L 48,48  L 47,48  L 47,50  L 46,50  L 46,53  L 47,53  L 47,51  L 48,51  L 48,52  Z  " style="fill:rgb(166, 130, 77); fill-opacity:1.000; stroke:none;" />
 <path d="  M 46,56  L 46,57  L 51,57  L 51,56  Z  " style="fill:rgb(166, 130, 77); fill-opacity:1.000; stroke:none;" />
 <path d="  M 46,60  L 46,61  L 47,61  L 47,60  Z  " style="fill:rgb(166, 130, 77); fill-opacity:1.000; stroke:none;" />
 <path d="  M 48,3  L 48,1  L 47,1  L 47,3  Z  " style="fill:rgb(166, 130, 77); fill-opacity:1.000; stroke:none;" />
 <path d="  M 47,15  L 47,16  L 49,16  L 49,12  L 48,12  L 48,15  Z  " style="fill:rgb(166, 130, 77); fill-opacity:1.000; stroke:none;" />
 <path d="  M 48,61  L 49,61  L 49,63  L 50,63  L 50,60  L 49,60  L 49,58  L 47,58  L 47,59  L 48,59  Z  " style="fill:rgb(166, 130, 77); fill-opacity:1.000; stroke:none;" />
 <path d="  M 50,12  L 50,11  L 49,11  L 49,12  Z  " style="fill:rgb(166, 130, 77); fill-opacity:1.000; stroke:none;" />
 <path d="  M 50,54  L 50,53  L 49,53  L 49,54  Z  " style="fill:rgb(166, 130, 77); fill-opacity:1.000; stroke:none;" />
 <path d="  M 51,13  L 51,15  L 52,15  L 52,13  Z  " style="fill:rgb(166, 130, 77); fill-opacity:1.000; stroke:none;" />
 <path d="  M 51,61  L 52,61  L 52,60  L 51,60  Z  " style="fill:rgb(166, 130, 77); fill-opacity:1.000; stroke:none;" />
 <path d="  M 53,25  L 54,25  L 54,22  L 55,22  L 55,19  L 54,19  L 54,17  L 53,17  L 53,15  L 52,15  L 52,18  L 53,18  Z  " style="fill:rgb(166, 130, 77); fill-opacity:1.000; stroke:none;" />
 <path d="  M 52,30  L 53,30  L 53,25  L 52,25  Z  " style="fill:rgb(166, 130, 77); fill-opacity:1.000; stroke:none;" />
 <path d="  M 52,38  L 53,38  L 53,42  L 55,42  L 55,48  L 56,48  L 56,46  L 57,46  L 57,48  L 58,48  L 58,43  L 57,43  L 57,45  L 56,45  L 56,41  L 57,41  L 57,36  L 58,36  L 58,32  L 57,32  L 57,35  L 56,35  L 56,29  L 55,29  L 55,27  L 54,27  L 54,30  L 55,30  L 55,36  L 54,36  L 54,37  L 53,37  L 53,33  L 52,33  Z  M 54,37  L 56,37  L 56,38  L 55,38  L 55,40  L 54,40  Z  " style="fill:rgb(166, 130, 77); fill-opacity:1.000; stroke:none;" />
 <path d="  M 53,48  L 54,48  L 54,45  L 53,45  L 53,43  L 52,43  L 52,46  L 53,46  Z  " style="fill:rgb(166, 130, 77); fill-opacity:1.000; stroke:none;" />
 <path d="  M 55,57  L 56,57  L 56,59  L 57,59  L 57,61  L 58,61  L 58,60  L 59,60  L 59,58  L 61,58  L 61,59  L 62,59  L 62,56  L 63,56  L 63,47  L 62,47  L 62,51  L 61,51  L 61,48  L 60,48  L 60,52  L 61,52  L 61,55  L 60,55  L 60,56  L 58,56  L 58,54  L 57,54  L 57,55  L 56,55  L 56,53  L 55,53  L 55,54  L 54,54  L 54,53  L 53,53  L 53,52  L 52,52  L 52,54  L 53,54  L 53,55  L 54,55  L 54,60  L 55,60  Z  M 57,57  L 58,57  L 58,59  L 57,59  Z  " style="fill:rgb(166, 130, 77); fill-opacity:1.000; stroke:none;" />
 <path d="  M 53,60  L 53,57  L 52,57  L 52,60  Z  " style="fill:rgb(166, 130, 77); fill-opacity:1.000; stroke:none;" />
 <path d="  M 54,1  L 53,1  L 53,4  L 54,4  Z  " style="fill:rgb(166, 130, 77); fill-opacity:1.000; stroke:none;" />
 <path d="  M 54,33  L 54,31  L 53,31  L 53,33  Z  " style="fill:rgb(166, 130, 77); fill-opacity:1.000; stroke:none;" />
 <path d="  M 53,52  L 54,52  L 54,51  L 55,51  L 55,48  L 54,48  L 54,50  L 53,50  Z  " style="fill:rgb(166, 130, 77); fill-opacity:1.000; stroke:none;" />
 <path d="  M 55,4  L 55,5  L 56,5  L 56,8  L 57,8  L 57,7  L 58,7  L 58,6  L 57,6  L 57,5  L 58,5  L 58,2  L 57,2  L 57,4  Z  " style="fill:rgb(166, 130, 77); fill-opacity:1.000; stroke:none;" />
 <path d="  M 55,19  L 56,19  L 56,14  L 55,14  Z  " style="fill:rgb(166, 130, 77); fill-opacity:1.000; stroke:none;" />
 <path d="  M 56,60  L 55,60  L 55,62  L 57,62  L 57,61  L 56,61  Z  " style="fill:rgb(166, 130, 77); fill-opacity:1.000; stroke:none;" />
 <path d="  M 58,50  L 57,50  L 57,51  L 56,51  L 56,53  L 57,53  L 57,52  L 58,52  Z  " style="fill:rgb(166, 130, 77); fill-opacity:1.000; stroke:none;" />
 <path d="  M 61,6  L 61,7  L 62,7  L 62,5  L 61,5  L 61,4  L 60,4  L 60,2  L 59,2  L 59,5  L 60,5  L 60,6  Z  " style="fill:rgb(166, 130, 77); fill-opacity:1.000; stroke:none;" />
 <path d="  M 62,26  L 62,23  L 61,23  L 61,21  L 60,21  L 60,24  L 61,24  L 61,27  L 62,27  L 62,28  L 63,28  L 63,26  Z  " style="fill:rgb(166, 130, 77); fill-opacity:1.000; stroke:none;" />
 <path d="  M 60,36  L 61,36  L 61,37  L 62,37  L 62,39  L 63,39  L 63,36  L 62,36  L 62,34  L 61,34  L 61,30  L 60,30  Z  " style="fill:rgb(166, 130, 77); fill-opacity:1.000; stroke:none;" />
 <path d="  M 60,40  L 60,42  L 61,42  L 61,40  Z  " style="fill:rgb(166, 130, 77); fill-opacity:1.000; stroke:none;" />
 <path d="  M 61,45  L 60,45  L 60,47  L 61,47  L 61,46  L 62,46  L 62,42  L 61,42  Z  " style="fill:rgb(166, 130, 77); fill-opacity:1.000; stroke:none;" />
 <path d="  M 60,59  L 60,60  L 61,60  L 61,59  Z  " style="fill:rgb(166, 130, 77); fill-opacity:1.000; stroke:none;" />
 <path d="  M 61,29  L 61,30  L 62,30  L 62,29  Z  " style="fill:rgb(166, 130, 77); fill-opacity:1.000; stroke:none;" />
 <path d="  M 62,60  L 61,60  L 61,62  L 62,62  Z  " style="fill:rgb(166, 130, 77); fill-opacity:1.000; stroke:none;" />
 <path d="  M 62,5  L 63,5  L 63,1  L 62,1  Z  " style="fill:rgb(166, 130, 77); fill-opacity:1.000; stroke:none;" />
 <path d="  M 62,13  L 63,13  L 63,12  L 64,12  L 64,9  L 63,9  L 63,11  L 62,11  Z  " style="fill:rgb(166, 130, 77); fill-opacity:1.000; stroke:none;" />
 <path d="  M 63,16  L 62,16  L 62,21  L 63,21  Z  " style="fill:rgb(166, 130, 77); fill-opacity:1.000; stroke:none;" />
 <path d="  M 64,31  L 64,28  L 63,28  L 63,30  L 62,30  L 62,32  L 63,32  L 63,31  Z  " style="fill:rgb(166, 130, 77); fill-opacity:1.000; stroke:none;" />
 <path d="  M 64,64  L 64,62  L 63,62  L 63,63  L 62,63  L 62,64  Z  " style="fill:rgb(166, 130, 77); fill-opacity:1.000; stroke:none;" />
 <path d="  M 1,37  L 0,37  L 0,38  L 1,38  Z  " style="fill:rgb(184, 148, 95); fill-opacity:1.000; stroke:none;" />
 <path d="  M 0,47  L 0,48  L 1,48  L 1,47  Z  " style="fill:rgb(184, 148, 95); fill-opacity:1.000; stroke:none;" />
 <path d="  M 2,9  L 2,8  L 1,8  L 1,9  Z  " style="fill:rgb(184, 148, 95); fill-opacity:1.000; stroke:none;" />
 <path d="  M 2,15  L 1,15  L 1,18  L 2,18  Z  " style="fill:rgb(184, 148, 95); fill-opacity:1.000; stroke:none;" />
 <path d="  M 2,21  L 1,21  L 1,23  L 2,23  Z  " style="fill:rgb(184, 148, 95); fill-opacity:1.000; stroke:none;" />
 <path d="  M 1,54  L 2,54  L 2,52  L 3,52  L 3,51  L 2,51  L 2,48  L 1,48  Z  " style="fill:rgb(184, 148, 95); fill-opacity:1.000; stroke:none;" />
 <path d="  M 1,58  L 2,58  L 2,56  L 1,56  Z  " style="fill:rgb(184, 148, 95); fill-opacity:1.000; stroke:none;" />
 <path d="  M 3,9  L 2,9  L 2,14  L 3,14  Z  " style="fill:rgb(184, 148, 95); fill-opacity:1.000; stroke:none;" />
 <path d="  M 6,1  L 6,2  L 5,2  L 5,4  L 6,4  L 6,3  L 7,3  L 7,1  Z  " style="fill:rgb(184, 148, 95); fill-opacity:1.000; stroke:none;" />
 <path d="  M 12,11  L 12,10  L 6,10  L 6,18  L 7,18  L 7,11  L 8,11  L 8,13  L 9,13  L 9,11  Z  " style="fill:rgb(184, 148, 95); fill-opacity:1.000; stroke:none;" />
 <path d="  M 7,20  L 6,20  L 6,30  L 7,30  L 7,25  L 9,25  L 9,23  L 10,23  L 10,20  L 8,20  L 8,23  L 7,23  Z  " style="fill:rgb(184, 148, 95); fill-opacity:1.000; stroke:none;" />
 <path d="  M 6,44  L 7,44  L 7,40  L 8,40  L 8,37  L 7,37  L 7,36  L 6,36  Z  " style="fill:rgb(184, 148, 95); fill-opacity:1.000; stroke:none;" />
 <path d="  M 9,7  L 10,7  L 10,4  L 9,4  L 9,2  L 8,2  L 8,5  L 9,5  Z  " style="fill:rgb(184, 148, 95); fill-opacity:1.000; stroke:none;" />
 <path d="  M 10,32  L 9,32  L 9,31  L 8,31  L 8,33  L 9,33  L 9,35  L 10,35  Z  " style="fill:rgb(184, 148, 95); fill-opacity:1.000; stroke:none;" />
 <path d="  M 9,36  L 9,35  L 8,35  L 8,36  Z  " style="fill:rgb(184, 148, 95); fill-opacity:1.000; stroke:none;" />
 <path d="  M 11,45  L 10,45  L 10,49  L 9,49  L 9,51  L 8,51  L 8,58  L 9,58  L 9,52  L 10,52  L 10,50  L 11,50  Z  " style="fill:rgb(184, 148, 95); fill-opacity:1.000; stroke:none;" />
 <path d="  M 9,16  L 9,17  L 10,17  L 10,16  Z  " style="fill:rgb(184, 148, 95); fill-opacity:1.000; stroke:none;" />
 <path d="  M 9,27  L 10,27  L 10,28  L 11,28  L 11,26  L 10,26  L 10,25  L 9,25  Z  " style="fill:rgb(184, 148, 95); fill-opacity:1.000; stroke:none;" />
 <path d="  M 9,38  L 10,38  L 10,36  L 9,36  Z  " style="fill:rgb(184, 148, 95); fill-opacity:1.000; stroke:none;" />
 <path d="  M 10,62  L 10,59  L 9,59  L 9,62  Z  " style="fill:rgb(184, 148, 95); fill-opacity:1.000; stroke:none;" />
 <path d="  M 10,39  L 10,43  L 11,43  L 11,39  Z  " style="fill:rgb(184, 148, 95); fill-opacity:1.000; stroke:none;" />
 <path d="  M 11,60  L 12,60  L 12,63  L 13,63  L 13,59  L 12,59  L 12,57  L 11,57  Z  " style="fill:rgb(184, 148, 95); fill-opacity:1.000; stroke:none;" />
 <path d="  M 13,47  L 13,55  L 12,55  L 12,56  L 14,56  L 14,48  L 19,48  L 19,52  L 18,52  L 18,53  L 20,53  L 20,48  L 50,48  L 50,56  L 52,56  L 52,55  L 51,55  L 51,47  Z  " style="fill:rgb(184, 148, 95); fill-opacity:1.000; stroke:none;" />
 <path d="  M 27,10  L 14,10  L 14,11  L 19,11  L 19,14  L 20,14  L 20,16  L 22,16  L 22,15  L 21,15  L 21,13  L 20,13  L 20,11  L 27,11  Z  " style="fill:rgb(184, 148, 95); fill-opacity:1.000; stroke:none;" />
 <path d="  M 41,22  L 41,23  L 46,23  L 46,24  L 48,24  L 48,25  L 49,25  L 49,26  L 50,26  L 50,22  L 49,22  L 49,21  L 48,21  L 48,20  L 47,20  L 47,19  L 44,19  L 44,18  L 43,18  L 43,19  L 40,19  L 40,20  L 37,20  L 37,19  L 36,19  L 36,18  L 32,18  L 32,19  L 30,19  L 30,20  L 27,20  L 27,19  L 24,19  L 24,18  L 22,18  L 22,19  L 17,19  L 17,20  L 16,20  L 16,22  L 15,22  L 15,27  L 14,27  L 14,44  L 15,44  L 15,39  L 16,39  L 16,34  L 17,34  L 17,30  L 18,30  L 18,26  L 19,26  L 19,25  L 20,25  L 20,24  L 21,24  L 21,23  L 24,23  L 24,22  Z  " style="fill:rgb(184, 148, 95); fill-opacity:1.000; stroke:none;" />
 <path d="  M 16,13  L 17,13  L 17,12  L 15,12  L 15,15  L 16,15  Z  " style="fill:rgb(184, 148, 95); fill-opacity:1.000; stroke:none;" />
 <path d="  M 18,2  L 19,2  L 19,1  L 18,1  Z  " style="fill:rgb(184, 148, 95); fill-opacity:1.000; stroke:none;" />
 <path d="  M 18,54  L 18,55  L 19,55  L 19,56  L 20,56  L 20,54  Z  " style="fill:rgb(184, 148, 95); fill-opacity:1.000; stroke:none;" />
 <path d="  M 19,7  L 20,7  L 20,2  L 19,2  Z  " style="fill:rgb(184, 148, 95); fill-opacity:1.000; stroke:none;" />
 <path d="  M 20,59  L 21,59  L 21,57  L 20,57  Z  " style="fill:rgb(184, 148, 95); fill-opacity:1.000; stroke:none;" />
 <path d="  M 21,4  L 21,5  L 22,5  L 22,4  Z  " style="fill:rgb(184, 148, 95); fill-opacity:1.000; stroke:none;" />
 <path d="  M 21,12  L 21,13  L 22,13  L 22,12  Z  " style="fill:rgb(184, 148, 95); fill-opacity:1.000; stroke:none;" />
 <path d="  M 23,5  L 22,5  L 22,8  L 23,8  Z  " style="fill:rgb(184, 148, 95); fill-opacity:1.000; stroke:none;" />
 <path d="  M 23,30  L 22,30  L 22,31  L 23,31  Z  " style="fill:rgb(184, 148, 95); fill-opacity:1.000; stroke:none;" />
 <path d="  M 23,38  L 23,36  L 22,36  L 22,38  Z  " style="fill:rgb(184, 148, 95); fill-opacity:1.000; stroke:none;" />
 <path d="  M 24,52  L 24,53  L 23,53  L 23,56  L 22,56  L 22,57  L 24,57  L 24,54  L 25,54  L 25,52  Z  " style="fill:rgb(184, 148, 95); fill-opacity:1.000; stroke:none;" />
 <path d="  M 23,4  L 24,4  L 24,1  L 23,1  Z  " style="fill:rgb(184, 148, 95); fill-opacity:1.000; stroke:none;" />
 <path d="  M 24,58  L 23,58  L 23,63  L 25,63  L 25,62  L 24,62  Z  " style="fill:rgb(184, 148, 95); fill-opacity:1.000; stroke:none;" />
 <path d="  M 24,15  L 25,15  L 25,12  L 24,12  Z  " style="fill:rgb(184, 148, 95); fill-opacity:1.000; stroke:none;" />
 <path d="  M 26,16  L 26,15  L 25,15  L 25,16  Z  " style="fill:rgb(184, 148, 95); fill-opacity:1.000; stroke:none;" />
 <path d="  M 28,25  L 28,24  L 27,24  L 27,25  Z  " style="fill:rgb(184, 148, 95); fill-opacity:1.000; stroke:none;" />
 <path d="  M 27,30  L 28,30  L 28,27  L 27,27  Z  " style="fill:rgb(184, 148, 95); fill-opacity:1.000; stroke:none;" />
 <path d="  M 28,36  L 27,36  L 27,44  L 28,44  Z  " style="fill:rgb(184, 148, 95); fill-opacity:1.000; stroke:none;" />
 <path d="  M 28,13  L 29,13  L 29,12  L 28,12  Z  " style="fill:rgb(184, 148, 95); fill-opacity:1.000; stroke:none;" />
 <path d="  M 35,11  L 35,13  L 34,13  L 34,14  L 33,14  L 33,16  L 34,16  L 34,15  L 35,15  L 35,14  L 36,14  L 36,15  L 37,15  L 37,13  L 36,13  L 36,11  L 45,11  L 45,10  L 29,10  L 29,11  Z  " style="fill:rgb(184, 148, 95); fill-opacity:1.000; stroke:none;" />
 <path d="  M 29,15  L 30,15  L 30,13  L 29,13  Z  " style="fill:rgb(184, 148, 95); fill-opacity:1.000; stroke:none;" />
 <path d="  M 30,59  L 31,59  L 31,54  L 30,54  Z  " style="fill:rgb(184, 148, 95); fill-opacity:1.000; stroke:none;" />
 <path d="  M 31,30  L 32,30  L 32,29  L 31,29  Z  " style="fill:rgb(184, 148, 95); fill-opacity:1.000; stroke:none;" />
 <path d="  M 32,31  L 31,31  L 31,33  L 32,33  Z  " style="fill:rgb(184, 148, 95); fill-opacity:1.000; stroke:none;" />
 <path d="  M 33,26  L 33,24  L 32,24  L 32,26  Z  " style="fill:rgb(184, 148, 95); fill-opacity:1.000; stroke:none;" />
 <path d="  M 32,44  L 38,44  L 38,38  L 37,38  L 37,42  L 36,42  L 36,40  L 35,40  L 35,43  L 34,43  L 34,41  L 33,41  L 33,33  L 32,33  Z  " style="fill:rgb(184, 148, 95); fill-opacity:1.000; stroke:none;" />
 <path d="  M 32,61  L 33,61  L 33,60  L 32,60  Z  " style="fill:rgb(184, 148, 95); fill-opacity:1.000; stroke:none;" />
 <path d="  M 33,62  L 34,62  L 34,61  L 33,61  Z  " style="fill:rgb(184, 148, 95); fill-opacity:1.000; stroke:none;" />
 <path d="  M 36,61  L 37,61  L 37,62  L 38,62  L 38,60  L 37,60  L 37,59  L 38,59  L 38,58  L 36,58  Z  " style="fill:rgb(184, 148, 95); fill-opacity:1.000; stroke:none;" />
 <path d="  M 39,6  L 40,6  L 40,3  L 38,3  L 38,4  L 39,4  Z  " style="fill:rgb(184, 148, 95); fill-opacity:1.000; stroke:none;" />
 <path d="  M 39,13  L 38,13  L 38,14  L 39,14  Z  " style="fill:rgb(184, 148, 95); fill-opacity:1.000; stroke:none;" />
 <path d="  M 38,15  L 38,16  L 39,16  L 39,15  Z  " style="fill:rgb(184, 148, 95); fill-opacity:1.000; stroke:none;" />
 <path d="  M 38,58  L 39,58  L 39,57  L 38,57  Z  " style="fill:rgb(184, 148, 95); fill-opacity:1.000; stroke:none;" />
 <path d="  M 39,2  L 40,2  L 40,1  L 39,1  Z  " style="fill:rgb(184, 148, 95); fill-opacity:1.000; stroke:none;" />
 <path d="  M 41,13  L 41,12  L 39,12  L 39,13  Z  " style="fill:rgb(184, 148, 95); fill-opacity:1.000; stroke:none;" />
 <path d="  M 50,34  L 49,34  L 49,42  L 48,42  L 48,43  L 47,43  L 47,42  L 46,42  L 46,40  L 45,40  L 45,36  L 44,36  L 44,34  L 43,34  L 43,32  L 42,32  L 42,28  L 41,28  L 41,33  L 42,33  L 42,36  L 43,36  L 43,38  L 44,38  L 44,41  L 45,41  L 45,43  L 46,43  L 46,44  L 50,44  Z  " style="fill:rgb(184, 148, 95); fill-opacity:1.000; stroke:none;" />
 <path d="  M 42,53  L 42,56  L 43,56  L 43,53  Z  " style="fill:rgb(184, 148, 95); fill-opacity:1.000; stroke:none;" />
 <path d="  M 43,60  L 43,59  L 42,59  L 42,60  Z  " style="fill:rgb(184, 148, 95); fill-opacity:1.000; stroke:none;" />
 <path d="  M 44,2  L 43,2  L 43,7  L 44,7  Z  " style="fill:rgb(184, 148, 95); fill-opacity:1.000; stroke:none;" />
 <path d="  M 44,28  L 44,27  L 43,27  L 43,28  Z  " style="fill:rgb(184, 148, 95); fill-opacity:1.000; stroke:none;" />
 <path d="  M 44,29  L 43,29  L 43,31  L 44,31  Z  " style="fill:rgb(184, 148, 95); fill-opacity:1.000; stroke:none;" />
 <path d="  M 44,51  L 43,51  L 43,53  L 44,53  Z  " style="fill:rgb(184, 148, 95); fill-opacity:1.000; stroke:none;" />
 <path d="  M 45,51  L 45,50  L 44,50  L 44,51  Z  " style="fill:rgb(184, 148, 95); fill-opacity:1.000; stroke:none;" />
 <path d="  M 47,15  L 46,15  L 46,13  L 47,13  L 47,12  L 45,12  L 45,16  L 47,16  Z  " style="fill:rgb(184, 148, 95); fill-opacity:1.000; stroke:none;" />
 <path d="  M 46,10  L 46,11  L 54,11  L 54,12  L 55,12  L 55,11  L 57,11  L 57,14  L 56,14  L 56,15  L 57,15  L 57,17  L 58,17  L 58,10  Z  " style="fill:rgb(184, 148, 95); fill-opacity:1.000; stroke:none;" />
 <path d="  M 51,1  L 49,1  L 49,3  L 50,3  L 50,6  L 51,6  L 51,7  L 52,7  L 52,5  L 51,5  Z  " style="fill:rgb(184, 148, 95); fill-opacity:1.000; stroke:none;" />
 <path d="  M 53,18  L 52,18  L 52,19  L 53,19  Z  " style="fill:rgb(184, 148, 95); fill-opacity:1.000; stroke:none;" />
 <path d="  M 53,47  L 53,46  L 52,46  L 52,47  Z  " style="fill:rgb(184, 148, 95); fill-opacity:1.000; stroke:none;" />
 <path d="  M 53,51  L 52,51  L 52,52  L 53,52  Z  " style="fill:rgb(184, 148, 95); fill-opacity:1.000; stroke:none;" />
 <path d="  M 53,44  L 54,44  L 54,42  L 53,42  Z  " style="fill:rgb(184, 148, 95); fill-opacity:1.000; stroke:none;" />
 <path d="  M 53,52  L 53,53  L 54,53  L 54,54  L 55,54  L 55,51  L 54,51  L 54,52  Z  " style="fill:rgb(184, 148, 95); fill-opacity:1.000; stroke:none;" />
 <path d="  M 54,55  L 53,55  L 53,56  L 54,56  Z  " style="fill:rgb(184, 148, 95); fill-opacity:1.000; stroke:none;" />
 <path d="  M 55,23  L 54,23  L 54,27  L 55,27  Z  " style="fill:rgb(184, 148, 95); fill-opacity:1.000; stroke:none;" />
 <path d="  M 55,30  L 54,30  L 54,36  L 55,36  Z  " style="fill:rgb(184, 148, 95); fill-opacity:1.000; stroke:none;" />
 <path d="  M 55,47  L 54,47  L 54,48  L 55,48  Z  " style="fill:rgb(184, 148, 95); fill-opacity:1.000; stroke:none;" />
 <path d="  M 56,12  L 55,12  L 55,14  L 56,14  Z  " style="fill:rgb(184, 148, 95); fill-opacity:1.000; stroke:none;" />
 <path d="  M 57,30  L 58,30  L 58,18  L 57,18  L 57,21  L 55,21  L 55,23  L 56,23  L 56,22  L 57,22  Z  " style="fill:rgb(184, 148, 95); fill-opacity:1.000; stroke:none;" />
 <path d="  M 56,29  L 56,27  L 55,27  L 55,29  Z  " style="fill:rgb(184, 148, 95); fill-opacity:1.000; stroke:none;" />
 <path d="  M 57,41  L 56,41  L 56,42  L 57,42  Z  " style="fill:rgb(184, 148, 95); fill-opacity:1.000; stroke:none;" />
 <path d="  M 58,37  L 57,37  L 57,40  L 58,40  Z  " style="fill:rgb(184, 148, 95); fill-opacity:1.000; stroke:none;" />
 <path d="  M 60,5  L 59,5  L 59,4  L 58,4  L 58,7  L 60,7  Z  " style="fill:rgb(184, 148, 95); fill-opacity:1.000; stroke:none;" />
 <path d="  M 61,3  L 62,3  L 62,2  L 60,2  L 60,4  L 61,4  Z  " style="fill:rgb(184, 148, 95); fill-opacity:1.000; stroke:none;" />
 <path d="  M 60,37  L 60,40  L 61,40  L 61,39  L 62,39  L 62,37  Z  " style="fill:rgb(184, 148, 95); fill-opacity:1.000; stroke:none;" />
 <path d="  M 61,42  L 60,42  L 60,45  L 61,45  Z  " style="fill:rgb(184, 148, 95); fill-opacity:1.000; stroke:none;" />
 <path d="  M 61,48  L 61,47  L 60,47  L 60,48  Z  " style="fill:rgb(184, 148, 95); fill-opacity:1.000; stroke:none;" />
 <path d="  M 61,23  L 62,23  L 62,16  L 61,16  Z  " style="fill:rgb(184, 148, 95); fill-opacity:1.000; stroke:none;" />
 <path d="  M 62,27  L 61,27  L 61,29  L 62,29  L 62,30  L 63,30  L 63,28  L 62,28  Z  " style="fill:rgb(184, 148, 95); fill-opacity:1.000; stroke:none;" />
 <path d="  M 61,34  L 63,34  L 63,32  L 62,32  L 62,30  L 61,30  Z  " style="fill:rgb(184, 148, 95); fill-opacity:1.000; stroke:none;" />
 <path d="  M 62,11  L 63,11  L 63,9  L 62,9  Z  " style="fill:rgb(184, 148, 95); fill-opacity:1.000; stroke:none;" />
 <path d="  M 62,13  L 62,16  L 63,16  L 63,13  Z  " style="fill:rgb(184, 148, 95); fill-opacity:1.000; stroke:none;" />
 <path d="  M 62,25  L 62,26  L 63,26  L 63,25  Z  " style="fill:rgb(184, 148, 95); fill-opacity:1.000; stroke:none;" />
 <path d="  M 62,47  L 63,47  L 63,46  L 62,46  Z  " style="fill:rgb(184, 148, 95); fill-opacity:1.000; stroke:none;" />
 <path d="  M 63,49  L 64,49  L 64,47  L 63,47  Z  " style="fill:rgb(184, 148, 95); fill-opacity:1.000; stroke:none;" />
 <path d="  M 4,8  L 4,55  L 5,55  L 5,9  L 59,9  L 59,55  L 60,55  L 60,8  Z  " style="fill:rgb(126, 98, 55); fill-opacity:1.000; stroke:none;" />
 <path d="  M 52,46  L 52,44  L 51,44  L 51,45  L 13,45  L 13,44  L 12,44  L 12,46  Z  " style="fill:rgb(126, 98, 55); fill-opacity:1.000; stroke:none;" />
 <path d="  M 5,9  L 5,55  L 4,55  L 4,56  L 6,56  L 6,10  L 58,10  L 58,56  L 60,56  L 60,55  L 59,55  L 59,9  Z  " style="fill:rgb(150, 116, 65); fill-opacity:1.000; stroke:none;" />
 <path d="  M 12,16  L 12,44  L 13,44  L 13,17  L 51,17  L 51,44  L 52,44  L 52,16  Z  " style="fill:rgb(150, 116, 65); fill-opacity:1.000; stroke:none;" />
 <path d="  M 12,58  L 18,58  L 18,57  L 13,57  L 13,56  L 12,56  Z  " style="fill:rgb(150, 116, 65); fill-opacity:1.000; stroke:none;" />
 <path d="  M 13,44  L 13,45  L 51,45  L 51,44  Z  " style="fill:rgb(150, 116, 65); fill-opacity:1.000; stroke:none;" />
 <path d="  M 52,58  L 52,56  L 51,56  L 51,57  L 46,57  L 46,58  Z  " style="fill:rgb(150, 116, 65); fill-opacity:1.000; stroke:none;" />
</svg>
