<?xml version="1.0" encoding="UTF-8" standalone="no"?>
<!DOCTYPE svg PUBLIC "-//W3C//DTD SVG 1.1//EN" 
  "http://www.w3.org/Graphics/SVG/1.1/DTD/svg11.dtd">
<svg width="64" height="64"
	 xmlns="http://www.w3.org/2000/svg" version="1.1">
 <path d="  M 62,2  L 62,62  L 2,62  L 2,2  Z  M 0,0  L 0,64  L 64,64  L 64,0  Z  " style="fill:rgb(153, 153, 153); fill-opacity:0.639; stroke:none;" />
 <path d="  M 62,2  L 2,2  L 2,62  L 62,62  Z  M 49,55  L 49,54  L 50,54  L 50,55  Z  M 48,56  L 48,55  L 49,55  L 49,56  Z  M 17,12  L 16,12  L 16,11  L 17,11  Z  M 12,16  L 12,15  L 13,15  L 13,16  Z  M 10,18  L 10,19  L 9,19  L 9,18  Z  M 18,9  L 19,9  L 19,10  L 18,10  Z  M 53,52  L 52,52  L 52,51  L 53,51  Z  M 11,17  L 11,16  L 12,16  L 12,17  Z  M 14,15  L 13,15  L 13,14  L 14,14  Z  M 15,14  L 14,14  L 14,13  L 15,13  Z  M 19,8  L 20,8  L 20,9  L 19,9  Z  M 11,17  L 11,18  L 10,18  L 10,17  Z  M 56,49  L 55,49  L 55,48  L 56,48  Z  M 9,20  L 8,20  L 8,19  L 9,19  Z  M 55,50  L 54,50  L 54,49  L 55,49  Z  M 17,11  L 17,10  L 18,10  L 18,11  Z  M 51,53  L 51,52  L 52,52  L 52,53  Z  M 50,53  L 51,53  L 51,54  L 50,54  Z  M 15,13  L 15,12  L 16,12  L 16,13  Z  M 53,51  L 53,50  L 54,50  L 54,51  Z  " style="fill:rgb(153, 153, 153); fill-opacity:0.400; stroke:none;" />
 <path d="  M 8,19  L 8,20  L 9,20  L 9,19  Z  " style="fill:rgb(153, 153, 153); fill-opacity:0.608; stroke:none;" />
 <path d="  M 10,18  L 9,18  L 9,19  L 10,19  Z  " style="fill:rgb(153, 153, 153); fill-opacity:0.608; stroke:none;" />
 <path d="  M 10,17  L 10,18  L 11,18  L 11,17  Z  " style="fill:rgb(153, 153, 153); fill-opacity:0.608; stroke:none;" />
 <path d="  M 12,17  L 12,16  L 11,16  L 11,17  Z  " style="fill:rgb(153, 153, 153); fill-opacity:0.608; stroke:none;" />
 <path d="  M 12,16  L 13,16  L 13,15  L 12,15  Z  " style="fill:rgb(153, 153, 153); fill-opacity:0.608; stroke:none;" />
 <path d="  M 13,15  L 14,15  L 14,14  L 13,14  Z  " style="fill:rgb(153, 153, 153); fill-opacity:0.608; stroke:none;" />
 <path d="  M 14,14  L 15,14  L 15,13  L 14,13  Z  " style="fill:rgb(153, 153, 153); fill-opacity:0.608; stroke:none;" />
 <path d="  M 15,12  L 15,13  L 16,13  L 16,12  Z  " style="fill:rgb(153, 153, 153); fill-opacity:0.608; stroke:none;" />
 <path d="  M 17,11  L 16,11  L 16,12  L 17,12  Z  " style="fill:rgb(153, 153, 153); fill-opacity:0.608; stroke:none;" />
 <path d="  M 17,11  L 18,11  L 18,10  L 17,10  Z  " style="fill:rgb(153, 153, 153); fill-opacity:0.608; stroke:none;" />
 <path d="  M 18,9  L 18,10  L 19,10  L 19,9  Z  " style="fill:rgb(153, 153, 153); fill-opacity:0.608; stroke:none;" />
 <path d="  M 19,8  L 19,9  L 20,9  L 20,8  Z  " style="fill:rgb(153, 153, 153); fill-opacity:0.608; stroke:none;" />
 <path d="  M 48,55  L 48,56  L 49,56  L 49,55  Z  " style="fill:rgb(153, 153, 153); fill-opacity:0.608; stroke:none;" />
 <path d="  M 50,54  L 49,54  L 49,55  L 50,55  Z  " style="fill:rgb(153, 153, 153); fill-opacity:0.608; stroke:none;" />
 <path d="  M 51,54  L 51,53  L 50,53  L 50,54  Z  " style="fill:rgb(153, 153, 153); fill-opacity:0.608; stroke:none;" />
 <path d="  M 51,53  L 52,53  L 52,52  L 51,52  Z  " style="fill:rgb(153, 153, 153); fill-opacity:0.608; stroke:none;" />
 <path d="  M 53,51  L 52,51  L 52,52  L 53,52  Z  " style="fill:rgb(153, 153, 153); fill-opacity:0.608; stroke:none;" />
 <path d="  M 54,50  L 53,50  L 53,51  L 54,51  Z  " style="fill:rgb(153, 153, 153); fill-opacity:0.608; stroke:none;" />
 <path d="  M 54,50  L 55,50  L 55,49  L 54,49  Z  " style="fill:rgb(153, 153, 153); fill-opacity:0.608; stroke:none;" />
 <path d="  M 55,49  L 56,49  L 56,48  L 55,48  Z  " style="fill:rgb(153, 153, 153); fill-opacity:0.608; stroke:none;" />
</svg>
