<?xml version="1.0" encoding="UTF-8" standalone="no"?>
<!DOCTYPE svg PUBLIC "-//W3C//DTD SVG 1.1//EN" 
  "http://www.w3.org/Graphics/SVG/1.1/DTD/svg11.dtd">
<svg width="64" height="64"
	 xmlns="http://www.w3.org/2000/svg" version="1.1">
 <path d="  M 30,6  L 31,6  L 31,8  L 32,8  L 32,3  L 31,3  L 31,0  L 28,0  L 28,12  L 29,12  L 29,11  L 30,11  Z  " style="fill:rgb(101, 152, 215); fill-opacity:0.902; stroke:none;" />
 <path d="  M 28,23  L 28,26  L 29,26  L 29,24  L 30,24  L 30,22  L 31,22  L 31,24  L 32,24  L 32,20  L 33,20  L 33,21  L 34,21  L 34,18  L 35,18  L 35,16  L 36,16  L 36,12  L 35,12  L 35,14  L 34,14  L 34,16  L 33,16  L 33,15  L 32,15  L 32,18  L 30,18  L 30,20  L 29,20  L 29,23  Z  " style="fill:rgb(101, 152, 215); fill-opacity:0.902; stroke:none;" />
 <path d="  M 30,36  L 30,38  L 31,38  L 31,37  L 32,37  L 32,36  L 31,36  L 31,34  L 30,34  L 30,30  L 29,30  L 29,32  L 28,32  L 28,34  L 29,34  L 29,36  Z  " style="fill:rgb(101, 152, 215); fill-opacity:0.902; stroke:none;" />
 <path d="  M 32,63  L 31,63  L 31,60  L 32,60  L 32,56  L 31,56  L 31,54  L 30,54  L 30,53  L 31,53  L 31,49  L 30,49  L 30,46  L 31,46  L 31,44  L 32,44  L 32,42  L 31,42  L 31,40  L 30,40  L 30,42  L 29,42  L 29,45  L 28,45  L 28,60  L 29,60  L 29,62  L 30,62  L 30,64  L 32,64  Z  " style="fill:rgb(101, 152, 215); fill-opacity:0.902; stroke:none;" />
 <path d="  M 33,8  L 31,8  L 31,6  L 30,6  L 30,11  L 29,11  L 29,12  L 28,12  L 28,23  L 29,23  L 29,20  L 30,20  L 30,18  L 32,18  L 32,15  L 33,15  L 33,16  L 34,16  L 34,14  L 35,14  L 35,12  L 34,12  L 34,10  L 33,10  Z  " style="fill:rgb(97, 146, 207); fill-opacity:0.902; stroke:none;" />
 <path d="  M 34,30  L 34,26  L 33,26  L 33,20  L 32,20  L 32,24  L 31,24  L 31,22  L 30,22  L 30,24  L 29,24  L 29,26  L 28,26  L 28,32  L 29,32  L 29,30  L 30,30  L 30,34  L 31,34  L 31,36  L 32,36  L 32,34  L 33,34  L 33,32  L 32,32  L 32,29  L 33,29  L 33,30  Z  " style="fill:rgb(97, 146, 207); fill-opacity:0.902; stroke:none;" />
 <path d="  M 31,40  L 31,42  L 32,42  L 32,44  L 33,44  L 33,45  L 34,45  L 34,42  L 35,42  L 35,41  L 36,41  L 36,34  L 35,34  L 35,36  L 34,36  L 34,40  L 33,40  L 33,37  L 31,37  L 31,38  L 30,38  L 30,36  L 29,36  L 29,34  L 28,34  L 28,45  L 29,45  L 29,42  L 30,42  L 30,40  Z  " style="fill:rgb(97, 146, 207); fill-opacity:0.902; stroke:none;" />
 <path d="  M 28,64  L 30,64  L 30,62  L 29,62  L 29,60  L 28,60  Z  " style="fill:rgb(97, 146, 207); fill-opacity:0.902; stroke:none;" />
 <path d="  M 32,49  L 33,49  L 33,48  L 32,48  L 32,44  L 31,44  L 31,46  L 30,46  L 30,49  L 31,49  L 31,53  L 30,53  L 30,54  L 31,54  L 31,56  L 33,56  L 33,58  L 34,58  L 34,57  L 35,57  L 35,59  L 36,59  L 36,48  L 35,48  L 35,51  L 34,51  L 34,50  L 33,50  L 33,52  L 32,52  Z  " style="fill:rgb(97, 146, 207); fill-opacity:0.902; stroke:none;" />
 <path d="  M 35,4  L 36,4  L 36,0  L 31,0  L 31,3  L 32,3  L 32,6  L 33,6  L 33,4  L 34,4  L 34,3  L 33,3  L 33,1  L 34,1  L 34,2  L 35,2  Z  " style="fill:rgb(97, 146, 207); fill-opacity:0.902; stroke:none;" />
 <path d="  M 33,61  L 34,61  L 34,60  L 33,60  L 33,59  L 32,59  L 32,60  L 31,60  L 31,63  L 32,63  L 32,62  L 33,62  Z  " style="fill:rgb(97, 146, 207); fill-opacity:0.902; stroke:none;" />
 <path d="  M 32,63  L 32,64  L 33,64  L 33,63  Z  " style="fill:rgb(97, 146, 207); fill-opacity:0.902; stroke:none;" />
 <path d="  M 36,8  L 35,8  L 35,6  L 34,6  L 34,9  L 35,9  L 35,12  L 36,12  Z  " style="fill:rgb(97, 146, 207); fill-opacity:0.902; stroke:none;" />
 <path d="  M 35,18  L 34,18  L 34,20  L 35,20  Z  " style="fill:rgb(97, 146, 207); fill-opacity:0.902; stroke:none;" />
 <path d="  M 35,16  L 35,18  L 36,18  L 36,16  Z  " style="fill:rgb(97, 146, 207); fill-opacity:0.902; stroke:none;" />
 <path d="  M 35,43  L 35,44  L 36,44  L 36,43  Z  " style="fill:rgb(97, 146, 207); fill-opacity:0.902; stroke:none;" />
 <path d="  M 36,8  L 36,4  L 35,4  L 35,2  L 34,2  L 34,1  L 33,1  L 33,3  L 34,3  L 34,4  L 33,4  L 33,6  L 32,6  L 32,8  L 33,8  L 33,10  L 34,10  L 34,12  L 35,12  L 35,9  L 34,9  L 34,6  L 35,6  L 35,8  Z  " style="fill:rgb(94, 142, 201); fill-opacity:0.902; stroke:none;" />
 <path d="  M 35,36  L 35,34  L 36,34  L 36,18  L 35,18  L 35,20  L 34,20  L 34,21  L 33,21  L 33,26  L 34,26  L 34,30  L 33,30  L 33,29  L 32,29  L 32,32  L 33,32  L 33,34  L 32,34  L 32,37  L 33,37  L 33,40  L 34,40  L 34,36  Z  " style="fill:rgb(94, 142, 201); fill-opacity:0.902; stroke:none;" />
 <path d="  M 36,44  L 35,44  L 35,43  L 36,43  L 36,41  L 35,41  L 35,42  L 34,42  L 34,45  L 33,45  L 33,44  L 32,44  L 32,48  L 33,48  L 33,49  L 32,49  L 32,52  L 33,52  L 33,50  L 34,50  L 34,51  L 35,51  L 35,48  L 36,48  Z  " style="fill:rgb(94, 142, 201); fill-opacity:0.902; stroke:none;" />
 <path d="  M 33,56  L 32,56  L 32,59  L 33,59  L 33,60  L 34,60  L 34,61  L 33,61  L 33,62  L 32,62  L 32,63  L 33,63  L 33,64  L 36,64  L 36,59  L 35,59  L 35,57  L 34,57  L 34,58  L 33,58  Z  " style="fill:rgb(94, 142, 201); fill-opacity:0.902; stroke:none;" />
</svg>
