<?xml version="1.0" encoding="UTF-8" standalone="no"?>
<!DOCTYPE svg PUBLIC "-//W3C//DTD SVG 1.1//EN" 
  "http://www.w3.org/Graphics/SVG/1.1/DTD/svg11.dtd">
<svg width="64" height="64"
	 xmlns="http://www.w3.org/2000/svg" version="1.1">
 <path d="  M 1,1  L 1,0  L 0,0  L 0,1  Z  " style="fill:rgb(205, 198, 189); fill-opacity:1.000; stroke:none;" />
 <path d="  M 2,4  L 0,4  L 0,6  L 1,6  L 1,5  L 2,5  Z  " style="fill:rgb(205, 198, 189); fill-opacity:1.000; stroke:none;" />
 <path d="  M 1,13  L 1,14  L 0,14  L 0,22  L 1,22  L 1,23  L 2,23  L 2,22  L 4,22  L 4,21  L 6,21  L 6,20  L 8,20  L 8,19  L 9,19  L 9,18  L 11,18  L 11,17  L 12,17  L 12,15  L 11,15  L 11,14  L 10,14  L 10,13  L 9,13  L 9,11  L 8,11  L 8,9  L 9,9  L 9,8  L 10,8  L 10,7  L 11,7  L 11,6  L 12,6  L 12,5  L 10,5  L 10,6  L 9,6  L 9,7  L 8,7  L 8,8  L 6,8  L 6,7  L 5,7  L 5,6  L 4,6  L 4,7  L 3,7  L 3,8  L 5,8  L 5,10  L 4,10  L 4,11  L 3,11  L 3,13  Z  M 8,18  L 7,18  L 7,17  L 8,17  Z  M 8,15  L 8,14  L 9,14  L 9,15  Z  M 6,18  L 4,18  L 4,17  L 3,17  L 3,16  L 6,16  L 6,15  L 5,15  L 5,14  L 7,14  L 7,15  L 8,15  L 8,16  L 7,16  L 7,17  L 6,17  Z  " style="fill:rgb(205, 198, 189); fill-opacity:1.000; stroke:none;" />
 <path d="  M 0,32  L 1,32  L 1,31  L 2,31  L 2,30  L 3,30  L 3,29  L 0,29  Z  " style="fill:rgb(205, 198, 189); fill-opacity:1.000; stroke:none;" />
 <path d="  M 14,44  L 13,44  L 13,43  L 12,43  L 12,42  L 14,42  Z  M 8,32  L 8,33  L 7,33  L 7,32  L 5,32  L 5,33  L 6,33  L 6,34  L 3,34  L 3,35  L 2,35  L 2,36  L 0,36  L 0,39  L 1,39  L 1,41  L 2,41  L 2,42  L 3,42  L 3,43  L 4,43  L 4,44  L 7,44  L 7,45  L 10,45  L 10,46  L 12,46  L 12,47  L 14,47  L 14,48  L 18,48  L 18,47  L 19,47  L 19,46  L 22,46  L 22,45  L 26,45  L 26,46  L 27,46  L 27,47  L 28,47  L 28,48  L 34,48  L 34,47  L 36,47  L 36,46  L 38,46  L 38,45  L 41,45  L 41,44  L 44,44  L 44,43  L 45,43  L 45,42  L 48,42  L 48,41  L 49,41  L 49,40  L 46,40  L 46,39  L 44,39  L 44,38  L 42,38  L 42,37  L 41,37  L 41,36  L 40,36  L 40,35  L 42,35  L 42,34  L 41,34  L 41,33  L 42,33  L 42,32  L 40,32  L 40,33  L 39,33  L 39,34  L 35,34  L 35,33  L 34,33  L 34,32  L 32,32  L 32,31  L 30,31  L 30,30  L 28,30  L 28,29  L 26,29  L 26,28  L 23,28  L 23,27  L 20,27  L 20,26  L 19,26  L 19,25  L 18,25  L 18,24  L 16,24  L 16,23  L 13,23  L 13,24  L 14,24  L 14,25  L 15,25  L 15,26  L 16,26  L 16,27  L 18,27  L 18,28  L 20,28  L 20,29  L 21,29  L 21,30  L 22,30  L 22,31  L 24,31  L 24,32  L 25,32  L 25,33  L 26,33  L 26,32  L 28,32  L 28,33  L 30,33  L 30,34  L 31,34  L 31,35  L 33,35  L 33,34  L 34,34  L 34,35  L 35,35  L 35,36  L 36,36  L 36,40  L 35,40  L 35,41  L 34,41  L 34,42  L 33,42  L 33,43  L 31,43  L 31,44  L 28,44  L 28,43  L 27,43  L 27,42  L 26,42  L 26,40  L 25,40  L 25,39  L 23,39  L 23,38  L 22,38  L 22,37  L 20,37  L 20,36  L 18,36  L 18,35  L 16,35  L 16,34  L 14,34  L 14,33  L 12,33  L 12,32  Z  M 13,38  L 14,38  L 14,39  L 13,39  Z  M 14,45  L 14,44  L 15,44  L 15,45  Z  M 40,42  L 41,42  L 41,43  L 40,43  Z  M 16,36  L 16,37  L 15,37  L 15,38  L 14,38  L 14,36  Z  M 3,37  L 4,37  L 4,38  L 5,38  L 5,39  L 4,39  L 4,40  L 3,40  L 3,39  L 2,39  L 2,38  L 1,38  L 1,37  L 2,37  L 2,36  L 3,36  Z  M 39,41  L 39,40  L 41,40  L 41,41  L 40,41  L 40,42  L 38,42  L 38,41  Z  M 7,36  L 7,37  L 6,37  L 6,36  Z  M 19,44  L 18,44  L 18,43  L 19,43  Z  M 20,43  L 19,43  L 19,42  L 20,42  Z  M 7,38  L 7,37  L 8,37  L 8,38  Z  " style="fill:rgb(205, 198, 189); fill-opacity:1.000; stroke:none;" />
 <path d="  M 0,48  L 2,48  L 2,47  L 3,47  L 3,46  L 2,46  L 2,45  L 1,45  L 1,44  L 0,44  Z  " style="fill:rgb(205, 198, 189); fill-opacity:1.000; stroke:none;" />
 <path d="  M 0,64  L 1,64  L 1,63  L 0,63  Z  " style="fill:rgb(205, 198, 189); fill-opacity:1.000; stroke:none;" />
 <path d="  M 3,7  L 3,6  L 1,6  L 1,7  Z  " style="fill:rgb(205, 198, 189); fill-opacity:1.000; stroke:none;" />
 <path d="  M 21,61  L 21,60  L 20,60  L 20,59  L 19,59  L 19,58  L 18,58  L 18,59  L 17,59  L 17,60  L 15,60  L 15,61  L 12,61  L 12,60  L 10,60  L 10,59  L 9,59  L 9,58  L 8,58  L 8,59  L 7,59  L 7,58  L 6,58  L 6,57  L 4,57  L 4,58  L 3,58  L 3,59  L 1,59  L 1,60  L 2,60  L 2,62  L 4,62  L 4,61  L 6,61  L 6,60  L 7,60  L 7,61  L 11,61  L 11,62  L 13,62  L 13,63  L 16,63  L 16,62  L 17,62  L 17,61  Z  " style="fill:rgb(205, 198, 189); fill-opacity:1.000; stroke:none;" />
 <path d="  M 2,63  L 2,62  L 1,62  L 1,63  Z  " style="fill:rgb(205, 198, 189); fill-opacity:1.000; stroke:none;" />
 <path d="  M 2,37  L 2,38  L 3,38  L 3,37  Z  " style="fill:rgb(205, 198, 189); fill-opacity:1.000; stroke:none;" />
 <path d="  M 3,58  L 3,57  L 2,57  L 2,58  Z  " style="fill:rgb(205, 198, 189); fill-opacity:1.000; stroke:none;" />
 <path d="  M 3,6  L 4,6  L 4,5  L 3,5  Z  " style="fill:rgb(205, 198, 189); fill-opacity:1.000; stroke:none;" />
 <path d="  M 8,27  L 6,27  L 6,28  L 3,28  L 3,29  L 4,29  L 4,30  L 5,30  L 5,29  L 7,29  L 7,28  L 8,28  Z  " style="fill:rgb(205, 198, 189); fill-opacity:1.000; stroke:none;" />
 <path d="  M 8,32  L 8,31  L 7,31  L 7,32  Z  " style="fill:rgb(205, 198, 189); fill-opacity:1.000; stroke:none;" />
 <path d="  M 8,27  L 9,27  L 9,26  L 8,26  Z  " style="fill:rgb(205, 198, 189); fill-opacity:1.000; stroke:none;" />
 <path d="  M 9,54  L 8,54  L 8,55  L 9,55  Z  " style="fill:rgb(205, 198, 189); fill-opacity:1.000; stroke:none;" />
 <path d="  M 9,55  L 9,56  L 10,56  L 10,55  Z  " style="fill:rgb(205, 198, 189); fill-opacity:1.000; stroke:none;" />
 <path d="  M 11,25  L 10,25  L 10,26  L 11,26  Z  " style="fill:rgb(205, 198, 189); fill-opacity:1.000; stroke:none;" />
 <path d="  M 11,29  L 10,29  L 10,30  L 11,30  Z  " style="fill:rgb(205, 198, 189); fill-opacity:1.000; stroke:none;" />
 <path d="  M 11,28  L 11,29  L 13,29  L 13,28  Z  " style="fill:rgb(205, 198, 189); fill-opacity:1.000; stroke:none;" />
 <path d="  M 13,4  L 12,4  L 12,5  L 13,5  Z  " style="fill:rgb(205, 198, 189); fill-opacity:1.000; stroke:none;" />
 <path d="  M 13,25  L 13,24  L 12,24  L 12,25  Z  " style="fill:rgb(205, 198, 189); fill-opacity:1.000; stroke:none;" />
 <path d="  M 13,2  L 13,3  L 14,3  L 14,2  Z  " style="fill:rgb(205, 198, 189); fill-opacity:1.000; stroke:none;" />
 <path d="  M 13,56  L 14,56  L 14,55  L 13,55  Z  " style="fill:rgb(205, 198, 189); fill-opacity:1.000; stroke:none;" />
 <path d="  M 14,4  L 15,4  L 15,3  L 14,3  Z  " style="fill:rgb(205, 198, 189); fill-opacity:1.000; stroke:none;" />
 <path d="  M 22,2  L 22,1  L 23,1  L 23,0  L 20,0  L 20,1  L 18,1  L 18,3  L 17,3  L 17,4  L 16,4  L 16,5  L 15,5  L 15,7  L 14,7  L 14,10  L 15,10  L 15,11  L 16,11  L 16,12  L 18,12  L 18,11  L 20,11  L 20,12  L 19,12  L 19,13  L 22,13  L 22,14  L 25,14  L 25,13  L 26,13  L 26,12  L 24,12  L 24,11  L 22,11  L 22,10  L 21,10  L 21,8  L 20,8  L 20,4  L 21,4  L 21,2  Z  M 17,11  L 17,10  L 18,10  L 18,11  Z  " style="fill:rgb(205, 198, 189); fill-opacity:1.000; stroke:none;" />
 <path d="  M 14,56  L 14,58  L 15,58  L 15,57  L 16,57  L 16,56  Z  " style="fill:rgb(205, 198, 189); fill-opacity:1.000; stroke:none;" />
 <path d="  M 15,59  L 14,59  L 14,60  L 15,60  Z  " style="fill:rgb(205, 198, 189); fill-opacity:1.000; stroke:none;" />
 <path d="  M 16,3  L 17,3  L 17,2  L 16,2  Z  " style="fill:rgb(205, 198, 189); fill-opacity:1.000; stroke:none;" />
 <path d="  M 19,32  L 19,31  L 18,31  L 18,32  Z  " style="fill:rgb(205, 198, 189); fill-opacity:1.000; stroke:none;" />
 <path d="  M 18,34  L 18,35  L 19,35  L 19,34  Z  " style="fill:rgb(205, 198, 189); fill-opacity:1.000; stroke:none;" />
 <path d="  M 21,32  L 19,32  L 19,33  L 20,33  L 20,34  L 21,34  Z  " style="fill:rgb(205, 198, 189); fill-opacity:1.000; stroke:none;" />
 <path d="  M 20,58  L 20,59  L 21,59  L 21,58  Z  " style="fill:rgb(205, 198, 189); fill-opacity:1.000; stroke:none;" />
 <path d="  M 26,61  L 26,60  L 25,60  L 25,59  L 24,59  L 24,58  L 23,58  L 23,59  L 22,59  L 22,60  L 23,60  L 23,61  L 25,61  L 25,62  L 28,62  L 28,61  Z  " style="fill:rgb(205, 198, 189); fill-opacity:1.000; stroke:none;" />
 <path d="  M 25,18  L 25,19  L 27,19  L 27,18  L 28,18  L 28,17  L 26,17  L 26,16  L 25,16  L 25,17  L 23,17  L 23,18  Z  " style="fill:rgb(205, 198, 189); fill-opacity:1.000; stroke:none;" />
 <path d="  M 24,62  L 24,63  L 25,63  L 25,62  Z  " style="fill:rgb(205, 198, 189); fill-opacity:1.000; stroke:none;" />
 <path d="  M 62,13  L 63,13  L 63,12  L 62,12  L 62,11  L 61,11  L 61,10  L 60,10  L 60,9  L 62,9  L 62,8  L 63,8  L 63,7  L 64,7  L 64,4  L 63,4  L 63,5  L 62,5  L 62,6  L 61,6  L 61,7  L 60,7  L 60,8  L 59,8  L 59,9  L 58,9  L 58,10  L 57,10  L 57,11  L 56,11  L 56,12  L 55,12  L 55,14  L 54,14  L 54,15  L 52,15  L 52,16  L 44,16  L 44,15  L 43,15  L 43,14  L 42,14  L 42,13  L 38,13  L 38,14  L 37,14  L 37,15  L 34,15  L 34,16  L 32,16  L 32,15  L 31,15  L 31,14  L 29,14  L 29,13  L 26,13  L 26,14  L 25,14  L 25,15  L 28,15  L 28,16  L 29,16  L 29,17  L 30,17  L 30,18  L 31,18  L 31,19  L 32,19  L 32,20  L 34,20  L 34,21  L 36,21  L 36,22  L 39,22  L 39,21  L 40,21  L 40,20  L 41,20  L 41,19  L 44,19  L 44,20  L 45,20  L 45,21  L 46,21  L 46,20  L 48,20  L 48,19  L 46,19  L 46,18  L 48,18  L 48,17  L 49,17  L 49,18  L 51,18  L 51,19  L 52,19  L 52,20  L 50,20  L 50,21  L 49,21  L 49,22  L 52,22  L 52,21  L 54,21  L 54,20  L 53,20  L 53,19  L 54,19  L 54,18  L 55,18  L 55,19  L 56,19  L 56,18  L 57,18  L 57,16  L 58,16  L 58,15  L 59,15  L 59,14  L 62,14  Z  M 60,12  L 59,12  L 59,13  L 58,13  L 58,11  L 59,11  L 59,10  L 60,10  Z  M 56,15  L 56,14  L 57,14  L 57,15  Z  M 39,21  L 38,21  L 38,20  L 39,20  Z  M 56,16  L 55,16  L 55,15  L 56,15  Z  " style="fill:rgb(205, 198, 189); fill-opacity:1.000; stroke:none;" />
 <path d="  M 26,39  L 26,38  L 25,38  L 25,39  Z  " style="fill:rgb(205, 198, 189); fill-opacity:1.000; stroke:none;" />
 <path d="  M 25,48  L 26,48  L 26,46  L 25,46  Z  " style="fill:rgb(205, 198, 189); fill-opacity:1.000; stroke:none;" />
 <path d="  M 26,58  L 25,58  L 25,59  L 26,59  Z  " style="fill:rgb(205, 198, 189); fill-opacity:1.000; stroke:none;" />
 <path d="  M 27,7  L 26,7  L 26,8  L 27,8  Z  " style="fill:rgb(205, 198, 189); fill-opacity:1.000; stroke:none;" />
 <path d="  M 26,48  L 26,49  L 27,49  L 27,48  Z  " style="fill:rgb(205, 198, 189); fill-opacity:1.000; stroke:none;" />
 <path d="  M 27,7  L 28,7  L 28,6  L 27,6  Z  " style="fill:rgb(205, 198, 189); fill-opacity:1.000; stroke:none;" />
 <path d="  M 28,20  L 28,19  L 27,19  L 27,20  Z  " style="fill:rgb(205, 198, 189); fill-opacity:1.000; stroke:none;" />
 <path d="  M 28,39  L 28,40  L 29,40  L 29,39  Z  " style="fill:rgb(205, 198, 189); fill-opacity:1.000; stroke:none;" />
 <path d="  M 33,9  L 32,9  L 32,8  L 31,8  L 31,7  L 30,7  L 30,8  L 29,8  L 29,9  L 30,9  L 30,10  L 31,10  L 31,11  L 32,11  L 32,10  L 33,10  Z  " style="fill:rgb(205, 198, 189); fill-opacity:1.000; stroke:none;" />
 <path d="  M 29,38  L 29,39  L 30,39  L 30,38  Z  " style="fill:rgb(205, 198, 189); fill-opacity:1.000; stroke:none;" />
 <path d="  M 33,42  L 33,41  L 32,41  L 32,42  Z  " style="fill:rgb(205, 198, 189); fill-opacity:1.000; stroke:none;" />
 <path d="  M 34,8  L 33,8  L 33,9  L 34,9  Z  " style="fill:rgb(205, 198, 189); fill-opacity:1.000; stroke:none;" />
 <path d="  M 34,36  L 34,35  L 33,35  L 33,36  Z  " style="fill:rgb(205, 198, 189); fill-opacity:1.000; stroke:none;" />
 <path d="  M 36,1  L 36,0  L 34,0  L 34,1  Z  " style="fill:rgb(205, 198, 189); fill-opacity:1.000; stroke:none;" />
 <path d="  M 37,13  L 36,13  L 36,14  L 37,14  Z  " style="fill:rgb(205, 198, 189); fill-opacity:1.000; stroke:none;" />
 <path d="  M 38,2  L 38,1  L 37,1  L 37,2  Z  " style="fill:rgb(205, 198, 189); fill-opacity:1.000; stroke:none;" />
 <path d="  M 39,57  L 39,56  L 38,56  L 38,57  Z  " style="fill:rgb(205, 198, 189); fill-opacity:1.000; stroke:none;" />
 <path d="  M 40,57  L 39,57  L 39,58  L 40,58  Z  " style="fill:rgb(205, 198, 189); fill-opacity:1.000; stroke:none;" />
 <path d="  M 40,1  L 41,1  L 41,0  L 40,0  Z  " style="fill:rgb(205, 198, 189); fill-opacity:1.000; stroke:none;" />
 <path d="  M 41,1  L 41,2  L 40,2  L 40,3  L 42,3  L 42,2  L 44,2  L 44,1  L 46,1  L 46,0  L 43,0  L 43,1  Z  " style="fill:rgb(205, 198, 189); fill-opacity:1.000; stroke:none;" />
 <path d="  M 43,8  L 43,9  L 42,9  L 42,10  L 43,10  L 43,11  L 45,11  L 45,10  L 46,10  L 46,9  L 44,9  L 44,8  Z  " style="fill:rgb(205, 198, 189); fill-opacity:1.000; stroke:none;" />
 <path d="  M 62,31  L 63,31  L 63,32  L 64,32  L 64,28  L 62,28  L 62,27  L 60,27  L 60,26  L 59,26  L 59,25  L 58,25  L 58,24  L 56,24  L 56,25  L 55,25  L 55,26  L 52,26  L 52,27  L 51,27  L 51,28  L 50,28  L 50,29  L 47,29  L 47,30  L 44,30  L 44,31  L 42,31  L 42,32  L 48,32  L 48,31  L 52,31  L 52,30  L 53,30  L 53,29  L 54,29  L 54,28  L 58,28  L 58,29  L 60,29  L 60,30  L 62,30  Z  " style="fill:rgb(205, 198, 189); fill-opacity:1.000; stroke:none;" />
 <path d="  M 43,33  L 42,33  L 42,34  L 43,34  Z  " style="fill:rgb(205, 198, 189); fill-opacity:1.000; stroke:none;" />
 <path d="  M 43,55  L 42,55  L 42,56  L 43,56  L 43,57  L 44,57  L 44,56  L 45,56  L 45,55  L 44,55  L 44,54  L 43,54  Z  " style="fill:rgb(205, 198, 189); fill-opacity:1.000; stroke:none;" />
 <path d="  M 45,63  L 45,62  L 44,62  L 44,63  Z  " style="fill:rgb(205, 198, 189); fill-opacity:1.000; stroke:none;" />
 <path d="  M 45,11  L 45,12  L 46,12  L 46,11  Z  " style="fill:rgb(205, 198, 189); fill-opacity:1.000; stroke:none;" />
 <path d="  M 46,54  L 45,54  L 45,55  L 46,55  Z  " style="fill:rgb(205, 198, 189); fill-opacity:1.000; stroke:none;" />
 <path d="  M 45,64  L 47,64  L 47,62  L 48,62  L 48,61  L 50,61  L 50,60  L 47,60  L 47,61  L 46,61  L 46,63  L 45,63  Z  " style="fill:rgb(205, 198, 189); fill-opacity:1.000; stroke:none;" />
 <path d="  M 47,7  L 47,8  L 48,8  L 48,7  L 49,7  L 49,6  L 46,6  L 46,7  Z  " style="fill:rgb(205, 198, 189); fill-opacity:1.000; stroke:none;" />
 <path d="  M 48,34  L 46,34  L 46,35  L 47,35  L 47,36  L 48,36  Z  " style="fill:rgb(205, 198, 189); fill-opacity:1.000; stroke:none;" />
 <path d="  M 47,39  L 47,38  L 46,38  L 46,39  Z  " style="fill:rgb(205, 198, 189); fill-opacity:1.000; stroke:none;" />
 <path d="  M 47,21  L 47,22  L 48,22  L 48,21  Z  " style="fill:rgb(205, 198, 189); fill-opacity:1.000; stroke:none;" />
 <path d="  M 47,57  L 48,57  L 48,56  L 47,56  Z  " style="fill:rgb(205, 198, 189); fill-opacity:1.000; stroke:none;" />
 <path d="  M 49,7  L 49,8  L 48,8  L 48,9  L 50,9  L 50,8  L 51,8  L 51,7  L 52,7  L 52,6  L 51,6  L 51,5  L 50,5  L 50,4  L 48,4  L 48,5  L 49,5  L 49,6  L 50,6  L 50,7  Z  " style="fill:rgb(205, 198, 189); fill-opacity:1.000; stroke:none;" />
 <path d="  M 49,18  L 48,18  L 48,19  L 49,19  Z  " style="fill:rgb(205, 198, 189); fill-opacity:1.000; stroke:none;" />
 <path d="  M 48,20  L 48,21  L 49,21  L 49,20  Z  " style="fill:rgb(205, 198, 189); fill-opacity:1.000; stroke:none;" />
 <path d="  M 49,33  L 48,33  L 48,34  L 49,34  Z  " style="fill:rgb(205, 198, 189); fill-opacity:1.000; stroke:none;" />
 <path d="  M 50,56  L 50,54  L 49,54  L 49,55  L 48,55  L 48,56  Z  " style="fill:rgb(205, 198, 189); fill-opacity:1.000; stroke:none;" />
 <path d="  M 49,35  L 50,35  L 50,34  L 49,34  Z  " style="fill:rgb(205, 198, 189); fill-opacity:1.000; stroke:none;" />
 <path d="  M 52,42  L 52,41  L 50,41  L 50,42  L 51,42  L 51,43  L 52,43  L 52,44  L 54,44  L 54,43  L 53,43  L 53,42  Z  " style="fill:rgb(205, 198, 189); fill-opacity:1.000; stroke:none;" />
 <path d="  M 51,58  L 51,59  L 50,59  L 50,60  L 54,60  L 54,59  L 53,59  L 53,58  Z  " style="fill:rgb(205, 198, 189); fill-opacity:1.000; stroke:none;" />
 <path d="  M 52,4  L 51,4  L 51,5  L 52,5  Z  " style="fill:rgb(205, 198, 189); fill-opacity:1.000; stroke:none;" />
 <path d="  M 53,39  L 54,39  L 54,38  L 53,38  Z  " style="fill:rgb(205, 198, 189); fill-opacity:1.000; stroke:none;" />
 <path d="  M 55,19  L 54,19  L 54,20  L 55,20  Z  " style="fill:rgb(205, 198, 189); fill-opacity:1.000; stroke:none;" />
 <path d="  M 55,39  L 54,39  L 54,40  L 55,40  Z  " style="fill:rgb(205, 198, 189); fill-opacity:1.000; stroke:none;" />
 <path d="  M 54,45  L 55,45  L 55,44  L 54,44  Z  " style="fill:rgb(205, 198, 189); fill-opacity:1.000; stroke:none;" />
 <path d="  M 55,61  L 55,60  L 54,60  L 54,61  Z  " style="fill:rgb(205, 198, 189); fill-opacity:1.000; stroke:none;" />
 <path d="  M 56,39  L 56,38  L 55,38  L 55,39  Z  " style="fill:rgb(205, 198, 189); fill-opacity:1.000; stroke:none;" />
 <path d="  M 55,45  L 55,46  L 56,46  L 56,45  Z  " style="fill:rgb(205, 198, 189); fill-opacity:1.000; stroke:none;" />
 <path d="  M 56,60  L 56,59  L 55,59  L 55,60  Z  " style="fill:rgb(205, 198, 189); fill-opacity:1.000; stroke:none;" />
 <path d="  M 59,63  L 59,62  L 60,62  L 60,61  L 58,61  L 58,60  L 57,60  L 57,61  L 55,61  L 55,62  L 57,62  L 57,63  Z  " style="fill:rgb(205, 198, 189); fill-opacity:1.000; stroke:none;" />
 <path d="  M 64,41  L 63,41  L 63,40  L 61,40  L 61,39  L 62,39  L 62,38  L 60,38  L 60,39  L 59,39  L 59,40  L 60,40  L 60,41  L 61,41  L 61,42  L 62,42  L 62,46  L 61,46  L 61,47  L 58,47  L 58,46  L 56,46  L 56,47  L 57,47  L 57,48  L 58,48  L 58,49  L 60,49  L 60,48  L 61,48  L 61,49  L 62,49  L 62,48  L 63,48  L 63,49  L 64,49  Z  " style="fill:rgb(205, 198, 189); fill-opacity:1.000; stroke:none;" />
 <path d="  M 59,35  L 59,34  L 58,34  L 58,35  Z  " style="fill:rgb(205, 198, 189); fill-opacity:1.000; stroke:none;" />
 <path d="  M 61,1  L 61,2  L 64,2  L 64,0  L 59,0  L 59,1  Z  " style="fill:rgb(205, 198, 189); fill-opacity:1.000; stroke:none;" />
 <path d="  M 59,36  L 60,36  L 60,35  L 59,35  Z  " style="fill:rgb(205, 198, 189); fill-opacity:1.000; stroke:none;" />
 <path d="  M 60,63  L 59,63  L 59,64  L 64,64  L 64,62  L 62,62  L 62,63  L 61,63  L 61,62  L 60,62  Z  " style="fill:rgb(205, 198, 189); fill-opacity:1.000; stroke:none;" />
 <path d="  M 64,15  L 63,15  L 63,16  L 62,16  L 62,17  L 61,17  L 61,18  L 60,18  L 60,20  L 62,20  L 62,19  L 64,19  Z  " style="fill:rgb(205, 198, 189); fill-opacity:1.000; stroke:none;" />
 <path d="  M 61,45  L 60,45  L 60,46  L 61,46  Z  " style="fill:rgb(205, 198, 189); fill-opacity:1.000; stroke:none;" />
 <path d="  M 64,38  L 64,36  L 63,36  L 63,37  L 62,37  L 62,38  Z  " style="fill:rgb(205, 198, 189); fill-opacity:1.000; stroke:none;" />
 <path d="  M 62,50  L 63,50  L 63,49  L 62,49  Z  " style="fill:rgb(205, 198, 189); fill-opacity:1.000; stroke:none;" />
 <path d="  M 63,58  L 63,57  L 62,57  L 62,58  Z  " style="fill:rgb(205, 198, 189); fill-opacity:1.000; stroke:none;" />
 <path d="  M 63,20  L 63,21  L 64,21  L 64,20  Z  " style="fill:rgb(205, 198, 189); fill-opacity:1.000; stroke:none;" />
 <path d="  M 63,57  L 64,57  L 64,56  L 63,56  Z  " style="fill:rgb(205, 198, 189); fill-opacity:1.000; stroke:none;" />
 <path d="  M 9,6  L 10,6  L 10,5  L 12,5  L 12,4  L 14,4  L 14,3  L 16,3  L 16,2  L 18,2  L 18,1  L 20,1  L 20,0  L 1,0  L 1,1  L 0,1  L 0,4  L 2,4  L 2,5  L 4,5  L 4,6  L 5,6  L 5,7  L 6,7  L 6,8  L 8,8  L 8,7  L 9,7  Z  M 13,3  L 13,2  L 14,2  L 14,3  Z  " style="fill:rgb(211, 204, 196); fill-opacity:1.000; stroke:none;" />
 <path d="  M 5,8  L 3,8  L 3,7  L 1,7  L 1,6  L 0,6  L 0,12  L 3,12  L 3,11  L 4,11  L 4,10  L 5,10  Z  " style="fill:rgb(211, 204, 196); fill-opacity:1.000; stroke:none;" />
 <path d="  M 13,25  L 11,25  L 11,26  L 9,26  L 9,27  L 8,27  L 8,28  L 7,28  L 7,29  L 5,29  L 5,30  L 4,30  L 4,29  L 3,29  L 3,30  L 2,30  L 2,31  L 1,31  L 1,32  L 0,32  L 0,36  L 2,36  L 2,35  L 3,35  L 3,34  L 6,34  L 6,33  L 5,33  L 5,32  L 7,32  L 7,31  L 8,31  L 8,32  L 12,32  L 12,33  L 14,33  L 14,34  L 16,34  L 16,35  L 18,35  L 18,36  L 20,36  L 20,37  L 22,37  L 22,38  L 23,38  L 23,39  L 25,39  L 25,40  L 26,40  L 26,42  L 27,42  L 27,43  L 28,43  L 28,44  L 31,44  L 31,43  L 33,43  L 33,42  L 34,42  L 34,41  L 35,41  L 35,40  L 36,40  L 36,36  L 35,36  L 35,35  L 34,35  L 34,36  L 33,36  L 33,35  L 31,35  L 31,34  L 30,34  L 30,33  L 28,33  L 28,32  L 26,32  L 26,33  L 25,33  L 25,32  L 24,32  L 24,31  L 22,31  L 22,30  L 21,30  L 21,29  L 20,29  L 20,28  L 18,28  L 18,27  L 16,27  L 16,26  L 15,26  L 15,25  L 14,25  L 14,24  L 13,24  Z  M 11,30  L 10,30  L 10,29  L 11,29  Z  M 13,28  L 13,29  L 11,29  L 11,28  Z  M 26,39  L 25,39  L 25,38  L 26,38  Z  M 21,34  L 20,34  L 20,33  L 19,33  L 19,32  L 21,32  Z  M 18,34  L 19,34  L 19,35  L 18,35  Z  M 29,39  L 29,38  L 30,38  L 30,39  Z  M 19,32  L 18,32  L 18,31  L 19,31  Z  M 33,41  L 33,42  L 32,42  L 32,41  Z  M 28,40  L 28,39  L 29,39  L 29,40  Z  " style="fill:rgb(211, 204, 196); fill-opacity:1.000; stroke:none;" />
 <path d="  M 6,15  L 6,16  L 3,16  L 3,17  L 4,17  L 4,18  L 6,18  L 6,17  L 7,17  L 7,16  L 8,16  L 8,15  L 7,15  L 7,14  L 5,14  L 5,15  Z  " style="fill:rgb(211, 204, 196); fill-opacity:1.000; stroke:none;" />
 <path d="  M 31,64  L 31,63  L 30,63  L 30,62  L 25,62  L 25,61  L 23,61  L 23,60  L 21,60  L 21,61  L 17,61  L 17,62  L 16,62  L 16,63  L 13,63  L 13,62  L 11,62  L 11,61  L 6,61  L 6,62  L 4,62  L 4,63  L 3,63  L 3,64  Z  M 24,63  L 24,62  L 25,62  L 25,63  Z  " style="fill:rgb(211, 204, 196); fill-opacity:1.000; stroke:none;" />
 <path d="  M 8,17  L 7,17  L 7,18  L 8,18  Z  " style="fill:rgb(211, 204, 196); fill-opacity:1.000; stroke:none;" />
 <path d="  M 8,33  L 8,32  L 7,32  L 7,33  Z  " style="fill:rgb(211, 204, 196); fill-opacity:1.000; stroke:none;" />
 <path d="  M 8,14  L 8,15  L 9,15  L 9,14  Z  " style="fill:rgb(211, 204, 196); fill-opacity:1.000; stroke:none;" />
 <path d="  M 12,42  L 12,43  L 13,43  L 13,44  L 14,44  L 14,42  Z  " style="fill:rgb(211, 204, 196); fill-opacity:1.000; stroke:none;" />
 <path d="  M 15,45  L 15,44  L 14,44  L 14,45  Z  " style="fill:rgb(211, 204, 196); fill-opacity:1.000; stroke:none;" />
 <path d="  M 18,43  L 18,44  L 19,44  L 19,43  Z  " style="fill:rgb(211, 204, 196); fill-opacity:1.000; stroke:none;" />
 <path d="  M 20,42  L 19,42  L 19,43  L 20,43  Z  " style="fill:rgb(211, 204, 196); fill-opacity:1.000; stroke:none;" />
 <path d="  M 49,5  L 48,5  L 48,4  L 50,4  L 50,5  L 51,5  L 51,6  L 52,6  L 52,7  L 51,7  L 51,8  L 50,8  L 50,9  L 48,9  L 48,8  L 47,8  L 47,7  L 46,7  L 46,6  L 49,6  Z  M 32,11  L 31,11  L 31,10  L 30,10  L 30,9  L 29,9  L 29,8  L 30,8  L 30,7  L 31,7  L 31,8  L 32,8  L 32,9  L 33,9  L 33,10  L 32,10  Z  M 52,16  L 52,15  L 54,15  L 54,14  L 55,14  L 55,12  L 56,12  L 56,11  L 57,11  L 57,10  L 58,10  L 58,9  L 59,9  L 59,8  L 60,8  L 60,7  L 61,7  L 61,6  L 62,6  L 62,5  L 63,5  L 63,4  L 64,4  L 64,2  L 61,2  L 61,1  L 59,1  L 59,0  L 46,0  L 46,1  L 44,1  L 44,2  L 42,2  L 42,3  L 40,3  L 40,2  L 37,2  L 37,1  L 34,1  L 34,0  L 23,0  L 23,1  L 22,1  L 22,2  L 21,2  L 21,4  L 20,4  L 20,8  L 21,8  L 21,10  L 22,10  L 22,11  L 24,11  L 24,12  L 26,12  L 26,13  L 29,13  L 29,14  L 31,14  L 31,15  L 32,15  L 32,16  L 34,16  L 34,15  L 37,15  L 37,14  L 38,14  L 38,13  L 42,13  L 42,14  L 43,14  L 43,15  L 44,15  L 44,16  Z  M 27,8  L 26,8  L 26,7  L 27,7  Z  M 43,9  L 43,8  L 44,8  L 44,9  L 46,9  L 46,10  L 45,10  L 45,11  L 43,11  L 43,10  L 42,10  L 42,9  Z  M 45,11  L 46,11  L 46,12  L 45,12  Z  M 33,9  L 33,8  L 34,8  L 34,9  Z  M 51,5  L 51,4  L 52,4  L 52,5  Z  M 37,14  L 36,14  L 36,13  L 37,13  Z  M 28,6  L 28,7  L 27,7  L 27,6  Z  " style="fill:rgb(211, 204, 196); fill-opacity:1.000; stroke:none;" />
 <path d="  M 34,35  L 34,34  L 33,34  L 33,35  Z  " style="fill:rgb(211, 204, 196); fill-opacity:1.000; stroke:none;" />
 <path d="  M 58,28  L 54,28  L 54,29  L 53,29  L 53,30  L 52,30  L 52,31  L 48,31  L 48,32  L 42,32  L 42,33  L 43,33  L 43,34  L 42,34  L 42,35  L 40,35  L 40,36  L 41,36  L 41,37  L 42,37  L 42,38  L 44,38  L 44,39  L 46,39  L 46,40  L 49,40  L 49,41  L 52,41  L 52,42  L 53,42  L 53,43  L 54,43  L 54,44  L 55,44  L 55,45  L 56,45  L 56,46  L 58,46  L 58,47  L 61,47  L 61,46  L 62,46  L 62,42  L 61,42  L 61,41  L 60,41  L 60,40  L 59,40  L 59,39  L 60,39  L 60,38  L 62,38  L 62,37  L 63,37  L 63,36  L 64,36  L 64,32  L 63,32  L 63,31  L 62,31  L 62,30  L 60,30  L 60,29  L 58,29  Z  M 46,39  L 46,38  L 47,38  L 47,39  Z  M 50,34  L 50,35  L 49,35  L 49,34  Z  M 55,39  L 55,38  L 56,38  L 56,39  Z  M 58,35  L 58,34  L 59,34  L 59,35  Z  M 60,35  L 60,36  L 59,36  L 59,35  Z  M 53,39  L 53,38  L 54,38  L 54,39  Z  M 48,36  L 47,36  L 47,35  L 46,35  L 46,34  L 48,34  Z  M 48,33  L 49,33  L 49,34  L 48,34  Z  M 55,40  L 54,40  L 54,39  L 55,39  Z  M 60,46  L 60,45  L 61,45  L 61,46  Z  " style="fill:rgb(211, 204, 196); fill-opacity:1.000; stroke:none;" />
 <path d="  M 42,33  L 41,33  L 41,34  L 42,34  Z  " style="fill:rgb(211, 204, 196); fill-opacity:1.000; stroke:none;" />
 <path d="  M 46,18  L 46,19  L 48,19  L 48,18  Z  " style="fill:rgb(211, 204, 196); fill-opacity:1.000; stroke:none;" />
 <path d="  M 48,62  L 47,62  L 47,64  L 59,64  L 59,63  L 57,63  L 57,62  L 55,62  L 55,61  L 54,61  L 54,60  L 50,60  L 50,61  L 48,61  Z  " style="fill:rgb(211, 204, 196); fill-opacity:1.000; stroke:none;" />
 <path d="  M 48,7  L 48,8  L 49,8  L 49,7  Z  " style="fill:rgb(211, 204, 196); fill-opacity:1.000; stroke:none;" />
 <path d="  M 49,18  L 49,17  L 48,17  L 48,18  Z  " style="fill:rgb(211, 204, 196); fill-opacity:1.000; stroke:none;" />
 <path d="  M 49,18  L 49,19  L 48,19  L 48,20  L 49,20  L 49,21  L 50,21  L 50,20  L 52,20  L 52,19  L 51,19  L 51,18  Z  " style="fill:rgb(211, 204, 196); fill-opacity:1.000; stroke:none;" />
 <path d="  M 50,7  L 50,6  L 49,6  L 49,7  Z  " style="fill:rgb(211, 204, 196); fill-opacity:1.000; stroke:none;" />
 <path d="  M 64,12  L 64,7  L 63,7  L 63,8  L 62,8  L 62,9  L 61,9  L 61,11  L 62,11  L 62,12  Z  " style="fill:rgb(211, 204, 196); fill-opacity:1.000; stroke:none;" />
 <path d="  M 3,13  L 3,12  L 0,12  L 0,14  L 1,14  L 1,13  Z  " style="fill:rgb(199, 193, 180); fill-opacity:1.000; stroke:none;" />
 <path d="  M 1,22  L 0,22  L 0,23  L 1,23  Z  " style="fill:rgb(199, 193, 180); fill-opacity:1.000; stroke:none;" />
 <path d="  M 0,29  L 3,29  L 3,28  L 0,28  Z  " style="fill:rgb(199, 193, 180); fill-opacity:1.000; stroke:none;" />
 <path d="  M 1,39  L 0,39  L 0,44  L 1,44  L 1,43  L 2,43  L 2,44  L 4,44  L 4,43  L 3,43  L 3,42  L 2,42  L 2,41  L 1,41  Z  " style="fill:rgb(199, 193, 180); fill-opacity:1.000; stroke:none;" />
 <path d="  M 3,49  L 3,48  L 4,48  L 4,46  L 3,46  L 3,47  L 2,47  L 2,48  L 0,48  L 0,50  L 2,50  L 2,49  Z  " style="fill:rgb(199, 193, 180); fill-opacity:1.000; stroke:none;" />
 <path d="  M 7,59  L 8,59  L 8,58  L 9,58  L 9,59  L 10,59  L 10,60  L 12,60  L 12,61  L 15,61  L 15,60  L 17,60  L 17,59  L 18,59  L 18,58  L 19,58  L 19,59  L 20,59  L 20,60  L 22,60  L 22,59  L 23,59  L 23,58  L 24,58  L 24,59  L 25,59  L 25,60  L 26,60  L 26,61  L 28,61  L 28,62  L 30,62  L 30,63  L 31,63  L 31,64  L 45,64  L 45,63  L 46,63  L 46,61  L 47,61  L 47,60  L 50,60  L 50,59  L 51,59  L 51,58  L 53,58  L 53,59  L 54,59  L 54,60  L 55,60  L 55,61  L 57,61  L 57,60  L 58,60  L 58,61  L 60,61  L 60,62  L 61,62  L 61,63  L 62,63  L 62,62  L 64,62  L 64,57  L 63,57  L 63,56  L 60,56  L 60,55  L 56,55  L 56,54  L 54,54  L 54,53  L 52,53  L 52,52  L 51,52  L 51,51  L 50,51  L 50,50  L 48,50  L 48,49  L 46,49  L 46,48  L 40,48  L 40,49  L 38,49  L 38,50  L 36,50  L 36,51  L 34,51  L 34,52  L 32,52  L 32,53  L 31,53  L 31,54  L 30,54  L 30,56  L 31,56  L 31,57  L 32,57  L 32,58  L 33,58  L 33,60  L 34,60  L 34,62  L 33,62  L 33,61  L 32,61  L 32,60  L 31,60  L 31,59  L 30,59  L 30,58  L 28,58  L 28,57  L 26,57  L 26,56  L 24,56  L 24,55  L 22,55  L 22,54  L 20,54  L 20,53  L 18,53  L 18,52  L 17,52  L 17,50  L 20,50  L 20,51  L 22,51  L 22,52  L 27,52  L 27,51  L 30,51  L 30,50  L 32,50  L 32,49  L 34,49  L 34,48  L 28,48  L 28,47  L 27,47  L 27,46  L 26,46  L 26,45  L 22,45  L 22,46  L 19,46  L 19,47  L 18,47  L 18,48  L 14,48  L 14,47  L 12,47  L 12,46  L 10,46  L 10,45  L 7,45  L 7,44  L 4,44  L 4,45  L 5,45  L 5,46  L 7,46  L 7,47  L 8,47  L 8,48  L 12,48  L 12,49  L 10,49  L 10,50  L 8,50  L 8,51  L 6,51  L 6,52  L 4,52  L 4,53  L 2,53  L 2,54  L 1,54  L 1,55  L 0,55  L 0,63  L 1,63  L 1,62  L 2,62  L 2,60  L 1,60  L 1,59  L 3,59  L 3,58  L 4,58  L 4,57  L 6,57  L 6,58  L 7,58  Z  M 49,55  L 49,54  L 50,54  L 50,56  L 48,56  L 48,55  Z  M 26,59  L 25,59  L 25,58  L 26,58  Z  M 25,46  L 26,46  L 26,48  L 25,48  Z  M 43,55  L 43,54  L 44,54  L 44,55  L 45,55  L 45,56  L 44,56  L 44,57  L 43,57  L 43,56  L 42,56  L 42,55  Z  M 14,60  L 14,59  L 15,59  L 15,60  Z  M 9,55  L 10,55  L 10,56  L 9,56  Z  M 40,58  L 39,58  L 39,57  L 40,57  Z  M 16,50  L 16,49  L 17,49  L 17,50  Z  M 13,56  L 13,55  L 14,55  L 14,56  Z  M 39,56  L 39,57  L 38,57  L 38,56  Z  M 55,60  L 55,59  L 56,59  L 56,60  Z  M 16,57  L 15,57  L 15,58  L 14,58  L 14,56  L 16,56  Z  M 2,57  L 3,57  L 3,58  L 2,58  Z  M 35,63  L 34,63  L 34,62  L 35,62  Z  M 62,58  L 62,57  L 63,57  L 63,58  Z  M 9,55  L 8,55  L 8,54  L 9,54  Z  M 47,57  L 47,56  L 48,56  L 48,57  Z  M 46,54  L 46,55  L 45,55  L 45,54  Z  M 44,63  L 44,62  L 45,62  L 45,63  Z  M 21,58  L 21,59  L 20,59  L 20,58  Z  M 26,48  L 27,48  L 27,49  L 26,49  Z  " style="fill:rgb(199, 193, 180); fill-opacity:1.000; stroke:none;" />
 <path d="  M 1,5  L 1,6  L 3,6  L 3,5  Z  " style="fill:rgb(199, 193, 180); fill-opacity:1.000; stroke:none;" />
 <path d="  M 4,22  L 2,22  L 2,23  L 1,23  L 1,24  L 4,24  L 4,23  L 5,23  L 5,22  L 6,22  L 6,21  L 4,21  Z  " style="fill:rgb(199, 193, 180); fill-opacity:1.000; stroke:none;" />
 <path d="  M 2,38  L 2,37  L 1,37  L 1,38  Z  " style="fill:rgb(199, 193, 180); fill-opacity:1.000; stroke:none;" />
 <path d="  M 2,44  L 1,44  L 1,45  L 2,45  Z  " style="fill:rgb(199, 193, 180); fill-opacity:1.000; stroke:none;" />
 <path d="  M 1,63  L 1,64  L 3,64  L 3,63  L 4,63  L 4,62  L 2,62  L 2,63  Z  " style="fill:rgb(199, 193, 180); fill-opacity:1.000; stroke:none;" />
 <path d="  M 2,36  L 2,37  L 3,37  L 3,36  Z  " style="fill:rgb(199, 193, 180); fill-opacity:1.000; stroke:none;" />
 <path d="  M 2,39  L 3,39  L 3,40  L 4,40  L 4,39  L 5,39  L 5,38  L 4,38  L 4,37  L 3,37  L 3,38  L 2,38  Z  " style="fill:rgb(199, 193, 180); fill-opacity:1.000; stroke:none;" />
 <path d="  M 2,45  L 2,46  L 3,46  L 3,45  Z  " style="fill:rgb(199, 193, 180); fill-opacity:1.000; stroke:none;" />
 <path d="  M 3,7  L 4,7  L 4,6  L 3,6  Z  " style="fill:rgb(199, 193, 180); fill-opacity:1.000; stroke:none;" />
 <path d="  M 4,27  L 4,28  L 6,28  L 6,27  Z  " style="fill:rgb(199, 193, 180); fill-opacity:1.000; stroke:none;" />
 <path d="  M 6,62  L 6,61  L 4,61  L 4,62  Z  " style="fill:rgb(199, 193, 180); fill-opacity:1.000; stroke:none;" />
 <path d="  M 6,20  L 6,21  L 8,21  L 8,20  Z  " style="fill:rgb(199, 193, 180); fill-opacity:1.000; stroke:none;" />
 <path d="  M 10,25  L 8,25  L 8,24  L 6,24  L 6,25  L 7,25  L 7,26  L 6,26  L 6,27  L 8,27  L 8,26  L 10,26  Z  " style="fill:rgb(199, 193, 180); fill-opacity:1.000; stroke:none;" />
 <path d="  M 7,36  L 6,36  L 6,37  L 7,37  Z  " style="fill:rgb(199, 193, 180); fill-opacity:1.000; stroke:none;" />
 <path d="  M 6,60  L 6,61  L 7,61  L 7,60  Z  " style="fill:rgb(199, 193, 180); fill-opacity:1.000; stroke:none;" />
 <path d="  M 8,38  L 8,37  L 7,37  L 7,38  Z  " style="fill:rgb(199, 193, 180); fill-opacity:1.000; stroke:none;" />
 <path d="  M 14,7  L 15,7  L 15,5  L 16,5  L 16,4  L 17,4  L 17,3  L 15,3  L 15,4  L 13,4  L 13,5  L 12,5  L 12,6  L 11,6  L 11,7  L 10,7  L 10,8  L 9,8  L 9,9  L 8,9  L 8,11  L 9,11  L 9,13  L 10,13  L 10,14  L 11,14  L 11,15  L 12,15  L 12,17  L 14,17  L 14,16  L 13,16  L 13,14  L 12,14  L 12,12  L 13,12  L 13,13  L 14,13  L 14,14  L 15,14  L 15,15  L 16,15  L 16,16  L 18,16  L 18,17  L 20,17  L 20,18  L 21,18  L 21,19  L 22,19  L 22,20  L 23,20  L 23,21  L 25,21  L 25,22  L 30,22  L 30,21  L 31,21  L 31,20  L 32,20  L 32,19  L 31,19  L 31,18  L 30,18  L 30,17  L 29,17  L 29,16  L 28,16  L 28,15  L 25,15  L 25,14  L 22,14  L 22,13  L 19,13  L 19,12  L 20,12  L 20,11  L 18,11  L 18,12  L 16,12  L 16,11  L 15,11  L 15,10  L 14,10  Z  M 27,18  L 27,19  L 25,19  L 25,18  L 23,18  L 23,17  L 25,17  L 25,16  L 26,16  L 26,17  L 28,17  L 28,18  Z  M 12,7  L 13,7  L 13,9  L 12,9  Z  M 27,20  L 27,19  L 28,19  L 28,20  Z  M 12,12  L 11,12  L 11,10  L 12,10  Z  M 13,7  L 13,6  L 14,6  L 14,7  Z  " style="fill:rgb(199, 193, 180); fill-opacity:1.000; stroke:none;" />
 <path d="  M 11,18  L 9,18  L 9,19  L 8,19  L 8,20  L 10,20  L 10,19  L 11,19  Z  " style="fill:rgb(199, 193, 180); fill-opacity:1.000; stroke:none;" />
 <path d="  M 10,23  L 9,23  L 9,24  L 10,24  Z  " style="fill:rgb(199, 193, 180); fill-opacity:1.000; stroke:none;" />
 <path d="  M 12,22  L 12,23  L 11,23  L 11,24  L 10,24  L 10,25  L 12,25  L 12,24  L 13,24  L 13,23  L 16,23  L 16,22  Z  " style="fill:rgb(199, 193, 180); fill-opacity:1.000; stroke:none;" />
 <path d="  M 12,17  L 11,17  L 11,18  L 12,18  Z  " style="fill:rgb(199, 193, 180); fill-opacity:1.000; stroke:none;" />
 <path d="  M 14,38  L 13,38  L 13,39  L 14,39  Z  " style="fill:rgb(199, 193, 180); fill-opacity:1.000; stroke:none;" />
 <path d="  M 15,38  L 15,37  L 16,37  L 16,36  L 14,36  L 14,38  Z  " style="fill:rgb(199, 193, 180); fill-opacity:1.000; stroke:none;" />
 <path d="  M 19,23  L 19,22  L 17,22  L 17,23  L 16,23  L 16,24  L 18,24  L 18,23  Z  " style="fill:rgb(199, 193, 180); fill-opacity:1.000; stroke:none;" />
 <path d="  M 18,2  L 17,2  L 17,3  L 18,3  Z  " style="fill:rgb(199, 193, 180); fill-opacity:1.000; stroke:none;" />
 <path d="  M 17,11  L 18,11  L 18,10  L 17,10  Z  " style="fill:rgb(199, 193, 180); fill-opacity:1.000; stroke:none;" />
 <path d="  M 19,25  L 19,26  L 20,26  L 20,27  L 22,27  L 22,26  L 21,26  L 21,25  L 20,25  L 20,24  L 18,24  L 18,25  Z  " style="fill:rgb(199, 193, 180); fill-opacity:1.000; stroke:none;" />
 <path d="  M 22,24  L 21,24  L 21,25  L 22,25  Z  " style="fill:rgb(199, 193, 180); fill-opacity:1.000; stroke:none;" />
 <path d="  M 23,28  L 24,28  L 24,27  L 23,27  Z  " style="fill:rgb(199, 193, 180); fill-opacity:1.000; stroke:none;" />
 <path d="  M 26,14  L 26,13  L 25,13  L 25,14  Z  " style="fill:rgb(199, 193, 180); fill-opacity:1.000; stroke:none;" />
 <path d="  M 38,23  L 39,23  L 39,22  L 36,22  L 36,21  L 34,21  L 34,20  L 32,20  L 32,22  L 31,22  L 31,24  L 30,24  L 30,25  L 29,25  L 29,26  L 28,26  L 28,27  L 26,27  L 26,29  L 28,29  L 28,30  L 30,30  L 30,31  L 32,31  L 32,32  L 34,32  L 34,33  L 35,33  L 35,34  L 39,34  L 39,33  L 40,33  L 40,32  L 42,32  L 42,31  L 44,31  L 44,30  L 47,30  L 47,29  L 50,29  L 50,28  L 51,28  L 51,27  L 52,27  L 52,26  L 55,26  L 55,25  L 56,25  L 56,24  L 54,24  L 54,25  L 51,25  L 51,24  L 52,24  L 52,23  L 53,23  L 53,22  L 54,22  L 54,21  L 52,21  L 52,22  L 49,22  L 49,21  L 48,21  L 48,20  L 46,20  L 46,21  L 45,21  L 45,20  L 44,20  L 44,19  L 41,19  L 41,20  L 40,20  L 40,21  L 44,21  L 44,22  L 45,22  L 45,23  L 46,23  L 46,24  L 47,24  L 47,25  L 48,25  L 48,26  L 47,26  L 47,27  L 45,27  L 45,28  L 42,28  L 42,29  L 40,29  L 40,30  L 38,30  L 38,31  L 37,31  L 37,30  L 36,30  L 36,28  L 37,28  L 37,26  L 38,26  Z  M 47,22  L 47,21  L 48,21  L 48,22  Z  M 50,25  L 51,25  L 51,26  L 50,26  Z  " style="fill:rgb(199, 193, 180); fill-opacity:1.000; stroke:none;" />
 <path d="  M 36,47  L 34,47  L 34,48  L 38,48  L 38,47  L 39,47  L 39,46  L 41,46  L 41,45  L 38,45  L 38,46  L 36,46  Z  " style="fill:rgb(199, 193, 180); fill-opacity:1.000; stroke:none;" />
 <path d="  M 36,0  L 36,1  L 38,1  L 38,2  L 41,2  L 41,1  L 40,1  L 40,0  Z  " style="fill:rgb(199, 193, 180); fill-opacity:1.000; stroke:none;" />
 <path d="  M 39,21  L 39,20  L 38,20  L 38,21  Z  " style="fill:rgb(199, 193, 180); fill-opacity:1.000; stroke:none;" />
 <path d="  M 39,41  L 38,41  L 38,42  L 40,42  L 40,41  L 41,41  L 41,40  L 39,40  Z  " style="fill:rgb(199, 193, 180); fill-opacity:1.000; stroke:none;" />
 <path d="  M 40,22  L 40,21  L 39,21  L 39,22  Z  " style="fill:rgb(199, 193, 180); fill-opacity:1.000; stroke:none;" />
 <path d="  M 41,42  L 40,42  L 40,43  L 41,43  Z  " style="fill:rgb(199, 193, 180); fill-opacity:1.000; stroke:none;" />
 <path d="  M 41,1  L 43,1  L 43,0  L 41,0  Z  " style="fill:rgb(199, 193, 180); fill-opacity:1.000; stroke:none;" />
 <path d="  M 42,45  L 42,44  L 41,44  L 41,45  Z  " style="fill:rgb(199, 193, 180); fill-opacity:1.000; stroke:none;" />
 <path d="  M 45,43  L 44,43  L 44,44  L 45,44  Z  " style="fill:rgb(199, 193, 180); fill-opacity:1.000; stroke:none;" />
 <path d="  M 47,42  L 45,42  L 45,43  L 47,43  Z  " style="fill:rgb(199, 193, 180); fill-opacity:1.000; stroke:none;" />
 <path d="  M 48,41  L 48,42  L 49,42  L 49,43  L 50,43  L 50,46  L 51,46  L 51,47  L 52,47  L 52,48  L 53,48  L 53,49  L 54,49  L 54,50  L 56,50  L 56,51  L 58,51  L 58,52  L 62,52  L 62,51  L 64,51  L 64,49  L 63,49  L 63,50  L 62,50  L 62,49  L 61,49  L 61,48  L 60,48  L 60,49  L 58,49  L 58,48  L 57,48  L 57,47  L 56,47  L 56,46  L 55,46  L 55,45  L 54,45  L 54,44  L 52,44  L 52,43  L 51,43  L 51,42  L 50,42  L 50,41  Z  " style="fill:rgb(199, 193, 180); fill-opacity:1.000; stroke:none;" />
 <path d="  M 54,19  L 53,19  L 53,20  L 54,20  Z  " style="fill:rgb(199, 193, 180); fill-opacity:1.000; stroke:none;" />
 <path d="  M 54,19  L 55,19  L 55,18  L 54,18  Z  " style="fill:rgb(199, 193, 180); fill-opacity:1.000; stroke:none;" />
 <path d="  M 62,16  L 63,16  L 63,15  L 64,15  L 64,12  L 63,12  L 63,13  L 62,13  L 62,14  L 59,14  L 59,15  L 58,15  L 58,16  L 57,16  L 57,18  L 56,18  L 56,19  L 55,19  L 55,20  L 54,20  L 54,21  L 56,21  L 56,20  L 60,20  L 60,18  L 61,18  L 61,17  L 62,17  Z  " style="fill:rgb(199, 193, 180); fill-opacity:1.000; stroke:none;" />
 <path d="  M 55,15  L 55,16  L 56,16  L 56,15  Z  " style="fill:rgb(199, 193, 180); fill-opacity:1.000; stroke:none;" />
 <path d="  M 57,15  L 57,14  L 56,14  L 56,15  Z  " style="fill:rgb(199, 193, 180); fill-opacity:1.000; stroke:none;" />
 <path d="  M 58,13  L 59,13  L 59,12  L 60,12  L 60,10  L 59,10  L 59,11  L 58,11  Z  " style="fill:rgb(199, 193, 180); fill-opacity:1.000; stroke:none;" />
 <path d="  M 61,25  L 60,25  L 60,24  L 58,24  L 58,25  L 59,25  L 59,26  L 60,26  L 60,27  L 62,27  L 62,26  L 61,26  Z  " style="fill:rgb(199, 193, 180); fill-opacity:1.000; stroke:none;" />
 <path d="  M 60,62  L 59,62  L 59,63  L 60,63  Z  " style="fill:rgb(199, 193, 180); fill-opacity:1.000; stroke:none;" />
 <path d="  M 60,10  L 61,10  L 61,9  L 60,9  Z  " style="fill:rgb(199, 193, 180); fill-opacity:1.000; stroke:none;" />
 <path d="  M 64,20  L 64,19  L 62,19  L 62,20  L 60,20  L 60,21  L 62,21  L 62,22  L 63,22  L 63,23  L 64,23  L 64,21  L 63,21  L 63,20  Z  " style="fill:rgb(199, 193, 180); fill-opacity:1.000; stroke:none;" />
 <path d="  M 61,39  L 61,40  L 63,40  L 63,41  L 64,41  L 64,38  L 62,38  L 62,39  Z  " style="fill:rgb(199, 193, 180); fill-opacity:1.000; stroke:none;" />
 <path d="  M 62,28  L 63,28  L 63,27  L 62,27  Z  " style="fill:rgb(199, 193, 180); fill-opacity:1.000; stroke:none;" />
 <path d="  M 63,48  L 62,48  L 62,49  L 63,49  Z  " style="fill:rgb(199, 193, 180); fill-opacity:1.000; stroke:none;" />
 <path d="  M 29,26  L 29,25  L 30,25  L 30,24  L 31,24  L 31,22  L 32,22  L 32,20  L 31,20  L 31,21  L 30,21  L 30,22  L 25,22  L 25,21  L 23,21  L 23,20  L 22,20  L 22,19  L 21,19  L 21,18  L 20,18  L 20,17  L 18,17  L 18,16  L 16,16  L 16,15  L 15,15  L 15,14  L 14,14  L 14,13  L 13,13  L 13,12  L 12,12  L 12,14  L 13,14  L 13,16  L 14,16  L 14,17  L 12,17  L 12,18  L 11,18  L 11,19  L 10,19  L 10,20  L 8,20  L 8,21  L 6,21  L 6,22  L 5,22  L 5,23  L 4,23  L 4,24  L 1,24  L 1,23  L 0,23  L 0,28  L 4,28  L 4,27  L 6,27  L 6,26  L 7,26  L 7,25  L 6,25  L 6,24  L 8,24  L 8,25  L 10,25  L 10,24  L 11,24  L 11,23  L 12,23  L 12,22  L 16,22  L 16,23  L 17,23  L 17,22  L 19,22  L 19,23  L 18,23  L 18,24  L 20,24  L 20,25  L 21,25  L 21,26  L 22,26  L 22,27  L 24,27  L 24,28  L 26,28  L 26,27  L 28,27  L 28,26  Z  M 21,24  L 22,24  L 22,25  L 21,25  Z  M 10,23  L 10,24  L 9,24  L 9,23  Z  " style="fill:rgb(194, 188, 172); fill-opacity:1.000; stroke:none;" />
 <path d="  M 3,46  L 4,46  L 4,48  L 3,48  L 3,49  L 2,49  L 2,50  L 0,50  L 0,55  L 1,55  L 1,54  L 2,54  L 2,53  L 4,53  L 4,52  L 6,52  L 6,51  L 8,51  L 8,50  L 10,50  L 10,49  L 12,49  L 12,48  L 8,48  L 8,47  L 7,47  L 7,46  L 5,46  L 5,45  L 4,45  L 4,44  L 2,44  L 2,45  L 3,45  Z  " style="fill:rgb(194, 188, 172); fill-opacity:1.000; stroke:none;" />
 <path d="  M 2,44  L 2,43  L 1,43  L 1,44  Z  " style="fill:rgb(194, 188, 172); fill-opacity:1.000; stroke:none;" />
 <path d="  M 12,10  L 11,10  L 11,12  L 12,12  Z  " style="fill:rgb(194, 188, 172); fill-opacity:1.000; stroke:none;" />
 <path d="  M 12,9  L 13,9  L 13,7  L 12,7  Z  " style="fill:rgb(194, 188, 172); fill-opacity:1.000; stroke:none;" />
 <path d="  M 14,6  L 13,6  L 13,7  L 14,7  Z  " style="fill:rgb(194, 188, 172); fill-opacity:1.000; stroke:none;" />
 <path d="  M 17,50  L 17,49  L 16,49  L 16,50  Z  " style="fill:rgb(194, 188, 172); fill-opacity:1.000; stroke:none;" />
 <path d="  M 32,61  L 33,61  L 33,62  L 34,62  L 34,60  L 33,60  L 33,58  L 32,58  L 32,57  L 31,57  L 31,56  L 30,56  L 30,54  L 31,54  L 31,53  L 32,53  L 32,52  L 34,52  L 34,51  L 36,51  L 36,50  L 38,50  L 38,49  L 40,49  L 40,48  L 46,48  L 46,49  L 48,49  L 48,50  L 50,50  L 50,51  L 51,51  L 51,52  L 52,52  L 52,53  L 54,53  L 54,54  L 56,54  L 56,55  L 60,55  L 60,56  L 64,56  L 64,51  L 62,51  L 62,52  L 58,52  L 58,51  L 56,51  L 56,50  L 54,50  L 54,49  L 53,49  L 53,48  L 52,48  L 52,47  L 51,47  L 51,46  L 50,46  L 50,43  L 49,43  L 49,42  L 47,42  L 47,43  L 45,43  L 45,44  L 42,44  L 42,45  L 41,45  L 41,46  L 39,46  L 39,47  L 38,47  L 38,48  L 34,48  L 34,49  L 32,49  L 32,50  L 30,50  L 30,51  L 27,51  L 27,52  L 22,52  L 22,51  L 20,51  L 20,50  L 17,50  L 17,52  L 18,52  L 18,53  L 20,53  L 20,54  L 22,54  L 22,55  L 24,55  L 24,56  L 26,56  L 26,57  L 28,57  L 28,58  L 30,58  L 30,59  L 31,59  L 31,60  L 32,60  Z  " style="fill:rgb(194, 188, 172); fill-opacity:1.000; stroke:none;" />
 <path d="  M 35,63  L 35,62  L 34,62  L 34,63  Z  " style="fill:rgb(194, 188, 172); fill-opacity:1.000; stroke:none;" />
 <path d="  M 38,26  L 37,26  L 37,28  L 36,28  L 36,30  L 37,30  L 37,31  L 38,31  L 38,30  L 40,30  L 40,29  L 42,29  L 42,28  L 45,28  L 45,27  L 47,27  L 47,26  L 48,26  L 48,25  L 47,25  L 47,24  L 46,24  L 46,23  L 45,23  L 45,22  L 44,22  L 44,21  L 40,21  L 40,22  L 39,22  L 39,23  L 38,23  Z  " style="fill:rgb(194, 188, 172); fill-opacity:1.000; stroke:none;" />
 <path d="  M 51,25  L 50,25  L 50,26  L 51,26  Z  " style="fill:rgb(194, 188, 172); fill-opacity:1.000; stroke:none;" />
 <path d="  M 52,24  L 51,24  L 51,25  L 54,25  L 54,24  L 60,24  L 60,25  L 61,25  L 61,26  L 62,26  L 62,27  L 63,27  L 63,28  L 64,28  L 64,23  L 63,23  L 63,22  L 62,22  L 62,21  L 60,21  L 60,20  L 56,20  L 56,21  L 54,21  L 54,22  L 53,22  L 53,23  L 52,23  Z  " style="fill:rgb(194, 188, 172); fill-opacity:1.000; stroke:none;" />
</svg>
