<?xml version="1.0" encoding="UTF-8" standalone="no"?>
<!DOCTYPE svg PUBLIC "-//W3C//DTD SVG 1.1//EN" 
  "http://www.w3.org/Graphics/SVG/1.1/DTD/svg11.dtd">
<svg width="64" height="64"
	 xmlns="http://www.w3.org/2000/svg" version="1.1">
 <path d="  M 9,48  L 8,48  L 8,52  L 9,52  Z  " style="fill:rgb(131, 28, 32); fill-opacity:1.000; stroke:none;" />
 <path d="  M 9,46  L 9,48  L 10,48  L 10,46  Z  " style="fill:rgb(131, 28, 32); fill-opacity:1.000; stroke:none;" />
 <path d="  M 10,45  L 10,46  L 11,46  L 11,45  Z  " style="fill:rgb(131, 28, 32); fill-opacity:1.000; stroke:none;" />
 <path d="  M 10,54  L 11,54  L 11,53  L 10,53  Z  " style="fill:rgb(131, 28, 32); fill-opacity:1.000; stroke:none;" />
 <path d="  M 11,44  L 11,45  L 12,45  L 12,44  Z  " style="fill:rgb(131, 28, 32); fill-opacity:1.000; stroke:none;" />
 <path d="  M 17,56  L 17,55  L 20,55  L 20,54  L 22,54  L 22,53  L 23,53  L 23,54  L 24,54  L 24,53  L 25,53  L 25,52  L 26,52  L 26,51  L 27,51  L 27,48  L 26,48  L 26,46  L 25,46  L 25,45  L 24,45  L 24,44  L 22,44  L 22,45  L 23,45  L 23,46  L 24,46  L 24,47  L 25,47  L 25,48  L 22,48  L 22,49  L 23,49  L 23,50  L 21,50  L 21,51  L 20,51  L 20,50  L 19,50  L 19,49  L 18,49  L 18,50  L 16,50  L 16,51  L 17,51  L 17,52  L 15,52  L 15,51  L 13,51  L 13,52  L 11,52  L 11,53  L 12,53  L 12,54  L 11,54  L 11,55  L 13,55  L 13,57  L 14,57  L 14,56  L 15,56  L 15,57  L 16,57  L 16,56  Z  M 14,53  L 14,52  L 15,52  L 15,53  Z  M 20,54  L 19,54  L 19,53  L 20,53  Z  " style="fill:rgb(131, 28, 32); fill-opacity:1.000; stroke:none;" />
 <path d="  M 14,43  L 12,43  L 12,44  L 14,44  Z  " style="fill:rgb(131, 28, 32); fill-opacity:1.000; stroke:none;" />
 <path d="  M 12,50  L 12,51  L 13,51  L 13,50  Z  " style="fill:rgb(131, 28, 32); fill-opacity:1.000; stroke:none;" />
 <path d="  M 14,42  L 14,43  L 20,43  L 20,44  L 22,44  L 22,42  Z  " style="fill:rgb(131, 28, 32); fill-opacity:1.000; stroke:none;" />
 <path d="  M 14,57  L 14,59  L 16,59  L 16,58  L 15,58  L 15,57  Z  " style="fill:rgb(131, 28, 32); fill-opacity:1.000; stroke:none;" />
 <path d="  M 16,60  L 17,60  L 17,59  L 16,59  Z  " style="fill:rgb(131, 28, 32); fill-opacity:1.000; stroke:none;" />
 <path d="  M 18,56  L 17,56  L 17,57  L 18,57  Z  " style="fill:rgb(131, 28, 32); fill-opacity:1.000; stroke:none;" />
 <path d="  M 19,57  L 19,58  L 20,58  L 20,57  Z  " style="fill:rgb(131, 28, 32); fill-opacity:1.000; stroke:none;" />
 <path d="  M 20,56  L 20,57  L 21,57  L 21,56  Z  " style="fill:rgb(131, 28, 32); fill-opacity:1.000; stroke:none;" />
 <path d="  M 22,48  L 22,47  L 21,47  L 21,48  Z  " style="fill:rgb(131, 28, 32); fill-opacity:1.000; stroke:none;" />
 <path d="  M 23,55  L 23,54  L 22,54  L 22,55  Z  " style="fill:rgb(131, 28, 32); fill-opacity:1.000; stroke:none;" />
 <path d="  M 30,64  L 32,64  L 32,63  L 31,63  L 31,62  L 30,62  Z  " style="fill:rgb(131, 28, 32); fill-opacity:1.000; stroke:none;" />
 <path d="  M 31,61  L 31,62  L 35,62  L 35,63  L 36,63  L 36,61  Z  " style="fill:rgb(131, 28, 32); fill-opacity:1.000; stroke:none;" />
 <path d="  M 36,64  L 37,64  L 37,63  L 36,63  Z  " style="fill:rgb(131, 28, 32); fill-opacity:1.000; stroke:none;" />
 <path d="  M 40,49  L 41,49  L 41,46  L 40,46  Z  " style="fill:rgb(131, 28, 32); fill-opacity:1.000; stroke:none;" />
 <path d="  M 42,44  L 41,44  L 41,46  L 42,46  Z  " style="fill:rgb(131, 28, 32); fill-opacity:1.000; stroke:none;" />
 <path d="  M 41,50  L 42,50  L 42,49  L 41,49  Z  " style="fill:rgb(131, 28, 32); fill-opacity:1.000; stroke:none;" />
 <path d="  M 43,44  L 43,43  L 42,43  L 42,44  Z  " style="fill:rgb(131, 28, 32); fill-opacity:1.000; stroke:none;" />
 <path d="  M 43,51  L 42,51  L 42,52  L 43,52  Z  " style="fill:rgb(131, 28, 32); fill-opacity:1.000; stroke:none;" />
 <path d="  M 43,42  L 43,43  L 44,43  L 44,42  Z  " style="fill:rgb(131, 28, 32); fill-opacity:1.000; stroke:none;" />
 <path d="  M 44,52  L 43,52  L 43,53  L 44,53  Z  " style="fill:rgb(131, 28, 32); fill-opacity:1.000; stroke:none;" />
 <path d="  M 44,42  L 46,42  L 46,41  L 44,41  Z  " style="fill:rgb(131, 28, 32); fill-opacity:1.000; stroke:none;" />
 <path d="  M 45,51  L 45,50  L 44,50  L 44,51  Z  " style="fill:rgb(131, 28, 32); fill-opacity:1.000; stroke:none;" />
 <path d="  M 45,54  L 45,53  L 44,53  L 44,54  Z  " style="fill:rgb(131, 28, 32); fill-opacity:1.000; stroke:none;" />
 <path d="  M 46,58  L 46,60  L 47,60  L 47,59  L 48,59  L 48,58  L 50,58  L 50,57  L 51,57  L 51,56  L 50,56  L 50,55  L 51,55  L 51,54  L 53,54  L 53,53  L 54,53  L 54,54  L 55,54  L 55,53  L 56,53  L 56,52  L 55,52  L 55,51  L 56,51  L 56,50  L 58,50  L 58,49  L 59,49  L 59,47  L 58,47  L 58,45  L 57,45  L 57,43  L 56,43  L 56,46  L 54,46  L 54,47  L 53,47  L 53,48  L 54,48  L 54,49  L 52,49  L 52,50  L 50,50  L 50,51  L 49,51  L 49,50  L 47,50  L 47,51  L 45,51  L 45,52  L 46,52  L 46,53  L 47,53  L 47,54  L 46,54  L 46,56  L 47,56  L 47,58  Z  M 48,56  L 47,56  L 47,55  L 48,55  Z  M 48,52  L 47,52  L 47,51  L 48,51  Z  M 57,47  L 56,47  L 56,46  L 57,46  Z  M 56,48  L 55,48  L 55,47  L 56,47  Z  " style="fill:rgb(131, 28, 32); fill-opacity:1.000; stroke:none;" />
 <path d="  M 46,40  L 46,41  L 54,41  L 54,40  Z  " style="fill:rgb(131, 28, 32); fill-opacity:1.000; stroke:none;" />
 <path d="  M 47,62  L 46,62  L 46,63  L 47,63  Z  " style="fill:rgb(131, 28, 32); fill-opacity:1.000; stroke:none;" />
 <path d="  M 48,61  L 47,61  L 47,62  L 48,62  Z  " style="fill:rgb(131, 28, 32); fill-opacity:1.000; stroke:none;" />
 <path d="  M 48,60  L 49,60  L 49,59  L 48,59  Z  " style="fill:rgb(131, 28, 32); fill-opacity:1.000; stroke:none;" />
 <path d="  M 49,50  L 50,50  L 50,49  L 49,49  Z  " style="fill:rgb(131, 28, 32); fill-opacity:1.000; stroke:none;" />
 <path d="  M 51,56  L 52,56  L 52,55  L 51,55  Z  " style="fill:rgb(131, 28, 32); fill-opacity:1.000; stroke:none;" />
 <path d="  M 53,54  L 53,55  L 54,55  L 54,54  Z  " style="fill:rgb(131, 28, 32); fill-opacity:1.000; stroke:none;" />
 <path d="  M 54,41  L 54,42  L 56,42  L 56,41  Z  " style="fill:rgb(131, 28, 32); fill-opacity:1.000; stroke:none;" />
 <path d="  M 22,44  L 20,44  L 20,43  L 14,43  L 14,44  L 12,44  L 12,45  L 11,45  L 11,46  L 10,46  L 10,48  L 9,48  L 9,52  L 10,52  L 10,53  L 11,53  L 11,52  L 13,52  L 13,51  L 15,51  L 15,52  L 17,52  L 17,51  L 16,51  L 16,50  L 18,50  L 18,49  L 19,49  L 19,50  L 20,50  L 20,51  L 21,51  L 21,50  L 23,50  L 23,49  L 22,49  L 22,48  L 25,48  L 25,47  L 24,47  L 24,46  L 23,46  L 23,45  L 22,45  Z  M 18,44  L 18,45  L 16,45  L 16,44  Z  M 13,47  L 13,46  L 14,46  L 14,45  L 16,45  L 16,46  L 15,46  L 15,47  Z  M 22,48  L 21,48  L 21,47  L 22,47  Z  M 13,47  L 13,48  L 12,48  L 12,47  Z  M 13,51  L 12,51  L 12,50  L 13,50  Z  " style="fill:rgb(164, 36, 41); fill-opacity:1.000; stroke:none;" />
 <path d="  M 11,54  L 12,54  L 12,53  L 11,53  Z  " style="fill:rgb(164, 36, 41); fill-opacity:1.000; stroke:none;" />
 <path d="  M 15,53  L 15,52  L 14,52  L 14,53  Z  " style="fill:rgb(164, 36, 41); fill-opacity:1.000; stroke:none;" />
 <path d="  M 31,62  L 31,63  L 32,63  L 32,64  L 36,64  L 36,63  L 35,63  L 35,62  Z  " style="fill:rgb(164, 36, 41); fill-opacity:1.000; stroke:none;" />
 <path d="  M 36,62  L 36,63  L 37,63  L 37,62  Z  " style="fill:rgb(164, 36, 41); fill-opacity:1.000; stroke:none;" />
 <path d="  M 43,43  L 43,44  L 42,44  L 42,46  L 41,46  L 41,49  L 42,49  L 42,51  L 43,51  L 43,52  L 44,52  L 44,53  L 46,53  L 46,52  L 45,52  L 45,51  L 47,51  L 47,50  L 49,50  L 49,49  L 50,49  L 50,50  L 52,50  L 52,49  L 54,49  L 54,48  L 53,48  L 53,47  L 54,47  L 54,46  L 56,46  L 56,42  L 54,42  L 54,41  L 46,41  L 46,42  L 44,42  L 44,43  Z  M 48,45  L 48,46  L 47,46  L 47,47  L 46,47  L 46,48  L 44,48  L 44,47  L 45,47  L 45,46  L 46,46  L 46,45  Z  M 43,49  L 43,48  L 44,48  L 44,49  Z  M 45,51  L 44,51  L 44,50  L 45,50  Z  M 48,44  L 49,44  L 49,45  L 48,45  Z  " style="fill:rgb(164, 36, 41); fill-opacity:1.000; stroke:none;" />
 <path d="  M 47,52  L 48,52  L 48,51  L 47,51  Z  " style="fill:rgb(164, 36, 41); fill-opacity:1.000; stroke:none;" />
 <path d="  M 50,50  L 49,50  L 49,51  L 50,51  Z  " style="fill:rgb(164, 36, 41); fill-opacity:1.000; stroke:none;" />
 <path d="  M 56,48  L 56,47  L 55,47  L 55,48  Z  " style="fill:rgb(164, 36, 41); fill-opacity:1.000; stroke:none;" />
 <path d="  M 56,47  L 57,47  L 57,46  L 56,46  Z  " style="fill:rgb(164, 36, 41); fill-opacity:1.000; stroke:none;" />
 <path d="  M 9,54  L 10,54  L 10,52  L 9,52  Z  " style="fill:rgb(115, 4, 8); fill-opacity:1.000; stroke:none;" />
 <path d="  M 12,56  L 13,56  L 13,55  L 12,55  Z  " style="fill:rgb(115, 4, 8); fill-opacity:1.000; stroke:none;" />
 <path d="  M 13,57  L 13,58  L 14,58  L 14,57  Z  " style="fill:rgb(115, 4, 8); fill-opacity:1.000; stroke:none;" />
 <path d="  M 15,57  L 15,56  L 14,56  L 14,57  Z  " style="fill:rgb(115, 4, 8); fill-opacity:1.000; stroke:none;" />
 <path d="  M 21,56  L 21,57  L 20,57  L 20,56  Z  M 22,58  L 23,58  L 23,56  L 24,56  L 24,55  L 25,55  L 25,54  L 26,54  L 26,52  L 25,52  L 25,53  L 24,53  L 24,54  L 23,54  L 23,55  L 22,55  L 22,54  L 20,54  L 20,55  L 17,55  L 17,56  L 16,56  L 16,57  L 15,57  L 15,58  L 16,58  L 16,59  L 14,59  L 14,64  L 22,64  Z  M 20,57  L 20,58  L 19,58  L 19,57  Z  M 17,59  L 17,60  L 16,60  L 16,59  Z  M 17,57  L 17,56  L 18,56  L 18,57  Z  " style="fill:rgb(115, 4, 8); fill-opacity:1.000; stroke:none;" />
 <path d="  M 20,53  L 19,53  L 19,54  L 20,54  Z  " style="fill:rgb(115, 4, 8); fill-opacity:1.000; stroke:none;" />
 <path d="  M 22,53  L 22,54  L 23,54  L 23,53  Z  " style="fill:rgb(115, 4, 8); fill-opacity:1.000; stroke:none;" />
 <path d="  M 27,52  L 27,51  L 26,51  L 26,52  Z  " style="fill:rgb(115, 4, 8); fill-opacity:1.000; stroke:none;" />
 <path d="  M 30,62  L 29,62  L 29,64  L 30,64  Z  " style="fill:rgb(115, 4, 8); fill-opacity:1.000; stroke:none;" />
 <path d="  M 30,62  L 31,62  L 31,61  L 30,61  Z  " style="fill:rgb(115, 4, 8); fill-opacity:1.000; stroke:none;" />
 <path d="  M 34,61  L 34,60  L 31,60  L 31,61  Z  " style="fill:rgb(115, 4, 8); fill-opacity:1.000; stroke:none;" />
 <path d="  M 36,62  L 37,62  L 37,61  L 36,61  Z  " style="fill:rgb(115, 4, 8); fill-opacity:1.000; stroke:none;" />
 <path d="  M 38,64  L 38,62  L 37,62  L 37,64  Z  " style="fill:rgb(115, 4, 8); fill-opacity:1.000; stroke:none;" />
 <path d="  M 41,49  L 40,49  L 40,50  L 41,50  Z  " style="fill:rgb(115, 4, 8); fill-opacity:1.000; stroke:none;" />
 <path d="  M 42,52  L 42,50  L 41,50  L 41,52  Z  " style="fill:rgb(115, 4, 8); fill-opacity:1.000; stroke:none;" />
 <path d="  M 42,53  L 43,53  L 43,52  L 42,52  Z  " style="fill:rgb(115, 4, 8); fill-opacity:1.000; stroke:none;" />
 <path d="  M 44,53  L 43,53  L 43,54  L 44,54  Z  " style="fill:rgb(115, 4, 8); fill-opacity:1.000; stroke:none;" />
 <path d="  M 47,53  L 45,53  L 45,54  L 44,54  L 44,56  L 46,56  L 46,54  L 47,54  Z  " style="fill:rgb(115, 4, 8); fill-opacity:1.000; stroke:none;" />
 <path d="  M 47,56  L 46,56  L 46,58  L 47,58  Z  " style="fill:rgb(115, 4, 8); fill-opacity:1.000; stroke:none;" />
 <path d="  M 54,56  L 55,56  L 55,54  L 54,54  L 54,55  L 53,55  L 53,54  L 51,54  L 51,55  L 52,55  L 52,56  L 51,56  L 51,57  L 50,57  L 50,58  L 48,58  L 48,59  L 47,59  L 47,60  L 46,60  L 46,62  L 47,62  L 47,63  L 46,63  L 46,64  L 54,64  Z  M 48,62  L 47,62  L 47,61  L 48,61  Z  M 48,60  L 48,59  L 49,59  L 49,60  Z  " style="fill:rgb(115, 4, 8); fill-opacity:1.000; stroke:none;" />
 <path d="  M 47,56  L 48,56  L 48,55  L 47,55  Z  " style="fill:rgb(115, 4, 8); fill-opacity:1.000; stroke:none;" />
 <path d="  M 51,56  L 51,55  L 50,55  L 50,56  Z  " style="fill:rgb(115, 4, 8); fill-opacity:1.000; stroke:none;" />
 <path d="  M 53,54  L 54,54  L 54,53  L 53,53  Z  " style="fill:rgb(115, 4, 8); fill-opacity:1.000; stroke:none;" />
 <path d="  M 58,50  L 56,50  L 56,51  L 55,51  L 55,52  L 56,52  L 56,53  L 57,53  L 57,52  L 58,52  Z  " style="fill:rgb(115, 4, 8); fill-opacity:1.000; stroke:none;" />
 <path d="  M 55,54  L 56,54  L 56,53  L 55,53  Z  " style="fill:rgb(115, 4, 8); fill-opacity:1.000; stroke:none;" />
 <path d="  M 58,45  L 58,44  L 57,44  L 57,45  Z  " style="fill:rgb(115, 4, 8); fill-opacity:1.000; stroke:none;" />
 <path d="  M 59,47  L 59,46  L 58,46  L 58,47  Z  " style="fill:rgb(115, 4, 8); fill-opacity:1.000; stroke:none;" />
 <path d="  M 58,50  L 59,50  L 59,49  L 58,49  Z  " style="fill:rgb(115, 4, 8); fill-opacity:1.000; stroke:none;" />
 <path d="  M 10,54  L 10,55  L 11,55  L 11,54  Z  " style="fill:rgb(72, 0, 0); fill-opacity:1.000; stroke:none;" />
 <path d="  M 12,55  L 11,55  L 11,56  L 12,56  Z  " style="fill:rgb(72, 0, 0); fill-opacity:1.000; stroke:none;" />
 <path d="  M 12,58  L 13,58  L 13,56  L 12,56  Z  " style="fill:rgb(72, 0, 0); fill-opacity:1.000; stroke:none;" />
 <path d="  M 13,58  L 13,64  L 14,64  L 14,58  Z  " style="fill:rgb(72, 0, 0); fill-opacity:1.000; stroke:none;" />
 <path d="  M 24,44  L 24,43  L 22,43  L 22,44  Z  " style="fill:rgb(72, 0, 0); fill-opacity:1.000; stroke:none;" />
 <path d="  M 22,58  L 22,64  L 23,64  L 23,58  Z  " style="fill:rgb(72, 0, 0); fill-opacity:1.000; stroke:none;" />
 <path d="  M 24,58  L 24,56  L 23,56  L 23,58  Z  " style="fill:rgb(72, 0, 0); fill-opacity:1.000; stroke:none;" />
 <path d="  M 24,45  L 25,45  L 25,44  L 24,44  Z  " style="fill:rgb(72, 0, 0); fill-opacity:1.000; stroke:none;" />
 <path d="  M 25,55  L 24,55  L 24,56  L 25,56  Z  " style="fill:rgb(72, 0, 0); fill-opacity:1.000; stroke:none;" />
 <path d="  M 26,45  L 25,45  L 25,46  L 26,46  Z  " style="fill:rgb(72, 0, 0); fill-opacity:1.000; stroke:none;" />
 <path d="  M 25,54  L 25,55  L 26,55  L 26,54  Z  " style="fill:rgb(72, 0, 0); fill-opacity:1.000; stroke:none;" />
 <path d="  M 27,46  L 26,46  L 26,48  L 27,48  Z  " style="fill:rgb(72, 0, 0); fill-opacity:1.000; stroke:none;" />
 <path d="  M 26,52  L 26,54  L 27,54  L 27,52  Z  " style="fill:rgb(72, 0, 0); fill-opacity:1.000; stroke:none;" />
 <path d="  M 28,52  L 28,48  L 27,48  L 27,52  Z  " style="fill:rgb(72, 0, 0); fill-opacity:1.000; stroke:none;" />
 <path d="  M 34,60  L 34,61  L 37,61  L 37,60  Z  " style="fill:rgb(72, 0, 0); fill-opacity:1.000; stroke:none;" />
 <path d="  M 37,62  L 38,62  L 38,61  L 37,61  Z  " style="fill:rgb(72, 0, 0); fill-opacity:1.000; stroke:none;" />
 <path d="  M 38,64  L 39,64  L 39,62  L 38,62  Z  " style="fill:rgb(72, 0, 0); fill-opacity:1.000; stroke:none;" />
 <path d="  M 45,64  L 46,64  L 46,56  L 45,56  Z  " style="fill:rgb(72, 0, 0); fill-opacity:1.000; stroke:none;" />
 <path d="  M 54,64  L 55,64  L 55,56  L 54,56  Z  " style="fill:rgb(72, 0, 0); fill-opacity:1.000; stroke:none;" />
 <path d="  M 56,54  L 55,54  L 55,56  L 56,56  Z  " style="fill:rgb(72, 0, 0); fill-opacity:1.000; stroke:none;" />
 <path d="  M 56,42  L 56,43  L 57,43  L 57,42  Z  " style="fill:rgb(72, 0, 0); fill-opacity:1.000; stroke:none;" />
 <path d="  M 56,54  L 57,54  L 57,53  L 56,53  Z  " style="fill:rgb(72, 0, 0); fill-opacity:1.000; stroke:none;" />
 <path d="  M 57,43  L 57,44  L 58,44  L 58,43  Z  " style="fill:rgb(72, 0, 0); fill-opacity:1.000; stroke:none;" />
 <path d="  M 57,53  L 58,53  L 58,52  L 57,52  Z  " style="fill:rgb(72, 0, 0); fill-opacity:1.000; stroke:none;" />
 <path d="  M 58,46  L 59,46  L 59,44  L 58,44  Z  " style="fill:rgb(72, 0, 0); fill-opacity:1.000; stroke:none;" />
 <path d="  M 58,52  L 59,52  L 59,50  L 58,50  Z  " style="fill:rgb(72, 0, 0); fill-opacity:1.000; stroke:none;" />
 <path d="  M 60,46  L 59,46  L 59,50  L 60,50  Z  " style="fill:rgb(72, 0, 0); fill-opacity:1.000; stroke:none;" />
 <path d="  M 13,48  L 13,47  L 12,47  L 12,48  Z  " style="fill:rgb(197, 52, 57); fill-opacity:1.000; stroke:none;" />
 <path d="  M 14,45  L 14,46  L 13,46  L 13,47  L 15,47  L 15,46  L 16,46  L 16,45  Z  " style="fill:rgb(197, 52, 57); fill-opacity:1.000; stroke:none;" />
 <path d="  M 18,45  L 18,44  L 16,44  L 16,45  Z  " style="fill:rgb(197, 52, 57); fill-opacity:1.000; stroke:none;" />
 <path d="  M 43,49  L 44,49  L 44,48  L 43,48  Z  " style="fill:rgb(197, 52, 57); fill-opacity:1.000; stroke:none;" />
 <path d="  M 46,48  L 46,47  L 47,47  L 47,46  L 48,46  L 48,45  L 46,45  L 46,46  L 45,46  L 45,47  L 44,47  L 44,48  Z  " style="fill:rgb(197, 52, 57); fill-opacity:1.000; stroke:none;" />
 <path d="  M 49,44  L 48,44  L 48,45  L 49,45  Z  " style="fill:rgb(197, 52, 57); fill-opacity:1.000; stroke:none;" />
</svg>
