<?xml version="1.0" encoding="UTF-8" standalone="no"?>
<!DOCTYPE svg PUBLIC "-//W3C//DTD SVG 1.1//EN" 
  "http://www.w3.org/Graphics/SVG/1.1/DTD/svg11.dtd">
<svg width="64" height="64"
	 xmlns="http://www.w3.org/2000/svg" version="1.1">
 <path d="  M 0,0  L 0,64  L 64,64  L 64,0  Z  M 1,1  L 63,1  L 63,63  L 1,63  Z  " style="fill:rgb(36, 30, 31); fill-opacity:1.000; stroke:none;" />
 <path d="  M 2,2  L 2,1  L 1,1  L 1,2  Z  " style="fill:rgb(49, 41, 42); fill-opacity:1.000; stroke:none;" />
 <path d="  M 2,4  L 1,4  L 1,10  L 2,10  Z  " style="fill:rgb(49, 41, 42); fill-opacity:1.000; stroke:none;" />
 <path d="  M 1,16  L 2,16  L 2,15  L 1,15  Z  " style="fill:rgb(49, 41, 42); fill-opacity:1.000; stroke:none;" />
 <path d="  M 2,31  L 1,31  L 1,35  L 2,35  Z  " style="fill:rgb(49, 41, 42); fill-opacity:1.000; stroke:none;" />
 <path d="  M 2,40  L 1,40  L 1,42  L 2,42  Z  " style="fill:rgb(49, 41, 42); fill-opacity:1.000; stroke:none;" />
 <path d="  M 63,63  L 63,1  L 56,1  L 56,2  L 62,2  L 62,62  L 2,62  L 2,44  L 1,44  L 1,63  Z  " style="fill:rgb(49, 41, 42); fill-opacity:1.000; stroke:none;" />
 <path d="  M 8,2  L 8,1  L 4,1  L 4,2  Z  " style="fill:rgb(49, 41, 42); fill-opacity:1.000; stroke:none;" />
 <path d="  M 12,1  L 12,2  L 13,2  L 13,1  Z  " style="fill:rgb(49, 41, 42); fill-opacity:1.000; stroke:none;" />
 <path d="  M 22,2  L 22,1  L 18,1  L 18,2  Z  " style="fill:rgb(49, 41, 42); fill-opacity:1.000; stroke:none;" />
 <path d="  M 39,2  L 40,2  L 40,1  L 39,1  Z  " style="fill:rgb(49, 41, 42); fill-opacity:1.000; stroke:none;" />
 <path d="  M 42,2  L 46,2  L 46,1  L 42,1  Z  " style="fill:rgb(49, 41, 42); fill-opacity:1.000; stroke:none;" />
 <path d="  M 51,2  L 52,2  L 52,1  L 51,1  Z  " style="fill:rgb(49, 41, 42); fill-opacity:1.000; stroke:none;" />
 <path d="  M 1,4  L 2,4  L 2,2  L 1,2  Z  " style="fill:rgb(60, 50, 50); fill-opacity:1.000; stroke:none;" />
 <path d="  M 1,15  L 2,15  L 2,10  L 1,10  Z  " style="fill:rgb(60, 50, 50); fill-opacity:1.000; stroke:none;" />
 <path d="  M 2,16  L 1,16  L 1,31  L 2,31  Z  " style="fill:rgb(60, 50, 50); fill-opacity:1.000; stroke:none;" />
 <path d="  M 2,35  L 1,35  L 1,40  L 2,40  Z  " style="fill:rgb(60, 50, 50); fill-opacity:1.000; stroke:none;" />
 <path d="  M 1,44  L 2,44  L 2,42  L 1,42  Z  " style="fill:rgb(60, 50, 50); fill-opacity:1.000; stroke:none;" />
 <path d="  M 4,2  L 4,1  L 2,1  L 2,2  Z  " style="fill:rgb(60, 50, 50); fill-opacity:1.000; stroke:none;" />
 <path d="  M 6,60  L 6,61  L 8,61  L 8,60  Z  " style="fill:rgb(60, 50, 50); fill-opacity:1.000; stroke:none;" />
 <path d="  M 8,1  L 8,2  L 12,2  L 12,1  Z  " style="fill:rgb(60, 50, 50); fill-opacity:1.000; stroke:none;" />
 <path d="  M 10,60  L 9,60  L 9,61  L 10,61  Z  " style="fill:rgb(60, 50, 50); fill-opacity:1.000; stroke:none;" />
 <path d="  M 13,2  L 18,2  L 18,1  L 13,1  Z  " style="fill:rgb(60, 50, 50); fill-opacity:1.000; stroke:none;" />
 <path d="  M 39,2  L 39,1  L 22,1  L 22,2  Z  " style="fill:rgb(60, 50, 50); fill-opacity:1.000; stroke:none;" />
 <path d="  M 25,61  L 27,61  L 27,60  L 25,60  Z  " style="fill:rgb(60, 50, 50); fill-opacity:1.000; stroke:none;" />
 <path d="  M 29,60  L 28,60  L 28,61  L 29,61  Z  " style="fill:rgb(60, 50, 50); fill-opacity:1.000; stroke:none;" />
 <path d="  M 32,61  L 32,60  L 31,60  L 31,61  Z  " style="fill:rgb(60, 50, 50); fill-opacity:1.000; stroke:none;" />
 <path d="  M 40,1  L 40,2  L 42,2  L 42,1  Z  " style="fill:rgb(60, 50, 50); fill-opacity:1.000; stroke:none;" />
 <path d="  M 46,1  L 46,2  L 51,2  L 51,1  Z  " style="fill:rgb(60, 50, 50); fill-opacity:1.000; stroke:none;" />
 <path d="  M 60,52  L 59,52  L 59,53  L 58,53  L 58,54  L 59,54  L 59,55  L 58,55  L 58,56  L 57,56  L 57,55  L 55,55  L 55,56  L 56,56  L 56,58  L 55,58  L 55,57  L 54,57  L 54,56  L 53,56  L 53,57  L 51,57  L 51,58  L 50,58  L 50,59  L 47,59  L 47,60  L 51,60  L 51,59  L 53,59  L 53,60  L 56,60  L 56,59  L 58,59  L 58,58  L 59,58  L 59,57  L 60,57  L 60,53  L 61,53  L 61,50  L 60,50  Z  M 55,58  L 55,59  L 54,59  L 54,58  Z  M 58,58  L 57,58  L 57,57  L 58,57  Z  " style="fill:rgb(60, 50, 50); fill-opacity:1.000; stroke:none;" />
 <path d="  M 49,58  L 50,58  L 50,57  L 49,57  Z  " style="fill:rgb(60, 50, 50); fill-opacity:1.000; stroke:none;" />
 <path d="  M 52,1  L 52,2  L 56,2  L 56,1  Z  " style="fill:rgb(60, 50, 50); fill-opacity:1.000; stroke:none;" />
 <path d="  M 55,54  L 54,54  L 54,55  L 55,55  Z  " style="fill:rgb(60, 50, 50); fill-opacity:1.000; stroke:none;" />
 <path d="  M 57,61  L 58,61  L 58,60  L 57,60  Z  " style="fill:rgb(60, 50, 50); fill-opacity:1.000; stroke:none;" />
 <path d="  M 59,52  L 59,51  L 58,51  L 58,52  Z  " style="fill:rgb(60, 50, 50); fill-opacity:1.000; stroke:none;" />
 <path d="  M 60,60  L 59,60  L 59,61  L 61,61  L 61,59  L 60,59  Z  " style="fill:rgb(60, 50, 50); fill-opacity:1.000; stroke:none;" />
 <path d="  M 60,22  L 61,22  L 61,15  L 60,15  Z  " style="fill:rgb(60, 50, 50); fill-opacity:1.000; stroke:none;" />
 <path d="  M 3,3  L 4,3  L 4,2  L 2,2  L 2,6  L 3,6  Z  " style="fill:rgb(72, 69, 72); fill-opacity:1.000; stroke:none;" />
 <path d="  M 3,33  L 3,32  L 2,32  L 2,33  Z  " style="fill:rgb(72, 69, 72); fill-opacity:1.000; stroke:none;" />
 <path d="  M 2,60  L 2,62  L 3,62  L 3,60  Z  " style="fill:rgb(72, 69, 72); fill-opacity:1.000; stroke:none;" />
 <path d="  M 4,9  L 4,7  L 3,7  L 3,9  Z  " style="fill:rgb(72, 69, 72); fill-opacity:1.000; stroke:none;" />
 <path d="  M 3,12  L 4,12  L 4,11  L 3,11  Z  " style="fill:rgb(72, 69, 72); fill-opacity:1.000; stroke:none;" />
 <path d="  M 4,17  L 4,16  L 5,16  L 5,15  L 4,15  L 4,14  L 3,14  L 3,24  L 4,24  L 4,22  L 5,22  L 5,23  L 6,23  L 6,24  L 7,24  L 7,23  L 10,23  L 10,24  L 8,24  L 8,25  L 11,25  L 11,24  L 12,24  L 12,23  L 11,23  L 11,21  L 10,21  L 10,20  L 9,20  L 9,21  L 6,21  L 6,20  L 5,20  L 5,19  L 4,19  L 4,18  L 6,18  L 6,17  Z  " style="fill:rgb(72, 69, 72); fill-opacity:1.000; stroke:none;" />
 <path d="  M 4,54  L 4,53  L 3,53  L 3,55  L 5,55  L 5,54  Z  " style="fill:rgb(72, 69, 72); fill-opacity:1.000; stroke:none;" />
 <path d="  M 4,5  L 5,5  L 5,6  L 7,6  L 7,5  L 8,5  L 8,3  L 7,3  L 7,4  L 6,4  L 6,3  L 5,3  L 5,4  L 4,4  Z  " style="fill:rgb(72, 69, 72); fill-opacity:1.000; stroke:none;" />
 <path d="  M 5,7  L 5,6  L 4,6  L 4,7  Z  " style="fill:rgb(72, 69, 72); fill-opacity:1.000; stroke:none;" />
 <path d="  M 4,9  L 4,10  L 7,10  L 7,9  L 6,9  L 6,8  L 5,8  L 5,9  Z  " style="fill:rgb(72, 69, 72); fill-opacity:1.000; stroke:none;" />
 <path d="  M 5,13  L 4,13  L 4,14  L 5,14  Z  " style="fill:rgb(72, 69, 72); fill-opacity:1.000; stroke:none;" />
 <path d="  M 4,25  L 5,25  L 5,24  L 4,24  Z  " style="fill:rgb(72, 69, 72); fill-opacity:1.000; stroke:none;" />
 <path d="  M 4,53  L 5,53  L 5,52  L 4,52  Z  " style="fill:rgb(72, 69, 72); fill-opacity:1.000; stroke:none;" />
 <path d="  M 5,57  L 5,56  L 4,56  L 4,57  Z  " style="fill:rgb(72, 69, 72); fill-opacity:1.000; stroke:none;" />
 <path d="  M 5,57  L 5,58  L 6,58  L 6,57  Z  " style="fill:rgb(72, 69, 72); fill-opacity:1.000; stroke:none;" />
 <path d="  M 6,8  L 8,8  L 8,6  L 7,6  L 7,7  L 6,7  Z  " style="fill:rgb(72, 69, 72); fill-opacity:1.000; stroke:none;" />
 <path d="  M 7,19  L 6,19  L 6,20  L 7,20  Z  " style="fill:rgb(72, 69, 72); fill-opacity:1.000; stroke:none;" />
 <path d="  M 6,52  L 7,52  L 7,51  L 6,51  Z  " style="fill:rgb(72, 69, 72); fill-opacity:1.000; stroke:none;" />
 <path d="  M 7,54  L 8,54  L 8,53  L 6,53  L 6,55  L 7,55  Z  " style="fill:rgb(72, 69, 72); fill-opacity:1.000; stroke:none;" />
 <path d="  M 11,61  L 6,61  L 6,62  L 11,62  Z  " style="fill:rgb(72, 69, 72); fill-opacity:1.000; stroke:none;" />
 <path d="  M 9,7  L 9,8  L 8,8  L 8,10  L 7,10  L 7,11  L 9,11  L 9,10  L 10,10  L 10,8  L 11,8  L 11,7  Z  " style="fill:rgb(72, 69, 72); fill-opacity:1.000; stroke:none;" />
 <path d="  M 7,26  L 8,26  L 8,25  L 7,25  Z  " style="fill:rgb(72, 69, 72); fill-opacity:1.000; stroke:none;" />
 <path d="  M 8,57  L 8,55  L 7,55  L 7,57  Z  " style="fill:rgb(72, 69, 72); fill-opacity:1.000; stroke:none;" />
 <path d="  M 8,13  L 9,13  L 9,12  L 8,12  Z  " style="fill:rgb(72, 69, 72); fill-opacity:1.000; stroke:none;" />
 <path d="  M 11,15  L 11,16  L 14,16  L 14,15  L 13,15  L 13,14  L 14,14  L 14,13  L 15,13  L 15,12  L 16,12  L 16,11  L 15,11  L 15,10  L 14,10  L 14,11  L 13,11  L 13,12  L 11,12  L 11,13  L 9,13  L 9,14  L 8,14  L 8,15  Z  " style="fill:rgb(72, 69, 72); fill-opacity:1.000; stroke:none;" />
 <path d="  M 16,55  L 18,55  L 18,54  L 19,54  L 19,53  L 17,53  L 17,52  L 19,52  L 19,51  L 18,51  L 18,50  L 15,50  L 15,51  L 16,51  L 16,52  L 15,52  L 15,54  L 13,54  L 13,55  L 10,55  L 10,54  L 8,54  L 8,55  L 9,55  L 9,56  L 12,56  L 12,57  L 13,57  L 13,56  L 15,56  L 15,57  L 14,57  L 14,58  L 16,58  L 16,59  L 17,59  L 17,58  L 18,58  L 18,57  L 17,57  L 17,56  L 16,56  Z  " style="fill:rgb(72, 69, 72); fill-opacity:1.000; stroke:none;" />
 <path d="  M 9,4  L 9,5  L 10,5  L 10,4  Z  " style="fill:rgb(72, 69, 72); fill-opacity:1.000; stroke:none;" />
 <path d="  M 9,53  L 10,53  L 10,52  L 9,52  Z  " style="fill:rgb(72, 69, 72); fill-opacity:1.000; stroke:none;" />
 <path d="  M 18,4  L 15,4  L 15,3  L 12,3  L 12,4  L 11,4  L 11,5  L 10,5  L 10,6  L 11,6  L 11,7  L 13,7  L 13,8  L 15,8  L 15,7  L 17,7  L 17,8  L 18,8  L 18,9  L 19,9  L 19,8  L 20,8  L 20,7  L 22,7  L 22,6  L 21,6  L 21,4  L 20,4  L 20,3  L 18,3  Z  M 16,6  L 16,5  L 18,5  L 18,6  L 19,6  L 19,7  L 17,7  L 17,6  Z  M 19,6  L 19,5  L 20,5  L 20,6  Z  M 13,5  L 13,6  L 12,6  L 12,5  Z  M 15,6  L 15,7  L 14,7  L 14,6  Z  " style="fill:rgb(72, 69, 72); fill-opacity:1.000; stroke:none;" />
 <path d="  M 17,18  L 17,19  L 18,19  L 18,16  L 16,16  L 16,17  L 15,17  L 15,18  L 14,18  L 14,17  L 13,17  L 13,18  L 12,18  L 12,17  L 11,17  L 11,18  L 10,18  L 10,20  L 11,20  L 11,19  L 13,19  L 13,21  L 14,21  L 14,20  L 15,20  L 15,19  L 16,19  L 16,18  Z  " style="fill:rgb(72, 69, 72); fill-opacity:1.000; stroke:none;" />
 <path d="  M 14,10  L 14,9  L 13,9  L 13,8  L 11,8  L 11,9  L 12,9  L 12,10  Z  " style="fill:rgb(72, 69, 72); fill-opacity:1.000; stroke:none;" />
 <path d="  M 12,21  L 12,20  L 11,20  L 11,21  Z  " style="fill:rgb(72, 69, 72); fill-opacity:1.000; stroke:none;" />
 <path d="  M 11,51  L 11,52  L 12,52  L 12,51  Z  " style="fill:rgb(72, 69, 72); fill-opacity:1.000; stroke:none;" />
 <path d="  M 12,57  L 11,57  L 11,58  L 12,58  Z  " style="fill:rgb(72, 69, 72); fill-opacity:1.000; stroke:none;" />
 <path d="  M 14,23  L 14,25  L 15,25  L 15,24  L 16,24  L 16,23  L 15,23  L 15,21  L 14,21  L 14,22  L 12,22  L 12,23  Z  " style="fill:rgb(72, 69, 72); fill-opacity:1.000; stroke:none;" />
 <path d="  M 13,54  L 13,53  L 12,53  L 12,54  Z  " style="fill:rgb(72, 69, 72); fill-opacity:1.000; stroke:none;" />
 <path d="  M 14,52  L 13,52  L 13,53  L 14,53  Z  " style="fill:rgb(72, 69, 72); fill-opacity:1.000; stroke:none;" />
 <path d="  M 17,47  L 16,47  L 16,48  L 14,48  L 14,50  L 15,50  L 15,49  L 17,49  L 17,48  L 19,48  L 19,47  L 18,47  L 18,46  L 17,46  Z  " style="fill:rgb(72, 69, 72); fill-opacity:1.000; stroke:none;" />
 <path d="  M 14,52  L 15,52  L 15,51  L 14,51  Z  " style="fill:rgb(72, 69, 72); fill-opacity:1.000; stroke:none;" />
 <path d="  M 15,20  L 15,21  L 16,21  L 16,20  Z  " style="fill:rgb(72, 69, 72); fill-opacity:1.000; stroke:none;" />
 <path d="  M 16,47  L 16,46  L 15,46  L 15,47  Z  " style="fill:rgb(72, 69, 72); fill-opacity:1.000; stroke:none;" />
 <path d="  M 15,61  L 15,62  L 18,62  L 18,61  Z  " style="fill:rgb(72, 69, 72); fill-opacity:1.000; stroke:none;" />
 <path d="  M 17,8  L 16,8  L 16,9  L 17,9  Z  " style="fill:rgb(72, 69, 72); fill-opacity:1.000; stroke:none;" />
 <path d="  M 17,22  L 17,21  L 16,21  L 16,22  Z  " style="fill:rgb(72, 69, 72); fill-opacity:1.000; stroke:none;" />
 <path d="  M 17,12  L 18,12  L 18,10  L 17,10  Z  " style="fill:rgb(72, 69, 72); fill-opacity:1.000; stroke:none;" />
 <path d="  M 19,14  L 19,13  L 18,13  L 18,14  Z  " style="fill:rgb(72, 69, 72); fill-opacity:1.000; stroke:none;" />
 <path d="  M 20,16  L 20,15  L 21,15  L 21,14  L 22,14  L 22,10  L 21,10  L 21,11  L 20,11  L 20,12  L 21,12  L 21,13  L 20,13  L 20,14  L 19,14  L 19,15  L 18,15  L 18,16  Z  " style="fill:rgb(72, 69, 72); fill-opacity:1.000; stroke:none;" />
 <path d="  M 18,20  L 19,20  L 19,19  L 18,19  Z  " style="fill:rgb(72, 69, 72); fill-opacity:1.000; stroke:none;" />
 <path d="  M 20,46  L 20,45  L 18,45  L 18,46  Z  " style="fill:rgb(72, 69, 72); fill-opacity:1.000; stroke:none;" />
 <path d="  M 19,11  L 20,11  L 20,10  L 19,10  Z  " style="fill:rgb(72, 69, 72); fill-opacity:1.000; stroke:none;" />
 <path d="  M 20,12  L 19,12  L 19,13  L 20,13  Z  " style="fill:rgb(72, 69, 72); fill-opacity:1.000; stroke:none;" />
 <path d="  M 20,62  L 20,61  L 19,61  L 19,62  Z  " style="fill:rgb(72, 69, 72); fill-opacity:1.000; stroke:none;" />
 <path d="  M 26,7  L 26,6  L 25,6  L 25,5  L 22,5  L 22,6  L 24,6  L 24,7  L 23,7  L 23,8  L 20,8  L 20,9  L 22,9  L 22,10  L 23,10  L 23,9  L 24,9  L 24,8  L 25,8  L 25,7  Z  " style="fill:rgb(72, 69, 72); fill-opacity:1.000; stroke:none;" />
 <path d="  M 20,17  L 20,18  L 21,18  L 21,17  Z  " style="fill:rgb(72, 69, 72); fill-opacity:1.000; stroke:none;" />
 <path d="  M 20,44  L 20,45  L 22,45  L 22,46  L 26,46  L 26,45  L 25,45  L 25,44  L 24,44  L 24,43  L 23,43  L 23,44  Z  " style="fill:rgb(72, 69, 72); fill-opacity:1.000; stroke:none;" />
 <path d="  M 22,3  L 21,3  L 21,4  L 22,4  Z  " style="fill:rgb(72, 69, 72); fill-opacity:1.000; stroke:none;" />
 <path d="  M 21,47  L 22,47  L 22,46  L 21,46  Z  " style="fill:rgb(72, 69, 72); fill-opacity:1.000; stroke:none;" />
 <path d="  M 23,42  L 22,42  L 22,43  L 23,43  Z  " style="fill:rgb(72, 69, 72); fill-opacity:1.000; stroke:none;" />
 <path d="  M 23,11  L 23,12  L 24,12  L 24,11  Z  " style="fill:rgb(72, 69, 72); fill-opacity:1.000; stroke:none;" />
 <path d="  M 25,10  L 25,11  L 26,11  L 26,10  Z  " style="fill:rgb(72, 69, 72); fill-opacity:1.000; stroke:none;" />
 <path d="  M 26,43  L 25,43  L 25,44  L 26,44  Z  " style="fill:rgb(72, 69, 72); fill-opacity:1.000; stroke:none;" />
 <path d="  M 27,5  L 26,5  L 26,6  L 27,6  Z  " style="fill:rgb(72, 69, 72); fill-opacity:1.000; stroke:none;" />
 <path d="  M 27,7  L 26,7  L 26,8  L 27,8  Z  " style="fill:rgb(72, 69, 72); fill-opacity:1.000; stroke:none;" />
 <path d="  M 27,46  L 26,46  L 26,47  L 27,47  Z  " style="fill:rgb(72, 69, 72); fill-opacity:1.000; stroke:none;" />
 <path d="  M 26,52  L 26,53  L 27,53  L 27,52  Z  " style="fill:rgb(72, 69, 72); fill-opacity:1.000; stroke:none;" />
 <path d="  M 28,9  L 28,8  L 27,8  L 27,9  Z  " style="fill:rgb(72, 69, 72); fill-opacity:1.000; stroke:none;" />
 <path d="  M 36,46  L 36,45  L 38,45  L 38,46  L 39,46  L 39,47  L 40,47  L 40,46  L 41,46  L 41,45  L 40,45  L 40,44  L 39,44  L 39,43  L 38,43  L 38,44  L 36,44  L 36,43  L 35,43  L 35,42  L 34,42  L 34,43  L 33,43  L 33,44  L 34,44  L 34,45  L 32,45  L 32,46  L 30,46  L 30,47  L 29,47  L 29,46  L 28,46  L 28,47  L 27,47  L 27,49  L 28,49  L 28,50  L 29,50  L 29,48  L 30,48  L 30,49  L 31,49  L 31,47  L 33,47  L 33,46  L 34,46  L 34,48  L 35,48  L 35,49  L 36,49  L 36,47  L 35,47  L 35,46  Z  " style="fill:rgb(72, 69, 72); fill-opacity:1.000; stroke:none;" />
 <path d="  M 29,45  L 29,46  L 30,46  L 30,45  Z  " style="fill:rgb(72, 69, 72); fill-opacity:1.000; stroke:none;" />
 <path d="  M 29,51  L 29,52  L 31,52  L 31,50  L 30,50  L 30,51  Z  " style="fill:rgb(72, 69, 72); fill-opacity:1.000; stroke:none;" />
 <path d="  M 32,44  L 31,44  L 31,45  L 32,45  Z  " style="fill:rgb(72, 69, 72); fill-opacity:1.000; stroke:none;" />
 <path d="  M 31,53  L 32,53  L 32,52  L 31,52  Z  " style="fill:rgb(72, 69, 72); fill-opacity:1.000; stroke:none;" />
 <path d="  M 32,50  L 33,50  L 33,48  L 32,48  Z  " style="fill:rgb(72, 69, 72); fill-opacity:1.000; stroke:none;" />
 <path d="  M 34,52  L 34,53  L 35,53  L 35,52  Z  " style="fill:rgb(72, 69, 72); fill-opacity:1.000; stroke:none;" />
 <path d="  M 36,43  L 37,43  L 37,41  L 35,41  L 35,42  L 36,42  Z  " style="fill:rgb(72, 69, 72); fill-opacity:1.000; stroke:none;" />
 <path d="  M 37,7  L 37,6  L 38,6  L 38,5  L 37,5  L 37,4  L 36,4  L 36,7  Z  " style="fill:rgb(72, 69, 72); fill-opacity:1.000; stroke:none;" />
 <path d="  M 37,38  L 37,37  L 36,37  L 36,38  Z  " style="fill:rgb(72, 69, 72); fill-opacity:1.000; stroke:none;" />
 <path d="  M 37,47  L 37,46  L 36,46  L 36,47  Z  " style="fill:rgb(72, 69, 72); fill-opacity:1.000; stroke:none;" />
 <path d="  M 38,4  L 38,3  L 37,3  L 37,4  Z  " style="fill:rgb(72, 69, 72); fill-opacity:1.000; stroke:none;" />
 <path d="  M 52,45  L 53,45  L 53,46  L 52,46  Z  M 44,41  L 46,41  L 46,42  L 45,42  L 45,43  L 44,43  Z  M 49,48  L 48,48  L 48,47  L 49,47  Z  M 45,51  L 45,52  L 46,52  L 46,51  L 47,51  L 47,50  L 48,50  L 48,49  L 49,49  L 49,48  L 50,48  L 50,47  L 51,47  L 51,49  L 53,49  L 53,48  L 52,48  L 52,47  L 53,47  L 53,46  L 54,46  L 54,45  L 55,45  L 55,44  L 56,44  L 56,43  L 54,43  L 54,42  L 52,42  L 52,41  L 51,41  L 51,42  L 50,42  L 50,43  L 48,43  L 48,41  L 47,41  L 47,40  L 48,40  L 48,39  L 47,39  L 47,37  L 48,37  L 48,36  L 47,36  L 47,35  L 48,35  L 48,33  L 47,33  L 47,34  L 46,34  L 46,37  L 45,37  L 45,38  L 44,38  L 44,39  L 43,39  L 43,42  L 42,42  L 42,41  L 41,41  L 41,40  L 40,40  L 40,39  L 39,39  L 39,38  L 38,38  L 38,40  L 37,40  L 37,41  L 38,41  L 38,42  L 40,42  L 40,44  L 43,44  L 43,45  L 42,45  L 42,46  L 41,46  L 41,48  L 42,48  L 42,49  L 41,49  L 41,50  L 42,50  L 42,52  L 43,52  L 43,50  L 44,50  L 44,51  Z  M 40,41  L 39,41  L 39,40  L 40,40  Z  M 47,44  L 47,43  L 48,43  L 48,44  Z  M 52,43  L 52,44  L 51,44  L 51,45  L 50,45  L 50,43  Z  M 46,38  L 46,39  L 45,39  L 45,38  Z  M 48,45  L 49,45  L 49,46  L 48,46  Z  M 46,50  L 45,50  L 45,49  L 46,49  Z  M 46,44  L 45,44  L 45,43  L 46,43  Z  " style="fill:rgb(72, 69, 72); fill-opacity:1.000; stroke:none;" />
 <path d="  M 38,6  L 38,8  L 39,8  L 39,6  Z  " style="fill:rgb(72, 69, 72); fill-opacity:1.000; stroke:none;" />
 <path d="  M 39,5  L 41,5  L 41,4  L 40,4  L 40,3  L 39,3  Z  " style="fill:rgb(72, 69, 72); fill-opacity:1.000; stroke:none;" />
 <path d="  M 39,34  L 39,35  L 40,35  L 40,34  Z  " style="fill:rgb(72, 69, 72); fill-opacity:1.000; stroke:none;" />
 <path d="  M 40,10  L 41,10  L 41,9  L 42,9  L 42,7  L 43,7  L 43,9  L 44,9  L 44,8  L 45,8  L 45,7  L 44,7  L 44,6  L 46,6  L 46,5  L 47,5  L 47,4  L 49,4  L 49,3  L 44,3  L 44,4  L 42,4  L 42,5  L 41,5  L 41,6  L 40,6  L 40,7  L 41,7  L 41,8  L 40,8  Z  M 42,6  L 42,5  L 43,5  L 43,6  Z  " style="fill:rgb(72, 69, 72); fill-opacity:1.000; stroke:none;" />
 <path d="  M 41,37  L 41,36  L 40,36  L 40,37  Z  " style="fill:rgb(72, 69, 72); fill-opacity:1.000; stroke:none;" />
 <path d="  M 41,61  L 40,61  L 40,62  L 41,62  Z  " style="fill:rgb(72, 69, 72); fill-opacity:1.000; stroke:none;" />
 <path d="  M 42,38  L 42,39  L 43,39  L 43,36  L 42,36  L 42,37  L 41,37  L 41,38  Z  " style="fill:rgb(72, 69, 72); fill-opacity:1.000; stroke:none;" />
 <path d="  M 41,39  L 41,40  L 42,40  L 42,39  Z  " style="fill:rgb(72, 69, 72); fill-opacity:1.000; stroke:none;" />
 <path d="  M 43,33  L 42,33  L 42,34  L 43,34  Z  " style="fill:rgb(72, 69, 72); fill-opacity:1.000; stroke:none;" />
 <path d="  M 44,13  L 44,12  L 43,12  L 43,13  Z  " style="fill:rgb(72, 69, 72); fill-opacity:1.000; stroke:none;" />
 <path d="  M 45,17  L 46,17  L 46,15  L 45,15  L 45,14  L 44,14  L 44,15  L 43,15  L 43,16  L 45,16  Z  " style="fill:rgb(72, 69, 72); fill-opacity:1.000; stroke:none;" />
 <path d="  M 44,18  L 44,17  L 43,17  L 43,18  Z  " style="fill:rgb(72, 69, 72); fill-opacity:1.000; stroke:none;" />
 <path d="  M 43,25  L 43,26  L 44,26  L 44,25  Z  " style="fill:rgb(72, 69, 72); fill-opacity:1.000; stroke:none;" />
 <path d="  M 44,52  L 43,52  L 43,53  L 44,53  Z  " style="fill:rgb(72, 69, 72); fill-opacity:1.000; stroke:none;" />
 <path d="  M 46,10  L 47,10  L 47,9  L 45,9  L 45,10  L 44,10  L 44,11  L 45,11  L 45,12  L 46,12  Z  " style="fill:rgb(72, 69, 72); fill-opacity:1.000; stroke:none;" />
 <path d="  M 53,25  L 55,25  L 55,27  L 56,27  L 56,28  L 55,28  L 55,29  L 56,29  L 56,31  L 57,31  L 57,32  L 58,32  L 58,33  L 55,33  L 55,34  L 57,34  L 57,36  L 58,36  L 58,37  L 60,37  L 60,26  L 59,26  L 59,23  L 57,23  L 57,21  L 56,21  L 56,20  L 58,20  L 58,19  L 57,19  L 57,17  L 55,17  L 55,18  L 54,18  L 54,16  L 57,16  L 57,15  L 58,15  L 58,14  L 57,14  L 57,13  L 58,13  L 58,12  L 57,12  L 57,11  L 56,11  L 56,10  L 55,10  L 55,9  L 53,9  L 53,11  L 52,11  L 52,9  L 51,9  L 51,8  L 50,8  L 50,7  L 48,7  L 48,6  L 46,6  L 46,7  L 47,7  L 47,9  L 49,9  L 49,10  L 50,10  L 50,11  L 49,11  L 49,13  L 50,13  L 50,15  L 51,15  L 51,16  L 50,16  L 50,18  L 49,18  L 49,17  L 47,17  L 47,18  L 48,18  L 48,20  L 49,20  L 49,19  L 50,19  L 50,21  L 49,21  L 49,22  L 48,22  L 48,23  L 47,23  L 47,24  L 46,24  L 46,25  L 45,25  L 45,26  L 44,26  L 44,27  L 45,27  L 45,28  L 47,28  L 47,30  L 48,30  L 48,31  L 50,31  L 50,32  L 49,32  L 49,37  L 50,37  L 50,36  L 51,36  L 51,35  L 50,35  L 50,34  L 51,34  L 51,33  L 52,33  L 52,34  L 53,34  L 53,32  L 54,32  L 54,31  L 52,31  L 52,30  L 51,30  L 51,29  L 52,29  L 52,28  L 51,28  L 51,27  L 53,27  Z  M 50,28  L 48,28  L 48,26  L 49,26  L 49,25  L 50,25  L 50,26  L 51,26  L 51,27  L 50,27  Z  M 55,13  L 56,13  L 56,14  L 55,14  Z  M 58,34  L 59,34  L 59,36  L 58,36  Z  M 53,15  L 54,15  L 54,16  L 53,16  Z  M 51,23  L 51,24  L 50,24  L 50,23  Z  M 56,25  L 55,25  L 55,24  L 56,24  Z  M 52,20  L 51,20  L 51,19  L 52,19  Z  M 53,23  L 53,25  L 52,25  L 52,23  Z  M 55,20  L 55,19  L 56,19  L 56,20  Z  " style="fill:rgb(72, 69, 72); fill-opacity:1.000; stroke:none;" />
 <path d="  M 45,28  L 44,28  L 44,29  L 45,29  Z  " style="fill:rgb(72, 69, 72); fill-opacity:1.000; stroke:none;" />
 <path d="  M 45,35  L 44,35  L 44,36  L 45,36  Z  " style="fill:rgb(72, 69, 72); fill-opacity:1.000; stroke:none;" />
 <path d="  M 46,21  L 46,20  L 45,20  L 45,21  Z  " style="fill:rgb(72, 69, 72); fill-opacity:1.000; stroke:none;" />
 <path d="  M 45,53  L 45,54  L 46,54  L 46,53  Z  " style="fill:rgb(72, 69, 72); fill-opacity:1.000; stroke:none;" />
 <path d="  M 48,61  L 45,61  L 45,62  L 48,62  Z  " style="fill:rgb(72, 69, 72); fill-opacity:1.000; stroke:none;" />
 <path d="  M 46,23  L 47,23  L 47,22  L 48,22  L 48,21  L 46,21  Z  " style="fill:rgb(72, 69, 72); fill-opacity:1.000; stroke:none;" />
 <path d="  M 48,13  L 48,11  L 47,11  L 47,13  Z  " style="fill:rgb(72, 69, 72); fill-opacity:1.000; stroke:none;" />
 <path d="  M 48,16  L 48,15  L 47,15  L 47,16  Z  " style="fill:rgb(72, 69, 72); fill-opacity:1.000; stroke:none;" />
 <path d="  M 47,31  L 47,32  L 48,32  L 48,31  Z  " style="fill:rgb(72, 69, 72); fill-opacity:1.000; stroke:none;" />
 <path d="  M 49,6  L 49,5  L 48,5  L 48,6  Z  " style="fill:rgb(72, 69, 72); fill-opacity:1.000; stroke:none;" />
 <path d="  M 49,38  L 49,37  L 48,37  L 48,39  L 51,39  L 51,38  Z  " style="fill:rgb(72, 69, 72); fill-opacity:1.000; stroke:none;" />
 <path d="  M 48,40  L 48,41  L 50,41  L 50,40  Z  " style="fill:rgb(72, 69, 72); fill-opacity:1.000; stroke:none;" />
 <path d="  M 48,50  L 48,52  L 49,52  L 49,51  L 50,51  L 50,50  L 51,50  L 51,49  L 49,49  L 49,50  Z  " style="fill:rgb(72, 69, 72); fill-opacity:1.000; stroke:none;" />
 <path d="  M 50,27  L 50,26  L 49,26  L 49,27  Z  " style="fill:rgb(72, 69, 72); fill-opacity:1.000; stroke:none;" />
 <path d="  M 52,4  L 52,3  L 50,3  L 50,4  Z  " style="fill:rgb(72, 69, 72); fill-opacity:1.000; stroke:none;" />
 <path d="  M 52,5  L 51,5  L 51,6  L 52,6  Z  " style="fill:rgb(72, 69, 72); fill-opacity:1.000; stroke:none;" />
 <path d="  M 52,7  L 51,7  L 51,8  L 52,8  Z  " style="fill:rgb(72, 69, 72); fill-opacity:1.000; stroke:none;" />
 <path d="  M 53,4  L 52,4  L 52,5  L 53,5  L 53,6  L 54,6  L 54,7  L 55,7  L 55,9  L 57,9  L 57,11  L 58,11  L 58,12  L 59,12  L 59,9  L 60,9  L 60,7  L 61,7  L 61,9  L 62,9  L 62,4  L 61,4  L 61,3  L 62,3  L 62,2  L 60,2  L 60,3  L 53,3  Z  M 55,4  L 55,5  L 54,5  L 54,4  Z  M 55,6  L 57,6  L 57,7  L 55,7  Z  " style="fill:rgb(72, 69, 72); fill-opacity:1.000; stroke:none;" />
 <path d="  M 52,6  L 52,7  L 53,7  L 53,6  Z  " style="fill:rgb(72, 69, 72); fill-opacity:1.000; stroke:none;" />
 <path d="  M 55,40  L 55,39  L 54,39  L 54,38  L 52,38  L 52,39  L 53,39  L 53,40  Z  " style="fill:rgb(72, 69, 72); fill-opacity:1.000; stroke:none;" />
 <path d="  M 52,41  L 53,41  L 53,40  L 52,40  Z  " style="fill:rgb(72, 69, 72); fill-opacity:1.000; stroke:none;" />
 <path d="  M 53,47  L 53,48  L 54,48  L 54,47  Z  " style="fill:rgb(72, 69, 72); fill-opacity:1.000; stroke:none;" />
 <path d="  M 54,27  L 54,28  L 55,28  L 55,27  Z  " style="fill:rgb(72, 69, 72); fill-opacity:1.000; stroke:none;" />
 <path d="  M 54,32  L 54,33  L 55,33  L 55,32  Z  " style="fill:rgb(72, 69, 72); fill-opacity:1.000; stroke:none;" />
 <path d="  M 55,37  L 54,37  L 54,38  L 55,38  Z  " style="fill:rgb(72, 69, 72); fill-opacity:1.000; stroke:none;" />
 <path d="  M 55,41  L 54,41  L 54,42  L 56,42  L 56,41  L 57,41  L 57,38  L 55,38  L 55,39  L 56,39  L 56,40  L 55,40  Z  " style="fill:rgb(72, 69, 72); fill-opacity:1.000; stroke:none;" />
 <path d="  M 55,46  L 54,46  L 54,47  L 55,47  Z  " style="fill:rgb(72, 69, 72); fill-opacity:1.000; stroke:none;" />
 <path d="  M 55,32  L 56,32  L 56,31  L 55,31  Z  " style="fill:rgb(72, 69, 72); fill-opacity:1.000; stroke:none;" />
 <path d="  M 57,16  L 57,17  L 58,17  L 58,16  Z  " style="fill:rgb(72, 69, 72); fill-opacity:1.000; stroke:none;" />
 <path d="  M 57,43  L 57,44  L 58,44  L 58,43  Z  " style="fill:rgb(72, 69, 72); fill-opacity:1.000; stroke:none;" />
 <path d="  M 57,61  L 57,62  L 62,62  L 62,59  L 61,59  L 61,61  Z  " style="fill:rgb(72, 69, 72); fill-opacity:1.000; stroke:none;" />
 <path d="  M 59,42  L 60,42  L 60,41  L 59,41  Z  " style="fill:rgb(72, 69, 72); fill-opacity:1.000; stroke:none;" />
 <path d="  M 3,6  L 2,6  L 2,29  L 3,29  Z  " style="fill:rgb(90, 87, 90); fill-opacity:1.000; stroke:none;" />
 <path d="  M 3,30  L 2,30  L 2,32  L 3,32  Z  " style="fill:rgb(90, 87, 90); fill-opacity:1.000; stroke:none;" />
 <path d="  M 2,33  L 2,34  L 3,34  L 3,33  Z  " style="fill:rgb(90, 87, 90); fill-opacity:1.000; stroke:none;" />
 <path d="  M 4,2  L 4,3  L 39,3  L 39,2  Z  " style="fill:rgb(90, 87, 90); fill-opacity:1.000; stroke:none;" />
 <path d="  M 7,35  L 7,36  L 8,36  L 8,35  Z  " style="fill:rgb(90, 87, 90); fill-opacity:1.000; stroke:none;" />
 <path d="  M 8,36  L 8,37  L 9,37  L 9,36  Z  " style="fill:rgb(90, 87, 90); fill-opacity:1.000; stroke:none;" />
 <path d="  M 10,38  L 10,37  L 9,37  L 9,38  Z  " style="fill:rgb(90, 87, 90); fill-opacity:1.000; stroke:none;" />
 <path d="  M 13,40  L 13,39  L 12,39  L 12,38  L 10,38  L 10,39  L 11,39  L 11,40  Z  " style="fill:rgb(90, 87, 90); fill-opacity:1.000; stroke:none;" />
 <path d="  M 14,41  L 14,40  L 13,40  L 13,41  Z  " style="fill:rgb(90, 87, 90); fill-opacity:1.000; stroke:none;" />
 <path d="  M 16,42  L 16,41  L 15,41  L 15,42  Z  " style="fill:rgb(90, 87, 90); fill-opacity:1.000; stroke:none;" />
 <path d="  M 33,22  L 32,22  L 32,23  L 33,23  Z  " style="fill:rgb(90, 87, 90); fill-opacity:1.000; stroke:none;" />
 <path d="  M 34,16  L 34,15  L 33,15  L 33,16  Z  " style="fill:rgb(90, 87, 90); fill-opacity:1.000; stroke:none;" />
 <path d="  M 35,23  L 33,23  L 33,24  L 35,24  Z  " style="fill:rgb(90, 87, 90); fill-opacity:1.000; stroke:none;" />
 <path d="  M 35,16  L 35,18  L 36,18  L 36,16  Z  " style="fill:rgb(90, 87, 90); fill-opacity:1.000; stroke:none;" />
 <path d="  M 35,24  L 35,25  L 36,25  L 36,24  Z  " style="fill:rgb(90, 87, 90); fill-opacity:1.000; stroke:none;" />
 <path d="  M 36,19  L 38,19  L 38,18  L 36,18  Z  " style="fill:rgb(90, 87, 90); fill-opacity:1.000; stroke:none;" />
 <path d="  M 36,25  L 36,26  L 37,26  L 37,25  Z  " style="fill:rgb(90, 87, 90); fill-opacity:1.000; stroke:none;" />
 <path d="  M 39,27  L 39,26  L 37,26  L 37,27  Z  " style="fill:rgb(90, 87, 90); fill-opacity:1.000; stroke:none;" />
 <path d="  M 38,19  L 38,20  L 40,20  L 40,19  Z  " style="fill:rgb(90, 87, 90); fill-opacity:1.000; stroke:none;" />
 <path d="  M 40,27  L 39,27  L 39,28  L 40,28  Z  " style="fill:rgb(90, 87, 90); fill-opacity:1.000; stroke:none;" />
 <path d="  M 52,3  L 52,2  L 40,2  L 40,3  Z  " style="fill:rgb(90, 87, 90); fill-opacity:1.000; stroke:none;" />
 <path d="  M 41,21  L 41,20  L 40,20  L 40,21  Z  " style="fill:rgb(90, 87, 90); fill-opacity:1.000; stroke:none;" />
 <path d="  M 41,21  L 41,22  L 42,22  L 42,21  Z  " style="fill:rgb(90, 87, 90); fill-opacity:1.000; stroke:none;" />
 <path d="  M 42,28  L 42,27  L 41,27  L 41,28  Z  " style="fill:rgb(90, 87, 90); fill-opacity:1.000; stroke:none;" />
 <path d="  M 43,23  L 43,22  L 42,22  L 42,23  Z  " style="fill:rgb(90, 87, 90); fill-opacity:1.000; stroke:none;" />
 <path d="  M 43,28  L 42,28  L 42,29  L 43,29  Z  " style="fill:rgb(90, 87, 90); fill-opacity:1.000; stroke:none;" />
 <path d="  M 44,30  L 44,29  L 43,29  L 43,30  Z  " style="fill:rgb(90, 87, 90); fill-opacity:1.000; stroke:none;" />
 <path d="  M 38,11  L 36,11  L 36,12  L 37,12  L 37,14  L 36,14  L 36,13  L 34,13  L 34,12  L 32,12  L 32,13  L 30,13  L 30,14  L 31,14  L 31,15  L 30,15  L 30,17  L 31,17  L 31,18  L 30,18  L 30,19  L 29,19  L 29,18  L 28,18  L 28,17  L 27,17  L 27,15  L 28,15  L 28,13  L 29,13  L 29,12  L 30,12  L 30,11  L 32,11  L 32,9  L 30,9  L 30,8  L 29,8  L 29,7  L 31,7  L 31,5  L 33,5  L 33,6  L 32,6  L 32,7  L 34,7  L 34,8  L 35,8  L 35,9  L 36,9  L 36,8  L 37,8  L 37,9  L 38,9  Z  M 49,11  L 50,11  L 50,10  L 49,10  L 49,9  L 47,9  L 47,7  L 46,7  L 46,6  L 44,6  L 44,7  L 45,7  L 45,8  L 44,8  L 44,9  L 43,9  L 43,7  L 42,7  L 42,9  L 41,9  L 41,10  L 40,10  L 40,8  L 41,8  L 41,7  L 40,7  L 40,6  L 41,6  L 41,5  L 39,5  L 39,8  L 38,8  L 38,6  L 37,6  L 37,7  L 36,7  L 36,4  L 37,4  L 37,3  L 22,3  L 22,4  L 21,4  L 21,6  L 22,6  L 22,5  L 25,5  L 25,6  L 26,6  L 26,7  L 25,7  L 25,8  L 24,8  L 24,9  L 23,9  L 23,10  L 22,10  L 22,12  L 23,12  L 23,11  L 25,11  L 25,12  L 24,12  L 24,13  L 23,13  L 23,15  L 22,15  L 22,17  L 21,17  L 21,18  L 20,18  L 20,20  L 18,20  L 18,19  L 17,19  L 17,18  L 16,18  L 16,19  L 15,19  L 15,20  L 16,20  L 16,21  L 15,21  L 15,23  L 16,23  L 16,24  L 15,24  L 15,25  L 14,25  L 14,23  L 12,23  L 12,24  L 11,24  L 11,25  L 8,25  L 8,24  L 10,24  L 10,23  L 7,23  L 7,24  L 6,24  L 6,23  L 5,23  L 5,22  L 4,22  L 4,24  L 3,24  L 3,29  L 2,29  L 2,30  L 3,30  L 3,34  L 2,34  L 2,60  L 3,60  L 3,53  L 4,53  L 4,54  L 6,54  L 6,53  L 8,53  L 8,54  L 10,54  L 10,53  L 9,53  L 9,52  L 8,52  L 8,51  L 10,51  L 10,49  L 11,49  L 11,48  L 12,48  L 12,47  L 14,47  L 14,46  L 16,46  L 16,47  L 17,47  L 17,46  L 18,46  L 18,45  L 20,45  L 20,44  L 23,44  L 23,43  L 22,43  L 22,42  L 20,42  L 20,41  L 18,41  L 18,40  L 21,40  L 21,39  L 22,39  L 22,38  L 20,38  L 20,37  L 21,37  L 21,36  L 20,36  L 20,34  L 19,34  L 19,35  L 17,35  L 17,34  L 16,34  L 16,33  L 15,33  L 15,32  L 14,32  L 14,31  L 15,31  L 15,30  L 13,30  L 13,33  L 12,33  L 12,32  L 11,32  L 11,31  L 10,31  L 10,32  L 7,32  L 7,31  L 8,31  L 8,28  L 7,28  L 7,27  L 9,27  L 9,29  L 10,29  L 10,28  L 11,28  L 11,29  L 13,29  L 13,28  L 14,28  L 14,29  L 15,29  L 15,28  L 17,28  L 17,29  L 19,29  L 19,28  L 20,28  L 20,27  L 21,27  L 21,25  L 20,25  L 20,23  L 21,23  L 21,22  L 23,22  L 23,20  L 24,20  L 24,19  L 25,19  L 25,17  L 26,17  L 26,18  L 28,18  L 28,19  L 27,19  L 27,20  L 28,20  L 28,21  L 26,21  L 26,22  L 27,22  L 27,23  L 26,23  L 26,24  L 25,24  L 25,25  L 26,25  L 26,26  L 27,26  L 27,27  L 29,27  L 29,28  L 31,28  L 31,29  L 29,29  L 29,30  L 30,30  L 30,32  L 29,32  L 29,34  L 30,34  L 30,35  L 32,35  L 32,34  L 33,34  L 33,33  L 35,33  L 35,34  L 34,34  L 34,37  L 32,37  L 32,38  L 34,38  L 34,39  L 35,39  L 35,41  L 37,41  L 37,40  L 38,40  L 38,38  L 39,38  L 39,39  L 40,39  L 40,40  L 41,40  L 41,39  L 42,39  L 42,38  L 41,38  L 41,37  L 42,37  L 42,36  L 43,36  L 43,39  L 44,39  L 44,38  L 45,38  L 45,37  L 46,37  L 46,34  L 47,34  L 47,33  L 48,33  L 48,35  L 47,35  L 47,36  L 48,36  L 48,37  L 49,37  L 49,32  L 50,32  L 50,31  L 48,31  L 48,30  L 47,30  L 47,28  L 45,28  L 45,27  L 44,27  L 44,26  L 45,26  L 45,25  L 46,25  L 46,24  L 47,24  L 47,23  L 46,23  L 46,21  L 48,21  L 48,22  L 49,22  L 49,21  L 50,21  L 50,19  L 49,19  L 49,20  L 48,20  L 48,18  L 47,18  L 47,17  L 49,17  L 49,18  L 50,18  L 50,16  L 51,16  L 51,15  L 50,15  L 50,13  L 49,13  Z  M 40,36  L 41,36  L 41,37  L 40,37  Z  M 10,39  L 9,39  L 9,38  L 8,38  L 8,36  L 7,36  L 7,35  L 10,35  L 10,36  L 11,36  L 11,37  L 13,37  L 13,39  L 15,39  L 15,40  L 16,40  L 16,42  L 14,42  L 14,41  L 13,41  L 13,40  L 10,40  Z  M 35,28  L 36,28  L 36,29  L 35,29  Z  M 42,29  L 41,29  L 41,30  L 39,30  L 39,29  L 38,29  L 38,28  L 36,28  L 36,27  L 35,27  L 35,26  L 34,26  L 34,25  L 33,25  L 33,23  L 32,23  L 32,22  L 35,22  L 35,24  L 36,24  L 36,23  L 37,23  L 37,24  L 38,24  L 38,25  L 39,25  L 39,26  L 40,26  L 40,27  L 42,27  L 42,28  L 43,28  L 43,29  L 44,29  L 44,30  L 42,30  Z  M 9,50  L 8,50  L 8,49  L 7,49  L 7,47  L 8,47  L 8,46  L 9,46  L 9,47  L 11,47  L 11,48  L 9,48  Z  M 45,10  L 45,9  L 47,9  L 47,10  L 46,10  L 46,12  L 45,12  L 45,11  L 44,11  L 44,10  Z  M 31,5  L 30,5  L 30,4  L 31,4  Z  M 43,23  L 44,23  L 44,24  L 43,24  Z  M 44,15  L 44,14  L 45,14  L 45,15  L 46,15  L 46,17  L 45,17  L 45,16  L 43,16  L 43,15  Z  M 29,24  L 29,25  L 28,25  L 28,24  Z  M 35,38  L 35,36  L 36,36  L 36,37  L 37,37  L 37,38  Z  M 18,27  L 18,28  L 17,28  L 17,27  Z  M 8,26  L 7,26  L 7,25  L 8,25  Z  M 26,7  L 27,7  L 27,8  L 26,8  Z  M 19,39  L 19,38  L 20,38  L 20,39  Z  M 38,12  L 38,11  L 39,11  L 39,12  Z  M 44,29  L 44,28  L 45,28  L 45,29  Z  M 6,29  L 5,29  L 5,28  L 7,28  L 7,30  L 6,30  Z  M 39,18  L 39,19  L 40,19  L 40,20  L 41,20  L 41,21  L 42,21  L 42,22  L 43,22  L 43,23  L 41,23  L 41,22  L 40,22  L 40,23  L 39,23  L 39,22  L 38,22  L 38,21  L 37,21  L 37,20  L 36,20  L 36,18  L 35,18  L 35,17  L 34,17  L 34,16  L 33,16  L 33,15  L 35,15  L 35,16  L 36,16  L 36,15  L 37,15  L 37,16  L 39,16  L 39,17  L 40,17  L 40,18  Z  M 12,33  L 12,34  L 11,34  L 11,33  Z  M 6,30  L 6,31  L 5,31  L 5,30  Z  M 44,30  L 45,30  L 45,31  L 44,31  Z  M 5,53  L 4,53  L 4,52  L 5,52  Z  M 42,18  L 42,19  L 41,19  L 41,18  Z  M 16,43  L 16,42  L 17,42  L 17,43  Z  M 39,35  L 39,34  L 40,34  L 40,35  Z  M 12,28  L 11,28  L 11,27  L 12,27  Z  M 33,15  L 32,15  L 32,14  L 33,14  Z  M 47,32  L 47,31  L 48,31  L 48,32  Z  M 31,26  L 30,26  L 30,25  L 31,25  Z  M 36,34  L 37,34  L 37,36  L 36,36  Z  M 16,36  L 16,35  L 17,35  L 17,36  Z  M 25,11  L 25,10  L 26,10  L 26,11  Z  M 5,24  L 5,25  L 4,25  L 4,24  Z  M 23,16  L 23,15  L 24,15  L 24,16  Z  M 7,36  L 7,37  L 6,37  L 6,36  Z  M 35,18  L 35,19  L 34,19  L 34,18  Z  M 44,25  L 44,26  L 43,26  L 43,25  Z  M 44,36  L 44,35  L 45,35  L 45,36  Z  M 32,32  L 33,32  L 33,33  L 32,33  Z  M 43,33  L 43,34  L 42,34  L 42,33  Z  M 17,22  L 16,22  L 16,21  L 17,21  Z  M 14,34  L 14,33  L 15,33  L 15,34  Z  M 46,21  L 45,21  L 45,20  L 46,20  Z  M 44,18  L 43,18  L 43,17  L 44,17  Z  M 33,18  L 32,18  L 32,17  L 33,17  Z  M 43,12  L 44,12  L 44,13  L 43,13  Z  M 26,15  L 25,15  L 25,14  L 26,14  Z  M 47,15  L 48,15  L 48,16  L 47,16  Z  M 33,26  L 34,26  L 34,27  L 33,27  Z  M 6,46  L 6,45  L 7,45  L 7,46  Z  M 19,27  L 19,26  L 20,26  L 20,27  Z  M 31,21  L 32,21  L 32,22  L 31,22  Z  M 47,13  L 47,11  L 48,11  L 48,13  Z  M 28,9  L 27,9  L 27,8  L 28,8  Z  M 12,41  L 13,41  L 13,42  L 12,42  Z  M 30,33  L 31,33  L 31,34  L 30,34  Z  M 27,13  L 27,12  L 28,12  L 28,13  Z  M 35,6  L 35,7  L 34,7  L 34,6  Z  M 6,34  L 7,34  L 7,35  L 6,35  Z  M 28,10  L 29,10  L 29,11  L 28,11  Z  M 26,5  L 27,5  L 27,6  L 26,6  Z  M 39,15  L 39,14  L 40,14  L 40,15  Z  M 7,52  L 6,52  L 6,51  L 7,51  Z  " style="fill:rgb(77, 73, 77); fill-opacity:1.000; stroke:none;" />
 <path d="  M 6,62  L 6,61  L 3,61  L 3,62  Z  " style="fill:rgb(77, 73, 77); fill-opacity:1.000; stroke:none;" />
 <path d="  M 10,51  L 10,53  L 11,53  L 11,54  L 10,54  L 10,55  L 13,55  L 13,54  L 12,54  L 12,53  L 13,53  L 13,52  L 11,52  L 11,51  Z  " style="fill:rgb(77, 73, 77); fill-opacity:1.000; stroke:none;" />
 <path d="  M 12,31  L 12,30  L 11,30  L 11,31  Z  " style="fill:rgb(77, 73, 77); fill-opacity:1.000; stroke:none;" />
 <path d="  M 12,51  L 12,50  L 11,50  L 11,51  Z  " style="fill:rgb(77, 73, 77); fill-opacity:1.000; stroke:none;" />
 <path d="  M 15,62  L 15,61  L 11,61  L 11,62  Z  " style="fill:rgb(77, 73, 77); fill-opacity:1.000; stroke:none;" />
 <path d="  M 14,52  L 14,51  L 15,51  L 15,50  L 14,50  L 14,48  L 13,48  L 13,49  L 12,49  L 12,50  L 13,50  L 13,52  Z  " style="fill:rgb(77, 73, 77); fill-opacity:1.000; stroke:none;" />
 <path d="  M 13,22  L 14,22  L 14,21  L 13,21  Z  " style="fill:rgb(77, 73, 77); fill-opacity:1.000; stroke:none;" />
 <path d="  M 13,54  L 15,54  L 15,52  L 14,52  L 14,53  L 13,53  Z  " style="fill:rgb(77, 73, 77); fill-opacity:1.000; stroke:none;" />
 <path d="  M 15,20  L 14,20  L 14,21  L 15,21  Z  " style="fill:rgb(77, 73, 77); fill-opacity:1.000; stroke:none;" />
 <path d="  M 16,47  L 14,47  L 14,48  L 16,48  Z  " style="fill:rgb(77, 73, 77); fill-opacity:1.000; stroke:none;" />
 <path d="  M 15,3  L 15,4  L 18,4  L 18,3  Z  " style="fill:rgb(77, 73, 77); fill-opacity:1.000; stroke:none;" />
 <path d="  M 16,52  L 16,51  L 15,51  L 15,52  Z  " style="fill:rgb(77, 73, 77); fill-opacity:1.000; stroke:none;" />
 <path d="  M 17,11  L 17,10  L 16,10  L 16,11  Z  " style="fill:rgb(77, 73, 77); fill-opacity:1.000; stroke:none;" />
 <path d="  M 16,32  L 17,32  L 17,31  L 16,31  Z  " style="fill:rgb(77, 73, 77); fill-opacity:1.000; stroke:none;" />
 <path d="  M 19,10  L 22,10  L 22,9  L 20,9  L 20,8  L 19,8  L 19,9  L 17,9  L 17,10  L 18,10  L 18,11  L 19,11  Z  " style="fill:rgb(77, 73, 77); fill-opacity:1.000; stroke:none;" />
 <path d="  M 18,32  L 17,32  L 17,33  L 18,33  Z  " style="fill:rgb(77, 73, 77); fill-opacity:1.000; stroke:none;" />
 <path d="  M 18,16  L 18,17  L 19,17  L 19,18  L 20,18  L 20,17  L 21,17  L 21,16  Z  " style="fill:rgb(77, 73, 77); fill-opacity:1.000; stroke:none;" />
 <path d="  M 19,19  L 19,18  L 18,18  L 18,19  Z  " style="fill:rgb(77, 73, 77); fill-opacity:1.000; stroke:none;" />
 <path d="  M 19,31  L 19,30  L 18,30  L 18,31  Z  " style="fill:rgb(77, 73, 77); fill-opacity:1.000; stroke:none;" />
 <path d="  M 18,61  L 18,62  L 19,62  L 19,61  Z  " style="fill:rgb(77, 73, 77); fill-opacity:1.000; stroke:none;" />
 <path d="  M 19,6  L 20,6  L 20,5  L 19,5  Z  " style="fill:rgb(77, 73, 77); fill-opacity:1.000; stroke:none;" />
 <path d="  M 20,32  L 20,31  L 19,31  L 19,32  Z  " style="fill:rgb(77, 73, 77); fill-opacity:1.000; stroke:none;" />
 <path d="  M 20,4  L 21,4  L 21,3  L 20,3  Z  " style="fill:rgb(77, 73, 77); fill-opacity:1.000; stroke:none;" />
 <path d="  M 23,7  L 24,7  L 24,6  L 22,6  L 22,7  L 20,7  L 20,8  L 23,8  Z  " style="fill:rgb(77, 73, 77); fill-opacity:1.000; stroke:none;" />
 <path d="  M 20,34  L 21,34  L 21,33  L 20,33  Z  " style="fill:rgb(77, 73, 77); fill-opacity:1.000; stroke:none;" />
 <path d="  M 20,61  L 20,62  L 40,62  L 40,61  Z  " style="fill:rgb(77, 73, 77); fill-opacity:1.000; stroke:none;" />
 <path d="  M 21,25  L 22,25  L 22,23  L 21,23  Z  " style="fill:rgb(77, 73, 77); fill-opacity:1.000; stroke:none;" />
 <path d="  M 24,43  L 24,44  L 25,44  L 25,45  L 26,45  L 26,46  L 27,46  L 27,47  L 28,47  L 28,46  L 29,46  L 29,45  L 30,45  L 30,46  L 32,46  L 32,45  L 34,45  L 34,44  L 33,44  L 33,43  L 34,43  L 34,42  L 33,42  L 33,40  L 34,40  L 34,39  L 32,39  L 32,42  L 31,42  L 31,41  L 30,41  L 30,39  L 29,39  L 29,40  L 28,40  L 28,41  L 25,41  L 25,39  L 22,39  L 22,40  L 21,40  L 21,41  L 22,41  L 22,42  L 23,42  L 23,43  Z  M 32,45  L 31,45  L 31,44  L 32,44  Z  M 25,43  L 26,43  L 26,44  L 25,44  Z  " style="fill:rgb(77, 73, 77); fill-opacity:1.000; stroke:none;" />
 <path d="  M 23,35  L 22,35  L 22,36  L 23,36  Z  " style="fill:rgb(77, 73, 77); fill-opacity:1.000; stroke:none;" />
 <path d="  M 23,24  L 23,25  L 24,25  L 24,24  Z  " style="fill:rgb(77, 73, 77); fill-opacity:1.000; stroke:none;" />
 <path d="  M 24,35  L 25,35  L 25,34  L 24,34  Z  " style="fill:rgb(77, 73, 77); fill-opacity:1.000; stroke:none;" />
 <path d="  M 25,38  L 26,38  L 26,37  L 27,37  L 27,36  L 25,36  Z  " style="fill:rgb(77, 73, 77); fill-opacity:1.000; stroke:none;" />
 <path d="  M 26,38  L 26,40  L 28,40  L 28,39  L 27,39  L 27,38  Z  " style="fill:rgb(77, 73, 77); fill-opacity:1.000; stroke:none;" />
 <path d="  M 27,29  L 28,29  L 28,28  L 27,28  Z  " style="fill:rgb(77, 73, 77); fill-opacity:1.000; stroke:none;" />
 <path d="  M 28,35  L 27,35  L 27,36  L 28,36  Z  " style="fill:rgb(77, 73, 77); fill-opacity:1.000; stroke:none;" />
 <path d="  M 28,38  L 28,39  L 29,39  L 29,38  Z  " style="fill:rgb(77, 73, 77); fill-opacity:1.000; stroke:none;" />
 <path d="  M 29,47  L 30,47  L 30,46  L 29,46  Z  " style="fill:rgb(77, 73, 77); fill-opacity:1.000; stroke:none;" />
 <path d="  M 34,42  L 35,42  L 35,41  L 34,41  Z  " style="fill:rgb(77, 73, 77); fill-opacity:1.000; stroke:none;" />
 <path d="  M 36,43  L 36,42  L 35,42  L 35,43  Z  " style="fill:rgb(77, 73, 77); fill-opacity:1.000; stroke:none;" />
 <path d="  M 37,16  L 36,16  L 36,17  L 37,17  Z  " style="fill:rgb(77, 73, 77); fill-opacity:1.000; stroke:none;" />
 <path d="  M 36,27  L 37,27  L 37,26  L 36,26  Z  " style="fill:rgb(77, 73, 77); fill-opacity:1.000; stroke:none;" />
 <path d="  M 38,43  L 39,43  L 39,44  L 40,44  L 40,42  L 38,42  L 38,41  L 37,41  L 37,43  L 36,43  L 36,44  L 38,44  Z  " style="fill:rgb(77, 73, 77); fill-opacity:1.000; stroke:none;" />
 <path d="  M 38,5  L 39,5  L 39,4  L 38,4  Z  " style="fill:rgb(77, 73, 77); fill-opacity:1.000; stroke:none;" />
 <path d="  M 39,2  L 39,3  L 40,3  L 40,2  Z  " style="fill:rgb(77, 73, 77); fill-opacity:1.000; stroke:none;" />
 <path d="  M 40,28  L 39,28  L 39,29  L 40,29  Z  " style="fill:rgb(77, 73, 77); fill-opacity:1.000; stroke:none;" />
 <path d="  M 39,41  L 40,41  L 40,40  L 39,40  Z  " style="fill:rgb(77, 73, 77); fill-opacity:1.000; stroke:none;" />
 <path d="  M 43,45  L 43,44  L 40,44  L 40,45  L 41,45  L 41,46  L 42,46  L 42,45  Z  " style="fill:rgb(77, 73, 77); fill-opacity:1.000; stroke:none;" />
 <path d="  M 43,39  L 42,39  L 42,40  L 41,40  L 41,41  L 42,41  L 42,42  L 43,42  Z  " style="fill:rgb(77, 73, 77); fill-opacity:1.000; stroke:none;" />
 <path d="  M 41,61  L 41,62  L 45,62  L 45,61  Z  " style="fill:rgb(77, 73, 77); fill-opacity:1.000; stroke:none;" />
 <path d="  M 43,6  L 43,5  L 42,5  L 42,6  Z  " style="fill:rgb(77, 73, 77); fill-opacity:1.000; stroke:none;" />
 <path d="  M 46,42  L 46,41  L 44,41  L 44,43  L 45,43  L 45,42  Z  " style="fill:rgb(77, 73, 77); fill-opacity:1.000; stroke:none;" />
 <path d="  M 46,38  L 45,38  L 45,39  L 46,39  Z  " style="fill:rgb(77, 73, 77); fill-opacity:1.000; stroke:none;" />
 <path d="  M 45,43  L 45,44  L 46,44  L 46,43  Z  " style="fill:rgb(77, 73, 77); fill-opacity:1.000; stroke:none;" />
 <path d="  M 48,23  L 48,22  L 47,22  L 47,23  Z  " style="fill:rgb(77, 73, 77); fill-opacity:1.000; stroke:none;" />
 <path d="  M 47,39  L 48,39  L 48,37  L 47,37  Z  " style="fill:rgb(77, 73, 77); fill-opacity:1.000; stroke:none;" />
 <path d="  M 57,62  L 57,61  L 48,61  L 48,62  Z  " style="fill:rgb(77, 73, 77); fill-opacity:1.000; stroke:none;" />
 <path d="  M 52,19  L 51,19  L 51,20  L 52,20  Z  " style="fill:rgb(77, 73, 77); fill-opacity:1.000; stroke:none;" />
 <path d="  M 60,3  L 60,2  L 52,2  L 52,3  Z  " style="fill:rgb(77, 73, 77); fill-opacity:1.000; stroke:none;" />
 <path d="  M 54,47  L 54,46  L 53,46  L 53,47  Z  " style="fill:rgb(77, 73, 77); fill-opacity:1.000; stroke:none;" />
 <path d="  M 62,3  L 61,3  L 61,4  L 62,4  Z  " style="fill:rgb(77, 73, 77); fill-opacity:1.000; stroke:none;" />
 <path d="  M 61,59  L 62,59  L 62,9  L 61,9  Z  " style="fill:rgb(77, 73, 77); fill-opacity:1.000; stroke:none;" />
 <path d="  M 3,3  L 3,6  L 4,6  L 4,4  L 5,4  L 5,3  Z  " style="fill:rgb(59, 57, 59); fill-opacity:1.000; stroke:none;" />
 <path d="  M 4,59  L 4,57  L 3,57  L 3,61  L 6,61  L 6,60  L 5,60  L 5,59  Z  " style="fill:rgb(59, 57, 59); fill-opacity:1.000; stroke:none;" />
 <path d="  M 6,4  L 7,4  L 7,3  L 6,3  Z  " style="fill:rgb(59, 57, 59); fill-opacity:1.000; stroke:none;" />
 <path d="  M 9,59  L 8,59  L 8,58  L 7,58  L 7,59  L 6,59  L 6,60  L 8,60  L 8,61  L 9,61  Z  " style="fill:rgb(59, 57, 59); fill-opacity:1.000; stroke:none;" />
 <path d="  M 8,3  L 8,4  L 10,4  L 10,5  L 11,5  L 11,4  L 12,4  L 12,3  Z  " style="fill:rgb(59, 57, 59); fill-opacity:1.000; stroke:none;" />
 <path d="  M 8,19  L 9,19  L 9,18  L 8,18  Z  " style="fill:rgb(59, 57, 59); fill-opacity:1.000; stroke:none;" />
 <path d="  M 9,20  L 8,20  L 8,21  L 9,21  Z  " style="fill:rgb(59, 57, 59); fill-opacity:1.000; stroke:none;" />
 <path d="  M 9,6  L 10,6  L 10,5  L 9,5  Z  " style="fill:rgb(59, 57, 59); fill-opacity:1.000; stroke:none;" />
 <path d="  M 10,15  L 9,15  L 9,18  L 11,18  L 11,17  L 10,17  Z  " style="fill:rgb(59, 57, 59); fill-opacity:1.000; stroke:none;" />
 <path d="  M 11,20  L 10,20  L 10,21  L 11,21  Z  " style="fill:rgb(59, 57, 59); fill-opacity:1.000; stroke:none;" />
 <path d="  M 40,56  L 41,56  L 41,55  L 42,55  L 42,54  L 41,54  L 41,53  L 40,53  L 40,54  L 39,54  L 39,55  L 37,55  L 37,54  L 35,54  L 35,56  L 36,56  L 36,57  L 37,57  L 37,58  L 36,58  L 36,59  L 32,59  L 32,58  L 31,58  L 31,59  L 28,59  L 28,58  L 29,58  L 29,57  L 27,57  L 27,56  L 26,56  L 26,55  L 28,55  L 28,54  L 29,54  L 29,53  L 27,53  L 27,54  L 24,54  L 24,53  L 25,53  L 25,52  L 24,52  L 24,51  L 25,51  L 25,50  L 23,50  L 23,52  L 22,52  L 22,51  L 21,51  L 21,52  L 19,52  L 19,53  L 20,53  L 20,54  L 19,54  L 19,55  L 18,55  L 18,56  L 20,56  L 20,55  L 21,55  L 21,56  L 23,56  L 23,57  L 22,57  L 22,58  L 23,58  L 23,59  L 21,59  L 21,58  L 19,58  L 19,59  L 17,59  L 17,60  L 15,60  L 15,59  L 13,59  L 13,60  L 12,60  L 12,59  L 11,59  L 11,60  L 10,60  L 10,61  L 25,61  L 25,60  L 37,60  L 37,59  L 38,59  L 38,60  L 47,60  L 47,59  L 50,59  L 50,58  L 49,58  L 49,57  L 48,57  L 48,58  L 47,58  L 47,57  L 46,57  L 46,59  L 43,59  L 43,58  L 42,58  L 42,57  L 41,57  L 41,58  L 40,58  Z  M 26,58  L 26,57  L 27,57  L 27,58  Z  M 21,55  L 21,54  L 22,54  L 22,55  Z  " style="fill:rgb(59, 57, 59); fill-opacity:1.000; stroke:none;" />
 <path d="  M 13,19  L 12,19  L 12,21  L 11,21  L 11,23  L 12,23  L 12,22  L 13,22  Z  " style="fill:rgb(59, 57, 59); fill-opacity:1.000; stroke:none;" />
 <path d="  M 13,6  L 13,5  L 12,5  L 12,6  Z  " style="fill:rgb(59, 57, 59); fill-opacity:1.000; stroke:none;" />
 <path d="  M 13,17  L 13,16  L 12,16  L 12,17  Z  " style="fill:rgb(59, 57, 59); fill-opacity:1.000; stroke:none;" />
 <path d="  M 15,18  L 15,17  L 14,17  L 14,18  Z  " style="fill:rgb(59, 57, 59); fill-opacity:1.000; stroke:none;" />
 <path d="  M 16,17  L 16,16  L 15,16  L 15,17  Z  " style="fill:rgb(59, 57, 59); fill-opacity:1.000; stroke:none;" />
 <path d="  M 20,50  L 19,50  L 19,51  L 20,51  Z  " style="fill:rgb(59, 57, 59); fill-opacity:1.000; stroke:none;" />
 <path d="  M 21,49  L 20,49  L 20,50  L 21,50  Z  " style="fill:rgb(59, 57, 59); fill-opacity:1.000; stroke:none;" />
 <path d="  M 25,48  L 24,48  L 24,49  L 25,49  Z  " style="fill:rgb(59, 57, 59); fill-opacity:1.000; stroke:none;" />
 <path d="  M 27,50  L 27,49  L 25,49  L 25,50  Z  " style="fill:rgb(59, 57, 59); fill-opacity:1.000; stroke:none;" />
 <path d="  M 25,51  L 25,52  L 26,52  L 26,51  Z  " style="fill:rgb(59, 57, 59); fill-opacity:1.000; stroke:none;" />
 <path d="  M 31,57  L 30,57  L 30,58  L 31,58  Z  " style="fill:rgb(59, 57, 59); fill-opacity:1.000; stroke:none;" />
 <path d="  M 34,50  L 33,50  L 33,51  L 34,51  Z  " style="fill:rgb(59, 57, 59); fill-opacity:1.000; stroke:none;" />
 <path d="  M 35,56  L 34,56  L 34,57  L 35,57  Z  " style="fill:rgb(59, 57, 59); fill-opacity:1.000; stroke:none;" />
 <path d="  M 38,47  L 37,47  L 37,48  L 38,48  Z  " style="fill:rgb(59, 57, 59); fill-opacity:1.000; stroke:none;" />
 <path d="  M 38,53  L 38,54  L 39,54  L 39,53  Z  " style="fill:rgb(59, 57, 59); fill-opacity:1.000; stroke:none;" />
 <path d="  M 39,49  L 40,49  L 40,48  L 39,48  Z  " style="fill:rgb(59, 57, 59); fill-opacity:1.000; stroke:none;" />
 <path d="  M 42,52  L 41,52  L 41,53  L 42,53  Z  " style="fill:rgb(59, 57, 59); fill-opacity:1.000; stroke:none;" />
 <path d="  M 47,56  L 47,54  L 46,54  L 46,56  Z  " style="fill:rgb(59, 57, 59); fill-opacity:1.000; stroke:none;" />
 <path d="  M 54,55  L 54,54  L 55,54  L 55,53  L 53,53  L 53,54  L 52,54  L 52,52  L 53,52  L 53,51  L 51,51  L 51,53  L 50,53  L 50,52  L 49,52  L 49,53  L 48,53  L 48,52  L 47,52  L 47,54  L 50,54  L 50,55  L 51,55  L 51,56  L 49,56  L 49,57  L 50,57  L 50,58  L 51,58  L 51,57  L 53,57  L 53,56  L 54,56  L 54,57  L 55,57  L 55,58  L 56,58  L 56,56  L 55,56  L 55,55  Z  " style="fill:rgb(59, 57, 59); fill-opacity:1.000; stroke:none;" />
 <path d="  M 48,55  L 48,56  L 49,56  L 49,55  Z  " style="fill:rgb(59, 57, 59); fill-opacity:1.000; stroke:none;" />
 <path d="  M 54,50  L 53,50  L 53,51  L 54,51  Z  " style="fill:rgb(59, 57, 59); fill-opacity:1.000; stroke:none;" />
 <path d="  M 54,50  L 55,50  L 55,49  L 54,49  Z  " style="fill:rgb(59, 57, 59); fill-opacity:1.000; stroke:none;" />
 <path d="  M 55,58  L 54,58  L 54,59  L 55,59  Z  " style="fill:rgb(59, 57, 59); fill-opacity:1.000; stroke:none;" />
 <path d="  M 55,52  L 55,53  L 56,53  L 56,52  Z  " style="fill:rgb(59, 57, 59); fill-opacity:1.000; stroke:none;" />
 <path d="  M 59,55  L 59,54  L 58,54  L 58,53  L 57,53  L 57,54  L 55,54  L 55,55  L 57,55  L 57,56  L 58,56  L 58,55  Z  " style="fill:rgb(59, 57, 59); fill-opacity:1.000; stroke:none;" />
 <path d="  M 56,48  L 59,48  L 59,47  L 56,47  Z  " style="fill:rgb(59, 57, 59); fill-opacity:1.000; stroke:none;" />
 <path d="  M 56,49  L 56,50  L 57,50  L 57,49  Z  " style="fill:rgb(59, 57, 59); fill-opacity:1.000; stroke:none;" />
 <path d="  M 60,52  L 60,50  L 59,50  L 59,49  L 58,49  L 58,50  L 57,50  L 57,51  L 56,51  L 56,52  L 58,52  L 58,51  L 59,51  L 59,52  Z  " style="fill:rgb(59, 57, 59); fill-opacity:1.000; stroke:none;" />
 <path d="  M 59,47  L 60,47  L 60,50  L 61,50  L 61,22  L 60,22  L 60,43  L 59,43  L 59,44  L 60,44  L 60,45  L 58,45  L 58,46  L 59,46  Z  " style="fill:rgb(59, 57, 59); fill-opacity:1.000; stroke:none;" />
 <path d="  M 59,52  L 58,52  L 58,53  L 59,53  Z  " style="fill:rgb(59, 57, 59); fill-opacity:1.000; stroke:none;" />
 <path d="  M 61,9  L 60,9  L 60,15  L 61,15  Z  " style="fill:rgb(59, 57, 59); fill-opacity:1.000; stroke:none;" />
 <path d="  M 3,7  L 4,7  L 4,6  L 3,6  Z  " style="fill:rgb(67, 64, 67); fill-opacity:1.000; stroke:none;" />
 <path d="  M 10,13  L 10,12  L 11,12  L 11,11  L 10,11  L 10,10  L 9,10  L 9,11  L 7,11  L 7,10  L 4,10  L 4,9  L 3,9  L 3,11  L 4,11  L 4,12  L 3,12  L 3,14  L 4,14  L 4,15  L 5,15  L 5,16  L 4,16  L 4,17  L 6,17  L 6,18  L 4,18  L 4,19  L 5,19  L 5,20  L 6,20  L 6,21  L 8,21  L 8,20  L 10,20  L 10,18  L 9,18  L 9,15  L 8,15  L 8,14  L 9,14  L 9,13  Z  M 7,20  L 6,20  L 6,19  L 7,19  Z  M 4,13  L 5,13  L 5,14  L 4,14  Z  M 8,13  L 8,12  L 9,12  L 9,13  Z  M 8,18  L 9,18  L 9,19  L 8,19  Z  " style="fill:rgb(67, 64, 67); fill-opacity:1.000; stroke:none;" />
 <path d="  M 4,55  L 3,55  L 3,57  L 4,57  Z  " style="fill:rgb(67, 64, 67); fill-opacity:1.000; stroke:none;" />
 <path d="  M 4,5  L 4,6  L 5,6  L 5,5  Z  " style="fill:rgb(67, 64, 67); fill-opacity:1.000; stroke:none;" />
 <path d="  M 5,8  L 6,8  L 6,7  L 7,7  L 7,6  L 5,6  L 5,7  L 4,7  L 4,9  L 5,9  Z  " style="fill:rgb(67, 64, 67); fill-opacity:1.000; stroke:none;" />
 <path d="  M 4,59  L 5,59  L 5,60  L 6,60  L 6,59  L 7,59  L 7,58  L 8,58  L 8,57  L 7,57  L 7,56  L 6,56  L 6,58  L 5,58  L 5,57  L 4,57  Z  " style="fill:rgb(67, 64, 67); fill-opacity:1.000; stroke:none;" />
 <path d="  M 6,8  L 6,9  L 7,9  L 7,10  L 8,10  L 8,8  Z  " style="fill:rgb(67, 64, 67); fill-opacity:1.000; stroke:none;" />
 <path d="  M 8,8  L 9,8  L 9,7  L 11,7  L 11,6  L 9,6  L 9,4  L 8,4  L 8,5  L 7,5  L 7,6  L 8,6  Z  " style="fill:rgb(67, 64, 67); fill-opacity:1.000; stroke:none;" />
 <path d="  M 8,56  L 8,57  L 9,57  L 9,56  Z  " style="fill:rgb(67, 64, 67); fill-opacity:1.000; stroke:none;" />
 <path d="  M 10,58  L 8,58  L 8,59  L 9,59  L 9,60  L 11,60  L 11,59  L 12,59  L 12,60  L 13,60  L 13,59  L 15,59  L 15,60  L 17,60  L 17,59  L 16,59  L 16,58  L 14,58  L 14,57  L 15,57  L 15,56  L 13,56  L 13,57  L 12,57  L 12,58  L 11,58  L 11,57  L 10,57  Z  " style="fill:rgb(67, 64, 67); fill-opacity:1.000; stroke:none;" />
 <path d="  M 10,9  L 10,10  L 11,10  L 11,9  Z  " style="fill:rgb(67, 64, 67); fill-opacity:1.000; stroke:none;" />
 <path d="  M 10,17  L 12,17  L 12,16  L 11,16  L 11,15  L 10,15  Z  " style="fill:rgb(67, 64, 67); fill-opacity:1.000; stroke:none;" />
 <path d="  M 11,7  L 11,8  L 13,8  L 13,7  Z  " style="fill:rgb(67, 64, 67); fill-opacity:1.000; stroke:none;" />
 <path d="  M 12,19  L 11,19  L 11,20  L 12,20  Z  " style="fill:rgb(67, 64, 67); fill-opacity:1.000; stroke:none;" />
 <path d="  M 11,56  L 11,57  L 12,57  L 12,56  Z  " style="fill:rgb(67, 64, 67); fill-opacity:1.000; stroke:none;" />
 <path d="  M 13,17  L 12,17  L 12,18  L 13,18  Z  " style="fill:rgb(67, 64, 67); fill-opacity:1.000; stroke:none;" />
 <path d="  M 13,15  L 14,15  L 14,14  L 13,14  Z  " style="fill:rgb(67, 64, 67); fill-opacity:1.000; stroke:none;" />
 <path d="  M 17,14  L 16,14  L 16,13  L 14,13  L 14,14  L 15,14  L 15,15  L 14,15  L 14,16  L 13,16  L 13,17  L 15,17  L 15,16  L 16,16  L 16,15  L 17,15  Z  " style="fill:rgb(67, 64, 67); fill-opacity:1.000; stroke:none;" />
 <path d="  M 17,49  L 15,49  L 15,50  L 18,50  L 18,51  L 19,51  L 19,52  L 21,52  L 21,51  L 22,51  L 22,52  L 23,52  L 23,50  L 25,50  L 25,49  L 27,49  L 27,47  L 26,47  L 26,46  L 22,46  L 22,45  L 20,45  L 20,46  L 18,46  L 18,47  L 19,47  L 19,48  L 17,48  Z  M 22,47  L 21,47  L 21,46  L 22,46  Z  M 24,49  L 24,48  L 25,48  L 25,49  Z  M 20,50  L 20,49  L 21,49  L 21,50  Z  M 19,51  L 19,50  L 20,50  L 20,51  Z  " style="fill:rgb(67, 64, 67); fill-opacity:1.000; stroke:none;" />
 <path d="  M 16,12  L 16,13  L 17,13  L 17,12  Z  " style="fill:rgb(67, 64, 67); fill-opacity:1.000; stroke:none;" />
 <path d="  M 17,58  L 17,59  L 19,59  L 19,58  L 21,58  L 21,59  L 23,59  L 23,58  L 22,58  L 22,57  L 23,57  L 23,56  L 21,56  L 21,55  L 20,55  L 20,56  L 18,56  L 18,55  L 16,55  L 16,56  L 17,56  L 17,57  L 18,57  L 18,58  Z  " style="fill:rgb(67, 64, 67); fill-opacity:1.000; stroke:none;" />
 <path d="  M 17,53  L 19,53  L 19,52  L 17,52  Z  " style="fill:rgb(67, 64, 67); fill-opacity:1.000; stroke:none;" />
 <path d="  M 19,54  L 18,54  L 18,55  L 19,55  Z  " style="fill:rgb(67, 64, 67); fill-opacity:1.000; stroke:none;" />
 <path d="  M 20,53  L 19,53  L 19,54  L 20,54  Z  " style="fill:rgb(67, 64, 67); fill-opacity:1.000; stroke:none;" />
 <path d="  M 21,55  L 22,55  L 22,54  L 21,54  Z  " style="fill:rgb(67, 64, 67); fill-opacity:1.000; stroke:none;" />
 <path d="  M 24,52  L 25,52  L 25,51  L 24,51  Z  " style="fill:rgb(67, 64, 67); fill-opacity:1.000; stroke:none;" />
 <path d="  M 25,53  L 24,53  L 24,54  L 27,54  L 27,53  L 26,53  L 26,52  L 25,52  Z  " style="fill:rgb(67, 64, 67); fill-opacity:1.000; stroke:none;" />
 <path d="  M 33,50  L 32,50  L 32,48  L 33,48  Z  M 41,46  L 40,46  L 40,47  L 39,47  L 39,46  L 38,46  L 38,45  L 36,45  L 36,46  L 37,46  L 37,47  L 36,47  L 36,49  L 35,49  L 35,48  L 34,48  L 34,46  L 33,46  L 33,47  L 31,47  L 31,49  L 30,49  L 30,48  L 29,48  L 29,50  L 28,50  L 28,49  L 27,49  L 27,50  L 25,50  L 25,51  L 26,51  L 26,52  L 27,52  L 27,53  L 29,53  L 29,54  L 28,54  L 28,55  L 26,55  L 26,56  L 27,56  L 27,57  L 29,57  L 29,58  L 28,58  L 28,59  L 31,59  L 31,58  L 32,58  L 32,59  L 36,59  L 36,58  L 37,58  L 37,57  L 36,57  L 36,56  L 35,56  L 35,54  L 37,54  L 37,55  L 39,55  L 39,54  L 40,54  L 40,53  L 41,53  L 41,52  L 42,52  L 42,50  L 41,50  L 41,49  L 42,49  L 42,48  L 41,48  Z  M 39,54  L 38,54  L 38,53  L 39,53  Z  M 33,51  L 33,50  L 34,50  L 34,51  Z  M 31,50  L 31,52  L 29,52  L 29,51  L 30,51  L 30,50  Z  M 31,58  L 30,58  L 30,57  L 31,57  Z  M 34,56  L 35,56  L 35,57  L 34,57  Z  M 37,47  L 38,47  L 38,48  L 37,48  Z  M 35,52  L 35,53  L 34,53  L 34,52  Z  M 39,49  L 39,48  L 40,48  L 40,49  Z  M 31,53  L 31,52  L 32,52  L 32,53  Z  " style="fill:rgb(67, 64, 67); fill-opacity:1.000; stroke:none;" />
 <path d="  M 26,57  L 26,58  L 27,58  L 27,57  Z  " style="fill:rgb(67, 64, 67); fill-opacity:1.000; stroke:none;" />
 <path d="  M 35,46  L 35,47  L 36,47  L 36,46  Z  " style="fill:rgb(67, 64, 67); fill-opacity:1.000; stroke:none;" />
 <path d="  M 37,4  L 37,5  L 38,5  L 38,4  Z  " style="fill:rgb(67, 64, 67); fill-opacity:1.000; stroke:none;" />
 <path d="  M 39,4  L 39,3  L 38,3  L 38,4  Z  " style="fill:rgb(67, 64, 67); fill-opacity:1.000; stroke:none;" />
 <path d="  M 39,5  L 38,5  L 38,6  L 39,6  Z  " style="fill:rgb(67, 64, 67); fill-opacity:1.000; stroke:none;" />
 <path d="  M 40,3  L 40,4  L 41,4  L 41,5  L 42,5  L 42,4  L 44,4  L 44,3  Z  " style="fill:rgb(67, 64, 67); fill-opacity:1.000; stroke:none;" />
 <path d="  M 49,56  L 48,56  L 48,55  L 49,55  Z  M 47,54  L 47,52  L 48,52  L 48,50  L 47,50  L 47,51  L 46,51  L 46,52  L 45,52  L 45,51  L 44,51  L 44,50  L 43,50  L 43,52  L 42,52  L 42,53  L 41,53  L 41,54  L 42,54  L 42,55  L 41,55  L 41,56  L 40,56  L 40,58  L 41,58  L 41,57  L 42,57  L 42,58  L 43,58  L 43,59  L 46,59  L 46,57  L 47,57  L 47,58  L 48,58  L 48,57  L 49,57  L 49,56  L 51,56  L 51,55  L 50,55  L 50,54  Z  M 43,52  L 44,52  L 44,53  L 43,53  Z  M 45,53  L 46,53  L 46,54  L 45,54  Z  M 46,54  L 47,54  L 47,56  L 46,56  Z  " style="fill:rgb(67, 64, 67); fill-opacity:1.000; stroke:none;" />
 <path d="  M 46,49  L 45,49  L 45,50  L 46,50  Z  " style="fill:rgb(67, 64, 67); fill-opacity:1.000; stroke:none;" />
 <path d="  M 48,41  L 48,40  L 47,40  L 47,41  Z  " style="fill:rgb(67, 64, 67); fill-opacity:1.000; stroke:none;" />
 <path d="  M 47,43  L 47,44  L 48,44  L 48,43  Z  " style="fill:rgb(67, 64, 67); fill-opacity:1.000; stroke:none;" />
 <path d="  M 49,26  L 48,26  L 48,28  L 50,28  L 50,27  L 49,27  Z  " style="fill:rgb(67, 64, 67); fill-opacity:1.000; stroke:none;" />
 <path d="  M 56,48  L 56,47  L 59,47  L 59,48  Z  M 51,36  L 50,36  L 50,37  L 49,37  L 49,38  L 51,38  L 51,39  L 48,39  L 48,40  L 50,40  L 50,41  L 48,41  L 48,43  L 50,43  L 50,42  L 51,42  L 51,41  L 52,41  L 52,40  L 53,40  L 53,39  L 52,39  L 52,38  L 54,38  L 54,37  L 55,37  L 55,38  L 57,38  L 57,41  L 56,41  L 56,42  L 54,42  L 54,43  L 56,43  L 56,44  L 55,44  L 55,45  L 54,45  L 54,46  L 55,46  L 55,47  L 54,47  L 54,48  L 53,48  L 53,49  L 51,49  L 51,50  L 50,50  L 50,51  L 49,51  L 49,52  L 50,52  L 50,53  L 51,53  L 51,51  L 53,51  L 53,52  L 52,52  L 52,54  L 53,54  L 53,53  L 55,53  L 55,52  L 56,52  L 56,51  L 57,51  L 57,50  L 58,50  L 58,49  L 59,49  L 59,50  L 60,50  L 60,47  L 59,47  L 59,46  L 58,46  L 58,45  L 60,45  L 60,44  L 59,44  L 59,43  L 60,43  L 60,42  L 59,42  L 59,41  L 60,41  L 60,37  L 58,37  L 58,36  L 57,36  L 57,34  L 55,34  L 55,33  L 54,33  L 54,32  L 53,32  L 53,34  L 52,34  L 52,33  L 51,33  L 51,34  L 50,34  L 50,35  L 51,35  Z  M 53,51  L 53,50  L 54,50  L 54,51  Z  M 57,44  L 57,43  L 58,43  L 58,44  Z  M 54,50  L 54,49  L 55,49  L 55,50  Z  M 57,50  L 56,50  L 56,49  L 57,49  Z  " style="fill:rgb(67, 64, 67); fill-opacity:1.000; stroke:none;" />
 <path d="  M 49,45  L 48,45  L 48,46  L 49,46  Z  " style="fill:rgb(67, 64, 67); fill-opacity:1.000; stroke:none;" />
 <path d="  M 49,48  L 49,47  L 48,47  L 48,48  Z  " style="fill:rgb(67, 64, 67); fill-opacity:1.000; stroke:none;" />
 <path d="  M 48,49  L 48,50  L 49,50  L 49,49  Z  " style="fill:rgb(67, 64, 67); fill-opacity:1.000; stroke:none;" />
 <path d="  M 49,52  L 48,52  L 48,53  L 49,53  Z  " style="fill:rgb(67, 64, 67); fill-opacity:1.000; stroke:none;" />
 <path d="  M 50,25  L 49,25  L 49,26  L 50,26  Z  " style="fill:rgb(67, 64, 67); fill-opacity:1.000; stroke:none;" />
 <path d="  M 49,49  L 51,49  L 51,47  L 50,47  L 50,48  L 49,48  Z  " style="fill:rgb(67, 64, 67); fill-opacity:1.000; stroke:none;" />
 <path d="  M 51,23  L 50,23  L 50,24  L 51,24  Z  " style="fill:rgb(67, 64, 67); fill-opacity:1.000; stroke:none;" />
 <path d="  M 50,27  L 51,27  L 51,26  L 50,26  Z  " style="fill:rgb(67, 64, 67); fill-opacity:1.000; stroke:none;" />
 <path d="  M 50,45  L 51,45  L 51,44  L 52,44  L 52,43  L 50,43  Z  " style="fill:rgb(67, 64, 67); fill-opacity:1.000; stroke:none;" />
 <path d="  M 56,31  L 56,29  L 55,29  L 55,28  L 54,28  L 54,27  L 55,27  L 55,25  L 53,25  L 53,27  L 51,27  L 51,28  L 52,28  L 52,29  L 51,29  L 51,30  L 52,30  L 52,31  L 54,31  L 54,32  L 55,32  L 55,31  Z  " style="fill:rgb(67, 64, 67); fill-opacity:1.000; stroke:none;" />
 <path d="  M 53,25  L 53,23  L 52,23  L 52,25  Z  " style="fill:rgb(67, 64, 67); fill-opacity:1.000; stroke:none;" />
 <path d="  M 53,40  L 53,41  L 52,41  L 52,42  L 54,42  L 54,41  L 55,41  L 55,40  Z  " style="fill:rgb(67, 64, 67); fill-opacity:1.000; stroke:none;" />
 <path d="  M 52,45  L 52,46  L 53,46  L 53,45  Z  " style="fill:rgb(67, 64, 67); fill-opacity:1.000; stroke:none;" />
 <path d="  M 52,48  L 53,48  L 53,47  L 52,47  Z  " style="fill:rgb(67, 64, 67); fill-opacity:1.000; stroke:none;" />
 <path d="  M 54,15  L 53,15  L 53,16  L 54,16  Z  " style="fill:rgb(67, 64, 67); fill-opacity:1.000; stroke:none;" />
 <path d="  M 57,16  L 54,16  L 54,18  L 55,18  L 55,17  L 57,17  Z  " style="fill:rgb(67, 64, 67); fill-opacity:1.000; stroke:none;" />
 <path d="  M 54,39  L 55,39  L 55,38  L 54,38  Z  " style="fill:rgb(67, 64, 67); fill-opacity:1.000; stroke:none;" />
 <path d="  M 56,14  L 56,13  L 55,13  L 55,14  Z  " style="fill:rgb(67, 64, 67); fill-opacity:1.000; stroke:none;" />
 <path d="  M 56,19  L 55,19  L 55,20  L 56,20  Z  " style="fill:rgb(67, 64, 67); fill-opacity:1.000; stroke:none;" />
 <path d="  M 56,25  L 56,24  L 55,24  L 55,25  Z  " style="fill:rgb(67, 64, 67); fill-opacity:1.000; stroke:none;" />
 <path d="  M 55,27  L 55,28  L 56,28  L 56,27  Z  " style="fill:rgb(67, 64, 67); fill-opacity:1.000; stroke:none;" />
 <path d="  M 58,33  L 58,32  L 57,32  L 57,31  L 56,31  L 56,32  L 55,32  L 55,33  Z  " style="fill:rgb(67, 64, 67); fill-opacity:1.000; stroke:none;" />
 <path d="  M 56,40  L 56,39  L 55,39  L 55,40  Z  " style="fill:rgb(67, 64, 67); fill-opacity:1.000; stroke:none;" />
 <path d="  M 57,53  L 58,53  L 58,52  L 56,52  L 56,53  L 55,53  L 55,54  L 57,54  Z  " style="fill:rgb(67, 64, 67); fill-opacity:1.000; stroke:none;" />
 <path d="  M 56,10  L 56,11  L 57,11  L 57,10  Z  " style="fill:rgb(67, 64, 67); fill-opacity:1.000; stroke:none;" />
 <path d="  M 57,23  L 59,23  L 59,26  L 60,26  L 60,9  L 59,9  L 59,12  L 58,12  L 58,13  L 57,13  L 57,14  L 58,14  L 58,15  L 57,15  L 57,16  L 58,16  L 58,17  L 57,17  L 57,19  L 58,19  L 58,20  L 56,20  L 56,21  L 57,21  Z  " style="fill:rgb(67, 64, 67); fill-opacity:1.000; stroke:none;" />
 <path d="  M 57,11  L 57,12  L 58,12  L 58,11  Z  " style="fill:rgb(67, 64, 67); fill-opacity:1.000; stroke:none;" />
 <path d="  M 59,36  L 59,34  L 58,34  L 58,36  Z  " style="fill:rgb(67, 64, 67); fill-opacity:1.000; stroke:none;" />
 <path d="  M 60,9  L 61,9  L 61,7  L 60,7  Z  " style="fill:rgb(67, 64, 67); fill-opacity:1.000; stroke:none;" />
 <path d="  M 5,54  L 5,55  L 4,55  L 4,56  L 5,56  L 5,57  L 6,57  L 6,56  L 7,56  L 7,55  L 6,55  L 6,54  Z  " style="fill:rgb(76, 65, 67); fill-opacity:1.000; stroke:none;" />
 <path d="  M 7,46  L 7,45  L 6,45  L 6,46  Z  " style="fill:rgb(76, 65, 67); fill-opacity:1.000; stroke:none;" />
 <path d="  M 11,47  L 9,47  L 9,46  L 8,46  L 8,47  L 7,47  L 7,49  L 8,49  L 8,50  L 9,50  L 9,48  L 11,48  Z  " style="fill:rgb(76, 65, 67); fill-opacity:1.000; stroke:none;" />
 <path d="  M 8,55  L 8,54  L 7,54  L 7,55  Z  " style="fill:rgb(76, 65, 67); fill-opacity:1.000; stroke:none;" />
 <path d="  M 10,52  L 10,51  L 8,51  L 8,52  Z  " style="fill:rgb(76, 65, 67); fill-opacity:1.000; stroke:none;" />
 <path d="  M 9,55  L 8,55  L 8,56  L 9,56  Z  " style="fill:rgb(76, 65, 67); fill-opacity:1.000; stroke:none;" />
 <path d="  M 9,56  L 9,57  L 8,57  L 8,58  L 10,58  L 10,57  L 11,57  L 11,56  Z  " style="fill:rgb(76, 65, 67); fill-opacity:1.000; stroke:none;" />
 <path d="  M 10,9  L 11,9  L 11,8  L 10,8  Z  " style="fill:rgb(76, 65, 67); fill-opacity:1.000; stroke:none;" />
 <path d="  M 10,10  L 10,11  L 11,11  L 11,12  L 13,12  L 13,11  L 14,11  L 14,10  L 12,10  L 12,9  L 11,9  L 11,10  Z  " style="fill:rgb(76, 65, 67); fill-opacity:1.000; stroke:none;" />
 <path d="  M 11,13  L 11,12  L 10,12  L 10,13  Z  " style="fill:rgb(76, 65, 67); fill-opacity:1.000; stroke:none;" />
 <path d="  M 10,51  L 11,51  L 11,50  L 12,50  L 12,49  L 13,49  L 13,48  L 14,48  L 14,47  L 12,47  L 12,48  L 11,48  L 11,49  L 10,49  Z  " style="fill:rgb(76, 65, 67); fill-opacity:1.000; stroke:none;" />
 <path d="  M 10,54  L 11,54  L 11,53  L 10,53  Z  " style="fill:rgb(76, 65, 67); fill-opacity:1.000; stroke:none;" />
 <path d="  M 12,52  L 13,52  L 13,50  L 12,50  Z  " style="fill:rgb(76, 65, 67); fill-opacity:1.000; stroke:none;" />
 <path d="  M 16,11  L 16,10  L 17,10  L 17,9  L 16,9  L 16,8  L 17,8  L 17,7  L 15,7  L 15,8  L 13,8  L 13,9  L 14,9  L 14,10  L 15,10  L 15,11  Z  " style="fill:rgb(76, 65, 67); fill-opacity:1.000; stroke:none;" />
 <path d="  M 15,6  L 14,6  L 14,7  L 15,7  Z  " style="fill:rgb(76, 65, 67); fill-opacity:1.000; stroke:none;" />
 <path d="  M 15,14  L 14,14  L 14,15  L 15,15  Z  " style="fill:rgb(76, 65, 67); fill-opacity:1.000; stroke:none;" />
 <path d="  M 14,46  L 14,47  L 15,47  L 15,46  Z  " style="fill:rgb(76, 65, 67); fill-opacity:1.000; stroke:none;" />
 <path d="  M 15,12  L 15,13  L 16,13  L 16,12  Z  " style="fill:rgb(76, 65, 67); fill-opacity:1.000; stroke:none;" />
 <path d="  M 19,7  L 19,6  L 18,6  L 18,5  L 16,5  L 16,6  L 17,6  L 17,7  Z  " style="fill:rgb(76, 65, 67); fill-opacity:1.000; stroke:none;" />
 <path d="  M 17,11  L 16,11  L 16,12  L 17,12  Z  " style="fill:rgb(76, 65, 67); fill-opacity:1.000; stroke:none;" />
 <path d="  M 19,12  L 20,12  L 20,11  L 18,11  L 18,12  L 17,12  L 17,13  L 16,13  L 16,14  L 17,14  L 17,15  L 16,15  L 16,16  L 18,16  L 18,15  L 19,15  L 19,14  L 18,14  L 18,13  L 19,13  Z  " style="fill:rgb(76, 65, 67); fill-opacity:1.000; stroke:none;" />
 <path d="  M 17,8  L 17,9  L 18,9  L 18,8  Z  " style="fill:rgb(76, 65, 67); fill-opacity:1.000; stroke:none;" />
 <path d="  M 18,17  L 18,18  L 19,18  L 19,17  Z  " style="fill:rgb(76, 65, 67); fill-opacity:1.000; stroke:none;" />
 <path d="  M 19,14  L 20,14  L 20,13  L 19,13  Z  " style="fill:rgb(76, 65, 67); fill-opacity:1.000; stroke:none;" />
 <path d="  M 19,20  L 20,20  L 20,18  L 19,18  Z  " style="fill:rgb(76, 65, 67); fill-opacity:1.000; stroke:none;" />
 <path d="  M 21,10  L 20,10  L 20,11  L 21,11  Z  " style="fill:rgb(76, 65, 67); fill-opacity:1.000; stroke:none;" />
 <path d="  M 21,12  L 20,12  L 20,13  L 21,13  Z  " style="fill:rgb(76, 65, 67); fill-opacity:1.000; stroke:none;" />
 <path d="  M 20,16  L 21,16  L 21,17  L 22,17  L 22,15  L 23,15  L 23,13  L 24,13  L 24,12  L 22,12  L 22,14  L 21,14  L 21,15  L 20,15  Z  " style="fill:rgb(76, 65, 67); fill-opacity:1.000; stroke:none;" />
 <path d="  M 24,16  L 24,15  L 23,15  L 23,16  Z  " style="fill:rgb(76, 65, 67); fill-opacity:1.000; stroke:none;" />
 <path d="  M 25,12  L 25,11  L 24,11  L 24,12  Z  " style="fill:rgb(76, 65, 67); fill-opacity:1.000; stroke:none;" />
 <path d="  M 25,15  L 26,15  L 26,14  L 25,14  Z  " style="fill:rgb(76, 65, 67); fill-opacity:1.000; stroke:none;" />
 <path d="  M 47,5  L 46,5  L 46,6  L 48,6  L 48,7  L 50,7  L 50,8  L 51,8  L 51,7  L 52,7  L 52,6  L 51,6  L 51,5  L 52,5  L 52,4  L 50,4  L 50,3  L 49,3  L 49,4  L 47,4  Z  M 49,6  L 48,6  L 48,5  L 49,5  Z  " style="fill:rgb(76, 65, 67); fill-opacity:1.000; stroke:none;" />
 <path d="  M 53,11  L 53,9  L 55,9  L 55,7  L 54,7  L 54,6  L 53,6  L 53,7  L 52,7  L 52,8  L 51,8  L 51,9  L 52,9  L 52,11  Z  " style="fill:rgb(76, 65, 67); fill-opacity:1.000; stroke:none;" />
 <path d="  M 53,3  L 52,3  L 52,4  L 53,4  Z  " style="fill:rgb(76, 65, 67); fill-opacity:1.000; stroke:none;" />
 <path d="  M 53,5  L 52,5  L 52,6  L 53,6  Z  " style="fill:rgb(76, 65, 67); fill-opacity:1.000; stroke:none;" />
 <path d="  M 55,4  L 54,4  L 54,5  L 55,5  Z  " style="fill:rgb(76, 65, 67); fill-opacity:1.000; stroke:none;" />
 <path d="  M 55,6  L 55,7  L 57,7  L 57,6  Z  " style="fill:rgb(76, 65, 67); fill-opacity:1.000; stroke:none;" />
 <path d="  M 57,10  L 57,9  L 55,9  L 55,10  Z  " style="fill:rgb(76, 65, 67); fill-opacity:1.000; stroke:none;" />
 <path d="  M 5,28  L 5,29  L 6,29  L 6,30  L 7,30  L 7,28  Z  " style="fill:rgb(81, 76, 81); fill-opacity:1.000; stroke:none;" />
 <path d="  M 6,30  L 5,30  L 5,31  L 6,31  Z  " style="fill:rgb(81, 76, 81); fill-opacity:1.000; stroke:none;" />
 <path d="  M 28,39  L 28,38  L 29,38  L 29,39  L 30,39  L 30,41  L 31,41  L 31,42  L 32,42  L 32,39  L 34,39  L 34,38  L 32,38  L 32,37  L 34,37  L 34,34  L 35,34  L 35,33  L 33,33  L 33,34  L 32,34  L 32,35  L 30,35  L 30,34  L 29,34  L 29,32  L 30,32  L 30,30  L 29,30  L 29,29  L 31,29  L 31,28  L 29,28  L 29,27  L 27,27  L 27,26  L 26,26  L 26,25  L 25,25  L 25,24  L 26,24  L 26,23  L 27,23  L 27,22  L 26,22  L 26,21  L 28,21  L 28,20  L 27,20  L 27,19  L 28,19  L 28,18  L 26,18  L 26,17  L 25,17  L 25,19  L 24,19  L 24,20  L 23,20  L 23,22  L 21,22  L 21,23  L 22,23  L 22,25  L 21,25  L 21,27  L 20,27  L 20,28  L 19,28  L 19,29  L 17,29  L 17,28  L 15,28  L 15,29  L 14,29  L 14,28  L 13,28  L 13,29  L 11,29  L 11,28  L 10,28  L 10,29  L 9,29  L 9,27  L 7,27  L 7,28  L 8,28  L 8,31  L 7,31  L 7,32  L 10,32  L 10,31  L 11,31  L 11,32  L 12,32  L 12,33  L 13,33  L 13,30  L 15,30  L 15,31  L 14,31  L 14,32  L 15,32  L 15,33  L 16,33  L 16,34  L 17,34  L 17,35  L 19,35  L 19,34  L 20,34  L 20,36  L 21,36  L 21,37  L 20,37  L 20,38  L 22,38  L 22,39  L 25,39  L 25,41  L 28,41  L 28,40  L 26,40  L 26,38  L 27,38  L 27,39  Z  M 19,30  L 19,31  L 18,31  L 18,30  Z  M 22,35  L 23,35  L 23,36  L 22,36  Z  M 17,32  L 18,32  L 18,33  L 17,33  Z  M 24,24  L 24,25  L 23,25  L 23,24  Z  M 19,32  L 19,31  L 20,31  L 20,32  Z  M 16,31  L 17,31  L 17,32  L 16,32  Z  M 21,33  L 21,34  L 20,34  L 20,33  Z  M 27,29  L 27,28  L 28,28  L 28,29  Z  M 11,30  L 12,30  L 12,31  L 11,31  Z  M 25,36  L 27,36  L 27,37  L 26,37  L 26,38  L 25,38  Z  M 28,36  L 27,36  L 27,35  L 28,35  Z  M 24,34  L 25,34  L 25,35  L 24,35  Z  " style="fill:rgb(81, 76, 81); fill-opacity:1.000; stroke:none;" />
 <path d="  M 11,27  L 11,28  L 12,28  L 12,27  Z  " style="fill:rgb(81, 76, 81); fill-opacity:1.000; stroke:none;" />
 <path d="  M 12,34  L 12,33  L 11,33  L 11,34  Z  " style="fill:rgb(81, 76, 81); fill-opacity:1.000; stroke:none;" />
 <path d="  M 14,34  L 15,34  L 15,33  L 14,33  Z  " style="fill:rgb(81, 76, 81); fill-opacity:1.000; stroke:none;" />
 <path d="  M 17,36  L 17,35  L 16,35  L 16,36  Z  " style="fill:rgb(81, 76, 81); fill-opacity:1.000; stroke:none;" />
 <path d="  M 17,28  L 18,28  L 18,27  L 17,27  Z  " style="fill:rgb(81, 76, 81); fill-opacity:1.000; stroke:none;" />
 <path d="  M 20,41  L 20,42  L 22,42  L 22,41  L 21,41  L 21,40  L 18,40  L 18,41  Z  " style="fill:rgb(81, 76, 81); fill-opacity:1.000; stroke:none;" />
 <path d="  M 19,27  L 20,27  L 20,26  L 19,26  Z  " style="fill:rgb(81, 76, 81); fill-opacity:1.000; stroke:none;" />
 <path d="  M 19,38  L 19,39  L 20,39  L 20,38  Z  " style="fill:rgb(81, 76, 81); fill-opacity:1.000; stroke:none;" />
 <path d="  M 21,23  L 20,23  L 20,25  L 21,25  Z  " style="fill:rgb(81, 76, 81); fill-opacity:1.000; stroke:none;" />
 <path d="  M 22,39  L 21,39  L 21,40  L 22,40  Z  " style="fill:rgb(81, 76, 81); fill-opacity:1.000; stroke:none;" />
 <path d="  M 28,12  L 27,12  L 27,13  L 28,13  Z  " style="fill:rgb(81, 76, 81); fill-opacity:1.000; stroke:none;" />
 <path d="  M 32,9  L 32,11  L 30,11  L 30,12  L 29,12  L 29,13  L 28,13  L 28,15  L 27,15  L 27,17  L 28,17  L 28,18  L 29,18  L 29,19  L 30,19  L 30,18  L 31,18  L 31,17  L 30,17  L 30,15  L 31,15  L 31,14  L 30,14  L 30,13  L 32,13  L 32,12  L 34,12  L 34,13  L 36,13  L 36,14  L 37,14  L 37,12  L 36,12  L 36,11  L 38,11  L 38,9  L 37,9  L 37,8  L 36,8  L 36,9  L 35,9  L 35,8  L 34,8  L 34,7  L 32,7  L 32,6  L 33,6  L 33,5  L 31,5  L 31,7  L 29,7  L 29,8  L 30,8  L 30,9  Z  " style="fill:rgb(81, 76, 81); fill-opacity:1.000; stroke:none;" />
 <path d="  M 29,11  L 29,10  L 28,10  L 28,11  Z  " style="fill:rgb(81, 76, 81); fill-opacity:1.000; stroke:none;" />
 <path d="  M 28,24  L 28,25  L 29,25  L 29,24  Z  " style="fill:rgb(81, 76, 81); fill-opacity:1.000; stroke:none;" />
 <path d="  M 28,39  L 28,40  L 29,40  L 29,39  Z  " style="fill:rgb(81, 76, 81); fill-opacity:1.000; stroke:none;" />
 <path d="  M 30,4  L 30,5  L 31,5  L 31,4  Z  " style="fill:rgb(81, 76, 81); fill-opacity:1.000; stroke:none;" />
 <path d="  M 31,26  L 31,25  L 30,25  L 30,26  Z  " style="fill:rgb(81, 76, 81); fill-opacity:1.000; stroke:none;" />
 <path d="  M 30,34  L 31,34  L 31,33  L 30,33  Z  " style="fill:rgb(81, 76, 81); fill-opacity:1.000; stroke:none;" />
 <path d="  M 33,32  L 32,32  L 32,33  L 33,33  Z  " style="fill:rgb(81, 76, 81); fill-opacity:1.000; stroke:none;" />
 <path d="  M 34,40  L 33,40  L 33,42  L 34,42  L 34,41  L 35,41  L 35,39  L 34,39  Z  " style="fill:rgb(81, 76, 81); fill-opacity:1.000; stroke:none;" />
 <path d="  M 35,6  L 34,6  L 34,7  L 35,7  Z  " style="fill:rgb(81, 76, 81); fill-opacity:1.000; stroke:none;" />
 <path d="  M 35,36  L 35,38  L 36,38  L 36,36  Z  " style="fill:rgb(81, 76, 81); fill-opacity:1.000; stroke:none;" />
 <path d="  M 37,34  L 36,34  L 36,36  L 37,36  Z  " style="fill:rgb(81, 76, 81); fill-opacity:1.000; stroke:none;" />
 <path d="  M 39,12  L 39,11  L 38,11  L 38,12  Z  " style="fill:rgb(81, 76, 81); fill-opacity:1.000; stroke:none;" />
 <path d="  M 39,14  L 39,15  L 40,15  L 40,14  Z  " style="fill:rgb(81, 76, 81); fill-opacity:1.000; stroke:none;" />
 <path d="  M 7,34  L 6,34  L 6,35  L 7,35  Z  " style="fill:rgb(82, 80, 82); fill-opacity:1.000; stroke:none;" />
 <path d="  M 7,36  L 6,36  L 6,37  L 7,37  Z  " style="fill:rgb(82, 80, 82); fill-opacity:1.000; stroke:none;" />
 <path d="  M 10,37  L 10,38  L 12,38  L 12,39  L 13,39  L 13,37  L 11,37  L 11,36  L 10,36  L 10,35  L 8,35  L 8,36  L 9,36  L 9,37  Z  " style="fill:rgb(82, 80, 82); fill-opacity:1.000; stroke:none;" />
 <path d="  M 9,37  L 8,37  L 8,38  L 9,38  Z  " style="fill:rgb(82, 80, 82); fill-opacity:1.000; stroke:none;" />
 <path d="  M 9,38  L 9,39  L 10,39  L 10,38  Z  " style="fill:rgb(82, 80, 82); fill-opacity:1.000; stroke:none;" />
 <path d="  M 11,40  L 11,39  L 10,39  L 10,40  Z  " style="fill:rgb(82, 80, 82); fill-opacity:1.000; stroke:none;" />
 <path d="  M 12,41  L 12,42  L 13,42  L 13,41  Z  " style="fill:rgb(82, 80, 82); fill-opacity:1.000; stroke:none;" />
 <path d="  M 13,39  L 13,40  L 14,40  L 14,42  L 15,42  L 15,41  L 16,41  L 16,40  L 15,40  L 15,39  Z  " style="fill:rgb(82, 80, 82); fill-opacity:1.000; stroke:none;" />
 <path d="  M 17,42  L 16,42  L 16,43  L 17,43  Z  " style="fill:rgb(82, 80, 82); fill-opacity:1.000; stroke:none;" />
 <path d="  M 32,21  L 31,21  L 31,22  L 32,22  Z  " style="fill:rgb(82, 80, 82); fill-opacity:1.000; stroke:none;" />
 <path d="  M 33,14  L 32,14  L 32,15  L 33,15  Z  " style="fill:rgb(82, 80, 82); fill-opacity:1.000; stroke:none;" />
 <path d="  M 32,17  L 32,18  L 33,18  L 33,17  Z  " style="fill:rgb(82, 80, 82); fill-opacity:1.000; stroke:none;" />
 <path d="  M 35,23  L 35,22  L 33,22  L 33,23  Z  " style="fill:rgb(82, 80, 82); fill-opacity:1.000; stroke:none;" />
 <path d="  M 34,25  L 34,26  L 35,26  L 35,27  L 36,27  L 36,25  L 35,25  L 35,24  L 33,24  L 33,25  Z  " style="fill:rgb(82, 80, 82); fill-opacity:1.000; stroke:none;" />
 <path d="  M 33,27  L 34,27  L 34,26  L 33,26  Z  " style="fill:rgb(82, 80, 82); fill-opacity:1.000; stroke:none;" />
 <path d="  M 34,15  L 34,17  L 35,17  L 35,15  Z  " style="fill:rgb(82, 80, 82); fill-opacity:1.000; stroke:none;" />
 <path d="  M 34,19  L 35,19  L 35,18  L 34,18  Z  " style="fill:rgb(82, 80, 82); fill-opacity:1.000; stroke:none;" />
 <path d="  M 36,29  L 36,28  L 35,28  L 35,29  Z  " style="fill:rgb(82, 80, 82); fill-opacity:1.000; stroke:none;" />
 <path d="  M 36,15  L 36,16  L 37,16  L 37,15  Z  " style="fill:rgb(82, 80, 82); fill-opacity:1.000; stroke:none;" />
 <path d="  M 36,17  L 36,18  L 38,18  L 38,19  L 39,19  L 39,18  L 40,18  L 40,17  L 39,17  L 39,16  L 37,16  L 37,17  Z  " style="fill:rgb(82, 80, 82); fill-opacity:1.000; stroke:none;" />
 <path d="  M 38,21  L 38,22  L 39,22  L 39,23  L 40,23  L 40,22  L 41,22  L 41,21  L 40,21  L 40,20  L 38,20  L 38,19  L 36,19  L 36,20  L 37,20  L 37,21  Z  " style="fill:rgb(82, 80, 82); fill-opacity:1.000; stroke:none;" />
 <path d="  M 38,25  L 38,24  L 37,24  L 37,23  L 36,23  L 36,25  L 37,25  L 37,26  L 39,26  L 39,25  Z  " style="fill:rgb(82, 80, 82); fill-opacity:1.000; stroke:none;" />
 <path d="  M 36,27  L 36,28  L 38,28  L 38,29  L 39,29  L 39,27  Z  " style="fill:rgb(82, 80, 82); fill-opacity:1.000; stroke:none;" />
 <path d="  M 39,26  L 39,27  L 40,27  L 40,26  Z  " style="fill:rgb(82, 80, 82); fill-opacity:1.000; stroke:none;" />
 <path d="  M 41,30  L 41,29  L 42,29  L 42,28  L 41,28  L 41,27  L 40,27  L 40,29  L 39,29  L 39,30  Z  " style="fill:rgb(82, 80, 82); fill-opacity:1.000; stroke:none;" />
 <path d="  M 42,18  L 41,18  L 41,19  L 42,19  Z  " style="fill:rgb(82, 80, 82); fill-opacity:1.000; stroke:none;" />
 <path d="  M 42,23  L 42,22  L 41,22  L 41,23  Z  " style="fill:rgb(82, 80, 82); fill-opacity:1.000; stroke:none;" />
 <path d="  M 43,29  L 42,29  L 42,30  L 43,30  Z  " style="fill:rgb(82, 80, 82); fill-opacity:1.000; stroke:none;" />
 <path d="  M 44,24  L 44,23  L 43,23  L 43,24  Z  " style="fill:rgb(82, 80, 82); fill-opacity:1.000; stroke:none;" />
 <path d="  M 45,30  L 44,30  L 44,31  L 45,31  Z  " style="fill:rgb(82, 80, 82); fill-opacity:1.000; stroke:none;" />
 <path d="  M 27,61  L 28,61  L 28,60  L 27,60  Z  " style="fill:rgb(47, 40, 41); fill-opacity:1.000; stroke:none;" />
 <path d="  M 29,60  L 29,61  L 31,61  L 31,60  Z  " style="fill:rgb(47, 40, 41); fill-opacity:1.000; stroke:none;" />
 <path d="  M 32,60  L 32,61  L 57,61  L 57,60  L 58,60  L 58,61  L 59,61  L 59,60  L 60,60  L 60,59  L 61,59  L 61,53  L 60,53  L 60,57  L 59,57  L 59,58  L 58,58  L 58,59  L 56,59  L 56,60  L 53,60  L 53,59  L 51,59  L 51,60  L 38,60  L 38,59  L 37,59  L 37,60  Z  " style="fill:rgb(47, 40, 41); fill-opacity:1.000; stroke:none;" />
 <path d="  M 58,58  L 58,57  L 57,57  L 57,58  Z  " style="fill:rgb(47, 40, 41); fill-opacity:1.000; stroke:none;" />
</svg>
