<?xml version="1.0" encoding="UTF-8" standalone="no"?>
<!DOCTYPE svg PUBLIC "-//W3C//DTD SVG 1.1//EN" 
  "http://www.w3.org/Graphics/SVG/1.1/DTD/svg11.dtd">
<svg width="64" height="64"
	 xmlns="http://www.w3.org/2000/svg" version="1.1">
 <path d="  M 1,20  L 0,20  L 0,27  L 1,27  Z  " style="fill:rgb(82, 24, 16); fill-opacity:1.000; stroke:none;" />
 <path d="  M 1,46  L 0,46  L 0,50  L 1,50  Z  " style="fill:rgb(82, 24, 16); fill-opacity:1.000; stroke:none;" />
 <path d="  M 2,18  L 1,18  L 1,20  L 2,20  Z  " style="fill:rgb(82, 24, 16); fill-opacity:1.000; stroke:none;" />
 <path d="  M 1,44  L 1,46  L 2,46  L 2,44  Z  " style="fill:rgb(82, 24, 16); fill-opacity:1.000; stroke:none;" />
 <path d="  M 2,52  L 2,50  L 1,50  L 1,52  Z  " style="fill:rgb(82, 24, 16); fill-opacity:1.000; stroke:none;" />
 <path d="  M 3,17  L 2,17  L 2,18  L 3,18  Z  " style="fill:rgb(82, 24, 16); fill-opacity:1.000; stroke:none;" />
 <path d="  M 3,44  L 3,43  L 2,43  L 2,44  Z  " style="fill:rgb(82, 24, 16); fill-opacity:1.000; stroke:none;" />
 <path d="  M 2,53  L 3,53  L 3,52  L 2,52  Z  " style="fill:rgb(82, 24, 16); fill-opacity:1.000; stroke:none;" />
 <path d="  M 3,17  L 4,17  L 4,16  L 3,16  Z  " style="fill:rgb(82, 24, 16); fill-opacity:1.000; stroke:none;" />
 <path d="  M 4,42  L 3,42  L 3,43  L 4,43  Z  " style="fill:rgb(82, 24, 16); fill-opacity:1.000; stroke:none;" />
 <path d="  M 4,54  L 4,53  L 3,53  L 3,54  Z  " style="fill:rgb(82, 24, 16); fill-opacity:1.000; stroke:none;" />
 <path d="  M 5,16  L 5,15  L 4,15  L 4,16  Z  " style="fill:rgb(82, 24, 16); fill-opacity:1.000; stroke:none;" />
 <path d="  M 4,41  L 4,42  L 6,42  L 6,41  Z  " style="fill:rgb(82, 24, 16); fill-opacity:1.000; stroke:none;" />
 <path d="  M 6,55  L 5,55  L 5,54  L 4,54  L 4,56  L 6,56  Z  " style="fill:rgb(82, 24, 16); fill-opacity:1.000; stroke:none;" />
 <path d="  M 6,15  L 6,14  L 5,14  L 5,15  Z  " style="fill:rgb(82, 24, 16); fill-opacity:1.000; stroke:none;" />
 <path d="  M 6,13  L 6,14  L 7,14  L 7,13  Z  " style="fill:rgb(82, 24, 16); fill-opacity:1.000; stroke:none;" />
 <path d="  M 8,41  L 8,40  L 6,40  L 6,41  Z  " style="fill:rgb(82, 24, 16); fill-opacity:1.000; stroke:none;" />
 <path d="  M 8,64  L 8,57  L 7,57  L 7,56  L 6,56  L 6,64  Z  " style="fill:rgb(82, 24, 16); fill-opacity:1.000; stroke:none;" />
 <path d="  M 7,13  L 8,13  L 8,12  L 7,12  Z  " style="fill:rgb(82, 24, 16); fill-opacity:1.000; stroke:none;" />
 <path d="  M 10,12  L 10,11  L 8,11  L 8,12  Z  " style="fill:rgb(82, 24, 16); fill-opacity:1.000; stroke:none;" />
 <path d="  M 9,44  L 8,44  L 8,52  L 9,52  Z  " style="fill:rgb(82, 24, 16); fill-opacity:1.000; stroke:none;" />
 <path d="  M 23,64  L 23,54  L 22,54  L 22,55  L 21,55  L 21,56  L 20,56  L 20,57  L 18,57  L 18,56  L 19,56  L 19,55  L 20,55  L 20,54  L 18,54  L 18,55  L 16,55  L 16,54  L 12,54  L 12,55  L 10,55  L 10,56  L 11,56  L 11,57  L 9,57  L 9,64  Z  M 13,57  L 13,58  L 12,58  L 12,57  Z  M 17,58  L 17,57  L 18,57  L 18,58  Z  M 13,56  L 14,56  L 14,55  L 15,55  L 15,57  L 13,57  Z  M 16,59  L 15,59  L 15,58  L 16,58  Z  " style="fill:rgb(82, 24, 16); fill-opacity:1.000; stroke:none;" />
 <path d="  M 10,10  L 10,11  L 22,11  L 22,10  Z  " style="fill:rgb(82, 24, 16); fill-opacity:1.000; stroke:none;" />
 <path d="  M 16,53  L 16,54  L 17,54  L 17,53  Z  " style="fill:rgb(82, 24, 16); fill-opacity:1.000; stroke:none;" />
 <path d="  M 22,54  L 22,53  L 23,53  L 23,52  L 21,52  L 21,53  L 20,53  L 20,54  Z  " style="fill:rgb(82, 24, 16); fill-opacity:1.000; stroke:none;" />
 <path d="  M 22,11  L 22,12  L 24,12  L 24,11  Z  " style="fill:rgb(82, 24, 16); fill-opacity:1.000; stroke:none;" />
 <path d="  M 24,37  L 23,37  L 23,46  L 24,46  Z  " style="fill:rgb(82, 24, 16); fill-opacity:1.000; stroke:none;" />
 <path d="  M 24,13  L 25,13  L 25,12  L 24,12  Z  " style="fill:rgb(82, 24, 16); fill-opacity:1.000; stroke:none;" />
 <path d="  M 24,37  L 25,37  L 25,35  L 24,35  Z  " style="fill:rgb(82, 24, 16); fill-opacity:1.000; stroke:none;" />
 <path d="  M 26,14  L 26,13  L 25,13  L 25,14  Z  " style="fill:rgb(82, 24, 16); fill-opacity:1.000; stroke:none;" />
 <path d="  M 26,35  L 26,34  L 25,34  L 25,35  Z  " style="fill:rgb(82, 24, 16); fill-opacity:1.000; stroke:none;" />
 <path d="  M 26,40  L 25,40  L 25,42  L 26,42  Z  " style="fill:rgb(82, 24, 16); fill-opacity:1.000; stroke:none;" />
 <path d="  M 27,15  L 27,14  L 26,14  L 26,15  Z  " style="fill:rgb(82, 24, 16); fill-opacity:1.000; stroke:none;" />
 <path d="  M 26,34  L 27,34  L 27,33  L 26,33  Z  " style="fill:rgb(82, 24, 16); fill-opacity:1.000; stroke:none;" />
 <path d="  M 27,40  L 27,39  L 26,39  L 26,40  Z  " style="fill:rgb(82, 24, 16); fill-opacity:1.000; stroke:none;" />
 <path d="  M 27,15  L 27,16  L 28,16  L 28,15  Z  " style="fill:rgb(82, 24, 16); fill-opacity:1.000; stroke:none;" />
 <path d="  M 27,32  L 27,33  L 28,33  L 28,32  Z  " style="fill:rgb(82, 24, 16); fill-opacity:1.000; stroke:none;" />
 <path d="  M 28,39  L 28,38  L 27,38  L 27,39  Z  " style="fill:rgb(82, 24, 16); fill-opacity:1.000; stroke:none;" />
 <path d="  M 28,17  L 29,17  L 29,16  L 28,16  Z  " style="fill:rgb(82, 24, 16); fill-opacity:1.000; stroke:none;" />
 <path d="  M 29,32  L 29,30  L 28,30  L 28,32  Z  " style="fill:rgb(82, 24, 16); fill-opacity:1.000; stroke:none;" />
 <path d="  M 30,38  L 30,37  L 28,37  L 28,38  Z  " style="fill:rgb(82, 24, 16); fill-opacity:1.000; stroke:none;" />
 <path d="  M 29,18  L 30,18  L 30,17  L 29,17  Z  " style="fill:rgb(82, 24, 16); fill-opacity:1.000; stroke:none;" />
 <path d="  M 29,30  L 30,30  L 30,28  L 29,28  Z  " style="fill:rgb(82, 24, 16); fill-opacity:1.000; stroke:none;" />
 <path d="  M 30,58  L 30,57  L 29,57  L 29,58  Z  " style="fill:rgb(82, 24, 16); fill-opacity:1.000; stroke:none;" />
 <path d="  M 34,60  L 33,60  L 33,59  L 32,59  L 32,58  L 33,58  L 33,57  L 31,57  L 31,58  L 30,58  L 30,60  L 29,60  L 29,64  L 39,64  L 39,54  L 38,54  L 38,55  L 36,55  L 36,56  L 35,56  L 35,57  L 36,57  L 36,59  L 35,59  L 35,58  L 34,58  Z  " style="fill:rgb(82, 24, 16); fill-opacity:1.000; stroke:none;" />
 <path d="  M 30,36  L 30,37  L 34,37  L 34,36  Z  " style="fill:rgb(82, 24, 16); fill-opacity:1.000; stroke:none;" />
 <path d="  M 30,56  L 30,57  L 31,57  L 31,56  Z  " style="fill:rgb(82, 24, 16); fill-opacity:1.000; stroke:none;" />
 <path d="  M 35,55  L 36,55  L 36,54  L 35,54  Z  " style="fill:rgb(82, 24, 16); fill-opacity:1.000; stroke:none;" />
 <path d="  M 37,24  L 36,24  L 36,32  L 37,32  Z  " style="fill:rgb(82, 24, 16); fill-opacity:1.000; stroke:none;" />
 <path d="  M 37,24  L 38,24  L 38,22  L 37,22  Z  " style="fill:rgb(82, 24, 16); fill-opacity:1.000; stroke:none;" />
 <path d="  M 37,34  L 38,34  L 38,32  L 37,32  Z  " style="fill:rgb(82, 24, 16); fill-opacity:1.000; stroke:none;" />
 <path d="  M 39,34  L 38,34  L 38,35  L 39,35  Z  " style="fill:rgb(82, 24, 16); fill-opacity:1.000; stroke:none;" />
 <path d="  M 40,36  L 40,35  L 39,35  L 39,36  Z  " style="fill:rgb(82, 24, 16); fill-opacity:1.000; stroke:none;" />
 <path d="  M 39,54  L 40,54  L 40,53  L 39,53  Z  " style="fill:rgb(82, 24, 16); fill-opacity:1.000; stroke:none;" />
 <path d="  M 41,37  L 41,36  L 40,36  L 40,37  Z  " style="fill:rgb(82, 24, 16); fill-opacity:1.000; stroke:none;" />
 <path d="  M 42,38  L 42,37  L 41,37  L 41,38  Z  " style="fill:rgb(82, 24, 16); fill-opacity:1.000; stroke:none;" />
 <path d="  M 42,38  L 42,40  L 43,40  L 43,38  Z  " style="fill:rgb(82, 24, 16); fill-opacity:1.000; stroke:none;" />
 <path d="  M 43,55  L 44,55  L 44,40  L 43,40  Z  " style="fill:rgb(82, 24, 16); fill-opacity:1.000; stroke:none;" />
 <path d="  M 45,56  L 45,55  L 44,55  L 44,56  Z  " style="fill:rgb(82, 24, 16); fill-opacity:1.000; stroke:none;" />
 <path d="  M 53,60  L 53,59  L 54,59  L 54,56  L 55,56  L 55,52  L 54,52  L 54,53  L 53,53  L 53,54  L 52,54  L 52,53  L 51,53  L 51,54  L 50,54  L 50,55  L 51,55  L 51,56  L 50,56  L 50,57  L 49,57  L 49,58  L 48,58  L 48,59  L 47,59  L 47,58  L 46,58  L 46,57  L 45,57  L 45,60  L 46,60  L 46,63  L 47,63  L 47,64  L 50,64  L 50,63  L 51,63  L 51,62  L 52,62  L 52,61  L 50,61  L 50,60  Z  M 49,63  L 49,62  L 50,62  L 50,63  Z  " style="fill:rgb(82, 24, 16); fill-opacity:1.000; stroke:none;" />
 <path d="  M 48,12  L 48,13  L 54,13  L 54,12  Z  " style="fill:rgb(82, 24, 16); fill-opacity:1.000; stroke:none;" />
 <path d="  M 48,57  L 49,57  L 49,56  L 48,56  Z  " style="fill:rgb(82, 24, 16); fill-opacity:1.000; stroke:none;" />
 <path d="  M 53,52  L 52,52  L 52,53  L 53,53  Z  " style="fill:rgb(82, 24, 16); fill-opacity:1.000; stroke:none;" />
 <path d="  M 54,14  L 56,14  L 56,13  L 54,13  Z  " style="fill:rgb(82, 24, 16); fill-opacity:1.000; stroke:none;" />
 <path d="  M 55,49  L 54,49  L 54,51  L 56,51  L 56,48  L 55,48  Z  " style="fill:rgb(82, 24, 16); fill-opacity:1.000; stroke:none;" />
 <path d="  M 57,15  L 57,14  L 56,14  L 56,15  Z  " style="fill:rgb(82, 24, 16); fill-opacity:1.000; stroke:none;" />
 <path d="  M 56,47  L 57,47  L 57,46  L 56,46  Z  " style="fill:rgb(82, 24, 16); fill-opacity:1.000; stroke:none;" />
 <path d="  M 58,15  L 57,15  L 57,16  L 58,16  Z  " style="fill:rgb(82, 24, 16); fill-opacity:1.000; stroke:none;" />
 <path d="  M 57,43  L 57,44  L 58,44  L 58,43  Z  " style="fill:rgb(82, 24, 16); fill-opacity:1.000; stroke:none;" />
 <path d="  M 59,16  L 58,16  L 58,17  L 59,17  Z  " style="fill:rgb(82, 24, 16); fill-opacity:1.000; stroke:none;" />
 <path d="  M 60,17  L 59,17  L 59,18  L 60,18  Z  " style="fill:rgb(82, 24, 16); fill-opacity:1.000; stroke:none;" />
 <path d="  M 60,18  L 60,19  L 61,19  L 61,18  Z  " style="fill:rgb(82, 24, 16); fill-opacity:1.000; stroke:none;" />
 <path d="  M 61,19  L 61,20  L 62,20  L 62,19  Z  " style="fill:rgb(82, 24, 16); fill-opacity:1.000; stroke:none;" />
 <path d="  M 63,20  L 62,20  L 62,22  L 63,22  Z  " style="fill:rgb(82, 24, 16); fill-opacity:1.000; stroke:none;" />
 <path d="  M 63,25  L 64,25  L 64,22  L 63,22  Z  " style="fill:rgb(82, 24, 16); fill-opacity:1.000; stroke:none;" />
 <path d="  M 0,28  L 1,28  L 1,27  L 0,27  Z  " style="fill:rgb(72, 0, 0); fill-opacity:1.000; stroke:none;" />
 <path d="  M 1,30  L 2,30  L 2,28  L 1,28  Z  " style="fill:rgb(72, 0, 0); fill-opacity:1.000; stroke:none;" />
 <path d="  M 2,30  L 2,31  L 3,31  L 3,30  Z  " style="fill:rgb(72, 0, 0); fill-opacity:1.000; stroke:none;" />
 <path d="  M 3,32  L 4,32  L 4,31  L 3,31  Z  " style="fill:rgb(72, 0, 0); fill-opacity:1.000; stroke:none;" />
 <path d="  M 4,32  L 4,33  L 5,33  L 5,32  Z  " style="fill:rgb(72, 0, 0); fill-opacity:1.000; stroke:none;" />
 <path d="  M 6,33  L 5,33  L 5,34  L 6,34  Z  " style="fill:rgb(72, 0, 0); fill-opacity:1.000; stroke:none;" />
 <path d="  M 5,61  L 6,61  L 6,56  L 5,56  Z  " style="fill:rgb(72, 0, 0); fill-opacity:1.000; stroke:none;" />
 <path d="  M 6,62  L 5,62  L 5,64  L 6,64  Z  " style="fill:rgb(72, 0, 0); fill-opacity:1.000; stroke:none;" />
 <path d="  M 7,34  L 6,34  L 6,35  L 7,35  Z  " style="fill:rgb(72, 0, 0); fill-opacity:1.000; stroke:none;" />
 <path d="  M 7,35  L 7,37  L 8,37  L 8,35  Z  " style="fill:rgb(72, 0, 0); fill-opacity:1.000; stroke:none;" />
 <path d="  M 9,44  L 9,37  L 8,37  L 8,44  Z  " style="fill:rgb(72, 0, 0); fill-opacity:1.000; stroke:none;" />
 <path d="  M 8,64  L 9,64  L 9,52  L 8,52  Z  " style="fill:rgb(72, 0, 0); fill-opacity:1.000; stroke:none;" />
 <path d="  M 23,64  L 24,64  L 24,50  L 25,50  L 25,42  L 24,42  L 24,46  L 23,46  Z  " style="fill:rgb(72, 0, 0); fill-opacity:1.000; stroke:none;" />
 <path d="  M 26,50  L 25,50  L 25,52  L 26,52  Z  " style="fill:rgb(72, 0, 0); fill-opacity:1.000; stroke:none;" />
 <path d="  M 26,52  L 26,53  L 27,53  L 27,52  Z  " style="fill:rgb(72, 0, 0); fill-opacity:1.000; stroke:none;" />
 <path d="  M 28,54  L 28,53  L 27,53  L 27,54  Z  " style="fill:rgb(72, 0, 0); fill-opacity:1.000; stroke:none;" />
 <path d="  M 28,64  L 29,64  L 29,54  L 28,54  Z  " style="fill:rgb(72, 0, 0); fill-opacity:1.000; stroke:none;" />
 <path d="  M 30,20  L 31,20  L 31,18  L 30,18  Z  " style="fill:rgb(72, 0, 0); fill-opacity:1.000; stroke:none;" />
 <path d="  M 30,28  L 31,28  L 31,26  L 30,26  Z  " style="fill:rgb(72, 0, 0); fill-opacity:1.000; stroke:none;" />
 <path d="  M 31,26  L 32,26  L 32,20  L 31,20  Z  " style="fill:rgb(72, 0, 0); fill-opacity:1.000; stroke:none;" />
 <path d="  M 38,37  L 38,36  L 34,36  L 34,37  Z  " style="fill:rgb(72, 0, 0); fill-opacity:1.000; stroke:none;" />
 <path d="  M 40,38  L 40,37  L 38,37  L 38,38  Z  " style="fill:rgb(72, 0, 0); fill-opacity:1.000; stroke:none;" />
 <path d="  M 40,54  L 39,54  L 39,64  L 40,64  Z  " style="fill:rgb(72, 0, 0); fill-opacity:1.000; stroke:none;" />
 <path d="  M 41,38  L 40,38  L 40,39  L 41,39  Z  " style="fill:rgb(72, 0, 0); fill-opacity:1.000; stroke:none;" />
 <path d="  M 40,54  L 41,54  L 41,53  L 40,53  Z  " style="fill:rgb(72, 0, 0); fill-opacity:1.000; stroke:none;" />
 <path d="  M 41,39  L 41,40  L 42,40  L 42,39  Z  " style="fill:rgb(72, 0, 0); fill-opacity:1.000; stroke:none;" />
 <path d="  M 42,52  L 41,52  L 41,53  L 42,53  Z  " style="fill:rgb(72, 0, 0); fill-opacity:1.000; stroke:none;" />
 <path d="  M 42,42  L 43,42  L 43,40  L 42,40  Z  " style="fill:rgb(72, 0, 0); fill-opacity:1.000; stroke:none;" />
 <path d="  M 43,50  L 42,50  L 42,52  L 43,52  Z  " style="fill:rgb(72, 0, 0); fill-opacity:1.000; stroke:none;" />
 <path d="  M 44,56  L 44,55  L 43,55  L 43,56  Z  " style="fill:rgb(72, 0, 0); fill-opacity:1.000; stroke:none;" />
 <path d="  M 44,59  L 45,59  L 45,56  L 44,56  Z  " style="fill:rgb(72, 0, 0); fill-opacity:1.000; stroke:none;" />
 <path d="  M 45,64  L 46,64  L 46,60  L 45,60  Z  " style="fill:rgb(72, 0, 0); fill-opacity:1.000; stroke:none;" />
 <path d="  M 54,64  L 55,64  L 55,56  L 54,56  Z  " style="fill:rgb(72, 0, 0); fill-opacity:1.000; stroke:none;" />
 <path d="  M 56,51  L 55,51  L 55,56  L 56,56  Z  " style="fill:rgb(72, 0, 0); fill-opacity:1.000; stroke:none;" />
 <path d="  M 56,51  L 57,51  L 57,47  L 56,47  Z  " style="fill:rgb(72, 0, 0); fill-opacity:1.000; stroke:none;" />
 <path d="  M 57,47  L 58,47  L 58,44  L 57,44  Z  " style="fill:rgb(72, 0, 0); fill-opacity:1.000; stroke:none;" />
 <path d="  M 58,44  L 59,44  L 59,40  L 58,40  Z  " style="fill:rgb(72, 0, 0); fill-opacity:1.000; stroke:none;" />
 <path d="  M 61,35  L 60,35  L 60,37  L 61,37  Z  " style="fill:rgb(72, 0, 0); fill-opacity:1.000; stroke:none;" />
 <path d="  M 61,35  L 62,35  L 62,34  L 61,34  Z  " style="fill:rgb(72, 0, 0); fill-opacity:1.000; stroke:none;" />
 <path d="  M 63,32  L 62,32  L 62,34  L 63,34  Z  " style="fill:rgb(72, 0, 0); fill-opacity:1.000; stroke:none;" />
 <path d="  M 63,25  L 63,26  L 64,26  L 64,25  Z  " style="fill:rgb(72, 0, 0); fill-opacity:1.000; stroke:none;" />
 <path d="  M 64,29  L 63,29  L 63,32  L 64,32  Z  " style="fill:rgb(72, 0, 0); fill-opacity:1.000; stroke:none;" />
 <path d="  M 1,28  L 2,28  L 2,30  L 3,30  L 3,31  L 4,31  L 4,32  L 5,32  L 5,33  L 6,33  L 6,32  L 7,32  L 7,31  L 6,31  L 6,30  L 4,30  L 4,29  L 3,29  L 3,28  L 4,28  L 4,27  L 3,27  L 3,26  L 2,26  L 2,25  L 3,25  L 3,24  L 4,24  L 4,23  L 3,23  L 3,22  L 2,22  L 2,20  L 1,20  Z  " style="fill:rgb(115, 4, 8); fill-opacity:1.000; stroke:none;" />
 <path d="  M 1,50  L 2,50  L 2,46  L 1,46  Z  " style="fill:rgb(115, 4, 8); fill-opacity:1.000; stroke:none;" />
 <path d="  M 3,20  L 3,18  L 2,18  L 2,20  Z  " style="fill:rgb(115, 4, 8); fill-opacity:1.000; stroke:none;" />
 <path d="  M 3,46  L 3,44  L 2,44  L 2,46  Z  " style="fill:rgb(115, 4, 8); fill-opacity:1.000; stroke:none;" />
 <path d="  M 3,50  L 2,50  L 2,52  L 3,52  Z  " style="fill:rgb(115, 4, 8); fill-opacity:1.000; stroke:none;" />
 <path d="  M 4,17  L 3,17  L 3,18  L 4,18  Z  " style="fill:rgb(115, 4, 8); fill-opacity:1.000; stroke:none;" />
 <path d="  M 4,22  L 4,21  L 3,21  L 3,22  Z  " style="fill:rgb(115, 4, 8); fill-opacity:1.000; stroke:none;" />
 <path d="  M 4,44  L 4,43  L 3,43  L 3,44  Z  " style="fill:rgb(115, 4, 8); fill-opacity:1.000; stroke:none;" />
 <path d="  M 8,49  L 6,49  L 6,48  L 5,48  L 5,49  L 4,49  L 4,50  L 5,50  L 5,51  L 4,51  L 4,52  L 3,52  L 3,53  L 4,53  L 4,54  L 5,54  L 5,55  L 6,55  L 6,56  L 7,56  L 7,57  L 8,57  Z  " style="fill:rgb(115, 4, 8); fill-opacity:1.000; stroke:none;" />
 <path d="  M 4,16  L 4,17  L 5,17  L 5,16  Z  " style="fill:rgb(115, 4, 8); fill-opacity:1.000; stroke:none;" />
 <path d="  M 4,42  L 4,43  L 6,43  L 6,42  Z  " style="fill:rgb(115, 4, 8); fill-opacity:1.000; stroke:none;" />
 <path d="  M 5,15  L 5,16  L 6,16  L 6,15  Z  " style="fill:rgb(115, 4, 8); fill-opacity:1.000; stroke:none;" />
 <path d="  M 7,15  L 7,14  L 6,14  L 6,15  Z  " style="fill:rgb(115, 4, 8); fill-opacity:1.000; stroke:none;" />
 <path d="  M 7,34  L 7,33  L 6,33  L 6,34  Z  " style="fill:rgb(115, 4, 8); fill-opacity:1.000; stroke:none;" />
 <path d="  M 8,42  L 8,41  L 6,41  L 6,42  Z  " style="fill:rgb(115, 4, 8); fill-opacity:1.000; stroke:none;" />
 <path d="  M 6,43  L 6,44  L 7,44  L 7,43  Z  " style="fill:rgb(115, 4, 8); fill-opacity:1.000; stroke:none;" />
 <path d="  M 6,48  L 7,48  L 7,47  L 6,47  Z  " style="fill:rgb(115, 4, 8); fill-opacity:1.000; stroke:none;" />
 <path d="  M 7,13  L 7,14  L 8,14  L 8,13  Z  " style="fill:rgb(115, 4, 8); fill-opacity:1.000; stroke:none;" />
 <path d="  M 7,30  L 7,31  L 8,31  L 8,30  Z  " style="fill:rgb(115, 4, 8); fill-opacity:1.000; stroke:none;" />
 <path d="  M 8,34  L 7,34  L 7,35  L 8,35  Z  " style="fill:rgb(115, 4, 8); fill-opacity:1.000; stroke:none;" />
 <path d="  M 10,12  L 8,12  L 8,13  L 10,13  Z  " style="fill:rgb(115, 4, 8); fill-opacity:1.000; stroke:none;" />
 <path d="  M 8,34  L 9,34  L 9,33  L 8,33  Z  " style="fill:rgb(115, 4, 8); fill-opacity:1.000; stroke:none;" />
 <path d="  M 8,37  L 9,37  L 9,35  L 8,35  Z  " style="fill:rgb(115, 4, 8); fill-opacity:1.000; stroke:none;" />
 <path d="  M 12,39  L 12,38  L 10,38  L 10,37  L 9,37  L 9,46  L 11,46  L 11,47  L 13,47  L 13,46  L 12,46  L 12,45  L 13,45  L 13,44  L 14,44  L 14,41  L 15,41  L 15,40  L 14,40  L 14,39  Z  " style="fill:rgb(115, 4, 8); fill-opacity:1.000; stroke:none;" />
 <path d="  M 30,28  L 30,26  L 31,26  L 31,20  L 30,20  L 30,18  L 29,18  L 29,17  L 28,17  L 28,16  L 27,16  L 27,15  L 26,15  L 26,16  L 25,16  L 25,17  L 27,17  L 27,18  L 28,18  L 28,20  L 29,20  L 29,23  L 28,23  L 28,26  L 27,26  L 27,28  L 25,28  L 25,29  L 24,29  L 24,30  L 23,30  L 23,31  L 25,31  L 25,32  L 24,32  L 24,33  L 23,33  L 23,32  L 21,32  L 21,33  L 20,33  L 20,35  L 19,35  L 19,36  L 21,36  L 21,37  L 20,37  L 20,39  L 21,39  L 21,38  L 22,38  L 22,40  L 21,40  L 21,41  L 20,41  L 20,44  L 19,44  L 19,46  L 18,46  L 18,47  L 17,47  L 17,48  L 18,48  L 18,49  L 19,49  L 19,48  L 20,48  L 20,50  L 19,50  L 19,51  L 17,51  L 17,52  L 15,52  L 15,53  L 14,53  L 14,52  L 13,52  L 13,50  L 12,50  L 12,51  L 11,51  L 11,52  L 10,52  L 10,53  L 9,53  L 9,57  L 11,57  L 11,56  L 10,56  L 10,55  L 12,55  L 12,54  L 16,54  L 16,55  L 18,55  L 18,54  L 20,54  L 20,53  L 21,53  L 21,52  L 23,52  L 23,37  L 24,37  L 24,35  L 25,35  L 25,34  L 26,34  L 26,33  L 27,33  L 27,32  L 28,32  L 28,30  L 29,30  L 29,28  Z  M 12,53  L 11,53  L 11,52  L 12,52  Z  M 21,35  L 21,34  L 22,34  L 22,35  Z  M 22,33  L 23,33  L 23,34  L 22,34  Z  M 30,24  L 29,24  L 29,23  L 30,23  Z  M 17,54  L 16,54  L 16,53  L 17,53  Z  M 26,31  L 25,31  L 25,30  L 26,30  Z  " style="fill:rgb(115, 4, 8); fill-opacity:1.000; stroke:none;" />
 <path d="  M 12,11  L 10,11  L 10,12  L 12,12  Z  " style="fill:rgb(115, 4, 8); fill-opacity:1.000; stroke:none;" />
 <path d="  M 11,48  L 11,47  L 10,47  L 10,48  Z  " style="fill:rgb(115, 4, 8); fill-opacity:1.000; stroke:none;" />
 <path d="  M 12,38  L 13,38  L 13,37  L 12,37  Z  " style="fill:rgb(115, 4, 8); fill-opacity:1.000; stroke:none;" />
 <path d="  M 12,57  L 12,58  L 13,58  L 13,57  Z  " style="fill:rgb(115, 4, 8); fill-opacity:1.000; stroke:none;" />
 <path d="  M 14,45  L 13,45  L 13,46  L 14,46  Z  " style="fill:rgb(115, 4, 8); fill-opacity:1.000; stroke:none;" />
 <path d="  M 13,57  L 15,57  L 15,55  L 14,55  L 14,56  L 13,56  Z  " style="fill:rgb(115, 4, 8); fill-opacity:1.000; stroke:none;" />
 <path d="  M 15,59  L 16,59  L 16,58  L 15,58  Z  " style="fill:rgb(115, 4, 8); fill-opacity:1.000; stroke:none;" />
 <path d="  M 17,50  L 18,50  L 18,49  L 17,49  Z  " style="fill:rgb(115, 4, 8); fill-opacity:1.000; stroke:none;" />
 <path d="  M 18,58  L 18,57  L 17,57  L 17,58  Z  " style="fill:rgb(115, 4, 8); fill-opacity:1.000; stroke:none;" />
 <path d="  M 18,37  L 19,37  L 19,36  L 18,36  Z  " style="fill:rgb(115, 4, 8); fill-opacity:1.000; stroke:none;" />
 <path d="  M 22,55  L 22,54  L 20,54  L 20,55  L 19,55  L 19,56  L 18,56  L 18,57  L 20,57  L 20,56  L 21,56  L 21,55  Z  " style="fill:rgb(115, 4, 8); fill-opacity:1.000; stroke:none;" />
 <path d="  M 22,12  L 22,11  L 20,11  L 20,12  Z  " style="fill:rgb(115, 4, 8); fill-opacity:1.000; stroke:none;" />
 <path d="  M 22,12  L 22,13  L 24,13  L 24,12  Z  " style="fill:rgb(115, 4, 8); fill-opacity:1.000; stroke:none;" />
 <path d="  M 22,53  L 22,54  L 23,54  L 23,53  Z  " style="fill:rgb(115, 4, 8); fill-opacity:1.000; stroke:none;" />
 <path d="  M 24,13  L 24,14  L 25,14  L 25,13  Z  " style="fill:rgb(115, 4, 8); fill-opacity:1.000; stroke:none;" />
 <path d="  M 25,15  L 26,15  L 26,14  L 25,14  Z  " style="fill:rgb(115, 4, 8); fill-opacity:1.000; stroke:none;" />
 <path d="  M 26,42  L 25,42  L 25,50  L 26,50  Z  " style="fill:rgb(115, 4, 8); fill-opacity:1.000; stroke:none;" />
 <path d="  M 33,49  L 33,50  L 34,50  L 34,51  L 33,51  L 33,52  L 31,52  L 31,53  L 28,53  L 28,54  L 29,54  L 29,57  L 30,57  L 30,56  L 31,56  L 31,57  L 33,57  L 33,58  L 32,58  L 32,59  L 33,59  L 33,60  L 34,60  L 34,58  L 35,58  L 35,59  L 36,59  L 36,57  L 35,57  L 35,56  L 36,56  L 36,55  L 38,55  L 38,54  L 39,54  L 39,53  L 41,53  L 41,52  L 42,52  L 42,50  L 43,50  L 43,42  L 42,42  L 42,40  L 41,40  L 41,39  L 40,39  L 40,38  L 38,38  L 38,37  L 30,37  L 30,38  L 28,38  L 28,39  L 27,39  L 27,40  L 26,40  L 26,42  L 27,42  L 27,41  L 28,41  L 28,40  L 29,40  L 29,39  L 32,39  L 32,38  L 34,38  L 34,39  L 36,39  L 36,40  L 37,40  L 37,39  L 38,39  L 38,40  L 39,40  L 39,41  L 38,41  L 38,43  L 39,43  L 39,44  L 38,44  L 38,45  L 37,45  L 37,46  L 36,46  L 36,47  L 37,47  L 37,48  L 36,48  L 36,49  L 35,49  L 35,48  L 34,48  L 34,49  Z  M 40,42  L 40,43  L 39,43  L 39,42  Z  M 38,49  L 39,49  L 39,50  L 38,50  Z  M 35,55  L 35,54  L 36,54  L 36,55  Z  M 37,51  L 37,52  L 36,52  L 36,50  L 38,50  L 38,51  Z  " style="fill:rgb(115, 4, 8); fill-opacity:1.000; stroke:none;" />
 <path d="  M 27,52  L 27,51  L 26,51  L 26,52  Z  " style="fill:rgb(115, 4, 8); fill-opacity:1.000; stroke:none;" />
 <path d="  M 27,53  L 28,53  L 28,52  L 27,52  Z  " style="fill:rgb(115, 4, 8); fill-opacity:1.000; stroke:none;" />
 <path d="  M 29,60  L 30,60  L 30,58  L 29,58  Z  " style="fill:rgb(115, 4, 8); fill-opacity:1.000; stroke:none;" />
 <path d="  M 31,57  L 30,57  L 30,58  L 31,58  Z  " style="fill:rgb(115, 4, 8); fill-opacity:1.000; stroke:none;" />
 <path d="  M 32,40  L 33,40  L 33,39  L 32,39  Z  " style="fill:rgb(115, 4, 8); fill-opacity:1.000; stroke:none;" />
 <path d="  M 32,51  L 33,51  L 33,50  L 32,50  Z  " style="fill:rgb(115, 4, 8); fill-opacity:1.000; stroke:none;" />
 <path d="  M 36,46  L 36,45  L 35,45  L 35,46  Z  " style="fill:rgb(115, 4, 8); fill-opacity:1.000; stroke:none;" />
 <path d="  M 38,27  L 37,27  L 37,32  L 38,32  Z  " style="fill:rgb(115, 4, 8); fill-opacity:1.000; stroke:none;" />
 <path d="  M 38,22  L 39,22  L 39,20  L 38,20  Z  " style="fill:rgb(115, 4, 8); fill-opacity:1.000; stroke:none;" />
 <path d="  M 38,32  L 38,34  L 39,34  L 39,32  Z  " style="fill:rgb(115, 4, 8); fill-opacity:1.000; stroke:none;" />
 <path d="  M 40,18  L 39,18  L 39,20  L 40,20  Z  " style="fill:rgb(115, 4, 8); fill-opacity:1.000; stroke:none;" />
 <path d="  M 39,34  L 39,35  L 40,35  L 40,34  Z  " style="fill:rgb(115, 4, 8); fill-opacity:1.000; stroke:none;" />
 <path d="  M 40,17  L 40,18  L 41,18  L 41,17  Z  " style="fill:rgb(115, 4, 8); fill-opacity:1.000; stroke:none;" />
 <path d="  M 41,35  L 40,35  L 40,36  L 41,36  Z  " style="fill:rgb(115, 4, 8); fill-opacity:1.000; stroke:none;" />
 <path d="  M 41,16  L 41,17  L 42,17  L 42,16  Z  " style="fill:rgb(115, 4, 8); fill-opacity:1.000; stroke:none;" />
 <path d="  M 41,37  L 42,37  L 42,36  L 41,36  Z  " style="fill:rgb(115, 4, 8); fill-opacity:1.000; stroke:none;" />
 <path d="  M 42,16  L 43,16  L 43,15  L 42,15  Z  " style="fill:rgb(115, 4, 8); fill-opacity:1.000; stroke:none;" />
 <path d="  M 42,38  L 43,38  L 43,37  L 42,37  Z  " style="fill:rgb(115, 4, 8); fill-opacity:1.000; stroke:none;" />
 <path d="  M 44,14  L 43,14  L 43,15  L 44,15  Z  " style="fill:rgb(115, 4, 8); fill-opacity:1.000; stroke:none;" />
 <path d="  M 44,38  L 43,38  L 43,40  L 44,40  Z  " style="fill:rgb(115, 4, 8); fill-opacity:1.000; stroke:none;" />
 <path d="  M 46,13  L 44,13  L 44,14  L 46,14  Z  " style="fill:rgb(115, 4, 8); fill-opacity:1.000; stroke:none;" />
 <path d="  M 44,46  L 45,46  L 45,44  L 44,44  Z  " style="fill:rgb(115, 4, 8); fill-opacity:1.000; stroke:none;" />
 <path d="  M 44,48  L 45,48  L 45,47  L 44,47  Z  " style="fill:rgb(115, 4, 8); fill-opacity:1.000; stroke:none;" />
 <path d="  M 57,43  L 58,43  L 58,40  L 59,40  L 59,37  L 58,37  L 58,36  L 56,36  L 56,38  L 55,38  L 55,37  L 54,37  L 54,39  L 55,39  L 55,40  L 54,40  L 54,42  L 53,42  L 53,41  L 52,41  L 52,43  L 51,43  L 51,44  L 52,44  L 52,46  L 51,46  L 51,47  L 50,47  L 50,46  L 48,46  L 48,47  L 49,47  L 49,48  L 50,48  L 50,49  L 48,49  L 48,50  L 47,50  L 47,49  L 46,49  L 46,48  L 45,48  L 45,49  L 44,49  L 44,55  L 45,55  L 45,57  L 46,57  L 46,58  L 47,58  L 47,59  L 48,59  L 48,58  L 49,58  L 49,57  L 50,57  L 50,56  L 51,56  L 51,55  L 50,55  L 50,54  L 51,54  L 51,53  L 52,53  L 52,52  L 53,52  L 53,53  L 54,53  L 54,52  L 55,52  L 55,51  L 54,51  L 54,49  L 55,49  L 55,48  L 56,48  L 56,46  L 57,46  Z  M 49,57  L 48,57  L 48,56  L 49,56  Z  " style="fill:rgb(115, 4, 8); fill-opacity:1.000; stroke:none;" />
 <path d="  M 45,46  L 45,47  L 46,47  L 46,46  Z  " style="fill:rgb(115, 4, 8); fill-opacity:1.000; stroke:none;" />
 <path d="  M 48,13  L 48,12  L 46,12  L 46,13  Z  " style="fill:rgb(115, 4, 8); fill-opacity:1.000; stroke:none;" />
 <path d="  M 47,49  L 48,49  L 48,48  L 47,48  Z  " style="fill:rgb(115, 4, 8); fill-opacity:1.000; stroke:none;" />
 <path d="  M 50,45  L 50,46  L 51,46  L 51,45  Z  " style="fill:rgb(115, 4, 8); fill-opacity:1.000; stroke:none;" />
 <path d="  M 52,53  L 52,54  L 53,54  L 53,53  Z  " style="fill:rgb(115, 4, 8); fill-opacity:1.000; stroke:none;" />
 <path d="  M 53,39  L 53,40  L 54,40  L 54,39  Z  " style="fill:rgb(115, 4, 8); fill-opacity:1.000; stroke:none;" />
 <path d="  M 63,25  L 62,25  L 62,29  L 61,29  L 61,31  L 60,31  L 60,32  L 59,32  L 59,33  L 58,33  L 58,34  L 59,34  L 59,35  L 58,35  L 58,36  L 59,36  L 59,37  L 60,37  L 60,35  L 61,35  L 61,34  L 62,34  L 62,32  L 63,32  Z  M 61,32  L 61,33  L 60,33  L 60,32  Z  " style="fill:rgb(115, 4, 8); fill-opacity:1.000; stroke:none;" />
 <path d="  M 62,20  L 60,20  L 60,21  L 61,21  L 61,22  L 62,22  Z  " style="fill:rgb(115, 4, 8); fill-opacity:1.000; stroke:none;" />
 <path d="  M 63,22  L 62,22  L 62,23  L 61,23  L 61,25  L 62,25  L 62,24  L 63,24  Z  " style="fill:rgb(115, 4, 8); fill-opacity:1.000; stroke:none;" />
 <path d="  M 6,16  L 5,16  L 5,17  L 4,17  L 4,18  L 3,18  L 3,20  L 2,20  L 2,22  L 3,22  L 3,21  L 4,21  L 4,19  L 5,19  L 5,18  L 6,18  Z  " style="fill:rgb(131, 28, 32); fill-opacity:1.000; stroke:none;" />
 <path d="  M 6,29  L 5,29  L 5,28  L 6,28  Z  M 4,24  L 3,24  L 3,25  L 2,25  L 2,26  L 3,26  L 3,27  L 4,27  L 4,28  L 3,28  L 3,29  L 4,29  L 4,30  L 6,30  L 6,31  L 7,31  L 7,30  L 8,30  L 8,29  L 7,29  L 7,28  L 6,28  L 6,27  L 5,27  L 5,26  L 4,26  Z  " style="fill:rgb(131, 28, 32); fill-opacity:1.000; stroke:none;" />
 <path d="  M 3,49  L 3,46  L 2,46  L 2,50  L 3,50  L 3,52  L 4,52  L 4,51  L 5,51  L 5,50  L 4,50  L 4,49  Z  " style="fill:rgb(131, 28, 32); fill-opacity:1.000; stroke:none;" />
 <path d="  M 4,22  L 3,22  L 3,23  L 4,23  L 4,24  L 5,24  L 5,21  L 4,21  Z  " style="fill:rgb(131, 28, 32); fill-opacity:1.000; stroke:none;" />
 <path d="  M 3,46  L 4,46  L 4,45  L 5,45  L 5,44  L 6,44  L 6,43  L 4,43  L 4,44  L 3,44  Z  " style="fill:rgb(131, 28, 32); fill-opacity:1.000; stroke:none;" />
 <path d="  M 8,49  L 8,42  L 6,42  L 6,43  L 7,43  L 7,44  L 6,44  L 6,45  L 5,45  L 5,47  L 4,47  L 4,49  L 5,49  L 5,48  L 6,48  L 6,49  Z  M 7,47  L 7,48  L 6,48  L 6,47  Z  " style="fill:rgb(131, 28, 32); fill-opacity:1.000; stroke:none;" />
 <path d="  M 6,20  L 5,20  L 5,21  L 6,21  Z  " style="fill:rgb(131, 28, 32); fill-opacity:1.000; stroke:none;" />
 <path d="  M 6,16  L 7,16  L 7,15  L 6,15  Z  " style="fill:rgb(131, 28, 32); fill-opacity:1.000; stroke:none;" />
 <path d="  M 6,18  L 6,19  L 7,19  L 7,18  Z  " style="fill:rgb(131, 28, 32); fill-opacity:1.000; stroke:none;" />
 <path d="  M 10,33  L 11,33  L 11,32  L 10,32  L 10,31  L 9,31  L 9,30  L 8,30  L 8,31  L 7,31  L 7,32  L 6,32  L 6,33  L 7,33  L 7,34  L 8,34  L 8,33  L 9,33  L 9,34  L 10,34  Z  " style="fill:rgb(131, 28, 32); fill-opacity:1.000; stroke:none;" />
 <path d="  M 8,15  L 8,14  L 7,14  L 7,15  Z  " style="fill:rgb(131, 28, 32); fill-opacity:1.000; stroke:none;" />
 <path d="  M 16,14  L 20,14  L 20,15  L 22,15  L 22,14  L 21,14  L 21,13  L 22,13  L 22,12  L 20,12  L 20,11  L 12,11  L 12,12  L 10,12  L 10,13  L 8,13  L 8,14  L 9,14  L 9,15  L 10,15  L 10,14  L 12,14  L 12,13  L 13,13  L 13,14  L 14,14  L 14,13  L 16,13  Z  M 16,13  L 16,12  L 18,12  L 18,13  Z  " style="fill:rgb(131, 28, 32); fill-opacity:1.000; stroke:none;" />
 <path d="  M 9,15  L 8,15  L 8,16  L 9,16  Z  " style="fill:rgb(131, 28, 32); fill-opacity:1.000; stroke:none;" />
 <path d="  M 8,34  L 8,35  L 9,35  L 9,34  Z  " style="fill:rgb(131, 28, 32); fill-opacity:1.000; stroke:none;" />
 <path d="  M 10,37  L 10,38  L 12,38  L 12,37  L 13,37  L 13,36  L 12,36  L 12,34  L 10,34  L 10,35  L 9,35  L 9,37  Z  " style="fill:rgb(131, 28, 32); fill-opacity:1.000; stroke:none;" />
 <path d="  M 13,52  L 14,52  L 14,53  L 15,53  L 15,52  L 17,52  L 17,51  L 19,51  L 19,50  L 20,50  L 20,48  L 19,48  L 19,49  L 18,49  L 18,48  L 17,48  L 17,47  L 18,47  L 18,46  L 19,46  L 19,44  L 20,44  L 20,41  L 21,41  L 21,40  L 22,40  L 22,38  L 21,38  L 21,39  L 20,39  L 20,37  L 21,37  L 21,36  L 19,36  L 19,37  L 18,37  L 18,36  L 17,36  L 17,37  L 16,37  L 16,38  L 14,38  L 14,37  L 13,37  L 13,38  L 12,38  L 12,39  L 14,39  L 14,40  L 15,40  L 15,41  L 14,41  L 14,44  L 13,44  L 13,45  L 14,45  L 14,46  L 13,46  L 13,47  L 11,47  L 11,46  L 9,46  L 9,53  L 10,53  L 10,52  L 11,52  L 11,51  L 12,51  L 12,50  L 13,50  Z  M 11,47  L 11,48  L 10,48  L 10,47  Z  M 17,49  L 18,49  L 18,50  L 17,50  Z  " style="fill:rgb(131, 28, 32); fill-opacity:1.000; stroke:none;" />
 <path d="  M 12,53  L 12,52  L 11,52  L 11,53  Z  " style="fill:rgb(131, 28, 32); fill-opacity:1.000; stroke:none;" />
 <path d="  M 12,33  L 12,34  L 13,34  L 13,33  Z  " style="fill:rgb(131, 28, 32); fill-opacity:1.000; stroke:none;" />
 <path d="  M 12,45  L 12,46  L 13,46  L 13,45  Z  " style="fill:rgb(131, 28, 32); fill-opacity:1.000; stroke:none;" />
 <path d="  M 21,28  L 21,29  L 22,29  L 22,30  L 21,30  L 21,31  L 20,31  L 20,32  L 19,32  L 19,34  L 18,34  L 18,36  L 19,36  L 19,35  L 20,35  L 20,33  L 21,33  L 21,32  L 23,32  L 23,33  L 24,33  L 24,32  L 25,32  L 25,31  L 23,31  L 23,30  L 24,30  L 24,29  L 25,29  L 25,28  L 27,28  L 27,26  L 28,26  L 28,23  L 29,23  L 29,20  L 28,20  L 28,18  L 27,18  L 27,17  L 25,17  L 25,19  L 26,19  L 26,20  L 27,20  L 27,22  L 26,22  L 26,23  L 27,23  L 27,24  L 26,24  L 26,26  L 25,26  L 25,27  L 24,27  L 24,28  L 23,28  L 23,27  L 22,27  L 22,28  Z  " style="fill:rgb(131, 28, 32); fill-opacity:1.000; stroke:none;" />
 <path d="  M 21,29  L 20,29  L 20,30  L 21,30  Z  " style="fill:rgb(131, 28, 32); fill-opacity:1.000; stroke:none;" />
 <path d="  M 21,34  L 21,35  L 22,35  L 22,34  Z  " style="fill:rgb(131, 28, 32); fill-opacity:1.000; stroke:none;" />
 <path d="  M 22,13  L 22,14  L 24,14  L 24,13  Z  " style="fill:rgb(131, 28, 32); fill-opacity:1.000; stroke:none;" />
 <path d="  M 23,15  L 22,15  L 22,16  L 23,16  Z  " style="fill:rgb(131, 28, 32); fill-opacity:1.000; stroke:none;" />
 <path d="  M 22,33  L 22,34  L 23,34  L 23,33  Z  " style="fill:rgb(131, 28, 32); fill-opacity:1.000; stroke:none;" />
 <path d="  M 24,14  L 24,16  L 23,16  L 23,17  L 25,17  L 25,16  L 26,16  L 26,15  L 25,15  L 25,14  Z  " style="fill:rgb(131, 28, 32); fill-opacity:1.000; stroke:none;" />
 <path d="  M 25,20  L 25,19  L 24,19  L 24,20  Z  " style="fill:rgb(131, 28, 32); fill-opacity:1.000; stroke:none;" />
 <path d="  M 25,20  L 25,21  L 26,21  L 26,20  Z  " style="fill:rgb(131, 28, 32); fill-opacity:1.000; stroke:none;" />
 <path d="  M 26,23  L 25,23  L 25,24  L 26,24  Z  " style="fill:rgb(131, 28, 32); fill-opacity:1.000; stroke:none;" />
 <path d="  M 26,30  L 25,30  L 25,31  L 26,31  Z  " style="fill:rgb(131, 28, 32); fill-opacity:1.000; stroke:none;" />
 <path d="  M 29,42  L 31,42  L 31,41  L 32,41  L 32,39  L 29,39  L 29,40  L 28,40  L 28,41  L 27,41  L 27,42  L 26,42  L 26,44  L 27,44  L 27,43  L 29,43  Z  " style="fill:rgb(131, 28, 32); fill-opacity:1.000; stroke:none;" />
 <path d="  M 30,50  L 30,49  L 31,49  L 31,50  Z  M 29,44  L 29,45  L 28,45  L 28,46  L 27,46  L 27,45  L 26,45  L 26,51  L 27,51  L 27,52  L 28,52  L 28,53  L 31,53  L 31,52  L 33,52  L 33,51  L 32,51  L 32,50  L 33,50  L 33,49  L 34,49  L 34,48  L 35,48  L 35,49  L 36,49  L 36,48  L 37,48  L 37,47  L 36,47  L 36,46  L 37,46  L 37,45  L 38,45  L 38,44  L 39,44  L 39,43  L 38,43  L 38,41  L 39,41  L 39,40  L 38,40  L 38,39  L 37,39  L 37,40  L 36,40  L 36,41  L 34,41  L 34,42  L 33,42  L 33,43  L 32,43  L 32,42  L 31,42  L 31,44  Z  M 35,45  L 36,45  L 36,46  L 35,46  Z  M 29,49  L 29,47  L 30,47  L 30,49  Z  M 31,44  L 32,44  L 32,45  L 31,45  Z  M 29,47  L 28,47  L 28,46  L 29,46  Z  " style="fill:rgb(131, 28, 32); fill-opacity:1.000; stroke:none;" />
 <path d="  M 29,23  L 29,24  L 30,24  L 30,23  Z  " style="fill:rgb(131, 28, 32); fill-opacity:1.000; stroke:none;" />
 <path d="  M 36,40  L 36,39  L 34,39  L 34,38  L 32,38  L 32,39  L 33,39  L 33,40  Z  " style="fill:rgb(131, 28, 32); fill-opacity:1.000; stroke:none;" />
 <path d="  M 34,50  L 33,50  L 33,51  L 34,51  Z  " style="fill:rgb(131, 28, 32); fill-opacity:1.000; stroke:none;" />
 <path d="  M 36,52  L 37,52  L 37,51  L 38,51  L 38,50  L 36,50  Z  " style="fill:rgb(131, 28, 32); fill-opacity:1.000; stroke:none;" />
 <path d="  M 52,36  L 52,37  L 50,37  L 50,38  L 46,38  L 46,36  L 44,36  L 44,35  L 43,35  L 43,34  L 44,34  L 44,33  L 42,33  L 42,32  L 40,32  L 40,31  L 39,31  L 39,28  L 40,28  L 40,25  L 39,25  L 39,23  L 40,23  L 40,21  L 41,21  L 41,20  L 42,20  L 42,18  L 43,18  L 43,19  L 44,19  L 44,18  L 45,18  L 45,17  L 44,17  L 44,16  L 47,16  L 47,15  L 46,15  L 46,14  L 44,14  L 44,15  L 43,15  L 43,16  L 42,16  L 42,17  L 41,17  L 41,18  L 40,18  L 40,20  L 39,20  L 39,22  L 38,22  L 38,24  L 37,24  L 37,27  L 38,27  L 38,32  L 39,32  L 39,34  L 40,34  L 40,35  L 41,35  L 41,36  L 42,36  L 42,37  L 43,37  L 43,38  L 44,38  L 44,44  L 45,44  L 45,46  L 46,46  L 46,47  L 45,47  L 45,48  L 46,48  L 46,49  L 47,49  L 47,48  L 48,48  L 48,49  L 50,49  L 50,48  L 49,48  L 49,47  L 48,47  L 48,46  L 50,46  L 50,45  L 51,45  L 51,46  L 52,46  L 52,44  L 51,44  L 51,43  L 52,43  L 52,41  L 53,41  L 53,42  L 54,42  L 54,40  L 53,40  L 53,39  L 54,39  L 54,37  L 55,37  L 55,38  L 56,38  L 56,36  L 58,36  L 58,35  L 59,35  L 59,34  L 58,34  L 58,33  L 59,33  L 59,32  L 60,32  L 60,31  L 61,31  L 61,29  L 62,29  L 62,25  L 61,25  L 61,23  L 62,23  L 62,22  L 61,22  L 61,21  L 60,21  L 60,20  L 61,20  L 61,19  L 60,19  L 60,18  L 59,18  L 59,17  L 58,17  L 58,16  L 57,16  L 57,15  L 56,15  L 56,14  L 55,14  L 55,15  L 54,15  L 54,16  L 56,16  L 56,17  L 57,17  L 57,18  L 58,18  L 58,19  L 59,19  L 59,20  L 58,20  L 58,21  L 59,21  L 59,23  L 60,23  L 60,24  L 59,24  L 59,25  L 58,25  L 58,26  L 59,26  L 59,27  L 60,27  L 60,29  L 59,29  L 59,31  L 58,31  L 58,32  L 57,32  L 57,33  L 56,33  L 56,35  L 55,35  L 55,36  Z  M 42,33  L 42,34  L 41,34  L 41,33  Z  M 38,26  L 38,25  L 39,25  L 39,26  Z  " style="fill:rgb(131, 28, 32); fill-opacity:1.000; stroke:none;" />
 <path d="  M 38,50  L 39,50  L 39,49  L 38,49  Z  " style="fill:rgb(131, 28, 32); fill-opacity:1.000; stroke:none;" />
 <path d="  M 40,42  L 39,42  L 39,43  L 40,43  Z  " style="fill:rgb(131, 28, 32); fill-opacity:1.000; stroke:none;" />
 <path d="  M 41,31  L 41,30  L 40,30  L 40,31  Z  " style="fill:rgb(131, 28, 32); fill-opacity:1.000; stroke:none;" />
 <path d="  M 45,19  L 44,19  L 44,20  L 45,20  Z  " style="fill:rgb(131, 28, 32); fill-opacity:1.000; stroke:none;" />
 <path d="  M 44,47  L 45,47  L 45,46  L 44,46  Z  " style="fill:rgb(131, 28, 32); fill-opacity:1.000; stroke:none;" />
 <path d="  M 45,49  L 45,48  L 44,48  L 44,49  Z  " style="fill:rgb(131, 28, 32); fill-opacity:1.000; stroke:none;" />
 <path d="  M 46,14  L 48,14  L 48,15  L 50,15  L 50,16  L 52,16  L 52,15  L 54,15  L 54,13  L 46,13  Z  M 50,14  L 51,14  L 51,15  L 50,15  Z  " style="fill:rgb(131, 28, 32); fill-opacity:1.000; stroke:none;" />
 <path d="  M 48,50  L 48,49  L 47,49  L 47,50  Z  " style="fill:rgb(131, 28, 32); fill-opacity:1.000; stroke:none;" />
 <path d="  M 50,46  L 50,47  L 51,47  L 51,46  Z  " style="fill:rgb(131, 28, 32); fill-opacity:1.000; stroke:none;" />
 <path d="  M 55,35  L 55,34  L 54,34  L 54,35  Z  " style="fill:rgb(131, 28, 32); fill-opacity:1.000; stroke:none;" />
 <path d="  M 55,39  L 54,39  L 54,40  L 55,40  Z  " style="fill:rgb(131, 28, 32); fill-opacity:1.000; stroke:none;" />
 <path d="  M 57,18  L 56,18  L 56,19  L 57,19  Z  " style="fill:rgb(131, 28, 32); fill-opacity:1.000; stroke:none;" />
 <path d="  M 58,27  L 58,28  L 59,28  L 59,27  Z  " style="fill:rgb(131, 28, 32); fill-opacity:1.000; stroke:none;" />
 <path d="  M 58,37  L 59,37  L 59,36  L 58,36  Z  " style="fill:rgb(131, 28, 32); fill-opacity:1.000; stroke:none;" />
 <path d="  M 60,32  L 60,33  L 61,33  L 61,32  Z  " style="fill:rgb(131, 28, 32); fill-opacity:1.000; stroke:none;" />
 <path d="  M 62,25  L 63,25  L 63,24  L 62,24  Z  " style="fill:rgb(131, 28, 32); fill-opacity:1.000; stroke:none;" />
 <path d="  M 3,49  L 4,49  L 4,47  L 5,47  L 5,45  L 4,45  L 4,46  L 3,46  Z  " style="fill:rgb(164, 36, 41); fill-opacity:1.000; stroke:none;" />
 <path d="  M 12,36  L 13,36  L 13,37  L 14,37  L 14,38  L 16,38  L 16,37  L 17,37  L 17,36  L 18,36  L 18,34  L 19,34  L 19,32  L 20,32  L 20,31  L 21,31  L 21,30  L 20,30  L 20,29  L 21,29  L 21,28  L 22,28  L 22,27  L 23,27  L 23,28  L 24,28  L 24,27  L 25,27  L 25,26  L 26,26  L 26,24  L 25,24  L 25,23  L 26,23  L 26,22  L 27,22  L 27,20  L 26,20  L 26,21  L 25,21  L 25,20  L 24,20  L 24,19  L 25,19  L 25,17  L 23,17  L 23,16  L 22,16  L 22,15  L 20,15  L 20,14  L 18,14  L 18,15  L 15,15  L 15,16  L 14,16  L 14,17  L 12,17  L 12,16  L 11,16  L 11,17  L 9,17  L 9,16  L 8,16  L 8,15  L 7,15  L 7,16  L 6,16  L 6,18  L 5,18  L 5,19  L 4,19  L 4,21  L 5,21  L 5,24  L 4,24  L 4,26  L 5,26  L 5,27  L 6,27  L 6,28  L 7,28  L 7,29  L 8,29  L 8,30  L 9,30  L 9,31  L 10,31  L 10,32  L 11,32  L 11,33  L 10,33  L 10,34  L 12,34  Z  M 23,22  L 22,22  L 22,23  L 21,23  L 21,24  L 20,24  L 20,22  L 21,22  L 21,21  L 22,21  L 22,18  L 23,18  Z  M 10,25  L 11,25  L 11,26  L 10,26  Z  M 22,18  L 21,18  L 21,17  L 22,17  Z  M 12,33  L 13,33  L 13,34  L 12,34  Z  M 5,21  L 5,20  L 6,20  L 6,21  Z  M 8,24  L 8,22  L 9,22  L 9,23  L 10,23  L 10,25  L 9,25  L 9,24  Z  M 6,19  L 6,18  L 7,18  L 7,19  Z  M 19,22  L 19,21  L 20,21  L 20,22  Z  M 8,18  L 8,17  L 9,17  L 9,18  Z  " style="fill:rgb(164, 36, 41); fill-opacity:1.000; stroke:none;" />
 <path d="  M 6,29  L 6,28  L 5,28  L 5,29  Z  " style="fill:rgb(164, 36, 41); fill-opacity:1.000; stroke:none;" />
 <path d="  M 5,45  L 6,45  L 6,44  L 5,44  Z  " style="fill:rgb(164, 36, 41); fill-opacity:1.000; stroke:none;" />
 <path d="  M 8,14  L 8,15  L 9,15  L 9,14  Z  " style="fill:rgb(164, 36, 41); fill-opacity:1.000; stroke:none;" />
 <path d="  M 14,15  L 14,14  L 13,14  L 13,13  L 12,13  L 12,14  L 10,14  L 10,15  L 9,15  L 9,16  L 11,16  L 11,15  Z  " style="fill:rgb(164, 36, 41); fill-opacity:1.000; stroke:none;" />
 <path d="  M 9,35  L 10,35  L 10,34  L 9,34  Z  " style="fill:rgb(164, 36, 41); fill-opacity:1.000; stroke:none;" />
 <path d="  M 16,14  L 16,13  L 14,13  L 14,14  Z  " style="fill:rgb(164, 36, 41); fill-opacity:1.000; stroke:none;" />
 <path d="  M 18,12  L 16,12  L 16,13  L 18,13  Z  " style="fill:rgb(164, 36, 41); fill-opacity:1.000; stroke:none;" />
 <path d="  M 21,14  L 22,14  L 22,13  L 21,13  Z  " style="fill:rgb(164, 36, 41); fill-opacity:1.000; stroke:none;" />
 <path d="  M 22,30  L 22,29  L 21,29  L 21,30  Z  " style="fill:rgb(164, 36, 41); fill-opacity:1.000; stroke:none;" />
 <path d="  M 24,16  L 24,14  L 22,14  L 22,15  L 23,15  L 23,16  Z  " style="fill:rgb(164, 36, 41); fill-opacity:1.000; stroke:none;" />
 <path d="  M 26,20  L 26,19  L 25,19  L 25,20  Z  " style="fill:rgb(164, 36, 41); fill-opacity:1.000; stroke:none;" />
 <path d="  M 26,24  L 27,24  L 27,23  L 26,23  Z  " style="fill:rgb(164, 36, 41); fill-opacity:1.000; stroke:none;" />
 <path d="  M 29,42  L 29,43  L 27,43  L 27,44  L 26,44  L 26,45  L 27,45  L 27,46  L 28,46  L 28,45  L 29,45  L 29,44  L 31,44  L 31,42  Z  " style="fill:rgb(164, 36, 41); fill-opacity:1.000; stroke:none;" />
 <path d="  M 28,46  L 28,47  L 29,47  L 29,46  Z  " style="fill:rgb(164, 36, 41); fill-opacity:1.000; stroke:none;" />
 <path d="  M 29,47  L 29,49  L 30,49  L 30,47  Z  " style="fill:rgb(164, 36, 41); fill-opacity:1.000; stroke:none;" />
 <path d="  M 30,50  L 31,50  L 31,49  L 30,49  Z  " style="fill:rgb(164, 36, 41); fill-opacity:1.000; stroke:none;" />
 <path d="  M 32,40  L 32,41  L 31,41  L 31,42  L 32,42  L 32,43  L 33,43  L 33,42  L 34,42  L 34,41  L 36,41  L 36,40  Z  " style="fill:rgb(164, 36, 41); fill-opacity:1.000; stroke:none;" />
 <path d="  M 32,44  L 31,44  L 31,45  L 32,45  Z  " style="fill:rgb(164, 36, 41); fill-opacity:1.000; stroke:none;" />
 <path d="  M 39,26  L 39,25  L 38,25  L 38,26  Z  " style="fill:rgb(164, 36, 41); fill-opacity:1.000; stroke:none;" />
 <path d="  M 43,28  L 43,29  L 42,29  L 42,28  Z  M 50,15  L 48,15  L 48,14  L 46,14  L 46,15  L 47,15  L 47,16  L 44,16  L 44,17  L 45,17  L 45,18  L 44,18  L 44,19  L 43,19  L 43,18  L 42,18  L 42,20  L 41,20  L 41,21  L 40,21  L 40,23  L 39,23  L 39,25  L 40,25  L 40,24  L 41,24  L 41,26  L 42,26  L 42,28  L 41,28  L 41,27  L 40,27  L 40,28  L 39,28  L 39,31  L 40,31  L 40,32  L 42,32  L 42,33  L 44,33  L 44,34  L 43,34  L 43,35  L 44,35  L 44,36  L 46,36  L 46,38  L 50,38  L 50,37  L 52,37  L 52,36  L 55,36  L 55,35  L 56,35  L 56,33  L 57,33  L 57,32  L 58,32  L 58,31  L 59,31  L 59,29  L 60,29  L 60,27  L 59,27  L 59,26  L 58,26  L 58,25  L 59,25  L 59,24  L 60,24  L 60,23  L 59,23  L 59,21  L 58,21  L 58,20  L 59,20  L 59,19  L 58,19  L 58,18  L 57,18  L 57,17  L 56,17  L 56,16  L 55,16  L 55,17  L 54,17  L 54,18  L 50,18  L 50,17  L 52,17  L 52,16  L 50,16  Z  M 54,35  L 54,34  L 55,34  L 55,35  Z  M 52,29  L 52,28  L 54,28  L 54,29  L 53,29  L 53,30  L 52,30  L 52,31  L 51,31  L 51,32  L 50,32  L 50,31  L 48,31  L 48,30  L 50,30  L 50,29  Z  M 53,21  L 54,21  L 54,22  L 53,22  Z  M 54,28  L 54,27  L 55,27  L 55,28  Z  M 59,27  L 59,28  L 58,28  L 58,27  Z  M 48,29  L 48,30  L 46,30  L 46,29  Z  M 56,22  L 56,23  L 54,23  L 54,22  Z  M 44,20  L 44,19  L 45,19  L 45,20  Z  M 52,31  L 53,31  L 53,32  L 52,32  Z  M 50,18  L 50,19  L 49,19  L 49,18  Z  M 56,18  L 57,18  L 57,19  L 56,19  Z  M 41,30  L 41,31  L 40,31  L 40,30  Z  " style="fill:rgb(164, 36, 41); fill-opacity:1.000; stroke:none;" />
 <path d="  M 42,33  L 41,33  L 41,34  L 42,34  Z  " style="fill:rgb(164, 36, 41); fill-opacity:1.000; stroke:none;" />
 <path d="  M 50,15  L 51,15  L 51,14  L 50,14  Z  " style="fill:rgb(164, 36, 41); fill-opacity:1.000; stroke:none;" />
 <path d="  M 54,16  L 54,15  L 52,15  L 52,16  Z  " style="fill:rgb(164, 36, 41); fill-opacity:1.000; stroke:none;" />
 <path d="  M 55,15  L 55,14  L 54,14  L 54,15  Z  " style="fill:rgb(164, 36, 41); fill-opacity:1.000; stroke:none;" />
 <path d="  M 6,62  L 6,61  L 5,61  L 5,62  Z  " style="fill:rgb(84, 0, 0); fill-opacity:1.000; stroke:none;" />
 <path d="  M 44,60  L 45,60  L 45,59  L 44,59  Z  " style="fill:rgb(84, 0, 0); fill-opacity:1.000; stroke:none;" />
 <path d="  M 46,64  L 47,64  L 47,63  L 46,63  Z  " style="fill:rgb(84, 0, 0); fill-opacity:1.000; stroke:none;" />
 <path d="  M 50,63  L 50,62  L 49,62  L 49,63  Z  " style="fill:rgb(84, 0, 0); fill-opacity:1.000; stroke:none;" />
 <path d="  M 53,59  L 53,60  L 50,60  L 50,61  L 52,61  L 52,62  L 51,62  L 51,63  L 50,63  L 50,64  L 54,64  L 54,59  Z  " style="fill:rgb(84, 0, 0); fill-opacity:1.000; stroke:none;" />
 <path d="  M 60,37  L 59,37  L 59,40  L 60,40  Z  " style="fill:rgb(84, 0, 0); fill-opacity:1.000; stroke:none;" />
 <path d="  M 64,26  L 63,26  L 63,29  L 64,29  Z  " style="fill:rgb(84, 0, 0); fill-opacity:1.000; stroke:none;" />
 <path d="  M 8,17  L 8,18  L 9,18  L 9,17  Z  " style="fill:rgb(197, 52, 57); fill-opacity:1.000; stroke:none;" />
 <path d="  M 9,22  L 8,22  L 8,24  L 9,24  L 9,25  L 10,25  L 10,23  L 9,23  Z  " style="fill:rgb(197, 52, 57); fill-opacity:1.000; stroke:none;" />
 <path d="  M 11,17  L 11,16  L 9,16  L 9,17  Z  " style="fill:rgb(197, 52, 57); fill-opacity:1.000; stroke:none;" />
 <path d="  M 11,25  L 10,25  L 10,26  L 11,26  Z  " style="fill:rgb(197, 52, 57); fill-opacity:1.000; stroke:none;" />
 <path d="  M 11,15  L 11,16  L 12,16  L 12,17  L 14,17  L 14,16  L 15,16  L 15,15  L 18,15  L 18,14  L 14,14  L 14,15  Z  " style="fill:rgb(197, 52, 57); fill-opacity:1.000; stroke:none;" />
 <path d="  M 19,21  L 19,22  L 20,22  L 20,21  Z  " style="fill:rgb(197, 52, 57); fill-opacity:1.000; stroke:none;" />
 <path d="  M 21,24  L 21,23  L 22,23  L 22,22  L 23,22  L 23,18  L 22,18  L 22,21  L 21,21  L 21,22  L 20,22  L 20,24  Z  " style="fill:rgb(197, 52, 57); fill-opacity:1.000; stroke:none;" />
 <path d="  M 21,17  L 21,18  L 22,18  L 22,17  Z  " style="fill:rgb(197, 52, 57); fill-opacity:1.000; stroke:none;" />
 <path d="  M 41,26  L 41,24  L 40,24  L 40,27  L 41,27  L 41,28  L 42,28  L 42,26  Z  " style="fill:rgb(197, 52, 57); fill-opacity:1.000; stroke:none;" />
 <path d="  M 43,28  L 42,28  L 42,29  L 43,29  Z  " style="fill:rgb(197, 52, 57); fill-opacity:1.000; stroke:none;" />
 <path d="  M 46,30  L 48,30  L 48,29  L 46,29  Z  " style="fill:rgb(197, 52, 57); fill-opacity:1.000; stroke:none;" />
 <path d="  M 50,32  L 51,32  L 51,31  L 52,31  L 52,30  L 53,30  L 53,29  L 54,29  L 54,28  L 52,28  L 52,29  L 50,29  L 50,30  L 48,30  L 48,31  L 50,31  Z  " style="fill:rgb(197, 52, 57); fill-opacity:1.000; stroke:none;" />
 <path d="  M 50,18  L 49,18  L 49,19  L 50,19  Z  " style="fill:rgb(197, 52, 57); fill-opacity:1.000; stroke:none;" />
 <path d="  M 50,18  L 54,18  L 54,17  L 55,17  L 55,16  L 52,16  L 52,17  L 50,17  Z  " style="fill:rgb(197, 52, 57); fill-opacity:1.000; stroke:none;" />
 <path d="  M 52,31  L 52,32  L 53,32  L 53,31  Z  " style="fill:rgb(197, 52, 57); fill-opacity:1.000; stroke:none;" />
 <path d="  M 53,21  L 53,22  L 54,22  L 54,21  Z  " style="fill:rgb(197, 52, 57); fill-opacity:1.000; stroke:none;" />
 <path d="  M 54,22  L 54,23  L 56,23  L 56,22  Z  " style="fill:rgb(197, 52, 57); fill-opacity:1.000; stroke:none;" />
 <path d="  M 54,27  L 54,28  L 55,28  L 55,27  Z  " style="fill:rgb(197, 52, 57); fill-opacity:1.000; stroke:none;" />
</svg>
