<?xml version="1.0" encoding="UTF-8" standalone="no"?>
<!DOCTYPE svg PUBLIC "-//W3C//DTD SVG 1.1//EN" 
  "http://www.w3.org/Graphics/SVG/1.1/DTD/svg11.dtd">
<svg width="64" height="64"
	 xmlns="http://www.w3.org/2000/svg" version="1.1">
 <path d="  M 1,54  L 0,54  L 0,57  L 1,57  Z  " style="fill:rgb(115, 4, 8); fill-opacity:1.000; stroke:none;" />
 <path d="  M 2,52  L 1,52  L 1,54  L 2,54  Z  " style="fill:rgb(115, 4, 8); fill-opacity:1.000; stroke:none;" />
 <path d="  M 3,51  L 2,51  L 2,52  L 3,52  Z  " style="fill:rgb(115, 4, 8); fill-opacity:1.000; stroke:none;" />
 <path d="  M 3,60  L 3,59  L 2,59  L 2,60  Z  " style="fill:rgb(115, 4, 8); fill-opacity:1.000; stroke:none;" />
 <path d="  M 3,51  L 4,51  L 4,50  L 3,50  Z  " style="fill:rgb(115, 4, 8); fill-opacity:1.000; stroke:none;" />
 <path d="  M 13,64  L 13,61  L 12,61  L 12,58  L 11,58  L 11,53  L 10,53  L 10,57  L 9,57  L 9,58  L 8,58  L 8,59  L 6,59  L 6,60  L 3,60  L 3,61  L 4,61  L 4,62  L 5,62  L 5,63  L 6,63  L 6,64  Z  " style="fill:rgb(115, 4, 8); fill-opacity:1.000; stroke:none;" />
 <path d="  M 4,38  L 5,38  L 5,30  L 4,30  Z  " style="fill:rgb(115, 4, 8); fill-opacity:1.000; stroke:none;" />
 <path d="  M 6,50  L 6,49  L 4,49  L 4,50  Z  " style="fill:rgb(115, 4, 8); fill-opacity:1.000; stroke:none;" />
 <path d="  M 5,30  L 6,30  L 6,28  L 5,28  Z  " style="fill:rgb(115, 4, 8); fill-opacity:1.000; stroke:none;" />
 <path d="  M 6,38  L 5,38  L 5,40  L 6,40  Z  " style="fill:rgb(115, 4, 8); fill-opacity:1.000; stroke:none;" />
 <path d="  M 7,28  L 7,27  L 6,27  L 6,28  Z  " style="fill:rgb(115, 4, 8); fill-opacity:1.000; stroke:none;" />
 <path d="  M 7,41  L 7,40  L 6,40  L 6,41  Z  " style="fill:rgb(115, 4, 8); fill-opacity:1.000; stroke:none;" />
 <path d="  M 10,48  L 6,48  L 6,49  L 10,49  Z  " style="fill:rgb(115, 4, 8); fill-opacity:1.000; stroke:none;" />
 <path d="  M 7,26  L 7,27  L 9,27  L 9,26  Z  " style="fill:rgb(115, 4, 8); fill-opacity:1.000; stroke:none;" />
 <path d="  M 9,25  L 9,26  L 12,26  L 12,25  Z  " style="fill:rgb(115, 4, 8); fill-opacity:1.000; stroke:none;" />
 <path d="  M 22,40  L 22,41  L 21,41  L 21,42  L 20,42  L 20,43  L 19,43  L 19,44  L 18,44  L 18,43  L 16,43  L 16,44  L 15,44  L 15,45  L 12,45  L 12,44  L 10,44  L 10,48  L 11,48  L 11,53  L 12,53  L 12,58  L 13,58  L 13,61  L 14,61  L 14,64  L 22,64  L 22,43  L 23,43  L 23,42  L 24,42  L 24,41  L 25,41  L 25,40  L 26,40  L 26,38  L 27,38  L 27,30  L 26,30  L 26,31  L 25,31  L 25,33  L 26,33  L 26,34  L 25,34  L 25,35  L 24,35  L 24,36  L 23,36  L 23,37  L 22,37  L 22,38  L 23,38  L 23,39  L 24,39  L 24,40  Z  M 17,44  L 18,44  L 18,45  L 17,45  Z  M 16,45  L 16,46  L 15,46  L 15,45  Z  " style="fill:rgb(115, 4, 8); fill-opacity:1.000; stroke:none;" />
 <path d="  M 16,25  L 16,24  L 12,24  L 12,25  Z  " style="fill:rgb(115, 4, 8); fill-opacity:1.000; stroke:none;" />
 <path d="  M 20,25  L 20,24  L 18,24  L 18,25  Z  " style="fill:rgb(115, 4, 8); fill-opacity:1.000; stroke:none;" />
 <path d="  M 23,26  L 23,25  L 20,25  L 20,26  Z  " style="fill:rgb(115, 4, 8); fill-opacity:1.000; stroke:none;" />
 <path d="  M 22,39  L 22,38  L 21,38  L 21,39  Z  " style="fill:rgb(115, 4, 8); fill-opacity:1.000; stroke:none;" />
 <path d="  M 23,26  L 23,27  L 25,27  L 25,26  Z  " style="fill:rgb(115, 4, 8); fill-opacity:1.000; stroke:none;" />
 <path d="  M 25,34  L 25,33  L 24,33  L 24,34  Z  " style="fill:rgb(115, 4, 8); fill-opacity:1.000; stroke:none;" />
 <path d="  M 24,53  L 25,53  L 25,50  L 24,50  Z  " style="fill:rgb(115, 4, 8); fill-opacity:1.000; stroke:none;" />
 <path d="  M 25,27  L 25,28  L 26,28  L 26,27  Z  " style="fill:rgb(115, 4, 8); fill-opacity:1.000; stroke:none;" />
 <path d="  M 25,48  L 25,50  L 26,50  L 26,48  Z  " style="fill:rgb(115, 4, 8); fill-opacity:1.000; stroke:none;" />
 <path d="  M 27,48  L 27,47  L 26,47  L 26,48  Z  " style="fill:rgb(115, 4, 8); fill-opacity:1.000; stroke:none;" />
 <path d="  M 28,46  L 27,46  L 27,47  L 28,47  Z  " style="fill:rgb(115, 4, 8); fill-opacity:1.000; stroke:none;" />
 <path d="  M 30,46  L 30,45  L 28,45  L 28,46  Z  " style="fill:rgb(115, 4, 8); fill-opacity:1.000; stroke:none;" />
 <path d="  M 39,57  L 39,56  L 38,56  L 38,58  L 36,58  L 36,59  L 35,59  L 35,60  L 33,60  L 33,59  L 29,59  L 29,61  L 30,61  L 30,64  L 38,64  L 38,61  L 39,61  L 39,58  L 40,58  L 40,57  Z  " style="fill:rgb(115, 4, 8); fill-opacity:1.000; stroke:none;" />
 <path d="  M 31,44  L 30,44  L 30,45  L 31,45  Z  " style="fill:rgb(115, 4, 8); fill-opacity:1.000; stroke:none;" />
 <path d="  M 36,57  L 35,57  L 35,58  L 36,58  Z  " style="fill:rgb(115, 4, 8); fill-opacity:1.000; stroke:none;" />
 <path d="  M 38,44  L 37,44  L 37,45  L 38,45  Z  " style="fill:rgb(115, 4, 8); fill-opacity:1.000; stroke:none;" />
 <path d="  M 38,45  L 38,46  L 40,46  L 40,45  Z  " style="fill:rgb(115, 4, 8); fill-opacity:1.000; stroke:none;" />
 <path d="  M 40,56  L 40,55  L 39,55  L 39,56  Z  " style="fill:rgb(115, 4, 8); fill-opacity:1.000; stroke:none;" />
 <path d="  M 41,27  L 40,27  L 40,36  L 41,36  Z  " style="fill:rgb(115, 4, 8); fill-opacity:1.000; stroke:none;" />
 <path d="  M 40,46  L 40,47  L 41,47  L 41,46  Z  " style="fill:rgb(115, 4, 8); fill-opacity:1.000; stroke:none;" />
 <path d="  M 41,53  L 41,52  L 40,52  L 40,53  Z  " style="fill:rgb(115, 4, 8); fill-opacity:1.000; stroke:none;" />
 <path d="  M 40,57  L 41,57  L 41,56  L 40,56  Z  " style="fill:rgb(115, 4, 8); fill-opacity:1.000; stroke:none;" />
 <path d="  M 42,27  L 42,26  L 41,26  L 41,27  Z  " style="fill:rgb(115, 4, 8); fill-opacity:1.000; stroke:none;" />
 <path d="  M 42,38  L 42,36  L 41,36  L 41,38  Z  " style="fill:rgb(115, 4, 8); fill-opacity:1.000; stroke:none;" />
 <path d="  M 42,47  L 41,47  L 41,48  L 42,48  Z  " style="fill:rgb(115, 4, 8); fill-opacity:1.000; stroke:none;" />
 <path d="  M 42,53  L 41,53  L 41,56  L 42,56  L 42,54  L 43,54  L 43,51  L 42,51  Z  " style="fill:rgb(115, 4, 8); fill-opacity:1.000; stroke:none;" />
 <path d="  M 43,25  L 42,25  L 42,26  L 43,26  Z  " style="fill:rgb(115, 4, 8); fill-opacity:1.000; stroke:none;" />
 <path d="  M 43,39  L 43,38  L 42,38  L 42,39  Z  " style="fill:rgb(115, 4, 8); fill-opacity:1.000; stroke:none;" />
 <path d="  M 45,24  L 43,24  L 43,25  L 45,25  Z  " style="fill:rgb(115, 4, 8); fill-opacity:1.000; stroke:none;" />
 <path d="  M 44,40  L 44,39  L 43,39  L 43,40  Z  " style="fill:rgb(115, 4, 8); fill-opacity:1.000; stroke:none;" />
 <path d="  M 48,24  L 48,23  L 45,23  L 45,24  Z  " style="fill:rgb(115, 4, 8); fill-opacity:1.000; stroke:none;" />
 <path d="  M 50,53  L 50,54  L 49,54  L 49,53  L 46,53  L 46,54  L 45,54  L 45,64  L 55,64  L 55,52  L 56,52  L 56,47  L 57,47  L 57,42  L 56,42  L 56,44  L 55,44  L 55,45  L 54,45  L 54,46  L 55,46  L 55,47  L 54,47  L 54,48  L 52,48  L 52,49  L 50,49  L 50,50  L 51,50  L 51,51  L 52,51  L 52,52  L 51,52  L 51,53  Z  M 48,54  L 48,55  L 46,55  L 46,54  Z  M 52,51  L 52,50  L 53,50  L 53,51  Z  " style="fill:rgb(115, 4, 8); fill-opacity:1.000; stroke:none;" />
 <path d="  M 56,23  L 56,22  L 48,22  L 48,23  Z  " style="fill:rgb(115, 4, 8); fill-opacity:1.000; stroke:none;" />
 <path d="  M 49,53  L 50,53  L 50,52  L 49,52  Z  " style="fill:rgb(115, 4, 8); fill-opacity:1.000; stroke:none;" />
 <path d="  M 52,47  L 51,47  L 51,48  L 52,48  Z  " style="fill:rgb(115, 4, 8); fill-opacity:1.000; stroke:none;" />
 <path d="  M 54,45  L 54,44  L 53,44  L 53,45  Z  " style="fill:rgb(115, 4, 8); fill-opacity:1.000; stroke:none;" />
 <path d="  M 55,44  L 55,43  L 54,43  L 54,44  Z  " style="fill:rgb(115, 4, 8); fill-opacity:1.000; stroke:none;" />
 <path d="  M 56,24  L 59,24  L 59,23  L 56,23  Z  " style="fill:rgb(115, 4, 8); fill-opacity:1.000; stroke:none;" />
 <path d="  M 57,41  L 57,42  L 58,42  L 58,41  Z  " style="fill:rgb(115, 4, 8); fill-opacity:1.000; stroke:none;" />
 <path d="  M 59,40  L 58,40  L 58,41  L 59,41  Z  " style="fill:rgb(115, 4, 8); fill-opacity:1.000; stroke:none;" />
 <path d="  M 61,25  L 61,24  L 59,24  L 59,25  Z  " style="fill:rgb(115, 4, 8); fill-opacity:1.000; stroke:none;" />
 <path d="  M 60,40  L 60,39  L 59,39  L 59,40  Z  " style="fill:rgb(115, 4, 8); fill-opacity:1.000; stroke:none;" />
 <path d="  M 61,39  L 61,38  L 60,38  L 60,39  Z  " style="fill:rgb(115, 4, 8); fill-opacity:1.000; stroke:none;" />
 <path d="  M 62,26  L 62,25  L 61,25  L 61,26  Z  " style="fill:rgb(115, 4, 8); fill-opacity:1.000; stroke:none;" />
 <path d="  M 61,38  L 62,38  L 62,36  L 61,36  Z  " style="fill:rgb(115, 4, 8); fill-opacity:1.000; stroke:none;" />
 <path d="  M 63,27  L 63,26  L 62,26  L 62,27  Z  " style="fill:rgb(115, 4, 8); fill-opacity:1.000; stroke:none;" />
 <path d="  M 63,34  L 62,34  L 62,36  L 63,36  Z  " style="fill:rgb(115, 4, 8); fill-opacity:1.000; stroke:none;" />
 <path d="  M 64,27  L 63,27  L 63,34  L 64,34  Z  " style="fill:rgb(115, 4, 8); fill-opacity:1.000; stroke:none;" />
 <path d="  M 0,57  L 0,58  L 1,58  L 1,57  Z  " style="fill:rgb(72, 0, 0); fill-opacity:1.000; stroke:none;" />
 <path d="  M 1,60  L 2,60  L 2,58  L 1,58  Z  " style="fill:rgb(72, 0, 0); fill-opacity:1.000; stroke:none;" />
 <path d="  M 2,60  L 2,61  L 3,61  L 3,60  Z  " style="fill:rgb(72, 0, 0); fill-opacity:1.000; stroke:none;" />
 <path d="  M 4,62  L 4,61  L 3,61  L 3,62  Z  " style="fill:rgb(72, 0, 0); fill-opacity:1.000; stroke:none;" />
 <path d="  M 5,62  L 4,62  L 4,63  L 5,63  Z  " style="fill:rgb(72, 0, 0); fill-opacity:1.000; stroke:none;" />
 <path d="  M 6,64  L 6,63  L 5,63  L 5,64  Z  " style="fill:rgb(72, 0, 0); fill-opacity:1.000; stroke:none;" />
 <path d="  M 12,60  L 12,61  L 13,61  L 13,60  Z  " style="fill:rgb(72, 0, 0); fill-opacity:1.000; stroke:none;" />
 <path d="  M 14,64  L 14,61  L 13,61  L 13,64  Z  " style="fill:rgb(72, 0, 0); fill-opacity:1.000; stroke:none;" />
 <path d="  M 22,64  L 23,64  L 23,43  L 22,43  Z  " style="fill:rgb(72, 0, 0); fill-opacity:1.000; stroke:none;" />
 <path d="  M 24,43  L 24,42  L 23,42  L 23,43  Z  " style="fill:rgb(72, 0, 0); fill-opacity:1.000; stroke:none;" />
 <path d="  M 24,42  L 25,42  L 25,41  L 24,41  Z  " style="fill:rgb(72, 0, 0); fill-opacity:1.000; stroke:none;" />
 <path d="  M 26,41  L 26,40  L 25,40  L 25,41  Z  " style="fill:rgb(72, 0, 0); fill-opacity:1.000; stroke:none;" />
 <path d="  M 27,28  L 26,28  L 26,30  L 27,30  Z  " style="fill:rgb(72, 0, 0); fill-opacity:1.000; stroke:none;" />
 <path d="  M 26,38  L 26,40  L 27,40  L 27,38  Z  " style="fill:rgb(72, 0, 0); fill-opacity:1.000; stroke:none;" />
 <path d="  M 28,30  L 27,30  L 27,38  L 28,38  Z  " style="fill:rgb(72, 0, 0); fill-opacity:1.000; stroke:none;" />
 <path d="  M 38,64  L 39,64  L 39,61  L 38,61  Z  " style="fill:rgb(72, 0, 0); fill-opacity:1.000; stroke:none;" />
 <path d="  M 40,61  L 40,58  L 39,58  L 39,61  Z  " style="fill:rgb(72, 0, 0); fill-opacity:1.000; stroke:none;" />
 <path d="  M 41,57  L 40,57  L 40,58  L 41,58  Z  " style="fill:rgb(72, 0, 0); fill-opacity:1.000; stroke:none;" />
 <path d="  M 42,56  L 41,56  L 41,57  L 42,57  Z  " style="fill:rgb(72, 0, 0); fill-opacity:1.000; stroke:none;" />
 <path d="  M 42,48  L 42,50  L 43,50  L 43,48  Z  " style="fill:rgb(72, 0, 0); fill-opacity:1.000; stroke:none;" />
 <path d="  M 42,56  L 43,56  L 43,54  L 42,54  Z  " style="fill:rgb(72, 0, 0); fill-opacity:1.000; stroke:none;" />
 <path d="  M 44,50  L 43,50  L 43,54  L 44,54  Z  " style="fill:rgb(72, 0, 0); fill-opacity:1.000; stroke:none;" />
 <path d="  M 56,60  L 55,60  L 55,64  L 56,64  Z  " style="fill:rgb(72, 0, 0); fill-opacity:1.000; stroke:none;" />
 <path d="  M 56,48  L 57,48  L 57,47  L 56,47  Z  " style="fill:rgb(72, 0, 0); fill-opacity:1.000; stroke:none;" />
 <path d="  M 57,47  L 58,47  L 58,42  L 57,42  Z  " style="fill:rgb(72, 0, 0); fill-opacity:1.000; stroke:none;" />
 <path d="  M 58,42  L 59,42  L 59,41  L 58,41  Z  " style="fill:rgb(72, 0, 0); fill-opacity:1.000; stroke:none;" />
 <path d="  M 60,41  L 60,40  L 59,40  L 59,41  Z  " style="fill:rgb(72, 0, 0); fill-opacity:1.000; stroke:none;" />
 <path d="  M 61,40  L 61,39  L 60,39  L 60,40  Z  " style="fill:rgb(72, 0, 0); fill-opacity:1.000; stroke:none;" />
 <path d="  M 62,38  L 61,38  L 61,39  L 62,39  Z  " style="fill:rgb(72, 0, 0); fill-opacity:1.000; stroke:none;" />
 <path d="  M 62,38  L 63,38  L 63,36  L 62,36  Z  " style="fill:rgb(72, 0, 0); fill-opacity:1.000; stroke:none;" />
 <path d="  M 64,34  L 63,34  L 63,36  L 64,36  Z  " style="fill:rgb(72, 0, 0); fill-opacity:1.000; stroke:none;" />
 <path d="  M 7,53  L 7,54  L 6,54  L 6,55  L 5,55  L 5,56  L 4,56  L 4,54  L 5,54  L 5,53  Z  M 8,59  L 8,58  L 9,58  L 9,57  L 10,57  L 10,49  L 6,49  L 6,50  L 4,50  L 4,51  L 3,51  L 3,52  L 2,52  L 2,54  L 1,54  L 1,58  L 2,58  L 2,59  L 3,59  L 3,60  L 6,60  L 6,59  Z  M 8,53  L 7,53  L 7,52  L 8,52  Z  " style="fill:rgb(131, 28, 32); fill-opacity:1.000; stroke:none;" />
 <path d="  M 24,33  L 25,33  L 25,31  L 26,31  L 26,28  L 25,28  L 25,30  L 24,30  L 24,32  L 23,32  L 23,33  L 22,33  L 22,34  L 21,34  L 21,35  L 20,35  L 20,36  L 18,36  L 18,37  L 15,37  L 15,38  L 14,38  L 14,39  L 16,39  L 16,40  L 13,40  L 13,39  L 12,39  L 12,40  L 11,40  L 11,39  L 9,39  L 9,38  L 8,38  L 8,34  L 7,34  L 7,33  L 8,33  L 8,32  L 9,32  L 9,31  L 10,31  L 10,29  L 9,29  L 9,28  L 10,28  L 10,27  L 11,27  L 11,26  L 9,26  L 9,27  L 7,27  L 7,28  L 6,28  L 6,30  L 5,30  L 5,38  L 6,38  L 6,40  L 7,40  L 7,41  L 8,41  L 8,42  L 9,42  L 9,43  L 10,43  L 10,44  L 12,44  L 12,45  L 15,45  L 15,44  L 16,44  L 16,43  L 18,43  L 18,44  L 19,44  L 19,43  L 20,43  L 20,42  L 21,42  L 21,41  L 22,41  L 22,40  L 24,40  L 24,39  L 23,39  L 23,38  L 22,38  L 22,37  L 23,37  L 23,36  L 24,36  L 24,35  L 25,35  L 25,34  L 24,34  Z  M 17,39  L 17,38  L 18,38  L 18,39  Z  M 19,38  L 18,38  L 18,37  L 19,37  Z  M 8,29  L 9,29  L 9,30  L 8,30  Z  M 22,38  L 22,39  L 21,39  L 21,38  Z  " style="fill:rgb(131, 28, 32); fill-opacity:1.000; stroke:none;" />
 <path d="  M 12,39  L 12,38  L 11,38  L 11,39  Z  " style="fill:rgb(131, 28, 32); fill-opacity:1.000; stroke:none;" />
 <path d="  M 13,25  L 12,25  L 12,26  L 13,26  Z  " style="fill:rgb(131, 28, 32); fill-opacity:1.000; stroke:none;" />
 <path d="  M 16,45  L 15,45  L 15,46  L 16,46  Z  " style="fill:rgb(131, 28, 32); fill-opacity:1.000; stroke:none;" />
 <path d="  M 16,25  L 18,25  L 18,24  L 16,24  Z  " style="fill:rgb(131, 28, 32); fill-opacity:1.000; stroke:none;" />
 <path d="  M 17,45  L 18,45  L 18,44  L 17,44  Z  " style="fill:rgb(131, 28, 32); fill-opacity:1.000; stroke:none;" />
 <path d="  M 18,25  L 18,26  L 20,26  L 20,25  Z  " style="fill:rgb(131, 28, 32); fill-opacity:1.000; stroke:none;" />
 <path d="  M 21,27  L 23,27  L 23,26  L 21,26  Z  " style="fill:rgb(131, 28, 32); fill-opacity:1.000; stroke:none;" />
 <path d="  M 25,27  L 24,27  L 24,28  L 25,28  Z  " style="fill:rgb(131, 28, 32); fill-opacity:1.000; stroke:none;" />
 <path d="  M 25,54  L 25,53  L 24,53  L 24,54  Z  " style="fill:rgb(131, 28, 32); fill-opacity:1.000; stroke:none;" />
 <path d="  M 25,34  L 26,34  L 26,33  L 25,33  Z  " style="fill:rgb(131, 28, 32); fill-opacity:1.000; stroke:none;" />
 <path d="  M 26,56  L 26,54  L 25,54  L 25,56  Z  " style="fill:rgb(131, 28, 32); fill-opacity:1.000; stroke:none;" />
 <path d="  M 27,57  L 27,58  L 29,58  L 29,57  L 28,57  L 28,56  L 26,56  L 26,57  Z  " style="fill:rgb(131, 28, 32); fill-opacity:1.000; stroke:none;" />
 <path d="  M 32,58  L 29,58  L 29,59  L 33,59  L 33,60  L 35,60  L 35,59  L 36,59  L 36,58  L 35,58  L 35,57  L 32,57  Z  " style="fill:rgb(131, 28, 32); fill-opacity:1.000; stroke:none;" />
 <path d="  M 37,45  L 37,44  L 31,44  L 31,45  Z  " style="fill:rgb(131, 28, 32); fill-opacity:1.000; stroke:none;" />
 <path d="  M 40,56  L 41,56  L 41,53  L 40,53  L 40,52  L 39,52  L 39,54  L 38,54  L 38,55  L 37,55  L 37,56  L 35,56  L 35,57  L 36,57  L 36,58  L 38,58  L 38,56  L 39,56  L 39,55  L 40,55  Z  " style="fill:rgb(131, 28, 32); fill-opacity:1.000; stroke:none;" />
 <path d="  M 40,56  L 39,56  L 39,57  L 40,57  Z  " style="fill:rgb(131, 28, 32); fill-opacity:1.000; stroke:none;" />
 <path d="  M 41,52  L 41,53  L 42,53  L 42,51  L 43,51  L 43,50  L 42,50  L 42,48  L 41,48  L 41,50  L 40,50  L 40,52  Z  " style="fill:rgb(131, 28, 32); fill-opacity:1.000; stroke:none;" />
 <path d="  M 42,30  L 42,28  L 43,28  L 43,27  L 44,27  L 44,26  L 45,26  L 45,25  L 43,25  L 43,26  L 42,26  L 42,27  L 41,27  L 41,30  Z  " style="fill:rgb(131, 28, 32); fill-opacity:1.000; stroke:none;" />
 <path d="  M 61,36  L 62,36  L 62,34  L 63,34  L 63,27  L 62,27  L 62,26  L 61,26  L 61,25  L 59,25  L 59,26  L 60,26  L 60,28  L 61,28  L 61,29  L 60,29  L 60,30  L 59,30  L 59,32  L 58,32  L 58,33  L 60,33  L 60,34  L 59,34  L 59,35  L 58,35  L 58,34  L 57,34  L 57,33  L 56,33  L 56,34  L 55,34  L 55,35  L 54,35  L 54,34  L 52,34  L 52,35  L 53,35  L 53,36  L 49,36  L 49,37  L 48,37  L 48,38  L 46,38  L 46,37  L 45,37  L 45,36  L 44,36  L 44,35  L 45,35  L 45,34  L 43,34  L 43,33  L 42,33  L 42,32  L 41,32  L 41,36  L 42,36  L 42,38  L 43,38  L 43,39  L 44,39  L 44,40  L 45,40  L 45,54  L 46,54  L 46,53  L 49,53  L 49,52  L 50,52  L 50,53  L 51,53  L 51,52  L 52,52  L 52,51  L 51,51  L 51,50  L 50,50  L 50,49  L 52,49  L 52,48  L 54,48  L 54,47  L 55,47  L 55,46  L 54,46  L 54,45  L 53,45  L 53,44  L 54,44  L 54,43  L 55,43  L 55,44  L 56,44  L 56,42  L 57,42  L 57,41  L 58,41  L 58,40  L 59,40  L 59,39  L 60,39  L 60,38  L 61,38  Z  M 52,47  L 52,48  L 51,48  L 51,47  Z  M 57,35  L 58,35  L 58,36  L 57,36  Z  M 49,38  L 49,37  L 50,37  L 50,38  Z  M 53,36  L 54,36  L 54,37  L 53,37  Z  M 43,35  L 42,35  L 42,34  L 43,34  Z  M 45,38  L 44,38  L 44,37  L 45,37  Z  " style="fill:rgb(131, 28, 32); fill-opacity:1.000; stroke:none;" />
 <path d="  M 43,28  L 43,29  L 44,29  L 44,28  Z  " style="fill:rgb(131, 28, 32); fill-opacity:1.000; stroke:none;" />
 <path d="  M 49,26  L 49,25  L 48,25  L 48,24  L 45,24  L 45,25  L 46,25  L 46,26  Z  " style="fill:rgb(131, 28, 32); fill-opacity:1.000; stroke:none;" />
 <path d="  M 45,27  L 46,27  L 46,26  L 45,26  Z  " style="fill:rgb(131, 28, 32); fill-opacity:1.000; stroke:none;" />
 <path d="  M 48,55  L 48,54  L 46,54  L 46,55  Z  " style="fill:rgb(131, 28, 32); fill-opacity:1.000; stroke:none;" />
 <path d="  M 48,23  L 48,24  L 49,24  L 49,25  L 50,25  L 50,24  L 55,24  L 55,25  L 56,25  L 56,26  L 57,26  L 57,25  L 59,25  L 59,24  L 56,24  L 56,23  Z  " style="fill:rgb(131, 28, 32); fill-opacity:1.000; stroke:none;" />
 <path d="  M 50,54  L 50,53  L 49,53  L 49,54  Z  " style="fill:rgb(131, 28, 32); fill-opacity:1.000; stroke:none;" />
 <path d="  M 52,50  L 52,51  L 53,51  L 53,50  Z  " style="fill:rgb(131, 28, 32); fill-opacity:1.000; stroke:none;" />
 <path d="  M 54,26  L 55,26  L 55,25  L 54,25  Z  " style="fill:rgb(131, 28, 32); fill-opacity:1.000; stroke:none;" />
 <path d="  M 54,34  L 55,34  L 55,33  L 54,33  Z  " style="fill:rgb(131, 28, 32); fill-opacity:1.000; stroke:none;" />
 <path d="  M 54,45  L 55,45  L 55,44  L 54,44  Z  " style="fill:rgb(131, 28, 32); fill-opacity:1.000; stroke:none;" />
 <path d="  M 57,31  L 57,32  L 58,32  L 58,31  Z  " style="fill:rgb(131, 28, 32); fill-opacity:1.000; stroke:none;" />
 <path d="  M 58,28  L 58,29  L 59,29  L 59,28  Z  " style="fill:rgb(131, 28, 32); fill-opacity:1.000; stroke:none;" />
 <path d="  M 5,53  L 5,54  L 4,54  L 4,56  L 5,56  L 5,55  L 6,55  L 6,54  L 7,54  L 7,53  Z  " style="fill:rgb(164, 36, 41); fill-opacity:1.000; stroke:none;" />
 <path d="  M 7,34  L 8,34  L 8,33  L 7,33  Z  " style="fill:rgb(164, 36, 41); fill-opacity:1.000; stroke:none;" />
 <path d="  M 7,52  L 7,53  L 8,53  L 8,52  Z  " style="fill:rgb(164, 36, 41); fill-opacity:1.000; stroke:none;" />
 <path d="  M 9,29  L 8,29  L 8,30  L 9,30  Z  " style="fill:rgb(164, 36, 41); fill-opacity:1.000; stroke:none;" />
 <path d="  M 16,29  L 17,29  L 17,28  L 20,28  L 20,29  L 18,29  L 18,30  L 16,30  Z  M 25,28  L 24,28  L 24,27  L 21,27  L 21,26  L 18,26  L 18,25  L 13,25  L 13,26  L 11,26  L 11,27  L 10,27  L 10,28  L 9,28  L 9,29  L 10,29  L 10,31  L 9,31  L 9,34  L 8,34  L 8,38  L 9,38  L 9,39  L 11,39  L 11,38  L 12,38  L 12,39  L 13,39  L 13,40  L 16,40  L 16,39  L 14,39  L 14,38  L 15,38  L 15,37  L 18,37  L 18,36  L 20,36  L 20,35  L 21,35  L 21,34  L 22,34  L 22,33  L 23,33  L 23,32  L 24,32  L 24,30  L 25,30  Z  M 9,34  L 10,34  L 10,36  L 9,36  Z  M 10,37  L 10,36  L 11,36  L 11,37  Z  M 16,30  L 16,31  L 15,31  L 15,30  Z  " style="fill:rgb(164, 36, 41); fill-opacity:1.000; stroke:none;" />
 <path d="  M 11,39  L 11,40  L 12,40  L 12,39  Z  " style="fill:rgb(164, 36, 41); fill-opacity:1.000; stroke:none;" />
 <path d="  M 17,38  L 17,39  L 18,39  L 18,38  Z  " style="fill:rgb(164, 36, 41); fill-opacity:1.000; stroke:none;" />
 <path d="  M 18,38  L 19,38  L 19,37  L 18,37  Z  " style="fill:rgb(164, 36, 41); fill-opacity:1.000; stroke:none;" />
 <path d="  M 27,55  L 27,53  L 26,53  L 26,50  L 25,50  L 25,54  L 26,54  L 26,56  L 28,56  L 28,55  Z  " style="fill:rgb(164, 36, 41); fill-opacity:1.000; stroke:none;" />
 <path d="  M 28,47  L 29,47  L 29,48  L 28,48  Z  M 30,50  L 30,49  L 29,49  L 29,48  L 33,48  L 33,47  L 32,47  L 32,46  L 34,46  L 34,47  L 36,47  L 36,48  L 37,48  L 37,49  L 35,49  L 35,50  L 33,50  L 33,51  L 31,51  L 31,50  Z  M 32,58  L 32,57  L 35,57  L 35,56  L 37,56  L 37,55  L 38,55  L 38,54  L 39,54  L 39,52  L 40,52  L 40,50  L 41,50  L 41,47  L 40,47  L 40,46  L 38,46  L 38,45  L 30,45  L 30,46  L 28,46  L 28,47  L 27,47  L 27,48  L 26,48  L 26,50  L 27,50  L 27,53  L 28,53  L 28,54  L 29,54  L 29,55  L 30,55  L 30,56  L 28,56  L 28,57  L 29,57  L 29,58  Z  M 37,47  L 38,47  L 38,48  L 37,48  Z  M 31,56  L 31,57  L 30,57  L 30,56  Z  " style="fill:rgb(164, 36, 41); fill-opacity:1.000; stroke:none;" />
 <path d="  M 33,49  L 32,49  L 32,50  L 33,50  Z  " style="fill:rgb(164, 36, 41); fill-opacity:1.000; stroke:none;" />
 <path d="  M 58,32  L 59,32  L 59,29  L 58,29  L 58,28  L 57,28  L 57,27  L 56,27  L 56,26  L 54,26  L 54,25  L 55,25  L 55,24  L 50,24  L 50,25  L 49,25  L 49,26  L 46,26  L 46,27  L 45,27  L 45,26  L 44,26  L 44,27  L 43,27  L 43,28  L 42,28  L 42,30  L 41,30  L 41,32  L 42,32  L 42,33  L 43,33  L 43,34  L 45,34  L 45,35  L 44,35  L 44,36  L 45,36  L 45,37  L 46,37  L 46,38  L 48,38  L 48,37  L 49,37  L 49,36  L 53,36  L 53,35  L 52,35  L 52,34  L 54,34  L 54,33  L 55,33  L 55,34  L 56,34  L 56,33  L 57,33  L 57,34  L 58,34  L 58,35  L 59,35  L 59,34  L 60,34  L 60,33  L 58,33  Z  M 47,35  L 47,34  L 48,34  L 48,35  Z  M 58,31  L 58,32  L 57,32  L 57,31  Z  M 43,28  L 44,28  L 44,29  L 43,29  Z  M 44,29  L 45,29  L 45,31  L 44,31  Z  M 46,32  L 47,32  L 47,34  L 46,34  L 46,33  L 45,33  L 45,31  L 46,31  Z  " style="fill:rgb(164, 36, 41); fill-opacity:1.000; stroke:none;" />
 <path d="  M 42,34  L 42,35  L 43,35  L 43,34  Z  " style="fill:rgb(164, 36, 41); fill-opacity:1.000; stroke:none;" />
 <path d="  M 44,37  L 44,38  L 45,38  L 45,37  Z  " style="fill:rgb(164, 36, 41); fill-opacity:1.000; stroke:none;" />
 <path d="  M 46,26  L 46,25  L 45,25  L 45,26  Z  " style="fill:rgb(164, 36, 41); fill-opacity:1.000; stroke:none;" />
 <path d="  M 48,25  L 49,25  L 49,24  L 48,24  Z  " style="fill:rgb(164, 36, 41); fill-opacity:1.000; stroke:none;" />
 <path d="  M 49,37  L 49,38  L 50,38  L 50,37  Z  " style="fill:rgb(164, 36, 41); fill-opacity:1.000; stroke:none;" />
 <path d="  M 54,37  L 54,36  L 53,36  L 53,37  Z  " style="fill:rgb(164, 36, 41); fill-opacity:1.000; stroke:none;" />
 <path d="  M 55,35  L 55,34  L 54,34  L 54,35  Z  " style="fill:rgb(164, 36, 41); fill-opacity:1.000; stroke:none;" />
 <path d="  M 59,28  L 60,28  L 60,26  L 59,26  L 59,25  L 57,25  L 57,26  L 58,26  L 58,27  L 59,27  Z  " style="fill:rgb(164, 36, 41); fill-opacity:1.000; stroke:none;" />
 <path d="  M 58,35  L 57,35  L 57,36  L 58,36  Z  " style="fill:rgb(164, 36, 41); fill-opacity:1.000; stroke:none;" />
 <path d="  M 61,28  L 60,28  L 60,29  L 61,29  Z  " style="fill:rgb(164, 36, 41); fill-opacity:1.000; stroke:none;" />
 <path d="  M 8,41  L 7,41  L 7,42  L 8,42  Z  " style="fill:rgb(82, 24, 16); fill-opacity:1.000; stroke:none;" />
 <path d="  M 9,42  L 8,42  L 8,43  L 9,43  Z  " style="fill:rgb(82, 24, 16); fill-opacity:1.000; stroke:none;" />
 <path d="  M 9,43  L 9,48  L 10,48  L 10,43  Z  " style="fill:rgb(82, 24, 16); fill-opacity:1.000; stroke:none;" />
 <path d="  M 10,53  L 11,53  L 11,48  L 10,48  Z  " style="fill:rgb(82, 24, 16); fill-opacity:1.000; stroke:none;" />
 <path d="  M 12,53  L 11,53  L 11,58  L 12,58  Z  " style="fill:rgb(82, 24, 16); fill-opacity:1.000; stroke:none;" />
 <path d="  M 13,58  L 12,58  L 12,60  L 13,60  Z  " style="fill:rgb(82, 24, 16); fill-opacity:1.000; stroke:none;" />
 <path d="  M 28,61  L 29,61  L 29,58  L 28,58  Z  " style="fill:rgb(82, 24, 16); fill-opacity:1.000; stroke:none;" />
 <path d="  M 30,61  L 29,61  L 29,64  L 30,64  Z  " style="fill:rgb(82, 24, 16); fill-opacity:1.000; stroke:none;" />
 <path d="  M 45,40  L 44,40  L 44,64  L 45,64  Z  " style="fill:rgb(82, 24, 16); fill-opacity:1.000; stroke:none;" />
 <path d="  M 56,52  L 55,52  L 55,60  L 56,60  Z  " style="fill:rgb(82, 24, 16); fill-opacity:1.000; stroke:none;" />
 <path d="  M 56,52  L 57,52  L 57,48  L 56,48  Z  " style="fill:rgb(82, 24, 16); fill-opacity:1.000; stroke:none;" />
 <path d="  M 9,32  L 8,32  L 8,34  L 9,34  Z  " style="fill:rgb(197, 52, 57); fill-opacity:1.000; stroke:none;" />
 <path d="  M 9,36  L 10,36  L 10,34  L 9,34  Z  " style="fill:rgb(197, 52, 57); fill-opacity:1.000; stroke:none;" />
 <path d="  M 10,37  L 11,37  L 11,36  L 10,36  Z  " style="fill:rgb(197, 52, 57); fill-opacity:1.000; stroke:none;" />
 <path d="  M 16,31  L 16,30  L 15,30  L 15,31  Z  " style="fill:rgb(197, 52, 57); fill-opacity:1.000; stroke:none;" />
 <path d="  M 18,29  L 20,29  L 20,28  L 17,28  L 17,29  L 16,29  L 16,30  L 18,30  Z  " style="fill:rgb(197, 52, 57); fill-opacity:1.000; stroke:none;" />
 <path d="  M 26,53  L 27,53  L 27,50  L 26,50  Z  " style="fill:rgb(197, 52, 57); fill-opacity:1.000; stroke:none;" />
 <path d="  M 28,54  L 28,53  L 27,53  L 27,55  L 28,55  L 28,56  L 30,56  L 30,55  L 29,55  L 29,54  Z  " style="fill:rgb(197, 52, 57); fill-opacity:1.000; stroke:none;" />
 <path d="  M 29,48  L 29,47  L 28,47  L 28,48  Z  " style="fill:rgb(197, 52, 57); fill-opacity:1.000; stroke:none;" />
 <path d="  M 32,49  L 33,49  L 33,50  L 32,50  Z  M 36,48  L 36,47  L 34,47  L 34,46  L 32,46  L 32,47  L 33,47  L 33,48  L 29,48  L 29,49  L 30,49  L 30,50  L 31,50  L 31,51  L 33,51  L 33,50  L 35,50  L 35,49  L 37,49  L 37,48  Z  " style="fill:rgb(197, 52, 57); fill-opacity:1.000; stroke:none;" />
 <path d="  M 30,56  L 30,57  L 31,57  L 31,56  Z  " style="fill:rgb(197, 52, 57); fill-opacity:1.000; stroke:none;" />
 <path d="  M 38,47  L 37,47  L 37,48  L 38,48  Z  " style="fill:rgb(197, 52, 57); fill-opacity:1.000; stroke:none;" />
 <path d="  M 44,31  L 45,31  L 45,29  L 44,29  Z  " style="fill:rgb(197, 52, 57); fill-opacity:1.000; stroke:none;" />
 <path d="  M 45,31  L 45,33  L 46,33  L 46,34  L 47,34  L 47,32  L 46,32  L 46,31  Z  " style="fill:rgb(197, 52, 57); fill-opacity:1.000; stroke:none;" />
 <path d="  M 47,34  L 47,35  L 48,35  L 48,34  Z  " style="fill:rgb(197, 52, 57); fill-opacity:1.000; stroke:none;" />
 <path d="  M 55,25  L 55,26  L 56,26  L 56,25  Z  " style="fill:rgb(197, 52, 57); fill-opacity:1.000; stroke:none;" />
 <path d="  M 57,27  L 57,28  L 59,28  L 59,27  L 58,27  L 58,26  L 56,26  L 56,27  Z  " style="fill:rgb(197, 52, 57); fill-opacity:1.000; stroke:none;" />
 <path d="  M 59,30  L 60,30  L 60,28  L 59,28  Z  " style="fill:rgb(197, 52, 57); fill-opacity:1.000; stroke:none;" />
</svg>
