<?xml version="1.0" encoding="UTF-8" standalone="no"?>
<!DOCTYPE svg PUBLIC "-//W3C//DTD SVG 1.1//EN" 
  "http://www.w3.org/Graphics/SVG/1.1/DTD/svg11.dtd">
<svg width="64" height="64"
	 xmlns="http://www.w3.org/2000/svg" version="1.1">
 <path d="  M 23,32  L 22,32  L 22,34  L 24,34  L 24,33  L 23,33  Z  " style="fill:rgb(74, 143, 40); fill-opacity:1.000; stroke:none;" />
 <path d="  M 23,35  L 22,35  L 22,36  L 23,36  Z  " style="fill:rgb(74, 143, 40); fill-opacity:1.000; stroke:none;" />
 <path d="  M 23,40  L 23,38  L 22,38  L 22,40  Z  " style="fill:rgb(74, 143, 40); fill-opacity:1.000; stroke:none;" />
 <path d="  M 22,46  L 23,46  L 23,47  L 24,47  L 24,45  L 23,45  L 23,44  L 22,44  Z  " style="fill:rgb(74, 143, 40); fill-opacity:1.000; stroke:none;" />
 <path d="  M 23,48  L 23,49  L 24,49  L 24,48  Z  " style="fill:rgb(74, 143, 40); fill-opacity:1.000; stroke:none;" />
 <path d="  M 24,35  L 25,35  L 25,34  L 24,34  Z  " style="fill:rgb(74, 143, 40); fill-opacity:1.000; stroke:none;" />
 <path d="  M 25,50  L 25,49  L 24,49  L 24,50  Z  " style="fill:rgb(74, 143, 40); fill-opacity:1.000; stroke:none;" />
 <path d="  M 25,37  L 25,38  L 26,38  L 26,37  Z  " style="fill:rgb(74, 143, 40); fill-opacity:1.000; stroke:none;" />
 <path d="  M 25,51  L 25,52  L 26,52  L 26,51  Z  " style="fill:rgb(74, 143, 40); fill-opacity:1.000; stroke:none;" />
 <path d="  M 27,40  L 27,39  L 26,39  L 26,40  Z  " style="fill:rgb(74, 143, 40); fill-opacity:1.000; stroke:none;" />
 <path d="  M 27,53  L 26,53  L 26,54  L 27,54  Z  " style="fill:rgb(74, 143, 40); fill-opacity:1.000; stroke:none;" />
 <path d="  M 28,43  L 28,41  L 27,41  L 27,43  Z  " style="fill:rgb(74, 143, 40); fill-opacity:1.000; stroke:none;" />
 <path d="  M 27,54  L 27,56  L 28,56  L 28,54  Z  " style="fill:rgb(74, 143, 40); fill-opacity:1.000; stroke:none;" />
 <path d="  M 29,43  L 28,43  L 28,44  L 29,44  Z  " style="fill:rgb(74, 143, 40); fill-opacity:1.000; stroke:none;" />
 <path d="  M 29,47  L 30,47  L 30,46  L 31,46  L 31,45  L 30,45  L 30,44  L 29,44  Z  " style="fill:rgb(74, 143, 40); fill-opacity:1.000; stroke:none;" />
 <path d="  M 30,56  L 29,56  L 29,57  L 30,57  Z  " style="fill:rgb(74, 143, 40); fill-opacity:1.000; stroke:none;" />
 <path d="  M 30,51  L 32,51  L 32,50  L 31,50  L 31,49  L 30,49  Z  " style="fill:rgb(74, 143, 40); fill-opacity:1.000; stroke:none;" />
 <path d="  M 33,36  L 33,31  L 32,31  L 32,33  L 31,33  L 31,34  L 32,34  L 32,35  L 31,35  L 31,36  Z  " style="fill:rgb(74, 143, 40); fill-opacity:1.000; stroke:none;" />
 <path d="  M 32,40  L 32,39  L 31,39  L 31,40  Z  " style="fill:rgb(74, 143, 40); fill-opacity:1.000; stroke:none;" />
 <path d="  M 32,41  L 31,41  L 31,45  L 32,45  Z  " style="fill:rgb(74, 143, 40); fill-opacity:1.000; stroke:none;" />
 <path d="  M 32,61  L 33,61  L 33,58  L 34,58  L 34,55  L 35,55  L 35,54  L 34,54  L 34,40  L 33,40  L 33,51  L 32,51  L 32,52  L 33,52  L 33,54  L 32,54  L 32,53  L 31,53  L 31,55  L 32,55  L 32,56  L 33,56  L 33,57  L 32,57  L 32,58  L 31,58  L 31,59  L 32,59  Z  " style="fill:rgb(74, 143, 40); fill-opacity:1.000; stroke:none;" />
 <path d="  M 31,62  L 32,62  L 32,61  L 31,61  Z  " style="fill:rgb(74, 143, 40); fill-opacity:1.000; stroke:none;" />
 <path d="  M 32,64  L 32,63  L 31,63  L 31,64  Z  " style="fill:rgb(74, 143, 40); fill-opacity:1.000; stroke:none;" />
 <path d="  M 32,30  L 33,30  L 33,28  L 32,28  Z  " style="fill:rgb(74, 143, 40); fill-opacity:1.000; stroke:none;" />
 <path d="  M 32,63  L 33,63  L 33,62  L 32,62  Z  " style="fill:rgb(74, 143, 40); fill-opacity:1.000; stroke:none;" />
 <path d="  M 34,40  L 35,40  L 35,39  L 34,39  Z  " style="fill:rgb(74, 143, 40); fill-opacity:1.000; stroke:none;" />
 <path d="  M 35,36  L 35,37  L 36,37  L 36,36  Z  " style="fill:rgb(74, 143, 40); fill-opacity:1.000; stroke:none;" />
 <path d="  M 36,55  L 35,55  L 35,56  L 36,56  Z  " style="fill:rgb(74, 143, 40); fill-opacity:1.000; stroke:none;" />
 <path d="  M 37,55  L 37,54  L 36,54  L 36,55  Z  " style="fill:rgb(74, 143, 40); fill-opacity:1.000; stroke:none;" />
 <path d="  M 37,33  L 38,33  L 38,32  L 37,32  Z  " style="fill:rgb(74, 143, 40); fill-opacity:1.000; stroke:none;" />
 <path d="  M 39,50  L 38,50  L 38,51  L 37,51  L 37,52  L 39,52  Z  " style="fill:rgb(74, 143, 40); fill-opacity:1.000; stroke:none;" />
 <path d="  M 38,54  L 38,53  L 37,53  L 37,54  Z  " style="fill:rgb(74, 143, 40); fill-opacity:1.000; stroke:none;" />
 <path d="  M 39,31  L 40,31  L 40,30  L 39,30  Z  " style="fill:rgb(74, 143, 40); fill-opacity:1.000; stroke:none;" />
 <path d="  M 40,44  L 40,43  L 39,43  L 39,44  Z  " style="fill:rgb(74, 143, 40); fill-opacity:1.000; stroke:none;" />
 <path d="  M 39,46  L 41,46  L 41,45  L 39,45  Z  " style="fill:rgb(74, 143, 40); fill-opacity:1.000; stroke:none;" />
 <path d="  M 40,47  L 39,47  L 39,49  L 40,49  Z  " style="fill:rgb(74, 143, 40); fill-opacity:1.000; stroke:none;" />
 <path d="  M 42,28  L 41,28  L 41,29  L 40,29  L 40,30  L 41,30  L 41,31  L 42,31  Z  " style="fill:rgb(74, 143, 40); fill-opacity:1.000; stroke:none;" />
 <path d="  M 41,41  L 41,40  L 40,40  L 40,41  Z  " style="fill:rgb(74, 143, 40); fill-opacity:1.000; stroke:none;" />
 <path d="  M 42,35  L 42,34  L 41,34  L 41,35  Z  " style="fill:rgb(74, 143, 40); fill-opacity:1.000; stroke:none;" />
 <path d="  M 42,38  L 42,36  L 41,36  L 41,38  Z  " style="fill:rgb(74, 143, 40); fill-opacity:1.000; stroke:none;" />
 <path d="  M 42,41  L 41,41  L 41,43  L 42,43  Z  " style="fill:rgb(74, 143, 40); fill-opacity:1.000; stroke:none;" />
 <path d="  M 22,35  L 23,35  L 23,34  L 22,34  Z  " style="fill:rgb(23, 124, 4); fill-opacity:1.000; stroke:none;" />
 <path d="  M 23,38  L 23,36  L 22,36  L 22,38  Z  " style="fill:rgb(23, 124, 4); fill-opacity:1.000; stroke:none;" />
 <path d="  M 23,40  L 22,40  L 22,43  L 23,43  Z  " style="fill:rgb(23, 124, 4); fill-opacity:1.000; stroke:none;" />
 <path d="  M 23,47  L 23,46  L 22,46  L 22,47  Z  " style="fill:rgb(23, 124, 4); fill-opacity:1.000; stroke:none;" />
 <path d="  M 24,48  L 24,47  L 23,47  L 23,48  Z  " style="fill:rgb(23, 124, 4); fill-opacity:1.000; stroke:none;" />
 <path d="  M 24,50  L 24,49  L 23,49  L 23,50  Z  " style="fill:rgb(23, 124, 4); fill-opacity:1.000; stroke:none;" />
 <path d="  M 24,52  L 25,52  L 25,50  L 24,50  Z  " style="fill:rgb(23, 124, 4); fill-opacity:1.000; stroke:none;" />
 <path d="  M 25,37  L 26,37  L 26,36  L 25,36  Z  " style="fill:rgb(23, 124, 4); fill-opacity:1.000; stroke:none;" />
 <path d="  M 26,52  L 25,52  L 25,54  L 26,54  Z  " style="fill:rgb(23, 124, 4); fill-opacity:1.000; stroke:none;" />
 <path d="  M 26,38  L 26,39  L 27,39  L 27,38  Z  " style="fill:rgb(23, 124, 4); fill-opacity:1.000; stroke:none;" />
 <path d="  M 27,54  L 26,54  L 26,56  L 27,56  Z  " style="fill:rgb(23, 124, 4); fill-opacity:1.000; stroke:none;" />
 <path d="  M 27,40  L 27,41  L 28,41  L 28,40  Z  " style="fill:rgb(23, 124, 4); fill-opacity:1.000; stroke:none;" />
 <path d="  M 28,56  L 27,56  L 27,57  L 28,57  Z  " style="fill:rgb(23, 124, 4); fill-opacity:1.000; stroke:none;" />
 <path d="  M 29,43  L 29,42  L 28,42  L 28,43  Z  " style="fill:rgb(23, 124, 4); fill-opacity:1.000; stroke:none;" />
 <path d="  M 32,61  L 32,59  L 31,59  L 31,58  L 30,58  L 30,57  L 28,57  L 28,58  L 29,58  L 29,59  L 30,59  L 30,60  L 31,60  L 31,61  Z  " style="fill:rgb(23, 124, 4); fill-opacity:1.000; stroke:none;" />
 <path d="  M 30,44  L 30,43  L 29,43  L 29,44  Z  " style="fill:rgb(23, 124, 4); fill-opacity:1.000; stroke:none;" />
 <path d="  M 31,44  L 30,44  L 30,45  L 31,45  Z  " style="fill:rgb(23, 124, 4); fill-opacity:1.000; stroke:none;" />
 <path d="  M 31,33  L 32,33  L 32,28  L 31,28  Z  " style="fill:rgb(23, 124, 4); fill-opacity:1.000; stroke:none;" />
 <path d="  M 32,34  L 31,34  L 31,35  L 32,35  Z  " style="fill:rgb(23, 124, 4); fill-opacity:1.000; stroke:none;" />
 <path d="  M 32,36  L 31,36  L 31,39  L 32,39  Z  " style="fill:rgb(23, 124, 4); fill-opacity:1.000; stroke:none;" />
 <path d="  M 31,40  L 31,41  L 32,41  L 32,40  Z  " style="fill:rgb(23, 124, 4); fill-opacity:1.000; stroke:none;" />
 <path d="  M 32,45  L 31,45  L 31,50  L 32,50  Z  " style="fill:rgb(23, 124, 4); fill-opacity:1.000; stroke:none;" />
 <path d="  M 31,53  L 32,53  L 32,51  L 31,51  Z  " style="fill:rgb(23, 124, 4); fill-opacity:1.000; stroke:none;" />
 <path d="  M 31,58  L 32,58  L 32,55  L 31,55  Z  " style="fill:rgb(23, 124, 4); fill-opacity:1.000; stroke:none;" />
 <path d="  M 31,63  L 32,63  L 32,62  L 31,62  Z  " style="fill:rgb(23, 124, 4); fill-opacity:1.000; stroke:none;" />
 <path d="  M 34,40  L 34,39  L 33,39  L 33,40  Z  " style="fill:rgb(23, 124, 4); fill-opacity:1.000; stroke:none;" />
 <path d="  M 33,58  L 33,59  L 34,59  L 34,58  Z  " style="fill:rgb(23, 124, 4); fill-opacity:1.000; stroke:none;" />
 <path d="  M 34,38  L 34,39  L 35,39  L 35,38  Z  " style="fill:rgb(23, 124, 4); fill-opacity:1.000; stroke:none;" />
 <path d="  M 35,56  L 35,55  L 34,55  L 34,58  L 35,58  L 35,57  L 36,57  L 36,56  Z  " style="fill:rgb(23, 124, 4); fill-opacity:1.000; stroke:none;" />
 <path d="  M 36,37  L 35,37  L 35,38  L 36,38  Z  " style="fill:rgb(23, 124, 4); fill-opacity:1.000; stroke:none;" />
 <path d="  M 37,55  L 36,55  L 36,56  L 37,56  Z  " style="fill:rgb(23, 124, 4); fill-opacity:1.000; stroke:none;" />
 <path d="  M 22,44  L 23,44  L 23,43  L 22,43  Z  " style="fill:rgb(82, 154, 46); fill-opacity:1.000; stroke:none;" />
 <path d="  M 24,37  L 24,36  L 25,36  L 25,35  L 24,35  L 24,34  L 23,34  L 23,37  Z  " style="fill:rgb(82, 154, 46); fill-opacity:1.000; stroke:none;" />
 <path d="  M 25,38  L 25,37  L 24,37  L 24,38  L 23,38  L 23,39  L 25,39  L 25,40  L 26,40  L 26,38  Z  " style="fill:rgb(82, 154, 46); fill-opacity:1.000; stroke:none;" />
 <path d="  M 24,44  L 23,44  L 23,45  L 24,45  Z  " style="fill:rgb(82, 154, 46); fill-opacity:1.000; stroke:none;" />
 <path d="  M 24,40  L 24,41  L 25,41  L 25,40  Z  " style="fill:rgb(82, 154, 46); fill-opacity:1.000; stroke:none;" />
 <path d="  M 25,46  L 24,46  L 24,47  L 25,47  Z  " style="fill:rgb(82, 154, 46); fill-opacity:1.000; stroke:none;" />
 <path d="  M 26,47  L 25,47  L 25,48  L 24,48  L 24,49  L 25,49  L 25,51  L 26,51  L 26,50  L 27,50  L 27,49  L 26,49  Z  " style="fill:rgb(82, 154, 46); fill-opacity:1.000; stroke:none;" />
 <path d="  M 26,42  L 26,41  L 25,41  L 25,42  Z  " style="fill:rgb(82, 154, 46); fill-opacity:1.000; stroke:none;" />
 <path d="  M 27,40  L 26,40  L 26,41  L 27,41  Z  " style="fill:rgb(82, 154, 46); fill-opacity:1.000; stroke:none;" />
 <path d="  M 26,44  L 27,44  L 27,46  L 29,46  L 29,44  L 28,44  L 28,43  L 27,43  L 27,42  L 26,42  Z  " style="fill:rgb(82, 154, 46); fill-opacity:1.000; stroke:none;" />
 <path d="  M 26,52  L 26,53  L 27,53  L 27,52  Z  " style="fill:rgb(82, 154, 46); fill-opacity:1.000; stroke:none;" />
 <path d="  M 28,47  L 27,47  L 27,48  L 28,48  Z  " style="fill:rgb(82, 154, 46); fill-opacity:1.000; stroke:none;" />
 <path d="  M 28,54  L 28,53  L 27,53  L 27,54  Z  " style="fill:rgb(82, 154, 46); fill-opacity:1.000; stroke:none;" />
 <path d="  M 31,49  L 31,46  L 30,46  L 30,47  L 29,47  L 29,48  L 28,48  L 28,50  L 29,50  L 29,52  L 30,52  L 30,54  L 31,54  L 31,51  L 30,51  L 30,49  Z  " style="fill:rgb(82, 154, 46); fill-opacity:1.000; stroke:none;" />
 <path d="  M 29,55  L 28,55  L 28,57  L 29,57  L 29,56  L 30,56  L 30,58  L 31,58  L 31,55  L 30,55  L 30,54  L 29,54  Z  " style="fill:rgb(82, 154, 46); fill-opacity:1.000; stroke:none;" />
 <path d="  M 32,31  L 33,31  L 33,30  L 32,30  Z  " style="fill:rgb(82, 154, 46); fill-opacity:1.000; stroke:none;" />
 <path d="  M 33,39  L 33,37  L 32,37  L 32,39  Z  " style="fill:rgb(82, 154, 46); fill-opacity:1.000; stroke:none;" />
 <path d="  M 33,40  L 32,40  L 32,43  L 33,43  Z  " style="fill:rgb(82, 154, 46); fill-opacity:1.000; stroke:none;" />
 <path d="  M 33,44  L 32,44  L 32,45  L 33,45  Z  " style="fill:rgb(82, 154, 46); fill-opacity:1.000; stroke:none;" />
 <path d="  M 32,46  L 32,47  L 33,47  L 33,46  Z  " style="fill:rgb(82, 154, 46); fill-opacity:1.000; stroke:none;" />
 <path d="  M 33,49  L 33,48  L 32,48  L 32,49  Z  " style="fill:rgb(82, 154, 46); fill-opacity:1.000; stroke:none;" />
 <path d="  M 33,54  L 33,52  L 32,52  L 32,54  Z  " style="fill:rgb(82, 154, 46); fill-opacity:1.000; stroke:none;" />
 <path d="  M 32,63  L 32,64  L 33,64  L 33,63  Z  " style="fill:rgb(82, 154, 46); fill-opacity:1.000; stroke:none;" />
 <path d="  M 34,54  L 35,54  L 35,55  L 36,55  L 36,54  L 37,54  L 37,53  L 36,53  L 36,52  L 37,52  L 37,50  L 36,50  L 36,49  L 35,49  L 35,47  L 36,47  L 36,46  L 35,46  L 35,45  L 36,45  L 36,43  L 35,43  L 35,42  L 36,42  L 36,41  L 35,41  L 35,40  L 34,40  Z  M 36,52  L 35,52  L 35,51  L 36,51  Z  " style="fill:rgb(82, 154, 46); fill-opacity:1.000; stroke:none;" />
 <path d="  M 36,38  L 35,38  L 35,39  L 36,39  Z  " style="fill:rgb(82, 154, 46); fill-opacity:1.000; stroke:none;" />
 <path d="  M 39,33  L 37,33  L 37,34  L 36,34  L 36,37  L 37,37  L 37,35  L 38,35  L 38,34  L 39,34  Z  " style="fill:rgb(82, 154, 46); fill-opacity:1.000; stroke:none;" />
 <path d="  M 36,42  L 36,43  L 37,43  L 37,42  Z  " style="fill:rgb(82, 154, 46); fill-opacity:1.000; stroke:none;" />
 <path d="  M 37,48  L 36,48  L 36,49  L 37,49  Z  " style="fill:rgb(82, 154, 46); fill-opacity:1.000; stroke:none;" />
 <path d="  M 37,37  L 37,38  L 38,38  L 38,37  Z  " style="fill:rgb(82, 154, 46); fill-opacity:1.000; stroke:none;" />
 <path d="  M 38,53  L 38,52  L 37,52  L 37,53  Z  " style="fill:rgb(82, 154, 46); fill-opacity:1.000; stroke:none;" />
 <path d="  M 38,31  L 38,32  L 39,32  L 39,31  Z  " style="fill:rgb(82, 154, 46); fill-opacity:1.000; stroke:none;" />
 <path d="  M 38,35  L 38,37  L 39,37  L 39,36  L 40,36  L 40,35  L 41,35  L 41,34  L 39,34  L 39,35  Z  " style="fill:rgb(82, 154, 46); fill-opacity:1.000; stroke:none;" />
 <path d="  M 38,46  L 39,46  L 39,45  L 38,45  Z  " style="fill:rgb(82, 154, 46); fill-opacity:1.000; stroke:none;" />
 <path d="  M 38,50  L 39,50  L 39,48  L 38,48  Z  " style="fill:rgb(82, 154, 46); fill-opacity:1.000; stroke:none;" />
 <path d="  M 40,32  L 39,32  L 39,33  L 40,33  Z  " style="fill:rgb(82, 154, 46); fill-opacity:1.000; stroke:none;" />
 <path d="  M 39,42  L 39,43  L 40,43  L 40,45  L 41,45  L 41,41  L 40,41  L 40,42  Z  " style="fill:rgb(82, 154, 46); fill-opacity:1.000; stroke:none;" />
 <path d="  M 40,47  L 40,46  L 39,46  L 39,47  Z  " style="fill:rgb(82, 154, 46); fill-opacity:1.000; stroke:none;" />
 <path d="  M 41,31  L 41,30  L 40,30  L 40,32  L 41,32  L 41,34  L 42,34  L 42,31  Z  " style="fill:rgb(82, 154, 46); fill-opacity:1.000; stroke:none;" />
 <path d="  M 42,38  L 41,38  L 41,39  L 40,39  L 40,40  L 41,40  L 41,41  L 42,41  Z  " style="fill:rgb(82, 154, 46); fill-opacity:1.000; stroke:none;" />
 <path d="  M 42,35  L 41,35  L 41,36  L 42,36  Z  " style="fill:rgb(82, 154, 46); fill-opacity:1.000; stroke:none;" />
 <path d="  M 24,38  L 24,37  L 23,37  L 23,38  Z  " style="fill:rgb(85, 171, 45); fill-opacity:1.000; stroke:none;" />
 <path d="  M 23,44  L 24,44  L 24,46  L 25,46  L 25,47  L 26,47  L 26,49  L 27,49  L 27,50  L 26,50  L 26,52  L 27,52  L 27,53  L 28,53  L 28,55  L 29,55  L 29,54  L 30,54  L 30,52  L 29,52  L 29,50  L 28,50  L 28,48  L 29,48  L 29,46  L 27,46  L 27,44  L 26,44  L 26,42  L 25,42  L 25,41  L 24,41  L 24,40  L 25,40  L 25,39  L 23,39  Z  M 27,47  L 28,47  L 28,48  L 27,48  Z  " style="fill:rgb(85, 171, 45); fill-opacity:1.000; stroke:none;" />
 <path d="  M 24,37  L 25,37  L 25,36  L 24,36  Z  " style="fill:rgb(85, 171, 45); fill-opacity:1.000; stroke:none;" />
 <path d="  M 24,48  L 25,48  L 25,47  L 24,47  Z  " style="fill:rgb(85, 171, 45); fill-opacity:1.000; stroke:none;" />
 <path d="  M 26,41  L 26,40  L 25,40  L 25,41  Z  " style="fill:rgb(85, 171, 45); fill-opacity:1.000; stroke:none;" />
 <path d="  M 26,42  L 27,42  L 27,41  L 26,41  Z  " style="fill:rgb(85, 171, 45); fill-opacity:1.000; stroke:none;" />
 <path d="  M 30,55  L 31,55  L 31,54  L 30,54  Z  " style="fill:rgb(85, 171, 45); fill-opacity:1.000; stroke:none;" />
 <path d="  M 33,37  L 33,36  L 32,36  L 32,37  Z  " style="fill:rgb(85, 171, 45); fill-opacity:1.000; stroke:none;" />
 <path d="  M 32,40  L 33,40  L 33,39  L 32,39  Z  " style="fill:rgb(85, 171, 45); fill-opacity:1.000; stroke:none;" />
 <path d="  M 33,44  L 33,43  L 32,43  L 32,44  Z  " style="fill:rgb(85, 171, 45); fill-opacity:1.000; stroke:none;" />
 <path d="  M 32,46  L 33,46  L 33,45  L 32,45  Z  " style="fill:rgb(85, 171, 45); fill-opacity:1.000; stroke:none;" />
 <path d="  M 32,48  L 33,48  L 33,47  L 32,47  Z  " style="fill:rgb(85, 171, 45); fill-opacity:1.000; stroke:none;" />
 <path d="  M 33,49  L 32,49  L 32,51  L 33,51  Z  " style="fill:rgb(85, 171, 45); fill-opacity:1.000; stroke:none;" />
 <path d="  M 32,56  L 32,57  L 33,57  L 33,56  Z  " style="fill:rgb(85, 171, 45); fill-opacity:1.000; stroke:none;" />
 <path d="  M 33,62  L 33,61  L 32,61  L 32,62  Z  " style="fill:rgb(85, 171, 45); fill-opacity:1.000; stroke:none;" />
 <path d="  M 36,47  L 35,47  L 35,49  L 36,49  L 36,50  L 37,50  L 37,51  L 38,51  L 38,48  L 39,48  L 39,46  L 38,46  L 38,45  L 40,45  L 40,44  L 39,44  L 39,42  L 40,42  L 40,39  L 41,39  L 41,35  L 40,35  L 40,36  L 39,36  L 39,37  L 38,37  L 38,38  L 37,38  L 37,37  L 36,37  L 36,39  L 35,39  L 35,41  L 36,41  L 36,42  L 37,42  L 37,43  L 36,43  L 36,45  L 35,45  L 35,46  L 36,46  Z  M 36,48  L 37,48  L 37,49  L 36,49  Z  " style="fill:rgb(85, 171, 45); fill-opacity:1.000; stroke:none;" />
 <path d="  M 36,43  L 36,42  L 35,42  L 35,43  Z  " style="fill:rgb(85, 171, 45); fill-opacity:1.000; stroke:none;" />
 <path d="  M 36,51  L 35,51  L 35,52  L 36,52  Z  " style="fill:rgb(85, 171, 45); fill-opacity:1.000; stroke:none;" />
 <path d="  M 36,53  L 37,53  L 37,52  L 36,52  Z  " style="fill:rgb(85, 171, 45); fill-opacity:1.000; stroke:none;" />
 <path d="  M 38,35  L 37,35  L 37,37  L 38,37  Z  " style="fill:rgb(85, 171, 45); fill-opacity:1.000; stroke:none;" />
 <path d="  M 38,33  L 39,33  L 39,32  L 38,32  Z  " style="fill:rgb(85, 171, 45); fill-opacity:1.000; stroke:none;" />
 <path d="  M 39,34  L 38,34  L 38,35  L 39,35  Z  " style="fill:rgb(85, 171, 45); fill-opacity:1.000; stroke:none;" />
 <path d="  M 39,31  L 39,32  L 40,32  L 40,31  Z  " style="fill:rgb(85, 171, 45); fill-opacity:1.000; stroke:none;" />
 <path d="  M 39,34  L 41,34  L 41,32  L 40,32  L 40,33  L 39,33  Z  " style="fill:rgb(85, 171, 45); fill-opacity:1.000; stroke:none;" />
 <path d="  M 27,16  L 28,16  L 28,15  L 27,15  L 27,14  L 26,14  L 26,19  L 27,19  L 27,18  L 28,18  L 28,17  L 27,17  Z  " style="fill:rgb(211, 125, 50); fill-opacity:1.000; stroke:none;" />
 <path d="  M 27,19  L 27,21  L 28,21  L 28,20  L 29,20  L 29,19  Z  " style="fill:rgb(211, 125, 50); fill-opacity:1.000; stroke:none;" />
 <path d="  M 31,18  L 31,17  L 30,17  L 30,16  L 28,16  L 28,17  L 29,17  L 29,19  L 30,19  L 30,18  Z  " style="fill:rgb(211, 125, 50); fill-opacity:1.000; stroke:none;" />
 <path d="  M 31,21  L 31,22  L 30,22  L 30,20  L 29,20  L 29,23  L 30,23  L 30,24  L 31,24  L 31,25  L 30,25  L 30,26  L 31,26  L 31,27  L 32,27  L 32,26  L 33,26  L 33,25  L 34,25  L 34,24  L 33,24  L 33,23  L 34,23  L 34,21  L 33,21  L 33,20  L 32,20  L 32,21  Z  M 31,23  L 31,22  L 32,22  L 32,23  Z  " style="fill:rgb(211, 125, 50); fill-opacity:1.000; stroke:none;" />
 <path d="  M 29,25  L 30,25  L 30,24  L 29,24  Z  " style="fill:rgb(211, 125, 50); fill-opacity:1.000; stroke:none;" />
 <path d="  M 31,15  L 30,15  L 30,16  L 31,16  Z  " style="fill:rgb(211, 125, 50); fill-opacity:1.000; stroke:none;" />
 <path d="  M 32,15  L 32,14  L 31,14  L 31,15  Z  " style="fill:rgb(211, 125, 50); fill-opacity:1.000; stroke:none;" />
 <path d="  M 33,17  L 33,16  L 34,16  L 34,15  L 32,15  L 32,16  L 31,16  L 31,17  Z  " style="fill:rgb(211, 125, 50); fill-opacity:1.000; stroke:none;" />
 <path d="  M 31,19  L 32,19  L 32,18  L 31,18  Z  " style="fill:rgb(211, 125, 50); fill-opacity:1.000; stroke:none;" />
 <path d="  M 38,14  L 37,14  L 37,15  L 36,15  L 36,16  L 34,16  L 34,17  L 33,17  L 33,18  L 34,18  L 34,19  L 35,19  L 35,18  L 36,18  L 36,19  L 37,19  L 37,18  L 38,18  Z  " style="fill:rgb(211, 125, 50); fill-opacity:1.000; stroke:none;" />
 <path d="  M 33,19  L 33,20  L 34,20  L 34,19  Z  " style="fill:rgb(211, 125, 50); fill-opacity:1.000; stroke:none;" />
 <path d="  M 34,20  L 34,21  L 35,21  L 35,20  Z  " style="fill:rgb(211, 125, 50); fill-opacity:1.000; stroke:none;" />
 <path d="  M 34,23  L 34,24  L 35,24  L 35,23  Z  " style="fill:rgb(211, 125, 50); fill-opacity:1.000; stroke:none;" />
 <path d="  M 35,20  L 36,20  L 36,19  L 35,19  Z  " style="fill:rgb(211, 125, 50); fill-opacity:1.000; stroke:none;" />
 <path d="  M 35,21  L 35,22  L 36,22  L 36,21  Z  " style="fill:rgb(211, 125, 50); fill-opacity:1.000; stroke:none;" />
 <path d="  M 36,20  L 36,21  L 37,21  L 37,20  Z  " style="fill:rgb(211, 125, 50); fill-opacity:1.000; stroke:none;" />
 <path d="  M 27,19  L 26,19  L 26,20  L 27,20  Z  " style="fill:rgb(189, 106, 34); fill-opacity:1.000; stroke:none;" />
 <path d="  M 28,24  L 30,24  L 30,23  L 29,23  L 29,20  L 28,20  L 28,21  L 27,21  L 27,22  L 28,22  Z  " style="fill:rgb(189, 106, 34); fill-opacity:1.000; stroke:none;" />
 <path d="  M 29,25  L 29,26  L 30,26  L 30,25  Z  " style="fill:rgb(189, 106, 34); fill-opacity:1.000; stroke:none;" />
 <path d="  M 31,24  L 30,24  L 30,25  L 31,25  Z  " style="fill:rgb(189, 106, 34); fill-opacity:1.000; stroke:none;" />
 <path d="  M 32,27  L 31,27  L 31,26  L 30,26  L 30,28  L 34,28  L 34,26  L 35,26  L 35,24  L 34,24  L 34,25  L 33,25  L 33,26  L 32,26  Z  " style="fill:rgb(189, 106, 34); fill-opacity:1.000; stroke:none;" />
 <path d="  M 31,16  L 32,16  L 32,15  L 31,15  Z  " style="fill:rgb(189, 106, 34); fill-opacity:1.000; stroke:none;" />
 <path d="  M 33,14  L 32,14  L 32,15  L 33,15  Z  " style="fill:rgb(189, 106, 34); fill-opacity:1.000; stroke:none;" />
 <path d="  M 34,23  L 33,23  L 33,24  L 34,24  Z  " style="fill:rgb(189, 106, 34); fill-opacity:1.000; stroke:none;" />
 <path d="  M 34,21  L 34,23  L 35,23  L 35,24  L 36,24  L 36,22  L 35,22  L 35,21  Z  " style="fill:rgb(189, 106, 34); fill-opacity:1.000; stroke:none;" />
 <path d="  M 36,18  L 35,18  L 35,19  L 36,19  Z  " style="fill:rgb(189, 106, 34); fill-opacity:1.000; stroke:none;" />
 <path d="  M 36,20  L 35,20  L 35,21  L 36,21  Z  " style="fill:rgb(189, 106, 34); fill-opacity:1.000; stroke:none;" />
 <path d="  M 38,20  L 38,18  L 37,18  L 37,19  L 36,19  L 36,20  Z  " style="fill:rgb(189, 106, 34); fill-opacity:1.000; stroke:none;" />
 <path d="  M 36,21  L 36,22  L 37,22  L 37,21  Z  " style="fill:rgb(189, 106, 34); fill-opacity:1.000; stroke:none;" />
 <path d="  M 28,17  L 28,16  L 27,16  L 27,17  Z  " style="fill:rgb(241, 157, 37); fill-opacity:1.000; stroke:none;" />
 <path d="  M 27,19  L 29,19  L 29,17  L 28,17  L 28,18  L 27,18  Z  " style="fill:rgb(241, 157, 37); fill-opacity:1.000; stroke:none;" />
 <path d="  M 30,22  L 31,22  L 31,21  L 32,21  L 32,20  L 33,20  L 33,19  L 34,19  L 34,18  L 33,18  L 33,17  L 31,17  L 31,18  L 30,18  L 30,19  L 29,19  L 29,20  L 30,20  Z  M 32,19  L 31,19  L 31,18  L 32,18  Z  " style="fill:rgb(241, 157, 37); fill-opacity:1.000; stroke:none;" />
 <path d="  M 31,16  L 30,16  L 30,17  L 31,17  Z  " style="fill:rgb(241, 157, 37); fill-opacity:1.000; stroke:none;" />
 <path d="  M 31,23  L 32,23  L 32,22  L 31,22  Z  " style="fill:rgb(241, 157, 37); fill-opacity:1.000; stroke:none;" />
 <path d="  M 33,17  L 34,17  L 34,16  L 33,16  Z  " style="fill:rgb(241, 157, 37); fill-opacity:1.000; stroke:none;" />
 <path d="  M 34,20  L 33,20  L 33,21  L 34,21  Z  " style="fill:rgb(241, 157, 37); fill-opacity:1.000; stroke:none;" />
 <path d="  M 35,20  L 35,19  L 34,19  L 34,20  Z  " style="fill:rgb(241, 157, 37); fill-opacity:1.000; stroke:none;" />
</svg>
