<?xml version="1.0" encoding="UTF-8" standalone="no"?>
<!DOCTYPE svg PUBLIC "-//W3C//DTD SVG 1.1//EN" 
  "http://www.w3.org/Graphics/SVG/1.1/DTD/svg11.dtd">
<svg width="64" height="64"
	 xmlns="http://www.w3.org/2000/svg" version="1.1">
 <path d="  M 0,0  L 0,8  L 1,8  L 1,4  L 2,4  L 2,2  L 3,2  L 3,1  L 8,1  L 8,0  Z  " style="fill:rgb(78, 75, 84); fill-opacity:1.000; stroke:none;" />
 <path d="  M 2,13  L 1,13  L 1,12  L 0,12  L 0,24  L 1,24  L 1,19  L 2,19  L 2,20  L 5,20  L 5,19  L 4,19  L 4,18  L 2,18  L 2,17  L 3,17  L 3,16  L 4,16  L 4,15  L 3,15  L 3,14  L 2,14  Z  M 2,17  L 1,17  L 1,15  L 2,15  Z  " style="fill:rgb(78, 75, 84); fill-opacity:1.000; stroke:none;" />
 <path d="  M 0,29  L 1,29  L 1,30  L 2,30  L 2,28  L 1,28  L 1,27  L 0,27  Z  " style="fill:rgb(78, 75, 84); fill-opacity:1.000; stroke:none;" />
 <path d="  M 2,38  L 2,35  L 3,35  L 3,36  L 4,36  L 4,33  L 3,33  L 3,30  L 2,30  L 2,32  L 1,32  L 1,36  L 0,36  L 0,40  L 1,40  L 1,38  Z  " style="fill:rgb(78, 75, 84); fill-opacity:1.000; stroke:none;" />
 <path d="  M 1,47  L 2,47  L 2,46  L 1,46  L 1,44  L 0,44  L 0,50  L 1,50  Z  " style="fill:rgb(78, 75, 84); fill-opacity:1.000; stroke:none;" />
 <path d="  M 1,54  L 0,54  L 0,57  L 1,57  Z  " style="fill:rgb(78, 75, 84); fill-opacity:1.000; stroke:none;" />
 <path d="  M 0,59  L 1,59  L 1,58  L 0,58  Z  " style="fill:rgb(78, 75, 84); fill-opacity:1.000; stroke:none;" />
 <path d="  M 2,45  L 2,46  L 3,46  L 3,45  Z  " style="fill:rgb(78, 75, 84); fill-opacity:1.000; stroke:none;" />
 <path d="  M 3,2  L 3,3  L 4,3  L 4,2  Z  " style="fill:rgb(78, 75, 84); fill-opacity:1.000; stroke:none;" />
 <path d="  M 5,12  L 5,11  L 4,11  L 4,12  Z  " style="fill:rgb(78, 75, 84); fill-opacity:1.000; stroke:none;" />
 <path d="  M 5,15  L 5,14  L 4,14  L 4,15  Z  " style="fill:rgb(78, 75, 84); fill-opacity:1.000; stroke:none;" />
 <path d="  M 6,13  L 6,12  L 5,12  L 5,14  L 6,14  L 6,15  L 5,15  L 5,16  L 4,16  L 4,17  L 5,17  L 5,18  L 6,18  L 6,16  L 7,16  L 7,13  Z  " style="fill:rgb(78, 75, 84); fill-opacity:1.000; stroke:none;" />
 <path d="  M 4,36  L 4,37  L 5,37  L 5,36  Z  " style="fill:rgb(78, 75, 84); fill-opacity:1.000; stroke:none;" />
 <path d="  M 7,20  L 5,20  L 5,21  L 6,21  L 6,22  L 8,22  L 8,21  L 7,21  Z  " style="fill:rgb(78, 75, 84); fill-opacity:1.000; stroke:none;" />
 <path d="  M 8,55  L 8,56  L 7,56  L 7,57  L 9,57  L 9,56  L 10,56  L 10,55  Z  " style="fill:rgb(78, 75, 84); fill-opacity:1.000; stroke:none;" />
 <path d="  M 8,1  L 8,2  L 10,2  L 10,1  Z  " style="fill:rgb(78, 75, 84); fill-opacity:1.000; stroke:none;" />
 <path d="  M 9,22  L 8,22  L 8,23  L 9,23  Z  " style="fill:rgb(78, 75, 84); fill-opacity:1.000; stroke:none;" />
 <path d="  M 9,45  L 8,45  L 8,46  L 9,46  Z  " style="fill:rgb(78, 75, 84); fill-opacity:1.000; stroke:none;" />
 <path d="  M 12,26  L 11,26  L 11,25  L 9,25  L 9,26  L 10,26  L 10,27  L 12,27  Z  " style="fill:rgb(78, 75, 84); fill-opacity:1.000; stroke:none;" />
 <path d="  M 10,27  L 9,27  L 9,28  L 10,28  Z  " style="fill:rgb(78, 75, 84); fill-opacity:1.000; stroke:none;" />
 <path d="  M 9,43  L 9,45  L 10,45  L 10,44  L 11,44  L 11,42  L 10,42  L 10,43  Z  " style="fill:rgb(78, 75, 84); fill-opacity:1.000; stroke:none;" />
 <path d="  M 11,32  L 10,32  L 10,33  L 11,33  L 11,34  L 12,34  L 12,31  L 11,31  Z  " style="fill:rgb(78, 75, 84); fill-opacity:1.000; stroke:none;" />
 <path d="  M 12,40  L 11,40  L 11,42  L 12,42  Z  " style="fill:rgb(78, 75, 84); fill-opacity:1.000; stroke:none;" />
 <path d="  M 18,2  L 18,1  L 23,1  L 23,2  L 24,2  L 24,1  L 25,1  L 25,0  L 12,0  L 12,1  L 16,1  L 16,2  Z  " style="fill:rgb(78, 75, 84); fill-opacity:1.000; stroke:none;" />
 <path d="  M 14,28  L 13,28  L 13,29  L 12,29  L 12,31  L 13,31  L 13,30  L 14,30  Z  " style="fill:rgb(78, 75, 84); fill-opacity:1.000; stroke:none;" />
 <path d="  M 13,34  L 12,34  L 12,35  L 13,35  Z  " style="fill:rgb(78, 75, 84); fill-opacity:1.000; stroke:none;" />
 <path d="  M 15,27  L 14,27  L 14,28  L 15,28  Z  " style="fill:rgb(78, 75, 84); fill-opacity:1.000; stroke:none;" />
 <path d="  M 15,14  L 16,14  L 16,13  L 15,13  Z  " style="fill:rgb(78, 75, 84); fill-opacity:1.000; stroke:none;" />
 <path d="  M 16,12  L 16,13  L 17,13  L 17,12  Z  " style="fill:rgb(78, 75, 84); fill-opacity:1.000; stroke:none;" />
 <path d="  M 17,11  L 18,11  L 18,10  L 17,10  Z  " style="fill:rgb(78, 75, 84); fill-opacity:1.000; stroke:none;" />
 <path d="  M 18,2  L 18,3  L 19,3  L 19,2  Z  " style="fill:rgb(78, 75, 84); fill-opacity:1.000; stroke:none;" />
 <path d="  M 18,7  L 18,10  L 19,10  L 19,8  L 20,8  L 20,6  L 19,6  L 19,7  Z  " style="fill:rgb(78, 75, 84); fill-opacity:1.000; stroke:none;" />
 <path d="  M 19,34  L 20,34  L 20,33  L 19,33  Z  " style="fill:rgb(78, 75, 84); fill-opacity:1.000; stroke:none;" />
 <path d="  M 22,36  L 22,35  L 21,35  L 21,34  L 20,34  L 20,36  L 21,36  L 21,38  L 22,38  L 22,40  L 23,40  L 23,36  Z  " style="fill:rgb(78, 75, 84); fill-opacity:1.000; stroke:none;" />
 <path d="  M 27,2  L 27,1  L 25,1  L 25,2  Z  " style="fill:rgb(78, 75, 84); fill-opacity:1.000; stroke:none;" />
 <path d="  M 30,3  L 29,3  L 29,2  L 27,2  L 27,3  L 28,3  L 28,4  L 30,4  Z  " style="fill:rgb(78, 75, 84); fill-opacity:1.000; stroke:none;" />
 <path d="  M 36,1  L 36,0  L 28,0  L 28,1  Z  " style="fill:rgb(78, 75, 84); fill-opacity:1.000; stroke:none;" />
 <path d="  M 35,34  L 35,33  L 34,33  L 34,34  Z  " style="fill:rgb(78, 75, 84); fill-opacity:1.000; stroke:none;" />
 <path d="  M 35,27  L 36,27  L 36,26  L 35,26  Z  " style="fill:rgb(78, 75, 84); fill-opacity:1.000; stroke:none;" />
 <path d="  M 35,33  L 37,33  L 37,32  L 40,32  L 40,31  L 39,31  L 39,30  L 38,30  L 38,28  L 37,28  L 37,27  L 36,27  L 36,29  L 37,29  L 37,31  L 36,31  L 36,32  L 35,32  Z  " style="fill:rgb(78, 75, 84); fill-opacity:1.000; stroke:none;" />
 <path d="  M 39,14  L 37,14  L 37,15  L 39,15  Z  " style="fill:rgb(78, 75, 84); fill-opacity:1.000; stroke:none;" />
 <path d="  M 39,14  L 40,14  L 40,13  L 39,13  Z  " style="fill:rgb(78, 75, 84); fill-opacity:1.000; stroke:none;" />
 <path d="  M 42,0  L 41,0  L 41,1  L 42,1  Z  " style="fill:rgb(78, 75, 84); fill-opacity:1.000; stroke:none;" />
 <path d="  M 42,8  L 42,9  L 45,9  L 45,8  Z  " style="fill:rgb(78, 75, 84); fill-opacity:1.000; stroke:none;" />
 <path d="  M 44,23  L 44,22  L 43,22  L 43,23  Z  " style="fill:rgb(78, 75, 84); fill-opacity:1.000; stroke:none;" />
 <path d="  M 50,1  L 50,0  L 44,0  L 44,1  Z  " style="fill:rgb(78, 75, 84); fill-opacity:1.000; stroke:none;" />
 <path d="  M 48,20  L 45,20  L 45,21  L 44,21  L 44,22  L 46,22  L 46,21  L 48,21  Z  " style="fill:rgb(78, 75, 84); fill-opacity:1.000; stroke:none;" />
 <path d="  M 45,9  L 45,10  L 47,10  L 47,11  L 50,11  L 50,10  L 48,10  L 48,9  Z  " style="fill:rgb(78, 75, 84); fill-opacity:1.000; stroke:none;" />
 <path d="  M 47,12  L 47,11  L 46,11  L 46,12  Z  " style="fill:rgb(78, 75, 84); fill-opacity:1.000; stroke:none;" />
 <path d="  M 51,9  L 50,9  L 50,10  L 51,10  Z  " style="fill:rgb(78, 75, 84); fill-opacity:1.000; stroke:none;" />
 <path d="  M 56,0  L 56,1  L 58,1  L 58,0  Z  " style="fill:rgb(78, 75, 84); fill-opacity:1.000; stroke:none;" />
 <path d="  M 59,1  L 62,1  L 62,0  L 59,0  Z  " style="fill:rgb(78, 75, 84); fill-opacity:1.000; stroke:none;" />
 <path d="  M 3,11  L 3,10  L 4,10  L 4,9  L 3,9  L 3,7  L 4,7  L 4,6  L 6,6  L 6,5  L 5,5  L 5,3  L 6,3  L 6,4  L 7,4  L 7,5  L 9,5  L 9,4  L 8,4  L 8,3  L 11,3  L 11,2  L 16,2  L 16,1  L 12,1  L 12,0  L 8,0  L 8,1  L 3,1  L 3,2  L 2,2  L 2,4  L 1,4  L 1,8  L 0,8  L 0,12  L 1,12  L 1,13  L 2,13  L 2,14  L 3,14  L 3,15  L 4,15  L 4,14  L 5,14  L 5,12  L 4,12  L 4,11  Z  M 3,2  L 4,2  L 4,3  L 3,3  Z  M 7,3  L 6,3  L 6,2  L 7,2  Z  M 8,2  L 8,1  L 10,1  L 10,2  Z  M 3,7  L 2,7  L 2,5  L 3,5  Z  " style="fill:rgb(60, 57, 71); fill-opacity:1.000; stroke:none;" />
 <path d="  M 6,24  L 5,24  L 5,26  L 4,26  L 4,25  L 3,25  L 3,24  L 2,24  L 2,22  L 1,22  L 1,24  L 0,24  L 0,27  L 1,27  L 1,28  L 2,28  L 2,30  L 3,30  L 3,29  L 4,29  L 4,30  L 5,30  L 5,28  L 6,28  L 6,29  L 7,29  L 7,27  L 6,27  Z  " style="fill:rgb(60, 57, 71); fill-opacity:1.000; stroke:none;" />
 <path d="  M 2,32  L 2,30  L 1,30  L 1,29  L 0,29  L 0,36  L 1,36  L 1,32  Z  " style="fill:rgb(60, 57, 71); fill-opacity:1.000; stroke:none;" />
 <path d="  M 11,41  L 9,41  L 9,40  L 8,40  L 8,39  L 7,39  L 7,38  L 6,38  L 6,37  L 5,37  L 5,38  L 4,38  L 4,36  L 3,36  L 3,35  L 2,35  L 2,38  L 1,38  L 1,40  L 0,40  L 0,44  L 1,44  L 1,46  L 2,46  L 2,45  L 4,45  L 4,46  L 5,46  L 5,47  L 6,47  L 6,45  L 5,45  L 5,44  L 4,44  L 4,42  L 3,42  L 3,40  L 4,40  L 4,41  L 5,41  L 5,43  L 6,43  L 6,42  L 7,42  L 7,41  L 8,41  L 8,43  L 7,43  L 7,44  L 8,44  L 8,45  L 9,45  L 9,43  L 10,43  L 10,42  L 11,42  Z  M 3,39  L 3,40  L 2,40  L 2,39  Z  " style="fill:rgb(60, 57, 71); fill-opacity:1.000; stroke:none;" />
 <path d="  M 1,50  L 0,50  L 0,54  L 1,54  L 1,57  L 0,57  L 0,58  L 1,58  L 1,59  L 0,59  L 0,63  L 1,63  L 1,62  L 2,62  L 2,60  L 3,60  L 3,59  L 2,59  L 2,56  L 3,56  L 3,57  L 4,57  L 4,54  L 3,54  L 3,52  L 2,52  L 2,47  L 1,47  Z  " style="fill:rgb(60, 57, 71); fill-opacity:1.000; stroke:none;" />
 <path d="  M 2,15  L 1,15  L 1,17  L 2,17  Z  " style="fill:rgb(60, 57, 71); fill-opacity:1.000; stroke:none;" />
 <path d="  M 11,22  L 10,22  L 10,20  L 11,20  L 11,18  L 13,18  L 13,17  L 12,17  L 12,16  L 11,16  L 11,17  L 9,17  L 9,18  L 8,18  L 8,17  L 7,17  L 7,16  L 6,16  L 6,18  L 5,18  L 5,17  L 4,17  L 4,16  L 3,16  L 3,17  L 2,17  L 2,18  L 4,18  L 4,19  L 5,19  L 5,20  L 2,20  L 2,19  L 1,19  L 1,21  L 2,21  L 2,22  L 3,22  L 3,23  L 6,23  L 6,24  L 7,24  L 7,26  L 8,26  L 8,28  L 9,28  L 9,31  L 10,31  L 10,32  L 11,32  L 11,31  L 12,31  L 12,34  L 13,34  L 13,35  L 11,35  L 11,36  L 12,36  L 12,38  L 11,38  L 11,39  L 12,39  L 12,42  L 11,42  L 11,44  L 10,44  L 10,45  L 11,45  L 11,46  L 12,46  L 12,44  L 13,44  L 13,42  L 14,42  L 14,41  L 15,41  L 15,40  L 16,40  L 16,39  L 15,39  L 15,38  L 13,38  L 13,37  L 14,37  L 14,36  L 15,36  L 15,35  L 16,35  L 16,34  L 15,34  L 15,32  L 16,32  L 16,30  L 17,30  L 17,33  L 18,33  L 18,35  L 19,35  L 19,36  L 20,36  L 20,34  L 21,34  L 21,35  L 22,35  L 22,36  L 23,36  L 23,40  L 22,40  L 22,41  L 23,41  L 23,42  L 24,42  L 24,41  L 25,41  L 25,40  L 27,40  L 27,41  L 26,41  L 26,42  L 29,42  L 29,41  L 31,41  L 31,40  L 30,40  L 30,39  L 29,39  L 29,38  L 28,38  L 28,39  L 26,39  L 26,38  L 24,38  L 24,37  L 27,37  L 27,36  L 25,36  L 25,35  L 24,35  L 24,34  L 23,34  L 23,33  L 22,33  L 22,32  L 23,32  L 23,31  L 24,31  L 24,30  L 25,30  L 25,29  L 23,29  L 23,30  L 20,30  L 20,29  L 19,29  L 19,30  L 18,30  L 18,28  L 19,28  L 19,26  L 20,26  L 20,25  L 21,25  L 21,24  L 23,24  L 23,23  L 22,23  L 22,22  L 24,22  L 24,21  L 23,21  L 23,20  L 22,20  L 22,21  L 21,21  L 21,22  L 19,22  L 19,23  L 20,23  L 20,24  L 18,24  L 18,25  L 17,25  L 17,23  L 18,23  L 18,22  L 17,22  L 17,21  L 16,21  L 16,22  L 15,22  L 15,24  L 14,24  L 14,22  L 13,22  L 13,23  L 12,23  L 12,24  L 11,24  Z  M 11,25  L 11,26  L 12,26  L 12,27  L 10,27  L 10,26  L 9,26  L 9,25  Z  M 5,21  L 5,20  L 7,20  L 7,21  L 8,21  L 8,22  L 6,22  L 6,21  Z  M 19,33  L 20,33  L 20,34  L 19,34  Z  M 14,28  L 14,30  L 13,30  L 13,31  L 12,31  L 12,29  L 13,29  L 13,28  Z  M 9,20  L 9,19  L 10,19  L 10,20  Z  M 15,27  L 15,28  L 14,28  L 14,27  Z  M 14,25  L 13,25  L 13,24  L 14,24  Z  M 10,28  L 9,28  L 9,27  L 10,27  Z  M 8,23  L 8,22  L 9,22  L 9,23  Z  M 22,31  L 22,32  L 21,32  L 21,31  Z  M 14,32  L 14,31  L 15,31  L 15,32  Z  M 16,25  L 17,25  L 17,26  L 16,26  Z  " style="fill:rgb(60, 57, 71); fill-opacity:1.000; stroke:none;" />
 <path d="  M 3,48  L 4,48  L 4,46  L 2,46  L 2,47  L 3,47  Z  " style="fill:rgb(60, 57, 71); fill-opacity:1.000; stroke:none;" />
 <path d="  M 3,33  L 4,33  L 4,36  L 5,36  L 5,35  L 6,35  L 6,34  L 5,34  L 5,32  L 4,32  L 4,30  L 3,30  Z  " style="fill:rgb(60, 57, 71); fill-opacity:1.000; stroke:none;" />
 <path d="  M 5,16  L 5,15  L 4,15  L 4,16  Z  " style="fill:rgb(60, 57, 71); fill-opacity:1.000; stroke:none;" />
 <path d="  M 4,48  L 4,50  L 5,50  L 5,51  L 6,51  L 6,49  L 5,49  L 5,48  Z  " style="fill:rgb(60, 57, 71); fill-opacity:1.000; stroke:none;" />
 <path d="  M 5,58  L 5,57  L 4,57  L 4,58  Z  " style="fill:rgb(60, 57, 71); fill-opacity:1.000; stroke:none;" />
 <path d="  M 5,10  L 5,11  L 6,11  L 6,13  L 7,13  L 7,12  L 9,12  L 9,11  L 8,11  L 8,10  Z  " style="fill:rgb(60, 57, 71); fill-opacity:1.000; stroke:none;" />
 <path d="  M 6,15  L 6,14  L 5,14  L 5,15  Z  " style="fill:rgb(60, 57, 71); fill-opacity:1.000; stroke:none;" />
 <path d="  M 11,38  L 11,37  L 10,37  L 10,36  L 9,36  L 9,35  L 8,35  L 8,36  L 6,36  L 6,37  L 7,37  L 7,38  Z  " style="fill:rgb(60, 57, 71); fill-opacity:1.000; stroke:none;" />
 <path d="  M 6,52  L 7,52  L 7,51  L 6,51  Z  " style="fill:rgb(60, 57, 71); fill-opacity:1.000; stroke:none;" />
 <path d="  M 7,59  L 8,59  L 8,60  L 9,60  L 9,57  L 7,57  L 7,56  L 6,56  L 6,58  L 7,58  Z  " style="fill:rgb(60, 57, 71); fill-opacity:1.000; stroke:none;" />
 <path d="  M 7,13  L 7,14  L 8,14  L 8,13  Z  " style="fill:rgb(60, 57, 71); fill-opacity:1.000; stroke:none;" />
 <path d="  M 10,14  L 8,14  L 8,15  L 7,15  L 7,16  L 9,16  L 9,15  L 10,15  Z  " style="fill:rgb(60, 57, 71); fill-opacity:1.000; stroke:none;" />
 <path d="  M 7,34  L 8,34  L 8,33  L 7,33  Z  " style="fill:rgb(60, 57, 71); fill-opacity:1.000; stroke:none;" />
 <path d="  M 7,45  L 7,46  L 8,46  L 8,45  Z  " style="fill:rgb(60, 57, 71); fill-opacity:1.000; stroke:none;" />
 <path d="  M 7,54  L 7,56  L 8,56  L 8,55  L 10,55  L 10,56  L 12,56  L 12,55  L 11,55  L 11,54  L 10,54  L 10,53  L 9,53  L 9,54  Z  " style="fill:rgb(60, 57, 71); fill-opacity:1.000; stroke:none;" />
 <path d="  M 9,33  L 9,31  L 8,31  L 8,33  Z  " style="fill:rgb(60, 57, 71); fill-opacity:1.000; stroke:none;" />
 <path d="  M 9,47  L 9,46  L 8,46  L 8,47  Z  " style="fill:rgb(60, 57, 71); fill-opacity:1.000; stroke:none;" />
 <path d="  M 9,52  L 8,52  L 8,53  L 9,53  Z  " style="fill:rgb(60, 57, 71); fill-opacity:1.000; stroke:none;" />
 <path d="  M 11,35  L 11,33  L 10,33  L 10,34  L 9,34  L 9,35  Z  " style="fill:rgb(60, 57, 71); fill-opacity:1.000; stroke:none;" />
 <path d="  M 10,46  L 10,45  L 9,45  L 9,46  Z  " style="fill:rgb(60, 57, 71); fill-opacity:1.000; stroke:none;" />
 <path d="  M 9,56  L 9,57  L 10,57  L 10,56  Z  " style="fill:rgb(60, 57, 71); fill-opacity:1.000; stroke:none;" />
 <path d="  M 11,61  L 11,60  L 9,60  L 9,61  L 10,61  L 10,62  L 12,62  L 12,61  Z  " style="fill:rgb(60, 57, 71); fill-opacity:1.000; stroke:none;" />
 <path d="  M 19,12  L 20,12  L 20,11  L 21,11  L 21,10  L 22,10  L 22,8  L 21,8  L 21,6  L 20,6  L 20,8  L 19,8  L 19,10  L 18,10  L 18,11  L 17,11  L 17,13  L 16,13  L 16,11  L 15,11  L 15,10  L 14,10  L 14,9  L 13,9  L 13,8  L 12,8  L 12,9  L 10,9  L 10,10  L 13,10  L 13,11  L 12,11  L 12,12  L 11,12  L 11,13  L 13,13  L 13,14  L 14,14  L 14,15  L 15,15  L 15,16  L 16,16  L 16,17  L 17,17  L 17,16  L 18,16  L 18,14  L 19,14  Z  M 15,13  L 16,13  L 16,14  L 15,14  Z  M 13,12  L 14,12  L 14,13  L 13,13  Z  " style="fill:rgb(60, 57, 71); fill-opacity:1.000; stroke:none;" />
 <path d="  M 10,15  L 10,16  L 11,16  L 11,15  Z  " style="fill:rgb(60, 57, 71); fill-opacity:1.000; stroke:none;" />
 <path d="  M 11,40  L 11,39  L 10,39  L 10,40  Z  " style="fill:rgb(60, 57, 71); fill-opacity:1.000; stroke:none;" />
 <path d="  M 12,53  L 11,53  L 11,54  L 13,54  L 13,53  L 14,53  L 14,52  L 13,52  L 13,51  L 12,51  Z  " style="fill:rgb(60, 57, 71); fill-opacity:1.000; stroke:none;" />
 <path d="  M 17,7  L 17,9  L 16,9  L 16,7  Z  M 16,4  L 16,3  L 15,3  L 15,4  L 12,4  L 12,5  L 14,5  L 14,6  L 15,6  L 15,9  L 16,9  L 16,10  L 18,10  L 18,7  L 19,7  L 19,6  L 20,6  L 20,4  L 19,4  L 19,5  L 17,5  L 17,4  Z  " style="fill:rgb(60, 57, 71); fill-opacity:1.000; stroke:none;" />
 <path d="  M 14,55  L 14,56  L 12,56  L 12,57  L 13,57  L 13,58  L 14,58  L 14,57  L 15,57  L 15,56  L 16,56  L 16,55  Z  " style="fill:rgb(60, 57, 71); fill-opacity:1.000; stroke:none;" />
 <path d="  M 15,43  L 14,43  L 14,44  L 15,44  Z  " style="fill:rgb(60, 57, 71); fill-opacity:1.000; stroke:none;" />
 <path d="  M 14,52  L 15,52  L 15,51  L 14,51  Z  " style="fill:rgb(60, 57, 71); fill-opacity:1.000; stroke:none;" />
 <path d="  M 16,17  L 15,17  L 15,18  L 16,18  Z  " style="fill:rgb(60, 57, 71); fill-opacity:1.000; stroke:none;" />
 <path d="  M 18,42  L 17,42  L 17,41  L 18,41  Z  M 19,44  L 19,42  L 20,42  L 20,40  L 19,40  L 19,41  L 18,41  L 18,40  L 16,40  L 16,41  L 15,41  L 15,43  L 16,43  L 16,45  L 17,45  L 17,48  L 18,48  L 18,49  L 19,49  L 19,47  L 18,47  L 18,44  Z  " style="fill:rgb(60, 57, 71); fill-opacity:1.000; stroke:none;" />
 <path d="  M 18,2  L 16,2  L 16,3  L 18,3  Z  " style="fill:rgb(60, 57, 71); fill-opacity:1.000; stroke:none;" />
 <path d="  M 17,20  L 17,21  L 18,21  L 18,20  Z  " style="fill:rgb(60, 57, 71); fill-opacity:1.000; stroke:none;" />
 <path d="  M 18,35  L 17,35  L 17,36  L 18,36  Z  " style="fill:rgb(60, 57, 71); fill-opacity:1.000; stroke:none;" />
 <path d="  M 24,6  L 24,5  L 25,5  L 25,4  L 26,4  L 26,3  L 27,3  L 27,2  L 25,2  L 25,1  L 24,1  L 24,2  L 23,2  L 23,1  L 18,1  L 18,2  L 19,2  L 19,3  L 20,3  L 20,4  L 21,4  L 21,5  L 22,5  L 22,6  Z  " style="fill:rgb(60, 57, 71); fill-opacity:1.000; stroke:none;" />
 <path d="  M 19,4  L 19,3  L 18,3  L 18,4  Z  " style="fill:rgb(60, 57, 71); fill-opacity:1.000; stroke:none;" />
 <path d="  M 21,36  L 20,36  L 20,37  L 19,37  L 19,38  L 20,38  L 20,40  L 22,40  L 22,38  L 21,38  Z  " style="fill:rgb(60, 57, 71); fill-opacity:1.000; stroke:none;" />
 <path d="  M 20,50  L 20,49  L 19,49  L 19,50  Z  " style="fill:rgb(60, 57, 71); fill-opacity:1.000; stroke:none;" />
 <path d="  M 22,26  L 22,25  L 21,25  L 21,26  Z  " style="fill:rgb(60, 57, 71); fill-opacity:1.000; stroke:none;" />
 <path d="  M 21,41  L 21,42  L 22,42  L 22,41  Z  " style="fill:rgb(60, 57, 71); fill-opacity:1.000; stroke:none;" />
 <path d="  M 23,11  L 23,10  L 22,10  L 22,12  L 23,12  L 23,13  L 24,13  L 24,11  Z  " style="fill:rgb(60, 57, 71); fill-opacity:1.000; stroke:none;" />
 <path d="  M 26,51  L 26,50  L 27,50  L 27,51  L 28,51  L 28,50  L 29,50  L 29,51  L 31,51  L 31,52  L 32,52  L 32,53  L 33,53  L 33,54  L 34,54  L 34,51  L 33,51  L 33,48  L 32,48  L 32,47  L 31,47  L 31,49  L 30,49  L 30,47  L 29,47  L 29,48  L 28,48  L 28,49  L 27,49  L 27,48  L 24,48  L 24,47  L 22,47  L 22,48  L 23,48  L 23,49  L 25,49  L 25,50  L 24,50  L 24,51  Z  M 31,50  L 31,49  L 32,49  L 32,50  Z  " style="fill:rgb(60, 57, 71); fill-opacity:1.000; stroke:none;" />
 <path d="  M 24,13  L 24,14  L 25,14  L 25,13  Z  " style="fill:rgb(60, 57, 71); fill-opacity:1.000; stroke:none;" />
 <path d="  M 28,24  L 28,23  L 26,23  L 26,22  L 24,22  L 24,23  L 25,23  L 25,24  Z  " style="fill:rgb(60, 57, 71); fill-opacity:1.000; stroke:none;" />
 <path d="  M 32,5  L 32,4  L 31,4  L 31,3  L 35,3  L 35,2  L 37,2  L 37,1  L 38,1  L 38,2  L 39,2  L 39,1  L 41,1  L 41,2  L 44,2  L 44,3  L 45,3  L 45,4  L 47,4  L 47,5  L 48,5  L 48,6  L 50,6  L 50,7  L 47,7  L 47,6  L 46,6  L 46,7  L 45,7  L 45,6  L 42,6  L 42,5  L 41,5  L 41,4  L 40,4  L 40,6  L 39,6  L 39,5  L 36,5  L 36,4  L 33,4  L 33,5  Z  M 36,9  L 35,9  L 35,10  L 37,10  L 37,11  L 39,11  L 39,10  L 41,10  L 41,9  L 42,9  L 42,8  L 45,8  L 45,9  L 48,9  L 48,10  L 50,10  L 50,9  L 51,9  L 51,10  L 53,10  L 53,11  L 52,11  L 52,12  L 54,12  L 54,9  L 55,9  L 55,7  L 54,7  L 54,5  L 53,5  L 53,4  L 50,4  L 50,3  L 48,3  L 48,2  L 52,2  L 52,1  L 56,1  L 56,0  L 50,0  L 50,1  L 44,1  L 44,0  L 42,0  L 42,1  L 41,1  L 41,0  L 36,0  L 36,1  L 28,1  L 28,0  L 25,0  L 25,1  L 27,1  L 27,2  L 29,2  L 29,3  L 30,3  L 30,4  L 28,4  L 28,3  L 27,3  L 27,4  L 26,4  L 26,6  L 27,6  L 27,7  L 29,7  L 29,8  L 30,8  L 30,7  L 31,7  L 31,6  L 34,6  L 34,5  L 35,5  L 35,6  L 36,6  L 36,7  L 39,7  L 39,8  L 38,8  L 38,9  L 37,9  L 37,8  L 36,8  Z  M 31,6  L 30,6  L 30,5  L 31,5  Z  M 51,8  L 50,8  L 50,7  L 51,7  Z  " style="fill:rgb(60, 57, 71); fill-opacity:1.000; stroke:none;" />
 <path d="  M 26,29  L 26,28  L 25,28  L 25,29  Z  " style="fill:rgb(60, 57, 71); fill-opacity:1.000; stroke:none;" />
 <path d="  M 28,14  L 28,15  L 26,15  L 26,16  L 29,16  L 29,15  L 30,15  L 30,14  Z  " style="fill:rgb(60, 57, 71); fill-opacity:1.000; stroke:none;" />
 <path d="  M 27,52  L 27,51  L 26,51  L 26,52  Z  " style="fill:rgb(60, 57, 71); fill-opacity:1.000; stroke:none;" />
 <path d="  M 31,12  L 31,11  L 28,11  L 28,12  Z  " style="fill:rgb(60, 57, 71); fill-opacity:1.000; stroke:none;" />
 <path d="  M 28,36  L 28,37  L 29,37  L 29,36  Z  " style="fill:rgb(60, 57, 71); fill-opacity:1.000; stroke:none;" />
 <path d="  M 28,46  L 28,47  L 29,47  L 29,46  Z  " style="fill:rgb(60, 57, 71); fill-opacity:1.000; stroke:none;" />
 <path d="  M 29,36  L 30,36  L 30,35  L 29,35  Z  " style="fill:rgb(60, 57, 71); fill-opacity:1.000; stroke:none;" />
 <path d="  M 29,37  L 29,38  L 32,38  L 32,39  L 34,39  L 34,38  L 33,38  L 33,37  L 32,37  L 32,36  L 30,36  L 30,37  Z  " style="fill:rgb(60, 57, 71); fill-opacity:1.000; stroke:none;" />
 <path d="  M 34,15  L 34,16  L 33,16  L 33,15  Z  M 33,13  L 33,12  L 31,12  L 31,13  L 30,13  L 30,14  L 32,14  L 32,15  L 31,15  L 31,16  L 33,16  L 33,17  L 34,17  L 34,18  L 36,18  L 36,17  L 39,17  L 39,16  L 38,16  L 38,15  L 37,15  L 37,14  L 36,14  L 36,13  Z  " style="fill:rgb(60, 57, 71); fill-opacity:1.000; stroke:none;" />
 <path d="  M 31,16  L 30,16  L 30,17  L 31,17  Z  " style="fill:rgb(60, 57, 71); fill-opacity:1.000; stroke:none;" />
 <path d="  M 32,36  L 33,36  L 33,35  L 34,35  L 34,33  L 33,33  L 33,34  L 32,34  Z  " style="fill:rgb(60, 57, 71); fill-opacity:1.000; stroke:none;" />
 <path d="  M 34,25  L 34,24  L 33,24  L 33,25  Z  " style="fill:rgb(60, 57, 71); fill-opacity:1.000; stroke:none;" />
 <path d="  M 34,25  L 34,26  L 36,26  L 36,25  Z  " style="fill:rgb(60, 57, 71); fill-opacity:1.000; stroke:none;" />
 <path d="  M 35,32  L 36,32  L 36,31  L 37,31  L 37,29  L 36,29  L 36,30  L 35,30  L 35,31  L 34,31  L 34,33  L 35,33  Z  " style="fill:rgb(60, 57, 71); fill-opacity:1.000; stroke:none;" />
 <path d="  M 34,55  L 35,55  L 35,54  L 34,54  Z  " style="fill:rgb(60, 57, 71); fill-opacity:1.000; stroke:none;" />
 <path d="  M 35,27  L 35,29  L 36,29  L 36,27  Z  " style="fill:rgb(60, 57, 71); fill-opacity:1.000; stroke:none;" />
 <path d="  M 37,33  L 35,33  L 35,34  L 38,34  L 38,33  L 40,33  L 40,32  L 37,32  Z  " style="fill:rgb(60, 57, 71); fill-opacity:1.000; stroke:none;" />
 <path d="  M 37,18  L 36,18  L 36,19  L 37,19  Z  " style="fill:rgb(60, 57, 71); fill-opacity:1.000; stroke:none;" />
 <path d="  M 38,26  L 36,26  L 36,27  L 37,27  L 37,28  L 39,28  L 39,27  L 38,27  Z  " style="fill:rgb(60, 57, 71); fill-opacity:1.000; stroke:none;" />
 <path d="  M 37,13  L 37,14  L 39,14  L 39,13  Z  " style="fill:rgb(60, 57, 71); fill-opacity:1.000; stroke:none;" />
 <path d="  M 47,14  L 47,15  L 48,15  L 48,14  L 49,14  L 49,13  L 48,13  L 48,12  L 50,12  L 50,11  L 47,11  L 47,10  L 45,10  L 45,9  L 42,9  L 42,10  L 41,10  L 41,11  L 40,11  L 40,12  L 39,12  L 39,13  L 40,13  L 40,14  L 42,14  L 42,13  L 43,13  L 43,12  L 44,12  L 44,14  L 43,14  L 43,16  L 42,16  L 42,18  L 41,18  L 41,19  L 42,19  L 42,20  L 40,20  L 40,21  L 39,21  L 39,22  L 37,22  L 37,23  L 38,23  L 38,24  L 39,24  L 39,23  L 40,23  L 40,22  L 42,22  L 42,23  L 43,23  L 43,22  L 44,22  L 44,21  L 45,21  L 45,20  L 46,20  L 46,18  L 45,18  L 45,19  L 43,19  L 43,18  L 44,18  L 44,17  L 45,17  L 45,16  L 46,16  L 46,15  L 45,15  L 45,14  Z  M 46,12  L 46,11  L 47,11  L 47,12  Z  " style="fill:rgb(60, 57, 71); fill-opacity:1.000; stroke:none;" />
 <path d="  M 40,4  L 40,3  L 38,3  L 38,4  Z  " style="fill:rgb(60, 57, 71); fill-opacity:1.000; stroke:none;" />
 <path d="  M 39,21  L 39,20  L 38,20  L 38,21  Z  " style="fill:rgb(60, 57, 71); fill-opacity:1.000; stroke:none;" />
 <path d="  M 38,29  L 38,30  L 40,30  L 40,29  Z  " style="fill:rgb(60, 57, 71); fill-opacity:1.000; stroke:none;" />
 <path d="  M 39,14  L 39,15  L 40,15  L 40,14  Z  " style="fill:rgb(60, 57, 71); fill-opacity:1.000; stroke:none;" />
 <path d="  M 40,17  L 40,18  L 41,18  L 41,17  Z  " style="fill:rgb(60, 57, 71); fill-opacity:1.000; stroke:none;" />
 <path d="  M 42,30  L 40,30  L 40,32  L 41,32  L 41,31  L 42,31  Z  " style="fill:rgb(60, 57, 71); fill-opacity:1.000; stroke:none;" />
 <path d="  M 41,46  L 40,46  L 40,47  L 41,47  L 41,48  L 42,48  L 42,45  L 44,45  L 44,44  L 45,44  L 45,43  L 46,43  L 46,42  L 44,42  L 44,43  L 42,43  L 42,44  L 41,44  Z  " style="fill:rgb(60, 57, 71); fill-opacity:1.000; stroke:none;" />
 <path d="  M 40,54  L 41,54  L 41,53  L 40,53  Z  " style="fill:rgb(60, 57, 71); fill-opacity:1.000; stroke:none;" />
 <path d="  M 45,29  L 45,27  L 44,27  L 44,28  L 41,28  L 41,29  L 42,29  L 42,30  L 43,30  L 43,32  L 44,32  L 44,29  Z  " style="fill:rgb(60, 57, 71); fill-opacity:1.000; stroke:none;" />
 <path d="  M 42,55  L 42,56  L 44,56  L 44,55  L 43,55  L 43,54  L 41,54  L 41,55  Z  " style="fill:rgb(60, 57, 71); fill-opacity:1.000; stroke:none;" />
 <path d="  M 42,32  L 42,33  L 43,33  L 43,32  Z  " style="fill:rgb(60, 57, 71); fill-opacity:1.000; stroke:none;" />
 <path d="  M 43,48  L 42,48  L 42,49  L 43,49  Z  " style="fill:rgb(60, 57, 71); fill-opacity:1.000; stroke:none;" />
 <path d="  M 44,25  L 44,26  L 45,26  L 45,27  L 46,27  L 46,26  L 47,26  L 47,25  L 46,25  L 46,24  L 45,24  L 45,23  L 47,23  L 47,22  L 48,22  L 48,23  L 51,23  L 51,24  L 54,24  L 54,23  L 53,23  L 53,22  L 52,22  L 52,21  L 50,21  L 50,20  L 48,20  L 48,21  L 46,21  L 46,22  L 44,22  L 44,24  L 43,24  L 43,25  Z  " style="fill:rgb(60, 57, 71); fill-opacity:1.000; stroke:none;" />
 <path d="  M 43,27  L 44,27  L 44,26  L 43,26  Z  " style="fill:rgb(60, 57, 71); fill-opacity:1.000; stroke:none;" />
 <path d="  M 46,56  L 44,56  L 44,57  L 45,57  L 45,58  L 48,58  L 48,57  L 46,57  Z  " style="fill:rgb(60, 57, 71); fill-opacity:1.000; stroke:none;" />
 <path d="  M 47,42  L 47,41  L 46,41  L 46,42  Z  " style="fill:rgb(60, 57, 71); fill-opacity:1.000; stroke:none;" />
 <path d="  M 48,24  L 48,23  L 47,23  L 47,24  Z  " style="fill:rgb(60, 57, 71); fill-opacity:1.000; stroke:none;" />
 <path d="  M 47,36  L 47,37  L 48,37  L 48,36  Z  " style="fill:rgb(60, 57, 71); fill-opacity:1.000; stroke:none;" />
 <path d="  M 48,15  L 48,16  L 49,16  L 49,15  Z  " style="fill:rgb(60, 57, 71); fill-opacity:1.000; stroke:none;" />
 <path d="  M 50,28  L 49,28  L 49,31  L 48,31  L 48,36  L 49,36  L 49,34  L 50,34  L 50,32  L 51,32  L 51,31  L 50,31  Z  " style="fill:rgb(60, 57, 71); fill-opacity:1.000; stroke:none;" />
 <path d="  M 49,58  L 48,58  L 48,59  L 49,59  Z  " style="fill:rgb(60, 57, 71); fill-opacity:1.000; stroke:none;" />
 <path d="  M 51,26  L 51,25  L 49,25  L 49,26  Z  " style="fill:rgb(60, 57, 71); fill-opacity:1.000; stroke:none;" />
 <path d="  M 51,11  L 51,10  L 50,10  L 50,11  Z  " style="fill:rgb(60, 57, 71); fill-opacity:1.000; stroke:none;" />
 <path d="  M 50,35  L 51,35  L 51,34  L 50,34  Z  " style="fill:rgb(60, 57, 71); fill-opacity:1.000; stroke:none;" />
 <path d="  M 52,27  L 52,26  L 51,26  L 51,27  Z  " style="fill:rgb(60, 57, 71); fill-opacity:1.000; stroke:none;" />
 <path d="  M 51,58  L 51,59  L 52,59  L 52,60  L 54,60  L 54,59  L 53,59  L 53,58  Z  " style="fill:rgb(60, 57, 71); fill-opacity:1.000; stroke:none;" />
 <path d="  M 55,4  L 55,3  L 53,3  L 53,4  Z  " style="fill:rgb(60, 57, 71); fill-opacity:1.000; stroke:none;" />
 <path d="  M 59,55  L 59,54  L 58,54  L 58,53  L 56,53  L 56,54  L 53,54  L 53,55  L 55,55  L 55,56  L 60,56  L 60,55  Z  " style="fill:rgb(60, 57, 71); fill-opacity:1.000; stroke:none;" />
 <path d="  M 54,12  L 54,14  L 55,14  L 55,16  L 56,16  L 56,13  L 55,13  L 55,12  Z  " style="fill:rgb(60, 57, 71); fill-opacity:1.000; stroke:none;" />
 <path d="  M 54,24  L 54,25  L 55,25  L 55,24  Z  " style="fill:rgb(60, 57, 71); fill-opacity:1.000; stroke:none;" />
 <path d="  M 55,35  L 55,34  L 54,34  L 54,36  L 55,36  L 55,38  L 56,38  L 56,35  Z  " style="fill:rgb(60, 57, 71); fill-opacity:1.000; stroke:none;" />
 <path d="  M 55,44  L 55,43  L 54,43  L 54,44  Z  " style="fill:rgb(60, 57, 71); fill-opacity:1.000; stroke:none;" />
 <path d="  M 54,56  L 54,57  L 55,57  L 55,56  Z  " style="fill:rgb(60, 57, 71); fill-opacity:1.000; stroke:none;" />
 <path d="  M 57,4  L 55,4  L 55,5  L 56,5  L 56,6  L 57,6  L 57,8  L 58,8  L 58,5  L 57,5  Z  " style="fill:rgb(60, 57, 71); fill-opacity:1.000; stroke:none;" />
 <path d="  M 61,36  L 62,36  L 62,35  L 61,35  L 61,34  L 60,34  L 60,32  L 59,32  L 59,36  L 58,36  L 58,39  L 57,39  L 57,38  L 56,38  L 56,42  L 55,42  L 55,43  L 57,43  L 57,42  L 58,42  L 58,40  L 59,40  L 59,41  L 60,41  L 60,42  L 61,42  L 61,40  L 60,40  L 60,38  L 61,38  Z  " style="fill:rgb(60, 57, 71); fill-opacity:1.000; stroke:none;" />
 <path d="  M 57,1  L 57,2  L 58,2  L 58,1  Z  " style="fill:rgb(60, 57, 71); fill-opacity:1.000; stroke:none;" />
 <path d="  M 58,10  L 57,10  L 57,11  L 58,11  Z  " style="fill:rgb(60, 57, 71); fill-opacity:1.000; stroke:none;" />
 <path d="  M 58,48  L 58,45  L 57,45  L 57,49  L 58,49  L 58,51  L 59,51  L 59,48  Z  " style="fill:rgb(60, 57, 71); fill-opacity:1.000; stroke:none;" />
 <path d="  M 58,0  L 58,1  L 59,1  L 59,0  Z  " style="fill:rgb(60, 57, 71); fill-opacity:1.000; stroke:none;" />
 <path d="  M 59,8  L 58,8  L 58,10  L 59,10  Z  " style="fill:rgb(60, 57, 71); fill-opacity:1.000; stroke:none;" />
 <path d="  M 58,32  L 59,32  L 59,31  L 58,31  Z  " style="fill:rgb(60, 57, 71); fill-opacity:1.000; stroke:none;" />
 <path d="  M 59,47  L 59,48  L 60,48  L 60,47  Z  " style="fill:rgb(60, 57, 71); fill-opacity:1.000; stroke:none;" />
 <path d="  M 60,52  L 60,51  L 59,51  L 59,53  L 61,53  L 61,52  Z  " style="fill:rgb(60, 57, 71); fill-opacity:1.000; stroke:none;" />
 <path d="  M 60,1  L 60,2  L 62,2  L 62,1  Z  " style="fill:rgb(60, 57, 71); fill-opacity:1.000; stroke:none;" />
 <path d="  M 62,42  L 61,42  L 61,43  L 62,43  Z  " style="fill:rgb(60, 57, 71); fill-opacity:1.000; stroke:none;" />
 <path d="  M 62,54  L 62,53  L 61,53  L 61,54  Z  " style="fill:rgb(60, 57, 71); fill-opacity:1.000; stroke:none;" />
 <path d="  M 63,1  L 63,0  L 62,0  L 62,1  Z  " style="fill:rgb(60, 57, 71); fill-opacity:1.000; stroke:none;" />
 <path d="  M 0,64  L 1,64  L 1,63  L 0,63  Z  " style="fill:rgb(49, 44, 54); fill-opacity:1.000; stroke:none;" />
 <path d="  M 1,21  L 1,22  L 2,22  L 2,21  Z  " style="fill:rgb(49, 44, 54); fill-opacity:1.000; stroke:none;" />
 <path d="  M 2,63  L 2,62  L 1,62  L 1,63  Z  " style="fill:rgb(49, 44, 54); fill-opacity:1.000; stroke:none;" />
 <path d="  M 2,7  L 3,7  L 3,5  L 2,5  Z  " style="fill:rgb(49, 44, 54); fill-opacity:1.000; stroke:none;" />
 <path d="  M 5,24  L 6,24  L 6,23  L 3,23  L 3,22  L 2,22  L 2,24  L 3,24  L 3,25  L 4,25  L 4,26  L 5,26  Z  " style="fill:rgb(49, 44, 54); fill-opacity:1.000; stroke:none;" />
 <path d="  M 3,40  L 3,39  L 2,39  L 2,40  Z  " style="fill:rgb(49, 44, 54); fill-opacity:1.000; stroke:none;" />
 <path d="  M 57,39  L 58,39  L 58,36  L 59,36  L 59,32  L 58,32  L 58,33  L 57,33  L 57,32  L 55,32  L 55,31  L 56,31  L 56,30  L 58,30  L 58,29  L 59,29  L 59,28  L 60,28  L 60,27  L 58,27  L 58,26  L 59,26  L 59,25  L 61,25  L 61,23  L 62,23  L 62,24  L 64,24  L 64,22  L 63,22  L 63,20  L 62,20  L 62,19  L 63,19  L 63,18  L 64,18  L 64,17  L 63,17  L 63,16  L 62,16  L 62,15  L 61,15  L 61,16  L 60,16  L 60,17  L 61,17  L 61,18  L 60,18  L 60,19  L 58,19  L 58,20  L 57,20  L 57,21  L 54,21  L 54,20  L 56,20  L 56,19  L 57,19  L 57,18  L 58,18  L 58,17  L 59,17  L 59,16  L 58,16  L 58,14  L 57,14  L 57,13  L 56,13  L 56,16  L 55,16  L 55,17  L 53,17  L 53,18  L 51,18  L 51,19  L 50,19  L 50,21  L 52,21  L 52,22  L 53,22  L 53,23  L 54,23  L 54,24  L 51,24  L 51,23  L 48,23  L 48,24  L 47,24  L 47,23  L 45,23  L 45,24  L 46,24  L 46,25  L 47,25  L 47,26  L 46,26  L 46,27  L 45,27  L 45,29  L 44,29  L 44,30  L 45,30  L 45,31  L 46,31  L 46,33  L 45,33  L 45,34  L 44,34  L 44,36  L 45,36  L 45,37  L 46,37  L 46,38  L 44,38  L 44,39  L 43,39  L 43,40  L 41,40  L 41,41  L 42,41  L 42,42  L 40,42  L 40,44  L 39,44  L 39,46  L 41,46  L 41,44  L 42,44  L 42,43  L 44,43  L 44,42  L 46,42  L 46,43  L 45,43  L 45,44  L 44,44  L 44,45  L 42,45  L 42,48  L 40,48  L 40,50  L 41,50  L 41,52  L 40,52  L 40,53  L 41,53  L 41,54  L 39,54  L 39,51  L 38,51  L 38,50  L 36,50  L 36,48  L 37,48  L 37,46  L 36,46  L 36,45  L 35,45  L 35,44  L 34,44  L 34,43  L 33,43  L 33,42  L 32,42  L 32,43  L 30,43  L 30,44  L 28,44  L 28,45  L 26,45  L 26,46  L 23,46  L 23,45  L 22,45  L 22,46  L 20,46  L 20,47  L 19,47  L 19,49  L 18,49  L 18,48  L 17,48  L 17,45  L 15,45  L 15,47  L 14,47  L 14,49  L 13,49  L 13,48  L 12,48  L 12,46  L 11,46  L 11,45  L 10,45  L 10,46  L 9,46  L 9,47  L 8,47  L 8,46  L 7,46  L 7,45  L 8,45  L 8,44  L 7,44  L 7,43  L 8,43  L 8,41  L 7,41  L 7,42  L 6,42  L 6,43  L 5,43  L 5,41  L 4,41  L 4,40  L 3,40  L 3,42  L 4,42  L 4,44  L 5,44  L 5,45  L 6,45  L 6,47  L 5,47  L 5,46  L 4,46  L 4,48  L 3,48  L 3,47  L 2,47  L 2,52  L 3,52  L 3,54  L 4,54  L 4,57  L 3,57  L 3,56  L 2,56  L 2,59  L 3,59  L 3,60  L 2,60  L 2,62  L 10,62  L 10,61  L 9,61  L 9,60  L 8,60  L 8,59  L 7,59  L 7,58  L 6,58  L 6,56  L 7,56  L 7,54  L 9,54  L 9,53  L 10,53  L 10,54  L 11,54  L 11,55  L 12,55  L 12,56  L 14,56  L 14,55  L 16,55  L 16,56  L 15,56  L 15,57  L 14,57  L 14,58  L 15,58  L 15,59  L 16,59  L 16,58  L 17,58  L 17,59  L 20,59  L 20,60  L 21,60  L 21,61  L 22,61  L 22,60  L 24,60  L 24,59  L 22,59  L 22,58  L 20,58  L 20,57  L 22,57  L 22,56  L 24,56  L 24,55  L 26,55  L 26,56  L 25,56  L 25,57  L 24,57  L 24,58  L 28,58  L 28,57  L 30,57  L 30,56  L 32,56  L 32,57  L 36,57  L 36,58  L 40,58  L 40,59  L 44,59  L 44,60  L 47,60  L 47,61  L 48,61  L 48,62  L 52,62  L 52,61  L 54,61  L 54,60  L 55,60  L 55,59  L 58,59  L 58,60  L 57,60  L 57,61  L 58,61  L 58,62  L 60,62  L 60,61  L 59,61  L 59,60  L 61,60  L 61,59  L 62,59  L 62,54  L 61,54  L 61,53  L 59,53  L 59,51  L 58,51  L 58,49  L 57,49  L 57,45  L 56,45  L 56,46  L 55,46  L 55,47  L 56,47  L 56,48  L 55,48  L 55,49  L 54,49  L 54,50  L 53,50  L 53,51  L 55,51  L 55,52  L 54,52  L 54,53  L 53,53  L 53,52  L 52,52  L 52,51  L 51,51  L 51,52  L 50,52  L 50,54  L 49,54  L 49,55  L 48,55  L 48,56  L 47,56  L 47,54  L 46,54  L 46,53  L 45,53  L 45,52  L 44,52  L 44,51  L 46,51  L 46,50  L 47,50  L 47,49  L 46,49  L 46,48  L 47,48  L 47,46  L 48,46  L 48,47  L 49,47  L 49,44  L 50,44  L 50,42  L 51,42  L 51,38  L 52,38  L 52,41  L 53,41  L 53,43  L 55,43  L 55,42  L 56,42  L 56,38  L 57,38  Z  M 58,28  L 57,28  L 57,27  L 58,27  Z  M 13,51  L 13,52  L 14,52  L 14,53  L 13,53  L 13,54  L 11,54  L 11,53  L 12,53  L 12,51  Z  M 58,54  L 59,54  L 59,55  L 60,55  L 60,56  L 55,56  L 55,55  L 53,55  L 53,54  L 56,54  L 56,53  L 58,53  Z  M 9,49  L 9,50  L 10,50  L 10,51  L 8,51  L 8,50  L 7,50  L 7,49  Z  M 4,48  L 5,48  L 5,49  L 6,49  L 6,51  L 5,51  L 5,50  L 4,50  Z  M 46,40  L 45,40  L 45,39  L 47,39  L 47,40  L 48,40  L 48,41  L 47,41  L 47,42  L 46,42  Z  M 51,31  L 51,30  L 52,30  L 52,31  Z  M 34,54  L 33,54  L 33,53  L 32,53  L 32,52  L 31,52  L 31,51  L 29,51  L 29,50  L 28,50  L 28,51  L 27,51  L 27,52  L 26,52  L 26,51  L 24,51  L 24,50  L 25,50  L 25,49  L 23,49  L 23,48  L 22,48  L 22,47  L 24,47  L 24,48  L 27,48  L 27,49  L 28,49  L 28,48  L 29,48  L 29,47  L 30,47  L 30,49  L 31,49  L 31,47  L 32,47  L 32,48  L 33,48  L 33,51  L 34,51  Z  M 59,22  L 57,22  L 57,21  L 59,21  Z  M 5,53  L 5,54  L 4,54  L 4,53  Z  M 19,54  L 19,53  L 18,53  L 18,52  L 20,52  L 20,53  L 22,53  L 22,54  Z  M 54,32  L 53,32  L 53,33  L 52,33  L 52,31  L 53,31  L 53,28  L 54,28  L 54,27  L 55,27  L 55,29  L 54,29  Z  M 50,32  L 50,34  L 49,34  L 49,36  L 48,36  L 48,31  L 49,31  L 49,28  L 50,28  L 50,31  L 51,31  L 51,32  Z  M 26,46  L 27,46  L 27,47  L 26,47  Z  M 51,25  L 51,26  L 49,26  L 49,25  Z  M 41,54  L 43,54  L 43,55  L 44,55  L 44,56  L 42,56  L 42,55  L 41,55  Z  M 15,51  L 15,52  L 14,52  L 14,51  Z  M 29,47  L 28,47  L 28,46  L 29,46  Z  M 54,24  L 55,24  L 55,25  L 54,25  Z  M 48,59  L 48,58  L 49,58  L 49,59  Z  M 46,57  L 48,57  L 48,58  L 45,58  L 45,57  L 44,57  L 44,56  L 46,56  Z  M 8,53  L 8,52  L 9,52  L 9,53  Z  M 17,52  L 17,51  L 18,51  L 18,52  Z  M 51,58  L 53,58  L 53,59  L 54,59  L 54,60  L 52,60  L 52,59  L 51,59  Z  M 5,54  L 6,54  L 6,55  L 5,55  Z  M 55,36  L 54,36  L 54,34  L 55,34  L 55,35  L 56,35  L 56,38  L 55,38  Z  M 52,53  L 53,53  L 53,54  L 52,54  Z  M 15,50  L 14,50  L 14,49  L 15,49  Z  M 19,50  L 19,49  L 20,49  L 20,50  Z  M 35,54  L 35,55  L 34,55  L 34,54  Z  M 26,55  L 26,54  L 27,54  L 27,55  Z  M 4,58  L 4,57  L 5,57  L 5,58  Z  M 50,35  L 50,34  L 51,34  L 51,35  Z  M 49,40  L 48,40  L 48,39  L 49,39  Z  M 36,51  L 35,51  L 35,50  L 36,50  Z  M 55,57  L 54,57  L 54,56  L 55,56  Z  M 46,45  L 47,45  L 47,46  L 46,46  Z  M 43,48  L 43,49  L 42,49  L 42,48  Z  M 52,26  L 52,27  L 51,27  L 51,26  Z  M 11,52  L 10,52  L 10,51  L 11,51  Z  M 53,27  L 53,26  L 54,26  L 54,27  Z  M 54,41  L 53,41  L 53,40  L 54,40  Z  M 58,59  L 58,58  L 59,58  L 59,59  Z  M 47,36  L 48,36  L 48,37  L 47,37  Z  M 7,52  L 6,52  L 6,51  L 7,51  Z  " style="fill:rgb(49, 44, 54); fill-opacity:1.000; stroke:none;" />
 <path d="  M 4,9  L 4,8  L 5,8  L 5,7  L 6,7  L 6,6  L 4,6  L 4,7  L 3,7  L 3,9  Z  " style="fill:rgb(49, 44, 54); fill-opacity:1.000; stroke:none;" />
 <path d="  M 4,9  L 4,10  L 3,10  L 3,11  L 5,11  L 5,10  L 8,10  L 8,9  L 7,9  L 7,8  L 5,8  L 5,9  Z  " style="fill:rgb(49, 44, 54); fill-opacity:1.000; stroke:none;" />
 <path d="  M 3,29  L 3,30  L 4,30  L 4,29  Z  " style="fill:rgb(49, 44, 54); fill-opacity:1.000; stroke:none;" />
 <path d="  M 3,46  L 4,46  L 4,45  L 3,45  Z  " style="fill:rgb(49, 44, 54); fill-opacity:1.000; stroke:none;" />
 <path d="  M 5,28  L 5,30  L 4,30  L 4,32  L 6,32  L 6,30  L 7,30  L 7,29  L 6,29  L 6,28  Z  " style="fill:rgb(49, 44, 54); fill-opacity:1.000; stroke:none;" />
 <path d="  M 5,37  L 4,37  L 4,38  L 5,38  Z  " style="fill:rgb(49, 44, 54); fill-opacity:1.000; stroke:none;" />
 <path d="  M 11,3  L 8,3  L 8,4  L 9,4  L 9,5  L 7,5  L 7,4  L 6,4  L 6,3  L 5,3  L 5,5  L 6,5  L 6,6  L 7,6  L 7,7  L 9,7  L 9,8  L 10,8  L 10,9  L 12,9  L 12,8  L 13,8  L 13,9  L 14,9  L 14,10  L 15,10  L 15,11  L 16,11  L 16,12  L 17,12  L 17,10  L 16,10  L 16,9  L 15,9  L 15,6  L 14,6  L 14,5  L 12,5  L 12,4  L 15,4  L 15,3  L 16,3  L 16,2  L 11,2  Z  M 11,7  L 11,8  L 10,8  L 10,7  Z  " style="fill:rgb(49, 44, 54); fill-opacity:1.000; stroke:none;" />
 <path d="  M 6,12  L 6,11  L 5,11  L 5,12  Z  " style="fill:rgb(49, 44, 54); fill-opacity:1.000; stroke:none;" />
 <path d="  M 9,33  L 8,33  L 8,31  L 7,31  L 7,32  L 6,32  L 6,33  L 5,33  L 5,34  L 6,34  L 6,35  L 5,35  L 5,37  L 6,37  L 6,36  L 8,36  L 8,35  L 9,35  L 9,34  L 10,34  L 10,31  L 9,31  Z  M 8,33  L 8,34  L 7,34  L 7,33  Z  " style="fill:rgb(49, 44, 54); fill-opacity:1.000; stroke:none;" />
 <path d="  M 7,2  L 6,2  L 6,3  L 7,3  Z  " style="fill:rgb(49, 44, 54); fill-opacity:1.000; stroke:none;" />
 <path d="  M 8,26  L 7,26  L 7,24  L 6,24  L 6,27  L 8,27  Z  " style="fill:rgb(49, 44, 54); fill-opacity:1.000; stroke:none;" />
 <path d="  M 7,38  L 7,37  L 6,37  L 6,38  Z  " style="fill:rgb(49, 44, 54); fill-opacity:1.000; stroke:none;" />
 <path d="  M 11,15  L 11,16  L 12,16  L 12,17  L 13,17  L 13,18  L 11,18  L 11,20  L 10,20  L 10,22  L 11,22  L 11,24  L 12,24  L 12,23  L 13,23  L 13,22  L 12,22  L 12,21  L 13,21  L 13,20  L 12,20  L 12,19  L 14,19  L 14,18  L 15,18  L 15,17  L 16,17  L 16,16  L 15,16  L 15,15  L 14,15  L 14,14  L 13,14  L 13,13  L 11,13  L 11,12  L 12,12  L 12,11  L 13,11  L 13,10  L 10,10  L 10,9  L 9,9  L 9,10  L 8,10  L 8,11  L 9,11  L 9,12  L 7,12  L 7,13  L 8,13  L 8,14  L 10,14  L 10,15  Z  " style="fill:rgb(49, 44, 54); fill-opacity:1.000; stroke:none;" />
 <path d="  M 8,15  L 8,14  L 7,14  L 7,15  Z  " style="fill:rgb(49, 44, 54); fill-opacity:1.000; stroke:none;" />
 <path d="  M 7,16  L 7,17  L 8,17  L 8,18  L 9,18  L 9,17  L 11,17  L 11,16  L 10,16  L 10,15  L 9,15  L 9,16  Z  " style="fill:rgb(49, 44, 54); fill-opacity:1.000; stroke:none;" />
 <path d="  M 7,38  L 7,39  L 8,39  L 8,40  L 9,40  L 9,41  L 11,41  L 11,40  L 10,40  L 10,39  L 11,39  L 11,38  Z  " style="fill:rgb(49, 44, 54); fill-opacity:1.000; stroke:none;" />
 <path d="  M 8,28  L 8,31  L 9,31  L 9,28  Z  " style="fill:rgb(49, 44, 54); fill-opacity:1.000; stroke:none;" />
 <path d="  M 9,19  L 9,20  L 10,20  L 10,19  Z  " style="fill:rgb(49, 44, 54); fill-opacity:1.000; stroke:none;" />
 <path d="  M 10,37  L 11,37  L 11,38  L 12,38  L 12,36  L 11,36  L 11,35  L 9,35  L 9,36  L 10,36  Z  " style="fill:rgb(49, 44, 54); fill-opacity:1.000; stroke:none;" />
 <path d="  M 9,60  L 11,60  L 11,61  L 12,61  L 12,62  L 14,62  L 14,61  L 16,61  L 16,60  L 15,60  L 15,59  L 13,59  L 13,57  L 12,57  L 12,56  L 10,56  L 10,57  L 9,57  Z  " style="fill:rgb(49, 44, 54); fill-opacity:1.000; stroke:none;" />
 <path d="  M 11,34  L 11,35  L 12,35  L 12,34  Z  " style="fill:rgb(49, 44, 54); fill-opacity:1.000; stroke:none;" />
 <path d="  M 11,39  L 11,40  L 12,40  L 12,39  Z  " style="fill:rgb(49, 44, 54); fill-opacity:1.000; stroke:none;" />
 <path d="  M 15,41  L 14,41  L 14,42  L 13,42  L 13,44  L 12,44  L 12,46  L 14,46  L 14,45  L 15,45  L 15,44  L 14,44  L 14,43  L 15,43  Z  " style="fill:rgb(49, 44, 54); fill-opacity:1.000; stroke:none;" />
 <path d="  M 13,12  L 13,13  L 14,13  L 14,12  Z  " style="fill:rgb(49, 44, 54); fill-opacity:1.000; stroke:none;" />
 <path d="  M 28,39  L 28,38  L 29,38  L 29,37  L 28,37  L 28,36  L 29,36  L 29,35  L 30,35  L 30,36  L 32,36  L 32,34  L 33,34  L 33,33  L 34,33  L 34,31  L 35,31  L 35,30  L 36,30  L 36,29  L 35,29  L 35,26  L 34,26  L 34,25  L 36,25  L 36,26  L 38,26  L 38,27  L 39,27  L 39,28  L 38,28  L 38,29  L 40,29  L 40,30  L 42,30  L 42,29  L 41,29  L 41,28  L 44,28  L 44,27  L 43,27  L 43,26  L 44,26  L 44,25  L 43,25  L 43,24  L 44,24  L 44,23  L 42,23  L 42,22  L 40,22  L 40,23  L 39,23  L 39,24  L 38,24  L 38,25  L 37,25  L 37,24  L 35,24  L 35,23  L 37,23  L 37,22  L 39,22  L 39,21  L 40,21  L 40,20  L 42,20  L 42,19  L 41,19  L 41,18  L 42,18  L 42,16  L 43,16  L 43,14  L 44,14  L 44,12  L 43,12  L 43,13  L 42,13  L 42,14  L 40,14  L 40,15  L 38,15  L 38,16  L 39,16  L 39,17  L 36,17  L 36,18  L 34,18  L 34,17  L 33,17  L 33,16  L 31,16  L 31,15  L 32,15  L 32,14  L 30,14  L 30,15  L 29,15  L 29,16  L 26,16  L 26,15  L 25,15  L 25,16  L 24,16  L 24,17  L 26,17  L 26,18  L 28,18  L 28,19  L 29,19  L 29,20  L 25,20  L 25,19  L 24,19  L 24,18  L 22,18  L 22,17  L 21,17  L 21,18  L 19,18  L 19,19  L 16,19  L 16,20  L 15,20  L 15,21  L 13,21  L 13,22  L 14,22  L 14,24  L 15,24  L 15,22  L 16,22  L 16,21  L 17,21  L 17,22  L 18,22  L 18,23  L 17,23  L 17,25  L 18,25  L 18,24  L 20,24  L 20,23  L 19,23  L 19,22  L 21,22  L 21,21  L 22,21  L 22,20  L 23,20  L 23,21  L 24,21  L 24,22  L 22,22  L 22,23  L 23,23  L 23,24  L 21,24  L 21,25  L 22,25  L 22,26  L 24,26  L 24,25  L 26,25  L 26,26  L 25,26  L 25,27  L 23,27  L 23,28  L 21,28  L 21,29  L 20,29  L 20,30  L 23,30  L 23,29  L 25,29  L 25,30  L 24,30  L 24,31  L 23,31  L 23,32  L 22,32  L 22,33  L 23,33  L 23,34  L 24,34  L 24,35  L 25,35  L 25,36  L 27,36  L 27,37  L 24,37  L 24,38  L 26,38  L 26,39  Z  M 29,26  L 29,25  L 30,25  L 30,26  Z  M 24,33  L 27,33  L 27,32  L 30,32  L 30,31  L 29,31  L 29,30  L 28,30  L 28,29  L 27,29  L 27,28  L 29,28  L 29,29  L 30,29  L 30,26  L 31,26  L 31,27  L 32,27  L 32,30  L 33,30  L 33,31  L 32,31  L 32,32  L 31,32  L 31,33  L 29,33  L 29,34  L 28,34  L 28,35  L 27,35  L 27,34  L 24,34  Z  M 34,22  L 35,22  L 35,23  L 33,23  L 33,22  L 32,22  L 32,20  L 31,20  L 31,19  L 32,19  L 32,18  L 33,18  L 33,20  L 34,20  Z  M 39,21  L 38,21  L 38,20  L 39,20  Z  M 25,29  L 25,28  L 26,28  L 26,29  Z  M 18,21  L 17,21  L 17,20  L 18,20  Z  M 25,24  L 25,23  L 24,23  L 24,22  L 26,22  L 26,23  L 28,23  L 28,24  Z  M 31,16  L 31,17  L 30,17  L 30,16  Z  M 27,26  L 27,27  L 26,27  L 26,26  Z  M 19,19  L 20,19  L 20,20  L 19,20  Z  M 40,17  L 41,17  L 41,18  L 40,18  Z  M 34,24  L 34,25  L 33,25  L 33,24  Z  M 37,19  L 36,19  L 36,18  L 37,18  Z  M 29,21  L 29,20  L 30,20  L 30,21  Z  " style="fill:rgb(49, 44, 54); fill-opacity:1.000; stroke:none;" />
 <path d="  M 13,24  L 13,25  L 14,25  L 14,24  Z  " style="fill:rgb(49, 44, 54); fill-opacity:1.000; stroke:none;" />
 <path d="  M 16,32  L 15,32  L 15,34  L 16,34  L 16,35  L 15,35  L 15,36  L 14,36  L 14,37  L 13,37  L 13,38  L 15,38  L 15,39  L 17,39  L 17,38  L 16,38  L 16,36  L 17,36  L 17,35  L 18,35  L 18,33  L 17,33  L 17,30  L 16,30  Z  " style="fill:rgb(49, 44, 54); fill-opacity:1.000; stroke:none;" />
 <path d="  M 15,32  L 15,31  L 14,31  L 14,32  Z  " style="fill:rgb(49, 44, 54); fill-opacity:1.000; stroke:none;" />
 <path d="  M 16,18  L 15,18  L 15,19  L 16,19  Z  " style="fill:rgb(49, 44, 54); fill-opacity:1.000; stroke:none;" />
 <path d="  M 15,40  L 15,41  L 16,41  L 16,40  Z  " style="fill:rgb(49, 44, 54); fill-opacity:1.000; stroke:none;" />
 <path d="  M 16,44  L 16,43  L 15,43  L 15,44  Z  " style="fill:rgb(49, 44, 54); fill-opacity:1.000; stroke:none;" />
 <path d="  M 17,5  L 19,5  L 19,4  L 18,4  L 18,3  L 16,3  L 16,4  L 17,4  Z  " style="fill:rgb(49, 44, 54); fill-opacity:1.000; stroke:none;" />
 <path d="  M 17,7  L 16,7  L 16,9  L 17,9  Z  " style="fill:rgb(49, 44, 54); fill-opacity:1.000; stroke:none;" />
 <path d="  M 23,15  L 25,15  L 25,14  L 24,14  L 24,13  L 23,13  L 23,12  L 22,12  L 22,10  L 21,10  L 21,11  L 20,11  L 20,12  L 19,12  L 19,14  L 18,14  L 18,16  L 17,16  L 17,17  L 16,17  L 16,18  L 18,18  L 18,17  L 21,17  L 21,16  L 23,16  Z  M 20,16  L 20,15  L 21,15  L 21,16  Z  " style="fill:rgb(49, 44, 54); fill-opacity:1.000; stroke:none;" />
 <path d="  M 17,26  L 17,25  L 16,25  L 16,26  Z  " style="fill:rgb(49, 44, 54); fill-opacity:1.000; stroke:none;" />
 <path d="  M 19,38  L 19,37  L 20,37  L 20,36  L 19,36  L 19,35  L 18,35  L 18,36  L 17,36  L 17,37  L 18,37  L 18,38  Z  " style="fill:rgb(49, 44, 54); fill-opacity:1.000; stroke:none;" />
 <path d="  M 20,40  L 20,38  L 19,38  L 19,39  L 17,39  L 17,40  L 18,40  L 18,41  L 19,41  L 19,40  Z  " style="fill:rgb(49, 44, 54); fill-opacity:1.000; stroke:none;" />
 <path d="  M 17,42  L 18,42  L 18,41  L 17,41  Z  " style="fill:rgb(49, 44, 54); fill-opacity:1.000; stroke:none;" />
 <path d="  M 21,25  L 20,25  L 20,26  L 19,26  L 19,28  L 18,28  L 18,30  L 19,30  L 19,29  L 20,29  L 20,28  L 21,28  L 21,27  L 22,27  L 22,26  L 21,26  Z  " style="fill:rgb(49, 44, 54); fill-opacity:1.000; stroke:none;" />
 <path d="  M 19,46  L 20,46  L 20,45  L 21,45  L 21,44  L 23,44  L 23,43  L 24,43  L 24,42  L 23,42  L 23,41  L 22,41  L 22,40  L 20,40  L 20,42  L 19,42  L 19,44  L 18,44  L 18,47  L 19,47  Z  M 21,41  L 22,41  L 22,42  L 21,42  Z  " style="fill:rgb(49, 44, 54); fill-opacity:1.000; stroke:none;" />
 <path d="  M 19,4  L 20,4  L 20,3  L 19,3  Z  " style="fill:rgb(49, 44, 54); fill-opacity:1.000; stroke:none;" />
 <path d="  M 21,8  L 22,8  L 22,7  L 24,7  L 24,8  L 25,8  L 25,9  L 27,9  L 27,10  L 28,10  L 28,9  L 30,9  L 30,8  L 29,8  L 29,7  L 27,7  L 27,6  L 26,6  L 26,4  L 25,4  L 25,5  L 24,5  L 24,6  L 22,6  L 22,5  L 21,5  L 21,4  L 20,4  L 20,6  L 21,6  Z  M 25,8  L 25,7  L 26,7  L 26,8  Z  " style="fill:rgb(49, 44, 54); fill-opacity:1.000; stroke:none;" />
 <path d="  M 21,31  L 21,32  L 22,32  L 22,31  Z  " style="fill:rgb(49, 44, 54); fill-opacity:1.000; stroke:none;" />
 <path d="  M 23,9  L 23,8  L 22,8  L 22,10  L 23,10  L 23,11  L 24,11  L 24,13  L 25,13  L 25,14  L 26,14  L 26,15  L 28,15  L 28,14  L 30,14  L 30,13  L 31,13  L 31,12  L 28,12  L 28,11  L 26,11  L 26,10  L 25,10  L 25,9  Z  " style="fill:rgb(49, 44, 54); fill-opacity:1.000; stroke:none;" />
 <path d="  M 24,42  L 26,42  L 26,41  L 27,41  L 27,40  L 25,40  L 25,41  L 24,41  Z  " style="fill:rgb(49, 44, 54); fill-opacity:1.000; stroke:none;" />
 <path d="  M 26,43  L 25,43  L 25,44  L 28,44  L 28,43  L 29,43  L 29,42  L 26,42  Z  " style="fill:rgb(49, 44, 54); fill-opacity:1.000; stroke:none;" />
 <path d="  M 26,3  L 26,4  L 27,4  L 27,3  Z  " style="fill:rgb(49, 44, 54); fill-opacity:1.000; stroke:none;" />
 <path d="  M 26,50  L 26,51  L 27,51  L 27,50  Z  " style="fill:rgb(49, 44, 54); fill-opacity:1.000; stroke:none;" />
 <path d="  M 28,11  L 31,11  L 31,12  L 33,12  L 33,13  L 36,13  L 36,12  L 34,12  L 34,11  L 33,11  L 33,10  L 35,10  L 35,9  L 36,9  L 36,8  L 37,8  L 37,9  L 38,9  L 38,8  L 39,8  L 39,7  L 36,7  L 36,6  L 35,6  L 35,7  L 34,7  L 34,8  L 33,8  L 33,9  L 31,9  L 31,10  L 28,10  Z  " style="fill:rgb(49, 44, 54); fill-opacity:1.000; stroke:none;" />
 <path d="  M 29,37  L 30,37  L 30,36  L 29,36  Z  " style="fill:rgb(49, 44, 54); fill-opacity:1.000; stroke:none;" />
 <path d="  M 31,40  L 31,41  L 29,41  L 29,42  L 32,42  L 32,41  L 35,41  L 35,40  L 36,40  L 36,39  L 37,39  L 37,38  L 39,38  L 39,37  L 38,37  L 38,36  L 42,36  L 42,35  L 43,35  L 43,34  L 44,34  L 44,32  L 43,32  L 43,30  L 42,30  L 42,31  L 41,31  L 41,32  L 40,32  L 40,33  L 38,33  L 38,34  L 34,34  L 34,35  L 33,35  L 33,36  L 32,36  L 32,37  L 33,37  L 33,38  L 34,38  L 34,39  L 32,39  L 32,38  L 29,38  L 29,39  L 30,39  L 30,40  Z  M 42,33  L 42,32  L 43,32  L 43,33  Z  M 38,35  L 38,36  L 37,36  L 37,35  Z  " style="fill:rgb(49, 44, 54); fill-opacity:1.000; stroke:none;" />
 <path d="  M 31,6  L 31,5  L 30,5  L 30,6  Z  " style="fill:rgb(49, 44, 54); fill-opacity:1.000; stroke:none;" />
 <path d="  M 34,7  L 34,6  L 31,6  L 31,7  L 30,7  L 30,8  L 32,8  L 32,7  Z  " style="fill:rgb(49, 44, 54); fill-opacity:1.000; stroke:none;" />
 <path d="  M 31,31  L 31,30  L 30,30  L 30,31  Z  " style="fill:rgb(49, 44, 54); fill-opacity:1.000; stroke:none;" />
 <path d="  M 32,5  L 33,5  L 33,4  L 34,4  L 34,3  L 31,3  L 31,4  L 32,4  Z  " style="fill:rgb(49, 44, 54); fill-opacity:1.000; stroke:none;" />
 <path d="  M 32,50  L 32,49  L 31,49  L 31,50  Z  " style="fill:rgb(49, 44, 54); fill-opacity:1.000; stroke:none;" />
 <path d="  M 34,16  L 34,15  L 33,15  L 33,16  Z  " style="fill:rgb(49, 44, 54); fill-opacity:1.000; stroke:none;" />
 <path d="  M 34,6  L 35,6  L 35,5  L 34,5  Z  " style="fill:rgb(49, 44, 54); fill-opacity:1.000; stroke:none;" />
 <path d="  M 35,3  L 36,3  L 36,2  L 35,2  Z  " style="fill:rgb(49, 44, 54); fill-opacity:1.000; stroke:none;" />
 <path d="  M 37,11  L 37,10  L 35,10  L 35,11  L 36,11  L 36,12  L 37,12  L 37,13  L 39,13  L 39,12  L 40,12  L 40,11  L 41,11  L 41,10  L 39,10  L 39,11  Z  " style="fill:rgb(49, 44, 54); fill-opacity:1.000; stroke:none;" />
 <path d="  M 38,4  L 38,3  L 37,3  L 37,4  L 36,4  L 36,5  L 39,5  L 39,6  L 40,6  L 40,4  Z  " style="fill:rgb(49, 44, 54); fill-opacity:1.000; stroke:none;" />
 <path d="  M 37,13  L 36,13  L 36,14  L 37,14  Z  " style="fill:rgb(49, 44, 54); fill-opacity:1.000; stroke:none;" />
 <path d="  M 38,2  L 38,1  L 37,1  L 37,2  Z  " style="fill:rgb(49, 44, 54); fill-opacity:1.000; stroke:none;" />
 <path d="  M 38,24  L 38,23  L 37,23  L 37,24  Z  " style="fill:rgb(49, 44, 54); fill-opacity:1.000; stroke:none;" />
 <path d="  M 40,3  L 40,2  L 41,2  L 41,1  L 39,1  L 39,2  L 38,2  L 38,3  Z  " style="fill:rgb(49, 44, 54); fill-opacity:1.000; stroke:none;" />
 <path d="  M 39,31  L 40,31  L 40,30  L 39,30  Z  " style="fill:rgb(49, 44, 54); fill-opacity:1.000; stroke:none;" />
 <path d="  M 41,3  L 40,3  L 40,4  L 41,4  Z  " style="fill:rgb(49, 44, 54); fill-opacity:1.000; stroke:none;" />
 <path d="  M 44,3  L 44,2  L 41,2  L 41,3  L 43,3  L 43,4  L 45,4  L 45,3  Z  " style="fill:rgb(49, 44, 54); fill-opacity:1.000; stroke:none;" />
 <path d="  M 42,5  L 42,4  L 41,4  L 41,5  Z  " style="fill:rgb(49, 44, 54); fill-opacity:1.000; stroke:none;" />
 <path d="  M 41,10  L 42,10  L 42,9  L 41,9  Z  " style="fill:rgb(49, 44, 54); fill-opacity:1.000; stroke:none;" />
 <path d="  M 42,6  L 44,6  L 44,5  L 42,5  Z  " style="fill:rgb(49, 44, 54); fill-opacity:1.000; stroke:none;" />
 <path d="  M 53,11  L 53,10  L 51,10  L 51,11  L 50,11  L 50,12  L 48,12  L 48,13  L 49,13  L 49,14  L 48,14  L 48,15  L 47,15  L 47,14  L 45,14  L 45,15  L 46,15  L 46,16  L 45,16  L 45,17  L 44,17  L 44,18  L 43,18  L 43,19  L 45,19  L 45,18  L 46,18  L 46,17  L 47,17  L 47,18  L 48,18  L 48,17  L 51,17  L 51,16  L 50,16  L 50,15  L 52,15  L 52,14  L 53,14  L 53,15  L 54,15  L 54,16  L 55,16  L 55,14  L 54,14  L 54,12  L 52,12  L 52,11  Z  M 48,16  L 48,15  L 49,15  L 49,16  Z  " style="fill:rgb(49, 44, 54); fill-opacity:1.000; stroke:none;" />
 <path d="  M 44,36  L 43,36  L 43,37  L 44,37  Z  " style="fill:rgb(49, 44, 54); fill-opacity:1.000; stroke:none;" />
 <path d="  M 45,27  L 45,26  L 44,26  L 44,27  Z  " style="fill:rgb(49, 44, 54); fill-opacity:1.000; stroke:none;" />
 <path d="  M 45,31  L 44,31  L 44,32  L 45,32  Z  " style="fill:rgb(49, 44, 54); fill-opacity:1.000; stroke:none;" />
 <path d="  M 47,4  L 45,4  L 45,5  L 46,5  L 46,6  L 47,6  L 47,7  L 50,7  L 50,6  L 48,6  L 48,5  L 47,5  Z  " style="fill:rgb(49, 44, 54); fill-opacity:1.000; stroke:none;" />
 <path d="  M 45,7  L 46,7  L 46,6  L 45,6  Z  " style="fill:rgb(49, 44, 54); fill-opacity:1.000; stroke:none;" />
 <path d="  M 46,18  L 46,20  L 48,20  L 48,19  L 47,19  L 47,18  Z  " style="fill:rgb(49, 44, 54); fill-opacity:1.000; stroke:none;" />
 <path d="  M 48,23  L 48,22  L 47,22  L 47,23  Z  " style="fill:rgb(49, 44, 54); fill-opacity:1.000; stroke:none;" />
 <path d="  M 52,1  L 52,2  L 48,2  L 48,3  L 50,3  L 50,4  L 53,4  L 53,3  L 55,3  L 55,4  L 57,4  L 57,5  L 58,5  L 58,8  L 59,8  L 59,10  L 58,10  L 58,11  L 57,11  L 57,12  L 58,12  L 58,14  L 59,14  L 59,13  L 60,13  L 60,10  L 61,10  L 61,6  L 60,6  L 60,4  L 59,4  L 59,3  L 58,3  L 58,2  L 57,2  L 57,1  Z  " style="fill:rgb(49, 44, 54); fill-opacity:1.000; stroke:none;" />
 <path d="  M 51,8  L 51,7  L 50,7  L 50,8  Z  " style="fill:rgb(49, 44, 54); fill-opacity:1.000; stroke:none;" />
 <path d="  M 57,10  L 58,10  L 58,8  L 57,8  L 57,6  L 56,6  L 56,5  L 55,5  L 55,4  L 53,4  L 53,5  L 54,5  L 54,7  L 55,7  L 55,9  L 54,9  L 54,12  L 55,12  L 55,13  L 56,13  L 56,11  L 57,11  Z  " style="fill:rgb(49, 44, 54); fill-opacity:1.000; stroke:none;" />
 <path d="  M 53,48  L 55,48  L 55,47  L 53,47  Z  " style="fill:rgb(49, 44, 54); fill-opacity:1.000; stroke:none;" />
 <path d="  M 61,44  L 62,44  L 62,43  L 61,43  L 61,42  L 60,42  L 60,41  L 59,41  L 59,40  L 58,40  L 58,42  L 57,42  L 57,43  L 55,43  L 55,44  L 57,44  L 57,45  L 58,45  L 58,48  L 59,48  L 59,47  L 60,47  L 60,48  L 62,48  L 62,47  L 61,47  L 61,46  L 60,46  L 60,45  L 61,45  Z  M 60,44  L 60,45  L 59,45  L 59,44  Z  " style="fill:rgb(49, 44, 54); fill-opacity:1.000; stroke:none;" />
 <path d="  M 57,31  L 57,32  L 58,32  L 58,31  Z  " style="fill:rgb(49, 44, 54); fill-opacity:1.000; stroke:none;" />
 <path d="  M 61,4  L 62,4  L 62,2  L 60,2  L 60,1  L 58,1  L 58,2  L 59,2  L 59,3  L 61,3  Z  " style="fill:rgb(49, 44, 54); fill-opacity:1.000; stroke:none;" />
 <path d="  M 60,30  L 58,30  L 58,31  L 59,31  L 59,32  L 60,32  Z  " style="fill:rgb(49, 44, 54); fill-opacity:1.000; stroke:none;" />
 <path d="  M 60,48  L 59,48  L 59,49  L 60,49  Z  " style="fill:rgb(49, 44, 54); fill-opacity:1.000; stroke:none;" />
 <path d="  M 60,51  L 60,52  L 61,52  L 61,53  L 62,53  L 62,51  L 61,51  L 61,50  L 59,50  L 59,51  Z  " style="fill:rgb(49, 44, 54); fill-opacity:1.000; stroke:none;" />
 <path d="  M 60,32  L 60,34  L 61,34  L 61,35  L 62,35  L 62,33  L 61,33  L 61,32  Z  " style="fill:rgb(49, 44, 54); fill-opacity:1.000; stroke:none;" />
 <path d="  M 62,42  L 62,36  L 61,36  L 61,38  L 60,38  L 60,40  L 61,40  L 61,42  Z  " style="fill:rgb(49, 44, 54); fill-opacity:1.000; stroke:none;" />
 <path d="  M 63,2  L 63,1  L 62,1  L 62,2  Z  " style="fill:rgb(49, 44, 54); fill-opacity:1.000; stroke:none;" />
 <path d="  M 64,0  L 63,0  L 63,1  L 64,1  Z  " style="fill:rgb(49, 44, 54); fill-opacity:1.000; stroke:none;" />
 <path d="  M 1,63  L 1,64  L 4,64  L 4,63  L 5,63  L 5,62  L 2,62  L 2,63  Z  " style="fill:rgb(39, 34, 28); fill-opacity:1.000; stroke:none;" />
 <path d="  M 5,8  L 4,8  L 4,9  L 5,9  Z  " style="fill:rgb(39, 34, 28); fill-opacity:1.000; stroke:none;" />
 <path d="  M 5,54  L 5,53  L 4,53  L 4,54  Z  " style="fill:rgb(39, 34, 28); fill-opacity:1.000; stroke:none;" />
 <path d="  M 7,8  L 7,9  L 8,9  L 8,10  L 9,10  L 9,9  L 10,9  L 10,8  L 9,8  L 9,7  L 7,7  L 7,6  L 6,6  L 6,7  L 5,7  L 5,8  Z  " style="fill:rgb(39, 34, 28); fill-opacity:1.000; stroke:none;" />
 <path d="  M 5,32  L 5,33  L 6,33  L 6,32  Z  " style="fill:rgb(39, 34, 28); fill-opacity:1.000; stroke:none;" />
 <path d="  M 5,55  L 6,55  L 6,54  L 5,54  Z  " style="fill:rgb(39, 34, 28); fill-opacity:1.000; stroke:none;" />
 <path d="  M 8,27  L 7,27  L 7,30  L 6,30  L 6,32  L 7,32  L 7,31  L 8,31  Z  " style="fill:rgb(39, 34, 28); fill-opacity:1.000; stroke:none;" />
 <path d="  M 6,63  L 8,63  L 8,62  L 6,62  Z  " style="fill:rgb(39, 34, 28); fill-opacity:1.000; stroke:none;" />
 <path d="  M 7,49  L 7,50  L 8,50  L 8,51  L 10,51  L 10,50  L 9,50  L 9,49  Z  " style="fill:rgb(39, 34, 28); fill-opacity:1.000; stroke:none;" />
 <path d="  M 21,61  L 21,60  L 20,60  L 20,59  L 17,59  L 17,58  L 16,58  L 16,59  L 15,59  L 15,60  L 16,60  L 16,61  L 14,61  L 14,62  L 10,62  L 10,63  L 8,63  L 8,64  L 14,64  L 14,63  L 15,63  L 15,62  L 17,62  L 17,61  L 18,61  L 18,62  L 19,62  L 19,63  L 21,63  L 21,64  L 24,64  L 24,63  L 26,63  L 26,62  L 25,62  L 25,61  L 28,61  L 28,60  L 30,60  L 30,59  L 32,59  L 32,58  L 36,58  L 36,57  L 32,57  L 32,56  L 30,56  L 30,57  L 28,57  L 28,58  L 24,58  L 24,57  L 25,57  L 25,56  L 26,56  L 26,55  L 24,55  L 24,56  L 22,56  L 22,57  L 20,57  L 20,58  L 22,58  L 22,59  L 24,59  L 24,60  L 22,60  L 22,61  Z  M 18,60  L 19,60  L 19,61  L 18,61  Z  " style="fill:rgb(39, 34, 28); fill-opacity:1.000; stroke:none;" />
 <path d="  M 10,7  L 10,8  L 11,8  L 11,7  Z  " style="fill:rgb(39, 34, 28); fill-opacity:1.000; stroke:none;" />
 <path d="  M 10,51  L 10,52  L 11,52  L 11,51  Z  " style="fill:rgb(39, 34, 28); fill-opacity:1.000; stroke:none;" />
 <path d="  M 15,20  L 16,20  L 16,19  L 15,19  L 15,18  L 14,18  L 14,19  L 12,19  L 12,20  L 13,20  L 13,21  L 15,21  Z  " style="fill:rgb(39, 34, 28); fill-opacity:1.000; stroke:none;" />
 <path d="  M 13,21  L 12,21  L 12,22  L 13,22  Z  " style="fill:rgb(39, 34, 28); fill-opacity:1.000; stroke:none;" />
 <path d="  M 13,48  L 13,46  L 12,46  L 12,48  Z  " style="fill:rgb(39, 34, 28); fill-opacity:1.000; stroke:none;" />
 <path d="  M 13,49  L 14,49  L 14,48  L 13,48  Z  " style="fill:rgb(39, 34, 28); fill-opacity:1.000; stroke:none;" />
 <path d="  M 13,58  L 13,59  L 15,59  L 15,58  Z  " style="fill:rgb(39, 34, 28); fill-opacity:1.000; stroke:none;" />
 <path d="  M 14,46  L 14,47  L 15,47  L 15,46  Z  " style="fill:rgb(39, 34, 28); fill-opacity:1.000; stroke:none;" />
 <path d="  M 15,49  L 14,49  L 14,50  L 15,50  Z  " style="fill:rgb(39, 34, 28); fill-opacity:1.000; stroke:none;" />
 <path d="  M 16,44  L 15,44  L 15,45  L 16,45  Z  " style="fill:rgb(39, 34, 28); fill-opacity:1.000; stroke:none;" />
 <path d="  M 21,18  L 21,17  L 18,17  L 18,18  L 16,18  L 16,19  L 19,19  L 19,18  Z  " style="fill:rgb(39, 34, 28); fill-opacity:1.000; stroke:none;" />
 <path d="  M 17,38  L 17,39  L 19,39  L 19,38  L 18,38  L 18,37  L 17,37  L 17,36  L 16,36  L 16,38  Z  " style="fill:rgb(39, 34, 28); fill-opacity:1.000; stroke:none;" />
 <path d="  M 17,39  L 16,39  L 16,40  L 17,40  Z  " style="fill:rgb(39, 34, 28); fill-opacity:1.000; stroke:none;" />
 <path d="  M 18,52  L 18,51  L 17,51  L 17,52  Z  " style="fill:rgb(39, 34, 28); fill-opacity:1.000; stroke:none;" />
 <path d="  M 22,54  L 22,53  L 20,53  L 20,52  L 18,52  L 18,53  L 19,53  L 19,54  Z  " style="fill:rgb(39, 34, 28); fill-opacity:1.000; stroke:none;" />
 <path d="  M 18,64  L 19,64  L 19,63  L 18,63  Z  " style="fill:rgb(39, 34, 28); fill-opacity:1.000; stroke:none;" />
 <path d="  M 20,19  L 19,19  L 19,20  L 20,20  Z  " style="fill:rgb(39, 34, 28); fill-opacity:1.000; stroke:none;" />
 <path d="  M 19,46  L 19,47  L 20,47  L 20,46  Z  " style="fill:rgb(39, 34, 28); fill-opacity:1.000; stroke:none;" />
 <path d="  M 20,16  L 21,16  L 21,15  L 20,15  Z  " style="fill:rgb(39, 34, 28); fill-opacity:1.000; stroke:none;" />
 <path d="  M 21,29  L 21,28  L 20,28  L 20,29  Z  " style="fill:rgb(39, 34, 28); fill-opacity:1.000; stroke:none;" />
 <path d="  M 21,44  L 21,45  L 20,45  L 20,46  L 22,46  L 22,45  L 23,45  L 23,46  L 26,46  L 26,45  L 28,45  L 28,44  L 25,44  L 25,43  L 26,43  L 26,42  L 24,42  L 24,43  L 23,43  L 23,44  Z  " style="fill:rgb(39, 34, 28); fill-opacity:1.000; stroke:none;" />
 <path d="  M 21,16  L 21,17  L 22,17  L 22,16  Z  " style="fill:rgb(39, 34, 28); fill-opacity:1.000; stroke:none;" />
 <path d="  M 24,25  L 24,26  L 22,26  L 22,27  L 21,27  L 21,28  L 23,28  L 23,27  L 25,27  L 25,26  L 26,26  L 26,25  Z  " style="fill:rgb(39, 34, 28); fill-opacity:1.000; stroke:none;" />
 <path d="  M 25,9  L 25,8  L 24,8  L 24,7  L 22,7  L 22,8  L 23,8  L 23,9  Z  " style="fill:rgb(39, 34, 28); fill-opacity:1.000; stroke:none;" />
 <path d="  M 22,17  L 22,18  L 23,18  L 23,17  Z  " style="fill:rgb(39, 34, 28); fill-opacity:1.000; stroke:none;" />
 <path d="  M 23,16  L 25,16  L 25,15  L 23,15  Z  " style="fill:rgb(39, 34, 28); fill-opacity:1.000; stroke:none;" />
 <path d="  M 24,18  L 24,19  L 25,19  L 25,18  Z  " style="fill:rgb(39, 34, 28); fill-opacity:1.000; stroke:none;" />
 <path d="  M 27,29  L 28,29  L 28,30  L 29,30  L 29,31  L 30,31  L 30,32  L 27,32  L 27,33  L 24,33  L 24,34  L 27,34  L 27,35  L 28,35  L 28,34  L 29,34  L 29,33  L 31,33  L 31,32  L 32,32  L 32,31  L 33,31  L 33,30  L 32,30  L 32,27  L 31,27  L 31,26  L 30,26  L 30,29  L 29,29  L 29,28  L 27,28  Z  M 30,30  L 31,30  L 31,31  L 30,31  Z  " style="fill:rgb(39, 34, 28); fill-opacity:1.000; stroke:none;" />
 <path d="  M 26,7  L 25,7  L 25,8  L 26,8  Z  " style="fill:rgb(39, 34, 28); fill-opacity:1.000; stroke:none;" />
 <path d="  M 25,9  L 25,10  L 26,10  L 26,11  L 28,11  L 28,10  L 27,10  L 27,9  Z  " style="fill:rgb(39, 34, 28); fill-opacity:1.000; stroke:none;" />
 <path d="  M 25,15  L 26,15  L 26,14  L 25,14  Z  " style="fill:rgb(39, 34, 28); fill-opacity:1.000; stroke:none;" />
 <path d="  M 26,18  L 26,17  L 25,17  L 25,18  Z  " style="fill:rgb(39, 34, 28); fill-opacity:1.000; stroke:none;" />
 <path d="  M 29,20  L 29,19  L 28,19  L 28,18  L 26,18  L 26,19  L 25,19  L 25,20  Z  " style="fill:rgb(39, 34, 28); fill-opacity:1.000; stroke:none;" />
 <path d="  M 27,27  L 27,26  L 26,26  L 26,27  Z  " style="fill:rgb(39, 34, 28); fill-opacity:1.000; stroke:none;" />
 <path d="  M 27,46  L 26,46  L 26,47  L 27,47  Z  " style="fill:rgb(39, 34, 28); fill-opacity:1.000; stroke:none;" />
 <path d="  M 27,55  L 27,54  L 26,54  L 26,55  Z  " style="fill:rgb(39, 34, 28); fill-opacity:1.000; stroke:none;" />
 <path d="  M 33,9  L 33,8  L 34,8  L 34,7  L 32,7  L 32,8  L 30,8  L 30,9  L 28,9  L 28,10  L 31,10  L 31,9  Z  " style="fill:rgb(39, 34, 28); fill-opacity:1.000; stroke:none;" />
 <path d="  M 29,42  L 29,43  L 28,43  L 28,44  L 30,44  L 30,43  L 32,43  L 32,42  Z  " style="fill:rgb(39, 34, 28); fill-opacity:1.000; stroke:none;" />
 <path d="  M 29,62  L 28,62  L 28,63  L 29,63  Z  " style="fill:rgb(39, 34, 28); fill-opacity:1.000; stroke:none;" />
 <path d="  M 29,21  L 30,21  L 30,20  L 29,20  Z  " style="fill:rgb(39, 34, 28); fill-opacity:1.000; stroke:none;" />
 <path d="  M 29,25  L 29,26  L 30,26  L 30,25  Z  " style="fill:rgb(39, 34, 28); fill-opacity:1.000; stroke:none;" />
 <path d="  M 43,61  L 40,61  L 40,62  L 38,62  L 38,61  L 39,61  L 39,60  L 37,60  L 37,59  L 35,59  L 35,60  L 36,60  L 36,61  L 37,61  L 37,62  L 35,62  L 35,61  L 33,61  L 33,60  L 30,60  L 30,61  L 29,61  L 29,62  L 31,62  L 31,63  L 32,63  L 32,64  L 48,64  L 48,63  L 46,63  L 46,62  L 43,62  Z  M 34,63  L 34,62  L 35,62  L 35,63  Z  " style="fill:rgb(39, 34, 28); fill-opacity:1.000; stroke:none;" />
 <path d="  M 33,18  L 32,18  L 32,19  L 31,19  L 31,20  L 32,20  L 32,22  L 33,22  L 33,23  L 35,23  L 35,22  L 34,22  L 34,20  L 33,20  Z  " style="fill:rgb(39, 34, 28); fill-opacity:1.000; stroke:none;" />
 <path d="  M 34,43  L 34,44  L 35,44  L 35,43  L 36,43  L 36,44  L 38,44  L 38,43  L 37,43  L 37,42  L 35,42  L 35,41  L 32,41  L 32,42  L 33,42  L 33,43  Z  " style="fill:rgb(39, 34, 28); fill-opacity:1.000; stroke:none;" />
 <path d="  M 33,10  L 33,11  L 34,11  L 34,12  L 36,12  L 36,11  L 35,11  L 35,10  Z  " style="fill:rgb(39, 34, 28); fill-opacity:1.000; stroke:none;" />
 <path d="  M 38,2  L 36,2  L 36,3  L 34,3  L 34,4  L 37,4  L 37,3  L 38,3  Z  " style="fill:rgb(39, 34, 28); fill-opacity:1.000; stroke:none;" />
 <path d="  M 35,6  L 34,6  L 34,7  L 35,7  Z  " style="fill:rgb(39, 34, 28); fill-opacity:1.000; stroke:none;" />
 <path d="  M 35,24  L 37,24  L 37,23  L 35,23  Z  " style="fill:rgb(39, 34, 28); fill-opacity:1.000; stroke:none;" />
 <path d="  M 35,41  L 36,41  L 36,40  L 35,40  Z  " style="fill:rgb(39, 34, 28); fill-opacity:1.000; stroke:none;" />
 <path d="  M 36,44  L 35,44  L 35,45  L 36,45  Z  " style="fill:rgb(39, 34, 28); fill-opacity:1.000; stroke:none;" />
 <path d="  M 35,51  L 36,51  L 36,50  L 35,50  Z  " style="fill:rgb(39, 34, 28); fill-opacity:1.000; stroke:none;" />
 <path d="  M 37,13  L 37,12  L 36,12  L 36,13  Z  " style="fill:rgb(39, 34, 28); fill-opacity:1.000; stroke:none;" />
 <path d="  M 42,38  L 42,37  L 43,37  L 43,36  L 44,36  L 44,34  L 43,34  L 43,35  L 42,35  L 42,36  L 38,36  L 38,37  L 39,37  L 39,38  L 37,38  L 37,39  L 36,39  L 36,40  L 38,40  L 38,39  L 40,39  L 40,38  Z  " style="fill:rgb(39, 34, 28); fill-opacity:1.000; stroke:none;" />
 <path d="  M 37,45  L 36,45  L 36,46  L 37,46  Z  " style="fill:rgb(39, 34, 28); fill-opacity:1.000; stroke:none;" />
 <path d="  M 38,50  L 38,51  L 39,51  L 39,49  L 38,49  L 38,48  L 36,48  L 36,50  Z  " style="fill:rgb(39, 34, 28); fill-opacity:1.000; stroke:none;" />
 <path d="  M 38,25  L 38,24  L 37,24  L 37,25  Z  " style="fill:rgb(39, 34, 28); fill-opacity:1.000; stroke:none;" />
 <path d="  M 38,36  L 38,35  L 37,35  L 37,36  Z  " style="fill:rgb(39, 34, 28); fill-opacity:1.000; stroke:none;" />
 <path d="  M 40,47  L 40,46  L 39,46  L 39,45  L 38,45  L 38,47  L 39,47  L 39,49  L 40,49  L 40,48  L 41,48  L 41,47  Z  " style="fill:rgb(39, 34, 28); fill-opacity:1.000; stroke:none;" />
 <path d="  M 41,41  L 41,40  L 39,40  L 39,41  Z  " style="fill:rgb(39, 34, 28); fill-opacity:1.000; stroke:none;" />
 <path d="  M 40,44  L 40,43  L 39,43  L 39,44  Z  " style="fill:rgb(39, 34, 28); fill-opacity:1.000; stroke:none;" />
 <path d="  M 41,52  L 41,50  L 40,50  L 40,51  L 39,51  L 39,54  L 40,54  L 40,52  Z  " style="fill:rgb(39, 34, 28); fill-opacity:1.000; stroke:none;" />
 <path d="  M 40,59  L 40,58  L 39,58  L 39,59  Z  " style="fill:rgb(39, 34, 28); fill-opacity:1.000; stroke:none;" />
 <path d="  M 41,2  L 40,2  L 40,3  L 41,3  Z  " style="fill:rgb(39, 34, 28); fill-opacity:1.000; stroke:none;" />
 <path d="  M 41,3  L 41,4  L 42,4  L 42,5  L 44,5  L 44,6  L 46,6  L 46,5  L 45,5  L 45,4  L 43,4  L 43,3  Z  " style="fill:rgb(39, 34, 28); fill-opacity:1.000; stroke:none;" />
 <path d="  M 41,40  L 43,40  L 43,39  L 44,39  L 44,38  L 46,38  L 46,37  L 45,37  L 45,36  L 44,36  L 44,37  L 43,37  L 43,38  L 42,38  L 42,39  L 41,39  Z  " style="fill:rgb(39, 34, 28); fill-opacity:1.000; stroke:none;" />
 <path d="  M 42,41  L 41,41  L 41,42  L 42,42  Z  " style="fill:rgb(39, 34, 28); fill-opacity:1.000; stroke:none;" />
 <path d="  M 44,60  L 44,59  L 42,59  L 42,60  Z  " style="fill:rgb(39, 34, 28); fill-opacity:1.000; stroke:none;" />
 <path d="  M 45,30  L 44,30  L 44,31  L 45,31  Z  " style="fill:rgb(39, 34, 28); fill-opacity:1.000; stroke:none;" />
 <path d="  M 45,31  L 45,32  L 44,32  L 44,34  L 45,34  L 45,33  L 46,33  L 46,31  Z  " style="fill:rgb(39, 34, 28); fill-opacity:1.000; stroke:none;" />
 <path d="  M 46,53  L 46,52  L 48,52  L 48,51  L 47,51  L 47,50  L 46,50  L 46,51  L 44,51  L 44,52  L 45,52  L 45,53  Z  " style="fill:rgb(39, 34, 28); fill-opacity:1.000; stroke:none;" />
 <path d="  M 46,40  L 46,41  L 48,41  L 48,40  L 47,40  L 47,39  L 45,39  L 45,40  Z  " style="fill:rgb(39, 34, 28); fill-opacity:1.000; stroke:none;" />
 <path d="  M 46,18  L 47,18  L 47,17  L 46,17  Z  " style="fill:rgb(39, 34, 28); fill-opacity:1.000; stroke:none;" />
 <path d="  M 46,45  L 46,46  L 47,46  L 47,45  Z  " style="fill:rgb(39, 34, 28); fill-opacity:1.000; stroke:none;" />
 <path d="  M 48,46  L 47,46  L 47,48  L 46,48  L 46,49  L 47,49  L 47,50  L 48,50  L 48,51  L 49,51  L 49,50  L 50,50  L 50,48  L 49,48  L 49,47  L 48,47  Z  " style="fill:rgb(39, 34, 28); fill-opacity:1.000; stroke:none;" />
 <path d="  M 47,53  L 46,53  L 46,54  L 47,54  Z  " style="fill:rgb(39, 34, 28); fill-opacity:1.000; stroke:none;" />
 <path d="  M 46,60  L 46,61  L 47,61  L 47,60  Z  " style="fill:rgb(39, 34, 28); fill-opacity:1.000; stroke:none;" />
 <path d="  M 50,18  L 50,17  L 48,17  L 48,18  L 47,18  L 47,19  L 49,19  L 49,18  Z  " style="fill:rgb(39, 34, 28); fill-opacity:1.000; stroke:none;" />
 <path d="  M 47,56  L 48,56  L 48,55  L 47,55  Z  " style="fill:rgb(39, 34, 28); fill-opacity:1.000; stroke:none;" />
 <path d="  M 48,61  L 47,61  L 47,62  L 48,62  Z  " style="fill:rgb(39, 34, 28); fill-opacity:1.000; stroke:none;" />
 <path d="  M 49,40  L 49,39  L 48,39  L 48,40  Z  " style="fill:rgb(39, 34, 28); fill-opacity:1.000; stroke:none;" />
 <path d="  M 49,55  L 49,54  L 48,54  L 48,55  Z  " style="fill:rgb(39, 34, 28); fill-opacity:1.000; stroke:none;" />
 <path d="  M 49,19  L 49,20  L 50,20  L 50,19  Z  " style="fill:rgb(39, 34, 28); fill-opacity:1.000; stroke:none;" />
 <path d="  M 52,38  L 51,38  L 51,42  L 50,42  L 50,44  L 49,44  L 49,47  L 50,47  L 50,48  L 51,48  L 51,47  L 52,47  L 52,45  L 51,45  L 51,43  L 52,43  L 52,44  L 54,44  L 54,43  L 53,43  L 53,41  L 52,41  Z  " style="fill:rgb(39, 34, 28); fill-opacity:1.000; stroke:none;" />
 <path d="  M 50,54  L 50,52  L 49,52  L 49,54  Z  " style="fill:rgb(39, 34, 28); fill-opacity:1.000; stroke:none;" />
 <path d="  M 52,64  L 52,63  L 54,63  L 54,62  L 53,62  L 53,61  L 52,61  L 52,62  L 49,62  L 49,63  L 50,63  L 50,64  Z  " style="fill:rgb(39, 34, 28); fill-opacity:1.000; stroke:none;" />
 <path d="  M 51,17  L 52,17  L 52,16  L 53,16  L 53,17  L 55,17  L 55,16  L 54,16  L 54,15  L 53,15  L 53,14  L 52,14  L 52,15  L 50,15  L 50,16  L 51,16  Z  " style="fill:rgb(39, 34, 28); fill-opacity:1.000; stroke:none;" />
 <path d="  M 53,51  L 53,50  L 52,50  L 52,49  L 51,49  L 51,50  L 50,50  L 50,52  L 51,52  L 51,51  L 52,51  L 52,52  L 53,52  L 53,53  L 54,53  L 54,52  L 55,52  L 55,51  Z  " style="fill:rgb(39, 34, 28); fill-opacity:1.000; stroke:none;" />
 <path d="  M 52,30  L 51,30  L 51,31  L 52,31  Z  " style="fill:rgb(39, 34, 28); fill-opacity:1.000; stroke:none;" />
 <path d="  M 53,18  L 53,17  L 52,17  L 52,18  Z  " style="fill:rgb(39, 34, 28); fill-opacity:1.000; stroke:none;" />
 <path d="  M 54,27  L 54,28  L 53,28  L 53,31  L 52,31  L 52,33  L 53,33  L 53,32  L 54,32  L 54,29  L 55,29  L 55,27  Z  " style="fill:rgb(39, 34, 28); fill-opacity:1.000; stroke:none;" />
 <path d="  M 53,48  L 53,47  L 52,47  L 52,49  L 53,49  L 53,50  L 54,50  L 54,49  L 55,49  L 55,48  Z  " style="fill:rgb(39, 34, 28); fill-opacity:1.000; stroke:none;" />
 <path d="  M 52,53  L 52,54  L 53,54  L 53,53  Z  " style="fill:rgb(39, 34, 28); fill-opacity:1.000; stroke:none;" />
 <path d="  M 53,27  L 54,27  L 54,26  L 53,26  Z  " style="fill:rgb(39, 34, 28); fill-opacity:1.000; stroke:none;" />
 <path d="  M 53,40  L 53,41  L 54,41  L 54,40  Z  " style="fill:rgb(39, 34, 28); fill-opacity:1.000; stroke:none;" />
 <path d="  M 54,45  L 54,46  L 53,46  L 53,47  L 55,47  L 55,46  L 56,46  L 56,45  Z  " style="fill:rgb(39, 34, 28); fill-opacity:1.000; stroke:none;" />
 <path d="  M 62,16  L 63,16  L 63,14  L 62,14  L 62,13  L 61,13  L 61,12  L 62,12  L 62,5  L 63,5  L 63,3  L 64,3  L 64,1  L 63,1  L 63,2  L 62,2  L 62,4  L 61,4  L 61,3  L 59,3  L 59,4  L 60,4  L 60,6  L 61,6  L 61,10  L 60,10  L 60,13  L 59,13  L 59,14  L 58,14  L 58,16  L 59,16  L 59,17  L 58,17  L 58,18  L 57,18  L 57,19  L 56,19  L 56,20  L 54,20  L 54,21  L 57,21  L 57,20  L 58,20  L 58,19  L 60,19  L 60,18  L 61,18  L 61,17  L 60,17  L 60,16  L 61,16  L 61,15  L 62,15  Z  " style="fill:rgb(39, 34, 28); fill-opacity:1.000; stroke:none;" />
 <path d="  M 55,61  L 55,60  L 54,60  L 54,61  Z  " style="fill:rgb(39, 34, 28); fill-opacity:1.000; stroke:none;" />
 <path d="  M 56,30  L 56,31  L 55,31  L 55,32  L 57,32  L 57,31  L 58,31  L 58,30  Z  " style="fill:rgb(39, 34, 28); fill-opacity:1.000; stroke:none;" />
 <path d="  M 56,48  L 56,47  L 55,47  L 55,48  Z  " style="fill:rgb(39, 34, 28); fill-opacity:1.000; stroke:none;" />
 <path d="  M 58,62  L 58,61  L 57,61  L 57,60  L 58,60  L 58,59  L 55,59  L 55,60  L 56,60  L 56,61  L 55,61  L 55,62  Z  " style="fill:rgb(39, 34, 28); fill-opacity:1.000; stroke:none;" />
 <path d="  M 57,13  L 57,14  L 58,14  L 58,12  L 57,12  L 57,11  L 56,11  L 56,13  Z  " style="fill:rgb(39, 34, 28); fill-opacity:1.000; stroke:none;" />
 <path d="  M 56,44  L 56,45  L 57,45  L 57,44  Z  " style="fill:rgb(39, 34, 28); fill-opacity:1.000; stroke:none;" />
 <path d="  M 59,22  L 59,21  L 57,21  L 57,22  Z  " style="fill:rgb(39, 34, 28); fill-opacity:1.000; stroke:none;" />
 <path d="  M 58,28  L 58,27  L 57,27  L 57,28  Z  " style="fill:rgb(39, 34, 28); fill-opacity:1.000; stroke:none;" />
 <path d="  M 58,33  L 58,32  L 57,32  L 57,33  Z  " style="fill:rgb(39, 34, 28); fill-opacity:1.000; stroke:none;" />
 <path d="  M 58,3  L 59,3  L 59,2  L 58,2  Z  " style="fill:rgb(39, 34, 28); fill-opacity:1.000; stroke:none;" />
 <path d="  M 63,25  L 63,27  L 62,27  L 62,28  L 61,28  L 61,26  L 62,26  L 62,25  Z  M 61,25  L 59,25  L 59,26  L 58,26  L 58,27  L 60,27  L 60,28  L 59,28  L 59,29  L 58,29  L 58,30  L 60,30  L 60,32  L 61,32  L 61,33  L 62,33  L 62,31  L 61,31  L 61,30  L 62,30  L 62,29  L 63,29  L 63,28  L 64,28  L 64,25  L 63,25  L 63,24  L 62,24  L 62,23  L 61,23  Z  " style="fill:rgb(39, 34, 28); fill-opacity:1.000; stroke:none;" />
 <path d="  M 58,59  L 59,59  L 59,58  L 58,58  Z  " style="fill:rgb(39, 34, 28); fill-opacity:1.000; stroke:none;" />
 <path d="  M 64,64  L 64,62  L 63,62  L 63,63  L 62,63  L 62,62  L 61,62  L 61,61  L 63,61  L 63,58  L 64,58  L 64,56  L 63,56  L 63,49  L 62,49  L 62,50  L 61,50  L 61,51  L 62,51  L 62,59  L 61,59  L 61,60  L 59,60  L 59,61  L 60,61  L 60,62  L 58,62  L 58,63  L 60,63  L 60,64  Z  " style="fill:rgb(39, 34, 28); fill-opacity:1.000; stroke:none;" />
 <path d="  M 59,45  L 60,45  L 60,44  L 59,44  Z  " style="fill:rgb(39, 34, 28); fill-opacity:1.000; stroke:none;" />
 <path d="  M 62,49  L 62,48  L 60,48  L 60,49  L 59,49  L 59,50  L 61,50  L 61,49  Z  " style="fill:rgb(39, 34, 28); fill-opacity:1.000; stroke:none;" />
 <path d="  M 61,45  L 60,45  L 60,46  L 61,46  Z  " style="fill:rgb(39, 34, 28); fill-opacity:1.000; stroke:none;" />
 <path d="  M 61,45  L 62,45  L 62,44  L 61,44  Z  " style="fill:rgb(39, 34, 28); fill-opacity:1.000; stroke:none;" />
 <path d="  M 63,46  L 61,46  L 61,47  L 63,47  Z  " style="fill:rgb(39, 34, 28); fill-opacity:1.000; stroke:none;" />
 <path d="  M 62,13  L 63,13  L 63,12  L 62,12  Z  " style="fill:rgb(39, 34, 28); fill-opacity:1.000; stroke:none;" />
 <path d="  M 63,20  L 63,22  L 64,22  L 64,18  L 63,18  L 63,19  L 62,19  L 62,20  Z  " style="fill:rgb(39, 34, 28); fill-opacity:1.000; stroke:none;" />
 <path d="  M 64,46  L 64,40  L 63,40  L 63,36  L 62,36  L 62,44  L 63,44  L 63,46  Z  " style="fill:rgb(39, 34, 28); fill-opacity:1.000; stroke:none;" />
 <path d="  M 64,17  L 64,16  L 63,16  L 63,17  Z  " style="fill:rgb(39, 34, 28); fill-opacity:1.000; stroke:none;" />
 <path d="  M 6,63  L 6,62  L 5,62  L 5,63  L 4,63  L 4,64  L 8,64  L 8,63  Z  " style="fill:rgb(31, 18, 27); fill-opacity:1.000; stroke:none;" />
 <path d="  M 8,62  L 8,63  L 10,63  L 10,62  Z  " style="fill:rgb(31, 18, 27); fill-opacity:1.000; stroke:none;" />
 <path d="  M 13,48  L 14,48  L 14,46  L 13,46  Z  " style="fill:rgb(31, 18, 27); fill-opacity:1.000; stroke:none;" />
 <path d="  M 15,45  L 14,45  L 14,46  L 15,46  Z  " style="fill:rgb(31, 18, 27); fill-opacity:1.000; stroke:none;" />
 <path d="  M 15,62  L 15,63  L 14,63  L 14,64  L 18,64  L 18,63  L 19,63  L 19,62  L 18,62  L 18,61  L 17,61  L 17,62  Z  " style="fill:rgb(31, 18, 27); fill-opacity:1.000; stroke:none;" />
 <path d="  M 19,60  L 18,60  L 18,61  L 19,61  Z  " style="fill:rgb(31, 18, 27); fill-opacity:1.000; stroke:none;" />
 <path d="  M 19,63  L 19,64  L 21,64  L 21,63  Z  " style="fill:rgb(31, 18, 27); fill-opacity:1.000; stroke:none;" />
 <path d="  M 25,18  L 25,17  L 24,17  L 24,16  L 22,16  L 22,17  L 23,17  L 23,18  Z  " style="fill:rgb(31, 18, 27); fill-opacity:1.000; stroke:none;" />
 <path d="  M 32,63  L 31,63  L 31,62  L 29,62  L 29,61  L 30,61  L 30,60  L 28,60  L 28,61  L 25,61  L 25,62  L 26,62  L 26,63  L 24,63  L 24,64  L 32,64  Z  M 29,63  L 28,63  L 28,62  L 29,62  Z  " style="fill:rgb(31, 18, 27); fill-opacity:1.000; stroke:none;" />
 <path d="  M 25,18  L 25,19  L 26,19  L 26,18  Z  " style="fill:rgb(31, 18, 27); fill-opacity:1.000; stroke:none;" />
 <path d="  M 36,60  L 35,60  L 35,59  L 37,59  L 37,60  L 39,60  L 39,61  L 38,61  L 38,62  L 40,62  L 40,61  L 43,61  L 43,62  L 46,62  L 46,63  L 48,63  L 48,64  L 50,64  L 50,63  L 49,63  L 49,62  L 47,62  L 47,61  L 46,61  L 46,60  L 42,60  L 42,59  L 39,59  L 39,58  L 32,58  L 32,59  L 30,59  L 30,60  L 33,60  L 33,61  L 35,61  L 35,62  L 37,62  L 37,61  L 36,61  Z  " style="fill:rgb(31, 18, 27); fill-opacity:1.000; stroke:none;" />
 <path d="  M 35,63  L 35,62  L 34,62  L 34,63  Z  " style="fill:rgb(31, 18, 27); fill-opacity:1.000; stroke:none;" />
 <path d="  M 41,40  L 41,39  L 42,39  L 42,38  L 40,38  L 40,39  L 38,39  L 38,40  L 36,40  L 36,41  L 35,41  L 35,42  L 37,42  L 37,43  L 38,43  L 38,44  L 36,44  L 36,45  L 37,45  L 37,48  L 38,48  L 38,49  L 39,49  L 39,47  L 38,47  L 38,45  L 39,45  L 39,43  L 40,43  L 40,42  L 41,42  L 41,41  L 39,41  L 39,40  Z  " style="fill:rgb(31, 18, 27); fill-opacity:1.000; stroke:none;" />
 <path d="  M 35,43  L 35,44  L 36,44  L 36,43  Z  " style="fill:rgb(31, 18, 27); fill-opacity:1.000; stroke:none;" />
 <path d="  M 40,49  L 39,49  L 39,51  L 40,51  Z  " style="fill:rgb(31, 18, 27); fill-opacity:1.000; stroke:none;" />
 <path d="  M 42,38  L 43,38  L 43,37  L 42,37  Z  " style="fill:rgb(31, 18, 27); fill-opacity:1.000; stroke:none;" />
 <path d="  M 46,53  L 47,53  L 47,55  L 48,55  L 48,54  L 49,54  L 49,52  L 50,52  L 50,50  L 49,50  L 49,51  L 48,51  L 48,52  L 46,52  Z  " style="fill:rgb(31, 18, 27); fill-opacity:1.000; stroke:none;" />
 <path d="  M 48,50  L 47,50  L 47,51  L 48,51  Z  " style="fill:rgb(31, 18, 27); fill-opacity:1.000; stroke:none;" />
 <path d="  M 49,20  L 49,19  L 48,19  L 48,20  Z  " style="fill:rgb(31, 18, 27); fill-opacity:1.000; stroke:none;" />
 <path d="  M 50,18  L 49,18  L 49,19  L 51,19  L 51,18  L 52,18  L 52,17  L 50,17  Z  " style="fill:rgb(31, 18, 27); fill-opacity:1.000; stroke:none;" />
 <path d="  M 49,48  L 50,48  L 50,47  L 49,47  Z  " style="fill:rgb(31, 18, 27); fill-opacity:1.000; stroke:none;" />
 <path d="  M 51,50  L 51,49  L 52,49  L 52,47  L 51,47  L 51,48  L 50,48  L 50,50  Z  " style="fill:rgb(31, 18, 27); fill-opacity:1.000; stroke:none;" />
 <path d="  M 56,45  L 56,44  L 52,44  L 52,43  L 51,43  L 51,45  L 52,45  L 52,47  L 53,47  L 53,46  L 54,46  L 54,45  Z  " style="fill:rgb(31, 18, 27); fill-opacity:1.000; stroke:none;" />
 <path d="  M 52,16  L 52,17  L 53,17  L 53,16  Z  " style="fill:rgb(31, 18, 27); fill-opacity:1.000; stroke:none;" />
 <path d="  M 53,50  L 53,49  L 52,49  L 52,50  Z  " style="fill:rgb(31, 18, 27); fill-opacity:1.000; stroke:none;" />
 <path d="  M 55,62  L 55,61  L 53,61  L 53,62  L 54,62  L 54,63  L 52,63  L 52,64  L 60,64  L 60,63  L 58,63  L 58,62  Z  " style="fill:rgb(31, 18, 27); fill-opacity:1.000; stroke:none;" />
 <path d="  M 56,60  L 55,60  L 55,61  L 56,61  Z  " style="fill:rgb(31, 18, 27); fill-opacity:1.000; stroke:none;" />
 <path d="  M 61,12  L 61,13  L 62,13  L 62,12  Z  " style="fill:rgb(31, 18, 27); fill-opacity:1.000; stroke:none;" />
 <path d="  M 61,28  L 62,28  L 62,27  L 63,27  L 63,25  L 62,25  L 62,26  L 61,26  Z  " style="fill:rgb(31, 18, 27); fill-opacity:1.000; stroke:none;" />
 <path d="  M 63,31  L 63,29  L 62,29  L 62,30  L 61,30  L 61,31  Z  " style="fill:rgb(31, 18, 27); fill-opacity:1.000; stroke:none;" />
 <path d="  M 63,46  L 63,44  L 62,44  L 62,45  L 61,45  L 61,46  Z  " style="fill:rgb(31, 18, 27); fill-opacity:1.000; stroke:none;" />
 <path d="  M 61,50  L 62,50  L 62,49  L 61,49  Z  " style="fill:rgb(31, 18, 27); fill-opacity:1.000; stroke:none;" />
 <path d="  M 64,58  L 63,58  L 63,61  L 61,61  L 61,62  L 62,62  L 62,63  L 63,63  L 63,62  L 64,62  Z  " style="fill:rgb(31, 18, 27); fill-opacity:1.000; stroke:none;" />
 <path d="  M 62,5  L 62,7  L 63,7  L 63,5  Z  " style="fill:rgb(31, 18, 27); fill-opacity:1.000; stroke:none;" />
 <path d="  M 63,9  L 63,8  L 62,8  L 62,9  Z  " style="fill:rgb(31, 18, 27); fill-opacity:1.000; stroke:none;" />
 <path d="  M 64,9  L 63,9  L 63,11  L 62,11  L 62,12  L 63,12  L 63,13  L 62,13  L 62,14  L 63,14  L 63,16  L 64,16  Z  " style="fill:rgb(31, 18, 27); fill-opacity:1.000; stroke:none;" />
 <path d="  M 62,36  L 63,36  L 63,40  L 64,40  L 64,35  L 63,35  L 63,32  L 62,32  Z  " style="fill:rgb(31, 18, 27); fill-opacity:1.000; stroke:none;" />
 <path d="  M 64,46  L 63,46  L 63,47  L 62,47  L 62,49  L 63,49  L 63,56  L 64,56  Z  " style="fill:rgb(31, 18, 27); fill-opacity:1.000; stroke:none;" />
 <path d="  M 63,3  L 63,4  L 64,4  L 64,3  Z  " style="fill:rgb(31, 18, 27); fill-opacity:1.000; stroke:none;" />
 <path d="  M 64,24  L 63,24  L 63,25  L 64,25  Z  " style="fill:rgb(31, 18, 27); fill-opacity:1.000; stroke:none;" />
 <path d="  M 64,28  L 63,28  L 63,29  L 64,29  Z  " style="fill:rgb(31, 18, 27); fill-opacity:1.000; stroke:none;" />
 <path d="  M 63,7  L 62,7  L 62,8  L 63,8  L 63,9  L 64,9  L 64,4  L 63,4  Z  " style="fill:rgb(22, 15, 16); fill-opacity:1.000; stroke:none;" />
 <path d="  M 62,11  L 63,11  L 63,9  L 62,9  Z  " style="fill:rgb(22, 15, 16); fill-opacity:1.000; stroke:none;" />
 <path d="  M 64,29  L 63,29  L 63,31  L 62,31  L 62,32  L 63,32  L 63,35  L 64,35  Z  " style="fill:rgb(22, 15, 16); fill-opacity:1.000; stroke:none;" />
</svg>
