<?xml version="1.0" encoding="UTF-8" standalone="no"?>
<!DOCTYPE svg PUBLIC "-//W3C//DTD SVG 1.1//EN" 
  "http://www.w3.org/Graphics/SVG/1.1/DTD/svg11.dtd">
<svg width="64" height="64"
	 xmlns="http://www.w3.org/2000/svg" version="1.1">
 <path d="  M 16,61  L 18,61  L 18,60  L 15,60  L 15,61  L 14,61  L 14,62  L 13,62  L 13,64  L 14,64  L 14,63  L 16,63  Z  " style="fill:rgb(144, 117, 64); fill-opacity:1.000; stroke:none;" />
 <path d="  M 18,63  L 16,63  L 16,64  L 18,64  Z  " style="fill:rgb(144, 117, 64); fill-opacity:1.000; stroke:none;" />
 <path d="  M 20,61  L 20,62  L 21,62  L 21,61  Z  " style="fill:rgb(144, 117, 64); fill-opacity:1.000; stroke:none;" />
 <path d="  M 22,63  L 22,62  L 21,62  L 21,63  Z  " style="fill:rgb(144, 117, 64); fill-opacity:1.000; stroke:none;" />
 <path d="  M 28,64  L 28,63  L 27,63  L 27,62  L 26,62  L 26,61  L 27,61  L 27,60  L 25,60  L 25,62  L 24,62  L 24,64  Z  " style="fill:rgb(144, 117, 64); fill-opacity:1.000; stroke:none;" />
 <path d="  M 28,59  L 27,59  L 27,60  L 28,60  Z  " style="fill:rgb(144, 117, 64); fill-opacity:1.000; stroke:none;" />
 <path d="  M 30,58  L 29,58  L 29,59  L 30,59  Z  " style="fill:rgb(144, 117, 64); fill-opacity:1.000; stroke:none;" />
 <path d="  M 31,58  L 35,58  L 35,57  L 31,57  Z  " style="fill:rgb(144, 117, 64); fill-opacity:1.000; stroke:none;" />
 <path d="  M 36,59  L 36,60  L 38,60  L 38,59  L 37,59  L 37,58  L 35,58  L 35,59  Z  " style="fill:rgb(144, 117, 64); fill-opacity:1.000; stroke:none;" />
 <path d="  M 36,62  L 36,64  L 38,64  L 38,62  Z  " style="fill:rgb(144, 117, 64); fill-opacity:1.000; stroke:none;" />
 <path d="  M 43,63  L 44,63  L 44,62  L 46,62  L 46,61  L 47,61  L 47,60  L 45,60  L 45,61  L 43,61  L 43,62  L 42,62  L 42,63  L 41,63  L 41,64  L 43,64  Z  " style="fill:rgb(144, 117, 64); fill-opacity:1.000; stroke:none;" />
 <path d="  M 49,61  L 49,62  L 51,62  L 51,61  L 52,61  L 52,62  L 53,62  L 53,63  L 54,63  L 54,64  L 55,64  L 55,62  L 54,62  L 54,61  L 53,61  L 53,60  L 50,60  L 50,61  Z  " style="fill:rgb(144, 117, 64); fill-opacity:1.000; stroke:none;" />
 <path d="  M 51,63  L 52,63  L 52,62  L 51,62  Z  " style="fill:rgb(144, 117, 64); fill-opacity:1.000; stroke:none;" />
 <path d="  M 14,63  L 14,64  L 16,64  L 16,63  Z  " style="fill:rgb(133, 107, 58); fill-opacity:1.000; stroke:none;" />
 <path d="  M 17,63  L 17,62  L 18,62  L 18,61  L 16,61  L 16,63  Z  " style="fill:rgb(133, 107, 58); fill-opacity:1.000; stroke:none;" />
 <path d="  M 18,60  L 18,61  L 19,61  L 19,62  L 20,62  L 20,60  Z  " style="fill:rgb(133, 107, 58); fill-opacity:1.000; stroke:none;" />
 <path d="  M 22,62  L 22,61  L 21,61  L 21,62  Z  " style="fill:rgb(133, 107, 58); fill-opacity:1.000; stroke:none;" />
 <path d="  M 22,64  L 24,64  L 24,63  L 23,63  L 23,62  L 22,62  Z  " style="fill:rgb(133, 107, 58); fill-opacity:1.000; stroke:none;" />
 <path d="  M 27,59  L 26,59  L 26,60  L 27,60  Z  " style="fill:rgb(133, 107, 58); fill-opacity:1.000; stroke:none;" />
 <path d="  M 29,59  L 29,58  L 27,58  L 27,59  Z  " style="fill:rgb(133, 107, 58); fill-opacity:1.000; stroke:none;" />
 <path d="  M 29,57  L 29,58  L 31,58  L 31,57  Z  " style="fill:rgb(133, 107, 58); fill-opacity:1.000; stroke:none;" />
 <path d="  M 38,64  L 41,64  L 41,63  L 40,63  L 40,62  L 39,62  L 39,60  L 38,60  Z  " style="fill:rgb(133, 107, 58); fill-opacity:1.000; stroke:none;" />
 <path d="  M 43,64  L 44,64  L 44,63  L 43,63  Z  " style="fill:rgb(133, 107, 58); fill-opacity:1.000; stroke:none;" />
 <path d="  M 45,63  L 45,62  L 44,62  L 44,63  Z  " style="fill:rgb(133, 107, 58); fill-opacity:1.000; stroke:none;" />
 <path d="  M 47,60  L 47,61  L 46,61  L 46,62  L 48,62  L 48,61  L 50,61  L 50,60  Z  " style="fill:rgb(133, 107, 58); fill-opacity:1.000; stroke:none;" />
 <path d="  M 51,61  L 51,62  L 52,62  L 52,61  Z  " style="fill:rgb(133, 107, 58); fill-opacity:1.000; stroke:none;" />
 <path d="  M 53,62  L 52,62  L 52,63  L 53,63  Z  " style="fill:rgb(133, 107, 58); fill-opacity:1.000; stroke:none;" />
 <path d="  M 54,64  L 54,63  L 53,63  L 53,64  Z  " style="fill:rgb(133, 107, 58); fill-opacity:1.000; stroke:none;" />
 <path d="  M 17,49  L 16,49  L 16,50  L 18,50  L 18,48  L 17,48  Z  " style="fill:rgb(85, 171, 45); fill-opacity:1.000; stroke:none;" />
 <path d="  M 19,50  L 18,50  L 18,51  L 17,51  L 17,52  L 18,52  L 18,53  L 19,53  L 19,54  L 20,54  L 20,55  L 21,55  L 21,53  L 20,53  L 20,52  L 19,52  Z  " style="fill:rgb(85, 171, 45); fill-opacity:1.000; stroke:none;" />
 <path d="  M 22,55  L 21,55  L 21,56  L 22,56  Z  " style="fill:rgb(85, 171, 45); fill-opacity:1.000; stroke:none;" />
 <path d="  M 25,27  L 24,27  L 24,28  L 25,28  Z  " style="fill:rgb(85, 171, 45); fill-opacity:1.000; stroke:none;" />
 <path d="  M 30,22  L 32,22  L 32,21  L 34,21  L 34,20  L 30,20  L 30,21  L 28,21  L 28,22  L 27,22  L 27,23  L 26,23  L 26,24  L 25,24  L 25,27  L 26,27  L 26,28  L 27,28  L 27,25  L 28,25  L 28,23  L 30,23  Z  " style="fill:rgb(85, 171, 45); fill-opacity:1.000; stroke:none;" />
 <path d="  M 26,28  L 25,28  L 25,30  L 27,30  L 27,29  L 26,29  Z  " style="fill:rgb(85, 171, 45); fill-opacity:1.000; stroke:none;" />
 <path d="  M 28,44  L 28,43  L 27,43  L 27,44  Z  " style="fill:rgb(85, 171, 45); fill-opacity:1.000; stroke:none;" />
 <path d="  M 31,48  L 32,48  L 32,46  L 31,46  L 31,45  L 30,45  L 30,44  L 28,44  L 28,45  L 29,45  L 29,46  L 30,46  L 30,48  L 29,48  L 29,50  L 30,50  L 30,51  L 31,51  L 31,53  L 32,53  L 32,50  L 31,50  Z  " style="fill:rgb(85, 171, 45); fill-opacity:1.000; stroke:none;" />
 <path d="  M 28,51  L 29,51  L 29,50  L 28,50  Z  " style="fill:rgb(85, 171, 45); fill-opacity:1.000; stroke:none;" />
 <path d="  M 32,23  L 32,24  L 34,24  L 34,23  Z  " style="fill:rgb(85, 171, 45); fill-opacity:1.000; stroke:none;" />
 <path d="  M 34,45  L 34,43  L 33,43  L 33,44  L 32,44  L 32,46  L 33,46  L 33,45  Z  " style="fill:rgb(85, 171, 45); fill-opacity:1.000; stroke:none;" />
 <path d="  M 34,40  L 34,39  L 33,39  L 33,40  Z  " style="fill:rgb(85, 171, 45); fill-opacity:1.000; stroke:none;" />
 <path d="  M 35,22  L 35,21  L 34,21  L 34,22  Z  " style="fill:rgb(85, 171, 45); fill-opacity:1.000; stroke:none;" />
 <path d="  M 34,25  L 35,25  L 35,26  L 36,26  L 36,29  L 37,29  L 37,32  L 36,32  L 36,35  L 35,35  L 35,36  L 34,36  L 34,39  L 35,39  L 35,38  L 36,38  L 36,36  L 37,36  L 37,34  L 38,34  L 38,32  L 39,32  L 39,26  L 38,26  L 38,25  L 37,25  L 37,24  L 34,24  Z  " style="fill:rgb(85, 171, 45); fill-opacity:1.000; stroke:none;" />
 <path d="  M 34,42  L 34,43  L 35,43  L 35,42  Z  " style="fill:rgb(85, 171, 45); fill-opacity:1.000; stroke:none;" />
 <path d="  M 49,52  L 50,52  L 50,51  L 49,51  Z  " style="fill:rgb(85, 171, 45); fill-opacity:1.000; stroke:none;" />
 <path d="  M 52,51  L 52,52  L 53,52  L 53,51  L 54,51  L 54,50  L 52,50  L 52,49  L 51,49  L 51,50  L 50,50  L 50,51  Z  " style="fill:rgb(85, 171, 45); fill-opacity:1.000; stroke:none;" />
 <path d="  M 17,50  L 17,51  L 18,51  L 18,50  Z  " style="fill:rgb(74, 143, 40); fill-opacity:1.000; stroke:none;" />
 <path d="  M 18,50  L 19,50  L 19,52  L 20,52  L 20,53  L 21,53  L 21,51  L 20,51  L 20,49  L 19,49  L 19,48  L 18,48  Z  " style="fill:rgb(74, 143, 40); fill-opacity:1.000; stroke:none;" />
 <path d="  M 22,55  L 22,53  L 21,53  L 21,55  Z  " style="fill:rgb(74, 143, 40); fill-opacity:1.000; stroke:none;" />
 <path d="  M 21,56  L 21,57  L 23,57  L 23,58  L 24,58  L 24,56  L 23,56  L 23,55  L 22,55  L 22,56  Z  " style="fill:rgb(74, 143, 40); fill-opacity:1.000; stroke:none;" />
 <path d="  M 25,26  L 24,26  L 24,27  L 25,27  Z  " style="fill:rgb(74, 143, 40); fill-opacity:1.000; stroke:none;" />
 <path d="  M 24,40  L 24,41  L 25,41  L 25,40  Z  " style="fill:rgb(74, 143, 40); fill-opacity:1.000; stroke:none;" />
 <path d="  M 24,59  L 25,59  L 25,58  L 24,58  Z  " style="fill:rgb(74, 143, 40); fill-opacity:1.000; stroke:none;" />
 <path d="  M 25,27  L 25,28  L 26,28  L 26,27  Z  " style="fill:rgb(74, 143, 40); fill-opacity:1.000; stroke:none;" />
 <path d="  M 26,42  L 26,41  L 25,41  L 25,42  Z  " style="fill:rgb(74, 143, 40); fill-opacity:1.000; stroke:none;" />
 <path d="  M 28,52  L 27,52  L 27,54  L 26,54  L 26,56  L 25,56  L 25,57  L 27,57  L 27,55  L 28,55  Z  " style="fill:rgb(74, 143, 40); fill-opacity:1.000; stroke:none;" />
 <path d="  M 27,29  L 27,30  L 29,30  L 29,29  L 30,29  L 30,28  L 28,28  L 28,25  L 27,25  L 27,28  L 26,28  L 26,29  Z  " style="fill:rgb(74, 143, 40); fill-opacity:1.000; stroke:none;" />
 <path d="  M 28,43  L 28,42  L 26,42  L 26,43  Z  " style="fill:rgb(74, 143, 40); fill-opacity:1.000; stroke:none;" />
 <path d="  M 43,25  L 43,24  L 40,24  L 40,25  L 39,25  L 39,24  L 38,24  L 38,23  L 37,23  L 37,22  L 36,22  L 36,21  L 35,21  L 35,22  L 34,22  L 34,21  L 32,21  L 32,22  L 30,22  L 30,23  L 28,23  L 28,25  L 29,25  L 29,24  L 32,24  L 32,23  L 34,23  L 34,24  L 37,24  L 37,25  L 38,25  L 38,26  L 39,26  L 39,32  L 38,32  L 38,34  L 37,34  L 37,36  L 36,36  L 36,38  L 37,38  L 37,37  L 38,37  L 38,36  L 39,36  L 39,34  L 40,34  L 40,28  L 41,28  L 41,26  L 42,26  L 42,25  Z  " style="fill:rgb(74, 143, 40); fill-opacity:1.000; stroke:none;" />
 <path d="  M 30,44  L 30,43  L 28,43  L 28,44  Z  " style="fill:rgb(74, 143, 40); fill-opacity:1.000; stroke:none;" />
 <path d="  M 29,52  L 29,51  L 28,51  L 28,52  Z  " style="fill:rgb(74, 143, 40); fill-opacity:1.000; stroke:none;" />
 <path d="  M 30,51  L 30,50  L 29,50  L 29,51  Z  " style="fill:rgb(74, 143, 40); fill-opacity:1.000; stroke:none;" />
 <path d="  M 30,27  L 30,28  L 31,28  L 31,27  Z  " style="fill:rgb(74, 143, 40); fill-opacity:1.000; stroke:none;" />
 <path d="  M 31,44  L 30,44  L 30,45  L 31,45  Z  " style="fill:rgb(74, 143, 40); fill-opacity:1.000; stroke:none;" />
 <path d="  M 31,51  L 30,51  L 30,53  L 31,53  Z  " style="fill:rgb(74, 143, 40); fill-opacity:1.000; stroke:none;" />
 <path d="  M 31,55  L 30,55  L 30,56  L 31,56  Z  " style="fill:rgb(74, 143, 40); fill-opacity:1.000; stroke:none;" />
 <path d="  M 31,46  L 32,46  L 32,45  L 31,45  Z  " style="fill:rgb(74, 143, 40); fill-opacity:1.000; stroke:none;" />
 <path d="  M 36,46  L 36,45  L 38,45  L 38,44  L 36,44  L 36,43  L 34,43  L 34,45  L 33,45  L 33,46  L 32,46  L 32,48  L 31,48  L 31,50  L 33,50  L 33,48  L 34,48  L 34,47  L 35,47  L 35,46  Z  " style="fill:rgb(74, 143, 40); fill-opacity:1.000; stroke:none;" />
 <path d="  M 32,53  L 31,53  L 31,55  L 32,55  Z  " style="fill:rgb(74, 143, 40); fill-opacity:1.000; stroke:none;" />
 <path d="  M 32,44  L 33,44  L 33,43  L 34,43  L 34,42  L 35,42  L 35,40  L 36,40  L 36,38  L 35,38  L 35,39  L 34,39  L 34,40  L 33,40  L 33,39  L 32,39  Z  " style="fill:rgb(74, 143, 40); fill-opacity:1.000; stroke:none;" />
 <path d="  M 34,37  L 33,37  L 33,39  L 34,39  Z  " style="fill:rgb(74, 143, 40); fill-opacity:1.000; stroke:none;" />
 <path d="  M 35,35  L 34,35  L 34,36  L 35,36  Z  " style="fill:rgb(74, 143, 40); fill-opacity:1.000; stroke:none;" />
 <path d="  M 35,34  L 35,35  L 36,35  L 36,34  Z  " style="fill:rgb(74, 143, 40); fill-opacity:1.000; stroke:none;" />
 <path d="  M 37,29  L 36,29  L 36,32  L 37,32  Z  " style="fill:rgb(74, 143, 40); fill-opacity:1.000; stroke:none;" />
 <path d="  M 40,54  L 39,54  L 39,52  L 38,52  L 38,55  L 39,55  L 39,56  L 40,56  Z  " style="fill:rgb(74, 143, 40); fill-opacity:1.000; stroke:none;" />
 <path d="  M 42,58  L 42,57  L 41,57  L 41,56  L 40,56  L 40,58  L 41,58  L 41,59  L 42,59  L 42,60  L 43,60  L 43,59  L 44,59  L 44,58  L 45,58  L 45,57  L 46,57  L 46,56  L 44,56  L 44,57  L 43,57  L 43,58  Z  " style="fill:rgb(74, 143, 40); fill-opacity:1.000; stroke:none;" />
 <path d="  M 44,60  L 45,60  L 45,59  L 44,59  Z  " style="fill:rgb(74, 143, 40); fill-opacity:1.000; stroke:none;" />
 <path d="  M 47,53  L 46,53  L 46,54  L 47,54  Z  " style="fill:rgb(74, 143, 40); fill-opacity:1.000; stroke:none;" />
 <path d="  M 47,55  L 46,55  L 46,56  L 47,56  Z  " style="fill:rgb(74, 143, 40); fill-opacity:1.000; stroke:none;" />
 <path d="  M 48,54  L 47,54  L 47,55  L 48,55  Z  " style="fill:rgb(74, 143, 40); fill-opacity:1.000; stroke:none;" />
 <path d="  M 48,54  L 49,54  L 49,53  L 50,53  L 50,52  L 49,52  L 49,51  L 48,51  Z  " style="fill:rgb(74, 143, 40); fill-opacity:1.000; stroke:none;" />
 <path d="  M 50,52  L 52,52  L 52,51  L 50,51  Z  " style="fill:rgb(74, 143, 40); fill-opacity:1.000; stroke:none;" />
 <path d="  M 53,59  L 52,59  L 52,60  L 53,60  Z  " style="fill:rgb(74, 143, 40); fill-opacity:1.000; stroke:none;" />
 <path d="  M 53,59  L 54,59  L 54,58  L 53,58  Z  " style="fill:rgb(74, 143, 40); fill-opacity:1.000; stroke:none;" />
 <path d="  M 18,64  L 22,64  L 22,63  L 21,63  L 21,62  L 19,62  L 19,61  L 18,61  L 18,62  L 17,62  L 17,63  L 18,63  Z  " style="fill:rgb(170, 141, 74); fill-opacity:1.000; stroke:none;" />
 <path d="  M 26,62  L 27,62  L 27,61  L 26,61  Z  " style="fill:rgb(170, 141, 74); fill-opacity:1.000; stroke:none;" />
 <path d="  M 27,61  L 28,61  L 28,60  L 27,60  Z  " style="fill:rgb(170, 141, 74); fill-opacity:1.000; stroke:none;" />
 <path d="  M 27,63  L 28,63  L 28,62  L 27,62  Z  " style="fill:rgb(170, 141, 74); fill-opacity:1.000; stroke:none;" />
 <path d="  M 32,61  L 32,60  L 31,60  L 31,59  L 33,59  L 33,60  L 34,60  L 34,59  L 35,59  L 35,58  L 30,58  L 30,59  L 28,59  L 28,60  L 30,60  L 30,61  Z  " style="fill:rgb(170, 141, 74); fill-opacity:1.000; stroke:none;" />
 <path d="  M 31,64  L 31,63  L 30,63  L 30,62  L 29,62  L 29,63  L 28,63  L 28,64  Z  " style="fill:rgb(170, 141, 74); fill-opacity:1.000; stroke:none;" />
 <path d="  M 33,62  L 33,61  L 32,61  L 32,62  Z  " style="fill:rgb(170, 141, 74); fill-opacity:1.000; stroke:none;" />
 <path d="  M 36,62  L 35,62  L 35,63  L 34,63  L 34,62  L 33,62  L 33,63  L 32,63  L 32,64  L 36,64  Z  " style="fill:rgb(170, 141, 74); fill-opacity:1.000; stroke:none;" />
 <path d="  M 35,59  L 35,61  L 36,61  L 36,59  Z  " style="fill:rgb(170, 141, 74); fill-opacity:1.000; stroke:none;" />
 <path d="  M 38,60  L 37,60  L 37,61  L 36,61  L 36,62  L 38,62  Z  " style="fill:rgb(170, 141, 74); fill-opacity:1.000; stroke:none;" />
 <path d="  M 44,64  L 53,64  L 53,63  L 51,63  L 51,62  L 49,62  L 49,61  L 48,61  L 48,62  L 45,62  L 45,63  L 44,63  Z  " style="fill:rgb(170, 141, 74); fill-opacity:1.000; stroke:none;" />
 <path d="  M 19,48  L 19,49  L 20,49  L 20,47  L 19,47  L 19,46  L 18,46  L 18,48  Z  " style="fill:rgb(43, 112, 42); fill-opacity:1.000; stroke:none;" />
 <path d="  M 20,56  L 21,56  L 21,55  L 20,55  Z  " style="fill:rgb(43, 112, 42); fill-opacity:1.000; stroke:none;" />
 <path d="  M 20,61  L 21,61  L 21,60  L 20,60  Z  " style="fill:rgb(43, 112, 42); fill-opacity:1.000; stroke:none;" />
 <path d="  M 22,58  L 22,57  L 21,57  L 21,58  Z  " style="fill:rgb(43, 112, 42); fill-opacity:1.000; stroke:none;" />
 <path d="  M 22,58  L 22,60  L 23,60  L 23,61  L 24,61  L 24,62  L 25,62  L 25,60  L 26,60  L 26,59  L 27,59  L 27,58  L 29,58  L 29,57  L 31,57  L 31,56  L 30,56  L 30,55  L 31,55  L 31,53  L 30,53  L 30,51  L 29,51  L 29,52  L 28,52  L 28,55  L 27,55  L 27,57  L 25,57  L 25,56  L 24,56  L 24,58  Z  M 24,59  L 24,58  L 25,58  L 25,59  Z  " style="fill:rgb(43, 112, 42); fill-opacity:1.000; stroke:none;" />
 <path d="  M 24,55  L 23,55  L 23,56  L 24,56  Z  " style="fill:rgb(43, 112, 42); fill-opacity:1.000; stroke:none;" />
 <path d="  M 24,62  L 23,62  L 23,63  L 24,63  Z  " style="fill:rgb(43, 112, 42); fill-opacity:1.000; stroke:none;" />
 <path d="  M 30,43  L 30,42  L 29,42  L 29,41  L 27,41  L 27,40  L 25,40  L 25,41  L 26,41  L 26,42  L 28,42  L 28,43  Z  " style="fill:rgb(43, 112, 42); fill-opacity:1.000; stroke:none;" />
 <path d="  M 30,28  L 30,29  L 29,29  L 29,30  L 26,30  L 26,31  L 27,31  L 27,32  L 29,32  L 29,31  L 30,31  L 30,30  L 31,30  L 31,28  Z  " style="fill:rgb(43, 112, 42); fill-opacity:1.000; stroke:none;" />
 <path d="  M 30,44  L 31,44  L 31,43  L 30,43  Z  " style="fill:rgb(43, 112, 42); fill-opacity:1.000; stroke:none;" />
 <path d="  M 31,28  L 32,28  L 32,26  L 31,26  Z  " style="fill:rgb(43, 112, 42); fill-opacity:1.000; stroke:none;" />
 <path d="  M 32,44  L 31,44  L 31,45  L 32,45  Z  " style="fill:rgb(43, 112, 42); fill-opacity:1.000; stroke:none;" />
 <path d="  M 31,55  L 31,56  L 32,56  L 32,55  Z  " style="fill:rgb(43, 112, 42); fill-opacity:1.000; stroke:none;" />
 <path d="  M 36,47  L 37,47  L 37,46  L 38,46  L 38,45  L 36,45  L 36,46  L 35,46  L 35,47  L 34,47  L 34,48  L 33,48  L 33,50  L 32,50  L 32,55  L 33,55  L 33,54  L 34,54  L 34,53  L 33,53  L 33,51  L 34,51  L 34,52  L 35,52  L 35,49  L 36,49  Z  " style="fill:rgb(43, 112, 42); fill-opacity:1.000; stroke:none;" />
 <path d="  M 36,58  L 36,56  L 34,56  L 34,57  L 35,57  L 35,58  Z  " style="fill:rgb(43, 112, 42); fill-opacity:1.000; stroke:none;" />
 <path d="  M 37,55  L 36,55  L 36,56  L 37,56  Z  " style="fill:rgb(43, 112, 42); fill-opacity:1.000; stroke:none;" />
 <path d="  M 38,58  L 39,58  L 39,59  L 40,59  L 40,60  L 39,60  L 39,62  L 40,62  L 40,63  L 42,63  L 42,62  L 43,62  L 43,61  L 45,61  L 45,60  L 44,60  L 44,59  L 43,59  L 43,60  L 42,60  L 42,59  L 41,59  L 41,58  L 40,58  L 40,56  L 39,56  L 39,55  L 38,55  L 38,56  L 37,56  L 37,57  L 38,57  Z  " style="fill:rgb(43, 112, 42); fill-opacity:1.000; stroke:none;" />
 <path d="  M 38,59  L 38,58  L 37,58  L 37,59  Z  " style="fill:rgb(43, 112, 42); fill-opacity:1.000; stroke:none;" />
 <path d="  M 39,44  L 38,44  L 38,45  L 39,45  Z  " style="fill:rgb(43, 112, 42); fill-opacity:1.000; stroke:none;" />
 <path d="  M 42,58  L 43,58  L 43,57  L 42,57  Z  " style="fill:rgb(43, 112, 42); fill-opacity:1.000; stroke:none;" />
 <path d="  M 44,57  L 44,56  L 43,56  L 43,57  Z  " style="fill:rgb(43, 112, 42); fill-opacity:1.000; stroke:none;" />
 <path d="  M 44,55  L 44,56  L 46,56  L 46,55  L 47,55  L 47,54  L 45,54  L 45,55  Z  " style="fill:rgb(43, 112, 42); fill-opacity:1.000; stroke:none;" />
 <path d="  M 48,54  L 48,52  L 47,52  L 47,54  Z  " style="fill:rgb(43, 112, 42); fill-opacity:1.000; stroke:none;" />
 <path d="  M 52,59  L 51,59  L 51,60  L 52,60  Z  " style="fill:rgb(43, 112, 42); fill-opacity:1.000; stroke:none;" />
 <path d="  M 52,59  L 53,59  L 53,57  L 52,57  Z  " style="fill:rgb(43, 112, 42); fill-opacity:1.000; stroke:none;" />
 <path d="  M 53,59  L 53,61  L 54,61  L 54,60  L 56,60  L 56,59  Z  " style="fill:rgb(43, 112, 42); fill-opacity:1.000; stroke:none;" />
 <path d="  M 24,61  L 23,61  L 23,60  L 22,60  L 22,58  L 21,58  L 21,56  L 20,56  L 20,58  L 19,58  L 19,59  L 18,59  L 18,60  L 21,60  L 21,61  L 22,61  L 22,62  L 24,62  Z  " style="fill:rgb(38, 99, 37); fill-opacity:1.000; stroke:none;" />
 <path d="  M 22,57  L 22,58  L 23,58  L 23,57  Z  " style="fill:rgb(38, 99, 37); fill-opacity:1.000; stroke:none;" />
 <path d="  M 30,42  L 30,41  L 29,41  L 29,42  Z  " style="fill:rgb(38, 99, 37); fill-opacity:1.000; stroke:none;" />
 <path d="  M 31,42  L 30,42  L 30,43  L 31,43  Z  " style="fill:rgb(38, 99, 37); fill-opacity:1.000; stroke:none;" />
 <path d="  M 32,44  L 32,43  L 31,43  L 31,44  Z  " style="fill:rgb(38, 99, 37); fill-opacity:1.000; stroke:none;" />
 <path d="  M 34,53  L 34,54  L 33,54  L 33,55  L 32,55  L 32,56  L 31,56  L 31,57  L 34,57  L 34,56  L 36,56  L 36,55  L 37,55  L 37,54  L 36,54  L 36,49  L 35,49  L 35,52  L 34,52  L 34,51  L 33,51  L 33,53  Z  " style="fill:rgb(38, 99, 37); fill-opacity:1.000; stroke:none;" />
 <path d="  M 38,58  L 38,57  L 37,57  L 37,56  L 36,56  L 36,58  Z  " style="fill:rgb(38, 99, 37); fill-opacity:1.000; stroke:none;" />
 <path d="  M 38,56  L 38,55  L 37,55  L 37,56  Z  " style="fill:rgb(38, 99, 37); fill-opacity:1.000; stroke:none;" />
 <path d="  M 40,60  L 40,59  L 39,59  L 39,58  L 38,58  L 38,60  Z  " style="fill:rgb(38, 99, 37); fill-opacity:1.000; stroke:none;" />
 <path d="  M 29,62  L 30,62  L 30,63  L 31,63  L 31,64  L 32,64  L 32,63  L 33,63  L 33,62  L 32,62  L 32,61  L 30,61  L 30,60  L 28,60  L 28,61  L 27,61  L 27,62  L 28,62  L 28,63  L 29,63  Z  " style="fill:rgb(200, 162, 75); fill-opacity:1.000; stroke:none;" />
 <path d="  M 34,59  L 34,60  L 33,60  L 33,59  L 31,59  L 31,60  L 32,60  L 32,61  L 33,61  L 33,62  L 34,62  L 34,63  L 35,63  L 35,62  L 36,62  L 36,61  L 35,61  L 35,59  Z  " style="fill:rgb(200, 162, 75); fill-opacity:1.000; stroke:none;" />
 <path d="  M 37,60  L 36,60  L 36,61  L 37,61  Z  " style="fill:rgb(200, 162, 75); fill-opacity:1.000; stroke:none;" />
</svg>
