<?xml version="1.0" encoding="UTF-8" standalone="no"?>
<!DOCTYPE svg PUBLIC "-//W3C//DTD SVG 1.1//EN" 
  "http://www.w3.org/Graphics/SVG/1.1/DTD/svg11.dtd">
<svg width="64" height="64"
	 xmlns="http://www.w3.org/2000/svg" version="1.1">
 <path d="  M 0,0  L 0,64  L 64,64  L 64,0  Z  M 8,2  L 8,3  L 10,3  L 10,2  L 26,2  L 26,3  L 28,3  L 28,4  L 29,4  L 29,5  L 30,5  L 30,7  L 31,7  L 31,13  L 30,13  L 30,14  L 29,14  L 29,15  L 28,15  L 28,16  L 27,16  L 27,17  L 26,17  L 26,18  L 25,18  L 25,19  L 24,19  L 24,20  L 23,20  L 23,21  L 22,21  L 22,22  L 21,22  L 21,23  L 20,23  L 20,24  L 19,24  L 19,25  L 18,25  L 18,26  L 17,26  L 17,27  L 16,27  L 16,28  L 15,28  L 15,29  L 14,29  L 14,30  L 13,30  L 13,31  L 7,31  L 7,30  L 5,30  L 5,29  L 4,29  L 4,28  L 3,28  L 3,26  L 2,26  L 2,10  L 3,10  L 3,8  L 2,8  L 2,6  L 1,6  L 1,3  L 2,3  L 2,2  L 3,2  L 3,1  L 6,1  L 6,2  Z  M 38,62  L 38,61  L 36,61  L 36,60  L 35,60  L 35,59  L 34,59  L 34,50  L 35,50  L 35,49  L 36,49  L 36,48  L 37,48  L 37,47  L 38,47  L 38,46  L 39,46  L 39,45  L 40,45  L 40,44  L 41,44  L 41,43  L 42,43  L 42,42  L 43,42  L 43,41  L 44,41  L 44,40  L 45,40  L 45,39  L 46,39  L 46,38  L 47,38  L 47,37  L 48,37  L 48,36  L 49,36  L 49,35  L 50,35  L 50,34  L 59,34  L 59,35  L 60,35  L 60,36  L 61,36  L 61,38  L 62,38  L 62,54  L 61,54  L 61,56  L 62,56  L 62,58  L 63,58  L 63,61  L 62,61  L 62,62  L 61,62  L 61,63  L 58,63  L 58,62  L 56,62  L 56,61  L 54,61  L 54,62  Z  M 2,38  L 3,38  L 3,36  L 4,36  L 4,35  L 5,35  L 5,34  L 14,34  L 14,35  L 15,35  L 15,36  L 16,36  L 16,37  L 17,37  L 17,38  L 18,38  L 18,39  L 19,39  L 19,40  L 20,40  L 20,41  L 21,41  L 21,42  L 22,42  L 22,43  L 23,43  L 23,44  L 24,44  L 24,45  L 25,45  L 25,46  L 26,46  L 26,47  L 27,47  L 27,48  L 28,48  L 28,49  L 29,49  L 29,50  L 30,50  L 30,51  L 31,51  L 31,57  L 30,57  L 30,59  L 29,59  L 29,60  L 28,60  L 28,61  L 26,61  L 26,62  L 10,62  L 10,61  L 8,61  L 8,62  L 6,62  L 6,63  L 3,63  L 3,62  L 2,62  L 2,61  L 1,61  L 1,58  L 2,58  L 2,56  L 3,56  L 3,54  L 2,54  Z  M 39,18  L 38,18  L 38,17  L 37,17  L 37,16  L 36,16  L 36,15  L 35,15  L 35,14  L 34,14  L 34,5  L 35,5  L 35,4  L 36,4  L 36,3  L 38,3  L 38,2  L 54,2  L 54,3  L 56,3  L 56,2  L 58,2  L 58,1  L 61,1  L 61,2  L 62,2  L 62,3  L 63,3  L 63,6  L 62,6  L 62,8  L 61,8  L 61,10  L 62,10  L 62,26  L 61,26  L 61,28  L 60,28  L 60,29  L 59,29  L 59,30  L 57,30  L 57,31  L 51,31  L 51,30  L 50,30  L 50,29  L 49,29  L 49,28  L 48,28  L 48,27  L 47,27  L 47,26  L 46,26  L 46,25  L 45,25  L 45,24  L 44,24  L 44,23  L 43,23  L 43,22  L 42,22  L 42,21  L 41,21  L 41,20  L 40,20  L 40,19  L 39,19  Z  M 23,24  L 23,23  L 24,23  L 24,22  L 25,22  L 25,21  L 26,21  L 26,20  L 27,20  L 27,19  L 28,19  L 28,18  L 29,18  L 29,17  L 30,17  L 30,16  L 31,16  L 31,15  L 33,15  L 33,16  L 34,16  L 34,17  L 35,17  L 35,18  L 36,18  L 36,19  L 37,19  L 37,20  L 38,20  L 38,21  L 39,21  L 39,22  L 40,22  L 40,23  L 41,23  L 41,24  L 42,24  L 42,25  L 43,25  L 43,26  L 44,26  L 44,27  L 45,27  L 45,28  L 46,28  L 46,29  L 47,29  L 47,30  L 48,30  L 48,31  L 49,31  L 49,33  L 48,33  L 48,34  L 47,34  L 47,35  L 46,35  L 46,36  L 45,36  L 45,37  L 44,37  L 44,38  L 43,38  L 43,39  L 42,39  L 42,40  L 41,40  L 41,41  L 40,41  L 40,42  L 39,42  L 39,43  L 38,43  L 38,44  L 37,44  L 37,45  L 36,45  L 36,46  L 35,46  L 35,47  L 34,47  L 34,48  L 33,48  L 33,49  L 31,49  L 31,48  L 30,48  L 30,47  L 29,47  L 29,46  L 28,46  L 28,45  L 27,45  L 27,44  L 26,44  L 26,43  L 25,43  L 25,42  L 24,42  L 24,41  L 23,41  L 23,40  L 22,40  L 22,39  L 21,39  L 21,38  L 20,38  L 20,37  L 19,37  L 19,36  L 18,36  L 18,35  L 17,35  L 17,34  L 16,34  L 16,33  L 15,33  L 15,31  L 16,31  L 16,30  L 17,30  L 17,29  L 18,29  L 18,28  L 19,28  L 19,27  L 20,27  L 20,26  L 21,26  L 21,25  L 22,25  L 22,24  Z  " style="fill:rgb(49, 26, 17); fill-opacity:1.000; stroke:none;" />
 <path d="  M 4,6  L 3,6  L 3,8  L 4,8  Z  " style="fill:rgb(49, 26, 17); fill-opacity:1.000; stroke:none;" />
 <path d="  M 3,58  L 4,58  L 4,56  L 3,56  Z  " style="fill:rgb(49, 26, 17); fill-opacity:1.000; stroke:none;" />
 <path d="  M 4,5  L 4,6  L 5,6  L 5,5  Z  " style="fill:rgb(49, 26, 17); fill-opacity:1.000; stroke:none;" />
 <path d="  M 5,59  L 5,58  L 4,58  L 4,59  Z  " style="fill:rgb(49, 26, 17); fill-opacity:1.000; stroke:none;" />
 <path d="  M 5,4  L 5,5  L 6,5  L 6,4  Z  " style="fill:rgb(49, 26, 17); fill-opacity:1.000; stroke:none;" />
 <path d="  M 5,60  L 6,60  L 6,59  L 5,59  Z  " style="fill:rgb(49, 26, 17); fill-opacity:1.000; stroke:none;" />
 <path d="  M 6,4  L 8,4  L 8,3  L 6,3  Z  " style="fill:rgb(49, 26, 17); fill-opacity:1.000; stroke:none;" />
 <path d="  M 6,60  L 6,61  L 8,61  L 8,60  Z  " style="fill:rgb(49, 26, 17); fill-opacity:1.000; stroke:none;" />
 <path d="  M 56,4  L 58,4  L 58,3  L 56,3  Z  " style="fill:rgb(49, 26, 17); fill-opacity:1.000; stroke:none;" />
 <path d="  M 56,60  L 56,61  L 58,61  L 58,60  Z  " style="fill:rgb(49, 26, 17); fill-opacity:1.000; stroke:none;" />
 <path d="  M 59,5  L 59,4  L 58,4  L 58,5  Z  " style="fill:rgb(49, 26, 17); fill-opacity:1.000; stroke:none;" />
 <path d="  M 58,59  L 58,60  L 59,60  L 59,59  Z  " style="fill:rgb(49, 26, 17); fill-opacity:1.000; stroke:none;" />
 <path d="  M 59,6  L 60,6  L 60,5  L 59,5  Z  " style="fill:rgb(49, 26, 17); fill-opacity:1.000; stroke:none;" />
 <path d="  M 59,59  L 60,59  L 60,58  L 59,58  Z  " style="fill:rgb(49, 26, 17); fill-opacity:1.000; stroke:none;" />
 <path d="  M 61,6  L 60,6  L 60,8  L 61,8  Z  " style="fill:rgb(49, 26, 17); fill-opacity:1.000; stroke:none;" />
 <path d="  M 61,58  L 61,56  L 60,56  L 60,58  Z  " style="fill:rgb(49, 26, 17); fill-opacity:1.000; stroke:none;" />
 <path d="  M 2,3  L 1,3  L 1,6  L 2,6  Z  " style="fill:rgb(95, 51, 21); fill-opacity:1.000; stroke:none;" />
 <path d="  M 1,61  L 2,61  L 2,58  L 1,58  Z  " style="fill:rgb(95, 51, 21); fill-opacity:1.000; stroke:none;" />
 <path d="  M 3,3  L 3,2  L 2,2  L 2,3  Z  " style="fill:rgb(95, 51, 21); fill-opacity:1.000; stroke:none;" />
 <path d="  M 3,10  L 2,10  L 2,24  L 3,24  Z  " style="fill:rgb(95, 51, 21); fill-opacity:1.000; stroke:none;" />
 <path d="  M 3,40  L 2,40  L 2,54  L 3,54  Z  " style="fill:rgb(95, 51, 21); fill-opacity:1.000; stroke:none;" />
 <path d="  M 3,61  L 2,61  L 2,62  L 3,62  Z  " style="fill:rgb(95, 51, 21); fill-opacity:1.000; stroke:none;" />
 <path d="  M 3,2  L 6,2  L 6,1  L 3,1  Z  " style="fill:rgb(95, 51, 21); fill-opacity:1.000; stroke:none;" />
 <path d="  M 4,9  L 3,9  L 3,10  L 4,10  Z  " style="fill:rgb(95, 51, 21); fill-opacity:1.000; stroke:none;" />
 <path d="  M 4,24  L 3,24  L 3,26  L 4,26  Z  " style="fill:rgb(95, 51, 21); fill-opacity:1.000; stroke:none;" />
 <path d="  M 4,40  L 4,38  L 3,38  L 3,40  Z  " style="fill:rgb(95, 51, 21); fill-opacity:1.000; stroke:none;" />
 <path d="  M 3,54  L 3,55  L 4,55  L 4,54  Z  " style="fill:rgb(95, 51, 21); fill-opacity:1.000; stroke:none;" />
 <path d="  M 6,62  L 3,62  L 3,63  L 6,63  Z  " style="fill:rgb(95, 51, 21); fill-opacity:1.000; stroke:none;" />
 <path d="  M 5,7  L 4,7  L 4,8  L 5,8  Z  " style="fill:rgb(95, 51, 21); fill-opacity:1.000; stroke:none;" />
 <path d="  M 5,26  L 4,26  L 4,28  L 5,28  Z  " style="fill:rgb(95, 51, 21); fill-opacity:1.000; stroke:none;" />
 <path d="  M 4,36  L 4,38  L 5,38  L 5,36  Z  " style="fill:rgb(95, 51, 21); fill-opacity:1.000; stroke:none;" />
 <path d="  M 5,57  L 5,56  L 4,56  L 4,57  Z  " style="fill:rgb(95, 51, 21); fill-opacity:1.000; stroke:none;" />
 <path d="  M 5,5  L 5,6  L 6,6  L 6,5  Z  " style="fill:rgb(95, 51, 21); fill-opacity:1.000; stroke:none;" />
 <path d="  M 5,28  L 5,29  L 7,29  L 7,28  Z  " style="fill:rgb(95, 51, 21); fill-opacity:1.000; stroke:none;" />
 <path d="  M 5,35  L 5,36  L 7,36  L 7,35  Z  " style="fill:rgb(95, 51, 21); fill-opacity:1.000; stroke:none;" />
 <path d="  M 6,59  L 6,58  L 5,58  L 5,59  Z  " style="fill:rgb(95, 51, 21); fill-opacity:1.000; stroke:none;" />
 <path d="  M 7,5  L 8,5  L 8,4  L 7,4  Z  " style="fill:rgb(95, 51, 21); fill-opacity:1.000; stroke:none;" />
 <path d="  M 14,30  L 14,29  L 7,29  L 7,30  Z  " style="fill:rgb(95, 51, 21); fill-opacity:1.000; stroke:none;" />
 <path d="  M 7,34  L 7,35  L 13,35  L 13,34  Z  " style="fill:rgb(95, 51, 21); fill-opacity:1.000; stroke:none;" />
 <path d="  M 8,60  L 8,59  L 7,59  L 7,60  Z  " style="fill:rgb(95, 51, 21); fill-opacity:1.000; stroke:none;" />
 <path d="  M 9,4  L 10,4  L 10,3  L 9,3  Z  " style="fill:rgb(95, 51, 21); fill-opacity:1.000; stroke:none;" />
 <path d="  M 10,60  L 9,60  L 9,61  L 10,61  Z  " style="fill:rgb(95, 51, 21); fill-opacity:1.000; stroke:none;" />
 <path d="  M 10,2  L 10,3  L 24,3  L 24,2  Z  " style="fill:rgb(95, 51, 21); fill-opacity:1.000; stroke:none;" />
 <path d="  M 24,61  L 10,61  L 10,62  L 24,62  Z  " style="fill:rgb(95, 51, 21); fill-opacity:1.000; stroke:none;" />
 <path d="  M 14,28  L 14,29  L 15,29  L 15,28  Z  " style="fill:rgb(95, 51, 21); fill-opacity:1.000; stroke:none;" />
 <path d="  M 16,27  L 15,27  L 15,28  L 16,28  Z  " style="fill:rgb(95, 51, 21); fill-opacity:1.000; stroke:none;" />
 <path d="  M 16,32  L 16,31  L 15,31  L 15,32  Z  " style="fill:rgb(95, 51, 21); fill-opacity:1.000; stroke:none;" />
 <path d="  M 16,26  L 16,27  L 17,27  L 17,26  Z  " style="fill:rgb(95, 51, 21); fill-opacity:1.000; stroke:none;" />
 <path d="  M 17,31  L 17,30  L 16,30  L 16,31  Z  " style="fill:rgb(95, 51, 21); fill-opacity:1.000; stroke:none;" />
 <path d="  M 18,25  L 17,25  L 17,26  L 18,26  Z  " style="fill:rgb(95, 51, 21); fill-opacity:1.000; stroke:none;" />
 <path d="  M 18,29  L 17,29  L 17,30  L 18,30  Z  " style="fill:rgb(95, 51, 21); fill-opacity:1.000; stroke:none;" />
 <path d="  M 18,24  L 18,25  L 19,25  L 19,24  Z  " style="fill:rgb(95, 51, 21); fill-opacity:1.000; stroke:none;" />
 <path d="  M 19,29  L 19,28  L 18,28  L 18,29  Z  " style="fill:rgb(95, 51, 21); fill-opacity:1.000; stroke:none;" />
 <path d="  M 19,24  L 20,24  L 20,23  L 19,23  Z  " style="fill:rgb(95, 51, 21); fill-opacity:1.000; stroke:none;" />
 <path d="  M 21,22  L 20,22  L 20,23  L 21,23  Z  " style="fill:rgb(95, 51, 21); fill-opacity:1.000; stroke:none;" />
 <path d="  M 22,21  L 21,21  L 21,22  L 22,22  Z  " style="fill:rgb(95, 51, 21); fill-opacity:1.000; stroke:none;" />
 <path d="  M 23,20  L 22,20  L 22,21  L 23,21  Z  " style="fill:rgb(95, 51, 21); fill-opacity:1.000; stroke:none;" />
 <path d="  M 23,20  L 24,20  L 24,19  L 23,19  Z  " style="fill:rgb(95, 51, 21); fill-opacity:1.000; stroke:none;" />
 <path d="  M 26,4  L 26,3  L 24,3  L 24,4  Z  " style="fill:rgb(95, 51, 21); fill-opacity:1.000; stroke:none;" />
 <path d="  M 24,18  L 24,19  L 25,19  L 25,18  Z  " style="fill:rgb(95, 51, 21); fill-opacity:1.000; stroke:none;" />
 <path d="  M 24,60  L 24,61  L 26,61  L 26,60  Z  " style="fill:rgb(95, 51, 21); fill-opacity:1.000; stroke:none;" />
 <path d="  M 26,18  L 26,17  L 25,17  L 25,18  Z  " style="fill:rgb(95, 51, 21); fill-opacity:1.000; stroke:none;" />
 <path d="  M 28,5  L 28,4  L 26,4  L 26,5  Z  " style="fill:rgb(95, 51, 21); fill-opacity:1.000; stroke:none;" />
 <path d="  M 26,17  L 27,17  L 27,16  L 26,16  Z  " style="fill:rgb(95, 51, 21); fill-opacity:1.000; stroke:none;" />
 <path d="  M 28,59  L 26,59  L 26,60  L 28,60  Z  " style="fill:rgb(95, 51, 21); fill-opacity:1.000; stroke:none;" />
 <path d="  M 27,15  L 27,16  L 28,16  L 28,15  Z  " style="fill:rgb(95, 51, 21); fill-opacity:1.000; stroke:none;" />
 <path d="  M 29,5  L 28,5  L 28,7  L 29,7  Z  " style="fill:rgb(95, 51, 21); fill-opacity:1.000; stroke:none;" />
 <path d="  M 28,14  L 28,15  L 29,15  L 29,14  Z  " style="fill:rgb(95, 51, 21); fill-opacity:1.000; stroke:none;" />
 <path d="  M 28,19  L 29,19  L 29,18  L 28,18  Z  " style="fill:rgb(95, 51, 21); fill-opacity:1.000; stroke:none;" />
 <path d="  M 29,46  L 29,45  L 28,45  L 28,46  Z  " style="fill:rgb(95, 51, 21); fill-opacity:1.000; stroke:none;" />
 <path d="  M 28,59  L 29,59  L 29,57  L 28,57  Z  " style="fill:rgb(95, 51, 21); fill-opacity:1.000; stroke:none;" />
 <path d="  M 30,7  L 29,7  L 29,14  L 30,14  Z  " style="fill:rgb(95, 51, 21); fill-opacity:1.000; stroke:none;" />
 <path d="  M 29,18  L 30,18  L 30,17  L 29,17  Z  " style="fill:rgb(95, 51, 21); fill-opacity:1.000; stroke:none;" />
 <path d="  M 29,47  L 30,47  L 30,46  L 29,46  Z  " style="fill:rgb(95, 51, 21); fill-opacity:1.000; stroke:none;" />
 <path d="  M 29,57  L 30,57  L 30,51  L 29,51  Z  " style="fill:rgb(95, 51, 21); fill-opacity:1.000; stroke:none;" />
 <path d="  M 31,16  L 30,16  L 30,17  L 31,17  Z  " style="fill:rgb(95, 51, 21); fill-opacity:1.000; stroke:none;" />
 <path d="  M 31,47  L 30,47  L 30,48  L 31,48  Z  " style="fill:rgb(95, 51, 21); fill-opacity:1.000; stroke:none;" />
 <path d="  M 31,16  L 32,16  L 32,15  L 31,15  Z  " style="fill:rgb(95, 51, 21); fill-opacity:1.000; stroke:none;" />
 <path d="  M 33,49  L 33,48  L 31,48  L 31,49  Z  " style="fill:rgb(95, 51, 21); fill-opacity:1.000; stroke:none;" />
 <path d="  M 34,48  L 34,47  L 33,47  L 33,48  Z  " style="fill:rgb(95, 51, 21); fill-opacity:1.000; stroke:none;" />
 <path d="  M 35,7  L 34,7  L 34,14  L 35,14  Z  " style="fill:rgb(95, 51, 21); fill-opacity:1.000; stroke:none;" />
 <path d="  M 34,47  L 35,47  L 35,46  L 34,46  Z  " style="fill:rgb(95, 51, 21); fill-opacity:1.000; stroke:none;" />
 <path d="  M 35,51  L 34,51  L 34,57  L 35,57  Z  " style="fill:rgb(95, 51, 21); fill-opacity:1.000; stroke:none;" />
 <path d="  M 35,7  L 36,7  L 36,5  L 35,5  Z  " style="fill:rgb(95, 51, 21); fill-opacity:1.000; stroke:none;" />
 <path d="  M 35,15  L 36,15  L 36,14  L 35,14  Z  " style="fill:rgb(95, 51, 21); fill-opacity:1.000; stroke:none;" />
 <path d="  M 36,46  L 36,45  L 35,45  L 35,46  Z  " style="fill:rgb(95, 51, 21); fill-opacity:1.000; stroke:none;" />
 <path d="  M 36,57  L 35,57  L 35,59  L 36,59  Z  " style="fill:rgb(95, 51, 21); fill-opacity:1.000; stroke:none;" />
 <path d="  M 38,5  L 38,4  L 36,4  L 36,5  Z  " style="fill:rgb(95, 51, 21); fill-opacity:1.000; stroke:none;" />
 <path d="  M 36,15  L 36,16  L 37,16  L 37,15  Z  " style="fill:rgb(95, 51, 21); fill-opacity:1.000; stroke:none;" />
 <path d="  M 36,59  L 36,60  L 38,60  L 38,59  Z  " style="fill:rgb(95, 51, 21); fill-opacity:1.000; stroke:none;" />
 <path d="  M 38,16  L 37,16  L 37,17  L 38,17  Z  " style="fill:rgb(95, 51, 21); fill-opacity:1.000; stroke:none;" />
 <path d="  M 40,4  L 40,3  L 38,3  L 38,4  Z  " style="fill:rgb(95, 51, 21); fill-opacity:1.000; stroke:none;" />
 <path d="  M 39,17  L 38,17  L 38,18  L 39,18  Z  " style="fill:rgb(95, 51, 21); fill-opacity:1.000; stroke:none;" />
 <path d="  M 40,61  L 40,60  L 38,60  L 38,61  Z  " style="fill:rgb(95, 51, 21); fill-opacity:1.000; stroke:none;" />
 <path d="  M 39,19  L 40,19  L 40,18  L 39,18  Z  " style="fill:rgb(95, 51, 21); fill-opacity:1.000; stroke:none;" />
 <path d="  M 54,3  L 54,2  L 40,2  L 40,3  Z  " style="fill:rgb(95, 51, 21); fill-opacity:1.000; stroke:none;" />
 <path d="  M 41,20  L 41,19  L 40,19  L 40,20  Z  " style="fill:rgb(95, 51, 21); fill-opacity:1.000; stroke:none;" />
 <path d="  M 40,61  L 40,62  L 54,62  L 54,61  Z  " style="fill:rgb(95, 51, 21); fill-opacity:1.000; stroke:none;" />
 <path d="  M 41,20  L 41,21  L 42,21  L 42,20  Z  " style="fill:rgb(95, 51, 21); fill-opacity:1.000; stroke:none;" />
 <path d="  M 43,22  L 43,21  L 42,21  L 42,22  Z  " style="fill:rgb(95, 51, 21); fill-opacity:1.000; stroke:none;" />
 <path d="  M 44,23  L 44,22  L 43,22  L 43,23  Z  " style="fill:rgb(95, 51, 21); fill-opacity:1.000; stroke:none;" />
 <path d="  M 45,24  L 45,23  L 44,23  L 44,24  Z  " style="fill:rgb(95, 51, 21); fill-opacity:1.000; stroke:none;" />
 <path d="  M 46,24  L 45,24  L 45,25  L 46,25  Z  " style="fill:rgb(95, 51, 21); fill-opacity:1.000; stroke:none;" />
 <path d="  M 46,28  L 45,28  L 45,29  L 46,29  Z  " style="fill:rgb(95, 51, 21); fill-opacity:1.000; stroke:none;" />
 <path d="  M 47,26  L 47,25  L 46,25  L 46,26  Z  " style="fill:rgb(95, 51, 21); fill-opacity:1.000; stroke:none;" />
 <path d="  M 47,29  L 46,29  L 46,30  L 47,30  Z  " style="fill:rgb(95, 51, 21); fill-opacity:1.000; stroke:none;" />
 <path d="  M 47,26  L 47,27  L 48,27  L 48,26  Z  " style="fill:rgb(95, 51, 21); fill-opacity:1.000; stroke:none;" />
 <path d="  M 48,31  L 48,30  L 47,30  L 47,31  Z  " style="fill:rgb(95, 51, 21); fill-opacity:1.000; stroke:none;" />
 <path d="  M 48,27  L 48,28  L 49,28  L 49,27  Z  " style="fill:rgb(95, 51, 21); fill-opacity:1.000; stroke:none;" />
 <path d="  M 48,32  L 49,32  L 49,31  L 48,31  Z  " style="fill:rgb(95, 51, 21); fill-opacity:1.000; stroke:none;" />
 <path d="  M 50,29  L 50,28  L 49,28  L 49,29  Z  " style="fill:rgb(95, 51, 21); fill-opacity:1.000; stroke:none;" />
 <path d="  M 57,30  L 57,29  L 50,29  L 50,30  Z  " style="fill:rgb(95, 51, 21); fill-opacity:1.000; stroke:none;" />
 <path d="  M 57,35  L 57,34  L 51,34  L 51,35  Z  " style="fill:rgb(95, 51, 21); fill-opacity:1.000; stroke:none;" />
 <path d="  M 54,4  L 55,4  L 55,3  L 54,3  Z  " style="fill:rgb(95, 51, 21); fill-opacity:1.000; stroke:none;" />
 <path d="  M 55,61  L 55,60  L 54,60  L 54,61  Z  " style="fill:rgb(95, 51, 21); fill-opacity:1.000; stroke:none;" />
 <path d="  M 57,5  L 57,4  L 56,4  L 56,5  Z  " style="fill:rgb(95, 51, 21); fill-opacity:1.000; stroke:none;" />
 <path d="  M 56,60  L 57,60  L 57,59  L 56,59  Z  " style="fill:rgb(95, 51, 21); fill-opacity:1.000; stroke:none;" />
 <path d="  M 57,29  L 59,29  L 59,28  L 57,28  Z  " style="fill:rgb(95, 51, 21); fill-opacity:1.000; stroke:none;" />
 <path d="  M 59,36  L 59,35  L 57,35  L 57,36  Z  " style="fill:rgb(95, 51, 21); fill-opacity:1.000; stroke:none;" />
 <path d="  M 61,1  L 58,1  L 58,2  L 61,2  Z  " style="fill:rgb(95, 51, 21); fill-opacity:1.000; stroke:none;" />
 <path d="  M 58,5  L 58,6  L 59,6  L 59,5  Z  " style="fill:rgb(95, 51, 21); fill-opacity:1.000; stroke:none;" />
 <path d="  M 58,59  L 59,59  L 59,58  L 58,58  Z  " style="fill:rgb(95, 51, 21); fill-opacity:1.000; stroke:none;" />
 <path d="  M 58,63  L 61,63  L 61,62  L 58,62  Z  " style="fill:rgb(95, 51, 21); fill-opacity:1.000; stroke:none;" />
 <path d="  M 59,7  L 59,8  L 60,8  L 60,7  Z  " style="fill:rgb(95, 51, 21); fill-opacity:1.000; stroke:none;" />
 <path d="  M 59,28  L 60,28  L 60,26  L 59,26  Z  " style="fill:rgb(95, 51, 21); fill-opacity:1.000; stroke:none;" />
 <path d="  M 60,38  L 60,36  L 59,36  L 59,38  Z  " style="fill:rgb(95, 51, 21); fill-opacity:1.000; stroke:none;" />
 <path d="  M 60,57  L 60,56  L 59,56  L 59,57  Z  " style="fill:rgb(95, 51, 21); fill-opacity:1.000; stroke:none;" />
 <path d="  M 60,10  L 61,10  L 61,9  L 60,9  Z  " style="fill:rgb(95, 51, 21); fill-opacity:1.000; stroke:none;" />
 <path d="  M 61,24  L 60,24  L 60,26  L 61,26  Z  " style="fill:rgb(95, 51, 21); fill-opacity:1.000; stroke:none;" />
 <path d="  M 61,40  L 61,38  L 60,38  L 60,40  Z  " style="fill:rgb(95, 51, 21); fill-opacity:1.000; stroke:none;" />
 <path d="  M 60,54  L 60,55  L 61,55  L 61,54  Z  " style="fill:rgb(95, 51, 21); fill-opacity:1.000; stroke:none;" />
 <path d="  M 61,2  L 61,3  L 62,3  L 62,2  Z  " style="fill:rgb(95, 51, 21); fill-opacity:1.000; stroke:none;" />
 <path d="  M 61,24  L 62,24  L 62,10  L 61,10  Z  " style="fill:rgb(95, 51, 21); fill-opacity:1.000; stroke:none;" />
 <path d="  M 62,40  L 61,40  L 61,54  L 62,54  Z  " style="fill:rgb(95, 51, 21); fill-opacity:1.000; stroke:none;" />
 <path d="  M 61,61  L 61,62  L 62,62  L 62,61  Z  " style="fill:rgb(95, 51, 21); fill-opacity:1.000; stroke:none;" />
 <path d="  M 63,3  L 62,3  L 62,6  L 63,6  Z  " style="fill:rgb(95, 51, 21); fill-opacity:1.000; stroke:none;" />
 <path d="  M 63,58  L 62,58  L 62,61  L 63,61  Z  " style="fill:rgb(95, 51, 21); fill-opacity:1.000; stroke:none;" />
 <path d="  M 5,3  L 6,3  L 6,2  L 3,2  L 3,3  L 2,3  L 2,6  L 3,6  L 3,5  L 4,5  L 4,4  L 5,4  Z  " style="fill:rgb(134, 78, 41); fill-opacity:1.000; stroke:none;" />
 <path d="  M 2,61  L 3,61  L 3,62  L 6,62  L 6,61  L 5,61  L 5,60  L 4,60  L 4,59  L 3,59  L 3,58  L 2,58  Z  " style="fill:rgb(134, 78, 41); fill-opacity:1.000; stroke:none;" />
 <path d="  M 4,12  L 3,12  L 3,24  L 4,24  Z  " style="fill:rgb(134, 78, 41); fill-opacity:1.000; stroke:none;" />
 <path d="  M 25,59  L 26,59  L 26,58  L 27,58  L 27,57  L 28,57  L 28,50  L 27,50  L 27,49  L 26,49  L 26,47  L 25,47  L 25,46  L 23,46  L 23,45  L 22,45  L 22,44  L 21,44  L 21,43  L 20,43  L 20,42  L 19,42  L 19,43  L 18,43  L 18,41  L 17,41  L 17,42  L 16,42  L 16,38  L 15,38  L 15,39  L 14,39  L 14,37  L 13,37  L 13,36  L 11,36  L 11,37  L 8,37  L 8,36  L 7,36  L 7,37  L 6,37  L 6,39  L 5,39  L 5,40  L 4,40  L 4,43  L 3,43  L 3,52  L 4,52  L 4,55  L 5,55  L 5,57  L 7,57  L 7,58  L 8,58  L 8,57  L 10,57  L 10,55  L 11,55  L 11,56  L 13,56  L 13,57  L 15,57  L 15,58  L 14,58  L 14,59  L 13,59  L 13,60  L 12,60  L 12,61  L 22,61  L 22,60  L 25,60  Z  M 13,56  L 13,54  L 14,54  L 14,55  L 15,55  L 15,56  Z  " style="fill:rgb(134, 78, 41); fill-opacity:1.000; stroke:none;" />
 <path d="  M 5,24  L 4,24  L 4,26  L 5,26  Z  " style="fill:rgb(134, 78, 41); fill-opacity:1.000; stroke:none;" />
 <path d="  M 6,7  L 6,6  L 5,6  L 5,7  Z  " style="fill:rgb(134, 78, 41); fill-opacity:1.000; stroke:none;" />
 <path d="  M 7,28  L 7,27  L 6,27  L 6,26  L 5,26  L 5,28  Z  " style="fill:rgb(134, 78, 41); fill-opacity:1.000; stroke:none;" />
 <path d="  M 7,6  L 7,5  L 6,5  L 6,6  Z  " style="fill:rgb(134, 78, 41); fill-opacity:1.000; stroke:none;" />
 <path d="  M 14,29  L 14,28  L 7,28  L 7,29  Z  " style="fill:rgb(134, 78, 41); fill-opacity:1.000; stroke:none;" />
 <path d="  M 8,5  L 9,5  L 9,4  L 8,4  Z  " style="fill:rgb(134, 78, 41); fill-opacity:1.000; stroke:none;" />
 <path d="  M 8,35  L 8,36  L 10,36  L 10,35  Z  " style="fill:rgb(134, 78, 41); fill-opacity:1.000; stroke:none;" />
 <path d="  M 9,59  L 9,58  L 8,58  L 8,59  Z  " style="fill:rgb(134, 78, 41); fill-opacity:1.000; stroke:none;" />
 <path d="  M 10,3  L 10,4  L 24,4  L 24,3  Z  " style="fill:rgb(134, 78, 41); fill-opacity:1.000; stroke:none;" />
 <path d="  M 11,57  L 10,57  L 10,58  L 11,58  Z  " style="fill:rgb(134, 78, 41); fill-opacity:1.000; stroke:none;" />
 <path d="  M 12,60  L 12,59  L 10,59  L 10,60  Z  " style="fill:rgb(134, 78, 41); fill-opacity:1.000; stroke:none;" />
 <path d="  M 15,27  L 14,27  L 14,28  L 15,28  Z  " style="fill:rgb(134, 78, 41); fill-opacity:1.000; stroke:none;" />
 <path d="  M 16,27  L 16,26  L 15,26  L 15,27  Z  " style="fill:rgb(134, 78, 41); fill-opacity:1.000; stroke:none;" />
 <path d="  M 16,32  L 15,32  L 15,33  L 16,33  Z  " style="fill:rgb(134, 78, 41); fill-opacity:1.000; stroke:none;" />
 <path d="  M 17,26  L 17,25  L 16,25  L 16,26  Z  " style="fill:rgb(134, 78, 41); fill-opacity:1.000; stroke:none;" />
 <path d="  M 34,22  L 33,22  L 33,19  L 32,19  L 32,21  L 31,21  L 31,19  L 29,19  L 29,20  L 28,20  L 28,21  L 27,21  L 27,22  L 26,22  L 26,23  L 25,23  L 25,24  L 24,24  L 24,25  L 23,25  L 23,26  L 22,26  L 22,27  L 21,27  L 21,28  L 20,28  L 20,29  L 19,29  L 19,30  L 18,30  L 18,31  L 17,31  L 17,33  L 18,33  L 18,34  L 19,34  L 19,35  L 20,35  L 20,36  L 21,36  L 21,37  L 22,37  L 22,38  L 23,38  L 23,39  L 24,39  L 24,40  L 25,40  L 25,41  L 26,41  L 26,42  L 27,42  L 27,43  L 28,43  L 28,44  L 29,44  L 29,45  L 30,45  L 30,46  L 31,46  L 31,47  L 32,47  L 32,46  L 34,46  L 34,43  L 33,43  L 33,42  L 34,42  L 34,41  L 35,41  L 35,43  L 36,43  L 36,40  L 37,40  L 37,41  L 38,41  L 38,39  L 39,39  L 39,38  L 38,38  L 38,37  L 39,37  L 39,36  L 40,36  L 40,38  L 42,38  L 42,37  L 43,37  L 43,36  L 44,36  L 44,35  L 45,35  L 45,34  L 46,34  L 46,33  L 47,33  L 47,31  L 46,31  L 46,30  L 45,30  L 45,28  L 44,28  L 44,27  L 43,27  L 43,26  L 42,26  L 42,25  L 41,25  L 41,24  L 40,24  L 40,23  L 39,23  L 39,22  L 38,22  L 38,21  L 37,21  L 37,20  L 36,20  L 36,19  L 35,19  L 35,20  L 34,20  Z  " style="fill:rgb(134, 78, 41); fill-opacity:1.000; stroke:none;" />
 <path d="  M 17,40  L 18,40  L 18,39  L 17,39  Z  " style="fill:rgb(134, 78, 41); fill-opacity:1.000; stroke:none;" />
 <path d="  M 24,4  L 24,5  L 26,5  L 26,4  Z  " style="fill:rgb(134, 78, 41); fill-opacity:1.000; stroke:none;" />
 <path d="  M 24,18  L 25,18  L 25,17  L 24,17  Z  " style="fill:rgb(134, 78, 41); fill-opacity:1.000; stroke:none;" />
 <path d="  M 25,17  L 26,17  L 26,16  L 25,16  Z  " style="fill:rgb(134, 78, 41); fill-opacity:1.000; stroke:none;" />
 <path d="  M 26,5  L 26,6  L 27,6  L 27,7  L 28,7  L 28,5  Z  " style="fill:rgb(134, 78, 41); fill-opacity:1.000; stroke:none;" />
 <path d="  M 27,15  L 26,15  L 26,16  L 27,16  Z  " style="fill:rgb(134, 78, 41); fill-opacity:1.000; stroke:none;" />
 <path d="  M 27,44  L 27,43  L 26,43  L 26,44  Z  " style="fill:rgb(134, 78, 41); fill-opacity:1.000; stroke:none;" />
 <path d="  M 27,15  L 28,15  L 28,14  L 27,14  Z  " style="fill:rgb(134, 78, 41); fill-opacity:1.000; stroke:none;" />
 <path d="  M 28,44  L 27,44  L 27,45  L 28,45  Z  " style="fill:rgb(134, 78, 41); fill-opacity:1.000; stroke:none;" />
 <path d="  M 29,7  L 28,7  L 28,14  L 29,14  Z  " style="fill:rgb(134, 78, 41); fill-opacity:1.000; stroke:none;" />
 <path d="  M 32,48  L 33,48  L 33,47  L 32,47  Z  " style="fill:rgb(134, 78, 41); fill-opacity:1.000; stroke:none;" />
 <path d="  M 56,6  L 56,5  L 54,5  L 54,6  L 53,6  L 53,9  L 52,9  L 52,6  L 51,6  L 51,5  L 49,5  L 49,4  L 48,4  L 48,7  L 47,7  L 47,5  L 45,5  L 45,6  L 44,6  L 44,5  L 43,5  L 43,4  L 40,4  L 40,5  L 38,5  L 38,6  L 37,6  L 37,8  L 36,8  L 36,10  L 35,10  L 35,14  L 36,14  L 36,15  L 37,15  L 37,16  L 38,16  L 38,17  L 40,17  L 40,18  L 41,18  L 41,19  L 42,19  L 42,20  L 43,20  L 43,21  L 44,21  L 44,22  L 46,22  L 46,23  L 47,23  L 47,25  L 48,25  L 48,26  L 49,26  L 49,27  L 51,27  L 51,28  L 55,28  L 55,27  L 56,27  L 56,26  L 55,26  L 55,25  L 54,25  L 54,23  L 55,23  L 55,22  L 56,22  L 56,24  L 57,24  L 57,26  L 58,26  L 58,23  L 57,23  L 57,20  L 58,20  L 58,22  L 59,22  L 59,23  L 60,23  L 60,21  L 61,21  L 61,10  L 60,10  L 60,8  L 59,8  L 59,7  L 58,7  L 58,6  Z  " style="fill:rgb(134, 78, 41); fill-opacity:1.000; stroke:none;" />
 <path d="  M 39,48  L 38,48  L 38,49  L 37,49  L 37,50  L 36,50  L 36,57  L 37,57  L 37,58  L 38,58  L 38,59  L 39,59  L 39,60  L 41,60  L 41,61  L 51,61  L 51,60  L 53,60  L 53,59  L 54,59  L 54,58  L 55,58  L 55,57  L 54,57  L 54,54  L 53,54  L 53,56  L 52,56  L 52,57  L 50,57  L 50,56  L 51,56  L 51,55  L 52,55  L 52,52  L 51,52  L 51,50  L 52,50  L 52,51  L 54,51  L 54,53  L 55,53  L 55,52  L 56,52  L 56,56  L 57,56  L 57,52  L 58,52  L 58,54  L 59,54  L 59,51  L 60,51  L 60,53  L 61,53  L 61,42  L 60,42  L 60,39  L 59,39  L 59,38  L 58,38  L 58,37  L 57,37  L 57,36  L 50,36  L 50,37  L 49,37  L 49,38  L 48,38  L 48,39  L 47,39  L 47,40  L 46,40  L 46,41  L 45,41  L 45,42  L 44,42  L 44,43  L 43,43  L 43,44  L 42,44  L 42,45  L 41,45  L 41,46  L 40,46  L 40,47  L 39,47  Z  M 55,50  L 55,51  L 54,51  L 54,50  Z  " style="fill:rgb(134, 78, 41); fill-opacity:1.000; stroke:none;" />
 <path d="  M 54,4  L 53,4  L 53,5  L 54,5  Z  " style="fill:rgb(134, 78, 41); fill-opacity:1.000; stroke:none;" />
 <path d="  M 57,58  L 56,58  L 56,59  L 57,59  Z  " style="fill:rgb(134, 78, 41); fill-opacity:1.000; stroke:none;" />
 <path d="  M 58,28  L 58,27  L 57,27  L 57,28  Z  " style="fill:rgb(134, 78, 41); fill-opacity:1.000; stroke:none;" />
 <path d="  M 58,57  L 58,56  L 57,56  L 57,57  Z  " style="fill:rgb(134, 78, 41); fill-opacity:1.000; stroke:none;" />
 <path d="  M 58,3  L 59,3  L 59,4  L 60,4  L 60,5  L 61,5  L 61,6  L 62,6  L 62,3  L 61,3  L 61,2  L 58,2  Z  " style="fill:rgb(134, 78, 41); fill-opacity:1.000; stroke:none;" />
 <path d="  M 59,57  L 58,57  L 58,58  L 59,58  Z  " style="fill:rgb(134, 78, 41); fill-opacity:1.000; stroke:none;" />
 <path d="  M 60,60  L 59,60  L 59,61  L 58,61  L 58,62  L 61,62  L 61,61  L 62,61  L 62,58  L 61,58  L 61,59  L 60,59  Z  " style="fill:rgb(134, 78, 41); fill-opacity:1.000; stroke:none;" />
 <path d="  M 60,26  L 60,25  L 59,25  L 59,26  Z  " style="fill:rgb(134, 78, 41); fill-opacity:1.000; stroke:none;" />
 <path d="  M 59,55  L 60,55  L 60,54  L 59,54  Z  " style="fill:rgb(134, 78, 41); fill-opacity:1.000; stroke:none;" />
 <path d="  M 3,6  L 2,6  L 2,8  L 3,8  Z  " style="fill:rgb(70, 44, 27); fill-opacity:1.000; stroke:none;" />
 <path d="  M 2,24  L 2,26  L 3,26  L 3,24  Z  " style="fill:rgb(70, 44, 27); fill-opacity:1.000; stroke:none;" />
 <path d="  M 2,40  L 3,40  L 3,38  L 2,38  Z  " style="fill:rgb(70, 44, 27); fill-opacity:1.000; stroke:none;" />
 <path d="  M 3,56  L 2,56  L 2,58  L 3,58  Z  " style="fill:rgb(70, 44, 27); fill-opacity:1.000; stroke:none;" />
 <path d="  M 3,6  L 4,6  L 4,5  L 3,5  Z  " style="fill:rgb(70, 44, 27); fill-opacity:1.000; stroke:none;" />
 <path d="  M 3,9  L 4,9  L 4,8  L 3,8  Z  " style="fill:rgb(70, 44, 27); fill-opacity:1.000; stroke:none;" />
 <path d="  M 4,26  L 3,26  L 3,28  L 4,28  Z  " style="fill:rgb(70, 44, 27); fill-opacity:1.000; stroke:none;" />
 <path d="  M 4,36  L 3,36  L 3,38  L 4,38  Z  " style="fill:rgb(70, 44, 27); fill-opacity:1.000; stroke:none;" />
 <path d="  M 3,56  L 4,56  L 4,55  L 3,55  Z  " style="fill:rgb(70, 44, 27); fill-opacity:1.000; stroke:none;" />
 <path d="  M 4,59  L 4,58  L 3,58  L 3,59  Z  " style="fill:rgb(70, 44, 27); fill-opacity:1.000; stroke:none;" />
 <path d="  M 4,4  L 4,5  L 5,5  L 5,4  Z  " style="fill:rgb(70, 44, 27); fill-opacity:1.000; stroke:none;" />
 <path d="  M 5,7  L 5,6  L 4,6  L 4,7  Z  " style="fill:rgb(70, 44, 27); fill-opacity:1.000; stroke:none;" />
 <path d="  M 4,28  L 4,29  L 5,29  L 5,28  Z  " style="fill:rgb(70, 44, 27); fill-opacity:1.000; stroke:none;" />
 <path d="  M 4,36  L 5,36  L 5,35  L 4,35  Z  " style="fill:rgb(70, 44, 27); fill-opacity:1.000; stroke:none;" />
 <path d="  M 5,58  L 5,57  L 4,57  L 4,58  Z  " style="fill:rgb(70, 44, 27); fill-opacity:1.000; stroke:none;" />
 <path d="  M 4,60  L 5,60  L 5,59  L 4,59  Z  " style="fill:rgb(70, 44, 27); fill-opacity:1.000; stroke:none;" />
 <path d="  M 5,3  L 5,4  L 6,4  L 6,3  Z  " style="fill:rgb(70, 44, 27); fill-opacity:1.000; stroke:none;" />
 <path d="  M 5,30  L 7,30  L 7,29  L 5,29  Z  " style="fill:rgb(70, 44, 27); fill-opacity:1.000; stroke:none;" />
 <path d="  M 7,35  L 7,34  L 5,34  L 5,35  Z  " style="fill:rgb(70, 44, 27); fill-opacity:1.000; stroke:none;" />
 <path d="  M 6,60  L 5,60  L 5,61  L 6,61  Z  " style="fill:rgb(70, 44, 27); fill-opacity:1.000; stroke:none;" />
 <path d="  M 8,3  L 8,2  L 6,2  L 6,3  Z  " style="fill:rgb(70, 44, 27); fill-opacity:1.000; stroke:none;" />
 <path d="  M 6,4  L 6,5  L 7,5  L 7,4  Z  " style="fill:rgb(70, 44, 27); fill-opacity:1.000; stroke:none;" />
 <path d="  M 6,60  L 7,60  L 7,59  L 6,59  Z  " style="fill:rgb(70, 44, 27); fill-opacity:1.000; stroke:none;" />
 <path d="  M 6,61  L 6,62  L 8,62  L 8,61  Z  " style="fill:rgb(70, 44, 27); fill-opacity:1.000; stroke:none;" />
 <path d="  M 7,30  L 7,31  L 13,31  L 13,30  Z  " style="fill:rgb(70, 44, 27); fill-opacity:1.000; stroke:none;" />
 <path d="  M 8,3  L 8,4  L 9,4  L 9,3  Z  " style="fill:rgb(70, 44, 27); fill-opacity:1.000; stroke:none;" />
 <path d="  M 8,61  L 9,61  L 9,60  L 8,60  Z  " style="fill:rgb(70, 44, 27); fill-opacity:1.000; stroke:none;" />
 <path d="  M 13,34  L 13,35  L 14,35  L 14,34  Z  " style="fill:rgb(70, 44, 27); fill-opacity:1.000; stroke:none;" />
 <path d="  M 14,36  L 15,36  L 15,35  L 14,35  Z  " style="fill:rgb(70, 44, 27); fill-opacity:1.000; stroke:none;" />
 <path d="  M 16,37  L 16,36  L 15,36  L 15,37  Z  " style="fill:rgb(70, 44, 27); fill-opacity:1.000; stroke:none;" />
 <path d="  M 17,38  L 17,37  L 16,37  L 16,38  Z  " style="fill:rgb(70, 44, 27); fill-opacity:1.000; stroke:none;" />
 <path d="  M 17,38  L 17,39  L 18,39  L 18,38  Z  " style="fill:rgb(70, 44, 27); fill-opacity:1.000; stroke:none;" />
 <path d="  M 18,39  L 18,40  L 19,40  L 19,39  Z  " style="fill:rgb(70, 44, 27); fill-opacity:1.000; stroke:none;" />
 <path d="  M 19,41  L 20,41  L 20,40  L 19,40  Z  " style="fill:rgb(70, 44, 27); fill-opacity:1.000; stroke:none;" />
 <path d="  M 20,41  L 20,42  L 21,42  L 21,41  Z  " style="fill:rgb(70, 44, 27); fill-opacity:1.000; stroke:none;" />
 <path d="  M 21,43  L 22,43  L 22,42  L 21,42  Z  " style="fill:rgb(70, 44, 27); fill-opacity:1.000; stroke:none;" />
 <path d="  M 22,44  L 23,44  L 23,43  L 22,43  Z  " style="fill:rgb(70, 44, 27); fill-opacity:1.000; stroke:none;" />
 <path d="  M 24,44  L 23,44  L 23,45  L 24,45  Z  " style="fill:rgb(70, 44, 27); fill-opacity:1.000; stroke:none;" />
 <path d="  M 26,3  L 26,2  L 24,2  L 24,3  Z  " style="fill:rgb(70, 44, 27); fill-opacity:1.000; stroke:none;" />
 <path d="  M 24,45  L 24,46  L 25,46  L 25,45  Z  " style="fill:rgb(70, 44, 27); fill-opacity:1.000; stroke:none;" />
 <path d="  M 26,62  L 26,61  L 24,61  L 24,62  Z  " style="fill:rgb(70, 44, 27); fill-opacity:1.000; stroke:none;" />
 <path d="  M 26,46  L 25,46  L 25,47  L 26,47  Z  " style="fill:rgb(70, 44, 27); fill-opacity:1.000; stroke:none;" />
 <path d="  M 28,4  L 28,3  L 26,3  L 26,4  Z  " style="fill:rgb(70, 44, 27); fill-opacity:1.000; stroke:none;" />
 <path d="  M 27,48  L 27,47  L 26,47  L 26,48  Z  " style="fill:rgb(70, 44, 27); fill-opacity:1.000; stroke:none;" />
 <path d="  M 26,60  L 26,61  L 28,61  L 28,60  Z  " style="fill:rgb(70, 44, 27); fill-opacity:1.000; stroke:none;" />
 <path d="  M 28,49  L 28,48  L 27,48  L 27,49  Z  " style="fill:rgb(70, 44, 27); fill-opacity:1.000; stroke:none;" />
 <path d="  M 28,5  L 29,5  L 29,4  L 28,4  Z  " style="fill:rgb(70, 44, 27); fill-opacity:1.000; stroke:none;" />
 <path d="  M 29,49  L 28,49  L 28,50  L 29,50  Z  " style="fill:rgb(70, 44, 27); fill-opacity:1.000; stroke:none;" />
 <path d="  M 29,59  L 28,59  L 28,60  L 29,60  Z  " style="fill:rgb(70, 44, 27); fill-opacity:1.000; stroke:none;" />
 <path d="  M 29,7  L 30,7  L 30,5  L 29,5  Z  " style="fill:rgb(70, 44, 27); fill-opacity:1.000; stroke:none;" />
 <path d="  M 30,51  L 30,50  L 29,50  L 29,51  Z  " style="fill:rgb(70, 44, 27); fill-opacity:1.000; stroke:none;" />
 <path d="  M 30,57  L 29,57  L 29,59  L 30,59  Z  " style="fill:rgb(70, 44, 27); fill-opacity:1.000; stroke:none;" />
 <path d="  M 30,7  L 30,13  L 31,13  L 31,7  Z  " style="fill:rgb(70, 44, 27); fill-opacity:1.000; stroke:none;" />
 <path d="  M 31,57  L 31,51  L 30,51  L 30,57  Z  " style="fill:rgb(70, 44, 27); fill-opacity:1.000; stroke:none;" />
 <path d="  M 35,5  L 34,5  L 34,7  L 35,7  Z  " style="fill:rgb(70, 44, 27); fill-opacity:1.000; stroke:none;" />
 <path d="  M 35,51  L 35,50  L 34,50  L 34,51  Z  " style="fill:rgb(70, 44, 27); fill-opacity:1.000; stroke:none;" />
 <path d="  M 34,59  L 35,59  L 35,57  L 34,57  Z  " style="fill:rgb(70, 44, 27); fill-opacity:1.000; stroke:none;" />
 <path d="  M 35,5  L 36,5  L 36,4  L 35,4  Z  " style="fill:rgb(70, 44, 27); fill-opacity:1.000; stroke:none;" />
 <path d="  M 35,50  L 36,50  L 36,49  L 35,49  Z  " style="fill:rgb(70, 44, 27); fill-opacity:1.000; stroke:none;" />
 <path d="  M 36,59  L 35,59  L 35,60  L 36,60  Z  " style="fill:rgb(70, 44, 27); fill-opacity:1.000; stroke:none;" />
 <path d="  M 36,3  L 36,4  L 38,4  L 38,3  Z  " style="fill:rgb(70, 44, 27); fill-opacity:1.000; stroke:none;" />
 <path d="  M 37,48  L 36,48  L 36,49  L 37,49  Z  " style="fill:rgb(70, 44, 27); fill-opacity:1.000; stroke:none;" />
 <path d="  M 38,60  L 36,60  L 36,61  L 38,61  Z  " style="fill:rgb(70, 44, 27); fill-opacity:1.000; stroke:none;" />
 <path d="  M 38,47  L 37,47  L 37,48  L 38,48  Z  " style="fill:rgb(70, 44, 27); fill-opacity:1.000; stroke:none;" />
 <path d="  M 40,2  L 38,2  L 38,3  L 40,3  Z  " style="fill:rgb(70, 44, 27); fill-opacity:1.000; stroke:none;" />
 <path d="  M 39,47  L 39,46  L 38,46  L 38,47  Z  " style="fill:rgb(70, 44, 27); fill-opacity:1.000; stroke:none;" />
 <path d="  M 38,61  L 38,62  L 40,62  L 40,61  Z  " style="fill:rgb(70, 44, 27); fill-opacity:1.000; stroke:none;" />
 <path d="  M 40,46  L 40,45  L 39,45  L 39,46  Z  " style="fill:rgb(70, 44, 27); fill-opacity:1.000; stroke:none;" />
 <path d="  M 41,45  L 41,44  L 40,44  L 40,45  Z  " style="fill:rgb(70, 44, 27); fill-opacity:1.000; stroke:none;" />
 <path d="  M 41,44  L 42,44  L 42,43  L 41,43  Z  " style="fill:rgb(70, 44, 27); fill-opacity:1.000; stroke:none;" />
 <path d="  M 42,43  L 43,43  L 43,42  L 42,42  Z  " style="fill:rgb(70, 44, 27); fill-opacity:1.000; stroke:none;" />
 <path d="  M 43,42  L 44,42  L 44,41  L 43,41  Z  " style="fill:rgb(70, 44, 27); fill-opacity:1.000; stroke:none;" />
 <path d="  M 45,41  L 45,40  L 44,40  L 44,41  Z  " style="fill:rgb(70, 44, 27); fill-opacity:1.000; stroke:none;" />
 <path d="  M 45,39  L 45,40  L 46,40  L 46,39  Z  " style="fill:rgb(70, 44, 27); fill-opacity:1.000; stroke:none;" />
 <path d="  M 47,39  L 47,38  L 46,38  L 46,39  Z  " style="fill:rgb(70, 44, 27); fill-opacity:1.000; stroke:none;" />
 <path d="  M 48,38  L 48,37  L 47,37  L 47,38  Z  " style="fill:rgb(70, 44, 27); fill-opacity:1.000; stroke:none;" />
 <path d="  M 48,37  L 49,37  L 49,36  L 48,36  Z  " style="fill:rgb(70, 44, 27); fill-opacity:1.000; stroke:none;" />
 <path d="  M 50,35  L 49,35  L 49,36  L 50,36  Z  " style="fill:rgb(70, 44, 27); fill-opacity:1.000; stroke:none;" />
 <path d="  M 50,35  L 51,35  L 51,34  L 50,34  Z  " style="fill:rgb(70, 44, 27); fill-opacity:1.000; stroke:none;" />
 <path d="  M 57,30  L 51,30  L 51,31  L 57,31  Z  " style="fill:rgb(70, 44, 27); fill-opacity:1.000; stroke:none;" />
 <path d="  M 56,3  L 55,3  L 55,4  L 56,4  Z  " style="fill:rgb(70, 44, 27); fill-opacity:1.000; stroke:none;" />
 <path d="  M 56,60  L 55,60  L 55,61  L 56,61  Z  " style="fill:rgb(70, 44, 27); fill-opacity:1.000; stroke:none;" />
 <path d="  M 58,2  L 56,2  L 56,3  L 58,3  Z  " style="fill:rgb(70, 44, 27); fill-opacity:1.000; stroke:none;" />
 <path d="  M 58,62  L 58,61  L 56,61  L 56,62  Z  " style="fill:rgb(70, 44, 27); fill-opacity:1.000; stroke:none;" />
 <path d="  M 58,4  L 57,4  L 57,5  L 58,5  Z  " style="fill:rgb(70, 44, 27); fill-opacity:1.000; stroke:none;" />
 <path d="  M 59,30  L 59,29  L 57,29  L 57,30  Z  " style="fill:rgb(70, 44, 27); fill-opacity:1.000; stroke:none;" />
 <path d="  M 57,35  L 59,35  L 59,34  L 57,34  Z  " style="fill:rgb(70, 44, 27); fill-opacity:1.000; stroke:none;" />
 <path d="  M 58,59  L 57,59  L 57,60  L 58,60  Z  " style="fill:rgb(70, 44, 27); fill-opacity:1.000; stroke:none;" />
 <path d="  M 58,3  L 58,4  L 59,4  L 59,3  Z  " style="fill:rgb(70, 44, 27); fill-opacity:1.000; stroke:none;" />
 <path d="  M 58,61  L 59,61  L 59,60  L 58,60  Z  " style="fill:rgb(70, 44, 27); fill-opacity:1.000; stroke:none;" />
 <path d="  M 59,4  L 59,5  L 60,5  L 60,4  Z  " style="fill:rgb(70, 44, 27); fill-opacity:1.000; stroke:none;" />
 <path d="  M 59,6  L 59,7  L 60,7  L 60,6  Z  " style="fill:rgb(70, 44, 27); fill-opacity:1.000; stroke:none;" />
 <path d="  M 60,29  L 60,28  L 59,28  L 59,29  Z  " style="fill:rgb(70, 44, 27); fill-opacity:1.000; stroke:none;" />
 <path d="  M 59,36  L 60,36  L 60,35  L 59,35  Z  " style="fill:rgb(70, 44, 27); fill-opacity:1.000; stroke:none;" />
 <path d="  M 59,58  L 60,58  L 60,57  L 59,57  Z  " style="fill:rgb(70, 44, 27); fill-opacity:1.000; stroke:none;" />
 <path d="  M 59,60  L 60,60  L 60,59  L 59,59  Z  " style="fill:rgb(70, 44, 27); fill-opacity:1.000; stroke:none;" />
 <path d="  M 61,5  L 60,5  L 60,6  L 61,6  Z  " style="fill:rgb(70, 44, 27); fill-opacity:1.000; stroke:none;" />
 <path d="  M 61,8  L 60,8  L 60,9  L 61,9  Z  " style="fill:rgb(70, 44, 27); fill-opacity:1.000; stroke:none;" />
 <path d="  M 60,28  L 61,28  L 61,26  L 60,26  Z  " style="fill:rgb(70, 44, 27); fill-opacity:1.000; stroke:none;" />
 <path d="  M 61,36  L 60,36  L 60,38  L 61,38  Z  " style="fill:rgb(70, 44, 27); fill-opacity:1.000; stroke:none;" />
 <path d="  M 60,55  L 60,56  L 61,56  L 61,55  Z  " style="fill:rgb(70, 44, 27); fill-opacity:1.000; stroke:none;" />
 <path d="  M 61,59  L 61,58  L 60,58  L 60,59  Z  " style="fill:rgb(70, 44, 27); fill-opacity:1.000; stroke:none;" />
 <path d="  M 61,6  L 61,8  L 62,8  L 62,6  Z  " style="fill:rgb(70, 44, 27); fill-opacity:1.000; stroke:none;" />
 <path d="  M 62,26  L 62,24  L 61,24  L 61,26  Z  " style="fill:rgb(70, 44, 27); fill-opacity:1.000; stroke:none;" />
 <path d="  M 62,38  L 61,38  L 61,40  L 62,40  Z  " style="fill:rgb(70, 44, 27); fill-opacity:1.000; stroke:none;" />
 <path d="  M 62,56  L 61,56  L 61,58  L 62,58  Z  " style="fill:rgb(70, 44, 27); fill-opacity:1.000; stroke:none;" />
 <path d="  M 3,10  L 3,11  L 4,11  L 4,10  Z  " style="fill:rgb(160, 96, 54); fill-opacity:1.000; stroke:none;" />
 <path d="  M 4,40  L 3,40  L 3,42  L 4,42  Z  " style="fill:rgb(160, 96, 54); fill-opacity:1.000; stroke:none;" />
 <path d="  M 5,8  L 4,8  L 4,9  L 5,9  Z  " style="fill:rgb(160, 96, 54); fill-opacity:1.000; stroke:none;" />
 <path d="  M 5,38  L 4,38  L 4,39  L 5,39  Z  " style="fill:rgb(160, 96, 54); fill-opacity:1.000; stroke:none;" />
 <path d="  M 5,9  L 5,10  L 6,10  L 6,9  Z  " style="fill:rgb(160, 96, 54); fill-opacity:1.000; stroke:none;" />
 <path d="  M 5,38  L 6,38  L 6,36  L 5,36  Z  " style="fill:rgb(160, 96, 54); fill-opacity:1.000; stroke:none;" />
 <path d="  M 5,57  L 5,58  L 6,58  L 6,57  Z  " style="fill:rgb(160, 96, 54); fill-opacity:1.000; stroke:none;" />
 <path d="  M 7,6  L 6,6  L 6,7  L 7,7  Z  " style="fill:rgb(160, 96, 54); fill-opacity:1.000; stroke:none;" />
 <path d="  M 6,58  L 6,59  L 7,59  L 7,58  Z  " style="fill:rgb(160, 96, 54); fill-opacity:1.000; stroke:none;" />
 <path d="  M 8,6  L 8,7  L 9,7  L 9,5  L 7,5  L 7,6  Z  " style="fill:rgb(160, 96, 54); fill-opacity:1.000; stroke:none;" />
 <path d="  M 9,4  L 9,5  L 10,5  L 10,4  Z  " style="fill:rgb(160, 96, 54); fill-opacity:1.000; stroke:none;" />
 <path d="  M 10,59  L 9,59  L 9,60  L 10,60  Z  " style="fill:rgb(160, 96, 54); fill-opacity:1.000; stroke:none;" />
 <path d="  M 11,61  L 11,60  L 10,60  L 10,61  Z  " style="fill:rgb(160, 96, 54); fill-opacity:1.000; stroke:none;" />
 <path d="  M 13,57  L 13,56  L 12,56  L 12,57  Z  " style="fill:rgb(160, 96, 54); fill-opacity:1.000; stroke:none;" />
 <path d="  M 14,35  L 13,35  L 13,36  L 14,36  Z  " style="fill:rgb(160, 96, 54); fill-opacity:1.000; stroke:none;" />
 <path d="  M 13,56  L 14,56  L 14,55  L 13,55  Z  " style="fill:rgb(160, 96, 54); fill-opacity:1.000; stroke:none;" />
 <path d="  M 16,38  L 16,37  L 15,37  L 15,36  L 14,36  L 14,38  Z  " style="fill:rgb(160, 96, 54); fill-opacity:1.000; stroke:none;" />
 <path d="  M 16,32  L 17,32  L 17,31  L 16,31  Z  " style="fill:rgb(160, 96, 54); fill-opacity:1.000; stroke:none;" />
 <path d="  M 16,41  L 18,41  L 18,42  L 19,42  L 19,40  L 17,40  L 17,38  L 16,38  Z  " style="fill:rgb(160, 96, 54); fill-opacity:1.000; stroke:none;" />
 <path d="  M 17,31  L 18,31  L 18,30  L 17,30  Z  " style="fill:rgb(160, 96, 54); fill-opacity:1.000; stroke:none;" />
 <path d="  M 18,33  L 17,33  L 17,34  L 18,34  Z  " style="fill:rgb(160, 96, 54); fill-opacity:1.000; stroke:none;" />
 <path d="  M 18,29  L 18,30  L 19,30  L 19,29  Z  " style="fill:rgb(160, 96, 54); fill-opacity:1.000; stroke:none;" />
 <path d="  M 18,34  L 18,35  L 19,35  L 19,34  Z  " style="fill:rgb(160, 96, 54); fill-opacity:1.000; stroke:none;" />
 <path d="  M 19,21  L 19,22  L 20,22  L 20,21  Z  " style="fill:rgb(160, 96, 54); fill-opacity:1.000; stroke:none;" />
 <path d="  M 19,29  L 20,29  L 20,28  L 19,28  Z  " style="fill:rgb(160, 96, 54); fill-opacity:1.000; stroke:none;" />
 <path d="  M 19,35  L 19,36  L 20,36  L 20,35  Z  " style="fill:rgb(160, 96, 54); fill-opacity:1.000; stroke:none;" />
 <path d="  M 21,19  L 21,18  L 20,18  L 20,19  Z  " style="fill:rgb(160, 96, 54); fill-opacity:1.000; stroke:none;" />
 <path d="  M 20,21  L 22,21  L 22,20  L 23,20  L 23,19  L 21,19  L 21,20  L 20,20  Z  " style="fill:rgb(160, 96, 54); fill-opacity:1.000; stroke:none;" />
 <path d="  M 21,27  L 20,27  L 20,28  L 21,28  Z  " style="fill:rgb(160, 96, 54); fill-opacity:1.000; stroke:none;" />
 <path d="  M 21,37  L 21,36  L 20,36  L 20,37  Z  " style="fill:rgb(160, 96, 54); fill-opacity:1.000; stroke:none;" />
 <path d="  M 22,27  L 22,26  L 21,26  L 21,27  Z  " style="fill:rgb(160, 96, 54); fill-opacity:1.000; stroke:none;" />
 <path d="  M 22,37  L 21,37  L 21,38  L 22,38  Z  " style="fill:rgb(160, 96, 54); fill-opacity:1.000; stroke:none;" />
 <path d="  M 22,17  L 22,18  L 23,18  L 23,17  Z  " style="fill:rgb(160, 96, 54); fill-opacity:1.000; stroke:none;" />
 <path d="  M 23,25  L 22,25  L 22,26  L 23,26  Z  " style="fill:rgb(160, 96, 54); fill-opacity:1.000; stroke:none;" />
 <path d="  M 22,39  L 23,39  L 23,38  L 22,38  Z  " style="fill:rgb(160, 96, 54); fill-opacity:1.000; stroke:none;" />
 <path d="  M 24,19  L 24,18  L 23,18  L 23,19  Z  " style="fill:rgb(160, 96, 54); fill-opacity:1.000; stroke:none;" />
 <path d="  M 23,24  L 23,25  L 24,25  L 24,24  Z  " style="fill:rgb(160, 96, 54); fill-opacity:1.000; stroke:none;" />
 <path d="  M 23,39  L 23,40  L 24,40  L 24,39  Z  " style="fill:rgb(160, 96, 54); fill-opacity:1.000; stroke:none;" />
 <path d="  M 25,23  L 24,23  L 24,24  L 25,24  Z  " style="fill:rgb(160, 96, 54); fill-opacity:1.000; stroke:none;" />
 <path d="  M 24,40  L 24,41  L 25,41  L 25,40  Z  " style="fill:rgb(160, 96, 54); fill-opacity:1.000; stroke:none;" />
 <path d="  M 26,22  L 25,22  L 25,23  L 26,23  Z  " style="fill:rgb(160, 96, 54); fill-opacity:1.000; stroke:none;" />
 <path d="  M 26,42  L 26,41  L 25,41  L 25,42  Z  " style="fill:rgb(160, 96, 54); fill-opacity:1.000; stroke:none;" />
 <path d="  M 27,22  L 27,21  L 26,21  L 26,22  Z  " style="fill:rgb(160, 96, 54); fill-opacity:1.000; stroke:none;" />
 <path d="  M 27,43  L 27,42  L 26,42  L 26,43  Z  " style="fill:rgb(160, 96, 54); fill-opacity:1.000; stroke:none;" />
 <path d="  M 28,20  L 27,20  L 27,21  L 28,21  Z  " style="fill:rgb(160, 96, 54); fill-opacity:1.000; stroke:none;" />
 <path d="  M 29,19  L 28,19  L 28,20  L 29,20  Z  " style="fill:rgb(160, 96, 54); fill-opacity:1.000; stroke:none;" />
 <path d="  M 33,15  L 32,15  L 32,17  L 30,17  L 30,18  L 31,18  L 31,20  L 32,20  L 32,18  L 33,18  Z  " style="fill:rgb(160, 96, 54); fill-opacity:1.000; stroke:none;" />
 <path d="  M 32,46  L 32,47  L 33,47  L 33,46  Z  " style="fill:rgb(160, 96, 54); fill-opacity:1.000; stroke:none;" />
 <path d="  M 33,21  L 34,21  L 34,18  L 33,18  Z  " style="fill:rgb(160, 96, 54); fill-opacity:1.000; stroke:none;" />
 <path d="  M 34,43  L 34,42  L 33,42  L 33,43  Z  " style="fill:rgb(160, 96, 54); fill-opacity:1.000; stroke:none;" />
 <path d="  M 35,17  L 34,17  L 34,18  L 35,18  Z  " style="fill:rgb(160, 96, 54); fill-opacity:1.000; stroke:none;" />
 <path d="  M 34,44  L 34,45  L 35,45  L 35,44  Z  " style="fill:rgb(160, 96, 54); fill-opacity:1.000; stroke:none;" />
 <path d="  M 36,7  L 35,7  L 35,9  L 36,9  Z  " style="fill:rgb(160, 96, 54); fill-opacity:1.000; stroke:none;" />
 <path d="  M 35,43  L 35,44  L 36,44  L 36,43  Z  " style="fill:rgb(160, 96, 54); fill-opacity:1.000; stroke:none;" />
 <path d="  M 37,6  L 36,6  L 36,7  L 37,7  Z  " style="fill:rgb(160, 96, 54); fill-opacity:1.000; stroke:none;" />
 <path d="  M 37,5  L 37,6  L 38,6  L 38,5  Z  " style="fill:rgb(160, 96, 54); fill-opacity:1.000; stroke:none;" />
 <path d="  M 39,38  L 39,37  L 38,37  L 38,38  Z  " style="fill:rgb(160, 96, 54); fill-opacity:1.000; stroke:none;" />
 <path d="  M 38,41  L 39,41  L 39,39  L 38,39  Z  " style="fill:rgb(160, 96, 54); fill-opacity:1.000; stroke:none;" />
 <path d="  M 40,5  L 40,4  L 39,4  L 39,5  Z  " style="fill:rgb(160, 96, 54); fill-opacity:1.000; stroke:none;" />
 <path d="  M 41,3  L 40,3  L 40,4  L 41,4  Z  " style="fill:rgb(160, 96, 54); fill-opacity:1.000; stroke:none;" />
 <path d="  M 43,3  L 43,4  L 45,4  L 45,3  Z  " style="fill:rgb(160, 96, 54); fill-opacity:1.000; stroke:none;" />
 <path d="  M 45,22  L 44,22  L 44,23  L 45,23  Z  " style="fill:rgb(160, 96, 54); fill-opacity:1.000; stroke:none;" />
 <path d="  M 45,23  L 45,24  L 46,24  L 46,23  Z  " style="fill:rgb(160, 96, 54); fill-opacity:1.000; stroke:none;" />
 <path d="  M 47,4  L 46,4  L 46,5  L 47,5  Z  " style="fill:rgb(160, 96, 54); fill-opacity:1.000; stroke:none;" />
 <path d="  M 46,25  L 47,25  L 47,24  L 46,24  Z  " style="fill:rgb(160, 96, 54); fill-opacity:1.000; stroke:none;" />
 <path d="  M 48,6  L 48,5  L 47,5  L 47,6  Z  " style="fill:rgb(160, 96, 54); fill-opacity:1.000; stroke:none;" />
 <path d="  M 49,27  L 49,28  L 50,28  L 50,27  Z  " style="fill:rgb(160, 96, 54); fill-opacity:1.000; stroke:none;" />
 <path d="  M 50,5  L 51,5  L 51,4  L 50,4  Z  " style="fill:rgb(160, 96, 54); fill-opacity:1.000; stroke:none;" />
 <path d="  M 54,29  L 54,28  L 50,28  L 50,29  Z  " style="fill:rgb(160, 96, 54); fill-opacity:1.000; stroke:none;" />
 <path d="  M 52,5  L 51,5  L 51,6  L 52,6  Z  " style="fill:rgb(160, 96, 54); fill-opacity:1.000; stroke:none;" />
 <path d="  M 53,4  L 54,4  L 54,3  L 52,3  L 52,5  L 53,5  Z  " style="fill:rgb(160, 96, 54); fill-opacity:1.000; stroke:none;" />
 <path d="  M 53,8  L 53,7  L 52,7  L 52,8  Z  " style="fill:rgb(160, 96, 54); fill-opacity:1.000; stroke:none;" />
 <path d="  M 54,6  L 54,5  L 53,5  L 53,6  Z  " style="fill:rgb(160, 96, 54); fill-opacity:1.000; stroke:none;" />
 <path d="  M 55,5  L 56,5  L 56,4  L 55,4  Z  " style="fill:rgb(160, 96, 54); fill-opacity:1.000; stroke:none;" />
 <path d="  M 61,23  L 61,21  L 60,21  L 60,23  Z  " style="fill:rgb(160, 96, 54); fill-opacity:1.000; stroke:none;" />
 <path d="  M 3,12  L 4,12  L 4,11  L 3,11  Z  " style="fill:rgb(175, 105, 59); fill-opacity:1.000; stroke:none;" />
 <path d="  M 4,9  L 4,11  L 6,11  L 6,10  L 5,10  L 5,9  Z  " style="fill:rgb(175, 105, 59); fill-opacity:1.000; stroke:none;" />
 <path d="  M 7,9  L 6,9  L 6,10  L 7,10  Z  " style="fill:rgb(175, 105, 59); fill-opacity:1.000; stroke:none;" />
 <path d="  M 7,11  L 6,11  L 6,12  L 7,12  Z  " style="fill:rgb(175, 105, 59); fill-opacity:1.000; stroke:none;" />
 <path d="  M 9,59  L 8,59  L 8,60  L 9,60  Z  " style="fill:rgb(175, 105, 59); fill-opacity:1.000; stroke:none;" />
 <path d="  M 11,58  L 9,58  L 9,59  L 11,59  Z  " style="fill:rgb(175, 105, 59); fill-opacity:1.000; stroke:none;" />
 <path d="  M 11,57  L 11,56  L 10,56  L 10,57  Z  " style="fill:rgb(175, 105, 59); fill-opacity:1.000; stroke:none;" />
 <path d="  M 11,14  L 11,15  L 12,15  L 12,14  Z  " style="fill:rgb(175, 105, 59); fill-opacity:1.000; stroke:none;" />
 <path d="  M 12,18  L 11,18  L 11,19  L 12,19  Z  " style="fill:rgb(175, 105, 59); fill-opacity:1.000; stroke:none;" />
 <path d="  M 11,57  L 11,58  L 12,58  L 12,59  L 13,59  L 13,58  L 14,58  L 14,57  Z  " style="fill:rgb(175, 105, 59); fill-opacity:1.000; stroke:none;" />
 <path d="  M 13,18  L 13,19  L 14,19  L 14,18  L 15,18  L 15,19  L 16,19  L 16,17  L 15,17  L 15,16  L 14,16  L 14,15  L 12,15  L 12,16  L 13,16  L 13,17  L 12,17  L 12,18  Z  " style="fill:rgb(175, 105, 59); fill-opacity:1.000; stroke:none;" />
 <path d="  M 15,15  L 15,16  L 16,16  L 16,15  Z  " style="fill:rgb(175, 105, 59); fill-opacity:1.000; stroke:none;" />
 <path d="  M 15,20  L 15,21  L 17,21  L 17,20  L 18,20  L 18,19  L 16,19  L 16,20  Z  " style="fill:rgb(175, 105, 59); fill-opacity:1.000; stroke:none;" />
 <path d="  M 19,21  L 17,21  L 17,22  L 18,22  L 18,23  L 17,23  L 17,25  L 18,25  L 18,24  L 19,24  L 19,23  L 20,23  L 20,22  L 19,22  Z  " style="fill:rgb(175, 105, 59); fill-opacity:1.000; stroke:none;" />
 <path d="  M 20,21  L 20,22  L 21,22  L 21,21  Z  " style="fill:rgb(175, 105, 59); fill-opacity:1.000; stroke:none;" />
 <path d="  M 33,46  L 33,47  L 34,47  L 34,46  Z  " style="fill:rgb(175, 105, 59); fill-opacity:1.000; stroke:none;" />
 <path d="  M 35,43  L 34,43  L 34,44  L 35,44  Z  " style="fill:rgb(175, 105, 59); fill-opacity:1.000; stroke:none;" />
 <path d="  M 34,45  L 34,46  L 35,46  L 35,45  Z  " style="fill:rgb(175, 105, 59); fill-opacity:1.000; stroke:none;" />
 <path d="  M 36,44  L 35,44  L 35,45  L 36,45  Z  " style="fill:rgb(175, 105, 59); fill-opacity:1.000; stroke:none;" />
 <path d="  M 37,6  L 37,5  L 36,5  L 36,6  Z  " style="fill:rgb(175, 105, 59); fill-opacity:1.000; stroke:none;" />
 <path d="  M 36,41  L 36,44  L 37,44  L 37,43  L 38,43  L 38,42  L 37,42  L 37,41  Z  " style="fill:rgb(175, 105, 59); fill-opacity:1.000; stroke:none;" />
 <path d="  M 38,5  L 39,5  L 39,4  L 38,4  Z  " style="fill:rgb(175, 105, 59); fill-opacity:1.000; stroke:none;" />
 <path d="  M 38,42  L 39,42  L 39,41  L 38,41  Z  " style="fill:rgb(175, 105, 59); fill-opacity:1.000; stroke:none;" />
 <path d="  M 39,41  L 40,41  L 40,40  L 41,40  L 41,39  L 40,39  L 40,37  L 39,37  Z  " style="fill:rgb(175, 105, 59); fill-opacity:1.000; stroke:none;" />
 <path d="  M 41,3  L 41,4  L 43,4  L 43,3  Z  " style="fill:rgb(175, 105, 59); fill-opacity:1.000; stroke:none;" />
 <path d="  M 45,5  L 45,4  L 44,4  L 44,5  Z  " style="fill:rgb(175, 105, 59); fill-opacity:1.000; stroke:none;" />
 <path d="  M 52,3  L 45,3  L 45,4  L 47,4  L 47,5  L 48,5  L 48,4  L 51,4  L 51,5  L 52,5  Z  " style="fill:rgb(175, 105, 59); fill-opacity:1.000; stroke:none;" />
 <path d="  M 51,56  L 52,56  L 52,55  L 51,55  Z  " style="fill:rgb(175, 105, 59); fill-opacity:1.000; stroke:none;" />
 <path d="  M 52,7  L 53,7  L 53,5  L 52,5  Z  " style="fill:rgb(175, 105, 59); fill-opacity:1.000; stroke:none;" />
 <path d="  M 52,53  L 53,53  L 53,54  L 54,54  L 54,52  L 53,52  L 53,51  L 52,51  Z  " style="fill:rgb(175, 105, 59); fill-opacity:1.000; stroke:none;" />
 <path d="  M 53,55  L 53,54  L 52,54  L 52,55  Z  " style="fill:rgb(175, 105, 59); fill-opacity:1.000; stroke:none;" />
 <path d="  M 54,56  L 55,56  L 55,57  L 56,57  L 56,55  L 55,55  L 55,54  L 54,54  Z  " style="fill:rgb(175, 105, 59); fill-opacity:1.000; stroke:none;" />
 <path d="  M 55,59  L 54,59  L 54,60  L 56,60  L 56,58  L 55,58  Z  " style="fill:rgb(175, 105, 59); fill-opacity:1.000; stroke:none;" />
 <path d="  M 56,25  L 56,24  L 55,24  L 55,25  Z  " style="fill:rgb(175, 105, 59); fill-opacity:1.000; stroke:none;" />
 <path d="  M 57,27  L 56,27  L 56,28  L 55,28  L 55,29  L 57,29  Z  " style="fill:rgb(175, 105, 59); fill-opacity:1.000; stroke:none;" />
 <path d="  M 55,54  L 56,54  L 56,53  L 55,53  Z  " style="fill:rgb(175, 105, 59); fill-opacity:1.000; stroke:none;" />
 <path d="  M 57,26  L 57,25  L 56,25  L 56,26  Z  " style="fill:rgb(175, 105, 59); fill-opacity:1.000; stroke:none;" />
 <path d="  M 57,58  L 57,59  L 58,59  L 58,57  L 56,57  L 56,58  Z  " style="fill:rgb(175, 105, 59); fill-opacity:1.000; stroke:none;" />
 <path d="  M 57,23  L 58,23  L 58,21  L 57,21  Z  " style="fill:rgb(175, 105, 59); fill-opacity:1.000; stroke:none;" />
 <path d="  M 58,23  L 58,26  L 57,26  L 57,27  L 58,27  L 58,28  L 59,28  L 59,25  L 60,25  L 60,24  L 59,24  L 59,23  Z  " style="fill:rgb(175, 105, 59); fill-opacity:1.000; stroke:none;" />
 <path d="  M 58,55  L 58,54  L 57,54  L 57,55  Z  " style="fill:rgb(175, 105, 59); fill-opacity:1.000; stroke:none;" />
 <path d="  M 60,56  L 60,55  L 58,55  L 58,57  L 59,57  L 59,56  Z  " style="fill:rgb(175, 105, 59); fill-opacity:1.000; stroke:none;" />
 <path d="  M 61,23  L 60,23  L 60,24  L 61,24  Z  " style="fill:rgb(175, 105, 59); fill-opacity:1.000; stroke:none;" />
 <path d="  M 4,42  L 3,42  L 3,43  L 4,43  Z  " style="fill:rgb(147, 88, 49); fill-opacity:1.000; stroke:none;" />
 <path d="  M 4,54  L 4,52  L 3,52  L 3,54  Z  " style="fill:rgb(147, 88, 49); fill-opacity:1.000; stroke:none;" />
 <path d="  M 5,12  L 5,11  L 4,11  L 4,12  Z  " style="fill:rgb(147, 88, 49); fill-opacity:1.000; stroke:none;" />
 <path d="  M 5,24  L 5,23  L 4,23  L 4,24  Z  " style="fill:rgb(147, 88, 49); fill-opacity:1.000; stroke:none;" />
 <path d="  M 4,39  L 4,40  L 5,40  L 5,39  Z  " style="fill:rgb(147, 88, 49); fill-opacity:1.000; stroke:none;" />
 <path d="  M 4,56  L 5,56  L 5,55  L 4,55  Z  " style="fill:rgb(147, 88, 49); fill-opacity:1.000; stroke:none;" />
 <path d="  M 6,7  L 5,7  L 5,9  L 6,9  Z  " style="fill:rgb(147, 88, 49); fill-opacity:1.000; stroke:none;" />
 <path d="  M 6,25  L 5,25  L 5,26  L 6,26  Z  " style="fill:rgb(147, 88, 49); fill-opacity:1.000; stroke:none;" />
 <path d="  M 6,38  L 5,38  L 5,39  L 6,39  Z  " style="fill:rgb(147, 88, 49); fill-opacity:1.000; stroke:none;" />
 <path d="  M 6,13  L 7,13  L 7,12  L 6,12  Z  " style="fill:rgb(147, 88, 49); fill-opacity:1.000; stroke:none;" />
 <path d="  M 7,26  L 6,26  L 6,27  L 7,27  Z  " style="fill:rgb(147, 88, 49); fill-opacity:1.000; stroke:none;" />
 <path d="  M 7,36  L 6,36  L 6,37  L 7,37  Z  " style="fill:rgb(147, 88, 49); fill-opacity:1.000; stroke:none;" />
 <path d="  M 6,58  L 7,58  L 7,57  L 6,57  Z  " style="fill:rgb(147, 88, 49); fill-opacity:1.000; stroke:none;" />
 <path d="  M 7,12  L 8,12  L 8,11  L 7,11  Z  " style="fill:rgb(147, 88, 49); fill-opacity:1.000; stroke:none;" />
 <path d="  M 7,28  L 8,28  L 8,27  L 7,27  Z  " style="fill:rgb(147, 88, 49); fill-opacity:1.000; stroke:none;" />
 <path d="  M 7,35  L 7,36  L 8,36  L 8,35  Z  " style="fill:rgb(147, 88, 49); fill-opacity:1.000; stroke:none;" />
 <path d="  M 7,59  L 8,59  L 8,58  L 7,58  Z  " style="fill:rgb(147, 88, 49); fill-opacity:1.000; stroke:none;" />
 <path d="  M 8,36  L 8,37  L 11,37  L 11,36  L 13,36  L 13,35  L 10,35  L 10,36  Z  " style="fill:rgb(147, 88, 49); fill-opacity:1.000; stroke:none;" />
 <path d="  M 10,57  L 8,57  L 8,58  L 10,58  Z  " style="fill:rgb(147, 88, 49); fill-opacity:1.000; stroke:none;" />
 <path d="  M 10,4  L 10,5  L 24,5  L 24,4  Z  " style="fill:rgb(147, 88, 49); fill-opacity:1.000; stroke:none;" />
 <path d="  M 10,14  L 10,15  L 11,15  L 11,14  Z  " style="fill:rgb(147, 88, 49); fill-opacity:1.000; stroke:none;" />
 <path d="  M 10,56  L 11,56  L 11,55  L 10,55  Z  " style="fill:rgb(147, 88, 49); fill-opacity:1.000; stroke:none;" />
 <path d="  M 12,13  L 11,13  L 11,14  L 12,14  Z  " style="fill:rgb(147, 88, 49); fill-opacity:1.000; stroke:none;" />
 <path d="  M 11,56  L 11,57  L 12,57  L 12,56  Z  " style="fill:rgb(147, 88, 49); fill-opacity:1.000; stroke:none;" />
 <path d="  M 11,59  L 12,59  L 12,58  L 11,58  Z  " style="fill:rgb(147, 88, 49); fill-opacity:1.000; stroke:none;" />
 <path d="  M 12,60  L 11,60  L 11,61  L 12,61  Z  " style="fill:rgb(147, 88, 49); fill-opacity:1.000; stroke:none;" />
 <path d="  M 13,17  L 13,16  L 12,16  L 12,17  Z  " style="fill:rgb(147, 88, 49); fill-opacity:1.000; stroke:none;" />
 <path d="  M 12,18  L 12,19  L 13,19  L 13,18  Z  " style="fill:rgb(147, 88, 49); fill-opacity:1.000; stroke:none;" />
 <path d="  M 12,60  L 13,60  L 13,59  L 12,59  Z  " style="fill:rgb(147, 88, 49); fill-opacity:1.000; stroke:none;" />
 <path d="  M 13,15  L 14,15  L 14,14  L 13,14  Z  " style="fill:rgb(147, 88, 49); fill-opacity:1.000; stroke:none;" />
 <path d="  M 14,18  L 14,19  L 13,19  L 13,20  L 15,20  L 15,18  Z  " style="fill:rgb(147, 88, 49); fill-opacity:1.000; stroke:none;" />
 <path d="  M 13,27  L 13,28  L 14,28  L 14,27  Z  " style="fill:rgb(147, 88, 49); fill-opacity:1.000; stroke:none;" />
 <path d="  M 13,36  L 13,37  L 14,37  L 14,36  Z  " style="fill:rgb(147, 88, 49); fill-opacity:1.000; stroke:none;" />
 <path d="  M 13,54  L 13,55  L 14,55  L 14,54  Z  " style="fill:rgb(147, 88, 49); fill-opacity:1.000; stroke:none;" />
 <path d="  M 13,58  L 13,59  L 14,59  L 14,58  Z  " style="fill:rgb(147, 88, 49); fill-opacity:1.000; stroke:none;" />
 <path d="  M 14,16  L 15,16  L 15,15  L 14,15  Z  " style="fill:rgb(147, 88, 49); fill-opacity:1.000; stroke:none;" />
 <path d="  M 14,38  L 14,39  L 15,39  L 15,38  Z  " style="fill:rgb(147, 88, 49); fill-opacity:1.000; stroke:none;" />
 <path d="  M 14,55  L 14,56  L 15,56  L 15,55  Z  " style="fill:rgb(147, 88, 49); fill-opacity:1.000; stroke:none;" />
 <path d="  M 14,58  L 15,58  L 15,57  L 14,57  Z  " style="fill:rgb(147, 88, 49); fill-opacity:1.000; stroke:none;" />
 <path d="  M 16,17  L 16,16  L 15,16  L 15,17  Z  " style="fill:rgb(147, 88, 49); fill-opacity:1.000; stroke:none;" />
 <path d="  M 17,19  L 17,18  L 16,18  L 16,19  Z  " style="fill:rgb(147, 88, 49); fill-opacity:1.000; stroke:none;" />
 <path d="  M 16,41  L 16,42  L 17,42  L 17,41  Z  " style="fill:rgb(147, 88, 49); fill-opacity:1.000; stroke:none;" />
 <path d="  M 19,42  L 18,42  L 18,43  L 19,43  Z  " style="fill:rgb(147, 88, 49); fill-opacity:1.000; stroke:none;" />
 <path d="  M 20,42  L 20,41  L 19,41  L 19,42  Z  " style="fill:rgb(147, 88, 49); fill-opacity:1.000; stroke:none;" />
 <path d="  M 20,42  L 20,43  L 21,43  L 21,42  Z  " style="fill:rgb(147, 88, 49); fill-opacity:1.000; stroke:none;" />
 <path d="  M 21,44  L 22,44  L 22,43  L 21,43  Z  " style="fill:rgb(147, 88, 49); fill-opacity:1.000; stroke:none;" />
 <path d="  M 22,44  L 22,45  L 23,45  L 23,44  Z  " style="fill:rgb(147, 88, 49); fill-opacity:1.000; stroke:none;" />
 <path d="  M 24,61  L 24,60  L 22,60  L 22,61  Z  " style="fill:rgb(147, 88, 49); fill-opacity:1.000; stroke:none;" />
 <path d="  M 24,46  L 24,45  L 23,45  L 23,46  Z  " style="fill:rgb(147, 88, 49); fill-opacity:1.000; stroke:none;" />
 <path d="  M 25,5  L 25,6  L 26,6  L 26,5  Z  " style="fill:rgb(147, 88, 49); fill-opacity:1.000; stroke:none;" />
 <path d="  M 26,60  L 26,59  L 25,59  L 25,60  Z  " style="fill:rgb(147, 88, 49); fill-opacity:1.000; stroke:none;" />
 <path d="  M 26,6  L 26,7  L 27,7  L 27,6  Z  " style="fill:rgb(147, 88, 49); fill-opacity:1.000; stroke:none;" />
 <path d="  M 26,48  L 26,49  L 27,49  L 27,48  Z  " style="fill:rgb(147, 88, 49); fill-opacity:1.000; stroke:none;" />
 <path d="  M 28,59  L 28,57  L 27,57  L 27,58  L 26,58  L 26,59  Z  " style="fill:rgb(147, 88, 49); fill-opacity:1.000; stroke:none;" />
 <path d="  M 27,7  L 27,8  L 28,8  L 28,7  Z  " style="fill:rgb(147, 88, 49); fill-opacity:1.000; stroke:none;" />
 <path d="  M 28,44  L 28,43  L 27,43  L 27,44  Z  " style="fill:rgb(147, 88, 49); fill-opacity:1.000; stroke:none;" />
 <path d="  M 28,49  L 27,49  L 27,50  L 28,50  Z  " style="fill:rgb(147, 88, 49); fill-opacity:1.000; stroke:none;" />
 <path d="  M 28,45  L 29,45  L 29,44  L 28,44  Z  " style="fill:rgb(147, 88, 49); fill-opacity:1.000; stroke:none;" />
 <path d="  M 29,50  L 28,50  L 28,57  L 29,57  Z  " style="fill:rgb(147, 88, 49); fill-opacity:1.000; stroke:none;" />
 <path d="  M 31,19  L 31,18  L 29,18  L 29,19  Z  " style="fill:rgb(147, 88, 49); fill-opacity:1.000; stroke:none;" />
 <path d="  M 29,45  L 29,46  L 30,46  L 30,45  Z  " style="fill:rgb(147, 88, 49); fill-opacity:1.000; stroke:none;" />
 <path d="  M 31,46  L 30,46  L 30,47  L 31,47  Z  " style="fill:rgb(147, 88, 49); fill-opacity:1.000; stroke:none;" />
 <path d="  M 31,17  L 32,17  L 32,16  L 31,16  Z  " style="fill:rgb(147, 88, 49); fill-opacity:1.000; stroke:none;" />
 <path d="  M 31,21  L 32,21  L 32,20  L 31,20  Z  " style="fill:rgb(147, 88, 49); fill-opacity:1.000; stroke:none;" />
 <path d="  M 31,48  L 32,48  L 32,47  L 31,47  Z  " style="fill:rgb(147, 88, 49); fill-opacity:1.000; stroke:none;" />
 <path d="  M 33,19  L 33,18  L 32,18  L 32,19  Z  " style="fill:rgb(147, 88, 49); fill-opacity:1.000; stroke:none;" />
 <path d="  M 34,18  L 34,16  L 33,16  L 33,18  Z  " style="fill:rgb(147, 88, 49); fill-opacity:1.000; stroke:none;" />
 <path d="  M 33,22  L 34,22  L 34,21  L 33,21  Z  " style="fill:rgb(147, 88, 49); fill-opacity:1.000; stroke:none;" />
 <path d="  M 36,19  L 36,18  L 34,18  L 34,20  L 35,20  L 35,19  Z  " style="fill:rgb(147, 88, 49); fill-opacity:1.000; stroke:none;" />
 <path d="  M 34,41  L 34,43  L 35,43  L 35,41  Z  " style="fill:rgb(147, 88, 49); fill-opacity:1.000; stroke:none;" />
 <path d="  M 35,57  L 36,57  L 36,50  L 35,50  Z  " style="fill:rgb(147, 88, 49); fill-opacity:1.000; stroke:none;" />
 <path d="  M 36,20  L 37,20  L 37,19  L 36,19  Z  " style="fill:rgb(147, 88, 49); fill-opacity:1.000; stroke:none;" />
 <path d="  M 37,41  L 37,40  L 36,40  L 36,41  Z  " style="fill:rgb(147, 88, 49); fill-opacity:1.000; stroke:none;" />
 <path d="  M 37,50  L 37,49  L 36,49  L 36,50  Z  " style="fill:rgb(147, 88, 49); fill-opacity:1.000; stroke:none;" />
 <path d="  M 38,59  L 38,58  L 37,58  L 37,57  L 36,57  L 36,59  Z  " style="fill:rgb(147, 88, 49); fill-opacity:1.000; stroke:none;" />
 <path d="  M 37,20  L 37,21  L 38,21  L 38,20  Z  " style="fill:rgb(147, 88, 49); fill-opacity:1.000; stroke:none;" />
 <path d="  M 38,41  L 37,41  L 37,42  L 38,42  Z  " style="fill:rgb(147, 88, 49); fill-opacity:1.000; stroke:none;" />
 <path d="  M 38,48  L 37,48  L 37,49  L 38,49  Z  " style="fill:rgb(147, 88, 49); fill-opacity:1.000; stroke:none;" />
 <path d="  M 38,21  L 38,22  L 39,22  L 39,21  Z  " style="fill:rgb(147, 88, 49); fill-opacity:1.000; stroke:none;" />
 <path d="  M 39,48  L 39,47  L 38,47  L 38,48  Z  " style="fill:rgb(147, 88, 49); fill-opacity:1.000; stroke:none;" />
 <path d="  M 39,59  L 38,59  L 38,60  L 39,60  Z  " style="fill:rgb(147, 88, 49); fill-opacity:1.000; stroke:none;" />
 <path d="  M 40,22  L 39,22  L 39,23  L 40,23  Z  " style="fill:rgb(147, 88, 49); fill-opacity:1.000; stroke:none;" />
 <path d="  M 39,37  L 40,37  L 40,36  L 39,36  Z  " style="fill:rgb(147, 88, 49); fill-opacity:1.000; stroke:none;" />
 <path d="  M 40,47  L 40,46  L 39,46  L 39,47  Z  " style="fill:rgb(147, 88, 49); fill-opacity:1.000; stroke:none;" />
 <path d="  M 41,23  L 40,23  L 40,24  L 41,24  Z  " style="fill:rgb(147, 88, 49); fill-opacity:1.000; stroke:none;" />
 <path d="  M 41,38  L 40,38  L 40,39  L 41,39  Z  " style="fill:rgb(147, 88, 49); fill-opacity:1.000; stroke:none;" />
 <path d="  M 41,46  L 41,45  L 40,45  L 40,46  Z  " style="fill:rgb(147, 88, 49); fill-opacity:1.000; stroke:none;" />
 <path d="  M 40,61  L 41,61  L 41,60  L 40,60  Z  " style="fill:rgb(147, 88, 49); fill-opacity:1.000; stroke:none;" />
 <path d="  M 42,24  L 41,24  L 41,25  L 42,25  Z  " style="fill:rgb(147, 88, 49); fill-opacity:1.000; stroke:none;" />
 <path d="  M 42,45  L 42,44  L 41,44  L 41,45  Z  " style="fill:rgb(147, 88, 49); fill-opacity:1.000; stroke:none;" />
 <path d="  M 43,25  L 42,25  L 42,26  L 43,26  Z  " style="fill:rgb(147, 88, 49); fill-opacity:1.000; stroke:none;" />
 <path d="  M 43,44  L 43,43  L 42,43  L 42,44  Z  " style="fill:rgb(147, 88, 49); fill-opacity:1.000; stroke:none;" />
 <path d="  M 43,27  L 44,27  L 44,26  L 43,26  Z  " style="fill:rgb(147, 88, 49); fill-opacity:1.000; stroke:none;" />
 <path d="  M 43,42  L 43,43  L 44,43  L 44,42  Z  " style="fill:rgb(147, 88, 49); fill-opacity:1.000; stroke:none;" />
 <path d="  M 44,27  L 44,28  L 45,28  L 45,27  Z  " style="fill:rgb(147, 88, 49); fill-opacity:1.000; stroke:none;" />
 <path d="  M 44,42  L 45,42  L 45,41  L 44,41  Z  " style="fill:rgb(147, 88, 49); fill-opacity:1.000; stroke:none;" />
 <path d="  M 45,40  L 45,41  L 46,41  L 46,40  Z  " style="fill:rgb(147, 88, 49); fill-opacity:1.000; stroke:none;" />
 <path d="  M 46,40  L 47,40  L 47,39  L 46,39  Z  " style="fill:rgb(147, 88, 49); fill-opacity:1.000; stroke:none;" />
 <path d="  M 47,38  L 47,39  L 48,39  L 48,38  Z  " style="fill:rgb(147, 88, 49); fill-opacity:1.000; stroke:none;" />
 <path d="  M 48,37  L 48,38  L 49,38  L 49,37  Z  " style="fill:rgb(147, 88, 49); fill-opacity:1.000; stroke:none;" />
 <path d="  M 50,36  L 49,36  L 49,37  L 50,37  Z  " style="fill:rgb(147, 88, 49); fill-opacity:1.000; stroke:none;" />
 <path d="  M 7,12  L 7,13  L 6,13  L 6,11  L 8,11  L 8,12  Z  M 16,18  L 17,18  L 17,19  L 18,19  L 18,20  L 17,20  L 17,21  L 15,21  L 15,20  L 13,20  L 13,19  L 11,19  L 11,18  L 12,18  L 12,15  L 13,15  L 13,14  L 14,14  L 14,15  L 16,15  Z  M 7,6  L 7,7  L 6,7  L 6,9  L 7,9  L 7,10  L 6,10  L 6,11  L 5,11  L 5,12  L 4,12  L 4,23  L 5,23  L 5,25  L 6,25  L 6,26  L 7,26  L 7,27  L 8,27  L 8,28  L 13,28  L 13,27  L 15,27  L 15,26  L 16,26  L 16,25  L 17,25  L 17,23  L 18,23  L 18,22  L 17,22  L 17,21  L 20,21  L 20,20  L 21,20  L 21,19  L 23,19  L 23,18  L 24,18  L 24,17  L 25,17  L 25,16  L 26,16  L 26,15  L 27,15  L 27,14  L 28,14  L 28,8  L 27,8  L 27,7  L 26,7  L 26,6  L 25,6  L 25,5  L 9,5  L 9,7  L 8,7  L 8,6  Z  M 12,15  L 10,15  L 10,14  L 11,14  L 11,13  L 12,13  Z  M 22,17  L 23,17  L 23,18  L 22,18  Z  M 21,19  L 20,19  L 20,18  L 21,18  Z  " style="fill:rgb(144, 85, 45); fill-opacity:1.000; stroke:none;" />
 <path d="  M 15,19  L 15,20  L 16,20  L 16,19  Z  " style="fill:rgb(144, 85, 45); fill-opacity:1.000; stroke:none;" />
 <path d="  M 17,32  L 16,32  L 16,34  L 17,34  Z  " style="fill:rgb(144, 85, 45); fill-opacity:1.000; stroke:none;" />
 <path d="  M 17,35  L 18,35  L 18,34  L 17,34  Z  " style="fill:rgb(144, 85, 45); fill-opacity:1.000; stroke:none;" />
 <path d="  M 19,35  L 18,35  L 18,36  L 19,36  Z  " style="fill:rgb(144, 85, 45); fill-opacity:1.000; stroke:none;" />
 <path d="  M 19,28  L 20,28  L 20,27  L 19,27  Z  " style="fill:rgb(144, 85, 45); fill-opacity:1.000; stroke:none;" />
 <path d="  M 20,37  L 20,36  L 19,36  L 19,37  Z  " style="fill:rgb(144, 85, 45); fill-opacity:1.000; stroke:none;" />
 <path d="  M 20,27  L 21,27  L 21,26  L 20,26  Z  " style="fill:rgb(144, 85, 45); fill-opacity:1.000; stroke:none;" />
 <path d="  M 21,37  L 20,37  L 20,38  L 21,38  Z  " style="fill:rgb(144, 85, 45); fill-opacity:1.000; stroke:none;" />
 <path d="  M 22,26  L 22,25  L 21,25  L 21,26  Z  " style="fill:rgb(144, 85, 45); fill-opacity:1.000; stroke:none;" />
 <path d="  M 22,39  L 22,38  L 21,38  L 21,39  Z  " style="fill:rgb(144, 85, 45); fill-opacity:1.000; stroke:none;" />
 <path d="  M 22,24  L 22,25  L 23,25  L 23,24  Z  " style="fill:rgb(144, 85, 45); fill-opacity:1.000; stroke:none;" />
 <path d="  M 22,39  L 22,40  L 23,40  L 23,39  Z  " style="fill:rgb(144, 85, 45); fill-opacity:1.000; stroke:none;" />
 <path d="  M 23,23  L 23,24  L 24,24  L 24,23  Z  " style="fill:rgb(144, 85, 45); fill-opacity:1.000; stroke:none;" />
 <path d="  M 24,41  L 24,40  L 23,40  L 23,41  Z  " style="fill:rgb(144, 85, 45); fill-opacity:1.000; stroke:none;" />
 <path d="  M 25,23  L 25,22  L 24,22  L 24,23  Z  " style="fill:rgb(144, 85, 45); fill-opacity:1.000; stroke:none;" />
 <path d="  M 24,42  L 25,42  L 25,41  L 24,41  Z  " style="fill:rgb(144, 85, 45); fill-opacity:1.000; stroke:none;" />
 <path d="  M 25,22  L 26,22  L 26,21  L 25,21  Z  " style="fill:rgb(144, 85, 45); fill-opacity:1.000; stroke:none;" />
 <path d="  M 26,43  L 26,42  L 25,42  L 25,43  Z  " style="fill:rgb(144, 85, 45); fill-opacity:1.000; stroke:none;" />
 <path d="  M 26,20  L 26,21  L 27,21  L 27,20  Z  " style="fill:rgb(144, 85, 45); fill-opacity:1.000; stroke:none;" />
 <path d="  M 28,20  L 28,19  L 27,19  L 27,20  Z  " style="fill:rgb(144, 85, 45); fill-opacity:1.000; stroke:none;" />
 <path d="  M 35,9  L 35,10  L 36,10  L 36,9  Z  " style="fill:rgb(144, 85, 45); fill-opacity:1.000; stroke:none;" />
 <path d="  M 36,8  L 37,8  L 37,7  L 36,7  Z  " style="fill:rgb(144, 85, 45); fill-opacity:1.000; stroke:none;" />
 <path d="  M 36,45  L 37,45  L 37,44  L 36,44  Z  " style="fill:rgb(144, 85, 45); fill-opacity:1.000; stroke:none;" />
 <path d="  M 38,44  L 38,43  L 37,43  L 37,44  Z  " style="fill:rgb(144, 85, 45); fill-opacity:1.000; stroke:none;" />
 <path d="  M 39,43  L 39,42  L 38,42  L 38,43  Z  " style="fill:rgb(144, 85, 45); fill-opacity:1.000; stroke:none;" />
 <path d="  M 40,17  L 39,17  L 39,18  L 40,18  Z  " style="fill:rgb(144, 85, 45); fill-opacity:1.000; stroke:none;" />
 <path d="  M 39,41  L 39,42  L 40,42  L 40,41  Z  " style="fill:rgb(144, 85, 45); fill-opacity:1.000; stroke:none;" />
 <path d="  M 40,18  L 40,19  L 41,19  L 41,18  Z  " style="fill:rgb(144, 85, 45); fill-opacity:1.000; stroke:none;" />
 <path d="  M 41,41  L 41,40  L 40,40  L 40,41  Z  " style="fill:rgb(144, 85, 45); fill-opacity:1.000; stroke:none;" />
 <path d="  M 42,20  L 42,19  L 41,19  L 41,20  Z  " style="fill:rgb(144, 85, 45); fill-opacity:1.000; stroke:none;" />
 <path d="  M 44,35  L 44,36  L 43,36  L 43,37  L 42,37  L 42,38  L 41,38  L 41,40  L 42,40  L 42,39  L 43,39  L 43,38  L 44,38  L 44,37  L 45,37  L 45,36  L 46,36  L 46,35  L 47,35  L 47,34  L 48,34  L 48,33  L 49,33  L 49,32  L 48,32  L 48,31  L 47,31  L 47,33  L 46,33  L 46,34  L 45,34  L 45,35  Z  " style="fill:rgb(144, 85, 45); fill-opacity:1.000; stroke:none;" />
 <path d="  M 42,20  L 42,21  L 43,21  L 43,20  Z  " style="fill:rgb(144, 85, 45); fill-opacity:1.000; stroke:none;" />
 <path d="  M 44,4  L 43,4  L 43,5  L 44,5  Z  " style="fill:rgb(144, 85, 45); fill-opacity:1.000; stroke:none;" />
 <path d="  M 44,21  L 43,21  L 43,22  L 44,22  Z  " style="fill:rgb(144, 85, 45); fill-opacity:1.000; stroke:none;" />
 <path d="  M 44,5  L 44,6  L 45,6  L 45,5  Z  " style="fill:rgb(144, 85, 45); fill-opacity:1.000; stroke:none;" />
 <path d="  M 45,4  L 45,5  L 46,5  L 46,4  Z  " style="fill:rgb(144, 85, 45); fill-opacity:1.000; stroke:none;" />
 <path d="  M 45,22  L 45,23  L 46,23  L 46,22  Z  " style="fill:rgb(144, 85, 45); fill-opacity:1.000; stroke:none;" />
 <path d="  M 45,29  L 45,30  L 46,30  L 46,29  Z  " style="fill:rgb(144, 85, 45); fill-opacity:1.000; stroke:none;" />
 <path d="  M 46,24  L 47,24  L 47,23  L 46,23  Z  " style="fill:rgb(144, 85, 45); fill-opacity:1.000; stroke:none;" />
 <path d="  M 46,31  L 47,31  L 47,30  L 46,30  Z  " style="fill:rgb(144, 85, 45); fill-opacity:1.000; stroke:none;" />
 <path d="  M 47,7  L 48,7  L 48,6  L 47,6  Z  " style="fill:rgb(144, 85, 45); fill-opacity:1.000; stroke:none;" />
 <path d="  M 48,25  L 47,25  L 47,26  L 48,26  Z  " style="fill:rgb(144, 85, 45); fill-opacity:1.000; stroke:none;" />
 <path d="  M 48,27  L 49,27  L 49,26  L 48,26  Z  " style="fill:rgb(144, 85, 45); fill-opacity:1.000; stroke:none;" />
 <path d="  M 50,4  L 49,4  L 49,5  L 50,5  Z  " style="fill:rgb(144, 85, 45); fill-opacity:1.000; stroke:none;" />
 <path d="  M 51,28  L 51,27  L 50,27  L 50,28  Z  " style="fill:rgb(144, 85, 45); fill-opacity:1.000; stroke:none;" />
 <path d="  M 50,35  L 50,36  L 57,36  L 57,35  Z  " style="fill:rgb(144, 85, 45); fill-opacity:1.000; stroke:none;" />
 <path d="  M 52,57  L 52,56  L 50,56  L 50,57  Z  " style="fill:rgb(144, 85, 45); fill-opacity:1.000; stroke:none;" />
 <path d="  M 51,52  L 52,52  L 52,50  L 51,50  Z  " style="fill:rgb(144, 85, 45); fill-opacity:1.000; stroke:none;" />
 <path d="  M 54,59  L 53,59  L 53,60  L 51,60  L 51,61  L 54,61  Z  " style="fill:rgb(144, 85, 45); fill-opacity:1.000; stroke:none;" />
 <path d="  M 52,9  L 53,9  L 53,8  L 52,8  Z  " style="fill:rgb(144, 85, 45); fill-opacity:1.000; stroke:none;" />
 <path d="  M 52,53  L 52,54  L 53,54  L 53,53  Z  " style="fill:rgb(144, 85, 45); fill-opacity:1.000; stroke:none;" />
 <path d="  M 53,55  L 52,55  L 52,56  L 53,56  Z  " style="fill:rgb(144, 85, 45); fill-opacity:1.000; stroke:none;" />
 <path d="  M 53,52  L 54,52  L 54,51  L 53,51  Z  " style="fill:rgb(144, 85, 45); fill-opacity:1.000; stroke:none;" />
 <path d="  M 55,4  L 54,4  L 54,5  L 55,5  Z  " style="fill:rgb(144, 85, 45); fill-opacity:1.000; stroke:none;" />
 <path d="  M 54,25  L 55,25  L 55,24  L 56,24  L 56,22  L 55,22  L 55,23  L 54,23  Z  " style="fill:rgb(144, 85, 45); fill-opacity:1.000; stroke:none;" />
 <path d="  M 55,29  L 55,28  L 54,28  L 54,29  Z  " style="fill:rgb(144, 85, 45); fill-opacity:1.000; stroke:none;" />
 <path d="  M 54,51  L 55,51  L 55,50  L 54,50  Z  " style="fill:rgb(144, 85, 45); fill-opacity:1.000; stroke:none;" />
 <path d="  M 55,53  L 54,53  L 54,54  L 55,54  Z  " style="fill:rgb(144, 85, 45); fill-opacity:1.000; stroke:none;" />
 <path d="  M 54,56  L 54,57  L 55,57  L 55,56  Z  " style="fill:rgb(144, 85, 45); fill-opacity:1.000; stroke:none;" />
 <path d="  M 55,58  L 54,58  L 54,59  L 55,59  Z  " style="fill:rgb(144, 85, 45); fill-opacity:1.000; stroke:none;" />
 <path d="  M 55,25  L 55,26  L 56,26  L 56,25  Z  " style="fill:rgb(144, 85, 45); fill-opacity:1.000; stroke:none;" />
 <path d="  M 55,27  L 55,28  L 56,28  L 56,27  Z  " style="fill:rgb(144, 85, 45); fill-opacity:1.000; stroke:none;" />
 <path d="  M 55,52  L 55,53  L 56,53  L 56,52  Z  " style="fill:rgb(144, 85, 45); fill-opacity:1.000; stroke:none;" />
 <path d="  M 55,54  L 55,55  L 56,55  L 56,54  Z  " style="fill:rgb(144, 85, 45); fill-opacity:1.000; stroke:none;" />
 <path d="  M 55,58  L 56,58  L 56,57  L 55,57  Z  " style="fill:rgb(144, 85, 45); fill-opacity:1.000; stroke:none;" />
 <path d="  M 58,5  L 56,5  L 56,6  L 58,6  Z  " style="fill:rgb(144, 85, 45); fill-opacity:1.000; stroke:none;" />
 <path d="  M 56,25  L 57,25  L 57,24  L 56,24  Z  " style="fill:rgb(144, 85, 45); fill-opacity:1.000; stroke:none;" />
 <path d="  M 57,26  L 56,26  L 56,27  L 57,27  Z  " style="fill:rgb(144, 85, 45); fill-opacity:1.000; stroke:none;" />
 <path d="  M 56,56  L 56,57  L 57,57  L 57,56  Z  " style="fill:rgb(144, 85, 45); fill-opacity:1.000; stroke:none;" />
 <path d="  M 58,21  L 58,20  L 57,20  L 57,21  Z  " style="fill:rgb(144, 85, 45); fill-opacity:1.000; stroke:none;" />
 <path d="  M 58,37  L 58,38  L 59,38  L 59,36  L 57,36  L 57,37  Z  " style="fill:rgb(144, 85, 45); fill-opacity:1.000; stroke:none;" />
 <path d="  M 57,54  L 58,54  L 58,52  L 57,52  Z  " style="fill:rgb(144, 85, 45); fill-opacity:1.000; stroke:none;" />
 <path d="  M 57,56  L 58,56  L 58,55  L 57,55  Z  " style="fill:rgb(144, 85, 45); fill-opacity:1.000; stroke:none;" />
 <path d="  M 59,6  L 58,6  L 58,7  L 59,7  Z  " style="fill:rgb(144, 85, 45); fill-opacity:1.000; stroke:none;" />
 <path d="  M 58,22  L 58,23  L 59,23  L 59,22  Z  " style="fill:rgb(144, 85, 45); fill-opacity:1.000; stroke:none;" />
 <path d="  M 58,54  L 58,55  L 59,55  L 59,54  Z  " style="fill:rgb(144, 85, 45); fill-opacity:1.000; stroke:none;" />
 <path d="  M 59,24  L 60,24  L 60,23  L 59,23  Z  " style="fill:rgb(144, 85, 45); fill-opacity:1.000; stroke:none;" />
 <path d="  M 59,39  L 60,39  L 60,38  L 59,38  Z  " style="fill:rgb(144, 85, 45); fill-opacity:1.000; stroke:none;" />
 <path d="  M 60,51  L 59,51  L 59,54  L 61,54  L 61,53  L 60,53  Z  " style="fill:rgb(144, 85, 45); fill-opacity:1.000; stroke:none;" />
 <path d="  M 60,40  L 60,42  L 61,42  L 61,40  Z  " style="fill:rgb(144, 85, 45); fill-opacity:1.000; stroke:none;" />
</svg>
