<?xml version="1.0" encoding="UTF-8" standalone="no"?>
<!DOCTYPE svg PUBLIC "-//W3C//DTD SVG 1.1//EN" 
  "http://www.w3.org/Graphics/SVG/1.1/DTD/svg11.dtd">
<svg width="64" height="64"
	 xmlns="http://www.w3.org/2000/svg" version="1.1">
 <path d="  M 0,29  L 1,29  L 1,30  L 2,30  L 2,29  L 3,29  L 3,28  L 0,28  Z  " style="fill:rgb(98, 56, 29); fill-opacity:1.000; stroke:none;" />
 <path d="  M 0,56  L 0,57  L 1,57  L 1,56  Z  " style="fill:rgb(98, 56, 29); fill-opacity:1.000; stroke:none;" />
 <path d="  M 0,64  L 1,64  L 1,63  L 0,63  Z  " style="fill:rgb(98, 56, 29); fill-opacity:1.000; stroke:none;" />
 <path d="  M 1,50  L 2,50  L 2,48  L 1,48  Z  " style="fill:rgb(98, 56, 29); fill-opacity:1.000; stroke:none;" />
 <path d="  M 3,41  L 2,41  L 2,44  L 3,44  Z  " style="fill:rgb(98, 56, 29); fill-opacity:1.000; stroke:none;" />
 <path d="  M 4,30  L 3,30  L 3,39  L 4,39  Z  " style="fill:rgb(98, 56, 29); fill-opacity:1.000; stroke:none;" />
 <path d="  M 4,59  L 4,55  L 3,55  L 3,59  Z  " style="fill:rgb(98, 56, 29); fill-opacity:1.000; stroke:none;" />
 <path d="  M 6,62  L 5,62  L 5,60  L 4,60  L 4,62  L 3,62  L 3,64  L 6,64  Z  " style="fill:rgb(98, 56, 29); fill-opacity:1.000; stroke:none;" />
 <path d="  M 4,30  L 5,30  L 5,28  L 4,28  Z  " style="fill:rgb(98, 56, 29); fill-opacity:1.000; stroke:none;" />
 <path d="  M 5,39  L 4,39  L 4,44  L 5,44  Z  " style="fill:rgb(98, 56, 29); fill-opacity:1.000; stroke:none;" />
 <path d="  M 5,47  L 5,45  L 4,45  L 4,47  Z  " style="fill:rgb(98, 56, 29); fill-opacity:1.000; stroke:none;" />
 <path d="  M 5,55  L 5,53  L 4,53  L 4,55  Z  " style="fill:rgb(98, 56, 29); fill-opacity:1.000; stroke:none;" />
 <path d="  M 6,31  L 5,31  L 5,36  L 6,36  Z  " style="fill:rgb(98, 56, 29); fill-opacity:1.000; stroke:none;" />
 <path d="  M 6,47  L 5,47  L 5,51  L 6,51  Z  " style="fill:rgb(98, 56, 29); fill-opacity:1.000; stroke:none;" />
 <path d="  M 6,28  L 6,31  L 7,31  L 7,30  L 8,30  L 8,28  Z  " style="fill:rgb(98, 56, 29); fill-opacity:1.000; stroke:none;" />
 <path d="  M 6,40  L 7,40  L 7,39  L 6,39  Z  " style="fill:rgb(98, 56, 29); fill-opacity:1.000; stroke:none;" />
 <path d="  M 6,58  L 7,58  L 7,57  L 6,57  Z  " style="fill:rgb(98, 56, 29); fill-opacity:1.000; stroke:none;" />
 <path d="  M 6,60  L 6,62  L 7,62  L 7,61  L 8,61  L 8,60  Z  " style="fill:rgb(98, 56, 29); fill-opacity:1.000; stroke:none;" />
 <path d="  M 7,35  L 7,38  L 8,38  L 8,35  Z  " style="fill:rgb(98, 56, 29); fill-opacity:1.000; stroke:none;" />
 <path d="  M 8,41  L 7,41  L 7,44  L 8,44  Z  " style="fill:rgb(98, 56, 29); fill-opacity:1.000; stroke:none;" />
 <path d="  M 7,48  L 8,48  L 8,46  L 7,46  Z  " style="fill:rgb(98, 56, 29); fill-opacity:1.000; stroke:none;" />
 <path d="  M 9,30  L 8,30  L 8,35  L 9,35  Z  " style="fill:rgb(98, 56, 29); fill-opacity:1.000; stroke:none;" />
 <path d="  M 9,51  L 9,49  L 8,49  L 8,52  L 10,52  L 10,51  Z  " style="fill:rgb(98, 56, 29); fill-opacity:1.000; stroke:none;" />
 <path d="  M 8,59  L 9,59  L 9,55  L 8,55  Z  " style="fill:rgb(98, 56, 29); fill-opacity:1.000; stroke:none;" />
 <path d="  M 9,30  L 10,30  L 10,29  L 11,29  L 11,28  L 9,28  Z  " style="fill:rgb(98, 56, 29); fill-opacity:1.000; stroke:none;" />
 <path d="  M 9,39  L 10,39  L 10,36  L 9,36  Z  " style="fill:rgb(98, 56, 29); fill-opacity:1.000; stroke:none;" />
 <path d="  M 9,46  L 9,48  L 10,48  L 10,46  Z  " style="fill:rgb(98, 56, 29); fill-opacity:1.000; stroke:none;" />
 <path d="  M 11,61  L 10,61  L 10,63  L 9,63  L 9,64  L 12,64  L 12,62  L 11,62  Z  " style="fill:rgb(98, 56, 29); fill-opacity:1.000; stroke:none;" />
 <path d="  M 11,34  L 11,33  L 10,33  L 10,34  Z  " style="fill:rgb(98, 56, 29); fill-opacity:1.000; stroke:none;" />
 <path d="  M 10,39  L 10,42  L 11,42  L 11,39  Z  " style="fill:rgb(98, 56, 29); fill-opacity:1.000; stroke:none;" />
 <path d="  M 11,33  L 12,33  L 12,30  L 11,30  Z  " style="fill:rgb(98, 56, 29); fill-opacity:1.000; stroke:none;" />
 <path d="  M 12,49  L 11,49  L 11,50  L 12,50  Z  " style="fill:rgb(98, 56, 29); fill-opacity:1.000; stroke:none;" />
 <path d="  M 11,59  L 12,59  L 12,53  L 11,53  Z  " style="fill:rgb(98, 56, 29); fill-opacity:1.000; stroke:none;" />
 <path d="  M 15,37  L 15,36  L 13,36  L 13,37  Z  " style="fill:rgb(98, 56, 29); fill-opacity:1.000; stroke:none;" />
 <path d="  M 13,39  L 13,40  L 15,40  L 15,39  Z  " style="fill:rgb(98, 56, 29); fill-opacity:1.000; stroke:none;" />
 <path d="  M 16,44  L 16,43  L 13,43  L 13,44  Z  " style="fill:rgb(98, 56, 29); fill-opacity:1.000; stroke:none;" />
 <path d="  M 16,42  L 16,43  L 18,43  L 18,42  L 17,42  L 17,41  L 14,41  L 14,42  Z  " style="fill:rgb(98, 56, 29); fill-opacity:1.000; stroke:none;" />
 <path d="  M 22,37  L 22,36  L 17,36  L 17,37  Z  " style="fill:rgb(98, 56, 29); fill-opacity:1.000; stroke:none;" />
 <path d="  M 17,38  L 17,39  L 21,39  L 21,38  Z  " style="fill:rgb(98, 56, 29); fill-opacity:1.000; stroke:none;" />
 <path d="  M 20,42  L 20,41  L 19,41  L 19,42  Z  " style="fill:rgb(98, 56, 29); fill-opacity:1.000; stroke:none;" />
 <path d="  M 22,41  L 22,40  L 21,40  L 21,41  Z  " style="fill:rgb(98, 56, 29); fill-opacity:1.000; stroke:none;" />
 <path d="  M 24,37  L 25,37  L 25,36  L 24,36  Z  " style="fill:rgb(98, 56, 29); fill-opacity:1.000; stroke:none;" />
 <path d="  M 24,42  L 25,42  L 25,41  L 24,41  Z  " style="fill:rgb(98, 56, 29); fill-opacity:1.000; stroke:none;" />
 <path d="  M 26,43  L 24,43  L 24,44  L 26,44  Z  " style="fill:rgb(98, 56, 29); fill-opacity:1.000; stroke:none;" />
 <path d="  M 28,44  L 28,43  L 27,43  L 27,44  Z  " style="fill:rgb(98, 56, 29); fill-opacity:1.000; stroke:none;" />
 <path d="  M 30,38  L 30,37  L 28,37  L 28,38  Z  " style="fill:rgb(98, 56, 29); fill-opacity:1.000; stroke:none;" />
 <path d="  M 28,39  L 28,40  L 29,40  L 29,39  Z  " style="fill:rgb(98, 56, 29); fill-opacity:1.000; stroke:none;" />
 <path d="  M 31,38  L 32,38  L 32,37  L 31,37  Z  " style="fill:rgb(98, 56, 29); fill-opacity:1.000; stroke:none;" />
 <path d="  M 36,42  L 34,42  L 34,41  L 32,41  L 32,42  L 31,42  L 31,44  L 32,44  L 32,43  L 36,43  Z  " style="fill:rgb(98, 56, 29); fill-opacity:1.000; stroke:none;" />
 <path d="  M 35,40  L 35,39  L 32,39  L 32,40  Z  " style="fill:rgb(98, 56, 29); fill-opacity:1.000; stroke:none;" />
 <path d="  M 35,41  L 36,41  L 36,40  L 35,40  Z  " style="fill:rgb(98, 56, 29); fill-opacity:1.000; stroke:none;" />
 <path d="  M 37,37  L 37,38  L 38,38  L 38,37  Z  " style="fill:rgb(98, 56, 29); fill-opacity:1.000; stroke:none;" />
 <path d="  M 39,41  L 37,41  L 37,42  L 39,42  Z  " style="fill:rgb(98, 56, 29); fill-opacity:1.000; stroke:none;" />
 <path d="  M 38,43  L 38,44  L 39,44  L 39,43  Z  " style="fill:rgb(98, 56, 29); fill-opacity:1.000; stroke:none;" />
 <path d="  M 40,39  L 39,39  L 39,40  L 40,40  Z  " style="fill:rgb(98, 56, 29); fill-opacity:1.000; stroke:none;" />
 <path d="  M 41,37  L 41,36  L 40,36  L 40,37  Z  " style="fill:rgb(98, 56, 29); fill-opacity:1.000; stroke:none;" />
 <path d="  M 40,38  L 40,39  L 44,39  L 44,38  Z  " style="fill:rgb(98, 56, 29); fill-opacity:1.000; stroke:none;" />
 <path d="  M 42,41  L 41,41  L 41,42  L 42,42  Z  " style="fill:rgb(98, 56, 29); fill-opacity:1.000; stroke:none;" />
 <path d="  M 44,42  L 44,43  L 48,43  L 48,42  Z  " style="fill:rgb(98, 56, 29); fill-opacity:1.000; stroke:none;" />
 <path d="  M 47,36  L 46,36  L 46,37  L 47,37  Z  " style="fill:rgb(98, 56, 29); fill-opacity:1.000; stroke:none;" />
 <path d="  M 49,40  L 49,39  L 48,39  L 48,40  Z  " style="fill:rgb(98, 56, 29); fill-opacity:1.000; stroke:none;" />
 <path d="  M 50,41  L 50,40  L 49,40  L 49,41  Z  " style="fill:rgb(98, 56, 29); fill-opacity:1.000; stroke:none;" />
 <path d="  M 51,42  L 51,41  L 50,41  L 50,42  Z  " style="fill:rgb(98, 56, 29); fill-opacity:1.000; stroke:none;" />
 <path d="  M 51,44  L 52,44  L 52,43  L 51,43  Z  " style="fill:rgb(98, 56, 29); fill-opacity:1.000; stroke:none;" />
 <path d="  M 52,28  L 52,31  L 53,31  L 53,30  L 54,30  L 54,28  Z  " style="fill:rgb(98, 56, 29); fill-opacity:1.000; stroke:none;" />
 <path d="  M 53,32  L 52,32  L 52,34  L 53,34  Z  " style="fill:rgb(98, 56, 29); fill-opacity:1.000; stroke:none;" />
 <path d="  M 53,52  L 54,52  L 54,48  L 53,48  L 53,47  L 52,47  L 52,49  L 53,49  Z  " style="fill:rgb(98, 56, 29); fill-opacity:1.000; stroke:none;" />
 <path d="  M 53,60  L 52,60  L 52,62  L 53,62  Z  " style="fill:rgb(98, 56, 29); fill-opacity:1.000; stroke:none;" />
 <path d="  M 52,63  L 52,64  L 54,64  L 54,62  L 53,62  L 53,63  Z  " style="fill:rgb(98, 56, 29); fill-opacity:1.000; stroke:none;" />
 <path d="  M 53,32  L 54,32  L 54,31  L 53,31  Z  " style="fill:rgb(98, 56, 29); fill-opacity:1.000; stroke:none;" />
 <path d="  M 53,44  L 54,44  L 54,39  L 53,39  Z  " style="fill:rgb(98, 56, 29); fill-opacity:1.000; stroke:none;" />
 <path d="  M 54,47  L 54,46  L 53,46  L 53,47  Z  " style="fill:rgb(98, 56, 29); fill-opacity:1.000; stroke:none;" />
 <path d="  M 54,52  L 54,54  L 55,54  L 55,53  L 56,53  L 56,51  L 55,51  L 55,52  Z  " style="fill:rgb(98, 56, 29); fill-opacity:1.000; stroke:none;" />
 <path d="  M 54,55  L 54,57  L 55,57  L 55,55  Z  " style="fill:rgb(98, 56, 29); fill-opacity:1.000; stroke:none;" />
 <path d="  M 57,29  L 56,29  L 56,28  L 55,28  L 55,30  L 56,30  L 56,32  L 55,32  L 55,39  L 56,39  L 56,33  L 57,33  Z  " style="fill:rgb(98, 56, 29); fill-opacity:1.000; stroke:none;" />
 <path d="  M 56,47  L 56,46  L 55,46  L 55,47  Z  " style="fill:rgb(98, 56, 29); fill-opacity:1.000; stroke:none;" />
 <path d="  M 55,58  L 56,58  L 56,57  L 55,57  Z  " style="fill:rgb(98, 56, 29); fill-opacity:1.000; stroke:none;" />
 <path d="  M 56,59  L 55,59  L 55,60  L 56,60  L 56,61  L 57,61  L 57,58  L 56,58  Z  " style="fill:rgb(98, 56, 29); fill-opacity:1.000; stroke:none;" />
 <path d="  M 57,44  L 57,43  L 56,43  L 56,44  Z  " style="fill:rgb(98, 56, 29); fill-opacity:1.000; stroke:none;" />
 <path d="  M 57,49  L 57,48  L 56,48  L 56,49  Z  " style="fill:rgb(98, 56, 29); fill-opacity:1.000; stroke:none;" />
 <path d="  M 57,55  L 56,55  L 56,57  L 57,57  Z  " style="fill:rgb(98, 56, 29); fill-opacity:1.000; stroke:none;" />
 <path d="  M 57,36  L 58,36  L 58,33  L 57,33  Z  " style="fill:rgb(98, 56, 29); fill-opacity:1.000; stroke:none;" />
 <path d="  M 58,51  L 59,51  L 59,50  L 57,50  L 57,52  L 58,52  Z  " style="fill:rgb(98, 56, 29); fill-opacity:1.000; stroke:none;" />
 <path d="  M 58,62  L 57,62  L 57,64  L 58,64  Z  " style="fill:rgb(98, 56, 29); fill-opacity:1.000; stroke:none;" />
 <path d="  M 58,33  L 59,33  L 59,28  L 58,28  Z  " style="fill:rgb(98, 56, 29); fill-opacity:1.000; stroke:none;" />
 <path d="  M 58,40  L 59,40  L 59,38  L 58,38  Z  " style="fill:rgb(98, 56, 29); fill-opacity:1.000; stroke:none;" />
 <path d="  M 59,55  L 59,52  L 58,52  L 58,55  Z  " style="fill:rgb(98, 56, 29); fill-opacity:1.000; stroke:none;" />
 <path d="  M 59,59  L 58,59  L 58,62  L 59,62  Z  " style="fill:rgb(98, 56, 29); fill-opacity:1.000; stroke:none;" />
 <path d="  M 60,42  L 59,42  L 59,44  L 60,44  Z  " style="fill:rgb(98, 56, 29); fill-opacity:1.000; stroke:none;" />
 <path d="  M 60,45  L 59,45  L 59,46  L 60,46  Z  " style="fill:rgb(98, 56, 29); fill-opacity:1.000; stroke:none;" />
 <path d="  M 59,63  L 59,64  L 60,64  L 60,63  Z  " style="fill:rgb(98, 56, 29); fill-opacity:1.000; stroke:none;" />
 <path d="  M 61,28  L 60,28  L 60,29  L 61,29  Z  " style="fill:rgb(98, 56, 29); fill-opacity:1.000; stroke:none;" />
 <path d="  M 61,36  L 62,36  L 62,31  L 61,31  L 61,33  L 60,33  L 60,34  L 61,34  Z  " style="fill:rgb(98, 56, 29); fill-opacity:1.000; stroke:none;" />
 <path d="  M 61,36  L 60,36  L 60,37  L 61,37  Z  " style="fill:rgb(98, 56, 29); fill-opacity:1.000; stroke:none;" />
 <path d="  M 61,48  L 61,47  L 60,47  L 60,48  Z  " style="fill:rgb(98, 56, 29); fill-opacity:1.000; stroke:none;" />
 <path d="  M 60,51  L 61,51  L 61,50  L 60,50  Z  " style="fill:rgb(98, 56, 29); fill-opacity:1.000; stroke:none;" />
 <path d="  M 60,54  L 60,55  L 61,55  L 61,54  Z  " style="fill:rgb(98, 56, 29); fill-opacity:1.000; stroke:none;" />
 <path d="  M 61,62  L 61,61  L 60,61  L 60,62  Z  " style="fill:rgb(98, 56, 29); fill-opacity:1.000; stroke:none;" />
 <path d="  M 62,58  L 62,59  L 61,59  L 61,60  L 63,60  L 63,58  Z  " style="fill:rgb(98, 56, 29); fill-opacity:1.000; stroke:none;" />
 <path d="  M 62,40  L 63,40  L 63,39  L 62,39  Z  " style="fill:rgb(98, 56, 29); fill-opacity:1.000; stroke:none;" />
 <path d="  M 62,44  L 63,44  L 63,41  L 62,41  Z  " style="fill:rgb(98, 56, 29); fill-opacity:1.000; stroke:none;" />
 <path d="  M 62,55  L 62,56  L 63,56  L 63,55  Z  " style="fill:rgb(98, 56, 29); fill-opacity:1.000; stroke:none;" />
 <path d="  M 64,31  L 64,28  L 63,28  L 63,31  Z  " style="fill:rgb(98, 56, 29); fill-opacity:1.000; stroke:none;" />
 <path d="  M 64,36  L 63,36  L 63,39  L 64,39  Z  " style="fill:rgb(98, 56, 29); fill-opacity:1.000; stroke:none;" />
 <path d="  M 64,47  L 63,47  L 63,48  L 64,48  Z  " style="fill:rgb(98, 56, 29); fill-opacity:1.000; stroke:none;" />
 <path d="  M 64,61  L 63,61  L 63,64  L 64,64  Z  " style="fill:rgb(98, 56, 29); fill-opacity:1.000; stroke:none;" />
 <path d="  M 0,34  L 2,34  L 2,35  L 3,35  L 3,29  L 2,29  L 2,33  L 1,33  L 1,29  L 0,29  Z  " style="fill:rgb(85, 45, 20); fill-opacity:1.000; stroke:none;" />
 <path d="  M 1,49  L 1,48  L 2,48  L 2,42  L 1,42  L 1,47  L 0,47  L 0,49  Z  " style="fill:rgb(85, 45, 20); fill-opacity:1.000; stroke:none;" />
 <path d="  M 0,56  L 1,56  L 1,52  L 0,52  Z  " style="fill:rgb(85, 45, 20); fill-opacity:1.000; stroke:none;" />
 <path d="  M 2,35  L 1,35  L 1,41  L 2,41  Z  " style="fill:rgb(85, 45, 20); fill-opacity:1.000; stroke:none;" />
 <path d="  M 1,61  L 2,61  L 2,56  L 1,56  Z  " style="fill:rgb(85, 45, 20); fill-opacity:1.000; stroke:none;" />
 <path d="  M 3,48  L 2,48  L 2,52  L 3,52  Z  " style="fill:rgb(85, 45, 20); fill-opacity:1.000; stroke:none;" />
 <path d="  M 3,53  L 2,53  L 2,54  L 3,54  Z  " style="fill:rgb(85, 45, 20); fill-opacity:1.000; stroke:none;" />
 <path d="  M 3,62  L 2,62  L 2,64  L 3,64  Z  " style="fill:rgb(85, 45, 20); fill-opacity:1.000; stroke:none;" />
 <path d="  M 4,39  L 3,39  L 3,41  L 4,41  Z  " style="fill:rgb(85, 45, 20); fill-opacity:1.000; stroke:none;" />
 <path d="  M 3,48  L 4,48  L 4,45  L 5,45  L 5,44  L 3,44  Z  " style="fill:rgb(85, 45, 20); fill-opacity:1.000; stroke:none;" />
 <path d="  M 3,54  L 3,55  L 4,55  L 4,54  Z  " style="fill:rgb(85, 45, 20); fill-opacity:1.000; stroke:none;" />
 <path d="  M 4,59  L 3,59  L 3,62  L 4,62  Z  " style="fill:rgb(85, 45, 20); fill-opacity:1.000; stroke:none;" />
 <path d="  M 4,39  L 6,39  L 6,38  L 5,38  L 5,34  L 4,34  Z  " style="fill:rgb(85, 45, 20); fill-opacity:1.000; stroke:none;" />
 <path d="  M 4,59  L 5,59  L 5,57  L 4,57  Z  " style="fill:rgb(85, 45, 20); fill-opacity:1.000; stroke:none;" />
 <path d="  M 6,28  L 5,28  L 5,31  L 6,31  Z  " style="fill:rgb(85, 45, 20); fill-opacity:1.000; stroke:none;" />
 <path d="  M 6,42  L 6,45  L 7,45  L 7,42  Z  " style="fill:rgb(85, 45, 20); fill-opacity:1.000; stroke:none;" />
 <path d="  M 8,49  L 9,49  L 9,51  L 10,51  L 10,48  L 9,48  L 9,44  L 8,44  L 8,48  L 7,48  L 7,50  L 6,50  L 6,54  L 7,54  L 7,60  L 8,60  Z  " style="fill:rgb(85, 45, 20); fill-opacity:1.000; stroke:none;" />
 <path d="  M 8,30  L 7,30  L 7,35  L 8,35  Z  " style="fill:rgb(85, 45, 20); fill-opacity:1.000; stroke:none;" />
 <path d="  M 8,63  L 9,63  L 9,61  L 8,61  Z  " style="fill:rgb(85, 45, 20); fill-opacity:1.000; stroke:none;" />
 <path d="  M 9,36  L 10,36  L 10,35  L 9,35  Z  " style="fill:rgb(85, 45, 20); fill-opacity:1.000; stroke:none;" />
 <path d="  M 9,42  L 10,42  L 10,39  L 9,39  Z  " style="fill:rgb(85, 45, 20); fill-opacity:1.000; stroke:none;" />
 <path d="  M 10,57  L 9,57  L 9,59  L 10,59  Z  " style="fill:rgb(85, 45, 20); fill-opacity:1.000; stroke:none;" />
 <path d="  M 11,30  L 12,30  L 12,28  L 11,28  L 11,29  L 10,29  L 10,31  L 11,31  Z  " style="fill:rgb(85, 45, 20); fill-opacity:1.000; stroke:none;" />
 <path d="  M 10,38  L 11,38  L 11,36  L 10,36  Z  " style="fill:rgb(85, 45, 20); fill-opacity:1.000; stroke:none;" />
 <path d="  M 11,52  L 10,52  L 10,55  L 11,55  Z  " style="fill:rgb(85, 45, 20); fill-opacity:1.000; stroke:none;" />
 <path d="  M 11,61  L 11,59  L 10,59  L 10,61  Z  " style="fill:rgb(85, 45, 20); fill-opacity:1.000; stroke:none;" />
 <path d="  M 11,36  L 12,36  L 12,34  L 11,34  Z  " style="fill:rgb(85, 45, 20); fill-opacity:1.000; stroke:none;" />
 <path d="  M 13,40  L 13,39  L 15,39  L 15,40  L 17,40  L 17,38  L 14,38  L 14,37  L 13,37  L 13,36  L 12,36  L 12,39  L 11,39  L 11,41  L 12,41  L 12,40  Z  " style="fill:rgb(85, 45, 20); fill-opacity:1.000; stroke:none;" />
 <path d="  M 11,44  L 11,49  L 12,49  L 12,44  Z  " style="fill:rgb(85, 45, 20); fill-opacity:1.000; stroke:none;" />
 <path d="  M 12,42  L 12,44  L 13,44  L 13,43  L 16,43  L 16,42  Z  " style="fill:rgb(85, 45, 20); fill-opacity:1.000; stroke:none;" />
 <path d="  M 14,41  L 14,40  L 13,40  L 13,41  Z  " style="fill:rgb(85, 45, 20); fill-opacity:1.000; stroke:none;" />
 <path d="  M 17,37  L 17,36  L 15,36  L 15,37  Z  " style="fill:rgb(85, 45, 20); fill-opacity:1.000; stroke:none;" />
 <path d="  M 17,42  L 18,42  L 18,43  L 16,43  L 16,44  L 19,44  L 19,43  L 20,43  L 20,44  L 24,44  L 24,43  L 21,43  L 21,42  L 19,42  L 19,41  L 17,41  Z  " style="fill:rgb(85, 45, 20); fill-opacity:1.000; stroke:none;" />
 <path d="  M 18,39  L 18,40  L 22,40  L 22,39  Z  " style="fill:rgb(85, 45, 20); fill-opacity:1.000; stroke:none;" />
 <path d="  M 26,41  L 26,40  L 22,40  L 22,41  Z  " style="fill:rgb(85, 45, 20); fill-opacity:1.000; stroke:none;" />
 <path d="  M 24,37  L 24,38  L 25,38  L 25,37  Z  " style="fill:rgb(85, 45, 20); fill-opacity:1.000; stroke:none;" />
 <path d="  M 24,42  L 24,43  L 27,43  L 27,42  Z  " style="fill:rgb(85, 45, 20); fill-opacity:1.000; stroke:none;" />
 <path d="  M 27,37  L 27,36  L 25,36  L 25,37  Z  " style="fill:rgb(85, 45, 20); fill-opacity:1.000; stroke:none;" />
 <path d="  M 28,39  L 26,39  L 26,40  L 28,40  Z  " style="fill:rgb(85, 45, 20); fill-opacity:1.000; stroke:none;" />
 <path d="  M 29,42  L 29,41  L 27,41  L 27,42  Z  " style="fill:rgb(85, 45, 20); fill-opacity:1.000; stroke:none;" />
 <path d="  M 31,44  L 31,43  L 28,43  L 28,44  Z  " style="fill:rgb(85, 45, 20); fill-opacity:1.000; stroke:none;" />
 <path d="  M 29,41  L 32,41  L 32,40  L 29,40  Z  " style="fill:rgb(85, 45, 20); fill-opacity:1.000; stroke:none;" />
 <path d="  M 31,38  L 31,37  L 30,37  L 30,38  Z  " style="fill:rgb(85, 45, 20); fill-opacity:1.000; stroke:none;" />
 <path d="  M 39,39  L 39,38  L 36,38  L 36,37  L 34,37  L 34,38  L 31,38  L 31,39  Z  " style="fill:rgb(85, 45, 20); fill-opacity:1.000; stroke:none;" />
 <path d="  M 35,44  L 38,44  L 38,43  L 35,43  Z  " style="fill:rgb(85, 45, 20); fill-opacity:1.000; stroke:none;" />
 <path d="  M 40,37  L 40,36  L 36,36  L 36,37  Z  " style="fill:rgb(85, 45, 20); fill-opacity:1.000; stroke:none;" />
 <path d="  M 41,41  L 41,40  L 40,40  L 40,41  Z  " style="fill:rgb(85, 45, 20); fill-opacity:1.000; stroke:none;" />
 <path d="  M 42,42  L 42,43  L 41,43  L 41,44  L 43,44  L 43,43  L 44,43  L 44,42  Z  " style="fill:rgb(85, 45, 20); fill-opacity:1.000; stroke:none;" />
 <path d="  M 45,37  L 42,37  L 42,38  L 45,38  Z  " style="fill:rgb(85, 45, 20); fill-opacity:1.000; stroke:none;" />
 <path d="  M 42,41  L 43,41  L 43,40  L 42,40  Z  " style="fill:rgb(85, 45, 20); fill-opacity:1.000; stroke:none;" />
 <path d="  M 44,39  L 44,40  L 45,40  L 45,39  Z  " style="fill:rgb(85, 45, 20); fill-opacity:1.000; stroke:none;" />
 <path d="  M 49,44  L 49,43  L 44,43  L 44,44  Z  " style="fill:rgb(85, 45, 20); fill-opacity:1.000; stroke:none;" />
 <path d="  M 46,40  L 46,41  L 47,41  L 47,40  Z  " style="fill:rgb(85, 45, 20); fill-opacity:1.000; stroke:none;" />
 <path d="  M 49,43  L 51,43  L 51,42  L 50,42  L 50,41  L 49,41  Z  " style="fill:rgb(85, 45, 20); fill-opacity:1.000; stroke:none;" />
 <path d="  M 50,36  L 50,39  L 51,39  L 51,40  L 50,40  L 50,41  L 52,41  L 52,39  L 54,39  L 54,38  L 53,38  L 53,37  L 52,37  L 52,36  Z  M 51,38  L 51,37  L 52,37  L 52,38  Z  " style="fill:rgb(85, 45, 20); fill-opacity:1.000; stroke:none;" />
 <path d="  M 52,31  L 52,32  L 53,32  L 53,31  Z  " style="fill:rgb(85, 45, 20); fill-opacity:1.000; stroke:none;" />
 <path d="  M 52,44  L 53,44  L 53,41  L 52,41  Z  " style="fill:rgb(85, 45, 20); fill-opacity:1.000; stroke:none;" />
 <path d="  M 53,62  L 54,62  L 54,64  L 55,64  L 55,61  L 54,61  L 54,55  L 55,55  L 55,54  L 54,54  L 54,52  L 53,52  L 53,49  L 52,49  L 52,53  L 53,53  L 53,57  L 52,57  L 52,58  L 53,58  Z  " style="fill:rgb(85, 45, 20); fill-opacity:1.000; stroke:none;" />
 <path d="  M 53,62  L 52,62  L 52,63  L 53,63  Z  " style="fill:rgb(85, 45, 20); fill-opacity:1.000; stroke:none;" />
 <path d="  M 53,30  L 53,31  L 54,31  L 54,32  L 55,32  L 55,30  Z  " style="fill:rgb(85, 45, 20); fill-opacity:1.000; stroke:none;" />
 <path d="  M 54,32  L 53,32  L 53,37  L 54,37  Z  " style="fill:rgb(85, 45, 20); fill-opacity:1.000; stroke:none;" />
 <path d="  M 54,44  L 53,44  L 53,46  L 54,46  Z  " style="fill:rgb(85, 45, 20); fill-opacity:1.000; stroke:none;" />
 <path d="  M 55,47  L 54,47  L 54,48  L 55,48  Z  " style="fill:rgb(85, 45, 20); fill-opacity:1.000; stroke:none;" />
 <path d="  M 54,50  L 54,52  L 55,52  L 55,50  Z  " style="fill:rgb(85, 45, 20); fill-opacity:1.000; stroke:none;" />
 <path d="  M 56,55  L 55,55  L 55,57  L 56,57  Z  " style="fill:rgb(85, 45, 20); fill-opacity:1.000; stroke:none;" />
 <path d="  M 58,33  L 58,28  L 56,28  L 56,29  L 57,29  L 57,33  Z  " style="fill:rgb(85, 45, 20); fill-opacity:1.000; stroke:none;" />
 <path d="  M 57,33  L 56,33  L 56,38  L 57,38  Z  " style="fill:rgb(85, 45, 20); fill-opacity:1.000; stroke:none;" />
 <path d="  M 56,55  L 57,55  L 57,53  L 56,53  Z  " style="fill:rgb(85, 45, 20); fill-opacity:1.000; stroke:none;" />
 <path d="  M 57,64  L 57,62  L 56,62  L 56,64  Z  " style="fill:rgb(85, 45, 20); fill-opacity:1.000; stroke:none;" />
 <path d="  M 58,40  L 58,39  L 57,39  L 57,43  L 58,43  L 58,41  L 59,41  L 59,42  L 60,42  L 60,43  L 61,43  L 61,41  L 60,41  L 60,36  L 59,36  L 59,40  Z  " style="fill:rgb(85, 45, 20); fill-opacity:1.000; stroke:none;" />
 <path d="  M 58,47  L 57,47  L 57,50  L 58,50  Z  " style="fill:rgb(85, 45, 20); fill-opacity:1.000; stroke:none;" />
 <path d="  M 57,58  L 57,62  L 58,62  L 58,58  Z  " style="fill:rgb(85, 45, 20); fill-opacity:1.000; stroke:none;" />
 <path d="  M 59,34  L 59,33  L 58,33  L 58,34  Z  " style="fill:rgb(85, 45, 20); fill-opacity:1.000; stroke:none;" />
 <path d="  M 60,46  L 59,46  L 59,44  L 58,44  L 58,47  L 59,47  L 59,50  L 60,50  Z  " style="fill:rgb(85, 45, 20); fill-opacity:1.000; stroke:none;" />
 <path d="  M 59,52  L 59,51  L 58,51  L 58,52  Z  " style="fill:rgb(85, 45, 20); fill-opacity:1.000; stroke:none;" />
 <path d="  M 59,64  L 59,63  L 60,63  L 60,62  L 58,62  L 58,64  Z  " style="fill:rgb(85, 45, 20); fill-opacity:1.000; stroke:none;" />
 <path d="  M 61,29  L 60,29  L 60,28  L 59,28  L 59,30  L 60,30  L 60,32  L 61,32  Z  " style="fill:rgb(85, 45, 20); fill-opacity:1.000; stroke:none;" />
 <path d="  M 61,34  L 60,34  L 60,36  L 61,36  Z  " style="fill:rgb(85, 45, 20); fill-opacity:1.000; stroke:none;" />
 <path d="  M 60,60  L 61,60  L 61,55  L 60,55  Z  " style="fill:rgb(85, 45, 20); fill-opacity:1.000; stroke:none;" />
 <path d="  M 61,38  L 62,38  L 62,36  L 61,36  Z  " style="fill:rgb(85, 45, 20); fill-opacity:1.000; stroke:none;" />
 <path d="  M 61,48  L 62,48  L 62,46  L 61,46  Z  " style="fill:rgb(85, 45, 20); fill-opacity:1.000; stroke:none;" />
 <path d="  M 62,54  L 61,54  L 61,55  L 62,55  Z  " style="fill:rgb(85, 45, 20); fill-opacity:1.000; stroke:none;" />
 <path d="  M 62,64  L 62,63  L 61,63  L 61,64  Z  " style="fill:rgb(85, 45, 20); fill-opacity:1.000; stroke:none;" />
 <path d="  M 64,31  L 63,31  L 63,28  L 62,28  L 62,36  L 63,36  L 63,34  L 64,34  Z  " style="fill:rgb(85, 45, 20); fill-opacity:1.000; stroke:none;" />
 <path d="  M 62,40  L 62,41  L 63,41  L 63,40  Z  " style="fill:rgb(85, 45, 20); fill-opacity:1.000; stroke:none;" />
 <path d="  M 63,46  L 63,45  L 64,45  L 64,43  L 63,43  L 63,44  L 62,44  L 62,46  Z  " style="fill:rgb(85, 45, 20); fill-opacity:1.000; stroke:none;" />
 <path d="  M 62,51  L 63,51  L 63,55  L 64,55  L 64,50  L 63,50  L 63,49  L 62,49  Z  " style="fill:rgb(85, 45, 20); fill-opacity:1.000; stroke:none;" />
 <path d="  M 63,58  L 63,56  L 62,56  L 62,58  Z  " style="fill:rgb(85, 45, 20); fill-opacity:1.000; stroke:none;" />
 <path d="  M 64,59  L 63,59  L 63,60  L 62,60  L 62,63  L 63,63  L 63,61  L 64,61  Z  " style="fill:rgb(85, 45, 20); fill-opacity:1.000; stroke:none;" />
 <path d="  M 1,35  L 1,34  L 0,34  L 0,35  Z  " style="fill:rgb(92, 50, 24); fill-opacity:1.000; stroke:none;" />
 <path d="  M 0,43  L 1,43  L 1,37  L 0,37  Z  " style="fill:rgb(92, 50, 24); fill-opacity:1.000; stroke:none;" />
 <path d="  M 0,52  L 1,52  L 1,49  L 0,49  Z  " style="fill:rgb(92, 50, 24); fill-opacity:1.000; stroke:none;" />
 <path d="  M 2,52  L 1,52  L 1,55  L 2,55  Z  " style="fill:rgb(92, 50, 24); fill-opacity:1.000; stroke:none;" />
 <path d="  M 2,61  L 1,61  L 1,64  L 2,64  L 2,62  L 3,62  L 3,58  L 2,58  Z  " style="fill:rgb(92, 50, 24); fill-opacity:1.000; stroke:none;" />
 <path d="  M 4,53  L 5,53  L 5,47  L 4,47  L 4,48  L 3,48  L 3,49  L 4,49  Z  " style="fill:rgb(92, 50, 24); fill-opacity:1.000; stroke:none;" />
 <path d="  M 6,39  L 5,39  L 5,47  L 6,47  Z  " style="fill:rgb(92, 50, 24); fill-opacity:1.000; stroke:none;" />
 <path d="  M 6,55  L 5,55  L 5,60  L 6,60  Z  " style="fill:rgb(92, 50, 24); fill-opacity:1.000; stroke:none;" />
 <path d="  M 6,31  L 6,32  L 7,32  L 7,31  Z  " style="fill:rgb(92, 50, 24); fill-opacity:1.000; stroke:none;" />
 <path d="  M 6,34  L 6,38  L 7,38  L 7,34  Z  " style="fill:rgb(92, 50, 24); fill-opacity:1.000; stroke:none;" />
 <path d="  M 7,64  L 9,64  L 9,63  L 8,63  L 8,61  L 7,61  Z  " style="fill:rgb(92, 50, 24); fill-opacity:1.000; stroke:none;" />
 <path d="  M 8,42  L 9,42  L 9,35  L 8,35  Z  " style="fill:rgb(92, 50, 24); fill-opacity:1.000; stroke:none;" />
 <path d="  M 9,33  L 9,35  L 10,35  L 10,33  Z  " style="fill:rgb(92, 50, 24); fill-opacity:1.000; stroke:none;" />
 <path d="  M 9,46  L 10,46  L 10,44  L 11,44  L 11,42  L 9,42  Z  " style="fill:rgb(92, 50, 24); fill-opacity:1.000; stroke:none;" />
 <path d="  M 9,57  L 10,57  L 10,52  L 9,52  Z  " style="fill:rgb(92, 50, 24); fill-opacity:1.000; stroke:none;" />
 <path d="  M 10,59  L 9,59  L 9,61  L 10,61  Z  " style="fill:rgb(92, 50, 24); fill-opacity:1.000; stroke:none;" />
 <path d="  M 10,62  L 9,62  L 9,63  L 10,63  Z  " style="fill:rgb(92, 50, 24); fill-opacity:1.000; stroke:none;" />
 <path d="  M 11,31  L 10,31  L 10,33  L 11,33  Z  " style="fill:rgb(92, 50, 24); fill-opacity:1.000; stroke:none;" />
 <path d="  M 11,46  L 10,46  L 10,48  L 11,48  Z  " style="fill:rgb(92, 50, 24); fill-opacity:1.000; stroke:none;" />
 <path d="  M 10,52  L 11,52  L 11,50  L 10,50  Z  " style="fill:rgb(92, 50, 24); fill-opacity:1.000; stroke:none;" />
 <path d="  M 12,39  L 12,37  L 11,37  L 11,39  Z  " style="fill:rgb(92, 50, 24); fill-opacity:1.000; stroke:none;" />
 <path d="  M 12,40  L 12,41  L 11,41  L 11,42  L 14,42  L 14,41  L 13,41  L 13,40  Z  " style="fill:rgb(92, 50, 24); fill-opacity:1.000; stroke:none;" />
 <path d="  M 15,38  L 15,37  L 14,37  L 14,38  Z  " style="fill:rgb(92, 50, 24); fill-opacity:1.000; stroke:none;" />
 <path d="  M 19,41  L 19,40  L 14,40  L 14,41  Z  " style="fill:rgb(92, 50, 24); fill-opacity:1.000; stroke:none;" />
 <path d="  M 17,38  L 21,38  L 21,37  L 17,37  Z  " style="fill:rgb(92, 50, 24); fill-opacity:1.000; stroke:none;" />
 <path d="  M 20,41  L 20,42  L 24,42  L 24,41  Z  " style="fill:rgb(92, 50, 24); fill-opacity:1.000; stroke:none;" />
 <path d="  M 23,37  L 23,38  L 21,38  L 21,39  L 27,39  L 27,38  L 24,38  L 24,36  L 22,36  L 22,37  Z  " style="fill:rgb(92, 50, 24); fill-opacity:1.000; stroke:none;" />
 <path d="  M 27,44  L 27,43  L 26,43  L 26,44  Z  " style="fill:rgb(92, 50, 24); fill-opacity:1.000; stroke:none;" />
 <path d="  M 31,37  L 31,36  L 27,36  L 27,37  Z  " style="fill:rgb(92, 50, 24); fill-opacity:1.000; stroke:none;" />
 <path d="  M 27,42  L 27,43  L 31,43  L 31,42  Z  " style="fill:rgb(92, 50, 24); fill-opacity:1.000; stroke:none;" />
 <path d="  M 29,39  L 29,40  L 32,40  L 32,39  Z  " style="fill:rgb(92, 50, 24); fill-opacity:1.000; stroke:none;" />
 <path d="  M 31,41  L 31,42  L 32,42  L 32,41  Z  " style="fill:rgb(92, 50, 24); fill-opacity:1.000; stroke:none;" />
 <path d="  M 34,38  L 34,37  L 32,37  L 32,38  Z  " style="fill:rgb(92, 50, 24); fill-opacity:1.000; stroke:none;" />
 <path d="  M 34,41  L 34,40  L 32,40  L 32,41  Z  " style="fill:rgb(92, 50, 24); fill-opacity:1.000; stroke:none;" />
 <path d="  M 35,43  L 32,43  L 32,44  L 35,44  Z  " style="fill:rgb(92, 50, 24); fill-opacity:1.000; stroke:none;" />
 <path d="  M 36,40  L 36,41  L 34,41  L 34,42  L 37,42  L 37,41  L 40,41  L 40,40  Z  " style="fill:rgb(92, 50, 24); fill-opacity:1.000; stroke:none;" />
 <path d="  M 39,42  L 39,43  L 42,43  L 42,42  Z  " style="fill:rgb(92, 50, 24); fill-opacity:1.000; stroke:none;" />
 <path d="  M 40,39  L 40,40  L 44,40  L 44,39  Z  " style="fill:rgb(92, 50, 24); fill-opacity:1.000; stroke:none;" />
 <path d="  M 46,37  L 46,36  L 41,36  L 41,37  Z  " style="fill:rgb(92, 50, 24); fill-opacity:1.000; stroke:none;" />
 <path d="  M 42,41  L 42,42  L 45,42  L 45,41  Z  " style="fill:rgb(92, 50, 24); fill-opacity:1.000; stroke:none;" />
 <path d="  M 50,39  L 50,37  L 47,37  L 47,38  L 44,38  L 44,39  L 48,39  L 48,38  L 49,38  L 49,40  L 51,40  L 51,39  Z  " style="fill:rgb(92, 50, 24); fill-opacity:1.000; stroke:none;" />
 <path d="  M 48,43  L 49,43  L 49,40  L 47,40  L 47,41  L 48,41  Z  " style="fill:rgb(92, 50, 24); fill-opacity:1.000; stroke:none;" />
 <path d="  M 51,44  L 51,43  L 49,43  L 49,44  Z  " style="fill:rgb(92, 50, 24); fill-opacity:1.000; stroke:none;" />
 <path d="  M 52,37  L 51,37  L 51,38  L 52,38  Z  " style="fill:rgb(92, 50, 24); fill-opacity:1.000; stroke:none;" />
 <path d="  M 52,41  L 51,41  L 51,43  L 52,43  Z  " style="fill:rgb(92, 50, 24); fill-opacity:1.000; stroke:none;" />
 <path d="  M 53,34  L 52,34  L 52,37  L 53,37  Z  " style="fill:rgb(92, 50, 24); fill-opacity:1.000; stroke:none;" />
 <path d="  M 53,39  L 52,39  L 52,41  L 53,41  Z  " style="fill:rgb(92, 50, 24); fill-opacity:1.000; stroke:none;" />
 <path d="  M 54,37  L 53,37  L 53,38  L 54,38  Z  " style="fill:rgb(92, 50, 24); fill-opacity:1.000; stroke:none;" />
 <path d="  M 55,35  L 55,32  L 54,32  L 54,35  Z  " style="fill:rgb(92, 50, 24); fill-opacity:1.000; stroke:none;" />
 <path d="  M 55,39  L 54,39  L 54,45  L 55,45  Z  " style="fill:rgb(92, 50, 24); fill-opacity:1.000; stroke:none;" />
 <path d="  M 55,46  L 54,46  L 54,47  L 55,47  Z  " style="fill:rgb(92, 50, 24); fill-opacity:1.000; stroke:none;" />
 <path d="  M 56,58  L 54,58  L 54,59  L 56,59  Z  " style="fill:rgb(92, 50, 24); fill-opacity:1.000; stroke:none;" />
 <path d="  M 55,32  L 56,32  L 56,30  L 55,30  Z  " style="fill:rgb(92, 50, 24); fill-opacity:1.000; stroke:none;" />
 <path d="  M 56,47  L 55,47  L 55,51  L 56,51  Z  " style="fill:rgb(92, 50, 24); fill-opacity:1.000; stroke:none;" />
 <path d="  M 56,60  L 55,60  L 55,61  L 56,61  Z  " style="fill:rgb(92, 50, 24); fill-opacity:1.000; stroke:none;" />
 <path d="  M 57,43  L 57,38  L 56,38  L 56,43  Z  " style="fill:rgb(92, 50, 24); fill-opacity:1.000; stroke:none;" />
 <path d="  M 57,57  L 56,57  L 56,58  L 57,58  Z  " style="fill:rgb(92, 50, 24); fill-opacity:1.000; stroke:none;" />
 <path d="  M 57,61  L 56,61  L 56,62  L 57,62  Z  " style="fill:rgb(92, 50, 24); fill-opacity:1.000; stroke:none;" />
 <path d="  M 58,36  L 57,36  L 57,37  L 58,37  Z  " style="fill:rgb(92, 50, 24); fill-opacity:1.000; stroke:none;" />
 <path d="  M 57,43  L 57,47  L 58,47  L 58,43  Z  " style="fill:rgb(92, 50, 24); fill-opacity:1.000; stroke:none;" />
 <path d="  M 59,36  L 59,34  L 58,34  L 58,36  Z  " style="fill:rgb(92, 50, 24); fill-opacity:1.000; stroke:none;" />
 <path d="  M 58,47  L 58,50  L 59,50  L 59,47  Z  " style="fill:rgb(92, 50, 24); fill-opacity:1.000; stroke:none;" />
 <path d="  M 61,54  L 61,51  L 60,51  L 60,50  L 59,50  L 59,55  L 58,55  L 58,57  L 59,57  L 59,62  L 60,62  L 60,54  Z  " style="fill:rgb(92, 50, 24); fill-opacity:1.000; stroke:none;" />
 <path d="  M 60,32  L 60,33  L 61,33  L 61,32  Z  " style="fill:rgb(92, 50, 24); fill-opacity:1.000; stroke:none;" />
 <path d="  M 61,62  L 60,62  L 60,64  L 61,64  Z  " style="fill:rgb(92, 50, 24); fill-opacity:1.000; stroke:none;" />
 <path d="  M 62,38  L 61,38  L 61,40  L 62,40  Z  " style="fill:rgb(92, 50, 24); fill-opacity:1.000; stroke:none;" />
 <path d="  M 62,46  L 62,43  L 61,43  L 61,46  Z  " style="fill:rgb(92, 50, 24); fill-opacity:1.000; stroke:none;" />
 <path d="  M 62,49  L 62,48  L 61,48  L 61,49  Z  " style="fill:rgb(92, 50, 24); fill-opacity:1.000; stroke:none;" />
 <path d="  M 63,51  L 62,51  L 62,55  L 63,55  Z  " style="fill:rgb(92, 50, 24); fill-opacity:1.000; stroke:none;" />
 <path d="  M 64,48  L 63,48  L 63,49  L 64,49  Z  " style="fill:rgb(92, 50, 24); fill-opacity:1.000; stroke:none;" />
 <path d="  M 63,55  L 63,56  L 64,56  L 64,55  Z  " style="fill:rgb(92, 50, 24); fill-opacity:1.000; stroke:none;" />
 <path d="  M 0,37  L 1,37  L 1,35  L 0,35  Z  " style="fill:rgb(106, 59, 29); fill-opacity:1.000; stroke:none;" />
 <path d="  M 2,30  L 1,30  L 1,33  L 2,33  Z  " style="fill:rgb(106, 59, 29); fill-opacity:1.000; stroke:none;" />
 <path d="  M 1,42  L 2,42  L 2,41  L 1,41  Z  " style="fill:rgb(106, 59, 29); fill-opacity:1.000; stroke:none;" />
 <path d="  M 2,52  L 2,50  L 1,50  L 1,52  Z  " style="fill:rgb(106, 59, 29); fill-opacity:1.000; stroke:none;" />
 <path d="  M 1,55  L 1,56  L 2,56  L 2,55  Z  " style="fill:rgb(106, 59, 29); fill-opacity:1.000; stroke:none;" />
 <path d="  M 2,36  L 2,37  L 3,37  L 3,36  Z  " style="fill:rgb(106, 59, 29); fill-opacity:1.000; stroke:none;" />
 <path d="  M 3,41  L 3,38  L 2,38  L 2,41  Z  " style="fill:rgb(106, 59, 29); fill-opacity:1.000; stroke:none;" />
 <path d="  M 3,48  L 3,44  L 2,44  L 2,48  Z  " style="fill:rgb(106, 59, 29); fill-opacity:1.000; stroke:none;" />
 <path d="  M 3,56  L 2,56  L 2,57  L 3,57  Z  " style="fill:rgb(106, 59, 29); fill-opacity:1.000; stroke:none;" />
 <path d="  M 4,41  L 3,41  L 3,44  L 4,44  Z  " style="fill:rgb(106, 59, 29); fill-opacity:1.000; stroke:none;" />
 <path d="  M 3,52  L 4,52  L 4,49  L 3,49  Z  " style="fill:rgb(106, 59, 29); fill-opacity:1.000; stroke:none;" />
 <path d="  M 5,30  L 4,30  L 4,34  L 5,34  Z  " style="fill:rgb(106, 59, 29); fill-opacity:1.000; stroke:none;" />
 <path d="  M 4,57  L 5,57  L 5,55  L 4,55  Z  " style="fill:rgb(106, 59, 29); fill-opacity:1.000; stroke:none;" />
 <path d="  M 4,60  L 5,60  L 5,59  L 4,59  Z  " style="fill:rgb(106, 59, 29); fill-opacity:1.000; stroke:none;" />
 <path d="  M 5,52  L 5,53  L 6,53  L 6,52  Z  " style="fill:rgb(106, 59, 29); fill-opacity:1.000; stroke:none;" />
 <path d="  M 7,33  L 7,32  L 6,32  L 6,33  Z  " style="fill:rgb(106, 59, 29); fill-opacity:1.000; stroke:none;" />
 <path d="  M 7,41  L 8,41  L 8,40  L 6,40  L 6,42  L 7,42  Z  " style="fill:rgb(106, 59, 29); fill-opacity:1.000; stroke:none;" />
 <path d="  M 6,56  L 7,56  L 7,54  L 6,54  Z  " style="fill:rgb(106, 59, 29); fill-opacity:1.000; stroke:none;" />
 <path d="  M 8,28  L 8,30  L 9,30  L 9,28  Z  " style="fill:rgb(106, 59, 29); fill-opacity:1.000; stroke:none;" />
 <path d="  M 9,44  L 9,42  L 8,42  L 8,44  Z  " style="fill:rgb(106, 59, 29); fill-opacity:1.000; stroke:none;" />
 <path d="  M 9,33  L 10,33  L 10,31  L 9,31  Z  " style="fill:rgb(106, 59, 29); fill-opacity:1.000; stroke:none;" />
 <path d="  M 10,36  L 11,36  L 11,34  L 10,34  Z  " style="fill:rgb(106, 59, 29); fill-opacity:1.000; stroke:none;" />
 <path d="  M 11,39  L 11,38  L 10,38  L 10,39  Z  " style="fill:rgb(106, 59, 29); fill-opacity:1.000; stroke:none;" />
 <path d="  M 10,44  L 10,46  L 11,46  L 11,44  Z  " style="fill:rgb(106, 59, 29); fill-opacity:1.000; stroke:none;" />
 <path d="  M 10,50  L 11,50  L 11,48  L 10,48  Z  " style="fill:rgb(106, 59, 29); fill-opacity:1.000; stroke:none;" />
 <path d="  M 11,55  L 10,55  L 10,59  L 11,59  Z  " style="fill:rgb(106, 59, 29); fill-opacity:1.000; stroke:none;" />
 <path d="  M 12,34  L 12,33  L 11,33  L 11,34  Z  " style="fill:rgb(106, 59, 29); fill-opacity:1.000; stroke:none;" />
 <path d="  M 24,39  L 24,40  L 26,40  L 26,39  Z  " style="fill:rgb(106, 59, 29); fill-opacity:1.000; stroke:none;" />
 <path d="  M 28,38  L 28,39  L 31,39  L 31,38  Z  " style="fill:rgb(106, 59, 29); fill-opacity:1.000; stroke:none;" />
 <path d="  M 40,39  L 40,38  L 39,38  L 39,39  Z  " style="fill:rgb(106, 59, 29); fill-opacity:1.000; stroke:none;" />
 <path d="  M 39,42  L 41,42  L 41,41  L 39,41  Z  " style="fill:rgb(106, 59, 29); fill-opacity:1.000; stroke:none;" />
 <path d="  M 41,40  L 41,41  L 42,41  L 42,40  Z  " style="fill:rgb(106, 59, 29); fill-opacity:1.000; stroke:none;" />
 <path d="  M 43,40  L 43,41  L 44,41  L 44,40  Z  " style="fill:rgb(106, 59, 29); fill-opacity:1.000; stroke:none;" />
 <path d="  M 44,43  L 43,43  L 43,44  L 44,44  Z  " style="fill:rgb(106, 59, 29); fill-opacity:1.000; stroke:none;" />
 <path d="  M 45,39  L 45,40  L 46,40  L 46,39  Z  " style="fill:rgb(106, 59, 29); fill-opacity:1.000; stroke:none;" />
 <path d="  M 48,41  L 46,41  L 46,42  L 48,42  Z  " style="fill:rgb(106, 59, 29); fill-opacity:1.000; stroke:none;" />
 <path d="  M 48,39  L 47,39  L 47,40  L 48,40  Z  " style="fill:rgb(106, 59, 29); fill-opacity:1.000; stroke:none;" />
 <path d="  M 49,38  L 48,38  L 48,39  L 49,39  Z  " style="fill:rgb(106, 59, 29); fill-opacity:1.000; stroke:none;" />
 <path d="  M 53,45  L 53,44  L 52,44  L 52,45  Z  " style="fill:rgb(106, 59, 29); fill-opacity:1.000; stroke:none;" />
 <path d="  M 53,53  L 52,53  L 52,57  L 53,57  Z  " style="fill:rgb(106, 59, 29); fill-opacity:1.000; stroke:none;" />
 <path d="  M 53,60  L 53,58  L 52,58  L 52,60  Z  " style="fill:rgb(106, 59, 29); fill-opacity:1.000; stroke:none;" />
 <path d="  M 54,39  L 55,39  L 55,38  L 54,38  Z  " style="fill:rgb(106, 59, 29); fill-opacity:1.000; stroke:none;" />
 <path d="  M 55,48  L 54,48  L 54,50  L 55,50  Z  " style="fill:rgb(106, 59, 29); fill-opacity:1.000; stroke:none;" />
 <path d="  M 55,42  L 56,42  L 56,39  L 55,39  Z  " style="fill:rgb(106, 59, 29); fill-opacity:1.000; stroke:none;" />
 <path d="  M 56,48  L 57,48  L 57,44  L 56,44  L 56,45  L 55,45  L 55,46  L 56,46  Z  " style="fill:rgb(106, 59, 29); fill-opacity:1.000; stroke:none;" />
 <path d="  M 56,62  L 56,61  L 55,61  L 55,62  Z  " style="fill:rgb(106, 59, 29); fill-opacity:1.000; stroke:none;" />
 <path d="  M 56,52  L 56,53  L 57,53  L 57,54  L 58,54  L 58,52  Z  " style="fill:rgb(106, 59, 29); fill-opacity:1.000; stroke:none;" />
 <path d="  M 57,56  L 57,58  L 58,58  L 58,56  Z  " style="fill:rgb(106, 59, 29); fill-opacity:1.000; stroke:none;" />
 <path d="  M 58,38  L 59,38  L 59,36  L 58,36  Z  " style="fill:rgb(106, 59, 29); fill-opacity:1.000; stroke:none;" />
 <path d="  M 58,42  L 59,42  L 59,41  L 58,41  Z  " style="fill:rgb(106, 59, 29); fill-opacity:1.000; stroke:none;" />
 <path d="  M 58,59  L 59,59  L 59,58  L 58,58  Z  " style="fill:rgb(106, 59, 29); fill-opacity:1.000; stroke:none;" />
 <path d="  M 59,36  L 60,36  L 60,35  L 59,35  Z  " style="fill:rgb(106, 59, 29); fill-opacity:1.000; stroke:none;" />
 <path d="  M 59,44  L 59,45  L 60,45  L 60,47  L 61,47  L 61,44  Z  " style="fill:rgb(106, 59, 29); fill-opacity:1.000; stroke:none;" />
 <path d="  M 61,40  L 61,39  L 60,39  L 60,40  Z  " style="fill:rgb(106, 59, 29); fill-opacity:1.000; stroke:none;" />
 <path d="  M 61,48  L 60,48  L 60,50  L 61,50  Z  " style="fill:rgb(106, 59, 29); fill-opacity:1.000; stroke:none;" />
 <path d="  M 61,31  L 62,31  L 62,28  L 61,28  Z  " style="fill:rgb(106, 59, 29); fill-opacity:1.000; stroke:none;" />
 <path d="  M 61,41  L 61,42  L 62,42  L 62,41  Z  " style="fill:rgb(106, 59, 29); fill-opacity:1.000; stroke:none;" />
 <path d="  M 61,54  L 62,54  L 62,51  L 61,51  Z  " style="fill:rgb(106, 59, 29); fill-opacity:1.000; stroke:none;" />
 <path d="  M 62,57  L 62,55  L 61,55  L 61,57  Z  " style="fill:rgb(106, 59, 29); fill-opacity:1.000; stroke:none;" />
 <path d="  M 62,60  L 61,60  L 61,62  L 62,62  Z  " style="fill:rgb(106, 59, 29); fill-opacity:1.000; stroke:none;" />
 <path d="  M 62,39  L 63,39  L 63,36  L 62,36  Z  " style="fill:rgb(106, 59, 29); fill-opacity:1.000; stroke:none;" />
 <path d="  M 63,46  L 62,46  L 62,49  L 63,49  Z  " style="fill:rgb(106, 59, 29); fill-opacity:1.000; stroke:none;" />
 <path d="  M 63,40  L 64,40  L 64,39  L 63,39  Z  " style="fill:rgb(106, 59, 29); fill-opacity:1.000; stroke:none;" />
 <path d="  M 0,47  L 1,47  L 1,43  L 0,43  Z  " style="fill:rgb(113, 64, 32); fill-opacity:1.000; stroke:none;" />
 <path d="  M 1,57  L 0,57  L 0,63  L 1,63  Z  " style="fill:rgb(113, 64, 32); fill-opacity:1.000; stroke:none;" />
 <path d="  M 2,35  L 2,34  L 1,34  L 1,35  Z  " style="fill:rgb(113, 64, 32); fill-opacity:1.000; stroke:none;" />
 <path d="  M 3,36  L 3,35  L 2,35  L 2,36  Z  " style="fill:rgb(113, 64, 32); fill-opacity:1.000; stroke:none;" />
 <path d="  M 2,37  L 2,38  L 3,38  L 3,37  Z  " style="fill:rgb(113, 64, 32); fill-opacity:1.000; stroke:none;" />
 <path d="  M 4,54  L 4,52  L 2,52  L 2,53  L 3,53  L 3,54  Z  " style="fill:rgb(113, 64, 32); fill-opacity:1.000; stroke:none;" />
 <path d="  M 2,56  L 3,56  L 3,54  L 2,54  Z  " style="fill:rgb(113, 64, 32); fill-opacity:1.000; stroke:none;" />
 <path d="  M 3,58  L 3,57  L 2,57  L 2,58  Z  " style="fill:rgb(113, 64, 32); fill-opacity:1.000; stroke:none;" />
 <path d="  M 4,28  L 3,28  L 3,30  L 4,30  Z  " style="fill:rgb(113, 64, 32); fill-opacity:1.000; stroke:none;" />
 <path d="  M 5,38  L 6,38  L 6,36  L 5,36  Z  " style="fill:rgb(113, 64, 32); fill-opacity:1.000; stroke:none;" />
 <path d="  M 5,52  L 6,52  L 6,51  L 5,51  Z  " style="fill:rgb(113, 64, 32); fill-opacity:1.000; stroke:none;" />
 <path d="  M 6,53  L 5,53  L 5,55  L 6,55  Z  " style="fill:rgb(113, 64, 32); fill-opacity:1.000; stroke:none;" />
 <path d="  M 6,62  L 6,60  L 5,60  L 5,62  Z  " style="fill:rgb(113, 64, 32); fill-opacity:1.000; stroke:none;" />
 <path d="  M 7,34  L 7,33  L 6,33  L 6,34  Z  " style="fill:rgb(113, 64, 32); fill-opacity:1.000; stroke:none;" />
 <path d="  M 7,39  L 7,40  L 8,40  L 8,38  L 6,38  L 6,39  Z  " style="fill:rgb(113, 64, 32); fill-opacity:1.000; stroke:none;" />
 <path d="  M 7,46  L 8,46  L 8,44  L 7,44  L 7,45  L 6,45  L 6,50  L 7,50  Z  " style="fill:rgb(113, 64, 32); fill-opacity:1.000; stroke:none;" />
 <path d="  M 6,56  L 6,57  L 7,57  L 7,56  Z  " style="fill:rgb(113, 64, 32); fill-opacity:1.000; stroke:none;" />
 <path d="  M 7,60  L 7,58  L 6,58  L 6,60  Z  " style="fill:rgb(113, 64, 32); fill-opacity:1.000; stroke:none;" />
 <path d="  M 6,64  L 7,64  L 7,62  L 6,62  Z  " style="fill:rgb(113, 64, 32); fill-opacity:1.000; stroke:none;" />
 <path d="  M 9,55  L 9,52  L 8,52  L 8,55  Z  " style="fill:rgb(113, 64, 32); fill-opacity:1.000; stroke:none;" />
 <path d="  M 9,59  L 8,59  L 8,61  L 9,61  Z  " style="fill:rgb(113, 64, 32); fill-opacity:1.000; stroke:none;" />
 <path d="  M 10,30  L 9,30  L 9,31  L 10,31  Z  " style="fill:rgb(113, 64, 32); fill-opacity:1.000; stroke:none;" />
 <path d="  M 9,61  L 9,62  L 10,62  L 10,61  Z  " style="fill:rgb(113, 64, 32); fill-opacity:1.000; stroke:none;" />
 <path d="  M 11,37  L 12,37  L 12,36  L 11,36  Z  " style="fill:rgb(113, 64, 32); fill-opacity:1.000; stroke:none;" />
 <path d="  M 12,44  L 12,42  L 11,42  L 11,44  Z  " style="fill:rgb(113, 64, 32); fill-opacity:1.000; stroke:none;" />
 <path d="  M 11,53  L 12,53  L 12,50  L 11,50  Z  " style="fill:rgb(113, 64, 32); fill-opacity:1.000; stroke:none;" />
 <path d="  M 12,62  L 12,59  L 11,59  L 11,62  Z  " style="fill:rgb(113, 64, 32); fill-opacity:1.000; stroke:none;" />
 <path d="  M 17,37  L 15,37  L 15,38  L 17,38  Z  " style="fill:rgb(113, 64, 32); fill-opacity:1.000; stroke:none;" />
 <path d="  M 17,40  L 18,40  L 18,39  L 17,39  Z  " style="fill:rgb(113, 64, 32); fill-opacity:1.000; stroke:none;" />
 <path d="  M 19,41  L 21,41  L 21,40  L 19,40  Z  " style="fill:rgb(113, 64, 32); fill-opacity:1.000; stroke:none;" />
 <path d="  M 20,43  L 19,43  L 19,44  L 20,44  Z  " style="fill:rgb(113, 64, 32); fill-opacity:1.000; stroke:none;" />
 <path d="  M 23,38  L 23,37  L 21,37  L 21,38  Z  " style="fill:rgb(113, 64, 32); fill-opacity:1.000; stroke:none;" />
 <path d="  M 21,43  L 24,43  L 24,42  L 21,42  Z  " style="fill:rgb(113, 64, 32); fill-opacity:1.000; stroke:none;" />
 <path d="  M 24,40  L 24,39  L 22,39  L 22,40  Z  " style="fill:rgb(113, 64, 32); fill-opacity:1.000; stroke:none;" />
 <path d="  M 28,39  L 28,37  L 25,37  L 25,38  L 27,38  L 27,39  Z  " style="fill:rgb(113, 64, 32); fill-opacity:1.000; stroke:none;" />
 <path d="  M 27,42  L 27,41  L 29,41  L 29,40  L 26,40  L 26,41  L 25,41  L 25,42  Z  " style="fill:rgb(113, 64, 32); fill-opacity:1.000; stroke:none;" />
 <path d="  M 29,41  L 29,42  L 31,42  L 31,41  Z  " style="fill:rgb(113, 64, 32); fill-opacity:1.000; stroke:none;" />
 <path d="  M 36,37  L 36,36  L 31,36  L 31,37  Z  " style="fill:rgb(113, 64, 32); fill-opacity:1.000; stroke:none;" />
 <path d="  M 34,40  L 34,41  L 35,41  L 35,40  Z  " style="fill:rgb(113, 64, 32); fill-opacity:1.000; stroke:none;" />
 <path d="  M 39,40  L 39,39  L 35,39  L 35,40  Z  " style="fill:rgb(113, 64, 32); fill-opacity:1.000; stroke:none;" />
 <path d="  M 37,38  L 37,37  L 36,37  L 36,38  Z  " style="fill:rgb(113, 64, 32); fill-opacity:1.000; stroke:none;" />
 <path d="  M 39,43  L 39,42  L 36,42  L 36,43  Z  " style="fill:rgb(113, 64, 32); fill-opacity:1.000; stroke:none;" />
 <path d="  M 42,38  L 42,37  L 38,37  L 38,38  Z  " style="fill:rgb(113, 64, 32); fill-opacity:1.000; stroke:none;" />
 <path d="  M 39,43  L 39,44  L 41,44  L 41,43  Z  " style="fill:rgb(113, 64, 32); fill-opacity:1.000; stroke:none;" />
 <path d="  M 44,41  L 45,41  L 45,42  L 46,42  L 46,40  L 44,40  Z  " style="fill:rgb(113, 64, 32); fill-opacity:1.000; stroke:none;" />
 <path d="  M 47,38  L 47,37  L 45,37  L 45,38  Z  " style="fill:rgb(113, 64, 32); fill-opacity:1.000; stroke:none;" />
 <path d="  M 46,40  L 47,40  L 47,39  L 46,39  Z  " style="fill:rgb(113, 64, 32); fill-opacity:1.000; stroke:none;" />
 <path d="  M 47,36  L 47,37  L 50,37  L 50,36  Z  " style="fill:rgb(113, 64, 32); fill-opacity:1.000; stroke:none;" />
 <path d="  M 53,45  L 52,45  L 52,47  L 53,47  Z  " style="fill:rgb(113, 64, 32); fill-opacity:1.000; stroke:none;" />
 <path d="  M 53,47  L 53,48  L 54,48  L 54,47  Z  " style="fill:rgb(113, 64, 32); fill-opacity:1.000; stroke:none;" />
 <path d="  M 54,30  L 55,30  L 55,28  L 54,28  Z  " style="fill:rgb(113, 64, 32); fill-opacity:1.000; stroke:none;" />
 <path d="  M 55,35  L 54,35  L 54,38  L 55,38  Z  " style="fill:rgb(113, 64, 32); fill-opacity:1.000; stroke:none;" />
 <path d="  M 55,46  L 55,45  L 54,45  L 54,46  Z  " style="fill:rgb(113, 64, 32); fill-opacity:1.000; stroke:none;" />
 <path d="  M 55,57  L 54,57  L 54,58  L 55,58  Z  " style="fill:rgb(113, 64, 32); fill-opacity:1.000; stroke:none;" />
 <path d="  M 55,59  L 54,59  L 54,61  L 55,61  Z  " style="fill:rgb(113, 64, 32); fill-opacity:1.000; stroke:none;" />
 <path d="  M 55,45  L 56,45  L 56,42  L 55,42  Z  " style="fill:rgb(113, 64, 32); fill-opacity:1.000; stroke:none;" />
 <path d="  M 56,55  L 56,53  L 55,53  L 55,55  Z  " style="fill:rgb(113, 64, 32); fill-opacity:1.000; stroke:none;" />
 <path d="  M 55,64  L 56,64  L 56,62  L 55,62  Z  " style="fill:rgb(113, 64, 32); fill-opacity:1.000; stroke:none;" />
 <path d="  M 56,49  L 56,52  L 57,52  L 57,49  Z  " style="fill:rgb(113, 64, 32); fill-opacity:1.000; stroke:none;" />
 <path d="  M 57,39  L 58,39  L 58,37  L 57,37  Z  " style="fill:rgb(113, 64, 32); fill-opacity:1.000; stroke:none;" />
 <path d="  M 58,54  L 57,54  L 57,56  L 58,56  Z  " style="fill:rgb(113, 64, 32); fill-opacity:1.000; stroke:none;" />
 <path d="  M 58,44  L 59,44  L 59,42  L 58,42  Z  " style="fill:rgb(113, 64, 32); fill-opacity:1.000; stroke:none;" />
 <path d="  M 59,57  L 58,57  L 58,58  L 59,58  Z  " style="fill:rgb(113, 64, 32); fill-opacity:1.000; stroke:none;" />
 <path d="  M 59,30  L 59,35  L 60,35  L 60,30  Z  " style="fill:rgb(113, 64, 32); fill-opacity:1.000; stroke:none;" />
 <path d="  M 61,37  L 60,37  L 60,39  L 61,39  Z  " style="fill:rgb(113, 64, 32); fill-opacity:1.000; stroke:none;" />
 <path d="  M 60,40  L 60,41  L 62,41  L 62,40  Z  " style="fill:rgb(113, 64, 32); fill-opacity:1.000; stroke:none;" />
 <path d="  M 61,43  L 60,43  L 60,44  L 61,44  Z  " style="fill:rgb(113, 64, 32); fill-opacity:1.000; stroke:none;" />
 <path d="  M 61,60  L 60,60  L 60,61  L 61,61  Z  " style="fill:rgb(113, 64, 32); fill-opacity:1.000; stroke:none;" />
 <path d="  M 62,42  L 61,42  L 61,43  L 62,43  Z  " style="fill:rgb(113, 64, 32); fill-opacity:1.000; stroke:none;" />
 <path d="  M 62,49  L 61,49  L 61,51  L 62,51  Z  " style="fill:rgb(113, 64, 32); fill-opacity:1.000; stroke:none;" />
 <path d="  M 61,59  L 62,59  L 62,57  L 61,57  Z  " style="fill:rgb(113, 64, 32); fill-opacity:1.000; stroke:none;" />
 <path d="  M 61,62  L 61,63  L 62,63  L 62,62  Z  " style="fill:rgb(113, 64, 32); fill-opacity:1.000; stroke:none;" />
 <path d="  M 63,63  L 62,63  L 62,64  L 63,64  Z  " style="fill:rgb(113, 64, 32); fill-opacity:1.000; stroke:none;" />
 <path d="  M 64,34  L 63,34  L 63,36  L 64,36  Z  " style="fill:rgb(113, 64, 32); fill-opacity:1.000; stroke:none;" />
 <path d="  M 64,43  L 64,40  L 63,40  L 63,43  Z  " style="fill:rgb(113, 64, 32); fill-opacity:1.000; stroke:none;" />
 <path d="  M 64,45  L 63,45  L 63,47  L 64,47  Z  " style="fill:rgb(113, 64, 32); fill-opacity:1.000; stroke:none;" />
 <path d="  M 64,50  L 64,49  L 63,49  L 63,50  Z  " style="fill:rgb(113, 64, 32); fill-opacity:1.000; stroke:none;" />
 <path d="  M 63,59  L 64,59  L 64,56  L 63,56  Z  " style="fill:rgb(113, 64, 32); fill-opacity:1.000; stroke:none;" />
 <path d="  M 18,32  L 16,32  L 16,31  L 13,31  L 13,30  L 14,30  L 14,29  L 24,29  L 24,28  L 12,28  L 12,34  L 13,34  L 13,32  L 15,32  L 15,33  L 18,33  L 18,34  L 19,34  L 19,33  L 20,33  L 20,32  L 23,32  L 23,33  L 25,33  L 25,32  L 24,32  L 24,31  L 22,31  L 22,30  L 20,30  L 20,31  L 18,31  Z  " style="fill:rgb(104, 104, 104); fill-opacity:1.000; stroke:none;" />
 <path d="  M 41,45  L 41,46  L 44,46  L 44,45  L 51,45  L 51,48  L 52,48  L 52,44  L 12,44  L 12,48  L 13,48  L 13,45  Z  " style="fill:rgb(104, 104, 104); fill-opacity:1.000; stroke:none;" />
 <path d="  M 17,52  L 17,51  L 15,51  L 15,50  L 13,50  L 13,51  L 14,51  L 14,52  Z  " style="fill:rgb(104, 104, 104); fill-opacity:1.000; stroke:none;" />
 <path d="  M 14,53  L 14,54  L 13,54  L 13,55  L 16,55  L 16,54  L 15,54  L 15,53  Z  " style="fill:rgb(104, 104, 104); fill-opacity:1.000; stroke:none;" />
 <path d="  M 18,56  L 18,55  L 16,55  L 16,56  Z  " style="fill:rgb(104, 104, 104); fill-opacity:1.000; stroke:none;" />
 <path d="  M 17,31  L 18,31  L 18,30  L 17,30  Z  " style="fill:rgb(104, 104, 104); fill-opacity:1.000; stroke:none;" />
 <path d="  M 21,56  L 21,57  L 22,57  L 22,58  L 23,58  L 23,57  L 25,57  L 25,56  L 26,56  L 26,55  L 24,55  L 24,56  Z  " style="fill:rgb(104, 104, 104); fill-opacity:1.000; stroke:none;" />
 <path d="  M 25,30  L 25,31  L 26,31  L 26,30  L 28,30  L 28,29  L 24,29  L 24,30  Z  " style="fill:rgb(104, 104, 104); fill-opacity:1.000; stroke:none;" />
 <path d="  M 28,54  L 26,54  L 26,55  L 28,55  Z  " style="fill:rgb(104, 104, 104); fill-opacity:1.000; stroke:none;" />
 <path d="  M 28,62  L 28,61  L 26,61  L 26,62  Z  " style="fill:rgb(104, 104, 104); fill-opacity:1.000; stroke:none;" />
 <path d="  M 31,49  L 31,48  L 27,48  L 27,49  L 30,49  L 30,50  L 32,50  L 32,49  Z  " style="fill:rgb(104, 104, 104); fill-opacity:1.000; stroke:none;" />
 <path d="  M 29,60  L 28,60  L 28,61  L 29,61  Z  " style="fill:rgb(104, 104, 104); fill-opacity:1.000; stroke:none;" />
 <path d="  M 30,28  L 30,29  L 37,29  L 37,28  Z  " style="fill:rgb(104, 104, 104); fill-opacity:1.000; stroke:none;" />
 <path d="  M 32,53  L 30,53  L 30,54  L 32,54  Z  " style="fill:rgb(104, 104, 104); fill-opacity:1.000; stroke:none;" />
 <path d="  M 32,54  L 32,55  L 33,55  L 33,56  L 36,56  L 36,55  L 35,55  L 35,54  Z  " style="fill:rgb(104, 104, 104); fill-opacity:1.000; stroke:none;" />
 <path d="  M 34,30  L 34,31  L 35,31  L 35,32  L 36,32  L 36,31  L 38,31  L 38,30  L 39,30  L 39,29  L 37,29  L 37,30  Z  " style="fill:rgb(104, 104, 104); fill-opacity:1.000; stroke:none;" />
 <path d="  M 39,55  L 39,54  L 36,54  L 36,55  Z  " style="fill:rgb(104, 104, 104); fill-opacity:1.000; stroke:none;" />
 <path d="  M 39,48  L 39,49  L 40,49  L 40,50  L 42,50  L 42,49  L 41,49  L 41,48  Z  " style="fill:rgb(104, 104, 104); fill-opacity:1.000; stroke:none;" />
 <path d="  M 43,48  L 42,48  L 42,49  L 43,49  Z  " style="fill:rgb(104, 104, 104); fill-opacity:1.000; stroke:none;" />
 <path d="  M 42,50  L 42,51  L 44,51  L 44,50  Z  " style="fill:rgb(104, 104, 104); fill-opacity:1.000; stroke:none;" />
 <path d="  M 45,36  L 45,35  L 43,35  L 43,36  Z  " style="fill:rgb(104, 104, 104); fill-opacity:1.000; stroke:none;" />
 <path d="  M 44,31  L 46,31  L 46,30  L 44,30  Z  " style="fill:rgb(104, 104, 104); fill-opacity:1.000; stroke:none;" />
 <path d="  M 45,34  L 45,35  L 47,35  L 47,34  Z  " style="fill:rgb(104, 104, 104); fill-opacity:1.000; stroke:none;" />
 <path d="  M 49,29  L 51,29  L 51,31  L 52,31  L 52,28  L 48,28  L 48,29  L 46,29  L 46,30  L 49,30  Z  " style="fill:rgb(104, 104, 104); fill-opacity:1.000; stroke:none;" />
 <path d="  M 48,52  L 48,51  L 46,51  L 46,52  Z  " style="fill:rgb(104, 104, 104); fill-opacity:1.000; stroke:none;" />
 <path d="  M 48,50  L 48,51  L 51,51  L 51,49  L 50,49  L 50,50  Z  " style="fill:rgb(104, 104, 104); fill-opacity:1.000; stroke:none;" />
 <path d="  M 51,56  L 51,55  L 50,55  L 50,56  Z  " style="fill:rgb(104, 104, 104); fill-opacity:1.000; stroke:none;" />
 <path d="  M 52,32  L 51,32  L 51,36  L 52,36  Z  " style="fill:rgb(104, 104, 104); fill-opacity:1.000; stroke:none;" />
 <path d="  M 12,36  L 13,36  L 13,34  L 12,34  Z  " style="fill:rgb(117, 117, 117); fill-opacity:1.000; stroke:none;" />
 <path d="  M 13,48  L 12,48  L 12,64  L 13,64  Z  " style="fill:rgb(117, 117, 117); fill-opacity:1.000; stroke:none;" />
 <path d="  M 30,29  L 30,28  L 24,28  L 24,29  Z  " style="fill:rgb(117, 117, 117); fill-opacity:1.000; stroke:none;" />
 <path d="  M 48,29  L 48,28  L 37,28  L 37,29  Z  " style="fill:rgb(117, 117, 117); fill-opacity:1.000; stroke:none;" />
 <path d="  M 52,32  L 52,31  L 51,31  L 51,32  Z  " style="fill:rgb(117, 117, 117); fill-opacity:1.000; stroke:none;" />
 <path d="  M 51,64  L 52,64  L 52,48  L 51,48  Z  " style="fill:rgb(117, 117, 117); fill-opacity:1.000; stroke:none;" />
 <path d="  M 20,31  L 20,30  L 19,30  L 19,29  L 14,29  L 14,30  L 13,30  L 13,31  L 16,31  L 16,32  L 18,32  L 18,31  Z  M 17,30  L 18,30  L 18,31  L 17,31  Z  " style="fill:rgb(116, 116, 116); fill-opacity:1.000; stroke:none;" />
 <path d="  M 23,32  L 20,32  L 20,33  L 19,33  L 19,34  L 18,34  L 18,33  L 15,33  L 15,32  L 13,32  L 13,33  L 14,33  L 14,34  L 17,34  L 17,35  L 20,35  L 20,34  L 23,34  L 23,35  L 25,35  L 25,36  L 28,36  L 28,35  L 26,35  L 26,34  L 25,34  L 25,33  L 23,33  Z  " style="fill:rgb(116, 116, 116); fill-opacity:1.000; stroke:none;" />
 <path d="  M 13,34  L 13,35  L 14,35  L 14,34  Z  " style="fill:rgb(116, 116, 116); fill-opacity:1.000; stroke:none;" />
 <path d="  M 14,46  L 13,46  L 13,47  L 14,47  Z  " style="fill:rgb(116, 116, 116); fill-opacity:1.000; stroke:none;" />
 <path d="  M 14,49  L 14,48  L 13,48  L 13,50  L 15,50  L 15,51  L 16,51  L 16,50  L 17,50  L 17,49  Z  " style="fill:rgb(116, 116, 116); fill-opacity:1.000; stroke:none;" />
 <path d="  M 13,52  L 14,52  L 14,51  L 13,51  Z  " style="fill:rgb(116, 116, 116); fill-opacity:1.000; stroke:none;" />
 <path d="  M 13,54  L 14,54  L 14,53  L 13,53  Z  " style="fill:rgb(116, 116, 116); fill-opacity:1.000; stroke:none;" />
 <path d="  M 17,57  L 17,56  L 16,56  L 16,55  L 13,55  L 13,56  L 15,56  L 15,57  Z  " style="fill:rgb(116, 116, 116); fill-opacity:1.000; stroke:none;" />
 <path d="  M 13,58  L 13,60  L 16,60  L 16,59  L 14,59  L 14,58  Z  " style="fill:rgb(116, 116, 116); fill-opacity:1.000; stroke:none;" />
 <path d="  M 15,62  L 15,61  L 13,61  L 13,62  Z  " style="fill:rgb(116, 116, 116); fill-opacity:1.000; stroke:none;" />
 <path d="  M 17,52  L 14,52  L 14,53  L 15,53  L 15,54  L 16,54  L 16,53  L 18,53  L 18,52  L 20,52  L 20,51  L 17,51  Z  " style="fill:rgb(116, 116, 116); fill-opacity:1.000; stroke:none;" />
 <path d="  M 19,46  L 21,46  L 21,45  L 16,45  L 16,46  L 17,46  L 17,47  L 19,47  Z  " style="fill:rgb(116, 116, 116); fill-opacity:1.000; stroke:none;" />
 <path d="  M 19,54  L 16,54  L 16,55  L 18,55  L 18,56  L 20,56  L 20,55  L 19,55  Z  " style="fill:rgb(116, 116, 116); fill-opacity:1.000; stroke:none;" />
 <path d="  M 17,60  L 17,61  L 20,61  L 20,62  L 24,62  L 24,61  L 22,61  L 22,60  Z  " style="fill:rgb(116, 116, 116); fill-opacity:1.000; stroke:none;" />
 <path d="  M 19,63  L 19,64  L 22,64  L 22,63  L 20,63  L 20,62  L 18,62  L 18,63  Z  " style="fill:rgb(116, 116, 116); fill-opacity:1.000; stroke:none;" />
 <path d="  M 22,54  L 22,53  L 23,53  L 23,52  L 20,52  L 20,53  L 19,53  L 19,54  Z  " style="fill:rgb(116, 116, 116); fill-opacity:1.000; stroke:none;" />
 <path d="  M 22,36  L 22,35  L 20,35  L 20,36  Z  " style="fill:rgb(116, 116, 116); fill-opacity:1.000; stroke:none;" />
 <path d="  M 20,56  L 20,57  L 21,57  L 21,56  Z  " style="fill:rgb(116, 116, 116); fill-opacity:1.000; stroke:none;" />
 <path d="  M 26,31  L 25,31  L 25,30  L 24,30  L 24,29  L 21,29  L 21,30  L 22,30  L 22,31  L 24,31  L 24,32  L 25,32  L 25,33  L 28,33  L 28,32  L 27,32  L 27,31  L 29,31  L 29,30  L 30,30  L 30,29  L 28,29  L 28,30  L 26,30  Z  " style="fill:rgb(116, 116, 116); fill-opacity:1.000; stroke:none;" />
 <path d="  M 21,46  L 21,47  L 23,47  L 23,46  Z  " style="fill:rgb(116, 116, 116); fill-opacity:1.000; stroke:none;" />
 <path d="  M 24,48  L 22,48  L 22,49  L 23,49  L 23,50  L 25,50  L 25,49  L 24,49  Z  " style="fill:rgb(116, 116, 116); fill-opacity:1.000; stroke:none;" />
 <path d="  M 22,55  L 22,56  L 24,56  L 24,55  L 26,55  L 26,54  L 23,54  L 23,55  Z  " style="fill:rgb(116, 116, 116); fill-opacity:1.000; stroke:none;" />
 <path d="  M 22,59  L 22,60  L 24,60  L 24,59  Z  " style="fill:rgb(116, 116, 116); fill-opacity:1.000; stroke:none;" />
 <path d="  M 26,52  L 26,51  L 29,51  L 29,50  L 30,50  L 30,49  L 28,49  L 28,50  L 25,50  L 25,51  L 23,51  L 23,52  Z  " style="fill:rgb(116, 116, 116); fill-opacity:1.000; stroke:none;" />
 <path d="  M 35,57  L 35,56  L 33,56  L 33,55  L 32,55  L 32,56  L 30,56  L 30,57  L 28,57  L 28,58  L 27,58  L 27,57  L 26,57  L 26,56  L 25,56  L 25,57  L 23,57  L 23,58  L 24,58  L 24,59  L 28,59  L 28,60  L 29,60  L 29,61  L 32,61  L 32,60  L 30,60  L 30,59  L 29,59  L 29,58  L 31,58  L 31,57  L 34,57  L 34,58  L 33,58  L 33,59  L 36,59  L 36,58  L 37,58  L 37,57  Z  " style="fill:rgb(116, 116, 116); fill-opacity:1.000; stroke:none;" />
 <path d="  M 26,48  L 26,47  L 24,47  L 24,48  Z  " style="fill:rgb(116, 116, 116); fill-opacity:1.000; stroke:none;" />
 <path d="  M 30,63  L 27,63  L 27,62  L 24,62  L 24,63  L 25,63  L 25,64  L 30,64  Z  " style="fill:rgb(116, 116, 116); fill-opacity:1.000; stroke:none;" />
 <path d="  M 35,48  L 37,48  L 37,47  L 36,47  L 36,46  L 33,46  L 33,45  L 26,45  L 26,46  L 32,46  L 32,47  L 35,47  Z  " style="fill:rgb(116, 116, 116); fill-opacity:1.000; stroke:none;" />
 <path d="  M 26,48  L 26,49  L 27,49  L 27,48  Z  " style="fill:rgb(116, 116, 116); fill-opacity:1.000; stroke:none;" />
 <path d="  M 26,53  L 26,54  L 28,54  L 28,55  L 29,55  L 29,54  L 30,54  L 30,53  L 32,53  L 32,52  L 29,52  L 29,53  Z  " style="fill:rgb(116, 116, 116); fill-opacity:1.000; stroke:none;" />
 <path d="  M 26,56  L 28,56  L 28,55  L 26,55  Z  " style="fill:rgb(116, 116, 116); fill-opacity:1.000; stroke:none;" />
 <path d="  M 27,61  L 28,61  L 28,60  L 27,60  Z  " style="fill:rgb(116, 116, 116); fill-opacity:1.000; stroke:none;" />
 <path d="  M 30,35  L 30,34  L 28,34  L 28,35  Z  " style="fill:rgb(116, 116, 116); fill-opacity:1.000; stroke:none;" />
 <path d="  M 28,62  L 29,62  L 29,61  L 28,61  Z  " style="fill:rgb(116, 116, 116); fill-opacity:1.000; stroke:none;" />
 <path d="  M 34,33  L 34,32  L 32,32  L 32,31  L 29,31  L 29,32  L 31,32  L 31,33  Z  " style="fill:rgb(116, 116, 116); fill-opacity:1.000; stroke:none;" />
 <path d="  M 29,47  L 29,48  L 31,48  L 31,47  Z  " style="fill:rgb(116, 116, 116); fill-opacity:1.000; stroke:none;" />
 <path d="  M 33,36  L 33,35  L 30,35  L 30,36  Z  " style="fill:rgb(116, 116, 116); fill-opacity:1.000; stroke:none;" />
 <path d="  M 30,50  L 30,51  L 32,51  L 32,50  Z  " style="fill:rgb(116, 116, 116); fill-opacity:1.000; stroke:none;" />
 <path d="  M 30,54  L 30,55  L 32,55  L 32,54  Z  " style="fill:rgb(116, 116, 116); fill-opacity:1.000; stroke:none;" />
 <path d="  M 33,64  L 33,63  L 32,63  L 32,62  L 30,62  L 30,63  L 31,63  L 31,64  Z  " style="fill:rgb(116, 116, 116); fill-opacity:1.000; stroke:none;" />
 <path d="  M 33,30  L 33,29  L 31,29  L 31,30  Z  " style="fill:rgb(116, 116, 116); fill-opacity:1.000; stroke:none;" />
 <path d="  M 37,51  L 37,50  L 36,50  L 36,49  L 33,49  L 33,48  L 31,48  L 31,49  L 32,49  L 32,50  L 33,50  L 33,51  L 34,51  L 34,50  L 35,50  L 35,51  Z  " style="fill:rgb(116, 116, 116); fill-opacity:1.000; stroke:none;" />
 <path d="  M 33,54  L 33,53  L 32,53  L 32,54  Z  " style="fill:rgb(116, 116, 116); fill-opacity:1.000; stroke:none;" />
 <path d="  M 33,30  L 33,31  L 34,31  L 34,30  Z  " style="fill:rgb(116, 116, 116); fill-opacity:1.000; stroke:none;" />
 <path d="  M 34,61  L 34,62  L 33,62  L 33,63  L 35,63  L 35,62  L 36,62  L 36,61  Z  " style="fill:rgb(116, 116, 116); fill-opacity:1.000; stroke:none;" />
 <path d="  M 35,32  L 35,31  L 34,31  L 34,32  Z  " style="fill:rgb(116, 116, 116); fill-opacity:1.000; stroke:none;" />
 <path d="  M 37,30  L 37,29  L 35,29  L 35,30  Z  " style="fill:rgb(116, 116, 116); fill-opacity:1.000; stroke:none;" />
 <path d="  M 35,55  L 36,55  L 36,54  L 35,54  Z  " style="fill:rgb(116, 116, 116); fill-opacity:1.000; stroke:none;" />
 <path d="  M 37,31  L 36,31  L 36,32  L 37,32  Z  " style="fill:rgb(116, 116, 116); fill-opacity:1.000; stroke:none;" />
 <path d="  M 37,55  L 36,55  L 36,56  L 37,56  Z  " style="fill:rgb(116, 116, 116); fill-opacity:1.000; stroke:none;" />
 <path d="  M 38,60  L 36,60  L 36,61  L 38,61  Z  " style="fill:rgb(116, 116, 116); fill-opacity:1.000; stroke:none;" />
 <path d="  M 37,35  L 40,35  L 40,34  L 42,34  L 42,33  L 39,33  L 39,34  L 37,34  Z  " style="fill:rgb(116, 116, 116); fill-opacity:1.000; stroke:none;" />
 <path d="  M 38,45  L 38,46  L 37,46  L 37,47  L 39,47  L 39,46  L 41,46  L 41,45  Z  " style="fill:rgb(116, 116, 116); fill-opacity:1.000; stroke:none;" />
 <path d="  M 38,50  L 40,50  L 40,49  L 39,49  L 39,48  L 37,48  L 37,49  L 38,49  Z  " style="fill:rgb(116, 116, 116); fill-opacity:1.000; stroke:none;" />
 <path d="  M 38,30  L 38,31  L 40,31  L 40,30  L 41,30  L 41,29  L 39,29  L 39,30  Z  " style="fill:rgb(116, 116, 116); fill-opacity:1.000; stroke:none;" />
 <path d="  M 39,54  L 39,55  L 42,55  L 42,56  L 45,56  L 45,57  L 47,57  L 47,56  L 46,56  L 46,55  L 44,55  L 44,54  L 40,54  L 40,53  L 41,53  L 41,52  L 39,52  L 39,53  L 38,53  L 38,54  Z  " style="fill:rgb(116, 116, 116); fill-opacity:1.000; stroke:none;" />
 <path d="  M 38,55  L 38,56  L 39,56  L 39,55  Z  " style="fill:rgb(116, 116, 116); fill-opacity:1.000; stroke:none;" />
 <path d="  M 39,47  L 39,48  L 41,48  L 41,49  L 42,49  L 42,47  Z  " style="fill:rgb(116, 116, 116); fill-opacity:1.000; stroke:none;" />
 <path d="  M 42,57  L 42,56  L 39,56  L 39,57  Z  " style="fill:rgb(116, 116, 116); fill-opacity:1.000; stroke:none;" />
 <path d="  M 42,30  L 42,31  L 40,31  L 40,32  L 43,32  L 43,33  L 44,33  L 44,32  L 45,32  L 45,31  L 44,31  L 44,30  Z  " style="fill:rgb(116, 116, 116); fill-opacity:1.000; stroke:none;" />
 <path d="  M 42,35  L 40,35  L 40,36  L 43,36  L 43,35  L 45,35  L 45,34  L 46,34  L 46,33  L 44,33  L 44,34  L 42,34  Z  " style="fill:rgb(116, 116, 116); fill-opacity:1.000; stroke:none;" />
 <path d="  M 40,51  L 41,51  L 41,52  L 42,52  L 42,53  L 44,53  L 44,52  L 43,52  L 43,51  L 42,51  L 42,50  L 40,50  Z  " style="fill:rgb(116, 116, 116); fill-opacity:1.000; stroke:none;" />
 <path d="  M 44,46  L 42,46  L 42,47  L 44,47  Z  " style="fill:rgb(116, 116, 116); fill-opacity:1.000; stroke:none;" />
 <path d="  M 43,48  L 43,49  L 42,49  L 42,50  L 44,50  L 44,52  L 46,52  L 46,51  L 48,51  L 48,50  L 50,50  L 50,49  L 51,49  L 51,48  L 49,48  L 49,49  L 47,49  L 47,50  L 45,50  L 45,49  L 46,49  L 46,48  Z  " style="fill:rgb(116, 116, 116); fill-opacity:1.000; stroke:none;" />
 <path d="  M 45,57  L 43,57  L 43,58  L 45,58  Z  " style="fill:rgb(116, 116, 116); fill-opacity:1.000; stroke:none;" />
 <path d="  M 45,60  L 43,60  L 43,61  L 45,61  Z  " style="fill:rgb(116, 116, 116); fill-opacity:1.000; stroke:none;" />
 <path d="  M 44,30  L 46,30  L 46,29  L 44,29  Z  " style="fill:rgb(116, 116, 116); fill-opacity:1.000; stroke:none;" />
 <path d="  M 44,45  L 44,46  L 46,46  L 46,45  Z  " style="fill:rgb(116, 116, 116); fill-opacity:1.000; stroke:none;" />
 <path d="  M 44,53  L 44,54  L 46,54  L 46,53  Z  " style="fill:rgb(116, 116, 116); fill-opacity:1.000; stroke:none;" />
 <path d="  M 51,61  L 49,61  L 49,60  L 48,60  L 48,61  L 46,61  L 46,62  L 44,62  L 44,63  L 47,63  L 47,62  L 51,62  Z  " style="fill:rgb(116, 116, 116); fill-opacity:1.000; stroke:none;" />
 <path d="  M 45,35  L 45,36  L 48,36  L 48,35  L 49,35  L 49,34  L 47,34  L 47,35  Z  " style="fill:rgb(116, 116, 116); fill-opacity:1.000; stroke:none;" />
 <path d="  M 46,30  L 46,31  L 48,31  L 48,30  Z  " style="fill:rgb(116, 116, 116); fill-opacity:1.000; stroke:none;" />
 <path d="  M 46,47  L 46,48  L 49,48  L 49,47  Z  " style="fill:rgb(116, 116, 116); fill-opacity:1.000; stroke:none;" />
 <path d="  M 46,53  L 48,53  L 48,52  L 46,52  Z  " style="fill:rgb(116, 116, 116); fill-opacity:1.000; stroke:none;" />
 <path d="  M 50,58  L 47,58  L 47,59  L 46,59  L 46,60  L 48,60  L 48,59  L 50,59  Z  " style="fill:rgb(116, 116, 116); fill-opacity:1.000; stroke:none;" />
 <path d="  M 50,31  L 50,32  L 47,32  L 47,33  L 51,33  L 51,31  Z  " style="fill:rgb(116, 116, 116); fill-opacity:1.000; stroke:none;" />
 <path d="  M 47,55  L 49,55  L 49,56  L 50,56  L 50,55  L 51,55  L 51,54  L 49,54  L 49,53  L 48,53  L 48,54  L 47,54  Z  " style="fill:rgb(116, 116, 116); fill-opacity:1.000; stroke:none;" />
 <path d="  M 50,52  L 50,53  L 51,53  L 51,51  L 48,51  L 48,52  Z  " style="fill:rgb(116, 116, 116); fill-opacity:1.000; stroke:none;" />
 <path d="  M 48,63  L 48,64  L 50,64  L 50,63  Z  " style="fill:rgb(116, 116, 116); fill-opacity:1.000; stroke:none;" />
 <path d="  M 51,30  L 51,29  L 49,29  L 49,30  Z  " style="fill:rgb(116, 116, 116); fill-opacity:1.000; stroke:none;" />
 <path d="  M 51,36  L 51,35  L 49,35  L 49,36  Z  " style="fill:rgb(116, 116, 116); fill-opacity:1.000; stroke:none;" />
 <path d="  M 50,60  L 51,60  L 51,59  L 50,59  Z  " style="fill:rgb(116, 116, 116); fill-opacity:1.000; stroke:none;" />
 <path d="  M 13,34  L 14,34  L 14,33  L 13,33  Z  " style="fill:rgb(127, 127, 127); fill-opacity:1.000; stroke:none;" />
 <path d="  M 15,35  L 17,35  L 17,34  L 14,34  L 14,35  L 13,35  L 13,36  L 15,36  Z  " style="fill:rgb(127, 127, 127); fill-opacity:1.000; stroke:none;" />
 <path d="  M 14,46  L 14,47  L 13,47  L 13,48  L 16,48  L 16,47  L 15,47  L 15,46  L 16,46  L 16,45  L 13,45  L 13,46  Z  " style="fill:rgb(127, 127, 127); fill-opacity:1.000; stroke:none;" />
 <path d="  M 14,52  L 13,52  L 13,53  L 14,53  Z  " style="fill:rgb(127, 127, 127); fill-opacity:1.000; stroke:none;" />
 <path d="  M 15,56  L 13,56  L 13,58  L 14,58  L 14,57  L 15,57  Z  " style="fill:rgb(127, 127, 127); fill-opacity:1.000; stroke:none;" />
 <path d="  M 17,58  L 17,59  L 16,59  L 16,60  L 13,60  L 13,61  L 15,61  L 15,62  L 16,62  L 16,61  L 17,61  L 17,60  L 19,60  L 19,59  L 21,59  L 21,58  Z  " style="fill:rgb(127, 127, 127); fill-opacity:1.000; stroke:none;" />
 <path d="  M 13,64  L 14,64  L 14,63  L 13,63  Z  " style="fill:rgb(127, 127, 127); fill-opacity:1.000; stroke:none;" />
 <path d="  M 14,59  L 16,59  L 16,58  L 14,58  Z  " style="fill:rgb(127, 127, 127); fill-opacity:1.000; stroke:none;" />
 <path d="  M 16,49  L 17,49  L 17,50  L 16,50  L 16,51  L 20,51  L 20,52  L 23,52  L 23,51  L 21,51  L 21,50  L 18,50  L 18,49  L 19,49  L 19,48  L 16,48  Z  " style="fill:rgb(127, 127, 127); fill-opacity:1.000; stroke:none;" />
 <path d="  M 20,52  L 18,52  L 18,53  L 16,53  L 16,54  L 19,54  L 19,53  L 20,53  Z  " style="fill:rgb(127, 127, 127); fill-opacity:1.000; stroke:none;" />
 <path d="  M 17,58  L 17,57  L 16,57  L 16,58  Z  " style="fill:rgb(127, 127, 127); fill-opacity:1.000; stroke:none;" />
 <path d="  M 16,63  L 18,63  L 18,62  L 16,62  Z  " style="fill:rgb(127, 127, 127); fill-opacity:1.000; stroke:none;" />
 <path d="  M 20,36  L 20,35  L 17,35  L 17,36  Z  " style="fill:rgb(127, 127, 127); fill-opacity:1.000; stroke:none;" />
 <path d="  M 18,56  L 17,56  L 17,57  L 18,57  Z  " style="fill:rgb(127, 127, 127); fill-opacity:1.000; stroke:none;" />
 <path d="  M 18,64  L 19,64  L 19,63  L 18,63  Z  " style="fill:rgb(127, 127, 127); fill-opacity:1.000; stroke:none;" />
 <path d="  M 21,29  L 19,29  L 19,30  L 21,30  Z  " style="fill:rgb(127, 127, 127); fill-opacity:1.000; stroke:none;" />
 <path d="  M 22,48  L 22,47  L 21,47  L 21,46  L 19,46  L 19,47  L 20,47  L 20,48  Z  " style="fill:rgb(127, 127, 127); fill-opacity:1.000; stroke:none;" />
 <path d="  M 26,52  L 23,52  L 23,53  L 22,53  L 22,54  L 19,54  L 19,55  L 20,55  L 20,56  L 22,56  L 22,55  L 23,55  L 23,54  L 26,54  L 26,53  L 29,53  L 29,52  L 31,52  L 31,51  L 30,51  L 30,50  L 29,50  L 29,51  L 26,51  Z  " style="fill:rgb(127, 127, 127); fill-opacity:1.000; stroke:none;" />
 <path d="  M 20,57  L 20,56  L 19,56  L 19,57  Z  " style="fill:rgb(127, 127, 127); fill-opacity:1.000; stroke:none;" />
 <path d="  M 20,62  L 20,61  L 19,61  L 19,62  Z  " style="fill:rgb(127, 127, 127); fill-opacity:1.000; stroke:none;" />
 <path d="  M 23,35  L 23,34  L 20,34  L 20,35  Z  " style="fill:rgb(127, 127, 127); fill-opacity:1.000; stroke:none;" />
 <path d="  M 22,64  L 25,64  L 25,63  L 24,63  L 24,62  L 20,62  L 20,63  L 22,63  Z  " style="fill:rgb(127, 127, 127); fill-opacity:1.000; stroke:none;" />
 <path d="  M 23,46  L 23,48  L 24,48  L 24,46  L 26,46  L 26,45  L 21,45  L 21,46  Z  " style="fill:rgb(127, 127, 127); fill-opacity:1.000; stroke:none;" />
 <path d="  M 23,50  L 23,49  L 21,49  L 21,50  Z  " style="fill:rgb(127, 127, 127); fill-opacity:1.000; stroke:none;" />
 <path d="  M 21,60  L 22,60  L 22,59  L 21,59  Z  " style="fill:rgb(127, 127, 127); fill-opacity:1.000; stroke:none;" />
 <path d="  M 24,61  L 24,60  L 22,60  L 22,61  Z  " style="fill:rgb(127, 127, 127); fill-opacity:1.000; stroke:none;" />
 <path d="  M 23,59  L 24,59  L 24,58  L 23,58  Z  " style="fill:rgb(127, 127, 127); fill-opacity:1.000; stroke:none;" />
 <path d="  M 26,49  L 26,48  L 24,48  L 24,49  L 25,49  L 25,50  L 28,50  L 28,49  Z  " style="fill:rgb(127, 127, 127); fill-opacity:1.000; stroke:none;" />
 <path d="  M 25,51  L 25,50  L 24,50  L 24,51  Z  " style="fill:rgb(127, 127, 127); fill-opacity:1.000; stroke:none;" />
 <path d="  M 24,59  L 24,60  L 25,60  L 25,59  Z  " style="fill:rgb(127, 127, 127); fill-opacity:1.000; stroke:none;" />
 <path d="  M 26,62  L 26,61  L 24,61  L 24,62  Z  " style="fill:rgb(127, 127, 127); fill-opacity:1.000; stroke:none;" />
 <path d="  M 28,34  L 30,34  L 30,33  L 25,33  L 25,34  L 26,34  L 26,35  L 28,35  Z  " style="fill:rgb(127, 127, 127); fill-opacity:1.000; stroke:none;" />
 <path d="  M 28,47  L 28,46  L 26,46  L 26,47  Z  " style="fill:rgb(127, 127, 127); fill-opacity:1.000; stroke:none;" />
 <path d="  M 30,54  L 29,54  L 29,55  L 28,55  L 28,56  L 26,56  L 26,57  L 27,57  L 27,58  L 28,58  L 28,57  L 30,57  L 30,56  L 32,56  L 32,55  L 30,55  Z  " style="fill:rgb(127, 127, 127); fill-opacity:1.000; stroke:none;" />
 <path d="  M 27,61  L 27,60  L 26,60  L 26,61  Z  " style="fill:rgb(127, 127, 127); fill-opacity:1.000; stroke:none;" />
 <path d="  M 29,32  L 29,31  L 27,31  L 27,32  Z  " style="fill:rgb(127, 127, 127); fill-opacity:1.000; stroke:none;" />
 <path d="  M 28,59  L 27,59  L 27,60  L 28,60  Z  " style="fill:rgb(127, 127, 127); fill-opacity:1.000; stroke:none;" />
 <path d="  M 30,63  L 30,62  L 32,62  L 32,63  L 33,63  L 33,62  L 34,62  L 34,61  L 33,61  L 33,60  L 32,60  L 32,61  L 29,61  L 29,62  L 27,62  L 27,63  Z  " style="fill:rgb(127, 127, 127); fill-opacity:1.000; stroke:none;" />
 <path d="  M 28,35  L 28,36  L 30,36  L 30,35  Z  " style="fill:rgb(127, 127, 127); fill-opacity:1.000; stroke:none;" />
 <path d="  M 32,31  L 32,32  L 34,32  L 34,31  L 33,31  L 33,30  L 31,30  L 31,29  L 30,29  L 30,30  L 29,30  L 29,31  Z  " style="fill:rgb(127, 127, 127); fill-opacity:1.000; stroke:none;" />
 <path d="  M 30,58  L 29,58  L 29,59  L 30,59  Z  " style="fill:rgb(127, 127, 127); fill-opacity:1.000; stroke:none;" />
 <path d="  M 32,34  L 30,34  L 30,35  L 32,35  Z  " style="fill:rgb(127, 127, 127); fill-opacity:1.000; stroke:none;" />
 <path d="  M 38,52  L 36,52  L 36,53  L 35,53  L 35,54  L 38,54  L 38,53  L 39,53  L 39,52  L 41,52  L 41,51  L 40,51  L 40,50  L 38,50  L 38,49  L 37,49  L 37,48  L 35,48  L 35,47  L 32,47  L 32,46  L 30,46  L 30,47  L 31,47  L 31,48  L 33,48  L 33,49  L 36,49  L 36,50  L 37,50  L 37,51  L 38,51  Z  " style="fill:rgb(127, 127, 127); fill-opacity:1.000; stroke:none;" />
 <path d="  M 30,60  L 31,60  L 31,59  L 30,59  Z  " style="fill:rgb(127, 127, 127); fill-opacity:1.000; stroke:none;" />
 <path d="  M 30,63  L 30,64  L 31,64  L 31,63  Z  " style="fill:rgb(127, 127, 127); fill-opacity:1.000; stroke:none;" />
 <path d="  M 31,58  L 32,58  L 32,57  L 31,57  Z  " style="fill:rgb(127, 127, 127); fill-opacity:1.000; stroke:none;" />
 <path d="  M 34,34  L 34,33  L 32,33  L 32,34  Z  " style="fill:rgb(127, 127, 127); fill-opacity:1.000; stroke:none;" />
 <path d="  M 32,51  L 33,51  L 33,50  L 32,50  Z  " style="fill:rgb(127, 127, 127); fill-opacity:1.000; stroke:none;" />
 <path d="  M 33,52  L 32,52  L 32,53  L 33,53  Z  " style="fill:rgb(127, 127, 127); fill-opacity:1.000; stroke:none;" />
 <path d="  M 33,59  L 33,58  L 32,58  L 32,59  Z  " style="fill:rgb(127, 127, 127); fill-opacity:1.000; stroke:none;" />
 <path d="  M 35,30  L 35,29  L 33,29  L 33,30  Z  " style="fill:rgb(127, 127, 127); fill-opacity:1.000; stroke:none;" />
 <path d="  M 35,36  L 35,35  L 33,35  L 33,36  Z  " style="fill:rgb(127, 127, 127); fill-opacity:1.000; stroke:none;" />
 <path d="  M 33,45  L 33,46  L 36,46  L 36,47  L 37,47  L 37,46  L 38,46  L 38,45  Z  " style="fill:rgb(127, 127, 127); fill-opacity:1.000; stroke:none;" />
 <path d="  M 33,54  L 34,54  L 34,53  L 33,53  Z  " style="fill:rgb(127, 127, 127); fill-opacity:1.000; stroke:none;" />
 <path d="  M 34,58  L 34,57  L 33,57  L 33,58  Z  " style="fill:rgb(127, 127, 127); fill-opacity:1.000; stroke:none;" />
 <path d="  M 37,64  L 37,63  L 33,63  L 33,64  Z  " style="fill:rgb(127, 127, 127); fill-opacity:1.000; stroke:none;" />
 <path d="  M 36,33  L 36,32  L 34,32  L 34,33  Z  " style="fill:rgb(127, 127, 127); fill-opacity:1.000; stroke:none;" />
 <path d="  M 36,52  L 36,51  L 35,51  L 35,50  L 34,50  L 34,52  Z  " style="fill:rgb(127, 127, 127); fill-opacity:1.000; stroke:none;" />
 <path d="  M 34,59  L 34,60  L 35,60  L 35,61  L 36,61  L 36,59  Z  " style="fill:rgb(127, 127, 127); fill-opacity:1.000; stroke:none;" />
 <path d="  M 37,34  L 35,34  L 35,35  L 37,35  Z  " style="fill:rgb(127, 127, 127); fill-opacity:1.000; stroke:none;" />
 <path d="  M 39,57  L 39,56  L 38,56  L 38,55  L 37,55  L 37,56  L 35,56  L 35,57  Z  " style="fill:rgb(127, 127, 127); fill-opacity:1.000; stroke:none;" />
 <path d="  M 39,58  L 36,58  L 36,59  L 39,59  Z  " style="fill:rgb(127, 127, 127); fill-opacity:1.000; stroke:none;" />
 <path d="  M 36,62  L 38,62  L 38,61  L 36,61  Z  " style="fill:rgb(127, 127, 127); fill-opacity:1.000; stroke:none;" />
 <path d="  M 38,31  L 37,31  L 37,32  L 38,32  Z  " style="fill:rgb(127, 127, 127); fill-opacity:1.000; stroke:none;" />
 <path d="  M 42,33  L 42,34  L 44,34  L 44,33  L 43,33  L 43,32  L 38,32  L 38,33  L 37,33  L 37,34  L 39,34  L 39,33  Z  " style="fill:rgb(127, 127, 127); fill-opacity:1.000; stroke:none;" />
 <path d="  M 39,47  L 37,47  L 37,48  L 39,48  Z  " style="fill:rgb(127, 127, 127); fill-opacity:1.000; stroke:none;" />
 <path d="  M 38,35  L 38,36  L 40,36  L 40,35  Z  " style="fill:rgb(127, 127, 127); fill-opacity:1.000; stroke:none;" />
 <path d="  M 40,61  L 40,60  L 38,60  L 38,61  L 39,61  L 39,62  L 42,62  L 42,61  Z  " style="fill:rgb(127, 127, 127); fill-opacity:1.000; stroke:none;" />
 <path d="  M 39,46  L 39,47  L 42,47  L 42,46  Z  " style="fill:rgb(127, 127, 127); fill-opacity:1.000; stroke:none;" />
 <path d="  M 42,56  L 42,55  L 39,55  L 39,56  Z  " style="fill:rgb(127, 127, 127); fill-opacity:1.000; stroke:none;" />
 <path d="  M 40,57  L 39,57  L 39,58  L 40,58  Z  " style="fill:rgb(127, 127, 127); fill-opacity:1.000; stroke:none;" />
 <path d="  M 41,30  L 40,30  L 40,31  L 42,31  L 42,30  L 44,30  L 44,29  L 41,29  Z  " style="fill:rgb(127, 127, 127); fill-opacity:1.000; stroke:none;" />
 <path d="  M 42,35  L 42,34  L 40,34  L 40,35  Z  " style="fill:rgb(127, 127, 127); fill-opacity:1.000; stroke:none;" />
 <path d="  M 41,52  L 41,53  L 40,53  L 40,54  L 44,54  L 44,53  L 42,53  L 42,52  Z  " style="fill:rgb(127, 127, 127); fill-opacity:1.000; stroke:none;" />
 <path d="  M 41,58  L 41,59  L 45,59  L 45,58  Z  " style="fill:rgb(127, 127, 127); fill-opacity:1.000; stroke:none;" />
 <path d="  M 46,48  L 46,46  L 44,46  L 44,47  L 42,47  L 42,48  Z  " style="fill:rgb(127, 127, 127); fill-opacity:1.000; stroke:none;" />
 <path d="  M 43,56  L 42,56  L 42,57  L 43,57  Z  " style="fill:rgb(127, 127, 127); fill-opacity:1.000; stroke:none;" />
 <path d="  M 42,61  L 43,61  L 43,60  L 42,60  Z  " style="fill:rgb(127, 127, 127); fill-opacity:1.000; stroke:none;" />
 <path d="  M 42,63  L 44,63  L 44,62  L 42,62  Z  " style="fill:rgb(127, 127, 127); fill-opacity:1.000; stroke:none;" />
 <path d="  M 44,52  L 44,51  L 43,51  L 43,52  Z  " style="fill:rgb(127, 127, 127); fill-opacity:1.000; stroke:none;" />
 <path d="  M 51,33  L 47,33  L 47,32  L 50,32  L 50,31  L 51,31  L 51,30  L 48,30  L 48,31  L 45,31  L 45,32  L 44,32  L 44,33  L 46,33  L 46,34  L 49,34  L 49,35  L 51,35  Z  " style="fill:rgb(127, 127, 127); fill-opacity:1.000; stroke:none;" />
 <path d="  M 46,53  L 46,52  L 44,52  L 44,53  Z  " style="fill:rgb(127, 127, 127); fill-opacity:1.000; stroke:none;" />
 <path d="  M 47,55  L 47,54  L 48,54  L 48,53  L 46,53  L 46,54  L 44,54  L 44,55  L 46,55  L 46,56  L 47,56  L 47,57  L 48,57  L 48,56  L 49,56  L 49,55  Z  " style="fill:rgb(127, 127, 127); fill-opacity:1.000; stroke:none;" />
 <path d="  M 46,62  L 46,61  L 48,61  L 48,60  L 45,60  L 45,61  L 44,61  L 44,62  Z  " style="fill:rgb(127, 127, 127); fill-opacity:1.000; stroke:none;" />
 <path d="  M 44,64  L 48,64  L 48,63  L 50,63  L 50,64  L 51,64  L 51,62  L 47,62  L 47,63  L 44,63  Z  " style="fill:rgb(127, 127, 127); fill-opacity:1.000; stroke:none;" />
 <path d="  M 46,49  L 45,49  L 45,50  L 47,50  L 47,49  L 49,49  L 49,48  L 46,48  Z  " style="fill:rgb(127, 127, 127); fill-opacity:1.000; stroke:none;" />
 <path d="  M 45,57  L 45,58  L 47,58  L 47,57  Z  " style="fill:rgb(127, 127, 127); fill-opacity:1.000; stroke:none;" />
 <path d="  M 46,45  L 46,46  L 47,46  L 47,45  Z  " style="fill:rgb(127, 127, 127); fill-opacity:1.000; stroke:none;" />
 <path d="  M 47,46  L 47,47  L 49,47  L 49,46  Z  " style="fill:rgb(127, 127, 127); fill-opacity:1.000; stroke:none;" />
 <path d="  M 48,35  L 48,36  L 49,36  L 49,35  Z  " style="fill:rgb(127, 127, 127); fill-opacity:1.000; stroke:none;" />
 <path d="  M 51,54  L 51,53  L 50,53  L 50,52  L 48,52  L 48,53  L 49,53  L 49,54  Z  " style="fill:rgb(127, 127, 127); fill-opacity:1.000; stroke:none;" />
 <path d="  M 48,60  L 49,60  L 49,61  L 51,61  L 51,60  L 50,60  L 50,59  L 48,59  Z  " style="fill:rgb(127, 127, 127); fill-opacity:1.000; stroke:none;" />
 <path d="  M 49,48  L 50,48  L 50,47  L 49,47  Z  " style="fill:rgb(127, 127, 127); fill-opacity:1.000; stroke:none;" />
 <path d="  M 50,57  L 51,57  L 51,56  L 50,56  Z  " style="fill:rgb(127, 127, 127); fill-opacity:1.000; stroke:none;" />
 <path d="  M 51,59  L 51,58  L 50,58  L 50,59  Z  " style="fill:rgb(127, 127, 127); fill-opacity:1.000; stroke:none;" />
 <path d="  M 16,62  L 13,62  L 13,63  L 14,63  L 14,64  L 18,64  L 18,63  L 16,63  Z  " style="fill:rgb(143, 143, 143); fill-opacity:1.000; stroke:none;" />
 <path d="  M 16,49  L 16,48  L 14,48  L 14,49  Z  " style="fill:rgb(143, 143, 143); fill-opacity:1.000; stroke:none;" />
 <path d="  M 16,58  L 16,57  L 14,57  L 14,58  Z  " style="fill:rgb(143, 143, 143); fill-opacity:1.000; stroke:none;" />
 <path d="  M 15,35  L 15,36  L 17,36  L 17,35  Z  " style="fill:rgb(143, 143, 143); fill-opacity:1.000; stroke:none;" />
 <path d="  M 21,50  L 21,49  L 22,49  L 22,48  L 20,48  L 20,47  L 17,47  L 17,46  L 15,46  L 15,47  L 16,47  L 16,48  L 19,48  L 19,49  L 18,49  L 18,50  Z  " style="fill:rgb(143, 143, 143); fill-opacity:1.000; stroke:none;" />
 <path d="  M 17,58  L 16,58  L 16,59  L 17,59  Z  " style="fill:rgb(143, 143, 143); fill-opacity:1.000; stroke:none;" />
 <path d="  M 16,61  L 16,62  L 19,62  L 19,61  Z  " style="fill:rgb(143, 143, 143); fill-opacity:1.000; stroke:none;" />
 <path d="  M 21,58  L 21,59  L 23,59  L 23,58  L 22,58  L 22,57  L 19,57  L 19,56  L 18,56  L 18,57  L 17,57  L 17,58  Z  " style="fill:rgb(143, 143, 143); fill-opacity:1.000; stroke:none;" />
 <path d="  M 19,59  L 19,60  L 21,60  L 21,59  Z  " style="fill:rgb(143, 143, 143); fill-opacity:1.000; stroke:none;" />
 <path d="  M 21,50  L 21,51  L 24,51  L 24,50  Z  " style="fill:rgb(143, 143, 143); fill-opacity:1.000; stroke:none;" />
 <path d="  M 22,35  L 22,36  L 25,36  L 25,35  Z  " style="fill:rgb(143, 143, 143); fill-opacity:1.000; stroke:none;" />
 <path d="  M 23,47  L 22,47  L 22,48  L 23,48  Z  " style="fill:rgb(143, 143, 143); fill-opacity:1.000; stroke:none;" />
 <path d="  M 24,46  L 24,47  L 26,47  L 26,46  Z  " style="fill:rgb(143, 143, 143); fill-opacity:1.000; stroke:none;" />
 <path d="  M 24,60  L 24,61  L 26,61  L 26,60  L 27,60  L 27,59  L 25,59  L 25,60  Z  " style="fill:rgb(143, 143, 143); fill-opacity:1.000; stroke:none;" />
 <path d="  M 28,46  L 28,47  L 26,47  L 26,48  L 29,48  L 29,47  L 30,47  L 30,46  Z  " style="fill:rgb(143, 143, 143); fill-opacity:1.000; stroke:none;" />
 <path d="  M 28,33  L 30,33  L 30,34  L 32,34  L 32,33  L 31,33  L 31,32  L 28,32  Z  " style="fill:rgb(143, 143, 143); fill-opacity:1.000; stroke:none;" />
 <path d="  M 30,59  L 31,59  L 31,60  L 33,60  L 33,61  L 35,61  L 35,60  L 34,60  L 34,59  L 32,59  L 32,58  L 30,58  Z  " style="fill:rgb(143, 143, 143); fill-opacity:1.000; stroke:none;" />
 <path d="  M 35,53  L 36,53  L 36,52  L 34,52  L 34,51  L 31,51  L 31,52  L 33,52  L 33,53  L 34,53  L 34,54  L 35,54  Z  " style="fill:rgb(143, 143, 143); fill-opacity:1.000; stroke:none;" />
 <path d="  M 37,34  L 37,33  L 38,33  L 38,32  L 36,32  L 36,33  L 34,33  L 34,34  L 32,34  L 32,35  L 35,35  L 35,34  Z  " style="fill:rgb(143, 143, 143); fill-opacity:1.000; stroke:none;" />
 <path d="  M 33,57  L 32,57  L 32,58  L 33,58  Z  " style="fill:rgb(143, 143, 143); fill-opacity:1.000; stroke:none;" />
 <path d="  M 38,36  L 38,35  L 35,35  L 35,36  Z  " style="fill:rgb(143, 143, 143); fill-opacity:1.000; stroke:none;" />
 <path d="  M 42,62  L 39,62  L 39,61  L 38,61  L 38,62  L 35,62  L 35,63  L 37,63  L 37,64  L 44,64  L 44,63  L 42,63  Z  " style="fill:rgb(143, 143, 143); fill-opacity:1.000; stroke:none;" />
 <path d="  M 38,52  L 38,51  L 36,51  L 36,52  Z  " style="fill:rgb(143, 143, 143); fill-opacity:1.000; stroke:none;" />
 <path d="  M 36,60  L 40,60  L 40,61  L 42,61  L 42,60  L 46,60  L 46,59  L 47,59  L 47,58  L 45,58  L 45,59  L 41,59  L 41,58  L 43,58  L 43,57  L 40,57  L 40,58  L 39,58  L 39,59  L 36,59  Z  " style="fill:rgb(143, 143, 143); fill-opacity:1.000; stroke:none;" />
 <path d="  M 39,58  L 39,57  L 37,57  L 37,58  Z  " style="fill:rgb(143, 143, 143); fill-opacity:1.000; stroke:none;" />
 <path d="  M 38,31  L 38,32  L 40,32  L 40,31  Z  " style="fill:rgb(143, 143, 143); fill-opacity:1.000; stroke:none;" />
 <path d="  M 42,61  L 42,62  L 44,62  L 44,61  Z  " style="fill:rgb(143, 143, 143); fill-opacity:1.000; stroke:none;" />
 <path d="  M 43,56  L 43,57  L 45,57  L 45,56  Z  " style="fill:rgb(143, 143, 143); fill-opacity:1.000; stroke:none;" />
 <path d="  M 47,46  L 46,46  L 46,47  L 47,47  Z  " style="fill:rgb(143, 143, 143); fill-opacity:1.000; stroke:none;" />
 <path d="  M 47,45  L 47,46  L 49,46  L 49,47  L 50,47  L 50,48  L 51,48  L 51,45  Z  " style="fill:rgb(143, 143, 143); fill-opacity:1.000; stroke:none;" />
 <path d="  M 51,58  L 51,57  L 50,57  L 50,56  L 48,56  L 48,57  L 47,57  L 47,58  Z  " style="fill:rgb(143, 143, 143); fill-opacity:1.000; stroke:none;" />
</svg>
