<?xml version="1.0" encoding="UTF-8" standalone="no"?>
<!DOCTYPE svg PUBLIC "-//W3C//DTD SVG 1.1//EN" 
  "http://www.w3.org/Graphics/SVG/1.1/DTD/svg11.dtd">
<svg width="64" height="64"
	 xmlns="http://www.w3.org/2000/svg" version="1.1">
 <path d="  M 5,14  L 5,13  L 7,13  L 7,12  L 8,12  L 8,11  L 10,11  L 10,8  L 9,8  L 9,9  L 8,9  L 8,10  L 6,10  L 6,11  L 4,11  L 4,12  L 3,12  L 3,13  L 2,13  L 2,11  L 3,11  L 3,10  L 4,10  L 4,9  L 6,9  L 6,8  L 7,8  L 7,7  L 8,7  L 8,6  L 4,6  L 4,7  L 3,7  L 3,8  L 2,8  L 2,9  L 1,9  L 1,11  L 0,11  L 0,15  L 1,15  L 1,17  L 3,17  L 3,16  L 4,16  L 4,14  Z  M 2,13  L 2,14  L 1,14  L 1,13  Z  " style="fill:rgb(172, 172, 171); fill-opacity:1.000; stroke:none;" />
 <path d="  M 8,55  L 8,54  L 10,54  L 10,53  L 11,53  L 11,51  L 10,51  L 10,52  L 8,52  L 8,53  L 6,53  L 6,54  L 5,54  L 5,52  L 7,52  L 7,51  L 8,51  L 8,50  L 10,50  L 10,49  L 6,49  L 6,50  L 4,50  L 4,51  L 3,51  L 3,52  L 2,52  L 2,53  L 1,53  L 1,57  L 2,57  L 2,58  L 5,58  L 5,56  L 6,56  L 6,55  Z  M 3,57  L 3,55  L 4,55  L 4,57  Z  M 5,54  L 5,55  L 4,55  L 4,54  Z  " style="fill:rgb(172, 172, 171); fill-opacity:1.000; stroke:none;" />
 <path d="  M 20,29  L 19,29  L 19,30  L 20,30  Z  " style="fill:rgb(172, 172, 171); fill-opacity:1.000; stroke:none;" />
 <path d="  M 20,28  L 20,29  L 22,29  L 22,28  Z  " style="fill:rgb(172, 172, 171); fill-opacity:1.000; stroke:none;" />
 <path d="  M 21,30  L 20,30  L 20,31  L 21,31  Z  " style="fill:rgb(172, 172, 171); fill-opacity:1.000; stroke:none;" />
 <path d="  M 23,2  L 21,2  L 21,5  L 22,5  L 22,4  L 24,4  L 24,3  L 25,3  L 25,2  L 24,2  L 24,1  L 23,1  Z  " style="fill:rgb(172, 172, 171); fill-opacity:1.000; stroke:none;" />
 <path d="  M 24,36  L 26,36  L 26,34  L 25,34  L 25,31  L 24,31  L 24,32  L 23,32  L 23,31  L 21,31  L 21,32  L 22,32  L 22,33  L 23,33  L 23,34  L 24,34  Z  " style="fill:rgb(172, 172, 171); fill-opacity:1.000; stroke:none;" />
 <path d="  M 23,30  L 23,29  L 22,29  L 22,30  Z  " style="fill:rgb(172, 172, 171); fill-opacity:1.000; stroke:none;" />
 <path d="  M 23,31  L 24,31  L 24,30  L 23,30  Z  " style="fill:rgb(172, 172, 171); fill-opacity:1.000; stroke:none;" />
 <path d="  M 38,51  L 37,51  L 37,52  L 36,52  L 36,51  L 35,51  L 35,54  L 36,54  L 36,55  L 37,55  L 37,54  L 38,54  L 38,52  L 39,52  L 39,51  L 40,51  L 40,50  L 42,50  L 42,49  L 44,49  L 44,47  L 43,47  L 43,48  L 40,48  L 40,49  L 39,49  L 39,50  L 38,50  Z  " style="fill:rgb(172, 172, 171); fill-opacity:1.000; stroke:none;" />
 <path d="  M 37,50  L 38,50  L 38,48  L 39,48  L 39,47  L 41,47  L 41,46  L 42,46  L 42,45  L 43,45  L 43,44  L 40,44  L 40,45  L 38,45  L 38,46  L 37,46  L 37,49  L 36,49  L 36,51  L 37,51  Z  " style="fill:rgb(172, 172, 171); fill-opacity:1.000; stroke:none;" />
 <path d="  M 37,17  L 37,18  L 38,18  L 38,17  Z  " style="fill:rgb(172, 172, 171); fill-opacity:1.000; stroke:none;" />
 <path d="  M 42,8  L 42,9  L 41,9  L 41,10  L 40,10  L 40,12  L 39,12  L 39,14  L 38,14  L 38,17  L 39,17  L 39,16  L 40,16  L 40,13  L 41,13  L 41,12  L 42,12  L 42,11  L 44,11  L 44,8  Z  " style="fill:rgb(172, 172, 171); fill-opacity:1.000; stroke:none;" />
 <path d="  M 42,15  L 41,15  L 41,16  L 44,16  L 44,15  L 47,15  L 47,14  L 46,14  L 46,12  L 45,12  L 45,13  L 44,13  L 44,14  L 42,14  Z  " style="fill:rgb(172, 172, 171); fill-opacity:1.000; stroke:none;" />
 <path d="  M 55,35  L 55,34  L 56,34  L 56,35  Z  M 47,32  L 49,32  L 49,33  L 50,33  L 50,34  L 52,34  L 52,35  L 53,35  L 53,36  L 55,36  L 55,37  L 56,37  L 56,38  L 57,38  L 57,40  L 58,40  L 58,33  L 57,33  L 57,31  L 56,31  L 56,30  L 55,30  L 55,29  L 53,29  L 53,28  L 50,28  L 50,29  L 52,29  L 52,30  L 53,30  L 53,31  L 54,31  L 54,32  L 55,32  L 55,34  L 54,34  L 54,33  L 53,33  L 53,32  L 52,32  L 52,31  L 50,31  L 50,30  L 48,30  L 48,31  L 47,31  Z  M 57,35  L 57,36  L 56,36  L 56,35  Z  " style="fill:rgb(172, 172, 171); fill-opacity:1.000; stroke:none;" />
 <path d="  M 55,4  L 55,6  L 54,6  L 54,9  L 53,9  L 53,10  L 54,10  L 54,11  L 55,11  L 55,10  L 56,10  L 56,9  L 57,9  L 57,8  L 59,8  L 59,5  L 60,5  L 60,0  L 53,0  L 53,1  L 51,1  L 51,2  L 50,2  L 50,4  L 51,4  L 51,6  L 52,6  L 52,5  L 53,5  L 53,4  L 54,4  L 54,3  L 56,3  L 56,4  Z  M 58,1  L 58,2  L 57,2  L 57,1  Z  M 56,2  L 57,2  L 57,3  L 56,3  Z  " style="fill:rgb(172, 172, 171); fill-opacity:1.000; stroke:none;" />
 <path d="  M 1,15  L 0,15  L 0,16  L 1,16  Z  " style="fill:rgb(132, 132, 132); fill-opacity:1.000; stroke:none;" />
 <path d="  M 0,53  L 0,56  L 1,56  L 1,53  Z  " style="fill:rgb(132, 132, 132); fill-opacity:1.000; stroke:none;" />
 <path d="  M 2,17  L 1,17  L 1,18  L 2,18  Z  " style="fill:rgb(132, 132, 132); fill-opacity:1.000; stroke:none;" />
 <path d="  M 3,51  L 2,51  L 2,52  L 3,52  Z  " style="fill:rgb(132, 132, 132); fill-opacity:1.000; stroke:none;" />
 <path d="  M 3,51  L 4,51  L 4,50  L 3,50  Z  " style="fill:rgb(132, 132, 132); fill-opacity:1.000; stroke:none;" />
 <path d="  M 4,11  L 5,11  L 5,10  L 4,10  Z  " style="fill:rgb(132, 132, 132); fill-opacity:1.000; stroke:none;" />
 <path d="  M 4,16  L 5,16  L 5,14  L 4,14  Z  " style="fill:rgb(132, 132, 132); fill-opacity:1.000; stroke:none;" />
 <path d="  M 4,28  L 5,28  L 5,30  L 6,30  L 6,28  L 7,28  L 7,27  L 8,27  L 8,25  L 9,25  L 9,24  L 10,24  L 10,25  L 11,25  L 11,26  L 12,26  L 12,24  L 11,24  L 11,23  L 10,23  L 10,22  L 9,22  L 9,21  L 8,21  L 8,22  L 6,22  L 6,23  L 5,23  L 5,24  L 4,24  Z  " style="fill:rgb(132, 132, 132); fill-opacity:1.000; stroke:none;" />
 <path d="  M 6,50  L 6,49  L 4,49  L 4,50  Z  " style="fill:rgb(132, 132, 132); fill-opacity:1.000; stroke:none;" />
 <path d="  M 5,59  L 5,58  L 4,58  L 4,59  Z  " style="fill:rgb(132, 132, 132); fill-opacity:1.000; stroke:none;" />
 <path d="  M 5,9  L 5,10  L 7,10  L 7,9  Z  " style="fill:rgb(132, 132, 132); fill-opacity:1.000; stroke:none;" />
 <path d="  M 7,14  L 7,13  L 5,13  L 5,14  Z  " style="fill:rgb(132, 132, 132); fill-opacity:1.000; stroke:none;" />
 <path d="  M 6,53  L 5,53  L 5,54  L 6,54  Z  " style="fill:rgb(132, 132, 132); fill-opacity:1.000; stroke:none;" />
 <path d="  M 6,58  L 6,56  L 5,56  L 5,58  Z  " style="fill:rgb(132, 132, 132); fill-opacity:1.000; stroke:none;" />
 <path d="  M 10,11  L 11,11  L 11,10  L 12,10  L 12,6  L 13,6  L 13,4  L 9,4  L 9,5  L 6,5  L 6,6  L 9,6  L 9,7  L 10,7  Z  " style="fill:rgb(132, 132, 132); fill-opacity:1.000; stroke:none;" />
 <path d="  M 10,48  L 6,48  L 6,49  L 10,49  Z  " style="fill:rgb(132, 132, 132); fill-opacity:1.000; stroke:none;" />
 <path d="  M 6,53  L 7,53  L 7,52  L 6,52  Z  " style="fill:rgb(132, 132, 132); fill-opacity:1.000; stroke:none;" />
 <path d="  M 6,56  L 8,56  L 8,55  L 6,55  Z  " style="fill:rgb(132, 132, 132); fill-opacity:1.000; stroke:none;" />
 <path d="  M 7,8  L 7,9  L 8,9  L 8,8  Z  " style="fill:rgb(132, 132, 132); fill-opacity:1.000; stroke:none;" />
 <path d="  M 7,13  L 8,13  L 8,12  L 7,12  Z  " style="fill:rgb(132, 132, 132); fill-opacity:1.000; stroke:none;" />
 <path d="  M 9,51  L 7,51  L 7,52  L 9,52  Z  " style="fill:rgb(132, 132, 132); fill-opacity:1.000; stroke:none;" />
 <path d="  M 8,7  L 8,8  L 9,8  L 9,7  Z  " style="fill:rgb(132, 132, 132); fill-opacity:1.000; stroke:none;" />
 <path d="  M 10,12  L 10,11  L 8,11  L 8,12  Z  " style="fill:rgb(132, 132, 132); fill-opacity:1.000; stroke:none;" />
 <path d="  M 8,54  L 8,55  L 10,55  L 10,54  Z  " style="fill:rgb(132, 132, 132); fill-opacity:1.000; stroke:none;" />
 <path d="  M 11,51  L 11,53  L 10,53  L 10,54  L 12,54  L 12,49  L 10,49  L 10,50  L 9,50  L 9,51  Z  " style="fill:rgb(132, 132, 132); fill-opacity:1.000; stroke:none;" />
 <path d="  M 12,27  L 13,27  L 13,26  L 12,26  Z  " style="fill:rgb(132, 132, 132); fill-opacity:1.000; stroke:none;" />
 <path d="  M 13,29  L 14,29  L 14,27  L 13,27  Z  " style="fill:rgb(132, 132, 132); fill-opacity:1.000; stroke:none;" />
 <path d="  M 20,28  L 22,28  L 22,27  L 23,27  L 23,26  L 24,26  L 24,25  L 21,25  L 21,24  L 18,24  L 18,23  L 16,23  L 16,24  L 17,24  L 17,25  L 18,25  L 18,26  L 19,26  L 19,27  L 18,27  L 18,28  L 17,28  L 17,29  L 16,29  L 16,30  L 15,30  L 15,29  L 14,29  L 14,31  L 15,31  L 15,32  L 16,32  L 16,31  L 17,31  L 17,30  L 19,30  L 19,29  L 20,29  Z  " style="fill:rgb(132, 132, 132); fill-opacity:1.000; stroke:none;" />
 <path d="  M 14,47  L 14,48  L 15,48  L 15,47  Z  " style="fill:rgb(132, 132, 132); fill-opacity:1.000; stroke:none;" />
 <path d="  M 16,47  L 16,46  L 15,46  L 15,47  Z  " style="fill:rgb(132, 132, 132); fill-opacity:1.000; stroke:none;" />
 <path d="  M 19,44  L 19,41  L 18,41  L 18,38  L 17,38  L 17,44  L 16,44  L 16,46  L 17,46  L 17,45  L 18,45  L 18,44  Z  " style="fill:rgb(132, 132, 132); fill-opacity:1.000; stroke:none;" />
 <path d="  M 19,30  L 19,32  L 20,32  L 20,30  Z  " style="fill:rgb(132, 132, 132); fill-opacity:1.000; stroke:none;" />
 <path d="  M 20,3  L 21,3  L 21,2  L 23,2  L 23,1  L 26,1  L 26,2  L 27,2  L 27,1  L 28,1  L 28,0  L 20,0  Z  " style="fill:rgb(132, 132, 132); fill-opacity:1.000; stroke:none;" />
 <path d="  M 22,6  L 20,6  L 20,7  L 22,7  Z  " style="fill:rgb(132, 132, 132); fill-opacity:1.000; stroke:none;" />
 <path d="  M 20,32  L 20,33  L 21,33  L 21,34  L 22,34  L 22,35  L 23,35  L 23,33  L 22,33  L 22,32  Z  " style="fill:rgb(132, 132, 132); fill-opacity:1.000; stroke:none;" />
 <path d="  M 24,64  L 24,63  L 23,63  L 23,62  L 21,62  L 21,61  L 20,61  L 20,63  L 21,63  L 21,64  Z  " style="fill:rgb(132, 132, 132); fill-opacity:1.000; stroke:none;" />
 <path d="  M 26,54  L 25,54  L 25,51  L 24,51  L 24,49  L 23,49  L 23,48  L 22,48  L 22,50  L 21,50  L 21,52  L 22,52  L 22,53  L 23,53  L 23,54  L 24,54  L 24,56  L 25,56  L 25,57  L 26,57  L 26,55  L 27,55  L 27,52  L 28,52  L 28,46  L 27,46  L 27,45  L 26,45  L 26,44  L 25,44  L 25,43  L 24,43  L 24,47  L 25,47  L 25,49  L 26,49  Z  " style="fill:rgb(132, 132, 132); fill-opacity:1.000; stroke:none;" />
 <path d="  M 22,5  L 22,6  L 23,6  L 23,5  Z  " style="fill:rgb(132, 132, 132); fill-opacity:1.000; stroke:none;" />
 <path d="  M 24,29  L 24,28  L 22,28  L 22,29  Z  " style="fill:rgb(132, 132, 132); fill-opacity:1.000; stroke:none;" />
 <path d="  M 25,4  L 23,4  L 23,5  L 25,5  Z  " style="fill:rgb(132, 132, 132); fill-opacity:1.000; stroke:none;" />
 <path d="  M 24,36  L 24,35  L 23,35  L 23,36  Z  " style="fill:rgb(132, 132, 132); fill-opacity:1.000; stroke:none;" />
 <path d="  M 24,30  L 25,30  L 25,29  L 24,29  Z  " style="fill:rgb(132, 132, 132); fill-opacity:1.000; stroke:none;" />
 <path d="  M 24,37  L 25,37  L 25,36  L 24,36  Z  " style="fill:rgb(132, 132, 132); fill-opacity:1.000; stroke:none;" />
 <path d="  M 26,4  L 26,2  L 25,2  L 25,4  Z  " style="fill:rgb(132, 132, 132); fill-opacity:1.000; stroke:none;" />
 <path d="  M 25,30  L 25,32  L 26,32  L 26,30  Z  " style="fill:rgb(132, 132, 132); fill-opacity:1.000; stroke:none;" />
 <path d="  M 25,37  L 25,38  L 26,38  L 26,37  Z  " style="fill:rgb(132, 132, 132); fill-opacity:1.000; stroke:none;" />
 <path d="  M 27,64  L 27,63  L 25,63  L 25,64  Z  " style="fill:rgb(132, 132, 132); fill-opacity:1.000; stroke:none;" />
 <path d="  M 26,36  L 27,36  L 27,32  L 26,32  Z  " style="fill:rgb(132, 132, 132); fill-opacity:1.000; stroke:none;" />
 <path d="  M 34,28  L 33,28  L 33,29  L 32,29  L 32,30  L 33,30  L 33,31  L 34,31  L 34,32  L 36,32  L 36,31  L 35,31  L 35,30  L 34,30  L 34,29  L 35,29  L 35,28  L 36,28  L 36,27  L 35,27  L 35,25  L 34,25  L 34,24  L 32,24  L 32,25  L 33,25  L 33,26  L 34,26  Z  " style="fill:rgb(132, 132, 132); fill-opacity:1.000; stroke:none;" />
 <path d="  M 33,5  L 34,5  L 34,4  L 33,4  Z  " style="fill:rgb(132, 132, 132); fill-opacity:1.000; stroke:none;" />
 <path d="  M 38,5  L 38,7  L 39,7  L 39,6  L 40,6  L 40,4  L 39,4  L 39,2  L 38,2  L 38,1  L 37,1  L 37,0  L 35,0  L 35,1  L 34,1  L 34,2  L 35,2  L 35,3  L 36,3  L 36,4  L 37,4  L 37,5  Z  " style="fill:rgb(132, 132, 132); fill-opacity:1.000; stroke:none;" />
 <path d="  M 37,30  L 36,30  L 36,31  L 37,31  Z  " style="fill:rgb(132, 132, 132); fill-opacity:1.000; stroke:none;" />
 <path d="  M 37,55  L 36,55  L 36,56  L 37,56  Z  " style="fill:rgb(132, 132, 132); fill-opacity:1.000; stroke:none;" />
 <path d="  M 37,55  L 38,55  L 38,54  L 37,54  Z  " style="fill:rgb(132, 132, 132); fill-opacity:1.000; stroke:none;" />
 <path d="  M 39,52  L 38,52  L 38,54  L 39,54  Z  " style="fill:rgb(132, 132, 132); fill-opacity:1.000; stroke:none;" />
 <path d="  M 40,51  L 39,51  L 39,52  L 40,52  Z  " style="fill:rgb(132, 132, 132); fill-opacity:1.000; stroke:none;" />
 <path d="  M 40,14  L 40,15  L 41,15  L 41,14  Z  " style="fill:rgb(132, 132, 132); fill-opacity:1.000; stroke:none;" />
 <path d="  M 41,48  L 41,47  L 40,47  L 40,48  Z  " style="fill:rgb(132, 132, 132); fill-opacity:1.000; stroke:none;" />
 <path d="  M 40,51  L 42,51  L 42,50  L 40,50  Z  " style="fill:rgb(132, 132, 132); fill-opacity:1.000; stroke:none;" />
 <path d="  M 41,13  L 41,14  L 42,14  L 42,13  Z  " style="fill:rgb(132, 132, 132); fill-opacity:1.000; stroke:none;" />
 <path d="  M 41,47  L 43,47  L 43,46  L 41,46  Z  " style="fill:rgb(132, 132, 132); fill-opacity:1.000; stroke:none;" />
 <path d="  M 43,12  L 42,12  L 42,13  L 43,13  Z  " style="fill:rgb(132, 132, 132); fill-opacity:1.000; stroke:none;" />
 <path d="  M 46,14  L 47,14  L 47,16  L 48,16  L 48,17  L 47,17  L 47,18  L 46,18  L 46,20  L 47,20  L 47,19  L 48,19  L 48,18  L 49,18  L 49,19  L 50,19  L 50,21  L 49,21  L 49,23  L 48,23  L 48,25  L 47,25  L 47,27  L 46,27  L 46,30  L 45,30  L 45,32  L 44,32  L 44,35  L 43,35  L 43,38  L 42,38  L 42,41  L 43,41  L 43,39  L 44,39  L 44,37  L 45,37  L 45,34  L 46,34  L 46,31  L 47,31  L 47,29  L 48,29  L 48,27  L 49,27  L 49,26  L 51,26  L 51,25  L 53,25  L 53,24  L 56,24  L 56,23  L 58,23  L 58,22  L 55,22  L 55,21  L 54,21  L 54,20  L 52,20  L 52,18  L 51,18  L 51,17  L 50,17  L 50,15  L 49,15  L 49,14  L 48,14  L 48,11  L 47,11  L 47,6  L 48,6  L 48,4  L 49,4  L 49,2  L 48,2  L 48,3  L 47,3  L 47,4  L 46,4  L 46,6  L 45,6  L 45,8  L 44,8  L 44,10  L 45,10  L 45,12  L 46,12  Z  " style="fill:rgb(132, 132, 132); fill-opacity:1.000; stroke:none;" />
 <path d="  M 43,44  L 43,43  L 42,43  L 42,44  Z  " style="fill:rgb(132, 132, 132); fill-opacity:1.000; stroke:none;" />
 <path d="  M 42,49  L 42,50  L 44,50  L 44,49  Z  " style="fill:rgb(132, 132, 132); fill-opacity:1.000; stroke:none;" />
 <path d="  M 44,45  L 43,45  L 43,46  L 44,46  Z  " style="fill:rgb(132, 132, 132); fill-opacity:1.000; stroke:none;" />
 <path d="  M 48,33  L 48,34  L 50,34  L 50,33  L 49,33  L 49,32  L 47,32  L 47,33  Z  " style="fill:rgb(132, 132, 132); fill-opacity:1.000; stroke:none;" />
 <path d="  M 52,62  L 52,64  L 55,64  L 55,63  L 54,63  L 54,62  L 53,62  L 53,61  L 52,61  L 52,60  L 50,60  L 50,59  L 49,59  L 49,60  L 48,60  L 48,61  L 50,61  L 50,62  Z  " style="fill:rgb(132, 132, 132); fill-opacity:1.000; stroke:none;" />
 <path d="  M 51,30  L 51,29  L 49,29  L 49,30  Z  " style="fill:rgb(132, 132, 132); fill-opacity:1.000; stroke:none;" />
 <path d="  M 50,2  L 51,2  L 51,1  L 50,1  Z  " style="fill:rgb(132, 132, 132); fill-opacity:1.000; stroke:none;" />
 <path d="  M 53,35  L 52,35  L 52,34  L 50,34  L 50,35  L 51,35  L 51,36  L 53,36  Z  " style="fill:rgb(132, 132, 132); fill-opacity:1.000; stroke:none;" />
 <path d="  M 53,1  L 53,0  L 51,0  L 51,1  Z  " style="fill:rgb(132, 132, 132); fill-opacity:1.000; stroke:none;" />
 <path d="  M 51,31  L 53,31  L 53,30  L 51,30  Z  " style="fill:rgb(132, 132, 132); fill-opacity:1.000; stroke:none;" />
 <path d="  M 52,6  L 52,8  L 53,8  L 53,7  L 54,7  L 54,5  L 53,5  L 53,6  Z  " style="fill:rgb(132, 132, 132); fill-opacity:1.000; stroke:none;" />
 <path d="  M 53,32  L 54,32  L 54,31  L 53,31  Z  " style="fill:rgb(132, 132, 132); fill-opacity:1.000; stroke:none;" />
 <path d="  M 55,37  L 55,36  L 53,36  L 53,37  Z  " style="fill:rgb(132, 132, 132); fill-opacity:1.000; stroke:none;" />
 <path d="  M 55,4  L 54,4  L 54,5  L 55,5  Z  " style="fill:rgb(132, 132, 132); fill-opacity:1.000; stroke:none;" />
 <path d="  M 56,3  L 55,3  L 55,4  L 56,4  Z  " style="fill:rgb(132, 132, 132); fill-opacity:1.000; stroke:none;" />
 <path d="  M 55,37  L 55,38  L 56,38  L 56,37  Z  " style="fill:rgb(132, 132, 132); fill-opacity:1.000; stroke:none;" />
 <path d="  M 57,38  L 56,38  L 56,40  L 57,40  Z  " style="fill:rgb(132, 132, 132); fill-opacity:1.000; stroke:none;" />
 <path d="  M 58,40  L 57,40  L 57,41  L 58,41  Z  " style="fill:rgb(132, 132, 132); fill-opacity:1.000; stroke:none;" />
 <path d="  M 58,39  L 59,39  L 59,36  L 58,36  Z  " style="fill:rgb(132, 132, 132); fill-opacity:1.000; stroke:none;" />
 <path d="  M 62,59  L 63,59  L 63,60  L 64,60  L 64,53  L 62,53  L 62,54  L 61,54  L 61,57  L 62,57  Z  " style="fill:rgb(132, 132, 132); fill-opacity:1.000; stroke:none;" />
 <path d="  M 1,13  L 1,14  L 2,14  L 2,13  Z  " style="fill:rgb(157, 157, 157); fill-opacity:1.000; stroke:none;" />
 <path d="  M 3,13  L 3,12  L 4,12  L 4,10  L 3,10  L 3,11  L 2,11  L 2,13  Z  " style="fill:rgb(157, 157, 157); fill-opacity:1.000; stroke:none;" />
 <path d="  M 4,55  L 3,55  L 3,57  L 4,57  Z  " style="fill:rgb(157, 157, 157); fill-opacity:1.000; stroke:none;" />
 <path d="  M 5,10  L 5,9  L 4,9  L 4,10  Z  " style="fill:rgb(157, 157, 157); fill-opacity:1.000; stroke:none;" />
 <path d="  M 5,55  L 5,54  L 4,54  L 4,55  Z  " style="fill:rgb(157, 157, 157); fill-opacity:1.000; stroke:none;" />
 <path d="  M 5,10  L 5,11  L 6,11  L 6,10  Z  " style="fill:rgb(157, 157, 157); fill-opacity:1.000; stroke:none;" />
 <path d="  M 5,52  L 5,53  L 6,53  L 6,52  Z  " style="fill:rgb(157, 157, 157); fill-opacity:1.000; stroke:none;" />
 <path d="  M 7,9  L 7,8  L 6,8  L 6,9  Z  " style="fill:rgb(157, 157, 157); fill-opacity:1.000; stroke:none;" />
 <path d="  M 8,8  L 8,7  L 7,7  L 7,8  Z  " style="fill:rgb(157, 157, 157); fill-opacity:1.000; stroke:none;" />
 <path d="  M 8,10  L 8,9  L 7,9  L 7,10  Z  " style="fill:rgb(157, 157, 157); fill-opacity:1.000; stroke:none;" />
 <path d="  M 7,52  L 7,53  L 8,53  L 8,52  Z  " style="fill:rgb(157, 157, 157); fill-opacity:1.000; stroke:none;" />
 <path d="  M 9,7  L 9,6  L 8,6  L 8,7  Z  " style="fill:rgb(157, 157, 157); fill-opacity:1.000; stroke:none;" />
 <path d="  M 9,8  L 8,8  L 8,9  L 9,9  Z  " style="fill:rgb(157, 157, 157); fill-opacity:1.000; stroke:none;" />
 <path d="  M 9,50  L 8,50  L 8,51  L 9,51  Z  " style="fill:rgb(157, 157, 157); fill-opacity:1.000; stroke:none;" />
 <path d="  M 9,7  L 9,8  L 10,8  L 10,7  Z  " style="fill:rgb(157, 157, 157); fill-opacity:1.000; stroke:none;" />
 <path d="  M 10,52  L 10,51  L 9,51  L 9,52  Z  " style="fill:rgb(157, 157, 157); fill-opacity:1.000; stroke:none;" />
 <path d="  M 20,29  L 20,30  L 21,30  L 21,31  L 23,31  L 23,30  L 22,30  L 22,29  Z  " style="fill:rgb(157, 157, 157); fill-opacity:1.000; stroke:none;" />
 <path d="  M 21,32  L 21,31  L 20,31  L 20,32  Z  " style="fill:rgb(157, 157, 157); fill-opacity:1.000; stroke:none;" />
 <path d="  M 23,29  L 23,30  L 24,30  L 24,29  Z  " style="fill:rgb(157, 157, 157); fill-opacity:1.000; stroke:none;" />
 <path d="  M 23,31  L 23,32  L 24,32  L 24,31  Z  " style="fill:rgb(157, 157, 157); fill-opacity:1.000; stroke:none;" />
 <path d="  M 23,34  L 23,35  L 24,35  L 24,34  Z  " style="fill:rgb(157, 157, 157); fill-opacity:1.000; stroke:none;" />
 <path d="  M 25,31  L 25,30  L 24,30  L 24,31  Z  " style="fill:rgb(157, 157, 157); fill-opacity:1.000; stroke:none;" />
 <path d="  M 25,32  L 25,34  L 26,34  L 26,32  Z  " style="fill:rgb(157, 157, 157); fill-opacity:1.000; stroke:none;" />
 <path d="  M 25,37  L 26,37  L 26,36  L 25,36  Z  " style="fill:rgb(157, 157, 157); fill-opacity:1.000; stroke:none;" />
 <path d="  M 36,52  L 37,52  L 37,51  L 36,51  Z  " style="fill:rgb(157, 157, 157); fill-opacity:1.000; stroke:none;" />
 <path d="  M 37,50  L 37,51  L 38,51  L 38,50  Z  " style="fill:rgb(157, 157, 157); fill-opacity:1.000; stroke:none;" />
 <path d="  M 38,50  L 39,50  L 39,49  L 40,49  L 40,47  L 39,47  L 39,48  L 38,48  Z  " style="fill:rgb(157, 157, 157); fill-opacity:1.000; stroke:none;" />
 <path d="  M 40,17  L 40,16  L 39,16  L 39,17  Z  " style="fill:rgb(157, 157, 157); fill-opacity:1.000; stroke:none;" />
 <path d="  M 40,13  L 40,14  L 41,14  L 41,13  Z  " style="fill:rgb(157, 157, 157); fill-opacity:1.000; stroke:none;" />
 <path d="  M 41,16  L 41,15  L 40,15  L 40,16  Z  " style="fill:rgb(157, 157, 157); fill-opacity:1.000; stroke:none;" />
 <path d="  M 41,13  L 42,13  L 42,12  L 41,12  Z  " style="fill:rgb(157, 157, 157); fill-opacity:1.000; stroke:none;" />
 <path d="  M 41,15  L 42,15  L 42,14  L 41,14  Z  " style="fill:rgb(157, 157, 157); fill-opacity:1.000; stroke:none;" />
 <path d="  M 43,48  L 43,47  L 41,47  L 41,48  Z  " style="fill:rgb(157, 157, 157); fill-opacity:1.000; stroke:none;" />
 <path d="  M 42,11  L 42,12  L 44,12  L 44,11  Z  " style="fill:rgb(157, 157, 157); fill-opacity:1.000; stroke:none;" />
 <path d="  M 44,14  L 44,13  L 42,13  L 42,14  Z  " style="fill:rgb(157, 157, 157); fill-opacity:1.000; stroke:none;" />
 <path d="  M 42,46  L 43,46  L 43,45  L 42,45  Z  " style="fill:rgb(157, 157, 157); fill-opacity:1.000; stroke:none;" />
 <path d="  M 43,47  L 44,47  L 44,46  L 43,46  Z  " style="fill:rgb(157, 157, 157); fill-opacity:1.000; stroke:none;" />
 <path d="  M 44,11  L 45,11  L 45,10  L 44,10  Z  " style="fill:rgb(157, 157, 157); fill-opacity:1.000; stroke:none;" />
 <path d="  M 44,13  L 45,13  L 45,12  L 44,12  Z  " style="fill:rgb(157, 157, 157); fill-opacity:1.000; stroke:none;" />
 <path d="  M 50,31  L 51,31  L 51,30  L 50,30  Z  " style="fill:rgb(157, 157, 157); fill-opacity:1.000; stroke:none;" />
 <path d="  M 52,30  L 52,29  L 51,29  L 51,30  Z  " style="fill:rgb(157, 157, 157); fill-opacity:1.000; stroke:none;" />
 <path d="  M 53,5  L 52,5  L 52,6  L 53,6  Z  " style="fill:rgb(157, 157, 157); fill-opacity:1.000; stroke:none;" />
 <path d="  M 52,31  L 52,32  L 53,32  L 53,31  Z  " style="fill:rgb(157, 157, 157); fill-opacity:1.000; stroke:none;" />
 <path d="  M 54,4  L 53,4  L 53,5  L 54,5  Z  " style="fill:rgb(157, 157, 157); fill-opacity:1.000; stroke:none;" />
 <path d="  M 54,9  L 54,7  L 53,7  L 53,9  Z  " style="fill:rgb(157, 157, 157); fill-opacity:1.000; stroke:none;" />
 <path d="  M 55,32  L 53,32  L 53,33  L 54,33  L 54,34  L 55,34  Z  " style="fill:rgb(157, 157, 157); fill-opacity:1.000; stroke:none;" />
 <path d="  M 54,4  L 55,4  L 55,3  L 54,3  Z  " style="fill:rgb(157, 157, 157); fill-opacity:1.000; stroke:none;" />
 <path d="  M 54,5  L 54,6  L 55,6  L 55,5  Z  " style="fill:rgb(157, 157, 157); fill-opacity:1.000; stroke:none;" />
 <path d="  M 55,34  L 55,35  L 56,35  L 56,34  Z  " style="fill:rgb(157, 157, 157); fill-opacity:1.000; stroke:none;" />
 <path d="  M 56,2  L 56,3  L 57,3  L 57,2  Z  " style="fill:rgb(157, 157, 157); fill-opacity:1.000; stroke:none;" />
 <path d="  M 57,36  L 57,35  L 56,35  L 56,36  Z  " style="fill:rgb(157, 157, 157); fill-opacity:1.000; stroke:none;" />
 <path d="  M 57,1  L 57,2  L 58,2  L 58,1  Z  " style="fill:rgb(157, 157, 157); fill-opacity:1.000; stroke:none;" />
 <path d="  M 2,51  L 1,51  L 1,53  L 2,53  Z  " style="fill:rgb(83, 83, 83); fill-opacity:1.000; stroke:none;" />
 <path d="  M 2,51  L 3,51  L 3,50  L 2,50  Z  " style="fill:rgb(83, 83, 83); fill-opacity:1.000; stroke:none;" />
 <path d="  M 3,49  L 3,50  L 4,50  L 4,49  Z  " style="fill:rgb(83, 83, 83); fill-opacity:1.000; stroke:none;" />
 <path d="  M 5,48  L 5,49  L 6,49  L 6,48  Z  " style="fill:rgb(83, 83, 83); fill-opacity:1.000; stroke:none;" />
 <path d="  M 9,44  L 8,44  L 8,46  L 9,46  Z  " style="fill:rgb(83, 83, 83); fill-opacity:1.000; stroke:none;" />
 <path d="  M 10,49  L 12,49  L 12,50  L 14,50  L 14,49  L 13,49  L 13,48  L 11,48  L 11,47  L 10,47  L 10,46  L 9,46  L 9,48  L 10,48  Z  " style="fill:rgb(83, 83, 83); fill-opacity:1.000; stroke:none;" />
 <path d="  M 22,44  L 21,44  L 21,47  L 20,47  L 20,48  L 19,48  L 19,50  L 17,50  L 17,51  L 15,51  L 15,52  L 13,52  L 13,53  L 12,53  L 12,56  L 11,56  L 11,59  L 12,59  L 12,61  L 13,61  L 13,62  L 14,62  L 14,63  L 15,63  L 15,64  L 19,64  L 19,62  L 18,62  L 18,60  L 17,60  L 17,56  L 18,56  L 18,54  L 19,54  L 19,53  L 20,53  L 20,50  L 21,50  L 21,49  L 22,49  L 22,47  L 23,47  L 23,43  L 24,43  L 24,40  L 23,40  L 23,38  L 22,38  L 22,36  L 21,36  L 21,35  L 20,35  L 20,34  L 18,34  L 18,35  L 19,35  L 19,36  L 20,36  L 20,38  L 21,38  L 21,40  L 22,40  Z  " style="fill:rgb(83, 83, 83); fill-opacity:1.000; stroke:none;" />
 <path d="  M 13,18  L 14,18  L 14,20  L 15,20  L 15,21  L 16,21  L 16,22  L 17,22  L 17,23  L 19,23  L 19,24  L 21,24  L 21,23  L 20,23  L 20,22  L 18,22  L 18,20  L 17,20  L 17,18  L 16,18  L 16,13  L 15,13  L 15,11  L 14,11  L 14,8  L 13,8  L 13,10  L 12,10  L 12,14  L 13,14  Z  " style="fill:rgb(83, 83, 83); fill-opacity:1.000; stroke:none;" />
 <path d="  M 17,6  L 18,6  L 18,8  L 19,8  L 19,7  L 20,7  L 20,6  L 19,6  L 19,4  L 18,4  L 18,0  L 16,0  L 16,3  L 17,3  Z  " style="fill:rgb(83, 83, 83); fill-opacity:1.000; stroke:none;" />
 <path d="  M 17,32  L 16,32  L 16,33  L 17,33  Z  " style="fill:rgb(83, 83, 83); fill-opacity:1.000; stroke:none;" />
 <path d="  M 18,33  L 17,33  L 17,34  L 18,34  Z  " style="fill:rgb(83, 83, 83); fill-opacity:1.000; stroke:none;" />
 <path d="  M 29,24  L 29,23  L 30,23  L 30,22  L 28,22  L 28,23  L 26,23  L 26,24  L 25,24  L 25,26  L 24,26  L 24,27  L 22,27  L 22,28  L 24,28  L 24,29  L 25,29  L 25,27  L 26,27  L 26,26  L 27,26  L 27,25  L 28,25  L 28,24  Z  " style="fill:rgb(83, 83, 83); fill-opacity:1.000; stroke:none;" />
 <path d="  M 29,0  L 29,1  L 30,1  L 30,2  L 31,2  L 31,3  L 32,3  L 32,4  L 33,4  L 33,3  L 34,3  L 34,0  Z  " style="fill:rgb(83, 83, 83); fill-opacity:1.000; stroke:none;" />
 <path d="  M 30,22  L 31,22  L 31,21  L 30,21  Z  " style="fill:rgb(83, 83, 83); fill-opacity:1.000; stroke:none;" />
 <path d="  M 31,21  L 32,21  L 32,20  L 31,20  Z  " style="fill:rgb(83, 83, 83); fill-opacity:1.000; stroke:none;" />
 <path d="  M 45,59  L 43,59  L 43,58  L 41,58  L 41,59  L 39,59  L 39,60  L 38,60  L 38,61  L 37,61  L 37,62  L 35,62  L 35,63  L 34,63  L 34,64  L 39,64  L 39,62  L 40,62  L 40,61  L 41,61  L 41,60  L 44,60  L 44,61  L 45,61  L 45,62  L 46,62  L 46,60  L 45,60  Z  " style="fill:rgb(83, 83, 83); fill-opacity:1.000; stroke:none;" />
 <path d="  M 37,20  L 36,20  L 36,22  L 37,22  Z  " style="fill:rgb(83, 83, 83); fill-opacity:1.000; stroke:none;" />
 <path d="  M 38,20  L 38,18  L 37,18  L 37,20  Z  " style="fill:rgb(83, 83, 83); fill-opacity:1.000; stroke:none;" />
 <path d="  M 38,17  L 38,18  L 41,18  L 41,17  L 44,17  L 44,16  L 40,16  L 40,17  Z  " style="fill:rgb(83, 83, 83); fill-opacity:1.000; stroke:none;" />
 <path d="  M 45,4  L 44,4  L 44,7  L 45,7  Z  " style="fill:rgb(83, 83, 83); fill-opacity:1.000; stroke:none;" />
 <path d="  M 47,36  L 47,38  L 46,38  L 46,41  L 45,41  L 45,43  L 44,43  L 44,48  L 45,48  L 45,51  L 46,51  L 46,52  L 47,52  L 47,54  L 48,54  L 48,56  L 49,56  L 49,57  L 50,57  L 50,58  L 51,58  L 51,57  L 52,57  L 52,56  L 53,56  L 53,55  L 56,55  L 56,54  L 59,54  L 59,53  L 60,53  L 60,52  L 61,52  L 61,51  L 62,51  L 62,50  L 61,50  L 61,49  L 60,49  L 60,51  L 59,51  L 59,52  L 57,52  L 57,53  L 53,53  L 53,52  L 51,52  L 51,51  L 50,51  L 50,50  L 49,50  L 49,49  L 48,49  L 48,46  L 47,46  L 47,43  L 48,43  L 48,40  L 49,40  L 49,38  L 50,38  L 50,34  L 49,34  L 49,35  L 48,35  L 48,36  Z  " style="fill:rgb(83, 83, 83); fill-opacity:1.000; stroke:none;" />
 <path d="  M 45,2  L 45,4  L 46,4  L 46,2  Z  " style="fill:rgb(83, 83, 83); fill-opacity:1.000; stroke:none;" />
 <path d="  M 46,1  L 46,2  L 47,2  L 47,1  Z  " style="fill:rgb(83, 83, 83); fill-opacity:1.000; stroke:none;" />
 <path d="  M 47,62  L 46,62  L 46,63  L 47,63  Z  " style="fill:rgb(83, 83, 83); fill-opacity:1.000; stroke:none;" />
 <path d="  M 47,64  L 48,64  L 48,63  L 47,63  Z  " style="fill:rgb(83, 83, 83); fill-opacity:1.000; stroke:none;" />
 <path d="  M 49,5  L 48,5  L 48,8  L 49,8  L 49,10  L 50,10  L 50,12  L 51,12  L 51,14  L 52,14  L 52,15  L 53,15  L 53,16  L 54,16  L 54,18  L 55,18  L 55,19  L 56,19  L 56,20  L 57,20  L 57,21  L 59,21  L 59,22  L 62,22  L 62,21  L 60,21  L 60,20  L 58,20  L 58,19  L 57,19  L 57,17  L 56,17  L 56,15  L 55,15  L 55,13  L 56,13  L 56,10  L 55,10  L 55,12  L 54,12  L 54,14  L 53,14  L 53,12  L 52,12  L 52,10  L 51,10  L 51,8  L 50,8  L 50,2  L 49,2  Z  " style="fill:rgb(83, 83, 83); fill-opacity:1.000; stroke:none;" />
 <path d="  M 54,28  L 54,27  L 55,27  L 55,26  L 53,26  L 53,27  L 52,27  L 52,28  Z  " style="fill:rgb(83, 83, 83); fill-opacity:1.000; stroke:none;" />
 <path d="  M 53,51  L 55,51  L 55,50  L 53,50  Z  " style="fill:rgb(83, 83, 83); fill-opacity:1.000; stroke:none;" />
 <path d="  M 55,25  L 55,26  L 56,26  L 56,25  Z  " style="fill:rgb(83, 83, 83); fill-opacity:1.000; stroke:none;" />
 <path d="  M 58,49  L 55,49  L 55,50  L 58,50  Z  " style="fill:rgb(83, 83, 83); fill-opacity:1.000; stroke:none;" />
 <path d="  M 58,10  L 58,8  L 57,8  L 57,9  L 56,9  L 56,10  Z  " style="fill:rgb(83, 83, 83); fill-opacity:1.000; stroke:none;" />
 <path d="  M 63,23  L 63,22  L 62,22  L 62,23  Z  " style="fill:rgb(83, 83, 83); fill-opacity:1.000; stroke:none;" />
 <path d="  M 4,26  L 3,26  L 3,28  L 4,28  Z  " style="fill:rgb(107, 107, 107); fill-opacity:1.000; stroke:none;" />
 <path d="  M 4,30  L 5,30  L 5,28  L 4,28  Z  " style="fill:rgb(107, 107, 107); fill-opacity:1.000; stroke:none;" />
 <path d="  M 5,32  L 6,32  L 6,30  L 5,30  Z  " style="fill:rgb(107, 107, 107); fill-opacity:1.000; stroke:none;" />
 <path d="  M 7,28  L 6,28  L 6,30  L 7,30  Z  " style="fill:rgb(107, 107, 107); fill-opacity:1.000; stroke:none;" />
 <path d="  M 7,28  L 8,28  L 8,27  L 7,27  Z  " style="fill:rgb(107, 107, 107); fill-opacity:1.000; stroke:none;" />
 <path d="  M 18,27  L 19,27  L 19,26  L 18,26  L 18,25  L 17,25  L 17,24  L 16,24  L 16,22  L 15,22  L 15,21  L 14,21  L 14,19  L 13,19  L 13,15  L 12,15  L 12,12  L 11,12  L 11,13  L 10,13  L 10,14  L 9,14  L 9,17  L 8,17  L 8,21  L 9,21  L 9,22  L 10,22  L 10,23  L 11,23  L 11,24  L 12,24  L 12,26  L 13,26  L 13,27  L 14,27  L 14,29  L 15,29  L 15,30  L 16,30  L 16,29  L 17,29  L 17,28  L 18,28  Z  " style="fill:rgb(107, 107, 107); fill-opacity:1.000; stroke:none;" />
 <path d="  M 8,25  L 8,27  L 9,27  L 9,26  L 10,26  L 10,24  L 9,24  L 9,25  Z  " style="fill:rgb(107, 107, 107); fill-opacity:1.000; stroke:none;" />
 <path d="  M 11,56  L 10,56  L 10,59  L 11,59  Z  " style="fill:rgb(107, 107, 107); fill-opacity:1.000; stroke:none;" />
 <path d="  M 11,55  L 12,55  L 12,54  L 11,54  Z  " style="fill:rgb(107, 107, 107); fill-opacity:1.000; stroke:none;" />
 <path d="  M 12,60  L 11,60  L 11,61  L 12,61  Z  " style="fill:rgb(107, 107, 107); fill-opacity:1.000; stroke:none;" />
 <path d="  M 12,9  L 13,9  L 13,7  L 14,7  L 14,10  L 15,10  L 15,12  L 17,12  L 17,11  L 18,11  L 18,7  L 17,7  L 17,4  L 16,4  L 16,0  L 14,0  L 14,2  L 13,2  L 13,6  L 12,6  Z  " style="fill:rgb(107, 107, 107); fill-opacity:1.000; stroke:none;" />
 <path d="  M 17,38  L 18,38  L 18,41  L 19,41  L 19,44  L 18,44  L 18,45  L 17,45  L 17,46  L 16,46  L 16,47  L 15,47  L 15,48  L 13,48  L 13,49  L 14,49  L 14,50  L 12,50  L 12,52  L 14,52  L 14,51  L 16,51  L 16,50  L 18,50  L 18,49  L 19,49  L 19,47  L 20,47  L 20,46  L 21,46  L 21,43  L 22,43  L 22,41  L 21,41  L 21,39  L 20,39  L 20,37  L 19,37  L 19,36  L 18,36  L 18,35  L 17,35  L 17,33  L 15,33  L 15,34  L 16,34  L 16,37  L 17,37  Z  " style="fill:rgb(107, 107, 107); fill-opacity:1.000; stroke:none;" />
 <path d="  M 12,63  L 13,63  L 13,62  L 12,62  Z  " style="fill:rgb(107, 107, 107); fill-opacity:1.000; stroke:none;" />
 <path d="  M 13,64  L 14,64  L 14,63  L 13,63  Z  " style="fill:rgb(107, 107, 107); fill-opacity:1.000; stroke:none;" />
 <path d="  M 17,30  L 17,31  L 16,31  L 16,32  L 17,32  L 17,33  L 19,33  L 19,34  L 20,34  L 20,32  L 19,32  L 19,30  Z  " style="fill:rgb(107, 107, 107); fill-opacity:1.000; stroke:none;" />
 <path d="  M 21,61  L 21,60  L 20,60  L 20,59  L 19,59  L 19,55  L 18,55  L 18,57  L 17,57  L 17,59  L 18,59  L 18,61  L 19,61  L 19,64  L 21,64  L 21,63  L 20,63  L 20,61  Z  " style="fill:rgb(107, 107, 107); fill-opacity:1.000; stroke:none;" />
 <path d="  M 20,0  L 18,0  L 18,3  L 19,3  L 19,5  L 20,5  L 20,6  L 22,6  L 22,5  L 21,5  L 21,3  L 20,3  Z  " style="fill:rgb(107, 107, 107); fill-opacity:1.000; stroke:none;" />
 <path d="  M 25,25  L 25,24  L 21,24  L 21,25  Z  " style="fill:rgb(107, 107, 107); fill-opacity:1.000; stroke:none;" />
 <path d="  M 22,62  L 22,61  L 21,61  L 21,62  Z  " style="fill:rgb(107, 107, 107); fill-opacity:1.000; stroke:none;" />
 <path d="  M 22,5  L 23,5  L 23,4  L 22,4  Z  " style="fill:rgb(107, 107, 107); fill-opacity:1.000; stroke:none;" />
 <path d="  M 26,49  L 25,49  L 25,47  L 24,47  L 24,44  L 23,44  L 23,49  L 24,49  L 24,51  L 25,51  L 25,54  L 26,54  Z  " style="fill:rgb(107, 107, 107); fill-opacity:1.000; stroke:none;" />
 <path d="  M 24,64  L 25,64  L 25,62  L 23,62  L 23,63  L 24,63  Z  " style="fill:rgb(107, 107, 107); fill-opacity:1.000; stroke:none;" />
 <path d="  M 26,2  L 26,1  L 24,1  L 24,2  Z  " style="fill:rgb(107, 107, 107); fill-opacity:1.000; stroke:none;" />
 <path d="  M 24,3  L 24,4  L 25,4  L 25,3  Z  " style="fill:rgb(107, 107, 107); fill-opacity:1.000; stroke:none;" />
 <path d="  M 27,3  L 27,2  L 26,2  L 26,3  Z  " style="fill:rgb(107, 107, 107); fill-opacity:1.000; stroke:none;" />
 <path d="  M 34,19  L 34,20  L 33,20  L 33,21  L 32,21  L 32,22  L 31,22  L 31,23  L 29,23  L 29,25  L 28,25  L 28,26  L 27,26  L 27,27  L 26,27  L 26,28  L 29,28  L 29,27  L 31,27  L 31,29  L 33,29  L 33,28  L 34,28  L 34,26  L 33,26  L 33,25  L 32,25  L 32,24  L 37,24  L 37,23  L 36,23  L 36,19  Z  " style="fill:rgb(107, 107, 107); fill-opacity:1.000; stroke:none;" />
 <path d="  M 29,2  L 29,1  L 27,1  L 27,2  Z  " style="fill:rgb(107, 107, 107); fill-opacity:1.000; stroke:none;" />
 <path d="  M 30,2  L 29,2  L 29,3  L 30,3  Z  " style="fill:rgb(107, 107, 107); fill-opacity:1.000; stroke:none;" />
 <path d="  M 30,3  L 30,4  L 32,4  L 32,3  Z  " style="fill:rgb(107, 107, 107); fill-opacity:1.000; stroke:none;" />
 <path d="  M 33,6  L 33,7  L 34,7  L 34,5  L 32,5  L 32,6  Z  " style="fill:rgb(107, 107, 107); fill-opacity:1.000; stroke:none;" />
 <path d="  M 32,63  L 32,64  L 33,64  L 33,63  Z  " style="fill:rgb(107, 107, 107); fill-opacity:1.000; stroke:none;" />
 <path d="  M 34,61  L 34,62  L 33,62  L 33,63  L 35,63  L 35,62  L 36,62  L 36,61  Z  " style="fill:rgb(107, 107, 107); fill-opacity:1.000; stroke:none;" />
 <path d="  M 36,4  L 36,3  L 35,3  L 35,2  L 34,2  L 34,5  L 35,5  L 35,4  Z  " style="fill:rgb(107, 107, 107); fill-opacity:1.000; stroke:none;" />
 <path d="  M 34,30  L 35,30  L 35,31  L 36,31  L 36,30  L 37,30  L 37,29  L 36,29  L 36,28  L 35,28  L 35,29  L 34,29  Z  " style="fill:rgb(107, 107, 107); fill-opacity:1.000; stroke:none;" />
 <path d="  M 35,27  L 36,27  L 36,26  L 35,26  Z  " style="fill:rgb(107, 107, 107); fill-opacity:1.000; stroke:none;" />
 <path d="  M 38,5  L 37,5  L 37,4  L 36,4  L 36,6  L 37,6  L 37,7  L 38,7  Z  " style="fill:rgb(107, 107, 107); fill-opacity:1.000; stroke:none;" />
 <path d="  M 37,18  L 36,18  L 36,19  L 37,19  Z  " style="fill:rgb(107, 107, 107); fill-opacity:1.000; stroke:none;" />
 <path d="  M 37,60  L 36,60  L 36,61  L 37,61  Z  " style="fill:rgb(107, 107, 107); fill-opacity:1.000; stroke:none;" />
 <path d="  M 46,18  L 47,18  L 47,17  L 48,17  L 48,16  L 47,16  L 47,15  L 45,15  L 45,16  L 44,16  L 44,17  L 42,17  L 42,18  L 39,18  L 39,19  L 38,19  L 38,21  L 37,21  L 37,23  L 39,23  L 39,22  L 40,22  L 40,21  L 42,21  L 42,20  L 46,20  Z  " style="fill:rgb(107, 107, 107); fill-opacity:1.000; stroke:none;" />
 <path d="  M 39,8  L 40,8  L 40,6  L 39,6  L 39,7  L 38,7  L 38,9  L 39,9  Z  " style="fill:rgb(107, 107, 107); fill-opacity:1.000; stroke:none;" />
 <path d="  M 38,58  L 38,59  L 40,59  L 40,58  Z  " style="fill:rgb(107, 107, 107); fill-opacity:1.000; stroke:none;" />
 <path d="  M 48,55  L 47,55  L 47,53  L 46,53  L 46,56  L 43,56  L 43,57  L 40,57  L 40,58  L 44,58  L 44,59  L 46,59  L 46,61  L 47,61  L 47,63  L 48,63  L 48,64  L 52,64  L 52,62  L 50,62  L 50,61  L 48,61  L 48,60  L 49,60  L 49,59  L 50,59  L 50,60  L 52,60  L 52,59  L 51,59  L 51,58  L 49,58  L 49,57  L 48,57  Z  " style="fill:rgb(107, 107, 107); fill-opacity:1.000; stroke:none;" />
 <path d="  M 41,61  L 40,61  L 40,62  L 41,62  Z  " style="fill:rgb(107, 107, 107); fill-opacity:1.000; stroke:none;" />
 <path d="  M 41,61  L 42,61  L 42,60  L 41,60  Z  " style="fill:rgb(107, 107, 107); fill-opacity:1.000; stroke:none;" />
 <path d="  M 45,42  L 45,40  L 46,40  L 46,37  L 47,37  L 47,35  L 48,35  L 48,33  L 47,33  L 47,31  L 46,31  L 46,34  L 45,34  L 45,37  L 44,37  L 44,39  L 43,39  L 43,41  L 42,41  L 42,43  L 43,43  L 43,45  L 44,45  L 44,42  Z  " style="fill:rgb(107, 107, 107); fill-opacity:1.000; stroke:none;" />
 <path d="  M 44,13  L 44,12  L 43,12  L 43,13  Z  " style="fill:rgb(107, 107, 107); fill-opacity:1.000; stroke:none;" />
 <path d="  M 45,12  L 45,11  L 44,11  L 44,12  Z  " style="fill:rgb(107, 107, 107); fill-opacity:1.000; stroke:none;" />
 <path d="  M 45,49  L 44,49  L 44,51  L 45,51  Z  " style="fill:rgb(107, 107, 107); fill-opacity:1.000; stroke:none;" />
 <path d="  M 46,6  L 46,5  L 45,5  L 45,6  Z  " style="fill:rgb(107, 107, 107); fill-opacity:1.000; stroke:none;" />
 <path d="  M 45,52  L 46,52  L 46,51  L 45,51  Z  " style="fill:rgb(107, 107, 107); fill-opacity:1.000; stroke:none;" />
 <path d="  M 46,3  L 46,4  L 47,4  L 47,3  Z  " style="fill:rgb(107, 107, 107); fill-opacity:1.000; stroke:none;" />
 <path d="  M 51,1  L 51,0  L 47,0  L 47,3  L 48,3  L 48,2  L 49,2  L 49,1  Z  " style="fill:rgb(107, 107, 107); fill-opacity:1.000; stroke:none;" />
 <path d="  M 51,15  L 51,13  L 50,13  L 50,11  L 49,11  L 49,9  L 48,9  L 48,6  L 47,6  L 47,11  L 48,11  L 48,14  L 49,14  L 49,15  L 50,15  L 50,17  L 51,17  L 51,18  L 52,18  L 52,20  L 54,20  L 54,21  L 55,21  L 55,22  L 58,22  L 58,21  L 56,21  L 56,20  L 55,20  L 55,19  L 54,19  L 54,17  L 53,17  L 53,16  L 52,16  L 52,15  Z  " style="fill:rgb(107, 107, 107); fill-opacity:1.000; stroke:none;" />
 <path d="  M 49,29  L 50,29  L 50,28  L 51,28  L 51,27  L 52,27  L 52,26  L 54,26  L 54,25  L 55,25  L 55,24  L 53,24  L 53,25  L 51,25  L 51,26  L 49,26  L 49,27  L 48,27  L 48,29  L 47,29  L 47,31  L 48,31  L 48,30  L 49,30  Z  " style="fill:rgb(107, 107, 107); fill-opacity:1.000; stroke:none;" />
 <path d="  M 48,49  L 49,49  L 49,48  L 48,48  Z  " style="fill:rgb(107, 107, 107); fill-opacity:1.000; stroke:none;" />
 <path d="  M 49,50  L 50,50  L 50,49  L 49,49  Z  " style="fill:rgb(107, 107, 107); fill-opacity:1.000; stroke:none;" />
 <path d="  M 51,4  L 50,4  L 50,7  L 51,7  L 51,9  L 52,9  L 52,11  L 53,11  L 53,13  L 54,13  L 54,10  L 53,10  L 53,8  L 52,8  L 52,6  L 51,6  Z  " style="fill:rgb(107, 107, 107); fill-opacity:1.000; stroke:none;" />
 <path d="  M 50,51  L 51,51  L 51,50  L 50,50  Z  " style="fill:rgb(107, 107, 107); fill-opacity:1.000; stroke:none;" />
 <path d="  M 58,51  L 59,51  L 59,50  L 60,50  L 60,49  L 58,49  L 58,50  L 55,50  L 55,51  L 52,51  L 52,52  L 54,52  L 54,53  L 56,53  L 56,52  L 58,52  Z  " style="fill:rgb(107, 107, 107); fill-opacity:1.000; stroke:none;" />
 <path d="  M 52,61  L 53,61  L 53,60  L 52,60  Z  " style="fill:rgb(107, 107, 107); fill-opacity:1.000; stroke:none;" />
 <path d="  M 53,62  L 54,62  L 54,61  L 53,61  Z  " style="fill:rgb(107, 107, 107); fill-opacity:1.000; stroke:none;" />
 <path d="  M 55,62  L 54,62  L 54,63  L 55,63  Z  " style="fill:rgb(107, 107, 107); fill-opacity:1.000; stroke:none;" />
 <path d="  M 61,53  L 60,53  L 60,54  L 57,54  L 57,55  L 55,55  L 55,56  L 57,56  L 57,57  L 60,57  L 60,58  L 62,58  L 62,57  L 61,57  L 61,54  L 62,54  L 62,53  L 63,53  L 63,51  L 62,51  L 62,52  L 61,52  Z  " style="fill:rgb(107, 107, 107); fill-opacity:1.000; stroke:none;" />
 <path d="  M 56,63  L 55,63  L 55,64  L 56,64  Z  " style="fill:rgb(107, 107, 107); fill-opacity:1.000; stroke:none;" />
 <path d="  M 56,10  L 56,11  L 57,11  L 57,10  Z  " style="fill:rgb(107, 107, 107); fill-opacity:1.000; stroke:none;" />
 <path d="  M 57,23  L 56,23  L 56,24  L 57,24  Z  " style="fill:rgb(107, 107, 107); fill-opacity:1.000; stroke:none;" />
 <path d="  M 12,55  L 11,55  L 11,56  L 12,56  Z  " style="fill:rgb(97, 97, 97); fill-opacity:1.000; stroke:none;" />
 <path d="  M 11,60  L 12,60  L 12,59  L 11,59  Z  " style="fill:rgb(97, 97, 97); fill-opacity:1.000; stroke:none;" />
 <path d="  M 13,9  L 12,9  L 12,10  L 13,10  Z  " style="fill:rgb(97, 97, 97); fill-opacity:1.000; stroke:none;" />
 <path d="  M 13,15  L 13,14  L 12,14  L 12,15  Z  " style="fill:rgb(97, 97, 97); fill-opacity:1.000; stroke:none;" />
 <path d="  M 12,52  L 12,53  L 13,53  L 13,52  Z  " style="fill:rgb(97, 97, 97); fill-opacity:1.000; stroke:none;" />
 <path d="  M 13,62  L 13,61  L 12,61  L 12,62  Z  " style="fill:rgb(97, 97, 97); fill-opacity:1.000; stroke:none;" />
 <path d="  M 13,7  L 13,8  L 14,8  L 14,7  Z  " style="fill:rgb(97, 97, 97); fill-opacity:1.000; stroke:none;" />
 <path d="  M 14,18  L 13,18  L 13,19  L 14,19  Z  " style="fill:rgb(97, 97, 97); fill-opacity:1.000; stroke:none;" />
 <path d="  M 14,63  L 14,62  L 13,62  L 13,63  Z  " style="fill:rgb(97, 97, 97); fill-opacity:1.000; stroke:none;" />
 <path d="  M 14,10  L 14,11  L 15,11  L 15,10  Z  " style="fill:rgb(97, 97, 97); fill-opacity:1.000; stroke:none;" />
 <path d="  M 15,20  L 14,20  L 14,21  L 15,21  Z  " style="fill:rgb(97, 97, 97); fill-opacity:1.000; stroke:none;" />
 <path d="  M 14,52  L 15,52  L 15,51  L 14,51  Z  " style="fill:rgb(97, 97, 97); fill-opacity:1.000; stroke:none;" />
 <path d="  M 14,63  L 14,64  L 15,64  L 15,63  Z  " style="fill:rgb(97, 97, 97); fill-opacity:1.000; stroke:none;" />
 <path d="  M 15,12  L 15,13  L 16,13  L 16,12  Z  " style="fill:rgb(97, 97, 97); fill-opacity:1.000; stroke:none;" />
 <path d="  M 16,22  L 16,21  L 15,21  L 15,22  Z  " style="fill:rgb(97, 97, 97); fill-opacity:1.000; stroke:none;" />
 <path d="  M 16,32  L 15,32  L 15,33  L 16,33  Z  " style="fill:rgb(97, 97, 97); fill-opacity:1.000; stroke:none;" />
 <path d="  M 17,3  L 16,3  L 16,4  L 17,4  Z  " style="fill:rgb(97, 97, 97); fill-opacity:1.000; stroke:none;" />
 <path d="  M 17,22  L 16,22  L 16,23  L 17,23  Z  " style="fill:rgb(97, 97, 97); fill-opacity:1.000; stroke:none;" />
 <path d="  M 17,50  L 16,50  L 16,51  L 17,51  Z  " style="fill:rgb(97, 97, 97); fill-opacity:1.000; stroke:none;" />
 <path d="  M 17,6  L 17,7  L 18,7  L 18,6  Z  " style="fill:rgb(97, 97, 97); fill-opacity:1.000; stroke:none;" />
 <path d="  M 17,35  L 18,35  L 18,34  L 17,34  Z  " style="fill:rgb(97, 97, 97); fill-opacity:1.000; stroke:none;" />
 <path d="  M 18,56  L 17,56  L 17,57  L 18,57  Z  " style="fill:rgb(97, 97, 97); fill-opacity:1.000; stroke:none;" />
 <path d="  M 17,60  L 18,60  L 18,59  L 17,59  Z  " style="fill:rgb(97, 97, 97); fill-opacity:1.000; stroke:none;" />
 <path d="  M 19,4  L 19,3  L 18,3  L 18,4  Z  " style="fill:rgb(97, 97, 97); fill-opacity:1.000; stroke:none;" />
 <path d="  M 19,8  L 18,8  L 18,9  L 19,9  Z  " style="fill:rgb(97, 97, 97); fill-opacity:1.000; stroke:none;" />
 <path d="  M 19,24  L 19,23  L 18,23  L 18,24  Z  " style="fill:rgb(97, 97, 97); fill-opacity:1.000; stroke:none;" />
 <path d="  M 19,34  L 19,33  L 18,33  L 18,34  Z  " style="fill:rgb(97, 97, 97); fill-opacity:1.000; stroke:none;" />
 <path d="  M 19,35  L 18,35  L 18,36  L 19,36  Z  " style="fill:rgb(97, 97, 97); fill-opacity:1.000; stroke:none;" />
 <path d="  M 18,50  L 19,50  L 19,49  L 18,49  Z  " style="fill:rgb(97, 97, 97); fill-opacity:1.000; stroke:none;" />
 <path d="  M 19,54  L 18,54  L 18,55  L 19,55  Z  " style="fill:rgb(97, 97, 97); fill-opacity:1.000; stroke:none;" />
 <path d="  M 18,61  L 18,62  L 19,62  L 19,61  Z  " style="fill:rgb(97, 97, 97); fill-opacity:1.000; stroke:none;" />
 <path d="  M 19,6  L 20,6  L 20,5  L 19,5  Z  " style="fill:rgb(97, 97, 97); fill-opacity:1.000; stroke:none;" />
 <path d="  M 20,37  L 20,36  L 19,36  L 19,37  Z  " style="fill:rgb(97, 97, 97); fill-opacity:1.000; stroke:none;" />
 <path d="  M 19,47  L 19,48  L 20,48  L 20,47  Z  " style="fill:rgb(97, 97, 97); fill-opacity:1.000; stroke:none;" />
 <path d="  M 21,38  L 20,38  L 20,39  L 21,39  Z  " style="fill:rgb(97, 97, 97); fill-opacity:1.000; stroke:none;" />
 <path d="  M 20,46  L 20,47  L 21,47  L 21,46  Z  " style="fill:rgb(97, 97, 97); fill-opacity:1.000; stroke:none;" />
 <path d="  M 22,41  L 22,40  L 21,40  L 21,41  Z  " style="fill:rgb(97, 97, 97); fill-opacity:1.000; stroke:none;" />
 <path d="  M 21,44  L 22,44  L 22,43  L 21,43  Z  " style="fill:rgb(97, 97, 97); fill-opacity:1.000; stroke:none;" />
 <path d="  M 22,49  L 21,49  L 21,50  L 22,50  Z  " style="fill:rgb(97, 97, 97); fill-opacity:1.000; stroke:none;" />
 <path d="  M 23,47  L 22,47  L 22,48  L 23,48  Z  " style="fill:rgb(97, 97, 97); fill-opacity:1.000; stroke:none;" />
 <path d="  M 23,26  L 23,27  L 24,27  L 24,26  Z  " style="fill:rgb(97, 97, 97); fill-opacity:1.000; stroke:none;" />
 <path d="  M 23,43  L 23,44  L 24,44  L 24,43  Z  " style="fill:rgb(97, 97, 97); fill-opacity:1.000; stroke:none;" />
 <path d="  M 25,26  L 25,25  L 24,25  L 24,26  Z  " style="fill:rgb(97, 97, 97); fill-opacity:1.000; stroke:none;" />
 <path d="  M 25,27  L 25,28  L 26,28  L 26,27  Z  " style="fill:rgb(97, 97, 97); fill-opacity:1.000; stroke:none;" />
 <path d="  M 27,27  L 27,26  L 26,26  L 26,27  Z  " style="fill:rgb(97, 97, 97); fill-opacity:1.000; stroke:none;" />
 <path d="  M 27,26  L 28,26  L 28,25  L 27,25  Z  " style="fill:rgb(97, 97, 97); fill-opacity:1.000; stroke:none;" />
 <path d="  M 29,0  L 28,0  L 28,1  L 29,1  Z  " style="fill:rgb(97, 97, 97); fill-opacity:1.000; stroke:none;" />
 <path d="  M 28,24  L 28,25  L 29,25  L 29,24  Z  " style="fill:rgb(97, 97, 97); fill-opacity:1.000; stroke:none;" />
 <path d="  M 29,1  L 29,2  L 30,2  L 30,1  Z  " style="fill:rgb(97, 97, 97); fill-opacity:1.000; stroke:none;" />
 <path d="  M 31,3  L 31,2  L 30,2  L 30,3  Z  " style="fill:rgb(97, 97, 97); fill-opacity:1.000; stroke:none;" />
 <path d="  M 31,23  L 31,22  L 30,22  L 30,23  Z  " style="fill:rgb(97, 97, 97); fill-opacity:1.000; stroke:none;" />
 <path d="  M 32,21  L 31,21  L 31,22  L 32,22  Z  " style="fill:rgb(97, 97, 97); fill-opacity:1.000; stroke:none;" />
 <path d="  M 33,5  L 33,4  L 32,4  L 32,5  Z  " style="fill:rgb(97, 97, 97); fill-opacity:1.000; stroke:none;" />
 <path d="  M 33,20  L 32,20  L 32,21  L 33,21  Z  " style="fill:rgb(97, 97, 97); fill-opacity:1.000; stroke:none;" />
 <path d="  M 34,3  L 33,3  L 33,4  L 34,4  Z  " style="fill:rgb(97, 97, 97); fill-opacity:1.000; stroke:none;" />
 <path d="  M 33,63  L 33,64  L 34,64  L 34,63  Z  " style="fill:rgb(97, 97, 97); fill-opacity:1.000; stroke:none;" />
 <path d="  M 35,0  L 34,0  L 34,1  L 35,1  Z  " style="fill:rgb(97, 97, 97); fill-opacity:1.000; stroke:none;" />
 <path d="  M 36,20  L 37,20  L 37,19  L 36,19  Z  " style="fill:rgb(97, 97, 97); fill-opacity:1.000; stroke:none;" />
 <path d="  M 37,23  L 37,22  L 36,22  L 36,23  Z  " style="fill:rgb(97, 97, 97); fill-opacity:1.000; stroke:none;" />
 <path d="  M 36,62  L 37,62  L 37,61  L 36,61  Z  " style="fill:rgb(97, 97, 97); fill-opacity:1.000; stroke:none;" />
 <path d="  M 37,20  L 37,21  L 38,21  L 38,20  Z  " style="fill:rgb(97, 97, 97); fill-opacity:1.000; stroke:none;" />
 <path d="  M 38,60  L 37,60  L 37,61  L 38,61  Z  " style="fill:rgb(97, 97, 97); fill-opacity:1.000; stroke:none;" />
 <path d="  M 38,18  L 38,19  L 39,19  L 39,18  Z  " style="fill:rgb(97, 97, 97); fill-opacity:1.000; stroke:none;" />
 <path d="  M 39,59  L 38,59  L 38,60  L 39,60  Z  " style="fill:rgb(97, 97, 97); fill-opacity:1.000; stroke:none;" />
 <path d="  M 39,63  L 40,63  L 40,62  L 39,62  Z  " style="fill:rgb(97, 97, 97); fill-opacity:1.000; stroke:none;" />
 <path d="  M 40,58  L 40,59  L 41,59  L 41,58  Z  " style="fill:rgb(97, 97, 97); fill-opacity:1.000; stroke:none;" />
 <path d="  M 41,18  L 42,18  L 42,17  L 41,17  Z  " style="fill:rgb(97, 97, 97); fill-opacity:1.000; stroke:none;" />
 <path d="  M 44,58  L 43,58  L 43,59  L 44,59  Z  " style="fill:rgb(97, 97, 97); fill-opacity:1.000; stroke:none;" />
 <path d="  M 45,8  L 45,7  L 44,7  L 44,8  Z  " style="fill:rgb(97, 97, 97); fill-opacity:1.000; stroke:none;" />
 <path d="  M 44,15  L 44,16  L 45,16  L 45,15  Z  " style="fill:rgb(97, 97, 97); fill-opacity:1.000; stroke:none;" />
 <path d="  M 44,43  L 45,43  L 45,42  L 44,42  Z  " style="fill:rgb(97, 97, 97); fill-opacity:1.000; stroke:none;" />
 <path d="  M 45,49  L 45,48  L 44,48  L 44,49  Z  " style="fill:rgb(97, 97, 97); fill-opacity:1.000; stroke:none;" />
 <path d="  M 45,4  L 45,5  L 46,5  L 46,4  Z  " style="fill:rgb(97, 97, 97); fill-opacity:1.000; stroke:none;" />
 <path d="  M 45,40  L 45,41  L 46,41  L 46,40  Z  " style="fill:rgb(97, 97, 97); fill-opacity:1.000; stroke:none;" />
 <path d="  M 46,59  L 45,59  L 45,60  L 46,60  Z  " style="fill:rgb(97, 97, 97); fill-opacity:1.000; stroke:none;" />
 <path d="  M 46,3  L 47,3  L 47,2  L 46,2  Z  " style="fill:rgb(97, 97, 97); fill-opacity:1.000; stroke:none;" />
 <path d="  M 46,37  L 46,38  L 47,38  L 47,37  Z  " style="fill:rgb(97, 97, 97); fill-opacity:1.000; stroke:none;" />
 <path d="  M 46,53  L 47,53  L 47,52  L 46,52  Z  " style="fill:rgb(97, 97, 97); fill-opacity:1.000; stroke:none;" />
 <path d="  M 46,62  L 47,62  L 47,61  L 46,61  Z  " style="fill:rgb(97, 97, 97); fill-opacity:1.000; stroke:none;" />
 <path d="  M 48,36  L 48,35  L 47,35  L 47,36  Z  " style="fill:rgb(97, 97, 97); fill-opacity:1.000; stroke:none;" />
 <path d="  M 48,54  L 47,54  L 47,55  L 48,55  Z  " style="fill:rgb(97, 97, 97); fill-opacity:1.000; stroke:none;" />
 <path d="  M 49,5  L 49,4  L 48,4  L 48,5  Z  " style="fill:rgb(97, 97, 97); fill-opacity:1.000; stroke:none;" />
 <path d="  M 48,8  L 48,9  L 49,9  L 49,8  Z  " style="fill:rgb(97, 97, 97); fill-opacity:1.000; stroke:none;" />
 <path d="  M 48,35  L 49,35  L 49,34  L 48,34  Z  " style="fill:rgb(97, 97, 97); fill-opacity:1.000; stroke:none;" />
 <path d="  M 48,57  L 49,57  L 49,56  L 48,56  Z  " style="fill:rgb(97, 97, 97); fill-opacity:1.000; stroke:none;" />
 <path d="  M 50,2  L 50,1  L 49,1  L 49,2  Z  " style="fill:rgb(97, 97, 97); fill-opacity:1.000; stroke:none;" />
 <path d="  M 49,10  L 49,11  L 50,11  L 50,10  Z  " style="fill:rgb(97, 97, 97); fill-opacity:1.000; stroke:none;" />
 <path d="  M 49,58  L 50,58  L 50,57  L 49,57  Z  " style="fill:rgb(97, 97, 97); fill-opacity:1.000; stroke:none;" />
 <path d="  M 51,8  L 51,7  L 50,7  L 50,8  Z  " style="fill:rgb(97, 97, 97); fill-opacity:1.000; stroke:none;" />
 <path d="  M 51,12  L 50,12  L 50,13  L 51,13  Z  " style="fill:rgb(97, 97, 97); fill-opacity:1.000; stroke:none;" />
 <path d="  M 51,9  L 51,10  L 52,10  L 52,9  Z  " style="fill:rgb(97, 97, 97); fill-opacity:1.000; stroke:none;" />
 <path d="  M 52,15  L 52,14  L 51,14  L 51,15  Z  " style="fill:rgb(97, 97, 97); fill-opacity:1.000; stroke:none;" />
 <path d="  M 51,27  L 51,28  L 52,28  L 52,27  Z  " style="fill:rgb(97, 97, 97); fill-opacity:1.000; stroke:none;" />
 <path d="  M 52,51  L 51,51  L 51,52  L 52,52  Z  " style="fill:rgb(97, 97, 97); fill-opacity:1.000; stroke:none;" />
 <path d="  M 52,12  L 53,12  L 53,11  L 52,11  Z  " style="fill:rgb(97, 97, 97); fill-opacity:1.000; stroke:none;" />
 <path d="  M 53,16  L 53,15  L 52,15  L 52,16  Z  " style="fill:rgb(97, 97, 97); fill-opacity:1.000; stroke:none;" />
 <path d="  M 52,26  L 52,27  L 53,27  L 53,26  Z  " style="fill:rgb(97, 97, 97); fill-opacity:1.000; stroke:none;" />
 <path d="  M 54,14  L 54,13  L 53,13  L 53,14  Z  " style="fill:rgb(97, 97, 97); fill-opacity:1.000; stroke:none;" />
 <path d="  M 53,17  L 54,17  L 54,16  L 53,16  Z  " style="fill:rgb(97, 97, 97); fill-opacity:1.000; stroke:none;" />
 <path d="  M 53,52  L 53,53  L 54,53  L 54,52  Z  " style="fill:rgb(97, 97, 97); fill-opacity:1.000; stroke:none;" />
 <path d="  M 55,12  L 55,11  L 54,11  L 54,12  Z  " style="fill:rgb(97, 97, 97); fill-opacity:1.000; stroke:none;" />
 <path d="  M 54,19  L 55,19  L 55,18  L 54,18  Z  " style="fill:rgb(97, 97, 97); fill-opacity:1.000; stroke:none;" />
 <path d="  M 54,26  L 55,26  L 55,25  L 54,25  Z  " style="fill:rgb(97, 97, 97); fill-opacity:1.000; stroke:none;" />
 <path d="  M 56,19  L 55,19  L 55,20  L 56,20  Z  " style="fill:rgb(97, 97, 97); fill-opacity:1.000; stroke:none;" />
 <path d="  M 56,25  L 56,24  L 55,24  L 55,25  Z  " style="fill:rgb(97, 97, 97); fill-opacity:1.000; stroke:none;" />
 <path d="  M 57,21  L 57,20  L 56,20  L 56,21  Z  " style="fill:rgb(97, 97, 97); fill-opacity:1.000; stroke:none;" />
 <path d="  M 56,52  L 56,53  L 57,53  L 57,52  Z  " style="fill:rgb(97, 97, 97); fill-opacity:1.000; stroke:none;" />
 <path d="  M 56,54  L 56,55  L 57,55  L 57,54  Z  " style="fill:rgb(97, 97, 97); fill-opacity:1.000; stroke:none;" />
 <path d="  M 59,22  L 59,21  L 58,21  L 58,22  Z  " style="fill:rgb(97, 97, 97); fill-opacity:1.000; stroke:none;" />
 <path d="  M 59,52  L 59,51  L 58,51  L 58,52  Z  " style="fill:rgb(97, 97, 97); fill-opacity:1.000; stroke:none;" />
 <path d="  M 60,50  L 59,50  L 59,51  L 60,51  Z  " style="fill:rgb(97, 97, 97); fill-opacity:1.000; stroke:none;" />
 <path d="  M 60,53  L 59,53  L 59,54  L 60,54  Z  " style="fill:rgb(97, 97, 97); fill-opacity:1.000; stroke:none;" />
 <path d="  M 61,52  L 60,52  L 60,53  L 61,53  Z  " style="fill:rgb(97, 97, 97); fill-opacity:1.000; stroke:none;" />
 <path d="  M 61,51  L 61,52  L 62,52  L 62,51  Z  " style="fill:rgb(97, 97, 97); fill-opacity:1.000; stroke:none;" />
</svg>
