<?xml version="1.0" encoding="UTF-8" standalone="no"?>
<!DOCTYPE svg PUBLIC "-//W3C//DTD SVG 1.1//EN" 
  "http://www.w3.org/Graphics/SVG/1.1/DTD/svg11.dtd">
<svg width="64" height="64"
	 xmlns="http://www.w3.org/2000/svg" version="1.1">
 <path d="  M 3,63  L 2,63  L 2,64  L 4,64  L 4,62  L 3,62  Z  " style="fill:rgb(17, 118, 31); fill-opacity:1.000; stroke:none;" />
 <path d="  M 4,59  L 3,59  L 3,60  L 4,60  Z  " style="fill:rgb(17, 118, 31); fill-opacity:1.000; stroke:none;" />
 <path d="  M 5,60  L 4,60  L 4,62  L 5,62  Z  " style="fill:rgb(17, 118, 31); fill-opacity:1.000; stroke:none;" />
 <path d="  M 5,63  L 6,63  L 6,62  L 5,62  Z  " style="fill:rgb(17, 118, 31); fill-opacity:1.000; stroke:none;" />
 <path d="  M 18,58  L 18,57  L 17,57  L 17,58  Z  " style="fill:rgb(17, 118, 31); fill-opacity:1.000; stroke:none;" />
 <path d="  M 19,60  L 19,59  L 18,59  L 18,60  Z  " style="fill:rgb(17, 118, 31); fill-opacity:1.000; stroke:none;" />
 <path d="  M 21,56  L 21,57  L 20,57  L 20,60  L 19,60  L 19,62  L 20,62  L 20,61  L 22,61  L 22,59  L 21,59  L 21,58  L 22,58  L 22,56  Z  " style="fill:rgb(17, 118, 31); fill-opacity:1.000; stroke:none;" />
 <path d="  M 22,63  L 22,62  L 21,62  L 21,63  Z  " style="fill:rgb(17, 118, 31); fill-opacity:1.000; stroke:none;" />
 <path d="  M 22,61  L 22,62  L 24,62  L 24,61  L 25,61  L 25,60  L 23,60  L 23,61  Z  " style="fill:rgb(17, 118, 31); fill-opacity:1.000; stroke:none;" />
 <path d="  M 31,57  L 30,57  L 30,58  L 31,58  Z  " style="fill:rgb(17, 118, 31); fill-opacity:1.000; stroke:none;" />
 <path d="  M 32,56  L 31,56  L 31,57  L 32,57  Z  " style="fill:rgb(17, 118, 31); fill-opacity:1.000; stroke:none;" />
 <path d="  M 32,60  L 31,60  L 31,64  L 32,64  Z  " style="fill:rgb(17, 118, 31); fill-opacity:1.000; stroke:none;" />
 <path d="  M 32,51  L 32,52  L 33,52  L 33,51  Z  " style="fill:rgb(17, 118, 31); fill-opacity:1.000; stroke:none;" />
 <path d="  M 34,48  L 33,48  L 33,51  L 34,51  L 34,50  L 35,50  L 35,49  L 34,49  Z  " style="fill:rgb(17, 118, 31); fill-opacity:1.000; stroke:none;" />
 <path d="  M 36,47  L 35,47  L 35,49  L 36,49  Z  " style="fill:rgb(17, 118, 31); fill-opacity:1.000; stroke:none;" />
 <path d="  M 41,61  L 40,61  L 40,62  L 41,62  Z  " style="fill:rgb(17, 118, 31); fill-opacity:1.000; stroke:none;" />
 <path d="  M 44,63  L 43,63  L 43,62  L 41,62  L 41,63  L 42,63  L 42,64  L 44,64  Z  " style="fill:rgb(17, 118, 31); fill-opacity:1.000; stroke:none;" />
 <path d="  M 45,53  L 45,54  L 46,54  L 46,53  Z  " style="fill:rgb(17, 118, 31); fill-opacity:1.000; stroke:none;" />
 <path d="  M 48,56  L 48,55  L 49,55  L 49,53  L 48,53  L 48,54  L 46,54  L 46,55  L 47,55  L 47,56  Z  " style="fill:rgb(17, 118, 31); fill-opacity:1.000; stroke:none;" />
 <path d="  M 48,58  L 49,58  L 49,56  L 48,56  Z  " style="fill:rgb(17, 118, 31); fill-opacity:1.000; stroke:none;" />
 <path d="  M 50,55  L 49,55  L 49,56  L 50,56  Z  " style="fill:rgb(17, 118, 31); fill-opacity:1.000; stroke:none;" />
 <path d="  M 52,59  L 53,59  L 53,58  L 54,58  L 54,56  L 53,56  L 53,57  L 52,57  Z  " style="fill:rgb(17, 118, 31); fill-opacity:1.000; stroke:none;" />
 <path d="  M 55,55  L 54,55  L 54,56  L 55,56  Z  " style="fill:rgb(17, 118, 31); fill-opacity:1.000; stroke:none;" />
 <path d="  M 58,59  L 58,58  L 57,58  L 57,56  L 56,56  L 56,59  L 57,59  L 57,62  L 58,62  L 58,63  L 59,63  L 59,61  L 58,61  L 58,60  L 59,60  L 59,59  Z  " style="fill:rgb(17, 118, 31); fill-opacity:1.000; stroke:none;" />
 <path d="  M 60,60  L 59,60  L 59,61  L 60,61  Z  " style="fill:rgb(17, 118, 31); fill-opacity:1.000; stroke:none;" />
 <path d="  M 59,63  L 59,64  L 60,64  L 60,63  Z  " style="fill:rgb(17, 118, 31); fill-opacity:1.000; stroke:none;" />
 <path d="  M 61,61  L 61,62  L 62,62  L 62,61  Z  " style="fill:rgb(17, 118, 31); fill-opacity:1.000; stroke:none;" />
 <path d="  M 63,61  L 63,60  L 62,60  L 62,61  Z  " style="fill:rgb(17, 118, 31); fill-opacity:1.000; stroke:none;" />
 <path d="  M 5,63  L 5,62  L 4,62  L 4,64  L 6,64  L 6,63  Z  " style="fill:rgb(5, 106, 5); fill-opacity:1.000; stroke:none;" />
 <path d="  M 14,64  L 14,60  L 13,60  L 13,58  L 12,58  L 12,61  L 13,61  L 13,64  Z  " style="fill:rgb(5, 106, 5); fill-opacity:1.000; stroke:none;" />
 <path d="  M 19,59  L 19,60  L 20,60  L 20,58  L 18,58  L 18,59  Z  " style="fill:rgb(5, 106, 5); fill-opacity:1.000; stroke:none;" />
 <path d="  M 22,62  L 22,61  L 20,61  L 20,63  L 21,63  L 21,62  Z  " style="fill:rgb(5, 106, 5); fill-opacity:1.000; stroke:none;" />
 <path d="  M 21,58  L 21,59  L 22,59  L 22,58  Z  " style="fill:rgb(5, 106, 5); fill-opacity:1.000; stroke:none;" />
 <path d="  M 23,64  L 23,63  L 24,63  L 24,62  L 22,62  L 22,63  L 21,63  L 21,64  Z  " style="fill:rgb(5, 106, 5); fill-opacity:1.000; stroke:none;" />
 <path d="  M 40,61  L 41,61  L 41,60  L 40,60  Z  " style="fill:rgb(5, 106, 5); fill-opacity:1.000; stroke:none;" />
 <path d="  M 41,61  L 41,62  L 42,62  L 42,61  Z  " style="fill:rgb(5, 106, 5); fill-opacity:1.000; stroke:none;" />
 <path d="  M 42,63  L 41,63  L 41,64  L 42,64  Z  " style="fill:rgb(5, 106, 5); fill-opacity:1.000; stroke:none;" />
 <path d="  M 46,54  L 48,54  L 48,53  L 47,53  L 47,52  L 46,52  Z  " style="fill:rgb(5, 106, 5); fill-opacity:1.000; stroke:none;" />
 <path d="  M 48,50  L 48,53  L 49,53  L 49,50  Z  " style="fill:rgb(5, 106, 5); fill-opacity:1.000; stroke:none;" />
 <path d="  M 48,55  L 48,56  L 49,56  L 49,55  Z  " style="fill:rgb(5, 106, 5); fill-opacity:1.000; stroke:none;" />
 <path d="  M 50,56  L 49,56  L 49,58  L 48,58  L 48,61  L 49,61  L 49,64  L 50,64  Z  " style="fill:rgb(5, 106, 5); fill-opacity:1.000; stroke:none;" />
 <path d="  M 55,54  L 55,55  L 56,55  L 56,54  Z  " style="fill:rgb(5, 106, 5); fill-opacity:1.000; stroke:none;" />
 <path d="  M 57,56  L 57,55  L 56,55  L 56,56  Z  " style="fill:rgb(5, 106, 5); fill-opacity:1.000; stroke:none;" />
 <path d="  M 57,56  L 57,58  L 58,58  L 58,56  Z  " style="fill:rgb(5, 106, 5); fill-opacity:1.000; stroke:none;" />
 <path d="  M 58,59  L 59,59  L 59,58  L 58,58  Z  " style="fill:rgb(5, 106, 5); fill-opacity:1.000; stroke:none;" />
 <path d="  M 58,61  L 59,61  L 59,60  L 58,60  Z  " style="fill:rgb(5, 106, 5); fill-opacity:1.000; stroke:none;" />
 <path d="  M 58,64  L 59,64  L 59,63  L 58,63  Z  " style="fill:rgb(5, 106, 5); fill-opacity:1.000; stroke:none;" />
 <path d="  M 60,63  L 60,64  L 61,64  L 61,63  L 62,63  L 62,62  L 60,62  L 60,61  L 59,61  L 59,63  Z  " style="fill:rgb(5, 106, 5); fill-opacity:1.000; stroke:none;" />
 <path d="  M 63,61  L 62,61  L 62,62  L 63,62  Z  " style="fill:rgb(5, 106, 5); fill-opacity:1.000; stroke:none;" />
 <path d="  M 7,48  L 6,48  L 6,50  L 7,50  Z  " style="fill:rgb(8, 136, 6); fill-opacity:1.000; stroke:none;" />
 <path d="  M 11,53  L 10,53  L 10,52  L 9,52  L 9,51  L 8,51  L 8,50  L 7,50  L 7,52  L 8,52  L 8,54  L 9,54  L 9,56  L 10,56  L 10,57  L 11,57  L 11,58  L 12,58  L 12,57  L 13,57  L 13,56  L 12,56  L 12,54  L 11,54  Z  " style="fill:rgb(8, 136, 6); fill-opacity:1.000; stroke:none;" />
 <path d="  M 12,43  L 11,43  L 11,44  L 12,44  Z  " style="fill:rgb(8, 136, 6); fill-opacity:1.000; stroke:none;" />
 <path d="  M 13,42  L 12,42  L 12,43  L 13,43  Z  " style="fill:rgb(8, 136, 6); fill-opacity:1.000; stroke:none;" />
 <path d="  M 13,46  L 12,46  L 12,50  L 13,50  L 13,52  L 14,52  L 14,49  L 13,49  Z  " style="fill:rgb(8, 136, 6); fill-opacity:1.000; stroke:none;" />
 <path d="  M 13,54  L 13,55  L 14,55  L 14,54  Z  " style="fill:rgb(8, 136, 6); fill-opacity:1.000; stroke:none;" />
 <path d="  M 13,60  L 14,60  L 14,57  L 13,57  Z  " style="fill:rgb(8, 136, 6); fill-opacity:1.000; stroke:none;" />
 <path d="  M 14,54  L 15,54  L 15,52  L 14,52  Z  " style="fill:rgb(8, 136, 6); fill-opacity:1.000; stroke:none;" />
 <path d="  M 16,51  L 16,52  L 17,52  L 17,51  Z  " style="fill:rgb(8, 136, 6); fill-opacity:1.000; stroke:none;" />
 <path d="  M 17,50  L 17,51  L 18,51  L 18,50  Z  " style="fill:rgb(8, 136, 6); fill-opacity:1.000; stroke:none;" />
 <path d="  M 18,50  L 19,50  L 19,49  L 18,49  Z  " style="fill:rgb(8, 136, 6); fill-opacity:1.000; stroke:none;" />
 <path d="  M 23,43  L 23,45  L 24,45  L 24,43  Z  " style="fill:rgb(8, 136, 6); fill-opacity:1.000; stroke:none;" />
 <path d="  M 25,50  L 26,50  L 26,49  L 25,49  Z  " style="fill:rgb(8, 136, 6); fill-opacity:1.000; stroke:none;" />
 <path d="  M 26,50  L 26,51  L 27,51  L 27,50  Z  " style="fill:rgb(8, 136, 6); fill-opacity:1.000; stroke:none;" />
 <path d="  M 29,52  L 29,51  L 27,51  L 27,52  L 28,52  L 28,53  L 29,53  L 29,54  L 30,54  L 30,52  Z  " style="fill:rgb(8, 136, 6); fill-opacity:1.000; stroke:none;" />
 <path d="  M 30,50  L 30,48  L 29,48  L 29,50  Z  " style="fill:rgb(8, 136, 6); fill-opacity:1.000; stroke:none;" />
 <path d="  M 31,54  L 32,54  L 32,51  L 31,51  L 31,50  L 30,50  L 30,52  L 31,52  Z  " style="fill:rgb(8, 136, 6); fill-opacity:1.000; stroke:none;" />
 <path d="  M 31,54  L 30,54  L 30,57  L 31,57  L 31,56  L 32,56  L 32,55  L 31,55  Z  " style="fill:rgb(8, 136, 6); fill-opacity:1.000; stroke:none;" />
 <path d="  M 33,48  L 34,48  L 34,49  L 35,49  L 35,47  L 37,47  L 37,46  L 38,46  L 38,44  L 39,44  L 39,43  L 38,43  L 38,42  L 37,42  L 37,43  L 36,43  L 36,45  L 35,45  L 35,46  L 34,46  L 34,44  L 33,44  L 33,46  L 32,46  L 32,49  L 31,49  L 31,50  L 32,50  L 32,51  L 33,51  Z  " style="fill:rgb(8, 136, 6); fill-opacity:1.000; stroke:none;" />
 <path d="  M 32,57  L 31,57  L 31,60  L 32,60  Z  " style="fill:rgb(8, 136, 6); fill-opacity:1.000; stroke:none;" />
 <path d="  M 35,42  L 34,42  L 34,44  L 35,44  L 35,43  L 36,43  L 36,42  L 37,42  L 37,41  L 36,41  L 36,40  L 35,40  Z  " style="fill:rgb(8, 136, 6); fill-opacity:1.000; stroke:none;" />
 <path d="  M 37,40  L 38,40  L 38,38  L 37,38  Z  " style="fill:rgb(8, 136, 6); fill-opacity:1.000; stroke:none;" />
 <path d="  M 38,42  L 39,42  L 39,41  L 38,41  Z  " style="fill:rgb(8, 136, 6); fill-opacity:1.000; stroke:none;" />
 <path d="  M 51,59  L 52,59  L 52,57  L 51,57  Z  " style="fill:rgb(8, 136, 6); fill-opacity:1.000; stroke:none;" />
 <path d="  M 52,57  L 53,57  L 53,56  L 52,56  Z  " style="fill:rgb(8, 136, 6); fill-opacity:1.000; stroke:none;" />
 <path d="  M 53,59  L 52,59  L 52,60  L 53,60  Z  " style="fill:rgb(8, 136, 6); fill-opacity:1.000; stroke:none;" />
 <path d="  M 54,55  L 53,55  L 53,56  L 54,56  Z  " style="fill:rgb(8, 136, 6); fill-opacity:1.000; stroke:none;" />
 <path d="  M 55,54  L 54,54  L 54,55  L 55,55  Z  " style="fill:rgb(8, 136, 6); fill-opacity:1.000; stroke:none;" />
 <path d="  M 56,55  L 55,55  L 55,56  L 56,56  Z  " style="fill:rgb(8, 136, 6); fill-opacity:1.000; stroke:none;" />
 <path d="  M 8,50  L 8,49  L 7,49  L 7,50  Z  " style="fill:rgb(0, 174, 25); fill-opacity:1.000; stroke:none;" />
 <path d="  M 9,51  L 9,52  L 10,52  L 10,50  L 8,50  L 8,51  Z  " style="fill:rgb(0, 174, 25); fill-opacity:1.000; stroke:none;" />
 <path d="  M 11,40  L 10,40  L 10,41  L 11,41  Z  " style="fill:rgb(0, 174, 25); fill-opacity:1.000; stroke:none;" />
 <path d="  M 14,55  L 13,55  L 13,54  L 14,54  L 14,52  L 13,52  L 13,50  L 12,50  L 12,51  L 11,51  L 11,52  L 10,52  L 10,53  L 11,53  L 11,54  L 12,54  L 12,56  L 13,56  L 13,57  L 14,57  Z  " style="fill:rgb(0, 174, 25); fill-opacity:1.000; stroke:none;" />
 <path d="  M 11,43  L 12,43  L 12,41  L 11,41  Z  " style="fill:rgb(0, 174, 25); fill-opacity:1.000; stroke:none;" />
 <path d="  M 12,46  L 13,46  L 13,43  L 12,43  Z  " style="fill:rgb(0, 174, 25); fill-opacity:1.000; stroke:none;" />
 <path d="  M 12,57  L 12,58  L 13,58  L 13,57  Z  " style="fill:rgb(0, 174, 25); fill-opacity:1.000; stroke:none;" />
 <path d="  M 14,47  L 13,47  L 13,49  L 14,49  Z  " style="fill:rgb(0, 174, 25); fill-opacity:1.000; stroke:none;" />
 <path d="  M 16,49  L 16,50  L 15,50  L 15,51  L 14,51  L 14,52  L 16,52  L 16,51  L 17,51  L 17,50  L 18,50  L 18,49  Z  " style="fill:rgb(0, 174, 25); fill-opacity:1.000; stroke:none;" />
 <path d="  M 20,48  L 18,48  L 18,49  L 20,49  Z  " style="fill:rgb(0, 174, 25); fill-opacity:1.000; stroke:none;" />
 <path d="  M 24,46  L 24,45  L 23,45  L 23,46  Z  " style="fill:rgb(0, 174, 25); fill-opacity:1.000; stroke:none;" />
 <path d="  M 25,47  L 25,46  L 24,46  L 24,48  L 25,48  L 25,49  L 26,49  L 26,50  L 27,50  L 27,51  L 29,51  L 29,52  L 30,52  L 30,50  L 29,50  L 29,48  L 27,48  L 27,47  Z  " style="fill:rgb(0, 174, 25); fill-opacity:1.000; stroke:none;" />
 <path d="  M 29,38  L 29,39  L 30,39  L 30,38  Z  " style="fill:rgb(0, 174, 25); fill-opacity:1.000; stroke:none;" />
 <path d="  M 32,49  L 32,46  L 31,46  L 31,42  L 30,42  L 30,50  L 31,50  L 31,49  Z  " style="fill:rgb(0, 174, 25); fill-opacity:1.000; stroke:none;" />
 <path d="  M 30,54  L 31,54  L 31,52  L 30,52  Z  " style="fill:rgb(0, 174, 25); fill-opacity:1.000; stroke:none;" />
 <path d="  M 31,50  L 31,51  L 32,51  L 32,50  Z  " style="fill:rgb(0, 174, 25); fill-opacity:1.000; stroke:none;" />
 <path d="  M 31,54  L 31,55  L 32,55  L 32,54  Z  " style="fill:rgb(0, 174, 25); fill-opacity:1.000; stroke:none;" />
 <path d="  M 36,43  L 35,43  L 35,44  L 34,44  L 34,46  L 35,46  L 35,45  L 36,45  Z  " style="fill:rgb(0, 174, 25); fill-opacity:1.000; stroke:none;" />
 <path d="  M 39,40  L 37,40  L 37,39  L 36,39  L 36,41  L 37,41  L 37,42  L 38,42  L 38,41  L 39,41  Z  " style="fill:rgb(0, 174, 25); fill-opacity:1.000; stroke:none;" />
 <path d="  M 36,42  L 36,43  L 37,43  L 37,42  Z  " style="fill:rgb(0, 174, 25); fill-opacity:1.000; stroke:none;" />
 <path d="  M 37,47  L 36,47  L 36,48  L 37,48  Z  " style="fill:rgb(0, 174, 25); fill-opacity:1.000; stroke:none;" />
 <path d="  M 39,43  L 39,42  L 38,42  L 38,43  Z  " style="fill:rgb(0, 174, 25); fill-opacity:1.000; stroke:none;" />
 <path d="  M 24,46  L 25,46  L 25,47  L 27,47  L 27,46  L 26,46  L 26,45  L 25,45  L 25,44  L 24,44  Z  " style="fill:rgb(21, 205, 47); fill-opacity:1.000; stroke:none;" />
 <path d="  M 28,47  L 27,47  L 27,48  L 28,48  Z  " style="fill:rgb(21, 205, 47); fill-opacity:1.000; stroke:none;" />
 <path d="  M 29,35  L 29,34  L 28,34  L 28,35  Z  " style="fill:rgb(21, 205, 47); fill-opacity:1.000; stroke:none;" />
 <path d="  M 32,40  L 31,40  L 31,36  L 30,36  L 30,35  L 29,35  L 29,38  L 30,38  L 30,42  L 31,42  L 31,46  L 32,46  Z  " style="fill:rgb(21, 205, 47); fill-opacity:1.000; stroke:none;" />
</svg>
