<?xml version="1.0" encoding="UTF-8" standalone="no"?>
<!DOCTYPE svg PUBLIC "-//W3C//DTD SVG 1.1//EN" 
  "http://www.w3.org/Graphics/SVG/1.1/DTD/svg11.dtd">
<svg width="64" height="64"
	 xmlns="http://www.w3.org/2000/svg" version="1.1">
 <path d="  M 2,47  L 1,47  L 1,48  L 2,48  Z  " style="fill:rgb(5, 106, 5); fill-opacity:1.000; stroke:none;" />
 <path d="  M 2,48  L 2,49  L 3,49  L 3,48  Z  " style="fill:rgb(5, 106, 5); fill-opacity:1.000; stroke:none;" />
 <path d="  M 2,51  L 3,51  L 3,50  L 2,50  Z  " style="fill:rgb(5, 106, 5); fill-opacity:1.000; stroke:none;" />
 <path d="  M 3,49  L 3,50  L 4,50  L 4,49  Z  " style="fill:rgb(5, 106, 5); fill-opacity:1.000; stroke:none;" />
 <path d="  M 3,51  L 3,54  L 4,54  L 4,51  Z  " style="fill:rgb(5, 106, 5); fill-opacity:1.000; stroke:none;" />
 <path d="  M 7,60  L 6,60  L 6,57  L 5,57  L 5,56  L 4,56  L 4,59  L 5,59  L 5,64  L 6,64  L 6,61  L 7,61  Z  " style="fill:rgb(5, 106, 5); fill-opacity:1.000; stroke:none;" />
 <path d="  M 6,44  L 6,42  L 5,42  L 5,44  Z  " style="fill:rgb(5, 106, 5); fill-opacity:1.000; stroke:none;" />
 <path d="  M 6,46  L 5,46  L 5,47  L 6,47  Z  " style="fill:rgb(5, 106, 5); fill-opacity:1.000; stroke:none;" />
 <path d="  M 5,54  L 5,56  L 6,56  L 6,54  Z  " style="fill:rgb(5, 106, 5); fill-opacity:1.000; stroke:none;" />
 <path d="  M 7,40  L 6,40  L 6,42  L 7,42  Z  " style="fill:rgb(5, 106, 5); fill-opacity:1.000; stroke:none;" />
 <path d="  M 9,46  L 10,46  L 10,42  L 9,42  L 9,43  L 8,43  L 8,44  L 7,44  L 7,45  L 6,45  L 6,46  L 8,46  L 8,45  L 9,45  Z  " style="fill:rgb(5, 106, 5); fill-opacity:1.000; stroke:none;" />
 <path d="  M 6,48  L 7,48  L 7,47  L 6,47  Z  " style="fill:rgb(5, 106, 5); fill-opacity:1.000; stroke:none;" />
 <path d="  M 7,40  L 8,40  L 8,38  L 7,38  Z  " style="fill:rgb(5, 106, 5); fill-opacity:1.000; stroke:none;" />
 <path d="  M 8,41  L 9,41  L 9,40  L 8,40  Z  " style="fill:rgb(5, 106, 5); fill-opacity:1.000; stroke:none;" />
 <path d="  M 9,47  L 9,46  L 8,46  L 8,47  Z  " style="fill:rgb(5, 106, 5); fill-opacity:1.000; stroke:none;" />
 <path d="  M 18,34  L 18,35  L 19,35  L 19,34  Z  " style="fill:rgb(5, 106, 5); fill-opacity:1.000; stroke:none;" />
 <path d="  M 18,37  L 19,37  L 19,36  L 18,36  Z  " style="fill:rgb(5, 106, 5); fill-opacity:1.000; stroke:none;" />
 <path d="  M 20,33  L 19,33  L 19,34  L 20,34  L 20,35  L 21,35  L 21,32  L 20,32  Z  " style="fill:rgb(5, 106, 5); fill-opacity:1.000; stroke:none;" />
 <path d="  M 19,35  L 19,36  L 20,36  L 20,35  Z  " style="fill:rgb(5, 106, 5); fill-opacity:1.000; stroke:none;" />
 <path d="  M 21,43  L 22,43  L 22,42  L 23,42  L 23,41  L 22,41  L 22,40  L 21,40  L 21,39  L 20,39  L 20,38  L 21,38  L 21,37  L 22,37  L 22,35  L 21,35  L 21,36  L 20,36  L 20,37  L 19,37  L 19,40  L 20,40  L 20,42  L 21,42  Z  " style="fill:rgb(5, 106, 5); fill-opacity:1.000; stroke:none;" />
 <path d="  M 20,52  L 19,52  L 19,54  L 20,54  Z  " style="fill:rgb(5, 106, 5); fill-opacity:1.000; stroke:none;" />
 <path d="  M 20,46  L 20,47  L 21,47  L 21,46  Z  " style="fill:rgb(5, 106, 5); fill-opacity:1.000; stroke:none;" />
 <path d="  M 22,56  L 21,56  L 21,54  L 20,54  L 20,59  L 21,59  L 21,64  L 22,64  Z  " style="fill:rgb(5, 106, 5); fill-opacity:1.000; stroke:none;" />
 <path d="  M 22,39  L 22,38  L 21,38  L 21,39  Z  " style="fill:rgb(5, 106, 5); fill-opacity:1.000; stroke:none;" />
 <path d="  M 21,46  L 22,46  L 22,45  L 21,45  Z  " style="fill:rgb(5, 106, 5); fill-opacity:1.000; stroke:none;" />
 <path d="  M 21,49  L 22,49  L 22,48  L 23,48  L 23,46  L 22,46  L 22,47  L 21,47  Z  " style="fill:rgb(5, 106, 5); fill-opacity:1.000; stroke:none;" />
 <path d="  M 34,37  L 33,37  L 33,38  L 34,38  Z  " style="fill:rgb(5, 106, 5); fill-opacity:1.000; stroke:none;" />
 <path d="  M 34,38  L 34,40  L 35,40  L 35,42  L 36,42  L 36,43  L 37,43  L 37,44  L 39,44  L 39,45  L 40,45  L 40,42  L 39,42  L 39,43  L 38,43  L 38,42  L 37,42  L 37,40  L 36,40  L 36,39  L 35,39  L 35,38  Z  " style="fill:rgb(5, 106, 5); fill-opacity:1.000; stroke:none;" />
 <path d="  M 37,33  L 37,32  L 36,32  L 36,33  Z  " style="fill:rgb(5, 106, 5); fill-opacity:1.000; stroke:none;" />
 <path d="  M 37,40  L 38,40  L 38,39  L 39,39  L 39,37  L 38,37  L 38,36  L 37,36  L 37,35  L 36,35  L 36,39  L 37,39  Z  M 38,38  L 37,38  L 37,37  L 38,37  Z  " style="fill:rgb(5, 106, 5); fill-opacity:1.000; stroke:none;" />
 <path d="  M 38,33  L 37,33  L 37,34  L 38,34  Z  " style="fill:rgb(5, 106, 5); fill-opacity:1.000; stroke:none;" />
 <path d="  M 38,42  L 39,42  L 39,41  L 38,41  Z  " style="fill:rgb(5, 106, 5); fill-opacity:1.000; stroke:none;" />
 <path d="  M 38,46  L 39,46  L 39,45  L 38,45  Z  " style="fill:rgb(5, 106, 5); fill-opacity:1.000; stroke:none;" />
 <path d="  M 40,36  L 40,35  L 39,35  L 39,36  Z  " style="fill:rgb(5, 106, 5); fill-opacity:1.000; stroke:none;" />
 <path d="  M 40,46  L 39,46  L 39,48  L 40,48  Z  " style="fill:rgb(5, 106, 5); fill-opacity:1.000; stroke:none;" />
 <path d="  M 41,50  L 41,52  L 42,52  L 42,49  L 41,49  L 41,48  L 40,48  L 40,50  Z  " style="fill:rgb(5, 106, 5); fill-opacity:1.000; stroke:none;" />
 <path d="  M 42,58  L 40,58  L 40,61  L 41,61  L 41,64  L 42,64  Z  " style="fill:rgb(5, 106, 5); fill-opacity:1.000; stroke:none;" />
 <path d="  M 55,37  L 56,37  L 56,36  L 54,36  L 54,38  L 55,38  Z  " style="fill:rgb(5, 106, 5); fill-opacity:1.000; stroke:none;" />
 <path d="  M 55,34  L 55,35  L 56,35  L 56,34  Z  " style="fill:rgb(5, 106, 5); fill-opacity:1.000; stroke:none;" />
 <path d="  M 57,38  L 55,38  L 55,40  L 56,40  L 56,39  L 57,39  Z  " style="fill:rgb(5, 106, 5); fill-opacity:1.000; stroke:none;" />
 <path d="  M 58,37  L 58,39  L 59,39  L 59,38  L 60,38  L 60,37  L 59,37  L 59,36  L 58,36  L 58,35  L 56,35  L 56,36  L 57,36  L 57,37  Z  " style="fill:rgb(5, 106, 5); fill-opacity:1.000; stroke:none;" />
 <path d="  M 57,40  L 56,40  L 56,42  L 57,42  L 57,41  L 58,41  L 58,39  L 57,39  Z  " style="fill:rgb(5, 106, 5); fill-opacity:1.000; stroke:none;" />
 <path d="  M 57,44  L 58,44  L 58,42  L 57,42  Z  " style="fill:rgb(5, 106, 5); fill-opacity:1.000; stroke:none;" />
 <path d="  M 60,61  L 59,61  L 59,60  L 58,60  L 58,62  L 59,62  L 59,64  L 60,64  Z  " style="fill:rgb(5, 106, 5); fill-opacity:1.000; stroke:none;" />
 <path d="  M 60,41  L 59,41  L 59,44  L 60,44  L 60,42  L 61,42  L 61,40  L 62,40  L 62,39  L 61,39  L 61,38  L 60,38  Z  " style="fill:rgb(5, 106, 5); fill-opacity:1.000; stroke:none;" />
 <path d="  M 60,50  L 59,50  L 59,54  L 60,54  Z  " style="fill:rgb(5, 106, 5); fill-opacity:1.000; stroke:none;" />
 <path d="  M 59,60  L 60,60  L 60,59  L 59,59  Z  " style="fill:rgb(5, 106, 5); fill-opacity:1.000; stroke:none;" />
 <path d="  M 62,45  L 61,45  L 61,46  L 60,46  L 60,50  L 61,50  L 61,47  L 62,47  Z  " style="fill:rgb(5, 106, 5); fill-opacity:1.000; stroke:none;" />
 <path d="  M 60,59  L 61,59  L 61,57  L 62,57  L 62,54  L 61,54  L 61,55  L 60,55  Z  " style="fill:rgb(5, 106, 5); fill-opacity:1.000; stroke:none;" />
 <path d="  M 61,37  L 61,38  L 63,38  L 63,35  L 62,35  L 62,37  Z  " style="fill:rgb(5, 106, 5); fill-opacity:1.000; stroke:none;" />
 <path d="  M 62,45  L 63,45  L 63,44  L 62,44  Z  " style="fill:rgb(5, 106, 5); fill-opacity:1.000; stroke:none;" />
 <path d="  M 62,53  L 62,54  L 63,54  L 63,53  Z  " style="fill:rgb(5, 106, 5); fill-opacity:1.000; stroke:none;" />
 <path d="  M 2,50  L 3,50  L 3,49  L 2,49  Z  " style="fill:rgb(91, 107, 15); fill-opacity:1.000; stroke:none;" />
 <path d="  M 7,50  L 8,50  L 8,48  L 9,48  L 9,47  L 8,47  L 8,46  L 6,46  L 6,45  L 7,45  L 7,44  L 8,44  L 8,43  L 9,43  L 9,41  L 8,41  L 8,40  L 7,40  L 7,42  L 6,42  L 6,44  L 5,44  L 5,45  L 4,45  L 4,50  L 3,50  L 3,51  L 4,51  L 4,56  L 5,56  L 5,54  L 6,54  L 6,52  L 7,52  Z  M 5,47  L 5,46  L 6,46  L 6,47  Z  M 7,47  L 7,48  L 6,48  L 6,47  Z  " style="fill:rgb(91, 107, 15); fill-opacity:1.000; stroke:none;" />
 <path d="  M 6,42  L 6,41  L 5,41  L 5,42  Z  " style="fill:rgb(91, 107, 15); fill-opacity:1.000; stroke:none;" />
 <path d="  M 5,56  L 5,57  L 6,57  L 6,56  Z  " style="fill:rgb(91, 107, 15); fill-opacity:1.000; stroke:none;" />
 <path d="  M 6,40  L 7,40  L 7,39  L 6,39  Z  " style="fill:rgb(91, 107, 15); fill-opacity:1.000; stroke:none;" />
 <path d="  M 9,45  L 8,45  L 8,46  L 9,46  Z  " style="fill:rgb(91, 107, 15); fill-opacity:1.000; stroke:none;" />
 <path d="  M 9,46  L 9,47  L 10,47  L 10,46  Z  " style="fill:rgb(91, 107, 15); fill-opacity:1.000; stroke:none;" />
 <path d="  M 19,35  L 18,35  L 18,36  L 19,36  Z  " style="fill:rgb(91, 107, 15); fill-opacity:1.000; stroke:none;" />
 <path d="  M 18,38  L 19,38  L 19,37  L 18,37  Z  " style="fill:rgb(91, 107, 15); fill-opacity:1.000; stroke:none;" />
 <path d="  M 19,33  L 20,33  L 20,32  L 19,32  Z  " style="fill:rgb(91, 107, 15); fill-opacity:1.000; stroke:none;" />
 <path d="  M 20,34  L 19,34  L 19,35  L 20,35  Z  " style="fill:rgb(91, 107, 15); fill-opacity:1.000; stroke:none;" />
 <path d="  M 20,37  L 20,36  L 19,36  L 19,37  Z  " style="fill:rgb(91, 107, 15); fill-opacity:1.000; stroke:none;" />
 <path d="  M 21,36  L 21,35  L 20,35  L 20,36  Z  " style="fill:rgb(91, 107, 15); fill-opacity:1.000; stroke:none;" />
 <path d="  M 21,38  L 20,38  L 20,39  L 21,39  Z  " style="fill:rgb(91, 107, 15); fill-opacity:1.000; stroke:none;" />
 <path d="  M 20,52  L 21,52  L 21,50  L 22,50  L 22,49  L 21,49  L 21,47  L 20,47  Z  " style="fill:rgb(91, 107, 15); fill-opacity:1.000; stroke:none;" />
 <path d="  M 22,37  L 21,37  L 21,38  L 22,38  Z  " style="fill:rgb(91, 107, 15); fill-opacity:1.000; stroke:none;" />
 <path d="  M 22,39  L 21,39  L 21,40  L 22,40  Z  " style="fill:rgb(91, 107, 15); fill-opacity:1.000; stroke:none;" />
 <path d="  M 22,46  L 23,46  L 23,45  L 24,45  L 24,44  L 23,44  L 23,42  L 22,42  L 22,43  L 21,43  L 21,45  L 22,45  Z  " style="fill:rgb(91, 107, 15); fill-opacity:1.000; stroke:none;" />
 <path d="  M 21,47  L 22,47  L 22,46  L 21,46  Z  " style="fill:rgb(91, 107, 15); fill-opacity:1.000; stroke:none;" />
 <path d="  M 22,41  L 23,41  L 23,40  L 22,40  Z  " style="fill:rgb(91, 107, 15); fill-opacity:1.000; stroke:none;" />
 <path d="  M 23,41  L 23,42  L 24,42  L 24,41  Z  " style="fill:rgb(91, 107, 15); fill-opacity:1.000; stroke:none;" />
 <path d="  M 25,38  L 25,39  L 24,39  L 24,40  L 26,40  L 26,38  Z  " style="fill:rgb(91, 107, 15); fill-opacity:1.000; stroke:none;" />
 <path d="  M 28,56  L 29,56  L 29,55  L 28,55  Z  " style="fill:rgb(91, 107, 15); fill-opacity:1.000; stroke:none;" />
 <path d="  M 31,58  L 30,58  L 30,56  L 29,56  L 29,59  L 30,59  L 30,60  L 31,60  Z  " style="fill:rgb(91, 107, 15); fill-opacity:1.000; stroke:none;" />
 <path d="  M 38,56  L 38,55  L 37,55  L 37,56  Z  " style="fill:rgb(91, 107, 15); fill-opacity:1.000; stroke:none;" />
 <path d="  M 38,58  L 39,58  L 39,60  L 40,60  L 40,58  L 42,58  L 42,52  L 41,52  L 41,55  L 40,55  L 40,57  L 39,57  L 39,56  L 38,56  Z  " style="fill:rgb(91, 107, 15); fill-opacity:1.000; stroke:none;" />
 <path d="  M 43,45  L 43,43  L 42,43  L 42,45  Z  " style="fill:rgb(91, 107, 15); fill-opacity:1.000; stroke:none;" />
 <path d="  M 43,45  L 43,47  L 42,47  L 42,52  L 43,52  L 43,48  L 44,48  L 44,45  Z  " style="fill:rgb(91, 107, 15); fill-opacity:1.000; stroke:none;" />
 <path d="  M 7,16  L 7,17  L 6,17  L 6,18  L 8,18  L 8,17  L 9,17  L 9,16  Z  " style="fill:rgb(0, 174, 25); fill-opacity:1.000; stroke:none;" />
 <path d="  M 9,18  L 8,18  L 8,19  L 7,19  L 7,20  L 8,20  L 8,21  L 9,21  L 9,24  L 10,24  L 10,25  L 11,25  L 11,26  L 12,26  L 12,25  L 13,25  L 13,24  L 12,24  L 12,23  L 11,23  L 11,22  L 12,22  L 12,20  L 11,20  L 11,19  L 10,19  L 10,17  L 9,17  Z  M 10,21  L 9,21  L 9,20  L 10,20  Z  " style="fill:rgb(0, 174, 25); fill-opacity:1.000; stroke:none;" />
 <path d="  M 8,39  L 9,39  L 9,38  L 8,38  Z  " style="fill:rgb(0, 174, 25); fill-opacity:1.000; stroke:none;" />
 <path d="  M 10,42  L 10,43  L 11,43  L 11,40  L 10,40  L 10,39  L 9,39  L 9,42  Z  " style="fill:rgb(0, 174, 25); fill-opacity:1.000; stroke:none;" />
 <path d="  M 11,26  L 10,26  L 10,27  L 11,27  Z  " style="fill:rgb(0, 174, 25); fill-opacity:1.000; stroke:none;" />
 <path d="  M 13,30  L 13,28  L 14,28  L 14,27  L 13,27  L 13,26  L 12,26  L 12,27  L 11,27  L 11,29  L 12,29  L 12,30  Z  " style="fill:rgb(0, 174, 25); fill-opacity:1.000; stroke:none;" />
 <path d="  M 12,43  L 11,43  L 11,44  L 12,44  Z  " style="fill:rgb(0, 174, 25); fill-opacity:1.000; stroke:none;" />
 <path d="  M 12,23  L 13,23  L 13,22  L 12,22  Z  " style="fill:rgb(0, 174, 25); fill-opacity:1.000; stroke:none;" />
 <path d="  M 12,32  L 13,32  L 13,31  L 12,31  Z  " style="fill:rgb(0, 174, 25); fill-opacity:1.000; stroke:none;" />
 <path d="  M 12,41  L 12,42  L 13,42  L 13,41  Z  " style="fill:rgb(0, 174, 25); fill-opacity:1.000; stroke:none;" />
 <path d="  M 13,44  L 12,44  L 12,47  L 13,47  L 13,46  L 14,46  L 14,42  L 13,42  Z  " style="fill:rgb(0, 174, 25); fill-opacity:1.000; stroke:none;" />
 <path d="  M 14,26  L 14,25  L 13,25  L 13,26  Z  " style="fill:rgb(0, 174, 25); fill-opacity:1.000; stroke:none;" />
 <path d="  M 15,31  L 14,31  L 14,32  L 13,32  L 13,38  L 14,38  L 14,33  L 15,33  Z  " style="fill:rgb(0, 174, 25); fill-opacity:1.000; stroke:none;" />
 <path d="  M 14,41  L 14,40  L 13,40  L 13,41  Z  " style="fill:rgb(0, 174, 25); fill-opacity:1.000; stroke:none;" />
 <path d="  M 15,23  L 15,22  L 14,22  L 14,23  Z  " style="fill:rgb(0, 174, 25); fill-opacity:1.000; stroke:none;" />
 <path d="  M 15,26  L 14,26  L 14,27  L 15,27  Z  " style="fill:rgb(0, 174, 25); fill-opacity:1.000; stroke:none;" />
 <path d="  M 14,28  L 14,29  L 15,29  L 15,28  Z  " style="fill:rgb(0, 174, 25); fill-opacity:1.000; stroke:none;" />
 <path d="  M 16,23  L 15,23  L 15,24  L 16,24  Z  " style="fill:rgb(0, 174, 25); fill-opacity:1.000; stroke:none;" />
 <path d="  M 16,26  L 16,25  L 15,25  L 15,26  Z  " style="fill:rgb(0, 174, 25); fill-opacity:1.000; stroke:none;" />
 <path d="  M 16,31  L 16,30  L 15,30  L 15,31  Z  " style="fill:rgb(0, 174, 25); fill-opacity:1.000; stroke:none;" />
 <path d="  M 17,22  L 17,21  L 16,21  L 16,22  Z  " style="fill:rgb(0, 174, 25); fill-opacity:1.000; stroke:none;" />
 <path d="  M 16,25  L 17,25  L 17,24  L 16,24  Z  " style="fill:rgb(0, 174, 25); fill-opacity:1.000; stroke:none;" />
 <path d="  M 16,26  L 16,27  L 17,27  L 17,26  Z  " style="fill:rgb(0, 174, 25); fill-opacity:1.000; stroke:none;" />
 <path d="  M 16,29  L 16,30  L 17,30  L 17,29  Z  " style="fill:rgb(0, 174, 25); fill-opacity:1.000; stroke:none;" />
 <path d="  M 17,20  L 17,21  L 18,21  L 18,20  Z  " style="fill:rgb(0, 174, 25); fill-opacity:1.000; stroke:none;" />
 <path d="  M 17,23  L 17,24  L 18,24  L 18,23  Z  " style="fill:rgb(0, 174, 25); fill-opacity:1.000; stroke:none;" />
 <path d="  M 20,24  L 20,25  L 19,25  L 19,24  L 18,24  L 18,25  L 17,25  L 17,26  L 19,26  L 19,27  L 20,27  L 20,26  L 21,26  L 21,24  Z  " style="fill:rgb(0, 174, 25); fill-opacity:1.000; stroke:none;" />
 <path d="  M 17,28  L 17,29  L 18,29  L 18,28  Z  " style="fill:rgb(0, 174, 25); fill-opacity:1.000; stroke:none;" />
 <path d="  M 18,23  L 19,23  L 19,22  L 18,22  Z  " style="fill:rgb(0, 174, 25); fill-opacity:1.000; stroke:none;" />
 <path d="  M 19,28  L 19,27  L 18,27  L 18,28  Z  " style="fill:rgb(0, 174, 25); fill-opacity:1.000; stroke:none;" />
 <path d="  M 19,24  L 20,24  L 20,23  L 19,23  Z  " style="fill:rgb(0, 174, 25); fill-opacity:1.000; stroke:none;" />
 <path d="  M 21,22  L 20,22  L 20,23  L 21,23  Z  " style="fill:rgb(0, 174, 25); fill-opacity:1.000; stroke:none;" />
 <path d="  M 23,23  L 23,22  L 22,22  L 22,23  Z  " style="fill:rgb(0, 174, 25); fill-opacity:1.000; stroke:none;" />
 <path d="  M 25,10  L 25,9  L 24,9  L 24,10  Z  " style="fill:rgb(0, 174, 25); fill-opacity:1.000; stroke:none;" />
 <path d="  M 25,9  L 26,9  L 26,10  L 25,10  L 25,11  L 27,11  L 27,10  L 28,10  L 28,9  L 27,9  L 27,8  L 25,8  Z  " style="fill:rgb(0, 174, 25); fill-opacity:1.000; stroke:none;" />
 <path d="  M 27,12  L 28,12  L 28,11  L 27,11  Z  " style="fill:rgb(0, 174, 25); fill-opacity:1.000; stroke:none;" />
 <path d="  M 27,14  L 30,14  L 30,13  L 29,13  L 29,12  L 28,12  L 28,13  L 27,13  Z  " style="fill:rgb(0, 174, 25); fill-opacity:1.000; stroke:none;" />
 <path d="  M 29,11  L 29,10  L 28,10  L 28,11  Z  " style="fill:rgb(0, 174, 25); fill-opacity:1.000; stroke:none;" />
 <path d="  M 29,11  L 29,12  L 30,12  L 30,11  Z  " style="fill:rgb(0, 174, 25); fill-opacity:1.000; stroke:none;" />
 <path d="  M 29,18  L 30,18  L 30,17  L 29,17  Z  " style="fill:rgb(0, 174, 25); fill-opacity:1.000; stroke:none;" />
 <path d="  M 33,14  L 31,14  L 31,15  L 30,15  L 30,16  L 32,16  L 32,15  L 33,15  Z  " style="fill:rgb(0, 174, 25); fill-opacity:1.000; stroke:none;" />
 <path d="  M 32,19  L 31,19  L 31,18  L 30,18  L 30,20  L 31,20  L 31,21  L 32,21  L 32,20  L 33,20  L 33,19  L 34,19  L 34,18  L 32,18  Z  " style="fill:rgb(0, 174, 25); fill-opacity:1.000; stroke:none;" />
 <path d="  M 32,17  L 33,17  L 33,16  L 32,16  Z  " style="fill:rgb(0, 174, 25); fill-opacity:1.000; stroke:none;" />
 <path d="  M 33,14  L 34,14  L 34,13  L 33,13  Z  " style="fill:rgb(0, 174, 25); fill-opacity:1.000; stroke:none;" />
 <path d="  M 34,20  L 33,20  L 33,21  L 34,21  Z  " style="fill:rgb(0, 174, 25); fill-opacity:1.000; stroke:none;" />
 <path d="  M 35,17  L 34,17  L 34,18  L 35,18  Z  " style="fill:rgb(0, 174, 25); fill-opacity:1.000; stroke:none;" />
 <path d="  M 37,15  L 37,16  L 38,16  L 38,15  L 39,15  L 39,14  L 36,14  L 36,15  Z  " style="fill:rgb(0, 174, 25); fill-opacity:1.000; stroke:none;" />
 <path d="  M 39,14  L 40,14  L 40,13  L 39,13  Z  " style="fill:rgb(0, 174, 25); fill-opacity:1.000; stroke:none;" />
 <path d="  M 43,38  L 44,38  L 44,37  L 43,37  Z  " style="fill:rgb(0, 174, 25); fill-opacity:1.000; stroke:none;" />
 <path d="  M 46,21  L 45,21  L 45,22  L 44,22  L 44,24  L 45,24  L 45,23  L 46,23  Z  " style="fill:rgb(0, 174, 25); fill-opacity:1.000; stroke:none;" />
 <path d="  M 44,41  L 45,41  L 45,40  L 46,40  L 46,39  L 45,39  L 45,38  L 44,38  Z  " style="fill:rgb(0, 174, 25); fill-opacity:1.000; stroke:none;" />
 <path d="  M 46,26  L 46,24  L 45,24  L 45,26  Z  " style="fill:rgb(0, 174, 25); fill-opacity:1.000; stroke:none;" />
 <path d="  M 50,35  L 49,35  L 49,38  L 48,38  L 48,40  L 47,40  L 47,41  L 45,41  L 45,42  L 46,42  L 46,44  L 47,44  L 47,43  L 48,43  L 48,41  L 49,41  L 49,40  L 50,40  Z  " style="fill:rgb(0, 174, 25); fill-opacity:1.000; stroke:none;" />
 <path d="  M 46,24  L 47,24  L 47,23  L 46,23  Z  " style="fill:rgb(0, 174, 25); fill-opacity:1.000; stroke:none;" />
 <path d="  M 47,26  L 46,26  L 46,27  L 47,27  Z  " style="fill:rgb(0, 174, 25); fill-opacity:1.000; stroke:none;" />
 <path d="  M 47,29  L 49,29  L 49,30  L 50,30  L 50,28  L 48,28  L 48,27  L 47,27  Z  " style="fill:rgb(0, 174, 25); fill-opacity:1.000; stroke:none;" />
 <path d="  M 48,45  L 48,44  L 47,44  L 47,45  Z  " style="fill:rgb(0, 174, 25); fill-opacity:1.000; stroke:none;" />
 <path d="  M 50,31  L 49,31  L 49,32  L 50,32  Z  " style="fill:rgb(0, 174, 25); fill-opacity:1.000; stroke:none;" />
 <path d="  M 49,42  L 50,42  L 50,41  L 49,41  Z  " style="fill:rgb(0, 174, 25); fill-opacity:1.000; stroke:none;" />
 <path d="  M 52,32  L 52,30  L 50,30  L 50,31  L 51,31  L 51,32  Z  " style="fill:rgb(0, 174, 25); fill-opacity:1.000; stroke:none;" />
 <path d="  M 52,34  L 52,33  L 51,33  L 51,32  L 50,32  L 50,35  L 51,35  L 51,34  Z  " style="fill:rgb(0, 174, 25); fill-opacity:1.000; stroke:none;" />
 <path d="  M 54,30  L 55,30  L 55,29  L 54,29  L 54,28  L 53,28  L 53,29  L 52,29  L 52,30  L 53,30  L 53,31  L 54,31  Z  " style="fill:rgb(0, 174, 25); fill-opacity:1.000; stroke:none;" />
 <path d="  M 54,27  L 54,28  L 56,28  L 56,26  L 55,26  L 55,27  Z  " style="fill:rgb(0, 174, 25); fill-opacity:1.000; stroke:none;" />
 <path d="  M 8,19  L 8,18  L 6,18  L 6,19  Z  " style="fill:rgb(21, 205, 47); fill-opacity:1.000; stroke:none;" />
 <path d="  M 8,17  L 8,18  L 9,18  L 9,17  Z  " style="fill:rgb(21, 205, 47); fill-opacity:1.000; stroke:none;" />
 <path d="  M 8,22  L 9,22  L 9,21  L 8,21  Z  " style="fill:rgb(21, 205, 47); fill-opacity:1.000; stroke:none;" />
 <path d="  M 8,38  L 9,38  L 9,39  L 10,39  L 10,36  L 9,36  L 9,34  L 8,34  Z  " style="fill:rgb(21, 205, 47); fill-opacity:1.000; stroke:none;" />
 <path d="  M 8,39  L 8,40  L 9,40  L 9,39  Z  " style="fill:rgb(21, 205, 47); fill-opacity:1.000; stroke:none;" />
 <path d="  M 10,21  L 10,20  L 9,20  L 9,21  Z  " style="fill:rgb(21, 205, 47); fill-opacity:1.000; stroke:none;" />
 <path d="  M 11,18  L 10,18  L 10,19  L 11,19  Z  " style="fill:rgb(21, 205, 47); fill-opacity:1.000; stroke:none;" />
 <path d="  M 11,25  L 10,25  L 10,26  L 11,26  Z  " style="fill:rgb(21, 205, 47); fill-opacity:1.000; stroke:none;" />
 <path d="  M 11,40  L 11,39  L 10,39  L 10,40  Z  " style="fill:rgb(21, 205, 47); fill-opacity:1.000; stroke:none;" />
 <path d="  M 12,19  L 11,19  L 11,20  L 12,20  Z  " style="fill:rgb(21, 205, 47); fill-opacity:1.000; stroke:none;" />
 <path d="  M 12,22  L 11,22  L 11,23  L 12,23  Z  " style="fill:rgb(21, 205, 47); fill-opacity:1.000; stroke:none;" />
 <path d="  M 12,26  L 11,26  L 11,27  L 12,27  Z  " style="fill:rgb(21, 205, 47); fill-opacity:1.000; stroke:none;" />
 <path d="  M 11,30  L 12,30  L 12,29  L 11,29  Z  " style="fill:rgb(21, 205, 47); fill-opacity:1.000; stroke:none;" />
 <path d="  M 12,40  L 11,40  L 11,43  L 12,43  L 12,44  L 13,44  L 13,42  L 12,42  Z  " style="fill:rgb(21, 205, 47); fill-opacity:1.000; stroke:none;" />
 <path d="  M 12,22  L 14,22  L 14,21  L 13,21  L 13,20  L 12,20  Z  " style="fill:rgb(21, 205, 47); fill-opacity:1.000; stroke:none;" />
 <path d="  M 18,27  L 19,27  L 19,26  L 17,26  L 17,27  L 16,27  L 16,26  L 15,26  L 15,27  L 14,27  L 14,28  L 13,28  L 13,30  L 12,30  L 12,31  L 13,31  L 13,32  L 14,32  L 14,31  L 15,31  L 15,30  L 16,30  L 16,29  L 17,29  L 17,28  L 18,28  Z  M 14,28  L 15,28  L 15,29  L 14,29  Z  " style="fill:rgb(21, 205, 47); fill-opacity:1.000; stroke:none;" />
 <path d="  M 13,41  L 13,42  L 14,42  L 14,41  Z  " style="fill:rgb(21, 205, 47); fill-opacity:1.000; stroke:none;" />
 <path d="  M 17,26  L 17,25  L 16,25  L 16,26  Z  " style="fill:rgb(21, 205, 47); fill-opacity:1.000; stroke:none;" />
 <path d="  M 17,25  L 18,25  L 18,24  L 17,24  Z  " style="fill:rgb(21, 205, 47); fill-opacity:1.000; stroke:none;" />
 <path d="  M 45,23  L 45,24  L 46,24  L 46,23  Z  " style="fill:rgb(21, 205, 47); fill-opacity:1.000; stroke:none;" />
 <path d="  M 48,25  L 47,25  L 47,24  L 46,24  L 46,26  L 47,26  L 47,27  L 48,27  L 48,28  L 49,28  L 49,26  L 48,26  Z  " style="fill:rgb(21, 205, 47); fill-opacity:1.000; stroke:none;" />
 <path d="  M 47,27  L 46,27  L 46,29  L 47,29  Z  " style="fill:rgb(21, 205, 47); fill-opacity:1.000; stroke:none;" />
 <path d="  M 47,29  L 47,30  L 48,30  L 48,29  Z  " style="fill:rgb(21, 205, 47); fill-opacity:1.000; stroke:none;" />
 <path d="  M 48,32  L 48,34  L 49,34  L 49,32  Z  " style="fill:rgb(21, 205, 47); fill-opacity:1.000; stroke:none;" />
 <path d="  M 49,31  L 50,31  L 50,30  L 49,30  Z  " style="fill:rgb(21, 205, 47); fill-opacity:1.000; stroke:none;" />
 <path d="  M 49,35  L 50,35  L 50,34  L 49,34  Z  " style="fill:rgb(21, 205, 47); fill-opacity:1.000; stroke:none;" />
 <path d="  M 51,32  L 51,31  L 50,31  L 50,32  Z  " style="fill:rgb(21, 205, 47); fill-opacity:1.000; stroke:none;" />
 <path d="  M 10,44  L 11,44  L 11,43  L 10,43  Z  " style="fill:rgb(75, 118, 19); fill-opacity:1.000; stroke:none;" />
 <path d="  M 11,44  L 11,45  L 12,45  L 12,44  Z  " style="fill:rgb(75, 118, 19); fill-opacity:1.000; stroke:none;" />
 <path d="  M 14,38  L 13,38  L 13,39  L 12,39  L 12,41  L 13,41  L 13,40  L 14,40  Z  " style="fill:rgb(75, 118, 19); fill-opacity:1.000; stroke:none;" />
 <path d="  M 13,48  L 13,47  L 12,47  L 12,51  L 13,51  L 13,50  L 14,50  L 14,48  Z  " style="fill:rgb(75, 118, 19); fill-opacity:1.000; stroke:none;" />
 <path d="  M 14,46  L 13,46  L 13,47  L 14,47  Z  " style="fill:rgb(75, 118, 19); fill-opacity:1.000; stroke:none;" />
 <path d="  M 18,49  L 19,49  L 19,48  L 18,48  Z  " style="fill:rgb(75, 118, 19); fill-opacity:1.000; stroke:none;" />
 <path d="  M 19,50  L 18,50  L 18,52  L 20,52  L 20,49  L 19,49  Z  " style="fill:rgb(75, 118, 19); fill-opacity:1.000; stroke:none;" />
 <path d="  M 19,58  L 19,57  L 18,57  L 18,58  Z  " style="fill:rgb(75, 118, 19); fill-opacity:1.000; stroke:none;" />
 <path d="  M 20,32  L 20,31  L 19,31  L 19,32  Z  " style="fill:rgb(75, 118, 19); fill-opacity:1.000; stroke:none;" />
 <path d="  M 21,59  L 20,59  L 20,58  L 19,58  L 19,60  L 20,60  L 20,62  L 21,62  Z  " style="fill:rgb(75, 118, 19); fill-opacity:1.000; stroke:none;" />
 <path d="  M 21,54  L 21,52  L 20,52  L 20,54  Z  " style="fill:rgb(75, 118, 19); fill-opacity:1.000; stroke:none;" />
 <path d="  M 22,54  L 21,54  L 21,56  L 22,56  Z  " style="fill:rgb(75, 118, 19); fill-opacity:1.000; stroke:none;" />
 <path d="  M 24,42  L 25,42  L 25,41  L 26,41  L 26,40  L 24,40  L 24,39  L 23,39  L 23,38  L 22,38  L 22,40  L 23,40  L 23,41  L 24,41  Z  " style="fill:rgb(75, 118, 19); fill-opacity:1.000; stroke:none;" />
 <path d="  M 24,36  L 23,36  L 23,37  L 24,37  Z  " style="fill:rgb(75, 118, 19); fill-opacity:1.000; stroke:none;" />
 <path d="  M 23,44  L 24,44  L 24,42  L 23,42  Z  " style="fill:rgb(75, 118, 19); fill-opacity:1.000; stroke:none;" />
 <path d="  M 24,39  L 25,39  L 25,38  L 26,38  L 26,36  L 25,36  L 25,37  L 24,37  Z  " style="fill:rgb(75, 118, 19); fill-opacity:1.000; stroke:none;" />
 <path d="  M 27,40  L 27,39  L 26,39  L 26,40  Z  " style="fill:rgb(75, 118, 19); fill-opacity:1.000; stroke:none;" />
 <path d="  M 27,14  L 27,16  L 28,16  L 28,14  Z  " style="fill:rgb(75, 118, 19); fill-opacity:1.000; stroke:none;" />
 <path d="  M 28,17  L 29,17  L 29,16  L 28,16  Z  " style="fill:rgb(75, 118, 19); fill-opacity:1.000; stroke:none;" />
 <path d="  M 30,20  L 29,20  L 29,22  L 30,22  Z  " style="fill:rgb(75, 118, 19); fill-opacity:1.000; stroke:none;" />
 <path d="  M 32,23  L 31,23  L 31,22  L 30,22  L 30,24  L 31,24  L 31,25  L 32,25  Z  " style="fill:rgb(75, 118, 19); fill-opacity:1.000; stroke:none;" />
 <path d="  M 32,35  L 32,32  L 31,32  L 31,33  L 30,33  L 30,34  L 31,34  L 31,35  Z  " style="fill:rgb(75, 118, 19); fill-opacity:1.000; stroke:none;" />
 <path d="  M 33,26  L 32,26  L 32,27  L 31,27  L 31,30  L 32,30  L 32,28  L 33,28  Z  " style="fill:rgb(75, 118, 19); fill-opacity:1.000; stroke:none;" />
 <path d="  M 32,12  L 32,13  L 34,13  L 34,12  Z  " style="fill:rgb(75, 118, 19); fill-opacity:1.000; stroke:none;" />
 <path d="  M 33,15  L 32,15  L 32,16  L 33,16  Z  " style="fill:rgb(75, 118, 19); fill-opacity:1.000; stroke:none;" />
 <path d="  M 32,17  L 32,18  L 33,18  L 33,17  Z  " style="fill:rgb(75, 118, 19); fill-opacity:1.000; stroke:none;" />
 <path d="  M 33,17  L 34,17  L 34,16  L 33,16  Z  " style="fill:rgb(75, 118, 19); fill-opacity:1.000; stroke:none;" />
 <path d="  M 34,23  L 34,22  L 33,22  L 33,23  Z  " style="fill:rgb(75, 118, 19); fill-opacity:1.000; stroke:none;" />
 <path d="  M 34,26  L 34,24  L 33,24  L 33,26  Z  " style="fill:rgb(75, 118, 19); fill-opacity:1.000; stroke:none;" />
 <path d="  M 35,12  L 35,11  L 34,11  L 34,12  Z  " style="fill:rgb(75, 118, 19); fill-opacity:1.000; stroke:none;" />
 <path d="  M 34,15  L 34,16  L 36,16  L 36,14  L 35,14  L 35,15  Z  " style="fill:rgb(75, 118, 19); fill-opacity:1.000; stroke:none;" />
 <path d="  M 34,20  L 34,22  L 35,22  L 35,23  L 36,23  L 36,21  L 35,21  L 35,20  Z  " style="fill:rgb(75, 118, 19); fill-opacity:1.000; stroke:none;" />
 <path d="  M 34,23  L 34,24  L 35,24  L 35,23  Z  " style="fill:rgb(75, 118, 19); fill-opacity:1.000; stroke:none;" />
 <path d="  M 37,21  L 37,19  L 36,19  L 36,21  Z  " style="fill:rgb(75, 118, 19); fill-opacity:1.000; stroke:none;" />
 <path d="  M 37,34  L 37,33  L 38,33  L 38,34  Z  M 37,42  L 38,42  L 38,41  L 39,41  L 39,42  L 40,42  L 40,36  L 39,36  L 39,35  L 40,35  L 40,34  L 39,34  L 39,32  L 38,32  L 38,31  L 37,31  L 37,33  L 36,33  L 36,35  L 37,35  L 37,36  L 38,36  L 38,37  L 39,37  L 39,39  L 38,39  L 38,40  L 37,40  Z  " style="fill:rgb(75, 118, 19); fill-opacity:1.000; stroke:none;" />
 <path d="  M 36,39  L 36,40  L 37,40  L 37,39  Z  " style="fill:rgb(75, 118, 19); fill-opacity:1.000; stroke:none;" />
 <path d="  M 38,18  L 37,18  L 37,19  L 38,19  Z  " style="fill:rgb(75, 118, 19); fill-opacity:1.000; stroke:none;" />
 <path d="  M 37,37  L 37,38  L 38,38  L 38,37  Z  " style="fill:rgb(75, 118, 19); fill-opacity:1.000; stroke:none;" />
 <path d="  M 38,16  L 38,17  L 39,17  L 39,16  Z  " style="fill:rgb(75, 118, 19); fill-opacity:1.000; stroke:none;" />
 <path d="  M 39,43  L 39,42  L 38,42  L 38,43  Z  " style="fill:rgb(75, 118, 19); fill-opacity:1.000; stroke:none;" />
 <path d="  M 39,44  L 38,44  L 38,45  L 39,45  Z  " style="fill:rgb(75, 118, 19); fill-opacity:1.000; stroke:none;" />
 <path d="  M 40,15  L 39,15  L 39,16  L 40,16  Z  " style="fill:rgb(75, 118, 19); fill-opacity:1.000; stroke:none;" />
 <path d="  M 40,45  L 39,45  L 39,46  L 40,46  L 40,48  L 41,48  L 41,49  L 42,49  L 42,47  L 43,47  L 43,45  L 42,45  L 42,42  L 41,42  L 41,44  L 40,44  Z  " style="fill:rgb(75, 118, 19); fill-opacity:1.000; stroke:none;" />
 <path d="  M 41,12  L 40,12  L 40,13  L 41,13  Z  " style="fill:rgb(75, 118, 19); fill-opacity:1.000; stroke:none;" />
 <path d="  M 45,43  L 45,44  L 46,44  L 46,43  Z  " style="fill:rgb(75, 118, 19); fill-opacity:1.000; stroke:none;" />
 <path d="  M 46,46  L 47,46  L 47,47  L 48,47  L 48,51  L 49,51  L 49,53  L 50,53  L 50,48  L 49,48  L 49,46  L 48,46  L 48,45  L 47,45  L 47,44  L 46,44  Z  " style="fill:rgb(75, 118, 19); fill-opacity:1.000; stroke:none;" />
 <path d="  M 49,58  L 50,58  L 50,56  L 49,56  Z  " style="fill:rgb(75, 118, 19); fill-opacity:1.000; stroke:none;" />
 <path d="  M 51,54  L 51,53  L 50,53  L 50,54  Z  " style="fill:rgb(75, 118, 19); fill-opacity:1.000; stroke:none;" />
 <path d="  M 51,52  L 52,52  L 52,50  L 51,50  Z  " style="fill:rgb(75, 118, 19); fill-opacity:1.000; stroke:none;" />
 <path d="  M 53,50  L 53,49  L 52,49  L 52,50  Z  " style="fill:rgb(75, 118, 19); fill-opacity:1.000; stroke:none;" />
 <path d="  M 56,36  L 56,35  L 54,35  L 54,36  Z  " style="fill:rgb(75, 118, 19); fill-opacity:1.000; stroke:none;" />
 <path d="  M 55,37  L 55,38  L 57,38  L 57,39  L 58,39  L 58,37  L 57,37  L 57,36  L 56,36  L 56,37  Z  " style="fill:rgb(75, 118, 19); fill-opacity:1.000; stroke:none;" />
 <path d="  M 57,34  L 56,34  L 56,35  L 57,35  Z  " style="fill:rgb(75, 118, 19); fill-opacity:1.000; stroke:none;" />
 <path d="  M 56,39  L 56,40  L 57,40  L 57,39  Z  " style="fill:rgb(75, 118, 19); fill-opacity:1.000; stroke:none;" />
 <path d="  M 57,41  L 57,42  L 58,42  L 58,41  Z  " style="fill:rgb(75, 118, 19); fill-opacity:1.000; stroke:none;" />
 <path d="  M 57,61  L 58,61  L 58,60  L 57,60  Z  " style="fill:rgb(75, 118, 19); fill-opacity:1.000; stroke:none;" />
 <path d="  M 58,39  L 58,41  L 59,41  L 59,40  L 60,40  L 60,38  L 59,38  L 59,39  Z  " style="fill:rgb(75, 118, 19); fill-opacity:1.000; stroke:none;" />
 <path d="  M 59,60  L 59,59  L 60,59  L 60,54  L 59,54  L 59,58  L 58,58  L 58,60  Z  " style="fill:rgb(75, 118, 19); fill-opacity:1.000; stroke:none;" />
 <path d="  M 60,60  L 59,60  L 59,61  L 60,61  Z  " style="fill:rgb(75, 118, 19); fill-opacity:1.000; stroke:none;" />
 <path d="  M 60,59  L 60,60  L 61,60  L 61,59  Z  " style="fill:rgb(75, 118, 19); fill-opacity:1.000; stroke:none;" />
 <path d="  M 11,59  L 12,59  L 12,58  L 13,58  L 13,56  L 12,56  L 12,57  L 11,57  Z  " style="fill:rgb(141, 119, 61); fill-opacity:1.000; stroke:none;" />
 <path d="  M 14,50  L 13,50  L 13,51  L 12,51  L 12,54  L 13,54  L 13,52  L 14,52  Z  " style="fill:rgb(141, 119, 61); fill-opacity:1.000; stroke:none;" />
 <path d="  M 13,58  L 13,59  L 12,59  L 12,60  L 13,60  L 13,64  L 14,64  L 14,58  Z  " style="fill:rgb(141, 119, 61); fill-opacity:1.000; stroke:none;" />
 <path d="  M 14,48  L 14,47  L 13,47  L 13,48  Z  " style="fill:rgb(141, 119, 61); fill-opacity:1.000; stroke:none;" />
 <path d="  M 14,46  L 14,47  L 15,47  L 15,46  Z  " style="fill:rgb(141, 119, 61); fill-opacity:1.000; stroke:none;" />
 <path d="  M 15,49  L 14,49  L 14,50  L 15,50  Z  " style="fill:rgb(141, 119, 61); fill-opacity:1.000; stroke:none;" />
 <path d="  M 16,44  L 15,44  L 15,46  L 16,46  Z  " style="fill:rgb(141, 119, 61); fill-opacity:1.000; stroke:none;" />
 <path d="  M 16,48  L 16,47  L 15,47  L 15,48  Z  " style="fill:rgb(141, 119, 61); fill-opacity:1.000; stroke:none;" />
 <path d="  M 26,34  L 26,36  L 27,36  L 27,35  L 28,35  L 28,34  L 27,34  L 27,32  L 26,32  L 26,29  L 25,29  L 25,28  L 24,28  L 24,31  L 25,31  L 25,34  Z  " style="fill:rgb(141, 119, 61); fill-opacity:1.000; stroke:none;" />
 <path d="  M 28,40  L 29,40  L 29,39  L 30,39  L 30,36  L 29,36  L 29,35  L 28,35  L 28,36  L 27,36  L 27,38  L 28,38  Z  " style="fill:rgb(141, 119, 61); fill-opacity:1.000; stroke:none;" />
 <path d="  M 31,39  L 30,39  L 30,40  L 29,40  L 29,41  L 30,41  L 30,47  L 31,47  Z  " style="fill:rgb(141, 119, 61); fill-opacity:1.000; stroke:none;" />
 <path d="  M 30,34  L 30,35  L 31,35  L 31,34  Z  " style="fill:rgb(141, 119, 61); fill-opacity:1.000; stroke:none;" />
 <path d="  M 31,36  L 32,36  L 32,35  L 31,35  Z  " style="fill:rgb(141, 119, 61); fill-opacity:1.000; stroke:none;" />
 <path d="  M 31,38  L 32,38  L 32,37  L 31,37  Z  " style="fill:rgb(141, 119, 61); fill-opacity:1.000; stroke:none;" />
 <path d="  M 32,48  L 31,48  L 31,50  L 32,50  Z  " style="fill:rgb(141, 119, 61); fill-opacity:1.000; stroke:none;" />
 <path d="  M 31,54  L 32,54  L 32,52  L 31,52  Z  " style="fill:rgb(141, 119, 61); fill-opacity:1.000; stroke:none;" />
 <path d="  M 32,56  L 31,56  L 31,64  L 32,64  Z  " style="fill:rgb(141, 119, 61); fill-opacity:1.000; stroke:none;" />
 <path d="  M 33,56  L 33,54  L 32,54  L 32,56  Z  " style="fill:rgb(141, 119, 61); fill-opacity:1.000; stroke:none;" />
 <path d="  M 50,54  L 50,53  L 49,53  L 49,51  L 48,51  L 48,54  L 49,54  L 49,56  L 51,56  L 51,54  Z  " style="fill:rgb(141, 119, 61); fill-opacity:1.000; stroke:none;" />
 <path d="  M 50,58  L 49,58  L 49,64  L 50,64  L 50,62  L 51,62  L 51,60  L 50,60  Z  " style="fill:rgb(141, 119, 61); fill-opacity:1.000; stroke:none;" />
 <path d="  M 52,53  L 52,52  L 50,52  L 50,53  Z  " style="fill:rgb(141, 119, 61); fill-opacity:1.000; stroke:none;" />
 <path d="  M 16,25  L 16,24  L 15,24  L 15,23  L 14,23  L 14,22  L 13,22  L 13,23  L 12,23  L 12,24  L 13,24  L 13,25  L 14,25  L 14,26  L 15,26  L 15,25  Z  " style="fill:rgb(8, 136, 6); fill-opacity:1.000; stroke:none;" />
 <path d="  M 13,25  L 12,25  L 12,26  L 13,26  Z  " style="fill:rgb(8, 136, 6); fill-opacity:1.000; stroke:none;" />
 <path d="  M 13,27  L 14,27  L 14,26  L 13,26  Z  " style="fill:rgb(8, 136, 6); fill-opacity:1.000; stroke:none;" />
 <path d="  M 14,34  L 15,34  L 15,33  L 14,33  Z  " style="fill:rgb(8, 136, 6); fill-opacity:1.000; stroke:none;" />
 <path d="  M 19,23  L 20,23  L 20,21  L 19,21  L 19,20  L 18,20  L 18,21  L 17,21  L 17,22  L 15,22  L 15,23  L 16,23  L 16,24  L 17,24  L 17,23  L 18,23  L 18,22  L 19,22  Z  " style="fill:rgb(8, 136, 6); fill-opacity:1.000; stroke:none;" />
 <path d="  M 16,32  L 16,31  L 15,31  L 15,32  Z  " style="fill:rgb(8, 136, 6); fill-opacity:1.000; stroke:none;" />
 <path d="  M 17,31  L 17,30  L 16,30  L 16,31  Z  " style="fill:rgb(8, 136, 6); fill-opacity:1.000; stroke:none;" />
 <path d="  M 19,24  L 19,23  L 18,23  L 18,24  Z  " style="fill:rgb(8, 136, 6); fill-opacity:1.000; stroke:none;" />
 <path d="  M 20,25  L 20,24  L 19,24  L 19,25  Z  " style="fill:rgb(8, 136, 6); fill-opacity:1.000; stroke:none;" />
 <path d="  M 20,24  L 22,24  L 22,22  L 21,22  L 21,23  L 20,23  Z  " style="fill:rgb(8, 136, 6); fill-opacity:1.000; stroke:none;" />
 <path d="  M 25,11  L 25,10  L 24,10  L 24,11  Z  " style="fill:rgb(8, 136, 6); fill-opacity:1.000; stroke:none;" />
 <path d="  M 26,10  L 26,9  L 25,9  L 25,10  Z  " style="fill:rgb(8, 136, 6); fill-opacity:1.000; stroke:none;" />
 <path d="  M 25,11  L 25,12  L 26,12  L 26,14  L 27,14  L 27,13  L 28,13  L 28,12  L 27,12  L 27,11  Z  " style="fill:rgb(8, 136, 6); fill-opacity:1.000; stroke:none;" />
 <path d="  M 28,10  L 27,10  L 27,11  L 28,11  Z  " style="fill:rgb(8, 136, 6); fill-opacity:1.000; stroke:none;" />
 <path d="  M 28,11  L 28,12  L 29,12  L 29,11  Z  " style="fill:rgb(8, 136, 6); fill-opacity:1.000; stroke:none;" />
 <path d="  M 29,12  L 29,13  L 30,13  L 30,14  L 28,14  L 28,16  L 29,16  L 29,17  L 30,17  L 30,18  L 31,18  L 31,19  L 32,19  L 32,16  L 30,16  L 30,15  L 31,15  L 31,14  L 33,14  L 33,13  L 32,13  L 32,12  Z  " style="fill:rgb(8, 136, 6); fill-opacity:1.000; stroke:none;" />
 <path d="  M 29,17  L 28,17  L 28,19  L 29,19  L 29,20  L 30,20  L 30,18  L 29,18  Z  " style="fill:rgb(8, 136, 6); fill-opacity:1.000; stroke:none;" />
 <path d="  M 30,22  L 31,22  L 31,23  L 32,23  L 32,25  L 31,25  L 31,27  L 32,27  L 32,26  L 33,26  L 33,24  L 34,24  L 34,23  L 33,23  L 33,22  L 34,22  L 34,21  L 33,21  L 33,20  L 32,20  L 32,21  L 31,21  L 31,20  L 30,20  Z  " style="fill:rgb(8, 136, 6); fill-opacity:1.000; stroke:none;" />
 <path d="  M 31,24  L 30,24  L 30,25  L 31,25  Z  " style="fill:rgb(8, 136, 6); fill-opacity:1.000; stroke:none;" />
 <path d="  M 32,12  L 34,12  L 34,10  L 33,10  L 33,11  L 32,11  Z  " style="fill:rgb(8, 136, 6); fill-opacity:1.000; stroke:none;" />
 <path d="  M 36,14  L 36,12  L 34,12  L 34,14  L 33,14  L 33,16  L 34,16  L 34,15  L 35,15  L 35,14  Z  " style="fill:rgb(8, 136, 6); fill-opacity:1.000; stroke:none;" />
 <path d="  M 34,18  L 34,17  L 33,17  L 33,18  Z  " style="fill:rgb(8, 136, 6); fill-opacity:1.000; stroke:none;" />
 <path d="  M 38,17  L 38,16  L 37,16  L 37,15  L 36,15  L 36,16  L 34,16  L 34,17  L 35,17  L 35,18  L 34,18  L 34,19  L 33,19  L 33,20  L 35,20  L 35,21  L 36,21  L 36,19  L 37,19  L 37,18  L 39,18  L 39,17  Z  " style="fill:rgb(8, 136, 6); fill-opacity:1.000; stroke:none;" />
 <path d="  M 34,23  L 35,23  L 35,22  L 34,22  Z  " style="fill:rgb(8, 136, 6); fill-opacity:1.000; stroke:none;" />
 <path d="  M 36,21  L 36,22  L 37,22  L 37,21  Z  " style="fill:rgb(8, 136, 6); fill-opacity:1.000; stroke:none;" />
 <path d="  M 38,20  L 38,19  L 37,19  L 37,20  Z  " style="fill:rgb(8, 136, 6); fill-opacity:1.000; stroke:none;" />
 <path d="  M 39,13  L 38,13  L 38,14  L 39,14  Z  " style="fill:rgb(8, 136, 6); fill-opacity:1.000; stroke:none;" />
 <path d="  M 38,15  L 38,16  L 39,16  L 39,15  Z  " style="fill:rgb(8, 136, 6); fill-opacity:1.000; stroke:none;" />
 <path d="  M 40,12  L 39,12  L 39,13  L 40,13  Z  " style="fill:rgb(8, 136, 6); fill-opacity:1.000; stroke:none;" />
 <path d="  M 39,14  L 39,15  L 40,15  L 40,14  Z  " style="fill:rgb(8, 136, 6); fill-opacity:1.000; stroke:none;" />
 <path d="  M 45,40  L 45,41  L 46,41  L 46,40  Z  " style="fill:rgb(8, 136, 6); fill-opacity:1.000; stroke:none;" />
 <path d="  M 48,32  L 49,32  L 49,29  L 48,29  L 48,30  L 47,30  L 47,31  L 48,31  Z  " style="fill:rgb(8, 136, 6); fill-opacity:1.000; stroke:none;" />
 <path d="  M 47,43  L 47,44  L 48,44  L 48,46  L 49,46  L 49,41  L 48,41  L 48,43  Z  " style="fill:rgb(8, 136, 6); fill-opacity:1.000; stroke:none;" />
 <path d="  M 50,34  L 50,32  L 49,32  L 49,34  Z  " style="fill:rgb(8, 136, 6); fill-opacity:1.000; stroke:none;" />
 <path d="  M 50,41  L 50,40  L 49,40  L 49,41  Z  " style="fill:rgb(8, 136, 6); fill-opacity:1.000; stroke:none;" />
 <path d="  M 52,34  L 51,34  L 51,35  L 50,35  L 50,38  L 51,38  L 51,36  L 52,36  Z  " style="fill:rgb(8, 136, 6); fill-opacity:1.000; stroke:none;" />
 <path d="  M 52,32  L 51,32  L 51,33  L 52,33  L 52,34  L 53,34  L 53,33  L 54,33  L 54,32  L 55,32  L 55,30  L 54,30  L 54,31  L 53,31  L 53,30  L 52,30  Z  " style="fill:rgb(8, 136, 6); fill-opacity:1.000; stroke:none;" />
 <path d="  M 55,30  L 56,30  L 56,28  L 54,28  L 54,29  L 55,29  Z  " style="fill:rgb(8, 136, 6); fill-opacity:1.000; stroke:none;" />
 <path d="  M 56,25  L 56,28  L 57,28  L 57,25  Z  " style="fill:rgb(8, 136, 6); fill-opacity:1.000; stroke:none;" />
 <path d="  M 59,50  L 60,50  L 60,46  L 61,46  L 61,45  L 60,45  L 60,44  L 59,44  L 59,41  L 58,41  L 58,47  L 59,47  Z  " style="fill:rgb(8, 136, 6); fill-opacity:1.000; stroke:none;" />
 <path d="  M 60,41  L 60,40  L 59,40  L 59,41  Z  " style="fill:rgb(8, 136, 6); fill-opacity:1.000; stroke:none;" />
 <path d="  M 60,37  L 60,38  L 61,38  L 61,37  Z  " style="fill:rgb(8, 136, 6); fill-opacity:1.000; stroke:none;" />
 <path d="  M 62,37  L 62,36  L 61,36  L 61,37  Z  " style="fill:rgb(8, 136, 6); fill-opacity:1.000; stroke:none;" />
 <path d="  M 62,38  L 61,38  L 61,39  L 62,39  Z  " style="fill:rgb(8, 136, 6); fill-opacity:1.000; stroke:none;" />
 <path d="  M 61,45  L 62,45  L 62,44  L 61,44  Z  " style="fill:rgb(8, 136, 6); fill-opacity:1.000; stroke:none;" />
 <path d="  M 14,54  L 15,54  L 15,52  L 16,52  L 16,50  L 17,50  L 17,46  L 18,46  L 18,43  L 17,43  L 17,41  L 16,41  L 16,46  L 15,46  L 15,47  L 14,47  L 14,49  L 15,49  L 15,50  L 14,50  L 14,52  L 13,52  L 13,54  L 12,54  L 12,56  L 13,56  L 13,58  L 14,58  Z  M 16,48  L 15,48  L 15,47  L 16,47  Z  " style="fill:rgb(159, 153, 8); fill-opacity:1.000; stroke:none;" />
 <path d="  M 12,58  L 12,59  L 13,59  L 13,58  Z  " style="fill:rgb(159, 153, 8); fill-opacity:1.000; stroke:none;" />
 <path d="  M 27,30  L 26,30  L 26,32  L 27,32  Z  " style="fill:rgb(159, 153, 8); fill-opacity:1.000; stroke:none;" />
 <path d="  M 30,36  L 30,39  L 31,39  L 31,37  L 32,37  L 32,36  L 31,36  L 31,35  L 30,35  L 30,34  L 29,34  L 29,33  L 28,33  L 28,32  L 27,32  L 27,34  L 28,34  L 28,35  L 29,35  L 29,36  Z  " style="fill:rgb(159, 153, 8); fill-opacity:1.000; stroke:none;" />
 <path d="  M 28,35  L 27,35  L 27,36  L 28,36  Z  " style="fill:rgb(159, 153, 8); fill-opacity:1.000; stroke:none;" />
 <path d="  M 29,40  L 30,40  L 30,39  L 29,39  Z  " style="fill:rgb(159, 153, 8); fill-opacity:1.000; stroke:none;" />
 <path d="  M 30,49  L 31,49  L 31,48  L 32,48  L 32,46  L 31,46  L 31,47  L 30,47  Z  " style="fill:rgb(159, 153, 8); fill-opacity:1.000; stroke:none;" />
 <path d="  M 31,30  L 31,32  L 32,32  L 32,30  Z  " style="fill:rgb(159, 153, 8); fill-opacity:1.000; stroke:none;" />
 <path d="  M 31,52  L 32,52  L 32,54  L 33,54  L 33,51  L 32,51  L 32,50  L 31,50  Z  " style="fill:rgb(159, 153, 8); fill-opacity:1.000; stroke:none;" />
 <path d="  M 32,54  L 31,54  L 31,56  L 32,56  Z  " style="fill:rgb(159, 153, 8); fill-opacity:1.000; stroke:none;" />
 <path d="  M 44,38  L 43,38  L 43,41  L 44,41  Z  " style="fill:rgb(17, 118, 31); fill-opacity:1.000; stroke:none;" />
 <path d="  M 45,42  L 45,41  L 44,41  L 44,44  L 45,44  L 45,43  L 46,43  L 46,42  Z  " style="fill:rgb(17, 118, 31); fill-opacity:1.000; stroke:none;" />
 <path d="  M 46,46  L 46,44  L 45,44  L 45,46  Z  " style="fill:rgb(17, 118, 31); fill-opacity:1.000; stroke:none;" />
 <path d="  M 47,46  L 46,46  L 46,47  L 47,47  Z  " style="fill:rgb(17, 118, 31); fill-opacity:1.000; stroke:none;" />
 <path d="  M 48,47  L 47,47  L 47,49  L 48,49  Z  " style="fill:rgb(17, 118, 31); fill-opacity:1.000; stroke:none;" />
</svg>
