<?xml version="1.0" encoding="UTF-8" standalone="no"?>
<!DOCTYPE svg PUBLIC "-//W3C//DTD SVG 1.1//EN" 
  "http://www.w3.org/Graphics/SVG/1.1/DTD/svg11.dtd">
<svg width="32" height="32"
	 xmlns="http://www.w3.org/2000/svg" version="1.1">
 <path d="  M 2,18  L 3,18  L 3,19  L 4,19  L 4,20  L 2,20  Z  M 3,13  L 3,12  L 4,12  L 4,11  L 5,11  L 5,10  L 3,10  L 3,9  L 1,9  L 1,8  L 2,8  L 2,7  L 3,7  L 3,6  L 2,6  L 2,5  L 3,5  L 3,4  L 1,4  L 1,2  L 2,2  L 2,1  L 4,1  L 4,0  L 0,0  L 0,5  L 1,5  L 1,6  L 0,6  L 0,10  L 1,10  L 1,15  L 0,15  L 0,18  L 1,18  L 1,20  L 2,20  L 2,22  L 3,22  L 3,23  L 1,23  L 1,24  L 3,24  L 3,25  L 6,25  L 6,26  L 8,26  L 8,25  L 10,25  L 10,23  L 8,23  L 8,24  L 4,24  L 4,23  L 5,23  L 5,22  L 7,22  L 7,21  L 8,21  L 8,20  L 5,20  L 5,18  L 4,18  L 4,17  L 3,17  L 3,16  L 2,16  L 2,13  Z  M 3,12  L 2,12  L 2,11  L 3,11  Z  M 4,22  L 3,22  L 3,21  L 4,21  Z  M 1,16  L 2,16  L 2,17  L 1,17  Z  " style="fill:rgb(61, 61, 61); fill-opacity:1.000; stroke:none;" />
 <path d="  M 0,29  L 1,29  L 1,28  L 0,28  Z  " style="fill:rgb(61, 61, 61); fill-opacity:1.000; stroke:none;" />
 <path d="  M 2,29  L 3,29  L 3,30  L 5,30  L 5,29  L 6,29  L 6,28  L 4,28  L 4,26  L 1,26  L 1,28  L 2,28  Z  " style="fill:rgb(61, 61, 61); fill-opacity:1.000; stroke:none;" />
 <path d="  M 2,32  L 3,32  L 3,31  L 2,31  Z  " style="fill:rgb(61, 61, 61); fill-opacity:1.000; stroke:none;" />
 <path d="  M 3,6  L 4,6  L 4,5  L 3,5  Z  " style="fill:rgb(61, 61, 61); fill-opacity:1.000; stroke:none;" />
 <path d="  M 10,32  L 10,31  L 9,31  L 9,30  L 8,30  L 8,29  L 6,29  L 6,30  L 5,30  L 5,31  L 6,31  L 6,32  Z  " style="fill:rgb(61, 61, 61); fill-opacity:1.000; stroke:none;" />
 <path d="  M 7,22  L 7,23  L 8,23  L 8,22  Z  " style="fill:rgb(61, 61, 61); fill-opacity:1.000; stroke:none;" />
 <path d="  M 7,28  L 8,28  L 8,27  L 7,27  Z  " style="fill:rgb(61, 61, 61); fill-opacity:1.000; stroke:none;" />
 <path d="  M 19,30  L 19,31  L 18,31  L 18,29  L 20,29  L 20,28  L 21,28  L 21,27  L 22,27  L 22,26  L 25,26  L 25,25  L 26,25  L 26,24  L 28,24  L 28,23  L 30,23  L 30,22  L 28,22  L 28,21  L 30,21  L 30,20  L 31,20  L 31,21  L 32,21  L 32,17  L 31,17  L 31,16  L 30,16  L 30,18  L 28,18  L 28,19  L 27,19  L 27,20  L 26,20  L 26,21  L 25,21  L 25,22  L 22,22  L 22,23  L 21,23  L 21,24  L 18,24  L 18,25  L 17,25  L 17,26  L 18,26  L 18,27  L 17,27  L 17,28  L 15,28  L 15,29  L 14,29  L 14,28  L 12,28  L 12,27  L 11,27  L 11,25  L 10,25  L 10,26  L 8,26  L 8,27  L 9,27  L 9,28  L 11,28  L 11,29  L 12,29  L 12,30  L 14,30  L 14,31  L 16,31  L 16,32  L 22,32  L 22,31  L 24,31  L 24,30  L 27,30  L 27,29  L 30,29  L 30,28  L 32,28  L 32,27  L 31,27  L 31,26  L 28,26  L 28,27  L 27,27  L 27,28  L 24,28  L 24,29  L 22,29  L 22,30  Z  M 29,20  L 28,20  L 28,19  L 29,19  Z  M 29,28  L 28,28  L 28,27  L 29,27  Z  M 22,25  L 22,26  L 21,26  L 21,25  Z  M 15,30  L 15,29  L 16,29  L 16,30  Z  M 23,24  L 23,23  L 25,23  L 25,24  Z  M 20,27  L 19,27  L 19,26  L 20,26  Z  " style="fill:rgb(61, 61, 61); fill-opacity:1.000; stroke:none;" />
 <path d="  M 10,14  L 12,14  L 12,15  L 13,15  L 13,16  L 14,16  L 14,17  L 15,17  L 15,15  L 14,15  L 14,14  L 15,14  L 15,13  L 13,13  L 13,12  L 11,12  L 11,13  L 10,13  Z  " style="fill:rgb(61, 61, 61); fill-opacity:1.000; stroke:none;" />
 <path d="  M 15,22  L 15,21  L 16,21  L 16,20  L 18,20  L 18,19  L 19,19  L 19,18  L 16,18  L 16,19  L 15,19  L 15,20  L 13,20  L 13,21  L 11,21  L 11,22  L 10,22  L 10,23  L 11,23  L 11,24  L 12,24  L 12,23  L 13,23  L 13,22  Z  " style="fill:rgb(61, 61, 61); fill-opacity:1.000; stroke:none;" />
 <path d="  M 10,31  L 11,31  L 11,30  L 10,30  Z  " style="fill:rgb(61, 61, 61); fill-opacity:1.000; stroke:none;" />
 <path d="  M 13,17  L 13,16  L 12,16  L 12,17  Z  " style="fill:rgb(61, 61, 61); fill-opacity:1.000; stroke:none;" />
 <path d="  M 12,25  L 13,25  L 13,26  L 15,26  L 15,25  L 14,25  L 14,24  L 12,24  Z  " style="fill:rgb(61, 61, 61); fill-opacity:1.000; stroke:none;" />
 <path d="  M 16,17  L 15,17  L 15,18  L 16,18  Z  " style="fill:rgb(61, 61, 61); fill-opacity:1.000; stroke:none;" />
 <path d="  M 16,26  L 16,27  L 17,27  L 17,26  Z  " style="fill:rgb(61, 61, 61); fill-opacity:1.000; stroke:none;" />
 <path d="  M 26,10  L 26,11  L 27,11  L 27,12  L 28,12  L 28,11  L 29,11  L 29,12  L 30,12  L 30,11  L 31,11  L 31,10  L 32,10  L 32,8  L 31,8  L 31,9  L 30,9  L 30,10  Z  " style="fill:rgb(61, 61, 61); fill-opacity:1.000; stroke:none;" />
 <path d="  M 28,14  L 28,13  L 26,13  L 26,14  Z  " style="fill:rgb(61, 61, 61); fill-opacity:1.000; stroke:none;" />
 <path d="  M 27,31  L 28,31  L 28,30  L 27,30  Z  " style="fill:rgb(61, 61, 61); fill-opacity:1.000; stroke:none;" />
 <path d="  M 29,0  L 28,0  L 28,1  L 29,1  Z  " style="fill:rgb(61, 61, 61); fill-opacity:1.000; stroke:none;" />
 <path d="  M 28,2  L 28,3  L 29,3  L 29,2  Z  " style="fill:rgb(61, 61, 61); fill-opacity:1.000; stroke:none;" />
 <path d="  M 28,13  L 29,13  L 29,12  L 28,12  Z  " style="fill:rgb(61, 61, 61); fill-opacity:1.000; stroke:none;" />
 <path d="  M 28,14  L 28,16  L 29,16  L 29,15  L 30,15  L 30,14  Z  " style="fill:rgb(61, 61, 61); fill-opacity:1.000; stroke:none;" />
 <path d="  M 32,0  L 30,0  L 30,1  L 29,1  L 29,2  L 30,2  L 30,4  L 31,4  L 31,6  L 32,6  Z  " style="fill:rgb(61, 61, 61); fill-opacity:1.000; stroke:none;" />
 <path d="  M 30,7  L 30,8  L 31,8  L 31,7  Z  " style="fill:rgb(61, 61, 61); fill-opacity:1.000; stroke:none;" />
 <path d="  M 30,22  L 31,22  L 31,21  L 30,21  Z  " style="fill:rgb(61, 61, 61); fill-opacity:1.000; stroke:none;" />
 <path d="  M 30,29  L 30,30  L 31,30  L 31,29  Z  " style="fill:rgb(61, 61, 61); fill-opacity:1.000; stroke:none;" />
 <path d="  M 31,16  L 32,16  L 32,15  L 31,15  Z  " style="fill:rgb(61, 61, 61); fill-opacity:1.000; stroke:none;" />
 <path d="  M 1,6  L 1,5  L 0,5  L 0,6  Z  " style="fill:rgb(66, 66, 66); fill-opacity:1.000; stroke:none;" />
 <path d="  M 1,15  L 1,14  L 0,14  L 0,15  Z  " style="fill:rgb(66, 66, 66); fill-opacity:1.000; stroke:none;" />
 <path d="  M 1,2  L 1,4  L 3,4  L 3,5  L 4,5  L 4,3  L 5,3  L 5,2  L 6,2  L 6,1  L 8,1  L 8,0  L 4,0  L 4,1  L 2,1  L 2,2  Z  " style="fill:rgb(66, 66, 66); fill-opacity:1.000; stroke:none;" />
 <path d="  M 2,9  L 2,8  L 1,8  L 1,9  Z  " style="fill:rgb(66, 66, 66); fill-opacity:1.000; stroke:none;" />
 <path d="  M 1,16  L 1,17  L 2,17  L 2,16  Z  " style="fill:rgb(66, 66, 66); fill-opacity:1.000; stroke:none;" />
 <path d="  M 3,6  L 3,5  L 2,5  L 2,6  Z  " style="fill:rgb(66, 66, 66); fill-opacity:1.000; stroke:none;" />
 <path d="  M 5,10  L 5,11  L 4,11  L 4,12  L 6,12  L 6,11  L 7,11  L 7,10  L 9,10  L 9,9  L 8,9  L 8,8  L 6,8  L 6,7  L 5,7  L 5,6  L 3,6  L 3,7  L 2,7  L 2,8  L 5,8  L 5,9  L 6,9  L 6,10  Z  " style="fill:rgb(66, 66, 66); fill-opacity:1.000; stroke:none;" />
 <path d="  M 2,12  L 3,12  L 3,11  L 2,11  Z  " style="fill:rgb(66, 66, 66); fill-opacity:1.000; stroke:none;" />
 <path d="  M 8,19  L 8,18  L 9,18  L 9,17  L 7,17  L 7,16  L 6,16  L 6,15  L 5,15  L 5,14  L 4,14  L 4,12  L 3,12  L 3,13  L 2,13  L 2,16  L 3,16  L 3,17  L 4,17  L 4,18  L 5,18  L 5,20  L 6,20  L 6,19  Z  " style="fill:rgb(66, 66, 66); fill-opacity:1.000; stroke:none;" />
 <path d="  M 3,19  L 3,18  L 2,18  L 2,19  Z  " style="fill:rgb(66, 66, 66); fill-opacity:1.000; stroke:none;" />
 <path d="  M 4,20  L 4,19  L 3,19  L 3,20  Z  " style="fill:rgb(66, 66, 66); fill-opacity:1.000; stroke:none;" />
 <path d="  M 8,24  L 8,23  L 7,23  L 7,22  L 5,22  L 5,23  L 4,23  L 4,24  Z  " style="fill:rgb(66, 66, 66); fill-opacity:1.000; stroke:none;" />
 <path d="  M 11,28  L 9,28  L 9,27  L 8,27  L 8,28  L 7,28  L 7,27  L 4,27  L 4,28  L 6,28  L 6,29  L 8,29  L 8,30  L 9,30  L 9,31  L 10,31  L 10,32  L 16,32  L 16,31  L 14,31  L 14,30  L 12,30  L 12,29  L 11,29  Z  M 10,30  L 11,30  L 11,31  L 10,31  Z  " style="fill:rgb(66, 66, 66); fill-opacity:1.000; stroke:none;" />
 <path d="  M 6,13  L 6,14  L 7,14  L 7,13  Z  " style="fill:rgb(66, 66, 66); fill-opacity:1.000; stroke:none;" />
 <path d="  M 11,22  L 11,21  L 7,21  L 7,22  L 8,22  L 8,23  L 10,23  L 10,22  Z  " style="fill:rgb(66, 66, 66); fill-opacity:1.000; stroke:none;" />
 <path d="  M 10,12  L 9,12  L 9,13  L 8,13  L 8,14  L 10,14  L 10,13  L 11,13  L 11,12  L 12,12  L 12,11  L 10,11  Z  " style="fill:rgb(66, 66, 66); fill-opacity:1.000; stroke:none;" />
 <path d="  M 8,25  L 8,26  L 9,26  L 9,25  Z  " style="fill:rgb(66, 66, 66); fill-opacity:1.000; stroke:none;" />
 <path d="  M 11,15  L 11,16  L 13,16  L 13,15  L 12,15  L 12,14  L 10,14  L 10,15  Z  " style="fill:rgb(66, 66, 66); fill-opacity:1.000; stroke:none;" />
 <path d="  M 11,18  L 10,18  L 10,19  L 11,19  Z  " style="fill:rgb(66, 66, 66); fill-opacity:1.000; stroke:none;" />
 <path d="  M 11,21  L 13,21  L 13,20  L 11,20  Z  " style="fill:rgb(66, 66, 66); fill-opacity:1.000; stroke:none;" />
 <path d="  M 16,19  L 16,18  L 15,18  L 15,17  L 14,17  L 14,16  L 13,16  L 13,17  L 12,17  L 12,18  L 13,18  L 13,19  L 14,19  L 14,20  L 15,20  L 15,19  Z  " style="fill:rgb(66, 66, 66); fill-opacity:1.000; stroke:none;" />
 <path d="  M 15,22  L 13,22  L 13,23  L 12,23  L 12,24  L 14,24  L 14,25  L 15,25  L 15,26  L 16,26  L 16,25  L 18,25  L 18,24  L 15,24  L 15,23  L 16,23  L 16,22  L 18,22  L 18,21  L 20,21  L 20,20  L 19,20  L 19,19  L 18,19  L 18,20  L 16,20  L 16,21  L 15,21  Z  " style="fill:rgb(66, 66, 66); fill-opacity:1.000; stroke:none;" />
 <path d="  M 15,13  L 15,12  L 13,12  L 13,13  Z  " style="fill:rgb(66, 66, 66); fill-opacity:1.000; stroke:none;" />
 <path d="  M 14,14  L 14,15  L 15,15  L 15,17  L 16,17  L 16,18  L 18,18  L 18,17  L 17,17  L 17,16  L 16,16  L 16,14  Z  " style="fill:rgb(66, 66, 66); fill-opacity:1.000; stroke:none;" />
 <path d="  M 18,13  L 17,13  L 17,14  L 18,14  Z  " style="fill:rgb(66, 66, 66); fill-opacity:1.000; stroke:none;" />
 <path d="  M 18,27  L 18,26  L 17,26  L 17,27  Z  " style="fill:rgb(66, 66, 66); fill-opacity:1.000; stroke:none;" />
 <path d="  M 22,29  L 24,29  L 24,28  L 27,28  L 27,27  L 28,27  L 28,26  L 30,26  L 30,25  L 25,25  L 25,26  L 22,26  L 22,27  L 21,27  L 21,28  L 20,28  L 20,29  L 18,29  L 18,30  L 22,30  Z  " style="fill:rgb(66, 66, 66); fill-opacity:1.000; stroke:none;" />
 <path d="  M 19,17  L 20,17  L 20,16  L 19,16  Z  " style="fill:rgb(66, 66, 66); fill-opacity:1.000; stroke:none;" />
 <path d="  M 19,19  L 20,19  L 20,18  L 19,18  Z  " style="fill:rgb(66, 66, 66); fill-opacity:1.000; stroke:none;" />
 <path d="  M 21,24  L 21,23  L 22,23  L 22,21  L 21,21  L 21,22  L 20,22  L 20,23  L 19,23  L 19,24  Z  " style="fill:rgb(66, 66, 66); fill-opacity:1.000; stroke:none;" />
 <path d="  M 22,16  L 22,15  L 21,15  L 21,16  Z  " style="fill:rgb(66, 66, 66); fill-opacity:1.000; stroke:none;" />
 <path d="  M 22,26  L 22,25  L 21,25  L 21,26  Z  " style="fill:rgb(66, 66, 66); fill-opacity:1.000; stroke:none;" />
 <path d="  M 26,14  L 26,13  L 28,13  L 28,12  L 27,12  L 27,11  L 24,11  L 24,12  L 23,12  L 23,13  L 22,13  L 22,14  Z  " style="fill:rgb(66, 66, 66); fill-opacity:1.000; stroke:none;" />
 <path d="  M 26,20  L 24,20  L 24,21  L 23,21  L 23,22  L 25,22  L 25,21  L 26,21  Z  " style="fill:rgb(66, 66, 66); fill-opacity:1.000; stroke:none;" />
 <path d="  M 25,23  L 24,23  L 24,24  L 25,24  Z  " style="fill:rgb(66, 66, 66); fill-opacity:1.000; stroke:none;" />
 <path d="  M 26,0  L 26,1  L 27,1  L 27,2  L 29,2  L 29,1  L 28,1  L 28,0  Z  " style="fill:rgb(66, 66, 66); fill-opacity:1.000; stroke:none;" />
 <path d="  M 27,19  L 28,19  L 28,18  L 26,18  L 26,20  L 27,20  Z  " style="fill:rgb(66, 66, 66); fill-opacity:1.000; stroke:none;" />
 <path d="  M 30,6  L 28,6  L 28,7  L 29,7  L 29,8  L 30,8  L 30,7  L 31,7  L 31,8  L 32,8  L 32,6  L 31,6  L 31,4  L 30,4  L 30,2  L 29,2  L 29,3  L 28,3  L 28,4  L 29,4  L 29,5  L 30,5  Z  " style="fill:rgb(66, 66, 66); fill-opacity:1.000; stroke:none;" />
 <path d="  M 28,21  L 28,22  L 29,22  L 29,21  Z  " style="fill:rgb(66, 66, 66); fill-opacity:1.000; stroke:none;" />
 <path d="  M 29,0  L 29,1  L 30,1  L 30,0  Z  " style="fill:rgb(66, 66, 66); fill-opacity:1.000; stroke:none;" />
 <path d="  M 31,24  L 31,23  L 30,23  L 30,24  Z  " style="fill:rgb(66, 66, 66); fill-opacity:1.000; stroke:none;" />
 <path d="  M 31,13  L 32,13  L 32,12  L 31,12  Z  " style="fill:rgb(66, 66, 66); fill-opacity:1.000; stroke:none;" />
 <path d="  M 0,14  L 1,14  L 1,10  L 0,10  Z  " style="fill:rgb(56, 56, 56); fill-opacity:1.000; stroke:none;" />
 <path d="  M 3,22  L 2,22  L 2,20  L 1,20  L 1,18  L 0,18  L 0,28  L 1,28  L 1,26  L 4,26  L 4,27  L 8,27  L 8,26  L 6,26  L 6,25  L 3,25  L 3,24  L 1,24  L 1,23  L 3,23  Z  " style="fill:rgb(56, 56, 56); fill-opacity:1.000; stroke:none;" />
 <path d="  M 6,32  L 6,31  L 5,31  L 5,30  L 3,30  L 3,29  L 2,29  L 2,28  L 1,28  L 1,29  L 0,29  L 0,32  L 2,32  L 2,31  L 3,31  L 3,32  Z  " style="fill:rgb(56, 56, 56); fill-opacity:1.000; stroke:none;" />
 <path d="  M 2,20  L 3,20  L 3,19  L 2,19  Z  " style="fill:rgb(56, 56, 56); fill-opacity:1.000; stroke:none;" />
 <path d="  M 4,22  L 4,21  L 3,21  L 3,22  Z  " style="fill:rgb(56, 56, 56); fill-opacity:1.000; stroke:none;" />
 <path d="  M 5,29  L 5,30  L 6,30  L 6,29  Z  " style="fill:rgb(56, 56, 56); fill-opacity:1.000; stroke:none;" />
 <path d="  M 10,26  L 10,25  L 9,25  L 9,26  Z  " style="fill:rgb(56, 56, 56); fill-opacity:1.000; stroke:none;" />
 <path d="  M 13,25  L 12,25  L 12,24  L 11,24  L 11,23  L 10,23  L 10,25  L 11,25  L 11,27  L 12,27  L 12,28  L 14,28  L 14,29  L 15,29  L 15,28  L 17,28  L 17,27  L 16,27  L 16,26  L 13,26  Z  " style="fill:rgb(56, 56, 56); fill-opacity:1.000; stroke:none;" />
 <path d="  M 16,30  L 16,29  L 15,29  L 15,30  Z  " style="fill:rgb(56, 56, 56); fill-opacity:1.000; stroke:none;" />
 <path d="  M 17,26  L 17,25  L 16,25  L 16,26  Z  " style="fill:rgb(56, 56, 56); fill-opacity:1.000; stroke:none;" />
 <path d="  M 19,31  L 19,30  L 18,30  L 18,31  Z  " style="fill:rgb(56, 56, 56); fill-opacity:1.000; stroke:none;" />
 <path d="  M 19,27  L 20,27  L 20,26  L 19,26  Z  " style="fill:rgb(56, 56, 56); fill-opacity:1.000; stroke:none;" />
 <path d="  M 22,32  L 32,32  L 32,28  L 30,28  L 30,29  L 27,29  L 27,30  L 24,30  L 24,31  L 22,31  Z  M 27,31  L 27,30  L 28,30  L 28,31  Z  M 30,30  L 30,29  L 31,29  L 31,30  Z  " style="fill:rgb(56, 56, 56); fill-opacity:1.000; stroke:none;" />
 <path d="  M 23,23  L 23,24  L 24,24  L 24,23  Z  " style="fill:rgb(56, 56, 56); fill-opacity:1.000; stroke:none;" />
 <path d="  M 28,23  L 28,24  L 26,24  L 26,25  L 30,25  L 30,26  L 31,26  L 31,27  L 32,27  L 32,21  L 31,21  L 31,22  L 30,22  L 30,23  Z  M 30,24  L 30,23  L 31,23  L 31,24  Z  " style="fill:rgb(56, 56, 56); fill-opacity:1.000; stroke:none;" />
 <path d="  M 27,15  L 28,15  L 28,14  L 27,14  Z  " style="fill:rgb(56, 56, 56); fill-opacity:1.000; stroke:none;" />
 <path d="  M 28,11  L 28,12  L 29,12  L 29,11  Z  " style="fill:rgb(56, 56, 56); fill-opacity:1.000; stroke:none;" />
 <path d="  M 29,12  L 29,13  L 28,13  L 28,14  L 30,14  L 30,15  L 29,15  L 29,16  L 31,16  L 31,15  L 32,15  L 32,13  L 31,13  L 31,12  L 32,12  L 32,10  L 31,10  L 31,11  L 30,11  L 30,12  Z  " style="fill:rgb(56, 56, 56); fill-opacity:1.000; stroke:none;" />
 <path d="  M 29,19  L 28,19  L 28,20  L 29,20  Z  " style="fill:rgb(56, 56, 56); fill-opacity:1.000; stroke:none;" />
 <path d="  M 29,28  L 29,27  L 28,27  L 28,28  Z  " style="fill:rgb(56, 56, 56); fill-opacity:1.000; stroke:none;" />
 <path d="  M 29,21  L 29,22  L 30,22  L 30,21  Z  " style="fill:rgb(56, 56, 56); fill-opacity:1.000; stroke:none;" />
 <path d="  M 30,21  L 31,21  L 31,20  L 30,20  Z  " style="fill:rgb(56, 56, 56); fill-opacity:1.000; stroke:none;" />
 <path d="  M 31,17  L 32,17  L 32,16  L 31,16  Z  " style="fill:rgb(56, 56, 56); fill-opacity:1.000; stroke:none;" />
 <path d="  M 2,9  L 3,9  L 3,10  L 6,10  L 6,9  L 5,9  L 5,8  L 2,8  Z  " style="fill:rgb(74, 74, 74); fill-opacity:1.000; stroke:none;" />
 <path d="  M 9,6  L 11,6  L 11,5  L 10,5  L 10,4  L 7,4  L 7,5  L 5,5  L 5,4  L 6,4  L 6,3  L 8,3  L 8,2  L 12,2  L 12,1  L 15,1  L 15,0  L 8,0  L 8,1  L 6,1  L 6,2  L 5,2  L 5,3  L 4,3  L 4,6  L 5,6  L 5,7  L 6,7  L 6,8  L 8,8  L 8,7  L 9,7  Z  " style="fill:rgb(74, 74, 74); fill-opacity:1.000; stroke:none;" />
 <path d="  M 11,17  L 11,19  L 10,19  L 10,17  Z  M 6,15  L 6,16  L 7,16  L 7,17  L 9,17  L 9,18  L 8,18  L 8,19  L 6,19  L 6,20  L 8,20  L 8,21  L 11,21  L 11,20  L 14,20  L 14,19  L 13,19  L 13,18  L 12,18  L 12,16  L 11,16  L 11,15  L 10,15  L 10,14  L 8,14  L 8,13  L 9,13  L 9,12  L 10,12  L 10,11  L 12,11  L 12,9  L 10,9  L 10,8  L 8,8  L 8,9  L 9,9  L 9,10  L 7,10  L 7,11  L 6,11  L 6,12  L 4,12  L 4,14  L 5,14  L 5,15  Z  M 6,14  L 6,13  L 7,13  L 7,14  Z  M 8,15  L 7,15  L 7,14  L 8,14  Z  M 7,11  L 8,11  L 8,12  L 7,12  Z  " style="fill:rgb(74, 74, 74); fill-opacity:1.000; stroke:none;" />
 <path d="  M 14,6  L 15,6  L 15,5  L 14,5  Z  " style="fill:rgb(74, 74, 74); fill-opacity:1.000; stroke:none;" />
 <path d="  M 16,10  L 16,9  L 15,9  L 15,10  Z  " style="fill:rgb(74, 74, 74); fill-opacity:1.000; stroke:none;" />
 <path d="  M 24,16  L 24,15  L 26,15  L 26,16  L 28,16  L 28,15  L 27,15  L 27,14  L 23,14  L 23,15  L 22,15  L 22,13  L 23,13  L 23,12  L 24,12  L 24,11  L 26,11  L 26,9  L 28,9  L 28,8  L 29,8  L 29,7  L 28,7  L 28,6  L 27,6  L 27,5  L 26,5  L 26,4  L 25,4  L 25,5  L 24,5  L 24,6  L 25,6  L 25,7  L 26,7  L 26,8  L 25,8  L 25,9  L 24,9  L 24,10  L 20,10  L 20,11  L 18,11  L 18,12  L 17,12  L 17,13  L 16,13  L 16,12  L 15,12  L 15,14  L 16,14  L 16,16  L 17,16  L 17,17  L 18,17  L 18,18  L 21,18  L 21,17  L 23,17  L 23,16  Z  M 18,13  L 18,14  L 17,14  L 17,13  Z  M 22,13  L 21,13  L 21,12  L 22,12  Z  M 19,15  L 20,15  L 20,17  L 19,17  Z  M 21,16  L 21,15  L 22,15  L 22,16  Z  " style="fill:rgb(74, 74, 74); fill-opacity:1.000; stroke:none;" />
 <path d="  M 18,21  L 18,22  L 16,22  L 16,23  L 15,23  L 15,24  L 17,24  L 17,23  L 18,23  L 18,24  L 19,24  L 19,23  L 20,23  L 20,21  Z  " style="fill:rgb(74, 74, 74); fill-opacity:1.000; stroke:none;" />
 <path d="  M 23,19  L 23,20  L 20,20  L 20,21  L 22,21  L 22,22  L 23,22  L 23,21  L 24,21  L 24,20  L 26,20  L 26,18  L 25,18  L 25,19  Z  " style="fill:rgb(74, 74, 74); fill-opacity:1.000; stroke:none;" />
 <path d="  M 21,9  L 22,9  L 22,8  L 21,8  Z  " style="fill:rgb(74, 74, 74); fill-opacity:1.000; stroke:none;" />
 <path d="  M 22,19  L 23,19  L 23,18  L 22,18  Z  " style="fill:rgb(74, 74, 74); fill-opacity:1.000; stroke:none;" />
 <path d="  M 23,3  L 24,3  L 24,2  L 23,2  Z  " style="fill:rgb(74, 74, 74); fill-opacity:1.000; stroke:none;" />
 <path d="  M 25,2  L 26,2  L 26,3  L 27,3  L 27,5  L 28,5  L 28,6  L 30,6  L 30,5  L 29,5  L 29,4  L 28,4  L 28,2  L 27,2  L 27,1  L 26,1  L 26,0  L 24,0  L 24,1  L 25,1  Z  " style="fill:rgb(74, 74, 74); fill-opacity:1.000; stroke:none;" />
 <path d="  M 25,17  L 26,17  L 26,16  L 25,16  Z  " style="fill:rgb(74, 74, 74); fill-opacity:1.000; stroke:none;" />
 <path d="  M 30,16  L 29,16  L 29,17  L 28,17  L 28,18  L 30,18  Z  " style="fill:rgb(74, 74, 74); fill-opacity:1.000; stroke:none;" />
 <path d="  M 8,2  L 8,3  L 6,3  L 6,4  L 5,4  L 5,5  L 7,5  L 7,4  L 10,4  L 10,3  L 11,3  L 11,2  Z  " style="fill:rgb(82, 82, 82); fill-opacity:1.000; stroke:none;" />
 <path d="  M 7,12  L 8,12  L 8,11  L 7,11  Z  " style="fill:rgb(82, 82, 82); fill-opacity:1.000; stroke:none;" />
 <path d="  M 8,15  L 8,14  L 7,14  L 7,15  Z  " style="fill:rgb(82, 82, 82); fill-opacity:1.000; stroke:none;" />
 <path d="  M 25,7  L 25,6  L 22,6  L 22,7  L 20,7  L 20,8  L 16,8  L 16,7  L 17,7  L 17,6  L 20,6  L 20,5  L 21,5  L 21,4  L 26,4  L 26,5  L 27,5  L 27,3  L 26,3  L 26,2  L 25,2  L 25,1  L 24,1  L 24,0  L 22,0  L 22,1  L 20,1  L 20,2  L 16,2  L 16,3  L 13,3  L 13,4  L 10,4  L 10,5  L 11,5  L 11,6  L 9,6  L 9,7  L 8,7  L 8,8  L 10,8  L 10,9  L 12,9  L 12,10  L 13,10  L 13,11  L 14,11  L 14,12  L 16,12  L 16,13  L 17,13  L 17,12  L 18,12  L 18,11  L 20,11  L 20,10  L 24,10  L 24,9  L 25,9  L 25,8  L 26,8  L 26,7  Z  M 17,10  L 17,11  L 16,11  L 16,10  Z  M 15,6  L 14,6  L 14,5  L 15,5  Z  M 16,9  L 16,10  L 15,10  L 15,9  Z  M 23,8  L 23,9  L 21,9  L 21,8  Z  M 23,3  L 23,2  L 24,2  L 24,3  Z  M 13,7  L 13,6  L 14,6  L 14,7  Z  M 21,3  L 21,2  L 22,2  L 22,3  Z  M 16,4  L 16,5  L 15,5  L 15,4  Z  " style="fill:rgb(82, 82, 82); fill-opacity:1.000; stroke:none;" />
 <path d="  M 10,17  L 10,18  L 11,18  L 11,17  Z  " style="fill:rgb(82, 82, 82); fill-opacity:1.000; stroke:none;" />
 <path d="  M 17,23  L 17,24  L 18,24  L 18,23  Z  " style="fill:rgb(82, 82, 82); fill-opacity:1.000; stroke:none;" />
 <path d="  M 19,15  L 19,16  L 20,16  L 20,15  Z  " style="fill:rgb(82, 82, 82); fill-opacity:1.000; stroke:none;" />
 <path d="  M 23,17  L 21,17  L 21,18  L 20,18  L 20,19  L 19,19  L 19,20  L 23,20  L 23,19  L 25,19  L 25,18  L 28,18  L 28,17  L 29,17  L 29,16  L 26,16  L 26,15  L 24,15  L 24,16  L 23,16  Z  M 25,17  L 25,16  L 26,16  L 26,17  Z  M 22,19  L 22,18  L 23,18  L 23,19  Z  " style="fill:rgb(82, 82, 82); fill-opacity:1.000; stroke:none;" />
 <path d="  M 20,21  L 20,22  L 21,22  L 21,21  Z  " style="fill:rgb(82, 82, 82); fill-opacity:1.000; stroke:none;" />
 <path d="  M 21,12  L 21,13  L 22,13  L 22,12  Z  " style="fill:rgb(82, 82, 82); fill-opacity:1.000; stroke:none;" />
 <path d="  M 23,15  L 23,14  L 22,14  L 22,15  Z  " style="fill:rgb(82, 82, 82); fill-opacity:1.000; stroke:none;" />
 <path d="  M 30,10  L 30,9  L 31,9  L 31,8  L 28,8  L 28,9  L 26,9  L 26,10  Z  " style="fill:rgb(82, 82, 82); fill-opacity:1.000; stroke:none;" />
 <path d="  M 28,5  L 27,5  L 27,6  L 28,6  Z  " style="fill:rgb(82, 82, 82); fill-opacity:1.000; stroke:none;" />
 <path d="  M 11,3  L 10,3  L 10,4  L 13,4  L 13,3  L 16,3  L 16,2  L 20,2  L 20,1  L 22,1  L 22,0  L 15,0  L 15,1  L 12,1  L 12,2  L 11,2  Z  " style="fill:rgb(90, 90, 90); fill-opacity:1.000; stroke:none;" />
 <path d="  M 14,6  L 13,6  L 13,7  L 14,7  Z  " style="fill:rgb(90, 90, 90); fill-opacity:1.000; stroke:none;" />
 <path d="  M 16,5  L 16,4  L 15,4  L 15,5  Z  " style="fill:rgb(90, 90, 90); fill-opacity:1.000; stroke:none;" />
 <path d="  M 24,6  L 24,5  L 25,5  L 25,4  L 21,4  L 21,5  L 20,5  L 20,6  L 17,6  L 17,7  L 16,7  L 16,8  L 20,8  L 20,7  L 22,7  L 22,6  Z  " style="fill:rgb(90, 90, 90); fill-opacity:1.000; stroke:none;" />
 <path d="  M 17,11  L 17,10  L 16,10  L 16,11  Z  " style="fill:rgb(90, 90, 90); fill-opacity:1.000; stroke:none;" />
 <path d="  M 22,3  L 22,2  L 21,2  L 21,3  Z  " style="fill:rgb(90, 90, 90); fill-opacity:1.000; stroke:none;" />
 <path d="  M 23,8  L 22,8  L 22,9  L 23,9  Z  " style="fill:rgb(90, 90, 90); fill-opacity:1.000; stroke:none;" />
 <path d="  M 12,12  L 14,12  L 14,11  L 13,11  L 13,10  L 12,10  Z  " style="fill:rgb(75, 75, 75); fill-opacity:1.000; stroke:none;" />
</svg>
