<?xml version="1.0" encoding="UTF-8" standalone="no"?>
<!DOCTYPE svg PUBLIC "-//W3C//DTD SVG 1.1//EN" 
  "http://www.w3.org/Graphics/SVG/1.1/DTD/svg11.dtd">
<svg width="32" height="32"
	 xmlns="http://www.w3.org/2000/svg" version="1.1">
 <path d="  M 6,1  L 7,1  L 7,0  L 6,0  Z  " style="fill:rgb(61, 61, 61); fill-opacity:1.000; stroke:none;" />
 <path d="  M 6,4  L 6,6  L 8,6  L 8,5  L 7,5  L 7,4  Z  " style="fill:rgb(61, 61, 61); fill-opacity:1.000; stroke:none;" />
 <path d="  M 10,11  L 8,11  L 8,10  L 6,10  L 6,16  L 7,16  L 7,13  L 9,13  L 9,12  L 10,12  Z  " style="fill:rgb(61, 61, 61); fill-opacity:1.000; stroke:none;" />
 <path d="  M 6,18  L 6,26  L 7,26  L 7,24  L 8,24  L 8,20  L 7,20  L 7,18  Z  " style="fill:rgb(61, 61, 61); fill-opacity:1.000; stroke:none;" />
 <path d="  M 8,32  L 8,31  L 7,31  L 7,32  Z  " style="fill:rgb(61, 61, 61); fill-opacity:1.000; stroke:none;" />
 <path d="  M 26,20  L 25,20  L 25,25  L 24,25  L 24,29  L 23,29  L 23,30  L 22,30  L 22,31  L 19,31  L 19,30  L 17,30  L 17,31  L 16,31  L 16,32  L 23,32  L 23,31  L 24,31  L 24,30  L 25,30  L 25,28  L 26,28  Z  " style="fill:rgb(61, 61, 61); fill-opacity:1.000; stroke:none;" />
 <path d="  M 17,0  L 17,1  L 19,1  L 19,2  L 21,2  L 21,1  L 22,1  L 22,0  Z  " style="fill:rgb(61, 61, 61); fill-opacity:1.000; stroke:none;" />
 <path d="  M 23,1  L 25,1  L 25,0  L 23,0  Z  " style="fill:rgb(61, 61, 61); fill-opacity:1.000; stroke:none;" />
 <path d="  M 24,13  L 25,13  L 25,14  L 26,14  L 26,8  L 25,8  L 25,10  L 24,10  Z  " style="fill:rgb(61, 61, 61); fill-opacity:1.000; stroke:none;" />
 <path d="  M 9,2  L 9,1  L 16,1  L 16,2  L 18,2  L 18,3  L 20,3  L 20,2  L 19,2  L 19,1  L 17,1  L 17,0  L 7,0  L 7,1  L 6,1  L 6,4  L 7,4  L 7,3  L 8,3  L 8,2  Z  " style="fill:rgb(66, 66, 66); fill-opacity:1.000; stroke:none;" />
 <path d="  M 19,30  L 19,31  L 22,31  L 22,30  L 23,30  L 23,29  L 24,29  L 24,26  L 22,26  L 22,27  L 20,27  L 20,28  L 19,28  L 19,29  L 16,29  L 16,30  L 14,30  L 14,31  L 11,31  L 11,30  L 10,30  L 10,29  L 9,29  L 9,28  L 8,28  L 8,26  L 9,26  L 9,25  L 11,25  L 11,24  L 10,24  L 10,23  L 9,23  L 9,22  L 8,22  L 8,24  L 7,24  L 7,26  L 6,26  L 6,30  L 7,30  L 7,31  L 8,31  L 8,32  L 16,32  L 16,31  L 17,31  L 17,30  Z  " style="fill:rgb(66, 66, 66); fill-opacity:1.000; stroke:none;" />
 <path d="  M 7,10  L 8,10  L 8,9  L 9,9  L 9,8  L 10,8  L 10,7  L 9,7  L 9,6  L 7,6  Z  " style="fill:rgb(66, 66, 66); fill-opacity:1.000; stroke:none;" />
 <path d="  M 7,13  L 7,20  L 8,20  L 8,14  L 9,14  L 9,13  Z  " style="fill:rgb(66, 66, 66); fill-opacity:1.000; stroke:none;" />
 <path d="  M 13,11  L 11,11  L 11,10  L 8,10  L 8,11  L 10,11  L 10,12  L 13,12  Z  " style="fill:rgb(66, 66, 66); fill-opacity:1.000; stroke:none;" />
 <path d="  M 10,12  L 9,12  L 9,13  L 10,13  Z  " style="fill:rgb(66, 66, 66); fill-opacity:1.000; stroke:none;" />
 <path d="  M 10,21  L 9,21  L 9,22  L 14,22  L 14,23  L 18,23  L 18,22  L 15,22  L 15,21  L 13,21  L 13,20  L 10,20  Z  " style="fill:rgb(66, 66, 66); fill-opacity:1.000; stroke:none;" />
 <path d="  M 11,14  L 11,15  L 12,15  L 12,14  Z  " style="fill:rgb(66, 66, 66); fill-opacity:1.000; stroke:none;" />
 <path d="  M 15,5  L 15,4  L 14,4  L 14,5  Z  " style="fill:rgb(66, 66, 66); fill-opacity:1.000; stroke:none;" />
 <path d="  M 15,18  L 15,17  L 14,17  L 14,18  Z  " style="fill:rgb(66, 66, 66); fill-opacity:1.000; stroke:none;" />
 <path d="  M 16,27  L 15,27  L 15,28  L 16,28  Z  " style="fill:rgb(66, 66, 66); fill-opacity:1.000; stroke:none;" />
 <path d="  M 16,25  L 17,25  L 17,24  L 16,24  Z  " style="fill:rgb(66, 66, 66); fill-opacity:1.000; stroke:none;" />
 <path d="  M 18,7  L 18,8  L 21,8  L 21,9  L 22,9  L 22,10  L 23,10  L 23,11  L 24,11  L 24,10  L 25,10  L 25,8  L 26,8  L 26,6  L 25,6  L 25,7  L 24,7  L 24,8  L 22,8  L 22,7  L 21,7  L 21,6  L 17,6  L 17,7  Z  " style="fill:rgb(66, 66, 66); fill-opacity:1.000; stroke:none;" />
 <path d="  M 18,10  L 18,9  L 17,9  L 17,10  Z  " style="fill:rgb(66, 66, 66); fill-opacity:1.000; stroke:none;" />
 <path d="  M 20,16  L 20,15  L 22,15  L 22,14  L 21,14  L 21,13  L 22,13  L 22,11  L 21,11  L 21,12  L 20,12  L 20,13  L 19,13  L 19,14  L 17,14  L 17,15  L 18,15  L 18,16  Z  " style="fill:rgb(66, 66, 66); fill-opacity:1.000; stroke:none;" />
 <path d="  M 22,2  L 22,1  L 21,1  L 21,2  Z  " style="fill:rgb(66, 66, 66); fill-opacity:1.000; stroke:none;" />
 <path d="  M 22,0  L 22,1  L 23,1  L 23,0  Z  " style="fill:rgb(66, 66, 66); fill-opacity:1.000; stroke:none;" />
 <path d="  M 24,18  L 24,19  L 25,19  L 25,20  L 26,20  L 26,14  L 25,14  L 25,13  L 24,13  L 24,15  L 23,15  L 23,16  L 22,16  L 22,17  L 23,17  L 23,18  Z  " style="fill:rgb(66, 66, 66); fill-opacity:1.000; stroke:none;" />
 <path d="  M 26,4  L 26,0  L 25,0  L 25,1  L 23,1  L 23,2  L 24,2  L 24,3  L 25,3  L 25,4  Z  " style="fill:rgb(66, 66, 66); fill-opacity:1.000; stroke:none;" />
 <path d="  M 6,6  L 6,10  L 7,10  L 7,6  Z  " style="fill:rgb(56, 56, 56); fill-opacity:1.000; stroke:none;" />
 <path d="  M 6,18  L 7,18  L 7,16  L 6,16  Z  " style="fill:rgb(56, 56, 56); fill-opacity:1.000; stroke:none;" />
 <path d="  M 7,30  L 6,30  L 6,32  L 7,32  Z  " style="fill:rgb(56, 56, 56); fill-opacity:1.000; stroke:none;" />
 <path d="  M 26,28  L 25,28  L 25,30  L 24,30  L 24,31  L 23,31  L 23,32  L 26,32  Z  " style="fill:rgb(56, 56, 56); fill-opacity:1.000; stroke:none;" />
 <path d="  M 8,4  L 8,3  L 7,3  L 7,5  L 8,5  L 8,6  L 9,6  L 9,7  L 10,7  L 10,8  L 11,8  L 11,7  L 13,7  L 13,6  L 14,6  L 14,5  L 11,5  L 11,4  L 10,4  L 10,3  L 9,3  L 9,4  Z  M 11,6  L 10,6  L 10,5  L 11,5  Z  " style="fill:rgb(74, 74, 74); fill-opacity:1.000; stroke:none;" />
 <path d="  M 9,2  L 8,2  L 8,3  L 9,3  Z  " style="fill:rgb(74, 74, 74); fill-opacity:1.000; stroke:none;" />
 <path d="  M 10,8  L 9,8  L 9,9  L 8,9  L 8,10  L 11,10  L 11,9  L 10,9  Z  " style="fill:rgb(74, 74, 74); fill-opacity:1.000; stroke:none;" />
 <path d="  M 9,13  L 9,14  L 8,14  L 8,16  L 9,16  L 9,15  L 11,15  L 11,13  L 12,13  L 12,12  L 10,12  L 10,13  Z  " style="fill:rgb(74, 74, 74); fill-opacity:1.000; stroke:none;" />
 <path d="  M 8,19  L 9,19  L 9,18  L 8,18  Z  " style="fill:rgb(74, 74, 74); fill-opacity:1.000; stroke:none;" />
 <path d="  M 24,19  L 24,18  L 23,18  L 23,17  L 22,17  L 22,16  L 23,16  L 23,15  L 20,15  L 20,16  L 18,16  L 18,17  L 19,17  L 19,18  L 20,18  L 20,19  L 21,19  L 21,20  L 20,20  L 20,21  L 16,21  L 16,20  L 15,20  L 15,19  L 14,19  L 14,18  L 13,18  L 13,17  L 10,17  L 10,18  L 11,18  L 11,19  L 9,19  L 9,20  L 8,20  L 8,22  L 9,22  L 9,21  L 10,21  L 10,20  L 12,20  L 12,19  L 13,19  L 13,21  L 15,21  L 15,22  L 18,22  L 18,23  L 19,23  L 19,24  L 21,24  L 21,25  L 22,25  L 22,26  L 24,26  L 24,25  L 25,25  L 25,19  Z  M 23,24  L 22,24  L 22,23  L 23,23  Z  M 22,18  L 21,18  L 21,17  L 22,17  Z  M 21,22  L 20,22  L 20,21  L 22,21  L 22,23  L 21,23  Z  M 24,22  L 24,23  L 23,23  L 23,22  Z  " style="fill:rgb(74, 74, 74); fill-opacity:1.000; stroke:none;" />
 <path d="  M 11,28  L 10,28  L 10,27  L 12,27  L 12,26  L 14,26  L 14,25  L 13,25  L 13,24  L 12,24  L 12,22  L 9,22  L 9,23  L 10,23  L 10,24  L 11,24  L 11,25  L 10,25  L 10,26  L 8,26  L 8,28  L 9,28  L 9,29  L 10,29  L 10,30  L 11,30  L 11,31  L 12,31  L 12,30  L 13,30  L 13,31  L 14,31  L 14,30  L 16,30  L 16,29  L 19,29  L 19,28  L 20,28  L 20,27  L 22,27  L 22,26  L 19,26  L 19,27  L 18,27  L 18,28  L 14,28  L 14,27  L 13,27  L 13,29  L 11,29  Z  " style="fill:rgb(74, 74, 74); fill-opacity:1.000; stroke:none;" />
 <path d="  M 12,3  L 12,2  L 11,2  L 11,1  L 9,1  L 9,2  L 10,2  L 10,3  Z  " style="fill:rgb(74, 74, 74); fill-opacity:1.000; stroke:none;" />
 <path d="  M 9,16  L 9,17  L 10,17  L 10,16  Z  " style="fill:rgb(74, 74, 74); fill-opacity:1.000; stroke:none;" />
 <path d="  M 14,11  L 14,10  L 11,10  L 11,11  L 13,11  L 13,12  L 16,12  L 16,11  Z  " style="fill:rgb(74, 74, 74); fill-opacity:1.000; stroke:none;" />
 <path d="  M 12,1  L 12,2  L 13,2  L 13,1  Z  " style="fill:rgb(74, 74, 74); fill-opacity:1.000; stroke:none;" />
 <path d="  M 14,9  L 14,8  L 13,8  L 13,9  Z  " style="fill:rgb(74, 74, 74); fill-opacity:1.000; stroke:none;" />
 <path d="  M 14,14  L 14,13  L 13,13  L 13,14  Z  " style="fill:rgb(74, 74, 74); fill-opacity:1.000; stroke:none;" />
 <path d="  M 14,23  L 13,23  L 13,24  L 14,24  Z  " style="fill:rgb(74, 74, 74); fill-opacity:1.000; stroke:none;" />
 <path d="  M 14,4  L 15,4  L 15,3  L 14,3  Z  " style="fill:rgb(74, 74, 74); fill-opacity:1.000; stroke:none;" />
 <path d="  M 16,2  L 16,1  L 15,1  L 15,2  Z  " style="fill:rgb(74, 74, 74); fill-opacity:1.000; stroke:none;" />
 <path d="  M 18,16  L 18,15  L 17,15  L 17,14  L 15,14  L 15,15  L 16,15  L 16,16  Z  " style="fill:rgb(74, 74, 74); fill-opacity:1.000; stroke:none;" />
 <path d="  M 16,17  L 16,16  L 15,16  L 15,17  Z  " style="fill:rgb(74, 74, 74); fill-opacity:1.000; stroke:none;" />
 <path d="  M 18,2  L 16,2  L 16,3  L 18,3  Z  " style="fill:rgb(74, 74, 74); fill-opacity:1.000; stroke:none;" />
 <path d="  M 16,5  L 16,6  L 17,6  L 17,5  Z  " style="fill:rgb(74, 74, 74); fill-opacity:1.000; stroke:none;" />
 <path d="  M 18,8  L 18,7  L 16,7  L 16,8  Z  " style="fill:rgb(74, 74, 74); fill-opacity:1.000; stroke:none;" />
 <path d="  M 20,10  L 17,10  L 17,11  L 19,11  L 19,12  L 21,12  L 21,11  L 22,11  L 22,13  L 23,13  L 23,14  L 24,14  L 24,12  L 23,12  L 23,10  L 22,10  L 22,9  L 20,9  Z  " style="fill:rgb(74, 74, 74); fill-opacity:1.000; stroke:none;" />
 <path d="  M 18,19  L 18,18  L 17,18  L 17,19  Z  " style="fill:rgb(74, 74, 74); fill-opacity:1.000; stroke:none;" />
 <path d="  M 18,25  L 17,25  L 17,26  L 18,26  Z  " style="fill:rgb(74, 74, 74); fill-opacity:1.000; stroke:none;" />
 <path d="  M 20,5  L 20,4  L 19,4  L 19,5  Z  " style="fill:rgb(74, 74, 74); fill-opacity:1.000; stroke:none;" />
 <path d="  M 20,19  L 19,19  L 19,20  L 20,20  Z  " style="fill:rgb(74, 74, 74); fill-opacity:1.000; stroke:none;" />
 <path d="  M 20,2  L 20,4  L 21,4  L 21,5  L 23,5  L 23,6  L 24,6  L 24,7  L 25,7  L 25,6  L 26,6  L 26,4  L 25,4  L 25,3  L 24,3  L 24,2  Z  M 21,3  L 22,3  L 22,4  L 21,4  Z  " style="fill:rgb(74, 74, 74); fill-opacity:1.000; stroke:none;" />
 <path d="  M 21,5  L 20,5  L 20,6  L 21,6  Z  " style="fill:rgb(74, 74, 74); fill-opacity:1.000; stroke:none;" />
 <path d="  M 22,6  L 21,6  L 21,7  L 22,7  Z  " style="fill:rgb(74, 74, 74); fill-opacity:1.000; stroke:none;" />
 <path d="  M 22,7  L 22,8  L 24,8  L 24,7  Z  " style="fill:rgb(74, 74, 74); fill-opacity:1.000; stroke:none;" />
 <path d="  M 8,3  L 8,4  L 9,4  L 9,3  Z  " style="fill:rgb(82, 82, 82); fill-opacity:1.000; stroke:none;" />
 <path d="  M 10,18  L 10,17  L 9,17  L 9,16  L 8,16  L 8,18  L 9,18  L 9,19  L 11,19  L 11,18  Z  " style="fill:rgb(82, 82, 82); fill-opacity:1.000; stroke:none;" />
 <path d="  M 8,19  L 8,20  L 9,20  L 9,19  Z  " style="fill:rgb(82, 82, 82); fill-opacity:1.000; stroke:none;" />
 <path d="  M 10,3  L 10,2  L 9,2  L 9,3  Z  " style="fill:rgb(82, 82, 82); fill-opacity:1.000; stroke:none;" />
 <path d="  M 10,3  L 10,4  L 11,4  L 11,5  L 14,5  L 14,6  L 13,6  L 13,7  L 11,7  L 11,8  L 10,8  L 10,9  L 11,9  L 11,10  L 14,10  L 14,11  L 16,11  L 16,12  L 12,12  L 12,13  L 11,13  L 11,14  L 12,14  L 12,15  L 9,15  L 9,16  L 10,16  L 10,17  L 13,17  L 13,18  L 14,18  L 14,17  L 15,17  L 15,16  L 16,16  L 16,15  L 15,15  L 15,14  L 19,14  L 19,13  L 20,13  L 20,12  L 19,12  L 19,11  L 17,11  L 17,9  L 18,9  L 18,10  L 20,10  L 20,9  L 21,9  L 21,8  L 16,8  L 16,7  L 17,7  L 17,6  L 20,6  L 20,5  L 19,5  L 19,4  L 20,4  L 20,3  L 16,3  L 16,2  L 15,2  L 15,1  L 13,1  L 13,2  L 12,2  L 12,3  Z  M 16,6  L 16,5  L 17,5  L 17,6  Z  M 14,13  L 14,14  L 13,14  L 13,13  Z  M 13,8  L 14,8  L 14,9  L 13,9  Z  M 15,5  L 14,5  L 14,3  L 15,3  Z  " style="fill:rgb(82, 82, 82); fill-opacity:1.000; stroke:none;" />
 <path d="  M 10,26  L 10,25  L 9,25  L 9,26  Z  " style="fill:rgb(82, 82, 82); fill-opacity:1.000; stroke:none;" />
 <path d="  M 11,5  L 10,5  L 10,6  L 11,6  Z  " style="fill:rgb(82, 82, 82); fill-opacity:1.000; stroke:none;" />
 <path d="  M 18,27  L 19,27  L 19,26  L 22,26  L 22,25  L 21,25  L 21,24  L 19,24  L 19,23  L 14,23  L 14,24  L 13,24  L 13,25  L 14,25  L 14,26  L 12,26  L 12,27  L 10,27  L 10,28  L 11,28  L 11,29  L 13,29  L 13,27  L 14,27  L 14,28  L 15,28  L 15,27  L 16,27  L 16,28  L 18,28  Z  M 16,25  L 16,24  L 17,24  L 17,25  Z  M 18,26  L 17,26  L 17,25  L 18,25  Z  " style="fill:rgb(82, 82, 82); fill-opacity:1.000; stroke:none;" />
 <path d="  M 12,1  L 11,1  L 11,2  L 12,2  Z  " style="fill:rgb(82, 82, 82); fill-opacity:1.000; stroke:none;" />
 <path d="  M 13,19  L 12,19  L 12,20  L 13,20  Z  " style="fill:rgb(82, 82, 82); fill-opacity:1.000; stroke:none;" />
 <path d="  M 13,24  L 13,23  L 14,23  L 14,22  L 12,22  L 12,24  Z  " style="fill:rgb(82, 82, 82); fill-opacity:1.000; stroke:none;" />
 <path d="  M 12,31  L 13,31  L 13,30  L 12,30  Z  " style="fill:rgb(82, 82, 82); fill-opacity:1.000; stroke:none;" />
 <path d="  M 16,16  L 16,17  L 15,17  L 15,18  L 14,18  L 14,19  L 15,19  L 15,20  L 16,20  L 16,21  L 20,21  L 20,20  L 19,20  L 19,19  L 20,19  L 20,18  L 19,18  L 19,17  L 18,17  L 18,16  Z  M 18,18  L 18,19  L 17,19  L 17,18  Z  " style="fill:rgb(82, 82, 82); fill-opacity:1.000; stroke:none;" />
 <path d="  M 20,4  L 20,5  L 21,5  L 21,4  Z  " style="fill:rgb(82, 82, 82); fill-opacity:1.000; stroke:none;" />
 <path d="  M 21,20  L 21,19  L 20,19  L 20,20  Z  " style="fill:rgb(82, 82, 82); fill-opacity:1.000; stroke:none;" />
 <path d="  M 20,21  L 20,22  L 21,22  L 21,23  L 22,23  L 22,21  Z  " style="fill:rgb(82, 82, 82); fill-opacity:1.000; stroke:none;" />
 <path d="  M 22,3  L 21,3  L 21,4  L 22,4  Z  " style="fill:rgb(82, 82, 82); fill-opacity:1.000; stroke:none;" />
 <path d="  M 24,7  L 24,6  L 23,6  L 23,5  L 21,5  L 21,6  L 22,6  L 22,7  Z  " style="fill:rgb(82, 82, 82); fill-opacity:1.000; stroke:none;" />
 <path d="  M 24,15  L 24,14  L 23,14  L 23,13  L 21,13  L 21,14  L 22,14  L 22,15  Z  " style="fill:rgb(82, 82, 82); fill-opacity:1.000; stroke:none;" />
 <path d="  M 21,17  L 21,18  L 22,18  L 22,17  Z  " style="fill:rgb(82, 82, 82); fill-opacity:1.000; stroke:none;" />
 <path d="  M 22,2  L 23,2  L 23,1  L 22,1  Z  " style="fill:rgb(82, 82, 82); fill-opacity:1.000; stroke:none;" />
 <path d="  M 22,24  L 23,24  L 23,23  L 22,23  Z  " style="fill:rgb(82, 82, 82); fill-opacity:1.000; stroke:none;" />
 <path d="  M 23,11  L 23,12  L 24,12  L 24,11  Z  " style="fill:rgb(82, 82, 82); fill-opacity:1.000; stroke:none;" />
 <path d="  M 23,22  L 23,23  L 24,23  L 24,22  Z  " style="fill:rgb(82, 82, 82); fill-opacity:1.000; stroke:none;" />
</svg>
