<?xml version="1.0" encoding="UTF-8" standalone="no"?>
<!DOCTYPE svg PUBLIC "-//W3C//DTD SVG 1.1//EN" 
  "http://www.w3.org/Graphics/SVG/1.1/DTD/svg11.dtd">
<svg width="32" height="32"
	 xmlns="http://www.w3.org/2000/svg" version="1.1">
 <path d="  M 1,1  L 1,0  L 0,0  L 0,1  Z  " style="fill:rgb(128, 94, 54); fill-opacity:1.000; stroke:none;" />
 <path d="  M 0,32  L 1,32  L 1,31  L 0,31  Z  " style="fill:rgb(128, 94, 54); fill-opacity:1.000; stroke:none;" />
 <path d="  M 1,15  L 1,16  L 3,16  L 3,15  Z  " style="fill:rgb(128, 94, 54); fill-opacity:1.000; stroke:none;" />
 <path d="  M 1,23  L 1,24  L 6,24  L 6,23  Z  " style="fill:rgb(128, 94, 54); fill-opacity:1.000; stroke:none;" />
 <path d="  M 4,12  L 3,12  L 3,13  L 4,13  Z  " style="fill:rgb(128, 94, 54); fill-opacity:1.000; stroke:none;" />
 <path d="  M 4,20  L 4,19  L 3,19  L 3,20  Z  " style="fill:rgb(128, 94, 54); fill-opacity:1.000; stroke:none;" />
 <path d="  M 4,11  L 5,11  L 5,10  L 4,10  Z  " style="fill:rgb(128, 94, 54); fill-opacity:1.000; stroke:none;" />
 <path d="  M 4,21  L 4,22  L 5,22  L 5,21  Z  " style="fill:rgb(128, 94, 54); fill-opacity:1.000; stroke:none;" />
 <path d="  M 5,8  L 5,9  L 6,9  L 6,8  Z  " style="fill:rgb(128, 94, 54); fill-opacity:1.000; stroke:none;" />
 <path d="  M 6,7  L 6,8  L 7,8  L 7,7  Z  " style="fill:rgb(128, 94, 54); fill-opacity:1.000; stroke:none;" />
 <path d="  M 6,16  L 6,17  L 7,17  L 7,16  Z  " style="fill:rgb(128, 94, 54); fill-opacity:1.000; stroke:none;" />
 <path d="  M 7,20  L 7,19  L 6,19  L 6,21  L 9,21  L 9,20  Z  " style="fill:rgb(128, 94, 54); fill-opacity:1.000; stroke:none;" />
 <path d="  M 7,24  L 6,24  L 6,25  L 7,25  Z  " style="fill:rgb(128, 94, 54); fill-opacity:1.000; stroke:none;" />
 <path d="  M 7,7  L 8,7  L 8,6  L 7,6  Z  " style="fill:rgb(128, 94, 54); fill-opacity:1.000; stroke:none;" />
 <path d="  M 7,26  L 8,26  L 8,25  L 7,25  Z  " style="fill:rgb(128, 94, 54); fill-opacity:1.000; stroke:none;" />
 <path d="  M 8,5  L 8,6  L 9,6  L 9,5  Z  " style="fill:rgb(128, 94, 54); fill-opacity:1.000; stroke:none;" />
 <path d="  M 8,27  L 9,27  L 9,26  L 8,26  Z  " style="fill:rgb(128, 94, 54); fill-opacity:1.000; stroke:none;" />
 <path d="  M 9,10  L 10,10  L 10,8  L 9,8  Z  " style="fill:rgb(128, 94, 54); fill-opacity:1.000; stroke:none;" />
 <path d="  M 9,16  L 9,17  L 10,17  L 10,16  Z  " style="fill:rgb(128, 94, 54); fill-opacity:1.000; stroke:none;" />
 <path d="  M 9,19  L 9,20  L 10,20  L 10,19  Z  " style="fill:rgb(128, 94, 54); fill-opacity:1.000; stroke:none;" />
 <path d="  M 11,8  L 12,8  L 12,4  L 10,4  L 10,5  L 11,5  Z  " style="fill:rgb(128, 94, 54); fill-opacity:1.000; stroke:none;" />
 <path d="  M 10,17  L 10,19  L 11,19  L 11,17  Z  " style="fill:rgb(128, 94, 54); fill-opacity:1.000; stroke:none;" />
 <path d="  M 12,28  L 12,27  L 10,27  L 10,28  Z  " style="fill:rgb(128, 94, 54); fill-opacity:1.000; stroke:none;" />
 <path d="  M 11,9  L 11,10  L 12,10  L 12,9  Z  " style="fill:rgb(128, 94, 54); fill-opacity:1.000; stroke:none;" />
 <path d="  M 12,11  L 11,11  L 11,13  L 12,13  Z  " style="fill:rgb(128, 94, 54); fill-opacity:1.000; stroke:none;" />
 <path d="  M 11,17  L 12,17  L 12,14  L 11,14  Z  " style="fill:rgb(128, 94, 54); fill-opacity:1.000; stroke:none;" />
 <path d="  M 12,19  L 11,19  L 11,23  L 12,23  Z  " style="fill:rgb(128, 94, 54); fill-opacity:1.000; stroke:none;" />
 <path d="  M 12,25  L 11,25  L 11,26  L 12,26  Z  " style="fill:rgb(128, 94, 54); fill-opacity:1.000; stroke:none;" />
 <path d="  M 13,3  L 12,3  L 12,4  L 13,4  Z  " style="fill:rgb(128, 94, 54); fill-opacity:1.000; stroke:none;" />
 <path d="  M 13,28  L 12,28  L 12,29  L 13,29  Z  " style="fill:rgb(128, 94, 54); fill-opacity:1.000; stroke:none;" />
 <path d="  M 14,3  L 14,1  L 13,1  L 13,3  Z  " style="fill:rgb(128, 94, 54); fill-opacity:1.000; stroke:none;" />
 <path d="  M 14,6  L 13,6  L 13,8  L 14,8  Z  " style="fill:rgb(128, 94, 54); fill-opacity:1.000; stroke:none;" />
 <path d="  M 13,29  L 13,31  L 14,31  L 14,29  Z  " style="fill:rgb(128, 94, 54); fill-opacity:1.000; stroke:none;" />
 <path d="  M 18,25  L 18,28  L 19,28  L 19,25  Z  " style="fill:rgb(128, 94, 54); fill-opacity:1.000; stroke:none;" />
 <path d="  M 19,29  L 18,29  L 18,31  L 19,31  Z  " style="fill:rgb(128, 94, 54); fill-opacity:1.000; stroke:none;" />
 <path d="  M 19,4  L 20,4  L 20,3  L 19,3  Z  " style="fill:rgb(128, 94, 54); fill-opacity:1.000; stroke:none;" />
 <path d="  M 19,29  L 20,29  L 20,28  L 19,28  Z  " style="fill:rgb(128, 94, 54); fill-opacity:1.000; stroke:none;" />
 <path d="  M 20,4  L 20,7  L 21,7  L 21,5  L 22,5  L 22,4  Z  " style="fill:rgb(128, 94, 54); fill-opacity:1.000; stroke:none;" />
 <path d="  M 21,8  L 20,8  L 20,11  L 21,11  Z  " style="fill:rgb(128, 94, 54); fill-opacity:1.000; stroke:none;" />
 <path d="  M 21,12  L 20,12  L 20,13  L 21,13  Z  " style="fill:rgb(128, 94, 54); fill-opacity:1.000; stroke:none;" />
 <path d="  M 21,15  L 20,15  L 20,17  L 21,17  Z  " style="fill:rgb(128, 94, 54); fill-opacity:1.000; stroke:none;" />
 <path d="  M 21,18  L 20,18  L 20,21  L 21,21  Z  " style="fill:rgb(128, 94, 54); fill-opacity:1.000; stroke:none;" />
 <path d="  M 21,23  L 20,23  L 20,28  L 22,28  L 22,27  L 21,27  Z  " style="fill:rgb(128, 94, 54); fill-opacity:1.000; stroke:none;" />
 <path d="  M 24,6  L 24,1  L 23,1  L 23,6  Z  " style="fill:rgb(128, 94, 54); fill-opacity:1.000; stroke:none;" />
 <path d="  M 23,26  L 23,27  L 24,27  L 24,26  Z  " style="fill:rgb(128, 94, 54); fill-opacity:1.000; stroke:none;" />
 <path d="  M 25,6  L 24,6  L 24,7  L 25,7  Z  " style="fill:rgb(128, 94, 54); fill-opacity:1.000; stroke:none;" />
 <path d="  M 25,26  L 25,25  L 24,25  L 24,26  Z  " style="fill:rgb(128, 94, 54); fill-opacity:1.000; stroke:none;" />
 <path d="  M 26,7  L 25,7  L 25,8  L 26,8  Z  " style="fill:rgb(128, 94, 54); fill-opacity:1.000; stroke:none;" />
 <path d="  M 25,20  L 25,21  L 26,21  L 26,20  Z  " style="fill:rgb(128, 94, 54); fill-opacity:1.000; stroke:none;" />
 <path d="  M 26,25  L 26,24  L 25,24  L 25,25  Z  " style="fill:rgb(128, 94, 54); fill-opacity:1.000; stroke:none;" />
 <path d="  M 26,8  L 26,9  L 27,9  L 27,8  Z  " style="fill:rgb(128, 94, 54); fill-opacity:1.000; stroke:none;" />
 <path d="  M 26,24  L 27,24  L 27,23  L 26,23  Z  " style="fill:rgb(128, 94, 54); fill-opacity:1.000; stroke:none;" />
 <path d="  M 28,10  L 27,10  L 27,11  L 28,11  Z  " style="fill:rgb(128, 94, 54); fill-opacity:1.000; stroke:none;" />
 <path d="  M 28,13  L 29,13  L 29,12  L 28,12  Z  " style="fill:rgb(128, 94, 54); fill-opacity:1.000; stroke:none;" />
 <path d="  M 29,19  L 28,19  L 28,20  L 29,20  Z  " style="fill:rgb(128, 94, 54); fill-opacity:1.000; stroke:none;" />
 <path d="  M 31,22  L 31,21  L 28,21  L 28,22  Z  " style="fill:rgb(128, 94, 54); fill-opacity:1.000; stroke:none;" />
 <path d="  M 31,13  L 29,13  L 29,14  L 31,14  Z  " style="fill:rgb(128, 94, 54); fill-opacity:1.000; stroke:none;" />
 <path d="  M 31,1  L 32,1  L 32,0  L 31,0  Z  " style="fill:rgb(128, 94, 54); fill-opacity:1.000; stroke:none;" />
 <path d="  M 32,31  L 31,31  L 31,32  L 32,32  Z  " style="fill:rgb(128, 94, 54); fill-opacity:1.000; stroke:none;" />
 <path d="  M 1,7  L 1,1  L 0,1  L 0,7  Z  " style="fill:rgb(153, 113, 64); fill-opacity:1.000; stroke:none;" />
 <path d="  M 0,15  L 1,15  L 1,8  L 0,8  Z  " style="fill:rgb(153, 113, 64); fill-opacity:1.000; stroke:none;" />
 <path d="  M 1,16  L 0,16  L 0,23  L 1,23  Z  " style="fill:rgb(153, 113, 64); fill-opacity:1.000; stroke:none;" />
 <path d="  M 1,24  L 0,24  L 0,30  L 1,30  Z  " style="fill:rgb(153, 113, 64); fill-opacity:1.000; stroke:none;" />
 <path d="  M 1,1  L 2,1  L 2,0  L 1,0  Z  " style="fill:rgb(153, 113, 64); fill-opacity:1.000; stroke:none;" />
 <path d="  M 10,32  L 10,31  L 2,31  L 2,32  Z  " style="fill:rgb(153, 113, 64); fill-opacity:1.000; stroke:none;" />
 <path d="  M 3,0  L 3,1  L 10,1  L 10,0  Z  " style="fill:rgb(153, 113, 64); fill-opacity:1.000; stroke:none;" />
 <path d="  M 10,11  L 9,11  L 9,8  L 8,8  L 8,7  L 7,7  L 7,12  L 6,12  L 6,14  L 5,14  L 5,12  L 4,12  L 4,20  L 5,20  L 5,16  L 6,16  L 6,15  L 10,15  L 10,16  L 11,16  L 11,9  L 10,9  Z  M 9,12  L 10,12  L 10,13  L 9,13  Z  " style="fill:rgb(153, 113, 64); fill-opacity:1.000; stroke:none;" />
 <path d="  M 5,10  L 5,12  L 6,12  L 6,10  Z  " style="fill:rgb(153, 113, 64); fill-opacity:1.000; stroke:none;" />
 <path d="  M 10,21  L 6,21  L 6,20  L 5,20  L 5,22  L 6,22  L 6,24  L 8,24  L 8,22  L 9,22  L 9,26  L 10,26  L 10,27  L 11,27  L 11,20  L 10,20  Z  " style="fill:rgb(153, 113, 64); fill-opacity:1.000; stroke:none;" />
 <path d="  M 18,1  L 18,0  L 11,0  L 11,1  Z  " style="fill:rgb(153, 113, 64); fill-opacity:1.000; stroke:none;" />
 <path d="  M 18,32  L 18,31  L 11,31  L 11,32  Z  " style="fill:rgb(153, 113, 64); fill-opacity:1.000; stroke:none;" />
 <path d="  M 15,14  L 14,14  L 14,11  L 13,11  L 13,10  L 12,10  L 12,21  L 13,21  L 13,23  L 12,23  L 12,28  L 14,28  L 14,25  L 15,25  L 15,27  L 16,27  L 16,26  L 17,26  L 17,24  L 18,24  L 18,22  L 19,22  L 19,24  L 20,24  L 20,6  L 19,6  L 19,10  L 18,10  L 18,8  L 17,8  L 17,6  L 16,6  L 16,9  L 15,9  Z  M 19,15  L 18,15  L 18,13  L 19,13  Z  M 13,21  L 13,19  L 14,19  L 14,21  Z  M 17,19  L 17,18  L 18,18  L 18,19  Z  M 17,16  L 17,15  L 18,15  L 18,16  Z  M 18,12  L 18,11  L 19,11  L 19,12  Z  M 14,15  L 15,15  L 15,16  L 14,16  Z  M 15,24  L 14,24  L 14,23  L 15,23  Z  M 17,20  L 18,20  L 18,22  L 17,22  Z  " style="fill:rgb(153, 113, 64); fill-opacity:1.000; stroke:none;" />
 <path d="  M 14,9  L 15,9  L 15,7  L 14,7  Z  " style="fill:rgb(153, 113, 64); fill-opacity:1.000; stroke:none;" />
 <path d="  M 18,27  L 18,26  L 17,26  L 17,27  Z  " style="fill:rgb(153, 113, 64); fill-opacity:1.000; stroke:none;" />
 <path d="  M 26,1  L 26,0  L 19,0  L 19,1  Z  " style="fill:rgb(153, 113, 64); fill-opacity:1.000; stroke:none;" />
 <path d="  M 19,32  L 26,32  L 26,31  L 19,31  Z  " style="fill:rgb(153, 113, 64); fill-opacity:1.000; stroke:none;" />
 <path d="  M 27,12  L 27,10  L 26,10  L 26,13  L 25,13  L 25,10  L 24,10  L 24,8  L 23,8  L 23,6  L 22,6  L 22,5  L 21,5  L 21,27  L 22,27  L 22,26  L 23,26  L 23,23  L 24,23  L 24,24  L 25,24  L 25,19  L 26,19  L 26,22  L 27,22  L 27,20  L 28,20  L 28,12  Z  M 23,20  L 24,20  L 24,22  L 23,22  Z  M 25,18  L 24,18  L 24,16  L 25,16  Z  M 24,13  L 24,15  L 23,15  L 23,13  Z  M 23,18  L 23,19  L 22,19  L 22,18  Z  M 26,15  L 26,16  L 25,16  L 25,15  Z  M 23,10  L 24,10  L 24,12  L 23,12  Z  " style="fill:rgb(153, 113, 64); fill-opacity:1.000; stroke:none;" />
 <path d="  M 25,8  L 25,10  L 26,10  L 26,8  Z  " style="fill:rgb(153, 113, 64); fill-opacity:1.000; stroke:none;" />
 <path d="  M 31,1  L 31,0  L 27,0  L 27,1  Z  " style="fill:rgb(153, 113, 64); fill-opacity:1.000; stroke:none;" />
 <path d="  M 31,32  L 31,31  L 27,31  L 27,32  Z  " style="fill:rgb(153, 113, 64); fill-opacity:1.000; stroke:none;" />
 <path d="  M 32,5  L 32,1  L 31,1  L 31,5  Z  " style="fill:rgb(153, 113, 64); fill-opacity:1.000; stroke:none;" />
 <path d="  M 32,6  L 31,6  L 31,13  L 32,13  Z  " style="fill:rgb(153, 113, 64); fill-opacity:1.000; stroke:none;" />
 <path d="  M 31,21  L 32,21  L 32,14  L 31,14  Z  " style="fill:rgb(153, 113, 64); fill-opacity:1.000; stroke:none;" />
 <path d="  M 31,30  L 32,30  L 32,22  L 31,22  Z  " style="fill:rgb(153, 113, 64); fill-opacity:1.000; stroke:none;" />
 <path d="  M 1,7  L 0,7  L 0,8  L 1,8  Z  " style="fill:rgb(139, 103, 60); fill-opacity:1.000; stroke:none;" />
 <path d="  M 1,15  L 0,15  L 0,16  L 1,16  Z  " style="fill:rgb(139, 103, 60); fill-opacity:1.000; stroke:none;" />
 <path d="  M 0,23  L 0,24  L 1,24  L 1,23  Z  " style="fill:rgb(139, 103, 60); fill-opacity:1.000; stroke:none;" />
 <path d="  M 1,31  L 1,30  L 0,30  L 0,31  Z  " style="fill:rgb(139, 103, 60); fill-opacity:1.000; stroke:none;" />
 <path d="  M 2,31  L 1,31  L 1,32  L 2,32  Z  " style="fill:rgb(139, 103, 60); fill-opacity:1.000; stroke:none;" />
 <path d="  M 3,0  L 2,0  L 2,1  L 3,1  Z  " style="fill:rgb(139, 103, 60); fill-opacity:1.000; stroke:none;" />
 <path d="  M 4,13  L 3,13  L 3,19  L 4,19  Z  " style="fill:rgb(139, 103, 60); fill-opacity:1.000; stroke:none;" />
 <path d="  M 5,12  L 5,11  L 4,11  L 4,12  Z  " style="fill:rgb(139, 103, 60); fill-opacity:1.000; stroke:none;" />
 <path d="  M 5,20  L 4,20  L 4,21  L 5,21  Z  " style="fill:rgb(139, 103, 60); fill-opacity:1.000; stroke:none;" />
 <path d="  M 7,12  L 7,8  L 6,8  L 6,9  L 5,9  L 5,10  L 6,10  L 6,12  Z  " style="fill:rgb(139, 103, 60); fill-opacity:1.000; stroke:none;" />
 <path d="  M 5,14  L 6,14  L 6,12  L 5,12  Z  " style="fill:rgb(139, 103, 60); fill-opacity:1.000; stroke:none;" />
 <path d="  M 6,16  L 5,16  L 5,20  L 6,20  Z  " style="fill:rgb(139, 103, 60); fill-opacity:1.000; stroke:none;" />
 <path d="  M 5,23  L 6,23  L 6,22  L 5,22  Z  " style="fill:rgb(139, 103, 60); fill-opacity:1.000; stroke:none;" />
 <path d="  M 6,15  L 6,16  L 10,16  L 10,15  Z  " style="fill:rgb(139, 103, 60); fill-opacity:1.000; stroke:none;" />
 <path d="  M 9,22  L 8,22  L 8,24  L 7,24  L 7,25  L 8,25  L 8,26  L 9,26  Z  " style="fill:rgb(139, 103, 60); fill-opacity:1.000; stroke:none;" />
 <path d="  M 8,8  L 10,8  L 10,9  L 12,9  L 12,10  L 13,10  L 13,11  L 14,11  L 14,14  L 15,14  L 15,9  L 16,9  L 16,6  L 17,6  L 17,8  L 18,8  L 18,10  L 19,10  L 19,6  L 20,6  L 20,4  L 19,4  L 19,3  L 13,3  L 13,4  L 12,4  L 12,8  L 11,8  L 11,5  L 9,5  L 9,6  L 8,6  Z  M 13,8  L 13,6  L 14,6  L 14,7  L 15,7  L 15,9  L 14,9  L 14,8  Z  " style="fill:rgb(139, 103, 60); fill-opacity:1.000; stroke:none;" />
 <path d="  M 9,11  L 10,11  L 10,10  L 9,10  Z  " style="fill:rgb(139, 103, 60); fill-opacity:1.000; stroke:none;" />
 <path d="  M 10,12  L 9,12  L 9,13  L 10,13  Z  " style="fill:rgb(139, 103, 60); fill-opacity:1.000; stroke:none;" />
 <path d="  M 10,21  L 10,20  L 9,20  L 9,21  Z  " style="fill:rgb(139, 103, 60); fill-opacity:1.000; stroke:none;" />
 <path d="  M 9,27  L 10,27  L 10,26  L 9,26  Z  " style="fill:rgb(139, 103, 60); fill-opacity:1.000; stroke:none;" />
 <path d="  M 11,0  L 10,0  L 10,1  L 11,1  Z  " style="fill:rgb(139, 103, 60); fill-opacity:1.000; stroke:none;" />
 <path d="  M 11,17  L 11,16  L 10,16  L 10,17  Z  " style="fill:rgb(139, 103, 60); fill-opacity:1.000; stroke:none;" />
 <path d="  M 11,20  L 11,19  L 10,19  L 10,20  Z  " style="fill:rgb(139, 103, 60); fill-opacity:1.000; stroke:none;" />
 <path d="  M 10,31  L 10,32  L 11,32  L 11,31  Z  " style="fill:rgb(139, 103, 60); fill-opacity:1.000; stroke:none;" />
 <path d="  M 12,10  L 11,10  L 11,11  L 12,11  Z  " style="fill:rgb(139, 103, 60); fill-opacity:1.000; stroke:none;" />
 <path d="  M 12,13  L 11,13  L 11,14  L 12,14  Z  " style="fill:rgb(139, 103, 60); fill-opacity:1.000; stroke:none;" />
 <path d="  M 11,17  L 11,19  L 12,19  L 12,17  Z  " style="fill:rgb(139, 103, 60); fill-opacity:1.000; stroke:none;" />
 <path d="  M 11,23  L 11,25  L 12,25  L 12,23  Z  " style="fill:rgb(139, 103, 60); fill-opacity:1.000; stroke:none;" />
 <path d="  M 12,26  L 11,26  L 11,27  L 12,27  Z  " style="fill:rgb(139, 103, 60); fill-opacity:1.000; stroke:none;" />
 <path d="  M 12,23  L 13,23  L 13,21  L 12,21  Z  " style="fill:rgb(139, 103, 60); fill-opacity:1.000; stroke:none;" />
 <path d="  M 13,21  L 14,21  L 14,19  L 13,19  Z  " style="fill:rgb(139, 103, 60); fill-opacity:1.000; stroke:none;" />
 <path d="  M 13,29  L 19,29  L 19,28  L 18,28  L 18,27  L 17,27  L 17,26  L 16,26  L 16,27  L 15,27  L 15,25  L 14,25  L 14,28  L 13,28  Z  " style="fill:rgb(139, 103, 60); fill-opacity:1.000; stroke:none;" />
 <path d="  M 14,16  L 15,16  L 15,15  L 14,15  Z  " style="fill:rgb(139, 103, 60); fill-opacity:1.000; stroke:none;" />
 <path d="  M 14,24  L 15,24  L 15,23  L 14,23  Z  " style="fill:rgb(139, 103, 60); fill-opacity:1.000; stroke:none;" />
 <path d="  M 17,15  L 17,16  L 18,16  L 18,15  Z  " style="fill:rgb(139, 103, 60); fill-opacity:1.000; stroke:none;" />
 <path d="  M 18,19  L 18,18  L 17,18  L 17,19  Z  " style="fill:rgb(139, 103, 60); fill-opacity:1.000; stroke:none;" />
 <path d="  M 17,20  L 17,22  L 18,22  L 18,20  Z  " style="fill:rgb(139, 103, 60); fill-opacity:1.000; stroke:none;" />
 <path d="  M 18,25  L 19,25  L 19,28  L 20,28  L 20,24  L 19,24  L 19,22  L 18,22  L 18,24  L 17,24  L 17,26  L 18,26  Z  " style="fill:rgb(139, 103, 60); fill-opacity:1.000; stroke:none;" />
 <path d="  M 19,1  L 19,0  L 18,0  L 18,1  Z  " style="fill:rgb(139, 103, 60); fill-opacity:1.000; stroke:none;" />
 <path d="  M 19,12  L 19,11  L 18,11  L 18,12  Z  " style="fill:rgb(139, 103, 60); fill-opacity:1.000; stroke:none;" />
 <path d="  M 19,15  L 19,13  L 18,13  L 18,15  Z  " style="fill:rgb(139, 103, 60); fill-opacity:1.000; stroke:none;" />
 <path d="  M 19,32  L 19,31  L 18,31  L 18,32  Z  " style="fill:rgb(139, 103, 60); fill-opacity:1.000; stroke:none;" />
 <path d="  M 21,7  L 20,7  L 20,8  L 21,8  Z  " style="fill:rgb(139, 103, 60); fill-opacity:1.000; stroke:none;" />
 <path d="  M 21,12  L 21,11  L 20,11  L 20,12  Z  " style="fill:rgb(139, 103, 60); fill-opacity:1.000; stroke:none;" />
 <path d="  M 20,15  L 21,15  L 21,13  L 20,13  Z  " style="fill:rgb(139, 103, 60); fill-opacity:1.000; stroke:none;" />
 <path d="  M 20,17  L 20,18  L 21,18  L 21,17  Z  " style="fill:rgb(139, 103, 60); fill-opacity:1.000; stroke:none;" />
 <path d="  M 20,21  L 20,23  L 21,23  L 21,21  Z  " style="fill:rgb(139, 103, 60); fill-opacity:1.000; stroke:none;" />
 <path d="  M 22,5  L 22,6  L 23,6  L 23,5  Z  " style="fill:rgb(139, 103, 60); fill-opacity:1.000; stroke:none;" />
 <path d="  M 22,19  L 23,19  L 23,18  L 22,18  Z  " style="fill:rgb(139, 103, 60); fill-opacity:1.000; stroke:none;" />
 <path d="  M 23,27  L 23,26  L 22,26  L 22,27  Z  " style="fill:rgb(139, 103, 60); fill-opacity:1.000; stroke:none;" />
 <path d="  M 25,7  L 24,7  L 24,6  L 23,6  L 23,8  L 24,8  L 24,10  L 25,10  Z  " style="fill:rgb(139, 103, 60); fill-opacity:1.000; stroke:none;" />
 <path d="  M 24,10  L 23,10  L 23,12  L 24,12  Z  " style="fill:rgb(139, 103, 60); fill-opacity:1.000; stroke:none;" />
 <path d="  M 23,15  L 24,15  L 24,13  L 23,13  Z  " style="fill:rgb(139, 103, 60); fill-opacity:1.000; stroke:none;" />
 <path d="  M 23,22  L 24,22  L 24,20  L 23,20  Z  " style="fill:rgb(139, 103, 60); fill-opacity:1.000; stroke:none;" />
 <path d="  M 25,25  L 25,24  L 24,24  L 24,23  L 23,23  L 23,26  L 24,26  L 24,25  Z  " style="fill:rgb(139, 103, 60); fill-opacity:1.000; stroke:none;" />
 <path d="  M 24,18  L 25,18  L 25,16  L 24,16  Z  " style="fill:rgb(139, 103, 60); fill-opacity:1.000; stroke:none;" />
 <path d="  M 25,13  L 26,13  L 26,10  L 25,10  Z  " style="fill:rgb(139, 103, 60); fill-opacity:1.000; stroke:none;" />
 <path d="  M 26,16  L 26,15  L 25,15  L 25,16  Z  " style="fill:rgb(139, 103, 60); fill-opacity:1.000; stroke:none;" />
 <path d="  M 26,20  L 26,19  L 25,19  L 25,20  Z  " style="fill:rgb(139, 103, 60); fill-opacity:1.000; stroke:none;" />
 <path d="  M 26,22  L 26,21  L 25,21  L 25,24  L 26,24  L 26,23  L 27,23  L 27,22  Z  " style="fill:rgb(139, 103, 60); fill-opacity:1.000; stroke:none;" />
 <path d="  M 26,1  L 27,1  L 27,0  L 26,0  Z  " style="fill:rgb(139, 103, 60); fill-opacity:1.000; stroke:none;" />
 <path d="  M 27,10  L 27,9  L 26,9  L 26,10  Z  " style="fill:rgb(139, 103, 60); fill-opacity:1.000; stroke:none;" />
 <path d="  M 27,31  L 26,31  L 26,32  L 27,32  Z  " style="fill:rgb(139, 103, 60); fill-opacity:1.000; stroke:none;" />
 <path d="  M 27,12  L 28,12  L 28,11  L 27,11  Z  " style="fill:rgb(139, 103, 60); fill-opacity:1.000; stroke:none;" />
 <path d="  M 28,22  L 28,20  L 27,20  L 27,22  Z  " style="fill:rgb(139, 103, 60); fill-opacity:1.000; stroke:none;" />
 <path d="  M 28,19  L 29,19  L 29,13  L 28,13  Z  " style="fill:rgb(139, 103, 60); fill-opacity:1.000; stroke:none;" />
 <path d="  M 31,6  L 32,6  L 32,5  L 31,5  Z  " style="fill:rgb(139, 103, 60); fill-opacity:1.000; stroke:none;" />
 <path d="  M 31,14  L 32,14  L 32,13  L 31,13  Z  " style="fill:rgb(139, 103, 60); fill-opacity:1.000; stroke:none;" />
 <path d="  M 32,21  L 31,21  L 31,22  L 32,22  Z  " style="fill:rgb(139, 103, 60); fill-opacity:1.000; stroke:none;" />
 <path d="  M 31,30  L 31,31  L 32,31  L 32,30  Z  " style="fill:rgb(139, 103, 60); fill-opacity:1.000; stroke:none;" />
 <path d="  M 2,2  L 2,1  L 1,1  L 1,2  Z  " style="fill:rgb(102, 77, 40); fill-opacity:1.000; stroke:none;" />
 <path d="  M 2,5  L 1,5  L 1,9  L 2,9  Z  " style="fill:rgb(102, 77, 40); fill-opacity:1.000; stroke:none;" />
 <path d="  M 1,12  L 2,12  L 2,10  L 1,10  Z  " style="fill:rgb(102, 77, 40); fill-opacity:1.000; stroke:none;" />
 <path d="  M 1,14  L 1,15  L 3,15  L 3,14  Z  " style="fill:rgb(102, 77, 40); fill-opacity:1.000; stroke:none;" />
 <path d="  M 1,16  L 1,17  L 2,17  L 2,16  Z  " style="fill:rgb(102, 77, 40); fill-opacity:1.000; stroke:none;" />
 <path d="  M 2,19  L 2,18  L 1,18  L 1,19  Z  " style="fill:rgb(102, 77, 40); fill-opacity:1.000; stroke:none;" />
 <path d="  M 1,22  L 1,23  L 5,23  L 5,22  Z  " style="fill:rgb(102, 77, 40); fill-opacity:1.000; stroke:none;" />
 <path d="  M 2,24  L 1,24  L 1,25  L 2,25  Z  " style="fill:rgb(102, 77, 40); fill-opacity:1.000; stroke:none;" />
 <path d="  M 2,31  L 2,30  L 1,30  L 1,31  Z  " style="fill:rgb(102, 77, 40); fill-opacity:1.000; stroke:none;" />
 <path d="  M 6,25  L 6,24  L 3,24  L 3,25  Z  " style="fill:rgb(102, 77, 40); fill-opacity:1.000; stroke:none;" />
 <path d="  M 4,30  L 3,30  L 3,31  L 4,31  Z  " style="fill:rgb(102, 77, 40); fill-opacity:1.000; stroke:none;" />
 <path d="  M 8,2  L 8,1  L 4,1  L 4,2  Z  " style="fill:rgb(102, 77, 40); fill-opacity:1.000; stroke:none;" />
 <path d="  M 9,30  L 8,30  L 8,31  L 9,31  Z  " style="fill:rgb(102, 77, 40); fill-opacity:1.000; stroke:none;" />
 <path d="  M 9,2  L 10,2  L 10,1  L 9,1  Z  " style="fill:rgb(102, 77, 40); fill-opacity:1.000; stroke:none;" />
 <path d="  M 10,31  L 13,31  L 13,30  L 10,30  Z  " style="fill:rgb(102, 77, 40); fill-opacity:1.000; stroke:none;" />
 <path d="  M 12,1  L 12,3  L 13,3  L 13,1  Z  " style="fill:rgb(102, 77, 40); fill-opacity:1.000; stroke:none;" />
 <path d="  M 16,2  L 16,1  L 14,1  L 14,2  Z  " style="fill:rgb(102, 77, 40); fill-opacity:1.000; stroke:none;" />
 <path d="  M 14,30  L 14,31  L 15,31  L 15,30  Z  " style="fill:rgb(102, 77, 40); fill-opacity:1.000; stroke:none;" />
 <path d="  M 18,2  L 18,1  L 17,1  L 17,2  Z  " style="fill:rgb(102, 77, 40); fill-opacity:1.000; stroke:none;" />
 <path d="  M 17,31  L 18,31  L 18,30  L 17,30  Z  " style="fill:rgb(102, 77, 40); fill-opacity:1.000; stroke:none;" />
 <path d="  M 19,31  L 23,31  L 23,30  L 20,30  L 20,29  L 19,29  Z  " style="fill:rgb(102, 77, 40); fill-opacity:1.000; stroke:none;" />
 <path d="  M 23,1  L 22,1  L 22,5  L 23,5  Z  " style="fill:rgb(102, 77, 40); fill-opacity:1.000; stroke:none;" />
 <path d="  M 24,1  L 24,2  L 25,2  L 25,1  Z  " style="fill:rgb(102, 77, 40); fill-opacity:1.000; stroke:none;" />
 <path d="  M 25,3  L 24,3  L 24,6  L 25,6  Z  " style="fill:rgb(102, 77, 40); fill-opacity:1.000; stroke:none;" />
 <path d="  M 25,31  L 25,30  L 24,30  L 24,31  Z  " style="fill:rgb(102, 77, 40); fill-opacity:1.000; stroke:none;" />
 <path d="  M 27,1  L 26,1  L 26,2  L 27,2  Z  " style="fill:rgb(102, 77, 40); fill-opacity:1.000; stroke:none;" />
 <path d="  M 31,23  L 31,22  L 27,22  L 27,23  Z  " style="fill:rgb(102, 77, 40); fill-opacity:1.000; stroke:none;" />
 <path d="  M 28,1  L 28,2  L 31,2  L 31,1  Z  " style="fill:rgb(102, 77, 40); fill-opacity:1.000; stroke:none;" />
 <path d="  M 30,12  L 29,12  L 29,13  L 31,13  L 31,9  L 30,9  Z  " style="fill:rgb(102, 77, 40); fill-opacity:1.000; stroke:none;" />
 <path d="  M 30,8  L 31,8  L 31,4  L 30,4  Z  " style="fill:rgb(102, 77, 40); fill-opacity:1.000; stroke:none;" />
 <path d="  M 30,14  L 30,15  L 31,15  L 31,14  Z  " style="fill:rgb(102, 77, 40); fill-opacity:1.000; stroke:none;" />
 <path d="  M 31,19  L 31,18  L 30,18  L 30,19  Z  " style="fill:rgb(102, 77, 40); fill-opacity:1.000; stroke:none;" />
 <path d="  M 30,21  L 31,21  L 31,20  L 30,20  Z  " style="fill:rgb(102, 77, 40); fill-opacity:1.000; stroke:none;" />
 <path d="  M 30,29  L 31,29  L 31,25  L 30,25  Z  " style="fill:rgb(102, 77, 40); fill-opacity:1.000; stroke:none;" />
 <path d="  M 31,31  L 31,30  L 30,30  L 30,31  Z  " style="fill:rgb(102, 77, 40); fill-opacity:1.000; stroke:none;" />
 <path d="  M 12,1  L 10,1  L 10,2  L 9,2  L 9,1  L 8,1  L 8,2  L 4,2  L 4,1  L 2,1  L 2,2  L 1,2  L 1,5  L 2,5  L 2,9  L 1,9  L 1,10  L 2,10  L 2,12  L 1,12  L 1,14  L 3,14  L 3,12  L 4,12  L 4,10  L 5,10  L 5,8  L 6,8  L 6,7  L 7,7  L 7,6  L 8,6  L 8,5  L 10,5  L 10,4  L 12,4  Z  " style="fill:rgb(107, 83, 50); fill-opacity:1.000; stroke:none;" />
 <path d="  M 1,17  L 1,18  L 2,18  L 2,19  L 1,19  L 1,22  L 4,22  L 4,20  L 3,20  L 3,16  L 2,16  L 2,17  Z  " style="fill:rgb(107, 83, 50); fill-opacity:1.000; stroke:none;" />
 <path d="  M 13,30  L 13,29  L 12,29  L 12,28  L 10,28  L 10,27  L 8,27  L 8,26  L 7,26  L 7,25  L 3,25  L 3,24  L 2,24  L 2,25  L 1,25  L 1,30  L 2,30  L 2,31  L 3,31  L 3,30  L 4,30  L 4,31  L 8,31  L 8,30  L 9,30  L 9,31  L 10,31  L 10,30  Z  " style="fill:rgb(107, 83, 50); fill-opacity:1.000; stroke:none;" />
 <path d="  M 22,1  L 18,1  L 18,2  L 17,2  L 17,1  L 16,1  L 16,2  L 14,2  L 14,3  L 20,3  L 20,4  L 22,4  Z  " style="fill:rgb(107, 83, 50); fill-opacity:1.000; stroke:none;" />
 <path d="  M 15,30  L 15,31  L 17,31  L 17,30  L 18,30  L 18,29  L 14,29  L 14,30  Z  " style="fill:rgb(107, 83, 50); fill-opacity:1.000; stroke:none;" />
 <path d="  M 30,31  L 30,30  L 31,30  L 31,29  L 30,29  L 30,25  L 31,25  L 31,23  L 27,23  L 27,24  L 26,24  L 26,25  L 25,25  L 25,26  L 24,26  L 24,27  L 22,27  L 22,28  L 20,28  L 20,30  L 23,30  L 23,31  L 24,31  L 24,30  L 25,30  L 25,31  Z  " style="fill:rgb(107, 83, 50); fill-opacity:1.000; stroke:none;" />
 <path d="  M 30,9  L 31,9  L 31,8  L 30,8  L 30,4  L 31,4  L 31,2  L 28,2  L 28,1  L 27,1  L 27,2  L 26,2  L 26,1  L 25,1  L 25,2  L 24,2  L 24,3  L 25,3  L 25,7  L 26,7  L 26,8  L 27,8  L 27,10  L 28,10  L 28,12  L 30,12  Z  " style="fill:rgb(107, 83, 50); fill-opacity:1.000; stroke:none;" />
 <path d="  M 29,20  L 28,20  L 28,21  L 30,21  L 30,20  L 31,20  L 31,19  L 30,19  L 30,18  L 31,18  L 31,15  L 30,15  L 30,14  L 29,14  Z  " style="fill:rgb(107, 83, 50); fill-opacity:1.000; stroke:none;" />
 <path d="  M 9,20  L 9,18  L 8,18  L 8,17  L 6,17  L 6,19  L 7,19  L 7,20  Z  " style="fill:rgb(122, 122, 122); fill-opacity:1.000; stroke:none;" />
 <path d="  M 7,16  L 7,17  L 8,17  L 8,18  L 9,18  L 9,19  L 10,19  L 10,17  L 9,17  L 9,16  Z  " style="fill:rgb(91, 91, 91); fill-opacity:1.000; stroke:none;" />
</svg>
