<?xml version="1.0" encoding="UTF-8" standalone="no"?>
<!DOCTYPE svg PUBLIC "-//W3C//DTD SVG 1.1//EN" 
  "http://www.w3.org/Graphics/SVG/1.1/DTD/svg11.dtd">
<svg width="32" height="32"
	 xmlns="http://www.w3.org/2000/svg" version="1.1">
 <path d="  M 0,10  L 1,10  L 1,1  L 4,1  L 4,0  L 0,0  Z  " style="fill:rgb(111, 83, 58); fill-opacity:1.000; stroke:none;" />
 <path d="  M 0,18  L 1,18  L 1,14  L 0,14  Z  " style="fill:rgb(111, 83, 58); fill-opacity:1.000; stroke:none;" />
 <path d="  M 1,24  L 0,24  L 0,32  L 6,32  L 6,31  L 1,31  Z  " style="fill:rgb(111, 83, 58); fill-opacity:1.000; stroke:none;" />
 <path d="  M 6,1  L 10,1  L 10,0  L 6,0  Z  " style="fill:rgb(111, 83, 58); fill-opacity:1.000; stroke:none;" />
 <path d="  M 7,6  L 6,6  L 6,7  L 7,7  Z  " style="fill:rgb(111, 83, 58); fill-opacity:1.000; stroke:none;" />
 <path d="  M 7,20  L 7,14  L 6,14  L 6,20  Z  " style="fill:rgb(111, 83, 58); fill-opacity:1.000; stroke:none;" />
 <path d="  M 6,26  L 8,26  L 8,25  L 6,25  Z  " style="fill:rgb(111, 83, 58); fill-opacity:1.000; stroke:none;" />
 <path d="  M 10,32  L 16,32  L 16,31  L 10,31  Z  " style="fill:rgb(111, 83, 58); fill-opacity:1.000; stroke:none;" />
 <path d="  M 12,6  L 12,7  L 18,7  L 18,6  Z  " style="fill:rgb(111, 83, 58); fill-opacity:1.000; stroke:none;" />
 <path d="  M 13,12  L 12,12  L 12,13  L 13,13  Z  " style="fill:rgb(111, 83, 58); fill-opacity:1.000; stroke:none;" />
 <path d="  M 13,19  L 12,19  L 12,20  L 13,20  Z  " style="fill:rgb(111, 83, 58); fill-opacity:1.000; stroke:none;" />
 <path d="  M 22,1  L 22,0  L 14,0  L 14,1  Z  " style="fill:rgb(111, 83, 58); fill-opacity:1.000; stroke:none;" />
 <path d="  M 20,12  L 19,12  L 19,13  L 20,13  Z  " style="fill:rgb(111, 83, 58); fill-opacity:1.000; stroke:none;" />
 <path d="  M 20,19  L 19,19  L 19,20  L 20,20  Z  " style="fill:rgb(111, 83, 58); fill-opacity:1.000; stroke:none;" />
 <path d="  M 20,31  L 20,32  L 24,32  L 24,31  Z  " style="fill:rgb(111, 83, 58); fill-opacity:1.000; stroke:none;" />
 <path d="  M 26,6  L 25,6  L 25,7  L 26,7  Z  " style="fill:rgb(111, 83, 58); fill-opacity:1.000; stroke:none;" />
 <path d="  M 25,16  L 26,16  L 26,10  L 25,10  Z  " style="fill:rgb(111, 83, 58); fill-opacity:1.000; stroke:none;" />
 <path d="  M 25,25  L 25,26  L 26,26  L 26,25  Z  " style="fill:rgb(111, 83, 58); fill-opacity:1.000; stroke:none;" />
 <path d="  M 26,0  L 26,1  L 31,1  L 31,4  L 32,4  L 32,0  Z  " style="fill:rgb(111, 83, 58); fill-opacity:1.000; stroke:none;" />
 <path d="  M 26,31  L 26,32  L 30,32  L 30,31  Z  " style="fill:rgb(111, 83, 58); fill-opacity:1.000; stroke:none;" />
 <path d="  M 32,8  L 31,8  L 31,12  L 32,12  Z  " style="fill:rgb(111, 83, 58); fill-opacity:1.000; stroke:none;" />
 <path d="  M 31,20  L 32,20  L 32,16  L 31,16  Z  " style="fill:rgb(111, 83, 58); fill-opacity:1.000; stroke:none;" />
 <path d="  M 31,30  L 32,30  L 32,24  L 31,24  Z  " style="fill:rgb(111, 83, 58); fill-opacity:1.000; stroke:none;" />
 <path d="  M 0,14  L 1,14  L 1,10  L 0,10  Z  " style="fill:rgb(122, 87, 55); fill-opacity:1.000; stroke:none;" />
 <path d="  M 1,18  L 0,18  L 0,24  L 1,24  Z  " style="fill:rgb(122, 87, 55); fill-opacity:1.000; stroke:none;" />
 <path d="  M 6,1  L 6,0  L 4,0  L 4,1  Z  " style="fill:rgb(122, 87, 55); fill-opacity:1.000; stroke:none;" />
 <path d="  M 7,7  L 6,7  L 6,14  L 7,14  Z  " style="fill:rgb(122, 87, 55); fill-opacity:1.000; stroke:none;" />
 <path d="  M 7,20  L 6,20  L 6,25  L 7,25  Z  " style="fill:rgb(122, 87, 55); fill-opacity:1.000; stroke:none;" />
 <path d="  M 6,31  L 6,32  L 10,32  L 10,31  Z  " style="fill:rgb(122, 87, 55); fill-opacity:1.000; stroke:none;" />
 <path d="  M 12,7  L 12,6  L 7,6  L 7,7  Z  " style="fill:rgb(122, 87, 55); fill-opacity:1.000; stroke:none;" />
 <path d="  M 8,25  L 8,26  L 25,26  L 25,25  Z  " style="fill:rgb(122, 87, 55); fill-opacity:1.000; stroke:none;" />
 <path d="  M 10,0  L 10,1  L 14,1  L 14,0  Z  " style="fill:rgb(122, 87, 55); fill-opacity:1.000; stroke:none;" />
 <path d="  M 13,13  L 12,13  L 12,19  L 13,19  Z  " style="fill:rgb(122, 87, 55); fill-opacity:1.000; stroke:none;" />
 <path d="  M 19,13  L 19,12  L 13,12  L 13,13  Z  " style="fill:rgb(122, 87, 55); fill-opacity:1.000; stroke:none;" />
 <path d="  M 19,20  L 19,19  L 13,19  L 13,20  Z  " style="fill:rgb(122, 87, 55); fill-opacity:1.000; stroke:none;" />
 <path d="  M 20,32  L 20,31  L 16,31  L 16,32  Z  " style="fill:rgb(122, 87, 55); fill-opacity:1.000; stroke:none;" />
 <path d="  M 25,7  L 25,6  L 18,6  L 18,7  Z  " style="fill:rgb(122, 87, 55); fill-opacity:1.000; stroke:none;" />
 <path d="  M 20,13  L 19,13  L 19,19  L 20,19  Z  " style="fill:rgb(122, 87, 55); fill-opacity:1.000; stroke:none;" />
 <path d="  M 26,1  L 26,0  L 22,0  L 22,1  Z  " style="fill:rgb(122, 87, 55); fill-opacity:1.000; stroke:none;" />
 <path d="  M 26,31  L 24,31  L 24,32  L 26,32  Z  " style="fill:rgb(122, 87, 55); fill-opacity:1.000; stroke:none;" />
 <path d="  M 26,7  L 25,7  L 25,10  L 26,10  Z  " style="fill:rgb(122, 87, 55); fill-opacity:1.000; stroke:none;" />
 <path d="  M 26,25  L 26,16  L 25,16  L 25,25  Z  " style="fill:rgb(122, 87, 55); fill-opacity:1.000; stroke:none;" />
 <path d="  M 30,31  L 30,32  L 32,32  L 32,30  L 31,30  L 31,31  Z  " style="fill:rgb(122, 87, 55); fill-opacity:1.000; stroke:none;" />
 <path d="  M 32,4  L 31,4  L 31,8  L 32,8  Z  " style="fill:rgb(122, 87, 55); fill-opacity:1.000; stroke:none;" />
 <path d="  M 31,16  L 32,16  L 32,12  L 31,12  Z  " style="fill:rgb(122, 87, 55); fill-opacity:1.000; stroke:none;" />
 <path d="  M 31,24  L 32,24  L 32,20  L 31,20  Z  " style="fill:rgb(122, 87, 55); fill-opacity:1.000; stroke:none;" />
 <path d="  M 1,7  L 2,7  L 2,2  L 8,2  L 8,1  L 1,1  Z  " style="fill:rgb(200, 166, 113); fill-opacity:1.000; stroke:none;" />
 <path d="  M 1,11  L 2,11  L 2,9  L 1,9  Z  " style="fill:rgb(200, 166, 113); fill-opacity:1.000; stroke:none;" />
 <path d="  M 2,14  L 1,14  L 1,20  L 2,20  Z  " style="fill:rgb(200, 166, 113); fill-opacity:1.000; stroke:none;" />
 <path d="  M 1,31  L 5,31  L 5,30  L 2,30  L 2,24  L 1,24  Z  " style="fill:rgb(200, 166, 113); fill-opacity:1.000; stroke:none;" />
 <path d="  M 5,12  L 6,12  L 6,6  L 10,6  L 10,5  L 5,5  Z  " style="fill:rgb(200, 166, 113); fill-opacity:1.000; stroke:none;" />
 <path d="  M 6,13  L 5,13  L 5,21  L 6,21  Z  " style="fill:rgb(200, 166, 113); fill-opacity:1.000; stroke:none;" />
 <path d="  M 11,27  L 11,26  L 6,26  L 6,22  L 5,22  L 5,27  Z  " style="fill:rgb(200, 166, 113); fill-opacity:1.000; stroke:none;" />
 <path d="  M 24,16  L 25,16  L 25,10  L 24,10  L 24,8  L 18,8  L 18,7  L 17,7  L 17,8  L 15,8  L 15,7  L 10,7  L 10,8  L 8,8  L 8,13  L 7,13  L 7,15  L 8,15  L 8,16  L 7,16  L 7,22  L 8,22  L 8,24  L 12,24  L 12,25  L 18,25  L 18,24  L 19,24  L 19,25  L 20,25  L 20,24  L 24,24  Z  M 20,12  L 20,20  L 12,20  L 12,12  Z  " style="fill:rgb(200, 166, 113); fill-opacity:1.000; stroke:none;" />
 <path d="  M 19,6  L 19,5  L 11,5  L 11,6  Z  " style="fill:rgb(200, 166, 113); fill-opacity:1.000; stroke:none;" />
 <path d="  M 20,27  L 20,26  L 12,26  L 12,27  Z  " style="fill:rgb(200, 166, 113); fill-opacity:1.000; stroke:none;" />
 <path d="  M 13,2  L 18,2  L 18,1  L 13,1  Z  " style="fill:rgb(200, 166, 113); fill-opacity:1.000; stroke:none;" />
 <path d="  M 13,18  L 14,18  L 14,19  L 15,19  L 15,18  L 17,18  L 17,17  L 18,17  L 18,15  L 19,15  L 19,14  L 18,14  L 18,13  L 13,13  Z  " style="fill:rgb(200, 166, 113); fill-opacity:1.000; stroke:none;" />
 <path d="  M 18,30  L 14,30  L 14,31  L 18,31  Z  " style="fill:rgb(200, 166, 113); fill-opacity:1.000; stroke:none;" />
 <path d="  M 26,6  L 26,8  L 27,8  L 27,5  L 20,5  L 20,6  Z  " style="fill:rgb(200, 166, 113); fill-opacity:1.000; stroke:none;" />
 <path d="  M 27,27  L 27,25  L 26,25  L 26,26  L 21,26  L 21,27  Z  " style="fill:rgb(200, 166, 113); fill-opacity:1.000; stroke:none;" />
 <path d="  M 31,31  L 31,27  L 30,27  L 30,30  L 22,30  L 22,31  Z  " style="fill:rgb(200, 166, 113); fill-opacity:1.000; stroke:none;" />
 <path d="  M 30,2  L 30,5  L 31,5  L 31,1  L 24,1  L 24,2  Z  " style="fill:rgb(200, 166, 113); fill-opacity:1.000; stroke:none;" />
 <path d="  M 26,16  L 27,16  L 27,9  L 26,9  Z  " style="fill:rgb(200, 166, 113); fill-opacity:1.000; stroke:none;" />
 <path d="  M 27,17  L 26,17  L 26,24  L 27,24  Z  " style="fill:rgb(200, 166, 113); fill-opacity:1.000; stroke:none;" />
 <path d="  M 30,10  L 30,15  L 31,15  L 31,10  Z  " style="fill:rgb(200, 166, 113); fill-opacity:1.000; stroke:none;" />
 <path d="  M 30,22  L 31,22  L 31,18  L 30,18  Z  " style="fill:rgb(200, 166, 113); fill-opacity:1.000; stroke:none;" />
 <path d="  M 1,11  L 1,12  L 5,12  L 5,5  L 10,5  L 10,1  L 8,1  L 8,2  L 2,2  L 2,7  L 1,7  L 1,9  L 2,9  L 2,11  Z  " style="fill:rgb(188, 152, 109); fill-opacity:1.000; stroke:none;" />
 <path d="  M 1,13  L 1,14  L 2,14  L 2,20  L 1,20  L 1,21  L 5,21  L 5,13  Z  " style="fill:rgb(188, 152, 109); fill-opacity:1.000; stroke:none;" />
 <path d="  M 5,22  L 1,22  L 1,24  L 2,24  L 2,30  L 5,30  L 5,31  L 11,31  L 11,27  L 5,27  Z  " style="fill:rgb(188, 152, 109); fill-opacity:1.000; stroke:none;" />
 <path d="  M 5,12  L 5,13  L 6,13  L 6,12  Z  " style="fill:rgb(188, 152, 109); fill-opacity:1.000; stroke:none;" />
 <path d="  M 6,22  L 6,21  L 5,21  L 5,22  Z  " style="fill:rgb(188, 152, 109); fill-opacity:1.000; stroke:none;" />
 <path d="  M 7,13  L 8,13  L 8,8  L 10,8  L 10,7  L 7,7  Z  " style="fill:rgb(188, 152, 109); fill-opacity:1.000; stroke:none;" />
 <path d="  M 7,16  L 8,16  L 8,15  L 7,15  Z  " style="fill:rgb(188, 152, 109); fill-opacity:1.000; stroke:none;" />
 <path d="  M 7,22  L 7,25  L 12,25  L 12,24  L 8,24  L 8,22  Z  " style="fill:rgb(188, 152, 109); fill-opacity:1.000; stroke:none;" />
 <path d="  M 11,5  L 10,5  L 10,6  L 11,6  Z  " style="fill:rgb(188, 152, 109); fill-opacity:1.000; stroke:none;" />
 <path d="  M 19,5  L 19,1  L 18,1  L 18,2  L 13,2  L 13,1  L 11,1  L 11,5  Z  " style="fill:rgb(188, 152, 109); fill-opacity:1.000; stroke:none;" />
 <path d="  M 12,26  L 11,26  L 11,27  L 12,27  Z  " style="fill:rgb(188, 152, 109); fill-opacity:1.000; stroke:none;" />
 <path d="  M 20,31  L 20,27  L 12,27  L 12,31  L 14,31  L 14,30  L 18,30  L 18,31  Z  " style="fill:rgb(188, 152, 109); fill-opacity:1.000; stroke:none;" />
 <path d="  M 14,18  L 13,18  L 13,19  L 14,19  Z  " style="fill:rgb(188, 152, 109); fill-opacity:1.000; stroke:none;" />
 <path d="  M 17,7  L 15,7  L 15,8  L 17,8  Z  " style="fill:rgb(188, 152, 109); fill-opacity:1.000; stroke:none;" />
 <path d="  M 18,17  L 17,17  L 17,18  L 15,18  L 15,19  L 19,19  L 19,15  L 18,15  Z  " style="fill:rgb(188, 152, 109); fill-opacity:1.000; stroke:none;" />
 <path d="  M 18,7  L 18,8  L 24,8  L 24,10  L 25,10  L 25,7  Z  " style="fill:rgb(188, 152, 109); fill-opacity:1.000; stroke:none;" />
 <path d="  M 19,14  L 19,13  L 18,13  L 18,14  Z  " style="fill:rgb(188, 152, 109); fill-opacity:1.000; stroke:none;" />
 <path d="  M 18,24  L 18,25  L 19,25  L 19,24  Z  " style="fill:rgb(188, 152, 109); fill-opacity:1.000; stroke:none;" />
 <path d="  M 19,6  L 20,6  L 20,5  L 19,5  Z  " style="fill:rgb(188, 152, 109); fill-opacity:1.000; stroke:none;" />
 <path d="  M 20,5  L 27,5  L 27,8  L 31,8  L 31,5  L 30,5  L 30,2  L 24,2  L 24,1  L 20,1  Z  " style="fill:rgb(188, 152, 109); fill-opacity:1.000; stroke:none;" />
 <path d="  M 20,24  L 20,25  L 25,25  L 25,16  L 24,16  L 24,24  Z  " style="fill:rgb(188, 152, 109); fill-opacity:1.000; stroke:none;" />
 <path d="  M 20,27  L 21,27  L 21,26  L 20,26  Z  " style="fill:rgb(188, 152, 109); fill-opacity:1.000; stroke:none;" />
 <path d="  M 21,31  L 22,31  L 22,30  L 30,30  L 30,27  L 31,27  L 31,25  L 27,25  L 27,27  L 21,27  Z  " style="fill:rgb(188, 152, 109); fill-opacity:1.000; stroke:none;" />
 <path d="  M 26,8  L 26,9  L 27,9  L 27,8  Z  " style="fill:rgb(188, 152, 109); fill-opacity:1.000; stroke:none;" />
 <path d="  M 26,17  L 27,17  L 27,16  L 26,16  Z  " style="fill:rgb(188, 152, 109); fill-opacity:1.000; stroke:none;" />
 <path d="  M 26,25  L 27,25  L 27,24  L 26,24  Z  " style="fill:rgb(188, 152, 109); fill-opacity:1.000; stroke:none;" />
 <path d="  M 30,10  L 31,10  L 31,9  L 27,9  L 27,16  L 31,16  L 31,15  L 30,15  Z  " style="fill:rgb(188, 152, 109); fill-opacity:1.000; stroke:none;" />
 <path d="  M 27,24  L 31,24  L 31,22  L 30,22  L 30,18  L 31,18  L 31,17  L 27,17  Z  " style="fill:rgb(188, 152, 109); fill-opacity:1.000; stroke:none;" />
 <path d="  M 1,12  L 1,13  L 5,13  L 5,12  Z  " style="fill:rgb(162, 129, 102); fill-opacity:1.000; stroke:none;" />
 <path d="  M 1,21  L 1,22  L 5,22  L 5,21  Z  " style="fill:rgb(162, 129, 102); fill-opacity:1.000; stroke:none;" />
 <path d="  M 11,1  L 10,1  L 10,5  L 11,5  Z  " style="fill:rgb(162, 129, 102); fill-opacity:1.000; stroke:none;" />
 <path d="  M 11,31  L 12,31  L 12,27  L 11,27  Z  " style="fill:rgb(162, 129, 102); fill-opacity:1.000; stroke:none;" />
 <path d="  M 19,1  L 19,5  L 20,5  L 20,1  Z  " style="fill:rgb(162, 129, 102); fill-opacity:1.000; stroke:none;" />
 <path d="  M 21,27  L 20,27  L 20,31  L 21,31  Z  " style="fill:rgb(162, 129, 102); fill-opacity:1.000; stroke:none;" />
 <path d="  M 27,8  L 27,9  L 31,9  L 31,8  Z  " style="fill:rgb(162, 129, 102); fill-opacity:1.000; stroke:none;" />
 <path d="  M 27,16  L 27,17  L 31,17  L 31,16  Z  " style="fill:rgb(162, 129, 102); fill-opacity:1.000; stroke:none;" />
 <path d="  M 31,25  L 31,24  L 27,24  L 27,25  Z  " style="fill:rgb(162, 129, 102); fill-opacity:1.000; stroke:none;" />
</svg>
