<?xml version="1.0" encoding="UTF-8" standalone="no"?>
<!DOCTYPE svg PUBLIC "-//W3C//DTD SVG 1.1//EN" 
  "http://www.w3.org/Graphics/SVG/1.1/DTD/svg11.dtd">
<svg width="32" height="32"
	 xmlns="http://www.w3.org/2000/svg" version="1.1">
 <path d="  M 4,29  L 4,30  L 5,30  L 5,29  Z  " style="fill:rgb(74, 143, 40); fill-opacity:1.000; stroke:none;" />
 <path d="  M 8,27  L 6,27  L 6,28  L 5,28  L 5,29  L 7,29  L 7,28  L 8,28  Z  " style="fill:rgb(74, 143, 40); fill-opacity:1.000; stroke:none;" />
 <path d="  M 8,27  L 9,27  L 9,26  L 8,26  Z  " style="fill:rgb(74, 143, 40); fill-opacity:1.000; stroke:none;" />
 <path d="  M 14,25  L 13,25  L 13,26  L 12,26  L 12,28  L 13,28  L 13,27  L 14,27  Z  " style="fill:rgb(74, 143, 40); fill-opacity:1.000; stroke:none;" />
 <path d="  M 16,32  L 16,31  L 15,31  L 15,32  Z  " style="fill:rgb(74, 143, 40); fill-opacity:1.000; stroke:none;" />
 <path d="  M 17,30  L 18,30  L 18,28  L 17,28  L 17,29  L 16,29  L 16,31  L 17,31  Z  " style="fill:rgb(74, 143, 40); fill-opacity:1.000; stroke:none;" />
 <path d="  M 23,32  L 23,31  L 22,31  L 22,32  Z  " style="fill:rgb(74, 143, 40); fill-opacity:1.000; stroke:none;" />
 <path d="  M 23,31  L 24,31  L 24,30  L 23,30  Z  " style="fill:rgb(74, 143, 40); fill-opacity:1.000; stroke:none;" />
 <path d="  M 25,28  L 24,28  L 24,29  L 25,29  Z  " style="fill:rgb(74, 143, 40); fill-opacity:1.000; stroke:none;" />
 <path d="  M 4,31  L 5,31  L 5,30  L 4,30  Z  " style="fill:rgb(43, 112, 42); fill-opacity:1.000; stroke:none;" />
 <path d="  M 5,29  L 5,30  L 6,30  L 6,29  Z  " style="fill:rgb(43, 112, 42); fill-opacity:1.000; stroke:none;" />
 <path d="  M 6,31  L 5,31  L 5,32  L 6,32  Z  " style="fill:rgb(43, 112, 42); fill-opacity:1.000; stroke:none;" />
 <path d="  M 15,32  L 15,31  L 14,31  L 14,32  Z  " style="fill:rgb(43, 112, 42); fill-opacity:1.000; stroke:none;" />
 <path d="  M 16,31  L 16,30  L 15,30  L 15,31  Z  " style="fill:rgb(43, 112, 42); fill-opacity:1.000; stroke:none;" />
 <path d="  M 23,31  L 23,32  L 24,32  L 24,31  Z  " style="fill:rgb(43, 112, 42); fill-opacity:1.000; stroke:none;" />
 <path d="  M 24,31  L 26,31  L 26,30  L 25,30  L 25,29  L 24,29  Z  " style="fill:rgb(43, 112, 42); fill-opacity:1.000; stroke:none;" />
 <path d="  M 8,32  L 8,31  L 7,31  L 7,30  L 5,30  L 5,31  L 6,31  L 6,32  Z  " style="fill:rgb(38, 99, 37); fill-opacity:1.000; stroke:none;" />
 <path d="  M 13,30  L 13,31  L 12,31  L 12,32  L 14,32  L 14,31  L 15,31  L 15,30  Z  " style="fill:rgb(38, 99, 37); fill-opacity:1.000; stroke:none;" />
 <path d="  M 26,31  L 24,31  L 24,32  L 26,32  Z  " style="fill:rgb(38, 99, 37); fill-opacity:1.000; stroke:none;" />
 <path d="  M 17,28  L 18,28  L 18,26  L 17,26  L 17,25  L 16,25  L 16,24  L 14,24  L 14,26  L 16,26  L 16,27  L 17,27  Z  " style="fill:rgb(85, 171, 45); fill-opacity:1.000; stroke:none;" />
 <path d="  M 23,27  L 23,26  L 22,26  L 22,27  Z  " style="fill:rgb(85, 171, 45); fill-opacity:1.000; stroke:none;" />
 <path d="  M 23,28  L 24,28  L 24,27  L 23,27  Z  " style="fill:rgb(85, 171, 45); fill-opacity:1.000; stroke:none;" />
</svg>
