<?xml version="1.0" encoding="UTF-8" standalone="no"?>
<!DOCTYPE svg PUBLIC "-//W3C//DTD SVG 1.1//EN" 
  "http://www.w3.org/Graphics/SVG/1.1/DTD/svg11.dtd">
<svg width="32" height="32"
	 xmlns="http://www.w3.org/2000/svg" version="1.1">
 <path d="  M 2,24  L 2,25  L 3,25  L 3,24  L 4,24  L 4,22  L 3,22  L 3,21  L 2,21  L 2,20  L 1,20  L 1,16  L 0,16  L 0,22  L 1,22  L 1,24  Z  " style="fill:rgb(74, 143, 40); fill-opacity:1.000; stroke:none;" />
 <path d="  M 3,15  L 4,15  L 4,14  L 3,14  Z  " style="fill:rgb(74, 143, 40); fill-opacity:1.000; stroke:none;" />
 <path d="  M 5,16  L 5,15  L 4,15  L 4,16  Z  " style="fill:rgb(74, 143, 40); fill-opacity:1.000; stroke:none;" />
 <path d="  M 6,18  L 6,16  L 5,16  L 5,18  Z  " style="fill:rgb(74, 143, 40); fill-opacity:1.000; stroke:none;" />
 <path d="  M 5,21  L 6,21  L 6,19  L 5,19  Z  " style="fill:rgb(74, 143, 40); fill-opacity:1.000; stroke:none;" />
 <path d="  M 6,23  L 7,23  L 7,21  L 6,21  Z  " style="fill:rgb(74, 143, 40); fill-opacity:1.000; stroke:none;" />
 <path d="  M 9,17  L 8,17  L 8,15  L 7,15  L 7,18  L 8,18  L 8,19  L 9,19  Z  " style="fill:rgb(74, 143, 40); fill-opacity:1.000; stroke:none;" />
 <path d="  M 8,13  L 8,15  L 9,15  L 9,13  Z  " style="fill:rgb(74, 143, 40); fill-opacity:1.000; stroke:none;" />
 <path d="  M 10,12  L 9,12  L 9,13  L 10,13  Z  " style="fill:rgb(74, 143, 40); fill-opacity:1.000; stroke:none;" />
 <path d="  M 9,16  L 9,17  L 10,17  L 10,16  Z  " style="fill:rgb(74, 143, 40); fill-opacity:1.000; stroke:none;" />
 <path d="  M 9,19  L 9,20  L 11,20  L 11,21  L 12,21  L 12,19  L 11,19  L 11,18  L 10,18  L 10,19  Z  " style="fill:rgb(74, 143, 40); fill-opacity:1.000; stroke:none;" />
 <path d="  M 10,15  L 10,16  L 11,16  L 11,15  Z  " style="fill:rgb(74, 143, 40); fill-opacity:1.000; stroke:none;" />
 <path d="  M 11,14  L 11,15  L 12,15  L 12,14  Z  " style="fill:rgb(74, 143, 40); fill-opacity:1.000; stroke:none;" />
 <path d="  M 11,17  L 11,18  L 12,18  L 12,19  L 13,19  L 13,18  L 14,18  L 14,20  L 15,20  L 15,18  L 16,18  L 16,17  L 15,17  L 15,16  L 14,16  L 14,15  L 13,15  L 13,16  L 12,16  L 12,17  Z  " style="fill:rgb(74, 143, 40); fill-opacity:1.000; stroke:none;" />
 <path d="  M 13,12  L 12,12  L 12,13  L 13,13  Z  " style="fill:rgb(74, 143, 40); fill-opacity:1.000; stroke:none;" />
 <path d="  M 13,21  L 12,21  L 12,22  L 13,22  Z  " style="fill:rgb(74, 143, 40); fill-opacity:1.000; stroke:none;" />
 <path d="  M 14,14  L 14,13  L 13,13  L 13,14  Z  " style="fill:rgb(74, 143, 40); fill-opacity:1.000; stroke:none;" />
 <path d="  M 17,19  L 17,18  L 16,18  L 16,19  Z  " style="fill:rgb(74, 143, 40); fill-opacity:1.000; stroke:none;" />
 <path d="  M 21,15  L 19,15  L 19,16  L 17,16  L 17,17  L 18,17  L 18,18  L 19,18  L 19,17  L 20,17  L 20,18  L 21,18  L 21,17  L 22,17  L 22,16  L 21,16  Z  " style="fill:rgb(74, 143, 40); fill-opacity:1.000; stroke:none;" />
 <path d="  M 23,13  L 22,13  L 22,14  L 21,14  L 21,15  L 22,15  L 22,16  L 23,16  Z  " style="fill:rgb(74, 143, 40); fill-opacity:1.000; stroke:none;" />
 <path d="  M 24,18  L 23,18  L 23,19  L 22,19  L 22,21  L 23,21  L 23,20  L 24,20  L 24,19  L 25,19  L 25,20  L 27,20  L 27,18  L 25,18  L 25,17  L 24,17  Z  " style="fill:rgb(74, 143, 40); fill-opacity:1.000; stroke:none;" />
 <path d="  M 24,21  L 23,21  L 23,22  L 24,22  Z  " style="fill:rgb(74, 143, 40); fill-opacity:1.000; stroke:none;" />
 <path d="  M 28,25  L 29,25  L 29,24  L 30,24  L 30,23  L 31,23  L 31,20  L 30,20  L 30,21  L 29,21  L 29,22  L 28,22  L 28,20  L 27,20  L 27,21  L 26,21  L 26,22  L 27,22  L 27,24  L 28,24  Z  " style="fill:rgb(74, 143, 40); fill-opacity:1.000; stroke:none;" />
 <path d="  M 28,17  L 27,17  L 27,18  L 28,18  Z  " style="fill:rgb(74, 143, 40); fill-opacity:1.000; stroke:none;" />
 <path d="  M 28,17  L 29,17  L 29,16  L 28,16  Z  " style="fill:rgb(74, 143, 40); fill-opacity:1.000; stroke:none;" />
 <path d="  M 29,19  L 29,20  L 30,20  L 30,19  Z  " style="fill:rgb(74, 143, 40); fill-opacity:1.000; stroke:none;" />
 <path d="  M 31,18  L 31,17  L 30,17  L 30,19  L 31,19  L 31,20  L 32,20  L 32,18  Z  " style="fill:rgb(74, 143, 40); fill-opacity:1.000; stroke:none;" />
 <path d="  M 0,32  L 2,32  L 2,31  L 1,31  L 1,30  L 0,30  Z  " style="fill:rgb(116, 35, 3); fill-opacity:1.000; stroke:none;" />
 <path d="  M 3,28  L 3,27  L 2,27  L 2,28  Z  " style="fill:rgb(116, 35, 3); fill-opacity:1.000; stroke:none;" />
 <path d="  M 4,22  L 4,20  L 3,20  L 3,22  Z  " style="fill:rgb(116, 35, 3); fill-opacity:1.000; stroke:none;" />
 <path d="  M 3,27  L 4,27  L 4,26  L 3,26  Z  " style="fill:rgb(116, 35, 3); fill-opacity:1.000; stroke:none;" />
 <path d="  M 5,22  L 4,22  L 4,26  L 6,26  L 6,24  L 5,24  Z  " style="fill:rgb(116, 35, 3); fill-opacity:1.000; stroke:none;" />
 <path d="  M 6,23  L 6,24  L 7,24  L 7,23  Z  " style="fill:rgb(116, 35, 3); fill-opacity:1.000; stroke:none;" />
 <path d="  M 7,26  L 6,26  L 6,27  L 7,27  Z  " style="fill:rgb(116, 35, 3); fill-opacity:1.000; stroke:none;" />
 <path d="  M 7,22  L 7,23  L 8,23  L 8,22  Z  " style="fill:rgb(116, 35, 3); fill-opacity:1.000; stroke:none;" />
 <path d="  M 8,27  L 7,27  L 7,30  L 8,30  Z  " style="fill:rgb(116, 35, 3); fill-opacity:1.000; stroke:none;" />
 <path d="  M 8,32  L 9,32  L 9,30  L 8,30  Z  " style="fill:rgb(116, 35, 3); fill-opacity:1.000; stroke:none;" />
 <path d="  M 11,32  L 12,32  L 12,31  L 11,31  Z  " style="fill:rgb(116, 35, 3); fill-opacity:1.000; stroke:none;" />
 <path d="  M 12,28  L 13,28  L 13,27  L 12,27  Z  " style="fill:rgb(116, 35, 3); fill-opacity:1.000; stroke:none;" />
 <path d="  M 18,27  L 19,27  L 19,31  L 18,31  L 18,32  L 22,32  L 22,31  L 21,31  L 21,30  L 20,30  L 20,26  L 19,26  L 19,24  L 18,24  L 18,20  L 17,20  L 17,23  L 16,23  L 16,24  L 14,24  L 14,25  L 13,25  L 13,27  L 14,27  L 14,26  L 15,26  L 15,25  L 17,25  L 17,26  L 18,26  Z  " style="fill:rgb(116, 35, 3); fill-opacity:1.000; stroke:none;" />
 <path d="  M 18,20  L 19,20  L 19,19  L 18,19  Z  " style="fill:rgb(116, 35, 3); fill-opacity:1.000; stroke:none;" />
 <path d="  M 25,22  L 26,22  L 26,21  L 25,21  Z  " style="fill:rgb(116, 35, 3); fill-opacity:1.000; stroke:none;" />
 <path d="  M 26,27  L 26,26  L 25,26  L 25,27  Z  " style="fill:rgb(116, 35, 3); fill-opacity:1.000; stroke:none;" />
 <path d="  M 27,24  L 27,22  L 26,22  L 26,24  Z  " style="fill:rgb(116, 35, 3); fill-opacity:1.000; stroke:none;" />
 <path d="  M 26,25  L 26,26  L 28,26  L 28,24  L 27,24  L 27,25  Z  " style="fill:rgb(116, 35, 3); fill-opacity:1.000; stroke:none;" />
 <path d="  M 28,27  L 29,27  L 29,26  L 28,26  Z  " style="fill:rgb(116, 35, 3); fill-opacity:1.000; stroke:none;" />
 <path d="  M 30,27  L 29,27  L 29,30  L 30,30  Z  " style="fill:rgb(116, 35, 3); fill-opacity:1.000; stroke:none;" />
 <path d="  M 32,31  L 31,31  L 31,30  L 30,30  L 30,32  L 32,32  Z  " style="fill:rgb(116, 35, 3); fill-opacity:1.000; stroke:none;" />
 <path d="  M 2,19  L 2,18  L 4,18  L 4,19  L 6,19  L 6,18  L 5,18  L 5,16  L 4,16  L 4,15  L 3,15  L 3,14  L 2,14  L 2,15  L 1,15  L 1,20  L 2,20  L 2,21  L 3,21  L 3,19  Z  " style="fill:rgb(85, 171, 45); fill-opacity:1.000; stroke:none;" />
 <path d="  M 11,15  L 11,16  L 10,16  L 10,15  Z  M 11,18  L 11,17  L 12,17  L 12,16  L 13,16  L 13,15  L 14,15  L 14,14  L 13,14  L 13,13  L 12,13  L 12,12  L 10,12  L 10,13  L 9,13  L 9,15  L 8,15  L 8,17  L 9,17  L 9,19  L 10,19  L 10,18  Z  M 10,16  L 10,17  L 9,17  L 9,16  Z  M 12,14  L 12,15  L 11,15  L 11,14  Z  " style="fill:rgb(85, 171, 45); fill-opacity:1.000; stroke:none;" />
 <path d="  M 20,14  L 20,15  L 21,15  L 21,14  L 22,14  L 22,13  L 21,13  L 21,12  L 20,12  L 20,13  L 19,13  L 19,14  Z  " style="fill:rgb(85, 171, 45); fill-opacity:1.000; stroke:none;" />
 <path d="  M 23,13  L 23,12  L 22,12  L 22,13  Z  " style="fill:rgb(85, 171, 45); fill-opacity:1.000; stroke:none;" />
 <path d="  M 27,19  L 27,20  L 29,20  L 29,19  Z  " style="fill:rgb(85, 171, 45); fill-opacity:1.000; stroke:none;" />
 <path d="  M 31,17  L 31,16  L 29,16  L 29,17  Z  " style="fill:rgb(85, 171, 45); fill-opacity:1.000; stroke:none;" />
 <path d="  M 31,18  L 32,18  L 32,17  L 31,17  Z  " style="fill:rgb(85, 171, 45); fill-opacity:1.000; stroke:none;" />
 <path d="  M 4,29  L 2,29  L 2,28  L 1,28  L 1,31  L 2,31  L 2,30  L 4,30  Z  " style="fill:rgb(155, 34, 26); fill-opacity:1.000; stroke:none;" />
 <path d="  M 4,26  L 4,27  L 3,27  L 3,28  L 6,28  L 6,29  L 7,29  L 7,27  L 6,27  L 6,26  Z  " style="fill:rgb(155, 34, 26); fill-opacity:1.000; stroke:none;" />
 <path d="  M 8,32  L 8,30  L 7,30  L 7,31  L 5,31  L 5,32  Z  " style="fill:rgb(155, 34, 26); fill-opacity:1.000; stroke:none;" />
 <path d="  M 13,29  L 14,29  L 14,28  L 15,28  L 15,27  L 17,27  L 17,28  L 16,28  L 16,29  L 18,29  L 18,30  L 17,30  L 17,31  L 16,31  L 16,32  L 18,32  L 18,31  L 19,31  L 19,27  L 18,27  L 18,26  L 17,26  L 17,25  L 15,25  L 15,26  L 14,26  L 14,27  L 13,27  L 13,28  L 12,28  L 12,31  L 14,31  L 14,30  L 13,30  Z  " style="fill:rgb(155, 34, 26); fill-opacity:1.000; stroke:none;" />
 <path d="  M 23,31  L 22,31  L 22,32  L 24,32  L 24,30  L 23,30  Z  " style="fill:rgb(155, 34, 26); fill-opacity:1.000; stroke:none;" />
 <path d="  M 25,29  L 26,29  L 26,28  L 28,28  L 28,29  L 29,29  L 29,27  L 28,27  L 28,26  L 26,26  L 26,27  L 25,27  L 25,28  L 24,28  L 24,30  L 25,30  Z  " style="fill:rgb(155, 34, 26); fill-opacity:1.000; stroke:none;" />
 <path d="  M 30,31  L 30,30  L 28,30  L 28,31  Z  " style="fill:rgb(155, 34, 26); fill-opacity:1.000; stroke:none;" />
 <path d="  M 3,19  L 3,18  L 2,18  L 2,19  Z  " style="fill:rgb(38, 99, 37); fill-opacity:1.000; stroke:none;" />
 <path d="  M 4,24  L 3,24  L 3,25  L 2,25  L 2,27  L 3,27  L 3,26  L 4,26  Z  " style="fill:rgb(38, 99, 37); fill-opacity:1.000; stroke:none;" />
 <path d="  M 4,20  L 4,19  L 3,19  L 3,20  Z  " style="fill:rgb(38, 99, 37); fill-opacity:1.000; stroke:none;" />
 <path d="  M 7,20  L 7,18  L 6,18  L 6,21  L 7,21  L 7,22  L 8,22  L 8,20  Z  " style="fill:rgb(38, 99, 37); fill-opacity:1.000; stroke:none;" />
 <path d="  M 9,22  L 8,22  L 8,23  L 7,23  L 7,24  L 6,24  L 6,26  L 7,26  L 7,25  L 9,25  L 9,24  L 10,24  L 10,23  L 9,23  Z  " style="fill:rgb(38, 99, 37); fill-opacity:1.000; stroke:none;" />
 <path d="  M 12,24  L 13,24  L 13,23  L 12,23  Z  " style="fill:rgb(38, 99, 37); fill-opacity:1.000; stroke:none;" />
 <path d="  M 14,18  L 13,18  L 13,20  L 14,20  Z  " style="fill:rgb(38, 99, 37); fill-opacity:1.000; stroke:none;" />
 <path d="  M 13,24  L 13,25  L 14,25  L 14,24  Z  " style="fill:rgb(38, 99, 37); fill-opacity:1.000; stroke:none;" />
 <path d="  M 17,19  L 16,19  L 16,20  L 14,20  L 14,21  L 15,21  L 15,22  L 16,22  L 16,23  L 17,23  L 17,20  L 18,20  L 18,17  L 17,17  Z  " style="fill:rgb(38, 99, 37); fill-opacity:1.000; stroke:none;" />
 <path d="  M 14,24  L 16,24  L 16,23  L 15,23  L 15,22  L 14,22  Z  " style="fill:rgb(38, 99, 37); fill-opacity:1.000; stroke:none;" />
 <path d="  M 16,17  L 17,17  L 17,16  L 16,16  Z  " style="fill:rgb(38, 99, 37); fill-opacity:1.000; stroke:none;" />
 <path d="  M 18,22  L 20,22  L 20,21  L 21,21  L 21,19  L 20,19  L 20,20  L 18,20  Z  " style="fill:rgb(38, 99, 37); fill-opacity:1.000; stroke:none;" />
 <path d="  M 22,19  L 22,18  L 21,18  L 21,19  Z  " style="fill:rgb(38, 99, 37); fill-opacity:1.000; stroke:none;" />
 <path d="  M 22,17  L 22,18  L 23,18  L 23,17  Z  " style="fill:rgb(38, 99, 37); fill-opacity:1.000; stroke:none;" />
 <path d="  M 22,24  L 23,24  L 23,22  L 22,22  Z  " style="fill:rgb(38, 99, 37); fill-opacity:1.000; stroke:none;" />
 <path d="  M 24,13  L 23,13  L 23,14  L 24,14  Z  " style="fill:rgb(38, 99, 37); fill-opacity:1.000; stroke:none;" />
 <path d="  M 24,15  L 23,15  L 23,17  L 24,17  Z  " style="fill:rgb(38, 99, 37); fill-opacity:1.000; stroke:none;" />
 <path d="  M 23,25  L 24,25  L 24,26  L 26,26  L 26,25  L 25,25  L 25,24  L 23,24  Z  " style="fill:rgb(38, 99, 37); fill-opacity:1.000; stroke:none;" />
 <path d="  M 31,22  L 32,22  L 32,20  L 31,20  Z  " style="fill:rgb(38, 99, 37); fill-opacity:1.000; stroke:none;" />
 <path d="  M 7,31  L 7,29  L 6,29  L 6,28  L 2,28  L 2,29  L 4,29  L 4,30  L 2,30  L 2,32  L 5,32  L 5,31  Z  " style="fill:rgb(191, 37, 41); fill-opacity:1.000; stroke:none;" />
 <path d="  M 14,29  L 13,29  L 13,30  L 14,30  L 14,31  L 12,31  L 12,32  L 16,32  L 16,31  L 17,31  L 17,30  L 18,30  L 18,29  L 16,29  L 16,28  L 17,28  L 17,27  L 15,27  L 15,28  L 14,28  Z  " style="fill:rgb(191, 37, 41); fill-opacity:1.000; stroke:none;" />
 <path d="  M 28,28  L 26,28  L 26,29  L 25,29  L 25,30  L 24,30  L 24,32  L 30,32  L 30,31  L 28,31  L 28,30  L 29,30  L 29,29  L 28,29  Z  " style="fill:rgb(191, 37, 41); fill-opacity:1.000; stroke:none;" />
 <path d="  M 3,19  L 4,19  L 4,18  L 3,18  Z  " style="fill:rgb(43, 112, 42); fill-opacity:1.000; stroke:none;" />
 <path d="  M 4,22  L 5,22  L 5,24  L 6,24  L 6,21  L 5,21  L 5,19  L 4,19  Z  " style="fill:rgb(43, 112, 42); fill-opacity:1.000; stroke:none;" />
 <path d="  M 14,22  L 15,22  L 15,21  L 14,21  L 14,20  L 13,20  L 13,19  L 12,19  L 12,21  L 11,21  L 11,20  L 9,20  L 9,19  L 8,19  L 8,18  L 7,18  L 7,20  L 8,20  L 8,22  L 9,22  L 9,23  L 10,23  L 10,22  L 11,22  L 11,23  L 13,23  L 13,24  L 14,24  Z  M 12,21  L 13,21  L 13,22  L 12,22  Z  " style="fill:rgb(43, 112, 42); fill-opacity:1.000; stroke:none;" />
 <path d="  M 12,18  L 11,18  L 11,19  L 12,19  Z  " style="fill:rgb(43, 112, 42); fill-opacity:1.000; stroke:none;" />
 <path d="  M 15,20  L 16,20  L 16,18  L 15,18  Z  " style="fill:rgb(43, 112, 42); fill-opacity:1.000; stroke:none;" />
 <path d="  M 15,22  L 15,23  L 16,23  L 16,22  Z  " style="fill:rgb(43, 112, 42); fill-opacity:1.000; stroke:none;" />
 <path d="  M 21,18  L 20,18  L 20,17  L 19,17  L 19,18  L 18,18  L 18,19  L 19,19  L 19,20  L 20,20  L 20,19  L 21,19  Z  " style="fill:rgb(43, 112, 42); fill-opacity:1.000; stroke:none;" />
 <path d="  M 22,16  L 22,15  L 21,15  L 21,16  Z  " style="fill:rgb(43, 112, 42); fill-opacity:1.000; stroke:none;" />
 <path d="  M 21,17  L 21,18  L 22,18  L 22,17  Z  " style="fill:rgb(43, 112, 42); fill-opacity:1.000; stroke:none;" />
 <path d="  M 22,19  L 21,19  L 21,22  L 23,22  L 23,21  L 22,21  Z  " style="fill:rgb(43, 112, 42); fill-opacity:1.000; stroke:none;" />
 <path d="  M 22,17  L 23,17  L 23,16  L 22,16  Z  " style="fill:rgb(43, 112, 42); fill-opacity:1.000; stroke:none;" />
 <path d="  M 22,19  L 23,19  L 23,18  L 22,18  Z  " style="fill:rgb(43, 112, 42); fill-opacity:1.000; stroke:none;" />
 <path d="  M 23,14  L 23,15  L 24,15  L 24,14  Z  " style="fill:rgb(43, 112, 42); fill-opacity:1.000; stroke:none;" />
 <path d="  M 24,18  L 24,17  L 23,17  L 23,18  Z  " style="fill:rgb(43, 112, 42); fill-opacity:1.000; stroke:none;" />
 <path d="  M 27,25  L 27,24  L 26,24  L 26,22  L 25,22  L 25,21  L 26,21  L 26,20  L 25,20  L 25,19  L 24,19  L 24,20  L 23,20  L 23,21  L 24,21  L 24,22  L 23,22  L 23,24  L 25,24  L 25,25  Z  " style="fill:rgb(43, 112, 42); fill-opacity:1.000; stroke:none;" />
 <path d="  M 31,23  L 30,23  L 30,24  L 29,24  L 29,25  L 28,25  L 28,26  L 30,26  L 30,25  L 31,25  Z  " style="fill:rgb(43, 112, 42); fill-opacity:1.000; stroke:none;" />
 <path d="  M 29,18  L 29,19  L 30,19  L 30,18  Z  " style="fill:rgb(43, 112, 42); fill-opacity:1.000; stroke:none;" />
 <path d="  M 30,19  L 30,20  L 31,20  L 31,19  Z  " style="fill:rgb(43, 112, 42); fill-opacity:1.000; stroke:none;" />
 <path d="  M 31,23  L 32,23  L 32,22  L 31,22  Z  " style="fill:rgb(43, 112, 42); fill-opacity:1.000; stroke:none;" />
 <path d="  M 16,15  L 14,15  L 14,16  L 15,16  L 15,17  L 16,17  Z  " style="fill:rgb(89, 171, 48); fill-opacity:1.000; stroke:none;" />
 <path d="  M 16,18  L 17,18  L 17,17  L 16,17  Z  " style="fill:rgb(89, 171, 48); fill-opacity:1.000; stroke:none;" />
 <path d="  M 17,15  L 17,16  L 19,16  L 19,15  L 20,15  L 20,14  L 19,14  L 19,13  L 18,13  L 18,15  Z  " style="fill:rgb(89, 171, 48); fill-opacity:1.000; stroke:none;" />
 <path d="  M 20,12  L 19,12  L 19,13  L 20,13  Z  " style="fill:rgb(89, 171, 48); fill-opacity:1.000; stroke:none;" />
 <path d="  M 21,12  L 21,13  L 22,13  L 22,12  Z  " style="fill:rgb(89, 171, 48); fill-opacity:1.000; stroke:none;" />
 <path d="  M 26,20  L 26,21  L 27,21  L 27,20  Z  " style="fill:rgb(89, 171, 48); fill-opacity:1.000; stroke:none;" />
 <path d="  M 27,19  L 29,19  L 29,18  L 30,18  L 30,17  L 28,17  L 28,18  L 27,18  Z  " style="fill:rgb(89, 171, 48); fill-opacity:1.000; stroke:none;" />
 <path d="  M 30,20  L 28,20  L 28,22  L 29,22  L 29,21  L 30,21  Z  " style="fill:rgb(89, 171, 48); fill-opacity:1.000; stroke:none;" />
</svg>
