<?xml version="1.0" encoding="UTF-8" standalone="no"?>
<!DOCTYPE svg PUBLIC "-//W3C//DTD SVG 1.1//EN" 
  "http://www.w3.org/Graphics/SVG/1.1/DTD/svg11.dtd">
<svg width="32" height="32"
	 xmlns="http://www.w3.org/2000/svg" version="1.1">
 <path d="  M 1,0  L 0,0  L 0,4  L 1,4  Z  " style="fill:rgb(80, 105, 44); fill-opacity:1.000; stroke:none;" />
 <path d="  M 1,22  L 1,20  L 2,20  L 2,19  L 3,19  L 3,17  L 1,17  L 1,19  L 0,19  L 0,22  Z  " style="fill:rgb(80, 105, 44); fill-opacity:1.000; stroke:none;" />
 <path d="  M 1,6  L 2,6  L 2,5  L 1,5  Z  " style="fill:rgb(80, 105, 44); fill-opacity:1.000; stroke:none;" />
 <path d="  M 2,23  L 2,22  L 1,22  L 1,23  Z  " style="fill:rgb(80, 105, 44); fill-opacity:1.000; stroke:none;" />
 <path d="  M 3,7  L 2,7  L 2,8  L 3,8  Z  " style="fill:rgb(80, 105, 44); fill-opacity:1.000; stroke:none;" />
 <path d="  M 3,15  L 2,15  L 2,16  L 3,16  Z  " style="fill:rgb(80, 105, 44); fill-opacity:1.000; stroke:none;" />
 <path d="  M 3,25  L 3,24  L 2,24  L 2,25  Z  " style="fill:rgb(80, 105, 44); fill-opacity:1.000; stroke:none;" />
 <path d="  M 4,10  L 3,10  L 3,13  L 4,13  Z  " style="fill:rgb(80, 105, 44); fill-opacity:1.000; stroke:none;" />
 <path d="  M 4,20  L 4,19  L 3,19  L 3,20  Z  " style="fill:rgb(80, 105, 44); fill-opacity:1.000; stroke:none;" />
 <path d="  M 4,27  L 4,25  L 3,25  L 3,27  Z  " style="fill:rgb(80, 105, 44); fill-opacity:1.000; stroke:none;" />
 <path d="  M 5,28  L 5,27  L 4,27  L 4,28  Z  " style="fill:rgb(80, 105, 44); fill-opacity:1.000; stroke:none;" />
 <path d="  M 6,29  L 6,28  L 5,28  L 5,29  Z  " style="fill:rgb(80, 105, 44); fill-opacity:1.000; stroke:none;" />
 <path d="  M 6,30  L 7,30  L 7,29  L 6,29  Z  " style="fill:rgb(80, 105, 44); fill-opacity:1.000; stroke:none;" />
 <path d="  M 12,31  L 12,30  L 8,30  L 8,31  Z  " style="fill:rgb(80, 105, 44); fill-opacity:1.000; stroke:none;" />
 <path d="  M 14,29  L 12,29  L 12,30  L 14,30  Z  " style="fill:rgb(80, 105, 44); fill-opacity:1.000; stroke:none;" />
 <path d="  M 14,28  L 14,29  L 15,29  L 15,28  Z  " style="fill:rgb(80, 105, 44); fill-opacity:1.000; stroke:none;" />
 <path d="  M 16,11  L 15,11  L 15,14  L 16,14  Z  " style="fill:rgb(80, 105, 44); fill-opacity:1.000; stroke:none;" />
 <path d="  M 15,20  L 15,24  L 16,24  L 16,20  Z  " style="fill:rgb(80, 105, 44); fill-opacity:1.000; stroke:none;" />
 <path d="  M 15,25  L 15,28  L 17,28  L 17,27  L 16,27  L 16,25  Z  " style="fill:rgb(80, 105, 44); fill-opacity:1.000; stroke:none;" />
 <path d="  M 17,28  L 17,29  L 18,29  L 18,28  Z  " style="fill:rgb(80, 105, 44); fill-opacity:1.000; stroke:none;" />
 <path d="  M 18,29  L 18,30  L 20,30  L 20,29  Z  " style="fill:rgb(80, 105, 44); fill-opacity:1.000; stroke:none;" />
 <path d="  M 20,30  L 20,31  L 24,31  L 24,30  Z  " style="fill:rgb(80, 105, 44); fill-opacity:1.000; stroke:none;" />
 <path d="  M 24,30  L 26,30  L 26,29  L 24,29  Z  " style="fill:rgb(80, 105, 44); fill-opacity:1.000; stroke:none;" />
 <path d="  M 26,29  L 27,29  L 27,28  L 26,28  Z  " style="fill:rgb(80, 105, 44); fill-opacity:1.000; stroke:none;" />
 <path d="  M 27,27  L 27,28  L 28,28  L 28,27  Z  " style="fill:rgb(80, 105, 44); fill-opacity:1.000; stroke:none;" />
 <path d="  M 29,10  L 28,10  L 28,13  L 29,13  Z  " style="fill:rgb(80, 105, 44); fill-opacity:1.000; stroke:none;" />
 <path d="  M 29,19  L 28,19  L 28,20  L 29,20  Z  " style="fill:rgb(80, 105, 44); fill-opacity:1.000; stroke:none;" />
 <path d="  M 28,27  L 29,27  L 29,26  L 28,26  Z  " style="fill:rgb(80, 105, 44); fill-opacity:1.000; stroke:none;" />
 <path d="  M 29,8  L 30,8  L 30,7  L 29,7  Z  " style="fill:rgb(80, 105, 44); fill-opacity:1.000; stroke:none;" />
 <path d="  M 30,15  L 29,15  L 29,16  L 30,16  Z  " style="fill:rgb(80, 105, 44); fill-opacity:1.000; stroke:none;" />
 <path d="  M 31,18  L 31,17  L 29,17  L 29,19  L 30,19  L 30,20  L 31,20  L 31,21  L 32,21  L 32,18  Z  " style="fill:rgb(80, 105, 44); fill-opacity:1.000; stroke:none;" />
 <path d="  M 29,25  L 29,26  L 30,26  L 30,25  Z  " style="fill:rgb(80, 105, 44); fill-opacity:1.000; stroke:none;" />
 <path d="  M 31,6  L 31,5  L 30,5  L 30,6  Z  " style="fill:rgb(80, 105, 44); fill-opacity:1.000; stroke:none;" />
 <path d="  M 32,0  L 31,0  L 31,4  L 32,4  Z  " style="fill:rgb(80, 105, 44); fill-opacity:1.000; stroke:none;" />
 <path d="  M 0,6  L 1,6  L 1,4  L 0,4  Z  " style="fill:rgb(66, 85, 45); fill-opacity:1.000; stroke:none;" />
 <path d="  M 1,17  L 0,17  L 0,19  L 1,19  Z  " style="fill:rgb(66, 85, 45); fill-opacity:1.000; stroke:none;" />
 <path d="  M 2,8  L 2,6  L 1,6  L 1,8  Z  " style="fill:rgb(66, 85, 45); fill-opacity:1.000; stroke:none;" />
 <path d="  M 2,15  L 1,15  L 1,17  L 2,17  Z  " style="fill:rgb(66, 85, 45); fill-opacity:1.000; stroke:none;" />
 <path d="  M 2,23  L 1,23  L 1,25  L 2,25  Z  " style="fill:rgb(66, 85, 45); fill-opacity:1.000; stroke:none;" />
 <path d="  M 3,8  L 2,8  L 2,15  L 3,15  Z  " style="fill:rgb(66, 85, 45); fill-opacity:1.000; stroke:none;" />
 <path d="  M 3,27  L 3,25  L 2,25  L 2,27  Z  " style="fill:rgb(66, 85, 45); fill-opacity:1.000; stroke:none;" />
 <path d="  M 4,27  L 3,27  L 3,28  L 4,28  Z  " style="fill:rgb(66, 85, 45); fill-opacity:1.000; stroke:none;" />
 <path d="  M 4,28  L 4,29  L 5,29  L 5,28  Z  " style="fill:rgb(66, 85, 45); fill-opacity:1.000; stroke:none;" />
 <path d="  M 5,29  L 5,30  L 6,30  L 6,29  Z  " style="fill:rgb(66, 85, 45); fill-opacity:1.000; stroke:none;" />
 <path d="  M 8,30  L 6,30  L 6,31  L 8,31  Z  " style="fill:rgb(66, 85, 45); fill-opacity:1.000; stroke:none;" />
 <path d="  M 12,30  L 12,31  L 8,31  L 8,32  L 13,32  L 13,31  L 14,31  L 14,30  Z  " style="fill:rgb(66, 85, 45); fill-opacity:1.000; stroke:none;" />
 <path d="  M 18,30  L 18,29  L 17,29  L 17,28  L 15,28  L 15,29  L 14,29  L 14,30  Z  " style="fill:rgb(66, 85, 45); fill-opacity:1.000; stroke:none;" />
 <path d="  M 18,31  L 19,31  L 19,32  L 24,32  L 24,31  L 20,31  L 20,30  L 18,30  Z  " style="fill:rgb(66, 85, 45); fill-opacity:1.000; stroke:none;" />
 <path d="  M 24,30  L 24,31  L 26,31  L 26,30  Z  " style="fill:rgb(66, 85, 45); fill-opacity:1.000; stroke:none;" />
 <path d="  M 27,29  L 26,29  L 26,30  L 27,30  Z  " style="fill:rgb(66, 85, 45); fill-opacity:1.000; stroke:none;" />
 <path d="  M 27,29  L 28,29  L 28,28  L 27,28  Z  " style="fill:rgb(66, 85, 45); fill-opacity:1.000; stroke:none;" />
 <path d="  M 29,28  L 29,27  L 28,27  L 28,28  Z  " style="fill:rgb(66, 85, 45); fill-opacity:1.000; stroke:none;" />
 <path d="  M 30,8  L 29,8  L 29,15  L 30,15  Z  " style="fill:rgb(66, 85, 45); fill-opacity:1.000; stroke:none;" />
 <path d="  M 30,26  L 29,26  L 29,27  L 30,27  Z  " style="fill:rgb(66, 85, 45); fill-opacity:1.000; stroke:none;" />
 <path d="  M 30,8  L 31,8  L 31,6  L 30,6  Z  " style="fill:rgb(66, 85, 45); fill-opacity:1.000; stroke:none;" />
 <path d="  M 31,17  L 31,15  L 30,15  L 30,17  Z  " style="fill:rgb(66, 85, 45); fill-opacity:1.000; stroke:none;" />
 <path d="  M 31,22  L 30,22  L 30,25  L 31,25  Z  " style="fill:rgb(66, 85, 45); fill-opacity:1.000; stroke:none;" />
 <path d="  M 32,4  L 31,4  L 31,6  L 32,6  Z  " style="fill:rgb(66, 85, 45); fill-opacity:1.000; stroke:none;" />
 <path d="  M 31,18  L 32,18  L 32,17  L 31,17  Z  " style="fill:rgb(66, 85, 45); fill-opacity:1.000; stroke:none;" />
 <path d="  M 32,21  L 31,21  L 31,22  L 32,22  Z  " style="fill:rgb(66, 85, 45); fill-opacity:1.000; stroke:none;" />
 <path d="  M 1,5  L 2,5  L 2,1  L 3,1  L 3,0  L 1,0  Z  " style="fill:rgb(108, 128, 49); fill-opacity:1.000; stroke:none;" />
 <path d="  M 4,13  L 3,13  L 3,16  L 2,16  L 2,17  L 3,17  L 3,19  L 2,19  L 2,20  L 1,20  L 1,22  L 2,22  L 2,24  L 3,24  L 3,25  L 4,25  L 4,21  L 5,21  L 5,22  L 6,22  L 6,20  L 5,20  L 5,18  L 4,18  Z  M 3,20  L 3,19  L 4,19  L 4,20  Z  " style="fill:rgb(108, 128, 49); fill-opacity:1.000; stroke:none;" />
 <path d="  M 2,6  L 2,7  L 3,7  L 3,6  Z  " style="fill:rgb(108, 128, 49); fill-opacity:1.000; stroke:none;" />
 <path d="  M 4,8  L 3,8  L 3,10  L 4,10  Z  " style="fill:rgb(108, 128, 49); fill-opacity:1.000; stroke:none;" />
 <path d="  M 4,10  L 4,12  L 6,12  L 6,11  L 5,11  L 5,10  Z  " style="fill:rgb(108, 128, 49); fill-opacity:1.000; stroke:none;" />
 <path d="  M 14,29  L 14,28  L 15,28  L 15,25  L 14,25  L 14,27  L 13,27  L 13,28  L 8,28  L 8,27  L 6,27  L 6,26  L 5,26  L 5,25  L 4,25  L 4,27  L 5,27  L 5,28  L 6,28  L 6,29  L 7,29  L 7,30  L 12,30  L 12,29  Z  " style="fill:rgb(108, 128, 49); fill-opacity:1.000; stroke:none;" />
 <path d="  M 6,12  L 6,13  L 9,13  L 9,12  Z  " style="fill:rgb(108, 128, 49); fill-opacity:1.000; stroke:none;" />
 <path d="  M 6,23  L 7,23  L 7,22  L 6,22  Z  " style="fill:rgb(108, 128, 49); fill-opacity:1.000; stroke:none;" />
 <path d="  M 9,24  L 9,23  L 7,23  L 7,24  Z  " style="fill:rgb(108, 128, 49); fill-opacity:1.000; stroke:none;" />
 <path d="  M 14,12  L 14,14  L 15,14  L 15,12  Z  " style="fill:rgb(108, 128, 49); fill-opacity:1.000; stroke:none;" />
 <path d="  M 14,21  L 14,23  L 15,23  L 15,21  Z  " style="fill:rgb(108, 128, 49); fill-opacity:1.000; stroke:none;" />
 <path d="  M 16,2  L 16,0  L 15,0  L 15,2  Z  " style="fill:rgb(108, 128, 49); fill-opacity:1.000; stroke:none;" />
 <path d="  M 16,5  L 15,5  L 15,11  L 16,11  Z  " style="fill:rgb(108, 128, 49); fill-opacity:1.000; stroke:none;" />
 <path d="  M 15,20  L 16,20  L 16,14  L 15,14  Z  " style="fill:rgb(108, 128, 49); fill-opacity:1.000; stroke:none;" />
 <path d="  M 16,25  L 16,24  L 15,24  L 15,25  Z  " style="fill:rgb(108, 128, 49); fill-opacity:1.000; stroke:none;" />
 <path d="  M 18,12  L 16,12  L 16,14  L 17,14  L 17,13  L 18,13  Z  " style="fill:rgb(108, 128, 49); fill-opacity:1.000; stroke:none;" />
 <path d="  M 17,22  L 16,22  L 16,24  L 17,24  Z  " style="fill:rgb(108, 128, 49); fill-opacity:1.000; stroke:none;" />
 <path d="  M 17,28  L 18,28  L 18,26  L 16,26  L 16,27  L 17,27  Z  " style="fill:rgb(108, 128, 49); fill-opacity:1.000; stroke:none;" />
 <path d="  M 26,29  L 26,28  L 18,28  L 18,29  L 20,29  L 20,30  L 24,30  L 24,29  Z  " style="fill:rgb(108, 128, 49); fill-opacity:1.000; stroke:none;" />
 <path d="  M 25,23  L 23,23  L 23,24  L 25,24  Z  " style="fill:rgb(108, 128, 49); fill-opacity:1.000; stroke:none;" />
 <path d="  M 24,13  L 26,13  L 26,12  L 24,12  Z  " style="fill:rgb(108, 128, 49); fill-opacity:1.000; stroke:none;" />
 <path d="  M 26,22  L 25,22  L 25,23  L 26,23  Z  " style="fill:rgb(108, 128, 49); fill-opacity:1.000; stroke:none;" />
 <path d="  M 28,10  L 27,10  L 27,11  L 26,11  L 26,12  L 28,12  Z  " style="fill:rgb(108, 128, 49); fill-opacity:1.000; stroke:none;" />
 <path d="  M 30,22  L 31,22  L 31,20  L 30,20  L 30,19  L 29,19  L 29,17  L 30,17  L 30,16  L 29,16  L 29,13  L 28,13  L 28,18  L 27,18  L 27,20  L 26,20  L 26,22  L 27,22  L 27,21  L 28,21  L 28,23  L 27,23  L 27,24  L 28,24  L 28,26  L 29,26  L 29,25  L 30,25  Z  M 29,20  L 28,20  L 28,19  L 29,19  Z  " style="fill:rgb(108, 128, 49); fill-opacity:1.000; stroke:none;" />
 <path d="  M 26,26  L 26,28  L 27,28  L 27,27  L 28,27  L 28,26  Z  " style="fill:rgb(108, 128, 49); fill-opacity:1.000; stroke:none;" />
 <path d="  M 29,8  L 28,8  L 28,10  L 29,10  Z  " style="fill:rgb(108, 128, 49); fill-opacity:1.000; stroke:none;" />
 <path d="  M 29,0  L 29,1  L 30,1  L 30,5  L 31,5  L 31,0  Z  " style="fill:rgb(108, 128, 49); fill-opacity:1.000; stroke:none;" />
 <path d="  M 30,6  L 29,6  L 29,7  L 30,7  Z  " style="fill:rgb(108, 128, 49); fill-opacity:1.000; stroke:none;" />
 <path d="  M 5,10  L 5,11  L 6,11  L 6,12  L 8,12  L 8,11  L 7,11  L 7,10  L 6,10  L 6,8  L 5,8  L 5,6  L 6,6  L 6,5  L 5,5  L 5,4  L 4,4  L 4,0  L 3,0  L 3,1  L 2,1  L 2,6  L 3,6  L 3,8  L 4,8  L 4,10  Z  " style="fill:rgb(112, 146, 45); fill-opacity:1.000; stroke:none;" />
 <path d="  M 7,23  L 9,23  L 9,22  L 8,22  L 8,21  L 7,21  L 7,19  L 6,19  L 6,18  L 7,18  L 7,17  L 6,17  L 6,14  L 7,14  L 7,13  L 6,13  L 6,12  L 4,12  L 4,18  L 5,18  L 5,20  L 6,20  L 6,22  L 7,22  Z  " style="fill:rgb(112, 146, 45); fill-opacity:1.000; stroke:none;" />
 <path d="  M 13,26  L 12,26  L 12,27  L 10,27  L 10,26  L 9,26  L 9,25  L 10,25  L 10,24  L 12,24  L 12,23  L 9,23  L 9,24  L 7,24  L 7,23  L 6,23  L 6,22  L 5,22  L 5,21  L 4,21  L 4,25  L 5,25  L 5,26  L 6,26  L 6,27  L 8,27  L 8,28  L 13,28  L 13,27  L 14,27  L 14,25  L 13,25  Z  " style="fill:rgb(112, 146, 45); fill-opacity:1.000; stroke:none;" />
 <path d="  M 7,6  L 6,6  L 6,7  L 7,7  Z  " style="fill:rgb(112, 146, 45); fill-opacity:1.000; stroke:none;" />
 <path d="  M 11,9  L 11,8  L 9,8  L 9,9  Z  " style="fill:rgb(112, 146, 45); fill-opacity:1.000; stroke:none;" />
 <path d="  M 9,12  L 9,13  L 11,13  L 11,12  Z  " style="fill:rgb(112, 146, 45); fill-opacity:1.000; stroke:none;" />
 <path d="  M 13,12  L 13,13  L 14,13  L 14,12  Z  " style="fill:rgb(112, 146, 45); fill-opacity:1.000; stroke:none;" />
 <path d="  M 16,2  L 15,2  L 15,0  L 14,0  L 14,3  L 15,3  L 15,5  L 16,5  L 16,6  L 17,6  L 17,4  L 16,4  Z  " style="fill:rgb(112, 146, 45); fill-opacity:1.000; stroke:none;" />
 <path d="  M 15,8  L 15,7  L 14,7  L 14,8  Z  " style="fill:rgb(112, 146, 45); fill-opacity:1.000; stroke:none;" />
 <path d="  M 14,12  L 15,12  L 15,9  L 14,9  Z  " style="fill:rgb(112, 146, 45); fill-opacity:1.000; stroke:none;" />
 <path d="  M 15,14  L 14,14  L 14,16  L 15,16  Z  " style="fill:rgb(112, 146, 45); fill-opacity:1.000; stroke:none;" />
 <path d="  M 15,19  L 14,19  L 14,21  L 15,21  Z  " style="fill:rgb(112, 146, 45); fill-opacity:1.000; stroke:none;" />
 <path d="  M 14,23  L 14,25  L 15,25  L 15,23  Z  " style="fill:rgb(112, 146, 45); fill-opacity:1.000; stroke:none;" />
 <path d="  M 16,2  L 17,2  L 17,0  L 16,0  Z  " style="fill:rgb(112, 146, 45); fill-opacity:1.000; stroke:none;" />
 <path d="  M 16,12  L 18,12  L 18,11  L 17,11  L 17,8  L 16,8  Z  " style="fill:rgb(112, 146, 45); fill-opacity:1.000; stroke:none;" />
 <path d="  M 16,15  L 17,15  L 17,14  L 16,14  Z  " style="fill:rgb(112, 146, 45); fill-opacity:1.000; stroke:none;" />
 <path d="  M 16,18  L 17,18  L 17,17  L 16,17  Z  " style="fill:rgb(112, 146, 45); fill-opacity:1.000; stroke:none;" />
 <path d="  M 16,22  L 17,22  L 17,20  L 16,20  Z  " style="fill:rgb(112, 146, 45); fill-opacity:1.000; stroke:none;" />
 <path d="  M 24,28  L 24,27  L 26,27  L 26,26  L 27,26  L 27,25  L 28,25  L 28,24  L 27,24  L 27,23  L 28,23  L 28,21  L 27,21  L 27,22  L 26,22  L 26,23  L 25,23  L 25,24  L 23,24  L 23,23  L 20,23  L 20,24  L 22,24  L 22,25  L 23,25  L 23,26  L 21,26  L 21,27  L 20,27  L 20,26  L 19,26  L 19,25  L 18,25  L 18,23  L 17,23  L 17,24  L 16,24  L 16,26  L 18,26  L 18,28  Z  " style="fill:rgb(112, 146, 45); fill-opacity:1.000; stroke:none;" />
 <path d="  M 18,13  L 17,13  L 17,14  L 18,14  Z  " style="fill:rgb(112, 146, 45); fill-opacity:1.000; stroke:none;" />
 <path d="  M 18,13  L 19,13  L 19,12  L 18,12  Z  " style="fill:rgb(112, 146, 45); fill-opacity:1.000; stroke:none;" />
 <path d="  M 22,7  L 22,8  L 24,8  L 24,7  Z  " style="fill:rgb(112, 146, 45); fill-opacity:1.000; stroke:none;" />
 <path d="  M 22,12  L 22,13  L 24,13  L 24,12  Z  " style="fill:rgb(112, 146, 45); fill-opacity:1.000; stroke:none;" />
 <path d="  M 24,18  L 24,17  L 23,17  L 23,18  Z  " style="fill:rgb(112, 146, 45); fill-opacity:1.000; stroke:none;" />
 <path d="  M 26,22  L 26,20  L 27,20  L 27,18  L 28,18  L 28,12  L 26,12  L 26,13  L 25,13  L 25,14  L 26,14  L 26,16  L 25,16  L 25,17  L 26,17  L 26,19  L 25,19  L 25,21  L 24,21  L 24,22  L 23,22  L 23,23  L 25,23  L 25,22  Z  " style="fill:rgb(112, 146, 45); fill-opacity:1.000; stroke:none;" />
 <path d="  M 25,6  L 24,6  L 24,7  L 25,7  Z  " style="fill:rgb(112, 146, 45); fill-opacity:1.000; stroke:none;" />
 <path d="  M 28,4  L 27,4  L 27,5  L 26,5  L 26,6  L 27,6  L 27,8  L 26,8  L 26,10  L 25,10  L 25,11  L 24,11  L 24,12  L 26,12  L 26,11  L 27,11  L 27,10  L 28,10  L 28,8  L 29,8  L 29,6  L 30,6  L 30,1  L 29,1  L 29,0  L 27,0  L 27,1  L 28,1  Z  " style="fill:rgb(112, 146, 45); fill-opacity:1.000; stroke:none;" />
 <path d="  M 4,1  L 5,1  L 5,0  L 4,0  Z  " style="fill:rgb(111, 145, 44); fill-opacity:1.000; stroke:none;" />
 <path d="  M 14,8  L 14,7  L 15,7  L 15,3  L 14,3  L 14,0  L 5,0  L 5,1  L 4,1  L 4,4  L 5,4  L 5,5  L 6,5  L 6,6  L 5,6  L 5,8  L 6,8  L 6,10  L 7,10  L 7,11  L 8,11  L 8,12  L 11,12  L 11,13  L 7,13  L 7,14  L 6,14  L 6,17  L 7,17  L 7,18  L 6,18  L 6,19  L 7,19  L 7,21  L 8,21  L 8,22  L 9,22  L 9,23  L 12,23  L 12,24  L 10,24  L 10,25  L 9,25  L 9,26  L 10,26  L 10,27  L 12,27  L 12,26  L 13,26  L 13,25  L 14,25  L 14,19  L 15,19  L 15,16  L 14,16  L 14,13  L 13,13  L 13,12  L 14,12  L 14,9  L 15,9  L 15,8  Z  M 7,6  L 7,7  L 6,7  L 6,6  Z  M 10,18  L 10,17  L 9,17  L 9,16  L 10,16  L 10,15  L 11,15  L 11,16  L 12,16  L 12,18  Z  M 9,9  L 9,8  L 11,8  L 11,9  Z  M 10,2  L 10,1  L 12,1  L 12,2  L 13,2  L 13,4  L 14,4  L 14,5  L 13,5  L 13,6  L 11,6  L 11,5  L 9,5  L 9,4  L 8,4  L 8,2  Z  " style="fill:rgb(132, 168, 60); fill-opacity:1.000; stroke:none;" />
 <path d="  M 13,4  L 12,4  L 12,5  L 13,5  Z  " style="fill:rgb(132, 168, 60); fill-opacity:1.000; stroke:none;" />
 <path d="  M 16,17  L 17,17  L 17,18  L 16,18  L 16,20  L 17,20  L 17,23  L 18,23  L 18,25  L 19,25  L 19,26  L 20,26  L 20,27  L 21,27  L 21,26  L 23,26  L 23,25  L 22,25  L 22,24  L 20,24  L 20,23  L 23,23  L 23,22  L 24,22  L 24,21  L 25,21  L 25,19  L 26,19  L 26,17  L 25,17  L 25,16  L 26,16  L 26,14  L 25,14  L 25,13  L 22,13  L 22,12  L 24,12  L 24,11  L 25,11  L 25,10  L 26,10  L 26,8  L 27,8  L 27,6  L 26,6  L 26,5  L 27,5  L 27,4  L 28,4  L 28,1  L 27,1  L 27,0  L 17,0  L 17,2  L 16,2  L 16,4  L 17,4  L 17,6  L 16,6  L 16,8  L 17,8  L 17,11  L 18,11  L 18,12  L 19,12  L 19,13  L 18,13  L 18,14  L 17,14  L 17,15  L 16,15  Z  M 23,3  L 22,3  L 22,4  L 20,4  L 20,5  L 21,5  L 21,6  L 19,6  L 19,5  L 18,5  L 18,3  L 19,3  L 19,1  L 21,1  L 21,2  L 23,2  Z  M 19,16  L 20,16  L 20,17  L 19,17  Z  M 25,6  L 25,7  L 24,7  L 24,6  Z  M 23,18  L 23,17  L 24,17  L 24,18  Z  M 24,8  L 22,8  L 22,7  L 24,7  Z  " style="fill:rgb(132, 168, 60); fill-opacity:1.000; stroke:none;" />
 <path d="  M 8,4  L 9,4  L 9,5  L 11,5  L 11,6  L 13,6  L 13,5  L 12,5  L 12,4  L 13,4  L 13,2  L 12,2  L 12,1  L 10,1  L 10,2  L 8,2  Z  " style="fill:rgb(152, 196, 64); fill-opacity:1.000; stroke:none;" />
 <path d="  M 10,17  L 10,18  L 12,18  L 12,16  L 11,16  L 11,15  L 10,15  L 10,16  L 9,16  L 9,17  Z  " style="fill:rgb(152, 196, 64); fill-opacity:1.000; stroke:none;" />
 <path d="  M 13,4  L 13,5  L 14,5  L 14,4  Z  " style="fill:rgb(152, 196, 64); fill-opacity:1.000; stroke:none;" />
 <path d="  M 19,1  L 19,3  L 18,3  L 18,5  L 19,5  L 19,6  L 21,6  L 21,5  L 20,5  L 20,4  L 22,4  L 22,3  L 23,3  L 23,2  L 21,2  L 21,1  Z  " style="fill:rgb(152, 196, 64); fill-opacity:1.000; stroke:none;" />
 <path d="  M 19,17  L 20,17  L 20,16  L 19,16  Z  " style="fill:rgb(152, 196, 64); fill-opacity:1.000; stroke:none;" />
 <path d="  M 26,28  L 26,27  L 24,27  L 24,28  Z  " style="fill:rgb(108, 128, 48); fill-opacity:1.000; stroke:none;" />
 <path d="  M 27,26  L 28,26  L 28,25  L 27,25  Z  " style="fill:rgb(108, 128, 48); fill-opacity:1.000; stroke:none;" />
</svg>
