<?xml version="1.0" encoding="UTF-8" standalone="no"?>
<!DOCTYPE svg PUBLIC "-//W3C//DTD SVG 1.1//EN" 
  "http://www.w3.org/Graphics/SVG/1.1/DTD/svg11.dtd">
<svg width="32" height="32"
	 xmlns="http://www.w3.org/2000/svg" version="1.1">
 <path d="  M 6,4  L 7,4  L 7,5  L 8,5  L 8,6  L 10,6  L 10,3  L 9,3  L 9,2  L 7,2  L 7,3  L 6,3  Z  " style="fill:rgb(80, 105, 44); fill-opacity:1.000; stroke:none;" />
 <path d="  M 14,11  L 14,12  L 15,12  L 15,13  L 16,13  L 16,11  L 15,11  L 15,7  L 14,7  L 14,2  L 13,2  L 13,1  L 11,1  L 11,0  L 10,0  L 10,3  L 11,3  L 11,2  L 12,2  L 12,4  L 13,4  L 13,8  L 14,8  L 14,10  L 13,10  L 13,11  Z  " style="fill:rgb(80, 105, 44); fill-opacity:1.000; stroke:none;" />
 <path d="  M 11,8  L 11,6  L 10,6  L 10,8  Z  " style="fill:rgb(80, 105, 44); fill-opacity:1.000; stroke:none;" />
 <path d="  M 13,30  L 13,28  L 14,28  L 14,25  L 15,25  L 15,23  L 16,23  L 16,21  L 17,21  L 17,20  L 18,20  L 18,19  L 19,19  L 19,18  L 20,18  L 20,16  L 19,16  L 19,17  L 18,17  L 18,18  L 16,18  L 16,19  L 15,19  L 15,21  L 14,21  L 14,24  L 13,24  L 13,27  L 12,27  L 12,28  L 11,28  L 11,27  L 10,27  L 10,30  L 11,30  L 11,31  L 12,31  L 12,30  Z  " style="fill:rgb(80, 105, 44); fill-opacity:1.000; stroke:none;" />
 <path d="  M 13,10  L 13,9  L 12,9  L 12,8  L 11,8  L 11,10  Z  " style="fill:rgb(80, 105, 44); fill-opacity:1.000; stroke:none;" />
 <path d="  M 12,21  L 11,21  L 11,22  L 12,22  Z  " style="fill:rgb(80, 105, 44); fill-opacity:1.000; stroke:none;" />
 <path d="  M 17,0  L 17,7  L 18,7  L 18,2  L 19,2  L 19,1  L 20,1  L 20,2  L 21,2  L 21,0  Z  " style="fill:rgb(80, 105, 44); fill-opacity:1.000; stroke:none;" />
 <path d="  M 18,13  L 17,13  L 17,14  L 18,14  Z  " style="fill:rgb(80, 105, 44); fill-opacity:1.000; stroke:none;" />
 <path d="  M 17,22  L 17,23  L 19,23  L 19,22  Z  " style="fill:rgb(80, 105, 44); fill-opacity:1.000; stroke:none;" />
 <path d="  M 18,31  L 18,32  L 20,32  L 20,31  Z  " style="fill:rgb(80, 105, 44); fill-opacity:1.000; stroke:none;" />
 <path d="  M 20,21  L 20,23  L 21,23  L 21,25  L 22,25  L 22,26  L 23,26  L 23,25  L 24,25  L 24,22  L 23,22  L 23,20  L 22,20  L 22,19  L 20,19  L 20,20  L 19,20  L 19,21  Z  " style="fill:rgb(80, 105, 44); fill-opacity:1.000; stroke:none;" />
 <path d="  M 20,16  L 21,16  L 21,14  L 20,14  Z  " style="fill:rgb(80, 105, 44); fill-opacity:1.000; stroke:none;" />
 <path d="  M 21,2  L 21,4  L 22,4  L 22,2  Z  " style="fill:rgb(80, 105, 44); fill-opacity:1.000; stroke:none;" />
 <path d="  M 21,14  L 22,14  L 22,11  L 21,11  Z  " style="fill:rgb(80, 105, 44); fill-opacity:1.000; stroke:none;" />
 <path d="  M 25,8  L 25,6  L 23,6  L 23,7  L 22,7  L 22,9  L 24,9  L 24,8  Z  " style="fill:rgb(80, 105, 44); fill-opacity:1.000; stroke:none;" />
 <path d="  M 7,18  L 7,19  L 6,19  L 6,20  L 8,20  L 8,21  L 10,21  L 10,20  L 12,20  L 12,19  L 11,19  L 11,18  Z  " style="fill:rgb(112, 146, 45); fill-opacity:1.000; stroke:none;" />
 <path d="  M 19,9  L 18,9  L 18,12  L 19,12  L 19,13  L 20,13  L 20,11  L 21,11  L 21,4  L 20,4  L 20,3  L 19,3  Z  " style="fill:rgb(112, 146, 45); fill-opacity:1.000; stroke:none;" />
 <path d="  M 24,21  L 24,22  L 25,22  L 25,21  Z  " style="fill:rgb(112, 146, 45); fill-opacity:1.000; stroke:none;" />
 <path d="  M 25,20  L 25,21  L 27,21  L 27,20  Z  " style="fill:rgb(112, 146, 45); fill-opacity:1.000; stroke:none;" />
 <path d="  M 8,20  L 7,20  L 7,21  L 8,21  Z  " style="fill:rgb(108, 128, 49); fill-opacity:1.000; stroke:none;" />
 <path d="  M 20,16  L 20,14  L 21,14  L 21,11  L 20,11  L 20,13  L 19,13  L 19,12  L 18,12  L 18,14  L 17,14  L 17,15  L 16,15  L 16,16  L 15,16  L 15,17  L 14,17  L 14,18  L 13,18  L 13,20  L 10,20  L 10,21  L 8,21  L 8,22  L 11,22  L 11,26  L 10,26  L 10,27  L 11,27  L 11,28  L 12,28  L 12,27  L 13,27  L 13,24  L 14,24  L 14,21  L 15,21  L 15,19  L 16,19  L 16,18  L 18,18  L 18,17  L 19,17  L 19,16  Z  M 11,21  L 12,21  L 12,22  L 11,22  Z  " style="fill:rgb(108, 128, 49); fill-opacity:1.000; stroke:none;" />
 <path d="  M 11,3  L 10,3  L 10,6  L 11,6  L 11,8  L 12,8  L 12,9  L 13,9  L 13,10  L 14,10  L 14,8  L 13,8  L 13,4  L 12,4  L 12,2  L 11,2  Z  " style="fill:rgb(108, 128, 49); fill-opacity:1.000; stroke:none;" />
 <path d="  M 17,20  L 17,21  L 16,21  L 16,22  L 19,22  L 19,21  L 18,21  L 18,20  Z  " style="fill:rgb(108, 128, 49); fill-opacity:1.000; stroke:none;" />
 <path d="  M 18,9  L 19,9  L 19,3  L 20,3  L 20,4  L 21,4  L 21,2  L 20,2  L 20,1  L 19,1  L 19,2  L 18,2  Z  " style="fill:rgb(108, 128, 49); fill-opacity:1.000; stroke:none;" />
 <path d="  M 22,4  L 21,4  L 21,11  L 22,11  Z  " style="fill:rgb(108, 128, 49); fill-opacity:1.000; stroke:none;" />
 <path d="  M 24,24  L 26,24  L 26,23  L 27,23  L 27,22  L 28,22  L 28,21  L 25,21  L 25,22  L 24,22  Z  " style="fill:rgb(108, 128, 49); fill-opacity:1.000; stroke:none;" />
 <path d="  M 13,30  L 12,30  L 12,31  L 11,31  L 11,30  L 10,30  L 10,32  L 14,32  L 14,28  L 13,28  Z  " style="fill:rgb(66, 85, 45); fill-opacity:1.000; stroke:none;" />
 <path d="  M 13,2  L 14,2  L 14,0  L 11,0  L 11,1  L 13,1  Z  " style="fill:rgb(66, 85, 45); fill-opacity:1.000; stroke:none;" />
 <path d="  M 16,13  L 15,13  L 15,12  L 14,12  L 14,11  L 13,11  L 13,10  L 12,10  L 12,12  L 13,12  L 13,13  L 14,13  L 14,14  L 15,14  L 15,15  L 17,15  L 17,13  L 18,13  L 18,12  L 17,12  L 17,11  L 16,11  Z  " style="fill:rgb(66, 85, 45); fill-opacity:1.000; stroke:none;" />
 <path d="  M 14,25  L 14,26  L 15,26  L 15,25  Z  " style="fill:rgb(66, 85, 45); fill-opacity:1.000; stroke:none;" />
 <path d="  M 16,9  L 15,9  L 15,11  L 16,11  Z  " style="fill:rgb(66, 85, 45); fill-opacity:1.000; stroke:none;" />
 <path d="  M 18,32  L 18,31  L 17,31  L 17,32  Z  " style="fill:rgb(66, 85, 45); fill-opacity:1.000; stroke:none;" />
 <path d="  M 21,18  L 21,17  L 20,17  L 20,18  L 19,18  L 19,19  L 18,19  L 18,21  L 19,21  L 19,20  L 20,20  L 20,19  L 22,19  L 22,18  Z  " style="fill:rgb(66, 85, 45); fill-opacity:1.000; stroke:none;" />
 <path d="  M 20,31  L 20,32  L 22,32  L 22,29  L 23,29  L 23,27  L 24,27  L 24,25  L 23,25  L 23,26  L 22,26  L 22,25  L 21,25  L 21,23  L 20,23  L 20,25  L 19,25  L 19,28  L 18,28  L 18,31  Z  " style="fill:rgb(66, 85, 45); fill-opacity:1.000; stroke:none;" />
 <path d="  M 20,23  L 20,21  L 19,21  L 19,23  Z  " style="fill:rgb(66, 85, 45); fill-opacity:1.000; stroke:none;" />
 <path d="  M 24,10  L 24,9  L 22,9  L 22,10  Z  " style="fill:rgb(66, 85, 45); fill-opacity:1.000; stroke:none;" />
 <path d="  M 22,19  L 22,20  L 23,20  L 23,19  Z  " style="fill:rgb(66, 85, 45); fill-opacity:1.000; stroke:none;" />
 <path d="  M 23,22  L 24,22  L 24,20  L 23,20  Z  " style="fill:rgb(66, 85, 45); fill-opacity:1.000; stroke:none;" />
 <path d="  M 25,8  L 24,8  L 24,9  L 25,9  Z  " style="fill:rgb(66, 85, 45); fill-opacity:1.000; stroke:none;" />
 <path d="  M 26,7  L 25,7  L 25,8  L 26,8  Z  " style="fill:rgb(66, 85, 45); fill-opacity:1.000; stroke:none;" />
</svg>
