<?xml version="1.0" encoding="UTF-8" standalone="no"?>
<!DOCTYPE svg PUBLIC "-//W3C//DTD SVG 1.1//EN" 
  "http://www.w3.org/Graphics/SVG/1.1/DTD/svg11.dtd">
<svg width="32" height="32"
	 xmlns="http://www.w3.org/2000/svg" version="1.1">
 <path d="  M 1,1  L 1,0  L 0,0  L 0,1  Z  " style="fill:rgb(98, 61, 32); fill-opacity:1.000; stroke:none;" />
 <path d="  M 1,5  L 1,4  L 0,4  L 0,5  Z  " style="fill:rgb(98, 61, 32); fill-opacity:1.000; stroke:none;" />
 <path d="  M 0,8  L 0,9  L 1,9  L 1,8  Z  " style="fill:rgb(98, 61, 32); fill-opacity:1.000; stroke:none;" />
 <path d="  M 1,13  L 1,12  L 0,12  L 0,13  Z  " style="fill:rgb(98, 61, 32); fill-opacity:1.000; stroke:none;" />
 <path d="  M 0,17  L 1,17  L 1,16  L 0,16  Z  " style="fill:rgb(98, 61, 32); fill-opacity:1.000; stroke:none;" />
 <path d="  M 1,20  L 0,20  L 0,21  L 1,21  Z  " style="fill:rgb(98, 61, 32); fill-opacity:1.000; stroke:none;" />
 <path d="  M 0,25  L 1,25  L 1,24  L 0,24  Z  " style="fill:rgb(98, 61, 32); fill-opacity:1.000; stroke:none;" />
 <path d="  M 0,29  L 1,29  L 1,28  L 0,28  Z  " style="fill:rgb(98, 61, 32); fill-opacity:1.000; stroke:none;" />
 <path d="  M 4,1  L 5,1  L 5,0  L 4,0  Z  " style="fill:rgb(98, 61, 32); fill-opacity:1.000; stroke:none;" />
 <path d="  M 8,0  L 8,1  L 9,1  L 9,0  Z  " style="fill:rgb(98, 61, 32); fill-opacity:1.000; stroke:none;" />
 <path d="  M 13,1  L 13,0  L 12,0  L 12,1  Z  " style="fill:rgb(98, 61, 32); fill-opacity:1.000; stroke:none;" />
 <path d="  M 17,1  L 17,0  L 16,0  L 16,1  Z  " style="fill:rgb(98, 61, 32); fill-opacity:1.000; stroke:none;" />
 <path d="  M 20,1  L 21,1  L 21,0  L 20,0  Z  " style="fill:rgb(98, 61, 32); fill-opacity:1.000; stroke:none;" />
 <path d="  M 24,1  L 25,1  L 25,0  L 24,0  Z  " style="fill:rgb(98, 61, 32); fill-opacity:1.000; stroke:none;" />
 <path d="  M 29,0  L 28,0  L 28,1  L 29,1  Z  " style="fill:rgb(98, 61, 32); fill-opacity:1.000; stroke:none;" />
 <path d="  M 0,1  L 0,2  L 1,2  L 1,1  Z  " style="fill:rgb(110, 68, 38); fill-opacity:1.000; stroke:none;" />
 <path d="  M 1,3  L 0,3  L 0,4  L 1,4  Z  " style="fill:rgb(110, 68, 38); fill-opacity:1.000; stroke:none;" />
 <path d="  M 1,6  L 1,5  L 0,5  L 0,6  Z  " style="fill:rgb(110, 68, 38); fill-opacity:1.000; stroke:none;" />
 <path d="  M 1,7  L 0,7  L 0,8  L 1,8  Z  " style="fill:rgb(110, 68, 38); fill-opacity:1.000; stroke:none;" />
 <path d="  M 0,10  L 1,10  L 1,9  L 0,9  Z  " style="fill:rgb(110, 68, 38); fill-opacity:1.000; stroke:none;" />
 <path d="  M 0,11  L 0,12  L 1,12  L 1,11  Z  " style="fill:rgb(110, 68, 38); fill-opacity:1.000; stroke:none;" />
 <path d="  M 1,14  L 1,13  L 0,13  L 0,14  Z  " style="fill:rgb(110, 68, 38); fill-opacity:1.000; stroke:none;" />
 <path d="  M 1,15  L 0,15  L 0,16  L 1,16  Z  " style="fill:rgb(110, 68, 38); fill-opacity:1.000; stroke:none;" />
 <path d="  M 1,17  L 0,17  L 0,18  L 1,18  Z  " style="fill:rgb(110, 68, 38); fill-opacity:1.000; stroke:none;" />
 <path d="  M 0,20  L 1,20  L 1,19  L 0,19  Z  " style="fill:rgb(110, 68, 38); fill-opacity:1.000; stroke:none;" />
 <path d="  M 1,22  L 1,21  L 0,21  L 0,22  Z  " style="fill:rgb(110, 68, 38); fill-opacity:1.000; stroke:none;" />
 <path d="  M 0,23  L 0,24  L 1,24  L 1,23  Z  " style="fill:rgb(110, 68, 38); fill-opacity:1.000; stroke:none;" />
 <path d="  M 0,26  L 1,26  L 1,25  L 0,25  Z  " style="fill:rgb(110, 68, 38); fill-opacity:1.000; stroke:none;" />
 <path d="  M 0,28  L 1,28  L 1,27  L 0,27  Z  " style="fill:rgb(110, 68, 38); fill-opacity:1.000; stroke:none;" />
 <path d="  M 1,29  L 0,29  L 0,30  L 1,30  Z  " style="fill:rgb(110, 68, 38); fill-opacity:1.000; stroke:none;" />
 <path d="  M 1,1  L 2,1  L 2,0  L 1,0  Z  " style="fill:rgb(110, 68, 38); fill-opacity:1.000; stroke:none;" />
 <path d="  M 1,2  L 1,3  L 2,3  L 2,2  Z  " style="fill:rgb(110, 68, 38); fill-opacity:1.000; stroke:none;" />
 <path d="  M 2,7  L 2,6  L 1,6  L 1,7  Z  " style="fill:rgb(110, 68, 38); fill-opacity:1.000; stroke:none;" />
 <path d="  M 1,11  L 2,11  L 2,10  L 1,10  Z  " style="fill:rgb(110, 68, 38); fill-opacity:1.000; stroke:none;" />
 <path d="  M 2,14  L 1,14  L 1,15  L 2,15  Z  " style="fill:rgb(110, 68, 38); fill-opacity:1.000; stroke:none;" />
 <path d="  M 2,19  L 2,18  L 1,18  L 1,19  Z  " style="fill:rgb(110, 68, 38); fill-opacity:1.000; stroke:none;" />
 <path d="  M 2,23  L 2,22  L 1,22  L 1,23  Z  " style="fill:rgb(110, 68, 38); fill-opacity:1.000; stroke:none;" />
 <path d="  M 1,26  L 1,27  L 2,27  L 2,26  Z  " style="fill:rgb(110, 68, 38); fill-opacity:1.000; stroke:none;" />
 <path d="  M 2,2  L 3,2  L 3,1  L 2,1  Z  " style="fill:rgb(110, 68, 38); fill-opacity:1.000; stroke:none;" />
 <path d="  M 3,0  L 3,1  L 4,1  L 4,0  Z  " style="fill:rgb(110, 68, 38); fill-opacity:1.000; stroke:none;" />
 <path d="  M 5,0  L 5,1  L 6,1  L 6,0  Z  " style="fill:rgb(110, 68, 38); fill-opacity:1.000; stroke:none;" />
 <path d="  M 6,1  L 6,2  L 7,2  L 7,1  Z  " style="fill:rgb(110, 68, 38); fill-opacity:1.000; stroke:none;" />
 <path d="  M 8,1  L 8,0  L 7,0  L 7,1  Z  " style="fill:rgb(110, 68, 38); fill-opacity:1.000; stroke:none;" />
 <path d="  M 10,1  L 10,0  L 9,0  L 9,1  Z  " style="fill:rgb(110, 68, 38); fill-opacity:1.000; stroke:none;" />
 <path d="  M 10,1  L 10,2  L 11,2  L 11,1  Z  " style="fill:rgb(110, 68, 38); fill-opacity:1.000; stroke:none;" />
 <path d="  M 12,1  L 12,0  L 11,0  L 11,1  Z  " style="fill:rgb(110, 68, 38); fill-opacity:1.000; stroke:none;" />
 <path d="  M 13,0  L 13,1  L 14,1  L 14,0  Z  " style="fill:rgb(110, 68, 38); fill-opacity:1.000; stroke:none;" />
 <path d="  M 14,1  L 14,2  L 15,2  L 15,1  Z  " style="fill:rgb(110, 68, 38); fill-opacity:1.000; stroke:none;" />
 <path d="  M 16,1  L 16,0  L 15,0  L 15,1  Z  " style="fill:rgb(110, 68, 38); fill-opacity:1.000; stroke:none;" />
 <path d="  M 17,0  L 17,1  L 18,1  L 18,0  Z  " style="fill:rgb(110, 68, 38); fill-opacity:1.000; stroke:none;" />
 <path d="  M 18,2  L 19,2  L 19,1  L 18,1  Z  " style="fill:rgb(110, 68, 38); fill-opacity:1.000; stroke:none;" />
 <path d="  M 20,0  L 19,0  L 19,1  L 20,1  Z  " style="fill:rgb(110, 68, 38); fill-opacity:1.000; stroke:none;" />
 <path d="  M 21,1  L 22,1  L 22,0  L 21,0  Z  " style="fill:rgb(110, 68, 38); fill-opacity:1.000; stroke:none;" />
 <path d="  M 22,2  L 23,2  L 23,1  L 22,1  Z  " style="fill:rgb(110, 68, 38); fill-opacity:1.000; stroke:none;" />
 <path d="  M 23,1  L 24,1  L 24,0  L 23,0  Z  " style="fill:rgb(110, 68, 38); fill-opacity:1.000; stroke:none;" />
 <path d="  M 26,1  L 26,0  L 25,0  L 25,1  Z  " style="fill:rgb(110, 68, 38); fill-opacity:1.000; stroke:none;" />
 <path d="  M 27,1  L 26,1  L 26,2  L 27,2  Z  " style="fill:rgb(110, 68, 38); fill-opacity:1.000; stroke:none;" />
 <path d="  M 28,0  L 27,0  L 27,1  L 28,1  Z  " style="fill:rgb(110, 68, 38); fill-opacity:1.000; stroke:none;" />
 <path d="  M 29,0  L 29,1  L 30,1  L 30,0  Z  " style="fill:rgb(110, 68, 38); fill-opacity:1.000; stroke:none;" />
 <path d="  M 31,2  L 31,1  L 30,1  L 30,2  Z  " style="fill:rgb(110, 68, 38); fill-opacity:1.000; stroke:none;" />
 <path d="  M 31,1  L 32,1  L 32,0  L 31,0  Z  " style="fill:rgb(110, 68, 38); fill-opacity:1.000; stroke:none;" />
 <path d="  M 1,2  L 0,2  L 0,3  L 1,3  Z  " style="fill:rgb(119, 75, 43); fill-opacity:1.000; stroke:none;" />
 <path d="  M 0,6  L 0,7  L 1,7  L 1,6  Z  " style="fill:rgb(119, 75, 43); fill-opacity:1.000; stroke:none;" />
 <path d="  M 0,11  L 1,11  L 1,10  L 0,10  Z  " style="fill:rgb(119, 75, 43); fill-opacity:1.000; stroke:none;" />
 <path d="  M 1,15  L 1,14  L 0,14  L 0,15  Z  " style="fill:rgb(119, 75, 43); fill-opacity:1.000; stroke:none;" />
 <path d="  M 0,18  L 0,19  L 1,19  L 1,18  Z  " style="fill:rgb(119, 75, 43); fill-opacity:1.000; stroke:none;" />
 <path d="  M 1,22  L 0,22  L 0,23  L 1,23  Z  " style="fill:rgb(119, 75, 43); fill-opacity:1.000; stroke:none;" />
 <path d="  M 0,27  L 1,27  L 1,26  L 0,26  Z  " style="fill:rgb(119, 75, 43); fill-opacity:1.000; stroke:none;" />
 <path d="  M 3,0  L 2,0  L 2,1  L 3,1  Z  " style="fill:rgb(119, 75, 43); fill-opacity:1.000; stroke:none;" />
 <path d="  M 6,1  L 7,1  L 7,0  L 6,0  Z  " style="fill:rgb(119, 75, 43); fill-opacity:1.000; stroke:none;" />
 <path d="  M 11,0  L 10,0  L 10,1  L 11,1  Z  " style="fill:rgb(119, 75, 43); fill-opacity:1.000; stroke:none;" />
 <path d="  M 15,0  L 14,0  L 14,1  L 15,1  Z  " style="fill:rgb(119, 75, 43); fill-opacity:1.000; stroke:none;" />
 <path d="  M 19,1  L 19,0  L 18,0  L 18,1  Z  " style="fill:rgb(119, 75, 43); fill-opacity:1.000; stroke:none;" />
 <path d="  M 22,0  L 22,1  L 23,1  L 23,0  Z  " style="fill:rgb(119, 75, 43); fill-opacity:1.000; stroke:none;" />
 <path d="  M 26,1  L 27,1  L 27,0  L 26,0  Z  " style="fill:rgb(119, 75, 43); fill-opacity:1.000; stroke:none;" />
 <path d="  M 31,1  L 31,0  L 30,0  L 30,1  Z  " style="fill:rgb(119, 75, 43); fill-opacity:1.000; stroke:none;" />
 <path d="  M 1,31  L 1,30  L 0,30  L 0,31  Z  " style="fill:rgb(93, 57, 30); fill-opacity:1.000; stroke:none;" />
 <path d="  M 2,2  L 2,1  L 1,1  L 1,2  Z  " style="fill:rgb(93, 57, 30); fill-opacity:1.000; stroke:none;" />
 <path d="  M 2,4  L 2,3  L 1,3  L 1,4  Z  " style="fill:rgb(93, 57, 30); fill-opacity:1.000; stroke:none;" />
 <path d="  M 1,6  L 2,6  L 2,5  L 1,5  Z  " style="fill:rgb(93, 57, 30); fill-opacity:1.000; stroke:none;" />
 <path d="  M 2,7  L 1,7  L 1,8  L 2,8  Z  " style="fill:rgb(93, 57, 30); fill-opacity:1.000; stroke:none;" />
 <path d="  M 1,10  L 2,10  L 2,9  L 1,9  Z  " style="fill:rgb(93, 57, 30); fill-opacity:1.000; stroke:none;" />
 <path d="  M 1,11  L 1,12  L 2,12  L 2,11  Z  " style="fill:rgb(93, 57, 30); fill-opacity:1.000; stroke:none;" />
 <path d="  M 1,13  L 1,14  L 2,14  L 2,13  Z  " style="fill:rgb(93, 57, 30); fill-opacity:1.000; stroke:none;" />
 <path d="  M 1,16  L 2,16  L 2,15  L 1,15  Z  " style="fill:rgb(93, 57, 30); fill-opacity:1.000; stroke:none;" />
 <path d="  M 2,17  L 1,17  L 1,18  L 2,18  Z  " style="fill:rgb(93, 57, 30); fill-opacity:1.000; stroke:none;" />
 <path d="  M 2,19  L 1,19  L 1,20  L 2,20  Z  " style="fill:rgb(93, 57, 30); fill-opacity:1.000; stroke:none;" />
 <path d="  M 1,21  L 1,22  L 2,22  L 2,21  Z  " style="fill:rgb(93, 57, 30); fill-opacity:1.000; stroke:none;" />
 <path d="  M 2,24  L 2,23  L 1,23  L 1,24  Z  " style="fill:rgb(93, 57, 30); fill-opacity:1.000; stroke:none;" />
 <path d="  M 2,25  L 1,25  L 1,26  L 2,26  Z  " style="fill:rgb(93, 57, 30); fill-opacity:1.000; stroke:none;" />
 <path d="  M 1,28  L 2,28  L 2,27  L 1,27  Z  " style="fill:rgb(93, 57, 30); fill-opacity:1.000; stroke:none;" />
 <path d="  M 1,30  L 2,30  L 2,29  L 1,29  Z  " style="fill:rgb(93, 57, 30); fill-opacity:1.000; stroke:none;" />
 <path d="  M 3,3  L 3,2  L 2,2  L 2,3  Z  " style="fill:rgb(93, 57, 30); fill-opacity:1.000; stroke:none;" />
 <path d="  M 2,6  L 2,7  L 3,7  L 3,6  Z  " style="fill:rgb(93, 57, 30); fill-opacity:1.000; stroke:none;" />
 <path d="  M 3,10  L 2,10  L 2,11  L 3,11  Z  " style="fill:rgb(93, 57, 30); fill-opacity:1.000; stroke:none;" />
 <path d="  M 3,14  L 2,14  L 2,15  L 3,15  Z  " style="fill:rgb(93, 57, 30); fill-opacity:1.000; stroke:none;" />
 <path d="  M 3,19  L 3,18  L 2,18  L 2,19  Z  " style="fill:rgb(93, 57, 30); fill-opacity:1.000; stroke:none;" />
 <path d="  M 2,23  L 3,23  L 3,22  L 2,22  Z  " style="fill:rgb(93, 57, 30); fill-opacity:1.000; stroke:none;" />
 <path d="  M 2,26  L 2,27  L 3,27  L 3,26  Z  " style="fill:rgb(93, 57, 30); fill-opacity:1.000; stroke:none;" />
 <path d="  M 2,30  L 2,31  L 3,31  L 3,30  Z  " style="fill:rgb(93, 57, 30); fill-opacity:1.000; stroke:none;" />
 <path d="  M 4,2  L 4,1  L 3,1  L 3,2  Z  " style="fill:rgb(93, 57, 30); fill-opacity:1.000; stroke:none;" />
 <path d="  M 4,31  L 5,31  L 5,30  L 4,30  Z  " style="fill:rgb(93, 57, 30); fill-opacity:1.000; stroke:none;" />
 <path d="  M 6,2  L 6,1  L 5,1  L 5,2  Z  " style="fill:rgb(93, 57, 30); fill-opacity:1.000; stroke:none;" />
 <path d="  M 5,29  L 5,30  L 6,30  L 6,29  Z  " style="fill:rgb(93, 57, 30); fill-opacity:1.000; stroke:none;" />
 <path d="  M 7,2  L 6,2  L 6,3  L 7,3  Z  " style="fill:rgb(93, 57, 30); fill-opacity:1.000; stroke:none;" />
 <path d="  M 7,31  L 7,30  L 6,30  L 6,31  Z  " style="fill:rgb(93, 57, 30); fill-opacity:1.000; stroke:none;" />
 <path d="  M 7,1  L 7,2  L 8,2  L 8,1  Z  " style="fill:rgb(93, 57, 30); fill-opacity:1.000; stroke:none;" />
 <path d="  M 9,30  L 8,30  L 8,31  L 9,31  Z  " style="fill:rgb(93, 57, 30); fill-opacity:1.000; stroke:none;" />
 <path d="  M 9,2  L 10,2  L 10,1  L 9,1  Z  " style="fill:rgb(93, 57, 30); fill-opacity:1.000; stroke:none;" />
 <path d="  M 10,30  L 10,29  L 9,29  L 9,30  Z  " style="fill:rgb(93, 57, 30); fill-opacity:1.000; stroke:none;" />
 <path d="  M 11,2  L 10,2  L 10,3  L 11,3  Z  " style="fill:rgb(93, 57, 30); fill-opacity:1.000; stroke:none;" />
 <path d="  M 10,31  L 11,31  L 11,30  L 10,30  Z  " style="fill:rgb(93, 57, 30); fill-opacity:1.000; stroke:none;" />
 <path d="  M 12,1  L 11,1  L 11,2  L 12,2  Z  " style="fill:rgb(93, 57, 30); fill-opacity:1.000; stroke:none;" />
 <path d="  M 12,31  L 13,31  L 13,30  L 12,30  Z  " style="fill:rgb(93, 57, 30); fill-opacity:1.000; stroke:none;" />
 <path d="  M 13,2  L 14,2  L 14,1  L 13,1  Z  " style="fill:rgb(93, 57, 30); fill-opacity:1.000; stroke:none;" />
 <path d="  M 13,29  L 13,30  L 14,30  L 14,29  Z  " style="fill:rgb(93, 57, 30); fill-opacity:1.000; stroke:none;" />
 <path d="  M 15,2  L 14,2  L 14,3  L 15,3  Z  " style="fill:rgb(93, 57, 30); fill-opacity:1.000; stroke:none;" />
 <path d="  M 14,30  L 14,31  L 15,31  L 15,30  Z  " style="fill:rgb(93, 57, 30); fill-opacity:1.000; stroke:none;" />
 <path d="  M 16,2  L 16,1  L 15,1  L 15,2  Z  " style="fill:rgb(93, 57, 30); fill-opacity:1.000; stroke:none;" />
 <path d="  M 17,31  L 17,30  L 16,30  L 16,31  Z  " style="fill:rgb(93, 57, 30); fill-opacity:1.000; stroke:none;" />
 <path d="  M 18,2  L 18,1  L 17,1  L 17,2  Z  " style="fill:rgb(93, 57, 30); fill-opacity:1.000; stroke:none;" />
 <path d="  M 18,29  L 17,29  L 17,30  L 18,30  Z  " style="fill:rgb(93, 57, 30); fill-opacity:1.000; stroke:none;" />
 <path d="  M 18,2  L 18,3  L 19,3  L 19,2  Z  " style="fill:rgb(93, 57, 30); fill-opacity:1.000; stroke:none;" />
 <path d="  M 19,31  L 19,30  L 18,30  L 18,31  Z  " style="fill:rgb(93, 57, 30); fill-opacity:1.000; stroke:none;" />
 <path d="  M 19,1  L 19,2  L 20,2  L 20,1  Z  " style="fill:rgb(93, 57, 30); fill-opacity:1.000; stroke:none;" />
 <path d="  M 21,30  L 20,30  L 20,31  L 21,31  Z  " style="fill:rgb(93, 57, 30); fill-opacity:1.000; stroke:none;" />
 <path d="  M 22,2  L 22,1  L 21,1  L 21,2  Z  " style="fill:rgb(93, 57, 30); fill-opacity:1.000; stroke:none;" />
 <path d="  M 22,30  L 22,29  L 21,29  L 21,30  Z  " style="fill:rgb(93, 57, 30); fill-opacity:1.000; stroke:none;" />
 <path d="  M 23,2  L 22,2  L 22,3  L 23,3  Z  " style="fill:rgb(93, 57, 30); fill-opacity:1.000; stroke:none;" />
 <path d="  M 23,30  L 22,30  L 22,31  L 23,31  Z  " style="fill:rgb(93, 57, 30); fill-opacity:1.000; stroke:none;" />
 <path d="  M 24,1  L 23,1  L 23,2  L 24,2  Z  " style="fill:rgb(93, 57, 30); fill-opacity:1.000; stroke:none;" />
 <path d="  M 25,31  L 25,30  L 24,30  L 24,31  Z  " style="fill:rgb(93, 57, 30); fill-opacity:1.000; stroke:none;" />
 <path d="  M 25,1  L 25,2  L 26,2  L 26,1  Z  " style="fill:rgb(93, 57, 30); fill-opacity:1.000; stroke:none;" />
 <path d="  M 26,29  L 25,29  L 25,30  L 26,30  Z  " style="fill:rgb(93, 57, 30); fill-opacity:1.000; stroke:none;" />
 <path d="  M 27,3  L 27,2  L 26,2  L 26,3  Z  " style="fill:rgb(93, 57, 30); fill-opacity:1.000; stroke:none;" />
 <path d="  M 26,31  L 27,31  L 27,30  L 26,30  Z  " style="fill:rgb(93, 57, 30); fill-opacity:1.000; stroke:none;" />
 <path d="  M 27,2  L 28,2  L 28,1  L 27,1  Z  " style="fill:rgb(93, 57, 30); fill-opacity:1.000; stroke:none;" />
 <path d="  M 29,31  L 29,30  L 28,30  L 28,31  Z  " style="fill:rgb(93, 57, 30); fill-opacity:1.000; stroke:none;" />
 <path d="  M 29,1  L 29,2  L 30,2  L 30,1  Z  " style="fill:rgb(93, 57, 30); fill-opacity:1.000; stroke:none;" />
 <path d="  M 29,5  L 29,6  L 30,6  L 30,5  Z  " style="fill:rgb(93, 57, 30); fill-opacity:1.000; stroke:none;" />
 <path d="  M 30,10  L 30,9  L 29,9  L 29,10  Z  " style="fill:rgb(93, 57, 30); fill-opacity:1.000; stroke:none;" />
 <path d="  M 29,13  L 29,14  L 30,14  L 30,13  Z  " style="fill:rgb(93, 57, 30); fill-opacity:1.000; stroke:none;" />
 <path d="  M 29,18  L 30,18  L 30,17  L 29,17  Z  " style="fill:rgb(93, 57, 30); fill-opacity:1.000; stroke:none;" />
 <path d="  M 29,21  L 29,22  L 30,22  L 30,21  Z  " style="fill:rgb(93, 57, 30); fill-opacity:1.000; stroke:none;" />
 <path d="  M 29,25  L 29,26  L 30,26  L 30,25  Z  " style="fill:rgb(93, 57, 30); fill-opacity:1.000; stroke:none;" />
 <path d="  M 29,30  L 30,30  L 30,29  L 29,29  Z  " style="fill:rgb(93, 57, 30); fill-opacity:1.000; stroke:none;" />
 <path d="  M 31,3  L 31,2  L 30,2  L 30,3  Z  " style="fill:rgb(93, 57, 30); fill-opacity:1.000; stroke:none;" />
 <path d="  M 30,4  L 30,5  L 31,5  L 31,4  Z  " style="fill:rgb(93, 57, 30); fill-opacity:1.000; stroke:none;" />
 <path d="  M 30,6  L 30,7  L 31,7  L 31,6  Z  " style="fill:rgb(93, 57, 30); fill-opacity:1.000; stroke:none;" />
 <path d="  M 31,8  L 30,8  L 30,9  L 31,9  Z  " style="fill:rgb(93, 57, 30); fill-opacity:1.000; stroke:none;" />
 <path d="  M 30,10  L 30,11  L 31,11  L 31,10  Z  " style="fill:rgb(93, 57, 30); fill-opacity:1.000; stroke:none;" />
 <path d="  M 31,13  L 31,12  L 30,12  L 30,13  Z  " style="fill:rgb(93, 57, 30); fill-opacity:1.000; stroke:none;" />
 <path d="  M 30,14  L 30,15  L 31,15  L 31,14  Z  " style="fill:rgb(93, 57, 30); fill-opacity:1.000; stroke:none;" />
 <path d="  M 31,16  L 30,16  L 30,17  L 31,17  Z  " style="fill:rgb(93, 57, 30); fill-opacity:1.000; stroke:none;" />
 <path d="  M 31,19  L 31,18  L 30,18  L 30,19  Z  " style="fill:rgb(93, 57, 30); fill-opacity:1.000; stroke:none;" />
 <path d="  M 30,21  L 31,21  L 31,20  L 30,20  Z  " style="fill:rgb(93, 57, 30); fill-opacity:1.000; stroke:none;" />
 <path d="  M 31,23  L 31,22  L 30,22  L 30,23  Z  " style="fill:rgb(93, 57, 30); fill-opacity:1.000; stroke:none;" />
 <path d="  M 31,24  L 30,24  L 30,25  L 31,25  Z  " style="fill:rgb(93, 57, 30); fill-opacity:1.000; stroke:none;" />
 <path d="  M 31,27  L 31,26  L 30,26  L 30,27  Z  " style="fill:rgb(93, 57, 30); fill-opacity:1.000; stroke:none;" />
 <path d="  M 30,28  L 30,29  L 31,29  L 31,28  Z  " style="fill:rgb(93, 57, 30); fill-opacity:1.000; stroke:none;" />
 <path d="  M 31,31  L 31,30  L 30,30  L 30,31  Z  " style="fill:rgb(93, 57, 30); fill-opacity:1.000; stroke:none;" />
 <path d="  M 32,1  L 31,1  L 31,2  L 32,2  Z  " style="fill:rgb(93, 57, 30); fill-opacity:1.000; stroke:none;" />
 <path d="  M 0,32  L 1,32  L 1,31  L 0,31  Z  " style="fill:rgb(98, 60, 32); fill-opacity:1.000; stroke:none;" />
 <path d="  M 2,31  L 2,30  L 1,30  L 1,31  Z  " style="fill:rgb(98, 60, 32); fill-opacity:1.000; stroke:none;" />
 <path d="  M 2,32  L 3,32  L 3,31  L 2,31  Z  " style="fill:rgb(98, 60, 32); fill-opacity:1.000; stroke:none;" />
 <path d="  M 5,32  L 5,31  L 4,31  L 4,32  Z  " style="fill:rgb(98, 60, 32); fill-opacity:1.000; stroke:none;" />
 <path d="  M 6,30  L 5,30  L 5,31  L 6,31  Z  " style="fill:rgb(98, 60, 32); fill-opacity:1.000; stroke:none;" />
 <path d="  M 6,31  L 6,32  L 7,32  L 7,31  Z  " style="fill:rgb(98, 60, 32); fill-opacity:1.000; stroke:none;" />
 <path d="  M 8,32  L 9,32  L 9,31  L 8,31  Z  " style="fill:rgb(98, 60, 32); fill-opacity:1.000; stroke:none;" />
 <path d="  M 10,30  L 9,30  L 9,31  L 10,31  Z  " style="fill:rgb(98, 60, 32); fill-opacity:1.000; stroke:none;" />
 <path d="  M 10,31  L 10,32  L 11,32  L 11,31  Z  " style="fill:rgb(98, 60, 32); fill-opacity:1.000; stroke:none;" />
 <path d="  M 12,32  L 13,32  L 13,31  L 12,31  Z  " style="fill:rgb(98, 60, 32); fill-opacity:1.000; stroke:none;" />
 <path d="  M 14,31  L 14,30  L 13,30  L 13,31  Z  " style="fill:rgb(98, 60, 32); fill-opacity:1.000; stroke:none;" />
 <path d="  M 15,32  L 15,31  L 14,31  L 14,32  Z  " style="fill:rgb(98, 60, 32); fill-opacity:1.000; stroke:none;" />
 <path d="  M 16,32  L 17,32  L 17,31  L 16,31  Z  " style="fill:rgb(98, 60, 32); fill-opacity:1.000; stroke:none;" />
 <path d="  M 17,31  L 18,31  L 18,30  L 17,30  Z  " style="fill:rgb(98, 60, 32); fill-opacity:1.000; stroke:none;" />
 <path d="  M 19,32  L 19,31  L 18,31  L 18,32  Z  " style="fill:rgb(98, 60, 32); fill-opacity:1.000; stroke:none;" />
 <path d="  M 21,32  L 21,31  L 20,31  L 20,32  Z  " style="fill:rgb(98, 60, 32); fill-opacity:1.000; stroke:none;" />
 <path d="  M 21,31  L 22,31  L 22,30  L 21,30  Z  " style="fill:rgb(98, 60, 32); fill-opacity:1.000; stroke:none;" />
 <path d="  M 23,32  L 23,31  L 22,31  L 22,32  Z  " style="fill:rgb(98, 60, 32); fill-opacity:1.000; stroke:none;" />
 <path d="  M 24,31  L 24,32  L 25,32  L 25,31  Z  " style="fill:rgb(98, 60, 32); fill-opacity:1.000; stroke:none;" />
 <path d="  M 26,30  L 25,30  L 25,31  L 26,31  Z  " style="fill:rgb(98, 60, 32); fill-opacity:1.000; stroke:none;" />
 <path d="  M 27,31  L 26,31  L 26,32  L 27,32  Z  " style="fill:rgb(98, 60, 32); fill-opacity:1.000; stroke:none;" />
 <path d="  M 28,31  L 28,32  L 29,32  L 29,31  Z  " style="fill:rgb(98, 60, 32); fill-opacity:1.000; stroke:none;" />
 <path d="  M 29,31  L 30,31  L 30,30  L 29,30  Z  " style="fill:rgb(98, 60, 32); fill-opacity:1.000; stroke:none;" />
 <path d="  M 31,6  L 31,5  L 30,5  L 30,6  Z  " style="fill:rgb(98, 60, 32); fill-opacity:1.000; stroke:none;" />
 <path d="  M 31,9  L 30,9  L 30,10  L 31,10  Z  " style="fill:rgb(98, 60, 32); fill-opacity:1.000; stroke:none;" />
 <path d="  M 31,14  L 31,13  L 30,13  L 30,14  Z  " style="fill:rgb(98, 60, 32); fill-opacity:1.000; stroke:none;" />
 <path d="  M 30,17  L 30,18  L 31,18  L 31,17  Z  " style="fill:rgb(98, 60, 32); fill-opacity:1.000; stroke:none;" />
 <path d="  M 30,22  L 31,22  L 31,21  L 30,21  Z  " style="fill:rgb(98, 60, 32); fill-opacity:1.000; stroke:none;" />
 <path d="  M 31,26  L 31,25  L 30,25  L 30,26  Z  " style="fill:rgb(98, 60, 32); fill-opacity:1.000; stroke:none;" />
 <path d="  M 30,29  L 30,30  L 31,30  L 31,29  Z  " style="fill:rgb(98, 60, 32); fill-opacity:1.000; stroke:none;" />
 <path d="  M 30,31  L 30,32  L 31,32  L 31,31  Z  " style="fill:rgb(98, 60, 32); fill-opacity:1.000; stroke:none;" />
 <path d="  M 32,3  L 32,2  L 31,2  L 31,3  Z  " style="fill:rgb(98, 60, 32); fill-opacity:1.000; stroke:none;" />
 <path d="  M 32,5  L 32,4  L 31,4  L 31,5  Z  " style="fill:rgb(98, 60, 32); fill-opacity:1.000; stroke:none;" />
 <path d="  M 32,7  L 32,6  L 31,6  L 31,7  Z  " style="fill:rgb(98, 60, 32); fill-opacity:1.000; stroke:none;" />
 <path d="  M 31,8  L 31,9  L 32,9  L 32,8  Z  " style="fill:rgb(98, 60, 32); fill-opacity:1.000; stroke:none;" />
 <path d="  M 31,11  L 32,11  L 32,10  L 31,10  Z  " style="fill:rgb(98, 60, 32); fill-opacity:1.000; stroke:none;" />
 <path d="  M 31,13  L 32,13  L 32,12  L 31,12  Z  " style="fill:rgb(98, 60, 32); fill-opacity:1.000; stroke:none;" />
 <path d="  M 32,15  L 32,14  L 31,14  L 31,15  Z  " style="fill:rgb(98, 60, 32); fill-opacity:1.000; stroke:none;" />
 <path d="  M 31,17  L 32,17  L 32,16  L 31,16  Z  " style="fill:rgb(98, 60, 32); fill-opacity:1.000; stroke:none;" />
 <path d="  M 31,19  L 32,19  L 32,18  L 31,18  Z  " style="fill:rgb(98, 60, 32); fill-opacity:1.000; stroke:none;" />
 <path d="  M 31,21  L 32,21  L 32,20  L 31,20  Z  " style="fill:rgb(98, 60, 32); fill-opacity:1.000; stroke:none;" />
 <path d="  M 31,23  L 32,23  L 32,22  L 31,22  Z  " style="fill:rgb(98, 60, 32); fill-opacity:1.000; stroke:none;" />
 <path d="  M 32,24  L 31,24  L 31,25  L 32,25  Z  " style="fill:rgb(98, 60, 32); fill-opacity:1.000; stroke:none;" />
 <path d="  M 31,27  L 32,27  L 32,26  L 31,26  Z  " style="fill:rgb(98, 60, 32); fill-opacity:1.000; stroke:none;" />
 <path d="  M 31,29  L 32,29  L 32,28  L 31,28  Z  " style="fill:rgb(98, 60, 32); fill-opacity:1.000; stroke:none;" />
 <path d="  M 31,30  L 31,31  L 32,31  L 32,30  Z  " style="fill:rgb(98, 60, 32); fill-opacity:1.000; stroke:none;" />
 <path d="  M 1,4  L 1,5  L 2,5  L 2,4  Z  " style="fill:rgb(103, 64, 34); fill-opacity:1.000; stroke:none;" />
 <path d="  M 2,9  L 2,8  L 1,8  L 1,9  Z  " style="fill:rgb(103, 64, 34); fill-opacity:1.000; stroke:none;" />
 <path d="  M 1,13  L 2,13  L 2,12  L 1,12  Z  " style="fill:rgb(103, 64, 34); fill-opacity:1.000; stroke:none;" />
 <path d="  M 1,16  L 1,17  L 2,17  L 2,16  Z  " style="fill:rgb(103, 64, 34); fill-opacity:1.000; stroke:none;" />
 <path d="  M 2,21  L 2,20  L 1,20  L 1,21  Z  " style="fill:rgb(103, 64, 34); fill-opacity:1.000; stroke:none;" />
 <path d="  M 2,24  L 1,24  L 1,25  L 2,25  Z  " style="fill:rgb(103, 64, 34); fill-opacity:1.000; stroke:none;" />
 <path d="  M 1,28  L 1,29  L 2,29  L 2,28  Z  " style="fill:rgb(103, 64, 34); fill-opacity:1.000; stroke:none;" />
 <path d="  M 2,3  L 2,4  L 3,4  L 3,3  Z  " style="fill:rgb(103, 64, 34); fill-opacity:1.000; stroke:none;" />
 <path d="  M 3,6  L 3,5  L 2,5  L 2,6  Z  " style="fill:rgb(103, 64, 34); fill-opacity:1.000; stroke:none;" />
 <path d="  M 3,7  L 2,7  L 2,8  L 3,8  Z  " style="fill:rgb(103, 64, 34); fill-opacity:1.000; stroke:none;" />
 <path d="  M 3,10  L 3,9  L 2,9  L 2,10  Z  " style="fill:rgb(103, 64, 34); fill-opacity:1.000; stroke:none;" />
 <path d="  M 2,12  L 3,12  L 3,11  L 2,11  Z  " style="fill:rgb(103, 64, 34); fill-opacity:1.000; stroke:none;" />
 <path d="  M 2,14  L 3,14  L 3,13  L 2,13  Z  " style="fill:rgb(103, 64, 34); fill-opacity:1.000; stroke:none;" />
 <path d="  M 3,15  L 2,15  L 2,16  L 3,16  Z  " style="fill:rgb(103, 64, 34); fill-opacity:1.000; stroke:none;" />
 <path d="  M 3,17  L 2,17  L 2,18  L 3,18  Z  " style="fill:rgb(103, 64, 34); fill-opacity:1.000; stroke:none;" />
 <path d="  M 2,20  L 3,20  L 3,19  L 2,19  Z  " style="fill:rgb(103, 64, 34); fill-opacity:1.000; stroke:none;" />
 <path d="  M 3,21  L 2,21  L 2,22  L 3,22  Z  " style="fill:rgb(103, 64, 34); fill-opacity:1.000; stroke:none;" />
 <path d="  M 2,23  L 2,24  L 3,24  L 3,23  Z  " style="fill:rgb(103, 64, 34); fill-opacity:1.000; stroke:none;" />
 <path d="  M 3,25  L 2,25  L 2,26  L 3,26  Z  " style="fill:rgb(103, 64, 34); fill-opacity:1.000; stroke:none;" />
 <path d="  M 3,28  L 3,27  L 2,27  L 2,28  Z  " style="fill:rgb(103, 64, 34); fill-opacity:1.000; stroke:none;" />
 <path d="  M 3,29  L 2,29  L 2,30  L 3,30  Z  " style="fill:rgb(103, 64, 34); fill-opacity:1.000; stroke:none;" />
 <path d="  M 3,2  L 3,3  L 4,3  L 4,2  Z  " style="fill:rgb(103, 64, 34); fill-opacity:1.000; stroke:none;" />
 <path d="  M 3,7  L 4,7  L 4,6  L 3,6  Z  " style="fill:rgb(103, 64, 34); fill-opacity:1.000; stroke:none;" />
 <path d="  M 3,10  L 3,11  L 4,11  L 4,10  Z  " style="fill:rgb(103, 64, 34); fill-opacity:1.000; stroke:none;" />
 <path d="  M 3,15  L 4,15  L 4,14  L 3,14  Z  " style="fill:rgb(103, 64, 34); fill-opacity:1.000; stroke:none;" />
 <path d="  M 3,19  L 4,19  L 4,18  L 3,18  Z  " style="fill:rgb(103, 64, 34); fill-opacity:1.000; stroke:none;" />
 <path d="  M 4,22  L 3,22  L 3,23  L 4,23  Z  " style="fill:rgb(103, 64, 34); fill-opacity:1.000; stroke:none;" />
 <path d="  M 3,27  L 4,27  L 4,26  L 3,26  Z  " style="fill:rgb(103, 64, 34); fill-opacity:1.000; stroke:none;" />
 <path d="  M 4,30  L 3,30  L 3,31  L 4,31  Z  " style="fill:rgb(103, 64, 34); fill-opacity:1.000; stroke:none;" />
 <path d="  M 4,2  L 5,2  L 5,1  L 4,1  Z  " style="fill:rgb(103, 64, 34); fill-opacity:1.000; stroke:none;" />
 <path d="  M 4,29  L 4,30  L 5,30  L 5,29  Z  " style="fill:rgb(103, 64, 34); fill-opacity:1.000; stroke:none;" />
 <path d="  M 5,3  L 6,3  L 6,2  L 5,2  Z  " style="fill:rgb(103, 64, 34); fill-opacity:1.000; stroke:none;" />
 <path d="  M 6,29  L 6,28  L 5,28  L 5,29  Z  " style="fill:rgb(103, 64, 34); fill-opacity:1.000; stroke:none;" />
 <path d="  M 6,4  L 7,4  L 7,3  L 6,3  Z  " style="fill:rgb(103, 64, 34); fill-opacity:1.000; stroke:none;" />
 <path d="  M 6,30  L 7,30  L 7,29  L 6,29  Z  " style="fill:rgb(103, 64, 34); fill-opacity:1.000; stroke:none;" />
 <path d="  M 7,3  L 8,3  L 8,2  L 7,2  Z  " style="fill:rgb(103, 64, 34); fill-opacity:1.000; stroke:none;" />
 <path d="  M 7,30  L 7,31  L 8,31  L 8,30  Z  " style="fill:rgb(103, 64, 34); fill-opacity:1.000; stroke:none;" />
 <path d="  M 9,2  L 9,1  L 8,1  L 8,2  Z  " style="fill:rgb(103, 64, 34); fill-opacity:1.000; stroke:none;" />
 <path d="  M 9,29  L 8,29  L 8,30  L 9,30  Z  " style="fill:rgb(103, 64, 34); fill-opacity:1.000; stroke:none;" />
 <path d="  M 10,3  L 10,2  L 9,2  L 9,3  Z  " style="fill:rgb(103, 64, 34); fill-opacity:1.000; stroke:none;" />
 <path d="  M 9,29  L 10,29  L 10,28  L 9,28  Z  " style="fill:rgb(103, 64, 34); fill-opacity:1.000; stroke:none;" />
 <path d="  M 11,3  L 10,3  L 10,4  L 11,4  Z  " style="fill:rgb(103, 64, 34); fill-opacity:1.000; stroke:none;" />
 <path d="  M 11,29  L 10,29  L 10,30  L 11,30  Z  " style="fill:rgb(103, 64, 34); fill-opacity:1.000; stroke:none;" />
 <path d="  M 11,2  L 11,3  L 12,3  L 12,2  Z  " style="fill:rgb(103, 64, 34); fill-opacity:1.000; stroke:none;" />
 <path d="  M 12,31  L 12,30  L 11,30  L 11,31  Z  " style="fill:rgb(103, 64, 34); fill-opacity:1.000; stroke:none;" />
 <path d="  M 12,1  L 12,2  L 13,2  L 13,1  Z  " style="fill:rgb(103, 64, 34); fill-opacity:1.000; stroke:none;" />
 <path d="  M 13,29  L 12,29  L 12,30  L 13,30  Z  " style="fill:rgb(103, 64, 34); fill-opacity:1.000; stroke:none;" />
 <path d="  M 13,2  L 13,3  L 14,3  L 14,2  Z  " style="fill:rgb(103, 64, 34); fill-opacity:1.000; stroke:none;" />
 <path d="  M 13,29  L 14,29  L 14,28  L 13,28  Z  " style="fill:rgb(103, 64, 34); fill-opacity:1.000; stroke:none;" />
 <path d="  M 14,4  L 15,4  L 15,3  L 14,3  Z  " style="fill:rgb(103, 64, 34); fill-opacity:1.000; stroke:none;" />
 <path d="  M 15,29  L 14,29  L 14,30  L 15,30  Z  " style="fill:rgb(103, 64, 34); fill-opacity:1.000; stroke:none;" />
 <path d="  M 16,2  L 15,2  L 15,3  L 16,3  Z  " style="fill:rgb(103, 64, 34); fill-opacity:1.000; stroke:none;" />
 <path d="  M 16,31  L 16,30  L 15,30  L 15,31  Z  " style="fill:rgb(103, 64, 34); fill-opacity:1.000; stroke:none;" />
 <path d="  M 16,2  L 17,2  L 17,1  L 16,1  Z  " style="fill:rgb(103, 64, 34); fill-opacity:1.000; stroke:none;" />
 <path d="  M 16,29  L 16,30  L 17,30  L 17,29  Z  " style="fill:rgb(103, 64, 34); fill-opacity:1.000; stroke:none;" />
 <path d="  M 18,2  L 17,2  L 17,3  L 18,3  Z  " style="fill:rgb(103, 64, 34); fill-opacity:1.000; stroke:none;" />
 <path d="  M 17,28  L 17,29  L 18,29  L 18,28  Z  " style="fill:rgb(103, 64, 34); fill-opacity:1.000; stroke:none;" />
 <path d="  M 19,4  L 19,3  L 18,3  L 18,4  Z  " style="fill:rgb(103, 64, 34); fill-opacity:1.000; stroke:none;" />
 <path d="  M 18,29  L 18,30  L 19,30  L 19,29  Z  " style="fill:rgb(103, 64, 34); fill-opacity:1.000; stroke:none;" />
 <path d="  M 20,3  L 20,2  L 19,2  L 19,3  Z  " style="fill:rgb(103, 64, 34); fill-opacity:1.000; stroke:none;" />
 <path d="  M 19,30  L 19,31  L 20,31  L 20,30  Z  " style="fill:rgb(103, 64, 34); fill-opacity:1.000; stroke:none;" />
 <path d="  M 20,2  L 21,2  L 21,1  L 20,1  Z  " style="fill:rgb(103, 64, 34); fill-opacity:1.000; stroke:none;" />
 <path d="  M 21,29  L 20,29  L 20,30  L 21,30  Z  " style="fill:rgb(103, 64, 34); fill-opacity:1.000; stroke:none;" />
 <path d="  M 22,3  L 22,2  L 21,2  L 21,3  Z  " style="fill:rgb(103, 64, 34); fill-opacity:1.000; stroke:none;" />
 <path d="  M 21,28  L 21,29  L 22,29  L 22,28  Z  " style="fill:rgb(103, 64, 34); fill-opacity:1.000; stroke:none;" />
 <path d="  M 22,4  L 23,4  L 23,3  L 22,3  Z  " style="fill:rgb(103, 64, 34); fill-opacity:1.000; stroke:none;" />
 <path d="  M 23,30  L 23,29  L 22,29  L 22,30  Z  " style="fill:rgb(103, 64, 34); fill-opacity:1.000; stroke:none;" />
 <path d="  M 23,3  L 24,3  L 24,2  L 23,2  Z  " style="fill:rgb(103, 64, 34); fill-opacity:1.000; stroke:none;" />
 <path d="  M 23,31  L 24,31  L 24,30  L 23,30  Z  " style="fill:rgb(103, 64, 34); fill-opacity:1.000; stroke:none;" />
 <path d="  M 24,1  L 24,2  L 25,2  L 25,1  Z  " style="fill:rgb(103, 64, 34); fill-opacity:1.000; stroke:none;" />
 <path d="  M 24,30  L 25,30  L 25,29  L 24,29  Z  " style="fill:rgb(103, 64, 34); fill-opacity:1.000; stroke:none;" />
 <path d="  M 25,2  L 25,3  L 26,3  L 26,2  Z  " style="fill:rgb(103, 64, 34); fill-opacity:1.000; stroke:none;" />
 <path d="  M 26,29  L 26,28  L 25,28  L 25,29  Z  " style="fill:rgb(103, 64, 34); fill-opacity:1.000; stroke:none;" />
 <path d="  M 26,3  L 26,4  L 27,4  L 27,3  Z  " style="fill:rgb(103, 64, 34); fill-opacity:1.000; stroke:none;" />
 <path d="  M 27,29  L 26,29  L 26,30  L 27,30  Z  " style="fill:rgb(103, 64, 34); fill-opacity:1.000; stroke:none;" />
 <path d="  M 28,3  L 28,2  L 27,2  L 27,3  Z  " style="fill:rgb(103, 64, 34); fill-opacity:1.000; stroke:none;" />
 <path d="  M 27,31  L 28,31  L 28,30  L 27,30  Z  " style="fill:rgb(103, 64, 34); fill-opacity:1.000; stroke:none;" />
 <path d="  M 28,2  L 29,2  L 29,1  L 28,1  Z  " style="fill:rgb(103, 64, 34); fill-opacity:1.000; stroke:none;" />
 <path d="  M 29,5  L 28,5  L 28,6  L 29,6  Z  " style="fill:rgb(103, 64, 34); fill-opacity:1.000; stroke:none;" />
 <path d="  M 28,10  L 29,10  L 29,9  L 28,9  Z  " style="fill:rgb(103, 64, 34); fill-opacity:1.000; stroke:none;" />
 <path d="  M 28,14  L 29,14  L 29,13  L 28,13  Z  " style="fill:rgb(103, 64, 34); fill-opacity:1.000; stroke:none;" />
 <path d="  M 29,18  L 29,17  L 28,17  L 28,18  Z  " style="fill:rgb(103, 64, 34); fill-opacity:1.000; stroke:none;" />
 <path d="  M 28,21  L 28,22  L 29,22  L 29,21  Z  " style="fill:rgb(103, 64, 34); fill-opacity:1.000; stroke:none;" />
 <path d="  M 29,26  L 29,25  L 28,25  L 28,26  Z  " style="fill:rgb(103, 64, 34); fill-opacity:1.000; stroke:none;" />
 <path d="  M 28,29  L 28,30  L 29,30  L 29,29  Z  " style="fill:rgb(103, 64, 34); fill-opacity:1.000; stroke:none;" />
 <path d="  M 30,2  L 29,2  L 29,3  L 30,3  Z  " style="fill:rgb(103, 64, 34); fill-opacity:1.000; stroke:none;" />
 <path d="  M 30,4  L 29,4  L 29,5  L 30,5  Z  " style="fill:rgb(103, 64, 34); fill-opacity:1.000; stroke:none;" />
 <path d="  M 30,6  L 29,6  L 29,7  L 30,7  Z  " style="fill:rgb(103, 64, 34); fill-opacity:1.000; stroke:none;" />
 <path d="  M 29,8  L 29,9  L 30,9  L 30,8  Z  " style="fill:rgb(103, 64, 34); fill-opacity:1.000; stroke:none;" />
 <path d="  M 29,11  L 30,11  L 30,10  L 29,10  Z  " style="fill:rgb(103, 64, 34); fill-opacity:1.000; stroke:none;" />
 <path d="  M 30,12  L 29,12  L 29,13  L 30,13  Z  " style="fill:rgb(103, 64, 34); fill-opacity:1.000; stroke:none;" />
 <path d="  M 30,15  L 30,14  L 29,14  L 29,15  Z  " style="fill:rgb(103, 64, 34); fill-opacity:1.000; stroke:none;" />
 <path d="  M 30,16  L 29,16  L 29,17  L 30,17  Z  " style="fill:rgb(103, 64, 34); fill-opacity:1.000; stroke:none;" />
 <path d="  M 29,18  L 29,19  L 30,19  L 30,18  Z  " style="fill:rgb(103, 64, 34); fill-opacity:1.000; stroke:none;" />
 <path d="  M 29,21  L 30,21  L 30,20  L 29,20  Z  " style="fill:rgb(103, 64, 34); fill-opacity:1.000; stroke:none;" />
 <path d="  M 29,22  L 29,23  L 30,23  L 30,22  Z  " style="fill:rgb(103, 64, 34); fill-opacity:1.000; stroke:none;" />
 <path d="  M 29,25  L 30,25  L 30,24  L 29,24  Z  " style="fill:rgb(103, 64, 34); fill-opacity:1.000; stroke:none;" />
 <path d="  M 30,26  L 29,26  L 29,27  L 30,27  Z  " style="fill:rgb(103, 64, 34); fill-opacity:1.000; stroke:none;" />
 <path d="  M 29,28  L 29,29  L 30,29  L 30,28  Z  " style="fill:rgb(103, 64, 34); fill-opacity:1.000; stroke:none;" />
 <path d="  M 30,4  L 31,4  L 31,3  L 30,3  Z  " style="fill:rgb(103, 64, 34); fill-opacity:1.000; stroke:none;" />
 <path d="  M 30,7  L 30,8  L 31,8  L 31,7  Z  " style="fill:rgb(103, 64, 34); fill-opacity:1.000; stroke:none;" />
 <path d="  M 30,11  L 30,12  L 31,12  L 31,11  Z  " style="fill:rgb(103, 64, 34); fill-opacity:1.000; stroke:none;" />
 <path d="  M 31,15  L 30,15  L 30,16  L 31,16  Z  " style="fill:rgb(103, 64, 34); fill-opacity:1.000; stroke:none;" />
 <path d="  M 30,19  L 30,20  L 31,20  L 31,19  Z  " style="fill:rgb(103, 64, 34); fill-opacity:1.000; stroke:none;" />
 <path d="  M 31,24  L 31,23  L 30,23  L 30,24  Z  " style="fill:rgb(103, 64, 34); fill-opacity:1.000; stroke:none;" />
 <path d="  M 30,27  L 30,28  L 31,28  L 31,27  Z  " style="fill:rgb(103, 64, 34); fill-opacity:1.000; stroke:none;" />
 <path d="  M 2,31  L 1,31  L 1,32  L 2,32  Z  " style="fill:rgb(107, 66, 36); fill-opacity:1.000; stroke:none;" />
 <path d="  M 6,31  L 5,31  L 5,32  L 6,32  Z  " style="fill:rgb(107, 66, 36); fill-opacity:1.000; stroke:none;" />
 <path d="  M 9,32  L 10,32  L 10,31  L 9,31  Z  " style="fill:rgb(107, 66, 36); fill-opacity:1.000; stroke:none;" />
 <path d="  M 14,31  L 13,31  L 13,32  L 14,32  Z  " style="fill:rgb(107, 66, 36); fill-opacity:1.000; stroke:none;" />
 <path d="  M 18,32  L 18,31  L 17,31  L 17,32  Z  " style="fill:rgb(107, 66, 36); fill-opacity:1.000; stroke:none;" />
 <path d="  M 21,31  L 21,32  L 22,32  L 22,31  Z  " style="fill:rgb(107, 66, 36); fill-opacity:1.000; stroke:none;" />
 <path d="  M 25,32  L 26,32  L 26,31  L 25,31  Z  " style="fill:rgb(107, 66, 36); fill-opacity:1.000; stroke:none;" />
 <path d="  M 30,32  L 30,31  L 29,31  L 29,32  Z  " style="fill:rgb(107, 66, 36); fill-opacity:1.000; stroke:none;" />
 <path d="  M 31,6  L 32,6  L 32,5  L 31,5  Z  " style="fill:rgb(107, 66, 36); fill-opacity:1.000; stroke:none;" />
 <path d="  M 32,10  L 32,9  L 31,9  L 31,10  Z  " style="fill:rgb(107, 66, 36); fill-opacity:1.000; stroke:none;" />
 <path d="  M 31,14  L 32,14  L 32,13  L 31,13  Z  " style="fill:rgb(107, 66, 36); fill-opacity:1.000; stroke:none;" />
 <path d="  M 31,18  L 32,18  L 32,17  L 31,17  Z  " style="fill:rgb(107, 66, 36); fill-opacity:1.000; stroke:none;" />
 <path d="  M 32,21  L 31,21  L 31,22  L 32,22  Z  " style="fill:rgb(107, 66, 36); fill-opacity:1.000; stroke:none;" />
 <path d="  M 31,25  L 31,26  L 32,26  L 32,25  Z  " style="fill:rgb(107, 66, 36); fill-opacity:1.000; stroke:none;" />
 <path d="  M 31,30  L 32,30  L 32,29  L 31,29  Z  " style="fill:rgb(107, 66, 36); fill-opacity:1.000; stroke:none;" />
 <path d="  M 20,2  L 20,3  L 19,3  L 19,4  L 18,4  L 18,3  L 17,3  L 17,2  L 16,2  L 16,3  L 15,3  L 15,4  L 14,4  L 14,3  L 13,3  L 13,2  L 12,2  L 12,3  L 11,3  L 11,4  L 10,4  L 10,3  L 9,3  L 9,2  L 8,2  L 8,3  L 7,3  L 7,4  L 6,4  L 6,3  L 5,3  L 5,2  L 4,2  L 4,3  L 3,3  L 3,4  L 2,4  L 2,5  L 3,5  L 3,6  L 4,6  L 4,7  L 3,7  L 3,8  L 2,8  L 2,9  L 3,9  L 3,10  L 4,10  L 4,11  L 3,11  L 3,12  L 2,12  L 2,13  L 3,13  L 3,14  L 4,14  L 4,15  L 3,15  L 3,16  L 2,16  L 2,17  L 3,17  L 3,18  L 4,18  L 4,19  L 3,19  L 3,20  L 2,20  L 2,21  L 3,21  L 3,22  L 4,22  L 4,23  L 3,23  L 3,24  L 2,24  L 2,25  L 3,25  L 3,26  L 4,26  L 4,27  L 3,27  L 3,28  L 2,28  L 2,29  L 3,29  L 3,30  L 4,30  L 4,29  L 5,29  L 5,28  L 6,28  L 6,29  L 7,29  L 7,30  L 8,30  L 8,29  L 9,29  L 9,28  L 10,28  L 10,29  L 11,29  L 11,30  L 12,30  L 12,29  L 13,29  L 13,28  L 14,28  L 14,29  L 15,29  L 15,30  L 16,30  L 16,29  L 17,29  L 17,28  L 18,28  L 18,29  L 19,29  L 19,30  L 20,30  L 20,29  L 21,29  L 21,28  L 22,28  L 22,29  L 23,29  L 23,30  L 24,30  L 24,29  L 25,29  L 25,28  L 26,28  L 26,29  L 27,29  L 27,30  L 28,30  L 28,29  L 29,29  L 29,28  L 30,28  L 30,27  L 29,27  L 29,26  L 28,26  L 28,25  L 29,25  L 29,24  L 30,24  L 30,23  L 29,23  L 29,22  L 28,22  L 28,21  L 29,21  L 29,20  L 30,20  L 30,19  L 29,19  L 29,18  L 28,18  L 28,17  L 29,17  L 29,16  L 30,16  L 30,15  L 29,15  L 29,14  L 28,14  L 28,13  L 29,13  L 29,12  L 30,12  L 30,11  L 29,11  L 29,10  L 28,10  L 28,9  L 29,9  L 29,8  L 30,8  L 30,7  L 29,7  L 29,6  L 28,6  L 28,5  L 29,5  L 29,4  L 30,4  L 30,3  L 29,3  L 29,2  L 28,2  L 28,3  L 27,3  L 27,4  L 26,4  L 26,3  L 25,3  L 25,2  L 24,2  L 24,3  L 23,3  L 23,4  L 22,4  L 22,3  L 21,3  L 21,2  Z  " style="fill:rgb(114, 71, 40); fill-opacity:1.000; stroke:none;" />
 <path d="  M 3,32  L 4,32  L 4,31  L 3,31  Z  " style="fill:rgb(88, 53, 27); fill-opacity:1.000; stroke:none;" />
 <path d="  M 8,32  L 8,31  L 7,31  L 7,32  Z  " style="fill:rgb(88, 53, 27); fill-opacity:1.000; stroke:none;" />
 <path d="  M 11,32  L 12,32  L 12,31  L 11,31  Z  " style="fill:rgb(88, 53, 27); fill-opacity:1.000; stroke:none;" />
 <path d="  M 16,32  L 16,31  L 15,31  L 15,32  Z  " style="fill:rgb(88, 53, 27); fill-opacity:1.000; stroke:none;" />
 <path d="  M 20,32  L 20,31  L 19,31  L 19,32  Z  " style="fill:rgb(88, 53, 27); fill-opacity:1.000; stroke:none;" />
 <path d="  M 23,31  L 23,32  L 24,32  L 24,31  Z  " style="fill:rgb(88, 53, 27); fill-opacity:1.000; stroke:none;" />
 <path d="  M 27,32  L 28,32  L 28,31  L 27,31  Z  " style="fill:rgb(88, 53, 27); fill-opacity:1.000; stroke:none;" />
 <path d="  M 31,3  L 31,4  L 32,4  L 32,3  Z  " style="fill:rgb(88, 53, 27); fill-opacity:1.000; stroke:none;" />
 <path d="  M 32,8  L 32,7  L 31,7  L 31,8  Z  " style="fill:rgb(88, 53, 27); fill-opacity:1.000; stroke:none;" />
 <path d="  M 32,11  L 31,11  L 31,12  L 32,12  Z  " style="fill:rgb(88, 53, 27); fill-opacity:1.000; stroke:none;" />
 <path d="  M 31,16  L 32,16  L 32,15  L 31,15  Z  " style="fill:rgb(88, 53, 27); fill-opacity:1.000; stroke:none;" />
 <path d="  M 32,19  L 31,19  L 31,20  L 32,20  Z  " style="fill:rgb(88, 53, 27); fill-opacity:1.000; stroke:none;" />
 <path d="  M 31,23  L 31,24  L 32,24  L 32,23  Z  " style="fill:rgb(88, 53, 27); fill-opacity:1.000; stroke:none;" />
 <path d="  M 31,28  L 32,28  L 32,27  L 31,27  Z  " style="fill:rgb(88, 53, 27); fill-opacity:1.000; stroke:none;" />
 <path d="  M 32,31  L 31,31  L 31,32  L 32,32  Z  " style="fill:rgb(88, 53, 27); fill-opacity:1.000; stroke:none;" />
</svg>
