<?xml version="1.0" encoding="UTF-8" standalone="no"?>
<!DOCTYPE svg PUBLIC "-//W3C//DTD SVG 1.1//EN" 
  "http://www.w3.org/Graphics/SVG/1.1/DTD/svg11.dtd">
<svg width="32" height="32"
	 xmlns="http://www.w3.org/2000/svg" version="1.1">
 <path d="  M 2,4  L 3,4  L 3,2  L 2,2  Z  " style="fill:rgb(9, 66, 16); fill-opacity:1.000; stroke:none;" />
 <path d="  M 3,10  L 3,7  L 2,7  L 2,10  Z  " style="fill:rgb(9, 66, 16); fill-opacity:1.000; stroke:none;" />
 <path d="  M 2,16  L 3,16  L 3,14  L 2,14  Z  " style="fill:rgb(9, 66, 16); fill-opacity:1.000; stroke:none;" />
 <path d="  M 3,18  L 2,18  L 2,21  L 3,21  Z  " style="fill:rgb(9, 66, 16); fill-opacity:1.000; stroke:none;" />
 <path d="  M 2,23  L 3,23  L 3,22  L 2,22  Z  " style="fill:rgb(9, 66, 16); fill-opacity:1.000; stroke:none;" />
 <path d="  M 3,25  L 2,25  L 2,26  L 3,26  Z  " style="fill:rgb(9, 66, 16); fill-opacity:1.000; stroke:none;" />
 <path d="  M 3,27  L 2,27  L 2,30  L 4,30  L 4,29  L 3,29  Z  " style="fill:rgb(9, 66, 16); fill-opacity:1.000; stroke:none;" />
 <path d="  M 8,2  L 8,3  L 13,3  L 13,2  Z  " style="fill:rgb(9, 66, 16); fill-opacity:1.000; stroke:none;" />
 <path d="  M 8,29  L 8,30  L 15,30  L 15,29  Z  " style="fill:rgb(9, 66, 16); fill-opacity:1.000; stroke:none;" />
 <path d="  M 16,29  L 16,30  L 17,30  L 17,29  Z  " style="fill:rgb(9, 66, 16); fill-opacity:1.000; stroke:none;" />
 <path d="  M 18,2  L 17,2  L 17,3  L 18,3  Z  " style="fill:rgb(9, 66, 16); fill-opacity:1.000; stroke:none;" />
 <path d="  M 21,2  L 19,2  L 19,3  L 21,3  Z  " style="fill:rgb(9, 66, 16); fill-opacity:1.000; stroke:none;" />
 <path d="  M 19,29  L 19,30  L 22,30  L 22,29  Z  " style="fill:rgb(9, 66, 16); fill-opacity:1.000; stroke:none;" />
 <path d="  M 22,2  L 22,3  L 25,3  L 25,2  Z  " style="fill:rgb(9, 66, 16); fill-opacity:1.000; stroke:none;" />
 <path d="  M 23,29  L 23,30  L 24,30  L 24,29  Z  " style="fill:rgb(9, 66, 16); fill-opacity:1.000; stroke:none;" />
 <path d="  M 26,30  L 30,30  L 30,28  L 29,28  L 29,29  L 26,29  Z  " style="fill:rgb(9, 66, 16); fill-opacity:1.000; stroke:none;" />
 <path d="  M 29,3  L 29,4  L 30,4  L 30,2  L 27,2  L 27,3  Z  " style="fill:rgb(9, 66, 16); fill-opacity:1.000; stroke:none;" />
 <path d="  M 30,7  L 29,7  L 29,11  L 30,11  Z  " style="fill:rgb(9, 66, 16); fill-opacity:1.000; stroke:none;" />
 <path d="  M 29,13  L 29,14  L 30,14  L 30,13  Z  " style="fill:rgb(9, 66, 16); fill-opacity:1.000; stroke:none;" />
 <path d="  M 30,15  L 29,15  L 29,20  L 30,20  Z  " style="fill:rgb(9, 66, 16); fill-opacity:1.000; stroke:none;" />
 <path d="  M 29,21  L 29,22  L 30,22  L 30,21  Z  " style="fill:rgb(9, 66, 16); fill-opacity:1.000; stroke:none;" />
 <path d="  M 29,27  L 30,27  L 30,23  L 29,23  Z  " style="fill:rgb(9, 66, 16); fill-opacity:1.000; stroke:none;" />
 <path d="  M 3,4  L 2,4  L 2,7  L 3,7  Z  " style="fill:rgb(13, 97, 24); fill-opacity:1.000; stroke:none;" />
 <path d="  M 3,10  L 2,10  L 2,14  L 3,14  Z  " style="fill:rgb(13, 97, 24); fill-opacity:1.000; stroke:none;" />
 <path d="  M 3,16  L 2,16  L 2,18  L 3,18  Z  " style="fill:rgb(13, 97, 24); fill-opacity:1.000; stroke:none;" />
 <path d="  M 3,21  L 2,21  L 2,22  L 3,22  Z  " style="fill:rgb(13, 97, 24); fill-opacity:1.000; stroke:none;" />
 <path d="  M 2,25  L 3,25  L 3,23  L 2,23  Z  " style="fill:rgb(13, 97, 24); fill-opacity:1.000; stroke:none;" />
 <path d="  M 2,26  L 2,27  L 3,27  L 3,26  Z  " style="fill:rgb(13, 97, 24); fill-opacity:1.000; stroke:none;" />
 <path d="  M 8,3  L 8,2  L 3,2  L 3,3  Z  " style="fill:rgb(13, 97, 24); fill-opacity:1.000; stroke:none;" />
 <path d="  M 8,30  L 8,29  L 4,29  L 4,30  Z  " style="fill:rgb(13, 97, 24); fill-opacity:1.000; stroke:none;" />
 <path d="  M 13,2  L 13,3  L 17,3  L 17,2  Z  " style="fill:rgb(13, 97, 24); fill-opacity:1.000; stroke:none;" />
 <path d="  M 16,30  L 16,29  L 15,29  L 15,30  Z  " style="fill:rgb(13, 97, 24); fill-opacity:1.000; stroke:none;" />
 <path d="  M 19,29  L 17,29  L 17,30  L 19,30  Z  " style="fill:rgb(13, 97, 24); fill-opacity:1.000; stroke:none;" />
 <path d="  M 18,2  L 18,3  L 19,3  L 19,2  Z  " style="fill:rgb(13, 97, 24); fill-opacity:1.000; stroke:none;" />
 <path d="  M 22,3  L 22,2  L 21,2  L 21,3  Z  " style="fill:rgb(13, 97, 24); fill-opacity:1.000; stroke:none;" />
 <path d="  M 23,30  L 23,29  L 22,29  L 22,30  Z  " style="fill:rgb(13, 97, 24); fill-opacity:1.000; stroke:none;" />
 <path d="  M 24,30  L 26,30  L 26,29  L 24,29  Z  " style="fill:rgb(13, 97, 24); fill-opacity:1.000; stroke:none;" />
 <path d="  M 25,3  L 27,3  L 27,2  L 25,2  Z  " style="fill:rgb(13, 97, 24); fill-opacity:1.000; stroke:none;" />
 <path d="  M 29,7  L 30,7  L 30,4  L 29,4  Z  " style="fill:rgb(13, 97, 24); fill-opacity:1.000; stroke:none;" />
 <path d="  M 29,11  L 29,13  L 30,13  L 30,11  Z  " style="fill:rgb(13, 97, 24); fill-opacity:1.000; stroke:none;" />
 <path d="  M 30,15  L 30,14  L 29,14  L 29,15  Z  " style="fill:rgb(13, 97, 24); fill-opacity:1.000; stroke:none;" />
 <path d="  M 29,21  L 30,21  L 30,20  L 29,20  Z  " style="fill:rgb(13, 97, 24); fill-opacity:1.000; stroke:none;" />
 <path d="  M 29,22  L 29,23  L 30,23  L 30,22  Z  " style="fill:rgb(13, 97, 24); fill-opacity:1.000; stroke:none;" />
 <path d="  M 29,28  L 30,28  L 30,27  L 29,27  Z  " style="fill:rgb(13, 97, 24); fill-opacity:1.000; stroke:none;" />
 <path d="  M 29,29  L 29,3  L 3,3  L 3,29  Z  M 4,5  L 5,5  L 5,4  L 27,4  L 27,5  L 28,5  L 28,27  L 27,27  L 27,28  L 5,28  L 5,27  L 4,27  Z  " style="fill:rgb(202, 204, 112); fill-opacity:1.000; stroke:none;" />
 <path d="  M 6,25  L 6,7  L 7,7  L 7,6  L 25,6  L 25,7  L 26,7  L 26,25  L 25,25  L 25,26  L 7,26  L 7,25  Z  M 27,5  L 5,5  L 5,27  L 27,27  Z  " style="fill:rgb(202, 204, 112); fill-opacity:1.000; stroke:none;" />
 <path d="  M 7,25  L 25,25  L 25,7  L 7,7  Z  M 23,24  L 9,24  L 9,23  L 8,23  L 8,9  L 9,9  L 9,8  L 23,8  L 23,9  L 24,9  L 24,23  L 23,23  Z  " style="fill:rgb(202, 204, 112); fill-opacity:1.000; stroke:none;" />
 <path d="  M 9,9  L 9,23  L 23,23  L 23,9  Z  M 21,11  L 22,11  L 22,21  L 21,21  L 21,22  L 11,22  L 11,21  L 10,21  L 10,11  L 11,11  L 11,10  L 21,10  Z  " style="fill:rgb(202, 204, 112); fill-opacity:1.000; stroke:none;" />
 <path d="  M 11,21  L 21,21  L 21,11  L 11,11  Z  M 12,13  L 13,13  L 13,12  L 19,12  L 19,13  L 20,13  L 20,19  L 19,19  L 19,20  L 13,20  L 13,19  L 12,19  Z  " style="fill:rgb(202, 204, 112); fill-opacity:1.000; stroke:none;" />
 <path d="  M 13,19  L 19,19  L 19,13  L 13,13  Z  M 17,17  L 17,18  L 15,18  L 15,17  L 14,17  L 14,15  L 15,15  L 15,14  L 17,14  L 17,15  L 18,15  L 18,17  Z  " style="fill:rgb(202, 204, 112); fill-opacity:1.000; stroke:none;" />
 <path d="  M 17,17  L 17,15  L 15,15  L 15,17  Z  " style="fill:rgb(202, 204, 112); fill-opacity:1.000; stroke:none;" />
 <path d="  M 5,5  L 4,5  L 4,7  L 5,7  Z  " style="fill:rgb(160, 191, 100); fill-opacity:1.000; stroke:none;" />
 <path d="  M 4,13  L 5,13  L 5,11  L 4,11  Z  " style="fill:rgb(160, 191, 100); fill-opacity:1.000; stroke:none;" />
 <path d="  M 5,15  L 5,14  L 4,14  L 4,15  Z  " style="fill:rgb(160, 191, 100); fill-opacity:1.000; stroke:none;" />
 <path d="  M 4,19  L 5,19  L 5,17  L 4,17  Z  " style="fill:rgb(160, 191, 100); fill-opacity:1.000; stroke:none;" />
 <path d="  M 5,24  L 4,24  L 4,26  L 5,26  Z  " style="fill:rgb(160, 191, 100); fill-opacity:1.000; stroke:none;" />
 <path d="  M 5,5  L 7,5  L 7,4  L 5,4  Z  " style="fill:rgb(160, 191, 100); fill-opacity:1.000; stroke:none;" />
 <path d="  M 5,28  L 6,28  L 6,27  L 5,27  Z  " style="fill:rgb(160, 191, 100); fill-opacity:1.000; stroke:none;" />
 <path d="  M 6,9  L 7,9  L 7,7  L 6,7  Z  " style="fill:rgb(160, 191, 100); fill-opacity:1.000; stroke:none;" />
 <path d="  M 6,11  L 7,11  L 7,10  L 6,10  Z  " style="fill:rgb(160, 191, 100); fill-opacity:1.000; stroke:none;" />
 <path d="  M 7,12  L 6,12  L 6,14  L 7,14  Z  " style="fill:rgb(160, 191, 100); fill-opacity:1.000; stroke:none;" />
 <path d="  M 7,17  L 6,17  L 6,21  L 7,21  Z  " style="fill:rgb(160, 191, 100); fill-opacity:1.000; stroke:none;" />
 <path d="  M 6,23  L 7,23  L 7,22  L 6,22  Z  " style="fill:rgb(160, 191, 100); fill-opacity:1.000; stroke:none;" />
 <path d="  M 7,7  L 8,7  L 8,6  L 7,6  Z  " style="fill:rgb(160, 191, 100); fill-opacity:1.000; stroke:none;" />
 <path d="  M 7,26  L 8,26  L 8,25  L 7,25  Z  " style="fill:rgb(160, 191, 100); fill-opacity:1.000; stroke:none;" />
 <path d="  M 7,28  L 8,28  L 8,27  L 7,27  Z  " style="fill:rgb(160, 191, 100); fill-opacity:1.000; stroke:none;" />
 <path d="  M 8,4  L 8,5  L 11,5  L 11,4  Z  " style="fill:rgb(160, 191, 100); fill-opacity:1.000; stroke:none;" />
 <path d="  M 9,10  L 9,9  L 8,9  L 8,10  Z  " style="fill:rgb(160, 191, 100); fill-opacity:1.000; stroke:none;" />
 <path d="  M 9,13  L 9,11  L 8,11  L 8,13  Z  " style="fill:rgb(160, 191, 100); fill-opacity:1.000; stroke:none;" />
 <path d="  M 9,16  L 8,16  L 8,19  L 9,19  Z  " style="fill:rgb(160, 191, 100); fill-opacity:1.000; stroke:none;" />
 <path d="  M 9,22  L 8,22  L 8,23  L 9,23  Z  " style="fill:rgb(160, 191, 100); fill-opacity:1.000; stroke:none;" />
 <path d="  M 11,9  L 11,8  L 9,8  L 9,9  Z  " style="fill:rgb(160, 191, 100); fill-opacity:1.000; stroke:none;" />
 <path d="  M 10,23  L 9,23  L 9,24  L 10,24  Z  " style="fill:rgb(160, 191, 100); fill-opacity:1.000; stroke:none;" />
 <path d="  M 9,25  L 9,26  L 11,26  L 11,25  Z  " style="fill:rgb(160, 191, 100); fill-opacity:1.000; stroke:none;" />
 <path d="  M 10,13  L 11,13  L 11,11  L 10,11  Z  " style="fill:rgb(160, 191, 100); fill-opacity:1.000; stroke:none;" />
 <path d="  M 11,15  L 10,15  L 10,18  L 11,18  Z  " style="fill:rgb(160, 191, 100); fill-opacity:1.000; stroke:none;" />
 <path d="  M 11,20  L 10,20  L 10,21  L 11,21  Z  " style="fill:rgb(160, 191, 100); fill-opacity:1.000; stroke:none;" />
 <path d="  M 12,10  L 11,10  L 11,11  L 12,11  Z  " style="fill:rgb(160, 191, 100); fill-opacity:1.000; stroke:none;" />
 <path d="  M 14,22  L 14,21  L 11,21  L 11,22  Z  " style="fill:rgb(160, 191, 100); fill-opacity:1.000; stroke:none;" />
 <path d="  M 13,27  L 11,27  L 11,28  L 13,28  Z  " style="fill:rgb(160, 191, 100); fill-opacity:1.000; stroke:none;" />
 <path d="  M 12,19  L 13,19  L 13,17  L 12,17  Z  " style="fill:rgb(160, 191, 100); fill-opacity:1.000; stroke:none;" />
 <path d="  M 14,23  L 12,23  L 12,24  L 14,24  Z  " style="fill:rgb(160, 191, 100); fill-opacity:1.000; stroke:none;" />
 <path d="  M 12,25  L 12,26  L 14,26  L 14,25  Z  " style="fill:rgb(160, 191, 100); fill-opacity:1.000; stroke:none;" />
 <path d="  M 13,7  L 15,7  L 15,6  L 13,6  Z  " style="fill:rgb(160, 191, 100); fill-opacity:1.000; stroke:none;" />
 <path d="  M 14,9  L 14,8  L 13,8  L 13,9  Z  " style="fill:rgb(160, 191, 100); fill-opacity:1.000; stroke:none;" />
 <path d="  M 15,5  L 15,4  L 14,4  L 14,5  Z  " style="fill:rgb(160, 191, 100); fill-opacity:1.000; stroke:none;" />
 <path d="  M 14,12  L 14,13  L 16,13  L 16,12  Z  " style="fill:rgb(160, 191, 100); fill-opacity:1.000; stroke:none;" />
 <path d="  M 14,17  L 15,17  L 15,15  L 14,15  Z  " style="fill:rgb(160, 191, 100); fill-opacity:1.000; stroke:none;" />
 <path d="  M 15,19  L 14,19  L 14,20  L 15,20  Z  " style="fill:rgb(160, 191, 100); fill-opacity:1.000; stroke:none;" />
 <path d="  M 15,9  L 17,9  L 17,8  L 15,8  Z  " style="fill:rgb(160, 191, 100); fill-opacity:1.000; stroke:none;" />
 <path d="  M 15,14  L 15,15  L 16,15  L 16,14  Z  " style="fill:rgb(160, 191, 100); fill-opacity:1.000; stroke:none;" />
 <path d="  M 16,26  L 16,25  L 15,25  L 15,26  Z  " style="fill:rgb(160, 191, 100); fill-opacity:1.000; stroke:none;" />
 <path d="  M 16,18  L 17,18  L 17,17  L 16,17  Z  " style="fill:rgb(160, 191, 100); fill-opacity:1.000; stroke:none;" />
 <path d="  M 17,24  L 17,23  L 16,23  L 16,24  Z  " style="fill:rgb(160, 191, 100); fill-opacity:1.000; stroke:none;" />
 <path d="  M 17,4  L 17,5  L 19,5  L 19,4  Z  " style="fill:rgb(160, 191, 100); fill-opacity:1.000; stroke:none;" />
 <path d="  M 19,11  L 19,10  L 17,10  L 17,11  Z  " style="fill:rgb(160, 191, 100); fill-opacity:1.000; stroke:none;" />
 <path d="  M 18,17  L 18,16  L 17,16  L 17,17  Z  " style="fill:rgb(160, 191, 100); fill-opacity:1.000; stroke:none;" />
 <path d="  M 19,6  L 18,6  L 18,7  L 19,7  Z  " style="fill:rgb(160, 191, 100); fill-opacity:1.000; stroke:none;" />
 <path d="  M 18,8  L 18,9  L 20,9  L 20,8  Z  " style="fill:rgb(160, 191, 100); fill-opacity:1.000; stroke:none;" />
 <path d="  M 18,20  L 19,20  L 19,19  L 18,19  Z  " style="fill:rgb(160, 191, 100); fill-opacity:1.000; stroke:none;" />
 <path d="  M 18,21  L 18,22  L 19,22  L 19,21  Z  " style="fill:rgb(160, 191, 100); fill-opacity:1.000; stroke:none;" />
 <path d="  M 18,25  L 18,26  L 21,26  L 21,25  Z  " style="fill:rgb(160, 191, 100); fill-opacity:1.000; stroke:none;" />
 <path d="  M 19,15  L 20,15  L 20,13  L 19,13  Z  " style="fill:rgb(160, 191, 100); fill-opacity:1.000; stroke:none;" />
 <path d="  M 19,17  L 20,17  L 20,16  L 19,16  Z  " style="fill:rgb(160, 191, 100); fill-opacity:1.000; stroke:none;" />
 <path d="  M 19,19  L 20,19  L 20,18  L 19,18  Z  " style="fill:rgb(160, 191, 100); fill-opacity:1.000; stroke:none;" />
 <path d="  M 19,24  L 20,24  L 20,23  L 19,23  Z  " style="fill:rgb(160, 191, 100); fill-opacity:1.000; stroke:none;" />
 <path d="  M 21,28  L 21,27  L 19,27  L 19,28  Z  " style="fill:rgb(160, 191, 100); fill-opacity:1.000; stroke:none;" />
 <path d="  M 21,10  L 20,10  L 20,11  L 21,11  Z  " style="fill:rgb(160, 191, 100); fill-opacity:1.000; stroke:none;" />
 <path d="  M 23,6  L 21,6  L 21,7  L 23,7  Z  " style="fill:rgb(160, 191, 100); fill-opacity:1.000; stroke:none;" />
 <path d="  M 22,14  L 21,14  L 21,15  L 22,15  Z  " style="fill:rgb(160, 191, 100); fill-opacity:1.000; stroke:none;" />
 <path d="  M 22,19  L 21,19  L 21,21  L 22,21  Z  " style="fill:rgb(160, 191, 100); fill-opacity:1.000; stroke:none;" />
 <path d="  M 23,24  L 23,23  L 21,23  L 21,24  Z  " style="fill:rgb(160, 191, 100); fill-opacity:1.000; stroke:none;" />
 <path d="  M 22,5  L 24,5  L 24,4  L 22,4  Z  " style="fill:rgb(160, 191, 100); fill-opacity:1.000; stroke:none;" />
 <path d="  M 23,8  L 22,8  L 22,9  L 23,9  Z  " style="fill:rgb(160, 191, 100); fill-opacity:1.000; stroke:none;" />
 <path d="  M 23,27  L 22,27  L 22,28  L 23,28  Z  " style="fill:rgb(160, 191, 100); fill-opacity:1.000; stroke:none;" />
 <path d="  M 24,10  L 23,10  L 23,13  L 24,13  Z  " style="fill:rgb(160, 191, 100); fill-opacity:1.000; stroke:none;" />
 <path d="  M 24,17  L 23,17  L 23,20  L 24,20  Z  " style="fill:rgb(160, 191, 100); fill-opacity:1.000; stroke:none;" />
 <path d="  M 23,25  L 23,26  L 25,26  L 25,25  Z  " style="fill:rgb(160, 191, 100); fill-opacity:1.000; stroke:none;" />
 <path d="  M 25,6  L 24,6  L 24,7  L 25,7  Z  " style="fill:rgb(160, 191, 100); fill-opacity:1.000; stroke:none;" />
 <path d="  M 27,5  L 27,4  L 25,4  L 25,5  Z  " style="fill:rgb(160, 191, 100); fill-opacity:1.000; stroke:none;" />
 <path d="  M 25,9  L 26,9  L 26,7  L 25,7  Z  " style="fill:rgb(160, 191, 100); fill-opacity:1.000; stroke:none;" />
 <path d="  M 25,12  L 25,13  L 26,13  L 26,12  Z  " style="fill:rgb(160, 191, 100); fill-opacity:1.000; stroke:none;" />
 <path d="  M 25,15  L 26,15  L 26,14  L 25,14  Z  " style="fill:rgb(160, 191, 100); fill-opacity:1.000; stroke:none;" />
 <path d="  M 26,16  L 25,16  L 25,18  L 26,18  Z  " style="fill:rgb(160, 191, 100); fill-opacity:1.000; stroke:none;" />
 <path d="  M 26,25  L 26,23  L 25,23  L 25,25  Z  " style="fill:rgb(160, 191, 100); fill-opacity:1.000; stroke:none;" />
 <path d="  M 26,28  L 27,28  L 27,27  L 26,27  Z  " style="fill:rgb(160, 191, 100); fill-opacity:1.000; stroke:none;" />
 <path d="  M 28,5  L 27,5  L 27,6  L 28,6  Z  " style="fill:rgb(160, 191, 100); fill-opacity:1.000; stroke:none;" />
 <path d="  M 28,9  L 28,7  L 27,7  L 27,9  Z  " style="fill:rgb(160, 191, 100); fill-opacity:1.000; stroke:none;" />
 <path d="  M 28,10  L 27,10  L 27,11  L 28,11  Z  " style="fill:rgb(160, 191, 100); fill-opacity:1.000; stroke:none;" />
 <path d="  M 28,12  L 27,12  L 27,13  L 28,13  Z  " style="fill:rgb(160, 191, 100); fill-opacity:1.000; stroke:none;" />
 <path d="  M 27,17  L 28,17  L 28,15  L 27,15  Z  " style="fill:rgb(160, 191, 100); fill-opacity:1.000; stroke:none;" />
 <path d="  M 27,19  L 27,21  L 28,21  L 28,19  Z  " style="fill:rgb(160, 191, 100); fill-opacity:1.000; stroke:none;" />
 <path d="  M 28,25  L 27,25  L 27,27  L 28,27  Z  " style="fill:rgb(160, 191, 100); fill-opacity:1.000; stroke:none;" />
 <path d="  M 4,11  L 5,11  L 5,7  L 4,7  Z  " style="fill:rgb(141, 176, 75); fill-opacity:1.000; stroke:none;" />
 <path d="  M 5,13  L 4,13  L 4,14  L 5,14  Z  " style="fill:rgb(141, 176, 75); fill-opacity:1.000; stroke:none;" />
 <path d="  M 4,17  L 5,17  L 5,15  L 4,15  Z  " style="fill:rgb(141, 176, 75); fill-opacity:1.000; stroke:none;" />
 <path d="  M 4,24  L 5,24  L 5,19  L 4,19  Z  " style="fill:rgb(141, 176, 75); fill-opacity:1.000; stroke:none;" />
 <path d="  M 5,26  L 4,26  L 4,27  L 5,27  Z  " style="fill:rgb(141, 176, 75); fill-opacity:1.000; stroke:none;" />
 <path d="  M 7,9  L 6,9  L 6,10  L 7,10  Z  " style="fill:rgb(141, 176, 75); fill-opacity:1.000; stroke:none;" />
 <path d="  M 7,11  L 6,11  L 6,12  L 7,12  Z  " style="fill:rgb(141, 176, 75); fill-opacity:1.000; stroke:none;" />
 <path d="  M 6,14  L 6,17  L 7,17  L 7,14  Z  " style="fill:rgb(141, 176, 75); fill-opacity:1.000; stroke:none;" />
 <path d="  M 6,21  L 6,22  L 7,22  L 7,21  Z  " style="fill:rgb(141, 176, 75); fill-opacity:1.000; stroke:none;" />
 <path d="  M 6,23  L 6,25  L 7,25  L 7,23  Z  " style="fill:rgb(141, 176, 75); fill-opacity:1.000; stroke:none;" />
 <path d="  M 7,28  L 7,27  L 6,27  L 6,28  Z  " style="fill:rgb(141, 176, 75); fill-opacity:1.000; stroke:none;" />
 <path d="  M 7,5  L 8,5  L 8,4  L 7,4  Z  " style="fill:rgb(141, 176, 75); fill-opacity:1.000; stroke:none;" />
 <path d="  M 8,6  L 8,7  L 13,7  L 13,6  Z  " style="fill:rgb(141, 176, 75); fill-opacity:1.000; stroke:none;" />
 <path d="  M 9,11  L 9,10  L 8,10  L 8,11  Z  " style="fill:rgb(141, 176, 75); fill-opacity:1.000; stroke:none;" />
 <path d="  M 8,13  L 8,16  L 9,16  L 9,13  Z  " style="fill:rgb(141, 176, 75); fill-opacity:1.000; stroke:none;" />
 <path d="  M 9,19  L 8,19  L 8,22  L 9,22  Z  " style="fill:rgb(141, 176, 75); fill-opacity:1.000; stroke:none;" />
 <path d="  M 8,25  L 8,26  L 9,26  L 9,25  Z  " style="fill:rgb(141, 176, 75); fill-opacity:1.000; stroke:none;" />
 <path d="  M 8,27  L 8,28  L 11,28  L 11,27  Z  " style="fill:rgb(141, 176, 75); fill-opacity:1.000; stroke:none;" />
 <path d="  M 10,13  L 10,15  L 11,15  L 11,13  Z  " style="fill:rgb(141, 176, 75); fill-opacity:1.000; stroke:none;" />
 <path d="  M 11,18  L 10,18  L 10,20  L 11,20  Z  " style="fill:rgb(141, 176, 75); fill-opacity:1.000; stroke:none;" />
 <path d="  M 10,23  L 10,24  L 12,24  L 12,23  Z  " style="fill:rgb(141, 176, 75); fill-opacity:1.000; stroke:none;" />
 <path d="  M 11,4  L 11,5  L 14,5  L 14,4  Z  " style="fill:rgb(141, 176, 75); fill-opacity:1.000; stroke:none;" />
 <path d="  M 13,9  L 13,8  L 11,8  L 11,9  Z  " style="fill:rgb(141, 176, 75); fill-opacity:1.000; stroke:none;" />
 <path d="  M 12,25  L 11,25  L 11,26  L 12,26  Z  " style="fill:rgb(141, 176, 75); fill-opacity:1.000; stroke:none;" />
 <path d="  M 17,10  L 12,10  L 12,11  L 17,11  Z  " style="fill:rgb(141, 176, 75); fill-opacity:1.000; stroke:none;" />
 <path d="  M 13,17  L 13,13  L 12,13  L 12,17  Z  " style="fill:rgb(141, 176, 75); fill-opacity:1.000; stroke:none;" />
 <path d="  M 13,12  L 13,13  L 14,13  L 14,12  Z  " style="fill:rgb(141, 176, 75); fill-opacity:1.000; stroke:none;" />
 <path d="  M 13,19  L 13,20  L 14,20  L 14,19  Z  " style="fill:rgb(141, 176, 75); fill-opacity:1.000; stroke:none;" />
 <path d="  M 19,28  L 19,27  L 13,27  L 13,28  Z  " style="fill:rgb(141, 176, 75); fill-opacity:1.000; stroke:none;" />
 <path d="  M 14,9  L 15,9  L 15,8  L 14,8  Z  " style="fill:rgb(141, 176, 75); fill-opacity:1.000; stroke:none;" />
 <path d="  M 14,22  L 18,22  L 18,21  L 14,21  Z  " style="fill:rgb(141, 176, 75); fill-opacity:1.000; stroke:none;" />
 <path d="  M 14,24  L 16,24  L 16,23  L 14,23  Z  " style="fill:rgb(141, 176, 75); fill-opacity:1.000; stroke:none;" />
 <path d="  M 14,25  L 14,26  L 15,26  L 15,25  Z  " style="fill:rgb(141, 176, 75); fill-opacity:1.000; stroke:none;" />
 <path d="  M 15,5  L 17,5  L 17,4  L 15,4  Z  " style="fill:rgb(141, 176, 75); fill-opacity:1.000; stroke:none;" />
 <path d="  M 18,7  L 18,6  L 15,6  L 15,7  Z  " style="fill:rgb(141, 176, 75); fill-opacity:1.000; stroke:none;" />
 <path d="  M 16,17  L 15,17  L 15,18  L 16,18  Z  " style="fill:rgb(141, 176, 75); fill-opacity:1.000; stroke:none;" />
 <path d="  M 15,20  L 18,20  L 18,19  L 15,19  Z  " style="fill:rgb(141, 176, 75); fill-opacity:1.000; stroke:none;" />
 <path d="  M 19,13  L 19,12  L 16,12  L 16,13  Z  " style="fill:rgb(141, 176, 75); fill-opacity:1.000; stroke:none;" />
 <path d="  M 16,15  L 17,15  L 17,14  L 16,14  Z  " style="fill:rgb(141, 176, 75); fill-opacity:1.000; stroke:none;" />
 <path d="  M 16,26  L 18,26  L 18,25  L 16,25  Z  " style="fill:rgb(141, 176, 75); fill-opacity:1.000; stroke:none;" />
 <path d="  M 17,8  L 17,9  L 18,9  L 18,8  Z  " style="fill:rgb(141, 176, 75); fill-opacity:1.000; stroke:none;" />
 <path d="  M 17,15  L 17,16  L 18,16  L 18,15  Z  " style="fill:rgb(141, 176, 75); fill-opacity:1.000; stroke:none;" />
 <path d="  M 19,23  L 17,23  L 17,24  L 19,24  Z  " style="fill:rgb(141, 176, 75); fill-opacity:1.000; stroke:none;" />
 <path d="  M 19,4  L 19,5  L 22,5  L 22,4  Z  " style="fill:rgb(141, 176, 75); fill-opacity:1.000; stroke:none;" />
 <path d="  M 19,6  L 19,7  L 21,7  L 21,6  Z  " style="fill:rgb(141, 176, 75); fill-opacity:1.000; stroke:none;" />
 <path d="  M 19,11  L 20,11  L 20,10  L 19,10  Z  " style="fill:rgb(141, 176, 75); fill-opacity:1.000; stroke:none;" />
 <path d="  M 19,15  L 19,16  L 20,16  L 20,15  Z  " style="fill:rgb(141, 176, 75); fill-opacity:1.000; stroke:none;" />
 <path d="  M 20,17  L 19,17  L 19,18  L 20,18  Z  " style="fill:rgb(141, 176, 75); fill-opacity:1.000; stroke:none;" />
 <path d="  M 21,22  L 21,21  L 19,21  L 19,22  Z  " style="fill:rgb(141, 176, 75); fill-opacity:1.000; stroke:none;" />
 <path d="  M 20,8  L 20,9  L 22,9  L 22,8  Z  " style="fill:rgb(141, 176, 75); fill-opacity:1.000; stroke:none;" />
 <path d="  M 21,24  L 21,23  L 20,23  L 20,24  Z  " style="fill:rgb(141, 176, 75); fill-opacity:1.000; stroke:none;" />
 <path d="  M 21,14  L 22,14  L 22,11  L 21,11  Z  " style="fill:rgb(141, 176, 75); fill-opacity:1.000; stroke:none;" />
 <path d="  M 21,19  L 22,19  L 22,15  L 21,15  Z  " style="fill:rgb(141, 176, 75); fill-opacity:1.000; stroke:none;" />
 <path d="  M 21,26  L 23,26  L 23,25  L 21,25  Z  " style="fill:rgb(141, 176, 75); fill-opacity:1.000; stroke:none;" />
 <path d="  M 22,27  L 21,27  L 21,28  L 22,28  Z  " style="fill:rgb(141, 176, 75); fill-opacity:1.000; stroke:none;" />
 <path d="  M 23,7  L 24,7  L 24,6  L 23,6  Z  " style="fill:rgb(141, 176, 75); fill-opacity:1.000; stroke:none;" />
 <path d="  M 23,9  L 23,10  L 24,10  L 24,9  Z  " style="fill:rgb(141, 176, 75); fill-opacity:1.000; stroke:none;" />
 <path d="  M 24,13  L 23,13  L 23,17  L 24,17  Z  " style="fill:rgb(141, 176, 75); fill-opacity:1.000; stroke:none;" />
 <path d="  M 24,23  L 24,20  L 23,20  L 23,23  Z  " style="fill:rgb(141, 176, 75); fill-opacity:1.000; stroke:none;" />
 <path d="  M 26,28  L 26,27  L 23,27  L 23,28  Z  " style="fill:rgb(141, 176, 75); fill-opacity:1.000; stroke:none;" />
 <path d="  M 25,5  L 25,4  L 24,4  L 24,5  Z  " style="fill:rgb(141, 176, 75); fill-opacity:1.000; stroke:none;" />
 <path d="  M 26,12  L 26,9  L 25,9  L 25,12  Z  " style="fill:rgb(141, 176, 75); fill-opacity:1.000; stroke:none;" />
 <path d="  M 26,14  L 26,13  L 25,13  L 25,14  Z  " style="fill:rgb(141, 176, 75); fill-opacity:1.000; stroke:none;" />
 <path d="  M 26,16  L 26,15  L 25,15  L 25,16  Z  " style="fill:rgb(141, 176, 75); fill-opacity:1.000; stroke:none;" />
 <path d="  M 25,23  L 26,23  L 26,18  L 25,18  Z  " style="fill:rgb(141, 176, 75); fill-opacity:1.000; stroke:none;" />
 <path d="  M 27,7  L 28,7  L 28,6  L 27,6  Z  " style="fill:rgb(141, 176, 75); fill-opacity:1.000; stroke:none;" />
 <path d="  M 28,9  L 27,9  L 27,10  L 28,10  Z  " style="fill:rgb(141, 176, 75); fill-opacity:1.000; stroke:none;" />
 <path d="  M 27,12  L 28,12  L 28,11  L 27,11  Z  " style="fill:rgb(141, 176, 75); fill-opacity:1.000; stroke:none;" />
 <path d="  M 27,15  L 28,15  L 28,13  L 27,13  Z  " style="fill:rgb(141, 176, 75); fill-opacity:1.000; stroke:none;" />
 <path d="  M 27,19  L 28,19  L 28,17  L 27,17  Z  " style="fill:rgb(141, 176, 75); fill-opacity:1.000; stroke:none;" />
 <path d="  M 27,21  L 27,25  L 28,25  L 28,21  Z  " style="fill:rgb(141, 176, 75); fill-opacity:1.000; stroke:none;" />
</svg>
