<?xml version="1.0" encoding="UTF-8" standalone="no"?>
<!DOCTYPE svg PUBLIC "-//W3C//DTD SVG 1.1//EN" 
  "http://www.w3.org/Graphics/SVG/1.1/DTD/svg11.dtd">
<svg width="32" height="32"
	 xmlns="http://www.w3.org/2000/svg" version="1.1">
 <path d="  M 5,3  L 6,3  L 6,2  L 2,2  L 2,6  L 3,6  L 3,5  L 4,5  L 4,4  L 5,4  Z  " style="fill:rgb(246, 232, 203); fill-opacity:1.000; stroke:none;" />
 <path d="  M 6,30  L 6,29  L 5,29  L 5,28  L 4,28  L 4,27  L 3,27  L 3,26  L 2,26  L 2,30  Z  " style="fill:rgb(246, 232, 203); fill-opacity:1.000; stroke:none;" />
 <path d="  M 4,16  L 4,17  L 5,17  L 5,16  Z  " style="fill:rgb(246, 232, 203); fill-opacity:1.000; stroke:none;" />
 <path d="  M 6,17  L 5,17  L 5,20  L 6,20  Z  " style="fill:rgb(246, 232, 203); fill-opacity:1.000; stroke:none;" />
 <path d="  M 6,23  L 7,23  L 7,20  L 6,20  Z  " style="fill:rgb(246, 232, 203); fill-opacity:1.000; stroke:none;" />
 <path d="  M 7,24  L 8,24  L 8,23  L 7,23  Z  " style="fill:rgb(246, 232, 203); fill-opacity:1.000; stroke:none;" />
 <path d="  M 9,11  L 8,11  L 8,15  L 9,15  Z  " style="fill:rgb(246, 232, 203); fill-opacity:1.000; stroke:none;" />
 <path d="  M 9,10  L 10,10  L 10,9  L 9,9  Z  " style="fill:rgb(246, 232, 203); fill-opacity:1.000; stroke:none;" />
 <path d="  M 9,16  L 10,16  L 10,15  L 9,15  Z  " style="fill:rgb(246, 232, 203); fill-opacity:1.000; stroke:none;" />
 <path d="  M 10,26  L 10,25  L 9,25  L 9,26  Z  " style="fill:rgb(246, 232, 203); fill-opacity:1.000; stroke:none;" />
 <path d="  M 11,17  L 11,16  L 10,16  L 10,17  Z  " style="fill:rgb(246, 232, 203); fill-opacity:1.000; stroke:none;" />
 <path d="  M 11,26  L 10,26  L 10,27  L 11,27  Z  " style="fill:rgb(246, 232, 203); fill-opacity:1.000; stroke:none;" />
 <path d="  M 11,7  L 11,8  L 12,8  L 12,7  Z  " style="fill:rgb(246, 232, 203); fill-opacity:1.000; stroke:none;" />
 <path d="  M 12,6  L 12,7  L 14,7  L 14,6  Z  " style="fill:rgb(246, 232, 203); fill-opacity:1.000; stroke:none;" />
 <path d="  M 13,17  L 12,17  L 12,18  L 13,18  Z  " style="fill:rgb(246, 232, 203); fill-opacity:1.000; stroke:none;" />
 <path d="  M 14,26  L 12,26  L 12,27  L 14,27  Z  " style="fill:rgb(246, 232, 203); fill-opacity:1.000; stroke:none;" />
 <path d="  M 14,6  L 15,6  L 15,5  L 14,5  Z  " style="fill:rgb(246, 232, 203); fill-opacity:1.000; stroke:none;" />
 <path d="  M 17,26  L 17,25  L 14,25  L 14,26  Z  " style="fill:rgb(246, 232, 203); fill-opacity:1.000; stroke:none;" />
 <path d="  M 16,5  L 16,4  L 15,4  L 15,5  Z  " style="fill:rgb(246, 232, 203); fill-opacity:1.000; stroke:none;" />
 <path d="  M 16,19  L 16,20  L 18,20  L 18,19  Z  " style="fill:rgb(246, 232, 203); fill-opacity:1.000; stroke:none;" />
 <path d="  M 17,25  L 18,25  L 18,24  L 17,24  Z  " style="fill:rgb(246, 232, 203); fill-opacity:1.000; stroke:none;" />
 <path d="  M 19,6  L 19,5  L 18,5  L 18,6  Z  " style="fill:rgb(246, 232, 203); fill-opacity:1.000; stroke:none;" />
 <path d="  M 20,18  L 18,18  L 18,19  L 20,19  Z  " style="fill:rgb(246, 232, 203); fill-opacity:1.000; stroke:none;" />
 <path d="  M 20,6  L 19,6  L 19,7  L 20,7  Z  " style="fill:rgb(246, 232, 203); fill-opacity:1.000; stroke:none;" />
 <path d="  M 21,7  L 20,7  L 20,8  L 21,8  Z  " style="fill:rgb(246, 232, 203); fill-opacity:1.000; stroke:none;" />
 <path d="  M 20,24  L 20,25  L 21,25  L 21,24  Z  " style="fill:rgb(246, 232, 203); fill-opacity:1.000; stroke:none;" />
 <path d="  M 23,9  L 23,8  L 21,8  L 21,9  Z  " style="fill:rgb(246, 232, 203); fill-opacity:1.000; stroke:none;" />
 <path d="  M 22,23  L 21,23  L 21,24  L 22,24  Z  " style="fill:rgb(246, 232, 203); fill-opacity:1.000; stroke:none;" />
 <path d="  M 23,23  L 23,22  L 22,22  L 22,23  Z  " style="fill:rgb(246, 232, 203); fill-opacity:1.000; stroke:none;" />
 <path d="  M 23,11  L 23,12  L 24,12  L 24,11  Z  " style="fill:rgb(246, 232, 203); fill-opacity:1.000; stroke:none;" />
 <path d="  M 24,21  L 23,21  L 23,22  L 24,22  Z  " style="fill:rgb(246, 232, 203); fill-opacity:1.000; stroke:none;" />
 <path d="  M 24,14  L 25,14  L 25,12  L 24,12  Z  " style="fill:rgb(246, 232, 203); fill-opacity:1.000; stroke:none;" />
 <path d="  M 25,21  L 25,20  L 24,20  L 24,21  Z  " style="fill:rgb(246, 232, 203); fill-opacity:1.000; stroke:none;" />
 <path d="  M 26,14  L 25,14  L 25,17  L 26,17  Z  " style="fill:rgb(246, 232, 203); fill-opacity:1.000; stroke:none;" />
 <path d="  M 26,2  L 26,3  L 27,3  L 27,4  L 28,4  L 28,5  L 29,5  L 29,6  L 30,6  L 30,2  Z  " style="fill:rgb(246, 232, 203); fill-opacity:1.000; stroke:none;" />
 <path d="  M 27,29  L 27,30  L 30,30  L 30,26  L 29,26  L 29,28  L 28,28  L 28,29  Z  " style="fill:rgb(246, 232, 203); fill-opacity:1.000; stroke:none;" />
 <path d="  M 3,6  L 2,6  L 2,8  L 3,8  Z  " style="fill:rgb(253, 244, 216); fill-opacity:1.000; stroke:none;" />
 <path d="  M 2,24  L 2,26  L 3,26  L 3,24  Z  " style="fill:rgb(253, 244, 216); fill-opacity:1.000; stroke:none;" />
 <path d="  M 4,18  L 5,18  L 5,17  L 4,17  Z  " style="fill:rgb(253, 244, 216); fill-opacity:1.000; stroke:none;" />
 <path d="  M 5,17  L 6,17  L 6,16  L 5,16  Z  " style="fill:rgb(253, 244, 216); fill-opacity:1.000; stroke:none;" />
 <path d="  M 6,22  L 6,20  L 5,20  L 5,22  Z  " style="fill:rgb(253, 244, 216); fill-opacity:1.000; stroke:none;" />
 <path d="  M 8,3  L 8,2  L 6,2  L 6,3  Z  " style="fill:rgb(253, 244, 216); fill-opacity:1.000; stroke:none;" />
 <path d="  M 7,19  L 6,19  L 6,20  L 7,20  Z  " style="fill:rgb(253, 244, 216); fill-opacity:1.000; stroke:none;" />
 <path d="  M 6,29  L 6,30  L 8,30  L 8,29  Z  " style="fill:rgb(253, 244, 216); fill-opacity:1.000; stroke:none;" />
 <path d="  M 15,19  L 14,19  L 14,18  L 12,18  L 12,16  L 11,16  L 11,14  L 10,14  L 10,10  L 9,10  L 9,9  L 8,9  L 8,10  L 7,10  L 7,16  L 8,16  L 8,17  L 9,17  L 9,18  L 11,18  L 11,19  L 12,19  L 12,20  L 14,20  L 14,21  L 16,21  L 16,19  L 18,19  L 18,18  L 20,18  L 20,17  L 17,17  L 17,18  L 15,18  Z  M 9,11  L 9,15  L 8,15  L 8,11  Z  M 10,15  L 10,16  L 9,16  L 9,15  Z  M 10,17  L 10,16  L 11,16  L 11,17  Z  " style="fill:rgb(253, 244, 216); fill-opacity:1.000; stroke:none;" />
 <path d="  M 7,22  L 7,23  L 8,23  L 8,22  Z  " style="fill:rgb(253, 244, 216); fill-opacity:1.000; stroke:none;" />
 <path d="  M 9,24  L 9,23  L 8,23  L 8,24  Z  " style="fill:rgb(253, 244, 216); fill-opacity:1.000; stroke:none;" />
 <path d="  M 10,25  L 10,24  L 9,24  L 9,25  Z  " style="fill:rgb(253, 244, 216); fill-opacity:1.000; stroke:none;" />
 <path d="  M 9,27  L 10,27  L 10,26  L 9,26  Z  " style="fill:rgb(253, 244, 216); fill-opacity:1.000; stroke:none;" />
 <path d="  M 10,9  L 11,9  L 11,7  L 12,7  L 12,6  L 10,6  Z  " style="fill:rgb(253, 244, 216); fill-opacity:1.000; stroke:none;" />
 <path d="  M 11,25  L 10,25  L 10,26  L 11,26  Z  " style="fill:rgb(253, 244, 216); fill-opacity:1.000; stroke:none;" />
 <path d="  M 12,26  L 11,26  L 11,27  L 12,27  Z  " style="fill:rgb(253, 244, 216); fill-opacity:1.000; stroke:none;" />
 <path d="  M 15,5  L 15,4  L 13,4  L 13,5  L 12,5  L 12,6  L 14,6  L 14,5  Z  " style="fill:rgb(253, 244, 216); fill-opacity:1.000; stroke:none;" />
 <path d="  M 14,14  L 14,13  L 13,13  L 13,14  Z  " style="fill:rgb(253, 244, 216); fill-opacity:1.000; stroke:none;" />
 <path d="  M 14,26  L 14,25  L 13,25  L 13,26  Z  " style="fill:rgb(253, 244, 216); fill-opacity:1.000; stroke:none;" />
 <path d="  M 15,11  L 15,12  L 14,12  L 14,13  L 18,13  L 18,14  L 19,14  L 19,15  L 20,15  L 20,13  L 19,13  L 19,12  L 17,12  L 17,11  Z  " style="fill:rgb(253, 244, 216); fill-opacity:1.000; stroke:none;" />
 <path d="  M 15,26  L 14,26  L 14,27  L 15,27  Z  " style="fill:rgb(253, 244, 216); fill-opacity:1.000; stroke:none;" />
 <path d="  M 17,25  L 17,24  L 15,24  L 15,25  Z  " style="fill:rgb(253, 244, 216); fill-opacity:1.000; stroke:none;" />
 <path d="  M 18,25  L 17,25  L 17,26  L 18,26  Z  " style="fill:rgb(253, 244, 216); fill-opacity:1.000; stroke:none;" />
 <path d="  M 18,5  L 19,5  L 19,4  L 18,4  Z  " style="fill:rgb(253, 244, 216); fill-opacity:1.000; stroke:none;" />
 <path d="  M 19,6  L 18,6  L 18,7  L 19,7  Z  " style="fill:rgb(253, 244, 216); fill-opacity:1.000; stroke:none;" />
 <path d="  M 18,20  L 19,20  L 19,19  L 18,19  Z  " style="fill:rgb(253, 244, 216); fill-opacity:1.000; stroke:none;" />
 <path d="  M 19,6  L 20,6  L 20,5  L 19,5  Z  " style="fill:rgb(253, 244, 216); fill-opacity:1.000; stroke:none;" />
 <path d="  M 20,8  L 20,7  L 19,7  L 19,8  Z  " style="fill:rgb(253, 244, 216); fill-opacity:1.000; stroke:none;" />
 <path d="  M 21,7  L 21,6  L 20,6  L 20,7  Z  " style="fill:rgb(253, 244, 216); fill-opacity:1.000; stroke:none;" />
 <path d="  M 21,24  L 21,23  L 20,23  L 20,24  Z  " style="fill:rgb(253, 244, 216); fill-opacity:1.000; stroke:none;" />
 <path d="  M 21,8  L 22,8  L 22,7  L 21,7  Z  " style="fill:rgb(253, 244, 216); fill-opacity:1.000; stroke:none;" />
 <path d="  M 21,23  L 22,23  L 22,22  L 23,22  L 23,21  L 24,21  L 24,20  L 22,20  L 22,21  L 21,21  Z  " style="fill:rgb(253, 244, 216); fill-opacity:1.000; stroke:none;" />
 <path d="  M 22,10  L 23,10  L 23,9  L 22,9  Z  " style="fill:rgb(253, 244, 216); fill-opacity:1.000; stroke:none;" />
 <path d="  M 22,24  L 23,24  L 23,23  L 22,23  Z  " style="fill:rgb(253, 244, 216); fill-opacity:1.000; stroke:none;" />
 <path d="  M 23,13  L 24,13  L 24,12  L 23,12  Z  " style="fill:rgb(253, 244, 216); fill-opacity:1.000; stroke:none;" />
 <path d="  M 23,22  L 23,23  L 24,23  L 24,22  Z  " style="fill:rgb(253, 244, 216); fill-opacity:1.000; stroke:none;" />
 <path d="  M 26,3  L 26,2  L 24,2  L 24,3  Z  " style="fill:rgb(253, 244, 216); fill-opacity:1.000; stroke:none;" />
 <path d="  M 25,12  L 25,11  L 24,11  L 24,12  Z  " style="fill:rgb(253, 244, 216); fill-opacity:1.000; stroke:none;" />
 <path d="  M 25,15  L 25,14  L 24,14  L 24,15  Z  " style="fill:rgb(253, 244, 216); fill-opacity:1.000; stroke:none;" />
 <path d="  M 24,19  L 24,20  L 26,20  L 26,19  Z  " style="fill:rgb(253, 244, 216); fill-opacity:1.000; stroke:none;" />
 <path d="  M 27,29  L 24,29  L 24,30  L 27,30  Z  " style="fill:rgb(253, 244, 216); fill-opacity:1.000; stroke:none;" />
 <path d="  M 26,14  L 26,13  L 25,13  L 25,14  Z  " style="fill:rgb(253, 244, 216); fill-opacity:1.000; stroke:none;" />
 <path d="  M 27,29  L 28,29  L 28,28  L 27,28  Z  " style="fill:rgb(253, 244, 216); fill-opacity:1.000; stroke:none;" />
 <path d="  M 29,28  L 29,27  L 28,27  L 28,28  Z  " style="fill:rgb(253, 244, 216); fill-opacity:1.000; stroke:none;" />
 <path d="  M 29,8  L 30,8  L 30,6  L 29,6  Z  " style="fill:rgb(253, 244, 216); fill-opacity:1.000; stroke:none;" />
 <path d="  M 30,24  L 29,24  L 29,26  L 30,26  Z  " style="fill:rgb(253, 244, 216); fill-opacity:1.000; stroke:none;" />
 <path d="  M 24,17  L 25,17  L 25,15  L 24,15  L 24,13  L 23,13  L 23,10  L 22,10  L 22,9  L 21,9  L 21,8  L 19,8  L 19,7  L 18,7  L 18,6  L 16,6  L 16,5  L 15,5  L 15,6  L 14,6  L 14,7  L 12,7  L 12,8  L 11,8  L 11,9  L 10,9  L 10,14  L 11,14  L 11,16  L 12,16  L 12,17  L 13,17  L 13,13  L 14,13  L 14,12  L 15,12  L 15,11  L 17,11  L 17,12  L 19,12  L 19,13  L 20,13  L 20,15  L 19,15  L 19,14  L 18,14  L 18,17  L 20,17  L 20,19  L 19,19  L 19,20  L 16,20  L 16,21  L 14,21  L 14,20  L 12,20  L 12,19  L 11,19  L 11,18  L 9,18  L 9,17  L 8,17  L 8,16  L 7,16  L 7,10  L 8,10  L 8,7  L 10,7  L 10,6  L 12,6  L 12,5  L 13,5  L 13,4  L 19,4  L 19,5  L 20,5  L 20,6  L 21,6  L 21,7  L 22,7  L 22,8  L 23,8  L 23,9  L 25,9  L 25,13  L 26,13  L 26,20  L 25,20  L 25,21  L 24,21  L 24,23  L 23,23  L 23,24  L 21,24  L 21,25  L 18,25  L 18,26  L 15,26  L 15,27  L 9,27  L 9,26  L 7,26  L 7,23  L 6,23  L 6,22  L 5,22  L 5,18  L 4,18  L 4,14  L 6,14  L 6,19  L 7,19  L 7,22  L 8,22  L 8,23  L 9,23  L 9,24  L 10,24  L 10,25  L 11,25  L 11,26  L 13,26  L 13,25  L 15,25  L 15,24  L 18,24  L 18,23  L 21,23  L 21,21  L 22,21  L 22,20  L 24,20  Z  M 29,24  L 30,24  L 30,8  L 29,8  L 29,5  L 28,5  L 28,4  L 27,4  L 27,3  L 24,3  L 24,2  L 8,2  L 8,3  L 5,3  L 5,4  L 4,4  L 4,5  L 3,5  L 3,8  L 2,8  L 2,24  L 3,24  L 3,27  L 4,27  L 4,28  L 5,28  L 5,29  L 8,29  L 8,30  L 24,30  L 24,29  L 27,29  L 27,28  L 28,28  L 28,27  L 29,27  Z  " style="fill:rgb(255, 253, 254); fill-opacity:1.000; stroke:none;" />
 <path d="  M 13,17  L 13,18  L 14,18  L 14,17  Z  " style="fill:rgb(255, 253, 254); fill-opacity:1.000; stroke:none;" />
 <path d="  M 15,18  L 14,18  L 14,19  L 15,19  Z  " style="fill:rgb(255, 253, 254); fill-opacity:1.000; stroke:none;" />
 <path d="  M 18,13  L 17,13  L 17,14  L 18,14  Z  " style="fill:rgb(255, 253, 254); fill-opacity:1.000; stroke:none;" />
 <path d="  M 5,15  L 5,14  L 4,14  L 4,15  Z  " style="fill:rgb(176, 33, 50); fill-opacity:1.000; stroke:none;" />
 <path d="  M 5,15  L 5,16  L 6,16  L 6,15  Z  " style="fill:rgb(176, 33, 50); fill-opacity:1.000; stroke:none;" />
 <path d="  M 8,7  L 8,8  L 10,8  L 10,7  Z  " style="fill:rgb(176, 33, 50); fill-opacity:1.000; stroke:none;" />
 <path d="  M 8,25  L 8,26  L 9,26  L 9,25  Z  " style="fill:rgb(176, 33, 50); fill-opacity:1.000; stroke:none;" />
 <path d="  M 17,15  L 17,16  L 16,16  L 16,17  L 15,17  L 15,18  L 17,18  L 17,17  L 18,17  L 18,15  Z  " style="fill:rgb(176, 33, 50); fill-opacity:1.000; stroke:none;" />
 <path d="  M 16,5  L 16,6  L 17,6  L 17,5  Z  " style="fill:rgb(176, 33, 50); fill-opacity:1.000; stroke:none;" />
 <path d="  M 18,4  L 17,4  L 17,5  L 18,5  Z  " style="fill:rgb(176, 33, 50); fill-opacity:1.000; stroke:none;" />
 <path d="  M 20,25  L 20,23  L 19,23  L 19,24  L 18,24  L 18,25  Z  " style="fill:rgb(176, 33, 50); fill-opacity:1.000; stroke:none;" />
 <path d="  M 23,10  L 23,11  L 25,11  L 25,10  Z  " style="fill:rgb(176, 33, 50); fill-opacity:1.000; stroke:none;" />
 <path d="  M 24,18  L 24,19  L 25,19  L 25,18  Z  " style="fill:rgb(176, 33, 50); fill-opacity:1.000; stroke:none;" />
 <path d="  M 26,18  L 26,17  L 25,17  L 25,18  Z  " style="fill:rgb(176, 33, 50); fill-opacity:1.000; stroke:none;" />
 <path d="  M 5,16  L 5,15  L 4,15  L 4,16  Z  " style="fill:rgb(240, 115, 90); fill-opacity:1.000; stroke:none;" />
 <path d="  M 8,25  L 8,24  L 7,24  L 7,25  Z  " style="fill:rgb(240, 115, 90); fill-opacity:1.000; stroke:none;" />
 <path d="  M 14,14  L 14,16  L 15,16  L 15,15  L 16,15  L 16,14  Z  " style="fill:rgb(240, 115, 90); fill-opacity:1.000; stroke:none;" />
 <path d="  M 17,6  L 18,6  L 18,5  L 17,5  Z  " style="fill:rgb(240, 115, 90); fill-opacity:1.000; stroke:none;" />
 <path d="  M 19,24  L 19,23  L 18,23  L 18,24  Z  " style="fill:rgb(240, 115, 90); fill-opacity:1.000; stroke:none;" />
 <path d="  M 23,9  L 23,10  L 24,10  L 24,9  Z  " style="fill:rgb(240, 115, 90); fill-opacity:1.000; stroke:none;" />
 <path d="  M 25,18  L 25,19  L 26,19  L 26,18  Z  " style="fill:rgb(240, 115, 90); fill-opacity:1.000; stroke:none;" />
 <path d="  M 6,15  L 6,14  L 5,14  L 5,15  Z  " style="fill:rgb(211, 33, 45); fill-opacity:1.000; stroke:none;" />
 <path d="  M 7,26  L 8,26  L 8,25  L 7,25  Z  " style="fill:rgb(211, 33, 45); fill-opacity:1.000; stroke:none;" />
 <path d="  M 10,8  L 8,8  L 8,9  L 10,9  Z  " style="fill:rgb(211, 33, 45); fill-opacity:1.000; stroke:none;" />
 <path d="  M 8,24  L 8,25  L 9,25  L 9,24  Z  " style="fill:rgb(211, 33, 45); fill-opacity:1.000; stroke:none;" />
 <path d="  M 13,17  L 14,17  L 14,14  L 13,14  Z  " style="fill:rgb(211, 33, 45); fill-opacity:1.000; stroke:none;" />
 <path d="  M 17,14  L 17,13  L 14,13  L 14,14  Z  " style="fill:rgb(211, 33, 45); fill-opacity:1.000; stroke:none;" />
 <path d="  M 15,18  L 15,17  L 14,17  L 14,18  Z  " style="fill:rgb(211, 33, 45); fill-opacity:1.000; stroke:none;" />
 <path d="  M 16,17  L 16,16  L 15,16  L 15,17  Z  " style="fill:rgb(211, 33, 45); fill-opacity:1.000; stroke:none;" />
 <path d="  M 16,4  L 16,5  L 17,5  L 17,4  Z  " style="fill:rgb(211, 33, 45); fill-opacity:1.000; stroke:none;" />
 <path d="  M 17,15  L 16,15  L 16,16  L 17,16  Z  " style="fill:rgb(211, 33, 45); fill-opacity:1.000; stroke:none;" />
 <path d="  M 18,14  L 17,14  L 17,15  L 18,15  Z  " style="fill:rgb(211, 33, 45); fill-opacity:1.000; stroke:none;" />
 <path d="  M 25,10  L 25,9  L 24,9  L 24,10  Z  " style="fill:rgb(211, 33, 45); fill-opacity:1.000; stroke:none;" />
 <path d="  M 24,18  L 25,18  L 25,17  L 24,17  Z  " style="fill:rgb(211, 33, 45); fill-opacity:1.000; stroke:none;" />
 <path d="  M 14,16  L 14,17  L 15,17  L 15,16  Z  " style="fill:rgb(232, 53, 53); fill-opacity:1.000; stroke:none;" />
 <path d="  M 15,15  L 15,16  L 16,16  L 16,15  Z  " style="fill:rgb(232, 53, 53); fill-opacity:1.000; stroke:none;" />
 <path d="  M 16,15  L 17,15  L 17,14  L 16,14  Z  " style="fill:rgb(232, 53, 53); fill-opacity:1.000; stroke:none;" />
</svg>
