<?xml version="1.0" encoding="UTF-8" standalone="no"?>
<!DOCTYPE svg PUBLIC "-//W3C//DTD SVG 1.1//EN" 
  "http://www.w3.org/Graphics/SVG/1.1/DTD/svg11.dtd">
<svg width="32" height="32"
	 xmlns="http://www.w3.org/2000/svg" version="1.1">
 <path d="  M 1,1  L 2,1  L 2,0  L 0,0  L 0,2  L 1,2  Z  " style="fill:rgb(152, 120, 73); fill-opacity:1.000; stroke:none;" />
 <path d="  M 1,5  L 1,4  L 0,4  L 0,5  Z  " style="fill:rgb(152, 120, 73); fill-opacity:1.000; stroke:none;" />
 <path d="  M 0,6  L 0,7  L 1,7  L 1,6  Z  " style="fill:rgb(152, 120, 73); fill-opacity:1.000; stroke:none;" />
 <path d="  M 6,6  L 6,5  L 1,5  L 1,6  Z  " style="fill:rgb(152, 120, 73); fill-opacity:1.000; stroke:none;" />
 <path d="  M 3,0  L 3,1  L 6,1  L 6,2  L 9,2  L 9,1  L 7,1  L 7,0  Z  " style="fill:rgb(152, 120, 73); fill-opacity:1.000; stroke:none;" />
 <path d="  M 7,5  L 8,5  L 8,4  L 7,4  Z  " style="fill:rgb(152, 120, 73); fill-opacity:1.000; stroke:none;" />
 <path d="  M 11,6  L 11,4  L 10,4  L 10,5  L 8,5  L 8,6  Z  " style="fill:rgb(152, 120, 73); fill-opacity:1.000; stroke:none;" />
 <path d="  M 10,1  L 10,2  L 12,2  L 12,1  Z  " style="fill:rgb(152, 120, 73); fill-opacity:1.000; stroke:none;" />
 <path d="  M 14,4  L 16,4  L 16,3  L 11,3  L 11,4  L 12,4  L 12,5  L 13,5  L 13,6  L 14,6  Z  " style="fill:rgb(152, 120, 73); fill-opacity:1.000; stroke:none;" />
 <path d="  M 13,0  L 13,1  L 14,1  L 14,0  Z  " style="fill:rgb(152, 120, 73); fill-opacity:1.000; stroke:none;" />
 <path d="  M 16,6  L 16,7  L 14,7  L 14,8  L 18,8  L 18,7  L 17,7  L 17,6  Z  " style="fill:rgb(152, 120, 73); fill-opacity:1.000; stroke:none;" />
 <path d="  M 18,1  L 18,2  L 20,2  L 20,0  L 16,0  L 16,1  Z  " style="fill:rgb(152, 120, 73); fill-opacity:1.000; stroke:none;" />
 <path d="  M 18,2  L 16,2  L 16,3  L 18,3  Z  " style="fill:rgb(152, 120, 73); fill-opacity:1.000; stroke:none;" />
 <path d="  M 20,4  L 21,4  L 21,3  L 20,3  Z  " style="fill:rgb(152, 120, 73); fill-opacity:1.000; stroke:none;" />
 <path d="  M 25,1  L 25,0  L 23,0  L 23,1  L 22,1  L 22,2  L 21,2  L 21,3  L 24,3  L 24,1  Z  " style="fill:rgb(152, 120, 73); fill-opacity:1.000; stroke:none;" />
 <path d="  M 21,7  L 21,8  L 23,8  L 23,7  Z  " style="fill:rgb(152, 120, 73); fill-opacity:1.000; stroke:none;" />
 <path d="  M 22,5  L 22,6  L 23,6  L 23,5  Z  " style="fill:rgb(152, 120, 73); fill-opacity:1.000; stroke:none;" />
 <path d="  M 25,5  L 25,6  L 26,6  L 26,5  Z  " style="fill:rgb(152, 120, 73); fill-opacity:1.000; stroke:none;" />
 <path d="  M 26,1  L 27,1  L 27,0  L 26,0  Z  " style="fill:rgb(152, 120, 73); fill-opacity:1.000; stroke:none;" />
 <path d="  M 27,4  L 27,5  L 29,5  L 29,4  Z  " style="fill:rgb(152, 120, 73); fill-opacity:1.000; stroke:none;" />
 <path d="  M 27,7  L 27,8  L 28,8  L 28,7  Z  " style="fill:rgb(152, 120, 73); fill-opacity:1.000; stroke:none;" />
 <path d="  M 29,6  L 32,6  L 32,5  L 29,5  Z  " style="fill:rgb(152, 120, 73); fill-opacity:1.000; stroke:none;" />
 <path d="  M 32,1  L 31,1  L 31,2  L 32,2  Z  " style="fill:rgb(152, 120, 73); fill-opacity:1.000; stroke:none;" />
 <path d="  M 31,3  L 31,4  L 32,4  L 32,3  Z  " style="fill:rgb(152, 120, 73); fill-opacity:1.000; stroke:none;" />
 <path d="  M 6,2  L 6,1  L 3,1  L 3,2  L 0,2  L 0,3  L 4,3  L 4,2  L 5,2  L 5,3  L 10,3  L 10,4  L 11,4  L 11,2  Z  " style="fill:rgb(145, 113, 66); fill-opacity:1.000; stroke:none;" />
 <path d="  M 1,4  L 1,5  L 7,5  L 7,4  Z  " style="fill:rgb(145, 113, 66); fill-opacity:1.000; stroke:none;" />
 <path d="  M 6,7  L 6,6  L 1,6  L 1,7  Z  " style="fill:rgb(145, 113, 66); fill-opacity:1.000; stroke:none;" />
 <path d="  M 3,0  L 2,0  L 2,1  L 3,1  Z  " style="fill:rgb(145, 113, 66); fill-opacity:1.000; stroke:none;" />
 <path d="  M 8,5  L 7,5  L 7,6  L 8,6  Z  " style="fill:rgb(145, 113, 66); fill-opacity:1.000; stroke:none;" />
 <path d="  M 9,7  L 9,6  L 8,6  L 8,7  L 7,7  L 7,8  L 13,8  L 13,7  Z  " style="fill:rgb(145, 113, 66); fill-opacity:1.000; stroke:none;" />
 <path d="  M 8,4  L 8,5  L 10,5  L 10,4  Z  " style="fill:rgb(145, 113, 66); fill-opacity:1.000; stroke:none;" />
 <path d="  M 11,4  L 11,6  L 12,6  L 12,4  Z  " style="fill:rgb(145, 113, 66); fill-opacity:1.000; stroke:none;" />
 <path d="  M 12,1  L 12,2  L 13,2  L 13,1  Z  " style="fill:rgb(145, 113, 66); fill-opacity:1.000; stroke:none;" />
 <path d="  M 16,2  L 13,2  L 13,3  L 16,3  Z  " style="fill:rgb(145, 113, 66); fill-opacity:1.000; stroke:none;" />
 <path d="  M 14,0  L 14,1  L 16,1  L 16,0  Z  " style="fill:rgb(145, 113, 66); fill-opacity:1.000; stroke:none;" />
 <path d="  M 15,6  L 15,7  L 16,7  L 16,5  L 14,5  L 14,6  Z  " style="fill:rgb(145, 113, 66); fill-opacity:1.000; stroke:none;" />
 <path d="  M 18,4  L 18,3  L 16,3  L 16,4  Z  " style="fill:rgb(145, 113, 66); fill-opacity:1.000; stroke:none;" />
 <path d="  M 18,2  L 18,1  L 17,1  L 17,2  Z  " style="fill:rgb(145, 113, 66); fill-opacity:1.000; stroke:none;" />
 <path d="  M 17,6  L 17,7  L 21,7  L 21,6  Z  " style="fill:rgb(145, 113, 66); fill-opacity:1.000; stroke:none;" />
 <path d="  M 18,2  L 18,3  L 19,3  L 19,2  Z  " style="fill:rgb(145, 113, 66); fill-opacity:1.000; stroke:none;" />
 <path d="  M 22,2  L 22,1  L 20,1  L 20,2  Z  " style="fill:rgb(145, 113, 66); fill-opacity:1.000; stroke:none;" />
 <path d="  M 24,6  L 24,5  L 27,5  L 27,4  L 26,4  L 26,3  L 21,3  L 21,4  L 23,4  L 23,6  Z  " style="fill:rgb(145, 113, 66); fill-opacity:1.000; stroke:none;" />
 <path d="  M 22,5  L 21,5  L 21,6  L 22,6  Z  " style="fill:rgb(145, 113, 66); fill-opacity:1.000; stroke:none;" />
 <path d="  M 23,8  L 24,8  L 24,7  L 23,7  Z  " style="fill:rgb(145, 113, 66); fill-opacity:1.000; stroke:none;" />
 <path d="  M 27,2  L 27,1  L 24,1  L 24,2  Z  " style="fill:rgb(145, 113, 66); fill-opacity:1.000; stroke:none;" />
 <path d="  M 25,7  L 25,8  L 27,8  L 27,7  Z  " style="fill:rgb(145, 113, 66); fill-opacity:1.000; stroke:none;" />
 <path d="  M 31,1  L 32,1  L 32,0  L 27,0  L 27,1  L 30,1  L 30,2  L 31,2  Z  " style="fill:rgb(145, 113, 66); fill-opacity:1.000; stroke:none;" />
 <path d="  M 27,3  L 27,4  L 31,4  L 31,3  Z  " style="fill:rgb(145, 113, 66); fill-opacity:1.000; stroke:none;" />
 <path d="  M 29,6  L 29,5  L 27,5  L 27,6  Z  " style="fill:rgb(145, 113, 66); fill-opacity:1.000; stroke:none;" />
 <path d="  M 28,8  L 29,8  L 29,7  L 28,7  Z  " style="fill:rgb(145, 113, 66); fill-opacity:1.000; stroke:none;" />
 <path d="  M 32,3  L 32,2  L 31,2  L 31,3  Z  " style="fill:rgb(145, 113, 66); fill-opacity:1.000; stroke:none;" />
 <path d="  M 32,5  L 32,4  L 31,4  L 31,5  Z  " style="fill:rgb(145, 113, 66); fill-opacity:1.000; stroke:none;" />
 <path d="  M 3,4  L 3,3  L 0,3  L 0,4  Z  " style="fill:rgb(116, 90, 54); fill-opacity:1.000; stroke:none;" />
 <path d="  M 1,6  L 1,5  L 0,5  L 0,6  Z  " style="fill:rgb(116, 90, 54); fill-opacity:1.000; stroke:none;" />
 <path d="  M 2,2  L 3,2  L 3,1  L 2,1  Z  " style="fill:rgb(116, 90, 54); fill-opacity:1.000; stroke:none;" />
 <path d="  M 4,3  L 5,3  L 5,2  L 4,2  Z  " style="fill:rgb(116, 90, 54); fill-opacity:1.000; stroke:none;" />
 <path d="  M 4,8  L 7,8  L 7,7  L 8,7  L 8,6  L 7,6  L 7,5  L 6,5  L 6,7  L 4,7  Z  " style="fill:rgb(116, 90, 54); fill-opacity:1.000; stroke:none;" />
 <path d="  M 8,1  L 8,0  L 7,0  L 7,1  Z  " style="fill:rgb(116, 90, 54); fill-opacity:1.000; stroke:none;" />
 <path d="  M 9,2  L 10,2  L 10,1  L 9,1  Z  " style="fill:rgb(116, 90, 54); fill-opacity:1.000; stroke:none;" />
 <path d="  M 11,6  L 9,6  L 9,7  L 11,7  Z  " style="fill:rgb(116, 90, 54); fill-opacity:1.000; stroke:none;" />
 <path d="  M 11,3  L 13,3  L 13,2  L 11,2  Z  " style="fill:rgb(116, 90, 54); fill-opacity:1.000; stroke:none;" />
 <path d="  M 13,6  L 13,5  L 12,5  L 12,6  Z  " style="fill:rgb(116, 90, 54); fill-opacity:1.000; stroke:none;" />
 <path d="  M 13,2  L 17,2  L 17,1  L 13,1  Z  " style="fill:rgb(116, 90, 54); fill-opacity:1.000; stroke:none;" />
 <path d="  M 13,7  L 13,8  L 14,8  L 14,7  Z  " style="fill:rgb(116, 90, 54); fill-opacity:1.000; stroke:none;" />
 <path d="  M 16,5  L 16,4  L 14,4  L 14,5  Z  " style="fill:rgb(116, 90, 54); fill-opacity:1.000; stroke:none;" />
 <path d="  M 15,6  L 14,6  L 14,7  L 15,7  Z  " style="fill:rgb(116, 90, 54); fill-opacity:1.000; stroke:none;" />
 <path d="  M 21,6  L 21,5  L 16,5  L 16,6  Z  " style="fill:rgb(116, 90, 54); fill-opacity:1.000; stroke:none;" />
 <path d="  M 20,3  L 21,3  L 21,2  L 19,2  L 19,3  L 18,3  L 18,4  L 20,4  Z  " style="fill:rgb(116, 90, 54); fill-opacity:1.000; stroke:none;" />
 <path d="  M 18,7  L 18,8  L 21,8  L 21,7  Z  " style="fill:rgb(116, 90, 54); fill-opacity:1.000; stroke:none;" />
 <path d="  M 23,1  L 23,0  L 21,0  L 21,1  Z  " style="fill:rgb(116, 90, 54); fill-opacity:1.000; stroke:none;" />
 <path d="  M 22,6  L 21,6  L 21,7  L 22,7  Z  " style="fill:rgb(116, 90, 54); fill-opacity:1.000; stroke:none;" />
 <path d="  M 22,5  L 23,5  L 23,4  L 22,4  Z  " style="fill:rgb(116, 90, 54); fill-opacity:1.000; stroke:none;" />
 <path d="  M 25,3  L 25,2  L 24,2  L 24,3  Z  " style="fill:rgb(116, 90, 54); fill-opacity:1.000; stroke:none;" />
 <path d="  M 25,6  L 25,5  L 24,5  L 24,6  Z  " style="fill:rgb(116, 90, 54); fill-opacity:1.000; stroke:none;" />
 <path d="  M 26,1  L 26,0  L 25,0  L 25,1  Z  " style="fill:rgb(116, 90, 54); fill-opacity:1.000; stroke:none;" />
 <path d="  M 26,3  L 26,4  L 27,4  L 27,3  Z  " style="fill:rgb(116, 90, 54); fill-opacity:1.000; stroke:none;" />
 <path d="  M 27,2  L 28,2  L 28,1  L 27,1  Z  " style="fill:rgb(116, 90, 54); fill-opacity:1.000; stroke:none;" />
 <path d="  M 31,3  L 31,2  L 30,2  L 30,3  Z  " style="fill:rgb(116, 90, 54); fill-opacity:1.000; stroke:none;" />
 <path d="  M 30,4  L 30,5  L 31,5  L 31,4  Z  " style="fill:rgb(116, 90, 54); fill-opacity:1.000; stroke:none;" />
 <path d="  M 0,8  L 4,8  L 4,7  L 0,7  Z  " style="fill:rgb(76, 61, 38); fill-opacity:1.000; stroke:none;" />
 <path d="  M 8,4  L 8,3  L 4,3  L 4,4  Z  " style="fill:rgb(76, 61, 38); fill-opacity:1.000; stroke:none;" />
 <path d="  M 12,6  L 12,7  L 14,7  L 14,6  Z  " style="fill:rgb(76, 61, 38); fill-opacity:1.000; stroke:none;" />
 <path d="  M 24,6  L 24,7  L 32,7  L 32,6  Z  " style="fill:rgb(76, 61, 38); fill-opacity:1.000; stroke:none;" />
 <path d="  M 30,3  L 30,2  L 26,2  L 26,3  Z  " style="fill:rgb(76, 61, 38); fill-opacity:1.000; stroke:none;" />
 <path d="  M 3,9  L 3,8  L 0,8  L 0,11  L 1,11  L 1,9  Z  " style="fill:rgb(184, 148, 95); fill-opacity:1.000; stroke:none;" />
 <path d="  M 1,13  L 1,12  L 0,12  L 0,13  Z  " style="fill:rgb(184, 148, 95); fill-opacity:1.000; stroke:none;" />
 <path d="  M 2,14  L 1,14  L 1,15  L 2,15  Z  " style="fill:rgb(184, 148, 95); fill-opacity:1.000; stroke:none;" />
 <path d="  M 3,15  L 3,16  L 4,16  L 4,15  Z  " style="fill:rgb(184, 148, 95); fill-opacity:1.000; stroke:none;" />
 <path d="  M 5,8  L 5,9  L 7,9  L 7,11  L 8,11  L 8,8  Z  " style="fill:rgb(184, 148, 95); fill-opacity:1.000; stroke:none;" />
 <path d="  M 7,15  L 7,14  L 6,14  L 6,15  Z  " style="fill:rgb(184, 148, 95); fill-opacity:1.000; stroke:none;" />
 <path d="  M 0,11  L 0,12  L 1,12  L 1,11  Z  " style="fill:rgb(194, 157, 98); fill-opacity:1.000; stroke:none;" />
 <path d="  M 1,13  L 0,13  L 0,15  L 1,15  Z  " style="fill:rgb(194, 157, 98); fill-opacity:1.000; stroke:none;" />
 <path d="  M 1,10  L 2,10  L 2,9  L 1,9  Z  " style="fill:rgb(194, 157, 98); fill-opacity:1.000; stroke:none;" />
 <path d="  M 1,15  L 1,16  L 3,16  L 3,15  Z  " style="fill:rgb(194, 157, 98); fill-opacity:1.000; stroke:none;" />
 <path d="  M 5,8  L 3,8  L 3,9  L 5,9  Z  " style="fill:rgb(194, 157, 98); fill-opacity:1.000; stroke:none;" />
 <path d="  M 7,9  L 6,9  L 6,10  L 7,10  Z  " style="fill:rgb(194, 157, 98); fill-opacity:1.000; stroke:none;" />
 <path d="  M 7,12  L 8,12  L 8,11  L 7,11  Z  " style="fill:rgb(194, 157, 98); fill-opacity:1.000; stroke:none;" />
 <path d="  M 1,15  L 0,15  L 0,16  L 1,16  Z  " style="fill:rgb(159, 132, 77); fill-opacity:1.000; stroke:none;" />
 <path d="  M 1,11  L 2,11  L 2,10  L 1,10  Z  " style="fill:rgb(159, 132, 77); fill-opacity:1.000; stroke:none;" />
 <path d="  M 1,12  L 1,14  L 2,14  L 2,15  L 4,15  L 4,14  L 3,14  L 3,13  L 2,13  L 2,12  Z  " style="fill:rgb(159, 132, 77); fill-opacity:1.000; stroke:none;" />
 <path d="  M 3,10  L 3,9  L 2,9  L 2,10  Z  " style="fill:rgb(159, 132, 77); fill-opacity:1.000; stroke:none;" />
 <path d="  M 4,11  L 3,11  L 3,13  L 4,13  Z  " style="fill:rgb(159, 132, 77); fill-opacity:1.000; stroke:none;" />
 <path d="  M 4,9  L 4,10  L 6,10  L 6,9  Z  " style="fill:rgb(159, 132, 77); fill-opacity:1.000; stroke:none;" />
 <path d="  M 7,15  L 6,15  L 6,14  L 7,14  Z  M 7,12  L 7,13  L 6,13  L 6,14  L 5,14  L 5,15  L 4,15  L 4,16  L 8,16  L 8,12  Z  " style="fill:rgb(159, 132, 77); fill-opacity:1.000; stroke:none;" />
 <path d="  M 7,12  L 7,10  L 6,10  L 6,11  L 5,11  L 5,12  Z  " style="fill:rgb(159, 132, 77); fill-opacity:1.000; stroke:none;" />
 <path d="  M 0,17  L 1,17  L 1,16  L 0,16  Z  " style="fill:rgb(58, 72, 95); fill-opacity:1.000; stroke:none;" />
 <path d="  M 5,22  L 6,22  L 6,23  L 7,23  L 7,24  L 9,24  L 9,25  L 10,25  L 10,24  L 11,24  L 11,23  L 10,23  L 10,21  L 6,21  L 6,20  L 1,20  L 1,19  L 3,19  L 3,17  L 1,17  L 1,18  L 0,18  L 0,21  L 2,21  L 2,22  L 4,22  L 4,23  L 3,23  L 3,25  L 4,25  L 4,27  L 6,27  L 6,26  L 5,26  L 5,25  L 6,25  L 6,24  L 5,24  Z  M 8,23  L 8,22  L 9,22  L 9,23  Z  " style="fill:rgb(58, 72, 95); fill-opacity:1.000; stroke:none;" />
 <path d="  M 2,24  L 2,23  L 0,23  L 0,25  L 1,25  L 1,24  Z  " style="fill:rgb(58, 72, 95); fill-opacity:1.000; stroke:none;" />
 <path d="  M 0,27  L 0,31  L 1,31  L 1,30  L 2,30  L 2,32  L 5,32  L 5,31  L 7,31  L 7,29  L 6,29  L 6,30  L 5,30  L 5,29  L 2,29  L 2,28  L 4,28  L 4,27  Z  M 4,31  L 3,31  L 3,30  L 4,30  Z  " style="fill:rgb(58, 72, 95); fill-opacity:1.000; stroke:none;" />
 <path d="  M 1,25  L 1,26  L 3,26  L 3,25  Z  " style="fill:rgb(58, 72, 95); fill-opacity:1.000; stroke:none;" />
 <path d="  M 6,29  L 6,28  L 5,28  L 5,29  Z  " style="fill:rgb(58, 72, 95); fill-opacity:1.000; stroke:none;" />
 <path d="  M 6,18  L 7,18  L 7,16  L 6,16  Z  " style="fill:rgb(58, 72, 95); fill-opacity:1.000; stroke:none;" />
 <path d="  M 7,19  L 8,19  L 8,20  L 10,20  L 10,21  L 11,21  L 11,20  L 12,20  L 12,19  L 13,19  L 13,18  L 11,18  L 11,19  L 9,19  L 9,17  L 8,17  L 8,18  L 7,18  Z  " style="fill:rgb(58, 72, 95); fill-opacity:1.000; stroke:none;" />
 <path d="  M 7,28  L 7,29  L 8,29  L 8,28  Z  " style="fill:rgb(58, 72, 95); fill-opacity:1.000; stroke:none;" />
 <path d="  M 11,16  L 9,16  L 9,17  L 10,17  L 10,18  L 11,18  Z  " style="fill:rgb(58, 72, 95); fill-opacity:1.000; stroke:none;" />
 <path d="  M 13,29  L 12,29  L 12,31  L 11,31  L 11,28  L 10,28  L 10,30  L 9,30  L 9,31  L 10,31  L 10,32  L 13,32  Z  " style="fill:rgb(58, 72, 95); fill-opacity:1.000; stroke:none;" />
 <path d="  M 12,22  L 11,22  L 11,23  L 12,23  Z  " style="fill:rgb(58, 72, 95); fill-opacity:1.000; stroke:none;" />
 <path d="  M 13,25  L 12,25  L 12,24  L 11,24  L 11,27  L 13,27  Z  " style="fill:rgb(58, 72, 95); fill-opacity:1.000; stroke:none;" />
 <path d="  M 12,17  L 14,17  L 14,16  L 12,16  Z  " style="fill:rgb(58, 72, 95); fill-opacity:1.000; stroke:none;" />
 <path d="  M 14,21  L 14,20  L 13,20  L 13,21  Z  " style="fill:rgb(58, 72, 95); fill-opacity:1.000; stroke:none;" />
 <path d="  M 14,20  L 15,20  L 15,17  L 14,17  Z  " style="fill:rgb(58, 72, 95); fill-opacity:1.000; stroke:none;" />
 <path d="  M 15,27  L 14,27  L 14,31  L 16,31  L 16,28  L 15,28  Z  " style="fill:rgb(58, 72, 95); fill-opacity:1.000; stroke:none;" />
 <path d="  M 16,17  L 16,16  L 15,16  L 15,17  Z  " style="fill:rgb(58, 72, 95); fill-opacity:1.000; stroke:none;" />
 <path d="  M 16,22  L 16,21  L 15,21  L 15,22  Z  " style="fill:rgb(58, 72, 95); fill-opacity:1.000; stroke:none;" />
 <path d="  M 16,23  L 15,23  L 15,24  L 16,24  Z  " style="fill:rgb(58, 72, 95); fill-opacity:1.000; stroke:none;" />
 <path d="  M 18,20  L 18,19  L 17,19  L 17,20  Z  " style="fill:rgb(58, 72, 95); fill-opacity:1.000; stroke:none;" />
 <path d="  M 18,22  L 17,22  L 17,23  L 18,23  Z  " style="fill:rgb(58, 72, 95); fill-opacity:1.000; stroke:none;" />
 <path d="  M 21,27  L 21,26  L 19,26  L 19,25  L 18,25  L 18,26  L 17,26  L 17,27  Z  " style="fill:rgb(58, 72, 95); fill-opacity:1.000; stroke:none;" />
 <path d="  M 17,31  L 18,31  L 18,30  L 17,30  Z  " style="fill:rgb(58, 72, 95); fill-opacity:1.000; stroke:none;" />
 <path d="  M 18,21  L 18,22  L 19,22  L 19,23  L 20,23  L 20,21  Z  " style="fill:rgb(58, 72, 95); fill-opacity:1.000; stroke:none;" />
 <path d="  M 19,30  L 19,31  L 18,31  L 18,32  L 21,32  L 21,31  L 20,31  L 20,30  Z  " style="fill:rgb(58, 72, 95); fill-opacity:1.000; stroke:none;" />
 <path d="  M 19,17  L 20,17  L 20,16  L 19,16  Z  " style="fill:rgb(58, 72, 95); fill-opacity:1.000; stroke:none;" />
 <path d="  M 20,24  L 20,25  L 21,25  L 21,24  Z  " style="fill:rgb(58, 72, 95); fill-opacity:1.000; stroke:none;" />
 <path d="  M 22,17  L 22,19  L 23,19  L 23,20  L 25,20  L 25,19  L 24,19  L 24,17  Z  " style="fill:rgb(58, 72, 95); fill-opacity:1.000; stroke:none;" />
 <path d="  M 23,22  L 23,21  L 22,21  L 22,22  Z  " style="fill:rgb(58, 72, 95); fill-opacity:1.000; stroke:none;" />
 <path d="  M 29,23  L 29,19  L 28,19  L 28,21  L 26,21  L 26,20  L 25,20  L 25,22  L 23,22  L 23,23  L 22,23  L 22,27  L 23,27  L 23,26  L 24,26  L 24,25  L 23,25  L 23,24  L 25,24  L 25,23  L 26,23  L 26,22  L 28,22  L 28,23  Z  " style="fill:rgb(58, 72, 95); fill-opacity:1.000; stroke:none;" />
 <path d="  M 25,31  L 25,26  L 24,26  L 24,27  L 23,27  L 23,28  L 24,28  L 24,29  L 23,29  L 23,31  L 24,31  L 24,32  L 28,32  L 28,31  Z  " style="fill:rgb(58, 72, 95); fill-opacity:1.000; stroke:none;" />
 <path d="  M 26,17  L 26,16  L 24,16  L 24,17  Z  " style="fill:rgb(58, 72, 95); fill-opacity:1.000; stroke:none;" />
 <path d="  M 27,26  L 27,25  L 25,25  L 25,26  Z  " style="fill:rgb(58, 72, 95); fill-opacity:1.000; stroke:none;" />
 <path d="  M 27,19  L 26,19  L 26,20  L 27,20  Z  " style="fill:rgb(58, 72, 95); fill-opacity:1.000; stroke:none;" />
 <path d="  M 26,30  L 28,30  L 28,29  L 26,29  Z  " style="fill:rgb(58, 72, 95); fill-opacity:1.000; stroke:none;" />
 <path d="  M 27,16  L 27,17  L 30,17  L 30,16  Z  " style="fill:rgb(58, 72, 95); fill-opacity:1.000; stroke:none;" />
 <path d="  M 27,24  L 28,24  L 28,23  L 27,23  Z  " style="fill:rgb(58, 72, 95); fill-opacity:1.000; stroke:none;" />
 <path d="  M 29,28  L 29,27  L 27,27  L 27,28  Z  " style="fill:rgb(58, 72, 95); fill-opacity:1.000; stroke:none;" />
 <path d="  M 29,18  L 29,19  L 30,19  L 30,18  Z  " style="fill:rgb(58, 72, 95); fill-opacity:1.000; stroke:none;" />
 <path d="  M 31,29  L 31,28  L 29,28  L 29,29  Z  " style="fill:rgb(58, 72, 95); fill-opacity:1.000; stroke:none;" />
 <path d="  M 30,22  L 31,22  L 31,20  L 30,20  Z  " style="fill:rgb(58, 72, 95); fill-opacity:1.000; stroke:none;" />
 <path d="  M 1,17  L 0,17  L 0,18  L 1,18  Z  " style="fill:rgb(44, 53, 67); fill-opacity:1.000; stroke:none;" />
 <path d="  M 2,21  L 0,21  L 0,23  L 2,23  Z  " style="fill:rgb(44, 53, 67); fill-opacity:1.000; stroke:none;" />
 <path d="  M 3,27  L 3,26  L 1,26  L 1,25  L 0,25  L 0,27  Z  " style="fill:rgb(44, 53, 67); fill-opacity:1.000; stroke:none;" />
 <path d="  M 2,32  L 2,30  L 1,30  L 1,31  L 0,31  L 0,32  Z  " style="fill:rgb(44, 53, 67); fill-opacity:1.000; stroke:none;" />
 <path d="  M 1,16  L 1,17  L 2,17  L 2,16  Z  " style="fill:rgb(44, 53, 67); fill-opacity:1.000; stroke:none;" />
 <path d="  M 1,19  L 1,20  L 5,20  L 5,19  L 4,19  L 4,17  L 3,17  L 3,19  Z  " style="fill:rgb(44, 53, 67); fill-opacity:1.000; stroke:none;" />
 <path d="  M 2,24  L 1,24  L 1,25  L 3,25  L 3,23  L 2,23  Z  " style="fill:rgb(44, 53, 67); fill-opacity:1.000; stroke:none;" />
 <path d="  M 2,29  L 3,29  L 3,28  L 2,28  Z  " style="fill:rgb(44, 53, 67); fill-opacity:1.000; stroke:none;" />
 <path d="  M 4,22  L 3,22  L 3,23  L 4,23  Z  " style="fill:rgb(44, 53, 67); fill-opacity:1.000; stroke:none;" />
 <path d="  M 4,30  L 3,30  L 3,31  L 4,31  Z  " style="fill:rgb(44, 53, 67); fill-opacity:1.000; stroke:none;" />
 <path d="  M 5,24  L 6,24  L 6,22  L 5,22  Z  " style="fill:rgb(44, 53, 67); fill-opacity:1.000; stroke:none;" />
 <path d="  M 8,16  L 7,16  L 7,17  L 8,17  Z  " style="fill:rgb(44, 53, 67); fill-opacity:1.000; stroke:none;" />
 <path d="  M 7,20  L 8,20  L 8,19  L 7,19  Z  " style="fill:rgb(44, 53, 67); fill-opacity:1.000; stroke:none;" />
 <path d="  M 8,25  L 8,26  L 9,26  L 9,24  L 7,24  L 7,25  Z  " style="fill:rgb(44, 53, 67); fill-opacity:1.000; stroke:none;" />
 <path d="  M 9,20  L 8,20  L 8,21  L 9,21  Z  " style="fill:rgb(44, 53, 67); fill-opacity:1.000; stroke:none;" />
 <path d="  M 9,22  L 8,22  L 8,23  L 9,23  Z  " style="fill:rgb(44, 53, 67); fill-opacity:1.000; stroke:none;" />
 <path d="  M 8,28  L 8,30  L 9,30  L 9,29  L 10,29  L 10,28  Z  " style="fill:rgb(44, 53, 67); fill-opacity:1.000; stroke:none;" />
 <path d="  M 10,18  L 10,17  L 9,17  L 9,19  L 11,19  L 11,18  Z  " style="fill:rgb(44, 53, 67); fill-opacity:1.000; stroke:none;" />
 <path d="  M 9,27  L 10,27  L 10,28  L 13,28  L 13,29  L 14,29  L 14,26  L 13,26  L 13,27  L 11,27  L 11,24  L 10,24  L 10,26  L 9,26  Z  " style="fill:rgb(44, 53, 67); fill-opacity:1.000; stroke:none;" />
 <path d="  M 11,23  L 11,22  L 12,22  L 12,20  L 11,20  L 11,21  L 10,21  L 10,23  Z  " style="fill:rgb(44, 53, 67); fill-opacity:1.000; stroke:none;" />
 <path d="  M 12,17  L 12,16  L 11,16  L 11,17  Z  " style="fill:rgb(44, 53, 67); fill-opacity:1.000; stroke:none;" />
 <path d="  M 13,24  L 13,23  L 11,23  L 11,24  Z  " style="fill:rgb(44, 53, 67); fill-opacity:1.000; stroke:none;" />
 <path d="  M 13,19  L 12,19  L 12,20  L 13,20  Z  " style="fill:rgb(44, 53, 67); fill-opacity:1.000; stroke:none;" />
 <path d="  M 14,18  L 13,18  L 13,19  L 14,19  Z  " style="fill:rgb(44, 53, 67); fill-opacity:1.000; stroke:none;" />
 <path d="  M 14,22  L 15,22  L 15,21  L 13,21  L 13,23  L 14,23  Z  " style="fill:rgb(44, 53, 67); fill-opacity:1.000; stroke:none;" />
 <path d="  M 15,32  L 15,31  L 14,31  L 14,30  L 13,30  L 13,32  Z  " style="fill:rgb(44, 53, 67); fill-opacity:1.000; stroke:none;" />
 <path d="  M 14,16  L 14,17  L 15,17  L 15,16  Z  " style="fill:rgb(44, 53, 67); fill-opacity:1.000; stroke:none;" />
 <path d="  M 20,21  L 20,23  L 23,23  L 23,22  L 24,22  L 24,21  L 25,21  L 25,20  L 22,20  L 22,17  L 24,17  L 24,16  L 20,16  L 20,18  L 18,18  L 18,20  L 15,20  L 15,21  L 16,21  L 16,22  L 15,22  L 15,23  L 16,23  L 16,24  L 14,24  L 14,26  L 17,26  L 17,22  L 18,22  L 18,21  Z  M 20,20  L 20,19  L 21,19  L 21,20  Z  M 23,22  L 22,22  L 22,21  L 23,21  Z  " style="fill:rgb(44, 53, 67); fill-opacity:1.000; stroke:none;" />
 <path d="  M 16,18  L 15,18  L 15,19  L 16,19  Z  " style="fill:rgb(44, 53, 67); fill-opacity:1.000; stroke:none;" />
 <path d="  M 16,17  L 17,17  L 17,16  L 16,16  Z  " style="fill:rgb(44, 53, 67); fill-opacity:1.000; stroke:none;" />
 <path d="  M 18,32  L 18,31  L 19,31  L 19,30  L 20,30  L 20,28  L 19,28  L 19,27  L 17,27  L 17,29  L 16,29  L 16,32  Z  M 17,30  L 18,30  L 18,31  L 17,31  Z  M 18,28  L 19,28  L 19,29  L 18,29  Z  " style="fill:rgb(44, 53, 67); fill-opacity:1.000; stroke:none;" />
 <path d="  M 21,28  L 21,29  L 22,29  L 22,25  L 21,25  L 21,27  L 20,27  L 20,28  Z  " style="fill:rgb(44, 53, 67); fill-opacity:1.000; stroke:none;" />
 <path d="  M 23,30  L 20,30  L 20,31  L 21,31  L 21,32  L 24,32  L 24,31  L 23,31  Z  " style="fill:rgb(44, 53, 67); fill-opacity:1.000; stroke:none;" />
 <path d="  M 23,25  L 24,25  L 24,26  L 25,26  L 25,24  L 23,24  Z  " style="fill:rgb(44, 53, 67); fill-opacity:1.000; stroke:none;" />
 <path d="  M 23,26  L 23,27  L 24,27  L 24,26  Z  " style="fill:rgb(44, 53, 67); fill-opacity:1.000; stroke:none;" />
 <path d="  M 23,29  L 24,29  L 24,28  L 23,28  Z  " style="fill:rgb(44, 53, 67); fill-opacity:1.000; stroke:none;" />
 <path d="  M 24,18  L 24,19  L 25,19  L 25,18  Z  " style="fill:rgb(44, 53, 67); fill-opacity:1.000; stroke:none;" />
 <path d="  M 26,20  L 26,19  L 25,19  L 25,20  Z  " style="fill:rgb(44, 53, 67); fill-opacity:1.000; stroke:none;" />
 <path d="  M 27,27  L 27,26  L 25,26  L 25,27  Z  " style="fill:rgb(44, 53, 67); fill-opacity:1.000; stroke:none;" />
 <path d="  M 26,29  L 26,28  L 25,28  L 25,29  Z  " style="fill:rgb(44, 53, 67); fill-opacity:1.000; stroke:none;" />
 <path d="  M 26,25  L 27,25  L 27,24  L 26,24  Z  " style="fill:rgb(44, 53, 67); fill-opacity:1.000; stroke:none;" />
 <path d="  M 26,31  L 27,31  L 27,30  L 26,30  Z  " style="fill:rgb(44, 53, 67); fill-opacity:1.000; stroke:none;" />
 <path d="  M 29,18  L 29,17  L 28,17  L 28,18  Z  " style="fill:rgb(44, 53, 67); fill-opacity:1.000; stroke:none;" />
 <path d="  M 28,24  L 28,25  L 29,25  L 29,24  Z  " style="fill:rgb(44, 53, 67); fill-opacity:1.000; stroke:none;" />
 <path d="  M 28,27  L 29,27  L 29,26  L 28,26  Z  " style="fill:rgb(44, 53, 67); fill-opacity:1.000; stroke:none;" />
 <path d="  M 31,30  L 31,29  L 29,29  L 29,30  L 28,30  L 28,32  L 32,32  L 32,30  Z  " style="fill:rgb(44, 53, 67); fill-opacity:1.000; stroke:none;" />
 <path d="  M 29,19  L 29,20  L 31,20  L 31,18  L 30,18  L 30,19  Z  " style="fill:rgb(44, 53, 67); fill-opacity:1.000; stroke:none;" />
 <path d="  M 30,24  L 30,25  L 32,25  L 32,20  L 31,20  L 31,22  L 30,22  L 30,21  L 29,21  L 29,24  Z  " style="fill:rgb(44, 53, 67); fill-opacity:1.000; stroke:none;" />
 <path d="  M 29,25  L 29,26  L 30,26  L 30,25  Z  " style="fill:rgb(44, 53, 67); fill-opacity:1.000; stroke:none;" />
 <path d="  M 31,16  L 30,16  L 30,17  L 31,17  Z  " style="fill:rgb(44, 53, 67); fill-opacity:1.000; stroke:none;" />
 <path d="  M 2,2  L 2,1  L 1,1  L 1,2  Z  " style="fill:rgb(95, 74, 43); fill-opacity:1.000; stroke:none;" />
 <path d="  M 3,3  L 3,4  L 4,4  L 4,3  Z  " style="fill:rgb(95, 74, 43); fill-opacity:1.000; stroke:none;" />
 <path d="  M 13,1  L 13,0  L 8,0  L 8,1  Z  " style="fill:rgb(95, 74, 43); fill-opacity:1.000; stroke:none;" />
 <path d="  M 10,4  L 10,3  L 8,3  L 8,4  Z  " style="fill:rgb(95, 74, 43); fill-opacity:1.000; stroke:none;" />
 <path d="  M 12,6  L 11,6  L 11,7  L 12,7  Z  " style="fill:rgb(95, 74, 43); fill-opacity:1.000; stroke:none;" />
 <path d="  M 16,4  L 16,5  L 22,5  L 22,4  Z  " style="fill:rgb(95, 74, 43); fill-opacity:1.000; stroke:none;" />
 <path d="  M 20,1  L 21,1  L 21,0  L 20,0  Z  " style="fill:rgb(95, 74, 43); fill-opacity:1.000; stroke:none;" />
 <path d="  M 24,7  L 24,6  L 22,6  L 22,7  Z  " style="fill:rgb(95, 74, 43); fill-opacity:1.000; stroke:none;" />
 <path d="  M 25,8  L 25,7  L 24,7  L 24,8  Z  " style="fill:rgb(95, 74, 43); fill-opacity:1.000; stroke:none;" />
 <path d="  M 25,2  L 25,3  L 26,3  L 26,2  Z  " style="fill:rgb(95, 74, 43); fill-opacity:1.000; stroke:none;" />
 <path d="  M 27,5  L 26,5  L 26,6  L 27,6  Z  " style="fill:rgb(95, 74, 43); fill-opacity:1.000; stroke:none;" />
 <path d="  M 30,1  L 28,1  L 28,2  L 30,2  Z  " style="fill:rgb(95, 74, 43); fill-opacity:1.000; stroke:none;" />
 <path d="  M 30,4  L 29,4  L 29,5  L 30,5  Z  " style="fill:rgb(95, 74, 43); fill-opacity:1.000; stroke:none;" />
 <path d="  M 32,8  L 32,7  L 29,7  L 29,8  Z  " style="fill:rgb(95, 74, 43); fill-opacity:1.000; stroke:none;" />
 <path d="  M 1,11  L 1,12  L 2,12  L 2,13  L 3,13  L 3,14  L 4,14  L 4,15  L 5,15  L 5,14  L 6,14  L 6,13  L 7,13  L 7,12  L 5,12  L 5,11  L 6,11  L 6,10  L 4,10  L 4,9  L 3,9  L 3,10  L 2,10  L 2,11  Z  M 3,13  L 3,11  L 4,11  L 4,13  Z  " style="fill:rgb(150, 116, 65); fill-opacity:1.000; stroke:none;" />
 <path d="  M 4,17  L 4,19  L 5,19  L 5,18  L 6,18  L 6,16  L 2,16  L 2,17  Z  " style="fill:rgb(31, 35, 41); fill-opacity:1.000; stroke:none;" />
 <path d="  M 4,27  L 4,25  L 3,25  L 3,27  Z  " style="fill:rgb(31, 35, 41); fill-opacity:1.000; stroke:none;" />
 <path d="  M 5,27  L 4,27  L 4,28  L 3,28  L 3,29  L 5,29  Z  " style="fill:rgb(31, 35, 41); fill-opacity:1.000; stroke:none;" />
 <path d="  M 7,20  L 7,18  L 6,18  L 6,19  L 5,19  L 5,20  L 6,20  L 6,21  L 8,21  L 8,20  Z  " style="fill:rgb(31, 35, 41); fill-opacity:1.000; stroke:none;" />
 <path d="  M 5,25  L 5,26  L 8,26  L 8,25  L 7,25  L 7,23  L 6,23  L 6,25  Z  " style="fill:rgb(31, 35, 41); fill-opacity:1.000; stroke:none;" />
 <path d="  M 5,29  L 5,30  L 6,30  L 6,29  Z  " style="fill:rgb(31, 35, 41); fill-opacity:1.000; stroke:none;" />
 <path d="  M 5,31  L 5,32  L 7,32  L 7,31  Z  " style="fill:rgb(31, 35, 41); fill-opacity:1.000; stroke:none;" />
 <path d="  M 7,28  L 7,27  L 6,27  L 6,28  Z  " style="fill:rgb(31, 35, 41); fill-opacity:1.000; stroke:none;" />
 <path d="  M 8,17  L 7,17  L 7,18  L 8,18  Z  " style="fill:rgb(31, 35, 41); fill-opacity:1.000; stroke:none;" />
 <path d="  M 7,31  L 8,31  L 8,29  L 7,29  Z  " style="fill:rgb(31, 35, 41); fill-opacity:1.000; stroke:none;" />
 <path d="  M 8,17  L 9,17  L 9,16  L 8,16  Z  " style="fill:rgb(31, 35, 41); fill-opacity:1.000; stroke:none;" />
 <path d="  M 10,27  L 9,27  L 9,26  L 8,26  L 8,28  L 10,28  Z  " style="fill:rgb(31, 35, 41); fill-opacity:1.000; stroke:none;" />
 <path d="  M 10,26  L 10,25  L 9,25  L 9,26  Z  " style="fill:rgb(31, 35, 41); fill-opacity:1.000; stroke:none;" />
 <path d="  M 11,28  L 11,31  L 12,31  L 12,29  L 13,29  L 13,28  Z  " style="fill:rgb(31, 35, 41); fill-opacity:1.000; stroke:none;" />
 <path d="  M 12,23  L 13,23  L 13,20  L 12,20  Z  " style="fill:rgb(31, 35, 41); fill-opacity:1.000; stroke:none;" />
 <path d="  M 13,19  L 13,20  L 14,20  L 14,19  Z  " style="fill:rgb(31, 35, 41); fill-opacity:1.000; stroke:none;" />
 <path d="  M 14,23  L 13,23  L 13,24  L 15,24  L 15,22  L 14,22  Z  " style="fill:rgb(31, 35, 41); fill-opacity:1.000; stroke:none;" />
 <path d="  M 14,26  L 14,25  L 13,25  L 13,26  Z  " style="fill:rgb(31, 35, 41); fill-opacity:1.000; stroke:none;" />
 <path d="  M 13,29  L 13,30  L 14,30  L 14,29  Z  " style="fill:rgb(31, 35, 41); fill-opacity:1.000; stroke:none;" />
 <path d="  M 15,20  L 14,20  L 14,21  L 15,21  Z  " style="fill:rgb(31, 35, 41); fill-opacity:1.000; stroke:none;" />
 <path d="  M 15,20  L 17,20  L 17,19  L 15,19  Z  " style="fill:rgb(31, 35, 41); fill-opacity:1.000; stroke:none;" />
 <path d="  M 16,27  L 16,26  L 15,26  L 15,27  Z  " style="fill:rgb(31, 35, 41); fill-opacity:1.000; stroke:none;" />
 <path d="  M 16,32  L 16,31  L 15,31  L 15,32  Z  " style="fill:rgb(31, 35, 41); fill-opacity:1.000; stroke:none;" />
 <path d="  M 17,29  L 17,27  L 16,27  L 16,29  Z  " style="fill:rgb(31, 35, 41); fill-opacity:1.000; stroke:none;" />
 <path d="  M 18,17  L 17,17  L 17,19  L 18,19  L 18,18  L 20,18  L 20,17  L 19,17  L 19,16  L 18,16  Z  " style="fill:rgb(31, 35, 41); fill-opacity:1.000; stroke:none;" />
 <path d="  M 21,25  L 20,25  L 20,24  L 21,24  Z  M 22,23  L 19,23  L 19,22  L 18,22  L 18,23  L 17,23  L 17,25  L 19,25  L 19,26  L 21,26  L 21,25  L 22,25  Z  " style="fill:rgb(31, 35, 41); fill-opacity:1.000; stroke:none;" />
 <path d="  M 19,29  L 19,28  L 18,28  L 18,29  Z  " style="fill:rgb(31, 35, 41); fill-opacity:1.000; stroke:none;" />
 <path d="  M 24,18  L 25,18  L 25,19  L 27,19  L 27,18  L 26,18  L 26,17  L 24,17  Z  " style="fill:rgb(31, 35, 41); fill-opacity:1.000; stroke:none;" />
 <path d="  M 26,23  L 25,23  L 25,24  L 26,24  Z  " style="fill:rgb(31, 35, 41); fill-opacity:1.000; stroke:none;" />
 <path d="  M 25,27  L 25,28  L 26,28  L 26,29  L 28,29  L 28,30  L 29,30  L 29,28  L 27,28  L 27,27  Z  " style="fill:rgb(31, 35, 41); fill-opacity:1.000; stroke:none;" />
 <path d="  M 25,31  L 26,31  L 26,29  L 25,29  Z  " style="fill:rgb(31, 35, 41); fill-opacity:1.000; stroke:none;" />
 <path d="  M 27,20  L 26,20  L 26,21  L 28,21  L 28,19  L 27,19  Z  " style="fill:rgb(31, 35, 41); fill-opacity:1.000; stroke:none;" />
 <path d="  M 28,23  L 28,22  L 26,22  L 26,23  Z  " style="fill:rgb(31, 35, 41); fill-opacity:1.000; stroke:none;" />
 <path d="  M 28,17  L 27,17  L 27,18  L 28,18  Z  " style="fill:rgb(31, 35, 41); fill-opacity:1.000; stroke:none;" />
 <path d="  M 28,25  L 28,24  L 27,24  L 27,27  L 28,27  L 28,26  L 29,26  L 29,25  Z  " style="fill:rgb(31, 35, 41); fill-opacity:1.000; stroke:none;" />
 <path d="  M 27,31  L 28,31  L 28,30  L 27,30  Z  " style="fill:rgb(31, 35, 41); fill-opacity:1.000; stroke:none;" />
 <path d="  M 28,19  L 29,19  L 29,18  L 28,18  Z  " style="fill:rgb(31, 35, 41); fill-opacity:1.000; stroke:none;" />
 <path d="  M 28,23  L 28,24  L 29,24  L 29,23  Z  " style="fill:rgb(31, 35, 41); fill-opacity:1.000; stroke:none;" />
 <path d="  M 29,21  L 30,21  L 30,20  L 29,20  Z  " style="fill:rgb(31, 35, 41); fill-opacity:1.000; stroke:none;" />
 <path d="  M 29,25  L 30,25  L 30,24  L 29,24  Z  " style="fill:rgb(31, 35, 41); fill-opacity:1.000; stroke:none;" />
 <path d="  M 30,25  L 30,26  L 29,26  L 29,28  L 30,28  L 30,27  L 31,27  L 31,26  L 32,26  L 32,25  Z  " style="fill:rgb(31, 35, 41); fill-opacity:1.000; stroke:none;" />
 <path d="  M 30,17  L 30,18  L 31,18  L 31,17  Z  " style="fill:rgb(31, 35, 41); fill-opacity:1.000; stroke:none;" />
 <path d="  M 31,18  L 31,20  L 32,20  L 32,18  Z  " style="fill:rgb(31, 35, 41); fill-opacity:1.000; stroke:none;" />
 <path d="  M 31,27  L 31,30  L 32,30  L 32,27  Z  " style="fill:rgb(31, 35, 41); fill-opacity:1.000; stroke:none;" />
 <path d="  M 2,23  L 3,23  L 3,22  L 2,22  Z  " style="fill:rgb(86, 99, 120); fill-opacity:1.000; stroke:none;" />
 <path d="  M 8,31  L 7,31  L 7,32  L 10,32  L 10,31  L 9,31  L 9,30  L 8,30  Z  " style="fill:rgb(86, 99, 120); fill-opacity:1.000; stroke:none;" />
 <path d="  M 10,21  L 10,20  L 9,20  L 9,21  Z  " style="fill:rgb(86, 99, 120); fill-opacity:1.000; stroke:none;" />
 <path d="  M 10,30  L 10,29  L 9,29  L 9,30  Z  " style="fill:rgb(86, 99, 120); fill-opacity:1.000; stroke:none;" />
 <path d="  M 11,17  L 11,18  L 14,18  L 14,17  Z  " style="fill:rgb(86, 99, 120); fill-opacity:1.000; stroke:none;" />
 <path d="  M 12,25  L 14,25  L 14,24  L 12,24  Z  " style="fill:rgb(86, 99, 120); fill-opacity:1.000; stroke:none;" />
 <path d="  M 15,26  L 14,26  L 14,27  L 15,27  Z  " style="fill:rgb(86, 99, 120); fill-opacity:1.000; stroke:none;" />
 <path d="  M 19,28  L 20,28  L 20,27  L 19,27  Z  " style="fill:rgb(86, 99, 120); fill-opacity:1.000; stroke:none;" />
 <path d="  M 21,20  L 21,19  L 20,19  L 20,20  Z  " style="fill:rgb(86, 99, 120); fill-opacity:1.000; stroke:none;" />
 <path d="  M 21,29  L 21,28  L 20,28  L 20,30  L 23,30  L 23,27  L 22,27  L 22,29  Z  " style="fill:rgb(86, 99, 120); fill-opacity:1.000; stroke:none;" />
 <path d="  M 22,19  L 22,20  L 23,20  L 23,19  Z  " style="fill:rgb(86, 99, 120); fill-opacity:1.000; stroke:none;" />
 <path d="  M 24,21  L 24,22  L 25,22  L 25,21  Z  " style="fill:rgb(86, 99, 120); fill-opacity:1.000; stroke:none;" />
 <path d="  M 26,25  L 26,24  L 25,24  L 25,25  Z  " style="fill:rgb(86, 99, 120); fill-opacity:1.000; stroke:none;" />
 <path d="  M 26,24  L 27,24  L 27,23  L 26,23  Z  " style="fill:rgb(86, 99, 120); fill-opacity:1.000; stroke:none;" />
 <path d="  M 6,19  L 6,18  L 5,18  L 5,19  Z  " style="fill:rgb(25, 27, 30); fill-opacity:1.000; stroke:none;" />
 <path d="  M 5,28  L 6,28  L 6,27  L 5,27  Z  " style="fill:rgb(25, 27, 30); fill-opacity:1.000; stroke:none;" />
 <path d="  M 8,26  L 6,26  L 6,27  L 7,27  L 7,28  L 8,28  Z  " style="fill:rgb(25, 27, 30); fill-opacity:1.000; stroke:none;" />
 <path d="  M 6,28  L 6,29  L 7,29  L 7,28  Z  " style="fill:rgb(25, 27, 30); fill-opacity:1.000; stroke:none;" />
 <path d="  M 17,19  L 17,17  L 15,17  L 15,18  L 16,18  L 16,19  Z  " style="fill:rgb(25, 27, 30); fill-opacity:1.000; stroke:none;" />
 <path d="  M 16,27  L 15,27  L 15,28  L 16,28  Z  " style="fill:rgb(25, 27, 30); fill-opacity:1.000; stroke:none;" />
 <path d="  M 16,26  L 16,27  L 17,27  L 17,26  Z  " style="fill:rgb(25, 27, 30); fill-opacity:1.000; stroke:none;" />
 <path d="  M 18,17  L 18,16  L 17,16  L 17,17  Z  " style="fill:rgb(25, 27, 30); fill-opacity:1.000; stroke:none;" />
 <path d="  M 18,25  L 17,25  L 17,26  L 18,26  Z  " style="fill:rgb(25, 27, 30); fill-opacity:1.000; stroke:none;" />
 <path d="  M 26,18  L 27,18  L 27,16  L 26,16  Z  " style="fill:rgb(25, 27, 30); fill-opacity:1.000; stroke:none;" />
 <path d="  M 27,19  L 28,19  L 28,18  L 27,18  Z  " style="fill:rgb(25, 27, 30); fill-opacity:1.000; stroke:none;" />
 <path d="  M 29,18  L 30,18  L 30,17  L 29,17  Z  " style="fill:rgb(25, 27, 30); fill-opacity:1.000; stroke:none;" />
 <path d="  M 30,27  L 30,28  L 31,28  L 31,27  Z  " style="fill:rgb(25, 27, 30); fill-opacity:1.000; stroke:none;" />
 <path d="  M 32,16  L 31,16  L 31,18  L 32,18  Z  " style="fill:rgb(25, 27, 30); fill-opacity:1.000; stroke:none;" />
 <path d="  M 31,27  L 32,27  L 32,26  L 31,26  Z  " style="fill:rgb(25, 27, 30); fill-opacity:1.000; stroke:none;" />
</svg>
