<?xml version="1.0" encoding="UTF-8" standalone="no"?>
<!DOCTYPE svg PUBLIC "-//W3C//DTD SVG 1.1//EN" 
  "http://www.w3.org/Graphics/SVG/1.1/DTD/svg11.dtd">
<svg width="32" height="32"
	 xmlns="http://www.w3.org/2000/svg" version="1.1">
 <path d="  M 1,1  L 1,0  L 0,0  L 0,1  Z  " style="fill:rgb(196, 206, 210); fill-opacity:1.000; stroke:none;" />
 <path d="  M 2,15  L 0,15  L 0,16  L 2,16  Z  " style="fill:rgb(196, 206, 210); fill-opacity:1.000; stroke:none;" />
 <path d="  M 0,32  L 1,32  L 1,31  L 0,31  Z  " style="fill:rgb(196, 206, 210); fill-opacity:1.000; stroke:none;" />
 <path d="  M 2,2  L 2,1  L 1,1  L 1,2  Z  " style="fill:rgb(196, 206, 210); fill-opacity:1.000; stroke:none;" />
 <path d="  M 2,31  L 2,30  L 1,30  L 1,31  Z  " style="fill:rgb(196, 206, 210); fill-opacity:1.000; stroke:none;" />
 <path d="  M 3,17  L 4,17  L 4,16  L 3,16  Z  " style="fill:rgb(196, 206, 210); fill-opacity:1.000; stroke:none;" />
 <path d="  M 6,12  L 6,11  L 5,11  L 5,12  Z  " style="fill:rgb(196, 206, 210); fill-opacity:1.000; stroke:none;" />
 <path d="  M 7,6  L 7,5  L 6,5  L 6,6  Z  " style="fill:rgb(196, 206, 210); fill-opacity:1.000; stroke:none;" />
 <path d="  M 7,8  L 6,8  L 6,10  L 7,10  Z  " style="fill:rgb(196, 206, 210); fill-opacity:1.000; stroke:none;" />
 <path d="  M 7,25  L 8,25  L 8,24  L 6,24  L 6,26  L 7,26  Z  " style="fill:rgb(196, 206, 210); fill-opacity:1.000; stroke:none;" />
 <path d="  M 8,14  L 9,14  L 9,13  L 8,13  Z  " style="fill:rgb(196, 206, 210); fill-opacity:1.000; stroke:none;" />
 <path d="  M 11,5  L 10,5  L 10,6  L 11,6  Z  " style="fill:rgb(196, 206, 210); fill-opacity:1.000; stroke:none;" />
 <path d="  M 11,18  L 10,18  L 10,19  L 11,19  Z  " style="fill:rgb(196, 206, 210); fill-opacity:1.000; stroke:none;" />
 <path d="  M 11,4  L 11,5  L 12,5  L 12,4  Z  " style="fill:rgb(196, 206, 210); fill-opacity:1.000; stroke:none;" />
 <path d="  M 14,28  L 12,28  L 12,29  L 13,29  L 13,30  L 14,30  Z  " style="fill:rgb(196, 206, 210); fill-opacity:1.000; stroke:none;" />
 <path d="  M 14,4  L 14,3  L 13,3  L 13,4  Z  " style="fill:rgb(196, 206, 210); fill-opacity:1.000; stroke:none;" />
 <path d="  M 14,9  L 15,9  L 15,8  L 14,8  Z  " style="fill:rgb(196, 206, 210); fill-opacity:1.000; stroke:none;" />
 <path d="  M 16,25  L 17,25  L 17,24  L 16,24  Z  " style="fill:rgb(196, 206, 210); fill-opacity:1.000; stroke:none;" />
 <path d="  M 17,8  L 18,8  L 18,7  L 17,7  Z  " style="fill:rgb(196, 206, 210); fill-opacity:1.000; stroke:none;" />
 <path d="  M 20,22  L 19,22  L 19,23  L 20,23  Z  " style="fill:rgb(196, 206, 210); fill-opacity:1.000; stroke:none;" />
 <path d="  M 24,18  L 25,18  L 25,17  L 26,17  L 26,16  L 24,16  Z  " style="fill:rgb(196, 206, 210); fill-opacity:1.000; stroke:none;" />
 <path d="  M 26,26  L 27,26  L 27,25  L 26,25  Z  " style="fill:rgb(196, 206, 210); fill-opacity:1.000; stroke:none;" />
 <path d="  M 28,25  L 28,24  L 27,24  L 27,25  Z  " style="fill:rgb(196, 206, 210); fill-opacity:1.000; stroke:none;" />
 <path d="  M 28,14  L 29,14  L 29,13  L 28,13  Z  " style="fill:rgb(196, 206, 210); fill-opacity:1.000; stroke:none;" />
 <path d="  M 31,2  L 31,1  L 30,1  L 30,2  Z  " style="fill:rgb(196, 206, 210); fill-opacity:1.000; stroke:none;" />
 <path d="  M 31,18  L 31,17  L 32,17  L 32,16  L 30,16  L 30,18  Z  " style="fill:rgb(196, 206, 210); fill-opacity:1.000; stroke:none;" />
 <path d="  M 31,31  L 31,30  L 30,30  L 30,31  Z  " style="fill:rgb(196, 206, 210); fill-opacity:1.000; stroke:none;" />
 <path d="  M 31,1  L 32,1  L 32,0  L 31,0  Z  " style="fill:rgb(196, 206, 210); fill-opacity:1.000; stroke:none;" />
 <path d="  M 32,31  L 31,31  L 31,32  L 32,32  Z  " style="fill:rgb(196, 206, 210); fill-opacity:1.000; stroke:none;" />
 <path d="  M 1,31  L 1,30  L 0,30  L 0,31  Z  " style="fill:rgb(228, 233, 233); fill-opacity:1.000; stroke:none;" />
 <path d="  M 1,1  L 2,1  L 2,0  L 1,0  Z  " style="fill:rgb(228, 233, 233); fill-opacity:1.000; stroke:none;" />
 <path d="  M 1,30  L 2,30  L 2,29  L 1,29  Z  " style="fill:rgb(228, 233, 233); fill-opacity:1.000; stroke:none;" />
 <path d="  M 2,2  L 3,2  L 3,1  L 2,1  Z  " style="fill:rgb(228, 233, 233); fill-opacity:1.000; stroke:none;" />
 <path d="  M 2,15  L 2,16  L 6,16  L 6,15  L 4,15  L 4,14  L 3,14  L 3,15  Z  " style="fill:rgb(228, 233, 233); fill-opacity:1.000; stroke:none;" />
 <path d="  M 2,29  L 3,29  L 3,28  L 2,28  Z  " style="fill:rgb(228, 233, 233); fill-opacity:1.000; stroke:none;" />
 <path d="  M 3,2  L 3,3  L 4,3  L 4,2  Z  " style="fill:rgb(228, 233, 233); fill-opacity:1.000; stroke:none;" />
 <path d="  M 4,27  L 3,27  L 3,28  L 4,28  Z  " style="fill:rgb(228, 233, 233); fill-opacity:1.000; stroke:none;" />
 <path d="  M 4,5  L 6,5  L 6,4  L 5,4  L 5,3  L 4,3  Z  " style="fill:rgb(228, 233, 233); fill-opacity:1.000; stroke:none;" />
 <path d="  M 5,13  L 4,13  L 4,14  L 5,14  Z  " style="fill:rgb(228, 233, 233); fill-opacity:1.000; stroke:none;" />
 <path d="  M 5,26  L 4,26  L 4,27  L 5,27  Z  " style="fill:rgb(228, 233, 233); fill-opacity:1.000; stroke:none;" />
 <path d="  M 6,25  L 5,25  L 5,26  L 6,26  Z  " style="fill:rgb(228, 233, 233); fill-opacity:1.000; stroke:none;" />
 <path d="  M 6,6  L 6,7  L 7,7  L 7,8  L 8,8  L 8,6  Z  " style="fill:rgb(228, 233, 233); fill-opacity:1.000; stroke:none;" />
 <path d="  M 6,23  L 7,23  L 7,22  L 6,22  Z  " style="fill:rgb(228, 233, 233); fill-opacity:1.000; stroke:none;" />
 <path d="  M 7,24  L 8,24  L 8,25  L 9,25  L 9,26  L 10,26  L 10,22  L 9,22  L 9,23  L 7,23  Z  " style="fill:rgb(228, 233, 233); fill-opacity:1.000; stroke:none;" />
 <path d="  M 10,16  L 10,15  L 9,15  L 9,14  L 8,14  L 8,16  Z  " style="fill:rgb(228, 233, 233); fill-opacity:1.000; stroke:none;" />
 <path d="  M 10,10  L 10,11  L 11,11  L 11,10  Z  " style="fill:rgb(228, 233, 233); fill-opacity:1.000; stroke:none;" />
 <path d="  M 11,22  L 11,21  L 10,21  L 10,22  Z  " style="fill:rgb(228, 233, 233); fill-opacity:1.000; stroke:none;" />
 <path d="  M 12,11  L 11,11  L 11,12  L 12,12  Z  " style="fill:rgb(228, 233, 233); fill-opacity:1.000; stroke:none;" />
 <path d="  M 16,16  L 14,16  L 14,18  L 13,18  L 13,19  L 12,19  L 12,20  L 11,20  L 11,21  L 13,21  L 13,20  L 14,20  L 14,19  L 15,19  L 15,18  L 16,18  Z  " style="fill:rgb(228, 233, 233); fill-opacity:1.000; stroke:none;" />
 <path d="  M 13,15  L 14,15  L 14,14  L 13,14  Z  " style="fill:rgb(228, 233, 233); fill-opacity:1.000; stroke:none;" />
 <path d="  M 13,27  L 13,28  L 14,28  L 14,27  Z  " style="fill:rgb(228, 233, 233); fill-opacity:1.000; stroke:none;" />
 <path d="  M 14,4  L 16,4  L 16,3  L 14,3  Z  " style="fill:rgb(228, 233, 233); fill-opacity:1.000; stroke:none;" />
 <path d="  M 16,25  L 16,22  L 15,22  L 15,24  L 14,24  L 14,26  L 15,26  L 15,25  Z  " style="fill:rgb(228, 233, 233); fill-opacity:1.000; stroke:none;" />
 <path d="  M 16,29  L 16,28  L 14,28  L 14,29  Z  " style="fill:rgb(228, 233, 233); fill-opacity:1.000; stroke:none;" />
 <path d="  M 16,12  L 15,12  L 15,14  L 16,14  Z  " style="fill:rgb(228, 233, 233); fill-opacity:1.000; stroke:none;" />
 <path d="  M 18,15  L 18,13  L 17,13  L 17,14  L 16,14  L 16,16  L 17,16  L 17,15  Z  " style="fill:rgb(228, 233, 233); fill-opacity:1.000; stroke:none;" />
 <path d="  M 19,4  L 19,3  L 18,3  L 18,4  Z  " style="fill:rgb(228, 233, 233); fill-opacity:1.000; stroke:none;" />
 <path d="  M 19,8  L 18,8  L 18,9  L 19,9  Z  " style="fill:rgb(228, 233, 233); fill-opacity:1.000; stroke:none;" />
 <path d="  M 18,13  L 19,13  L 19,12  L 18,12  Z  " style="fill:rgb(228, 233, 233); fill-opacity:1.000; stroke:none;" />
 <path d="  M 18,17  L 18,18  L 19,18  L 19,17  Z  " style="fill:rgb(228, 233, 233); fill-opacity:1.000; stroke:none;" />
 <path d="  M 19,9  L 19,10  L 21,10  L 21,9  Z  " style="fill:rgb(228, 233, 233); fill-opacity:1.000; stroke:none;" />
 <path d="  M 19,19  L 20,19  L 20,18  L 19,18  Z  " style="fill:rgb(228, 233, 233); fill-opacity:1.000; stroke:none;" />
 <path d="  M 21,12  L 20,12  L 20,13  L 21,13  Z  " style="fill:rgb(228, 233, 233); fill-opacity:1.000; stroke:none;" />
 <path d="  M 20,16  L 20,17  L 24,17  L 24,16  Z  " style="fill:rgb(228, 233, 233); fill-opacity:1.000; stroke:none;" />
 <path d="  M 21,11  L 21,12  L 22,12  L 22,11  Z  " style="fill:rgb(228, 233, 233); fill-opacity:1.000; stroke:none;" />
 <path d="  M 22,10  L 22,11  L 23,11  L 23,10  Z  " style="fill:rgb(228, 233, 233); fill-opacity:1.000; stroke:none;" />
 <path d="  M 22,12  L 22,14  L 23,14  L 23,12  Z  " style="fill:rgb(228, 233, 233); fill-opacity:1.000; stroke:none;" />
 <path d="  M 23,9  L 23,10  L 24,10  L 24,9  Z  " style="fill:rgb(228, 233, 233); fill-opacity:1.000; stroke:none;" />
 <path d="  M 23,26  L 23,27  L 24,27  L 24,26  Z  " style="fill:rgb(228, 233, 233); fill-opacity:1.000; stroke:none;" />
 <path d="  M 25,6  L 25,7  L 24,7  L 24,9  L 25,9  L 25,8  L 26,8  L 26,7  L 27,7  L 27,6  Z  " style="fill:rgb(228, 233, 233); fill-opacity:1.000; stroke:none;" />
 <path d="  M 24,25  L 25,25  L 25,24  L 24,24  Z  " style="fill:rgb(228, 233, 233); fill-opacity:1.000; stroke:none;" />
 <path d="  M 25,25  L 25,26  L 26,26  L 26,25  Z  " style="fill:rgb(228, 233, 233); fill-opacity:1.000; stroke:none;" />
 <path d="  M 26,17  L 28,17  L 28,16  L 26,16  Z  " style="fill:rgb(228, 233, 233); fill-opacity:1.000; stroke:none;" />
 <path d="  M 27,27  L 27,26  L 26,26  L 26,27  Z  " style="fill:rgb(228, 233, 233); fill-opacity:1.000; stroke:none;" />
 <path d="  M 28,5  L 27,5  L 27,6  L 28,6  Z  " style="fill:rgb(228, 233, 233); fill-opacity:1.000; stroke:none;" />
 <path d="  M 27,24  L 28,24  L 28,23  L 27,23  Z  " style="fill:rgb(228, 233, 233); fill-opacity:1.000; stroke:none;" />
 <path d="  M 27,27  L 27,28  L 28,28  L 28,27  Z  " style="fill:rgb(228, 233, 233); fill-opacity:1.000; stroke:none;" />
 <path d="  M 28,5  L 29,5  L 29,4  L 28,4  Z  " style="fill:rgb(228, 233, 233); fill-opacity:1.000; stroke:none;" />
 <path d="  M 29,22  L 29,20  L 28,20  L 28,22  Z  " style="fill:rgb(228, 233, 233); fill-opacity:1.000; stroke:none;" />
 <path d="  M 30,4  L 30,3  L 29,3  L 29,4  Z  " style="fill:rgb(228, 233, 233); fill-opacity:1.000; stroke:none;" />
 <path d="  M 31,3  L 31,2  L 30,2  L 30,3  Z  " style="fill:rgb(228, 233, 233); fill-opacity:1.000; stroke:none;" />
 <path d="  M 32,1  L 31,1  L 31,2  L 32,2  Z  " style="fill:rgb(228, 233, 233); fill-opacity:1.000; stroke:none;" />
 <path d="  M 3,3  L 3,2  L 2,2  L 2,3  Z  " style="fill:rgb(255, 255, 255); fill-opacity:1.000; stroke:none;" />
 <path d="  M 3,29  L 2,29  L 2,30  L 3,30  Z  " style="fill:rgb(255, 255, 255); fill-opacity:1.000; stroke:none;" />
 <path d="  M 3,3  L 3,4  L 4,4  L 4,3  Z  " style="fill:rgb(255, 255, 255); fill-opacity:1.000; stroke:none;" />
 <path d="  M 3,29  L 4,29  L 4,28  L 3,28  Z  " style="fill:rgb(255, 255, 255); fill-opacity:1.000; stroke:none;" />
 <path d="  M 4,18  L 5,18  L 5,17  L 4,17  Z  " style="fill:rgb(255, 255, 255); fill-opacity:1.000; stroke:none;" />
 <path d="  M 5,28  L 5,27  L 4,27  L 4,28  Z  " style="fill:rgb(255, 255, 255); fill-opacity:1.000; stroke:none;" />
 <path d="  M 5,5  L 5,6  L 6,6  L 6,5  Z  " style="fill:rgb(255, 255, 255); fill-opacity:1.000; stroke:none;" />
 <path d="  M 5,12  L 5,13  L 6,13  L 6,12  Z  " style="fill:rgb(255, 255, 255); fill-opacity:1.000; stroke:none;" />
 <path d="  M 6,20  L 6,18  L 5,18  L 5,20  Z  " style="fill:rgb(255, 255, 255); fill-opacity:1.000; stroke:none;" />
 <path d="  M 6,27  L 6,26  L 5,26  L 5,27  Z  " style="fill:rgb(255, 255, 255); fill-opacity:1.000; stroke:none;" />
 <path d="  M 6,7  L 6,8  L 7,8  L 7,7  Z  " style="fill:rgb(255, 255, 255); fill-opacity:1.000; stroke:none;" />
 <path d="  M 6,11  L 7,11  L 7,10  L 6,10  Z  " style="fill:rgb(255, 255, 255); fill-opacity:1.000; stroke:none;" />
 <path d="  M 7,17  L 9,17  L 9,16  L 8,16  L 8,15  L 6,15  L 6,16  L 7,16  Z  " style="fill:rgb(255, 255, 255); fill-opacity:1.000; stroke:none;" />
 <path d="  M 7,20  L 6,20  L 6,22  L 7,22  Z  " style="fill:rgb(255, 255, 255); fill-opacity:1.000; stroke:none;" />
 <path d="  M 10,6  L 10,5  L 8,5  L 8,6  Z  " style="fill:rgb(255, 255, 255); fill-opacity:1.000; stroke:none;" />
 <path d="  M 8,7  L 8,9  L 9,9  L 9,10  L 11,10  L 11,9  L 10,9  L 10,8  L 9,8  L 9,7  Z  " style="fill:rgb(255, 255, 255); fill-opacity:1.000; stroke:none;" />
 <path d="  M 10,13  L 10,11  L 9,11  L 9,13  Z  " style="fill:rgb(255, 255, 255); fill-opacity:1.000; stroke:none;" />
 <path d="  M 9,18  L 10,18  L 10,17  L 9,17  Z  " style="fill:rgb(255, 255, 255); fill-opacity:1.000; stroke:none;" />
 <path d="  M 14,14  L 14,15  L 10,15  L 10,16  L 16,16  L 16,14  Z  " style="fill:rgb(255, 255, 255); fill-opacity:1.000; stroke:none;" />
 <path d="  M 11,20  L 11,19  L 10,19  L 10,20  Z  " style="fill:rgb(255, 255, 255); fill-opacity:1.000; stroke:none;" />
 <path d="  M 10,22  L 10,23  L 11,23  L 11,22  Z  " style="fill:rgb(255, 255, 255); fill-opacity:1.000; stroke:none;" />
 <path d="  M 11,26  L 10,26  L 10,27  L 11,27  Z  " style="fill:rgb(255, 255, 255); fill-opacity:1.000; stroke:none;" />
 <path d="  M 12,10  L 11,10  L 11,11  L 12,11  Z  " style="fill:rgb(255, 255, 255); fill-opacity:1.000; stroke:none;" />
 <path d="  M 12,21  L 11,21  L 11,22  L 12,22  Z  " style="fill:rgb(255, 255, 255); fill-opacity:1.000; stroke:none;" />
 <path d="  M 11,27  L 11,28  L 12,28  L 12,27  Z  " style="fill:rgb(255, 255, 255); fill-opacity:1.000; stroke:none;" />
 <path d="  M 13,4  L 12,4  L 12,5  L 13,5  Z  " style="fill:rgb(255, 255, 255); fill-opacity:1.000; stroke:none;" />
 <path d="  M 14,10  L 14,9  L 12,9  L 12,10  Z  " style="fill:rgb(255, 255, 255); fill-opacity:1.000; stroke:none;" />
 <path d="  M 13,11  L 12,11  L 12,13  L 13,13  L 13,14  L 14,14  L 14,12  L 13,12  Z  " style="fill:rgb(255, 255, 255); fill-opacity:1.000; stroke:none;" />
 <path d="  M 12,23  L 13,23  L 13,22  L 12,22  Z  " style="fill:rgb(255, 255, 255); fill-opacity:1.000; stroke:none;" />
 <path d="  M 14,23  L 13,23  L 13,24  L 14,24  Z  " style="fill:rgb(255, 255, 255); fill-opacity:1.000; stroke:none;" />
 <path d="  M 13,26  L 13,27  L 15,27  L 15,26  Z  " style="fill:rgb(255, 255, 255); fill-opacity:1.000; stroke:none;" />
 <path d="  M 14,30  L 13,30  L 13,32  L 14,32  Z  " style="fill:rgb(255, 255, 255); fill-opacity:1.000; stroke:none;" />
 <path d="  M 17,4  L 18,4  L 18,2  L 17,2  L 17,0  L 16,0  L 16,6  L 15,6  L 15,12  L 16,12  L 16,8  L 17,8  Z  " style="fill:rgb(255, 255, 255); fill-opacity:1.000; stroke:none;" />
 <path d="  M 15,22  L 16,22  L 16,18  L 15,18  Z  " style="fill:rgb(255, 255, 255); fill-opacity:1.000; stroke:none;" />
 <path d="  M 16,17  L 17,17  L 17,18  L 18,18  L 18,17  L 20,17  L 20,16  L 16,16  Z  " style="fill:rgb(255, 255, 255); fill-opacity:1.000; stroke:none;" />
 <path d="  M 20,28  L 20,27  L 16,27  L 16,28  Z  " style="fill:rgb(255, 255, 255); fill-opacity:1.000; stroke:none;" />
 <path d="  M 19,23  L 17,23  L 17,24  L 19,24  Z  " style="fill:rgb(255, 255, 255); fill-opacity:1.000; stroke:none;" />
 <path d="  M 19,14  L 19,13  L 18,13  L 18,14  Z  " style="fill:rgb(255, 255, 255); fill-opacity:1.000; stroke:none;" />
 <path d="  M 19,19  L 19,18  L 18,18  L 18,19  Z  " style="fill:rgb(255, 255, 255); fill-opacity:1.000; stroke:none;" />
 <path d="  M 21,5  L 21,4  L 19,4  L 19,5  Z  " style="fill:rgb(255, 255, 255); fill-opacity:1.000; stroke:none;" />
 <path d="  M 20,12  L 19,12  L 19,13  L 20,13  Z  " style="fill:rgb(255, 255, 255); fill-opacity:1.000; stroke:none;" />
 <path d="  M 20,21  L 20,23  L 22,23  L 22,24  L 23,24  L 23,25  L 24,25  L 24,23  L 23,23  L 23,22  L 22,22  L 22,21  L 21,21  L 21,20  L 20,20  L 20,19  L 19,19  L 19,21  Z  " style="fill:rgb(255, 255, 255); fill-opacity:1.000; stroke:none;" />
 <path d="  M 21,12  L 21,11  L 20,11  L 20,12  Z  " style="fill:rgb(255, 255, 255); fill-opacity:1.000; stroke:none;" />
 <path d="  M 23,27  L 23,26  L 20,26  L 20,27  Z  " style="fill:rgb(255, 255, 255); fill-opacity:1.000; stroke:none;" />
 <path d="  M 24,6  L 24,5  L 21,5  L 21,6  Z  " style="fill:rgb(255, 255, 255); fill-opacity:1.000; stroke:none;" />
 <path d="  M 22,11  L 22,10  L 21,10  L 21,11  Z  " style="fill:rgb(255, 255, 255); fill-opacity:1.000; stroke:none;" />
 <path d="  M 22,10  L 23,10  L 23,9  L 22,9  Z  " style="fill:rgb(255, 255, 255); fill-opacity:1.000; stroke:none;" />
 <path d="  M 24,8  L 23,8  L 23,9  L 24,9  Z  " style="fill:rgb(255, 255, 255); fill-opacity:1.000; stroke:none;" />
 <path d="  M 23,14  L 23,15  L 24,15  L 24,14  Z  " style="fill:rgb(255, 255, 255); fill-opacity:1.000; stroke:none;" />
 <path d="  M 23,22  L 24,22  L 24,19  L 23,19  Z  " style="fill:rgb(255, 255, 255); fill-opacity:1.000; stroke:none;" />
 <path d="  M 25,6  L 24,6  L 24,7  L 25,7  Z  " style="fill:rgb(255, 255, 255); fill-opacity:1.000; stroke:none;" />
 <path d="  M 25,16  L 25,15  L 24,15  L 24,16  Z  " style="fill:rgb(255, 255, 255); fill-opacity:1.000; stroke:none;" />
 <path d="  M 24,18  L 24,19  L 25,19  L 25,18  Z  " style="fill:rgb(255, 255, 255); fill-opacity:1.000; stroke:none;" />
 <path d="  M 26,27  L 26,26  L 25,26  L 25,25  L 24,25  L 24,27  Z  " style="fill:rgb(255, 255, 255); fill-opacity:1.000; stroke:none;" />
 <path d="  M 27,5  L 26,5  L 26,6  L 27,6  Z  " style="fill:rgb(255, 255, 255); fill-opacity:1.000; stroke:none;" />
 <path d="  M 27,8  L 26,8  L 26,11  L 27,11  Z  " style="fill:rgb(255, 255, 255); fill-opacity:1.000; stroke:none;" />
 <path d="  M 28,5  L 28,4  L 27,4  L 27,5  Z  " style="fill:rgb(255, 255, 255); fill-opacity:1.000; stroke:none;" />
 <path d="  M 28,11  L 27,11  L 27,13  L 28,13  Z  " style="fill:rgb(255, 255, 255); fill-opacity:1.000; stroke:none;" />
 <path d="  M 28,22  L 27,22  L 27,23  L 28,23  Z  " style="fill:rgb(255, 255, 255); fill-opacity:1.000; stroke:none;" />
 <path d="  M 27,27  L 28,27  L 28,26  L 27,26  Z  " style="fill:rgb(255, 255, 255); fill-opacity:1.000; stroke:none;" />
 <path d="  M 28,4  L 29,4  L 29,3  L 28,3  Z  " style="fill:rgb(255, 255, 255); fill-opacity:1.000; stroke:none;" />
 <path d="  M 28,14  L 28,15  L 29,15  L 29,14  Z  " style="fill:rgb(255, 255, 255); fill-opacity:1.000; stroke:none;" />
 <path d="  M 29,16  L 28,16  L 28,17  L 30,17  L 30,15  L 29,15  Z  " style="fill:rgb(255, 255, 255); fill-opacity:1.000; stroke:none;" />
 <path d="  M 28,29  L 29,29  L 29,30  L 31,30  L 31,29  L 30,29  L 30,28  L 29,28  L 29,27  L 28,27  Z  " style="fill:rgb(255, 255, 255); fill-opacity:1.000; stroke:none;" />
 <path d="  M 30,2  L 29,2  L 29,3  L 30,3  Z  " style="fill:rgb(255, 255, 255); fill-opacity:1.000; stroke:none;" />
 <path d="  M 29,20  L 30,20  L 30,18  L 29,18  Z  " style="fill:rgb(255, 255, 255); fill-opacity:1.000; stroke:none;" />
 <path d="  M 31,30  L 31,31  L 32,31  L 32,30  Z  " style="fill:rgb(255, 255, 255); fill-opacity:1.000; stroke:none;" />
</svg>
