<?xml version="1.0" encoding="UTF-8" standalone="no"?>
<!DOCTYPE svg PUBLIC "-//W3C//DTD SVG 1.1//EN" 
  "http://www.w3.org/Graphics/SVG/1.1/DTD/svg11.dtd">
<svg width="32" height="32"
	 xmlns="http://www.w3.org/2000/svg" version="1.1">
 <path d="  M 1,1  L 1,0  L 0,0  L 0,1  Z  " style="fill:rgb(84, 54, 24); fill-opacity:1.000; stroke:none;" />
 <path d="  M 0,11  L 0,12  L 1,12  L 1,11  Z  " style="fill:rgb(84, 54, 24); fill-opacity:1.000; stroke:none;" />
 <path d="  M 4,26  L 2,26  L 2,28  L 4,28  Z  " style="fill:rgb(84, 54, 24); fill-opacity:1.000; stroke:none;" />
 <path d="  M 12,11  L 11,11  L 11,12  L 12,12  Z  " style="fill:rgb(84, 54, 24); fill-opacity:1.000; stroke:none;" />
 <path d="  M 19,8  L 18,8  L 18,9  L 19,9  Z  " style="fill:rgb(84, 54, 24); fill-opacity:1.000; stroke:none;" />
 <path d="  M 18,21  L 18,22  L 19,22  L 19,21  Z  " style="fill:rgb(84, 54, 24); fill-opacity:1.000; stroke:none;" />
 <path d="  M 27,7  L 27,8  L 28,8  L 28,7  Z  " style="fill:rgb(84, 54, 24); fill-opacity:1.000; stroke:none;" />
 <path d="  M 29,8  L 29,9  L 30,9  L 30,8  Z  " style="fill:rgb(84, 54, 24); fill-opacity:1.000; stroke:none;" />
 <path d="  M 29,21  L 29,22  L 30,22  L 30,21  Z  " style="fill:rgb(84, 54, 24); fill-opacity:1.000; stroke:none;" />
 <path d="  M 0,11  L 1,11  L 1,1  L 0,1  Z  " style="fill:rgb(108, 78, 36); fill-opacity:1.000; stroke:none;" />
 <path d="  M 1,0  L 1,1  L 11,1  L 11,0  Z  " style="fill:rgb(108, 78, 36); fill-opacity:1.000; stroke:none;" />
 <path d="  M 1,11  L 1,12  L 11,12  L 11,11  Z  " style="fill:rgb(108, 78, 36); fill-opacity:1.000; stroke:none;" />
 <path d="  M 4,22  L 2,22  L 2,24  L 4,24  Z  " style="fill:rgb(108, 78, 36); fill-opacity:1.000; stroke:none;" />
 <path d="  M 12,1  L 11,1  L 11,11  L 12,11  Z  " style="fill:rgb(108, 78, 36); fill-opacity:1.000; stroke:none;" />
 <path d="  M 19,9  L 18,9  L 18,20  L 19,20  Z  " style="fill:rgb(108, 78, 36); fill-opacity:1.000; stroke:none;" />
 <path d="  M 19,8  L 19,9  L 29,9  L 29,8  Z  " style="fill:rgb(108, 78, 36); fill-opacity:1.000; stroke:none;" />
 <path d="  M 27,7  L 28,7  L 28,6  L 27,6  Z  " style="fill:rgb(108, 78, 36); fill-opacity:1.000; stroke:none;" />
 <path d="  M 29,5  L 28,5  L 28,6  L 29,6  Z  " style="fill:rgb(108, 78, 36); fill-opacity:1.000; stroke:none;" />
 <path d="  M 30,4  L 29,4  L 29,5  L 30,5  Z  " style="fill:rgb(108, 78, 36); fill-opacity:1.000; stroke:none;" />
 <path d="  M 30,9  L 29,9  L 29,16  L 30,16  Z  " style="fill:rgb(108, 78, 36); fill-opacity:1.000; stroke:none;" />
 <path d="  M 29,18  L 30,18  L 30,17  L 29,17  Z  " style="fill:rgb(108, 78, 36); fill-opacity:1.000; stroke:none;" />
 <path d="  M 30,3  L 30,4  L 32,4  L 32,3  Z  " style="fill:rgb(108, 78, 36); fill-opacity:1.000; stroke:none;" />
 <path d="  M 1,3  L 2,3  L 2,2  L 3,2  L 3,1  L 1,1  Z  " style="fill:rgb(177, 138, 69); fill-opacity:1.000; stroke:none;" />
 <path d="  M 1,11  L 3,11  L 3,10  L 2,10  L 2,9  L 1,9  Z  " style="fill:rgb(177, 138, 69); fill-opacity:1.000; stroke:none;" />
 <path d="  M 4,22  L 4,16  L 2,16  L 2,22  Z  " style="fill:rgb(177, 138, 69); fill-opacity:1.000; stroke:none;" />
 <path d="  M 5,5  L 4,5  L 4,7  L 5,7  L 5,8  L 7,8  L 7,7  L 8,7  L 8,5  L 7,5  L 7,4  L 5,4  Z  " style="fill:rgb(177, 138, 69); fill-opacity:1.000; stroke:none;" />
 <path d="  M 9,1  L 9,2  L 10,2  L 10,3  L 11,3  L 11,1  Z  " style="fill:rgb(177, 138, 69); fill-opacity:1.000; stroke:none;" />
 <path d="  M 10,9  L 10,10  L 9,10  L 9,11  L 11,11  L 11,9  Z  " style="fill:rgb(177, 138, 69); fill-opacity:1.000; stroke:none;" />
 <path d="  M 24,19  L 25,19  L 25,20  L 26,20  L 26,18  L 27,18  L 27,20  L 28,20  L 28,17  L 29,17  L 29,16  L 28,16  L 28,11  L 27,11  L 27,13  L 26,13  L 26,10  L 25,10  L 25,11  L 24,11  L 24,10  L 22,10  L 22,9  L 21,9  L 21,10  L 20,10  L 20,12  L 19,12  L 19,15  L 20,15  L 20,13  L 21,13  L 21,11  L 23,11  L 23,12  L 24,12  L 24,14  L 25,14  L 25,17  L 24,17  Z  " style="fill:rgb(177, 138, 69); fill-opacity:1.000; stroke:none;" />
 <path d="  M 20,18  L 19,18  L 19,21  L 21,21  L 21,20  L 20,20  Z  " style="fill:rgb(177, 138, 69); fill-opacity:1.000; stroke:none;" />
 <path d="  M 23,19  L 23,21  L 24,21  L 24,19  Z  " style="fill:rgb(177, 138, 69); fill-opacity:1.000; stroke:none;" />
 <path d="  M 26,8  L 27,8  L 27,6  L 26,6  Z  " style="fill:rgb(177, 138, 69); fill-opacity:1.000; stroke:none;" />
 <path d="  M 28,5  L 27,5  L 27,6  L 28,6  Z  " style="fill:rgb(177, 138, 69); fill-opacity:1.000; stroke:none;" />
 <path d="  M 28,5  L 29,5  L 29,4  L 28,4  Z  " style="fill:rgb(177, 138, 69); fill-opacity:1.000; stroke:none;" />
 <path d="  M 30,4  L 30,3  L 29,3  L 29,4  Z  " style="fill:rgb(177, 138, 69); fill-opacity:1.000; stroke:none;" />
 <path d="  M 30,2  L 30,3  L 32,3  L 32,2  Z  " style="fill:rgb(177, 138, 69); fill-opacity:1.000; stroke:none;" />
 <path d="  M 9,2  L 9,1  L 3,1  L 3,2  L 2,2  L 2,3  L 1,3  L 1,9  L 2,9  L 2,8  L 3,8  L 3,7  L 4,7  L 4,5  L 5,5  L 5,4  L 7,4  L 7,3  L 8,3  L 8,2  Z  " style="fill:rgb(205, 164, 85); fill-opacity:1.000; stroke:none;" />
 <path d="  M 3,10  L 3,9  L 2,9  L 2,10  Z  " style="fill:rgb(205, 164, 85); fill-opacity:1.000; stroke:none;" />
 <path d="  M 9,10  L 3,10  L 3,11  L 9,11  Z  " style="fill:rgb(205, 164, 85); fill-opacity:1.000; stroke:none;" />
 <path d="  M 5,7  L 4,7  L 4,8  L 5,8  Z  " style="fill:rgb(205, 164, 85); fill-opacity:1.000; stroke:none;" />
 <path d="  M 7,8  L 5,8  L 5,9  L 7,9  Z  " style="fill:rgb(205, 164, 85); fill-opacity:1.000; stroke:none;" />
 <path d="  M 7,5  L 8,5  L 8,4  L 7,4  Z  " style="fill:rgb(205, 164, 85); fill-opacity:1.000; stroke:none;" />
 <path d="  M 8,8  L 8,7  L 7,7  L 7,8  Z  " style="fill:rgb(205, 164, 85); fill-opacity:1.000; stroke:none;" />
 <path d="  M 8,7  L 9,7  L 9,5  L 8,5  Z  " style="fill:rgb(205, 164, 85); fill-opacity:1.000; stroke:none;" />
 <path d="  M 10,3  L 10,2  L 9,2  L 9,3  Z  " style="fill:rgb(205, 164, 85); fill-opacity:1.000; stroke:none;" />
 <path d="  M 9,10  L 10,10  L 10,9  L 9,9  Z  " style="fill:rgb(205, 164, 85); fill-opacity:1.000; stroke:none;" />
 <path d="  M 11,3  L 10,3  L 10,9  L 11,9  Z  " style="fill:rgb(205, 164, 85); fill-opacity:1.000; stroke:none;" />
 <path d="  M 21,10  L 21,9  L 20,9  L 20,10  Z  " style="fill:rgb(205, 164, 85); fill-opacity:1.000; stroke:none;" />
 <path d="  M 24,14  L 23,14  L 23,12  L 22,12  L 22,13  L 21,13  L 21,15  L 20,15  L 20,18  L 21,18  L 21,20  L 22,20  L 22,19  L 23,19  L 23,17  L 24,17  Z  " style="fill:rgb(205, 164, 85); fill-opacity:1.000; stroke:none;" />
 <path d="  M 22,10  L 23,10  L 23,9  L 22,9  Z  " style="fill:rgb(205, 164, 85); fill-opacity:1.000; stroke:none;" />
 <path d="  M 25,8  L 25,6  L 24,6  L 24,8  Z  " style="fill:rgb(205, 164, 85); fill-opacity:1.000; stroke:none;" />
 <path d="  M 25,10  L 25,9  L 24,9  L 24,10  Z  " style="fill:rgb(205, 164, 85); fill-opacity:1.000; stroke:none;" />
 <path d="  M 24,19  L 24,21  L 25,21  L 25,19  Z  " style="fill:rgb(205, 164, 85); fill-opacity:1.000; stroke:none;" />
 <path d="  M 25,6  L 26,6  L 26,4  L 25,4  Z  " style="fill:rgb(205, 164, 85); fill-opacity:1.000; stroke:none;" />
 <path d="  M 26,3  L 26,4  L 27,4  L 27,3  Z  " style="fill:rgb(205, 164, 85); fill-opacity:1.000; stroke:none;" />
 <path d="  M 29,9  L 26,9  L 26,11  L 27,11  L 27,10  L 28,10  L 28,13  L 29,13  Z  " style="fill:rgb(205, 164, 85); fill-opacity:1.000; stroke:none;" />
 <path d="  M 26,20  L 26,21  L 27,21  L 27,20  Z  " style="fill:rgb(205, 164, 85); fill-opacity:1.000; stroke:none;" />
 <path d="  M 28,3  L 28,2  L 27,2  L 27,3  Z  " style="fill:rgb(205, 164, 85); fill-opacity:1.000; stroke:none;" />
 <path d="  M 30,1  L 28,1  L 28,2  L 30,2  Z  " style="fill:rgb(205, 164, 85); fill-opacity:1.000; stroke:none;" />
 <path d="  M 28,21  L 29,21  L 29,18  L 28,18  Z  " style="fill:rgb(205, 164, 85); fill-opacity:1.000; stroke:none;" />
 <path d="  M 32,1  L 32,0  L 30,0  L 30,1  Z  " style="fill:rgb(205, 164, 85); fill-opacity:1.000; stroke:none;" />
 <path d="  M 8,7  L 8,8  L 7,8  L 7,9  L 5,9  L 5,8  L 4,8  L 4,7  L 3,7  L 3,8  L 2,8  L 2,9  L 3,9  L 3,10  L 9,10  L 9,9  L 10,9  L 10,3  L 9,3  L 9,2  L 8,2  L 8,3  L 7,3  L 7,4  L 8,4  L 8,5  L 9,5  L 9,7  Z  " style="fill:rgb(186, 150, 82); fill-opacity:1.000; stroke:none;" />
 <path d="  M 20,9  L 19,9  L 19,12  L 20,12  Z  " style="fill:rgb(186, 150, 82); fill-opacity:1.000; stroke:none;" />
 <path d="  M 20,15  L 19,15  L 19,18  L 20,18  Z  " style="fill:rgb(186, 150, 82); fill-opacity:1.000; stroke:none;" />
 <path d="  M 20,15  L 21,15  L 21,13  L 20,13  Z  " style="fill:rgb(186, 150, 82); fill-opacity:1.000; stroke:none;" />
 <path d="  M 21,18  L 20,18  L 20,20  L 21,20  Z  " style="fill:rgb(186, 150, 82); fill-opacity:1.000; stroke:none;" />
 <path d="  M 23,12  L 23,11  L 21,11  L 21,13  L 22,13  L 22,12  Z  " style="fill:rgb(186, 150, 82); fill-opacity:1.000; stroke:none;" />
 <path d="  M 22,19  L 22,20  L 21,20  L 21,21  L 23,21  L 23,19  Z  " style="fill:rgb(186, 150, 82); fill-opacity:1.000; stroke:none;" />
 <path d="  M 23,9  L 23,10  L 24,10  L 24,9  Z  " style="fill:rgb(186, 150, 82); fill-opacity:1.000; stroke:none;" />
 <path d="  M 23,12  L 23,14  L 24,14  L 24,12  Z  " style="fill:rgb(186, 150, 82); fill-opacity:1.000; stroke:none;" />
 <path d="  M 24,19  L 24,17  L 23,17  L 23,19  Z  " style="fill:rgb(186, 150, 82); fill-opacity:1.000; stroke:none;" />
 <path d="  M 25,11  L 25,10  L 24,10  L 24,11  Z  " style="fill:rgb(186, 150, 82); fill-opacity:1.000; stroke:none;" />
 <path d="  M 24,14  L 24,17  L 25,17  L 25,14  Z  " style="fill:rgb(186, 150, 82); fill-opacity:1.000; stroke:none;" />
 <path d="  M 26,6  L 25,6  L 25,8  L 26,8  Z  " style="fill:rgb(186, 150, 82); fill-opacity:1.000; stroke:none;" />
 <path d="  M 26,10  L 26,9  L 25,9  L 25,10  Z  " style="fill:rgb(186, 150, 82); fill-opacity:1.000; stroke:none;" />
 <path d="  M 25,20  L 25,21  L 26,21  L 26,20  Z  " style="fill:rgb(186, 150, 82); fill-opacity:1.000; stroke:none;" />
 <path d="  M 28,5  L 28,4  L 29,4  L 29,3  L 30,3  L 30,2  L 28,2  L 28,3  L 27,3  L 27,4  L 26,4  L 26,6  L 27,6  L 27,5  Z  " style="fill:rgb(186, 150, 82); fill-opacity:1.000; stroke:none;" />
 <path d="  M 27,13  L 27,11  L 26,11  L 26,13  Z  " style="fill:rgb(186, 150, 82); fill-opacity:1.000; stroke:none;" />
 <path d="  M 26,20  L 27,20  L 27,18  L 26,18  Z  " style="fill:rgb(186, 150, 82); fill-opacity:1.000; stroke:none;" />
 <path d="  M 28,10  L 27,10  L 27,11  L 28,11  Z  " style="fill:rgb(186, 150, 82); fill-opacity:1.000; stroke:none;" />
 <path d="  M 28,20  L 27,20  L 27,21  L 28,21  Z  " style="fill:rgb(186, 150, 82); fill-opacity:1.000; stroke:none;" />
 <path d="  M 28,16  L 29,16  L 29,13  L 28,13  Z  " style="fill:rgb(186, 150, 82); fill-opacity:1.000; stroke:none;" />
 <path d="  M 29,18  L 29,17  L 28,17  L 28,18  Z  " style="fill:rgb(186, 150, 82); fill-opacity:1.000; stroke:none;" />
 <path d="  M 30,1  L 30,2  L 32,2  L 32,1  Z  " style="fill:rgb(186, 150, 82); fill-opacity:1.000; stroke:none;" />
 <path d="  M 4,24  L 2,24  L 2,26  L 4,26  Z  " style="fill:rgb(116, 69, 35); fill-opacity:1.000; stroke:none;" />
 <path d="  M 19,21  L 19,20  L 18,20  L 18,21  Z  " style="fill:rgb(116, 69, 35); fill-opacity:1.000; stroke:none;" />
 <path d="  M 19,22  L 29,22  L 29,21  L 19,21  Z  " style="fill:rgb(116, 69, 35); fill-opacity:1.000; stroke:none;" />
 <path d="  M 30,16  L 29,16  L 29,17  L 30,17  Z  " style="fill:rgb(116, 69, 35); fill-opacity:1.000; stroke:none;" />
 <path d="  M 29,21  L 30,21  L 30,18  L 29,18  Z  " style="fill:rgb(116, 69, 35); fill-opacity:1.000; stroke:none;" />
 <path d="  M 12,1  L 12,0  L 11,0  L 11,1  Z  " style="fill:rgb(84, 56, 24); fill-opacity:1.000; stroke:none;" />
</svg>
