<?xml version="1.0" encoding="UTF-8" standalone="no"?>
<!DOCTYPE svg PUBLIC "-//W3C//DTD SVG 1.1//EN" 
  "http://www.w3.org/Graphics/SVG/1.1/DTD/svg11.dtd">
<svg width="32" height="32"
	 xmlns="http://www.w3.org/2000/svg" version="1.1">
 <path d="  M 1,1  L 1,0  L 0,0  L 0,1  Z  " style="fill:rgb(88, 88, 88); fill-opacity:1.000; stroke:none;" />
 <path d="  M 1,14  L 1,11  L 0,11  L 0,14  Z  " style="fill:rgb(88, 88, 88); fill-opacity:1.000; stroke:none;" />
 <path d="  M 5,23  L 5,20  L 6,20  L 6,19  L 7,19  L 7,18  L 6,18  L 6,17  L 5,17  L 5,16  L 4,16  L 4,17  L 0,17  L 0,27  L 1,27  L 1,26  L 2,26  L 2,22  L 3,22  L 3,25  L 4,25  L 4,23  Z  " style="fill:rgb(88, 88, 88); fill-opacity:1.000; stroke:none;" />
 <path d="  M 20,3  L 18,3  L 18,2  L 17,2  L 17,1  L 1,1  L 1,5  L 2,5  L 2,6  L 3,6  L 3,7  L 4,7  L 4,6  L 5,6  L 5,5  L 6,5  L 6,7  L 7,7  L 7,8  L 6,8  L 6,9  L 5,9  L 5,11  L 6,11  L 6,10  L 8,10  L 8,8  L 10,8  L 10,7  L 11,7  L 11,6  L 12,6  L 12,5  L 13,5  L 13,6  L 15,6  L 15,7  L 16,7  L 16,8  L 17,8  L 17,6  L 18,6  L 18,7  L 19,7  L 19,5  L 20,5  L 20,6  L 21,6  L 21,5  L 22,5  L 22,6  L 23,6  L 23,8  L 25,8  L 25,9  L 26,9  L 26,6  L 27,6  L 27,5  L 28,5  L 28,2  L 29,2  L 29,1  L 30,1  L 30,0  L 27,0  L 27,1  L 20,1  Z  M 22,4  L 22,3  L 23,3  L 23,4  Z  M 16,2  L 17,2  L 17,3  L 16,3  Z  M 23,3  L 23,2  L 24,2  L 24,3  Z  M 7,4  L 7,5  L 6,5  L 6,4  Z  M 27,5  L 26,5  L 26,4  L 27,4  Z  M 16,6  L 15,6  L 15,5  L 16,5  Z  " style="fill:rgb(88, 88, 88); fill-opacity:1.000; stroke:none;" />
 <path d="  M 5,8  L 4,8  L 4,9  L 5,9  Z  " style="fill:rgb(88, 88, 88); fill-opacity:1.000; stroke:none;" />
 <path d="  M 5,25  L 4,25  L 4,26  L 5,26  Z  " style="fill:rgb(88, 88, 88); fill-opacity:1.000; stroke:none;" />
 <path d="  M 7,11  L 6,11  L 6,12  L 7,12  Z  " style="fill:rgb(88, 88, 88); fill-opacity:1.000; stroke:none;" />
 <path d="  M 6,21  L 7,21  L 7,20  L 6,20  Z  " style="fill:rgb(88, 88, 88); fill-opacity:1.000; stroke:none;" />
 <path d="  M 8,16  L 7,16  L 7,17  L 8,17  Z  " style="fill:rgb(88, 88, 88); fill-opacity:1.000; stroke:none;" />
 <path d="  M 10,18  L 10,19  L 9,19  L 9,18  Z  M 13,24  L 13,23  L 14,23  L 14,21  L 12,21  L 12,20  L 11,20  L 11,18  L 12,18  L 12,17  L 10,17  L 10,16  L 9,16  L 9,17  L 8,17  L 8,19  L 9,19  L 9,21  L 8,21  L 8,22  L 9,22  L 9,23  L 10,23  L 10,27  L 11,27  L 11,26  L 12,26  L 12,24  Z  " style="fill:rgb(88, 88, 88); fill-opacity:1.000; stroke:none;" />
 <path d="  M 9,24  L 9,23  L 8,23  L 8,24  Z  " style="fill:rgb(88, 88, 88); fill-opacity:1.000; stroke:none;" />
 <path d="  M 13,19  L 12,19  L 12,20  L 13,20  Z  " style="fill:rgb(88, 88, 88); fill-opacity:1.000; stroke:none;" />
 <path d="  M 15,17  L 15,16  L 13,16  L 13,17  Z  " style="fill:rgb(88, 88, 88); fill-opacity:1.000; stroke:none;" />
 <path d="  M 16,17  L 17,17  L 17,16  L 16,16  Z  " style="fill:rgb(88, 88, 88); fill-opacity:1.000; stroke:none;" />
 <path d="  M 17,28  L 16,28  L 16,31  L 17,31  Z  " style="fill:rgb(88, 88, 88); fill-opacity:1.000; stroke:none;" />
 <path d="  M 26,23  L 27,23  L 27,22  L 28,22  L 28,19  L 29,19  L 29,17  L 17,17  L 17,21  L 18,21  L 18,22  L 19,22  L 19,19  L 20,19  L 20,20  L 21,20  L 21,22  L 20,22  L 20,24  L 21,24  L 21,25  L 22,25  L 22,23  L 23,23  L 23,22  L 24,22  L 24,24  L 23,24  L 23,25  L 24,25  L 24,26  L 25,26  L 25,28  L 28,28  L 28,27  L 27,27  L 27,26  L 26,26  Z  M 26,22  L 26,21  L 27,21  L 27,22  Z  " style="fill:rgb(88, 88, 88); fill-opacity:1.000; stroke:none;" />
 <path d="  M 18,22  L 17,22  L 17,23  L 18,23  Z  " style="fill:rgb(88, 88, 88); fill-opacity:1.000; stroke:none;" />
 <path d="  M 20,8  L 20,7  L 19,7  L 19,8  Z  " style="fill:rgb(88, 88, 88); fill-opacity:1.000; stroke:none;" />
 <path d="  M 21,25  L 20,25  L 20,26  L 21,26  Z  " style="fill:rgb(88, 88, 88); fill-opacity:1.000; stroke:none;" />
 <path d="  M 23,27  L 23,26  L 22,26  L 22,27  Z  " style="fill:rgb(88, 88, 88); fill-opacity:1.000; stroke:none;" />
 <path d="  M 27,10  L 27,9  L 26,9  L 26,10  Z  " style="fill:rgb(88, 88, 88); fill-opacity:1.000; stroke:none;" />
 <path d="  M 29,6  L 29,5  L 28,5  L 28,7  L 30,7  L 30,6  Z  " style="fill:rgb(88, 88, 88); fill-opacity:1.000; stroke:none;" />
 <path d="  M 28,23  L 28,24  L 29,24  L 29,25  L 30,25  L 30,26  L 31,26  L 31,28  L 32,28  L 32,17  L 30,17  L 30,18  L 31,18  L 31,19  L 30,19  L 30,20  L 29,20  L 29,21  L 31,21  L 31,22  L 30,22  L 30,23  Z  " style="fill:rgb(88, 88, 88); fill-opacity:1.000; stroke:none;" />
 <path d="  M 30,26  L 29,26  L 29,27  L 30,27  Z  " style="fill:rgb(88, 88, 88); fill-opacity:1.000; stroke:none;" />
 <path d="  M 0,11  L 1,11  L 1,1  L 0,1  Z  " style="fill:rgb(110, 110, 110); fill-opacity:1.000; stroke:none;" />
 <path d="  M 4,17  L 4,16  L 0,16  L 0,17  Z  " style="fill:rgb(110, 110, 110); fill-opacity:1.000; stroke:none;" />
 <path d="  M 1,0  L 1,1  L 27,1  L 27,0  Z  " style="fill:rgb(110, 110, 110); fill-opacity:1.000; stroke:none;" />
 <path d="  M 5,16  L 5,17  L 7,17  L 7,16  Z  " style="fill:rgb(110, 110, 110); fill-opacity:1.000; stroke:none;" />
 <path d="  M 8,17  L 9,17  L 9,16  L 8,16  Z  " style="fill:rgb(110, 110, 110); fill-opacity:1.000; stroke:none;" />
 <path d="  M 13,17  L 13,16  L 10,16  L 10,17  Z  " style="fill:rgb(110, 110, 110); fill-opacity:1.000; stroke:none;" />
 <path d="  M 17,17  L 16,17  L 16,28  L 17,28  Z  " style="fill:rgb(110, 110, 110); fill-opacity:1.000; stroke:none;" />
 <path d="  M 32,17  L 32,16  L 17,16  L 17,17  Z  " style="fill:rgb(110, 110, 110); fill-opacity:1.000; stroke:none;" />
 <path d="  M 1,11  L 1,13  L 2,13  L 2,14  L 0,14  L 0,15  L 6,15  L 6,14  L 7,14  L 7,15  L 19,15  L 19,14  L 14,14  L 14,13  L 15,13  L 15,12  L 13,12  L 13,13  L 12,13  L 12,14  L 11,14  L 11,13  L 10,13  L 10,14  L 8,14  L 8,13  L 9,13  L 9,12  L 10,12  L 10,11  L 9,11  L 9,10  L 8,10  L 8,12  L 7,12  L 7,13  L 5,13  L 5,12  L 4,12  L 4,11  L 3,11  L 3,10  L 2,10  L 2,11  Z  M 3,13  L 3,12  L 4,12  L 4,13  Z  " style="fill:rgb(56, 55, 55); fill-opacity:1.000; stroke:none;" />
 <path d="  M 14,29  L 13,29  L 13,30  L 12,30  L 12,29  L 11,29  L 11,30  L 9,30  L 9,29  L 8,29  L 8,28  L 7,28  L 7,27  L 5,27  L 5,29  L 2,29  L 2,30  L 0,30  L 0,31  L 15,31  L 15,24  L 14,24  Z  " style="fill:rgb(56, 55, 55); fill-opacity:1.000; stroke:none;" />
 <path d="  M 1,10  L 2,10  L 2,9  L 1,9  Z  " style="fill:rgb(56, 55, 55); fill-opacity:1.000; stroke:none;" />
 <path d="  M 1,28  L 1,29  L 2,29  L 2,28  Z  " style="fill:rgb(56, 55, 55); fill-opacity:1.000; stroke:none;" />
 <path d="  M 8,26  L 7,26  L 7,27  L 8,27  Z  " style="fill:rgb(56, 55, 55); fill-opacity:1.000; stroke:none;" />
 <path d="  M 9,29  L 10,29  L 10,28  L 9,28  Z  " style="fill:rgb(56, 55, 55); fill-opacity:1.000; stroke:none;" />
 <path d="  M 12,10  L 13,10  L 13,8  L 12,8  Z  " style="fill:rgb(56, 55, 55); fill-opacity:1.000; stroke:none;" />
 <path d="  M 14,18  L 13,18  L 13,20  L 15,20  L 15,17  L 14,17  Z  " style="fill:rgb(56, 55, 55); fill-opacity:1.000; stroke:none;" />
 <path d="  M 15,23  L 15,22  L 14,22  L 14,23  Z  " style="fill:rgb(56, 55, 55); fill-opacity:1.000; stroke:none;" />
 <path d="  M 15,11  L 16,11  L 16,10  L 15,10  Z  " style="fill:rgb(56, 55, 55); fill-opacity:1.000; stroke:none;" />
 <path d="  M 17,11  L 16,11  L 16,12  L 17,12  Z  " style="fill:rgb(56, 55, 55); fill-opacity:1.000; stroke:none;" />
 <path d="  M 32,31  L 32,29  L 31,29  L 31,30  L 30,30  L 30,29  L 29,29  L 29,30  L 24,30  L 24,29  L 23,29  L 23,30  L 21,30  L 21,28  L 19,28  L 19,27  L 18,27  L 18,29  L 19,29  L 19,30  L 17,30  L 17,31  Z  " style="fill:rgb(56, 55, 55); fill-opacity:1.000; stroke:none;" />
 <path d="  M 18,24  L 18,25  L 19,25  L 19,24  Z  " style="fill:rgb(56, 55, 55); fill-opacity:1.000; stroke:none;" />
 <path d="  M 19,14  L 20,14  L 20,13  L 19,13  Z  " style="fill:rgb(56, 55, 55); fill-opacity:1.000; stroke:none;" />
 <path d="  M 27,14  L 28,14  L 28,13  L 29,13  L 29,11  L 30,11  L 30,10  L 29,10  L 29,9  L 28,9  L 28,12  L 26,12  L 26,14  L 23,14  L 23,13  L 22,13  L 22,12  L 21,12  L 21,11  L 20,11  L 20,13  L 21,13  L 21,14  L 22,14  L 22,15  L 27,15  Z  " style="fill:rgb(56, 55, 55); fill-opacity:1.000; stroke:none;" />
 <path d="  M 22,27  L 21,27  L 21,28  L 22,28  Z  " style="fill:rgb(56, 55, 55); fill-opacity:1.000; stroke:none;" />
 <path d="  M 22,10  L 23,10  L 23,9  L 22,9  Z  " style="fill:rgb(56, 55, 55); fill-opacity:1.000; stroke:none;" />
 <path d="  M 22,12  L 23,12  L 23,11  L 22,11  Z  " style="fill:rgb(56, 55, 55); fill-opacity:1.000; stroke:none;" />
 <path d="  M 23,13  L 24,13  L 24,12  L 23,12  Z  " style="fill:rgb(56, 55, 55); fill-opacity:1.000; stroke:none;" />
 <path d="  M 26,12  L 26,11  L 25,11  L 25,12  Z  " style="fill:rgb(56, 55, 55); fill-opacity:1.000; stroke:none;" />
 <path d="  M 31,3  L 29,3  L 29,4  L 30,4  L 30,5  L 31,5  Z  " style="fill:rgb(56, 55, 55); fill-opacity:1.000; stroke:none;" />
 <path d="  M 31,14  L 30,14  L 30,13  L 29,13  L 29,15  L 31,15  Z  " style="fill:rgb(56, 55, 55); fill-opacity:1.000; stroke:none;" />
 <path d="  M 31,9  L 30,9  L 30,10  L 31,10  Z  " style="fill:rgb(56, 55, 55); fill-opacity:1.000; stroke:none;" />
 <path d="  M 30,28  L 30,29  L 31,29  L 31,28  Z  " style="fill:rgb(56, 55, 55); fill-opacity:1.000; stroke:none;" />
 <path d="  M 0,15  L 0,16  L 3,16  L 3,15  Z  " style="fill:rgb(45, 45, 45); fill-opacity:1.000; stroke:none;" />
 <path d="  M 11,32  L 11,31  L 0,31  L 0,32  Z  " style="fill:rgb(45, 45, 45); fill-opacity:1.000; stroke:none;" />
 <path d="  M 5,15  L 5,16  L 6,16  L 6,15  Z  " style="fill:rgb(45, 45, 45); fill-opacity:1.000; stroke:none;" />
 <path d="  M 7,15  L 7,14  L 6,14  L 6,15  Z  " style="fill:rgb(45, 45, 45); fill-opacity:1.000; stroke:none;" />
 <path d="  M 13,16  L 13,15  L 8,15  L 8,16  Z  " style="fill:rgb(45, 45, 45); fill-opacity:1.000; stroke:none;" />
 <path d="  M 17,15  L 16,15  L 16,16  L 17,16  Z  " style="fill:rgb(45, 45, 45); fill-opacity:1.000; stroke:none;" />
 <path d="  M 25,16  L 25,15  L 22,15  L 22,14  L 21,14  L 21,13  L 20,13  L 20,14  L 19,14  L 19,15  L 18,15  L 18,16  Z  " style="fill:rgb(45, 45, 45); fill-opacity:1.000; stroke:none;" />
 <path d="  M 21,31  L 21,32  L 22,32  L 22,31  Z  " style="fill:rgb(45, 45, 45); fill-opacity:1.000; stroke:none;" />
 <path d="  M 24,31  L 24,32  L 32,32  L 32,31  Z  " style="fill:rgb(45, 45, 45); fill-opacity:1.000; stroke:none;" />
 <path d="  M 29,13  L 28,13  L 28,14  L 27,14  L 27,15  L 28,15  L 28,16  L 29,16  Z  " style="fill:rgb(45, 45, 45); fill-opacity:1.000; stroke:none;" />
 <path d="  M 29,11  L 29,13  L 30,13  L 30,14  L 31,14  L 31,12  L 30,12  L 30,11  Z  " style="fill:rgb(45, 45, 45); fill-opacity:1.000; stroke:none;" />
 <path d="  M 31,16  L 32,16  L 32,15  L 31,15  Z  " style="fill:rgb(45, 45, 45); fill-opacity:1.000; stroke:none;" />
 <path d="  M 0,28  L 1,28  L 1,27  L 0,27  Z  " style="fill:rgb(75, 76, 79); fill-opacity:1.000; stroke:none;" />
 <path d="  M 1,6  L 2,6  L 2,5  L 1,5  Z  " style="fill:rgb(75, 76, 79); fill-opacity:1.000; stroke:none;" />
 <path d="  M 1,26  L 1,27  L 2,27  L 2,26  Z  " style="fill:rgb(75, 76, 79); fill-opacity:1.000; stroke:none;" />
 <path d="  M 2,6  L 2,7  L 3,7  L 3,6  Z  " style="fill:rgb(75, 76, 79); fill-opacity:1.000; stroke:none;" />
 <path d="  M 2,8  L 2,9  L 3,9  L 3,8  Z  " style="fill:rgb(75, 76, 79); fill-opacity:1.000; stroke:none;" />
 <path d="  M 4,25  L 3,25  L 3,22  L 2,22  L 2,26  L 4,26  Z  " style="fill:rgb(75, 76, 79); fill-opacity:1.000; stroke:none;" />
 <path d="  M 2,27  L 2,28  L 4,28  L 4,27  Z  " style="fill:rgb(75, 76, 79); fill-opacity:1.000; stroke:none;" />
 <path d="  M 5,8  L 5,7  L 6,7  L 6,5  L 5,5  L 5,6  L 4,6  L 4,7  L 3,7  L 3,8  Z  " style="fill:rgb(75, 76, 79); fill-opacity:1.000; stroke:none;" />
 <path d="  M 3,10  L 3,11  L 4,11  L 4,10  Z  " style="fill:rgb(75, 76, 79); fill-opacity:1.000; stroke:none;" />
 <path d="  M 5,10  L 5,9  L 4,9  L 4,10  Z  " style="fill:rgb(75, 76, 79); fill-opacity:1.000; stroke:none;" />
 <path d="  M 9,19  L 8,19  L 8,17  L 6,17  L 6,18  L 7,18  L 7,19  L 6,19  L 6,20  L 5,20  L 5,23  L 4,23  L 4,25  L 6,25  L 6,24  L 7,24  L 7,25  L 9,25  L 9,26  L 10,26  L 10,23  L 9,23  L 9,22  L 8,22  L 8,21  L 9,21  Z  M 8,23  L 9,23  L 9,24  L 8,24  Z  M 6,20  L 7,20  L 7,21  L 6,21  Z  M 6,23  L 6,22  L 7,22  L 7,23  Z  " style="fill:rgb(75, 76, 79); fill-opacity:1.000; stroke:none;" />
 <path d="  M 5,26  L 4,26  L 4,27  L 5,27  Z  " style="fill:rgb(75, 76, 79); fill-opacity:1.000; stroke:none;" />
 <path d="  M 5,8  L 5,9  L 6,9  L 6,8  Z  " style="fill:rgb(75, 76, 79); fill-opacity:1.000; stroke:none;" />
 <path d="  M 6,12  L 6,11  L 5,11  L 5,12  Z  " style="fill:rgb(75, 76, 79); fill-opacity:1.000; stroke:none;" />
 <path d="  M 6,4  L 6,5  L 7,5  L 7,4  Z  " style="fill:rgb(75, 76, 79); fill-opacity:1.000; stroke:none;" />
 <path d="  M 6,7  L 6,8  L 7,8  L 7,7  Z  " style="fill:rgb(75, 76, 79); fill-opacity:1.000; stroke:none;" />
 <path d="  M 6,11  L 7,11  L 7,10  L 6,10  Z  " style="fill:rgb(75, 76, 79); fill-opacity:1.000; stroke:none;" />
 <path d="  M 9,10  L 9,9  L 10,9  L 10,8  L 8,8  L 8,10  Z  " style="fill:rgb(75, 76, 79); fill-opacity:1.000; stroke:none;" />
 <path d="  M 8,27  L 9,27  L 9,26  L 8,26  Z  " style="fill:rgb(75, 76, 79); fill-opacity:1.000; stroke:none;" />
 <path d="  M 9,11  L 10,11  L 10,10  L 9,10  Z  " style="fill:rgb(75, 76, 79); fill-opacity:1.000; stroke:none;" />
 <path d="  M 10,18  L 9,18  L 9,19  L 10,19  Z  " style="fill:rgb(75, 76, 79); fill-opacity:1.000; stroke:none;" />
 <path d="  M 10,7  L 10,8  L 11,8  L 11,7  Z  " style="fill:rgb(75, 76, 79); fill-opacity:1.000; stroke:none;" />
 <path d="  M 10,9  L 10,10  L 11,10  L 11,9  Z  " style="fill:rgb(75, 76, 79); fill-opacity:1.000; stroke:none;" />
 <path d="  M 11,13  L 11,12  L 10,12  L 10,13  Z  " style="fill:rgb(75, 76, 79); fill-opacity:1.000; stroke:none;" />
 <path d="  M 10,27  L 10,28  L 11,28  L 11,27  Z  " style="fill:rgb(75, 76, 79); fill-opacity:1.000; stroke:none;" />
 <path d="  M 13,5  L 12,5  L 12,6  L 11,6  L 11,7  L 13,7  Z  " style="fill:rgb(75, 76, 79); fill-opacity:1.000; stroke:none;" />
 <path d="  M 12,18  L 11,18  L 11,20  L 12,20  Z  " style="fill:rgb(75, 76, 79); fill-opacity:1.000; stroke:none;" />
 <path d="  M 12,26  L 11,26  L 11,27  L 12,27  Z  " style="fill:rgb(75, 76, 79); fill-opacity:1.000; stroke:none;" />
 <path d="  M 12,28  L 11,28  L 11,29  L 13,29  L 13,27  L 12,27  Z  " style="fill:rgb(75, 76, 79); fill-opacity:1.000; stroke:none;" />
 <path d="  M 14,10  L 12,10  L 12,11  L 13,11  L 13,12  L 14,12  Z  " style="fill:rgb(75, 76, 79); fill-opacity:1.000; stroke:none;" />
 <path d="  M 13,17  L 12,17  L 12,18  L 13,18  Z  " style="fill:rgb(75, 76, 79); fill-opacity:1.000; stroke:none;" />
 <path d="  M 14,21  L 14,20  L 12,20  L 12,21  Z  " style="fill:rgb(75, 76, 79); fill-opacity:1.000; stroke:none;" />
 <path d="  M 13,25  L 12,25  L 12,26  L 13,26  Z  " style="fill:rgb(75, 76, 79); fill-opacity:1.000; stroke:none;" />
 <path d="  M 14,7  L 13,7  L 13,8  L 15,8  L 15,9  L 17,9  L 17,8  L 16,8  L 16,7  L 15,7  L 15,6  L 14,6  Z  " style="fill:rgb(75, 76, 79); fill-opacity:1.000; stroke:none;" />
 <path d="  M 14,23  L 13,23  L 13,25  L 14,25  Z  " style="fill:rgb(75, 76, 79); fill-opacity:1.000; stroke:none;" />
 <path d="  M 14,10  L 15,10  L 15,9  L 14,9  Z  " style="fill:rgb(75, 76, 79); fill-opacity:1.000; stroke:none;" />
 <path d="  M 16,5  L 15,5  L 15,6  L 16,6  Z  " style="fill:rgb(75, 76, 79); fill-opacity:1.000; stroke:none;" />
 <path d="  M 16,3  L 17,3  L 17,2  L 16,2  Z  " style="fill:rgb(75, 76, 79); fill-opacity:1.000; stroke:none;" />
 <path d="  M 17,14  L 17,13  L 16,13  L 16,14  Z  " style="fill:rgb(75, 76, 79); fill-opacity:1.000; stroke:none;" />
 <path d="  M 18,3  L 20,3  L 20,1  L 17,1  L 17,2  L 18,2  Z  " style="fill:rgb(75, 76, 79); fill-opacity:1.000; stroke:none;" />
 <path d="  M 20,10  L 19,10  L 19,9  L 20,9  Z  M 18,9  L 17,9  L 17,10  L 18,10  L 18,11  L 20,11  L 20,10  L 22,10  L 22,8  L 23,8  L 23,6  L 22,6  L 22,5  L 21,5  L 21,6  L 20,6  L 20,5  L 19,5  L 19,7  L 18,7  L 18,6  L 17,6  L 17,8  L 18,8  Z  M 21,8  L 21,7  L 22,7  L 22,8  Z  M 19,7  L 20,7  L 20,8  L 19,8  Z  " style="fill:rgb(75, 76, 79); fill-opacity:1.000; stroke:none;" />
 <path d="  M 17,13  L 18,13  L 18,11  L 17,11  Z  " style="fill:rgb(75, 76, 79); fill-opacity:1.000; stroke:none;" />
 <path d="  M 17,22  L 18,22  L 18,21  L 17,21  Z  " style="fill:rgb(75, 76, 79); fill-opacity:1.000; stroke:none;" />
 <path d="  M 17,23  L 17,24  L 18,24  L 18,23  Z  " style="fill:rgb(75, 76, 79); fill-opacity:1.000; stroke:none;" />
 <path d="  M 17,28  L 18,28  L 18,26  L 17,26  Z  " style="fill:rgb(75, 76, 79); fill-opacity:1.000; stroke:none;" />
 <path d="  M 18,23  L 19,23  L 19,22  L 18,22  Z  " style="fill:rgb(75, 76, 79); fill-opacity:1.000; stroke:none;" />
 <path d="  M 20,19  L 19,19  L 19,22  L 21,22  L 21,20  L 20,20  Z  " style="fill:rgb(75, 76, 79); fill-opacity:1.000; stroke:none;" />
 <path d="  M 19,24  L 20,24  L 20,23  L 19,23  Z  " style="fill:rgb(75, 76, 79); fill-opacity:1.000; stroke:none;" />
 <path d="  M 19,25  L 19,27  L 21,27  L 21,26  L 20,26  L 20,25  Z  " style="fill:rgb(75, 76, 79); fill-opacity:1.000; stroke:none;" />
 <path d="  M 20,24  L 20,25  L 21,25  L 21,24  Z  " style="fill:rgb(75, 76, 79); fill-opacity:1.000; stroke:none;" />
 <path d="  M 22,26  L 22,25  L 21,25  L 21,26  Z  " style="fill:rgb(75, 76, 79); fill-opacity:1.000; stroke:none;" />
 <path d="  M 22,4  L 23,4  L 23,3  L 22,3  Z  " style="fill:rgb(75, 76, 79); fill-opacity:1.000; stroke:none;" />
 <path d="  M 22,23  L 22,24  L 24,24  L 24,22  L 23,22  L 23,23  Z  " style="fill:rgb(75, 76, 79); fill-opacity:1.000; stroke:none;" />
 <path d="  M 24,25  L 23,25  L 23,27  L 22,27  L 22,29  L 23,29  L 23,28  L 24,28  L 24,27  L 25,27  L 25,26  L 24,26  Z  " style="fill:rgb(75, 76, 79); fill-opacity:1.000; stroke:none;" />
 <path d="  M 23,3  L 24,3  L 24,2  L 23,2  Z  " style="fill:rgb(75, 76, 79); fill-opacity:1.000; stroke:none;" />
 <path d="  M 24,11  L 24,10  L 23,10  L 23,11  Z  " style="fill:rgb(75, 76, 79); fill-opacity:1.000; stroke:none;" />
 <path d="  M 26,10  L 26,9  L 25,9  L 25,10  Z  " style="fill:rgb(75, 76, 79); fill-opacity:1.000; stroke:none;" />
 <path d="  M 26,29  L 26,28  L 25,28  L 25,29  Z  " style="fill:rgb(75, 76, 79); fill-opacity:1.000; stroke:none;" />
 <path d="  M 27,5  L 27,4  L 26,4  L 26,5  Z  " style="fill:rgb(75, 76, 79); fill-opacity:1.000; stroke:none;" />
 <path d="  M 28,5  L 27,5  L 27,6  L 26,6  L 26,7  L 28,7  Z  " style="fill:rgb(75, 76, 79); fill-opacity:1.000; stroke:none;" />
 <path d="  M 26,8  L 26,9  L 27,9  L 27,8  Z  " style="fill:rgb(75, 76, 79); fill-opacity:1.000; stroke:none;" />
 <path d="  M 27,9  L 27,10  L 26,10  L 26,11  L 28,11  L 28,9  Z  " style="fill:rgb(75, 76, 79); fill-opacity:1.000; stroke:none;" />
 <path d="  M 27,22  L 27,21  L 26,21  L 26,22  Z  " style="fill:rgb(75, 76, 79); fill-opacity:1.000; stroke:none;" />
 <path d="  M 27,24  L 28,24  L 28,23  L 26,23  L 26,26  L 27,26  L 27,27  L 28,27  L 28,25  L 27,25  Z  " style="fill:rgb(75, 76, 79); fill-opacity:1.000; stroke:none;" />
 <path d="  M 27,29  L 26,29  L 26,30  L 27,30  Z  " style="fill:rgb(75, 76, 79); fill-opacity:1.000; stroke:none;" />
 <path d="  M 27,29  L 29,29  L 29,28  L 27,28  Z  " style="fill:rgb(75, 76, 79); fill-opacity:1.000; stroke:none;" />
 <path d="  M 29,3  L 28,3  L 28,5  L 29,5  Z  " style="fill:rgb(75, 76, 79); fill-opacity:1.000; stroke:none;" />
 <path d="  M 28,7  L 28,9  L 29,9  L 29,7  Z  " style="fill:rgb(75, 76, 79); fill-opacity:1.000; stroke:none;" />
 <path d="  M 29,21  L 29,20  L 28,20  L 28,21  Z  " style="fill:rgb(75, 76, 79); fill-opacity:1.000; stroke:none;" />
 <path d="  M 28,24  L 28,25  L 29,25  L 29,24  Z  " style="fill:rgb(75, 76, 79); fill-opacity:1.000; stroke:none;" />
 <path d="  M 29,1  L 29,2  L 30,2  L 30,1  Z  " style="fill:rgb(75, 76, 79); fill-opacity:1.000; stroke:none;" />
 <path d="  M 29,5  L 29,6  L 30,6  L 30,5  Z  " style="fill:rgb(75, 76, 79); fill-opacity:1.000; stroke:none;" />
 <path d="  M 31,19  L 31,18  L 30,18  L 30,17  L 29,17  L 29,20  L 30,20  L 30,19  Z  " style="fill:rgb(75, 76, 79); fill-opacity:1.000; stroke:none;" />
 <path d="  M 29,22  L 29,23  L 30,23  L 30,22  Z  " style="fill:rgb(75, 76, 79); fill-opacity:1.000; stroke:none;" />
 <path d="  M 29,25  L 29,26  L 30,26  L 30,25  Z  " style="fill:rgb(75, 76, 79); fill-opacity:1.000; stroke:none;" />
 <path d="  M 31,1  L 31,0  L 30,0  L 30,1  Z  " style="fill:rgb(75, 76, 79); fill-opacity:1.000; stroke:none;" />
 <path d="  M 30,22  L 31,22  L 31,21  L 30,21  Z  " style="fill:rgb(75, 76, 79); fill-opacity:1.000; stroke:none;" />
 <path d="  M 31,27  L 31,26  L 30,26  L 30,27  Z  " style="fill:rgb(75, 76, 79); fill-opacity:1.000; stroke:none;" />
 <path d="  M 2,30  L 2,29  L 1,29  L 1,28  L 0,28  L 0,30  Z  " style="fill:rgb(65, 65, 65); fill-opacity:1.000; stroke:none;" />
 <path d="  M 3,7  L 2,7  L 2,6  L 1,6  L 1,9  L 2,9  L 2,8  L 3,8  Z  " style="fill:rgb(65, 65, 65); fill-opacity:1.000; stroke:none;" />
 <path d="  M 1,11  L 2,11  L 2,10  L 1,10  Z  " style="fill:rgb(65, 65, 65); fill-opacity:1.000; stroke:none;" />
 <path d="  M 1,13  L 1,14  L 2,14  L 2,13  Z  " style="fill:rgb(65, 65, 65); fill-opacity:1.000; stroke:none;" />
 <path d="  M 1,28  L 2,28  L 2,27  L 1,27  Z  " style="fill:rgb(65, 65, 65); fill-opacity:1.000; stroke:none;" />
 <path d="  M 3,9  L 2,9  L 2,10  L 4,10  L 4,8  L 3,8  Z  " style="fill:rgb(65, 65, 65); fill-opacity:1.000; stroke:none;" />
 <path d="  M 4,27  L 4,26  L 2,26  L 2,27  Z  " style="fill:rgb(65, 65, 65); fill-opacity:1.000; stroke:none;" />
 <path d="  M 5,27  L 4,27  L 4,28  L 2,28  L 2,29  L 5,29  Z  " style="fill:rgb(65, 65, 65); fill-opacity:1.000; stroke:none;" />
 <path d="  M 4,12  L 3,12  L 3,13  L 4,13  Z  " style="fill:rgb(65, 65, 65); fill-opacity:1.000; stroke:none;" />
 <path d="  M 4,10  L 4,12  L 5,12  L 5,10  Z  " style="fill:rgb(65, 65, 65); fill-opacity:1.000; stroke:none;" />
 <path d="  M 6,7  L 5,7  L 5,8  L 6,8  Z  " style="fill:rgb(65, 65, 65); fill-opacity:1.000; stroke:none;" />
 <path d="  M 7,12  L 5,12  L 5,13  L 7,13  Z  " style="fill:rgb(65, 65, 65); fill-opacity:1.000; stroke:none;" />
 <path d="  M 5,27  L 7,27  L 7,26  L 9,26  L 9,25  L 7,25  L 7,24  L 6,24  L 6,25  L 5,25  Z  " style="fill:rgb(65, 65, 65); fill-opacity:1.000; stroke:none;" />
 <path d="  M 6,23  L 7,23  L 7,22  L 6,22  Z  " style="fill:rgb(65, 65, 65); fill-opacity:1.000; stroke:none;" />
 <path d="  M 7,12  L 8,12  L 8,10  L 7,10  Z  " style="fill:rgb(65, 65, 65); fill-opacity:1.000; stroke:none;" />
 <path d="  M 7,27  L 7,28  L 8,28  L 8,29  L 9,29  L 9,28  L 10,28  L 10,26  L 9,26  L 9,27  Z  " style="fill:rgb(65, 65, 65); fill-opacity:1.000; stroke:none;" />
 <path d="  M 10,12  L 9,12  L 9,13  L 8,13  L 8,14  L 10,14  Z  " style="fill:rgb(65, 65, 65); fill-opacity:1.000; stroke:none;" />
 <path d="  M 9,10  L 10,10  L 10,9  L 9,9  Z  " style="fill:rgb(65, 65, 65); fill-opacity:1.000; stroke:none;" />
 <path d="  M 9,29  L 9,30  L 11,30  L 11,28  L 10,28  L 10,29  Z  " style="fill:rgb(65, 65, 65); fill-opacity:1.000; stroke:none;" />
 <path d="  M 12,11  L 12,8  L 13,8  L 13,7  L 11,7  L 11,8  L 10,8  L 10,9  L 11,9  L 11,10  L 10,10  L 10,12  L 11,12  L 11,14  L 12,14  L 12,13  L 13,13  L 13,11  Z  " style="fill:rgb(65, 65, 65); fill-opacity:1.000; stroke:none;" />
 <path d="  M 11,27  L 11,28  L 12,28  L 12,27  Z  " style="fill:rgb(65, 65, 65); fill-opacity:1.000; stroke:none;" />
 <path d="  M 12,18  L 12,19  L 13,19  L 13,18  Z  " style="fill:rgb(65, 65, 65); fill-opacity:1.000; stroke:none;" />
 <path d="  M 13,25  L 13,24  L 12,24  L 12,25  Z  " style="fill:rgb(65, 65, 65); fill-opacity:1.000; stroke:none;" />
 <path d="  M 13,29  L 14,29  L 14,25  L 13,25  L 13,26  L 12,26  L 12,27  L 13,27  Z  " style="fill:rgb(65, 65, 65); fill-opacity:1.000; stroke:none;" />
 <path d="  M 13,29  L 12,29  L 12,30  L 13,30  Z  " style="fill:rgb(65, 65, 65); fill-opacity:1.000; stroke:none;" />
 <path d="  M 14,6  L 13,6  L 13,7  L 14,7  Z  " style="fill:rgb(65, 65, 65); fill-opacity:1.000; stroke:none;" />
 <path d="  M 14,9  L 15,9  L 15,8  L 13,8  L 13,10  L 14,10  Z  " style="fill:rgb(65, 65, 65); fill-opacity:1.000; stroke:none;" />
 <path d="  M 13,17  L 13,18  L 14,18  L 14,17  Z  " style="fill:rgb(65, 65, 65); fill-opacity:1.000; stroke:none;" />
 <path d="  M 16,13  L 17,13  L 17,12  L 16,12  L 16,11  L 15,11  L 15,10  L 14,10  L 14,12  L 15,12  L 15,13  L 14,13  L 14,14  L 16,14  Z  " style="fill:rgb(65, 65, 65); fill-opacity:1.000; stroke:none;" />
 <path d="  M 14,22  L 15,22  L 15,20  L 14,20  Z  " style="fill:rgb(65, 65, 65); fill-opacity:1.000; stroke:none;" />
 <path d="  M 14,24  L 15,24  L 15,23  L 14,23  Z  " style="fill:rgb(65, 65, 65); fill-opacity:1.000; stroke:none;" />
 <path d="  M 16,10  L 16,11  L 18,11  L 18,10  L 17,10  L 17,9  L 15,9  L 15,10  Z  " style="fill:rgb(65, 65, 65); fill-opacity:1.000; stroke:none;" />
 <path d="  M 17,8  L 17,9  L 18,9  L 18,8  Z  " style="fill:rgb(65, 65, 65); fill-opacity:1.000; stroke:none;" />
 <path d="  M 19,14  L 19,13  L 20,13  L 20,11  L 18,11  L 18,13  L 17,13  L 17,14  Z  " style="fill:rgb(65, 65, 65); fill-opacity:1.000; stroke:none;" />
 <path d="  M 18,27  L 19,27  L 19,25  L 18,25  L 18,24  L 17,24  L 17,26  L 18,26  Z  " style="fill:rgb(65, 65, 65); fill-opacity:1.000; stroke:none;" />
 <path d="  M 19,29  L 18,29  L 18,28  L 17,28  L 17,30  L 19,30  Z  " style="fill:rgb(65, 65, 65); fill-opacity:1.000; stroke:none;" />
 <path d="  M 19,24  L 19,23  L 18,23  L 18,24  Z  " style="fill:rgb(65, 65, 65); fill-opacity:1.000; stroke:none;" />
 <path d="  M 20,9  L 19,9  L 19,10  L 20,10  Z  " style="fill:rgb(65, 65, 65); fill-opacity:1.000; stroke:none;" />
 <path d="  M 20,22  L 19,22  L 19,23  L 20,23  Z  " style="fill:rgb(65, 65, 65); fill-opacity:1.000; stroke:none;" />
 <path d="  M 20,25  L 20,24  L 19,24  L 19,25  Z  " style="fill:rgb(65, 65, 65); fill-opacity:1.000; stroke:none;" />
 <path d="  M 21,28  L 21,27  L 19,27  L 19,28  Z  " style="fill:rgb(65, 65, 65); fill-opacity:1.000; stroke:none;" />
 <path d="  M 20,10  L 20,11  L 21,11  L 21,12  L 22,12  L 22,11  L 23,11  L 23,10  Z  " style="fill:rgb(65, 65, 65); fill-opacity:1.000; stroke:none;" />
 <path d="  M 21,8  L 22,8  L 22,7  L 21,7  Z  " style="fill:rgb(65, 65, 65); fill-opacity:1.000; stroke:none;" />
 <path d="  M 22,27  L 22,26  L 21,26  L 21,27  Z  " style="fill:rgb(65, 65, 65); fill-opacity:1.000; stroke:none;" />
 <path d="  M 21,28  L 21,30  L 23,30  L 23,29  L 22,29  L 22,28  Z  " style="fill:rgb(65, 65, 65); fill-opacity:1.000; stroke:none;" />
 <path d="  M 26,12  L 25,12  L 25,11  L 26,11  L 26,10  L 25,10  L 25,8  L 22,8  L 22,9  L 23,9  L 23,10  L 24,10  L 24,11  L 23,11  L 23,12  L 24,12  L 24,13  L 23,13  L 23,14  L 26,14  Z  " style="fill:rgb(65, 65, 65); fill-opacity:1.000; stroke:none;" />
 <path d="  M 23,13  L 23,12  L 22,12  L 22,13  Z  " style="fill:rgb(65, 65, 65); fill-opacity:1.000; stroke:none;" />
 <path d="  M 22,26  L 23,26  L 23,24  L 22,24  Z  " style="fill:rgb(65, 65, 65); fill-opacity:1.000; stroke:none;" />
 <path d="  M 25,27  L 24,27  L 24,28  L 23,28  L 23,29  L 24,29  L 24,30  L 26,30  L 26,29  L 25,29  Z  " style="fill:rgb(65, 65, 65); fill-opacity:1.000; stroke:none;" />
 <path d="  M 26,7  L 26,8  L 27,8  L 27,9  L 28,9  L 28,7  Z  " style="fill:rgb(65, 65, 65); fill-opacity:1.000; stroke:none;" />
 <path d="  M 28,11  L 26,11  L 26,12  L 28,12  Z  " style="fill:rgb(65, 65, 65); fill-opacity:1.000; stroke:none;" />
 <path d="  M 26,29  L 27,29  L 27,28  L 26,28  Z  " style="fill:rgb(65, 65, 65); fill-opacity:1.000; stroke:none;" />
 <path d="  M 29,23  L 29,22  L 30,22  L 30,21  L 28,21  L 28,22  L 27,22  L 27,23  Z  " style="fill:rgb(65, 65, 65); fill-opacity:1.000; stroke:none;" />
 <path d="  M 28,25  L 28,24  L 27,24  L 27,25  Z  " style="fill:rgb(65, 65, 65); fill-opacity:1.000; stroke:none;" />
 <path d="  M 27,29  L 27,30  L 29,30  L 29,29  Z  " style="fill:rgb(65, 65, 65); fill-opacity:1.000; stroke:none;" />
 <path d="  M 28,3  L 31,3  L 31,1  L 30,1  L 30,2  L 28,2  Z  " style="fill:rgb(65, 65, 65); fill-opacity:1.000; stroke:none;" />
 <path d="  M 29,19  L 28,19  L 28,20  L 29,20  Z  " style="fill:rgb(65, 65, 65); fill-opacity:1.000; stroke:none;" />
 <path d="  M 29,25  L 28,25  L 28,28  L 29,28  L 29,29  L 30,29  L 30,28  L 31,28  L 31,27  L 29,27  Z  " style="fill:rgb(65, 65, 65); fill-opacity:1.000; stroke:none;" />
 <path d="  M 30,4  L 29,4  L 29,5  L 30,5  Z  " style="fill:rgb(65, 65, 65); fill-opacity:1.000; stroke:none;" />
 <path d="  M 30,10  L 30,9  L 31,9  L 31,5  L 30,5  L 30,7  L 29,7  L 29,10  Z  " style="fill:rgb(65, 65, 65); fill-opacity:1.000; stroke:none;" />
 <path d="  M 30,10  L 30,12  L 31,12  L 31,10  Z  " style="fill:rgb(65, 65, 65); fill-opacity:1.000; stroke:none;" />
 <path d="  M 30,29  L 30,30  L 31,30  L 31,29  Z  " style="fill:rgb(65, 65, 65); fill-opacity:1.000; stroke:none;" />
 <path d="  M 31,29  L 32,29  L 32,28  L 31,28  Z  " style="fill:rgb(65, 65, 65); fill-opacity:1.000; stroke:none;" />
 <path d="  M 5,16  L 5,15  L 3,15  L 3,16  Z  " style="fill:rgb(36, 36, 36); fill-opacity:1.000; stroke:none;" />
 <path d="  M 6,15  L 6,16  L 8,16  L 8,15  Z  " style="fill:rgb(36, 36, 36); fill-opacity:1.000; stroke:none;" />
 <path d="  M 16,15  L 13,15  L 13,16  L 15,16  L 15,31  L 11,31  L 11,32  L 21,32  L 21,31  L 16,31  Z  " style="fill:rgb(36, 36, 36); fill-opacity:1.000; stroke:none;" />
 <path d="  M 17,15  L 17,16  L 18,16  L 18,15  Z  " style="fill:rgb(36, 36, 36); fill-opacity:1.000; stroke:none;" />
 <path d="  M 24,31  L 22,31  L 22,32  L 24,32  Z  " style="fill:rgb(36, 36, 36); fill-opacity:1.000; stroke:none;" />
 <path d="  M 28,16  L 28,15  L 25,15  L 25,16  Z  " style="fill:rgb(36, 36, 36); fill-opacity:1.000; stroke:none;" />
 <path d="  M 29,15  L 29,16  L 31,16  L 31,15  Z  " style="fill:rgb(36, 36, 36); fill-opacity:1.000; stroke:none;" />
 <path d="  M 32,0  L 31,0  L 31,15  L 32,15  Z  " style="fill:rgb(36, 36, 36); fill-opacity:1.000; stroke:none;" />
</svg>
