<?xml version="1.0" encoding="UTF-8" standalone="no"?>
<!DOCTYPE svg PUBLIC "-//W3C//DTD SVG 1.1//EN" 
  "http://www.w3.org/Graphics/SVG/1.1/DTD/svg11.dtd">
<svg width="32" height="32"
	 xmlns="http://www.w3.org/2000/svg" version="1.1">
 <path d="  M 13,13  L 13,10  L 12,10  L 12,14  L 14,14  L 14,13  Z  " style="fill:rgb(61, 61, 61); fill-opacity:1.000; stroke:none;" />
 <path d="  M 15,14  L 14,14  L 14,15  L 15,15  Z  " style="fill:rgb(61, 61, 61); fill-opacity:1.000; stroke:none;" />
 <path d="  M 15,15  L 15,16  L 16,16  L 16,15  Z  " style="fill:rgb(61, 61, 61); fill-opacity:1.000; stroke:none;" />
 <path d="  M 16,20  L 17,20  L 17,17  L 18,17  L 18,16  L 16,16  Z  " style="fill:rgb(61, 61, 61); fill-opacity:1.000; stroke:none;" />
 <path d="  M 19,16  L 19,15  L 18,15  L 18,16  Z  " style="fill:rgb(61, 61, 61); fill-opacity:1.000; stroke:none;" />
 <path d="  M 14,15  L 14,14  L 12,14  L 12,15  Z  " style="fill:rgb(155, 155, 155); fill-opacity:1.000; stroke:none;" />
 <path d="  M 14,16  L 15,16  L 15,15  L 14,15  Z  " style="fill:rgb(155, 155, 155); fill-opacity:1.000; stroke:none;" />
 <path d="  M 16,17  L 16,16  L 15,16  L 15,17  Z  " style="fill:rgb(155, 155, 155); fill-opacity:1.000; stroke:none;" />
 <path d="  M 16,20  L 16,21  L 17,21  L 17,20  Z  " style="fill:rgb(155, 155, 155); fill-opacity:1.000; stroke:none;" />
 <path d="  M 17,18  L 18,18  L 18,17  L 17,17  Z  " style="fill:rgb(155, 155, 155); fill-opacity:1.000; stroke:none;" />
 <path d="  M 19,16  L 18,16  L 18,17  L 19,17  Z  " style="fill:rgb(155, 155, 155); fill-opacity:1.000; stroke:none;" />
</svg>
