<?xml version="1.0" encoding="UTF-8" standalone="no"?>
<!DOCTYPE svg PUBLIC "-//W3C//DTD SVG 1.1//EN" 
  "http://www.w3.org/Graphics/SVG/1.1/DTD/svg11.dtd">
<svg width="32" height="32"
	 xmlns="http://www.w3.org/2000/svg" version="1.1">
 <path d="  M 1,1  L 2,1  L 2,0  L 0,0  L 0,2  L 1,2  Z  " style="fill:rgb(206, 141, 131); fill-opacity:1.000; stroke:none;" />
 <path d="  M 1,3  L 0,3  L 0,10  L 1,10  Z  " style="fill:rgb(206, 141, 131); fill-opacity:1.000; stroke:none;" />
 <path d="  M 0,11  L 0,12  L 1,12  L 1,11  Z  " style="fill:rgb(206, 141, 131); fill-opacity:1.000; stroke:none;" />
 <path d="  M 4,17  L 4,16  L 0,16  L 0,19  L 1,19  L 1,17  Z  " style="fill:rgb(206, 141, 131); fill-opacity:1.000; stroke:none;" />
 <path d="  M 1,20  L 0,20  L 0,21  L 1,21  Z  " style="fill:rgb(206, 141, 131); fill-opacity:1.000; stroke:none;" />
 <path d="  M 0,22  L 0,24  L 1,24  L 1,22  Z  " style="fill:rgb(206, 141, 131); fill-opacity:1.000; stroke:none;" />
 <path d="  M 3,0  L 3,1  L 6,1  L 6,0  Z  " style="fill:rgb(206, 141, 131); fill-opacity:1.000; stroke:none;" />
 <path d="  M 5,16  L 5,17  L 7,17  L 7,16  Z  " style="fill:rgb(206, 141, 131); fill-opacity:1.000; stroke:none;" />
 <path d="  M 9,0  L 7,0  L 7,1  L 9,1  Z  " style="fill:rgb(206, 141, 131); fill-opacity:1.000; stroke:none;" />
 <path d="  M 11,0  L 10,0  L 10,1  L 11,1  Z  " style="fill:rgb(206, 141, 131); fill-opacity:1.000; stroke:none;" />
 <path d="  M 13,17  L 13,16  L 12,16  L 12,17  Z  " style="fill:rgb(206, 141, 131); fill-opacity:1.000; stroke:none;" />
 <path d="  M 17,1  L 19,1  L 19,0  L 16,0  L 16,2  L 17,2  Z  " style="fill:rgb(206, 141, 131); fill-opacity:1.000; stroke:none;" />
 <path d="  M 16,11  L 17,11  L 17,3  L 16,3  Z  " style="fill:rgb(206, 141, 131); fill-opacity:1.000; stroke:none;" />
 <path d="  M 16,16  L 16,20  L 17,20  L 17,17  L 22,17  L 22,16  Z  " style="fill:rgb(206, 141, 131); fill-opacity:1.000; stroke:none;" />
 <path d="  M 17,26  L 17,22  L 16,22  L 16,26  Z  " style="fill:rgb(206, 141, 131); fill-opacity:1.000; stroke:none;" />
 <path d="  M 24,1  L 24,0  L 20,0  L 20,1  Z  " style="fill:rgb(206, 141, 131); fill-opacity:1.000; stroke:none;" />
 <path d="  M 26,17  L 26,16  L 24,16  L 24,17  Z  " style="fill:rgb(206, 141, 131); fill-opacity:1.000; stroke:none;" />
 <path d="  M 1,2  L 0,2  L 0,3  L 1,3  Z  " style="fill:rgb(186, 130, 119); fill-opacity:1.000; stroke:none;" />
 <path d="  M 2,11  L 2,10  L 0,10  L 0,11  Z  " style="fill:rgb(186, 130, 119); fill-opacity:1.000; stroke:none;" />
 <path d="  M 1,14  L 1,12  L 0,12  L 0,14  Z  " style="fill:rgb(186, 130, 119); fill-opacity:1.000; stroke:none;" />
 <path d="  M 0,20  L 1,20  L 1,19  L 0,19  Z  " style="fill:rgb(186, 130, 119); fill-opacity:1.000; stroke:none;" />
 <path d="  M 1,22  L 1,21  L 0,21  L 0,22  Z  " style="fill:rgb(186, 130, 119); fill-opacity:1.000; stroke:none;" />
 <path d="  M 1,24  L 0,24  L 0,26  L 1,26  Z  " style="fill:rgb(186, 130, 119); fill-opacity:1.000; stroke:none;" />
 <path d="  M 3,0  L 2,0  L 2,1  L 3,1  Z  " style="fill:rgb(186, 130, 119); fill-opacity:1.000; stroke:none;" />
 <path d="  M 4,30  L 3,30  L 3,31  L 4,31  Z  " style="fill:rgb(186, 130, 119); fill-opacity:1.000; stroke:none;" />
 <path d="  M 4,5  L 4,6  L 5,6  L 5,5  Z  " style="fill:rgb(186, 130, 119); fill-opacity:1.000; stroke:none;" />
 <path d="  M 4,16  L 4,17  L 5,17  L 5,16  Z  " style="fill:rgb(186, 130, 119); fill-opacity:1.000; stroke:none;" />
 <path d="  M 5,28  L 5,27  L 4,27  L 4,28  Z  " style="fill:rgb(186, 130, 119); fill-opacity:1.000; stroke:none;" />
 <path d="  M 6,30  L 6,28  L 5,28  L 5,29  L 4,29  L 4,30  Z  " style="fill:rgb(186, 130, 119); fill-opacity:1.000; stroke:none;" />
 <path d="  M 5,4  L 5,5  L 6,5  L 6,4  Z  " style="fill:rgb(186, 130, 119); fill-opacity:1.000; stroke:none;" />
 <path d="  M 6,27  L 6,26  L 5,26  L 5,27  Z  " style="fill:rgb(186, 130, 119); fill-opacity:1.000; stroke:none;" />
 <path d="  M 6,1  L 7,1  L 7,0  L 6,0  Z  " style="fill:rgb(186, 130, 119); fill-opacity:1.000; stroke:none;" />
 <path d="  M 6,4  L 7,4  L 7,3  L 6,3  Z  " style="fill:rgb(186, 130, 119); fill-opacity:1.000; stroke:none;" />
 <path d="  M 7,26  L 7,25  L 6,25  L 6,26  Z  " style="fill:rgb(186, 130, 119); fill-opacity:1.000; stroke:none;" />
 <path d="  M 7,28  L 7,27  L 6,27  L 6,28  Z  " style="fill:rgb(186, 130, 119); fill-opacity:1.000; stroke:none;" />
 <path d="  M 7,3  L 8,3  L 8,2  L 7,2  Z  " style="fill:rgb(186, 130, 119); fill-opacity:1.000; stroke:none;" />
 <path d="  M 7,16  L 7,17  L 12,17  L 12,16  Z  " style="fill:rgb(186, 130, 119); fill-opacity:1.000; stroke:none;" />
 <path d="  M 8,25  L 8,24  L 7,24  L 7,25  Z  " style="fill:rgb(186, 130, 119); fill-opacity:1.000; stroke:none;" />
 <path d="  M 8,26  L 7,26  L 7,27  L 8,27  Z  " style="fill:rgb(186, 130, 119); fill-opacity:1.000; stroke:none;" />
 <path d="  M 9,2  L 9,1  L 8,1  L 8,2  Z  " style="fill:rgb(186, 130, 119); fill-opacity:1.000; stroke:none;" />
 <path d="  M 9,24  L 9,23  L 8,23  L 8,24  Z  " style="fill:rgb(186, 130, 119); fill-opacity:1.000; stroke:none;" />
 <path d="  M 10,1  L 10,0  L 9,0  L 9,1  Z  " style="fill:rgb(186, 130, 119); fill-opacity:1.000; stroke:none;" />
 <path d="  M 9,23  L 10,23  L 10,22  L 9,22  Z  " style="fill:rgb(186, 130, 119); fill-opacity:1.000; stroke:none;" />
 <path d="  M 11,12  L 11,11  L 10,11  L 10,12  Z  " style="fill:rgb(186, 130, 119); fill-opacity:1.000; stroke:none;" />
 <path d="  M 10,14  L 11,14  L 11,13  L 10,13  Z  " style="fill:rgb(186, 130, 119); fill-opacity:1.000; stroke:none;" />
 <path d="  M 11,20  L 11,19  L 10,19  L 10,20  Z  " style="fill:rgb(186, 130, 119); fill-opacity:1.000; stroke:none;" />
 <path d="  M 11,22  L 11,21  L 10,21  L 10,22  Z  " style="fill:rgb(186, 130, 119); fill-opacity:1.000; stroke:none;" />
 <path d="  M 11,0  L 11,1  L 14,1  L 14,0  Z  " style="fill:rgb(186, 130, 119); fill-opacity:1.000; stroke:none;" />
 <path d="  M 12,10  L 11,10  L 11,11  L 12,11  Z  " style="fill:rgb(186, 130, 119); fill-opacity:1.000; stroke:none;" />
 <path d="  M 11,13  L 12,13  L 12,12  L 11,12  Z  " style="fill:rgb(186, 130, 119); fill-opacity:1.000; stroke:none;" />
 <path d="  M 12,18  L 11,18  L 11,19  L 12,19  Z  " style="fill:rgb(186, 130, 119); fill-opacity:1.000; stroke:none;" />
 <path d="  M 12,21  L 12,20  L 11,20  L 11,21  Z  " style="fill:rgb(186, 130, 119); fill-opacity:1.000; stroke:none;" />
 <path d="  M 13,11  L 12,11  L 12,12  L 13,12  Z  " style="fill:rgb(186, 130, 119); fill-opacity:1.000; stroke:none;" />
 <path d="  M 13,17  L 12,17  L 12,18  L 13,18  Z  " style="fill:rgb(186, 130, 119); fill-opacity:1.000; stroke:none;" />
 <path d="  M 13,19  L 12,19  L 12,20  L 13,20  Z  " style="fill:rgb(186, 130, 119); fill-opacity:1.000; stroke:none;" />
 <path d="  M 13,10  L 13,11  L 14,11  L 14,10  Z  " style="fill:rgb(186, 130, 119); fill-opacity:1.000; stroke:none;" />
 <path d="  M 14,16  L 13,16  L 13,17  L 14,17  Z  " style="fill:rgb(186, 130, 119); fill-opacity:1.000; stroke:none;" />
 <path d="  M 14,18  L 13,18  L 13,19  L 14,19  Z  " style="fill:rgb(186, 130, 119); fill-opacity:1.000; stroke:none;" />
 <path d="  M 16,3  L 17,3  L 17,2  L 16,2  Z  " style="fill:rgb(186, 130, 119); fill-opacity:1.000; stroke:none;" />
 <path d="  M 16,14  L 17,14  L 17,11  L 16,11  Z  " style="fill:rgb(186, 130, 119); fill-opacity:1.000; stroke:none;" />
 <path d="  M 16,22  L 17,22  L 17,20  L 16,20  Z  " style="fill:rgb(186, 130, 119); fill-opacity:1.000; stroke:none;" />
 <path d="  M 17,26  L 16,26  L 16,30  L 17,30  Z  " style="fill:rgb(186, 130, 119); fill-opacity:1.000; stroke:none;" />
 <path d="  M 17,11  L 18,11  L 18,10  L 17,10  Z  " style="fill:rgb(186, 130, 119); fill-opacity:1.000; stroke:none;" />
 <path d="  M 18,9  L 18,10  L 19,10  L 19,9  Z  " style="fill:rgb(186, 130, 119); fill-opacity:1.000; stroke:none;" />
 <path d="  M 20,0  L 19,0  L 19,1  L 20,1  Z  " style="fill:rgb(186, 130, 119); fill-opacity:1.000; stroke:none;" />
 <path d="  M 19,8  L 19,9  L 20,9  L 20,8  Z  " style="fill:rgb(186, 130, 119); fill-opacity:1.000; stroke:none;" />
 <path d="  M 21,5  L 20,5  L 20,6  L 21,6  Z  " style="fill:rgb(186, 130, 119); fill-opacity:1.000; stroke:none;" />
 <path d="  M 21,4  L 21,5  L 22,5  L 22,4  Z  " style="fill:rgb(186, 130, 119); fill-opacity:1.000; stroke:none;" />
 <path d="  M 22,4  L 23,4  L 23,3  L 22,3  Z  " style="fill:rgb(186, 130, 119); fill-opacity:1.000; stroke:none;" />
 <path d="  M 22,5  L 22,6  L 23,6  L 23,5  Z  " style="fill:rgb(186, 130, 119); fill-opacity:1.000; stroke:none;" />
 <path d="  M 22,16  L 22,17  L 24,17  L 24,16  Z  " style="fill:rgb(186, 130, 119); fill-opacity:1.000; stroke:none;" />
 <path d="  M 22,19  L 22,20  L 23,20  L 23,19  Z  " style="fill:rgb(186, 130, 119); fill-opacity:1.000; stroke:none;" />
 <path d="  M 23,3  L 24,3  L 24,2  L 23,2  Z  " style="fill:rgb(186, 130, 119); fill-opacity:1.000; stroke:none;" />
 <path d="  M 23,4  L 23,5  L 24,5  L 24,4  Z  " style="fill:rgb(186, 130, 119); fill-opacity:1.000; stroke:none;" />
 <path d="  M 23,14  L 23,15  L 24,15  L 24,14  Z  " style="fill:rgb(186, 130, 119); fill-opacity:1.000; stroke:none;" />
 <path d="  M 24,19  L 24,18  L 23,18  L 23,19  Z  " style="fill:rgb(186, 130, 119); fill-opacity:1.000; stroke:none;" />
 <path d="  M 26,1  L 26,0  L 24,0  L 24,1  Z  " style="fill:rgb(186, 130, 119); fill-opacity:1.000; stroke:none;" />
 <path d="  M 24,3  L 24,4  L 25,4  L 25,3  Z  " style="fill:rgb(186, 130, 119); fill-opacity:1.000; stroke:none;" />
 <path d="  M 24,13  L 24,14  L 25,14  L 25,13  Z  " style="fill:rgb(186, 130, 119); fill-opacity:1.000; stroke:none;" />
 <path d="  M 24,18  L 25,18  L 25,17  L 24,17  Z  " style="fill:rgb(186, 130, 119); fill-opacity:1.000; stroke:none;" />
 <path d="  M 25,2  L 25,3  L 26,3  L 26,2  Z  " style="fill:rgb(186, 130, 119); fill-opacity:1.000; stroke:none;" />
 <path d="  M 25,12  L 25,13  L 26,13  L 26,12  Z  " style="fill:rgb(186, 130, 119); fill-opacity:1.000; stroke:none;" />
 <path d="  M 27,1  L 26,1  L 26,2  L 27,2  Z  " style="fill:rgb(186, 130, 119); fill-opacity:1.000; stroke:none;" />
 <path d="  M 26,12  L 27,12  L 27,11  L 26,11  Z  " style="fill:rgb(186, 130, 119); fill-opacity:1.000; stroke:none;" />
 <path d="  M 26,17  L 30,17  L 30,16  L 26,16  Z  " style="fill:rgb(186, 130, 119); fill-opacity:1.000; stroke:none;" />
 <path d="  M 26,28  L 27,28  L 27,27  L 26,27  Z  " style="fill:rgb(186, 130, 119); fill-opacity:1.000; stroke:none;" />
 <path d="  M 26,31  L 27,31  L 27,30  L 26,30  Z  " style="fill:rgb(186, 130, 119); fill-opacity:1.000; stroke:none;" />
 <path d="  M 28,10  L 27,10  L 27,11  L 28,11  Z  " style="fill:rgb(186, 130, 119); fill-opacity:1.000; stroke:none;" />
 <path d="  M 27,27  L 28,27  L 28,26  L 27,26  Z  " style="fill:rgb(186, 130, 119); fill-opacity:1.000; stroke:none;" />
 <path d="  M 30,1  L 30,0  L 28,0  L 28,1  Z  " style="fill:rgb(186, 130, 119); fill-opacity:1.000; stroke:none;" />
 <path d="  M 28,28  L 28,29  L 29,29  L 29,28  Z  " style="fill:rgb(186, 130, 119); fill-opacity:1.000; stroke:none;" />
 <path d="  M 30,28  L 30,29  L 29,29  L 29,30  L 28,30  L 28,31  L 31,31  L 31,28  Z  " style="fill:rgb(186, 130, 119); fill-opacity:1.000; stroke:none;" />
 <path d="  M 1,15  L 1,14  L 0,14  L 0,16  L 4,16  L 4,15  Z  " style="fill:rgb(127, 114, 87); fill-opacity:1.000; stroke:none;" />
 <path d="  M 2,24  L 1,24  L 1,25  L 2,25  Z  " style="fill:rgb(127, 114, 87); fill-opacity:1.000; stroke:none;" />
 <path d="  M 2,23  L 2,24  L 3,24  L 3,23  Z  " style="fill:rgb(127, 114, 87); fill-opacity:1.000; stroke:none;" />
 <path d="  M 2,32  L 3,32  L 3,31  L 2,31  Z  " style="fill:rgb(127, 114, 87); fill-opacity:1.000; stroke:none;" />
 <path d="  M 4,22  L 3,22  L 3,23  L 4,23  Z  " style="fill:rgb(127, 114, 87); fill-opacity:1.000; stroke:none;" />
 <path d="  M 4,21  L 4,22  L 5,22  L 5,21  Z  " style="fill:rgb(127, 114, 87); fill-opacity:1.000; stroke:none;" />
 <path d="  M 8,32  L 8,31  L 4,31  L 4,32  Z  " style="fill:rgb(127, 114, 87); fill-opacity:1.000; stroke:none;" />
 <path d="  M 5,15  L 5,16  L 10,16  L 10,15  Z  " style="fill:rgb(127, 114, 87); fill-opacity:1.000; stroke:none;" />
 <path d="  M 6,20  L 5,20  L 5,21  L 6,21  Z  " style="fill:rgb(127, 114, 87); fill-opacity:1.000; stroke:none;" />
 <path d="  M 7,8  L 6,8  L 6,9  L 8,9  L 8,8  L 9,8  L 9,7  L 7,7  Z  " style="fill:rgb(127, 114, 87); fill-opacity:1.000; stroke:none;" />
 <path d="  M 7,11  L 8,11  L 8,10  L 7,10  Z  " style="fill:rgb(127, 114, 87); fill-opacity:1.000; stroke:none;" />
 <path d="  M 10,9  L 11,9  L 11,8  L 9,8  L 9,9  L 8,9  L 8,10  L 10,10  Z  " style="fill:rgb(127, 114, 87); fill-opacity:1.000; stroke:none;" />
 <path d="  M 10,7  L 10,6  L 9,6  L 9,7  Z  " style="fill:rgb(127, 114, 87); fill-opacity:1.000; stroke:none;" />
 <path d="  M 9,32  L 10,32  L 10,31  L 9,31  Z  " style="fill:rgb(127, 114, 87); fill-opacity:1.000; stroke:none;" />
 <path d="  M 11,5  L 10,5  L 10,6  L 11,6  Z  " style="fill:rgb(127, 114, 87); fill-opacity:1.000; stroke:none;" />
 <path d="  M 11,25  L 10,25  L 10,26  L 11,26  Z  " style="fill:rgb(127, 114, 87); fill-opacity:1.000; stroke:none;" />
 <path d="  M 11,4  L 11,5  L 12,5  L 12,4  Z  " style="fill:rgb(127, 114, 87); fill-opacity:1.000; stroke:none;" />
 <path d="  M 12,16  L 12,15  L 11,15  L 11,16  Z  " style="fill:rgb(127, 114, 87); fill-opacity:1.000; stroke:none;" />
 <path d="  M 11,25  L 12,25  L 12,24  L 11,24  Z  " style="fill:rgb(127, 114, 87); fill-opacity:1.000; stroke:none;" />
 <path d="  M 13,3  L 12,3  L 12,4  L 13,4  Z  " style="fill:rgb(127, 114, 87); fill-opacity:1.000; stroke:none;" />
 <path d="  M 12,24  L 13,24  L 13,23  L 12,23  Z  " style="fill:rgb(127, 114, 87); fill-opacity:1.000; stroke:none;" />
 <path d="  M 12,32  L 14,32  L 14,31  L 12,31  Z  " style="fill:rgb(127, 114, 87); fill-opacity:1.000; stroke:none;" />
 <path d="  M 13,2  L 13,3  L 14,3  L 14,2  Z  " style="fill:rgb(127, 114, 87); fill-opacity:1.000; stroke:none;" />
 <path d="  M 13,22  L 13,23  L 14,23  L 14,22  Z  " style="fill:rgb(127, 114, 87); fill-opacity:1.000; stroke:none;" />
 <path d="  M 16,2  L 16,0  L 14,0  L 14,2  Z  " style="fill:rgb(127, 114, 87); fill-opacity:1.000; stroke:none;" />
 <path d="  M 15,21  L 14,21  L 14,22  L 16,22  L 16,16  L 15,16  L 15,17  L 14,17  L 14,18  L 15,18  Z  " style="fill:rgb(127, 114, 87); fill-opacity:1.000; stroke:none;" />
 <path d="  M 16,3  L 15,3  L 15,6  L 16,6  Z  " style="fill:rgb(127, 114, 87); fill-opacity:1.000; stroke:none;" />
 <path d="  M 16,7  L 15,7  L 15,13  L 16,13  Z  " style="fill:rgb(127, 114, 87); fill-opacity:1.000; stroke:none;" />
 <path d="  M 16,23  L 15,23  L 15,26  L 16,26  Z  " style="fill:rgb(127, 114, 87); fill-opacity:1.000; stroke:none;" />
 <path d="  M 15,30  L 16,30  L 16,27  L 15,27  Z  " style="fill:rgb(127, 114, 87); fill-opacity:1.000; stroke:none;" />
 <path d="  M 18,16  L 18,15  L 17,15  L 17,14  L 16,14  L 16,16  Z  " style="fill:rgb(127, 114, 87); fill-opacity:1.000; stroke:none;" />
 <path d="  M 21,2  L 21,1  L 17,1  L 17,5  L 18,5  L 18,4  L 19,4  L 19,3  L 20,3  L 20,2  Z  M 19,3  L 18,3  L 18,2  L 19,2  Z  " style="fill:rgb(127, 114, 87); fill-opacity:1.000; stroke:none;" />
 <path d="  M 18,13  L 17,13  L 17,14  L 18,14  Z  " style="fill:rgb(127, 114, 87); fill-opacity:1.000; stroke:none;" />
 <path d="  M 17,28  L 18,28  L 18,27  L 17,27  Z  " style="fill:rgb(127, 114, 87); fill-opacity:1.000; stroke:none;" />
 <path d="  M 20,31  L 20,32  L 24,32  L 24,31  L 23,31  L 23,30  L 22,30  L 22,29  L 23,29  L 23,28  L 24,28  L 24,27  L 23,27  L 23,26  L 21,26  L 21,27  L 20,27  L 20,28  L 18,28  L 18,29  L 17,29  L 17,31  Z  M 21,28  L 21,29  L 20,29  L 20,28  Z  " style="fill:rgb(127, 114, 87); fill-opacity:1.000; stroke:none;" />
 <path d="  M 18,14  L 18,15  L 19,15  L 19,14  Z  " style="fill:rgb(127, 114, 87); fill-opacity:1.000; stroke:none;" />
 <path d="  M 20,16  L 21,16  L 21,15  L 23,15  L 23,14  L 22,14  L 22,13  L 21,13  L 21,12  L 20,12  L 20,13  L 19,13  L 19,14  L 20,14  Z  " style="fill:rgb(127, 114, 87); fill-opacity:1.000; stroke:none;" />
 <path d="  M 22,3  L 22,2  L 21,2  L 21,3  Z  " style="fill:rgb(127, 114, 87); fill-opacity:1.000; stroke:none;" />
 <path d="  M 23,13  L 23,12  L 22,12  L 22,13  Z  " style="fill:rgb(127, 114, 87); fill-opacity:1.000; stroke:none;" />
 <path d="  M 24,25  L 23,25  L 23,26  L 26,26  L 26,25  L 25,25  L 25,24  L 24,24  Z  " style="fill:rgb(127, 114, 87); fill-opacity:1.000; stroke:none;" />
 <path d="  M 23,29  L 23,30  L 24,30  L 24,29  Z  " style="fill:rgb(127, 114, 87); fill-opacity:1.000; stroke:none;" />
 <path d="  M 25,8  L 25,7  L 24,7  L 24,8  Z  " style="fill:rgb(127, 114, 87); fill-opacity:1.000; stroke:none;" />
 <path d="  M 26,6  L 25,6  L 25,7  L 26,7  Z  " style="fill:rgb(127, 114, 87); fill-opacity:1.000; stroke:none;" />
 <path d="  M 27,5  L 26,5  L 26,6  L 27,6  Z  " style="fill:rgb(127, 114, 87); fill-opacity:1.000; stroke:none;" />
 <path d="  M 27,23  L 27,22  L 26,22  L 26,23  Z  " style="fill:rgb(127, 114, 87); fill-opacity:1.000; stroke:none;" />
 <path d="  M 26,25  L 27,25  L 27,24  L 26,24  Z  " style="fill:rgb(127, 114, 87); fill-opacity:1.000; stroke:none;" />
 <path d="  M 28,5  L 28,4  L 27,4  L 27,5  Z  " style="fill:rgb(127, 114, 87); fill-opacity:1.000; stroke:none;" />
 <path d="  M 30,22  L 31,22  L 31,18  L 32,18  L 32,16  L 30,16  L 30,18  L 29,18  L 29,20  L 28,20  L 28,21  L 27,21  L 27,22  L 28,22  L 28,23  L 29,23  L 29,21  L 30,21  Z  " style="fill:rgb(127, 114, 87); fill-opacity:1.000; stroke:none;" />
 <path d="  M 29,16  L 29,15  L 28,15  L 28,16  Z  " style="fill:rgb(127, 114, 87); fill-opacity:1.000; stroke:none;" />
 <path d="  M 29,18  L 29,17  L 28,17  L 28,18  Z  " style="fill:rgb(127, 114, 87); fill-opacity:1.000; stroke:none;" />
 <path d="  M 31,31  L 28,31  L 28,32  L 32,32  L 32,28  L 31,28  Z  " style="fill:rgb(127, 114, 87); fill-opacity:1.000; stroke:none;" />
 <path d="  M 32,0  L 30,0  L 30,1  L 31,1  L 31,2  L 32,2  Z  " style="fill:rgb(127, 114, 87); fill-opacity:1.000; stroke:none;" />
 <path d="  M 32,5  L 32,4  L 31,4  L 31,5  Z  " style="fill:rgb(127, 114, 87); fill-opacity:1.000; stroke:none;" />
 <path d="  M 32,10  L 32,9  L 31,9  L 31,10  Z  " style="fill:rgb(127, 114, 87); fill-opacity:1.000; stroke:none;" />
 <path d="  M 32,11  L 31,11  L 31,14  L 32,14  Z  " style="fill:rgb(127, 114, 87); fill-opacity:1.000; stroke:none;" />
 <path d="  M 32,24  L 31,24  L 31,26  L 32,26  Z  " style="fill:rgb(127, 114, 87); fill-opacity:1.000; stroke:none;" />
 <path d="  M 1,26  L 0,26  L 0,28  L 1,28  Z  " style="fill:rgb(152, 140, 105); fill-opacity:1.000; stroke:none;" />
 <path d="  M 2,4  L 2,3  L 1,3  L 1,4  Z  " style="fill:rgb(152, 140, 105); fill-opacity:1.000; stroke:none;" />
 <path d="  M 2,9  L 3,9  L 3,8  L 4,8  L 4,7  L 3,7  L 3,6  L 2,6  L 2,5  L 1,5  L 1,10  L 2,10  Z  " style="fill:rgb(152, 140, 105); fill-opacity:1.000; stroke:none;" />
 <path d="  M 1,11  L 1,15  L 3,15  L 3,14  L 4,14  L 4,15  L 5,15  L 5,13  L 3,13  L 3,12  L 4,12  L 4,11  L 3,11  L 3,10  L 2,10  L 2,11  Z  " style="fill:rgb(152, 140, 105); fill-opacity:1.000; stroke:none;" />
 <path d="  M 3,28  L 3,27  L 2,27  L 2,28  L 1,28  L 1,31  L 3,31  L 3,30  L 4,30  L 4,29  L 5,29  L 5,28  Z  " style="fill:rgb(152, 140, 105); fill-opacity:1.000; stroke:none;" />
 <path d="  M 3,3  L 3,4  L 4,4  L 4,3  Z  " style="fill:rgb(152, 140, 105); fill-opacity:1.000; stroke:none;" />
 <path d="  M 3,6  L 4,6  L 4,5  L 3,5  Z  " style="fill:rgb(152, 140, 105); fill-opacity:1.000; stroke:none;" />
 <path d="  M 4,9  L 3,9  L 3,10  L 4,10  Z  " style="fill:rgb(152, 140, 105); fill-opacity:1.000; stroke:none;" />
 <path d="  M 7,2  L 8,2  L 8,1  L 5,1  L 5,2  L 4,2  L 4,3  L 5,3  L 5,4  L 6,4  L 6,3  L 7,3  Z  " style="fill:rgb(152, 140, 105); fill-opacity:1.000; stroke:none;" />
 <path d="  M 4,4  L 4,5  L 5,5  L 5,4  Z  " style="fill:rgb(152, 140, 105); fill-opacity:1.000; stroke:none;" />
 <path d="  M 5,7  L 5,6  L 4,6  L 4,7  Z  " style="fill:rgb(152, 140, 105); fill-opacity:1.000; stroke:none;" />
 <path d="  M 4,31  L 5,31  L 5,30  L 4,30  Z  " style="fill:rgb(152, 140, 105); fill-opacity:1.000; stroke:none;" />
 <path d="  M 5,5  L 5,6  L 6,6  L 6,5  Z  " style="fill:rgb(152, 140, 105); fill-opacity:1.000; stroke:none;" />
 <path d="  M 5,28  L 6,28  L 6,27  L 5,27  Z  " style="fill:rgb(152, 140, 105); fill-opacity:1.000; stroke:none;" />
 <path d="  M 9,14  L 9,15  L 12,15  L 12,14  Z  " style="fill:rgb(152, 140, 105); fill-opacity:1.000; stroke:none;" />
 <path d="  M 12,11  L 11,11  L 11,12  L 12,12  Z  " style="fill:rgb(152, 140, 105); fill-opacity:1.000; stroke:none;" />
 <path d="  M 13,10  L 14,10  L 14,11  L 15,11  L 15,9  L 14,9  L 14,8  L 13,8  L 13,9  L 12,9  L 12,11  L 13,11  Z  " style="fill:rgb(152, 140, 105); fill-opacity:1.000; stroke:none;" />
 <path d="  M 13,12  L 12,12  L 12,14  L 13,14  L 13,13  L 14,13  L 14,11  L 13,11  Z  " style="fill:rgb(152, 140, 105); fill-opacity:1.000; stroke:none;" />
 <path d="  M 15,8  L 15,7  L 14,7  L 14,8  Z  " style="fill:rgb(152, 140, 105); fill-opacity:1.000; stroke:none;" />
 <path d="  M 14,14  L 15,14  L 15,13  L 14,13  Z  " style="fill:rgb(152, 140, 105); fill-opacity:1.000; stroke:none;" />
 <path d="  M 22,20  L 22,19  L 21,19  L 21,18  L 20,18  L 20,20  L 19,20  L 19,19  L 18,19  L 18,20  L 17,20  L 17,27  L 18,27  L 18,25  L 19,25  L 19,24  L 18,24  L 18,23  L 19,23  L 19,22  L 20,22  L 20,23  L 21,23  L 21,22  L 22,22  L 22,21  L 21,21  L 21,20  Z  " style="fill:rgb(152, 140, 105); fill-opacity:1.000; stroke:none;" />
 <path d="  M 19,24  L 20,24  L 20,23  L 19,23  Z  " style="fill:rgb(152, 140, 105); fill-opacity:1.000; stroke:none;" />
 <path d="  M 19,25  L 19,26  L 20,26  L 20,25  Z  " style="fill:rgb(152, 140, 105); fill-opacity:1.000; stroke:none;" />
 <path d="  M 20,2  L 20,3  L 21,3  L 21,2  Z  " style="fill:rgb(152, 140, 105); fill-opacity:1.000; stroke:none;" />
 <path d="  M 25,2  L 25,1  L 21,1  L 21,2  L 22,2  L 22,3  L 23,3  L 23,2  Z  " style="fill:rgb(152, 140, 105); fill-opacity:1.000; stroke:none;" />
 <path d="  M 22,3  L 21,3  L 21,4  L 22,4  Z  " style="fill:rgb(152, 140, 105); fill-opacity:1.000; stroke:none;" />
 <path d="  M 21,17  L 21,18  L 22,18  L 22,19  L 23,19  L 23,18  L 24,18  L 24,17  Z  " style="fill:rgb(152, 140, 105); fill-opacity:1.000; stroke:none;" />
 <path d="  M 23,20  L 22,20  L 22,21  L 23,21  Z  " style="fill:rgb(152, 140, 105); fill-opacity:1.000; stroke:none;" />
 <path d="  M 24,28  L 24,30  L 23,30  L 23,31  L 26,31  L 26,29  L 25,29  L 25,28  Z  " style="fill:rgb(152, 140, 105); fill-opacity:1.000; stroke:none;" />
 <path d="  M 24,14  L 24,15  L 27,15  L 27,14  L 26,14  L 26,13  L 25,13  L 25,14  Z  " style="fill:rgb(152, 140, 105); fill-opacity:1.000; stroke:none;" />
 <path d="  M 26,0  L 26,1  L 28,1  L 28,0  Z  " style="fill:rgb(152, 140, 105); fill-opacity:1.000; stroke:none;" />
 <path d="  M 27,14  L 29,14  L 29,13  L 28,13  L 28,12  L 29,12  L 29,11  L 30,11  L 30,10  L 31,10  L 31,7  L 30,7  L 30,8  L 28,8  L 28,9  L 29,9  L 29,10  L 28,10  L 28,11  L 27,11  L 27,12  L 26,12  L 26,13  L 27,13  Z  " style="fill:rgb(152, 140, 105); fill-opacity:1.000; stroke:none;" />
 <path d="  M 27,29  L 27,31  L 28,31  L 28,30  L 29,30  L 29,29  L 28,29  L 28,28  L 29,28  L 29,27  L 27,27  L 27,28  L 26,28  L 26,29  Z  " style="fill:rgb(152, 140, 105); fill-opacity:1.000; stroke:none;" />
 <path d="  M 30,12  L 29,12  L 29,13  L 31,13  L 31,11  L 30,11  Z  " style="fill:rgb(152, 140, 105); fill-opacity:1.000; stroke:none;" />
 <path d="  M 29,28  L 29,29  L 30,29  L 30,28  Z  " style="fill:rgb(152, 140, 105); fill-opacity:1.000; stroke:none;" />
 <path d="  M 30,27  L 30,28  L 31,28  L 31,27  Z  " style="fill:rgb(152, 140, 105); fill-opacity:1.000; stroke:none;" />
 <path d="  M 0,29  L 1,29  L 1,28  L 0,28  Z  " style="fill:rgb(122, 152, 105); fill-opacity:1.000; stroke:none;" />
 <path d="  M 2,4  L 2,6  L 3,6  L 3,5  L 4,5  L 4,4  Z  " style="fill:rgb(122, 152, 105); fill-opacity:1.000; stroke:none;" />
 <path d="  M 4,13  L 5,13  L 5,12  L 4,12  Z  " style="fill:rgb(122, 152, 105); fill-opacity:1.000; stroke:none;" />
 <path d="  M 6,14  L 6,13  L 5,13  L 5,14  Z  " style="fill:rgb(122, 152, 105); fill-opacity:1.000; stroke:none;" />
 <path d="  M 12,13  L 11,13  L 11,14  L 12,14  Z  " style="fill:rgb(122, 152, 105); fill-opacity:1.000; stroke:none;" />
 <path d="  M 15,15  L 15,14  L 14,14  L 14,13  L 13,13  L 13,14  L 12,14  L 12,15  Z  " style="fill:rgb(122, 152, 105); fill-opacity:1.000; stroke:none;" />
 <path d="  M 14,13  L 15,13  L 15,11  L 14,11  Z  " style="fill:rgb(122, 152, 105); fill-opacity:1.000; stroke:none;" />
 <path d="  M 19,24  L 19,23  L 18,23  L 18,24  Z  " style="fill:rgb(122, 152, 105); fill-opacity:1.000; stroke:none;" />
 <path d="  M 20,22  L 19,22  L 19,23  L 20,23  Z  " style="fill:rgb(122, 152, 105); fill-opacity:1.000; stroke:none;" />
 <path d="  M 21,20  L 21,21  L 22,21  L 22,20  Z  " style="fill:rgb(122, 152, 105); fill-opacity:1.000; stroke:none;" />
 <path d="  M 26,29  L 26,28  L 25,28  L 25,29  Z  " style="fill:rgb(122, 152, 105); fill-opacity:1.000; stroke:none;" />
 <path d="  M 27,29  L 26,29  L 26,30  L 27,30  Z  " style="fill:rgb(122, 152, 105); fill-opacity:1.000; stroke:none;" />
 <path d="  M 29,11  L 29,12  L 30,12  L 30,11  Z  " style="fill:rgb(122, 152, 105); fill-opacity:1.000; stroke:none;" />
 <path d="  M 30,10  L 30,11  L 31,11  L 31,10  Z  " style="fill:rgb(122, 152, 105); fill-opacity:1.000; stroke:none;" />
 <path d="  M 0,32  L 2,32  L 2,31  L 1,31  L 1,29  L 0,29  Z  " style="fill:rgb(115, 96, 81); fill-opacity:1.000; stroke:none;" />
 <path d="  M 3,32  L 4,32  L 4,31  L 3,31  Z  " style="fill:rgb(115, 96, 81); fill-opacity:1.000; stroke:none;" />
 <path d="  M 5,16  L 5,15  L 4,15  L 4,16  Z  " style="fill:rgb(115, 96, 81); fill-opacity:1.000; stroke:none;" />
 <path d="  M 8,32  L 9,32  L 9,31  L 8,31  Z  " style="fill:rgb(115, 96, 81); fill-opacity:1.000; stroke:none;" />
 <path d="  M 10,15  L 10,16  L 11,16  L 11,15  Z  " style="fill:rgb(115, 96, 81); fill-opacity:1.000; stroke:none;" />
 <path d="  M 10,32  L 12,32  L 12,31  L 10,31  Z  " style="fill:rgb(115, 96, 81); fill-opacity:1.000; stroke:none;" />
 <path d="  M 16,16  L 16,13  L 15,13  L 15,15  L 12,15  L 12,16  Z  " style="fill:rgb(115, 96, 81); fill-opacity:1.000; stroke:none;" />
 <path d="  M 15,30  L 15,31  L 14,31  L 14,32  L 20,32  L 20,31  L 17,31  L 17,30  Z  " style="fill:rgb(115, 96, 81); fill-opacity:1.000; stroke:none;" />
 <path d="  M 16,2  L 15,2  L 15,3  L 16,3  Z  " style="fill:rgb(115, 96, 81); fill-opacity:1.000; stroke:none;" />
 <path d="  M 15,7  L 16,7  L 16,6  L 15,6  Z  " style="fill:rgb(115, 96, 81); fill-opacity:1.000; stroke:none;" />
 <path d="  M 15,22  L 15,23  L 16,23  L 16,22  Z  " style="fill:rgb(115, 96, 81); fill-opacity:1.000; stroke:none;" />
 <path d="  M 16,27  L 16,26  L 15,26  L 15,27  Z  " style="fill:rgb(115, 96, 81); fill-opacity:1.000; stroke:none;" />
 <path d="  M 20,16  L 20,15  L 18,15  L 18,16  Z  " style="fill:rgb(115, 96, 81); fill-opacity:1.000; stroke:none;" />
 <path d="  M 28,16  L 28,15  L 21,15  L 21,16  Z  " style="fill:rgb(115, 96, 81); fill-opacity:1.000; stroke:none;" />
 <path d="  M 24,31  L 24,32  L 28,32  L 28,31  Z  " style="fill:rgb(115, 96, 81); fill-opacity:1.000; stroke:none;" />
 <path d="  M 29,15  L 29,16  L 32,16  L 32,14  L 31,14  L 31,15  Z  " style="fill:rgb(115, 96, 81); fill-opacity:1.000; stroke:none;" />
 <path d="  M 31,4  L 32,4  L 32,2  L 31,2  Z  " style="fill:rgb(115, 96, 81); fill-opacity:1.000; stroke:none;" />
 <path d="  M 32,5  L 31,5  L 31,9  L 32,9  Z  " style="fill:rgb(115, 96, 81); fill-opacity:1.000; stroke:none;" />
 <path d="  M 31,11  L 32,11  L 32,10  L 31,10  Z  " style="fill:rgb(115, 96, 81); fill-opacity:1.000; stroke:none;" />
 <path d="  M 31,18  L 31,24  L 32,24  L 32,18  Z  " style="fill:rgb(115, 96, 81); fill-opacity:1.000; stroke:none;" />
 <path d="  M 31,28  L 32,28  L 32,26  L 31,26  Z  " style="fill:rgb(115, 96, 81); fill-opacity:1.000; stroke:none;" />
 <path d="  M 1,3  L 2,3  L 2,4  L 3,4  L 3,3  L 4,3  L 4,2  L 5,2  L 5,1  L 1,1  Z  " style="fill:rgb(148, 118, 97); fill-opacity:1.000; stroke:none;" />
 <path d="  M 1,4  L 1,5  L 2,5  L 2,4  Z  " style="fill:rgb(148, 118, 97); fill-opacity:1.000; stroke:none;" />
 <path d="  M 2,22  L 1,22  L 1,24  L 2,24  L 2,23  L 3,23  L 3,22  L 4,22  L 4,21  L 5,21  L 5,20  L 6,20  L 6,19  L 7,19  L 7,18  L 8,18  L 8,17  L 6,17  L 6,18  L 5,18  L 5,19  L 4,19  L 4,20  L 3,20  L 3,21  L 2,21  Z  " style="fill:rgb(148, 118, 97); fill-opacity:1.000; stroke:none;" />
 <path d="  M 7,20  L 6,20  L 6,21  L 5,21  L 5,22  L 4,22  L 4,23  L 3,23  L 3,24  L 2,24  L 2,25  L 1,25  L 1,26  L 3,26  L 3,25  L 4,25  L 4,24  L 5,24  L 5,23  L 6,23  L 6,22  L 7,22  L 7,21  L 8,21  L 8,20  L 9,20  L 9,19  L 10,19  L 10,18  L 11,18  L 11,17  L 9,17  L 9,18  L 8,18  L 8,19  L 7,19  Z  " style="fill:rgb(148, 118, 97); fill-opacity:1.000; stroke:none;" />
 <path d="  M 4,12  L 3,12  L 3,13  L 4,13  Z  " style="fill:rgb(148, 118, 97); fill-opacity:1.000; stroke:none;" />
 <path d="  M 3,15  L 4,15  L 4,14  L 3,14  Z  " style="fill:rgb(148, 118, 97); fill-opacity:1.000; stroke:none;" />
 <path d="  M 5,3  L 4,3  L 4,4  L 5,4  Z  " style="fill:rgb(148, 118, 97); fill-opacity:1.000; stroke:none;" />
 <path d="  M 4,12  L 5,12  L 5,13  L 6,13  L 6,14  L 5,14  L 5,15  L 7,15  L 7,14  L 8,14  L 8,13  L 7,13  L 7,12  L 8,12  L 8,11  L 7,11  L 7,10  L 8,10  L 8,9  L 6,9  L 6,10  L 5,10  L 5,9  L 4,9  Z  " style="fill:rgb(148, 118, 97); fill-opacity:1.000; stroke:none;" />
 <path d="  M 5,8  L 5,9  L 6,9  L 6,8  Z  " style="fill:rgb(148, 118, 97); fill-opacity:1.000; stroke:none;" />
 <path d="  M 11,3  L 10,3  L 10,4  L 9,4  L 9,5  L 8,5  L 8,6  L 7,6  L 7,7  L 9,7  L 9,6  L 10,6  L 10,5  L 11,5  L 11,4  L 12,4  L 12,3  L 13,3  L 13,2  L 14,2  L 14,1  L 12,1  L 12,2  L 11,2  Z  " style="fill:rgb(148, 118, 97); fill-opacity:1.000; stroke:none;" />
 <path d="  M 9,8  L 8,8  L 8,9  L 9,9  Z  " style="fill:rgb(148, 118, 97); fill-opacity:1.000; stroke:none;" />
 <path d="  M 8,10  L 8,11  L 10,11  L 10,10  Z  " style="fill:rgb(148, 118, 97); fill-opacity:1.000; stroke:none;" />
 <path d="  M 8,13  L 9,13  L 9,12  L 8,12  Z  " style="fill:rgb(148, 118, 97); fill-opacity:1.000; stroke:none;" />
 <path d="  M 8,24  L 8,25  L 9,25  L 9,24  Z  " style="fill:rgb(148, 118, 97); fill-opacity:1.000; stroke:none;" />
 <path d="  M 9,29  L 9,30  L 8,30  L 8,31  L 10,31  L 10,30  L 11,30  L 11,29  L 12,29  L 12,28  L 14,28  L 14,27  L 15,27  L 15,25  L 14,25  L 14,24  L 15,24  L 15,22  L 14,22  L 14,23  L 13,23  L 13,24  L 12,24  L 12,25  L 11,25  L 11,26  L 12,26  L 12,27  L 11,27  L 11,28  L 10,28  L 10,29  Z  M 14,26  L 14,27  L 13,27  L 13,26  Z  " style="fill:rgb(148, 118, 97); fill-opacity:1.000; stroke:none;" />
 <path d="  M 12,5  L 11,5  L 11,6  L 10,6  L 10,7  L 9,7  L 9,8  L 11,8  L 11,7  L 12,7  L 12,6  L 13,6  L 13,5  L 14,5  L 14,4  L 15,4  L 15,2  L 14,2  L 14,3  L 13,3  L 13,4  L 12,4  Z  " style="fill:rgb(148, 118, 97); fill-opacity:1.000; stroke:none;" />
 <path d="  M 10,24  L 10,25  L 11,25  L 11,24  L 12,24  L 12,23  L 13,23  L 13,22  L 14,22  L 14,21  L 15,21  L 15,18  L 14,18  L 14,19  L 13,19  L 13,20  L 12,20  L 12,21  L 11,21  L 11,22  L 10,22  L 10,23  L 9,23  L 9,24  Z  " style="fill:rgb(148, 118, 97); fill-opacity:1.000; stroke:none;" />
 <path d="  M 10,26  L 10,25  L 9,25  L 9,26  Z  " style="fill:rgb(148, 118, 97); fill-opacity:1.000; stroke:none;" />
 <path d="  M 11,26  L 10,26  L 10,27  L 11,27  Z  " style="fill:rgb(148, 118, 97); fill-opacity:1.000; stroke:none;" />
 <path d="  M 13,29  L 12,29  L 12,30  L 13,30  Z  " style="fill:rgb(148, 118, 97); fill-opacity:1.000; stroke:none;" />
 <path d="  M 21,4  L 21,3  L 19,3  L 19,4  L 18,4  L 18,5  L 17,5  L 17,7  L 18,7  L 18,6  L 20,6  L 20,4  Z  " style="fill:rgb(148, 118, 97); fill-opacity:1.000; stroke:none;" />
 <path d="  M 18,14  L 17,14  L 17,15  L 18,15  Z  " style="fill:rgb(148, 118, 97); fill-opacity:1.000; stroke:none;" />
 <path d="  M 17,17  L 17,20  L 18,20  L 18,19  L 19,19  L 19,20  L 20,20  L 20,18  L 21,18  L 21,17  Z  " style="fill:rgb(148, 118, 97); fill-opacity:1.000; stroke:none;" />
 <path d="  M 17,28  L 17,29  L 18,29  L 18,28  Z  " style="fill:rgb(148, 118, 97); fill-opacity:1.000; stroke:none;" />
 <path d="  M 18,2  L 18,3  L 19,3  L 19,2  Z  " style="fill:rgb(148, 118, 97); fill-opacity:1.000; stroke:none;" />
 <path d="  M 19,14  L 19,13  L 18,13  L 18,14  Z  " style="fill:rgb(148, 118, 97); fill-opacity:1.000; stroke:none;" />
 <path d="  M 21,25  L 20,25  L 20,26  L 19,26  L 19,25  L 18,25  L 18,28  L 20,28  L 20,27  L 21,27  L 21,26  L 23,26  L 23,25  L 22,25  L 22,24  L 21,24  Z  " style="fill:rgb(148, 118, 97); fill-opacity:1.000; stroke:none;" />
 <path d="  M 20,10  L 19,10  L 19,11  L 21,11  L 21,10  L 22,10  L 22,12  L 23,12  L 23,11  L 24,11  L 24,10  L 25,10  L 25,9  L 26,9  L 26,8  L 27,8  L 27,7  L 28,7  L 28,6  L 29,6  L 29,5  L 30,5  L 30,4  L 31,4  L 31,1  L 28,1  L 28,2  L 27,2  L 27,3  L 26,3  L 26,4  L 25,4  L 25,5  L 24,5  L 24,6  L 23,6  L 23,7  L 22,7  L 22,8  L 21,8  L 21,9  L 20,9  Z  M 25,7  L 25,6  L 26,6  L 26,7  Z  M 28,5  L 27,5  L 27,4  L 28,4  Z  M 27,5  L 27,6  L 26,6  L 26,5  Z  M 24,7  L 25,7  L 25,8  L 24,8  Z  M 23,9  L 23,10  L 22,10  L 22,9  Z  " style="fill:rgb(148, 118, 97); fill-opacity:1.000; stroke:none;" />
 <path d="  M 20,12  L 19,12  L 19,13  L 20,13  Z  " style="fill:rgb(148, 118, 97); fill-opacity:1.000; stroke:none;" />
 <path d="  M 19,15  L 20,15  L 20,14  L 19,14  Z  " style="fill:rgb(148, 118, 97); fill-opacity:1.000; stroke:none;" />
 <path d="  M 20,25  L 20,24  L 19,24  L 19,25  Z  " style="fill:rgb(148, 118, 97); fill-opacity:1.000; stroke:none;" />
 <path d="  M 21,29  L 21,28  L 20,28  L 20,29  Z  " style="fill:rgb(148, 118, 97); fill-opacity:1.000; stroke:none;" />
 <path d="  M 22,19  L 22,18  L 21,18  L 21,19  Z  " style="fill:rgb(148, 118, 97); fill-opacity:1.000; stroke:none;" />
 <path d="  M 22,24  L 23,24  L 23,23  L 22,23  Z  " style="fill:rgb(148, 118, 97); fill-opacity:1.000; stroke:none;" />
 <path d="  M 23,22  L 23,23  L 24,23  L 24,22  Z  " style="fill:rgb(148, 118, 97); fill-opacity:1.000; stroke:none;" />
 <path d="  M 23,24  L 23,25  L 24,25  L 24,24  Z  " style="fill:rgb(148, 118, 97); fill-opacity:1.000; stroke:none;" />
 <path d="  M 23,26  L 23,27  L 25,27  L 25,26  Z  " style="fill:rgb(148, 118, 97); fill-opacity:1.000; stroke:none;" />
 <path d="  M 24,21  L 24,22  L 25,22  L 25,21  Z  " style="fill:rgb(148, 118, 97); fill-opacity:1.000; stroke:none;" />
 <path d="  M 26,18  L 27,18  L 27,19  L 29,19  L 29,18  L 28,18  L 28,17  L 25,17  L 25,19  L 26,19  Z  " style="fill:rgb(148, 118, 97); fill-opacity:1.000; stroke:none;" />
 <path d="  M 25,20  L 25,21  L 26,21  L 26,20  Z  " style="fill:rgb(148, 118, 97); fill-opacity:1.000; stroke:none;" />
 <path d="  M 27,19  L 26,19  L 26,20  L 27,20  Z  " style="fill:rgb(148, 118, 97); fill-opacity:1.000; stroke:none;" />
 <path d="  M 26,24  L 27,24  L 27,23  L 26,23  Z  " style="fill:rgb(148, 118, 97); fill-opacity:1.000; stroke:none;" />
 <path d="  M 28,22  L 27,22  L 27,23  L 28,23  Z  " style="fill:rgb(148, 118, 97); fill-opacity:1.000; stroke:none;" />
 <path d="  M 28,23  L 28,24  L 29,24  L 29,23  Z  " style="fill:rgb(148, 118, 97); fill-opacity:1.000; stroke:none;" />
 <path d="  M 29,26  L 29,25  L 28,25  L 28,26  Z  " style="fill:rgb(148, 118, 97); fill-opacity:1.000; stroke:none;" />
 <path d="  M 29,18  L 30,18  L 30,17  L 29,17  Z  " style="fill:rgb(148, 118, 97); fill-opacity:1.000; stroke:none;" />
 <path d="  M 31,22  L 30,22  L 30,21  L 29,21  L 29,23  L 30,23  L 30,24  L 29,24  L 29,25  L 30,25  L 30,26  L 31,26  Z  " style="fill:rgb(148, 118, 97); fill-opacity:1.000; stroke:none;" />
 <path d="  M 1,17  L 1,22  L 2,22  L 2,21  L 3,21  L 3,20  L 4,20  L 4,19  L 5,19  L 5,18  L 6,18  L 6,17  Z  " style="fill:rgb(168, 119, 98); fill-opacity:1.000; stroke:none;" />
 <path d="  M 1,28  L 2,28  L 2,27  L 3,27  L 3,28  L 4,28  L 4,27  L 5,27  L 5,26  L 6,26  L 6,25  L 7,25  L 7,24  L 8,24  L 8,23  L 9,23  L 9,22  L 10,22  L 10,21  L 11,21  L 11,20  L 10,20  L 10,19  L 9,19  L 9,20  L 8,20  L 8,21  L 7,21  L 7,22  L 6,22  L 6,23  L 5,23  L 5,24  L 4,24  L 4,25  L 3,25  L 3,26  L 1,26  Z  " style="fill:rgb(168, 119, 98); fill-opacity:1.000; stroke:none;" />
 <path d="  M 3,10  L 3,9  L 2,9  L 2,10  Z  " style="fill:rgb(168, 119, 98); fill-opacity:1.000; stroke:none;" />
 <path d="  M 3,7  L 4,7  L 4,6  L 3,6  Z  " style="fill:rgb(168, 119, 98); fill-opacity:1.000; stroke:none;" />
 <path d="  M 9,5  L 9,4  L 10,4  L 10,3  L 11,3  L 11,2  L 12,2  L 12,1  L 9,1  L 9,2  L 8,2  L 8,3  L 7,3  L 7,4  L 6,4  L 6,6  L 5,6  L 5,7  L 4,7  L 4,8  L 3,8  L 3,9  L 5,9  L 5,8  L 7,8  L 7,6  L 8,6  L 8,5  Z  " style="fill:rgb(168, 119, 98); fill-opacity:1.000; stroke:none;" />
 <path d="  M 3,10  L 3,11  L 4,11  L 4,10  Z  " style="fill:rgb(168, 119, 98); fill-opacity:1.000; stroke:none;" />
 <path d="  M 5,9  L 5,10  L 6,10  L 6,9  Z  " style="fill:rgb(168, 119, 98); fill-opacity:1.000; stroke:none;" />
 <path d="  M 8,27  L 7,27  L 7,28  L 6,28  L 6,30  L 5,30  L 5,31  L 8,31  L 8,30  L 9,30  L 9,29  L 10,29  L 10,28  L 11,28  L 11,27  L 10,27  L 10,26  L 9,26  L 9,25  L 7,25  L 7,26  L 8,26  Z  " style="fill:rgb(168, 119, 98); fill-opacity:1.000; stroke:none;" />
 <path d="  M 7,19  L 6,19  L 6,20  L 7,20  Z  " style="fill:rgb(168, 119, 98); fill-opacity:1.000; stroke:none;" />
 <path d="  M 7,26  L 6,26  L 6,27  L 7,27  Z  " style="fill:rgb(168, 119, 98); fill-opacity:1.000; stroke:none;" />
 <path d="  M 7,13  L 8,13  L 8,12  L 7,12  Z  " style="fill:rgb(168, 119, 98); fill-opacity:1.000; stroke:none;" />
 <path d="  M 10,13  L 11,13  L 11,12  L 10,12  L 10,11  L 8,11  L 8,12  L 9,12  L 9,13  L 8,13  L 8,14  L 7,14  L 7,15  L 9,15  L 9,14  L 10,14  Z  " style="fill:rgb(168, 119, 98); fill-opacity:1.000; stroke:none;" />
 <path d="  M 7,19  L 8,19  L 8,18  L 7,18  Z  " style="fill:rgb(168, 119, 98); fill-opacity:1.000; stroke:none;" />
 <path d="  M 8,17  L 8,18  L 9,18  L 9,17  Z  " style="fill:rgb(168, 119, 98); fill-opacity:1.000; stroke:none;" />
 <path d="  M 10,25  L 10,24  L 9,24  L 9,25  Z  " style="fill:rgb(168, 119, 98); fill-opacity:1.000; stroke:none;" />
 <path d="  M 15,4  L 14,4  L 14,5  L 13,5  L 13,6  L 12,6  L 12,7  L 11,7  L 11,9  L 10,9  L 10,11  L 11,11  L 11,10  L 12,10  L 12,9  L 13,9  L 13,8  L 14,8  L 14,7  L 15,7  Z  " style="fill:rgb(168, 119, 98); fill-opacity:1.000; stroke:none;" />
 <path d="  M 11,18  L 10,18  L 10,19  L 11,19  Z  " style="fill:rgb(168, 119, 98); fill-opacity:1.000; stroke:none;" />
 <path d="  M 15,27  L 14,27  L 14,28  L 12,28  L 12,29  L 11,29  L 11,30  L 10,30  L 10,31  L 15,31  Z  M 13,29  L 13,30  L 12,30  L 12,29  Z  " style="fill:rgb(168, 119, 98); fill-opacity:1.000; stroke:none;" />
 <path d="  M 12,17  L 11,17  L 11,18  L 12,18  Z  " style="fill:rgb(168, 119, 98); fill-opacity:1.000; stroke:none;" />
 <path d="  M 12,19  L 11,19  L 11,20  L 12,20  Z  " style="fill:rgb(168, 119, 98); fill-opacity:1.000; stroke:none;" />
 <path d="  M 12,26  L 11,26  L 11,27  L 12,27  Z  " style="fill:rgb(168, 119, 98); fill-opacity:1.000; stroke:none;" />
 <path d="  M 12,18  L 12,19  L 13,19  L 13,18  Z  " style="fill:rgb(168, 119, 98); fill-opacity:1.000; stroke:none;" />
 <path d="  M 13,17  L 13,18  L 14,18  L 14,17  Z  " style="fill:rgb(168, 119, 98); fill-opacity:1.000; stroke:none;" />
 <path d="  M 13,27  L 14,27  L 14,26  L 13,26  Z  " style="fill:rgb(168, 119, 98); fill-opacity:1.000; stroke:none;" />
 <path d="  M 14,9  L 15,9  L 15,8  L 14,8  Z  " style="fill:rgb(168, 119, 98); fill-opacity:1.000; stroke:none;" />
 <path d="  M 14,16  L 14,17  L 15,17  L 15,16  Z  " style="fill:rgb(168, 119, 98); fill-opacity:1.000; stroke:none;" />
 <path d="  M 14,24  L 14,25  L 15,25  L 15,24  Z  " style="fill:rgb(168, 119, 98); fill-opacity:1.000; stroke:none;" />
 <path d="  M 17,7  L 17,10  L 18,10  L 18,9  L 19,9  L 19,8  L 20,8  L 20,9  L 21,9  L 21,8  L 22,8  L 22,7  L 23,7  L 23,6  L 22,6  L 22,5  L 21,5  L 21,6  L 18,6  L 18,7  Z  " style="fill:rgb(168, 119, 98); fill-opacity:1.000; stroke:none;" />
 <path d="  M 19,12  L 21,12  L 21,13  L 22,13  L 22,10  L 21,10  L 21,11  L 19,11  L 19,10  L 18,10  L 18,11  L 17,11  L 17,13  L 19,13  Z  " style="fill:rgb(168, 119, 98); fill-opacity:1.000; stroke:none;" />
 <path d="  M 20,9  L 19,9  L 19,10  L 20,10  Z  " style="fill:rgb(168, 119, 98); fill-opacity:1.000; stroke:none;" />
 <path d="  M 20,4  L 20,5  L 21,5  L 21,4  Z  " style="fill:rgb(168, 119, 98); fill-opacity:1.000; stroke:none;" />
 <path d="  M 20,25  L 21,25  L 21,24  L 22,24  L 22,23  L 23,23  L 23,22  L 24,22  L 24,21  L 25,21  L 25,20  L 26,20  L 26,19  L 25,19  L 25,18  L 24,18  L 24,19  L 23,19  L 23,21  L 22,21  L 22,22  L 21,22  L 21,23  L 20,23  Z  " style="fill:rgb(168, 119, 98); fill-opacity:1.000; stroke:none;" />
 <path d="  M 22,5  L 23,5  L 23,4  L 22,4  Z  " style="fill:rgb(168, 119, 98); fill-opacity:1.000; stroke:none;" />
 <path d="  M 22,10  L 23,10  L 23,9  L 22,9  Z  " style="fill:rgb(168, 119, 98); fill-opacity:1.000; stroke:none;" />
 <path d="  M 26,9  L 25,9  L 25,10  L 24,10  L 24,11  L 23,11  L 23,13  L 22,13  L 22,14  L 24,14  L 24,13  L 25,13  L 25,12  L 26,12  L 26,11  L 27,11  L 27,10  L 29,10  L 29,9  L 28,9  L 28,8  L 30,8  L 30,7  L 31,7  L 31,4  L 30,4  L 30,5  L 29,5  L 29,6  L 28,6  L 28,7  L 27,7  L 27,8  L 26,8  Z  " style="fill:rgb(168, 119, 98); fill-opacity:1.000; stroke:none;" />
 <path d="  M 22,24  L 22,25  L 23,25  L 23,24  Z  " style="fill:rgb(168, 119, 98); fill-opacity:1.000; stroke:none;" />
 <path d="  M 23,30  L 23,29  L 22,29  L 22,30  Z  " style="fill:rgb(168, 119, 98); fill-opacity:1.000; stroke:none;" />
 <path d="  M 24,4  L 24,3  L 23,3  L 23,4  Z  " style="fill:rgb(168, 119, 98); fill-opacity:1.000; stroke:none;" />
 <path d="  M 24,5  L 23,5  L 23,6  L 24,6  Z  " style="fill:rgb(168, 119, 98); fill-opacity:1.000; stroke:none;" />
 <path d="  M 26,25  L 26,22  L 27,22  L 27,21  L 28,21  L 28,20  L 29,20  L 29,19  L 27,19  L 27,20  L 26,20  L 26,21  L 25,21  L 25,22  L 24,22  L 24,23  L 23,23  L 23,24  L 25,24  L 25,25  Z  " style="fill:rgb(168, 119, 98); fill-opacity:1.000; stroke:none;" />
 <path d="  M 23,29  L 24,29  L 24,28  L 23,28  Z  " style="fill:rgb(168, 119, 98); fill-opacity:1.000; stroke:none;" />
 <path d="  M 25,3  L 25,2  L 24,2  L 24,3  Z  " style="fill:rgb(168, 119, 98); fill-opacity:1.000; stroke:none;" />
 <path d="  M 25,5  L 25,4  L 24,4  L 24,5  Z  " style="fill:rgb(168, 119, 98); fill-opacity:1.000; stroke:none;" />
 <path d="  M 26,27  L 27,27  L 27,26  L 28,26  L 28,25  L 29,25  L 29,24  L 28,24  L 28,23  L 27,23  L 27,25  L 26,25  L 26,26  L 25,26  L 25,27  L 24,27  L 24,28  L 26,28  Z  " style="fill:rgb(168, 119, 98); fill-opacity:1.000; stroke:none;" />
 <path d="  M 25,1  L 25,2  L 26,2  L 26,1  Z  " style="fill:rgb(168, 119, 98); fill-opacity:1.000; stroke:none;" />
 <path d="  M 26,4  L 26,3  L 25,3  L 25,4  Z  " style="fill:rgb(168, 119, 98); fill-opacity:1.000; stroke:none;" />
 <path d="  M 27,3  L 27,2  L 26,2  L 26,3  Z  " style="fill:rgb(168, 119, 98); fill-opacity:1.000; stroke:none;" />
 <path d="  M 26,13  L 26,14  L 27,14  L 27,13  Z  " style="fill:rgb(168, 119, 98); fill-opacity:1.000; stroke:none;" />
 <path d="  M 26,19  L 27,19  L 27,18  L 26,18  Z  " style="fill:rgb(168, 119, 98); fill-opacity:1.000; stroke:none;" />
 <path d="  M 27,2  L 28,2  L 28,1  L 27,1  Z  " style="fill:rgb(168, 119, 98); fill-opacity:1.000; stroke:none;" />
 <path d="  M 31,13  L 29,13  L 29,14  L 27,14  L 27,15  L 31,15  Z  " style="fill:rgb(168, 119, 98); fill-opacity:1.000; stroke:none;" />
 <path d="  M 28,13  L 29,13  L 29,12  L 28,12  Z  " style="fill:rgb(168, 119, 98); fill-opacity:1.000; stroke:none;" />
 <path d="  M 29,26  L 28,26  L 28,27  L 29,27  L 29,28  L 30,28  L 30,27  L 31,27  L 31,26  L 30,26  L 30,25  L 29,25  Z  " style="fill:rgb(168, 119, 98); fill-opacity:1.000; stroke:none;" />
 <path d="  M 29,23  L 29,24  L 30,24  L 30,23  Z  " style="fill:rgb(168, 119, 98); fill-opacity:1.000; stroke:none;" />
</svg>
