<?xml version="1.0" encoding="UTF-8" standalone="no"?>
<!DOCTYPE svg PUBLIC "-//W3C//DTD SVG 1.1//EN" 
  "http://www.w3.org/Graphics/SVG/1.1/DTD/svg11.dtd">
<svg width="32" height="32"
	 xmlns="http://www.w3.org/2000/svg" version="1.1">
 <path d="  M 10,10  L 10,11  L 11,11  L 11,12  L 12,12  L 12,11  L 13,11  L 13,10  Z  " style="fill:rgb(137, 76, 59); fill-opacity:1.000; stroke:none;" />
 <path d="  M 11,17  L 11,16  L 10,16  L 10,17  Z  " style="fill:rgb(137, 76, 59); fill-opacity:1.000; stroke:none;" />
 <path d="  M 10,21  L 11,21  L 11,19  L 10,19  Z  " style="fill:rgb(137, 76, 59); fill-opacity:1.000; stroke:none;" />
 <path d="  M 15,11  L 14,11  L 14,12  L 15,12  Z  " style="fill:rgb(137, 76, 59); fill-opacity:1.000; stroke:none;" />
 <path d="  M 10,19  L 11,19  L 11,20  L 12,20  L 12,12  L 11,12  L 11,11  L 10,11  L 10,16  L 11,16  L 11,17  L 10,17  Z  " style="fill:rgb(131, 73, 57); fill-opacity:1.000; stroke:none;" />
 <path d="  M 10,21  L 10,23  L 12,23  L 12,22  L 13,22  L 13,21  L 14,21  L 14,20  L 12,20  L 12,21  Z  " style="fill:rgb(131, 73, 57); fill-opacity:1.000; stroke:none;" />
 <path d="  M 12,25  L 12,26  L 11,26  L 11,25  L 10,25  L 10,30  L 11,30  L 11,31  L 13,31  L 13,30  L 14,30  L 14,29  L 15,29  L 15,30  L 16,30  L 16,29  L 17,29  L 17,28  L 18,28  L 18,26  L 17,26  L 17,25  L 16,25  L 16,26  L 15,26  L 15,25  Z  " style="fill:rgb(131, 73, 57); fill-opacity:1.000; stroke:none;" />
 <path d="  M 13,11  L 12,11  L 12,12  L 14,12  L 14,11  L 15,11  L 15,12  L 18,12  L 18,11  L 17,11  L 17,10  L 13,10  Z  " style="fill:rgb(131, 73, 57); fill-opacity:1.000; stroke:none;" />
 <path d="  M 15,20  L 15,21  L 17,21  L 17,20  Z  " style="fill:rgb(131, 73, 57); fill-opacity:1.000; stroke:none;" />
 <path d="  M 16,22  L 16,23  L 18,23  L 18,22  Z  " style="fill:rgb(131, 73, 57); fill-opacity:1.000; stroke:none;" />
 <path d="  M 10,23  L 10,24  L 12,24  L 12,23  Z  " style="fill:rgb(103, 57, 45); fill-opacity:1.000; stroke:none;" />
 <path d="  M 14,24  L 15,24  L 15,23  L 14,23  Z  " style="fill:rgb(103, 57, 45); fill-opacity:1.000; stroke:none;" />
 <path d="  M 16,23  L 16,24  L 20,24  L 20,23  Z  " style="fill:rgb(103, 57, 45); fill-opacity:1.000; stroke:none;" />
 <path d="  M 21,30  L 20,30  L 20,31  L 19,31  L 19,32  L 22,32  L 22,23  L 21,23  Z  " style="fill:rgb(103, 57, 45); fill-opacity:1.000; stroke:none;" />
 <path d="  M 21,13  L 22,13  L 22,10  L 21,10  Z  " style="fill:rgb(103, 57, 45); fill-opacity:1.000; stroke:none;" />
 <path d="  M 10,24  L 10,25  L 12,25  L 12,24  Z  " style="fill:rgb(116, 63, 49); fill-opacity:1.000; stroke:none;" />
 <path d="  M 15,22  L 13,22  L 13,23  L 12,23  L 12,24  L 14,24  L 14,23  L 15,23  Z  " style="fill:rgb(116, 63, 49); fill-opacity:1.000; stroke:none;" />
 <path d="  M 15,32  L 15,31  L 12,31  L 12,32  Z  " style="fill:rgb(116, 63, 49); fill-opacity:1.000; stroke:none;" />
 <path d="  M 14,24  L 14,25  L 15,25  L 15,24  Z  " style="fill:rgb(116, 63, 49); fill-opacity:1.000; stroke:none;" />
 <path d="  M 16,22  L 16,21  L 15,21  L 15,22  Z  " style="fill:rgb(116, 63, 49); fill-opacity:1.000; stroke:none;" />
 <path d="  M 16,23  L 15,23  L 15,24  L 16,24  Z  " style="fill:rgb(116, 63, 49); fill-opacity:1.000; stroke:none;" />
 <path d="  M 16,25  L 18,25  L 18,24  L 16,24  Z  " style="fill:rgb(116, 63, 49); fill-opacity:1.000; stroke:none;" />
 <path d="  M 19,31  L 20,31  L 20,30  L 21,30  L 21,23  L 20,23  L 20,25  L 19,25  L 19,27  L 20,27  L 20,29  L 19,29  L 19,30  L 18,30  L 18,31  L 17,31  L 17,30  L 16,30  L 16,32  L 19,32  Z  " style="fill:rgb(116, 63, 49); fill-opacity:1.000; stroke:none;" />
 <path d="  M 17,11  L 18,11  L 18,10  L 17,10  Z  " style="fill:rgb(116, 63, 49); fill-opacity:1.000; stroke:none;" />
 <path d="  M 17,22  L 18,22  L 18,21  L 17,21  Z  " style="fill:rgb(116, 63, 49); fill-opacity:1.000; stroke:none;" />
 <path d="  M 22,13  L 21,13  L 21,10  L 19,10  L 19,11  L 20,11  L 20,15  L 21,15  L 21,16  L 20,16  L 20,17  L 21,17  L 21,20  L 19,20  L 19,22  L 18,22  L 18,23  L 20,23  L 20,21  L 21,21  L 21,22  L 22,22  Z  " style="fill:rgb(116, 63, 49); fill-opacity:1.000; stroke:none;" />
 <path d="  M 19,28  L 19,27  L 18,27  L 18,28  Z  " style="fill:rgb(116, 63, 49); fill-opacity:1.000; stroke:none;" />
 <path d="  M 10,32  L 12,32  L 12,31  L 11,31  L 11,30  L 10,30  Z  " style="fill:rgb(121, 67, 52); fill-opacity:1.000; stroke:none;" />
 <path d="  M 12,21  L 12,20  L 11,20  L 11,21  Z  " style="fill:rgb(121, 67, 52); fill-opacity:1.000; stroke:none;" />
 <path d="  M 12,25  L 11,25  L 11,26  L 12,26  Z  " style="fill:rgb(121, 67, 52); fill-opacity:1.000; stroke:none;" />
 <path d="  M 12,23  L 13,23  L 13,22  L 12,22  Z  " style="fill:rgb(121, 67, 52); fill-opacity:1.000; stroke:none;" />
 <path d="  M 12,25  L 14,25  L 14,24  L 12,24  Z  " style="fill:rgb(121, 67, 52); fill-opacity:1.000; stroke:none;" />
 <path d="  M 15,22  L 15,20  L 14,20  L 14,21  L 13,21  L 13,22  Z  " style="fill:rgb(121, 67, 52); fill-opacity:1.000; stroke:none;" />
 <path d="  M 15,30  L 15,29  L 14,29  L 14,30  L 13,30  L 13,31  L 15,31  L 15,32  L 16,32  L 16,30  Z  " style="fill:rgb(121, 67, 52); fill-opacity:1.000; stroke:none;" />
 <path d="  M 15,22  L 15,23  L 16,23  L 16,22  Z  " style="fill:rgb(121, 67, 52); fill-opacity:1.000; stroke:none;" />
 <path d="  M 16,24  L 15,24  L 15,26  L 16,26  Z  " style="fill:rgb(121, 67, 52); fill-opacity:1.000; stroke:none;" />
 <path d="  M 17,22  L 17,21  L 16,21  L 16,22  Z  " style="fill:rgb(121, 67, 52); fill-opacity:1.000; stroke:none;" />
 <path d="  M 19,27  L 19,28  L 17,28  L 17,29  L 16,29  L 16,30  L 17,30  L 17,31  L 18,31  L 18,30  L 19,30  L 19,29  L 20,29  L 20,27  Z  " style="fill:rgb(121, 67, 52); fill-opacity:1.000; stroke:none;" />
 <path d="  M 17,20  L 17,21  L 18,21  L 18,22  L 19,22  L 19,20  Z  " style="fill:rgb(121, 67, 52); fill-opacity:1.000; stroke:none;" />
 <path d="  M 18,27  L 19,27  L 19,25  L 20,25  L 20,24  L 18,24  L 18,25  L 17,25  L 17,26  L 18,26  Z  " style="fill:rgb(121, 67, 52); fill-opacity:1.000; stroke:none;" />
 <path d="  M 18,10  L 18,12  L 20,12  L 20,11  L 19,11  L 19,10  Z  " style="fill:rgb(121, 67, 52); fill-opacity:1.000; stroke:none;" />
 <path d="  M 20,16  L 21,16  L 21,15  L 20,15  Z  " style="fill:rgb(121, 67, 52); fill-opacity:1.000; stroke:none;" />
 <path d="  M 21,17  L 20,17  L 20,20  L 21,20  Z  " style="fill:rgb(121, 67, 52); fill-opacity:1.000; stroke:none;" />
 <path d="  M 20,21  L 20,23  L 22,23  L 22,22  L 21,22  L 21,21  Z  " style="fill:rgb(121, 67, 52); fill-opacity:1.000; stroke:none;" />
</svg>
