<?xml version="1.0" encoding="UTF-8" standalone="no"?>
<!DOCTYPE svg PUBLIC "-//W3C//DTD SVG 1.1//EN" 
  "http://www.w3.org/Graphics/SVG/1.1/DTD/svg11.dtd">
<svg width="32" height="32"
	 xmlns="http://www.w3.org/2000/svg" version="1.1">
 <path d="  M 2,0  L 0,0  L 0,2  L 2,2  Z  " style="fill:rgb(71, 79, 82); fill-opacity:1.000; stroke:none;" />
 <path d="  M 1,17  L 0,17  L 0,18  L 1,18  Z  " style="fill:rgb(71, 79, 82); fill-opacity:1.000; stroke:none;" />
 <path d="  M 1,22  L 0,22  L 0,23  L 1,23  Z  " style="fill:rgb(71, 79, 82); fill-opacity:1.000; stroke:none;" />
 <path d="  M 4,32  L 4,31  L 3,31  L 3,30  L 2,30  L 2,29  L 1,29  L 1,28  L 0,28  L 0,32  Z  " style="fill:rgb(71, 79, 82); fill-opacity:1.000; stroke:none;" />
 <path d="  M 1,16  L 1,17  L 2,17  L 2,16  Z  " style="fill:rgb(71, 79, 82); fill-opacity:1.000; stroke:none;" />
 <path d="  M 1,21  L 1,22  L 2,22  L 2,21  Z  " style="fill:rgb(71, 79, 82); fill-opacity:1.000; stroke:none;" />
 <path d="  M 3,15  L 2,15  L 2,16  L 3,16  Z  " style="fill:rgb(71, 79, 82); fill-opacity:1.000; stroke:none;" />
 <path d="  M 2,21  L 3,21  L 3,20  L 2,20  Z  " style="fill:rgb(71, 79, 82); fill-opacity:1.000; stroke:none;" />
 <path d="  M 6,30  L 6,26  L 2,26  L 2,29  L 3,29  L 3,30  Z  " style="fill:rgb(71, 79, 82); fill-opacity:1.000; stroke:none;" />
 <path d="  M 5,15  L 5,14  L 3,14  L 3,15  Z  " style="fill:rgb(71, 79, 82); fill-opacity:1.000; stroke:none;" />
 <path d="  M 5,19  L 3,19  L 3,20  L 5,20  Z  " style="fill:rgb(71, 79, 82); fill-opacity:1.000; stroke:none;" />
 <path d="  M 5,12  L 6,12  L 6,5  L 5,5  Z  " style="fill:rgb(71, 79, 82); fill-opacity:1.000; stroke:none;" />
 <path d="  M 5,15  L 5,16  L 6,16  L 6,15  Z  " style="fill:rgb(71, 79, 82); fill-opacity:1.000; stroke:none;" />
 <path d="  M 6,20  L 5,20  L 5,21  L 6,21  Z  " style="fill:rgb(71, 79, 82); fill-opacity:1.000; stroke:none;" />
 <path d="  M 6,4  L 6,5  L 10,5  L 10,4  Z  " style="fill:rgb(71, 79, 82); fill-opacity:1.000; stroke:none;" />
 <path d="  M 6,16  L 6,17  L 7,17  L 7,16  Z  " style="fill:rgb(71, 79, 82); fill-opacity:1.000; stroke:none;" />
 <path d="  M 6,21  L 6,22  L 7,22  L 7,21  Z  " style="fill:rgb(71, 79, 82); fill-opacity:1.000; stroke:none;" />
 <path d="  M 8,17  L 7,17  L 7,18  L 8,18  Z  " style="fill:rgb(71, 79, 82); fill-opacity:1.000; stroke:none;" />
 <path d="  M 7,22  L 7,23  L 8,23  L 8,22  Z  " style="fill:rgb(71, 79, 82); fill-opacity:1.000; stroke:none;" />
 <path d="  M 8,19  L 9,19  L 9,18  L 8,18  Z  " style="fill:rgb(71, 79, 82); fill-opacity:1.000; stroke:none;" />
 <path d="  M 9,24  L 9,23  L 8,23  L 8,24  Z  " style="fill:rgb(71, 79, 82); fill-opacity:1.000; stroke:none;" />
 <path d="  M 9,19  L 9,20  L 10,20  L 10,19  Z  " style="fill:rgb(71, 79, 82); fill-opacity:1.000; stroke:none;" />
 <path d="  M 10,25  L 10,24  L 9,24  L 9,25  Z  " style="fill:rgb(71, 79, 82); fill-opacity:1.000; stroke:none;" />
 <path d="  M 9,32  L 10,32  L 10,31  L 9,31  Z  " style="fill:rgb(71, 79, 82); fill-opacity:1.000; stroke:none;" />
 <path d="  M 10,13  L 13,13  L 13,12  L 10,12  Z  " style="fill:rgb(71, 79, 82); fill-opacity:1.000; stroke:none;" />
 <path d="  M 11,20  L 10,20  L 10,21  L 11,21  Z  " style="fill:rgb(71, 79, 82); fill-opacity:1.000; stroke:none;" />
 <path d="  M 11,25  L 10,25  L 10,26  L 11,26  Z  " style="fill:rgb(71, 79, 82); fill-opacity:1.000; stroke:none;" />
 <path d="  M 10,31  L 11,31  L 11,30  L 10,30  Z  " style="fill:rgb(71, 79, 82); fill-opacity:1.000; stroke:none;" />
 <path d="  M 12,21  L 11,21  L 11,22  L 12,22  Z  " style="fill:rgb(71, 79, 82); fill-opacity:1.000; stroke:none;" />
 <path d="  M 12,26  L 11,26  L 11,27  L 12,27  Z  " style="fill:rgb(71, 79, 82); fill-opacity:1.000; stroke:none;" />
 <path d="  M 11,30  L 12,30  L 12,29  L 11,29  Z  " style="fill:rgb(71, 79, 82); fill-opacity:1.000; stroke:none;" />
 <path d="  M 12,23  L 13,23  L 13,22  L 12,22  Z  " style="fill:rgb(71, 79, 82); fill-opacity:1.000; stroke:none;" />
 <path d="  M 13,27  L 12,27  L 12,29  L 13,29  Z  " style="fill:rgb(71, 79, 82); fill-opacity:1.000; stroke:none;" />
 <path d="  M 15,14  L 15,13  L 13,13  L 13,14  Z  " style="fill:rgb(71, 79, 82); fill-opacity:1.000; stroke:none;" />
 <path d="  M 14,23  L 13,23  L 13,24  L 14,24  Z  " style="fill:rgb(71, 79, 82); fill-opacity:1.000; stroke:none;" />
 <path d="  M 14,24  L 14,25  L 15,25  L 15,24  Z  " style="fill:rgb(71, 79, 82); fill-opacity:1.000; stroke:none;" />
 <path d="  M 15,32  L 15,31  L 14,31  L 14,32  Z  " style="fill:rgb(71, 79, 82); fill-opacity:1.000; stroke:none;" />
 <path d="  M 17,14  L 15,14  L 15,15  L 17,15  Z  " style="fill:rgb(71, 79, 82); fill-opacity:1.000; stroke:none;" />
 <path d="  M 16,26  L 16,25  L 15,25  L 15,26  Z  " style="fill:rgb(71, 79, 82); fill-opacity:1.000; stroke:none;" />
 <path d="  M 16,31  L 16,30  L 15,30  L 15,31  Z  " style="fill:rgb(71, 79, 82); fill-opacity:1.000; stroke:none;" />
 <path d="  M 16,26  L 16,27  L 17,27  L 17,26  Z  " style="fill:rgb(71, 79, 82); fill-opacity:1.000; stroke:none;" />
 <path d="  M 16,29  L 16,30  L 17,30  L 17,29  Z  " style="fill:rgb(71, 79, 82); fill-opacity:1.000; stroke:none;" />
 <path d="  M 17,15  L 17,17  L 18,17  L 18,15  Z  " style="fill:rgb(71, 79, 82); fill-opacity:1.000; stroke:none;" />
 <path d="  M 18,27  L 17,27  L 17,29  L 18,29  Z  " style="fill:rgb(71, 79, 82); fill-opacity:1.000; stroke:none;" />
 <path d="  M 18,8  L 21,8  L 21,6  L 22,6  L 22,3  L 21,3  L 21,4  L 20,4  L 20,5  L 19,5  L 19,6  L 18,6  Z  " style="fill:rgb(71, 79, 82); fill-opacity:1.000; stroke:none;" />
 <path d="  M 19,19  L 19,17  L 18,17  L 18,19  Z  " style="fill:rgb(71, 79, 82); fill-opacity:1.000; stroke:none;" />
 <path d="  M 20,19  L 19,19  L 19,22  L 20,22  Z  " style="fill:rgb(71, 79, 82); fill-opacity:1.000; stroke:none;" />
 <path d="  M 20,2  L 20,3  L 21,3  L 21,2  Z  " style="fill:rgb(71, 79, 82); fill-opacity:1.000; stroke:none;" />
 <path d="  M 28,23  L 28,22  L 21,22  L 21,23  Z  " style="fill:rgb(71, 79, 82); fill-opacity:1.000; stroke:none;" />
 <path d="  M 23,8  L 24,8  L 24,7  L 23,7  Z  " style="fill:rgb(71, 79, 82); fill-opacity:1.000; stroke:none;" />
 <path d="  M 25,8  L 24,8  L 24,9  L 25,9  Z  " style="fill:rgb(71, 79, 82); fill-opacity:1.000; stroke:none;" />
 <path d="  M 24,31  L 24,32  L 25,32  L 25,31  Z  " style="fill:rgb(71, 79, 82); fill-opacity:1.000; stroke:none;" />
 <path d="  M 32,4  L 30,4  L 30,3  L 29,3  L 29,2  L 28,2  L 28,0  L 25,0  L 25,3  L 26,3  L 26,5  L 27,5  L 27,6  L 29,6  L 29,7  L 32,7  Z  " style="fill:rgb(71, 79, 82); fill-opacity:1.000; stroke:none;" />
 <path d="  M 26,30  L 25,30  L 25,31  L 26,31  Z  " style="fill:rgb(71, 79, 82); fill-opacity:1.000; stroke:none;" />
 <path d="  M 27,29  L 26,29  L 26,30  L 27,30  Z  " style="fill:rgb(71, 79, 82); fill-opacity:1.000; stroke:none;" />
 <path d="  M 29,11  L 29,10  L 27,10  L 27,11  Z  " style="fill:rgb(71, 79, 82); fill-opacity:1.000; stroke:none;" />
 <path d="  M 27,29  L 28,29  L 28,28  L 27,28  Z  " style="fill:rgb(71, 79, 82); fill-opacity:1.000; stroke:none;" />
 <path d="  M 29,28  L 29,27  L 28,27  L 28,28  Z  " style="fill:rgb(71, 79, 82); fill-opacity:1.000; stroke:none;" />
 <path d="  M 30,26  L 29,26  L 29,27  L 30,27  Z  " style="fill:rgb(71, 79, 82); fill-opacity:1.000; stroke:none;" />
 <path d="  M 31,26  L 31,25  L 30,25  L 30,26  Z  " style="fill:rgb(71, 79, 82); fill-opacity:1.000; stroke:none;" />
 <path d="  M 30,32  L 32,32  L 32,30  L 30,30  Z  " style="fill:rgb(71, 79, 82); fill-opacity:1.000; stroke:none;" />
 <path d="  M 32,24  L 31,24  L 31,25  L 32,25  Z  " style="fill:rgb(71, 79, 82); fill-opacity:1.000; stroke:none;" />
 <path d="  M 2,0  L 2,2  L 0,2  L 0,7  L 1,7  L 1,6  L 2,6  L 2,5  L 3,5  L 3,4  L 4,4  L 4,3  L 5,3  L 5,2  L 6,2  L 6,1  L 7,1  L 7,0  Z  " style="fill:rgb(54, 57, 61); fill-opacity:1.000; stroke:none;" />
 <path d="  M 4,12  L 5,12  L 5,5  L 4,5  L 4,6  L 3,6  L 3,7  L 2,7  L 2,8  L 1,8  L 1,9  L 0,9  L 0,16  L 1,16  L 1,15  L 2,15  L 2,14  L 3,14  L 3,13  L 4,13  Z  " style="fill:rgb(54, 57, 61); fill-opacity:1.000; stroke:none;" />
 <path d="  M 0,18  L 0,19  L 1,19  L 1,18  Z  " style="fill:rgb(54, 57, 61); fill-opacity:1.000; stroke:none;" />
 <path d="  M 1,22  L 1,21  L 0,21  L 0,22  Z  " style="fill:rgb(54, 57, 61); fill-opacity:1.000; stroke:none;" />
 <path d="  M 2,17  L 1,17  L 1,18  L 2,18  Z  " style="fill:rgb(54, 57, 61); fill-opacity:1.000; stroke:none;" />
 <path d="  M 2,21  L 2,20  L 1,20  L 1,21  Z  " style="fill:rgb(54, 57, 61); fill-opacity:1.000; stroke:none;" />
 <path d="  M 2,17  L 3,17  L 3,16  L 2,16  Z  " style="fill:rgb(54, 57, 61); fill-opacity:1.000; stroke:none;" />
 <path d="  M 2,20  L 3,20  L 3,19  L 2,19  Z  " style="fill:rgb(54, 57, 61); fill-opacity:1.000; stroke:none;" />
 <path d="  M 5,16  L 5,15  L 3,15  L 3,16  Z  " style="fill:rgb(54, 57, 61); fill-opacity:1.000; stroke:none;" />
 <path d="  M 5,19  L 5,18  L 3,18  L 3,19  Z  " style="fill:rgb(54, 57, 61); fill-opacity:1.000; stroke:none;" />
 <path d="  M 5,17  L 6,17  L 6,16  L 5,16  Z  " style="fill:rgb(54, 57, 61); fill-opacity:1.000; stroke:none;" />
 <path d="  M 6,20  L 6,19  L 5,19  L 5,20  Z  " style="fill:rgb(54, 57, 61); fill-opacity:1.000; stroke:none;" />
 <path d="  M 6,18  L 7,18  L 7,17  L 6,17  Z  " style="fill:rgb(54, 57, 61); fill-opacity:1.000; stroke:none;" />
 <path d="  M 6,21  L 7,21  L 7,20  L 6,20  Z  " style="fill:rgb(54, 57, 61); fill-opacity:1.000; stroke:none;" />
 <path d="  M 13,3  L 13,2  L 14,2  L 14,1  L 15,1  L 15,0  L 9,0  L 9,1  L 8,1  L 8,2  L 7,2  L 7,3  Z  " style="fill:rgb(54, 57, 61); fill-opacity:1.000; stroke:none;" />
 <path d="  M 7,19  L 8,19  L 8,18  L 7,18  Z  " style="fill:rgb(54, 57, 61); fill-opacity:1.000; stroke:none;" />
 <path d="  M 8,22  L 8,21  L 7,21  L 7,22  Z  " style="fill:rgb(54, 57, 61); fill-opacity:1.000; stroke:none;" />
 <path d="  M 8,19  L 8,20  L 9,20  L 9,19  Z  " style="fill:rgb(54, 57, 61); fill-opacity:1.000; stroke:none;" />
 <path d="  M 9,22  L 8,22  L 8,23  L 9,23  Z  " style="fill:rgb(54, 57, 61); fill-opacity:1.000; stroke:none;" />
 <path d="  M 10,21  L 10,20  L 9,20  L 9,21  Z  " style="fill:rgb(54, 57, 61); fill-opacity:1.000; stroke:none;" />
 <path d="  M 10,23  L 9,23  L 9,24  L 10,24  Z  " style="fill:rgb(54, 57, 61); fill-opacity:1.000; stroke:none;" />
 <path d="  M 10,12  L 13,12  L 13,11  L 11,11  L 11,5  L 13,5  L 13,4  L 10,4  Z  " style="fill:rgb(54, 57, 61); fill-opacity:1.000; stroke:none;" />
 <path d="  M 11,22  L 11,21  L 10,21  L 10,22  Z  " style="fill:rgb(54, 57, 61); fill-opacity:1.000; stroke:none;" />
 <path d="  M 11,25  L 11,24  L 10,24  L 10,25  Z  " style="fill:rgb(54, 57, 61); fill-opacity:1.000; stroke:none;" />
 <path d="  M 10,31  L 10,32  L 11,32  L 11,31  Z  " style="fill:rgb(54, 57, 61); fill-opacity:1.000; stroke:none;" />
 <path d="  M 12,22  L 11,22  L 11,23  L 12,23  Z  " style="fill:rgb(54, 57, 61); fill-opacity:1.000; stroke:none;" />
 <path d="  M 12,25  L 11,25  L 11,26  L 12,26  Z  " style="fill:rgb(54, 57, 61); fill-opacity:1.000; stroke:none;" />
 <path d="  M 12,31  L 12,30  L 11,30  L 11,31  Z  " style="fill:rgb(54, 57, 61); fill-opacity:1.000; stroke:none;" />
 <path d="  M 12,24  L 13,24  L 13,23  L 12,23  Z  " style="fill:rgb(54, 57, 61); fill-opacity:1.000; stroke:none;" />
 <path d="  M 12,27  L 13,27  L 13,26  L 12,26  Z  " style="fill:rgb(54, 57, 61); fill-opacity:1.000; stroke:none;" />
 <path d="  M 13,29  L 12,29  L 12,30  L 13,30  Z  " style="fill:rgb(54, 57, 61); fill-opacity:1.000; stroke:none;" />
 <path d="  M 14,4  L 14,3  L 13,3  L 13,4  Z  " style="fill:rgb(54, 57, 61); fill-opacity:1.000; stroke:none;" />
 <path d="  M 15,13  L 15,12  L 13,12  L 13,13  Z  " style="fill:rgb(54, 57, 61); fill-opacity:1.000; stroke:none;" />
 <path d="  M 13,24  L 13,25  L 14,25  L 14,24  Z  " style="fill:rgb(54, 57, 61); fill-opacity:1.000; stroke:none;" />
 <path d="  M 13,29  L 14,29  L 14,27  L 13,27  Z  " style="fill:rgb(54, 57, 61); fill-opacity:1.000; stroke:none;" />
 <path d="  M 14,31  L 13,31  L 13,32  L 14,32  Z  " style="fill:rgb(54, 57, 61); fill-opacity:1.000; stroke:none;" />
 <path d="  M 15,2  L 14,2  L 14,3  L 15,3  Z  " style="fill:rgb(54, 57, 61); fill-opacity:1.000; stroke:none;" />
 <path d="  M 14,16  L 14,18  L 16,18  L 16,16  Z  " style="fill:rgb(54, 57, 61); fill-opacity:1.000; stroke:none;" />
 <path d="  M 14,25  L 14,26  L 15,26  L 15,25  Z  " style="fill:rgb(54, 57, 61); fill-opacity:1.000; stroke:none;" />
 <path d="  M 14,30  L 14,31  L 15,31  L 15,30  Z  " style="fill:rgb(54, 57, 61); fill-opacity:1.000; stroke:none;" />
 <path d="  M 16,2  L 16,1  L 15,1  L 15,2  Z  " style="fill:rgb(54, 57, 61); fill-opacity:1.000; stroke:none;" />
 <path d="  M 17,14  L 17,13  L 15,13  L 15,14  Z  " style="fill:rgb(54, 57, 61); fill-opacity:1.000; stroke:none;" />
 <path d="  M 16,27  L 16,26  L 15,26  L 15,27  Z  " style="fill:rgb(54, 57, 61); fill-opacity:1.000; stroke:none;" />
 <path d="  M 16,30  L 16,29  L 15,29  L 15,30  Z  " style="fill:rgb(54, 57, 61); fill-opacity:1.000; stroke:none;" />
 <path d="  M 17,1  L 17,0  L 16,0  L 16,1  Z  " style="fill:rgb(54, 57, 61); fill-opacity:1.000; stroke:none;" />
 <path d="  M 16,6  L 16,8  L 17,8  L 17,6  Z  " style="fill:rgb(54, 57, 61); fill-opacity:1.000; stroke:none;" />
 <path d="  M 17,29  L 17,27  L 16,27  L 16,29  Z  " style="fill:rgb(54, 57, 61); fill-opacity:1.000; stroke:none;" />
 <path d="  M 17,6  L 18,6  L 18,5  L 17,5  Z  " style="fill:rgb(54, 57, 61); fill-opacity:1.000; stroke:none;" />
 <path d="  M 17,8  L 17,9  L 18,9  L 18,8  Z  " style="fill:rgb(54, 57, 61); fill-opacity:1.000; stroke:none;" />
 <path d="  M 18,14  L 17,14  L 17,15  L 18,15  Z  " style="fill:rgb(54, 57, 61); fill-opacity:1.000; stroke:none;" />
 <path d="  M 17,32  L 23,32  L 23,31  L 24,31  L 24,30  L 25,30  L 25,29  L 26,29  L 26,28  L 27,28  L 27,27  L 21,27  L 21,28  L 20,28  L 20,29  L 19,29  L 19,30  L 18,30  L 18,31  L 17,31  Z  " style="fill:rgb(54, 57, 61); fill-opacity:1.000; stroke:none;" />
 <path d="  M 20,4  L 18,4  L 18,5  L 20,5  Z  " style="fill:rgb(54, 57, 61); fill-opacity:1.000; stroke:none;" />
 <path d="  M 20,9  L 18,9  L 18,10  L 20,10  Z  " style="fill:rgb(54, 57, 61); fill-opacity:1.000; stroke:none;" />
 <path d="  M 19,17  L 19,15  L 18,15  L 18,17  Z  " style="fill:rgb(54, 57, 61); fill-opacity:1.000; stroke:none;" />
 <path d="  M 19,3  L 20,3  L 20,0  L 19,0  Z  " style="fill:rgb(54, 57, 61); fill-opacity:1.000; stroke:none;" />
 <path d="  M 19,19  L 20,19  L 20,17  L 19,17  Z  " style="fill:rgb(54, 57, 61); fill-opacity:1.000; stroke:none;" />
 <path d="  M 20,4  L 21,4  L 21,3  L 20,3  Z  " style="fill:rgb(54, 57, 61); fill-opacity:1.000; stroke:none;" />
 <path d="  M 21,8  L 20,8  L 20,9  L 21,9  Z  " style="fill:rgb(54, 57, 61); fill-opacity:1.000; stroke:none;" />
 <path d="  M 20,22  L 28,22  L 28,19  L 27,19  L 27,21  L 21,21  L 21,19  L 20,19  Z  " style="fill:rgb(54, 57, 61); fill-opacity:1.000; stroke:none;" />
 <path d="  M 23,8  L 23,7  L 22,7  L 22,6  L 21,6  L 21,8  Z  " style="fill:rgb(54, 57, 61); fill-opacity:1.000; stroke:none;" />
 <path d="  M 22,12  L 22,14  L 23,14  L 23,12  Z  " style="fill:rgb(54, 57, 61); fill-opacity:1.000; stroke:none;" />
 <path d="  M 24,8  L 23,8  L 23,9  L 24,9  Z  " style="fill:rgb(54, 57, 61); fill-opacity:1.000; stroke:none;" />
 <path d="  M 23,11  L 23,12  L 24,12  L 24,11  Z  " style="fill:rgb(54, 57, 61); fill-opacity:1.000; stroke:none;" />
 <path d="  M 23,14  L 23,15  L 24,15  L 24,14  Z  " style="fill:rgb(54, 57, 61); fill-opacity:1.000; stroke:none;" />
 <path d="  M 25,9  L 24,9  L 24,11  L 26,11  L 26,10  L 25,10  Z  " style="fill:rgb(54, 57, 61); fill-opacity:1.000; stroke:none;" />
 <path d="  M 26,16  L 26,15  L 24,15  L 24,16  Z  " style="fill:rgb(54, 57, 61); fill-opacity:1.000; stroke:none;" />
 <path d="  M 26,31  L 25,31  L 25,32  L 30,32  L 30,30  L 32,30  L 32,25  L 31,25  L 31,26  L 30,26  L 30,27  L 29,27  L 29,28  L 28,28  L 28,29  L 27,29  L 27,30  L 26,30  Z  " style="fill:rgb(54, 57, 61); fill-opacity:1.000; stroke:none;" />
 <path d="  M 27,15  L 27,14  L 26,14  L 26,15  Z  " style="fill:rgb(54, 57, 61); fill-opacity:1.000; stroke:none;" />
 <path d="  M 27,14  L 28,14  L 28,12  L 27,12  Z  " style="fill:rgb(54, 57, 61); fill-opacity:1.000; stroke:none;" />
 <path d="  M 32,0  L 28,0  L 28,2  L 29,2  L 29,3  L 30,3  L 30,4  L 32,4  Z  " style="fill:rgb(54, 57, 61); fill-opacity:1.000; stroke:none;" />
 <path d="  M 28,11  L 28,12  L 29,12  L 29,11  Z  " style="fill:rgb(54, 57, 61); fill-opacity:1.000; stroke:none;" />
 <path d="  M 28,19  L 29,19  L 29,18  L 28,18  Z  " style="fill:rgb(54, 57, 61); fill-opacity:1.000; stroke:none;" />
 <path d="  M 29,12  L 29,13  L 32,13  L 32,12  Z  " style="fill:rgb(54, 57, 61); fill-opacity:1.000; stroke:none;" />
 <path d="  M 29,18  L 30,18  L 30,17  L 29,17  Z  " style="fill:rgb(54, 57, 61); fill-opacity:1.000; stroke:none;" />
 <path d="  M 31,19  L 30,19  L 30,20  L 29,20  L 29,25  L 30,25  L 30,24  L 31,24  L 31,23  L 32,23  L 32,18  L 31,18  Z  " style="fill:rgb(54, 57, 61); fill-opacity:1.000; stroke:none;" />
 <path d="  M 31,16  L 30,16  L 30,17  L 31,17  Z  " style="fill:rgb(54, 57, 61); fill-opacity:1.000; stroke:none;" />
 <path d="  M 31,16  L 32,16  L 32,15  L 31,15  Z  " style="fill:rgb(54, 57, 61); fill-opacity:1.000; stroke:none;" />
 <path d="  M 1,7  L 0,7  L 0,8  L 1,8  Z  " style="fill:rgb(153, 153, 153); fill-opacity:1.000; stroke:none;" />
 <path d="  M 2,7  L 2,6  L 1,6  L 1,7  Z  " style="fill:rgb(153, 153, 153); fill-opacity:1.000; stroke:none;" />
 <path d="  M 3,6  L 3,5  L 2,5  L 2,6  Z  " style="fill:rgb(153, 153, 153); fill-opacity:1.000; stroke:none;" />
 <path d="  M 4,5  L 4,4  L 3,4  L 3,5  Z  " style="fill:rgb(153, 153, 153); fill-opacity:1.000; stroke:none;" />
 <path d="  M 5,3  L 4,3  L 4,4  L 5,4  Z  " style="fill:rgb(153, 153, 153); fill-opacity:1.000; stroke:none;" />
 <path d="  M 5,3  L 6,3  L 6,2  L 5,2  Z  " style="fill:rgb(153, 153, 153); fill-opacity:1.000; stroke:none;" />
 <path d="  M 6,1  L 6,2  L 7,2  L 7,1  Z  " style="fill:rgb(153, 153, 153); fill-opacity:1.000; stroke:none;" />
 <path d="  M 8,1  L 8,0  L 7,0  L 7,1  Z  " style="fill:rgb(153, 153, 153); fill-opacity:1.000; stroke:none;" />
 <path d="  M 16,32  L 16,31  L 15,31  L 15,32  Z  " style="fill:rgb(153, 153, 153); fill-opacity:1.000; stroke:none;" />
 <path d="  M 17,31  L 17,30  L 16,30  L 16,31  Z  " style="fill:rgb(153, 153, 153); fill-opacity:1.000; stroke:none;" />
 <path d="  M 19,29  L 19,28  L 18,28  L 18,29  Z  " style="fill:rgb(153, 153, 153); fill-opacity:1.000; stroke:none;" />
 <path d="  M 25,27  L 25,26  L 20,26  L 20,27  Z  " style="fill:rgb(153, 153, 153); fill-opacity:1.000; stroke:none;" />
 <path d="  M 26,26  L 26,27  L 29,27  L 29,26  Z  " style="fill:rgb(153, 153, 153); fill-opacity:1.000; stroke:none;" />
 <path d="  M 31,17  L 32,17  L 32,16  L 31,16  Z  " style="fill:rgb(153, 153, 153); fill-opacity:1.000; stroke:none;" />
 <path d="  M 0,8  L 0,9  L 1,9  L 1,8  Z  " style="fill:rgb(157, 157, 157); fill-opacity:1.000; stroke:none;" />
 <path d="  M 2,7  L 1,7  L 1,8  L 2,8  Z  " style="fill:rgb(157, 157, 157); fill-opacity:1.000; stroke:none;" />
 <path d="  M 2,6  L 2,7  L 3,7  L 3,6  Z  " style="fill:rgb(157, 157, 157); fill-opacity:1.000; stroke:none;" />
 <path d="  M 3,6  L 4,6  L 4,5  L 3,5  Z  " style="fill:rgb(157, 157, 157); fill-opacity:1.000; stroke:none;" />
 <path d="  M 4,4  L 4,5  L 5,5  L 5,4  Z  " style="fill:rgb(157, 157, 157); fill-opacity:1.000; stroke:none;" />
 <path d="  M 5,3  L 5,4  L 6,4  L 6,3  Z  " style="fill:rgb(157, 157, 157); fill-opacity:1.000; stroke:none;" />
 <path d="  M 7,2  L 6,2  L 6,3  L 7,3  Z  " style="fill:rgb(157, 157, 157); fill-opacity:1.000; stroke:none;" />
 <path d="  M 7,1  L 7,2  L 8,2  L 8,1  Z  " style="fill:rgb(157, 157, 157); fill-opacity:1.000; stroke:none;" />
 <path d="  M 8,0  L 8,1  L 9,1  L 9,0  Z  " style="fill:rgb(157, 157, 157); fill-opacity:1.000; stroke:none;" />
 <path d="  M 18,29  L 17,29  L 17,30  L 18,30  Z  " style="fill:rgb(157, 157, 157); fill-opacity:1.000; stroke:none;" />
 <path d="  M 19,28  L 20,28  L 20,27  L 19,27  Z  " style="fill:rgb(157, 157, 157); fill-opacity:1.000; stroke:none;" />
 <path d="  M 26,27  L 26,26  L 25,26  L 25,27  Z  " style="fill:rgb(157, 157, 157); fill-opacity:1.000; stroke:none;" />
 <path d="  M 28,21  L 29,21  L 29,19  L 28,19  Z  " style="fill:rgb(157, 157, 157); fill-opacity:1.000; stroke:none;" />
 <path d="  M 30,17  L 30,18  L 31,18  L 31,17  Z  " style="fill:rgb(157, 157, 157); fill-opacity:1.000; stroke:none;" />
 <path d="  M 0,17  L 1,17  L 1,16  L 0,16  Z  " style="fill:rgb(91, 108, 113); fill-opacity:1.000; stroke:none;" />
 <path d="  M 9,30  L 10,30  L 10,29  L 11,29  L 11,28  L 12,28  L 12,27  L 11,27  L 11,26  L 10,26  L 10,25  L 9,25  L 9,24  L 8,24  L 8,23  L 7,23  L 7,22  L 6,22  L 6,21  L 5,21  L 5,20  L 4,20  L 4,21  L 3,21  L 3,22  L 2,22  L 2,23  L 1,23  L 1,24  L 0,24  L 0,28  L 1,28  L 1,27  L 2,27  L 2,26  L 6,26  L 6,30  L 5,30  L 5,31  L 4,31  L 4,32  L 8,32  L 8,31  L 9,31  Z  " style="fill:rgb(91, 108, 113); fill-opacity:1.000; stroke:none;" />
 <path d="  M 1,16  L 2,16  L 2,15  L 1,15  Z  " style="fill:rgb(91, 108, 113); fill-opacity:1.000; stroke:none;" />
 <path d="  M 3,14  L 2,14  L 2,15  L 3,15  Z  " style="fill:rgb(91, 108, 113); fill-opacity:1.000; stroke:none;" />
 <path d="  M 19,27  L 19,22  L 17,22  L 17,21  L 15,21  L 15,20  L 13,20  L 13,19  L 12,19  L 12,17  L 11,17  L 11,15  L 10,15  L 10,13  L 4,13  L 4,14  L 5,14  L 5,15  L 6,15  L 6,16  L 7,16  L 7,17  L 8,17  L 8,18  L 9,18  L 9,19  L 10,19  L 10,20  L 11,20  L 11,21  L 12,21  L 12,22  L 13,22  L 13,23  L 14,23  L 14,24  L 15,24  L 15,25  L 16,25  L 16,26  L 17,26  L 17,27  Z  " style="fill:rgb(91, 108, 113); fill-opacity:1.000; stroke:none;" />
 <path d="  M 6,4  L 9,4  L 9,3  L 6,3  Z  " style="fill:rgb(91, 108, 113); fill-opacity:1.000; stroke:none;" />
 <path d="  M 10,3  L 10,4  L 13,4  L 13,3  Z  " style="fill:rgb(91, 108, 113); fill-opacity:1.000; stroke:none;" />
 <path d="  M 13,2  L 13,3  L 14,3  L 14,2  Z  " style="fill:rgb(91, 108, 113); fill-opacity:1.000; stroke:none;" />
 <path d="  M 14,1  L 14,2  L 15,2  L 15,1  Z  " style="fill:rgb(91, 108, 113); fill-opacity:1.000; stroke:none;" />
 <path d="  M 16,1  L 16,0  L 15,0  L 15,1  Z  " style="fill:rgb(91, 108, 113); fill-opacity:1.000; stroke:none;" />
 <path d="  M 21,1  L 22,1  L 22,0  L 21,0  Z  " style="fill:rgb(91, 108, 113); fill-opacity:1.000; stroke:none;" />
 <path d="  M 22,3  L 22,2  L 21,2  L 21,3  Z  " style="fill:rgb(91, 108, 113); fill-opacity:1.000; stroke:none;" />
 <path d="  M 22,2  L 23,2  L 23,1  L 22,1  Z  " style="fill:rgb(91, 108, 113); fill-opacity:1.000; stroke:none;" />
 <path d="  M 22,5  L 23,5  L 23,4  L 22,4  Z  " style="fill:rgb(91, 108, 113); fill-opacity:1.000; stroke:none;" />
 <path d="  M 24,4  L 24,3  L 23,3  L 23,4  Z  " style="fill:rgb(91, 108, 113); fill-opacity:1.000; stroke:none;" />
 <path d="  M 23,7  L 24,7  L 24,6  L 23,6  Z  " style="fill:rgb(91, 108, 113); fill-opacity:1.000; stroke:none;" />
 <path d="  M 31,10  L 31,8  L 29,8  L 29,7  L 27,7  L 27,8  L 26,8  L 26,7  L 24,7  L 24,8  L 25,8  L 25,9  L 27,9  L 27,10  L 29,10  L 29,11  L 30,11  L 30,10  Z  " style="fill:rgb(91, 108, 113); fill-opacity:1.000; stroke:none;" />
 <path d="  M 25,5  L 25,6  L 26,6  L 26,5  Z  " style="fill:rgb(91, 108, 113); fill-opacity:1.000; stroke:none;" />
 <path d="  M 26,6  L 26,7  L 27,7  L 27,6  Z  " style="fill:rgb(91, 108, 113); fill-opacity:1.000; stroke:none;" />
 <path d="  M 31,11  L 32,11  L 32,10  L 31,10  Z  " style="fill:rgb(91, 108, 113); fill-opacity:1.000; stroke:none;" />
 <path d="  M 14,29  L 13,29  L 13,30  L 12,30  L 12,31  L 11,31  L 11,32  L 13,32  L 13,31  L 14,31  L 14,30  L 15,30  L 15,29  L 16,29  L 16,27  L 15,27  L 15,26  L 14,26  L 14,25  L 13,25  L 13,24  L 12,24  L 12,23  L 11,23  L 11,22  L 10,22  L 10,21  L 9,21  L 9,20  L 8,20  L 8,19  L 7,19  L 7,18  L 6,18  L 6,17  L 5,17  L 5,16  L 3,16  L 3,17  L 2,17  L 2,18  L 1,18  L 1,19  L 0,19  L 0,21  L 1,21  L 1,20  L 2,20  L 2,19  L 3,19  L 3,18  L 5,18  L 5,19  L 6,19  L 6,20  L 7,20  L 7,21  L 8,21  L 8,22  L 9,22  L 9,23  L 10,23  L 10,24  L 11,24  L 11,25  L 12,25  L 12,26  L 13,26  L 13,27  L 14,27  Z  " style="fill:rgb(51, 54, 57); fill-opacity:1.000; stroke:none;" />
 <path d="  M 24,16  L 24,15  L 23,15  L 23,14  L 22,14  L 22,12  L 23,12  L 23,11  L 24,11  L 24,9  L 23,9  L 23,8  L 21,8  L 21,9  L 20,9  L 20,10  L 18,10  L 18,9  L 17,9  L 17,8  L 16,8  L 16,6  L 17,6  L 17,5  L 18,5  L 18,4  L 20,4  L 20,3  L 19,3  L 19,0  L 17,0  L 17,1  L 16,1  L 16,2  L 15,2  L 15,3  L 14,3  L 14,4  L 13,4  L 13,5  L 11,5  L 11,11  L 13,11  L 13,12  L 15,12  L 15,13  L 17,13  L 17,14  L 18,14  L 18,15  L 19,15  L 19,17  L 20,17  L 20,19  L 21,19  L 21,21  L 27,21  L 27,19  L 28,19  L 28,18  L 29,18  L 29,17  L 30,17  L 30,16  L 31,16  L 31,15  L 32,15  L 32,13  L 29,13  L 29,12  L 28,12  L 28,14  L 27,14  L 27,15  L 26,15  L 26,16  Z  " style="fill:rgb(51, 54, 57); fill-opacity:1.000; stroke:none;" />
 <path d="  M 0,23  L 0,24  L 1,24  L 1,23  Z  " style="fill:rgb(100, 118, 123); fill-opacity:1.000; stroke:none;" />
 <path d="  M 2,23  L 2,22  L 1,22  L 1,23  Z  " style="fill:rgb(100, 118, 123); fill-opacity:1.000; stroke:none;" />
 <path d="  M 1,28  L 2,28  L 2,27  L 1,27  Z  " style="fill:rgb(100, 118, 123); fill-opacity:1.000; stroke:none;" />
 <path d="  M 3,21  L 2,21  L 2,22  L 3,22  Z  " style="fill:rgb(100, 118, 123); fill-opacity:1.000; stroke:none;" />
 <path d="  M 3,14  L 4,14  L 4,13  L 3,13  Z  " style="fill:rgb(100, 118, 123); fill-opacity:1.000; stroke:none;" />
 <path d="  M 3,20  L 3,21  L 4,21  L 4,20  Z  " style="fill:rgb(100, 118, 123); fill-opacity:1.000; stroke:none;" />
 <path d="  M 4,12  L 4,13  L 10,13  L 10,12  Z  " style="fill:rgb(100, 118, 123); fill-opacity:1.000; stroke:none;" />
 <path d="  M 4,31  L 5,31  L 5,30  L 4,30  Z  " style="fill:rgb(100, 118, 123); fill-opacity:1.000; stroke:none;" />
 <path d="  M 8,32  L 9,32  L 9,31  L 8,31  Z  " style="fill:rgb(100, 118, 123); fill-opacity:1.000; stroke:none;" />
 <path d="  M 10,30  L 9,30  L 9,31  L 10,31  Z  " style="fill:rgb(100, 118, 123); fill-opacity:1.000; stroke:none;" />
 <path d="  M 10,13  L 10,15  L 11,15  L 11,13  Z  " style="fill:rgb(100, 118, 123); fill-opacity:1.000; stroke:none;" />
 <path d="  M 11,29  L 10,29  L 10,30  L 11,30  Z  " style="fill:rgb(100, 118, 123); fill-opacity:1.000; stroke:none;" />
 <path d="  M 11,15  L 11,17  L 12,17  L 12,15  Z  " style="fill:rgb(100, 118, 123); fill-opacity:1.000; stroke:none;" />
 <path d="  M 12,29  L 12,28  L 11,28  L 11,29  Z  " style="fill:rgb(100, 118, 123); fill-opacity:1.000; stroke:none;" />
 <path d="  M 12,19  L 13,19  L 13,17  L 12,17  Z  " style="fill:rgb(100, 118, 123); fill-opacity:1.000; stroke:none;" />
 <path d="  M 15,19  L 13,19  L 13,20  L 15,20  Z  " style="fill:rgb(100, 118, 123); fill-opacity:1.000; stroke:none;" />
 <path d="  M 15,20  L 15,21  L 17,21  L 17,20  Z  " style="fill:rgb(100, 118, 123); fill-opacity:1.000; stroke:none;" />
 <path d="  M 19,22  L 19,21  L 17,21  L 17,22  Z  " style="fill:rgb(100, 118, 123); fill-opacity:1.000; stroke:none;" />
 <path d="  M 19,28  L 19,27  L 18,27  L 18,28  Z  " style="fill:rgb(100, 118, 123); fill-opacity:1.000; stroke:none;" />
 <path d="  M 19,27  L 20,27  L 20,22  L 19,22  Z  " style="fill:rgb(100, 118, 123); fill-opacity:1.000; stroke:none;" />
 <path d="  M 24,2  L 24,0  L 23,0  L 23,2  Z  " style="fill:rgb(100, 118, 123); fill-opacity:1.000; stroke:none;" />
 <path d="  M 1,28  L 1,29  L 2,29  L 2,28  Z  " style="fill:rgb(67, 74, 78); fill-opacity:1.000; stroke:none;" />
 <path d="  M 3,29  L 2,29  L 2,30  L 3,30  Z  " style="fill:rgb(67, 74, 78); fill-opacity:1.000; stroke:none;" />
 <path d="  M 4,30  L 3,30  L 3,31  L 4,31  Z  " style="fill:rgb(67, 74, 78); fill-opacity:1.000; stroke:none;" />
 <path d="  M 9,5  L 6,5  L 6,11  L 9,11  Z  " style="fill:rgb(67, 74, 78); fill-opacity:1.000; stroke:none;" />
 <path d="  M 17,8  L 18,8  L 18,7  L 17,7  Z  " style="fill:rgb(67, 74, 78); fill-opacity:1.000; stroke:none;" />
 <path d="  M 18,8  L 18,9  L 20,9  L 20,8  Z  " style="fill:rgb(67, 74, 78); fill-opacity:1.000; stroke:none;" />
 <path d="  M 21,26  L 28,26  L 28,23  L 21,23  Z  " style="fill:rgb(67, 74, 78); fill-opacity:1.000; stroke:none;" />
 <path d="  M 23,31  L 23,32  L 24,32  L 24,31  Z  " style="fill:rgb(67, 74, 78); fill-opacity:1.000; stroke:none;" />
 <path d="  M 25,9  L 25,10  L 26,10  L 26,11  L 25,11  L 25,12  L 24,12  L 24,14  L 26,14  L 26,13  L 27,13  L 27,12  L 28,12  L 28,11  L 27,11  L 27,9  Z  " style="fill:rgb(67, 74, 78); fill-opacity:1.000; stroke:none;" />
 <path d="  M 25,31  L 25,30  L 24,30  L 24,31  Z  " style="fill:rgb(67, 74, 78); fill-opacity:1.000; stroke:none;" />
 <path d="  M 26,29  L 25,29  L 25,30  L 26,30  Z  " style="fill:rgb(67, 74, 78); fill-opacity:1.000; stroke:none;" />
 <path d="  M 26,29  L 27,29  L 27,28  L 26,28  Z  " style="fill:rgb(67, 74, 78); fill-opacity:1.000; stroke:none;" />
 <path d="  M 27,27  L 27,28  L 28,28  L 28,27  Z  " style="fill:rgb(67, 74, 78); fill-opacity:1.000; stroke:none;" />
 <path d="  M 29,11  L 29,12  L 31,12  L 31,11  Z  " style="fill:rgb(67, 74, 78); fill-opacity:1.000; stroke:none;" />
 <path d="  M 29,25  L 29,26  L 30,26  L 30,25  Z  " style="fill:rgb(67, 74, 78); fill-opacity:1.000; stroke:none;" />
 <path d="  M 31,24  L 30,24  L 30,25  L 31,25  Z  " style="fill:rgb(67, 74, 78); fill-opacity:1.000; stroke:none;" />
 <path d="  M 31,23  L 31,24  L 32,24  L 32,23  Z  " style="fill:rgb(67, 74, 78); fill-opacity:1.000; stroke:none;" />
 <path d="  M 5,4  L 5,5  L 6,5  L 6,4  Z  " style="fill:rgb(81, 90, 94); fill-opacity:1.000; stroke:none;" />
 <path d="  M 6,11  L 6,12  L 10,12  L 10,11  Z  " style="fill:rgb(81, 90, 94); fill-opacity:1.000; stroke:none;" />
 <path d="  M 21,2  L 21,0  L 20,0  L 20,2  Z  " style="fill:rgb(81, 90, 94); fill-opacity:1.000; stroke:none;" />
 <path d="  M 21,22  L 20,22  L 20,23  L 21,23  Z  " style="fill:rgb(81, 90, 94); fill-opacity:1.000; stroke:none;" />
 <path d="  M 23,13  L 24,13  L 24,12  L 23,12  Z  " style="fill:rgb(81, 90, 94); fill-opacity:1.000; stroke:none;" />
 <path d="  M 25,12  L 25,11  L 24,11  L 24,12  Z  " style="fill:rgb(81, 90, 94); fill-opacity:1.000; stroke:none;" />
 <path d="  M 32,11  L 31,11  L 31,12  L 32,12  Z  " style="fill:rgb(81, 90, 94); fill-opacity:1.000; stroke:none;" />
 <path d="  M 9,4  L 10,4  L 10,3  L 9,3  Z  " style="fill:rgb(96, 114, 119); fill-opacity:1.000; stroke:none;" />
 <path d="  M 22,2  L 22,1  L 21,1  L 21,2  Z  " style="fill:rgb(96, 114, 119); fill-opacity:1.000; stroke:none;" />
 <path d="  M 22,0  L 22,1  L 23,1  L 23,0  Z  " style="fill:rgb(96, 114, 119); fill-opacity:1.000; stroke:none;" />
 <path d="  M 22,2  L 22,4  L 23,4  L 23,3  L 24,3  L 24,2  Z  " style="fill:rgb(96, 114, 119); fill-opacity:1.000; stroke:none;" />
 <path d="  M 26,7  L 26,6  L 25,6  L 25,3  L 24,3  L 24,4  L 23,4  L 23,6  L 24,6  L 24,7  Z  " style="fill:rgb(96, 114, 119); fill-opacity:1.000; stroke:none;" />
 <path d="  M 27,7  L 26,7  L 26,8  L 27,8  Z  " style="fill:rgb(96, 114, 119); fill-opacity:1.000; stroke:none;" />
 <path d="  M 30,10  L 30,11  L 31,11  L 31,10  Z  " style="fill:rgb(96, 114, 119); fill-opacity:1.000; stroke:none;" />
 <path d="  M 32,10  L 32,8  L 31,8  L 31,10  Z  " style="fill:rgb(96, 114, 119); fill-opacity:1.000; stroke:none;" />
 <path d="  M 9,11  L 10,11  L 10,5  L 9,5  Z  " style="fill:rgb(74, 82, 85); fill-opacity:1.000; stroke:none;" />
 <path d="  M 21,23  L 20,23  L 20,26  L 21,26  Z  " style="fill:rgb(74, 82, 85); fill-opacity:1.000; stroke:none;" />
 <path d="  M 24,13  L 23,13  L 23,14  L 24,14  Z  " style="fill:rgb(74, 82, 85); fill-opacity:1.000; stroke:none;" />
 <path d="  M 24,3  L 25,3  L 25,0  L 24,0  Z  " style="fill:rgb(74, 82, 85); fill-opacity:1.000; stroke:none;" />
 <path d="  M 26,15  L 26,14  L 24,14  L 24,15  Z  " style="fill:rgb(74, 82, 85); fill-opacity:1.000; stroke:none;" />
 <path d="  M 26,3  L 25,3  L 25,5  L 26,5  Z  " style="fill:rgb(74, 82, 85); fill-opacity:1.000; stroke:none;" />
 <path d="  M 27,5  L 26,5  L 26,6  L 27,6  Z  " style="fill:rgb(74, 82, 85); fill-opacity:1.000; stroke:none;" />
 <path d="  M 26,13  L 26,14  L 27,14  L 27,13  Z  " style="fill:rgb(74, 82, 85); fill-opacity:1.000; stroke:none;" />
 <path d="  M 27,6  L 27,7  L 29,7  L 29,6  Z  " style="fill:rgb(74, 82, 85); fill-opacity:1.000; stroke:none;" />
 <path d="  M 32,8  L 32,7  L 29,7  L 29,8  Z  " style="fill:rgb(74, 82, 85); fill-opacity:1.000; stroke:none;" />
 <path d="  M 13,17  L 13,19  L 15,19  L 15,20  L 17,20  L 17,21  L 19,21  L 19,19  L 18,19  L 18,17  L 17,17  L 17,15  L 15,15  L 15,14  L 13,14  L 13,13  L 11,13  L 11,15  L 12,15  L 12,17  Z  M 14,18  L 14,16  L 16,16  L 16,18  Z  " style="fill:rgb(149, 149, 149); fill-opacity:1.000; stroke:none;" />
 <path d="  M 28,26  L 29,26  L 29,21  L 28,21  Z  " style="fill:rgb(149, 149, 149); fill-opacity:1.000; stroke:none;" />
 <path d="  M 29,18  L 29,19  L 30,19  L 30,18  Z  " style="fill:rgb(149, 149, 149); fill-opacity:1.000; stroke:none;" />
 <path d="  M 16,32  L 17,32  L 17,31  L 16,31  Z  " style="fill:rgb(61, 64, 69); fill-opacity:1.000; stroke:none;" />
 <path d="  M 17,31  L 18,31  L 18,30  L 17,30  Z  " style="fill:rgb(61, 64, 69); fill-opacity:1.000; stroke:none;" />
 <path d="  M 18,29  L 18,30  L 19,30  L 19,29  Z  " style="fill:rgb(61, 64, 69); fill-opacity:1.000; stroke:none;" />
 <path d="  M 19,29  L 20,29  L 20,28  L 19,28  Z  " style="fill:rgb(61, 64, 69); fill-opacity:1.000; stroke:none;" />
 <path d="  M 21,27  L 20,27  L 20,28  L 21,28  Z  " style="fill:rgb(61, 64, 69); fill-opacity:1.000; stroke:none;" />
 <path d="  M 29,19  L 29,20  L 30,20  L 30,19  Z  " style="fill:rgb(61, 64, 69); fill-opacity:1.000; stroke:none;" />
 <path d="  M 31,19  L 31,18  L 30,18  L 30,19  Z  " style="fill:rgb(61, 64, 69); fill-opacity:1.000; stroke:none;" />
 <path d="  M 31,18  L 32,18  L 32,17  L 31,17  Z  " style="fill:rgb(61, 64, 69); fill-opacity:1.000; stroke:none;" />
 <path d="  M 17,6  L 17,7  L 18,7  L 18,6  Z  " style="fill:rgb(69, 77, 80); fill-opacity:1.000; stroke:none;" />
 <path d="  M 19,6  L 19,5  L 18,5  L 18,6  Z  " style="fill:rgb(69, 77, 80); fill-opacity:1.000; stroke:none;" />
 <path d="  M 23,5  L 22,5  L 22,7  L 23,7  Z  " style="fill:rgb(69, 77, 80); fill-opacity:1.000; stroke:none;" />
</svg>
