<?xml version="1.0" encoding="UTF-8" standalone="no"?>
<!DOCTYPE svg PUBLIC "-//W3C//DTD SVG 1.1//EN" 
  "http://www.w3.org/Graphics/SVG/1.1/DTD/svg11.dtd">
<svg width="32" height="32"
	 xmlns="http://www.w3.org/2000/svg" version="1.1">
 <path d="  M 1,1  L 3,1  L 3,0  L 0,0  L 0,3  L 1,3  Z  " style="fill:rgb(167, 167, 167); fill-opacity:1.000; stroke:none;" />
 <path d="  M 1,6  L 1,5  L 0,5  L 0,6  Z  " style="fill:rgb(167, 167, 167); fill-opacity:1.000; stroke:none;" />
 <path d="  M 0,7  L 0,9  L 1,9  L 1,7  Z  " style="fill:rgb(167, 167, 167); fill-opacity:1.000; stroke:none;" />
 <path d="  M 1,10  L 0,10  L 0,12  L 1,12  Z  " style="fill:rgb(167, 167, 167); fill-opacity:1.000; stroke:none;" />
 <path d="  M 1,14  L 1,13  L 0,13  L 0,14  Z  " style="fill:rgb(167, 167, 167); fill-opacity:1.000; stroke:none;" />
 <path d="  M 0,22  L 0,24  L 1,24  L 1,22  Z  " style="fill:rgb(167, 167, 167); fill-opacity:1.000; stroke:none;" />
 <path d="  M 3,24  L 4,24  L 4,23  L 3,23  Z  " style="fill:rgb(167, 167, 167); fill-opacity:1.000; stroke:none;" />
 <path d="  M 4,1  L 5,1  L 5,0  L 4,0  Z  " style="fill:rgb(167, 167, 167); fill-opacity:1.000; stroke:none;" />
 <path d="  M 9,24  L 9,23  L 5,23  L 5,24  Z  " style="fill:rgb(167, 167, 167); fill-opacity:1.000; stroke:none;" />
 <path d="  M 10,1  L 10,0  L 7,0  L 7,1  Z  " style="fill:rgb(167, 167, 167); fill-opacity:1.000; stroke:none;" />
 <path d="  M 11,23  L 10,23  L 10,24  L 11,24  Z  " style="fill:rgb(167, 167, 167); fill-opacity:1.000; stroke:none;" />
 <path d="  M 13,1  L 13,0  L 11,0  L 11,1  Z  " style="fill:rgb(167, 167, 167); fill-opacity:1.000; stroke:none;" />
 <path d="  M 12,24  L 13,24  L 13,23  L 12,23  Z  " style="fill:rgb(167, 167, 167); fill-opacity:1.000; stroke:none;" />
 <path d="  M 20,24  L 24,24  L 24,22  L 23,22  L 23,23  L 20,23  Z  " style="fill:rgb(167, 167, 167); fill-opacity:1.000; stroke:none;" />
 <path d="  M 23,1  L 23,0  L 21,0  L 21,1  Z  " style="fill:rgb(167, 167, 167); fill-opacity:1.000; stroke:none;" />
 <path d="  M 23,3  L 24,3  L 24,2  L 23,2  Z  " style="fill:rgb(167, 167, 167); fill-opacity:1.000; stroke:none;" />
 <path d="  M 23,7  L 24,7  L 24,4  L 23,4  Z  " style="fill:rgb(167, 167, 167); fill-opacity:1.000; stroke:none;" />
 <path d="  M 24,13  L 23,13  L 23,14  L 24,14  Z  " style="fill:rgb(167, 167, 167); fill-opacity:1.000; stroke:none;" />
 <path d="  M 24,15  L 23,15  L 23,17  L 24,17  Z  " style="fill:rgb(167, 167, 167); fill-opacity:1.000; stroke:none;" />
 <path d="  M 24,20  L 23,20  L 23,21  L 24,21  Z  " style="fill:rgb(167, 167, 167); fill-opacity:1.000; stroke:none;" />
 <path d="  M 0,5  L 1,5  L 1,3  L 0,3  Z  " style="fill:rgb(180, 180, 180); fill-opacity:1.000; stroke:none;" />
 <path d="  M 0,10  L 1,10  L 1,9  L 0,9  Z  " style="fill:rgb(180, 180, 180); fill-opacity:1.000; stroke:none;" />
 <path d="  M 1,23  L 1,24  L 3,24  L 3,23  Z  " style="fill:rgb(180, 180, 180); fill-opacity:1.000; stroke:none;" />
 <path d="  M 3,0  L 3,1  L 4,1  L 4,0  Z  " style="fill:rgb(180, 180, 180); fill-opacity:1.000; stroke:none;" />
 <path d="  M 5,24  L 5,23  L 4,23  L 4,24  Z  " style="fill:rgb(180, 180, 180); fill-opacity:1.000; stroke:none;" />
 <path d="  M 7,1  L 7,0  L 5,0  L 5,1  Z  " style="fill:rgb(180, 180, 180); fill-opacity:1.000; stroke:none;" />
 <path d="  M 10,23  L 9,23  L 9,24  L 10,24  Z  " style="fill:rgb(180, 180, 180); fill-opacity:1.000; stroke:none;" />
 <path d="  M 11,24  L 12,24  L 12,23  L 11,23  Z  " style="fill:rgb(180, 180, 180); fill-opacity:1.000; stroke:none;" />
 <path d="  M 24,2  L 24,0  L 23,0  L 23,2  Z  " style="fill:rgb(180, 180, 180); fill-opacity:1.000; stroke:none;" />
 <path d="  M 24,4  L 24,3  L 23,3  L 23,4  Z  " style="fill:rgb(180, 180, 180); fill-opacity:1.000; stroke:none;" />
 <path d="  M 23,14  L 23,15  L 24,15  L 24,14  Z  " style="fill:rgb(180, 180, 180); fill-opacity:1.000; stroke:none;" />
 <path d="  M 24,17  L 23,17  L 23,20  L 24,20  Z  " style="fill:rgb(180, 180, 180); fill-opacity:1.000; stroke:none;" />
 <path d="  M 24,21  L 23,21  L 23,22  L 24,22  Z  " style="fill:rgb(180, 180, 180); fill-opacity:1.000; stroke:none;" />
 <path d="  M 0,6  L 0,7  L 1,7  L 1,6  Z  " style="fill:rgb(154, 154, 154); fill-opacity:1.000; stroke:none;" />
 <path d="  M 1,13  L 1,12  L 0,12  L 0,13  Z  " style="fill:rgb(154, 154, 154); fill-opacity:1.000; stroke:none;" />
 <path d="  M 1,22  L 1,14  L 0,14  L 0,22  Z  " style="fill:rgb(154, 154, 154); fill-opacity:1.000; stroke:none;" />
 <path d="  M 11,0  L 10,0  L 10,1  L 11,1  Z  " style="fill:rgb(154, 154, 154); fill-opacity:1.000; stroke:none;" />
 <path d="  M 21,1  L 21,0  L 13,0  L 13,1  Z  " style="fill:rgb(154, 154, 154); fill-opacity:1.000; stroke:none;" />
 <path d="  M 13,23  L 13,24  L 20,24  L 20,23  Z  " style="fill:rgb(154, 154, 154); fill-opacity:1.000; stroke:none;" />
 <path d="  M 24,7  L 23,7  L 23,13  L 24,13  Z  " style="fill:rgb(154, 154, 154); fill-opacity:1.000; stroke:none;" />
 <path d="  M 1,3  L 2,3  L 2,2  L 3,2  L 3,1  L 1,1  Z  " style="fill:rgb(127, 127, 127); fill-opacity:1.000; stroke:none;" />
 <path d="  M 7,19  L 9,19  L 9,20  L 8,20  L 8,21  L 7,21  L 7,20  L 5,20  L 5,21  L 6,21  L 6,22  L 7,22  L 7,23  L 15,23  L 15,22  L 17,22  L 17,21  L 18,21  L 18,19  L 19,19  L 19,17  L 20,17  L 20,15  L 21,15  L 21,16  L 22,16  L 22,18  L 21,18  L 21,20  L 20,20  L 20,21  L 19,21  L 19,22  L 18,22  L 18,23  L 21,23  L 21,22  L 22,22  L 22,20  L 23,20  L 23,11  L 22,11  L 22,9  L 21,9  L 21,6  L 20,6  L 20,5  L 19,5  L 19,3  L 18,3  L 18,2  L 16,2  L 16,1  L 8,1  L 8,2  L 7,2  L 7,3  L 6,3  L 6,4  L 5,4  L 5,5  L 4,5  L 4,3  L 5,3  L 5,2  L 6,2  L 6,1  L 4,1  L 4,2  L 3,2  L 3,3  L 2,3  L 2,4  L 1,4  L 1,5  L 2,5  L 2,7  L 1,7  L 1,12  L 2,12  L 2,13  L 3,13  L 3,16  L 4,16  L 4,17  L 6,17  L 6,18  L 7,18  Z  M 16,6  L 16,5  L 17,5  L 17,6  L 19,6  L 19,7  L 20,7  L 20,13  L 19,13  L 19,15  L 18,15  L 18,16  L 17,16  L 17,17  L 18,17  L 18,18  L 17,18  L 17,19  L 15,19  L 15,17  L 14,17  L 14,18  L 11,18  L 11,17  L 9,17  L 9,16  L 8,16  L 8,17  L 7,17  L 7,16  L 6,16  L 6,15  L 7,15  L 7,14  L 8,14  L 8,13  L 7,13  L 7,10  L 8,10  L 8,9  L 9,9  L 9,7  L 10,7  L 10,6  L 13,6  L 13,5  L 15,5  L 15,6  Z  M 3,11  L 3,9  L 5,9  L 5,12  L 6,12  L 6,15  L 4,15  L 4,14  L 5,14  L 5,13  L 4,13  L 4,11  Z  M 4,7  L 6,7  L 6,6  L 7,6  L 7,7  L 8,7  L 8,8  L 7,8  L 7,9  L 5,9  L 5,8  L 4,8  Z  M 21,11  L 22,11  L 22,12  L 21,12  Z  M 13,21  L 13,20  L 12,20  L 12,21  L 9,21  L 9,20  L 10,20  L 10,19  L 15,19  L 15,20  L 14,20  L 14,21  Z  M 22,15  L 21,15  L 21,13  L 22,13  Z  M 11,3  L 11,2  L 15,2  L 15,3  L 13,3  L 13,4  L 11,4  L 11,5  L 8,5  L 8,6  L 7,6  L 7,4  L 9,4  L 9,2  L 10,2  L 10,3  Z  M 17,4  L 16,4  L 16,3  L 17,3  Z  M 17,21  L 16,21  L 16,20  L 17,20  Z  M 4,5  L 4,6  L 3,6  L 3,5  Z  " style="fill:rgb(127, 127, 127); fill-opacity:1.000; stroke:none;" />
 <path d="  M 2,15  L 1,15  L 1,19  L 2,19  L 2,21  L 1,21  L 1,22  L 3,22  L 3,23  L 6,23  L 6,22  L 5,22  L 5,21  L 4,21  L 4,19  L 3,19  L 3,18  L 2,18  Z  " style="fill:rgb(127, 127, 127); fill-opacity:1.000; stroke:none;" />
 <path d="  M 4,17  L 3,17  L 3,18  L 4,18  Z  " style="fill:rgb(127, 127, 127); fill-opacity:1.000; stroke:none;" />
 <path d="  M 6,19  L 6,18  L 5,18  L 5,19  Z  " style="fill:rgb(127, 127, 127); fill-opacity:1.000; stroke:none;" />
 <path d="  M 6,7  L 6,8  L 7,8  L 7,7  Z  " style="fill:rgb(127, 127, 127); fill-opacity:1.000; stroke:none;" />
 <path d="  M 7,16  L 8,16  L 8,15  L 7,15  Z  " style="fill:rgb(127, 127, 127); fill-opacity:1.000; stroke:none;" />
 <path d="  M 8,14  L 8,15  L 9,15  L 9,14  Z  " style="fill:rgb(127, 127, 127); fill-opacity:1.000; stroke:none;" />
 <path d="  M 14,7  L 12,7  L 12,8  L 14,8  Z  " style="fill:rgb(127, 127, 127); fill-opacity:1.000; stroke:none;" />
 <path d="  M 14,16  L 13,16  L 13,17  L 14,17  Z  " style="fill:rgb(127, 127, 127); fill-opacity:1.000; stroke:none;" />
 <path d="  M 15,6  L 14,6  L 14,7  L 15,7  Z  " style="fill:rgb(127, 127, 127); fill-opacity:1.000; stroke:none;" />
 <path d="  M 14,9  L 15,9  L 15,8  L 14,8  Z  " style="fill:rgb(127, 127, 127); fill-opacity:1.000; stroke:none;" />
 <path d="  M 15,16  L 15,17  L 16,17  L 16,16  L 17,16  L 17,15  L 18,15  L 18,10  L 19,10  L 19,9  L 18,9  L 18,7  L 17,7  L 17,6  L 16,6  L 16,7  L 15,7  L 15,8  L 16,8  L 16,10  L 17,10  L 17,11  L 16,11  L 16,14  L 15,14  L 15,15  L 14,15  L 14,16  Z  " style="fill:rgb(127, 127, 127); fill-opacity:1.000; stroke:none;" />
 <path d="  M 16,18  L 17,18  L 17,17  L 16,17  Z  " style="fill:rgb(127, 127, 127); fill-opacity:1.000; stroke:none;" />
 <path d="  M 22,2  L 22,1  L 18,1  L 18,2  L 19,2  L 19,3  L 20,3  L 20,5  L 21,5  L 21,6  L 22,6  L 22,9  L 23,9  L 23,4  L 22,4  L 22,3  L 21,3  L 21,2  Z  " style="fill:rgb(127, 127, 127); fill-opacity:1.000; stroke:none;" />
 <path d="  M 20,17  L 20,18  L 21,18  L 21,17  Z  " style="fill:rgb(127, 127, 127); fill-opacity:1.000; stroke:none;" />
 <path d="  M 23,2  L 22,2  L 22,3  L 23,3  Z  " style="fill:rgb(127, 127, 127); fill-opacity:1.000; stroke:none;" />
 <path d="  M 2,4  L 2,3  L 1,3  L 1,4  Z  " style="fill:rgb(116, 116, 116); fill-opacity:1.000; stroke:none;" />
 <path d="  M 2,19  L 1,19  L 1,21  L 2,21  Z  " style="fill:rgb(116, 116, 116); fill-opacity:1.000; stroke:none;" />
 <path d="  M 3,3  L 3,2  L 2,2  L 2,3  Z  " style="fill:rgb(116, 116, 116); fill-opacity:1.000; stroke:none;" />
 <path d="  M 2,15  L 3,15  L 3,13  L 2,13  Z  " style="fill:rgb(116, 116, 116); fill-opacity:1.000; stroke:none;" />
 <path d="  M 4,2  L 4,1  L 3,1  L 3,2  Z  " style="fill:rgb(116, 116, 116); fill-opacity:1.000; stroke:none;" />
 <path d="  M 3,17  L 4,17  L 4,16  L 3,16  Z  " style="fill:rgb(116, 116, 116); fill-opacity:1.000; stroke:none;" />
 <path d="  M 5,3  L 4,3  L 4,4  L 5,4  Z  " style="fill:rgb(116, 116, 116); fill-opacity:1.000; stroke:none;" />
 <path d="  M 4,13  L 5,13  L 5,9  L 4,9  Z  " style="fill:rgb(116, 116, 116); fill-opacity:1.000; stroke:none;" />
 <path d="  M 5,15  L 5,14  L 4,14  L 4,15  Z  " style="fill:rgb(116, 116, 116); fill-opacity:1.000; stroke:none;" />
 <path d="  M 4,19  L 5,19  L 5,17  L 4,17  Z  " style="fill:rgb(116, 116, 116); fill-opacity:1.000; stroke:none;" />
 <path d="  M 5,20  L 4,20  L 4,21  L 5,21  Z  " style="fill:rgb(116, 116, 116); fill-opacity:1.000; stroke:none;" />
 <path d="  M 5,3  L 6,3  L 6,2  L 5,2  Z  " style="fill:rgb(116, 116, 116); fill-opacity:1.000; stroke:none;" />
 <path d="  M 6,7  L 5,7  L 5,9  L 6,9  Z  " style="fill:rgb(116, 116, 116); fill-opacity:1.000; stroke:none;" />
 <path d="  M 7,20  L 7,19  L 5,19  L 5,20  Z  " style="fill:rgb(116, 116, 116); fill-opacity:1.000; stroke:none;" />
 <path d="  M 6,22  L 6,21  L 5,21  L 5,22  Z  " style="fill:rgb(116, 116, 116); fill-opacity:1.000; stroke:none;" />
 <path d="  M 6,1  L 6,2  L 8,2  L 8,1  Z  " style="fill:rgb(116, 116, 116); fill-opacity:1.000; stroke:none;" />
 <path d="  M 7,6  L 6,6  L 6,7  L 7,7  Z  " style="fill:rgb(116, 116, 116); fill-opacity:1.000; stroke:none;" />
 <path d="  M 6,23  L 7,23  L 7,22  L 6,22  Z  " style="fill:rgb(116, 116, 116); fill-opacity:1.000; stroke:none;" />
 <path d="  M 8,5  L 7,5  L 7,6  L 8,6  Z  " style="fill:rgb(116, 116, 116); fill-opacity:1.000; stroke:none;" />
 <path d="  M 8,15  L 8,14  L 7,14  L 7,15  Z  " style="fill:rgb(116, 116, 116); fill-opacity:1.000; stroke:none;" />
 <path d="  M 8,20  L 7,20  L 7,21  L 8,21  Z  " style="fill:rgb(116, 116, 116); fill-opacity:1.000; stroke:none;" />
 <path d="  M 9,10  L 8,10  L 8,14  L 9,14  Z  " style="fill:rgb(116, 116, 116); fill-opacity:1.000; stroke:none;" />
 <path d="  M 9,15  L 8,15  L 8,16  L 9,16  Z  " style="fill:rgb(116, 116, 116); fill-opacity:1.000; stroke:none;" />
 <path d="  M 10,3  L 10,2  L 9,2  L 9,3  Z  " style="fill:rgb(116, 116, 116); fill-opacity:1.000; stroke:none;" />
 <path d="  M 11,5  L 11,4  L 9,4  L 9,5  Z  " style="fill:rgb(116, 116, 116); fill-opacity:1.000; stroke:none;" />
 <path d="  M 9,7  L 9,8  L 10,8  L 10,7  Z  " style="fill:rgb(116, 116, 116); fill-opacity:1.000; stroke:none;" />
 <path d="  M 9,10  L 10,10  L 10,9  L 9,9  Z  " style="fill:rgb(116, 116, 116); fill-opacity:1.000; stroke:none;" />
 <path d="  M 10,15  L 10,14  L 9,14  L 9,15  Z  " style="fill:rgb(116, 116, 116); fill-opacity:1.000; stroke:none;" />
 <path d="  M 9,16  L 9,17  L 10,17  L 10,16  Z  " style="fill:rgb(116, 116, 116); fill-opacity:1.000; stroke:none;" />
 <path d="  M 14,7  L 14,6  L 10,6  L 10,7  Z  " style="fill:rgb(116, 116, 116); fill-opacity:1.000; stroke:none;" />
 <path d="  M 10,9  L 14,9  L 14,8  L 10,8  Z  " style="fill:rgb(116, 116, 116); fill-opacity:1.000; stroke:none;" />
 <path d="  M 10,16  L 14,16  L 14,15  L 10,15  Z  " style="fill:rgb(116, 116, 116); fill-opacity:1.000; stroke:none;" />
 <path d="  M 15,19  L 10,19  L 10,20  L 15,20  Z  " style="fill:rgb(116, 116, 116); fill-opacity:1.000; stroke:none;" />
 <path d="  M 11,3  L 15,3  L 15,2  L 11,2  Z  " style="fill:rgb(116, 116, 116); fill-opacity:1.000; stroke:none;" />
 <path d="  M 11,17  L 11,18  L 14,18  L 14,17  Z  " style="fill:rgb(116, 116, 116); fill-opacity:1.000; stroke:none;" />
 <path d="  M 15,8  L 15,7  L 14,7  L 14,8  Z  " style="fill:rgb(116, 116, 116); fill-opacity:1.000; stroke:none;" />
 <path d="  M 14,10  L 15,10  L 15,9  L 14,9  Z  " style="fill:rgb(116, 116, 116); fill-opacity:1.000; stroke:none;" />
 <path d="  M 15,14  L 14,14  L 14,15  L 15,15  Z  " style="fill:rgb(116, 116, 116); fill-opacity:1.000; stroke:none;" />
 <path d="  M 14,16  L 14,17  L 15,17  L 15,16  Z  " style="fill:rgb(116, 116, 116); fill-opacity:1.000; stroke:none;" />
 <path d="  M 16,8  L 15,8  L 15,9  L 16,9  Z  " style="fill:rgb(116, 116, 116); fill-opacity:1.000; stroke:none;" />
 <path d="  M 16,10  L 15,10  L 15,14  L 16,14  Z  " style="fill:rgb(116, 116, 116); fill-opacity:1.000; stroke:none;" />
 <path d="  M 17,19  L 17,18  L 15,18  L 15,19  Z  " style="fill:rgb(116, 116, 116); fill-opacity:1.000; stroke:none;" />
 <path d="  M 15,22  L 15,23  L 18,23  L 18,22  Z  " style="fill:rgb(116, 116, 116); fill-opacity:1.000; stroke:none;" />
 <path d="  M 16,2  L 18,2  L 18,1  L 16,1  Z  " style="fill:rgb(116, 116, 116); fill-opacity:1.000; stroke:none;" />
 <path d="  M 17,3  L 16,3  L 16,4  L 17,4  Z  " style="fill:rgb(116, 116, 116); fill-opacity:1.000; stroke:none;" />
 <path d="  M 16,5  L 16,6  L 17,6  L 17,5  Z  " style="fill:rgb(116, 116, 116); fill-opacity:1.000; stroke:none;" />
 <path d="  M 16,20  L 16,21  L 17,21  L 17,20  Z  " style="fill:rgb(116, 116, 116); fill-opacity:1.000; stroke:none;" />
 <path d="  M 17,6  L 17,7  L 18,7  L 18,6  Z  " style="fill:rgb(116, 116, 116); fill-opacity:1.000; stroke:none;" />
 <path d="  M 17,18  L 18,18  L 18,17  L 17,17  Z  " style="fill:rgb(116, 116, 116); fill-opacity:1.000; stroke:none;" />
 <path d="  M 18,2  L 18,3  L 19,3  L 19,2  Z  " style="fill:rgb(116, 116, 116); fill-opacity:1.000; stroke:none;" />
 <path d="  M 18,7  L 18,9  L 19,9  L 19,7  Z  " style="fill:rgb(116, 116, 116); fill-opacity:1.000; stroke:none;" />
 <path d="  M 18,20  L 19,20  L 19,19  L 18,19  Z  " style="fill:rgb(116, 116, 116); fill-opacity:1.000; stroke:none;" />
 <path d="  M 18,21  L 18,22  L 19,22  L 19,21  Z  " style="fill:rgb(116, 116, 116); fill-opacity:1.000; stroke:none;" />
 <path d="  M 19,4  L 20,4  L 20,3  L 19,3  Z  " style="fill:rgb(116, 116, 116); fill-opacity:1.000; stroke:none;" />
 <path d="  M 20,9  L 19,9  L 19,13  L 20,13  Z  " style="fill:rgb(116, 116, 116); fill-opacity:1.000; stroke:none;" />
 <path d="  M 19,19  L 20,19  L 20,17  L 19,17  Z  " style="fill:rgb(116, 116, 116); fill-opacity:1.000; stroke:none;" />
 <path d="  M 19,21  L 20,21  L 20,20  L 19,20  Z  " style="fill:rgb(116, 116, 116); fill-opacity:1.000; stroke:none;" />
 <path d="  M 21,15  L 20,15  L 20,17  L 21,17  Z  " style="fill:rgb(116, 116, 116); fill-opacity:1.000; stroke:none;" />
 <path d="  M 21,20  L 21,19  L 20,19  L 20,20  Z  " style="fill:rgb(116, 116, 116); fill-opacity:1.000; stroke:none;" />
 <path d="  M 22,3  L 22,2  L 21,2  L 21,3  Z  " style="fill:rgb(116, 116, 116); fill-opacity:1.000; stroke:none;" />
 <path d="  M 21,11  L 21,12  L 22,12  L 22,11  Z  " style="fill:rgb(116, 116, 116); fill-opacity:1.000; stroke:none;" />
 <path d="  M 21,15  L 22,15  L 22,13  L 21,13  Z  " style="fill:rgb(116, 116, 116); fill-opacity:1.000; stroke:none;" />
 <path d="  M 22,4  L 23,4  L 23,3  L 22,3  Z  " style="fill:rgb(116, 116, 116); fill-opacity:1.000; stroke:none;" />
 <path d="  M 23,20  L 22,20  L 22,21  L 23,21  Z  " style="fill:rgb(116, 116, 116); fill-opacity:1.000; stroke:none;" />
 <path d="  M 2,5  L 1,5  L 1,7  L 2,7  Z  " style="fill:rgb(143, 143, 143); fill-opacity:1.000; stroke:none;" />
 <path d="  M 1,12  L 1,15  L 2,15  L 2,12  Z  " style="fill:rgb(143, 143, 143); fill-opacity:1.000; stroke:none;" />
 <path d="  M 1,22  L 1,23  L 3,23  L 3,22  Z  " style="fill:rgb(143, 143, 143); fill-opacity:1.000; stroke:none;" />
 <path d="  M 3,15  L 2,15  L 2,18  L 3,18  Z  " style="fill:rgb(143, 143, 143); fill-opacity:1.000; stroke:none;" />
 <path d="  M 3,6  L 4,6  L 4,5  L 3,5  Z  " style="fill:rgb(143, 143, 143); fill-opacity:1.000; stroke:none;" />
 <path d="  M 4,9  L 3,9  L 3,11  L 4,11  Z  " style="fill:rgb(143, 143, 143); fill-opacity:1.000; stroke:none;" />
 <path d="  M 3,19  L 4,19  L 4,18  L 3,18  Z  " style="fill:rgb(143, 143, 143); fill-opacity:1.000; stroke:none;" />
 <path d="  M 4,4  L 4,5  L 5,5  L 5,4  Z  " style="fill:rgb(143, 143, 143); fill-opacity:1.000; stroke:none;" />
 <path d="  M 5,7  L 4,7  L 4,8  L 5,8  Z  " style="fill:rgb(143, 143, 143); fill-opacity:1.000; stroke:none;" />
 <path d="  M 4,19  L 4,20  L 5,20  L 5,19  Z  " style="fill:rgb(143, 143, 143); fill-opacity:1.000; stroke:none;" />
 <path d="  M 5,3  L 5,4  L 6,4  L 6,3  Z  " style="fill:rgb(143, 143, 143); fill-opacity:1.000; stroke:none;" />
 <path d="  M 6,15  L 6,12  L 5,12  L 5,15  Z  " style="fill:rgb(143, 143, 143); fill-opacity:1.000; stroke:none;" />
 <path d="  M 6,17  L 5,17  L 5,18  L 6,18  Z  " style="fill:rgb(143, 143, 143); fill-opacity:1.000; stroke:none;" />
 <path d="  M 7,2  L 6,2  L 6,3  L 7,3  Z  " style="fill:rgb(143, 143, 143); fill-opacity:1.000; stroke:none;" />
 <path d="  M 7,9  L 7,8  L 6,8  L 6,9  Z  " style="fill:rgb(143, 143, 143); fill-opacity:1.000; stroke:none;" />
 <path d="  M 6,16  L 7,16  L 7,15  L 6,15  Z  " style="fill:rgb(143, 143, 143); fill-opacity:1.000; stroke:none;" />
 <path d="  M 6,18  L 6,19  L 7,19  L 7,18  Z  " style="fill:rgb(143, 143, 143); fill-opacity:1.000; stroke:none;" />
 <path d="  M 9,5  L 9,4  L 7,4  L 7,5  Z  " style="fill:rgb(143, 143, 143); fill-opacity:1.000; stroke:none;" />
 <path d="  M 8,8  L 8,7  L 7,7  L 7,8  Z  " style="fill:rgb(143, 143, 143); fill-opacity:1.000; stroke:none;" />
 <path d="  M 7,13  L 8,13  L 8,10  L 7,10  Z  " style="fill:rgb(143, 143, 143); fill-opacity:1.000; stroke:none;" />
 <path d="  M 8,16  L 7,16  L 7,17  L 8,17  Z  " style="fill:rgb(143, 143, 143); fill-opacity:1.000; stroke:none;" />
 <path d="  M 9,20  L 9,19  L 7,19  L 7,20  Z  " style="fill:rgb(143, 143, 143); fill-opacity:1.000; stroke:none;" />
 <path d="  M 9,10  L 9,9  L 8,9  L 8,10  Z  " style="fill:rgb(143, 143, 143); fill-opacity:1.000; stroke:none;" />
 <path d="  M 9,3  L 9,4  L 13,4  L 13,3  Z  " style="fill:rgb(143, 143, 143); fill-opacity:1.000; stroke:none;" />
 <path d="  M 10,8  L 9,8  L 9,9  L 10,9  Z  " style="fill:rgb(143, 143, 143); fill-opacity:1.000; stroke:none;" />
 <path d="  M 9,16  L 10,16  L 10,15  L 9,15  Z  " style="fill:rgb(143, 143, 143); fill-opacity:1.000; stroke:none;" />
 <path d="  M 9,20  L 9,21  L 12,21  L 12,20  Z  " style="fill:rgb(143, 143, 143); fill-opacity:1.000; stroke:none;" />
 <path d="  M 12,8  L 12,7  L 10,7  L 10,8  Z  " style="fill:rgb(143, 143, 143); fill-opacity:1.000; stroke:none;" />
 <path d="  M 13,17  L 13,16  L 10,16  L 10,17  Z  " style="fill:rgb(143, 143, 143); fill-opacity:1.000; stroke:none;" />
 <path d="  M 13,5  L 13,6  L 15,6  L 15,5  Z  " style="fill:rgb(143, 143, 143); fill-opacity:1.000; stroke:none;" />
 <path d="  M 14,21  L 14,20  L 13,20  L 13,21  Z  " style="fill:rgb(143, 143, 143); fill-opacity:1.000; stroke:none;" />
 <path d="  M 15,7  L 16,7  L 16,6  L 15,6  Z  " style="fill:rgb(143, 143, 143); fill-opacity:1.000; stroke:none;" />
 <path d="  M 16,10  L 16,9  L 15,9  L 15,10  Z  " style="fill:rgb(143, 143, 143); fill-opacity:1.000; stroke:none;" />
 <path d="  M 16,17  L 15,17  L 15,18  L 16,18  Z  " style="fill:rgb(143, 143, 143); fill-opacity:1.000; stroke:none;" />
 <path d="  M 17,11  L 17,10  L 16,10  L 16,11  Z  " style="fill:rgb(143, 143, 143); fill-opacity:1.000; stroke:none;" />
 <path d="  M 16,17  L 17,17  L 17,16  L 16,16  Z  " style="fill:rgb(143, 143, 143); fill-opacity:1.000; stroke:none;" />
 <path d="  M 17,15  L 17,16  L 18,16  L 18,15  Z  " style="fill:rgb(143, 143, 143); fill-opacity:1.000; stroke:none;" />
 <path d="  M 17,22  L 18,22  L 18,21  L 17,21  Z  " style="fill:rgb(143, 143, 143); fill-opacity:1.000; stroke:none;" />
 <path d="  M 19,6  L 18,6  L 18,7  L 19,7  Z  " style="fill:rgb(143, 143, 143); fill-opacity:1.000; stroke:none;" />
 <path d="  M 18,10  L 18,15  L 19,15  L 19,10  Z  " style="fill:rgb(143, 143, 143); fill-opacity:1.000; stroke:none;" />
 <path d="  M 19,21  L 19,20  L 18,20  L 18,21  Z  " style="fill:rgb(143, 143, 143); fill-opacity:1.000; stroke:none;" />
 <path d="  M 20,5  L 20,4  L 19,4  L 19,5  Z  " style="fill:rgb(143, 143, 143); fill-opacity:1.000; stroke:none;" />
 <path d="  M 20,7  L 19,7  L 19,9  L 20,9  Z  " style="fill:rgb(143, 143, 143); fill-opacity:1.000; stroke:none;" />
 <path d="  M 20,19  L 19,19  L 19,20  L 20,20  Z  " style="fill:rgb(143, 143, 143); fill-opacity:1.000; stroke:none;" />
 <path d="  M 21,5  L 20,5  L 20,6  L 21,6  Z  " style="fill:rgb(143, 143, 143); fill-opacity:1.000; stroke:none;" />
 <path d="  M 21,19  L 21,18  L 20,18  L 20,19  Z  " style="fill:rgb(143, 143, 143); fill-opacity:1.000; stroke:none;" />
 <path d="  M 21,6  L 21,9  L 22,9  L 22,6  Z  " style="fill:rgb(143, 143, 143); fill-opacity:1.000; stroke:none;" />
 <path d="  M 22,16  L 21,16  L 21,18  L 22,18  Z  " style="fill:rgb(143, 143, 143); fill-opacity:1.000; stroke:none;" />
 <path d="  M 21,23  L 23,23  L 23,21  L 22,21  L 22,22  L 21,22  Z  " style="fill:rgb(143, 143, 143); fill-opacity:1.000; stroke:none;" />
 <path d="  M 22,2  L 23,2  L 23,1  L 22,1  Z  " style="fill:rgb(143, 143, 143); fill-opacity:1.000; stroke:none;" />
 <path d="  M 23,9  L 22,9  L 22,11  L 23,11  Z  " style="fill:rgb(143, 143, 143); fill-opacity:1.000; stroke:none;" />
 <path d="  M 9,14  L 10,14  L 10,15  L 14,15  L 14,14  L 15,14  L 15,10  L 14,10  L 14,9  L 10,9  L 10,10  L 9,10  Z  " style="fill:rgb(104, 104, 104); fill-opacity:1.000; stroke:none;" />
</svg>
