<?xml version="1.0" encoding="UTF-8" standalone="no"?>
<!DOCTYPE svg PUBLIC "-//W3C//DTD SVG 1.1//EN" 
  "http://www.w3.org/Graphics/SVG/1.1/DTD/svg11.dtd">
<svg width="32" height="32"
	 xmlns="http://www.w3.org/2000/svg" version="1.1">
 <path d="  M 0,0  L 0,2  L 1,2  L 1,0  Z  " style="fill:rgb(253, 193, 52); fill-opacity:0.502; stroke:none;" />
 <path d="  M 6,1  L 6,2  L 2,2  L 2,3  L 1,3  L 1,6  L 0,6  L 0,8  L 1,8  L 1,7  L 2,7  L 2,6  L 3,6  L 3,4  L 4,4  L 4,5  L 5,5  L 5,6  L 6,6  L 6,4  L 7,4  L 7,3  L 8,3  L 8,2  L 11,2  L 11,0  L 8,0  L 8,1  Z  " style="fill:rgb(253, 193, 52); fill-opacity:0.502; stroke:none;" />
 <path d="  M 0,13  L 1,13  L 1,11  L 0,11  Z  " style="fill:rgb(253, 193, 52); fill-opacity:0.502; stroke:none;" />
 <path d="  M 0,32  L 4,32  L 4,31  L 5,31  L 5,30  L 6,30  L 6,28  L 5,28  L 5,29  L 3,29  L 3,30  L 2,30  L 2,28  L 1,28  L 1,29  L 0,29  Z  " style="fill:rgb(253, 193, 52); fill-opacity:0.502; stroke:none;" />
 <path d="  M 15,2  L 15,1  L 16,1  L 16,0  L 14,0  L 14,2  Z  " style="fill:rgb(253, 193, 52); fill-opacity:0.502; stroke:none;" />
 <path d="  M 26,24  L 27,24  L 27,22  L 28,22  L 28,20  L 27,20  L 27,18  L 26,18  L 26,22  L 25,22  L 25,24  L 24,24  L 24,25  L 22,25  L 22,26  L 20,26  L 20,27  L 21,27  L 21,28  L 25,28  L 25,27  L 26,27  Z  " style="fill:rgb(253, 193, 52); fill-opacity:0.502; stroke:none;" />
 <path d="  M 26,1  L 27,1  L 27,0  L 26,0  Z  " style="fill:rgb(253, 193, 52); fill-opacity:0.502; stroke:none;" />
 <path d="  M 32,0  L 28,0  L 28,1  L 30,1  L 30,2  L 31,2  L 31,4  L 32,4  Z  " style="fill:rgb(253, 193, 52); fill-opacity:0.502; stroke:none;" />
 <path d="  M 30,31  L 30,32  L 32,32  L 32,30  L 31,30  L 31,31  Z  " style="fill:rgb(253, 193, 52); fill-opacity:0.502; stroke:none;" />
 <path d="  M 1,0  L 1,2  L 0,2  L 0,6  L 1,6  L 1,3  L 2,3  L 2,2  L 6,2  L 6,1  L 8,1  L 8,0  Z  " style="fill:rgb(250, 171, 28); fill-opacity:0.502; stroke:none;" />
 <path d="  M 1,11  L 1,13  L 2,13  L 2,10  L 1,10  L 1,8  L 0,8  L 0,11  Z  " style="fill:rgb(250, 171, 28); fill-opacity:0.502; stroke:none;" />
 <path d="  M 1,14  L 1,13  L 0,13  L 0,14  Z  " style="fill:rgb(250, 171, 28); fill-opacity:0.502; stroke:none;" />
 <path d="  M 2,19  L 2,18  L 1,18  L 1,16  L 0,16  L 0,20  L 1,20  L 1,19  Z  " style="fill:rgb(250, 171, 28); fill-opacity:0.502; stroke:none;" />
 <path d="  M 0,29  L 1,29  L 1,28  L 2,28  L 2,27  L 1,27  L 1,26  L 0,26  Z  " style="fill:rgb(250, 171, 28); fill-opacity:0.502; stroke:none;" />
 <path d="  M 2,7  L 1,7  L 1,8  L 2,8  Z  " style="fill:rgb(250, 171, 28); fill-opacity:0.502; stroke:none;" />
 <path d="  M 4,27  L 4,28  L 2,28  L 2,30  L 3,30  L 3,29  L 5,29  L 5,28  L 6,28  L 6,27  Z  " style="fill:rgb(250, 171, 28); fill-opacity:0.502; stroke:none;" />
 <path d="  M 7,32  L 7,31  L 6,31  L 6,30  L 5,30  L 5,31  L 4,31  L 4,32  Z  " style="fill:rgb(250, 171, 28); fill-opacity:0.502; stroke:none;" />
 <path d="  M 7,30  L 7,29  L 8,29  L 8,28  L 6,28  L 6,30  Z  " style="fill:rgb(250, 171, 28); fill-opacity:0.502; stroke:none;" />
 <path d="  M 14,32  L 14,31  L 13,31  L 13,30  L 10,30  L 10,31  L 9,31  L 9,32  Z  " style="fill:rgb(250, 171, 28); fill-opacity:0.502; stroke:none;" />
 <path d="  M 11,0  L 11,1  L 14,1  L 14,0  Z  " style="fill:rgb(250, 171, 28); fill-opacity:0.502; stroke:none;" />
 <path d="  M 29,22  L 30,22  L 30,21  L 29,21  L 29,19  L 28,19  L 28,17  L 29,17  L 29,15  L 30,15  L 30,11  L 29,11  L 29,10  L 28,10  L 28,12  L 27,12  L 27,15  L 26,15  L 26,17  L 25,17  L 25,19  L 24,19  L 24,20  L 23,20  L 23,22  L 22,22  L 22,24  L 20,24  L 20,25  L 19,25  L 19,26  L 16,26  L 16,27  L 14,27  L 14,28  L 17,28  L 17,29  L 20,29  L 20,30  L 24,30  L 24,29  L 25,29  L 25,28  L 27,28  L 27,26  L 28,26  L 28,24  L 29,24  Z  M 27,18  L 27,20  L 28,20  L 28,22  L 27,22  L 27,24  L 26,24  L 26,27  L 25,27  L 25,28  L 21,28  L 21,27  L 20,27  L 20,26  L 22,26  L 22,25  L 24,25  L 24,24  L 25,24  L 25,22  L 26,22  L 26,18  Z  " style="fill:rgb(250, 171, 28); fill-opacity:0.502; stroke:none;" />
 <path d="  M 17,1  L 18,1  L 18,0  L 16,0  L 16,1  L 15,1  L 15,2  L 17,2  Z  " style="fill:rgb(250, 171, 28); fill-opacity:0.502; stroke:none;" />
 <path d="  M 32,4  L 31,4  L 31,2  L 30,2  L 30,1  L 28,1  L 28,0  L 27,0  L 27,1  L 26,1  L 26,0  L 24,0  L 24,2  L 28,2  L 28,3  L 29,3  L 29,5  L 30,5  L 30,6  L 31,6  L 31,7  L 32,7  Z  " style="fill:rgb(250, 171, 28); fill-opacity:0.502; stroke:none;" />
 <path d="  M 30,32  L 30,31  L 29,31  L 29,32  Z  " style="fill:rgb(250, 171, 28); fill-opacity:0.502; stroke:none;" />
 <path d="  M 31,31  L 31,30  L 30,30  L 30,31  Z  " style="fill:rgb(250, 171, 28); fill-opacity:0.502; stroke:none;" />
 <path d="  M 31,30  L 32,30  L 32,29  L 31,29  Z  " style="fill:rgb(250, 171, 28); fill-opacity:0.502; stroke:none;" />
 <path d="  M 2,13  L 1,13  L 1,14  L 0,14  L 0,16  L 1,16  L 1,18  L 2,18  Z  " style="fill:rgb(247, 153, 9); fill-opacity:0.502; stroke:none;" />
 <path d="  M 17,32  L 25,32  L 25,31  L 24,31  L 24,30  L 20,30  L 20,29  L 17,29  L 17,28  L 14,28  L 14,27  L 16,27  L 16,26  L 13,26  L 13,27  L 11,27  L 11,28  L 9,28  L 9,27  L 8,27  L 8,26  L 6,26  L 6,25  L 5,25  L 5,24  L 4,24  L 4,25  L 2,25  L 2,24  L 1,24  L 1,22  L 3,22  L 3,21  L 4,21  L 4,20  L 3,20  L 3,18  L 2,18  L 2,19  L 1,19  L 1,20  L 0,20  L 0,26  L 1,26  L 1,27  L 2,27  L 2,28  L 4,28  L 4,27  L 6,27  L 6,28  L 8,28  L 8,29  L 7,29  L 7,30  L 6,30  L 6,31  L 7,31  L 7,32  L 9,32  L 9,31  L 10,31  L 10,30  L 13,30  L 13,31  L 14,31  L 14,30  L 15,30  L 15,29  L 16,29  L 16,30  L 18,30  L 18,31  L 17,31  Z  " style="fill:rgb(247, 153, 9); fill-opacity:0.502; stroke:none;" />
 <path d="  M 3,13  L 3,11  L 4,11  L 4,9  L 3,9  L 3,6  L 2,6  L 2,8  L 1,8  L 1,10  L 2,10  L 2,13  Z  " style="fill:rgb(247, 153, 9); fill-opacity:0.502; stroke:none;" />
 <path d="  M 12,3  L 12,2  L 14,2  L 14,1  L 11,1  L 11,2  L 8,2  L 8,3  L 7,3  L 7,4  L 6,4  L 6,6  L 5,6  L 5,5  L 4,5  L 4,4  L 3,4  L 3,6  L 4,6  L 4,7  L 5,7  L 5,8  L 6,8  L 6,7  L 9,7  L 9,6  L 10,6  L 10,4  L 11,4  L 11,3  Z  " style="fill:rgb(247, 153, 9); fill-opacity:0.502; stroke:none;" />
 <path d="  M 4,15  L 3,15  L 3,16  L 4,16  L 4,17  L 5,17  L 5,16  L 6,16  L 6,15  L 5,15  L 5,14  L 4,14  Z  " style="fill:rgb(247, 153, 9); fill-opacity:0.502; stroke:none;" />
 <path d="  M 11,17  L 11,16  L 9,16  L 9,17  L 8,17  L 8,20  L 9,20  L 9,19  L 10,19  L 10,18  L 12,18  L 12,17  Z  " style="fill:rgb(247, 153, 9); fill-opacity:0.502; stroke:none;" />
 <path d="  M 21,1  L 21,0  L 18,0  L 18,1  L 17,1  L 17,2  L 14,2  L 14,3  L 15,3  L 15,4  L 17,4  L 17,3  L 18,3  L 18,2  L 20,2  L 20,1  Z  " style="fill:rgb(247, 153, 9); fill-opacity:0.502; stroke:none;" />
 <path d="  M 15,32  L 15,31  L 14,31  L 14,32  Z  " style="fill:rgb(247, 153, 9); fill-opacity:0.502; stroke:none;" />
 <path d="  M 22,22  L 21,22  L 21,23  L 19,23  L 19,24  L 18,24  L 18,25  L 16,25  L 16,26  L 19,26  L 19,25  L 20,25  L 20,24  L 22,24  Z  " style="fill:rgb(247, 153, 9); fill-opacity:0.502; stroke:none;" />
 <path d="  M 21,6  L 22,6  L 22,5  L 21,5  L 21,4  L 20,4  L 20,5  L 19,5  L 19,6  L 18,6  L 18,7  L 19,7  L 19,8  L 21,8  L 21,9  L 22,9  L 22,7  L 21,7  Z  " style="fill:rgb(247, 153, 9); fill-opacity:0.502; stroke:none;" />
 <path d="  M 19,15  L 19,14  L 20,14  L 20,13  L 18,13  L 18,15  Z  " style="fill:rgb(247, 153, 9); fill-opacity:0.502; stroke:none;" />
 <path d="  M 29,3  L 28,3  L 28,4  L 27,4  L 27,5  L 26,5  L 26,4  L 25,4  L 25,3  L 26,3  L 26,2  L 24,2  L 24,0  L 22,0  L 22,1  L 23,1  L 23,3  L 24,3  L 24,5  L 25,5  L 25,6  L 26,6  L 26,7  L 27,7  L 27,8  L 28,8  L 28,10  L 29,10  L 29,8  L 30,8  L 30,7  L 31,7  L 31,6  L 30,6  L 30,5  L 29,5  Z  " style="fill:rgb(247, 153, 9); fill-opacity:0.502; stroke:none;" />
 <path d="  M 24,13  L 25,13  L 25,12  L 24,12  L 24,11  L 23,11  L 23,12  L 22,12  L 22,13  L 23,13  L 23,14  L 24,14  Z  " style="fill:rgb(247, 153, 9); fill-opacity:0.502; stroke:none;" />
 <path d="  M 22,22  L 23,22  L 23,20  L 22,20  Z  " style="fill:rgb(247, 153, 9); fill-opacity:0.502; stroke:none;" />
 <path d="  M 23,20  L 24,20  L 24,19  L 25,19  L 25,17  L 26,17  L 26,15  L 25,15  L 25,16  L 24,16  L 24,18  L 23,18  Z  " style="fill:rgb(247, 153, 9); fill-opacity:0.502; stroke:none;" />
 <path d="  M 25,28  L 25,29  L 24,29  L 24,30  L 26,30  L 26,29  L 27,29  L 27,28  Z  " style="fill:rgb(247, 153, 9); fill-opacity:0.502; stroke:none;" />
 <path d="  M 27,12  L 28,12  L 28,10  L 27,10  L 27,11  L 26,11  L 26,15  L 27,15  Z  " style="fill:rgb(247, 153, 9); fill-opacity:0.502; stroke:none;" />
 <path d="  M 28,28  L 28,26  L 27,26  L 27,28  Z  " style="fill:rgb(247, 153, 9); fill-opacity:0.502; stroke:none;" />
 <path d="  M 29,32  L 29,31  L 27,31  L 27,32  Z  " style="fill:rgb(247, 153, 9); fill-opacity:0.502; stroke:none;" />
 <path d="  M 30,22  L 31,22  L 31,23  L 32,23  L 32,18  L 31,18  L 31,19  L 30,19  L 30,18  L 29,18  L 29,17  L 28,17  L 28,19  L 29,19  L 29,21  L 30,21  Z  " style="fill:rgb(247, 153, 9); fill-opacity:0.502; stroke:none;" />
 <path d="  M 29,26  L 29,25  L 30,25  L 30,22  L 29,22  L 29,24  L 28,24  L 28,26  Z  " style="fill:rgb(247, 153, 9); fill-opacity:0.502; stroke:none;" />
 <path d="  M 29,11  L 30,11  L 30,10  L 29,10  Z  " style="fill:rgb(247, 153, 9); fill-opacity:0.502; stroke:none;" />
 <path d="  M 29,15  L 29,17  L 30,17  L 30,16  L 31,16  L 31,14  L 32,14  L 32,10  L 31,10  L 31,11  L 30,11  L 30,15  Z  " style="fill:rgb(247, 153, 9); fill-opacity:0.502; stroke:none;" />
 <path d="  M 29,31  L 30,31  L 30,30  L 29,30  Z  " style="fill:rgb(247, 153, 9); fill-opacity:0.502; stroke:none;" />
 <path d="  M 30,29  L 30,30  L 31,30  L 31,29  Z  " style="fill:rgb(247, 153, 9); fill-opacity:0.502; stroke:none;" />
 <path d="  M 32,7  L 31,7  L 31,9  L 32,9  Z  " style="fill:rgb(247, 153, 9); fill-opacity:0.502; stroke:none;" />
 <path d="  M 31,29  L 32,29  L 32,26  L 31,26  Z  " style="fill:rgb(247, 153, 9); fill-opacity:0.502; stroke:none;" />
 <path d="  M 4,17  L 4,16  L 3,16  L 3,15  L 4,15  L 4,14  L 5,14  L 5,15  L 6,15  L 6,13  L 5,13  L 5,11  L 6,11  L 6,10  L 7,10  L 7,9  L 9,9  L 9,10  L 10,10  L 10,11  L 11,11  L 11,9  L 12,9  L 12,7  L 13,7  L 13,6  L 15,6  L 15,7  L 16,7  L 16,8  L 17,8  L 17,10  L 18,10  L 18,9  L 20,9  L 20,10  L 21,10  L 21,11  L 22,11  L 22,12  L 23,12  L 23,11  L 24,11  L 24,12  L 25,12  L 25,13  L 24,13  L 24,14  L 22,14  L 22,16  L 21,16  L 21,17  L 22,17  L 22,19  L 21,19  L 21,20  L 20,20  L 20,18  L 19,18  L 19,19  L 18,19  L 18,21  L 17,21  L 17,22  L 15,22  L 15,23  L 14,23  L 14,25  L 13,25  L 13,26  L 12,26  L 12,24  L 11,24  L 11,23  L 10,23  L 10,21  L 11,21  L 11,20  L 12,20  L 12,19  L 13,19  L 13,18  L 14,18  L 14,17  L 13,17  L 13,16  L 11,16  L 11,15  L 12,15  L 12,14  L 10,14  L 10,15  L 9,15  L 9,14  L 8,14  L 8,15  L 7,15  L 7,16  L 5,16  L 5,17  Z  M 10,6  L 9,6  L 9,7  L 6,7  L 6,8  L 5,8  L 5,7  L 4,7  L 4,6  L 3,6  L 3,9  L 4,9  L 4,11  L 3,11  L 3,13  L 2,13  L 2,18  L 3,18  L 3,20  L 4,20  L 4,21  L 3,21  L 3,22  L 1,22  L 1,24  L 2,24  L 2,25  L 4,25  L 4,24  L 5,24  L 5,25  L 6,25  L 6,26  L 8,26  L 8,27  L 9,27  L 9,28  L 11,28  L 11,27  L 13,27  L 13,26  L 16,26  L 16,25  L 18,25  L 18,24  L 19,24  L 19,23  L 21,23  L 21,22  L 22,22  L 22,20  L 23,20  L 23,18  L 24,18  L 24,16  L 25,16  L 25,15  L 26,15  L 26,11  L 27,11  L 27,10  L 28,10  L 28,8  L 27,8  L 27,7  L 26,7  L 26,6  L 25,6  L 25,5  L 24,5  L 24,3  L 23,3  L 23,1  L 22,1  L 22,0  L 21,0  L 21,1  L 20,1  L 20,2  L 18,2  L 18,3  L 17,3  L 17,4  L 15,4  L 15,3  L 14,3  L 14,2  L 12,2  L 12,3  L 11,3  L 11,4  L 10,4  Z  M 22,7  L 22,9  L 21,9  L 21,8  L 19,8  L 19,7  L 18,7  L 18,6  L 17,6  L 17,5  L 18,5  L 18,4  L 21,4  L 21,5  L 22,5  L 22,6  L 21,6  L 21,7  Z  M 5,21  L 5,19  L 6,19  L 6,18  L 7,18  L 7,20  L 8,20  L 8,22  L 9,22  L 9,23  L 8,23  L 8,24  L 7,24  L 7,22  L 6,22  L 6,21  Z  M 10,18  L 10,19  L 9,19  L 9,20  L 8,20  L 8,17  L 9,17  L 9,16  L 11,16  L 11,17  L 12,17  L 12,18  Z  " style="fill:rgb(235, 127, 17); fill-opacity:0.502; stroke:none;" />
 <path d="  M 18,30  L 16,30  L 16,29  L 15,29  L 15,30  L 14,30  L 14,31  L 15,31  L 15,32  L 17,32  L 17,31  L 18,31  Z  " style="fill:rgb(235, 127, 17); fill-opacity:0.502; stroke:none;" />
 <path d="  M 19,13  L 19,12  L 17,12  L 17,13  Z  " style="fill:rgb(235, 127, 17); fill-opacity:0.502; stroke:none;" />
 <path d="  M 18,14  L 17,14  L 17,15  L 18,15  Z  " style="fill:rgb(235, 127, 17); fill-opacity:0.502; stroke:none;" />
 <path d="  M 19,16  L 19,15  L 18,15  L 18,16  Z  " style="fill:rgb(235, 127, 17); fill-opacity:0.502; stroke:none;" />
 <path d="  M 19,15  L 20,15  L 20,14  L 19,14  Z  " style="fill:rgb(235, 127, 17); fill-opacity:0.502; stroke:none;" />
 <path d="  M 20,16  L 21,16  L 21,15  L 20,15  Z  " style="fill:rgb(235, 127, 17); fill-opacity:0.502; stroke:none;" />
 <path d="  M 28,28  L 27,28  L 27,29  L 26,29  L 26,30  L 24,30  L 24,31  L 25,31  L 25,32  L 27,32  L 27,31  L 29,31  L 29,30  L 30,30  L 30,29  L 31,29  L 31,26  L 32,26  L 32,23  L 31,23  L 31,22  L 30,22  L 30,25  L 29,25  L 29,26  L 28,26  Z  " style="fill:rgb(235, 127, 17); fill-opacity:0.502; stroke:none;" />
 <path d="  M 28,2  L 26,2  L 26,3  L 25,3  L 25,4  L 26,4  L 26,5  L 27,5  L 27,4  L 28,4  Z  " style="fill:rgb(235, 127, 17); fill-opacity:0.502; stroke:none;" />
 <path d="  M 32,10  L 32,9  L 31,9  L 31,7  L 30,7  L 30,8  L 29,8  L 29,10  L 30,10  L 30,11  L 31,11  L 31,10  Z  " style="fill:rgb(235, 127, 17); fill-opacity:0.502; stroke:none;" />
 <path d="  M 32,14  L 31,14  L 31,16  L 30,16  L 30,17  L 29,17  L 29,18  L 30,18  L 30,19  L 31,19  L 31,18  L 32,18  Z  " style="fill:rgb(235, 127, 17); fill-opacity:0.502; stroke:none;" />
 <path d="  M 20,9  L 18,9  L 18,10  L 17,10  L 17,8  L 16,8  L 16,7  L 15,7  L 15,6  L 13,6  L 13,7  L 12,7  L 12,9  L 11,9  L 11,11  L 10,11  L 10,10  L 9,10  L 9,9  L 7,9  L 7,10  L 6,10  L 6,11  L 5,11  L 5,13  L 6,13  L 6,16  L 7,16  L 7,15  L 8,15  L 8,14  L 9,14  L 9,15  L 10,15  L 10,14  L 12,14  L 12,15  L 11,15  L 11,16  L 13,16  L 13,17  L 14,17  L 14,18  L 13,18  L 13,19  L 12,19  L 12,20  L 11,20  L 11,21  L 10,21  L 10,23  L 11,23  L 11,24  L 12,24  L 12,26  L 13,26  L 13,25  L 14,25  L 14,23  L 15,23  L 15,22  L 17,22  L 17,21  L 18,21  L 18,19  L 19,19  L 19,18  L 20,18  L 20,20  L 21,20  L 21,19  L 22,19  L 22,17  L 21,17  L 21,16  L 22,16  L 22,14  L 23,14  L 23,13  L 22,13  L 22,11  L 21,11  L 21,10  L 20,10  Z  M 17,15  L 17,14  L 18,14  L 18,13  L 17,13  L 17,12  L 19,12  L 19,13  L 20,13  L 20,15  L 19,15  L 19,16  L 18,16  L 18,15  Z  M 20,15  L 21,15  L 21,16  L 20,16  Z  " style="fill:rgb(228, 117, 3); fill-opacity:0.502; stroke:none;" />
 <path d="  M 6,18  L 6,19  L 5,19  L 5,21  L 6,21  L 6,22  L 7,22  L 7,24  L 8,24  L 8,23  L 9,23  L 9,22  L 8,22  L 8,20  L 7,20  L 7,18  Z  " style="fill:rgb(228, 117, 3); fill-opacity:0.502; stroke:none;" />
 <path d="  M 17,6  L 19,6  L 19,5  L 20,5  L 20,4  L 18,4  L 18,5  L 17,5  Z  " style="fill:rgb(228, 117, 3); fill-opacity:0.502; stroke:none;" />
</svg>
