<?xml version="1.0" encoding="UTF-8" standalone="no"?>
<!DOCTYPE svg PUBLIC "-//W3C//DTD SVG 1.1//EN" 
  "http://www.w3.org/Graphics/SVG/1.1/DTD/svg11.dtd">
<svg width="32" height="32"
	 xmlns="http://www.w3.org/2000/svg" version="1.1">
 <path d="  M 0,6  L 1,6  L 1,3  L 2,3  L 2,2  L 3,2  L 3,1  L 4,1  L 4,0  L 0,0  Z  " style="fill:rgb(247, 153, 9); fill-opacity:0.749; stroke:none;" />
 <path d="  M 32,4  L 31,4  L 31,6  L 30,6  L 30,7  L 29,7  L 29,8  L 26,8  L 26,9  L 23,9  L 23,10  L 16,10  L 16,11  L 14,11  L 14,12  L 10,12  L 10,13  L 9,13  L 9,15  L 10,15  L 10,16  L 9,16  L 9,17  L 8,17  L 8,18  L 7,18  L 7,19  L 6,19  L 6,20  L 5,20  L 5,22  L 4,22  L 4,24  L 3,24  L 3,27  L 2,27  L 2,28  L 1,28  L 1,29  L 0,29  L 0,32  L 2,32  L 2,31  L 3,31  L 3,30  L 4,30  L 4,27  L 5,27  L 5,25  L 6,25  L 6,24  L 7,24  L 7,23  L 8,23  L 8,21  L 9,21  L 9,20  L 10,20  L 10,18  L 12,18  L 12,17  L 14,17  L 14,16  L 15,16  L 15,15  L 17,15  L 17,14  L 20,14  L 20,13  L 22,13  L 22,12  L 27,12  L 27,11  L 28,11  L 28,10  L 29,10  L 29,9  L 31,9  L 31,8  L 32,8  Z  " style="fill:rgb(247, 153, 9); fill-opacity:0.749; stroke:none;" />
 <path d="  M 27,29  L 28,29  L 28,28  L 29,28  L 29,27  L 30,27  L 30,26  L 31,26  L 31,24  L 30,24  L 30,22  L 29,22  L 29,26  L 28,26  L 28,27  L 27,27  Z  " style="fill:rgb(247, 153, 9); fill-opacity:0.749; stroke:none;" />
 <path d="  M 27,31  L 28,31  L 28,30  L 27,30  Z  " style="fill:rgb(247, 153, 9); fill-opacity:0.749; stroke:none;" />
 <path d="  M 1,6  L 0,6  L 0,8  L 1,8  Z  " style="fill:rgb(250, 171, 28); fill-opacity:0.749; stroke:none;" />
 <path d="  M 10,13  L 10,12  L 7,12  L 7,13  L 6,13  L 6,14  L 5,14  L 5,16  L 4,16  L 4,18  L 3,18  L 3,20  L 2,20  L 2,26  L 1,26  L 1,27  L 0,27  L 0,29  L 1,29  L 1,28  L 2,28  L 2,27  L 3,27  L 3,24  L 4,24  L 4,22  L 5,22  L 5,20  L 6,20  L 6,19  L 7,19  L 7,18  L 8,18  L 8,17  L 9,17  L 9,16  L 10,16  L 10,15  L 9,15  L 9,13  Z  " style="fill:rgb(250, 171, 28); fill-opacity:0.749; stroke:none;" />
 <path d="  M 2,3  L 1,3  L 1,6  L 2,6  Z  " style="fill:rgb(250, 171, 28); fill-opacity:0.749; stroke:none;" />
 <path d="  M 6,32  L 6,30  L 7,30  L 7,26  L 8,26  L 8,25  L 9,25  L 9,22  L 10,22  L 10,21  L 11,21  L 11,20  L 12,20  L 12,19  L 14,19  L 14,18  L 17,18  L 17,17  L 22,17  L 22,16  L 23,16  L 23,15  L 24,15  L 24,14  L 26,14  L 26,13  L 27,13  L 27,12  L 22,12  L 22,13  L 20,13  L 20,14  L 17,14  L 17,15  L 15,15  L 15,16  L 14,16  L 14,17  L 12,17  L 12,18  L 10,18  L 10,20  L 9,20  L 9,21  L 8,21  L 8,23  L 7,23  L 7,24  L 6,24  L 6,25  L 5,25  L 5,27  L 4,27  L 4,30  L 3,30  L 3,31  L 2,31  L 2,32  Z  " style="fill:rgb(250, 171, 28); fill-opacity:0.749; stroke:none;" />
 <path d="  M 16,6  L 16,5  L 17,5  L 17,4  L 18,4  L 18,3  L 20,3  L 20,2  L 16,2  L 16,3  L 15,3  L 15,4  L 11,4  L 11,5  L 10,5  L 10,7  L 12,7  L 12,8  L 15,8  L 15,9  L 14,9  L 14,10  L 12,10  L 12,11  L 10,11  L 10,12  L 14,12  L 14,11  L 16,11  L 16,10  L 23,10  L 23,9  L 26,9  L 26,8  L 29,8  L 29,7  L 30,7  L 30,6  L 31,6  L 31,4  L 32,4  L 32,0  L 31,0  L 31,1  L 30,1  L 30,4  L 29,4  L 29,5  L 28,5  L 28,6  L 26,6  L 26,7  L 24,7  L 24,8  L 19,8  L 19,7  L 17,7  L 17,6  Z  " style="fill:rgb(250, 171, 28); fill-opacity:0.749; stroke:none;" />
 <path d="  M 20,2  L 21,2  L 21,1  L 20,1  Z  " style="fill:rgb(250, 171, 28); fill-opacity:0.749; stroke:none;" />
 <path d="  M 22,0  L 22,1  L 23,1  L 23,0  Z  " style="fill:rgb(250, 171, 28); fill-opacity:0.749; stroke:none;" />
 <path d="  M 28,24  L 27,24  L 27,25  L 26,25  L 26,26  L 25,26  L 25,28  L 24,28  L 24,30  L 23,30  L 23,31  L 22,31  L 22,32  L 26,32  L 26,31  L 27,31  L 27,30  L 29,30  L 29,31  L 30,31  L 30,28  L 31,28  L 31,26  L 30,26  L 30,27  L 29,27  L 29,28  L 28,28  L 28,29  L 27,29  L 27,27  L 28,27  L 28,26  L 29,26  L 29,22  L 30,22  L 30,20  L 29,20  L 29,21  L 28,21  Z  " style="fill:rgb(250, 171, 28); fill-opacity:0.749; stroke:none;" />
 <path d="  M 29,12  L 29,11  L 30,11  L 30,10  L 31,10  L 31,9  L 29,9  L 29,10  L 28,10  L 28,11  L 27,11  L 27,12  Z  " style="fill:rgb(250, 171, 28); fill-opacity:0.749; stroke:none;" />
 <path d="  M 31,24  L 31,22  L 30,22  L 30,24  Z  " style="fill:rgb(250, 171, 28); fill-opacity:0.749; stroke:none;" />
 <path d="  M 31,8  L 31,9  L 32,9  L 32,8  Z  " style="fill:rgb(250, 171, 28); fill-opacity:0.749; stroke:none;" />
 <path d="  M 31,29  L 31,32  L 32,32  L 32,29  Z  " style="fill:rgb(250, 171, 28); fill-opacity:0.749; stroke:none;" />
 <path d="  M 4,0  L 4,1  L 3,1  L 3,2  L 2,2  L 2,6  L 1,6  L 1,8  L 0,8  L 0,9  L 1,9  L 1,10  L 2,10  L 2,11  L 1,11  L 1,13  L 0,13  L 0,16  L 1,16  L 1,14  L 2,14  L 2,12  L 3,12  L 3,11  L 4,11  L 4,10  L 8,10  L 8,9  L 10,9  L 10,8  L 11,8  L 11,9  L 12,9  L 12,10  L 14,10  L 14,9  L 15,9  L 15,8  L 12,8  L 12,7  L 10,7  L 10,6  L 9,6  L 9,7  L 8,7  L 8,8  L 6,8  L 6,7  L 5,7  L 5,6  L 4,6  L 4,4  L 5,4  L 5,3  L 6,3  L 6,2  L 8,2  L 8,1  L 9,1  L 9,0  Z  " style="fill:rgb(253, 193, 52); fill-opacity:0.749; stroke:none;" />
 <path d="  M 0,27  L 1,27  L 1,26  L 0,26  Z  " style="fill:rgb(253, 193, 52); fill-opacity:0.749; stroke:none;" />
 <path d="  M 2,22  L 1,22  L 1,26  L 2,26  Z  " style="fill:rgb(253, 193, 52); fill-opacity:0.749; stroke:none;" />
 <path d="  M 24,19  L 24,18  L 25,18  L 25,17  L 26,17  L 26,15  L 27,15  L 27,14  L 28,14  L 28,13  L 29,13  L 29,12  L 27,12  L 27,13  L 26,13  L 26,14  L 24,14  L 24,15  L 23,15  L 23,16  L 22,16  L 22,17  L 17,17  L 17,18  L 14,18  L 14,19  L 12,19  L 12,20  L 11,20  L 11,21  L 10,21  L 10,22  L 9,22  L 9,25  L 8,25  L 8,26  L 7,26  L 7,30  L 6,30  L 6,32  L 8,32  L 8,28  L 9,28  L 9,26  L 10,26  L 10,25  L 11,25  L 11,24  L 12,24  L 12,23  L 14,23  L 14,22  L 16,22  L 16,21  L 18,21  L 18,20  L 20,20  L 20,19  Z  " style="fill:rgb(253, 193, 52); fill-opacity:0.749; stroke:none;" />
 <path d="  M 10,12  L 10,11  L 9,11  L 9,12  Z  " style="fill:rgb(253, 193, 52); fill-opacity:0.749; stroke:none;" />
 <path d="  M 11,5  L 11,4  L 10,4  L 10,5  Z  " style="fill:rgb(253, 193, 52); fill-opacity:0.749; stroke:none;" />
 <path d="  M 10,10  L 10,11  L 12,11  L 12,10  Z  " style="fill:rgb(253, 193, 52); fill-opacity:0.749; stroke:none;" />
 <path d="  M 17,2  L 17,1  L 16,1  L 16,0  L 13,0  L 13,1  L 12,1  L 12,2  L 11,2  L 11,4  L 15,4  L 15,3  L 16,3  L 16,2  Z  " style="fill:rgb(253, 193, 52); fill-opacity:0.749; stroke:none;" />
 <path d="  M 18,4  L 17,4  L 17,5  L 16,5  L 16,6  L 17,6  L 17,7  L 19,7  L 19,8  L 24,8  L 24,7  L 26,7  L 26,6  L 28,6  L 28,5  L 29,5  L 29,4  L 30,4  L 30,2  L 29,2  L 29,3  L 28,3  L 28,4  L 27,4  L 27,5  L 25,5  L 25,6  L 19,6  L 19,5  L 18,5  Z  " style="fill:rgb(253, 193, 52); fill-opacity:0.749; stroke:none;" />
 <path d="  M 18,3  L 18,4  L 20,4  L 20,3  Z  " style="fill:rgb(253, 193, 52); fill-opacity:0.749; stroke:none;" />
 <path d="  M 19,1  L 19,2  L 20,2  L 20,1  Z  " style="fill:rgb(253, 193, 52); fill-opacity:0.749; stroke:none;" />
 <path d="  M 20,2  L 20,3  L 22,3  L 22,2  L 24,2  L 24,1  L 26,1  L 26,0  L 23,0  L 23,1  L 22,1  L 22,0  L 20,0  L 20,1  L 21,1  L 21,2  Z  " style="fill:rgb(253, 193, 52); fill-opacity:0.749; stroke:none;" />
 <path d="  M 30,22  L 31,22  L 31,26  L 32,26  L 32,20  L 31,20  L 31,19  L 30,19  L 30,18  L 31,18  L 31,16  L 32,16  L 32,14  L 31,14  L 31,15  L 30,15  L 30,16  L 29,16  L 29,18  L 28,18  L 28,19  L 27,19  L 27,21  L 26,21  L 26,24  L 24,24  L 24,25  L 23,25  L 23,28  L 22,28  L 22,30  L 21,30  L 21,31  L 20,31  L 20,32  L 22,32  L 22,31  L 23,31  L 23,30  L 24,30  L 24,28  L 25,28  L 25,26  L 26,26  L 26,25  L 27,25  L 27,24  L 28,24  L 28,21  L 29,21  L 29,20  L 30,20  Z  " style="fill:rgb(253, 193, 52); fill-opacity:0.749; stroke:none;" />
 <path d="  M 26,31  L 26,32  L 31,32  L 31,29  L 32,29  L 32,28  L 30,28  L 30,31  L 29,31  L 29,30  L 28,30  L 28,31  Z  " style="fill:rgb(253, 193, 52); fill-opacity:0.749; stroke:none;" />
 <path d="  M 29,0  L 29,1  L 31,1  L 31,0  Z  " style="fill:rgb(253, 193, 52); fill-opacity:0.749; stroke:none;" />
 <path d="  M 29,11  L 29,12  L 30,12  L 30,11  Z  " style="fill:rgb(253, 193, 52); fill-opacity:0.749; stroke:none;" />
 <path d="  M 1,11  L 2,11  L 2,10  L 1,10  L 1,9  L 0,9  L 0,13  L 1,13  Z  " style="fill:rgb(255, 206, 93); fill-opacity:0.749; stroke:none;" />
 <path d="  M 4,16  L 5,16  L 5,14  L 6,14  L 6,13  L 7,13  L 7,12  L 9,12  L 9,11  L 10,11  L 10,10  L 12,10  L 12,9  L 11,9  L 11,8  L 10,8  L 10,9  L 8,9  L 8,10  L 4,10  L 4,11  L 3,11  L 3,12  L 2,12  L 2,14  L 1,14  L 1,16  L 0,16  L 0,26  L 1,26  L 1,22  L 2,22  L 2,20  L 3,20  L 3,18  L 4,18  Z  " style="fill:rgb(255, 206, 93); fill-opacity:0.749; stroke:none;" />
 <path d="  M 9,1  L 8,1  L 8,2  L 6,2  L 6,3  L 5,3  L 5,4  L 4,4  L 4,6  L 5,6  L 5,7  L 6,7  L 6,8  L 8,8  L 8,7  L 9,7  L 9,6  L 10,6  L 10,4  L 11,4  L 11,2  L 10,2  L 10,3  L 9,3  Z  M 8,4  L 8,3  L 9,3  L 9,4  Z  " style="fill:rgb(255, 206, 93); fill-opacity:0.749; stroke:none;" />
 <path d="  M 29,12  L 29,13  L 28,13  L 28,14  L 27,14  L 27,15  L 26,15  L 26,17  L 25,17  L 25,18  L 24,18  L 24,19  L 20,19  L 20,20  L 18,20  L 18,21  L 16,21  L 16,22  L 14,22  L 14,23  L 12,23  L 12,24  L 11,24  L 11,25  L 10,25  L 10,26  L 9,26  L 9,28  L 8,28  L 8,31  L 9,31  L 9,30  L 10,30  L 10,28  L 11,28  L 11,26  L 12,26  L 12,25  L 13,25  L 13,24  L 15,24  L 15,23  L 17,23  L 17,22  L 20,22  L 20,23  L 22,23  L 22,24  L 20,24  L 20,25  L 21,25  L 21,26  L 22,26  L 22,27  L 21,27  L 21,28  L 20,28  L 20,31  L 21,31  L 21,30  L 22,30  L 22,28  L 23,28  L 23,25  L 24,25  L 24,24  L 26,24  L 26,21  L 27,21  L 27,19  L 28,19  L 28,18  L 29,18  L 29,16  L 30,16  L 30,15  L 31,15  L 31,14  L 32,14  L 32,9  L 31,9  L 31,10  L 30,10  L 30,12  Z  " style="fill:rgb(255, 206, 93); fill-opacity:0.749; stroke:none;" />
 <path d="  M 10,1  L 10,0  L 9,0  L 9,1  Z  " style="fill:rgb(255, 206, 93); fill-opacity:0.749; stroke:none;" />
 <path d="  M 13,1  L 13,0  L 11,0  L 11,2  L 12,2  L 12,1  Z  " style="fill:rgb(255, 206, 93); fill-opacity:0.749; stroke:none;" />
 <path d="  M 17,26  L 17,27  L 16,27  L 16,28  L 15,28  L 15,29  L 14,29  L 14,30  L 13,30  L 13,31  L 12,31  L 12,32  L 18,32  L 18,31  L 19,31  L 19,29  L 18,29  L 18,28  L 19,28  L 19,26  Z  " style="fill:rgb(255, 206, 93); fill-opacity:0.749; stroke:none;" />
 <path d="  M 16,0  L 16,1  L 17,1  L 17,2  L 19,2  L 19,1  L 20,1  L 20,0  Z  " style="fill:rgb(255, 206, 93); fill-opacity:0.749; stroke:none;" />
 <path d="  M 21,5  L 20,5  L 20,4  L 18,4  L 18,5  L 19,5  L 19,6  L 21,6  Z  " style="fill:rgb(255, 206, 93); fill-opacity:0.749; stroke:none;" />
 <path d="  M 22,2  L 22,3  L 20,3  L 20,4  L 23,4  L 23,3  L 24,3  L 24,2  Z  " style="fill:rgb(255, 206, 93); fill-opacity:0.749; stroke:none;" />
 <path d="  M 25,6  L 25,5  L 23,5  L 23,6  Z  " style="fill:rgb(255, 206, 93); fill-opacity:0.749; stroke:none;" />
 <path d="  M 24,1  L 24,2  L 25,2  L 25,1  Z  " style="fill:rgb(255, 206, 93); fill-opacity:0.749; stroke:none;" />
 <path d="  M 28,3  L 29,3  L 29,2  L 30,2  L 30,1  L 29,1  L 29,0  L 27,0  L 27,1  L 28,1  L 28,2  L 27,2  L 27,3  L 26,3  L 26,4  L 25,4  L 25,5  L 27,5  L 27,4  L 28,4  Z  " style="fill:rgb(255, 206, 93); fill-opacity:0.749; stroke:none;" />
 <path d="  M 30,19  L 31,19  L 31,20  L 32,20  L 32,16  L 31,16  L 31,18  L 30,18  Z  " style="fill:rgb(255, 206, 93); fill-opacity:0.749; stroke:none;" />
 <path d="  M 31,28  L 32,28  L 32,26  L 31,26  Z  " style="fill:rgb(255, 206, 93); fill-opacity:0.749; stroke:none;" />
 <path d="  M 8,3  L 8,4  L 9,4  L 9,3  Z  " style="fill:rgb(246, 219, 112); fill-opacity:0.749; stroke:none;" />
 <path d="  M 11,28  L 10,28  L 10,30  L 9,30  L 9,31  L 8,31  L 8,32  L 12,32  L 12,31  L 13,31  L 13,30  L 14,30  L 14,29  L 15,29  L 15,28  L 13,28  L 13,27  L 12,27  L 12,26  L 11,26  Z  " style="fill:rgb(246, 219, 112); fill-opacity:0.749; stroke:none;" />
 <path d="  M 9,3  L 10,3  L 10,2  L 11,2  L 11,0  L 10,0  L 10,1  L 9,1  Z  " style="fill:rgb(246, 219, 112); fill-opacity:0.749; stroke:none;" />
 <path d="  M 13,25  L 12,25  L 12,26  L 14,26  L 14,25  L 15,25  L 15,24  L 13,24  Z  " style="fill:rgb(246, 219, 112); fill-opacity:0.749; stroke:none;" />
 <path d="  M 19,31  L 18,31  L 18,32  L 20,32  L 20,28  L 21,28  L 21,27  L 22,27  L 22,26  L 21,26  L 21,25  L 20,25  L 20,24  L 22,24  L 22,23  L 20,23  L 20,22  L 17,22  L 17,23  L 15,23  L 15,24  L 17,24  L 17,25  L 18,25  L 18,26  L 19,26  L 19,28  L 18,28  L 18,29  L 19,29  Z  " style="fill:rgb(246, 219, 112); fill-opacity:0.749; stroke:none;" />
 <path d="  M 16,27  L 15,27  L 15,28  L 16,28  Z  " style="fill:rgb(246, 219, 112); fill-opacity:0.749; stroke:none;" />
 <path d="  M 16,26  L 16,27  L 17,27  L 17,26  Z  " style="fill:rgb(246, 219, 112); fill-opacity:0.749; stroke:none;" />
 <path d="  M 25,1  L 25,2  L 26,2  L 26,3  L 27,3  L 27,2  L 28,2  L 28,1  L 27,1  L 27,0  L 26,0  L 26,1  Z  " style="fill:rgb(246, 219, 112); fill-opacity:0.749; stroke:none;" />
 <path d="  M 26,4  L 26,3  L 25,3  L 25,4  Z  " style="fill:rgb(246, 219, 112); fill-opacity:0.749; stroke:none;" />
 <path d="  M 15,28  L 15,27  L 16,27  L 16,26  L 18,26  L 18,25  L 17,25  L 17,24  L 15,24  L 15,25  L 14,25  L 14,26  L 12,26  L 12,27  L 13,27  L 13,28  Z  " style="fill:rgb(248, 227, 138); fill-opacity:0.749; stroke:none;" />
 <path d="  M 24,2  L 24,3  L 23,3  L 23,4  L 20,4  L 20,5  L 21,5  L 21,6  L 23,6  L 23,5  L 25,5  L 25,3  L 26,3  L 26,2  Z  " style="fill:rgb(248, 227, 138); fill-opacity:0.749; stroke:none;" />
</svg>
