<?xml version="1.0" encoding="UTF-8" standalone="no"?>
<!DOCTYPE svg PUBLIC "-//W3C//DTD SVG 1.1//EN" 
  "http://www.w3.org/Graphics/SVG/1.1/DTD/svg11.dtd">
<svg width="32" height="32"
	 xmlns="http://www.w3.org/2000/svg" version="1.1">
 <path d="  M 1,1  L 1,0  L 0,0  L 0,1  Z  " style="fill:rgb(50, 45, 38); fill-opacity:1.000; stroke:none;" />
 <path d="  M 0,32  L 1,32  L 1,31  L 0,31  Z  " style="fill:rgb(50, 45, 38); fill-opacity:1.000; stroke:none;" />
 <path d="  M 2,2  L 2,1  L 1,1  L 1,2  Z  " style="fill:rgb(50, 45, 38); fill-opacity:1.000; stroke:none;" />
 <path d="  M 2,31  L 2,30  L 1,30  L 1,31  Z  " style="fill:rgb(50, 45, 38); fill-opacity:1.000; stroke:none;" />
 <path d="  M 12,30  L 12,32  L 13,32  L 13,30  Z  " style="fill:rgb(50, 45, 38); fill-opacity:1.000; stroke:none;" />
 <path d="  M 29,32  L 29,30  L 28,30  L 28,32  Z  " style="fill:rgb(50, 45, 38); fill-opacity:1.000; stroke:none;" />
 <path d="  M 31,2  L 31,1  L 30,1  L 30,2  Z  " style="fill:rgb(50, 45, 38); fill-opacity:1.000; stroke:none;" />
 <path d="  M 31,31  L 31,30  L 30,30  L 30,31  Z  " style="fill:rgb(50, 45, 38); fill-opacity:1.000; stroke:none;" />
 <path d="  M 31,1  L 32,1  L 32,0  L 31,0  Z  " style="fill:rgb(50, 45, 38); fill-opacity:1.000; stroke:none;" />
 <path d="  M 32,31  L 31,31  L 31,32  L 32,32  Z  " style="fill:rgb(50, 45, 38); fill-opacity:1.000; stroke:none;" />
 <path d="  M 0,3  L 2,3  L 2,2  L 1,2  L 1,1  L 0,1  Z  " style="fill:rgb(55, 49, 39); fill-opacity:1.000; stroke:none;" />
 <path d="  M 2,4  L 0,4  L 0,5  L 2,5  Z  " style="fill:rgb(55, 49, 39); fill-opacity:1.000; stroke:none;" />
 <path d="  M 0,6  L 0,7  L 2,7  L 2,6  Z  " style="fill:rgb(55, 49, 39); fill-opacity:1.000; stroke:none;" />
 <path d="  M 0,8  L 0,9  L 2,9  L 2,8  Z  " style="fill:rgb(55, 49, 39); fill-opacity:1.000; stroke:none;" />
 <path d="  M 2,11  L 2,10  L 0,10  L 0,11  Z  " style="fill:rgb(55, 49, 39); fill-opacity:1.000; stroke:none;" />
 <path d="  M 0,13  L 2,13  L 2,12  L 0,12  Z  " style="fill:rgb(55, 49, 39); fill-opacity:1.000; stroke:none;" />
 <path d="  M 2,19  L 2,14  L 0,14  L 0,19  Z  " style="fill:rgb(55, 49, 39); fill-opacity:1.000; stroke:none;" />
 <path d="  M 0,20  L 0,21  L 2,21  L 2,20  Z  " style="fill:rgb(55, 49, 39); fill-opacity:1.000; stroke:none;" />
 <path d="  M 2,22  L 0,22  L 0,23  L 2,23  Z  " style="fill:rgb(55, 49, 39); fill-opacity:1.000; stroke:none;" />
 <path d="  M 2,24  L 0,24  L 0,25  L 2,25  Z  " style="fill:rgb(55, 49, 39); fill-opacity:1.000; stroke:none;" />
 <path d="  M 2,27  L 2,26  L 0,26  L 0,27  Z  " style="fill:rgb(55, 49, 39); fill-opacity:1.000; stroke:none;" />
 <path d="  M 0,29  L 2,29  L 2,28  L 0,28  Z  " style="fill:rgb(55, 49, 39); fill-opacity:1.000; stroke:none;" />
 <path d="  M 1,31  L 1,30  L 0,30  L 0,31  Z  " style="fill:rgb(55, 49, 39); fill-opacity:1.000; stroke:none;" />
 <path d="  M 5,0  L 5,2  L 7,2  L 7,0  Z  " style="fill:rgb(55, 49, 39); fill-opacity:1.000; stroke:none;" />
 <path d="  M 18,2  L 18,0  L 9,0  L 9,2  Z  " style="fill:rgb(55, 49, 39); fill-opacity:1.000; stroke:none;" />
 <path d="  M 18,32  L 18,30  L 15,30  L 15,32  Z  " style="fill:rgb(55, 49, 39); fill-opacity:1.000; stroke:none;" />
 <path d="  M 23,2  L 23,0  L 21,0  L 21,2  Z  " style="fill:rgb(55, 49, 39); fill-opacity:1.000; stroke:none;" />
 <path d="  M 30,2  L 30,1  L 31,1  L 31,0  L 25,0  L 25,2  Z  " style="fill:rgb(55, 49, 39); fill-opacity:1.000; stroke:none;" />
 <path d="  M 32,5  L 32,4  L 30,4  L 30,5  Z  " style="fill:rgb(55, 49, 39); fill-opacity:1.000; stroke:none;" />
 <path d="  M 32,7  L 32,6  L 30,6  L 30,7  Z  " style="fill:rgb(55, 49, 39); fill-opacity:1.000; stroke:none;" />
 <path d="  M 30,12  L 30,13  L 32,13  L 32,12  Z  " style="fill:rgb(55, 49, 39); fill-opacity:1.000; stroke:none;" />
 <path d="  M 32,15  L 32,14  L 30,14  L 30,15  Z  " style="fill:rgb(55, 49, 39); fill-opacity:1.000; stroke:none;" />
 <path d="  M 32,16  L 30,16  L 30,18  L 32,18  Z  " style="fill:rgb(55, 49, 39); fill-opacity:1.000; stroke:none;" />
 <path d="  M 30,20  L 30,21  L 32,21  L 32,20  Z  " style="fill:rgb(55, 49, 39); fill-opacity:1.000; stroke:none;" />
 <path d="  M 30,23  L 32,23  L 32,22  L 30,22  Z  " style="fill:rgb(55, 49, 39); fill-opacity:1.000; stroke:none;" />
 <path d="  M 30,28  L 30,29  L 32,29  L 32,28  Z  " style="fill:rgb(55, 49, 39); fill-opacity:1.000; stroke:none;" />
 <path d="  M 31,30  L 31,31  L 32,31  L 32,30  Z  " style="fill:rgb(55, 49, 39); fill-opacity:1.000; stroke:none;" />
 <path d="  M 2,4  L 2,3  L 0,3  L 0,4  Z  " style="fill:rgb(53, 47, 38); fill-opacity:1.000; stroke:none;" />
 <path d="  M 2,19  L 0,19  L 0,20  L 2,20  Z  " style="fill:rgb(53, 47, 38); fill-opacity:1.000; stroke:none;" />
 <path d="  M 6,32  L 6,30  L 4,30  L 4,32  Z  " style="fill:rgb(53, 47, 38); fill-opacity:1.000; stroke:none;" />
 <path d="  M 8,32  L 8,30  L 7,30  L 7,32  Z  " style="fill:rgb(53, 47, 38); fill-opacity:1.000; stroke:none;" />
 <path d="  M 11,32  L 12,32  L 12,30  L 11,30  Z  " style="fill:rgb(53, 47, 38); fill-opacity:1.000; stroke:none;" />
 <path d="  M 15,32  L 15,30  L 13,30  L 13,32  Z  " style="fill:rgb(53, 47, 38); fill-opacity:1.000; stroke:none;" />
 <path d="  M 22,30  L 20,30  L 20,32  L 22,32  Z  " style="fill:rgb(53, 47, 38); fill-opacity:1.000; stroke:none;" />
 <path d="  M 23,32  L 24,32  L 24,30  L 23,30  Z  " style="fill:rgb(53, 47, 38); fill-opacity:1.000; stroke:none;" />
 <path d="  M 28,30  L 27,30  L 27,32  L 28,32  Z  " style="fill:rgb(53, 47, 38); fill-opacity:1.000; stroke:none;" />
 <path d="  M 29,32  L 31,32  L 31,31  L 30,31  L 30,30  L 29,30  Z  " style="fill:rgb(53, 47, 38); fill-opacity:1.000; stroke:none;" />
 <path d="  M 2,5  L 0,5  L 0,6  L 2,6  Z  " style="fill:rgb(51, 46, 37); fill-opacity:1.000; stroke:none;" />
 <path d="  M 0,10  L 2,10  L 2,9  L 0,9  Z  " style="fill:rgb(51, 46, 37); fill-opacity:1.000; stroke:none;" />
 <path d="  M 2,22  L 2,21  L 0,21  L 0,22  Z  " style="fill:rgb(51, 46, 37); fill-opacity:1.000; stroke:none;" />
 <path d="  M 2,26  L 2,25  L 0,25  L 0,26  Z  " style="fill:rgb(51, 46, 37); fill-opacity:1.000; stroke:none;" />
 <path d="  M 1,1  L 2,1  L 2,2  L 5,2  L 5,0  L 1,0  Z  " style="fill:rgb(51, 46, 37); fill-opacity:1.000; stroke:none;" />
 <path d="  M 9,2  L 9,0  L 8,0  L 8,2  Z  " style="fill:rgb(51, 46, 37); fill-opacity:1.000; stroke:none;" />
 <path d="  M 21,2  L 21,0  L 18,0  L 18,2  Z  " style="fill:rgb(51, 46, 37); fill-opacity:1.000; stroke:none;" />
 <path d="  M 24,2  L 25,2  L 25,0  L 24,0  Z  " style="fill:rgb(51, 46, 37); fill-opacity:1.000; stroke:none;" />
 <path d="  M 30,2  L 30,3  L 32,3  L 32,1  L 31,1  L 31,2  Z  " style="fill:rgb(51, 46, 37); fill-opacity:1.000; stroke:none;" />
 <path d="  M 30,5  L 30,6  L 32,6  L 32,5  Z  " style="fill:rgb(51, 46, 37); fill-opacity:1.000; stroke:none;" />
 <path d="  M 32,8  L 30,8  L 30,11  L 32,11  Z  " style="fill:rgb(51, 46, 37); fill-opacity:1.000; stroke:none;" />
 <path d="  M 32,16  L 32,15  L 30,15  L 30,16  Z  " style="fill:rgb(51, 46, 37); fill-opacity:1.000; stroke:none;" />
 <path d="  M 30,19  L 32,19  L 32,18  L 30,18  Z  " style="fill:rgb(51, 46, 37); fill-opacity:1.000; stroke:none;" />
 <path d="  M 30,22  L 32,22  L 32,21  L 30,21  Z  " style="fill:rgb(51, 46, 37); fill-opacity:1.000; stroke:none;" />
 <path d="  M 30,24  L 30,27  L 32,27  L 32,24  Z  " style="fill:rgb(51, 46, 37); fill-opacity:1.000; stroke:none;" />
 <path d="  M 0,8  L 2,8  L 2,7  L 0,7  Z  " style="fill:rgb(54, 47, 37); fill-opacity:1.000; stroke:none;" />
 <path d="  M 2,11  L 0,11  L 0,12  L 2,12  Z  " style="fill:rgb(54, 47, 37); fill-opacity:1.000; stroke:none;" />
 <path d="  M 2,24  L 2,23  L 0,23  L 0,24  Z  " style="fill:rgb(54, 47, 37); fill-opacity:1.000; stroke:none;" />
 <path d="  M 2,27  L 0,27  L 0,28  L 2,28  Z  " style="fill:rgb(54, 47, 37); fill-opacity:1.000; stroke:none;" />
 <path d="  M 3,30  L 2,30  L 2,31  L 1,31  L 1,32  L 3,32  Z  " style="fill:rgb(54, 47, 37); fill-opacity:1.000; stroke:none;" />
 <path d="  M 11,32  L 11,30  L 8,30  L 8,32  Z  " style="fill:rgb(54, 47, 37); fill-opacity:1.000; stroke:none;" />
 <path d="  M 18,30  L 18,32  L 19,32  L 19,30  Z  " style="fill:rgb(54, 47, 37); fill-opacity:1.000; stroke:none;" />
 <path d="  M 27,30  L 24,30  L 24,32  L 27,32  Z  " style="fill:rgb(54, 47, 37); fill-opacity:1.000; stroke:none;" />
 <path d="  M 30,3  L 30,4  L 32,4  L 32,3  Z  " style="fill:rgb(54, 47, 37); fill-opacity:1.000; stroke:none;" />
 <path d="  M 30,7  L 30,8  L 32,8  L 32,7  Z  " style="fill:rgb(54, 47, 37); fill-opacity:1.000; stroke:none;" />
 <path d="  M 32,11  L 30,11  L 30,12  L 32,12  Z  " style="fill:rgb(54, 47, 37); fill-opacity:1.000; stroke:none;" />
 <path d="  M 32,19  L 30,19  L 30,20  L 32,20  Z  " style="fill:rgb(54, 47, 37); fill-opacity:1.000; stroke:none;" />
 <path d="  M 32,23  L 30,23  L 30,24  L 32,24  Z  " style="fill:rgb(54, 47, 37); fill-opacity:1.000; stroke:none;" />
 <path d="  M 30,27  L 30,28  L 32,28  L 32,27  Z  " style="fill:rgb(54, 47, 37); fill-opacity:1.000; stroke:none;" />
 <path d="  M 2,13  L 0,13  L 0,14  L 2,14  Z  " style="fill:rgb(54, 48, 38); fill-opacity:1.000; stroke:none;" />
 <path d="  M 2,30  L 2,29  L 0,29  L 0,30  Z  " style="fill:rgb(54, 48, 38); fill-opacity:1.000; stroke:none;" />
 <path d="  M 7,2  L 8,2  L 8,0  L 7,0  Z  " style="fill:rgb(54, 48, 38); fill-opacity:1.000; stroke:none;" />
 <path d="  M 24,2  L 24,0  L 23,0  L 23,2  Z  " style="fill:rgb(54, 48, 38); fill-opacity:1.000; stroke:none;" />
 <path d="  M 30,13  L 30,14  L 32,14  L 32,13  Z  " style="fill:rgb(54, 48, 38); fill-opacity:1.000; stroke:none;" />
 <path d="  M 32,30  L 32,29  L 30,29  L 30,30  Z  " style="fill:rgb(54, 48, 38); fill-opacity:1.000; stroke:none;" />
 <path d="  M 2,4  L 3,4  L 3,3  L 4,3  L 4,2  L 2,2  Z  " style="fill:rgb(134, 73, 45); fill-opacity:1.000; stroke:none;" />
 <path d="  M 2,6  L 2,7  L 3,7  L 3,6  Z  " style="fill:rgb(134, 73, 45); fill-opacity:1.000; stroke:none;" />
 <path d="  M 2,8  L 2,9  L 3,9  L 3,8  Z  " style="fill:rgb(134, 73, 45); fill-opacity:1.000; stroke:none;" />
 <path d="  M 3,13  L 3,11  L 2,11  L 2,13  Z  " style="fill:rgb(134, 73, 45); fill-opacity:1.000; stroke:none;" />
 <path d="  M 3,14  L 2,14  L 2,15  L 3,15  Z  " style="fill:rgb(134, 73, 45); fill-opacity:1.000; stroke:none;" />
 <path d="  M 2,19  L 3,19  L 3,17  L 2,17  Z  " style="fill:rgb(134, 73, 45); fill-opacity:1.000; stroke:none;" />
 <path d="  M 2,23  L 3,23  L 3,22  L 2,22  Z  " style="fill:rgb(134, 73, 45); fill-opacity:1.000; stroke:none;" />
 <path d="  M 3,25  L 3,24  L 2,24  L 2,25  Z  " style="fill:rgb(134, 73, 45); fill-opacity:1.000; stroke:none;" />
 <path d="  M 2,29  L 3,29  L 3,27  L 2,27  Z  " style="fill:rgb(134, 73, 45); fill-opacity:1.000; stroke:none;" />
 <path d="  M 6,30  L 6,29  L 4,29  L 4,30  Z  " style="fill:rgb(134, 73, 45); fill-opacity:1.000; stroke:none;" />
 <path d="  M 12,30  L 12,29  L 10,29  L 10,30  Z  " style="fill:rgb(134, 73, 45); fill-opacity:1.000; stroke:none;" />
 <path d="  M 13,29  L 13,30  L 15,30  L 15,29  Z  " style="fill:rgb(134, 73, 45); fill-opacity:1.000; stroke:none;" />
 <path d="  M 18,30  L 18,29  L 16,29  L 16,30  Z  " style="fill:rgb(134, 73, 45); fill-opacity:1.000; stroke:none;" />
 <path d="  M 18,3  L 20,3  L 20,2  L 18,2  Z  " style="fill:rgb(134, 73, 45); fill-opacity:1.000; stroke:none;" />
 <path d="  M 26,3  L 26,2  L 24,2  L 24,3  Z  " style="fill:rgb(134, 73, 45); fill-opacity:1.000; stroke:none;" />
 <path d="  M 29,3  L 29,5  L 30,5  L 30,3  Z  " style="fill:rgb(134, 73, 45); fill-opacity:1.000; stroke:none;" />
 <path d="  M 30,6  L 29,6  L 29,7  L 30,7  Z  " style="fill:rgb(134, 73, 45); fill-opacity:1.000; stroke:none;" />
 <path d="  M 29,8  L 29,9  L 30,9  L 30,8  Z  " style="fill:rgb(134, 73, 45); fill-opacity:1.000; stroke:none;" />
 <path d="  M 30,12  L 29,12  L 29,13  L 30,13  Z  " style="fill:rgb(134, 73, 45); fill-opacity:1.000; stroke:none;" />
 <path d="  M 30,15  L 30,14  L 29,14  L 29,15  Z  " style="fill:rgb(134, 73, 45); fill-opacity:1.000; stroke:none;" />
 <path d="  M 30,16  L 29,16  L 29,17  L 30,17  Z  " style="fill:rgb(134, 73, 45); fill-opacity:1.000; stroke:none;" />
 <path d="  M 29,21  L 30,21  L 30,20  L 29,20  Z  " style="fill:rgb(134, 73, 45); fill-opacity:1.000; stroke:none;" />
 <path d="  M 29,22  L 29,23  L 30,23  L 30,22  Z  " style="fill:rgb(134, 73, 45); fill-opacity:1.000; stroke:none;" />
 <path d="  M 29,25  L 30,25  L 30,24  L 29,24  Z  " style="fill:rgb(134, 73, 45); fill-opacity:1.000; stroke:none;" />
 <path d="  M 3,4  L 2,4  L 2,6  L 3,6  Z  " style="fill:rgb(115, 64, 40); fill-opacity:1.000; stroke:none;" />
 <path d="  M 3,7  L 2,7  L 2,8  L 3,8  Z  " style="fill:rgb(115, 64, 40); fill-opacity:1.000; stroke:none;" />
 <path d="  M 3,10  L 3,9  L 2,9  L 2,10  Z  " style="fill:rgb(115, 64, 40); fill-opacity:1.000; stroke:none;" />
 <path d="  M 2,14  L 3,14  L 3,13  L 2,13  Z  " style="fill:rgb(115, 64, 40); fill-opacity:1.000; stroke:none;" />
 <path d="  M 3,17  L 3,15  L 2,15  L 2,17  Z  " style="fill:rgb(115, 64, 40); fill-opacity:1.000; stroke:none;" />
 <path d="  M 2,21  L 3,21  L 3,20  L 2,20  Z  " style="fill:rgb(115, 64, 40); fill-opacity:1.000; stroke:none;" />
 <path d="  M 2,23  L 2,24  L 3,24  L 3,23  Z  " style="fill:rgb(115, 64, 40); fill-opacity:1.000; stroke:none;" />
 <path d="  M 3,25  L 2,25  L 2,26  L 3,26  Z  " style="fill:rgb(115, 64, 40); fill-opacity:1.000; stroke:none;" />
 <path d="  M 4,29  L 2,29  L 2,30  L 4,30  Z  " style="fill:rgb(115, 64, 40); fill-opacity:1.000; stroke:none;" />
 <path d="  M 4,17  L 3,17  L 3,18  L 4,18  Z  " style="fill:rgb(115, 64, 40); fill-opacity:1.000; stroke:none;" />
 <path d="  M 12,3  L 12,2  L 4,2  L 4,3  Z  " style="fill:rgb(115, 64, 40); fill-opacity:1.000; stroke:none;" />
 <path d="  M 4,28  L 4,29  L 5,29  L 5,28  Z  " style="fill:rgb(115, 64, 40); fill-opacity:1.000; stroke:none;" />
 <path d="  M 5,5  L 5,6  L 6,6  L 6,5  Z  " style="fill:rgb(115, 64, 40); fill-opacity:1.000; stroke:none;" />
 <path d="  M 6,14  L 6,13  L 5,13  L 5,14  Z  " style="fill:rgb(115, 64, 40); fill-opacity:1.000; stroke:none;" />
 <path d="  M 8,20  L 7,20  L 7,21  L 8,21  Z  " style="fill:rgb(115, 64, 40); fill-opacity:1.000; stroke:none;" />
 <path d="  M 8,27  L 9,27  L 9,26  L 8,26  Z  " style="fill:rgb(115, 64, 40); fill-opacity:1.000; stroke:none;" />
 <path d="  M 13,29  L 12,29  L 12,30  L 13,30  Z  " style="fill:rgb(115, 64, 40); fill-opacity:1.000; stroke:none;" />
 <path d="  M 16,30  L 16,29  L 15,29  L 15,30  Z  " style="fill:rgb(115, 64, 40); fill-opacity:1.000; stroke:none;" />
 <path d="  M 18,2  L 17,2  L 17,3  L 18,3  Z  " style="fill:rgb(115, 64, 40); fill-opacity:1.000; stroke:none;" />
 <path d="  M 18,29  L 18,30  L 19,30  L 19,29  Z  " style="fill:rgb(115, 64, 40); fill-opacity:1.000; stroke:none;" />
 <path d="  M 20,27  L 21,27  L 21,26  L 20,26  Z  " style="fill:rgb(115, 64, 40); fill-opacity:1.000; stroke:none;" />
 <path d="  M 22,6  L 21,6  L 21,7  L 22,7  Z  " style="fill:rgb(115, 64, 40); fill-opacity:1.000; stroke:none;" />
 <path d="  M 29,30  L 29,29  L 22,29  L 22,30  Z  " style="fill:rgb(115, 64, 40); fill-opacity:1.000; stroke:none;" />
 <path d="  M 23,4  L 23,5  L 24,5  L 24,4  Z  " style="fill:rgb(115, 64, 40); fill-opacity:1.000; stroke:none;" />
 <path d="  M 23,9  L 23,10  L 24,10  L 24,9  Z  " style="fill:rgb(115, 64, 40); fill-opacity:1.000; stroke:none;" />
 <path d="  M 25,22  L 26,22  L 26,21  L 25,21  Z  " style="fill:rgb(115, 64, 40); fill-opacity:1.000; stroke:none;" />
 <path d="  M 30,3  L 30,2  L 26,2  L 26,3  Z  " style="fill:rgb(115, 64, 40); fill-opacity:1.000; stroke:none;" />
 <path d="  M 28,27  L 29,27  L 29,26  L 28,26  Z  " style="fill:rgb(115, 64, 40); fill-opacity:1.000; stroke:none;" />
 <path d="  M 29,5  L 29,6  L 30,6  L 30,5  Z  " style="fill:rgb(115, 64, 40); fill-opacity:1.000; stroke:none;" />
 <path d="  M 29,8  L 30,8  L 30,7  L 29,7  Z  " style="fill:rgb(115, 64, 40); fill-opacity:1.000; stroke:none;" />
 <path d="  M 30,10  L 30,9  L 29,9  L 29,10  Z  " style="fill:rgb(115, 64, 40); fill-opacity:1.000; stroke:none;" />
 <path d="  M 29,11  L 29,12  L 30,12  L 30,11  Z  " style="fill:rgb(115, 64, 40); fill-opacity:1.000; stroke:none;" />
 <path d="  M 30,15  L 29,15  L 29,16  L 30,16  Z  " style="fill:rgb(115, 64, 40); fill-opacity:1.000; stroke:none;" />
 <path d="  M 29,18  L 29,19  L 30,19  L 30,18  Z  " style="fill:rgb(115, 64, 40); fill-opacity:1.000; stroke:none;" />
 <path d="  M 29,21  L 29,22  L 30,22  L 30,21  Z  " style="fill:rgb(115, 64, 40); fill-opacity:1.000; stroke:none;" />
 <path d="  M 29,23  L 29,24  L 30,24  L 30,23  Z  " style="fill:rgb(115, 64, 40); fill-opacity:1.000; stroke:none;" />
 <path d="  M 29,25  L 29,26  L 30,26  L 30,25  Z  " style="fill:rgb(115, 64, 40); fill-opacity:1.000; stroke:none;" />
 <path d="  M 29,28  L 29,29  L 30,29  L 30,28  Z  " style="fill:rgb(115, 64, 40); fill-opacity:1.000; stroke:none;" />
 <path d="  M 3,10  L 2,10  L 2,11  L 3,11  Z  " style="fill:rgb(129, 71, 44); fill-opacity:1.000; stroke:none;" />
 <path d="  M 2,20  L 3,20  L 3,19  L 2,19  Z  " style="fill:rgb(129, 71, 44); fill-opacity:1.000; stroke:none;" />
 <path d="  M 3,21  L 2,21  L 2,22  L 3,22  Z  " style="fill:rgb(129, 71, 44); fill-opacity:1.000; stroke:none;" />
 <path d="  M 2,26  L 2,27  L 3,27  L 3,26  Z  " style="fill:rgb(129, 71, 44); fill-opacity:1.000; stroke:none;" />
 <path d="  M 10,30  L 10,29  L 6,29  L 6,30  Z  " style="fill:rgb(129, 71, 44); fill-opacity:1.000; stroke:none;" />
 <path d="  M 12,2  L 12,3  L 17,3  L 17,2  Z  " style="fill:rgb(129, 71, 44); fill-opacity:1.000; stroke:none;" />
 <path d="  M 19,29  L 19,30  L 22,30  L 22,29  Z  " style="fill:rgb(129, 71, 44); fill-opacity:1.000; stroke:none;" />
 <path d="  M 20,2  L 20,3  L 24,3  L 24,2  Z  " style="fill:rgb(129, 71, 44); fill-opacity:1.000; stroke:none;" />
 <path d="  M 29,11  L 30,11  L 30,10  L 29,10  Z  " style="fill:rgb(129, 71, 44); fill-opacity:1.000; stroke:none;" />
 <path d="  M 29,13  L 29,14  L 30,14  L 30,13  Z  " style="fill:rgb(129, 71, 44); fill-opacity:1.000; stroke:none;" />
 <path d="  M 29,18  L 30,18  L 30,17  L 29,17  Z  " style="fill:rgb(129, 71, 44); fill-opacity:1.000; stroke:none;" />
 <path d="  M 29,19  L 29,20  L 30,20  L 30,19  Z  " style="fill:rgb(129, 71, 44); fill-opacity:1.000; stroke:none;" />
 <path d="  M 29,26  L 29,28  L 30,28  L 30,26  Z  " style="fill:rgb(129, 71, 44); fill-opacity:1.000; stroke:none;" />
 <path d="  M 29,30  L 30,30  L 30,29  L 29,29  Z  " style="fill:rgb(129, 71, 44); fill-opacity:1.000; stroke:none;" />
 <path d="  M 3,3  L 3,4  L 9,4  L 9,5  L 11,5  L 11,4  L 16,4  L 16,5  L 18,5  L 18,4  L 29,4  L 29,3  Z  " style="fill:rgb(148, 81, 50); fill-opacity:1.000; stroke:none;" />
 <path d="  M 3,6  L 3,7  L 6,7  L 6,6  Z  " style="fill:rgb(148, 81, 50); fill-opacity:1.000; stroke:none;" />
 <path d="  M 10,8  L 3,8  L 3,9  L 10,9  Z  " style="fill:rgb(148, 81, 50); fill-opacity:1.000; stroke:none;" />
 <path d="  M 6,13  L 6,14  L 7,14  L 7,12  L 5,12  L 5,11  L 3,11  L 3,13  Z  " style="fill:rgb(148, 81, 50); fill-opacity:1.000; stroke:none;" />
 <path d="  M 3,15  L 4,15  L 4,14  L 3,14  Z  " style="fill:rgb(148, 81, 50); fill-opacity:1.000; stroke:none;" />
 <path d="  M 3,19  L 4,19  L 4,18  L 3,18  Z  " style="fill:rgb(148, 81, 50); fill-opacity:1.000; stroke:none;" />
 <path d="  M 3,22  L 3,23  L 6,23  L 6,22  Z  " style="fill:rgb(148, 81, 50); fill-opacity:1.000; stroke:none;" />
 <path d="  M 10,25  L 10,24  L 3,24  L 3,25  Z  " style="fill:rgb(148, 81, 50); fill-opacity:1.000; stroke:none;" />
 <path d="  M 3,29  L 4,29  L 4,28  L 3,28  Z  " style="fill:rgb(148, 81, 50); fill-opacity:1.000; stroke:none;" />
 <path d="  M 7,20  L 7,19  L 5,19  L 5,20  Z  " style="fill:rgb(148, 81, 50); fill-opacity:1.000; stroke:none;" />
 <path d="  M 5,28  L 5,29  L 10,29  L 10,28  Z  " style="fill:rgb(148, 81, 50); fill-opacity:1.000; stroke:none;" />
 <path d="  M 8,6  L 8,7  L 13,7  L 13,6  Z  " style="fill:rgb(148, 81, 50); fill-opacity:1.000; stroke:none;" />
 <path d="  M 9,27  L 10,27  L 10,28  L 25,28  L 25,27  L 11,27  L 11,26  L 12,26  L 12,25  L 10,25  L 10,26  L 9,26  Z  " style="fill:rgb(148, 81, 50); fill-opacity:1.000; stroke:none;" />
 <path d="  M 16,6  L 16,5  L 13,5  L 13,6  Z  " style="fill:rgb(148, 81, 50); fill-opacity:1.000; stroke:none;" />
 <path d="  M 29,7  L 29,6  L 22,6  L 22,7  Z  " style="fill:rgb(148, 81, 50); fill-opacity:1.000; stroke:none;" />
 <path d="  M 29,23  L 29,22  L 23,22  L 23,23  Z  " style="fill:rgb(148, 81, 50); fill-opacity:1.000; stroke:none;" />
 <path d="  M 23,25  L 24,25  L 24,26  L 26,26  L 26,25  L 29,25  L 29,24  L 23,24  Z  " style="fill:rgb(148, 81, 50); fill-opacity:1.000; stroke:none;" />
 <path d="  M 25,8  L 25,9  L 24,9  L 24,10  L 26,10  L 26,9  L 29,9  L 29,8  Z  " style="fill:rgb(148, 81, 50); fill-opacity:1.000; stroke:none;" />
 <path d="  M 24,11  L 24,12  L 26,12  L 26,13  L 29,13  L 29,12  L 27,12  L 27,11  Z  " style="fill:rgb(148, 81, 50); fill-opacity:1.000; stroke:none;" />
 <path d="  M 25,15  L 29,15  L 29,14  L 25,14  Z  " style="fill:rgb(148, 81, 50); fill-opacity:1.000; stroke:none;" />
 <path d="  M 29,17  L 29,16  L 25,16  L 25,17  Z  " style="fill:rgb(148, 81, 50); fill-opacity:1.000; stroke:none;" />
 <path d="  M 29,19  L 26,19  L 26,18  L 25,18  L 25,20  L 29,20  Z  " style="fill:rgb(148, 81, 50); fill-opacity:1.000; stroke:none;" />
 <path d="  M 28,29  L 28,28  L 26,28  L 26,29  Z  " style="fill:rgb(148, 81, 50); fill-opacity:1.000; stroke:none;" />
 <path d="  M 9,5  L 9,4  L 3,4  L 3,5  Z  " style="fill:rgb(127, 71, 43); fill-opacity:1.000; stroke:none;" />
 <path d="  M 9,8  L 9,7  L 3,7  L 3,8  Z  " style="fill:rgb(127, 71, 43); fill-opacity:1.000; stroke:none;" />
 <path d="  M 3,9  L 3,10  L 9,10  L 9,9  Z  " style="fill:rgb(127, 71, 43); fill-opacity:1.000; stroke:none;" />
 <path d="  M 3,13  L 3,14  L 4,14  L 4,15  L 7,15  L 7,14  L 5,14  L 5,13  Z  " style="fill:rgb(127, 71, 43); fill-opacity:1.000; stroke:none;" />
 <path d="  M 3,17  L 7,17  L 7,16  L 3,16  Z  " style="fill:rgb(127, 71, 43); fill-opacity:1.000; stroke:none;" />
 <path d="  M 7,20  L 3,20  L 3,21  L 7,21  Z  " style="fill:rgb(127, 71, 43); fill-opacity:1.000; stroke:none;" />
 <path d="  M 3,23  L 3,24  L 7,24  L 7,23  Z  " style="fill:rgb(127, 71, 43); fill-opacity:1.000; stroke:none;" />
 <path d="  M 3,25  L 3,26  L 10,26  L 10,25  Z  " style="fill:rgb(127, 71, 43); fill-opacity:1.000; stroke:none;" />
 <path d="  M 3,27  L 3,28  L 10,28  L 10,27  Z  " style="fill:rgb(127, 71, 43); fill-opacity:1.000; stroke:none;" />
 <path d="  M 4,18  L 4,19  L 7,19  L 7,18  Z  " style="fill:rgb(127, 71, 43); fill-opacity:1.000; stroke:none;" />
 <path d="  M 5,11  L 5,12  L 8,12  L 8,11  Z  " style="fill:rgb(127, 71, 43); fill-opacity:1.000; stroke:none;" />
 <path d="  M 7,22  L 7,23  L 9,23  L 9,22  Z  " style="fill:rgb(127, 71, 43); fill-opacity:1.000; stroke:none;" />
 <path d="  M 13,6  L 13,5  L 9,5  L 9,6  Z  " style="fill:rgb(127, 71, 43); fill-opacity:1.000; stroke:none;" />
 <path d="  M 10,24  L 10,25  L 12,25  L 12,24  Z  " style="fill:rgb(127, 71, 43); fill-opacity:1.000; stroke:none;" />
 <path d="  M 10,28  L 10,29  L 12,29  L 12,28  Z  " style="fill:rgb(127, 71, 43); fill-opacity:1.000; stroke:none;" />
 <path d="  M 17,25  L 17,26  L 12,26  L 12,27  L 18,27  L 18,26  L 23,26  L 23,25  Z  " style="fill:rgb(127, 71, 43); fill-opacity:1.000; stroke:none;" />
 <path d="  M 16,5  L 16,4  L 13,4  L 13,5  Z  " style="fill:rgb(127, 71, 43); fill-opacity:1.000; stroke:none;" />
 <path d="  M 13,7  L 15,7  L 15,6  L 13,6  Z  " style="fill:rgb(127, 71, 43); fill-opacity:1.000; stroke:none;" />
 <path d="  M 14,28  L 14,29  L 23,29  L 23,28  Z  " style="fill:rgb(127, 71, 43); fill-opacity:1.000; stroke:none;" />
 <path d="  M 16,6  L 16,7  L 21,7  L 21,6  Z  " style="fill:rgb(127, 71, 43); fill-opacity:1.000; stroke:none;" />
 <path d="  M 18,4  L 18,5  L 23,5  L 23,4  Z  " style="fill:rgb(127, 71, 43); fill-opacity:1.000; stroke:none;" />
 <path d="  M 25,9  L 25,8  L 22,8  L 22,9  Z  " style="fill:rgb(127, 71, 43); fill-opacity:1.000; stroke:none;" />
 <path d="  M 22,23  L 22,24  L 28,24  L 28,23  Z  " style="fill:rgb(127, 71, 43); fill-opacity:1.000; stroke:none;" />
 <path d="  M 24,5  L 24,6  L 29,6  L 29,5  Z  " style="fill:rgb(127, 71, 43); fill-opacity:1.000; stroke:none;" />
 <path d="  M 24,21  L 24,22  L 25,22  L 25,21  Z  " style="fill:rgb(127, 71, 43); fill-opacity:1.000; stroke:none;" />
 <path d="  M 29,8  L 29,7  L 25,7  L 25,8  Z  " style="fill:rgb(127, 71, 43); fill-opacity:1.000; stroke:none;" />
 <path d="  M 29,14  L 29,13  L 25,13  L 25,14  Z  " style="fill:rgb(127, 71, 43); fill-opacity:1.000; stroke:none;" />
 <path d="  M 27,16  L 27,15  L 25,15  L 25,16  Z  " style="fill:rgb(127, 71, 43); fill-opacity:1.000; stroke:none;" />
 <path d="  M 26,18  L 26,17  L 25,17  L 25,18  Z  " style="fill:rgb(127, 71, 43); fill-opacity:1.000; stroke:none;" />
 <path d="  M 25,27  L 25,28  L 29,28  L 29,27  Z  " style="fill:rgb(127, 71, 43); fill-opacity:1.000; stroke:none;" />
 <path d="  M 26,9  L 26,10  L 29,10  L 29,9  Z  " style="fill:rgb(127, 71, 43); fill-opacity:1.000; stroke:none;" />
 <path d="  M 29,19  L 29,18  L 26,18  L 26,19  Z  " style="fill:rgb(127, 71, 43); fill-opacity:1.000; stroke:none;" />
 <path d="  M 29,22  L 29,21  L 26,21  L 26,22  Z  " style="fill:rgb(127, 71, 43); fill-opacity:1.000; stroke:none;" />
 <path d="  M 26,25  L 26,26  L 29,26  L 29,25  Z  " style="fill:rgb(127, 71, 43); fill-opacity:1.000; stroke:none;" />
 <path d="  M 29,12  L 29,11  L 27,11  L 27,12  Z  " style="fill:rgb(127, 71, 43); fill-opacity:1.000; stroke:none;" />
 <path d="  M 3,5  L 3,6  L 5,6  L 5,5  Z  " style="fill:rgb(136, 75, 46); fill-opacity:1.000; stroke:none;" />
 <path d="  M 3,10  L 3,11  L 8,11  L 8,10  Z  " style="fill:rgb(136, 75, 46); fill-opacity:1.000; stroke:none;" />
 <path d="  M 7,16  L 7,15  L 3,15  L 3,16  Z  " style="fill:rgb(136, 75, 46); fill-opacity:1.000; stroke:none;" />
 <path d="  M 5,19  L 3,19  L 3,20  L 5,20  Z  " style="fill:rgb(136, 75, 46); fill-opacity:1.000; stroke:none;" />
 <path d="  M 8,22  L 8,21  L 3,21  L 3,22  L 6,22  L 6,23  L 7,23  L 7,22  Z  " style="fill:rgb(136, 75, 46); fill-opacity:1.000; stroke:none;" />
 <path d="  M 8,26  L 3,26  L 3,27  L 8,27  Z  " style="fill:rgb(136, 75, 46); fill-opacity:1.000; stroke:none;" />
 <path d="  M 7,18  L 7,17  L 4,17  L 4,18  Z  " style="fill:rgb(136, 75, 46); fill-opacity:1.000; stroke:none;" />
 <path d="  M 6,7  L 8,7  L 8,6  L 9,6  L 9,5  L 6,5  Z  " style="fill:rgb(136, 75, 46); fill-opacity:1.000; stroke:none;" />
 <path d="  M 10,24  L 10,23  L 7,23  L 7,24  Z  " style="fill:rgb(136, 75, 46); fill-opacity:1.000; stroke:none;" />
 <path d="  M 9,7  L 9,8  L 12,8  L 12,7  Z  " style="fill:rgb(136, 75, 46); fill-opacity:1.000; stroke:none;" />
 <path d="  M 13,4  L 11,4  L 11,5  L 13,5  Z  " style="fill:rgb(136, 75, 46); fill-opacity:1.000; stroke:none;" />
 <path d="  M 12,26  L 11,26  L 11,27  L 12,27  Z  " style="fill:rgb(136, 75, 46); fill-opacity:1.000; stroke:none;" />
 <path d="  M 17,26  L 17,25  L 12,25  L 12,26  Z  " style="fill:rgb(136, 75, 46); fill-opacity:1.000; stroke:none;" />
 <path d="  M 14,29  L 14,28  L 12,28  L 12,29  Z  " style="fill:rgb(136, 75, 46); fill-opacity:1.000; stroke:none;" />
 <path d="  M 15,7  L 16,7  L 16,6  L 15,6  Z  " style="fill:rgb(136, 75, 46); fill-opacity:1.000; stroke:none;" />
 <path d="  M 24,6  L 24,5  L 16,5  L 16,6  Z  " style="fill:rgb(136, 75, 46); fill-opacity:1.000; stroke:none;" />
 <path d="  M 18,27  L 20,27  L 20,26  L 18,26  Z  " style="fill:rgb(136, 75, 46); fill-opacity:1.000; stroke:none;" />
 <path d="  M 25,8  L 25,7  L 20,7  L 20,8  Z  " style="fill:rgb(136, 75, 46); fill-opacity:1.000; stroke:none;" />
 <path d="  M 20,24  L 20,25  L 23,25  L 23,24  Z  " style="fill:rgb(136, 75, 46); fill-opacity:1.000; stroke:none;" />
 <path d="  M 24,26  L 24,25  L 23,25  L 23,26  L 21,26  L 21,27  L 28,27  L 28,26  Z  " style="fill:rgb(136, 75, 46); fill-opacity:1.000; stroke:none;" />
 <path d="  M 26,29  L 26,28  L 23,28  L 23,29  Z  " style="fill:rgb(136, 75, 46); fill-opacity:1.000; stroke:none;" />
 <path d="  M 24,4  L 24,5  L 29,5  L 29,4  Z  " style="fill:rgb(136, 75, 46); fill-opacity:1.000; stroke:none;" />
 <path d="  M 29,11  L 29,10  L 24,10  L 24,11  Z  " style="fill:rgb(136, 75, 46); fill-opacity:1.000; stroke:none;" />
 <path d="  M 24,20  L 24,21  L 29,21  L 29,20  Z  " style="fill:rgb(136, 75, 46); fill-opacity:1.000; stroke:none;" />
 <path d="  M 25,12  L 25,13  L 26,13  L 26,12  Z  " style="fill:rgb(136, 75, 46); fill-opacity:1.000; stroke:none;" />
 <path d="  M 26,18  L 29,18  L 29,17  L 26,17  Z  " style="fill:rgb(136, 75, 46); fill-opacity:1.000; stroke:none;" />
 <path d="  M 27,15  L 27,16  L 29,16  L 29,15  Z  " style="fill:rgb(136, 75, 46); fill-opacity:1.000; stroke:none;" />
 <path d="  M 28,23  L 28,24  L 29,24  L 29,23  Z  " style="fill:rgb(136, 75, 46); fill-opacity:1.000; stroke:none;" />
 <path d="  M 28,28  L 28,29  L 29,29  L 29,28  Z  " style="fill:rgb(136, 75, 46); fill-opacity:1.000; stroke:none;" />
 <path d="  M 3,32  L 4,32  L 4,30  L 3,30  Z  " style="fill:rgb(56, 47, 37); fill-opacity:1.000; stroke:none;" />
 <path d="  M 7,30  L 6,30  L 6,32  L 7,32  Z  " style="fill:rgb(56, 47, 37); fill-opacity:1.000; stroke:none;" />
 <path d="  M 19,30  L 19,32  L 20,32  L 20,30  Z  " style="fill:rgb(56, 47, 37); fill-opacity:1.000; stroke:none;" />
 <path d="  M 23,30  L 22,30  L 22,32  L 23,32  Z  " style="fill:rgb(56, 47, 37); fill-opacity:1.000; stroke:none;" />
 <path d="  M 7,13  L 8,13  L 8,12  L 7,12  Z  " style="fill:rgb(151, 82, 50); fill-opacity:1.000; stroke:none;" />
 <path d="  M 7,13  L 7,14  L 8,14  L 8,13  Z  " style="fill:rgb(153, 83, 50); fill-opacity:1.000; stroke:none;" />
 <path d="  M 18,25  L 18,24  L 14,24  L 14,25  Z  " style="fill:rgb(153, 83, 50); fill-opacity:1.000; stroke:none;" />
 <path d="  M 23,11  L 23,12  L 24,12  L 24,11  Z  " style="fill:rgb(153, 83, 50); fill-opacity:1.000; stroke:none;" />
 <path d="  M 8,15  L 8,14  L 7,14  L 7,15  Z  " style="fill:rgb(138, 76, 45); fill-opacity:1.000; stroke:none;" />
 <path d="  M 25,16  L 25,15  L 24,15  L 24,16  Z  " style="fill:rgb(138, 76, 45); fill-opacity:1.000; stroke:none;" />
 <path d="  M 24,18  L 25,18  L 25,17  L 24,17  Z  " style="fill:rgb(138, 76, 45); fill-opacity:1.000; stroke:none;" />
 <path d="  M 7,16  L 8,16  L 8,15  L 7,15  Z  " style="fill:rgb(144, 78, 47); fill-opacity:1.000; stroke:none;" />
 <path d="  M 8,17  L 7,17  L 7,18  L 8,18  Z  " style="fill:rgb(144, 78, 47); fill-opacity:1.000; stroke:none;" />
 <path d="  M 8,16  L 7,16  L 7,17  L 8,17  Z  " style="fill:rgb(138, 75, 45); fill-opacity:1.000; stroke:none;" />
 <path d="  M 7,19  L 8,19  L 8,18  L 7,18  Z  " style="fill:rgb(135, 74, 44); fill-opacity:1.000; stroke:none;" />
 <path d="  M 8,12  L 9,12  L 9,11  L 8,11  Z  " style="fill:rgb(135, 74, 44); fill-opacity:1.000; stroke:none;" />
 <path d="  M 24,13  L 24,14  L 25,14  L 25,13  Z  " style="fill:rgb(135, 74, 44); fill-opacity:1.000; stroke:none;" />
 <path d="  M 7,20  L 8,20  L 8,19  L 7,19  Z  " style="fill:rgb(150, 81, 50); fill-opacity:1.000; stroke:none;" />
 <path d="  M 9,11  L 9,10  L 8,10  L 8,11  Z  " style="fill:rgb(150, 81, 50); fill-opacity:1.000; stroke:none;" />
 <path d="  M 23,23  L 23,22  L 22,22  L 22,23  Z  " style="fill:rgb(150, 81, 50); fill-opacity:1.000; stroke:none;" />
 <path d="  M 25,20  L 25,19  L 24,19  L 24,20  Z  " style="fill:rgb(150, 81, 50); fill-opacity:1.000; stroke:none;" />
 <path d="  M 8,13  L 9,13  L 9,12  L 8,12  Z  " style="fill:rgb(158, 84, 50); fill-opacity:1.000; stroke:none;" />
 <path d="  M 19,15  L 19,14  L 18,14  L 18,13  L 16,13  L 16,14  L 15,14  L 15,13  L 8,13  L 8,14  L 14,14  L 14,15  Z  " style="fill:rgb(175, 92, 54); fill-opacity:1.000; stroke:none;" />
 <path d="  M 9,19  L 9,20  L 16,20  L 16,21  L 18,21  L 18,20  L 17,20  L 17,19  Z  " style="fill:rgb(175, 92, 54); fill-opacity:1.000; stroke:none;" />
 <path d="  M 12,11  L 12,9  L 11,9  L 11,10  L 10,10  L 10,11  L 11,11  L 11,12  L 14,12  L 14,11  Z  " style="fill:rgb(175, 92, 54); fill-opacity:1.000; stroke:none;" />
 <path d="  M 10,17  L 14,17  L 14,16  L 10,16  Z  " style="fill:rgb(175, 92, 54); fill-opacity:1.000; stroke:none;" />
 <path d="  M 11,22  L 11,23  L 16,23  L 16,22  Z  " style="fill:rgb(175, 92, 54); fill-opacity:1.000; stroke:none;" />
 <path d="  M 14,9  L 18,9  L 18,8  L 14,8  Z  " style="fill:rgb(175, 92, 54); fill-opacity:1.000; stroke:none;" />
 <path d="  M 23,12  L 23,11  L 16,11  L 16,12  Z  " style="fill:rgb(175, 92, 54); fill-opacity:1.000; stroke:none;" />
 <path d="  M 21,20  L 23,20  L 23,19  L 22,19  L 22,18  L 18,18  L 18,19  L 21,19  Z  " style="fill:rgb(175, 92, 54); fill-opacity:1.000; stroke:none;" />
 <path d="  M 19,16  L 19,17  L 24,17  L 24,16  Z  " style="fill:rgb(175, 92, 54); fill-opacity:1.000; stroke:none;" />
 <path d="  M 10,14  L 8,14  L 8,15  L 10,15  Z  " style="fill:rgb(161, 84, 48); fill-opacity:1.000; stroke:none;" />
 <path d="  M 10,17  L 10,16  L 8,16  L 8,17  Z  " style="fill:rgb(161, 84, 48); fill-opacity:1.000; stroke:none;" />
 <path d="  M 12,18  L 8,18  L 8,19  L 12,19  Z  " style="fill:rgb(161, 84, 48); fill-opacity:1.000; stroke:none;" />
 <path d="  M 10,12  L 10,11  L 9,11  L 9,12  Z  " style="fill:rgb(161, 84, 48); fill-opacity:1.000; stroke:none;" />
 <path d="  M 9,20  L 9,21  L 12,21  L 12,20  Z  " style="fill:rgb(161, 84, 48); fill-opacity:1.000; stroke:none;" />
 <path d="  M 10,13  L 13,13  L 13,12  L 10,12  Z  " style="fill:rgb(161, 84, 48); fill-opacity:1.000; stroke:none;" />
 <path d="  M 10,16  L 15,16  L 15,15  L 10,15  Z  " style="fill:rgb(161, 84, 48); fill-opacity:1.000; stroke:none;" />
 <path d="  M 18,9  L 18,10  L 12,10  L 12,11  L 19,11  L 19,10  L 21,10  L 21,9  Z  " style="fill:rgb(161, 84, 48); fill-opacity:1.000; stroke:none;" />
 <path d="  M 16,18  L 16,17  L 12,17  L 12,18  L 13,18  L 13,19  L 14,19  L 14,18  Z  " style="fill:rgb(161, 84, 48); fill-opacity:1.000; stroke:none;" />
 <path d="  M 16,22  L 16,21  L 12,21  L 12,22  Z  " style="fill:rgb(161, 84, 48); fill-opacity:1.000; stroke:none;" />
 <path d="  M 14,9  L 14,8  L 13,8  L 13,9  Z  " style="fill:rgb(161, 84, 48); fill-opacity:1.000; stroke:none;" />
 <path d="  M 22,13  L 22,14  L 24,14  L 24,13  L 23,13  L 23,12  L 15,12  L 15,13  Z  " style="fill:rgb(161, 84, 48); fill-opacity:1.000; stroke:none;" />
 <path d="  M 16,17  L 19,17  L 19,16  L 16,16  Z  " style="fill:rgb(161, 84, 48); fill-opacity:1.000; stroke:none;" />
 <path d="  M 16,22  L 16,23  L 21,23  L 21,22  Z  " style="fill:rgb(161, 84, 48); fill-opacity:1.000; stroke:none;" />
 <path d="  M 18,20  L 18,21  L 23,21  L 23,20  Z  " style="fill:rgb(161, 84, 48); fill-opacity:1.000; stroke:none;" />
 <path d="  M 22,14  L 19,14  L 19,15  L 22,15  Z  " style="fill:rgb(161, 84, 48); fill-opacity:1.000; stroke:none;" />
 <path d="  M 19,17  L 19,18  L 24,18  L 24,17  Z  " style="fill:rgb(161, 84, 48); fill-opacity:1.000; stroke:none;" />
 <path d="  M 24,16  L 24,15  L 23,15  L 23,16  Z  " style="fill:rgb(161, 84, 48); fill-opacity:1.000; stroke:none;" />
 <path d="  M 10,16  L 10,15  L 8,15  L 8,16  Z  " style="fill:rgb(165, 86, 50); fill-opacity:1.000; stroke:none;" />
 <path d="  M 12,18  L 12,17  L 8,17  L 8,18  Z  " style="fill:rgb(165, 86, 50); fill-opacity:1.000; stroke:none;" />
 <path d="  M 10,12  L 9,12  L 9,13  L 10,13  Z  " style="fill:rgb(165, 86, 50); fill-opacity:1.000; stroke:none;" />
 <path d="  M 11,12  L 11,11  L 10,11  L 10,12  Z  " style="fill:rgb(165, 86, 50); fill-opacity:1.000; stroke:none;" />
 <path d="  M 14,15  L 14,14  L 10,14  L 10,15  Z  " style="fill:rgb(165, 86, 50); fill-opacity:1.000; stroke:none;" />
 <path d="  M 10,21  L 10,22  L 12,22  L 12,21  Z  " style="fill:rgb(165, 86, 50); fill-opacity:1.000; stroke:none;" />
 <path d="  M 18,10  L 18,9  L 12,9  L 12,10  Z  " style="fill:rgb(165, 86, 50); fill-opacity:1.000; stroke:none;" />
 <path d="  M 12,18  L 12,19  L 13,19  L 13,18  Z  " style="fill:rgb(165, 86, 50); fill-opacity:1.000; stroke:none;" />
 <path d="  M 16,20  L 12,20  L 12,21  L 16,21  Z  " style="fill:rgb(165, 86, 50); fill-opacity:1.000; stroke:none;" />
 <path d="  M 14,11  L 14,12  L 13,12  L 13,13  L 15,13  L 15,12  L 16,12  L 16,11  Z  " style="fill:rgb(165, 86, 50); fill-opacity:1.000; stroke:none;" />
 <path d="  M 13,23  L 13,24  L 19,24  L 19,23  Z  " style="fill:rgb(165, 86, 50); fill-opacity:1.000; stroke:none;" />
 <path d="  M 23,15  L 24,15  L 24,14  L 22,14  L 22,15  L 15,15  L 15,16  L 14,16  L 14,17  L 16,17  L 16,16  L 23,16  Z  " style="fill:rgb(165, 86, 50); fill-opacity:1.000; stroke:none;" />
 <path d="  M 14,19  L 17,19  L 17,20  L 21,20  L 21,19  L 18,19  L 18,18  L 19,18  L 19,17  L 16,17  L 16,18  L 14,18  Z  " style="fill:rgb(165, 86, 50); fill-opacity:1.000; stroke:none;" />
 <path d="  M 15,14  L 16,14  L 16,13  L 15,13  Z  " style="fill:rgb(165, 86, 50); fill-opacity:1.000; stroke:none;" />
 <path d="  M 22,22  L 22,21  L 16,21  L 16,22  Z  " style="fill:rgb(165, 86, 50); fill-opacity:1.000; stroke:none;" />
 <path d="  M 19,8  L 18,8  L 18,9  L 19,9  Z  " style="fill:rgb(165, 86, 50); fill-opacity:1.000; stroke:none;" />
 <path d="  M 22,14  L 22,13  L 18,13  L 18,14  Z  " style="fill:rgb(165, 86, 50); fill-opacity:1.000; stroke:none;" />
 <path d="  M 19,10  L 19,11  L 22,11  L 22,10  Z  " style="fill:rgb(165, 86, 50); fill-opacity:1.000; stroke:none;" />
 <path d="  M 24,19  L 24,18  L 22,18  L 22,19  Z  " style="fill:rgb(165, 86, 50); fill-opacity:1.000; stroke:none;" />
 <path d="  M 8,19  L 8,20  L 9,20  L 9,19  Z  " style="fill:rgb(156, 84, 50); fill-opacity:1.000; stroke:none;" />
 <path d="  M 9,20  L 8,20  L 8,21  L 9,21  Z  " style="fill:rgb(136, 75, 45); fill-opacity:1.000; stroke:none;" />
 <path d="  M 24,20  L 23,20  L 23,21  L 24,21  Z  " style="fill:rgb(136, 75, 45); fill-opacity:1.000; stroke:none;" />
 <path d="  M 8,22  L 9,22  L 9,21  L 8,21  Z  " style="fill:rgb(138, 76, 46); fill-opacity:1.000; stroke:none;" />
 <path d="  M 13,8  L 13,7  L 12,7  L 12,8  Z  " style="fill:rgb(138, 76, 46); fill-opacity:1.000; stroke:none;" />
 <path d="  M 24,21  L 23,21  L 23,22  L 24,22  Z  " style="fill:rgb(138, 76, 46); fill-opacity:1.000; stroke:none;" />
 <path d="  M 24,13  L 25,13  L 25,12  L 24,12  Z  " style="fill:rgb(138, 76, 46); fill-opacity:1.000; stroke:none;" />
 <path d="  M 9,10  L 10,10  L 10,9  L 9,9  Z  " style="fill:rgb(131, 73, 44); fill-opacity:1.000; stroke:none;" />
 <path d="  M 10,9  L 11,9  L 11,8  L 10,8  Z  " style="fill:rgb(131, 73, 44); fill-opacity:1.000; stroke:none;" />
 <path d="  M 9,11  L 10,11  L 10,10  L 9,10  Z  " style="fill:rgb(155, 83, 50); fill-opacity:1.000; stroke:none;" />
 <path d="  M 10,21  L 9,21  L 9,22  L 10,22  Z  " style="fill:rgb(146, 78, 47); fill-opacity:1.000; stroke:none;" />
 <path d="  M 22,22  L 21,22  L 21,23  L 22,23  Z  " style="fill:rgb(146, 78, 47); fill-opacity:1.000; stroke:none;" />
 <path d="  M 23,22  L 23,21  L 22,21  L 22,22  Z  " style="fill:rgb(146, 78, 47); fill-opacity:1.000; stroke:none;" />
 <path d="  M 9,23  L 10,23  L 10,22  L 9,22  Z  " style="fill:rgb(130, 72, 44); fill-opacity:1.000; stroke:none;" />
 <path d="  M 13,25  L 13,24  L 12,24  L 12,25  Z  " style="fill:rgb(130, 72, 44); fill-opacity:1.000; stroke:none;" />
 <path d="  M 22,10  L 23,10  L 23,9  L 22,9  Z  " style="fill:rgb(130, 72, 44); fill-opacity:1.000; stroke:none;" />
 <path d="  M 10,9  L 10,10  L 11,10  L 11,9  Z  " style="fill:rgb(158, 85, 51); fill-opacity:1.000; stroke:none;" />
 <path d="  M 10,22  L 10,23  L 11,23  L 11,22  Z  " style="fill:rgb(142, 78, 45); fill-opacity:1.000; stroke:none;" />
 <path d="  M 11,23  L 10,23  L 10,24  L 11,24  Z  " style="fill:rgb(139, 77, 47); fill-opacity:1.000; stroke:none;" />
 <path d="  M 24,11  L 24,10  L 23,10  L 23,11  Z  " style="fill:rgb(139, 77, 47); fill-opacity:1.000; stroke:none;" />
 <path d="  M 12,9  L 12,8  L 11,8  L 11,9  Z  " style="fill:rgb(127, 69, 42); fill-opacity:1.000; stroke:none;" />
 <path d="  M 11,24  L 12,24  L 12,23  L 11,23  Z  " style="fill:rgb(145, 79, 48); fill-opacity:1.000; stroke:none;" />
 <path d="  M 12,9  L 13,9  L 13,8  L 12,8  Z  " style="fill:rgb(144, 78, 46); fill-opacity:1.000; stroke:none;" />
 <path d="  M 12,24  L 13,24  L 13,23  L 12,23  Z  " style="fill:rgb(152, 82, 49); fill-opacity:1.000; stroke:none;" />
 <path d="  M 13,7  L 13,8  L 14,8  L 14,7  Z  " style="fill:rgb(143, 78, 47); fill-opacity:1.000; stroke:none;" />
 <path d="  M 18,7  L 18,8  L 19,8  L 19,7  Z  " style="fill:rgb(143, 78, 47); fill-opacity:1.000; stroke:none;" />
 <path d="  M 13,24  L 13,25  L 14,25  L 14,24  Z  " style="fill:rgb(135, 74, 45); fill-opacity:1.000; stroke:none;" />
 <path d="  M 15,8  L 15,7  L 14,7  L 14,8  Z  " style="fill:rgb(146, 80, 48); fill-opacity:1.000; stroke:none;" />
 <path d="  M 17,8  L 18,8  L 18,7  L 17,7  Z  " style="fill:rgb(146, 80, 48); fill-opacity:1.000; stroke:none;" />
 <path d="  M 17,7  L 15,7  L 15,8  L 17,8  Z  " style="fill:rgb(147, 80, 48); fill-opacity:1.000; stroke:none;" />
 <path d="  M 18,24  L 18,25  L 19,25  L 19,24  Z  " style="fill:rgb(142, 77, 47); fill-opacity:1.000; stroke:none;" />
 <path d="  M 20,8  L 20,7  L 19,7  L 19,8  Z  " style="fill:rgb(138, 76, 47); fill-opacity:1.000; stroke:none;" />
 <path d="  M 20,25  L 20,24  L 19,24  L 19,25  Z  " style="fill:rgb(138, 76, 47); fill-opacity:1.000; stroke:none;" />
 <path d="  M 19,8  L 19,9  L 20,9  L 20,8  Z  " style="fill:rgb(148, 79, 47); fill-opacity:1.000; stroke:none;" />
 <path d="  M 19,24  L 20,24  L 20,23  L 19,23  Z  " style="fill:rgb(148, 79, 47); fill-opacity:1.000; stroke:none;" />
 <path d="  M 21,8  L 20,8  L 20,9  L 21,9  Z  " style="fill:rgb(142, 77, 46); fill-opacity:1.000; stroke:none;" />
 <path d="  M 21,24  L 21,23  L 20,23  L 20,24  Z  " style="fill:rgb(142, 77, 46); fill-opacity:1.000; stroke:none;" />
 <path d="  M 21,9  L 22,9  L 22,8  L 21,8  Z  " style="fill:rgb(130, 72, 43); fill-opacity:1.000; stroke:none;" />
 <path d="  M 22,23  L 21,23  L 21,24  L 22,24  Z  " style="fill:rgb(130, 72, 43); fill-opacity:1.000; stroke:none;" />
 <path d="  M 21,9  L 21,10  L 22,10  L 22,9  Z  " style="fill:rgb(140, 76, 45); fill-opacity:1.000; stroke:none;" />
 <path d="  M 22,10  L 22,11  L 23,11  L 23,10  Z  " style="fill:rgb(148, 80, 48); fill-opacity:1.000; stroke:none;" />
 <path d="  M 23,13  L 24,13  L 24,12  L 23,12  Z  " style="fill:rgb(148, 80, 47); fill-opacity:1.000; stroke:none;" />
 <path d="  M 23,20  L 24,20  L 24,19  L 23,19  Z  " style="fill:rgb(157, 84, 50); fill-opacity:1.000; stroke:none;" />
 <path d="  M 25,15  L 25,14  L 24,14  L 24,15  Z  " style="fill:rgb(153, 82, 50); fill-opacity:1.000; stroke:none;" />
 <path d="  M 25,16  L 24,16  L 24,17  L 25,17  Z  " style="fill:rgb(154, 83, 51); fill-opacity:1.000; stroke:none;" />
 <path d="  M 24,18  L 24,19  L 25,19  L 25,18  Z  " style="fill:rgb(151, 81, 50); fill-opacity:1.000; stroke:none;" />
</svg>
