<?xml version="1.0" encoding="UTF-8" standalone="no"?>
<!DOCTYPE svg PUBLIC "-//W3C//DTD SVG 1.1//EN" 
  "http://www.w3.org/Graphics/SVG/1.1/DTD/svg11.dtd">
<svg width="32" height="32"
	 xmlns="http://www.w3.org/2000/svg" version="1.1">
 <path d="  M 1,1  L 1,0  L 0,0  L 0,1  Z  " style="fill:rgb(51, 51, 51); fill-opacity:1.000; stroke:none;" />
 <path d="  M 0,32  L 1,32  L 1,31  L 0,31  Z  " style="fill:rgb(51, 51, 51); fill-opacity:1.000; stroke:none;" />
 <path d="  M 1,15  L 1,16  L 3,16  L 3,15  Z  " style="fill:rgb(51, 51, 51); fill-opacity:1.000; stroke:none;" />
 <path d="  M 7,8  L 7,9  L 8,9  L 8,8  Z  " style="fill:rgb(51, 51, 51); fill-opacity:1.000; stroke:none;" />
 <path d="  M 8,7  L 8,8  L 9,8  L 9,7  Z  " style="fill:rgb(51, 51, 51); fill-opacity:1.000; stroke:none;" />
 <path d="  M 11,16  L 11,15  L 9,15  L 9,16  Z  " style="fill:rgb(51, 51, 51); fill-opacity:1.000; stroke:none;" />
 <path d="  M 10,32  L 12,32  L 12,31  L 10,31  Z  " style="fill:rgb(51, 51, 51); fill-opacity:1.000; stroke:none;" />
 <path d="  M 12,19  L 13,19  L 13,17  L 12,17  Z  " style="fill:rgb(51, 51, 51); fill-opacity:1.000; stroke:none;" />
 <path d="  M 12,31  L 13,31  L 13,29  L 12,29  Z  " style="fill:rgb(51, 51, 51); fill-opacity:1.000; stroke:none;" />
 <path d="  M 13,2  L 13,3  L 14,3  L 14,2  Z  " style="fill:rgb(51, 51, 51); fill-opacity:1.000; stroke:none;" />
 <path d="  M 14,31  L 13,31  L 13,32  L 14,32  Z  " style="fill:rgb(51, 51, 51); fill-opacity:1.000; stroke:none;" />
 <path d="  M 14,1  L 14,2  L 15,2  L 15,1  Z  " style="fill:rgb(51, 51, 51); fill-opacity:1.000; stroke:none;" />
 <path d="  M 18,2  L 18,1  L 17,1  L 17,2  Z  " style="fill:rgb(51, 51, 51); fill-opacity:1.000; stroke:none;" />
 <path d="  M 18,2  L 18,3  L 19,3  L 19,2  Z  " style="fill:rgb(51, 51, 51); fill-opacity:1.000; stroke:none;" />
 <path d="  M 19,32  L 19,31  L 18,31  L 18,32  Z  " style="fill:rgb(51, 51, 51); fill-opacity:1.000; stroke:none;" />
 <path d="  M 19,19  L 20,19  L 20,17  L 19,17  Z  " style="fill:rgb(51, 51, 51); fill-opacity:1.000; stroke:none;" />
 <path d="  M 19,31  L 20,31  L 20,29  L 19,29  Z  " style="fill:rgb(51, 51, 51); fill-opacity:1.000; stroke:none;" />
 <path d="  M 20,31  L 20,32  L 22,32  L 22,31  Z  " style="fill:rgb(51, 51, 51); fill-opacity:1.000; stroke:none;" />
 <path d="  M 23,16  L 23,15  L 21,15  L 21,16  Z  " style="fill:rgb(51, 51, 51); fill-opacity:1.000; stroke:none;" />
 <path d="  M 23,8  L 24,8  L 24,7  L 23,7  Z  " style="fill:rgb(51, 51, 51); fill-opacity:1.000; stroke:none;" />
 <path d="  M 25,8  L 24,8  L 24,9  L 25,9  Z  " style="fill:rgb(51, 51, 51); fill-opacity:1.000; stroke:none;" />
 <path d="  M 32,16  L 32,15  L 30,15  L 30,16  Z  " style="fill:rgb(51, 51, 51); fill-opacity:1.000; stroke:none;" />
 <path d="  M 31,1  L 32,1  L 32,0  L 31,0  Z  " style="fill:rgb(51, 51, 51); fill-opacity:1.000; stroke:none;" />
 <path d="  M 32,31  L 31,31  L 31,32  L 32,32  Z  " style="fill:rgb(51, 51, 51); fill-opacity:1.000; stroke:none;" />
 <path d="  M 0,3  L 1,3  L 1,1  L 0,1  Z  " style="fill:rgb(53, 54, 53); fill-opacity:1.000; stroke:none;" />
 <path d="  M 1,29  L 0,29  L 0,31  L 1,31  Z  " style="fill:rgb(53, 54, 53); fill-opacity:1.000; stroke:none;" />
 <path d="  M 1,1  L 3,1  L 3,0  L 1,0  Z  " style="fill:rgb(53, 54, 53); fill-opacity:1.000; stroke:none;" />
 <path d="  M 3,31  L 1,31  L 1,32  L 3,32  Z  " style="fill:rgb(53, 54, 53); fill-opacity:1.000; stroke:none;" />
 <path d="  M 29,0  L 29,1  L 31,1  L 31,0  Z  " style="fill:rgb(53, 54, 53); fill-opacity:1.000; stroke:none;" />
 <path d="  M 29,31  L 29,32  L 31,32  L 31,31  Z  " style="fill:rgb(53, 54, 53); fill-opacity:1.000; stroke:none;" />
 <path d="  M 31,3  L 32,3  L 32,1  L 31,1  Z  " style="fill:rgb(53, 54, 53); fill-opacity:1.000; stroke:none;" />
 <path d="  M 31,31  L 32,31  L 32,29  L 31,29  Z  " style="fill:rgb(53, 54, 53); fill-opacity:1.000; stroke:none;" />
 <path d="  M 1,3  L 0,3  L 0,29  L 1,29  Z  " style="fill:rgb(38, 29, 42); fill-opacity:1.000; stroke:none;" />
 <path d="  M 11,30  L 11,17  L 2,17  L 2,30  Z  " style="fill:rgb(38, 29, 42); fill-opacity:1.000; stroke:none;" />
 <path d="  M 3,0  L 3,1  L 15,1  L 15,0  Z  " style="fill:rgb(38, 29, 42); fill-opacity:1.000; stroke:none;" />
 <path d="  M 9,16  L 9,15  L 3,15  L 3,16  Z  " style="fill:rgb(38, 29, 42); fill-opacity:1.000; stroke:none;" />
 <path d="  M 3,32  L 10,32  L 10,31  L 3,31  Z  " style="fill:rgb(38, 29, 42); fill-opacity:1.000; stroke:none;" />
 <path d="  M 10,7  L 10,6  L 9,6  L 9,7  Z  " style="fill:rgb(38, 29, 42); fill-opacity:1.000; stroke:none;" />
 <path d="  M 11,5  L 10,5  L 10,6  L 11,6  Z  " style="fill:rgb(38, 29, 42); fill-opacity:1.000; stroke:none;" />
 <path d="  M 11,4  L 11,5  L 12,5  L 12,4  Z  " style="fill:rgb(38, 29, 42); fill-opacity:1.000; stroke:none;" />
 <path d="  M 13,3  L 12,3  L 12,4  L 13,4  Z  " style="fill:rgb(38, 29, 42); fill-opacity:1.000; stroke:none;" />
 <path d="  M 13,19  L 12,19  L 12,29  L 13,29  Z  " style="fill:rgb(38, 29, 42); fill-opacity:1.000; stroke:none;" />
 <path d="  M 18,32  L 18,31  L 14,31  L 14,32  Z  " style="fill:rgb(38, 29, 42); fill-opacity:1.000; stroke:none;" />
 <path d="  M 17,0  L 17,1  L 29,1  L 29,0  Z  " style="fill:rgb(38, 29, 42); fill-opacity:1.000; stroke:none;" />
 <path d="  M 19,4  L 20,4  L 20,3  L 19,3  Z  " style="fill:rgb(38, 29, 42); fill-opacity:1.000; stroke:none;" />
 <path d="  M 20,19  L 19,19  L 19,29  L 20,29  Z  " style="fill:rgb(38, 29, 42); fill-opacity:1.000; stroke:none;" />
 <path d="  M 20,4  L 20,5  L 21,5  L 21,4  Z  " style="fill:rgb(38, 29, 42); fill-opacity:1.000; stroke:none;" />
 <path d="  M 22,5  L 21,5  L 21,6  L 22,6  Z  " style="fill:rgb(38, 29, 42); fill-opacity:1.000; stroke:none;" />
 <path d="  M 21,17  L 21,30  L 30,30  L 30,17  Z  " style="fill:rgb(38, 29, 42); fill-opacity:1.000; stroke:none;" />
 <path d="  M 23,7  L 23,6  L 22,6  L 22,7  Z  " style="fill:rgb(38, 29, 42); fill-opacity:1.000; stroke:none;" />
 <path d="  M 22,31  L 22,32  L 29,32  L 29,31  Z  " style="fill:rgb(38, 29, 42); fill-opacity:1.000; stroke:none;" />
 <path d="  M 30,16  L 30,15  L 23,15  L 23,16  Z  " style="fill:rgb(38, 29, 42); fill-opacity:1.000; stroke:none;" />
 <path d="  M 32,3  L 31,3  L 31,15  L 32,15  Z  " style="fill:rgb(38, 29, 42); fill-opacity:1.000; stroke:none;" />
 <path d="  M 31,29  L 32,29  L 32,16  L 31,16  Z  " style="fill:rgb(38, 29, 42); fill-opacity:1.000; stroke:none;" />
 <path d="  M 1,14  L 2,14  L 2,13  L 3,13  L 3,12  L 4,12  L 4,11  L 5,11  L 5,10  L 6,10  L 6,9  L 7,9  L 7,8  L 8,8  L 8,7  L 9,7  L 9,6  L 10,6  L 10,5  L 11,5  L 11,4  L 12,4  L 12,3  L 13,3  L 13,2  L 14,2  L 14,1  L 1,1  Z  " style="fill:rgb(16, 16, 16); fill-opacity:1.000; stroke:none;" />
 <path d="  M 2,17  L 11,17  L 11,30  L 2,30  Z  M 12,16  L 1,16  L 1,31  L 12,31  Z  " style="fill:rgb(16, 16, 16); fill-opacity:1.000; stroke:none;" />
 <path d="  M 14,14  L 5,14  L 5,13  L 6,13  L 6,12  L 7,12  L 7,11  L 8,11  L 8,10  L 9,10  L 9,9  L 10,9  L 10,8  L 11,8  L 11,7  L 12,7  L 12,6  L 13,6  L 13,5  L 14,5  L 14,4  L 15,4  L 15,3  L 17,3  L 17,4  L 18,4  L 18,5  L 19,5  L 19,6  L 20,6  L 20,7  L 21,7  L 21,8  L 22,8  L 22,9  L 23,9  L 23,10  L 24,10  L 24,11  L 25,11  L 25,12  L 26,12  L 26,13  L 27,13  L 27,14  L 18,14  L 18,30  L 14,30  Z  M 27,12  L 27,11  L 26,11  L 26,10  L 25,10  L 25,9  L 24,9  L 24,8  L 23,8  L 23,7  L 22,7  L 22,6  L 21,6  L 21,5  L 20,5  L 20,4  L 19,4  L 19,3  L 18,3  L 18,2  L 17,2  L 17,1  L 15,1  L 15,2  L 14,2  L 14,3  L 13,3  L 13,4  L 12,4  L 12,5  L 11,5  L 11,6  L 10,6  L 10,7  L 9,7  L 9,8  L 8,8  L 8,9  L 7,9  L 7,10  L 6,10  L 6,11  L 5,11  L 5,12  L 4,12  L 4,13  L 3,13  L 3,14  L 2,14  L 2,15  L 13,15  L 13,31  L 19,31  L 19,15  L 30,15  L 30,14  L 29,14  L 29,13  L 28,13  L 28,12  Z  " style="fill:rgb(16, 16, 16); fill-opacity:1.000; stroke:none;" />
 <path d="  M 31,1  L 18,1  L 18,2  L 19,2  L 19,3  L 20,3  L 20,4  L 21,4  L 21,5  L 22,5  L 22,6  L 23,6  L 23,7  L 24,7  L 24,8  L 25,8  L 25,9  L 26,9  L 26,10  L 27,10  L 27,11  L 28,11  L 28,12  L 29,12  L 29,13  L 30,13  L 30,14  L 31,14  Z  " style="fill:rgb(16, 16, 16); fill-opacity:1.000; stroke:none;" />
 <path d="  M 31,31  L 31,16  L 20,16  L 20,31  Z  M 21,30  L 21,17  L 30,17  L 30,30  Z  " style="fill:rgb(16, 16, 16); fill-opacity:1.000; stroke:none;" />
 <path d="  M 2,14  L 1,14  L 1,15  L 2,15  Z  " style="fill:rgb(118, 99, 118); fill-opacity:1.000; stroke:none;" />
 <path d="  M 2,14  L 3,14  L 3,13  L 2,13  Z  " style="fill:rgb(118, 99, 118); fill-opacity:1.000; stroke:none;" />
 <path d="  M 4,12  L 3,12  L 3,13  L 4,13  Z  " style="fill:rgb(118, 99, 118); fill-opacity:1.000; stroke:none;" />
 <path d="  M 5,12  L 5,11  L 4,11  L 4,12  Z  " style="fill:rgb(118, 99, 118); fill-opacity:1.000; stroke:none;" />
 <path d="  M 5,10  L 5,11  L 6,11  L 6,10  Z  " style="fill:rgb(118, 99, 118); fill-opacity:1.000; stroke:none;" />
 <path d="  M 7,9  L 6,9  L 6,10  L 7,10  Z  " style="fill:rgb(118, 99, 118); fill-opacity:1.000; stroke:none;" />
 <path d="  M 13,17  L 13,15  L 11,15  L 11,16  L 12,16  L 12,17  Z  " style="fill:rgb(118, 99, 118); fill-opacity:1.000; stroke:none;" />
 <path d="  M 12,32  L 13,32  L 13,31  L 12,31  Z  " style="fill:rgb(118, 99, 118); fill-opacity:1.000; stroke:none;" />
 <path d="  M 17,1  L 17,0  L 15,0  L 15,1  Z  " style="fill:rgb(118, 99, 118); fill-opacity:1.000; stroke:none;" />
 <path d="  M 20,16  L 21,16  L 21,15  L 19,15  L 19,17  L 20,17  Z  " style="fill:rgb(118, 99, 118); fill-opacity:1.000; stroke:none;" />
 <path d="  M 20,32  L 20,31  L 19,31  L 19,32  Z  " style="fill:rgb(118, 99, 118); fill-opacity:1.000; stroke:none;" />
 <path d="  M 26,10  L 26,9  L 25,9  L 25,10  Z  " style="fill:rgb(118, 99, 118); fill-opacity:1.000; stroke:none;" />
 <path d="  M 26,11  L 27,11  L 27,10  L 26,10  Z  " style="fill:rgb(118, 99, 118); fill-opacity:1.000; stroke:none;" />
 <path d="  M 27,12  L 28,12  L 28,11  L 27,11  Z  " style="fill:rgb(118, 99, 118); fill-opacity:1.000; stroke:none;" />
 <path d="  M 28,13  L 29,13  L 29,12  L 28,12  Z  " style="fill:rgb(118, 99, 118); fill-opacity:1.000; stroke:none;" />
 <path d="  M 29,13  L 29,14  L 30,14  L 30,13  Z  " style="fill:rgb(118, 99, 118); fill-opacity:1.000; stroke:none;" />
 <path d="  M 30,14  L 30,15  L 31,15  L 31,14  Z  " style="fill:rgb(118, 99, 118); fill-opacity:1.000; stroke:none;" />
 <path d="  M 14,14  L 14,13  L 7,13  L 7,12  L 6,12  L 6,13  L 5,13  L 5,14  Z  " style="fill:rgb(150, 120, 150); fill-opacity:1.000; stroke:none;" />
 <path d="  M 7,12  L 8,12  L 8,11  L 7,11  Z  " style="fill:rgb(150, 120, 150); fill-opacity:1.000; stroke:none;" />
 <path d="  M 9,11  L 9,10  L 8,10  L 8,11  Z  " style="fill:rgb(150, 120, 150); fill-opacity:1.000; stroke:none;" />
 <path d="  M 9,10  L 10,10  L 10,9  L 9,9  Z  " style="fill:rgb(150, 120, 150); fill-opacity:1.000; stroke:none;" />
 <path d="  M 10,9  L 11,9  L 11,8  L 10,8  Z  " style="fill:rgb(150, 120, 150); fill-opacity:1.000; stroke:none;" />
 <path d="  M 11,7  L 11,8  L 12,8  L 12,7  Z  " style="fill:rgb(150, 120, 150); fill-opacity:1.000; stroke:none;" />
 <path d="  M 13,6  L 12,6  L 12,7  L 13,7  Z  " style="fill:rgb(150, 120, 150); fill-opacity:1.000; stroke:none;" />
 <path d="  M 13,5  L 13,6  L 14,6  L 14,5  Z  " style="fill:rgb(150, 120, 150); fill-opacity:1.000; stroke:none;" />
 <path d="  M 15,5  L 15,4  L 14,4  L 14,5  Z  " style="fill:rgb(150, 120, 150); fill-opacity:1.000; stroke:none;" />
 <path d="  M 18,30  L 18,29  L 14,29  L 14,30  Z  " style="fill:rgb(150, 120, 150); fill-opacity:1.000; stroke:none;" />
 <path d="  M 15,3  L 15,4  L 17,4  L 17,3  Z  " style="fill:rgb(150, 120, 150); fill-opacity:1.000; stroke:none;" />
 <path d="  M 18,4  L 17,4  L 17,5  L 18,5  Z  " style="fill:rgb(150, 120, 150); fill-opacity:1.000; stroke:none;" />
 <path d="  M 19,6  L 19,5  L 18,5  L 18,6  Z  " style="fill:rgb(150, 120, 150); fill-opacity:1.000; stroke:none;" />
 <path d="  M 26,13  L 26,12  L 25,12  L 25,13  L 18,13  L 18,14  L 27,14  L 27,13  Z  " style="fill:rgb(150, 120, 150); fill-opacity:1.000; stroke:none;" />
 <path d="  M 20,6  L 19,6  L 19,7  L 20,7  Z  " style="fill:rgb(150, 120, 150); fill-opacity:1.000; stroke:none;" />
 <path d="  M 21,7  L 20,7  L 20,8  L 21,8  Z  " style="fill:rgb(150, 120, 150); fill-opacity:1.000; stroke:none;" />
 <path d="  M 21,9  L 22,9  L 22,8  L 21,8  Z  " style="fill:rgb(150, 120, 150); fill-opacity:1.000; stroke:none;" />
 <path d="  M 22,10  L 23,10  L 23,9  L 22,9  Z  " style="fill:rgb(150, 120, 150); fill-opacity:1.000; stroke:none;" />
 <path d="  M 24,11  L 24,10  L 23,10  L 23,11  Z  " style="fill:rgb(150, 120, 150); fill-opacity:1.000; stroke:none;" />
 <path d="  M 25,12  L 25,11  L 24,11  L 24,12  Z  " style="fill:rgb(150, 120, 150); fill-opacity:1.000; stroke:none;" />
 <path d="  M 7,13  L 8,13  L 8,12  L 7,12  Z  " style="fill:rgb(215, 179, 215); fill-opacity:1.000; stroke:none;" />
 <path d="  M 8,12  L 9,12  L 9,11  L 8,11  Z  " style="fill:rgb(215, 179, 215); fill-opacity:1.000; stroke:none;" />
 <path d="  M 9,11  L 10,11  L 10,10  L 9,10  Z  " style="fill:rgb(215, 179, 215); fill-opacity:1.000; stroke:none;" />
 <path d="  M 10,9  L 10,10  L 11,10  L 11,9  Z  " style="fill:rgb(215, 179, 215); fill-opacity:1.000; stroke:none;" />
 <path d="  M 12,9  L 12,8  L 11,8  L 11,9  Z  " style="fill:rgb(215, 179, 215); fill-opacity:1.000; stroke:none;" />
 <path d="  M 13,8  L 13,7  L 12,7  L 12,8  Z  " style="fill:rgb(215, 179, 215); fill-opacity:1.000; stroke:none;" />
 <path d="  M 14,6  L 13,6  L 13,7  L 14,7  Z  " style="fill:rgb(215, 179, 215); fill-opacity:1.000; stroke:none;" />
 <path d="  M 14,6  L 15,6  L 15,5  L 14,5  Z  " style="fill:rgb(215, 179, 215); fill-opacity:1.000; stroke:none;" />
 <path d="  M 18,29  L 18,23  L 14,23  L 14,29  Z  " style="fill:rgb(215, 179, 215); fill-opacity:1.000; stroke:none;" />
 <path d="  M 15,5  L 17,5  L 17,4  L 15,4  Z  " style="fill:rgb(215, 179, 215); fill-opacity:1.000; stroke:none;" />
 <path d="  M 17,6  L 18,6  L 18,5  L 17,5  Z  " style="fill:rgb(215, 179, 215); fill-opacity:1.000; stroke:none;" />
 <path d="  M 19,6  L 18,6  L 18,7  L 19,7  Z  " style="fill:rgb(215, 179, 215); fill-opacity:1.000; stroke:none;" />
 <path d="  M 20,8  L 20,7  L 19,7  L 19,8  Z  " style="fill:rgb(215, 179, 215); fill-opacity:1.000; stroke:none;" />
 <path d="  M 21,8  L 20,8  L 20,9  L 21,9  Z  " style="fill:rgb(215, 179, 215); fill-opacity:1.000; stroke:none;" />
 <path d="  M 21,9  L 21,10  L 22,10  L 22,9  Z  " style="fill:rgb(215, 179, 215); fill-opacity:1.000; stroke:none;" />
 <path d="  M 22,10  L 22,11  L 23,11  L 23,10  Z  " style="fill:rgb(215, 179, 215); fill-opacity:1.000; stroke:none;" />
 <path d="  M 23,11  L 23,12  L 24,12  L 24,11  Z  " style="fill:rgb(215, 179, 215); fill-opacity:1.000; stroke:none;" />
 <path d="  M 24,13  L 25,13  L 25,12  L 24,12  Z  " style="fill:rgb(215, 179, 215); fill-opacity:1.000; stroke:none;" />
 <path d="  M 10,10  L 10,11  L 9,11  L 9,12  L 8,12  L 8,13  L 14,13  L 14,23  L 18,23  L 18,13  L 24,13  L 24,12  L 23,12  L 23,11  L 22,11  L 22,10  L 21,10  L 21,9  L 20,9  L 20,8  L 19,8  L 19,7  L 18,7  L 18,6  L 17,6  L 17,5  L 15,5  L 15,6  L 14,6  L 14,7  L 13,7  L 13,8  L 12,8  L 12,9  L 11,9  L 11,10  Z  " style="fill:rgb(215, 194, 215); fill-opacity:1.000; stroke:none;" />
</svg>
