<?xml version="1.0" encoding="UTF-8" standalone="no"?>
<!DOCTYPE svg PUBLIC "-//W3C//DTD SVG 1.1//EN" 
  "http://www.w3.org/Graphics/SVG/1.1/DTD/svg11.dtd">
<svg width="32" height="32"
	 xmlns="http://www.w3.org/2000/svg" version="1.1">
 <path d="  M 1,1  L 4,1  L 4,0  L 0,0  L 0,5  L 1,5  Z  " style="fill:rgb(193, 146, 107); fill-opacity:1.000; stroke:none;" />
 <path d="  M 1,14  L 1,13  L 0,13  L 0,14  Z  " style="fill:rgb(193, 146, 107); fill-opacity:1.000; stroke:none;" />
 <path d="  M 0,20  L 1,20  L 1,17  L 0,17  Z  " style="fill:rgb(193, 146, 107); fill-opacity:1.000; stroke:none;" />
 <path d="  M 1,24  L 0,24  L 0,30  L 1,30  Z  " style="fill:rgb(193, 146, 107); fill-opacity:1.000; stroke:none;" />
 <path d="  M 1,15  L 1,16  L 8,16  L 8,15  Z  " style="fill:rgb(193, 146, 107); fill-opacity:1.000; stroke:none;" />
 <path d="  M 11,1  L 11,0  L 8,0  L 8,1  Z  " style="fill:rgb(193, 146, 107); fill-opacity:1.000; stroke:none;" />
 <path d="  M 9,14  L 9,15  L 23,15  L 23,14  Z  " style="fill:rgb(193, 146, 107); fill-opacity:1.000; stroke:none;" />
 <path d="  M 18,20  L 18,19  L 14,19  L 14,20  Z  " style="fill:rgb(193, 146, 107); fill-opacity:1.000; stroke:none;" />
 <path d="  M 16,1  L 16,0  L 15,0  L 15,1  Z  " style="fill:rgb(193, 146, 107); fill-opacity:1.000; stroke:none;" />
 <path d="  M 19,19  L 19,18  L 18,18  L 18,19  Z  " style="fill:rgb(193, 146, 107); fill-opacity:1.000; stroke:none;" />
 <path d="  M 25,1  L 25,0  L 19,0  L 19,1  Z  " style="fill:rgb(193, 146, 107); fill-opacity:1.000; stroke:none;" />
 <path d="  M 20,12  L 19,12  L 19,13  L 20,13  Z  " style="fill:rgb(193, 146, 107); fill-opacity:1.000; stroke:none;" />
 <path d="  M 20,17  L 19,17  L 19,18  L 20,18  Z  " style="fill:rgb(193, 146, 107); fill-opacity:1.000; stroke:none;" />
 <path d="  M 31,16  L 31,15  L 24,15  L 24,16  Z  " style="fill:rgb(193, 146, 107); fill-opacity:1.000; stroke:none;" />
 <path d="  M 1,5  L 0,5  L 0,9  L 1,9  Z  " style="fill:rgb(210, 164, 120); fill-opacity:1.000; stroke:none;" />
 <path d="  M 0,13  L 1,13  L 1,11  L 0,11  Z  " style="fill:rgb(210, 164, 120); fill-opacity:1.000; stroke:none;" />
 <path d="  M 0,17  L 1,17  L 1,14  L 0,14  Z  " style="fill:rgb(210, 164, 120); fill-opacity:1.000; stroke:none;" />
 <path d="  M 1,20  L 0,20  L 0,24  L 1,24  Z  " style="fill:rgb(210, 164, 120); fill-opacity:1.000; stroke:none;" />
 <path d="  M 1,31  L 1,30  L 0,30  L 0,31  Z  " style="fill:rgb(210, 164, 120); fill-opacity:1.000; stroke:none;" />
 <path d="  M 8,1  L 8,0  L 4,0  L 4,1  Z  " style="fill:rgb(210, 164, 120); fill-opacity:1.000; stroke:none;" />
 <path d="  M 11,0  L 11,1  L 15,1  L 15,0  Z  " style="fill:rgb(210, 164, 120); fill-opacity:1.000; stroke:none;" />
 <path d="  M 12,12  L 13,12  L 13,8  L 12,8  Z  " style="fill:rgb(210, 164, 120); fill-opacity:1.000; stroke:none;" />
 <path d="  M 19,1  L 19,0  L 16,0  L 16,1  Z  " style="fill:rgb(210, 164, 120); fill-opacity:1.000; stroke:none;" />
 <path d="  M 19,12  L 20,12  L 20,8  L 19,8  Z  " style="fill:rgb(210, 164, 120); fill-opacity:1.000; stroke:none;" />
 <path d="  M 25,0  L 25,1  L 31,1  L 31,0  Z  " style="fill:rgb(210, 164, 120); fill-opacity:1.000; stroke:none;" />
 <path d="  M 0,10  L 1,10  L 1,9  L 0,9  Z  " style="fill:rgb(53, 53, 53); fill-opacity:1.000; stroke:none;" />
 <path d="  M 0,32  L 1,32  L 1,31  L 0,31  Z  " style="fill:rgb(53, 53, 53); fill-opacity:1.000; stroke:none;" />
 <path d="  M 0,11  L 1,11  L 1,10  L 0,10  Z  " style="fill:rgb(111, 111, 111); fill-opacity:1.000; stroke:none;" />
 <path d="  M 1,3  L 2,3  L 2,2  L 3,2  L 3,1  L 1,1  Z  " style="fill:rgb(151, 106, 68); fill-opacity:1.000; stroke:none;" />
 <path d="  M 7,14  L 8,14  L 8,10  L 1,10  L 1,11  L 7,11  Z  " style="fill:rgb(151, 106, 68); fill-opacity:1.000; stroke:none;" />
 <path d="  M 1,12  L 1,14  L 3,14  L 3,13  L 2,13  L 2,12  Z  " style="fill:rgb(151, 106, 68); fill-opacity:1.000; stroke:none;" />
 <path d="  M 2,8  L 2,9  L 3,9  L 3,8  Z  " style="fill:rgb(151, 106, 68); fill-opacity:1.000; stroke:none;" />
 <path d="  M 3,24  L 3,25  L 4,25  L 4,24  Z  " style="fill:rgb(151, 106, 68); fill-opacity:1.000; stroke:none;" />
 <path d="  M 9,2  L 8,2  L 8,3  L 9,3  Z  " style="fill:rgb(151, 106, 68); fill-opacity:1.000; stroke:none;" />
 <path d="  M 9,10  L 9,9  L 8,9  L 8,10  Z  " style="fill:rgb(151, 106, 68); fill-opacity:1.000; stroke:none;" />
 <path d="  M 9,7  L 9,8  L 10,8  L 10,7  Z  " style="fill:rgb(151, 106, 68); fill-opacity:1.000; stroke:none;" />
 <path d="  M 9,18  L 10,18  L 10,17  L 9,17  Z  " style="fill:rgb(151, 106, 68); fill-opacity:1.000; stroke:none;" />
 <path d="  M 10,7  L 11,7  L 11,6  L 10,6  Z  " style="fill:rgb(151, 106, 68); fill-opacity:1.000; stroke:none;" />
 <path d="  M 11,22  L 11,21  L 10,21  L 10,22  Z  " style="fill:rgb(151, 106, 68); fill-opacity:1.000; stroke:none;" />
 <path d="  M 11,23  L 10,23  L 10,24  L 11,24  Z  " style="fill:rgb(151, 106, 68); fill-opacity:1.000; stroke:none;" />
 <path d="  M 12,1  L 11,1  L 11,4  L 12,4  Z  " style="fill:rgb(151, 106, 68); fill-opacity:1.000; stroke:none;" />
 <path d="  M 13,6  L 13,5  L 12,5  L 12,6  Z  " style="fill:rgb(151, 106, 68); fill-opacity:1.000; stroke:none;" />
 <path d="  M 13,8  L 13,7  L 12,7  L 12,8  Z  " style="fill:rgb(151, 106, 68); fill-opacity:1.000; stroke:none;" />
 <path d="  M 13,30  L 13,20  L 14,20  L 14,19  L 13,19  L 13,18  L 12,18  L 12,30  Z  " style="fill:rgb(151, 106, 68); fill-opacity:1.000; stroke:none;" />
 <path d="  M 13,4  L 13,5  L 19,5  L 19,4  Z  " style="fill:rgb(151, 106, 68); fill-opacity:1.000; stroke:none;" />
 <path d="  M 20,18  L 19,18  L 19,19  L 18,19  L 18,20  L 14,20  L 14,21  L 15,21  L 15,22  L 18,22  L 18,21  L 19,21  L 19,20  L 20,20  Z  " style="fill:rgb(151, 106, 68); fill-opacity:1.000; stroke:none;" />
 <path d="  M 14,28  L 14,29  L 15,29  L 15,28  Z  " style="fill:rgb(151, 106, 68); fill-opacity:1.000; stroke:none;" />
 <path d="  M 17,26  L 17,25  L 16,25  L 16,26  Z  " style="fill:rgb(151, 106, 68); fill-opacity:1.000; stroke:none;" />
 <path d="  M 19,6  L 20,6  L 20,5  L 19,5  Z  " style="fill:rgb(151, 106, 68); fill-opacity:1.000; stroke:none;" />
 <path d="  M 20,8  L 20,7  L 19,7  L 19,8  Z  " style="fill:rgb(151, 106, 68); fill-opacity:1.000; stroke:none;" />
 <path d="  M 20,4  L 21,4  L 21,1  L 20,1  Z  " style="fill:rgb(151, 106, 68); fill-opacity:1.000; stroke:none;" />
 <path d="  M 22,6  L 21,6  L 21,7  L 22,7  Z  " style="fill:rgb(151, 106, 68); fill-opacity:1.000; stroke:none;" />
 <path d="  M 22,27  L 22,26  L 21,26  L 21,27  Z  " style="fill:rgb(151, 106, 68); fill-opacity:1.000; stroke:none;" />
 <path d="  M 23,7  L 22,7  L 22,8  L 23,8  Z  " style="fill:rgb(151, 106, 68); fill-opacity:1.000; stroke:none;" />
 <path d="  M 22,19  L 23,19  L 23,18  L 22,18  Z  " style="fill:rgb(151, 106, 68); fill-opacity:1.000; stroke:none;" />
 <path d="  M 24,10  L 24,8  L 23,8  L 23,10  Z  " style="fill:rgb(151, 106, 68); fill-opacity:1.000; stroke:none;" />
 <path d="  M 24,1  L 24,2  L 25,2  L 25,1  Z  " style="fill:rgb(151, 106, 68); fill-opacity:1.000; stroke:none;" />
 <path d="  M 24,10  L 24,14  L 25,14  L 25,11  L 31,11  L 31,10  Z  " style="fill:rgb(151, 106, 68); fill-opacity:1.000; stroke:none;" />
 <path d="  M 31,14  L 31,13  L 30,13  L 30,14  Z  " style="fill:rgb(151, 106, 68); fill-opacity:1.000; stroke:none;" />
 <path d="  M 2,5  L 2,3  L 1,3  L 1,5  Z  " style="fill:rgb(161, 114, 73); fill-opacity:1.000; stroke:none;" />
 <path d="  M 2,18  L 2,16  L 1,16  L 1,18  Z  " style="fill:rgb(161, 114, 73); fill-opacity:1.000; stroke:none;" />
 <path d="  M 2,21  L 1,21  L 1,26  L 2,26  Z  " style="fill:rgb(161, 114, 73); fill-opacity:1.000; stroke:none;" />
 <path d="  M 1,28  L 2,28  L 2,27  L 1,27  Z  " style="fill:rgb(161, 114, 73); fill-opacity:1.000; stroke:none;" />
 <path d="  M 2,31  L 1,31  L 1,32  L 2,32  Z  " style="fill:rgb(161, 114, 73); fill-opacity:1.000; stroke:none;" />
 <path d="  M 10,27  L 10,28  L 11,28  L 11,24  L 10,24  L 10,26  L 2,26  L 2,27  L 3,27  L 3,29  L 4,29  L 4,27  Z  " style="fill:rgb(161, 114, 73); fill-opacity:1.000; stroke:none;" />
 <path d="  M 5,30  L 4,30  L 4,32  L 5,32  Z  " style="fill:rgb(161, 114, 73); fill-opacity:1.000; stroke:none;" />
 <path d="  M 12,16  L 12,15  L 8,15  L 8,16  Z  " style="fill:rgb(161, 114, 73); fill-opacity:1.000; stroke:none;" />
 <path d="  M 11,3  L 10,3  L 10,6  L 11,6  Z  " style="fill:rgb(161, 114, 73); fill-opacity:1.000; stroke:none;" />
 <path d="  M 11,29  L 10,29  L 10,30  L 11,30  Z  " style="fill:rgb(161, 114, 73); fill-opacity:1.000; stroke:none;" />
 <path d="  M 20,16  L 24,16  L 24,15  L 20,15  Z  " style="fill:rgb(161, 114, 73); fill-opacity:1.000; stroke:none;" />
 <path d="  M 22,5  L 21,5  L 21,6  L 22,6  Z  " style="fill:rgb(161, 114, 73); fill-opacity:1.000; stroke:none;" />
 <path d="  M 23,7  L 23,6  L 22,6  L 22,7  Z  " style="fill:rgb(161, 114, 73); fill-opacity:1.000; stroke:none;" />
 <path d="  M 27,19  L 28,19  L 28,18  L 27,18  Z  " style="fill:rgb(161, 114, 73); fill-opacity:1.000; stroke:none;" />
 <path d="  M 30,2  L 30,3  L 31,3  L 31,1  L 29,1  L 29,2  Z  " style="fill:rgb(161, 114, 73); fill-opacity:1.000; stroke:none;" />
 <path d="  M 3,9  L 2,9  L 2,8  L 3,8  Z  M 7,10  L 7,9  L 4,9  L 4,8  L 3,8  L 3,6  L 2,6  L 2,5  L 1,5  L 1,10  Z  " style="fill:rgb(174, 126, 90); fill-opacity:1.000; stroke:none;" />
 <path d="  M 1,11  L 1,12  L 2,12  L 2,11  Z  " style="fill:rgb(174, 126, 90); fill-opacity:1.000; stroke:none;" />
 <path d="  M 2,18  L 1,18  L 1,21  L 2,21  Z  " style="fill:rgb(174, 126, 90); fill-opacity:1.000; stroke:none;" />
 <path d="  M 1,26  L 1,27  L 2,27  L 2,26  Z  " style="fill:rgb(174, 126, 90); fill-opacity:1.000; stroke:none;" />
 <path d="  M 1,31  L 2,31  L 2,28  L 1,28  Z  " style="fill:rgb(174, 126, 90); fill-opacity:1.000; stroke:none;" />
 <path d="  M 3,3  L 3,2  L 2,2  L 2,3  Z  " style="fill:rgb(174, 126, 90); fill-opacity:1.000; stroke:none;" />
 <path d="  M 3,12  L 2,12  L 2,13  L 3,13  Z  " style="fill:rgb(174, 126, 90); fill-opacity:1.000; stroke:none;" />
 <path d="  M 2,26  L 9,26  L 9,25  L 6,25  L 6,24  L 4,24  L 4,23  L 3,23  L 3,21  L 2,21  Z  M 4,25  L 3,25  L 3,24  L 4,24  Z  " style="fill:rgb(174, 126, 90); fill-opacity:1.000; stroke:none;" />
 <path d="  M 3,1  L 3,2  L 5,2  L 5,3  L 7,3  L 7,4  L 9,4  L 9,5  L 10,5  L 10,3  L 11,3  L 11,1  Z  M 9,3  L 8,3  L 8,2  L 9,2  Z  " style="fill:rgb(174, 126, 90); fill-opacity:1.000; stroke:none;" />
 <path d="  M 3,13  L 3,14  L 7,14  L 7,13  Z  " style="fill:rgb(174, 126, 90); fill-opacity:1.000; stroke:none;" />
 <path d="  M 11,16  L 3,16  L 3,17  L 5,17  L 5,18  L 8,18  L 8,19  L 9,19  L 9,23  L 11,23  L 11,22  L 10,22  L 10,21  L 11,21  Z  M 10,18  L 9,18  L 9,17  L 10,17  Z  " style="fill:rgb(174, 126, 90); fill-opacity:1.000; stroke:none;" />
 <path d="  M 8,7  L 8,9  L 9,9  L 9,7  Z  " style="fill:rgb(174, 126, 90); fill-opacity:1.000; stroke:none;" />
 <path d="  M 10,7  L 10,6  L 9,6  L 9,7  Z  " style="fill:rgb(174, 126, 90); fill-opacity:1.000; stroke:none;" />
 <path d="  M 11,29  L 11,28  L 10,28  L 10,29  Z  " style="fill:rgb(174, 126, 90); fill-opacity:1.000; stroke:none;" />
 <path d="  M 11,32  L 11,30  L 10,30  L 10,32  Z  " style="fill:rgb(174, 126, 90); fill-opacity:1.000; stroke:none;" />
 <path d="  M 13,30  L 12,30  L 12,32  L 13,32  L 13,31  L 14,31  L 14,30  L 16,30  L 16,29  L 17,29  L 17,30  L 18,30  L 18,25  L 19,25  L 19,21  L 18,21  L 18,22  L 15,22  L 15,21  L 14,21  L 14,20  L 13,20  Z  M 17,25  L 17,26  L 16,26  L 16,25  Z  M 14,28  L 15,28  L 15,29  L 14,29  Z  " style="fill:rgb(174, 126, 90); fill-opacity:1.000; stroke:none;" />
 <path d="  M 22,4  L 23,4  L 23,3  L 28,3  L 28,2  L 29,2  L 29,1  L 25,1  L 25,2  L 24,2  L 24,1  L 21,1  L 21,5  L 22,5  Z  " style="fill:rgb(174, 126, 90); fill-opacity:1.000; stroke:none;" />
 <path d="  M 21,26  L 22,26  L 22,25  L 23,25  L 23,21  L 24,21  L 24,19  L 25,19  L 25,18  L 29,18  L 29,21  L 30,21  L 30,23  L 31,23  L 31,16  L 21,16  Z  M 22,19  L 22,18  L 23,18  L 23,19  Z  " style="fill:rgb(174, 126, 90); fill-opacity:1.000; stroke:none;" />
 <path d="  M 21,32  L 23,32  L 23,31  L 22,31  L 22,27  L 21,27  Z  " style="fill:rgb(174, 126, 90); fill-opacity:1.000; stroke:none;" />
 <path d="  M 29,26  L 22,26  L 22,27  L 30,27  L 30,24  L 29,24  Z  " style="fill:rgb(174, 126, 90); fill-opacity:1.000; stroke:none;" />
 <path d="  M 23,8  L 24,8  L 24,7  L 23,7  Z  " style="fill:rgb(174, 126, 90); fill-opacity:1.000; stroke:none;" />
 <path d="  M 25,9  L 25,8  L 24,8  L 24,10  L 31,10  L 31,3  L 30,3  L 30,6  L 29,6  L 29,7  L 28,7  L 28,8  L 27,8  L 27,9  Z  " style="fill:rgb(174, 126, 90); fill-opacity:1.000; stroke:none;" />
 <path d="  M 24,31  L 24,32  L 31,32  L 31,27  L 30,27  L 30,31  Z  " style="fill:rgb(174, 126, 90); fill-opacity:1.000; stroke:none;" />
 <path d="  M 30,14  L 30,13  L 25,13  L 25,14  Z  " style="fill:rgb(174, 126, 90); fill-opacity:1.000; stroke:none;" />
 <path d="  M 27,22  L 28,22  L 28,19  L 27,19  Z  " style="fill:rgb(174, 126, 90); fill-opacity:1.000; stroke:none;" />
 <path d="  M 28,24  L 29,24  L 29,22  L 28,22  Z  " style="fill:rgb(174, 126, 90); fill-opacity:1.000; stroke:none;" />
 <path d="  M 30,2  L 29,2  L 29,3  L 30,3  Z  " style="fill:rgb(174, 126, 90); fill-opacity:1.000; stroke:none;" />
 <path d="  M 1,14  L 1,15  L 9,15  L 9,10  L 8,10  L 8,14  Z  " style="fill:rgb(120, 84, 55); fill-opacity:1.000; stroke:none;" />
 <path d="  M 4,29  L 4,30  L 5,30  L 5,29  Z  " style="fill:rgb(120, 84, 55); fill-opacity:1.000; stroke:none;" />
 <path d="  M 9,10  L 10,10  L 10,8  L 9,8  Z  " style="fill:rgb(120, 84, 55); fill-opacity:1.000; stroke:none;" />
 <path d="  M 10,7  L 10,8  L 11,8  L 11,7  Z  " style="fill:rgb(120, 84, 55); fill-opacity:1.000; stroke:none;" />
 <path d="  M 11,4  L 11,7  L 13,7  L 13,6  L 12,6  L 12,4  Z  " style="fill:rgb(120, 84, 55); fill-opacity:1.000; stroke:none;" />
 <path d="  M 11,32  L 12,32  L 12,16  L 11,16  Z  " style="fill:rgb(120, 84, 55); fill-opacity:1.000; stroke:none;" />
 <path d="  M 20,16  L 20,15  L 12,15  L 12,16  Z  " style="fill:rgb(120, 84, 55); fill-opacity:1.000; stroke:none;" />
 <path d="  M 17,6  L 17,5  L 13,5  L 13,6  Z  " style="fill:rgb(120, 84, 55); fill-opacity:1.000; stroke:none;" />
 <path d="  M 21,4  L 20,4  L 20,6  L 21,6  Z  " style="fill:rgb(120, 84, 55); fill-opacity:1.000; stroke:none;" />
 <path d="  M 20,32  L 21,32  L 21,16  L 20,16  Z  " style="fill:rgb(120, 84, 55); fill-opacity:1.000; stroke:none;" />
 <path d="  M 21,8  L 22,8  L 22,7  L 21,7  Z  " style="fill:rgb(120, 84, 55); fill-opacity:1.000; stroke:none;" />
 <path d="  M 23,10  L 23,8  L 22,8  L 22,10  Z  " style="fill:rgb(120, 84, 55); fill-opacity:1.000; stroke:none;" />
 <path d="  M 24,10  L 23,10  L 23,15  L 24,15  Z  " style="fill:rgb(120, 84, 55); fill-opacity:1.000; stroke:none;" />
 <path d="  M 32,0  L 31,0  L 31,32  L 32,32  Z  " style="fill:rgb(120, 84, 55); fill-opacity:1.000; stroke:none;" />
 <path d="  M 9,5  L 9,4  L 7,4  L 7,3  L 5,3  L 5,2  L 3,2  L 3,3  L 2,3  L 2,6  L 3,6  L 3,8  L 4,8  L 4,9  L 7,9  L 7,10  L 8,10  L 8,7  L 9,7  L 9,6  L 10,6  L 10,5  Z  " style="fill:rgb(185, 134, 97); fill-opacity:1.000; stroke:none;" />
 <path d="  M 7,11  L 2,11  L 2,12  L 3,12  L 3,13  L 7,13  Z  " style="fill:rgb(185, 134, 97); fill-opacity:1.000; stroke:none;" />
 <path d="  M 9,19  L 8,19  L 8,18  L 5,18  L 5,17  L 3,17  L 3,16  L 2,16  L 2,21  L 3,21  L 3,23  L 4,23  L 4,24  L 6,24  L 6,25  L 9,25  L 9,26  L 10,26  L 10,23  L 9,23  Z  " style="fill:rgb(185, 134, 97); fill-opacity:1.000; stroke:none;" />
 <path d="  M 4,32  L 4,29  L 3,29  L 3,27  L 2,27  L 2,32  Z  " style="fill:rgb(185, 134, 97); fill-opacity:1.000; stroke:none;" />
 <path d="  M 4,27  L 4,29  L 5,29  L 5,32  L 10,32  L 10,27  Z  " style="fill:rgb(185, 134, 97); fill-opacity:1.000; stroke:none;" />
 <path d="  M 12,1  L 12,5  L 13,5  L 13,4  L 19,4  L 19,5  L 20,5  L 20,1  Z  " style="fill:rgb(185, 134, 97); fill-opacity:1.000; stroke:none;" />
 <path d="  M 13,12  L 12,12  L 12,14  L 13,14  Z  " style="fill:rgb(185, 134, 97); fill-opacity:1.000; stroke:none;" />
 <path d="  M 13,16  L 12,16  L 12,18  L 13,18  Z  " style="fill:rgb(185, 134, 97); fill-opacity:1.000; stroke:none;" />
 <path d="  M 14,18  L 13,18  L 13,19  L 14,19  Z  " style="fill:rgb(185, 134, 97); fill-opacity:1.000; stroke:none;" />
 <path d="  M 20,32  L 20,20  L 19,20  L 19,25  L 18,25  L 18,30  L 17,30  L 17,29  L 16,29  L 16,30  L 14,30  L 14,31  L 13,31  L 13,32  Z  " style="fill:rgb(185, 134, 97); fill-opacity:1.000; stroke:none;" />
 <path d="  M 19,14  L 20,14  L 20,13  L 19,13  Z  " style="fill:rgb(185, 134, 97); fill-opacity:1.000; stroke:none;" />
 <path d="  M 19,17  L 20,17  L 20,16  L 19,16  Z  " style="fill:rgb(185, 134, 97); fill-opacity:1.000; stroke:none;" />
 <path d="  M 29,3  L 29,2  L 28,2  L 28,3  L 23,3  L 23,4  L 22,4  L 22,6  L 23,6  L 23,7  L 24,7  L 24,8  L 25,8  L 25,9  L 27,9  L 27,8  L 28,8  L 28,7  L 29,7  L 29,6  L 30,6  L 30,3  Z  " style="fill:rgb(185, 134, 97); fill-opacity:1.000; stroke:none;" />
 <path d="  M 29,26  L 29,24  L 28,24  L 28,22  L 27,22  L 27,18  L 25,18  L 25,19  L 24,19  L 24,21  L 23,21  L 23,25  L 22,25  L 22,26  Z  " style="fill:rgb(185, 134, 97); fill-opacity:1.000; stroke:none;" />
 <path d="  M 28,29  L 28,30  L 25,30  L 25,31  L 30,31  L 30,27  L 22,27  L 22,31  L 23,31  L 23,30  L 24,30  L 24,29  Z  " style="fill:rgb(185, 134, 97); fill-opacity:1.000; stroke:none;" />
 <path d="  M 25,13  L 31,13  L 31,11  L 25,11  Z  " style="fill:rgb(185, 134, 97); fill-opacity:1.000; stroke:none;" />
 <path d="  M 29,24  L 30,24  L 30,27  L 31,27  L 31,23  L 30,23  L 30,21  L 29,21  L 29,18  L 28,18  L 28,22  L 29,22  Z  " style="fill:rgb(185, 134, 97); fill-opacity:1.000; stroke:none;" />
 <path d="  M 17,6  L 19,6  L 19,5  L 17,5  Z  " style="fill:rgb(104, 70, 47); fill-opacity:1.000; stroke:none;" />
 <path d="  M 19,6  L 19,7  L 21,7  L 21,6  Z  " style="fill:rgb(104, 70, 47); fill-opacity:1.000; stroke:none;" />
 <path d="  M 24,14  L 24,15  L 31,15  L 31,14  Z  " style="fill:rgb(104, 70, 47); fill-opacity:1.000; stroke:none;" />
 <path d="  M 23,31  L 24,31  L 24,30  L 23,30  Z  " style="fill:rgb(104, 104, 104); fill-opacity:1.000; stroke:none;" />
 <path d="  M 24,30  L 25,30  L 25,29  L 24,29  Z  " style="fill:rgb(104, 104, 104); fill-opacity:1.000; stroke:none;" />
 <path d="  M 23,31  L 23,32  L 24,32  L 24,31  Z  " style="fill:rgb(51, 51, 51); fill-opacity:1.000; stroke:none;" />
 <path d="  M 27,29  L 27,30  L 28,30  L 28,29  Z  " style="fill:rgb(51, 51, 51); fill-opacity:1.000; stroke:none;" />
 <path d="  M 25,31  L 25,30  L 24,30  L 24,31  Z  " style="fill:rgb(73, 73, 73); fill-opacity:1.000; stroke:none;" />
 <path d="  M 27,29  L 25,29  L 25,30  L 27,30  Z  " style="fill:rgb(73, 73, 73); fill-opacity:1.000; stroke:none;" />
</svg>
