<?xml version="1.0" encoding="UTF-8" standalone="no"?>
<!DOCTYPE svg PUBLIC "-//W3C//DTD SVG 1.1//EN" 
  "http://www.w3.org/Graphics/SVG/1.1/DTD/svg11.dtd">
<svg width="32" height="32"
	 xmlns="http://www.w3.org/2000/svg" version="1.1">
 <path d="  M 2,4  L 3,4  L 3,2  L 2,2  Z  " style="fill:rgb(150, 116, 65); fill-opacity:1.000; stroke:none;" />
 <path d="  M 2,12  L 3,12  L 3,11  L 2,11  Z  " style="fill:rgb(150, 116, 65); fill-opacity:1.000; stroke:none;" />
 <path d="  M 2,20  L 3,20  L 3,19  L 2,19  Z  " style="fill:rgb(150, 116, 65); fill-opacity:1.000; stroke:none;" />
 <path d="  M 3,28  L 3,26  L 2,26  L 2,28  Z  " style="fill:rgb(150, 116, 65); fill-opacity:1.000; stroke:none;" />
 <path d="  M 4,5  L 4,4  L 3,4  L 3,5  Z  " style="fill:rgb(150, 116, 65); fill-opacity:1.000; stroke:none;" />
 <path d="  M 5,13  L 5,12  L 3,12  L 3,13  Z  " style="fill:rgb(150, 116, 65); fill-opacity:1.000; stroke:none;" />
 <path d="  M 3,20  L 3,21  L 4,21  L 4,20  Z  " style="fill:rgb(150, 116, 65); fill-opacity:1.000; stroke:none;" />
 <path d="  M 5,29  L 5,28  L 3,28  L 3,29  Z  " style="fill:rgb(150, 116, 65); fill-opacity:1.000; stroke:none;" />
 <path d="  M 4,3  L 4,4  L 6,4  L 6,3  Z  " style="fill:rgb(150, 116, 65); fill-opacity:1.000; stroke:none;" />
 <path d="  M 4,10  L 4,11  L 6,11  L 6,9  L 7,9  L 7,8  L 6,8  L 6,7  L 5,7  L 5,10  Z  " style="fill:rgb(150, 116, 65); fill-opacity:1.000; stroke:none;" />
 <path d="  M 4,18  L 4,20  L 6,20  L 6,19  L 5,19  L 5,18  Z  " style="fill:rgb(150, 116, 65); fill-opacity:1.000; stroke:none;" />
 <path d="  M 4,25  L 5,25  L 5,24  L 4,24  Z  " style="fill:rgb(150, 116, 65); fill-opacity:1.000; stroke:none;" />
 <path d="  M 5,26  L 4,26  L 4,27  L 6,27  L 6,26  L 7,26  L 7,24  L 6,24  L 6,25  L 5,25  Z  " style="fill:rgb(150, 116, 65); fill-opacity:1.000; stroke:none;" />
 <path d="  M 6,0  L 5,0  L 5,2  L 7,2  L 7,1  L 6,1  Z  " style="fill:rgb(150, 116, 65); fill-opacity:1.000; stroke:none;" />
 <path d="  M 9,19  L 9,18  L 7,18  L 7,17  L 6,17  L 6,16  L 5,16  L 5,18  L 6,18  L 6,19  Z  " style="fill:rgb(150, 116, 65); fill-opacity:1.000; stroke:none;" />
 <path d="  M 6,4  L 6,5  L 7,5  L 7,4  Z  " style="fill:rgb(150, 116, 65); fill-opacity:1.000; stroke:none;" />
 <path d="  M 7,11  L 6,11  L 6,12  L 7,12  Z  " style="fill:rgb(150, 116, 65); fill-opacity:1.000; stroke:none;" />
 <path d="  M 6,16  L 7,16  L 7,15  L 6,15  Z  " style="fill:rgb(150, 116, 65); fill-opacity:1.000; stroke:none;" />
 <path d="  M 7,28  L 7,27  L 6,27  L 6,28  Z  " style="fill:rgb(150, 116, 65); fill-opacity:1.000; stroke:none;" />
 <path d="  M 6,31  L 6,32  L 7,32  L 7,31  Z  " style="fill:rgb(150, 116, 65); fill-opacity:1.000; stroke:none;" />
 <path d="  M 8,1  L 8,0  L 7,0  L 7,1  Z  " style="fill:rgb(150, 116, 65); fill-opacity:1.000; stroke:none;" />
 <path d="  M 9,2  L 7,2  L 7,3  L 9,3  Z  " style="fill:rgb(150, 116, 65); fill-opacity:1.000; stroke:none;" />
 <path d="  M 7,11  L 8,11  L 8,10  L 7,10  Z  " style="fill:rgb(150, 116, 65); fill-opacity:1.000; stroke:none;" />
 <path d="  M 7,13  L 8,13  L 8,12  L 7,12  Z  " style="fill:rgb(150, 116, 65); fill-opacity:1.000; stroke:none;" />
 <path d="  M 8,20  L 7,20  L 7,21  L 8,21  Z  " style="fill:rgb(150, 116, 65); fill-opacity:1.000; stroke:none;" />
 <path d="  M 7,26  L 7,27  L 9,27  L 9,26  Z  " style="fill:rgb(150, 116, 65); fill-opacity:1.000; stroke:none;" />
 <path d="  M 11,3  L 9,3  L 9,4  L 8,4  L 8,5  L 10,5  L 10,4  L 11,4  Z  " style="fill:rgb(150, 116, 65); fill-opacity:1.000; stroke:none;" />
 <path d="  M 9,29  L 9,28  L 8,28  L 8,29  Z  " style="fill:rgb(150, 116, 65); fill-opacity:1.000; stroke:none;" />
 <path d="  M 9,11  L 9,12  L 11,12  L 11,11  Z  " style="fill:rgb(150, 116, 65); fill-opacity:1.000; stroke:none;" />
 <path d="  M 9,19  L 9,20  L 11,20  L 11,19  Z  " style="fill:rgb(150, 116, 65); fill-opacity:1.000; stroke:none;" />
 <path d="  M 9,27  L 9,28  L 11,28  L 11,27  Z  " style="fill:rgb(150, 116, 65); fill-opacity:1.000; stroke:none;" />
 <path d="  M 11,3  L 13,3  L 13,4  L 15,4  L 15,3  L 14,3  L 14,2  L 11,2  Z  " style="fill:rgb(150, 116, 65); fill-opacity:1.000; stroke:none;" />
 <path d="  M 12,21  L 12,20  L 11,20  L 11,21  Z  " style="fill:rgb(150, 116, 65); fill-opacity:1.000; stroke:none;" />
 <path d="  M 11,28  L 11,29  L 13,29  L 13,28  Z  " style="fill:rgb(150, 116, 65); fill-opacity:1.000; stroke:none;" />
 <path d="  M 13,4  L 12,4  L 12,5  L 13,5  Z  " style="fill:rgb(150, 116, 65); fill-opacity:1.000; stroke:none;" />
 <path d="  M 14,11  L 14,10  L 12,10  L 12,11  Z  " style="fill:rgb(150, 116, 65); fill-opacity:1.000; stroke:none;" />
 <path d="  M 13,12  L 12,12  L 12,13  L 13,13  Z  " style="fill:rgb(150, 116, 65); fill-opacity:1.000; stroke:none;" />
 <path d="  M 14,18  L 12,18  L 12,19  L 14,19  Z  " style="fill:rgb(150, 116, 65); fill-opacity:1.000; stroke:none;" />
 <path d="  M 12,27  L 13,27  L 13,26  L 12,26  Z  " style="fill:rgb(150, 116, 65); fill-opacity:1.000; stroke:none;" />
 <path d="  M 15,27  L 13,27  L 13,28  L 15,28  Z  " style="fill:rgb(150, 116, 65); fill-opacity:1.000; stroke:none;" />
 <path d="  M 15,11  L 14,11  L 14,12  L 15,12  Z  " style="fill:rgb(150, 116, 65); fill-opacity:1.000; stroke:none;" />
 <path d="  M 15,19  L 14,19  L 14,20  L 15,20  Z  " style="fill:rgb(150, 116, 65); fill-opacity:1.000; stroke:none;" />
 <path d="  M 15,12  L 15,13  L 16,13  L 16,12  Z  " style="fill:rgb(150, 116, 65); fill-opacity:1.000; stroke:none;" />
 <path d="  M 16,18  L 15,18  L 15,19  L 16,19  Z  " style="fill:rgb(150, 116, 65); fill-opacity:1.000; stroke:none;" />
 <path d="  M 15,20  L 15,21  L 18,21  L 18,20  Z  " style="fill:rgb(150, 116, 65); fill-opacity:1.000; stroke:none;" />
 <path d="  M 15,29  L 16,29  L 16,28  L 15,28  Z  " style="fill:rgb(150, 116, 65); fill-opacity:1.000; stroke:none;" />
 <path d="  M 18,2  L 16,2  L 16,3  L 18,3  Z  " style="fill:rgb(150, 116, 65); fill-opacity:1.000; stroke:none;" />
 <path d="  M 16,4  L 16,5  L 17,5  L 17,4  Z  " style="fill:rgb(150, 116, 65); fill-opacity:1.000; stroke:none;" />
 <path d="  M 18,11  L 19,11  L 19,10  L 17,10  L 17,11  L 16,11  L 16,12  L 18,12  Z  " style="fill:rgb(150, 116, 65); fill-opacity:1.000; stroke:none;" />
 <path d="  M 17,28  L 18,28  L 18,27  L 17,27  Z  " style="fill:rgb(150, 116, 65); fill-opacity:1.000; stroke:none;" />
 <path d="  M 20,4  L 18,4  L 18,5  L 20,5  Z  " style="fill:rgb(150, 116, 65); fill-opacity:1.000; stroke:none;" />
 <path d="  M 18,13  L 19,13  L 19,12  L 18,12  Z  " style="fill:rgb(150, 116, 65); fill-opacity:1.000; stroke:none;" />
 <path d="  M 18,20  L 19,20  L 19,19  L 18,19  Z  " style="fill:rgb(150, 116, 65); fill-opacity:1.000; stroke:none;" />
 <path d="  M 18,27  L 20,27  L 20,26  L 18,26  Z  " style="fill:rgb(150, 116, 65); fill-opacity:1.000; stroke:none;" />
 <path d="  M 20,3  L 20,2  L 19,2  L 19,3  Z  " style="fill:rgb(150, 116, 65); fill-opacity:1.000; stroke:none;" />
 <path d="  M 19,21  L 20,21  L 20,20  L 19,20  Z  " style="fill:rgb(150, 116, 65); fill-opacity:1.000; stroke:none;" />
 <path d="  M 21,29  L 21,28  L 22,28  L 22,27  L 20,27  L 20,28  L 19,28  L 19,29  Z  " style="fill:rgb(150, 116, 65); fill-opacity:1.000; stroke:none;" />
 <path d="  M 20,4  L 21,4  L 21,3  L 20,3  Z  " style="fill:rgb(150, 116, 65); fill-opacity:1.000; stroke:none;" />
 <path d="  M 21,12  L 21,11  L 20,11  L 20,12  Z  " style="fill:rgb(150, 116, 65); fill-opacity:1.000; stroke:none;" />
 <path d="  M 20,18  L 20,19  L 23,19  L 23,20  L 25,20  L 25,19  L 24,19  L 24,18  Z  " style="fill:rgb(150, 116, 65); fill-opacity:1.000; stroke:none;" />
 <path d="  M 21,4  L 21,5  L 22,5  L 22,4  Z  " style="fill:rgb(150, 116, 65); fill-opacity:1.000; stroke:none;" />
 <path d="  M 21,12  L 21,13  L 22,13  L 22,12  Z  " style="fill:rgb(150, 116, 65); fill-opacity:1.000; stroke:none;" />
 <path d="  M 22,4  L 23,4  L 23,3  L 22,3  Z  " style="fill:rgb(150, 116, 65); fill-opacity:1.000; stroke:none;" />
 <path d="  M 22,11  L 22,12  L 24,12  L 24,11  Z  " style="fill:rgb(150, 116, 65); fill-opacity:1.000; stroke:none;" />
 <path d="  M 23,20  L 22,20  L 22,21  L 23,21  Z  " style="fill:rgb(150, 116, 65); fill-opacity:1.000; stroke:none;" />
 <path d="  M 24,29  L 24,28  L 22,28  L 22,29  Z  " style="fill:rgb(150, 116, 65); fill-opacity:1.000; stroke:none;" />
 <path d="  M 23,2  L 23,3  L 25,3  L 25,2  Z  " style="fill:rgb(150, 116, 65); fill-opacity:1.000; stroke:none;" />
 <path d="  M 23,26  L 23,27  L 24,27  L 24,26  Z  " style="fill:rgb(150, 116, 65); fill-opacity:1.000; stroke:none;" />
 <path d="  M 25,5  L 25,4  L 24,4  L 24,5  Z  " style="fill:rgb(150, 116, 65); fill-opacity:1.000; stroke:none;" />
 <path d="  M 25,11  L 25,10  L 24,10  L 24,11  Z  " style="fill:rgb(150, 116, 65); fill-opacity:1.000; stroke:none;" />
 <path d="  M 24,13  L 26,13  L 26,12  L 24,12  Z  " style="fill:rgb(150, 116, 65); fill-opacity:1.000; stroke:none;" />
 <path d="  M 25,27  L 24,27  L 24,28  L 25,28  Z  " style="fill:rgb(150, 116, 65); fill-opacity:1.000; stroke:none;" />
 <path d="  M 27,2  L 27,0  L 26,0  L 26,1  L 25,1  L 25,2  Z  " style="fill:rgb(150, 116, 65); fill-opacity:1.000; stroke:none;" />
 <path d="  M 27,4  L 27,3  L 25,3  L 25,4  Z  " style="fill:rgb(150, 116, 65); fill-opacity:1.000; stroke:none;" />
 <path d="  M 27,10  L 27,9  L 26,9  L 26,8  L 25,8  L 25,10  Z  " style="fill:rgb(150, 116, 65); fill-opacity:1.000; stroke:none;" />
 <path d="  M 26,16  L 26,15  L 25,15  L 25,16  Z  " style="fill:rgb(150, 116, 65); fill-opacity:1.000; stroke:none;" />
 <path d="  M 27,19  L 28,19  L 28,18  L 27,18  L 27,16  L 26,16  L 26,17  L 25,17  L 25,19  L 26,19  L 26,20  L 27,20  Z  " style="fill:rgb(150, 116, 65); fill-opacity:1.000; stroke:none;" />
 <path d="  M 25,20  L 25,21  L 26,21  L 26,20  Z  " style="fill:rgb(150, 116, 65); fill-opacity:1.000; stroke:none;" />
 <path d="  M 26,25  L 26,24  L 25,24  L 25,26  L 27,26  L 27,25  Z  " style="fill:rgb(150, 116, 65); fill-opacity:1.000; stroke:none;" />
 <path d="  M 27,29  L 27,28  L 28,28  L 28,27  L 26,27  L 26,28  L 25,28  L 25,29  Z  " style="fill:rgb(150, 116, 65); fill-opacity:1.000; stroke:none;" />
 <path d="  M 25,32  L 26,32  L 26,31  L 25,31  Z  " style="fill:rgb(150, 116, 65); fill-opacity:1.000; stroke:none;" />
 <path d="  M 27,7  L 26,7  L 26,8  L 27,8  Z  " style="fill:rgb(150, 116, 65); fill-opacity:1.000; stroke:none;" />
 <path d="  M 28,12  L 28,11  L 26,11  L 26,12  L 27,12  L 27,13  L 29,13  L 29,12  Z  " style="fill:rgb(150, 116, 65); fill-opacity:1.000; stroke:none;" />
 <path d="  M 26,24  L 27,24  L 27,23  L 26,23  Z  " style="fill:rgb(150, 116, 65); fill-opacity:1.000; stroke:none;" />
 <path d="  M 28,3  L 28,2  L 27,2  L 27,3  Z  " style="fill:rgb(150, 116, 65); fill-opacity:1.000; stroke:none;" />
 <path d="  M 27,4  L 27,5  L 29,5  L 29,4  Z  " style="fill:rgb(150, 116, 65); fill-opacity:1.000; stroke:none;" />
 <path d="  M 29,21  L 29,20  L 27,20  L 27,21  Z  " style="fill:rgb(150, 116, 65); fill-opacity:1.000; stroke:none;" />
 <path d="  M 29,11  L 29,12  L 30,12  L 30,10  L 28,10  L 28,11  Z  " style="fill:rgb(150, 116, 65); fill-opacity:1.000; stroke:none;" />
 <path d="  M 28,27  L 29,27  L 29,26  L 28,26  Z  " style="fill:rgb(150, 116, 65); fill-opacity:1.000; stroke:none;" />
 <path d="  M 28,28  L 28,29  L 29,29  L 29,28  Z  " style="fill:rgb(150, 116, 65); fill-opacity:1.000; stroke:none;" />
 <path d="  M 29,4  L 30,4  L 30,2  L 29,2  Z  " style="fill:rgb(150, 116, 65); fill-opacity:1.000; stroke:none;" />
 <path d="  M 29,18  L 29,19  L 30,19  L 30,18  Z  " style="fill:rgb(150, 116, 65); fill-opacity:1.000; stroke:none;" />
 <path d="  M 29,28  L 30,28  L 30,27  L 29,27  Z  " style="fill:rgb(150, 116, 65); fill-opacity:1.000; stroke:none;" />
 <path d="  M 3,5  L 3,4  L 2,4  L 2,5  Z  " style="fill:rgb(126, 98, 55); fill-opacity:1.000; stroke:none;" />
 <path d="  M 3,12  L 2,12  L 2,13  L 3,13  Z  " style="fill:rgb(126, 98, 55); fill-opacity:1.000; stroke:none;" />
 <path d="  M 2,21  L 3,21  L 3,20  L 2,20  Z  " style="fill:rgb(126, 98, 55); fill-opacity:1.000; stroke:none;" />
 <path d="  M 2,29  L 3,29  L 3,28  L 2,28  Z  " style="fill:rgb(126, 98, 55); fill-opacity:1.000; stroke:none;" />
 <path d="  M 7,22  L 7,21  L 5,21  L 5,22  Z  " style="fill:rgb(126, 98, 55); fill-opacity:1.000; stroke:none;" />
 <path d="  M 6,30  L 7,30  L 7,29  L 6,29  Z  " style="fill:rgb(126, 98, 55); fill-opacity:1.000; stroke:none;" />
 <path d="  M 10,12  L 8,12  L 8,13  L 10,13  Z  " style="fill:rgb(126, 98, 55); fill-opacity:1.000; stroke:none;" />
 <path d="  M 10,20  L 8,20  L 8,21  L 10,21  Z  " style="fill:rgb(126, 98, 55); fill-opacity:1.000; stroke:none;" />
 <path d="  M 13,6  L 13,5  L 9,5  L 9,6  Z  " style="fill:rgb(126, 98, 55); fill-opacity:1.000; stroke:none;" />
 <path d="  M 9,29  L 10,29  L 10,28  L 9,28  Z  " style="fill:rgb(126, 98, 55); fill-opacity:1.000; stroke:none;" />
 <path d="  M 11,13  L 12,13  L 12,12  L 11,12  Z  " style="fill:rgb(126, 98, 55); fill-opacity:1.000; stroke:none;" />
 <path d="  M 12,21  L 11,21  L 11,22  L 12,22  Z  " style="fill:rgb(126, 98, 55); fill-opacity:1.000; stroke:none;" />
 <path d="  M 11,30  L 12,30  L 12,29  L 11,29  Z  " style="fill:rgb(126, 98, 55); fill-opacity:1.000; stroke:none;" />
 <path d="  M 12,13  L 12,14  L 14,14  L 14,13  Z  " style="fill:rgb(126, 98, 55); fill-opacity:1.000; stroke:none;" />
 <path d="  M 16,22  L 16,21  L 13,21  L 13,22  Z  " style="fill:rgb(126, 98, 55); fill-opacity:1.000; stroke:none;" />
 <path d="  M 14,6  L 15,6  L 15,5  L 14,5  Z  " style="fill:rgb(126, 98, 55); fill-opacity:1.000; stroke:none;" />
 <path d="  M 14,28  L 14,29  L 15,29  L 15,28  Z  " style="fill:rgb(126, 98, 55); fill-opacity:1.000; stroke:none;" />
 <path d="  M 16,5  L 16,4  L 15,4  L 15,5  Z  " style="fill:rgb(126, 98, 55); fill-opacity:1.000; stroke:none;" />
 <path d="  M 16,14  L 17,14  L 17,12  L 16,12  Z  " style="fill:rgb(126, 98, 55); fill-opacity:1.000; stroke:none;" />
 <path d="  M 18,29  L 17,29  L 17,30  L 18,30  Z  " style="fill:rgb(126, 98, 55); fill-opacity:1.000; stroke:none;" />
 <path d="  M 19,6  L 19,5  L 18,5  L 18,6  Z  " style="fill:rgb(126, 98, 55); fill-opacity:1.000; stroke:none;" />
 <path d="  M 21,22  L 21,21  L 19,21  L 19,22  Z  " style="fill:rgb(126, 98, 55); fill-opacity:1.000; stroke:none;" />
 <path d="  M 23,13  L 23,12  L 22,12  L 22,13  Z  " style="fill:rgb(126, 98, 55); fill-opacity:1.000; stroke:none;" />
 <path d="  M 26,5  L 26,4  L 25,4  L 25,5  Z  " style="fill:rgb(126, 98, 55); fill-opacity:1.000; stroke:none;" />
 <path d="  M 26,14  L 26,13  L 25,13  L 25,14  Z  " style="fill:rgb(126, 98, 55); fill-opacity:1.000; stroke:none;" />
 <path d="  M 25,22  L 27,22  L 27,21  L 25,21  Z  " style="fill:rgb(126, 98, 55); fill-opacity:1.000; stroke:none;" />
 <path d="  M 27,5  L 26,5  L 26,6  L 27,6  Z  " style="fill:rgb(126, 98, 55); fill-opacity:1.000; stroke:none;" />
 <path d="  M 27,29  L 27,30  L 28,30  L 28,29  Z  " style="fill:rgb(126, 98, 55); fill-opacity:1.000; stroke:none;" />
 <path d="  M 30,4  L 29,4  L 29,5  L 30,5  Z  " style="fill:rgb(126, 98, 55); fill-opacity:1.000; stroke:none;" />
 <path d="  M 30,12  L 29,12  L 29,13  L 30,13  Z  " style="fill:rgb(126, 98, 55); fill-opacity:1.000; stroke:none;" />
 <path d="  M 29,21  L 30,21  L 30,20  L 29,20  Z  " style="fill:rgb(126, 98, 55); fill-opacity:1.000; stroke:none;" />
 <path d="  M 29,28  L 29,29  L 30,29  L 30,28  Z  " style="fill:rgb(126, 98, 55); fill-opacity:1.000; stroke:none;" />
 <path d="  M 3,6  L 3,5  L 2,5  L 2,6  Z  " style="fill:rgb(103, 80, 44); fill-opacity:1.000; stroke:none;" />
 <path d="  M 2,14  L 3,14  L 3,13  L 2,13  Z  " style="fill:rgb(103, 80, 44); fill-opacity:1.000; stroke:none;" />
 <path d="  M 2,21  L 2,22  L 5,22  L 5,21  Z  " style="fill:rgb(103, 80, 44); fill-opacity:1.000; stroke:none;" />
 <path d="  M 5,0  L 4,0  L 4,2  L 5,2  Z  " style="fill:rgb(103, 80, 44); fill-opacity:1.000; stroke:none;" />
 <path d="  M 4,10  L 5,10  L 5,8  L 4,8  Z  " style="fill:rgb(103, 80, 44); fill-opacity:1.000; stroke:none;" />
 <path d="  M 6,14  L 6,13  L 4,13  L 4,14  Z  " style="fill:rgb(103, 80, 44); fill-opacity:1.000; stroke:none;" />
 <path d="  M 4,18  L 5,18  L 5,17  L 4,17  Z  " style="fill:rgb(103, 80, 44); fill-opacity:1.000; stroke:none;" />
 <path d="  M 5,25  L 4,25  L 4,26  L 5,26  Z  " style="fill:rgb(103, 80, 44); fill-opacity:1.000; stroke:none;" />
 <path d="  M 6,30  L 6,29  L 4,29  L 4,30  Z  " style="fill:rgb(103, 80, 44); fill-opacity:1.000; stroke:none;" />
 <path d="  M 5,5  L 5,6  L 6,6  L 6,5  Z  " style="fill:rgb(103, 80, 44); fill-opacity:1.000; stroke:none;" />
 <path d="  M 5,15  L 5,16  L 6,16  L 6,15  Z  " style="fill:rgb(103, 80, 44); fill-opacity:1.000; stroke:none;" />
 <path d="  M 5,23  L 5,25  L 6,25  L 6,23  Z  " style="fill:rgb(103, 80, 44); fill-opacity:1.000; stroke:none;" />
 <path d="  M 6,31  L 5,31  L 5,32  L 6,32  Z  " style="fill:rgb(103, 80, 44); fill-opacity:1.000; stroke:none;" />
 <path d="  M 6,1  L 7,1  L 7,0  L 6,0  Z  " style="fill:rgb(103, 80, 44); fill-opacity:1.000; stroke:none;" />
 <path d="  M 6,7  L 6,8  L 7,8  L 7,7  Z  " style="fill:rgb(103, 80, 44); fill-opacity:1.000; stroke:none;" />
 <path d="  M 7,8  L 7,9  L 6,9  L 6,10  L 8,10  L 8,8  Z  " style="fill:rgb(103, 80, 44); fill-opacity:1.000; stroke:none;" />
 <path d="  M 6,16  L 6,17  L 7,17  L 7,16  Z  " style="fill:rgb(103, 80, 44); fill-opacity:1.000; stroke:none;" />
 <path d="  M 6,23  L 7,23  L 7,22  L 6,22  Z  " style="fill:rgb(103, 80, 44); fill-opacity:1.000; stroke:none;" />
 <path d="  M 7,1  L 7,2  L 8,2  L 8,1  Z  " style="fill:rgb(103, 80, 44); fill-opacity:1.000; stroke:none;" />
 <path d="  M 9,6  L 9,5  L 7,5  L 7,6  Z  " style="fill:rgb(103, 80, 44); fill-opacity:1.000; stroke:none;" />
 <path d="  M 8,17  L 7,17  L 7,18  L 8,18  Z  " style="fill:rgb(103, 80, 44); fill-opacity:1.000; stroke:none;" />
 <path d="  M 8,22  L 8,21  L 7,21  L 7,22  Z  " style="fill:rgb(103, 80, 44); fill-opacity:1.000; stroke:none;" />
 <path d="  M 7,26  L 8,26  L 8,24  L 7,24  Z  " style="fill:rgb(103, 80, 44); fill-opacity:1.000; stroke:none;" />
 <path d="  M 8,30  L 8,29  L 7,29  L 7,30  Z  " style="fill:rgb(103, 80, 44); fill-opacity:1.000; stroke:none;" />
 <path d="  M 8,14  L 9,14  L 9,13  L 8,13  Z  " style="fill:rgb(103, 80, 44); fill-opacity:1.000; stroke:none;" />
 <path d="  M 10,13  L 10,14  L 12,14  L 12,13  Z  " style="fill:rgb(103, 80, 44); fill-opacity:1.000; stroke:none;" />
 <path d="  M 11,22  L 11,21  L 10,21  L 10,22  Z  " style="fill:rgb(103, 80, 44); fill-opacity:1.000; stroke:none;" />
 <path d="  M 11,29  L 10,29  L 10,30  L 11,30  Z  " style="fill:rgb(103, 80, 44); fill-opacity:1.000; stroke:none;" />
 <path d="  M 13,21  L 12,21  L 12,22  L 13,22  Z  " style="fill:rgb(103, 80, 44); fill-opacity:1.000; stroke:none;" />
 <path d="  M 13,29  L 12,29  L 12,30  L 13,30  Z  " style="fill:rgb(103, 80, 44); fill-opacity:1.000; stroke:none;" />
 <path d="  M 13,5  L 13,6  L 14,6  L 14,5  Z  " style="fill:rgb(103, 80, 44); fill-opacity:1.000; stroke:none;" />
 <path d="  M 16,14  L 16,13  L 14,13  L 14,14  Z  " style="fill:rgb(103, 80, 44); fill-opacity:1.000; stroke:none;" />
 <path d="  M 16,5  L 15,5  L 15,6  L 16,6  Z  " style="fill:rgb(103, 80, 44); fill-opacity:1.000; stroke:none;" />
 <path d="  M 15,30  L 17,30  L 17,29  L 15,29  Z  " style="fill:rgb(103, 80, 44); fill-opacity:1.000; stroke:none;" />
 <path d="  M 19,22  L 19,21  L 16,21  L 16,22  Z  " style="fill:rgb(103, 80, 44); fill-opacity:1.000; stroke:none;" />
 <path d="  M 17,6  L 18,6  L 18,5  L 17,5  Z  " style="fill:rgb(103, 80, 44); fill-opacity:1.000; stroke:none;" />
 <path d="  M 19,14  L 19,13  L 17,13  L 17,14  Z  " style="fill:rgb(103, 80, 44); fill-opacity:1.000; stroke:none;" />
 <path d="  M 18,29  L 18,30  L 19,30  L 19,29  Z  " style="fill:rgb(103, 80, 44); fill-opacity:1.000; stroke:none;" />
 <path d="  M 19,6  L 20,6  L 20,5  L 19,5  Z  " style="fill:rgb(103, 80, 44); fill-opacity:1.000; stroke:none;" />
 <path d="  M 21,13  L 20,13  L 20,14  L 21,14  Z  " style="fill:rgb(103, 80, 44); fill-opacity:1.000; stroke:none;" />
 <path d="  M 21,29  L 20,29  L 20,30  L 21,30  Z  " style="fill:rgb(103, 80, 44); fill-opacity:1.000; stroke:none;" />
 <path d="  M 22,5  L 21,5  L 21,6  L 22,6  Z  " style="fill:rgb(103, 80, 44); fill-opacity:1.000; stroke:none;" />
 <path d="  M 22,21  L 21,21  L 21,22  L 22,22  Z  " style="fill:rgb(103, 80, 44); fill-opacity:1.000; stroke:none;" />
 <path d="  M 23,13  L 22,13  L 22,14  L 23,14  Z  " style="fill:rgb(103, 80, 44); fill-opacity:1.000; stroke:none;" />
 <path d="  M 23,29  L 23,30  L 24,30  L 24,29  Z  " style="fill:rgb(103, 80, 44); fill-opacity:1.000; stroke:none;" />
 <path d="  M 24,2  L 25,2  L 25,1  L 26,1  L 26,0  L 24,0  Z  " style="fill:rgb(103, 80, 44); fill-opacity:1.000; stroke:none;" />
 <path d="  M 26,6  L 26,5  L 24,5  L 24,6  Z  " style="fill:rgb(103, 80, 44); fill-opacity:1.000; stroke:none;" />
 <path d="  M 25,8  L 24,8  L 24,10  L 25,10  Z  " style="fill:rgb(103, 80, 44); fill-opacity:1.000; stroke:none;" />
 <path d="  M 24,13  L 24,14  L 25,14  L 25,13  Z  " style="fill:rgb(103, 80, 44); fill-opacity:1.000; stroke:none;" />
 <path d="  M 24,18  L 25,18  L 25,17  L 26,17  L 26,16  L 24,16  Z  " style="fill:rgb(103, 80, 44); fill-opacity:1.000; stroke:none;" />
 <path d="  M 24,21  L 24,22  L 25,22  L 25,21  Z  " style="fill:rgb(103, 80, 44); fill-opacity:1.000; stroke:none;" />
 <path d="  M 24,26  L 25,26  L 25,24  L 24,24  Z  " style="fill:rgb(103, 80, 44); fill-opacity:1.000; stroke:none;" />
 <path d="  M 26,7  L 25,7  L 25,8  L 26,8  Z  " style="fill:rgb(103, 80, 44); fill-opacity:1.000; stroke:none;" />
 <path d="  M 26,23  L 25,23  L 25,24  L 26,24  Z  " style="fill:rgb(103, 80, 44); fill-opacity:1.000; stroke:none;" />
 <path d="  M 26,30  L 25,30  L 25,31  L 26,31  Z  " style="fill:rgb(103, 80, 44); fill-opacity:1.000; stroke:none;" />
 <path d="  M 27,9  L 27,10  L 28,10  L 28,8  L 26,8  L 26,9  Z  " style="fill:rgb(103, 80, 44); fill-opacity:1.000; stroke:none;" />
 <path d="  M 26,13  L 26,14  L 27,14  L 27,13  Z  " style="fill:rgb(103, 80, 44); fill-opacity:1.000; stroke:none;" />
 <path d="  M 27,15  L 26,15  L 26,16  L 27,16  Z  " style="fill:rgb(103, 80, 44); fill-opacity:1.000; stroke:none;" />
 <path d="  M 27,23  L 27,22  L 26,22  L 26,23  Z  " style="fill:rgb(103, 80, 44); fill-opacity:1.000; stroke:none;" />
 <path d="  M 28,24  L 26,24  L 26,25  L 27,25  L 27,26  L 28,26  Z  " style="fill:rgb(103, 80, 44); fill-opacity:1.000; stroke:none;" />
 <path d="  M 27,29  L 26,29  L 26,30  L 27,30  Z  " style="fill:rgb(103, 80, 44); fill-opacity:1.000; stroke:none;" />
 <path d="  M 27,31  L 26,31  L 26,32  L 27,32  Z  " style="fill:rgb(103, 80, 44); fill-opacity:1.000; stroke:none;" />
 <path d="  M 28,2  L 28,0  L 27,0  L 27,2  Z  " style="fill:rgb(103, 80, 44); fill-opacity:1.000; stroke:none;" />
 <path d="  M 28,5  L 27,5  L 27,6  L 28,6  Z  " style="fill:rgb(103, 80, 44); fill-opacity:1.000; stroke:none;" />
 <path d="  M 27,18  L 28,18  L 28,16  L 27,16  Z  " style="fill:rgb(103, 80, 44); fill-opacity:1.000; stroke:none;" />
 <path d="  M 27,22  L 28,22  L 28,21  L 27,21  Z  " style="fill:rgb(103, 80, 44); fill-opacity:1.000; stroke:none;" />
 <path d="  M 28,14  L 29,14  L 29,13  L 28,13  Z  " style="fill:rgb(103, 80, 44); fill-opacity:1.000; stroke:none;" />
 <path d="  M 28,29  L 28,30  L 29,30  L 29,29  Z  " style="fill:rgb(103, 80, 44); fill-opacity:1.000; stroke:none;" />
 <path d="  M 29,5  L 29,6  L 30,6  L 30,5  Z  " style="fill:rgb(103, 80, 44); fill-opacity:1.000; stroke:none;" />
 <path d="  M 6,11  L 4,11  L 4,10  L 2,10  L 2,11  L 3,11  L 3,12  L 5,12  L 5,13  L 7,13  L 7,12  L 6,12  Z  " style="fill:rgb(181, 141, 80); fill-opacity:1.000; stroke:none;" />
 <path d="  M 2,19  L 3,19  L 3,20  L 4,20  L 4,18  L 2,18  Z  " style="fill:rgb(181, 141, 80); fill-opacity:1.000; stroke:none;" />
 <path d="  M 7,3  L 7,2  L 3,2  L 3,4  L 4,4  L 4,3  L 6,3  L 6,4  L 7,4  L 7,5  L 8,5  L 8,4  L 9,4  L 9,3  Z  " style="fill:rgb(181, 141, 80); fill-opacity:1.000; stroke:none;" />
 <path d="  M 7,27  L 7,28  L 6,28  L 6,27  L 4,27  L 4,26  L 3,26  L 3,28  L 5,28  L 5,29  L 8,29  L 8,28  L 9,28  L 9,27  Z  " style="fill:rgb(181, 141, 80); fill-opacity:1.000; stroke:none;" />
 <path d="  M 4,5  L 6,5  L 6,4  L 4,4  Z  " style="fill:rgb(181, 141, 80); fill-opacity:1.000; stroke:none;" />
 <path d="  M 9,20  L 9,19  L 6,19  L 6,20  L 4,20  L 4,21  L 7,21  L 7,20  Z  " style="fill:rgb(181, 141, 80); fill-opacity:1.000; stroke:none;" />
 <path d="  M 6,19  L 6,18  L 5,18  L 5,19  Z  " style="fill:rgb(181, 141, 80); fill-opacity:1.000; stroke:none;" />
 <path d="  M 6,11  L 7,11  L 7,10  L 6,10  Z  " style="fill:rgb(181, 141, 80); fill-opacity:1.000; stroke:none;" />
 <path d="  M 7,26  L 6,26  L 6,27  L 7,27  Z  " style="fill:rgb(181, 141, 80); fill-opacity:1.000; stroke:none;" />
 <path d="  M 12,11  L 12,10  L 8,10  L 8,11  L 7,11  L 7,12  L 9,12  L 9,11  L 11,11  L 11,12  L 13,12  L 13,13  L 15,13  L 15,12  L 14,12  L 14,11  Z  " style="fill:rgb(181, 141, 80); fill-opacity:1.000; stroke:none;" />
 <path d="  M 9,2  L 9,3  L 11,3  L 11,2  Z  " style="fill:rgb(181, 141, 80); fill-opacity:1.000; stroke:none;" />
 <path d="  M 12,18  L 9,18  L 9,19  L 11,19  L 11,20  L 12,20  L 12,21  L 15,21  L 15,20  L 14,20  L 14,19  L 12,19  Z  " style="fill:rgb(181, 141, 80); fill-opacity:1.000; stroke:none;" />
 <path d="  M 9,27  L 11,27  L 11,28  L 13,28  L 13,27  L 12,27  L 12,26  L 9,26  Z  " style="fill:rgb(181, 141, 80); fill-opacity:1.000; stroke:none;" />
 <path d="  M 12,5  L 12,4  L 13,4  L 13,3  L 11,3  L 11,4  L 10,4  L 10,5  Z  " style="fill:rgb(181, 141, 80); fill-opacity:1.000; stroke:none;" />
 <path d="  M 11,13  L 11,12  L 10,12  L 10,13  Z  " style="fill:rgb(181, 141, 80); fill-opacity:1.000; stroke:none;" />
 <path d="  M 11,20  L 10,20  L 10,21  L 11,21  Z  " style="fill:rgb(181, 141, 80); fill-opacity:1.000; stroke:none;" />
 <path d="  M 11,29  L 11,28  L 10,28  L 10,29  Z  " style="fill:rgb(181, 141, 80); fill-opacity:1.000; stroke:none;" />
 <path d="  M 15,5  L 15,4  L 13,4  L 13,5  Z  " style="fill:rgb(181, 141, 80); fill-opacity:1.000; stroke:none;" />
 <path d="  M 15,27  L 15,28  L 16,28  L 16,29  L 19,29  L 19,28  L 20,28  L 20,27  L 18,27  L 18,26  L 13,26  L 13,27  Z  M 17,28  L 17,27  L 18,27  L 18,28  Z  " style="fill:rgb(181, 141, 80); fill-opacity:1.000; stroke:none;" />
 <path d="  M 13,29  L 14,29  L 14,28  L 13,28  Z  " style="fill:rgb(181, 141, 80); fill-opacity:1.000; stroke:none;" />
 <path d="  M 18,5  L 18,4  L 20,4  L 20,3  L 19,3  L 19,2  L 18,2  L 18,3  L 16,3  L 16,2  L 14,2  L 14,3  L 15,3  L 15,4  L 17,4  L 17,5  Z  " style="fill:rgb(181, 141, 80); fill-opacity:1.000; stroke:none;" />
 <path d="  M 17,10  L 14,10  L 14,11  L 15,11  L 15,12  L 16,12  L 16,11  L 17,11  Z  " style="fill:rgb(181, 141, 80); fill-opacity:1.000; stroke:none;" />
 <path d="  M 15,18  L 14,18  L 14,19  L 15,19  Z  " style="fill:rgb(181, 141, 80); fill-opacity:1.000; stroke:none;" />
 <path d="  M 20,18  L 16,18  L 16,19  L 15,19  L 15,20  L 18,20  L 18,19  L 19,19  L 19,20  L 20,20  L 20,21  L 22,21  L 22,20  L 23,20  L 23,19  L 20,19  Z  " style="fill:rgb(181, 141, 80); fill-opacity:1.000; stroke:none;" />
 <path d="  M 18,12  L 17,12  L 17,13  L 18,13  Z  " style="fill:rgb(181, 141, 80); fill-opacity:1.000; stroke:none;" />
 <path d="  M 19,10  L 19,11  L 18,11  L 18,12  L 19,12  L 19,13  L 21,13  L 21,12  L 22,12  L 22,11  L 24,11  L 24,10  Z  M 21,12  L 20,12  L 20,11  L 21,11  Z  " style="fill:rgb(181, 141, 80); fill-opacity:1.000; stroke:none;" />
 <path d="  M 19,21  L 19,20  L 18,20  L 18,21  Z  " style="fill:rgb(181, 141, 80); fill-opacity:1.000; stroke:none;" />
 <path d="  M 20,2  L 20,3  L 21,3  L 21,4  L 22,4  L 22,3  L 23,3  L 23,2  Z  " style="fill:rgb(181, 141, 80); fill-opacity:1.000; stroke:none;" />
 <path d="  M 20,4  L 20,5  L 21,5  L 21,4  Z  " style="fill:rgb(181, 141, 80); fill-opacity:1.000; stroke:none;" />
 <path d="  M 22,27  L 22,28  L 24,28  L 24,27  L 23,27  L 23,26  L 20,26  L 20,27  Z  " style="fill:rgb(181, 141, 80); fill-opacity:1.000; stroke:none;" />
 <path d="  M 21,28  L 21,29  L 22,29  L 22,28  Z  " style="fill:rgb(181, 141, 80); fill-opacity:1.000; stroke:none;" />
 <path d="  M 23,3  L 23,4  L 22,4  L 22,5  L 24,5  L 24,4  L 25,4  L 25,3  Z  " style="fill:rgb(181, 141, 80); fill-opacity:1.000; stroke:none;" />
 <path d="  M 23,13  L 24,13  L 24,12  L 23,12  Z  " style="fill:rgb(181, 141, 80); fill-opacity:1.000; stroke:none;" />
 <path d="  M 25,21  L 25,20  L 23,20  L 23,21  Z  " style="fill:rgb(181, 141, 80); fill-opacity:1.000; stroke:none;" />
 <path d="  M 25,10  L 25,11  L 24,11  L 24,12  L 26,12  L 26,11  L 28,11  L 28,10  Z  " style="fill:rgb(181, 141, 80); fill-opacity:1.000; stroke:none;" />
 <path d="  M 24,18  L 24,19  L 25,19  L 25,18  Z  " style="fill:rgb(181, 141, 80); fill-opacity:1.000; stroke:none;" />
 <path d="  M 25,27  L 25,28  L 26,28  L 26,27  L 28,27  L 28,26  L 24,26  L 24,27  Z  " style="fill:rgb(181, 141, 80); fill-opacity:1.000; stroke:none;" />
 <path d="  M 25,28  L 24,28  L 24,29  L 25,29  Z  " style="fill:rgb(181, 141, 80); fill-opacity:1.000; stroke:none;" />
 <path d="  M 25,3  L 27,3  L 27,2  L 25,2  Z  " style="fill:rgb(181, 141, 80); fill-opacity:1.000; stroke:none;" />
 <path d="  M 26,20  L 26,19  L 25,19  L 25,20  Z  " style="fill:rgb(181, 141, 80); fill-opacity:1.000; stroke:none;" />
 <path d="  M 27,5  L 27,4  L 26,4  L 26,5  Z  " style="fill:rgb(181, 141, 80); fill-opacity:1.000; stroke:none;" />
 <path d="  M 27,12  L 26,12  L 26,13  L 27,13  Z  " style="fill:rgb(181, 141, 80); fill-opacity:1.000; stroke:none;" />
 <path d="  M 26,20  L 26,21  L 27,21  L 27,20  Z  " style="fill:rgb(181, 141, 80); fill-opacity:1.000; stroke:none;" />
 <path d="  M 29,4  L 29,2  L 28,2  L 28,3  L 27,3  L 27,4  Z  " style="fill:rgb(181, 141, 80); fill-opacity:1.000; stroke:none;" />
 <path d="  M 27,19  L 27,20  L 30,20  L 30,19  L 29,19  L 29,18  L 28,18  L 28,19  Z  " style="fill:rgb(181, 141, 80); fill-opacity:1.000; stroke:none;" />
 <path d="  M 27,29  L 28,29  L 28,28  L 27,28  Z  " style="fill:rgb(181, 141, 80); fill-opacity:1.000; stroke:none;" />
 <path d="  M 28,11  L 28,12  L 29,12  L 29,11  Z  " style="fill:rgb(181, 141, 80); fill-opacity:1.000; stroke:none;" />
 <path d="  M 29,28  L 29,27  L 28,27  L 28,28  Z  " style="fill:rgb(181, 141, 80); fill-opacity:1.000; stroke:none;" />
 <path d="  M 30,26  L 29,26  L 29,27  L 30,27  Z  " style="fill:rgb(181, 141, 80); fill-opacity:1.000; stroke:none;" />
 <path d="  M 4,29  L 2,29  L 2,30  L 4,30  Z  " style="fill:rgb(81, 61, 36); fill-opacity:1.000; stroke:none;" />
 <path d="  M 3,5  L 3,6  L 5,6  L 5,5  Z  " style="fill:rgb(81, 61, 36); fill-opacity:1.000; stroke:none;" />
 <path d="  M 3,14  L 4,14  L 4,13  L 3,13  Z  " style="fill:rgb(81, 61, 36); fill-opacity:1.000; stroke:none;" />
 <path d="  M 5,7  L 4,7  L 4,8  L 5,8  Z  " style="fill:rgb(81, 61, 36); fill-opacity:1.000; stroke:none;" />
 <path d="  M 5,15  L 5,14  L 4,14  L 4,15  Z  " style="fill:rgb(81, 61, 36); fill-opacity:1.000; stroke:none;" />
 <path d="  M 4,16  L 4,17  L 5,17  L 5,16  Z  " style="fill:rgb(81, 61, 36); fill-opacity:1.000; stroke:none;" />
 <path d="  M 5,24  L 5,23  L 4,23  L 4,24  Z  " style="fill:rgb(81, 61, 36); fill-opacity:1.000; stroke:none;" />
 <path d="  M 5,32  L 5,31  L 4,31  L 4,32  Z  " style="fill:rgb(81, 61, 36); fill-opacity:1.000; stroke:none;" />
 <path d="  M 7,5  L 6,5  L 6,6  L 5,6  L 5,7  L 7,7  Z  " style="fill:rgb(81, 61, 36); fill-opacity:1.000; stroke:none;" />
 <path d="  M 5,23  L 6,23  L 6,22  L 5,22  Z  " style="fill:rgb(81, 61, 36); fill-opacity:1.000; stroke:none;" />
 <path d="  M 7,30  L 5,30  L 5,31  L 7,31  Z  " style="fill:rgb(81, 61, 36); fill-opacity:1.000; stroke:none;" />
 <path d="  M 8,14  L 8,13  L 6,13  L 6,15  L 7,15  L 7,14  Z  " style="fill:rgb(81, 61, 36); fill-opacity:1.000; stroke:none;" />
 <path d="  M 8,24  L 8,23  L 6,23  L 6,24  Z  " style="fill:rgb(81, 61, 36); fill-opacity:1.000; stroke:none;" />
 <path d="  M 8,8  L 8,7  L 7,7  L 7,8  Z  " style="fill:rgb(81, 61, 36); fill-opacity:1.000; stroke:none;" />
 <path d="  M 7,17  L 8,17  L 8,15  L 7,15  Z  " style="fill:rgb(81, 61, 36); fill-opacity:1.000; stroke:none;" />
 <path d="  M 8,32  L 8,31  L 7,31  L 7,32  Z  " style="fill:rgb(81, 61, 36); fill-opacity:1.000; stroke:none;" />
 <path d="  M 8,21  L 8,22  L 10,22  L 10,21  Z  " style="fill:rgb(81, 61, 36); fill-opacity:1.000; stroke:none;" />
 <path d="  M 8,29  L 8,30  L 10,30  L 10,29  Z  " style="fill:rgb(81, 61, 36); fill-opacity:1.000; stroke:none;" />
 <path d="  M 10,13  L 9,13  L 9,14  L 10,14  Z  " style="fill:rgb(81, 61, 36); fill-opacity:1.000; stroke:none;" />
 <path d="  M 13,29  L 13,30  L 15,30  L 15,29  Z  " style="fill:rgb(81, 61, 36); fill-opacity:1.000; stroke:none;" />
 <path d="  M 16,5  L 16,6  L 17,6  L 17,5  Z  " style="fill:rgb(81, 61, 36); fill-opacity:1.000; stroke:none;" />
 <path d="  M 19,14  L 20,14  L 20,13  L 19,13  Z  " style="fill:rgb(81, 61, 36); fill-opacity:1.000; stroke:none;" />
 <path d="  M 20,29  L 19,29  L 19,30  L 20,30  Z  " style="fill:rgb(81, 61, 36); fill-opacity:1.000; stroke:none;" />
 <path d="  M 21,5  L 20,5  L 20,6  L 21,6  Z  " style="fill:rgb(81, 61, 36); fill-opacity:1.000; stroke:none;" />
 <path d="  M 21,14  L 22,14  L 22,13  L 21,13  Z  " style="fill:rgb(81, 61, 36); fill-opacity:1.000; stroke:none;" />
 <path d="  M 21,29  L 21,30  L 23,30  L 23,29  Z  " style="fill:rgb(81, 61, 36); fill-opacity:1.000; stroke:none;" />
 <path d="  M 24,6  L 24,5  L 22,5  L 22,6  Z  " style="fill:rgb(81, 61, 36); fill-opacity:1.000; stroke:none;" />
 <path d="  M 24,22  L 24,21  L 22,21  L 22,22  Z  " style="fill:rgb(81, 61, 36); fill-opacity:1.000; stroke:none;" />
 <path d="  M 24,13  L 23,13  L 23,14  L 24,14  Z  " style="fill:rgb(81, 61, 36); fill-opacity:1.000; stroke:none;" />
 <path d="  M 25,8  L 25,7  L 24,7  L 24,8  Z  " style="fill:rgb(81, 61, 36); fill-opacity:1.000; stroke:none;" />
 <path d="  M 25,16  L 25,15  L 24,15  L 24,16  Z  " style="fill:rgb(81, 61, 36); fill-opacity:1.000; stroke:none;" />
 <path d="  M 25,23  L 24,23  L 24,24  L 25,24  Z  " style="fill:rgb(81, 61, 36); fill-opacity:1.000; stroke:none;" />
 <path d="  M 24,30  L 26,30  L 26,29  L 24,29  Z  " style="fill:rgb(81, 61, 36); fill-opacity:1.000; stroke:none;" />
 <path d="  M 24,31  L 24,32  L 25,32  L 25,31  Z  " style="fill:rgb(81, 61, 36); fill-opacity:1.000; stroke:none;" />
 <path d="  M 25,6  L 25,7  L 27,7  L 27,6  Z  " style="fill:rgb(81, 61, 36); fill-opacity:1.000; stroke:none;" />
 <path d="  M 27,15  L 27,14  L 25,14  L 25,15  Z  " style="fill:rgb(81, 61, 36); fill-opacity:1.000; stroke:none;" />
 <path d="  M 26,22  L 25,22  L 25,23  L 26,23  Z  " style="fill:rgb(81, 61, 36); fill-opacity:1.000; stroke:none;" />
 <path d="  M 26,31  L 27,31  L 27,30  L 26,30  Z  " style="fill:rgb(81, 61, 36); fill-opacity:1.000; stroke:none;" />
 <path d="  M 27,7  L 27,8  L 28,8  L 28,7  Z  " style="fill:rgb(81, 61, 36); fill-opacity:1.000; stroke:none;" />
 <path d="  M 27,14  L 28,14  L 28,13  L 27,13  Z  " style="fill:rgb(81, 61, 36); fill-opacity:1.000; stroke:none;" />
 <path d="  M 27,15  L 27,16  L 28,16  L 28,15  Z  " style="fill:rgb(81, 61, 36); fill-opacity:1.000; stroke:none;" />
 <path d="  M 27,24  L 28,24  L 28,23  L 27,23  Z  " style="fill:rgb(81, 61, 36); fill-opacity:1.000; stroke:none;" />
 <path d="  M 27,32  L 28,32  L 28,31  L 27,31  Z  " style="fill:rgb(81, 61, 36); fill-opacity:1.000; stroke:none;" />
 <path d="  M 29,5  L 28,5  L 28,6  L 29,6  Z  " style="fill:rgb(81, 61, 36); fill-opacity:1.000; stroke:none;" />
 <path d="  M 28,21  L 28,22  L 30,22  L 30,21  Z  " style="fill:rgb(81, 61, 36); fill-opacity:1.000; stroke:none;" />
 <path d="  M 29,13  L 29,14  L 30,14  L 30,13  Z  " style="fill:rgb(81, 61, 36); fill-opacity:1.000; stroke:none;" />
 <path d="  M 29,30  L 30,30  L 30,29  L 29,29  Z  " style="fill:rgb(81, 61, 36); fill-opacity:1.000; stroke:none;" />
 <path d="  M 5,7  L 5,6  L 4,6  L 4,7  Z  " style="fill:rgb(58, 47, 30); fill-opacity:1.000; stroke:none;" />
 <path d="  M 5,16  L 5,15  L 4,15  L 4,16  Z  " style="fill:rgb(58, 47, 30); fill-opacity:1.000; stroke:none;" />
 <path d="  M 4,22  L 4,23  L 5,23  L 5,22  Z  " style="fill:rgb(58, 47, 30); fill-opacity:1.000; stroke:none;" />
 <path d="  M 4,31  L 5,31  L 5,30  L 4,30  Z  " style="fill:rgb(58, 47, 30); fill-opacity:1.000; stroke:none;" />
 <path d="  M 6,15  L 6,14  L 5,14  L 5,15  Z  " style="fill:rgb(58, 47, 30); fill-opacity:1.000; stroke:none;" />
 <path d="  M 7,7  L 8,7  L 8,6  L 7,6  Z  " style="fill:rgb(58, 47, 30); fill-opacity:1.000; stroke:none;" />
 <path d="  M 8,15  L 8,14  L 7,14  L 7,15  Z  " style="fill:rgb(58, 47, 30); fill-opacity:1.000; stroke:none;" />
 <path d="  M 7,22  L 7,23  L 8,23  L 8,22  Z  " style="fill:rgb(58, 47, 30); fill-opacity:1.000; stroke:none;" />
 <path d="  M 7,30  L 7,31  L 8,31  L 8,30  Z  " style="fill:rgb(58, 47, 30); fill-opacity:1.000; stroke:none;" />
 <path d="  M 25,6  L 24,6  L 24,7  L 25,7  Z  " style="fill:rgb(58, 47, 30); fill-opacity:1.000; stroke:none;" />
 <path d="  M 25,15  L 25,14  L 24,14  L 24,15  Z  " style="fill:rgb(58, 47, 30); fill-opacity:1.000; stroke:none;" />
 <path d="  M 25,23  L 25,22  L 24,22  L 24,23  Z  " style="fill:rgb(58, 47, 30); fill-opacity:1.000; stroke:none;" />
 <path d="  M 25,31  L 25,30  L 24,30  L 24,31  Z  " style="fill:rgb(58, 47, 30); fill-opacity:1.000; stroke:none;" />
 <path d="  M 27,7  L 28,7  L 28,6  L 27,6  Z  " style="fill:rgb(58, 47, 30); fill-opacity:1.000; stroke:none;" />
 <path d="  M 27,15  L 28,15  L 28,14  L 27,14  Z  " style="fill:rgb(58, 47, 30); fill-opacity:1.000; stroke:none;" />
 <path d="  M 28,22  L 27,22  L 27,23  L 28,23  Z  " style="fill:rgb(58, 47, 30); fill-opacity:1.000; stroke:none;" />
 <path d="  M 27,31  L 28,31  L 28,30  L 27,30  Z  " style="fill:rgb(58, 47, 30); fill-opacity:1.000; stroke:none;" />
</svg>
