<?xml version="1.0" encoding="UTF-8" standalone="no"?>
<!DOCTYPE svg PUBLIC "-//W3C//DTD SVG 1.1//EN" 
  "http://www.w3.org/Graphics/SVG/1.1/DTD/svg11.dtd">
<svg width="32" height="32"
	 xmlns="http://www.w3.org/2000/svg" version="1.1">
 <path d="  M 6,21  L 6,20  L 4,20  L 4,21  Z  " style="fill:rgb(254, 203, 230); fill-opacity:1.000; stroke:none;" />
 <path d="  M 5,23  L 6,23  L 6,22  L 5,22  Z  " style="fill:rgb(254, 203, 230); fill-opacity:1.000; stroke:none;" />
 <path d="  M 6,21  L 6,22  L 7,22  L 7,21  Z  " style="fill:rgb(254, 203, 230); fill-opacity:1.000; stroke:none;" />
 <path d="  M 6,23  L 6,24  L 7,24  L 7,23  Z  " style="fill:rgb(254, 203, 230); fill-opacity:1.000; stroke:none;" />
 <path d="  M 7,22  L 7,23  L 8,23  L 8,22  Z  " style="fill:rgb(254, 203, 230); fill-opacity:1.000; stroke:none;" />
 <path d="  M 8,25  L 9,25  L 9,26  L 10,26  L 10,24  L 9,24  L 9,23  L 8,23  Z  " style="fill:rgb(254, 203, 230); fill-opacity:1.000; stroke:none;" />
 <path d="  M 14,18  L 14,17  L 16,17  L 16,15  L 17,15  L 17,13  L 16,13  L 16,14  L 15,14  L 15,15  L 14,15  L 14,16  L 13,16  L 13,17  L 12,17  L 12,18  Z  " style="fill:rgb(254, 203, 230); fill-opacity:1.000; stroke:none;" />
 <path d="  M 17,18  L 18,18  L 18,17  L 17,17  Z  " style="fill:rgb(254, 203, 230); fill-opacity:1.000; stroke:none;" />
 <path d="  M 23,25  L 22,25  L 22,26  L 23,26  Z  " style="fill:rgb(254, 203, 230); fill-opacity:1.000; stroke:none;" />
 <path d="  M 23,24  L 23,25  L 24,25  L 24,24  Z  " style="fill:rgb(254, 203, 230); fill-opacity:1.000; stroke:none;" />
 <path d="  M 25,23  L 25,22  L 26,22  L 26,21  L 28,21  L 28,20  L 25,20  L 25,21  L 24,21  L 24,23  Z  " style="fill:rgb(254, 203, 230); fill-opacity:1.000; stroke:none;" />
 <path d="  M 4,21  L 4,23  L 5,23  L 5,21  Z  " style="fill:rgb(207, 160, 243); fill-opacity:1.000; stroke:none;" />
 <path d="  M 5,23  L 5,25  L 6,25  L 6,23  Z  " style="fill:rgb(207, 160, 243); fill-opacity:1.000; stroke:none;" />
 <path d="  M 6,21  L 7,21  L 7,20  L 6,20  Z  " style="fill:rgb(207, 160, 243); fill-opacity:1.000; stroke:none;" />
 <path d="  M 8,22  L 8,21  L 7,21  L 7,22  Z  " style="fill:rgb(207, 160, 243); fill-opacity:1.000; stroke:none;" />
 <path d="  M 8,25  L 8,24  L 7,24  L 7,25  Z  " style="fill:rgb(207, 160, 243); fill-opacity:1.000; stroke:none;" />
 <path d="  M 9,22  L 8,22  L 8,23  L 9,23  Z  " style="fill:rgb(207, 160, 243); fill-opacity:1.000; stroke:none;" />
 <path d="  M 8,25  L 8,26  L 9,26  L 9,25  Z  " style="fill:rgb(207, 160, 243); fill-opacity:1.000; stroke:none;" />
 <path d="  M 10,23  L 9,23  L 9,24  L 10,24  Z  " style="fill:rgb(207, 160, 243); fill-opacity:1.000; stroke:none;" />
 <path d="  M 11,26  L 10,26  L 10,27  L 11,27  Z  " style="fill:rgb(207, 160, 243); fill-opacity:1.000; stroke:none;" />
 <path d="  M 16,19  L 16,22  L 17,22  L 17,18  L 15,18  L 15,19  Z  " style="fill:rgb(207, 160, 243); fill-opacity:1.000; stroke:none;" />
 <path d="  M 17,28  L 16,28  L 16,31  L 17,31  Z  " style="fill:rgb(207, 160, 243); fill-opacity:1.000; stroke:none;" />
 <path d="  M 17,17  L 18,17  L 18,15  L 19,15  L 19,14  L 18,14  L 18,13  L 17,13  Z  " style="fill:rgb(207, 160, 243); fill-opacity:1.000; stroke:none;" />
 <path d="  M 18,17  L 18,18  L 19,18  L 19,17  Z  " style="fill:rgb(207, 160, 243); fill-opacity:1.000; stroke:none;" />
 <path d="  M 19,15  L 19,16  L 20,16  L 20,15  Z  " style="fill:rgb(207, 160, 243); fill-opacity:1.000; stroke:none;" />
 <path d="  M 20,16  L 20,17  L 21,17  L 21,16  Z  " style="fill:rgb(207, 160, 243); fill-opacity:1.000; stroke:none;" />
 <path d="  M 21,17  L 21,18  L 22,18  L 22,17  Z  " style="fill:rgb(207, 160, 243); fill-opacity:1.000; stroke:none;" />
 <path d="  M 22,24  L 22,25  L 23,25  L 23,24  Z  " style="fill:rgb(207, 160, 243); fill-opacity:1.000; stroke:none;" />
 <path d="  M 24,22  L 23,22  L 23,24  L 24,24  Z  " style="fill:rgb(207, 160, 243); fill-opacity:1.000; stroke:none;" />
 <path d="  M 26,23  L 25,23  L 25,24  L 26,24  Z  " style="fill:rgb(207, 160, 243); fill-opacity:1.000; stroke:none;" />
 <path d="  M 27,23  L 27,22  L 26,22  L 26,23  Z  " style="fill:rgb(207, 160, 243); fill-opacity:1.000; stroke:none;" />
 <path d="  M 27,22  L 28,22  L 28,21  L 27,21  Z  " style="fill:rgb(207, 160, 243); fill-opacity:1.000; stroke:none;" />
 <path d="  M 5,23  L 4,23  L 4,26  L 5,26  Z  " style="fill:rgb(179, 142, 243); fill-opacity:1.000; stroke:none;" />
 <path d="  M 7,24  L 6,24  L 6,25  L 7,25  Z  " style="fill:rgb(179, 142, 243); fill-opacity:1.000; stroke:none;" />
 <path d="  M 7,26  L 8,26  L 8,25  L 7,25  Z  " style="fill:rgb(179, 142, 243); fill-opacity:1.000; stroke:none;" />
 <path d="  M 10,27  L 10,26  L 8,26  L 8,27  Z  " style="fill:rgb(179, 142, 243); fill-opacity:1.000; stroke:none;" />
 <path d="  M 11,25  L 10,25  L 10,26  L 11,26  Z  " style="fill:rgb(179, 142, 243); fill-opacity:1.000; stroke:none;" />
 <path d="  M 12,28  L 12,26  L 11,26  L 11,27  L 10,27  L 10,28  Z  " style="fill:rgb(179, 142, 243); fill-opacity:1.000; stroke:none;" />
 <path d="  M 13,28  L 12,28  L 12,29  L 13,29  Z  " style="fill:rgb(179, 142, 243); fill-opacity:1.000; stroke:none;" />
 <path d="  M 13,18  L 13,19  L 14,19  L 14,20  L 15,20  L 15,22  L 16,22  L 16,19  L 15,19  L 15,18  Z  " style="fill:rgb(179, 142, 243); fill-opacity:1.000; stroke:none;" />
 <path d="  M 17,22  L 16,22  L 16,28  L 17,28  Z  " style="fill:rgb(179, 142, 243); fill-opacity:1.000; stroke:none;" />
 <path d="  M 16,32  L 17,32  L 17,31  L 16,31  Z  " style="fill:rgb(179, 142, 243); fill-opacity:1.000; stroke:none;" />
 <path d="  M 21,18  L 21,17  L 20,17  L 20,16  L 19,16  L 19,15  L 18,15  L 18,17  L 19,17  L 19,18  Z  " style="fill:rgb(179, 142, 243); fill-opacity:1.000; stroke:none;" />
 <path d="  M 19,29  L 20,29  L 20,28  L 19,28  Z  " style="fill:rgb(179, 142, 243); fill-opacity:1.000; stroke:none;" />
 <path d="  M 21,27  L 20,27  L 20,28  L 21,28  Z  " style="fill:rgb(179, 142, 243); fill-opacity:1.000; stroke:none;" />
 <path d="  M 21,24  L 21,27  L 22,27  L 22,24  Z  " style="fill:rgb(179, 142, 243); fill-opacity:1.000; stroke:none;" />
 <path d="  M 22,24  L 23,24  L 23,23  L 22,23  Z  " style="fill:rgb(179, 142, 243); fill-opacity:1.000; stroke:none;" />
 <path d="  M 24,25  L 25,25  L 25,24  L 24,24  Z  " style="fill:rgb(179, 142, 243); fill-opacity:1.000; stroke:none;" />
 <path d="  M 28,22  L 27,22  L 27,27  L 28,27  Z  " style="fill:rgb(179, 142, 243); fill-opacity:1.000; stroke:none;" />
 <path d="  M 5,26  L 4,26  L 4,27  L 5,27  L 5,28  L 6,28  L 6,26  L 7,26  L 7,25  L 5,25  Z  " style="fill:rgb(141, 106, 204); fill-opacity:1.000; stroke:none;" />
 <path d="  M 7,28  L 6,28  L 6,31  L 7,31  Z  " style="fill:rgb(141, 106, 204); fill-opacity:1.000; stroke:none;" />
 <path d="  M 8,26  L 7,26  L 7,27  L 8,27  Z  " style="fill:rgb(141, 106, 204); fill-opacity:1.000; stroke:none;" />
 <path d="  M 10,27  L 9,27  L 9,28  L 10,28  Z  " style="fill:rgb(141, 106, 204); fill-opacity:1.000; stroke:none;" />
 <path d="  M 11,25  L 11,24  L 10,24  L 10,25  Z  " style="fill:rgb(141, 106, 204); fill-opacity:1.000; stroke:none;" />
 <path d="  M 12,25  L 11,25  L 11,26  L 12,26  Z  " style="fill:rgb(141, 106, 204); fill-opacity:1.000; stroke:none;" />
 <path d="  M 12,29  L 12,28  L 11,28  L 11,29  Z  " style="fill:rgb(141, 106, 204); fill-opacity:1.000; stroke:none;" />
 <path d="  M 12,18  L 12,19  L 13,19  L 13,18  Z  " style="fill:rgb(141, 106, 204); fill-opacity:1.000; stroke:none;" />
 <path d="  M 13,30  L 14,30  L 14,31  L 15,31  L 15,29  L 14,29  L 14,27  L 13,27  L 13,26  L 12,26  L 12,28  L 13,28  Z  " style="fill:rgb(141, 106, 204); fill-opacity:1.000; stroke:none;" />
 <path d="  M 13,19  L 13,20  L 14,20  L 14,19  Z  " style="fill:rgb(141, 106, 204); fill-opacity:1.000; stroke:none;" />
 <path d="  M 15,20  L 14,20  L 14,21  L 15,21  Z  " style="fill:rgb(141, 106, 204); fill-opacity:1.000; stroke:none;" />
 <path d="  M 15,22  L 15,23  L 16,23  L 16,22  Z  " style="fill:rgb(141, 106, 204); fill-opacity:1.000; stroke:none;" />
 <path d="  M 17,18  L 17,31  L 18,31  L 18,30  L 19,30  L 19,28  L 18,28  L 18,19  L 21,19  L 21,18  Z  " style="fill:rgb(141, 106, 204); fill-opacity:1.000; stroke:none;" />
 <path d="  M 19,28  L 20,28  L 20,27  L 19,27  Z  " style="fill:rgb(141, 106, 204); fill-opacity:1.000; stroke:none;" />
 <path d="  M 21,25  L 20,25  L 20,27  L 21,27  Z  " style="fill:rgb(141, 106, 204); fill-opacity:1.000; stroke:none;" />
 <path d="  M 23,27  L 23,26  L 22,26  L 22,27  Z  " style="fill:rgb(141, 106, 204); fill-opacity:1.000; stroke:none;" />
 <path d="  M 24,26  L 24,25  L 23,25  L 23,26  Z  " style="fill:rgb(141, 106, 204); fill-opacity:1.000; stroke:none;" />
 <path d="  M 27,23  L 26,23  L 26,24  L 25,24  L 25,25  L 26,25  L 26,28  L 27,28  Z  " style="fill:rgb(141, 106, 204); fill-opacity:1.000; stroke:none;" />
 <path d="  M 25,31  L 26,31  L 26,28  L 25,28  Z  " style="fill:rgb(141, 106, 204); fill-opacity:1.000; stroke:none;" />
 <path d="  M 6,22  L 6,21  L 5,21  L 5,22  Z  " style="fill:rgb(255, 253, 213); fill-opacity:1.000; stroke:none;" />
 <path d="  M 6,23  L 7,23  L 7,22  L 6,22  Z  " style="fill:rgb(255, 253, 213); fill-opacity:1.000; stroke:none;" />
 <path d="  M 7,24  L 8,24  L 8,23  L 7,23  Z  " style="fill:rgb(255, 253, 213); fill-opacity:1.000; stroke:none;" />
 <path d="  M 16,17  L 14,17  L 14,18  L 17,18  L 17,15  L 16,15  Z  " style="fill:rgb(255, 253, 213); fill-opacity:1.000; stroke:none;" />
 <path d="  M 25,23  L 24,23  L 24,24  L 25,24  Z  " style="fill:rgb(255, 253, 213); fill-opacity:1.000; stroke:none;" />
 <path d="  M 26,22  L 25,22  L 25,23  L 26,23  Z  " style="fill:rgb(255, 253, 213); fill-opacity:1.000; stroke:none;" />
 <path d="  M 27,22  L 27,21  L 26,21  L 26,22  Z  " style="fill:rgb(255, 253, 213); fill-opacity:1.000; stroke:none;" />
 <path d="  M 9,30  L 10,30  L 10,29  L 11,29  L 11,28  L 9,28  L 9,27  L 7,27  L 7,26  L 6,26  L 6,28  L 7,28  L 7,31  L 6,31  L 6,32  L 8,32  L 8,31  L 9,31  Z  " style="fill:rgb(122, 91, 181); fill-opacity:1.000; stroke:none;" />
 <path d="  M 16,23  L 15,23  L 15,21  L 14,21  L 14,20  L 13,20  L 13,19  L 12,19  L 12,22  L 13,22  L 13,23  L 14,23  L 14,27  L 15,27  L 15,29  L 16,29  Z  " style="fill:rgb(122, 91, 181); fill-opacity:1.000; stroke:none;" />
 <path d="  M 13,29  L 12,29  L 12,30  L 13,30  Z  " style="fill:rgb(122, 91, 181); fill-opacity:1.000; stroke:none;" />
 <path d="  M 14,31  L 14,30  L 13,30  L 13,31  Z  " style="fill:rgb(122, 91, 181); fill-opacity:1.000; stroke:none;" />
 <path d="  M 15,32  L 15,31  L 14,31  L 14,32  Z  " style="fill:rgb(122, 91, 181); fill-opacity:1.000; stroke:none;" />
 <path d="  M 18,32  L 18,31  L 17,31  L 17,32  Z  " style="fill:rgb(122, 91, 181); fill-opacity:1.000; stroke:none;" />
 <path d="  M 18,25  L 19,25  L 19,22  L 20,22  L 20,20  L 21,20  L 21,19  L 18,19  Z  " style="fill:rgb(122, 91, 181); fill-opacity:1.000; stroke:none;" />
 <path d="  M 19,31  L 19,30  L 18,30  L 18,31  Z  " style="fill:rgb(122, 91, 181); fill-opacity:1.000; stroke:none;" />
 <path d="  M 19,25  L 19,27  L 20,27  L 20,25  Z  " style="fill:rgb(122, 91, 181); fill-opacity:1.000; stroke:none;" />
 <path d="  M 20,29  L 19,29  L 19,30  L 20,30  Z  " style="fill:rgb(122, 91, 181); fill-opacity:1.000; stroke:none;" />
 <path d="  M 20,24  L 20,25  L 21,25  L 21,24  Z  " style="fill:rgb(122, 91, 181); fill-opacity:1.000; stroke:none;" />
 <path d="  M 23,31  L 24,31  L 24,32  L 26,32  L 26,31  L 25,31  L 25,28  L 26,28  L 26,25  L 24,25  L 24,26  L 23,26  L 23,27  L 21,27  L 21,28  L 20,28  L 20,29  L 22,29  L 22,30  L 23,30  Z  " style="fill:rgb(122, 91, 181); fill-opacity:1.000; stroke:none;" />
 <path d="  M 22,19  L 22,18  L 21,18  L 21,19  Z  " style="fill:rgb(122, 91, 181); fill-opacity:1.000; stroke:none;" />
 <path d="  M 14,32  L 14,31  L 13,31  L 13,30  L 12,30  L 12,29  L 10,29  L 10,30  L 9,30  L 9,31  L 8,31  L 8,32  Z  " style="fill:rgb(100, 71, 158); fill-opacity:1.000; stroke:none;" />
 <path d="  M 14,23  L 13,23  L 13,25  L 12,25  L 12,26  L 13,26  L 13,27  L 14,27  Z  " style="fill:rgb(100, 71, 158); fill-opacity:1.000; stroke:none;" />
 <path d="  M 15,27  L 14,27  L 14,29  L 15,29  Z  " style="fill:rgb(100, 71, 158); fill-opacity:1.000; stroke:none;" />
 <path d="  M 15,32  L 16,32  L 16,29  L 15,29  Z  " style="fill:rgb(100, 71, 158); fill-opacity:1.000; stroke:none;" />
 <path d="  M 18,25  L 18,28  L 19,28  L 19,25  Z  " style="fill:rgb(100, 71, 158); fill-opacity:1.000; stroke:none;" />
 <path d="  M 19,30  L 19,31  L 18,31  L 18,32  L 24,32  L 24,31  L 23,31  L 23,30  L 22,30  L 22,29  L 20,29  L 20,30  Z  " style="fill:rgb(100, 71, 158); fill-opacity:1.000; stroke:none;" />
 <path d="  M 20,25  L 20,22  L 19,22  L 19,25  Z  " style="fill:rgb(100, 71, 158); fill-opacity:1.000; stroke:none;" />
 <path d="  M 20,22  L 21,22  L 21,20  L 20,20  Z  " style="fill:rgb(100, 71, 158); fill-opacity:1.000; stroke:none;" />
 <path d="  M 21,20  L 22,20  L 22,19  L 21,19  Z  " style="fill:rgb(100, 71, 158); fill-opacity:1.000; stroke:none;" />
</svg>
