<?xml version="1.0" encoding="UTF-8" standalone="no"?>
<!DOCTYPE svg PUBLIC "-//W3C//DTD SVG 1.1//EN" 
  "http://www.w3.org/Graphics/SVG/1.1/DTD/svg11.dtd">
<svg width="32" height="32"
	 xmlns="http://www.w3.org/2000/svg" version="1.1">
 <path d="  M 6,25  L 5,25  L 5,26  L 6,26  Z  " style="fill:rgb(131, 28, 32); fill-opacity:1.000; stroke:none;" />
 <path d="  M 7,24  L 6,24  L 6,25  L 7,25  Z  " style="fill:rgb(131, 28, 32); fill-opacity:1.000; stroke:none;" />
 <path d="  M 7,26  L 6,26  L 6,27  L 7,27  Z  " style="fill:rgb(131, 28, 32); fill-opacity:1.000; stroke:none;" />
 <path d="  M 10,24  L 10,23  L 7,23  L 7,24  Z  " style="fill:rgb(131, 28, 32); fill-opacity:1.000; stroke:none;" />
 <path d="  M 12,26  L 10,26  L 10,27  L 7,27  L 7,28  L 11,28  L 11,27  L 12,27  Z  " style="fill:rgb(131, 28, 32); fill-opacity:1.000; stroke:none;" />
 <path d="  M 8,29  L 8,31  L 9,31  L 9,29  Z  " style="fill:rgb(131, 28, 32); fill-opacity:1.000; stroke:none;" />
 <path d="  M 18,32  L 18,31  L 17,31  L 17,30  L 16,30  L 16,31  L 15,31  L 15,32  Z  " style="fill:rgb(131, 28, 32); fill-opacity:1.000; stroke:none;" />
 <path d="  M 22,23  L 21,23  L 21,24  L 22,24  Z  " style="fill:rgb(131, 28, 32); fill-opacity:1.000; stroke:none;" />
 <path d="  M 23,23  L 23,22  L 22,22  L 22,23  Z  " style="fill:rgb(131, 28, 32); fill-opacity:1.000; stroke:none;" />
 <path d="  M 23,25  L 22,25  L 22,26  L 23,26  Z  " style="fill:rgb(131, 28, 32); fill-opacity:1.000; stroke:none;" />
 <path d="  M 27,22  L 27,21  L 23,21  L 23,22  Z  " style="fill:rgb(131, 28, 32); fill-opacity:1.000; stroke:none;" />
 <path d="  M 26,27  L 26,26  L 24,26  L 24,27  Z  " style="fill:rgb(131, 28, 32); fill-opacity:1.000; stroke:none;" />
 <path d="  M 24,28  L 24,31  L 25,31  L 25,28  Z  " style="fill:rgb(131, 28, 32); fill-opacity:1.000; stroke:none;" />
 <path d="  M 26,26  L 27,26  L 27,25  L 26,25  Z  " style="fill:rgb(131, 28, 32); fill-opacity:1.000; stroke:none;" />
 <path d="  M 28,25  L 28,24  L 27,24  L 27,25  Z  " style="fill:rgb(131, 28, 32); fill-opacity:1.000; stroke:none;" />
 <path d="  M 6,27  L 6,26  L 5,26  L 5,27  Z  " style="fill:rgb(115, 4, 8); fill-opacity:1.000; stroke:none;" />
 <path d="  M 7,28  L 7,27  L 6,27  L 6,28  Z  " style="fill:rgb(115, 4, 8); fill-opacity:1.000; stroke:none;" />
 <path d="  M 9,29  L 9,31  L 8,31  L 8,32  L 10,32  L 10,29  L 11,29  L 11,28  L 7,28  L 7,29  Z  " style="fill:rgb(115, 4, 8); fill-opacity:1.000; stroke:none;" />
 <path d="  M 11,23  L 10,23  L 10,24  L 11,24  Z  " style="fill:rgb(115, 4, 8); fill-opacity:1.000; stroke:none;" />
 <path d="  M 12,25  L 11,25  L 11,26  L 12,26  Z  " style="fill:rgb(115, 4, 8); fill-opacity:1.000; stroke:none;" />
 <path d="  M 11,27  L 11,28  L 12,28  L 12,27  Z  " style="fill:rgb(115, 4, 8); fill-opacity:1.000; stroke:none;" />
 <path d="  M 15,32  L 15,31  L 14,31  L 14,32  Z  " style="fill:rgb(115, 4, 8); fill-opacity:1.000; stroke:none;" />
 <path d="  M 16,31  L 16,30  L 15,30  L 15,31  Z  " style="fill:rgb(115, 4, 8); fill-opacity:1.000; stroke:none;" />
 <path d="  M 17,31  L 18,31  L 18,30  L 17,30  Z  " style="fill:rgb(115, 4, 8); fill-opacity:1.000; stroke:none;" />
 <path d="  M 19,32  L 19,31  L 18,31  L 18,32  Z  " style="fill:rgb(115, 4, 8); fill-opacity:1.000; stroke:none;" />
 <path d="  M 22,24  L 21,24  L 21,25  L 22,25  Z  " style="fill:rgb(115, 4, 8); fill-opacity:1.000; stroke:none;" />
 <path d="  M 23,26  L 23,27  L 24,27  L 24,26  Z  " style="fill:rgb(115, 4, 8); fill-opacity:1.000; stroke:none;" />
 <path d="  M 25,31  L 24,31  L 24,32  L 26,32  L 26,27  L 24,27  L 24,28  L 25,28  Z  " style="fill:rgb(115, 4, 8); fill-opacity:1.000; stroke:none;" />
 <path d="  M 27,27  L 27,26  L 26,26  L 26,27  Z  " style="fill:rgb(115, 4, 8); fill-opacity:1.000; stroke:none;" />
 <path d="  M 28,22  L 27,22  L 27,23  L 28,23  Z  " style="fill:rgb(115, 4, 8); fill-opacity:1.000; stroke:none;" />
 <path d="  M 27,26  L 28,26  L 28,25  L 27,25  Z  " style="fill:rgb(115, 4, 8); fill-opacity:1.000; stroke:none;" />
 <path d="  M 28,23  L 28,24  L 29,24  L 29,23  Z  " style="fill:rgb(115, 4, 8); fill-opacity:1.000; stroke:none;" />
 <path d="  M 5,28  L 6,28  L 6,27  L 5,27  Z  " style="fill:rgb(72, 0, 0); fill-opacity:1.000; stroke:none;" />
 <path d="  M 6,28  L 6,29  L 7,29  L 7,28  Z  " style="fill:rgb(72, 0, 0); fill-opacity:1.000; stroke:none;" />
 <path d="  M 8,32  L 8,29  L 7,29  L 7,32  Z  " style="fill:rgb(72, 0, 0); fill-opacity:1.000; stroke:none;" />
 <path d="  M 11,32  L 11,29  L 10,29  L 10,32  Z  " style="fill:rgb(72, 0, 0); fill-opacity:1.000; stroke:none;" />
 <path d="  M 11,25  L 12,25  L 12,24  L 11,24  Z  " style="fill:rgb(72, 0, 0); fill-opacity:1.000; stroke:none;" />
 <path d="  M 12,29  L 12,28  L 11,28  L 11,29  Z  " style="fill:rgb(72, 0, 0); fill-opacity:1.000; stroke:none;" />
 <path d="  M 13,25  L 12,25  L 12,28  L 13,28  Z  " style="fill:rgb(72, 0, 0); fill-opacity:1.000; stroke:none;" />
 <path d="  M 19,31  L 19,30  L 18,30  L 18,31  Z  " style="fill:rgb(72, 0, 0); fill-opacity:1.000; stroke:none;" />
 <path d="  M 20,32  L 20,31  L 19,31  L 19,32  Z  " style="fill:rgb(72, 0, 0); fill-opacity:1.000; stroke:none;" />
 <path d="  M 22,26  L 22,25  L 21,25  L 21,26  Z  " style="fill:rgb(72, 0, 0); fill-opacity:1.000; stroke:none;" />
 <path d="  M 23,27  L 23,26  L 22,26  L 22,27  Z  " style="fill:rgb(72, 0, 0); fill-opacity:1.000; stroke:none;" />
 <path d="  M 23,32  L 24,32  L 24,27  L 23,27  Z  " style="fill:rgb(72, 0, 0); fill-opacity:1.000; stroke:none;" />
 <path d="  M 26,32  L 27,32  L 27,27  L 26,27  Z  " style="fill:rgb(72, 0, 0); fill-opacity:1.000; stroke:none;" />
 <path d="  M 27,27  L 28,27  L 28,26  L 27,26  Z  " style="fill:rgb(72, 0, 0); fill-opacity:1.000; stroke:none;" />
 <path d="  M 29,26  L 29,24  L 28,24  L 28,26  Z  " style="fill:rgb(72, 0, 0); fill-opacity:1.000; stroke:none;" />
 <path d="  M 7,26  L 7,25  L 6,25  L 6,26  Z  " style="fill:rgb(164, 36, 41); fill-opacity:1.000; stroke:none;" />
 <path d="  M 8,25  L 8,24  L 7,24  L 7,25  Z  " style="fill:rgb(164, 36, 41); fill-opacity:1.000; stroke:none;" />
 <path d="  M 7,26  L 7,27  L 10,27  L 10,26  L 11,26  L 11,24  L 10,24  L 10,25  L 9,25  L 9,26  Z  " style="fill:rgb(164, 36, 41); fill-opacity:1.000; stroke:none;" />
 <path d="  M 27,25  L 27,24  L 28,24  L 28,23  L 27,23  L 27,22  L 25,22  L 25,23  L 26,23  L 26,24  L 25,24  L 25,25  L 24,25  L 24,24  L 23,24  L 23,23  L 22,23  L 22,25  L 23,25  L 23,26  L 26,26  L 26,25  Z  " style="fill:rgb(164, 36, 41); fill-opacity:1.000; stroke:none;" />
 <path d="  M 23,22  L 23,23  L 24,23  L 24,22  Z  " style="fill:rgb(164, 36, 41); fill-opacity:1.000; stroke:none;" />
 <path d="  M 8,24  L 8,25  L 7,25  L 7,26  L 9,26  L 9,25  L 10,25  L 10,24  Z  " style="fill:rgb(197, 52, 57); fill-opacity:1.000; stroke:none;" />
 <path d="  M 25,23  L 25,22  L 24,22  L 24,23  L 23,23  L 23,24  L 24,24  L 24,25  L 25,25  L 25,24  L 26,24  L 26,23  Z  " style="fill:rgb(197, 52, 57); fill-opacity:1.000; stroke:none;" />
</svg>
