<?xml version="1.0" encoding="UTF-8" standalone="no"?>
<!DOCTYPE svg PUBLIC "-//W3C//DTD SVG 1.1//EN" 
  "http://www.w3.org/Graphics/SVG/1.1/DTD/svg11.dtd">
<svg width="32" height="32"
	 xmlns="http://www.w3.org/2000/svg" version="1.1">
 <path d="  M 9,5  L 10,5  L 10,3  L 11,3  L 11,2  L 10,2  L 10,0  L 8,0  L 8,1  L 9,1  Z  " style="fill:rgb(131, 99, 86); fill-opacity:1.000; stroke:none;" />
 <path d="  M 10,7  L 11,7  L 11,6  L 10,6  Z  " style="fill:rgb(131, 99, 86); fill-opacity:1.000; stroke:none;" />
 <path d="  M 11,10  L 12,10  L 12,11  L 13,11  L 13,9  L 12,9  L 12,8  L 11,8  Z  " style="fill:rgb(131, 99, 86); fill-opacity:1.000; stroke:none;" />
 <path d="  M 12,16  L 13,16  L 13,15  L 12,15  Z  " style="fill:rgb(131, 99, 86); fill-opacity:1.000; stroke:none;" />
 <path d="  M 16,2  L 16,0  L 15,0  L 15,1  L 14,1  L 14,2  L 13,2  L 13,3  L 15,3  L 15,2  Z  " style="fill:rgb(131, 99, 86); fill-opacity:1.000; stroke:none;" />
 <path d="  M 14,16  L 13,16  L 13,17  L 14,17  Z  " style="fill:rgb(131, 99, 86); fill-opacity:1.000; stroke:none;" />
 <path d="  M 13,19  L 13,20  L 14,20  L 14,19  Z  " style="fill:rgb(131, 99, 86); fill-opacity:1.000; stroke:none;" />
 <path d="  M 14,22  L 15,22  L 15,21  L 14,21  Z  " style="fill:rgb(131, 99, 86); fill-opacity:1.000; stroke:none;" />
 <path d="  M 17,2  L 17,3  L 15,3  L 15,4  L 18,4  L 18,3  L 19,3  L 19,2  Z  " style="fill:rgb(131, 99, 86); fill-opacity:1.000; stroke:none;" />
 <path d="  M 15,22  L 15,23  L 16,23  L 16,22  Z  " style="fill:rgb(131, 99, 86); fill-opacity:1.000; stroke:none;" />
 <path d="  M 16,6  L 16,7  L 18,7  L 18,6  L 19,6  L 19,5  L 17,5  L 17,6  Z  " style="fill:rgb(131, 99, 86); fill-opacity:1.000; stroke:none;" />
 <path d="  M 16,10  L 17,10  L 17,9  L 16,9  Z  " style="fill:rgb(131, 99, 86); fill-opacity:1.000; stroke:none;" />
 <path d="  M 17,15  L 17,16  L 16,16  L 16,17  L 18,17  L 18,15  Z  " style="fill:rgb(131, 99, 86); fill-opacity:1.000; stroke:none;" />
 <path d="  M 16,22  L 17,22  L 17,18  L 16,18  Z  " style="fill:rgb(131, 99, 86); fill-opacity:1.000; stroke:none;" />
 <path d="  M 18,7  L 18,8  L 17,8  L 17,9  L 19,9  L 19,8  L 20,8  L 20,6  L 19,6  L 19,7  Z  " style="fill:rgb(131, 99, 86); fill-opacity:1.000; stroke:none;" />
 <path d="  M 18,10  L 18,11  L 17,11  L 17,12  L 19,12  L 19,10  Z  " style="fill:rgb(131, 99, 86); fill-opacity:1.000; stroke:none;" />
 <path d="  M 18,1  L 20,1  L 20,0  L 18,0  Z  " style="fill:rgb(131, 99, 86); fill-opacity:1.000; stroke:none;" />
 <path d="  M 19,14  L 19,13  L 18,13  L 18,14  Z  " style="fill:rgb(131, 99, 86); fill-opacity:1.000; stroke:none;" />
 <path d="  M 23,3  L 21,3  L 21,4  L 23,4  Z  " style="fill:rgb(131, 99, 86); fill-opacity:1.000; stroke:none;" />
 <path d="  M 11,3  L 10,3  L 10,6  L 13,6  L 13,5  L 15,5  L 15,6  L 14,6  L 14,7  L 16,7  L 16,6  L 17,6  L 17,5  L 18,5  L 18,4  L 15,4  L 15,3  L 13,3  L 13,2  L 14,2  L 14,1  L 15,1  L 15,0  L 10,0  L 10,2  L 11,2  Z  M 11,5  L 11,4  L 13,4  L 13,5  Z  " style="fill:rgb(146, 121, 101); fill-opacity:1.000; stroke:none;" />
 <path d="  M 11,7  L 11,8  L 12,8  L 12,7  Z  " style="fill:rgb(146, 121, 101); fill-opacity:1.000; stroke:none;" />
 <path d="  M 12,9  L 13,9  L 13,11  L 12,11  L 12,13  L 13,13  L 13,12  L 14,12  L 14,11  L 16,11  L 16,12  L 15,12  L 15,13  L 18,13  L 18,12  L 17,12  L 17,11  L 18,11  L 18,10  L 16,10  L 16,9  L 17,9  L 17,8  L 18,8  L 18,7  L 16,7  L 16,8  L 15,8  L 15,9  L 14,9  L 14,8  L 12,8  Z  " style="fill:rgb(146, 121, 101); fill-opacity:1.000; stroke:none;" />
 <path d="  M 14,15  L 14,14  L 12,14  L 12,15  Z  " style="fill:rgb(146, 121, 101); fill-opacity:1.000; stroke:none;" />
 <path d="  M 13,17  L 13,19  L 14,19  L 14,18  L 15,18  L 15,19  L 16,19  L 16,18  L 17,18  L 17,17  L 16,17  L 16,16  L 17,16  L 17,15  L 15,15  L 15,16  L 14,16  L 14,17  Z  " style="fill:rgb(146, 121, 101); fill-opacity:1.000; stroke:none;" />
 <path d="  M 16,20  L 14,20  L 14,21  L 15,21  L 15,22  L 16,22  Z  " style="fill:rgb(146, 121, 101); fill-opacity:1.000; stroke:none;" />
 <path d="  M 18,14  L 17,14  L 17,15  L 18,15  Z  " style="fill:rgb(146, 121, 101); fill-opacity:1.000; stroke:none;" />
 <path d="  M 19,6  L 18,6  L 18,7  L 19,7  Z  " style="fill:rgb(146, 121, 101); fill-opacity:1.000; stroke:none;" />
 <path d="  M 13,4  L 11,4  L 11,5  L 13,5  Z  " style="fill:rgb(160, 141, 113); fill-opacity:1.000; stroke:none;" />
 <path d="  M 12,8  L 14,8  L 14,9  L 15,9  L 15,8  L 16,8  L 16,7  L 14,7  L 14,6  L 15,6  L 15,5  L 13,5  L 13,6  L 11,6  L 11,7  L 12,7  Z  " style="fill:rgb(160, 141, 113); fill-opacity:1.000; stroke:none;" />
 <path d="  M 14,11  L 14,12  L 13,12  L 13,13  L 12,13  L 12,14  L 14,14  L 14,15  L 13,15  L 13,16  L 15,16  L 15,15  L 17,15  L 17,14  L 18,14  L 18,13  L 15,13  L 15,12  L 16,12  L 16,11  Z  " style="fill:rgb(160, 141, 113); fill-opacity:1.000; stroke:none;" />
 <path d="  M 16,20  L 16,19  L 15,19  L 15,18  L 14,18  L 14,20  Z  " style="fill:rgb(160, 141, 113); fill-opacity:1.000; stroke:none;" />
 <path d="  M 19,12  L 18,12  L 18,13  L 19,13  L 19,14  L 20,14  L 20,10  L 21,10  L 21,8  L 22,8  L 22,4  L 21,4  L 21,3  L 23,3  L 23,1  L 24,1  L 24,0  L 20,0  L 20,1  L 18,1  L 18,0  L 16,0  L 16,2  L 15,2  L 15,3  L 17,3  L 17,2  L 19,2  L 19,3  L 18,3  L 18,5  L 19,5  L 19,6  L 20,6  L 20,8  L 19,8  L 19,9  L 17,9  L 17,10  L 19,10  Z  " style="fill:rgb(115, 84, 80); fill-opacity:1.000; stroke:none;" />
 <path d="  M 18,17  L 17,17  L 17,20  L 18,20  Z  " style="fill:rgb(115, 84, 80); fill-opacity:1.000; stroke:none;" />
 <path d="  M 19,14  L 18,14  L 18,16  L 19,16  Z  " style="fill:rgb(115, 84, 80); fill-opacity:1.000; stroke:none;" />
</svg>
