<?xml version="1.0" encoding="UTF-8" standalone="no"?>
<!DOCTYPE svg PUBLIC "-//W3C//DTD SVG 1.1//EN" 
  "http://www.w3.org/Graphics/SVG/1.1/DTD/svg11.dtd">
<svg width="32" height="32"
	 xmlns="http://www.w3.org/2000/svg" version="1.1">
 <path d="  M 5,3  L 5,2  L 2,2  L 2,1  L 1,1  L 1,0  L 0,0  L 0,4  L 1,4  L 1,3  Z  " style="fill:rgb(131, 99, 86); fill-opacity:1.000; stroke:none;" />
 <path d="  M 2,14  L 3,14  L 3,13  L 2,13  Z  " style="fill:rgb(131, 99, 86); fill-opacity:1.000; stroke:none;" />
 <path d="  M 2,25  L 3,25  L 3,24  L 4,24  L 4,23  L 3,23  L 3,22  L 2,22  Z  " style="fill:rgb(131, 99, 86); fill-opacity:1.000; stroke:none;" />
 <path d="  M 6,8  L 10,8  L 10,7  L 12,7  L 12,6  L 9,6  L 9,7  L 6,7  Z  " style="fill:rgb(131, 99, 86); fill-opacity:1.000; stroke:none;" />
 <path d="  M 11,17  L 11,18  L 13,18  L 13,17  L 12,17  L 12,16  L 8,16  L 8,17  Z  " style="fill:rgb(131, 99, 86); fill-opacity:1.000; stroke:none;" />
 <path d="  M 12,22  L 12,21  L 10,21  L 10,22  L 8,22  L 8,23  L 12,23  L 12,24  L 15,24  L 15,23  L 14,23  L 14,22  Z  " style="fill:rgb(131, 99, 86); fill-opacity:1.000; stroke:none;" />
 <path d="  M 9,32  L 10,32  L 10,31  L 9,31  Z  " style="fill:rgb(131, 99, 86); fill-opacity:1.000; stroke:none;" />
 <path d="  M 13,9  L 13,10  L 15,10  L 15,9  L 16,9  L 16,10  L 17,10  L 17,9  L 18,9  L 18,8  L 17,8  L 17,7  L 18,7  L 18,4  L 16,4  L 16,5  L 17,5  L 17,6  L 15,6  L 15,7  L 14,7  L 14,8  L 10,8  L 10,9  Z  " style="fill:rgb(131, 99, 86); fill-opacity:1.000; stroke:none;" />
 <path d="  M 10,13  L 10,14  L 12,14  L 12,13  Z  " style="fill:rgb(131, 99, 86); fill-opacity:1.000; stroke:none;" />
 <path d="  M 11,28  L 11,29  L 13,29  L 13,28  Z  " style="fill:rgb(131, 99, 86); fill-opacity:1.000; stroke:none;" />
 <path d="  M 11,32  L 12,32  L 12,31  L 11,31  Z  " style="fill:rgb(131, 99, 86); fill-opacity:1.000; stroke:none;" />
 <path d="  M 14,2  L 14,1  L 13,1  L 13,0  L 12,0  L 12,2  Z  " style="fill:rgb(131, 99, 86); fill-opacity:1.000; stroke:none;" />
 <path d="  M 14,11  L 14,12  L 12,12  L 12,13  L 15,13  L 15,12  L 18,12  L 18,11  L 16,11  L 16,10  L 15,10  L 15,11  Z  " style="fill:rgb(131, 99, 86); fill-opacity:1.000; stroke:none;" />
 <path d="  M 13,5  L 13,6  L 15,6  L 15,5  Z  " style="fill:rgb(131, 99, 86); fill-opacity:1.000; stroke:none;" />
 <path d="  M 15,16  L 15,15  L 16,15  L 16,14  L 13,14  L 13,15  L 14,15  L 14,16  L 13,16  L 13,17  L 15,17  L 15,18  L 16,18  L 16,17  L 17,17  L 17,16  Z  " style="fill:rgb(131, 99, 86); fill-opacity:1.000; stroke:none;" />
 <path d="  M 14,22  L 16,22  L 16,21  L 18,21  L 18,20  L 19,20  L 19,19  L 17,19  L 17,20  L 16,20  L 16,19  L 15,19  L 15,20  L 13,20  L 13,21  L 14,21  Z  " style="fill:rgb(131, 99, 86); fill-opacity:1.000; stroke:none;" />
 <path d="  M 17,28  L 18,28  L 18,27  L 17,27  L 17,26  L 15,26  L 15,27  L 13,27  L 13,28  L 16,28  L 16,29  L 17,29  Z  " style="fill:rgb(131, 99, 86); fill-opacity:1.000; stroke:none;" />
 <path d="  M 14,4  L 15,4  L 15,3  L 14,3  Z  " style="fill:rgb(131, 99, 86); fill-opacity:1.000; stroke:none;" />
 <path d="  M 15,29  L 14,29  L 14,30  L 15,30  Z  " style="fill:rgb(131, 99, 86); fill-opacity:1.000; stroke:none;" />
 <path d="  M 16,2  L 15,2  L 15,3  L 16,3  Z  " style="fill:rgb(131, 99, 86); fill-opacity:1.000; stroke:none;" />
 <path d="  M 16,31  L 16,30  L 15,30  L 15,31  Z  " style="fill:rgb(131, 99, 86); fill-opacity:1.000; stroke:none;" />
 <path d="  M 17,19  L 17,18  L 16,18  L 16,19  Z  " style="fill:rgb(131, 99, 86); fill-opacity:1.000; stroke:none;" />
 <path d="  M 16,25  L 17,25  L 17,26  L 19,26  L 19,25  L 18,25  L 18,24  L 16,24  Z  " style="fill:rgb(131, 99, 86); fill-opacity:1.000; stroke:none;" />
 <path d="  M 18,29  L 17,29  L 17,30  L 18,30  Z  " style="fill:rgb(131, 99, 86); fill-opacity:1.000; stroke:none;" />
 <path d="  M 18,10  L 18,11  L 20,11  L 20,10  Z  " style="fill:rgb(131, 99, 86); fill-opacity:1.000; stroke:none;" />
 <path d="  M 19,27  L 20,27  L 20,26  L 19,26  Z  " style="fill:rgb(131, 99, 86); fill-opacity:1.000; stroke:none;" />
 <path d="  M 19,29  L 20,29  L 20,28  L 19,28  Z  " style="fill:rgb(131, 99, 86); fill-opacity:1.000; stroke:none;" />
 <path d="  M 20,16  L 22,16  L 22,15  L 24,15  L 24,14  L 21,14  L 21,15  L 20,15  Z  " style="fill:rgb(131, 99, 86); fill-opacity:1.000; stroke:none;" />
 <path d="  M 22,2  L 22,1  L 21,1  L 21,2  Z  " style="fill:rgb(131, 99, 86); fill-opacity:1.000; stroke:none;" />
 <path d="  M 24,1  L 24,2  L 25,2  L 25,1  L 26,1  L 26,0  L 22,0  L 22,1  Z  " style="fill:rgb(131, 99, 86); fill-opacity:1.000; stroke:none;" />
 <path d="  M 24,18  L 24,19  L 26,19  L 26,20  L 29,20  L 29,21  L 30,21  L 30,18  L 29,18  L 29,19  L 27,19  L 27,18  L 28,18  L 28,17  L 26,17  L 26,18  Z  " style="fill:rgb(131, 99, 86); fill-opacity:1.000; stroke:none;" />
 <path d="  M 29,25  L 29,24  L 27,24  L 27,25  Z  " style="fill:rgb(131, 99, 86); fill-opacity:1.000; stroke:none;" />
 <path d="  M 30,10  L 29,10  L 29,13  L 28,13  L 28,14  L 29,14  L 29,16  L 28,16  L 28,17  L 30,17  Z  " style="fill:rgb(131, 99, 86); fill-opacity:1.000; stroke:none;" />
 <path d="  M 28,21  L 28,22  L 29,22  L 29,21  Z  " style="fill:rgb(131, 99, 86); fill-opacity:1.000; stroke:none;" />
 <path d="  M 3,5  L 3,4  L 2,4  L 2,3  L 1,3  L 1,4  L 0,4  L 0,5  Z  " style="fill:rgb(146, 121, 101); fill-opacity:1.000; stroke:none;" />
 <path d="  M 1,0  L 1,1  L 2,1  L 2,2  L 5,2  L 5,3  L 8,3  L 8,2  L 6,2  L 6,1  L 8,1  L 8,0  Z  " style="fill:rgb(146, 121, 101); fill-opacity:1.000; stroke:none;" />
 <path d="  M 4,9  L 4,8  L 2,8  L 2,7  L 1,7  L 1,9  L 2,9  L 2,10  L 3,10  L 3,11  L 5,11  L 5,10  L 6,10  L 6,9  Z  " style="fill:rgb(146, 121, 101); fill-opacity:1.000; stroke:none;" />
 <path d="  M 8,25  L 8,26  L 10,26  L 10,25  L 11,25  L 11,24  L 12,24  L 12,23  L 8,23  L 8,22  L 6,22  L 6,21  L 4,21  L 4,20  L 3,20  L 3,19  L 4,19  L 4,18  L 7,18  L 7,17  L 8,17  L 8,16  L 6,16  L 6,15  L 4,15  L 4,14  L 6,14  L 6,13  L 5,13  L 5,12  L 3,12  L 3,11  L 2,11  L 2,13  L 3,13  L 3,14  L 2,14  L 2,22  L 3,22  L 3,23  L 4,23  L 4,24  L 6,24  L 6,25  Z  M 10,24  L 10,25  L 9,25  L 9,24  Z  M 6,16  L 6,17  L 5,17  L 5,16  Z  " style="fill:rgb(146, 121, 101); fill-opacity:1.000; stroke:none;" />
 <path d="  M 4,25  L 4,24  L 3,24  L 3,26  L 5,26  L 5,25  Z  " style="fill:rgb(146, 121, 101); fill-opacity:1.000; stroke:none;" />
 <path d="  M 7,30  L 5,30  L 5,29  L 6,29  L 6,28  L 4,28  L 4,27  L 3,27  L 3,29  L 4,29  L 4,32  L 6,32  L 6,31  L 7,31  Z  " style="fill:rgb(146, 121, 101); fill-opacity:1.000; stroke:none;" />
 <path d="  M 5,3  L 4,3  L 4,4  L 5,4  Z  " style="fill:rgb(146, 121, 101); fill-opacity:1.000; stroke:none;" />
 <path d="  M 4,8  L 6,8  L 6,7  L 4,7  Z  " style="fill:rgb(146, 121, 101); fill-opacity:1.000; stroke:none;" />
 <path d="  M 5,6  L 6,6  L 6,7  L 9,7  L 9,6  L 8,6  L 8,5  L 5,5  Z  " style="fill:rgb(146, 121, 101); fill-opacity:1.000; stroke:none;" />
 <path d="  M 6,20  L 6,21  L 8,21  L 8,20  Z  " style="fill:rgb(146, 121, 101); fill-opacity:1.000; stroke:none;" />
 <path d="  M 7,11  L 7,12  L 9,12  L 9,11  Z  " style="fill:rgb(146, 121, 101); fill-opacity:1.000; stroke:none;" />
 <path d="  M 7,19  L 10,19  L 10,18  L 11,18  L 11,17  L 8,17  L 8,18  L 7,18  Z  " style="fill:rgb(146, 121, 101); fill-opacity:1.000; stroke:none;" />
 <path d="  M 15,31  L 15,30  L 14,30  L 14,29  L 16,29  L 16,28  L 13,28  L 13,27  L 10,27  L 10,28  L 7,28  L 7,29  L 8,29  L 8,30  L 9,30  L 9,31  L 10,31  L 10,32  L 11,32  L 11,31  Z  M 9,30  L 9,29  L 10,29  L 10,30  Z  M 11,29  L 11,28  L 13,28  L 13,29  Z  " style="fill:rgb(146, 121, 101); fill-opacity:1.000; stroke:none;" />
 <path d="  M 12,10  L 12,11  L 10,11  L 10,12  L 9,12  L 9,13  L 8,13  L 8,14  L 10,14  L 10,13  L 12,13  L 12,12  L 14,12  L 14,11  L 15,11  L 15,10  L 13,10  L 13,9  L 10,9  L 10,8  L 8,8  L 8,9  L 9,9  L 9,10  Z  " style="fill:rgb(146, 121, 101); fill-opacity:1.000; stroke:none;" />
 <path d="  M 8,32  L 9,32  L 9,31  L 8,31  Z  " style="fill:rgb(146, 121, 101); fill-opacity:1.000; stroke:none;" />
 <path d="  M 13,17  L 13,16  L 14,16  L 14,15  L 13,15  L 13,14  L 10,14  L 10,15  L 9,15  L 9,16  L 12,16  L 12,17  Z  " style="fill:rgb(146, 121, 101); fill-opacity:1.000; stroke:none;" />
 <path d="  M 10,21  L 9,21  L 9,22  L 10,22  Z  " style="fill:rgb(146, 121, 101); fill-opacity:1.000; stroke:none;" />
 <path d="  M 12,0  L 10,0  L 10,1  L 12,1  Z  " style="fill:rgb(146, 121, 101); fill-opacity:1.000; stroke:none;" />
 <path d="  M 12,5  L 12,4  L 10,4  L 10,5  Z  " style="fill:rgb(146, 121, 101); fill-opacity:1.000; stroke:none;" />
 <path d="  M 10,20  L 10,21  L 13,21  L 13,20  Z  " style="fill:rgb(146, 121, 101); fill-opacity:1.000; stroke:none;" />
 <path d="  M 14,4  L 14,3  L 15,3  L 15,2  L 11,2  L 11,3  L 13,3  L 13,4  Z  " style="fill:rgb(146, 121, 101); fill-opacity:1.000; stroke:none;" />
 <path d="  M 13,6  L 13,5  L 12,5  L 12,6  Z  " style="fill:rgb(146, 121, 101); fill-opacity:1.000; stroke:none;" />
 <path d="  M 13,17  L 13,18  L 12,18  L 12,19  L 14,19  L 14,20  L 15,20  L 15,19  L 16,19  L 16,18  L 15,18  L 15,17  Z  " style="fill:rgb(146, 121, 101); fill-opacity:1.000; stroke:none;" />
 <path d="  M 16,25  L 16,24  L 14,24  L 14,25  L 12,25  L 12,26  L 13,26  L 13,27  L 15,27  L 15,26  L 17,26  L 17,25  Z  " style="fill:rgb(146, 121, 101); fill-opacity:1.000; stroke:none;" />
 <path d="  M 14,4  L 14,5  L 15,5  L 15,6  L 17,6  L 17,5  L 16,5  L 16,4  Z  " style="fill:rgb(146, 121, 101); fill-opacity:1.000; stroke:none;" />
 <path d="  M 16,10  L 16,9  L 15,9  L 15,10  Z  " style="fill:rgb(146, 121, 101); fill-opacity:1.000; stroke:none;" />
 <path d="  M 16,19  L 16,20  L 17,20  L 17,19  Z  " style="fill:rgb(146, 121, 101); fill-opacity:1.000; stroke:none;" />
 <path d="  M 19,29  L 19,28  L 17,28  L 17,29  Z  " style="fill:rgb(146, 121, 101); fill-opacity:1.000; stroke:none;" />
 <path d="  M 12,6  L 12,5  L 14,5  L 14,4  L 13,4  L 13,3  L 11,3  L 11,2  L 12,2  L 12,1  L 10,1  L 10,0  L 8,0  L 8,1  L 6,1  L 6,2  L 8,2  L 8,3  L 5,3  L 5,4  L 4,4  L 4,3  L 2,3  L 2,4  L 3,4  L 3,5  L 0,5  L 0,6  L 1,6  L 1,7  L 2,7  L 2,8  L 4,8  L 4,7  L 6,7  L 6,6  L 5,6  L 5,5  L 8,5  L 8,6  Z  M 12,5  L 10,5  L 10,4  L 12,4  Z  " style="fill:rgb(160, 141, 113); fill-opacity:1.000; stroke:none;" />
 <path d="  M 3,10  L 2,10  L 2,11  L 3,11  Z  " style="fill:rgb(160, 141, 113); fill-opacity:1.000; stroke:none;" />
 <path d="  M 3,11  L 3,12  L 5,12  L 5,13  L 6,13  L 6,14  L 4,14  L 4,15  L 6,15  L 6,16  L 9,16  L 9,15  L 10,15  L 10,14  L 8,14  L 8,13  L 9,13  L 9,12  L 10,12  L 10,11  L 12,11  L 12,10  L 9,10  L 9,9  L 8,9  L 8,8  L 4,8  L 4,9  L 6,9  L 6,10  L 5,10  L 5,11  Z  M 9,11  L 9,12  L 7,12  L 7,11  Z  " style="fill:rgb(160, 141, 113); fill-opacity:1.000; stroke:none;" />
 <path d="  M 10,18  L 10,19  L 7,19  L 7,18  L 4,18  L 4,19  L 3,19  L 3,20  L 4,20  L 4,21  L 6,21  L 6,22  L 9,22  L 9,21  L 10,21  L 10,20  L 14,20  L 14,19  L 12,19  L 12,18  Z  M 8,20  L 8,21  L 6,21  L 6,20  Z  " style="fill:rgb(160, 141, 113); fill-opacity:1.000; stroke:none;" />
 <path d="  M 6,29  L 5,29  L 5,30  L 7,30  L 7,31  L 6,31  L 6,32  L 8,32  L 8,31  L 9,31  L 9,30  L 8,30  L 8,29  L 7,29  L 7,28  L 10,28  L 10,27  L 13,27  L 13,26  L 12,26  L 12,25  L 14,25  L 14,24  L 11,24  L 11,25  L 10,25  L 10,26  L 8,26  L 8,25  L 6,25  L 6,24  L 4,24  L 4,25  L 5,25  L 5,26  L 3,26  L 3,27  L 4,27  L 4,28  L 6,28  Z  " style="fill:rgb(160, 141, 113); fill-opacity:1.000; stroke:none;" />
 <path d="  M 5,17  L 6,17  L 6,16  L 5,16  Z  " style="fill:rgb(160, 141, 113); fill-opacity:1.000; stroke:none;" />
 <path d="  M 8,17  L 7,17  L 7,18  L 8,18  Z  " style="fill:rgb(160, 141, 113); fill-opacity:1.000; stroke:none;" />
 <path d="  M 10,25  L 10,24  L 9,24  L 9,25  Z  " style="fill:rgb(160, 141, 113); fill-opacity:1.000; stroke:none;" />
 <path d="  M 10,30  L 10,29  L 9,29  L 9,30  Z  " style="fill:rgb(160, 141, 113); fill-opacity:1.000; stroke:none;" />
 <path d="  M 12,6  L 12,7  L 10,7  L 10,8  L 14,8  L 14,7  L 15,7  L 15,6  Z  " style="fill:rgb(115, 84, 80); fill-opacity:1.000; stroke:none;" />
 <path d="  M 19,9  L 19,8  L 18,8  L 18,9  L 17,9  L 17,10  L 16,10  L 16,11  L 18,11  L 18,12  L 15,12  L 15,13  L 12,13  L 12,14  L 16,14  L 16,15  L 15,15  L 15,16  L 17,16  L 17,15  L 18,15  L 18,14  L 20,14  L 20,13  L 19,13  L 19,12  L 23,12  L 23,11  L 21,11  L 21,10  L 22,10  L 22,9  Z  M 20,10  L 20,11  L 18,11  L 18,10  Z  " style="fill:rgb(115, 84, 80); fill-opacity:1.000; stroke:none;" />
 <path d="  M 12,21  L 12,22  L 14,22  L 14,21  Z  " style="fill:rgb(115, 84, 80); fill-opacity:1.000; stroke:none;" />
 <path d="  M 12,31  L 12,32  L 17,32  L 17,31  Z  " style="fill:rgb(115, 84, 80); fill-opacity:1.000; stroke:none;" />
 <path d="  M 13,0  L 13,1  L 14,1  L 14,0  Z  " style="fill:rgb(115, 84, 80); fill-opacity:1.000; stroke:none;" />
 <path d="  M 16,2  L 16,1  L 14,1  L 14,2  Z  " style="fill:rgb(115, 84, 80); fill-opacity:1.000; stroke:none;" />
 <path d="  M 19,23  L 19,22  L 17,22  L 17,21  L 16,21  L 16,22  L 14,22  L 14,23  L 15,23  L 15,24  L 16,24  L 16,23  Z  " style="fill:rgb(115, 84, 80); fill-opacity:1.000; stroke:none;" />
 <path d="  M 16,4  L 16,3  L 15,3  L 15,4  Z  " style="fill:rgb(115, 84, 80); fill-opacity:1.000; stroke:none;" />
 <path d="  M 15,30  L 17,30  L 17,29  L 15,29  Z  " style="fill:rgb(115, 84, 80); fill-opacity:1.000; stroke:none;" />
 <path d="  M 16,3  L 17,3  L 17,2  L 16,2  Z  " style="fill:rgb(115, 84, 80); fill-opacity:1.000; stroke:none;" />
 <path d="  M 16,18  L 17,18  L 17,17  L 16,17  Z  " style="fill:rgb(115, 84, 80); fill-opacity:1.000; stroke:none;" />
 <path d="  M 17,2  L 19,2  L 19,1  L 17,1  Z  " style="fill:rgb(115, 84, 80); fill-opacity:1.000; stroke:none;" />
 <path d="  M 17,3  L 17,4  L 18,4  L 18,3  Z  " style="fill:rgb(115, 84, 80); fill-opacity:1.000; stroke:none;" />
 <path d="  M 17,8  L 18,8  L 18,7  L 17,7  Z  " style="fill:rgb(115, 84, 80); fill-opacity:1.000; stroke:none;" />
 <path d="  M 19,17  L 19,16  L 17,16  L 17,17  Z  " style="fill:rgb(115, 84, 80); fill-opacity:1.000; stroke:none;" />
 <path d="  M 18,19  L 18,18  L 17,18  L 17,19  Z  " style="fill:rgb(115, 84, 80); fill-opacity:1.000; stroke:none;" />
 <path d="  M 17,26  L 17,27  L 18,27  L 18,28  L 20,28  L 20,27  L 19,27  L 19,26  Z  " style="fill:rgb(115, 84, 80); fill-opacity:1.000; stroke:none;" />
 <path d="  M 18,7  L 20,7  L 20,6  L 19,6  L 19,5  L 22,5  L 22,4  L 18,4  Z  " style="fill:rgb(115, 84, 80); fill-opacity:1.000; stroke:none;" />
 <path d="  M 19,21  L 19,20  L 18,20  L 18,21  Z  " style="fill:rgb(115, 84, 80); fill-opacity:1.000; stroke:none;" />
 <path d="  M 19,25  L 19,26  L 20,26  L 20,27  L 21,27  L 21,26  L 23,26  L 23,25  L 22,25  L 22,24  L 18,24  L 18,25  Z  " style="fill:rgb(115, 84, 80); fill-opacity:1.000; stroke:none;" />
 <path d="  M 19,30  L 19,31  L 21,31  L 21,30  L 24,30  L 24,31  L 26,31  L 26,32  L 28,32  L 28,28  L 29,28  L 29,25  L 28,25  L 28,26  L 25,26  L 25,27  L 24,27  L 24,28  L 26,28  L 26,29  L 23,29  L 23,28  L 20,28  L 20,29  L 18,29  L 18,30  Z  " style="fill:rgb(115, 84, 80); fill-opacity:1.000; stroke:none;" />
 <path d="  M 19,0  L 19,1  L 22,1  L 22,0  Z  " style="fill:rgb(115, 84, 80); fill-opacity:1.000; stroke:none;" />
 <path d="  M 19,15  L 19,16  L 20,16  L 20,15  Z  " style="fill:rgb(115, 84, 80); fill-opacity:1.000; stroke:none;" />
 <path d="  M 24,19  L 24,18  L 26,18  L 26,17  L 23,17  L 23,18  L 19,18  L 19,20  L 20,20  L 20,19  Z  " style="fill:rgb(115, 84, 80); fill-opacity:1.000; stroke:none;" />
 <path d="  M 21,15  L 21,14  L 20,14  L 20,15  Z  " style="fill:rgb(115, 84, 80); fill-opacity:1.000; stroke:none;" />
 <path d="  M 20,21  L 22,21  L 22,20  L 20,20  Z  " style="fill:rgb(115, 84, 80); fill-opacity:1.000; stroke:none;" />
 <path d="  M 22,2  L 24,2  L 24,1  L 22,1  Z  " style="fill:rgb(115, 84, 80); fill-opacity:1.000; stroke:none;" />
 <path d="  M 22,3  L 22,4  L 23,4  L 23,5  L 26,5  L 26,4  L 25,4  L 25,3  Z  " style="fill:rgb(115, 84, 80); fill-opacity:1.000; stroke:none;" />
 <path d="  M 24,16  L 24,15  L 22,15  L 22,16  Z  " style="fill:rgb(115, 84, 80); fill-opacity:1.000; stroke:none;" />
 <path d="  M 30,10  L 30,8  L 31,8  L 31,4  L 32,4  L 32,0  L 30,0  L 30,1  L 29,1  L 29,2  L 31,2  L 31,3  L 30,3  L 30,5  L 28,5  L 28,6  L 29,6  L 29,7  L 27,7  L 27,6  L 26,6  L 26,7  L 25,7  L 25,8  L 23,8  L 23,9  L 24,9  L 24,10  L 27,10  L 27,11  L 29,11  L 29,10  Z  M 25,9  L 25,8  L 28,8  L 28,9  Z  " style="fill:rgb(115, 84, 80); fill-opacity:1.000; stroke:none;" />
 <path d="  M 25,23  L 23,23  L 23,24  L 25,24  Z  " style="fill:rgb(115, 84, 80); fill-opacity:1.000; stroke:none;" />
 <path d="  M 25,15  L 25,14  L 24,14  L 24,15  Z  " style="fill:rgb(115, 84, 80); fill-opacity:1.000; stroke:none;" />
 <path d="  M 24,19  L 24,20  L 26,20  L 26,19  Z  " style="fill:rgb(115, 84, 80); fill-opacity:1.000; stroke:none;" />
 <path d="  M 25,1  L 25,2  L 26,2  L 26,1  Z  " style="fill:rgb(115, 84, 80); fill-opacity:1.000; stroke:none;" />
 <path d="  M 25,11  L 25,12  L 27,12  L 27,11  Z  " style="fill:rgb(115, 84, 80); fill-opacity:1.000; stroke:none;" />
 <path d="  M 26,1  L 27,1  L 27,0  L 26,0  Z  " style="fill:rgb(115, 84, 80); fill-opacity:1.000; stroke:none;" />
 <path d="  M 27,14  L 27,15  L 28,15  L 28,16  L 29,16  L 29,14  L 28,14  L 28,13  L 26,13  L 26,14  Z  " style="fill:rgb(115, 84, 80); fill-opacity:1.000; stroke:none;" />
 <path d="  M 26,17  L 28,17  L 28,16  L 26,16  Z  " style="fill:rgb(115, 84, 80); fill-opacity:1.000; stroke:none;" />
 <path d="  M 28,21  L 29,21  L 29,20  L 27,20  L 27,21  L 26,21  L 26,22  L 28,22  Z  " style="fill:rgb(115, 84, 80); fill-opacity:1.000; stroke:none;" />
 <path d="  M 26,25  L 27,25  L 27,24  L 26,24  Z  " style="fill:rgb(115, 84, 80); fill-opacity:1.000; stroke:none;" />
 <path d="  M 27,19  L 29,19  L 29,18  L 30,18  L 30,17  L 28,17  L 28,18  L 27,18  Z  " style="fill:rgb(115, 84, 80); fill-opacity:1.000; stroke:none;" />
 <path d="  M 27,24  L 29,24  L 29,22  L 28,22  L 28,23  L 27,23  Z  " style="fill:rgb(115, 84, 80); fill-opacity:1.000; stroke:none;" />
 <path d="  M 28,13  L 29,13  L 29,12  L 28,12  Z  " style="fill:rgb(115, 84, 80); fill-opacity:1.000; stroke:none;" />
 <path d="  M 29,21  L 29,22  L 30,22  L 30,21  Z  " style="fill:rgb(115, 84, 80); fill-opacity:1.000; stroke:none;" />
 <path d="  M 17,1  L 19,1  L 19,0  L 14,0  L 14,1  L 16,1  L 16,2  L 17,2  Z  " style="fill:rgb(99, 74, 71); fill-opacity:1.000; stroke:none;" />
 <path d="  M 17,3  L 16,3  L 16,4  L 17,4  Z  " style="fill:rgb(99, 74, 71); fill-opacity:1.000; stroke:none;" />
 <path d="  M 26,25  L 26,24  L 27,24  L 27,23  L 28,23  L 28,22  L 26,22  L 26,21  L 27,21  L 27,20  L 24,20  L 24,19  L 20,19  L 20,20  L 19,20  L 19,21  L 17,21  L 17,22  L 19,22  L 19,23  L 16,23  L 16,24  L 22,24  L 22,25  L 23,25  L 23,26  L 21,26  L 21,27  L 20,27  L 20,28  L 23,28  L 23,29  L 26,29  L 26,28  L 24,28  L 24,27  L 25,27  L 25,26  L 28,26  L 28,25  Z  M 23,23  L 25,23  L 25,24  L 23,24  Z  M 20,21  L 20,20  L 22,20  L 22,21  Z  " style="fill:rgb(99, 74, 71); fill-opacity:1.000; stroke:none;" />
 <path d="  M 16,30  L 16,31  L 17,31  L 17,32  L 26,32  L 26,31  L 24,31  L 24,30  L 21,30  L 21,31  L 19,31  L 19,30  Z  " style="fill:rgb(99, 74, 71); fill-opacity:1.000; stroke:none;" />
 <path d="  M 23,9  L 23,8  L 25,8  L 25,7  L 26,7  L 26,6  L 27,6  L 27,7  L 29,7  L 29,6  L 28,6  L 28,5  L 30,5  L 30,3  L 31,3  L 31,2  L 29,2  L 29,1  L 30,1  L 30,0  L 27,0  L 27,1  L 26,1  L 26,2  L 21,2  L 21,1  L 19,1  L 19,2  L 17,2  L 17,3  L 18,3  L 18,4  L 22,4  L 22,5  L 19,5  L 19,6  L 20,6  L 20,7  L 18,7  L 18,8  L 19,8  L 19,9  L 22,9  L 22,10  L 21,10  L 21,11  L 23,11  L 23,12  L 19,12  L 19,13  L 20,13  L 20,14  L 25,14  L 25,15  L 24,15  L 24,16  L 19,16  L 19,17  L 17,17  L 17,18  L 18,18  L 18,19  L 19,19  L 19,18  L 23,18  L 23,17  L 26,17  L 26,16  L 28,16  L 28,15  L 27,15  L 27,14  L 26,14  L 26,13  L 28,13  L 28,12  L 29,12  L 29,11  L 27,11  L 27,10  L 24,10  L 24,9  Z  M 22,4  L 22,3  L 25,3  L 25,4  L 26,4  L 26,5  L 23,5  L 23,4  Z  M 25,12  L 25,11  L 27,11  L 27,12  Z  " style="fill:rgb(99, 74, 71); fill-opacity:1.000; stroke:none;" />
 <path d="  M 17,15  L 17,16  L 19,16  L 19,15  L 20,15  L 20,14  L 18,14  L 18,15  Z  " style="fill:rgb(99, 74, 71); fill-opacity:1.000; stroke:none;" />
 <path d="  M 25,9  L 28,9  L 28,8  L 25,8  Z  " style="fill:rgb(99, 74, 71); fill-opacity:1.000; stroke:none;" />
</svg>
