<?xml version="1.0" encoding="UTF-8" standalone="no"?>
<!DOCTYPE svg PUBLIC "-//W3C//DTD SVG 1.1//EN" 
  "http://www.w3.org/Graphics/SVG/1.1/DTD/svg11.dtd">
<svg width="32" height="32"
	 xmlns="http://www.w3.org/2000/svg" version="1.1">
 <path d="  M 5,20  L 4,20  L 4,21  L 5,21  Z  " style="fill:rgb(74, 143, 40); fill-opacity:1.000; stroke:none;" />
 <path d="  M 6,22  L 6,21  L 5,21  L 5,22  Z  " style="fill:rgb(74, 143, 40); fill-opacity:1.000; stroke:none;" />
 <path d="  M 6,23  L 7,23  L 7,22  L 6,22  Z  " style="fill:rgb(74, 143, 40); fill-opacity:1.000; stroke:none;" />
 <path d="  M 7,26  L 6,26  L 6,27  L 7,27  Z  " style="fill:rgb(74, 143, 40); fill-opacity:1.000; stroke:none;" />
 <path d="  M 8,22  L 8,21  L 7,21  L 7,22  Z  " style="fill:rgb(74, 143, 40); fill-opacity:1.000; stroke:none;" />
 <path d="  M 7,24  L 8,24  L 8,23  L 7,23  Z  " style="fill:rgb(74, 143, 40); fill-opacity:1.000; stroke:none;" />
 <path d="  M 9,13  L 9,11  L 8,11  L 8,13  Z  " style="fill:rgb(74, 143, 40); fill-opacity:1.000; stroke:none;" />
 <path d="  M 9,22  L 8,22  L 8,23  L 9,23  Z  " style="fill:rgb(74, 143, 40); fill-opacity:1.000; stroke:none;" />
 <path d="  M 8,24  L 8,25  L 9,25  L 9,24  Z  " style="fill:rgb(74, 143, 40); fill-opacity:1.000; stroke:none;" />
 <path d="  M 9,10  L 10,10  L 10,9  L 9,9  Z  " style="fill:rgb(74, 143, 40); fill-opacity:1.000; stroke:none;" />
 <path d="  M 9,13  L 9,14  L 11,14  L 11,13  Z  " style="fill:rgb(74, 143, 40); fill-opacity:1.000; stroke:none;" />
 <path d="  M 11,2  L 10,2  L 10,3  L 11,3  Z  " style="fill:rgb(74, 143, 40); fill-opacity:1.000; stroke:none;" />
 <path d="  M 10,9  L 11,9  L 11,8  L 10,8  Z  " style="fill:rgb(74, 143, 40); fill-opacity:1.000; stroke:none;" />
 <path d="  M 11,12  L 11,11  L 10,11  L 10,12  Z  " style="fill:rgb(74, 143, 40); fill-opacity:1.000; stroke:none;" />
 <path d="  M 11,25  L 10,25  L 10,26  L 11,26  Z  " style="fill:rgb(74, 143, 40); fill-opacity:1.000; stroke:none;" />
 <path d="  M 12,4  L 12,3  L 11,3  L 11,4  Z  " style="fill:rgb(74, 143, 40); fill-opacity:1.000; stroke:none;" />
 <path d="  M 11,7  L 11,8  L 12,8  L 12,9  L 14,9  L 14,8  L 13,8  L 13,7  Z  " style="fill:rgb(74, 143, 40); fill-opacity:1.000; stroke:none;" />
 <path d="  M 11,9  L 11,10  L 12,10  L 12,9  Z  " style="fill:rgb(74, 143, 40); fill-opacity:1.000; stroke:none;" />
 <path d="  M 11,13  L 12,13  L 12,12  L 11,12  Z  " style="fill:rgb(74, 143, 40); fill-opacity:1.000; stroke:none;" />
 <path d="  M 12,17  L 11,17  L 11,18  L 12,18  Z  " style="fill:rgb(74, 143, 40); fill-opacity:1.000; stroke:none;" />
 <path d="  M 12,26  L 11,26  L 11,27  L 12,27  Z  " style="fill:rgb(74, 143, 40); fill-opacity:1.000; stroke:none;" />
 <path d="  M 12,12  L 13,12  L 13,10  L 12,10  Z  " style="fill:rgb(74, 143, 40); fill-opacity:1.000; stroke:none;" />
 <path d="  M 12,17  L 13,17  L 13,18  L 14,18  L 14,16  L 12,16  Z  " style="fill:rgb(74, 143, 40); fill-opacity:1.000; stroke:none;" />
 <path d="  M 12,21  L 13,21  L 13,20  L 12,20  Z  " style="fill:rgb(74, 143, 40); fill-opacity:1.000; stroke:none;" />
 <path d="  M 13,4  L 13,5  L 14,5  L 14,4  Z  " style="fill:rgb(74, 143, 40); fill-opacity:1.000; stroke:none;" />
 <path d="  M 13,22  L 14,22  L 14,21  L 13,21  Z  " style="fill:rgb(74, 143, 40); fill-opacity:1.000; stroke:none;" />
 <path d="  M 13,24  L 13,25  L 14,25  L 14,24  Z  " style="fill:rgb(74, 143, 40); fill-opacity:1.000; stroke:none;" />
 <path d="  M 13,27  L 13,28  L 14,28  L 14,27  Z  " style="fill:rgb(74, 143, 40); fill-opacity:1.000; stroke:none;" />
 <path d="  M 14,27  L 15,27  L 15,26  L 16,26  L 16,25  L 17,25  L 17,20  L 16,20  L 16,21  L 15,21  L 15,22  L 16,22  L 16,24  L 15,24  L 15,25  L 14,25  Z  " style="fill:rgb(74, 143, 40); fill-opacity:1.000; stroke:none;" />
 <path d="  M 16,6  L 15,6  L 15,9  L 17,9  L 17,8  L 16,8  Z  " style="fill:rgb(74, 143, 40); fill-opacity:1.000; stroke:none;" />
 <path d="  M 16,5  L 16,6  L 17,6  L 17,5  Z  " style="fill:rgb(74, 143, 40); fill-opacity:1.000; stroke:none;" />
 <path d="  M 17,11  L 17,10  L 16,10  L 16,11  Z  " style="fill:rgb(74, 143, 40); fill-opacity:1.000; stroke:none;" />
 <path d="  M 17,4  L 17,5  L 19,5  L 19,6  L 20,6  L 20,4  Z  " style="fill:rgb(74, 143, 40); fill-opacity:1.000; stroke:none;" />
 <path d="  M 18,10  L 18,9  L 17,9  L 17,10  Z  " style="fill:rgb(74, 143, 40); fill-opacity:1.000; stroke:none;" />
 <path d="  M 18,12  L 17,12  L 17,13  L 18,13  Z  " style="fill:rgb(74, 143, 40); fill-opacity:1.000; stroke:none;" />
 <path d="  M 18,19  L 18,18  L 17,18  L 17,19  Z  " style="fill:rgb(74, 143, 40); fill-opacity:1.000; stroke:none;" />
 <path d="  M 19,12  L 19,11  L 18,11  L 18,12  Z  " style="fill:rgb(74, 143, 40); fill-opacity:1.000; stroke:none;" />
 <path d="  M 19,16  L 18,16  L 18,17  L 19,17  Z  " style="fill:rgb(74, 143, 40); fill-opacity:1.000; stroke:none;" />
 <path d="  M 18,23  L 19,23  L 19,22  L 18,22  Z  " style="fill:rgb(74, 143, 40); fill-opacity:1.000; stroke:none;" />
 <path d="  M 18,27  L 19,27  L 19,28  L 20,28  L 20,26  L 18,26  Z  " style="fill:rgb(74, 143, 40); fill-opacity:1.000; stroke:none;" />
 <path d="  M 20,0  L 19,0  L 19,1  L 20,1  Z  " style="fill:rgb(74, 143, 40); fill-opacity:1.000; stroke:none;" />
 <path d="  M 20,3  L 20,2  L 19,2  L 19,3  Z  " style="fill:rgb(74, 143, 40); fill-opacity:1.000; stroke:none;" />
 <path d="  M 20,12  L 19,12  L 19,14  L 21,14  L 21,13  L 20,13  Z  " style="fill:rgb(74, 143, 40); fill-opacity:1.000; stroke:none;" />
 <path d="  M 19,15  L 19,16  L 20,16  L 20,15  Z  " style="fill:rgb(74, 143, 40); fill-opacity:1.000; stroke:none;" />
 <path d="  M 20,23  L 21,23  L 21,21  L 19,21  L 19,22  L 20,22  Z  " style="fill:rgb(74, 143, 40); fill-opacity:1.000; stroke:none;" />
 <path d="  M 19,24  L 20,24  L 20,23  L 19,23  Z  " style="fill:rgb(74, 143, 40); fill-opacity:1.000; stroke:none;" />
 <path d="  M 20,4  L 21,4  L 21,3  L 20,3  Z  " style="fill:rgb(74, 143, 40); fill-opacity:1.000; stroke:none;" />
 <path d="  M 21,7  L 21,6  L 20,6  L 20,7  Z  " style="fill:rgb(74, 143, 40); fill-opacity:1.000; stroke:none;" />
 <path d="  M 21,25  L 20,25  L 20,26  L 21,26  Z  " style="fill:rgb(74, 143, 40); fill-opacity:1.000; stroke:none;" />
 <path d="  M 22,3  L 22,2  L 21,2  L 21,3  Z  " style="fill:rgb(74, 143, 40); fill-opacity:1.000; stroke:none;" />
 <path d="  M 22,5  L 21,5  L 21,6  L 22,6  Z  " style="fill:rgb(74, 143, 40); fill-opacity:1.000; stroke:none;" />
 <path d="  M 21,7  L 21,8  L 23,8  L 23,7  Z  " style="fill:rgb(74, 143, 40); fill-opacity:1.000; stroke:none;" />
 <path d="  M 22,14  L 21,14  L 21,15  L 22,15  Z  " style="fill:rgb(74, 143, 40); fill-opacity:1.000; stroke:none;" />
 <path d="  M 22,27  L 21,27  L 21,28  L 22,28  Z  " style="fill:rgb(74, 143, 40); fill-opacity:1.000; stroke:none;" />
 <path d="  M 22,4  L 23,4  L 23,3  L 22,3  Z  " style="fill:rgb(74, 143, 40); fill-opacity:1.000; stroke:none;" />
 <path d="  M 22,25  L 23,25  L 23,23  L 22,23  Z  " style="fill:rgb(74, 143, 40); fill-opacity:1.000; stroke:none;" />
 <path d="  M 23,27  L 23,26  L 22,26  L 22,27  Z  " style="fill:rgb(74, 143, 40); fill-opacity:1.000; stroke:none;" />
 <path d="  M 23,7  L 24,7  L 24,5  L 23,5  Z  " style="fill:rgb(74, 143, 40); fill-opacity:1.000; stroke:none;" />
 <path d="  M 23,13  L 24,13  L 24,12  L 23,12  Z  " style="fill:rgb(74, 143, 40); fill-opacity:1.000; stroke:none;" />
 <path d="  M 24,16  L 24,15  L 23,15  L 23,16  Z  " style="fill:rgb(74, 143, 40); fill-opacity:1.000; stroke:none;" />
 <path d="  M 23,22  L 23,23  L 24,23  L 24,22  Z  " style="fill:rgb(74, 143, 40); fill-opacity:1.000; stroke:none;" />
 <path d="  M 24,13  L 24,14  L 25,14  L 25,13  Z  " style="fill:rgb(74, 143, 40); fill-opacity:1.000; stroke:none;" />
 <path d="  M 24,21  L 24,22  L 25,22  L 25,21  Z  " style="fill:rgb(74, 143, 40); fill-opacity:1.000; stroke:none;" />
 <path d="  M 25,23  L 24,23  L 24,24  L 25,24  Z  " style="fill:rgb(74, 143, 40); fill-opacity:1.000; stroke:none;" />
 <path d="  M 25,15  L 26,15  L 26,14  L 25,14  Z  " style="fill:rgb(74, 143, 40); fill-opacity:1.000; stroke:none;" />
 <path d="  M 25,17  L 26,17  L 26,16  L 25,16  Z  " style="fill:rgb(74, 143, 40); fill-opacity:1.000; stroke:none;" />
 <path d="  M 26,22  L 25,22  L 25,23  L 26,23  Z  " style="fill:rgb(74, 143, 40); fill-opacity:1.000; stroke:none;" />
 <path d="  M 26,28  L 27,28  L 27,27  L 26,27  Z  " style="fill:rgb(74, 143, 40); fill-opacity:1.000; stroke:none;" />
 <path d="  M 27,27  L 28,27  L 28,26  L 27,26  Z  " style="fill:rgb(74, 143, 40); fill-opacity:1.000; stroke:none;" />
 <path d="  M 5,30  L 4,30  L 4,32  L 5,32  Z  " style="fill:rgb(144, 117, 64); fill-opacity:1.000; stroke:none;" />
 <path d="  M 5,29  L 5,30  L 6,30  L 6,29  Z  " style="fill:rgb(144, 117, 64); fill-opacity:1.000; stroke:none;" />
 <path d="  M 9,29  L 9,28  L 6,28  L 6,29  Z  " style="fill:rgb(144, 117, 64); fill-opacity:1.000; stroke:none;" />
 <path d="  M 10,30  L 10,29  L 9,29  L 9,30  Z  " style="fill:rgb(144, 117, 64); fill-opacity:1.000; stroke:none;" />
 <path d="  M 11,32  L 11,30  L 10,30  L 10,32  Z  " style="fill:rgb(144, 117, 64); fill-opacity:1.000; stroke:none;" />
 <path d="  M 12,30  L 12,32  L 13,32  L 13,30  Z  " style="fill:rgb(144, 117, 64); fill-opacity:1.000; stroke:none;" />
 <path d="  M 13,29  L 13,30  L 14,30  L 14,29  Z  " style="fill:rgb(144, 117, 64); fill-opacity:1.000; stroke:none;" />
 <path d="  M 17,29  L 17,28  L 14,28  L 14,29  Z  " style="fill:rgb(144, 117, 64); fill-opacity:1.000; stroke:none;" />
 <path d="  M 18,29  L 17,29  L 17,30  L 18,30  Z  " style="fill:rgb(144, 117, 64); fill-opacity:1.000; stroke:none;" />
 <path d="  M 18,30  L 18,32  L 19,32  L 19,30  Z  " style="fill:rgb(144, 117, 64); fill-opacity:1.000; stroke:none;" />
 <path d="  M 21,32  L 21,30  L 20,30  L 20,32  Z  " style="fill:rgb(144, 117, 64); fill-opacity:1.000; stroke:none;" />
 <path d="  M 22,30  L 22,29  L 21,29  L 21,30  Z  " style="fill:rgb(144, 117, 64); fill-opacity:1.000; stroke:none;" />
 <path d="  M 25,29  L 25,28  L 22,28  L 22,29  Z  " style="fill:rgb(144, 117, 64); fill-opacity:1.000; stroke:none;" />
 <path d="  M 25,31  L 25,30  L 24,30  L 24,31  Z  " style="fill:rgb(144, 117, 64); fill-opacity:1.000; stroke:none;" />
 <path d="  M 26,29  L 25,29  L 25,30  L 26,30  Z  " style="fill:rgb(144, 117, 64); fill-opacity:1.000; stroke:none;" />
 <path d="  M 27,30  L 26,30  L 26,32  L 27,32  Z  " style="fill:rgb(144, 117, 64); fill-opacity:1.000; stroke:none;" />
 <path d="  M 5,20  L 5,21  L 6,21  L 6,22  L 7,22  L 7,21  L 8,21  L 8,20  Z  " style="fill:rgb(85, 171, 45); fill-opacity:1.000; stroke:none;" />
 <path d="  M 8,22  L 9,22  L 9,21  L 8,21  Z  " style="fill:rgb(85, 171, 45); fill-opacity:1.000; stroke:none;" />
 <path d="  M 10,9  L 10,10  L 9,10  L 9,13  L 11,13  L 11,12  L 10,12  L 10,11  L 11,11  L 11,9  Z  " style="fill:rgb(85, 171, 45); fill-opacity:1.000; stroke:none;" />
 <path d="  M 10,22  L 9,22  L 9,24  L 10,24  Z  " style="fill:rgb(85, 171, 45); fill-opacity:1.000; stroke:none;" />
 <path d="  M 14,4  L 14,3  L 13,3  L 13,2  L 11,2  L 11,3  L 12,3  L 12,4  Z  " style="fill:rgb(85, 171, 45); fill-opacity:1.000; stroke:none;" />
 <path d="  M 12,9  L 12,8  L 11,8  L 11,9  Z  " style="fill:rgb(85, 171, 45); fill-opacity:1.000; stroke:none;" />
 <path d="  M 12,11  L 11,11  L 11,12  L 12,12  Z  " style="fill:rgb(85, 171, 45); fill-opacity:1.000; stroke:none;" />
 <path d="  M 15,5  L 15,4  L 14,4  L 14,8  L 15,8  L 15,6  L 16,6  L 16,5  Z  " style="fill:rgb(85, 171, 45); fill-opacity:1.000; stroke:none;" />
 <path d="  M 16,24  L 16,22  L 15,22  L 15,24  Z  " style="fill:rgb(85, 171, 45); fill-opacity:1.000; stroke:none;" />
 <path d="  M 16,4  L 16,5  L 17,5  L 17,4  Z  " style="fill:rgb(85, 171, 45); fill-opacity:1.000; stroke:none;" />
 <path d="  M 16,10  L 17,10  L 17,9  L 16,9  Z  " style="fill:rgb(85, 171, 45); fill-opacity:1.000; stroke:none;" />
 <path d="  M 16,20  L 17,20  L 17,18  L 16,18  Z  " style="fill:rgb(85, 171, 45); fill-opacity:1.000; stroke:none;" />
 <path d="  M 17,12  L 18,12  L 18,10  L 17,10  Z  " style="fill:rgb(85, 171, 45); fill-opacity:1.000; stroke:none;" />
 <path d="  M 17,18  L 18,18  L 18,16  L 17,16  Z  " style="fill:rgb(85, 171, 45); fill-opacity:1.000; stroke:none;" />
 <path d="  M 18,16  L 19,16  L 19,15  L 20,15  L 20,14  L 19,14  L 19,12  L 18,12  Z  " style="fill:rgb(85, 171, 45); fill-opacity:1.000; stroke:none;" />
 <path d="  M 20,2  L 20,3  L 21,3  L 21,2  Z  " style="fill:rgb(85, 171, 45); fill-opacity:1.000; stroke:none;" />
 <path d="  M 21,5  L 20,5  L 20,6  L 21,6  Z  " style="fill:rgb(85, 171, 45); fill-opacity:1.000; stroke:none;" />
 <path d="  M 20,13  L 23,13  L 23,12  L 20,12  Z  " style="fill:rgb(85, 171, 45); fill-opacity:1.000; stroke:none;" />
 <path d="  M 23,4  L 22,4  L 22,3  L 21,3  L 21,5  L 22,5  L 22,6  L 21,6  L 21,7  L 23,7  Z  " style="fill:rgb(85, 171, 45); fill-opacity:1.000; stroke:none;" />
 <path d="  M 23,15  L 23,14  L 22,14  L 22,15  Z  " style="fill:rgb(85, 171, 45); fill-opacity:1.000; stroke:none;" />
 <path d="  M 23,25  L 22,25  L 22,26  L 23,26  Z  " style="fill:rgb(85, 171, 45); fill-opacity:1.000; stroke:none;" />
 <path d="  M 24,13  L 23,13  L 23,14  L 24,14  Z  " style="fill:rgb(85, 171, 45); fill-opacity:1.000; stroke:none;" />
 <path d="  M 24,21  L 23,21  L 23,22  L 24,22  Z  " style="fill:rgb(85, 171, 45); fill-opacity:1.000; stroke:none;" />
 <path d="  M 23,23  L 23,24  L 24,24  L 24,23  Z  " style="fill:rgb(85, 171, 45); fill-opacity:1.000; stroke:none;" />
 <path d="  M 24,14  L 24,16  L 26,16  L 26,15  L 25,15  L 25,14  Z  " style="fill:rgb(85, 171, 45); fill-opacity:1.000; stroke:none;" />
 <path d="  M 25,22  L 26,22  L 26,20  L 24,20  L 24,21  L 25,21  Z  " style="fill:rgb(85, 171, 45); fill-opacity:1.000; stroke:none;" />
 <path d="  M 25,23  L 25,22  L 24,22  L 24,23  Z  " style="fill:rgb(85, 171, 45); fill-opacity:1.000; stroke:none;" />
 <path d="  M 5,23  L 6,23  L 6,22  L 5,22  Z  " style="fill:rgb(43, 112, 42); fill-opacity:1.000; stroke:none;" />
 <path d="  M 6,27  L 6,26  L 5,26  L 5,27  Z  " style="fill:rgb(43, 112, 42); fill-opacity:1.000; stroke:none;" />
 <path d="  M 6,23  L 6,24  L 7,24  L 7,23  Z  " style="fill:rgb(43, 112, 42); fill-opacity:1.000; stroke:none;" />
 <path d="  M 8,27  L 6,27  L 6,28  L 8,28  Z  " style="fill:rgb(43, 112, 42); fill-opacity:1.000; stroke:none;" />
 <path d="  M 7,22  L 7,23  L 8,23  L 8,22  Z  " style="fill:rgb(43, 112, 42); fill-opacity:1.000; stroke:none;" />
 <path d="  M 8,25  L 8,24  L 7,24  L 7,25  Z  " style="fill:rgb(43, 112, 42); fill-opacity:1.000; stroke:none;" />
 <path d="  M 9,24  L 9,23  L 8,23  L 8,24  Z  " style="fill:rgb(43, 112, 42); fill-opacity:1.000; stroke:none;" />
 <path d="  M 8,25  L 8,26  L 10,26  L 10,24  L 9,24  L 9,25  Z  " style="fill:rgb(43, 112, 42); fill-opacity:1.000; stroke:none;" />
 <path d="  M 10,27  L 9,27  L 9,28  L 12,28  L 12,27  L 11,27  L 11,26  L 10,26  Z  " style="fill:rgb(43, 112, 42); fill-opacity:1.000; stroke:none;" />
 <path d="  M 10,17  L 10,19  L 11,19  L 11,21  L 12,21  L 12,19  L 13,19  L 13,17  L 12,17  L 12,18  L 11,18  L 11,17  Z  " style="fill:rgb(43, 112, 42); fill-opacity:1.000; stroke:none;" />
 <path d="  M 12,10  L 11,10  L 11,11  L 12,11  Z  " style="fill:rgb(43, 112, 42); fill-opacity:1.000; stroke:none;" />
 <path d="  M 12,17  L 12,16  L 11,16  L 11,17  Z  " style="fill:rgb(43, 112, 42); fill-opacity:1.000; stroke:none;" />
 <path d="  M 13,9  L 12,9  L 12,10  L 13,10  Z  " style="fill:rgb(43, 112, 42); fill-opacity:1.000; stroke:none;" />
 <path d="  M 13,12  L 12,12  L 12,13  L 13,13  Z  " style="fill:rgb(43, 112, 42); fill-opacity:1.000; stroke:none;" />
 <path d="  M 13,21  L 12,21  L 12,22  L 13,22  Z  " style="fill:rgb(43, 112, 42); fill-opacity:1.000; stroke:none;" />
 <path d="  M 13,28  L 12,28  L 12,29  L 13,29  Z  " style="fill:rgb(43, 112, 42); fill-opacity:1.000; stroke:none;" />
 <path d="  M 14,10  L 13,10  L 13,12  L 14,12  Z  " style="fill:rgb(43, 112, 42); fill-opacity:1.000; stroke:none;" />
 <path d="  M 14,26  L 14,25  L 13,25  L 13,26  Z  " style="fill:rgb(43, 112, 42); fill-opacity:1.000; stroke:none;" />
 <path d="  M 14,9  L 15,9  L 15,8  L 14,8  Z  " style="fill:rgb(43, 112, 42); fill-opacity:1.000; stroke:none;" />
 <path d="  M 14,22  L 15,22  L 15,21  L 14,21  Z  " style="fill:rgb(43, 112, 42); fill-opacity:1.000; stroke:none;" />
 <path d="  M 15,27  L 14,27  L 14,28  L 15,28  Z  " style="fill:rgb(43, 112, 42); fill-opacity:1.000; stroke:none;" />
 <path d="  M 16,10  L 16,9  L 15,9  L 15,10  Z  " style="fill:rgb(43, 112, 42); fill-opacity:1.000; stroke:none;" />
 <path d="  M 15,20  L 15,21  L 16,21  L 16,20  Z  " style="fill:rgb(43, 112, 42); fill-opacity:1.000; stroke:none;" />
 <path d="  M 16,25  L 16,26  L 15,26  L 15,27  L 17,27  L 17,25  Z  " style="fill:rgb(43, 112, 42); fill-opacity:1.000; stroke:none;" />
 <path d="  M 17,24  L 18,24  L 18,25  L 19,25  L 19,23  L 18,23  L 18,19  L 17,19  Z  " style="fill:rgb(43, 112, 42); fill-opacity:1.000; stroke:none;" />
 <path d="  M 19,2  L 18,2  L 18,4  L 20,4  L 20,3  L 19,3  Z  " style="fill:rgb(43, 112, 42); fill-opacity:1.000; stroke:none;" />
 <path d="  M 19,6  L 19,5  L 18,5  L 18,6  Z  " style="fill:rgb(43, 112, 42); fill-opacity:1.000; stroke:none;" />
 <path d="  M 18,17  L 18,18  L 19,18  L 19,17  Z  " style="fill:rgb(43, 112, 42); fill-opacity:1.000; stroke:none;" />
 <path d="  M 19,28  L 19,27  L 18,27  L 18,28  Z  " style="fill:rgb(43, 112, 42); fill-opacity:1.000; stroke:none;" />
 <path d="  M 19,1  L 19,2  L 20,2  L 20,1  Z  " style="fill:rgb(43, 112, 42); fill-opacity:1.000; stroke:none;" />
 <path d="  M 20,6  L 19,6  L 19,7  L 20,7  Z  " style="fill:rgb(43, 112, 42); fill-opacity:1.000; stroke:none;" />
 <path d="  M 20,22  L 19,22  L 19,23  L 20,23  Z  " style="fill:rgb(43, 112, 42); fill-opacity:1.000; stroke:none;" />
 <path d="  M 19,29  L 20,29  L 20,28  L 19,28  Z  " style="fill:rgb(43, 112, 42); fill-opacity:1.000; stroke:none;" />
 <path d="  M 20,1  L 21,1  L 21,0  L 20,0  Z  " style="fill:rgb(43, 112, 42); fill-opacity:1.000; stroke:none;" />
 <path d="  M 20,4  L 20,5  L 21,5  L 21,4  Z  " style="fill:rgb(43, 112, 42); fill-opacity:1.000; stroke:none;" />
 <path d="  M 20,27  L 21,27  L 21,26  L 20,26  Z  " style="fill:rgb(43, 112, 42); fill-opacity:1.000; stroke:none;" />
 <path d="  M 21,14  L 23,14  L 23,13  L 21,13  Z  " style="fill:rgb(43, 112, 42); fill-opacity:1.000; stroke:none;" />
 <path d="  M 23,15  L 22,15  L 22,16  L 23,16  Z  " style="fill:rgb(43, 112, 42); fill-opacity:1.000; stroke:none;" />
 <path d="  M 23,27  L 22,27  L 22,28  L 23,28  Z  " style="fill:rgb(43, 112, 42); fill-opacity:1.000; stroke:none;" />
 <path d="  M 23,14  L 23,15  L 24,15  L 24,14  Z  " style="fill:rgb(43, 112, 42); fill-opacity:1.000; stroke:none;" />
 <path d="  M 23,26  L 23,27  L 24,27  L 24,26  Z  " style="fill:rgb(43, 112, 42); fill-opacity:1.000; stroke:none;" />
 <path d="  M 25,16  L 24,16  L 24,17  L 25,17  Z  " style="fill:rgb(43, 112, 42); fill-opacity:1.000; stroke:none;" />
 <path d="  M 25,27  L 24,27  L 24,28  L 25,28  Z  " style="fill:rgb(43, 112, 42); fill-opacity:1.000; stroke:none;" />
 <path d="  M 26,29  L 27,29  L 27,28  L 26,28  Z  " style="fill:rgb(43, 112, 42); fill-opacity:1.000; stroke:none;" />
 <path d="  M 27,27  L 27,28  L 28,28  L 28,27  Z  " style="fill:rgb(43, 112, 42); fill-opacity:1.000; stroke:none;" />
 <path d="  M 5,32  L 6,32  L 6,30  L 5,30  Z  " style="fill:rgb(170, 141, 74); fill-opacity:1.000; stroke:none;" />
 <path d="  M 6,30  L 7,30  L 7,29  L 6,29  Z  " style="fill:rgb(170, 141, 74); fill-opacity:1.000; stroke:none;" />
 <path d="  M 7,31  L 7,32  L 10,32  L 10,30  L 9,30  L 9,31  Z  " style="fill:rgb(170, 141, 74); fill-opacity:1.000; stroke:none;" />
 <path d="  M 9,29  L 8,29  L 8,30  L 9,30  Z  " style="fill:rgb(170, 141, 74); fill-opacity:1.000; stroke:none;" />
 <path d="  M 14,30  L 13,30  L 13,32  L 14,32  Z  " style="fill:rgb(170, 141, 74); fill-opacity:1.000; stroke:none;" />
 <path d="  M 15,29  L 14,29  L 14,30  L 15,30  Z  " style="fill:rgb(170, 141, 74); fill-opacity:1.000; stroke:none;" />
 <path d="  M 16,31  L 16,30  L 15,30  L 15,31  Z  " style="fill:rgb(170, 141, 74); fill-opacity:1.000; stroke:none;" />
 <path d="  M 16,29  L 16,30  L 17,30  L 17,29  Z  " style="fill:rgb(170, 141, 74); fill-opacity:1.000; stroke:none;" />
 <path d="  M 18,32  L 18,30  L 17,30  L 17,31  L 16,31  L 16,32  Z  " style="fill:rgb(170, 141, 74); fill-opacity:1.000; stroke:none;" />
 <path d="  M 21,31  L 21,32  L 22,32  L 22,31  Z  " style="fill:rgb(170, 141, 74); fill-opacity:1.000; stroke:none;" />
 <path d="  M 23,30  L 23,29  L 22,29  L 22,30  Z  " style="fill:rgb(170, 141, 74); fill-opacity:1.000; stroke:none;" />
 <path d="  M 23,31  L 24,31  L 24,30  L 23,30  Z  " style="fill:rgb(170, 141, 74); fill-opacity:1.000; stroke:none;" />
 <path d="  M 24,30  L 25,30  L 25,29  L 24,29  Z  " style="fill:rgb(170, 141, 74); fill-opacity:1.000; stroke:none;" />
 <path d="  M 25,30  L 25,31  L 24,31  L 24,32  L 26,32  L 26,30  Z  " style="fill:rgb(170, 141, 74); fill-opacity:1.000; stroke:none;" />
 <path d="  M 7,30  L 6,30  L 6,32  L 7,32  L 7,31  L 9,31  L 9,30  L 8,30  L 8,29  L 7,29  Z  " style="fill:rgb(200, 162, 75); fill-opacity:1.000; stroke:none;" />
 <path d="  M 14,30  L 14,32  L 16,32  L 16,31  L 15,31  L 15,30  Z  " style="fill:rgb(200, 162, 75); fill-opacity:1.000; stroke:none;" />
 <path d="  M 16,30  L 16,29  L 15,29  L 15,30  Z  " style="fill:rgb(200, 162, 75); fill-opacity:1.000; stroke:none;" />
 <path d="  M 17,31  L 17,30  L 16,30  L 16,31  Z  " style="fill:rgb(200, 162, 75); fill-opacity:1.000; stroke:none;" />
 <path d="  M 23,30  L 21,30  L 21,31  L 22,31  L 22,32  L 24,32  L 24,31  L 23,31  Z  " style="fill:rgb(200, 162, 75); fill-opacity:1.000; stroke:none;" />
 <path d="  M 23,29  L 23,30  L 24,30  L 24,29  Z  " style="fill:rgb(200, 162, 75); fill-opacity:1.000; stroke:none;" />
 <path d="  M 9,29  L 10,29  L 10,28  L 9,28  Z  " style="fill:rgb(133, 107, 58); fill-opacity:1.000; stroke:none;" />
 <path d="  M 11,29  L 10,29  L 10,30  L 11,30  Z  " style="fill:rgb(133, 107, 58); fill-opacity:1.000; stroke:none;" />
 <path d="  M 11,32  L 12,32  L 12,30  L 11,30  Z  " style="fill:rgb(133, 107, 58); fill-opacity:1.000; stroke:none;" />
 <path d="  M 17,28  L 17,29  L 18,29  L 18,28  Z  " style="fill:rgb(133, 107, 58); fill-opacity:1.000; stroke:none;" />
 <path d="  M 18,29  L 18,30  L 19,30  L 19,29  Z  " style="fill:rgb(133, 107, 58); fill-opacity:1.000; stroke:none;" />
 <path d="  M 19,30  L 19,32  L 20,32  L 20,30  Z  " style="fill:rgb(133, 107, 58); fill-opacity:1.000; stroke:none;" />
 <path d="  M 26,29  L 26,28  L 25,28  L 25,29  Z  " style="fill:rgb(133, 107, 58); fill-opacity:1.000; stroke:none;" />
 <path d="  M 27,29  L 26,29  L 26,30  L 27,30  Z  " style="fill:rgb(133, 107, 58); fill-opacity:1.000; stroke:none;" />
 <path d="  M 28,30  L 27,30  L 27,32  L 28,32  Z  " style="fill:rgb(133, 107, 58); fill-opacity:1.000; stroke:none;" />
 <path d="  M 11,29  L 11,28  L 10,28  L 10,29  Z  " style="fill:rgb(38, 99, 37); fill-opacity:1.000; stroke:none;" />
 <path d="  M 11,30  L 13,30  L 13,29  L 11,29  Z  " style="fill:rgb(38, 99, 37); fill-opacity:1.000; stroke:none;" />
 <path d="  M 13,10  L 15,10  L 15,9  L 13,9  Z  " style="fill:rgb(38, 99, 37); fill-opacity:1.000; stroke:none;" />
 <path d="  M 13,29  L 14,29  L 14,28  L 13,28  Z  " style="fill:rgb(38, 99, 37); fill-opacity:1.000; stroke:none;" />
 <path d="  M 18,28  L 18,24  L 17,24  L 17,27  L 15,27  L 15,28  Z  " style="fill:rgb(38, 99, 37); fill-opacity:1.000; stroke:none;" />
 <path d="  M 19,29  L 19,28  L 18,28  L 18,29  Z  " style="fill:rgb(38, 99, 37); fill-opacity:1.000; stroke:none;" />
 <path d="  M 21,29  L 19,29  L 19,30  L 21,30  Z  " style="fill:rgb(38, 99, 37); fill-opacity:1.000; stroke:none;" />
 <path d="  M 21,28  L 21,29  L 22,29  L 22,28  Z  " style="fill:rgb(38, 99, 37); fill-opacity:1.000; stroke:none;" />
 <path d="  M 23,28  L 24,28  L 24,27  L 23,27  Z  " style="fill:rgb(38, 99, 37); fill-opacity:1.000; stroke:none;" />
</svg>
