<?xml version="1.0" encoding="UTF-8" standalone="no"?>
<!DOCTYPE svg PUBLIC "-//W3C//DTD SVG 1.1//EN" 
  "http://www.w3.org/Graphics/SVG/1.1/DTD/svg11.dtd">
<svg width="32" height="32"
	 xmlns="http://www.w3.org/2000/svg" version="1.1">
 <path d="  M 9,9  L 9,8  L 8,8  L 8,10  L 9,10  L 9,11  L 10,11  L 10,10  L 11,10  L 11,9  Z  " style="fill:rgb(108, 128, 49); fill-opacity:1.000; stroke:none;" />
 <path d="  M 10,12  L 9,12  L 9,11  L 8,11  L 8,15  L 9,15  L 9,13  L 10,13  Z  " style="fill:rgb(108, 128, 49); fill-opacity:1.000; stroke:none;" />
 <path d="  M 8,19  L 9,19  L 9,18  L 8,18  Z  " style="fill:rgb(108, 128, 49); fill-opacity:1.000; stroke:none;" />
 <path d="  M 9,22  L 8,22  L 8,23  L 9,23  Z  " style="fill:rgb(108, 128, 49); fill-opacity:1.000; stroke:none;" />
 <path d="  M 9,18  L 10,18  L 10,17  L 9,17  Z  " style="fill:rgb(108, 128, 49); fill-opacity:1.000; stroke:none;" />
 <path d="  M 11,17  L 11,15  L 12,15  L 12,14  L 10,14  L 10,17  Z  " style="fill:rgb(108, 128, 49); fill-opacity:1.000; stroke:none;" />
 <path d="  M 10,19  L 11,19  L 11,20  L 12,20  L 12,19  L 13,19  L 13,18  L 10,18  Z  " style="fill:rgb(108, 128, 49); fill-opacity:1.000; stroke:none;" />
 <path d="  M 11,23  L 10,23  L 10,24  L 11,24  Z  " style="fill:rgb(108, 128, 49); fill-opacity:1.000; stroke:none;" />
 <path d="  M 12,10  L 11,10  L 11,11  L 12,11  Z  " style="fill:rgb(108, 128, 49); fill-opacity:1.000; stroke:none;" />
 <path d="  M 12,21  L 11,21  L 11,23  L 12,23  Z  " style="fill:rgb(108, 128, 49); fill-opacity:1.000; stroke:none;" />
 <path d="  M 12,10  L 13,10  L 13,9  L 14,9  L 14,8  L 12,8  Z  " style="fill:rgb(108, 128, 49); fill-opacity:1.000; stroke:none;" />
 <path d="  M 13,17  L 13,16  L 12,16  L 12,17  Z  " style="fill:rgb(108, 128, 49); fill-opacity:1.000; stroke:none;" />
 <path d="  M 14,22  L 13,22  L 13,23  L 12,23  L 12,24  L 14,24  Z  " style="fill:rgb(108, 128, 49); fill-opacity:1.000; stroke:none;" />
 <path d="  M 13,15  L 14,15  L 14,14  L 13,14  Z  " style="fill:rgb(108, 128, 49); fill-opacity:1.000; stroke:none;" />
 <path d="  M 13,19  L 13,20  L 14,20  L 14,19  Z  " style="fill:rgb(108, 128, 49); fill-opacity:1.000; stroke:none;" />
 <path d="  M 14,16  L 15,16  L 15,15  L 14,15  Z  " style="fill:rgb(108, 128, 49); fill-opacity:1.000; stroke:none;" />
 <path d="  M 15,20  L 15,21  L 14,21  L 14,22  L 16,22  L 16,20  Z  " style="fill:rgb(108, 128, 49); fill-opacity:1.000; stroke:none;" />
 <path d="  M 15,12  L 15,13  L 16,13  L 16,12  Z  " style="fill:rgb(108, 128, 49); fill-opacity:1.000; stroke:none;" />
 <path d="  M 16,17  L 16,16  L 15,16  L 15,17  Z  " style="fill:rgb(108, 128, 49); fill-opacity:1.000; stroke:none;" />
 <path d="  M 16,18  L 15,18  L 15,19  L 16,19  Z  " style="fill:rgb(108, 128, 49); fill-opacity:1.000; stroke:none;" />
 <path d="  M 16,10  L 17,10  L 17,11  L 18,11  L 18,9  L 17,9  L 17,8  L 16,8  Z  " style="fill:rgb(108, 128, 49); fill-opacity:1.000; stroke:none;" />
 <path d="  M 17,11  L 16,11  L 16,12  L 17,12  Z  " style="fill:rgb(108, 128, 49); fill-opacity:1.000; stroke:none;" />
 <path d="  M 17,14  L 17,13  L 16,13  L 16,14  Z  " style="fill:rgb(108, 128, 49); fill-opacity:1.000; stroke:none;" />
 <path d="  M 16,19  L 16,20  L 17,20  L 17,19  Z  " style="fill:rgb(108, 128, 49); fill-opacity:1.000; stroke:none;" />
 <path d="  M 19,16  L 18,16  L 18,17  L 19,17  Z  " style="fill:rgb(108, 128, 49); fill-opacity:1.000; stroke:none;" />
 <path d="  M 18,21  L 18,22  L 19,22  L 19,23  L 20,23  L 20,22  L 21,22  L 21,21  Z  " style="fill:rgb(108, 128, 49); fill-opacity:1.000; stroke:none;" />
 <path d="  M 21,9  L 21,8  L 19,8  L 19,9  Z  " style="fill:rgb(108, 128, 49); fill-opacity:1.000; stroke:none;" />
 <path d="  M 20,17  L 19,17  L 19,18  L 20,18  Z  " style="fill:rgb(108, 128, 49); fill-opacity:1.000; stroke:none;" />
 <path d="  M 21,12  L 20,12  L 20,13  L 21,13  Z  " style="fill:rgb(108, 128, 49); fill-opacity:1.000; stroke:none;" />
 <path d="  M 20,16  L 20,17  L 22,17  L 22,16  Z  " style="fill:rgb(108, 128, 49); fill-opacity:1.000; stroke:none;" />
 <path d="  M 20,18  L 20,19  L 22,19  L 22,18  Z  " style="fill:rgb(108, 128, 49); fill-opacity:1.000; stroke:none;" />
 <path d="  M 20,24  L 22,24  L 22,23  L 23,23  L 23,22  L 21,22  L 21,23  L 20,23  Z  " style="fill:rgb(108, 128, 49); fill-opacity:1.000; stroke:none;" />
 <path d="  M 21,9  L 21,10  L 22,10  L 22,9  Z  " style="fill:rgb(108, 128, 49); fill-opacity:1.000; stroke:none;" />
 <path d="  M 21,14  L 23,14  L 23,13  L 21,13  Z  " style="fill:rgb(108, 128, 49); fill-opacity:1.000; stroke:none;" />
 <path d="  M 24,16  L 24,14  L 23,14  L 23,15  L 22,15  L 22,16  Z  " style="fill:rgb(108, 128, 49); fill-opacity:1.000; stroke:none;" />
 <path d="  M 23,20  L 22,20  L 22,21  L 23,21  Z  " style="fill:rgb(108, 128, 49); fill-opacity:1.000; stroke:none;" />
 <path d="  M 23,23  L 23,24  L 24,24  L 24,23  Z  " style="fill:rgb(108, 128, 49); fill-opacity:1.000; stroke:none;" />
 <path d="  M 9,11  L 9,10  L 8,10  L 8,11  Z  " style="fill:rgb(112, 146, 45); fill-opacity:1.000; stroke:none;" />
 <path d="  M 8,17  L 8,18  L 9,18  L 9,17  Z  " style="fill:rgb(112, 146, 45); fill-opacity:1.000; stroke:none;" />
 <path d="  M 12,11  L 9,11  L 9,12  L 12,12  Z  " style="fill:rgb(112, 146, 45); fill-opacity:1.000; stroke:none;" />
 <path d="  M 10,14  L 9,14  L 9,17  L 10,17  Z  " style="fill:rgb(112, 146, 45); fill-opacity:1.000; stroke:none;" />
 <path d="  M 11,20  L 10,20  L 10,23  L 11,23  Z  " style="fill:rgb(112, 146, 45); fill-opacity:1.000; stroke:none;" />
 <path d="  M 11,24  L 12,24  L 12,23  L 11,23  Z  " style="fill:rgb(112, 146, 45); fill-opacity:1.000; stroke:none;" />
 <path d="  M 14,15  L 13,15  L 13,14  L 12,14  L 12,16  L 14,16  Z  " style="fill:rgb(112, 146, 45); fill-opacity:1.000; stroke:none;" />
 <path d="  M 14,24  L 15,24  L 15,23  L 14,23  Z  " style="fill:rgb(112, 146, 45); fill-opacity:1.000; stroke:none;" />
 <path d="  M 15,22  L 15,23  L 16,23  L 16,22  Z  " style="fill:rgb(112, 146, 45); fill-opacity:1.000; stroke:none;" />
 <path d="  M 17,20  L 17,21  L 19,21  L 19,20  Z  " style="fill:rgb(112, 146, 45); fill-opacity:1.000; stroke:none;" />
 <path d="  M 18,23  L 19,23  L 19,22  L 18,22  Z  " style="fill:rgb(112, 146, 45); fill-opacity:1.000; stroke:none;" />
 <path d="  M 19,24  L 20,24  L 20,23  L 19,23  Z  " style="fill:rgb(112, 146, 45); fill-opacity:1.000; stroke:none;" />
 <path d="  M 23,17  L 20,17  L 20,18  L 23,18  Z  " style="fill:rgb(112, 146, 45); fill-opacity:1.000; stroke:none;" />
 <path d="  M 21,12  L 21,13  L 23,13  L 23,12  Z  " style="fill:rgb(112, 146, 45); fill-opacity:1.000; stroke:none;" />
 <path d="  M 24,9  L 24,8  L 22,8  L 22,9  Z  " style="fill:rgb(112, 146, 45); fill-opacity:1.000; stroke:none;" />
 <path d="  M 22,24  L 23,24  L 23,23  L 22,23  Z  " style="fill:rgb(112, 146, 45); fill-opacity:1.000; stroke:none;" />
 <path d="  M 24,13  L 23,13  L 23,14  L 24,14  Z  " style="fill:rgb(112, 146, 45); fill-opacity:1.000; stroke:none;" />
 <path d="  M 23,16  L 23,17  L 24,17  L 24,16  Z  " style="fill:rgb(112, 146, 45); fill-opacity:1.000; stroke:none;" />
 <path d="  M 24,23  L 24,20  L 23,20  L 23,23  Z  " style="fill:rgb(112, 146, 45); fill-opacity:1.000; stroke:none;" />
 <path d="  M 9,17  L 9,15  L 8,15  L 8,17  Z  " style="fill:rgb(100, 114, 51); fill-opacity:1.000; stroke:none;" />
 <path d="  M 9,18  L 9,19  L 8,19  L 8,22  L 10,22  L 10,20  L 11,20  L 11,19  L 10,19  L 10,18  Z  " style="fill:rgb(100, 114, 51); fill-opacity:1.000; stroke:none;" />
 <path d="  M 11,9  L 11,10  L 12,10  L 12,8  L 9,8  L 9,9  Z  " style="fill:rgb(100, 114, 51); fill-opacity:1.000; stroke:none;" />
 <path d="  M 9,13  L 9,14  L 14,14  L 14,12  L 15,12  L 15,11  L 14,11  L 14,9  L 13,9  L 13,10  L 12,10  L 12,12  L 10,12  L 10,13  Z  " style="fill:rgb(100, 114, 51); fill-opacity:1.000; stroke:none;" />
 <path d="  M 10,10  L 10,11  L 11,11  L 11,10  Z  " style="fill:rgb(100, 114, 51); fill-opacity:1.000; stroke:none;" />
 <path d="  M 10,17  L 10,18  L 12,18  L 12,15  L 11,15  L 11,17  Z  " style="fill:rgb(100, 114, 51); fill-opacity:1.000; stroke:none;" />
 <path d="  M 14,22  L 14,21  L 15,21  L 15,20  L 16,20  L 16,19  L 15,19  L 15,18  L 14,18  L 14,20  L 11,20  L 11,21  L 12,21  L 12,23  L 13,23  L 13,22  Z  " style="fill:rgb(100, 114, 51); fill-opacity:1.000; stroke:none;" />
 <path d="  M 14,9  L 15,9  L 15,8  L 14,8  Z  " style="fill:rgb(100, 114, 51); fill-opacity:1.000; stroke:none;" />
 <path d="  M 14,14  L 14,15  L 15,15  L 15,16  L 16,16  L 16,14  Z  " style="fill:rgb(100, 114, 51); fill-opacity:1.000; stroke:none;" />
 <path d="  M 15,23  L 15,22  L 14,22  L 14,23  Z  " style="fill:rgb(100, 114, 51); fill-opacity:1.000; stroke:none;" />
 <path d="  M 15,11  L 16,11  L 16,10  L 15,10  Z  " style="fill:rgb(100, 114, 51); fill-opacity:1.000; stroke:none;" />
 <path d="  M 16,23  L 15,23  L 15,24  L 19,24  L 19,23  L 18,23  L 18,21  L 17,21  L 17,20  L 16,20  Z  " style="fill:rgb(100, 114, 51); fill-opacity:1.000; stroke:none;" />
 <path d="  M 18,12  L 16,12  L 16,13  L 17,13  L 17,15  L 18,15  L 18,14  L 19,14  L 19,13  L 18,13  Z  " style="fill:rgb(100, 114, 51); fill-opacity:1.000; stroke:none;" />
 <path d="  M 17,18  L 17,19  L 18,19  L 18,20  L 19,20  L 19,21  L 21,21  L 21,22  L 23,22  L 23,21  L 22,21  L 22,20  L 24,20  L 24,17  L 23,17  L 23,18  L 22,18  L 22,19  L 20,19  L 20,18  L 19,18  L 19,17  L 18,17  L 18,16  L 16,16  L 16,18  Z  " style="fill:rgb(100, 114, 51); fill-opacity:1.000; stroke:none;" />
 <path d="  M 20,10  L 18,10  L 18,12  L 23,12  L 23,13  L 24,13  L 24,9  L 22,9  L 22,10  L 21,10  L 21,11  L 20,11  Z  " style="fill:rgb(100, 114, 51); fill-opacity:1.000; stroke:none;" />
 <path d="  M 20,16  L 22,16  L 22,15  L 23,15  L 23,14  L 21,14  L 21,13  L 20,13  L 20,15  L 18,15  L 18,16  L 19,16  L 19,17  L 20,17  Z  " style="fill:rgb(100, 114, 51); fill-opacity:1.000; stroke:none;" />
 <path d="  M 21,10  L 21,9  L 20,9  L 20,10  Z  " style="fill:rgb(100, 114, 51); fill-opacity:1.000; stroke:none;" />
 <path d="  M 21,22  L 20,22  L 20,23  L 21,23  Z  " style="fill:rgb(100, 114, 51); fill-opacity:1.000; stroke:none;" />
 <path d="  M 21,9  L 22,9  L 22,8  L 21,8  Z  " style="fill:rgb(100, 114, 51); fill-opacity:1.000; stroke:none;" />
 <path d="  M 22,17  L 23,17  L 23,16  L 22,16  Z  " style="fill:rgb(100, 114, 51); fill-opacity:1.000; stroke:none;" />
 <path d="  M 8,24  L 10,24  L 10,22  L 9,22  L 9,23  L 8,23  Z  " style="fill:rgb(80, 105, 44); fill-opacity:1.000; stroke:none;" />
 <path d="  M 16,18  L 16,17  L 15,17  L 15,16  L 13,16  L 13,17  L 12,17  L 12,18  L 13,18  L 13,19  L 14,19  L 14,18  Z  " style="fill:rgb(80, 105, 44); fill-opacity:1.000; stroke:none;" />
 <path d="  M 13,19  L 12,19  L 12,20  L 13,20  Z  " style="fill:rgb(80, 105, 44); fill-opacity:1.000; stroke:none;" />
 <path d="  M 16,10  L 16,8  L 15,8  L 15,9  L 14,9  L 14,11  L 15,11  L 15,10  Z  " style="fill:rgb(80, 105, 44); fill-opacity:1.000; stroke:none;" />
 <path d="  M 14,12  L 14,14  L 16,14  L 16,13  L 15,13  L 15,12  Z  " style="fill:rgb(80, 105, 44); fill-opacity:1.000; stroke:none;" />
 <path d="  M 15,11  L 15,12  L 16,12  L 16,11  Z  " style="fill:rgb(80, 105, 44); fill-opacity:1.000; stroke:none;" />
 <path d="  M 17,11  L 17,10  L 16,10  L 16,11  Z  " style="fill:rgb(80, 105, 44); fill-opacity:1.000; stroke:none;" />
 <path d="  M 18,16  L 18,15  L 17,15  L 17,14  L 16,14  L 16,16  Z  " style="fill:rgb(80, 105, 44); fill-opacity:1.000; stroke:none;" />
 <path d="  M 17,19  L 17,18  L 16,18  L 16,19  Z  " style="fill:rgb(80, 105, 44); fill-opacity:1.000; stroke:none;" />
 <path d="  M 19,8  L 17,8  L 17,9  L 18,9  L 18,10  L 20,10  L 20,9  L 19,9  Z  " style="fill:rgb(80, 105, 44); fill-opacity:1.000; stroke:none;" />
 <path d="  M 17,11  L 17,12  L 18,12  L 18,11  Z  " style="fill:rgb(80, 105, 44); fill-opacity:1.000; stroke:none;" />
 <path d="  M 18,20  L 18,19  L 17,19  L 17,20  Z  " style="fill:rgb(80, 105, 44); fill-opacity:1.000; stroke:none;" />
 <path d="  M 18,13  L 19,13  L 19,14  L 18,14  L 18,15  L 20,15  L 20,12  L 18,12  Z  " style="fill:rgb(80, 105, 44); fill-opacity:1.000; stroke:none;" />
 <path d="  M 21,10  L 20,10  L 20,11  L 21,11  Z  " style="fill:rgb(80, 105, 44); fill-opacity:1.000; stroke:none;" />
</svg>
