<?xml version="1.0" encoding="UTF-8" standalone="no"?>
<!DOCTYPE svg PUBLIC "-//W3C//DTD SVG 1.1//EN" 
  "http://www.w3.org/Graphics/SVG/1.1/DTD/svg11.dtd">
<svg width="32" height="32"
	 xmlns="http://www.w3.org/2000/svg" version="1.1">
 <path d="  M 2,3  L 4,3  L 4,2  L 2,2  Z  " style="fill:rgb(150, 116, 65); fill-opacity:1.000; stroke:none;" />
 <path d="  M 4,11  L 2,11  L 2,12  L 4,12  Z  " style="fill:rgb(150, 116, 65); fill-opacity:1.000; stroke:none;" />
 <path d="  M 2,19  L 4,19  L 4,18  L 2,18  Z  " style="fill:rgb(150, 116, 65); fill-opacity:1.000; stroke:none;" />
 <path d="  M 2,21  L 3,21  L 3,20  L 2,20  Z  " style="fill:rgb(150, 116, 65); fill-opacity:1.000; stroke:none;" />
 <path d="  M 2,28  L 4,28  L 4,27  L 3,27  L 3,26  L 2,26  Z  " style="fill:rgb(150, 116, 65); fill-opacity:1.000; stroke:none;" />
 <path d="  M 10,3  L 10,4  L 12,4  L 12,3  Z  " style="fill:rgb(150, 116, 65); fill-opacity:1.000; stroke:none;" />
 <path d="  M 10,10  L 10,11  L 12,11  L 12,10  Z  " style="fill:rgb(150, 116, 65); fill-opacity:1.000; stroke:none;" />
 <path d="  M 11,20  L 10,20  L 10,21  L 11,21  Z  " style="fill:rgb(150, 116, 65); fill-opacity:1.000; stroke:none;" />
 <path d="  M 10,28  L 10,29  L 12,29  L 12,28  Z  " style="fill:rgb(150, 116, 65); fill-opacity:1.000; stroke:none;" />
 <path d="  M 12,2  L 12,3  L 15,3  L 15,2  Z  " style="fill:rgb(150, 116, 65); fill-opacity:1.000; stroke:none;" />
 <path d="  M 16,20  L 16,19  L 12,19  L 12,20  Z  " style="fill:rgb(150, 116, 65); fill-opacity:1.000; stroke:none;" />
 <path d="  M 15,27  L 12,27  L 12,28  L 15,28  Z  " style="fill:rgb(150, 116, 65); fill-opacity:1.000; stroke:none;" />
 <path d="  M 16,13  L 16,12  L 13,12  L 13,13  Z  " style="fill:rgb(150, 116, 65); fill-opacity:1.000; stroke:none;" />
 <path d="  M 20,2  L 20,3  L 15,3  L 15,4  L 21,4  L 21,3  L 22,3  L 22,2  Z  " style="fill:rgb(150, 116, 65); fill-opacity:1.000; stroke:none;" />
 <path d="  M 22,12  L 22,10  L 21,10  L 21,11  L 16,11  L 16,12  Z  " style="fill:rgb(150, 116, 65); fill-opacity:1.000; stroke:none;" />
 <path d="  M 18,19  L 18,18  L 16,18  L 16,19  Z  " style="fill:rgb(150, 116, 65); fill-opacity:1.000; stroke:none;" />
 <path d="  M 20,20  L 16,20  L 16,21  L 20,21  Z  " style="fill:rgb(150, 116, 65); fill-opacity:1.000; stroke:none;" />
 <path d="  M 21,28  L 21,27  L 18,27  L 18,28  Z  " style="fill:rgb(150, 116, 65); fill-opacity:1.000; stroke:none;" />
 <path d="  M 22,20  L 22,18  L 20,18  L 20,20  Z  " style="fill:rgb(150, 116, 65); fill-opacity:1.000; stroke:none;" />
 <path d="  M 22,27  L 22,26  L 21,26  L 21,27  Z  " style="fill:rgb(150, 116, 65); fill-opacity:1.000; stroke:none;" />
 <path d="  M 28,3  L 30,3  L 30,2  L 28,2  Z  " style="fill:rgb(150, 116, 65); fill-opacity:1.000; stroke:none;" />
 <path d="  M 28,11  L 28,12  L 29,12  L 29,11  Z  " style="fill:rgb(150, 116, 65); fill-opacity:1.000; stroke:none;" />
 <path d="  M 30,20  L 30,19  L 28,19  L 28,20  Z  " style="fill:rgb(150, 116, 65); fill-opacity:1.000; stroke:none;" />
 <path d="  M 28,28  L 28,29  L 30,29  L 30,28  Z  " style="fill:rgb(150, 116, 65); fill-opacity:1.000; stroke:none;" />
 <path d="  M 30,12  L 29,12  L 29,13  L 30,13  Z  " style="fill:rgb(150, 116, 65); fill-opacity:1.000; stroke:none;" />
 <path d="  M 4,3  L 2,3  L 2,4  L 3,4  L 3,5  L 4,5  Z  " style="fill:rgb(166, 130, 77); fill-opacity:1.000; stroke:none;" />
 <path d="  M 4,11  L 4,10  L 2,10  L 2,11  Z  " style="fill:rgb(166, 130, 77); fill-opacity:1.000; stroke:none;" />
 <path d="  M 4,13  L 4,12  L 2,12  L 2,13  Z  " style="fill:rgb(166, 130, 77); fill-opacity:1.000; stroke:none;" />
 <path d="  M 2,19  L 2,20  L 3,20  L 3,21  L 4,21  L 4,19  Z  " style="fill:rgb(166, 130, 77); fill-opacity:1.000; stroke:none;" />
 <path d="  M 2,29  L 4,29  L 4,28  L 2,28  Z  " style="fill:rgb(166, 130, 77); fill-opacity:1.000; stroke:none;" />
 <path d="  M 3,27  L 4,27  L 4,26  L 3,26  Z  " style="fill:rgb(166, 130, 77); fill-opacity:1.000; stroke:none;" />
 <path d="  M 12,3  L 12,2  L 10,2  L 10,3  Z  " style="fill:rgb(166, 130, 77); fill-opacity:1.000; stroke:none;" />
 <path d="  M 11,12  L 11,11  L 10,11  L 10,12  Z  " style="fill:rgb(166, 130, 77); fill-opacity:1.000; stroke:none;" />
 <path d="  M 14,18  L 10,18  L 10,20  L 12,20  L 12,19  L 14,19  Z  " style="fill:rgb(166, 130, 77); fill-opacity:1.000; stroke:none;" />
 <path d="  M 21,27  L 21,26  L 10,26  L 10,27  Z  " style="fill:rgb(166, 130, 77); fill-opacity:1.000; stroke:none;" />
 <path d="  M 15,4  L 15,3  L 12,3  L 12,4  Z  " style="fill:rgb(166, 130, 77); fill-opacity:1.000; stroke:none;" />
 <path d="  M 12,11  L 12,12  L 16,12  L 16,11  Z  " style="fill:rgb(166, 130, 77); fill-opacity:1.000; stroke:none;" />
 <path d="  M 18,29  L 18,28  L 14,28  L 14,29  Z  " style="fill:rgb(166, 130, 77); fill-opacity:1.000; stroke:none;" />
 <path d="  M 16,2  L 15,2  L 15,3  L 16,3  Z  " style="fill:rgb(166, 130, 77); fill-opacity:1.000; stroke:none;" />
 <path d="  M 15,4  L 15,5  L 19,5  L 19,4  Z  " style="fill:rgb(166, 130, 77); fill-opacity:1.000; stroke:none;" />
 <path d="  M 21,13  L 21,12  L 16,12  L 16,13  Z  " style="fill:rgb(166, 130, 77); fill-opacity:1.000; stroke:none;" />
 <path d="  M 21,10  L 18,10  L 18,11  L 21,11  Z  " style="fill:rgb(166, 130, 77); fill-opacity:1.000; stroke:none;" />
 <path d="  M 20,18  L 18,18  L 18,19  L 20,19  Z  " style="fill:rgb(166, 130, 77); fill-opacity:1.000; stroke:none;" />
 <path d="  M 20,21  L 22,21  L 22,20  L 20,20  Z  " style="fill:rgb(166, 130, 77); fill-opacity:1.000; stroke:none;" />
 <path d="  M 22,3  L 21,3  L 21,4  L 22,4  Z  " style="fill:rgb(166, 130, 77); fill-opacity:1.000; stroke:none;" />
 <path d="  M 22,27  L 21,27  L 21,28  L 22,28  Z  " style="fill:rgb(166, 130, 77); fill-opacity:1.000; stroke:none;" />
 <path d="  M 28,3  L 28,4  L 29,4  L 29,5  L 30,5  L 30,3  Z  " style="fill:rgb(166, 130, 77); fill-opacity:1.000; stroke:none;" />
 <path d="  M 29,11  L 29,12  L 30,12  L 30,10  L 28,10  L 28,11  Z  " style="fill:rgb(166, 130, 77); fill-opacity:1.000; stroke:none;" />
 <path d="  M 30,20  L 28,20  L 28,21  L 30,21  Z  " style="fill:rgb(166, 130, 77); fill-opacity:1.000; stroke:none;" />
 <path d="  M 30,27  L 28,27  L 28,28  L 30,28  Z  " style="fill:rgb(166, 130, 77); fill-opacity:1.000; stroke:none;" />
 <path d="  M 3,5  L 3,4  L 2,4  L 2,5  Z  " style="fill:rgb(126, 98, 55); fill-opacity:1.000; stroke:none;" />
 <path d="  M 15,5  L 15,4  L 10,4  L 10,5  Z  " style="fill:rgb(126, 98, 55); fill-opacity:1.000; stroke:none;" />
 <path d="  M 12,11  L 11,11  L 11,12  L 10,12  L 10,13  L 13,13  L 13,12  L 12,12  Z  " style="fill:rgb(126, 98, 55); fill-opacity:1.000; stroke:none;" />
 <path d="  M 12,28  L 12,27  L 10,27  L 10,28  Z  " style="fill:rgb(126, 98, 55); fill-opacity:1.000; stroke:none;" />
 <path d="  M 16,20  L 11,20  L 11,21  L 16,21  Z  " style="fill:rgb(126, 98, 55); fill-opacity:1.000; stroke:none;" />
 <path d="  M 12,10  L 12,11  L 18,11  L 18,10  Z  " style="fill:rgb(126, 98, 55); fill-opacity:1.000; stroke:none;" />
 <path d="  M 14,29  L 14,28  L 12,28  L 12,29  Z  " style="fill:rgb(126, 98, 55); fill-opacity:1.000; stroke:none;" />
 <path d="  M 14,18  L 14,19  L 16,19  L 16,18  Z  " style="fill:rgb(126, 98, 55); fill-opacity:1.000; stroke:none;" />
 <path d="  M 18,28  L 18,27  L 15,27  L 15,28  Z  " style="fill:rgb(126, 98, 55); fill-opacity:1.000; stroke:none;" />
 <path d="  M 16,2  L 16,3  L 20,3  L 20,2  Z  " style="fill:rgb(126, 98, 55); fill-opacity:1.000; stroke:none;" />
 <path d="  M 16,19  L 16,20  L 20,20  L 20,19  Z  " style="fill:rgb(126, 98, 55); fill-opacity:1.000; stroke:none;" />
 <path d="  M 18,29  L 22,29  L 22,28  L 18,28  Z  " style="fill:rgb(126, 98, 55); fill-opacity:1.000; stroke:none;" />
 <path d="  M 19,4  L 19,5  L 22,5  L 22,4  Z  " style="fill:rgb(126, 98, 55); fill-opacity:1.000; stroke:none;" />
 <path d="  M 21,12  L 21,13  L 22,13  L 22,12  Z  " style="fill:rgb(126, 98, 55); fill-opacity:1.000; stroke:none;" />
 <path d="  M 28,5  L 29,5  L 29,4  L 28,4  Z  " style="fill:rgb(126, 98, 55); fill-opacity:1.000; stroke:none;" />
 <path d="  M 28,13  L 29,13  L 29,12  L 28,12  Z  " style="fill:rgb(126, 98, 55); fill-opacity:1.000; stroke:none;" />
 <path d="  M 30,19  L 30,18  L 28,18  L 28,19  Z  " style="fill:rgb(126, 98, 55); fill-opacity:1.000; stroke:none;" />
 <path d="  M 28,26  L 28,27  L 30,27  L 30,26  Z  " style="fill:rgb(126, 98, 55); fill-opacity:1.000; stroke:none;" />
 <path d="  M 4,6  L 4,5  L 2,5  L 2,6  Z  " style="fill:rgb(81, 61, 36); fill-opacity:1.000; stroke:none;" />
 <path d="  M 2,13  L 2,14  L 4,14  L 4,13  Z  " style="fill:rgb(81, 61, 36); fill-opacity:1.000; stroke:none;" />
 <path d="  M 4,22  L 4,21  L 2,21  L 2,22  Z  " style="fill:rgb(81, 61, 36); fill-opacity:1.000; stroke:none;" />
 <path d="  M 4,29  L 2,29  L 2,30  L 4,30  Z  " style="fill:rgb(81, 61, 36); fill-opacity:1.000; stroke:none;" />
 <path d="  M 14,14  L 15,14  L 15,13  L 14,13  Z  " style="fill:rgb(81, 61, 36); fill-opacity:1.000; stroke:none;" />
 <path d="  M 28,5  L 28,6  L 30,6  L 30,5  Z  " style="fill:rgb(81, 61, 36); fill-opacity:1.000; stroke:none;" />
 <path d="  M 28,13  L 28,14  L 30,14  L 30,13  Z  " style="fill:rgb(81, 61, 36); fill-opacity:1.000; stroke:none;" />
 <path d="  M 28,21  L 28,22  L 30,22  L 30,21  Z  " style="fill:rgb(81, 61, 36); fill-opacity:1.000; stroke:none;" />
 <path d="  M 30,29  L 28,29  L 28,30  L 30,30  Z  " style="fill:rgb(81, 61, 36); fill-opacity:1.000; stroke:none;" />
 <path d="  M 4,5  L 5,5  L 5,0  L 4,0  Z  " style="fill:rgb(171, 172, 171); fill-opacity:1.000; stroke:none;" />
 <path d="  M 5,7  L 4,7  L 4,18  L 5,18  Z  " style="fill:rgb(171, 172, 171); fill-opacity:1.000; stroke:none;" />
 <path d="  M 5,20  L 4,20  L 4,30  L 5,30  Z  " style="fill:rgb(171, 172, 171); fill-opacity:1.000; stroke:none;" />
 <path d="  M 27,17  L 28,17  L 28,2  L 27,2  Z  " style="fill:rgb(171, 172, 171); fill-opacity:1.000; stroke:none;" />
 <path d="  M 27,19  L 27,30  L 28,30  L 28,19  Z  " style="fill:rgb(171, 172, 171); fill-opacity:1.000; stroke:none;" />
 <path d="  M 5,18  L 4,18  L 4,20  L 5,20  L 5,30  L 4,30  L 4,32  L 7,32  L 7,0  L 5,0  L 5,5  L 4,5  L 4,7  L 5,7  Z  " style="fill:rgb(156, 156, 156); fill-opacity:1.000; stroke:none;" />
 <path d="  M 25,32  L 28,32  L 28,30  L 27,30  L 27,19  L 28,19  L 28,17  L 27,17  L 27,2  L 28,2  L 28,0  L 25,0  Z  " style="fill:rgb(156, 156, 156); fill-opacity:1.000; stroke:none;" />
 <path d="  M 8,0  L 7,0  L 7,4  L 8,4  Z  " style="fill:rgb(104, 104, 104); fill-opacity:1.000; stroke:none;" />
 <path d="  M 7,19  L 8,19  L 8,9  L 7,9  Z  " style="fill:rgb(104, 104, 104); fill-opacity:1.000; stroke:none;" />
 <path d="  M 7,27  L 8,27  L 8,24  L 7,24  Z  " style="fill:rgb(104, 104, 104); fill-opacity:1.000; stroke:none;" />
 <path d="  M 8,32  L 8,30  L 7,30  L 7,32  Z  " style="fill:rgb(104, 104, 104); fill-opacity:1.000; stroke:none;" />
 <path d="  M 24,2  L 25,2  L 25,0  L 24,0  Z  " style="fill:rgb(104, 104, 104); fill-opacity:1.000; stroke:none;" />
 <path d="  M 25,5  L 24,5  L 24,9  L 25,9  Z  " style="fill:rgb(104, 104, 104); fill-opacity:1.000; stroke:none;" />
 <path d="  M 25,23  L 25,17  L 24,17  L 24,23  Z  " style="fill:rgb(104, 104, 104); fill-opacity:1.000; stroke:none;" />
 <path d="  M 24,32  L 25,32  L 25,29  L 24,29  Z  " style="fill:rgb(104, 104, 104); fill-opacity:1.000; stroke:none;" />
 <path d="  M 7,9  L 8,9  L 8,4  L 7,4  Z  " style="fill:rgb(114, 121, 110); fill-opacity:1.000; stroke:none;" />
 <path d="  M 7,24  L 8,24  L 8,19  L 7,19  Z  " style="fill:rgb(114, 121, 110); fill-opacity:1.000; stroke:none;" />
 <path d="  M 8,27  L 7,27  L 7,30  L 8,30  Z  " style="fill:rgb(114, 121, 110); fill-opacity:1.000; stroke:none;" />
 <path d="  M 25,2  L 24,2  L 24,5  L 25,5  Z  " style="fill:rgb(114, 121, 110); fill-opacity:1.000; stroke:none;" />
 <path d="  M 24,17  L 25,17  L 25,9  L 24,9  Z  " style="fill:rgb(114, 121, 110); fill-opacity:1.000; stroke:none;" />
 <path d="  M 25,23  L 24,23  L 24,29  L 25,29  Z  " style="fill:rgb(114, 121, 110); fill-opacity:1.000; stroke:none;" />
 <path d="  M 8,0  L 8,1  L 9,1  L 9,0  Z  " style="fill:rgb(201, 136, 29); fill-opacity:1.000; stroke:none;" />
 <path d="  M 8,7  L 9,7  L 9,5  L 8,5  Z  " style="fill:rgb(201, 136, 29); fill-opacity:1.000; stroke:none;" />
 <path d="  M 9,22  L 9,20  L 8,20  L 8,22  Z  " style="fill:rgb(201, 136, 29); fill-opacity:1.000; stroke:none;" />
 <path d="  M 8,32  L 9,32  L 9,31  L 8,31  Z  " style="fill:rgb(201, 136, 29); fill-opacity:1.000; stroke:none;" />
 <path d="  M 24,2  L 24,0  L 23,0  L 23,2  Z  " style="fill:rgb(201, 136, 29); fill-opacity:1.000; stroke:none;" />
 <path d="  M 24,9  L 23,9  L 23,12  L 24,12  Z  " style="fill:rgb(201, 136, 29); fill-opacity:1.000; stroke:none;" />
 <path d="  M 24,25  L 23,25  L 23,29  L 24,29  Z  " style="fill:rgb(201, 136, 29); fill-opacity:1.000; stroke:none;" />
 <path d="  M 23,31  L 23,32  L 24,32  L 24,31  Z  " style="fill:rgb(201, 136, 29); fill-opacity:1.000; stroke:none;" />
 <path d="  M 9,1  L 8,1  L 8,3  L 9,3  Z  " style="fill:rgb(220, 174, 41); fill-opacity:1.000; stroke:none;" />
 <path d="  M 8,7  L 8,12  L 9,12  L 9,7  Z  " style="fill:rgb(220, 174, 41); fill-opacity:1.000; stroke:none;" />
 <path d="  M 9,20  L 9,18  L 8,18  L 8,20  Z  " style="fill:rgb(220, 174, 41); fill-opacity:1.000; stroke:none;" />
 <path d="  M 9,22  L 8,22  L 8,24  L 9,24  Z  " style="fill:rgb(220, 174, 41); fill-opacity:1.000; stroke:none;" />
 <path d="  M 8,29  L 8,31  L 9,31  L 9,29  Z  " style="fill:rgb(220, 174, 41); fill-opacity:1.000; stroke:none;" />
 <path d="  M 23,3  L 24,3  L 24,2  L 23,2  Z  " style="fill:rgb(220, 174, 41); fill-opacity:1.000; stroke:none;" />
 <path d="  M 24,8  L 23,8  L 23,9  L 24,9  Z  " style="fill:rgb(220, 174, 41); fill-opacity:1.000; stroke:none;" />
 <path d="  M 23,13  L 24,13  L 24,12  L 23,12  Z  " style="fill:rgb(220, 174, 41); fill-opacity:1.000; stroke:none;" />
 <path d="  M 23,25  L 24,25  L 24,22  L 23,22  Z  " style="fill:rgb(220, 174, 41); fill-opacity:1.000; stroke:none;" />
 <path d="  M 23,29  L 23,31  L 24,31  L 24,29  Z  " style="fill:rgb(220, 174, 41); fill-opacity:1.000; stroke:none;" />
 <path d="  M 9,5  L 9,3  L 8,3  L 8,5  Z  " style="fill:rgb(243, 193, 42); fill-opacity:1.000; stroke:none;" />
 <path d="  M 9,12  L 8,12  L 8,18  L 9,18  Z  " style="fill:rgb(243, 193, 42); fill-opacity:1.000; stroke:none;" />
 <path d="  M 8,29  L 9,29  L 9,24  L 8,24  Z  " style="fill:rgb(243, 193, 42); fill-opacity:1.000; stroke:none;" />
 <path d="  M 24,3  L 23,3  L 23,8  L 24,8  Z  " style="fill:rgb(243, 193, 42); fill-opacity:1.000; stroke:none;" />
 <path d="  M 24,13  L 23,13  L 23,22  L 24,22  Z  " style="fill:rgb(243, 193, 42); fill-opacity:1.000; stroke:none;" />
 <path d="  M 9,2  L 9,4  L 10,4  L 10,2  Z  " style="fill:rgb(98, 2, 2); fill-opacity:1.000; stroke:none;" />
 <path d="  M 9,12  L 10,12  L 10,10  L 9,10  Z  " style="fill:rgb(98, 2, 2); fill-opacity:1.000; stroke:none;" />
 <path d="  M 9,20  L 10,20  L 10,18  L 9,18  Z  " style="fill:rgb(98, 2, 2); fill-opacity:1.000; stroke:none;" />
 <path d="  M 10,26  L 9,26  L 9,28  L 10,28  Z  " style="fill:rgb(98, 2, 2); fill-opacity:1.000; stroke:none;" />
 <path d="  M 17,7  L 15,7  L 15,8  L 16,8  L 16,9  L 17,9  Z  " style="fill:rgb(98, 2, 2); fill-opacity:1.000; stroke:none;" />
 <path d="  M 15,17  L 16,17  L 16,16  L 17,16  L 17,15  L 15,15  Z  " style="fill:rgb(98, 2, 2); fill-opacity:1.000; stroke:none;" />
 <path d="  M 16,25  L 17,25  L 17,23  L 15,23  L 15,24  L 16,24  Z  " style="fill:rgb(98, 2, 2); fill-opacity:1.000; stroke:none;" />
 <path d="  M 23,2  L 22,2  L 22,4  L 23,4  Z  " style="fill:rgb(98, 2, 2); fill-opacity:1.000; stroke:none;" />
 <path d="  M 23,12  L 23,10  L 22,10  L 22,12  Z  " style="fill:rgb(98, 2, 2); fill-opacity:1.000; stroke:none;" />
 <path d="  M 23,18  L 22,18  L 22,20  L 23,20  Z  " style="fill:rgb(98, 2, 2); fill-opacity:1.000; stroke:none;" />
 <path d="  M 23,26  L 22,26  L 22,28  L 23,28  Z  " style="fill:rgb(98, 2, 2); fill-opacity:1.000; stroke:none;" />
 <path d="  M 9,6  L 10,6  L 10,4  L 9,4  Z  " style="fill:rgb(49, 0, 0); fill-opacity:1.000; stroke:none;" />
 <path d="  M 10,12  L 9,12  L 9,14  L 10,14  Z  " style="fill:rgb(49, 0, 0); fill-opacity:1.000; stroke:none;" />
 <path d="  M 10,20  L 9,20  L 9,22  L 10,22  Z  " style="fill:rgb(49, 0, 0); fill-opacity:1.000; stroke:none;" />
 <path d="  M 9,30  L 10,30  L 10,28  L 9,28  Z  " style="fill:rgb(49, 0, 0); fill-opacity:1.000; stroke:none;" />
 <path d="  M 16,6  L 14,6  L 14,8  L 15,8  L 15,7  L 16,7  Z  " style="fill:rgb(49, 0, 0); fill-opacity:1.000; stroke:none;" />
 <path d="  M 14,24  L 15,24  L 15,23  L 16,23  L 16,22  L 14,22  Z  " style="fill:rgb(49, 0, 0); fill-opacity:1.000; stroke:none;" />
 <path d="  M 16,8  L 15,8  L 15,9  L 16,9  Z  " style="fill:rgb(49, 0, 0); fill-opacity:1.000; stroke:none;" />
 <path d="  M 16,25  L 16,24  L 15,24  L 15,25  Z  " style="fill:rgb(49, 0, 0); fill-opacity:1.000; stroke:none;" />
 <path d="  M 17,15  L 17,16  L 18,16  L 18,14  L 16,14  L 16,15  Z  " style="fill:rgb(49, 0, 0); fill-opacity:1.000; stroke:none;" />
 <path d="  M 16,17  L 17,17  L 17,16  L 16,16  Z  " style="fill:rgb(49, 0, 0); fill-opacity:1.000; stroke:none;" />
 <path d="  M 23,6  L 23,4  L 22,4  L 22,6  Z  " style="fill:rgb(49, 0, 0); fill-opacity:1.000; stroke:none;" />
 <path d="  M 22,12  L 22,14  L 23,14  L 23,12  Z  " style="fill:rgb(49, 0, 0); fill-opacity:1.000; stroke:none;" />
 <path d="  M 22,22  L 23,22  L 23,20  L 22,20  Z  " style="fill:rgb(49, 0, 0); fill-opacity:1.000; stroke:none;" />
 <path d="  M 22,30  L 23,30  L 23,28  L 22,28  Z  " style="fill:rgb(49, 0, 0); fill-opacity:1.000; stroke:none;" />
 <path d="  M 22,6  L 22,5  L 10,5  L 10,6  Z  " style="fill:rgb(103, 80, 44); fill-opacity:1.000; stroke:none;" />
 <path d="  M 10,13  L 10,14  L 14,14  L 14,13  Z  " style="fill:rgb(103, 80, 44); fill-opacity:1.000; stroke:none;" />
 <path d="  M 22,22  L 22,21  L 10,21  L 10,22  Z  " style="fill:rgb(103, 80, 44); fill-opacity:1.000; stroke:none;" />
 <path d="  M 10,29  L 10,30  L 22,30  L 22,29  Z  " style="fill:rgb(103, 80, 44); fill-opacity:1.000; stroke:none;" />
 <path d="  M 22,14  L 22,13  L 15,13  L 15,14  Z  " style="fill:rgb(103, 80, 44); fill-opacity:1.000; stroke:none;" />
 <path d="  M 17,7  L 17,9  L 15,9  L 15,8  L 14,8  L 14,10  L 18,10  L 18,6  L 16,6  L 16,7  Z  " style="fill:rgb(74, 3, 3); fill-opacity:1.000; stroke:none;" />
 <path d="  M 18,18  L 18,16  L 17,16  L 17,17  L 15,17  L 15,15  L 16,15  L 16,14  L 14,14  L 14,18  Z  " style="fill:rgb(74, 3, 3); fill-opacity:1.000; stroke:none;" />
 <path d="  M 15,24  L 14,24  L 14,26  L 18,26  L 18,22  L 16,22  L 16,23  L 17,23  L 17,25  L 15,25  Z  " style="fill:rgb(74, 3, 3); fill-opacity:1.000; stroke:none;" />
</svg>
