<?xml version="1.0" encoding="UTF-8" standalone="no"?>
<!DOCTYPE svg PUBLIC "-//W3C//DTD SVG 1.1//EN" 
  "http://www.w3.org/Graphics/SVG/1.1/DTD/svg11.dtd">
<svg width="32" height="32"
	 xmlns="http://www.w3.org/2000/svg" version="1.1">
 <path d="  M 13,17  L 13,16  L 12,16  L 12,17  Z  " style="fill:rgb(244, 244, 244); fill-opacity:1.000; stroke:none;" />
 <path d="  M 14,24  L 14,25  L 15,25  L 15,24  Z  " style="fill:rgb(244, 244, 244); fill-opacity:1.000; stroke:none;" />
 <path d="  M 16,5  L 16,4  L 15,4  L 15,5  Z  " style="fill:rgb(244, 244, 244); fill-opacity:1.000; stroke:none;" />
 <path d="  M 15,7  L 15,8  L 16,8  L 16,7  Z  " style="fill:rgb(244, 244, 244); fill-opacity:1.000; stroke:none;" />
 <path d="  M 15,19  L 15,20  L 16,20  L 16,19  Z  " style="fill:rgb(244, 244, 244); fill-opacity:1.000; stroke:none;" />
 <path d="  M 17,11  L 17,10  L 16,10  L 16,11  Z  " style="fill:rgb(244, 244, 244); fill-opacity:1.000; stroke:none;" />
 <path d="  M 17,18  L 18,18  L 18,17  L 17,17  Z  " style="fill:rgb(244, 244, 244); fill-opacity:1.000; stroke:none;" />
 <path d="  M 14,1  L 14,2  L 15,2  L 15,1  Z  " style="fill:rgb(239, 239, 239); fill-opacity:1.000; stroke:none;" />
 <path d="  M 18,4  L 17,4  L 17,6  L 18,6  Z  " style="fill:rgb(239, 239, 239); fill-opacity:1.000; stroke:none;" />
 <path d="  M 15,11  L 14,11  L 14,12  L 15,12  Z  " style="fill:rgb(243, 243, 243); fill-opacity:1.000; stroke:none;" />
 <path d="  M 15,15  L 15,16  L 16,16  L 16,15  Z  " style="fill:rgb(243, 243, 243); fill-opacity:1.000; stroke:none;" />
 <path d="  M 16,2  L 17,2  L 17,1  L 16,1  Z  " style="fill:rgb(243, 243, 243); fill-opacity:1.000; stroke:none;" />
 <path d="  M 17,19  L 17,18  L 16,18  L 16,19  Z  " style="fill:rgb(243, 243, 243); fill-opacity:1.000; stroke:none;" />
 <path d="  M 19,12  L 20,12  L 20,11  L 19,11  Z  " style="fill:rgb(243, 243, 243); fill-opacity:1.000; stroke:none;" />
 <path d="  M 14,12  L 14,14  L 15,14  L 15,13  L 16,13  L 16,12  Z  " style="fill:rgb(246, 246, 246); fill-opacity:1.000; stroke:none;" />
 <path d="  M 16,17  L 16,16  L 15,16  L 15,17  Z  " style="fill:rgb(246, 246, 246); fill-opacity:1.000; stroke:none;" />
 <path d="  M 15,22  L 15,23  L 16,23  L 16,22  Z  " style="fill:rgb(246, 246, 246); fill-opacity:1.000; stroke:none;" />
 <path d="  M 17,25  L 16,25  L 16,27  L 17,27  Z  " style="fill:rgb(246, 246, 246); fill-opacity:1.000; stroke:none;" />
 <path d="  M 17,29  L 17,28  L 16,28  L 16,29  Z  " style="fill:rgb(246, 246, 246); fill-opacity:1.000; stroke:none;" />
 <path d="  M 14,16  L 15,16  L 15,15  L 14,15  Z  " style="fill:rgb(238, 238, 238); fill-opacity:1.000; stroke:none;" />
 <path d="  M 17,8  L 16,8  L 16,9  L 17,9  Z  " style="fill:rgb(238, 238, 238); fill-opacity:1.000; stroke:none;" />
 <path d="  M 14,16  L 14,18  L 15,18  L 15,16  Z  " style="fill:rgb(245, 245, 245); fill-opacity:1.000; stroke:none;" />
 <path d="  M 14,22  L 15,22  L 15,21  L 14,21  Z  " style="fill:rgb(245, 245, 245); fill-opacity:1.000; stroke:none;" />
 <path d="  M 15,20  L 15,21  L 16,21  L 16,20  Z  " style="fill:rgb(245, 245, 245); fill-opacity:1.000; stroke:none;" />
 <path d="  M 16,26  L 16,25  L 15,25  L 15,26  Z  " style="fill:rgb(245, 245, 245); fill-opacity:1.000; stroke:none;" />
 <path d="  M 17,3  L 16,3  L 16,4  L 17,4  Z  " style="fill:rgb(245, 245, 245); fill-opacity:1.000; stroke:none;" />
 <path d="  M 17,11  L 16,11  L 16,12  L 17,12  Z  " style="fill:rgb(245, 245, 245); fill-opacity:1.000; stroke:none;" />
 <path d="  M 16,16  L 17,16  L 17,14  L 16,14  Z  " style="fill:rgb(245, 245, 245); fill-opacity:1.000; stroke:none;" />
 <path d="  M 16,19  L 16,20  L 17,20  L 17,19  Z  " style="fill:rgb(245, 245, 245); fill-opacity:1.000; stroke:none;" />
 <path d="  M 17,24  L 17,23  L 16,23  L 16,24  Z  " style="fill:rgb(245, 245, 245); fill-opacity:1.000; stroke:none;" />
 <path d="  M 18,19  L 18,18  L 17,18  L 17,19  Z  " style="fill:rgb(245, 245, 245); fill-opacity:1.000; stroke:none;" />
 <path d="  M 15,19  L 14,19  L 14,20  L 15,20  Z  " style="fill:rgb(242, 242, 242); fill-opacity:1.000; stroke:none;" />
 <path d="  M 15,14  L 15,15  L 16,15  L 16,14  Z  " style="fill:rgb(242, 242, 242); fill-opacity:1.000; stroke:none;" />
 <path d="  M 16,6  L 16,7  L 17,7  L 17,6  Z  " style="fill:rgb(242, 242, 242); fill-opacity:1.000; stroke:none;" />
 <path d="  M 15,7  L 16,7  L 16,6  L 15,6  Z  " style="fill:rgb(237, 237, 237); fill-opacity:1.000; stroke:none;" />
 <path d="  M 15,11  L 16,11  L 16,10  L 15,10  Z  " style="fill:rgb(237, 237, 237); fill-opacity:1.000; stroke:none;" />
 <path d="  M 16,18  L 15,18  L 15,19  L 16,19  Z  " style="fill:rgb(240, 240, 240); fill-opacity:1.000; stroke:none;" />
 <path d="  M 16,22  L 16,21  L 15,21  L 15,22  Z  " style="fill:rgb(247, 247, 247); fill-opacity:1.000; stroke:none;" />
 <path d="  M 18,12  L 16,12  L 16,14  L 17,14  L 17,13  L 18,13  Z  " style="fill:rgb(247, 247, 247); fill-opacity:1.000; stroke:none;" />
 <path d="  M 16,17  L 17,17  L 17,16  L 16,16  Z  " style="fill:rgb(247, 247, 247); fill-opacity:1.000; stroke:none;" />
 <path d="  M 17,22  L 16,22  L 16,23  L 17,23  Z  " style="fill:rgb(247, 247, 247); fill-opacity:1.000; stroke:none;" />
 <path d="  M 16,29  L 16,30  L 17,30  L 17,29  Z  " style="fill:rgb(247, 247, 247); fill-opacity:1.000; stroke:none;" />
 <path d="  M 18,20  L 18,19  L 17,19  L 17,20  Z  " style="fill:rgb(247, 247, 247); fill-opacity:1.000; stroke:none;" />
 <path d="  M 20,12  L 19,12  L 19,13  L 20,13  Z  " style="fill:rgb(247, 247, 247); fill-opacity:1.000; stroke:none;" />
 <path d="  M 16,10  L 17,10  L 17,9  L 16,9  Z  " style="fill:rgb(241, 241, 241); fill-opacity:1.000; stroke:none;" />
 <path d="  M 16,20  L 16,21  L 17,21  L 17,20  Z  " style="fill:rgb(248, 248, 248); fill-opacity:1.000; stroke:none;" />
</svg>
