<?xml version="1.0" encoding="UTF-8" standalone="no"?>
<!DOCTYPE svg PUBLIC "-//W3C//DTD SVG 1.1//EN" 
  "http://www.w3.org/Graphics/SVG/1.1/DTD/svg11.dtd">
<svg width="32" height="32"
	 xmlns="http://www.w3.org/2000/svg" version="1.1">
 <path d="  M 1,1  L 1,0  L 0,0  L 0,1  Z  " style="fill:rgb(203, 172, 90); fill-opacity:1.000; stroke:none;" />
 <path d="  M 1,2  L 0,2  L 0,3  L 1,3  Z  " style="fill:rgb(203, 172, 90); fill-opacity:1.000; stroke:none;" />
 <path d="  M 1,4  L 0,4  L 0,9  L 1,9  Z  " style="fill:rgb(203, 172, 90); fill-opacity:1.000; stroke:none;" />
 <path d="  M 1,11  L 0,11  L 0,15  L 1,15  Z  " style="fill:rgb(203, 172, 90); fill-opacity:1.000; stroke:none;" />
 <path d="  M 0,21  L 1,21  L 1,18  L 0,18  Z  " style="fill:rgb(203, 172, 90); fill-opacity:1.000; stroke:none;" />
 <path d="  M 0,29  L 1,29  L 1,23  L 0,23  Z  " style="fill:rgb(203, 172, 90); fill-opacity:1.000; stroke:none;" />
 <path d="  M 1,31  L 1,30  L 0,30  L 0,31  Z  " style="fill:rgb(203, 172, 90); fill-opacity:1.000; stroke:none;" />
 <path d="  M 2,2  L 2,1  L 1,1  L 1,2  Z  " style="fill:rgb(203, 172, 90); fill-opacity:1.000; stroke:none;" />
 <path d="  M 2,4  L 2,3  L 1,3  L 1,4  Z  " style="fill:rgb(203, 172, 90); fill-opacity:1.000; stroke:none;" />
 <path d="  M 3,4  L 2,4  L 2,9  L 1,9  L 1,10  L 4,10  L 4,9  L 3,9  Z  " style="fill:rgb(203, 172, 90); fill-opacity:1.000; stroke:none;" />
 <path d="  M 3,18  L 2,18  L 2,21  L 1,21  L 1,22  L 4,22  L 4,21  L 3,21  Z  " style="fill:rgb(203, 172, 90); fill-opacity:1.000; stroke:none;" />
 <path d="  M 1,30  L 2,30  L 2,29  L 1,29  Z  " style="fill:rgb(203, 172, 90); fill-opacity:1.000; stroke:none;" />
 <path d="  M 2,31  L 1,31  L 1,32  L 2,32  Z  " style="fill:rgb(203, 172, 90); fill-opacity:1.000; stroke:none;" />
 <path d="  M 3,0  L 2,0  L 2,1  L 3,1  Z  " style="fill:rgb(203, 172, 90); fill-opacity:1.000; stroke:none;" />
 <path d="  M 3,3  L 3,2  L 2,2  L 2,3  Z  " style="fill:rgb(203, 172, 90); fill-opacity:1.000; stroke:none;" />
 <path d="  M 3,11  L 2,11  L 2,15  L 3,15  Z  " style="fill:rgb(203, 172, 90); fill-opacity:1.000; stroke:none;" />
 <path d="  M 2,29  L 3,29  L 3,23  L 2,23  Z  " style="fill:rgb(203, 172, 90); fill-opacity:1.000; stroke:none;" />
 <path d="  M 2,30  L 2,31  L 3,31  L 3,30  Z  " style="fill:rgb(203, 172, 90); fill-opacity:1.000; stroke:none;" />
 <path d="  M 9,2  L 9,3  L 10,3  L 10,0  L 9,0  L 9,1  L 3,1  L 3,2  Z  " style="fill:rgb(203, 172, 90); fill-opacity:1.000; stroke:none;" />
 <path d="  M 3,3  L 3,4  L 9,4  L 9,3  Z  " style="fill:rgb(203, 172, 90); fill-opacity:1.000; stroke:none;" />
 <path d="  M 3,29  L 3,30  L 4,30  L 4,29  Z  " style="fill:rgb(203, 172, 90); fill-opacity:1.000; stroke:none;" />
 <path d="  M 3,32  L 4,32  L 4,31  L 3,31  Z  " style="fill:rgb(203, 172, 90); fill-opacity:1.000; stroke:none;" />
 <path d="  M 9,28  L 4,28  L 4,29  L 9,29  Z  " style="fill:rgb(203, 172, 90); fill-opacity:1.000; stroke:none;" />
 <path d="  M 4,30  L 4,31  L 9,31  L 9,30  Z  " style="fill:rgb(203, 172, 90); fill-opacity:1.000; stroke:none;" />
 <path d="  M 11,32  L 11,31  L 14,31  L 14,30  L 11,30  L 11,29  L 10,29  L 10,32  Z  " style="fill:rgb(203, 172, 90); fill-opacity:1.000; stroke:none;" />
 <path d="  M 15,2  L 15,1  L 11,1  L 11,2  Z  " style="fill:rgb(203, 172, 90); fill-opacity:1.000; stroke:none;" />
 <path d="  M 15,4  L 15,3  L 11,3  L 11,4  Z  " style="fill:rgb(203, 172, 90); fill-opacity:1.000; stroke:none;" />
 <path d="  M 14,29  L 14,28  L 11,28  L 11,29  Z  " style="fill:rgb(203, 172, 90); fill-opacity:1.000; stroke:none;" />
 <path d="  M 21,29  L 21,28  L 17,28  L 17,29  Z  " style="fill:rgb(203, 172, 90); fill-opacity:1.000; stroke:none;" />
 <path d="  M 21,31  L 21,30  L 17,30  L 17,31  Z  " style="fill:rgb(203, 172, 90); fill-opacity:1.000; stroke:none;" />
 <path d="  M 21,2  L 21,3  L 22,3  L 22,0  L 21,0  L 21,1  L 18,1  L 18,2  Z  " style="fill:rgb(203, 172, 90); fill-opacity:1.000; stroke:none;" />
 <path d="  M 18,3  L 18,4  L 21,4  L 21,3  Z  " style="fill:rgb(203, 172, 90); fill-opacity:1.000; stroke:none;" />
 <path d="  M 29,31  L 29,30  L 23,30  L 23,29  L 22,29  L 22,32  L 23,32  L 23,31  Z  " style="fill:rgb(203, 172, 90); fill-opacity:1.000; stroke:none;" />
 <path d="  M 28,2  L 28,1  L 23,1  L 23,2  Z  " style="fill:rgb(203, 172, 90); fill-opacity:1.000; stroke:none;" />
 <path d="  M 23,3  L 23,4  L 28,4  L 28,3  Z  " style="fill:rgb(203, 172, 90); fill-opacity:1.000; stroke:none;" />
 <path d="  M 29,29  L 29,28  L 23,28  L 23,29  Z  " style="fill:rgb(203, 172, 90); fill-opacity:1.000; stroke:none;" />
 <path d="  M 29,0  L 28,0  L 28,1  L 29,1  Z  " style="fill:rgb(203, 172, 90); fill-opacity:1.000; stroke:none;" />
 <path d="  M 28,2  L 28,3  L 29,3  L 29,2  Z  " style="fill:rgb(203, 172, 90); fill-opacity:1.000; stroke:none;" />
 <path d="  M 29,11  L 29,14  L 30,14  L 30,11  L 31,11  L 31,10  L 28,10  L 28,11  Z  " style="fill:rgb(203, 172, 90); fill-opacity:1.000; stroke:none;" />
 <path d="  M 30,23  L 31,23  L 31,22  L 28,22  L 28,23  L 29,23  L 29,28  L 30,28  Z  " style="fill:rgb(203, 172, 90); fill-opacity:1.000; stroke:none;" />
 <path d="  M 29,1  L 29,2  L 30,2  L 30,1  Z  " style="fill:rgb(203, 172, 90); fill-opacity:1.000; stroke:none;" />
 <path d="  M 29,9  L 30,9  L 30,3  L 29,3  Z  " style="fill:rgb(203, 172, 90); fill-opacity:1.000; stroke:none;" />
 <path d="  M 29,21  L 30,21  L 30,17  L 29,17  Z  " style="fill:rgb(203, 172, 90); fill-opacity:1.000; stroke:none;" />
 <path d="  M 29,30  L 30,30  L 30,29  L 29,29  Z  " style="fill:rgb(203, 172, 90); fill-opacity:1.000; stroke:none;" />
 <path d="  M 30,32  L 30,31  L 29,31  L 29,32  Z  " style="fill:rgb(203, 172, 90); fill-opacity:1.000; stroke:none;" />
 <path d="  M 31,1  L 31,0  L 30,0  L 30,1  Z  " style="fill:rgb(203, 172, 90); fill-opacity:1.000; stroke:none;" />
 <path d="  M 31,3  L 31,2  L 30,2  L 30,3  Z  " style="fill:rgb(203, 172, 90); fill-opacity:1.000; stroke:none;" />
 <path d="  M 30,28  L 30,29  L 31,29  L 31,28  Z  " style="fill:rgb(203, 172, 90); fill-opacity:1.000; stroke:none;" />
 <path d="  M 31,31  L 31,30  L 30,30  L 30,31  Z  " style="fill:rgb(203, 172, 90); fill-opacity:1.000; stroke:none;" />
 <path d="  M 32,1  L 31,1  L 31,2  L 32,2  Z  " style="fill:rgb(203, 172, 90); fill-opacity:1.000; stroke:none;" />
 <path d="  M 32,3  L 31,3  L 31,9  L 32,9  Z  " style="fill:rgb(203, 172, 90); fill-opacity:1.000; stroke:none;" />
 <path d="  M 32,11  L 31,11  L 31,14  L 32,14  Z  " style="fill:rgb(203, 172, 90); fill-opacity:1.000; stroke:none;" />
 <path d="  M 31,21  L 32,21  L 32,17  L 31,17  Z  " style="fill:rgb(203, 172, 90); fill-opacity:1.000; stroke:none;" />
 <path d="  M 31,28  L 32,28  L 32,23  L 31,23  Z  " style="fill:rgb(203, 172, 90); fill-opacity:1.000; stroke:none;" />
 <path d="  M 31,30  L 32,30  L 32,29  L 31,29  Z  " style="fill:rgb(203, 172, 90); fill-opacity:1.000; stroke:none;" />
 <path d="  M 32,31  L 31,31  L 31,32  L 32,32  Z  " style="fill:rgb(203, 172, 90); fill-opacity:1.000; stroke:none;" />
 <path d="  M 0,1  L 0,2  L 1,2  L 1,1  Z  " style="fill:rgb(162, 137, 74); fill-opacity:1.000; stroke:none;" />
 <path d="  M 1,3  L 0,3  L 0,4  L 1,4  Z  " style="fill:rgb(162, 137, 74); fill-opacity:1.000; stroke:none;" />
 <path d="  M 0,10  L 1,10  L 1,9  L 0,9  Z  " style="fill:rgb(162, 137, 74); fill-opacity:1.000; stroke:none;" />
 <path d="  M 1,22  L 1,21  L 0,21  L 0,22  Z  " style="fill:rgb(162, 137, 74); fill-opacity:1.000; stroke:none;" />
 <path d="  M 1,29  L 0,29  L 0,30  L 1,30  Z  " style="fill:rgb(162, 137, 74); fill-opacity:1.000; stroke:none;" />
 <path d="  M 0,32  L 1,32  L 1,31  L 0,31  Z  " style="fill:rgb(162, 137, 74); fill-opacity:1.000; stroke:none;" />
 <path d="  M 1,1  L 2,1  L 2,0  L 1,0  Z  " style="fill:rgb(162, 137, 74); fill-opacity:1.000; stroke:none;" />
 <path d="  M 1,2  L 1,3  L 2,3  L 2,2  Z  " style="fill:rgb(162, 137, 74); fill-opacity:1.000; stroke:none;" />
 <path d="  M 1,28  L 1,29  L 2,29  L 2,28  Z  " style="fill:rgb(162, 137, 74); fill-opacity:1.000; stroke:none;" />
 <path d="  M 2,31  L 2,30  L 1,30  L 1,31  Z  " style="fill:rgb(162, 137, 74); fill-opacity:1.000; stroke:none;" />
 <path d="  M 2,2  L 3,2  L 3,1  L 2,1  Z  " style="fill:rgb(162, 137, 74); fill-opacity:1.000; stroke:none;" />
 <path d="  M 2,3  L 2,4  L 3,4  L 3,3  Z  " style="fill:rgb(162, 137, 74); fill-opacity:1.000; stroke:none;" />
 <path d="  M 3,29  L 2,29  L 2,30  L 3,30  Z  " style="fill:rgb(162, 137, 74); fill-opacity:1.000; stroke:none;" />
 <path d="  M 2,32  L 3,32  L 3,31  L 2,31  Z  " style="fill:rgb(162, 137, 74); fill-opacity:1.000; stroke:none;" />
 <path d="  M 3,0  L 3,1  L 4,1  L 4,0  Z  " style="fill:rgb(162, 137, 74); fill-opacity:1.000; stroke:none;" />
 <path d="  M 3,2  L 3,3  L 4,3  L 4,2  Z  " style="fill:rgb(162, 137, 74); fill-opacity:1.000; stroke:none;" />
 <path d="  M 3,29  L 4,29  L 4,28  L 3,28  Z  " style="fill:rgb(162, 137, 74); fill-opacity:1.000; stroke:none;" />
 <path d="  M 4,30  L 3,30  L 3,31  L 4,31  Z  " style="fill:rgb(162, 137, 74); fill-opacity:1.000; stroke:none;" />
 <path d="  M 9,4  L 10,4  L 10,3  L 9,3  Z  " style="fill:rgb(162, 137, 74); fill-opacity:1.000; stroke:none;" />
 <path d="  M 11,29  L 11,28  L 10,28  L 10,29  Z  " style="fill:rgb(162, 137, 74); fill-opacity:1.000; stroke:none;" />
 <path d="  M 22,3  L 21,3  L 21,4  L 22,4  Z  " style="fill:rgb(162, 137, 74); fill-opacity:1.000; stroke:none;" />
 <path d="  M 23,29  L 23,28  L 22,28  L 22,29  Z  " style="fill:rgb(162, 137, 74); fill-opacity:1.000; stroke:none;" />
 <path d="  M 28,2  L 29,2  L 29,1  L 28,1  Z  " style="fill:rgb(162, 137, 74); fill-opacity:1.000; stroke:none;" />
 <path d="  M 28,4  L 29,4  L 29,3  L 28,3  Z  " style="fill:rgb(162, 137, 74); fill-opacity:1.000; stroke:none;" />
 <path d="  M 28,29  L 28,30  L 29,30  L 29,29  Z  " style="fill:rgb(162, 137, 74); fill-opacity:1.000; stroke:none;" />
 <path d="  M 28,31  L 28,32  L 29,32  L 29,31  Z  " style="fill:rgb(162, 137, 74); fill-opacity:1.000; stroke:none;" />
 <path d="  M 29,0  L 29,1  L 30,1  L 30,0  Z  " style="fill:rgb(162, 137, 74); fill-opacity:1.000; stroke:none;" />
 <path d="  M 30,2  L 29,2  L 29,3  L 30,3  Z  " style="fill:rgb(162, 137, 74); fill-opacity:1.000; stroke:none;" />
 <path d="  M 29,28  L 29,29  L 30,29  L 30,28  Z  " style="fill:rgb(162, 137, 74); fill-opacity:1.000; stroke:none;" />
 <path d="  M 29,31  L 30,31  L 30,30  L 29,30  Z  " style="fill:rgb(162, 137, 74); fill-opacity:1.000; stroke:none;" />
 <path d="  M 31,2  L 31,1  L 30,1  L 30,2  Z  " style="fill:rgb(162, 137, 74); fill-opacity:1.000; stroke:none;" />
 <path d="  M 30,4  L 31,4  L 31,3  L 30,3  Z  " style="fill:rgb(162, 137, 74); fill-opacity:1.000; stroke:none;" />
 <path d="  M 30,29  L 30,30  L 31,30  L 31,29  Z  " style="fill:rgb(162, 137, 74); fill-opacity:1.000; stroke:none;" />
 <path d="  M 30,31  L 30,32  L 31,32  L 31,31  Z  " style="fill:rgb(162, 137, 74); fill-opacity:1.000; stroke:none;" />
 <path d="  M 31,1  L 32,1  L 32,0  L 31,0  Z  " style="fill:rgb(162, 137, 74); fill-opacity:1.000; stroke:none;" />
 <path d="  M 32,3  L 32,2  L 31,2  L 31,3  Z  " style="fill:rgb(162, 137, 74); fill-opacity:1.000; stroke:none;" />
 <path d="  M 31,11  L 32,11  L 32,10  L 31,10  Z  " style="fill:rgb(162, 137, 74); fill-opacity:1.000; stroke:none;" />
 <path d="  M 31,23  L 32,23  L 32,22  L 31,22  Z  " style="fill:rgb(162, 137, 74); fill-opacity:1.000; stroke:none;" />
 <path d="  M 31,29  L 32,29  L 32,28  L 31,28  Z  " style="fill:rgb(162, 137, 74); fill-opacity:1.000; stroke:none;" />
 <path d="  M 31,30  L 31,31  L 32,31  L 32,30  Z  " style="fill:rgb(162, 137, 74); fill-opacity:1.000; stroke:none;" />
 <path d="  M 4,11  L 4,10  L 0,10  L 0,11  Z  " style="fill:rgb(237, 213, 140); fill-opacity:1.000; stroke:none;" />
 <path d="  M 2,22  L 0,22  L 0,23  L 2,23  Z  " style="fill:rgb(237, 213, 140); fill-opacity:1.000; stroke:none;" />
 <path d="  M 4,22  L 3,22  L 3,23  L 4,23  Z  " style="fill:rgb(237, 213, 140); fill-opacity:1.000; stroke:none;" />
 <path d="  M 9,30  L 10,30  L 10,28  L 9,28  Z  " style="fill:rgb(237, 213, 140); fill-opacity:1.000; stroke:none;" />
 <path d="  M 9,32  L 10,32  L 10,31  L 9,31  Z  " style="fill:rgb(237, 213, 140); fill-opacity:1.000; stroke:none;" />
 <path d="  M 11,0  L 10,0  L 10,4  L 11,4  Z  " style="fill:rgb(237, 213, 140); fill-opacity:1.000; stroke:none;" />
 <path d="  M 21,28  L 21,32  L 22,32  L 22,28  Z  " style="fill:rgb(237, 213, 140); fill-opacity:1.000; stroke:none;" />
 <path d="  M 22,0  L 22,1  L 23,1  L 23,0  Z  " style="fill:rgb(237, 213, 140); fill-opacity:1.000; stroke:none;" />
 <path d="  M 23,2  L 22,2  L 22,4  L 23,4  Z  " style="fill:rgb(237, 213, 140); fill-opacity:1.000; stroke:none;" />
 <path d="  M 28,10  L 29,10  L 29,9  L 28,9  Z  " style="fill:rgb(237, 213, 140); fill-opacity:1.000; stroke:none;" />
 <path d="  M 32,22  L 32,21  L 28,21  L 28,22  Z  " style="fill:rgb(237, 213, 140); fill-opacity:1.000; stroke:none;" />
 <path d="  M 32,10  L 32,9  L 30,9  L 30,10  Z  " style="fill:rgb(237, 213, 140); fill-opacity:1.000; stroke:none;" />
 <path d="  M 0,18  L 1,18  L 1,15  L 0,15  Z  " style="fill:rgb(211, 187, 80); fill-opacity:1.000; stroke:none;" />
 <path d="  M 2,9  L 2,8  L 1,8  L 1,9  Z  " style="fill:rgb(211, 187, 80); fill-opacity:1.000; stroke:none;" />
 <path d="  M 2,18  L 1,18  L 1,21  L 2,21  Z  " style="fill:rgb(211, 187, 80); fill-opacity:1.000; stroke:none;" />
 <path d="  M 2,24  L 2,23  L 1,23  L 1,24  Z  " style="fill:rgb(211, 187, 80); fill-opacity:1.000; stroke:none;" />
 <path d="  M 3,15  L 2,15  L 2,18  L 3,18  Z  " style="fill:rgb(211, 187, 80); fill-opacity:1.000; stroke:none;" />
 <path d="  M 3,9  L 4,9  L 4,8  L 3,8  Z  " style="fill:rgb(211, 187, 80); fill-opacity:1.000; stroke:none;" />
 <path d="  M 4,21  L 4,18  L 3,18  L 3,21  Z  " style="fill:rgb(211, 187, 80); fill-opacity:1.000; stroke:none;" />
 <path d="  M 3,24  L 4,24  L 4,23  L 3,23  Z  " style="fill:rgb(211, 187, 80); fill-opacity:1.000; stroke:none;" />
 <path d="  M 8,0  L 8,1  L 9,1  L 9,0  Z  " style="fill:rgb(211, 187, 80); fill-opacity:1.000; stroke:none;" />
 <path d="  M 9,2  L 8,2  L 8,3  L 9,3  Z  " style="fill:rgb(211, 187, 80); fill-opacity:1.000; stroke:none;" />
 <path d="  M 9,29  L 8,29  L 8,30  L 9,30  Z  " style="fill:rgb(211, 187, 80); fill-opacity:1.000; stroke:none;" />
 <path d="  M 8,32  L 9,32  L 9,31  L 8,31  Z  " style="fill:rgb(211, 187, 80); fill-opacity:1.000; stroke:none;" />
 <path d="  M 11,30  L 14,30  L 14,29  L 11,29  Z  " style="fill:rgb(211, 187, 80); fill-opacity:1.000; stroke:none;" />
 <path d="  M 14,32  L 14,31  L 11,31  L 11,32  Z  " style="fill:rgb(211, 187, 80); fill-opacity:1.000; stroke:none;" />
 <path d="  M 17,29  L 17,28  L 14,28  L 14,29  Z  " style="fill:rgb(211, 187, 80); fill-opacity:1.000; stroke:none;" />
 <path d="  M 14,30  L 14,31  L 17,31  L 17,30  Z  " style="fill:rgb(211, 187, 80); fill-opacity:1.000; stroke:none;" />
 <path d="  M 15,1  L 15,2  L 18,2  L 18,1  Z  " style="fill:rgb(211, 187, 80); fill-opacity:1.000; stroke:none;" />
 <path d="  M 15,3  L 15,4  L 18,4  L 18,3  Z  " style="fill:rgb(211, 187, 80); fill-opacity:1.000; stroke:none;" />
 <path d="  M 18,1  L 21,1  L 21,0  L 18,0  Z  " style="fill:rgb(211, 187, 80); fill-opacity:1.000; stroke:none;" />
 <path d="  M 18,3  L 21,3  L 21,2  L 18,2  Z  " style="fill:rgb(211, 187, 80); fill-opacity:1.000; stroke:none;" />
 <path d="  M 23,1  L 24,1  L 24,0  L 23,0  Z  " style="fill:rgb(211, 187, 80); fill-opacity:1.000; stroke:none;" />
 <path d="  M 23,3  L 24,3  L 24,2  L 23,2  Z  " style="fill:rgb(211, 187, 80); fill-opacity:1.000; stroke:none;" />
 <path d="  M 23,29  L 23,30  L 24,30  L 24,29  Z  " style="fill:rgb(211, 187, 80); fill-opacity:1.000; stroke:none;" />
 <path d="  M 23,31  L 23,32  L 24,32  L 24,31  Z  " style="fill:rgb(211, 187, 80); fill-opacity:1.000; stroke:none;" />
 <path d="  M 28,9  L 29,9  L 29,8  L 28,8  Z  " style="fill:rgb(211, 187, 80); fill-opacity:1.000; stroke:none;" />
 <path d="  M 29,11  L 28,11  L 28,14  L 29,14  Z  " style="fill:rgb(211, 187, 80); fill-opacity:1.000; stroke:none;" />
 <path d="  M 28,23  L 28,24  L 29,24  L 29,23  Z  " style="fill:rgb(211, 187, 80); fill-opacity:1.000; stroke:none;" />
 <path d="  M 30,14  L 29,14  L 29,17  L 30,17  Z  " style="fill:rgb(211, 187, 80); fill-opacity:1.000; stroke:none;" />
 <path d="  M 31,8  L 30,8  L 30,9  L 31,9  Z  " style="fill:rgb(211, 187, 80); fill-opacity:1.000; stroke:none;" />
 <path d="  M 30,14  L 31,14  L 31,11  L 30,11  Z  " style="fill:rgb(211, 187, 80); fill-opacity:1.000; stroke:none;" />
 <path d="  M 31,24  L 31,23  L 30,23  L 30,24  Z  " style="fill:rgb(211, 187, 80); fill-opacity:1.000; stroke:none;" />
 <path d="  M 31,17  L 32,17  L 32,14  L 31,14  Z  " style="fill:rgb(211, 187, 80); fill-opacity:1.000; stroke:none;" />
 <path d="  M 2,4  L 1,4  L 1,8  L 2,8  Z  " style="fill:rgb(230, 199, 117); fill-opacity:1.000; stroke:none;" />
 <path d="  M 1,11  L 1,18  L 2,18  L 2,11  Z  " style="fill:rgb(230, 199, 117); fill-opacity:1.000; stroke:none;" />
 <path d="  M 2,24  L 1,24  L 1,28  L 2,28  Z  " style="fill:rgb(230, 199, 117); fill-opacity:1.000; stroke:none;" />
 <path d="  M 3,8  L 4,8  L 4,4  L 3,4  Z  " style="fill:rgb(230, 199, 117); fill-opacity:1.000; stroke:none;" />
 <path d="  M 4,11  L 3,11  L 3,18  L 4,18  Z  " style="fill:rgb(230, 199, 117); fill-opacity:1.000; stroke:none;" />
 <path d="  M 4,24  L 3,24  L 3,28  L 4,28  Z  " style="fill:rgb(230, 199, 117); fill-opacity:1.000; stroke:none;" />
 <path d="  M 8,1  L 8,0  L 4,0  L 4,1  Z  " style="fill:rgb(230, 199, 117); fill-opacity:1.000; stroke:none;" />
 <path d="  M 8,3  L 8,2  L 4,2  L 4,3  Z  " style="fill:rgb(230, 199, 117); fill-opacity:1.000; stroke:none;" />
 <path d="  M 8,30  L 8,29  L 4,29  L 4,30  Z  " style="fill:rgb(230, 199, 117); fill-opacity:1.000; stroke:none;" />
 <path d="  M 8,32  L 8,31  L 4,31  L 4,32  Z  " style="fill:rgb(230, 199, 117); fill-opacity:1.000; stroke:none;" />
 <path d="  M 18,1  L 18,0  L 11,0  L 11,1  Z  " style="fill:rgb(230, 199, 117); fill-opacity:1.000; stroke:none;" />
 <path d="  M 11,2  L 11,3  L 18,3  L 18,2  Z  " style="fill:rgb(230, 199, 117); fill-opacity:1.000; stroke:none;" />
 <path d="  M 21,29  L 14,29  L 14,30  L 21,30  Z  " style="fill:rgb(230, 199, 117); fill-opacity:1.000; stroke:none;" />
 <path d="  M 21,32  L 21,31  L 14,31  L 14,32  Z  " style="fill:rgb(230, 199, 117); fill-opacity:1.000; stroke:none;" />
 <path d="  M 28,1  L 28,0  L 24,0  L 24,1  Z  " style="fill:rgb(230, 199, 117); fill-opacity:1.000; stroke:none;" />
 <path d="  M 28,3  L 28,2  L 24,2  L 24,3  Z  " style="fill:rgb(230, 199, 117); fill-opacity:1.000; stroke:none;" />
 <path d="  M 24,29  L 24,30  L 28,30  L 28,29  Z  " style="fill:rgb(230, 199, 117); fill-opacity:1.000; stroke:none;" />
 <path d="  M 24,31  L 24,32  L 28,32  L 28,31  Z  " style="fill:rgb(230, 199, 117); fill-opacity:1.000; stroke:none;" />
 <path d="  M 28,8  L 29,8  L 29,4  L 28,4  Z  " style="fill:rgb(230, 199, 117); fill-opacity:1.000; stroke:none;" />
 <path d="  M 28,14  L 28,21  L 29,21  L 29,14  Z  " style="fill:rgb(230, 199, 117); fill-opacity:1.000; stroke:none;" />
 <path d="  M 29,24  L 28,24  L 28,28  L 29,28  Z  " style="fill:rgb(230, 199, 117); fill-opacity:1.000; stroke:none;" />
 <path d="  M 30,8  L 31,8  L 31,4  L 30,4  Z  " style="fill:rgb(230, 199, 117); fill-opacity:1.000; stroke:none;" />
 <path d="  M 31,14  L 30,14  L 30,21  L 31,21  Z  " style="fill:rgb(230, 199, 117); fill-opacity:1.000; stroke:none;" />
 <path d="  M 31,24  L 30,24  L 30,28  L 31,28  Z  " style="fill:rgb(230, 199, 117); fill-opacity:1.000; stroke:none;" />
 <path d="  M 2,23  L 3,23  L 3,22  L 2,22  Z  " style="fill:rgb(242, 232, 166); fill-opacity:1.000; stroke:none;" />
 <path d="  M 10,30  L 9,30  L 9,31  L 10,31  Z  " style="fill:rgb(242, 232, 166); fill-opacity:1.000; stroke:none;" />
 <path d="  M 22,2  L 23,2  L 23,1  L 22,1  Z  " style="fill:rgb(242, 232, 166); fill-opacity:1.000; stroke:none;" />
 <path d="  M 30,10  L 30,9  L 29,9  L 29,10  Z  " style="fill:rgb(242, 232, 166); fill-opacity:1.000; stroke:none;" />
</svg>
