<?xml version="1.0" encoding="UTF-8" standalone="no"?>
<!DOCTYPE svg PUBLIC "-//W3C//DTD SVG 1.1//EN" 
  "http://www.w3.org/Graphics/SVG/1.1/DTD/svg11.dtd">
<svg width="32" height="32"
	 xmlns="http://www.w3.org/2000/svg" version="1.1">
 <path d="  M 1,0  L 0,0  L 0,6  L 1,6  Z  " style="fill:rgb(230, 199, 117); fill-opacity:1.000; stroke:none;" />
 <path d="  M 0,11  L 1,11  L 1,10  L 0,10  Z  " style="fill:rgb(230, 199, 117); fill-opacity:1.000; stroke:none;" />
 <path d="  M 1,22  L 1,21  L 0,21  L 0,22  Z  " style="fill:rgb(230, 199, 117); fill-opacity:1.000; stroke:none;" />
 <path d="  M 0,32  L 1,32  L 1,25  L 0,25  Z  " style="fill:rgb(230, 199, 117); fill-opacity:1.000; stroke:none;" />
 <path d="  M 3,0  L 2,0  L 2,6  L 3,6  Z  " style="fill:rgb(230, 199, 117); fill-opacity:1.000; stroke:none;" />
 <path d="  M 3,10  L 2,10  L 2,11  L 3,11  Z  " style="fill:rgb(230, 199, 117); fill-opacity:1.000; stroke:none;" />
 <path d="  M 3,21  L 2,21  L 2,22  L 3,22  Z  " style="fill:rgb(230, 199, 117); fill-opacity:1.000; stroke:none;" />
 <path d="  M 3,25  L 2,25  L 2,32  L 3,32  Z  " style="fill:rgb(230, 199, 117); fill-opacity:1.000; stroke:none;" />
 <path d="  M 9,28  L 4,28  L 4,29  L 9,29  Z  " style="fill:rgb(230, 199, 117); fill-opacity:1.000; stroke:none;" />
 <path d="  M 4,30  L 4,31  L 9,31  L 9,30  Z  " style="fill:rgb(230, 199, 117); fill-opacity:1.000; stroke:none;" />
 <path d="  M 5,3  L 8,3  L 8,2  L 7,2  L 7,1  L 6,1  L 6,0  L 5,0  Z  " style="fill:rgb(230, 199, 117); fill-opacity:1.000; stroke:none;" />
 <path d="  M 7,5  L 6,5  L 6,4  L 5,4  L 5,7  L 8,7  L 8,6  L 7,6  Z  " style="fill:rgb(230, 199, 117); fill-opacity:1.000; stroke:none;" />
 <path d="  M 9,2  L 9,1  L 8,1  L 8,2  Z  " style="fill:rgb(230, 199, 117); fill-opacity:1.000; stroke:none;" />
 <path d="  M 8,5  L 8,6  L 9,6  L 9,5  Z  " style="fill:rgb(230, 199, 117); fill-opacity:1.000; stroke:none;" />
 <path d="  M 13,1  L 13,0  L 12,0  L 12,1  Z  " style="fill:rgb(230, 199, 117); fill-opacity:1.000; stroke:none;" />
 <path d="  M 12,3  L 13,3  L 13,2  L 12,2  Z  " style="fill:rgb(230, 199, 117); fill-opacity:1.000; stroke:none;" />
 <path d="  M 13,4  L 12,4  L 12,5  L 13,5  Z  " style="fill:rgb(230, 199, 117); fill-opacity:1.000; stroke:none;" />
 <path d="  M 13,6  L 12,6  L 12,7  L 13,7  Z  " style="fill:rgb(230, 199, 117); fill-opacity:1.000; stroke:none;" />
 <path d="  M 13,28  L 12,28  L 12,29  L 13,29  Z  " style="fill:rgb(230, 199, 117); fill-opacity:1.000; stroke:none;" />
 <path d="  M 12,31  L 13,31  L 13,30  L 12,30  Z  " style="fill:rgb(230, 199, 117); fill-opacity:1.000; stroke:none;" />
 <path d="  M 14,2  L 14,3  L 17,3  L 17,2  Z  " style="fill:rgb(230, 199, 117); fill-opacity:1.000; stroke:none;" />
 <path d="  M 17,7  L 17,6  L 14,6  L 14,7  Z  " style="fill:rgb(230, 199, 117); fill-opacity:1.000; stroke:none;" />
 <path d="  M 19,1  L 19,0  L 18,0  L 18,1  Z  " style="fill:rgb(230, 199, 117); fill-opacity:1.000; stroke:none;" />
 <path d="  M 18,5  L 19,5  L 19,4  L 18,4  Z  " style="fill:rgb(230, 199, 117); fill-opacity:1.000; stroke:none;" />
 <path d="  M 21,2  L 19,2  L 19,3  L 21,3  Z  " style="fill:rgb(230, 199, 117); fill-opacity:1.000; stroke:none;" />
 <path d="  M 19,6  L 19,7  L 21,7  L 21,6  Z  " style="fill:rgb(230, 199, 117); fill-opacity:1.000; stroke:none;" />
 <path d="  M 19,29  L 20,29  L 20,28  L 19,28  Z  " style="fill:rgb(230, 199, 117); fill-opacity:1.000; stroke:none;" />
 <path d="  M 19,30  L 19,31  L 20,31  L 20,30  Z  " style="fill:rgb(230, 199, 117); fill-opacity:1.000; stroke:none;" />
 <path d="  M 20,1  L 21,1  L 21,0  L 20,0  Z  " style="fill:rgb(230, 199, 117); fill-opacity:1.000; stroke:none;" />
 <path d="  M 20,4  L 20,5  L 21,5  L 21,4  Z  " style="fill:rgb(230, 199, 117); fill-opacity:1.000; stroke:none;" />
 <path d="  M 23,2  L 22,2  L 22,3  L 23,3  Z  " style="fill:rgb(230, 199, 117); fill-opacity:1.000; stroke:none;" />
 <path d="  M 23,7  L 23,6  L 22,6  L 22,7  Z  " style="fill:rgb(230, 199, 117); fill-opacity:1.000; stroke:none;" />
 <path d="  M 25,3  L 25,2  L 24,2  L 24,3  Z  " style="fill:rgb(230, 199, 117); fill-opacity:1.000; stroke:none;" />
 <path d="  M 25,6  L 24,6  L 24,7  L 25,7  Z  " style="fill:rgb(230, 199, 117); fill-opacity:1.000; stroke:none;" />
 <path d="  M 28,29  L 28,28  L 24,28  L 24,29  Z  " style="fill:rgb(230, 199, 117); fill-opacity:1.000; stroke:none;" />
 <path d="  M 28,31  L 28,30  L 24,30  L 24,31  Z  " style="fill:rgb(230, 199, 117); fill-opacity:1.000; stroke:none;" />
 <path d="  M 26,1  L 27,1  L 27,0  L 26,0  Z  " style="fill:rgb(230, 199, 117); fill-opacity:1.000; stroke:none;" />
 <path d="  M 27,5  L 27,4  L 26,4  L 26,5  Z  " style="fill:rgb(230, 199, 117); fill-opacity:1.000; stroke:none;" />
 <path d="  M 29,0  L 28,0  L 28,6  L 29,6  Z  " style="fill:rgb(230, 199, 117); fill-opacity:1.000; stroke:none;" />
 <path d="  M 29,11  L 28,11  L 28,20  L 29,20  Z  " style="fill:rgb(230, 199, 117); fill-opacity:1.000; stroke:none;" />
 <path d="  M 29,25  L 28,25  L 28,27  L 29,27  Z  " style="fill:rgb(230, 199, 117); fill-opacity:1.000; stroke:none;" />
 <path d="  M 28,31  L 28,32  L 29,32  L 29,31  Z  " style="fill:rgb(230, 199, 117); fill-opacity:1.000; stroke:none;" />
 <path d="  M 30,6  L 31,6  L 31,0  L 30,0  Z  " style="fill:rgb(230, 199, 117); fill-opacity:1.000; stroke:none;" />
 <path d="  M 31,11  L 30,11  L 30,20  L 31,20  Z  " style="fill:rgb(230, 199, 117); fill-opacity:1.000; stroke:none;" />
 <path d="  M 31,25  L 30,25  L 30,27  L 31,27  Z  " style="fill:rgb(230, 199, 117); fill-opacity:1.000; stroke:none;" />
 <path d="  M 30,31  L 30,32  L 31,32  L 31,31  Z  " style="fill:rgb(230, 199, 117); fill-opacity:1.000; stroke:none;" />
 <path d="  M 1,6  L 0,6  L 0,8  L 1,8  Z  " style="fill:rgb(237, 213, 140); fill-opacity:1.000; stroke:none;" />
 <path d="  M 1,11  L 0,11  L 0,21  L 1,21  Z  " style="fill:rgb(237, 213, 140); fill-opacity:1.000; stroke:none;" />
 <path d="  M 1,23  L 1,24  L 4,24  L 4,23  Z  " style="fill:rgb(237, 213, 140); fill-opacity:1.000; stroke:none;" />
 <path d="  M 3,6  L 2,6  L 2,8  L 4,8  L 4,7  L 3,7  Z  " style="fill:rgb(237, 213, 140); fill-opacity:1.000; stroke:none;" />
 <path d="  M 3,11  L 2,11  L 2,21  L 3,21  Z  " style="fill:rgb(237, 213, 140); fill-opacity:1.000; stroke:none;" />
 <path d="  M 5,0  L 4,0  L 4,3  L 5,3  Z  " style="fill:rgb(237, 213, 140); fill-opacity:1.000; stroke:none;" />
 <path d="  M 4,7  L 5,7  L 5,4  L 4,4  Z  " style="fill:rgb(237, 213, 140); fill-opacity:1.000; stroke:none;" />
 <path d="  M 9,2  L 9,4  L 10,4  L 10,2  Z  " style="fill:rgb(237, 213, 140); fill-opacity:1.000; stroke:none;" />
 <path d="  M 9,8  L 10,8  L 10,6  L 9,6  Z  " style="fill:rgb(237, 213, 140); fill-opacity:1.000; stroke:none;" />
 <path d="  M 11,32  L 11,29  L 10,29  L 10,32  Z  " style="fill:rgb(237, 213, 140); fill-opacity:1.000; stroke:none;" />
 <path d="  M 13,29  L 19,29  L 19,28  L 13,28  Z  " style="fill:rgb(237, 213, 140); fill-opacity:1.000; stroke:none;" />
 <path d="  M 13,30  L 13,31  L 19,31  L 19,30  Z  " style="fill:rgb(237, 213, 140); fill-opacity:1.000; stroke:none;" />
 <path d="  M 21,2  L 21,4  L 22,4  L 22,2  Z  " style="fill:rgb(237, 213, 140); fill-opacity:1.000; stroke:none;" />
 <path d="  M 21,6  L 21,8  L 22,8  L 22,6  Z  " style="fill:rgb(237, 213, 140); fill-opacity:1.000; stroke:none;" />
 <path d="  M 24,29  L 24,28  L 22,28  L 22,29  Z  " style="fill:rgb(237, 213, 140); fill-opacity:1.000; stroke:none;" />
 <path d="  M 22,30  L 22,32  L 23,32  L 23,31  L 24,31  L 24,30  Z  " style="fill:rgb(237, 213, 140); fill-opacity:1.000; stroke:none;" />
 <path d="  M 28,0  L 27,0  L 27,3  L 28,3  Z  " style="fill:rgb(237, 213, 140); fill-opacity:1.000; stroke:none;" />
 <path d="  M 28,4  L 27,4  L 27,7  L 28,7  Z  " style="fill:rgb(237, 213, 140); fill-opacity:1.000; stroke:none;" />
 <path d="  M 28,8  L 32,8  L 32,7  L 28,7  Z  " style="fill:rgb(237, 213, 140); fill-opacity:1.000; stroke:none;" />
 <path d="  M 28,23  L 28,24  L 29,24  L 29,23  Z  " style="fill:rgb(237, 213, 140); fill-opacity:1.000; stroke:none;" />
 <path d="  M 28,31  L 29,31  L 29,27  L 28,27  Z  " style="fill:rgb(237, 213, 140); fill-opacity:1.000; stroke:none;" />
 <path d="  M 32,23  L 30,23  L 30,24  L 32,24  Z  " style="fill:rgb(237, 213, 140); fill-opacity:1.000; stroke:none;" />
 <path d="  M 30,31  L 31,31  L 31,27  L 30,27  Z  " style="fill:rgb(237, 213, 140); fill-opacity:1.000; stroke:none;" />
 <path d="  M 2,9  L 3,9  L 3,8  L 0,8  L 0,9  L 1,9  L 1,10  L 2,10  Z  " style="fill:rgb(203, 172, 90); fill-opacity:1.000; stroke:none;" />
 <path d="  M 0,24  L 0,25  L 3,25  L 3,24  Z  " style="fill:rgb(203, 172, 90); fill-opacity:1.000; stroke:none;" />
 <path d="  M 2,7  L 2,6  L 1,6  L 1,7  Z  " style="fill:rgb(203, 172, 90); fill-opacity:1.000; stroke:none;" />
 <path d="  M 2,17  L 1,17  L 1,23  L 2,23  Z  " style="fill:rgb(203, 172, 90); fill-opacity:1.000; stroke:none;" />
 <path d="  M 3,7  L 4,7  L 4,6  L 3,6  Z  " style="fill:rgb(203, 172, 90); fill-opacity:1.000; stroke:none;" />
 <path d="  M 4,9  L 3,9  L 3,10  L 4,10  Z  " style="fill:rgb(203, 172, 90); fill-opacity:1.000; stroke:none;" />
 <path d="  M 4,17  L 3,17  L 3,23  L 4,23  Z  " style="fill:rgb(203, 172, 90); fill-opacity:1.000; stroke:none;" />
 <path d="  M 6,4  L 6,5  L 7,5  L 7,4  L 8,4  L 8,5  L 9,5  L 9,2  L 8,2  L 8,3  L 4,3  L 4,4  Z  " style="fill:rgb(203, 172, 90); fill-opacity:1.000; stroke:none;" />
 <path d="  M 4,8  L 9,8  L 9,6  L 8,6  L 8,7  L 4,7  Z  " style="fill:rgb(203, 172, 90); fill-opacity:1.000; stroke:none;" />
 <path d="  M 6,1  L 7,1  L 7,0  L 6,0  Z  " style="fill:rgb(203, 172, 90); fill-opacity:1.000; stroke:none;" />
 <path d="  M 8,0  L 8,1  L 9,1  L 9,0  Z  " style="fill:rgb(203, 172, 90); fill-opacity:1.000; stroke:none;" />
 <path d="  M 9,31  L 10,31  L 10,28  L 9,28  Z  " style="fill:rgb(203, 172, 90); fill-opacity:1.000; stroke:none;" />
 <path d="  M 12,3  L 12,2  L 11,2  L 11,0  L 10,0  L 10,3  L 11,3  L 11,4  L 14,4  L 14,5  L 15,5  L 15,4  L 21,4  L 21,3  L 14,3  L 14,2  L 13,2  L 13,3  Z  " style="fill:rgb(203, 172, 90); fill-opacity:1.000; stroke:none;" />
 <path d="  M 14,7  L 14,6  L 13,6  L 13,7  L 12,7  L 12,6  L 11,6  L 11,4  L 10,4  L 10,7  L 11,7  L 11,8  L 21,8  L 21,7  Z  " style="fill:rgb(203, 172, 90); fill-opacity:1.000; stroke:none;" />
 <path d="  M 11,30  L 17,30  L 17,29  L 11,29  Z  " style="fill:rgb(203, 172, 90); fill-opacity:1.000; stroke:none;" />
 <path d="  M 11,31  L 11,32  L 17,32  L 17,31  Z  " style="fill:rgb(203, 172, 90); fill-opacity:1.000; stroke:none;" />
 <path d="  M 12,1  L 12,2  L 13,2  L 13,1  Z  " style="fill:rgb(203, 172, 90); fill-opacity:1.000; stroke:none;" />
 <path d="  M 13,6  L 13,5  L 12,5  L 12,6  Z  " style="fill:rgb(203, 172, 90); fill-opacity:1.000; stroke:none;" />
 <path d="  M 15,0  L 14,0  L 14,1  L 15,1  Z  " style="fill:rgb(203, 172, 90); fill-opacity:1.000; stroke:none;" />
 <path d="  M 21,29  L 20,29  L 20,30  L 21,30  L 21,31  L 22,31  L 22,28  L 21,28  Z  " style="fill:rgb(203, 172, 90); fill-opacity:1.000; stroke:none;" />
 <path d="  M 21,32  L 21,31  L 20,31  L 20,32  Z  " style="fill:rgb(203, 172, 90); fill-opacity:1.000; stroke:none;" />
 <path d="  M 22,2  L 23,2  L 23,0  L 22,0  Z  " style="fill:rgb(203, 172, 90); fill-opacity:1.000; stroke:none;" />
 <path d="  M 23,6  L 23,4  L 22,4  L 22,6  Z  " style="fill:rgb(203, 172, 90); fill-opacity:1.000; stroke:none;" />
 <path d="  M 23,3  L 24,3  L 24,2  L 23,2  Z  " style="fill:rgb(203, 172, 90); fill-opacity:1.000; stroke:none;" />
 <path d="  M 23,7  L 24,7  L 24,6  L 23,6  Z  " style="fill:rgb(203, 172, 90); fill-opacity:1.000; stroke:none;" />
 <path d="  M 23,29  L 23,30  L 24,30  L 24,29  Z  " style="fill:rgb(203, 172, 90); fill-opacity:1.000; stroke:none;" />
 <path d="  M 23,31  L 23,32  L 24,32  L 24,31  Z  " style="fill:rgb(203, 172, 90); fill-opacity:1.000; stroke:none;" />
 <path d="  M 24,2  L 25,2  L 25,0  L 24,0  Z  " style="fill:rgb(203, 172, 90); fill-opacity:1.000; stroke:none;" />
 <path d="  M 25,4  L 24,4  L 24,6  L 25,6  Z  " style="fill:rgb(203, 172, 90); fill-opacity:1.000; stroke:none;" />
 <path d="  M 25,3  L 26,3  L 26,4  L 27,4  L 27,1  L 26,1  L 26,2  L 25,2  Z  " style="fill:rgb(203, 172, 90); fill-opacity:1.000; stroke:none;" />
 <path d="  M 27,5  L 26,5  L 26,6  L 25,6  L 25,7  L 26,7  L 26,8  L 27,8  Z  " style="fill:rgb(203, 172, 90); fill-opacity:1.000; stroke:none;" />
 <path d="  M 30,9  L 31,9  L 31,8  L 28,8  L 28,9  L 29,9  L 29,23  L 30,23  Z  " style="fill:rgb(203, 172, 90); fill-opacity:1.000; stroke:none;" />
 <path d="  M 30,25  L 31,25  L 31,24  L 28,24  L 28,25  L 29,25  L 29,26  L 30,26  Z  " style="fill:rgb(203, 172, 90); fill-opacity:1.000; stroke:none;" />
 <path d="  M 29,7  L 30,7  L 30,1  L 29,1  Z  " style="fill:rgb(203, 172, 90); fill-opacity:1.000; stroke:none;" />
 <path d="  M 32,1  L 31,1  L 31,7  L 32,7  Z  " style="fill:rgb(203, 172, 90); fill-opacity:1.000; stroke:none;" />
 <path d="  M 31,23  L 32,23  L 32,9  L 31,9  Z  " style="fill:rgb(203, 172, 90); fill-opacity:1.000; stroke:none;" />
 <path d="  M 31,25  L 31,26  L 32,26  L 32,25  Z  " style="fill:rgb(203, 172, 90); fill-opacity:1.000; stroke:none;" />
 <path d="  M 0,10  L 1,10  L 1,9  L 0,9  Z  " style="fill:rgb(211, 187, 80); fill-opacity:1.000; stroke:none;" />
 <path d="  M 1,22  L 0,22  L 0,23  L 1,23  Z  " style="fill:rgb(211, 187, 80); fill-opacity:1.000; stroke:none;" />
 <path d="  M 1,6  L 2,6  L 2,0  L 1,0  Z  " style="fill:rgb(211, 187, 80); fill-opacity:1.000; stroke:none;" />
 <path d="  M 1,17  L 2,17  L 2,10  L 1,10  Z  " style="fill:rgb(211, 187, 80); fill-opacity:1.000; stroke:none;" />
 <path d="  M 2,25  L 1,25  L 1,32  L 2,32  Z  " style="fill:rgb(211, 187, 80); fill-opacity:1.000; stroke:none;" />
 <path d="  M 3,10  L 3,9  L 2,9  L 2,10  Z  " style="fill:rgb(211, 187, 80); fill-opacity:1.000; stroke:none;" />
 <path d="  M 2,23  L 3,23  L 3,22  L 2,22  Z  " style="fill:rgb(211, 187, 80); fill-opacity:1.000; stroke:none;" />
 <path d="  M 3,0  L 3,6  L 4,6  L 4,0  Z  " style="fill:rgb(211, 187, 80); fill-opacity:1.000; stroke:none;" />
 <path d="  M 3,17  L 4,17  L 4,10  L 3,10  Z  " style="fill:rgb(211, 187, 80); fill-opacity:1.000; stroke:none;" />
 <path d="  M 4,29  L 4,25  L 3,25  L 3,32  L 9,32  L 9,31  L 4,31  L 4,30  L 9,30  L 9,29  Z  " style="fill:rgb(211, 187, 80); fill-opacity:1.000; stroke:none;" />
 <path d="  M 12,29  L 12,28  L 11,28  L 11,29  Z  " style="fill:rgb(211, 187, 80); fill-opacity:1.000; stroke:none;" />
 <path d="  M 12,31  L 12,30  L 11,30  L 11,31  Z  " style="fill:rgb(211, 187, 80); fill-opacity:1.000; stroke:none;" />
 <path d="  M 14,1  L 14,2  L 15,2  L 15,1  Z  " style="fill:rgb(211, 187, 80); fill-opacity:1.000; stroke:none;" />
 <path d="  M 14,6  L 15,6  L 15,5  L 14,5  Z  " style="fill:rgb(211, 187, 80); fill-opacity:1.000; stroke:none;" />
 <path d="  M 16,2  L 17,2  L 17,0  L 16,0  Z  " style="fill:rgb(211, 187, 80); fill-opacity:1.000; stroke:none;" />
 <path d="  M 17,4  L 16,4  L 16,6  L 17,6  Z  " style="fill:rgb(211, 187, 80); fill-opacity:1.000; stroke:none;" />
 <path d="  M 18,2  L 17,2  L 17,3  L 19,3  L 19,1  L 18,1  Z  " style="fill:rgb(211, 187, 80); fill-opacity:1.000; stroke:none;" />
 <path d="  M 19,7  L 19,5  L 18,5  L 18,6  L 17,6  L 17,7  Z  " style="fill:rgb(211, 187, 80); fill-opacity:1.000; stroke:none;" />
 <path d="  M 17,29  L 17,30  L 20,30  L 20,29  Z  " style="fill:rgb(211, 187, 80); fill-opacity:1.000; stroke:none;" />
 <path d="  M 17,32  L 20,32  L 20,31  L 17,31  Z  " style="fill:rgb(211, 187, 80); fill-opacity:1.000; stroke:none;" />
 <path d="  M 20,2  L 21,2  L 21,1  L 20,1  Z  " style="fill:rgb(211, 187, 80); fill-opacity:1.000; stroke:none;" />
 <path d="  M 21,5  L 20,5  L 20,6  L 21,6  Z  " style="fill:rgb(211, 187, 80); fill-opacity:1.000; stroke:none;" />
 <path d="  M 21,29  L 21,28  L 20,28  L 20,29  Z  " style="fill:rgb(211, 187, 80); fill-opacity:1.000; stroke:none;" />
 <path d="  M 21,30  L 20,30  L 20,31  L 21,31  Z  " style="fill:rgb(211, 187, 80); fill-opacity:1.000; stroke:none;" />
 <path d="  M 26,4  L 26,3  L 23,3  L 23,4  Z  " style="fill:rgb(211, 187, 80); fill-opacity:1.000; stroke:none;" />
 <path d="  M 23,7  L 23,8  L 26,8  L 26,7  Z  " style="fill:rgb(211, 187, 80); fill-opacity:1.000; stroke:none;" />
 <path d="  M 24,29  L 24,30  L 28,30  L 28,29  Z  " style="fill:rgb(211, 187, 80); fill-opacity:1.000; stroke:none;" />
 <path d="  M 24,31  L 24,32  L 28,32  L 28,31  Z  " style="fill:rgb(211, 187, 80); fill-opacity:1.000; stroke:none;" />
 <path d="  M 28,4  L 28,3  L 27,3  L 27,4  Z  " style="fill:rgb(211, 187, 80); fill-opacity:1.000; stroke:none;" />
 <path d="  M 27,7  L 27,8  L 28,8  L 28,7  Z  " style="fill:rgb(211, 187, 80); fill-opacity:1.000; stroke:none;" />
 <path d="  M 28,7  L 29,7  L 29,6  L 28,6  Z  " style="fill:rgb(211, 187, 80); fill-opacity:1.000; stroke:none;" />
 <path d="  M 29,11  L 29,9  L 28,9  L 28,11  Z  " style="fill:rgb(211, 187, 80); fill-opacity:1.000; stroke:none;" />
 <path d="  M 29,23  L 29,20  L 28,20  L 28,23  Z  " style="fill:rgb(211, 187, 80); fill-opacity:1.000; stroke:none;" />
 <path d="  M 29,0  L 29,1  L 30,1  L 30,0  Z  " style="fill:rgb(211, 187, 80); fill-opacity:1.000; stroke:none;" />
 <path d="  M 29,32  L 30,32  L 30,26  L 29,26  Z  " style="fill:rgb(211, 187, 80); fill-opacity:1.000; stroke:none;" />
 <path d="  M 30,6  L 30,7  L 31,7  L 31,6  Z  " style="fill:rgb(211, 187, 80); fill-opacity:1.000; stroke:none;" />
 <path d="  M 30,11  L 31,11  L 31,9  L 30,9  Z  " style="fill:rgb(211, 187, 80); fill-opacity:1.000; stroke:none;" />
 <path d="  M 31,20  L 30,20  L 30,23  L 31,23  Z  " style="fill:rgb(211, 187, 80); fill-opacity:1.000; stroke:none;" />
 <path d="  M 31,1  L 32,1  L 32,0  L 31,0  Z  " style="fill:rgb(211, 187, 80); fill-opacity:1.000; stroke:none;" />
 <path d="  M 31,32  L 32,32  L 32,26  L 31,26  Z  " style="fill:rgb(211, 187, 80); fill-opacity:1.000; stroke:none;" />
 <path d="  M 0,23  L 0,24  L 1,24  L 1,23  Z  " style="fill:rgb(242, 232, 166); fill-opacity:1.000; stroke:none;" />
 <path d="  M 2,7  L 1,7  L 1,8  L 2,8  Z  " style="fill:rgb(242, 232, 166); fill-opacity:1.000; stroke:none;" />
 <path d="  M 11,29  L 11,28  L 10,28  L 10,29  Z  " style="fill:rgb(242, 232, 166); fill-opacity:1.000; stroke:none;" />
 <path d="  M 23,30  L 23,29  L 22,29  L 22,30  Z  " style="fill:rgb(242, 232, 166); fill-opacity:1.000; stroke:none;" />
 <path d="  M 29,23  L 29,24  L 30,24  L 30,23  Z  " style="fill:rgb(242, 232, 166); fill-opacity:1.000; stroke:none;" />
 <path d="  M 3,9  L 4,9  L 4,8  L 3,8  Z  " style="fill:rgb(162, 137, 74); fill-opacity:1.000; stroke:none;" />
 <path d="  M 3,24  L 3,25  L 4,25  L 4,24  Z  " style="fill:rgb(162, 137, 74); fill-opacity:1.000; stroke:none;" />
 <path d="  M 9,32  L 10,32  L 10,31  L 9,31  Z  " style="fill:rgb(162, 137, 74); fill-opacity:1.000; stroke:none;" />
 <path d="  M 11,3  L 10,3  L 10,4  L 11,4  Z  " style="fill:rgb(162, 137, 74); fill-opacity:1.000; stroke:none;" />
 <path d="  M 10,7  L 10,8  L 11,8  L 11,7  Z  " style="fill:rgb(162, 137, 74); fill-opacity:1.000; stroke:none;" />
 <path d="  M 21,31  L 21,32  L 22,32  L 22,31  Z  " style="fill:rgb(162, 137, 74); fill-opacity:1.000; stroke:none;" />
 <path d="  M 22,4  L 23,4  L 23,3  L 22,3  Z  " style="fill:rgb(162, 137, 74); fill-opacity:1.000; stroke:none;" />
 <path d="  M 23,7  L 22,7  L 22,8  L 23,8  Z  " style="fill:rgb(162, 137, 74); fill-opacity:1.000; stroke:none;" />
 <path d="  M 31,8  L 31,9  L 32,9  L 32,8  Z  " style="fill:rgb(162, 137, 74); fill-opacity:1.000; stroke:none;" />
 <path d="  M 32,24  L 31,24  L 31,25  L 32,25  Z  " style="fill:rgb(162, 137, 74); fill-opacity:1.000; stroke:none;" />
 <path d="  M 7,2  L 8,2  L 8,0  L 7,0  Z  " style="fill:rgb(123, 87, 53); fill-opacity:1.000; stroke:none;" />
 <path d="  M 8,6  L 8,4  L 7,4  L 7,6  Z  " style="fill:rgb(123, 87, 53); fill-opacity:1.000; stroke:none;" />
 <path d="  M 10,1  L 10,0  L 9,0  L 9,1  Z  " style="fill:rgb(123, 87, 53); fill-opacity:1.000; stroke:none;" />
 <path d="  M 9,4  L 9,5  L 10,5  L 10,4  Z  " style="fill:rgb(123, 87, 53); fill-opacity:1.000; stroke:none;" />
 <path d="  M 12,0  L 11,0  L 11,2  L 12,2  Z  " style="fill:rgb(123, 87, 53); fill-opacity:1.000; stroke:none;" />
 <path d="  M 11,4  L 11,6  L 12,6  L 12,4  Z  " style="fill:rgb(123, 87, 53); fill-opacity:1.000; stroke:none;" />
 <path d="  M 13,2  L 14,2  L 14,0  L 13,0  Z  " style="fill:rgb(123, 87, 53); fill-opacity:1.000; stroke:none;" />
 <path d="  M 13,4  L 13,6  L 14,6  L 14,4  Z  " style="fill:rgb(123, 87, 53); fill-opacity:1.000; stroke:none;" />
 <path d="  M 16,1  L 16,0  L 15,0  L 15,1  Z  " style="fill:rgb(123, 87, 53); fill-opacity:1.000; stroke:none;" />
 <path d="  M 16,5  L 16,4  L 15,4  L 15,5  Z  " style="fill:rgb(123, 87, 53); fill-opacity:1.000; stroke:none;" />
 <path d="  M 17,0  L 17,1  L 18,1  L 18,0  Z  " style="fill:rgb(123, 87, 53); fill-opacity:1.000; stroke:none;" />
 <path d="  M 18,4  L 17,4  L 17,5  L 18,5  Z  " style="fill:rgb(123, 87, 53); fill-opacity:1.000; stroke:none;" />
 <path d="  M 19,2  L 20,2  L 20,0  L 19,0  Z  " style="fill:rgb(123, 87, 53); fill-opacity:1.000; stroke:none;" />
 <path d="  M 19,4  L 19,6  L 20,6  L 20,4  Z  " style="fill:rgb(123, 87, 53); fill-opacity:1.000; stroke:none;" />
 <path d="  M 21,1  L 22,1  L 22,0  L 21,0  Z  " style="fill:rgb(123, 87, 53); fill-opacity:1.000; stroke:none;" />
 <path d="  M 21,4  L 21,5  L 22,5  L 22,4  Z  " style="fill:rgb(123, 87, 53); fill-opacity:1.000; stroke:none;" />
 <path d="  M 24,2  L 24,0  L 23,0  L 23,2  Z  " style="fill:rgb(123, 87, 53); fill-opacity:1.000; stroke:none;" />
 <path d="  M 24,6  L 24,4  L 23,4  L 23,6  Z  " style="fill:rgb(123, 87, 53); fill-opacity:1.000; stroke:none;" />
 <path d="  M 26,1  L 26,0  L 25,0  L 25,1  Z  " style="fill:rgb(123, 87, 53); fill-opacity:1.000; stroke:none;" />
 <path d="  M 26,5  L 26,4  L 25,4  L 25,5  Z  " style="fill:rgb(123, 87, 53); fill-opacity:1.000; stroke:none;" />
 <path d="  M 9,2  L 10,2  L 10,1  L 9,1  Z  " style="fill:rgb(140, 104, 71); fill-opacity:1.000; stroke:none;" />
 <path d="  M 9,6  L 10,6  L 10,5  L 9,5  Z  " style="fill:rgb(140, 104, 71); fill-opacity:1.000; stroke:none;" />
 <path d="  M 16,2  L 16,1  L 15,1  L 15,2  Z  " style="fill:rgb(140, 104, 71); fill-opacity:1.000; stroke:none;" />
 <path d="  M 16,5  L 15,5  L 15,6  L 16,6  Z  " style="fill:rgb(140, 104, 71); fill-opacity:1.000; stroke:none;" />
 <path d="  M 18,2  L 18,1  L 17,1  L 17,2  Z  " style="fill:rgb(140, 104, 71); fill-opacity:1.000; stroke:none;" />
 <path d="  M 17,6  L 18,6  L 18,5  L 17,5  Z  " style="fill:rgb(140, 104, 71); fill-opacity:1.000; stroke:none;" />
 <path d="  M 22,2  L 22,1  L 21,1  L 21,2  Z  " style="fill:rgb(140, 104, 71); fill-opacity:1.000; stroke:none;" />
 <path d="  M 22,5  L 21,5  L 21,6  L 22,6  Z  " style="fill:rgb(140, 104, 71); fill-opacity:1.000; stroke:none;" />
 <path d="  M 25,1  L 25,2  L 26,2  L 26,1  Z  " style="fill:rgb(140, 104, 71); fill-opacity:1.000; stroke:none;" />
 <path d="  M 25,5  L 25,6  L 26,6  L 26,5  Z  " style="fill:rgb(140, 104, 71); fill-opacity:1.000; stroke:none;" />
</svg>
