<?xml version="1.0" encoding="UTF-8" standalone="no"?>
<!DOCTYPE svg PUBLIC "-//W3C//DTD SVG 1.1//EN" 
  "http://www.w3.org/Graphics/SVG/1.1/DTD/svg11.dtd">
<svg width="32" height="32"
	 xmlns="http://www.w3.org/2000/svg" version="1.1">
 <path d="  M 2,17  L 2,16  L 0,16  L 0,20  L 1,20  L 1,18  L 2,18  L 2,19  L 3,19  L 3,17  Z  " style="fill:rgb(3, 65, 80); fill-opacity:1.000; stroke:none;" />
 <path d="  M 3,20  L 3,21  L 4,21  L 4,20  Z  " style="fill:rgb(3, 65, 80); fill-opacity:1.000; stroke:none;" />
 <path d="  M 5,19  L 5,18  L 4,18  L 4,19  Z  " style="fill:rgb(3, 65, 80); fill-opacity:1.000; stroke:none;" />
 <path d="  M 6,17  L 5,17  L 5,18  L 6,18  Z  " style="fill:rgb(3, 65, 80); fill-opacity:1.000; stroke:none;" />
 <path d="  M 8,17  L 7,17  L 7,18  L 8,18  Z  " style="fill:rgb(3, 65, 80); fill-opacity:1.000; stroke:none;" />
 <path d="  M 8,17  L 9,17  L 9,16  L 8,16  Z  " style="fill:rgb(3, 65, 80); fill-opacity:1.000; stroke:none;" />
 <path d="  M 9,24  L 9,23  L 8,23  L 8,24  Z  " style="fill:rgb(3, 65, 80); fill-opacity:1.000; stroke:none;" />
 <path d="  M 9,18  L 10,18  L 10,17  L 9,17  Z  " style="fill:rgb(3, 65, 80); fill-opacity:1.000; stroke:none;" />
 <path d="  M 11,17  L 11,18  L 15,18  L 15,19  L 16,19  L 16,20  L 17,20  L 17,19  L 19,19  L 19,18  L 16,18  L 16,17  L 14,17  L 14,16  L 12,16  L 12,17  Z  " style="fill:rgb(3, 65, 80); fill-opacity:1.000; stroke:none;" />
 <path d="  M 20,16  L 20,17  L 19,17  L 19,18  L 21,18  L 21,16  Z  " style="fill:rgb(3, 65, 80); fill-opacity:1.000; stroke:none;" />
 <path d="  M 19,27  L 20,27  L 20,26  L 19,26  Z  " style="fill:rgb(3, 65, 80); fill-opacity:1.000; stroke:none;" />
 <path d="  M 26,18  L 26,16  L 22,16  L 22,17  L 23,17  L 23,18  Z  " style="fill:rgb(3, 65, 80); fill-opacity:1.000; stroke:none;" />
 <path d="  M 28,20  L 27,20  L 27,21  L 28,21  Z  " style="fill:rgb(3, 65, 80); fill-opacity:1.000; stroke:none;" />
 <path d="  M 28,18  L 29,18  L 29,19  L 30,19  L 30,18  L 31,18  L 31,19  L 32,19  L 32,16  L 30,16  L 30,17  L 29,17  L 29,16  L 28,16  Z  " style="fill:rgb(3, 65, 80); fill-opacity:1.000; stroke:none;" />
 <path d="  M 2,19  L 2,18  L 1,18  L 1,20  L 0,20  L 0,22  L 1,22  L 1,23  L 2,23  L 2,22  L 4,22  L 4,21  L 5,21  L 5,22  L 6,22  L 6,21  L 8,21  L 8,22  L 10,22  L 10,21  L 11,21  L 11,22  L 12,22  L 12,21  L 13,21  L 13,22  L 14,22  L 14,21  L 15,21  L 15,20  L 16,20  L 16,19  L 15,19  L 15,18  L 12,18  L 12,19  L 11,19  L 11,20  L 10,20  L 10,18  L 9,18  L 9,17  L 8,17  L 8,18  L 6,18  L 6,19  L 4,19  L 4,18  L 3,18  L 3,19  Z  M 4,21  L 3,21  L 3,20  L 4,20  Z  " style="fill:rgb(6, 46, 55); fill-opacity:1.000; stroke:none;" />
 <path d="  M 7,22  L 7,23  L 8,23  L 8,22  Z  " style="fill:rgb(6, 46, 55); fill-opacity:1.000; stroke:none;" />
 <path d="  M 11,23  L 10,23  L 10,24  L 11,24  Z  " style="fill:rgb(6, 46, 55); fill-opacity:1.000; stroke:none;" />
 <path d="  M 15,23  L 15,22  L 14,22  L 14,23  Z  " style="fill:rgb(6, 46, 55); fill-opacity:1.000; stroke:none;" />
 <path d="  M 16,20  L 16,21  L 17,21  L 17,20  Z  " style="fill:rgb(6, 46, 55); fill-opacity:1.000; stroke:none;" />
 <path d="  M 17,19  L 17,20  L 19,20  L 19,19  Z  " style="fill:rgb(6, 46, 55); fill-opacity:1.000; stroke:none;" />
 <path d="  M 23,17  L 21,17  L 21,18  L 19,18  L 19,19  L 20,19  L 20,20  L 21,20  L 21,21  L 23,21  L 23,22  L 24,22  L 24,21  L 25,21  L 25,22  L 28,22  L 28,21  L 30,21  L 30,22  L 32,22  L 32,19  L 31,19  L 31,18  L 30,18  L 30,19  L 29,19  L 29,18  L 27,18  L 27,17  L 26,17  L 26,18  L 23,18  Z  M 27,20  L 28,20  L 28,21  L 27,21  Z  " style="fill:rgb(6, 46, 55); fill-opacity:1.000; stroke:none;" />
 <path d="  M 19,21  L 19,22  L 20,22  L 20,21  Z  " style="fill:rgb(6, 46, 55); fill-opacity:1.000; stroke:none;" />
 <path d="  M 25,23  L 25,22  L 24,22  L 24,23  Z  " style="fill:rgb(6, 46, 55); fill-opacity:1.000; stroke:none;" />
 <path d="  M 2,24  L 2,25  L 3,25  L 3,24  L 4,24  L 4,25  L 5,25  L 5,26  L 7,26  L 7,25  L 9,25  L 9,24  L 8,24  L 8,23  L 7,23  L 7,22  L 4,22  L 4,23  L 3,23  L 3,22  L 2,22  L 2,23  L 1,23  L 1,22  L 0,22  L 0,25  L 1,25  L 1,24  Z  M 6,25  L 6,24  L 7,24  L 7,25  Z  M 5,24  L 5,23  L 6,23  L 6,24  Z  " style="fill:rgb(17, 27, 33); fill-opacity:1.000; stroke:none;" />
 <path d="  M 5,26  L 4,26  L 4,27  L 5,27  Z  " style="fill:rgb(17, 27, 33); fill-opacity:1.000; stroke:none;" />
 <path d="  M 8,26  L 7,26  L 7,27  L 8,27  Z  " style="fill:rgb(17, 27, 33); fill-opacity:1.000; stroke:none;" />
 <path d="  M 11,25  L 12,25  L 12,24  L 11,24  Z  " style="fill:rgb(17, 27, 33); fill-opacity:1.000; stroke:none;" />
 <path d="  M 26,25  L 26,24  L 29,24  L 29,25  L 30,25  L 30,26  L 31,26  L 31,25  L 32,25  L 32,24  L 31,24  L 31,23  L 30,23  L 30,22  L 28,22  L 28,23  L 26,23  L 26,22  L 25,22  L 25,23  L 24,23  L 24,24  L 23,24  L 23,23  L 22,23  L 22,22  L 18,22  L 18,23  L 16,23  L 16,22  L 15,22  L 15,23  L 13,23  L 13,24  L 15,24  L 15,25  L 17,25  L 17,24  L 19,24  L 19,25  L 21,25  L 21,26  L 22,26  L 22,27  L 24,27  L 24,26  L 25,26  L 25,25  Z  M 24,26  L 23,26  L 23,25  L 24,25  Z  " style="fill:rgb(17, 27, 33); fill-opacity:1.000; stroke:none;" />
 <path d="  M 14,25  L 14,26  L 15,26  L 15,25  Z  " style="fill:rgb(17, 27, 33); fill-opacity:1.000; stroke:none;" />
 <path d="  M 20,27  L 21,27  L 21,26  L 20,26  Z  " style="fill:rgb(17, 27, 33); fill-opacity:1.000; stroke:none;" />
 <path d="  M 26,27  L 26,26  L 25,26  L 25,27  Z  " style="fill:rgb(17, 27, 33); fill-opacity:1.000; stroke:none;" />
 <path d="  M 29,26  L 29,25  L 28,25  L 28,26  Z  " style="fill:rgb(17, 27, 33); fill-opacity:1.000; stroke:none;" />
 <path d="  M 13,29  L 14,29  L 14,30  L 13,30  Z  M 32,32  L 32,25  L 31,25  L 31,26  L 30,26  L 30,25  L 29,25  L 29,24  L 26,24  L 26,25  L 25,25  L 25,26  L 24,26  L 24,27  L 22,27  L 22,26  L 21,26  L 21,25  L 19,25  L 19,24  L 17,24  L 17,25  L 15,25  L 15,24  L 12,24  L 12,25  L 11,25  L 11,24  L 9,24  L 9,25  L 7,25  L 7,26  L 5,26  L 5,25  L 4,25  L 4,24  L 3,24  L 3,25  L 2,25  L 2,24  L 1,24  L 1,25  L 0,25  L 0,32  Z  M 4,26  L 5,26  L 5,27  L 4,27  Z  M 18,26  L 18,27  L 17,27  L 17,26  Z  M 7,27  L 7,26  L 8,26  L 8,27  Z  M 12,27  L 11,27  L 11,26  L 12,26  Z  M 22,28  L 23,28  L 23,29  L 22,29  Z  M 15,26  L 14,26  L 14,25  L 15,25  Z  M 30,27  L 30,28  L 29,28  L 29,27  Z  M 26,27  L 25,27  L 25,26  L 26,26  Z  M 21,27  L 19,27  L 19,26  L 21,26  Z  M 19,28  L 19,29  L 18,29  L 18,28  Z  M 4,29  L 4,28  L 5,28  L 5,29  Z  M 28,27  L 27,27  L 27,26  L 28,26  Z  M 7,30  L 7,29  L 8,29  L 8,30  Z  M 1,27  L 2,27  L 2,28  L 1,28  Z  M 29,26  L 28,26  L 28,25  L 29,25  Z  " style="fill:rgb(13, 18, 23); fill-opacity:1.000; stroke:none;" />
 <path d="  M 7,24  L 6,24  L 6,25  L 7,25  Z  " style="fill:rgb(13, 18, 23); fill-opacity:1.000; stroke:none;" />
 <path d="  M 24,26  L 24,25  L 23,25  L 23,26  Z  " style="fill:rgb(13, 18, 23); fill-opacity:1.000; stroke:none;" />
 <path d="  M 1,28  L 2,28  L 2,27  L 1,27  Z  " style="fill:rgb(11, 33, 42); fill-opacity:1.000; stroke:none;" />
 <path d="  M 4,22  L 3,22  L 3,23  L 4,23  Z  " style="fill:rgb(11, 33, 42); fill-opacity:1.000; stroke:none;" />
 <path d="  M 4,21  L 4,22  L 5,22  L 5,21  Z  " style="fill:rgb(11, 33, 42); fill-opacity:1.000; stroke:none;" />
 <path d="  M 4,28  L 4,29  L 5,29  L 5,28  Z  " style="fill:rgb(11, 33, 42); fill-opacity:1.000; stroke:none;" />
 <path d="  M 5,24  L 6,24  L 6,23  L 5,23  Z  " style="fill:rgb(11, 33, 42); fill-opacity:1.000; stroke:none;" />
 <path d="  M 6,22  L 8,22  L 8,21  L 6,21  Z  " style="fill:rgb(11, 33, 42); fill-opacity:1.000; stroke:none;" />
 <path d="  M 8,30  L 8,29  L 7,29  L 7,30  Z  " style="fill:rgb(11, 33, 42); fill-opacity:1.000; stroke:none;" />
 <path d="  M 10,21  L 10,22  L 8,22  L 8,23  L 9,23  L 9,24  L 10,24  L 10,23  L 11,23  L 11,24  L 13,24  L 13,23  L 14,23  L 14,22  L 13,22  L 13,21  L 12,21  L 12,22  L 11,22  L 11,21  Z  " style="fill:rgb(11, 33, 42); fill-opacity:1.000; stroke:none;" />
 <path d="  M 12,26  L 11,26  L 11,27  L 12,27  Z  " style="fill:rgb(11, 33, 42); fill-opacity:1.000; stroke:none;" />
 <path d="  M 20,21  L 20,22  L 22,22  L 22,23  L 23,23  L 23,24  L 24,24  L 24,22  L 23,22  L 23,21  L 21,21  L 21,20  L 17,20  L 17,21  L 16,21  L 16,20  L 15,20  L 15,21  L 14,21  L 14,22  L 16,22  L 16,23  L 18,23  L 18,22  L 19,22  L 19,21  Z  " style="fill:rgb(11, 33, 42); fill-opacity:1.000; stroke:none;" />
 <path d="  M 18,27  L 18,26  L 17,26  L 17,27  Z  " style="fill:rgb(11, 33, 42); fill-opacity:1.000; stroke:none;" />
 <path d="  M 19,29  L 19,28  L 18,28  L 18,29  Z  " style="fill:rgb(11, 33, 42); fill-opacity:1.000; stroke:none;" />
 <path d="  M 23,29  L 23,28  L 22,28  L 22,29  Z  " style="fill:rgb(11, 33, 42); fill-opacity:1.000; stroke:none;" />
 <path d="  M 24,21  L 24,22  L 25,22  L 25,21  Z  " style="fill:rgb(11, 33, 42); fill-opacity:1.000; stroke:none;" />
 <path d="  M 28,23  L 28,22  L 26,22  L 26,23  Z  " style="fill:rgb(11, 33, 42); fill-opacity:1.000; stroke:none;" />
 <path d="  M 27,27  L 28,27  L 28,26  L 27,26  Z  " style="fill:rgb(11, 33, 42); fill-opacity:1.000; stroke:none;" />
 <path d="  M 28,21  L 28,22  L 30,22  L 30,21  Z  " style="fill:rgb(11, 33, 42); fill-opacity:1.000; stroke:none;" />
 <path d="  M 30,23  L 31,23  L 31,24  L 32,24  L 32,22  L 30,22  Z  " style="fill:rgb(11, 33, 42); fill-opacity:1.000; stroke:none;" />
 <path d="  M 8,16  L 2,16  L 2,17  L 3,17  L 3,18  L 5,18  L 5,17  L 6,17  L 6,18  L 7,18  L 7,17  L 8,17  Z  " style="fill:rgb(7, 72, 87); fill-opacity:1.000; stroke:none;" />
 <path d="  M 6,19  L 6,18  L 5,18  L 5,19  Z  " style="fill:rgb(7, 72, 87); fill-opacity:1.000; stroke:none;" />
 <path d="  M 10,17  L 10,20  L 11,20  L 11,19  L 12,19  L 12,18  L 11,18  L 11,17  L 12,17  L 12,16  L 9,16  L 9,17  Z  " style="fill:rgb(7, 72, 87); fill-opacity:1.000; stroke:none;" />
 <path d="  M 14,16  L 14,17  L 16,17  L 16,18  L 19,18  L 19,17  L 20,17  L 20,16  Z  " style="fill:rgb(7, 72, 87); fill-opacity:1.000; stroke:none;" />
 <path d="  M 21,16  L 21,17  L 22,17  L 22,16  Z  " style="fill:rgb(7, 72, 87); fill-opacity:1.000; stroke:none;" />
 <path d="  M 27,17  L 27,18  L 28,18  L 28,16  L 26,16  L 26,17  Z  " style="fill:rgb(7, 72, 87); fill-opacity:1.000; stroke:none;" />
 <path d="  M 30,16  L 29,16  L 29,17  L 30,17  Z  " style="fill:rgb(7, 72, 87); fill-opacity:1.000; stroke:none;" />
 <path d="  M 13,29  L 13,30  L 14,30  L 14,29  Z  " style="fill:rgb(0, 146, 149); fill-opacity:1.000; stroke:none;" />
 <path d="  M 20,19  L 19,19  L 19,20  L 20,20  Z  " style="fill:rgb(0, 146, 149); fill-opacity:1.000; stroke:none;" />
 <path d="  M 29,28  L 30,28  L 30,27  L 29,27  Z  " style="fill:rgb(41, 223, 235); fill-opacity:1.000; stroke:none;" />
</svg>
