<?xml version="1.0" encoding="UTF-8" standalone="no"?>
<!DOCTYPE svg PUBLIC "-//W3C//DTD SVG 1.1//EN" 
  "http://www.w3.org/Graphics/SVG/1.1/DTD/svg11.dtd">
<svg width="32" height="32"
	 xmlns="http://www.w3.org/2000/svg" version="1.1">
 <path d="  M 1,1  L 1,0  L 0,0  L 0,1  Z  " style="fill:rgb(3, 65, 80); fill-opacity:1.000; stroke:none;" />
 <path d="  M 3,0  L 3,1  L 5,1  L 5,3  L 4,3  L 4,4  L 5,4  L 5,5  L 4,5  L 4,6  L 3,6  L 3,8  L 2,8  L 2,7  L 1,7  L 1,8  L 0,8  L 0,17  L 1,17  L 1,18  L 0,18  L 0,22  L 1,22  L 1,23  L 2,23  L 2,22  L 3,22  L 3,21  L 1,21  L 1,20  L 2,20  L 2,19  L 3,19  L 3,20  L 4,20  L 4,19  L 5,19  L 5,20  L 7,20  L 7,19  L 8,19  L 8,21  L 9,21  L 9,22  L 8,22  L 8,24  L 7,24  L 7,26  L 8,26  L 8,27  L 9,27  L 9,28  L 8,28  L 8,30  L 7,30  L 7,31  L 6,31  L 6,32  L 11,32  L 11,31  L 12,31  L 12,29  L 11,29  L 11,27  L 10,27  L 10,26  L 11,26  L 11,25  L 12,25  L 12,24  L 13,24  L 13,23  L 15,23  L 15,24  L 16,24  L 16,25  L 15,25  L 15,26  L 14,26  L 14,27  L 15,27  L 15,28  L 16,28  L 16,27  L 17,27  L 17,26  L 18,26  L 18,23  L 17,23  L 17,21  L 18,21  L 18,19  L 19,19  L 19,17  L 20,17  L 20,16  L 21,16  L 21,15  L 22,15  L 22,14  L 24,14  L 24,13  L 26,13  L 26,12  L 27,12  L 27,11  L 28,11  L 28,12  L 30,12  L 30,13  L 29,13  L 29,14  L 28,14  L 28,16  L 29,16  L 29,17  L 30,17  L 30,18  L 31,18  L 31,19  L 32,19  L 32,7  L 31,7  L 31,8  L 30,8  L 30,7  L 29,7  L 29,5  L 28,5  L 28,4  L 30,4  L 30,3  L 31,3  L 31,2  L 32,2  L 32,0  L 24,0  L 24,2  L 23,2  L 23,4  L 22,4  L 22,5  L 20,5  L 20,6  L 19,6  L 19,5  L 18,5  L 18,7  L 17,7  L 17,8  L 16,8  L 16,11  L 15,11  L 15,13  L 14,13  L 14,14  L 15,14  L 15,16  L 14,16  L 14,15  L 13,15  L 13,16  L 12,16  L 12,17  L 10,17  L 10,18  L 9,18  L 9,17  L 8,17  L 8,16  L 10,16  L 10,15  L 11,15  L 11,14  L 10,14  L 10,13  L 9,13  L 9,12  L 7,12  L 7,11  L 6,11  L 6,9  L 7,9  L 7,7  L 8,7  L 8,8  L 10,8  L 10,7  L 9,7  L 9,6  L 10,6  L 10,5  L 9,5  L 9,4  L 7,4  L 7,3  L 6,3  L 6,2  L 7,2  L 7,1  L 6,1  L 6,0  Z  M 7,12  L 7,13  L 6,13  L 6,12  Z  M 8,31  L 8,30  L 9,30  L 9,31  Z  M 7,6  L 6,6  L 6,5  L 7,5  Z  M 9,20  L 10,20  L 10,21  L 9,21  Z  M 9,24  L 9,25  L 8,25  L 8,24  Z  M 20,9  L 22,9  L 22,8  L 23,8  L 23,9  L 25,9  L 25,8  L 27,8  L 27,9  L 28,9  L 28,10  L 25,10  L 25,11  L 23,11  L 23,13  L 22,13  L 22,12  L 21,12  L 21,13  L 20,13  L 20,14  L 19,14  L 19,12  L 18,12  L 18,11  L 19,11  L 19,10  L 20,10  Z  M 17,12  L 16,12  L 16,11  L 17,11  Z  M 28,8  L 27,8  L 27,7  L 28,7  Z  M 11,18  L 11,19  L 10,19  L 10,18  Z  M 14,18  L 15,18  L 15,19  L 14,19  Z  M 20,8  L 19,8  L 19,7  L 20,7  Z  M 5,8  L 6,8  L 6,9  L 5,9  Z  M 26,5  L 25,5  L 25,4  L 26,4  Z  M 18,9  L 19,9  L 19,10  L 18,10  Z  M 29,14  L 30,14  L 30,15  L 29,15  Z  M 22,6  L 22,5  L 23,5  L 23,6  Z  M 13,23  L 11,23  L 11,22  L 13,22  Z  M 24,7  L 25,7  L 25,8  L 24,8  Z  M 5,17  L 4,17  L 4,16  L 5,16  Z  M 10,29  L 10,30  L 9,30  L 9,29  Z  M 9,13  L 9,14  L 8,14  L 8,13  Z  M 11,25  L 10,25  L 10,24  L 11,24  Z  M 17,19  L 17,18  L 18,18  L 18,19  Z  M 25,2  L 25,3  L 24,3  L 24,2  Z  M 12,17  L 13,17  L 13,18  L 12,18  Z  M 19,15  L 20,15  L 20,16  L 19,16  Z  M 15,22  L 16,22  L 16,23  L 15,23  Z  M 27,6  L 27,5  L 28,5  L 28,6  Z  M 29,2  L 30,2  L 30,3  L 29,3  Z  M 4,10  L 3,10  L 3,9  L 4,9  Z  " style="fill:rgb(3, 65, 80); fill-opacity:1.000; stroke:none;" />
 <path d="  M 0,23  L 0,24  L 1,24  L 1,23  Z  " style="fill:rgb(3, 65, 80); fill-opacity:1.000; stroke:none;" />
 <path d="  M 4,25  L 4,26  L 2,26  L 2,25  L 0,25  L 0,32  L 3,32  L 3,31  L 4,31  L 4,30  L 5,30  L 5,27  L 6,27  L 6,26  L 5,26  L 5,25  Z  M 4,30  L 3,30  L 3,29  L 4,29  Z  M 3,28  L 3,27  L 4,27  L 4,28  Z  " style="fill:rgb(3, 65, 80); fill-opacity:1.000; stroke:none;" />
 <path d="  M 2,2  L 2,1  L 1,1  L 1,2  Z  " style="fill:rgb(3, 65, 80); fill-opacity:1.000; stroke:none;" />
 <path d="  M 1,6  L 2,6  L 2,5  L 1,5  Z  " style="fill:rgb(3, 65, 80); fill-opacity:1.000; stroke:none;" />
 <path d="  M 4,5  L 4,4  L 3,4  L 3,5  Z  " style="fill:rgb(3, 65, 80); fill-opacity:1.000; stroke:none;" />
 <path d="  M 5,20  L 4,20  L 4,21  L 5,21  Z  " style="fill:rgb(3, 65, 80); fill-opacity:1.000; stroke:none;" />
 <path d="  M 5,32  L 5,31  L 4,31  L 4,32  Z  " style="fill:rgb(3, 65, 80); fill-opacity:1.000; stroke:none;" />
 <path d="  M 8,1  L 8,0  L 7,0  L 7,1  Z  " style="fill:rgb(3, 65, 80); fill-opacity:1.000; stroke:none;" />
 <path d="  M 8,22  L 8,21  L 7,21  L 7,22  Z  " style="fill:rgb(3, 65, 80); fill-opacity:1.000; stroke:none;" />
 <path d="  M 7,28  L 8,28  L 8,27  L 7,27  Z  " style="fill:rgb(3, 65, 80); fill-opacity:1.000; stroke:none;" />
 <path d="  M 10,7  L 11,7  L 11,6  L 10,6  Z  " style="fill:rgb(3, 65, 80); fill-opacity:1.000; stroke:none;" />
 <path d="  M 10,9  L 11,9  L 11,8  L 10,8  Z  " style="fill:rgb(3, 65, 80); fill-opacity:1.000; stroke:none;" />
 <path d="  M 15,5  L 16,5  L 16,4  L 17,4  L 17,3  L 18,3  L 18,2  L 19,2  L 19,3  L 20,3  L 20,0  L 12,0  L 12,1  L 11,1  L 11,2  L 12,2  L 12,3  L 13,3  L 13,5  L 14,5  L 14,6  L 15,6  Z  M 15,4  L 15,3  L 16,3  L 16,4  Z  M 13,3  L 13,2  L 14,2  L 14,3  Z  M 16,1  L 16,2  L 15,2  L 15,1  Z  " style="fill:rgb(3, 65, 80); fill-opacity:1.000; stroke:none;" />
 <path d="  M 12,4  L 12,3  L 11,3  L 11,4  Z  " style="fill:rgb(3, 65, 80); fill-opacity:1.000; stroke:none;" />
 <path d="  M 12,28  L 13,28  L 13,27  L 12,27  Z  " style="fill:rgb(3, 65, 80); fill-opacity:1.000; stroke:none;" />
 <path d="  M 12,32  L 13,32  L 13,31  L 12,31  Z  " style="fill:rgb(3, 65, 80); fill-opacity:1.000; stroke:none;" />
 <path d="  M 14,10  L 14,11  L 15,11  L 15,10  Z  " style="fill:rgb(3, 65, 80); fill-opacity:1.000; stroke:none;" />
 <path d="  M 22,32  L 22,31  L 23,31  L 23,29  L 24,29  L 24,27  L 25,27  L 25,26  L 26,26  L 26,24  L 27,24  L 27,23  L 28,23  L 28,22  L 27,22  L 27,21  L 26,21  L 26,20  L 27,20  L 27,19  L 28,19  L 28,18  L 29,18  L 29,17  L 28,17  L 28,16  L 27,16  L 27,17  L 25,17  L 25,18  L 24,18  L 24,20  L 23,20  L 23,21  L 22,21  L 22,22  L 21,22  L 21,23  L 20,23  L 20,26  L 21,26  L 21,28  L 20,28  L 20,29  L 19,29  L 19,30  L 17,30  L 17,31  L 16,31  L 16,32  Z  M 24,26  L 24,25  L 25,25  L 25,26  Z  M 25,19  L 26,19  L 26,20  L 25,20  Z  M 22,28  L 23,28  L 23,29  L 22,29  Z  M 20,31  L 19,31  L 19,30  L 20,30  Z  M 25,23  L 24,23  L 24,22  L 25,22  Z  " style="fill:rgb(3, 65, 80); fill-opacity:1.000; stroke:none;" />
 <path d="  M 19,4  L 19,3  L 18,3  L 18,4  Z  " style="fill:rgb(3, 65, 80); fill-opacity:1.000; stroke:none;" />
 <path d="  M 18,21  L 18,22  L 19,22  L 19,21  Z  " style="fill:rgb(3, 65, 80); fill-opacity:1.000; stroke:none;" />
 <path d="  M 19,27  L 20,27  L 20,26  L 19,26  Z  " style="fill:rgb(3, 65, 80); fill-opacity:1.000; stroke:none;" />
 <path d="  M 22,3  L 22,2  L 21,2  L 21,3  Z  " style="fill:rgb(3, 65, 80); fill-opacity:1.000; stroke:none;" />
 <path d="  M 21,20  L 21,21  L 22,21  L 22,20  Z  " style="fill:rgb(3, 65, 80); fill-opacity:1.000; stroke:none;" />
 <path d="  M 25,16  L 24,16  L 24,17  L 25,17  Z  " style="fill:rgb(3, 65, 80); fill-opacity:1.000; stroke:none;" />
 <path d="  M 26,30  L 25,30  L 25,31  L 26,31  Z  " style="fill:rgb(3, 65, 80); fill-opacity:1.000; stroke:none;" />
 <path d="  M 27,15  L 26,15  L 26,16  L 27,16  Z  " style="fill:rgb(3, 65, 80); fill-opacity:1.000; stroke:none;" />
 <path d="  M 26,31  L 26,32  L 32,32  L 32,28  L 31,28  L 31,29  L 30,29  L 30,31  L 29,31  L 29,30  L 28,30  L 28,31  Z  " style="fill:rgb(3, 65, 80); fill-opacity:1.000; stroke:none;" />
 <path d="  M 28,12  L 27,12  L 27,13  L 28,13  Z  " style="fill:rgb(3, 65, 80); fill-opacity:1.000; stroke:none;" />
 <path d="  M 28,25  L 28,24  L 27,24  L 27,25  Z  " style="fill:rgb(3, 65, 80); fill-opacity:1.000; stroke:none;" />
 <path d="  M 29,18  L 29,19  L 30,19  L 30,18  Z  " style="fill:rgb(3, 65, 80); fill-opacity:1.000; stroke:none;" />
 <path d="  M 29,23  L 29,24  L 30,24  L 30,23  Z  " style="fill:rgb(3, 65, 80); fill-opacity:1.000; stroke:none;" />
 <path d="  M 30,6  L 30,7  L 31,7  L 31,6  Z  " style="fill:rgb(3, 65, 80); fill-opacity:1.000; stroke:none;" />
 <path d="  M 30,19  L 30,20  L 31,20  L 31,19  Z  " style="fill:rgb(3, 65, 80); fill-opacity:1.000; stroke:none;" />
 <path d="  M 30,23  L 31,23  L 31,24  L 30,24  L 30,25  L 31,25  L 31,26  L 32,26  L 32,21  L 31,21  L 31,22  L 30,22  Z  " style="fill:rgb(3, 65, 80); fill-opacity:1.000; stroke:none;" />
 <path d="  M 31,27  L 31,26  L 30,26  L 30,27  Z  " style="fill:rgb(3, 65, 80); fill-opacity:1.000; stroke:none;" />
 <path d="  M 5,1  L 3,1  L 3,0  L 1,0  L 1,1  L 0,1  L 0,8  L 1,8  L 1,7  L 2,7  L 2,8  L 3,8  L 3,6  L 4,6  L 4,5  L 3,5  L 3,4  L 4,4  L 4,3  L 5,3  Z  M 1,6  L 1,5  L 2,5  L 2,6  Z  M 1,1  L 2,1  L 2,2  L 1,2  Z  " style="fill:rgb(7, 72, 87); fill-opacity:1.000; stroke:none;" />
 <path d="  M 1,17  L 0,17  L 0,18  L 1,18  Z  " style="fill:rgb(7, 72, 87); fill-opacity:1.000; stroke:none;" />
 <path d="  M 1,22  L 0,22  L 0,23  L 1,23  Z  " style="fill:rgb(7, 72, 87); fill-opacity:1.000; stroke:none;" />
 <path d="  M 7,20  L 5,20  L 5,21  L 4,21  L 4,20  L 3,20  L 3,19  L 2,19  L 2,20  L 1,20  L 1,21  L 3,21  L 3,22  L 2,22  L 2,23  L 1,23  L 1,24  L 0,24  L 0,25  L 2,25  L 2,26  L 4,26  L 4,25  L 5,25  L 5,26  L 6,26  L 6,27  L 5,27  L 5,30  L 4,30  L 4,31  L 5,31  L 5,32  L 6,32  L 6,31  L 7,31  L 7,30  L 8,30  L 8,28  L 7,28  L 7,27  L 8,27  L 8,26  L 7,26  L 7,24  L 8,24  L 8,22  L 7,22  L 7,21  L 8,21  L 8,19  L 7,19  Z  M 6,23  L 6,22  L 7,22  L 7,23  Z  " style="fill:rgb(7, 72, 87); fill-opacity:1.000; stroke:none;" />
 <path d="  M 3,29  L 3,30  L 4,30  L 4,29  Z  " style="fill:rgb(7, 72, 87); fill-opacity:1.000; stroke:none;" />
 <path d="  M 3,32  L 4,32  L 4,31  L 3,31  Z  " style="fill:rgb(7, 72, 87); fill-opacity:1.000; stroke:none;" />
 <path d="  M 4,4  L 4,5  L 5,5  L 5,4  Z  " style="fill:rgb(7, 72, 87); fill-opacity:1.000; stroke:none;" />
 <path d="  M 4,19  L 4,20  L 5,20  L 5,19  Z  " style="fill:rgb(7, 72, 87); fill-opacity:1.000; stroke:none;" />
 <path d="  M 5,8  L 5,9  L 6,9  L 6,8  Z  " style="fill:rgb(7, 72, 87); fill-opacity:1.000; stroke:none;" />
 <path d="  M 6,1  L 7,1  L 7,0  L 6,0  Z  " style="fill:rgb(7, 72, 87); fill-opacity:1.000; stroke:none;" />
 <path d="  M 20,3  L 19,3  L 19,4  L 18,4  L 18,3  L 17,3  L 17,4  L 16,4  L 16,5  L 15,5  L 15,6  L 14,6  L 14,5  L 13,5  L 13,3  L 12,3  L 12,2  L 11,2  L 11,1  L 12,1  L 12,0  L 8,0  L 8,1  L 7,1  L 7,2  L 6,2  L 6,3  L 7,3  L 7,4  L 9,4  L 9,5  L 10,5  L 10,6  L 11,6  L 11,7  L 10,7  L 10,8  L 8,8  L 8,7  L 7,7  L 7,9  L 6,9  L 6,11  L 7,11  L 7,12  L 9,12  L 9,13  L 10,13  L 10,14  L 11,14  L 11,15  L 10,15  L 10,16  L 8,16  L 8,17  L 9,17  L 9,18  L 10,18  L 10,17  L 12,17  L 12,16  L 13,16  L 13,15  L 14,15  L 14,16  L 15,16  L 15,14  L 14,14  L 14,13  L 15,13  L 15,11  L 16,11  L 16,8  L 17,8  L 17,7  L 18,7  L 18,5  L 19,5  L 19,6  L 20,6  L 20,5  L 22,5  L 22,4  L 23,4  L 23,2  L 24,2  L 24,0  L 20,0  Z  M 11,4  L 11,3  L 12,3  L 12,4  Z  M 9,11  L 10,11  L 10,12  L 9,12  Z  M 14,11  L 14,10  L 15,10  L 15,11  Z  M 10,8  L 11,8  L 11,9  L 10,9  Z  M 21,3  L 21,2  L 22,2  L 22,3  Z  " style="fill:rgb(7, 72, 87); fill-opacity:1.000; stroke:none;" />
 <path d="  M 6,13  L 7,13  L 7,12  L 6,12  Z  " style="fill:rgb(7, 72, 87); fill-opacity:1.000; stroke:none;" />
 <path d="  M 8,14  L 9,14  L 9,13  L 8,13  Z  " style="fill:rgb(7, 72, 87); fill-opacity:1.000; stroke:none;" />
 <path d="  M 8,22  L 9,22  L 9,21  L 8,21  Z  " style="fill:rgb(7, 72, 87); fill-opacity:1.000; stroke:none;" />
 <path d="  M 8,24  L 8,25  L 9,25  L 9,24  Z  " style="fill:rgb(7, 72, 87); fill-opacity:1.000; stroke:none;" />
 <path d="  M 8,27  L 8,28  L 9,28  L 9,27  Z  " style="fill:rgb(7, 72, 87); fill-opacity:1.000; stroke:none;" />
 <path d="  M 9,30  L 8,30  L 8,31  L 9,31  Z  " style="fill:rgb(7, 72, 87); fill-opacity:1.000; stroke:none;" />
 <path d="  M 10,7  L 10,6  L 9,6  L 9,7  Z  " style="fill:rgb(7, 72, 87); fill-opacity:1.000; stroke:none;" />
 <path d="  M 10,21  L 10,20  L 9,20  L 9,21  Z  " style="fill:rgb(7, 72, 87); fill-opacity:1.000; stroke:none;" />
 <path d="  M 11,18  L 10,18  L 10,19  L 11,19  Z  " style="fill:rgb(7, 72, 87); fill-opacity:1.000; stroke:none;" />
 <path d="  M 11,25  L 11,24  L 10,24  L 10,25  Z  " style="fill:rgb(7, 72, 87); fill-opacity:1.000; stroke:none;" />
 <path d="  M 24,18  L 25,18  L 25,17  L 27,17  L 27,16  L 28,16  L 28,14  L 29,14  L 29,12  L 28,12  L 28,13  L 27,13  L 27,12  L 26,12  L 26,13  L 24,13  L 24,14  L 22,14  L 22,15  L 21,15  L 21,16  L 20,16  L 20,17  L 19,17  L 19,19  L 18,19  L 18,21  L 17,21  L 17,23  L 18,23  L 18,26  L 17,26  L 17,27  L 16,27  L 16,28  L 15,28  L 15,27  L 14,27  L 14,26  L 15,26  L 15,25  L 16,25  L 16,24  L 15,24  L 15,23  L 13,23  L 13,24  L 12,24  L 12,25  L 11,25  L 11,26  L 10,26  L 10,27  L 11,27  L 11,29  L 12,29  L 12,31  L 13,31  L 13,32  L 16,32  L 16,31  L 17,31  L 17,30  L 19,30  L 19,29  L 20,29  L 20,28  L 21,28  L 21,26  L 20,26  L 20,25  L 19,25  L 19,24  L 20,24  L 20,23  L 21,23  L 21,22  L 22,22  L 22,21  L 23,21  L 23,20  L 24,20  Z  M 13,28  L 12,28  L 12,27  L 13,27  Z  M 22,20  L 22,21  L 21,21  L 21,20  Z  M 18,22  L 18,21  L 19,21  L 19,22  Z  M 26,16  L 26,15  L 27,15  L 27,16  Z  M 24,16  L 25,16  L 25,17  L 24,17  Z  M 20,27  L 19,27  L 19,26  L 20,26  Z  " style="fill:rgb(7, 72, 87); fill-opacity:1.000; stroke:none;" />
 <path d="  M 13,23  L 13,22  L 11,22  L 11,23  Z  " style="fill:rgb(7, 72, 87); fill-opacity:1.000; stroke:none;" />
 <path d="  M 11,32  L 12,32  L 12,31  L 11,31  Z  " style="fill:rgb(7, 72, 87); fill-opacity:1.000; stroke:none;" />
 <path d="  M 13,17  L 12,17  L 12,18  L 13,18  Z  " style="fill:rgb(7, 72, 87); fill-opacity:1.000; stroke:none;" />
 <path d="  M 13,2  L 13,3  L 14,3  L 14,2  Z  " style="fill:rgb(7, 72, 87); fill-opacity:1.000; stroke:none;" />
 <path d="  M 16,4  L 16,3  L 15,3  L 15,4  Z  " style="fill:rgb(7, 72, 87); fill-opacity:1.000; stroke:none;" />
 <path d="  M 15,22  L 15,23  L 16,23  L 16,22  Z  " style="fill:rgb(7, 72, 87); fill-opacity:1.000; stroke:none;" />
 <path d="  M 17,11  L 16,11  L 16,12  L 17,12  Z  " style="fill:rgb(7, 72, 87); fill-opacity:1.000; stroke:none;" />
 <path d="  M 18,19  L 18,18  L 17,18  L 17,19  Z  " style="fill:rgb(7, 72, 87); fill-opacity:1.000; stroke:none;" />
 <path d="  M 18,2  L 18,3  L 19,3  L 19,2  Z  " style="fill:rgb(7, 72, 87); fill-opacity:1.000; stroke:none;" />
 <path d="  M 18,9  L 18,10  L 19,10  L 19,9  Z  " style="fill:rgb(7, 72, 87); fill-opacity:1.000; stroke:none;" />
 <path d="  M 20,10  L 19,10  L 19,11  L 18,11  L 18,12  L 19,12  L 19,13  L 21,13  L 21,12  L 22,12  L 22,13  L 23,13  L 23,11  L 25,11  L 25,10  L 28,10  L 28,9  L 27,9  L 27,8  L 25,8  L 25,9  L 23,9  L 23,8  L 22,8  L 22,9  L 20,9  Z  " style="fill:rgb(7, 72, 87); fill-opacity:1.000; stroke:none;" />
 <path d="  M 19,15  L 19,16  L 20,16  L 20,15  Z  " style="fill:rgb(7, 72, 87); fill-opacity:1.000; stroke:none;" />
 <path d="  M 22,5  L 22,6  L 23,6  L 23,5  Z  " style="fill:rgb(7, 72, 87); fill-opacity:1.000; stroke:none;" />
 <path d="  M 23,29  L 23,28  L 22,28  L 22,29  Z  " style="fill:rgb(7, 72, 87); fill-opacity:1.000; stroke:none;" />
 <path d="  M 30,22  L 31,22  L 31,21  L 32,21  L 32,19  L 31,19  L 31,20  L 30,20  L 30,19  L 29,19  L 29,18  L 28,18  L 28,19  L 27,19  L 27,20  L 26,20  L 26,21  L 27,21  L 27,22  L 28,22  L 28,23  L 27,23  L 27,24  L 26,24  L 26,26  L 25,26  L 25,27  L 24,27  L 24,29  L 23,29  L 23,31  L 22,31  L 22,32  L 26,32  L 26,31  L 28,31  L 28,30  L 30,30  L 30,29  L 31,29  L 31,28  L 32,28  L 32,26  L 31,26  L 31,25  L 30,25  L 30,24  L 29,24  L 29,23  L 30,23  Z  M 31,26  L 31,27  L 30,27  L 30,26  Z  M 26,31  L 25,31  L 25,30  L 26,30  Z  M 28,24  L 28,25  L 27,25  L 27,24  Z  " style="fill:rgb(7, 72, 87); fill-opacity:1.000; stroke:none;" />
 <path d="  M 25,3  L 25,2  L 24,2  L 24,3  Z  " style="fill:rgb(7, 72, 87); fill-opacity:1.000; stroke:none;" />
 <path d="  M 25,8  L 25,7  L 24,7  L 24,8  Z  " style="fill:rgb(7, 72, 87); fill-opacity:1.000; stroke:none;" />
 <path d="  M 25,26  L 25,25  L 24,25  L 24,26  Z  " style="fill:rgb(7, 72, 87); fill-opacity:1.000; stroke:none;" />
 <path d="  M 26,20  L 26,19  L 25,19  L 25,20  Z  " style="fill:rgb(7, 72, 87); fill-opacity:1.000; stroke:none;" />
 <path d="  M 28,5  L 27,5  L 27,6  L 28,6  Z  " style="fill:rgb(7, 72, 87); fill-opacity:1.000; stroke:none;" />
 <path d="  M 27,7  L 27,8  L 28,8  L 28,7  Z  " style="fill:rgb(7, 72, 87); fill-opacity:1.000; stroke:none;" />
 <path d="  M 27,12  L 28,12  L 28,11  L 27,11  Z  " style="fill:rgb(7, 72, 87); fill-opacity:1.000; stroke:none;" />
 <path d="  M 32,2  L 31,2  L 31,3  L 30,3  L 30,4  L 28,4  L 28,5  L 29,5  L 29,7  L 30,7  L 30,6  L 31,6  L 31,7  L 32,7  Z  " style="fill:rgb(7, 72, 87); fill-opacity:1.000; stroke:none;" />
 <path d="  M 30,2  L 29,2  L 29,3  L 30,3  Z  " style="fill:rgb(7, 72, 87); fill-opacity:1.000; stroke:none;" />
 <path d="  M 30,15  L 30,14  L 29,14  L 29,15  Z  " style="fill:rgb(7, 72, 87); fill-opacity:1.000; stroke:none;" />
 <path d="  M 29,18  L 30,18  L 30,17  L 29,17  Z  " style="fill:rgb(7, 72, 87); fill-opacity:1.000; stroke:none;" />
 <path d="  M 30,7  L 30,8  L 31,8  L 31,7  Z  " style="fill:rgb(7, 72, 87); fill-opacity:1.000; stroke:none;" />
 <path d="  M 31,19  L 31,18  L 30,18  L 30,19  Z  " style="fill:rgb(7, 72, 87); fill-opacity:1.000; stroke:none;" />
 <path d="  M 31,24  L 31,23  L 30,23  L 30,24  Z  " style="fill:rgb(7, 72, 87); fill-opacity:1.000; stroke:none;" />
 <path d="  M 4,9  L 3,9  L 3,10  L 4,10  Z  " style="fill:rgb(5, 42, 50); fill-opacity:1.000; stroke:none;" />
 <path d="  M 4,27  L 3,27  L 3,28  L 4,28  Z  " style="fill:rgb(5, 42, 50); fill-opacity:1.000; stroke:none;" />
 <path d="  M 15,18  L 14,18  L 14,19  L 15,19  Z  " style="fill:rgb(5, 42, 50); fill-opacity:1.000; stroke:none;" />
 <path d="  M 16,2  L 16,1  L 15,1  L 15,2  Z  " style="fill:rgb(5, 42, 50); fill-opacity:1.000; stroke:none;" />
 <path d="  M 20,8  L 20,7  L 19,7  L 19,8  Z  " style="fill:rgb(5, 42, 50); fill-opacity:1.000; stroke:none;" />
 <path d="  M 20,25  L 20,24  L 19,24  L 19,25  Z  " style="fill:rgb(5, 42, 50); fill-opacity:1.000; stroke:none;" />
 <path d="  M 28,17  L 29,17  L 29,16  L 28,16  Z  " style="fill:rgb(5, 42, 50); fill-opacity:1.000; stroke:none;" />
 <path d="  M 4,16  L 4,17  L 5,17  L 5,16  Z  " style="fill:rgb(0, 146, 149); fill-opacity:1.000; stroke:none;" />
 <path d="  M 7,6  L 7,5  L 6,5  L 6,6  Z  " style="fill:rgb(0, 146, 149); fill-opacity:1.000; stroke:none;" />
 <path d="  M 6,23  L 7,23  L 7,22  L 6,22  Z  " style="fill:rgb(0, 146, 149); fill-opacity:1.000; stroke:none;" />
 <path d="  M 19,14  L 20,14  L 20,13  L 19,13  Z  " style="fill:rgb(0, 146, 149); fill-opacity:1.000; stroke:none;" />
 <path d="  M 19,30  L 19,31  L 20,31  L 20,30  Z  " style="fill:rgb(0, 146, 149); fill-opacity:1.000; stroke:none;" />
 <path d="  M 10,12  L 10,11  L 9,11  L 9,12  Z  " style="fill:rgb(110, 117, 123); fill-opacity:1.000; stroke:none;" />
 <path d="  M 10,30  L 10,29  L 9,29  L 9,30  Z  " style="fill:rgb(110, 117, 123); fill-opacity:1.000; stroke:none;" />
 <path d="  M 25,23  L 25,22  L 24,22  L 24,23  Z  " style="fill:rgb(110, 117, 123); fill-opacity:1.000; stroke:none;" />
 <path d="  M 26,5  L 26,4  L 25,4  L 25,5  Z  " style="fill:rgb(110, 117, 123); fill-opacity:1.000; stroke:none;" />
 <path d="  M 30,12  L 29,12  L 29,13  L 30,13  Z  " style="fill:rgb(110, 117, 123); fill-opacity:1.000; stroke:none;" />
 <path d="  M 29,31  L 30,31  L 30,30  L 29,30  Z  " style="fill:rgb(110, 117, 123); fill-opacity:1.000; stroke:none;" />
</svg>
