<?xml version="1.0" encoding="UTF-8" standalone="no"?>
<!DOCTYPE svg PUBLIC "-//W3C//DTD SVG 1.1//EN" 
  "http://www.w3.org/Graphics/SVG/1.1/DTD/svg11.dtd">
<svg width="32" height="32"
	 xmlns="http://www.w3.org/2000/svg" version="1.1">
 <path d="  M 7,12  L 7,14  L 8,14  L 8,12  L 9,12  L 9,11  L 10,11  L 10,10  L 11,10  L 11,11  L 12,11  L 12,13  L 11,13  L 11,14  L 10,14  L 10,15  L 9,15  L 9,17  L 8,17  L 8,20  L 7,20  L 7,22  L 6,22  L 6,21  L 5,21  L 5,19  L 4,19  L 4,17  L 5,17  L 5,16  L 4,16  L 4,15  L 3,15  L 3,17  L 2,17  L 2,16  L 1,16  L 1,12  L 2,12  L 2,11  L 4,11  L 4,12  L 5,12  L 5,11  L 6,11  L 6,12  Z  M 18,13  L 18,14  L 17,14  L 17,13  Z  M 15,17  L 16,17  L 16,16  L 17,16  L 17,17  L 18,17  L 18,14  L 19,14  L 19,12  L 18,12  L 18,11  L 19,11  L 19,10  L 16,10  L 16,9  L 15,9  L 15,8  L 14,8  L 14,9  L 13,9  L 13,10  L 11,10  L 11,9  L 10,9  L 10,7  L 9,7  L 9,9  L 8,9  L 8,10  L 0,10  L 0,19  L 1,19  L 1,18  L 2,18  L 2,19  L 3,19  L 3,22  L 2,22  L 2,20  L 1,20  L 1,21  L 0,21  L 0,22  L 1,22  L 1,24  L 2,24  L 2,23  L 4,23  L 4,22  L 5,22  L 5,24  L 6,24  L 6,26  L 7,26  L 7,24  L 8,24  L 8,22  L 9,22  L 9,21  L 10,21  L 10,19  L 11,19  L 11,17  L 12,17  L 12,18  L 13,18  L 13,16  L 12,16  L 12,14  L 13,14  L 13,11  L 14,11  L 14,13  L 15,13  Z  M 16,12  L 15,12  L 15,11  L 16,11  Z  M 14,11  L 14,10  L 15,10  L 15,11  Z  M 10,15  L 11,15  L 11,16  L 10,16  Z  " style="fill:rgb(98, 104, 36); fill-opacity:1.000; stroke:none;" />
 <path d="  M 3,14  L 2,14  L 2,15  L 3,15  Z  " style="fill:rgb(98, 104, 36); fill-opacity:1.000; stroke:none;" />
 <path d="  M 4,12  L 3,12  L 3,13  L 4,13  Z  " style="fill:rgb(98, 104, 36); fill-opacity:1.000; stroke:none;" />
 <path d="  M 6,14  L 6,13  L 5,13  L 5,14  Z  " style="fill:rgb(98, 104, 36); fill-opacity:1.000; stroke:none;" />
 <path d="  M 6,19  L 6,18  L 5,18  L 5,19  Z  " style="fill:rgb(98, 104, 36); fill-opacity:1.000; stroke:none;" />
 <path d="  M 6,16  L 7,16  L 7,15  L 6,15  Z  " style="fill:rgb(98, 104, 36); fill-opacity:1.000; stroke:none;" />
 <path d="  M 7,19  L 6,19  L 6,20  L 7,20  Z  " style="fill:rgb(98, 104, 36); fill-opacity:1.000; stroke:none;" />
 <path d="  M 8,16  L 7,16  L 7,17  L 8,17  Z  " style="fill:rgb(98, 104, 36); fill-opacity:1.000; stroke:none;" />
 <path d="  M 9,2  L 8,2  L 8,6  L 9,6  L 9,4  L 10,4  L 10,3  L 9,3  Z  " style="fill:rgb(98, 104, 36); fill-opacity:1.000; stroke:none;" />
 <path d="  M 8,14  L 8,15  L 9,15  L 9,14  Z  " style="fill:rgb(98, 104, 36); fill-opacity:1.000; stroke:none;" />
 <path d="  M 10,22  L 9,22  L 9,23  L 11,23  L 11,22  L 12,22  L 12,19  L 11,19  L 11,21  L 10,21  Z  " style="fill:rgb(98, 104, 36); fill-opacity:1.000; stroke:none;" />
 <path d="  M 14,3  L 14,2  L 10,2  L 10,3  Z  " style="fill:rgb(98, 104, 36); fill-opacity:1.000; stroke:none;" />
 <path d="  M 11,13  L 11,12  L 10,12  L 10,13  Z  " style="fill:rgb(98, 104, 36); fill-opacity:1.000; stroke:none;" />
 <path d="  M 11,26  L 10,26  L 10,27  L 11,27  Z  " style="fill:rgb(98, 104, 36); fill-opacity:1.000; stroke:none;" />
 <path d="  M 12,9  L 12,8  L 11,8  L 11,9  Z  " style="fill:rgb(98, 104, 36); fill-opacity:1.000; stroke:none;" />
 <path d="  M 13,15  L 13,16  L 14,16  L 14,15  Z  " style="fill:rgb(98, 104, 36); fill-opacity:1.000; stroke:none;" />
 <path d="  M 13,21  L 15,21  L 15,20  L 14,20  L 14,19  L 13,19  Z  " style="fill:rgb(98, 104, 36); fill-opacity:1.000; stroke:none;" />
 <path d="  M 14,23  L 13,23  L 13,25  L 14,25  Z  " style="fill:rgb(98, 104, 36); fill-opacity:1.000; stroke:none;" />
 <path d="  M 14,4  L 15,4  L 15,3  L 14,3  Z  " style="fill:rgb(98, 104, 36); fill-opacity:1.000; stroke:none;" />
 <path d="  M 15,23  L 15,22  L 14,22  L 14,23  Z  " style="fill:rgb(98, 104, 36); fill-opacity:1.000; stroke:none;" />
 <path d="  M 16,2  L 15,2  L 15,3  L 16,3  Z  " style="fill:rgb(98, 104, 36); fill-opacity:1.000; stroke:none;" />
 <path d="  M 16,5  L 15,5  L 15,8  L 16,8  Z  " style="fill:rgb(98, 104, 36); fill-opacity:1.000; stroke:none;" />
 <path d="  M 17,23  L 17,20  L 16,20  L 16,21  L 15,21  L 15,22  L 16,22  L 16,24  L 17,24  L 17,26  L 18,26  L 18,23  Z  " style="fill:rgb(98, 104, 36); fill-opacity:1.000; stroke:none;" />
 <path d="  M 17,19  L 17,17  L 16,17  L 16,19  Z  " style="fill:rgb(98, 104, 36); fill-opacity:1.000; stroke:none;" />
 <path d="  M 18,20  L 18,19  L 17,19  L 17,20  Z  " style="fill:rgb(98, 104, 36); fill-opacity:1.000; stroke:none;" />
 <path d="  M 19,19  L 19,18  L 18,18  L 18,19  Z  " style="fill:rgb(98, 104, 36); fill-opacity:1.000; stroke:none;" />
 <path d="  M 18,23  L 19,23  L 19,22  L 18,22  Z  " style="fill:rgb(98, 104, 36); fill-opacity:1.000; stroke:none;" />
 <path d="  M 24,15  L 25,15  L 25,16  L 26,16  L 26,14  L 25,14  L 25,13  L 26,13  L 26,11  L 27,11  L 27,10  L 21,10  L 21,11  L 22,11  L 22,13  L 21,13  L 21,14  L 20,14  L 20,15  L 21,15  L 21,17  L 19,17  L 19,18  L 20,18  L 20,20  L 19,20  L 19,22  L 20,22  L 20,21  L 21,21  L 21,19  L 22,19  L 22,16  L 23,16  L 23,17  L 24,17  Z  M 23,13  L 23,11  L 24,11  L 24,13  Z  " style="fill:rgb(98, 104, 36); fill-opacity:1.000; stroke:none;" />
 <path d="  M 21,12  L 20,12  L 20,13  L 21,13  Z  " style="fill:rgb(98, 104, 36); fill-opacity:1.000; stroke:none;" />
 <path d="  M 24,19  L 23,19  L 23,20  L 22,20  L 22,21  L 21,21  L 21,22  L 20,22  L 20,23  L 21,23  L 21,25  L 22,25  L 22,26  L 23,26  L 23,24  L 24,24  L 24,23  L 25,23  L 25,22  L 26,22  L 26,23  L 27,23  L 27,22  L 28,22  L 28,20  L 29,20  L 29,19  L 28,19  L 28,18  L 27,18  L 27,17  L 26,17  L 26,18  L 25,18  L 25,17  L 24,17  Z  M 22,23  L 22,21  L 23,21  L 23,23  Z  M 27,19  L 27,21  L 26,21  L 26,19  Z  M 24,20  L 24,19  L 25,19  L 25,20  Z  " style="fill:rgb(98, 104, 36); fill-opacity:1.000; stroke:none;" />
 <path d="  M 26,27  L 26,26  L 24,26  L 24,28  L 25,28  L 25,27  Z  " style="fill:rgb(98, 104, 36); fill-opacity:1.000; stroke:none;" />
 <path d="  M 26,25  L 26,24  L 25,24  L 25,25  Z  " style="fill:rgb(98, 104, 36); fill-opacity:1.000; stroke:none;" />
 <path d="  M 28,12  L 27,12  L 27,13  L 28,13  L 28,14  L 29,14  L 29,13  L 30,13  L 30,12  L 31,12  L 31,13  L 32,13  L 32,10  L 28,10  Z  " style="fill:rgb(98, 104, 36); fill-opacity:1.000; stroke:none;" />
 <path d="  M 28,17  L 29,17  L 29,16  L 28,16  Z  " style="fill:rgb(98, 104, 36); fill-opacity:1.000; stroke:none;" />
 <path d="  M 30,15  L 29,15  L 29,16  L 30,16  Z  " style="fill:rgb(98, 104, 36); fill-opacity:1.000; stroke:none;" />
 <path d="  M 31,21  L 31,22  L 30,22  L 30,21  Z  M 29,23  L 30,23  L 30,24  L 31,24  L 31,22  L 32,22  L 32,16  L 31,16  L 31,19  L 30,19  L 30,20  L 29,20  Z  " style="fill:rgb(98, 104, 36); fill-opacity:1.000; stroke:none;" />
 <path d="  M 31,13  L 30,13  L 30,15  L 31,15  Z  " style="fill:rgb(98, 104, 36); fill-opacity:1.000; stroke:none;" />
 <path d="  M 0,20  L 1,20  L 1,19  L 0,19  Z  " style="fill:rgb(75, 79, 25); fill-opacity:1.000; stroke:none;" />
 <path d="  M 1,28  L 0,28  L 0,31  L 2,31  L 2,30  L 1,30  Z  " style="fill:rgb(75, 79, 25); fill-opacity:1.000; stroke:none;" />
 <path d="  M 2,27  L 1,27  L 1,28  L 2,28  L 2,30  L 3,30  L 3,31  L 5,31  L 5,30  L 7,30  L 7,27  L 6,27  L 6,28  L 5,28  L 5,29  L 4,29  L 4,26  L 3,26  L 3,24  L 2,24  Z  " style="fill:rgb(75, 79, 25); fill-opacity:1.000; stroke:none;" />
 <path d="  M 3,15  L 2,15  L 2,16  L 3,16  Z  " style="fill:rgb(75, 79, 25); fill-opacity:1.000; stroke:none;" />
 <path d="  M 5,25  L 4,25  L 4,26  L 5,26  Z  " style="fill:rgb(75, 79, 25); fill-opacity:1.000; stroke:none;" />
 <path d="  M 6,12  L 6,11  L 5,11  L 5,12  Z  " style="fill:rgb(75, 79, 25); fill-opacity:1.000; stroke:none;" />
 <path d="  M 6,20  L 6,19  L 5,19  L 5,20  Z  " style="fill:rgb(75, 79, 25); fill-opacity:1.000; stroke:none;" />
 <path d="  M 9,15  L 8,15  L 8,16  L 9,16  Z  " style="fill:rgb(75, 79, 25); fill-opacity:1.000; stroke:none;" />
 <path d="  M 9,26  L 8,26  L 8,30  L 9,30  L 9,31  L 11,31  L 11,32  L 13,32  L 13,31  L 14,31  L 14,30  L 15,30  L 15,29  L 14,29  L 14,28  L 13,28  L 13,27  L 12,27  L 12,29  L 10,29  L 10,28  L 9,28  Z  " style="fill:rgb(75, 79, 25); fill-opacity:1.000; stroke:none;" />
 <path d="  M 10,23  L 9,23  L 9,24  L 10,24  Z  " style="fill:rgb(75, 79, 25); fill-opacity:1.000; stroke:none;" />
 <path d="  M 11,20  L 11,19  L 10,19  L 10,20  Z  " style="fill:rgb(75, 79, 25); fill-opacity:1.000; stroke:none;" />
 <path d="  M 12,11  L 11,11  L 11,12  L 12,12  Z  " style="fill:rgb(75, 79, 25); fill-opacity:1.000; stroke:none;" />
 <path d="  M 13,27  L 14,27  L 14,26  L 13,26  Z  " style="fill:rgb(75, 79, 25); fill-opacity:1.000; stroke:none;" />
 <path d="  M 14,14  L 15,14  L 15,13  L 14,13  Z  " style="fill:rgb(75, 79, 25); fill-opacity:1.000; stroke:none;" />
 <path d="  M 16,27  L 15,27  L 15,28  L 16,28  Z  " style="fill:rgb(75, 79, 25); fill-opacity:1.000; stroke:none;" />
 <path d="  M 16,6  L 16,8  L 17,8  L 17,7  L 18,7  L 18,6  Z  " style="fill:rgb(75, 79, 25); fill-opacity:1.000; stroke:none;" />
 <path d="  M 19,31  L 20,31  L 20,30  L 22,30  L 22,31  L 23,31  L 23,32  L 24,32  L 24,31  L 25,31  L 25,32  L 26,32  L 26,31  L 29,31  L 29,30  L 30,30  L 30,31  L 31,31  L 31,32  L 32,32  L 32,29  L 31,29  L 31,27  L 32,27  L 32,25  L 31,25  L 31,26  L 30,26  L 30,28  L 29,28  L 29,27  L 28,27  L 28,29  L 27,29  L 27,28  L 26,28  L 26,30  L 25,30  L 25,29  L 24,29  L 24,28  L 23,28  L 23,29  L 22,29  L 22,28  L 20,28  L 20,27  L 19,27  L 19,28  L 18,28  L 18,30  L 17,30  L 17,29  L 16,29  L 16,31  L 17,31  L 17,32  L 19,32  Z  " style="fill:rgb(75, 79, 25); fill-opacity:1.000; stroke:none;" />
 <path d="  M 17,18  L 18,18  L 18,17  L 17,17  Z  " style="fill:rgb(75, 79, 25); fill-opacity:1.000; stroke:none;" />
 <path d="  M 18,7  L 18,8  L 19,8  L 19,7  Z  " style="fill:rgb(75, 79, 25); fill-opacity:1.000; stroke:none;" />
 <path d="  M 18,9  L 18,10  L 19,10  L 19,9  Z  " style="fill:rgb(75, 79, 25); fill-opacity:1.000; stroke:none;" />
 <path d="  M 20,3  L 20,2  L 19,2  L 19,3  Z  " style="fill:rgb(75, 79, 25); fill-opacity:1.000; stroke:none;" />
 <path d="  M 19,8  L 19,9  L 20,9  L 20,8  Z  " style="fill:rgb(75, 79, 25); fill-opacity:1.000; stroke:none;" />
 <path d="  M 21,2  L 21,3  L 20,3  L 20,4  L 22,4  L 22,3  L 23,3  L 23,4  L 24,4  L 24,2  Z  " style="fill:rgb(75, 79, 25); fill-opacity:1.000; stroke:none;" />
 <path d="  M 21,5  L 20,5  L 20,6  L 21,6  Z  " style="fill:rgb(75, 79, 25); fill-opacity:1.000; stroke:none;" />
 <path d="  M 21,10  L 21,9  L 20,9  L 20,10  Z  " style="fill:rgb(75, 79, 25); fill-opacity:1.000; stroke:none;" />
 <path d="  M 20,16  L 21,16  L 21,15  L 20,15  Z  " style="fill:rgb(75, 79, 25); fill-opacity:1.000; stroke:none;" />
 <path d="  M 21,25  L 20,25  L 20,26  L 21,26  Z  " style="fill:rgb(75, 79, 25); fill-opacity:1.000; stroke:none;" />
 <path d="  M 22,5  L 23,5  L 23,4  L 22,4  Z  " style="fill:rgb(75, 79, 25); fill-opacity:1.000; stroke:none;" />
 <path d="  M 24,6  L 22,6  L 22,7  L 23,7  L 23,8  L 24,8  Z  " style="fill:rgb(75, 79, 25); fill-opacity:1.000; stroke:none;" />
 <path d="  M 23,22  L 23,21  L 22,21  L 22,22  Z  " style="fill:rgb(75, 79, 25); fill-opacity:1.000; stroke:none;" />
 <path d="  M 23,11  L 23,12  L 24,12  L 24,11  Z  " style="fill:rgb(75, 79, 25); fill-opacity:1.000; stroke:none;" />
 <path d="  M 27,19  L 26,19  L 26,20  L 27,20  Z  " style="fill:rgb(75, 79, 25); fill-opacity:1.000; stroke:none;" />
 <path d="  M 27,27  L 28,27  L 28,26  L 27,26  Z  " style="fill:rgb(75, 79, 25); fill-opacity:1.000; stroke:none;" />
 <path d="  M 29,13  L 29,14  L 30,14  L 30,13  Z  " style="fill:rgb(75, 79, 25); fill-opacity:1.000; stroke:none;" />
 <path d="  M 30,17  L 30,18  L 31,18  L 31,17  Z  " style="fill:rgb(75, 79, 25); fill-opacity:1.000; stroke:none;" />
 <path d="  M 1,20  L 0,20  L 0,21  L 1,21  Z  " style="fill:rgb(66, 70, 24); fill-opacity:1.000; stroke:none;" />
 <path d="  M 7,30  L 5,30  L 5,31  L 3,31  L 3,30  L 2,30  L 2,31  L 0,31  L 0,32  L 11,32  L 11,31  L 9,31  L 9,30  L 8,30  L 8,29  L 7,29  Z  " style="fill:rgb(66, 70, 24); fill-opacity:1.000; stroke:none;" />
 <path d="  M 2,25  L 1,25  L 1,26  L 2,26  Z  " style="fill:rgb(66, 70, 24); fill-opacity:1.000; stroke:none;" />
 <path d="  M 2,17  L 3,17  L 3,16  L 2,16  Z  " style="fill:rgb(66, 70, 24); fill-opacity:1.000; stroke:none;" />
 <path d="  M 5,28  L 5,27  L 4,27  L 4,28  Z  " style="fill:rgb(66, 70, 24); fill-opacity:1.000; stroke:none;" />
 <path d="  M 5,12  L 5,13  L 6,13  L 6,12  Z  " style="fill:rgb(66, 70, 24); fill-opacity:1.000; stroke:none;" />
 <path d="  M 6,20  L 5,20  L 5,21  L 6,21  Z  " style="fill:rgb(66, 70, 24); fill-opacity:1.000; stroke:none;" />
 <path d="  M 8,17  L 9,17  L 9,16  L 8,16  Z  " style="fill:rgb(66, 70, 24); fill-opacity:1.000; stroke:none;" />
 <path d="  M 10,25  L 10,24  L 9,24  L 9,25  Z  " style="fill:rgb(66, 70, 24); fill-opacity:1.000; stroke:none;" />
 <path d="  M 11,20  L 10,20  L 10,21  L 11,21  Z  " style="fill:rgb(66, 70, 24); fill-opacity:1.000; stroke:none;" />
 <path d="  M 11,13  L 12,13  L 12,12  L 11,12  Z  " style="fill:rgb(66, 70, 24); fill-opacity:1.000; stroke:none;" />
 <path d="  M 11,27  L 11,28  L 12,28  L 12,27  Z  " style="fill:rgb(66, 70, 24); fill-opacity:1.000; stroke:none;" />
 <path d="  M 15,30  L 14,30  L 14,31  L 13,31  L 13,32  L 17,32  L 17,31  L 16,31  L 16,28  L 15,28  Z  " style="fill:rgb(66, 70, 24); fill-opacity:1.000; stroke:none;" />
 <path d="  M 15,14  L 14,14  L 14,15  L 15,15  Z  " style="fill:rgb(66, 70, 24); fill-opacity:1.000; stroke:none;" />
 <path d="  M 16,23  L 15,23  L 15,24  L 16,24  Z  " style="fill:rgb(66, 70, 24); fill-opacity:1.000; stroke:none;" />
 <path d="  M 16,27  L 16,28  L 17,28  L 17,27  Z  " style="fill:rgb(66, 70, 24); fill-opacity:1.000; stroke:none;" />
 <path d="  M 18,19  L 18,18  L 17,18  L 17,19  Z  " style="fill:rgb(66, 70, 24); fill-opacity:1.000; stroke:none;" />
 <path d="  M 23,32  L 23,31  L 22,31  L 22,30  L 20,30  L 20,31  L 19,31  L 19,32  Z  " style="fill:rgb(66, 70, 24); fill-opacity:1.000; stroke:none;" />
 <path d="  M 20,16  L 20,17  L 21,17  L 21,16  Z  " style="fill:rgb(66, 70, 24); fill-opacity:1.000; stroke:none;" />
 <path d="  M 20,27  L 21,27  L 21,26  L 20,26  Z  " style="fill:rgb(66, 70, 24); fill-opacity:1.000; stroke:none;" />
 <path d="  M 23,23  L 23,22  L 22,22  L 22,23  Z  " style="fill:rgb(66, 70, 24); fill-opacity:1.000; stroke:none;" />
 <path d="  M 23,27  L 22,27  L 22,28  L 23,28  Z  " style="fill:rgb(66, 70, 24); fill-opacity:1.000; stroke:none;" />
 <path d="  M 23,13  L 24,13  L 24,12  L 23,12  Z  " style="fill:rgb(66, 70, 24); fill-opacity:1.000; stroke:none;" />
 <path d="  M 24,31  L 24,32  L 25,32  L 25,31  Z  " style="fill:rgb(66, 70, 24); fill-opacity:1.000; stroke:none;" />
 <path d="  M 26,20  L 26,21  L 27,21  L 27,20  Z  " style="fill:rgb(66, 70, 24); fill-opacity:1.000; stroke:none;" />
 <path d="  M 26,31  L 26,32  L 31,32  L 31,31  L 30,31  L 30,30  L 29,30  L 29,31  Z  " style="fill:rgb(66, 70, 24); fill-opacity:1.000; stroke:none;" />
 <path d="  M 27,27  L 27,28  L 28,28  L 28,27  Z  " style="fill:rgb(66, 70, 24); fill-opacity:1.000; stroke:none;" />
 <path d="  M 28,23  L 28,24  L 29,24  L 29,23  Z  " style="fill:rgb(66, 70, 24); fill-opacity:1.000; stroke:none;" />
 <path d="  M 30,15  L 30,14  L 29,14  L 29,15  Z  " style="fill:rgb(66, 70, 24); fill-opacity:1.000; stroke:none;" />
 <path d="  M 31,19  L 31,18  L 30,18  L 30,19  Z  " style="fill:rgb(66, 70, 24); fill-opacity:1.000; stroke:none;" />
 <path d="  M 31,28  L 32,28  L 32,27  L 31,27  Z  " style="fill:rgb(66, 70, 24); fill-opacity:1.000; stroke:none;" />
 <path d="  M 2,24  L 1,24  L 1,22  L 0,22  L 0,28  L 1,28  L 1,25  L 2,25  Z  " style="fill:rgb(87, 92, 29); fill-opacity:1.000; stroke:none;" />
 <path d="  M 1,30  L 2,30  L 2,28  L 1,28  Z  " style="fill:rgb(87, 92, 29); fill-opacity:1.000; stroke:none;" />
 <path d="  M 5,22  L 4,22  L 4,23  L 2,23  L 2,24  L 3,24  L 3,26  L 4,26  L 4,27  L 5,27  L 5,28  L 6,28  L 6,27  L 7,27  L 7,29  L 8,29  L 8,26  L 9,26  L 9,28  L 10,28  L 10,29  L 11,29  L 11,27  L 13,27  L 13,28  L 14,28  L 14,29  L 15,29  L 15,27  L 17,27  L 17,30  L 18,30  L 18,28  L 19,28  L 19,27  L 20,27  L 20,25  L 21,25  L 21,23  L 20,23  L 20,22  L 19,22  L 19,23  L 18,23  L 18,26  L 17,26  L 17,24  L 16,24  L 16,25  L 15,25  L 15,23  L 14,23  L 14,21  L 13,21  L 13,20  L 12,20  L 12,22  L 11,22  L 11,23  L 10,23  L 10,25  L 9,25  L 9,22  L 8,22  L 8,24  L 7,24  L 7,26  L 6,26  L 6,24  L 5,24  Z  M 10,26  L 11,26  L 11,27  L 10,27  Z  M 13,23  L 14,23  L 14,25  L 13,25  Z  M 5,26  L 4,26  L 4,25  L 5,25  Z  M 13,27  L 13,26  L 14,26  L 14,27  Z  " style="fill:rgb(87, 92, 29); fill-opacity:1.000; stroke:none;" />
 <path d="  M 10,21  L 9,21  L 9,22  L 10,22  Z  " style="fill:rgb(87, 92, 29); fill-opacity:1.000; stroke:none;" />
 <path d="  M 15,22  L 15,23  L 16,23  L 16,22  Z  " style="fill:rgb(87, 92, 29); fill-opacity:1.000; stroke:none;" />
 <path d="  M 20,21  L 20,22  L 21,22  L 21,21  Z  " style="fill:rgb(87, 92, 29); fill-opacity:1.000; stroke:none;" />
 <path d="  M 20,28  L 22,28  L 22,27  L 23,27  L 23,28  L 24,28  L 24,24  L 23,24  L 23,26  L 22,26  L 22,25  L 21,25  L 21,27  L 20,27  Z  " style="fill:rgb(87, 92, 29); fill-opacity:1.000; stroke:none;" />
 <path d="  M 29,23  L 29,20  L 28,20  L 28,22  L 27,22  L 27,23  L 26,23  L 26,25  L 25,25  L 25,26  L 26,26  L 26,27  L 25,27  L 25,28  L 24,28  L 24,29  L 25,29  L 25,30  L 26,30  L 26,28  L 27,28  L 27,26  L 28,26  L 28,27  L 29,27  L 29,28  L 30,28  L 30,26  L 31,26  L 31,25  L 32,25  L 32,22  L 31,22  L 31,24  L 30,24  L 30,23  Z  M 29,25  L 28,25  L 28,23  L 29,23  Z  " style="fill:rgb(87, 92, 29); fill-opacity:1.000; stroke:none;" />
 <path d="  M 30,22  L 31,22  L 31,21  L 30,21  Z  " style="fill:rgb(87, 92, 29); fill-opacity:1.000; stroke:none;" />
 <path d="  M 3,13  L 3,12  L 4,12  L 4,13  Z  M 5,14  L 5,12  L 4,12  L 4,11  L 2,11  L 2,12  L 1,12  L 1,16  L 2,16  L 2,14  L 3,14  L 3,15  L 4,15  L 4,16  L 5,16  L 5,17  L 4,17  L 4,19  L 5,19  L 5,18  L 6,18  L 6,19  L 7,19  L 7,20  L 8,20  L 8,17  L 7,17  L 7,16  L 8,16  L 8,14  L 7,14  L 7,12  L 6,12  L 6,14  Z  M 7,15  L 7,16  L 6,16  L 6,15  Z  " style="fill:rgb(108, 114, 42); fill-opacity:1.000; stroke:none;" />
 <path d="  M 2,19  L 2,18  L 1,18  L 1,20  L 2,20  L 2,22  L 3,22  L 3,19  Z  " style="fill:rgb(108, 114, 42); fill-opacity:1.000; stroke:none;" />
 <path d="  M 7,20  L 6,20  L 6,22  L 7,22  Z  " style="fill:rgb(108, 114, 42); fill-opacity:1.000; stroke:none;" />
 <path d="  M 8,9  L 9,9  L 9,7  L 10,7  L 10,4  L 9,4  L 9,6  L 8,6  Z  " style="fill:rgb(108, 114, 42); fill-opacity:1.000; stroke:none;" />
 <path d="  M 10,13  L 10,12  L 11,12  L 11,10  L 10,10  L 10,11  L 9,11  L 9,12  L 8,12  L 8,14  L 9,14  L 9,15  L 10,15  L 10,14  L 11,14  L 11,13  Z  " style="fill:rgb(108, 114, 42); fill-opacity:1.000; stroke:none;" />
 <path d="  M 10,3  L 10,2  L 9,2  L 9,3  Z  " style="fill:rgb(108, 114, 42); fill-opacity:1.000; stroke:none;" />
 <path d="  M 10,3  L 10,4  L 14,4  L 14,3  Z  " style="fill:rgb(108, 114, 42); fill-opacity:1.000; stroke:none;" />
 <path d="  M 10,9  L 11,9  L 11,8  L 10,8  Z  " style="fill:rgb(108, 114, 42); fill-opacity:1.000; stroke:none;" />
 <path d="  M 10,15  L 10,16  L 11,16  L 11,15  Z  " style="fill:rgb(108, 114, 42); fill-opacity:1.000; stroke:none;" />
 <path d="  M 13,10  L 13,9  L 14,9  L 14,8  L 12,8  L 12,9  L 11,9  L 11,10  Z  " style="fill:rgb(108, 114, 42); fill-opacity:1.000; stroke:none;" />
 <path d="  M 13,18  L 12,18  L 12,17  L 11,17  L 11,19  L 12,19  L 12,20  L 13,20  L 13,19  L 14,19  L 14,20  L 15,20  L 15,21  L 16,21  L 16,20  L 17,20  L 17,19  L 16,19  L 16,17  L 15,17  L 15,15  L 14,15  L 14,16  L 13,16  Z  " style="fill:rgb(108, 114, 42); fill-opacity:1.000; stroke:none;" />
 <path d="  M 13,15  L 14,15  L 14,11  L 13,11  L 13,14  L 12,14  L 12,16  L 13,16  Z  " style="fill:rgb(108, 114, 42); fill-opacity:1.000; stroke:none;" />
 <path d="  M 15,2  L 14,2  L 14,3  L 15,3  Z  " style="fill:rgb(108, 114, 42); fill-opacity:1.000; stroke:none;" />
 <path d="  M 15,5  L 16,5  L 16,3  L 15,3  L 15,4  L 14,4  L 14,8  L 15,8  Z  " style="fill:rgb(108, 114, 42); fill-opacity:1.000; stroke:none;" />
 <path d="  M 14,10  L 14,11  L 15,11  L 15,10  Z  " style="fill:rgb(108, 114, 42); fill-opacity:1.000; stroke:none;" />
 <path d="  M 14,22  L 15,22  L 15,21  L 14,21  Z  " style="fill:rgb(108, 114, 42); fill-opacity:1.000; stroke:none;" />
 <path d="  M 16,8  L 15,8  L 15,9  L 16,9  Z  " style="fill:rgb(108, 114, 42); fill-opacity:1.000; stroke:none;" />
 <path d="  M 15,11  L 15,12  L 16,12  L 16,11  Z  " style="fill:rgb(108, 114, 42); fill-opacity:1.000; stroke:none;" />
 <path d="  M 16,17  L 17,17  L 17,16  L 16,16  Z  " style="fill:rgb(108, 114, 42); fill-opacity:1.000; stroke:none;" />
 <path d="  M 18,13  L 17,13  L 17,14  L 18,14  Z  " style="fill:rgb(108, 114, 42); fill-opacity:1.000; stroke:none;" />
 <path d="  M 17,20  L 17,23  L 18,23  L 18,22  L 19,22  L 19,20  L 20,20  L 20,18  L 19,18  L 19,19  L 18,19  L 18,20  Z  " style="fill:rgb(108, 114, 42); fill-opacity:1.000; stroke:none;" />
 <path d="  M 19,10  L 19,11  L 18,11  L 18,12  L 19,12  L 19,14  L 18,14  L 18,18  L 19,18  L 19,17  L 20,17  L 20,14  L 21,14  L 21,13  L 22,13  L 22,11  L 21,11  L 21,10  Z  M 20,12  L 21,12  L 21,13  L 20,13  Z  " style="fill:rgb(108, 114, 42); fill-opacity:1.000; stroke:none;" />
 <path d="  M 23,17  L 23,16  L 22,16  L 22,19  L 21,19  L 21,21  L 22,21  L 22,20  L 23,20  L 23,19  L 24,19  L 24,17  Z  " style="fill:rgb(108, 114, 42); fill-opacity:1.000; stroke:none;" />
 <path d="  M 26,16  L 25,16  L 25,15  L 24,15  L 24,17  L 25,17  L 25,18  L 26,18  L 26,17  L 27,17  L 27,18  L 28,18  L 28,19  L 29,19  L 29,20  L 30,20  L 30,17  L 31,17  L 31,16  L 32,16  L 32,13  L 31,13  L 31,15  L 30,15  L 30,16  L 29,16  L 29,14  L 28,14  L 28,13  L 27,13  L 27,12  L 28,12  L 28,10  L 27,10  L 27,11  L 26,11  L 26,13  L 25,13  L 25,14  L 26,14  Z  M 29,17  L 28,17  L 28,16  L 29,16  Z  " style="fill:rgb(108, 114, 42); fill-opacity:1.000; stroke:none;" />
 <path d="  M 25,20  L 25,19  L 24,19  L 24,20  Z  " style="fill:rgb(108, 114, 42); fill-opacity:1.000; stroke:none;" />
 <path d="  M 25,23  L 24,23  L 24,26  L 25,26  L 25,24  L 26,24  L 26,22  L 25,22  Z  " style="fill:rgb(108, 114, 42); fill-opacity:1.000; stroke:none;" />
 <path d="  M 31,13  L 31,12  L 30,12  L 30,13  Z  " style="fill:rgb(108, 114, 42); fill-opacity:1.000; stroke:none;" />
 <path d="  M 1,26  L 1,27  L 2,27  L 2,26  Z  " style="fill:rgb(46, 48, 18); fill-opacity:1.000; stroke:none;" />
 <path d="  M 4,28  L 4,29  L 5,29  L 5,28  Z  " style="fill:rgb(46, 48, 18); fill-opacity:1.000; stroke:none;" />
 <path d="  M 12,29  L 12,28  L 11,28  L 11,29  Z  " style="fill:rgb(46, 48, 18); fill-opacity:1.000; stroke:none;" />
 <path d="  M 16,25  L 16,24  L 15,24  L 15,25  Z  " style="fill:rgb(46, 48, 18); fill-opacity:1.000; stroke:none;" />
 <path d="  M 17,6  L 19,6  L 19,7  L 20,7  L 20,4  L 19,4  L 19,2  L 17,2  L 17,3  L 16,3  L 16,5  L 17,5  Z  " style="fill:rgb(46, 48, 18); fill-opacity:1.000; stroke:none;" />
 <path d="  M 16,10  L 17,10  L 17,9  L 16,9  Z  " style="fill:rgb(46, 48, 18); fill-opacity:1.000; stroke:none;" />
 <path d="  M 17,29  L 17,28  L 16,28  L 16,29  Z  " style="fill:rgb(46, 48, 18); fill-opacity:1.000; stroke:none;" />
 <path d="  M 19,8  L 17,8  L 17,9  L 19,9  Z  " style="fill:rgb(46, 48, 18); fill-opacity:1.000; stroke:none;" />
 <path d="  M 23,9  L 23,8  L 22,8  L 22,6  L 21,6  L 21,7  L 20,7  L 20,8  L 21,8  L 21,9  L 22,9  L 22,10  L 24,10  L 24,9  Z  " style="fill:rgb(46, 48, 18); fill-opacity:1.000; stroke:none;" />
 <path d="  M 23,29  L 23,28  L 22,28  L 22,29  Z  " style="fill:rgb(46, 48, 18); fill-opacity:1.000; stroke:none;" />
 <path d="  M 27,29  L 28,29  L 28,28  L 27,28  Z  " style="fill:rgb(46, 48, 18); fill-opacity:1.000; stroke:none;" />
 <path d="  M 28,24  L 28,25  L 29,25  L 29,24  Z  " style="fill:rgb(46, 48, 18); fill-opacity:1.000; stroke:none;" />
 <path d="  M 31,29  L 32,29  L 32,28  L 31,28  Z  " style="fill:rgb(46, 48, 18); fill-opacity:1.000; stroke:none;" />
 <path d="  M 3,0  L 2,0  L 2,1  L 3,1  Z  " style="fill:rgb(216, 255, 214); fill-opacity:1.000; stroke:none;" />
 <path d="  M 2,6  L 2,7  L 3,7  L 3,6  Z  " style="fill:rgb(216, 255, 214); fill-opacity:1.000; stroke:none;" />
 <path d="  M 4,2  L 4,1  L 3,1  L 3,2  Z  " style="fill:rgb(216, 255, 214); fill-opacity:1.000; stroke:none;" />
 <path d="  M 3,6  L 4,6  L 4,4  L 3,4  Z  " style="fill:rgb(216, 255, 214); fill-opacity:1.000; stroke:none;" />
 <path d="  M 3,8  L 4,8  L 4,7  L 3,7  Z  " style="fill:rgb(216, 255, 214); fill-opacity:1.000; stroke:none;" />
 <path d="  M 27,1  L 26,1  L 26,2  L 27,2  Z  " style="fill:rgb(216, 255, 214); fill-opacity:1.000; stroke:none;" />
 <path d="  M 28,2  L 27,2  L 27,4  L 28,4  Z  " style="fill:rgb(216, 255, 214); fill-opacity:1.000; stroke:none;" />
 <path d="  M 29,5  L 28,5  L 28,7  L 29,7  Z  " style="fill:rgb(216, 255, 214); fill-opacity:1.000; stroke:none;" />
 <path d="  M 2,2  L 3,2  L 3,1  L 2,1  Z  " style="fill:rgb(197, 244, 194); fill-opacity:1.000; stroke:none;" />
 <path d="  M 3,6  L 3,5  L 2,5  L 2,6  Z  " style="fill:rgb(197, 244, 194); fill-opacity:1.000; stroke:none;" />
 <path d="  M 3,7  L 2,7  L 2,8  L 3,8  Z  " style="fill:rgb(197, 244, 194); fill-opacity:1.000; stroke:none;" />
 <path d="  M 4,5  L 5,5  L 5,3  L 4,3  L 4,2  L 3,2  L 3,4  L 4,4  Z  " style="fill:rgb(197, 244, 194); fill-opacity:1.000; stroke:none;" />
 <path d="  M 3,7  L 4,7  L 4,6  L 3,6  Z  " style="fill:rgb(197, 244, 194); fill-opacity:1.000; stroke:none;" />
 <path d="  M 3,9  L 4,9  L 4,8  L 3,8  Z  " style="fill:rgb(197, 244, 194); fill-opacity:1.000; stroke:none;" />
 <path d="  M 27,3  L 27,2  L 26,2  L 26,3  Z  " style="fill:rgb(197, 244, 194); fill-opacity:1.000; stroke:none;" />
 <path d="  M 27,4  L 27,6  L 28,6  L 28,5  L 29,5  L 29,4  Z  " style="fill:rgb(197, 244, 194); fill-opacity:1.000; stroke:none;" />
 <path d="  M 28,7  L 28,9  L 29,9  L 29,7  Z  " style="fill:rgb(197, 244, 194); fill-opacity:1.000; stroke:none;" />
 <path d="  M 2,8  L 2,9  L 3,9  L 3,8  Z  " style="fill:rgb(180, 227, 177); fill-opacity:1.000; stroke:none;" />
 <path d="  M 3,9  L 3,10  L 5,10  L 5,9  Z  " style="fill:rgb(180, 227, 177); fill-opacity:1.000; stroke:none;" />
 <path d="  M 4,3  L 5,3  L 5,2  L 4,2  Z  " style="fill:rgb(180, 227, 177); fill-opacity:1.000; stroke:none;" />
 <path d="  M 4,8  L 5,8  L 5,6  L 6,6  L 6,3  L 5,3  L 5,5  L 4,5  Z  " style="fill:rgb(180, 227, 177); fill-opacity:1.000; stroke:none;" />
 <path d="  M 30,10  L 30,4  L 29,4  L 29,9  L 27,9  L 27,10  Z  " style="fill:rgb(180, 227, 177); fill-opacity:1.000; stroke:none;" />
 <path d="  M 28,4  L 29,4  L 29,3  L 28,3  Z  " style="fill:rgb(180, 227, 177); fill-opacity:1.000; stroke:none;" />
 <path d="  M 16,3  L 17,3  L 17,2  L 16,2  Z  " style="fill:rgb(63, 67, 22); fill-opacity:1.000; stroke:none;" />
 <path d="  M 16,5  L 16,6  L 17,6  L 17,5  Z  " style="fill:rgb(63, 67, 22); fill-opacity:1.000; stroke:none;" />
 <path d="  M 17,8  L 16,8  L 16,9  L 17,9  Z  " style="fill:rgb(63, 67, 22); fill-opacity:1.000; stroke:none;" />
 <path d="  M 17,8  L 18,8  L 18,7  L 17,7  Z  " style="fill:rgb(63, 67, 22); fill-opacity:1.000; stroke:none;" />
 <path d="  M 18,10  L 18,9  L 17,9  L 17,10  Z  " style="fill:rgb(63, 67, 22); fill-opacity:1.000; stroke:none;" />
 <path d="  M 19,6  L 18,6  L 18,7  L 19,7  Z  " style="fill:rgb(63, 67, 22); fill-opacity:1.000; stroke:none;" />
 <path d="  M 19,4  L 20,4  L 20,3  L 19,3  Z  " style="fill:rgb(63, 67, 22); fill-opacity:1.000; stroke:none;" />
 <path d="  M 20,8  L 20,7  L 19,7  L 19,8  Z  " style="fill:rgb(63, 67, 22); fill-opacity:1.000; stroke:none;" />
 <path d="  M 20,9  L 19,9  L 19,10  L 20,10  Z  " style="fill:rgb(63, 67, 22); fill-opacity:1.000; stroke:none;" />
 <path d="  M 20,2  L 20,3  L 21,3  L 21,2  Z  " style="fill:rgb(63, 67, 22); fill-opacity:1.000; stroke:none;" />
 <path d="  M 24,6  L 24,4  L 23,4  L 23,5  L 22,5  L 22,4  L 20,4  L 20,5  L 21,5  L 21,6  Z  " style="fill:rgb(63, 67, 22); fill-opacity:1.000; stroke:none;" />
 <path d="  M 21,7  L 21,6  L 20,6  L 20,7  Z  " style="fill:rgb(63, 67, 22); fill-opacity:1.000; stroke:none;" />
 <path d="  M 21,8  L 20,8  L 20,9  L 21,9  Z  " style="fill:rgb(63, 67, 22); fill-opacity:1.000; stroke:none;" />
 <path d="  M 21,9  L 21,10  L 22,10  L 22,9  Z  " style="fill:rgb(63, 67, 22); fill-opacity:1.000; stroke:none;" />
 <path d="  M 22,4  L 23,4  L 23,3  L 22,3  Z  " style="fill:rgb(63, 67, 22); fill-opacity:1.000; stroke:none;" />
 <path d="  M 23,7  L 22,7  L 22,8  L 23,8  Z  " style="fill:rgb(63, 67, 22); fill-opacity:1.000; stroke:none;" />
 <path d="  M 24,8  L 23,8  L 23,9  L 24,9  Z  " style="fill:rgb(63, 67, 22); fill-opacity:1.000; stroke:none;" />
</svg>
