<?xml version="1.0" encoding="UTF-8" standalone="no"?>
<!DOCTYPE svg PUBLIC "-//W3C//DTD SVG 1.1//EN" 
  "http://www.w3.org/Graphics/SVG/1.1/DTD/svg11.dtd">
<svg width="32" height="32"
	 xmlns="http://www.w3.org/2000/svg" version="1.1">
 <path d="  M 1,2  L 2,2  L 2,1  L 1,1  L 1,0  L 0,0  L 0,4  L 1,4  Z  " style="fill:rgb(115, 194, 98); fill-opacity:0.706; stroke:none;" />
 <path d="  M 1,10  L 0,10  L 0,12  L 1,12  Z  " style="fill:rgb(115, 194, 98); fill-opacity:0.706; stroke:none;" />
 <path d="  M 2,19  L 2,17  L 3,17  L 3,13  L 2,13  L 2,12  L 1,12  L 1,13  L 0,13  L 0,20  L 1,20  L 1,22  L 2,22  L 2,25  L 3,25  L 3,26  L 6,26  L 6,25  L 5,25  L 5,24  L 4,24  L 4,23  L 3,23  L 3,20  L 4,20  L 4,22  L 5,22  L 5,23  L 6,23  L 6,24  L 9,24  L 9,25  L 10,25  L 10,26  L 13,26  L 13,25  L 14,25  L 14,24  L 15,24  L 15,26  L 16,26  L 16,25  L 18,25  L 18,24  L 20,24  L 20,22  L 19,22  L 19,21  L 18,21  L 18,20  L 16,20  L 16,19  L 18,19  L 18,18  L 19,18  L 19,19  L 21,19  L 21,18  L 25,18  L 25,15  L 26,15  L 26,12  L 27,12  L 27,10  L 26,10  L 26,5  L 27,5  L 27,4  L 26,4  L 26,3  L 25,3  L 25,2  L 23,2  L 23,1  L 20,1  L 20,0  L 16,0  L 16,1  L 17,1  L 17,2  L 18,2  L 18,4  L 20,4  L 20,5  L 17,5  L 17,6  L 15,6  L 15,7  L 14,7  L 14,8  L 13,8  L 13,9  L 14,9  L 14,10  L 13,10  L 13,11  L 11,11  L 11,12  L 7,12  L 7,14  L 6,14  L 6,18  L 7,18  L 7,20  L 8,20  L 8,22  L 7,22  L 7,21  L 6,21  L 6,20  L 5,20  L 5,17  L 4,17  L 4,18  L 3,18  L 3,19  Z  M 22,4  L 22,3  L 23,3  L 23,4  L 24,4  L 24,6  L 22,6  L 22,7  L 21,7  L 21,4  Z  M 14,18  L 14,17  L 15,17  L 15,18  Z  M 20,9  L 21,9  L 21,8  L 23,8  L 23,9  L 24,9  L 24,11  L 23,11  L 23,12  L 21,12  L 21,14  L 20,14  L 20,13  L 19,13  L 19,14  L 18,14  L 18,13  L 16,13  L 16,12  L 17,12  L 17,11  L 16,11  L 16,8  L 17,8  L 17,9  L 18,9  L 18,10  L 20,10  Z  M 1,16  L 2,16  L 2,17  L 1,17  Z  M 13,20  L 13,19  L 12,19  L 12,18  L 9,18  L 9,17  L 8,17  L 8,15  L 9,15  L 9,14  L 11,14  L 11,15  L 12,15  L 12,16  L 13,16  L 13,18  L 14,18  L 14,20  Z  " style="fill:rgb(115, 194, 98); fill-opacity:0.706; stroke:none;" />
 <path d="  M 0,32  L 3,32  L 3,31  L 2,31  L 2,30  L 1,30  L 1,29  L 0,29  Z  " style="fill:rgb(115, 194, 98); fill-opacity:0.706; stroke:none;" />
 <path d="  M 2,1  L 4,1  L 4,0  L 2,0  Z  " style="fill:rgb(115, 194, 98); fill-opacity:0.706; stroke:none;" />
 <path d="  M 4,2  L 5,2  L 5,1  L 4,1  Z  " style="fill:rgb(115, 194, 98); fill-opacity:0.706; stroke:none;" />
 <path d="  M 5,8  L 4,8  L 4,9  L 5,9  Z  " style="fill:rgb(115, 194, 98); fill-opacity:0.706; stroke:none;" />
 <path d="  M 4,14  L 5,14  L 5,12  L 4,12  Z  " style="fill:rgb(115, 194, 98); fill-opacity:0.706; stroke:none;" />
 <path d="  M 5,8  L 6,8  L 6,6  L 5,6  Z  " style="fill:rgb(115, 194, 98); fill-opacity:0.706; stroke:none;" />
 <path d="  M 5,10  L 5,12  L 6,12  L 6,11  L 8,11  L 8,10  Z  " style="fill:rgb(115, 194, 98); fill-opacity:0.706; stroke:none;" />
 <path d="  M 16,5  L 16,4  L 17,4  L 17,3  L 16,3  L 16,2  L 13,2  L 13,3  L 12,3  L 12,4  L 7,4  L 7,5  L 6,5  L 6,6  L 7,6  L 7,7  L 8,7  L 8,5  L 11,5  L 11,6  L 14,6  L 14,5  Z  " style="fill:rgb(115, 194, 98); fill-opacity:0.706; stroke:none;" />
 <path d="  M 8,29  L 8,28  L 7,28  L 7,29  L 6,29  L 6,30  L 7,30  L 7,31  L 10,31  L 10,32  L 12,32  L 12,31  L 14,31  L 14,30  L 11,30  L 11,29  Z  " style="fill:rgb(115, 194, 98); fill-opacity:0.706; stroke:none;" />
 <path d="  M 9,2  L 8,2  L 8,3  L 11,3  L 11,2  L 10,2  L 10,1  L 9,1  Z  " style="fill:rgb(115, 194, 98); fill-opacity:0.706; stroke:none;" />
 <path d="  M 8,27  L 9,27  L 9,26  L 8,26  Z  " style="fill:rgb(115, 194, 98); fill-opacity:0.706; stroke:none;" />
 <path d="  M 10,8  L 10,9  L 9,9  L 9,10  L 11,10  L 11,9  L 12,9  L 12,8  Z  " style="fill:rgb(115, 194, 98); fill-opacity:0.706; stroke:none;" />
 <path d="  M 12,0  L 10,0  L 10,1  L 11,1  L 11,2  L 13,2  L 13,1  L 12,1  Z  " style="fill:rgb(115, 194, 98); fill-opacity:0.706; stroke:none;" />
 <path d="  M 12,28  L 12,27  L 10,27  L 10,28  Z  " style="fill:rgb(115, 194, 98); fill-opacity:0.706; stroke:none;" />
 <path d="  M 13,9  L 12,9  L 12,10  L 13,10  Z  " style="fill:rgb(115, 194, 98); fill-opacity:0.706; stroke:none;" />
 <path d="  M 13,26  L 13,27  L 15,27  L 15,26  Z  " style="fill:rgb(115, 194, 98); fill-opacity:0.706; stroke:none;" />
 <path d="  M 21,25  L 21,26  L 19,26  L 19,27  L 16,27  L 16,28  L 24,28  L 24,27  L 25,27  L 25,26  L 23,26  L 23,25  Z  " style="fill:rgb(115, 194, 98); fill-opacity:0.706; stroke:none;" />
 <path d="  M 19,32  L 19,31  L 16,31  L 16,32  Z  " style="fill:rgb(115, 194, 98); fill-opacity:0.706; stroke:none;" />
 <path d="  M 19,30  L 19,31  L 20,31  L 20,32  L 26,32  L 26,31  L 27,31  L 27,30  L 26,30  L 26,29  L 25,29  L 25,30  Z  " style="fill:rgb(115, 194, 98); fill-opacity:0.706; stroke:none;" />
 <path d="  M 28,7  L 27,7  L 27,10  L 28,10  L 28,16  L 27,16  L 27,18  L 26,18  L 26,19  L 25,19  L 25,20  L 24,20  L 24,21  L 23,21  L 23,22  L 25,22  L 25,23  L 26,23  L 26,25  L 27,25  L 27,20  L 28,20  L 28,18  L 29,18  L 29,14  L 30,14  L 30,16  L 31,16  L 31,20  L 32,20  L 32,10  L 31,10  L 31,7  L 30,7  L 30,5  L 29,5  L 29,4  L 28,4  Z  M 29,10  L 28,10  L 28,9  L 29,9  Z  " style="fill:rgb(115, 194, 98); fill-opacity:0.706; stroke:none;" />
 <path d="  M 28,3  L 28,2  L 27,2  L 27,3  Z  " style="fill:rgb(115, 194, 98); fill-opacity:0.706; stroke:none;" />
 <path d="  M 28,24  L 29,24  L 29,22  L 28,22  Z  " style="fill:rgb(115, 194, 98); fill-opacity:0.706; stroke:none;" />
 <path d="  M 29,25  L 29,28  L 28,28  L 28,29  L 29,29  L 29,31  L 28,31  L 28,32  L 32,32  L 32,24  L 31,24  L 31,22  L 30,22  L 30,25  Z  " style="fill:rgb(115, 194, 98); fill-opacity:0.706; stroke:none;" />
 <path d="  M 30,4  L 30,3  L 29,3  L 29,4  Z  " style="fill:rgb(115, 194, 98); fill-opacity:0.706; stroke:none;" />
 <path d="  M 29,21  L 30,21  L 30,20  L 29,20  Z  " style="fill:rgb(115, 194, 98); fill-opacity:0.706; stroke:none;" />
 <path d="  M 32,0  L 30,0  L 30,1  L 31,1  L 31,2  L 32,2  Z  " style="fill:rgb(115, 194, 98); fill-opacity:0.706; stroke:none;" />
 <path d="  M 3,3  L 1,3  L 1,4  L 0,4  L 0,6  L 1,6  L 1,7  L 2,7  L 2,6  L 3,6  Z  " style="fill:rgb(123, 202, 98); fill-opacity:0.706; stroke:none;" />
 <path d="  M 1,12  L 2,12  L 2,9  L 1,9  L 1,8  L 0,8  L 0,10  L 1,10  Z  " style="fill:rgb(123, 202, 98); fill-opacity:0.706; stroke:none;" />
 <path d="  M 1,13  L 1,12  L 0,12  L 0,13  Z  " style="fill:rgb(123, 202, 98); fill-opacity:0.706; stroke:none;" />
 <path d="  M 1,23  L 0,23  L 0,26  L 1,26  Z  " style="fill:rgb(123, 202, 98); fill-opacity:0.706; stroke:none;" />
 <path d="  M 1,16  L 1,17  L 2,17  L 2,16  Z  " style="fill:rgb(123, 202, 98); fill-opacity:0.706; stroke:none;" />
 <path d="  M 1,28  L 2,28  L 2,27  L 1,27  Z  " style="fill:rgb(123, 202, 98); fill-opacity:0.706; stroke:none;" />
 <path d="  M 4,10  L 3,10  L 3,12  L 2,12  L 2,13  L 3,13  L 3,17  L 2,17  L 2,19  L 3,19  L 3,18  L 4,18  Z  " style="fill:rgb(123, 202, 98); fill-opacity:0.706; stroke:none;" />
 <path d="  M 3,2  L 3,3  L 4,3  L 4,2  Z  " style="fill:rgb(123, 202, 98); fill-opacity:0.706; stroke:none;" />
 <path d="  M 4,22  L 4,20  L 3,20  L 3,23  L 4,23  L 4,24  L 6,24  L 6,23  L 5,23  L 5,22  Z  " style="fill:rgb(123, 202, 98); fill-opacity:0.706; stroke:none;" />
 <path d="  M 4,8  L 5,8  L 5,6  L 6,6  L 6,5  L 7,5  L 7,4  L 8,4  L 8,3  L 6,3  L 6,4  L 5,4  L 5,5  L 4,5  Z  " style="fill:rgb(123, 202, 98); fill-opacity:0.706; stroke:none;" />
 <path d="  M 7,31  L 7,30  L 6,30  L 6,29  L 5,29  L 5,30  L 4,30  L 4,31  L 5,31  L 5,32  L 10,32  L 10,31  Z  " style="fill:rgb(123, 202, 98); fill-opacity:0.706; stroke:none;" />
 <path d="  M 6,1  L 7,1  L 7,2  L 9,2  L 9,1  L 10,1  L 10,0  L 6,0  Z  " style="fill:rgb(123, 202, 98); fill-opacity:0.706; stroke:none;" />
 <path d="  M 6,28  L 6,29  L 7,29  L 7,28  Z  " style="fill:rgb(123, 202, 98); fill-opacity:0.706; stroke:none;" />
 <path d="  M 9,27  L 13,27  L 13,26  L 10,26  L 10,25  L 9,25  L 9,24  L 7,24  L 7,25  L 8,25  L 8,26  L 9,26  Z  " style="fill:rgb(123, 202, 98); fill-opacity:0.706; stroke:none;" />
 <path d="  M 8,28  L 8,29  L 11,29  L 11,30  L 20,30  L 20,29  L 16,29  L 16,28  Z  " style="fill:rgb(123, 202, 98); fill-opacity:0.706; stroke:none;" />
 <path d="  M 10,1  L 10,2  L 11,2  L 11,1  Z  " style="fill:rgb(123, 202, 98); fill-opacity:0.706; stroke:none;" />
 <path d="  M 11,5  L 10,5  L 10,6  L 11,6  Z  " style="fill:rgb(123, 202, 98); fill-opacity:0.706; stroke:none;" />
 <path d="  M 11,3  L 13,3  L 13,2  L 11,2  Z  " style="fill:rgb(123, 202, 98); fill-opacity:0.706; stroke:none;" />
 <path d="  M 14,7  L 14,6  L 11,6  L 11,7  L 12,7  L 12,8  L 13,8  L 13,7  Z  " style="fill:rgb(123, 202, 98); fill-opacity:0.706; stroke:none;" />
 <path d="  M 13,16  L 12,16  L 12,17  L 11,17  L 11,18  L 12,18  L 12,19  L 13,19  L 13,20  L 14,20  L 14,18  L 13,18  Z  " style="fill:rgb(123, 202, 98); fill-opacity:0.706; stroke:none;" />
 <path d="  M 13,2  L 16,2  L 16,1  L 13,1  Z  " style="fill:rgb(123, 202, 98); fill-opacity:0.706; stroke:none;" />
 <path d="  M 14,26  L 14,25  L 13,25  L 13,26  Z  " style="fill:rgb(123, 202, 98); fill-opacity:0.706; stroke:none;" />
 <path d="  M 15,18  L 15,17  L 14,17  L 14,18  Z  " style="fill:rgb(123, 202, 98); fill-opacity:0.706; stroke:none;" />
 <path d="  M 14,24  L 14,25  L 15,25  L 15,24  Z  " style="fill:rgb(123, 202, 98); fill-opacity:0.706; stroke:none;" />
 <path d="  M 18,2  L 16,2  L 16,3  L 17,3  L 17,4  L 18,4  Z  " style="fill:rgb(123, 202, 98); fill-opacity:0.706; stroke:none;" />
 <path d="  M 17,11  L 17,10  L 16,10  L 16,11  Z  " style="fill:rgb(123, 202, 98); fill-opacity:0.706; stroke:none;" />
 <path d="  M 18,12  L 16,12  L 16,13  L 18,13  Z  " style="fill:rgb(123, 202, 98); fill-opacity:0.706; stroke:none;" />
 <path d="  M 17,26  L 17,25  L 16,25  L 16,26  Z  " style="fill:rgb(123, 202, 98); fill-opacity:0.706; stroke:none;" />
 <path d="  M 19,11  L 19,10  L 18,10  L 18,11  Z  " style="fill:rgb(123, 202, 98); fill-opacity:0.706; stroke:none;" />
 <path d="  M 19,14  L 19,13  L 18,13  L 18,14  Z  " style="fill:rgb(123, 202, 98); fill-opacity:0.706; stroke:none;" />
 <path d="  M 19,19  L 19,18  L 18,18  L 18,19  Z  " style="fill:rgb(123, 202, 98); fill-opacity:0.706; stroke:none;" />
 <path d="  M 19,11  L 19,13  L 20,13  L 20,14  L 21,14  L 21,12  L 20,12  L 20,11  Z  " style="fill:rgb(123, 202, 98); fill-opacity:0.706; stroke:none;" />
 <path d="  M 20,19  L 19,19  L 19,20  L 20,20  Z  " style="fill:rgb(123, 202, 98); fill-opacity:0.706; stroke:none;" />
 <path d="  M 24,6  L 24,5  L 23,5  L 23,4  L 22,4  L 22,5  L 21,5  L 21,7  L 22,7  L 22,6  Z  " style="fill:rgb(123, 202, 98); fill-opacity:0.706; stroke:none;" />
 <path d="  M 21,28  L 21,29  L 25,29  L 25,28  L 27,28  L 27,27  L 28,27  L 28,22  L 29,22  L 29,20  L 30,20  L 30,14  L 29,14  L 29,18  L 28,18  L 28,20  L 27,20  L 27,25  L 26,25  L 26,26  L 25,26  L 25,27  L 24,27  L 24,28  Z  " style="fill:rgb(123, 202, 98); fill-opacity:0.706; stroke:none;" />
 <path d="  M 26,2  L 29,2  L 29,1  L 28,1  L 28,0  L 24,0  L 24,1  L 26,1  Z  " style="fill:rgb(123, 202, 98); fill-opacity:0.706; stroke:none;" />
 <path d="  M 25,2  L 25,3  L 26,3  L 26,2  Z  " style="fill:rgb(123, 202, 98); fill-opacity:0.706; stroke:none;" />
 <path d="  M 26,3  L 26,4  L 27,4  L 27,3  Z  " style="fill:rgb(123, 202, 98); fill-opacity:0.706; stroke:none;" />
 <path d="  M 31,3  L 30,3  L 30,5  L 31,5  Z  " style="fill:rgb(123, 202, 98); fill-opacity:0.706; stroke:none;" />
 <path d="  M 31,6  L 32,6  L 32,5  L 31,5  Z  " style="fill:rgb(123, 202, 98); fill-opacity:0.706; stroke:none;" />
 <path d="  M 1,7  L 1,6  L 0,6  L 0,8  L 1,8  L 1,9  L 2,9  L 2,7  Z  " style="fill:rgb(98, 182, 74); fill-opacity:0.706; stroke:none;" />
 <path d="  M 2,22  L 1,22  L 1,20  L 0,20  L 0,23  L 1,23  L 1,27  L 2,27  L 2,26  L 3,26  L 3,25  L 2,25  Z  " style="fill:rgb(98, 182, 74); fill-opacity:0.706; stroke:none;" />
 <path d="  M 1,1  L 2,1  L 2,0  L 1,0  Z  " style="fill:rgb(98, 182, 74); fill-opacity:0.706; stroke:none;" />
 <path d="  M 3,2  L 4,2  L 4,1  L 2,1  L 2,2  L 1,2  L 1,3  L 3,3  Z  " style="fill:rgb(98, 182, 74); fill-opacity:0.706; stroke:none;" />
 <path d="  M 3,28  L 3,27  L 2,27  L 2,28  Z  " style="fill:rgb(98, 182, 74); fill-opacity:0.706; stroke:none;" />
 <path d="  M 3,27  L 4,27  L 4,26  L 3,26  Z  " style="fill:rgb(98, 182, 74); fill-opacity:0.706; stroke:none;" />
 <path d="  M 4,0  L 4,1  L 5,1  L 5,2  L 7,2  L 7,1  L 6,1  L 6,0  Z  " style="fill:rgb(98, 182, 74); fill-opacity:0.706; stroke:none;" />
 <path d="  M 4,12  L 5,12  L 5,10  L 6,10  L 6,9  L 7,9  L 7,8  L 9,8  L 9,7  L 7,7  L 7,6  L 6,6  L 6,8  L 5,8  L 5,9  L 4,9  Z  " style="fill:rgb(98, 182, 74); fill-opacity:0.706; stroke:none;" />
 <path d="  M 6,14  L 7,14  L 7,12  L 11,12  L 11,11  L 13,11  L 13,10  L 12,10  L 12,9  L 11,9  L 11,10  L 9,10  L 9,9  L 8,9  L 8,11  L 6,11  L 6,12  L 5,12  L 5,14  L 4,14  L 4,17  L 5,17  L 5,20  L 6,20  L 6,21  L 7,21  L 7,22  L 8,22  L 8,20  L 7,20  L 7,18  L 6,18  Z  " style="fill:rgb(98, 182, 74); fill-opacity:0.706; stroke:none;" />
 <path d="  M 4,30  L 5,30  L 5,28  L 4,28  Z  " style="fill:rgb(98, 182, 74); fill-opacity:0.706; stroke:none;" />
 <path d="  M 5,28  L 6,28  L 6,27  L 5,27  Z  " style="fill:rgb(98, 182, 74); fill-opacity:0.706; stroke:none;" />
 <path d="  M 8,26  L 6,26  L 6,27  L 7,27  L 7,28  L 10,28  L 10,27  L 8,27  Z  " style="fill:rgb(98, 182, 74); fill-opacity:0.706; stroke:none;" />
 <path d="  M 10,6  L 10,5  L 8,5  L 8,6  Z  " style="fill:rgb(98, 182, 74); fill-opacity:0.706; stroke:none;" />
 <path d="  M 9,14  L 9,15  L 8,15  L 8,16  L 10,16  L 10,15  L 11,15  L 11,14  Z  " style="fill:rgb(98, 182, 74); fill-opacity:0.706; stroke:none;" />
 <path d="  M 10,8  L 9,8  L 9,9  L 10,9  Z  " style="fill:rgb(98, 182, 74); fill-opacity:0.706; stroke:none;" />
 <path d="  M 12,8  L 12,7  L 11,7  L 11,6  L 10,6  L 10,8  Z  " style="fill:rgb(98, 182, 74); fill-opacity:0.706; stroke:none;" />
 <path d="  M 11,17  L 11,16  L 10,16  L 10,17  Z  " style="fill:rgb(98, 182, 74); fill-opacity:0.706; stroke:none;" />
 <path d="  M 12,0  L 12,1  L 16,1  L 16,0  Z  " style="fill:rgb(98, 182, 74); fill-opacity:0.706; stroke:none;" />
 <path d="  M 12,9  L 13,9  L 13,8  L 12,8  Z  " style="fill:rgb(98, 182, 74); fill-opacity:0.706; stroke:none;" />
 <path d="  M 19,27  L 19,26  L 20,26  L 20,25  L 21,25  L 21,24  L 22,24  L 22,23  L 23,23  L 23,22  L 21,22  L 21,23  L 20,23  L 20,24  L 19,24  L 19,25  L 18,25  L 18,26  L 15,26  L 15,27  L 12,27  L 12,28  L 16,28  L 16,27  Z  " style="fill:rgb(98, 182, 74); fill-opacity:0.706; stroke:none;" />
 <path d="  M 14,30  L 14,31  L 12,31  L 12,32  L 16,32  L 16,31  L 19,31  L 19,30  Z  " style="fill:rgb(98, 182, 74); fill-opacity:0.706; stroke:none;" />
 <path d="  M 13,7  L 13,8  L 14,8  L 14,7  Z  " style="fill:rgb(98, 182, 74); fill-opacity:0.706; stroke:none;" />
 <path d="  M 13,10  L 14,10  L 14,9  L 13,9  Z  " style="fill:rgb(98, 182, 74); fill-opacity:0.706; stroke:none;" />
 <path d="  M 16,4  L 16,5  L 14,5  L 14,7  L 15,7  L 15,6  L 17,6  L 17,5  L 20,5  L 20,4  Z  " style="fill:rgb(98, 182, 74); fill-opacity:0.706; stroke:none;" />
 <path d="  M 16,2  L 17,2  L 17,1  L 16,1  Z  " style="fill:rgb(98, 182, 74); fill-opacity:0.706; stroke:none;" />
 <path d="  M 16,10  L 17,10  L 17,11  L 18,11  L 18,9  L 17,9  L 17,8  L 16,8  Z  " style="fill:rgb(98, 182, 74); fill-opacity:0.706; stroke:none;" />
 <path d="  M 16,19  L 16,20  L 19,20  L 19,19  Z  " style="fill:rgb(98, 182, 74); fill-opacity:0.706; stroke:none;" />
 <path d="  M 22,19  L 21,19  L 21,20  L 19,20  L 19,22  L 21,22  L 21,21  L 22,21  Z  " style="fill:rgb(98, 182, 74); fill-opacity:0.706; stroke:none;" />
 <path d="  M 20,32  L 20,31  L 19,31  L 19,32  Z  " style="fill:rgb(98, 182, 74); fill-opacity:0.706; stroke:none;" />
 <path d="  M 20,1  L 21,1  L 21,0  L 20,0  Z  " style="fill:rgb(98, 182, 74); fill-opacity:0.706; stroke:none;" />
 <path d="  M 21,4  L 21,5  L 22,5  L 22,4  Z  " style="fill:rgb(98, 182, 74); fill-opacity:0.706; stroke:none;" />
 <path d="  M 23,12  L 23,11  L 24,11  L 24,10  L 23,10  L 23,9  L 22,9  L 22,10  L 21,10  L 21,11  L 22,11  L 22,12  Z  " style="fill:rgb(98, 182, 74); fill-opacity:0.706; stroke:none;" />
 <path d="  M 26,2  L 26,1  L 24,1  L 24,0  L 22,0  L 22,1  L 23,1  L 23,2  Z  " style="fill:rgb(98, 182, 74); fill-opacity:0.706; stroke:none;" />
 <path d="  M 22,4  L 23,4  L 23,3  L 22,3  Z  " style="fill:rgb(98, 182, 74); fill-opacity:0.706; stroke:none;" />
 <path d="  M 22,19  L 23,19  L 23,18  L 22,18  Z  " style="fill:rgb(98, 182, 74); fill-opacity:0.706; stroke:none;" />
 <path d="  M 23,4  L 23,5  L 24,5  L 24,4  Z  " style="fill:rgb(98, 182, 74); fill-opacity:0.706; stroke:none;" />
 <path d="  M 23,20  L 25,20  L 25,18  L 24,18  L 24,19  L 23,19  Z  " style="fill:rgb(98, 182, 74); fill-opacity:0.706; stroke:none;" />
 <path d="  M 23,23  L 23,24  L 24,24  L 24,23  Z  " style="fill:rgb(98, 182, 74); fill-opacity:0.706; stroke:none;" />
 <path d="  M 26,25  L 26,24  L 24,24  L 24,25  L 23,25  L 23,26  L 25,26  L 25,25  Z  " style="fill:rgb(98, 182, 74); fill-opacity:0.706; stroke:none;" />
 <path d="  M 26,16  L 25,16  L 25,18  L 26,18  Z  " style="fill:rgb(98, 182, 74); fill-opacity:0.706; stroke:none;" />
 <path d="  M 26,10  L 27,10  L 27,7  L 28,7  L 28,5  L 27,5  L 27,6  L 26,6  Z  " style="fill:rgb(98, 182, 74); fill-opacity:0.706; stroke:none;" />
 <path d="  M 27,12  L 26,12  L 26,16  L 27,16  L 27,13  L 28,13  L 28,10  L 27,10  Z  " style="fill:rgb(98, 182, 74); fill-opacity:0.706; stroke:none;" />
 <path d="  M 27,29  L 26,29  L 26,30  L 27,30  Z  " style="fill:rgb(98, 182, 74); fill-opacity:0.706; stroke:none;" />
 <path d="  M 27,31  L 26,31  L 26,32  L 28,32  L 28,31  L 29,31  L 29,29  L 28,29  L 28,30  L 27,30  Z  " style="fill:rgb(98, 182, 74); fill-opacity:0.706; stroke:none;" />
 <path d="  M 28,10  L 29,10  L 29,9  L 28,9  Z  " style="fill:rgb(98, 182, 74); fill-opacity:0.706; stroke:none;" />
 <path d="  M 32,10  L 32,6  L 31,6  L 31,5  L 30,5  L 30,7  L 31,7  L 31,10  Z  " style="fill:rgb(98, 182, 74); fill-opacity:0.706; stroke:none;" />
 <path d="  M 30,22  L 31,22  L 31,24  L 32,24  L 32,20  L 31,20  L 31,16  L 30,16  Z  " style="fill:rgb(98, 182, 74); fill-opacity:0.706; stroke:none;" />
 <path d="  M 0,29  L 1,29  L 1,30  L 2,30  L 2,31  L 3,31  L 3,32  L 5,32  L 5,31  L 4,31  L 4,30  L 3,30  L 3,29  L 2,29  L 2,28  L 1,28  L 1,26  L 0,26  Z  " style="fill:rgb(123, 206, 106); fill-opacity:0.706; stroke:none;" />
 <path d="  M 3,10  L 4,10  L 4,5  L 5,5  L 5,4  L 6,4  L 6,3  L 8,3  L 8,2  L 4,2  L 4,3  L 3,3  L 3,6  L 2,6  L 2,12  L 3,12  Z  " style="fill:rgb(123, 206, 106); fill-opacity:0.706; stroke:none;" />
 <path d="  M 6,26  L 8,26  L 8,25  L 7,25  L 7,24  L 5,24  L 5,25  L 6,25  Z  " style="fill:rgb(123, 206, 106); fill-opacity:0.706; stroke:none;" />
 <path d="  M 8,3  L 8,4  L 12,4  L 12,3  Z  " style="fill:rgb(123, 206, 106); fill-opacity:0.706; stroke:none;" />
 <path d="  M 21,29  L 21,28  L 16,28  L 16,29  L 20,29  L 20,30  L 25,30  L 25,29  Z  " style="fill:rgb(123, 206, 106); fill-opacity:0.706; stroke:none;" />
 <path d="  M 18,13  L 19,13  L 19,11  L 17,11  L 17,12  L 18,12  Z  " style="fill:rgb(123, 206, 106); fill-opacity:0.706; stroke:none;" />
 <path d="  M 19,11  L 20,11  L 20,10  L 19,10  Z  " style="fill:rgb(123, 206, 106); fill-opacity:0.706; stroke:none;" />
 <path d="  M 21,12  L 21,11  L 20,11  L 20,12  Z  " style="fill:rgb(123, 206, 106); fill-opacity:0.706; stroke:none;" />
 <path d="  M 28,29  L 28,28  L 29,28  L 29,25  L 30,25  L 30,21  L 29,21  L 29,24  L 28,24  L 28,27  L 27,27  L 27,28  L 25,28  L 25,29  Z  " style="fill:rgb(123, 206, 106); fill-opacity:0.706; stroke:none;" />
 <path d="  M 32,5  L 32,2  L 31,2  L 31,1  L 30,1  L 30,0  L 28,0  L 28,1  L 29,1  L 29,2  L 30,2  L 30,3  L 31,3  L 31,5  Z  " style="fill:rgb(123, 206, 106); fill-opacity:0.706; stroke:none;" />
 <path d="  M 2,26  L 2,27  L 3,27  L 3,26  Z  " style="fill:rgb(90, 170, 67); fill-opacity:0.706; stroke:none;" />
 <path d="  M 5,27  L 6,27  L 6,26  L 4,26  L 4,27  L 3,27  L 3,28  L 2,28  L 2,29  L 3,29  L 3,30  L 4,30  L 4,28  L 5,28  Z  " style="fill:rgb(90, 170, 67); fill-opacity:0.706; stroke:none;" />
 <path d="  M 6,29  L 6,28  L 5,28  L 5,29  Z  " style="fill:rgb(90, 170, 67); fill-opacity:0.706; stroke:none;" />
 <path d="  M 7,8  L 7,9  L 6,9  L 6,10  L 8,10  L 8,9  L 9,9  L 9,8  Z  " style="fill:rgb(90, 170, 67); fill-opacity:0.706; stroke:none;" />
 <path d="  M 7,28  L 7,27  L 6,27  L 6,28  Z  " style="fill:rgb(90, 170, 67); fill-opacity:0.706; stroke:none;" />
 <path d="  M 8,6  L 8,7  L 9,7  L 9,8  L 10,8  L 10,6  Z  " style="fill:rgb(90, 170, 67); fill-opacity:0.706; stroke:none;" />
 <path d="  M 11,18  L 11,17  L 10,17  L 10,16  L 8,16  L 8,17  L 9,17  L 9,18  Z  " style="fill:rgb(90, 170, 67); fill-opacity:0.706; stroke:none;" />
 <path d="  M 10,16  L 11,16  L 11,17  L 12,17  L 12,15  L 10,15  Z  " style="fill:rgb(90, 170, 67); fill-opacity:0.706; stroke:none;" />
 <path d="  M 14,25  L 14,26  L 15,26  L 15,25  Z  " style="fill:rgb(90, 170, 67); fill-opacity:0.706; stroke:none;" />
 <path d="  M 18,25  L 17,25  L 17,26  L 18,26  Z  " style="fill:rgb(90, 170, 67); fill-opacity:0.706; stroke:none;" />
 <path d="  M 19,21  L 19,20  L 18,20  L 18,21  Z  " style="fill:rgb(90, 170, 67); fill-opacity:0.706; stroke:none;" />
 <path d="  M 18,24  L 18,25  L 19,25  L 19,24  Z  " style="fill:rgb(90, 170, 67); fill-opacity:0.706; stroke:none;" />
 <path d="  M 22,10  L 22,9  L 23,9  L 23,8  L 21,8  L 21,9  L 20,9  L 20,11  L 21,11  L 21,10  Z  " style="fill:rgb(90, 170, 67); fill-opacity:0.706; stroke:none;" />
 <path d="  M 21,20  L 21,19  L 20,19  L 20,20  Z  " style="fill:rgb(90, 170, 67); fill-opacity:0.706; stroke:none;" />
 <path d="  M 21,22  L 20,22  L 20,23  L 21,23  Z  " style="fill:rgb(90, 170, 67); fill-opacity:0.706; stroke:none;" />
 <path d="  M 21,25  L 20,25  L 20,26  L 21,26  Z  " style="fill:rgb(90, 170, 67); fill-opacity:0.706; stroke:none;" />
 <path d="  M 21,1  L 22,1  L 22,0  L 21,0  Z  " style="fill:rgb(90, 170, 67); fill-opacity:0.706; stroke:none;" />
 <path d="  M 21,11  L 21,12  L 22,12  L 22,11  Z  " style="fill:rgb(90, 170, 67); fill-opacity:0.706; stroke:none;" />
 <path d="  M 22,19  L 22,18  L 21,18  L 21,19  Z  " style="fill:rgb(90, 170, 67); fill-opacity:0.706; stroke:none;" />
 <path d="  M 21,22  L 23,22  L 23,21  L 24,21  L 24,20  L 23,20  L 23,19  L 22,19  L 22,21  L 21,21  Z  " style="fill:rgb(90, 170, 67); fill-opacity:0.706; stroke:none;" />
 <path d="  M 24,25  L 24,24  L 23,24  L 23,23  L 22,23  L 22,24  L 21,24  L 21,25  Z  " style="fill:rgb(90, 170, 67); fill-opacity:0.706; stroke:none;" />
 <path d="  M 23,9  L 23,10  L 24,10  L 24,9  Z  " style="fill:rgb(90, 170, 67); fill-opacity:0.706; stroke:none;" />
 <path d="  M 24,19  L 24,18  L 23,18  L 23,19  Z  " style="fill:rgb(90, 170, 67); fill-opacity:0.706; stroke:none;" />
 <path d="  M 25,23  L 25,22  L 23,22  L 23,23  L 24,23  L 24,24  L 26,24  L 26,23  Z  " style="fill:rgb(90, 170, 67); fill-opacity:0.706; stroke:none;" />
 <path d="  M 26,16  L 26,15  L 25,15  L 25,16  Z  " style="fill:rgb(90, 170, 67); fill-opacity:0.706; stroke:none;" />
 <path d="  M 25,18  L 25,19  L 26,19  L 26,18  Z  " style="fill:rgb(90, 170, 67); fill-opacity:0.706; stroke:none;" />
 <path d="  M 25,25  L 25,26  L 26,26  L 26,25  Z  " style="fill:rgb(90, 170, 67); fill-opacity:0.706; stroke:none;" />
 <path d="  M 27,3  L 27,2  L 26,2  L 26,3  Z  " style="fill:rgb(90, 170, 67); fill-opacity:0.706; stroke:none;" />
 <path d="  M 27,5  L 26,5  L 26,6  L 27,6  Z  " style="fill:rgb(90, 170, 67); fill-opacity:0.706; stroke:none;" />
 <path d="  M 26,18  L 27,18  L 27,16  L 26,16  Z  " style="fill:rgb(90, 170, 67); fill-opacity:0.706; stroke:none;" />
 <path d="  M 28,5  L 28,4  L 29,4  L 29,3  L 30,3  L 30,2  L 28,2  L 28,3  L 27,3  L 27,5  Z  " style="fill:rgb(90, 170, 67); fill-opacity:0.706; stroke:none;" />
 <path d="  M 27,16  L 28,16  L 28,13  L 27,13  Z  " style="fill:rgb(90, 170, 67); fill-opacity:0.706; stroke:none;" />
 <path d="  M 27,29  L 27,30  L 28,30  L 28,29  Z  " style="fill:rgb(90, 170, 67); fill-opacity:0.706; stroke:none;" />
 <path d="  M 30,4  L 29,4  L 29,5  L 30,5  Z  " style="fill:rgb(90, 170, 67); fill-opacity:0.706; stroke:none;" />
</svg>
