<?xml version="1.0" encoding="UTF-8" standalone="no"?>
<!DOCTYPE svg PUBLIC "-//W3C//DTD SVG 1.1//EN" 
  "http://www.w3.org/Graphics/SVG/1.1/DTD/svg11.dtd">
<svg width="32" height="32"
	 xmlns="http://www.w3.org/2000/svg" version="1.1">
 <path d="  M 7,28  L 7,30  L 8,30  L 8,28  Z  " style="fill:rgb(122, 91, 181); fill-opacity:1.000; stroke:none;" />
 <path d="  M 9,30  L 8,30  L 8,31  L 9,31  Z  " style="fill:rgb(122, 91, 181); fill-opacity:1.000; stroke:none;" />
 <path d="  M 9,32  L 10,32  L 10,31  L 9,31  Z  " style="fill:rgb(122, 91, 181); fill-opacity:1.000; stroke:none;" />
 <path d="  M 12,29  L 12,28  L 11,28  L 11,29  Z  " style="fill:rgb(122, 91, 181); fill-opacity:1.000; stroke:none;" />
 <path d="  M 12,28  L 13,28  L 13,27  L 12,27  Z  " style="fill:rgb(122, 91, 181); fill-opacity:1.000; stroke:none;" />
 <path d="  M 12,31  L 14,31  L 14,30  L 13,30  L 13,29  L 12,29  Z  " style="fill:rgb(122, 91, 181); fill-opacity:1.000; stroke:none;" />
 <path d="  M 15,29  L 16,29  L 16,26  L 14,26  L 14,27  L 15,27  Z  " style="fill:rgb(122, 91, 181); fill-opacity:1.000; stroke:none;" />
 <path d="  M 17,26  L 17,29  L 16,29  L 16,30  L 15,30  L 15,31  L 14,31  L 14,32  L 16,32  L 16,31  L 17,31  L 17,30  L 18,30  L 18,29  L 19,29  L 19,28  L 20,28  L 20,26  Z  " style="fill:rgb(122, 91, 181); fill-opacity:1.000; stroke:none;" />
 <path d="  M 19,30  L 19,32  L 20,32  L 20,30  Z  " style="fill:rgb(122, 91, 181); fill-opacity:1.000; stroke:none;" />
 <path d="  M 21,29  L 21,28  L 20,28  L 20,29  Z  " style="fill:rgb(122, 91, 181); fill-opacity:1.000; stroke:none;" />
 <path d="  M 24,30  L 24,29  L 22,29  L 22,31  L 23,31  L 23,30  Z  " style="fill:rgb(122, 91, 181); fill-opacity:1.000; stroke:none;" />
 <path d="  M 25,28  L 24,28  L 24,29  L 25,29  Z  " style="fill:rgb(122, 91, 181); fill-opacity:1.000; stroke:none;" />
 <path d="  M 7,32  L 9,32  L 9,31  L 8,31  L 8,30  L 7,30  Z  " style="fill:rgb(100, 71, 158); fill-opacity:1.000; stroke:none;" />
 <path d="  M 9,29  L 8,29  L 8,30  L 9,30  Z  " style="fill:rgb(100, 71, 158); fill-opacity:1.000; stroke:none;" />
 <path d="  M 12,31  L 12,30  L 11,30  L 11,29  L 10,29  L 10,30  L 9,30  L 9,31  L 10,31  L 10,32  L 14,32  L 14,31  Z  " style="fill:rgb(100, 71, 158); fill-opacity:1.000; stroke:none;" />
 <path d="  M 13,29  L 13,30  L 14,30  L 14,31  L 15,31  L 15,30  L 16,30  L 16,29  L 15,29  L 15,27  L 14,27  L 14,28  L 12,28  L 12,29  Z  " style="fill:rgb(100, 71, 158); fill-opacity:1.000; stroke:none;" />
 <path d="  M 18,30  L 18,32  L 19,32  L 19,30  Z  " style="fill:rgb(100, 71, 158); fill-opacity:1.000; stroke:none;" />
 <path d="  M 19,30  L 20,30  L 20,28  L 19,28  Z  " style="fill:rgb(100, 71, 158); fill-opacity:1.000; stroke:none;" />
 <path d="  M 22,31  L 22,30  L 21,30  L 21,31  L 20,31  L 20,32  L 25,32  L 25,29  L 24,29  L 24,30  L 23,30  L 23,31  Z  " style="fill:rgb(100, 71, 158); fill-opacity:1.000; stroke:none;" />
 <path d="  M 8,27  L 9,27  L 9,26  L 8,26  Z  " style="fill:rgb(207, 160, 243); fill-opacity:1.000; stroke:none;" />
 <path d="  M 10,27  L 9,27  L 9,28  L 10,28  Z  " style="fill:rgb(207, 160, 243); fill-opacity:1.000; stroke:none;" />
 <path d="  M 17,26  L 17,24  L 16,24  L 16,26  Z  " style="fill:rgb(207, 160, 243); fill-opacity:1.000; stroke:none;" />
 <path d="  M 23,27  L 22,27  L 22,28  L 23,28  Z  " style="fill:rgb(207, 160, 243); fill-opacity:1.000; stroke:none;" />
 <path d="  M 8,27  L 8,28  L 9,28  L 9,27  Z  " style="fill:rgb(179, 142, 243); fill-opacity:1.000; stroke:none;" />
 <path d="  M 9,27  L 10,27  L 10,28  L 11,28  L 11,27  L 12,27  L 12,26  L 9,26  Z  " style="fill:rgb(179, 142, 243); fill-opacity:1.000; stroke:none;" />
 <path d="  M 9,29  L 10,29  L 10,28  L 9,28  Z  " style="fill:rgb(179, 142, 243); fill-opacity:1.000; stroke:none;" />
 <path d="  M 14,25  L 14,26  L 16,26  L 16,25  Z  " style="fill:rgb(179, 142, 243); fill-opacity:1.000; stroke:none;" />
 <path d="  M 16,23  L 16,24  L 18,24  L 18,23  Z  " style="fill:rgb(179, 142, 243); fill-opacity:1.000; stroke:none;" />
 <path d="  M 18,25  L 17,25  L 17,26  L 18,26  Z  " style="fill:rgb(179, 142, 243); fill-opacity:1.000; stroke:none;" />
 <path d="  M 18,24  L 18,25  L 19,25  L 19,24  Z  " style="fill:rgb(179, 142, 243); fill-opacity:1.000; stroke:none;" />
 <path d="  M 21,29  L 20,29  L 20,30  L 21,30  Z  " style="fill:rgb(179, 142, 243); fill-opacity:1.000; stroke:none;" />
 <path d="  M 21,29  L 22,29  L 22,27  L 21,27  Z  " style="fill:rgb(179, 142, 243); fill-opacity:1.000; stroke:none;" />
 <path d="  M 23,29  L 24,29  L 24,26  L 22,26  L 22,27  L 23,27  Z  " style="fill:rgb(179, 142, 243); fill-opacity:1.000; stroke:none;" />
 <path d="  M 9,29  L 9,28  L 8,28  L 8,29  Z  " style="fill:rgb(141, 106, 204); fill-opacity:1.000; stroke:none;" />
 <path d="  M 10,30  L 10,29  L 9,29  L 9,30  Z  " style="fill:rgb(141, 106, 204); fill-opacity:1.000; stroke:none;" />
 <path d="  M 11,29  L 11,28  L 10,28  L 10,29  Z  " style="fill:rgb(141, 106, 204); fill-opacity:1.000; stroke:none;" />
 <path d="  M 11,27  L 11,28  L 12,28  L 12,27  Z  " style="fill:rgb(141, 106, 204); fill-opacity:1.000; stroke:none;" />
 <path d="  M 11,30  L 12,30  L 12,29  L 11,29  Z  " style="fill:rgb(141, 106, 204); fill-opacity:1.000; stroke:none;" />
 <path d="  M 16,25  L 16,24  L 15,24  L 15,25  Z  " style="fill:rgb(141, 106, 204); fill-opacity:1.000; stroke:none;" />
 <path d="  M 17,26  L 16,26  L 16,29  L 17,29  Z  " style="fill:rgb(141, 106, 204); fill-opacity:1.000; stroke:none;" />
 <path d="  M 18,32  L 18,30  L 17,30  L 17,31  L 16,31  L 16,32  Z  " style="fill:rgb(141, 106, 204); fill-opacity:1.000; stroke:none;" />
 <path d="  M 17,25  L 18,25  L 18,24  L 17,24  Z  " style="fill:rgb(141, 106, 204); fill-opacity:1.000; stroke:none;" />
 <path d="  M 18,25  L 18,26  L 20,26  L 20,25  Z  " style="fill:rgb(141, 106, 204); fill-opacity:1.000; stroke:none;" />
 <path d="  M 18,29  L 18,30  L 19,30  L 19,29  Z  " style="fill:rgb(141, 106, 204); fill-opacity:1.000; stroke:none;" />
 <path d="  M 21,30  L 20,30  L 20,31  L 21,31  Z  " style="fill:rgb(141, 106, 204); fill-opacity:1.000; stroke:none;" />
 <path d="  M 22,30  L 22,29  L 21,29  L 21,30  Z  " style="fill:rgb(141, 106, 204); fill-opacity:1.000; stroke:none;" />
 <path d="  M 23,29  L 23,28  L 22,28  L 22,29  Z  " style="fill:rgb(141, 106, 204); fill-opacity:1.000; stroke:none;" />
</svg>
