<?xml version="1.0" encoding="UTF-8" standalone="no"?>
<!DOCTYPE svg PUBLIC "-//W3C//DTD SVG 1.1//EN" 
  "http://www.w3.org/Graphics/SVG/1.1/DTD/svg11.dtd">
<svg width="32" height="32"
	 xmlns="http://www.w3.org/2000/svg" version="1.1">
 <path d="  M 0,7  L 1,7  L 1,8  L 2,8  L 2,6  L 1,6  L 1,5  L 2,5  L 2,2  L 4,2  L 4,1  L 3,1  L 3,0  L 0,0  Z  M 1,1  L 2,1  L 2,2  L 1,2  Z  " style="fill:rgb(73, 75, 95); fill-opacity:1.000; stroke:none;" />
 <path d="  M 2,15  L 1,15  L 1,14  L 2,14  L 2,12  L 1,12  L 1,11  L 0,11  L 0,17  L 1,17  L 1,16  L 2,16  Z  " style="fill:rgb(73, 75, 95); fill-opacity:1.000; stroke:none;" />
 <path d="  M 0,20  L 1,20  L 1,19  L 0,19  Z  " style="fill:rgb(73, 75, 95); fill-opacity:1.000; stroke:none;" />
 <path d="  M 0,29  L 1,29  L 1,27  L 2,27  L 2,29  L 3,29  L 3,26  L 2,26  L 2,25  L 1,25  L 1,26  L 0,26  Z  " style="fill:rgb(73, 75, 95); fill-opacity:1.000; stroke:none;" />
 <path d="  M 1,11  L 2,11  L 2,10  L 1,10  Z  " style="fill:rgb(73, 75, 95); fill-opacity:1.000; stroke:none;" />
 <path d="  M 3,29  L 3,30  L 4,30  L 4,29  Z  " style="fill:rgb(73, 75, 95); fill-opacity:1.000; stroke:none;" />
 <path d="  M 3,32  L 7,32  L 7,31  L 5,31  L 5,30  L 4,30  L 4,31  L 3,31  Z  " style="fill:rgb(73, 75, 95); fill-opacity:1.000; stroke:none;" />
 <path d="  M 4,1  L 5,1  L 5,0  L 4,0  Z  " style="fill:rgb(73, 75, 95); fill-opacity:1.000; stroke:none;" />
 <path d="  M 4,3  L 5,3  L 5,2  L 4,2  Z  " style="fill:rgb(73, 75, 95); fill-opacity:1.000; stroke:none;" />
 <path d="  M 7,30  L 7,31  L 8,31  L 8,30  Z  " style="fill:rgb(73, 75, 95); fill-opacity:1.000; stroke:none;" />
 <path d="  M 9,2  L 10,2  L 10,1  L 9,1  Z  " style="fill:rgb(73, 75, 95); fill-opacity:1.000; stroke:none;" />
 <path d="  M 15,1  L 14,1  L 14,0  L 10,0  L 10,1  L 11,1  L 11,2  L 12,2  L 12,3  L 15,3  Z  M 13,1  L 14,1  L 14,2  L 13,2  Z  " style="fill:rgb(73, 75, 95); fill-opacity:1.000; stroke:none;" />
 <path d="  M 15,32  L 15,31  L 14,31  L 14,30  L 13,30  L 13,31  L 12,31  L 12,30  L 10,30  L 10,31  L 11,31  L 11,32  Z  " style="fill:rgb(73, 75, 95); fill-opacity:1.000; stroke:none;" />
 <path d="  M 18,2  L 18,1  L 17,1  L 17,2  Z  " style="fill:rgb(73, 75, 95); fill-opacity:1.000; stroke:none;" />
 <path d="  M 17,31  L 18,31  L 18,30  L 17,30  Z  " style="fill:rgb(73, 75, 95); fill-opacity:1.000; stroke:none;" />
 <path d="  M 29,2  L 29,1  L 27,1  L 27,0  L 18,0  L 18,1  L 21,1  L 21,2  L 22,2  L 22,3  L 23,3  L 23,2  L 24,2  L 24,1  L 25,1  L 25,2  Z  " style="fill:rgb(73, 75, 95); fill-opacity:1.000; stroke:none;" />
 <path d="  M 19,30  L 19,31  L 18,31  L 18,32  L 20,32  L 20,31  L 21,31  L 21,30  Z  " style="fill:rgb(73, 75, 95); fill-opacity:1.000; stroke:none;" />
 <path d="  M 27,31  L 28,31  L 28,30  L 27,30  Z  " style="fill:rgb(73, 75, 95); fill-opacity:1.000; stroke:none;" />
 <path d="  M 28,29  L 28,30  L 29,30  L 29,29  Z  " style="fill:rgb(73, 75, 95); fill-opacity:1.000; stroke:none;" />
 <path d="  M 30,22  L 31,22  L 31,23  L 30,23  Z  M 29,28  L 29,29  L 31,29  L 31,30  L 29,30  L 29,31  L 28,31  L 28,32  L 32,32  L 32,20  L 31,20  L 31,19  L 30,19  L 30,22  L 29,22  L 29,25  L 30,25  L 30,28  Z  " style="fill:rgb(73, 75, 95); fill-opacity:1.000; stroke:none;" />
 <path d="  M 30,7  L 30,8  L 29,8  L 29,9  L 31,9  L 31,8  L 32,8  L 32,6  L 31,6  L 31,7  Z  " style="fill:rgb(73, 75, 95); fill-opacity:1.000; stroke:none;" />
 <path d="  M 29,19  L 30,19  L 30,17  L 29,17  Z  " style="fill:rgb(73, 75, 95); fill-opacity:1.000; stroke:none;" />
 <path d="  M 32,11  L 31,11  L 31,10  L 30,10  L 30,12  L 31,12  L 31,13  L 30,13  L 30,15  L 31,15  L 31,16  L 32,16  Z  " style="fill:rgb(73, 75, 95); fill-opacity:1.000; stroke:none;" />
 <path d="  M 31,16  L 30,16  L 30,17  L 31,17  Z  " style="fill:rgb(73, 75, 95); fill-opacity:1.000; stroke:none;" />
 <path d="  M 0,11  L 1,11  L 1,10  L 2,10  L 2,8  L 1,8  L 1,7  L 0,7  Z  " style="fill:rgb(56, 58, 71); fill-opacity:1.000; stroke:none;" />
 <path d="  M 5,3  L 4,3  L 4,4  L 3,4  L 3,3  L 2,3  L 2,5  L 1,5  L 1,6  L 3,6  L 3,7  L 4,7  L 4,6  L 5,6  L 5,5  L 6,5  L 6,4  L 5,4  Z  " style="fill:rgb(56, 58, 71); fill-opacity:1.000; stroke:none;" />
 <path d="  M 3,17  L 4,17  L 4,15  L 3,15  L 3,14  L 4,14  L 4,12  L 3,12  L 3,13  L 2,13  L 2,14  L 1,14  L 1,15  L 2,15  L 2,16  L 3,16  Z  " style="fill:rgb(56, 58, 71); fill-opacity:1.000; stroke:none;" />
 <path d="  M 3,10  L 2,10  L 2,11  L 3,11  Z  " style="fill:rgb(56, 58, 71); fill-opacity:1.000; stroke:none;" />
 <path d="  M 3,17  L 2,17  L 2,18  L 3,18  Z  " style="fill:rgb(56, 58, 71); fill-opacity:1.000; stroke:none;" />
 <path d="  M 8,27  L 7,27  L 7,26  L 5,26  L 5,27  L 4,27  L 4,26  L 3,26  L 3,28  L 4,28  L 4,29  L 5,29  L 5,31  L 6,31  L 6,30  L 7,30  L 7,29  L 8,29  Z  " style="fill:rgb(56, 58, 71); fill-opacity:1.000; stroke:none;" />
 <path d="  M 7,6  L 7,5  L 6,5  L 6,6  Z  " style="fill:rgb(56, 58, 71); fill-opacity:1.000; stroke:none;" />
 <path d="  M 18,6  L 18,5  L 19,5  L 19,4  L 18,4  L 18,3  L 17,3  L 17,2  L 15,2  L 15,3  L 12,3  L 12,2  L 11,2  L 11,1  L 10,1  L 10,2  L 8,2  L 8,3  L 7,3  L 7,4  L 9,4  L 9,3  L 10,3  L 10,4  L 12,4  L 12,5  L 13,5  L 13,6  L 14,6  L 14,5  L 15,5  L 15,6  Z  M 16,4  L 16,3  L 17,3  L 17,4  Z  " style="fill:rgb(56, 58, 71); fill-opacity:1.000; stroke:none;" />
 <path d="  M 7,11  L 7,12  L 10,12  L 10,11  L 9,11  L 9,10  L 8,10  L 8,11  Z  " style="fill:rgb(56, 58, 71); fill-opacity:1.000; stroke:none;" />
 <path d="  M 12,29  L 12,28  L 11,28  L 11,29  Z  " style="fill:rgb(56, 58, 71); fill-opacity:1.000; stroke:none;" />
 <path d="  M 13,28  L 13,29  L 12,29  L 12,31  L 13,31  L 13,30  L 15,30  L 15,29  L 16,29  L 16,28  Z  " style="fill:rgb(56, 58, 71); fill-opacity:1.000; stroke:none;" />
 <path d="  M 19,19  L 20,19  L 20,18  L 19,18  Z  " style="fill:rgb(56, 58, 71); fill-opacity:1.000; stroke:none;" />
 <path d="  M 23,10  L 23,9  L 22,9  L 22,8  L 20,8  L 20,9  L 21,9  L 21,10  Z  " style="fill:rgb(56, 58, 71); fill-opacity:1.000; stroke:none;" />
 <path d="  M 21,20  L 22,20  L 22,19  L 23,19  L 23,18  L 22,18  L 22,17  L 21,17  L 21,19  L 20,19  L 20,21  L 21,21  Z  " style="fill:rgb(56, 58, 71); fill-opacity:1.000; stroke:none;" />
 <path d="  M 21,29  L 20,29  L 20,30  L 21,30  Z  " style="fill:rgb(56, 58, 71); fill-opacity:1.000; stroke:none;" />
 <path d="  M 23,3  L 21,3  L 21,4  L 23,4  Z  " style="fill:rgb(56, 58, 71); fill-opacity:1.000; stroke:none;" />
 <path d="  M 21,28  L 21,29  L 22,29  L 22,30  L 23,30  L 23,29  L 24,29  L 24,28  Z  " style="fill:rgb(56, 58, 71); fill-opacity:1.000; stroke:none;" />
 <path d="  M 29,6  L 29,5  L 28,5  L 28,4  L 27,4  L 27,3  L 26,3  L 26,2  L 25,2  L 25,1  L 24,1  L 24,2  L 23,2  L 23,3  L 24,3  L 24,4  L 25,4  L 25,5  L 26,5  L 26,7  L 27,7  L 27,8  L 29,8  L 29,7  L 30,7  L 30,6  Z  " style="fill:rgb(56, 58, 71); fill-opacity:1.000; stroke:none;" />
 <path d="  M 25,29  L 26,29  L 26,30  L 28,30  L 28,29  L 29,29  L 29,28  L 30,28  L 30,27  L 29,27  L 29,26  L 27,26  L 27,27  L 26,27  L 26,28  L 25,28  Z  M 28,28  L 27,28  L 27,27  L 28,27  Z  " style="fill:rgb(56, 58, 71); fill-opacity:1.000; stroke:none;" />
 <path d="  M 28,3  L 28,2  L 27,2  L 27,3  Z  " style="fill:rgb(56, 58, 71); fill-opacity:1.000; stroke:none;" />
 <path d="  M 30,12  L 30,10  L 29,10  L 29,11  L 28,11  L 28,12  L 27,12  L 27,13  L 28,13  L 28,14  L 29,14  L 29,13  L 31,13  L 31,12  Z  " style="fill:rgb(56, 58, 71); fill-opacity:1.000; stroke:none;" />
 <path d="  M 28,4  L 29,4  L 29,3  L 28,3  Z  " style="fill:rgb(56, 58, 71); fill-opacity:1.000; stroke:none;" />
 <path d="  M 30,15  L 30,14  L 29,14  L 29,15  Z  " style="fill:rgb(56, 58, 71); fill-opacity:1.000; stroke:none;" />
 <path d="  M 29,21  L 30,21  L 30,20  L 29,20  Z  " style="fill:rgb(56, 58, 71); fill-opacity:1.000; stroke:none;" />
 <path d="  M 29,25  L 29,26  L 30,26  L 30,25  Z  " style="fill:rgb(56, 58, 71); fill-opacity:1.000; stroke:none;" />
 <path d="  M 29,30  L 30,30  L 30,29  L 29,29  Z  " style="fill:rgb(56, 58, 71); fill-opacity:1.000; stroke:none;" />
 <path d="  M 31,6  L 31,5  L 30,5  L 30,6  Z  " style="fill:rgb(56, 58, 71); fill-opacity:1.000; stroke:none;" />
 <path d="  M 30,19  L 31,19  L 31,20  L 32,20  L 32,16  L 31,16  L 31,17  L 30,17  Z  " style="fill:rgb(56, 58, 71); fill-opacity:1.000; stroke:none;" />
 <path d="  M 2,18  L 2,16  L 1,16  L 1,17  L 0,17  L 0,19  L 1,19  L 1,18  Z  " style="fill:rgb(64, 66, 83); fill-opacity:1.000; stroke:none;" />
 <path d="  M 2,22  L 2,23  L 1,23  L 1,24  L 0,24  L 0,26  L 1,26  L 1,25  L 2,25  L 2,24  L 3,24  L 3,21  L 2,21  L 2,19  L 1,19  L 1,20  L 0,20  L 0,21  L 1,21  L 1,22  Z  " style="fill:rgb(64, 66, 83); fill-opacity:1.000; stroke:none;" />
 <path d="  M 2,2  L 2,1  L 1,1  L 1,2  Z  " style="fill:rgb(64, 66, 83); fill-opacity:1.000; stroke:none;" />
 <path d="  M 1,11  L 1,12  L 2,12  L 2,13  L 3,13  L 3,12  L 4,12  L 4,9  L 3,9  L 3,8  L 4,8  L 4,7  L 3,7  L 3,6  L 2,6  L 2,10  L 3,10  L 3,11  Z  " style="fill:rgb(64, 66, 83); fill-opacity:1.000; stroke:none;" />
 <path d="  M 2,31  L 2,30  L 1,30  L 1,31  Z  " style="fill:rgb(64, 66, 83); fill-opacity:1.000; stroke:none;" />
 <path d="  M 3,3  L 3,4  L 4,4  L 4,2  L 2,2  L 2,3  Z  " style="fill:rgb(64, 66, 83); fill-opacity:1.000; stroke:none;" />
 <path d="  M 3,29  L 2,29  L 2,30  L 3,30  Z  " style="fill:rgb(64, 66, 83); fill-opacity:1.000; stroke:none;" />
 <path d="  M 3,0  L 3,1  L 4,1  L 4,0  Z  " style="fill:rgb(64, 66, 83); fill-opacity:1.000; stroke:none;" />
 <path d="  M 3,29  L 4,29  L 4,28  L 3,28  Z  " style="fill:rgb(64, 66, 83); fill-opacity:1.000; stroke:none;" />
 <path d="  M 9,2  L 9,1  L 10,1  L 10,0  L 5,0  L 5,1  L 4,1  L 4,2  L 5,2  L 5,4  L 7,4  L 7,3  L 8,3  L 8,2  Z  " style="fill:rgb(64, 66, 83); fill-opacity:1.000; stroke:none;" />
 <path d="  M 4,29  L 4,30  L 5,30  L 5,29  Z  " style="fill:rgb(64, 66, 83); fill-opacity:1.000; stroke:none;" />
 <path d="  M 7,12  L 6,12  L 6,14  L 7,14  L 7,15  L 8,15  L 8,16  L 10,16  L 10,15  L 9,15  L 9,14  L 8,14  L 8,13  L 7,13  Z  " style="fill:rgb(64, 66, 83); fill-opacity:1.000; stroke:none;" />
 <path d="  M 8,28  L 8,29  L 7,29  L 7,30  L 9,30  L 9,28  Z  " style="fill:rgb(64, 66, 83); fill-opacity:1.000; stroke:none;" />
 <path d="  M 8,22  L 8,23  L 9,23  L 9,24  L 10,24  L 10,23  L 11,23  L 11,22  Z  " style="fill:rgb(64, 66, 83); fill-opacity:1.000; stroke:none;" />
 <path d="  M 14,30  L 14,31  L 15,31  L 15,30  Z  " style="fill:rgb(64, 66, 83); fill-opacity:1.000; stroke:none;" />
 <path d="  M 18,32  L 18,31  L 17,31  L 17,30  L 16,30  L 16,31  L 15,31  L 15,32  Z  " style="fill:rgb(64, 66, 83); fill-opacity:1.000; stroke:none;" />
 <path d="  M 17,3  L 16,3  L 16,4  L 17,4  Z  " style="fill:rgb(64, 66, 83); fill-opacity:1.000; stroke:none;" />
 <path d="  M 17,2  L 17,3  L 18,3  L 18,4  L 21,4  L 21,3  L 22,3  L 22,2  L 21,2  L 21,1  L 20,1  L 20,2  Z  " style="fill:rgb(64, 66, 83); fill-opacity:1.000; stroke:none;" />
 <path d="  M 21,10  L 21,9  L 20,9  L 20,8  L 19,8  L 19,9  L 18,9  L 18,10  Z  " style="fill:rgb(64, 66, 83); fill-opacity:1.000; stroke:none;" />
 <path d="  M 20,6  L 19,6  L 19,7  L 20,7  Z  " style="fill:rgb(64, 66, 83); fill-opacity:1.000; stroke:none;" />
 <path d="  M 21,5  L 20,5  L 20,6  L 21,6  Z  " style="fill:rgb(64, 66, 83); fill-opacity:1.000; stroke:none;" />
 <path d="  M 23,30  L 21,30  L 21,31  L 20,31  L 20,32  L 22,32  L 22,31  L 23,31  Z  " style="fill:rgb(64, 66, 83); fill-opacity:1.000; stroke:none;" />
 <path d="  M 23,29  L 23,30  L 24,30  L 24,31  L 25,31  L 25,32  L 28,32  L 28,31  L 27,31  L 27,30  L 26,30  L 26,29  Z  " style="fill:rgb(64, 66, 83); fill-opacity:1.000; stroke:none;" />
 <path d="  M 27,19  L 28,19  L 28,21  L 29,21  L 29,20  L 30,20  L 30,19  L 29,19  L 29,17  L 30,17  L 30,16  L 31,16  L 31,15  L 29,15  L 29,14  L 27,14  L 27,15  L 26,15  L 26,14  L 25,14  L 25,15  L 24,15  L 24,16  L 26,16  L 26,17  L 27,17  Z  " style="fill:rgb(64, 66, 83); fill-opacity:1.000; stroke:none;" />
 <path d="  M 27,3  L 27,2  L 26,2  L 26,3  Z  " style="fill:rgb(64, 66, 83); fill-opacity:1.000; stroke:none;" />
 <path d="  M 28,4  L 28,3  L 27,3  L 27,4  Z  " style="fill:rgb(64, 66, 83); fill-opacity:1.000; stroke:none;" />
 <path d="  M 29,11  L 29,10  L 30,10  L 30,9  L 29,9  L 29,8  L 28,8  L 28,9  L 27,9  L 27,10  L 28,10  L 28,11  Z  " style="fill:rgb(64, 66, 83); fill-opacity:1.000; stroke:none;" />
 <path d="  M 32,4  L 31,4  L 31,3  L 30,3  L 30,2  L 28,2  L 28,3  L 29,3  L 29,4  L 28,4  L 28,5  L 29,5  L 29,6  L 30,6  L 30,5  L 31,5  L 31,6  L 32,6  Z  " style="fill:rgb(64, 66, 83); fill-opacity:1.000; stroke:none;" />
 <path d="  M 28,26  L 29,26  L 29,22  L 28,22  Z  " style="fill:rgb(64, 66, 83); fill-opacity:1.000; stroke:none;" />
 <path d="  M 29,31  L 29,30  L 28,30  L 28,31  Z  " style="fill:rgb(64, 66, 83); fill-opacity:1.000; stroke:none;" />
 <path d="  M 29,8  L 30,8  L 30,7  L 29,7  Z  " style="fill:rgb(64, 66, 83); fill-opacity:1.000; stroke:none;" />
 <path d="  M 29,13  L 29,14  L 30,14  L 30,13  Z  " style="fill:rgb(64, 66, 83); fill-opacity:1.000; stroke:none;" />
 <path d="  M 29,21  L 29,22  L 30,22  L 30,21  Z  " style="fill:rgb(64, 66, 83); fill-opacity:1.000; stroke:none;" />
 <path d="  M 30,26  L 29,26  L 29,27  L 30,27  Z  " style="fill:rgb(64, 66, 83); fill-opacity:1.000; stroke:none;" />
 <path d="  M 30,6  L 30,7  L 31,7  L 31,6  Z  " style="fill:rgb(64, 66, 83); fill-opacity:1.000; stroke:none;" />
 <path d="  M 31,23  L 31,22  L 30,22  L 30,23  Z  " style="fill:rgb(64, 66, 83); fill-opacity:1.000; stroke:none;" />
 <path d="  M 30,29  L 30,30  L 31,30  L 31,29  Z  " style="fill:rgb(64, 66, 83); fill-opacity:1.000; stroke:none;" />
 <path d="  M 1,22  L 1,21  L 0,21  L 0,24  L 1,24  L 1,23  L 2,23  L 2,22  Z  " style="fill:rgb(38, 39, 45); fill-opacity:1.000; stroke:none;" />
 <path d="  M 7,12  L 7,13  L 8,13  L 8,14  L 9,14  L 9,15  L 10,15  L 10,13  L 9,13  L 9,12  Z  " style="fill:rgb(38, 39, 45); fill-opacity:1.000; stroke:none;" />
 <path d="  M 10,27  L 9,27  L 9,26  L 8,26  L 8,28  L 9,28  L 9,29  L 11,29  L 11,28  L 10,28  Z  " style="fill:rgb(38, 39, 45); fill-opacity:1.000; stroke:none;" />
 <path d="  M 10,20  L 10,22  L 12,22  L 12,21  L 11,21  L 11,20  Z  " style="fill:rgb(38, 39, 45); fill-opacity:1.000; stroke:none;" />
 <path d="  M 11,30  L 12,30  L 12,29  L 11,29  Z  " style="fill:rgb(38, 39, 45); fill-opacity:1.000; stroke:none;" />
 <path d="  M 19,4  L 19,5  L 18,5  L 18,7  L 19,7  L 19,6  L 20,6  L 20,5  L 21,5  L 21,4  Z  " style="fill:rgb(38, 39, 45); fill-opacity:1.000; stroke:none;" />
 <path d="  M 23,31  L 22,31  L 22,32  L 25,32  L 25,31  L 24,31  L 24,30  L 23,30  Z  " style="fill:rgb(38, 39, 45); fill-opacity:1.000; stroke:none;" />
 <path d="  M 27,18  L 27,17  L 26,17  L 26,16  L 24,16  L 24,17  L 25,17  L 25,18  Z  " style="fill:rgb(38, 39, 45); fill-opacity:1.000; stroke:none;" />
 <path d="  M 2,27  L 1,27  L 1,29  L 0,29  L 0,32  L 3,32  L 3,31  L 4,31  L 4,30  L 2,30  Z  M 1,31  L 1,30  L 2,30  L 2,31  Z  " style="fill:rgb(83, 85, 108); fill-opacity:1.000; stroke:none;" />
 <path d="  M 7,31  L 7,30  L 6,30  L 6,31  Z  " style="fill:rgb(83, 85, 108); fill-opacity:1.000; stroke:none;" />
 <path d="  M 8,31  L 7,31  L 7,32  L 11,32  L 11,31  L 10,31  L 10,30  L 11,30  L 11,29  L 9,29  L 9,30  L 8,30  Z  " style="fill:rgb(83, 85, 108); fill-opacity:1.000; stroke:none;" />
 <path d="  M 11,23  L 10,23  L 10,24  L 11,24  Z  " style="fill:rgb(83, 85, 108); fill-opacity:1.000; stroke:none;" />
 <path d="  M 12,22  L 11,22  L 11,23  L 12,23  Z  " style="fill:rgb(83, 85, 108); fill-opacity:1.000; stroke:none;" />
 <path d="  M 13,2  L 14,2  L 14,1  L 13,1  Z  " style="fill:rgb(83, 85, 108); fill-opacity:1.000; stroke:none;" />
 <path d="  M 17,1  L 18,1  L 18,0  L 14,0  L 14,1  L 15,1  L 15,2  L 17,2  Z  " style="fill:rgb(83, 85, 108); fill-opacity:1.000; stroke:none;" />
 <path d="  M 20,2  L 20,1  L 18,1  L 18,2  Z  " style="fill:rgb(83, 85, 108); fill-opacity:1.000; stroke:none;" />
 <path d="  M 20,7  L 19,7  L 19,8  L 21,8  L 21,7  L 22,7  L 22,5  L 21,5  L 21,6  L 20,6  Z  " style="fill:rgb(83, 85, 108); fill-opacity:1.000; stroke:none;" />
 <path d="  M 30,2  L 30,3  L 31,3  L 31,4  L 32,4  L 32,0  L 27,0  L 27,1  L 29,1  L 29,2  Z  " style="fill:rgb(83, 85, 108); fill-opacity:1.000; stroke:none;" />
 <path d="  M 32,8  L 31,8  L 31,9  L 30,9  L 30,10  L 31,10  L 31,11  L 32,11  Z  " style="fill:rgb(83, 85, 108); fill-opacity:1.000; stroke:none;" />
 <path d="  M 10,5  L 10,6  L 9,6  L 9,5  Z  M 7,6  L 6,6  L 6,5  L 7,5  Z  M 6,9  L 7,9  L 7,8  L 8,8  L 8,10  L 9,10  L 9,11  L 11,11  L 11,10  L 12,10  L 12,8  L 13,8  L 13,9  L 14,9  L 14,8  L 15,8  L 15,9  L 16,9  L 16,8  L 19,8  L 19,7  L 18,7  L 18,6  L 17,6  L 17,7  L 16,7  L 16,6  L 15,6  L 15,5  L 14,5  L 14,6  L 13,6  L 13,5  L 12,5  L 12,4  L 10,4  L 10,3  L 9,3  L 9,4  L 6,4  L 6,5  L 5,5  L 5,6  L 4,6  L 4,8  L 3,8  L 3,9  L 4,9  L 4,11  L 5,11  L 5,12  L 4,12  L 4,14  L 3,14  L 3,15  L 4,15  L 4,17  L 3,17  L 3,18  L 1,18  L 1,19  L 2,19  L 2,21  L 3,21  L 3,24  L 2,24  L 2,26  L 4,26  L 4,27  L 5,27  L 5,26  L 6,26  L 6,25  L 7,25  L 7,24  L 9,24  L 9,23  L 8,23  L 8,21  L 9,21  L 9,20  L 7,20  L 7,19  L 6,19  L 6,17  L 5,17  L 5,16  L 6,16  L 6,15  L 7,15  L 7,14  L 6,14  Z  M 6,20  L 7,20  L 7,21  L 6,21  Z  M 9,8  L 8,8  L 8,7  L 9,7  Z  M 3,19  L 4,19  L 4,20  L 3,20  Z  M 10,9  L 10,10  L 9,10  L 9,9  Z  M 12,8  L 11,8  L 11,7  L 12,7  Z  M 6,8  L 5,8  L 5,7  L 6,7  Z  M 4,23  L 4,22  L 5,22  L 5,23  Z  " style="fill:rgb(54, 55, 63); fill-opacity:1.000; stroke:none;" />
 <path d="  M 2,17  L 3,17  L 3,16  L 2,16  Z  " style="fill:rgb(54, 55, 63); fill-opacity:1.000; stroke:none;" />
 <path d="  M 6,16  L 6,17  L 7,17  L 7,16  Z  " style="fill:rgb(54, 55, 63); fill-opacity:1.000; stroke:none;" />
 <path d="  M 7,16  L 8,16  L 8,15  L 7,15  Z  " style="fill:rgb(54, 55, 63); fill-opacity:1.000; stroke:none;" />
 <path d="  M 7,19  L 8,19  L 8,18  L 7,18  Z  " style="fill:rgb(54, 55, 63); fill-opacity:1.000; stroke:none;" />
 <path d="  M 7,26  L 8,26  L 8,25  L 7,25  Z  " style="fill:rgb(54, 55, 63); fill-opacity:1.000; stroke:none;" />
 <path d="  M 10,21  L 9,21  L 9,22  L 10,22  Z  " style="fill:rgb(54, 55, 63); fill-opacity:1.000; stroke:none;" />
 <path d="  M 13,11  L 12,11  L 12,12  L 13,12  Z  " style="fill:rgb(54, 55, 63); fill-opacity:1.000; stroke:none;" />
 <path d="  M 12,21  L 13,21  L 13,20  L 12,20  Z  " style="fill:rgb(54, 55, 63); fill-opacity:1.000; stroke:none;" />
 <path d="  M 12,27  L 13,27  L 13,26  L 12,26  Z  " style="fill:rgb(54, 55, 63); fill-opacity:1.000; stroke:none;" />
 <path d="  M 13,27  L 13,28  L 14,28  L 14,27  Z  " style="fill:rgb(54, 55, 63); fill-opacity:1.000; stroke:none;" />
 <path d="  M 14,10  L 15,10  L 15,9  L 14,9  Z  " style="fill:rgb(54, 55, 63); fill-opacity:1.000; stroke:none;" />
 <path d="  M 25,25  L 25,24  L 26,24  L 26,25  Z  M 23,28  L 23,27  L 24,27  L 24,29  L 25,29  L 25,28  L 26,28  L 26,27  L 27,27  L 27,26  L 28,26  L 28,22  L 29,22  L 29,21  L 28,21  L 28,19  L 27,19  L 27,18  L 26,18  L 26,19  L 25,19  L 25,20  L 26,20  L 26,21  L 25,21  L 25,22  L 26,22  L 26,23  L 25,23  L 25,24  L 24,24  L 24,23  L 23,23  L 23,22  L 22,22  L 22,25  L 21,25  L 21,26  L 19,26  L 19,27  L 20,27  L 20,28  L 19,28  L 19,29  L 18,29  L 18,28  L 17,28  L 17,27  L 16,27  L 16,26  L 17,26  L 17,25  L 16,25  L 16,24  L 15,24  L 15,25  L 14,25  L 14,27  L 15,27  L 15,28  L 16,28  L 16,29  L 15,29  L 15,31  L 16,31  L 16,30  L 18,30  L 18,31  L 19,31  L 19,30  L 20,30  L 20,29  L 21,29  L 21,28  Z  M 23,26  L 22,26  L 22,25  L 23,25  Z  " style="fill:rgb(54, 55, 63); fill-opacity:1.000; stroke:none;" />
 <path d="  M 16,9  L 16,10  L 15,10  L 15,11  L 16,11  L 16,12  L 17,12  L 17,11  L 18,11  L 18,10  L 17,10  L 17,9  Z  " style="fill:rgb(54, 55, 63); fill-opacity:1.000; stroke:none;" />
 <path d="  M 18,13  L 17,13  L 17,14  L 18,14  Z  " style="fill:rgb(54, 55, 63); fill-opacity:1.000; stroke:none;" />
 <path d="  M 17,15  L 17,16  L 19,16  L 19,17  L 20,17  L 20,15  L 19,15  L 19,14  L 18,14  L 18,15  Z  " style="fill:rgb(54, 55, 63); fill-opacity:1.000; stroke:none;" />
 <path d="  M 17,25  L 18,25  L 18,24  L 17,24  Z  " style="fill:rgb(54, 55, 63); fill-opacity:1.000; stroke:none;" />
 <path d="  M 19,12  L 19,11  L 18,11  L 18,12  Z  " style="fill:rgb(54, 55, 63); fill-opacity:1.000; stroke:none;" />
 <path d="  M 18,17  L 18,18  L 19,18  L 19,17  Z  " style="fill:rgb(54, 55, 63); fill-opacity:1.000; stroke:none;" />
 <path d="  M 19,28  L 19,27  L 18,27  L 18,28  Z  " style="fill:rgb(54, 55, 63); fill-opacity:1.000; stroke:none;" />
 <path d="  M 19,11  L 20,11  L 20,10  L 19,10  Z  " style="fill:rgb(54, 55, 63); fill-opacity:1.000; stroke:none;" />
 <path d="  M 19,14  L 20,14  L 20,13  L 19,13  Z  " style="fill:rgb(54, 55, 63); fill-opacity:1.000; stroke:none;" />
 <path d="  M 21,15  L 21,14  L 20,14  L 20,15  Z  " style="fill:rgb(54, 55, 63); fill-opacity:1.000; stroke:none;" />
 <path d="  M 20,24  L 20,25  L 21,25  L 21,24  Z  " style="fill:rgb(54, 55, 63); fill-opacity:1.000; stroke:none;" />
 <path d="  M 27,14  L 28,14  L 28,13  L 27,13  L 27,12  L 28,12  L 28,10  L 27,10  L 27,9  L 28,9  L 28,8  L 27,8  L 27,7  L 26,7  L 26,5  L 25,5  L 25,4  L 24,4  L 24,3  L 23,3  L 23,4  L 21,4  L 21,5  L 22,5  L 22,7  L 21,7  L 21,8  L 22,8  L 22,9  L 23,9  L 23,11  L 24,11  L 24,12  L 23,12  L 23,13  L 22,13  L 22,15  L 23,15  L 23,14  L 24,14  L 24,15  L 25,15  L 25,14  L 26,14  L 26,15  L 27,15  Z  M 23,8  L 23,7  L 24,7  L 24,8  Z  M 24,12  L 25,12  L 25,13  L 24,13  Z  M 25,10  L 25,11  L 24,11  L 24,10  Z  " style="fill:rgb(54, 55, 63); fill-opacity:1.000; stroke:none;" />
 <path d="  M 22,30  L 22,29  L 21,29  L 21,30  Z  " style="fill:rgb(54, 55, 63); fill-opacity:1.000; stroke:none;" />
 <path d="  M 24,16  L 24,15  L 23,15  L 23,16  Z  " style="fill:rgb(54, 55, 63); fill-opacity:1.000; stroke:none;" />
 <path d="  M 24,18  L 24,17  L 23,17  L 23,18  Z  " style="fill:rgb(54, 55, 63); fill-opacity:1.000; stroke:none;" />
 <path d="  M 25,21  L 25,20  L 24,20  L 24,21  Z  " style="fill:rgb(54, 55, 63); fill-opacity:1.000; stroke:none;" />
 <path d="  M 27,27  L 27,28  L 28,28  L 28,27  Z  " style="fill:rgb(54, 55, 63); fill-opacity:1.000; stroke:none;" />
 <path d="  M 4,20  L 4,19  L 3,19  L 3,20  Z  " style="fill:rgb(47, 48, 55); fill-opacity:1.000; stroke:none;" />
 <path d="  M 5,12  L 5,11  L 4,11  L 4,12  Z  " style="fill:rgb(47, 48, 55); fill-opacity:1.000; stroke:none;" />
 <path d="  M 4,22  L 4,23  L 5,23  L 5,22  Z  " style="fill:rgb(47, 48, 55); fill-opacity:1.000; stroke:none;" />
 <path d="  M 6,7  L 5,7  L 5,8  L 6,8  Z  " style="fill:rgb(47, 48, 55); fill-opacity:1.000; stroke:none;" />
 <path d="  M 5,17  L 6,17  L 6,16  L 5,16  Z  " style="fill:rgb(47, 48, 55); fill-opacity:1.000; stroke:none;" />
 <path d="  M 7,8  L 7,9  L 6,9  L 6,12  L 7,12  L 7,11  L 8,11  L 8,8  Z  " style="fill:rgb(47, 48, 55); fill-opacity:1.000; stroke:none;" />
 <path d="  M 6,16  L 7,16  L 7,15  L 6,15  Z  " style="fill:rgb(47, 48, 55); fill-opacity:1.000; stroke:none;" />
 <path d="  M 18,13  L 18,14  L 17,14  L 17,13  Z  M 19,17  L 19,18  L 18,18  L 18,17  Z  M 20,19  L 21,19  L 21,17  L 22,17  L 22,18  L 23,18  L 23,19  L 22,19  L 22,20  L 21,20  L 21,21  L 20,21  Z  M 14,27  L 14,25  L 15,25  L 15,24  L 16,24  L 16,25  L 17,25  L 17,26  L 16,26  L 16,27  L 17,27  L 17,28  L 18,28  L 18,27  L 19,27  L 19,26  L 21,26  L 21,25  L 22,25  L 22,22  L 23,22  L 23,23  L 24,23  L 24,24  L 25,24  L 25,23  L 26,23  L 26,22  L 25,22  L 25,21  L 24,21  L 24,20  L 25,20  L 25,19  L 26,19  L 26,18  L 25,18  L 25,17  L 24,17  L 24,16  L 23,16  L 23,15  L 22,15  L 22,13  L 23,13  L 23,12  L 24,12  L 24,11  L 23,11  L 23,10  L 20,10  L 20,11  L 19,11  L 19,12  L 18,12  L 18,11  L 17,11  L 17,12  L 16,12  L 16,11  L 15,11  L 15,10  L 14,10  L 14,9  L 13,9  L 13,8  L 12,8  L 12,10  L 11,10  L 11,11  L 10,11  L 10,12  L 9,12  L 9,13  L 10,13  L 10,16  L 7,16  L 7,17  L 6,17  L 6,19  L 7,19  L 7,20  L 9,20  L 9,21  L 10,21  L 10,20  L 11,20  L 11,21  L 12,21  L 12,23  L 11,23  L 11,24  L 7,24  L 7,25  L 8,25  L 8,26  L 9,26  L 9,27  L 10,27  L 10,28  L 12,28  L 12,29  L 13,29  L 13,27  Z  M 17,24  L 18,24  L 18,25  L 17,25  Z  M 17,16  L 17,15  L 18,15  L 18,14  L 19,14  L 19,13  L 20,13  L 20,14  L 21,14  L 21,15  L 20,15  L 20,17  L 19,17  L 19,16  Z  M 21,24  L 21,25  L 20,25  L 20,24  Z  M 19,19  L 19,18  L 20,18  L 20,19  Z  M 7,18  L 8,18  L 8,19  L 7,19  Z  M 13,20  L 13,21  L 12,21  L 12,20  Z  M 12,11  L 13,11  L 13,12  L 12,12  Z  M 23,18  L 23,17  L 24,17  L 24,18  Z  M 13,26  L 13,27  L 12,27  L 12,26  Z  " style="fill:rgb(47, 48, 55); fill-opacity:1.000; stroke:none;" />
 <path d="  M 6,21  L 7,21  L 7,20  L 6,20  Z  " style="fill:rgb(47, 48, 55); fill-opacity:1.000; stroke:none;" />
 <path d="  M 7,26  L 7,25  L 6,25  L 6,26  Z  " style="fill:rgb(47, 48, 55); fill-opacity:1.000; stroke:none;" />
 <path d="  M 8,26  L 7,26  L 7,27  L 8,27  Z  " style="fill:rgb(47, 48, 55); fill-opacity:1.000; stroke:none;" />
 <path d="  M 8,7  L 8,8  L 9,8  L 9,7  Z  " style="fill:rgb(47, 48, 55); fill-opacity:1.000; stroke:none;" />
 <path d="  M 8,22  L 9,22  L 9,21  L 8,21  Z  " style="fill:rgb(47, 48, 55); fill-opacity:1.000; stroke:none;" />
 <path d="  M 9,6  L 10,6  L 10,5  L 9,5  Z  " style="fill:rgb(47, 48, 55); fill-opacity:1.000; stroke:none;" />
 <path d="  M 9,10  L 10,10  L 10,9  L 9,9  Z  " style="fill:rgb(47, 48, 55); fill-opacity:1.000; stroke:none;" />
 <path d="  M 11,7  L 11,8  L 12,8  L 12,7  Z  " style="fill:rgb(47, 48, 55); fill-opacity:1.000; stroke:none;" />
 <path d="  M 14,9  L 15,9  L 15,8  L 14,8  Z  " style="fill:rgb(47, 48, 55); fill-opacity:1.000; stroke:none;" />
 <path d="  M 15,27  L 14,27  L 14,28  L 15,28  Z  " style="fill:rgb(47, 48, 55); fill-opacity:1.000; stroke:none;" />
 <path d="  M 16,10  L 16,9  L 15,9  L 15,10  Z  " style="fill:rgb(47, 48, 55); fill-opacity:1.000; stroke:none;" />
 <path d="  M 16,6  L 16,7  L 17,7  L 17,6  Z  " style="fill:rgb(47, 48, 55); fill-opacity:1.000; stroke:none;" />
 <path d="  M 19,8  L 16,8  L 16,9  L 17,9  L 17,10  L 18,10  L 18,9  L 19,9  Z  " style="fill:rgb(47, 48, 55); fill-opacity:1.000; stroke:none;" />
 <path d="  M 19,11  L 19,10  L 18,10  L 18,11  Z  " style="fill:rgb(47, 48, 55); fill-opacity:1.000; stroke:none;" />
 <path d="  M 19,29  L 19,28  L 18,28  L 18,29  Z  " style="fill:rgb(47, 48, 55); fill-opacity:1.000; stroke:none;" />
 <path d="  M 19,15  L 20,15  L 20,14  L 19,14  Z  " style="fill:rgb(47, 48, 55); fill-opacity:1.000; stroke:none;" />
 <path d="  M 19,28  L 20,28  L 20,27  L 19,27  Z  " style="fill:rgb(47, 48, 55); fill-opacity:1.000; stroke:none;" />
 <path d="  M 23,25  L 22,25  L 22,26  L 23,26  Z  " style="fill:rgb(47, 48, 55); fill-opacity:1.000; stroke:none;" />
 <path d="  M 23,8  L 24,8  L 24,7  L 23,7  Z  " style="fill:rgb(47, 48, 55); fill-opacity:1.000; stroke:none;" />
 <path d="  M 23,14  L 23,15  L 24,15  L 24,14  Z  " style="fill:rgb(47, 48, 55); fill-opacity:1.000; stroke:none;" />
 <path d="  M 23,28  L 24,28  L 24,27  L 23,27  Z  " style="fill:rgb(47, 48, 55); fill-opacity:1.000; stroke:none;" />
 <path d="  M 25,11  L 25,10  L 24,10  L 24,11  Z  " style="fill:rgb(47, 48, 55); fill-opacity:1.000; stroke:none;" />
 <path d="  M 24,13  L 25,13  L 25,12  L 24,12  Z  " style="fill:rgb(47, 48, 55); fill-opacity:1.000; stroke:none;" />
 <path d="  M 25,20  L 25,21  L 26,21  L 26,20  Z  " style="fill:rgb(47, 48, 55); fill-opacity:1.000; stroke:none;" />
 <path d="  M 26,25  L 26,24  L 25,24  L 25,25  Z  " style="fill:rgb(47, 48, 55); fill-opacity:1.000; stroke:none;" />
</svg>
