<?xml version="1.0" encoding="UTF-8" standalone="no"?>
<!DOCTYPE svg PUBLIC "-//W3C//DTD SVG 1.1//EN" 
  "http://www.w3.org/Graphics/SVG/1.1/DTD/svg11.dtd">
<svg width="32" height="96"
	 xmlns="http://www.w3.org/2000/svg" version="1.1">
 <path d="  M 1,7  L 1,5  L 2,5  L 2,4  L 0,4  L 0,7  Z  " style="fill:rgb(62, 68, 83); fill-opacity:1.000; stroke:none;" />
 <path d="  M 0,22  L 1,22  L 1,20  L 2,20  L 2,19  L 4,19  L 4,18  L 2,18  L 2,17  L 1,17  L 1,15  L 0,15  Z  " style="fill:rgb(62, 68, 83); fill-opacity:1.000; stroke:none;" />
 <path d="  M 4,30  L 4,29  L 2,29  L 2,28  L 1,28  L 1,26  L 0,26  L 0,30  Z  " style="fill:rgb(62, 68, 83); fill-opacity:1.000; stroke:none;" />
 <path d="  M 1,37  L 2,37  L 2,36  L 0,36  L 0,39  L 1,39  Z  " style="fill:rgb(62, 68, 83); fill-opacity:1.000; stroke:none;" />
 <path d="  M 0,54  L 1,54  L 1,52  L 2,52  L 2,51  L 4,51  L 4,50  L 2,50  L 2,49  L 1,49  L 1,47  L 0,47  Z  " style="fill:rgb(62, 68, 83); fill-opacity:1.000; stroke:none;" />
 <path d="  M 4,62  L 4,61  L 2,61  L 2,60  L 1,60  L 1,58  L 0,58  L 0,62  Z  " style="fill:rgb(62, 68, 83); fill-opacity:1.000; stroke:none;" />
 <path d="  M 2,68  L 0,68  L 0,71  L 1,71  L 1,69  L 2,69  Z  " style="fill:rgb(62, 68, 83); fill-opacity:1.000; stroke:none;" />
 <path d="  M 0,79  L 0,86  L 1,86  L 1,84  L 2,84  L 2,83  L 4,83  L 4,82  L 2,82  L 2,81  L 1,81  L 1,79  Z  " style="fill:rgb(62, 68, 83); fill-opacity:1.000; stroke:none;" />
 <path d="  M 0,94  L 4,94  L 4,93  L 2,93  L 2,92  L 1,92  L 1,90  L 0,90  Z  " style="fill:rgb(62, 68, 83); fill-opacity:1.000; stroke:none;" />
 <path d="  M 2,2  L 3,2  L 3,1  L 4,1  L 4,0  L 2,0  Z  " style="fill:rgb(62, 68, 83); fill-opacity:1.000; stroke:none;" />
 <path d="  M 3,33  L 4,33  L 4,32  L 2,32  L 2,34  L 3,34  Z  " style="fill:rgb(62, 68, 83); fill-opacity:1.000; stroke:none;" />
 <path d="  M 2,66  L 3,66  L 3,65  L 4,65  L 4,64  L 2,64  Z  " style="fill:rgb(62, 68, 83); fill-opacity:1.000; stroke:none;" />
 <path d="  M 8,4  L 8,3  L 9,3  L 9,2  L 3,2  L 3,3  L 4,3  L 4,4  Z  " style="fill:rgb(62, 68, 83); fill-opacity:1.000; stroke:none;" />
 <path d="  M 3,34  L 3,35  L 4,35  L 4,36  L 8,36  L 8,35  L 9,35  L 9,34  Z  " style="fill:rgb(62, 68, 83); fill-opacity:1.000; stroke:none;" />
 <path d="  M 3,66  L 3,67  L 4,67  L 4,68  L 8,68  L 8,67  L 9,67  L 9,66  Z  " style="fill:rgb(62, 68, 83); fill-opacity:1.000; stroke:none;" />
 <path d="  M 8,1  L 9,1  L 9,2  L 10,2  L 10,0  L 8,0  Z  " style="fill:rgb(62, 68, 83); fill-opacity:1.000; stroke:none;" />
 <path d="  M 11,15  L 11,17  L 10,17  L 10,18  L 8,18  L 8,19  L 10,19  L 10,20  L 11,20  L 11,22  L 12,22  L 12,15  Z  " style="fill:rgb(62, 68, 83); fill-opacity:1.000; stroke:none;" />
 <path d="  M 8,29  L 8,30  L 12,30  L 12,26  L 11,26  L 11,28  L 10,28  L 10,29  Z  " style="fill:rgb(62, 68, 83); fill-opacity:1.000; stroke:none;" />
 <path d="  M 8,32  L 8,33  L 9,33  L 9,34  L 10,34  L 10,32  Z  " style="fill:rgb(62, 68, 83); fill-opacity:1.000; stroke:none;" />
 <path d="  M 8,50  L 8,51  L 10,51  L 10,52  L 11,52  L 11,54  L 12,54  L 12,47  L 11,47  L 11,49  L 10,49  L 10,50  Z  " style="fill:rgb(62, 68, 83); fill-opacity:1.000; stroke:none;" />
 <path d="  M 8,62  L 12,62  L 12,58  L 11,58  L 11,60  L 10,60  L 10,61  L 8,61  Z  " style="fill:rgb(62, 68, 83); fill-opacity:1.000; stroke:none;" />
 <path d="  M 9,65  L 9,66  L 10,66  L 10,64  L 8,64  L 8,65  Z  " style="fill:rgb(62, 68, 83); fill-opacity:1.000; stroke:none;" />
 <path d="  M 11,81  L 10,81  L 10,82  L 8,82  L 8,83  L 10,83  L 10,84  L 11,84  L 11,86  L 12,86  L 12,79  L 11,79  Z  " style="fill:rgb(62, 68, 83); fill-opacity:1.000; stroke:none;" />
 <path d="  M 10,93  L 8,93  L 8,94  L 12,94  L 12,90  L 11,90  L 11,92  L 10,92  Z  " style="fill:rgb(62, 68, 83); fill-opacity:1.000; stroke:none;" />
 <path d="  M 12,7  L 12,4  L 10,4  L 10,5  L 11,5  L 11,7  Z  " style="fill:rgb(62, 68, 83); fill-opacity:1.000; stroke:none;" />
 <path d="  M 10,37  L 11,37  L 11,39  L 12,39  L 12,36  L 10,36  Z  " style="fill:rgb(62, 68, 83); fill-opacity:1.000; stroke:none;" />
 <path d="  M 12,68  L 10,68  L 10,69  L 11,69  L 11,71  L 12,71  Z  " style="fill:rgb(62, 68, 83); fill-opacity:1.000; stroke:none;" />
 <path d="  M 24,4  L 23,4  L 23,5  L 22,5  L 22,6  L 23,6  L 23,8  L 24,8  Z  " style="fill:rgb(62, 68, 83); fill-opacity:1.000; stroke:none;" />
 <path d="  M 22,23  L 22,24  L 24,24  L 24,22  L 23,22  L 23,23  Z  " style="fill:rgb(62, 68, 83); fill-opacity:1.000; stroke:none;" />
 <path d="  M 24,36  L 23,36  L 23,37  L 22,37  L 22,38  L 23,38  L 23,40  L 24,40  Z  " style="fill:rgb(62, 68, 83); fill-opacity:1.000; stroke:none;" />
 <path d="  M 22,55  L 22,56  L 24,56  L 24,54  L 23,54  L 23,55  Z  " style="fill:rgb(62, 68, 83); fill-opacity:1.000; stroke:none;" />
 <path d="  M 23,72  L 24,72  L 24,68  L 23,68  L 23,69  L 22,69  L 22,70  L 23,70  Z  " style="fill:rgb(62, 68, 83); fill-opacity:1.000; stroke:none;" />
 <path d="  M 24,86  L 23,86  L 23,87  L 22,87  L 22,88  L 24,88  Z  " style="fill:rgb(62, 68, 83); fill-opacity:1.000; stroke:none;" />
 <path d="  M 23,12  L 23,14  L 24,14  L 24,12  Z  " style="fill:rgb(62, 68, 83); fill-opacity:1.000; stroke:none;" />
 <path d="  M 24,44  L 23,44  L 23,46  L 24,46  Z  " style="fill:rgb(62, 68, 83); fill-opacity:1.000; stroke:none;" />
 <path d="  M 23,76  L 23,78  L 24,78  L 24,76  Z  " style="fill:rgb(62, 68, 83); fill-opacity:1.000; stroke:none;" />
 <path d="  M 28,3  L 27,3  L 27,2  L 26,2  L 26,3  L 24,3  L 24,4  L 27,4  L 27,6  L 28,6  Z  " style="fill:rgb(62, 68, 83); fill-opacity:1.000; stroke:none;" />
 <path d="  M 25,9  L 26,9  L 26,8  L 24,8  L 24,10  L 25,10  Z  " style="fill:rgb(62, 68, 83); fill-opacity:1.000; stroke:none;" />
 <path d="  M 24,14  L 24,16  L 25,16  L 25,15  L 26,15  L 26,14  Z  " style="fill:rgb(62, 68, 83); fill-opacity:1.000; stroke:none;" />
 <path d="  M 27,24  L 28,24  L 28,21  L 27,21  L 27,20  L 26,20  L 26,21  L 24,21  L 24,22  L 27,22  Z  " style="fill:rgb(62, 68, 83); fill-opacity:1.000; stroke:none;" />
 <path d="  M 26,34  L 26,35  L 24,35  L 24,36  L 27,36  L 27,38  L 28,38  L 28,35  L 27,35  L 27,34  Z  " style="fill:rgb(62, 68, 83); fill-opacity:1.000; stroke:none;" />
 <path d="  M 24,42  L 25,42  L 25,41  L 26,41  L 26,40  L 24,40  Z  " style="fill:rgb(62, 68, 83); fill-opacity:1.000; stroke:none;" />
 <path d="  M 24,46  L 24,48  L 25,48  L 25,47  L 26,47  L 26,46  Z  " style="fill:rgb(62, 68, 83); fill-opacity:1.000; stroke:none;" />
 <path d="  M 26,52  L 26,53  L 24,53  L 24,54  L 27,54  L 27,56  L 28,56  L 28,53  L 27,53  L 27,52  Z  " style="fill:rgb(62, 68, 83); fill-opacity:1.000; stroke:none;" />
 <path d="  M 26,66  L 26,67  L 24,67  L 24,68  L 27,68  L 27,70  L 28,70  L 28,67  L 27,67  L 27,66  Z  " style="fill:rgb(62, 68, 83); fill-opacity:1.000; stroke:none;" />
 <path d="  M 24,74  L 25,74  L 25,73  L 26,73  L 26,72  L 24,72  Z  " style="fill:rgb(62, 68, 83); fill-opacity:1.000; stroke:none;" />
 <path d="  M 25,80  L 25,79  L 26,79  L 26,78  L 24,78  L 24,80  Z  " style="fill:rgb(62, 68, 83); fill-opacity:1.000; stroke:none;" />
 <path d="  M 27,88  L 28,88  L 28,85  L 27,85  L 27,84  L 26,84  L 26,85  L 24,85  L 24,86  L 27,86  Z  " style="fill:rgb(62, 68, 83); fill-opacity:1.000; stroke:none;" />
 <path d="  M 0,15  L 1,15  L 1,7  L 0,7  Z  " style="fill:rgb(73, 80, 101); fill-opacity:1.000; stroke:none;" />
 <path d="  M 0,47  L 1,47  L 1,39  L 0,39  Z  " style="fill:rgb(73, 80, 101); fill-opacity:1.000; stroke:none;" />
 <path d="  M 1,79  L 1,71  L 0,71  L 0,79  Z  " style="fill:rgb(73, 80, 101); fill-opacity:1.000; stroke:none;" />
 <path d="  M 11,6  L 11,5  L 10,5  L 10,2  L 9,2  L 9,3  L 8,3  L 8,4  L 4,4  L 4,3  L 3,3  L 3,2  L 2,2  L 2,5  L 1,5  L 1,6  Z  " style="fill:rgb(73, 80, 101); fill-opacity:1.000; stroke:none;" />
 <path d="  M 10,17  L 11,17  L 11,16  L 1,16  L 1,17  L 2,17  L 2,18  L 10,18  Z  " style="fill:rgb(73, 80, 101); fill-opacity:1.000; stroke:none;" />
 <path d="  M 11,38  L 11,37  L 10,37  L 10,34  L 9,34  L 9,35  L 8,35  L 8,36  L 4,36  L 4,35  L 3,35  L 3,34  L 2,34  L 2,37  L 1,37  L 1,38  Z  " style="fill:rgb(73, 80, 101); fill-opacity:1.000; stroke:none;" />
 <path d="  M 10,49  L 11,49  L 11,48  L 1,48  L 1,49  L 2,49  L 2,50  L 10,50  Z  " style="fill:rgb(73, 80, 101); fill-opacity:1.000; stroke:none;" />
 <path d="  M 11,69  L 10,69  L 10,66  L 9,66  L 9,67  L 8,67  L 8,68  L 4,68  L 4,67  L 3,67  L 3,66  L 2,66  L 2,69  L 1,69  L 1,70  L 11,70  Z  " style="fill:rgb(73, 80, 101); fill-opacity:1.000; stroke:none;" />
 <path d="  M 1,80  L 1,81  L 2,81  L 2,82  L 10,82  L 10,81  L 11,81  L 11,80  Z  " style="fill:rgb(73, 80, 101); fill-opacity:1.000; stroke:none;" />
 <path d="  M 4,20  L 4,21  L 3,21  L 3,22  L 2,22  L 2,26  L 3,26  L 3,27  L 4,27  L 4,28  L 8,28  L 8,27  L 9,27  L 9,26  L 10,26  L 10,22  L 9,22  L 9,21  L 8,21  L 8,20  Z  " style="fill:rgb(73, 80, 101); fill-opacity:1.000; stroke:none;" />
 <path d="  M 2,58  L 3,58  L 3,59  L 4,59  L 4,60  L 8,60  L 8,59  L 9,59  L 9,58  L 10,58  L 10,54  L 9,54  L 9,53  L 8,53  L 8,52  L 4,52  L 4,53  L 3,53  L 3,54  L 2,54  Z  " style="fill:rgb(73, 80, 101); fill-opacity:1.000; stroke:none;" />
 <path d="  M 10,86  L 9,86  L 9,85  L 8,85  L 8,84  L 4,84  L 4,85  L 3,85  L 3,86  L 2,86  L 2,90  L 3,90  L 3,91  L 4,91  L 4,92  L 8,92  L 8,91  L 9,91  L 9,90  L 10,90  Z  " style="fill:rgb(73, 80, 101); fill-opacity:1.000; stroke:none;" />
 <path d="  M 3,2  L 9,2  L 9,1  L 8,1  L 8,0  L 4,0  L 4,1  L 3,1  Z  " style="fill:rgb(73, 80, 101); fill-opacity:1.000; stroke:none;" />
 <path d="  M 9,33  L 8,33  L 8,32  L 4,32  L 4,33  L 3,33  L 3,34  L 9,34  Z  " style="fill:rgb(73, 80, 101); fill-opacity:1.000; stroke:none;" />
 <path d="  M 4,64  L 4,65  L 3,65  L 3,66  L 9,66  L 9,65  L 8,65  L 8,64  Z  " style="fill:rgb(73, 80, 101); fill-opacity:1.000; stroke:none;" />
 <path d="  M 11,7  L 11,15  L 12,15  L 12,7  Z  " style="fill:rgb(73, 80, 101); fill-opacity:1.000; stroke:none;" />
 <path d="  M 12,39  L 11,39  L 11,47  L 12,47  Z  " style="fill:rgb(73, 80, 101); fill-opacity:1.000; stroke:none;" />
 <path d="  M 12,71  L 11,71  L 11,79  L 12,79  Z  " style="fill:rgb(73, 80, 101); fill-opacity:1.000; stroke:none;" />
 <path d="  M 23,3  L 22,3  L 22,5  L 23,5  L 23,4  L 24,4  L 24,3  L 26,3  L 26,2  L 23,2  Z  " style="fill:rgb(73, 80, 101); fill-opacity:1.000; stroke:none;" />
 <path d="  M 26,20  L 23,20  L 23,21  L 22,21  L 22,23  L 23,23  L 23,22  L 24,22  L 24,21  L 26,21  Z  " style="fill:rgb(73, 80, 101); fill-opacity:1.000; stroke:none;" />
 <path d="  M 23,35  L 22,35  L 22,37  L 23,37  L 23,36  L 24,36  L 24,35  L 26,35  L 26,34  L 23,34  Z  " style="fill:rgb(73, 80, 101); fill-opacity:1.000; stroke:none;" />
 <path d="  M 23,54  L 24,54  L 24,53  L 26,53  L 26,52  L 23,52  L 23,53  L 22,53  L 22,55  L 23,55  Z  " style="fill:rgb(73, 80, 101); fill-opacity:1.000; stroke:none;" />
 <path d="  M 22,69  L 23,69  L 23,68  L 24,68  L 24,67  L 26,67  L 26,66  L 23,66  L 23,67  L 22,67  Z  " style="fill:rgb(73, 80, 101); fill-opacity:1.000; stroke:none;" />
 <path d="  M 26,85  L 26,84  L 23,84  L 23,85  L 22,85  L 22,87  L 23,87  L 23,86  L 24,86  L 24,85  Z  " style="fill:rgb(73, 80, 101); fill-opacity:1.000; stroke:none;" />
 <path d="  M 8,18  L 4,18  L 4,19  L 2,19  L 2,20  L 1,20  L 1,22  L 0,22  L 0,26  L 1,26  L 1,28  L 2,28  L 2,29  L 4,29  L 4,30  L 8,30  L 8,29  L 10,29  L 10,28  L 11,28  L 11,26  L 12,26  L 12,22  L 11,22  L 11,20  L 10,20  L 10,19  L 8,19  Z  M 2,22  L 3,22  L 3,21  L 4,21  L 4,20  L 8,20  L 8,21  L 9,21  L 9,22  L 10,22  L 10,26  L 9,26  L 9,27  L 8,27  L 8,28  L 4,28  L 4,27  L 3,27  L 3,26  L 2,26  Z  " style="fill:rgb(66, 74, 94); fill-opacity:1.000; stroke:none;" />
 <path d="  M 4,53  L 4,52  L 8,52  L 8,53  L 9,53  L 9,54  L 10,54  L 10,58  L 9,58  L 9,59  L 8,59  L 8,60  L 4,60  L 4,59  L 3,59  L 3,58  L 2,58  L 2,54  L 3,54  L 3,53  Z  M 0,58  L 1,58  L 1,60  L 2,60  L 2,61  L 4,61  L 4,62  L 8,62  L 8,61  L 10,61  L 10,60  L 11,60  L 11,58  L 12,58  L 12,54  L 11,54  L 11,52  L 10,52  L 10,51  L 8,51  L 8,50  L 4,50  L 4,51  L 2,51  L 2,52  L 1,52  L 1,54  L 0,54  Z  " style="fill:rgb(66, 74, 94); fill-opacity:1.000; stroke:none;" />
 <path d="  M 11,84  L 10,84  L 10,83  L 8,83  L 8,82  L 4,82  L 4,83  L 2,83  L 2,84  L 1,84  L 1,86  L 0,86  L 0,90  L 1,90  L 1,92  L 2,92  L 2,93  L 4,93  L 4,94  L 8,94  L 8,93  L 10,93  L 10,92  L 11,92  L 11,90  L 12,90  L 12,86  L 11,86  Z  M 10,86  L 10,90  L 9,90  L 9,91  L 8,91  L 8,92  L 4,92  L 4,91  L 3,91  L 3,90  L 2,90  L 2,86  L 3,86  L 3,85  L 4,85  L 4,84  L 8,84  L 8,85  L 9,85  L 9,86  Z  " style="fill:rgb(66, 74, 94); fill-opacity:1.000; stroke:none;" />
 <path d="  M 2,7  L 4,7  L 4,6  L 1,6  L 1,8  L 2,8  Z  " style="fill:rgb(3, 150, 154); fill-opacity:1.000; stroke:none;" />
 <path d="  M 2,39  L 4,39  L 4,38  L 1,38  L 1,40  L 2,40  Z  " style="fill:rgb(3, 150, 154); fill-opacity:1.000; stroke:none;" />
 <path d="  M 1,70  L 1,72  L 2,72  L 2,71  L 4,71  L 4,70  Z  " style="fill:rgb(3, 150, 154); fill-opacity:1.000; stroke:none;" />
 <path d="  M 8,6  L 8,7  L 10,7  L 10,8  L 11,8  L 11,6  Z  " style="fill:rgb(3, 150, 154); fill-opacity:1.000; stroke:none;" />
 <path d="  M 8,39  L 10,39  L 10,40  L 11,40  L 11,38  L 8,38  Z  " style="fill:rgb(3, 150, 154); fill-opacity:1.000; stroke:none;" />
 <path d="  M 10,71  L 10,72  L 11,72  L 11,70  L 8,70  L 8,71  Z  " style="fill:rgb(3, 150, 154); fill-opacity:1.000; stroke:none;" />
 <path d="  M 8,8  L 8,9  L 10,9  L 10,10  L 11,10  L 11,8  L 10,8  L 10,7  L 8,7  L 8,6  L 4,6  L 4,7  L 2,7  L 2,8  L 1,8  L 1,10  L 2,10  L 2,9  L 4,9  L 4,8  Z  " style="fill:rgb(35, 192, 198); fill-opacity:1.000; stroke:none;" />
 <path d="  M 4,16  L 4,15  L 2,15  L 2,14  L 1,14  L 1,16  Z  " style="fill:rgb(35, 192, 198); fill-opacity:1.000; stroke:none;" />
 <path d="  M 11,16  L 11,14  L 10,14  L 10,15  L 8,15  L 8,16  Z  " style="fill:rgb(35, 192, 198); fill-opacity:1.000; stroke:none;" />
 <path d="  M 1,14  L 2,14  L 2,15  L 4,15  L 4,16  L 8,16  L 8,15  L 10,15  L 10,14  L 11,14  L 11,10  L 10,10  L 10,9  L 8,9  L 8,8  L 4,8  L 4,9  L 2,9  L 2,10  L 1,10  Z  M 3,13  L 3,11  L 4,11  L 4,10  L 5,10  L 5,9  L 7,9  L 7,10  L 8,10  L 8,11  L 9,11  L 9,13  L 8,13  L 8,14  L 7,14  L 7,15  L 5,15  L 5,14  L 4,14  L 4,13  Z  " style="fill:rgb(109, 237, 241); fill-opacity:1.000; stroke:none;" />
 <path d="  M 8,39  L 8,38  L 4,38  L 4,39  L 2,39  L 2,40  L 1,40  L 1,42  L 2,42  L 2,41  L 4,41  L 4,40  L 8,40  L 8,41  L 10,41  L 10,42  L 11,42  L 11,40  L 10,40  L 10,39  Z  " style="fill:rgb(42, 201, 207); fill-opacity:1.000; stroke:none;" />
 <path d="  M 4,47  L 2,47  L 2,46  L 1,46  L 1,48  L 4,48  Z  " style="fill:rgb(42, 201, 207); fill-opacity:1.000; stroke:none;" />
 <path d="  M 2,71  L 2,72  L 1,72  L 1,74  L 2,74  L 2,73  L 4,73  L 4,72  L 8,72  L 8,73  L 10,73  L 10,74  L 11,74  L 11,72  L 10,72  L 10,71  L 8,71  L 8,70  L 4,70  L 4,71  Z  " style="fill:rgb(42, 201, 207); fill-opacity:1.000; stroke:none;" />
 <path d="  M 4,80  L 4,79  L 2,79  L 2,78  L 1,78  L 1,80  Z  " style="fill:rgb(42, 201, 207); fill-opacity:1.000; stroke:none;" />
 <path d="  M 11,46  L 10,46  L 10,47  L 8,47  L 8,48  L 11,48  Z  " style="fill:rgb(42, 201, 207); fill-opacity:1.000; stroke:none;" />
 <path d="  M 10,79  L 8,79  L 8,80  L 11,80  L 11,78  L 10,78  Z  " style="fill:rgb(42, 201, 207); fill-opacity:1.000; stroke:none;" />
 <path d="  M 4,42  L 5,42  L 5,41  L 7,41  L 7,42  L 8,42  L 8,43  L 9,43  L 9,45  L 8,45  L 8,46  L 7,46  L 7,47  L 5,47  L 5,46  L 4,46  L 4,45  L 3,45  L 3,43  L 4,43  Z  M 8,48  L 8,47  L 10,47  L 10,46  L 11,46  L 11,42  L 10,42  L 10,41  L 8,41  L 8,40  L 4,40  L 4,41  L 2,41  L 2,42  L 1,42  L 1,46  L 2,46  L 2,47  L 4,47  L 4,48  Z  " style="fill:rgb(122, 245, 248); fill-opacity:1.000; stroke:none;" />
 <path d="  M 8,80  L 8,79  L 10,79  L 10,78  L 11,78  L 11,74  L 10,74  L 10,73  L 8,73  L 8,72  L 4,72  L 4,73  L 2,73  L 2,74  L 1,74  L 1,78  L 2,78  L 2,79  L 4,79  L 4,80  Z  M 7,79  L 5,79  L 5,78  L 4,78  L 4,77  L 3,77  L 3,75  L 4,75  L 4,74  L 5,74  L 5,73  L 7,73  L 7,74  L 8,74  L 8,75  L 9,75  L 9,77  L 8,77  L 8,78  L 7,78  Z  " style="fill:rgb(116, 241, 245); fill-opacity:1.000; stroke:none;" />
 <path d="  M 4,11  L 3,11  L 3,13  L 4,13  Z  " style="fill:rgb(196, 253, 255); fill-opacity:1.000; stroke:none;" />
 <path d="  M 4,11  L 5,11  L 5,10  L 4,10  Z  " style="fill:rgb(196, 253, 255); fill-opacity:1.000; stroke:none;" />
 <path d="  M 5,13  L 4,13  L 4,14  L 5,14  Z  " style="fill:rgb(196, 253, 255); fill-opacity:1.000; stroke:none;" />
 <path d="  M 5,9  L 5,10  L 7,10  L 7,9  Z  " style="fill:rgb(196, 253, 255); fill-opacity:1.000; stroke:none;" />
 <path d="  M 5,14  L 5,15  L 7,15  L 7,14  Z  " style="fill:rgb(196, 253, 255); fill-opacity:1.000; stroke:none;" />
 <path d="  M 7,11  L 8,11  L 8,10  L 7,10  Z  " style="fill:rgb(196, 253, 255); fill-opacity:1.000; stroke:none;" />
 <path d="  M 7,13  L 7,14  L 8,14  L 8,13  Z  " style="fill:rgb(196, 253, 255); fill-opacity:1.000; stroke:none;" />
 <path d="  M 9,13  L 9,11  L 8,11  L 8,13  Z  " style="fill:rgb(196, 253, 255); fill-opacity:1.000; stroke:none;" />
 <path d="  M 4,45  L 4,43  L 3,43  L 3,45  Z  " style="fill:rgb(218, 253, 255); fill-opacity:1.000; stroke:none;" />
 <path d="  M 5,43  L 5,42  L 4,42  L 4,43  Z  " style="fill:rgb(218, 253, 255); fill-opacity:1.000; stroke:none;" />
 <path d="  M 5,45  L 4,45  L 4,46  L 5,46  Z  " style="fill:rgb(218, 253, 255); fill-opacity:1.000; stroke:none;" />
 <path d="  M 5,41  L 5,42  L 7,42  L 7,41  Z  " style="fill:rgb(218, 253, 255); fill-opacity:1.000; stroke:none;" />
 <path d="  M 7,46  L 5,46  L 5,47  L 7,47  Z  " style="fill:rgb(218, 253, 255); fill-opacity:1.000; stroke:none;" />
 <path d="  M 7,42  L 7,43  L 8,43  L 8,42  Z  " style="fill:rgb(218, 253, 255); fill-opacity:1.000; stroke:none;" />
 <path d="  M 7,45  L 7,46  L 8,46  L 8,45  Z  " style="fill:rgb(218, 253, 255); fill-opacity:1.000; stroke:none;" />
 <path d="  M 9,43  L 8,43  L 8,45  L 9,45  Z  " style="fill:rgb(218, 253, 255); fill-opacity:1.000; stroke:none;" />
 <path d="  M 4,77  L 4,75  L 3,75  L 3,77  Z  " style="fill:rgb(217, 250, 251); fill-opacity:1.000; stroke:none;" />
 <path d="  M 5,74  L 4,74  L 4,75  L 5,75  Z  " style="fill:rgb(217, 250, 251); fill-opacity:1.000; stroke:none;" />
 <path d="  M 4,78  L 5,78  L 5,77  L 4,77  Z  " style="fill:rgb(217, 250, 251); fill-opacity:1.000; stroke:none;" />
 <path d="  M 7,74  L 7,73  L 5,73  L 5,74  Z  " style="fill:rgb(217, 250, 251); fill-opacity:1.000; stroke:none;" />
 <path d="  M 7,79  L 7,78  L 5,78  L 5,79  Z  " style="fill:rgb(217, 250, 251); fill-opacity:1.000; stroke:none;" />
 <path d="  M 7,75  L 8,75  L 8,74  L 7,74  Z  " style="fill:rgb(217, 250, 251); fill-opacity:1.000; stroke:none;" />
 <path d="  M 7,77  L 7,78  L 8,78  L 8,77  Z  " style="fill:rgb(217, 250, 251); fill-opacity:1.000; stroke:none;" />
 <path d="  M 8,77  L 9,77  L 9,75  L 8,75  Z  " style="fill:rgb(217, 250, 251); fill-opacity:1.000; stroke:none;" />
 <path d="  M 4,13  L 5,13  L 5,14  L 7,14  L 7,13  L 8,13  L 8,11  L 7,11  L 7,10  L 5,10  L 5,11  L 4,11  Z  " style="fill:rgb(244, 250, 255); fill-opacity:1.000; stroke:none;" />
 <path d="  M 7,46  L 7,45  L 8,45  L 8,43  L 7,43  L 7,42  L 5,42  L 5,43  L 4,43  L 4,45  L 5,45  L 5,46  Z  " style="fill:rgb(244, 250, 255); fill-opacity:1.000; stroke:none;" />
 <path d="  M 7,75  L 7,74  L 5,74  L 5,75  L 4,75  L 4,77  L 5,77  L 5,78  L 7,78  L 7,77  L 8,77  L 8,75  Z  " style="fill:rgb(244, 250, 255); fill-opacity:1.000; stroke:none;" />
 <path d="  M 23,6  L 22,6  L 22,9  L 23,9  L 23,10  L 24,10  L 24,8  L 23,8  Z  " style="fill:rgb(37, 44, 61); fill-opacity:1.000; stroke:none;" />
 <path d="  M 24,16  L 24,14  L 23,14  L 23,12  L 22,12  L 22,15  L 23,15  L 23,16  Z  " style="fill:rgb(37, 44, 61); fill-opacity:1.000; stroke:none;" />
 <path d="  M 23,40  L 23,38  L 22,38  L 22,41  L 23,41  L 23,42  L 24,42  L 24,40  Z  " style="fill:rgb(37, 44, 61); fill-opacity:1.000; stroke:none;" />
 <path d="  M 22,47  L 23,47  L 23,48  L 24,48  L 24,46  L 23,46  L 23,44  L 22,44  Z  " style="fill:rgb(37, 44, 61); fill-opacity:1.000; stroke:none;" />
 <path d="  M 23,73  L 23,74  L 24,74  L 24,72  L 23,72  L 23,70  L 22,70  L 22,73  Z  " style="fill:rgb(37, 44, 61); fill-opacity:1.000; stroke:none;" />
 <path d="  M 24,78  L 23,78  L 23,76  L 22,76  L 22,79  L 23,79  L 23,80  L 24,80  Z  " style="fill:rgb(37, 44, 61); fill-opacity:1.000; stroke:none;" />
 <path d="  M 26,9  L 25,9  L 25,10  L 27,10  L 27,9  L 28,9  L 28,6  L 27,6  L 27,4  L 26,4  Z  " style="fill:rgb(37, 44, 61); fill-opacity:1.000; stroke:none;" />
 <path d="  M 27,16  L 27,15  L 28,15  L 28,12  L 26,12  L 26,15  L 25,15  L 25,16  Z  " style="fill:rgb(37, 44, 61); fill-opacity:1.000; stroke:none;" />
 <path d="  M 26,41  L 25,41  L 25,42  L 27,42  L 27,41  L 28,41  L 28,38  L 27,38  L 27,36  L 26,36  Z  " style="fill:rgb(37, 44, 61); fill-opacity:1.000; stroke:none;" />
 <path d="  M 25,48  L 27,48  L 27,47  L 28,47  L 28,44  L 26,44  L 26,47  L 25,47  Z  " style="fill:rgb(37, 44, 61); fill-opacity:1.000; stroke:none;" />
 <path d="  M 27,68  L 26,68  L 26,73  L 25,73  L 25,74  L 27,74  L 27,73  L 28,73  L 28,70  L 27,70  Z  " style="fill:rgb(37, 44, 61); fill-opacity:1.000; stroke:none;" />
 <path d="  M 25,80  L 27,80  L 27,79  L 28,79  L 28,76  L 26,76  L 26,79  L 25,79  Z  " style="fill:rgb(37, 44, 61); fill-opacity:1.000; stroke:none;" />
 <path d="  M 27,24  L 27,22  L 26,22  L 26,24  Z  " style="fill:rgb(37, 44, 61); fill-opacity:1.000; stroke:none;" />
 <path d="  M 27,54  L 26,54  L 26,56  L 27,56  Z  " style="fill:rgb(37, 44, 61); fill-opacity:1.000; stroke:none;" />
 <path d="  M 27,86  L 26,86  L 26,88  L 27,88  Z  " style="fill:rgb(37, 44, 61); fill-opacity:1.000; stroke:none;" />
</svg>
