<?xml version="1.0" encoding="UTF-8" standalone="no"?>
<!DOCTYPE svg PUBLIC "-//W3C//DTD SVG 1.1//EN" 
  "http://www.w3.org/Graphics/SVG/1.1/DTD/svg11.dtd">
<svg width="32" height="96"
	 xmlns="http://www.w3.org/2000/svg" version="1.1">
 <path d="  M 2,29  L 3,29  L 3,28  L 2,28  Z  " style="fill:rgb(216, 216, 216); fill-opacity:1.000; stroke:none;" />
 <path d="  M 2,60  L 2,61  L 3,61  L 3,60  Z  " style="fill:rgb(216, 216, 216); fill-opacity:1.000; stroke:none;" />
 <path d="  M 12,53  L 11,53  L 11,54  L 10,54  L 10,55  L 9,55  L 9,56  L 8,56  L 8,57  L 7,57  L 7,58  L 6,58  L 6,59  L 5,59  L 5,60  L 4,60  L 4,61  L 3,61  L 3,63  L 2,63  L 2,64  L 5,64  L 5,63  L 6,63  L 6,62  L 7,62  L 7,61  L 8,61  L 8,60  L 9,60  L 9,59  L 10,59  L 10,58  L 11,58  L 11,57  L 12,57  L 12,55  L 14,55  L 14,54  L 15,54  L 15,53  L 16,53  L 16,52  L 17,52  L 17,51  L 14,51  L 14,50  L 13,50  L 13,52  L 12,52  Z  " style="fill:rgb(216, 216, 216); fill-opacity:1.000; stroke:none;" />
 <path d="  M 4,92  L 4,93  L 2,93  L 2,94  L 3,94  L 3,96  L 5,96  L 5,95  L 6,95  L 6,94  L 7,94  L 7,93  L 8,93  L 8,92  L 9,92  L 9,91  L 10,91  L 10,90  L 11,90  L 11,89  L 12,89  L 12,88  L 13,88  L 13,87  L 14,87  L 14,86  L 15,86  L 15,85  L 16,85  L 16,84  L 17,84  L 17,83  L 13,83  L 13,84  L 12,84  L 12,85  L 11,85  L 11,86  L 10,86  L 10,87  L 9,87  L 9,88  L 8,88  L 8,89  L 7,89  L 7,90  L 6,90  L 6,91  L 5,91  L 5,92  Z  " style="fill:rgb(216, 216, 216); fill-opacity:1.000; stroke:none;" />
 <path d="  M 4,25  L 3,25  L 3,26  L 4,26  Z  " style="fill:rgb(216, 216, 216); fill-opacity:1.000; stroke:none;" />
 <path d="  M 9,27  L 10,27  L 10,25  L 12,25  L 12,24  L 13,24  L 13,23  L 14,23  L 14,22  L 15,22  L 15,21  L 16,21  L 16,20  L 17,20  L 17,19  L 13,19  L 13,20  L 12,20  L 12,21  L 11,21  L 11,22  L 10,22  L 10,23  L 9,23  L 9,24  L 8,24  L 8,25  L 7,25  L 7,26  L 6,26  L 6,27  L 5,27  L 5,28  L 4,28  L 4,29  L 3,29  L 3,32  L 5,32  L 5,31  L 6,31  L 6,30  L 7,30  L 7,29  L 8,29  L 8,28  L 9,28  Z  " style="fill:rgb(216, 216, 216); fill-opacity:1.000; stroke:none;" />
 <path d="  M 4,57  L 3,57  L 3,58  L 4,58  Z  " style="fill:rgb(216, 216, 216); fill-opacity:1.000; stroke:none;" />
 <path d="  M 4,89  L 3,89  L 3,90  L 4,90  Z  " style="fill:rgb(216, 216, 216); fill-opacity:1.000; stroke:none;" />
 <path d="  M 5,24  L 5,23  L 4,23  L 4,24  Z  " style="fill:rgb(216, 216, 216); fill-opacity:1.000; stroke:none;" />
 <path d="  M 5,88  L 5,87  L 4,87  L 4,88  Z  " style="fill:rgb(216, 216, 216); fill-opacity:1.000; stroke:none;" />
 <path d="  M 6,24  L 5,24  L 5,25  L 6,25  Z  " style="fill:rgb(216, 216, 216); fill-opacity:1.000; stroke:none;" />
 <path d="  M 6,55  L 5,55  L 5,57  L 6,57  L 6,56  L 7,56  L 7,55  L 8,55  L 8,54  L 9,54  L 9,53  L 6,53  Z  " style="fill:rgb(216, 216, 216); fill-opacity:1.000; stroke:none;" />
 <path d="  M 5,86  L 5,87  L 6,87  L 6,86  Z  " style="fill:rgb(216, 216, 216); fill-opacity:1.000; stroke:none;" />
 <path d="  M 5,89  L 6,89  L 6,88  L 5,88  Z  " style="fill:rgb(216, 216, 216); fill-opacity:1.000; stroke:none;" />
 <path d="  M 7,23  L 8,23  L 8,22  L 9,22  L 9,21  L 7,21  L 7,22  L 6,22  L 6,24  L 7,24  Z  " style="fill:rgb(216, 216, 216); fill-opacity:1.000; stroke:none;" />
 <path d="  M 7,88  L 7,87  L 6,87  L 6,88  Z  " style="fill:rgb(216, 216, 216); fill-opacity:1.000; stroke:none;" />
 <path d="  M 9,29  L 9,30  L 8,30  L 8,31  L 7,31  L 7,32  L 12,32  L 12,31  L 13,31  L 13,30  L 14,30  L 14,29  L 15,29  L 15,28  L 16,28  L 16,26  L 17,26  L 17,25  L 18,25  L 18,24  L 19,24  L 19,23  L 20,23  L 20,22  L 22,22  L 22,21  L 23,21  L 23,20  L 20,20  L 20,19  L 19,19  L 19,20  L 18,20  L 18,21  L 17,21  L 17,22  L 16,22  L 16,23  L 15,23  L 15,24  L 14,24  L 14,25  L 13,25  L 13,26  L 12,26  L 12,27  L 11,27  L 11,28  L 10,28  L 10,29  Z  " style="fill:rgb(216, 216, 216); fill-opacity:1.000; stroke:none;" />
 <path d="  M 12,64  L 12,63  L 13,63  L 13,62  L 14,62  L 14,61  L 15,61  L 15,60  L 16,60  L 16,59  L 17,59  L 17,58  L 18,58  L 18,57  L 19,57  L 19,56  L 20,56  L 20,55  L 21,55  L 21,54  L 22,54  L 22,52  L 20,52  L 20,51  L 19,51  L 19,52  L 18,52  L 18,53  L 17,53  L 17,54  L 16,54  L 16,55  L 15,55  L 15,56  L 14,56  L 14,58  L 12,58  L 12,59  L 11,59  L 11,60  L 10,60  L 10,61  L 9,61  L 9,62  L 8,62  L 8,63  L 7,63  L 7,64  Z  " style="fill:rgb(216, 216, 216); fill-opacity:1.000; stroke:none;" />
 <path d="  M 9,86  L 9,84  L 8,84  L 8,85  L 7,85  L 7,87  L 8,87  L 8,86  Z  " style="fill:rgb(216, 216, 216); fill-opacity:1.000; stroke:none;" />
 <path d="  M 19,83  L 19,84  L 18,84  L 18,85  L 17,85  L 17,86  L 16,86  L 16,87  L 15,87  L 15,88  L 14,88  L 14,90  L 12,90  L 12,91  L 11,91  L 11,92  L 10,92  L 10,93  L 9,93  L 9,94  L 8,94  L 8,95  L 7,95  L 7,96  L 12,96  L 12,95  L 13,95  L 13,94  L 14,94  L 14,93  L 15,93  L 15,92  L 16,92  L 16,91  L 17,91  L 17,90  L 18,90  L 18,89  L 19,89  L 19,88  L 20,88  L 20,87  L 21,87  L 21,86  L 22,86  L 22,85  L 23,85  L 23,84  L 21,84  L 21,83  Z  " style="fill:rgb(216, 216, 216); fill-opacity:1.000; stroke:none;" />
 <path d="  M 9,19  L 9,20  L 10,20  L 10,19  Z  " style="fill:rgb(216, 216, 216); fill-opacity:1.000; stroke:none;" />
 <path d="  M 9,83  L 9,84  L 10,84  L 10,83  Z  " style="fill:rgb(216, 216, 216); fill-opacity:1.000; stroke:none;" />
 <path d="  M 10,51  L 10,52  L 11,52  L 11,51  Z  " style="fill:rgb(216, 216, 216); fill-opacity:1.000; stroke:none;" />
 <path d="  M 12,18  L 12,19  L 13,19  L 13,18  Z  " style="fill:rgb(216, 216, 216); fill-opacity:1.000; stroke:none;" />
 <path d="  M 12,83  L 13,83  L 13,82  L 12,82  Z  " style="fill:rgb(216, 216, 216); fill-opacity:1.000; stroke:none;" />
 <path d="  M 16,30  L 16,29  L 15,29  L 15,30  Z  " style="fill:rgb(216, 216, 216); fill-opacity:1.000; stroke:none;" />
 <path d="  M 16,62  L 16,61  L 15,61  L 15,62  Z  " style="fill:rgb(216, 216, 216); fill-opacity:1.000; stroke:none;" />
 <path d="  M 15,93  L 15,94  L 16,94  L 16,93  Z  " style="fill:rgb(216, 216, 216); fill-opacity:1.000; stroke:none;" />
 <path d="  M 18,29  L 17,29  L 17,30  L 18,30  Z  " style="fill:rgb(216, 216, 216); fill-opacity:1.000; stroke:none;" />
 <path d="  M 18,62  L 18,61  L 17,61  L 17,62  Z  " style="fill:rgb(216, 216, 216); fill-opacity:1.000; stroke:none;" />
 <path d="  M 18,93  L 17,93  L 17,94  L 18,94  Z  " style="fill:rgb(216, 216, 216); fill-opacity:1.000; stroke:none;" />
 <path d="  M 19,31  L 20,31  L 20,32  L 21,32  L 21,31  L 22,31  L 22,30  L 23,30  L 23,29  L 24,29  L 24,28  L 25,28  L 25,27  L 26,27  L 26,26  L 27,26  L 27,23  L 25,23  L 25,24  L 24,24  L 24,25  L 23,25  L 23,26  L 22,26  L 22,27  L 21,27  L 21,28  L 20,28  L 20,29  L 19,29  Z  " style="fill:rgb(216, 216, 216); fill-opacity:1.000; stroke:none;" />
 <path d="  M 25,59  L 26,59  L 26,58  L 27,58  L 27,55  L 25,55  L 25,56  L 24,56  L 24,57  L 23,57  L 23,58  L 22,58  L 22,59  L 21,59  L 21,60  L 20,60  L 20,61  L 19,61  L 19,63  L 20,63  L 20,64  L 21,64  L 21,63  L 22,63  L 22,62  L 23,62  L 23,61  L 24,61  L 24,60  L 25,60  Z  " style="fill:rgb(216, 216, 216); fill-opacity:1.000; stroke:none;" />
 <path d="  M 27,88  L 28,88  L 28,87  L 25,87  L 25,88  L 24,88  L 24,89  L 23,89  L 23,90  L 22,90  L 22,91  L 21,91  L 21,92  L 20,92  L 20,93  L 19,93  L 19,95  L 20,95  L 20,96  L 21,96  L 21,95  L 22,95  L 22,94  L 23,94  L 23,93  L 24,93  L 24,92  L 25,92  L 25,91  L 26,91  L 26,90  L 27,90  Z  " style="fill:rgb(216, 216, 216); fill-opacity:1.000; stroke:none;" />
 <path d="  M 30,28  L 29,28  L 29,29  L 28,29  L 28,26  L 27,26  L 27,28  L 26,28  L 26,29  L 25,29  L 25,30  L 24,30  L 24,31  L 23,31  L 23,32  L 29,32  L 29,30  L 30,30  Z  " style="fill:rgb(216, 216, 216); fill-opacity:1.000; stroke:none;" />
 <path d="  M 28,58  L 27,58  L 27,60  L 26,60  L 26,61  L 25,61  L 25,62  L 24,62  L 24,63  L 23,63  L 23,64  L 29,64  L 29,62  L 30,62  L 30,61  L 28,61  Z  " style="fill:rgb(216, 216, 216); fill-opacity:1.000; stroke:none;" />
 <path d="  M 28,93  L 28,90  L 27,90  L 27,92  L 26,92  L 26,93  L 25,93  L 25,94  L 24,94  L 24,95  L 23,95  L 23,96  L 29,96  L 29,93  Z  " style="fill:rgb(216, 216, 216); fill-opacity:1.000; stroke:none;" />
 <path d="  M 25,85  L 25,84  L 24,84  L 24,85  Z  " style="fill:rgb(216, 216, 216); fill-opacity:1.000; stroke:none;" />
 <path d="  M 26,86  L 26,85  L 25,85  L 25,86  Z  " style="fill:rgb(216, 216, 216); fill-opacity:1.000; stroke:none;" />
 <path d="  M 29,26  L 29,25  L 28,25  L 28,26  Z  " style="fill:rgb(216, 216, 216); fill-opacity:1.000; stroke:none;" />
 <path d="  M 29,57  L 28,57  L 28,58  L 29,58  Z  " style="fill:rgb(216, 216, 216); fill-opacity:1.000; stroke:none;" />
 <path d="  M 29,90  L 29,89  L 28,89  L 28,90  Z  " style="fill:rgb(216, 216, 216); fill-opacity:1.000; stroke:none;" />
 <path d="  M 29,92  L 29,93  L 30,93  L 30,92  Z  " style="fill:rgb(216, 216, 216); fill-opacity:1.000; stroke:none;" />
 <path d="  M 3,31  L 3,29  L 2,29  L 2,31  Z  " style="fill:rgb(255, 255, 255); fill-opacity:1.000; stroke:none;" />
 <path d="  M 2,63  L 3,63  L 3,62  L 2,62  Z  " style="fill:rgb(255, 255, 255); fill-opacity:1.000; stroke:none;" />
 <path d="  M 2,94  L 2,95  L 3,95  L 3,94  Z  " style="fill:rgb(255, 255, 255); fill-opacity:1.000; stroke:none;" />
 <path d="  M 3,27  L 4,27  L 4,26  L 3,26  Z  " style="fill:rgb(255, 255, 255); fill-opacity:1.000; stroke:none;" />
 <path d="  M 3,29  L 4,29  L 4,28  L 3,28  Z  " style="fill:rgb(255, 255, 255); fill-opacity:1.000; stroke:none;" />
 <path d="  M 3,59  L 3,61  L 4,61  L 4,60  L 5,60  L 5,59  Z  " style="fill:rgb(255, 255, 255); fill-opacity:1.000; stroke:none;" />
 <path d="  M 4,93  L 4,92  L 5,92  L 5,91  L 4,91  L 4,90  L 3,90  L 3,93  Z  " style="fill:rgb(255, 255, 255); fill-opacity:1.000; stroke:none;" />
 <path d="  M 5,25  L 4,25  L 4,26  L 5,26  Z  " style="fill:rgb(255, 255, 255); fill-opacity:1.000; stroke:none;" />
 <path d="  M 5,28  L 5,27  L 4,27  L 4,28  Z  " style="fill:rgb(255, 255, 255); fill-opacity:1.000; stroke:none;" />
 <path d="  M 5,56  L 4,56  L 4,58  L 5,58  Z  " style="fill:rgb(255, 255, 255); fill-opacity:1.000; stroke:none;" />
 <path d="  M 4,89  L 4,90  L 5,90  L 5,89  Z  " style="fill:rgb(255, 255, 255); fill-opacity:1.000; stroke:none;" />
 <path d="  M 5,24  L 6,24  L 6,23  L 5,23  Z  " style="fill:rgb(255, 255, 255); fill-opacity:1.000; stroke:none;" />
 <path d="  M 6,27  L 6,26  L 5,26  L 5,27  Z  " style="fill:rgb(255, 255, 255); fill-opacity:1.000; stroke:none;" />
 <path d="  M 5,55  L 6,55  L 6,54  L 5,54  Z  " style="fill:rgb(255, 255, 255); fill-opacity:1.000; stroke:none;" />
 <path d="  M 6,59  L 6,58  L 5,58  L 5,59  Z  " style="fill:rgb(255, 255, 255); fill-opacity:1.000; stroke:none;" />
 <path d="  M 6,88  L 6,87  L 5,87  L 5,88  Z  " style="fill:rgb(255, 255, 255); fill-opacity:1.000; stroke:none;" />
 <path d="  M 6,90  L 5,90  L 5,91  L 6,91  Z  " style="fill:rgb(255, 255, 255); fill-opacity:1.000; stroke:none;" />
 <path d="  M 7,26  L 7,25  L 6,25  L 6,26  Z  " style="fill:rgb(255, 255, 255); fill-opacity:1.000; stroke:none;" />
 <path d="  M 6,31  L 6,32  L 7,32  L 7,31  Z  " style="fill:rgb(255, 255, 255); fill-opacity:1.000; stroke:none;" />
 <path d="  M 6,58  L 7,58  L 7,57  L 6,57  Z  " style="fill:rgb(255, 255, 255); fill-opacity:1.000; stroke:none;" />
 <path d="  M 7,63  L 6,63  L 6,64  L 7,64  Z  " style="fill:rgb(255, 255, 255); fill-opacity:1.000; stroke:none;" />
 <path d="  M 7,86  L 6,86  L 6,87  L 7,87  Z  " style="fill:rgb(255, 255, 255); fill-opacity:1.000; stroke:none;" />
 <path d="  M 7,90  L 7,89  L 6,89  L 6,90  Z  " style="fill:rgb(255, 255, 255); fill-opacity:1.000; stroke:none;" />
 <path d="  M 7,95  L 6,95  L 6,96  L 7,96  Z  " style="fill:rgb(255, 255, 255); fill-opacity:1.000; stroke:none;" />
 <path d="  M 8,20  L 7,20  L 7,21  L 8,21  Z  " style="fill:rgb(255, 255, 255); fill-opacity:1.000; stroke:none;" />
 <path d="  M 8,25  L 8,24  L 7,24  L 7,25  Z  " style="fill:rgb(255, 255, 255); fill-opacity:1.000; stroke:none;" />
 <path d="  M 7,30  L 7,31  L 8,31  L 8,30  Z  " style="fill:rgb(255, 255, 255); fill-opacity:1.000; stroke:none;" />
 <path d="  M 8,57  L 8,56  L 7,56  L 7,57  Z  " style="fill:rgb(255, 255, 255); fill-opacity:1.000; stroke:none;" />
 <path d="  M 7,63  L 8,63  L 8,62  L 7,62  Z  " style="fill:rgb(255, 255, 255); fill-opacity:1.000; stroke:none;" />
 <path d="  M 7,85  L 8,85  L 8,84  L 7,84  Z  " style="fill:rgb(255, 255, 255); fill-opacity:1.000; stroke:none;" />
 <path d="  M 8,88  L 7,88  L 7,89  L 8,89  Z  " style="fill:rgb(255, 255, 255); fill-opacity:1.000; stroke:none;" />
 <path d="  M 7,94  L 7,95  L 8,95  L 8,94  Z  " style="fill:rgb(255, 255, 255); fill-opacity:1.000; stroke:none;" />
 <path d="  M 9,24  L 9,23  L 8,23  L 8,24  Z  " style="fill:rgb(255, 255, 255); fill-opacity:1.000; stroke:none;" />
 <path d="  M 9,29  L 8,29  L 8,30  L 9,30  Z  " style="fill:rgb(255, 255, 255); fill-opacity:1.000; stroke:none;" />
 <path d="  M 10,53  L 10,52  L 8,52  L 8,53  Z  " style="fill:rgb(255, 255, 255); fill-opacity:1.000; stroke:none;" />
 <path d="  M 9,55  L 8,55  L 8,56  L 9,56  Z  " style="fill:rgb(255, 255, 255); fill-opacity:1.000; stroke:none;" />
 <path d="  M 8,61  L 8,62  L 9,62  L 9,61  Z  " style="fill:rgb(255, 255, 255); fill-opacity:1.000; stroke:none;" />
 <path d="  M 9,87  L 8,87  L 8,88  L 9,88  Z  " style="fill:rgb(255, 255, 255); fill-opacity:1.000; stroke:none;" />
 <path d="  M 9,94  L 9,93  L 8,93  L 8,94  Z  " style="fill:rgb(255, 255, 255); fill-opacity:1.000; stroke:none;" />
 <path d="  M 10,21  L 10,20  L 9,20  L 9,21  Z  " style="fill:rgb(255, 255, 255); fill-opacity:1.000; stroke:none;" />
 <path d="  M 9,23  L 10,23  L 10,22  L 9,22  Z  " style="fill:rgb(255, 255, 255); fill-opacity:1.000; stroke:none;" />
 <path d="  M 9,29  L 10,29  L 10,28  L 9,28  Z  " style="fill:rgb(255, 255, 255); fill-opacity:1.000; stroke:none;" />
 <path d="  M 10,55  L 10,54  L 9,54  L 9,55  Z  " style="fill:rgb(255, 255, 255); fill-opacity:1.000; stroke:none;" />
 <path d="  M 10,60  L 9,60  L 9,61  L 10,61  Z  " style="fill:rgb(255, 255, 255); fill-opacity:1.000; stroke:none;" />
 <path d="  M 9,87  L 10,87  L 10,86  L 9,86  Z  " style="fill:rgb(255, 255, 255); fill-opacity:1.000; stroke:none;" />
 <path d="  M 9,92  L 9,93  L 10,93  L 10,92  Z  " style="fill:rgb(255, 255, 255); fill-opacity:1.000; stroke:none;" />
 <path d="  M 11,20  L 11,19  L 10,19  L 10,20  Z  " style="fill:rgb(255, 255, 255); fill-opacity:1.000; stroke:none;" />
 <path d="  M 11,22  L 11,21  L 10,21  L 10,22  Z  " style="fill:rgb(255, 255, 255); fill-opacity:1.000; stroke:none;" />
 <path d="  M 10,27  L 10,28  L 11,28  L 11,27  Z  " style="fill:rgb(255, 255, 255); fill-opacity:1.000; stroke:none;" />
 <path d="  M 10,54  L 11,54  L 11,53  L 10,53  Z  " style="fill:rgb(255, 255, 255); fill-opacity:1.000; stroke:none;" />
 <path d="  M 11,60  L 11,59  L 10,59  L 10,60  Z  " style="fill:rgb(255, 255, 255); fill-opacity:1.000; stroke:none;" />
 <path d="  M 11,84  L 11,83  L 10,83  L 10,84  Z  " style="fill:rgb(255, 255, 255); fill-opacity:1.000; stroke:none;" />
 <path d="  M 10,86  L 11,86  L 11,85  L 10,85  Z  " style="fill:rgb(255, 255, 255); fill-opacity:1.000; stroke:none;" />
 <path d="  M 10,91  L 10,92  L 11,92  L 11,91  Z  " style="fill:rgb(255, 255, 255); fill-opacity:1.000; stroke:none;" />
 <path d="  M 12,21  L 12,20  L 11,20  L 11,21  Z  " style="fill:rgb(255, 255, 255); fill-opacity:1.000; stroke:none;" />
 <path d="  M 12,26  L 11,26  L 11,27  L 12,27  Z  " style="fill:rgb(255, 255, 255); fill-opacity:1.000; stroke:none;" />
 <path d="  M 11,51  L 11,53  L 12,53  L 12,52  L 13,52  L 13,51  Z  " style="fill:rgb(255, 255, 255); fill-opacity:1.000; stroke:none;" />
 <path d="  M 11,59  L 12,59  L 12,58  L 11,58  Z  " style="fill:rgb(255, 255, 255); fill-opacity:1.000; stroke:none;" />
 <path d="  M 12,85  L 12,84  L 11,84  L 11,85  Z  " style="fill:rgb(255, 255, 255); fill-opacity:1.000; stroke:none;" />
 <path d="  M 11,91  L 12,91  L 12,90  L 11,90  Z  " style="fill:rgb(255, 255, 255); fill-opacity:1.000; stroke:none;" />
 <path d="  M 13,19  L 12,19  L 12,20  L 13,20  Z  " style="fill:rgb(255, 255, 255); fill-opacity:1.000; stroke:none;" />
 <path d="  M 13,25  L 12,25  L 12,26  L 13,26  Z  " style="fill:rgb(255, 255, 255); fill-opacity:1.000; stroke:none;" />
 <path d="  M 12,57  L 12,58  L 13,58  L 13,57  Z  " style="fill:rgb(255, 255, 255); fill-opacity:1.000; stroke:none;" />
 <path d="  M 13,83  L 12,83  L 12,84  L 13,84  Z  " style="fill:rgb(255, 255, 255); fill-opacity:1.000; stroke:none;" />
 <path d="  M 12,89  L 12,90  L 13,90  L 13,89  Z  " style="fill:rgb(255, 255, 255); fill-opacity:1.000; stroke:none;" />
 <path d="  M 13,18  L 13,19  L 15,19  L 15,18  Z  " style="fill:rgb(255, 255, 255); fill-opacity:1.000; stroke:none;" />
 <path d="  M 13,24  L 13,25  L 14,25  L 14,24  Z  " style="fill:rgb(255, 255, 255); fill-opacity:1.000; stroke:none;" />
 <path d="  M 13,57  L 14,57  L 14,56  L 13,56  Z  " style="fill:rgb(255, 255, 255); fill-opacity:1.000; stroke:none;" />
 <path d="  M 15,83  L 15,82  L 13,82  L 13,83  Z  " style="fill:rgb(255, 255, 255); fill-opacity:1.000; stroke:none;" />
 <path d="  M 13,88  L 13,89  L 14,89  L 14,88  Z  " style="fill:rgb(255, 255, 255); fill-opacity:1.000; stroke:none;" />
 <path d="  M 14,24  L 15,24  L 15,23  L 14,23  Z  " style="fill:rgb(255, 255, 255); fill-opacity:1.000; stroke:none;" />
 <path d="  M 16,50  L 14,50  L 14,51  L 16,51  Z  " style="fill:rgb(255, 255, 255); fill-opacity:1.000; stroke:none;" />
 <path d="  M 14,55  L 14,56  L 15,56  L 15,55  Z  " style="fill:rgb(255, 255, 255); fill-opacity:1.000; stroke:none;" />
 <path d="  M 14,88  L 15,88  L 15,87  L 14,87  Z  " style="fill:rgb(255, 255, 255); fill-opacity:1.000; stroke:none;" />
 <path d="  M 15,22  L 15,23  L 16,23  L 16,22  Z  " style="fill:rgb(255, 255, 255); fill-opacity:1.000; stroke:none;" />
 <path d="  M 17,26  L 17,27  L 16,27  L 16,28  L 15,28  L 15,29  L 16,29  L 16,30  L 17,30  L 17,29  L 18,29  L 18,30  L 19,30  L 19,29  L 20,29  L 20,28  L 21,28  L 21,27  L 22,27  L 22,26  L 23,26  L 23,25  L 24,25  L 24,24  L 25,24  L 25,23  L 27,23  L 27,22  L 25,22  L 25,20  L 23,20  L 23,21  L 22,21  L 22,22  L 21,22  L 21,23  L 20,23  L 20,24  L 19,24  L 19,25  L 18,25  L 18,26  Z  " style="fill:rgb(255, 255, 255); fill-opacity:1.000; stroke:none;" />
 <path d="  M 15,54  L 15,55  L 16,55  L 16,54  Z  " style="fill:rgb(255, 255, 255); fill-opacity:1.000; stroke:none;" />
 <path d="  M 17,58  L 17,59  L 16,59  L 16,60  L 15,60  L 15,61  L 16,61  L 16,62  L 17,62  L 17,61  L 18,61  L 18,62  L 19,62  L 19,61  L 20,61  L 20,59  L 21,59  L 21,58  L 22,58  L 22,57  L 23,57  L 23,56  L 25,56  L 25,55  L 26,55  L 26,53  L 25,53  L 25,52  L 24,52  L 24,53  L 23,53  L 23,51  L 21,51  L 21,52  L 22,52  L 22,54  L 21,54  L 21,55  L 20,55  L 20,56  L 19,56  L 19,57  L 18,57  L 18,58  Z  " style="fill:rgb(255, 255, 255); fill-opacity:1.000; stroke:none;" />
 <path d="  M 15,86  L 15,87  L 16,87  L 16,86  Z  " style="fill:rgb(255, 255, 255); fill-opacity:1.000; stroke:none;" />
 <path d="  M 20,92  L 21,92  L 21,91  L 22,91  L 22,89  L 23,89  L 23,88  L 24,88  L 24,87  L 25,87  L 25,85  L 24,85  L 24,84  L 23,84  L 23,85  L 22,85  L 22,86  L 21,86  L 21,87  L 20,87  L 20,88  L 19,88  L 19,89  L 18,89  L 18,90  L 17,90  L 17,91  L 16,91  L 16,92  L 15,92  L 15,93  L 16,93  L 16,94  L 17,94  L 17,93  L 18,93  L 18,94  L 19,94  L 19,93  L 20,93  Z  " style="fill:rgb(255, 255, 255); fill-opacity:1.000; stroke:none;" />
 <path d="  M 18,19  L 18,20  L 19,20  L 19,18  L 16,18  L 16,19  Z  " style="fill:rgb(255, 255, 255); fill-opacity:1.000; stroke:none;" />
 <path d="  M 17,22  L 17,21  L 16,21  L 16,22  Z  " style="fill:rgb(255, 255, 255); fill-opacity:1.000; stroke:none;" />
 <path d="  M 16,53  L 16,54  L 17,54  L 17,53  Z  " style="fill:rgb(255, 255, 255); fill-opacity:1.000; stroke:none;" />
 <path d="  M 19,82  L 16,82  L 16,83  L 18,83  L 18,84  L 19,84  Z  " style="fill:rgb(255, 255, 255); fill-opacity:1.000; stroke:none;" />
 <path d="  M 16,86  L 17,86  L 17,85  L 16,85  Z  " style="fill:rgb(255, 255, 255); fill-opacity:1.000; stroke:none;" />
 <path d="  M 17,20  L 17,21  L 18,21  L 18,20  Z  " style="fill:rgb(255, 255, 255); fill-opacity:1.000; stroke:none;" />
 <path d="  M 17,50  L 17,51  L 18,51  L 18,52  L 19,52  L 19,51  L 20,51  L 20,50  Z  " style="fill:rgb(255, 255, 255); fill-opacity:1.000; stroke:none;" />
 <path d="  M 17,53  L 18,53  L 18,52  L 17,52  Z  " style="fill:rgb(255, 255, 255); fill-opacity:1.000; stroke:none;" />
 <path d="  M 18,84  L 17,84  L 17,85  L 18,85  Z  " style="fill:rgb(255, 255, 255); fill-opacity:1.000; stroke:none;" />
 <path d="  M 22,20  L 22,19  L 20,19  L 20,20  Z  " style="fill:rgb(255, 255, 255); fill-opacity:1.000; stroke:none;" />
 <path d="  M 21,84  L 22,84  L 22,83  L 21,83  Z  " style="fill:rgb(255, 255, 255); fill-opacity:1.000; stroke:none;" />
 <path d="  M 23,32  L 23,31  L 22,31  L 22,32  Z  " style="fill:rgb(255, 255, 255); fill-opacity:1.000; stroke:none;" />
 <path d="  M 23,64  L 23,63  L 22,63  L 22,64  Z  " style="fill:rgb(255, 255, 255); fill-opacity:1.000; stroke:none;" />
 <path d="  M 22,95  L 22,96  L 23,96  L 23,95  Z  " style="fill:rgb(255, 255, 255); fill-opacity:1.000; stroke:none;" />
 <path d="  M 23,31  L 24,31  L 24,30  L 23,30  Z  " style="fill:rgb(255, 255, 255); fill-opacity:1.000; stroke:none;" />
 <path d="  M 24,62  L 23,62  L 23,63  L 24,63  Z  " style="fill:rgb(255, 255, 255); fill-opacity:1.000; stroke:none;" />
 <path d="  M 24,95  L 24,94  L 23,94  L 23,95  Z  " style="fill:rgb(255, 255, 255); fill-opacity:1.000; stroke:none;" />
 <path d="  M 24,30  L 25,30  L 25,29  L 24,29  Z  " style="fill:rgb(255, 255, 255); fill-opacity:1.000; stroke:none;" />
 <path d="  M 24,62  L 25,62  L 25,61  L 24,61  Z  " style="fill:rgb(255, 255, 255); fill-opacity:1.000; stroke:none;" />
 <path d="  M 24,94  L 25,94  L 25,93  L 24,93  Z  " style="fill:rgb(255, 255, 255); fill-opacity:1.000; stroke:none;" />
 <path d="  M 26,29  L 26,28  L 25,28  L 25,29  Z  " style="fill:rgb(255, 255, 255); fill-opacity:1.000; stroke:none;" />
 <path d="  M 25,61  L 26,61  L 26,60  L 25,60  Z  " style="fill:rgb(255, 255, 255); fill-opacity:1.000; stroke:none;" />
 <path d="  M 25,93  L 26,93  L 26,92  L 25,92  Z  " style="fill:rgb(255, 255, 255); fill-opacity:1.000; stroke:none;" />
 <path d="  M 26,28  L 27,28  L 27,27  L 26,27  Z  " style="fill:rgb(255, 255, 255); fill-opacity:1.000; stroke:none;" />
 <path d="  M 27,59  L 26,59  L 26,60  L 27,60  Z  " style="fill:rgb(255, 255, 255); fill-opacity:1.000; stroke:none;" />
 <path d="  M 26,92  L 27,92  L 27,91  L 26,91  Z  " style="fill:rgb(255, 255, 255); fill-opacity:1.000; stroke:none;" />
 <path d="  M 27,24  L 28,24  L 28,23  L 27,23  Z  " style="fill:rgb(255, 255, 255); fill-opacity:1.000; stroke:none;" />
 <path d="  M 27,26  L 28,26  L 28,25  L 27,25  Z  " style="fill:rgb(255, 255, 255); fill-opacity:1.000; stroke:none;" />
 <path d="  M 27,57  L 28,57  L 28,55  L 27,55  Z  " style="fill:rgb(255, 255, 255); fill-opacity:1.000; stroke:none;" />
 <path d="  M 27,88  L 27,90  L 28,90  L 28,88  Z  " style="fill:rgb(255, 255, 255); fill-opacity:1.000; stroke:none;" />
 <path d="  M 28,27  L 29,27  L 29,26  L 28,26  Z  " style="fill:rgb(255, 255, 255); fill-opacity:1.000; stroke:none;" />
 <path d="  M 28,28  L 28,29  L 29,29  L 29,28  Z  " style="fill:rgb(255, 255, 255); fill-opacity:1.000; stroke:none;" />
 <path d="  M 28,61  L 29,61  L 29,58  L 28,58  Z  " style="fill:rgb(255, 255, 255); fill-opacity:1.000; stroke:none;" />
 <path d="  M 29,93  L 29,90  L 28,90  L 28,93  Z  " style="fill:rgb(255, 255, 255); fill-opacity:1.000; stroke:none;" />
 <path d="  M 30,32  L 30,31  L 29,31  L 29,32  Z  " style="fill:rgb(255, 255, 255); fill-opacity:1.000; stroke:none;" />
 <path d="  M 29,62  L 29,63  L 30,63  L 30,62  Z  " style="fill:rgb(255, 255, 255); fill-opacity:1.000; stroke:none;" />
 <path d="  M 29,96  L 30,96  L 30,93  L 29,93  Z  " style="fill:rgb(255, 255, 255); fill-opacity:1.000; stroke:none;" />
 <path d="  M 2,32  L 3,32  L 3,31  L 2,31  Z  " style="fill:rgb(168, 168, 168); fill-opacity:1.000; stroke:none;" />
 <path d="  M 3,61  L 2,61  L 2,62  L 3,62  Z  " style="fill:rgb(168, 168, 168); fill-opacity:1.000; stroke:none;" />
 <path d="  M 2,93  L 3,93  L 3,92  L 2,92  Z  " style="fill:rgb(168, 168, 168); fill-opacity:1.000; stroke:none;" />
 <path d="  M 2,96  L 3,96  L 3,95  L 2,95  Z  " style="fill:rgb(168, 168, 168); fill-opacity:1.000; stroke:none;" />
 <path d="  M 4,27  L 3,27  L 3,28  L 4,28  Z  " style="fill:rgb(168, 168, 168); fill-opacity:1.000; stroke:none;" />
 <path d="  M 4,59  L 4,58  L 3,58  L 3,59  Z  " style="fill:rgb(168, 168, 168); fill-opacity:1.000; stroke:none;" />
 <path d="  M 4,25  L 5,25  L 5,24  L 4,24  Z  " style="fill:rgb(168, 168, 168); fill-opacity:1.000; stroke:none;" />
 <path d="  M 4,56  L 5,56  L 5,55  L 4,55  Z  " style="fill:rgb(168, 168, 168); fill-opacity:1.000; stroke:none;" />
 <path d="  M 4,88  L 4,89  L 5,89  L 5,88  Z  " style="fill:rgb(168, 168, 168); fill-opacity:1.000; stroke:none;" />
 <path d="  M 5,23  L 6,23  L 6,22  L 5,22  Z  " style="fill:rgb(168, 168, 168); fill-opacity:1.000; stroke:none;" />
 <path d="  M 6,21  L 6,22  L 7,22  L 7,21  Z  " style="fill:rgb(168, 168, 168); fill-opacity:1.000; stroke:none;" />
 <path d="  M 7,85  L 6,85  L 6,86  L 7,86  Z  " style="fill:rgb(168, 168, 168); fill-opacity:1.000; stroke:none;" />
 <path d="  M 7,52  L 7,53  L 8,53  L 8,52  Z  " style="fill:rgb(168, 168, 168); fill-opacity:1.000; stroke:none;" />
 <path d="  M 9,20  L 8,20  L 8,21  L 9,21  Z  " style="fill:rgb(168, 168, 168); fill-opacity:1.000; stroke:none;" />
 <path d="  M 10,52  L 10,51  L 9,51  L 9,52  Z  " style="fill:rgb(168, 168, 168); fill-opacity:1.000; stroke:none;" />
 <path d="  M 10,85  L 10,84  L 9,84  L 9,85  Z  " style="fill:rgb(168, 168, 168); fill-opacity:1.000; stroke:none;" />
 <path d="  M 12,19  L 11,19  L 11,20  L 12,20  Z  " style="fill:rgb(168, 168, 168); fill-opacity:1.000; stroke:none;" />
 <path d="  M 11,83  L 11,84  L 12,84  L 12,83  Z  " style="fill:rgb(168, 168, 168); fill-opacity:1.000; stroke:none;" />
 <path d="  M 12,50  L 12,51  L 13,51  L 13,50  Z  " style="fill:rgb(168, 168, 168); fill-opacity:1.000; stroke:none;" />
 <path d="  M 15,29  L 14,29  L 14,30  L 15,30  Z  " style="fill:rgb(168, 168, 168); fill-opacity:1.000; stroke:none;" />
 <path d="  M 14,62  L 15,62  L 15,61  L 14,61  Z  " style="fill:rgb(168, 168, 168); fill-opacity:1.000; stroke:none;" />
 <path d="  M 15,93  L 14,93  L 14,94  L 15,94  Z  " style="fill:rgb(168, 168, 168); fill-opacity:1.000; stroke:none;" />
 <path d="  M 16,18  L 15,18  L 15,19  L 16,19  Z  " style="fill:rgb(168, 168, 168); fill-opacity:1.000; stroke:none;" />
 <path d="  M 15,83  L 16,83  L 16,82  L 15,82  Z  " style="fill:rgb(168, 168, 168); fill-opacity:1.000; stroke:none;" />
 <path d="  M 17,50  L 16,50  L 16,51  L 17,51  Z  " style="fill:rgb(168, 168, 168); fill-opacity:1.000; stroke:none;" />
 <path d="  M 19,19  L 20,19  L 20,18  L 19,18  Z  " style="fill:rgb(168, 168, 168); fill-opacity:1.000; stroke:none;" />
 <path d="  M 19,83  L 20,83  L 20,82  L 19,82  Z  " style="fill:rgb(168, 168, 168); fill-opacity:1.000; stroke:none;" />
 <path d="  M 20,51  L 20,52  L 21,52  L 21,51  Z  " style="fill:rgb(168, 168, 168); fill-opacity:1.000; stroke:none;" />
 <path d="  M 22,19  L 22,20  L 23,20  L 23,19  Z  " style="fill:rgb(168, 168, 168); fill-opacity:1.000; stroke:none;" />
 <path d="  M 23,84  L 23,83  L 22,83  L 22,84  Z  " style="fill:rgb(168, 168, 168); fill-opacity:1.000; stroke:none;" />
 <path d="  M 24,52  L 23,52  L 23,53  L 24,53  Z  " style="fill:rgb(168, 168, 168); fill-opacity:1.000; stroke:none;" />
 <path d="  M 25,22  L 26,22  L 26,21  L 25,21  Z  " style="fill:rgb(168, 168, 168); fill-opacity:1.000; stroke:none;" />
 <path d="  M 27,55  L 27,54  L 26,54  L 26,55  Z  " style="fill:rgb(168, 168, 168); fill-opacity:1.000; stroke:none;" />
 <path d="  M 27,86  L 26,86  L 26,87  L 27,87  Z  " style="fill:rgb(168, 168, 168); fill-opacity:1.000; stroke:none;" />
 <path d="  M 28,25  L 28,24  L 27,24  L 27,25  Z  " style="fill:rgb(168, 168, 168); fill-opacity:1.000; stroke:none;" />
 <path d="  M 27,58  L 28,58  L 28,57  L 27,57  Z  " style="fill:rgb(168, 168, 168); fill-opacity:1.000; stroke:none;" />
 <path d="  M 29,28  L 29,27  L 28,27  L 28,28  Z  " style="fill:rgb(168, 168, 168); fill-opacity:1.000; stroke:none;" />
 <path d="  M 29,31  L 30,31  L 30,30  L 29,30  Z  " style="fill:rgb(168, 168, 168); fill-opacity:1.000; stroke:none;" />
 <path d="  M 30,61  L 30,60  L 29,60  L 29,61  Z  " style="fill:rgb(168, 168, 168); fill-opacity:1.000; stroke:none;" />
 <path d="  M 30,63  L 29,63  L 29,64  L 30,64  Z  " style="fill:rgb(168, 168, 168); fill-opacity:1.000; stroke:none;" />
 <path d="  M 5,26  L 4,26  L 4,27  L 5,27  Z  " style="fill:rgb(234, 234, 234); fill-opacity:1.000; stroke:none;" />
 <path d="  M 5,59  L 5,58  L 4,58  L 4,59  Z  " style="fill:rgb(234, 234, 234); fill-opacity:1.000; stroke:none;" />
 <path d="  M 5,90  L 4,90  L 4,91  L 5,91  Z  " style="fill:rgb(234, 234, 234); fill-opacity:1.000; stroke:none;" />
 <path d="  M 6,25  L 5,25  L 5,26  L 6,26  Z  " style="fill:rgb(234, 234, 234); fill-opacity:1.000; stroke:none;" />
 <path d="  M 6,31  L 5,31  L 5,32  L 6,32  Z  " style="fill:rgb(234, 234, 234); fill-opacity:1.000; stroke:none;" />
 <path d="  M 5,57  L 5,58  L 6,58  L 6,57  Z  " style="fill:rgb(234, 234, 234); fill-opacity:1.000; stroke:none;" />
 <path d="  M 6,64  L 6,63  L 5,63  L 5,64  Z  " style="fill:rgb(234, 234, 234); fill-opacity:1.000; stroke:none;" />
 <path d="  M 6,89  L 5,89  L 5,90  L 6,90  Z  " style="fill:rgb(234, 234, 234); fill-opacity:1.000; stroke:none;" />
 <path d="  M 6,95  L 5,95  L 5,96  L 6,96  Z  " style="fill:rgb(234, 234, 234); fill-opacity:1.000; stroke:none;" />
 <path d="  M 7,24  L 6,24  L 6,25  L 7,25  Z  " style="fill:rgb(234, 234, 234); fill-opacity:1.000; stroke:none;" />
 <path d="  M 7,31  L 7,30  L 6,30  L 6,31  Z  " style="fill:rgb(234, 234, 234); fill-opacity:1.000; stroke:none;" />
 <path d="  M 6,56  L 6,57  L 7,57  L 7,56  Z  " style="fill:rgb(234, 234, 234); fill-opacity:1.000; stroke:none;" />
 <path d="  M 7,63  L 7,62  L 6,62  L 6,63  Z  " style="fill:rgb(234, 234, 234); fill-opacity:1.000; stroke:none;" />
 <path d="  M 7,88  L 6,88  L 6,89  L 7,89  Z  " style="fill:rgb(234, 234, 234); fill-opacity:1.000; stroke:none;" />
 <path d="  M 6,94  L 6,95  L 7,95  L 7,94  Z  " style="fill:rgb(234, 234, 234); fill-opacity:1.000; stroke:none;" />
 <path d="  M 7,24  L 8,24  L 8,23  L 7,23  Z  " style="fill:rgb(234, 234, 234); fill-opacity:1.000; stroke:none;" />
 <path d="  M 8,30  L 8,29  L 7,29  L 7,30  Z  " style="fill:rgb(234, 234, 234); fill-opacity:1.000; stroke:none;" />
 <path d="  M 7,55  L 7,56  L 8,56  L 8,55  Z  " style="fill:rgb(234, 234, 234); fill-opacity:1.000; stroke:none;" />
 <path d="  M 8,61  L 7,61  L 7,62  L 8,62  Z  " style="fill:rgb(234, 234, 234); fill-opacity:1.000; stroke:none;" />
 <path d="  M 7,87  L 7,88  L 8,88  L 8,87  Z  " style="fill:rgb(234, 234, 234); fill-opacity:1.000; stroke:none;" />
 <path d="  M 8,93  L 7,93  L 7,94  L 8,94  Z  " style="fill:rgb(234, 234, 234); fill-opacity:1.000; stroke:none;" />
 <path d="  M 9,22  L 8,22  L 8,23  L 9,23  Z  " style="fill:rgb(234, 234, 234); fill-opacity:1.000; stroke:none;" />
 <path d="  M 9,29  L 9,28  L 8,28  L 8,29  Z  " style="fill:rgb(234, 234, 234); fill-opacity:1.000; stroke:none;" />
 <path d="  M 9,54  L 8,54  L 8,55  L 9,55  Z  " style="fill:rgb(234, 234, 234); fill-opacity:1.000; stroke:none;" />
 <path d="  M 8,61  L 9,61  L 9,60  L 8,60  Z  " style="fill:rgb(234, 234, 234); fill-opacity:1.000; stroke:none;" />
 <path d="  M 9,86  L 8,86  L 8,87  L 9,87  Z  " style="fill:rgb(234, 234, 234); fill-opacity:1.000; stroke:none;" />
 <path d="  M 8,93  L 9,93  L 9,92  L 8,92  Z  " style="fill:rgb(234, 234, 234); fill-opacity:1.000; stroke:none;" />
 <path d="  M 10,21  L 9,21  L 9,22  L 10,22  Z  " style="fill:rgb(234, 234, 234); fill-opacity:1.000; stroke:none;" />
 <path d="  M 10,27  L 9,27  L 9,28  L 10,28  Z  " style="fill:rgb(234, 234, 234); fill-opacity:1.000; stroke:none;" />
 <path d="  M 10,53  L 9,53  L 9,54  L 10,54  Z  " style="fill:rgb(234, 234, 234); fill-opacity:1.000; stroke:none;" />
 <path d="  M 10,59  L 9,59  L 9,60  L 10,60  Z  " style="fill:rgb(234, 234, 234); fill-opacity:1.000; stroke:none;" />
 <path d="  M 10,85  L 9,85  L 9,86  L 10,86  Z  " style="fill:rgb(234, 234, 234); fill-opacity:1.000; stroke:none;" />
 <path d="  M 10,92  L 10,91  L 9,91  L 9,92  Z  " style="fill:rgb(234, 234, 234); fill-opacity:1.000; stroke:none;" />
 <path d="  M 11,20  L 10,20  L 10,21  L 11,21  Z  " style="fill:rgb(234, 234, 234); fill-opacity:1.000; stroke:none;" />
 <path d="  M 10,25  L 10,27  L 11,27  L 11,26  L 12,26  L 12,25  Z  " style="fill:rgb(234, 234, 234); fill-opacity:1.000; stroke:none;" />
 <path d="  M 11,52  L 10,52  L 10,53  L 11,53  Z  " style="fill:rgb(234, 234, 234); fill-opacity:1.000; stroke:none;" />
 <path d="  M 11,59  L 11,58  L 10,58  L 10,59  Z  " style="fill:rgb(234, 234, 234); fill-opacity:1.000; stroke:none;" />
 <path d="  M 11,85  L 11,84  L 10,84  L 10,85  Z  " style="fill:rgb(234, 234, 234); fill-opacity:1.000; stroke:none;" />
 <path d="  M 10,91  L 11,91  L 11,90  L 10,90  Z  " style="fill:rgb(234, 234, 234); fill-opacity:1.000; stroke:none;" />
 <path d="  M 12,57  L 11,57  L 11,58  L 12,58  Z  " style="fill:rgb(234, 234, 234); fill-opacity:1.000; stroke:none;" />
 <path d="  M 12,89  L 11,89  L 11,90  L 12,90  Z  " style="fill:rgb(234, 234, 234); fill-opacity:1.000; stroke:none;" />
 <path d="  M 13,25  L 13,24  L 12,24  L 12,25  Z  " style="fill:rgb(234, 234, 234); fill-opacity:1.000; stroke:none;" />
 <path d="  M 14,56  L 14,55  L 12,55  L 12,57  L 13,57  L 13,56  Z  " style="fill:rgb(234, 234, 234); fill-opacity:1.000; stroke:none;" />
 <path d="  M 13,88  L 12,88  L 12,89  L 13,89  Z  " style="fill:rgb(234, 234, 234); fill-opacity:1.000; stroke:none;" />
 <path d="  M 14,23  L 13,23  L 13,24  L 14,24  Z  " style="fill:rgb(234, 234, 234); fill-opacity:1.000; stroke:none;" />
 <path d="  M 13,57  L 13,58  L 14,58  L 14,57  Z  " style="fill:rgb(234, 234, 234); fill-opacity:1.000; stroke:none;" />
 <path d="  M 13,87  L 13,88  L 14,88  L 14,87  Z  " style="fill:rgb(234, 234, 234); fill-opacity:1.000; stroke:none;" />
 <path d="  M 14,90  L 14,89  L 13,89  L 13,90  Z  " style="fill:rgb(234, 234, 234); fill-opacity:1.000; stroke:none;" />
 <path d="  M 15,23  L 15,22  L 14,22  L 14,23  Z  " style="fill:rgb(234, 234, 234); fill-opacity:1.000; stroke:none;" />
 <path d="  M 15,54  L 14,54  L 14,55  L 15,55  Z  " style="fill:rgb(234, 234, 234); fill-opacity:1.000; stroke:none;" />
 <path d="  M 14,87  L 15,87  L 15,86  L 14,86  Z  " style="fill:rgb(234, 234, 234); fill-opacity:1.000; stroke:none;" />
 <path d="  M 16,22  L 16,21  L 15,21  L 15,22  Z  " style="fill:rgb(234, 234, 234); fill-opacity:1.000; stroke:none;" />
 <path d="  M 16,54  L 16,53  L 15,53  L 15,54  Z  " style="fill:rgb(234, 234, 234); fill-opacity:1.000; stroke:none;" />
 <path d="  M 15,86  L 16,86  L 16,85  L 15,85  Z  " style="fill:rgb(234, 234, 234); fill-opacity:1.000; stroke:none;" />
 <path d="  M 16,20  L 16,21  L 17,21  L 17,20  Z  " style="fill:rgb(234, 234, 234); fill-opacity:1.000; stroke:none;" />
 <path d="  M 16,26  L 16,27  L 17,27  L 17,26  Z  " style="fill:rgb(234, 234, 234); fill-opacity:1.000; stroke:none;" />
 <path d="  M 17,53  L 17,52  L 16,52  L 16,53  Z  " style="fill:rgb(234, 234, 234); fill-opacity:1.000; stroke:none;" />
 <path d="  M 17,84  L 16,84  L 16,85  L 17,85  Z  " style="fill:rgb(234, 234, 234); fill-opacity:1.000; stroke:none;" />
 <path d="  M 18,20  L 18,19  L 17,19  L 17,20  Z  " style="fill:rgb(234, 234, 234); fill-opacity:1.000; stroke:none;" />
 <path d="  M 18,25  L 17,25  L 17,26  L 18,26  Z  " style="fill:rgb(234, 234, 234); fill-opacity:1.000; stroke:none;" />
 <path d="  M 18,52  L 18,51  L 17,51  L 17,52  Z  " style="fill:rgb(234, 234, 234); fill-opacity:1.000; stroke:none;" />
 <path d="  M 18,84  L 18,83  L 17,83  L 17,84  Z  " style="fill:rgb(234, 234, 234); fill-opacity:1.000; stroke:none;" />
 <path d="  M 18,24  L 18,25  L 19,25  L 19,24  Z  " style="fill:rgb(234, 234, 234); fill-opacity:1.000; stroke:none;" />
 <path d="  M 19,24  L 20,24  L 20,23  L 19,23  Z  " style="fill:rgb(234, 234, 234); fill-opacity:1.000; stroke:none;" />
 <path d="  M 21,22  L 20,22  L 20,23  L 21,23  Z  " style="fill:rgb(234, 234, 234); fill-opacity:1.000; stroke:none;" />
 <path d="  M 21,59  L 20,59  L 20,60  L 21,60  Z  " style="fill:rgb(234, 234, 234); fill-opacity:1.000; stroke:none;" />
 <path d="  M 21,31  L 21,32  L 22,32  L 22,31  Z  " style="fill:rgb(234, 234, 234); fill-opacity:1.000; stroke:none;" />
 <path d="  M 21,58  L 21,59  L 22,59  L 22,58  Z  " style="fill:rgb(234, 234, 234); fill-opacity:1.000; stroke:none;" />
 <path d="  M 22,63  L 21,63  L 21,64  L 22,64  Z  " style="fill:rgb(234, 234, 234); fill-opacity:1.000; stroke:none;" />
 <path d="  M 22,96  L 22,95  L 21,95  L 21,96  Z  " style="fill:rgb(234, 234, 234); fill-opacity:1.000; stroke:none;" />
 <path d="  M 23,30  L 22,30  L 22,31  L 23,31  Z  " style="fill:rgb(234, 234, 234); fill-opacity:1.000; stroke:none;" />
 <path d="  M 22,57  L 22,58  L 23,58  L 23,57  Z  " style="fill:rgb(234, 234, 234); fill-opacity:1.000; stroke:none;" />
 <path d="  M 23,62  L 22,62  L 22,63  L 23,63  Z  " style="fill:rgb(234, 234, 234); fill-opacity:1.000; stroke:none;" />
 <path d="  M 23,89  L 22,89  L 22,90  L 23,90  Z  " style="fill:rgb(234, 234, 234); fill-opacity:1.000; stroke:none;" />
 <path d="  M 22,95  L 23,95  L 23,94  L 22,94  Z  " style="fill:rgb(234, 234, 234); fill-opacity:1.000; stroke:none;" />
 <path d="  M 23,29  L 23,30  L 24,30  L 24,29  Z  " style="fill:rgb(234, 234, 234); fill-opacity:1.000; stroke:none;" />
 <path d="  M 23,56  L 23,57  L 24,57  L 24,56  Z  " style="fill:rgb(234, 234, 234); fill-opacity:1.000; stroke:none;" />
 <path d="  M 23,62  L 24,62  L 24,61  L 23,61  Z  " style="fill:rgb(234, 234, 234); fill-opacity:1.000; stroke:none;" />
 <path d="  M 23,88  L 23,89  L 24,89  L 24,88  Z  " style="fill:rgb(234, 234, 234); fill-opacity:1.000; stroke:none;" />
 <path d="  M 23,94  L 24,94  L 24,93  L 23,93  Z  " style="fill:rgb(234, 234, 234); fill-opacity:1.000; stroke:none;" />
 <path d="  M 25,28  L 24,28  L 24,29  L 25,29  Z  " style="fill:rgb(234, 234, 234); fill-opacity:1.000; stroke:none;" />
 <path d="  M 24,60  L 24,61  L 25,61  L 25,60  Z  " style="fill:rgb(234, 234, 234); fill-opacity:1.000; stroke:none;" />
 <path d="  M 25,87  L 24,87  L 24,88  L 25,88  Z  " style="fill:rgb(234, 234, 234); fill-opacity:1.000; stroke:none;" />
 <path d="  M 25,92  L 24,92  L 24,93  L 25,93  Z  " style="fill:rgb(234, 234, 234); fill-opacity:1.000; stroke:none;" />
 <path d="  M 25,27  L 25,28  L 26,28  L 26,27  Z  " style="fill:rgb(234, 234, 234); fill-opacity:1.000; stroke:none;" />
 <path d="  M 26,60  L 26,59  L 25,59  L 25,60  Z  " style="fill:rgb(234, 234, 234); fill-opacity:1.000; stroke:none;" />
 <path d="  M 26,87  L 26,86  L 25,86  L 25,87  Z  " style="fill:rgb(234, 234, 234); fill-opacity:1.000; stroke:none;" />
 <path d="  M 25,91  L 25,92  L 26,92  L 26,91  Z  " style="fill:rgb(234, 234, 234); fill-opacity:1.000; stroke:none;" />
 <path d="  M 27,27  L 27,26  L 26,26  L 26,27  Z  " style="fill:rgb(234, 234, 234); fill-opacity:1.000; stroke:none;" />
 <path d="  M 27,59  L 27,58  L 26,58  L 26,59  Z  " style="fill:rgb(234, 234, 234); fill-opacity:1.000; stroke:none;" />
 <path d="  M 27,91  L 27,90  L 26,90  L 26,91  Z  " style="fill:rgb(234, 234, 234); fill-opacity:1.000; stroke:none;" />
 <path d="  M 12,32  L 13,32  L 13,31  L 12,31  Z  " style="fill:rgb(130, 130, 130); fill-opacity:1.000; stroke:none;" />
 <path d="  M 13,63  L 12,63  L 12,64  L 13,64  Z  " style="fill:rgb(130, 130, 130); fill-opacity:1.000; stroke:none;" />
 <path d="  M 13,95  L 12,95  L 12,96  L 13,96  Z  " style="fill:rgb(130, 130, 130); fill-opacity:1.000; stroke:none;" />
 <path d="  M 13,30  L 13,31  L 19,31  L 19,30  Z  " style="fill:rgb(130, 130, 130); fill-opacity:1.000; stroke:none;" />
 <path d="  M 13,62  L 13,63  L 19,63  L 19,62  Z  " style="fill:rgb(130, 130, 130); fill-opacity:1.000; stroke:none;" />
 <path d="  M 19,95  L 19,94  L 13,94  L 13,95  Z  " style="fill:rgb(130, 130, 130); fill-opacity:1.000; stroke:none;" />
 <path d="  M 20,32  L 20,31  L 19,31  L 19,32  Z  " style="fill:rgb(130, 130, 130); fill-opacity:1.000; stroke:none;" />
 <path d="  M 20,64  L 20,63  L 19,63  L 19,64  Z  " style="fill:rgb(130, 130, 130); fill-opacity:1.000; stroke:none;" />
 <path d="  M 20,95  L 19,95  L 19,96  L 20,96  Z  " style="fill:rgb(130, 130, 130); fill-opacity:1.000; stroke:none;" />
 <path d="  M 19,32  L 19,31  L 13,31  L 13,32  Z  " style="fill:rgb(114, 114, 114); fill-opacity:1.000; stroke:none;" />
 <path d="  M 19,64  L 19,63  L 13,63  L 13,64  Z  " style="fill:rgb(114, 114, 114); fill-opacity:1.000; stroke:none;" />
 <path d="  M 13,95  L 13,96  L 19,96  L 19,95  Z  " style="fill:rgb(114, 114, 114); fill-opacity:1.000; stroke:none;" />
</svg>
