<?xml version="1.0" encoding="UTF-8" standalone="no"?>
<!DOCTYPE svg PUBLIC "-//W3C//DTD SVG 1.1//EN" 
  "http://www.w3.org/Graphics/SVG/1.1/DTD/svg11.dtd">
<svg width="32" height="32"
	 xmlns="http://www.w3.org/2000/svg" version="1.1">
 <path d="  M 6,26  L 6,27  L 8,27  L 8,29  L 9,29  L 9,27  L 10,27  L 10,25  L 9,25  L 9,26  Z  " style="fill:rgb(40, 98, 64); fill-opacity:1.000; stroke:none;" />
 <path d="  M 7,22  L 7,23  L 8,23  L 8,22  Z  " style="fill:rgb(40, 98, 64); fill-opacity:1.000; stroke:none;" />
 <path d="  M 10,22  L 10,24  L 12,24  L 12,23  L 11,23  L 11,22  L 12,22  L 12,20  L 11,20  L 11,21  L 10,21  L 10,20  L 9,20  L 9,21  L 8,21  L 8,22  Z  " style="fill:rgb(40, 98, 64); fill-opacity:1.000; stroke:none;" />
 <path d="  M 10,18  L 9,18  L 9,19  L 10,19  Z  " style="fill:rgb(40, 98, 64); fill-opacity:1.000; stroke:none;" />
 <path d="  M 10,27  L 10,28  L 11,28  L 11,27  Z  " style="fill:rgb(40, 98, 64); fill-opacity:1.000; stroke:none;" />
 <path d="  M 11,32  L 12,32  L 12,31  L 11,31  Z  " style="fill:rgb(40, 98, 64); fill-opacity:1.000; stroke:none;" />
 <path d="  M 12,18  L 12,19  L 13,19  L 13,18  Z  " style="fill:rgb(40, 98, 64); fill-opacity:1.000; stroke:none;" />
 <path d="  M 12,27  L 13,27  L 13,26  L 12,26  Z  " style="fill:rgb(40, 98, 64); fill-opacity:1.000; stroke:none;" />
 <path d="  M 12,31  L 13,31  L 13,30  L 12,30  Z  " style="fill:rgb(40, 98, 64); fill-opacity:1.000; stroke:none;" />
 <path d="  M 17,20  L 16,20  L 16,19  L 15,19  L 15,20  L 14,20  L 14,19  L 13,19  L 13,21  L 14,21  L 14,22  L 15,22  L 15,21  L 17,21  Z  " style="fill:rgb(40, 98, 64); fill-opacity:1.000; stroke:none;" />
 <path d="  M 15,27  L 13,27  L 13,28  L 15,28  Z  " style="fill:rgb(40, 98, 64); fill-opacity:1.000; stroke:none;" />
 <path d="  M 15,32  L 15,31  L 13,31  L 13,32  Z  " style="fill:rgb(40, 98, 64); fill-opacity:1.000; stroke:none;" />
 <path d="  M 15,18  L 14,18  L 14,19  L 15,19  Z  " style="fill:rgb(40, 98, 64); fill-opacity:1.000; stroke:none;" />
 <path d="  M 15,29  L 14,29  L 14,30  L 15,30  Z  " style="fill:rgb(40, 98, 64); fill-opacity:1.000; stroke:none;" />
 <path d="  M 15,22  L 15,23  L 16,23  L 16,22  Z  " style="fill:rgb(40, 98, 64); fill-opacity:1.000; stroke:none;" />
 <path d="  M 16,27  L 16,26  L 15,26  L 15,27  Z  " style="fill:rgb(40, 98, 64); fill-opacity:1.000; stroke:none;" />
 <path d="  M 16,17  L 17,17  L 17,16  L 16,16  Z  " style="fill:rgb(40, 98, 64); fill-opacity:1.000; stroke:none;" />
 <path d="  M 20,25  L 20,24  L 19,24  L 19,23  L 18,23  L 18,22  L 17,22  L 17,23  L 16,23  L 16,24  L 17,24  L 17,25  L 18,25  L 18,26  L 19,26  L 19,25  Z  " style="fill:rgb(40, 98, 64); fill-opacity:1.000; stroke:none;" />
 <path d="  M 16,27  L 16,28  L 17,28  L 17,27  Z  " style="fill:rgb(40, 98, 64); fill-opacity:1.000; stroke:none;" />
 <path d="  M 21,20  L 22,20  L 22,18  L 19,18  L 19,17  L 17,17  L 17,18  L 18,18  L 18,19  L 19,19  L 19,20  L 20,20  L 20,19  L 21,19  Z  " style="fill:rgb(40, 98, 64); fill-opacity:1.000; stroke:none;" />
 <path d="  M 18,27  L 18,26  L 17,26  L 17,27  Z  " style="fill:rgb(40, 98, 64); fill-opacity:1.000; stroke:none;" />
 <path d="  M 19,30  L 19,29  L 20,29  L 20,28  L 19,28  L 19,27  L 18,27  L 18,29  L 17,29  L 17,30  Z  " style="fill:rgb(40, 98, 64); fill-opacity:1.000; stroke:none;" />
 <path d="  M 19,21  L 19,20  L 18,20  L 18,21  Z  " style="fill:rgb(40, 98, 64); fill-opacity:1.000; stroke:none;" />
 <path d="  M 19,30  L 19,31  L 20,31  L 20,30  Z  " style="fill:rgb(40, 98, 64); fill-opacity:1.000; stroke:none;" />
 <path d="  M 21,20  L 20,20  L 20,21  L 21,21  Z  " style="fill:rgb(40, 98, 64); fill-opacity:1.000; stroke:none;" />
 <path d="  M 20,24  L 22,24  L 22,23  L 20,23  Z  " style="fill:rgb(40, 98, 64); fill-opacity:1.000; stroke:none;" />
 <path d="  M 21,25  L 20,25  L 20,27  L 21,27  Z  " style="fill:rgb(40, 98, 64); fill-opacity:1.000; stroke:none;" />
 <path d="  M 21,32  L 21,31  L 20,31  L 20,32  Z  " style="fill:rgb(40, 98, 64); fill-opacity:1.000; stroke:none;" />
 <path d="  M 22,24  L 22,25  L 23,25  L 23,24  Z  " style="fill:rgb(40, 98, 64); fill-opacity:1.000; stroke:none;" />
 <path d="  M 24,28  L 25,28  L 25,26  L 24,26  L 24,27  L 23,27  L 23,26  L 22,26  L 22,28  L 23,28  L 23,29  L 24,29  Z  " style="fill:rgb(40, 98, 64); fill-opacity:1.000; stroke:none;" />
 <path d="  M 23,30  L 23,29  L 22,29  L 22,30  Z  " style="fill:rgb(40, 98, 64); fill-opacity:1.000; stroke:none;" />
 <path d="  M 24,26  L 24,25  L 23,25  L 23,26  Z  " style="fill:rgb(40, 98, 64); fill-opacity:1.000; stroke:none;" />
 <path d="  M 7,24  L 8,24  L 8,23  L 7,23  Z  " style="fill:rgb(41, 82, 48); fill-opacity:1.000; stroke:none;" />
 <path d="  M 7,28  L 8,28  L 8,27  L 7,27  Z  " style="fill:rgb(41, 82, 48); fill-opacity:1.000; stroke:none;" />
 <path d="  M 9,19  L 8,19  L 8,21  L 9,21  Z  " style="fill:rgb(41, 82, 48); fill-opacity:1.000; stroke:none;" />
 <path d="  M 9,22  L 8,22  L 8,23  L 9,23  Z  " style="fill:rgb(41, 82, 48); fill-opacity:1.000; stroke:none;" />
 <path d="  M 8,26  L 9,26  L 9,25  L 10,25  L 10,24  L 8,24  Z  " style="fill:rgb(41, 82, 48); fill-opacity:1.000; stroke:none;" />
 <path d="  M 8,29  L 8,30  L 10,30  L 10,28  L 9,28  L 9,29  Z  " style="fill:rgb(41, 82, 48); fill-opacity:1.000; stroke:none;" />
 <path d="  M 13,25  L 13,24  L 12,24  L 12,25  L 11,25  L 11,26  L 13,26  L 13,27  L 14,27  L 14,25  Z  " style="fill:rgb(41, 82, 48); fill-opacity:1.000; stroke:none;" />
 <path d="  M 14,18  L 14,17  L 12,17  L 12,18  Z  " style="fill:rgb(41, 82, 48); fill-opacity:1.000; stroke:none;" />
 <path d="  M 13,19  L 12,19  L 12,20  L 13,20  Z  " style="fill:rgb(41, 82, 48); fill-opacity:1.000; stroke:none;" />
 <path d="  M 13,27  L 12,27  L 12,29  L 13,29  Z  " style="fill:rgb(41, 82, 48); fill-opacity:1.000; stroke:none;" />
 <path d="  M 14,23  L 13,23  L 13,24  L 15,24  L 15,25  L 16,25  L 16,23  L 15,23  L 15,22  L 14,22  Z  " style="fill:rgb(41, 82, 48); fill-opacity:1.000; stroke:none;" />
 <path d="  M 17,20  L 17,21  L 16,21  L 16,23  L 17,23  L 17,22  L 18,22  L 18,20  Z  " style="fill:rgb(41, 82, 48); fill-opacity:1.000; stroke:none;" />
 <path d="  M 16,26  L 16,27  L 17,27  L 17,26  Z  " style="fill:rgb(41, 82, 48); fill-opacity:1.000; stroke:none;" />
 <path d="  M 18,27  L 17,27  L 17,28  L 16,28  L 16,30  L 17,30  L 17,29  L 18,29  Z  " style="fill:rgb(41, 82, 48); fill-opacity:1.000; stroke:none;" />
 <path d="  M 18,20  L 19,20  L 19,19  L 18,19  Z  " style="fill:rgb(41, 82, 48); fill-opacity:1.000; stroke:none;" />
 <path d="  M 18,27  L 19,27  L 19,28  L 20,28  L 20,26  L 18,26  Z  " style="fill:rgb(41, 82, 48); fill-opacity:1.000; stroke:none;" />
 <path d="  M 20,29  L 19,29  L 19,30  L 20,30  Z  " style="fill:rgb(41, 82, 48); fill-opacity:1.000; stroke:none;" />
 <path d="  M 20,21  L 20,22  L 23,22  L 23,21  L 22,21  L 22,20  L 21,20  L 21,21  Z  " style="fill:rgb(41, 82, 48); fill-opacity:1.000; stroke:none;" />
 <path d="  M 21,29  L 21,28  L 20,28  L 20,29  Z  " style="fill:rgb(41, 82, 48); fill-opacity:1.000; stroke:none;" />
 <path d="  M 9,19  L 9,20  L 10,20  L 10,19  Z  " style="fill:rgb(72, 127, 79); fill-opacity:1.000; stroke:none;" />
 <path d="  M 11,20  L 10,20  L 10,21  L 11,21  Z  " style="fill:rgb(72, 127, 79); fill-opacity:1.000; stroke:none;" />
 <path d="  M 10,24  L 10,26  L 11,26  L 11,25  L 12,25  L 12,24  Z  " style="fill:rgb(72, 127, 79); fill-opacity:1.000; stroke:none;" />
 <path d="  M 12,26  L 11,26  L 11,27  L 12,27  Z  " style="fill:rgb(72, 127, 79); fill-opacity:1.000; stroke:none;" />
 <path d="  M 12,22  L 14,22  L 14,21  L 13,21  L 13,20  L 12,20  Z  " style="fill:rgb(72, 127, 79); fill-opacity:1.000; stroke:none;" />
 <path d="  M 13,28  L 13,29  L 12,29  L 12,30  L 13,30  L 13,31  L 14,31  L 14,29  L 15,29  L 15,30  L 16,30  L 16,27  L 15,27  L 15,28  Z  " style="fill:rgb(72, 127, 79); fill-opacity:1.000; stroke:none;" />
 <path d="  M 14,18  L 13,18  L 13,19  L 14,19  Z  " style="fill:rgb(72, 127, 79); fill-opacity:1.000; stroke:none;" />
 <path d="  M 15,26  L 14,26  L 14,27  L 15,27  Z  " style="fill:rgb(72, 127, 79); fill-opacity:1.000; stroke:none;" />
 <path d="  M 16,22  L 16,21  L 15,21  L 15,22  Z  " style="fill:rgb(72, 127, 79); fill-opacity:1.000; stroke:none;" />
 <path d="  M 16,26  L 18,26  L 18,25  L 17,25  L 17,24  L 16,24  Z  " style="fill:rgb(72, 127, 79); fill-opacity:1.000; stroke:none;" />
 <path d="  M 19,25  L 19,26  L 20,26  L 20,25  Z  " style="fill:rgb(72, 127, 79); fill-opacity:1.000; stroke:none;" />
 <path d="  M 20,24  L 20,25  L 21,25  L 21,26  L 23,26  L 23,25  L 22,25  L 22,24  Z  " style="fill:rgb(72, 127, 79); fill-opacity:1.000; stroke:none;" />
 <path d="  M 23,25  L 24,25  L 24,23  L 23,23  L 23,22  L 21,22  L 21,23  L 22,23  L 22,24  L 23,24  Z  " style="fill:rgb(72, 127, 79); fill-opacity:1.000; stroke:none;" />
 <path d="  M 23,26  L 23,27  L 24,27  L 24,26  Z  " style="fill:rgb(72, 127, 79); fill-opacity:1.000; stroke:none;" />
 <path d="  M 10,27  L 9,27  L 9,28  L 10,28  Z  " style="fill:rgb(29, 56, 34); fill-opacity:1.000; stroke:none;" />
 <path d="  M 11,26  L 10,26  L 10,27  L 11,27  Z  " style="fill:rgb(29, 56, 34); fill-opacity:1.000; stroke:none;" />
 <path d="  M 10,31  L 12,31  L 12,30  L 10,30  Z  " style="fill:rgb(29, 56, 34); fill-opacity:1.000; stroke:none;" />
 <path d="  M 13,24  L 13,23  L 14,23  L 14,22  L 11,22  L 11,23  L 12,23  L 12,24  Z  " style="fill:rgb(29, 56, 34); fill-opacity:1.000; stroke:none;" />
 <path d="  M 11,29  L 12,29  L 12,27  L 11,27  Z  " style="fill:rgb(29, 56, 34); fill-opacity:1.000; stroke:none;" />
 <path d="  M 12,32  L 13,32  L 13,31  L 12,31  Z  " style="fill:rgb(29, 56, 34); fill-opacity:1.000; stroke:none;" />
 <path d="  M 15,24  L 13,24  L 13,25  L 14,25  L 14,26  L 16,26  L 16,25  L 15,25  Z  " style="fill:rgb(29, 56, 34); fill-opacity:1.000; stroke:none;" />
 <path d="  M 15,19  L 14,19  L 14,20  L 15,20  Z  " style="fill:rgb(29, 56, 34); fill-opacity:1.000; stroke:none;" />
 <path d="  M 14,30  L 14,31  L 15,31  L 15,32  L 16,32  L 16,30  Z  " style="fill:rgb(29, 56, 34); fill-opacity:1.000; stroke:none;" />
 <path d="  M 17,19  L 17,17  L 16,17  L 16,18  L 15,18  L 15,19  Z  " style="fill:rgb(29, 56, 34); fill-opacity:1.000; stroke:none;" />
 <path d="  M 18,17  L 18,16  L 17,16  L 17,17  Z  " style="fill:rgb(29, 56, 34); fill-opacity:1.000; stroke:none;" />
 <path d="  M 17,30  L 17,31  L 18,31  L 18,32  L 20,32  L 20,31  L 19,31  L 19,30  Z  " style="fill:rgb(29, 56, 34); fill-opacity:1.000; stroke:none;" />
 <path d="  M 18,21  L 18,22  L 20,22  L 20,20  L 19,20  L 19,21  Z  " style="fill:rgb(29, 56, 34); fill-opacity:1.000; stroke:none;" />
 <path d="  M 20,17  L 19,17  L 19,18  L 20,18  Z  " style="fill:rgb(29, 56, 34); fill-opacity:1.000; stroke:none;" />
 <path d="  M 21,20  L 21,19  L 20,19  L 20,20  Z  " style="fill:rgb(29, 56, 34); fill-opacity:1.000; stroke:none;" />
 <path d="  M 21,22  L 20,22  L 20,23  L 21,23  Z  " style="fill:rgb(29, 56, 34); fill-opacity:1.000; stroke:none;" />
 <path d="  M 21,26  L 21,27  L 20,27  L 20,28  L 22,28  L 22,26  Z  " style="fill:rgb(29, 56, 34); fill-opacity:1.000; stroke:none;" />
 <path d="  M 22,31  L 22,30  L 20,30  L 20,31  Z  " style="fill:rgb(29, 56, 34); fill-opacity:1.000; stroke:none;" />
 <path d="  M 23,18  L 22,18  L 22,20  L 23,20  Z  " style="fill:rgb(29, 56, 34); fill-opacity:1.000; stroke:none;" />
 <path d="  M 23,29  L 23,28  L 22,28  L 22,29  Z  " style="fill:rgb(29, 56, 34); fill-opacity:1.000; stroke:none;" />
 <path d="  M 25,22  L 23,22  L 23,23  L 24,23  L 24,24  L 25,24  Z  " style="fill:rgb(29, 56, 34); fill-opacity:1.000; stroke:none;" />
</svg>
