<?xml version="1.0" encoding="UTF-8" standalone="no"?>
<!DOCTYPE svg PUBLIC "-//W3C//DTD SVG 1.1//EN" 
  "http://www.w3.org/Graphics/SVG/1.1/DTD/svg11.dtd">
<svg width="32" height="32"
	 xmlns="http://www.w3.org/2000/svg" version="1.1">
 <path d="  M 1,26  L 1,27  L 2,27  L 2,26  Z  " style="fill:rgb(49, 79, 221); fill-opacity:1.000; stroke:none;" />
 <path d="  M 3,27  L 4,27  L 4,26  L 3,26  Z  " style="fill:rgb(49, 79, 221); fill-opacity:1.000; stroke:none;" />
 <path d="  M 4,29  L 3,29  L 3,31  L 4,31  Z  " style="fill:rgb(49, 79, 221); fill-opacity:1.000; stroke:none;" />
 <path d="  M 6,26  L 6,25  L 4,25  L 4,26  Z  " style="fill:rgb(49, 79, 221); fill-opacity:1.000; stroke:none;" />
 <path d="  M 4,28  L 4,29  L 5,29  L 5,28  Z  " style="fill:rgb(49, 79, 221); fill-opacity:1.000; stroke:none;" />
 <path d="  M 5,23  L 6,23  L 6,22  L 5,22  Z  " style="fill:rgb(49, 79, 221); fill-opacity:1.000; stroke:none;" />
 <path d="  M 5,28  L 6,28  L 6,27  L 5,27  Z  " style="fill:rgb(49, 79, 221); fill-opacity:1.000; stroke:none;" />
 <path d="  M 8,25  L 8,24  L 6,24  L 6,25  Z  " style="fill:rgb(49, 79, 221); fill-opacity:1.000; stroke:none;" />
 <path d="  M 8,26  L 6,26  L 6,27  L 8,27  Z  " style="fill:rgb(49, 79, 221); fill-opacity:1.000; stroke:none;" />
 <path d="  M 8,28  L 8,29  L 7,29  L 7,30  L 6,30  L 6,31  L 8,31  L 8,30  L 9,30  L 9,31  L 11,31  L 11,30  L 10,30  L 10,29  L 9,29  L 9,28  Z  " style="fill:rgb(49, 79, 221); fill-opacity:1.000; stroke:none;" />
 <path d="  M 9,22  L 8,22  L 8,23  L 9,23  Z  " style="fill:rgb(49, 79, 221); fill-opacity:1.000; stroke:none;" />
 <path d="  M 10,23  L 9,23  L 9,24  L 10,24  Z  " style="fill:rgb(49, 79, 221); fill-opacity:1.000; stroke:none;" />
 <path d="  M 10,26  L 10,25  L 9,25  L 9,26  Z  " style="fill:rgb(49, 79, 221); fill-opacity:1.000; stroke:none;" />
 <path d="  M 10,27  L 9,27  L 9,28  L 10,28  Z  " style="fill:rgb(49, 79, 221); fill-opacity:1.000; stroke:none;" />
 <path d="  M 10,24  L 10,25  L 12,25  L 12,24  Z  " style="fill:rgb(49, 79, 221); fill-opacity:1.000; stroke:none;" />
 <path d="  M 14,28  L 13,28  L 13,29  L 11,29  L 11,30  L 14,30  Z  " style="fill:rgb(49, 79, 221); fill-opacity:1.000; stroke:none;" />
 <path d="  M 12,21  L 13,21  L 13,20  L 12,20  Z  " style="fill:rgb(49, 79, 221); fill-opacity:1.000; stroke:none;" />
 <path d="  M 14,23  L 13,23  L 13,26  L 12,26  L 12,27  L 14,27  L 14,26  L 15,26  L 15,25  L 14,25  Z  " style="fill:rgb(49, 79, 221); fill-opacity:1.000; stroke:none;" />
 <path d="  M 15,21  L 13,21  L 13,22  L 14,22  L 14,23  L 15,23  Z  " style="fill:rgb(49, 79, 221); fill-opacity:1.000; stroke:none;" />
 <path d="  M 15,18  L 14,18  L 14,19  L 15,19  Z  " style="fill:rgb(49, 79, 221); fill-opacity:1.000; stroke:none;" />
 <path d="  M 16,17  L 15,17  L 15,18  L 16,18  Z  " style="fill:rgb(49, 79, 221); fill-opacity:1.000; stroke:none;" />
 <path d="  M 15,19  L 15,20  L 16,20  L 16,19  Z  " style="fill:rgb(49, 79, 221); fill-opacity:1.000; stroke:none;" />
 <path d="  M 16,25  L 16,24  L 15,24  L 15,25  Z  " style="fill:rgb(49, 79, 221); fill-opacity:1.000; stroke:none;" />
 <path d="  M 17,27  L 17,25  L 16,25  L 16,27  L 15,27  L 15,28  L 16,28  L 16,29  L 15,29  L 15,30  L 16,30  L 16,31  L 17,31  L 17,28  L 18,28  L 18,27  Z  " style="fill:rgb(49, 79, 221); fill-opacity:1.000; stroke:none;" />
 <path d="  M 17,15  L 16,15  L 16,16  L 17,16  Z  " style="fill:rgb(49, 79, 221); fill-opacity:1.000; stroke:none;" />
 <path d="  M 17,19  L 17,18  L 16,18  L 16,19  Z  " style="fill:rgb(49, 79, 221); fill-opacity:1.000; stroke:none;" />
 <path d="  M 17,21  L 18,21  L 18,19  L 17,19  Z  " style="fill:rgb(49, 79, 221); fill-opacity:1.000; stroke:none;" />
 <path d="  M 17,23  L 17,24  L 18,24  L 18,23  Z  " style="fill:rgb(49, 79, 221); fill-opacity:1.000; stroke:none;" />
 <path d="  M 18,17  L 18,18  L 19,18  L 19,17  Z  " style="fill:rgb(49, 79, 221); fill-opacity:1.000; stroke:none;" />
 <path d="  M 18,27  L 19,27  L 19,26  L 20,26  L 20,25  L 19,25  L 19,24  L 18,24  Z  " style="fill:rgb(49, 79, 221); fill-opacity:1.000; stroke:none;" />
 <path d="  M 19,29  L 19,28  L 18,28  L 18,29  Z  " style="fill:rgb(49, 79, 221); fill-opacity:1.000; stroke:none;" />
 <path d="  M 19,20  L 20,20  L 20,18  L 19,18  Z  " style="fill:rgb(49, 79, 221); fill-opacity:1.000; stroke:none;" />
 <path d="  M 19,24  L 20,24  L 20,23  L 19,23  Z  " style="fill:rgb(49, 79, 221); fill-opacity:1.000; stroke:none;" />
 <path d="  M 19,28  L 20,28  L 20,27  L 19,27  Z  " style="fill:rgb(49, 79, 221); fill-opacity:1.000; stroke:none;" />
 <path d="  M 19,32  L 20,32  L 20,31  L 22,31  L 22,29  L 21,29  L 21,30  L 20,30  L 20,29  L 19,29  Z  " style="fill:rgb(49, 79, 221); fill-opacity:1.000; stroke:none;" />
 <path d="  M 21,20  L 21,21  L 22,21  L 22,20  Z  " style="fill:rgb(49, 79, 221); fill-opacity:1.000; stroke:none;" />
 <path d="  M 21,24  L 21,25  L 23,25  L 23,24  Z  " style="fill:rgb(49, 79, 221); fill-opacity:1.000; stroke:none;" />
 <path d="  M 22,26  L 21,26  L 21,28  L 22,28  Z  " style="fill:rgb(49, 79, 221); fill-opacity:1.000; stroke:none;" />
 <path d="  M 25,22  L 24,22  L 24,21  L 23,21  L 23,22  L 22,22  L 22,23  L 24,23  L 24,24  L 25,24  Z  " style="fill:rgb(49, 79, 221); fill-opacity:1.000; stroke:none;" />
 <path d="  M 23,29  L 23,28  L 22,28  L 22,29  Z  " style="fill:rgb(49, 79, 221); fill-opacity:1.000; stroke:none;" />
 <path d="  M 23,25  L 23,27  L 24,27  L 24,26  L 25,26  L 25,25  Z  " style="fill:rgb(49, 79, 221); fill-opacity:1.000; stroke:none;" />
 <path d="  M 23,31  L 24,31  L 24,30  L 23,30  Z  " style="fill:rgb(49, 79, 221); fill-opacity:1.000; stroke:none;" />
 <path d="  M 25,20  L 25,19  L 24,19  L 24,20  Z  " style="fill:rgb(49, 79, 221); fill-opacity:1.000; stroke:none;" />
 <path d="  M 24,30  L 25,30  L 25,29  L 24,29  Z  " style="fill:rgb(49, 79, 221); fill-opacity:1.000; stroke:none;" />
 <path d="  M 25,22  L 26,22  L 26,21  L 25,21  Z  " style="fill:rgb(49, 79, 221); fill-opacity:1.000; stroke:none;" />
 <path d="  M 26,27  L 26,26  L 25,26  L 25,27  Z  " style="fill:rgb(49, 79, 221); fill-opacity:1.000; stroke:none;" />
 <path d="  M 26,24  L 27,24  L 27,23  L 26,23  Z  " style="fill:rgb(49, 79, 221); fill-opacity:1.000; stroke:none;" />
 <path d="  M 26,25  L 26,26  L 28,26  L 28,25  Z  " style="fill:rgb(49, 79, 221); fill-opacity:1.000; stroke:none;" />
 <path d="  M 26,31  L 27,31  L 27,30  L 26,30  Z  " style="fill:rgb(49, 79, 221); fill-opacity:1.000; stroke:none;" />
 <path d="  M 28,22  L 27,22  L 27,23  L 28,23  Z  " style="fill:rgb(49, 79, 221); fill-opacity:1.000; stroke:none;" />
 <path d="  M 27,30  L 28,30  L 28,28  L 27,28  Z  " style="fill:rgb(49, 79, 221); fill-opacity:1.000; stroke:none;" />
 <path d="  M 28,24  L 28,25  L 29,25  L 29,24  Z  " style="fill:rgb(49, 79, 221); fill-opacity:1.000; stroke:none;" />
 <path d="  M 28,27  L 28,28  L 31,28  L 31,27  Z  " style="fill:rgb(49, 79, 221); fill-opacity:1.000; stroke:none;" />
 <path d="  M 29,31  L 29,30  L 28,30  L 28,31  Z  " style="fill:rgb(49, 79, 221); fill-opacity:1.000; stroke:none;" />
 <path d="  M 29,23  L 29,24  L 30,24  L 30,23  Z  " style="fill:rgb(49, 79, 221); fill-opacity:1.000; stroke:none;" />
 <path d="  M 30,32  L 30,31  L 29,31  L 29,32  Z  " style="fill:rgb(49, 79, 221); fill-opacity:1.000; stroke:none;" />
 <path d="  M 1,28  L 2,28  L 2,27  L 1,27  Z  " style="fill:rgb(64, 92, 226); fill-opacity:1.000; stroke:none;" />
 <path d="  M 3,25  L 2,25  L 2,26  L 3,26  Z  " style="fill:rgb(64, 92, 226); fill-opacity:1.000; stroke:none;" />
 <path d="  M 5,28  L 5,27  L 4,27  L 4,28  Z  " style="fill:rgb(64, 92, 226); fill-opacity:1.000; stroke:none;" />
 <path d="  M 5,29  L 4,29  L 4,31  L 5,31  Z  " style="fill:rgb(64, 92, 226); fill-opacity:1.000; stroke:none;" />
 <path d="  M 5,23  L 5,25  L 6,25  L 6,24  L 7,24  L 7,23  Z  " style="fill:rgb(64, 92, 226); fill-opacity:1.000; stroke:none;" />
 <path d="  M 6,27  L 6,26  L 5,26  L 5,27  Z  " style="fill:rgb(64, 92, 226); fill-opacity:1.000; stroke:none;" />
 <path d="  M 6,29  L 6,28  L 5,28  L 5,29  Z  " style="fill:rgb(64, 92, 226); fill-opacity:1.000; stroke:none;" />
 <path d="  M 7,26  L 7,25  L 6,25  L 6,26  Z  " style="fill:rgb(64, 92, 226); fill-opacity:1.000; stroke:none;" />
 <path d="  M 8,27  L 6,27  L 6,28  L 8,28  Z  " style="fill:rgb(64, 92, 226); fill-opacity:1.000; stroke:none;" />
 <path d="  M 9,19  L 8,19  L 8,21  L 9,21  Z  " style="fill:rgb(64, 92, 226); fill-opacity:1.000; stroke:none;" />
 <path d="  M 10,25  L 10,24  L 9,24  L 9,25  Z  " style="fill:rgb(64, 92, 226); fill-opacity:1.000; stroke:none;" />
 <path d="  M 11,20  L 10,20  L 10,21  L 11,21  Z  " style="fill:rgb(64, 92, 226); fill-opacity:1.000; stroke:none;" />
 <path d="  M 10,22  L 10,23  L 12,23  L 12,22  Z  " style="fill:rgb(64, 92, 226); fill-opacity:1.000; stroke:none;" />
 <path d="  M 12,29  L 12,28  L 11,28  L 11,29  Z  " style="fill:rgb(64, 92, 226); fill-opacity:1.000; stroke:none;" />
 <path d="  M 13,21  L 12,21  L 12,22  L 13,22  Z  " style="fill:rgb(64, 92, 226); fill-opacity:1.000; stroke:none;" />
 <path d="  M 13,23  L 12,23  L 12,26  L 13,26  Z  " style="fill:rgb(64, 92, 226); fill-opacity:1.000; stroke:none;" />
 <path d="  M 12,31  L 13,31  L 13,30  L 12,30  Z  " style="fill:rgb(64, 92, 226); fill-opacity:1.000; stroke:none;" />
 <path d="  M 13,19  L 13,20  L 14,20  L 14,19  Z  " style="fill:rgb(64, 92, 226); fill-opacity:1.000; stroke:none;" />
 <path d="  M 13,22  L 13,23  L 14,23  L 14,22  Z  " style="fill:rgb(64, 92, 226); fill-opacity:1.000; stroke:none;" />
 <path d="  M 13,27  L 13,28  L 14,28  L 14,27  Z  " style="fill:rgb(64, 92, 226); fill-opacity:1.000; stroke:none;" />
 <path d="  M 15,20  L 14,20  L 14,21  L 15,21  Z  " style="fill:rgb(64, 92, 226); fill-opacity:1.000; stroke:none;" />
 <path d="  M 14,24  L 15,24  L 15,23  L 14,23  Z  " style="fill:rgb(64, 92, 226); fill-opacity:1.000; stroke:none;" />
 <path d="  M 15,26  L 14,26  L 14,27  L 15,27  Z  " style="fill:rgb(64, 92, 226); fill-opacity:1.000; stroke:none;" />
 <path d="  M 16,19  L 16,21  L 17,21  L 17,19  Z  " style="fill:rgb(64, 92, 226); fill-opacity:1.000; stroke:none;" />
 <path d="  M 18,19  L 18,18  L 17,18  L 17,19  Z  " style="fill:rgb(64, 92, 226); fill-opacity:1.000; stroke:none;" />
 <path d="  M 17,27  L 18,27  L 18,25  L 17,25  Z  " style="fill:rgb(64, 92, 226); fill-opacity:1.000; stroke:none;" />
 <path d="  M 17,30  L 18,30  L 18,28  L 17,28  Z  " style="fill:rgb(64, 92, 226); fill-opacity:1.000; stroke:none;" />
 <path d="  M 19,28  L 19,27  L 18,27  L 18,28  Z  " style="fill:rgb(64, 92, 226); fill-opacity:1.000; stroke:none;" />
 <path d="  M 19,32  L 19,31  L 18,31  L 18,32  Z  " style="fill:rgb(64, 92, 226); fill-opacity:1.000; stroke:none;" />
 <path d="  M 19,21  L 19,22  L 20,22  L 20,21  Z  " style="fill:rgb(64, 92, 226); fill-opacity:1.000; stroke:none;" />
 <path d="  M 21,22  L 20,22  L 20,23  L 21,23  Z  " style="fill:rgb(64, 92, 226); fill-opacity:1.000; stroke:none;" />
 <path d="  M 21,25  L 20,25  L 20,26  L 21,26  Z  " style="fill:rgb(64, 92, 226); fill-opacity:1.000; stroke:none;" />
 <path d="  M 21,28  L 21,29  L 22,29  L 22,28  Z  " style="fill:rgb(64, 92, 226); fill-opacity:1.000; stroke:none;" />
 <path d="  M 22,25  L 22,27  L 23,27  L 23,25  Z  " style="fill:rgb(64, 92, 226); fill-opacity:1.000; stroke:none;" />
 <path d="  M 23,23  L 23,24  L 24,24  L 24,23  Z  " style="fill:rgb(64, 92, 226); fill-opacity:1.000; stroke:none;" />
 <path d="  M 24,22  L 25,22  L 25,20  L 24,20  Z  " style="fill:rgb(64, 92, 226); fill-opacity:1.000; stroke:none;" />
 <path d="  M 26,20  L 26,19  L 25,19  L 25,20  Z  " style="fill:rgb(64, 92, 226); fill-opacity:1.000; stroke:none;" />
 <path d="  M 26,29  L 25,29  L 25,30  L 26,30  Z  " style="fill:rgb(64, 92, 226); fill-opacity:1.000; stroke:none;" />
 <path d="  M 28,25  L 28,24  L 27,24  L 27,25  Z  " style="fill:rgb(64, 92, 226); fill-opacity:1.000; stroke:none;" />
 <path d="  M 29,26  L 29,25  L 28,25  L 28,26  Z  " style="fill:rgb(64, 92, 226); fill-opacity:1.000; stroke:none;" />
 <path d="  M 28,28  L 28,29  L 29,29  L 29,28  Z  " style="fill:rgb(64, 92, 226); fill-opacity:1.000; stroke:none;" />
 <path d="  M 30,26  L 29,26  L 29,27  L 30,27  Z  " style="fill:rgb(64, 92, 226); fill-opacity:1.000; stroke:none;" />
 <path d="  M 29,31  L 30,31  L 30,29  L 29,29  Z  " style="fill:rgb(64, 92, 226); fill-opacity:1.000; stroke:none;" />
 <path d="  M 1,28  L 1,29  L 2,29  L 2,28  Z  " style="fill:rgb(33, 67, 164); fill-opacity:1.000; stroke:none;" />
 <path d="  M 3,31  L 3,29  L 2,29  L 2,31  Z  " style="fill:rgb(33, 67, 164); fill-opacity:1.000; stroke:none;" />
 <path d="  M 3,29  L 4,29  L 4,28  L 3,28  Z  " style="fill:rgb(33, 67, 164); fill-opacity:1.000; stroke:none;" />
 <path d="  M 3,32  L 4,32  L 4,31  L 3,31  Z  " style="fill:rgb(33, 67, 164); fill-opacity:1.000; stroke:none;" />
 <path d="  M 6,31  L 5,31  L 5,32  L 6,32  Z  " style="fill:rgb(33, 67, 164); fill-opacity:1.000; stroke:none;" />
 <path d="  M 10,21  L 10,20  L 9,20  L 9,21  Z  " style="fill:rgb(33, 67, 164); fill-opacity:1.000; stroke:none;" />
 <path d="  M 9,27  L 10,27  L 10,26  L 9,26  Z  " style="fill:rgb(33, 67, 164); fill-opacity:1.000; stroke:none;" />
 <path d="  M 11,20  L 11,19  L 10,19  L 10,20  Z  " style="fill:rgb(33, 67, 164); fill-opacity:1.000; stroke:none;" />
 <path d="  M 11,25  L 10,25  L 10,26  L 11,26  Z  " style="fill:rgb(33, 67, 164); fill-opacity:1.000; stroke:none;" />
 <path d="  M 11,29  L 11,28  L 10,28  L 10,29  Z  " style="fill:rgb(33, 67, 164); fill-opacity:1.000; stroke:none;" />
 <path d="  M 12,26  L 11,26  L 11,27  L 12,27  Z  " style="fill:rgb(33, 67, 164); fill-opacity:1.000; stroke:none;" />
 <path d="  M 13,19  L 12,19  L 12,20  L 13,20  Z  " style="fill:rgb(33, 67, 164); fill-opacity:1.000; stroke:none;" />
 <path d="  M 13,27  L 12,27  L 12,29  L 13,29  Z  " style="fill:rgb(33, 67, 164); fill-opacity:1.000; stroke:none;" />
 <path d="  M 13,17  L 13,18  L 14,18  L 14,17  Z  " style="fill:rgb(33, 67, 164); fill-opacity:1.000; stroke:none;" />
 <path d="  M 19,29  L 18,29  L 18,30  L 17,30  L 17,31  L 19,31  Z  " style="fill:rgb(33, 67, 164); fill-opacity:1.000; stroke:none;" />
 <path d="  M 19,16  L 18,16  L 18,17  L 19,17  Z  " style="fill:rgb(33, 67, 164); fill-opacity:1.000; stroke:none;" />
 <path d="  M 19,29  L 20,29  L 20,28  L 19,28  Z  " style="fill:rgb(33, 67, 164); fill-opacity:1.000; stroke:none;" />
 <path d="  M 21,19  L 21,18  L 20,18  L 20,19  Z  " style="fill:rgb(33, 67, 164); fill-opacity:1.000; stroke:none;" />
 <path d="  M 26,28  L 26,27  L 25,27  L 25,26  L 24,26  L 24,27  L 22,27  L 22,28  Z  " style="fill:rgb(33, 67, 164); fill-opacity:1.000; stroke:none;" />
 <path d="  M 24,19  L 24,18  L 23,18  L 23,19  Z  " style="fill:rgb(33, 67, 164); fill-opacity:1.000; stroke:none;" />
 <path d="  M 26,26  L 26,27  L 27,27  L 27,28  L 28,28  L 28,27  L 29,27  L 29,26  Z  " style="fill:rgb(33, 67, 164); fill-opacity:1.000; stroke:none;" />
 <path d="  M 27,28  L 26,28  L 26,30  L 27,30  Z  " style="fill:rgb(33, 67, 164); fill-opacity:1.000; stroke:none;" />
 <path d="  M 27,31  L 28,31  L 28,30  L 27,30  Z  " style="fill:rgb(33, 67, 164); fill-opacity:1.000; stroke:none;" />
 <path d="  M 28,21  L 28,22  L 29,22  L 29,21  Z  " style="fill:rgb(33, 67, 164); fill-opacity:1.000; stroke:none;" />
 <path d="  M 28,31  L 28,32  L 29,32  L 29,31  Z  " style="fill:rgb(33, 67, 164); fill-opacity:1.000; stroke:none;" />
 <path d="  M 29,25  L 29,26  L 30,26  L 30,25  Z  " style="fill:rgb(33, 67, 164); fill-opacity:1.000; stroke:none;" />
 <path d="  M 3,25  L 3,24  L 2,24  L 2,25  Z  " style="fill:rgb(63, 108, 229); fill-opacity:1.000; stroke:none;" />
 <path d="  M 4,22  L 4,23  L 5,23  L 5,22  Z  " style="fill:rgb(63, 108, 229); fill-opacity:1.000; stroke:none;" />
 <path d="  M 6,22  L 6,21  L 5,21  L 5,22  Z  " style="fill:rgb(63, 108, 229); fill-opacity:1.000; stroke:none;" />
 <path d="  M 6,30  L 7,30  L 7,29  L 6,29  Z  " style="fill:rgb(63, 108, 229); fill-opacity:1.000; stroke:none;" />
 <path d="  M 8,22  L 8,21  L 7,21  L 7,22  Z  " style="fill:rgb(63, 108, 229); fill-opacity:1.000; stroke:none;" />
 <path d="  M 8,28  L 9,28  L 9,23  L 8,23  L 8,25  L 7,25  L 7,26  L 8,26  Z  " style="fill:rgb(63, 108, 229); fill-opacity:1.000; stroke:none;" />
 <path d="  M 7,28  L 7,29  L 8,29  L 8,28  Z  " style="fill:rgb(63, 108, 229); fill-opacity:1.000; stroke:none;" />
 <path d="  M 9,23  L 10,23  L 10,21  L 9,21  Z  " style="fill:rgb(63, 108, 229); fill-opacity:1.000; stroke:none;" />
 <path d="  M 9,29  L 10,29  L 10,28  L 9,28  Z  " style="fill:rgb(63, 108, 229); fill-opacity:1.000; stroke:none;" />
 <path d="  M 11,29  L 10,29  L 10,30  L 11,30  Z  " style="fill:rgb(63, 108, 229); fill-opacity:1.000; stroke:none;" />
 <path d="  M 11,24  L 12,24  L 12,23  L 11,23  Z  " style="fill:rgb(63, 108, 229); fill-opacity:1.000; stroke:none;" />
 <path d="  M 13,32  L 13,31  L 12,31  L 12,30  L 11,30  L 11,32  Z  " style="fill:rgb(63, 108, 229); fill-opacity:1.000; stroke:none;" />
 <path d="  M 14,31  L 14,30  L 13,30  L 13,31  Z  " style="fill:rgb(63, 108, 229); fill-opacity:1.000; stroke:none;" />
 <path d="  M 15,19  L 14,19  L 14,20  L 15,20  Z  " style="fill:rgb(63, 108, 229); fill-opacity:1.000; stroke:none;" />
 <path d="  M 15,29  L 16,29  L 16,28  L 15,28  L 15,27  L 14,27  L 14,30  L 15,30  Z  " style="fill:rgb(63, 108, 229); fill-opacity:1.000; stroke:none;" />
 <path d="  M 18,17  L 17,17  L 17,16  L 15,16  L 15,17  L 16,17  L 16,18  L 18,18  Z  " style="fill:rgb(63, 108, 229); fill-opacity:1.000; stroke:none;" />
 <path d="  M 15,20  L 15,23  L 17,23  L 17,22  L 16,22  L 16,20  Z  " style="fill:rgb(63, 108, 229); fill-opacity:1.000; stroke:none;" />
 <path d="  M 15,25  L 15,27  L 16,27  L 16,25  Z  " style="fill:rgb(63, 108, 229); fill-opacity:1.000; stroke:none;" />
 <path d="  M 16,31  L 16,30  L 15,30  L 15,31  Z  " style="fill:rgb(63, 108, 229); fill-opacity:1.000; stroke:none;" />
 <path d="  M 16,25  L 17,25  L 17,24  L 16,24  Z  " style="fill:rgb(63, 108, 229); fill-opacity:1.000; stroke:none;" />
 <path d="  M 17,22  L 18,22  L 18,21  L 17,21  Z  " style="fill:rgb(63, 108, 229); fill-opacity:1.000; stroke:none;" />
 <path d="  M 18,32  L 18,31  L 17,31  L 17,32  Z  " style="fill:rgb(63, 108, 229); fill-opacity:1.000; stroke:none;" />
 <path d="  M 19,21  L 19,18  L 18,18  L 18,21  Z  " style="fill:rgb(63, 108, 229); fill-opacity:1.000; stroke:none;" />
 <path d="  M 20,22  L 19,22  L 19,23  L 20,23  Z  " style="fill:rgb(63, 108, 229); fill-opacity:1.000; stroke:none;" />
 <path d="  M 22,23  L 22,22  L 21,22  L 21,23  L 20,23  L 20,24  L 19,24  L 19,25  L 21,25  L 21,24  L 23,24  L 23,23  Z  " style="fill:rgb(63, 108, 229); fill-opacity:1.000; stroke:none;" />
 <path d="  M 21,26  L 19,26  L 19,27  L 20,27  L 20,30  L 21,30  Z  " style="fill:rgb(63, 108, 229); fill-opacity:1.000; stroke:none;" />
 <path d="  M 22,26  L 22,25  L 21,25  L 21,26  Z  " style="fill:rgb(63, 108, 229); fill-opacity:1.000; stroke:none;" />
 <path d="  M 23,22  L 23,21  L 22,21  L 22,22  Z  " style="fill:rgb(63, 108, 229); fill-opacity:1.000; stroke:none;" />
 <path d="  M 23,19  L 23,21  L 24,21  L 24,19  Z  " style="fill:rgb(63, 108, 229); fill-opacity:1.000; stroke:none;" />
 <path d="  M 23,29  L 23,30  L 24,30  L 24,29  Z  " style="fill:rgb(63, 108, 229); fill-opacity:1.000; stroke:none;" />
 <path d="  M 25,28  L 24,28  L 24,29  L 25,29  Z  " style="fill:rgb(63, 108, 229); fill-opacity:1.000; stroke:none;" />
 <path d="  M 24,30  L 24,31  L 26,31  L 26,30  Z  " style="fill:rgb(63, 108, 229); fill-opacity:1.000; stroke:none;" />
 <path d="  M 26,22  L 25,22  L 25,23  L 26,23  Z  " style="fill:rgb(63, 108, 229); fill-opacity:1.000; stroke:none;" />
 <path d="  M 25,24  L 25,26  L 26,26  L 26,25  L 27,25  L 27,24  Z  " style="fill:rgb(63, 108, 229); fill-opacity:1.000; stroke:none;" />
 <path d="  M 26,31  L 26,32  L 28,32  L 28,31  Z  " style="fill:rgb(63, 108, 229); fill-opacity:1.000; stroke:none;" />
 <path d="  M 27,22  L 28,22  L 28,21  L 27,21  Z  " style="fill:rgb(63, 108, 229); fill-opacity:1.000; stroke:none;" />
 <path d="  M 27,24  L 28,24  L 28,23  L 27,23  Z  " style="fill:rgb(63, 108, 229); fill-opacity:1.000; stroke:none;" />
 <path d="  M 30,31  L 30,32  L 31,32  L 31,31  Z  " style="fill:rgb(63, 108, 229); fill-opacity:1.000; stroke:none;" />
 <path d="  M 2,29  L 3,29  L 3,28  L 4,28  L 4,27  L 2,27  Z  " style="fill:rgb(60, 133, 229); fill-opacity:1.000; stroke:none;" />
 <path d="  M 4,25  L 3,25  L 3,26  L 4,26  Z  " style="fill:rgb(60, 133, 229); fill-opacity:1.000; stroke:none;" />
 <path d="  M 5,25  L 5,23  L 4,23  L 4,25  Z  " style="fill:rgb(60, 133, 229); fill-opacity:1.000; stroke:none;" />
 <path d="  M 5,26  L 4,26  L 4,27  L 5,27  Z  " style="fill:rgb(60, 133, 229); fill-opacity:1.000; stroke:none;" />
 <path d="  M 5,32  L 5,31  L 4,31  L 4,32  Z  " style="fill:rgb(60, 133, 229); fill-opacity:1.000; stroke:none;" />
 <path d="  M 6,29  L 5,29  L 5,31  L 6,31  Z  " style="fill:rgb(60, 133, 229); fill-opacity:1.000; stroke:none;" />
 <path d="  M 6,28  L 6,29  L 7,29  L 7,28  Z  " style="fill:rgb(60, 133, 229); fill-opacity:1.000; stroke:none;" />
 <path d="  M 11,22  L 11,21  L 10,21  L 10,22  Z  " style="fill:rgb(60, 133, 229); fill-opacity:1.000; stroke:none;" />
 <path d="  M 14,24  L 14,25  L 15,25  L 15,24  Z  " style="fill:rgb(60, 133, 229); fill-opacity:1.000; stroke:none;" />
 <path d="  M 17,23  L 15,23  L 15,24  L 17,24  Z  " style="fill:rgb(60, 133, 229); fill-opacity:1.000; stroke:none;" />
 <path d="  M 17,22  L 17,21  L 16,21  L 16,22  Z  " style="fill:rgb(60, 133, 229); fill-opacity:1.000; stroke:none;" />
 <path d="  M 18,22  L 17,22  L 17,23  L 18,23  Z  " style="fill:rgb(60, 133, 229); fill-opacity:1.000; stroke:none;" />
 <path d="  M 17,25  L 18,25  L 18,24  L 17,24  Z  " style="fill:rgb(60, 133, 229); fill-opacity:1.000; stroke:none;" />
 <path d="  M 18,21  L 18,22  L 19,22  L 19,21  Z  " style="fill:rgb(60, 133, 229); fill-opacity:1.000; stroke:none;" />
 <path d="  M 21,31  L 21,32  L 22,32  L 22,31  Z  " style="fill:rgb(60, 133, 229); fill-opacity:1.000; stroke:none;" />
 <path d="  M 22,29  L 22,31  L 23,31  L 23,29  Z  " style="fill:rgb(60, 133, 229); fill-opacity:1.000; stroke:none;" />
 <path d="  M 23,29  L 24,29  L 24,28  L 23,28  Z  " style="fill:rgb(60, 133, 229); fill-opacity:1.000; stroke:none;" />
 <path d="  M 28,29  L 28,30  L 29,30  L 29,29  Z  " style="fill:rgb(60, 133, 229); fill-opacity:1.000; stroke:none;" />
 <path d="  M 29,28  L 29,29  L 30,29  L 30,28  Z  " style="fill:rgb(60, 133, 229); fill-opacity:1.000; stroke:none;" />
 <path d="  M 2,32  L 3,32  L 3,31  L 2,31  Z  " style="fill:rgb(28, 55, 136); fill-opacity:1.000; stroke:none;" />
 <path d="  M 12,28  L 12,27  L 11,27  L 11,26  L 10,26  L 10,28  Z  " style="fill:rgb(28, 55, 136); fill-opacity:1.000; stroke:none;" />
 <path d="  M 12,25  L 11,25  L 11,26  L 12,26  Z  " style="fill:rgb(28, 55, 136); fill-opacity:1.000; stroke:none;" />
 <path d="  M 26,29  L 26,28  L 25,28  L 25,29  Z  " style="fill:rgb(28, 55, 136); fill-opacity:1.000; stroke:none;" />
 <path d="  M 26,28  L 27,28  L 27,27  L 26,27  Z  " style="fill:rgb(28, 55, 136); fill-opacity:1.000; stroke:none;" />
</svg>
