<?xml version="1.0" encoding="UTF-8" standalone="no"?>
<!DOCTYPE svg PUBLIC "-//W3C//DTD SVG 1.1//EN" 
  "http://www.w3.org/Graphics/SVG/1.1/DTD/svg11.dtd">
<svg width="32" height="32"
	 xmlns="http://www.w3.org/2000/svg" version="1.1">
 <path d="  M 1,21  L 0,21  L 0,23  L 1,23  Z  " style="fill:rgb(17, 118, 31); fill-opacity:1.000; stroke:none;" />
 <path d="  M 2,21  L 2,20  L 1,20  L 1,21  Z  " style="fill:rgb(17, 118, 31); fill-opacity:1.000; stroke:none;" />
 <path d="  M 14,31  L 13,31  L 13,32  L 14,32  Z  " style="fill:rgb(17, 118, 31); fill-opacity:1.000; stroke:none;" />
 <path d="  M 18,28  L 19,28  L 19,26  L 18,26  Z  " style="fill:rgb(17, 118, 31); fill-opacity:1.000; stroke:none;" />
 <path d="  M 21,24  L 21,26  L 23,26  L 23,25  L 22,25  L 22,24  Z  " style="fill:rgb(17, 118, 31); fill-opacity:1.000; stroke:none;" />
 <path d="  M 1,28  L 2,28  L 2,26  L 3,26  L 3,25  L 2,25  L 2,21  L 1,21  L 1,23  L 0,23  L 0,24  L 1,24  Z  " style="fill:rgb(91, 107, 15); fill-opacity:1.000; stroke:none;" />
 <path d="  M 11,22  L 11,24  L 10,24  L 10,22  L 9,22  L 9,28  L 10,28  L 10,26  L 11,26  L 11,25  L 12,25  L 12,22  Z  " style="fill:rgb(91, 107, 15); fill-opacity:1.000; stroke:none;" />
 <path d="  M 14,6  L 13,6  L 13,7  L 14,7  Z  " style="fill:rgb(91, 107, 15); fill-opacity:1.000; stroke:none;" />
 <path d="  M 13,30  L 14,30  L 14,26  L 13,26  Z  " style="fill:rgb(91, 107, 15); fill-opacity:1.000; stroke:none;" />
 <path d="  M 14,6  L 15,6  L 15,5  L 14,5  Z  " style="fill:rgb(91, 107, 15); fill-opacity:1.000; stroke:none;" />
 <path d="  M 15,8  L 15,7  L 14,7  L 14,8  Z  " style="fill:rgb(91, 107, 15); fill-opacity:1.000; stroke:none;" />
 <path d="  M 14,10  L 15,10  L 15,9  L 14,9  Z  " style="fill:rgb(91, 107, 15); fill-opacity:1.000; stroke:none;" />
 <path d="  M 15,7  L 16,7  L 16,6  L 15,6  Z  " style="fill:rgb(91, 107, 15); fill-opacity:1.000; stroke:none;" />
 <path d="  M 16,8  L 15,8  L 15,9  L 16,9  Z  " style="fill:rgb(91, 107, 15); fill-opacity:1.000; stroke:none;" />
 <path d="  M 17,8  L 17,7  L 16,7  L 16,8  Z  " style="fill:rgb(91, 107, 15); fill-opacity:1.000; stroke:none;" />
 <path d="  M 18,21  L 18,24  L 19,24  L 19,23  L 20,23  L 20,22  L 19,22  L 19,21  Z  " style="fill:rgb(91, 107, 15); fill-opacity:1.000; stroke:none;" />
 <path d="  M 19,20  L 20,20  L 20,18  L 19,18  Z  " style="fill:rgb(91, 107, 15); fill-opacity:1.000; stroke:none;" />
 <path d="  M 22,29  L 22,31  L 23,31  L 23,29  Z  " style="fill:rgb(91, 107, 15); fill-opacity:1.000; stroke:none;" />
 <path d="  M 23,29  L 24,29  L 24,28  L 23,28  Z  " style="fill:rgb(91, 107, 15); fill-opacity:1.000; stroke:none;" />
 <path d="  M 27,22  L 28,22  L 28,21  L 27,21  Z  " style="fill:rgb(91, 107, 15); fill-opacity:1.000; stroke:none;" />
 <path d="  M 29,21  L 29,20  L 28,20  L 28,21  Z  " style="fill:rgb(91, 107, 15); fill-opacity:1.000; stroke:none;" />
 <path d="  M 29,23  L 29,22  L 28,22  L 28,23  Z  " style="fill:rgb(91, 107, 15); fill-opacity:1.000; stroke:none;" />
 <path d="  M 0,25  L 1,25  L 1,24  L 0,24  Z  " style="fill:rgb(5, 106, 5); fill-opacity:1.000; stroke:none;" />
 <path d="  M 0,32  L 2,32  L 2,28  L 1,28  L 1,30  L 0,30  Z  " style="fill:rgb(5, 106, 5); fill-opacity:1.000; stroke:none;" />
 <path d="  M 4,27  L 4,26  L 2,26  L 2,28  L 3,28  L 3,27  Z  " style="fill:rgb(5, 106, 5); fill-opacity:1.000; stroke:none;" />
 <path d="  M 8,29  L 8,32  L 10,32  L 10,30  L 9,30  L 9,26  L 8,26  L 8,28  L 7,28  L 7,29  Z  " style="fill:rgb(5, 106, 5); fill-opacity:1.000; stroke:none;" />
 <path d="  M 9,19  L 9,20  L 8,20  L 8,21  L 9,21  L 9,22  L 10,22  L 10,19  Z  " style="fill:rgb(5, 106, 5); fill-opacity:1.000; stroke:none;" />
 <path d="  M 12,30  L 12,32  L 13,32  L 13,30  Z  " style="fill:rgb(5, 106, 5); fill-opacity:1.000; stroke:none;" />
 <path d="  M 19,28  L 18,28  L 18,32  L 20,32  L 20,31  L 19,31  Z  " style="fill:rgb(5, 106, 5); fill-opacity:1.000; stroke:none;" />
 <path d="  M 25,31  L 24,31  L 24,32  L 26,32  L 26,28  L 25,28  Z  " style="fill:rgb(5, 106, 5); fill-opacity:1.000; stroke:none;" />
 <path d="  M 26,25  L 27,25  L 27,24  L 26,24  Z  " style="fill:rgb(5, 106, 5); fill-opacity:1.000; stroke:none;" />
 <path d="  M 27,26  L 28,26  L 28,25  L 27,25  Z  " style="fill:rgb(5, 106, 5); fill-opacity:1.000; stroke:none;" />
 <path d="  M 28,27  L 29,27  L 29,26  L 28,26  Z  " style="fill:rgb(5, 106, 5); fill-opacity:1.000; stroke:none;" />
 <path d="  M 30,27  L 29,27  L 29,30  L 28,30  L 28,32  L 31,32  L 31,31  L 30,31  Z  " style="fill:rgb(5, 106, 5); fill-opacity:1.000; stroke:none;" />
 <path d="  M 31,24  L 31,23  L 30,23  L 30,24  Z  " style="fill:rgb(5, 106, 5); fill-opacity:1.000; stroke:none;" />
 <path d="  M 31,23  L 32,23  L 32,22  L 31,22  Z  " style="fill:rgb(5, 106, 5); fill-opacity:1.000; stroke:none;" />
 <path d="  M 3,20  L 3,17  L 2,17  L 2,18  L 1,18  L 1,19  L 2,19  L 2,20  Z  " style="fill:rgb(0, 174, 25); fill-opacity:1.000; stroke:none;" />
 <path d="  M 4,11  L 5,11  L 5,10  L 4,10  Z  " style="fill:rgb(0, 174, 25); fill-opacity:1.000; stroke:none;" />
 <path d="  M 4,13  L 5,13  L 5,12  L 4,12  Z  " style="fill:rgb(0, 174, 25); fill-opacity:1.000; stroke:none;" />
 <path d="  M 4,18  L 5,18  L 5,16  L 4,16  Z  " style="fill:rgb(0, 174, 25); fill-opacity:1.000; stroke:none;" />
 <path d="  M 6,12  L 6,11  L 5,11  L 5,12  Z  " style="fill:rgb(0, 174, 25); fill-opacity:1.000; stroke:none;" />
 <path d="  M 5,16  L 6,16  L 6,15  L 7,15  L 7,14  L 6,14  L 6,13  L 5,13  Z  " style="fill:rgb(0, 174, 25); fill-opacity:1.000; stroke:none;" />
 <path d="  M 7,11  L 7,13  L 8,13  L 8,11  Z  " style="fill:rgb(0, 174, 25); fill-opacity:1.000; stroke:none;" />
 <path d="  M 19,21  L 20,21  L 20,20  L 19,20  Z  " style="fill:rgb(0, 174, 25); fill-opacity:1.000; stroke:none;" />
 <path d="  M 20,21  L 20,22  L 21,22  L 21,21  Z  " style="fill:rgb(0, 174, 25); fill-opacity:1.000; stroke:none;" />
 <path d="  M 23,16  L 22,16  L 22,15  L 21,15  L 21,17  L 22,17  L 22,19  L 23,19  Z  " style="fill:rgb(0, 174, 25); fill-opacity:1.000; stroke:none;" />
 <path d="  M 22,22  L 21,22  L 21,23  L 22,23  Z  " style="fill:rgb(0, 174, 25); fill-opacity:1.000; stroke:none;" />
 <path d="  M 23,15  L 23,14  L 22,14  L 22,15  Z  " style="fill:rgb(0, 174, 25); fill-opacity:1.000; stroke:none;" />
 <path d="  M 23,22  L 23,21  L 22,21  L 22,22  Z  " style="fill:rgb(0, 174, 25); fill-opacity:1.000; stroke:none;" />
 <path d="  M 24,16  L 24,15  L 23,15  L 23,16  Z  " style="fill:rgb(0, 174, 25); fill-opacity:1.000; stroke:none;" />
 <path d="  M 23,20  L 24,20  L 24,19  L 23,19  Z  " style="fill:rgb(0, 174, 25); fill-opacity:1.000; stroke:none;" />
 <path d="  M 25,16  L 24,16  L 24,17  L 25,17  Z  " style="fill:rgb(0, 174, 25); fill-opacity:1.000; stroke:none;" />
 <path d="  M 24,18  L 24,19  L 25,19  L 25,18  Z  " style="fill:rgb(0, 174, 25); fill-opacity:1.000; stroke:none;" />
 <path d="  M 26,18  L 26,17  L 25,17  L 25,18  Z  " style="fill:rgb(0, 174, 25); fill-opacity:1.000; stroke:none;" />
 <path d="  M 26,17  L 27,17  L 27,16  L 26,16  Z  " style="fill:rgb(0, 174, 25); fill-opacity:1.000; stroke:none;" />
 <path d="  M 2,19  L 1,19  L 1,20  L 2,20  Z  " style="fill:rgb(8, 136, 6); fill-opacity:1.000; stroke:none;" />
 <path d="  M 2,21  L 3,21  L 3,20  L 2,20  Z  " style="fill:rgb(8, 136, 6); fill-opacity:1.000; stroke:none;" />
 <path d="  M 4,22  L 4,21  L 3,21  L 3,22  Z  " style="fill:rgb(8, 136, 6); fill-opacity:1.000; stroke:none;" />
 <path d="  M 5,19  L 5,18  L 4,18  L 4,19  Z  " style="fill:rgb(8, 136, 6); fill-opacity:1.000; stroke:none;" />
 <path d="  M 6,18  L 6,16  L 5,16  L 5,18  Z  " style="fill:rgb(8, 136, 6); fill-opacity:1.000; stroke:none;" />
 <path d="  M 6,16  L 7,16  L 7,15  L 6,15  Z  " style="fill:rgb(8, 136, 6); fill-opacity:1.000; stroke:none;" />
 <path d="  M 7,13  L 7,15  L 8,15  L 8,14  L 9,14  L 9,12  L 8,12  L 8,13  Z  " style="fill:rgb(8, 136, 6); fill-opacity:1.000; stroke:none;" />
 <path d="  M 15,2  L 14,2  L 14,3  L 15,3  Z  " style="fill:rgb(8, 136, 6); fill-opacity:1.000; stroke:none;" />
 <path d="  M 15,5  L 16,5  L 16,3  L 15,3  Z  " style="fill:rgb(8, 136, 6); fill-opacity:1.000; stroke:none;" />
 <path d="  M 19,8  L 18,8  L 18,9  L 17,9  L 17,8  L 16,8  L 16,11  L 17,11  L 17,10  L 19,10  Z  " style="fill:rgb(8, 136, 6); fill-opacity:1.000; stroke:none;" />
 <path d="  M 19,21  L 19,22  L 20,22  L 20,21  Z  " style="fill:rgb(8, 136, 6); fill-opacity:1.000; stroke:none;" />
 <path d="  M 20,24  L 22,24  L 22,25  L 23,25  L 23,22  L 22,22  L 22,23  L 21,23  L 21,22  L 20,22  Z  " style="fill:rgb(8, 136, 6); fill-opacity:1.000; stroke:none;" />
 <path d="  M 24,19  L 24,17  L 23,17  L 23,19  Z  " style="fill:rgb(8, 136, 6); fill-opacity:1.000; stroke:none;" />
 <path d="  M 23,22  L 24,22  L 24,20  L 23,20  Z  " style="fill:rgb(8, 136, 6); fill-opacity:1.000; stroke:none;" />
 <path d="  M 25,20  L 25,19  L 24,19  L 24,20  Z  " style="fill:rgb(8, 136, 6); fill-opacity:1.000; stroke:none;" />
 <path d="  M 25,31  L 25,30  L 24,30  L 24,31  Z  " style="fill:rgb(8, 136, 6); fill-opacity:1.000; stroke:none;" />
 <path d="  M 25,18  L 25,19  L 26,19  L 26,18  Z  " style="fill:rgb(8, 136, 6); fill-opacity:1.000; stroke:none;" />
 <path d="  M 25,28  L 26,28  L 26,26  L 25,26  Z  " style="fill:rgb(8, 136, 6); fill-opacity:1.000; stroke:none;" />
 <path d="  M 26,18  L 27,18  L 27,17  L 26,17  Z  " style="fill:rgb(8, 136, 6); fill-opacity:1.000; stroke:none;" />
 <path d="  M 28,23  L 27,23  L 27,25  L 28,25  L 28,26  L 29,26  L 29,27  L 30,27  L 30,25  L 29,25  L 29,24  L 28,24  Z  " style="fill:rgb(8, 136, 6); fill-opacity:1.000; stroke:none;" />
 <path d="  M 31,23  L 31,22  L 30,22  L 30,23  Z  " style="fill:rgb(8, 136, 6); fill-opacity:1.000; stroke:none;" />
 <path d="  M 2,25  L 3,25  L 3,22  L 2,22  Z  " style="fill:rgb(75, 118, 19); fill-opacity:1.000; stroke:none;" />
 <path d="  M 4,10  L 3,10  L 3,13  L 4,13  Z  " style="fill:rgb(75, 118, 19); fill-opacity:1.000; stroke:none;" />
 <path d="  M 4,21  L 4,22  L 5,22  L 5,19  L 4,19  L 4,20  L 3,20  L 3,21  Z  " style="fill:rgb(75, 118, 19); fill-opacity:1.000; stroke:none;" />
 <path d="  M 4,10  L 5,10  L 5,11  L 7,11  L 7,10  L 6,10  L 6,9  L 5,9  L 5,8  L 4,8  Z  " style="fill:rgb(75, 118, 19); fill-opacity:1.000; stroke:none;" />
 <path d="  M 5,24  L 6,24  L 6,22  L 5,22  Z  " style="fill:rgb(75, 118, 19); fill-opacity:1.000; stroke:none;" />
 <path d="  M 7,29  L 7,27  L 6,27  L 6,29  Z  " style="fill:rgb(75, 118, 19); fill-opacity:1.000; stroke:none;" />
 <path d="  M 8,30  L 8,29  L 7,29  L 7,30  Z  " style="fill:rgb(75, 118, 19); fill-opacity:1.000; stroke:none;" />
 <path d="  M 10,18  L 10,17  L 9,17  L 9,18  L 8,18  L 8,20  L 9,20  L 9,19  L 10,19  L 10,20  L 11,20  L 11,18  Z  " style="fill:rgb(75, 118, 19); fill-opacity:1.000; stroke:none;" />
 <path d="  M 13,6  L 12,6  L 12,7  L 13,7  Z  " style="fill:rgb(75, 118, 19); fill-opacity:1.000; stroke:none;" />
 <path d="  M 13,29  L 12,29  L 12,30  L 13,30  Z  " style="fill:rgb(75, 118, 19); fill-opacity:1.000; stroke:none;" />
 <path d="  M 15,5  L 15,3  L 14,3  L 14,4  L 13,4  L 13,6  L 14,6  L 14,5  Z  " style="fill:rgb(75, 118, 19); fill-opacity:1.000; stroke:none;" />
 <path d="  M 13,7  L 13,8  L 14,8  L 14,7  Z  " style="fill:rgb(75, 118, 19); fill-opacity:1.000; stroke:none;" />
 <path d="  M 14,31  L 14,30  L 13,30  L 13,31  Z  " style="fill:rgb(75, 118, 19); fill-opacity:1.000; stroke:none;" />
 <path d="  M 15,6  L 14,6  L 14,7  L 15,7  Z  " style="fill:rgb(75, 118, 19); fill-opacity:1.000; stroke:none;" />
 <path d="  M 14,9  L 15,9  L 15,8  L 14,8  Z  " style="fill:rgb(75, 118, 19); fill-opacity:1.000; stroke:none;" />
 <path d="  M 16,5  L 15,5  L 15,6  L 16,6  Z  " style="fill:rgb(75, 118, 19); fill-opacity:1.000; stroke:none;" />
 <path d="  M 15,7  L 15,8  L 16,8  L 16,7  Z  " style="fill:rgb(75, 118, 19); fill-opacity:1.000; stroke:none;" />
 <path d="  M 16,6  L 16,7  L 17,7  L 17,6  Z  " style="fill:rgb(75, 118, 19); fill-opacity:1.000; stroke:none;" />
 <path d="  M 17,11  L 16,11  L 16,12  L 17,12  Z  " style="fill:rgb(75, 118, 19); fill-opacity:1.000; stroke:none;" />
 <path d="  M 17,11  L 18,11  L 18,10  L 17,10  Z  " style="fill:rgb(75, 118, 19); fill-opacity:1.000; stroke:none;" />
 <path d="  M 18,26  L 19,26  L 19,24  L 18,24  Z  " style="fill:rgb(75, 118, 19); fill-opacity:1.000; stroke:none;" />
 <path d="  M 19,24  L 20,24  L 20,23  L 19,23  Z  " style="fill:rgb(75, 118, 19); fill-opacity:1.000; stroke:none;" />
 <path d="  M 22,29  L 23,29  L 23,26  L 22,26  Z  " style="fill:rgb(75, 118, 19); fill-opacity:1.000; stroke:none;" />
 <path d="  M 27,24  L 27,23  L 28,23  L 28,22  L 27,22  L 27,21  L 26,21  L 26,24  Z  " style="fill:rgb(75, 118, 19); fill-opacity:1.000; stroke:none;" />
 <path d="  M 28,20  L 27,20  L 27,21  L 28,21  Z  " style="fill:rgb(75, 118, 19); fill-opacity:1.000; stroke:none;" />
 <path d="  M 28,21  L 28,22  L 29,22  L 29,21  Z  " style="fill:rgb(75, 118, 19); fill-opacity:1.000; stroke:none;" />
 <path d="  M 28,23  L 28,24  L 29,24  L 29,25  L 30,25  L 30,23  Z  " style="fill:rgb(75, 118, 19); fill-opacity:1.000; stroke:none;" />
 <path d="  M 29,21  L 30,21  L 30,20  L 29,20  Z  " style="fill:rgb(75, 118, 19); fill-opacity:1.000; stroke:none;" />
 <path d="  M 5,12  L 5,11  L 4,11  L 4,12  Z  " style="fill:rgb(21, 205, 47); fill-opacity:1.000; stroke:none;" />
 <path d="  M 5,13  L 4,13  L 4,14  L 5,14  Z  " style="fill:rgb(21, 205, 47); fill-opacity:1.000; stroke:none;" />
 <path d="  M 5,12  L 5,13  L 6,13  L 6,12  Z  " style="fill:rgb(21, 205, 47); fill-opacity:1.000; stroke:none;" />
 <path d="  M 23,15  L 22,15  L 22,16  L 23,16  Z  " style="fill:rgb(21, 205, 47); fill-opacity:1.000; stroke:none;" />
 <path d="  M 23,15  L 24,15  L 24,16  L 25,16  L 25,14  L 24,14  L 24,13  L 23,13  Z  " style="fill:rgb(21, 205, 47); fill-opacity:1.000; stroke:none;" />
 <path d="  M 23,16  L 23,17  L 24,17  L 24,16  Z  " style="fill:rgb(21, 205, 47); fill-opacity:1.000; stroke:none;" />
 <path d="  M 5,22  L 4,22  L 4,24  L 5,24  Z  " style="fill:rgb(141, 119, 61); fill-opacity:1.000; stroke:none;" />
 <path d="  M 5,31  L 5,30  L 4,30  L 4,32  L 6,32  L 6,31  Z  " style="fill:rgb(141, 119, 61); fill-opacity:1.000; stroke:none;" />
 <path d="  M 5,26  L 6,26  L 6,24  L 5,24  Z  " style="fill:rgb(141, 119, 61); fill-opacity:1.000; stroke:none;" />
 <path d="  M 12,18  L 11,18  L 11,19  L 12,19  Z  " style="fill:rgb(141, 119, 61); fill-opacity:1.000; stroke:none;" />
 <path d="  M 13,19  L 12,19  L 12,20  L 13,20  Z  " style="fill:rgb(141, 119, 61); fill-opacity:1.000; stroke:none;" />
 <path d="  M 13,20  L 13,22  L 14,22  L 14,20  Z  " style="fill:rgb(141, 119, 61); fill-opacity:1.000; stroke:none;" />
 <path d="  M 16,9  L 15,9  L 15,10  L 14,10  L 14,12  L 15,12  L 15,11  L 16,11  Z  " style="fill:rgb(141, 119, 61); fill-opacity:1.000; stroke:none;" />
 <path d="  M 15,14  L 14,14  L 14,17  L 15,17  Z  " style="fill:rgb(141, 119, 61); fill-opacity:1.000; stroke:none;" />
 <path d="  M 14,24  L 14,25  L 15,25  L 15,24  Z  " style="fill:rgb(141, 119, 61); fill-opacity:1.000; stroke:none;" />
 <path d="  M 14,30  L 14,32  L 16,32  L 16,31  L 15,31  L 15,30  Z  " style="fill:rgb(141, 119, 61); fill-opacity:1.000; stroke:none;" />
 <path d="  M 15,22  L 16,22  L 16,19  L 15,19  Z  " style="fill:rgb(141, 119, 61); fill-opacity:1.000; stroke:none;" />
 <path d="  M 16,26  L 16,25  L 15,25  L 15,26  Z  " style="fill:rgb(141, 119, 61); fill-opacity:1.000; stroke:none;" />
 <path d="  M 16,29  L 16,30  L 17,30  L 17,29  Z  " style="fill:rgb(141, 119, 61); fill-opacity:1.000; stroke:none;" />
 <path d="  M 17,28  L 17,29  L 18,29  L 18,28  Z  " style="fill:rgb(141, 119, 61); fill-opacity:1.000; stroke:none;" />
 <path d="  M 23,29  L 23,31  L 22,31  L 22,32  L 24,32  L 24,29  Z  " style="fill:rgb(141, 119, 61); fill-opacity:1.000; stroke:none;" />
 <path d="  M 5,24  L 4,24  L 4,30  L 5,30  Z  " style="fill:rgb(159, 153, 8); fill-opacity:1.000; stroke:none;" />
 <path d="  M 6,30  L 5,30  L 5,31  L 6,31  Z  " style="fill:rgb(159, 153, 8); fill-opacity:1.000; stroke:none;" />
 <path d="  M 16,25  L 16,22  L 15,22  L 15,19  L 16,19  L 16,18  L 15,18  L 15,17  L 14,17  L 14,18  L 13,18  L 13,17  L 12,17  L 12,16  L 11,16  L 11,18  L 12,18  L 12,19  L 13,19  L 13,20  L 14,20  L 14,24  L 15,24  L 15,25  Z  " style="fill:rgb(159, 153, 8); fill-opacity:1.000; stroke:none;" />
 <path d="  M 14,12  L 14,14  L 15,14  L 15,13  L 16,13  L 16,11  L 15,11  L 15,12  Z  " style="fill:rgb(159, 153, 8); fill-opacity:1.000; stroke:none;" />
 <path d="  M 17,29  L 17,28  L 16,28  L 16,26  L 15,26  L 15,29  L 14,29  L 14,30  L 15,30  L 15,31  L 16,31  L 16,29  Z  " style="fill:rgb(159, 153, 8); fill-opacity:1.000; stroke:none;" />
 <path d="  M 17,28  L 18,28  L 18,26  L 17,26  Z  " style="fill:rgb(159, 153, 8); fill-opacity:1.000; stroke:none;" />
</svg>
