<?xml version="1.0" encoding="UTF-8" standalone="no"?>
<!DOCTYPE svg PUBLIC "-//W3C//DTD SVG 1.1//EN" 
  "http://www.w3.org/Graphics/SVG/1.1/DTD/svg11.dtd">
<svg width="32" height="32"
	 xmlns="http://www.w3.org/2000/svg" version="1.1">
 <path d="  M 11,22  L 11,21  L 10,21  L 10,22  Z  " style="fill:rgb(74, 143, 40); fill-opacity:1.000; stroke:none;" />
 <path d="  M 12,22  L 11,22  L 11,23  L 12,23  Z  " style="fill:rgb(74, 143, 40); fill-opacity:1.000; stroke:none;" />
 <path d="  M 13,25  L 13,23  L 12,23  L 12,25  Z  " style="fill:rgb(74, 143, 40); fill-opacity:1.000; stroke:none;" />
 <path d="  M 14,25  L 13,25  L 13,27  L 14,27  Z  " style="fill:rgb(74, 143, 40); fill-opacity:1.000; stroke:none;" />
 <path d="  M 16,30  L 16,29  L 15,29  L 15,30  Z  " style="fill:rgb(74, 143, 40); fill-opacity:1.000; stroke:none;" />
 <path d="  M 17,29  L 17,28  L 16,28  L 16,29  Z  " style="fill:rgb(74, 143, 40); fill-opacity:1.000; stroke:none;" />
 <path d="  M 18,17  L 18,16  L 17,16  L 17,17  Z  " style="fill:rgb(74, 143, 40); fill-opacity:1.000; stroke:none;" />
 <path d="  M 18,27  L 18,26  L 17,26  L 17,27  Z  " style="fill:rgb(74, 143, 40); fill-opacity:1.000; stroke:none;" />
 <path d="  M 19,16  L 19,15  L 18,15  L 18,16  Z  " style="fill:rgb(74, 143, 40); fill-opacity:1.000; stroke:none;" />
 <path d="  M 18,26  L 19,26  L 19,24  L 18,24  Z  " style="fill:rgb(74, 143, 40); fill-opacity:1.000; stroke:none;" />
 <path d="  M 20,22  L 19,22  L 19,23  L 20,23  Z  " style="fill:rgb(74, 143, 40); fill-opacity:1.000; stroke:none;" />
 <path d="  M 12,23  L 13,23  L 13,21  L 11,21  L 11,22  L 12,22  Z  " style="fill:rgb(85, 171, 45); fill-opacity:1.000; stroke:none;" />
 <path d="  M 15,25  L 16,25  L 16,18  L 15,18  Z  " style="fill:rgb(85, 171, 45); fill-opacity:1.000; stroke:none;" />
 <path d="  M 17,26  L 16,26  L 16,28  L 17,28  Z  " style="fill:rgb(85, 171, 45); fill-opacity:1.000; stroke:none;" />
 <path d="  M 17,22  L 18,22  L 18,20  L 19,20  L 19,18  L 20,18  L 20,15  L 19,15  L 19,16  L 18,16  L 18,17  L 17,17  Z  " style="fill:rgb(85, 171, 45); fill-opacity:1.000; stroke:none;" />
 <path d="  M 19,24  L 19,23  L 18,23  L 18,24  Z  " style="fill:rgb(85, 171, 45); fill-opacity:1.000; stroke:none;" />
 <path d="  M 13,10  L 14,10  L 14,11  L 16,11  L 16,10  L 17,10  L 17,8  L 16,8  L 16,9  L 15,9  L 15,8  L 14,8  L 14,7  L 13,7  Z  " style="fill:rgb(247, 247, 247); fill-opacity:1.000; stroke:none;" />
 <path d="  M 14,11  L 14,10  L 13,10  L 13,12  L 14,12  L 14,13  L 15,13  L 15,11  Z  " style="fill:rgb(155, 189, 189); fill-opacity:1.000; stroke:none;" />
 <path d="  M 15,14  L 16,14  L 16,13  L 15,13  Z  " style="fill:rgb(155, 189, 189); fill-opacity:1.000; stroke:none;" />
 <path d="  M 16,13  L 17,13  L 17,12  L 18,12  L 18,10  L 17,10  L 17,11  L 16,11  Z  " style="fill:rgb(155, 189, 189); fill-opacity:1.000; stroke:none;" />
 <path d="  M 14,27  L 15,27  L 15,29  L 16,29  L 16,26  L 18,26  L 18,23  L 19,23  L 19,22  L 20,22  L 20,18  L 19,18  L 19,20  L 18,20  L 18,22  L 17,22  L 17,20  L 16,20  L 16,25  L 15,25  L 15,23  L 14,23  L 14,22  L 13,22  L 13,25  L 14,25  Z  " style="fill:rgb(82, 154, 46); fill-opacity:1.000; stroke:none;" />
 <path d="  M 16,17  L 15,17  L 15,18  L 16,18  Z  " style="fill:rgb(82, 154, 46); fill-opacity:1.000; stroke:none;" />
 <path d="  M 15,27  L 14,27  L 14,30  L 15,30  Z  " style="fill:rgb(23, 124, 4); fill-opacity:1.000; stroke:none;" />
 <path d="  M 16,14  L 15,14  L 15,17  L 16,17  Z  " style="fill:rgb(23, 124, 4); fill-opacity:1.000; stroke:none;" />
 <path d="  M 15,30  L 15,32  L 16,32  L 16,30  Z  " style="fill:rgb(23, 124, 4); fill-opacity:1.000; stroke:none;" />
 <path d="  M 16,20  L 17,20  L 17,17  L 16,17  Z  " style="fill:rgb(23, 124, 4); fill-opacity:1.000; stroke:none;" />
 <path d="  M 16,29  L 16,30  L 17,30  L 17,29  Z  " style="fill:rgb(23, 124, 4); fill-opacity:1.000; stroke:none;" />
 <path d="  M 18,27  L 17,27  L 17,29  L 18,29  Z  " style="fill:rgb(23, 124, 4); fill-opacity:1.000; stroke:none;" />
 <path d="  M 18,26  L 18,27  L 19,27  L 19,26  Z  " style="fill:rgb(23, 124, 4); fill-opacity:1.000; stroke:none;" />
 <path d="  M 19,15  L 20,15  L 20,14  L 19,14  Z  " style="fill:rgb(23, 124, 4); fill-opacity:1.000; stroke:none;" />
 <path d="  M 20,25  L 20,23  L 19,23  L 19,25  Z  " style="fill:rgb(23, 124, 4); fill-opacity:1.000; stroke:none;" />
 <path d="  M 16,11  L 15,11  L 15,13  L 16,13  Z  " style="fill:rgb(214, 232, 232); fill-opacity:1.000; stroke:none;" />
 <path d="  M 17,11  L 17,10  L 16,10  L 16,11  Z  " style="fill:rgb(214, 232, 232); fill-opacity:1.000; stroke:none;" />
 <path d="  M 17,10  L 18,10  L 18,7  L 17,7  Z  " style="fill:rgb(214, 232, 232); fill-opacity:1.000; stroke:none;" />
</svg>
