<?xml version="1.0" encoding="UTF-8" standalone="no"?>
<!DOCTYPE svg PUBLIC "-//W3C//DTD SVG 1.1//EN" 
  "http://www.w3.org/Graphics/SVG/1.1/DTD/svg11.dtd">
<svg width="32" height="32"
	 xmlns="http://www.w3.org/2000/svg" version="1.1">
 <path d="  M 5,0  L 0,0  L 0,5  L 2,5  L 2,4  L 3,4  L 3,3  L 4,3  L 4,2  L 5,2  Z  " style="fill:rgb(254, 216, 61); fill-opacity:1.000; stroke:none;" />
 <path d="  M 0,18  L 1,18  L 1,16  L 2,16  L 2,12  L 1,12  L 1,11  L 0,11  Z  " style="fill:rgb(254, 216, 61); fill-opacity:1.000; stroke:none;" />
 <path d="  M 0,32  L 1,32  L 1,31  L 0,31  Z  " style="fill:rgb(254, 216, 61); fill-opacity:1.000; stroke:none;" />
 <path d="  M 7,30  L 7,29  L 3,29  L 3,30  Z  " style="fill:rgb(254, 216, 61); fill-opacity:1.000; stroke:none;" />
 <path d="  M 5,27  L 5,28  L 9,28  L 9,27  Z  " style="fill:rgb(254, 216, 61); fill-opacity:1.000; stroke:none;" />
 <path d="  M 7,25  L 7,26  L 11,26  L 11,25  Z  " style="fill:rgb(254, 216, 61); fill-opacity:1.000; stroke:none;" />
 <path d="  M 9,23  L 9,24  L 13,24  L 13,23  Z  " style="fill:rgb(254, 216, 61); fill-opacity:1.000; stroke:none;" />
 <path d="  M 16,2  L 16,1  L 18,1  L 18,0  L 11,0  L 11,2  Z  " style="fill:rgb(254, 216, 61); fill-opacity:1.000; stroke:none;" />
 <path d="  M 24,9  L 23,9  L 23,13  L 24,13  Z  " style="fill:rgb(254, 216, 61); fill-opacity:1.000; stroke:none;" />
 <path d="  M 26,7  L 25,7  L 25,11  L 26,11  Z  " style="fill:rgb(254, 216, 61); fill-opacity:1.000; stroke:none;" />
 <path d="  M 28,5  L 27,5  L 27,9  L 28,9  Z  " style="fill:rgb(254, 216, 61); fill-opacity:1.000; stroke:none;" />
 <path d="  M 30,30  L 29,30  L 29,31  L 28,31  L 28,32  L 32,32  L 32,28  L 31,28  L 31,29  L 30,29  Z  " style="fill:rgb(254, 216, 61); fill-opacity:1.000; stroke:none;" />
 <path d="  M 29,7  L 30,7  L 30,3  L 29,3  Z  " style="fill:rgb(254, 216, 61); fill-opacity:1.000; stroke:none;" />
 <path d="  M 31,1  L 32,1  L 32,0  L 31,0  Z  " style="fill:rgb(254, 216, 61); fill-opacity:1.000; stroke:none;" />
 <path d="  M 2,5  L 0,5  L 0,6  L 2,6  Z  " style="fill:rgb(254, 222, 95); fill-opacity:1.000; stroke:none;" />
 <path d="  M 0,11  L 1,11  L 1,10  L 0,10  Z  " style="fill:rgb(254, 222, 95); fill-opacity:1.000; stroke:none;" />
 <path d="  M 1,11  L 1,12  L 2,12  L 2,11  Z  " style="fill:rgb(254, 222, 95); fill-opacity:1.000; stroke:none;" />
 <path d="  M 2,31  L 2,30  L 1,30  L 1,31  Z  " style="fill:rgb(254, 222, 95); fill-opacity:1.000; stroke:none;" />
 <path d="  M 2,4  L 2,5  L 4,5  L 4,4  Z  " style="fill:rgb(254, 222, 95); fill-opacity:1.000; stroke:none;" />
 <path d="  M 3,29  L 2,29  L 2,30  L 3,30  Z  " style="fill:rgb(254, 222, 95); fill-opacity:1.000; stroke:none;" />
 <path d="  M 3,29  L 4,29  L 4,28  L 3,28  Z  " style="fill:rgb(254, 222, 95); fill-opacity:1.000; stroke:none;" />
 <path d="  M 4,4  L 5,4  L 5,2  L 4,2  Z  " style="fill:rgb(254, 222, 95); fill-opacity:1.000; stroke:none;" />
 <path d="  M 5,28  L 5,27  L 4,27  L 4,28  Z  " style="fill:rgb(254, 222, 95); fill-opacity:1.000; stroke:none;" />
 <path d="  M 6,0  L 5,0  L 5,2  L 6,2  Z  " style="fill:rgb(254, 222, 95); fill-opacity:1.000; stroke:none;" />
 <path d="  M 6,27  L 6,26  L 5,26  L 5,27  Z  " style="fill:rgb(254, 222, 95); fill-opacity:1.000; stroke:none;" />
 <path d="  M 7,26  L 7,25  L 6,25  L 6,26  Z  " style="fill:rgb(254, 222, 95); fill-opacity:1.000; stroke:none;" />
 <path d="  M 8,25  L 8,24  L 7,24  L 7,25  Z  " style="fill:rgb(254, 222, 95); fill-opacity:1.000; stroke:none;" />
 <path d="  M 8,30  L 8,29  L 7,29  L 7,30  Z  " style="fill:rgb(254, 222, 95); fill-opacity:1.000; stroke:none;" />
 <path d="  M 9,24  L 9,23  L 8,23  L 8,24  Z  " style="fill:rgb(254, 222, 95); fill-opacity:1.000; stroke:none;" />
 <path d="  M 10,27  L 9,27  L 9,28  L 10,28  Z  " style="fill:rgb(254, 222, 95); fill-opacity:1.000; stroke:none;" />
 <path d="  M 11,0  L 10,0  L 10,1  L 11,1  Z  " style="fill:rgb(254, 222, 95); fill-opacity:1.000; stroke:none;" />
 <path d="  M 12,25  L 11,25  L 11,26  L 12,26  Z  " style="fill:rgb(254, 222, 95); fill-opacity:1.000; stroke:none;" />
 <path d="  M 14,23  L 13,23  L 13,24  L 14,24  Z  " style="fill:rgb(254, 222, 95); fill-opacity:1.000; stroke:none;" />
 <path d="  M 24,8  L 23,8  L 23,9  L 24,9  Z  " style="fill:rgb(254, 222, 95); fill-opacity:1.000; stroke:none;" />
 <path d="  M 24,13  L 23,13  L 23,14  L 24,14  Z  " style="fill:rgb(254, 222, 95); fill-opacity:1.000; stroke:none;" />
 <path d="  M 25,8  L 25,7  L 24,7  L 24,8  Z  " style="fill:rgb(254, 222, 95); fill-opacity:1.000; stroke:none;" />
 <path d="  M 26,6  L 25,6  L 25,7  L 26,7  Z  " style="fill:rgb(254, 222, 95); fill-opacity:1.000; stroke:none;" />
 <path d="  M 26,12  L 26,11  L 25,11  L 25,12  Z  " style="fill:rgb(254, 222, 95); fill-opacity:1.000; stroke:none;" />
 <path d="  M 27,5  L 26,5  L 26,6  L 27,6  Z  " style="fill:rgb(254, 222, 95); fill-opacity:1.000; stroke:none;" />
 <path d="  M 28,5  L 28,4  L 27,4  L 27,5  Z  " style="fill:rgb(254, 222, 95); fill-opacity:1.000; stroke:none;" />
 <path d="  M 28,9  L 27,9  L 27,10  L 28,10  Z  " style="fill:rgb(254, 222, 95); fill-opacity:1.000; stroke:none;" />
 <path d="  M 28,4  L 29,4  L 29,3  L 28,3  Z  " style="fill:rgb(254, 222, 95); fill-opacity:1.000; stroke:none;" />
 <path d="  M 30,2  L 29,2  L 29,3  L 30,3  Z  " style="fill:rgb(254, 222, 95); fill-opacity:1.000; stroke:none;" />
 <path d="  M 29,8  L 30,8  L 30,7  L 29,7  Z  " style="fill:rgb(254, 222, 95); fill-opacity:1.000; stroke:none;" />
 <path d="  M 31,2  L 31,1  L 30,1  L 30,2  Z  " style="fill:rgb(254, 222, 95); fill-opacity:1.000; stroke:none;" />
 <path d="  M 9,15  L 8,15  L 8,16  L 6,16  L 6,15  L 5,15  L 5,14  L 4,14  L 4,9  L 5,9  L 5,8  L 8,8  L 8,9  L 9,9  Z  M 4,5  L 2,5  L 2,6  L 0,6  L 0,10  L 1,10  L 1,11  L 2,11  L 2,16  L 1,16  L 1,18  L 0,18  L 0,19  L 7,19  L 7,18  L 8,18  L 8,17  L 9,17  L 9,16  L 10,16  L 10,15  L 11,15  L 11,14  L 12,14  L 12,13  L 13,13  L 13,12  L 14,12  L 14,11  L 15,11  L 15,10  L 16,10  L 16,9  L 17,9  L 17,8  L 18,8  L 18,7  L 19,7  L 19,0  L 18,0  L 18,1  L 16,1  L 16,2  L 11,2  L 11,1  L 10,1  L 10,0  L 6,0  L 6,2  L 5,2  L 5,4  L 4,4  Z  M 15,9  L 11,9  L 11,8  L 9,8  L 9,7  L 8,7  L 8,5  L 9,5  L 9,4  L 14,4  L 14,5  L 15,5  L 15,6  L 16,6  L 16,8  L 15,8  Z  " style="fill:rgb(249, 255, 254); fill-opacity:1.000; stroke:none;" />
 <path d="  M 20,9  L 19,9  L 19,19  L 9,19  L 9,20  L 8,20  L 8,21  L 7,21  L 7,22  L 6,22  L 6,23  L 4,23  L 4,24  L 3,24  L 3,25  L 2,25  L 2,26  L 1,26  L 1,27  L 0,27  L 0,31  L 1,31  L 1,32  L 10,32  L 10,31  L 11,31  L 11,30  L 12,30  L 12,29  L 13,29  L 13,28  L 14,28  L 14,27  L 15,27  L 15,26  L 17,26  L 17,25  L 18,25  L 18,24  L 20,24  L 20,23  L 21,23  L 21,22  L 22,22  L 22,21  L 23,21  L 23,20  L 24,20  L 24,18  L 25,18  L 25,17  L 26,17  L 26,15  L 27,15  L 27,14  L 28,14  L 28,13  L 29,13  L 29,12  L 30,12  L 30,11  L 31,11  L 31,10  L 32,10  L 32,1  L 31,1  L 31,0  L 27,0  L 27,2  L 26,2  L 26,3  L 25,3  L 25,4  L 24,4  L 24,5  L 23,5  L 23,6  L 22,6  L 22,7  L 21,7  L 21,8  L 20,8  Z  M 23,8  L 24,8  L 24,7  L 25,7  L 25,6  L 26,6  L 26,5  L 27,5  L 27,4  L 28,4  L 28,3  L 29,3  L 29,2  L 30,2  L 30,1  L 31,1  L 31,3  L 30,3  L 30,8  L 29,8  L 29,5  L 28,5  L 28,10  L 27,10  L 27,7  L 26,7  L 26,12  L 25,12  L 25,9  L 24,9  L 24,14  L 23,14  Z  M 1,31  L 1,30  L 2,30  L 2,29  L 3,29  L 3,28  L 4,28  L 4,27  L 5,27  L 5,26  L 6,26  L 6,25  L 7,25  L 7,24  L 8,24  L 8,23  L 14,23  L 14,24  L 9,24  L 9,25  L 12,25  L 12,26  L 7,26  L 7,27  L 10,27  L 10,28  L 5,28  L 5,29  L 8,29  L 8,30  L 3,30  L 3,31  Z  " style="fill:rgb(249, 255, 254); fill-opacity:1.000; stroke:none;" />
 <path d="  M 29,23  L 28,23  L 28,22  L 27,22  L 27,21  L 25,21  L 25,22  L 24,22  L 24,23  L 23,23  L 23,24  L 22,24  L 22,25  L 21,25  L 21,27  L 22,27  L 22,28  L 23,28  L 23,29  L 25,29  L 25,27  L 26,27  L 26,26  L 27,26  L 27,25  L 29,25  Z  " style="fill:rgb(249, 255, 254); fill-opacity:1.000; stroke:none;" />
 <path d="  M 8,20  L 8,19  L 0,19  L 0,20  L 6,20  L 6,21  L 7,21  L 7,20  Z  " style="fill:rgb(35, 137, 199); fill-opacity:1.000; stroke:none;" />
 <path d="  M 3,25  L 3,24  L 2,24  L 2,25  Z  " style="fill:rgb(35, 137, 199); fill-opacity:1.000; stroke:none;" />
 <path d="  M 3,24  L 4,24  L 4,23  L 3,23  Z  " style="fill:rgb(35, 137, 199); fill-opacity:1.000; stroke:none;" />
 <path d="  M 4,22  L 4,23  L 5,23  L 5,22  Z  " style="fill:rgb(35, 137, 199); fill-opacity:1.000; stroke:none;" />
 <path d="  M 6,22  L 6,21  L 5,21  L 5,22  Z  " style="fill:rgb(35, 137, 199); fill-opacity:1.000; stroke:none;" />
 <path d="  M 8,19  L 9,19  L 9,18  L 8,18  Z  " style="fill:rgb(35, 137, 199); fill-opacity:1.000; stroke:none;" />
 <path d="  M 9,18  L 10,18  L 10,17  L 9,17  Z  " style="fill:rgb(35, 137, 199); fill-opacity:1.000; stroke:none;" />
 <path d="  M 11,17  L 11,16  L 10,16  L 10,17  Z  " style="fill:rgb(35, 137, 199); fill-opacity:1.000; stroke:none;" />
 <path d="  M 12,16  L 12,15  L 11,15  L 11,16  Z  " style="fill:rgb(35, 137, 199); fill-opacity:1.000; stroke:none;" />
 <path d="  M 12,18  L 11,18  L 11,19  L 12,19  Z  " style="fill:rgb(35, 137, 199); fill-opacity:1.000; stroke:none;" />
 <path d="  M 11,32  L 12,32  L 12,31  L 11,31  Z  " style="fill:rgb(35, 137, 199); fill-opacity:1.000; stroke:none;" />
 <path d="  M 13,15  L 13,14  L 12,14  L 12,15  Z  " style="fill:rgb(35, 137, 199); fill-opacity:1.000; stroke:none;" />
 <path d="  M 12,31  L 13,31  L 13,30  L 12,30  Z  " style="fill:rgb(35, 137, 199); fill-opacity:1.000; stroke:none;" />
 <path d="  M 14,14  L 14,13  L 13,13  L 13,14  Z  " style="fill:rgb(35, 137, 199); fill-opacity:1.000; stroke:none;" />
 <path d="  M 14,18  L 13,18  L 13,19  L 14,19  Z  " style="fill:rgb(35, 137, 199); fill-opacity:1.000; stroke:none;" />
 <path d="  M 13,29  L 13,30  L 14,30  L 14,29  Z  " style="fill:rgb(35, 137, 199); fill-opacity:1.000; stroke:none;" />
 <path d="  M 15,13  L 15,12  L 14,12  L 14,13  Z  " style="fill:rgb(35, 137, 199); fill-opacity:1.000; stroke:none;" />
 <path d="  M 14,28  L 14,29  L 15,29  L 15,28  Z  " style="fill:rgb(35, 137, 199); fill-opacity:1.000; stroke:none;" />
 <path d="  M 15,11  L 15,12  L 16,12  L 16,11  Z  " style="fill:rgb(35, 137, 199); fill-opacity:1.000; stroke:none;" />
 <path d="  M 16,27  L 15,27  L 15,28  L 16,28  Z  " style="fill:rgb(35, 137, 199); fill-opacity:1.000; stroke:none;" />
 <path d="  M 17,11  L 17,10  L 16,10  L 16,11  Z  " style="fill:rgb(35, 137, 199); fill-opacity:1.000; stroke:none;" />
 <path d="  M 16,26  L 16,27  L 17,27  L 17,26  Z  " style="fill:rgb(35, 137, 199); fill-opacity:1.000; stroke:none;" />
 <path d="  M 18,10  L 18,9  L 17,9  L 17,10  Z  " style="fill:rgb(35, 137, 199); fill-opacity:1.000; stroke:none;" />
 <path d="  M 17,18  L 18,18  L 18,17  L 17,17  Z  " style="fill:rgb(35, 137, 199); fill-opacity:1.000; stroke:none;" />
 <path d="  M 18,25  L 17,25  L 17,26  L 18,26  Z  " style="fill:rgb(35, 137, 199); fill-opacity:1.000; stroke:none;" />
 <path d="  M 19,12  L 19,11  L 18,11  L 18,12  Z  " style="fill:rgb(35, 137, 199); fill-opacity:1.000; stroke:none;" />
 <path d="  M 19,15  L 19,13  L 18,13  L 18,15  Z  " style="fill:rgb(35, 137, 199); fill-opacity:1.000; stroke:none;" />
 <path d="  M 20,25  L 20,24  L 18,24  L 18,25  Z  " style="fill:rgb(35, 137, 199); fill-opacity:1.000; stroke:none;" />
 <path d="  M 19,6  L 20,6  L 20,0  L 19,0  Z  " style="fill:rgb(35, 137, 199); fill-opacity:1.000; stroke:none;" />
 <path d="  M 21,7  L 21,6  L 20,6  L 20,7  Z  " style="fill:rgb(35, 137, 199); fill-opacity:1.000; stroke:none;" />
 <path d="  M 21,24  L 21,23  L 20,23  L 20,24  Z  " style="fill:rgb(35, 137, 199); fill-opacity:1.000; stroke:none;" />
 <path d="  M 22,5  L 21,5  L 21,6  L 22,6  Z  " style="fill:rgb(35, 137, 199); fill-opacity:1.000; stroke:none;" />
 <path d="  M 22,22  L 21,22  L 21,23  L 22,23  Z  " style="fill:rgb(35, 137, 199); fill-opacity:1.000; stroke:none;" />
 <path d="  M 22,5  L 23,5  L 23,4  L 22,4  Z  " style="fill:rgb(35, 137, 199); fill-opacity:1.000; stroke:none;" />
 <path d="  M 23,22  L 23,21  L 22,21  L 22,22  Z  " style="fill:rgb(35, 137, 199); fill-opacity:1.000; stroke:none;" />
 <path d="  M 24,4  L 24,3  L 23,3  L 23,4  Z  " style="fill:rgb(35, 137, 199); fill-opacity:1.000; stroke:none;" />
 <path d="  M 24,20  L 23,20  L 23,21  L 24,21  Z  " style="fill:rgb(35, 137, 199); fill-opacity:1.000; stroke:none;" />
 <path d="  M 25,31  L 25,30  L 23,30  L 23,31  Z  " style="fill:rgb(35, 137, 199); fill-opacity:1.000; stroke:none;" />
 <path d="  M 25,3  L 25,2  L 24,2  L 24,3  Z  " style="fill:rgb(35, 137, 199); fill-opacity:1.000; stroke:none;" />
 <path d="  M 24,18  L 24,20  L 25,20  L 25,18  Z  " style="fill:rgb(35, 137, 199); fill-opacity:1.000; stroke:none;" />
 <path d="  M 25,1  L 25,2  L 26,2  L 26,1  Z  " style="fill:rgb(35, 137, 199); fill-opacity:1.000; stroke:none;" />
 <path d="  M 26,18  L 26,17  L 25,17  L 25,18  Z  " style="fill:rgb(35, 137, 199); fill-opacity:1.000; stroke:none;" />
 <path d="  M 26,28  L 25,28  L 25,30  L 26,30  Z  " style="fill:rgb(35, 137, 199); fill-opacity:1.000; stroke:none;" />
 <path d="  M 26,17  L 27,17  L 27,16  L 26,16  Z  " style="fill:rgb(35, 137, 199); fill-opacity:1.000; stroke:none;" />
 <path d="  M 26,28  L 27,28  L 27,27  L 26,27  Z  " style="fill:rgb(35, 137, 199); fill-opacity:1.000; stroke:none;" />
 <path d="  M 27,15  L 27,16  L 28,16  L 28,15  Z  " style="fill:rgb(35, 137, 199); fill-opacity:1.000; stroke:none;" />
 <path d="  M 27,27  L 28,27  L 28,26  L 27,26  Z  " style="fill:rgb(35, 137, 199); fill-opacity:1.000; stroke:none;" />
 <path d="  M 28,14  L 28,15  L 29,15  L 29,14  Z  " style="fill:rgb(35, 137, 199); fill-opacity:1.000; stroke:none;" />
 <path d="  M 28,25  L 28,26  L 30,26  L 30,25  Z  " style="fill:rgb(35, 137, 199); fill-opacity:1.000; stroke:none;" />
 <path d="  M 29,13  L 29,14  L 30,14  L 30,13  Z  " style="fill:rgb(35, 137, 199); fill-opacity:1.000; stroke:none;" />
 <path d="  M 31,13  L 31,12  L 30,12  L 30,13  Z  " style="fill:rgb(35, 137, 199); fill-opacity:1.000; stroke:none;" />
 <path d="  M 31,23  L 30,23  L 30,25  L 31,25  Z  " style="fill:rgb(35, 137, 199); fill-opacity:1.000; stroke:none;" />
 <path d="  M 32,11  L 31,11  L 31,12  L 32,12  Z  " style="fill:rgb(35, 137, 199); fill-opacity:1.000; stroke:none;" />
 <path d="  M 2,25  L 2,24  L 3,24  L 3,23  L 4,23  L 4,22  L 5,22  L 5,21  L 6,21  L 6,20  L 0,20  L 0,26  L 1,26  L 1,25  Z  " style="fill:rgb(58, 179, 218); fill-opacity:1.000; stroke:none;" />
 <path d="  M 11,17  L 11,18  L 17,18  L 17,17  Z  " style="fill:rgb(58, 179, 218); fill-opacity:1.000; stroke:none;" />
 <path d="  M 23,31  L 23,30  L 22,30  L 22,29  L 21,29  L 21,28  L 20,28  L 20,27  L 19,27  L 19,25  L 18,25  L 18,26  L 17,26  L 17,27  L 16,27  L 16,28  L 15,28  L 15,29  L 14,29  L 14,30  L 13,30  L 13,31  Z  " style="fill:rgb(58, 179, 218); fill-opacity:1.000; stroke:none;" />
 <path d="  M 17,17  L 18,17  L 18,11  L 17,11  Z  " style="fill:rgb(58, 179, 218); fill-opacity:1.000; stroke:none;" />
 <path d="  M 20,6  L 21,6  L 21,5  L 22,5  L 22,4  L 23,4  L 23,3  L 24,3  L 24,2  L 25,2  L 25,1  L 26,1  L 26,0  L 20,0  Z  " style="fill:rgb(58, 179, 218); fill-opacity:1.000; stroke:none;" />
 <path d="  M 27,16  L 27,17  L 26,17  L 26,18  L 25,18  L 25,19  L 27,19  L 27,20  L 28,20  L 28,21  L 29,21  L 29,22  L 30,22  L 30,23  L 31,23  L 31,13  L 30,13  L 30,14  L 29,14  L 29,15  L 28,15  L 28,16  Z  " style="fill:rgb(58, 179, 218); fill-opacity:1.000; stroke:none;" />
 <path d="  M 27,27  L 27,28  L 26,28  L 26,30  L 25,30  L 25,31  L 27,31  L 27,30  L 28,30  L 28,29  L 29,29  L 29,28  L 30,28  L 30,27  L 31,27  L 31,25  L 30,25  L 30,26  L 28,26  L 28,27  Z  " style="fill:rgb(58, 179, 218); fill-opacity:1.000; stroke:none;" />
 <path d="  M 0,27  L 1,27  L 1,26  L 0,26  Z  " style="fill:rgb(69, 119, 211); fill-opacity:1.000; stroke:none;" />
 <path d="  M 2,25  L 1,25  L 1,26  L 2,26  Z  " style="fill:rgb(69, 119, 211); fill-opacity:1.000; stroke:none;" />
 <path d="  M 11,18  L 9,18  L 9,19  L 11,19  Z  " style="fill:rgb(69, 119, 211); fill-opacity:1.000; stroke:none;" />
 <path d="  M 12,18  L 12,19  L 13,19  L 13,18  Z  " style="fill:rgb(69, 119, 211); fill-opacity:1.000; stroke:none;" />
 <path d="  M 14,18  L 14,19  L 19,19  L 19,15  L 18,15  L 18,18  Z  " style="fill:rgb(69, 119, 211); fill-opacity:1.000; stroke:none;" />
 <path d="  M 19,8  L 18,8  L 18,11  L 19,11  Z  " style="fill:rgb(69, 119, 211); fill-opacity:1.000; stroke:none;" />
 <path d="  M 18,13  L 19,13  L 19,12  L 18,12  Z  " style="fill:rgb(69, 119, 211); fill-opacity:1.000; stroke:none;" />
 <path d="  M 19,6  L 19,8  L 20,8  L 20,6  Z  " style="fill:rgb(69, 119, 211); fill-opacity:1.000; stroke:none;" />
 <path d="  M 19,25  L 19,27  L 20,27  L 20,25  Z  " style="fill:rgb(69, 119, 211); fill-opacity:1.000; stroke:none;" />
 <path d="  M 20,24  L 20,25  L 21,25  L 21,24  Z  " style="fill:rgb(69, 119, 211); fill-opacity:1.000; stroke:none;" />
 <path d="  M 21,27  L 20,27  L 20,28  L 21,28  Z  " style="fill:rgb(69, 119, 211); fill-opacity:1.000; stroke:none;" />
 <path d="  M 22,23  L 21,23  L 21,24  L 22,24  Z  " style="fill:rgb(69, 119, 211); fill-opacity:1.000; stroke:none;" />
 <path d="  M 21,28  L 21,29  L 22,29  L 22,28  Z  " style="fill:rgb(69, 119, 211); fill-opacity:1.000; stroke:none;" />
 <path d="  M 23,23  L 23,22  L 22,22  L 22,23  Z  " style="fill:rgb(69, 119, 211); fill-opacity:1.000; stroke:none;" />
 <path d="  M 23,30  L 23,29  L 22,29  L 22,30  Z  " style="fill:rgb(69, 119, 211); fill-opacity:1.000; stroke:none;" />
 <path d="  M 24,21  L 23,21  L 23,22  L 24,22  Z  " style="fill:rgb(69, 119, 211); fill-opacity:1.000; stroke:none;" />
 <path d="  M 25,21  L 25,20  L 24,20  L 24,21  Z  " style="fill:rgb(69, 119, 211); fill-opacity:1.000; stroke:none;" />
 <path d="  M 27,20  L 27,19  L 25,19  L 25,20  Z  " style="fill:rgb(69, 119, 211); fill-opacity:1.000; stroke:none;" />
 <path d="  M 26,1  L 27,1  L 27,0  L 26,0  Z  " style="fill:rgb(69, 119, 211); fill-opacity:1.000; stroke:none;" />
 <path d="  M 28,20  L 27,20  L 27,21  L 28,21  Z  " style="fill:rgb(69, 119, 211); fill-opacity:1.000; stroke:none;" />
 <path d="  M 28,21  L 28,22  L 29,22  L 29,21  Z  " style="fill:rgb(69, 119, 211); fill-opacity:1.000; stroke:none;" />
 <path d="  M 29,22  L 29,23  L 30,23  L 30,22  Z  " style="fill:rgb(69, 119, 211); fill-opacity:1.000; stroke:none;" />
 <path d="  M 2,30  L 2,31  L 3,31  L 3,30  Z  " style="fill:rgb(244, 244, 242); fill-opacity:1.000; stroke:none;" />
 <path d="  M 4,14  L 5,14  L 5,12  L 4,12  Z  " style="fill:rgb(244, 244, 242); fill-opacity:1.000; stroke:none;" />
 <path d="  M 4,28  L 4,29  L 5,29  L 5,28  Z  " style="fill:rgb(244, 244, 242); fill-opacity:1.000; stroke:none;" />
 <path d="  M 6,15  L 6,14  L 5,14  L 5,15  Z  " style="fill:rgb(244, 244, 242); fill-opacity:1.000; stroke:none;" />
 <path d="  M 6,16  L 7,16  L 7,15  L 6,15  Z  " style="fill:rgb(244, 244, 242); fill-opacity:1.000; stroke:none;" />
 <path d="  M 7,26  L 6,26  L 6,27  L 7,27  Z  " style="fill:rgb(244, 244, 242); fill-opacity:1.000; stroke:none;" />
 <path d="  M 7,8  L 7,9  L 8,9  L 8,8  Z  " style="fill:rgb(244, 244, 242); fill-opacity:1.000; stroke:none;" />
 <path d="  M 9,9  L 8,9  L 8,11  L 9,11  Z  " style="fill:rgb(244, 244, 242); fill-opacity:1.000; stroke:none;" />
 <path d="  M 8,17  L 8,18  L 9,18  L 9,17  Z  " style="fill:rgb(244, 244, 242); fill-opacity:1.000; stroke:none;" />
 <path d="  M 8,24  L 8,25  L 9,25  L 9,24  Z  " style="fill:rgb(244, 244, 242); fill-opacity:1.000; stroke:none;" />
 <path d="  M 9,16  L 9,17  L 10,17  L 10,16  Z  " style="fill:rgb(244, 244, 242); fill-opacity:1.000; stroke:none;" />
 <path d="  M 10,31  L 10,32  L 11,32  L 11,31  Z  " style="fill:rgb(244, 244, 242); fill-opacity:1.000; stroke:none;" />
 <path d="  M 12,31  L 12,30  L 11,30  L 11,31  Z  " style="fill:rgb(244, 244, 242); fill-opacity:1.000; stroke:none;" />
 <path d="  M 12,4  L 12,5  L 14,5  L 14,4  Z  " style="fill:rgb(244, 244, 242); fill-opacity:1.000; stroke:none;" />
 <path d="  M 13,29  L 12,29  L 12,30  L 13,30  Z  " style="fill:rgb(244, 244, 242); fill-opacity:1.000; stroke:none;" />
 <path d="  M 13,29  L 14,29  L 14,28  L 13,28  Z  " style="fill:rgb(244, 244, 242); fill-opacity:1.000; stroke:none;" />
 <path d="  M 14,6  L 15,6  L 15,5  L 14,5  Z  " style="fill:rgb(244, 244, 242); fill-opacity:1.000; stroke:none;" />
 <path d="  M 15,7  L 16,7  L 16,6  L 15,6  Z  " style="fill:rgb(244, 244, 242); fill-opacity:1.000; stroke:none;" />
 <path d="  M 16,10  L 17,10  L 17,9  L 16,9  Z  " style="fill:rgb(244, 244, 242); fill-opacity:1.000; stroke:none;" />
 <path d="  M 17,8  L 17,9  L 18,9  L 18,8  Z  " style="fill:rgb(244, 244, 242); fill-opacity:1.000; stroke:none;" />
 <path d="  M 21,25  L 20,25  L 20,27  L 21,27  Z  " style="fill:rgb(244, 244, 242); fill-opacity:1.000; stroke:none;" />
 <path d="  M 22,24  L 21,24  L 21,25  L 22,25  Z  " style="fill:rgb(244, 244, 242); fill-opacity:1.000; stroke:none;" />
 <path d="  M 22,27  L 21,27  L 21,28  L 22,28  Z  " style="fill:rgb(244, 244, 242); fill-opacity:1.000; stroke:none;" />
 <path d="  M 22,24  L 23,24  L 23,23  L 22,23  Z  " style="fill:rgb(244, 244, 242); fill-opacity:1.000; stroke:none;" />
 <path d="  M 23,4  L 23,5  L 24,5  L 24,4  Z  " style="fill:rgb(244, 244, 242); fill-opacity:1.000; stroke:none;" />
 <path d="  M 23,22  L 23,23  L 24,23  L 24,22  Z  " style="fill:rgb(244, 244, 242); fill-opacity:1.000; stroke:none;" />
 <path d="  M 24,3  L 24,4  L 25,4  L 25,3  Z  " style="fill:rgb(244, 244, 242); fill-opacity:1.000; stroke:none;" />
 <path d="  M 25,8  L 24,8  L 24,9  L 25,9  Z  " style="fill:rgb(244, 244, 242); fill-opacity:1.000; stroke:none;" />
 <path d="  M 24,21  L 24,22  L 25,22  L 25,21  Z  " style="fill:rgb(244, 244, 242); fill-opacity:1.000; stroke:none;" />
 <path d="  M 25,2  L 25,3  L 26,3  L 26,2  Z  " style="fill:rgb(244, 244, 242); fill-opacity:1.000; stroke:none;" />
 <path d="  M 25,20  L 25,21  L 27,21  L 27,20  Z  " style="fill:rgb(244, 244, 242); fill-opacity:1.000; stroke:none;" />
 <path d="  M 25,27  L 25,28  L 26,28  L 26,27  Z  " style="fill:rgb(244, 244, 242); fill-opacity:1.000; stroke:none;" />
 <path d="  M 27,1  L 26,1  L 26,2  L 27,2  Z  " style="fill:rgb(244, 244, 242); fill-opacity:1.000; stroke:none;" />
 <path d="  M 26,6  L 26,7  L 27,7  L 27,6  Z  " style="fill:rgb(244, 244, 242); fill-opacity:1.000; stroke:none;" />
 <path d="  M 27,27  L 27,26  L 26,26  L 26,27  Z  " style="fill:rgb(244, 244, 242); fill-opacity:1.000; stroke:none;" />
 <path d="  M 27,22  L 28,22  L 28,21  L 27,21  Z  " style="fill:rgb(244, 244, 242); fill-opacity:1.000; stroke:none;" />
 <path d="  M 27,26  L 28,26  L 28,25  L 27,25  Z  " style="fill:rgb(244, 244, 242); fill-opacity:1.000; stroke:none;" />
 <path d="  M 28,5  L 29,5  L 29,4  L 28,4  Z  " style="fill:rgb(244, 244, 242); fill-opacity:1.000; stroke:none;" />
 <path d="  M 28,14  L 29,14  L 29,13  L 28,13  Z  " style="fill:rgb(244, 244, 242); fill-opacity:1.000; stroke:none;" />
 <path d="  M 30,12  L 29,12  L 29,13  L 30,13  Z  " style="fill:rgb(244, 244, 242); fill-opacity:1.000; stroke:none;" />
 <path d="  M 31,3  L 31,2  L 30,2  L 30,3  Z  " style="fill:rgb(244, 244, 242); fill-opacity:1.000; stroke:none;" />
 <path d="  M 30,11  L 30,12  L 31,12  L 31,11  Z  " style="fill:rgb(244, 244, 242); fill-opacity:1.000; stroke:none;" />
 <path d="  M 31,11  L 32,11  L 32,10  L 31,10  Z  " style="fill:rgb(244, 244, 242); fill-opacity:1.000; stroke:none;" />
 <path d="  M 3,3  L 3,4  L 4,4  L 4,3  Z  " style="fill:rgb(254, 220, 86); fill-opacity:1.000; stroke:none;" />
 <path d="  M 4,12  L 5,12  L 5,14  L 6,14  L 6,15  L 7,15  L 7,16  L 8,16  L 8,15  L 9,15  L 9,11  L 8,11  L 8,9  L 7,9  L 7,8  L 5,8  L 5,9  L 4,9  Z  " style="fill:rgb(254, 220, 86); fill-opacity:1.000; stroke:none;" />
 <path d="  M 15,9  L 15,8  L 16,8  L 16,7  L 15,7  L 15,6  L 14,6  L 14,5  L 12,5  L 12,4  L 9,4  L 9,5  L 8,5  L 8,7  L 9,7  L 9,8  L 11,8  L 11,9  Z  " style="fill:rgb(254, 220, 86); fill-opacity:1.000; stroke:none;" />
 <path d="  M 5,23  L 6,23  L 6,22  L 5,22  Z  " style="fill:rgb(208, 214, 215); fill-opacity:1.000; stroke:none;" />
 <path d="  M 6,21  L 6,22  L 7,22  L 7,21  Z  " style="fill:rgb(208, 214, 215); fill-opacity:1.000; stroke:none;" />
 <path d="  M 7,19  L 8,19  L 8,18  L 7,18  Z  " style="fill:rgb(208, 214, 215); fill-opacity:1.000; stroke:none;" />
 <path d="  M 8,20  L 7,20  L 7,21  L 8,21  Z  " style="fill:rgb(208, 214, 215); fill-opacity:1.000; stroke:none;" />
 <path d="  M 8,19  L 8,20  L 9,20  L 9,19  Z  " style="fill:rgb(208, 214, 215); fill-opacity:1.000; stroke:none;" />
 <path d="  M 10,15  L 10,16  L 11,16  L 11,15  Z  " style="fill:rgb(208, 214, 215); fill-opacity:1.000; stroke:none;" />
 <path d="  M 11,14  L 11,15  L 12,15  L 12,14  Z  " style="fill:rgb(208, 214, 215); fill-opacity:1.000; stroke:none;" />
 <path d="  M 12,13  L 12,14  L 13,14  L 13,13  Z  " style="fill:rgb(208, 214, 215); fill-opacity:1.000; stroke:none;" />
 <path d="  M 13,12  L 13,13  L 14,13  L 14,12  Z  " style="fill:rgb(208, 214, 215); fill-opacity:1.000; stroke:none;" />
 <path d="  M 15,11  L 14,11  L 14,12  L 15,12  Z  " style="fill:rgb(208, 214, 215); fill-opacity:1.000; stroke:none;" />
 <path d="  M 15,27  L 14,27  L 14,28  L 15,28  Z  " style="fill:rgb(208, 214, 215); fill-opacity:1.000; stroke:none;" />
 <path d="  M 15,11  L 16,11  L 16,10  L 15,10  Z  " style="fill:rgb(208, 214, 215); fill-opacity:1.000; stroke:none;" />
 <path d="  M 16,27  L 16,26  L 15,26  L 15,27  Z  " style="fill:rgb(208, 214, 215); fill-opacity:1.000; stroke:none;" />
 <path d="  M 18,7  L 18,8  L 19,8  L 19,7  Z  " style="fill:rgb(208, 214, 215); fill-opacity:1.000; stroke:none;" />
 <path d="  M 19,8  L 19,9  L 20,9  L 20,8  Z  " style="fill:rgb(208, 214, 215); fill-opacity:1.000; stroke:none;" />
 <path d="  M 21,7  L 20,7  L 20,8  L 21,8  Z  " style="fill:rgb(208, 214, 215); fill-opacity:1.000; stroke:none;" />
 <path d="  M 22,6  L 21,6  L 21,7  L 22,7  Z  " style="fill:rgb(208, 214, 215); fill-opacity:1.000; stroke:none;" />
 <path d="  M 22,5  L 22,6  L 23,6  L 23,5  Z  " style="fill:rgb(208, 214, 215); fill-opacity:1.000; stroke:none;" />
 <path d="  M 23,29  L 23,28  L 22,28  L 22,29  Z  " style="fill:rgb(208, 214, 215); fill-opacity:1.000; stroke:none;" />
 <path d="  M 23,29  L 23,30  L 25,30  L 25,29  Z  " style="fill:rgb(208, 214, 215); fill-opacity:1.000; stroke:none;" />
 <path d="  M 27,15  L 26,15  L 26,16  L 27,16  Z  " style="fill:rgb(208, 214, 215); fill-opacity:1.000; stroke:none;" />
 <path d="  M 27,15  L 28,15  L 28,14  L 27,14  Z  " style="fill:rgb(208, 214, 215); fill-opacity:1.000; stroke:none;" />
 <path d="  M 29,23  L 29,22  L 28,22  L 28,23  Z  " style="fill:rgb(208, 214, 215); fill-opacity:1.000; stroke:none;" />
 <path d="  M 30,23  L 29,23  L 29,25  L 30,25  Z  " style="fill:rgb(208, 214, 215); fill-opacity:1.000; stroke:none;" />
 <path d="  M 10,17  L 10,18  L 11,18  L 11,17  Z  " style="fill:rgb(80, 187, 222); fill-opacity:1.000; stroke:none;" />
 <path d="  M 12,17  L 12,16  L 11,16  L 11,17  Z  " style="fill:rgb(80, 187, 222); fill-opacity:1.000; stroke:none;" />
 <path d="  M 12,16  L 13,16  L 13,15  L 12,15  Z  " style="fill:rgb(80, 187, 222); fill-opacity:1.000; stroke:none;" />
 <path d="  M 13,15  L 14,15  L 14,14  L 13,14  Z  " style="fill:rgb(80, 187, 222); fill-opacity:1.000; stroke:none;" />
 <path d="  M 14,14  L 15,14  L 15,13  L 14,13  Z  " style="fill:rgb(80, 187, 222); fill-opacity:1.000; stroke:none;" />
 <path d="  M 15,12  L 15,13  L 16,13  L 16,12  Z  " style="fill:rgb(80, 187, 222); fill-opacity:1.000; stroke:none;" />
 <path d="  M 17,11  L 16,11  L 16,12  L 17,12  Z  " style="fill:rgb(80, 187, 222); fill-opacity:1.000; stroke:none;" />
 <path d="  M 17,11  L 18,11  L 18,10  L 17,10  Z  " style="fill:rgb(80, 187, 222); fill-opacity:1.000; stroke:none;" />
 <path d="  M 20,31  L 20,32  L 22,32  L 22,31  Z  " style="fill:rgb(80, 187, 222); fill-opacity:1.000; stroke:none;" />
 <path d="  M 30,27  L 30,28  L 31,28  L 31,27  Z  " style="fill:rgb(80, 187, 222); fill-opacity:1.000; stroke:none;" />
 <path d="  M 31,27  L 32,27  L 32,25  L 31,25  Z  " style="fill:rgb(80, 187, 222); fill-opacity:1.000; stroke:none;" />
 <path d="  M 16,13  L 15,13  L 15,14  L 14,14  L 14,15  L 13,15  L 13,16  L 12,16  L 12,17  L 17,17  L 17,12  L 16,12  Z  " style="fill:rgb(74, 185, 221); fill-opacity:1.000; stroke:none;" />
 <path d="  M 20,32  L 20,31  L 12,31  L 12,32  Z  " style="fill:rgb(74, 185, 221); fill-opacity:1.000; stroke:none;" />
 <path d="  M 27,31  L 22,31  L 22,32  L 27,32  Z  " style="fill:rgb(74, 185, 221); fill-opacity:1.000; stroke:none;" />
 <path d="  M 27,31  L 28,31  L 28,30  L 27,30  Z  " style="fill:rgb(74, 185, 221); fill-opacity:1.000; stroke:none;" />
 <path d="  M 28,29  L 28,30  L 29,30  L 29,29  Z  " style="fill:rgb(74, 185, 221); fill-opacity:1.000; stroke:none;" />
 <path d="  M 29,28  L 29,29  L 30,29  L 30,28  Z  " style="fill:rgb(74, 185, 221); fill-opacity:1.000; stroke:none;" />
 <path d="  M 31,25  L 32,25  L 32,12  L 31,12  Z  " style="fill:rgb(74, 185, 221); fill-opacity:1.000; stroke:none;" />
 <path d="  M 27,32  L 28,32  L 28,31  L 27,31  Z  " style="fill:rgb(242, 240, 228); fill-opacity:1.000; stroke:none;" />
 <path d="  M 29,31  L 29,30  L 28,30  L 28,31  Z  " style="fill:rgb(242, 240, 228); fill-opacity:1.000; stroke:none;" />
 <path d="  M 29,30  L 30,30  L 30,29  L 29,29  Z  " style="fill:rgb(242, 240, 228); fill-opacity:1.000; stroke:none;" />
 <path d="  M 31,28  L 32,28  L 32,27  L 31,27  Z  " style="fill:rgb(242, 240, 228); fill-opacity:1.000; stroke:none;" />
 <path d="  M 30,28  L 30,29  L 31,29  L 31,28  Z  " style="fill:rgb(248, 243, 229); fill-opacity:1.000; stroke:none;" />
</svg>
