<?xml version="1.0" encoding="UTF-8" standalone="no"?>
<!DOCTYPE svg PUBLIC "-//W3C//DTD SVG 1.1//EN" 
  "http://www.w3.org/Graphics/SVG/1.1/DTD/svg11.dtd">
<svg width="64" height="64"
	 xmlns="http://www.w3.org/2000/svg" version="1.1">
 <path d="  M 15,8  L 14,8  L 14,16  L 15,16  Z  " style="fill:rgb(130, 75, 48); fill-opacity:1.000; stroke:none;" />
 <path d="  M 15,20  L 14,20  L 14,48  L 15,48  Z  " style="fill:rgb(130, 75, 48); fill-opacity:1.000; stroke:none;" />
 <path d="  M 40,61  L 40,36  L 39,36  L 39,61  L 32,61  L 32,36  L 31,36  L 31,61  L 24,61  L 24,36  L 23,36  L 23,61  L 15,61  L 15,52  L 14,52  L 14,62  L 52,62  L 52,61  Z  " style="fill:rgb(130, 75, 48); fill-opacity:1.000; stroke:none;" />
 <path d="  M 24,11  L 23,11  L 23,32  L 24,32  Z  " style="fill:rgb(130, 75, 48); fill-opacity:1.000; stroke:none;" />
 <path d="  M 24,10  L 24,11  L 28,11  L 28,10  Z  " style="fill:rgb(130, 75, 48); fill-opacity:1.000; stroke:none;" />
 <path d="  M 28,35  L 24,35  L 24,36  L 28,36  Z  " style="fill:rgb(130, 75, 48); fill-opacity:1.000; stroke:none;" />
 <path d="  M 31,32  L 32,32  L 32,11  L 31,11  Z  " style="fill:rgb(130, 75, 48); fill-opacity:1.000; stroke:none;" />
 <path d="  M 32,10  L 32,11  L 36,11  L 36,10  Z  " style="fill:rgb(130, 75, 48); fill-opacity:1.000; stroke:none;" />
 <path d="  M 32,36  L 36,36  L 36,35  L 32,35  Z  " style="fill:rgb(130, 75, 48); fill-opacity:1.000; stroke:none;" />
 <path d="  M 39,32  L 40,32  L 40,11  L 39,11  Z  " style="fill:rgb(130, 75, 48); fill-opacity:1.000; stroke:none;" />
 <path d="  M 40,10  L 40,11  L 44,11  L 44,10  Z  " style="fill:rgb(130, 75, 48); fill-opacity:1.000; stroke:none;" />
 <path d="  M 45,36  L 45,37  L 46,37  L 46,38  L 48,38  L 48,37  L 47,37  L 47,36  L 46,36  L 46,35  L 44,35  L 44,34  L 40,34  L 40,35  L 41,35  L 41,36  Z  " style="fill:rgb(130, 75, 48); fill-opacity:1.000; stroke:none;" />
 <path d="  M 14,16  L 14,20  L 15,20  L 15,16  Z  " style="fill:rgb(45, 26, 16); fill-opacity:1.000; stroke:none;" />
 <path d="  M 14,52  L 15,52  L 15,48  L 14,48  Z  " style="fill:rgb(45, 26, 16); fill-opacity:1.000; stroke:none;" />
 <path d="  M 15,8  L 15,61  L 23,61  L 23,36  L 24,36  L 24,35  L 28,35  L 28,61  L 31,61  L 31,36  L 32,36  L 32,35  L 36,35  L 36,61  L 39,61  L 39,36  L 41,36  L 41,35  L 40,35  L 40,33  L 41,33  L 41,32  L 39,32  L 39,11  L 40,11  L 40,10  L 44,10  L 44,32  L 46,32  L 46,33  L 47,33  L 47,34  L 48,34  L 48,38  L 46,38  L 46,37  L 45,37  L 45,36  L 44,36  L 44,61  L 52,61  L 52,8  Z  M 31,11  L 32,11  L 32,10  L 36,10  L 36,32  L 31,32  Z  M 23,11  L 24,11  L 24,10  L 28,10  L 28,32  L 23,32  Z  " style="fill:rgb(177, 102, 64); fill-opacity:1.000; stroke:none;" />
 <path d="  M 47,36  L 47,37  L 48,37  L 48,34  L 47,34  L 47,33  L 46,33  L 46,32  L 41,32  L 41,33  L 40,33  L 40,34  L 44,34  L 44,35  L 46,35  L 46,36  Z  " style="fill:rgb(168, 168, 168); fill-opacity:1.000; stroke:none;" />
</svg>
