<?xml version="1.0" encoding="UTF-8" standalone="no"?>
<!DOCTYPE svg PUBLIC "-//W3C//DTD SVG 1.1//EN" 
  "http://www.w3.org/Graphics/SVG/1.1/DTD/svg11.dtd">
<svg width="64" height="64"
	 xmlns="http://www.w3.org/2000/svg" version="1.1">
 <path d="  M 14,48  L 15,48  L 15,42  L 14,42  Z  " style="fill:rgb(113, 22, 13); fill-opacity:1.000; stroke:none;" />
 <path d="  M 16,38  L 15,38  L 15,42  L 16,42  Z  " style="fill:rgb(113, 22, 13); fill-opacity:1.000; stroke:none;" />
 <path d="  M 16,38  L 17,38  L 17,34  L 16,34  Z  " style="fill:rgb(113, 22, 13); fill-opacity:1.000; stroke:none;" />
 <path d="  M 18,30  L 17,30  L 17,34  L 18,34  Z  " style="fill:rgb(113, 22, 13); fill-opacity:1.000; stroke:none;" />
 <path d="  M 19,30  L 19,27  L 18,27  L 18,30  Z  " style="fill:rgb(113, 22, 13); fill-opacity:1.000; stroke:none;" />
 <path d="  M 19,27  L 20,27  L 20,24  L 19,24  Z  " style="fill:rgb(113, 22, 13); fill-opacity:1.000; stroke:none;" />
 <path d="  M 21,24  L 21,23  L 20,23  L 20,24  Z  " style="fill:rgb(113, 22, 13); fill-opacity:1.000; stroke:none;" />
 <path d="  M 22,22  L 21,22  L 21,23  L 22,23  Z  " style="fill:rgb(113, 22, 13); fill-opacity:1.000; stroke:none;" />
 <path d="  M 23,22  L 23,21  L 22,21  L 22,22  Z  " style="fill:rgb(113, 22, 13); fill-opacity:1.000; stroke:none;" />
 <path d="  M 24,20  L 23,20  L 23,21  L 24,21  Z  " style="fill:rgb(113, 22, 13); fill-opacity:1.000; stroke:none;" />
 <path d="  M 24,19  L 24,20  L 26,20  L 26,19  Z  " style="fill:rgb(113, 22, 13); fill-opacity:1.000; stroke:none;" />
 <path d="  M 32,19  L 32,18  L 26,18  L 26,19  Z  " style="fill:rgb(113, 22, 13); fill-opacity:1.000; stroke:none;" />
 <path d="  M 32,19  L 32,20  L 34,20  L 34,19  Z  " style="fill:rgb(113, 22, 13); fill-opacity:1.000; stroke:none;" />
 <path d="  M 34,20  L 34,21  L 36,21  L 36,20  Z  " style="fill:rgb(113, 22, 13); fill-opacity:1.000; stroke:none;" />
 <path d="  M 39,13  L 40,13  L 40,12  L 42,12  L 42,11  L 41,11  L 41,10  L 39,10  L 39,9  L 36,9  L 36,10  L 37,10  L 37,11  L 38,11  L 38,13  L 37,13  L 37,14  L 38,14  L 38,15  L 39,15  Z  M 39,11  L 40,11  L 40,12  L 39,12  Z  " style="fill:rgb(113, 22, 13); fill-opacity:1.000; stroke:none;" />
 <path d="  M 40,22  L 40,21  L 41,21  L 41,19  L 40,19  L 40,20  L 39,20  L 39,21  L 36,21  L 36,22  Z  " style="fill:rgb(113, 22, 13); fill-opacity:1.000; stroke:none;" />
 <path d="  M 40,15  L 39,15  L 39,16  L 40,16  Z  " style="fill:rgb(113, 22, 13); fill-opacity:1.000; stroke:none;" />
 <path d="  M 41,16  L 40,16  L 40,17  L 41,17  Z  " style="fill:rgb(113, 22, 13); fill-opacity:1.000; stroke:none;" />
 <path d="  M 41,23  L 40,23  L 40,24  L 41,24  Z  " style="fill:rgb(113, 22, 13); fill-opacity:1.000; stroke:none;" />
 <path d="  M 42,19  L 42,17  L 41,17  L 41,19  Z  " style="fill:rgb(113, 22, 13); fill-opacity:1.000; stroke:none;" />
 <path d="  M 42,23  L 42,22  L 41,22  L 41,23  Z  " style="fill:rgb(113, 22, 13); fill-opacity:1.000; stroke:none;" />
 <path d="  M 44,12  L 42,12  L 42,13  L 43,13  L 43,14  L 44,14  Z  " style="fill:rgb(113, 22, 13); fill-opacity:1.000; stroke:none;" />
 <path d="  M 44,22  L 44,21  L 42,21  L 42,22  Z  " style="fill:rgb(113, 22, 13); fill-opacity:1.000; stroke:none;" />
 <path d="  M 45,14  L 44,14  L 44,15  L 45,15  Z  " style="fill:rgb(113, 22, 13); fill-opacity:1.000; stroke:none;" />
 <path d="  M 44,21  L 45,21  L 45,20  L 46,20  L 46,19  L 47,19  L 47,18  L 48,18  L 48,17  L 47,17  L 47,16  L 46,16  L 46,18  L 45,18  L 45,19  L 44,19  Z  " style="fill:rgb(113, 22, 13); fill-opacity:1.000; stroke:none;" />
 <path d="  M 46,15  L 45,15  L 45,16  L 46,16  Z  " style="fill:rgb(113, 22, 13); fill-opacity:1.000; stroke:none;" />
 <path d="  M 45,22  L 45,23  L 46,23  L 46,22  Z  " style="fill:rgb(113, 22, 13); fill-opacity:1.000; stroke:none;" />
 <path d="  M 48,21  L 48,19  L 47,19  L 47,20  L 46,20  L 46,22  L 47,22  L 47,21  Z  " style="fill:rgb(113, 22, 13); fill-opacity:1.000; stroke:none;" />
 <path d="  M 50,23  L 49,23  L 49,21  L 48,21  L 48,22  L 47,22  L 47,23  L 48,23  L 48,24  L 52,24  L 52,23  L 51,23  L 51,22  L 50,22  Z  " style="fill:rgb(113, 22, 13); fill-opacity:1.000; stroke:none;" />
 <path d="  M 14,50  L 15,50  L 15,48  L 14,48  Z  " style="fill:rgb(91, 29, 23); fill-opacity:1.000; stroke:none;" />
 <path d="  M 16,50  L 15,50  L 15,52  L 16,52  Z  " style="fill:rgb(91, 29, 23); fill-opacity:1.000; stroke:none;" />
 <path d="  M 17,53  L 17,52  L 16,52  L 16,53  Z  " style="fill:rgb(91, 29, 23); fill-opacity:1.000; stroke:none;" />
 <path d="  M 18,53  L 17,53  L 17,54  L 18,54  Z  " style="fill:rgb(91, 29, 23); fill-opacity:1.000; stroke:none;" />
 <path d="  M 18,54  L 18,55  L 20,55  L 20,56  L 23,56  L 23,55  L 24,55  L 24,54  L 22,54  L 22,55  L 21,55  L 21,54  Z  " style="fill:rgb(91, 29, 23); fill-opacity:1.000; stroke:none;" />
 <path d="  M 19,50  L 19,52  L 20,52  L 20,50  Z  " style="fill:rgb(91, 29, 23); fill-opacity:1.000; stroke:none;" />
 <path d="  M 21,49  L 20,49  L 20,50  L 21,50  Z  " style="fill:rgb(91, 29, 23); fill-opacity:1.000; stroke:none;" />
 <path d="  M 20,52  L 20,53  L 21,53  L 21,52  Z  " style="fill:rgb(91, 29, 23); fill-opacity:1.000; stroke:none;" />
 <path d="  M 21,49  L 23,49  L 23,48  L 21,48  Z  " style="fill:rgb(91, 29, 23); fill-opacity:1.000; stroke:none;" />
 <path d="  M 21,53  L 21,54  L 22,54  L 22,53  Z  " style="fill:rgb(91, 29, 23); fill-opacity:1.000; stroke:none;" />
 <path d="  M 23,47  L 23,48  L 25,48  L 25,47  Z  " style="fill:rgb(91, 29, 23); fill-opacity:1.000; stroke:none;" />
 <path d="  M 25,54  L 25,53  L 24,53  L 24,54  Z  " style="fill:rgb(91, 29, 23); fill-opacity:1.000; stroke:none;" />
 <path d="  M 28,47  L 28,46  L 25,46  L 25,47  Z  " style="fill:rgb(91, 29, 23); fill-opacity:1.000; stroke:none;" />
 <path d="  M 33,46  L 33,45  L 28,45  L 28,46  Z  " style="fill:rgb(91, 29, 23); fill-opacity:1.000; stroke:none;" />
 <path d="  M 38,45  L 38,44  L 33,44  L 33,45  Z  " style="fill:rgb(91, 29, 23); fill-opacity:1.000; stroke:none;" />
 <path d="  M 40,43  L 38,43  L 38,44  L 40,44  Z  " style="fill:rgb(91, 29, 23); fill-opacity:1.000; stroke:none;" />
 <path d="  M 40,24  L 40,25  L 41,25  L 41,24  Z  " style="fill:rgb(91, 29, 23); fill-opacity:1.000; stroke:none;" />
 <path d="  M 40,42  L 40,43  L 42,43  L 42,42  Z  " style="fill:rgb(91, 29, 23); fill-opacity:1.000; stroke:none;" />
 <path d="  M 41,10  L 41,11  L 42,11  L 42,10  Z  " style="fill:rgb(91, 29, 23); fill-opacity:1.000; stroke:none;" />
 <path d="  M 42,23  L 41,23  L 41,24  L 42,24  Z  " style="fill:rgb(91, 29, 23); fill-opacity:1.000; stroke:none;" />
 <path d="  M 42,26  L 42,25  L 41,25  L 41,26  Z  " style="fill:rgb(91, 29, 23); fill-opacity:1.000; stroke:none;" />
 <path d="  M 43,11  L 42,11  L 42,12  L 43,12  Z  " style="fill:rgb(91, 29, 23); fill-opacity:1.000; stroke:none;" />
 <path d="  M 44,22  L 42,22  L 42,23  L 44,23  Z  " style="fill:rgb(91, 29, 23); fill-opacity:1.000; stroke:none;" />
 <path d="  M 42,28  L 43,28  L 43,26  L 42,26  Z  " style="fill:rgb(91, 29, 23); fill-opacity:1.000; stroke:none;" />
 <path d="  M 43,41  L 42,41  L 42,42  L 43,42  Z  " style="fill:rgb(91, 29, 23); fill-opacity:1.000; stroke:none;" />
 <path d="  M 43,20  L 43,21  L 44,21  L 44,20  Z  " style="fill:rgb(91, 29, 23); fill-opacity:1.000; stroke:none;" />
 <path d="  M 43,28  L 43,30  L 44,30  L 44,28  Z  " style="fill:rgb(91, 29, 23); fill-opacity:1.000; stroke:none;" />
 <path d="  M 43,40  L 43,41  L 44,41  L 44,40  Z  " style="fill:rgb(91, 29, 23); fill-opacity:1.000; stroke:none;" />
 <path d="  M 46,20  L 45,20  L 45,21  L 44,21  L 44,22  L 46,22  Z  " style="fill:rgb(91, 29, 23); fill-opacity:1.000; stroke:none;" />
 <path d="  M 45,30  L 44,30  L 44,32  L 45,32  Z  " style="fill:rgb(91, 29, 23); fill-opacity:1.000; stroke:none;" />
 <path d="  M 45,38  L 44,38  L 44,40  L 45,40  Z  " style="fill:rgb(91, 29, 23); fill-opacity:1.000; stroke:none;" />
 <path d="  M 45,14  L 45,15  L 46,15  L 46,14  Z  " style="fill:rgb(91, 29, 23); fill-opacity:1.000; stroke:none;" />
 <path d="  M 45,38  L 46,38  L 46,32  L 45,32  Z  " style="fill:rgb(91, 29, 23); fill-opacity:1.000; stroke:none;" />
 <path d="  M 47,14  L 47,13  L 46,13  L 46,14  Z  " style="fill:rgb(91, 29, 23); fill-opacity:1.000; stroke:none;" />
 <path d="  M 51,14  L 51,13  L 50,13  L 50,12  L 49,12  L 49,14  L 47,14  L 47,15  L 46,15  L 46,16  L 47,16  L 47,17  L 48,17  L 48,18  L 49,18  L 49,16  L 50,16  L 50,14  Z  " style="fill:rgb(91, 29, 23); fill-opacity:1.000; stroke:none;" />
 <path d="  M 46,20  L 47,20  L 47,19  L 46,19  Z  " style="fill:rgb(91, 29, 23); fill-opacity:1.000; stroke:none;" />
 <path d="  M 47,18  L 47,19  L 48,19  L 48,18  Z  " style="fill:rgb(91, 29, 23); fill-opacity:1.000; stroke:none;" />
 <path d="  M 47,21  L 47,22  L 48,22  L 48,21  Z  " style="fill:rgb(91, 29, 23); fill-opacity:1.000; stroke:none;" />
 <path d="  M 48,20  L 48,21  L 49,21  L 49,20  Z  " style="fill:rgb(91, 29, 23); fill-opacity:1.000; stroke:none;" />
 <path d="  M 49,23  L 50,23  L 50,21  L 49,21  Z  " style="fill:rgb(91, 29, 23); fill-opacity:1.000; stroke:none;" />
 <path d="  M 49,25  L 50,25  L 50,24  L 49,24  Z  " style="fill:rgb(91, 29, 23); fill-opacity:1.000; stroke:none;" />
 <path d="  M 15,42  L 15,43  L 16,43  L 16,42  Z  " style="fill:rgb(143, 45, 47); fill-opacity:1.000; stroke:none;" />
 <path d="  M 16,50  L 16,49  L 15,49  L 15,50  Z  " style="fill:rgb(143, 45, 47); fill-opacity:1.000; stroke:none;" />
 <path d="  M 17,38  L 16,38  L 16,39  L 17,39  Z  " style="fill:rgb(143, 45, 47); fill-opacity:1.000; stroke:none;" />
 <path d="  M 16,52  L 17,52  L 17,51  L 18,51  L 18,50  L 16,50  Z  " style="fill:rgb(143, 45, 47); fill-opacity:1.000; stroke:none;" />
 <path d="  M 17,35  L 18,35  L 18,34  L 17,34  Z  " style="fill:rgb(143, 45, 47); fill-opacity:1.000; stroke:none;" />
 <path d="  M 18,51  L 18,52  L 17,52  L 17,53  L 18,53  L 18,54  L 21,54  L 21,53  L 20,53  L 20,52  L 19,52  L 19,51  Z  " style="fill:rgb(143, 45, 47); fill-opacity:1.000; stroke:none;" />
 <path d="  M 28,43  L 28,44  L 27,44  L 27,43  Z  M 20,46  L 20,48  L 19,48  L 19,49  L 18,49  L 18,50  L 20,50  L 20,49  L 21,49  L 21,48  L 23,48  L 23,47  L 25,47  L 25,46  L 28,46  L 28,45  L 33,45  L 33,44  L 38,44  L 38,43  L 40,43  L 40,42  L 42,42  L 42,41  L 43,41  L 43,40  L 44,40  L 44,38  L 45,38  L 45,32  L 44,32  L 44,30  L 43,30  L 43,28  L 42,28  L 42,26  L 41,26  L 41,25  L 40,25  L 40,24  L 39,24  L 39,25  L 38,25  L 38,26  L 40,26  L 40,27  L 39,27  L 39,28  L 38,28  L 38,29  L 39,29  L 39,30  L 40,30  L 40,32  L 41,32  L 41,33  L 42,33  L 42,34  L 43,34  L 43,35  L 42,35  L 42,36  L 41,36  L 41,37  L 39,37  L 39,38  L 40,38  L 40,39  L 39,39  L 39,40  L 37,40  L 37,41  L 36,41  L 36,39  L 35,39  L 35,40  L 33,40  L 33,41  L 32,41  L 32,40  L 31,40  L 31,39  L 29,39  L 29,41  L 30,41  L 30,42  L 28,42  L 28,41  L 27,41  L 27,42  L 26,42  L 26,43  L 25,43  L 25,44  L 24,44  L 24,43  L 23,43  L 23,44  L 22,44  L 22,45  L 21,45  L 21,46  Z  M 41,30  L 40,30  L 40,29  L 41,29  Z  M 33,41  L 34,41  L 34,42  L 33,42  Z  M 42,38  L 41,38  L 41,37  L 42,37  Z  M 35,42  L 35,41  L 36,41  L 36,42  Z  M 42,32  L 41,32  L 41,31  L 42,31  Z  " style="fill:rgb(143, 45, 47); fill-opacity:1.000; stroke:none;" />
 <path d="  M 21,55  L 22,55  L 22,54  L 21,54  Z  " style="fill:rgb(143, 45, 47); fill-opacity:1.000; stroke:none;" />
 <path d="  M 24,42  L 24,43  L 25,43  L 25,42  Z  " style="fill:rgb(143, 45, 47); fill-opacity:1.000; stroke:none;" />
 <path d="  M 28,38  L 28,39  L 29,39  L 29,38  Z  " style="fill:rgb(143, 45, 47); fill-opacity:1.000; stroke:none;" />
 <path d="  M 32,19  L 31,19  L 31,20  L 32,20  Z  " style="fill:rgb(143, 45, 47); fill-opacity:1.000; stroke:none;" />
 <path d="  M 34,20  L 33,20  L 33,21  L 34,21  Z  " style="fill:rgb(143, 45, 47); fill-opacity:1.000; stroke:none;" />
 <path d="  M 35,21  L 35,22  L 36,22  L 36,21  Z  " style="fill:rgb(143, 45, 47); fill-opacity:1.000; stroke:none;" />
 <path d="  M 37,23  L 37,22  L 36,22  L 36,23  Z  " style="fill:rgb(143, 45, 47); fill-opacity:1.000; stroke:none;" />
 <path d="  M 40,12  L 40,13  L 39,13  L 39,15  L 40,15  L 40,16  L 41,16  L 41,17  L 42,17  L 42,19  L 41,19  L 41,21  L 40,21  L 40,22  L 38,22  L 38,23  L 37,23  L 37,24  L 39,24  L 39,23  L 41,23  L 41,22  L 42,22  L 42,21  L 43,21  L 43,20  L 44,20  L 44,19  L 45,19  L 45,18  L 46,18  L 46,16  L 45,16  L 45,15  L 44,15  L 44,14  L 43,14  L 43,13  L 42,13  L 42,12  Z  " style="fill:rgb(143, 45, 47); fill-opacity:1.000; stroke:none;" />
 <path d="  M 38,38  L 38,39  L 39,39  L 39,38  Z  " style="fill:rgb(143, 45, 47); fill-opacity:1.000; stroke:none;" />
 <path d="  M 40,12  L 40,11  L 39,11  L 39,12  Z  " style="fill:rgb(143, 45, 47); fill-opacity:1.000; stroke:none;" />
 <path d="  M 42,35  L 42,34  L 41,34  L 41,35  Z  " style="fill:rgb(143, 45, 47); fill-opacity:1.000; stroke:none;" />
 <path d="  M 16,44  L 16,43  L 15,43  L 15,44  Z  " style="fill:rgb(164, 39, 44); fill-opacity:1.000; stroke:none;" />
 <path d="  M 15,45  L 15,47  L 17,47  L 17,48  L 18,48  L 18,49  L 19,49  L 19,48  L 20,48  L 20,47  L 19,47  L 19,46  L 17,46  L 17,45  Z  " style="fill:rgb(164, 39, 44); fill-opacity:1.000; stroke:none;" />
 <path d="  M 17,48  L 15,48  L 15,49  L 16,49  L 16,50  L 18,50  L 18,49  L 17,49  Z  " style="fill:rgb(164, 39, 44); fill-opacity:1.000; stroke:none;" />
 <path d="  M 22,40  L 22,39  L 24,39  L 24,40  Z  M 24,41  L 24,40  L 25,40  L 25,41  Z  M 23,43  L 22,43  L 22,42  L 23,42  Z  M 20,39  L 20,38  L 22,38  L 22,39  Z  M 17,40  L 17,39  L 16,39  L 16,41  L 18,41  L 18,42  L 20,42  L 20,43  L 21,43  L 21,44  L 23,44  L 23,43  L 24,43  L 24,42  L 25,42  L 25,43  L 26,43  L 26,42  L 27,42  L 27,41  L 28,41  L 28,40  L 27,40  L 27,39  L 25,39  L 25,38  L 23,38  L 23,37  L 21,37  L 21,36  L 20,36  L 20,35  L 17,35  L 17,36  L 18,36  L 18,37  L 20,37  L 20,38  L 19,38  L 19,39  L 18,39  L 18,40  Z  M 21,41  L 22,41  L 22,42  L 21,42  Z  " style="fill:rgb(164, 39, 44); fill-opacity:1.000; stroke:none;" />
 <path d="  M 18,42  L 16,42  L 16,43  L 18,43  Z  " style="fill:rgb(164, 39, 44); fill-opacity:1.000; stroke:none;" />
 <path d="  M 17,38  L 18,38  L 18,37  L 17,37  Z  " style="fill:rgb(164, 39, 44); fill-opacity:1.000; stroke:none;" />
 <path d="  M 17,45  L 18,45  L 18,44  L 17,44  Z  " style="fill:rgb(164, 39, 44); fill-opacity:1.000; stroke:none;" />
 <path d="  M 18,52  L 18,51  L 17,51  L 17,52  Z  " style="fill:rgb(164, 39, 44); fill-opacity:1.000; stroke:none;" />
 <path d="  M 19,31  L 18,31  L 18,34  L 20,34  L 20,32  L 19,32  Z  " style="fill:rgb(164, 39, 44); fill-opacity:1.000; stroke:none;" />
 <path d="  M 18,43  L 18,44  L 20,44  L 20,43  Z  " style="fill:rgb(164, 39, 44); fill-opacity:1.000; stroke:none;" />
 <path d="  M 19,50  L 18,50  L 18,51  L 19,51  Z  " style="fill:rgb(164, 39, 44); fill-opacity:1.000; stroke:none;" />
 <path d="  M 19,31  L 21,31  L 21,30  L 20,30  L 20,29  L 21,29  L 21,28  L 20,28  L 20,27  L 19,27  Z  " style="fill:rgb(164, 39, 44); fill-opacity:1.000; stroke:none;" />
 <path d="  M 19,46  L 21,46  L 21,44  L 20,44  L 20,45  L 19,45  Z  " style="fill:rgb(164, 39, 44); fill-opacity:1.000; stroke:none;" />
 <path d="  M 20,24  L 20,26  L 22,26  L 22,25  L 21,25  L 21,24  Z  " style="fill:rgb(164, 39, 44); fill-opacity:1.000; stroke:none;" />
 <path d="  M 22,32  L 22,33  L 21,33  L 21,34  L 20,34  L 20,35  L 22,35  L 22,36  L 24,36  L 24,35  L 25,35  L 25,33  L 24,33  L 24,32  Z  M 23,34  L 23,33  L 24,33  L 24,34  Z  " style="fill:rgb(164, 39, 44); fill-opacity:1.000; stroke:none;" />
 <path d="  M 22,25  L 23,25  L 23,24  L 24,24  L 24,23  L 23,23  L 23,22  L 22,22  L 22,23  L 21,23  L 21,24  L 22,24  Z  " style="fill:rgb(164, 39, 44); fill-opacity:1.000; stroke:none;" />
 <path d="  M 22,30  L 22,29  L 21,29  L 21,30  Z  " style="fill:rgb(164, 39, 44); fill-opacity:1.000; stroke:none;" />
 <path d="  M 21,31  L 21,32  L 22,32  L 22,31  Z  " style="fill:rgb(164, 39, 44); fill-opacity:1.000; stroke:none;" />
 <path d="  M 23,27  L 23,26  L 22,26  L 22,27  Z  " style="fill:rgb(164, 39, 44); fill-opacity:1.000; stroke:none;" />
 <path d="  M 24,21  L 23,21  L 23,22  L 24,22  Z  " style="fill:rgb(164, 39, 44); fill-opacity:1.000; stroke:none;" />
 <path d="  M 23,28  L 24,28  L 24,27  L 23,27  Z  " style="fill:rgb(164, 39, 44); fill-opacity:1.000; stroke:none;" />
 <path d="  M 26,20  L 24,20  L 24,21  L 26,21  Z  " style="fill:rgb(164, 39, 44); fill-opacity:1.000; stroke:none;" />
 <path d="  M 25,23  L 25,22  L 24,22  L 24,23  Z  " style="fill:rgb(164, 39, 44); fill-opacity:1.000; stroke:none;" />
 <path d="  M 24,25  L 25,25  L 25,24  L 24,24  Z  " style="fill:rgb(164, 39, 44); fill-opacity:1.000; stroke:none;" />
 <path d="  M 24,37  L 25,37  L 25,36  L 24,36  Z  " style="fill:rgb(164, 39, 44); fill-opacity:1.000; stroke:none;" />
 <path d="  M 25,43  L 24,43  L 24,44  L 25,44  Z  " style="fill:rgb(164, 39, 44); fill-opacity:1.000; stroke:none;" />
 <path d="  M 26,36  L 26,35  L 25,35  L 25,36  Z  " style="fill:rgb(164, 39, 44); fill-opacity:1.000; stroke:none;" />
 <path d="  M 27,19  L 26,19  L 26,20  L 27,20  Z  " style="fill:rgb(164, 39, 44); fill-opacity:1.000; stroke:none;" />
 <path d="  M 27,22  L 27,21  L 26,21  L 26,22  Z  " style="fill:rgb(164, 39, 44); fill-opacity:1.000; stroke:none;" />
 <path d="  M 26,34  L 27,34  L 27,33  L 26,33  Z  " style="fill:rgb(164, 39, 44); fill-opacity:1.000; stroke:none;" />
 <path d="  M 29,36  L 26,36  L 26,38  L 27,38  L 27,37  L 28,37  L 28,38  L 30,38  L 30,39  L 31,39  L 31,40  L 32,40  L 32,39  L 33,39  L 33,38  L 31,38  L 31,37  L 29,37  Z  " style="fill:rgb(164, 39, 44); fill-opacity:1.000; stroke:none;" />
 <path d="  M 29,23  L 29,22  L 27,22  L 27,23  Z  " style="fill:rgb(164, 39, 44); fill-opacity:1.000; stroke:none;" />
 <path d="  M 27,27  L 27,28  L 28,28  L 28,27  Z  " style="fill:rgb(164, 39, 44); fill-opacity:1.000; stroke:none;" />
 <path d="  M 27,31  L 28,31  L 28,30  L 27,30  Z  " style="fill:rgb(164, 39, 44); fill-opacity:1.000; stroke:none;" />
 <path d="  M 28,39  L 28,38  L 27,38  L 27,39  Z  " style="fill:rgb(164, 39, 44); fill-opacity:1.000; stroke:none;" />
 <path d="  M 28,44  L 28,43  L 27,43  L 27,44  Z  " style="fill:rgb(164, 39, 44); fill-opacity:1.000; stroke:none;" />
 <path d="  M 28,33  L 30,33  L 30,32  L 31,32  L 31,31  L 30,31  L 30,30  L 29,30  L 29,31  L 28,31  Z  " style="fill:rgb(164, 39, 44); fill-opacity:1.000; stroke:none;" />
 <path d="  M 29,35  L 29,34  L 28,34  L 28,35  Z  " style="fill:rgb(164, 39, 44); fill-opacity:1.000; stroke:none;" />
 <path d="  M 28,39  L 28,40  L 29,40  L 29,39  Z  " style="fill:rgb(164, 39, 44); fill-opacity:1.000; stroke:none;" />
 <path d="  M 30,42  L 30,41  L 28,41  L 28,42  Z  " style="fill:rgb(164, 39, 44); fill-opacity:1.000; stroke:none;" />
 <path d="  M 29,19  L 29,20  L 31,20  L 31,19  Z  " style="fill:rgb(164, 39, 44); fill-opacity:1.000; stroke:none;" />
 <path d="  M 29,23  L 29,24  L 30,24  L 30,23  Z  " style="fill:rgb(164, 39, 44); fill-opacity:1.000; stroke:none;" />
 <path d="  M 29,28  L 29,29  L 30,29  L 30,28  Z  " style="fill:rgb(164, 39, 44); fill-opacity:1.000; stroke:none;" />
 <path d="  M 30,22  L 31,22  L 31,21  L 30,21  Z  " style="fill:rgb(164, 39, 44); fill-opacity:1.000; stroke:none;" />
 <path d="  M 30,29  L 30,30  L 31,30  L 31,29  Z  " style="fill:rgb(164, 39, 44); fill-opacity:1.000; stroke:none;" />
 <path d="  M 30,33  L 30,34  L 31,34  L 31,35  L 32,35  L 32,36  L 34,36  L 34,37  L 36,37  L 36,38  L 37,38  L 37,39  L 36,39  L 36,41  L 37,41  L 37,40  L 39,40  L 39,39  L 38,39  L 38,38  L 39,38  L 39,37  L 41,37  L 41,36  L 42,36  L 42,35  L 41,35  L 41,34  L 42,34  L 42,33  L 41,33  L 41,32  L 40,32  L 40,34  L 39,34  L 39,32  L 38,32  L 38,30  L 37,30  L 37,31  L 36,31  L 36,30  L 33,30  L 33,31  L 34,31  L 34,32  L 35,32  L 35,33  L 34,33  L 34,35  L 33,35  L 33,34  L 32,34  L 32,33  Z  M 37,34  L 37,35  L 36,35  L 36,34  Z  M 37,35  L 38,35  L 38,36  L 37,36  Z  M 35,34  L 35,33  L 36,33  L 36,34  Z  " style="fill:rgb(164, 39, 44); fill-opacity:1.000; stroke:none;" />
 <path d="  M 31,23  L 31,24  L 32,24  L 32,23  Z  " style="fill:rgb(164, 39, 44); fill-opacity:1.000; stroke:none;" />
 <path d="  M 31,29  L 32,29  L 32,28  L 31,28  Z  " style="fill:rgb(164, 39, 44); fill-opacity:1.000; stroke:none;" />
 <path d="  M 31,30  L 31,31  L 32,31  L 32,30  Z  " style="fill:rgb(164, 39, 44); fill-opacity:1.000; stroke:none;" />
 <path d="  M 33,20  L 32,20  L 32,21  L 33,21  Z  " style="fill:rgb(164, 39, 44); fill-opacity:1.000; stroke:none;" />
 <path d="  M 33,22  L 32,22  L 32,23  L 33,23  Z  " style="fill:rgb(164, 39, 44); fill-opacity:1.000; stroke:none;" />
 <path d="  M 33,26  L 33,24  L 32,24  L 32,26  Z  " style="fill:rgb(164, 39, 44); fill-opacity:1.000; stroke:none;" />
 <path d="  M 33,29  L 32,29  L 32,30  L 33,30  Z  " style="fill:rgb(164, 39, 44); fill-opacity:1.000; stroke:none;" />
 <path d="  M 32,31  L 32,32  L 33,32  L 33,31  Z  " style="fill:rgb(164, 39, 44); fill-opacity:1.000; stroke:none;" />
 <path d="  M 33,40  L 32,40  L 32,41  L 33,41  Z  " style="fill:rgb(164, 39, 44); fill-opacity:1.000; stroke:none;" />
 <path d="  M 33,27  L 34,27  L 34,26  L 33,26  Z  " style="fill:rgb(164, 39, 44); fill-opacity:1.000; stroke:none;" />
 <path d="  M 34,33  L 34,32  L 33,32  L 33,33  Z  " style="fill:rgb(164, 39, 44); fill-opacity:1.000; stroke:none;" />
 <path d="  M 34,37  L 33,37  L 33,38  L 34,38  Z  " style="fill:rgb(164, 39, 44); fill-opacity:1.000; stroke:none;" />
 <path d="  M 34,38  L 34,39  L 33,39  L 33,40  L 35,40  L 35,39  L 36,39  L 36,38  Z  " style="fill:rgb(164, 39, 44); fill-opacity:1.000; stroke:none;" />
 <path d="  M 33,41  L 33,42  L 34,42  L 34,41  Z  " style="fill:rgb(164, 39, 44); fill-opacity:1.000; stroke:none;" />
 <path d="  M 35,22  L 35,21  L 34,21  L 34,22  Z  " style="fill:rgb(164, 39, 44); fill-opacity:1.000; stroke:none;" />
 <path d="  M 36,29  L 36,28  L 35,28  L 35,29  Z  " style="fill:rgb(164, 39, 44); fill-opacity:1.000; stroke:none;" />
 <path d="  M 35,41  L 35,42  L 36,42  L 36,41  Z  " style="fill:rgb(164, 39, 44); fill-opacity:1.000; stroke:none;" />
 <path d="  M 36,23  L 36,25  L 37,25  L 37,26  L 38,26  L 38,25  L 39,25  L 39,24  L 37,24  L 37,23  Z  " style="fill:rgb(164, 39, 44); fill-opacity:1.000; stroke:none;" />
 <path d="  M 37,30  L 37,29  L 36,29  L 36,30  Z  " style="fill:rgb(164, 39, 44); fill-opacity:1.000; stroke:none;" />
 <path d="  M 37,23  L 38,23  L 38,22  L 37,22  Z  " style="fill:rgb(164, 39, 44); fill-opacity:1.000; stroke:none;" />
 <path d="  M 40,27  L 40,26  L 38,26  L 38,28  L 39,28  L 39,27  Z  " style="fill:rgb(164, 39, 44); fill-opacity:1.000; stroke:none;" />
 <path d="  M 39,30  L 39,29  L 38,29  L 38,30  Z  " style="fill:rgb(164, 39, 44); fill-opacity:1.000; stroke:none;" />
 <path d="  M 39,24  L 40,24  L 40,23  L 39,23  Z  " style="fill:rgb(164, 39, 44); fill-opacity:1.000; stroke:none;" />
 <path d="  M 39,32  L 40,32  L 40,30  L 39,30  Z  " style="fill:rgb(164, 39, 44); fill-opacity:1.000; stroke:none;" />
 <path d="  M 40,39  L 40,38  L 39,38  L 39,39  Z  " style="fill:rgb(164, 39, 44); fill-opacity:1.000; stroke:none;" />
 <path d="  M 40,30  L 41,30  L 41,29  L 40,29  Z  " style="fill:rgb(164, 39, 44); fill-opacity:1.000; stroke:none;" />
 <path d="  M 42,31  L 41,31  L 41,32  L 42,32  Z  " style="fill:rgb(164, 39, 44); fill-opacity:1.000; stroke:none;" />
 <path d="  M 42,38  L 42,37  L 41,37  L 41,38  Z  " style="fill:rgb(164, 39, 44); fill-opacity:1.000; stroke:none;" />
 <path d="  M 42,34  L 42,35  L 43,35  L 43,34  Z  " style="fill:rgb(164, 39, 44); fill-opacity:1.000; stroke:none;" />
 <path d="  M 16,44  L 15,44  L 15,45  L 17,45  L 17,44  L 18,44  L 18,43  L 16,43  Z  " style="fill:rgb(182, 72, 76); fill-opacity:1.000; stroke:none;" />
 <path d="  M 17,47  L 15,47  L 15,48  L 17,48  Z  " style="fill:rgb(182, 72, 76); fill-opacity:1.000; stroke:none;" />
 <path d="  M 18,42  L 18,41  L 16,41  L 16,42  Z  " style="fill:rgb(182, 72, 76); fill-opacity:1.000; stroke:none;" />
 <path d="  M 18,37  L 18,36  L 17,36  L 17,37  Z  " style="fill:rgb(182, 72, 76); fill-opacity:1.000; stroke:none;" />
 <path d="  M 17,38  L 17,40  L 18,40  L 18,39  L 19,39  L 19,38  L 20,38  L 20,37  L 18,37  L 18,38  Z  " style="fill:rgb(182, 72, 76); fill-opacity:1.000; stroke:none;" />
 <path d="  M 18,44  L 18,45  L 17,45  L 17,46  L 19,46  L 19,45  L 20,45  L 20,44  Z  " style="fill:rgb(182, 72, 76); fill-opacity:1.000; stroke:none;" />
 <path d="  M 18,49  L 18,48  L 17,48  L 17,49  Z  " style="fill:rgb(182, 72, 76); fill-opacity:1.000; stroke:none;" />
 <path d="  M 19,31  L 19,30  L 18,30  L 18,31  Z  " style="fill:rgb(182, 72, 76); fill-opacity:1.000; stroke:none;" />
 <path d="  M 18,34  L 18,35  L 20,35  L 20,34  Z  " style="fill:rgb(182, 72, 76); fill-opacity:1.000; stroke:none;" />
 <path d="  M 20,42  L 18,42  L 18,43  L 20,43  Z  " style="fill:rgb(182, 72, 76); fill-opacity:1.000; stroke:none;" />
 <path d="  M 21,32  L 21,31  L 19,31  L 19,32  L 20,32  L 20,34  L 21,34  L 21,33  L 22,33  L 22,32  Z  " style="fill:rgb(182, 72, 76); fill-opacity:1.000; stroke:none;" />
 <path d="  M 19,46  L 19,47  L 20,47  L 20,46  Z  " style="fill:rgb(182, 72, 76); fill-opacity:1.000; stroke:none;" />
 <path d="  M 21,28  L 21,29  L 22,29  L 22,30  L 24,30  L 24,31  L 26,31  L 26,32  L 28,32  L 28,31  L 29,31  L 29,30  L 30,30  L 30,29  L 29,29  L 29,28  L 27,28  L 27,27  L 26,27  L 26,26  L 25,26  L 25,25  L 24,25  L 24,24  L 23,24  L 23,25  L 22,25  L 22,26  L 20,26  L 20,28  Z  M 23,28  L 23,27  L 24,27  L 24,28  Z  M 23,27  L 22,27  L 22,26  L 23,26  Z  M 27,30  L 28,30  L 28,31  L 27,31  Z  " style="fill:rgb(182, 72, 76); fill-opacity:1.000; stroke:none;" />
 <path d="  M 21,29  L 20,29  L 20,30  L 21,30  Z  " style="fill:rgb(182, 72, 76); fill-opacity:1.000; stroke:none;" />
 <path d="  M 20,38  L 20,39  L 22,39  L 22,38  Z  " style="fill:rgb(182, 72, 76); fill-opacity:1.000; stroke:none;" />
 <path d="  M 21,44  L 21,43  L 20,43  L 20,44  Z  " style="fill:rgb(182, 72, 76); fill-opacity:1.000; stroke:none;" />
 <path d="  M 22,24  L 21,24  L 21,25  L 22,25  Z  " style="fill:rgb(182, 72, 76); fill-opacity:1.000; stroke:none;" />
 <path d="  M 21,31  L 22,31  L 22,30  L 21,30  Z  " style="fill:rgb(182, 72, 76); fill-opacity:1.000; stroke:none;" />
 <path d="  M 22,37  L 22,36  L 21,36  L 21,37  Z  " style="fill:rgb(182, 72, 76); fill-opacity:1.000; stroke:none;" />
 <path d="  M 21,41  L 21,42  L 22,42  L 22,41  Z  " style="fill:rgb(182, 72, 76); fill-opacity:1.000; stroke:none;" />
 <path d="  M 22,44  L 21,44  L 21,45  L 22,45  Z  " style="fill:rgb(182, 72, 76); fill-opacity:1.000; stroke:none;" />
 <path d="  M 24,31  L 22,31  L 22,32  L 24,32  Z  " style="fill:rgb(182, 72, 76); fill-opacity:1.000; stroke:none;" />
 <path d="  M 24,40  L 24,39  L 22,39  L 22,40  Z  " style="fill:rgb(182, 72, 76); fill-opacity:1.000; stroke:none;" />
 <path d="  M 23,42  L 22,42  L 22,43  L 23,43  Z  " style="fill:rgb(182, 72, 76); fill-opacity:1.000; stroke:none;" />
 <path d="  M 23,22  L 23,23  L 24,23  L 24,22  Z  " style="fill:rgb(182, 72, 76); fill-opacity:1.000; stroke:none;" />
 <path d="  M 24,33  L 23,33  L 23,34  L 24,34  Z  " style="fill:rgb(182, 72, 76); fill-opacity:1.000; stroke:none;" />
 <path d="  M 24,38  L 24,37  L 23,37  L 23,38  Z  " style="fill:rgb(182, 72, 76); fill-opacity:1.000; stroke:none;" />
 <path d="  M 33,27  L 33,26  L 32,26  L 32,24  L 31,24  L 31,23  L 30,23  L 30,24  L 29,24  L 29,23  L 27,23  L 27,22  L 26,22  L 26,21  L 24,21  L 24,22  L 25,22  L 25,23  L 24,23  L 24,24  L 25,24  L 25,25  L 26,25  L 26,26  L 28,26  L 28,27  L 30,27  L 30,28  L 32,28  L 32,29  L 33,29  L 33,30  L 36,30  L 36,29  L 35,29  L 35,28  L 36,28  L 36,27  L 35,27  L 35,26  L 34,26  L 34,27  Z  " style="fill:rgb(182, 72, 76); fill-opacity:1.000; stroke:none;" />
 <path d="  M 29,37  L 31,37  L 31,38  L 33,38  L 33,37  L 32,37  L 32,36  L 30,36  L 30,35  L 28,35  L 28,34  L 26,34  L 26,32  L 24,32  L 24,33  L 25,33  L 25,35  L 26,35  L 26,36  L 29,36  Z  " style="fill:rgb(182, 72, 76); fill-opacity:1.000; stroke:none;" />
 <path d="  M 24,35  L 24,36  L 25,36  L 25,35  Z  " style="fill:rgb(182, 72, 76); fill-opacity:1.000; stroke:none;" />
 <path d="  M 24,40  L 24,41  L 25,41  L 25,40  Z  " style="fill:rgb(182, 72, 76); fill-opacity:1.000; stroke:none;" />
 <path d="  M 25,37  L 26,37  L 26,36  L 25,36  Z  " style="fill:rgb(182, 72, 76); fill-opacity:1.000; stroke:none;" />
 <path d="  M 26,39  L 26,38  L 25,38  L 25,39  Z  " style="fill:rgb(182, 72, 76); fill-opacity:1.000; stroke:none;" />
 <path d="  M 35,24  L 35,25  L 36,25  L 36,22  L 34,22  L 34,21  L 32,21  L 32,20  L 29,20  L 29,19  L 27,19  L 27,20  L 28,20  L 28,21  L 31,21  L 31,22  L 33,22  L 33,23  L 34,23  L 34,24  Z  " style="fill:rgb(182, 72, 76); fill-opacity:1.000; stroke:none;" />
 <path d="  M 27,22  L 28,22  L 28,21  L 27,21  Z  " style="fill:rgb(182, 72, 76); fill-opacity:1.000; stroke:none;" />
 <path d="  M 27,37  L 27,38  L 28,38  L 28,37  Z  " style="fill:rgb(182, 72, 76); fill-opacity:1.000; stroke:none;" />
 <path d="  M 28,39  L 27,39  L 27,40  L 28,40  Z  " style="fill:rgb(182, 72, 76); fill-opacity:1.000; stroke:none;" />
 <path d="  M 29,41  L 29,40  L 28,40  L 28,41  Z  " style="fill:rgb(182, 72, 76); fill-opacity:1.000; stroke:none;" />
 <path d="  M 29,22  L 29,23  L 30,23  L 30,22  Z  " style="fill:rgb(182, 72, 76); fill-opacity:1.000; stroke:none;" />
 <path d="  M 29,38  L 29,39  L 30,39  L 30,38  Z  " style="fill:rgb(182, 72, 76); fill-opacity:1.000; stroke:none;" />
 <path d="  M 31,31  L 31,30  L 30,30  L 30,31  Z  " style="fill:rgb(182, 72, 76); fill-opacity:1.000; stroke:none;" />
 <path d="  M 33,32  L 32,32  L 32,31  L 31,31  L 31,32  L 30,32  L 30,33  L 32,33  L 32,34  L 33,34  L 33,35  L 34,35  L 34,33  L 33,33  Z  " style="fill:rgb(182, 72, 76); fill-opacity:1.000; stroke:none;" />
 <path d="  M 32,40  L 33,40  L 33,39  L 32,39  Z  " style="fill:rgb(182, 72, 76); fill-opacity:1.000; stroke:none;" />
 <path d="  M 34,25  L 33,25  L 33,26  L 34,26  Z  " style="fill:rgb(182, 72, 76); fill-opacity:1.000; stroke:none;" />
 <path d="  M 33,37  L 34,37  L 34,36  L 33,36  Z  " style="fill:rgb(182, 72, 76); fill-opacity:1.000; stroke:none;" />
 <path d="  M 33,38  L 33,39  L 34,39  L 34,38  Z  " style="fill:rgb(182, 72, 76); fill-opacity:1.000; stroke:none;" />
 <path d="  M 34,33  L 35,33  L 35,32  L 34,32  Z  " style="fill:rgb(182, 72, 76); fill-opacity:1.000; stroke:none;" />
 <path d="  M 34,38  L 36,38  L 36,37  L 34,37  Z  " style="fill:rgb(182, 72, 76); fill-opacity:1.000; stroke:none;" />
 <path d="  M 35,33  L 35,34  L 36,34  L 36,33  Z  " style="fill:rgb(182, 72, 76); fill-opacity:1.000; stroke:none;" />
 <path d="  M 36,25  L 36,26  L 37,26  L 37,25  Z  " style="fill:rgb(182, 72, 76); fill-opacity:1.000; stroke:none;" />
 <path d="  M 37,28  L 36,28  L 36,29  L 37,29  Z  " style="fill:rgb(182, 72, 76); fill-opacity:1.000; stroke:none;" />
 <path d="  M 37,30  L 36,30  L 36,31  L 37,31  Z  " style="fill:rgb(182, 72, 76); fill-opacity:1.000; stroke:none;" />
 <path d="  M 37,35  L 37,34  L 36,34  L 36,35  Z  " style="fill:rgb(182, 72, 76); fill-opacity:1.000; stroke:none;" />
 <path d="  M 36,39  L 37,39  L 37,38  L 36,38  Z  " style="fill:rgb(182, 72, 76); fill-opacity:1.000; stroke:none;" />
 <path d="  M 38,26  L 37,26  L 37,28  L 38,28  Z  " style="fill:rgb(182, 72, 76); fill-opacity:1.000; stroke:none;" />
 <path d="  M 38,36  L 38,35  L 37,35  L 37,36  Z  " style="fill:rgb(182, 72, 76); fill-opacity:1.000; stroke:none;" />
 <path d="  M 38,30  L 38,32  L 39,32  L 39,30  Z  " style="fill:rgb(182, 72, 76); fill-opacity:1.000; stroke:none;" />
 <path d="  M 39,34  L 40,34  L 40,32  L 39,32  Z  " style="fill:rgb(182, 72, 76); fill-opacity:1.000; stroke:none;" />
 <path d="  M 22,36  L 22,35  L 20,35  L 20,36  Z  " style="fill:rgb(192, 114, 121); fill-opacity:1.000; stroke:none;" />
 <path d="  M 22,30  L 22,31  L 24,31  L 24,30  Z  " style="fill:rgb(192, 114, 121); fill-opacity:1.000; stroke:none;" />
 <path d="  M 24,37  L 24,36  L 22,36  L 22,37  Z  " style="fill:rgb(192, 114, 121); fill-opacity:1.000; stroke:none;" />
 <path d="  M 26,31  L 24,31  L 24,32  L 26,32  Z  " style="fill:rgb(192, 114, 121); fill-opacity:1.000; stroke:none;" />
 <path d="  M 24,37  L 24,38  L 26,38  L 26,37  Z  " style="fill:rgb(192, 114, 121); fill-opacity:1.000; stroke:none;" />
 <path d="  M 25,25  L 25,26  L 26,26  L 26,25  Z  " style="fill:rgb(192, 114, 121); fill-opacity:1.000; stroke:none;" />
 <path d="  M 26,20  L 26,21  L 28,21  L 28,20  Z  " style="fill:rgb(192, 114, 121); fill-opacity:1.000; stroke:none;" />
 <path d="  M 26,26  L 26,27  L 28,27  L 28,26  Z  " style="fill:rgb(192, 114, 121); fill-opacity:1.000; stroke:none;" />
 <path d="  M 27,34  L 29,34  L 29,35  L 30,35  L 30,36  L 32,36  L 32,35  L 31,35  L 31,34  L 30,34  L 30,33  L 28,33  L 28,32  L 26,32  L 26,33  L 27,33  Z  " style="fill:rgb(192, 114, 121); fill-opacity:1.000; stroke:none;" />
 <path d="  M 26,38  L 26,39  L 27,39  L 27,38  Z  " style="fill:rgb(192, 114, 121); fill-opacity:1.000; stroke:none;" />
 <path d="  M 28,21  L 28,22  L 30,22  L 30,21  Z  " style="fill:rgb(192, 114, 121); fill-opacity:1.000; stroke:none;" />
 <path d="  M 30,27  L 28,27  L 28,28  L 30,28  Z  " style="fill:rgb(192, 114, 121); fill-opacity:1.000; stroke:none;" />
 <path d="  M 30,23  L 32,23  L 32,22  L 30,22  Z  " style="fill:rgb(192, 114, 121); fill-opacity:1.000; stroke:none;" />
 <path d="  M 30,28  L 30,29  L 31,29  L 31,28  Z  " style="fill:rgb(192, 114, 121); fill-opacity:1.000; stroke:none;" />
 <path d="  M 31,30  L 32,30  L 32,29  L 31,29  Z  " style="fill:rgb(192, 114, 121); fill-opacity:1.000; stroke:none;" />
 <path d="  M 32,23  L 32,24  L 34,24  L 34,23  Z  " style="fill:rgb(192, 114, 121); fill-opacity:1.000; stroke:none;" />
 <path d="  M 32,31  L 33,31  L 33,30  L 32,30  Z  " style="fill:rgb(192, 114, 121); fill-opacity:1.000; stroke:none;" />
 <path d="  M 33,37  L 33,36  L 32,36  L 32,37  Z  " style="fill:rgb(192, 114, 121); fill-opacity:1.000; stroke:none;" />
 <path d="  M 33,32  L 34,32  L 34,31  L 33,31  Z  " style="fill:rgb(192, 114, 121); fill-opacity:1.000; stroke:none;" />
 <path d="  M 34,25  L 35,25  L 35,24  L 34,24  Z  " style="fill:rgb(192, 114, 121); fill-opacity:1.000; stroke:none;" />
 <path d="  M 35,25  L 35,26  L 36,26  L 36,25  Z  " style="fill:rgb(192, 114, 121); fill-opacity:1.000; stroke:none;" />
 <path d="  M 37,26  L 36,26  L 36,28  L 37,28  Z  " style="fill:rgb(192, 114, 121); fill-opacity:1.000; stroke:none;" />
 <path d="  M 38,30  L 38,28  L 37,28  L 37,30  Z  " style="fill:rgb(192, 114, 121); fill-opacity:1.000; stroke:none;" />
 <path d="  M 34,25  L 34,24  L 33,24  L 33,25  Z  " style="fill:rgb(221, 181, 183); fill-opacity:1.000; stroke:none;" />
 <path d="  M 34,25  L 34,26  L 35,26  L 35,25  Z  " style="fill:rgb(221, 181, 183); fill-opacity:1.000; stroke:none;" />
 <path d="  M 35,27  L 36,27  L 36,26  L 35,26  Z  " style="fill:rgb(221, 181, 183); fill-opacity:1.000; stroke:none;" />
</svg>
