<?xml version="1.0" encoding="UTF-8" standalone="no"?>
<!DOCTYPE svg PUBLIC "-//W3C//DTD SVG 1.1//EN" 
  "http://www.w3.org/Graphics/SVG/1.1/DTD/svg11.dtd">
<svg width="64" height="64"
	 xmlns="http://www.w3.org/2000/svg" version="1.1">
 <path d="  M 6,8  L 6,9  L 9,9  L 9,8  Z  " style="fill:rgb(237, 226, 172); fill-opacity:1.000; stroke:none;" />
 <path d="  M 7,12  L 7,10  L 6,10  L 6,12  Z  " style="fill:rgb(237, 226, 172); fill-opacity:1.000; stroke:none;" />
 <path d="  M 6,14  L 6,17  L 7,17  L 7,14  Z  " style="fill:rgb(237, 226, 172); fill-opacity:1.000; stroke:none;" />
 <path d="  M 6,18  L 6,19  L 7,19  L 7,18  Z  " style="fill:rgb(237, 226, 172); fill-opacity:1.000; stroke:none;" />
 <path d="  M 6,23  L 7,23  L 7,22  L 6,22  Z  " style="fill:rgb(237, 226, 172); fill-opacity:1.000; stroke:none;" />
 <path d="  M 7,26  L 6,26  L 6,30  L 7,30  Z  " style="fill:rgb(237, 226, 172); fill-opacity:1.000; stroke:none;" />
 <path d="  M 7,34  L 7,32  L 6,32  L 6,34  Z  " style="fill:rgb(237, 226, 172); fill-opacity:1.000; stroke:none;" />
 <path d="  M 7,36  L 6,36  L 6,37  L 7,37  Z  " style="fill:rgb(237, 226, 172); fill-opacity:1.000; stroke:none;" />
 <path d="  M 7,39  L 6,39  L 6,42  L 7,42  Z  " style="fill:rgb(237, 226, 172); fill-opacity:1.000; stroke:none;" />
 <path d="  M 18,9  L 18,8  L 13,8  L 13,9  Z  " style="fill:rgb(237, 226, 172); fill-opacity:1.000; stroke:none;" />
 <path d="  M 21,8  L 20,8  L 20,9  L 21,9  Z  " style="fill:rgb(237, 226, 172); fill-opacity:1.000; stroke:none;" />
 <path d="  M 28,8  L 26,8  L 26,9  L 28,9  Z  " style="fill:rgb(237, 226, 172); fill-opacity:1.000; stroke:none;" />
 <path d="  M 35,9  L 35,8  L 31,8  L 31,9  Z  " style="fill:rgb(237, 226, 172); fill-opacity:1.000; stroke:none;" />
 <path d="  M 40,9  L 40,8  L 38,8  L 38,9  Z  " style="fill:rgb(237, 226, 172); fill-opacity:1.000; stroke:none;" />
 <path d="  M 42,8  L 41,8  L 41,9  L 42,9  Z  " style="fill:rgb(237, 226, 172); fill-opacity:1.000; stroke:none;" />
 <path d="  M 43,8  L 43,9  L 46,9  L 46,8  Z  " style="fill:rgb(237, 226, 172); fill-opacity:1.000; stroke:none;" />
 <path d="  M 48,9  L 52,9  L 52,8  L 48,8  Z  " style="fill:rgb(237, 226, 172); fill-opacity:1.000; stroke:none;" />
 <path d="  M 54,8  L 54,9  L 55,9  L 55,8  Z  " style="fill:rgb(237, 226, 172); fill-opacity:1.000; stroke:none;" />
 <path d="  M 9,10  L 9,9  L 6,9  L 6,10  L 7,10  L 7,11  L 8,11  L 8,10  Z  " style="fill:rgb(225, 216, 176); fill-opacity:1.000; stroke:none;" />
 <path d="  M 7,12  L 6,12  L 6,14  L 7,14  L 7,16  L 8,16  L 8,13  L 7,13  Z  " style="fill:rgb(225, 216, 176); fill-opacity:1.000; stroke:none;" />
 <path d="  M 6,18  L 8,18  L 8,17  L 6,17  Z  " style="fill:rgb(225, 216, 176); fill-opacity:1.000; stroke:none;" />
 <path d="  M 7,22  L 7,21  L 8,21  L 8,19  L 6,19  L 6,22  Z  " style="fill:rgb(225, 216, 176); fill-opacity:1.000; stroke:none;" />
 <path d="  M 7,26  L 7,27  L 8,27  L 8,25  L 7,25  L 7,23  L 6,23  L 6,26  Z  " style="fill:rgb(225, 216, 176); fill-opacity:1.000; stroke:none;" />
 <path d="  M 7,30  L 6,30  L 6,32  L 7,32  L 7,31  L 8,31  L 8,28  L 7,28  Z  " style="fill:rgb(225, 216, 176); fill-opacity:1.000; stroke:none;" />
 <path d="  M 6,34  L 6,36  L 8,36  L 8,35  L 7,35  L 7,34  Z  " style="fill:rgb(225, 216, 176); fill-opacity:1.000; stroke:none;" />
 <path d="  M 6,37  L 6,39  L 7,39  L 7,40  L 8,40  L 8,37  Z  " style="fill:rgb(225, 216, 176); fill-opacity:1.000; stroke:none;" />
 <path d="  M 8,41  L 7,41  L 7,42  L 8,42  Z  " style="fill:rgb(225, 216, 176); fill-opacity:1.000; stroke:none;" />
 <path d="  M 9,8  L 9,9  L 10,9  L 10,10  L 15,10  L 15,9  L 13,9  L 13,8  Z  " style="fill:rgb(225, 216, 176); fill-opacity:1.000; stroke:none;" />
 <path d="  M 18,8  L 18,9  L 19,9  L 19,10  L 21,10  L 21,9  L 20,9  L 20,8  Z  " style="fill:rgb(225, 216, 176); fill-opacity:1.000; stroke:none;" />
 <path d="  M 30,10  L 30,9  L 31,9  L 31,8  L 28,8  L 28,9  L 26,9  L 26,8  L 21,8  L 21,9  L 24,9  L 24,10  Z  " style="fill:rgb(225, 216, 176); fill-opacity:1.000; stroke:none;" />
 <path d="  M 35,9  L 34,9  L 34,10  L 36,10  L 36,9  L 38,9  L 38,8  L 35,8  Z  " style="fill:rgb(225, 216, 176); fill-opacity:1.000; stroke:none;" />
 <path d="  M 38,10  L 39,10  L 39,9  L 38,9  Z  " style="fill:rgb(225, 216, 176); fill-opacity:1.000; stroke:none;" />
 <path d="  M 41,8  L 40,8  L 40,9  L 41,9  Z  " style="fill:rgb(225, 216, 176); fill-opacity:1.000; stroke:none;" />
 <path d="  M 46,10  L 46,9  L 43,9  L 43,8  L 42,8  L 42,9  L 41,9  L 41,10  Z  " style="fill:rgb(225, 216, 176); fill-opacity:1.000; stroke:none;" />
 <path d="  M 48,9  L 48,8  L 46,8  L 46,9  Z  " style="fill:rgb(225, 216, 176); fill-opacity:1.000; stroke:none;" />
 <path d="  M 49,10  L 50,10  L 50,9  L 49,9  Z  " style="fill:rgb(225, 216, 176); fill-opacity:1.000; stroke:none;" />
 <path d="  M 52,8  L 52,10  L 53,10  L 53,9  L 54,9  L 54,8  Z  " style="fill:rgb(225, 216, 176); fill-opacity:1.000; stroke:none;" />
 <path d="  M 56,8  L 55,8  L 55,9  L 54,9  L 54,10  L 56,10  Z  " style="fill:rgb(225, 216, 176); fill-opacity:1.000; stroke:none;" />
 <path d="  M 7,43  L 7,42  L 6,42  L 6,43  Z  " style="fill:rgb(186, 169, 115); fill-opacity:1.000; stroke:none;" />
 <path d="  M 9,42  L 8,42  L 8,43  L 9,43  Z  " style="fill:rgb(186, 169, 115); fill-opacity:1.000; stroke:none;" />
 <path d="  M 11,41  L 9,41  L 9,42  L 11,42  Z  " style="fill:rgb(186, 169, 115); fill-opacity:1.000; stroke:none;" />
 <path d="  M 10,17  L 10,18  L 11,18  L 11,17  Z  " style="fill:rgb(186, 169, 115); fill-opacity:1.000; stroke:none;" />
 <path d="  M 11,25  L 10,25  L 10,26  L 11,26  Z  " style="fill:rgb(186, 169, 115); fill-opacity:1.000; stroke:none;" />
 <path d="  M 11,34  L 11,33  L 10,33  L 10,34  Z  " style="fill:rgb(186, 169, 115); fill-opacity:1.000; stroke:none;" />
 <path d="  M 11,18  L 11,19  L 13,19  L 13,18  Z  " style="fill:rgb(186, 169, 115); fill-opacity:1.000; stroke:none;" />
 <path d="  M 13,26  L 11,26  L 11,27  L 13,27  Z  " style="fill:rgb(186, 169, 115); fill-opacity:1.000; stroke:none;" />
 <path d="  M 11,34  L 11,35  L 17,35  L 17,34  Z  " style="fill:rgb(186, 169, 115); fill-opacity:1.000; stroke:none;" />
 <path d="  M 14,43  L 14,42  L 12,42  L 12,43  Z  " style="fill:rgb(186, 169, 115); fill-opacity:1.000; stroke:none;" />
 <path d="  M 13,17  L 13,18  L 14,18  L 14,17  Z  " style="fill:rgb(186, 169, 115); fill-opacity:1.000; stroke:none;" />
 <path d="  M 14,26  L 14,25  L 13,25  L 13,26  Z  " style="fill:rgb(186, 169, 115); fill-opacity:1.000; stroke:none;" />
 <path d="  M 16,18  L 17,18  L 17,17  L 16,17  Z  " style="fill:rgb(186, 169, 115); fill-opacity:1.000; stroke:none;" />
 <path d="  M 17,26  L 17,25  L 16,25  L 16,26  Z  " style="fill:rgb(186, 169, 115); fill-opacity:1.000; stroke:none;" />
 <path d="  M 17,18  L 17,19  L 19,19  L 19,18  Z  " style="fill:rgb(186, 169, 115); fill-opacity:1.000; stroke:none;" />
 <path d="  M 25,27  L 25,26  L 17,26  L 17,27  Z  " style="fill:rgb(186, 169, 115); fill-opacity:1.000; stroke:none;" />
 <path d="  M 18,33  L 17,33  L 17,34  L 18,34  Z  " style="fill:rgb(186, 169, 115); fill-opacity:1.000; stroke:none;" />
 <path d="  M 17,43  L 19,43  L 19,42  L 21,42  L 21,41  L 17,41  Z  " style="fill:rgb(186, 169, 115); fill-opacity:1.000; stroke:none;" />
 <path d="  M 20,17  L 19,17  L 19,18  L 20,18  Z  " style="fill:rgb(186, 169, 115); fill-opacity:1.000; stroke:none;" />
 <path d="  M 19,34  L 20,34  L 20,33  L 19,33  Z  " style="fill:rgb(186, 169, 115); fill-opacity:1.000; stroke:none;" />
 <path d="  M 23,35  L 23,34  L 20,34  L 20,35  Z  " style="fill:rgb(186, 169, 115); fill-opacity:1.000; stroke:none;" />
 <path d="  M 22,17  L 22,18  L 23,18  L 23,17  Z  " style="fill:rgb(186, 169, 115); fill-opacity:1.000; stroke:none;" />
 <path d="  M 23,41  L 22,41  L 22,42  L 23,42  Z  " style="fill:rgb(186, 169, 115); fill-opacity:1.000; stroke:none;" />
 <path d="  M 29,19  L 29,18  L 23,18  L 23,19  Z  " style="fill:rgb(186, 169, 115); fill-opacity:1.000; stroke:none;" />
 <path d="  M 24,33  L 23,33  L 23,34  L 24,34  Z  " style="fill:rgb(186, 169, 115); fill-opacity:1.000; stroke:none;" />
 <path d="  M 24,42  L 24,43  L 26,43  L 26,42  Z  " style="fill:rgb(186, 169, 115); fill-opacity:1.000; stroke:none;" />
 <path d="  M 25,25  L 25,26  L 26,26  L 26,25  Z  " style="fill:rgb(186, 169, 115); fill-opacity:1.000; stroke:none;" />
 <path d="  M 26,34  L 27,34  L 27,33  L 26,33  Z  " style="fill:rgb(186, 169, 115); fill-opacity:1.000; stroke:none;" />
 <path d="  M 27,34  L 27,35  L 29,35  L 29,34  Z  " style="fill:rgb(186, 169, 115); fill-opacity:1.000; stroke:none;" />
 <path d="  M 29,42  L 29,43  L 33,43  L 33,42  L 30,42  L 30,41  L 27,41  L 27,42  Z  " style="fill:rgb(186, 169, 115); fill-opacity:1.000; stroke:none;" />
 <path d="  M 29,26  L 29,25  L 28,25  L 28,26  Z  " style="fill:rgb(186, 169, 115); fill-opacity:1.000; stroke:none;" />
 <path d="  M 28,45  L 29,45  L 29,44  L 28,44  Z  " style="fill:rgb(186, 169, 115); fill-opacity:1.000; stroke:none;" />
 <path d="  M 28,63  L 28,64  L 29,64  L 29,63  Z  " style="fill:rgb(186, 169, 115); fill-opacity:1.000; stroke:none;" />
 <path d="  M 29,18  L 30,18  L 30,17  L 29,17  Z  " style="fill:rgb(186, 169, 115); fill-opacity:1.000; stroke:none;" />
 <path d="  M 30,26  L 29,26  L 29,27  L 30,27  Z  " style="fill:rgb(186, 169, 115); fill-opacity:1.000; stroke:none;" />
 <path d="  M 29,33  L 29,34  L 30,34  L 30,33  Z  " style="fill:rgb(186, 169, 115); fill-opacity:1.000; stroke:none;" />
 <path d="  M 29,45  L 29,47  L 30,47  L 30,46  L 31,46  L 31,45  Z  " style="fill:rgb(186, 169, 115); fill-opacity:1.000; stroke:none;" />
 <path d="  M 34,61  L 33,61  L 33,62  L 30,62  L 30,63  L 35,63  L 35,58  L 34,58  Z  " style="fill:rgb(186, 169, 115); fill-opacity:1.000; stroke:none;" />
 <path d="  M 33,47  L 33,46  L 31,46  L 31,47  L 32,47  L 32,48  L 33,48  L 33,49  L 34,49  L 34,47  Z  " style="fill:rgb(186, 169, 115); fill-opacity:1.000; stroke:none;" />
 <path d="  M 32,17  L 32,18  L 33,18  L 33,17  Z  " style="fill:rgb(186, 169, 115); fill-opacity:1.000; stroke:none;" />
 <path d="  M 33,26  L 33,25  L 32,25  L 32,26  Z  " style="fill:rgb(186, 169, 115); fill-opacity:1.000; stroke:none;" />
 <path d="  M 32,34  L 33,34  L 33,33  L 32,33  Z  " style="fill:rgb(186, 169, 115); fill-opacity:1.000; stroke:none;" />
 <path d="  M 35,18  L 33,18  L 33,19  L 35,19  Z  " style="fill:rgb(186, 169, 115); fill-opacity:1.000; stroke:none;" />
 <path d="  M 35,27  L 35,26  L 33,26  L 33,27  Z  " style="fill:rgb(186, 169, 115); fill-opacity:1.000; stroke:none;" />
 <path d="  M 39,35  L 39,34  L 33,34  L 33,35  Z  " style="fill:rgb(186, 169, 115); fill-opacity:1.000; stroke:none;" />
 <path d="  M 33,41  L 33,42  L 34,42  L 34,41  Z  " style="fill:rgb(186, 169, 115); fill-opacity:1.000; stroke:none;" />
 <path d="  M 34,47  L 35,47  L 35,46  L 34,46  Z  " style="fill:rgb(186, 169, 115); fill-opacity:1.000; stroke:none;" />
 <path d="  M 35,50  L 34,50  L 34,52  L 35,52  Z  " style="fill:rgb(186, 169, 115); fill-opacity:1.000; stroke:none;" />
 <path d="  M 36,17  L 35,17  L 35,18  L 36,18  Z  " style="fill:rgb(186, 169, 115); fill-opacity:1.000; stroke:none;" />
 <path d="  M 35,25  L 35,26  L 36,26  L 36,25  Z  " style="fill:rgb(186, 169, 115); fill-opacity:1.000; stroke:none;" />
 <path d="  M 35,42  L 35,43  L 37,43  L 37,42  Z  " style="fill:rgb(186, 169, 115); fill-opacity:1.000; stroke:none;" />
 <path d="  M 39,17  L 38,17  L 38,18  L 39,18  Z  " style="fill:rgb(186, 169, 115); fill-opacity:1.000; stroke:none;" />
 <path d="  M 39,26  L 39,25  L 38,25  L 38,26  Z  " style="fill:rgb(186, 169, 115); fill-opacity:1.000; stroke:none;" />
 <path d="  M 38,41  L 38,42  L 40,42  L 40,41  Z  " style="fill:rgb(186, 169, 115); fill-opacity:1.000; stroke:none;" />
 <path d="  M 41,18  L 39,18  L 39,19  L 41,19  Z  " style="fill:rgb(186, 169, 115); fill-opacity:1.000; stroke:none;" />
 <path d="  M 39,26  L 39,27  L 47,27  L 47,26  Z  " style="fill:rgb(186, 169, 115); fill-opacity:1.000; stroke:none;" />
 <path d="  M 40,34  L 40,33  L 39,33  L 39,34  Z  " style="fill:rgb(186, 169, 115); fill-opacity:1.000; stroke:none;" />
 <path d="  M 40,42  L 40,43  L 48,43  L 48,42  L 46,42  L 46,41  L 44,41  L 44,42  Z  " style="fill:rgb(186, 169, 115); fill-opacity:1.000; stroke:none;" />
 <path d="  M 41,18  L 42,18  L 42,17  L 41,17  Z  " style="fill:rgb(186, 169, 115); fill-opacity:1.000; stroke:none;" />
 <path d="  M 42,34  L 42,35  L 46,35  L 46,34  Z  " style="fill:rgb(186, 169, 115); fill-opacity:1.000; stroke:none;" />
 <path d="  M 44,17  L 44,18  L 45,18  L 45,17  Z  " style="fill:rgb(186, 169, 115); fill-opacity:1.000; stroke:none;" />
 <path d="  M 45,18  L 45,19  L 51,19  L 51,18  Z  " style="fill:rgb(186, 169, 115); fill-opacity:1.000; stroke:none;" />
 <path d="  M 48,25  L 47,25  L 47,26  L 48,26  Z  " style="fill:rgb(186, 169, 115); fill-opacity:1.000; stroke:none;" />
 <path d="  M 48,34  L 48,35  L 51,35  L 51,34  Z  " style="fill:rgb(186, 169, 115); fill-opacity:1.000; stroke:none;" />
 <path d="  M 50,27  L 51,27  L 51,26  L 50,26  Z  " style="fill:rgb(186, 169, 115); fill-opacity:1.000; stroke:none;" />
 <path d="  M 52,42  L 50,42  L 50,43  L 54,43  L 54,42  L 53,42  L 53,41  L 52,41  Z  " style="fill:rgb(186, 169, 115); fill-opacity:1.000; stroke:none;" />
 <path d="  M 52,17  L 51,17  L 51,18  L 52,18  Z  " style="fill:rgb(186, 169, 115); fill-opacity:1.000; stroke:none;" />
 <path d="  M 52,26  L 52,25  L 51,25  L 51,26  Z  " style="fill:rgb(186, 169, 115); fill-opacity:1.000; stroke:none;" />
 <path d="  M 52,34  L 52,33  L 51,33  L 51,34  Z  " style="fill:rgb(186, 169, 115); fill-opacity:1.000; stroke:none;" />
 <path d="  M 57,42  L 55,42  L 55,43  L 58,43  L 58,40  L 57,40  Z  " style="fill:rgb(186, 169, 115); fill-opacity:1.000; stroke:none;" />
 <path d="  M 56,8  L 56,11  L 57,11  L 57,9  L 58,9  L 58,8  Z  " style="fill:rgb(186, 169, 115); fill-opacity:1.000; stroke:none;" />
 <path d="  M 57,14  L 56,14  L 56,16  L 57,16  L 57,18  L 58,18  L 58,12  L 57,12  Z  " style="fill:rgb(186, 169, 115); fill-opacity:1.000; stroke:none;" />
 <path d="  M 56,25  L 58,25  L 58,24  L 57,24  L 57,22  L 56,22  Z  " style="fill:rgb(186, 169, 115); fill-opacity:1.000; stroke:none;" />
 <path d="  M 57,34  L 58,34  L 58,33  L 56,33  L 56,35  L 57,35  Z  " style="fill:rgb(186, 169, 115); fill-opacity:1.000; stroke:none;" />
 <path d="  M 57,26  L 57,27  L 58,27  L 58,26  Z  " style="fill:rgb(186, 169, 115); fill-opacity:1.000; stroke:none;" />
 <path d="  M 58,30  L 58,29  L 57,29  L 57,30  Z  " style="fill:rgb(186, 169, 115); fill-opacity:1.000; stroke:none;" />
 <path d="  M 58,37  L 57,37  L 57,38  L 58,38  Z  " style="fill:rgb(186, 169, 115); fill-opacity:1.000; stroke:none;" />
 <path d="  M 9,43  L 8,43  L 8,42  L 7,42  L 7,43  L 6,43  L 6,44  L 11,44  L 11,43  L 12,43  L 12,42  L 9,42  Z  " style="fill:rgb(158, 144, 101); fill-opacity:1.000; stroke:none;" />
 <path d="  M 15,43  L 17,43  L 17,42  L 14,42  L 14,43  L 13,43  L 13,44  L 15,44  Z  " style="fill:rgb(158, 144, 101); fill-opacity:1.000; stroke:none;" />
 <path d="  M 23,43  L 23,44  L 25,44  L 25,43  L 24,43  L 24,42  L 19,42  L 19,44  L 22,44  L 22,43  Z  " style="fill:rgb(158, 144, 101); fill-opacity:1.000; stroke:none;" />
 <path d="  M 31,44  L 31,43  L 29,43  L 29,42  L 26,42  L 26,43  L 28,43  L 28,44  Z  " style="fill:rgb(158, 144, 101); fill-opacity:1.000; stroke:none;" />
 <path d="  M 29,63  L 29,64  L 36,64  L 36,54  L 35,54  L 35,63  Z  " style="fill:rgb(158, 144, 101); fill-opacity:1.000; stroke:none;" />
 <path d="  M 31,45  L 31,46  L 33,46  L 33,47  L 34,47  L 34,46  L 35,46  L 35,45  Z  " style="fill:rgb(158, 144, 101); fill-opacity:1.000; stroke:none;" />
 <path d="  M 35,42  L 33,42  L 33,43  L 32,43  L 32,44  L 34,44  L 34,43  L 35,43  Z  " style="fill:rgb(158, 144, 101); fill-opacity:1.000; stroke:none;" />
 <path d="  M 34,50  L 36,50  L 36,49  L 35,49  L 35,48  L 36,48  L 36,47  L 34,47  Z  " style="fill:rgb(158, 144, 101); fill-opacity:1.000; stroke:none;" />
 <path d="  M 35,53  L 36,53  L 36,52  L 35,52  Z  " style="fill:rgb(158, 144, 101); fill-opacity:1.000; stroke:none;" />
 <path d="  M 38,43  L 38,44  L 42,44  L 42,43  L 40,43  L 40,42  L 37,42  L 37,43  Z  " style="fill:rgb(158, 144, 101); fill-opacity:1.000; stroke:none;" />
 <path d="  M 48,44  L 48,43  L 43,43  L 43,44  Z  " style="fill:rgb(158, 144, 101); fill-opacity:1.000; stroke:none;" />
 <path d="  M 48,42  L 48,43  L 50,43  L 50,42  Z  " style="fill:rgb(158, 144, 101); fill-opacity:1.000; stroke:none;" />
 <path d="  M 56,43  L 55,43  L 55,42  L 54,42  L 54,43  L 53,43  L 53,44  L 56,44  Z  " style="fill:rgb(158, 144, 101); fill-opacity:1.000; stroke:none;" />
 <path d="  M 57,9  L 57,12  L 58,12  L 58,9  Z  " style="fill:rgb(158, 144, 101); fill-opacity:1.000; stroke:none;" />
 <path d="  M 57,24  L 58,24  L 58,19  L 57,19  Z  " style="fill:rgb(158, 144, 101); fill-opacity:1.000; stroke:none;" />
 <path d="  M 57,25  L 57,26  L 58,26  L 58,25  Z  " style="fill:rgb(158, 144, 101); fill-opacity:1.000; stroke:none;" />
 <path d="  M 57,29  L 58,29  L 58,27  L 57,27  Z  " style="fill:rgb(158, 144, 101); fill-opacity:1.000; stroke:none;" />
 <path d="  M 58,33  L 58,32  L 57,32  L 57,33  Z  " style="fill:rgb(158, 144, 101); fill-opacity:1.000; stroke:none;" />
 <path d="  M 57,37  L 58,37  L 58,34  L 57,34  Z  " style="fill:rgb(158, 144, 101); fill-opacity:1.000; stroke:none;" />
 <path d="  M 57,43  L 57,44  L 58,44  L 58,43  Z  " style="fill:rgb(158, 144, 101); fill-opacity:1.000; stroke:none;" />
 <path d="  M 7,13  L 8,13  L 8,16  L 7,16  L 7,17  L 8,17  L 8,18  L 7,18  L 7,19  L 8,19  L 8,21  L 7,21  L 7,25  L 8,25  L 8,27  L 7,27  L 7,28  L 8,28  L 8,31  L 7,31  L 7,35  L 8,35  L 8,36  L 7,36  L 7,37  L 8,37  L 8,40  L 7,40  L 7,41  L 8,41  L 8,42  L 9,42  L 9,41  L 14,41  L 14,42  L 17,42  L 17,41  L 21,41  L 21,42  L 22,42  L 22,41  L 25,41  L 25,42  L 27,42  L 27,41  L 32,41  L 32,42  L 33,42  L 33,41  L 34,41  L 34,42  L 38,42  L 38,41  L 40,41  L 40,42  L 41,42  L 41,41  L 47,41  L 47,42  L 49,42  L 49,41  L 53,41  L 53,42  L 54,42  L 54,41  L 56,41  L 56,38  L 57,38  L 57,35  L 56,35  L 56,31  L 57,31  L 57,30  L 56,30  L 56,27  L 57,27  L 57,26  L 56,26  L 56,19  L 57,19  L 57,17  L 56,17  L 56,14  L 57,14  L 57,13  L 56,13  L 56,10  L 54,10  L 54,9  L 53,9  L 53,10  L 52,10  L 52,9  L 50,9  L 50,10  L 49,10  L 49,9  L 46,9  L 46,10  L 41,10  L 41,9  L 39,9  L 39,10  L 38,10  L 38,9  L 36,9  L 36,10  L 34,10  L 34,9  L 30,9  L 30,10  L 24,10  L 24,9  L 21,9  L 21,10  L 19,10  L 19,9  L 15,9  L 15,10  L 10,10  L 10,9  L 9,9  L 9,10  L 8,10  L 8,11  L 7,11  Z  M 39,27  L 39,26  L 38,26  L 38,23  L 39,23  L 39,22  L 41,22  L 41,23  L 42,23  L 42,24  L 45,24  L 45,23  L 46,23  L 46,22  L 47,22  L 47,23  L 48,23  L 48,26  L 47,26  L 47,27  Z  M 42,15  L 42,18  L 41,18  L 41,19  L 39,19  L 39,18  L 38,18  L 38,15  L 39,15  L 39,14  L 41,14  L 41,15  Z  M 33,35  L 33,34  L 32,34  L 32,30  L 33,30  L 33,31  L 34,31  L 34,32  L 36,32  L 36,30  L 37,30  L 37,28  L 38,28  L 38,31  L 39,31  L 39,30  L 40,30  L 40,34  L 39,34  L 39,35  Z  M 52,18  L 51,18  L 51,19  L 45,19  L 45,18  L 44,18  L 44,14  L 46,14  L 46,12  L 47,12  L 47,13  L 48,13  L 48,16  L 49,16  L 49,17  L 50,17  L 50,13  L 51,13  L 51,14  L 52,14  Z  M 10,30  L 11,30  L 11,31  L 12,31  L 12,32  L 14,32  L 14,30  L 15,30  L 15,28  L 16,28  L 16,30  L 17,30  L 17,31  L 18,31  L 18,34  L 17,34  L 17,35  L 11,35  L 11,34  L 10,34  Z  M 16,18  L 16,15  L 17,15  L 17,14  L 19,14  L 19,15  L 20,15  L 20,18  L 19,18  L 19,19  L 17,19  L 17,18  Z  M 30,34  L 29,34  L 29,35  L 27,35  L 27,34  L 26,34  L 26,32  L 28,32  L 28,30  L 29,30  L 29,28  L 30,28  Z  M 16,23  L 17,23  L 17,22  L 19,22  L 19,23  L 20,23  L 20,24  L 23,24  L 23,23  L 24,23  L 24,22  L 25,22  L 25,23  L 26,23  L 26,26  L 25,26  L 25,27  L 17,27  L 17,26  L 16,26  Z  M 28,12  L 29,12  L 29,14  L 30,14  L 30,18  L 29,18  L 29,19  L 23,19  L 23,18  L 22,18  L 22,15  L 23,15  L 23,14  L 24,14  L 24,15  L 25,15  L 25,14  L 26,14  L 26,16  L 27,16  L 27,15  L 28,15  Z  M 30,27  L 29,27  L 29,26  L 28,26  L 28,22  L 29,22  L 29,23  L 30,23  Z  M 12,21  L 13,21  L 13,20  L 14,20  L 14,26  L 13,26  L 13,27  L 11,27  L 11,26  L 10,26  L 10,24  L 12,24  Z  M 33,19  L 33,18  L 32,18  L 32,13  L 33,13  L 33,12  L 34,12  L 34,16  L 36,16  L 36,18  L 35,18  L 35,19  Z  M 21,33  L 22,33  L 22,32  L 24,32  L 24,34  L 23,34  L 23,35  L 20,35  L 20,34  L 19,34  L 19,32  L 21,32  Z  M 35,21  L 36,21  L 36,26  L 35,26  L 35,27  L 33,27  L 33,26  L 32,26  L 32,24  L 34,24  L 34,20  L 35,20  Z  M 10,12  L 11,12  L 11,13  L 12,13  L 12,16  L 14,16  L 14,18  L 13,18  L 13,19  L 11,19  L 11,18  L 10,18  Z  M 50,32  L 50,29  L 51,29  L 51,28  L 52,28  L 52,34  L 51,34  L 51,35  L 48,35  L 48,33  L 49,33  L 49,32  Z  M 52,26  L 51,26  L 51,27  L 50,27  L 50,23  L 51,23  L 51,22  L 52,22  Z  M 42,35  L 42,33  L 43,33  L 43,32  L 45,32  L 45,33  L 46,33  L 46,35  Z  " style="fill:rgb(215, 203, 141); fill-opacity:1.000; stroke:none;" />
 <path d="  M 28,63  L 29,63  L 29,45  L 28,45  Z  " style="fill:rgb(215, 203, 141); fill-opacity:1.000; stroke:none;" />
 <path d="  M 10,14  L 11,14  L 11,15  L 12,15  L 12,13  L 11,13  L 11,12  L 10,12  Z  " style="fill:rgb(63, 45, 14); fill-opacity:1.000; stroke:none;" />
 <path d="  M 10,15  L 10,16  L 11,16  L 11,15  Z  " style="fill:rgb(63, 45, 14); fill-opacity:1.000; stroke:none;" />
 <path d="  M 11,32  L 11,30  L 10,30  L 10,32  Z  " style="fill:rgb(63, 45, 14); fill-opacity:1.000; stroke:none;" />
 <path d="  M 13,23  L 12,23  L 12,24  L 11,24  L 11,25  L 13,25  L 13,24  L 14,24  L 14,22  L 13,22  Z  " style="fill:rgb(63, 45, 14); fill-opacity:1.000; stroke:none;" />
 <path d="  M 13,17  L 13,16  L 12,16  L 12,17  Z  " style="fill:rgb(63, 45, 14); fill-opacity:1.000; stroke:none;" />
 <path d="  M 12,33  L 12,34  L 13,34  L 13,33  Z  " style="fill:rgb(63, 45, 14); fill-opacity:1.000; stroke:none;" />
 <path d="  M 13,33  L 14,33  L 14,34  L 16,34  L 16,33  L 15,33  L 15,32  L 16,32  L 16,31  L 15,31  L 15,30  L 14,30  L 14,32  L 13,32  Z  " style="fill:rgb(63, 45, 14); fill-opacity:1.000; stroke:none;" />
 <path d="  M 15,29  L 16,29  L 16,28  L 15,28  Z  " style="fill:rgb(63, 45, 14); fill-opacity:1.000; stroke:none;" />
 <path d="  M 17,24  L 17,23  L 16,23  L 16,24  Z  " style="fill:rgb(63, 45, 14); fill-opacity:1.000; stroke:none;" />
 <path d="  M 17,32  L 16,32  L 16,33  L 17,33  Z  " style="fill:rgb(63, 45, 14); fill-opacity:1.000; stroke:none;" />
 <path d="  M 19,25  L 19,26  L 20,26  L 20,25  L 21,25  L 21,24  L 20,24  L 20,23  L 19,23  L 19,22  L 17,22  L 17,23  L 18,23  L 18,25  Z  " style="fill:rgb(63, 45, 14); fill-opacity:1.000; stroke:none;" />
 <path d="  M 18,25  L 17,25  L 17,26  L 18,26  Z  " style="fill:rgb(63, 45, 14); fill-opacity:1.000; stroke:none;" />
 <path d="  M 19,14  L 18,14  L 18,16  L 19,16  Z  " style="fill:rgb(63, 45, 14); fill-opacity:1.000; stroke:none;" />
 <path d="  M 18,17  L 18,18  L 19,18  L 19,17  Z  " style="fill:rgb(63, 45, 14); fill-opacity:1.000; stroke:none;" />
 <path d="  M 19,17  L 20,17  L 20,16  L 19,16  Z  " style="fill:rgb(63, 45, 14); fill-opacity:1.000; stroke:none;" />
 <path d="  M 21,32  L 19,32  L 19,33  L 20,33  L 20,34  L 21,34  Z  " style="fill:rgb(63, 45, 14); fill-opacity:1.000; stroke:none;" />
 <path d="  M 22,26  L 22,25  L 21,25  L 21,26  Z  " style="fill:rgb(63, 45, 14); fill-opacity:1.000; stroke:none;" />
 <path d="  M 22,17  L 23,17  L 23,16  L 22,16  Z  " style="fill:rgb(63, 45, 14); fill-opacity:1.000; stroke:none;" />
 <path d="  M 23,32  L 22,32  L 22,33  L 23,33  Z  " style="fill:rgb(63, 45, 14); fill-opacity:1.000; stroke:none;" />
 <path d="  M 23,14  L 23,16  L 24,16  L 24,17  L 25,17  L 25,16  L 26,16  L 26,14  L 25,14  L 25,15  L 24,15  L 24,14  Z  " style="fill:rgb(63, 45, 14); fill-opacity:1.000; stroke:none;" />
 <path d="  M 23,24  L 23,25  L 24,25  L 24,24  Z  " style="fill:rgb(63, 45, 14); fill-opacity:1.000; stroke:none;" />
 <path d="  M 25,23  L 25,22  L 24,22  L 24,24  L 26,24  L 26,23  Z  " style="fill:rgb(63, 45, 14); fill-opacity:1.000; stroke:none;" />
 <path d="  M 27,17  L 27,18  L 28,18  L 28,15  L 27,15  L 27,16  L 26,16  L 26,17  Z  " style="fill:rgb(63, 45, 14); fill-opacity:1.000; stroke:none;" />
 <path d="  M 28,15  L 29,15  L 29,12  L 28,12  Z  " style="fill:rgb(63, 45, 14); fill-opacity:1.000; stroke:none;" />
 <path d="  M 29,23  L 29,22  L 28,22  L 28,23  Z  " style="fill:rgb(63, 45, 14); fill-opacity:1.000; stroke:none;" />
 <path d="  M 29,31  L 29,30  L 28,30  L 28,31  Z  " style="fill:rgb(63, 45, 14); fill-opacity:1.000; stroke:none;" />
 <path d="  M 29,32  L 28,32  L 28,33  L 29,33  Z  " style="fill:rgb(63, 45, 14); fill-opacity:1.000; stroke:none;" />
 <path d="  M 30,15  L 29,15  L 29,16  L 30,16  Z  " style="fill:rgb(63, 45, 14); fill-opacity:1.000; stroke:none;" />
 <path d="  M 30,23  L 29,23  L 29,25  L 30,25  Z  " style="fill:rgb(63, 45, 14); fill-opacity:1.000; stroke:none;" />
 <path d="  M 29,28  L 29,29  L 30,29  L 30,28  Z  " style="fill:rgb(63, 45, 14); fill-opacity:1.000; stroke:none;" />
 <path d="  M 30,32  L 30,31  L 29,31  L 29,32  Z  " style="fill:rgb(63, 45, 14); fill-opacity:1.000; stroke:none;" />
 <path d="  M 33,14  L 33,13  L 32,13  L 32,14  Z  " style="fill:rgb(63, 45, 14); fill-opacity:1.000; stroke:none;" />
 <path d="  M 33,15  L 32,15  L 32,16  L 33,16  Z  " style="fill:rgb(63, 45, 14); fill-opacity:1.000; stroke:none;" />
 <path d="  M 33,32  L 33,30  L 32,30  L 32,32  Z  " style="fill:rgb(63, 45, 14); fill-opacity:1.000; stroke:none;" />
 <path d="  M 33,12  L 33,13  L 34,13  L 34,12  Z  " style="fill:rgb(63, 45, 14); fill-opacity:1.000; stroke:none;" />
 <path d="  M 33,16  L 33,17  L 34,17  L 34,18  L 35,18  L 35,16  Z  " style="fill:rgb(63, 45, 14); fill-opacity:1.000; stroke:none;" />
 <path d="  M 35,25  L 35,24  L 33,24  L 33,25  Z  " style="fill:rgb(63, 45, 14); fill-opacity:1.000; stroke:none;" />
 <path d="  M 36,22  L 36,21  L 34,21  L 34,22  Z  " style="fill:rgb(63, 45, 14); fill-opacity:1.000; stroke:none;" />
 <path d="  M 34,34  L 36,34  L 36,33  L 35,33  L 35,32  L 34,32  Z  " style="fill:rgb(63, 45, 14); fill-opacity:1.000; stroke:none;" />
 <path d="  M 36,24  L 36,23  L 35,23  L 35,24  Z  " style="fill:rgb(63, 45, 14); fill-opacity:1.000; stroke:none;" />
 <path d="  M 36,32  L 37,32  L 37,33  L 39,33  L 39,32  L 38,32  L 38,31  L 37,31  L 37,30  L 36,30  Z  " style="fill:rgb(63, 45, 14); fill-opacity:1.000; stroke:none;" />
 <path d="  M 38,29  L 38,28  L 37,28  L 37,29  Z  " style="fill:rgb(63, 45, 14); fill-opacity:1.000; stroke:none;" />
 <path d="  M 38,16  L 38,17  L 39,17  L 39,18  L 40,18  L 40,15  L 39,15  L 39,16  Z  " style="fill:rgb(63, 45, 14); fill-opacity:1.000; stroke:none;" />
 <path d="  M 39,22  L 39,23  L 38,23  L 38,24  L 40,24  L 40,23  L 41,23  L 41,22  Z  " style="fill:rgb(63, 45, 14); fill-opacity:1.000; stroke:none;" />
 <path d="  M 39,31  L 39,32  L 40,32  L 40,31  Z  " style="fill:rgb(63, 45, 14); fill-opacity:1.000; stroke:none;" />
 <path d="  M 40,14  L 40,15  L 41,15  L 41,14  Z  " style="fill:rgb(63, 45, 14); fill-opacity:1.000; stroke:none;" />
 <path d="  M 44,26  L 44,25  L 46,25  L 46,23  L 45,23  L 45,24  L 42,24  L 42,23  L 41,23  L 41,24  L 40,24  L 40,25  L 42,25  L 42,26  Z  " style="fill:rgb(63, 45, 14); fill-opacity:1.000; stroke:none;" />
 <path d="  M 41,15  L 41,16  L 42,16  L 42,15  Z  " style="fill:rgb(63, 45, 14); fill-opacity:1.000; stroke:none;" />
 <path d="  M 42,33  L 42,34  L 45,34  L 45,33  L 44,33  L 44,32  L 43,32  L 43,33  Z  " style="fill:rgb(63, 45, 14); fill-opacity:1.000; stroke:none;" />
 <path d="  M 44,15  L 44,16  L 45,16  L 45,15  Z  " style="fill:rgb(63, 45, 14); fill-opacity:1.000; stroke:none;" />
 <path d="  M 45,16  L 45,17  L 46,17  L 46,16  Z  " style="fill:rgb(63, 45, 14); fill-opacity:1.000; stroke:none;" />
 <path d="  M 47,12  L 46,12  L 46,15  L 47,15  Z  " style="fill:rgb(63, 45, 14); fill-opacity:1.000; stroke:none;" />
 <path d="  M 46,18  L 47,18  L 47,17  L 46,17  Z  " style="fill:rgb(63, 45, 14); fill-opacity:1.000; stroke:none;" />
 <path d="  M 47,22  L 46,22  L 46,23  L 47,23  Z  " style="fill:rgb(63, 45, 14); fill-opacity:1.000; stroke:none;" />
 <path d="  M 48,16  L 48,15  L 47,15  L 47,16  Z  " style="fill:rgb(63, 45, 14); fill-opacity:1.000; stroke:none;" />
 <path d="  M 48,24  L 48,23  L 47,23  L 47,24  Z  " style="fill:rgb(63, 45, 14); fill-opacity:1.000; stroke:none;" />
 <path d="  M 50,18  L 50,17  L 49,17  L 49,16  L 48,16  L 48,18  Z  " style="fill:rgb(63, 45, 14); fill-opacity:1.000; stroke:none;" />
 <path d="  M 50,15  L 51,15  L 51,16  L 52,16  L 52,14  L 51,14  L 51,13  L 50,13  Z  " style="fill:rgb(63, 45, 14); fill-opacity:1.000; stroke:none;" />
 <path d="  M 51,25  L 51,23  L 50,23  L 50,25  Z  " style="fill:rgb(63, 45, 14); fill-opacity:1.000; stroke:none;" />
 <path d="  M 51,29  L 50,29  L 50,31  L 51,31  Z  " style="fill:rgb(63, 45, 14); fill-opacity:1.000; stroke:none;" />
 <path d="  M 51,32  L 50,32  L 50,33  L 51,33  Z  " style="fill:rgb(63, 45, 14); fill-opacity:1.000; stroke:none;" />
 <path d="  M 52,22  L 51,22  L 51,23  L 52,23  Z  " style="fill:rgb(63, 45, 14); fill-opacity:1.000; stroke:none;" />
 <path d="  M 52,29  L 52,28  L 51,28  L 51,29  Z  " style="fill:rgb(63, 45, 14); fill-opacity:1.000; stroke:none;" />
 <path d="  M 52,32  L 52,31  L 51,31  L 51,32  Z  " style="fill:rgb(63, 45, 14); fill-opacity:1.000; stroke:none;" />
 <path d="  M 10,14  L 10,15  L 11,15  L 11,14  Z  " style="fill:rgb(33, 25, 11); fill-opacity:1.000; stroke:none;" />
 <path d="  M 10,17  L 11,17  L 11,18  L 13,18  L 13,17  L 12,17  L 12,15  L 11,15  L 11,16  L 10,16  Z  " style="fill:rgb(33, 25, 11); fill-opacity:1.000; stroke:none;" />
 <path d="  M 11,25  L 11,24  L 10,24  L 10,25  Z  " style="fill:rgb(33, 25, 11); fill-opacity:1.000; stroke:none;" />
 <path d="  M 11,32  L 10,32  L 10,33  L 11,33  L 11,34  L 12,34  L 12,33  L 13,33  L 13,32  L 12,32  L 12,31  L 11,31  Z  " style="fill:rgb(33, 25, 11); fill-opacity:1.000; stroke:none;" />
 <path d="  M 13,25  L 11,25  L 11,26  L 13,26  Z  " style="fill:rgb(33, 25, 11); fill-opacity:1.000; stroke:none;" />
 <path d="  M 13,20  L 13,21  L 12,21  L 12,23  L 13,23  L 13,22  L 14,22  L 14,20  Z  " style="fill:rgb(33, 25, 11); fill-opacity:1.000; stroke:none;" />
 <path d="  M 14,16  L 13,16  L 13,17  L 14,17  Z  " style="fill:rgb(33, 25, 11); fill-opacity:1.000; stroke:none;" />
 <path d="  M 13,24  L 13,25  L 14,25  L 14,24  Z  " style="fill:rgb(33, 25, 11); fill-opacity:1.000; stroke:none;" />
 <path d="  M 13,34  L 14,34  L 14,33  L 13,33  Z  " style="fill:rgb(33, 25, 11); fill-opacity:1.000; stroke:none;" />
 <path d="  M 18,31  L 17,31  L 17,30  L 16,30  L 16,29  L 15,29  L 15,31  L 16,31  L 16,32  L 17,32  L 17,33  L 18,33  Z  " style="fill:rgb(33, 25, 11); fill-opacity:1.000; stroke:none;" />
 <path d="  M 16,32  L 15,32  L 15,33  L 16,33  Z  " style="fill:rgb(33, 25, 11); fill-opacity:1.000; stroke:none;" />
 <path d="  M 16,17  L 17,17  L 17,18  L 18,18  L 18,17  L 19,17  L 19,16  L 18,16  L 18,14  L 17,14  L 17,15  L 16,15  Z  " style="fill:rgb(33, 25, 11); fill-opacity:1.000; stroke:none;" />
 <path d="  M 16,25  L 18,25  L 18,23  L 17,23  L 17,24  L 16,24  Z  " style="fill:rgb(33, 25, 11); fill-opacity:1.000; stroke:none;" />
 <path d="  M 17,33  L 16,33  L 16,34  L 17,34  Z  " style="fill:rgb(33, 25, 11); fill-opacity:1.000; stroke:none;" />
 <path d="  M 19,25  L 18,25  L 18,26  L 19,26  Z  " style="fill:rgb(33, 25, 11); fill-opacity:1.000; stroke:none;" />
 <path d="  M 19,15  L 19,16  L 20,16  L 20,15  Z  " style="fill:rgb(33, 25, 11); fill-opacity:1.000; stroke:none;" />
 <path d="  M 21,25  L 20,25  L 20,26  L 21,26  Z  " style="fill:rgb(33, 25, 11); fill-opacity:1.000; stroke:none;" />
 <path d="  M 26,25  L 26,24  L 24,24  L 24,25  L 23,25  L 23,24  L 21,24  L 21,25  L 22,25  L 22,26  L 25,26  L 25,25  Z  " style="fill:rgb(33, 25, 11); fill-opacity:1.000; stroke:none;" />
 <path d="  M 21,33  L 21,34  L 23,34  L 23,33  Z  " style="fill:rgb(33, 25, 11); fill-opacity:1.000; stroke:none;" />
 <path d="  M 23,15  L 22,15  L 22,16  L 23,16  Z  " style="fill:rgb(33, 25, 11); fill-opacity:1.000; stroke:none;" />
 <path d="  M 27,18  L 27,17  L 26,17  L 26,16  L 25,16  L 25,17  L 24,17  L 24,16  L 23,16  L 23,18  Z  " style="fill:rgb(33, 25, 11); fill-opacity:1.000; stroke:none;" />
 <path d="  M 23,23  L 23,24  L 24,24  L 24,23  Z  " style="fill:rgb(33, 25, 11); fill-opacity:1.000; stroke:none;" />
 <path d="  M 24,33  L 24,32  L 23,32  L 23,33  Z  " style="fill:rgb(33, 25, 11); fill-opacity:1.000; stroke:none;" />
 <path d="  M 29,34  L 29,33  L 28,33  L 28,32  L 26,32  L 26,33  L 27,33  L 27,34  Z  " style="fill:rgb(33, 25, 11); fill-opacity:1.000; stroke:none;" />
 <path d="  M 28,18  L 29,18  L 29,17  L 30,17  L 30,16  L 29,16  L 29,15  L 28,15  Z  " style="fill:rgb(33, 25, 11); fill-opacity:1.000; stroke:none;" />
 <path d="  M 28,23  L 28,25  L 29,25  L 29,23  Z  " style="fill:rgb(33, 25, 11); fill-opacity:1.000; stroke:none;" />
 <path d="  M 28,31  L 28,32  L 29,32  L 29,31  Z  " style="fill:rgb(33, 25, 11); fill-opacity:1.000; stroke:none;" />
 <path d="  M 30,15  L 30,14  L 29,14  L 29,15  Z  " style="fill:rgb(33, 25, 11); fill-opacity:1.000; stroke:none;" />
 <path d="  M 29,25  L 29,26  L 30,26  L 30,25  Z  " style="fill:rgb(33, 25, 11); fill-opacity:1.000; stroke:none;" />
 <path d="  M 29,31  L 30,31  L 30,29  L 29,29  Z  " style="fill:rgb(33, 25, 11); fill-opacity:1.000; stroke:none;" />
 <path d="  M 29,33  L 30,33  L 30,32  L 29,32  Z  " style="fill:rgb(33, 25, 11); fill-opacity:1.000; stroke:none;" />
 <path d="  M 33,14  L 32,14  L 32,15  L 33,15  L 33,16  L 34,16  L 34,13  L 33,13  Z  " style="fill:rgb(33, 25, 11); fill-opacity:1.000; stroke:none;" />
 <path d="  M 32,17  L 33,17  L 33,16  L 32,16  Z  " style="fill:rgb(33, 25, 11); fill-opacity:1.000; stroke:none;" />
 <path d="  M 33,25  L 33,24  L 32,24  L 32,25  Z  " style="fill:rgb(33, 25, 11); fill-opacity:1.000; stroke:none;" />
 <path d="  M 34,31  L 33,31  L 33,32  L 32,32  L 32,33  L 33,33  L 33,34  L 34,34  Z  " style="fill:rgb(33, 25, 11); fill-opacity:1.000; stroke:none;" />
 <path d="  M 34,18  L 34,17  L 33,17  L 33,18  Z  " style="fill:rgb(33, 25, 11); fill-opacity:1.000; stroke:none;" />
 <path d="  M 35,26  L 35,25  L 33,25  L 33,26  Z  " style="fill:rgb(33, 25, 11); fill-opacity:1.000; stroke:none;" />
 <path d="  M 34,20  L 34,21  L 35,21  L 35,20  Z  " style="fill:rgb(33, 25, 11); fill-opacity:1.000; stroke:none;" />
 <path d="  M 34,22  L 34,24  L 35,24  L 35,23  L 36,23  L 36,22  Z  " style="fill:rgb(33, 25, 11); fill-opacity:1.000; stroke:none;" />
 <path d="  M 35,16  L 35,17  L 36,17  L 36,16  Z  " style="fill:rgb(33, 25, 11); fill-opacity:1.000; stroke:none;" />
 <path d="  M 35,24  L 35,25  L 36,25  L 36,24  Z  " style="fill:rgb(33, 25, 11); fill-opacity:1.000; stroke:none;" />
 <path d="  M 39,33  L 37,33  L 37,32  L 35,32  L 35,33  L 36,33  L 36,34  L 39,34  Z  " style="fill:rgb(33, 25, 11); fill-opacity:1.000; stroke:none;" />
 <path d="  M 37,31  L 38,31  L 38,29  L 37,29  Z  " style="fill:rgb(33, 25, 11); fill-opacity:1.000; stroke:none;" />
 <path d="  M 38,15  L 38,16  L 39,16  L 39,15  Z  " style="fill:rgb(33, 25, 11); fill-opacity:1.000; stroke:none;" />
 <path d="  M 40,25  L 40,24  L 38,24  L 38,25  L 39,25  L 39,26  L 42,26  L 42,25  Z  " style="fill:rgb(33, 25, 11); fill-opacity:1.000; stroke:none;" />
 <path d="  M 38,31  L 38,32  L 39,32  L 39,31  Z  " style="fill:rgb(33, 25, 11); fill-opacity:1.000; stroke:none;" />
 <path d="  M 39,14  L 39,15  L 40,15  L 40,14  Z  " style="fill:rgb(33, 25, 11); fill-opacity:1.000; stroke:none;" />
 <path d="  M 39,31  L 40,31  L 40,30  L 39,30  Z  " style="fill:rgb(33, 25, 11); fill-opacity:1.000; stroke:none;" />
 <path d="  M 40,32  L 39,32  L 39,33  L 40,33  Z  " style="fill:rgb(33, 25, 11); fill-opacity:1.000; stroke:none;" />
 <path d="  M 40,18  L 41,18  L 41,17  L 42,17  L 42,16  L 41,16  L 41,15  L 40,15  Z  " style="fill:rgb(33, 25, 11); fill-opacity:1.000; stroke:none;" />
 <path d="  M 41,23  L 40,23  L 40,24  L 41,24  Z  " style="fill:rgb(33, 25, 11); fill-opacity:1.000; stroke:none;" />
 <path d="  M 47,17  L 47,18  L 48,18  L 48,16  L 47,16  L 47,15  L 46,15  L 46,14  L 44,14  L 44,15  L 45,15  L 45,16  L 46,16  L 46,17  Z  " style="fill:rgb(33, 25, 11); fill-opacity:1.000; stroke:none;" />
 <path d="  M 45,16  L 44,16  L 44,17  L 45,17  Z  " style="fill:rgb(33, 25, 11); fill-opacity:1.000; stroke:none;" />
 <path d="  M 44,25  L 44,26  L 47,26  L 47,25  L 48,25  L 48,24  L 47,24  L 47,23  L 46,23  L 46,25  Z  " style="fill:rgb(33, 25, 11); fill-opacity:1.000; stroke:none;" />
 <path d="  M 44,32  L 44,33  L 45,33  L 45,32  Z  " style="fill:rgb(33, 25, 11); fill-opacity:1.000; stroke:none;" />
 <path d="  M 46,18  L 46,17  L 45,17  L 45,18  Z  " style="fill:rgb(33, 25, 11); fill-opacity:1.000; stroke:none;" />
 <path d="  M 45,34  L 46,34  L 46,33  L 45,33  Z  " style="fill:rgb(33, 25, 11); fill-opacity:1.000; stroke:none;" />
 <path d="  M 48,13  L 47,13  L 47,15  L 48,15  Z  " style="fill:rgb(33, 25, 11); fill-opacity:1.000; stroke:none;" />
 <path d="  M 51,33  L 50,33  L 50,32  L 49,32  L 49,33  L 48,33  L 48,34  L 51,34  Z  " style="fill:rgb(33, 25, 11); fill-opacity:1.000; stroke:none;" />
 <path d="  M 51,17  L 52,17  L 52,16  L 51,16  L 51,15  L 50,15  L 50,18  L 51,18  Z  " style="fill:rgb(33, 25, 11); fill-opacity:1.000; stroke:none;" />
 <path d="  M 51,25  L 50,25  L 50,26  L 51,26  Z  " style="fill:rgb(33, 25, 11); fill-opacity:1.000; stroke:none;" />
 <path d="  M 51,32  L 51,31  L 50,31  L 50,32  Z  " style="fill:rgb(33, 25, 11); fill-opacity:1.000; stroke:none;" />
 <path d="  M 51,23  L 51,25  L 52,25  L 52,23  Z  " style="fill:rgb(33, 25, 11); fill-opacity:1.000; stroke:none;" />
 <path d="  M 51,31  L 52,31  L 52,29  L 51,29  Z  " style="fill:rgb(33, 25, 11); fill-opacity:1.000; stroke:none;" />
 <path d="  M 52,32  L 51,32  L 51,33  L 52,33  Z  " style="fill:rgb(33, 25, 11); fill-opacity:1.000; stroke:none;" />
 <path d="  M 14,41  L 11,41  L 11,42  L 14,42  Z  " style="fill:rgb(182, 174, 135); fill-opacity:1.000; stroke:none;" />
 <path d="  M 25,42  L 25,41  L 23,41  L 23,42  Z  " style="fill:rgb(182, 174, 135); fill-opacity:1.000; stroke:none;" />
 <path d="  M 35,52  L 34,52  L 34,49  L 33,49  L 33,48  L 32,48  L 32,47  L 31,47  L 31,46  L 30,46  L 30,47  L 29,47  L 29,63  L 30,63  L 30,62  L 33,62  L 33,61  L 34,61  L 34,58  L 35,58  Z  " style="fill:rgb(182, 174, 135); fill-opacity:1.000; stroke:none;" />
 <path d="  M 30,42  L 32,42  L 32,41  L 30,41  Z  " style="fill:rgb(182, 174, 135); fill-opacity:1.000; stroke:none;" />
 <path d="  M 44,41  L 41,41  L 41,42  L 44,42  Z  " style="fill:rgb(182, 174, 135); fill-opacity:1.000; stroke:none;" />
 <path d="  M 47,42  L 47,41  L 46,41  L 46,42  Z  " style="fill:rgb(182, 174, 135); fill-opacity:1.000; stroke:none;" />
 <path d="  M 52,42  L 52,41  L 49,41  L 49,42  Z  " style="fill:rgb(182, 174, 135); fill-opacity:1.000; stroke:none;" />
 <path d="  M 54,41  L 54,42  L 57,42  L 57,40  L 58,40  L 58,38  L 56,38  L 56,41  Z  " style="fill:rgb(182, 174, 135); fill-opacity:1.000; stroke:none;" />
 <path d="  M 57,11  L 56,11  L 56,13  L 57,13  Z  " style="fill:rgb(182, 174, 135); fill-opacity:1.000; stroke:none;" />
 <path d="  M 57,16  L 56,16  L 56,17  L 57,17  Z  " style="fill:rgb(182, 174, 135); fill-opacity:1.000; stroke:none;" />
 <path d="  M 57,19  L 56,19  L 56,22  L 57,22  Z  " style="fill:rgb(182, 174, 135); fill-opacity:1.000; stroke:none;" />
 <path d="  M 57,26  L 57,25  L 56,25  L 56,26  Z  " style="fill:rgb(182, 174, 135); fill-opacity:1.000; stroke:none;" />
 <path d="  M 56,30  L 57,30  L 57,27  L 56,27  Z  " style="fill:rgb(182, 174, 135); fill-opacity:1.000; stroke:none;" />
 <path d="  M 57,32  L 58,32  L 58,30  L 57,30  L 57,31  L 56,31  L 56,33  L 57,33  Z  " style="fill:rgb(182, 174, 135); fill-opacity:1.000; stroke:none;" />
 <path d="  M 58,18  L 57,18  L 57,19  L 58,19  Z  " style="fill:rgb(182, 174, 135); fill-opacity:1.000; stroke:none;" />
 <path d="  M 11,44  L 13,44  L 13,43  L 11,43  Z  " style="fill:rgb(158, 139, 97); fill-opacity:1.000; stroke:none;" />
 <path d="  M 15,43  L 15,44  L 19,44  L 19,43  Z  " style="fill:rgb(158, 139, 97); fill-opacity:1.000; stroke:none;" />
 <path d="  M 22,44  L 23,44  L 23,43  L 22,43  Z  " style="fill:rgb(158, 139, 97); fill-opacity:1.000; stroke:none;" />
 <path d="  M 25,43  L 25,44  L 28,44  L 28,43  Z  " style="fill:rgb(158, 139, 97); fill-opacity:1.000; stroke:none;" />
 <path d="  M 36,44  L 38,44  L 38,43  L 34,43  L 34,44  L 32,44  L 32,43  L 31,43  L 31,44  L 29,44  L 29,45  L 35,45  L 35,47  L 36,47  Z  " style="fill:rgb(158, 139, 97); fill-opacity:1.000; stroke:none;" />
 <path d="  M 35,49  L 36,49  L 36,48  L 35,48  Z  " style="fill:rgb(158, 139, 97); fill-opacity:1.000; stroke:none;" />
 <path d="  M 35,52  L 36,52  L 36,50  L 35,50  Z  " style="fill:rgb(158, 139, 97); fill-opacity:1.000; stroke:none;" />
 <path d="  M 36,53  L 35,53  L 35,54  L 36,54  Z  " style="fill:rgb(158, 139, 97); fill-opacity:1.000; stroke:none;" />
 <path d="  M 43,44  L 43,43  L 42,43  L 42,44  Z  " style="fill:rgb(158, 139, 97); fill-opacity:1.000; stroke:none;" />
 <path d="  M 48,44  L 53,44  L 53,43  L 48,43  Z  " style="fill:rgb(158, 139, 97); fill-opacity:1.000; stroke:none;" />
 <path d="  M 57,44  L 57,43  L 56,43  L 56,44  Z  " style="fill:rgb(158, 139, 97); fill-opacity:1.000; stroke:none;" />
</svg>
