<?xml version="1.0" encoding="UTF-8" standalone="no"?>
<!DOCTYPE svg PUBLIC "-//W3C//DTD SVG 1.1//EN" 
  "http://www.w3.org/Graphics/SVG/1.1/DTD/svg11.dtd">
<svg width="64" height="64"
	 xmlns="http://www.w3.org/2000/svg" version="1.1">
 <path d="  M 19,15  L 18,15  L 18,45  L 19,45  Z  " style="fill:rgb(209, 173, 100); fill-opacity:1.000; stroke:none;" />
 <path d="  M 19,15  L 20,15  L 20,14  L 19,14  Z  " style="fill:rgb(209, 173, 100); fill-opacity:1.000; stroke:none;" />
 <path d="  M 20,52  L 19,52  L 19,55  L 20,55  Z  " style="fill:rgb(209, 173, 100); fill-opacity:1.000; stroke:none;" />
 <path d="  M 21,13  L 20,13  L 20,14  L 21,14  Z  " style="fill:rgb(209, 173, 100); fill-opacity:1.000; stroke:none;" />
 <path d="  M 20,56  L 21,56  L 21,55  L 20,55  Z  " style="fill:rgb(209, 173, 100); fill-opacity:1.000; stroke:none;" />
 <path d="  M 21,12  L 21,13  L 22,13  L 22,12  Z  " style="fill:rgb(209, 173, 100); fill-opacity:1.000; stroke:none;" />
 <path d="  M 21,56  L 21,57  L 22,57  L 22,56  Z  " style="fill:rgb(209, 173, 100); fill-opacity:1.000; stroke:none;" />
 <path d="  M 22,11  L 22,12  L 24,12  L 24,11  Z  " style="fill:rgb(209, 173, 100); fill-opacity:1.000; stroke:none;" />
 <path d="  M 22,58  L 24,58  L 24,57  L 22,57  Z  " style="fill:rgb(209, 173, 100); fill-opacity:1.000; stroke:none;" />
 <path d="  M 27,10  L 24,10  L 24,11  L 27,11  Z  " style="fill:rgb(209, 173, 100); fill-opacity:1.000; stroke:none;" />
 <path d="  M 24,58  L 24,59  L 27,59  L 27,58  Z  " style="fill:rgb(209, 173, 100); fill-opacity:1.000; stroke:none;" />
 <path d="  M 30,10  L 30,9  L 27,9  L 27,10  Z  " style="fill:rgb(209, 173, 100); fill-opacity:1.000; stroke:none;" />
 <path d="  M 27,59  L 27,60  L 35,60  L 35,59  Z  " style="fill:rgb(209, 173, 100); fill-opacity:1.000; stroke:none;" />
 <path d="  M 32,9  L 32,10  L 35,10  L 35,9  Z  " style="fill:rgb(209, 173, 100); fill-opacity:1.000; stroke:none;" />
 <path d="  M 37,11  L 37,10  L 35,10  L 35,11  Z  " style="fill:rgb(209, 173, 100); fill-opacity:1.000; stroke:none;" />
 <path d="  M 38,58  L 40,58  L 40,57  L 41,57  L 41,56  L 42,56  L 42,55  L 43,55  L 43,43  L 42,43  L 42,46  L 41,46  L 41,48  L 40,48  L 40,49  L 38,49  L 38,50  L 36,50  L 36,59  L 38,59  Z  " style="fill:rgb(209, 173, 100); fill-opacity:1.000; stroke:none;" />
 <path d="  M 44,16  L 43,16  L 43,20  L 44,20  Z  " style="fill:rgb(209, 173, 100); fill-opacity:1.000; stroke:none;" />
 <path d="  M 19,45  L 18,45  L 18,55  L 19,55  Z  " style="fill:rgb(172, 122, 56); fill-opacity:1.000; stroke:none;" />
 <path d="  M 19,55  L 19,56  L 20,56  L 20,55  Z  " style="fill:rgb(172, 122, 56); fill-opacity:1.000; stroke:none;" />
 <path d="  M 20,56  L 20,57  L 21,57  L 21,56  Z  " style="fill:rgb(172, 122, 56); fill-opacity:1.000; stroke:none;" />
 <path d="  M 22,58  L 22,57  L 21,57  L 21,58  Z  " style="fill:rgb(172, 122, 56); fill-opacity:1.000; stroke:none;" />
 <path d="  M 22,58  L 22,59  L 24,59  L 24,58  Z  " style="fill:rgb(172, 122, 56); fill-opacity:1.000; stroke:none;" />
 <path d="  M 24,60  L 27,60  L 27,59  L 24,59  Z  " style="fill:rgb(172, 122, 56); fill-opacity:1.000; stroke:none;" />
 <path d="  M 35,61  L 35,60  L 27,60  L 27,61  Z  " style="fill:rgb(172, 122, 56); fill-opacity:1.000; stroke:none;" />
 <path d="  M 35,59  L 35,60  L 38,60  L 38,59  Z  " style="fill:rgb(172, 122, 56); fill-opacity:1.000; stroke:none;" />
 <path d="  M 38,58  L 38,59  L 40,59  L 40,58  Z  " style="fill:rgb(172, 122, 56); fill-opacity:1.000; stroke:none;" />
 <path d="  M 41,57  L 40,57  L 40,58  L 41,58  Z  " style="fill:rgb(172, 122, 56); fill-opacity:1.000; stroke:none;" />
 <path d="  M 42,56  L 41,56  L 41,57  L 42,57  Z  " style="fill:rgb(172, 122, 56); fill-opacity:1.000; stroke:none;" />
 <path d="  M 42,56  L 43,56  L 43,55  L 42,55  Z  " style="fill:rgb(172, 122, 56); fill-opacity:1.000; stroke:none;" />
 <path d="  M 43,55  L 44,55  L 44,20  L 43,20  Z  " style="fill:rgb(172, 122, 56); fill-opacity:1.000; stroke:none;" />
 <path d="  M 19,15  L 19,16  L 20,16  L 20,15  Z  " style="fill:rgb(253, 228, 171); fill-opacity:1.000; stroke:none;" />
 <path d="  M 19,48  L 20,48  L 20,49  L 22,49  L 22,50  L 25,50  L 25,51  L 36,51  L 36,28  L 35,28  L 35,27  L 34,27  L 34,28  L 33,28  L 33,30  L 32,30  L 32,27  L 31,27  L 31,28  L 30,28  L 30,34  L 29,34  L 29,33  L 28,33  L 28,40  L 27,40  L 27,38  L 26,38  L 26,30  L 25,30  L 25,31  L 24,31  L 24,28  L 23,28  L 23,29  L 22,29  L 22,27  L 21,27  L 21,30  L 20,30  L 20,24  L 19,24  Z  " style="fill:rgb(253, 228, 171); fill-opacity:1.000; stroke:none;" />
 <path d="  M 21,15  L 21,14  L 20,14  L 20,15  Z  " style="fill:rgb(253, 228, 171); fill-opacity:1.000; stroke:none;" />
 <path d="  M 21,14  L 22,14  L 22,13  L 21,13  Z  " style="fill:rgb(253, 228, 171); fill-opacity:1.000; stroke:none;" />
 <path d="  M 23,13  L 23,12  L 22,12  L 22,13  Z  " style="fill:rgb(253, 228, 171); fill-opacity:1.000; stroke:none;" />
 <path d="  M 25,12  L 25,11  L 24,11  L 24,12  Z  " style="fill:rgb(253, 228, 171); fill-opacity:1.000; stroke:none;" />
 <path d="  M 28,10  L 27,10  L 27,11  L 28,11  Z  " style="fill:rgb(253, 228, 171); fill-opacity:1.000; stroke:none;" />
 <path d="  M 29,16  L 29,15  L 28,15  L 28,16  Z  " style="fill:rgb(253, 228, 171); fill-opacity:1.000; stroke:none;" />
 <path d="  M 30,15  L 30,14  L 29,14  L 29,15  Z  " style="fill:rgb(253, 228, 171); fill-opacity:1.000; stroke:none;" />
 <path d="  M 30,16  L 29,16  L 29,17  L 30,17  Z  " style="fill:rgb(253, 228, 171); fill-opacity:1.000; stroke:none;" />
 <path d="  M 30,17  L 30,18  L 32,18  L 32,17  Z  " style="fill:rgb(253, 228, 171); fill-opacity:1.000; stroke:none;" />
 <path d="  M 33,14  L 32,14  L 32,15  L 33,15  Z  " style="fill:rgb(253, 228, 171); fill-opacity:1.000; stroke:none;" />
 <path d="  M 32,17  L 33,17  L 33,16  L 32,16  Z  " style="fill:rgb(253, 228, 171); fill-opacity:1.000; stroke:none;" />
 <path d="  M 34,16  L 34,15  L 33,15  L 33,16  Z  " style="fill:rgb(253, 228, 171); fill-opacity:1.000; stroke:none;" />
 <path d="  M 35,10  L 34,10  L 34,11  L 35,11  Z  " style="fill:rgb(253, 228, 171); fill-opacity:1.000; stroke:none;" />
 <path d="  M 38,23  L 36,23  L 36,24  L 38,24  Z  " style="fill:rgb(253, 228, 171); fill-opacity:1.000; stroke:none;" />
 <path d="  M 38,12  L 38,11  L 37,11  L 37,12  Z  " style="fill:rgb(253, 228, 171); fill-opacity:1.000; stroke:none;" />
 <path d="  M 40,22  L 38,22  L 38,23  L 40,23  Z  " style="fill:rgb(253, 228, 171); fill-opacity:1.000; stroke:none;" />
 <path d="  M 40,12  L 39,12  L 39,13  L 40,13  Z  " style="fill:rgb(253, 228, 171); fill-opacity:1.000; stroke:none;" />
 <path d="  M 40,13  L 40,14  L 41,14  L 41,13  Z  " style="fill:rgb(253, 228, 171); fill-opacity:1.000; stroke:none;" />
 <path d="  M 40,21  L 40,22  L 41,22  L 41,21  Z  " style="fill:rgb(253, 228, 171); fill-opacity:1.000; stroke:none;" />
 <path d="  M 41,15  L 42,15  L 42,14  L 41,14  Z  " style="fill:rgb(253, 228, 171); fill-opacity:1.000; stroke:none;" />
 <path d="  M 41,20  L 41,21  L 42,21  L 42,20  Z  " style="fill:rgb(253, 228, 171); fill-opacity:1.000; stroke:none;" />
 <path d="  M 42,16  L 43,16  L 43,15  L 42,15  Z  " style="fill:rgb(253, 228, 171); fill-opacity:1.000; stroke:none;" />
 <path d="  M 43,19  L 42,19  L 42,20  L 43,20  Z  " style="fill:rgb(253, 228, 171); fill-opacity:1.000; stroke:none;" />
 <path d="  M 41,15  L 41,14  L 40,14  L 40,13  L 39,13  L 39,12  L 37,12  L 37,11  L 34,11  L 34,10  L 32,10  L 32,14  L 33,14  L 33,15  L 34,15  L 34,16  L 33,16  L 33,17  L 32,17  L 32,18  L 30,18  L 30,17  L 29,17  L 29,16  L 28,16  L 28,15  L 29,15  L 29,14  L 30,14  L 30,10  L 28,10  L 28,11  L 25,11  L 25,12  L 23,12  L 23,13  L 22,13  L 22,14  L 21,14  L 21,15  L 20,15  L 20,16  L 19,16  L 19,19  L 20,19  L 20,20  L 21,20  L 21,21  L 22,21  L 22,22  L 24,22  L 24,23  L 26,23  L 26,24  L 36,24  L 36,23  L 38,23  L 38,22  L 40,22  L 40,21  L 41,21  L 41,20  L 42,20  L 42,19  L 43,19  L 43,16  L 42,16  L 42,15  Z  " style="fill:rgb(254, 238, 200); fill-opacity:1.000; stroke:none;" />
 <path d="  M 21,27  L 22,27  L 22,29  L 23,29  L 23,28  L 24,28  L 24,25  L 23,25  L 23,23  L 22,23  L 22,22  L 21,22  L 21,23  L 20,23  L 20,21  L 19,21  L 19,24  L 20,24  L 20,30  L 21,30  Z  " style="fill:rgb(254, 238, 200); fill-opacity:1.000; stroke:none;" />
 <path d="  M 26,28  L 25,28  L 25,29  L 24,29  L 24,31  L 25,31  L 25,30  L 26,30  Z  " style="fill:rgb(254, 238, 200); fill-opacity:1.000; stroke:none;" />
 <path d="  M 26,38  L 27,38  L 27,36  L 26,36  Z  " style="fill:rgb(254, 238, 200); fill-opacity:1.000; stroke:none;" />
 <path d="  M 28,39  L 27,39  L 27,40  L 28,40  Z  " style="fill:rgb(254, 238, 200); fill-opacity:1.000; stroke:none;" />
 <path d="  M 28,33  L 29,33  L 29,31  L 28,31  Z  " style="fill:rgb(254, 238, 200); fill-opacity:1.000; stroke:none;" />
 <path d="  M 29,33  L 29,34  L 30,34  L 30,33  Z  " style="fill:rgb(254, 238, 200); fill-opacity:1.000; stroke:none;" />
 <path d="  M 30,27  L 30,28  L 31,28  L 31,27  Z  " style="fill:rgb(254, 238, 200); fill-opacity:1.000; stroke:none;" />
 <path d="  M 31,27  L 32,27  L 32,25  L 31,25  Z  " style="fill:rgb(254, 238, 200); fill-opacity:1.000; stroke:none;" />
 <path d="  M 32,30  L 33,30  L 33,28  L 32,28  Z  " style="fill:rgb(254, 238, 200); fill-opacity:1.000; stroke:none;" />
 <path d="  M 34,25  L 34,26  L 33,26  L 33,28  L 34,28  L 34,27  L 35,27  L 35,28  L 36,28  L 36,25  Z  " style="fill:rgb(254, 238, 200); fill-opacity:1.000; stroke:none;" />
 <path d="  M 20,21  L 20,23  L 21,23  L 21,22  L 22,22  L 22,21  L 21,21  L 21,20  L 20,20  L 20,19  L 19,19  L 19,21  Z  " style="fill:rgb(255, 247, 230); fill-opacity:1.000; stroke:none;" />
 <path d="  M 28,39  L 28,31  L 29,31  L 29,33  L 30,33  L 30,27  L 31,27  L 31,25  L 32,25  L 32,28  L 33,28  L 33,26  L 34,26  L 34,25  L 36,25  L 36,24  L 26,24  L 26,23  L 24,23  L 24,22  L 22,22  L 22,23  L 23,23  L 23,25  L 24,25  L 24,29  L 25,29  L 25,28  L 26,28  L 26,36  L 27,36  L 27,39  Z  " style="fill:rgb(255, 247, 230); fill-opacity:1.000; stroke:none;" />
 <path d="  M 20,48  L 19,48  L 19,52  L 20,52  L 20,55  L 21,55  L 21,56  L 22,56  L 22,57  L 24,57  L 24,58  L 27,58  L 27,59  L 36,59  L 36,51  L 25,51  L 25,50  L 22,50  L 22,49  L 20,49  Z  " style="fill:rgb(228, 205, 130); fill-opacity:1.000; stroke:none;" />
 <path d="  M 30,15  L 29,15  L 29,16  L 30,16  Z  " style="fill:rgb(228, 205, 130); fill-opacity:1.000; stroke:none;" />
 <path d="  M 32,17  L 32,16  L 30,16  L 30,17  Z  " style="fill:rgb(228, 205, 130); fill-opacity:1.000; stroke:none;" />
 <path d="  M 33,15  L 32,15  L 32,16  L 33,16  Z  " style="fill:rgb(228, 205, 130); fill-opacity:1.000; stroke:none;" />
 <path d="  M 38,50  L 38,49  L 40,49  L 40,48  L 41,48  L 41,46  L 42,46  L 42,43  L 43,43  L 43,20  L 42,20  L 42,21  L 41,21  L 41,22  L 40,22  L 40,23  L 38,23  L 38,24  L 36,24  L 36,50  Z  " style="fill:rgb(228, 205, 130); fill-opacity:1.000; stroke:none;" />
 <path d="  M 38,11  L 38,10  L 37,10  L 37,11  Z  " style="fill:rgb(228, 205, 130); fill-opacity:1.000; stroke:none;" />
 <path d="  M 40,12  L 40,11  L 38,11  L 38,12  Z  " style="fill:rgb(228, 205, 130); fill-opacity:1.000; stroke:none;" />
 <path d="  M 41,12  L 40,12  L 40,13  L 41,13  Z  " style="fill:rgb(228, 205, 130); fill-opacity:1.000; stroke:none;" />
 <path d="  M 41,13  L 41,14  L 42,14  L 42,13  Z  " style="fill:rgb(228, 205, 130); fill-opacity:1.000; stroke:none;" />
 <path d="  M 42,14  L 42,15  L 43,15  L 43,14  Z  " style="fill:rgb(228, 205, 130); fill-opacity:1.000; stroke:none;" />
 <path d="  M 43,16  L 44,16  L 44,15  L 43,15  Z  " style="fill:rgb(228, 205, 130); fill-opacity:1.000; stroke:none;" />
 <path d="  M 32,4  L 30,4  L 30,15  L 32,15  Z  " style="fill:rgb(51, 48, 101); fill-opacity:1.000; stroke:none;" />
 <path d="  M 32,16  L 32,15  L 30,15  L 30,16  Z  " style="fill:rgb(33, 32, 52); fill-opacity:1.000; stroke:none;" />
</svg>
