<?xml version="1.0" encoding="UTF-8" standalone="no"?>
<!DOCTYPE svg PUBLIC "-//W3C//DTD SVG 1.1//EN" 
  "http://www.w3.org/Graphics/SVG/1.1/DTD/svg11.dtd">
<svg width="64" height="64"
	 xmlns="http://www.w3.org/2000/svg" version="1.1">
 <path d="  M 12,24  L 13,24  L 13,23  L 12,23  Z  " style="fill:rgb(73, 72, 72); fill-opacity:1.000; stroke:none;" />
 <path d="  M 13,25  L 12,25  L 12,42  L 13,42  Z  " style="fill:rgb(73, 72, 72); fill-opacity:1.000; stroke:none;" />
 <path d="  M 13,22  L 13,23  L 14,23  L 14,22  Z  " style="fill:rgb(73, 72, 72); fill-opacity:1.000; stroke:none;" />
 <path d="  M 15,45  L 14,45  L 14,44  L 13,44  L 13,49  L 14,49  L 14,48  L 15,48  Z  " style="fill:rgb(73, 72, 72); fill-opacity:1.000; stroke:none;" />
 <path d="  M 14,22  L 16,22  L 16,21  L 14,21  Z  " style="fill:rgb(73, 72, 72); fill-opacity:1.000; stroke:none;" />
 <path d="  M 18,21  L 18,20  L 16,20  L 16,21  Z  " style="fill:rgb(73, 72, 72); fill-opacity:1.000; stroke:none;" />
 <path d="  M 20,20  L 20,19  L 18,19  L 18,20  Z  " style="fill:rgb(73, 72, 72); fill-opacity:1.000; stroke:none;" />
 <path d="  M 20,18  L 20,19  L 22,19  L 22,18  Z  " style="fill:rgb(73, 72, 72); fill-opacity:1.000; stroke:none;" />
 <path d="  M 22,17  L 22,18  L 24,18  L 24,17  Z  " style="fill:rgb(73, 72, 72); fill-opacity:1.000; stroke:none;" />
 <path d="  M 26,17  L 26,16  L 24,16  L 24,17  Z  " style="fill:rgb(73, 72, 72); fill-opacity:1.000; stroke:none;" />
 <path d="  M 26,16  L 28,16  L 28,15  L 26,15  Z  " style="fill:rgb(73, 72, 72); fill-opacity:1.000; stroke:none;" />
 <path d="  M 28,14  L 28,15  L 30,15  L 30,14  Z  " style="fill:rgb(73, 72, 72); fill-opacity:1.000; stroke:none;" />
 <path d="  M 30,13  L 30,14  L 34,14  L 34,13  Z  " style="fill:rgb(73, 72, 72); fill-opacity:1.000; stroke:none;" />
 <path d="  M 34,54  L 30,54  L 30,57  L 34,57  Z  " style="fill:rgb(73, 72, 72); fill-opacity:1.000; stroke:none;" />
 <path d="  M 32,42  L 31,42  L 31,44  L 32,44  Z  " style="fill:rgb(73, 72, 72); fill-opacity:1.000; stroke:none;" />
 <path d="  M 32,46  L 31,46  L 31,47  L 32,47  Z  " style="fill:rgb(73, 72, 72); fill-opacity:1.000; stroke:none;" />
 <path d="  M 31,52  L 32,52  L 32,49  L 31,49  Z  " style="fill:rgb(73, 72, 72); fill-opacity:1.000; stroke:none;" />
 <path d="  M 34,33  L 34,32  L 32,32  L 32,33  Z  " style="fill:rgb(73, 72, 72); fill-opacity:1.000; stroke:none;" />
 <path d="  M 34,15  L 36,15  L 36,14  L 34,14  Z  " style="fill:rgb(73, 72, 72); fill-opacity:1.000; stroke:none;" />
 <path d="  M 36,32  L 36,31  L 34,31  L 34,32  Z  " style="fill:rgb(73, 72, 72); fill-opacity:1.000; stroke:none;" />
 <path d="  M 36,15  L 36,16  L 38,16  L 38,15  Z  " style="fill:rgb(73, 72, 72); fill-opacity:1.000; stroke:none;" />
 <path d="  M 38,31  L 38,30  L 36,30  L 36,31  Z  " style="fill:rgb(73, 72, 72); fill-opacity:1.000; stroke:none;" />
 <path d="  M 38,16  L 38,17  L 40,17  L 40,16  Z  " style="fill:rgb(73, 72, 72); fill-opacity:1.000; stroke:none;" />
 <path d="  M 39,30  L 39,29  L 38,29  L 38,30  Z  " style="fill:rgb(73, 72, 72); fill-opacity:1.000; stroke:none;" />
 <path d="  M 40,17  L 40,18  L 42,18  L 42,17  Z  " style="fill:rgb(73, 72, 72); fill-opacity:1.000; stroke:none;" />
 <path d="  M 44,18  L 42,18  L 42,19  L 44,19  Z  " style="fill:rgb(73, 72, 72); fill-opacity:1.000; stroke:none;" />
 <path d="  M 44,19  L 44,20  L 46,20  L 46,19  Z  " style="fill:rgb(73, 72, 72); fill-opacity:1.000; stroke:none;" />
 <path d="  M 48,20  L 46,20  L 46,21  L 48,21  Z  " style="fill:rgb(73, 72, 72); fill-opacity:1.000; stroke:none;" />
 <path d="  M 48,21  L 48,22  L 50,22  L 50,21  Z  " style="fill:rgb(73, 72, 72); fill-opacity:1.000; stroke:none;" />
 <path d="  M 50,49  L 51,49  L 51,44  L 50,44  L 50,45  L 49,45  L 49,48  L 50,48  Z  " style="fill:rgb(73, 72, 72); fill-opacity:1.000; stroke:none;" />
 <path d="  M 50,23  L 51,23  L 51,22  L 50,22  Z  " style="fill:rgb(73, 72, 72); fill-opacity:1.000; stroke:none;" />
 <path d="  M 12,25  L 14,25  L 14,24  L 12,24  Z  " style="fill:rgb(52, 52, 56); fill-opacity:1.000; stroke:none;" />
 <path d="  M 13,42  L 12,42  L 12,43  L 13,43  Z  " style="fill:rgb(52, 52, 56); fill-opacity:1.000; stroke:none;" />
 <path d="  M 14,43  L 13,43  L 13,44  L 14,44  Z  " style="fill:rgb(52, 52, 56); fill-opacity:1.000; stroke:none;" />
 <path d="  M 14,25  L 14,26  L 16,26  L 16,25  Z  " style="fill:rgb(52, 52, 56); fill-opacity:1.000; stroke:none;" />
 <path d="  M 15,45  L 15,44  L 14,44  L 14,45  Z  " style="fill:rgb(52, 52, 56); fill-opacity:1.000; stroke:none;" />
 <path d="  M 16,45  L 15,45  L 15,46  L 16,46  Z  " style="fill:rgb(52, 52, 56); fill-opacity:1.000; stroke:none;" />
 <path d="  M 18,27  L 18,26  L 16,26  L 16,27  Z  " style="fill:rgb(52, 52, 56); fill-opacity:1.000; stroke:none;" />
 <path d="  M 20,27  L 18,27  L 18,28  L 20,28  Z  " style="fill:rgb(52, 52, 56); fill-opacity:1.000; stroke:none;" />
 <path d="  M 20,47  L 20,46  L 18,46  L 18,47  Z  " style="fill:rgb(52, 52, 56); fill-opacity:1.000; stroke:none;" />
 <path d="  M 20,28  L 20,29  L 22,29  L 22,28  Z  " style="fill:rgb(52, 52, 56); fill-opacity:1.000; stroke:none;" />
 <path d="  M 24,30  L 24,29  L 22,29  L 22,30  Z  " style="fill:rgb(52, 52, 56); fill-opacity:1.000; stroke:none;" />
 <path d="  M 24,48  L 22,48  L 22,49  L 24,49  Z  " style="fill:rgb(52, 52, 56); fill-opacity:1.000; stroke:none;" />
 <path d="  M 24,30  L 24,31  L 26,31  L 26,30  Z  " style="fill:rgb(52, 52, 56); fill-opacity:1.000; stroke:none;" />
 <path d="  M 26,31  L 26,32  L 28,32  L 28,31  Z  " style="fill:rgb(52, 52, 56); fill-opacity:1.000; stroke:none;" />
 <path d="  M 26,50  L 26,51  L 27,51  L 27,50  Z  " style="fill:rgb(52, 52, 56); fill-opacity:1.000; stroke:none;" />
 <path d="  M 28,52  L 28,51  L 27,51  L 27,52  Z  " style="fill:rgb(52, 52, 56); fill-opacity:1.000; stroke:none;" />
 <path d="  M 28,33  L 30,33  L 30,32  L 28,32  Z  " style="fill:rgb(52, 52, 56); fill-opacity:1.000; stroke:none;" />
 <path d="  M 34,58  L 34,57  L 30,57  L 30,58  Z  " style="fill:rgb(52, 52, 56); fill-opacity:1.000; stroke:none;" />
 <path d="  M 34,52  L 33,52  L 33,53  L 34,53  Z  " style="fill:rgb(52, 52, 56); fill-opacity:1.000; stroke:none;" />
 <path d="  M 36,33  L 36,32  L 34,32  L 34,33  Z  " style="fill:rgb(52, 52, 56); fill-opacity:1.000; stroke:none;" />
 <path d="  M 36,51  L 35,51  L 35,52  L 36,52  Z  " style="fill:rgb(52, 52, 56); fill-opacity:1.000; stroke:none;" />
 <path d="  M 36,31  L 36,32  L 38,32  L 38,31  Z  " style="fill:rgb(52, 52, 56); fill-opacity:1.000; stroke:none;" />
 <path d="  M 37,50  L 36,50  L 36,51  L 37,51  Z  " style="fill:rgb(52, 52, 56); fill-opacity:1.000; stroke:none;" />
 <path d="  M 37,49  L 37,50  L 38,50  L 38,49  Z  " style="fill:rgb(52, 52, 56); fill-opacity:1.000; stroke:none;" />
 <path d="  M 38,30  L 38,31  L 40,31  L 40,30  Z  " style="fill:rgb(52, 52, 56); fill-opacity:1.000; stroke:none;" />
 <path d="  M 39,49  L 40,49  L 40,48  L 39,48  Z  " style="fill:rgb(52, 52, 56); fill-opacity:1.000; stroke:none;" />
 <path d="  M 42,30  L 42,29  L 40,29  L 40,30  Z  " style="fill:rgb(52, 52, 56); fill-opacity:1.000; stroke:none;" />
 <path d="  M 42,47  L 41,47  L 41,48  L 42,48  Z  " style="fill:rgb(52, 52, 56); fill-opacity:1.000; stroke:none;" />
 <path d="  M 42,29  L 44,29  L 44,28  L 42,28  Z  " style="fill:rgb(52, 52, 56); fill-opacity:1.000; stroke:none;" />
 <path d="  M 43,47  L 44,47  L 44,46  L 43,46  Z  " style="fill:rgb(52, 52, 56); fill-opacity:1.000; stroke:none;" />
 <path d="  M 44,27  L 44,28  L 46,28  L 46,27  Z  " style="fill:rgb(52, 52, 56); fill-opacity:1.000; stroke:none;" />
 <path d="  M 46,45  L 45,45  L 45,46  L 46,46  Z  " style="fill:rgb(52, 52, 56); fill-opacity:1.000; stroke:none;" />
 <path d="  M 46,27  L 48,27  L 48,26  L 46,26  Z  " style="fill:rgb(52, 52, 56); fill-opacity:1.000; stroke:none;" />
 <path d="  M 48,25  L 48,26  L 50,26  L 50,25  Z  " style="fill:rgb(52, 52, 56); fill-opacity:1.000; stroke:none;" />
 <path d="  M 49,44  L 48,44  L 48,45  L 49,45  Z  " style="fill:rgb(52, 52, 56); fill-opacity:1.000; stroke:none;" />
 <path d="  M 50,43  L 49,43  L 49,44  L 50,44  Z  " style="fill:rgb(52, 52, 56); fill-opacity:1.000; stroke:none;" />
 <path d="  M 52,24  L 50,24  L 50,25  L 52,25  Z  " style="fill:rgb(52, 52, 56); fill-opacity:1.000; stroke:none;" />
 <path d="  M 51,43  L 51,42  L 50,42  L 50,43  Z  " style="fill:rgb(52, 52, 56); fill-opacity:1.000; stroke:none;" />
 <path d="  M 13,43  L 12,43  L 12,50  L 14,50  L 14,49  L 13,49  Z  " style="fill:rgb(45, 45, 50); fill-opacity:1.000; stroke:none;" />
 <path d="  M 15,23  L 15,22  L 14,22  L 14,23  Z  " style="fill:rgb(45, 45, 50); fill-opacity:1.000; stroke:none;" />
 <path d="  M 15,49  L 15,48  L 14,48  L 14,49  Z  " style="fill:rgb(45, 45, 50); fill-opacity:1.000; stroke:none;" />
 <path d="  M 16,46  L 15,46  L 15,48  L 16,48  Z  " style="fill:rgb(45, 45, 50); fill-opacity:1.000; stroke:none;" />
 <path d="  M 17,22  L 17,21  L 16,21  L 16,22  Z  " style="fill:rgb(45, 45, 50); fill-opacity:1.000; stroke:none;" />
 <path d="  M 16,25  L 17,25  L 17,24  L 16,24  Z  " style="fill:rgb(45, 45, 50); fill-opacity:1.000; stroke:none;" />
 <path d="  M 19,21  L 19,20  L 18,20  L 18,21  Z  " style="fill:rgb(45, 45, 50); fill-opacity:1.000; stroke:none;" />
 <path d="  M 19,25  L 18,25  L 18,26  L 19,26  Z  " style="fill:rgb(45, 45, 50); fill-opacity:1.000; stroke:none;" />
 <path d="  M 21,20  L 21,19  L 20,19  L 20,20  Z  " style="fill:rgb(45, 45, 50); fill-opacity:1.000; stroke:none;" />
 <path d="  M 20,27  L 21,27  L 21,26  L 20,26  Z  " style="fill:rgb(45, 45, 50); fill-opacity:1.000; stroke:none;" />
 <path d="  M 22,19  L 23,19  L 23,18  L 22,18  Z  " style="fill:rgb(45, 45, 50); fill-opacity:1.000; stroke:none;" />
 <path d="  M 23,27  L 22,27  L 22,28  L 23,28  Z  " style="fill:rgb(45, 45, 50); fill-opacity:1.000; stroke:none;" />
 <path d="  M 24,18  L 25,18  L 25,17  L 24,17  Z  " style="fill:rgb(45, 45, 50); fill-opacity:1.000; stroke:none;" />
 <path d="  M 25,28  L 24,28  L 24,29  L 25,29  Z  " style="fill:rgb(45, 45, 50); fill-opacity:1.000; stroke:none;" />
 <path d="  M 26,17  L 27,17  L 27,16  L 26,16  Z  " style="fill:rgb(45, 45, 50); fill-opacity:1.000; stroke:none;" />
 <path d="  M 27,29  L 26,29  L 26,30  L 27,30  Z  " style="fill:rgb(45, 45, 50); fill-opacity:1.000; stroke:none;" />
 <path d="  M 29,16  L 29,15  L 28,15  L 28,16  Z  " style="fill:rgb(45, 45, 50); fill-opacity:1.000; stroke:none;" />
 <path d="  M 29,31  L 29,30  L 28,30  L 28,31  Z  " style="fill:rgb(45, 45, 50); fill-opacity:1.000; stroke:none;" />
 <path d="  M 30,14  L 30,15  L 31,15  L 31,14  Z  " style="fill:rgb(45, 45, 50); fill-opacity:1.000; stroke:none;" />
 <path d="  M 30,31  L 30,32  L 31,32  L 31,31  Z  " style="fill:rgb(45, 45, 50); fill-opacity:1.000; stroke:none;" />
 <path d="  M 34,34  L 34,33  L 30,33  L 30,34  Z  " style="fill:rgb(45, 45, 50); fill-opacity:1.000; stroke:none;" />
 <path d="  M 30,53  L 30,54  L 34,54  L 34,53  Z  " style="fill:rgb(45, 45, 50); fill-opacity:1.000; stroke:none;" />
 <path d="  M 33,14  L 33,15  L 34,15  L 34,14  Z  " style="fill:rgb(45, 45, 50); fill-opacity:1.000; stroke:none;" />
 <path d="  M 33,32  L 34,32  L 34,31  L 33,31  Z  " style="fill:rgb(45, 45, 50); fill-opacity:1.000; stroke:none;" />
 <path d="  M 36,52  L 34,52  L 34,53  L 36,53  Z  " style="fill:rgb(45, 45, 50); fill-opacity:1.000; stroke:none;" />
 <path d="  M 36,15  L 35,15  L 35,16  L 36,16  Z  " style="fill:rgb(45, 45, 50); fill-opacity:1.000; stroke:none;" />
 <path d="  M 36,31  L 36,30  L 35,30  L 35,31  Z  " style="fill:rgb(45, 45, 50); fill-opacity:1.000; stroke:none;" />
 <path d="  M 36,52  L 37,52  L 37,51  L 36,51  Z  " style="fill:rgb(45, 45, 50); fill-opacity:1.000; stroke:none;" />
 <path d="  M 38,16  L 37,16  L 37,17  L 38,17  Z  " style="fill:rgb(45, 45, 50); fill-opacity:1.000; stroke:none;" />
 <path d="  M 37,29  L 37,30  L 38,30  L 38,29  Z  " style="fill:rgb(45, 45, 50); fill-opacity:1.000; stroke:none;" />
 <path d="  M 37,50  L 37,51  L 38,51  L 38,50  Z  " style="fill:rgb(45, 45, 50); fill-opacity:1.000; stroke:none;" />
 <path d="  M 38,50  L 40,50  L 40,49  L 38,49  Z  " style="fill:rgb(45, 45, 50); fill-opacity:1.000; stroke:none;" />
 <path d="  M 40,17  L 39,17  L 39,18  L 40,18  Z  " style="fill:rgb(45, 45, 50); fill-opacity:1.000; stroke:none;" />
 <path d="  M 40,28  L 39,28  L 39,29  L 40,29  Z  " style="fill:rgb(45, 45, 50); fill-opacity:1.000; stroke:none;" />
 <path d="  M 40,48  L 40,49  L 42,49  L 42,48  Z  " style="fill:rgb(45, 45, 50); fill-opacity:1.000; stroke:none;" />
 <path d="  M 42,18  L 41,18  L 41,19  L 42,19  Z  " style="fill:rgb(45, 45, 50); fill-opacity:1.000; stroke:none;" />
 <path d="  M 42,28  L 42,27  L 41,27  L 41,28  Z  " style="fill:rgb(45, 45, 50); fill-opacity:1.000; stroke:none;" />
 <path d="  M 44,48  L 44,47  L 42,47  L 42,48  Z  " style="fill:rgb(45, 45, 50); fill-opacity:1.000; stroke:none;" />
 <path d="  M 43,20  L 44,20  L 44,19  L 43,19  Z  " style="fill:rgb(45, 45, 50); fill-opacity:1.000; stroke:none;" />
 <path d="  M 43,27  L 44,27  L 44,26  L 43,26  Z  " style="fill:rgb(45, 45, 50); fill-opacity:1.000; stroke:none;" />
 <path d="  M 46,47  L 46,46  L 44,46  L 44,47  Z  " style="fill:rgb(45, 45, 50); fill-opacity:1.000; stroke:none;" />
 <path d="  M 46,21  L 46,20  L 45,20  L 45,21  Z  " style="fill:rgb(45, 45, 50); fill-opacity:1.000; stroke:none;" />
 <path d="  M 46,26  L 46,25  L 45,25  L 45,26  Z  " style="fill:rgb(45, 45, 50); fill-opacity:1.000; stroke:none;" />
 <path d="  M 46,45  L 46,46  L 48,46  L 48,48  L 49,48  L 49,45  Z  " style="fill:rgb(45, 45, 50); fill-opacity:1.000; stroke:none;" />
 <path d="  M 47,21  L 47,22  L 48,22  L 48,21  Z  " style="fill:rgb(45, 45, 50); fill-opacity:1.000; stroke:none;" />
 <path d="  M 47,24  L 47,25  L 48,25  L 48,24  Z  " style="fill:rgb(45, 45, 50); fill-opacity:1.000; stroke:none;" />
 <path d="  M 49,22  L 49,23  L 50,23  L 50,22  Z  " style="fill:rgb(45, 45, 50); fill-opacity:1.000; stroke:none;" />
 <path d="  M 49,45  L 50,45  L 50,44  L 49,44  Z  " style="fill:rgb(45, 45, 50); fill-opacity:1.000; stroke:none;" />
 <path d="  M 49,49  L 50,49  L 50,48  L 49,48  Z  " style="fill:rgb(45, 45, 50); fill-opacity:1.000; stroke:none;" />
 <path d="  M 52,25  L 50,25  L 50,26  L 51,26  L 51,43  L 50,43  L 50,44  L 51,44  L 51,49  L 50,49  L 50,50  L 52,50  Z  " style="fill:rgb(45, 45, 50); fill-opacity:1.000; stroke:none;" />
 <path d="  M 51,24  L 52,24  L 52,23  L 51,23  Z  " style="fill:rgb(45, 45, 50); fill-opacity:1.000; stroke:none;" />
 <path d="  M 14,23  L 13,23  L 13,24  L 14,24  Z  " style="fill:rgb(103, 97, 97); fill-opacity:1.000; stroke:none;" />
 <path d="  M 16,25  L 16,24  L 14,24  L 14,25  Z  " style="fill:rgb(103, 97, 97); fill-opacity:1.000; stroke:none;" />
 <path d="  M 15,43  L 16,43  L 16,44  L 18,44  L 18,45  L 20,45  L 20,46  L 22,46  L 22,47  L 24,47  L 24,48  L 26,48  L 26,49  L 28,49  L 28,50  L 29,50  L 29,51  L 30,51  L 30,35  L 29,35  L 29,34  L 28,34  L 28,33  L 26,33  L 26,32  L 24,32  L 24,31  L 22,31  L 22,30  L 20,30  L 20,29  L 18,29  L 18,28  L 16,28  L 16,27  L 14,27  L 14,42  L 15,42  Z  " style="fill:rgb(103, 97, 97); fill-opacity:1.000; stroke:none;" />
 <path d="  M 16,26  L 18,26  L 18,25  L 16,25  Z  " style="fill:rgb(103, 97, 97); fill-opacity:1.000; stroke:none;" />
 <path d="  M 18,27  L 20,27  L 20,26  L 18,26  Z  " style="fill:rgb(103, 97, 97); fill-opacity:1.000; stroke:none;" />
 <path d="  M 20,27  L 20,28  L 22,28  L 22,27  Z  " style="fill:rgb(103, 97, 97); fill-opacity:1.000; stroke:none;" />
 <path d="  M 24,29  L 24,28  L 22,28  L 22,29  Z  " style="fill:rgb(103, 97, 97); fill-opacity:1.000; stroke:none;" />
 <path d="  M 24,30  L 26,30  L 26,29  L 24,29  Z  " style="fill:rgb(103, 97, 97); fill-opacity:1.000; stroke:none;" />
 <path d="  M 28,31  L 28,30  L 26,30  L 26,31  Z  " style="fill:rgb(103, 97, 97); fill-opacity:1.000; stroke:none;" />
 <path d="  M 28,31  L 28,32  L 29,32  L 29,31  Z  " style="fill:rgb(103, 97, 97); fill-opacity:1.000; stroke:none;" />
 <path d="  M 14,26  L 14,25  L 13,25  L 13,26  Z  " style="fill:rgb(79, 79, 79); fill-opacity:1.000; stroke:none;" />
 <path d="  M 14,43  L 14,42  L 13,42  L 13,43  Z  " style="fill:rgb(79, 79, 79); fill-opacity:1.000; stroke:none;" />
 <path d="  M 15,43  L 14,43  L 14,44  L 15,44  Z  " style="fill:rgb(79, 79, 79); fill-opacity:1.000; stroke:none;" />
 <path d="  M 16,27  L 16,26  L 15,26  L 15,27  Z  " style="fill:rgb(79, 79, 79); fill-opacity:1.000; stroke:none;" />
 <path d="  M 15,44  L 15,45  L 17,45  L 17,44  Z  " style="fill:rgb(79, 79, 79); fill-opacity:1.000; stroke:none;" />
 <path d="  M 17,28  L 18,28  L 18,27  L 17,27  Z  " style="fill:rgb(79, 79, 79); fill-opacity:1.000; stroke:none;" />
 <path d="  M 18,46  L 19,46  L 19,45  L 18,45  Z  " style="fill:rgb(79, 79, 79); fill-opacity:1.000; stroke:none;" />
 <path d="  M 19,29  L 20,29  L 20,28  L 19,28  Z  " style="fill:rgb(79, 79, 79); fill-opacity:1.000; stroke:none;" />
 <path d="  M 20,46  L 20,47  L 21,47  L 21,46  Z  " style="fill:rgb(79, 79, 79); fill-opacity:1.000; stroke:none;" />
 <path d="  M 22,30  L 22,29  L 21,29  L 21,30  Z  " style="fill:rgb(79, 79, 79); fill-opacity:1.000; stroke:none;" />
 <path d="  M 23,47  L 22,47  L 22,48  L 23,48  Z  " style="fill:rgb(79, 79, 79); fill-opacity:1.000; stroke:none;" />
 <path d="  M 23,31  L 24,31  L 24,30  L 23,30  Z  " style="fill:rgb(79, 79, 79); fill-opacity:1.000; stroke:none;" />
 <path d="  M 25,48  L 24,48  L 24,49  L 25,49  Z  " style="fill:rgb(79, 79, 79); fill-opacity:1.000; stroke:none;" />
 <path d="  M 25,32  L 26,32  L 26,31  L 25,31  Z  " style="fill:rgb(79, 79, 79); fill-opacity:1.000; stroke:none;" />
 <path d="  M 26,49  L 26,50  L 27,50  L 27,49  Z  " style="fill:rgb(79, 79, 79); fill-opacity:1.000; stroke:none;" />
 <path d="  M 27,32  L 27,33  L 28,33  L 28,32  Z  " style="fill:rgb(79, 79, 79); fill-opacity:1.000; stroke:none;" />
 <path d="  M 27,51  L 28,51  L 28,50  L 27,50  Z  " style="fill:rgb(79, 79, 79); fill-opacity:1.000; stroke:none;" />
 <path d="  M 29,52  L 29,51  L 28,51  L 28,52  Z  " style="fill:rgb(79, 79, 79); fill-opacity:1.000; stroke:none;" />
 <path d="  M 30,32  L 30,31  L 29,31  L 29,32  Z  " style="fill:rgb(79, 79, 79); fill-opacity:1.000; stroke:none;" />
 <path d="  M 29,33  L 29,34  L 30,34  L 30,33  Z  " style="fill:rgb(79, 79, 79); fill-opacity:1.000; stroke:none;" />
 <path d="  M 29,52  L 29,53  L 30,53  L 30,52  Z  " style="fill:rgb(79, 79, 79); fill-opacity:1.000; stroke:none;" />
 <path d="  M 30,33  L 32,33  L 32,32  L 30,32  Z  " style="fill:rgb(79, 79, 79); fill-opacity:1.000; stroke:none;" />
 <path d="  M 32,34  L 30,34  L 30,35  L 31,35  L 31,42  L 32,42  Z  " style="fill:rgb(79, 79, 79); fill-opacity:1.000; stroke:none;" />
 <path d="  M 31,46  L 32,46  L 32,44  L 31,44  Z  " style="fill:rgb(79, 79, 79); fill-opacity:1.000; stroke:none;" />
 <path d="  M 32,49  L 32,47  L 31,47  L 31,49  Z  " style="fill:rgb(79, 79, 79); fill-opacity:1.000; stroke:none;" />
 <path d="  M 31,53  L 32,53  L 32,52  L 31,52  Z  " style="fill:rgb(79, 79, 79); fill-opacity:1.000; stroke:none;" />
 <path d="  M 14,27  L 15,27  L 15,26  L 13,26  L 13,42  L 14,42  Z  " style="fill:rgb(89, 88, 88); fill-opacity:1.000; stroke:none;" />
 <path d="  M 15,43  L 15,42  L 14,42  L 14,43  Z  " style="fill:rgb(89, 88, 88); fill-opacity:1.000; stroke:none;" />
 <path d="  M 16,44  L 16,43  L 15,43  L 15,44  Z  " style="fill:rgb(89, 88, 88); fill-opacity:1.000; stroke:none;" />
 <path d="  M 16,27  L 16,28  L 17,28  L 17,27  Z  " style="fill:rgb(89, 88, 88); fill-opacity:1.000; stroke:none;" />
 <path d="  M 17,45  L 18,45  L 18,44  L 17,44  Z  " style="fill:rgb(89, 88, 88); fill-opacity:1.000; stroke:none;" />
 <path d="  M 19,29  L 19,28  L 18,28  L 18,29  Z  " style="fill:rgb(89, 88, 88); fill-opacity:1.000; stroke:none;" />
 <path d="  M 19,45  L 19,46  L 20,46  L 20,45  Z  " style="fill:rgb(89, 88, 88); fill-opacity:1.000; stroke:none;" />
 <path d="  M 21,29  L 20,29  L 20,30  L 21,30  Z  " style="fill:rgb(89, 88, 88); fill-opacity:1.000; stroke:none;" />
 <path d="  M 21,47  L 22,47  L 22,46  L 21,46  Z  " style="fill:rgb(89, 88, 88); fill-opacity:1.000; stroke:none;" />
 <path d="  M 23,30  L 22,30  L 22,31  L 23,31  Z  " style="fill:rgb(89, 88, 88); fill-opacity:1.000; stroke:none;" />
 <path d="  M 24,48  L 24,47  L 23,47  L 23,48  Z  " style="fill:rgb(89, 88, 88); fill-opacity:1.000; stroke:none;" />
 <path d="  M 24,31  L 24,32  L 25,32  L 25,31  Z  " style="fill:rgb(89, 88, 88); fill-opacity:1.000; stroke:none;" />
 <path d="  M 26,48  L 25,48  L 25,49  L 26,49  Z  " style="fill:rgb(89, 88, 88); fill-opacity:1.000; stroke:none;" />
 <path d="  M 26,32  L 26,33  L 27,33  L 27,32  Z  " style="fill:rgb(89, 88, 88); fill-opacity:1.000; stroke:none;" />
 <path d="  M 28,49  L 27,49  L 27,50  L 28,50  Z  " style="fill:rgb(89, 88, 88); fill-opacity:1.000; stroke:none;" />
 <path d="  M 28,34  L 29,34  L 29,33  L 28,33  Z  " style="fill:rgb(89, 88, 88); fill-opacity:1.000; stroke:none;" />
 <path d="  M 28,51  L 29,51  L 29,50  L 28,50  Z  " style="fill:rgb(89, 88, 88); fill-opacity:1.000; stroke:none;" />
 <path d="  M 29,35  L 30,35  L 30,34  L 29,34  Z  " style="fill:rgb(89, 88, 88); fill-opacity:1.000; stroke:none;" />
 <path d="  M 30,51  L 29,51  L 29,52  L 30,52  L 30,53  L 31,53  L 31,35  L 30,35  Z  " style="fill:rgb(89, 88, 88); fill-opacity:1.000; stroke:none;" />
 <path d="  M 37,16  L 35,16  L 35,15  L 33,15  L 33,14  L 31,14  L 31,15  L 29,15  L 29,16  L 27,16  L 27,17  L 25,17  L 25,18  L 23,18  L 23,19  L 21,19  L 21,20  L 19,20  L 19,21  L 17,21  L 17,22  L 15,22  L 15,23  L 14,23  L 14,24  L 17,24  L 17,25  L 19,25  L 19,26  L 21,26  L 21,27  L 23,27  L 23,28  L 25,28  L 25,29  L 27,29  L 27,30  L 29,30  L 29,31  L 31,31  L 31,32  L 33,32  L 33,31  L 35,31  L 35,30  L 37,30  L 37,29  L 39,29  L 39,28  L 41,28  L 41,27  L 43,27  L 43,26  L 45,26  L 45,25  L 47,25  L 47,24  L 50,24  L 50,23  L 49,23  L 49,22  L 47,22  L 47,21  L 45,21  L 45,20  L 43,20  L 43,19  L 41,19  L 41,18  L 39,18  L 39,17  L 37,17  Z  " style="fill:rgb(27, 27, 33); fill-opacity:1.000; stroke:none;" />
 <path d="  M 18,46  L 18,45  L 16,45  L 16,46  Z  " style="fill:rgb(63, 62, 66); fill-opacity:1.000; stroke:none;" />
 <path d="  M 20,47  L 20,48  L 22,48  L 22,47  Z  " style="fill:rgb(63, 62, 66); fill-opacity:1.000; stroke:none;" />
 <path d="  M 26,49  L 24,49  L 24,50  L 26,50  Z  " style="fill:rgb(63, 62, 66); fill-opacity:1.000; stroke:none;" />
 <path d="  M 29,52  L 28,52  L 28,53  L 29,53  Z  " style="fill:rgb(63, 62, 66); fill-opacity:1.000; stroke:none;" />
 <path d="  M 29,54  L 30,54  L 30,53  L 29,53  Z  " style="fill:rgb(63, 62, 66); fill-opacity:1.000; stroke:none;" />
 <path d="  M 45,46  L 45,45  L 48,45  L 48,44  L 49,44  L 49,43  L 50,43  L 50,42  L 51,42  L 51,26  L 48,26  L 48,27  L 46,27  L 46,28  L 44,28  L 44,29  L 42,29  L 42,30  L 40,30  L 40,31  L 38,31  L 38,32  L 36,32  L 36,33  L 34,33  L 34,34  L 32,34  L 32,53  L 33,53  L 33,52  L 35,52  L 35,51  L 36,51  L 36,50  L 37,50  L 37,49  L 39,49  L 39,48  L 41,48  L 41,47  L 43,47  L 43,46  Z  " style="fill:rgb(63, 62, 66); fill-opacity:1.000; stroke:none;" />
 <path d="  M 35,54  L 35,53  L 34,53  L 34,54  Z  " style="fill:rgb(63, 62, 66); fill-opacity:1.000; stroke:none;" />
 <path d="  M 40,29  L 39,29  L 39,30  L 40,30  Z  " style="fill:rgb(63, 62, 66); fill-opacity:1.000; stroke:none;" />
 <path d="  M 42,29  L 42,28  L 40,28  L 40,29  Z  " style="fill:rgb(63, 62, 66); fill-opacity:1.000; stroke:none;" />
 <path d="  M 42,27  L 42,28  L 44,28  L 44,27  Z  " style="fill:rgb(63, 62, 66); fill-opacity:1.000; stroke:none;" />
 <path d="  M 44,26  L 44,27  L 46,27  L 46,26  Z  " style="fill:rgb(63, 62, 66); fill-opacity:1.000; stroke:none;" />
 <path d="  M 48,25  L 46,25  L 46,26  L 48,26  Z  " style="fill:rgb(63, 62, 66); fill-opacity:1.000; stroke:none;" />
 <path d="  M 50,25  L 50,24  L 48,24  L 48,25  Z  " style="fill:rgb(63, 62, 66); fill-opacity:1.000; stroke:none;" />
 <path d="  M 51,23  L 50,23  L 50,24  L 51,24  Z  " style="fill:rgb(63, 62, 66); fill-opacity:1.000; stroke:none;" />
</svg>
