<?xml version="1.0" encoding="UTF-8" standalone="no"?>
<!DOCTYPE svg PUBLIC "-//W3C//DTD SVG 1.1//EN" 
  "http://www.w3.org/Graphics/SVG/1.1/DTD/svg11.dtd">
<svg width="64" height="64"
	 xmlns="http://www.w3.org/2000/svg" version="1.1">
 <path d="  M 10,15  L 11,15  L 11,13  L 15,13  L 15,12  L 10,12  Z  " style="fill:rgb(186, 155, 186); fill-opacity:1.000; stroke:none;" />
 <path d="  M 12,16  L 12,15  L 11,15  L 11,16  Z  " style="fill:rgb(186, 155, 186); fill-opacity:1.000; stroke:none;" />
 <path d="  M 13,17  L 13,16  L 12,16  L 12,17  Z  " style="fill:rgb(186, 155, 186); fill-opacity:1.000; stroke:none;" />
 <path d="  M 13,17  L 13,18  L 14,18  L 14,17  Z  " style="fill:rgb(186, 155, 186); fill-opacity:1.000; stroke:none;" />
 <path d="  M 15,18  L 14,18  L 14,19  L 15,19  Z  " style="fill:rgb(186, 155, 186); fill-opacity:1.000; stroke:none;" />
 <path d="  M 17,14  L 17,13  L 15,13  L 15,14  Z  " style="fill:rgb(186, 155, 186); fill-opacity:1.000; stroke:none;" />
 <path d="  M 15,22  L 16,22  L 16,19  L 15,19  Z  " style="fill:rgb(186, 155, 186); fill-opacity:1.000; stroke:none;" />
 <path d="  M 17,22  L 16,22  L 16,24  L 18,24  L 18,23  L 17,23  Z  " style="fill:rgb(186, 155, 186); fill-opacity:1.000; stroke:none;" />
 <path d="  M 20,15  L 20,14  L 17,14  L 17,15  Z  " style="fill:rgb(186, 155, 186); fill-opacity:1.000; stroke:none;" />
 <path d="  M 18,28  L 19,28  L 19,24  L 18,24  Z  " style="fill:rgb(186, 155, 186); fill-opacity:1.000; stroke:none;" />
 <path d="  M 19,29  L 20,29  L 20,28  L 19,28  Z  " style="fill:rgb(186, 155, 186); fill-opacity:1.000; stroke:none;" />
 <path d="  M 21,13  L 20,13  L 20,14  L 21,14  Z  " style="fill:rgb(186, 155, 186); fill-opacity:1.000; stroke:none;" />
 <path d="  M 21,12  L 21,13  L 22,13  L 22,12  Z  " style="fill:rgb(186, 155, 186); fill-opacity:1.000; stroke:none;" />
 <path d="  M 21,29  L 21,30  L 25,30  L 25,29  Z  " style="fill:rgb(186, 155, 186); fill-opacity:1.000; stroke:none;" />
 <path d="  M 22,12  L 23,12  L 23,11  L 22,11  Z  " style="fill:rgb(186, 155, 186); fill-opacity:1.000; stroke:none;" />
 <path d="  M 24,11  L 24,10  L 23,10  L 23,11  Z  " style="fill:rgb(186, 155, 186); fill-opacity:1.000; stroke:none;" />
 <path d="  M 25,10  L 25,9  L 24,9  L 24,10  Z  " style="fill:rgb(186, 155, 186); fill-opacity:1.000; stroke:none;" />
 <path d="  M 26,8  L 25,8  L 25,9  L 26,9  Z  " style="fill:rgb(186, 155, 186); fill-opacity:1.000; stroke:none;" />
 <path d="  M 27,29  L 27,28  L 25,28  L 25,29  Z  " style="fill:rgb(186, 155, 186); fill-opacity:1.000; stroke:none;" />
 <path d="  M 27,7  L 26,7  L 26,8  L 27,8  Z  " style="fill:rgb(186, 155, 186); fill-opacity:1.000; stroke:none;" />
 <path d="  M 30,10  L 30,6  L 27,6  L 27,7  L 29,7  L 29,10  Z  " style="fill:rgb(186, 155, 186); fill-opacity:1.000; stroke:none;" />
 <path d="  M 27,22  L 28,22  L 28,13  L 27,13  Z  " style="fill:rgb(186, 155, 186); fill-opacity:1.000; stroke:none;" />
 <path d="  M 27,27  L 27,28  L 28,28  L 28,27  Z  " style="fill:rgb(186, 155, 186); fill-opacity:1.000; stroke:none;" />
 <path d="  M 29,10  L 28,10  L 28,13  L 29,13  Z  " style="fill:rgb(186, 155, 186); fill-opacity:1.000; stroke:none;" />
 <path d="  M 28,23  L 29,23  L 29,25  L 30,25  L 30,22  L 28,22  Z  " style="fill:rgb(186, 155, 186); fill-opacity:1.000; stroke:none;" />
 <path d="  M 28,27  L 29,27  L 29,26  L 28,26  Z  " style="fill:rgb(186, 155, 186); fill-opacity:1.000; stroke:none;" />
 <path d="  M 21,28  L 21,29  L 23,29  L 23,28  L 26,28  L 26,27  L 27,27  L 27,26  L 28,26  L 28,23  L 27,23  L 27,22  L 26,22  L 26,20  L 25,20  L 25,18  L 26,18  L 26,15  L 27,15  L 27,12  L 28,12  L 28,9  L 29,9  L 29,8  L 27,8  L 27,9  L 26,9  L 26,10  L 25,10  L 25,11  L 24,11  L 24,12  L 23,12  L 23,13  L 22,13  L 22,14  L 20,14  L 20,15  L 16,15  L 16,14  L 14,14  L 14,13  L 11,13  L 11,14  L 12,14  L 12,15  L 13,15  L 13,16  L 15,16  L 15,18  L 16,18  L 16,19  L 17,19  L 17,22  L 18,22  L 18,21  L 19,21  L 19,22  L 20,22  L 20,23  L 19,23  L 19,26  L 20,26  L 20,28  Z  " style="fill:rgb(247, 244, 247); fill-opacity:1.000; stroke:none;" />
 <path d="  M 18,23  L 19,23  L 19,22  L 18,22  Z  " style="fill:rgb(247, 244, 247); fill-opacity:1.000; stroke:none;" />
 <path d="  M 11,14  L 11,15  L 12,15  L 12,14  Z  " style="fill:rgb(224, 201, 224); fill-opacity:1.000; stroke:none;" />
 <path d="  M 12,16  L 13,16  L 13,15  L 12,15  Z  " style="fill:rgb(224, 201, 224); fill-opacity:1.000; stroke:none;" />
 <path d="  M 15,16  L 13,16  L 13,17  L 14,17  L 14,18  L 15,18  Z  " style="fill:rgb(224, 201, 224); fill-opacity:1.000; stroke:none;" />
 <path d="  M 14,14  L 15,14  L 15,13  L 14,13  Z  " style="fill:rgb(224, 201, 224); fill-opacity:1.000; stroke:none;" />
 <path d="  M 16,18  L 15,18  L 15,19  L 16,19  Z  " style="fill:rgb(224, 201, 224); fill-opacity:1.000; stroke:none;" />
 <path d="  M 16,15  L 17,15  L 17,14  L 16,14  Z  " style="fill:rgb(224, 201, 224); fill-opacity:1.000; stroke:none;" />
 <path d="  M 16,19  L 16,22  L 17,22  L 17,19  Z  " style="fill:rgb(224, 201, 224); fill-opacity:1.000; stroke:none;" />
 <path d="  M 18,22  L 17,22  L 17,23  L 18,23  Z  " style="fill:rgb(224, 201, 224); fill-opacity:1.000; stroke:none;" />
 <path d="  M 18,21  L 18,22  L 19,22  L 19,21  Z  " style="fill:rgb(224, 201, 224); fill-opacity:1.000; stroke:none;" />
 <path d="  M 19,24  L 19,23  L 18,23  L 18,24  Z  " style="fill:rgb(224, 201, 224); fill-opacity:1.000; stroke:none;" />
 <path d="  M 20,22  L 19,22  L 19,23  L 20,23  Z  " style="fill:rgb(224, 201, 224); fill-opacity:1.000; stroke:none;" />
 <path d="  M 20,28  L 20,26  L 19,26  L 19,28  Z  " style="fill:rgb(224, 201, 224); fill-opacity:1.000; stroke:none;" />
 <path d="  M 21,29  L 21,28  L 20,28  L 20,29  Z  " style="fill:rgb(224, 201, 224); fill-opacity:1.000; stroke:none;" />
 <path d="  M 21,14  L 22,14  L 22,13  L 21,13  Z  " style="fill:rgb(224, 201, 224); fill-opacity:1.000; stroke:none;" />
 <path d="  M 23,13  L 23,12  L 22,12  L 22,13  Z  " style="fill:rgb(224, 201, 224); fill-opacity:1.000; stroke:none;" />
 <path d="  M 23,11  L 23,12  L 24,12  L 24,11  Z  " style="fill:rgb(224, 201, 224); fill-opacity:1.000; stroke:none;" />
 <path d="  M 23,29  L 25,29  L 25,28  L 23,28  Z  " style="fill:rgb(224, 201, 224); fill-opacity:1.000; stroke:none;" />
 <path d="  M 25,11  L 25,10  L 24,10  L 24,11  Z  " style="fill:rgb(224, 201, 224); fill-opacity:1.000; stroke:none;" />
 <path d="  M 26,10  L 26,9  L 25,9  L 25,10  Z  " style="fill:rgb(224, 201, 224); fill-opacity:1.000; stroke:none;" />
 <path d="  M 27,15  L 26,15  L 26,18  L 25,18  L 25,20  L 26,20  L 26,22  L 27,22  Z  " style="fill:rgb(224, 201, 224); fill-opacity:1.000; stroke:none;" />
 <path d="  M 26,8  L 26,9  L 27,9  L 27,8  Z  " style="fill:rgb(224, 201, 224); fill-opacity:1.000; stroke:none;" />
 <path d="  M 26,28  L 27,28  L 27,27  L 26,27  Z  " style="fill:rgb(224, 201, 224); fill-opacity:1.000; stroke:none;" />
 <path d="  M 29,8  L 29,7  L 27,7  L 27,8  Z  " style="fill:rgb(224, 201, 224); fill-opacity:1.000; stroke:none;" />
 <path d="  M 28,12  L 27,12  L 27,13  L 28,13  Z  " style="fill:rgb(224, 201, 224); fill-opacity:1.000; stroke:none;" />
 <path d="  M 28,22  L 27,22  L 27,23  L 28,23  Z  " style="fill:rgb(224, 201, 224); fill-opacity:1.000; stroke:none;" />
 <path d="  M 27,27  L 28,27  L 28,26  L 27,26  Z  " style="fill:rgb(224, 201, 224); fill-opacity:1.000; stroke:none;" />
 <path d="  M 28,10  L 29,10  L 29,9  L 28,9  Z  " style="fill:rgb(224, 201, 224); fill-opacity:1.000; stroke:none;" />
 <path d="  M 28,23  L 28,26  L 29,26  L 29,23  Z  " style="fill:rgb(224, 201, 224); fill-opacity:1.000; stroke:none;" />
 <path d="  M 16,44  L 16,43  L 15,43  L 15,41  L 14,41  L 14,34  L 13,34  L 13,44  L 14,44  L 14,46  L 15,46  L 15,47  L 16,47  L 16,48  L 17,48  L 17,49  L 18,49  L 18,50  L 19,50  L 19,51  L 21,51  L 21,52  L 23,52  L 23,53  L 27,53  L 27,52  L 29,52  L 29,51  L 30,51  L 30,48  L 29,48  L 29,47  L 28,47  L 28,48  L 26,48  L 26,49  L 22,49  L 22,48  L 20,48  L 20,47  L 19,47  L 19,46  L 18,46  L 18,45  L 17,45  L 17,44  Z  " style="fill:rgb(101, 72, 100); fill-opacity:1.000; stroke:none;" />
 <path d="  M 14,34  L 15,34  L 15,33  L 14,33  Z  " style="fill:rgb(101, 72, 100); fill-opacity:1.000; stroke:none;" />
 <path d="  M 19,29  L 19,28  L 17,28  L 17,29  Z  " style="fill:rgb(101, 72, 100); fill-opacity:1.000; stroke:none;" />
 <path d="  M 21,29  L 19,29  L 19,30  L 21,30  Z  " style="fill:rgb(101, 72, 100); fill-opacity:1.000; stroke:none;" />
 <path d="  M 21,30  L 21,31  L 25,31  L 25,30  Z  " style="fill:rgb(101, 72, 100); fill-opacity:1.000; stroke:none;" />
 <path d="  M 27,29  L 25,29  L 25,30  L 27,30  Z  " style="fill:rgb(101, 72, 100); fill-opacity:1.000; stroke:none;" />
 <path d="  M 25,48  L 26,48  L 26,47  L 25,47  Z  " style="fill:rgb(101, 72, 100); fill-opacity:1.000; stroke:none;" />
 <path d="  M 27,29  L 28,29  L 28,28  L 27,28  Z  " style="fill:rgb(101, 72, 100); fill-opacity:1.000; stroke:none;" />
 <path d="  M 29,28  L 29,27  L 28,27  L 28,28  Z  " style="fill:rgb(101, 72, 100); fill-opacity:1.000; stroke:none;" />
 <path d="  M 28,46  L 29,46  L 29,44  L 28,44  Z  " style="fill:rgb(101, 72, 100); fill-opacity:1.000; stroke:none;" />
 <path d="  M 30,20  L 30,21  L 29,21  L 29,22  L 30,22  L 30,25  L 31,25  L 31,22  L 32,22  L 32,21  L 34,21  L 34,20  Z  " style="fill:rgb(101, 72, 100); fill-opacity:1.000; stroke:none;" />
 <path d="  M 29,27  L 30,27  L 30,25  L 29,25  Z  " style="fill:rgb(101, 72, 100); fill-opacity:1.000; stroke:none;" />
 <path d="  M 29,47  L 30,47  L 30,46  L 29,46  Z  " style="fill:rgb(101, 72, 100); fill-opacity:1.000; stroke:none;" />
 <path d="  M 31,47  L 30,47  L 30,48  L 31,48  Z  " style="fill:rgb(101, 72, 100); fill-opacity:1.000; stroke:none;" />
 <path d="  M 50,44  L 50,43  L 51,43  L 51,41  L 52,41  L 52,38  L 53,38  L 53,37  L 52,37  L 52,35  L 53,35  L 53,33  L 52,33  L 52,28  L 51,28  L 51,26  L 50,26  L 50,24  L 49,24  L 49,23  L 48,23  L 48,22  L 46,22  L 46,23  L 47,23  L 47,24  L 48,24  L 48,26  L 49,26  L 49,28  L 50,28  L 50,30  L 51,30  L 51,31  L 50,31  L 50,33  L 51,33  L 51,34  L 50,34  L 50,37  L 49,37  L 49,41  L 48,41  L 48,42  L 47,42  L 47,40  L 46,40  L 46,45  L 45,45  L 45,46  L 44,46  L 44,47  L 42,47  L 42,48  L 41,48  L 41,49  L 40,49  L 40,48  L 39,48  L 39,49  L 37,49  L 37,50  L 35,50  L 35,49  L 33,49  L 33,48  L 31,48  L 31,49  L 32,49  L 32,50  L 33,50  L 33,51  L 34,51  L 34,52  L 36,52  L 36,53  L 39,53  L 39,52  L 41,52  L 41,51  L 43,51  L 43,50  L 45,50  L 45,49  L 46,49  L 46,48  L 47,48  L 47,47  L 48,47  L 48,44  Z  M 47,44  L 47,43  L 48,43  L 48,44  Z  " style="fill:rgb(101, 72, 100); fill-opacity:1.000; stroke:none;" />
 <path d="  M 44,45  L 43,45  L 43,46  L 44,46  Z  " style="fill:rgb(101, 72, 100); fill-opacity:1.000; stroke:none;" />
 <path d="  M 44,52  L 44,51  L 43,51  L 43,52  Z  " style="fill:rgb(101, 72, 100); fill-opacity:1.000; stroke:none;" />
 <path d="  M 45,22  L 46,22  L 46,21  L 45,21  Z  " style="fill:rgb(101, 72, 100); fill-opacity:1.000; stroke:none;" />
 <path d="  M 45,40  L 46,40  L 46,38  L 45,38  Z  " style="fill:rgb(101, 72, 100); fill-opacity:1.000; stroke:none;" />
 <path d="  M 46,50  L 47,50  L 47,49  L 46,49  Z  " style="fill:rgb(101, 72, 100); fill-opacity:1.000; stroke:none;" />
 <path d="  M 47,49  L 48,49  L 48,48  L 47,48  Z  " style="fill:rgb(101, 72, 100); fill-opacity:1.000; stroke:none;" />
 <path d="  M 49,28  L 48,28  L 48,29  L 49,29  Z  " style="fill:rgb(101, 72, 100); fill-opacity:1.000; stroke:none;" />
 <path d="  M 49,31  L 50,31  L 50,30  L 49,30  Z  " style="fill:rgb(101, 72, 100); fill-opacity:1.000; stroke:none;" />
 <path d="  M 51,44  L 52,44  L 52,43  L 51,43  Z  " style="fill:rgb(101, 72, 100); fill-opacity:1.000; stroke:none;" />
 <path d="  M 53,43  L 53,42  L 52,42  L 52,43  Z  " style="fill:rgb(101, 72, 100); fill-opacity:1.000; stroke:none;" />
 <path d="  M 13,46  L 14,46  L 14,44  L 13,44  Z  " style="fill:rgb(94, 46, 92); fill-opacity:1.000; stroke:none;" />
 <path d="  M 15,31  L 14,31  L 14,33  L 15,33  Z  " style="fill:rgb(94, 46, 92); fill-opacity:1.000; stroke:none;" />
 <path d="  M 14,46  L 14,47  L 15,47  L 15,46  Z  " style="fill:rgb(94, 46, 92); fill-opacity:1.000; stroke:none;" />
 <path d="  M 15,31  L 16,31  L 16,29  L 15,29  Z  " style="fill:rgb(94, 46, 92); fill-opacity:1.000; stroke:none;" />
 <path d="  M 16,48  L 16,47  L 15,47  L 15,48  Z  " style="fill:rgb(94, 46, 92); fill-opacity:1.000; stroke:none;" />
 <path d="  M 17,28  L 18,28  L 18,26  L 17,26  L 17,27  L 16,27  L 16,29  L 17,29  Z  " style="fill:rgb(94, 46, 92); fill-opacity:1.000; stroke:none;" />
 <path d="  M 22,54  L 22,55  L 25,55  L 25,56  L 29,56  L 29,57  L 33,57  L 33,56  L 34,56  L 34,53  L 33,53  L 33,52  L 34,52  L 34,51  L 33,51  L 33,50  L 32,50  L 32,49  L 31,49  L 31,48  L 30,48  L 30,51  L 29,51  L 29,52  L 27,52  L 27,53  L 23,53  L 23,52  L 21,52  L 21,51  L 19,51  L 19,50  L 18,50  L 18,49  L 17,49  L 17,48  L 16,48  L 16,50  L 17,50  L 17,51  L 18,51  L 18,52  L 19,52  L 19,53  L 20,53  L 20,54  Z  " style="fill:rgb(94, 46, 92); fill-opacity:1.000; stroke:none;" />
 <path d="  M 30,20  L 28,20  L 28,22  L 29,22  L 29,21  L 30,21  Z  " style="fill:rgb(94, 46, 92); fill-opacity:1.000; stroke:none;" />
 <path d="  M 30,47  L 29,47  L 29,48  L 30,48  Z  " style="fill:rgb(94, 46, 92); fill-opacity:1.000; stroke:none;" />
 <path d="  M 32,19  L 30,19  L 30,20  L 32,20  Z  " style="fill:rgb(94, 46, 92); fill-opacity:1.000; stroke:none;" />
 <path d="  M 52,45  L 53,45  L 53,43  L 52,43  L 52,44  L 51,44  L 51,43  L 50,43  L 50,44  L 48,44  L 48,47  L 47,47  L 47,48  L 48,48  L 48,49  L 47,49  L 47,50  L 46,50  L 46,49  L 45,49  L 45,50  L 43,50  L 43,51  L 41,51  L 41,52  L 39,52  L 39,53  L 36,53  L 36,52  L 34,52  L 34,53  L 35,53  L 35,54  L 36,54  L 36,55  L 40,55  L 40,54  L 44,54  L 44,53  L 46,53  L 46,52  L 48,52  L 48,51  L 49,51  L 49,50  L 50,50  L 50,48  L 49,48  L 49,47  L 51,47  L 51,46  L 52,46  Z  M 44,52  L 43,52  L 43,51  L 44,51  Z  " style="fill:rgb(94, 46, 92); fill-opacity:1.000; stroke:none;" />
 <path d="  M 43,19  L 42,19  L 42,20  L 43,20  Z  " style="fill:rgb(94, 46, 92); fill-opacity:1.000; stroke:none;" />
 <path d="  M 46,21  L 46,20  L 43,20  L 43,21  Z  " style="fill:rgb(94, 46, 92); fill-opacity:1.000; stroke:none;" />
 <path d="  M 46,22  L 47,22  L 47,21  L 46,21  Z  " style="fill:rgb(94, 46, 92); fill-opacity:1.000; stroke:none;" />
 <path d="  M 47,49  L 47,48  L 46,48  L 46,49  Z  " style="fill:rgb(94, 46, 92); fill-opacity:1.000; stroke:none;" />
 <path d="  M 47,43  L 47,44  L 48,44  L 48,43  Z  " style="fill:rgb(94, 46, 92); fill-opacity:1.000; stroke:none;" />
 <path d="  M 51,25  L 50,25  L 50,26  L 51,26  Z  " style="fill:rgb(94, 46, 92); fill-opacity:1.000; stroke:none;" />
 <path d="  M 52,26  L 51,26  L 51,28  L 52,28  Z  " style="fill:rgb(94, 46, 92); fill-opacity:1.000; stroke:none;" />
 <path d="  M 52,37  L 53,37  L 53,38  L 52,38  L 52,41  L 51,41  L 51,43  L 52,43  L 52,42  L 53,42  L 53,43  L 54,43  L 54,30  L 53,30  L 53,28  L 52,28  L 52,33  L 53,33  L 53,35  L 52,35  Z  " style="fill:rgb(94, 46, 92); fill-opacity:1.000; stroke:none;" />
 <path d="  M 28,47  L 29,47  L 29,46  L 28,46  L 28,44  L 29,44  L 29,43  L 28,43  L 28,42  L 27,42  L 27,44  L 26,44  L 26,45  L 25,45  L 25,46  L 20,46  L 20,45  L 19,45  L 19,44  L 18,44  L 18,43  L 17,43  L 17,41  L 16,41  L 16,40  L 15,40  L 15,35  L 16,35  L 16,32  L 18,32  L 18,30  L 19,30  L 19,29  L 16,29  L 16,31  L 15,31  L 15,34  L 14,34  L 14,41  L 15,41  L 15,43  L 16,43  L 16,44  L 17,44  L 17,45  L 18,45  L 18,46  L 19,46  L 19,47  L 20,47  L 20,48  L 22,48  L 22,49  L 26,49  L 26,48  L 28,48  Z  M 26,48  L 25,48  L 25,47  L 26,47  Z  " style="fill:rgb(120, 89, 120); fill-opacity:1.000; stroke:none;" />
 <path d="  M 19,30  L 19,31  L 21,31  L 21,30  Z  " style="fill:rgb(120, 89, 120); fill-opacity:1.000; stroke:none;" />
 <path d="  M 22,33  L 23,33  L 23,36  L 24,36  L 24,32  L 25,32  L 25,31  L 21,31  L 21,32  L 22,32  Z  " style="fill:rgb(120, 89, 120); fill-opacity:1.000; stroke:none;" />
 <path d="  M 25,36  L 24,36  L 24,39  L 25,39  Z  " style="fill:rgb(120, 89, 120); fill-opacity:1.000; stroke:none;" />
 <path d="  M 25,30  L 25,31  L 27,31  L 27,30  Z  " style="fill:rgb(120, 89, 120); fill-opacity:1.000; stroke:none;" />
 <path d="  M 26,41  L 26,39  L 25,39  L 25,41  Z  " style="fill:rgb(120, 89, 120); fill-opacity:1.000; stroke:none;" />
 <path d="  M 26,42  L 27,42  L 27,41  L 26,41  Z  " style="fill:rgb(120, 89, 120); fill-opacity:1.000; stroke:none;" />
 <path d="  M 27,29  L 27,30  L 28,30  L 28,29  Z  " style="fill:rgb(120, 89, 120); fill-opacity:1.000; stroke:none;" />
 <path d="  M 40,21  L 42,21  L 42,22  L 44,22  L 44,23  L 45,23  L 45,25  L 46,25  L 46,27  L 47,27  L 47,31  L 48,31  L 48,35  L 47,35  L 47,36  L 44,36  L 44,40  L 43,40  L 43,42  L 42,42  L 42,43  L 41,43  L 41,44  L 40,44  L 40,45  L 38,45  L 38,46  L 32,46  L 32,45  L 30,45  L 30,44  L 29,44  L 29,46  L 30,46  L 30,47  L 31,47  L 31,48  L 33,48  L 33,49  L 35,49  L 35,50  L 37,50  L 37,49  L 39,49  L 39,48  L 40,48  L 40,49  L 41,49  L 41,48  L 42,48  L 42,47  L 44,47  L 44,46  L 45,46  L 45,45  L 46,45  L 46,40  L 47,40  L 47,42  L 48,42  L 48,41  L 49,41  L 49,37  L 50,37  L 50,34  L 51,34  L 51,33  L 50,33  L 50,31  L 49,31  L 49,30  L 50,30  L 50,28  L 49,28  L 49,26  L 48,26  L 48,24  L 47,24  L 47,23  L 46,23  L 46,22  L 45,22  L 45,21  L 43,21  L 43,20  L 42,20  L 42,19  L 32,19  L 32,20  L 34,20  L 34,21  L 32,21  L 32,22  L 31,22  L 31,25  L 30,25  L 30,27  L 29,27  L 29,28  L 28,28  L 28,29  L 30,29  L 30,28  L 31,28  L 31,27  L 33,27  L 33,28  L 35,28  L 35,27  L 34,27  L 34,26  L 32,26  L 32,24  L 33,24  L 33,22  L 35,22  L 35,21  L 37,21  L 37,20  L 40,20  Z  M 46,38  L 46,40  L 45,40  L 45,38  Z  M 48,28  L 49,28  L 49,29  L 48,29  Z  M 43,46  L 43,45  L 44,45  L 44,46  Z  " style="fill:rgb(120, 89, 120); fill-opacity:1.000; stroke:none;" />
 <path d="  M 35,28  L 35,29  L 37,29  L 37,28  Z  " style="fill:rgb(120, 89, 120); fill-opacity:1.000; stroke:none;" />
 <path d="  M 37,29  L 37,30  L 39,30  L 39,29  Z  " style="fill:rgb(120, 89, 120); fill-opacity:1.000; stroke:none;" />
 <path d="  M 39,31  L 40,31  L 40,30  L 39,30  Z  " style="fill:rgb(120, 89, 120); fill-opacity:1.000; stroke:none;" />
 <path d="  M 40,31  L 40,32  L 41,32  L 41,31  Z  " style="fill:rgb(120, 89, 120); fill-opacity:1.000; stroke:none;" />
 <path d="  M 41,32  L 41,33  L 42,33  L 42,32  Z  " style="fill:rgb(120, 89, 120); fill-opacity:1.000; stroke:none;" />
 <path d="  M 43,33  L 42,33  L 42,34  L 43,34  Z  " style="fill:rgb(120, 89, 120); fill-opacity:1.000; stroke:none;" />
 <path d="  M 43,36  L 44,36  L 44,34  L 43,34  Z  " style="fill:rgb(120, 89, 120); fill-opacity:1.000; stroke:none;" />
 <path d="  M 50,31  L 51,31  L 51,30  L 50,30  Z  " style="fill:rgb(120, 89, 120); fill-opacity:1.000; stroke:none;" />
 <path d="  M 14,47  L 14,48  L 15,48  L 15,47  Z  " style="fill:rgb(58, 20, 58); fill-opacity:1.000; stroke:none;" />
 <path d="  M 15,50  L 16,50  L 16,48  L 15,48  Z  " style="fill:rgb(58, 20, 58); fill-opacity:1.000; stroke:none;" />
 <path d="  M 17,50  L 16,50  L 16,51  L 17,51  Z  " style="fill:rgb(58, 20, 58); fill-opacity:1.000; stroke:none;" />
 <path d="  M 18,52  L 18,51  L 17,51  L 17,52  Z  " style="fill:rgb(58, 20, 58); fill-opacity:1.000; stroke:none;" />
 <path d="  M 19,53  L 19,52  L 18,52  L 18,53  Z  " style="fill:rgb(58, 20, 58); fill-opacity:1.000; stroke:none;" />
 <path d="  M 20,53  L 19,53  L 19,54  L 20,54  Z  " style="fill:rgb(58, 20, 58); fill-opacity:1.000; stroke:none;" />
 <path d="  M 20,54  L 20,55  L 22,55  L 22,54  Z  " style="fill:rgb(58, 20, 58); fill-opacity:1.000; stroke:none;" />
 <path d="  M 25,56  L 25,55  L 22,55  L 22,56  Z  " style="fill:rgb(58, 20, 58); fill-opacity:1.000; stroke:none;" />
 <path d="  M 29,57  L 29,56  L 25,56  L 25,57  Z  " style="fill:rgb(58, 20, 58); fill-opacity:1.000; stroke:none;" />
 <path d="  M 35,54  L 35,53  L 34,53  L 34,56  L 33,56  L 33,57  L 29,57  L 29,58  L 35,58  L 35,57  L 37,57  L 37,56  L 40,56  L 40,55  L 36,55  L 36,54  Z  " style="fill:rgb(58, 20, 58); fill-opacity:1.000; stroke:none;" />
 <path d="  M 34,52  L 33,52  L 33,53  L 34,53  Z  " style="fill:rgb(58, 20, 58); fill-opacity:1.000; stroke:none;" />
 <path d="  M 44,55  L 44,54  L 40,54  L 40,55  Z  " style="fill:rgb(58, 20, 58); fill-opacity:1.000; stroke:none;" />
 <path d="  M 44,53  L 44,54  L 46,54  L 46,53  Z  " style="fill:rgb(58, 20, 58); fill-opacity:1.000; stroke:none;" />
 <path d="  M 46,53  L 48,53  L 48,52  L 46,52  Z  " style="fill:rgb(58, 20, 58); fill-opacity:1.000; stroke:none;" />
 <path d="  M 47,21  L 47,22  L 48,22  L 48,21  Z  " style="fill:rgb(58, 20, 58); fill-opacity:1.000; stroke:none;" />
 <path d="  M 49,23  L 49,22  L 48,22  L 48,23  Z  " style="fill:rgb(58, 20, 58); fill-opacity:1.000; stroke:none;" />
 <path d="  M 48,52  L 49,52  L 49,51  L 48,51  Z  " style="fill:rgb(58, 20, 58); fill-opacity:1.000; stroke:none;" />
 <path d="  M 50,24  L 50,23  L 49,23  L 49,24  Z  " style="fill:rgb(58, 20, 58); fill-opacity:1.000; stroke:none;" />
 <path d="  M 52,46  L 51,46  L 51,47  L 49,47  L 49,48  L 50,48  L 50,50  L 51,50  L 51,48  L 52,48  Z  " style="fill:rgb(58, 20, 58); fill-opacity:1.000; stroke:none;" />
 <path d="  M 50,50  L 49,50  L 49,51  L 50,51  Z  " style="fill:rgb(58, 20, 58); fill-opacity:1.000; stroke:none;" />
 <path d="  M 51,25  L 51,24  L 50,24  L 50,25  Z  " style="fill:rgb(58, 20, 58); fill-opacity:1.000; stroke:none;" />
 <path d="  M 52,26  L 52,25  L 51,25  L 51,26  Z  " style="fill:rgb(58, 20, 58); fill-opacity:1.000; stroke:none;" />
 <path d="  M 53,26  L 52,26  L 52,28  L 53,28  Z  " style="fill:rgb(58, 20, 58); fill-opacity:1.000; stroke:none;" />
 <path d="  M 52,45  L 52,46  L 53,46  L 53,45  Z  " style="fill:rgb(58, 20, 58); fill-opacity:1.000; stroke:none;" />
 <path d="  M 53,30  L 54,30  L 54,28  L 53,28  Z  " style="fill:rgb(58, 20, 58); fill-opacity:1.000; stroke:none;" />
 <path d="  M 53,43  L 53,45  L 54,45  L 54,43  Z  " style="fill:rgb(58, 20, 58); fill-opacity:1.000; stroke:none;" />
 <path d="  M 55,30  L 54,30  L 54,43  L 55,43  Z  " style="fill:rgb(58, 20, 58); fill-opacity:1.000; stroke:none;" />
 <path d="  M 15,40  L 16,40  L 16,41  L 17,41  L 17,40  L 18,40  L 18,38  L 17,38  L 17,35  L 15,35  Z  " style="fill:rgb(142, 103, 141); fill-opacity:1.000; stroke:none;" />
 <path d="  M 18,32  L 16,32  L 16,34  L 17,34  L 17,35  L 18,35  Z  " style="fill:rgb(142, 103, 141); fill-opacity:1.000; stroke:none;" />
 <path d="  M 22,44  L 21,44  L 21,43  L 20,43  L 20,42  L 18,42  L 18,41  L 17,41  L 17,43  L 18,43  L 18,44  L 19,44  L 19,45  L 20,45  L 20,46  L 25,46  L 25,45  L 26,45  L 26,44  L 27,44  L 27,42  L 26,42  L 26,41  L 25,41  L 25,39  L 24,39  L 24,36  L 23,36  L 23,33  L 22,33  L 22,32  L 21,32  L 21,31  L 19,31  L 19,30  L 18,30  L 18,32  L 20,32  L 20,33  L 21,33  L 21,35  L 22,35  L 22,36  L 21,36  L 21,37  L 22,37  L 22,38  L 23,38  L 23,39  L 22,39  L 22,40  L 24,40  L 24,41  L 23,41  L 23,42  L 24,42  L 24,43  L 25,43  L 25,44  L 24,44  L 24,45  L 22,45  Z  " style="fill:rgb(142, 103, 141); fill-opacity:1.000; stroke:none;" />
 <path d="  M 19,41  L 19,40  L 18,40  L 18,41  Z  " style="fill:rgb(142, 103, 141); fill-opacity:1.000; stroke:none;" />
 <path d="  M 19,35  L 19,36  L 20,36  L 20,35  Z  " style="fill:rgb(142, 103, 141); fill-opacity:1.000; stroke:none;" />
 <path d="  M 21,37  L 20,37  L 20,38  L 21,38  Z  " style="fill:rgb(142, 103, 141); fill-opacity:1.000; stroke:none;" />
 <path d="  M 33,28  L 33,27  L 31,27  L 31,28  L 30,28  L 30,29  L 28,29  L 28,30  L 27,30  L 27,31  L 25,31  L 25,32  L 24,32  L 24,36  L 25,36  L 25,39  L 26,39  L 26,41  L 27,41  L 27,42  L 28,42  L 28,43  L 29,43  L 29,44  L 30,44  L 30,45  L 32,45  L 32,46  L 38,46  L 38,45  L 40,45  L 40,44  L 41,44  L 41,43  L 42,43  L 42,42  L 43,42  L 43,40  L 44,40  L 44,36  L 43,36  L 43,34  L 42,34  L 42,33  L 41,33  L 41,34  L 40,34  L 40,35  L 42,35  L 42,36  L 41,36  L 41,38  L 42,38  L 42,39  L 41,39  L 41,40  L 39,40  L 39,41  L 38,41  L 38,42  L 37,42  L 37,43  L 38,43  L 38,44  L 36,44  L 36,45  L 35,45  L 35,44  L 33,44  L 33,43  L 31,43  L 31,42  L 29,42  L 29,41  L 28,41  L 28,40  L 27,40  L 27,38  L 26,38  L 26,35  L 25,35  L 25,33  L 26,33  L 26,32  L 27,32  L 27,33  L 28,33  L 28,31  L 29,31  L 29,30  L 31,30  L 31,29  L 32,29  L 32,30  L 34,30  L 34,31  L 36,31  L 36,30  L 35,30  L 35,28  Z  M 39,42  L 39,41  L 40,41  L 40,42  Z  " style="fill:rgb(142, 103, 141); fill-opacity:1.000; stroke:none;" />
 <path d="  M 27,34  L 26,34  L 26,35  L 27,35  Z  " style="fill:rgb(142, 103, 141); fill-opacity:1.000; stroke:none;" />
 <path d="  M 31,30  L 31,31  L 32,31  L 32,30  Z  " style="fill:rgb(142, 103, 141); fill-opacity:1.000; stroke:none;" />
 <path d="  M 34,26  L 34,25  L 33,25  L 33,24  L 32,24  L 32,26  Z  " style="fill:rgb(142, 103, 141); fill-opacity:1.000; stroke:none;" />
 <path d="  M 33,24  L 34,24  L 34,23  L 35,23  L 35,22  L 33,22  Z  " style="fill:rgb(142, 103, 141); fill-opacity:1.000; stroke:none;" />
 <path d="  M 36,25  L 35,25  L 35,26  L 34,26  L 34,27  L 35,27  L 35,28  L 37,28  L 37,27  L 36,27  Z  " style="fill:rgb(142, 103, 141); fill-opacity:1.000; stroke:none;" />
 <path d="  M 38,22  L 40,22  L 40,23  L 42,23  L 42,24  L 43,24  L 43,25  L 44,25  L 44,27  L 46,27  L 46,25  L 45,25  L 45,23  L 44,23  L 44,22  L 42,22  L 42,21  L 40,21  L 40,20  L 37,20  L 37,21  L 35,21  L 35,22  L 36,22  L 36,23  L 37,23  L 37,24  L 39,24  L 39,23  L 38,23  Z  " style="fill:rgb(142, 103, 141); fill-opacity:1.000; stroke:none;" />
 <path d="  M 35,43  L 35,44  L 36,44  L 36,43  Z  " style="fill:rgb(142, 103, 141); fill-opacity:1.000; stroke:none;" />
 <path d="  M 37,30  L 37,29  L 36,29  L 36,30  Z  " style="fill:rgb(142, 103, 141); fill-opacity:1.000; stroke:none;" />
 <path d="  M 37,31  L 36,31  L 36,32  L 37,32  Z  " style="fill:rgb(142, 103, 141); fill-opacity:1.000; stroke:none;" />
 <path d="  M 38,27  L 38,26  L 37,26  L 37,27  Z  " style="fill:rgb(142, 103, 141); fill-opacity:1.000; stroke:none;" />
 <path d="  M 39,28  L 37,28  L 37,29  L 39,29  Z  " style="fill:rgb(142, 103, 141); fill-opacity:1.000; stroke:none;" />
 <path d="  M 37,31  L 39,31  L 39,30  L 37,30  Z  " style="fill:rgb(142, 103, 141); fill-opacity:1.000; stroke:none;" />
 <path d="  M 38,35  L 38,36  L 39,36  L 39,35  Z  " style="fill:rgb(142, 103, 141); fill-opacity:1.000; stroke:none;" />
 <path d="  M 40,29  L 39,29  L 39,30  L 40,30  Z  " style="fill:rgb(142, 103, 141); fill-opacity:1.000; stroke:none;" />
 <path d="  M 39,31  L 39,32  L 40,32  L 40,31  Z  " style="fill:rgb(142, 103, 141); fill-opacity:1.000; stroke:none;" />
 <path d="  M 40,34  L 40,33  L 39,33  L 39,34  Z  " style="fill:rgb(142, 103, 141); fill-opacity:1.000; stroke:none;" />
 <path d="  M 41,31  L 41,30  L 40,30  L 40,31  Z  " style="fill:rgb(142, 103, 141); fill-opacity:1.000; stroke:none;" />
 <path d="  M 41,32  L 40,32  L 40,33  L 41,33  Z  " style="fill:rgb(142, 103, 141); fill-opacity:1.000; stroke:none;" />
 <path d="  M 41,38  L 40,38  L 40,39  L 41,39  Z  " style="fill:rgb(142, 103, 141); fill-opacity:1.000; stroke:none;" />
 <path d="  M 42,31  L 41,31  L 41,32  L 42,32  Z  " style="fill:rgb(142, 103, 141); fill-opacity:1.000; stroke:none;" />
 <path d="  M 42,32  L 42,33  L 43,33  L 43,32  Z  " style="fill:rgb(142, 103, 141); fill-opacity:1.000; stroke:none;" />
 <path d="  M 43,33  L 43,34  L 44,34  L 44,33  Z  " style="fill:rgb(142, 103, 141); fill-opacity:1.000; stroke:none;" />
 <path d="  M 44,36  L 47,36  L 47,35  L 48,35  L 48,31  L 47,31  L 47,27  L 46,27  L 46,28  L 45,28  L 45,30  L 46,30  L 46,31  L 45,31  L 45,32  L 44,32  L 44,33  L 46,33  L 46,34  L 44,34  Z  " style="fill:rgb(142, 103, 141); fill-opacity:1.000; stroke:none;" />
 <path d="  M 16,34  L 16,35  L 17,35  L 17,34  Z  " style="fill:rgb(163, 129, 162); fill-opacity:1.000; stroke:none;" />
 <path d="  M 17,38  L 18,38  L 18,40  L 19,40  L 19,41  L 18,41  L 18,42  L 20,42  L 20,43  L 21,43  L 21,44  L 22,44  L 22,45  L 24,45  L 24,44  L 25,44  L 25,43  L 24,43  L 24,42  L 23,42  L 23,41  L 24,41  L 24,40  L 22,40  L 22,39  L 23,39  L 23,38  L 22,38  L 22,37  L 21,37  L 21,36  L 22,36  L 22,35  L 21,35  L 21,33  L 20,33  L 20,32  L 18,32  L 18,35  L 17,35  Z  M 20,38  L 20,37  L 21,37  L 21,38  Z  M 20,35  L 20,36  L 19,36  L 19,35  Z  " style="fill:rgb(163, 129, 162); fill-opacity:1.000; stroke:none;" />
 <path d="  M 17,40  L 17,41  L 18,41  L 18,40  Z  " style="fill:rgb(163, 129, 162); fill-opacity:1.000; stroke:none;" />
 <path d="  M 27,38  L 27,40  L 28,40  L 28,41  L 29,41  L 29,42  L 31,42  L 31,43  L 33,43  L 33,44  L 35,44  L 35,43  L 36,43  L 36,44  L 38,44  L 38,43  L 37,43  L 37,42  L 38,42  L 38,41  L 39,41  L 39,40  L 41,40  L 41,39  L 40,39  L 40,38  L 41,38  L 41,36  L 42,36  L 42,35  L 40,35  L 40,34  L 39,34  L 39,33  L 40,33  L 40,32  L 39,32  L 39,31  L 37,31  L 37,32  L 36,32  L 36,31  L 34,31  L 34,30  L 32,30  L 32,31  L 31,31  L 31,30  L 29,30  L 29,31  L 28,31  L 28,33  L 27,33  L 27,32  L 26,32  L 26,33  L 25,33  L 25,35  L 26,35  L 26,38  Z  M 39,36  L 38,36  L 38,35  L 39,35  Z  M 26,35  L 26,34  L 27,34  L 27,35  Z  " style="fill:rgb(163, 129, 162); fill-opacity:1.000; stroke:none;" />
 <path d="  M 31,30  L 32,30  L 32,29  L 31,29  Z  " style="fill:rgb(163, 129, 162); fill-opacity:1.000; stroke:none;" />
 <path d="  M 44,25  L 43,25  L 43,24  L 42,24  L 42,23  L 40,23  L 40,22  L 38,22  L 38,23  L 39,23  L 39,24  L 37,24  L 37,23  L 36,23  L 36,22  L 35,22  L 35,23  L 34,23  L 34,24  L 33,24  L 33,25  L 34,25  L 34,26  L 35,26  L 35,25  L 36,25  L 36,27  L 37,27  L 37,28  L 39,28  L 39,29  L 40,29  L 40,30  L 41,30  L 41,31  L 42,31  L 42,32  L 43,32  L 43,33  L 44,33  L 44,32  L 45,32  L 45,31  L 46,31  L 46,30  L 45,30  L 45,28  L 46,28  L 46,27  L 44,27  Z  M 37,26  L 38,26  L 38,27  L 37,27  Z  " style="fill:rgb(163, 129, 162); fill-opacity:1.000; stroke:none;" />
 <path d="  M 35,29  L 35,30  L 36,30  L 36,29  Z  " style="fill:rgb(163, 129, 162); fill-opacity:1.000; stroke:none;" />
 <path d="  M 36,44  L 35,44  L 35,45  L 36,45  Z  " style="fill:rgb(163, 129, 162); fill-opacity:1.000; stroke:none;" />
 <path d="  M 37,30  L 36,30  L 36,31  L 37,31  Z  " style="fill:rgb(163, 129, 162); fill-opacity:1.000; stroke:none;" />
 <path d="  M 39,41  L 39,42  L 40,42  L 40,41  Z  " style="fill:rgb(163, 129, 162); fill-opacity:1.000; stroke:none;" />
 <path d="  M 41,34  L 41,33  L 40,33  L 40,34  Z  " style="fill:rgb(163, 129, 162); fill-opacity:1.000; stroke:none;" />
 <path d="  M 41,39  L 42,39  L 42,38  L 41,38  Z  " style="fill:rgb(163, 129, 162); fill-opacity:1.000; stroke:none;" />
 <path d="  M 46,34  L 46,33  L 44,33  L 44,34  Z  " style="fill:rgb(163, 129, 162); fill-opacity:1.000; stroke:none;" />
</svg>
