<?xml version="1.0" encoding="UTF-8" standalone="no"?>
<!DOCTYPE svg PUBLIC "-//W3C//DTD SVG 1.1//EN" 
  "http://www.w3.org/Graphics/SVG/1.1/DTD/svg11.dtd">
<svg width="64" height="64"
	 xmlns="http://www.w3.org/2000/svg" version="1.1">
 <path d="  M 1,24  L 0,24  L 0,41  L 1,41  Z  " style="fill:rgb(156, 69, 41); fill-opacity:1.000; stroke:none;" />
 <path d="  M 1,23  L 1,24  L 4,24  L 4,23  Z  " style="fill:rgb(156, 69, 41); fill-opacity:1.000; stroke:none;" />
 <path d="  M 1,42  L 2,42  L 2,41  L 1,41  Z  " style="fill:rgb(156, 69, 41); fill-opacity:1.000; stroke:none;" />
 <path d="  M 3,42  L 2,42  L 2,43  L 3,43  Z  " style="fill:rgb(156, 69, 41); fill-opacity:1.000; stroke:none;" />
 <path d="  M 4,44  L 4,43  L 3,43  L 3,44  Z  " style="fill:rgb(156, 69, 41); fill-opacity:1.000; stroke:none;" />
 <path d="  M 7,23  L 7,22  L 4,22  L 4,23  Z  " style="fill:rgb(156, 69, 41); fill-opacity:1.000; stroke:none;" />
 <path d="  M 4,45  L 5,45  L 5,44  L 4,44  Z  " style="fill:rgb(156, 69, 41); fill-opacity:1.000; stroke:none;" />
 <path d="  M 5,46  L 6,46  L 6,45  L 5,45  Z  " style="fill:rgb(156, 69, 41); fill-opacity:1.000; stroke:none;" />
 <path d="  M 7,46  L 6,46  L 6,47  L 7,47  Z  " style="fill:rgb(156, 69, 41); fill-opacity:1.000; stroke:none;" />
 <path d="  M 7,21  L 7,22  L 10,22  L 10,21  Z  " style="fill:rgb(156, 69, 41); fill-opacity:1.000; stroke:none;" />
 <path d="  M 7,47  L 7,48  L 8,48  L 8,47  Z  " style="fill:rgb(156, 69, 41); fill-opacity:1.000; stroke:none;" />
 <path d="  M 8,49  L 9,49  L 9,48  L 8,48  Z  " style="fill:rgb(156, 69, 41); fill-opacity:1.000; stroke:none;" />
 <path d="  M 9,49  L 9,50  L 10,50  L 10,49  Z  " style="fill:rgb(156, 69, 41); fill-opacity:1.000; stroke:none;" />
 <path d="  M 10,20  L 10,21  L 13,21  L 13,20  Z  " style="fill:rgb(156, 69, 41); fill-opacity:1.000; stroke:none;" />
 <path d="  M 10,51  L 11,51  L 11,50  L 10,50  Z  " style="fill:rgb(156, 69, 41); fill-opacity:1.000; stroke:none;" />
 <path d="  M 11,51  L 11,52  L 12,52  L 12,51  Z  " style="fill:rgb(156, 69, 41); fill-opacity:1.000; stroke:none;" />
 <path d="  M 12,52  L 12,53  L 13,53  L 13,52  Z  " style="fill:rgb(156, 69, 41); fill-opacity:1.000; stroke:none;" />
 <path d="  M 16,20  L 16,19  L 13,19  L 13,20  Z  " style="fill:rgb(156, 69, 41); fill-opacity:1.000; stroke:none;" />
 <path d="  M 13,54  L 14,54  L 14,53  L 13,53  Z  " style="fill:rgb(156, 69, 41); fill-opacity:1.000; stroke:none;" />
 <path d="  M 15,54  L 14,54  L 14,55  L 15,55  Z  " style="fill:rgb(156, 69, 41); fill-opacity:1.000; stroke:none;" />
 <path d="  M 17,56  L 17,55  L 15,55  L 15,56  Z  " style="fill:rgb(156, 69, 41); fill-opacity:1.000; stroke:none;" />
 <path d="  M 19,19  L 19,18  L 16,18  L 16,19  Z  " style="fill:rgb(156, 69, 41); fill-opacity:1.000; stroke:none;" />
 <path d="  M 19,17  L 19,18  L 22,18  L 22,17  Z  " style="fill:rgb(156, 69, 41); fill-opacity:1.000; stroke:none;" />
 <path d="  M 25,17  L 25,16  L 22,16  L 22,17  Z  " style="fill:rgb(156, 69, 41); fill-opacity:1.000; stroke:none;" />
 <path d="  M 28,16  L 28,15  L 25,15  L 25,16  Z  " style="fill:rgb(156, 69, 41); fill-opacity:1.000; stroke:none;" />
 <path d="  M 28,14  L 28,15  L 31,15  L 31,14  Z  " style="fill:rgb(156, 69, 41); fill-opacity:1.000; stroke:none;" />
 <path d="  M 31,13  L 31,14  L 34,14  L 34,13  Z  " style="fill:rgb(156, 69, 41); fill-opacity:1.000; stroke:none;" />
 <path d="  M 37,12  L 34,12  L 34,13  L 37,13  Z  " style="fill:rgb(156, 69, 41); fill-opacity:1.000; stroke:none;" />
 <path d="  M 40,12  L 40,11  L 37,11  L 37,12  Z  " style="fill:rgb(156, 69, 41); fill-opacity:1.000; stroke:none;" />
 <path d="  M 40,10  L 40,11  L 43,11  L 43,10  Z  " style="fill:rgb(156, 69, 41); fill-opacity:1.000; stroke:none;" />
 <path d="  M 46,10  L 46,9  L 43,9  L 43,10  Z  " style="fill:rgb(156, 69, 41); fill-opacity:1.000; stroke:none;" />
 <path d="  M 46,9  L 49,9  L 49,8  L 46,8  Z  " style="fill:rgb(156, 69, 41); fill-opacity:1.000; stroke:none;" />
 <path d="  M 49,10  L 50,10  L 50,9  L 49,9  Z  " style="fill:rgb(156, 69, 41); fill-opacity:1.000; stroke:none;" />
 <path d="  M 51,11  L 51,10  L 50,10  L 50,11  Z  " style="fill:rgb(156, 69, 41); fill-opacity:1.000; stroke:none;" />
 <path d="  M 52,12  L 52,11  L 51,11  L 51,12  Z  " style="fill:rgb(156, 69, 41); fill-opacity:1.000; stroke:none;" />
 <path d="  M 53,13  L 53,12  L 52,12  L 52,13  Z  " style="fill:rgb(156, 69, 41); fill-opacity:1.000; stroke:none;" />
 <path d="  M 54,14  L 54,13  L 53,13  L 53,14  Z  " style="fill:rgb(156, 69, 41); fill-opacity:1.000; stroke:none;" />
 <path d="  M 55,15  L 55,14  L 54,14  L 54,15  Z  " style="fill:rgb(156, 69, 41); fill-opacity:1.000; stroke:none;" />
 <path d="  M 55,15  L 55,16  L 56,16  L 56,15  Z  " style="fill:rgb(156, 69, 41); fill-opacity:1.000; stroke:none;" />
 <path d="  M 57,16  L 56,16  L 56,17  L 57,17  Z  " style="fill:rgb(156, 69, 41); fill-opacity:1.000; stroke:none;" />
 <path d="  M 58,18  L 58,17  L 57,17  L 57,18  Z  " style="fill:rgb(156, 69, 41); fill-opacity:1.000; stroke:none;" />
 <path d="  M 59,18  L 58,18  L 58,19  L 59,19  Z  " style="fill:rgb(156, 69, 41); fill-opacity:1.000; stroke:none;" />
 <path d="  M 60,19  L 59,19  L 59,20  L 60,20  Z  " style="fill:rgb(156, 69, 41); fill-opacity:1.000; stroke:none;" />
 <path d="  M 60,20  L 60,21  L 61,21  L 61,20  Z  " style="fill:rgb(156, 69, 41); fill-opacity:1.000; stroke:none;" />
 <path d="  M 62,22  L 62,21  L 61,21  L 61,22  Z  " style="fill:rgb(156, 69, 41); fill-opacity:1.000; stroke:none;" />
 <path d="  M 63,23  L 63,22  L 62,22  L 62,23  Z  " style="fill:rgb(156, 69, 41); fill-opacity:1.000; stroke:none;" />
 <path d="  M 64,23  L 63,23  L 63,24  L 64,24  Z  " style="fill:rgb(156, 69, 41); fill-opacity:1.000; stroke:none;" />
 <path d="  M 2,24  L 1,24  L 1,25  L 2,25  Z  " style="fill:rgb(252, 153, 130); fill-opacity:1.000; stroke:none;" />
 <path d="  M 3,25  L 2,25  L 2,26  L 3,26  Z  " style="fill:rgb(252, 153, 130); fill-opacity:1.000; stroke:none;" />
 <path d="  M 3,27  L 4,27  L 4,26  L 3,26  Z  " style="fill:rgb(252, 153, 130); fill-opacity:1.000; stroke:none;" />
 <path d="  M 4,42  L 3,42  L 3,43  L 4,43  Z  " style="fill:rgb(252, 153, 130); fill-opacity:1.000; stroke:none;" />
 <path d="  M 5,28  L 5,27  L 4,27  L 4,28  Z  " style="fill:rgb(252, 153, 130); fill-opacity:1.000; stroke:none;" />
 <path d="  M 6,29  L 6,28  L 5,28  L 5,29  Z  " style="fill:rgb(252, 153, 130); fill-opacity:1.000; stroke:none;" />
 <path d="  M 6,30  L 7,30  L 7,29  L 6,29  Z  " style="fill:rgb(252, 153, 130); fill-opacity:1.000; stroke:none;" />
 <path d="  M 7,30  L 7,31  L 8,31  L 8,30  Z  " style="fill:rgb(252, 153, 130); fill-opacity:1.000; stroke:none;" />
 <path d="  M 7,46  L 7,47  L 8,47  L 8,46  Z  " style="fill:rgb(252, 153, 130); fill-opacity:1.000; stroke:none;" />
 <path d="  M 8,32  L 9,32  L 9,31  L 8,31  Z  " style="fill:rgb(252, 153, 130); fill-opacity:1.000; stroke:none;" />
 <path d="  M 8,47  L 8,48  L 9,48  L 9,47  Z  " style="fill:rgb(252, 153, 130); fill-opacity:1.000; stroke:none;" />
 <path d="  M 10,32  L 9,32  L 9,33  L 10,33  Z  " style="fill:rgb(252, 153, 130); fill-opacity:1.000; stroke:none;" />
 <path d="  M 11,34  L 11,33  L 10,33  L 10,34  Z  " style="fill:rgb(252, 153, 130); fill-opacity:1.000; stroke:none;" />
 <path d="  M 11,34  L 11,35  L 12,35  L 12,34  Z  " style="fill:rgb(252, 153, 130); fill-opacity:1.000; stroke:none;" />
 <path d="  M 12,51  L 12,50  L 11,50  L 11,51  Z  " style="fill:rgb(252, 153, 130); fill-opacity:1.000; stroke:none;" />
 <path d="  M 12,36  L 13,36  L 13,35  L 12,35  Z  " style="fill:rgb(252, 153, 130); fill-opacity:1.000; stroke:none;" />
 <path d="  M 12,51  L 12,52  L 13,52  L 13,51  Z  " style="fill:rgb(252, 153, 130); fill-opacity:1.000; stroke:none;" />
 <path d="  M 13,36  L 13,37  L 14,37  L 14,36  Z  " style="fill:rgb(252, 153, 130); fill-opacity:1.000; stroke:none;" />
 <path d="  M 15,38  L 15,37  L 14,37  L 14,38  Z  " style="fill:rgb(252, 153, 130); fill-opacity:1.000; stroke:none;" />
 <path d="  M 16,39  L 16,38  L 15,38  L 15,39  Z  " style="fill:rgb(252, 153, 130); fill-opacity:1.000; stroke:none;" />
 <path d="  M 16,44  L 17,44  L 17,40  L 16,40  Z  " style="fill:rgb(252, 153, 130); fill-opacity:1.000; stroke:none;" />
 <path d="  M 16,48  L 17,48  L 17,45  L 16,45  Z  " style="fill:rgb(252, 153, 130); fill-opacity:1.000; stroke:none;" />
 <path d="  M 17,50  L 16,50  L 16,51  L 17,51  Z  " style="fill:rgb(252, 153, 130); fill-opacity:1.000; stroke:none;" />
 <path d="  M 17,53  L 17,52  L 16,52  L 16,53  Z  " style="fill:rgb(252, 153, 130); fill-opacity:1.000; stroke:none;" />
 <path d="  M 17,40  L 18,40  L 18,39  L 17,39  Z  " style="fill:rgb(252, 153, 130); fill-opacity:1.000; stroke:none;" />
 <path d="  M 19,38  L 19,39  L 20,39  L 20,38  Z  " style="fill:rgb(252, 153, 130); fill-opacity:1.000; stroke:none;" />
 <path d="  M 20,37  L 20,38  L 23,38  L 23,37  Z  " style="fill:rgb(252, 153, 130); fill-opacity:1.000; stroke:none;" />
 <path d="  M 26,37  L 26,36  L 23,36  L 23,37  Z  " style="fill:rgb(252, 153, 130); fill-opacity:1.000; stroke:none;" />
 <path d="  M 26,35  L 26,36  L 29,36  L 29,35  Z  " style="fill:rgb(252, 153, 130); fill-opacity:1.000; stroke:none;" />
 <path d="  M 28,52  L 28,51  L 26,51  L 26,52  Z  " style="fill:rgb(252, 153, 130); fill-opacity:1.000; stroke:none;" />
 <path d="  M 32,34  L 29,34  L 29,35  L 32,35  Z  " style="fill:rgb(252, 153, 130); fill-opacity:1.000; stroke:none;" />
 <path d="  M 30,51  L 30,50  L 29,50  L 29,51  Z  " style="fill:rgb(252, 153, 130); fill-opacity:1.000; stroke:none;" />
 <path d="  M 32,33  L 32,34  L 35,34  L 35,33  Z  " style="fill:rgb(252, 153, 130); fill-opacity:1.000; stroke:none;" />
 <path d="  M 32,50  L 34,50  L 34,49  L 32,49  Z  " style="fill:rgb(252, 153, 130); fill-opacity:1.000; stroke:none;" />
 <path d="  M 35,33  L 38,33  L 38,32  L 35,32  Z  " style="fill:rgb(252, 153, 130); fill-opacity:1.000; stroke:none;" />
 <path d="  M 38,31  L 38,32  L 41,32  L 41,31  Z  " style="fill:rgb(252, 153, 130); fill-opacity:1.000; stroke:none;" />
 <path d="  M 41,30  L 41,31  L 44,31  L 44,30  Z  " style="fill:rgb(252, 153, 130); fill-opacity:1.000; stroke:none;" />
 <path d="  M 44,30  L 47,30  L 47,29  L 44,29  Z  " style="fill:rgb(252, 153, 130); fill-opacity:1.000; stroke:none;" />
 <path d="  M 47,28  L 47,29  L 50,29  L 50,28  Z  " style="fill:rgb(252, 153, 130); fill-opacity:1.000; stroke:none;" />
 <path d="  M 50,27  L 50,28  L 53,28  L 53,27  Z  " style="fill:rgb(252, 153, 130); fill-opacity:1.000; stroke:none;" />
 <path d="  M 53,27  L 56,27  L 56,26  L 53,26  Z  " style="fill:rgb(252, 153, 130); fill-opacity:1.000; stroke:none;" />
 <path d="  M 54,42  L 53,42  L 53,43  L 54,43  Z  " style="fill:rgb(252, 153, 130); fill-opacity:1.000; stroke:none;" />
 <path d="  M 55,41  L 55,42  L 57,42  L 57,41  Z  " style="fill:rgb(252, 153, 130); fill-opacity:1.000; stroke:none;" />
 <path d="  M 56,25  L 56,26  L 59,26  L 59,25  Z  " style="fill:rgb(252, 153, 130); fill-opacity:1.000; stroke:none;" />
 <path d="  M 58,40  L 58,41  L 60,41  L 60,40  Z  " style="fill:rgb(252, 153, 130); fill-opacity:1.000; stroke:none;" />
 <path d="  M 62,25  L 62,24  L 59,24  L 59,25  Z  " style="fill:rgb(252, 153, 130); fill-opacity:1.000; stroke:none;" />
 <path d="  M 61,39  L 61,40  L 62,40  L 62,39  Z  " style="fill:rgb(252, 153, 130); fill-opacity:1.000; stroke:none;" />
 <path d="  M 63,35  L 63,32  L 62,32  L 62,35  Z  " style="fill:rgb(252, 153, 130); fill-opacity:1.000; stroke:none;" />
 <path d="  M 62,39  L 63,39  L 63,37  L 62,37  Z  " style="fill:rgb(252, 153, 130); fill-opacity:1.000; stroke:none;" />
 <path d="  M 2,29  L 3,29  L 3,28  L 4,28  L 4,27  L 3,27  L 3,26  L 2,26  L 2,25  L 1,25  L 1,41  L 2,41  Z  " style="fill:rgb(231, 124, 86); fill-opacity:1.000; stroke:none;" />
 <path d="  M 16,25  L 16,24  L 17,24  L 17,23  L 18,23  L 18,22  L 17,22  L 17,21  L 18,21  L 18,20  L 20,20  L 20,19  L 17,19  L 17,20  L 14,20  L 14,21  L 11,21  L 11,22  L 8,22  L 8,23  L 5,23  L 5,24  L 2,24  L 2,25  L 3,25  L 3,26  L 4,26  L 4,27  L 5,27  L 5,28  L 6,28  L 6,29  L 7,29  L 7,30  L 8,30  L 8,31  L 10,31  L 10,30  L 11,30  L 11,29  L 12,29  L 12,28  L 13,28  L 13,27  L 14,27  L 14,26  L 15,26  L 15,25  Z  " style="fill:rgb(231, 124, 86); fill-opacity:1.000; stroke:none;" />
 <path d="  M 3,41  L 2,41  L 2,42  L 3,42  Z  " style="fill:rgb(231, 124, 86); fill-opacity:1.000; stroke:none;" />
 <path d="  M 3,29  L 3,30  L 4,30  L 4,29  Z  " style="fill:rgb(231, 124, 86); fill-opacity:1.000; stroke:none;" />
 <path d="  M 5,43  L 4,43  L 4,44  L 5,44  Z  " style="fill:rgb(231, 124, 86); fill-opacity:1.000; stroke:none;" />
 <path d="  M 5,45  L 6,45  L 6,44  L 5,44  Z  " style="fill:rgb(231, 124, 86); fill-opacity:1.000; stroke:none;" />
 <path d="  M 7,46  L 7,45  L 6,45  L 6,46  Z  " style="fill:rgb(231, 124, 86); fill-opacity:1.000; stroke:none;" />
 <path d="  M 10,48  L 9,48  L 9,49  L 10,49  Z  " style="fill:rgb(231, 124, 86); fill-opacity:1.000; stroke:none;" />
 <path d="  M 23,19  L 23,20  L 22,20  L 22,21  L 21,21  L 21,22  L 20,22  L 20,23  L 19,23  L 19,24  L 18,24  L 18,25  L 17,25  L 17,26  L 16,26  L 16,27  L 15,27  L 15,28  L 14,28  L 14,29  L 13,29  L 13,30  L 12,30  L 12,31  L 11,31  L 11,32  L 10,32  L 10,33  L 11,33  L 11,34  L 12,34  L 12,35  L 13,35  L 13,36  L 14,36  L 14,37  L 15,37  L 15,38  L 16,38  L 16,37  L 17,37  L 17,36  L 18,36  L 18,35  L 19,35  L 19,34  L 20,34  L 20,33  L 21,33  L 21,32  L 22,32  L 22,31  L 23,31  L 23,30  L 24,30  L 24,29  L 25,29  L 25,28  L 26,28  L 26,27  L 27,27  L 27,26  L 28,26  L 28,25  L 29,25  L 29,24  L 30,24  L 30,23  L 31,23  L 31,22  L 32,22  L 32,21  L 33,21  L 33,20  L 34,20  L 34,19  L 35,19  L 35,18  L 36,18  L 36,17  L 37,17  L 37,16  L 38,16  L 38,15  L 39,15  L 39,14  L 40,14  L 40,13  L 41,13  L 41,12  L 38,12  L 38,13  L 35,13  L 35,14  L 32,14  L 32,15  L 28,15  L 28,16  L 26,16  L 26,17  L 25,17  L 25,18  L 24,18  L 24,19  Z  " style="fill:rgb(231, 124, 86); fill-opacity:1.000; stroke:none;" />
 <path d="  M 10,49  L 10,50  L 11,50  L 11,49  Z  " style="fill:rgb(231, 124, 86); fill-opacity:1.000; stroke:none;" />
 <path d="  M 14,52  L 13,52  L 13,53  L 14,53  Z  " style="fill:rgb(231, 124, 86); fill-opacity:1.000; stroke:none;" />
 <path d="  M 16,44  L 16,45  L 17,45  L 17,44  Z  " style="fill:rgb(231, 124, 86); fill-opacity:1.000; stroke:none;" />
 <path d="  M 17,48  L 16,48  L 16,50  L 17,50  Z  " style="fill:rgb(231, 124, 86); fill-opacity:1.000; stroke:none;" />
 <path d="  M 16,51  L 16,52  L 17,52  L 17,51  Z  " style="fill:rgb(231, 124, 86); fill-opacity:1.000; stroke:none;" />
 <path d="  M 17,55  L 17,53  L 16,53  L 16,55  Z  " style="fill:rgb(231, 124, 86); fill-opacity:1.000; stroke:none;" />
 <path d="  M 17,40  L 17,41  L 18,41  L 18,40  Z  " style="fill:rgb(231, 124, 86); fill-opacity:1.000; stroke:none;" />
 <path d="  M 18,21  L 18,22  L 19,22  L 19,21  Z  " style="fill:rgb(231, 124, 86); fill-opacity:1.000; stroke:none;" />
 <path d="  M 18,39  L 18,40  L 19,40  L 19,39  Z  " style="fill:rgb(231, 124, 86); fill-opacity:1.000; stroke:none;" />
 <path d="  M 21,19  L 21,18  L 20,18  L 20,19  Z  " style="fill:rgb(231, 124, 86); fill-opacity:1.000; stroke:none;" />
 <path d="  M 21,38  L 20,38  L 20,39  L 21,39  Z  " style="fill:rgb(231, 124, 86); fill-opacity:1.000; stroke:none;" />
 <path d="  M 24,38  L 24,37  L 23,37  L 23,38  Z  " style="fill:rgb(231, 124, 86); fill-opacity:1.000; stroke:none;" />
 <path d="  M 23,53  L 25,53  L 25,52  L 23,52  Z  " style="fill:rgb(231, 124, 86); fill-opacity:1.000; stroke:none;" />
 <path d="  M 25,51  L 25,52  L 26,52  L 26,51  Z  " style="fill:rgb(231, 124, 86); fill-opacity:1.000; stroke:none;" />
 <path d="  M 27,36  L 26,36  L 26,37  L 27,37  Z  " style="fill:rgb(231, 124, 86); fill-opacity:1.000; stroke:none;" />
 <path d="  M 29,35  L 29,34  L 28,34  L 28,35  Z  " style="fill:rgb(231, 124, 86); fill-opacity:1.000; stroke:none;" />
 <path d="  M 28,51  L 29,51  L 29,50  L 28,50  Z  " style="fill:rgb(231, 124, 86); fill-opacity:1.000; stroke:none;" />
 <path d="  M 35,27  L 35,28  L 34,28  L 34,29  L 33,29  L 33,30  L 32,30  L 32,31  L 31,31  L 31,32  L 30,32  L 30,33  L 29,33  L 29,34  L 32,34  L 32,33  L 35,33  L 35,32  L 38,32  L 38,31  L 39,31  L 39,30  L 40,30  L 40,29  L 41,29  L 41,28  L 42,28  L 42,27  L 43,27  L 43,26  L 44,26  L 44,25  L 45,25  L 45,24  L 46,24  L 46,23  L 47,23  L 47,22  L 48,22  L 48,21  L 49,21  L 49,20  L 50,20  L 50,19  L 51,19  L 51,18  L 52,18  L 52,17  L 53,17  L 53,16  L 54,16  L 54,15  L 53,15  L 53,14  L 51,14  L 51,15  L 50,15  L 50,16  L 48,16  L 48,17  L 47,17  L 47,16  L 46,16  L 46,17  L 45,17  L 45,18  L 44,18  L 44,19  L 43,19  L 43,20  L 42,20  L 42,21  L 41,21  L 41,22  L 40,22  L 40,23  L 39,23  L 39,24  L 38,24  L 38,25  L 37,25  L 37,26  L 36,26  L 36,27  Z  " style="fill:rgb(231, 124, 86); fill-opacity:1.000; stroke:none;" />
 <path d="  M 29,36  L 30,36  L 30,35  L 29,35  Z  " style="fill:rgb(231, 124, 86); fill-opacity:1.000; stroke:none;" />
 <path d="  M 30,51  L 31,51  L 31,50  L 30,50  Z  " style="fill:rgb(231, 124, 86); fill-opacity:1.000; stroke:none;" />
 <path d="  M 32,50  L 32,49  L 31,49  L 31,50  Z  " style="fill:rgb(231, 124, 86); fill-opacity:1.000; stroke:none;" />
 <path d="  M 34,49  L 35,49  L 35,48  L 34,48  Z  " style="fill:rgb(231, 124, 86); fill-opacity:1.000; stroke:none;" />
 <path d="  M 42,11  L 41,11  L 41,12  L 42,12  Z  " style="fill:rgb(231, 124, 86); fill-opacity:1.000; stroke:none;" />
 <path d="  M 42,31  L 41,31  L 41,32  L 42,32  Z  " style="fill:rgb(231, 124, 86); fill-opacity:1.000; stroke:none;" />
 <path d="  M 43,28  L 43,29  L 42,29  L 42,30  L 44,30  L 44,29  L 47,29  L 47,28  L 50,28  L 50,27  L 53,27  L 53,26  L 56,26  L 56,25  L 59,25  L 59,24  L 62,24  L 62,23  L 61,23  L 61,22  L 60,22  L 60,21  L 59,21  L 59,20  L 58,20  L 58,19  L 57,19  L 57,18  L 56,18  L 56,19  L 54,19  L 54,20  L 53,20  L 53,21  L 52,21  L 52,20  L 51,20  L 51,21  L 50,21  L 50,22  L 49,22  L 49,23  L 48,23  L 48,24  L 47,24  L 47,25  L 46,25  L 46,26  L 45,26  L 45,27  L 44,27  L 44,28  Z  " style="fill:rgb(231, 124, 86); fill-opacity:1.000; stroke:none;" />
 <path d="  M 45,30  L 44,30  L 44,31  L 45,31  Z  " style="fill:rgb(231, 124, 86); fill-opacity:1.000; stroke:none;" />
 <path d="  M 48,16  L 48,15  L 47,15  L 47,16  Z  " style="fill:rgb(231, 124, 86); fill-opacity:1.000; stroke:none;" />
 <path d="  M 47,29  L 47,30  L 48,30  L 48,29  Z  " style="fill:rgb(231, 124, 86); fill-opacity:1.000; stroke:none;" />
 <path d="  M 48,15  L 49,15  L 49,14  L 48,14  Z  " style="fill:rgb(231, 124, 86); fill-opacity:1.000; stroke:none;" />
 <path d="  M 51,29  L 51,28  L 50,28  L 50,29  Z  " style="fill:rgb(231, 124, 86); fill-opacity:1.000; stroke:none;" />
 <path d="  M 50,44  L 52,44  L 52,43  L 50,43  Z  " style="fill:rgb(231, 124, 86); fill-opacity:1.000; stroke:none;" />
 <path d="  M 52,19  L 52,20  L 53,20  L 53,19  Z  " style="fill:rgb(231, 124, 86); fill-opacity:1.000; stroke:none;" />
 <path d="  M 53,43  L 53,42  L 52,42  L 52,43  Z  " style="fill:rgb(231, 124, 86); fill-opacity:1.000; stroke:none;" />
 <path d="  M 54,18  L 53,18  L 53,19  L 54,19  Z  " style="fill:rgb(231, 124, 86); fill-opacity:1.000; stroke:none;" />
 <path d="  M 53,27  L 53,28  L 54,28  L 54,27  Z  " style="fill:rgb(231, 124, 86); fill-opacity:1.000; stroke:none;" />
 <path d="  M 55,43  L 55,42  L 54,42  L 54,43  Z  " style="fill:rgb(231, 124, 86); fill-opacity:1.000; stroke:none;" />
 <path d="  M 57,26  L 56,26  L 56,27  L 57,27  Z  " style="fill:rgb(231, 124, 86); fill-opacity:1.000; stroke:none;" />
 <path d="  M 57,41  L 57,42  L 58,42  L 58,41  Z  " style="fill:rgb(231, 124, 86); fill-opacity:1.000; stroke:none;" />
 <path d="  M 61,40  L 60,40  L 60,41  L 61,41  Z  " style="fill:rgb(231, 124, 86); fill-opacity:1.000; stroke:none;" />
 <path d="  M 63,31  L 62,31  L 62,32  L 63,32  Z  " style="fill:rgb(231, 124, 86); fill-opacity:1.000; stroke:none;" />
 <path d="  M 63,35  L 62,35  L 62,37  L 63,37  Z  " style="fill:rgb(231, 124, 86); fill-opacity:1.000; stroke:none;" />
 <path d="  M 62,40  L 63,40  L 63,39  L 62,39  Z  " style="fill:rgb(231, 124, 86); fill-opacity:1.000; stroke:none;" />
 <path d="  M 10,49  L 11,49  L 11,50  L 12,50  L 12,51  L 13,51  L 13,52  L 14,52  L 14,50  L 13,50  L 13,48  L 12,48  L 12,46  L 11,46  L 11,44  L 10,44  L 10,42  L 9,42  L 9,40  L 8,40  L 8,38  L 7,38  L 7,36  L 6,36  L 6,34  L 5,34  L 5,32  L 4,32  L 4,30  L 3,30  L 3,29  L 2,29  L 2,41  L 3,41  L 3,42  L 4,42  L 4,43  L 5,43  L 5,44  L 6,44  L 6,45  L 7,45  L 7,46  L 8,46  L 8,47  L 9,47  L 9,48  L 10,48  Z  " style="fill:rgb(193, 90, 54); fill-opacity:1.000; stroke:none;" />
 <path d="  M 3,29  L 4,29  L 4,28  L 3,28  Z  " style="fill:rgb(193, 90, 54); fill-opacity:1.000; stroke:none;" />
 <path d="  M 5,24  L 5,23  L 4,23  L 4,24  Z  " style="fill:rgb(193, 90, 54); fill-opacity:1.000; stroke:none;" />
 <path d="  M 7,22  L 7,23  L 8,23  L 8,22  Z  " style="fill:rgb(193, 90, 54); fill-opacity:1.000; stroke:none;" />
 <path d="  M 9,32  L 8,32  L 8,34  L 9,34  L 9,36  L 10,36  L 10,38  L 11,38  L 11,40  L 12,40  L 12,42  L 13,42  L 13,44  L 14,44  L 14,46  L 15,46  L 15,48  L 16,48  L 16,39  L 15,39  L 15,38  L 14,38  L 14,37  L 13,37  L 13,36  L 12,36  L 12,35  L 11,35  L 11,34  L 10,34  L 10,33  L 9,33  Z  " style="fill:rgb(193, 90, 54); fill-opacity:1.000; stroke:none;" />
 <path d="  M 13,29  L 14,29  L 14,28  L 15,28  L 15,27  L 16,27  L 16,26  L 17,26  L 17,25  L 18,25  L 18,24  L 19,24  L 19,23  L 20,23  L 20,22  L 21,22  L 21,21  L 22,21  L 22,20  L 21,20  L 21,19  L 20,19  L 20,20  L 18,20  L 18,21  L 19,21  L 19,22  L 18,22  L 18,23  L 17,23  L 17,24  L 16,24  L 16,25  L 15,25  L 15,26  L 14,26  L 14,27  L 13,27  L 13,28  L 12,28  L 12,29  L 11,29  L 11,30  L 10,30  L 10,31  L 9,31  L 9,32  L 11,32  L 11,31  L 12,31  L 12,30  L 13,30  Z  " style="fill:rgb(193, 90, 54); fill-opacity:1.000; stroke:none;" />
 <path d="  M 11,22  L 11,21  L 10,21  L 10,22  Z  " style="fill:rgb(193, 90, 54); fill-opacity:1.000; stroke:none;" />
 <path d="  M 14,21  L 14,20  L 13,20  L 13,21  Z  " style="fill:rgb(193, 90, 54); fill-opacity:1.000; stroke:none;" />
 <path d="  M 14,54  L 15,54  L 15,52  L 14,52  Z  " style="fill:rgb(193, 90, 54); fill-opacity:1.000; stroke:none;" />
 <path d="  M 15,54  L 15,55  L 16,55  L 16,54  Z  " style="fill:rgb(193, 90, 54); fill-opacity:1.000; stroke:none;" />
 <path d="  M 16,19  L 16,20  L 17,20  L 17,19  Z  " style="fill:rgb(193, 90, 54); fill-opacity:1.000; stroke:none;" />
 <path d="  M 38,25  L 38,24  L 39,24  L 39,23  L 40,23  L 40,22  L 41,22  L 41,21  L 42,21  L 42,20  L 43,20  L 43,19  L 44,19  L 44,18  L 45,18  L 45,17  L 46,17  L 46,16  L 47,16  L 47,15  L 48,15  L 48,16  L 50,16  L 50,15  L 51,15  L 51,14  L 53,14  L 53,13  L 52,13  L 52,12  L 51,12  L 51,11  L 49,11  L 49,12  L 46,12  L 46,11  L 47,11  L 47,10  L 43,10  L 43,11  L 42,11  L 42,12  L 41,12  L 41,13  L 40,13  L 40,14  L 39,14  L 39,15  L 38,15  L 38,16  L 37,16  L 37,17  L 36,17  L 36,18  L 35,18  L 35,19  L 34,19  L 34,20  L 33,20  L 33,21  L 32,21  L 32,22  L 31,22  L 31,23  L 30,23  L 30,24  L 29,24  L 29,25  L 28,25  L 28,26  L 27,26  L 27,27  L 26,27  L 26,28  L 25,28  L 25,29  L 24,29  L 24,30  L 23,30  L 23,31  L 22,31  L 22,32  L 21,32  L 21,33  L 20,33  L 20,34  L 19,34  L 19,35  L 18,35  L 18,36  L 17,36  L 17,37  L 16,37  L 16,39  L 17,39  L 17,38  L 20,38  L 20,37  L 23,37  L 23,36  L 26,36  L 26,35  L 28,35  L 28,34  L 29,34  L 29,33  L 30,33  L 30,32  L 31,32  L 31,31  L 32,31  L 32,30  L 33,30  L 33,29  L 34,29  L 34,28  L 35,28  L 35,27  L 36,27  L 36,26  L 37,26  L 37,25  Z  M 41,20  L 40,20  L 40,21  L 39,21  L 39,22  L 38,22  L 38,23  L 37,23  L 37,24  L 36,24  L 36,25  L 35,25  L 35,26  L 34,26  L 34,27  L 33,27  L 33,28  L 31,28  L 31,29  L 29,29  L 29,30  L 27,30  L 27,29  L 28,29  L 28,28  L 29,28  L 29,27  L 30,27  L 30,26  L 31,26  L 31,25  L 33,25  L 33,24  L 32,24  L 32,23  L 33,23  L 33,22  L 34,22  L 34,21  L 35,21  L 35,20  L 36,20  L 36,19  L 37,19  L 37,18  L 38,18  L 38,17  L 40,17  L 40,16  L 42,16  L 42,15  L 43,15  L 43,17  L 42,17  L 42,19  L 41,19  Z  M 45,12  L 46,12  L 46,13  L 45,13  Z  M 48,15  L 48,14  L 49,14  L 49,15  Z  M 43,15  L 43,14  L 44,14  L 44,15  Z  M 26,31  L 26,30  L 27,30  L 27,31  Z  " style="fill:rgb(193, 90, 54); fill-opacity:1.000; stroke:none;" />
 <path d="  M 17,22  L 18,22  L 18,21  L 17,21  Z  " style="fill:rgb(193, 90, 54); fill-opacity:1.000; stroke:none;" />
 <path d="  M 19,46  L 20,46  L 20,45  L 21,45  L 21,44  L 22,44  L 22,43  L 23,43  L 23,42  L 24,42  L 24,41  L 25,41  L 25,40  L 26,40  L 26,39  L 27,39  L 27,38  L 28,38  L 28,37  L 29,37  L 29,36  L 27,36  L 27,37  L 24,37  L 24,38  L 21,38  L 21,39  L 19,39  L 19,40  L 18,40  L 18,41  L 17,41  L 17,48  L 18,48  L 18,47  L 19,47  Z  " style="fill:rgb(193, 90, 54); fill-opacity:1.000; stroke:none;" />
 <path d="  M 19,54  L 18,54  L 18,55  L 19,55  Z  " style="fill:rgb(193, 90, 54); fill-opacity:1.000; stroke:none;" />
 <path d="  M 19,19  L 20,19  L 20,18  L 19,18  Z  " style="fill:rgb(193, 90, 54); fill-opacity:1.000; stroke:none;" />
 <path d="  M 20,53  L 19,53  L 19,54  L 20,54  Z  " style="fill:rgb(193, 90, 54); fill-opacity:1.000; stroke:none;" />
 <path d="  M 20,52  L 20,53  L 21,53  L 21,52  Z  " style="fill:rgb(193, 90, 54); fill-opacity:1.000; stroke:none;" />
 <path d="  M 22,19  L 22,18  L 21,18  L 21,19  Z  " style="fill:rgb(193, 90, 54); fill-opacity:1.000; stroke:none;" />
 <path d="  M 21,51  L 21,52  L 22,52  L 22,51  Z  " style="fill:rgb(193, 90, 54); fill-opacity:1.000; stroke:none;" />
 <path d="  M 21,53  L 21,54  L 22,54  L 22,53  Z  " style="fill:rgb(193, 90, 54); fill-opacity:1.000; stroke:none;" />
 <path d="  M 22,19  L 22,20  L 23,20  L 23,19  Z  " style="fill:rgb(193, 90, 54); fill-opacity:1.000; stroke:none;" />
 <path d="  M 23,50  L 22,50  L 22,51  L 23,51  Z  " style="fill:rgb(193, 90, 54); fill-opacity:1.000; stroke:none;" />
 <path d="  M 22,53  L 23,53  L 23,52  L 22,52  Z  " style="fill:rgb(193, 90, 54); fill-opacity:1.000; stroke:none;" />
 <path d="  M 24,19  L 24,18  L 23,18  L 23,19  Z  " style="fill:rgb(193, 90, 54); fill-opacity:1.000; stroke:none;" />
 <path d="  M 24,50  L 24,49  L 23,49  L 23,50  Z  " style="fill:rgb(193, 90, 54); fill-opacity:1.000; stroke:none;" />
 <path d="  M 38,37  L 37,37  L 37,38  L 36,38  L 36,39  L 35,39  L 35,40  L 34,40  L 34,41  L 33,41  L 33,42  L 32,42  L 32,43  L 31,43  L 31,44  L 30,44  L 30,45  L 29,45  L 29,46  L 28,46  L 28,47  L 27,47  L 27,48  L 26,48  L 26,49  L 25,49  L 25,50  L 24,50  L 24,51  L 23,51  L 23,52  L 25,52  L 25,51  L 28,51  L 28,50  L 31,50  L 31,49  L 34,49  L 34,48  L 36,48  L 36,47  L 37,47  L 37,46  L 38,46  L 38,45  L 39,45  L 39,44  L 40,44  L 40,43  L 41,43  L 41,42  L 42,42  L 42,41  L 43,41  L 43,40  L 44,40  L 44,39  L 45,39  L 45,38  L 46,38  L 46,37  L 47,37  L 47,36  L 48,36  L 48,35  L 49,35  L 49,34  L 50,34  L 50,33  L 51,33  L 51,32  L 52,32  L 52,31  L 53,31  L 53,30  L 54,30  L 54,29  L 55,29  L 55,28  L 56,28  L 56,27  L 54,27  L 54,28  L 51,28  L 51,29  L 48,29  L 48,30  L 45,30  L 45,31  L 42,31  L 42,33  L 41,33  L 41,34  L 40,34  L 40,35  L 39,35  L 39,36  L 38,36  Z  " style="fill:rgb(193, 90, 54); fill-opacity:1.000; stroke:none;" />
 <path d="  M 24,18  L 25,18  L 25,17  L 24,17  Z  " style="fill:rgb(193, 90, 54); fill-opacity:1.000; stroke:none;" />
 <path d="  M 25,48  L 24,48  L 24,49  L 25,49  Z  " style="fill:rgb(193, 90, 54); fill-opacity:1.000; stroke:none;" />
 <path d="  M 25,17  L 26,17  L 26,16  L 25,16  Z  " style="fill:rgb(193, 90, 54); fill-opacity:1.000; stroke:none;" />
 <path d="  M 25,48  L 26,48  L 26,47  L 25,47  Z  " style="fill:rgb(193, 90, 54); fill-opacity:1.000; stroke:none;" />
 <path d="  M 27,46  L 26,46  L 26,47  L 27,47  Z  " style="fill:rgb(193, 90, 54); fill-opacity:1.000; stroke:none;" />
 <path d="  M 28,46  L 28,45  L 27,45  L 27,46  Z  " style="fill:rgb(193, 90, 54); fill-opacity:1.000; stroke:none;" />
 <path d="  M 28,45  L 29,45  L 29,44  L 28,44  Z  " style="fill:rgb(193, 90, 54); fill-opacity:1.000; stroke:none;" />
 <path d="  M 30,44  L 30,43  L 29,43  L 29,44  Z  " style="fill:rgb(193, 90, 54); fill-opacity:1.000; stroke:none;" />
 <path d="  M 31,36  L 31,35  L 30,35  L 30,36  Z  " style="fill:rgb(193, 90, 54); fill-opacity:1.000; stroke:none;" />
 <path d="  M 31,42  L 30,42  L 30,43  L 31,43  Z  " style="fill:rgb(193, 90, 54); fill-opacity:1.000; stroke:none;" />
 <path d="  M 32,15  L 32,14  L 31,14  L 31,15  Z  " style="fill:rgb(193, 90, 54); fill-opacity:1.000; stroke:none;" />
 <path d="  M 31,41  L 31,42  L 32,42  L 32,41  Z  " style="fill:rgb(193, 90, 54); fill-opacity:1.000; stroke:none;" />
 <path d="  M 33,40  L 32,40  L 32,41  L 33,41  Z  " style="fill:rgb(193, 90, 54); fill-opacity:1.000; stroke:none;" />
 <path d="  M 34,23  L 33,23  L 33,24  L 34,24  Z  " style="fill:rgb(193, 90, 54); fill-opacity:1.000; stroke:none;" />
 <path d="  M 34,40  L 34,39  L 33,39  L 33,40  Z  " style="fill:rgb(193, 90, 54); fill-opacity:1.000; stroke:none;" />
 <path d="  M 34,13  L 34,14  L 35,14  L 35,13  Z  " style="fill:rgb(193, 90, 54); fill-opacity:1.000; stroke:none;" />
 <path d="  M 34,38  L 34,39  L 35,39  L 35,38  Z  " style="fill:rgb(193, 90, 54); fill-opacity:1.000; stroke:none;" />
 <path d="  M 36,37  L 35,37  L 35,38  L 36,38  Z  " style="fill:rgb(193, 90, 54); fill-opacity:1.000; stroke:none;" />
 <path d="  M 37,36  L 36,36  L 36,37  L 37,37  Z  " style="fill:rgb(193, 90, 54); fill-opacity:1.000; stroke:none;" />
 <path d="  M 37,12  L 37,13  L 38,13  L 38,12  Z  " style="fill:rgb(193, 90, 54); fill-opacity:1.000; stroke:none;" />
 <path d="  M 38,21  L 37,21  L 37,22  L 38,22  Z  " style="fill:rgb(193, 90, 54); fill-opacity:1.000; stroke:none;" />
 <path d="  M 38,36  L 38,35  L 37,35  L 37,36  Z  " style="fill:rgb(193, 90, 54); fill-opacity:1.000; stroke:none;" />
 <path d="  M 39,34  L 38,34  L 38,35  L 39,35  Z  " style="fill:rgb(193, 90, 54); fill-opacity:1.000; stroke:none;" />
 <path d="  M 41,31  L 41,30  L 42,30  L 42,29  L 43,29  L 43,28  L 44,28  L 44,27  L 45,27  L 45,26  L 46,26  L 46,25  L 47,25  L 47,24  L 48,24  L 48,23  L 49,23  L 49,22  L 50,22  L 50,21  L 51,21  L 51,20  L 52,20  L 52,19  L 53,19  L 53,18  L 54,18  L 54,17  L 55,17  L 55,15  L 54,15  L 54,16  L 53,16  L 53,17  L 52,17  L 52,18  L 51,18  L 51,19  L 50,19  L 50,20  L 49,20  L 49,21  L 48,21  L 48,22  L 47,22  L 47,23  L 46,23  L 46,24  L 45,24  L 45,25  L 44,25  L 44,26  L 43,26  L 43,27  L 42,27  L 42,28  L 41,28  L 41,29  L 40,29  L 40,30  L 39,30  L 39,31  Z  " style="fill:rgb(193, 90, 54); fill-opacity:1.000; stroke:none;" />
 <path d="  M 40,34  L 40,33  L 39,33  L 39,34  Z  " style="fill:rgb(193, 90, 54); fill-opacity:1.000; stroke:none;" />
 <path d="  M 40,12  L 41,12  L 41,11  L 40,11  Z  " style="fill:rgb(193, 90, 54); fill-opacity:1.000; stroke:none;" />
 <path d="  M 41,32  L 40,32  L 40,33  L 41,33  Z  " style="fill:rgb(193, 90, 54); fill-opacity:1.000; stroke:none;" />
 <path d="  M 47,9  L 47,10  L 48,10  L 48,9  Z  " style="fill:rgb(193, 90, 54); fill-opacity:1.000; stroke:none;" />
 <path d="  M 47,17  L 48,17  L 48,16  L 47,16  Z  " style="fill:rgb(193, 90, 54); fill-opacity:1.000; stroke:none;" />
 <path d="  M 49,44  L 48,44  L 48,45  L 49,45  Z  " style="fill:rgb(193, 90, 54); fill-opacity:1.000; stroke:none;" />
 <path d="  M 50,43  L 49,43  L 49,44  L 50,44  Z  " style="fill:rgb(193, 90, 54); fill-opacity:1.000; stroke:none;" />
 <path d="  M 60,32  L 60,33  L 59,33  L 59,34  L 58,34  L 58,35  L 57,35  L 57,36  L 56,36  L 56,37  L 55,37  L 55,38  L 54,38  L 54,39  L 53,39  L 53,40  L 52,40  L 52,41  L 51,41  L 51,42  L 50,42  L 50,43  L 52,43  L 52,42  L 55,42  L 55,41  L 58,41  L 58,40  L 61,40  L 61,39  L 62,39  L 62,31  L 61,31  L 61,32  Z  " style="fill:rgb(193, 90, 54); fill-opacity:1.000; stroke:none;" />
 <path d="  M 53,21  L 53,20  L 52,20  L 52,21  Z  " style="fill:rgb(193, 90, 54); fill-opacity:1.000; stroke:none;" />
 <path d="  M 54,15  L 54,14  L 53,14  L 53,15  Z  " style="fill:rgb(193, 90, 54); fill-opacity:1.000; stroke:none;" />
 <path d="  M 54,19  L 53,19  L 53,20  L 54,20  Z  " style="fill:rgb(193, 90, 54); fill-opacity:1.000; stroke:none;" />
 <path d="  M 55,18  L 54,18  L 54,19  L 56,19  L 56,18  L 57,18  L 57,17  L 55,17  Z  " style="fill:rgb(193, 90, 54); fill-opacity:1.000; stroke:none;" />
 <path d="  M 58,18  L 57,18  L 57,19  L 58,19  Z  " style="fill:rgb(193, 90, 54); fill-opacity:1.000; stroke:none;" />
 <path d="  M 58,20  L 59,20  L 59,19  L 58,19  Z  " style="fill:rgb(193, 90, 54); fill-opacity:1.000; stroke:none;" />
 <path d="  M 60,20  L 59,20  L 59,21  L 60,21  Z  " style="fill:rgb(193, 90, 54); fill-opacity:1.000; stroke:none;" />
 <path d="  M 60,22  L 61,22  L 61,21  L 60,21  Z  " style="fill:rgb(193, 90, 54); fill-opacity:1.000; stroke:none;" />
 <path d="  M 61,23  L 62,23  L 62,22  L 61,22  Z  " style="fill:rgb(193, 90, 54); fill-opacity:1.000; stroke:none;" />
 <path d="  M 62,23  L 62,24  L 63,24  L 63,23  Z  " style="fill:rgb(193, 90, 54); fill-opacity:1.000; stroke:none;" />
 <path d="  M 62,30  L 62,31  L 63,31  L 63,30  Z  " style="fill:rgb(193, 90, 54); fill-opacity:1.000; stroke:none;" />
 <path d="  M 6,29  L 5,29  L 5,28  L 4,28  L 4,32  L 6,32  L 6,33  L 7,33  L 7,34  L 8,34  L 8,31  L 7,31  L 7,30  L 6,30  Z  " style="fill:rgb(156, 78, 49); fill-opacity:1.000; stroke:none;" />
 <path d="  M 6,33  L 5,33  L 5,34  L 6,34  Z  " style="fill:rgb(156, 78, 49); fill-opacity:1.000; stroke:none;" />
 <path d="  M 6,35  L 6,36  L 7,36  L 7,35  Z  " style="fill:rgb(156, 78, 49); fill-opacity:1.000; stroke:none;" />
 <path d="  M 10,42  L 10,44  L 11,44  L 11,43  L 12,43  L 12,44  L 13,44  L 13,42  L 12,42  L 12,40  L 11,40  L 11,38  L 10,38  L 10,36  L 9,36  L 9,37  L 8,37  L 8,36  L 7,36  L 7,38  L 8,38  L 8,40  L 9,40  L 9,42  Z  " style="fill:rgb(156, 78, 49); fill-opacity:1.000; stroke:none;" />
 <path d="  M 8,36  L 9,36  L 9,34  L 8,34  Z  " style="fill:rgb(156, 78, 49); fill-opacity:1.000; stroke:none;" />
 <path d="  M 11,46  L 12,46  L 12,48  L 14,48  L 14,49  L 16,49  L 16,48  L 15,48  L 15,46  L 14,46  L 14,44  L 13,44  L 13,45  L 12,45  L 12,44  L 11,44  Z  " style="fill:rgb(156, 78, 49); fill-opacity:1.000; stroke:none;" />
 <path d="  M 13,49  L 13,50  L 14,50  L 14,49  Z  " style="fill:rgb(156, 78, 49); fill-opacity:1.000; stroke:none;" />
 <path d="  M 14,52  L 15,52  L 15,51  L 14,51  Z  " style="fill:rgb(156, 78, 49); fill-opacity:1.000; stroke:none;" />
 <path d="  M 16,54  L 16,52  L 15,52  L 15,54  Z  " style="fill:rgb(156, 78, 49); fill-opacity:1.000; stroke:none;" />
 <path d="  M 22,44  L 21,44  L 21,45  L 20,45  L 20,46  L 19,46  L 19,47  L 18,47  L 18,48  L 17,48  L 17,51  L 18,51  L 18,50  L 19,50  L 19,49  L 21,49  L 21,50  L 20,50  L 20,52  L 21,52  L 21,51  L 22,51  L 22,50  L 23,50  L 23,49  L 24,49  L 24,48  L 25,48  L 25,47  L 26,47  L 26,46  L 27,46  L 27,45  L 28,45  L 28,44  L 29,44  L 29,43  L 30,43  L 30,42  L 31,42  L 31,41  L 32,41  L 32,40  L 33,40  L 33,39  L 34,39  L 34,38  L 35,38  L 35,37  L 36,37  L 36,36  L 37,36  L 37,35  L 38,35  L 38,34  L 39,34  L 39,33  L 40,33  L 40,32  L 38,32  L 38,33  L 35,33  L 35,36  L 34,36  L 34,37  L 32,37  L 32,38  L 31,38  L 31,36  L 29,36  L 29,37  L 28,37  L 28,38  L 27,38  L 27,39  L 26,39  L 26,40  L 25,40  L 25,41  L 24,41  L 24,42  L 23,42  L 23,43  L 22,43  Z  M 30,38  L 31,38  L 31,39  L 30,39  Z  M 21,49  L 21,48  L 22,48  L 22,49  Z  " style="fill:rgb(156, 78, 49); fill-opacity:1.000; stroke:none;" />
 <path d="  M 17,55  L 18,55  L 18,54  L 17,54  Z  " style="fill:rgb(156, 78, 49); fill-opacity:1.000; stroke:none;" />
 <path d="  M 18,54  L 19,54  L 19,53  L 18,53  Z  " style="fill:rgb(156, 78, 49); fill-opacity:1.000; stroke:none;" />
 <path d="  M 19,52  L 19,53  L 20,53  L 20,52  Z  " style="fill:rgb(156, 78, 49); fill-opacity:1.000; stroke:none;" />
 <path d="  M 21,53  L 20,53  L 20,54  L 21,54  Z  " style="fill:rgb(156, 78, 49); fill-opacity:1.000; stroke:none;" />
 <path d="  M 21,20  L 22,20  L 22,19  L 21,19  Z  " style="fill:rgb(156, 78, 49); fill-opacity:1.000; stroke:none;" />
 <path d="  M 22,52  L 21,52  L 21,53  L 22,53  Z  " style="fill:rgb(156, 78, 49); fill-opacity:1.000; stroke:none;" />
 <path d="  M 22,17  L 22,19  L 23,19  L 23,18  L 24,18  L 24,17  Z  " style="fill:rgb(156, 78, 49); fill-opacity:1.000; stroke:none;" />
 <path d="  M 22,52  L 23,52  L 23,51  L 22,51  Z  " style="fill:rgb(156, 78, 49); fill-opacity:1.000; stroke:none;" />
 <path d="  M 24,50  L 23,50  L 23,51  L 24,51  Z  " style="fill:rgb(156, 78, 49); fill-opacity:1.000; stroke:none;" />
 <path d="  M 25,50  L 25,49  L 24,49  L 24,50  Z  " style="fill:rgb(156, 78, 49); fill-opacity:1.000; stroke:none;" />
 <path d="  M 26,48  L 25,48  L 25,49  L 26,49  Z  " style="fill:rgb(156, 78, 49); fill-opacity:1.000; stroke:none;" />
 <path d="  M 26,31  L 27,31  L 27,30  L 26,30  Z  " style="fill:rgb(156, 78, 49); fill-opacity:1.000; stroke:none;" />
 <path d="  M 27,48  L 27,47  L 26,47  L 26,48  Z  " style="fill:rgb(156, 78, 49); fill-opacity:1.000; stroke:none;" />
 <path d="  M 38,21  L 38,22  L 37,22  L 37,21  Z  M 38,22  L 39,22  L 39,21  L 40,21  L 40,20  L 41,20  L 41,19  L 42,19  L 42,17  L 43,17  L 43,15  L 42,15  L 42,16  L 40,16  L 40,17  L 38,17  L 38,18  L 37,18  L 37,19  L 36,19  L 36,20  L 35,20  L 35,21  L 34,21  L 34,22  L 33,22  L 33,23  L 34,23  L 34,24  L 33,24  L 33,25  L 31,25  L 31,26  L 30,26  L 30,27  L 29,27  L 29,28  L 28,28  L 28,29  L 27,29  L 27,30  L 29,30  L 29,29  L 31,29  L 31,28  L 33,28  L 33,27  L 34,27  L 34,26  L 35,26  L 35,25  L 36,25  L 36,24  L 37,24  L 37,23  L 38,23  Z  " style="fill:rgb(156, 78, 49); fill-opacity:1.000; stroke:none;" />
 <path d="  M 28,46  L 27,46  L 27,47  L 28,47  Z  " style="fill:rgb(156, 78, 49); fill-opacity:1.000; stroke:none;" />
 <path d="  M 29,46  L 29,45  L 28,45  L 28,46  Z  " style="fill:rgb(156, 78, 49); fill-opacity:1.000; stroke:none;" />
 <path d="  M 29,45  L 30,45  L 30,44  L 29,44  Z  " style="fill:rgb(156, 78, 49); fill-opacity:1.000; stroke:none;" />
 <path d="  M 30,44  L 31,44  L 31,43  L 30,43  Z  " style="fill:rgb(156, 78, 49); fill-opacity:1.000; stroke:none;" />
 <path d="  M 31,36  L 32,36  L 32,35  L 31,35  Z  " style="fill:rgb(156, 78, 49); fill-opacity:1.000; stroke:none;" />
 <path d="  M 31,42  L 31,43  L 32,43  L 32,42  Z  " style="fill:rgb(156, 78, 49); fill-opacity:1.000; stroke:none;" />
 <path d="  M 33,23  L 32,23  L 32,24  L 33,24  Z  " style="fill:rgb(156, 78, 49); fill-opacity:1.000; stroke:none;" />
 <path d="  M 32,34  L 32,35  L 33,35  L 33,34  Z  " style="fill:rgb(156, 78, 49); fill-opacity:1.000; stroke:none;" />
 <path d="  M 33,42  L 33,41  L 32,41  L 32,42  Z  " style="fill:rgb(156, 78, 49); fill-opacity:1.000; stroke:none;" />
 <path d="  M 34,41  L 34,40  L 33,40  L 33,41  Z  " style="fill:rgb(156, 78, 49); fill-opacity:1.000; stroke:none;" />
 <path d="  M 34,40  L 35,40  L 35,39  L 34,39  Z  " style="fill:rgb(156, 78, 49); fill-opacity:1.000; stroke:none;" />
 <path d="  M 36,38  L 35,38  L 35,39  L 36,39  Z  " style="fill:rgb(156, 78, 49); fill-opacity:1.000; stroke:none;" />
 <path d="  M 59,28  L 60,28  L 60,29  L 59,29  Z  M 47,36  L 47,37  L 46,37  L 46,38  L 45,38  L 45,39  L 44,39  L 44,40  L 43,40  L 43,41  L 42,41  L 42,42  L 41,42  L 41,43  L 40,43  L 40,44  L 39,44  L 39,45  L 38,45  L 38,46  L 37,46  L 37,47  L 36,47  L 36,48  L 35,48  L 35,49  L 37,49  L 37,48  L 40,48  L 40,47  L 43,47  L 43,46  L 46,46  L 46,45  L 48,45  L 48,44  L 49,44  L 49,43  L 50,43  L 50,42  L 51,42  L 51,41  L 52,41  L 52,40  L 53,40  L 53,39  L 54,39  L 54,38  L 55,38  L 55,37  L 56,37  L 56,36  L 57,36  L 57,35  L 58,35  L 58,34  L 59,34  L 59,33  L 60,33  L 60,32  L 61,32  L 61,31  L 62,31  L 62,30  L 63,30  L 63,24  L 62,24  L 62,25  L 59,25  L 59,26  L 57,26  L 57,27  L 56,27  L 56,28  L 55,28  L 55,29  L 54,29  L 54,30  L 53,30  L 53,31  L 52,31  L 52,32  L 51,32  L 51,33  L 50,33  L 50,34  L 49,34  L 49,35  L 48,35  L 48,36  Z  M 46,41  L 46,39  L 47,39  L 47,38  L 48,38  L 48,37  L 49,37  L 49,36  L 50,36  L 50,35  L 51,35  L 51,34  L 52,34  L 52,33  L 53,33  L 53,32  L 54,32  L 54,31  L 55,31  L 55,30  L 57,30  L 57,29  L 59,29  L 59,30  L 58,30  L 58,31  L 57,31  L 57,32  L 56,32  L 56,35  L 55,35  L 55,36  L 54,36  L 54,37  L 53,37  L 53,38  L 52,38  L 52,39  L 51,39  L 51,40  L 50,40  L 50,41  L 49,41  L 49,42  L 47,42  L 47,43  L 45,43  L 45,44  L 43,44  L 43,43  L 44,43  L 44,42  L 45,42  L 45,41  Z  M 42,45  L 42,44  L 43,44  L 43,45  Z  " style="fill:rgb(156, 78, 49); fill-opacity:1.000; stroke:none;" />
 <path d="  M 37,38  L 37,37  L 36,37  L 36,38  Z  " style="fill:rgb(156, 78, 49); fill-opacity:1.000; stroke:none;" />
 <path d="  M 38,37  L 38,36  L 37,36  L 37,37  Z  " style="fill:rgb(156, 78, 49); fill-opacity:1.000; stroke:none;" />
 <path d="  M 38,35  L 38,36  L 39,36  L 39,35  Z  " style="fill:rgb(156, 78, 49); fill-opacity:1.000; stroke:none;" />
 <path d="  M 39,34  L 39,35  L 40,35  L 40,34  Z  " style="fill:rgb(156, 78, 49); fill-opacity:1.000; stroke:none;" />
 <path d="  M 41,34  L 41,33  L 40,33  L 40,34  Z  " style="fill:rgb(156, 78, 49); fill-opacity:1.000; stroke:none;" />
 <path d="  M 41,32  L 41,33  L 42,33  L 42,32  Z  " style="fill:rgb(156, 78, 49); fill-opacity:1.000; stroke:none;" />
 <path d="  M 44,14  L 43,14  L 43,15  L 44,15  Z  " style="fill:rgb(156, 78, 49); fill-opacity:1.000; stroke:none;" />
 <path d="  M 46,12  L 45,12  L 45,13  L 46,13  Z  " style="fill:rgb(156, 78, 49); fill-opacity:1.000; stroke:none;" />
 <path d="  M 47,9  L 46,9  L 46,10  L 47,10  Z  " style="fill:rgb(156, 78, 49); fill-opacity:1.000; stroke:none;" />
 <path d="  M 49,11  L 50,11  L 50,10  L 49,10  L 49,9  L 48,9  L 48,10  L 47,10  L 47,11  L 46,11  L 46,12  L 49,12  Z  " style="fill:rgb(156, 78, 49); fill-opacity:1.000; stroke:none;" />
 <path d="  M 54,18  L 55,18  L 55,17  L 54,17  Z  " style="fill:rgb(156, 78, 49); fill-opacity:1.000; stroke:none;" />
 <path d="  M 56,17  L 56,16  L 55,16  L 55,17  Z  " style="fill:rgb(156, 78, 49); fill-opacity:1.000; stroke:none;" />
 <path d="  M 5,32  L 5,33  L 6,33  L 6,32  Z  " style="fill:rgb(138, 65, 41); fill-opacity:1.000; stroke:none;" />
 <path d="  M 7,35  L 7,36  L 8,36  L 8,34  L 7,34  L 7,33  L 6,33  L 6,35  Z  " style="fill:rgb(138, 65, 41); fill-opacity:1.000; stroke:none;" />
 <path d="  M 8,36  L 8,37  L 9,37  L 9,36  Z  " style="fill:rgb(138, 65, 41); fill-opacity:1.000; stroke:none;" />
 <path d="  M 12,43  L 11,43  L 11,44  L 12,44  Z  " style="fill:rgb(138, 65, 41); fill-opacity:1.000; stroke:none;" />
 <path d="  M 13,44  L 12,44  L 12,45  L 13,45  Z  " style="fill:rgb(138, 65, 41); fill-opacity:1.000; stroke:none;" />
 <path d="  M 13,49  L 14,49  L 14,48  L 13,48  Z  " style="fill:rgb(138, 65, 41); fill-opacity:1.000; stroke:none;" />
 <path d="  M 14,49  L 14,51  L 15,51  L 15,52  L 16,52  L 16,49  Z  " style="fill:rgb(138, 65, 41); fill-opacity:1.000; stroke:none;" />
 <path d="  M 19,50  L 18,50  L 18,51  L 17,51  L 17,54  L 18,54  L 18,53  L 19,53  L 19,52  L 20,52  L 20,50  L 21,50  L 21,49  L 19,49  Z  " style="fill:rgb(138, 65, 41); fill-opacity:1.000; stroke:none;" />
 <path d="  M 21,48  L 21,49  L 22,49  L 22,48  Z  " style="fill:rgb(138, 65, 41); fill-opacity:1.000; stroke:none;" />
 <path d="  M 31,38  L 30,38  L 30,39  L 31,39  Z  " style="fill:rgb(138, 65, 41); fill-opacity:1.000; stroke:none;" />
 <path d="  M 32,38  L 32,37  L 34,37  L 34,36  L 35,36  L 35,34  L 33,34  L 33,35  L 32,35  L 32,36  L 31,36  L 31,38  Z  " style="fill:rgb(138, 65, 41); fill-opacity:1.000; stroke:none;" />
 <path d="  M 42,45  L 43,45  L 43,44  L 42,44  Z  " style="fill:rgb(138, 65, 41); fill-opacity:1.000; stroke:none;" />
 <path d="  M 57,30  L 55,30  L 55,31  L 54,31  L 54,32  L 53,32  L 53,33  L 52,33  L 52,34  L 51,34  L 51,35  L 50,35  L 50,36  L 49,36  L 49,37  L 48,37  L 48,38  L 47,38  L 47,39  L 46,39  L 46,41  L 45,41  L 45,42  L 44,42  L 44,43  L 43,43  L 43,44  L 45,44  L 45,43  L 47,43  L 47,42  L 49,42  L 49,41  L 50,41  L 50,40  L 51,40  L 51,39  L 52,39  L 52,38  L 53,38  L 53,37  L 54,37  L 54,36  L 55,36  L 55,35  L 56,35  L 56,32  L 57,32  L 57,31  L 58,31  L 58,30  L 59,30  L 59,29  L 57,29  Z  " style="fill:rgb(138, 65, 41); fill-opacity:1.000; stroke:none;" />
 <path d="  M 60,29  L 60,28  L 59,28  L 59,29  Z  " style="fill:rgb(138, 65, 41); fill-opacity:1.000; stroke:none;" />
 <path d="  M 17,39  L 16,39  L 16,40  L 17,40  Z  " style="fill:rgb(251, 195, 182); fill-opacity:1.000; stroke:none;" />
 <path d="  M 17,38  L 17,39  L 19,39  L 19,38  Z  " style="fill:rgb(251, 195, 182); fill-opacity:1.000; stroke:none;" />
 <path d="  M 19,55  L 17,55  L 17,56  L 19,56  Z  " style="fill:rgb(109, 52, 33); fill-opacity:1.000; stroke:none;" />
 <path d="  M 22,54  L 19,54  L 19,55  L 22,55  Z  " style="fill:rgb(109, 52, 33); fill-opacity:1.000; stroke:none;" />
 <path d="  M 25,54  L 25,53  L 22,53  L 22,54  Z  " style="fill:rgb(109, 52, 33); fill-opacity:1.000; stroke:none;" />
 <path d="  M 28,53  L 28,52  L 25,52  L 25,53  Z  " style="fill:rgb(109, 52, 33); fill-opacity:1.000; stroke:none;" />
 <path d="  M 28,52  L 31,52  L 31,51  L 28,51  Z  " style="fill:rgb(109, 52, 33); fill-opacity:1.000; stroke:none;" />
 <path d="  M 34,50  L 31,50  L 31,51  L 34,51  Z  " style="fill:rgb(109, 52, 33); fill-opacity:1.000; stroke:none;" />
 <path d="  M 34,49  L 34,50  L 37,50  L 37,49  Z  " style="fill:rgb(109, 52, 33); fill-opacity:1.000; stroke:none;" />
 <path d="  M 37,48  L 37,49  L 40,49  L 40,48  Z  " style="fill:rgb(109, 52, 33); fill-opacity:1.000; stroke:none;" />
 <path d="  M 43,48  L 43,47  L 40,47  L 40,48  Z  " style="fill:rgb(109, 52, 33); fill-opacity:1.000; stroke:none;" />
 <path d="  M 43,46  L 43,47  L 46,47  L 46,46  Z  " style="fill:rgb(109, 52, 33); fill-opacity:1.000; stroke:none;" />
 <path d="  M 46,45  L 46,46  L 49,46  L 49,45  Z  " style="fill:rgb(109, 52, 33); fill-opacity:1.000; stroke:none;" />
 <path d="  M 49,44  L 49,45  L 52,45  L 52,44  Z  " style="fill:rgb(109, 52, 33); fill-opacity:1.000; stroke:none;" />
 <path d="  M 55,44  L 55,43  L 52,43  L 52,44  Z  " style="fill:rgb(109, 52, 33); fill-opacity:1.000; stroke:none;" />
 <path d="  M 58,42  L 55,42  L 55,43  L 58,43  Z  " style="fill:rgb(109, 52, 33); fill-opacity:1.000; stroke:none;" />
 <path d="  M 61,42  L 61,41  L 58,41  L 58,42  Z  " style="fill:rgb(109, 52, 33); fill-opacity:1.000; stroke:none;" />
 <path d="  M 63,40  L 61,40  L 61,41  L 63,41  Z  " style="fill:rgb(109, 52, 33); fill-opacity:1.000; stroke:none;" />
 <path d="  M 63,40  L 64,40  L 64,24  L 63,24  Z  " style="fill:rgb(109, 52, 33); fill-opacity:1.000; stroke:none;" />
</svg>
