<?xml version="1.0" encoding="UTF-8" standalone="no"?>
<!DOCTYPE svg PUBLIC "-//W3C//DTD SVG 1.1//EN" 
  "http://www.w3.org/Graphics/SVG/1.1/DTD/svg11.dtd">
<svg width="64" height="64"
	 xmlns="http://www.w3.org/2000/svg" version="1.1">
 <path d="  M 14,18  L 15,18  L 15,8  L 14,8  Z  " style="fill:rgb(68, 33, 49); fill-opacity:1.000; stroke:none;" />
 <path d="  M 15,22  L 14,22  L 14,34  L 15,34  Z  " style="fill:rgb(68, 33, 49); fill-opacity:1.000; stroke:none;" />
 <path d="  M 15,38  L 14,38  L 14,50  L 15,50  Z  " style="fill:rgb(68, 33, 49); fill-opacity:1.000; stroke:none;" />
 <path d="  M 15,61  L 15,54  L 14,54  L 14,62  L 52,62  L 52,61  Z  " style="fill:rgb(68, 33, 49); fill-opacity:1.000; stroke:none;" />
 <path d="  M 41,37  L 41,36  L 40,36  L 40,37  Z  " style="fill:rgb(68, 33, 49); fill-opacity:1.000; stroke:none;" />
 <path d="  M 42,36  L 42,37  L 41,37  L 41,38  L 43,38  L 43,37  L 44,37  L 44,36  Z  " style="fill:rgb(68, 33, 49); fill-opacity:1.000; stroke:none;" />
 <path d="  M 45,35  L 44,35  L 44,36  L 45,36  Z  " style="fill:rgb(68, 33, 49); fill-opacity:1.000; stroke:none;" />
 <path d="  M 14,18  L 14,20  L 15,20  L 15,18  Z  " style="fill:rgb(107, 89, 97); fill-opacity:1.000; stroke:none;" />
 <path d="  M 15,34  L 14,34  L 14,36  L 15,36  Z  " style="fill:rgb(107, 89, 97); fill-opacity:1.000; stroke:none;" />
 <path d="  M 15,50  L 14,50  L 14,52  L 15,52  Z  " style="fill:rgb(107, 89, 97); fill-opacity:1.000; stroke:none;" />
 <path d="  M 14,22  L 15,22  L 15,20  L 14,20  Z  " style="fill:rgb(81, 63, 71); fill-opacity:1.000; stroke:none;" />
 <path d="  M 15,38  L 15,36  L 14,36  L 14,38  Z  " style="fill:rgb(81, 63, 71); fill-opacity:1.000; stroke:none;" />
 <path d="  M 14,54  L 15,54  L 15,52  L 14,52  Z  " style="fill:rgb(81, 63, 71); fill-opacity:1.000; stroke:none;" />
 <path d="  M 15,16  L 26,16  L 26,8  L 15,8  Z  " style="fill:rgb(134, 62, 90); fill-opacity:1.000; stroke:none;" />
 <path d="  M 52,22  L 52,17  L 15,17  L 15,22  Z  " style="fill:rgb(134, 62, 90); fill-opacity:1.000; stroke:none;" />
 <path d="  M 26,48  L 26,23  L 15,23  L 15,48  Z  " style="fill:rgb(134, 62, 90); fill-opacity:1.000; stroke:none;" />
 <path d="  M 15,49  L 15,54  L 52,54  L 52,49  Z  " style="fill:rgb(134, 62, 90); fill-opacity:1.000; stroke:none;" />
 <path d="  M 26,61  L 26,55  L 15,55  L 15,61  Z  " style="fill:rgb(134, 62, 90); fill-opacity:1.000; stroke:none;" />
 <path d="  M 27,8  L 27,16  L 41,16  L 41,8  Z  " style="fill:rgb(134, 62, 90); fill-opacity:1.000; stroke:none;" />
 <path d="  M 27,48  L 41,48  L 41,37  L 40,37  L 40,35  L 41,35  L 41,23  L 27,23  Z  " style="fill:rgb(134, 62, 90); fill-opacity:1.000; stroke:none;" />
 <path d="  M 41,61  L 41,55  L 27,55  L 27,61  Z  " style="fill:rgb(134, 62, 90); fill-opacity:1.000; stroke:none;" />
 <path d="  M 41,37  L 42,37  L 42,36  L 41,36  Z  " style="fill:rgb(134, 62, 90); fill-opacity:1.000; stroke:none;" />
 <path d="  M 42,8  L 42,16  L 52,16  L 52,8  Z  " style="fill:rgb(134, 62, 90); fill-opacity:1.000; stroke:none;" />
 <path d="  M 52,23  L 42,23  L 42,33  L 44,33  L 44,32  L 47,32  L 47,33  L 48,33  L 48,35  L 47,35  L 47,36  L 46,36  L 46,37  L 44,37  L 44,38  L 42,38  L 42,48  L 52,48  Z  " style="fill:rgb(134, 62, 90); fill-opacity:1.000; stroke:none;" />
 <path d="  M 44,36  L 44,35  L 42,35  L 42,36  Z  " style="fill:rgb(134, 62, 90); fill-opacity:1.000; stroke:none;" />
 <path d="  M 42,55  L 42,61  L 52,61  L 52,55  Z  " style="fill:rgb(134, 62, 90); fill-opacity:1.000; stroke:none;" />
 <path d="  M 44,35  L 46,35  L 46,34  L 44,34  Z  " style="fill:rgb(134, 62, 90); fill-opacity:1.000; stroke:none;" />
 <path d="  M 47,33  L 46,33  L 46,34  L 47,34  Z  " style="fill:rgb(134, 62, 90); fill-opacity:1.000; stroke:none;" />
 <path d="  M 52,17  L 52,16  L 15,16  L 15,17  Z  " style="fill:rgb(174, 75, 113); fill-opacity:1.000; stroke:none;" />
 <path d="  M 52,49  L 52,48  L 15,48  L 15,49  Z  " style="fill:rgb(174, 75, 113); fill-opacity:1.000; stroke:none;" />
 <path d="  M 41,35  L 40,35  L 40,36  L 42,36  L 42,35  L 44,35  L 44,34  L 46,34  L 46,33  L 47,33  L 47,32  L 44,32  L 44,33  L 42,33  L 42,34  L 41,34  Z  " style="fill:rgb(174, 75, 113); fill-opacity:1.000; stroke:none;" />
 <path d="  M 27,23  L 41,23  L 41,34  L 42,34  L 42,23  L 52,23  L 52,22  L 15,22  L 15,23  L 26,23  L 26,48  L 27,48  Z  " style="fill:rgb(92, 48, 66); fill-opacity:1.000; stroke:none;" />
 <path d="  M 42,55  L 52,55  L 52,54  L 15,54  L 15,55  L 26,55  L 26,61  L 27,61  L 27,55  L 41,55  L 41,61  L 42,61  Z  " style="fill:rgb(92, 48, 66); fill-opacity:1.000; stroke:none;" />
 <path d="  M 26,16  L 27,16  L 27,8  L 26,8  Z  " style="fill:rgb(92, 48, 66); fill-opacity:1.000; stroke:none;" />
 <path d="  M 42,8  L 41,8  L 41,16  L 42,16  Z  " style="fill:rgb(92, 48, 66); fill-opacity:1.000; stroke:none;" />
 <path d="  M 41,48  L 42,48  L 42,38  L 41,38  Z  " style="fill:rgb(92, 48, 66); fill-opacity:1.000; stroke:none;" />
 <path d="  M 43,38  L 44,38  L 44,37  L 43,37  Z  " style="fill:rgb(92, 48, 66); fill-opacity:1.000; stroke:none;" />
 <path d="  M 46,35  L 45,35  L 45,36  L 44,36  L 44,37  L 46,37  L 46,36  L 47,36  L 47,35  L 48,35  L 48,33  L 47,33  L 47,34  L 46,34  Z  " style="fill:rgb(92, 48, 66); fill-opacity:1.000; stroke:none;" />
</svg>
