<?xml version="1.0" encoding="UTF-8" standalone="no"?>
<!DOCTYPE svg PUBLIC "-//W3C//DTD SVG 1.1//EN" 
  "http://www.w3.org/Graphics/SVG/1.1/DTD/svg11.dtd">
<svg width="64" height="64"
	 xmlns="http://www.w3.org/2000/svg" version="1.1">
 <path d="  M 16,21  L 15,21  L 15,28  L 16,28  Z  " style="fill:rgb(83, 32, 23); fill-opacity:1.000; stroke:none;" />
 <path d="  M 16,19  L 16,21  L 17,21  L 17,19  Z  " style="fill:rgb(83, 32, 23); fill-opacity:1.000; stroke:none;" />
 <path d="  M 17,28  L 16,28  L 16,31  L 17,31  Z  " style="fill:rgb(83, 32, 23); fill-opacity:1.000; stroke:none;" />
 <path d="  M 18,19  L 18,18  L 17,18  L 17,19  Z  " style="fill:rgb(83, 32, 23); fill-opacity:1.000; stroke:none;" />
 <path d="  M 18,31  L 17,31  L 17,34  L 18,34  Z  " style="fill:rgb(83, 32, 23); fill-opacity:1.000; stroke:none;" />
 <path d="  M 18,17  L 18,18  L 20,18  L 20,17  Z  " style="fill:rgb(83, 32, 23); fill-opacity:1.000; stroke:none;" />
 <path d="  M 18,37  L 19,37  L 19,34  L 18,34  Z  " style="fill:rgb(83, 32, 23); fill-opacity:1.000; stroke:none;" />
 <path d="  M 20,40  L 20,37  L 19,37  L 19,40  Z  " style="fill:rgb(83, 32, 23); fill-opacity:1.000; stroke:none;" />
 <path d="  M 20,16  L 20,17  L 22,17  L 22,16  Z  " style="fill:rgb(83, 32, 23); fill-opacity:1.000; stroke:none;" />
 <path d="  M 21,40  L 20,40  L 20,44  L 21,44  Z  " style="fill:rgb(83, 32, 23); fill-opacity:1.000; stroke:none;" />
 <path d="  M 22,44  L 21,44  L 21,46  L 22,46  Z  " style="fill:rgb(83, 32, 23); fill-opacity:1.000; stroke:none;" />
 <path d="  M 22,16  L 25,16  L 25,15  L 22,15  Z  " style="fill:rgb(83, 32, 23); fill-opacity:1.000; stroke:none;" />
 <path d="  M 26,19  L 26,20  L 24,20  L 24,21  L 23,21  L 23,22  L 22,22  L 22,24  L 23,24  L 23,25  L 24,25  L 24,26  L 26,26  L 26,27  L 38,27  L 38,26  L 40,26  L 40,25  L 41,25  L 41,24  L 42,24  L 42,22  L 41,22  L 41,21  L 40,21  L 40,20  L 38,20  L 38,19  Z  " style="fill:rgb(83, 32, 23); fill-opacity:1.000; stroke:none;" />
 <path d="  M 22,46  L 22,47  L 24,47  L 24,46  Z  " style="fill:rgb(83, 32, 23); fill-opacity:1.000; stroke:none;" />
 <path d="  M 26,48  L 26,47  L 24,47  L 24,48  Z  " style="fill:rgb(83, 32, 23); fill-opacity:1.000; stroke:none;" />
 <path d="  M 25,14  L 25,15  L 39,15  L 39,14  Z  " style="fill:rgb(83, 32, 23); fill-opacity:1.000; stroke:none;" />
 <path d="  M 26,49  L 29,49  L 29,48  L 26,48  Z  " style="fill:rgb(83, 32, 23); fill-opacity:1.000; stroke:none;" />
 <path d="  M 35,49  L 29,49  L 29,50  L 35,50  Z  " style="fill:rgb(83, 32, 23); fill-opacity:1.000; stroke:none;" />
 <path d="  M 35,48  L 35,49  L 38,49  L 38,48  Z  " style="fill:rgb(83, 32, 23); fill-opacity:1.000; stroke:none;" />
 <path d="  M 40,47  L 38,47  L 38,48  L 40,48  Z  " style="fill:rgb(83, 32, 23); fill-opacity:1.000; stroke:none;" />
 <path d="  M 39,15  L 39,16  L 42,16  L 42,15  Z  " style="fill:rgb(83, 32, 23); fill-opacity:1.000; stroke:none;" />
 <path d="  M 42,47  L 42,46  L 40,46  L 40,47  Z  " style="fill:rgb(83, 32, 23); fill-opacity:1.000; stroke:none;" />
 <path d="  M 42,16  L 42,17  L 44,17  L 44,16  Z  " style="fill:rgb(83, 32, 23); fill-opacity:1.000; stroke:none;" />
 <path d="  M 43,44  L 42,44  L 42,46  L 43,46  Z  " style="fill:rgb(83, 32, 23); fill-opacity:1.000; stroke:none;" />
 <path d="  M 43,44  L 44,44  L 44,40  L 43,40  Z  " style="fill:rgb(83, 32, 23); fill-opacity:1.000; stroke:none;" />
 <path d="  M 46,18  L 46,17  L 44,17  L 44,18  Z  " style="fill:rgb(83, 32, 23); fill-opacity:1.000; stroke:none;" />
 <path d="  M 45,37  L 44,37  L 44,40  L 45,40  Z  " style="fill:rgb(83, 32, 23); fill-opacity:1.000; stroke:none;" />
 <path d="  M 45,34  L 45,37  L 46,37  L 46,34  Z  " style="fill:rgb(83, 32, 23); fill-opacity:1.000; stroke:none;" />
 <path d="  M 47,19  L 47,18  L 46,18  L 46,19  Z  " style="fill:rgb(83, 32, 23); fill-opacity:1.000; stroke:none;" />
 <path d="  M 47,31  L 46,31  L 46,34  L 47,34  Z  " style="fill:rgb(83, 32, 23); fill-opacity:1.000; stroke:none;" />
 <path d="  M 47,21  L 48,21  L 48,19  L 47,19  Z  " style="fill:rgb(83, 32, 23); fill-opacity:1.000; stroke:none;" />
 <path d="  M 47,28  L 47,31  L 48,31  L 48,28  Z  " style="fill:rgb(83, 32, 23); fill-opacity:1.000; stroke:none;" />
 <path d="  M 49,21  L 48,21  L 48,28  L 49,28  Z  " style="fill:rgb(83, 32, 23); fill-opacity:1.000; stroke:none;" />
 <path d="  M 17,26  L 17,23  L 18,23  L 18,22  L 17,22  L 17,21  L 16,21  L 16,26  Z  " style="fill:rgb(154, 102, 85); fill-opacity:1.000; stroke:none;" />
 <path d="  M 17,21  L 18,21  L 18,20  L 20,20  L 20,19  L 19,19  L 19,18  L 18,18  L 18,19  L 17,19  Z  " style="fill:rgb(154, 102, 85); fill-opacity:1.000; stroke:none;" />
 <path d="  M 18,27  L 18,26  L 17,26  L 17,27  Z  " style="fill:rgb(154, 102, 85); fill-opacity:1.000; stroke:none;" />
 <path d="  M 20,17  L 20,18  L 21,18  L 21,17  Z  " style="fill:rgb(154, 102, 85); fill-opacity:1.000; stroke:none;" />
 <path d="  M 21,29  L 21,28  L 20,28  L 20,29  Z  " style="fill:rgb(154, 102, 85); fill-opacity:1.000; stroke:none;" />
 <path d="  M 31,41  L 31,42  L 30,42  L 30,44  L 29,44  L 29,43  L 28,43  L 28,42  L 27,42  L 27,41  L 28,41  L 28,40  L 27,40  L 27,38  L 26,38  L 26,36  L 27,36  L 27,35  L 28,35  L 28,36  L 29,36  L 29,37  L 30,37  L 30,38  L 31,38  L 31,39  L 32,39  L 32,41  Z  M 26,43  L 26,44  L 27,44  L 27,45  L 26,45  L 26,46  L 29,46  L 29,45  L 30,45  L 30,46  L 32,46  L 32,45  L 33,45  L 33,44  L 32,44  L 32,43  L 33,43  L 33,42  L 34,42  L 34,43  L 36,43  L 36,42  L 35,42  L 35,41  L 36,41  L 36,38  L 35,38  L 35,37  L 36,37  L 36,36  L 34,36  L 34,37  L 33,37  L 33,35  L 32,35  L 32,34  L 31,34  L 31,33  L 30,33  L 30,32  L 27,32  L 27,33  L 25,33  L 25,34  L 24,34  L 24,33  L 23,33  L 23,35  L 22,35  L 22,37  L 21,37  L 21,39  L 22,39  L 22,40  L 23,40  L 23,42  L 24,42  L 24,43  Z  M 23,39  L 22,39  L 22,38  L 23,38  Z  M 35,41  L 34,41  L 34,40  L 35,40  Z  " style="fill:rgb(154, 102, 85); fill-opacity:1.000; stroke:none;" />
 <path d="  M 22,16  L 22,17  L 24,17  L 24,16  Z  " style="fill:rgb(154, 102, 85); fill-opacity:1.000; stroke:none;" />
 <path d="  M 23,29  L 24,29  L 24,28  L 23,28  Z  " style="fill:rgb(154, 102, 85); fill-opacity:1.000; stroke:none;" />
 <path d="  M 23,43  L 23,44  L 24,44  L 24,43  Z  " style="fill:rgb(154, 102, 85); fill-opacity:1.000; stroke:none;" />
 <path d="  M 24,30  L 26,30  L 26,29  L 24,29  Z  " style="fill:rgb(154, 102, 85); fill-opacity:1.000; stroke:none;" />
 <path d="  M 25,33  L 25,32  L 24,32  L 24,33  Z  " style="fill:rgb(154, 102, 85); fill-opacity:1.000; stroke:none;" />
 <path d="  M 27,16  L 27,15  L 25,15  L 25,16  Z  " style="fill:rgb(154, 102, 85); fill-opacity:1.000; stroke:none;" />
 <path d="  M 25,45  L 26,45  L 26,44  L 25,44  Z  " style="fill:rgb(154, 102, 85); fill-opacity:1.000; stroke:none;" />
 <path d="  M 27,31  L 28,31  L 28,30  L 27,30  Z  " style="fill:rgb(154, 102, 85); fill-opacity:1.000; stroke:none;" />
 <path d="  M 29,38  L 29,37  L 28,37  L 28,38  Z  " style="fill:rgb(154, 102, 85); fill-opacity:1.000; stroke:none;" />
 <path d="  M 28,41  L 28,42  L 29,42  L 29,41  Z  " style="fill:rgb(154, 102, 85); fill-opacity:1.000; stroke:none;" />
 <path d="  M 41,30  L 41,29  L 38,29  L 38,30  L 30,30  L 30,31  L 39,31  L 39,30  Z  " style="fill:rgb(154, 102, 85); fill-opacity:1.000; stroke:none;" />
 <path d="  M 34,35  L 34,34  L 33,34  L 33,35  Z  " style="fill:rgb(154, 102, 85); fill-opacity:1.000; stroke:none;" />
 <path d="  M 39,16  L 39,15  L 35,15  L 35,16  L 38,16  L 38,17  L 40,17  L 40,18  L 41,18  L 41,17  L 42,17  L 42,16  Z  " style="fill:rgb(154, 102, 85); fill-opacity:1.000; stroke:none;" />
 <path d="  M 42,18  L 41,18  L 41,19  L 42,19  Z  " style="fill:rgb(154, 102, 85); fill-opacity:1.000; stroke:none;" />
 <path d="  M 43,29  L 43,28  L 41,28  L 41,29  Z  " style="fill:rgb(154, 102, 85); fill-opacity:1.000; stroke:none;" />
 <path d="  M 44,18  L 44,17  L 42,17  L 42,18  Z  " style="fill:rgb(154, 102, 85); fill-opacity:1.000; stroke:none;" />
 <path d="  M 45,20  L 45,21  L 47,21  L 47,20  L 46,20  L 46,19  L 45,19  L 45,18  L 44,18  L 44,19  L 43,19  L 43,20  Z  " style="fill:rgb(154, 102, 85); fill-opacity:1.000; stroke:none;" />
 <path d="  M 16,26  L 16,27  L 17,27  L 17,26  Z  " style="fill:rgb(138, 81, 67); fill-opacity:1.000; stroke:none;" />
 <path d="  M 35,16  L 35,15  L 27,15  L 27,16  L 24,16  L 24,17  L 21,17  L 21,18  L 19,18  L 19,19  L 20,19  L 20,20  L 18,20  L 18,21  L 17,21  L 17,22  L 18,22  L 18,23  L 17,23  L 17,26  L 18,26  L 18,27  L 19,27  L 19,28  L 20,28  L 20,27  L 21,27  L 21,28  L 23,28  L 23,27  L 22,27  L 22,26  L 21,26  L 21,24  L 20,24  L 20,22  L 21,22  L 21,21  L 22,21  L 22,19  L 25,19  L 25,18  L 26,18  L 26,17  L 29,17  L 29,16  L 31,16  L 31,17  L 32,17  L 32,18  L 34,18  L 34,17  L 36,17  L 36,18  L 39,18  L 39,19  L 41,19  L 41,18  L 40,18  L 40,17  L 38,17  L 38,16  Z  M 34,16  L 34,17  L 33,17  L 33,16  Z  " style="fill:rgb(138, 81, 67); fill-opacity:1.000; stroke:none;" />
 <path d="  M 17,28  L 18,28  L 18,27  L 17,27  Z  " style="fill:rgb(138, 81, 67); fill-opacity:1.000; stroke:none;" />
 <path d="  M 22,35  L 23,35  L 23,33  L 24,33  L 24,32  L 25,32  L 25,31  L 22,31  L 22,30  L 20,30  L 20,31  L 19,31  L 19,32  L 18,32  L 18,33  L 19,33  L 19,36  L 20,36  L 20,39  L 21,39  L 21,37  L 22,37  Z  " style="fill:rgb(138, 81, 67); fill-opacity:1.000; stroke:none;" />
 <path d="  M 23,40  L 22,40  L 22,39  L 21,39  L 21,43  L 22,43  L 22,45  L 24,45  L 24,46  L 25,46  L 25,47  L 28,47  L 28,48  L 32,48  L 32,47  L 33,47  L 33,48  L 34,48  L 34,47  L 36,47  L 36,46  L 35,46  L 35,45  L 38,45  L 38,44  L 39,44  L 39,42  L 40,42  L 40,40  L 39,40  L 39,39  L 40,39  L 40,38  L 41,38  L 41,37  L 40,37  L 40,36  L 39,36  L 39,35  L 38,35  L 38,34  L 36,34  L 36,33  L 35,33  L 35,32  L 33,32  L 33,33  L 31,33  L 31,34  L 32,34  L 32,35  L 33,35  L 33,37  L 34,37  L 34,36  L 36,36  L 36,37  L 35,37  L 35,38  L 36,38  L 36,41  L 35,41  L 35,42  L 36,42  L 36,43  L 34,43  L 34,42  L 33,42  L 33,43  L 32,43  L 32,44  L 33,44  L 33,45  L 32,45  L 32,46  L 30,46  L 30,45  L 29,45  L 29,46  L 26,46  L 26,45  L 25,45  L 25,44  L 26,44  L 26,43  L 24,43  L 24,42  L 23,42  Z  M 33,35  L 33,34  L 34,34  L 34,35  Z  M 23,44  L 23,43  L 24,43  L 24,44  Z  M 38,44  L 37,44  L 37,43  L 38,43  Z  " style="fill:rgb(138, 81, 67); fill-opacity:1.000; stroke:none;" />
 <path d="  M 22,39  L 23,39  L 23,38  L 22,38  Z  " style="fill:rgb(138, 81, 67); fill-opacity:1.000; stroke:none;" />
 <path d="  M 23,26  L 23,27  L 24,27  L 24,26  Z  " style="fill:rgb(138, 81, 67); fill-opacity:1.000; stroke:none;" />
 <path d="  M 25,34  L 25,33  L 24,33  L 24,34  Z  " style="fill:rgb(138, 81, 67); fill-opacity:1.000; stroke:none;" />
 <path d="  M 25,27  L 25,29  L 26,29  L 26,30  L 30,30  L 30,29  L 29,29  L 29,28  L 26,28  L 26,27  Z  " style="fill:rgb(138, 81, 67); fill-opacity:1.000; stroke:none;" />
 <path d="  M 25,32  L 25,33  L 27,33  L 27,32  Z  " style="fill:rgb(138, 81, 67); fill-opacity:1.000; stroke:none;" />
 <path d="  M 26,44  L 26,45  L 27,45  L 27,44  Z  " style="fill:rgb(138, 81, 67); fill-opacity:1.000; stroke:none;" />
 <path d="  M 30,17  L 30,18  L 31,18  L 31,17  Z  " style="fill:rgb(138, 81, 67); fill-opacity:1.000; stroke:none;" />
 <path d="  M 30,28  L 30,29  L 31,29  L 31,28  Z  " style="fill:rgb(138, 81, 67); fill-opacity:1.000; stroke:none;" />
 <path d="  M 31,32  L 30,32  L 30,33  L 31,33  Z  " style="fill:rgb(138, 81, 67); fill-opacity:1.000; stroke:none;" />
 <path d="  M 32,30  L 38,30  L 38,29  L 41,29  L 41,28  L 45,28  L 45,27  L 46,27  L 46,26  L 47,26  L 47,21  L 45,21  L 45,20  L 42,20  L 42,21  L 44,21  L 44,22  L 45,22  L 45,23  L 44,23  L 44,24  L 43,24  L 43,25  L 42,25  L 42,27  L 40,27  L 40,28  L 39,28  L 39,27  L 38,27  L 38,28  L 36,28  L 36,29  L 35,29  L 35,28  L 34,28  L 34,29  L 32,29  Z  " style="fill:rgb(138, 81, 67); fill-opacity:1.000; stroke:none;" />
 <path d="  M 34,40  L 34,41  L 35,41  L 35,40  Z  " style="fill:rgb(138, 81, 67); fill-opacity:1.000; stroke:none;" />
 <path d="  M 37,33  L 37,32  L 36,32  L 36,33  Z  " style="fill:rgb(138, 81, 67); fill-opacity:1.000; stroke:none;" />
 <path d="  M 39,34  L 39,35  L 40,35  L 40,34  Z  " style="fill:rgb(138, 81, 67); fill-opacity:1.000; stroke:none;" />
 <path d="  M 41,35  L 40,35  L 40,36  L 41,36  Z  " style="fill:rgb(138, 81, 67); fill-opacity:1.000; stroke:none;" />
 <path d="  M 41,18  L 42,18  L 42,17  L 41,17  Z  " style="fill:rgb(138, 81, 67); fill-opacity:1.000; stroke:none;" />
 <path d="  M 42,20  L 42,19  L 41,19  L 41,20  Z  " style="fill:rgb(138, 81, 67); fill-opacity:1.000; stroke:none;" />
 <path d="  M 44,18  L 42,18  L 42,19  L 44,19  Z  " style="fill:rgb(138, 81, 67); fill-opacity:1.000; stroke:none;" />
 <path d="  M 16,27  L 16,28  L 17,28  L 17,27  Z  " style="fill:rgb(122, 65, 49); fill-opacity:1.000; stroke:none;" />
 <path d="  M 19,31  L 20,31  L 20,30  L 22,30  L 22,29  L 19,29  L 19,28  L 17,28  L 17,31  L 18,31  L 18,32  L 19,32  Z  " style="fill:rgb(122, 65, 49); fill-opacity:1.000; stroke:none;" />
 <path d="  M 19,34  L 19,33  L 18,33  L 18,34  Z  " style="fill:rgb(122, 65, 49); fill-opacity:1.000; stroke:none;" />
 <path d="  M 20,37  L 20,36  L 19,36  L 19,37  Z  " style="fill:rgb(122, 65, 49); fill-opacity:1.000; stroke:none;" />
 <path d="  M 21,40  L 21,39  L 20,39  L 20,40  Z  " style="fill:rgb(122, 65, 49); fill-opacity:1.000; stroke:none;" />
 <path d="  M 21,44  L 22,44  L 22,43  L 21,43  Z  " style="fill:rgb(122, 65, 49); fill-opacity:1.000; stroke:none;" />
 <path d="  M 22,30  L 22,31  L 25,31  L 25,30  Z  " style="fill:rgb(122, 65, 49); fill-opacity:1.000; stroke:none;" />
 <path d="  M 22,46  L 24,46  L 24,45  L 22,45  Z  " style="fill:rgb(122, 65, 49); fill-opacity:1.000; stroke:none;" />
 <path d="  M 25,46  L 24,46  L 24,47  L 25,47  Z  " style="fill:rgb(122, 65, 49); fill-opacity:1.000; stroke:none;" />
 <path d="  M 43,28  L 43,29  L 41,29  L 41,30  L 39,30  L 39,31  L 25,31  L 25,32  L 31,32  L 31,33  L 33,33  L 33,32  L 35,32  L 35,33  L 36,33  L 36,34  L 38,34  L 38,35  L 39,35  L 39,34  L 40,34  L 40,35  L 41,35  L 41,36  L 40,36  L 40,37  L 41,37  L 41,38  L 40,38  L 40,39  L 39,39  L 39,40  L 40,40  L 40,42  L 39,42  L 39,44  L 38,44  L 38,45  L 35,45  L 35,46  L 36,46  L 36,47  L 34,47  L 34,48  L 33,48  L 33,47  L 32,47  L 32,48  L 29,48  L 29,49  L 35,49  L 35,48  L 38,48  L 38,47  L 40,47  L 40,46  L 42,46  L 42,44  L 43,44  L 43,40  L 44,40  L 44,37  L 45,37  L 45,34  L 46,34  L 46,31  L 47,31  L 47,28  L 48,28  L 48,24  L 47,24  L 47,26  L 46,26  L 46,27  L 45,27  L 45,28  Z  M 36,33  L 36,32  L 37,32  L 37,33  Z  " style="fill:rgb(122, 65, 49); fill-opacity:1.000; stroke:none;" />
 <path d="  M 28,48  L 28,47  L 26,47  L 26,48  Z  " style="fill:rgb(122, 65, 49); fill-opacity:1.000; stroke:none;" />
 <path d="  M 38,44  L 38,43  L 37,43  L 37,44  Z  " style="fill:rgb(122, 65, 49); fill-opacity:1.000; stroke:none;" />
 <path d="  M 40,36  L 40,35  L 39,35  L 39,36  Z  " style="fill:rgb(122, 65, 49); fill-opacity:1.000; stroke:none;" />
 <path d="  M 41,20  L 41,21  L 42,21  L 42,20  Z  " style="fill:rgb(122, 65, 49); fill-opacity:1.000; stroke:none;" />
 <path d="  M 42,26  L 42,25  L 41,25  L 41,26  Z  " style="fill:rgb(122, 65, 49); fill-opacity:1.000; stroke:none;" />
 <path d="  M 43,22  L 43,21  L 42,21  L 42,22  Z  " style="fill:rgb(122, 65, 49); fill-opacity:1.000; stroke:none;" />
 <path d="  M 42,25  L 43,25  L 43,24  L 42,24  Z  " style="fill:rgb(122, 65, 49); fill-opacity:1.000; stroke:none;" />
 <path d="  M 44,22  L 43,22  L 43,24  L 44,24  Z  " style="fill:rgb(122, 65, 49); fill-opacity:1.000; stroke:none;" />
 <path d="  M 19,28  L 19,27  L 18,27  L 18,28  Z  " style="fill:rgb(165, 111, 94); fill-opacity:1.000; stroke:none;" />
 <path d="  M 19,29  L 20,29  L 20,28  L 19,28  Z  " style="fill:rgb(165, 111, 94); fill-opacity:1.000; stroke:none;" />
 <path d="  M 21,27  L 20,27  L 20,28  L 21,28  Z  " style="fill:rgb(165, 111, 94); fill-opacity:1.000; stroke:none;" />
 <path d="  M 24,30  L 24,29  L 23,29  L 23,28  L 21,28  L 21,29  L 22,29  L 22,30  Z  " style="fill:rgb(165, 111, 94); fill-opacity:1.000; stroke:none;" />
 <path d="  M 25,30  L 25,31  L 27,31  L 27,30  Z  " style="fill:rgb(165, 111, 94); fill-opacity:1.000; stroke:none;" />
 <path d="  M 27,40  L 28,40  L 28,41  L 29,41  L 29,42  L 28,42  L 28,43  L 29,43  L 29,44  L 30,44  L 30,42  L 31,42  L 31,41  L 32,41  L 32,39  L 31,39  L 31,38  L 30,38  L 30,37  L 29,37  L 29,36  L 28,36  L 28,35  L 27,35  L 27,36  L 26,36  L 26,38  L 27,38  Z  M 28,38  L 28,37  L 29,37  L 29,38  Z  " style="fill:rgb(165, 111, 94); fill-opacity:1.000; stroke:none;" />
 <path d="  M 28,41  L 27,41  L 27,42  L 28,42  Z  " style="fill:rgb(165, 111, 94); fill-opacity:1.000; stroke:none;" />
 <path d="  M 30,31  L 30,30  L 28,30  L 28,31  Z  " style="fill:rgb(165, 111, 94); fill-opacity:1.000; stroke:none;" />
 <path d="  M 20,24  L 21,24  L 21,26  L 22,26  L 22,27  L 23,27  L 23,25  L 22,25  L 22,21  L 21,21  L 21,22  L 20,22  Z  " style="fill:rgb(121, 64, 48); fill-opacity:1.000; stroke:none;" />
 <path d="  M 23,20  L 24,20  L 24,19  L 22,19  L 22,21  L 23,21  Z  " style="fill:rgb(121, 64, 48); fill-opacity:1.000; stroke:none;" />
 <path d="  M 26,27  L 26,26  L 24,26  L 24,27  L 23,27  L 23,28  L 24,28  L 24,29  L 25,29  L 25,27  Z  " style="fill:rgb(121, 64, 48); fill-opacity:1.000; stroke:none;" />
 <path d="  M 25,18  L 25,19  L 26,19  L 26,18  Z  " style="fill:rgb(121, 64, 48); fill-opacity:1.000; stroke:none;" />
 <path d="  M 26,18  L 30,18  L 30,17  L 31,17  L 31,16  L 29,16  L 29,17  L 26,17  Z  " style="fill:rgb(121, 64, 48); fill-opacity:1.000; stroke:none;" />
 <path d="  M 34,29  L 34,28  L 35,28  L 35,29  L 36,29  L 36,28  L 38,28  L 38,27  L 26,27  L 26,28  L 29,28  L 29,29  L 30,29  L 30,30  L 32,30  L 32,29  Z  M 30,29  L 30,28  L 31,28  L 31,29  Z  " style="fill:rgb(121, 64, 48); fill-opacity:1.000; stroke:none;" />
 <path d="  M 31,18  L 32,18  L 32,17  L 31,17  Z  " style="fill:rgb(121, 64, 48); fill-opacity:1.000; stroke:none;" />
 <path d="  M 33,17  L 34,17  L 34,16  L 33,16  Z  " style="fill:rgb(121, 64, 48); fill-opacity:1.000; stroke:none;" />
 <path d="  M 34,17  L 34,18  L 36,18  L 36,17  Z  " style="fill:rgb(121, 64, 48); fill-opacity:1.000; stroke:none;" />
 <path d="  M 38,18  L 38,19  L 39,19  L 39,18  Z  " style="fill:rgb(121, 64, 48); fill-opacity:1.000; stroke:none;" />
 <path d="  M 38,27  L 39,27  L 39,28  L 40,28  L 40,27  L 42,27  L 42,26  L 38,26  Z  " style="fill:rgb(121, 64, 48); fill-opacity:1.000; stroke:none;" />
 <path d="  M 41,20  L 41,19  L 40,19  L 40,20  Z  " style="fill:rgb(121, 64, 48); fill-opacity:1.000; stroke:none;" />
 <path d="  M 43,19  L 42,19  L 42,20  L 43,20  Z  " style="fill:rgb(121, 64, 48); fill-opacity:1.000; stroke:none;" />
 <path d="  M 44,21  L 43,21  L 43,22  L 44,22  Z  " style="fill:rgb(121, 64, 48); fill-opacity:1.000; stroke:none;" />
 <path d="  M 45,22  L 44,22  L 44,23  L 45,23  Z  " style="fill:rgb(121, 64, 48); fill-opacity:1.000; stroke:none;" />
 <path d="  M 45,18  L 45,19  L 46,19  L 46,18  Z  " style="fill:rgb(121, 64, 48); fill-opacity:1.000; stroke:none;" />
 <path d="  M 46,20  L 47,20  L 47,19  L 46,19  Z  " style="fill:rgb(121, 64, 48); fill-opacity:1.000; stroke:none;" />
 <path d="  M 48,21  L 47,21  L 47,24  L 48,24  Z  " style="fill:rgb(121, 64, 48); fill-opacity:1.000; stroke:none;" />
 <path d="  M 23,22  L 23,21  L 22,21  L 22,22  Z  " style="fill:rgb(106, 49, 35); fill-opacity:1.000; stroke:none;" />
 <path d="  M 22,24  L 22,25  L 23,25  L 23,24  Z  " style="fill:rgb(106, 49, 35); fill-opacity:1.000; stroke:none;" />
 <path d="  M 24,20  L 23,20  L 23,21  L 24,21  Z  " style="fill:rgb(106, 49, 35); fill-opacity:1.000; stroke:none;" />
 <path d="  M 24,26  L 24,25  L 23,25  L 23,26  Z  " style="fill:rgb(106, 49, 35); fill-opacity:1.000; stroke:none;" />
 <path d="  M 24,19  L 24,20  L 26,20  L 26,19  Z  " style="fill:rgb(106, 49, 35); fill-opacity:1.000; stroke:none;" />
 <path d="  M 38,19  L 38,18  L 26,18  L 26,19  Z  " style="fill:rgb(106, 49, 35); fill-opacity:1.000; stroke:none;" />
 <path d="  M 38,19  L 38,20  L 40,20  L 40,19  Z  " style="fill:rgb(106, 49, 35); fill-opacity:1.000; stroke:none;" />
 <path d="  M 41,21  L 41,20  L 40,20  L 40,21  Z  " style="fill:rgb(106, 49, 35); fill-opacity:1.000; stroke:none;" />
 <path d="  M 41,26  L 41,25  L 40,25  L 40,26  Z  " style="fill:rgb(106, 49, 35); fill-opacity:1.000; stroke:none;" />
 <path d="  M 41,21  L 41,22  L 42,22  L 42,21  Z  " style="fill:rgb(106, 49, 35); fill-opacity:1.000; stroke:none;" />
 <path d="  M 42,24  L 41,24  L 41,25  L 42,25  Z  " style="fill:rgb(106, 49, 35); fill-opacity:1.000; stroke:none;" />
 <path d="  M 42,22  L 42,24  L 43,24  L 43,22  Z  " style="fill:rgb(106, 49, 35); fill-opacity:1.000; stroke:none;" />
</svg>
