<?xml version="1.0" encoding="UTF-8" standalone="no"?>
<!DOCTYPE svg PUBLIC "-//W3C//DTD SVG 1.1//EN" 
  "http://www.w3.org/Graphics/SVG/1.1/DTD/svg11.dtd">
<svg width="64" height="64"
	 xmlns="http://www.w3.org/2000/svg" version="1.1">
 <path d="  M 8,24  L 7,24  L 7,29  L 8,29  Z  " style="fill:rgb(229, 123, 36); fill-opacity:1.000; stroke:none;" />
 <path d="  M 9,22  L 8,22  L 8,24  L 9,24  Z  " style="fill:rgb(229, 123, 36); fill-opacity:1.000; stroke:none;" />
 <path d="  M 8,29  L 8,31  L 9,31  L 9,29  Z  " style="fill:rgb(229, 123, 36); fill-opacity:1.000; stroke:none;" />
 <path d="  M 10,20  L 9,20  L 9,22  L 10,22  L 10,21  L 11,21  L 11,19  L 10,19  Z  " style="fill:rgb(229, 123, 36); fill-opacity:1.000; stroke:none;" />
 <path d="  M 9,32  L 10,32  L 10,31  L 9,31  Z  " style="fill:rgb(229, 123, 36); fill-opacity:1.000; stroke:none;" />
 <path d="  M 11,32  L 10,32  L 10,33  L 11,33  Z  " style="fill:rgb(229, 123, 36); fill-opacity:1.000; stroke:none;" />
 <path d="  M 11,18  L 11,19  L 14,19  L 14,20  L 15,20  L 15,19  L 17,19  L 17,18  Z  " style="fill:rgb(229, 123, 36); fill-opacity:1.000; stroke:none;" />
 <path d="  M 12,26  L 11,26  L 11,27  L 12,27  Z  " style="fill:rgb(229, 123, 36); fill-opacity:1.000; stroke:none;" />
 <path d="  M 12,30  L 12,31  L 14,31  L 14,30  L 13,30  L 13,29  L 12,29  L 12,28  L 11,28  L 11,30  Z  " style="fill:rgb(229, 123, 36); fill-opacity:1.000; stroke:none;" />
 <path d="  M 12,34  L 12,33  L 11,33  L 11,34  Z  " style="fill:rgb(229, 123, 36); fill-opacity:1.000; stroke:none;" />
 <path d="  M 13,25  L 13,24  L 12,24  L 12,25  Z  " style="fill:rgb(229, 123, 36); fill-opacity:1.000; stroke:none;" />
 <path d="  M 12,28  L 13,28  L 13,27  L 12,27  Z  " style="fill:rgb(229, 123, 36); fill-opacity:1.000; stroke:none;" />
 <path d="  M 13,34  L 12,34  L 12,35  L 13,35  Z  " style="fill:rgb(229, 123, 36); fill-opacity:1.000; stroke:none;" />
 <path d="  M 13,48  L 13,46  L 12,46  L 12,48  Z  " style="fill:rgb(229, 123, 36); fill-opacity:1.000; stroke:none;" />
 <path d="  M 15,37  L 15,36  L 14,36  L 14,35  L 13,35  L 13,37  Z  " style="fill:rgb(229, 123, 36); fill-opacity:1.000; stroke:none;" />
 <path d="  M 13,41  L 13,42  L 14,42  L 14,41  Z  " style="fill:rgb(229, 123, 36); fill-opacity:1.000; stroke:none;" />
 <path d="  M 14,48  L 13,48  L 13,50  L 14,50  Z  " style="fill:rgb(229, 123, 36); fill-opacity:1.000; stroke:none;" />
 <path d="  M 14,27  L 16,27  L 16,25  L 15,25  L 15,26  L 14,26  Z  " style="fill:rgb(229, 123, 36); fill-opacity:1.000; stroke:none;" />
 <path d="  M 14,28  L 14,29  L 15,29  L 15,28  Z  " style="fill:rgb(229, 123, 36); fill-opacity:1.000; stroke:none;" />
 <path d="  M 15,32  L 15,31  L 14,31  L 14,32  Z  " style="fill:rgb(229, 123, 36); fill-opacity:1.000; stroke:none;" />
 <path d="  M 15,38  L 14,38  L 14,40  L 15,40  Z  " style="fill:rgb(229, 123, 36); fill-opacity:1.000; stroke:none;" />
 <path d="  M 15,45  L 15,44  L 14,44  L 14,45  Z  " style="fill:rgb(229, 123, 36); fill-opacity:1.000; stroke:none;" />
 <path d="  M 15,50  L 14,50  L 14,52  L 16,52  L 16,51  L 15,51  Z  " style="fill:rgb(229, 123, 36); fill-opacity:1.000; stroke:none;" />
 <path d="  M 17,23  L 15,23  L 15,24  L 17,24  Z  " style="fill:rgb(229, 123, 36); fill-opacity:1.000; stroke:none;" />
 <path d="  M 15,36  L 16,36  L 16,35  L 15,35  Z  " style="fill:rgb(229, 123, 36); fill-opacity:1.000; stroke:none;" />
 <path d="  M 17,43  L 15,43  L 15,44  L 17,44  Z  " style="fill:rgb(229, 123, 36); fill-opacity:1.000; stroke:none;" />
 <path d="  M 15,45  L 15,47  L 16,47  L 16,45  Z  " style="fill:rgb(229, 123, 36); fill-opacity:1.000; stroke:none;" />
 <path d="  M 17,29  L 17,28  L 16,28  L 16,29  Z  " style="fill:rgb(229, 123, 36); fill-opacity:1.000; stroke:none;" />
 <path d="  M 16,34  L 16,35  L 17,35  L 17,34  Z  " style="fill:rgb(229, 123, 36); fill-opacity:1.000; stroke:none;" />
 <path d="  M 16,36  L 16,37  L 17,37  L 17,36  Z  " style="fill:rgb(229, 123, 36); fill-opacity:1.000; stroke:none;" />
 <path d="  M 16,41  L 16,42  L 17,42  L 17,41  Z  " style="fill:rgb(229, 123, 36); fill-opacity:1.000; stroke:none;" />
 <path d="  M 16,48  L 17,48  L 17,47  L 16,47  Z  " style="fill:rgb(229, 123, 36); fill-opacity:1.000; stroke:none;" />
 <path d="  M 16,52  L 16,53  L 23,53  L 23,52  Z  " style="fill:rgb(229, 123, 36); fill-opacity:1.000; stroke:none;" />
 <path d="  M 17,18  L 18,18  L 18,17  L 17,17  Z  " style="fill:rgb(229, 123, 36); fill-opacity:1.000; stroke:none;" />
 <path d="  M 20,21  L 20,22  L 21,22  L 21,21  L 22,21  L 22,20  L 19,20  L 19,19  L 17,19  L 17,20  L 18,20  L 18,21  Z  " style="fill:rgb(229, 123, 36); fill-opacity:1.000; stroke:none;" />
 <path d="  M 17,28  L 18,28  L 18,29  L 19,29  L 19,27  L 17,27  Z  " style="fill:rgb(229, 123, 36); fill-opacity:1.000; stroke:none;" />
 <path d="  M 17,36  L 18,36  L 18,37  L 21,37  L 21,36  L 19,36  L 19,35  L 17,35  Z  " style="fill:rgb(229, 123, 36); fill-opacity:1.000; stroke:none;" />
 <path d="  M 17,38  L 18,38  L 18,37  L 17,37  Z  " style="fill:rgb(229, 123, 36); fill-opacity:1.000; stroke:none;" />
 <path d="  M 17,42  L 17,43  L 19,43  L 19,44  L 20,44  L 20,43  L 22,43  L 22,42  L 20,42  L 20,41  L 19,41  L 19,42  Z  " style="fill:rgb(229, 123, 36); fill-opacity:1.000; stroke:none;" />
 <path d="  M 19,17  L 19,15  L 18,15  L 18,17  Z  " style="fill:rgb(229, 123, 36); fill-opacity:1.000; stroke:none;" />
 <path d="  M 19,24  L 19,23  L 18,23  L 18,24  Z  " style="fill:rgb(229, 123, 36); fill-opacity:1.000; stroke:none;" />
 <path d="  M 19,25  L 18,25  L 18,26  L 19,26  Z  " style="fill:rgb(229, 123, 36); fill-opacity:1.000; stroke:none;" />
 <path d="  M 19,34  L 19,33  L 18,33  L 18,34  Z  " style="fill:rgb(229, 123, 36); fill-opacity:1.000; stroke:none;" />
 <path d="  M 18,46  L 19,46  L 19,45  L 18,45  Z  " style="fill:rgb(229, 123, 36); fill-opacity:1.000; stroke:none;" />
 <path d="  M 18,49  L 19,49  L 19,48  L 18,48  Z  " style="fill:rgb(229, 123, 36); fill-opacity:1.000; stroke:none;" />
 <path d="  M 20,12  L 19,12  L 19,15  L 20,15  Z  " style="fill:rgb(229, 123, 36); fill-opacity:1.000; stroke:none;" />
 <path d="  M 20,17  L 19,17  L 19,19  L 20,19  L 20,18  L 21,18  L 21,15  L 20,15  Z  " style="fill:rgb(229, 123, 36); fill-opacity:1.000; stroke:none;" />
 <path d="  M 20,25  L 20,24  L 19,24  L 19,25  Z  " style="fill:rgb(229, 123, 36); fill-opacity:1.000; stroke:none;" />
 <path d="  M 19,27  L 20,27  L 20,26  L 19,26  Z  " style="fill:rgb(229, 123, 36); fill-opacity:1.000; stroke:none;" />
 <path d="  M 20,29  L 19,29  L 19,30  L 20,30  Z  " style="fill:rgb(229, 123, 36); fill-opacity:1.000; stroke:none;" />
 <path d="  M 21,39  L 19,39  L 19,40  L 21,40  Z  " style="fill:rgb(229, 123, 36); fill-opacity:1.000; stroke:none;" />
 <path d="  M 20,47  L 21,47  L 21,45  L 20,45  L 20,46  L 19,46  L 19,48  L 20,48  Z  " style="fill:rgb(229, 123, 36); fill-opacity:1.000; stroke:none;" />
 <path d="  M 21,10  L 20,10  L 20,12  L 21,12  Z  " style="fill:rgb(229, 123, 36); fill-opacity:1.000; stroke:none;" />
 <path d="  M 20,33  L 21,33  L 21,32  L 20,32  Z  " style="fill:rgb(229, 123, 36); fill-opacity:1.000; stroke:none;" />
 <path d="  M 22,10  L 22,8  L 21,8  L 21,10  Z  " style="fill:rgb(229, 123, 36); fill-opacity:1.000; stroke:none;" />
 <path d="  M 21,12  L 21,14  L 22,14  L 22,12  Z  " style="fill:rgb(229, 123, 36); fill-opacity:1.000; stroke:none;" />
 <path d="  M 22,33  L 21,33  L 21,34  L 22,34  Z  " style="fill:rgb(229, 123, 36); fill-opacity:1.000; stroke:none;" />
 <path d="  M 23,35  L 21,35  L 21,36  L 22,36  L 22,37  L 23,37  Z  " style="fill:rgb(229, 123, 36); fill-opacity:1.000; stroke:none;" />
 <path d="  M 22,41  L 22,40  L 21,40  L 21,41  Z  " style="fill:rgb(229, 123, 36); fill-opacity:1.000; stroke:none;" />
 <path d="  M 21,48  L 21,49  L 22,49  L 22,48  Z  " style="fill:rgb(229, 123, 36); fill-opacity:1.000; stroke:none;" />
 <path d="  M 23,7  L 22,7  L 22,8  L 23,8  Z  " style="fill:rgb(229, 123, 36); fill-opacity:1.000; stroke:none;" />
 <path d="  M 22,10  L 22,11  L 23,11  L 23,10  Z  " style="fill:rgb(229, 123, 36); fill-opacity:1.000; stroke:none;" />
 <path d="  M 23,22  L 23,21  L 22,21  L 22,22  Z  " style="fill:rgb(229, 123, 36); fill-opacity:1.000; stroke:none;" />
 <path d="  M 23,29  L 24,29  L 24,28  L 22,28  L 22,30  L 23,30  Z  " style="fill:rgb(229, 123, 36); fill-opacity:1.000; stroke:none;" />
 <path d="  M 22,33  L 23,33  L 23,32  L 24,32  L 24,30  L 23,30  L 23,31  L 22,31  Z  " style="fill:rgb(229, 123, 36); fill-opacity:1.000; stroke:none;" />
 <path d="  M 23,41  L 22,41  L 22,42  L 23,42  Z  " style="fill:rgb(229, 123, 36); fill-opacity:1.000; stroke:none;" />
 <path d="  M 23,47  L 23,46  L 22,46  L 22,47  Z  " style="fill:rgb(229, 123, 36); fill-opacity:1.000; stroke:none;" />
 <path d="  M 23,6  L 23,7  L 32,7  L 32,6  Z  " style="fill:rgb(229, 123, 36); fill-opacity:1.000; stroke:none;" />
 <path d="  M 24,33  L 23,33  L 23,34  L 24,34  L 24,35  L 25,35  L 25,32  L 24,32  Z  " style="fill:rgb(229, 123, 36); fill-opacity:1.000; stroke:none;" />
 <path d="  M 25,37  L 23,37  L 23,38  L 24,38  L 24,39  L 25,39  Z  " style="fill:rgb(229, 123, 36); fill-opacity:1.000; stroke:none;" />
 <path d="  M 24,41  L 24,40  L 23,40  L 23,41  Z  " style="fill:rgb(229, 123, 36); fill-opacity:1.000; stroke:none;" />
 <path d="  M 23,44  L 24,44  L 24,42  L 23,42  Z  " style="fill:rgb(229, 123, 36); fill-opacity:1.000; stroke:none;" />
 <path d="  M 24,46  L 24,45  L 23,45  L 23,46  Z  " style="fill:rgb(229, 123, 36); fill-opacity:1.000; stroke:none;" />
 <path d="  M 26,9  L 26,8  L 24,8  L 24,9  Z  " style="fill:rgb(229, 123, 36); fill-opacity:1.000; stroke:none;" />
 <path d="  M 24,14  L 25,14  L 25,13  L 26,13  L 26,11  L 25,11  L 25,12  L 24,12  Z  " style="fill:rgb(229, 123, 36); fill-opacity:1.000; stroke:none;" />
 <path d="  M 25,29  L 26,29  L 26,27  L 28,27  L 28,28  L 29,28  L 29,27  L 30,27  L 30,26  L 27,26  L 27,25  L 26,25  L 26,26  L 25,26  L 25,27  L 24,27  L 24,28  L 25,28  Z  " style="fill:rgb(229, 123, 36); fill-opacity:1.000; stroke:none;" />
 <path d="  M 24,45  L 25,45  L 25,44  L 24,44  Z  " style="fill:rgb(229, 123, 36); fill-opacity:1.000; stroke:none;" />
 <path d="  M 24,52  L 25,52  L 25,51  L 24,51  Z  " style="fill:rgb(229, 123, 36); fill-opacity:1.000; stroke:none;" />
 <path d="  M 25,17  L 26,17  L 26,16  L 25,16  Z  " style="fill:rgb(229, 123, 36); fill-opacity:1.000; stroke:none;" />
 <path d="  M 25,30  L 25,31  L 27,31  L 27,29  L 26,29  L 26,30  Z  " style="fill:rgb(229, 123, 36); fill-opacity:1.000; stroke:none;" />
 <path d="  M 25,37  L 26,37  L 26,36  L 25,36  Z  " style="fill:rgb(229, 123, 36); fill-opacity:1.000; stroke:none;" />
 <path d="  M 25,40  L 26,40  L 26,39  L 25,39  Z  " style="fill:rgb(229, 123, 36); fill-opacity:1.000; stroke:none;" />
 <path d="  M 26,48  L 25,48  L 25,49  L 26,49  Z  " style="fill:rgb(229, 123, 36); fill-opacity:1.000; stroke:none;" />
 <path d="  M 26,50  L 25,50  L 25,51  L 26,51  Z  " style="fill:rgb(229, 123, 36); fill-opacity:1.000; stroke:none;" />
 <path d="  M 29,11  L 29,10  L 26,10  L 26,11  L 28,11  L 28,12  L 30,12  L 30,11  Z  " style="fill:rgb(229, 123, 36); fill-opacity:1.000; stroke:none;" />
 <path d="  M 27,15  L 26,15  L 26,16  L 27,16  Z  " style="fill:rgb(229, 123, 36); fill-opacity:1.000; stroke:none;" />
 <path d="  M 27,38  L 27,37  L 26,37  L 26,38  Z  " style="fill:rgb(229, 123, 36); fill-opacity:1.000; stroke:none;" />
 <path d="  M 26,40  L 26,41  L 27,41  L 27,42  L 29,42  L 29,41  L 28,41  L 28,40  Z  " style="fill:rgb(229, 123, 36); fill-opacity:1.000; stroke:none;" />
 <path d="  M 27,46  L 27,47  L 26,47  L 26,48  L 27,48  L 27,49  L 28,49  L 28,46  Z  " style="fill:rgb(229, 123, 36); fill-opacity:1.000; stroke:none;" />
 <path d="  M 26,49  L 26,50  L 27,50  L 27,49  Z  " style="fill:rgb(229, 123, 36); fill-opacity:1.000; stroke:none;" />
 <path d="  M 28,25  L 28,24  L 27,24  L 27,25  Z  " style="fill:rgb(229, 123, 36); fill-opacity:1.000; stroke:none;" />
 <path d="  M 27,29  L 28,29  L 28,28  L 27,28  Z  " style="fill:rgb(229, 123, 36); fill-opacity:1.000; stroke:none;" />
 <path d="  M 27,32  L 27,33  L 28,33  L 28,32  Z  " style="fill:rgb(229, 123, 36); fill-opacity:1.000; stroke:none;" />
 <path d="  M 28,39  L 28,38  L 27,38  L 27,39  Z  " style="fill:rgb(229, 123, 36); fill-opacity:1.000; stroke:none;" />
 <path d="  M 29,19  L 30,19  L 30,18  L 28,18  L 28,20  L 29,20  Z  " style="fill:rgb(229, 123, 36); fill-opacity:1.000; stroke:none;" />
 <path d="  M 28,23  L 28,24  L 29,24  L 29,23  Z  " style="fill:rgb(229, 123, 36); fill-opacity:1.000; stroke:none;" />
 <path d="  M 28,39  L 28,40  L 29,40  L 29,39  Z  " style="fill:rgb(229, 123, 36); fill-opacity:1.000; stroke:none;" />
 <path d="  M 30,44  L 31,44  L 31,43  L 28,43  L 28,44  L 29,44  L 29,45  L 30,45  Z  " style="fill:rgb(229, 123, 36); fill-opacity:1.000; stroke:none;" />
 <path d="  M 28,52  L 29,52  L 29,53  L 30,53  L 30,51  L 29,51  L 29,50  L 28,50  Z  " style="fill:rgb(229, 123, 36); fill-opacity:1.000; stroke:none;" />
 <path d="  M 29,30  L 30,30  L 30,29  L 29,29  Z  " style="fill:rgb(229, 123, 36); fill-opacity:1.000; stroke:none;" />
 <path d="  M 29,33  L 30,33  L 30,32  L 29,32  Z  " style="fill:rgb(229, 123, 36); fill-opacity:1.000; stroke:none;" />
 <path d="  M 29,37  L 30,37  L 30,36  L 31,36  L 31,35  L 30,35  L 30,34  L 29,34  Z  " style="fill:rgb(229, 123, 36); fill-opacity:1.000; stroke:none;" />
 <path d="  M 29,40  L 29,41  L 30,41  L 30,40  Z  " style="fill:rgb(229, 123, 36); fill-opacity:1.000; stroke:none;" />
 <path d="  M 30,49  L 30,48  L 29,48  L 29,49  Z  " style="fill:rgb(229, 123, 36); fill-opacity:1.000; stroke:none;" />
 <path d="  M 31,13  L 31,12  L 30,12  L 30,13  Z  " style="fill:rgb(229, 123, 36); fill-opacity:1.000; stroke:none;" />
 <path d="  M 30,17  L 30,18  L 31,18  L 31,17  Z  " style="fill:rgb(229, 123, 36); fill-opacity:1.000; stroke:none;" />
 <path d="  M 31,25  L 30,25  L 30,26  L 35,26  L 35,25  L 32,25  L 32,24  L 31,24  Z  " style="fill:rgb(229, 123, 36); fill-opacity:1.000; stroke:none;" />
 <path d="  M 31,38  L 31,37  L 30,37  L 30,38  Z  " style="fill:rgb(229, 123, 36); fill-opacity:1.000; stroke:none;" />
 <path d="  M 30,53  L 30,54  L 31,54  L 31,53  Z  " style="fill:rgb(229, 123, 36); fill-opacity:1.000; stroke:none;" />
 <path d="  M 31,8  L 31,9  L 32,9  L 32,8  Z  " style="fill:rgb(229, 123, 36); fill-opacity:1.000; stroke:none;" />
 <path d="  M 31,17  L 32,17  L 32,16  L 31,16  Z  " style="fill:rgb(229, 123, 36); fill-opacity:1.000; stroke:none;" />
 <path d="  M 31,30  L 32,30  L 32,29  L 31,29  Z  " style="fill:rgb(229, 123, 36); fill-opacity:1.000; stroke:none;" />
 <path d="  M 33,42  L 31,42  L 31,43  L 33,43  Z  " style="fill:rgb(229, 123, 36); fill-opacity:1.000; stroke:none;" />
 <path d="  M 32,50  L 32,49  L 31,49  L 31,50  Z  " style="fill:rgb(229, 123, 36); fill-opacity:1.000; stroke:none;" />
 <path d="  M 31,54  L 31,55  L 32,55  L 32,54  Z  " style="fill:rgb(229, 123, 36); fill-opacity:1.000; stroke:none;" />
 <path d="  M 33,7  L 32,7  L 32,8  L 33,8  Z  " style="fill:rgb(229, 123, 36); fill-opacity:1.000; stroke:none;" />
 <path d="  M 33,9  L 32,9  L 32,10  L 34,10  L 34,8  L 33,8  Z  " style="fill:rgb(229, 123, 36); fill-opacity:1.000; stroke:none;" />
 <path d="  M 35,24  L 35,25  L 36,25  L 36,26  L 37,26  L 37,24  L 36,24  L 36,23  L 35,23  L 35,21  L 34,21  L 34,22  L 33,22  L 33,21  L 32,21  L 32,24  L 33,24  L 33,23  L 34,23  L 34,24  Z  " style="fill:rgb(229, 123, 36); fill-opacity:1.000; stroke:none;" />
 <path d="  M 33,27  L 32,27  L 32,29  L 34,29  L 34,28  L 33,28  Z  " style="fill:rgb(229, 123, 36); fill-opacity:1.000; stroke:none;" />
 <path d="  M 33,33  L 32,33  L 32,35  L 33,35  L 33,36  L 34,36  L 34,34  L 33,34  Z  " style="fill:rgb(229, 123, 36); fill-opacity:1.000; stroke:none;" />
 <path d="  M 34,50  L 32,50  L 32,51  L 33,51  L 33,52  L 34,52  Z  " style="fill:rgb(229, 123, 36); fill-opacity:1.000; stroke:none;" />
 <path d="  M 34,55  L 32,55  L 32,56  L 34,56  Z  " style="fill:rgb(229, 123, 36); fill-opacity:1.000; stroke:none;" />
 <path d="  M 34,20  L 33,20  L 33,21  L 34,21  Z  " style="fill:rgb(229, 123, 36); fill-opacity:1.000; stroke:none;" />
 <path d="  M 34,41  L 34,40  L 33,40  L 33,41  Z  " style="fill:rgb(229, 123, 36); fill-opacity:1.000; stroke:none;" />
 <path d="  M 35,43  L 33,43  L 33,44  L 35,44  Z  " style="fill:rgb(229, 123, 36); fill-opacity:1.000; stroke:none;" />
 <path d="  M 33,54  L 34,54  L 34,53  L 33,53  Z  " style="fill:rgb(229, 123, 36); fill-opacity:1.000; stroke:none;" />
 <path d="  M 36,10  L 35,10  L 35,11  L 34,11  L 34,12  L 36,12  Z  " style="fill:rgb(229, 123, 36); fill-opacity:1.000; stroke:none;" />
 <path d="  M 36,19  L 36,18  L 34,18  L 34,20  L 35,20  L 35,19  Z  " style="fill:rgb(229, 123, 36); fill-opacity:1.000; stroke:none;" />
 <path d="  M 36,34  L 37,34  L 37,32  L 36,32  L 36,33  L 34,33  L 34,34  L 35,34  L 35,35  L 36,35  Z  " style="fill:rgb(229, 123, 36); fill-opacity:1.000; stroke:none;" />
 <path d="  M 34,40  L 35,40  L 35,39  L 34,39  Z  " style="fill:rgb(229, 123, 36); fill-opacity:1.000; stroke:none;" />
 <path d="  M 34,47  L 34,48  L 35,48  L 35,47  Z  " style="fill:rgb(229, 123, 36); fill-opacity:1.000; stroke:none;" />
 <path d="  M 34,49  L 34,50  L 35,50  L 35,49  Z  " style="fill:rgb(229, 123, 36); fill-opacity:1.000; stroke:none;" />
 <path d="  M 35,51  L 35,52  L 34,52  L 34,53  L 36,53  L 36,51  Z  " style="fill:rgb(229, 123, 36); fill-opacity:1.000; stroke:none;" />
 <path d="  M 35,56  L 34,56  L 34,57  L 35,57  Z  " style="fill:rgb(229, 123, 36); fill-opacity:1.000; stroke:none;" />
 <path d="  M 35,16  L 35,17  L 36,17  L 36,16  Z  " style="fill:rgb(229, 123, 36); fill-opacity:1.000; stroke:none;" />
 <path d="  M 36,29  L 36,28  L 35,28  L 35,29  Z  " style="fill:rgb(229, 123, 36); fill-opacity:1.000; stroke:none;" />
 <path d="  M 35,32  L 36,32  L 36,31  L 35,31  Z  " style="fill:rgb(229, 123, 36); fill-opacity:1.000; stroke:none;" />
 <path d="  M 35,41  L 36,41  L 36,40  L 35,40  Z  " style="fill:rgb(229, 123, 36); fill-opacity:1.000; stroke:none;" />
 <path d="  M 35,47  L 37,47  L 37,46  L 35,46  Z  " style="fill:rgb(229, 123, 36); fill-opacity:1.000; stroke:none;" />
 <path d="  M 37,13  L 37,12  L 36,12  L 36,13  Z  " style="fill:rgb(229, 123, 36); fill-opacity:1.000; stroke:none;" />
 <path d="  M 37,16  L 37,14  L 36,14  L 36,16  Z  " style="fill:rgb(229, 123, 36); fill-opacity:1.000; stroke:none;" />
 <path d="  M 36,20  L 37,20  L 37,19  L 36,19  Z  " style="fill:rgb(229, 123, 36); fill-opacity:1.000; stroke:none;" />
 <path d="  M 36,21  L 36,22  L 37,22  L 37,21  Z  " style="fill:rgb(229, 123, 36); fill-opacity:1.000; stroke:none;" />
 <path d="  M 37,30  L 37,29  L 36,29  L 36,30  Z  " style="fill:rgb(229, 123, 36); fill-opacity:1.000; stroke:none;" />
 <path d="  M 36,42  L 36,43  L 37,43  L 37,42  Z  " style="fill:rgb(229, 123, 36); fill-opacity:1.000; stroke:none;" />
 <path d="  M 37,50  L 37,49  L 36,49  L 36,50  Z  " style="fill:rgb(229, 123, 36); fill-opacity:1.000; stroke:none;" />
 <path d="  M 37,55  L 37,54  L 36,54  L 36,55  Z  " style="fill:rgb(229, 123, 36); fill-opacity:1.000; stroke:none;" />
 <path d="  M 36,56  L 36,57  L 37,57  L 37,56  Z  " style="fill:rgb(229, 123, 36); fill-opacity:1.000; stroke:none;" />
 <path d="  M 38,14  L 38,13  L 37,13  L 37,14  Z  " style="fill:rgb(229, 123, 36); fill-opacity:1.000; stroke:none;" />
 <path d="  M 38,16  L 37,16  L 37,17  L 38,17  Z  " style="fill:rgb(229, 123, 36); fill-opacity:1.000; stroke:none;" />
 <path d="  M 37,26  L 37,27  L 38,27  L 38,28  L 40,28  L 40,27  L 39,27  L 39,26  Z  " style="fill:rgb(229, 123, 36); fill-opacity:1.000; stroke:none;" />
 <path d="  M 37,40  L 39,40  L 39,38  L 38,38  L 38,39  L 37,39  Z  " style="fill:rgb(229, 123, 36); fill-opacity:1.000; stroke:none;" />
 <path d="  M 38,14  L 38,16  L 39,16  L 39,15  L 40,15  L 40,14  Z  " style="fill:rgb(229, 123, 36); fill-opacity:1.000; stroke:none;" />
 <path d="  M 38,35  L 38,36  L 39,36  L 39,35  Z  " style="fill:rgb(229, 123, 36); fill-opacity:1.000; stroke:none;" />
 <path d="  M 39,43  L 39,42  L 38,42  L 38,43  Z  " style="fill:rgb(229, 123, 36); fill-opacity:1.000; stroke:none;" />
 <path d="  M 39,48  L 39,47  L 38,47  L 38,48  Z  " style="fill:rgb(229, 123, 36); fill-opacity:1.000; stroke:none;" />
 <path d="  M 41,18  L 39,18  L 39,19  L 41,19  Z  " style="fill:rgb(229, 123, 36); fill-opacity:1.000; stroke:none;" />
 <path d="  M 40,22  L 39,22  L 39,24  L 41,24  L 41,23  L 40,23  Z  " style="fill:rgb(229, 123, 36); fill-opacity:1.000; stroke:none;" />
 <path d="  M 39,31  L 40,31  L 40,30  L 39,30  Z  " style="fill:rgb(229, 123, 36); fill-opacity:1.000; stroke:none;" />
 <path d="  M 40,32  L 39,32  L 39,33  L 40,33  Z  " style="fill:rgb(229, 123, 36); fill-opacity:1.000; stroke:none;" />
 <path d="  M 41,36  L 41,35  L 40,35  L 40,36  L 39,36  L 39,37  L 40,37  L 40,38  L 41,38  L 41,37  L 42,37  L 42,36  Z  " style="fill:rgb(229, 123, 36); fill-opacity:1.000; stroke:none;" />
 <path d="  M 41,41  L 41,40  L 39,40  L 39,41  Z  " style="fill:rgb(229, 123, 36); fill-opacity:1.000; stroke:none;" />
 <path d="  M 40,44  L 40,43  L 39,43  L 39,44  Z  " style="fill:rgb(229, 123, 36); fill-opacity:1.000; stroke:none;" />
 <path d="  M 40,48  L 39,48  L 39,51  L 40,51  Z  " style="fill:rgb(229, 123, 36); fill-opacity:1.000; stroke:none;" />
 <path d="  M 42,14  L 42,13  L 40,13  L 40,14  Z  " style="fill:rgb(229, 123, 36); fill-opacity:1.000; stroke:none;" />
 <path d="  M 40,21  L 40,22  L 41,22  L 41,21  Z  " style="fill:rgb(229, 123, 36); fill-opacity:1.000; stroke:none;" />
 <path d="  M 40,30  L 41,30  L 41,31  L 42,31  L 42,30  L 43,30  L 43,31  L 45,31  L 45,30  L 44,30  L 44,29  L 40,29  Z  " style="fill:rgb(229, 123, 36); fill-opacity:1.000; stroke:none;" />
 <path d="  M 40,31  L 40,32  L 41,32  L 41,31  Z  " style="fill:rgb(229, 123, 36); fill-opacity:1.000; stroke:none;" />
 <path d="  M 42,35  L 42,34  L 44,34  L 44,32  L 42,32  L 42,33  L 40,33  L 40,34  L 41,34  L 41,35  Z  " style="fill:rgb(229, 123, 36); fill-opacity:1.000; stroke:none;" />
 <path d="  M 41,42  L 40,42  L 40,43  L 41,43  Z  " style="fill:rgb(229, 123, 36); fill-opacity:1.000; stroke:none;" />
 <path d="  M 42,45  L 42,44  L 40,44  L 40,45  L 41,45  L 41,46  L 42,46  L 42,47  L 43,47  L 43,45  Z  " style="fill:rgb(229, 123, 36); fill-opacity:1.000; stroke:none;" />
 <path d="  M 40,52  L 41,52  L 41,51  L 40,51  Z  " style="fill:rgb(229, 123, 36); fill-opacity:1.000; stroke:none;" />
 <path d="  M 43,19  L 41,19  L 41,21  L 42,21  L 42,20  L 43,20  Z  " style="fill:rgb(229, 123, 36); fill-opacity:1.000; stroke:none;" />
 <path d="  M 43,23  L 42,23  L 42,24  L 41,24  L 41,26  L 42,26  L 42,25  L 43,25  Z  " style="fill:rgb(229, 123, 36); fill-opacity:1.000; stroke:none;" />
 <path d="  M 41,51  L 42,51  L 42,49  L 41,49  Z  " style="fill:rgb(229, 123, 36); fill-opacity:1.000; stroke:none;" />
 <path d="  M 41,52  L 41,54  L 42,54  L 42,52  Z  " style="fill:rgb(229, 123, 36); fill-opacity:1.000; stroke:none;" />
 <path d="  M 42,12  L 42,13  L 46,13  L 46,12  Z  " style="fill:rgb(229, 123, 36); fill-opacity:1.000; stroke:none;" />
 <path d="  M 43,51  L 42,51  L 42,52  L 43,52  Z  " style="fill:rgb(229, 123, 36); fill-opacity:1.000; stroke:none;" />
 <path d="  M 44,18  L 43,18  L 43,19  L 44,19  Z  " style="fill:rgb(229, 123, 36); fill-opacity:1.000; stroke:none;" />
 <path d="  M 43,25  L 43,26  L 44,26  L 44,25  Z  " style="fill:rgb(229, 123, 36); fill-opacity:1.000; stroke:none;" />
 <path d="  M 44,41  L 45,41  L 45,38  L 44,38  L 44,39  L 43,39  L 43,40  L 44,40  Z  " style="fill:rgb(229, 123, 36); fill-opacity:1.000; stroke:none;" />
 <path d="  M 46,48  L 46,47  L 44,47  L 44,48  L 43,48  L 43,50  L 44,50  L 44,49  L 45,49  L 45,48  Z  " style="fill:rgb(229, 123, 36); fill-opacity:1.000; stroke:none;" />
 <path d="  M 44,20  L 44,22  L 46,22  L 46,21  L 45,21  L 45,20  Z  " style="fill:rgb(229, 123, 36); fill-opacity:1.000; stroke:none;" />
 <path d="  M 45,24  L 45,23  L 44,23  L 44,24  Z  " style="fill:rgb(229, 123, 36); fill-opacity:1.000; stroke:none;" />
 <path d="  M 44,43  L 45,43  L 45,42  L 44,42  Z  " style="fill:rgb(229, 123, 36); fill-opacity:1.000; stroke:none;" />
 <path d="  M 45,16  L 45,17  L 46,17  L 46,16  Z  " style="fill:rgb(229, 123, 36); fill-opacity:1.000; stroke:none;" />
 <path d="  M 46,31  L 45,31  L 45,32  L 46,32  Z  " style="fill:rgb(229, 123, 36); fill-opacity:1.000; stroke:none;" />
 <path d="  M 46,38  L 46,37  L 45,37  L 45,38  Z  " style="fill:rgb(229, 123, 36); fill-opacity:1.000; stroke:none;" />
 <path d="  M 50,14  L 49,14  L 49,13  L 46,13  L 46,14  L 48,14  L 48,15  L 49,15  L 49,16  L 50,16  Z  " style="fill:rgb(229, 123, 36); fill-opacity:1.000; stroke:none;" />
 <path d="  M 46,19  L 47,19  L 47,18  L 48,18  L 48,17  L 46,17  Z  " style="fill:rgb(229, 123, 36); fill-opacity:1.000; stroke:none;" />
 <path d="  M 47,22  L 46,22  L 46,23  L 47,23  Z  " style="fill:rgb(229, 123, 36); fill-opacity:1.000; stroke:none;" />
 <path d="  M 47,29  L 47,28  L 46,28  L 46,29  Z  " style="fill:rgb(229, 123, 36); fill-opacity:1.000; stroke:none;" />
 <path d="  M 46,31  L 47,31  L 47,30  L 46,30  Z  " style="fill:rgb(229, 123, 36); fill-opacity:1.000; stroke:none;" />
 <path d="  M 48,39  L 48,38  L 46,38  L 46,39  Z  " style="fill:rgb(229, 123, 36); fill-opacity:1.000; stroke:none;" />
 <path d="  M 46,40  L 46,41  L 47,41  L 47,40  Z  " style="fill:rgb(229, 123, 36); fill-opacity:1.000; stroke:none;" />
 <path d="  M 47,21  L 47,22  L 48,22  L 48,21  Z  " style="fill:rgb(229, 123, 36); fill-opacity:1.000; stroke:none;" />
 <path d="  M 47,31  L 47,32  L 48,32  L 48,31  Z  " style="fill:rgb(229, 123, 36); fill-opacity:1.000; stroke:none;" />
 <path d="  M 47,34  L 47,35  L 48,35  L 48,34  Z  " style="fill:rgb(229, 123, 36); fill-opacity:1.000; stroke:none;" />
 <path d="  M 47,36  L 47,37  L 48,37  L 48,36  Z  " style="fill:rgb(229, 123, 36); fill-opacity:1.000; stroke:none;" />
 <path d="  M 48,43  L 48,42  L 47,42  L 47,43  Z  " style="fill:rgb(229, 123, 36); fill-opacity:1.000; stroke:none;" />
 <path d="  M 49,20  L 49,19  L 48,19  L 48,20  Z  " style="fill:rgb(229, 123, 36); fill-opacity:1.000; stroke:none;" />
 <path d="  M 48,30  L 49,30  L 49,31  L 50,31  L 50,28  L 49,28  L 49,29  L 48,29  Z  " style="fill:rgb(229, 123, 36); fill-opacity:1.000; stroke:none;" />
 <path d="  M 48,37  L 48,38  L 49,38  L 49,37  Z  " style="fill:rgb(229, 123, 36); fill-opacity:1.000; stroke:none;" />
 <path d="  M 48,42  L 49,42  L 49,41  L 48,41  Z  " style="fill:rgb(229, 123, 36); fill-opacity:1.000; stroke:none;" />
 <path d="  M 50,27  L 50,26  L 49,26  L 49,27  Z  " style="fill:rgb(229, 123, 36); fill-opacity:1.000; stroke:none;" />
 <path d="  M 49,35  L 50,35  L 50,34  L 49,34  Z  " style="fill:rgb(229, 123, 36); fill-opacity:1.000; stroke:none;" />
 <path d="  M 50,36  L 49,36  L 49,37  L 50,37  Z  " style="fill:rgb(229, 123, 36); fill-opacity:1.000; stroke:none;" />
 <path d="  M 51,41  L 51,39  L 49,39  L 49,40  L 50,40  L 50,41  Z  " style="fill:rgb(229, 123, 36); fill-opacity:1.000; stroke:none;" />
 <path d="  M 49,46  L 50,46  L 50,42  L 49,42  Z  " style="fill:rgb(229, 123, 36); fill-opacity:1.000; stroke:none;" />
 <path d="  M 51,16  L 50,16  L 50,17  L 51,17  Z  " style="fill:rgb(229, 123, 36); fill-opacity:1.000; stroke:none;" />
 <path d="  M 52,18  L 51,18  L 51,23  L 50,23  L 50,26  L 51,26  L 51,24  L 52,24  Z  " style="fill:rgb(229, 123, 36); fill-opacity:1.000; stroke:none;" />
 <path d="  M 50,31  L 50,33  L 52,33  L 52,32  L 51,32  L 51,31  Z  " style="fill:rgb(229, 123, 36); fill-opacity:1.000; stroke:none;" />
 <path d="  M 51,36  L 51,35  L 50,35  L 50,36  Z  " style="fill:rgb(229, 123, 36); fill-opacity:1.000; stroke:none;" />
 <path d="  M 52,39  L 52,37  L 51,37  L 51,39  Z  " style="fill:rgb(229, 123, 36); fill-opacity:1.000; stroke:none;" />
 <path d="  M 54,36  L 54,34  L 53,34  L 53,33  L 52,33  L 52,35  L 53,35  L 53,36  Z  " style="fill:rgb(229, 123, 36); fill-opacity:1.000; stroke:none;" />
 <path d="  M 53,40  L 53,41  L 54,41  L 54,40  Z  " style="fill:rgb(229, 123, 36); fill-opacity:1.000; stroke:none;" />
 <path d="  M 54,37  L 55,37  L 55,36  L 54,36  Z  " style="fill:rgb(229, 123, 36); fill-opacity:1.000; stroke:none;" />
 <path d="  M 55,38  L 54,38  L 54,40  L 55,40  Z  " style="fill:rgb(229, 123, 36); fill-opacity:1.000; stroke:none;" />
 <path d="  M 8,26  L 9,26  L 9,24  L 8,24  Z  " style="fill:rgb(234, 142, 22); fill-opacity:1.000; stroke:none;" />
 <path d="  M 9,23  L 10,23  L 10,22  L 9,22  Z  " style="fill:rgb(234, 142, 22); fill-opacity:1.000; stroke:none;" />
 <path d="  M 10,30  L 9,30  L 9,31  L 10,31  Z  " style="fill:rgb(234, 142, 22); fill-opacity:1.000; stroke:none;" />
 <path d="  M 11,22  L 11,21  L 10,21  L 10,22  Z  " style="fill:rgb(234, 142, 22); fill-opacity:1.000; stroke:none;" />
 <path d="  M 12,28  L 12,27  L 11,27  L 11,26  L 10,26  L 10,28  Z  " style="fill:rgb(234, 142, 22); fill-opacity:1.000; stroke:none;" />
 <path d="  M 11,21  L 12,21  L 12,20  L 14,20  L 14,19  L 11,19  Z  " style="fill:rgb(234, 142, 22); fill-opacity:1.000; stroke:none;" />
 <path d="  M 12,24  L 13,24  L 13,23  L 12,23  Z  " style="fill:rgb(234, 142, 22); fill-opacity:1.000; stroke:none;" />
 <path d="  M 14,28  L 12,28  L 12,29  L 13,29  L 13,30  L 14,30  L 14,31  L 15,31  L 15,29  L 14,29  Z  " style="fill:rgb(234, 142, 22); fill-opacity:1.000; stroke:none;" />
 <path d="  M 13,22  L 13,23  L 14,23  L 14,22  Z  " style="fill:rgb(234, 142, 22); fill-opacity:1.000; stroke:none;" />
 <path d="  M 14,25  L 13,25  L 13,27  L 14,27  Z  " style="fill:rgb(234, 142, 22); fill-opacity:1.000; stroke:none;" />
 <path d="  M 16,34  L 13,34  L 13,35  L 14,35  L 14,36  L 15,36  L 15,35  L 16,35  Z  " style="fill:rgb(234, 142, 22); fill-opacity:1.000; stroke:none;" />
 <path d="  M 14,48  L 14,47  L 13,47  L 13,48  Z  " style="fill:rgb(234, 142, 22); fill-opacity:1.000; stroke:none;" />
 <path d="  M 19,27  L 19,26  L 18,26  L 18,24  L 14,24  L 14,25  L 16,25  L 16,27  L 14,27  L 14,28  L 15,28  L 15,29  L 16,29  L 16,28  L 17,28  L 17,27  Z  " style="fill:rgb(234, 142, 22); fill-opacity:1.000; stroke:none;" />
 <path d="  M 16,39  L 16,38  L 17,38  L 17,37  L 16,37  L 16,36  L 15,36  L 15,37  L 14,37  L 14,38  L 15,38  L 15,39  Z  " style="fill:rgb(234, 142, 22); fill-opacity:1.000; stroke:none;" />
 <path d="  M 15,45  L 14,45  L 14,46  L 15,46  Z  " style="fill:rgb(234, 142, 22); fill-opacity:1.000; stroke:none;" />
 <path d="  M 15,49  L 14,49  L 14,50  L 15,50  Z  " style="fill:rgb(234, 142, 22); fill-opacity:1.000; stroke:none;" />
 <path d="  M 15,20  L 17,20  L 17,19  L 15,19  Z  " style="fill:rgb(234, 142, 22); fill-opacity:1.000; stroke:none;" />
 <path d="  M 16,43  L 16,41  L 15,41  L 15,43  Z  " style="fill:rgb(234, 142, 22); fill-opacity:1.000; stroke:none;" />
 <path d="  M 15,51  L 16,51  L 16,50  L 15,50  Z  " style="fill:rgb(234, 142, 22); fill-opacity:1.000; stroke:none;" />
 <path d="  M 16,29  L 16,30  L 17,30  L 17,29  Z  " style="fill:rgb(234, 142, 22); fill-opacity:1.000; stroke:none;" />
 <path d="  M 18,41  L 18,40  L 16,40  L 16,41  Z  " style="fill:rgb(234, 142, 22); fill-opacity:1.000; stroke:none;" />
 <path d="  M 19,46  L 20,46  L 20,45  L 21,45  L 21,48  L 23,48  L 23,47  L 22,47  L 22,46  L 23,46  L 23,45  L 24,45  L 24,44  L 23,44  L 23,42  L 22,42  L 22,43  L 20,43  L 20,44  L 19,44  L 19,43  L 17,43  L 17,44  L 16,44  L 16,47  L 18,47  L 18,48  L 19,48  Z  M 18,46  L 18,45  L 19,45  L 19,46  Z  " style="fill:rgb(234, 142, 22); fill-opacity:1.000; stroke:none;" />
 <path d="  M 17,18  L 17,19  L 19,19  L 19,17  L 18,17  L 18,18  Z  " style="fill:rgb(234, 142, 22); fill-opacity:1.000; stroke:none;" />
 <path d="  M 17,31  L 18,31  L 18,30  L 17,30  Z  " style="fill:rgb(234, 142, 22); fill-opacity:1.000; stroke:none;" />
 <path d="  M 19,33  L 19,34  L 17,34  L 17,35  L 19,35  L 19,36  L 20,36  L 20,35  L 21,35  L 21,33  Z  " style="fill:rgb(234, 142, 22); fill-opacity:1.000; stroke:none;" />
 <path d="  M 19,50  L 19,49  L 17,49  L 17,50  Z  " style="fill:rgb(234, 142, 22); fill-opacity:1.000; stroke:none;" />
 <path d="  M 18,39  L 18,40  L 19,40  L 19,39  Z  " style="fill:rgb(234, 142, 22); fill-opacity:1.000; stroke:none;" />
 <path d="  M 20,15  L 19,15  L 19,17  L 20,17  Z  " style="fill:rgb(234, 142, 22); fill-opacity:1.000; stroke:none;" />
 <path d="  M 21,18  L 20,18  L 20,19  L 19,19  L 19,20  L 21,20  Z  " style="fill:rgb(234, 142, 22); fill-opacity:1.000; stroke:none;" />
 <path d="  M 19,25  L 19,26  L 20,26  L 20,25  Z  " style="fill:rgb(234, 142, 22); fill-opacity:1.000; stroke:none;" />
 <path d="  M 20,27  L 19,27  L 19,29  L 20,29  Z  " style="fill:rgb(234, 142, 22); fill-opacity:1.000; stroke:none;" />
 <path d="  M 19,49  L 20,49  L 20,48  L 19,48  Z  " style="fill:rgb(234, 142, 22); fill-opacity:1.000; stroke:none;" />
 <path d="  M 20,15  L 21,15  L 21,12  L 20,12  Z  " style="fill:rgb(234, 142, 22); fill-opacity:1.000; stroke:none;" />
 <path d="  M 20,41  L 20,42  L 21,42  L 21,41  Z  " style="fill:rgb(234, 142, 22); fill-opacity:1.000; stroke:none;" />
 <path d="  M 21,12  L 22,12  L 22,10  L 21,10  Z  " style="fill:rgb(234, 142, 22); fill-opacity:1.000; stroke:none;" />
 <path d="  M 22,21  L 21,21  L 21,22  L 22,22  Z  " style="fill:rgb(234, 142, 22); fill-opacity:1.000; stroke:none;" />
 <path d="  M 21,33  L 22,33  L 22,31  L 21,31  Z  " style="fill:rgb(234, 142, 22); fill-opacity:1.000; stroke:none;" />
 <path d="  M 22,37  L 22,36  L 21,36  L 21,37  Z  " style="fill:rgb(234, 142, 22); fill-opacity:1.000; stroke:none;" />
 <path d="  M 22,39  L 21,39  L 21,40  L 22,40  Z  " style="fill:rgb(234, 142, 22); fill-opacity:1.000; stroke:none;" />
 <path d="  M 32,8  L 32,7  L 23,7  L 23,8  L 22,8  L 22,10  L 24,10  L 24,8  Z  " style="fill:rgb(234, 142, 22); fill-opacity:1.000; stroke:none;" />
 <path d="  M 23,30  L 22,30  L 22,31  L 23,31  Z  " style="fill:rgb(234, 142, 22); fill-opacity:1.000; stroke:none;" />
 <path d="  M 23,37  L 22,37  L 22,38  L 23,38  Z  " style="fill:rgb(234, 142, 22); fill-opacity:1.000; stroke:none;" />
 <path d="  M 24,15  L 23,15  L 23,18  L 24,18  Z  " style="fill:rgb(234, 142, 22); fill-opacity:1.000; stroke:none;" />
 <path d="  M 25,23  L 23,23  L 23,24  L 25,24  Z  " style="fill:rgb(234, 142, 22); fill-opacity:1.000; stroke:none;" />
 <path d="  M 24,28  L 24,27  L 25,27  L 25,26  L 26,26  L 26,25  L 24,25  L 24,26  L 23,26  L 23,28  Z  " style="fill:rgb(234, 142, 22); fill-opacity:1.000; stroke:none;" />
 <path d="  M 23,29  L 23,30  L 24,30  L 24,32  L 25,32  L 25,30  L 26,30  L 26,29  L 25,29  L 25,28  L 24,28  L 24,29  Z  " style="fill:rgb(234, 142, 22); fill-opacity:1.000; stroke:none;" />
 <path d="  M 24,36  L 23,36  L 23,37  L 24,37  Z  " style="fill:rgb(234, 142, 22); fill-opacity:1.000; stroke:none;" />
 <path d="  M 23,41  L 23,42  L 24,42  L 24,41  Z  " style="fill:rgb(234, 142, 22); fill-opacity:1.000; stroke:none;" />
 <path d="  M 24,36  L 26,36  L 26,34  L 25,34  L 25,35  L 24,35  Z  " style="fill:rgb(234, 142, 22); fill-opacity:1.000; stroke:none;" />
 <path d="  M 24,47  L 25,47  L 25,45  L 24,45  Z  " style="fill:rgb(234, 142, 22); fill-opacity:1.000; stroke:none;" />
 <path d="  M 32,12  L 31,12  L 31,13  L 30,13  L 30,12  L 28,12  L 28,11  L 26,11  L 26,14  L 25,14  L 25,16  L 26,16  L 26,15  L 28,15  L 28,16  L 29,16  L 29,14  L 30,14  L 30,15  L 31,15  L 31,16  L 33,16  L 33,13  L 32,13  Z  M 32,15  L 31,15  L 31,14  L 32,14  Z  " style="fill:rgb(234, 142, 22); fill-opacity:1.000; stroke:none;" />
 <path d="  M 26,18  L 26,17  L 25,17  L 25,18  Z  " style="fill:rgb(234, 142, 22); fill-opacity:1.000; stroke:none;" />
 <path d="  M 28,39  L 27,39  L 27,38  L 25,38  L 25,39  L 26,39  L 26,40  L 28,40  Z  " style="fill:rgb(234, 142, 22); fill-opacity:1.000; stroke:none;" />
 <path d="  M 25,50  L 26,50  L 26,49  L 25,49  Z  " style="fill:rgb(234, 142, 22); fill-opacity:1.000; stroke:none;" />
 <path d="  M 26,17  L 28,17  L 28,16  L 26,16  Z  " style="fill:rgb(234, 142, 22); fill-opacity:1.000; stroke:none;" />
 <path d="  M 26,25  L 27,25  L 27,24  L 26,24  Z  " style="fill:rgb(234, 142, 22); fill-opacity:1.000; stroke:none;" />
 <path d="  M 27,29  L 27,28  L 28,28  L 28,27  L 26,27  L 26,29  Z  " style="fill:rgb(234, 142, 22); fill-opacity:1.000; stroke:none;" />
 <path d="  M 26,42  L 27,42  L 27,41  L 26,41  Z  " style="fill:rgb(234, 142, 22); fill-opacity:1.000; stroke:none;" />
 <path d="  M 27,46  L 26,46  L 26,47  L 27,47  Z  " style="fill:rgb(234, 142, 22); fill-opacity:1.000; stroke:none;" />
 <path d="  M 28,51  L 28,50  L 29,50  L 29,49  L 27,49  L 27,50  L 26,50  L 26,51  Z  " style="fill:rgb(234, 142, 22); fill-opacity:1.000; stroke:none;" />
 <path d="  M 27,20  L 28,20  L 28,18  L 27,18  Z  " style="fill:rgb(234, 142, 22); fill-opacity:1.000; stroke:none;" />
 <path d="  M 28,25  L 27,25  L 27,26  L 30,26  L 30,25  L 31,25  L 31,24  L 28,24  Z  " style="fill:rgb(234, 142, 22); fill-opacity:1.000; stroke:none;" />
 <path d="  M 36,33  L 36,32  L 35,32  L 35,31  L 36,31  L 36,29  L 35,29  L 35,28  L 34,28  L 34,29  L 33,29  L 33,30  L 31,30  L 31,31  L 30,31  L 30,32  L 31,32  L 31,33  L 29,33  L 29,29  L 31,29  L 31,28  L 32,28  L 32,27  L 30,27  L 30,28  L 28,28  L 28,29  L 27,29  L 27,30  L 28,30  L 28,31  L 27,31  L 27,32  L 28,32  L 28,34  L 30,34  L 30,35  L 32,35  L 32,33  L 33,33  L 33,34  L 34,34  L 34,33  Z  " style="fill:rgb(234, 142, 22); fill-opacity:1.000; stroke:none;" />
 <path d="  M 30,48  L 30,47  L 31,47  L 31,46  L 32,46  L 32,45  L 34,45  L 34,44  L 33,44  L 33,43  L 32,43  L 32,44  L 31,44  L 31,45  L 29,45  L 29,44  L 28,44  L 28,42  L 27,42  L 27,46  L 28,46  L 28,48  Z  " style="fill:rgb(234, 142, 22); fill-opacity:1.000; stroke:none;" />
 <path d="  M 28,18  L 30,18  L 30,17  L 28,17  Z  " style="fill:rgb(234, 142, 22); fill-opacity:1.000; stroke:none;" />
 <path d="  M 29,36  L 29,35  L 28,35  L 28,36  Z  " style="fill:rgb(234, 142, 22); fill-opacity:1.000; stroke:none;" />
 <path d="  M 29,41  L 29,40  L 28,40  L 28,41  Z  " style="fill:rgb(234, 142, 22); fill-opacity:1.000; stroke:none;" />
 <path d="  M 29,11  L 30,11  L 30,10  L 29,10  Z  " style="fill:rgb(234, 142, 22); fill-opacity:1.000; stroke:none;" />
 <path d="  M 29,19  L 29,20  L 30,20  L 30,19  Z  " style="fill:rgb(234, 142, 22); fill-opacity:1.000; stroke:none;" />
 <path d="  M 29,37  L 29,38  L 30,38  L 30,37  Z  " style="fill:rgb(234, 142, 22); fill-opacity:1.000; stroke:none;" />
 <path d="  M 29,42  L 29,43  L 31,43  L 31,42  Z  " style="fill:rgb(234, 142, 22); fill-opacity:1.000; stroke:none;" />
 <path d="  M 30,51  L 30,50  L 29,50  L 29,51  Z  " style="fill:rgb(234, 142, 22); fill-opacity:1.000; stroke:none;" />
 <path d="  M 30,11  L 30,12  L 31,12  L 31,11  Z  " style="fill:rgb(234, 142, 22); fill-opacity:1.000; stroke:none;" />
 <path d="  M 31,16  L 30,16  L 30,17  L 31,17  Z  " style="fill:rgb(234, 142, 22); fill-opacity:1.000; stroke:none;" />
 <path d="  M 31,19  L 31,18  L 30,18  L 30,19  Z  " style="fill:rgb(234, 142, 22); fill-opacity:1.000; stroke:none;" />
 <path d="  M 31,18  L 32,18  L 32,17  L 31,17  Z  " style="fill:rgb(234, 142, 22); fill-opacity:1.000; stroke:none;" />
 <path d="  M 31,23  L 32,23  L 32,22  L 31,22  Z  " style="fill:rgb(234, 142, 22); fill-opacity:1.000; stroke:none;" />
 <path d="  M 33,42  L 33,41  L 31,41  L 31,42  Z  " style="fill:rgb(234, 142, 22); fill-opacity:1.000; stroke:none;" />
 <path d="  M 31,50  L 31,51  L 32,51  L 32,50  Z  " style="fill:rgb(234, 142, 22); fill-opacity:1.000; stroke:none;" />
 <path d="  M 32,9  L 33,9  L 33,8  L 32,8  Z  " style="fill:rgb(234, 142, 22); fill-opacity:1.000; stroke:none;" />
 <path d="  M 33,20  L 32,20  L 32,21  L 33,21  Z  " style="fill:rgb(234, 142, 22); fill-opacity:1.000; stroke:none;" />
 <path d="  M 35,25  L 35,24  L 34,24  L 34,23  L 33,23  L 33,24  L 32,24  L 32,25  Z  " style="fill:rgb(234, 142, 22); fill-opacity:1.000; stroke:none;" />
 <path d="  M 33,26  L 32,26  L 32,27  L 33,27  Z  " style="fill:rgb(234, 142, 22); fill-opacity:1.000; stroke:none;" />
 <path d="  M 32,37  L 33,37  L 33,35  L 32,35  Z  " style="fill:rgb(234, 142, 22); fill-opacity:1.000; stroke:none;" />
 <path d="  M 33,49  L 33,48  L 32,48  L 32,49  Z  " style="fill:rgb(234, 142, 22); fill-opacity:1.000; stroke:none;" />
 <path d="  M 34,52  L 33,52  L 33,51  L 32,51  L 32,53  L 34,53  Z  " style="fill:rgb(234, 142, 22); fill-opacity:1.000; stroke:none;" />
 <path d="  M 33,10  L 33,11  L 35,11  L 35,10  Z  " style="fill:rgb(234, 142, 22); fill-opacity:1.000; stroke:none;" />
 <path d="  M 33,19  L 33,20  L 34,20  L 34,19  Z  " style="fill:rgb(234, 142, 22); fill-opacity:1.000; stroke:none;" />
 <path d="  M 33,22  L 34,22  L 34,21  L 33,21  Z  " style="fill:rgb(234, 142, 22); fill-opacity:1.000; stroke:none;" />
 <path d="  M 34,27  L 33,27  L 33,28  L 34,28  Z  " style="fill:rgb(234, 142, 22); fill-opacity:1.000; stroke:none;" />
 <path d="  M 34,37  L 33,37  L 33,38  L 34,38  Z  " style="fill:rgb(234, 142, 22); fill-opacity:1.000; stroke:none;" />
 <path d="  M 34,43  L 34,42  L 33,42  L 33,43  Z  " style="fill:rgb(234, 142, 22); fill-opacity:1.000; stroke:none;" />
 <path d="  M 34,48  L 34,47  L 33,47  L 33,48  Z  " style="fill:rgb(234, 142, 22); fill-opacity:1.000; stroke:none;" />
 <path d="  M 35,16  L 34,16  L 34,18  L 35,18  Z  " style="fill:rgb(234, 142, 22); fill-opacity:1.000; stroke:none;" />
 <path d="  M 34,20  L 34,21  L 35,21  L 35,23  L 36,23  L 36,24  L 37,24  L 37,22  L 36,22  L 36,21  L 37,21  L 37,20  Z  " style="fill:rgb(234, 142, 22); fill-opacity:1.000; stroke:none;" />
 <path d="  M 34,40  L 34,41  L 35,41  L 35,40  Z  " style="fill:rgb(234, 142, 22); fill-opacity:1.000; stroke:none;" />
 <path d="  M 34,47  L 35,47  L 35,46  L 34,46  Z  " style="fill:rgb(234, 142, 22); fill-opacity:1.000; stroke:none;" />
 <path d="  M 34,50  L 34,52  L 35,52  L 35,51  L 37,51  L 37,50  Z  " style="fill:rgb(234, 142, 22); fill-opacity:1.000; stroke:none;" />
 <path d="  M 36,12  L 35,12  L 35,13  L 36,13  Z  " style="fill:rgb(234, 142, 22); fill-opacity:1.000; stroke:none;" />
 <path d="  M 35,25  L 35,26  L 36,26  L 36,25  Z  " style="fill:rgb(234, 142, 22); fill-opacity:1.000; stroke:none;" />
 <path d="  M 36,35  L 35,35  L 35,36  L 36,36  Z  " style="fill:rgb(234, 142, 22); fill-opacity:1.000; stroke:none;" />
 <path d="  M 39,44  L 39,43  L 40,43  L 40,42  L 41,42  L 41,41  L 39,41  L 39,40  L 38,40  L 38,41  L 37,41  L 37,43  L 36,43  L 36,42  L 35,42  L 35,44  Z  M 39,43  L 38,43  L 38,42  L 39,42  Z  " style="fill:rgb(234, 142, 22); fill-opacity:1.000; stroke:none;" />
 <path d="  M 37,53  L 35,53  L 35,54  L 37,54  Z  " style="fill:rgb(234, 142, 22); fill-opacity:1.000; stroke:none;" />
 <path d="  M 37,13  L 36,13  L 36,14  L 37,14  Z  " style="fill:rgb(234, 142, 22); fill-opacity:1.000; stroke:none;" />
 <path d="  M 37,16  L 36,16  L 36,17  L 37,17  Z  " style="fill:rgb(234, 142, 22); fill-opacity:1.000; stroke:none;" />
 <path d="  M 36,27  L 37,27  L 37,26  L 36,26  Z  " style="fill:rgb(234, 142, 22); fill-opacity:1.000; stroke:none;" />
 <path d="  M 37,31  L 36,31  L 36,32  L 37,32  Z  " style="fill:rgb(234, 142, 22); fill-opacity:1.000; stroke:none;" />
 <path d="  M 37,35  L 37,34  L 36,34  L 36,35  Z  " style="fill:rgb(234, 142, 22); fill-opacity:1.000; stroke:none;" />
 <path d="  M 36,40  L 37,40  L 37,39  L 38,39  L 38,38  L 40,38  L 40,37  L 39,37  L 39,36  L 38,36  L 38,37  L 37,37  L 37,38  L 36,38  Z  " style="fill:rgb(234, 142, 22); fill-opacity:1.000; stroke:none;" />
 <path d="  M 37,47  L 36,47  L 36,48  L 37,48  Z  " style="fill:rgb(234, 142, 22); fill-opacity:1.000; stroke:none;" />
 <path d="  M 38,15  L 38,14  L 37,14  L 37,15  Z  " style="fill:rgb(234, 142, 22); fill-opacity:1.000; stroke:none;" />
 <path d="  M 37,17  L 37,18  L 38,18  L 38,17  Z  " style="fill:rgb(234, 142, 22); fill-opacity:1.000; stroke:none;" />
 <path d="  M 38,25  L 38,24  L 37,24  L 37,26  L 39,26  L 39,25  Z  " style="fill:rgb(234, 142, 22); fill-opacity:1.000; stroke:none;" />
 <path d="  M 37,28  L 38,28  L 38,27  L 37,27  Z  " style="fill:rgb(234, 142, 22); fill-opacity:1.000; stroke:none;" />
 <path d="  M 38,16  L 38,17  L 39,17  L 39,16  Z  " style="fill:rgb(234, 142, 22); fill-opacity:1.000; stroke:none;" />
 <path d="  M 40,29  L 41,29  L 41,27  L 40,27  L 40,28  L 38,28  L 38,29  L 39,29  L 39,30  L 40,30  Z  " style="fill:rgb(234, 142, 22); fill-opacity:1.000; stroke:none;" />
 <path d="  M 38,50  L 39,50  L 39,48  L 38,48  Z  " style="fill:rgb(234, 142, 22); fill-opacity:1.000; stroke:none;" />
 <path d="  M 40,15  L 39,15  L 39,16  L 40,16  Z  " style="fill:rgb(234, 142, 22); fill-opacity:1.000; stroke:none;" />
 <path d="  M 39,19  L 39,20  L 40,20  L 40,19  Z  " style="fill:rgb(234, 142, 22); fill-opacity:1.000; stroke:none;" />
 <path d="  M 39,26  L 39,27  L 40,27  L 40,26  Z  " style="fill:rgb(234, 142, 22); fill-opacity:1.000; stroke:none;" />
 <path d="  M 39,31  L 39,32  L 40,32  L 40,31  Z  " style="fill:rgb(234, 142, 22); fill-opacity:1.000; stroke:none;" />
 <path d="  M 39,36  L 40,36  L 40,35  L 41,35  L 41,34  L 40,34  L 40,33  L 39,33  Z  " style="fill:rgb(234, 142, 22); fill-opacity:1.000; stroke:none;" />
 <path d="  M 39,39  L 39,40  L 41,40  L 41,38  L 40,38  L 40,39  Z  " style="fill:rgb(234, 142, 22); fill-opacity:1.000; stroke:none;" />
 <path d="  M 40,45  L 40,44  L 39,44  L 39,45  Z  " style="fill:rgb(234, 142, 22); fill-opacity:1.000; stroke:none;" />
 <path d="  M 42,15  L 42,14  L 40,14  L 40,15  Z  " style="fill:rgb(234, 142, 22); fill-opacity:1.000; stroke:none;" />
 <path d="  M 46,19  L 46,18  L 45,18  L 45,19  L 43,19  L 43,20  L 42,20  L 42,21  L 41,21  L 41,22  L 40,22  L 40,23  L 41,23  L 41,24  L 42,24  L 42,23  L 43,23  L 43,25  L 44,25  L 44,23  L 45,23  L 45,22  L 44,22  L 44,20  L 45,20  L 45,21  L 46,21  L 46,22  L 47,22  L 47,21  L 48,21  L 48,22  L 49,22  L 49,20  L 48,20  L 48,18  L 47,18  L 47,19  Z  " style="fill:rgb(234, 142, 22); fill-opacity:1.000; stroke:none;" />
 <path d="  M 40,24  L 40,25  L 41,25  L 41,24  Z  " style="fill:rgb(234, 142, 22); fill-opacity:1.000; stroke:none;" />
 <path d="  M 41,31  L 41,30  L 40,30  L 40,31  Z  " style="fill:rgb(234, 142, 22); fill-opacity:1.000; stroke:none;" />
 <path d="  M 42,31  L 41,31  L 41,32  L 40,32  L 40,33  L 42,33  L 42,32  L 44,32  L 44,33  L 45,33  L 45,31  L 43,31  L 43,30  L 42,30  Z  " style="fill:rgb(234, 142, 22); fill-opacity:1.000; stroke:none;" />
 <path d="  M 40,43  L 40,44  L 42,44  L 42,43  Z  " style="fill:rgb(234, 142, 22); fill-opacity:1.000; stroke:none;" />
 <path d="  M 41,46  L 41,45  L 40,45  L 40,46  Z  " style="fill:rgb(234, 142, 22); fill-opacity:1.000; stroke:none;" />
 <path d="  M 40,51  L 41,51  L 41,50  L 40,50  Z  " style="fill:rgb(234, 142, 22); fill-opacity:1.000; stroke:none;" />
 <path d="  M 41,53  L 41,52  L 40,52  L 40,53  Z  " style="fill:rgb(234, 142, 22); fill-opacity:1.000; stroke:none;" />
 <path d="  M 41,18  L 42,18  L 42,17  L 41,17  Z  " style="fill:rgb(234, 142, 22); fill-opacity:1.000; stroke:none;" />
 <path d="  M 42,35  L 41,35  L 41,36  L 42,36  Z  " style="fill:rgb(234, 142, 22); fill-opacity:1.000; stroke:none;" />
 <path d="  M 42,38  L 42,37  L 41,37  L 41,38  Z  " style="fill:rgb(234, 142, 22); fill-opacity:1.000; stroke:none;" />
 <path d="  M 42,47  L 42,46  L 41,46  L 41,47  Z  " style="fill:rgb(234, 142, 22); fill-opacity:1.000; stroke:none;" />
 <path d="  M 42,52  L 42,51  L 41,51  L 41,52  Z  " style="fill:rgb(234, 142, 22); fill-opacity:1.000; stroke:none;" />
 <path d="  M 42,55  L 42,54  L 41,54  L 41,55  Z  " style="fill:rgb(234, 142, 22); fill-opacity:1.000; stroke:none;" />
 <path d="  M 46,13  L 42,13  L 42,14  L 46,14  Z  " style="fill:rgb(234, 142, 22); fill-opacity:1.000; stroke:none;" />
 <path d="  M 43,17  L 43,16  L 42,16  L 42,17  Z  " style="fill:rgb(234, 142, 22); fill-opacity:1.000; stroke:none;" />
 <path d="  M 43,18  L 42,18  L 42,19  L 43,19  Z  " style="fill:rgb(234, 142, 22); fill-opacity:1.000; stroke:none;" />
 <path d="  M 42,34  L 42,35  L 43,35  L 43,34  Z  " style="fill:rgb(234, 142, 22); fill-opacity:1.000; stroke:none;" />
 <path d="  M 42,45  L 43,45  L 43,44  L 42,44  Z  " style="fill:rgb(234, 142, 22); fill-opacity:1.000; stroke:none;" />
 <path d="  M 43,45  L 43,47  L 42,47  L 42,49  L 43,49  L 43,48  L 44,48  L 44,47  L 46,47  L 46,46  L 44,46  L 44,45  Z  " style="fill:rgb(234, 142, 22); fill-opacity:1.000; stroke:none;" />
 <path d="  M 42,54  L 43,54  L 43,53  L 42,53  Z  " style="fill:rgb(234, 142, 22); fill-opacity:1.000; stroke:none;" />
 <path d="  M 43,40  L 43,41  L 44,41  L 44,40  Z  " style="fill:rgb(234, 142, 22); fill-opacity:1.000; stroke:none;" />
 <path d="  M 43,50  L 43,51  L 44,51  L 44,50  Z  " style="fill:rgb(234, 142, 22); fill-opacity:1.000; stroke:none;" />
 <path d="  M 44,17  L 44,18  L 45,18  L 45,17  Z  " style="fill:rgb(234, 142, 22); fill-opacity:1.000; stroke:none;" />
 <path d="  M 45,28  L 44,28  L 44,29  L 45,29  Z  " style="fill:rgb(234, 142, 22); fill-opacity:1.000; stroke:none;" />
 <path d="  M 45,37  L 45,36  L 44,36  L 44,37  Z  " style="fill:rgb(234, 142, 22); fill-opacity:1.000; stroke:none;" />
 <path d="  M 44,42  L 45,42  L 45,41  L 44,41  Z  " style="fill:rgb(234, 142, 22); fill-opacity:1.000; stroke:none;" />
 <path d="  M 45,27  L 45,28  L 46,28  L 46,27  Z  " style="fill:rgb(234, 142, 22); fill-opacity:1.000; stroke:none;" />
 <path d="  M 46,36  L 46,35  L 45,35  L 45,36  Z  " style="fill:rgb(234, 142, 22); fill-opacity:1.000; stroke:none;" />
 <path d="  M 51,36  L 50,36  L 50,37  L 49,37  L 49,38  L 48,38  L 48,39  L 46,39  L 46,38  L 45,38  L 45,40  L 47,40  L 47,41  L 46,41  L 46,42  L 48,42  L 48,41  L 49,41  L 49,42  L 50,42  L 50,40  L 49,40  L 49,39  L 51,39  Z  " style="fill:rgb(234, 142, 22); fill-opacity:1.000; stroke:none;" />
 <path d="  M 47,16  L 46,16  L 46,17  L 47,17  Z  " style="fill:rgb(234, 142, 22); fill-opacity:1.000; stroke:none;" />
 <path d="  M 46,24  L 47,24  L 47,23  L 46,23  Z  " style="fill:rgb(234, 142, 22); fill-opacity:1.000; stroke:none;" />
 <path d="  M 46,33  L 47,33  L 47,31  L 46,31  Z  " style="fill:rgb(234, 142, 22); fill-opacity:1.000; stroke:none;" />
 <path d="  M 47,34  L 46,34  L 46,35  L 47,35  Z  " style="fill:rgb(234, 142, 22); fill-opacity:1.000; stroke:none;" />
 <path d="  M 47,15  L 48,15  L 48,14  L 47,14  Z  " style="fill:rgb(234, 142, 22); fill-opacity:1.000; stroke:none;" />
 <path d="  M 48,23  L 48,22  L 47,22  L 47,23  Z  " style="fill:rgb(234, 142, 22); fill-opacity:1.000; stroke:none;" />
 <path d="  M 47,30  L 48,30  L 48,29  L 49,29  L 49,28  L 50,28  L 50,27  L 49,27  L 49,26  L 48,26  L 48,27  L 47,27  Z  " style="fill:rgb(234, 142, 22); fill-opacity:1.000; stroke:none;" />
 <path d="  M 47,43  L 47,44  L 48,44  L 48,43  Z  " style="fill:rgb(234, 142, 22); fill-opacity:1.000; stroke:none;" />
 <path d="  M 48,15  L 48,16  L 49,16  L 49,15  Z  " style="fill:rgb(234, 142, 22); fill-opacity:1.000; stroke:none;" />
 <path d="  M 48,32  L 49,32  L 49,31  L 48,31  Z  " style="fill:rgb(234, 142, 22); fill-opacity:1.000; stroke:none;" />
 <path d="  M 48,37  L 49,37  L 49,36  L 50,36  L 50,35  L 48,35  Z  " style="fill:rgb(234, 142, 22); fill-opacity:1.000; stroke:none;" />
 <path d="  M 49,44  L 48,44  L 48,45  L 49,45  Z  " style="fill:rgb(234, 142, 22); fill-opacity:1.000; stroke:none;" />
 <path d="  M 50,25  L 49,25  L 49,26  L 50,26  Z  " style="fill:rgb(234, 142, 22); fill-opacity:1.000; stroke:none;" />
 <path d="  M 51,20  L 51,17  L 50,17  L 50,20  Z  " style="fill:rgb(234, 142, 22); fill-opacity:1.000; stroke:none;" />
 <path d="  M 52,34  L 52,33  L 51,33  L 51,34  Z  " style="fill:rgb(234, 142, 22); fill-opacity:1.000; stroke:none;" />
 <path d="  M 51,39  L 51,40  L 52,40  L 52,39  Z  " style="fill:rgb(234, 142, 22); fill-opacity:1.000; stroke:none;" />
 <path d="  M 52,44  L 53,44  L 53,43  L 54,43  L 54,42  L 53,42  L 53,41  L 52,41  Z  " style="fill:rgb(234, 142, 22); fill-opacity:1.000; stroke:none;" />
 <path d="  M 54,37  L 54,36  L 53,36  L 53,37  Z  " style="fill:rgb(234, 142, 22); fill-opacity:1.000; stroke:none;" />
 <path d="  M 55,37  L 54,37  L 54,38  L 55,38  Z  " style="fill:rgb(234, 142, 22); fill-opacity:1.000; stroke:none;" />
 <path d="  M 9,29  L 9,30  L 10,30  L 10,28  L 9,28  L 9,26  L 8,26  L 8,29  Z  " style="fill:rgb(250, 191, 41); fill-opacity:1.000; stroke:none;" />
 <path d="  M 9,26  L 10,26  L 10,24  L 11,24  L 11,22  L 10,22  L 10,23  L 9,23  Z  " style="fill:rgb(250, 191, 41); fill-opacity:1.000; stroke:none;" />
 <path d="  M 11,32  L 11,30  L 10,30  L 10,32  Z  " style="fill:rgb(250, 191, 41); fill-opacity:1.000; stroke:none;" />
 <path d="  M 12,21  L 11,21  L 11,22  L 12,22  Z  " style="fill:rgb(250, 191, 41); fill-opacity:1.000; stroke:none;" />
 <path d="  M 11,33  L 13,33  L 13,32  L 14,32  L 14,31  L 12,31  L 12,32  L 11,32  Z  " style="fill:rgb(250, 191, 41); fill-opacity:1.000; stroke:none;" />
 <path d="  M 16,20  L 12,20  L 12,21  L 13,21  L 13,22  L 14,22  L 14,21  L 16,21  Z  " style="fill:rgb(250, 191, 41); fill-opacity:1.000; stroke:none;" />
 <path d="  M 12,23  L 13,23  L 13,22  L 12,22  Z  " style="fill:rgb(250, 191, 41); fill-opacity:1.000; stroke:none;" />
 <path d="  M 12,46  L 13,46  L 13,47  L 14,47  L 14,45  L 13,45  L 13,43  L 12,43  Z  " style="fill:rgb(250, 191, 41); fill-opacity:1.000; stroke:none;" />
 <path d="  M 13,33  L 13,34  L 18,34  L 18,33  Z  " style="fill:rgb(250, 191, 41); fill-opacity:1.000; stroke:none;" />
 <path d="  M 14,43  L 14,42  L 13,42  L 13,43  Z  " style="fill:rgb(250, 191, 41); fill-opacity:1.000; stroke:none;" />
 <path d="  M 15,42  L 15,41  L 16,41  L 16,39  L 15,39  L 15,40  L 14,40  L 14,42  Z  " style="fill:rgb(250, 191, 41); fill-opacity:1.000; stroke:none;" />
 <path d="  M 15,49  L 15,47  L 14,47  L 14,49  Z  " style="fill:rgb(250, 191, 41); fill-opacity:1.000; stroke:none;" />
 <path d="  M 16,32  L 16,31  L 15,31  L 15,32  Z  " style="fill:rgb(250, 191, 41); fill-opacity:1.000; stroke:none;" />
 <path d="  M 16,50  L 16,49  L 15,49  L 15,50  Z  " style="fill:rgb(250, 191, 41); fill-opacity:1.000; stroke:none;" />
 <path d="  M 16,21  L 16,22  L 18,22  L 18,21  Z  " style="fill:rgb(250, 191, 41); fill-opacity:1.000; stroke:none;" />
 <path d="  M 17,31  L 17,30  L 16,30  L 16,31  Z  " style="fill:rgb(250, 191, 41); fill-opacity:1.000; stroke:none;" />
 <path d="  M 18,38  L 16,38  L 16,39  L 18,39  Z  " style="fill:rgb(250, 191, 41); fill-opacity:1.000; stroke:none;" />
 <path d="  M 16,52  L 19,52  L 19,51  L 17,51  L 17,50  L 16,50  Z  " style="fill:rgb(250, 191, 41); fill-opacity:1.000; stroke:none;" />
 <path d="  M 18,29  L 17,29  L 17,30  L 18,30  Z  " style="fill:rgb(250, 191, 41); fill-opacity:1.000; stroke:none;" />
 <path d="  M 18,32  L 18,31  L 17,31  L 17,32  Z  " style="fill:rgb(250, 191, 41); fill-opacity:1.000; stroke:none;" />
 <path d="  M 20,24  L 20,23  L 21,23  L 21,22  L 18,22  L 18,23  L 19,23  L 19,24  Z  " style="fill:rgb(250, 191, 41); fill-opacity:1.000; stroke:none;" />
 <path d="  M 19,31  L 19,30  L 18,30  L 18,31  Z  " style="fill:rgb(250, 191, 41); fill-opacity:1.000; stroke:none;" />
 <path d="  M 18,32  L 18,33  L 20,33  L 20,32  Z  " style="fill:rgb(250, 191, 41); fill-opacity:1.000; stroke:none;" />
 <path d="  M 18,37  L 18,38  L 20,38  L 20,37  Z  " style="fill:rgb(250, 191, 41); fill-opacity:1.000; stroke:none;" />
 <path d="  M 20,27  L 21,27  L 21,26  L 20,26  Z  " style="fill:rgb(250, 191, 41); fill-opacity:1.000; stroke:none;" />
 <path d="  M 21,32  L 21,31  L 20,31  L 20,32  Z  " style="fill:rgb(250, 191, 41); fill-opacity:1.000; stroke:none;" />
 <path d="  M 20,51  L 21,51  L 21,48  L 20,48  Z  " style="fill:rgb(250, 191, 41); fill-opacity:1.000; stroke:none;" />
 <path d="  M 21,20  L 22,20  L 22,16  L 23,16  L 23,15  L 22,15  L 22,14  L 21,14  Z  " style="fill:rgb(250, 191, 41); fill-opacity:1.000; stroke:none;" />
 <path d="  M 21,31  L 22,31  L 22,28  L 23,28  L 23,24  L 22,24  L 22,23  L 21,23  L 21,25  L 22,25  L 22,27  L 21,27  Z  " style="fill:rgb(250, 191, 41); fill-opacity:1.000; stroke:none;" />
 <path d="  M 24,52  L 24,51  L 25,51  L 25,48  L 24,48  L 24,47  L 23,47  L 23,49  L 24,49  L 24,50  L 22,50  L 22,51  L 21,51  L 21,52  Z  " style="fill:rgb(250, 191, 41); fill-opacity:1.000; stroke:none;" />
 <path d="  M 23,11  L 22,11  L 22,14  L 23,14  L 23,15  L 24,15  L 24,16  L 25,16  L 25,14  L 24,14  L 24,13  L 23,13  Z  " style="fill:rgb(250, 191, 41); fill-opacity:1.000; stroke:none;" />
 <path d="  M 23,20  L 22,20  L 22,21  L 23,21  Z  " style="fill:rgb(250, 191, 41); fill-opacity:1.000; stroke:none;" />
 <path d="  M 25,21  L 26,21  L 26,19  L 25,19  L 25,17  L 24,17  L 24,18  L 23,18  L 23,19  L 24,19  L 24,20  L 25,20  Z  " style="fill:rgb(250, 191, 41); fill-opacity:1.000; stroke:none;" />
 <path d="  M 24,21  L 23,21  L 23,22  L 24,22  Z  " style="fill:rgb(250, 191, 41); fill-opacity:1.000; stroke:none;" />
 <path d="  M 23,39  L 24,39  L 24,38  L 23,38  Z  " style="fill:rgb(250, 191, 41); fill-opacity:1.000; stroke:none;" />
 <path d="  M 24,12  L 25,12  L 25,11  L 26,11  L 26,10  L 24,10  Z  " style="fill:rgb(250, 191, 41); fill-opacity:1.000; stroke:none;" />
 <path d="  M 31,22  L 31,21  L 32,21  L 32,19  L 31,19  L 31,20  L 30,20  L 30,21  L 29,21  L 29,20  L 28,20  L 28,21  L 26,21  L 26,22  L 24,22  L 24,23  L 27,23  L 27,22  Z  " style="fill:rgb(250, 191, 41); fill-opacity:1.000; stroke:none;" />
 <path d="  M 25,39  L 24,39  L 24,40  L 25,40  Z  " style="fill:rgb(250, 191, 41); fill-opacity:1.000; stroke:none;" />
 <path d="  M 26,14  L 26,13  L 25,13  L 25,14  Z  " style="fill:rgb(250, 191, 41); fill-opacity:1.000; stroke:none;" />
 <path d="  M 25,32  L 25,34  L 26,34  L 26,33  L 27,33  L 27,31  L 26,31  L 26,32  Z  " style="fill:rgb(250, 191, 41); fill-opacity:1.000; stroke:none;" />
 <path d="  M 26,40  L 25,40  L 25,42  L 26,42  Z  " style="fill:rgb(250, 191, 41); fill-opacity:1.000; stroke:none;" />
 <path d="  M 25,48  L 26,48  L 26,46  L 25,46  Z  " style="fill:rgb(250, 191, 41); fill-opacity:1.000; stroke:none;" />
 <path d="  M 26,19  L 27,19  L 27,18  L 26,18  Z  " style="fill:rgb(250, 191, 41); fill-opacity:1.000; stroke:none;" />
 <path d="  M 26,34  L 26,37  L 27,37  L 27,38  L 28,38  L 28,36  L 27,36  L 27,34  Z  " style="fill:rgb(250, 191, 41); fill-opacity:1.000; stroke:none;" />
 <path d="  M 26,46  L 27,46  L 27,42  L 26,42  Z  " style="fill:rgb(250, 191, 41); fill-opacity:1.000; stroke:none;" />
 <path d="  M 30,10  L 30,9  L 27,9  L 27,10  Z  " style="fill:rgb(250, 191, 41); fill-opacity:1.000; stroke:none;" />
 <path d="  M 27,15  L 27,16  L 28,16  L 28,15  Z  " style="fill:rgb(250, 191, 41); fill-opacity:1.000; stroke:none;" />
 <path d="  M 28,17  L 27,17  L 27,18  L 28,18  Z  " style="fill:rgb(250, 191, 41); fill-opacity:1.000; stroke:none;" />
 <path d="  M 27,31  L 28,31  L 28,30  L 27,30  Z  " style="fill:rgb(250, 191, 41); fill-opacity:1.000; stroke:none;" />
 <path d="  M 30,15  L 30,14  L 29,14  L 29,16  L 28,16  L 28,17  L 30,17  L 30,16  L 31,16  L 31,15  Z  " style="fill:rgb(250, 191, 41); fill-opacity:1.000; stroke:none;" />
 <path d="  M 28,38  L 28,39  L 29,39  L 29,38  Z  " style="fill:rgb(250, 191, 41); fill-opacity:1.000; stroke:none;" />
 <path d="  M 29,28  L 30,28  L 30,27  L 29,27  Z  " style="fill:rgb(250, 191, 41); fill-opacity:1.000; stroke:none;" />
 <path d="  M 34,40  L 34,39  L 33,39  L 33,38  L 32,38  L 32,39  L 29,39  L 29,40  Z  " style="fill:rgb(250, 191, 41); fill-opacity:1.000; stroke:none;" />
 <path d="  M 30,10  L 30,11  L 31,11  L 31,12  L 32,12  L 32,10  Z  " style="fill:rgb(250, 191, 41); fill-opacity:1.000; stroke:none;" />
 <path d="  M 30,49  L 31,49  L 31,48  L 33,48  L 33,47  L 32,47  L 32,46  L 31,46  L 31,47  L 30,47  Z  " style="fill:rgb(250, 191, 41); fill-opacity:1.000; stroke:none;" />
 <path d="  M 30,53  L 31,53  L 31,52  L 30,52  Z  " style="fill:rgb(250, 191, 41); fill-opacity:1.000; stroke:none;" />
 <path d="  M 32,15  L 32,14  L 31,14  L 31,15  Z  " style="fill:rgb(250, 191, 41); fill-opacity:1.000; stroke:none;" />
 <path d="  M 31,27  L 32,27  L 32,26  L 31,26  Z  " style="fill:rgb(250, 191, 41); fill-opacity:1.000; stroke:none;" />
 <path d="  M 31,38  L 32,38  L 32,37  L 31,37  Z  " style="fill:rgb(250, 191, 41); fill-opacity:1.000; stroke:none;" />
 <path d="  M 32,51  L 31,51  L 31,52  L 32,52  Z  " style="fill:rgb(250, 191, 41); fill-opacity:1.000; stroke:none;" />
 <path d="  M 31,53  L 31,54  L 32,54  L 32,55  L 33,55  L 33,53  Z  " style="fill:rgb(250, 191, 41); fill-opacity:1.000; stroke:none;" />
 <path d="  M 32,12  L 32,13  L 33,13  L 33,12  Z  " style="fill:rgb(250, 191, 41); fill-opacity:1.000; stroke:none;" />
 <path d="  M 33,19  L 33,17  L 32,17  L 32,19  Z  " style="fill:rgb(250, 191, 41); fill-opacity:1.000; stroke:none;" />
 <path d="  M 34,45  L 32,45  L 32,46  L 34,46  Z  " style="fill:rgb(250, 191, 41); fill-opacity:1.000; stroke:none;" />
 <path d="  M 33,17  L 34,17  L 34,16  L 35,16  L 35,13  L 34,13  L 34,14  L 33,14  Z  " style="fill:rgb(250, 191, 41); fill-opacity:1.000; stroke:none;" />
 <path d="  M 35,27  L 35,26  L 33,26  L 33,27  L 34,27  L 34,28  L 36,28  L 36,27  Z  " style="fill:rgb(250, 191, 41); fill-opacity:1.000; stroke:none;" />
 <path d="  M 35,35  L 34,35  L 34,36  L 33,36  L 33,37  L 34,37  L 34,38  L 37,38  L 37,37  L 38,37  L 38,36  L 37,36  L 37,35  L 36,35  L 36,37  L 35,37  Z  " style="fill:rgb(250, 191, 41); fill-opacity:1.000; stroke:none;" />
 <path d="  M 38,45  L 38,46  L 40,46  L 40,45  L 39,45  L 39,44  L 34,44  L 34,45  Z  " style="fill:rgb(250, 191, 41); fill-opacity:1.000; stroke:none;" />
 <path d="  M 35,56  L 35,55  L 34,55  L 34,56  Z  " style="fill:rgb(250, 191, 41); fill-opacity:1.000; stroke:none;" />
 <path d="  M 37,31  L 38,31  L 38,28  L 36,28  L 36,29  L 37,29  Z  " style="fill:rgb(250, 191, 41); fill-opacity:1.000; stroke:none;" />
 <path d="  M 38,22  L 39,22  L 39,21  L 38,21  L 38,20  L 39,20  L 39,18  L 38,18  L 38,19  L 37,19  L 37,24  L 38,24  Z  " style="fill:rgb(250, 191, 41); fill-opacity:1.000; stroke:none;" />
 <path d="  M 37,35  L 38,35  L 38,33  L 39,33  L 39,31  L 38,31  L 38,32  L 37,32  Z  " style="fill:rgb(250, 191, 41); fill-opacity:1.000; stroke:none;" />
 <path d="  M 38,24  L 38,25  L 39,25  L 39,24  Z  " style="fill:rgb(250, 191, 41); fill-opacity:1.000; stroke:none;" />
 <path d="  M 40,17  L 39,17  L 39,18  L 40,18  Z  " style="fill:rgb(250, 191, 41); fill-opacity:1.000; stroke:none;" />
 <path d="  M 39,26  L 40,26  L 40,25  L 39,25  Z  " style="fill:rgb(250, 191, 41); fill-opacity:1.000; stroke:none;" />
 <path d="  M 42,17  L 42,16  L 40,16  L 40,17  Z  " style="fill:rgb(250, 191, 41); fill-opacity:1.000; stroke:none;" />
 <path d="  M 45,28  L 45,27  L 42,27  L 42,26  L 40,26  L 40,27  L 41,27  L 41,28  Z  " style="fill:rgb(250, 191, 41); fill-opacity:1.000; stroke:none;" />
 <path d="  M 42,47  L 41,47  L 41,46  L 40,46  L 40,50  L 41,50  L 41,49  L 42,49  Z  " style="fill:rgb(250, 191, 41); fill-opacity:1.000; stroke:none;" />
 <path d="  M 43,42  L 42,42  L 42,41  L 43,41  L 43,40  L 42,40  L 42,38  L 41,38  L 41,43  L 42,43  L 42,44  L 43,44  L 43,45  L 44,45  L 44,43  L 43,43  Z  " style="fill:rgb(250, 191, 41); fill-opacity:1.000; stroke:none;" />
 <path d="  M 44,14  L 42,14  L 42,15  L 43,15  L 43,16  L 45,16  L 45,15  L 44,15  Z  " style="fill:rgb(250, 191, 41); fill-opacity:1.000; stroke:none;" />
 <path d="  M 42,37  L 43,37  L 43,35  L 42,35  Z  " style="fill:rgb(250, 191, 41); fill-opacity:1.000; stroke:none;" />
 <path d="  M 44,35  L 44,34  L 43,34  L 43,35  Z  " style="fill:rgb(250, 191, 41); fill-opacity:1.000; stroke:none;" />
 <path d="  M 46,25  L 47,25  L 47,24  L 46,24  L 46,23  L 45,23  L 45,25  L 44,25  L 44,26  L 46,26  Z  " style="fill:rgb(250, 191, 41); fill-opacity:1.000; stroke:none;" />
 <path d="  M 44,34  L 45,34  L 45,33  L 44,33  Z  " style="fill:rgb(250, 191, 41); fill-opacity:1.000; stroke:none;" />
 <path d="  M 45,45  L 44,45  L 44,46  L 45,46  Z  " style="fill:rgb(250, 191, 41); fill-opacity:1.000; stroke:none;" />
 <path d="  M 45,14  L 45,15  L 46,15  L 46,14  Z  " style="fill:rgb(250, 191, 41); fill-opacity:1.000; stroke:none;" />
 <path d="  M 46,15  L 46,16  L 48,16  L 48,15  Z  " style="fill:rgb(250, 191, 41); fill-opacity:1.000; stroke:none;" />
 <path d="  M 46,27  L 48,27  L 48,26  L 46,26  Z  " style="fill:rgb(250, 191, 41); fill-opacity:1.000; stroke:none;" />
 <path d="  M 48,24  L 48,23  L 47,23  L 47,24  Z  " style="fill:rgb(250, 191, 41); fill-opacity:1.000; stroke:none;" />
 <path d="  M 49,19  L 50,19  L 50,16  L 48,16  L 48,17  L 49,17  Z  " style="fill:rgb(250, 191, 41); fill-opacity:1.000; stroke:none;" />
 <path d="  M 50,23  L 49,23  L 49,24  L 48,24  L 48,26  L 49,26  L 49,25  L 50,25  Z  " style="fill:rgb(250, 191, 41); fill-opacity:1.000; stroke:none;" />
 <path d="  M 49,32  L 49,33  L 50,33  L 50,32  Z  " style="fill:rgb(250, 191, 41); fill-opacity:1.000; stroke:none;" />
 <path d="  M 50,23  L 51,23  L 51,20  L 50,20  Z  " style="fill:rgb(250, 191, 41); fill-opacity:1.000; stroke:none;" />
 <path d="  M 51,33  L 50,33  L 50,34  L 51,34  Z  " style="fill:rgb(250, 191, 41); fill-opacity:1.000; stroke:none;" />
 <path d="  M 51,43  L 51,42  L 50,42  L 50,43  Z  " style="fill:rgb(250, 191, 41); fill-opacity:1.000; stroke:none;" />
 <path d="  M 51,34  L 51,35  L 52,35  L 52,34  Z  " style="fill:rgb(250, 191, 41); fill-opacity:1.000; stroke:none;" />
 <path d="  M 52,37  L 53,37  L 53,35  L 52,35  Z  " style="fill:rgb(250, 191, 41); fill-opacity:1.000; stroke:none;" />
 <path d="  M 53,40  L 54,40  L 54,37  L 53,37  Z  " style="fill:rgb(250, 191, 41); fill-opacity:1.000; stroke:none;" />
 <path d="  M 10,26  L 9,26  L 9,28  L 10,28  Z  " style="fill:rgb(250, 222, 41); fill-opacity:1.000; stroke:none;" />
 <path d="  M 11,24  L 10,24  L 10,26  L 11,26  Z  " style="fill:rgb(250, 222, 41); fill-opacity:1.000; stroke:none;" />
 <path d="  M 11,28  L 10,28  L 10,30  L 11,30  Z  " style="fill:rgb(250, 222, 41); fill-opacity:1.000; stroke:none;" />
 <path d="  M 11,24  L 12,24  L 12,22  L 11,22  Z  " style="fill:rgb(250, 222, 41); fill-opacity:1.000; stroke:none;" />
 <path d="  M 11,32  L 12,32  L 12,30  L 11,30  Z  " style="fill:rgb(250, 222, 41); fill-opacity:1.000; stroke:none;" />
 <path d="  M 13,21  L 12,21  L 12,22  L 13,22  Z  " style="fill:rgb(250, 222, 41); fill-opacity:1.000; stroke:none;" />
 <path d="  M 12,33  L 12,34  L 13,34  L 13,33  Z  " style="fill:rgb(250, 222, 41); fill-opacity:1.000; stroke:none;" />
 <path d="  M 18,32  L 17,32  L 17,31  L 16,31  L 16,32  L 13,32  L 13,33  L 18,33  Z  " style="fill:rgb(250, 222, 41); fill-opacity:1.000; stroke:none;" />
 <path d="  M 14,43  L 13,43  L 13,45  L 14,45  Z  " style="fill:rgb(250, 222, 41); fill-opacity:1.000; stroke:none;" />
 <path d="  M 14,22  L 16,22  L 16,21  L 14,21  Z  " style="fill:rgb(250, 222, 41); fill-opacity:1.000; stroke:none;" />
 <path d="  M 15,43  L 15,42  L 14,42  L 14,43  Z  " style="fill:rgb(250, 222, 41); fill-opacity:1.000; stroke:none;" />
 <path d="  M 14,46  L 14,47  L 15,47  L 15,46  Z  " style="fill:rgb(250, 222, 41); fill-opacity:1.000; stroke:none;" />
 <path d="  M 15,31  L 16,31  L 16,29  L 15,29  Z  " style="fill:rgb(250, 222, 41); fill-opacity:1.000; stroke:none;" />
 <path d="  M 18,49  L 18,47  L 17,47  L 17,48  L 16,48  L 16,47  L 15,47  L 15,49  L 16,49  L 16,50  L 17,50  L 17,49  Z  " style="fill:rgb(250, 222, 41); fill-opacity:1.000; stroke:none;" />
 <path d="  M 18,21  L 18,20  L 16,20  L 16,21  Z  " style="fill:rgb(250, 222, 41); fill-opacity:1.000; stroke:none;" />
 <path d="  M 16,39  L 16,40  L 18,40  L 18,39  Z  " style="fill:rgb(250, 222, 41); fill-opacity:1.000; stroke:none;" />
 <path d="  M 17,28  L 17,29  L 18,29  L 18,28  Z  " style="fill:rgb(250, 222, 41); fill-opacity:1.000; stroke:none;" />
 <path d="  M 19,50  L 17,50  L 17,51  L 19,51  L 19,52  L 21,52  L 21,51  L 20,51  L 20,49  L 19,49  Z  " style="fill:rgb(250, 222, 41); fill-opacity:1.000; stroke:none;" />
 <path d="  M 18,21  L 18,22  L 20,22  L 20,21  Z  " style="fill:rgb(250, 222, 41); fill-opacity:1.000; stroke:none;" />
 <path d="  M 18,29  L 18,30  L 19,30  L 19,29  Z  " style="fill:rgb(250, 222, 41); fill-opacity:1.000; stroke:none;" />
 <path d="  M 19,30  L 19,31  L 18,31  L 18,32  L 20,32  L 20,31  L 21,31  L 21,27  L 20,27  L 20,30  Z  " style="fill:rgb(250, 222, 41); fill-opacity:1.000; stroke:none;" />
 <path d="  M 22,39  L 22,40  L 24,40  L 24,39  L 23,39  L 23,38  L 22,38  L 22,37  L 20,37  L 20,38  L 18,38  L 18,39  Z  " style="fill:rgb(250, 222, 41); fill-opacity:1.000; stroke:none;" />
 <path d="  M 21,23  L 20,23  L 20,26  L 21,26  L 21,27  L 22,27  L 22,25  L 21,25  Z  " style="fill:rgb(250, 222, 41); fill-opacity:1.000; stroke:none;" />
 <path d="  M 21,48  L 21,47  L 20,47  L 20,48  Z  " style="fill:rgb(250, 222, 41); fill-opacity:1.000; stroke:none;" />
 <path d="  M 23,49  L 23,48  L 22,48  L 22,49  L 21,49  L 21,51  L 22,51  L 22,50  L 24,50  L 24,49  Z  " style="fill:rgb(250, 222, 41); fill-opacity:1.000; stroke:none;" />
 <path d="  M 23,15  L 23,14  L 22,14  L 22,15  Z  " style="fill:rgb(250, 222, 41); fill-opacity:1.000; stroke:none;" />
 <path d="  M 26,22  L 26,21  L 25,21  L 25,20  L 24,20  L 24,19  L 23,19  L 23,16  L 22,16  L 22,20  L 23,20  L 23,21  L 24,21  L 24,22  Z  " style="fill:rgb(250, 222, 41); fill-opacity:1.000; stroke:none;" />
 <path d="  M 24,10  L 23,10  L 23,13  L 24,13  Z  " style="fill:rgb(250, 222, 41); fill-opacity:1.000; stroke:none;" />
 <path d="  M 23,47  L 24,47  L 24,46  L 23,46  Z  " style="fill:rgb(250, 222, 41); fill-opacity:1.000; stroke:none;" />
 <path d="  M 26,9  L 24,9  L 24,10  L 27,10  L 27,9  L 30,9  L 30,10  L 32,10  L 32,9  L 31,9  L 31,8  L 26,8  Z  " style="fill:rgb(250, 222, 41); fill-opacity:1.000; stroke:none;" />
 <path d="  M 25,16  L 24,16  L 24,17  L 25,17  Z  " style="fill:rgb(250, 222, 41); fill-opacity:1.000; stroke:none;" />
 <path d="  M 24,44  L 25,44  L 25,46  L 26,46  L 26,42  L 25,42  L 25,40  L 24,40  Z  " style="fill:rgb(250, 222, 41); fill-opacity:1.000; stroke:none;" />
 <path d="  M 24,48  L 25,48  L 25,47  L 24,47  Z  " style="fill:rgb(250, 222, 41); fill-opacity:1.000; stroke:none;" />
 <path d="  M 25,18  L 25,19  L 26,19  L 26,18  Z  " style="fill:rgb(250, 222, 41); fill-opacity:1.000; stroke:none;" />
 <path d="  M 26,18  L 27,18  L 27,17  L 26,17  Z  " style="fill:rgb(250, 222, 41); fill-opacity:1.000; stroke:none;" />
 <path d="  M 26,21  L 28,21  L 28,20  L 27,20  L 27,19  L 26,19  Z  " style="fill:rgb(250, 222, 41); fill-opacity:1.000; stroke:none;" />
 <path d="  M 28,36  L 28,35  L 29,35  L 29,34  L 28,34  L 28,33  L 26,33  L 26,34  L 27,34  L 27,36  Z  " style="fill:rgb(250, 222, 41); fill-opacity:1.000; stroke:none;" />
 <path d="  M 29,38  L 29,36  L 28,36  L 28,38  Z  " style="fill:rgb(250, 222, 41); fill-opacity:1.000; stroke:none;" />
 <path d="  M 29,21  L 30,21  L 30,20  L 29,20  Z  " style="fill:rgb(250, 222, 41); fill-opacity:1.000; stroke:none;" />
 <path d="  M 29,38  L 29,39  L 32,39  L 32,38  Z  " style="fill:rgb(250, 222, 41); fill-opacity:1.000; stroke:none;" />
 <path d="  M 30,19  L 30,20  L 31,20  L 31,19  Z  " style="fill:rgb(250, 222, 41); fill-opacity:1.000; stroke:none;" />
 <path d="  M 31,27  L 31,26  L 30,26  L 30,27  Z  " style="fill:rgb(250, 222, 41); fill-opacity:1.000; stroke:none;" />
 <path d="  M 30,36  L 30,37  L 32,37  L 32,35  L 31,35  L 31,36  Z  " style="fill:rgb(250, 222, 41); fill-opacity:1.000; stroke:none;" />
 <path d="  M 30,52  L 31,52  L 31,49  L 30,49  Z  " style="fill:rgb(250, 222, 41); fill-opacity:1.000; stroke:none;" />
 <path d="  M 31,19  L 32,19  L 32,18  L 31,18  Z  " style="fill:rgb(250, 222, 41); fill-opacity:1.000; stroke:none;" />
 <path d="  M 32,49  L 32,48  L 31,48  L 31,49  Z  " style="fill:rgb(250, 222, 41); fill-opacity:1.000; stroke:none;" />
 <path d="  M 31,53  L 32,53  L 32,52  L 31,52  Z  " style="fill:rgb(250, 222, 41); fill-opacity:1.000; stroke:none;" />
 <path d="  M 32,12  L 33,12  L 33,14  L 34,14  L 34,11  L 33,11  L 33,10  L 32,10  Z  " style="fill:rgb(250, 222, 41); fill-opacity:1.000; stroke:none;" />
 <path d="  M 32,17  L 33,17  L 33,16  L 32,16  Z  " style="fill:rgb(250, 222, 41); fill-opacity:1.000; stroke:none;" />
 <path d="  M 33,37  L 32,37  L 32,38  L 33,38  Z  " style="fill:rgb(250, 222, 41); fill-opacity:1.000; stroke:none;" />
 <path d="  M 34,47  L 34,46  L 32,46  L 32,47  Z  " style="fill:rgb(250, 222, 41); fill-opacity:1.000; stroke:none;" />
 <path d="  M 34,18  L 34,17  L 33,17  L 33,18  Z  " style="fill:rgb(250, 222, 41); fill-opacity:1.000; stroke:none;" />
 <path d="  M 36,39  L 36,38  L 33,38  L 33,39  Z  " style="fill:rgb(250, 222, 41); fill-opacity:1.000; stroke:none;" />
 <path d="  M 33,54  L 33,55  L 35,55  L 35,54  Z  " style="fill:rgb(250, 222, 41); fill-opacity:1.000; stroke:none;" />
 <path d="  M 35,34  L 34,34  L 34,35  L 35,35  Z  " style="fill:rgb(250, 222, 41); fill-opacity:1.000; stroke:none;" />
 <path d="  M 34,45  L 34,46  L 38,46  L 38,45  Z  " style="fill:rgb(250, 222, 41); fill-opacity:1.000; stroke:none;" />
 <path d="  M 35,27  L 36,27  L 36,26  L 35,26  Z  " style="fill:rgb(250, 222, 41); fill-opacity:1.000; stroke:none;" />
 <path d="  M 35,36  L 35,37  L 36,37  L 36,36  Z  " style="fill:rgb(250, 222, 41); fill-opacity:1.000; stroke:none;" />
 <path d="  M 37,28  L 37,27  L 36,27  L 36,28  Z  " style="fill:rgb(250, 222, 41); fill-opacity:1.000; stroke:none;" />
 <path d="  M 37,30  L 36,30  L 36,31  L 37,31  Z  " style="fill:rgb(250, 222, 41); fill-opacity:1.000; stroke:none;" />
 <path d="  M 38,31  L 37,31  L 37,32  L 38,32  Z  " style="fill:rgb(250, 222, 41); fill-opacity:1.000; stroke:none;" />
 <path d="  M 38,36  L 38,35  L 37,35  L 37,36  Z  " style="fill:rgb(250, 222, 41); fill-opacity:1.000; stroke:none;" />
 <path d="  M 39,17  L 38,17  L 38,18  L 39,18  Z  " style="fill:rgb(250, 222, 41); fill-opacity:1.000; stroke:none;" />
 <path d="  M 39,21  L 39,20  L 38,20  L 38,21  Z  " style="fill:rgb(250, 222, 41); fill-opacity:1.000; stroke:none;" />
 <path d="  M 39,22  L 38,22  L 38,24  L 39,24  Z  " style="fill:rgb(250, 222, 41); fill-opacity:1.000; stroke:none;" />
 <path d="  M 38,31  L 39,31  L 39,29  L 38,29  Z  " style="fill:rgb(250, 222, 41); fill-opacity:1.000; stroke:none;" />
 <path d="  M 39,35  L 39,33  L 38,33  L 38,35  Z  " style="fill:rgb(250, 222, 41); fill-opacity:1.000; stroke:none;" />
 <path d="  M 40,46  L 38,46  L 38,47  L 39,47  L 39,48  L 40,48  Z  " style="fill:rgb(250, 222, 41); fill-opacity:1.000; stroke:none;" />
 <path d="  M 40,17  L 40,16  L 39,16  L 39,17  Z  " style="fill:rgb(250, 222, 41); fill-opacity:1.000; stroke:none;" />
 <path d="  M 40,25  L 40,24  L 39,24  L 39,25  Z  " style="fill:rgb(250, 222, 41); fill-opacity:1.000; stroke:none;" />
 <path d="  M 40,15  L 40,16  L 43,16  L 43,15  Z  " style="fill:rgb(250, 222, 41); fill-opacity:1.000; stroke:none;" />
 <path d="  M 41,26  L 41,25  L 40,25  L 40,26  Z  " style="fill:rgb(250, 222, 41); fill-opacity:1.000; stroke:none;" />
 <path d="  M 43,26  L 43,25  L 42,25  L 42,27  L 46,27  L 46,26  Z  " style="fill:rgb(250, 222, 41); fill-opacity:1.000; stroke:none;" />
 <path d="  M 42,40  L 43,40  L 43,37  L 42,37  Z  " style="fill:rgb(250, 222, 41); fill-opacity:1.000; stroke:none;" />
 <path d="  M 44,41  L 42,41  L 42,42  L 43,42  L 43,43  L 44,43  Z  " style="fill:rgb(250, 222, 41); fill-opacity:1.000; stroke:none;" />
 <path d="  M 44,36  L 45,36  L 45,35  L 46,35  L 46,34  L 50,34  L 50,33  L 49,33  L 49,32  L 47,32  L 47,33  L 46,33  L 46,32  L 45,32  L 45,34  L 44,34  L 44,35  L 43,35  L 43,37  L 44,37  Z  " style="fill:rgb(250, 222, 41); fill-opacity:1.000; stroke:none;" />
 <path d="  M 45,14  L 44,14  L 44,15  L 45,15  Z  " style="fill:rgb(250, 222, 41); fill-opacity:1.000; stroke:none;" />
 <path d="  M 44,25  L 45,25  L 45,24  L 44,24  Z  " style="fill:rgb(250, 222, 41); fill-opacity:1.000; stroke:none;" />
 <path d="  M 46,15  L 45,15  L 45,16  L 46,16  Z  " style="fill:rgb(250, 222, 41); fill-opacity:1.000; stroke:none;" />
 <path d="  M 45,22  L 45,23  L 46,23  L 46,22  Z  " style="fill:rgb(250, 222, 41); fill-opacity:1.000; stroke:none;" />
 <path d="  M 47,14  L 46,14  L 46,15  L 47,15  Z  " style="fill:rgb(250, 222, 41); fill-opacity:1.000; stroke:none;" />
 <path d="  M 48,26  L 48,24  L 47,24  L 47,25  L 46,25  L 46,26  Z  " style="fill:rgb(250, 222, 41); fill-opacity:1.000; stroke:none;" />
 <path d="  M 47,17  L 48,17  L 48,16  L 47,16  Z  " style="fill:rgb(250, 222, 41); fill-opacity:1.000; stroke:none;" />
 <path d="  M 48,19  L 49,19  L 49,17  L 48,17  Z  " style="fill:rgb(250, 222, 41); fill-opacity:1.000; stroke:none;" />
 <path d="  M 49,23  L 50,23  L 50,19  L 49,19  L 49,22  L 48,22  L 48,24  L 49,24  Z  " style="fill:rgb(250, 222, 41); fill-opacity:1.000; stroke:none;" />
 <path d="  M 50,31  L 49,31  L 49,32  L 50,32  Z  " style="fill:rgb(250, 222, 41); fill-opacity:1.000; stroke:none;" />
 <path d="  M 50,35  L 51,35  L 51,34  L 50,34  Z  " style="fill:rgb(250, 222, 41); fill-opacity:1.000; stroke:none;" />
 <path d="  M 51,42  L 51,41  L 50,41  L 50,42  Z  " style="fill:rgb(250, 222, 41); fill-opacity:1.000; stroke:none;" />
 <path d="  M 51,35  L 51,37  L 52,37  L 52,35  Z  " style="fill:rgb(250, 222, 41); fill-opacity:1.000; stroke:none;" />
 <path d="  M 52,41  L 52,40  L 51,40  L 51,41  Z  " style="fill:rgb(250, 222, 41); fill-opacity:1.000; stroke:none;" />
 <path d="  M 53,40  L 53,37  L 52,37  L 52,40  Z  " style="fill:rgb(250, 222, 41); fill-opacity:1.000; stroke:none;" />
 <path d="  M 13,25  L 12,25  L 12,24  L 11,24  L 11,26  L 12,26  L 12,27  L 13,27  Z  " style="fill:rgb(213, 107, 43); fill-opacity:1.000; stroke:none;" />
 <path d="  M 11,34  L 11,35  L 12,35  L 12,34  Z  " style="fill:rgb(213, 107, 43); fill-opacity:1.000; stroke:none;" />
 <path d="  M 11,48  L 12,48  L 12,43  L 11,43  Z  " style="fill:rgb(213, 107, 43); fill-opacity:1.000; stroke:none;" />
 <path d="  M 13,37  L 13,35  L 12,35  L 12,37  Z  " style="fill:rgb(213, 107, 43); fill-opacity:1.000; stroke:none;" />
 <path d="  M 12,41  L 12,43  L 13,43  L 13,41  Z  " style="fill:rgb(213, 107, 43); fill-opacity:1.000; stroke:none;" />
 <path d="  M 12,48  L 12,50  L 13,50  L 13,48  Z  " style="fill:rgb(213, 107, 43); fill-opacity:1.000; stroke:none;" />
 <path d="  M 14,23  L 13,23  L 13,25  L 14,25  L 14,24  L 15,24  L 15,23  L 17,23  L 17,24  L 18,24  L 18,22  L 14,22  Z  " style="fill:rgb(213, 107, 43); fill-opacity:1.000; stroke:none;" />
 <path d="  M 13,27  L 13,28  L 14,28  L 14,27  Z  " style="fill:rgb(213, 107, 43); fill-opacity:1.000; stroke:none;" />
 <path d="  M 13,41  L 14,41  L 14,37  L 13,37  Z  " style="fill:rgb(213, 107, 43); fill-opacity:1.000; stroke:none;" />
 <path d="  M 14,50  L 13,50  L 13,52  L 14,52  Z  " style="fill:rgb(213, 107, 43); fill-opacity:1.000; stroke:none;" />
 <path d="  M 14,25  L 14,26  L 15,26  L 15,25  Z  " style="fill:rgb(213, 107, 43); fill-opacity:1.000; stroke:none;" />
 <path d="  M 15,43  L 14,43  L 14,44  L 15,44  Z  " style="fill:rgb(213, 107, 43); fill-opacity:1.000; stroke:none;" />
 <path d="  M 14,53  L 16,53  L 16,52  L 14,52  Z  " style="fill:rgb(213, 107, 43); fill-opacity:1.000; stroke:none;" />
 <path d="  M 16,44  L 15,44  L 15,45  L 16,45  Z  " style="fill:rgb(213, 107, 43); fill-opacity:1.000; stroke:none;" />
 <path d="  M 17,36  L 17,35  L 16,35  L 16,36  Z  " style="fill:rgb(213, 107, 43); fill-opacity:1.000; stroke:none;" />
 <path d="  M 17,42  L 16,42  L 16,43  L 17,43  Z  " style="fill:rgb(213, 107, 43); fill-opacity:1.000; stroke:none;" />
 <path d="  M 23,54  L 23,53  L 16,53  L 16,54  Z  " style="fill:rgb(213, 107, 43); fill-opacity:1.000; stroke:none;" />
 <path d="  M 18,37  L 18,36  L 17,36  L 17,37  Z  " style="fill:rgb(213, 107, 43); fill-opacity:1.000; stroke:none;" />
 <path d="  M 17,42  L 19,42  L 19,41  L 21,41  L 21,40  L 18,40  L 18,41  L 17,41  Z  " style="fill:rgb(213, 107, 43); fill-opacity:1.000; stroke:none;" />
 <path d="  M 18,24  L 18,25  L 19,25  L 19,24  Z  " style="fill:rgb(213, 107, 43); fill-opacity:1.000; stroke:none;" />
 <path d="  M 21,36  L 21,35  L 20,35  L 20,36  Z  " style="fill:rgb(213, 107, 43); fill-opacity:1.000; stroke:none;" />
 <path d="  M 21,23  L 22,23  L 22,24  L 23,24  L 23,23  L 24,23  L 24,22  L 21,22  Z  " style="fill:rgb(213, 107, 43); fill-opacity:1.000; stroke:none;" />
 <path d="  M 23,35  L 23,36  L 24,36  L 24,34  L 23,34  L 23,33  L 22,33  L 22,34  L 21,34  L 21,35  Z  " style="fill:rgb(213, 107, 43); fill-opacity:1.000; stroke:none;" />
 <path d="  M 21,41  L 21,42  L 22,42  L 22,41  Z  " style="fill:rgb(213, 107, 43); fill-opacity:1.000; stroke:none;" />
 <path d="  M 22,41  L 23,41  L 23,40  L 22,40  Z  " style="fill:rgb(213, 107, 43); fill-opacity:1.000; stroke:none;" />
 <path d="  M 26,25  L 26,24  L 28,24  L 28,23  L 29,23  L 29,24  L 32,24  L 32,23  L 31,23  L 31,22  L 27,22  L 27,23  L 25,23  L 25,24  L 23,24  L 23,26  L 24,26  L 24,25  Z  " style="fill:rgb(213, 107, 43); fill-opacity:1.000; stroke:none;" />
 <path d="  M 24,33  L 24,32  L 23,32  L 23,33  Z  " style="fill:rgb(213, 107, 43); fill-opacity:1.000; stroke:none;" />
 <path d="  M 23,53  L 25,53  L 25,52  L 23,52  Z  " style="fill:rgb(213, 107, 43); fill-opacity:1.000; stroke:none;" />
 <path d="  M 24,37  L 25,37  L 25,36  L 24,36  Z  " style="fill:rgb(213, 107, 43); fill-opacity:1.000; stroke:none;" />
 <path d="  M 25,32  L 26,32  L 26,31  L 25,31  Z  " style="fill:rgb(213, 107, 43); fill-opacity:1.000; stroke:none;" />
 <path d="  M 25,37  L 25,38  L 26,38  L 26,37  Z  " style="fill:rgb(213, 107, 43); fill-opacity:1.000; stroke:none;" />
 <path d="  M 28,52  L 28,51  L 25,51  L 25,52  Z  " style="fill:rgb(213, 107, 43); fill-opacity:1.000; stroke:none;" />
 <path d="  M 26,48  L 26,49  L 27,49  L 27,48  Z  " style="fill:rgb(213, 107, 43); fill-opacity:1.000; stroke:none;" />
 <path d="  M 29,43  L 29,42  L 28,42  L 28,43  Z  " style="fill:rgb(213, 107, 43); fill-opacity:1.000; stroke:none;" />
 <path d="  M 28,48  L 28,49  L 29,49  L 29,48  Z  " style="fill:rgb(213, 107, 43); fill-opacity:1.000; stroke:none;" />
 <path d="  M 29,52  L 28,52  L 28,53  L 29,53  Z  " style="fill:rgb(213, 107, 43); fill-opacity:1.000; stroke:none;" />
 <path d="  M 29,32  L 30,32  L 30,31  L 31,31  L 31,29  L 30,29  L 30,30  L 29,30  Z  " style="fill:rgb(213, 107, 43); fill-opacity:1.000; stroke:none;" />
 <path d="  M 29,41  L 29,42  L 31,42  L 31,41  L 33,41  L 33,40  L 30,40  L 30,41  Z  " style="fill:rgb(213, 107, 43); fill-opacity:1.000; stroke:none;" />
 <path d="  M 29,50  L 30,50  L 30,49  L 29,49  Z  " style="fill:rgb(213, 107, 43); fill-opacity:1.000; stroke:none;" />
 <path d="  M 29,54  L 30,54  L 30,53  L 29,53  Z  " style="fill:rgb(213, 107, 43); fill-opacity:1.000; stroke:none;" />
 <path d="  M 31,32  L 30,32  L 30,33  L 31,33  Z  " style="fill:rgb(213, 107, 43); fill-opacity:1.000; stroke:none;" />
 <path d="  M 31,44  L 30,44  L 30,45  L 31,45  Z  " style="fill:rgb(213, 107, 43); fill-opacity:1.000; stroke:none;" />
 <path d="  M 30,55  L 31,55  L 31,54  L 30,54  Z  " style="fill:rgb(213, 107, 43); fill-opacity:1.000; stroke:none;" />
 <path d="  M 32,21  L 31,21  L 31,22  L 32,22  Z  " style="fill:rgb(213, 107, 43); fill-opacity:1.000; stroke:none;" />
 <path d="  M 31,29  L 32,29  L 32,28  L 31,28  Z  " style="fill:rgb(213, 107, 43); fill-opacity:1.000; stroke:none;" />
 <path d="  M 32,44  L 32,43  L 31,43  L 31,44  Z  " style="fill:rgb(213, 107, 43); fill-opacity:1.000; stroke:none;" />
 <path d="  M 31,55  L 31,56  L 32,56  L 32,55  Z  " style="fill:rgb(213, 107, 43); fill-opacity:1.000; stroke:none;" />
 <path d="  M 33,7  L 33,6  L 32,6  L 32,7  Z  " style="fill:rgb(213, 107, 43); fill-opacity:1.000; stroke:none;" />
 <path d="  M 32,19  L 32,20  L 33,20  L 33,19  Z  " style="fill:rgb(213, 107, 43); fill-opacity:1.000; stroke:none;" />
 <path d="  M 33,29  L 32,29  L 32,30  L 33,30  Z  " style="fill:rgb(213, 107, 43); fill-opacity:1.000; stroke:none;" />
 <path d="  M 37,49  L 37,51  L 36,51  L 36,53  L 37,53  L 37,52  L 38,52  L 38,51  L 39,51  L 39,50  L 38,50  L 38,46  L 37,46  L 37,48  L 36,48  L 36,47  L 35,47  L 35,48  L 33,48  L 33,49  L 32,49  L 32,50  L 34,50  L 34,49  L 35,49  L 35,50  L 36,50  L 36,49  Z  " style="fill:rgb(213, 107, 43); fill-opacity:1.000; stroke:none;" />
 <path d="  M 32,56  L 32,57  L 34,57  L 34,56  Z  " style="fill:rgb(213, 107, 43); fill-opacity:1.000; stroke:none;" />
 <path d="  M 33,7  L 33,8  L 34,8  L 34,7  Z  " style="fill:rgb(213, 107, 43); fill-opacity:1.000; stroke:none;" />
 <path d="  M 33,18  L 33,19  L 34,19  L 34,18  Z  " style="fill:rgb(213, 107, 43); fill-opacity:1.000; stroke:none;" />
 <path d="  M 35,43  L 35,42  L 37,42  L 37,41  L 38,41  L 38,40  L 36,40  L 36,41  L 33,41  L 33,42  L 34,42  L 34,43  Z  " style="fill:rgb(213, 107, 43); fill-opacity:1.000; stroke:none;" />
 <path d="  M 35,8  L 34,8  L 34,10  L 35,10  Z  " style="fill:rgb(213, 107, 43); fill-opacity:1.000; stroke:none;" />
 <path d="  M 34,13  L 35,13  L 35,12  L 34,12  Z  " style="fill:rgb(213, 107, 43); fill-opacity:1.000; stroke:none;" />
 <path d="  M 35,54  L 35,53  L 34,53  L 34,54  Z  " style="fill:rgb(213, 107, 43); fill-opacity:1.000; stroke:none;" />
 <path d="  M 35,57  L 34,57  L 34,58  L 36,58  L 36,56  L 38,56  L 38,53  L 37,53  L 37,55  L 36,55  L 36,54  L 35,54  Z  " style="fill:rgb(213, 107, 43); fill-opacity:1.000; stroke:none;" />
 <path d="  M 35,13  L 35,16  L 36,16  L 36,13  Z  " style="fill:rgb(213, 107, 43); fill-opacity:1.000; stroke:none;" />
 <path d="  M 36,19  L 38,19  L 38,18  L 37,18  L 37,17  L 35,17  L 35,18  L 36,18  Z  " style="fill:rgb(213, 107, 43); fill-opacity:1.000; stroke:none;" />
 <path d="  M 35,20  L 36,20  L 36,19  L 35,19  Z  " style="fill:rgb(213, 107, 43); fill-opacity:1.000; stroke:none;" />
 <path d="  M 35,39  L 35,40  L 36,40  L 36,39  Z  " style="fill:rgb(213, 107, 43); fill-opacity:1.000; stroke:none;" />
 <path d="  M 37,15  L 37,16  L 38,16  L 38,15  Z  " style="fill:rgb(213, 107, 43); fill-opacity:1.000; stroke:none;" />
 <path d="  M 40,22  L 40,21  L 41,21  L 41,19  L 40,19  L 40,20  L 39,20  L 39,22  Z  " style="fill:rgb(213, 107, 43); fill-opacity:1.000; stroke:none;" />
 <path d="  M 40,39  L 40,38  L 39,38  L 39,39  Z  " style="fill:rgb(213, 107, 43); fill-opacity:1.000; stroke:none;" />
 <path d="  M 39,54  L 40,54  L 40,55  L 41,55  L 41,53  L 40,53  L 40,51  L 39,51  Z  " style="fill:rgb(213, 107, 43); fill-opacity:1.000; stroke:none;" />
 <path d="  M 40,17  L 40,18  L 41,18  L 41,17  Z  " style="fill:rgb(213, 107, 43); fill-opacity:1.000; stroke:none;" />
 <path d="  M 42,18  L 41,18  L 41,19  L 42,19  Z  " style="fill:rgb(213, 107, 43); fill-opacity:1.000; stroke:none;" />
 <path d="  M 44,29  L 44,28  L 41,28  L 41,29  Z  " style="fill:rgb(213, 107, 43); fill-opacity:1.000; stroke:none;" />
 <path d="  M 42,55  L 41,55  L 41,56  L 42,56  Z  " style="fill:rgb(213, 107, 43); fill-opacity:1.000; stroke:none;" />
 <path d="  M 45,16  L 43,16  L 43,17  L 42,17  L 42,18  L 44,18  L 44,17  L 45,17  Z  " style="fill:rgb(213, 107, 43); fill-opacity:1.000; stroke:none;" />
 <path d="  M 43,49  L 42,49  L 42,51  L 43,51  Z  " style="fill:rgb(213, 107, 43); fill-opacity:1.000; stroke:none;" />
 <path d="  M 42,53  L 43,53  L 43,52  L 42,52  Z  " style="fill:rgb(213, 107, 43); fill-opacity:1.000; stroke:none;" />
 <path d="  M 45,37  L 43,37  L 43,39  L 44,39  L 44,38  L 45,38  Z  " style="fill:rgb(213, 107, 43); fill-opacity:1.000; stroke:none;" />
 <path d="  M 44,52  L 44,51  L 43,51  L 43,52  Z  " style="fill:rgb(213, 107, 43); fill-opacity:1.000; stroke:none;" />
 <path d="  M 45,19  L 45,18  L 44,18  L 44,19  Z  " style="fill:rgb(213, 107, 43); fill-opacity:1.000; stroke:none;" />
 <path d="  M 44,30  L 45,30  L 45,31  L 46,31  L 46,30  L 47,30  L 47,29  L 46,29  L 46,28  L 45,28  L 45,29  L 44,29  Z  " style="fill:rgb(213, 107, 43); fill-opacity:1.000; stroke:none;" />
 <path d="  M 45,45  L 45,43  L 44,43  L 44,45  Z  " style="fill:rgb(213, 107, 43); fill-opacity:1.000; stroke:none;" />
 <path d="  M 44,49  L 44,50  L 45,50  L 45,49  Z  " style="fill:rgb(213, 107, 43); fill-opacity:1.000; stroke:none;" />
 <path d="  M 46,18  L 46,17  L 45,17  L 45,18  Z  " style="fill:rgb(213, 107, 43); fill-opacity:1.000; stroke:none;" />
 <path d="  M 46,38  L 48,38  L 48,37  L 47,37  L 47,36  L 48,36  L 48,35  L 46,35  L 46,36  L 45,36  L 45,37  L 46,37  Z  " style="fill:rgb(213, 107, 43); fill-opacity:1.000; stroke:none;" />
 <path d="  M 47,42  L 46,42  L 46,40  L 45,40  L 45,43  L 46,43  L 46,44  L 47,44  Z  " style="fill:rgb(213, 107, 43); fill-opacity:1.000; stroke:none;" />
 <path d="  M 46,45  L 45,45  L 45,46  L 46,46  Z  " style="fill:rgb(213, 107, 43); fill-opacity:1.000; stroke:none;" />
 <path d="  M 45,48  L 45,49  L 46,49  L 46,48  Z  " style="fill:rgb(213, 107, 43); fill-opacity:1.000; stroke:none;" />
 <path d="  M 49,13  L 49,12  L 46,12  L 46,13  Z  " style="fill:rgb(213, 107, 43); fill-opacity:1.000; stroke:none;" />
 <path d="  M 46,28  L 47,28  L 47,27  L 46,27  Z  " style="fill:rgb(213, 107, 43); fill-opacity:1.000; stroke:none;" />
 <path d="  M 46,48  L 47,48  L 47,46  L 46,46  Z  " style="fill:rgb(213, 107, 43); fill-opacity:1.000; stroke:none;" />
 <path d="  M 47,30  L 47,31  L 49,31  L 49,30  Z  " style="fill:rgb(213, 107, 43); fill-opacity:1.000; stroke:none;" />
 <path d="  M 48,45  L 48,44  L 47,44  L 47,45  Z  " style="fill:rgb(213, 107, 43); fill-opacity:1.000; stroke:none;" />
 <path d="  M 48,35  L 49,35  L 49,34  L 48,34  Z  " style="fill:rgb(213, 107, 43); fill-opacity:1.000; stroke:none;" />
 <path d="  M 48,42  L 48,44  L 49,44  L 49,42  Z  " style="fill:rgb(213, 107, 43); fill-opacity:1.000; stroke:none;" />
 <path d="  M 49,45  L 48,45  L 48,47  L 49,47  L 49,48  L 50,48  L 50,46  L 49,46  Z  " style="fill:rgb(213, 107, 43); fill-opacity:1.000; stroke:none;" />
 <path d="  M 49,13  L 49,14  L 50,14  L 50,13  Z  " style="fill:rgb(213, 107, 43); fill-opacity:1.000; stroke:none;" />
 <path d="  M 51,14  L 50,14  L 50,16  L 51,16  Z  " style="fill:rgb(213, 107, 43); fill-opacity:1.000; stroke:none;" />
 <path d="  M 51,26  L 50,26  L 50,31  L 51,31  Z  " style="fill:rgb(213, 107, 43); fill-opacity:1.000; stroke:none;" />
 <path d="  M 51,43  L 50,43  L 50,46  L 51,46  Z  " style="fill:rgb(213, 107, 43); fill-opacity:1.000; stroke:none;" />
 <path d="  M 51,18  L 52,18  L 52,16  L 51,16  Z  " style="fill:rgb(213, 107, 43); fill-opacity:1.000; stroke:none;" />
 <path d="  M 52,24  L 51,24  L 51,26  L 52,26  Z  " style="fill:rgb(213, 107, 43); fill-opacity:1.000; stroke:none;" />
 <path d="  M 52,32  L 52,31  L 51,31  L 51,32  Z  " style="fill:rgb(213, 107, 43); fill-opacity:1.000; stroke:none;" />
 <path d="  M 52,41  L 51,41  L 51,43  L 52,43  Z  " style="fill:rgb(213, 107, 43); fill-opacity:1.000; stroke:none;" />
 <path d="  M 53,18  L 52,18  L 52,24  L 53,24  Z  " style="fill:rgb(213, 107, 43); fill-opacity:1.000; stroke:none;" />
 <path d="  M 53,33  L 53,32  L 52,32  L 52,33  Z  " style="fill:rgb(213, 107, 43); fill-opacity:1.000; stroke:none;" />
 <path d="  M 52,41  L 53,41  L 53,40  L 52,40  Z  " style="fill:rgb(213, 107, 43); fill-opacity:1.000; stroke:none;" />
 <path d="  M 53,45  L 53,44  L 52,44  L 52,45  Z  " style="fill:rgb(213, 107, 43); fill-opacity:1.000; stroke:none;" />
 <path d="  M 53,34  L 54,34  L 54,33  L 53,33  Z  " style="fill:rgb(213, 107, 43); fill-opacity:1.000; stroke:none;" />
 <path d="  M 55,42  L 55,40  L 54,40  L 54,41  L 53,41  L 53,42  Z  " style="fill:rgb(213, 107, 43); fill-opacity:1.000; stroke:none;" />
 <path d="  M 55,34  L 54,34  L 54,36  L 55,36  Z  " style="fill:rgb(213, 107, 43); fill-opacity:1.000; stroke:none;" />
 <path d="  M 56,36  L 55,36  L 55,40  L 56,40  Z  " style="fill:rgb(213, 107, 43); fill-opacity:1.000; stroke:none;" />
</svg>
