<?xml version="1.0" encoding="UTF-8" standalone="no"?>
<!DOCTYPE svg PUBLIC "-//W3C//DTD SVG 1.1//EN" 
  "http://www.w3.org/Graphics/SVG/1.1/DTD/svg11.dtd">
<svg width="64" height="64"
	 xmlns="http://www.w3.org/2000/svg" version="1.1">
 <path d="  M 6,17  L 5,17  L 5,21  L 6,21  Z  " style="fill:rgb(48, 48, 48); fill-opacity:1.000; stroke:none;" />
 <path d="  M 6,23  L 7,23  L 7,21  L 6,21  Z  " style="fill:rgb(48, 48, 48); fill-opacity:1.000; stroke:none;" />
 <path d="  M 7,24  L 8,24  L 8,23  L 7,23  Z  " style="fill:rgb(48, 48, 48); fill-opacity:1.000; stroke:none;" />
 <path d="  M 8,24  L 8,25  L 9,25  L 9,24  Z  " style="fill:rgb(48, 48, 48); fill-opacity:1.000; stroke:none;" />
 <path d="  M 9,25  L 9,26  L 11,26  L 11,25  Z  " style="fill:rgb(48, 48, 48); fill-opacity:1.000; stroke:none;" />
 <path d="  M 14,26  L 11,26  L 11,27  L 14,27  Z  " style="fill:rgb(48, 48, 48); fill-opacity:1.000; stroke:none;" />
 <path d="  M 14,28  L 14,29  L 15,29  L 15,28  Z  " style="fill:rgb(48, 48, 48); fill-opacity:1.000; stroke:none;" />
 <path d="  M 43,22  L 43,21  L 46,21  L 46,20  L 48,20  L 48,19  L 49,19  L 49,17  L 46,17  L 46,16  L 43,16  L 43,15  L 21,15  L 21,16  L 18,16  L 18,17  L 15,17  L 15,19  L 16,19  L 16,20  L 18,20  L 18,21  L 21,21  L 21,22  Z  " style="fill:rgb(48, 48, 48); fill-opacity:1.000; stroke:none;" />
 <path d="  M 34,59  L 33,59  L 33,60  L 34,60  Z  " style="fill:rgb(48, 48, 48); fill-opacity:1.000; stroke:none;" />
 <path d="  M 35,58  L 34,58  L 34,59  L 35,59  Z  " style="fill:rgb(48, 48, 48); fill-opacity:1.000; stroke:none;" />
 <path d="  M 36,58  L 36,56  L 35,56  L 35,58  Z  " style="fill:rgb(48, 48, 48); fill-opacity:1.000; stroke:none;" />
 <path d="  M 36,56  L 37,56  L 37,54  L 36,54  Z  " style="fill:rgb(48, 48, 48); fill-opacity:1.000; stroke:none;" />
 <path d="  M 37,52  L 37,54  L 38,54  L 38,52  Z  " style="fill:rgb(48, 48, 48); fill-opacity:1.000; stroke:none;" />
 <path d="  M 39,50  L 38,50  L 38,52  L 39,52  Z  " style="fill:rgb(48, 48, 48); fill-opacity:1.000; stroke:none;" />
 <path d="  M 40,50  L 40,48  L 39,48  L 39,50  Z  " style="fill:rgb(48, 48, 48); fill-opacity:1.000; stroke:none;" />
 <path d="  M 41,48  L 41,46  L 40,46  L 40,48  Z  " style="fill:rgb(48, 48, 48); fill-opacity:1.000; stroke:none;" />
 <path d="  M 42,44  L 41,44  L 41,46  L 42,46  Z  " style="fill:rgb(48, 48, 48); fill-opacity:1.000; stroke:none;" />
 <path d="  M 43,42  L 42,42  L 42,44  L 43,44  Z  " style="fill:rgb(48, 48, 48); fill-opacity:1.000; stroke:none;" />
 <path d="  M 43,42  L 44,42  L 44,40  L 43,40  Z  " style="fill:rgb(48, 48, 48); fill-opacity:1.000; stroke:none;" />
 <path d="  M 45,38  L 44,38  L 44,40  L 45,40  Z  " style="fill:rgb(48, 48, 48); fill-opacity:1.000; stroke:none;" />
 <path d="  M 45,38  L 46,38  L 46,36  L 45,36  Z  " style="fill:rgb(48, 48, 48); fill-opacity:1.000; stroke:none;" />
 <path d="  M 47,34  L 46,34  L 46,36  L 47,36  Z  " style="fill:rgb(48, 48, 48); fill-opacity:1.000; stroke:none;" />
 <path d="  M 48,32  L 47,32  L 47,34  L 48,34  Z  " style="fill:rgb(48, 48, 48); fill-opacity:1.000; stroke:none;" />
 <path d="  M 48,30  L 48,32  L 49,32  L 49,30  Z  " style="fill:rgb(48, 48, 48); fill-opacity:1.000; stroke:none;" />
 <path d="  M 49,26  L 49,27  L 50,27  L 50,28  L 51,28  L 51,27  L 53,27  L 53,26  Z  " style="fill:rgb(48, 48, 48); fill-opacity:1.000; stroke:none;" />
 <path d="  M 50,28  L 49,28  L 49,30  L 50,30  Z  " style="fill:rgb(48, 48, 48); fill-opacity:1.000; stroke:none;" />
 <path d="  M 53,25  L 53,26  L 55,26  L 55,25  Z  " style="fill:rgb(48, 48, 48); fill-opacity:1.000; stroke:none;" />
 <path d="  M 56,25  L 56,24  L 55,24  L 55,25  Z  " style="fill:rgb(48, 48, 48); fill-opacity:1.000; stroke:none;" />
 <path d="  M 57,23  L 56,23  L 56,24  L 57,24  Z  " style="fill:rgb(48, 48, 48); fill-opacity:1.000; stroke:none;" />
 <path d="  M 57,23  L 58,23  L 58,21  L 57,21  Z  " style="fill:rgb(48, 48, 48); fill-opacity:1.000; stroke:none;" />
 <path d="  M 58,21  L 59,21  L 59,17  L 58,17  Z  " style="fill:rgb(48, 48, 48); fill-opacity:1.000; stroke:none;" />
 <path d="  M 7,15  L 6,15  L 6,18  L 7,18  L 7,16  L 8,16  L 8,14  L 7,14  Z  " style="fill:rgb(62, 62, 62); fill-opacity:1.000; stroke:none;" />
 <path d="  M 6,21  L 7,21  L 7,20  L 6,20  Z  " style="fill:rgb(62, 62, 62); fill-opacity:1.000; stroke:none;" />
 <path d="  M 7,22  L 7,23  L 8,23  L 8,22  Z  " style="fill:rgb(62, 62, 62); fill-opacity:1.000; stroke:none;" />
 <path d="  M 8,14  L 9,14  L 9,13  L 8,13  Z  " style="fill:rgb(62, 62, 62); fill-opacity:1.000; stroke:none;" />
 <path d="  M 9,24  L 9,23  L 8,23  L 8,24  Z  " style="fill:rgb(62, 62, 62); fill-opacity:1.000; stroke:none;" />
 <path d="  M 9,12  L 9,13  L 11,13  L 11,12  Z  " style="fill:rgb(62, 62, 62); fill-opacity:1.000; stroke:none;" />
 <path d="  M 9,24  L 9,25  L 11,25  L 11,24  Z  " style="fill:rgb(62, 62, 62); fill-opacity:1.000; stroke:none;" />
 <path d="  M 11,11  L 11,12  L 14,12  L 14,11  Z  " style="fill:rgb(62, 62, 62); fill-opacity:1.000; stroke:none;" />
 <path d="  M 13,25  L 11,25  L 11,26  L 13,26  Z  " style="fill:rgb(62, 62, 62); fill-opacity:1.000; stroke:none;" />
 <path d="  M 12,19  L 13,19  L 13,17  L 12,17  Z  " style="fill:rgb(62, 62, 62); fill-opacity:1.000; stroke:none;" />
 <path d="  M 13,19  L 13,20  L 14,20  L 14,19  Z  " style="fill:rgb(62, 62, 62); fill-opacity:1.000; stroke:none;" />
 <path d="  M 20,28  L 20,27  L 17,27  L 17,26  L 14,26  L 14,27  L 13,27  L 13,28  Z  " style="fill:rgb(62, 62, 62); fill-opacity:1.000; stroke:none;" />
 <path d="  M 14,10  L 14,11  L 20,11  L 20,10  Z  " style="fill:rgb(62, 62, 62); fill-opacity:1.000; stroke:none;" />
 <path d="  M 15,29  L 14,29  L 14,30  L 15,30  Z  " style="fill:rgb(62, 62, 62); fill-opacity:1.000; stroke:none;" />
 <path d="  M 18,16  L 18,15  L 15,15  L 15,16  Z  " style="fill:rgb(62, 62, 62); fill-opacity:1.000; stroke:none;" />
 <path d="  M 15,20  L 15,21  L 16,21  L 16,20  Z  " style="fill:rgb(62, 62, 62); fill-opacity:1.000; stroke:none;" />
 <path d="  M 15,30  L 15,32  L 16,32  L 16,30  Z  " style="fill:rgb(62, 62, 62); fill-opacity:1.000; stroke:none;" />
 <path d="  M 17,32  L 16,32  L 16,34  L 17,34  Z  " style="fill:rgb(62, 62, 62); fill-opacity:1.000; stroke:none;" />
 <path d="  M 17,36  L 18,36  L 18,34  L 17,34  Z  " style="fill:rgb(62, 62, 62); fill-opacity:1.000; stroke:none;" />
 <path d="  M 18,38  L 19,38  L 19,36  L 18,36  Z  " style="fill:rgb(62, 62, 62); fill-opacity:1.000; stroke:none;" />
 <path d="  M 20,40  L 20,38  L 19,38  L 19,40  Z  " style="fill:rgb(62, 62, 62); fill-opacity:1.000; stroke:none;" />
 <path d="  M 44,10  L 44,9  L 20,9  L 20,10  Z  " style="fill:rgb(62, 62, 62); fill-opacity:1.000; stroke:none;" />
 <path d="  M 20,14  L 20,15  L 22,15  L 22,14  Z  " style="fill:rgb(62, 62, 62); fill-opacity:1.000; stroke:none;" />
 <path d="  M 44,29  L 44,28  L 20,28  L 20,29  Z  " style="fill:rgb(62, 62, 62); fill-opacity:1.000; stroke:none;" />
 <path d="  M 21,42  L 21,40  L 20,40  L 20,42  Z  " style="fill:rgb(62, 62, 62); fill-opacity:1.000; stroke:none;" />
 <path d="  M 22,42  L 21,42  L 21,44  L 22,44  Z  " style="fill:rgb(62, 62, 62); fill-opacity:1.000; stroke:none;" />
 <path d="  M 22,46  L 23,46  L 23,44  L 22,44  Z  " style="fill:rgb(62, 62, 62); fill-opacity:1.000; stroke:none;" />
 <path d="  M 23,48  L 24,48  L 24,46  L 23,46  Z  " style="fill:rgb(62, 62, 62); fill-opacity:1.000; stroke:none;" />
 <path d="  M 25,48  L 24,48  L 24,50  L 25,50  Z  " style="fill:rgb(62, 62, 62); fill-opacity:1.000; stroke:none;" />
 <path d="  M 26,50  L 25,50  L 25,52  L 26,52  Z  " style="fill:rgb(62, 62, 62); fill-opacity:1.000; stroke:none;" />
 <path d="  M 26,52  L 26,54  L 27,54  L 27,52  Z  " style="fill:rgb(62, 62, 62); fill-opacity:1.000; stroke:none;" />
 <path d="  M 27,54  L 27,56  L 28,56  L 28,54  Z  " style="fill:rgb(62, 62, 62); fill-opacity:1.000; stroke:none;" />
 <path d="  M 28,58  L 29,58  L 29,56  L 28,56  Z  " style="fill:rgb(62, 62, 62); fill-opacity:1.000; stroke:none;" />
 <path d="  M 30,58  L 29,58  L 29,59  L 30,59  Z  " style="fill:rgb(62, 62, 62); fill-opacity:1.000; stroke:none;" />
 <path d="  M 33,60  L 33,59  L 30,59  L 30,60  Z  " style="fill:rgb(62, 62, 62); fill-opacity:1.000; stroke:none;" />
 <path d="  M 44,14  L 42,14  L 42,15  L 44,15  Z  " style="fill:rgb(62, 62, 62); fill-opacity:1.000; stroke:none;" />
 <path d="  M 50,11  L 50,10  L 44,10  L 44,11  Z  " style="fill:rgb(62, 62, 62); fill-opacity:1.000; stroke:none;" />
 <path d="  M 49,26  L 47,26  L 47,27  L 44,27  L 44,28  L 47,28  L 47,29  L 48,29  L 48,30  L 49,30  L 49,28  L 50,28  L 50,27  L 49,27  Z  " style="fill:rgb(62, 62, 62); fill-opacity:1.000; stroke:none;" />
 <path d="  M 46,15  L 46,16  L 49,16  L 49,15  Z  " style="fill:rgb(62, 62, 62); fill-opacity:1.000; stroke:none;" />
 <path d="  M 47,29  L 46,29  L 46,30  L 47,30  Z  " style="fill:rgb(62, 62, 62); fill-opacity:1.000; stroke:none;" />
 <path d="  M 48,31  L 48,30  L 47,30  L 47,31  Z  " style="fill:rgb(62, 62, 62); fill-opacity:1.000; stroke:none;" />
 <path d="  M 48,20  L 48,21  L 49,21  L 49,20  Z  " style="fill:rgb(62, 62, 62); fill-opacity:1.000; stroke:none;" />
 <path d="  M 53,12  L 53,11  L 50,11  L 50,12  Z  " style="fill:rgb(62, 62, 62); fill-opacity:1.000; stroke:none;" />
 <path d="  M 50,20  L 51,20  L 51,19  L 50,19  Z  " style="fill:rgb(62, 62, 62); fill-opacity:1.000; stroke:none;" />
 <path d="  M 51,17  L 51,19  L 52,19  L 52,17  Z  " style="fill:rgb(62, 62, 62); fill-opacity:1.000; stroke:none;" />
 <path d="  M 51,25  L 51,26  L 53,26  L 53,25  Z  " style="fill:rgb(62, 62, 62); fill-opacity:1.000; stroke:none;" />
 <path d="  M 55,12  L 53,12  L 53,13  L 55,13  Z  " style="fill:rgb(62, 62, 62); fill-opacity:1.000; stroke:none;" />
 <path d="  M 55,25  L 55,24  L 53,24  L 53,25  Z  " style="fill:rgb(62, 62, 62); fill-opacity:1.000; stroke:none;" />
 <path d="  M 56,14  L 56,13  L 55,13  L 55,14  Z  " style="fill:rgb(62, 62, 62); fill-opacity:1.000; stroke:none;" />
 <path d="  M 55,23  L 55,24  L 56,24  L 56,23  Z  " style="fill:rgb(62, 62, 62); fill-opacity:1.000; stroke:none;" />
 <path d="  M 58,15  L 57,15  L 57,14  L 56,14  L 56,16  L 57,16  L 57,18  L 58,18  Z  " style="fill:rgb(62, 62, 62); fill-opacity:1.000; stroke:none;" />
 <path d="  M 56,22  L 56,23  L 57,23  L 57,22  Z  " style="fill:rgb(62, 62, 62); fill-opacity:1.000; stroke:none;" />
 <path d="  M 58,21  L 58,20  L 57,20  L 57,21  Z  " style="fill:rgb(62, 62, 62); fill-opacity:1.000; stroke:none;" />
 <path d="  M 7,20  L 7,18  L 6,18  L 6,20  Z  " style="fill:rgb(65, 68, 65); fill-opacity:1.000; stroke:none;" />
 <path d="  M 8,16  L 7,16  L 7,18  L 8,18  Z  " style="fill:rgb(65, 68, 65); fill-opacity:1.000; stroke:none;" />
 <path d="  M 20,28  L 44,28  L 44,27  L 47,27  L 47,26  L 51,26  L 51,25  L 53,25  L 53,24  L 55,24  L 55,23  L 56,23  L 56,22  L 57,22  L 57,20  L 56,20  L 56,21  L 55,21  L 55,22  L 54,22  L 54,23  L 52,23  L 52,24  L 49,24  L 49,25  L 46,25  L 46,26  L 42,26  L 42,27  L 22,27  L 22,26  L 18,26  L 18,25  L 15,25  L 15,24  L 12,24  L 12,23  L 10,23  L 10,22  L 9,22  L 9,21  L 8,21  L 8,20  L 7,20  L 7,22  L 8,22  L 8,23  L 9,23  L 9,24  L 11,24  L 11,25  L 13,25  L 13,26  L 17,26  L 17,27  L 20,27  Z  " style="fill:rgb(65, 68, 65); fill-opacity:1.000; stroke:none;" />
 <path d="  M 8,14  L 8,15  L 9,15  L 9,14  Z  " style="fill:rgb(65, 68, 65); fill-opacity:1.000; stroke:none;" />
 <path d="  M 8,19  L 8,20  L 9,20  L 9,19  Z  " style="fill:rgb(65, 68, 65); fill-opacity:1.000; stroke:none;" />
 <path d="  M 10,13  L 9,13  L 9,14  L 10,14  Z  " style="fill:rgb(65, 68, 65); fill-opacity:1.000; stroke:none;" />
 <path d="  M 10,21  L 10,20  L 9,20  L 9,21  Z  " style="fill:rgb(65, 68, 65); fill-opacity:1.000; stroke:none;" />
 <path d="  M 12,17  L 13,17  L 13,16  L 15,16  L 15,15  L 20,15  L 20,14  L 14,14  L 14,15  L 12,15  Z  " style="fill:rgb(65, 68, 65); fill-opacity:1.000; stroke:none;" />
 <path d="  M 15,20  L 14,20  L 14,21  L 15,21  Z  " style="fill:rgb(65, 68, 65); fill-opacity:1.000; stroke:none;" />
 <path d="  M 15,29  L 20,29  L 20,28  L 15,28  Z  " style="fill:rgb(65, 68, 65); fill-opacity:1.000; stroke:none;" />
 <path d="  M 16,21  L 16,22  L 18,22  L 18,21  Z  " style="fill:rgb(65, 68, 65); fill-opacity:1.000; stroke:none;" />
 <path d="  M 20,12  L 19,12  L 19,13  L 20,13  Z  " style="fill:rgb(65, 68, 65); fill-opacity:1.000; stroke:none;" />
 <path d="  M 20,22  L 19,22  L 19,23  L 20,23  Z  " style="fill:rgb(65, 68, 65); fill-opacity:1.000; stroke:none;" />
 <path d="  M 27,14  L 28,14  L 28,13  L 30,13  L 30,12  L 24,12  L 24,13  L 20,13  L 20,14  L 25,14  L 25,13  L 27,13  Z  " style="fill:rgb(65, 68, 65); fill-opacity:1.000; stroke:none;" />
 <path d="  M 23,11  L 23,12  L 24,12  L 24,11  Z  " style="fill:rgb(65, 68, 65); fill-opacity:1.000; stroke:none;" />
 <path d="  M 23,29  L 23,30  L 26,30  L 26,29  Z  " style="fill:rgb(65, 68, 65); fill-opacity:1.000; stroke:none;" />
 <path d="  M 39,24  L 39,23  L 25,23  L 25,24  Z  " style="fill:rgb(65, 68, 65); fill-opacity:1.000; stroke:none;" />
 <path d="  M 31,14  L 31,13  L 30,13  L 30,14  Z  " style="fill:rgb(65, 68, 65); fill-opacity:1.000; stroke:none;" />
 <path d="  M 34,30  L 34,29  L 30,29  L 30,30  Z  " style="fill:rgb(65, 68, 65); fill-opacity:1.000; stroke:none;" />
 <path d="  M 34,14  L 34,13  L 35,13  L 35,14  L 36,14  L 36,13  L 37,13  L 37,14  L 44,14  L 44,13  L 42,13  L 42,12  L 41,12  L 41,11  L 39,11  L 39,12  L 31,12  L 31,13  L 32,13  L 32,14  Z  M 40,12  L 41,12  L 41,13  L 40,13  Z  " style="fill:rgb(65, 68, 65); fill-opacity:1.000; stroke:none;" />
 <path d="  M 33,58  L 33,59  L 34,59  L 34,58  Z  " style="fill:rgb(65, 68, 65); fill-opacity:1.000; stroke:none;" />
 <path d="  M 35,56  L 34,56  L 34,58  L 35,58  Z  " style="fill:rgb(65, 68, 65); fill-opacity:1.000; stroke:none;" />
 <path d="  M 35,56  L 36,56  L 36,54  L 35,54  Z  " style="fill:rgb(65, 68, 65); fill-opacity:1.000; stroke:none;" />
 <path d="  M 36,29  L 36,30  L 40,30  L 40,29  Z  " style="fill:rgb(65, 68, 65); fill-opacity:1.000; stroke:none;" />
 <path d="  M 37,52  L 36,52  L 36,54  L 37,54  Z  " style="fill:rgb(65, 68, 65); fill-opacity:1.000; stroke:none;" />
 <path d="  M 37,52  L 38,52  L 38,50  L 37,50  Z  " style="fill:rgb(65, 68, 65); fill-opacity:1.000; stroke:none;" />
 <path d="  M 38,50  L 39,50  L 39,48  L 38,48  Z  " style="fill:rgb(65, 68, 65); fill-opacity:1.000; stroke:none;" />
 <path d="  M 40,46  L 39,46  L 39,48  L 40,48  Z  " style="fill:rgb(65, 68, 65); fill-opacity:1.000; stroke:none;" />
 <path d="  M 41,44  L 40,44  L 40,46  L 41,46  Z  " style="fill:rgb(65, 68, 65); fill-opacity:1.000; stroke:none;" />
 <path d="  M 42,30  L 42,29  L 41,29  L 41,30  Z  " style="fill:rgb(65, 68, 65); fill-opacity:1.000; stroke:none;" />
 <path d="  M 41,42  L 41,44  L 42,44  L 42,42  Z  " style="fill:rgb(65, 68, 65); fill-opacity:1.000; stroke:none;" />
 <path d="  M 43,31  L 43,30  L 42,30  L 42,31  Z  " style="fill:rgb(65, 68, 65); fill-opacity:1.000; stroke:none;" />
 <path d="  M 42,32  L 42,33  L 43,33  L 43,32  Z  " style="fill:rgb(65, 68, 65); fill-opacity:1.000; stroke:none;" />
 <path d="  M 42,42  L 43,42  L 43,40  L 42,40  Z  " style="fill:rgb(65, 68, 65); fill-opacity:1.000; stroke:none;" />
 <path d="  M 47,32  L 48,32  L 48,31  L 47,31  L 47,30  L 46,30  L 46,29  L 47,29  L 47,28  L 44,28  L 44,29  L 43,29  L 43,30  L 44,30  L 44,31  L 45,31  L 45,32  L 44,32  L 44,34  L 45,34  L 45,33  L 46,33  L 46,34  L 47,34  Z  " style="fill:rgb(65, 68, 65); fill-opacity:1.000; stroke:none;" />
 <path d="  M 43,32  L 44,32  L 44,31  L 43,31  Z  " style="fill:rgb(65, 68, 65); fill-opacity:1.000; stroke:none;" />
 <path d="  M 44,35  L 44,34  L 43,34  L 43,35  Z  " style="fill:rgb(65, 68, 65); fill-opacity:1.000; stroke:none;" />
 <path d="  M 44,38  L 43,38  L 43,40  L 44,40  Z  " style="fill:rgb(65, 68, 65); fill-opacity:1.000; stroke:none;" />
 <path d="  M 44,13  L 45,13  L 45,12  L 44,12  Z  " style="fill:rgb(65, 68, 65); fill-opacity:1.000; stroke:none;" />
 <path d="  M 51,16  L 51,17  L 52,17  L 52,15  L 50,15  L 50,14  L 46,14  L 46,13  L 45,13  L 45,14  L 44,14  L 44,15  L 49,15  L 49,16  Z  " style="fill:rgb(65, 68, 65); fill-opacity:1.000; stroke:none;" />
 <path d="  M 44,22  L 44,23  L 46,23  L 46,22  Z  " style="fill:rgb(65, 68, 65); fill-opacity:1.000; stroke:none;" />
 <path d="  M 44,35  L 44,38  L 45,38  L 45,36  L 46,36  L 46,34  L 45,34  L 45,35  Z  " style="fill:rgb(65, 68, 65); fill-opacity:1.000; stroke:none;" />
 <path d="  M 48,21  L 46,21  L 46,22  L 48,22  Z  " style="fill:rgb(65, 68, 65); fill-opacity:1.000; stroke:none;" />
 <path d="  M 47,29  L 47,30  L 48,30  L 48,29  Z  " style="fill:rgb(65, 68, 65); fill-opacity:1.000; stroke:none;" />
 <path d="  M 49,20  L 49,21  L 50,21  L 50,20  Z  " style="fill:rgb(65, 68, 65); fill-opacity:1.000; stroke:none;" />
 <path d="  M 54,13  L 54,14  L 55,14  L 55,13  Z  " style="fill:rgb(65, 68, 65); fill-opacity:1.000; stroke:none;" />
 <path d="  M 55,21  L 55,20  L 54,20  L 54,21  Z  " style="fill:rgb(65, 68, 65); fill-opacity:1.000; stroke:none;" />
 <path d="  M 55,15  L 56,15  L 56,14  L 55,14  Z  " style="fill:rgb(65, 68, 65); fill-opacity:1.000; stroke:none;" />
 <path d="  M 56,19  L 55,19  L 55,20  L 56,20  Z  " style="fill:rgb(65, 68, 65); fill-opacity:1.000; stroke:none;" />
 <path d="  M 57,16  L 56,16  L 56,18  L 57,18  Z  " style="fill:rgb(65, 68, 65); fill-opacity:1.000; stroke:none;" />
 <path d="  M 58,18  L 57,18  L 57,20  L 58,20  Z  " style="fill:rgb(65, 68, 65); fill-opacity:1.000; stroke:none;" />
 <path d="  M 8,18  L 7,18  L 7,20  L 8,20  L 8,19  L 9,19  L 9,16  L 10,16  L 10,15  L 11,15  L 11,14  L 12,14  L 12,13  L 14,13  L 14,12  L 11,12  L 11,13  L 10,13  L 10,14  L 9,14  L 9,15  L 8,15  Z  " style="fill:rgb(74, 76, 74); fill-opacity:1.000; stroke:none;" />
 <path d="  M 9,20  L 8,20  L 8,21  L 9,21  Z  " style="fill:rgb(74, 76, 74); fill-opacity:1.000; stroke:none;" />
 <path d="  M 11,22  L 11,21  L 9,21  L 9,22  L 10,22  L 10,23  L 12,23  L 12,22  Z  " style="fill:rgb(74, 76, 74); fill-opacity:1.000; stroke:none;" />
 <path d="  M 10,17  L 10,18  L 11,18  L 11,19  L 12,19  L 12,16  L 11,16  L 11,17  Z  " style="fill:rgb(74, 76, 74); fill-opacity:1.000; stroke:none;" />
 <path d="  M 13,19  L 12,19  L 12,20  L 13,20  Z  " style="fill:rgb(74, 76, 74); fill-opacity:1.000; stroke:none;" />
 <path d="  M 12,23  L 12,24  L 15,24  L 15,23  Z  " style="fill:rgb(74, 76, 74); fill-opacity:1.000; stroke:none;" />
 <path d="  M 13,15  L 14,15  L 14,14  L 13,14  Z  " style="fill:rgb(74, 76, 74); fill-opacity:1.000; stroke:none;" />
 <path d="  M 14,21  L 14,20  L 13,20  L 13,21  Z  " style="fill:rgb(74, 76, 74); fill-opacity:1.000; stroke:none;" />
 <path d="  M 14,11  L 14,12  L 17,12  L 17,11  Z  " style="fill:rgb(74, 76, 74); fill-opacity:1.000; stroke:none;" />
 <path d="  M 20,14  L 20,13  L 19,13  L 19,12  L 18,12  L 18,13  L 15,13  L 15,14  Z  " style="fill:rgb(74, 76, 74); fill-opacity:1.000; stroke:none;" />
 <path d="  M 15,25  L 18,25  L 18,26  L 22,26  L 22,27  L 42,27  L 42,26  L 46,26  L 46,25  L 49,25  L 49,24  L 52,24  L 52,23  L 54,23  L 54,22  L 55,22  L 55,21  L 54,21  L 54,20  L 53,20  L 53,21  L 52,21  L 52,22  L 50,22  L 50,23  L 47,23  L 47,24  L 43,24  L 43,25  L 29,25  L 29,26  L 23,26  L 23,25  L 19,25  L 19,24  L 15,24  Z  " style="fill:rgb(74, 76, 74); fill-opacity:1.000; stroke:none;" />
 <path d="  M 15,30  L 16,30  L 16,32  L 17,32  L 17,30  L 18,30  L 18,29  L 15,29  Z  " style="fill:rgb(74, 76, 74); fill-opacity:1.000; stroke:none;" />
 <path d="  M 18,32  L 17,32  L 17,34  L 18,34  Z  " style="fill:rgb(74, 76, 74); fill-opacity:1.000; stroke:none;" />
 <path d="  M 19,31  L 19,30  L 18,30  L 18,31  Z  " style="fill:rgb(74, 76, 74); fill-opacity:1.000; stroke:none;" />
 <path d="  M 19,34  L 18,34  L 18,36  L 19,36  Z  " style="fill:rgb(74, 76, 74); fill-opacity:1.000; stroke:none;" />
 <path d="  M 31,31  L 31,32  L 32,32  L 32,31  L 34,31  L 34,30  L 30,30  L 30,29  L 26,29  L 26,30  L 23,30  L 23,29  L 19,29  L 19,30  L 22,30  L 22,31  Z  " style="fill:rgb(74, 76, 74); fill-opacity:1.000; stroke:none;" />
 <path d="  M 20,32  L 20,31  L 19,31  L 19,32  Z  " style="fill:rgb(74, 76, 74); fill-opacity:1.000; stroke:none;" />
 <path d="  M 19,38  L 20,38  L 20,36  L 19,36  Z  " style="fill:rgb(74, 76, 74); fill-opacity:1.000; stroke:none;" />
 <path d="  M 21,10  L 20,10  L 20,11  L 21,11  Z  " style="fill:rgb(74, 76, 74); fill-opacity:1.000; stroke:none;" />
 <path d="  M 23,12  L 23,11  L 22,11  L 22,12  L 20,12  L 20,13  L 24,13  L 24,12  Z  " style="fill:rgb(74, 76, 74); fill-opacity:1.000; stroke:none;" />
 <path d="  M 21,38  L 20,38  L 20,40  L 21,40  Z  " style="fill:rgb(74, 76, 74); fill-opacity:1.000; stroke:none;" />
 <path d="  M 21,31  L 21,32  L 22,32  L 22,31  Z  " style="fill:rgb(74, 76, 74); fill-opacity:1.000; stroke:none;" />
 <path d="  M 21,42  L 22,42  L 22,40  L 21,40  Z  " style="fill:rgb(74, 76, 74); fill-opacity:1.000; stroke:none;" />
 <path d="  M 25,23  L 22,23  L 22,24  L 25,24  Z  " style="fill:rgb(74, 76, 74); fill-opacity:1.000; stroke:none;" />
 <path d="  M 23,42  L 22,42  L 22,44  L 23,44  Z  " style="fill:rgb(74, 76, 74); fill-opacity:1.000; stroke:none;" />
 <path d="  M 24,44  L 23,44  L 23,46  L 24,46  Z  " style="fill:rgb(74, 76, 74); fill-opacity:1.000; stroke:none;" />
 <path d="  M 24,11  L 24,12  L 39,12  L 39,11  Z  " style="fill:rgb(74, 76, 74); fill-opacity:1.000; stroke:none;" />
 <path d="  M 24,46  L 24,48  L 25,48  L 25,46  Z  " style="fill:rgb(74, 76, 74); fill-opacity:1.000; stroke:none;" />
 <path d="  M 25,48  L 25,50  L 26,50  L 26,48  Z  " style="fill:rgb(74, 76, 74); fill-opacity:1.000; stroke:none;" />
 <path d="  M 26,50  L 26,52  L 27,52  L 27,50  Z  " style="fill:rgb(74, 76, 74); fill-opacity:1.000; stroke:none;" />
 <path d="  M 28,52  L 27,52  L 27,54  L 28,54  Z  " style="fill:rgb(74, 76, 74); fill-opacity:1.000; stroke:none;" />
 <path d="  M 28,54  L 28,56  L 29,56  L 29,54  Z  " style="fill:rgb(74, 76, 74); fill-opacity:1.000; stroke:none;" />
 <path d="  M 41,38  L 40,38  L 40,39  L 39,39  L 39,40  L 38,40  L 38,41  L 37,41  L 37,44  L 36,44  L 36,46  L 37,46  L 37,47  L 36,47  L 36,49  L 35,49  L 35,51  L 34,51  L 34,52  L 33,52  L 33,53  L 32,53  L 32,54  L 31,54  L 31,55  L 30,55  L 30,56  L 29,56  L 29,58  L 30,58  L 30,59  L 33,59  L 33,58  L 34,58  L 34,56  L 35,56  L 35,54  L 36,54  L 36,52  L 37,52  L 37,50  L 38,50  L 38,48  L 39,48  L 39,46  L 40,46  L 40,44  L 41,44  L 41,42  L 42,42  L 42,40  L 43,40  L 43,38  L 44,38  L 44,35  L 43,35  L 43,34  L 44,34  L 44,32  L 43,32  L 43,31  L 42,31  L 42,30  L 41,30  L 41,29  L 40,29  L 40,30  L 36,30  L 36,29  L 34,29  L 34,30  L 35,30  L 35,31  L 38,31  L 38,32  L 39,32  L 39,31  L 40,31  L 40,33  L 39,33  L 39,34  L 40,34  L 40,35  L 41,35  L 41,36  L 40,36  L 40,37  L 41,37  Z  M 37,45  L 37,44  L 38,44  L 38,45  Z  M 40,41  L 39,41  L 39,40  L 40,40  Z  M 43,33  L 42,33  L 42,32  L 43,32  Z  M 39,43  L 38,43  L 38,42  L 39,42  Z  " style="fill:rgb(74, 76, 74); fill-opacity:1.000; stroke:none;" />
 <path d="  M 32,51  L 32,52  L 33,52  L 33,51  Z  " style="fill:rgb(74, 76, 74); fill-opacity:1.000; stroke:none;" />
 <path d="  M 34,50  L 33,50  L 33,51  L 34,51  Z  " style="fill:rgb(74, 76, 74); fill-opacity:1.000; stroke:none;" />
 <path d="  M 35,32  L 35,31  L 34,31  L 34,32  Z  " style="fill:rgb(74, 76, 74); fill-opacity:1.000; stroke:none;" />
 <path d="  M 34,49  L 35,49  L 35,48  L 34,48  Z  " style="fill:rgb(74, 76, 74); fill-opacity:1.000; stroke:none;" />
 <path d="  M 37,33  L 37,32  L 36,32  L 36,33  Z  " style="fill:rgb(74, 76, 74); fill-opacity:1.000; stroke:none;" />
 <path d="  M 39,23  L 39,24  L 42,24  L 42,23  Z  " style="fill:rgb(74, 76, 74); fill-opacity:1.000; stroke:none;" />
 <path d="  M 40,37  L 39,37  L 39,38  L 40,38  Z  " style="fill:rgb(74, 76, 74); fill-opacity:1.000; stroke:none;" />
 <path d="  M 41,12  L 40,12  L 40,13  L 41,13  Z  " style="fill:rgb(74, 76, 74); fill-opacity:1.000; stroke:none;" />
 <path d="  M 42,11  L 41,11  L 41,12  L 42,12  Z  " style="fill:rgb(74, 76, 74); fill-opacity:1.000; stroke:none;" />
 <path d="  M 44,13  L 44,12  L 42,12  L 42,13  Z  " style="fill:rgb(74, 76, 74); fill-opacity:1.000; stroke:none;" />
 <path d="  M 43,29  L 42,29  L 42,30  L 43,30  Z  " style="fill:rgb(74, 76, 74); fill-opacity:1.000; stroke:none;" />
 <path d="  M 43,10  L 43,11  L 44,11  L 44,10  Z  " style="fill:rgb(74, 76, 74); fill-opacity:1.000; stroke:none;" />
 <path d="  M 43,30  L 43,31  L 44,31  L 44,30  Z  " style="fill:rgb(74, 76, 74); fill-opacity:1.000; stroke:none;" />
 <path d="  M 45,13  L 44,13  L 44,14  L 45,14  Z  " style="fill:rgb(74, 76, 74); fill-opacity:1.000; stroke:none;" />
 <path d="  M 45,31  L 44,31  L 44,32  L 45,32  Z  " style="fill:rgb(74, 76, 74); fill-opacity:1.000; stroke:none;" />
 <path d="  M 44,35  L 45,35  L 45,34  L 44,34  Z  " style="fill:rgb(74, 76, 74); fill-opacity:1.000; stroke:none;" />
 <path d="  M 46,12  L 45,12  L 45,13  L 46,13  Z  " style="fill:rgb(74, 76, 74); fill-opacity:1.000; stroke:none;" />
 <path d="  M 45,34  L 46,34  L 46,33  L 45,33  Z  " style="fill:rgb(74, 76, 74); fill-opacity:1.000; stroke:none;" />
 <path d="  M 46,14  L 49,14  L 49,13  L 46,13  Z  " style="fill:rgb(74, 76, 74); fill-opacity:1.000; stroke:none;" />
 <path d="  M 50,11  L 47,11  L 47,12  L 50,12  Z  " style="fill:rgb(74, 76, 74); fill-opacity:1.000; stroke:none;" />
 <path d="  M 49,21  L 48,21  L 48,22  L 49,22  Z  " style="fill:rgb(74, 76, 74); fill-opacity:1.000; stroke:none;" />
 <path d="  M 54,16  L 55,16  L 55,19  L 56,19  L 56,20  L 57,20  L 57,18  L 56,18  L 56,15  L 55,15  L 55,14  L 54,14  L 54,13  L 53,13  L 53,12  L 50,12  L 50,13  L 52,13  L 52,14  L 53,14  L 53,15  L 54,15  Z  " style="fill:rgb(74, 76, 74); fill-opacity:1.000; stroke:none;" />
 <path d="  M 50,15  L 51,15  L 51,14  L 50,14  Z  " style="fill:rgb(74, 76, 74); fill-opacity:1.000; stroke:none;" />
 <path d="  M 51,20  L 50,20  L 50,21  L 51,21  Z  " style="fill:rgb(74, 76, 74); fill-opacity:1.000; stroke:none;" />
 <path d="  M 52,19  L 51,19  L 51,20  L 52,20  Z  " style="fill:rgb(74, 76, 74); fill-opacity:1.000; stroke:none;" />
 <path d="  M 53,18  L 54,18  L 54,17  L 53,17  L 53,16  L 52,16  L 52,19  L 53,19  Z  " style="fill:rgb(74, 76, 74); fill-opacity:1.000; stroke:none;" />
 <path d="  M 55,19  L 54,19  L 54,20  L 55,20  Z  " style="fill:rgb(74, 76, 74); fill-opacity:1.000; stroke:none;" />
 <path d="  M 55,20  L 55,21  L 56,21  L 56,20  Z  " style="fill:rgb(74, 76, 74); fill-opacity:1.000; stroke:none;" />
 <path d="  M 47,24  L 47,23  L 50,23  L 50,22  L 52,22  L 52,21  L 53,21  L 53,20  L 54,20  L 54,19  L 55,19  L 55,16  L 54,16  L 54,15  L 53,15  L 53,14  L 52,14  L 52,13  L 50,13  L 50,12  L 47,12  L 47,11  L 43,11  L 43,10  L 21,10  L 21,11  L 17,11  L 17,12  L 14,12  L 14,13  L 12,13  L 12,14  L 11,14  L 11,15  L 10,15  L 10,16  L 9,16  L 9,18  L 10,18  L 10,17  L 11,17  L 11,16  L 12,16  L 12,15  L 13,15  L 13,14  L 15,14  L 15,13  L 18,13  L 18,12  L 22,12  L 22,11  L 42,11  L 42,12  L 46,12  L 46,13  L 49,13  L 49,14  L 51,14  L 51,15  L 52,15  L 52,16  L 53,16  L 53,17  L 54,17  L 54,18  L 53,18  L 53,19  L 52,19  L 52,20  L 51,20  L 51,21  L 49,21  L 49,22  L 46,22  L 46,23  L 42,23  L 42,24  L 36,24  L 36,25  L 43,25  L 43,24  Z  " style="fill:rgb(82, 85, 82); fill-opacity:1.000; stroke:none;" />
 <path d="  M 9,19  L 9,20  L 10,20  L 10,19  Z  " style="fill:rgb(82, 85, 82); fill-opacity:1.000; stroke:none;" />
 <path d="  M 11,18  L 10,18  L 10,19  L 11,19  Z  " style="fill:rgb(82, 85, 82); fill-opacity:1.000; stroke:none;" />
 <path d="  M 11,20  L 10,20  L 10,21  L 11,21  Z  " style="fill:rgb(82, 85, 82); fill-opacity:1.000; stroke:none;" />
 <path d="  M 12,21  L 11,21  L 11,22  L 12,22  Z  " style="fill:rgb(82, 85, 82); fill-opacity:1.000; stroke:none;" />
 <path d="  M 14,23  L 14,22  L 12,22  L 12,23  Z  " style="fill:rgb(82, 85, 82); fill-opacity:1.000; stroke:none;" />
 <path d="  M 16,22  L 16,21  L 15,21  L 15,22  Z  " style="fill:rgb(82, 85, 82); fill-opacity:1.000; stroke:none;" />
 <path d="  M 17,23  L 15,23  L 15,24  L 17,24  Z  " style="fill:rgb(82, 85, 82); fill-opacity:1.000; stroke:none;" />
 <path d="  M 19,30  L 19,31  L 18,31  L 18,30  L 17,30  L 17,32  L 18,32  L 18,34  L 19,34  L 19,36  L 20,36  L 20,38  L 21,38  L 21,37  L 22,37  L 22,38  L 23,38  L 23,36  L 22,36  L 22,34  L 21,34  L 21,33  L 22,33  L 22,32  L 21,32  L 21,31  L 22,31  L 22,30  Z  M 19,31  L 20,31  L 20,32  L 19,32  Z  M 20,34  L 21,34  L 21,35  L 20,35  Z  " style="fill:rgb(82, 85, 82); fill-opacity:1.000; stroke:none;" />
 <path d="  M 18,23  L 19,23  L 19,22  L 18,22  Z  " style="fill:rgb(82, 85, 82); fill-opacity:1.000; stroke:none;" />
 <path d="  M 18,29  L 18,30  L 19,30  L 19,29  Z  " style="fill:rgb(82, 85, 82); fill-opacity:1.000; stroke:none;" />
 <path d="  M 19,25  L 21,25  L 21,24  L 19,24  Z  " style="fill:rgb(82, 85, 82); fill-opacity:1.000; stroke:none;" />
 <path d="  M 23,44  L 24,44  L 24,43  L 25,43  L 25,42  L 24,42  L 24,41  L 23,41  L 23,40  L 24,40  L 24,38  L 23,38  L 23,39  L 22,39  L 22,38  L 21,38  L 21,40  L 22,40  L 22,42  L 23,42  Z  " style="fill:rgb(82, 85, 82); fill-opacity:1.000; stroke:none;" />
 <path d="  M 24,33  L 25,33  L 25,32  L 26,32  L 26,33  L 27,33  L 27,32  L 28,32  L 28,33  L 30,33  L 30,34  L 32,34  L 32,33  L 34,33  L 34,34  L 35,34  L 35,33  L 36,33  L 36,34  L 37,34  L 37,36  L 36,36  L 36,37  L 35,37  L 35,38  L 36,38  L 36,40  L 35,40  L 35,41  L 34,41  L 34,42  L 35,42  L 35,43  L 34,43  L 34,45  L 33,45  L 33,46  L 34,46  L 34,47  L 33,47  L 33,48  L 32,48  L 32,50  L 34,50  L 34,51  L 35,51  L 35,49  L 36,49  L 36,47  L 37,47  L 37,46  L 36,46  L 36,44  L 37,44  L 37,41  L 38,41  L 38,40  L 39,40  L 39,39  L 40,39  L 40,38  L 39,38  L 39,37  L 40,37  L 40,36  L 41,36  L 41,35  L 40,35  L 40,34  L 39,34  L 39,33  L 40,33  L 40,31  L 39,31  L 39,32  L 38,32  L 38,31  L 35,31  L 35,32  L 34,32  L 34,31  L 32,31  L 32,32  L 31,32  L 31,31  L 22,31  L 22,32  L 24,32  Z  M 34,49  L 34,48  L 35,48  L 35,49  Z  M 36,33  L 36,32  L 37,32  L 37,33  Z  " style="fill:rgb(82, 85, 82); fill-opacity:1.000; stroke:none;" />
 <path d="  M 22,33  L 22,34  L 23,34  L 23,33  Z  " style="fill:rgb(82, 85, 82); fill-opacity:1.000; stroke:none;" />
 <path d="  M 23,25  L 23,26  L 29,26  L 29,25  Z  " style="fill:rgb(82, 85, 82); fill-opacity:1.000; stroke:none;" />
 <path d="  M 23,34  L 23,35  L 24,35  L 24,34  Z  " style="fill:rgb(82, 85, 82); fill-opacity:1.000; stroke:none;" />
 <path d="  M 25,38  L 25,36  L 24,36  L 24,38  Z  " style="fill:rgb(82, 85, 82); fill-opacity:1.000; stroke:none;" />
 <path d="  M 24,40  L 24,41  L 25,41  L 25,40  Z  " style="fill:rgb(82, 85, 82); fill-opacity:1.000; stroke:none;" />
 <path d="  M 25,48  L 26,48  L 26,46  L 27,46  L 27,45  L 25,45  L 25,44  L 24,44  L 24,46  L 25,46  Z  " style="fill:rgb(82, 85, 82); fill-opacity:1.000; stroke:none;" />
 <path d="  M 25,34  L 26,34  L 26,33  L 25,33  Z  " style="fill:rgb(82, 85, 82); fill-opacity:1.000; stroke:none;" />
 <path d="  M 26,39  L 26,38  L 25,38  L 25,39  Z  " style="fill:rgb(82, 85, 82); fill-opacity:1.000; stroke:none;" />
 <path d="  M 26,43  L 25,43  L 25,44  L 26,44  Z  " style="fill:rgb(82, 85, 82); fill-opacity:1.000; stroke:none;" />
 <path d="  M 29,56  L 30,56  L 30,55  L 31,55  L 31,54  L 32,54  L 32,53  L 33,53  L 33,52  L 31,52  L 31,51  L 30,51  L 30,53  L 29,53  L 29,51  L 28,51  L 28,49  L 27,49  L 27,48  L 26,48  L 26,50  L 27,50  L 27,52  L 28,52  L 28,54  L 29,54  Z  " style="fill:rgb(82, 85, 82); fill-opacity:1.000; stroke:none;" />
 <path d="  M 28,47  L 27,47  L 27,48  L 28,48  Z  " style="fill:rgb(82, 85, 82); fill-opacity:1.000; stroke:none;" />
 <path d="  M 31,50  L 31,51  L 32,51  L 32,50  Z  " style="fill:rgb(82, 85, 82); fill-opacity:1.000; stroke:none;" />
 <path d="  M 32,34  L 32,35  L 33,35  L 33,34  Z  " style="fill:rgb(82, 85, 82); fill-opacity:1.000; stroke:none;" />
 <path d="  M 32,46  L 32,47  L 33,47  L 33,46  Z  " style="fill:rgb(82, 85, 82); fill-opacity:1.000; stroke:none;" />
 <path d="  M 34,43  L 34,42  L 33,42  L 33,43  Z  " style="fill:rgb(82, 85, 82); fill-opacity:1.000; stroke:none;" />
 <path d="  M 33,51  L 33,52  L 34,52  L 34,51  Z  " style="fill:rgb(82, 85, 82); fill-opacity:1.000; stroke:none;" />
 <path d="  M 34,30  L 34,31  L 35,31  L 35,30  Z  " style="fill:rgb(82, 85, 82); fill-opacity:1.000; stroke:none;" />
 <path d="  M 34,40  L 35,40  L 35,39  L 34,39  Z  " style="fill:rgb(82, 85, 82); fill-opacity:1.000; stroke:none;" />
 <path d="  M 35,34  L 35,35  L 36,35  L 36,34  Z  " style="fill:rgb(82, 85, 82); fill-opacity:1.000; stroke:none;" />
 <path d="  M 38,44  L 37,44  L 37,45  L 38,45  Z  " style="fill:rgb(82, 85, 82); fill-opacity:1.000; stroke:none;" />
 <path d="  M 39,43  L 39,42  L 38,42  L 38,43  Z  " style="fill:rgb(82, 85, 82); fill-opacity:1.000; stroke:none;" />
 <path d="  M 39,41  L 40,41  L 40,40  L 39,40  Z  " style="fill:rgb(82, 85, 82); fill-opacity:1.000; stroke:none;" />
 <path d="  M 41,37  L 40,37  L 40,38  L 41,38  Z  " style="fill:rgb(82, 85, 82); fill-opacity:1.000; stroke:none;" />
 <path d="  M 10,18  L 9,18  L 9,19  L 10,19  Z  " style="fill:rgb(98, 97, 98); fill-opacity:1.000; stroke:none;" />
 <path d="  M 36,25  L 36,24  L 22,24  L 22,23  L 18,23  L 18,22  L 15,22  L 15,21  L 13,21  L 13,20  L 12,20  L 12,19  L 10,19  L 10,20  L 11,20  L 11,21  L 12,21  L 12,22  L 14,22  L 14,23  L 17,23  L 17,24  L 21,24  L 21,25  Z  " style="fill:rgb(98, 97, 98); fill-opacity:1.000; stroke:none;" />
 <path d="  M 21,34  L 20,34  L 20,35  L 21,35  Z  " style="fill:rgb(98, 97, 98); fill-opacity:1.000; stroke:none;" />
 <path d="  M 22,33  L 21,33  L 21,34  L 22,34  Z  " style="fill:rgb(98, 97, 98); fill-opacity:1.000; stroke:none;" />
 <path d="  M 22,37  L 21,37  L 21,38  L 22,38  Z  " style="fill:rgb(98, 97, 98); fill-opacity:1.000; stroke:none;" />
 <path d="  M 25,41  L 24,41  L 24,42  L 25,42  L 25,43  L 26,43  L 26,44  L 25,44  L 25,45  L 27,45  L 27,46  L 26,46  L 26,48  L 27,48  L 27,49  L 28,49  L 28,51  L 29,51  L 29,53  L 30,53  L 30,51  L 31,51  L 31,50  L 32,50  L 32,48  L 33,48  L 33,47  L 32,47  L 32,46  L 33,46  L 33,45  L 34,45  L 34,43  L 33,43  L 33,42  L 34,42  L 34,41  L 35,41  L 35,40  L 36,40  L 36,38  L 35,38  L 35,37  L 36,37  L 36,36  L 37,36  L 37,34  L 36,34  L 36,35  L 35,35  L 35,34  L 34,34  L 34,33  L 32,33  L 32,34  L 30,34  L 30,33  L 28,33  L 28,32  L 27,32  L 27,33  L 26,33  L 26,34  L 25,34  L 25,33  L 24,33  L 24,32  L 22,32  L 22,33  L 23,33  L 23,34  L 22,34  L 22,36  L 23,36  L 23,38  L 24,38  L 24,40  L 25,40  Z  M 26,39  L 25,39  L 25,38  L 26,38  Z  M 32,35  L 32,34  L 33,34  L 33,35  Z  M 25,38  L 24,38  L 24,36  L 25,36  Z  M 28,47  L 28,48  L 27,48  L 27,47  Z  M 23,35  L 23,34  L 24,34  L 24,35  Z  M 35,39  L 35,40  L 34,40  L 34,39  Z  " style="fill:rgb(98, 97, 98); fill-opacity:1.000; stroke:none;" />
 <path d="  M 22,39  L 23,39  L 23,38  L 22,38  Z  " style="fill:rgb(98, 97, 98); fill-opacity:1.000; stroke:none;" />
 <path d="  M 24,41  L 24,40  L 23,40  L 23,41  Z  " style="fill:rgb(98, 97, 98); fill-opacity:1.000; stroke:none;" />
 <path d="  M 25,43  L 24,43  L 24,44  L 25,44  Z  " style="fill:rgb(98, 97, 98); fill-opacity:1.000; stroke:none;" />
 <path d="  M 25,32  L 25,33  L 26,33  L 26,32  Z  " style="fill:rgb(98, 97, 98); fill-opacity:1.000; stroke:none;" />
 <path d="  M 32,51  L 31,51  L 31,52  L 32,52  Z  " style="fill:rgb(98, 97, 98); fill-opacity:1.000; stroke:none;" />
 <path d="  M 32,51  L 33,51  L 33,50  L 32,50  Z  " style="fill:rgb(98, 97, 98); fill-opacity:1.000; stroke:none;" />
 <path d="  M 33,46  L 33,47  L 34,47  L 34,46  Z  " style="fill:rgb(98, 97, 98); fill-opacity:1.000; stroke:none;" />
 <path d="  M 34,42  L 34,43  L 35,43  L 35,42  Z  " style="fill:rgb(98, 97, 98); fill-opacity:1.000; stroke:none;" />
 <path d="  M 35,33  L 35,34  L 36,34  L 36,33  Z  " style="fill:rgb(98, 97, 98); fill-opacity:1.000; stroke:none;" />
 <path d="  M 13,19  L 14,19  L 14,20  L 16,20  L 16,19  L 15,19  L 15,17  L 18,17  L 18,16  L 13,16  Z  " style="fill:rgb(56, 56, 56); fill-opacity:1.000; stroke:none;" />
 <path d="  M 18,21  L 18,20  L 16,20  L 16,21  Z  " style="fill:rgb(56, 56, 56); fill-opacity:1.000; stroke:none;" />
 <path d="  M 21,16  L 21,15  L 18,15  L 18,16  Z  " style="fill:rgb(56, 56, 56); fill-opacity:1.000; stroke:none;" />
 <path d="  M 44,23  L 44,22  L 46,22  L 46,21  L 43,21  L 43,22  L 21,22  L 21,21  L 18,21  L 18,22  L 20,22  L 20,23  Z  " style="fill:rgb(56, 56, 56); fill-opacity:1.000; stroke:none;" />
 <path d="  M 42,15  L 42,14  L 37,14  L 37,13  L 36,13  L 36,14  L 35,14  L 35,13  L 34,13  L 34,14  L 32,14  L 32,13  L 31,13  L 31,14  L 30,14  L 30,13  L 28,13  L 28,14  L 27,14  L 27,13  L 25,13  L 25,14  L 22,14  L 22,15  Z  " style="fill:rgb(56, 56, 56); fill-opacity:1.000; stroke:none;" />
 <path d="  M 31,13  L 31,12  L 30,12  L 30,13  Z  " style="fill:rgb(56, 56, 56); fill-opacity:1.000; stroke:none;" />
 <path d="  M 43,15  L 43,16  L 46,16  L 46,15  Z  " style="fill:rgb(56, 56, 56); fill-opacity:1.000; stroke:none;" />
 <path d="  M 50,19  L 51,19  L 51,16  L 46,16  L 46,17  L 49,17  L 49,19  L 48,19  L 48,20  L 50,20  Z  " style="fill:rgb(56, 56, 56); fill-opacity:1.000; stroke:none;" />
 <path d="  M 48,20  L 46,20  L 46,21  L 48,21  Z  " style="fill:rgb(56, 56, 56); fill-opacity:1.000; stroke:none;" />
</svg>
