<?xml version="1.0" encoding="UTF-8" standalone="no"?>
<!DOCTYPE svg PUBLIC "-//W3C//DTD SVG 1.1//EN" 
  "http://www.w3.org/Graphics/SVG/1.1/DTD/svg11.dtd">
<svg width="64" height="64"
	 xmlns="http://www.w3.org/2000/svg" version="1.1">
 <path d="  M 12,60  L 12,59  L 9,59  L 9,54  L 8,54  L 8,60  Z  " style="fill:rgb(84, 39, 22); fill-opacity:1.000; stroke:none;" />
 <path d="  M 10,11  L 9,11  L 9,16  L 10,16  Z  " style="fill:rgb(84, 39, 22); fill-opacity:1.000; stroke:none;" />
 <path d="  M 9,54  L 10,54  L 10,52  L 9,52  Z  " style="fill:rgb(84, 39, 22); fill-opacity:1.000; stroke:none;" />
 <path d="  M 10,10  L 10,11  L 11,11  L 11,10  Z  " style="fill:rgb(84, 39, 22); fill-opacity:1.000; stroke:none;" />
 <path d="  M 11,17  L 11,16  L 10,16  L 10,17  Z  " style="fill:rgb(84, 39, 22); fill-opacity:1.000; stroke:none;" />
 <path d="  M 10,51  L 10,52  L 11,52  L 11,51  Z  " style="fill:rgb(84, 39, 22); fill-opacity:1.000; stroke:none;" />
 <path d="  M 14,10  L 14,9  L 11,9  L 11,10  Z  " style="fill:rgb(84, 39, 22); fill-opacity:1.000; stroke:none;" />
 <path d="  M 12,17  L 11,17  L 11,18  L 12,18  Z  " style="fill:rgb(84, 39, 22); fill-opacity:1.000; stroke:none;" />
 <path d="  M 12,51  L 12,50  L 11,50  L 11,51  Z  " style="fill:rgb(84, 39, 22); fill-opacity:1.000; stroke:none;" />
 <path d="  M 12,18  L 12,19  L 13,19  L 13,18  Z  " style="fill:rgb(84, 39, 22); fill-opacity:1.000; stroke:none;" />
 <path d="  M 13,47  L 12,47  L 12,50  L 13,50  Z  " style="fill:rgb(84, 39, 22); fill-opacity:1.000; stroke:none;" />
 <path d="  M 13,19  L 13,20  L 14,20  L 14,19  Z  " style="fill:rgb(84, 39, 22); fill-opacity:1.000; stroke:none;" />
 <path d="  M 13,47  L 14,47  L 14,44  L 13,44  Z  " style="fill:rgb(84, 39, 22); fill-opacity:1.000; stroke:none;" />
 <path d="  M 17,10  L 14,10  L 14,11  L 17,11  Z  " style="fill:rgb(84, 39, 22); fill-opacity:1.000; stroke:none;" />
 <path d="  M 14,22  L 15,22  L 15,20  L 14,20  Z  " style="fill:rgb(84, 39, 22); fill-opacity:1.000; stroke:none;" />
 <path d="  M 15,41  L 14,41  L 14,44  L 15,44  Z  " style="fill:rgb(84, 39, 22); fill-opacity:1.000; stroke:none;" />
 <path d="  M 16,24  L 16,22  L 15,22  L 15,24  Z  " style="fill:rgb(84, 39, 22); fill-opacity:1.000; stroke:none;" />
 <path d="  M 16,38  L 15,38  L 15,41  L 16,41  Z  " style="fill:rgb(84, 39, 22); fill-opacity:1.000; stroke:none;" />
 <path d="  M 17,24  L 16,24  L 16,38  L 17,38  Z  " style="fill:rgb(84, 39, 22); fill-opacity:1.000; stroke:none;" />
 <path d="  M 17,12  L 19,12  L 19,11  L 17,11  Z  " style="fill:rgb(84, 39, 22); fill-opacity:1.000; stroke:none;" />
 <path d="  M 20,12  L 19,12  L 19,13  L 20,13  Z  " style="fill:rgb(84, 39, 22); fill-opacity:1.000; stroke:none;" />
 <path d="  M 21,12  L 21,11  L 20,11  L 20,12  Z  " style="fill:rgb(84, 39, 22); fill-opacity:1.000; stroke:none;" />
 <path d="  M 22,11  L 22,10  L 21,10  L 21,11  Z  " style="fill:rgb(84, 39, 22); fill-opacity:1.000; stroke:none;" />
 <path d="  M 22,10  L 23,10  L 23,9  L 22,9  Z  " style="fill:rgb(84, 39, 22); fill-opacity:1.000; stroke:none;" />
 <path d="  M 24,8  L 23,8  L 23,9  L 24,9  Z  " style="fill:rgb(84, 39, 22); fill-opacity:1.000; stroke:none;" />
 <path d="  M 26,8  L 26,7  L 24,7  L 24,8  Z  " style="fill:rgb(84, 39, 22); fill-opacity:1.000; stroke:none;" />
 <path d="  M 28,6  L 26,6  L 26,7  L 28,7  Z  " style="fill:rgb(84, 39, 22); fill-opacity:1.000; stroke:none;" />
 <path d="  M 28,5  L 28,6  L 36,6  L 36,5  Z  " style="fill:rgb(84, 39, 22); fill-opacity:1.000; stroke:none;" />
 <path d="  M 38,7  L 38,6  L 36,6  L 36,7  Z  " style="fill:rgb(84, 39, 22); fill-opacity:1.000; stroke:none;" />
 <path d="  M 40,8  L 40,7  L 38,7  L 38,8  Z  " style="fill:rgb(84, 39, 22); fill-opacity:1.000; stroke:none;" />
 <path d="  M 41,8  L 40,8  L 40,9  L 41,9  Z  " style="fill:rgb(84, 39, 22); fill-opacity:1.000; stroke:none;" />
 <path d="  M 41,10  L 42,10  L 42,9  L 41,9  Z  " style="fill:rgb(84, 39, 22); fill-opacity:1.000; stroke:none;" />
 <path d="  M 43,10  L 42,10  L 42,11  L 43,11  Z  " style="fill:rgb(84, 39, 22); fill-opacity:1.000; stroke:none;" />
 <path d="  M 44,11  L 43,11  L 43,12  L 44,12  Z  " style="fill:rgb(84, 39, 22); fill-opacity:1.000; stroke:none;" />
 <path d="  M 44,13  L 45,13  L 45,12  L 44,12  Z  " style="fill:rgb(84, 39, 22); fill-opacity:1.000; stroke:none;" />
 <path d="  M 47,12  L 47,11  L 45,11  L 45,12  Z  " style="fill:rgb(84, 39, 22); fill-opacity:1.000; stroke:none;" />
 <path d="  M 50,11  L 50,10  L 47,10  L 47,11  Z  " style="fill:rgb(84, 39, 22); fill-opacity:1.000; stroke:none;" />
 <path d="  M 50,9  L 50,10  L 54,10  L 54,9  Z  " style="fill:rgb(84, 39, 22); fill-opacity:1.000; stroke:none;" />
 <path d="  M 55,10  L 54,10  L 54,11  L 55,11  Z  " style="fill:rgb(84, 39, 22); fill-opacity:1.000; stroke:none;" />
 <path d="  M 56,12  L 56,11  L 55,11  L 55,12  Z  " style="fill:rgb(84, 39, 22); fill-opacity:1.000; stroke:none;" />
 <path d="  M 56,60  L 56,59  L 55,59  L 55,60  Z  " style="fill:rgb(84, 39, 22); fill-opacity:1.000; stroke:none;" />
 <path d="  M 10,56  L 10,54  L 9,54  L 9,56  Z  " style="fill:rgb(137, 59, 37); fill-opacity:1.000; stroke:none;" />
 <path d="  M 13,59  L 13,58  L 14,58  L 14,57  L 12,57  L 12,56  L 10,56  L 10,57  L 11,57  L 11,58  L 9,58  L 9,59  Z  " style="fill:rgb(137, 59, 37); fill-opacity:1.000; stroke:none;" />
 <path d="  M 14,11  L 14,10  L 11,10  L 11,11  L 10,11  L 10,13  L 11,13  L 11,12  L 12,12  L 12,11  Z  " style="fill:rgb(137, 59, 37); fill-opacity:1.000; stroke:none;" />
 <path d="  M 11,52  L 10,52  L 10,53  L 11,53  Z  " style="fill:rgb(137, 59, 37); fill-opacity:1.000; stroke:none;" />
 <path d="  M 12,17  L 12,16  L 11,16  L 11,17  Z  " style="fill:rgb(137, 59, 37); fill-opacity:1.000; stroke:none;" />
 <path d="  M 11,51  L 11,52  L 12,52  L 12,51  Z  " style="fill:rgb(137, 59, 37); fill-opacity:1.000; stroke:none;" />
 <path d="  M 13,17  L 12,17  L 12,18  L 13,18  Z  " style="fill:rgb(137, 59, 37); fill-opacity:1.000; stroke:none;" />
 <path d="  M 12,50  L 12,51  L 13,51  L 13,50  Z  " style="fill:rgb(137, 59, 37); fill-opacity:1.000; stroke:none;" />
 <path d="  M 14,18  L 13,18  L 13,19  L 14,19  Z  " style="fill:rgb(137, 59, 37); fill-opacity:1.000; stroke:none;" />
 <path d="  M 13,49  L 14,49  L 14,48  L 13,48  Z  " style="fill:rgb(137, 59, 37); fill-opacity:1.000; stroke:none;" />
 <path d="  M 17,43  L 16,43  L 16,42  L 15,42  L 15,44  L 14,44  L 14,46  L 15,46  L 15,45  L 16,45  L 16,44  L 17,44  Z  " style="fill:rgb(137, 59, 37); fill-opacity:1.000; stroke:none;" />
 <path d="  M 14,56  L 14,57  L 16,57  L 16,56  Z  " style="fill:rgb(137, 59, 37); fill-opacity:1.000; stroke:none;" />
 <path d="  M 15,20  L 15,22  L 16,22  L 16,24  L 17,24  L 17,21  L 16,21  L 16,20  Z  " style="fill:rgb(137, 59, 37); fill-opacity:1.000; stroke:none;" />
 <path d="  M 17,11  L 16,11  L 16,12  L 17,12  Z  " style="fill:rgb(137, 59, 37); fill-opacity:1.000; stroke:none;" />
 <path d="  M 18,56  L 18,55  L 16,55  L 16,56  Z  " style="fill:rgb(137, 59, 37); fill-opacity:1.000; stroke:none;" />
 <path d="  M 17,20  L 17,21  L 19,21  L 19,20  Z  " style="fill:rgb(137, 59, 37); fill-opacity:1.000; stroke:none;" />
 <path d="  M 18,13  L 19,13  L 19,12  L 18,12  Z  " style="fill:rgb(137, 59, 37); fill-opacity:1.000; stroke:none;" />
 <path d="  M 27,55  L 27,54  L 23,54  L 23,53  L 22,53  L 22,54  L 19,54  L 19,55  L 26,55  L 26,56  L 28,56  L 28,55  Z  " style="fill:rgb(137, 59, 37); fill-opacity:1.000; stroke:none;" />
 <path d="  M 21,12  L 20,12  L 20,13  L 21,13  Z  " style="fill:rgb(137, 59, 37); fill-opacity:1.000; stroke:none;" />
 <path d="  M 22,21  L 21,21  L 21,22  L 22,22  Z  " style="fill:rgb(137, 59, 37); fill-opacity:1.000; stroke:none;" />
 <path d="  M 22,26  L 23,26  L 23,22  L 22,22  Z  " style="fill:rgb(137, 59, 37); fill-opacity:1.000; stroke:none;" />
 <path d="  M 23,9  L 23,10  L 24,10  L 24,9  Z  " style="fill:rgb(137, 59, 37); fill-opacity:1.000; stroke:none;" />
 <path d="  M 25,8  L 24,8  L 24,9  L 25,9  Z  " style="fill:rgb(137, 59, 37); fill-opacity:1.000; stroke:none;" />
 <path d="  M 26,7  L 26,8  L 28,8  L 28,7  Z  " style="fill:rgb(137, 59, 37); fill-opacity:1.000; stroke:none;" />
 <path d="  M 28,7  L 29,7  L 29,6  L 28,6  Z  " style="fill:rgb(137, 59, 37); fill-opacity:1.000; stroke:none;" />
 <path d="  M 30,56  L 28,56  L 28,57  L 30,57  Z  " style="fill:rgb(137, 59, 37); fill-opacity:1.000; stroke:none;" />
 <path d="  M 32,57  L 30,57  L 30,58  L 34,58  L 34,57  L 36,57  L 36,56  L 33,56  L 33,55  L 31,55  L 31,56  L 32,56  Z  " style="fill:rgb(137, 59, 37); fill-opacity:1.000; stroke:none;" />
 <path d="  M 36,6  L 34,6  L 34,7  L 35,7  L 35,8  L 36,8  Z  " style="fill:rgb(137, 59, 37); fill-opacity:1.000; stroke:none;" />
 <path d="  M 35,55  L 36,55  L 36,54  L 35,54  Z  " style="fill:rgb(137, 59, 37); fill-opacity:1.000; stroke:none;" />
 <path d="  M 42,53  L 40,53  L 40,54  L 37,54  L 37,55  L 36,55  L 36,56  L 38,56  L 38,55  L 41,55  L 41,54  L 42,54  Z  " style="fill:rgb(137, 59, 37); fill-opacity:1.000; stroke:none;" />
 <path d="  M 37,7  L 37,11  L 38,11  L 38,10  L 39,10  L 39,9  L 40,9  L 40,8  L 38,8  L 38,7  Z  " style="fill:rgb(137, 59, 37); fill-opacity:1.000; stroke:none;" />
 <path d="  M 40,9  L 40,10  L 41,10  L 41,9  Z  " style="fill:rgb(137, 59, 37); fill-opacity:1.000; stroke:none;" />
 <path d="  M 42,41  L 43,41  L 43,40  L 42,40  Z  " style="fill:rgb(137, 59, 37); fill-opacity:1.000; stroke:none;" />
 <path d="  M 44,13  L 44,12  L 43,12  L 43,13  Z  " style="fill:rgb(137, 59, 37); fill-opacity:1.000; stroke:none;" />
 <path d="  M 49,49  L 50,49  L 50,51  L 51,51  L 51,52  L 53,52  L 53,51  L 52,51  L 52,50  L 51,50  L 51,47  L 50,47  L 50,44  L 49,44  L 49,41  L 48,41  L 48,40  L 47,40  L 47,42  L 45,42  L 45,41  L 43,41  L 43,42  L 44,42  L 44,43  L 45,43  L 45,44  L 46,44  L 46,45  L 47,45  L 47,46  L 48,46  L 48,47  L 49,47  Z  M 47,42  L 48,42  L 48,43  L 47,43  Z  " style="fill:rgb(137, 59, 37); fill-opacity:1.000; stroke:none;" />
 <path d="  M 47,13  L 47,12  L 45,12  L 45,13  L 44,13  L 44,14  L 46,14  L 46,13  Z  " style="fill:rgb(137, 59, 37); fill-opacity:1.000; stroke:none;" />
 <path d="  M 48,55  L 47,55  L 47,54  L 44,54  L 44,55  L 46,55  L 46,56  L 48,56  Z  " style="fill:rgb(137, 59, 37); fill-opacity:1.000; stroke:none;" />
 <path d="  M 46,37  L 46,38  L 47,38  L 47,37  Z  " style="fill:rgb(137, 59, 37); fill-opacity:1.000; stroke:none;" />
 <path d="  M 47,11  L 47,12  L 48,12  L 48,11  Z  " style="fill:rgb(137, 59, 37); fill-opacity:1.000; stroke:none;" />
 <path d="  M 48,24  L 48,23  L 47,23  L 47,24  Z  " style="fill:rgb(137, 59, 37); fill-opacity:1.000; stroke:none;" />
 <path d="  M 47,38  L 47,39  L 48,39  L 48,38  Z  " style="fill:rgb(137, 59, 37); fill-opacity:1.000; stroke:none;" />
 <path d="  M 49,21  L 48,21  L 48,22  L 49,22  Z  " style="fill:rgb(137, 59, 37); fill-opacity:1.000; stroke:none;" />
 <path d="  M 48,49  L 48,50  L 49,50  L 49,49  Z  " style="fill:rgb(137, 59, 37); fill-opacity:1.000; stroke:none;" />
 <path d="  M 51,58  L 51,59  L 55,59  L 55,54  L 54,54  L 54,52  L 53,52  L 53,53  L 52,53  L 52,54  L 51,54  L 51,55  L 54,55  L 54,56  L 52,56  L 52,57  L 51,57  L 51,56  L 48,56  L 48,57  L 50,57  L 50,58  Z  M 53,57  L 53,58  L 52,58  L 52,57  Z  " style="fill:rgb(137, 59, 37); fill-opacity:1.000; stroke:none;" />
 <path d="  M 50,12  L 50,11  L 49,11  L 49,12  Z  " style="fill:rgb(137, 59, 37); fill-opacity:1.000; stroke:none;" />
 <path d="  M 49,19  L 49,20  L 50,20  L 50,19  Z  " style="fill:rgb(137, 59, 37); fill-opacity:1.000; stroke:none;" />
 <path d="  M 55,11  L 54,11  L 54,10  L 50,10  L 50,11  L 53,11  L 53,12  L 54,12  L 54,14  L 53,14  L 53,15  L 52,15  L 52,17  L 53,17  L 53,16  L 54,16  L 54,15  L 55,15  Z  " style="fill:rgb(137, 59, 37); fill-opacity:1.000; stroke:none;" />
 <path d="  M 51,19  L 51,18  L 50,18  L 50,19  Z  " style="fill:rgb(137, 59, 37); fill-opacity:1.000; stroke:none;" />
 <path d="  M 50,53  L 51,53  L 51,52  L 50,52  Z  " style="fill:rgb(137, 59, 37); fill-opacity:1.000; stroke:none;" />
 <path d="  M 52,17  L 51,17  L 51,18  L 52,18  Z  " style="fill:rgb(137, 59, 37); fill-opacity:1.000; stroke:none;" />
 <path d="  M 9,56  L 9,58  L 11,58  L 11,57  L 10,57  L 10,56  Z  " style="fill:rgb(158, 73, 42); fill-opacity:1.000; stroke:none;" />
 <path d="  M 10,13  L 10,16  L 12,16  L 12,15  L 11,15  L 11,13  Z  " style="fill:rgb(158, 73, 42); fill-opacity:1.000; stroke:none;" />
 <path d="  M 12,52  L 11,52  L 11,53  L 10,53  L 10,56  L 12,56  L 12,55  L 11,55  L 11,54  L 12,54  Z  " style="fill:rgb(158, 73, 42); fill-opacity:1.000; stroke:none;" />
 <path d="  M 12,11  L 12,12  L 11,12  L 11,13  L 13,13  L 13,12  L 16,12  L 16,11  Z  " style="fill:rgb(158, 73, 42); fill-opacity:1.000; stroke:none;" />
 <path d="  M 13,17  L 13,16  L 12,16  L 12,17  Z  " style="fill:rgb(158, 73, 42); fill-opacity:1.000; stroke:none;" />
 <path d="  M 14,50  L 15,50  L 15,49  L 16,49  L 16,48  L 14,48  L 14,49  L 13,49  L 13,51  L 12,51  L 12,52  L 14,52  Z  " style="fill:rgb(158, 73, 42); fill-opacity:1.000; stroke:none;" />
 <path d="  M 14,57  L 14,56  L 16,56  L 16,55  L 15,55  L 15,54  L 14,54  L 14,55  L 13,55  L 13,56  L 12,56  L 12,57  Z  " style="fill:rgb(158, 73, 42); fill-opacity:1.000; stroke:none;" />
 <path d="  M 13,17  L 13,18  L 14,18  L 14,17  Z  " style="fill:rgb(158, 73, 42); fill-opacity:1.000; stroke:none;" />
 <path d="  M 14,48  L 14,47  L 13,47  L 13,48  Z  " style="fill:rgb(158, 73, 42); fill-opacity:1.000; stroke:none;" />
 <path d="  M 16,20  L 16,19  L 15,19  L 15,18  L 14,18  L 14,20  Z  " style="fill:rgb(158, 73, 42); fill-opacity:1.000; stroke:none;" />
 <path d="  M 14,46  L 14,47  L 15,47  L 15,46  Z  " style="fill:rgb(158, 73, 42); fill-opacity:1.000; stroke:none;" />
 <path d="  M 16,42  L 16,41  L 15,41  L 15,42  Z  " style="fill:rgb(158, 73, 42); fill-opacity:1.000; stroke:none;" />
 <path d="  M 16,45  L 15,45  L 15,46  L 16,46  Z  " style="fill:rgb(158, 73, 42); fill-opacity:1.000; stroke:none;" />
 <path d="  M 16,20  L 16,21  L 17,21  L 17,20  Z  " style="fill:rgb(158, 73, 42); fill-opacity:1.000; stroke:none;" />
 <path d="  M 17,38  L 16,38  L 16,39  L 17,39  Z  " style="fill:rgb(158, 73, 42); fill-opacity:1.000; stroke:none;" />
 <path d="  M 18,42  L 16,42  L 16,43  L 17,43  L 17,44  L 19,44  L 19,43  L 18,43  Z  " style="fill:rgb(158, 73, 42); fill-opacity:1.000; stroke:none;" />
 <path d="  M 16,44  L 16,45  L 17,45  L 17,44  Z  " style="fill:rgb(158, 73, 42); fill-opacity:1.000; stroke:none;" />
 <path d="  M 19,54  L 16,54  L 16,55  L 19,55  Z  " style="fill:rgb(158, 73, 42); fill-opacity:1.000; stroke:none;" />
 <path d="  M 18,12  L 17,12  L 17,13  L 18,13  Z  " style="fill:rgb(158, 73, 42); fill-opacity:1.000; stroke:none;" />
 <path d="  M 17,22  L 18,22  L 18,21  L 17,21  Z  " style="fill:rgb(158, 73, 42); fill-opacity:1.000; stroke:none;" />
 <path d="  M 17,38  L 18,38  L 18,39  L 20,39  L 20,38  L 19,38  L 19,37  L 18,37  L 18,35  L 17,35  Z  " style="fill:rgb(158, 73, 42); fill-opacity:1.000; stroke:none;" />
 <path d="  M 18,13  L 18,14  L 20,14  L 20,13  Z  " style="fill:rgb(158, 73, 42); fill-opacity:1.000; stroke:none;" />
 <path d="  M 20,21  L 20,22  L 21,22  L 21,20  L 20,20  L 20,19  L 18,19  L 18,20  L 19,20  L 19,21  Z  " style="fill:rgb(158, 73, 42); fill-opacity:1.000; stroke:none;" />
 <path d="  M 18,41  L 18,42  L 19,42  L 19,41  Z  " style="fill:rgb(158, 73, 42); fill-opacity:1.000; stroke:none;" />
 <path d="  M 22,54  L 22,53  L 23,53  L 23,52  L 24,52  L 24,51  L 22,51  L 22,52  L 20,52  L 20,53  L 19,53  L 19,54  Z  " style="fill:rgb(158, 73, 42); fill-opacity:1.000; stroke:none;" />
 <path d="  M 21,29  L 20,29  L 20,30  L 21,30  Z  " style="fill:rgb(158, 73, 42); fill-opacity:1.000; stroke:none;" />
 <path d="  M 21,40  L 21,39  L 20,39  L 20,40  Z  " style="fill:rgb(158, 73, 42); fill-opacity:1.000; stroke:none;" />
 <path d="  M 27,10  L 26,10  L 26,9  L 28,9  L 28,8  L 25,8  L 25,9  L 24,9  L 24,10  L 22,10  L 22,11  L 21,11  L 21,13  L 22,13  L 22,12  L 23,12  L 23,11  L 24,11  L 24,12  L 25,12  L 25,11  L 27,11  Z  " style="fill:rgb(158, 73, 42); fill-opacity:1.000; stroke:none;" />
 <path d="  M 22,22  L 21,22  L 21,23  L 22,23  Z  " style="fill:rgb(158, 73, 42); fill-opacity:1.000; stroke:none;" />
 <path d="  M 21,29  L 22,29  L 22,28  L 23,28  L 23,26  L 22,26  L 22,27  L 21,27  Z  " style="fill:rgb(158, 73, 42); fill-opacity:1.000; stroke:none;" />
 <path d="  M 21,51  L 22,51  L 22,50  L 21,50  Z  " style="fill:rgb(158, 73, 42); fill-opacity:1.000; stroke:none;" />
 <path d="  M 27,54  L 27,55  L 28,55  L 28,56  L 30,56  L 30,57  L 32,57  L 32,56  L 31,56  L 31,55  L 30,55  L 30,54  L 28,54  L 28,53  L 23,53  L 23,54  Z  " style="fill:rgb(158, 73, 42); fill-opacity:1.000; stroke:none;" />
 <path d="  M 27,46  L 26,46  L 26,47  L 27,47  Z  " style="fill:rgb(158, 73, 42); fill-opacity:1.000; stroke:none;" />
 <path d="  M 27,32  L 28,32  L 28,31  L 27,31  Z  " style="fill:rgb(158, 73, 42); fill-opacity:1.000; stroke:none;" />
 <path d="  M 29,36  L 28,36  L 28,37  L 29,37  L 29,39  L 28,39  L 28,43  L 27,43  L 27,46  L 28,46  L 28,44  L 29,44  L 29,41  L 30,41  L 30,34  L 29,34  Z  " style="fill:rgb(158, 73, 42); fill-opacity:1.000; stroke:none;" />
 <path d="  M 28,8  L 29,8  L 29,7  L 28,7  Z  " style="fill:rgb(158, 73, 42); fill-opacity:1.000; stroke:none;" />
 <path d="  M 28,34  L 29,34  L 29,32  L 28,32  Z  " style="fill:rgb(158, 73, 42); fill-opacity:1.000; stroke:none;" />
 <path d="  M 30,6  L 29,6  L 29,7  L 30,7  Z  " style="fill:rgb(158, 73, 42); fill-opacity:1.000; stroke:none;" />
 <path d="  M 42,53  L 42,52  L 39,52  L 39,53  L 34,53  L 34,54  L 31,54  L 31,55  L 33,55  L 33,56  L 36,56  L 36,55  L 37,55  L 37,54  L 40,54  L 40,53  Z  M 35,55  L 35,54  L 36,54  L 36,55  Z  " style="fill:rgb(158, 73, 42); fill-opacity:1.000; stroke:none;" />
 <path d="  M 33,6  L 33,7  L 34,7  L 34,6  Z  " style="fill:rgb(158, 73, 42); fill-opacity:1.000; stroke:none;" />
 <path d="  M 36,7  L 36,8  L 35,8  L 35,7  L 34,7  L 34,10  L 35,10  L 35,9  L 37,9  L 37,7  Z  " style="fill:rgb(158, 73, 42); fill-opacity:1.000; stroke:none;" />
 <path d="  M 37,13  L 38,13  L 38,11  L 37,11  Z  " style="fill:rgb(158, 73, 42); fill-opacity:1.000; stroke:none;" />
 <path d="  M 39,10  L 38,10  L 38,11  L 39,11  Z  " style="fill:rgb(158, 73, 42); fill-opacity:1.000; stroke:none;" />
 <path d="  M 39,9  L 39,10  L 40,10  L 40,9  Z  " style="fill:rgb(158, 73, 42); fill-opacity:1.000; stroke:none;" />
 <path d="  M 42,40  L 39,40  L 39,41  L 41,41  L 41,42  L 43,42  L 43,41  L 42,41  Z  " style="fill:rgb(158, 73, 42); fill-opacity:1.000; stroke:none;" />
 <path d="  M 43,11  L 42,11  L 42,10  L 41,10  L 41,11  L 40,11  L 40,12  L 42,12  L 42,13  L 43,13  Z  " style="fill:rgb(158, 73, 42); fill-opacity:1.000; stroke:none;" />
 <path d="  M 41,21  L 41,22  L 42,22  L 42,21  Z  " style="fill:rgb(158, 73, 42); fill-opacity:1.000; stroke:none;" />
 <path d="  M 49,54  L 48,54  L 48,53  L 45,53  L 45,52  L 44,52  L 44,53  L 42,53  L 42,54  L 41,54  L 41,55  L 44,55  L 44,54  L 47,54  L 47,55  L 48,55  L 48,56  L 51,56  L 51,57  L 52,57  L 52,56  L 54,56  L 54,55  L 51,55  L 51,54  L 52,54  L 52,53  L 53,53  L 53,52  L 51,52  L 51,53  L 49,53  Z  " style="fill:rgb(158, 73, 42); fill-opacity:1.000; stroke:none;" />
 <path d="  M 44,26  L 44,27  L 45,27  L 45,25  L 44,25  L 44,23  L 43,23  L 43,22  L 42,22  L 42,24  L 43,24  L 43,26  Z  " style="fill:rgb(158, 73, 42); fill-opacity:1.000; stroke:none;" />
 <path d="  M 43,39  L 42,39  L 42,40  L 43,40  Z  " style="fill:rgb(158, 73, 42); fill-opacity:1.000; stroke:none;" />
 <path d="  M 44,13  L 43,13  L 43,14  L 44,14  Z  " style="fill:rgb(158, 73, 42); fill-opacity:1.000; stroke:none;" />
 <path d="  M 43,16  L 43,17  L 44,17  L 44,16  Z  " style="fill:rgb(158, 73, 42); fill-opacity:1.000; stroke:none;" />
 <path d="  M 47,39  L 47,38  L 46,38  L 46,39  L 44,39  L 44,40  L 43,40  L 43,41  L 45,41  L 45,42  L 47,42  L 47,40  L 48,40  L 48,39  Z  " style="fill:rgb(158, 73, 42); fill-opacity:1.000; stroke:none;" />
 <path d="  M 43,42  L 43,43  L 44,43  L 44,42  Z  " style="fill:rgb(158, 73, 42); fill-opacity:1.000; stroke:none;" />
 <path d="  M 44,16  L 45,16  L 45,15  L 46,15  L 46,14  L 44,14  Z  " style="fill:rgb(158, 73, 42); fill-opacity:1.000; stroke:none;" />
 <path d="  M 45,43  L 44,43  L 44,44  L 45,44  Z  " style="fill:rgb(158, 73, 42); fill-opacity:1.000; stroke:none;" />
 <path d="  M 46,29  L 46,27  L 45,27  L 45,29  Z  " style="fill:rgb(158, 73, 42); fill-opacity:1.000; stroke:none;" />
 <path d="  M 46,38  L 46,37  L 45,37  L 45,38  Z  " style="fill:rgb(158, 73, 42); fill-opacity:1.000; stroke:none;" />
 <path d="  M 46,44  L 45,44  L 45,45  L 46,45  Z  " style="fill:rgb(158, 73, 42); fill-opacity:1.000; stroke:none;" />
 <path d="  M 46,48  L 46,47  L 45,47  L 45,48  Z  " style="fill:rgb(158, 73, 42); fill-opacity:1.000; stroke:none;" />
 <path d="  M 47,14  L 47,13  L 46,13  L 46,14  Z  " style="fill:rgb(158, 73, 42); fill-opacity:1.000; stroke:none;" />
 <path d="  M 46,25  L 47,25  L 47,23  L 46,23  Z  " style="fill:rgb(158, 73, 42); fill-opacity:1.000; stroke:none;" />
 <path d="  M 47,36  L 46,36  L 46,37  L 47,37  Z  " style="fill:rgb(158, 73, 42); fill-opacity:1.000; stroke:none;" />
 <path d="  M 48,46  L 47,46  L 47,45  L 46,45  L 46,47  L 47,47  L 47,48  L 46,48  L 46,49  L 47,49  L 47,50  L 48,50  L 48,49  L 49,49  L 49,47  L 48,47  Z  " style="fill:rgb(158, 73, 42); fill-opacity:1.000; stroke:none;" />
 <path d="  M 47,12  L 47,13  L 48,13  L 48,12  Z  " style="fill:rgb(158, 73, 42); fill-opacity:1.000; stroke:none;" />
 <path d="  M 48,21  L 47,21  L 47,23  L 48,23  Z  " style="fill:rgb(158, 73, 42); fill-opacity:1.000; stroke:none;" />
 <path d="  M 48,43  L 48,42  L 47,42  L 47,43  Z  " style="fill:rgb(158, 73, 42); fill-opacity:1.000; stroke:none;" />
 <path d="  M 49,12  L 49,11  L 48,11  L 48,12  Z  " style="fill:rgb(158, 73, 42); fill-opacity:1.000; stroke:none;" />
 <path d="  M 48,20  L 48,21  L 49,21  L 49,20  Z  " style="fill:rgb(158, 73, 42); fill-opacity:1.000; stroke:none;" />
 <path d="  M 48,50  L 48,51  L 49,51  L 49,52  L 51,52  L 51,51  L 50,51  L 50,49  L 49,49  L 49,50  Z  " style="fill:rgb(158, 73, 42); fill-opacity:1.000; stroke:none;" />
 <path d="  M 52,12  L 53,12  L 53,11  L 50,11  L 50,12  L 49,12  L 49,13  L 52,13  Z  " style="fill:rgb(158, 73, 42); fill-opacity:1.000; stroke:none;" />
 <path d="  M 51,17  L 52,17  L 52,15  L 53,15  L 53,14  L 54,14  L 54,12  L 53,12  L 53,13  L 52,13  L 52,14  L 51,14  L 51,15  L 50,15  L 50,16  L 51,16  Z  " style="fill:rgb(158, 73, 42); fill-opacity:1.000; stroke:none;" />
 <path d="  M 51,17  L 50,17  L 50,18  L 51,18  Z  " style="fill:rgb(158, 73, 42); fill-opacity:1.000; stroke:none;" />
 <path d="  M 52,58  L 53,58  L 53,57  L 52,57  Z  " style="fill:rgb(158, 73, 42); fill-opacity:1.000; stroke:none;" />
 <path d="  M 13,13  L 11,13  L 11,15  L 12,15  L 12,14  L 13,14  Z  " style="fill:rgb(198, 92, 53); fill-opacity:1.000; stroke:none;" />
 <path d="  M 11,54  L 11,55  L 12,55  L 12,56  L 13,56  L 13,55  L 14,55  L 14,54  L 13,54  L 13,53  L 14,53  L 14,52  L 12,52  L 12,54  Z  " style="fill:rgb(198, 92, 53); fill-opacity:1.000; stroke:none;" />
 <path d="  M 19,15  L 19,14  L 18,14  L 18,13  L 17,13  L 17,12  L 15,12  L 15,13  L 16,13  L 16,14  L 14,14  L 14,15  L 12,15  L 12,16  L 13,16  L 13,17  L 14,17  L 14,16  L 15,16  L 15,17  L 17,17  L 17,16  L 18,16  L 18,15  Z  M 16,14  L 17,14  L 17,15  L 16,15  Z  " style="fill:rgb(198, 92, 53); fill-opacity:1.000; stroke:none;" />
 <path d="  M 13,12  L 13,13  L 14,13  L 14,12  Z  " style="fill:rgb(198, 92, 53); fill-opacity:1.000; stroke:none;" />
 <path d="  M 15,18  L 15,17  L 14,17  L 14,18  Z  " style="fill:rgb(198, 92, 53); fill-opacity:1.000; stroke:none;" />
 <path d="  M 18,42  L 18,43  L 19,43  L 19,44  L 17,44  L 17,45  L 16,45  L 16,46  L 15,46  L 15,47  L 14,47  L 14,48  L 16,48  L 16,49  L 15,49  L 15,50  L 14,50  L 14,52  L 15,52  L 15,51  L 17,51  L 17,50  L 18,50  L 18,49  L 19,49  L 19,47  L 20,47  L 20,46  L 21,46  L 21,44  L 22,44  L 22,41  L 21,41  L 21,40  L 20,40  L 20,39  L 18,39  L 18,38  L 17,38  L 17,39  L 16,39  L 16,42  Z  M 19,41  L 19,42  L 18,42  L 18,41  Z  " style="fill:rgb(198, 92, 53); fill-opacity:1.000; stroke:none;" />
 <path d="  M 35,27  L 35,28  L 34,28  L 34,36  L 35,36  L 35,37  L 36,37  L 36,38  L 37,38  L 37,39  L 36,39  L 36,41  L 37,41  L 37,43  L 36,43  L 36,42  L 35,42  L 35,44  L 34,44  L 34,46  L 35,46  L 35,47  L 33,47  L 33,48  L 32,48  L 32,50  L 31,50  L 31,52  L 30,52  L 30,50  L 29,50  L 29,48  L 30,48  L 30,49  L 31,49  L 31,47  L 30,47  L 30,45  L 31,45  L 31,43  L 32,43  L 32,42  L 31,42  L 31,40  L 32,40  L 32,39  L 31,39  L 31,38  L 30,38  L 30,41  L 29,41  L 29,44  L 28,44  L 28,46  L 27,46  L 27,43  L 28,43  L 28,39  L 29,39  L 29,37  L 28,37  L 28,36  L 29,36  L 29,34  L 28,34  L 28,32  L 29,32  L 29,30  L 30,30  L 30,32  L 31,32  L 31,31  L 32,31  L 32,28  L 31,28  L 31,25  L 30,25  L 30,24  L 29,24  L 29,23  L 30,23  L 30,22  L 29,22  L 29,20  L 28,20  L 28,18  L 26,18  L 26,17  L 27,17  L 27,16  L 28,16  L 28,14  L 29,14  L 29,13  L 26,13  L 26,12  L 28,12  L 28,11  L 29,11  L 29,10  L 30,10  L 30,9  L 31,9  L 31,7  L 32,7  L 32,10  L 33,10  L 33,11  L 32,11  L 32,12  L 33,12  L 33,14  L 34,14  L 34,11  L 35,11  L 35,13  L 36,13  L 36,15  L 37,15  L 37,16  L 38,16  L 38,17  L 37,17  L 37,18  L 38,18  L 38,19  L 39,19  L 39,20  L 38,20  L 38,21  L 37,21  L 37,22  L 36,22  L 36,24  L 35,24  L 35,26  L 34,26  L 34,27  Z  M 47,25  L 46,25  L 46,23  L 47,23  L 47,21  L 48,21  L 48,20  L 49,20  L 49,19  L 50,19  L 50,17  L 51,17  L 51,16  L 50,16  L 50,15  L 51,15  L 51,14  L 52,14  L 52,13  L 49,13  L 49,12  L 48,12  L 48,13  L 47,13  L 47,14  L 46,14  L 46,15  L 45,15  L 45,16  L 44,16  L 44,14  L 43,14  L 43,13  L 42,13  L 42,12  L 40,12  L 40,11  L 41,11  L 41,10  L 39,10  L 39,11  L 38,11  L 38,13  L 37,13  L 37,9  L 35,9  L 35,10  L 34,10  L 34,7  L 33,7  L 33,6  L 30,6  L 30,7  L 29,7  L 29,8  L 28,8  L 28,9  L 26,9  L 26,10  L 27,10  L 27,11  L 25,11  L 25,12  L 24,12  L 24,11  L 23,11  L 23,12  L 22,12  L 22,14  L 21,14  L 21,15  L 20,15  L 20,16  L 21,16  L 21,17  L 19,17  L 19,18  L 18,18  L 18,19  L 20,19  L 20,20  L 21,20  L 21,21  L 22,21  L 22,22  L 23,22  L 23,28  L 22,28  L 22,29  L 21,29  L 21,27  L 20,27  L 20,28  L 19,28  L 19,30  L 18,30  L 18,31  L 17,31  L 17,35  L 18,35  L 18,37  L 19,37  L 19,38  L 20,38  L 20,39  L 21,39  L 21,40  L 22,40  L 22,38  L 23,38  L 23,41  L 24,41  L 24,43  L 23,43  L 23,45  L 22,45  L 22,46  L 21,46  L 21,48  L 20,48  L 20,49  L 19,49  L 19,50  L 18,50  L 18,51  L 17,51  L 17,52  L 16,52  L 16,53  L 14,53  L 14,54  L 15,54  L 15,55  L 16,55  L 16,54  L 19,54  L 19,53  L 20,53  L 20,52  L 22,52  L 22,51  L 24,51  L 24,52  L 23,52  L 23,53  L 28,53  L 28,54  L 30,54  L 30,55  L 31,55  L 31,54  L 34,54  L 34,53  L 39,53  L 39,52  L 42,52  L 42,53  L 44,53  L 44,52  L 45,52  L 45,53  L 48,53  L 48,52  L 46,52  L 46,51  L 44,51  L 44,50  L 42,50  L 42,49  L 45,49  L 45,50  L 47,50  L 47,49  L 46,49  L 46,48  L 45,48  L 45,47  L 46,47  L 46,45  L 45,45  L 45,44  L 44,44  L 44,43  L 43,43  L 43,42  L 41,42  L 41,41  L 39,41  L 39,40  L 42,40  L 42,39  L 43,39  L 43,40  L 44,40  L 44,39  L 46,39  L 46,38  L 45,38  L 45,37  L 46,37  L 46,36  L 47,36  Z  M 25,28  L 24,28  L 24,26  L 25,26  L 25,25  L 26,25  L 26,23  L 27,23  L 27,26  L 26,26  L 26,32  L 25,32  L 25,33  L 24,33  L 24,31  L 25,31  Z  M 49,17  L 48,17  L 48,18  L 47,18  L 47,16  L 48,16  L 48,15  L 49,15  Z  M 26,23  L 25,23  L 25,22  L 26,22  Z  M 43,23  L 44,23  L 44,25  L 45,25  L 45,27  L 44,27  L 44,26  L 43,26  L 43,24  L 42,24  L 42,22  L 43,22  Z  M 26,46  L 27,46  L 27,47  L 26,47  Z  M 46,18  L 47,18  L 47,20  L 46,20  Z  M 42,22  L 41,22  L 41,21  L 42,21  Z  M 29,24  L 29,25  L 28,25  L 28,24  Z  M 41,36  L 42,36  L 42,34  L 43,34  L 43,33  L 44,33  L 44,36  L 43,36  L 43,37  L 41,37  Z  M 46,27  L 46,29  L 45,29  L 45,27  Z  M 40,45  L 38,45  L 38,44  L 37,44  L 37,43  L 39,43  L 39,44  L 40,44  Z  M 23,34  L 23,33  L 24,33  L 24,34  Z  M 25,18  L 26,18  L 26,19  L 25,19  Z  M 21,51  L 21,50  L 22,50  L 22,51  Z  M 21,30  L 20,30  L 20,29  L 21,29  Z  M 21,37  L 22,37  L 22,38  L 21,38  Z  M 46,21  L 45,21  L 45,20  L 46,20  Z  M 39,38  L 39,37  L 41,37  L 41,38  Z  M 45,33  L 44,33  L 44,32  L 45,32  Z  M 40,45  L 41,45  L 41,46  L 40,46  Z  M 50,14  L 50,15  L 49,15  L 49,14  Z  M 28,31  L 28,32  L 27,32  L 27,31  Z  M 42,49  L 41,49  L 41,48  L 42,48  Z  M 37,14  L 38,14  L 38,15  L 37,15  Z  M 22,17  L 22,18  L 21,18  L 21,17  Z  M 30,52  L 30,53  L 29,53  L 29,52  Z  M 25,13  L 26,13  L 26,14  L 25,14  Z  M 40,18  L 40,19  L 39,19  L 39,18  Z  M 44,17  L 43,17  L 43,16  L 44,16  Z  " style="fill:rgb(198, 92, 53); fill-opacity:1.000; stroke:none;" />
 <path d="  M 16,18  L 15,18  L 15,19  L 16,19  Z  " style="fill:rgb(198, 92, 53); fill-opacity:1.000; stroke:none;" />
 <path d="  M 16,19  L 16,20  L 18,20  L 18,19  Z  " style="fill:rgb(198, 92, 53); fill-opacity:1.000; stroke:none;" />
 <path d="  M 17,18  L 18,18  L 18,17  L 17,17  Z  " style="fill:rgb(198, 92, 53); fill-opacity:1.000; stroke:none;" />
 <path d="  M 18,27  L 19,27  L 19,26  L 18,26  L 18,25  L 19,25  L 19,24  L 20,24  L 20,23  L 19,23  L 19,22  L 18,22  L 18,23  L 17,23  L 17,30  L 18,30  Z  " style="fill:rgb(198, 92, 53); fill-opacity:1.000; stroke:none;" />
 <path d="  M 21,13  L 20,13  L 20,14  L 21,14  Z  " style="fill:rgb(198, 92, 53); fill-opacity:1.000; stroke:none;" />
 <path d="  M 21,22  L 20,22  L 20,23  L 21,23  Z  " style="fill:rgb(198, 92, 53); fill-opacity:1.000; stroke:none;" />
 <path d="  M 21,26  L 21,27  L 22,27  L 22,23  L 21,23  L 21,24  L 20,24  L 20,26  Z  " style="fill:rgb(198, 92, 53); fill-opacity:1.000; stroke:none;" />
 <path d="  M 30,12  L 29,12  L 29,13  L 30,13  Z  " style="fill:rgb(198, 92, 53); fill-opacity:1.000; stroke:none;" />
 <path d="  M 30,34  L 30,32  L 29,32  L 29,34  Z  " style="fill:rgb(198, 92, 53); fill-opacity:1.000; stroke:none;" />
 <path d="  M 30,37  L 31,37  L 31,38  L 32,38  L 32,36  L 31,36  L 31,34  L 30,34  Z  " style="fill:rgb(198, 92, 53); fill-opacity:1.000; stroke:none;" />
 <path d="  M 46,48  L 47,48  L 47,47  L 46,47  Z  " style="fill:rgb(198, 92, 53); fill-opacity:1.000; stroke:none;" />
 <path d="  M 48,50  L 47,50  L 47,51  L 48,51  Z  " style="fill:rgb(198, 92, 53); fill-opacity:1.000; stroke:none;" />
 <path d="  M 48,52  L 49,52  L 49,51  L 48,51  Z  " style="fill:rgb(198, 92, 53); fill-opacity:1.000; stroke:none;" />
 <path d="  M 48,54  L 49,54  L 49,53  L 48,53  Z  " style="fill:rgb(198, 92, 53); fill-opacity:1.000; stroke:none;" />
 <path d="  M 49,53  L 50,53  L 50,52  L 49,52  Z  " style="fill:rgb(198, 92, 53); fill-opacity:1.000; stroke:none;" />
 <path d="  M 53,13  L 53,12  L 52,12  L 52,13  Z  " style="fill:rgb(198, 92, 53); fill-opacity:1.000; stroke:none;" />
 <path d="  M 14,15  L 14,14  L 16,14  L 16,13  L 15,13  L 15,12  L 14,12  L 14,13  L 13,13  L 13,14  L 12,14  L 12,15  Z  " style="fill:rgb(215, 107, 67); fill-opacity:1.000; stroke:none;" />
 <path d="  M 13,54  L 14,54  L 14,53  L 13,53  Z  " style="fill:rgb(215, 107, 67); fill-opacity:1.000; stroke:none;" />
 <path d="  M 14,16  L 14,17  L 15,17  L 15,16  Z  " style="fill:rgb(215, 107, 67); fill-opacity:1.000; stroke:none;" />
 <path d="  M 16,52  L 17,52  L 17,51  L 15,51  L 15,52  L 14,52  L 14,53  L 16,53  Z  " style="fill:rgb(215, 107, 67); fill-opacity:1.000; stroke:none;" />
 <path d="  M 18,19  L 18,18  L 17,18  L 17,17  L 15,17  L 15,18  L 16,18  L 16,19  Z  " style="fill:rgb(215, 107, 67); fill-opacity:1.000; stroke:none;" />
 <path d="  M 16,15  L 17,15  L 17,14  L 16,14  Z  " style="fill:rgb(215, 107, 67); fill-opacity:1.000; stroke:none;" />
 <path d="  M 20,16  L 20,15  L 21,15  L 21,14  L 19,14  L 19,15  L 18,15  L 18,16  L 17,16  L 17,17  L 18,17  L 18,18  L 19,18  L 19,17  L 21,17  L 21,16  Z  " style="fill:rgb(215, 107, 67); fill-opacity:1.000; stroke:none;" />
 <path d="  M 18,22  L 17,22  L 17,23  L 18,23  Z  " style="fill:rgb(215, 107, 67); fill-opacity:1.000; stroke:none;" />
 <path d="  M 17,31  L 18,31  L 18,30  L 17,30  Z  " style="fill:rgb(215, 107, 67); fill-opacity:1.000; stroke:none;" />
 <path d="  M 17,50  L 17,51  L 18,51  L 18,50  Z  " style="fill:rgb(215, 107, 67); fill-opacity:1.000; stroke:none;" />
 <path d="  M 18,21  L 18,22  L 19,22  L 19,23  L 20,23  L 20,21  Z  " style="fill:rgb(215, 107, 67); fill-opacity:1.000; stroke:none;" />
 <path d="  M 21,26  L 20,26  L 20,24  L 19,24  L 19,25  L 18,25  L 18,26  L 19,26  L 19,27  L 18,27  L 18,30  L 19,30  L 19,28  L 20,28  L 20,27  L 21,27  Z  " style="fill:rgb(215, 107, 67); fill-opacity:1.000; stroke:none;" />
 <path d="  M 18,50  L 19,50  L 19,49  L 18,49  Z  " style="fill:rgb(215, 107, 67); fill-opacity:1.000; stroke:none;" />
 <path d="  M 19,49  L 20,49  L 20,48  L 21,48  L 21,46  L 20,46  L 20,47  L 19,47  Z  " style="fill:rgb(215, 107, 67); fill-opacity:1.000; stroke:none;" />
 <path d="  M 21,24  L 21,23  L 20,23  L 20,24  Z  " style="fill:rgb(215, 107, 67); fill-opacity:1.000; stroke:none;" />
 <path d="  M 21,14  L 22,14  L 22,13  L 21,13  Z  " style="fill:rgb(215, 107, 67); fill-opacity:1.000; stroke:none;" />
 <path d="  M 21,17  L 21,18  L 22,18  L 22,17  Z  " style="fill:rgb(215, 107, 67); fill-opacity:1.000; stroke:none;" />
 <path d="  M 22,37  L 21,37  L 21,38  L 22,38  Z  " style="fill:rgb(215, 107, 67); fill-opacity:1.000; stroke:none;" />
 <path d="  M 22,44  L 21,44  L 21,46  L 22,46  L 22,45  L 23,45  L 23,43  L 24,43  L 24,41  L 23,41  L 23,38  L 22,38  L 22,40  L 21,40  L 21,41  L 22,41  Z  " style="fill:rgb(215, 107, 67); fill-opacity:1.000; stroke:none;" />
 <path d="  M 24,33  L 23,33  L 23,34  L 24,34  Z  " style="fill:rgb(215, 107, 67); fill-opacity:1.000; stroke:none;" />
 <path d="  M 24,33  L 25,33  L 25,32  L 26,32  L 26,26  L 27,26  L 27,23  L 26,23  L 26,25  L 25,25  L 25,26  L 24,26  L 24,28  L 25,28  L 25,31  L 24,31  Z  " style="fill:rgb(215, 107, 67); fill-opacity:1.000; stroke:none;" />
 <path d="  M 26,14  L 26,13  L 25,13  L 25,14  Z  " style="fill:rgb(215, 107, 67); fill-opacity:1.000; stroke:none;" />
 <path d="  M 25,18  L 25,19  L 26,19  L 26,18  Z  " style="fill:rgb(215, 107, 67); fill-opacity:1.000; stroke:none;" />
 <path d="  M 26,22  L 25,22  L 25,23  L 26,23  Z  " style="fill:rgb(215, 107, 67); fill-opacity:1.000; stroke:none;" />
 <path d="  M 34,28  L 35,28  L 35,27  L 34,27  L 34,26  L 35,26  L 35,24  L 36,24  L 36,22  L 37,22  L 37,21  L 38,21  L 38,20  L 39,20  L 39,19  L 38,19  L 38,18  L 37,18  L 37,17  L 38,17  L 38,16  L 37,16  L 37,15  L 36,15  L 36,13  L 35,13  L 35,11  L 34,11  L 34,14  L 33,14  L 33,12  L 32,12  L 32,11  L 33,11  L 33,10  L 32,10  L 32,7  L 31,7  L 31,9  L 30,9  L 30,10  L 29,10  L 29,11  L 28,11  L 28,12  L 26,12  L 26,13  L 29,13  L 29,14  L 28,14  L 28,16  L 27,16  L 27,17  L 26,17  L 26,18  L 28,18  L 28,20  L 29,20  L 29,22  L 30,22  L 30,23  L 29,23  L 29,24  L 30,24  L 30,25  L 31,25  L 31,28  L 32,28  L 32,31  L 31,31  L 31,32  L 30,32  L 30,34  L 31,34  L 31,36  L 32,36  L 32,38  L 31,38  L 31,39  L 32,39  L 32,40  L 31,40  L 31,42  L 32,42  L 32,43  L 31,43  L 31,45  L 30,45  L 30,47  L 31,47  L 31,49  L 30,49  L 30,48  L 29,48  L 29,50  L 30,50  L 30,52  L 31,52  L 31,50  L 32,50  L 32,48  L 33,48  L 33,47  L 35,47  L 35,46  L 34,46  L 34,44  L 35,44  L 35,42  L 36,42  L 36,43  L 37,43  L 37,41  L 36,41  L 36,39  L 37,39  L 37,38  L 36,38  L 36,37  L 35,37  L 35,36  L 34,36  Z  M 30,12  L 30,13  L 29,13  L 29,12  Z  " style="fill:rgb(215, 107, 67); fill-opacity:1.000; stroke:none;" />
 <path d="  M 28,24  L 28,25  L 29,25  L 29,24  Z  " style="fill:rgb(215, 107, 67); fill-opacity:1.000; stroke:none;" />
 <path d="  M 29,32  L 30,32  L 30,30  L 29,30  Z  " style="fill:rgb(215, 107, 67); fill-opacity:1.000; stroke:none;" />
 <path d="  M 29,52  L 29,53  L 30,53  L 30,52  Z  " style="fill:rgb(215, 107, 67); fill-opacity:1.000; stroke:none;" />
 <path d="  M 31,38  L 31,37  L 30,37  L 30,38  Z  " style="fill:rgb(215, 107, 67); fill-opacity:1.000; stroke:none;" />
 <path d="  M 38,15  L 38,14  L 37,14  L 37,15  Z  " style="fill:rgb(215, 107, 67); fill-opacity:1.000; stroke:none;" />
 <path d="  M 40,45  L 40,44  L 39,44  L 39,43  L 37,43  L 37,44  L 38,44  L 38,45  Z  " style="fill:rgb(215, 107, 67); fill-opacity:1.000; stroke:none;" />
 <path d="  M 39,19  L 40,19  L 40,18  L 39,18  Z  " style="fill:rgb(215, 107, 67); fill-opacity:1.000; stroke:none;" />
 <path d="  M 41,37  L 39,37  L 39,38  L 41,38  Z  " style="fill:rgb(215, 107, 67); fill-opacity:1.000; stroke:none;" />
 <path d="  M 41,46  L 41,45  L 40,45  L 40,46  Z  " style="fill:rgb(215, 107, 67); fill-opacity:1.000; stroke:none;" />
 <path d="  M 42,34  L 42,36  L 41,36  L 41,37  L 43,37  L 43,36  L 44,36  L 44,33  L 43,33  L 43,34  Z  " style="fill:rgb(215, 107, 67); fill-opacity:1.000; stroke:none;" />
 <path d="  M 42,48  L 41,48  L 41,49  L 42,49  Z  " style="fill:rgb(215, 107, 67); fill-opacity:1.000; stroke:none;" />
 <path d="  M 48,52  L 48,51  L 47,51  L 47,50  L 45,50  L 45,49  L 42,49  L 42,50  L 44,50  L 44,51  L 46,51  L 46,52  Z  " style="fill:rgb(215, 107, 67); fill-opacity:1.000; stroke:none;" />
 <path d="  M 44,32  L 44,33  L 45,33  L 45,32  Z  " style="fill:rgb(215, 107, 67); fill-opacity:1.000; stroke:none;" />
 <path d="  M 46,21  L 46,20  L 45,20  L 45,21  Z  " style="fill:rgb(215, 107, 67); fill-opacity:1.000; stroke:none;" />
 <path d="  M 46,18  L 46,20  L 47,20  L 47,18  Z  " style="fill:rgb(215, 107, 67); fill-opacity:1.000; stroke:none;" />
 <path d="  M 47,18  L 48,18  L 48,17  L 49,17  L 49,15  L 48,15  L 48,16  L 47,16  Z  " style="fill:rgb(215, 107, 67); fill-opacity:1.000; stroke:none;" />
 <path d="  M 49,52  L 48,52  L 48,53  L 49,53  Z  " style="fill:rgb(215, 107, 67); fill-opacity:1.000; stroke:none;" />
 <path d="  M 49,15  L 50,15  L 50,14  L 49,14  Z  " style="fill:rgb(215, 107, 67); fill-opacity:1.000; stroke:none;" />
 <path d="  M 12,60  L 13,60  L 13,59  L 12,59  Z  " style="fill:rgb(61, 28, 16); fill-opacity:1.000; stroke:none;" />
 <path d="  M 13,58  L 13,59  L 14,59  L 14,58  Z  " style="fill:rgb(61, 28, 16); fill-opacity:1.000; stroke:none;" />
 <path d="  M 16,58  L 16,57  L 14,57  L 14,58  Z  " style="fill:rgb(61, 28, 16); fill-opacity:1.000; stroke:none;" />
 <path d="  M 16,57  L 18,57  L 18,56  L 16,56  Z  " style="fill:rgb(61, 28, 16); fill-opacity:1.000; stroke:none;" />
 <path d="  M 18,55  L 18,56  L 26,56  L 26,55  Z  " style="fill:rgb(61, 28, 16); fill-opacity:1.000; stroke:none;" />
 <path d="  M 28,57  L 28,56  L 26,56  L 26,57  Z  " style="fill:rgb(61, 28, 16); fill-opacity:1.000; stroke:none;" />
 <path d="  M 30,57  L 28,57  L 28,58  L 30,58  Z  " style="fill:rgb(61, 28, 16); fill-opacity:1.000; stroke:none;" />
 <path d="  M 30,59  L 34,59  L 34,58  L 30,58  Z  " style="fill:rgb(61, 28, 16); fill-opacity:1.000; stroke:none;" />
 <path d="  M 36,57  L 34,57  L 34,58  L 36,58  Z  " style="fill:rgb(61, 28, 16); fill-opacity:1.000; stroke:none;" />
 <path d="  M 38,57  L 38,56  L 36,56  L 36,57  Z  " style="fill:rgb(61, 28, 16); fill-opacity:1.000; stroke:none;" />
 <path d="  M 46,56  L 46,55  L 38,55  L 38,56  Z  " style="fill:rgb(61, 28, 16); fill-opacity:1.000; stroke:none;" />
 <path d="  M 46,56  L 46,57  L 48,57  L 48,56  Z  " style="fill:rgb(61, 28, 16); fill-opacity:1.000; stroke:none;" />
 <path d="  M 47,38  L 48,38  L 48,24  L 47,24  Z  " style="fill:rgb(61, 28, 16); fill-opacity:1.000; stroke:none;" />
 <path d="  M 49,22  L 48,22  L 48,24  L 49,24  Z  " style="fill:rgb(61, 28, 16); fill-opacity:1.000; stroke:none;" />
 <path d="  M 49,38  L 48,38  L 48,41  L 49,41  Z  " style="fill:rgb(61, 28, 16); fill-opacity:1.000; stroke:none;" />
 <path d="  M 50,58  L 50,57  L 48,57  L 48,58  Z  " style="fill:rgb(61, 28, 16); fill-opacity:1.000; stroke:none;" />
 <path d="  M 49,20  L 49,22  L 50,22  L 50,20  Z  " style="fill:rgb(61, 28, 16); fill-opacity:1.000; stroke:none;" />
 <path d="  M 49,41  L 49,44  L 50,44  L 50,41  Z  " style="fill:rgb(61, 28, 16); fill-opacity:1.000; stroke:none;" />
 <path d="  M 50,20  L 51,20  L 51,19  L 50,19  Z  " style="fill:rgb(61, 28, 16); fill-opacity:1.000; stroke:none;" />
 <path d="  M 51,44  L 50,44  L 50,47  L 51,47  Z  " style="fill:rgb(61, 28, 16); fill-opacity:1.000; stroke:none;" />
 <path d="  M 51,59  L 51,58  L 50,58  L 50,59  Z  " style="fill:rgb(61, 28, 16); fill-opacity:1.000; stroke:none;" />
 <path d="  M 52,19  L 52,18  L 51,18  L 51,19  Z  " style="fill:rgb(61, 28, 16); fill-opacity:1.000; stroke:none;" />
 <path d="  M 51,50  L 52,50  L 52,47  L 51,47  Z  " style="fill:rgb(61, 28, 16); fill-opacity:1.000; stroke:none;" />
 <path d="  M 51,59  L 51,60  L 55,60  L 55,59  Z  " style="fill:rgb(61, 28, 16); fill-opacity:1.000; stroke:none;" />
 <path d="  M 53,18  L 53,17  L 52,17  L 52,18  Z  " style="fill:rgb(61, 28, 16); fill-opacity:1.000; stroke:none;" />
 <path d="  M 52,50  L 52,51  L 53,51  L 53,50  Z  " style="fill:rgb(61, 28, 16); fill-opacity:1.000; stroke:none;" />
 <path d="  M 53,17  L 54,17  L 54,16  L 53,16  Z  " style="fill:rgb(61, 28, 16); fill-opacity:1.000; stroke:none;" />
 <path d="  M 53,52  L 54,52  L 54,51  L 53,51  Z  " style="fill:rgb(61, 28, 16); fill-opacity:1.000; stroke:none;" />
 <path d="  M 55,16  L 55,15  L 54,15  L 54,16  Z  " style="fill:rgb(61, 28, 16); fill-opacity:1.000; stroke:none;" />
 <path d="  M 54,52  L 54,54  L 55,54  L 55,52  Z  " style="fill:rgb(61, 28, 16); fill-opacity:1.000; stroke:none;" />
 <path d="  M 56,12  L 55,12  L 55,15  L 56,15  Z  " style="fill:rgb(61, 28, 16); fill-opacity:1.000; stroke:none;" />
 <path d="  M 56,54  L 55,54  L 55,59  L 56,59  Z  " style="fill:rgb(61, 28, 16); fill-opacity:1.000; stroke:none;" />
</svg>
