<?xml version="1.0" encoding="UTF-8" standalone="no"?>
<!DOCTYPE svg PUBLIC "-//W3C//DTD SVG 1.1//EN" 
  "http://www.w3.org/Graphics/SVG/1.1/DTD/svg11.dtd">
<svg width="64" height="64"
	 xmlns="http://www.w3.org/2000/svg" version="1.1">
 <path d="  M 8,56  L 4,56  L 4,60  L 16,60  L 16,56  L 12,56  L 12,40  L 8,40  L 8,41  L 7,41  L 7,42  L 6,42  L 6,43  L 5,43  L 5,46  L 8,46  Z  " style="fill:rgb(255, 255, 255); fill-opacity:1.000; stroke:none;" />
 <path d="  M 12,56  L 14,56  L 14,40  L 12,40  Z  " style="fill:rgb(82, 80, 78); fill-opacity:1.000; stroke:none;" />
 <path d="  M 18,56  L 16,56  L 16,60  L 18,60  Z  " style="fill:rgb(82, 80, 78); fill-opacity:1.000; stroke:none;" />
 <path d="  M 27,16  L 26,16  L 26,24  L 27,24  Z  " style="fill:rgb(192, 104, 55); fill-opacity:1.000; stroke:none;" />
 <path d="  M 27,14  L 28,14  L 28,13  L 27,13  Z  " style="fill:rgb(192, 104, 55); fill-opacity:1.000; stroke:none;" />
 <path d="  M 27,15  L 27,16  L 28,16  L 28,15  Z  " style="fill:rgb(192, 104, 55); fill-opacity:1.000; stroke:none;" />
 <path d="  M 32,31  L 32,32  L 33,32  L 33,31  Z  " style="fill:rgb(192, 104, 55); fill-opacity:1.000; stroke:none;" />
 <path d="  M 34,33  L 34,32  L 33,32  L 33,33  Z  " style="fill:rgb(192, 104, 55); fill-opacity:1.000; stroke:none;" />
 <path d="  M 35,34  L 35,33  L 34,33  L 34,34  Z  " style="fill:rgb(192, 104, 55); fill-opacity:1.000; stroke:none;" />
 <path d="  M 35,34  L 35,35  L 36,35  L 36,34  Z  " style="fill:rgb(192, 104, 55); fill-opacity:1.000; stroke:none;" />
 <path d="  M 37,35  L 36,35  L 36,37  L 37,37  Z  " style="fill:rgb(192, 104, 55); fill-opacity:1.000; stroke:none;" />
 <path d="  M 37,39  L 38,39  L 38,38  L 37,38  Z  " style="fill:rgb(192, 104, 55); fill-opacity:1.000; stroke:none;" />
 <path d="  M 49,38  L 48,38  L 48,39  L 49,39  Z  " style="fill:rgb(192, 104, 55); fill-opacity:1.000; stroke:none;" />
 <path d="  M 49,37  L 50,37  L 50,35  L 49,35  Z  " style="fill:rgb(192, 104, 55); fill-opacity:1.000; stroke:none;" />
 <path d="  M 50,35  L 51,35  L 51,34  L 50,34  Z  " style="fill:rgb(192, 104, 55); fill-opacity:1.000; stroke:none;" />
 <path d="  M 52,34  L 52,33  L 51,33  L 51,34  Z  " style="fill:rgb(192, 104, 55); fill-opacity:1.000; stroke:none;" />
 <path d="  M 53,33  L 53,32  L 52,32  L 52,33  Z  " style="fill:rgb(192, 104, 55); fill-opacity:1.000; stroke:none;" />
 <path d="  M 53,32  L 54,32  L 54,31  L 53,31  Z  " style="fill:rgb(192, 104, 55); fill-opacity:1.000; stroke:none;" />
 <path d="  M 58,14  L 59,14  L 59,13  L 58,13  Z  " style="fill:rgb(192, 104, 55); fill-opacity:1.000; stroke:none;" />
 <path d="  M 58,15  L 58,16  L 59,16  L 59,15  Z  " style="fill:rgb(192, 104, 55); fill-opacity:1.000; stroke:none;" />
 <path d="  M 60,16  L 59,16  L 59,24  L 60,24  Z  " style="fill:rgb(192, 104, 55); fill-opacity:1.000; stroke:none;" />
 <path d="  M 27,15  L 28,15  L 28,14  L 27,14  Z  " style="fill:rgb(129, 106, 119); fill-opacity:1.000; stroke:none;" />
 <path d="  M 29,11  L 28,11  L 28,13  L 29,13  Z  " style="fill:rgb(129, 106, 119); fill-opacity:1.000; stroke:none;" />
 <path d="  M 29,11  L 30,11  L 30,10  L 29,10  Z  " style="fill:rgb(129, 106, 119); fill-opacity:1.000; stroke:none;" />
 <path d="  M 31,9  L 30,9  L 30,10  L 31,10  Z  " style="fill:rgb(129, 106, 119); fill-opacity:1.000; stroke:none;" />
 <path d="  M 31,8  L 31,9  L 32,9  L 32,8  Z  " style="fill:rgb(129, 106, 119); fill-opacity:1.000; stroke:none;" />
 <path d="  M 34,8  L 34,7  L 32,7  L 32,8  Z  " style="fill:rgb(129, 106, 119); fill-opacity:1.000; stroke:none;" />
 <path d="  M 36,6  L 34,6  L 34,7  L 36,7  Z  " style="fill:rgb(129, 106, 119); fill-opacity:1.000; stroke:none;" />
 <path d="  M 39,5  L 36,5  L 36,6  L 39,6  Z  " style="fill:rgb(129, 106, 119); fill-opacity:1.000; stroke:none;" />
 <path d="  M 37,37  L 37,38  L 38,38  L 38,37  Z  " style="fill:rgb(129, 106, 119); fill-opacity:1.000; stroke:none;" />
 <path d="  M 37,40  L 38,40  L 38,39  L 37,39  Z  " style="fill:rgb(129, 106, 119); fill-opacity:1.000; stroke:none;" />
 <path d="  M 39,40  L 38,40  L 38,44  L 39,44  Z  " style="fill:rgb(129, 106, 119); fill-opacity:1.000; stroke:none;" />
 <path d="  M 47,4  L 39,4  L 39,5  L 47,5  Z  " style="fill:rgb(129, 106, 119); fill-opacity:1.000; stroke:none;" />
 <path d="  M 50,6  L 50,5  L 47,5  L 47,6  Z  " style="fill:rgb(129, 106, 119); fill-opacity:1.000; stroke:none;" />
 <path d="  M 47,44  L 48,44  L 48,40  L 47,40  Z  " style="fill:rgb(129, 106, 119); fill-opacity:1.000; stroke:none;" />
 <path d="  M 48,37  L 48,38  L 49,38  L 49,37  Z  " style="fill:rgb(129, 106, 119); fill-opacity:1.000; stroke:none;" />
 <path d="  M 49,40  L 49,39  L 48,39  L 48,40  Z  " style="fill:rgb(129, 106, 119); fill-opacity:1.000; stroke:none;" />
 <path d="  M 52,6  L 50,6  L 50,7  L 52,7  Z  " style="fill:rgb(129, 106, 119); fill-opacity:1.000; stroke:none;" />
 <path d="  M 54,8  L 54,7  L 52,7  L 52,8  Z  " style="fill:rgb(129, 106, 119); fill-opacity:1.000; stroke:none;" />
 <path d="  M 54,8  L 54,9  L 55,9  L 55,8  Z  " style="fill:rgb(129, 106, 119); fill-opacity:1.000; stroke:none;" />
 <path d="  M 56,9  L 55,9  L 55,10  L 56,10  Z  " style="fill:rgb(129, 106, 119); fill-opacity:1.000; stroke:none;" />
 <path d="  M 56,10  L 56,11  L 57,11  L 57,10  Z  " style="fill:rgb(129, 106, 119); fill-opacity:1.000; stroke:none;" />
 <path d="  M 57,13  L 58,13  L 58,11  L 57,11  Z  " style="fill:rgb(129, 106, 119); fill-opacity:1.000; stroke:none;" />
 <path d="  M 58,15  L 59,15  L 59,14  L 58,14  Z  " style="fill:rgb(129, 106, 119); fill-opacity:1.000; stroke:none;" />
 <path d="  M 28,24  L 27,24  L 27,26  L 28,26  Z  " style="fill:rgb(216, 168, 79); fill-opacity:1.000; stroke:none;" />
 <path d="  M 29,26  L 28,26  L 28,28  L 29,28  Z  " style="fill:rgb(216, 168, 79); fill-opacity:1.000; stroke:none;" />
 <path d="  M 29,28  L 29,29  L 30,29  L 30,28  Z  " style="fill:rgb(216, 168, 79); fill-opacity:1.000; stroke:none;" />
 <path d="  M 30,29  L 30,30  L 31,30  L 31,29  Z  " style="fill:rgb(216, 168, 79); fill-opacity:1.000; stroke:none;" />
 <path d="  M 31,30  L 31,31  L 32,31  L 32,30  Z  " style="fill:rgb(216, 168, 79); fill-opacity:1.000; stroke:none;" />
 <path d="  M 42,28  L 42,27  L 41,27  L 41,28  Z  " style="fill:rgb(216, 168, 79); fill-opacity:1.000; stroke:none;" />
 <path d="  M 41,29  L 41,30  L 43,30  L 43,29  L 44,29  L 44,28  L 45,28  L 45,27  L 43,27  L 43,28  L 42,28  L 42,29  Z  " style="fill:rgb(216, 168, 79); fill-opacity:1.000; stroke:none;" />
 <path d="  M 45,29  L 44,29  L 44,30  L 45,30  Z  " style="fill:rgb(216, 168, 79); fill-opacity:1.000; stroke:none;" />
 <path d="  M 54,31  L 55,31  L 55,30  L 54,30  Z  " style="fill:rgb(216, 168, 79); fill-opacity:1.000; stroke:none;" />
 <path d="  M 56,30  L 56,29  L 55,29  L 55,30  Z  " style="fill:rgb(216, 168, 79); fill-opacity:1.000; stroke:none;" />
 <path d="  M 57,28  L 56,28  L 56,29  L 57,29  Z  " style="fill:rgb(216, 168, 79); fill-opacity:1.000; stroke:none;" />
 <path d="  M 57,28  L 58,28  L 58,26  L 57,26  Z  " style="fill:rgb(216, 168, 79); fill-opacity:1.000; stroke:none;" />
 <path d="  M 59,24  L 58,24  L 58,26  L 59,26  Z  " style="fill:rgb(216, 168, 79); fill-opacity:1.000; stroke:none;" />
 <path d="  M 38,28  L 38,29  L 39,29  L 39,28  Z  " style="fill:rgb(189, 101, 30); fill-opacity:1.000; stroke:none;" />
 <path d="  M 40,29  L 41,29  L 41,28  L 40,28  Z  " style="fill:rgb(189, 101, 30); fill-opacity:1.000; stroke:none;" />
 <path d="  M 46,28  L 45,28  L 45,29  L 46,29  Z  " style="fill:rgb(189, 101, 30); fill-opacity:1.000; stroke:none;" />
 <path d="  M 47,28  L 47,29  L 48,29  L 48,28  Z  " style="fill:rgb(189, 101, 30); fill-opacity:1.000; stroke:none;" />
 <path d="  M 39,30  L 39,29  L 38,29  L 38,30  Z  " style="fill:rgb(204, 202, 202); fill-opacity:1.000; stroke:none;" />
 <path d="  M 46,47  L 46,46  L 42,46  L 42,45  L 38,45  L 38,46  L 41,46  L 41,47  Z  " style="fill:rgb(204, 202, 202); fill-opacity:1.000; stroke:none;" />
 <path d="  M 38,48  L 38,49  L 41,49  L 41,50  L 45,50  L 45,49  L 42,49  L 42,48  Z  " style="fill:rgb(204, 202, 202); fill-opacity:1.000; stroke:none;" />
 <path d="  M 41,52  L 41,53  L 44,53  L 44,52  L 42,52  L 42,51  L 38,51  L 38,52  Z  " style="fill:rgb(204, 202, 202); fill-opacity:1.000; stroke:none;" />
 <path d="  M 40,56  L 43,56  L 43,55  L 41,55  L 41,54  L 38,54  L 38,55  L 40,55  Z  " style="fill:rgb(204, 202, 202); fill-opacity:1.000; stroke:none;" />
 <path d="  M 39,31  L 40,31  L 40,30  L 39,30  Z  " style="fill:rgb(204, 202, 202); fill-opacity:1.000; stroke:none;" />
 <path d="  M 46,31  L 47,31  L 47,30  L 46,30  Z  " style="fill:rgb(204, 202, 202); fill-opacity:1.000; stroke:none;" />
 <path d="  M 47,29  L 47,30  L 48,30  L 48,29  Z  " style="fill:rgb(204, 202, 202); fill-opacity:1.000; stroke:none;" />
 <path d="  M 38,30  L 38,31  L 39,31  L 39,30  Z  " style="fill:rgb(139, 127, 133); fill-opacity:1.000; stroke:none;" />
 <path d="  M 43,45  L 43,43  L 42,43  L 42,44  L 38,44  L 38,45  L 42,45  L 42,46  L 44,46  L 44,45  Z  " style="fill:rgb(139, 127, 133); fill-opacity:1.000; stroke:none;" />
 <path d="  M 47,49  L 47,48  L 43,48  L 43,47  L 41,47  L 41,46  L 38,46  L 38,48  L 42,48  L 42,49  L 45,49  L 45,50  L 46,50  L 46,49  Z  " style="fill:rgb(139, 127, 133); fill-opacity:1.000; stroke:none;" />
 <path d="  M 42,51  L 42,50  L 41,50  L 41,49  L 38,49  L 38,51  Z  " style="fill:rgb(139, 127, 133); fill-opacity:1.000; stroke:none;" />
 <path d="  M 38,52  L 38,54  L 41,54  L 41,52  Z  " style="fill:rgb(139, 127, 133); fill-opacity:1.000; stroke:none;" />
 <path d="  M 42,37  L 41,37  L 41,34  L 40,34  L 40,31  L 39,31  L 39,35  L 40,35  L 40,38  L 41,38  L 41,40  L 42,40  Z  " style="fill:rgb(139, 127, 133); fill-opacity:1.000; stroke:none;" />
 <path d="  M 46,55  L 46,54  L 41,54  L 41,55  L 43,55  L 43,56  L 44,56  L 44,55  Z  " style="fill:rgb(139, 127, 133); fill-opacity:1.000; stroke:none;" />
 <path d="  M 42,41  L 43,41  L 43,40  L 42,40  Z  " style="fill:rgb(139, 127, 133); fill-opacity:1.000; stroke:none;" />
 <path d="  M 45,52  L 47,52  L 47,51  L 42,51  L 42,52  L 44,52  L 44,53  L 45,53  Z  " style="fill:rgb(139, 127, 133); fill-opacity:1.000; stroke:none;" />
 <path d="  M 43,42  L 44,42  L 44,41  L 43,41  Z  " style="fill:rgb(139, 127, 133); fill-opacity:1.000; stroke:none;" />
 <path d="  M 47,31  L 46,31  L 46,34  L 45,34  L 45,37  L 44,37  L 44,39  L 45,39  L 45,38  L 46,38  L 46,35  L 47,35  Z  " style="fill:rgb(139, 127, 133); fill-opacity:1.000; stroke:none;" />
 <path d="  M 46,44  L 45,44  L 45,45  L 46,45  Z  " style="fill:rgb(139, 127, 133); fill-opacity:1.000; stroke:none;" />
 <path d="  M 46,45  L 46,46  L 47,46  L 47,45  Z  " style="fill:rgb(139, 127, 133); fill-opacity:1.000; stroke:none;" />
 <path d="  M 47,53  L 46,53  L 46,54  L 47,54  Z  " style="fill:rgb(139, 127, 133); fill-opacity:1.000; stroke:none;" />
 <path d="  M 48,31  L 48,30  L 47,30  L 47,31  Z  " style="fill:rgb(139, 127, 133); fill-opacity:1.000; stroke:none;" />
 <path d="  M 48,50  L 47,50  L 47,51  L 48,51  Z  " style="fill:rgb(139, 127, 133); fill-opacity:1.000; stroke:none;" />
 <path d="  M 38,55  L 38,56  L 39,56  L 39,55  Z  " style="fill:rgb(99, 94, 96); fill-opacity:1.000; stroke:none;" />
 <path d="  M 39,56  L 39,58  L 40,58  L 40,57  L 41,57  L 41,56  Z  " style="fill:rgb(99, 94, 96); fill-opacity:1.000; stroke:none;" />
 <path d="  M 40,59  L 42,59  L 42,60  L 44,60  L 44,59  L 46,59  L 46,58  L 47,58  L 47,56  L 48,56  L 48,53  L 47,53  L 47,55  L 46,55  L 46,56  L 44,56  L 44,57  L 41,57  L 41,58  L 40,58  Z  " style="fill:rgb(99, 94, 96); fill-opacity:1.000; stroke:none;" />
 <path d="  M 41,40  L 41,41  L 42,41  L 42,40  Z  " style="fill:rgb(99, 94, 96); fill-opacity:1.000; stroke:none;" />
 <path d="  M 42,53  L 41,53  L 41,54  L 42,54  Z  " style="fill:rgb(99, 94, 96); fill-opacity:1.000; stroke:none;" />
 <path d="  M 42,51  L 43,51  L 43,50  L 42,50  Z  " style="fill:rgb(99, 94, 96); fill-opacity:1.000; stroke:none;" />
 <path d="  M 43,47  L 43,48  L 44,48  L 44,47  Z  " style="fill:rgb(99, 94, 96); fill-opacity:1.000; stroke:none;" />
 <path d="  M 45,41  L 45,40  L 44,40  L 44,41  Z  " style="fill:rgb(99, 94, 96); fill-opacity:1.000; stroke:none;" />
 <path d="  M 48,47  L 47,47  L 47,49  L 48,49  Z  " style="fill:rgb(99, 94, 96); fill-opacity:1.000; stroke:none;" />
 <path d="  M 47,52  L 48,52  L 48,51  L 47,51  Z  " style="fill:rgb(99, 94, 96); fill-opacity:1.000; stroke:none;" />
 <path d="  M 40,28  L 39,28  L 39,29  L 40,29  Z  " style="fill:rgb(226, 132, 56); fill-opacity:1.000; stroke:none;" />
 <path d="  M 42,28  L 41,28  L 41,29  L 42,29  Z  " style="fill:rgb(226, 132, 56); fill-opacity:1.000; stroke:none;" />
 <path d="  M 42,27  L 42,28  L 43,28  L 43,27  Z  " style="fill:rgb(226, 132, 56); fill-opacity:1.000; stroke:none;" />
 <path d="  M 44,30  L 44,29  L 43,29  L 43,30  Z  " style="fill:rgb(226, 132, 56); fill-opacity:1.000; stroke:none;" />
 <path d="  M 45,28  L 44,28  L 44,29  L 45,29  Z  " style="fill:rgb(226, 132, 56); fill-opacity:1.000; stroke:none;" />
 <path d="  M 47,29  L 47,28  L 46,28  L 46,29  Z  " style="fill:rgb(226, 132, 56); fill-opacity:1.000; stroke:none;" />
 <path d="  M 40,56  L 40,55  L 39,55  L 39,56  Z  " style="fill:rgb(89, 89, 89); fill-opacity:1.000; stroke:none;" />
 <path d="  M 41,57  L 40,57  L 40,58  L 41,58  Z  " style="fill:rgb(89, 89, 89); fill-opacity:1.000; stroke:none;" />
 <path d="  M 41,56  L 41,57  L 44,57  L 44,56  Z  " style="fill:rgb(89, 89, 89); fill-opacity:1.000; stroke:none;" />
 <path d="  M 43,45  L 44,45  L 44,46  L 46,46  L 46,45  L 45,45  L 45,44  L 44,44  L 44,42  L 43,42  L 43,41  L 42,41  L 42,43  L 43,43  Z  " style="fill:rgb(89, 89, 89); fill-opacity:1.000; stroke:none;" />
 <path d="  M 45,53  L 42,53  L 42,54  L 46,54  L 46,53  L 48,53  L 48,52  L 45,52  Z  " style="fill:rgb(89, 89, 89); fill-opacity:1.000; stroke:none;" />
 <path d="  M 43,40  L 43,41  L 44,41  L 44,40  Z  " style="fill:rgb(89, 89, 89); fill-opacity:1.000; stroke:none;" />
 <path d="  M 47,50  L 48,50  L 48,49  L 46,49  L 46,50  L 43,50  L 43,51  L 47,51  Z  " style="fill:rgb(89, 89, 89); fill-opacity:1.000; stroke:none;" />
 <path d="  M 44,39  L 44,40  L 45,40  L 45,39  Z  " style="fill:rgb(89, 89, 89); fill-opacity:1.000; stroke:none;" />
 <path d="  M 46,47  L 44,47  L 44,48  L 47,48  L 47,47  L 48,47  L 48,44  L 46,44  L 46,45  L 47,45  L 47,46  L 46,46  Z  " style="fill:rgb(89, 89, 89); fill-opacity:1.000; stroke:none;" />
 <path d="  M 44,55  L 44,56  L 46,56  L 46,55  Z  " style="fill:rgb(89, 89, 89); fill-opacity:1.000; stroke:none;" />
 <path d="  M 46,54  L 46,55  L 47,55  L 47,54  Z  " style="fill:rgb(89, 89, 89); fill-opacity:1.000; stroke:none;" />
</svg>
