<?xml version="1.0" encoding="UTF-8" standalone="no"?>
<!DOCTYPE svg PUBLIC "-//W3C//DTD SVG 1.1//EN" 
  "http://www.w3.org/Graphics/SVG/1.1/DTD/svg11.dtd">
<svg width="64" height="64"
	 xmlns="http://www.w3.org/2000/svg" version="1.1">
 <path d="  M 7,47  L 6,47  L 6,50  L 7,50  Z  " style="fill:rgb(132, 137, 32); fill-opacity:1.000; stroke:none;" />
 <path d="  M 7,46  L 7,47  L 8,47  L 8,46  Z  " style="fill:rgb(132, 137, 32); fill-opacity:1.000; stroke:none;" />
 <path d="  M 7,50  L 7,51  L 8,51  L 8,50  Z  " style="fill:rgb(132, 137, 32); fill-opacity:1.000; stroke:none;" />
 <path d="  M 10,52  L 10,51  L 8,51  L 8,52  Z  " style="fill:rgb(132, 137, 32); fill-opacity:1.000; stroke:none;" />
 <path d="  M 12,52  L 10,52  L 10,53  L 12,53  Z  " style="fill:rgb(132, 137, 32); fill-opacity:1.000; stroke:none;" />
 <path d="  M 14,54  L 14,53  L 12,53  L 12,54  Z  " style="fill:rgb(132, 137, 32); fill-opacity:1.000; stroke:none;" />
 <path d="  M 16,54  L 14,54  L 14,55  L 16,55  Z  " style="fill:rgb(132, 137, 32); fill-opacity:1.000; stroke:none;" />
 <path d="  M 19,55  L 16,55  L 16,56  L 19,56  Z  " style="fill:rgb(132, 137, 32); fill-opacity:1.000; stroke:none;" />
 <path d="  M 22,57  L 22,56  L 19,56  L 19,57  Z  " style="fill:rgb(132, 137, 32); fill-opacity:1.000; stroke:none;" />
 <path d="  M 22,57  L 22,58  L 33,58  L 33,57  Z  " style="fill:rgb(132, 137, 32); fill-opacity:1.000; stroke:none;" />
 <path d="  M 34,56  L 34,57  L 36,57  L 36,56  Z  " style="fill:rgb(132, 137, 32); fill-opacity:1.000; stroke:none;" />
 <path d="  M 39,55  L 37,55  L 37,56  L 39,56  Z  " style="fill:rgb(132, 137, 32); fill-opacity:1.000; stroke:none;" />
 <path d="  M 41,54  L 40,54  L 40,55  L 41,55  Z  " style="fill:rgb(132, 137, 32); fill-opacity:1.000; stroke:none;" />
 <path d="  M 42,54  L 43,54  L 43,53  L 42,53  Z  " style="fill:rgb(132, 137, 32); fill-opacity:1.000; stroke:none;" />
 <path d="  M 45,10  L 45,9  L 44,9  L 44,10  Z  " style="fill:rgb(132, 137, 32); fill-opacity:1.000; stroke:none;" />
 <path d="  M 44,53  L 45,53  L 45,52  L 44,52  Z  " style="fill:rgb(132, 137, 32); fill-opacity:1.000; stroke:none;" />
 <path d="  M 45,9  L 46,9  L 46,8  L 45,8  Z  " style="fill:rgb(132, 137, 32); fill-opacity:1.000; stroke:none;" />
 <path d="  M 45,52  L 46,52  L 46,51  L 45,51  Z  " style="fill:rgb(132, 137, 32); fill-opacity:1.000; stroke:none;" />
 <path d="  M 46,50  L 46,51  L 47,51  L 47,50  Z  " style="fill:rgb(132, 137, 32); fill-opacity:1.000; stroke:none;" />
 <path d="  M 47,9  L 47,10  L 48,10  L 48,9  Z  " style="fill:rgb(132, 137, 32); fill-opacity:1.000; stroke:none;" />
 <path d="  M 48,50  L 48,49  L 47,49  L 47,50  Z  " style="fill:rgb(132, 137, 32); fill-opacity:1.000; stroke:none;" />
 <path d="  M 48,49  L 49,49  L 49,48  L 48,48  Z  " style="fill:rgb(132, 137, 32); fill-opacity:1.000; stroke:none;" />
 <path d="  M 49,10  L 49,11  L 50,11  L 50,10  Z  " style="fill:rgb(132, 137, 32); fill-opacity:1.000; stroke:none;" />
 <path d="  M 49,48  L 50,48  L 50,47  L 49,47  Z  " style="fill:rgb(132, 137, 32); fill-opacity:1.000; stroke:none;" />
 <path d="  M 51,11  L 50,11  L 50,12  L 51,12  Z  " style="fill:rgb(132, 137, 32); fill-opacity:1.000; stroke:none;" />
 <path d="  M 50,46  L 50,47  L 51,47  L 51,46  Z  " style="fill:rgb(132, 137, 32); fill-opacity:1.000; stroke:none;" />
 <path d="  M 52,12  L 51,12  L 51,13  L 52,13  Z  " style="fill:rgb(132, 137, 32); fill-opacity:1.000; stroke:none;" />
 <path d="  M 51,44  L 51,45  L 52,45  L 52,44  Z  " style="fill:rgb(132, 137, 32); fill-opacity:1.000; stroke:none;" />
 <path d="  M 52,15  L 53,15  L 53,14  L 52,14  Z  " style="fill:rgb(132, 137, 32); fill-opacity:1.000; stroke:none;" />
 <path d="  M 53,43  L 53,42  L 52,42  L 52,43  Z  " style="fill:rgb(132, 137, 32); fill-opacity:1.000; stroke:none;" />
 <path d="  M 53,17  L 54,17  L 54,16  L 53,16  Z  " style="fill:rgb(132, 137, 32); fill-opacity:1.000; stroke:none;" />
 <path d="  M 54,41  L 54,39  L 53,39  L 53,41  Z  " style="fill:rgb(132, 137, 32); fill-opacity:1.000; stroke:none;" />
 <path d="  M 54,19  L 55,19  L 55,18  L 54,18  Z  " style="fill:rgb(132, 137, 32); fill-opacity:1.000; stroke:none;" />
 <path d="  M 55,36  L 54,36  L 54,38  L 55,38  Z  " style="fill:rgb(132, 137, 32); fill-opacity:1.000; stroke:none;" />
 <path d="  M 55,35  L 56,35  L 56,21  L 55,21  Z  " style="fill:rgb(132, 137, 32); fill-opacity:1.000; stroke:none;" />
 <path d="  M 7,51  L 7,50  L 6,50  L 6,51  Z  " style="fill:rgb(68, 79, 14); fill-opacity:1.000; stroke:none;" />
 <path d="  M 8,51  L 7,51  L 7,52  L 8,52  Z  " style="fill:rgb(68, 79, 14); fill-opacity:1.000; stroke:none;" />
 <path d="  M 10,53  L 10,52  L 8,52  L 8,53  Z  " style="fill:rgb(68, 79, 14); fill-opacity:1.000; stroke:none;" />
 <path d="  M 10,54  L 12,54  L 12,53  L 10,53  Z  " style="fill:rgb(68, 79, 14); fill-opacity:1.000; stroke:none;" />
 <path d="  M 12,54  L 12,55  L 14,55  L 14,54  Z  " style="fill:rgb(68, 79, 14); fill-opacity:1.000; stroke:none;" />
 <path d="  M 14,55  L 14,56  L 16,56  L 16,55  Z  " style="fill:rgb(68, 79, 14); fill-opacity:1.000; stroke:none;" />
 <path d="  M 16,57  L 19,57  L 19,56  L 16,56  Z  " style="fill:rgb(68, 79, 14); fill-opacity:1.000; stroke:none;" />
 <path d="  M 22,58  L 22,57  L 19,57  L 19,58  Z  " style="fill:rgb(68, 79, 14); fill-opacity:1.000; stroke:none;" />
 <path d="  M 34,59  L 34,58  L 22,58  L 22,59  Z  " style="fill:rgb(68, 79, 14); fill-opacity:1.000; stroke:none;" />
 <path d="  M 34,57  L 34,58  L 37,58  L 37,57  Z  " style="fill:rgb(68, 79, 14); fill-opacity:1.000; stroke:none;" />
 <path d="  M 40,57  L 40,56  L 37,56  L 37,57  Z  " style="fill:rgb(68, 79, 14); fill-opacity:1.000; stroke:none;" />
 <path d="  M 40,56  L 42,56  L 42,55  L 40,55  Z  " style="fill:rgb(68, 79, 14); fill-opacity:1.000; stroke:none;" />
 <path d="  M 44,55  L 44,54  L 42,54  L 42,55  Z  " style="fill:rgb(68, 79, 14); fill-opacity:1.000; stroke:none;" />
 <path d="  M 44,53  L 44,54  L 46,54  L 46,53  Z  " style="fill:rgb(68, 79, 14); fill-opacity:1.000; stroke:none;" />
 <path d="  M 46,53  L 47,53  L 47,52  L 46,52  Z  " style="fill:rgb(68, 79, 14); fill-opacity:1.000; stroke:none;" />
 <path d="  M 47,52  L 48,52  L 48,51  L 47,51  Z  " style="fill:rgb(68, 79, 14); fill-opacity:1.000; stroke:none;" />
 <path d="  M 49,50  L 48,50  L 48,51  L 49,51  Z  " style="fill:rgb(68, 79, 14); fill-opacity:1.000; stroke:none;" />
 <path d="  M 49,50  L 50,50  L 50,49  L 49,49  Z  " style="fill:rgb(68, 79, 14); fill-opacity:1.000; stroke:none;" />
 <path d="  M 50,48  L 50,49  L 51,49  L 51,48  Z  " style="fill:rgb(68, 79, 14); fill-opacity:1.000; stroke:none;" />
 <path d="  M 52,46  L 51,46  L 51,48  L 52,48  Z  " style="fill:rgb(68, 79, 14); fill-opacity:1.000; stroke:none;" />
 <path d="  M 52,44  L 52,46  L 53,46  L 53,44  Z  " style="fill:rgb(68, 79, 14); fill-opacity:1.000; stroke:none;" />
 <path d="  M 53,44  L 54,44  L 54,42  L 53,42  Z  " style="fill:rgb(68, 79, 14); fill-opacity:1.000; stroke:none;" />
 <path d="  M 55,39  L 54,39  L 54,42  L 55,42  Z  " style="fill:rgb(68, 79, 14); fill-opacity:1.000; stroke:none;" />
 <path d="  M 56,36  L 55,36  L 55,39  L 56,39  Z  " style="fill:rgb(68, 79, 14); fill-opacity:1.000; stroke:none;" />
 <path d="  M 57,28  L 56,28  L 56,36  L 57,36  Z  " style="fill:rgb(68, 79, 14); fill-opacity:1.000; stroke:none;" />
 <path d="  M 52,36  L 52,39  L 51,39  L 51,42  L 50,42  L 50,44  L 49,44  L 49,46  L 48,46  L 48,47  L 47,47  L 47,48  L 46,48  L 46,49  L 45,49  L 45,50  L 44,50  L 44,51  L 42,51  L 42,52  L 40,52  L 40,53  L 37,53  L 37,54  L 34,54  L 34,55  L 22,55  L 22,54  L 19,54  L 19,53  L 16,53  L 16,52  L 14,52  L 14,51  L 12,51  L 12,50  L 10,50  L 10,49  L 9,49  L 9,48  L 8,48  L 8,47  L 7,47  L 7,50  L 8,50  L 8,51  L 10,51  L 10,52  L 12,52  L 12,53  L 14,53  L 14,54  L 16,54  L 16,55  L 19,55  L 19,56  L 22,56  L 22,57  L 34,57  L 34,56  L 37,56  L 37,55  L 40,55  L 40,54  L 42,54  L 42,53  L 44,53  L 44,52  L 45,52  L 45,51  L 46,51  L 46,50  L 47,50  L 47,49  L 48,49  L 48,48  L 49,48  L 49,47  L 50,47  L 50,46  L 51,46  L 51,44  L 52,44  L 52,42  L 53,42  L 53,39  L 54,39  L 54,36  L 55,36  L 55,19  L 54,19  L 54,17  L 53,17  L 53,15  L 52,15  L 52,13  L 51,13  L 51,12  L 50,12  L 50,11  L 49,11  L 49,10  L 47,10  L 47,11  L 48,11  L 48,12  L 49,12  L 49,14  L 50,14  L 50,16  L 51,16  L 51,18  L 52,18  L 52,21  L 53,21  L 53,36  Z  " style="fill:rgb(163, 155, 32); fill-opacity:1.000; stroke:none;" />
 <path d="  M 47,9  L 45,9  L 45,10  L 47,10  Z  " style="fill:rgb(163, 155, 32); fill-opacity:1.000; stroke:none;" />
 <path d="  M 10,49  L 11,49  L 11,48  L 12,48  L 12,47  L 11,47  L 11,46  L 12,46  L 12,45  L 13,45  L 13,43  L 12,43  L 12,44  L 9,44  L 9,45  L 8,45  L 8,46  L 9,46  L 9,47  L 10,47  Z  M 11,45  L 11,46  L 10,46  L 10,45  Z  " style="fill:rgb(168, 22, 11); fill-opacity:1.000; stroke:none;" />
 <path d="  M 12,42  L 11,42  L 11,43  L 12,43  Z  " style="fill:rgb(168, 22, 11); fill-opacity:1.000; stroke:none;" />
 <path d="  M 13,46  L 12,46  L 12,47  L 14,47  L 14,45  L 13,45  Z  " style="fill:rgb(168, 22, 11); fill-opacity:1.000; stroke:none;" />
 <path d="  M 14,49  L 14,51  L 15,51  L 15,50  L 16,50  L 16,49  L 15,49  L 15,48  L 13,48  L 13,49  Z  " style="fill:rgb(168, 22, 11); fill-opacity:1.000; stroke:none;" />
 <path d="  M 16,49  L 17,49  L 17,48  L 16,48  Z  " style="fill:rgb(168, 22, 11); fill-opacity:1.000; stroke:none;" />
 <path d="  M 19,50  L 17,50  L 17,51  L 18,51  L 18,52  L 20,52  L 20,51  L 19,51  Z  " style="fill:rgb(168, 22, 11); fill-opacity:1.000; stroke:none;" />
 <path d="  M 20,50  L 20,49  L 19,49  L 19,50  Z  " style="fill:rgb(168, 22, 11); fill-opacity:1.000; stroke:none;" />
 <path d="  M 20,52  L 20,53  L 21,53  L 21,52  Z  " style="fill:rgb(168, 22, 11); fill-opacity:1.000; stroke:none;" />
 <path d="  M 21,51  L 22,51  L 22,50  L 21,50  Z  " style="fill:rgb(168, 22, 11); fill-opacity:1.000; stroke:none;" />
 <path d="  M 23,54  L 25,54  L 25,53  L 24,53  L 24,52  L 22,52  L 22,53  L 23,53  Z  " style="fill:rgb(168, 22, 11); fill-opacity:1.000; stroke:none;" />
 <path d="  M 24,52  L 25,52  L 25,51  L 24,51  Z  " style="fill:rgb(168, 22, 11); fill-opacity:1.000; stroke:none;" />
 <path d="  M 28,54  L 28,53  L 27,53  L 27,52  L 25,52  L 25,53  L 26,53  L 26,54  Z  " style="fill:rgb(168, 22, 11); fill-opacity:1.000; stroke:none;" />
 <path d="  M 32,53  L 31,53  L 31,52  L 28,52  L 28,53  L 30,53  L 30,54  L 32,54  Z  " style="fill:rgb(168, 22, 11); fill-opacity:1.000; stroke:none;" />
 <path d="  M 33,52  L 32,52  L 32,53  L 33,53  Z  " style="fill:rgb(168, 22, 11); fill-opacity:1.000; stroke:none;" />
 <path d="  M 36,52  L 35,52  L 35,51  L 34,51  L 34,53  L 36,53  Z  " style="fill:rgb(168, 22, 11); fill-opacity:1.000; stroke:none;" />
 <path d="  M 36,52  L 37,52  L 37,51  L 36,51  Z  " style="fill:rgb(168, 22, 11); fill-opacity:1.000; stroke:none;" />
 <path d="  M 40,51  L 41,51  L 41,50  L 43,50  L 43,48  L 42,48  L 42,49  L 40,49  L 40,50  L 39,50  L 39,51  L 38,51  L 38,52  L 40,52  Z  " style="fill:rgb(168, 22, 11); fill-opacity:1.000; stroke:none;" />
 <path d="  M 43,10  L 43,11  L 44,11  L 44,10  Z  " style="fill:rgb(168, 22, 11); fill-opacity:1.000; stroke:none;" />
 <path d="  M 47,13  L 47,12  L 46,12  L 46,11  L 44,11  L 44,12  L 45,12  L 45,13  Z  " style="fill:rgb(168, 22, 11); fill-opacity:1.000; stroke:none;" />
 <path d="  M 45,49  L 45,48  L 44,48  L 44,49  Z  " style="fill:rgb(168, 22, 11); fill-opacity:1.000; stroke:none;" />
 <path d="  M 46,48  L 46,46  L 45,46  L 45,48  Z  " style="fill:rgb(168, 22, 11); fill-opacity:1.000; stroke:none;" />
 <path d="  M 46,45  L 46,46  L 47,46  L 47,45  Z  " style="fill:rgb(168, 22, 11); fill-opacity:1.000; stroke:none;" />
 <path d="  M 47,15  L 48,15  L 48,14  L 47,14  Z  " style="fill:rgb(168, 22, 11); fill-opacity:1.000; stroke:none;" />
 <path d="  M 48,45  L 48,44  L 47,44  L 47,45  Z  " style="fill:rgb(168, 22, 11); fill-opacity:1.000; stroke:none;" />
 <path d="  M 50,17  L 50,16  L 49,16  L 49,15  L 48,15  L 48,18  L 49,18  L 49,17  Z  " style="fill:rgb(168, 22, 11); fill-opacity:1.000; stroke:none;" />
 <path d="  M 49,40  L 48,40  L 48,41  L 50,41  L 50,39  L 49,39  Z  " style="fill:rgb(168, 22, 11); fill-opacity:1.000; stroke:none;" />
 <path d="  M 48,42  L 48,44  L 49,44  L 49,42  Z  " style="fill:rgb(168, 22, 11); fill-opacity:1.000; stroke:none;" />
 <path d="  M 50,18  L 49,18  L 49,20  L 50,20  Z  " style="fill:rgb(168, 22, 11); fill-opacity:1.000; stroke:none;" />
 <path d="  M 51,20  L 50,20  L 50,21  L 51,21  Z  " style="fill:rgb(168, 22, 11); fill-opacity:1.000; stroke:none;" />
 <path d="  M 52,26  L 52,23  L 51,23  L 51,22  L 50,22  L 50,24  L 51,24  L 51,25  L 50,25  L 50,27  L 51,27  L 51,26  Z  " style="fill:rgb(168, 22, 11); fill-opacity:1.000; stroke:none;" />
 <path d="  M 50,29  L 50,30  L 51,30  L 51,29  Z  " style="fill:rgb(168, 22, 11); fill-opacity:1.000; stroke:none;" />
 <path d="  M 50,31  L 50,34  L 51,34  L 51,35  L 52,35  L 52,33  L 51,33  L 51,32  L 52,32  L 52,30  L 51,30  L 51,31  Z  " style="fill:rgb(168, 22, 11); fill-opacity:1.000; stroke:none;" />
 <path d="  M 50,38  L 50,39  L 51,39  L 51,38  Z  " style="fill:rgb(168, 22, 11); fill-opacity:1.000; stroke:none;" />
 <path d="  M 51,27  L 51,28  L 52,28  L 52,27  Z  " style="fill:rgb(168, 22, 11); fill-opacity:1.000; stroke:none;" />
 <path d="  M 9,47  L 9,46  L 8,46  L 8,47  Z  " style="fill:rgb(175, 22, 11); fill-opacity:1.000; stroke:none;" />
 <path d="  M 10,48  L 10,47  L 9,47  L 9,48  Z  " style="fill:rgb(175, 22, 11); fill-opacity:1.000; stroke:none;" />
 <path d="  M 12,44  L 12,43  L 10,43  L 10,44  Z  " style="fill:rgb(175, 22, 11); fill-opacity:1.000; stroke:none;" />
 <path d="  M 10,45  L 10,46  L 11,46  L 11,45  Z  " style="fill:rgb(175, 22, 11); fill-opacity:1.000; stroke:none;" />
 <path d="  M 11,46  L 11,47  L 12,47  L 12,46  Z  " style="fill:rgb(175, 22, 11); fill-opacity:1.000; stroke:none;" />
 <path d="  M 12,47  L 12,48  L 11,48  L 11,49  L 12,49  L 12,50  L 14,50  L 14,49  L 13,49  L 13,48  L 15,48  L 15,49  L 16,49  L 16,47  L 15,47  L 15,46  L 14,46  L 14,47  Z  " style="fill:rgb(175, 22, 11); fill-opacity:1.000; stroke:none;" />
 <path d="  M 12,41  L 12,43  L 13,43  L 13,41  Z  " style="fill:rgb(175, 22, 11); fill-opacity:1.000; stroke:none;" />
 <path d="  M 12,45  L 12,46  L 13,46  L 13,45  Z  " style="fill:rgb(175, 22, 11); fill-opacity:1.000; stroke:none;" />
 <path d="  M 13,44  L 13,45  L 14,45  L 14,44  Z  " style="fill:rgb(175, 22, 11); fill-opacity:1.000; stroke:none;" />
 <path d="  M 19,50  L 19,49  L 18,49  L 18,48  L 17,48  L 17,49  L 16,49  L 16,50  L 15,50  L 15,51  L 16,51  L 16,52  L 18,52  L 18,51  L 17,51  L 17,50  Z  " style="fill:rgb(175, 22, 11); fill-opacity:1.000; stroke:none;" />
 <path d="  M 21,51  L 21,50  L 19,50  L 19,51  L 20,51  L 20,52  L 21,52  L 21,53  L 22,53  L 22,52  L 24,52  L 24,51  Z  " style="fill:rgb(175, 22, 11); fill-opacity:1.000; stroke:none;" />
 <path d="  M 19,52  L 19,53  L 20,53  L 20,52  Z  " style="fill:rgb(175, 22, 11); fill-opacity:1.000; stroke:none;" />
 <path d="  M 22,53  L 22,54  L 23,54  L 23,53  Z  " style="fill:rgb(175, 22, 11); fill-opacity:1.000; stroke:none;" />
 <path d="  M 24,52  L 24,53  L 25,53  L 25,52  Z  " style="fill:rgb(175, 22, 11); fill-opacity:1.000; stroke:none;" />
 <path d="  M 25,54  L 26,54  L 26,53  L 25,53  Z  " style="fill:rgb(175, 22, 11); fill-opacity:1.000; stroke:none;" />
 <path d="  M 27,53  L 28,53  L 28,52  L 27,52  Z  " style="fill:rgb(175, 22, 11); fill-opacity:1.000; stroke:none;" />
 <path d="  M 30,53  L 28,53  L 28,54  L 30,54  Z  " style="fill:rgb(175, 22, 11); fill-opacity:1.000; stroke:none;" />
 <path d="  M 31,53  L 32,53  L 32,52  L 31,52  Z  " style="fill:rgb(175, 22, 11); fill-opacity:1.000; stroke:none;" />
 <path d="  M 34,52  L 33,52  L 33,53  L 32,53  L 32,54  L 34,54  Z  " style="fill:rgb(175, 22, 11); fill-opacity:1.000; stroke:none;" />
 <path d="  M 36,51  L 35,51  L 35,52  L 36,52  Z  " style="fill:rgb(175, 22, 11); fill-opacity:1.000; stroke:none;" />
 <path d="  M 36,53  L 37,53  L 37,52  L 36,52  Z  " style="fill:rgb(175, 22, 11); fill-opacity:1.000; stroke:none;" />
 <path d="  M 39,50  L 37,50  L 37,52  L 38,52  L 38,51  L 39,51  Z  " style="fill:rgb(175, 22, 11); fill-opacity:1.000; stroke:none;" />
 <path d="  M 41,50  L 41,51  L 42,51  L 42,50  Z  " style="fill:rgb(175, 22, 11); fill-opacity:1.000; stroke:none;" />
 <path d="  M 43,50  L 44,50  L 44,48  L 45,48  L 45,46  L 44,46  L 44,47  L 43,47  Z  " style="fill:rgb(175, 22, 11); fill-opacity:1.000; stroke:none;" />
 <path d="  M 44,11  L 45,11  L 45,10  L 44,10  Z  " style="fill:rgb(175, 22, 11); fill-opacity:1.000; stroke:none;" />
 <path d="  M 46,45  L 45,45  L 45,46  L 46,46  Z  " style="fill:rgb(175, 22, 11); fill-opacity:1.000; stroke:none;" />
 <path d="  M 47,12  L 47,11  L 46,11  L 46,12  Z  " style="fill:rgb(175, 22, 11); fill-opacity:1.000; stroke:none;" />
 <path d="  M 46,14  L 48,14  L 48,12  L 47,12  L 47,13  L 46,13  Z  " style="fill:rgb(175, 22, 11); fill-opacity:1.000; stroke:none;" />
 <path d="  M 46,45  L 47,45  L 47,44  L 46,44  Z  " style="fill:rgb(175, 22, 11); fill-opacity:1.000; stroke:none;" />
 <path d="  M 47,46  L 46,46  L 46,47  L 47,47  Z  " style="fill:rgb(175, 22, 11); fill-opacity:1.000; stroke:none;" />
 <path d="  M 48,16  L 48,15  L 47,15  L 47,16  Z  " style="fill:rgb(175, 22, 11); fill-opacity:1.000; stroke:none;" />
 <path d="  M 47,44  L 48,44  L 48,42  L 47,42  Z  " style="fill:rgb(175, 22, 11); fill-opacity:1.000; stroke:none;" />
 <path d="  M 47,46  L 48,46  L 48,45  L 47,45  Z  " style="fill:rgb(175, 22, 11); fill-opacity:1.000; stroke:none;" />
 <path d="  M 48,15  L 49,15  L 49,14  L 48,14  Z  " style="fill:rgb(175, 22, 11); fill-opacity:1.000; stroke:none;" />
 <path d="  M 49,40  L 49,39  L 48,39  L 48,40  Z  " style="fill:rgb(175, 22, 11); fill-opacity:1.000; stroke:none;" />
 <path d="  M 48,41  L 48,42  L 50,42  L 50,41  Z  " style="fill:rgb(175, 22, 11); fill-opacity:1.000; stroke:none;" />
 <path d="  M 49,18  L 50,18  L 50,17  L 49,17  Z  " style="fill:rgb(175, 22, 11); fill-opacity:1.000; stroke:none;" />
 <path d="  M 49,20  L 49,21  L 50,21  L 50,20  Z  " style="fill:rgb(175, 22, 11); fill-opacity:1.000; stroke:none;" />
 <path d="  M 50,39  L 50,38  L 51,38  L 51,36  L 52,36  L 52,35  L 51,35  L 51,34  L 50,34  L 50,36  L 49,36  L 49,39  Z  " style="fill:rgb(175, 22, 11); fill-opacity:1.000; stroke:none;" />
 <path d="  M 51,20  L 51,18  L 50,18  L 50,20  Z  " style="fill:rgb(175, 22, 11); fill-opacity:1.000; stroke:none;" />
 <path d="  M 50,22  L 51,22  L 51,23  L 52,23  L 52,21  L 50,21  Z  " style="fill:rgb(175, 22, 11); fill-opacity:1.000; stroke:none;" />
 <path d="  M 51,25  L 51,24  L 50,24  L 50,25  Z  " style="fill:rgb(175, 22, 11); fill-opacity:1.000; stroke:none;" />
 <path d="  M 51,28  L 51,27  L 50,27  L 50,29  L 51,29  L 51,30  L 52,30  L 52,28  Z  " style="fill:rgb(175, 22, 11); fill-opacity:1.000; stroke:none;" />
 <path d="  M 50,31  L 51,31  L 51,30  L 50,30  Z  " style="fill:rgb(175, 22, 11); fill-opacity:1.000; stroke:none;" />
 <path d="  M 52,27  L 52,26  L 51,26  L 51,27  Z  " style="fill:rgb(175, 22, 11); fill-opacity:1.000; stroke:none;" />
 <path d="  M 52,32  L 51,32  L 51,33  L 52,33  Z  " style="fill:rgb(175, 22, 11); fill-opacity:1.000; stroke:none;" />
 <path d="  M 8,47  L 8,48  L 9,48  L 9,47  Z  " style="fill:rgb(198, 146, 120); fill-opacity:1.000; stroke:none;" />
 <path d="  M 10,48  L 9,48  L 9,49  L 10,49  Z  " style="fill:rgb(198, 146, 120); fill-opacity:1.000; stroke:none;" />
 <path d="  M 10,50  L 12,50  L 12,49  L 10,49  Z  " style="fill:rgb(198, 146, 120); fill-opacity:1.000; stroke:none;" />
 <path d="  M 47,11  L 47,10  L 45,10  L 45,11  Z  " style="fill:rgb(198, 146, 120); fill-opacity:1.000; stroke:none;" />
 <path d="  M 47,11  L 47,12  L 48,12  L 48,11  Z  " style="fill:rgb(198, 146, 120); fill-opacity:1.000; stroke:none;" />
 <path d="  M 49,14  L 49,12  L 48,12  L 48,14  Z  " style="fill:rgb(198, 146, 120); fill-opacity:1.000; stroke:none;" />
 <path d="  M 14,51  L 14,50  L 12,50  L 12,51  Z  " style="fill:rgb(214, 182, 155); fill-opacity:1.000; stroke:none;" />
 <path d="  M 16,51  L 14,51  L 14,52  L 16,52  Z  " style="fill:rgb(214, 182, 155); fill-opacity:1.000; stroke:none;" />
 <path d="  M 16,52  L 16,53  L 19,53  L 19,52  Z  " style="fill:rgb(214, 182, 155); fill-opacity:1.000; stroke:none;" />
 <path d="  M 22,54  L 22,53  L 19,53  L 19,54  Z  " style="fill:rgb(214, 182, 155); fill-opacity:1.000; stroke:none;" />
 <path d="  M 22,54  L 22,55  L 34,55  L 34,54  Z  " style="fill:rgb(214, 182, 155); fill-opacity:1.000; stroke:none;" />
 <path d="  M 34,53  L 34,54  L 37,54  L 37,53  Z  " style="fill:rgb(214, 182, 155); fill-opacity:1.000; stroke:none;" />
 <path d="  M 37,52  L 37,53  L 40,53  L 40,52  Z  " style="fill:rgb(214, 182, 155); fill-opacity:1.000; stroke:none;" />
 <path d="  M 42,52  L 42,51  L 40,51  L 40,52  Z  " style="fill:rgb(214, 182, 155); fill-opacity:1.000; stroke:none;" />
 <path d="  M 42,50  L 42,51  L 44,51  L 44,50  Z  " style="fill:rgb(214, 182, 155); fill-opacity:1.000; stroke:none;" />
 <path d="  M 44,49  L 44,50  L 45,50  L 45,49  Z  " style="fill:rgb(214, 182, 155); fill-opacity:1.000; stroke:none;" />
 <path d="  M 45,48  L 45,49  L 46,49  L 46,48  Z  " style="fill:rgb(214, 182, 155); fill-opacity:1.000; stroke:none;" />
 <path d="  M 46,48  L 47,48  L 47,47  L 46,47  Z  " style="fill:rgb(214, 182, 155); fill-opacity:1.000; stroke:none;" />
 <path d="  M 48,46  L 47,46  L 47,47  L 48,47  Z  " style="fill:rgb(214, 182, 155); fill-opacity:1.000; stroke:none;" />
 <path d="  M 49,44  L 48,44  L 48,46  L 49,46  Z  " style="fill:rgb(214, 182, 155); fill-opacity:1.000; stroke:none;" />
 <path d="  M 50,14  L 49,14  L 49,16  L 50,16  Z  " style="fill:rgb(214, 182, 155); fill-opacity:1.000; stroke:none;" />
 <path d="  M 49,44  L 50,44  L 50,42  L 49,42  Z  " style="fill:rgb(214, 182, 155); fill-opacity:1.000; stroke:none;" />
 <path d="  M 50,16  L 50,18  L 51,18  L 51,16  Z  " style="fill:rgb(214, 182, 155); fill-opacity:1.000; stroke:none;" />
 <path d="  M 51,42  L 51,39  L 50,39  L 50,42  Z  " style="fill:rgb(214, 182, 155); fill-opacity:1.000; stroke:none;" />
 <path d="  M 52,21  L 52,18  L 51,18  L 51,21  Z  " style="fill:rgb(214, 182, 155); fill-opacity:1.000; stroke:none;" />
 <path d="  M 52,39  L 52,36  L 51,36  L 51,39  Z  " style="fill:rgb(214, 182, 155); fill-opacity:1.000; stroke:none;" />
 <path d="  M 53,21  L 52,21  L 52,36  L 53,36  Z  " style="fill:rgb(214, 182, 155); fill-opacity:1.000; stroke:none;" />
 <path d="  M 14,41  L 14,40  L 13,40  L 13,41  Z  " style="fill:rgb(191, 49, 35); fill-opacity:1.000; stroke:none;" />
 <path d="  M 13,43  L 15,43  L 15,42  L 13,42  Z  " style="fill:rgb(191, 49, 35); fill-opacity:1.000; stroke:none;" />
 <path d="  M 15,40  L 15,39  L 14,39  L 14,40  Z  " style="fill:rgb(191, 49, 35); fill-opacity:1.000; stroke:none;" />
 <path d="  M 16,39  L 16,38  L 15,38  L 15,39  Z  " style="fill:rgb(191, 49, 35); fill-opacity:1.000; stroke:none;" />
 <path d="  M 15,42  L 16,42  L 16,41  L 17,41  L 17,40  L 15,40  Z  " style="fill:rgb(191, 49, 35); fill-opacity:1.000; stroke:none;" />
 <path d="  M 16,44  L 16,43  L 15,43  L 15,44  Z  " style="fill:rgb(191, 49, 35); fill-opacity:1.000; stroke:none;" />
 <path d="  M 16,47  L 16,46  L 15,46  L 15,47  Z  " style="fill:rgb(191, 49, 35); fill-opacity:1.000; stroke:none;" />
 <path d="  M 16,37  L 16,38  L 18,38  L 18,37  Z  " style="fill:rgb(191, 49, 35); fill-opacity:1.000; stroke:none;" />
 <path d="  M 16,44  L 16,46  L 17,46  L 17,44  Z  " style="fill:rgb(191, 49, 35); fill-opacity:1.000; stroke:none;" />
 <path d="  M 17,40  L 18,40  L 18,39  L 17,39  Z  " style="fill:rgb(191, 49, 35); fill-opacity:1.000; stroke:none;" />
 <path d="  M 47,33  L 47,30  L 46,30  L 46,31  L 45,31  L 45,32  L 44,32  L 44,31  L 43,31  L 43,30  L 44,30  L 44,29  L 43,29  L 43,28  L 42,28  L 42,27  L 41,27  L 41,26  L 42,26  L 42,24  L 41,24  L 41,22  L 39,22  L 39,21  L 38,21  L 38,20  L 40,20  L 40,19  L 39,19  L 39,18  L 40,18  L 40,17  L 38,17  L 38,16  L 37,16  L 37,17  L 36,17  L 36,18  L 38,18  L 38,19  L 37,19  L 37,20  L 36,20  L 36,21  L 35,21  L 35,22  L 34,22  L 34,23  L 32,23  L 32,22  L 31,22  L 31,23  L 30,23  L 30,24  L 29,24  L 29,25  L 28,25  L 28,26  L 27,26  L 27,27  L 26,27  L 26,28  L 27,28  L 27,29  L 29,29  L 29,30  L 28,30  L 28,32  L 29,32  L 29,33  L 28,33  L 28,34  L 27,34  L 27,33  L 26,33  L 26,35  L 25,35  L 25,34  L 24,34  L 24,33  L 23,33  L 23,34  L 22,34  L 22,35  L 21,35  L 21,36  L 20,36  L 20,34  L 19,34  L 19,36  L 18,36  L 18,37  L 20,37  L 20,38  L 21,38  L 21,40  L 20,40  L 20,41  L 19,41  L 19,40  L 18,40  L 18,41  L 17,41  L 17,43  L 18,43  L 18,42  L 19,42  L 19,43  L 20,43  L 20,42  L 21,42  L 21,41  L 23,41  L 23,42  L 24,42  L 24,40  L 25,40  L 25,39  L 27,39  L 27,38  L 25,38  L 25,37  L 26,37  L 26,36  L 27,36  L 27,35  L 28,35  L 28,36  L 29,36  L 29,35  L 30,35  L 30,33  L 31,33  L 31,34  L 32,34  L 32,35  L 33,35  L 33,34  L 34,34  L 34,32  L 35,32  L 35,31  L 36,31  L 36,30  L 38,30  L 38,29  L 39,29  L 39,28  L 41,28  L 41,30  L 42,30  L 42,33  L 44,33  L 44,34  L 42,34  L 42,35  L 43,35  L 43,36  L 44,36  L 44,37  L 46,37  L 46,36  L 45,36  L 45,33  L 46,33  L 46,34  L 49,34  L 49,32  L 48,32  L 48,33  Z  M 37,26  L 38,26  L 38,27  L 37,27  Z  M 29,28  L 28,28  L 28,27  L 29,27  L 29,26  L 30,26  L 30,25  L 31,25  L 31,24  L 32,24  L 32,25  L 33,25  L 33,28  L 32,28  L 32,29  L 31,29  L 31,28  L 30,28  L 30,29  L 29,29  Z  M 25,35  L 25,36  L 24,36  L 24,37  L 22,37  L 22,36  L 23,36  L 23,35  Z  M 36,21  L 37,21  L 37,22  L 36,22  Z  M 23,38  L 23,39  L 22,39  L 22,38  Z  M 34,29  L 35,29  L 35,30  L 34,30  Z  M 23,39  L 24,39  L 24,40  L 23,40  Z  M 31,31  L 31,30  L 33,30  L 33,31  L 32,31  L 32,32  L 30,32  L 30,31  Z  M 32,32  L 33,32  L 33,33  L 32,33  Z  M 37,28  L 38,28  L 38,29  L 37,29  Z  M 35,26  L 35,25  L 36,25  L 36,26  Z  M 35,23  L 36,23  L 36,24  L 35,24  Z  M 35,29  L 35,28  L 34,28  L 34,27  L 37,27  L 37,28  L 36,28  L 36,29  Z  M 40,23  L 40,24  L 41,24  L 41,25  L 40,25  L 40,26  L 39,26  L 39,25  L 38,25  L 38,23  Z  M 34,25  L 34,24  L 35,24  L 35,25  Z  M 30,30  L 30,31  L 29,31  L 29,30  Z  " style="fill:rgb(191, 49, 35); fill-opacity:1.000; stroke:none;" />
 <path d="  M 19,38  L 18,38  L 18,39  L 19,39  Z  " style="fill:rgb(191, 49, 35); fill-opacity:1.000; stroke:none;" />
 <path d="  M 18,43  L 18,44  L 19,44  L 19,43  Z  " style="fill:rgb(191, 49, 35); fill-opacity:1.000; stroke:none;" />
 <path d="  M 18,46  L 19,46  L 19,45  L 18,45  Z  " style="fill:rgb(191, 49, 35); fill-opacity:1.000; stroke:none;" />
 <path d="  M 18,49  L 19,49  L 19,48  L 18,48  Z  " style="fill:rgb(191, 49, 35); fill-opacity:1.000; stroke:none;" />
 <path d="  M 21,32  L 21,33  L 20,33  L 20,34  L 22,34  L 22,33  L 23,33  L 23,32  L 25,32  L 25,31  L 24,31  L 24,30  L 23,30  L 23,31  L 22,31  L 22,32  Z  " style="fill:rgb(191, 49, 35); fill-opacity:1.000; stroke:none;" />
 <path d="  M 25,48  L 26,48  L 26,47  L 27,47  L 27,46  L 24,46  L 24,45  L 23,45  L 23,44  L 21,44  L 21,43  L 20,43  L 20,45  L 22,45  L 22,47  L 23,47  L 23,48  L 24,48  L 24,47  L 25,47  Z  " style="fill:rgb(191, 49, 35); fill-opacity:1.000; stroke:none;" />
 <path d="  M 21,48  L 20,48  L 20,49  L 21,49  Z  " style="fill:rgb(191, 49, 35); fill-opacity:1.000; stroke:none;" />
 <path d="  M 21,43  L 22,43  L 22,42  L 21,42  Z  " style="fill:rgb(191, 49, 35); fill-opacity:1.000; stroke:none;" />
 <path d="  M 22,48  L 22,47  L 21,47  L 21,48  Z  " style="fill:rgb(191, 49, 35); fill-opacity:1.000; stroke:none;" />
 <path d="  M 22,49  L 21,49  L 21,50  L 22,50  Z  " style="fill:rgb(191, 49, 35); fill-opacity:1.000; stroke:none;" />
 <path d="  M 23,49  L 23,48  L 22,48  L 22,49  Z  " style="fill:rgb(191, 49, 35); fill-opacity:1.000; stroke:none;" />
 <path d="  M 23,43  L 23,44  L 24,44  L 24,43  Z  " style="fill:rgb(191, 49, 35); fill-opacity:1.000; stroke:none;" />
 <path d="  M 25,30  L 25,31  L 26,31  L 26,30  L 27,30  L 27,29  L 24,29  L 24,30  Z  " style="fill:rgb(191, 49, 35); fill-opacity:1.000; stroke:none;" />
 <path d="  M 27,39  L 27,40  L 26,40  L 26,41  L 25,41  L 25,42  L 24,42  L 24,43  L 25,43  L 25,44  L 26,44  L 26,45  L 27,45  L 27,46  L 28,46  L 28,44  L 30,44  L 30,43  L 31,43  L 31,42  L 32,42  L 32,43  L 34,43  L 34,42  L 33,42  L 33,40  L 32,40  L 32,41  L 31,41  L 31,40  L 30,40  L 30,39  L 29,39  L 29,38  L 28,38  L 28,39  Z  M 28,43  L 26,43  L 26,42  L 28,42  Z  M 30,42  L 28,42  L 28,41  L 27,41  L 27,40  L 29,40  L 29,41  L 30,41  Z  " style="fill:rgb(191, 49, 35); fill-opacity:1.000; stroke:none;" />
 <path d="  M 25,48  L 24,48  L 24,50  L 25,50  Z  " style="fill:rgb(191, 49, 35); fill-opacity:1.000; stroke:none;" />
 <path d="  M 25,32  L 25,33  L 26,33  L 26,32  Z  " style="fill:rgb(191, 49, 35); fill-opacity:1.000; stroke:none;" />
 <path d="  M 26,50  L 25,50  L 25,51  L 26,51  Z  " style="fill:rgb(191, 49, 35); fill-opacity:1.000; stroke:none;" />
 <path d="  M 27,31  L 26,31  L 26,32  L 27,32  Z  " style="fill:rgb(191, 49, 35); fill-opacity:1.000; stroke:none;" />
 <path d="  M 26,49  L 26,50  L 27,50  L 27,49  Z  " style="fill:rgb(191, 49, 35); fill-opacity:1.000; stroke:none;" />
 <path d="  M 29,47  L 29,46  L 28,46  L 28,47  L 27,47  L 27,49  L 29,49  L 29,48  L 31,48  L 31,47  L 32,47  L 32,48  L 33,48  L 33,47  L 34,47  L 34,46  L 33,46  L 33,45  L 31,45  L 31,46  L 30,46  L 30,47  Z  " style="fill:rgb(191, 49, 35); fill-opacity:1.000; stroke:none;" />
 <path d="  M 28,52  L 28,51  L 27,51  L 27,52  Z  " style="fill:rgb(191, 49, 35); fill-opacity:1.000; stroke:none;" />
 <path d="  M 29,38  L 30,38  L 30,39  L 31,39  L 31,38  L 32,38  L 32,37  L 33,37  L 33,36  L 32,36  L 32,35  L 31,35  L 31,36  L 29,36  Z  " style="fill:rgb(191, 49, 35); fill-opacity:1.000; stroke:none;" />
 <path d="  M 29,45  L 29,46  L 30,46  L 30,45  Z  " style="fill:rgb(191, 49, 35); fill-opacity:1.000; stroke:none;" />
 <path d="  M 30,49  L 29,49  L 29,51  L 30,51  Z  " style="fill:rgb(191, 49, 35); fill-opacity:1.000; stroke:none;" />
 <path d="  M 30,52  L 31,52  L 31,51  L 30,51  Z  " style="fill:rgb(191, 49, 35); fill-opacity:1.000; stroke:none;" />
 <path d="  M 32,44  L 32,43  L 31,43  L 31,44  Z  " style="fill:rgb(191, 49, 35); fill-opacity:1.000; stroke:none;" />
 <path d="  M 32,49  L 32,48  L 31,48  L 31,49  Z  " style="fill:rgb(191, 49, 35); fill-opacity:1.000; stroke:none;" />
 <path d="  M 31,50  L 31,51  L 32,51  L 32,50  Z  " style="fill:rgb(191, 49, 35); fill-opacity:1.000; stroke:none;" />
 <path d="  M 34,22  L 34,21  L 35,21  L 35,20  L 33,20  L 33,21  L 32,21  L 32,22  Z  " style="fill:rgb(191, 49, 35); fill-opacity:1.000; stroke:none;" />
 <path d="  M 41,33  L 41,32  L 40,32  L 40,31  L 39,31  L 39,30  L 38,30  L 38,32  L 39,32  L 39,34  L 37,34  L 37,33  L 36,33  L 36,32  L 35,32  L 35,34  L 36,34  L 36,35  L 35,35  L 35,36  L 34,36  L 34,37  L 33,37  L 33,38  L 32,38  L 32,39  L 33,39  L 33,40  L 35,40  L 35,39  L 34,39  L 34,38  L 35,38  L 35,37  L 36,37  L 36,36  L 37,36  L 37,35  L 38,35  L 38,36  L 39,36  L 39,38  L 38,38  L 38,39  L 39,39  L 39,40  L 40,40  L 40,41  L 41,41  L 41,40  L 42,40  L 42,38  L 44,38  L 44,37  L 43,37  L 43,36  L 41,36  L 41,35  L 40,35  L 40,34  L 42,34  L 42,33  Z  M 41,38  L 40,38  L 40,37  L 41,37  Z  " style="fill:rgb(191, 49, 35); fill-opacity:1.000; stroke:none;" />
 <path d="  M 33,49  L 32,49  L 32,50  L 33,50  Z  " style="fill:rgb(191, 49, 35); fill-opacity:1.000; stroke:none;" />
 <path d="  M 34,36  L 34,35  L 33,35  L 33,36  Z  " style="fill:rgb(191, 49, 35); fill-opacity:1.000; stroke:none;" />
 <path d="  M 35,49  L 35,48  L 33,48  L 33,49  Z  " style="fill:rgb(191, 49, 35); fill-opacity:1.000; stroke:none;" />
 <path d="  M 35,34  L 34,34  L 34,35  L 35,35  Z  " style="fill:rgb(191, 49, 35); fill-opacity:1.000; stroke:none;" />
 <path d="  M 36,46  L 36,45  L 35,45  L 35,44  L 37,44  L 37,45  L 38,45  L 38,46  Z  M 36,48  L 36,47  L 37,47  L 37,48  L 39,48  L 39,49  L 40,49  L 40,48  L 41,48  L 41,47  L 43,47  L 43,46  L 42,46  L 42,45  L 41,45  L 41,44  L 40,44  L 40,43  L 41,43  L 41,42  L 40,42  L 40,41  L 39,41  L 39,42  L 37,42  L 37,43  L 36,43  L 36,42  L 35,42  L 35,43  L 34,43  L 34,46  L 35,46  L 35,48  Z  M 40,45  L 40,46  L 39,46  L 39,45  Z  M 39,46  L 39,47  L 38,47  L 38,46  Z  M 41,47  L 40,47  L 40,46  L 41,46  Z  " style="fill:rgb(191, 49, 35); fill-opacity:1.000; stroke:none;" />
 <path d="  M 35,51  L 35,50  L 34,50  L 34,51  Z  " style="fill:rgb(191, 49, 35); fill-opacity:1.000; stroke:none;" />
 <path d="  M 36,18  L 35,18  L 35,19  L 36,19  Z  " style="fill:rgb(191, 49, 35); fill-opacity:1.000; stroke:none;" />
 <path d="  M 36,40  L 37,40  L 37,37  L 36,37  L 36,38  L 35,38  L 35,39  L 36,39  Z  " style="fill:rgb(191, 49, 35); fill-opacity:1.000; stroke:none;" />
 <path d="  M 35,41  L 36,41  L 36,40  L 35,40  Z  " style="fill:rgb(191, 49, 35); fill-opacity:1.000; stroke:none;" />
 <path d="  M 35,50  L 36,50  L 36,49  L 35,49  Z  " style="fill:rgb(191, 49, 35); fill-opacity:1.000; stroke:none;" />
 <path d="  M 36,42  L 37,42  L 37,41  L 36,41  Z  " style="fill:rgb(191, 49, 35); fill-opacity:1.000; stroke:none;" />
 <path d="  M 37,50  L 36,50  L 36,51  L 37,51  Z  " style="fill:rgb(191, 49, 35); fill-opacity:1.000; stroke:none;" />
 <path d="  M 38,15  L 38,16  L 39,16  L 39,15  Z  " style="fill:rgb(191, 49, 35); fill-opacity:1.000; stroke:none;" />
 <path d="  M 39,40  L 38,40  L 38,41  L 39,41  Z  " style="fill:rgb(191, 49, 35); fill-opacity:1.000; stroke:none;" />
 <path d="  M 38,50  L 39,50  L 39,49  L 38,49  Z  " style="fill:rgb(191, 49, 35); fill-opacity:1.000; stroke:none;" />
 <path d="  M 41,15  L 41,14  L 42,14  L 42,12  L 41,12  L 41,13  L 40,13  L 40,14  L 39,14  L 39,15  Z  " style="fill:rgb(191, 49, 35); fill-opacity:1.000; stroke:none;" />
 <path d="  M 42,15  L 41,15  L 41,16  L 40,16  L 40,17  L 42,17  L 42,16  L 43,16  L 43,15  L 45,15  L 45,14  L 44,14  L 44,12  L 43,12  L 43,14  L 42,14  Z  " style="fill:rgb(191, 49, 35); fill-opacity:1.000; stroke:none;" />
 <path d="  M 42,18  L 40,18  L 40,19  L 42,19  Z  " style="fill:rgb(191, 49, 35); fill-opacity:1.000; stroke:none;" />
 <path d="  M 41,31  L 41,30  L 40,30  L 40,31  Z  " style="fill:rgb(191, 49, 35); fill-opacity:1.000; stroke:none;" />
 <path d="  M 43,42  L 42,42  L 42,43  L 41,43  L 41,44  L 42,44  L 42,45  L 44,45  L 44,44  L 43,44  Z  " style="fill:rgb(191, 49, 35); fill-opacity:1.000; stroke:none;" />
 <path d="  M 43,11  L 42,11  L 42,12  L 43,12  Z  " style="fill:rgb(191, 49, 35); fill-opacity:1.000; stroke:none;" />
 <path d="  M 42,17  L 42,18  L 43,18  L 43,17  Z  " style="fill:rgb(191, 49, 35); fill-opacity:1.000; stroke:none;" />
 <path d="  M 43,19  L 42,19  L 42,20  L 43,20  Z  " style="fill:rgb(191, 49, 35); fill-opacity:1.000; stroke:none;" />
 <path d="  M 43,21  L 43,22  L 42,22  L 42,23  L 43,23  L 43,24  L 44,24  L 44,25  L 46,25  L 46,24  L 45,24  L 45,23  L 44,23  L 44,22  L 46,22  L 46,21  L 45,21  L 45,20  L 44,20  L 44,21  Z  " style="fill:rgb(191, 49, 35); fill-opacity:1.000; stroke:none;" />
 <path d="  M 43,41  L 43,42  L 44,42  L 44,41  L 46,41  L 46,40  L 44,40  L 44,39  L 43,39  L 43,40  L 42,40  L 42,41  Z  " style="fill:rgb(191, 49, 35); fill-opacity:1.000; stroke:none;" />
 <path d="  M 46,18  L 46,17  L 44,17  L 44,18  L 43,18  L 43,19  L 45,19  L 45,18  Z  " style="fill:rgb(191, 49, 35); fill-opacity:1.000; stroke:none;" />
 <path d="  M 44,26  L 44,25  L 43,25  L 43,28  L 44,28  L 44,27  L 45,27  L 45,28  L 46,28  L 46,27  L 47,27  L 47,26  L 48,26  L 48,25  L 49,25  L 49,24  L 47,24  L 47,25  L 46,25  L 46,26  Z  " style="fill:rgb(191, 49, 35); fill-opacity:1.000; stroke:none;" />
 <path d="  M 45,43  L 44,43  L 44,44  L 45,44  Z  " style="fill:rgb(191, 49, 35); fill-opacity:1.000; stroke:none;" />
 <path d="  M 46,15  L 45,15  L 45,16  L 46,16  Z  " style="fill:rgb(191, 49, 35); fill-opacity:1.000; stroke:none;" />
 <path d="  M 45,19  L 45,20  L 46,20  L 46,19  Z  " style="fill:rgb(191, 49, 35); fill-opacity:1.000; stroke:none;" />
 <path d="  M 45,29  L 45,30  L 46,30  L 46,29  Z  " style="fill:rgb(191, 49, 35); fill-opacity:1.000; stroke:none;" />
 <path d="  M 49,37  L 48,37  L 48,38  L 47,38  L 47,37  L 46,37  L 46,38  L 45,38  L 45,39  L 47,39  L 47,40  L 48,40  L 48,39  L 49,39  Z  " style="fill:rgb(191, 49, 35); fill-opacity:1.000; stroke:none;" />
 <path d="  M 46,43  L 46,42  L 45,42  L 45,43  Z  " style="fill:rgb(191, 49, 35); fill-opacity:1.000; stroke:none;" />
 <path d="  M 47,16  L 46,16  L 46,17  L 47,17  Z  " style="fill:rgb(191, 49, 35); fill-opacity:1.000; stroke:none;" />
 <path d="  M 48,20  L 46,20  L 46,21  L 48,21  Z  " style="fill:rgb(191, 49, 35); fill-opacity:1.000; stroke:none;" />
 <path d="  M 46,24  L 47,24  L 47,22  L 46,22  Z  " style="fill:rgb(191, 49, 35); fill-opacity:1.000; stroke:none;" />
 <path d="  M 47,42  L 47,41  L 46,41  L 46,42  Z  " style="fill:rgb(191, 49, 35); fill-opacity:1.000; stroke:none;" />
 <path d="  M 47,36  L 47,37  L 48,37  L 48,36  Z  " style="fill:rgb(191, 49, 35); fill-opacity:1.000; stroke:none;" />
 <path d="  M 49,20  L 49,18  L 48,18  L 48,20  Z  " style="fill:rgb(191, 49, 35); fill-opacity:1.000; stroke:none;" />
 <path d="  M 49,21  L 48,21  L 48,22  L 49,22  Z  " style="fill:rgb(191, 49, 35); fill-opacity:1.000; stroke:none;" />
 <path d="  M 48,26  L 48,27  L 50,27  L 50,26  Z  " style="fill:rgb(191, 49, 35); fill-opacity:1.000; stroke:none;" />
 <path d="  M 48,31  L 49,31  L 49,32  L 50,32  L 50,30  L 49,30  L 49,29  L 48,29  Z  " style="fill:rgb(191, 49, 35); fill-opacity:1.000; stroke:none;" />
 <path d="  M 48,35  L 48,36  L 49,36  L 49,35  Z  " style="fill:rgb(191, 49, 35); fill-opacity:1.000; stroke:none;" />
 <path d="  M 49,22  L 49,23  L 50,23  L 50,22  Z  " style="fill:rgb(191, 49, 35); fill-opacity:1.000; stroke:none;" />
 <path d="  M 15,42  L 15,40  L 14,40  L 14,41  L 13,41  L 13,42  Z  " style="fill:rgb(201, 30, 18); fill-opacity:1.000; stroke:none;" />
 <path d="  M 16,44  L 15,44  L 15,43  L 14,43  L 14,45  L 15,45  L 15,46  L 16,46  Z  " style="fill:rgb(201, 30, 18); fill-opacity:1.000; stroke:none;" />
 <path d="  M 16,39  L 15,39  L 15,40  L 17,40  L 17,39  L 18,39  L 18,38  L 16,38  Z  " style="fill:rgb(201, 30, 18); fill-opacity:1.000; stroke:none;" />
 <path d="  M 15,43  L 16,43  L 16,44  L 17,44  L 17,46  L 16,46  L 16,47  L 17,47  L 17,48  L 19,48  L 19,47  L 18,47  L 18,45  L 20,45  L 20,44  L 18,44  L 18,43  L 17,43  L 17,41  L 16,41  L 16,42  L 15,42  Z  " style="fill:rgb(201, 30, 18); fill-opacity:1.000; stroke:none;" />
 <path d="  M 17,40  L 17,41  L 18,41  L 18,40  Z  " style="fill:rgb(201, 30, 18); fill-opacity:1.000; stroke:none;" />
 <path d="  M 18,38  L 19,38  L 19,37  L 18,37  Z  " style="fill:rgb(201, 30, 18); fill-opacity:1.000; stroke:none;" />
 <path d="  M 19,42  L 18,42  L 18,43  L 19,43  Z  " style="fill:rgb(201, 30, 18); fill-opacity:1.000; stroke:none;" />
 <path d="  M 19,49  L 20,49  L 20,48  L 19,48  Z  " style="fill:rgb(201, 30, 18); fill-opacity:1.000; stroke:none;" />
 <path d="  M 21,48  L 21,49  L 22,49  L 22,48  Z  " style="fill:rgb(201, 30, 18); fill-opacity:1.000; stroke:none;" />
 <path d="  M 24,48  L 23,48  L 23,49  L 22,49  L 22,50  L 23,50  L 23,51  L 25,51  L 25,50  L 24,50  Z  " style="fill:rgb(201, 30, 18); fill-opacity:1.000; stroke:none;" />
 <path d="  M 26,49  L 27,49  L 27,48  L 25,48  L 25,50  L 26,50  Z  " style="fill:rgb(201, 30, 18); fill-opacity:1.000; stroke:none;" />
 <path d="  M 28,52  L 30,52  L 30,51  L 29,51  L 29,49  L 27,49  L 27,50  L 26,50  L 26,52  L 27,52  L 27,51  L 28,51  Z  " style="fill:rgb(201, 30, 18); fill-opacity:1.000; stroke:none;" />
 <path d="  M 31,49  L 31,48  L 29,48  L 29,49  Z  " style="fill:rgb(201, 30, 18); fill-opacity:1.000; stroke:none;" />
 <path d="  M 30,51  L 31,51  L 31,50  L 30,50  Z  " style="fill:rgb(201, 30, 18); fill-opacity:1.000; stroke:none;" />
 <path d="  M 32,50  L 32,49  L 31,49  L 31,50  Z  " style="fill:rgb(201, 30, 18); fill-opacity:1.000; stroke:none;" />
 <path d="  M 35,49  L 33,49  L 33,50  L 32,50  L 32,51  L 31,51  L 31,52  L 33,52  L 33,51  L 34,51  L 34,50  L 35,50  Z  " style="fill:rgb(201, 30, 18); fill-opacity:1.000; stroke:none;" />
 <path d="  M 35,51  L 36,51  L 36,50  L 35,50  Z  " style="fill:rgb(201, 30, 18); fill-opacity:1.000; stroke:none;" />
 <path d="  M 38,50  L 38,49  L 39,49  L 39,48  L 37,48  L 37,49  L 36,49  L 36,50  Z  " style="fill:rgb(201, 30, 18); fill-opacity:1.000; stroke:none;" />
 <path d="  M 40,49  L 39,49  L 39,50  L 40,50  Z  " style="fill:rgb(201, 30, 18); fill-opacity:1.000; stroke:none;" />
 <path d="  M 40,46  L 40,47  L 41,47  L 41,46  Z  " style="fill:rgb(201, 30, 18); fill-opacity:1.000; stroke:none;" />
 <path d="  M 43,48  L 43,47  L 41,47  L 41,48  L 40,48  L 40,49  L 42,49  L 42,48  Z  " style="fill:rgb(201, 30, 18); fill-opacity:1.000; stroke:none;" />
 <path d="  M 43,12  L 42,12  L 42,13  L 43,13  Z  " style="fill:rgb(201, 30, 18); fill-opacity:1.000; stroke:none;" />
 <path d="  M 45,43  L 45,44  L 44,44  L 44,45  L 42,45  L 42,46  L 43,46  L 43,47  L 44,47  L 44,46  L 45,46  L 45,45  L 46,45  L 46,43  Z  " style="fill:rgb(201, 30, 18); fill-opacity:1.000; stroke:none;" />
 <path d="  M 44,43  L 43,43  L 43,44  L 44,44  Z  " style="fill:rgb(201, 30, 18); fill-opacity:1.000; stroke:none;" />
 <path d="  M 46,13  L 44,13  L 44,14  L 45,14  L 45,15  L 46,15  Z  " style="fill:rgb(201, 30, 18); fill-opacity:1.000; stroke:none;" />
 <path d="  M 44,15  L 44,16  L 45,16  L 45,15  Z  " style="fill:rgb(201, 30, 18); fill-opacity:1.000; stroke:none;" />
 <path d="  M 45,16  L 45,17  L 46,17  L 46,16  Z  " style="fill:rgb(201, 30, 18); fill-opacity:1.000; stroke:none;" />
 <path d="  M 46,40  L 46,41  L 47,41  L 47,42  L 48,42  L 48,40  L 47,40  L 47,39  L 45,39  L 45,40  Z  " style="fill:rgb(201, 30, 18); fill-opacity:1.000; stroke:none;" />
 <path d="  M 45,41  L 45,42  L 46,42  L 46,41  Z  " style="fill:rgb(201, 30, 18); fill-opacity:1.000; stroke:none;" />
 <path d="  M 46,15  L 46,16  L 47,16  L 47,15  Z  " style="fill:rgb(201, 30, 18); fill-opacity:1.000; stroke:none;" />
 <path d="  M 46,18  L 47,18  L 47,19  L 48,19  L 48,17  L 46,17  Z  " style="fill:rgb(201, 30, 18); fill-opacity:1.000; stroke:none;" />
 <path d="  M 50,23  L 49,23  L 49,22  L 48,22  L 48,21  L 46,21  L 46,22  L 47,22  L 47,23  L 48,23  L 48,24  L 49,24  L 49,25  L 48,25  L 48,26  L 50,26  Z  " style="fill:rgb(201, 30, 18); fill-opacity:1.000; stroke:none;" />
 <path d="  M 46,42  L 46,43  L 47,43  L 47,42  Z  " style="fill:rgb(201, 30, 18); fill-opacity:1.000; stroke:none;" />
 <path d="  M 47,26  L 47,27  L 48,27  L 48,26  Z  " style="fill:rgb(201, 30, 18); fill-opacity:1.000; stroke:none;" />
 <path d="  M 48,33  L 48,32  L 49,32  L 49,31  L 48,31  L 48,30  L 47,30  L 47,33  Z  " style="fill:rgb(201, 30, 18); fill-opacity:1.000; stroke:none;" />
 <path d="  M 48,38  L 48,37  L 47,37  L 47,38  Z  " style="fill:rgb(201, 30, 18); fill-opacity:1.000; stroke:none;" />
 <path d="  M 48,20  L 48,21  L 49,21  L 49,20  Z  " style="fill:rgb(201, 30, 18); fill-opacity:1.000; stroke:none;" />
 <path d="  M 50,27  L 48,27  L 48,28  L 49,28  L 49,30  L 50,30  Z  " style="fill:rgb(201, 30, 18); fill-opacity:1.000; stroke:none;" />
 <path d="  M 49,34  L 48,34  L 48,35  L 50,35  L 50,32  L 49,32  Z  " style="fill:rgb(201, 30, 18); fill-opacity:1.000; stroke:none;" />
 <path d="  M 48,37  L 49,37  L 49,36  L 48,36  Z  " style="fill:rgb(201, 30, 18); fill-opacity:1.000; stroke:none;" />
 <path d="  M 14,43  L 13,43  L 13,44  L 14,44  Z  " style="fill:rgb(188, 28, 16); fill-opacity:1.000; stroke:none;" />
 <path d="  M 15,45  L 14,45  L 14,46  L 15,46  Z  " style="fill:rgb(188, 28, 16); fill-opacity:1.000; stroke:none;" />
 <path d="  M 16,48  L 17,48  L 17,47  L 16,47  Z  " style="fill:rgb(188, 28, 16); fill-opacity:1.000; stroke:none;" />
 <path d="  M 21,49  L 20,49  L 20,50  L 21,50  Z  " style="fill:rgb(188, 28, 16); fill-opacity:1.000; stroke:none;" />
 <path d="  M 23,50  L 22,50  L 22,51  L 23,51  Z  " style="fill:rgb(188, 28, 16); fill-opacity:1.000; stroke:none;" />
 <path d="  M 25,51  L 25,52  L 26,52  L 26,51  Z  " style="fill:rgb(188, 28, 16); fill-opacity:1.000; stroke:none;" />
 <path d="  M 33,51  L 33,52  L 34,52  L 34,51  Z  " style="fill:rgb(188, 28, 16); fill-opacity:1.000; stroke:none;" />
 <path d="  M 44,11  L 43,11  L 43,12  L 44,12  Z  " style="fill:rgb(188, 28, 16); fill-opacity:1.000; stroke:none;" />
 <path d="  M 44,13  L 45,13  L 45,12  L 44,12  Z  " style="fill:rgb(188, 28, 16); fill-opacity:1.000; stroke:none;" />
 <path d="  M 47,14  L 46,14  L 46,15  L 47,15  Z  " style="fill:rgb(188, 28, 16); fill-opacity:1.000; stroke:none;" />
 <path d="  M 47,44  L 47,43  L 46,43  L 46,44  Z  " style="fill:rgb(188, 28, 16); fill-opacity:1.000; stroke:none;" />
 <path d="  M 47,17  L 48,17  L 48,16  L 47,16  Z  " style="fill:rgb(188, 28, 16); fill-opacity:1.000; stroke:none;" />
 <path d="  M 50,21  L 49,21  L 49,22  L 50,22  Z  " style="fill:rgb(188, 28, 16); fill-opacity:1.000; stroke:none;" />
 <path d="  M 50,35  L 49,35  L 49,36  L 50,36  Z  " style="fill:rgb(188, 28, 16); fill-opacity:1.000; stroke:none;" />
 <path d="  M 18,37  L 18,36  L 17,36  L 17,37  Z  " style="fill:rgb(181, 46, 34); fill-opacity:1.000; stroke:none;" />
 <path d="  M 19,35  L 18,35  L 18,36  L 19,36  Z  " style="fill:rgb(181, 46, 34); fill-opacity:1.000; stroke:none;" />
 <path d="  M 19,37  L 19,38  L 20,38  L 20,37  Z  " style="fill:rgb(181, 46, 34); fill-opacity:1.000; stroke:none;" />
 <path d="  M 19,41  L 20,41  L 20,40  L 19,40  Z  " style="fill:rgb(181, 46, 34); fill-opacity:1.000; stroke:none;" />
 <path d="  M 20,43  L 19,43  L 19,44  L 20,44  Z  " style="fill:rgb(181, 46, 34); fill-opacity:1.000; stroke:none;" />
 <path d="  M 22,35  L 22,34  L 20,34  L 20,36  L 21,36  L 21,35  Z  " style="fill:rgb(181, 46, 34); fill-opacity:1.000; stroke:none;" />
 <path d="  M 21,38  L 20,38  L 20,39  L 21,39  Z  " style="fill:rgb(181, 46, 34); fill-opacity:1.000; stroke:none;" />
 <path d="  M 20,42  L 20,43  L 21,43  L 21,42  Z  " style="fill:rgb(181, 46, 34); fill-opacity:1.000; stroke:none;" />
 <path d="  M 20,46  L 21,46  L 21,47  L 22,47  L 22,45  L 20,45  Z  " style="fill:rgb(181, 46, 34); fill-opacity:1.000; stroke:none;" />
 <path d="  M 21,48  L 21,47  L 20,47  L 20,48  Z  " style="fill:rgb(181, 46, 34); fill-opacity:1.000; stroke:none;" />
 <path d="  M 21,41  L 21,42  L 22,42  L 22,43  L 21,43  L 21,44  L 23,44  L 23,43  L 24,43  L 24,42  L 23,42  L 23,41  Z  " style="fill:rgb(181, 46, 34); fill-opacity:1.000; stroke:none;" />
 <path d="  M 22,33  L 22,34  L 23,34  L 23,33  Z  " style="fill:rgb(181, 46, 34); fill-opacity:1.000; stroke:none;" />
 <path d="  M 24,37  L 24,36  L 25,36  L 25,35  L 23,35  L 23,36  L 22,36  L 22,37  Z  " style="fill:rgb(181, 46, 34); fill-opacity:1.000; stroke:none;" />
 <path d="  M 22,39  L 23,39  L 23,38  L 22,38  Z  " style="fill:rgb(181, 46, 34); fill-opacity:1.000; stroke:none;" />
 <path d="  M 23,47  L 22,47  L 22,48  L 23,48  Z  " style="fill:rgb(181, 46, 34); fill-opacity:1.000; stroke:none;" />
 <path d="  M 23,33  L 24,33  L 24,34  L 25,34  L 25,35  L 26,35  L 26,33  L 25,33  L 25,32  L 23,32  Z  " style="fill:rgb(181, 46, 34); fill-opacity:1.000; stroke:none;" />
 <path d="  M 23,39  L 23,40  L 24,40  L 24,39  Z  " style="fill:rgb(181, 46, 34); fill-opacity:1.000; stroke:none;" />
 <path d="  M 24,44  L 23,44  L 23,45  L 24,45  Z  " style="fill:rgb(181, 46, 34); fill-opacity:1.000; stroke:none;" />
 <path d="  M 25,31  L 25,30  L 24,30  L 24,31  Z  " style="fill:rgb(181, 46, 34); fill-opacity:1.000; stroke:none;" />
 <path d="  M 24,42  L 25,42  L 25,41  L 26,41  L 26,40  L 27,40  L 27,39  L 25,39  L 25,40  L 24,40  Z  " style="fill:rgb(181, 46, 34); fill-opacity:1.000; stroke:none;" />
 <path d="  M 25,43  L 24,43  L 24,44  L 25,44  Z  " style="fill:rgb(181, 46, 34); fill-opacity:1.000; stroke:none;" />
 <path d="  M 24,45  L 24,46  L 25,46  L 25,45  Z  " style="fill:rgb(181, 46, 34); fill-opacity:1.000; stroke:none;" />
 <path d="  M 24,48  L 25,48  L 25,47  L 24,47  Z  " style="fill:rgb(181, 46, 34); fill-opacity:1.000; stroke:none;" />
 <path d="  M 27,29  L 27,28  L 25,28  L 25,29  Z  " style="fill:rgb(181, 46, 34); fill-opacity:1.000; stroke:none;" />
 <path d="  M 25,32  L 26,32  L 26,31  L 25,31  Z  " style="fill:rgb(181, 46, 34); fill-opacity:1.000; stroke:none;" />
 <path d="  M 25,37  L 25,38  L 27,38  L 27,37  Z  " style="fill:rgb(181, 46, 34); fill-opacity:1.000; stroke:none;" />
 <path d="  M 25,45  L 26,45  L 26,44  L 25,44  Z  " style="fill:rgb(181, 46, 34); fill-opacity:1.000; stroke:none;" />
 <path d="  M 27,29  L 27,30  L 26,30  L 26,31  L 27,31  L 27,32  L 28,32  L 28,30  L 29,30  L 29,29  Z  " style="fill:rgb(181, 46, 34); fill-opacity:1.000; stroke:none;" />
 <path d="  M 26,32  L 26,33  L 27,33  L 27,32  Z  " style="fill:rgb(181, 46, 34); fill-opacity:1.000; stroke:none;" />
 <path d="  M 28,43  L 28,42  L 26,42  L 26,43  Z  " style="fill:rgb(181, 46, 34); fill-opacity:1.000; stroke:none;" />
 <path d="  M 26,45  L 26,46  L 27,46  L 27,45  Z  " style="fill:rgb(181, 46, 34); fill-opacity:1.000; stroke:none;" />
 <path d="  M 27,48  L 27,47  L 26,47  L 26,48  Z  " style="fill:rgb(181, 46, 34); fill-opacity:1.000; stroke:none;" />
 <path d="  M 28,34  L 28,33  L 27,33  L 27,34  Z  " style="fill:rgb(181, 46, 34); fill-opacity:1.000; stroke:none;" />
 <path d="  M 28,39  L 28,38  L 27,38  L 27,39  Z  " style="fill:rgb(181, 46, 34); fill-opacity:1.000; stroke:none;" />
 <path d="  M 29,41  L 29,40  L 27,40  L 27,41  L 28,41  L 28,42  L 30,42  L 30,41  Z  " style="fill:rgb(181, 46, 34); fill-opacity:1.000; stroke:none;" />
 <path d="  M 28,46  L 27,46  L 27,47  L 28,47  Z  " style="fill:rgb(181, 46, 34); fill-opacity:1.000; stroke:none;" />
 <path d="  M 29,26  L 29,27  L 28,27  L 28,28  L 29,28  L 29,29  L 30,29  L 30,28  L 31,28  L 31,27  L 30,27  L 30,26  Z  " style="fill:rgb(181, 46, 34); fill-opacity:1.000; stroke:none;" />
 <path d="  M 29,32  L 28,32  L 28,33  L 29,33  Z  " style="fill:rgb(181, 46, 34); fill-opacity:1.000; stroke:none;" />
 <path d="  M 29,38  L 29,37  L 28,37  L 28,38  Z  " style="fill:rgb(181, 46, 34); fill-opacity:1.000; stroke:none;" />
 <path d="  M 29,45  L 30,45  L 30,44  L 28,44  L 28,46  L 29,46  Z  " style="fill:rgb(181, 46, 34); fill-opacity:1.000; stroke:none;" />
 <path d="  M 29,31  L 30,31  L 30,30  L 29,30  Z  " style="fill:rgb(181, 46, 34); fill-opacity:1.000; stroke:none;" />
 <path d="  M 32,34  L 31,34  L 31,33  L 30,33  L 30,35  L 29,35  L 29,36  L 31,36  L 31,35  L 32,35  Z  " style="fill:rgb(181, 46, 34); fill-opacity:1.000; stroke:none;" />
 <path d="  M 29,38  L 29,39  L 30,39  L 30,38  Z  " style="fill:rgb(181, 46, 34); fill-opacity:1.000; stroke:none;" />
 <path d="  M 29,47  L 30,47  L 30,46  L 29,46  Z  " style="fill:rgb(181, 46, 34); fill-opacity:1.000; stroke:none;" />
 <path d="  M 31,26  L 31,25  L 30,25  L 30,26  Z  " style="fill:rgb(181, 46, 34); fill-opacity:1.000; stroke:none;" />
 <path d="  M 30,31  L 30,32  L 32,32  L 32,31  L 33,31  L 33,30  L 31,30  L 31,31  Z  " style="fill:rgb(181, 46, 34); fill-opacity:1.000; stroke:none;" />
 <path d="  M 31,40  L 31,41  L 32,41  L 32,40  L 33,40  L 33,39  L 32,39  L 32,38  L 31,38  L 31,39  L 30,39  L 30,40  Z  " style="fill:rgb(181, 46, 34); fill-opacity:1.000; stroke:none;" />
 <path d="  M 30,44  L 31,44  L 31,43  L 30,43  Z  " style="fill:rgb(181, 46, 34); fill-opacity:1.000; stroke:none;" />
 <path d="  M 31,46  L 31,45  L 30,45  L 30,46  Z  " style="fill:rgb(181, 46, 34); fill-opacity:1.000; stroke:none;" />
 <path d="  M 30,50  L 31,50  L 31,49  L 30,49  Z  " style="fill:rgb(181, 46, 34); fill-opacity:1.000; stroke:none;" />
 <path d="  M 32,24  L 31,24  L 31,25  L 32,25  Z  " style="fill:rgb(181, 46, 34); fill-opacity:1.000; stroke:none;" />
 <path d="  M 31,29  L 32,29  L 32,28  L 31,28  Z  " style="fill:rgb(181, 46, 34); fill-opacity:1.000; stroke:none;" />
 <path d="  M 31,42  L 31,43  L 32,43  L 32,42  Z  " style="fill:rgb(181, 46, 34); fill-opacity:1.000; stroke:none;" />
 <path d="  M 34,43  L 32,43  L 32,44  L 31,44  L 31,45  L 33,45  L 33,46  L 34,46  Z  " style="fill:rgb(181, 46, 34); fill-opacity:1.000; stroke:none;" />
 <path d="  M 31,48  L 32,48  L 32,47  L 31,47  Z  " style="fill:rgb(181, 46, 34); fill-opacity:1.000; stroke:none;" />
 <path d="  M 34,23  L 34,22  L 32,22  L 32,23  Z  " style="fill:rgb(181, 46, 34); fill-opacity:1.000; stroke:none;" />
 <path d="  M 33,26  L 33,25  L 32,25  L 32,26  Z  " style="fill:rgb(181, 46, 34); fill-opacity:1.000; stroke:none;" />
 <path d="  M 33,27  L 32,27  L 32,28  L 33,28  Z  " style="fill:rgb(181, 46, 34); fill-opacity:1.000; stroke:none;" />
 <path d="  M 33,32  L 32,32  L 32,33  L 33,33  Z  " style="fill:rgb(181, 46, 34); fill-opacity:1.000; stroke:none;" />
 <path d="  M 32,36  L 33,36  L 33,35  L 32,35  Z  " style="fill:rgb(181, 46, 34); fill-opacity:1.000; stroke:none;" />
 <path d="  M 33,37  L 32,37  L 32,38  L 33,38  Z  " style="fill:rgb(181, 46, 34); fill-opacity:1.000; stroke:none;" />
 <path d="  M 33,49  L 33,48  L 32,48  L 32,49  Z  " style="fill:rgb(181, 46, 34); fill-opacity:1.000; stroke:none;" />
 <path d="  M 34,35  L 34,34  L 33,34  L 33,35  Z  " style="fill:rgb(181, 46, 34); fill-opacity:1.000; stroke:none;" />
 <path d="  M 33,37  L 34,37  L 34,36  L 33,36  Z  " style="fill:rgb(181, 46, 34); fill-opacity:1.000; stroke:none;" />
 <path d="  M 33,41  L 33,42  L 34,42  L 34,41  Z  " style="fill:rgb(181, 46, 34); fill-opacity:1.000; stroke:none;" />
 <path d="  M 35,46  L 34,46  L 34,47  L 33,47  L 33,48  L 35,48  Z  " style="fill:rgb(181, 46, 34); fill-opacity:1.000; stroke:none;" />
 <path d="  M 34,19  L 34,20  L 35,20  L 35,21  L 36,21  L 36,20  L 37,20  L 37,19  L 38,19  L 38,18  L 36,18  L 36,19  Z  " style="fill:rgb(181, 46, 34); fill-opacity:1.000; stroke:none;" />
 <path d="  M 35,22  L 35,21  L 34,21  L 34,22  Z  " style="fill:rgb(181, 46, 34); fill-opacity:1.000; stroke:none;" />
 <path d="  M 34,25  L 35,25  L 35,24  L 34,24  Z  " style="fill:rgb(181, 46, 34); fill-opacity:1.000; stroke:none;" />
 <path d="  M 37,27  L 34,27  L 34,28  L 35,28  L 35,29  L 36,29  L 36,28  L 37,28  Z  " style="fill:rgb(181, 46, 34); fill-opacity:1.000; stroke:none;" />
 <path d="  M 34,30  L 35,30  L 35,29  L 34,29  Z  " style="fill:rgb(181, 46, 34); fill-opacity:1.000; stroke:none;" />
 <path d="  M 34,34  L 35,34  L 35,32  L 34,32  Z  " style="fill:rgb(181, 46, 34); fill-opacity:1.000; stroke:none;" />
 <path d="  M 35,35  L 34,35  L 34,36  L 35,36  Z  " style="fill:rgb(181, 46, 34); fill-opacity:1.000; stroke:none;" />
 <path d="  M 34,38  L 34,39  L 35,39  L 35,38  Z  " style="fill:rgb(181, 46, 34); fill-opacity:1.000; stroke:none;" />
 <path d="  M 34,42  L 34,43  L 35,43  L 35,42  Z  " style="fill:rgb(181, 46, 34); fill-opacity:1.000; stroke:none;" />
 <path d="  M 36,24  L 36,23  L 35,23  L 35,24  Z  " style="fill:rgb(181, 46, 34); fill-opacity:1.000; stroke:none;" />
 <path d="  M 35,25  L 35,26  L 36,26  L 36,25  Z  " style="fill:rgb(181, 46, 34); fill-opacity:1.000; stroke:none;" />
 <path d="  M 35,32  L 37,32  L 37,31  L 38,31  L 38,30  L 36,30  L 36,31  L 35,31  Z  " style="fill:rgb(181, 46, 34); fill-opacity:1.000; stroke:none;" />
 <path d="  M 35,34  L 35,35  L 36,35  L 36,34  Z  " style="fill:rgb(181, 46, 34); fill-opacity:1.000; stroke:none;" />
 <path d="  M 36,37  L 35,37  L 35,38  L 36,38  Z  " style="fill:rgb(181, 46, 34); fill-opacity:1.000; stroke:none;" />
 <path d="  M 35,39  L 35,40  L 36,40  L 36,39  Z  " style="fill:rgb(181, 46, 34); fill-opacity:1.000; stroke:none;" />
 <path d="  M 35,41  L 35,42  L 36,42  L 36,41  Z  " style="fill:rgb(181, 46, 34); fill-opacity:1.000; stroke:none;" />
 <path d="  M 37,45  L 37,44  L 35,44  L 35,45  L 36,45  L 36,46  L 38,46  L 38,45  Z  " style="fill:rgb(181, 46, 34); fill-opacity:1.000; stroke:none;" />
 <path d="  M 37,47  L 36,47  L 36,48  L 35,48  L 35,49  L 37,49  Z  " style="fill:rgb(181, 46, 34); fill-opacity:1.000; stroke:none;" />
 <path d="  M 36,21  L 36,22  L 37,22  L 37,21  Z  " style="fill:rgb(181, 46, 34); fill-opacity:1.000; stroke:none;" />
 <path d="  M 39,41  L 38,41  L 38,40  L 39,40  L 39,39  L 38,39  L 38,38  L 37,38  L 37,40  L 36,40  L 36,41  L 37,41  L 37,42  L 39,42  Z  " style="fill:rgb(181, 46, 34); fill-opacity:1.000; stroke:none;" />
 <path d="  M 36,42  L 36,43  L 37,43  L 37,42  Z  " style="fill:rgb(181, 46, 34); fill-opacity:1.000; stroke:none;" />
 <path d="  M 38,27  L 38,26  L 37,26  L 37,27  Z  " style="fill:rgb(181, 46, 34); fill-opacity:1.000; stroke:none;" />
 <path d="  M 38,29  L 38,28  L 37,28  L 37,29  Z  " style="fill:rgb(181, 46, 34); fill-opacity:1.000; stroke:none;" />
 <path d="  M 38,33  L 37,33  L 37,34  L 38,34  Z  " style="fill:rgb(181, 46, 34); fill-opacity:1.000; stroke:none;" />
 <path d="  M 38,16  L 38,17  L 40,17  L 40,16  L 41,16  L 41,15  L 39,15  L 39,16  Z  " style="fill:rgb(181, 46, 34); fill-opacity:1.000; stroke:none;" />
 <path d="  M 40,20  L 38,20  L 38,21  L 39,21  L 39,22  L 41,22  L 41,21  L 40,21  Z  " style="fill:rgb(181, 46, 34); fill-opacity:1.000; stroke:none;" />
 <path d="  M 38,24  L 38,25  L 39,25  L 39,24  Z  " style="fill:rgb(181, 46, 34); fill-opacity:1.000; stroke:none;" />
 <path d="  M 39,31  L 40,31  L 40,30  L 41,30  L 41,28  L 39,28  L 39,29  L 38,29  L 38,30  L 39,30  Z  " style="fill:rgb(181, 46, 34); fill-opacity:1.000; stroke:none;" />
 <path d="  M 38,33  L 39,33  L 39,32  L 38,32  Z  " style="fill:rgb(181, 46, 34); fill-opacity:1.000; stroke:none;" />
 <path d="  M 39,38  L 39,37  L 38,37  L 38,38  Z  " style="fill:rgb(181, 46, 34); fill-opacity:1.000; stroke:none;" />
 <path d="  M 39,47  L 39,46  L 38,46  L 38,47  Z  " style="fill:rgb(181, 46, 34); fill-opacity:1.000; stroke:none;" />
 <path d="  M 39,19  L 40,19  L 40,18  L 39,18  Z  " style="fill:rgb(181, 46, 34); fill-opacity:1.000; stroke:none;" />
 <path d="  M 39,24  L 40,24  L 40,23  L 39,23  Z  " style="fill:rgb(181, 46, 34); fill-opacity:1.000; stroke:none;" />
 <path d="  M 39,26  L 40,26  L 40,25  L 39,25  Z  " style="fill:rgb(181, 46, 34); fill-opacity:1.000; stroke:none;" />
 <path d="  M 39,41  L 40,41  L 40,40  L 39,40  Z  " style="fill:rgb(181, 46, 34); fill-opacity:1.000; stroke:none;" />
 <path d="  M 40,46  L 40,45  L 39,45  L 39,46  Z  " style="fill:rgb(181, 46, 34); fill-opacity:1.000; stroke:none;" />
 <path d="  M 40,17  L 40,18  L 42,18  L 42,17  Z  " style="fill:rgb(181, 46, 34); fill-opacity:1.000; stroke:none;" />
 <path d="  M 41,20  L 41,19  L 40,19  L 40,20  Z  " style="fill:rgb(181, 46, 34); fill-opacity:1.000; stroke:none;" />
 <path d="  M 40,24  L 40,25  L 41,25  L 41,24  Z  " style="fill:rgb(181, 46, 34); fill-opacity:1.000; stroke:none;" />
 <path d="  M 42,30  L 41,30  L 41,31  L 40,31  L 40,32  L 41,32  L 41,33  L 42,33  Z  " style="fill:rgb(181, 46, 34); fill-opacity:1.000; stroke:none;" />
 <path d="  M 42,35  L 42,34  L 40,34  L 40,35  L 41,35  L 41,36  L 43,36  L 43,35  Z  " style="fill:rgb(181, 46, 34); fill-opacity:1.000; stroke:none;" />
 <path d="  M 41,37  L 40,37  L 40,38  L 41,38  Z  " style="fill:rgb(181, 46, 34); fill-opacity:1.000; stroke:none;" />
 <path d="  M 40,42  L 41,42  L 41,41  L 40,41  Z  " style="fill:rgb(181, 46, 34); fill-opacity:1.000; stroke:none;" />
 <path d="  M 40,43  L 40,44  L 41,44  L 41,43  Z  " style="fill:rgb(181, 46, 34); fill-opacity:1.000; stroke:none;" />
 <path d="  M 41,15  L 42,15  L 42,14  L 41,14  Z  " style="fill:rgb(181, 46, 34); fill-opacity:1.000; stroke:none;" />
 <path d="  M 43,23  L 42,23  L 42,22  L 41,22  L 41,24  L 42,24  L 42,26  L 41,26  L 41,27  L 42,27  L 42,28  L 43,28  L 43,25  L 44,25  L 44,24  L 43,24  Z  " style="fill:rgb(181, 46, 34); fill-opacity:1.000; stroke:none;" />
 <path d="  M 41,40  L 41,41  L 42,41  L 42,40  Z  " style="fill:rgb(181, 46, 34); fill-opacity:1.000; stroke:none;" />
 <path d="  M 42,43  L 42,42  L 41,42  L 41,43  Z  " style="fill:rgb(181, 46, 34); fill-opacity:1.000; stroke:none;" />
 <path d="  M 42,45  L 42,44  L 41,44  L 41,45  Z  " style="fill:rgb(181, 46, 34); fill-opacity:1.000; stroke:none;" />
 <path d="  M 43,14  L 43,13  L 42,13  L 42,14  Z  " style="fill:rgb(181, 46, 34); fill-opacity:1.000; stroke:none;" />
 <path d="  M 43,17  L 43,16  L 42,16  L 42,17  Z  " style="fill:rgb(181, 46, 34); fill-opacity:1.000; stroke:none;" />
 <path d="  M 43,18  L 42,18  L 42,19  L 43,19  Z  " style="fill:rgb(181, 46, 34); fill-opacity:1.000; stroke:none;" />
 <path d="  M 43,22  L 43,21  L 42,21  L 42,22  Z  " style="fill:rgb(181, 46, 34); fill-opacity:1.000; stroke:none;" />
 <path d="  M 44,33  L 42,33  L 42,34  L 44,34  Z  " style="fill:rgb(181, 46, 34); fill-opacity:1.000; stroke:none;" />
 <path d="  M 44,38  L 42,38  L 42,40  L 43,40  L 43,39  L 44,39  L 44,40  L 45,40  L 45,38  L 46,38  L 46,37  L 44,37  Z  " style="fill:rgb(181, 46, 34); fill-opacity:1.000; stroke:none;" />
 <path d="  M 43,41  L 42,41  L 42,42  L 43,42  Z  " style="fill:rgb(181, 46, 34); fill-opacity:1.000; stroke:none;" />
 <path d="  M 43,16  L 44,16  L 44,15  L 43,15  Z  " style="fill:rgb(181, 46, 34); fill-opacity:1.000; stroke:none;" />
 <path d="  M 44,18  L 44,17  L 43,17  L 43,18  Z  " style="fill:rgb(181, 46, 34); fill-opacity:1.000; stroke:none;" />
 <path d="  M 45,19  L 43,19  L 43,21  L 44,21  L 44,20  L 45,20  Z  " style="fill:rgb(181, 46, 34); fill-opacity:1.000; stroke:none;" />
 <path d="  M 43,28  L 43,29  L 44,29  L 44,30  L 45,30  L 45,29  L 46,29  L 46,28  L 45,28  L 45,27  L 44,27  L 44,28  Z  " style="fill:rgb(181, 46, 34); fill-opacity:1.000; stroke:none;" />
 <path d="  M 43,30  L 43,31  L 44,31  L 44,30  Z  " style="fill:rgb(181, 46, 34); fill-opacity:1.000; stroke:none;" />
 <path d="  M 44,36  L 43,36  L 43,37  L 44,37  Z  " style="fill:rgb(181, 46, 34); fill-opacity:1.000; stroke:none;" />
 <path d="  M 45,41  L 44,41  L 44,42  L 43,42  L 43,43  L 45,43  Z  " style="fill:rgb(181, 46, 34); fill-opacity:1.000; stroke:none;" />
 <path d="  M 45,16  L 44,16  L 44,17  L 45,17  Z  " style="fill:rgb(181, 46, 34); fill-opacity:1.000; stroke:none;" />
 <path d="  M 45,22  L 44,22  L 44,23  L 45,23  Z  " style="fill:rgb(181, 46, 34); fill-opacity:1.000; stroke:none;" />
 <path d="  M 46,26  L 46,25  L 44,25  L 44,26  Z  " style="fill:rgb(181, 46, 34); fill-opacity:1.000; stroke:none;" />
 <path d="  M 45,31  L 44,31  L 44,32  L 45,32  Z  " style="fill:rgb(181, 46, 34); fill-opacity:1.000; stroke:none;" />
 <path d="  M 45,18  L 45,19  L 46,19  L 46,20  L 48,20  L 48,19  L 47,19  L 47,18  Z  " style="fill:rgb(181, 46, 34); fill-opacity:1.000; stroke:none;" />
 <path d="  M 46,21  L 46,20  L 45,20  L 45,21  Z  " style="fill:rgb(181, 46, 34); fill-opacity:1.000; stroke:none;" />
 <path d="  M 45,23  L 45,24  L 46,24  L 46,23  Z  " style="fill:rgb(181, 46, 34); fill-opacity:1.000; stroke:none;" />
 <path d="  M 46,31  L 46,30  L 45,30  L 45,31  Z  " style="fill:rgb(181, 46, 34); fill-opacity:1.000; stroke:none;" />
 <path d="  M 45,34  L 46,34  L 46,33  L 45,33  Z  " style="fill:rgb(181, 46, 34); fill-opacity:1.000; stroke:none;" />
 <path d="  M 46,36  L 46,35  L 45,35  L 45,36  Z  " style="fill:rgb(181, 46, 34); fill-opacity:1.000; stroke:none;" />
 <path d="  M 46,25  L 47,25  L 47,24  L 46,24  Z  " style="fill:rgb(181, 46, 34); fill-opacity:1.000; stroke:none;" />
 <path d="  M 46,28  L 47,28  L 47,27  L 46,27  Z  " style="fill:rgb(181, 46, 34); fill-opacity:1.000; stroke:none;" />
 <path d="  M 47,29  L 46,29  L 46,30  L 47,30  Z  " style="fill:rgb(181, 46, 34); fill-opacity:1.000; stroke:none;" />
 <path d="  M 48,34  L 46,34  L 46,35  L 47,35  L 47,36  L 48,36  Z  " style="fill:rgb(181, 46, 34); fill-opacity:1.000; stroke:none;" />
 <path d="  M 47,36  L 46,36  L 46,37  L 47,37  Z  " style="fill:rgb(181, 46, 34); fill-opacity:1.000; stroke:none;" />
 <path d="  M 48,24  L 48,23  L 47,23  L 47,24  Z  " style="fill:rgb(181, 46, 34); fill-opacity:1.000; stroke:none;" />
 <path d="  M 20,39  L 20,38  L 19,38  L 19,39  L 18,39  L 18,40  L 21,40  L 21,39  Z  " style="fill:rgb(165, 38, 31); fill-opacity:1.000; stroke:none;" />
 <path d="  M 24,45  L 25,45  L 25,44  L 24,44  Z  " style="fill:rgb(165, 38, 31); fill-opacity:1.000; stroke:none;" />
 <path d="  M 26,45  L 25,45  L 25,46  L 26,46  Z  " style="fill:rgb(165, 38, 31); fill-opacity:1.000; stroke:none;" />
 <path d="  M 27,32  L 27,33  L 28,33  L 28,32  Z  " style="fill:rgb(165, 38, 31); fill-opacity:1.000; stroke:none;" />
 <path d="  M 33,27  L 33,26  L 32,26  L 32,25  L 31,25  L 31,26  L 30,26  L 30,27  L 31,27  L 31,28  L 32,28  L 32,27  Z  " style="fill:rgb(165, 38, 31); fill-opacity:1.000; stroke:none;" />
 <path d="  M 31,44  L 30,44  L 30,45  L 31,45  Z  " style="fill:rgb(165, 38, 31); fill-opacity:1.000; stroke:none;" />
 <path d="  M 33,40  L 33,41  L 34,41  L 34,42  L 35,42  L 35,40  Z  " style="fill:rgb(165, 38, 31); fill-opacity:1.000; stroke:none;" />
 <path d="  M 38,31  L 37,31  L 37,32  L 36,32  L 36,33  L 38,33  Z  " style="fill:rgb(165, 38, 31); fill-opacity:1.000; stroke:none;" />
 <path d="  M 39,23  L 38,23  L 38,24  L 39,24  Z  " style="fill:rgb(165, 38, 31); fill-opacity:1.000; stroke:none;" />
 <path d="  M 39,33  L 38,33  L 38,34  L 39,34  Z  " style="fill:rgb(165, 38, 31); fill-opacity:1.000; stroke:none;" />
 <path d="  M 40,25  L 40,24  L 39,24  L 39,25  Z  " style="fill:rgb(165, 38, 31); fill-opacity:1.000; stroke:none;" />
 <path d="  M 42,41  L 41,41  L 41,42  L 42,42  Z  " style="fill:rgb(165, 38, 31); fill-opacity:1.000; stroke:none;" />
 <path d="  M 43,16  L 43,17  L 44,17  L 44,16  Z  " style="fill:rgb(165, 38, 31); fill-opacity:1.000; stroke:none;" />
 <path d="  M 45,30  L 44,30  L 44,31  L 45,31  Z  " style="fill:rgb(165, 38, 31); fill-opacity:1.000; stroke:none;" />
 <path d="  M 45,22  L 45,23  L 46,23  L 46,22  Z  " style="fill:rgb(165, 38, 31); fill-opacity:1.000; stroke:none;" />
 <path d="  M 46,35  L 46,34  L 45,34  L 45,35  Z  " style="fill:rgb(165, 38, 31); fill-opacity:1.000; stroke:none;" />
 <path d="  M 47,36  L 47,35  L 46,35  L 46,36  Z  " style="fill:rgb(165, 38, 31); fill-opacity:1.000; stroke:none;" />
 <path d="  M 20,47  L 21,47  L 21,46  L 20,46  L 20,45  L 19,45  L 19,46  L 18,46  L 18,47  L 19,47  L 19,48  L 20,48  Z  " style="fill:rgb(122, 24, 14); fill-opacity:1.000; stroke:none;" />
 <path d="  M 27,36  L 26,36  L 26,37  L 27,37  Z  " style="fill:rgb(122, 24, 14); fill-opacity:1.000; stroke:none;" />
 <path d="  M 28,35  L 27,35  L 27,36  L 28,36  Z  " style="fill:rgb(122, 24, 14); fill-opacity:1.000; stroke:none;" />
 <path d="  M 27,37  L 27,38  L 28,38  L 28,37  Z  " style="fill:rgb(122, 24, 14); fill-opacity:1.000; stroke:none;" />
 <path d="  M 28,36  L 28,37  L 29,37  L 29,36  Z  " style="fill:rgb(122, 24, 14); fill-opacity:1.000; stroke:none;" />
 <path d="  M 37,36  L 36,36  L 36,37  L 37,37  Z  " style="fill:rgb(122, 24, 14); fill-opacity:1.000; stroke:none;" />
 <path d="  M 38,36  L 38,35  L 37,35  L 37,36  Z  " style="fill:rgb(122, 24, 14); fill-opacity:1.000; stroke:none;" />
 <path d="  M 37,37  L 37,38  L 38,38  L 38,37  Z  " style="fill:rgb(122, 24, 14); fill-opacity:1.000; stroke:none;" />
 <path d="  M 38,36  L 38,37  L 39,37  L 39,36  Z  " style="fill:rgb(122, 24, 14); fill-opacity:1.000; stroke:none;" />
 <path d="  M 42,21  L 43,21  L 43,20  L 42,20  L 42,19  L 41,19  L 41,20  L 40,20  L 40,21  L 41,21  L 41,22  L 42,22  Z  " style="fill:rgb(122, 24, 14); fill-opacity:1.000; stroke:none;" />
 <path d="  M 48,27  L 47,27  L 47,28  L 46,28  L 46,29  L 47,29  L 47,30  L 48,30  L 48,29  L 49,29  L 49,28  L 48,28  Z  " style="fill:rgb(122, 24, 14); fill-opacity:1.000; stroke:none;" />
 <path d="  M 27,37  L 28,37  L 28,36  L 27,36  Z  " style="fill:rgb(89, 24, 15); fill-opacity:1.000; stroke:none;" />
 <path d="  M 38,37  L 38,36  L 37,36  L 37,37  Z  " style="fill:rgb(89, 24, 15); fill-opacity:1.000; stroke:none;" />
 <path d="  M 34,58  L 34,57  L 33,57  L 33,58  Z  " style="fill:rgb(89, 102, 26); fill-opacity:1.000; stroke:none;" />
 <path d="  M 36,56  L 36,57  L 37,57  L 37,56  Z  " style="fill:rgb(89, 102, 26); fill-opacity:1.000; stroke:none;" />
 <path d="  M 40,56  L 40,55  L 39,55  L 39,56  Z  " style="fill:rgb(89, 102, 26); fill-opacity:1.000; stroke:none;" />
 <path d="  M 42,55  L 42,54  L 41,54  L 41,55  Z  " style="fill:rgb(89, 102, 26); fill-opacity:1.000; stroke:none;" />
 <path d="  M 44,53  L 43,53  L 43,54  L 44,54  Z  " style="fill:rgb(89, 102, 26); fill-opacity:1.000; stroke:none;" />
 <path d="  M 46,53  L 46,52  L 45,52  L 45,53  Z  " style="fill:rgb(89, 102, 26); fill-opacity:1.000; stroke:none;" />
 <path d="  M 48,9  L 48,8  L 46,8  L 46,9  Z  " style="fill:rgb(89, 102, 26); fill-opacity:1.000; stroke:none;" />
 <path d="  M 47,51  L 46,51  L 46,52  L 47,52  Z  " style="fill:rgb(89, 102, 26); fill-opacity:1.000; stroke:none;" />
 <path d="  M 48,50  L 47,50  L 47,51  L 48,51  Z  " style="fill:rgb(89, 102, 26); fill-opacity:1.000; stroke:none;" />
 <path d="  M 48,9  L 48,10  L 50,10  L 50,9  Z  " style="fill:rgb(89, 102, 26); fill-opacity:1.000; stroke:none;" />
 <path d="  M 48,49  L 48,50  L 49,50  L 49,49  Z  " style="fill:rgb(89, 102, 26); fill-opacity:1.000; stroke:none;" />
 <path d="  M 49,49  L 50,49  L 50,48  L 49,48  Z  " style="fill:rgb(89, 102, 26); fill-opacity:1.000; stroke:none;" />
 <path d="  M 51,11  L 51,10  L 50,10  L 50,11  Z  " style="fill:rgb(89, 102, 26); fill-opacity:1.000; stroke:none;" />
 <path d="  M 50,48  L 51,48  L 51,47  L 50,47  Z  " style="fill:rgb(89, 102, 26); fill-opacity:1.000; stroke:none;" />
 <path d="  M 52,12  L 52,11  L 51,11  L 51,12  Z  " style="fill:rgb(89, 102, 26); fill-opacity:1.000; stroke:none;" />
 <path d="  M 52,46  L 52,45  L 51,45  L 51,46  Z  " style="fill:rgb(89, 102, 26); fill-opacity:1.000; stroke:none;" />
 <path d="  M 53,12  L 52,12  L 52,14  L 53,14  Z  " style="fill:rgb(89, 102, 26); fill-opacity:1.000; stroke:none;" />
 <path d="  M 52,43  L 52,44  L 53,44  L 53,43  Z  " style="fill:rgb(89, 102, 26); fill-opacity:1.000; stroke:none;" />
 <path d="  M 54,14  L 53,14  L 53,16  L 54,16  Z  " style="fill:rgb(89, 102, 26); fill-opacity:1.000; stroke:none;" />
 <path d="  M 54,41  L 53,41  L 53,42  L 54,42  Z  " style="fill:rgb(89, 102, 26); fill-opacity:1.000; stroke:none;" />
 <path d="  M 55,16  L 54,16  L 54,18  L 55,18  Z  " style="fill:rgb(89, 102, 26); fill-opacity:1.000; stroke:none;" />
 <path d="  M 54,39  L 55,39  L 55,38  L 54,38  Z  " style="fill:rgb(89, 102, 26); fill-opacity:1.000; stroke:none;" />
 <path d="  M 55,18  L 55,21  L 56,21  L 56,18  Z  " style="fill:rgb(89, 102, 26); fill-opacity:1.000; stroke:none;" />
 <path d="  M 56,35  L 55,35  L 55,36  L 56,36  Z  " style="fill:rgb(89, 102, 26); fill-opacity:1.000; stroke:none;" />
 <path d="  M 56,28  L 57,28  L 57,21  L 56,21  Z  " style="fill:rgb(89, 102, 26); fill-opacity:1.000; stroke:none;" />
</svg>
