<?xml version="1.0" encoding="UTF-8" standalone="no"?>
<!DOCTYPE svg PUBLIC "-//W3C//DTD SVG 1.1//EN" 
  "http://www.w3.org/Graphics/SVG/1.1/DTD/svg11.dtd">
<svg width="64" height="64"
	 xmlns="http://www.w3.org/2000/svg" version="1.1">
 <path d="  M 5,23  L 4,23  L 4,28  L 5,28  Z  " style="fill:rgb(166, 132, 106); fill-opacity:1.000; stroke:none;" />
 <path d="  M 6,23  L 6,20  L 5,20  L 5,23  Z  " style="fill:rgb(166, 132, 106); fill-opacity:1.000; stroke:none;" />
 <path d="  M 7,20  L 7,18  L 6,18  L 6,20  Z  " style="fill:rgb(166, 132, 106); fill-opacity:1.000; stroke:none;" />
 <path d="  M 6,35  L 6,36  L 7,36  L 7,35  Z  " style="fill:rgb(166, 132, 106); fill-opacity:1.000; stroke:none;" />
 <path d="  M 8,16  L 7,16  L 7,18  L 8,18  Z  " style="fill:rgb(166, 132, 106); fill-opacity:1.000; stroke:none;" />
 <path d="  M 8,37  L 8,36  L 7,36  L 7,37  Z  " style="fill:rgb(166, 132, 106); fill-opacity:1.000; stroke:none;" />
 <path d="  M 9,15  L 8,15  L 8,16  L 9,16  Z  " style="fill:rgb(166, 132, 106); fill-opacity:1.000; stroke:none;" />
 <path d="  M 8,39  L 9,39  L 9,38  L 8,38  Z  " style="fill:rgb(166, 132, 106); fill-opacity:1.000; stroke:none;" />
 <path d="  M 10,15  L 10,14  L 9,14  L 9,15  Z  " style="fill:rgb(166, 132, 106); fill-opacity:1.000; stroke:none;" />
 <path d="  M 9,39  L 9,40  L 10,40  L 10,39  Z  " style="fill:rgb(166, 132, 106); fill-opacity:1.000; stroke:none;" />
 <path d="  M 10,14  L 11,14  L 11,13  L 10,13  Z  " style="fill:rgb(166, 132, 106); fill-opacity:1.000; stroke:none;" />
 <path d="  M 11,40  L 10,40  L 10,41  L 11,41  Z  " style="fill:rgb(166, 132, 106); fill-opacity:1.000; stroke:none;" />
 <path d="  M 11,13  L 12,13  L 12,12  L 11,12  Z  " style="fill:rgb(166, 132, 106); fill-opacity:1.000; stroke:none;" />
 <path d="  M 13,11  L 12,11  L 12,12  L 13,12  Z  " style="fill:rgb(166, 132, 106); fill-opacity:1.000; stroke:none;" />
 <path d="  M 12,41  L 12,42  L 13,42  L 13,41  Z  " style="fill:rgb(166, 132, 106); fill-opacity:1.000; stroke:none;" />
 <path d="  M 13,10  L 13,11  L 14,11  L 14,10  Z  " style="fill:rgb(166, 132, 106); fill-opacity:1.000; stroke:none;" />
 <path d="  M 16,10  L 16,9  L 14,9  L 14,10  Z  " style="fill:rgb(166, 132, 106); fill-opacity:1.000; stroke:none;" />
 <path d="  M 15,43  L 15,42  L 14,42  L 14,43  Z  " style="fill:rgb(166, 132, 106); fill-opacity:1.000; stroke:none;" />
 <path d="  M 18,8  L 16,8  L 16,9  L 18,9  Z  " style="fill:rgb(166, 132, 106); fill-opacity:1.000; stroke:none;" />
 <path d="  M 16,43  L 16,44  L 20,44  L 20,43  Z  " style="fill:rgb(166, 132, 106); fill-opacity:1.000; stroke:none;" />
 <path d="  M 20,59  L 20,58  L 16,58  L 16,59  Z  " style="fill:rgb(166, 132, 106); fill-opacity:1.000; stroke:none;" />
 <path d="  M 18,7  L 18,8  L 21,8  L 21,7  Z  " style="fill:rgb(166, 132, 106); fill-opacity:1.000; stroke:none;" />
 <path d="  M 20,58  L 22,58  L 22,57  L 20,57  Z  " style="fill:rgb(166, 132, 106); fill-opacity:1.000; stroke:none;" />
 <path d="  M 24,7  L 24,6  L 21,6  L 21,7  Z  " style="fill:rgb(166, 132, 106); fill-opacity:1.000; stroke:none;" />
 <path d="  M 22,46  L 23,46  L 23,45  L 22,45  Z  " style="fill:rgb(166, 132, 106); fill-opacity:1.000; stroke:none;" />
 <path d="  M 22,56  L 22,57  L 23,57  L 23,56  Z  " style="fill:rgb(166, 132, 106); fill-opacity:1.000; stroke:none;" />
 <path d="  M 24,5  L 24,6  L 36,6  L 36,5  Z  " style="fill:rgb(166, 132, 106); fill-opacity:1.000; stroke:none;" />
 <path d="  M 27,26  L 26,26  L 26,28  L 27,28  Z  " style="fill:rgb(166, 132, 106); fill-opacity:1.000; stroke:none;" />
 <path d="  M 26,44  L 28,44  L 28,43  L 26,43  Z  " style="fill:rgb(166, 132, 106); fill-opacity:1.000; stroke:none;" />
 <path d="  M 27,58  L 26,58  L 26,59  L 32,59  L 32,57  L 33,57  L 33,56  L 34,56  L 34,55  L 32,55  L 32,56  L 27,56  Z  " style="fill:rgb(166, 132, 106); fill-opacity:1.000; stroke:none;" />
 <path d="  M 28,24  L 27,24  L 27,26  L 28,26  Z  " style="fill:rgb(166, 132, 106); fill-opacity:1.000; stroke:none;" />
 <path d="  M 28,23  L 28,24  L 29,24  L 29,23  Z  " style="fill:rgb(166, 132, 106); fill-opacity:1.000; stroke:none;" />
 <path d="  M 28,45  L 29,45  L 29,44  L 28,44  Z  " style="fill:rgb(166, 132, 106); fill-opacity:1.000; stroke:none;" />
 <path d="  M 29,22  L 29,23  L 30,23  L 30,22  Z  " style="fill:rgb(166, 132, 106); fill-opacity:1.000; stroke:none;" />
 <path d="  M 30,22  L 32,22  L 32,21  L 30,21  Z  " style="fill:rgb(166, 132, 106); fill-opacity:1.000; stroke:none;" />
 <path d="  M 32,43  L 32,42  L 30,42  L 30,43  Z  " style="fill:rgb(166, 132, 106); fill-opacity:1.000; stroke:none;" />
 <path d="  M 32,20  L 32,21  L 38,21  L 38,20  Z  " style="fill:rgb(166, 132, 106); fill-opacity:1.000; stroke:none;" />
 <path d="  M 34,33  L 34,32  L 32,32  L 32,33  Z  " style="fill:rgb(166, 132, 106); fill-opacity:1.000; stroke:none;" />
 <path d="  M 32,42  L 36,42  L 36,41  L 32,41  Z  " style="fill:rgb(166, 132, 106); fill-opacity:1.000; stroke:none;" />
 <path d="  M 33,44  L 33,43  L 32,43  L 32,44  Z  " style="fill:rgb(166, 132, 106); fill-opacity:1.000; stroke:none;" />
 <path d="  M 34,27  L 33,27  L 33,28  L 34,28  Z  " style="fill:rgb(166, 132, 106); fill-opacity:1.000; stroke:none;" />
 <path d="  M 42,56  L 42,55  L 44,55  L 44,54  L 46,54  L 46,53  L 48,53  L 48,52  L 49,52  L 49,49  L 47,49  L 47,50  L 46,50  L 46,51  L 44,51  L 44,52  L 42,52  L 42,53  L 40,53  L 40,54  L 35,54  L 35,56  L 34,56  L 34,57  L 33,57  L 33,58  L 36,58  L 36,57  L 39,57  L 39,56  Z  " style="fill:rgb(166, 132, 106); fill-opacity:1.000; stroke:none;" />
 <path d="  M 36,32  L 36,31  L 37,31  L 37,29  L 36,29  L 36,30  L 35,30  L 35,31  L 34,31  L 34,32  Z  " style="fill:rgb(166, 132, 106); fill-opacity:1.000; stroke:none;" />
 <path d="  M 36,29  L 36,28  L 35,28  L 35,29  Z  " style="fill:rgb(166, 132, 106); fill-opacity:1.000; stroke:none;" />
 <path d="  M 39,6  L 36,6  L 36,7  L 39,7  Z  " style="fill:rgb(166, 132, 106); fill-opacity:1.000; stroke:none;" />
 <path d="  M 36,41  L 38,41  L 38,40  L 36,40  Z  " style="fill:rgb(166, 132, 106); fill-opacity:1.000; stroke:none;" />
 <path d="  M 36,42  L 36,43  L 37,43  L 37,42  Z  " style="fill:rgb(166, 132, 106); fill-opacity:1.000; stroke:none;" />
 <path d="  M 38,21  L 38,22  L 40,22  L 40,21  Z  " style="fill:rgb(166, 132, 106); fill-opacity:1.000; stroke:none;" />
 <path d="  M 41,39  L 41,38  L 39,38  L 39,39  L 38,39  L 38,40  L 40,40  L 40,39  Z  " style="fill:rgb(166, 132, 106); fill-opacity:1.000; stroke:none;" />
 <path d="  M 38,42  L 39,42  L 39,41  L 38,41  Z  " style="fill:rgb(166, 132, 106); fill-opacity:1.000; stroke:none;" />
 <path d="  M 42,7  L 39,7  L 39,8  L 42,8  Z  " style="fill:rgb(166, 132, 106); fill-opacity:1.000; stroke:none;" />
 <path d="  M 41,22  L 40,22  L 40,23  L 41,23  Z  " style="fill:rgb(166, 132, 106); fill-opacity:1.000; stroke:none;" />
 <path d="  M 41,41  L 41,40  L 40,40  L 40,41  Z  " style="fill:rgb(166, 132, 106); fill-opacity:1.000; stroke:none;" />
 <path d="  M 42,23  L 41,23  L 41,24  L 42,24  Z  " style="fill:rgb(166, 132, 106); fill-opacity:1.000; stroke:none;" />
 <path d="  M 42,38  L 42,37  L 41,37  L 41,38  Z  " style="fill:rgb(166, 132, 106); fill-opacity:1.000; stroke:none;" />
 <path d="  M 41,39  L 41,40  L 42,40  L 42,39  Z  " style="fill:rgb(166, 132, 106); fill-opacity:1.000; stroke:none;" />
 <path d="  M 42,8  L 42,9  L 44,9  L 44,8  Z  " style="fill:rgb(166, 132, 106); fill-opacity:1.000; stroke:none;" />
 <path d="  M 43,24  L 42,24  L 42,26  L 43,26  Z  " style="fill:rgb(166, 132, 106); fill-opacity:1.000; stroke:none;" />
 <path d="  M 43,36  L 43,35  L 42,35  L 42,36  Z  " style="fill:rgb(166, 132, 106); fill-opacity:1.000; stroke:none;" />
 <path d="  M 44,26  L 43,26  L 43,28  L 44,28  Z  " style="fill:rgb(166, 132, 106); fill-opacity:1.000; stroke:none;" />
 <path d="  M 44,34  L 44,30  L 43,30  L 43,34  Z  " style="fill:rgb(166, 132, 106); fill-opacity:1.000; stroke:none;" />
 <path d="  M 44,36  L 43,36  L 43,37  L 44,37  Z  " style="fill:rgb(166, 132, 106); fill-opacity:1.000; stroke:none;" />
 <path d="  M 44,9  L 44,10  L 46,10  L 46,9  Z  " style="fill:rgb(166, 132, 106); fill-opacity:1.000; stroke:none;" />
 <path d="  M 44,35  L 45,35  L 45,34  L 44,34  Z  " style="fill:rgb(166, 132, 106); fill-opacity:1.000; stroke:none;" />
 <path d="  M 46,10  L 46,11  L 48,11  L 48,10  Z  " style="fill:rgb(166, 132, 106); fill-opacity:1.000; stroke:none;" />
 <path d="  M 48,11  L 48,12  L 50,12  L 50,11  Z  " style="fill:rgb(166, 132, 106); fill-opacity:1.000; stroke:none;" />
 <path d="  M 49,49  L 50,49  L 50,51  L 51,51  L 51,50  L 52,50  L 52,48  L 53,48  L 53,46  L 54,46  L 54,44  L 55,44  L 55,42  L 56,42  L 56,39  L 57,39  L 57,36  L 58,36  L 58,34  L 57,34  L 57,33  L 56,33  L 56,36  L 55,36  L 55,39  L 54,39  L 54,42  L 53,42  L 53,44  L 52,44  L 52,46  L 51,46  L 51,47  L 50,47  L 50,48  L 49,48  Z  " style="fill:rgb(166, 132, 106); fill-opacity:1.000; stroke:none;" />
 <path d="  M 51,12  L 50,12  L 50,13  L 51,13  Z  " style="fill:rgb(166, 132, 106); fill-opacity:1.000; stroke:none;" />
 <path d="  M 52,13  L 51,13  L 51,14  L 52,14  Z  " style="fill:rgb(166, 132, 106); fill-opacity:1.000; stroke:none;" />
 <path d="  M 53,16  L 53,14  L 52,14  L 52,16  Z  " style="fill:rgb(166, 132, 106); fill-opacity:1.000; stroke:none;" />
 <path d="  M 53,18  L 54,18  L 54,16  L 53,16  Z  " style="fill:rgb(166, 132, 106); fill-opacity:1.000; stroke:none;" />
 <path d="  M 55,21  L 55,20  L 54,20  L 54,21  Z  " style="fill:rgb(166, 132, 106); fill-opacity:1.000; stroke:none;" />
 <path d="  M 55,25  L 56,25  L 56,22  L 55,22  Z  " style="fill:rgb(166, 132, 106); fill-opacity:1.000; stroke:none;" />
 <path d="  M 58,28  L 57,28  L 57,25  L 56,25  L 56,32  L 57,32  L 57,33  L 58,33  Z  " style="fill:rgb(166, 132, 106); fill-opacity:1.000; stroke:none;" />
 <path d="  M 5,28  L 4,28  L 4,33  L 5,33  Z  " style="fill:rgb(138, 106, 83); fill-opacity:1.000; stroke:none;" />
 <path d="  M 5,36  L 6,36  L 6,33  L 5,33  Z  " style="fill:rgb(138, 106, 83); fill-opacity:1.000; stroke:none;" />
 <path d="  M 8,38  L 8,37  L 7,37  L 7,38  Z  " style="fill:rgb(138, 106, 83); fill-opacity:1.000; stroke:none;" />
 <path d="  M 8,39  L 8,40  L 9,40  L 9,39  Z  " style="fill:rgb(138, 106, 83); fill-opacity:1.000; stroke:none;" />
 <path d="  M 9,41  L 10,41  L 10,40  L 9,40  Z  " style="fill:rgb(138, 106, 83); fill-opacity:1.000; stroke:none;" />
 <path d="  M 10,53  L 9,53  L 9,54  L 10,54  Z  " style="fill:rgb(138, 106, 83); fill-opacity:1.000; stroke:none;" />
 <path d="  M 10,41  L 10,42  L 12,42  L 12,41  Z  " style="fill:rgb(138, 106, 83); fill-opacity:1.000; stroke:none;" />
 <path d="  M 12,55  L 11,55  L 11,54  L 10,54  L 10,56  L 12,56  Z  " style="fill:rgb(138, 106, 83); fill-opacity:1.000; stroke:none;" />
 <path d="  M 14,43  L 14,42  L 12,42  L 12,43  Z  " style="fill:rgb(138, 106, 83); fill-opacity:1.000; stroke:none;" />
 <path d="  M 12,46  L 12,47  L 14,47  L 14,46  Z  " style="fill:rgb(138, 106, 83); fill-opacity:1.000; stroke:none;" />
 <path d="  M 16,58  L 16,57  L 14,57  L 14,56  L 12,56  L 12,57  L 13,57  L 13,58  Z  " style="fill:rgb(138, 106, 83); fill-opacity:1.000; stroke:none;" />
 <path d="  M 16,44  L 16,43  L 14,43  L 14,44  Z  " style="fill:rgb(138, 106, 83); fill-opacity:1.000; stroke:none;" />
 <path d="  M 22,46  L 22,45  L 14,45  L 14,46  Z  " style="fill:rgb(138, 106, 83); fill-opacity:1.000; stroke:none;" />
 <path d="  M 17,54  L 16,54  L 16,55  L 17,55  Z  " style="fill:rgb(138, 106, 83); fill-opacity:1.000; stroke:none;" />
 <path d="  M 17,55  L 17,56  L 18,56  L 18,57  L 19,57  L 19,58  L 20,58  L 20,57  L 22,57  L 22,56  L 20,56  L 20,55  Z  " style="fill:rgb(138, 106, 83); fill-opacity:1.000; stroke:none;" />
 <path d="  M 17,59  L 17,60  L 20,60  L 20,59  Z  " style="fill:rgb(138, 106, 83); fill-opacity:1.000; stroke:none;" />
 <path d="  M 20,58  L 20,59  L 21,59  L 21,58  Z  " style="fill:rgb(138, 106, 83); fill-opacity:1.000; stroke:none;" />
 <path d="  M 22,44  L 22,45  L 28,45  L 28,44  Z  " style="fill:rgb(138, 106, 83); fill-opacity:1.000; stroke:none;" />
 <path d="  M 25,54  L 24,54  L 24,55  L 22,55  L 22,56  L 23,56  L 23,57  L 24,57  L 24,56  L 25,56  Z  " style="fill:rgb(138, 106, 83); fill-opacity:1.000; stroke:none;" />
 <path d="  M 22,57  L 22,58  L 23,58  L 23,57  Z  " style="fill:rgb(138, 106, 83); fill-opacity:1.000; stroke:none;" />
 <path d="  M 26,52  L 25,52  L 25,54  L 26,54  Z  " style="fill:rgb(138, 106, 83); fill-opacity:1.000; stroke:none;" />
 <path d="  M 27,28  L 26,28  L 26,31  L 27,31  Z  " style="fill:rgb(138, 106, 83); fill-opacity:1.000; stroke:none;" />
 <path d="  M 27,32  L 28,32  L 28,31  L 27,31  Z  " style="fill:rgb(138, 106, 83); fill-opacity:1.000; stroke:none;" />
 <path d="  M 28,33  L 30,33  L 30,32  L 28,32  Z  " style="fill:rgb(138, 106, 83); fill-opacity:1.000; stroke:none;" />
 <path d="  M 32,44  L 32,43  L 28,43  L 28,44  Z  " style="fill:rgb(138, 106, 83); fill-opacity:1.000; stroke:none;" />
 <path d="  M 34,34  L 34,33  L 30,33  L 30,34  Z  " style="fill:rgb(138, 106, 83); fill-opacity:1.000; stroke:none;" />
 <path d="  M 36,42  L 32,42  L 32,43  L 36,43  Z  " style="fill:rgb(138, 106, 83); fill-opacity:1.000; stroke:none;" />
 <path d="  M 36,28  L 36,27  L 34,27  L 34,28  Z  " style="fill:rgb(138, 106, 83); fill-opacity:1.000; stroke:none;" />
 <path d="  M 36,41  L 36,42  L 38,42  L 38,41  Z  " style="fill:rgb(138, 106, 83); fill-opacity:1.000; stroke:none;" />
 <path d="  M 38,40  L 38,41  L 40,41  L 40,40  Z  " style="fill:rgb(138, 106, 83); fill-opacity:1.000; stroke:none;" />
 <path d="  M 41,39  L 40,39  L 40,40  L 41,40  Z  " style="fill:rgb(138, 106, 83); fill-opacity:1.000; stroke:none;" />
 <path d="  M 41,39  L 42,39  L 42,38  L 41,38  Z  " style="fill:rgb(138, 106, 83); fill-opacity:1.000; stroke:none;" />
 <path d="  M 43,36  L 42,36  L 42,38  L 43,38  Z  " style="fill:rgb(138, 106, 83); fill-opacity:1.000; stroke:none;" />
 <path d="  M 43,36  L 44,36  L 44,34  L 43,34  Z  " style="fill:rgb(138, 106, 83); fill-opacity:1.000; stroke:none;" />
 <path d="  M 44,34  L 45,34  L 45,28  L 44,28  Z  " style="fill:rgb(138, 106, 83); fill-opacity:1.000; stroke:none;" />
 <path d="  M 10,30  L 10,29  L 9,29  L 9,28  L 8,28  L 8,20  L 9,20  L 9,18  L 10,18  L 10,16  L 11,16  L 11,15  L 9,15  L 9,16  L 8,16  L 8,18  L 7,18  L 7,20  L 6,20  L 6,23  L 5,23  L 5,28  L 6,28  L 6,29  L 8,29  L 8,30  Z  " style="fill:rgb(186, 173, 150); fill-opacity:1.000; stroke:none;" />
 <path d="  M 5,33  L 6,33  L 6,35  L 7,35  L 7,31  L 8,31  L 8,30  L 6,30  L 6,29  L 5,29  Z  " style="fill:rgb(186, 173, 150); fill-opacity:1.000; stroke:none;" />
 <path d="  M 7,35  L 7,36  L 8,36  L 8,35  Z  " style="fill:rgb(186, 173, 150); fill-opacity:1.000; stroke:none;" />
 <path d="  M 10,39  L 10,40  L 11,40  L 11,41  L 13,41  L 13,42  L 15,42  L 15,43  L 20,43  L 20,44  L 26,44  L 26,43  L 30,43  L 30,42  L 32,42  L 32,41  L 36,41  L 36,40  L 38,40  L 38,39  L 39,39  L 39,38  L 41,38  L 41,37  L 42,37  L 42,35  L 43,35  L 43,30  L 44,30  L 44,28  L 43,28  L 43,26  L 42,26  L 42,24  L 41,24  L 41,23  L 40,23  L 40,22  L 38,22  L 38,21  L 32,21  L 32,22  L 30,22  L 30,23  L 29,23  L 29,24  L 28,24  L 28,26  L 27,26  L 27,31  L 26,31  L 26,32  L 24,32  L 24,33  L 15,33  L 15,34  L 28,34  L 28,35  L 31,35  L 31,36  L 34,36  L 34,35  L 37,35  L 37,36  L 36,36  L 36,37  L 34,37  L 34,38  L 32,38  L 32,39  L 30,39  L 30,40  L 27,40  L 27,41  L 24,41  L 24,42  L 16,42  L 16,41  L 14,41  L 14,40  L 12,40  L 12,39  L 11,39  L 11,38  L 10,38  L 10,37  L 9,37  L 9,36  L 8,36  L 8,38  L 9,38  L 9,39  Z  M 33,28  L 33,29  L 34,29  L 34,30  L 33,30  L 33,31  L 30,31  L 30,30  L 29,30  L 29,29  L 28,29  L 28,27  L 29,27  L 29,26  L 30,26  L 30,25  L 32,25  L 32,24  L 38,24  L 38,25  L 34,25  L 34,26  L 33,26  L 33,27  L 36,27  L 36,28  L 37,28  L 37,29  L 38,29  L 38,31  L 37,31  L 37,32  L 36,32  L 36,33  L 34,33  L 34,34  L 30,34  L 30,33  L 32,33  L 32,32  L 34,32  L 34,31  L 35,31  L 35,30  L 36,30  L 36,29  L 35,29  L 35,28  Z  M 38,35  L 37,35  L 37,34  L 38,34  Z  M 28,33  L 28,32  L 30,32  L 30,33  Z  M 28,31  L 28,32  L 27,32  L 27,31  Z  " style="fill:rgb(186, 173, 150); fill-opacity:1.000; stroke:none;" />
 <path d="  M 11,32  L 11,31  L 9,31  L 9,32  Z  " style="fill:rgb(186, 173, 150); fill-opacity:1.000; stroke:none;" />
 <path d="  M 12,13  L 11,13  L 11,14  L 12,14  Z  " style="fill:rgb(186, 173, 150); fill-opacity:1.000; stroke:none;" />
 <path d="  M 13,31  L 13,30  L 11,30  L 11,31  Z  " style="fill:rgb(186, 173, 150); fill-opacity:1.000; stroke:none;" />
 <path d="  M 13,12  L 12,12  L 12,13  L 13,13  Z  " style="fill:rgb(186, 173, 150); fill-opacity:1.000; stroke:none;" />
 <path d="  M 12,16  L 13,16  L 13,15  L 12,15  Z  " style="fill:rgb(186, 173, 150); fill-opacity:1.000; stroke:none;" />
 <path d="  M 14,33  L 14,32  L 12,32  L 12,33  Z  " style="fill:rgb(186, 173, 150); fill-opacity:1.000; stroke:none;" />
 <path d="  M 13,12  L 14,12  L 14,11  L 13,11  Z  " style="fill:rgb(186, 173, 150); fill-opacity:1.000; stroke:none;" />
 <path d="  M 13,15  L 14,15  L 14,14  L 13,14  Z  " style="fill:rgb(186, 173, 150); fill-opacity:1.000; stroke:none;" />
 <path d="  M 16,11  L 16,10  L 14,10  L 14,11  Z  " style="fill:rgb(186, 173, 150); fill-opacity:1.000; stroke:none;" />
 <path d="  M 14,31  L 14,32  L 16,32  L 16,31  Z  " style="fill:rgb(186, 173, 150); fill-opacity:1.000; stroke:none;" />
 <path d="  M 16,17  L 16,16  L 15,16  L 15,17  Z  " style="fill:rgb(186, 173, 150); fill-opacity:1.000; stroke:none;" />
 <path d="  M 16,10  L 17,10  L 17,9  L 16,9  Z  " style="fill:rgb(186, 173, 150); fill-opacity:1.000; stroke:none;" />
 <path d="  M 17,15  L 16,15  L 16,16  L 17,16  Z  " style="fill:rgb(186, 173, 150); fill-opacity:1.000; stroke:none;" />
 <path d="  M 17,18  L 18,18  L 18,17  L 17,17  Z  " style="fill:rgb(186, 173, 150); fill-opacity:1.000; stroke:none;" />
 <path d="  M 19,8  L 18,8  L 18,9  L 19,9  Z  " style="fill:rgb(186, 173, 150); fill-opacity:1.000; stroke:none;" />
 <path d="  M 19,16  L 18,16  L 18,17  L 19,17  Z  " style="fill:rgb(186, 173, 150); fill-opacity:1.000; stroke:none;" />
 <path d="  M 19,19  L 20,19  L 20,18  L 19,18  Z  " style="fill:rgb(186, 173, 150); fill-opacity:1.000; stroke:none;" />
 <path d="  M 20,17  L 20,18  L 21,18  L 21,17  Z  " style="fill:rgb(186, 173, 150); fill-opacity:1.000; stroke:none;" />
 <path d="  M 21,20  L 21,19  L 20,19  L 20,20  Z  " style="fill:rgb(186, 173, 150); fill-opacity:1.000; stroke:none;" />
 <path d="  M 21,8  L 22,8  L 22,7  L 21,7  Z  " style="fill:rgb(186, 173, 150); fill-opacity:1.000; stroke:none;" />
 <path d="  M 22,19  L 22,18  L 21,18  L 21,19  Z  " style="fill:rgb(186, 173, 150); fill-opacity:1.000; stroke:none;" />
 <path d="  M 21,20  L 21,21  L 22,21  L 22,20  Z  " style="fill:rgb(186, 173, 150); fill-opacity:1.000; stroke:none;" />
 <path d="  M 26,24  L 25,24  L 25,28  L 24,28  L 24,30  L 23,30  L 23,31  L 21,31  L 21,32  L 24,32  L 24,31  L 26,31  Z  " style="fill:rgb(186, 173, 150); fill-opacity:1.000; stroke:none;" />
 <path d="  M 22,19  L 22,20  L 23,20  L 23,19  Z  " style="fill:rgb(186, 173, 150); fill-opacity:1.000; stroke:none;" />
 <path d="  M 23,22  L 23,21  L 22,21  L 22,22  Z  " style="fill:rgb(186, 173, 150); fill-opacity:1.000; stroke:none;" />
 <path d="  M 24,20  L 23,20  L 23,21  L 24,21  Z  " style="fill:rgb(186, 173, 150); fill-opacity:1.000; stroke:none;" />
 <path d="  M 23,22  L 23,23  L 24,23  L 24,22  Z  " style="fill:rgb(186, 173, 150); fill-opacity:1.000; stroke:none;" />
 <path d="  M 33,46  L 33,45  L 32,45  L 32,44  L 29,44  L 29,45  L 23,45  L 23,46  Z  " style="fill:rgb(186, 173, 150); fill-opacity:1.000; stroke:none;" />
 <path d="  M 25,6  L 24,6  L 24,7  L 25,7  Z  " style="fill:rgb(186, 173, 150); fill-opacity:1.000; stroke:none;" />
 <path d="  M 24,21  L 24,22  L 25,22  L 25,21  Z  " style="fill:rgb(186, 173, 150); fill-opacity:1.000; stroke:none;" />
 <path d="  M 25,23  L 24,23  L 24,24  L 25,24  Z  " style="fill:rgb(186, 173, 150); fill-opacity:1.000; stroke:none;" />
 <path d="  M 34,15  L 34,17  L 32,17  L 32,18  L 30,18  L 30,19  L 28,19  L 28,20  L 27,20  L 27,21  L 26,21  L 26,22  L 25,22  L 25,23  L 26,23  L 26,24  L 28,24  L 28,23  L 29,23  L 29,22  L 30,22  L 30,21  L 32,21  L 32,20  L 35,20  L 35,15  Z  " style="fill:rgb(186, 173, 150); fill-opacity:1.000; stroke:none;" />
 <path d="  M 35,54  L 35,52  L 32,52  L 32,53  L 30,53  L 30,54  L 28,54  L 28,56  L 32,56  L 32,55  L 34,55  L 34,54  Z  " style="fill:rgb(186, 173, 150); fill-opacity:1.000; stroke:none;" />
 <path d="  M 30,6  L 29,6  L 29,7  L 30,7  Z  " style="fill:rgb(186, 173, 150); fill-opacity:1.000; stroke:none;" />
 <path d="  M 30,7  L 30,8  L 31,8  L 31,7  Z  " style="fill:rgb(186, 173, 150); fill-opacity:1.000; stroke:none;" />
 <path d="  M 32,7  L 32,6  L 31,6  L 31,7  Z  " style="fill:rgb(186, 173, 150); fill-opacity:1.000; stroke:none;" />
 <path d="  M 31,8  L 31,9  L 32,9  L 32,8  Z  " style="fill:rgb(186, 173, 150); fill-opacity:1.000; stroke:none;" />
 <path d="  M 33,7  L 32,7  L 32,8  L 33,8  Z  " style="fill:rgb(186, 173, 150); fill-opacity:1.000; stroke:none;" />
 <path d="  M 33,10  L 32,10  L 32,11  L 33,11  Z  " style="fill:rgb(186, 173, 150); fill-opacity:1.000; stroke:none;" />
 <path d="  M 33,27  L 32,27  L 32,28  L 33,28  Z  " style="fill:rgb(186, 173, 150); fill-opacity:1.000; stroke:none;" />
 <path d="  M 34,9  L 33,9  L 33,10  L 34,10  Z  " style="fill:rgb(186, 173, 150); fill-opacity:1.000; stroke:none;" />
 <path d="  M 33,12  L 33,13  L 34,13  L 34,12  Z  " style="fill:rgb(186, 173, 150); fill-opacity:1.000; stroke:none;" />
 <path d="  M 34,45  L 34,46  L 35,46  L 35,45  L 36,45  L 36,44  L 38,44  L 38,43  L 40,43  L 40,42  L 41,42  L 41,41  L 39,41  L 39,42  L 37,42  L 37,43  L 33,43  L 33,45  Z  " style="fill:rgb(186, 173, 150); fill-opacity:1.000; stroke:none;" />
 <path d="  M 33,46  L 33,47  L 34,47  L 34,46  Z  " style="fill:rgb(186, 173, 150); fill-opacity:1.000; stroke:none;" />
 <path d="  M 35,12  L 35,11  L 34,11  L 34,12  Z  " style="fill:rgb(186, 173, 150); fill-opacity:1.000; stroke:none;" />
 <path d="  M 34,49  L 35,49  L 35,48  L 34,48  Z  " style="fill:rgb(186, 173, 150); fill-opacity:1.000; stroke:none;" />
 <path d="  M 36,7  L 36,6  L 35,6  L 35,7  Z  " style="fill:rgb(186, 173, 150); fill-opacity:1.000; stroke:none;" />
 <path d="  M 35,15  L 36,15  L 36,14  L 35,14  Z  " style="fill:rgb(186, 173, 150); fill-opacity:1.000; stroke:none;" />
 <path d="  M 36,48  L 36,47  L 35,47  L 35,48  Z  " style="fill:rgb(186, 173, 150); fill-opacity:1.000; stroke:none;" />
 <path d="  M 37,16  L 36,16  L 36,20  L 38,20  L 38,21  L 40,21  L 40,22  L 42,22  L 42,21  L 43,21  L 43,20  L 42,20  L 42,19  L 40,19  L 40,18  L 38,18  L 38,17  L 37,17  Z  " style="fill:rgb(186, 173, 150); fill-opacity:1.000; stroke:none;" />
 <path d="  M 42,53  L 42,52  L 44,52  L 44,51  L 46,51  L 46,50  L 47,50  L 47,49  L 48,49  L 48,46  L 47,46  L 47,44  L 46,44  L 46,46  L 45,46  L 45,47  L 44,47  L 44,48  L 42,48  L 42,49  L 40,49  L 40,50  L 38,50  L 38,51  L 36,51  L 36,54  L 40,54  L 40,53  Z  " style="fill:rgb(186, 173, 150); fill-opacity:1.000; stroke:none;" />
 <path d="  M 38,7  L 38,8  L 39,8  L 39,7  Z  " style="fill:rgb(186, 173, 150); fill-opacity:1.000; stroke:none;" />
 <path d="  M 42,8  L 41,8  L 41,9  L 42,9  Z  " style="fill:rgb(186, 173, 150); fill-opacity:1.000; stroke:none;" />
 <path d="  M 41,40  L 41,41  L 42,41  L 42,40  Z  " style="fill:rgb(186, 173, 150); fill-opacity:1.000; stroke:none;" />
 <path d="  M 43,21  L 43,22  L 42,22  L 42,24  L 43,24  L 43,26  L 44,26  L 44,28  L 47,28  L 47,27  L 46,27  L 46,24  L 45,24  L 45,22  L 44,22  L 44,21  Z  " style="fill:rgb(186, 173, 150); fill-opacity:1.000; stroke:none;" />
 <path d="  M 43,39  L 42,39  L 42,40  L 43,40  Z  " style="fill:rgb(186, 173, 150); fill-opacity:1.000; stroke:none;" />
 <path d="  M 43,10  L 44,10  L 44,9  L 43,9  Z  " style="fill:rgb(186, 173, 150); fill-opacity:1.000; stroke:none;" />
 <path d="  M 43,20  L 44,20  L 44,19  L 43,19  Z  " style="fill:rgb(186, 173, 150); fill-opacity:1.000; stroke:none;" />
 <path d="  M 44,35  L 44,37  L 43,37  L 43,39  L 44,39  L 44,38  L 45,38  L 45,36  L 46,36  L 46,34  L 47,34  L 47,29  L 45,29  L 45,35  Z  " style="fill:rgb(186, 173, 150); fill-opacity:1.000; stroke:none;" />
 <path d="  M 43,40  L 43,41  L 44,41  L 44,40  Z  " style="fill:rgb(186, 173, 150); fill-opacity:1.000; stroke:none;" />
 <path d="  M 46,11  L 46,10  L 44,10  L 44,11  Z  " style="fill:rgb(186, 173, 150); fill-opacity:1.000; stroke:none;" />
 <path d="  M 45,19  L 45,18  L 44,18  L 44,19  Z  " style="fill:rgb(186, 173, 150); fill-opacity:1.000; stroke:none;" />
 <path d="  M 44,20  L 44,21  L 45,21  L 45,20  Z  " style="fill:rgb(186, 173, 150); fill-opacity:1.000; stroke:none;" />
 <path d="  M 44,39  L 44,40  L 45,40  L 45,39  Z  " style="fill:rgb(186, 173, 150); fill-opacity:1.000; stroke:none;" />
 <path d="  M 44,42  L 45,42  L 45,41  L 44,41  Z  " style="fill:rgb(186, 173, 150); fill-opacity:1.000; stroke:none;" />
 <path d="  M 46,18  L 46,17  L 45,17  L 45,18  Z  " style="fill:rgb(186, 173, 150); fill-opacity:1.000; stroke:none;" />
 <path d="  M 45,19  L 45,20  L 46,20  L 46,19  Z  " style="fill:rgb(186, 173, 150); fill-opacity:1.000; stroke:none;" />
 <path d="  M 45,40  L 45,41  L 46,41  L 46,40  Z  " style="fill:rgb(186, 173, 150); fill-opacity:1.000; stroke:none;" />
 <path d="  M 46,43  L 46,42  L 45,42  L 45,43  Z  " style="fill:rgb(186, 173, 150); fill-opacity:1.000; stroke:none;" />
 <path d="  M 46,12  L 48,12  L 48,11  L 46,11  Z  " style="fill:rgb(186, 173, 150); fill-opacity:1.000; stroke:none;" />
 <path d="  M 47,19  L 47,18  L 46,18  L 46,19  Z  " style="fill:rgb(186, 173, 150); fill-opacity:1.000; stroke:none;" />
 <path d="  M 47,42  L 47,41  L 46,41  L 46,42  Z  " style="fill:rgb(186, 173, 150); fill-opacity:1.000; stroke:none;" />
 <path d="  M 47,17  L 48,17  L 48,16  L 47,16  Z  " style="fill:rgb(186, 173, 150); fill-opacity:1.000; stroke:none;" />
 <path d="  M 52,38  L 51,38  L 51,40  L 50,40  L 50,42  L 49,42  L 49,43  L 47,43  L 47,44  L 48,44  L 48,46  L 49,46  L 49,48  L 50,48  L 50,47  L 51,47  L 51,46  L 52,46  L 52,44  L 53,44  L 53,42  L 54,42  L 54,39  L 55,39  L 55,36  L 56,36  L 56,32  L 54,32  L 54,31  L 53,31  L 53,35  L 52,35  Z  " style="fill:rgb(186, 173, 150); fill-opacity:1.000; stroke:none;" />
 <path d="  M 50,15  L 51,15  L 51,16  L 52,16  L 52,14  L 51,14  L 51,13  L 50,13  L 50,12  L 48,12  L 48,13  L 49,13  L 49,14  L 50,14  Z  " style="fill:rgb(186, 173, 150); fill-opacity:1.000; stroke:none;" />
 <path d="  M 49,18  L 49,17  L 48,17  L 48,18  Z  " style="fill:rgb(186, 173, 150); fill-opacity:1.000; stroke:none;" />
 <path d="  M 48,30  L 49,30  L 49,29  L 48,29  Z  " style="fill:rgb(186, 173, 150); fill-opacity:1.000; stroke:none;" />
 <path d="  M 50,29  L 50,28  L 49,28  L 49,29  Z  " style="fill:rgb(186, 173, 150); fill-opacity:1.000; stroke:none;" />
 <path d="  M 51,17  L 51,18  L 52,18  L 52,20  L 53,20  L 53,29  L 52,29  L 52,30  L 54,30  L 54,31  L 56,31  L 56,25  L 55,25  L 55,21  L 54,21  L 54,18  L 53,18  L 53,17  Z  " style="fill:rgb(186, 173, 150); fill-opacity:1.000; stroke:none;" />
 <path d="  M 52,30  L 51,30  L 51,31  L 52,31  Z  " style="fill:rgb(186, 173, 150); fill-opacity:1.000; stroke:none;" />
 <path d="  M 6,29  L 6,28  L 5,28  L 5,29  Z  " style="fill:rgb(202, 117, 72); fill-opacity:1.000; stroke:none;" />
 <path d="  M 6,29  L 6,30  L 8,30  L 8,29  Z  " style="fill:rgb(202, 117, 72); fill-opacity:1.000; stroke:none;" />
 <path d="  M 12,15  L 12,14  L 10,14  L 10,15  Z  " style="fill:rgb(202, 117, 72); fill-opacity:1.000; stroke:none;" />
 <path d="  M 18,32  L 18,33  L 24,33  L 24,32  Z  " style="fill:rgb(202, 117, 72); fill-opacity:1.000; stroke:none;" />
 <path d="  M 21,19  L 21,18  L 20,18  L 20,19  Z  " style="fill:rgb(202, 117, 72); fill-opacity:1.000; stroke:none;" />
 <path d="  M 21,20  L 22,20  L 22,19  L 21,19  Z  " style="fill:rgb(202, 117, 72); fill-opacity:1.000; stroke:none;" />
 <path d="  M 23,20  L 22,20  L 22,21  L 23,21  Z  " style="fill:rgb(202, 117, 72); fill-opacity:1.000; stroke:none;" />
 <path d="  M 24,21  L 23,21  L 23,22  L 24,22  Z  " style="fill:rgb(202, 117, 72); fill-opacity:1.000; stroke:none;" />
 <path d="  M 30,6  L 30,7  L 31,7  L 31,6  Z  " style="fill:rgb(202, 117, 72); fill-opacity:1.000; stroke:none;" />
 <path d="  M 32,8  L 32,7  L 31,7  L 31,8  Z  " style="fill:rgb(202, 117, 72); fill-opacity:1.000; stroke:none;" />
 <path d="  M 33,44  L 32,44  L 32,45  L 33,45  Z  " style="fill:rgb(202, 117, 72); fill-opacity:1.000; stroke:none;" />
 <path d="  M 34,45  L 33,45  L 33,46  L 34,46  Z  " style="fill:rgb(202, 117, 72); fill-opacity:1.000; stroke:none;" />
 <path d="  M 35,15  L 35,14  L 34,14  L 34,15  Z  " style="fill:rgb(202, 117, 72); fill-opacity:1.000; stroke:none;" />
 <path d="  M 36,15  L 35,15  L 35,19  L 36,19  Z  " style="fill:rgb(202, 117, 72); fill-opacity:1.000; stroke:none;" />
 <path d="  M 35,54  L 36,54  L 36,49  L 35,49  Z  " style="fill:rgb(202, 117, 72); fill-opacity:1.000; stroke:none;" />
 <path d="  M 42,23  L 42,22  L 41,22  L 41,23  Z  " style="fill:rgb(202, 117, 72); fill-opacity:1.000; stroke:none;" />
 <path d="  M 43,22  L 43,21  L 42,21  L 42,22  Z  " style="fill:rgb(202, 117, 72); fill-opacity:1.000; stroke:none;" />
 <path d="  M 43,20  L 43,21  L 44,21  L 44,20  Z  " style="fill:rgb(202, 117, 72); fill-opacity:1.000; stroke:none;" />
 <path d="  M 44,40  L 44,39  L 43,39  L 43,40  Z  " style="fill:rgb(202, 117, 72); fill-opacity:1.000; stroke:none;" />
 <path d="  M 45,41  L 45,40  L 44,40  L 44,41  Z  " style="fill:rgb(202, 117, 72); fill-opacity:1.000; stroke:none;" />
 <path d="  M 45,41  L 45,42  L 46,42  L 46,41  Z  " style="fill:rgb(202, 117, 72); fill-opacity:1.000; stroke:none;" />
 <path d="  M 48,46  L 48,44  L 47,44  L 47,46  Z  " style="fill:rgb(202, 117, 72); fill-opacity:1.000; stroke:none;" />
 <path d="  M 49,28  L 48,28  L 48,29  L 49,29  Z  " style="fill:rgb(202, 117, 72); fill-opacity:1.000; stroke:none;" />
 <path d="  M 49,48  L 49,46  L 48,46  L 48,48  Z  " style="fill:rgb(202, 117, 72); fill-opacity:1.000; stroke:none;" />
 <path d="  M 50,29  L 49,29  L 49,30  L 50,30  Z  " style="fill:rgb(202, 117, 72); fill-opacity:1.000; stroke:none;" />
 <path d="  M 52,17  L 52,16  L 50,16  L 50,17  Z  " style="fill:rgb(202, 117, 72); fill-opacity:1.000; stroke:none;" />
 <path d="  M 53,30  L 53,31  L 54,31  L 54,30  Z  " style="fill:rgb(202, 117, 72); fill-opacity:1.000; stroke:none;" />
 <path d="  M 6,38  L 7,38  L 7,36  L 6,36  Z  " style="fill:rgb(109, 83, 63); fill-opacity:1.000; stroke:none;" />
 <path d="  M 7,40  L 8,40  L 8,38  L 7,38  Z  " style="fill:rgb(109, 83, 63); fill-opacity:1.000; stroke:none;" />
 <path d="  M 8,41  L 9,41  L 9,40  L 8,40  Z  " style="fill:rgb(109, 83, 63); fill-opacity:1.000; stroke:none;" />
 <path d="  M 9,53  L 10,53  L 10,52  L 9,52  L 9,50  L 8,50  L 8,54  L 9,54  Z  " style="fill:rgb(109, 83, 63); fill-opacity:1.000; stroke:none;" />
 <path d="  M 9,42  L 10,42  L 10,41  L 9,41  Z  " style="fill:rgb(109, 83, 63); fill-opacity:1.000; stroke:none;" />
 <path d="  M 10,48  L 9,48  L 9,50  L 10,50  Z  " style="fill:rgb(109, 83, 63); fill-opacity:1.000; stroke:none;" />
 <path d="  M 10,56  L 10,54  L 9,54  L 9,56  Z  " style="fill:rgb(109, 83, 63); fill-opacity:1.000; stroke:none;" />
 <path d="  M 10,42  L 10,43  L 12,43  L 12,42  Z  " style="fill:rgb(109, 83, 63); fill-opacity:1.000; stroke:none;" />
 <path d="  M 11,48  L 11,47  L 10,47  L 10,48  Z  " style="fill:rgb(109, 83, 63); fill-opacity:1.000; stroke:none;" />
 <path d="  M 10,54  L 11,54  L 11,53  L 10,53  Z  " style="fill:rgb(109, 83, 63); fill-opacity:1.000; stroke:none;" />
 <path d="  M 12,59  L 14,59  L 14,60  L 17,60  L 17,59  L 16,59  L 16,58  L 13,58  L 13,57  L 12,57  L 12,56  L 10,56  L 10,57  L 11,57  L 11,58  L 12,58  Z  " style="fill:rgb(109, 83, 63); fill-opacity:1.000; stroke:none;" />
 <path d="  M 11,46  L 11,47  L 12,47  L 12,46  Z  " style="fill:rgb(109, 83, 63); fill-opacity:1.000; stroke:none;" />
 <path d="  M 16,54  L 11,54  L 11,55  L 12,55  L 12,56  L 14,56  L 14,57  L 16,57  L 16,58  L 19,58  L 19,57  L 18,57  L 18,56  L 17,56  L 17,55  L 16,55  Z  " style="fill:rgb(109, 83, 63); fill-opacity:1.000; stroke:none;" />
 <path d="  M 14,43  L 12,43  L 12,44  L 14,44  Z  " style="fill:rgb(109, 83, 63); fill-opacity:1.000; stroke:none;" />
 <path d="  M 14,44  L 14,45  L 22,45  L 22,44  Z  " style="fill:rgb(109, 83, 63); fill-opacity:1.000; stroke:none;" />
 <path d="  M 26,50  L 23,50  L 23,51  L 22,51  L 22,52  L 20,52  L 20,53  L 18,53  L 18,54  L 17,54  L 17,55  L 20,55  L 20,56  L 22,56  L 22,55  L 24,55  L 24,54  L 25,54  L 25,52  L 26,52  Z  " style="fill:rgb(109, 83, 63); fill-opacity:1.000; stroke:none;" />
 <path d="  M 26,52  L 26,54  L 25,54  L 25,56  L 24,56  L 24,57  L 23,57  L 23,58  L 21,58  L 21,59  L 20,59  L 20,60  L 32,60  L 32,59  L 25,59  L 25,58  L 26,58  L 26,56  L 27,56  L 27,52  Z  " style="fill:rgb(109, 83, 63); fill-opacity:1.000; stroke:none;" />
 <path d="  M 36,59  L 36,58  L 32,58  L 32,59  Z  " style="fill:rgb(109, 83, 63); fill-opacity:1.000; stroke:none;" />
 <path d="  M 36,33  L 36,32  L 34,32  L 34,33  Z  " style="fill:rgb(109, 83, 63); fill-opacity:1.000; stroke:none;" />
 <path d="  M 37,28  L 36,28  L 36,29  L 37,29  Z  " style="fill:rgb(109, 83, 63); fill-opacity:1.000; stroke:none;" />
 <path d="  M 37,31  L 36,31  L 36,32  L 37,32  Z  " style="fill:rgb(109, 83, 63); fill-opacity:1.000; stroke:none;" />
 <path d="  M 39,58  L 39,57  L 36,57  L 36,58  Z  " style="fill:rgb(109, 83, 63); fill-opacity:1.000; stroke:none;" />
 <path d="  M 37,31  L 38,31  L 38,29  L 37,29  Z  " style="fill:rgb(109, 83, 63); fill-opacity:1.000; stroke:none;" />
 <path d="  M 42,57  L 42,56  L 39,56  L 39,57  Z  " style="fill:rgb(109, 83, 63); fill-opacity:1.000; stroke:none;" />
 <path d="  M 42,55  L 42,56  L 44,56  L 44,55  Z  " style="fill:rgb(109, 83, 63); fill-opacity:1.000; stroke:none;" />
 <path d="  M 46,55  L 46,54  L 44,54  L 44,55  Z  " style="fill:rgb(109, 83, 63); fill-opacity:1.000; stroke:none;" />
 <path d="  M 46,53  L 46,54  L 48,54  L 48,53  Z  " style="fill:rgb(109, 83, 63); fill-opacity:1.000; stroke:none;" />
 <path d="  M 48,52  L 48,53  L 50,53  L 50,52  Z  " style="fill:rgb(109, 83, 63); fill-opacity:1.000; stroke:none;" />
 <path d="  M 50,52  L 51,52  L 51,51  L 50,51  Z  " style="fill:rgb(109, 83, 63); fill-opacity:1.000; stroke:none;" />
 <path d="  M 51,51  L 52,51  L 52,50  L 51,50  Z  " style="fill:rgb(109, 83, 63); fill-opacity:1.000; stroke:none;" />
 <path d="  M 52,50  L 53,50  L 53,48  L 52,48  Z  " style="fill:rgb(109, 83, 63); fill-opacity:1.000; stroke:none;" />
 <path d="  M 53,48  L 54,48  L 54,46  L 53,46  Z  " style="fill:rgb(109, 83, 63); fill-opacity:1.000; stroke:none;" />
 <path d="  M 55,18  L 54,18  L 54,20  L 55,20  Z  " style="fill:rgb(109, 83, 63); fill-opacity:1.000; stroke:none;" />
 <path d="  M 55,44  L 54,44  L 54,46  L 55,46  Z  " style="fill:rgb(109, 83, 63); fill-opacity:1.000; stroke:none;" />
 <path d="  M 56,20  L 55,20  L 55,22  L 56,22  Z  " style="fill:rgb(109, 83, 63); fill-opacity:1.000; stroke:none;" />
 <path d="  M 56,44  L 56,42  L 55,42  L 55,44  Z  " style="fill:rgb(109, 83, 63); fill-opacity:1.000; stroke:none;" />
 <path d="  M 56,25  L 57,25  L 57,22  L 56,22  Z  " style="fill:rgb(109, 83, 63); fill-opacity:1.000; stroke:none;" />
 <path d="  M 56,39  L 56,42  L 57,42  L 57,39  Z  " style="fill:rgb(109, 83, 63); fill-opacity:1.000; stroke:none;" />
 <path d="  M 57,28  L 58,28  L 58,25  L 57,25  Z  " style="fill:rgb(109, 83, 63); fill-opacity:1.000; stroke:none;" />
 <path d="  M 57,39  L 58,39  L 58,36  L 57,36  Z  " style="fill:rgb(109, 83, 63); fill-opacity:1.000; stroke:none;" />
 <path d="  M 58,36  L 59,36  L 59,28  L 58,28  Z  " style="fill:rgb(109, 83, 63); fill-opacity:1.000; stroke:none;" />
 <path d="  M 24,42  L 24,41  L 27,41  L 27,40  L 30,40  L 30,39  L 32,39  L 32,38  L 34,38  L 34,37  L 36,37  L 36,36  L 37,36  L 37,35  L 34,35  L 34,36  L 31,36  L 31,35  L 28,35  L 28,34  L 15,34  L 15,33  L 12,33  L 12,32  L 9,32  L 9,31  L 7,31  L 7,35  L 8,35  L 8,36  L 9,36  L 9,37  L 10,37  L 10,38  L 11,38  L 11,39  L 12,39  L 12,40  L 14,40  L 14,41  L 16,41  L 16,42  Z  " style="fill:rgb(212, 204, 195); fill-opacity:1.000; stroke:none;" />
 <path d="  M 8,28  L 9,28  L 9,29  L 10,29  L 10,30  L 13,30  L 13,31  L 16,31  L 16,32  L 21,32  L 21,31  L 23,31  L 23,30  L 24,30  L 24,28  L 25,28  L 25,24  L 24,24  L 24,23  L 23,23  L 23,22  L 22,22  L 22,21  L 21,21  L 21,20  L 20,20  L 20,19  L 19,19  L 19,18  L 17,18  L 17,17  L 15,17  L 15,16  L 12,16  L 12,15  L 11,15  L 11,16  L 10,16  L 10,18  L 9,18  L 9,20  L 8,20  Z  " style="fill:rgb(212, 204, 195); fill-opacity:1.000; stroke:none;" />
 <path d="  M 17,15  L 17,16  L 19,16  L 19,17  L 21,17  L 21,18  L 22,18  L 22,19  L 23,19  L 23,20  L 24,20  L 24,21  L 25,21  L 25,22  L 26,22  L 26,21  L 27,21  L 27,20  L 28,20  L 28,19  L 30,19  L 30,18  L 32,18  L 32,17  L 34,17  L 34,13  L 33,13  L 33,11  L 32,11  L 32,9  L 31,9  L 31,8  L 30,8  L 30,7  L 29,7  L 29,6  L 25,6  L 25,7  L 22,7  L 22,8  L 19,8  L 19,9  L 17,9  L 17,10  L 16,10  L 16,11  L 14,11  L 14,12  L 13,12  L 13,13  L 12,13  L 12,14  L 14,14  L 14,15  Z  " style="fill:rgb(212, 204, 195); fill-opacity:1.000; stroke:none;" />
 <path d="  M 33,47  L 33,46  L 22,46  L 22,47  L 24,47  L 24,48  L 25,48  L 25,49  L 26,49  L 26,50  L 27,50  L 27,52  L 28,52  L 28,54  L 30,54  L 30,53  L 32,53  L 32,52  L 35,52  L 35,49  L 34,49  L 34,47  Z  " style="fill:rgb(212, 204, 195); fill-opacity:1.000; stroke:none;" />
 <path d="  M 38,25  L 38,24  L 32,24  L 32,25  L 30,25  L 30,26  L 29,26  L 29,27  L 28,27  L 28,29  L 29,29  L 29,30  L 30,30  L 30,31  L 33,31  L 33,30  L 34,30  L 34,29  L 33,29  L 33,28  L 32,28  L 32,27  L 33,27  L 33,26  L 34,26  L 34,25  Z  " style="fill:rgb(212, 204, 195); fill-opacity:1.000; stroke:none;" />
 <path d="  M 49,14  L 49,13  L 48,13  L 48,12  L 46,12  L 46,11  L 44,11  L 44,10  L 43,10  L 43,9  L 41,9  L 41,8  L 38,8  L 38,7  L 35,7  L 35,6  L 32,6  L 32,7  L 33,7  L 33,9  L 34,9  L 34,11  L 35,11  L 35,14  L 36,14  L 36,16  L 37,16  L 37,17  L 38,17  L 38,18  L 40,18  L 40,19  L 42,19  L 42,20  L 43,20  L 43,19  L 44,19  L 44,18  L 45,18  L 45,17  L 47,17  L 47,16  L 51,16  L 51,15  L 50,15  L 50,14  Z  " style="fill:rgb(212, 204, 195); fill-opacity:1.000; stroke:none;" />
 <path d="  M 44,41  L 43,41  L 43,40  L 42,40  L 42,41  L 41,41  L 41,42  L 40,42  L 40,43  L 38,43  L 38,44  L 36,44  L 36,45  L 35,45  L 35,47  L 36,47  L 36,51  L 38,51  L 38,50  L 40,50  L 40,49  L 42,49  L 42,48  L 44,48  L 44,47  L 45,47  L 45,46  L 46,46  L 46,43  L 45,43  L 45,42  L 44,42  Z  " style="fill:rgb(212, 204, 195); fill-opacity:1.000; stroke:none;" />
 <path d="  M 37,34  L 37,35  L 38,35  L 38,34  Z  " style="fill:rgb(212, 204, 195); fill-opacity:1.000; stroke:none;" />
 <path d="  M 50,28  L 50,29  L 53,29  L 53,20  L 52,20  L 52,18  L 51,18  L 51,17  L 49,17  L 49,18  L 47,18  L 47,19  L 46,19  L 46,20  L 45,20  L 45,21  L 44,21  L 44,22  L 45,22  L 45,24  L 46,24  L 46,27  L 47,27  L 47,28  Z  " style="fill:rgb(212, 204, 195); fill-opacity:1.000; stroke:none;" />
 <path d="  M 45,38  L 44,38  L 44,39  L 45,39  L 45,40  L 46,40  L 46,41  L 47,41  L 47,43  L 49,43  L 49,42  L 50,42  L 50,40  L 51,40  L 51,38  L 52,38  L 52,35  L 53,35  L 53,31  L 51,31  L 51,30  L 48,30  L 48,29  L 47,29  L 47,34  L 46,34  L 46,36  L 45,36  Z  " style="fill:rgb(212, 204, 195); fill-opacity:1.000; stroke:none;" />
 <path d="  M 11,31  L 11,30  L 8,30  L 8,31  Z  " style="fill:rgb(212, 128, 128); fill-opacity:1.000; stroke:none;" />
 <path d="  M 14,32  L 14,31  L 11,31  L 11,32  Z  " style="fill:rgb(212, 128, 128); fill-opacity:1.000; stroke:none;" />
 <path d="  M 13,15  L 13,14  L 12,14  L 12,15  Z  " style="fill:rgb(212, 128, 128); fill-opacity:1.000; stroke:none;" />
 <path d="  M 16,16  L 16,15  L 13,15  L 13,16  Z  " style="fill:rgb(212, 128, 128); fill-opacity:1.000; stroke:none;" />
 <path d="  M 18,32  L 14,32  L 14,33  L 18,33  Z  " style="fill:rgb(212, 128, 128); fill-opacity:1.000; stroke:none;" />
 <path d="  M 16,17  L 18,17  L 18,16  L 16,16  Z  " style="fill:rgb(212, 128, 128); fill-opacity:1.000; stroke:none;" />
 <path d="  M 18,17  L 18,18  L 20,18  L 20,17  Z  " style="fill:rgb(212, 128, 128); fill-opacity:1.000; stroke:none;" />
 <path d="  M 33,8  L 32,8  L 32,10  L 33,10  Z  " style="fill:rgb(212, 128, 128); fill-opacity:1.000; stroke:none;" />
 <path d="  M 33,10  L 33,12  L 34,12  L 34,10  Z  " style="fill:rgb(212, 128, 128); fill-opacity:1.000; stroke:none;" />
 <path d="  M 35,12  L 34,12  L 34,14  L 35,14  Z  " style="fill:rgb(212, 128, 128); fill-opacity:1.000; stroke:none;" />
 <path d="  M 35,46  L 34,46  L 34,48  L 35,48  Z  " style="fill:rgb(212, 128, 128); fill-opacity:1.000; stroke:none;" />
 <path d="  M 35,49  L 36,49  L 36,48  L 35,48  Z  " style="fill:rgb(212, 128, 128); fill-opacity:1.000; stroke:none;" />
 <path d="  M 45,19  L 44,19  L 44,20  L 45,20  Z  " style="fill:rgb(212, 128, 128); fill-opacity:1.000; stroke:none;" />
 <path d="  M 45,18  L 45,19  L 46,19  L 46,18  Z  " style="fill:rgb(212, 128, 128); fill-opacity:1.000; stroke:none;" />
 <path d="  M 46,18  L 48,18  L 48,17  L 46,17  Z  " style="fill:rgb(212, 128, 128); fill-opacity:1.000; stroke:none;" />
 <path d="  M 46,42  L 46,44  L 47,44  L 47,42  Z  " style="fill:rgb(212, 128, 128); fill-opacity:1.000; stroke:none;" />
 <path d="  M 48,16  L 48,17  L 50,17  L 50,16  Z  " style="fill:rgb(212, 128, 128); fill-opacity:1.000; stroke:none;" />
 <path d="  M 52,30  L 52,29  L 50,29  L 50,30  Z  " style="fill:rgb(212, 128, 128); fill-opacity:1.000; stroke:none;" />
 <path d="  M 53,31  L 53,30  L 52,30  L 52,31  Z  " style="fill:rgb(212, 128, 128); fill-opacity:1.000; stroke:none;" />
 <path d="  M 9,52  L 10,52  L 10,53  L 11,53  L 11,54  L 18,54  L 18,53  L 20,53  L 20,52  L 22,52  L 22,51  L 23,51  L 23,50  L 26,50  L 26,49  L 25,49  L 25,48  L 24,48  L 24,47  L 22,47  L 22,46  L 14,46  L 14,47  L 11,47  L 11,48  L 10,48  L 10,50  L 9,50  Z  " style="fill:rgb(65, 60, 45); fill-opacity:1.000; stroke:none;" />
 <path d="  M 26,58  L 25,58  L 25,59  L 26,59  Z  " style="fill:rgb(65, 60, 45); fill-opacity:1.000; stroke:none;" />
 <path d="  M 26,50  L 26,52  L 27,52  L 27,50  Z  " style="fill:rgb(65, 60, 45); fill-opacity:1.000; stroke:none;" />
 <path d="  M 27,56  L 26,56  L 26,58  L 27,58  Z  " style="fill:rgb(65, 60, 45); fill-opacity:1.000; stroke:none;" />
 <path d="  M 28,52  L 27,52  L 27,56  L 28,56  Z  " style="fill:rgb(65, 60, 45); fill-opacity:1.000; stroke:none;" />
 <path d="  M 25,23  L 25,22  L 24,22  L 24,23  Z  " style="fill:rgb(174, 70, 53); fill-opacity:1.000; stroke:none;" />
 <path d="  M 26,31  L 24,31  L 24,32  L 26,32  Z  " style="fill:rgb(174, 70, 53); fill-opacity:1.000; stroke:none;" />
 <path d="  M 26,23  L 25,23  L 25,24  L 26,24  Z  " style="fill:rgb(174, 70, 53); fill-opacity:1.000; stroke:none;" />
 <path d="  M 26,26  L 27,26  L 27,24  L 26,24  Z  " style="fill:rgb(174, 70, 53); fill-opacity:1.000; stroke:none;" />
 <path d="  M 34,57  L 34,56  L 33,56  L 33,57  Z  " style="fill:rgb(174, 70, 53); fill-opacity:1.000; stroke:none;" />
 <path d="  M 34,56  L 35,56  L 35,54  L 34,54  Z  " style="fill:rgb(174, 70, 53); fill-opacity:1.000; stroke:none;" />
 <path d="  M 35,20  L 36,20  L 36,19  L 35,19  Z  " style="fill:rgb(174, 70, 53); fill-opacity:1.000; stroke:none;" />
 <path d="  M 43,39  L 43,38  L 42,38  L 42,39  Z  " style="fill:rgb(174, 70, 53); fill-opacity:1.000; stroke:none;" />
 <path d="  M 45,28  L 45,29  L 48,29  L 48,28  Z  " style="fill:rgb(174, 70, 53); fill-opacity:1.000; stroke:none;" />
 <path d="  M 48,49  L 49,49  L 49,48  L 48,48  Z  " style="fill:rgb(174, 70, 53); fill-opacity:1.000; stroke:none;" />
 <path d="  M 49,50  L 50,50  L 50,49  L 49,49  Z  " style="fill:rgb(174, 70, 53); fill-opacity:1.000; stroke:none;" />
 <path d="  M 52,16  L 52,17  L 53,17  L 53,16  Z  " style="fill:rgb(174, 70, 53); fill-opacity:1.000; stroke:none;" />
 <path d="  M 56,32  L 56,31  L 54,31  L 54,32  Z  " style="fill:rgb(174, 70, 53); fill-opacity:1.000; stroke:none;" />
 <path d="  M 33,57  L 32,57  L 32,58  L 33,58  Z  " style="fill:rgb(128, 65, 31); fill-opacity:1.000; stroke:none;" />
 <path d="  M 49,52  L 50,52  L 50,50  L 49,50  Z  " style="fill:rgb(128, 65, 31); fill-opacity:1.000; stroke:none;" />
 <path d="  M 56,33  L 57,33  L 57,32  L 56,32  Z  " style="fill:rgb(128, 65, 31); fill-opacity:1.000; stroke:none;" />
 <path d="  M 57,33  L 57,34  L 58,34  L 58,33  Z  " style="fill:rgb(128, 65, 31); fill-opacity:1.000; stroke:none;" />
</svg>
