<?xml version="1.0" encoding="UTF-8" standalone="no"?>
<!DOCTYPE svg PUBLIC "-//W3C//DTD SVG 1.1//EN" 
  "http://www.w3.org/Graphics/SVG/1.1/DTD/svg11.dtd">
<svg width="64" height="64"
	 xmlns="http://www.w3.org/2000/svg" version="1.1">
 <path d="  M 6,46  L 7,46  L 7,30  L 6,30  Z  " style="fill:rgb(171, 119, 92); fill-opacity:1.000; stroke:none;" />
 <path d="  M 7,28  L 7,30  L 8,30  L 8,28  Z  " style="fill:rgb(171, 119, 92); fill-opacity:1.000; stroke:none;" />
 <path d="  M 8,27  L 8,28  L 9,28  L 9,27  Z  " style="fill:rgb(171, 119, 92); fill-opacity:1.000; stroke:none;" />
 <path d="  M 9,27  L 10,27  L 10,26  L 9,26  Z  " style="fill:rgb(171, 119, 92); fill-opacity:1.000; stroke:none;" />
 <path d="  M 11,25  L 10,25  L 10,26  L 11,26  Z  " style="fill:rgb(171, 119, 92); fill-opacity:1.000; stroke:none;" />
 <path d="  M 11,25  L 12,25  L 12,24  L 11,24  Z  " style="fill:rgb(171, 119, 92); fill-opacity:1.000; stroke:none;" />
 <path d="  M 14,23  L 12,23  L 12,24  L 14,24  Z  " style="fill:rgb(171, 119, 92); fill-opacity:1.000; stroke:none;" />
 <path d="  M 14,22  L 14,23  L 16,23  L 16,22  Z  " style="fill:rgb(171, 119, 92); fill-opacity:1.000; stroke:none;" />
 <path d="  M 16,21  L 16,22  L 18,22  L 18,21  Z  " style="fill:rgb(171, 119, 92); fill-opacity:1.000; stroke:none;" />
 <path d="  M 20,20  L 18,20  L 18,21  L 20,21  Z  " style="fill:rgb(171, 119, 92); fill-opacity:1.000; stroke:none;" />
 <path d="  M 24,20  L 24,19  L 20,19  L 20,20  Z  " style="fill:rgb(171, 119, 92); fill-opacity:1.000; stroke:none;" />
 <path d="  M 24,18  L 24,19  L 40,19  L 40,18  Z  " style="fill:rgb(171, 119, 92); fill-opacity:1.000; stroke:none;" />
 <path d="  M 40,19  L 40,20  L 44,20  L 44,19  Z  " style="fill:rgb(171, 119, 92); fill-opacity:1.000; stroke:none;" />
 <path d="  M 44,20  L 44,21  L 46,21  L 46,20  Z  " style="fill:rgb(171, 119, 92); fill-opacity:1.000; stroke:none;" />
 <path d="  M 48,21  L 46,21  L 46,22  L 48,22  Z  " style="fill:rgb(171, 119, 92); fill-opacity:1.000; stroke:none;" />
 <path d="  M 50,23  L 50,22  L 48,22  L 48,23  Z  " style="fill:rgb(171, 119, 92); fill-opacity:1.000; stroke:none;" />
 <path d="  M 52,24  L 52,23  L 50,23  L 50,24  Z  " style="fill:rgb(171, 119, 92); fill-opacity:1.000; stroke:none;" />
 <path d="  M 53,24  L 52,24  L 52,25  L 53,25  Z  " style="fill:rgb(171, 119, 92); fill-opacity:1.000; stroke:none;" />
 <path d="  M 54,25  L 53,25  L 53,26  L 54,26  Z  " style="fill:rgb(171, 119, 92); fill-opacity:1.000; stroke:none;" />
 <path d="  M 55,26  L 54,26  L 54,27  L 55,27  Z  " style="fill:rgb(171, 119, 92); fill-opacity:1.000; stroke:none;" />
 <path d="  M 55,27  L 55,28  L 56,28  L 56,27  Z  " style="fill:rgb(171, 119, 92); fill-opacity:1.000; stroke:none;" />
 <path d="  M 56,30  L 57,30  L 57,28  L 56,28  Z  " style="fill:rgb(171, 119, 92); fill-opacity:1.000; stroke:none;" />
 <path d="  M 8,30  L 7,30  L 7,37  L 8,37  Z  " style="fill:rgb(234, 181, 99); fill-opacity:1.000; stroke:none;" />
 <path d="  M 8,28  L 8,30  L 9,30  L 9,28  Z  " style="fill:rgb(234, 181, 99); fill-opacity:1.000; stroke:none;" />
 <path d="  M 10,27  L 9,27  L 9,28  L 10,28  Z  " style="fill:rgb(234, 181, 99); fill-opacity:1.000; stroke:none;" />
 <path d="  M 11,26  L 10,26  L 10,27  L 11,27  Z  " style="fill:rgb(234, 181, 99); fill-opacity:1.000; stroke:none;" />
 <path d="  M 12,25  L 11,25  L 11,26  L 12,26  Z  " style="fill:rgb(234, 181, 99); fill-opacity:1.000; stroke:none;" />
 <path d="  M 13,24  L 13,25  L 14,25  L 14,24  Z  " style="fill:rgb(234, 181, 99); fill-opacity:1.000; stroke:none;" />
 <path d="  M 42,56  L 42,55  L 45,55  L 45,54  L 47,54  L 47,53  L 49,53  L 49,52  L 51,52  L 51,51  L 52,51  L 52,50  L 53,50  L 53,49  L 54,49  L 54,48  L 55,48  L 55,47  L 56,47  L 56,45  L 57,45  L 57,30  L 56,30  L 56,34  L 55,34  L 55,36  L 54,36  L 54,37  L 53,37  L 53,38  L 52,38  L 52,39  L 51,39  L 51,40  L 50,40  L 50,41  L 48,41  L 48,42  L 46,42  L 46,43  L 43,43  L 43,44  L 40,44  L 40,45  L 37,45  L 37,46  L 26,46  L 26,56  L 27,56  L 27,57  L 38,57  L 38,56  Z  " style="fill:rgb(234, 181, 99); fill-opacity:1.000; stroke:none;" />
 <path d="  M 29,19  L 29,20  L 40,20  L 40,19  Z  " style="fill:rgb(234, 181, 99); fill-opacity:1.000; stroke:none;" />
 <path d="  M 44,21  L 44,20  L 40,20  L 40,21  Z  " style="fill:rgb(234, 181, 99); fill-opacity:1.000; stroke:none;" />
 <path d="  M 46,22  L 46,21  L 44,21  L 44,22  Z  " style="fill:rgb(234, 181, 99); fill-opacity:1.000; stroke:none;" />
 <path d="  M 46,22  L 46,23  L 48,23  L 48,22  Z  " style="fill:rgb(234, 181, 99); fill-opacity:1.000; stroke:none;" />
 <path d="  M 50,24  L 50,23  L 48,23  L 48,24  Z  " style="fill:rgb(234, 181, 99); fill-opacity:1.000; stroke:none;" />
 <path d="  M 52,24  L 50,24  L 50,25  L 52,25  Z  " style="fill:rgb(234, 181, 99); fill-opacity:1.000; stroke:none;" />
 <path d="  M 53,25  L 52,25  L 52,26  L 53,26  Z  " style="fill:rgb(234, 181, 99); fill-opacity:1.000; stroke:none;" />
 <path d="  M 53,27  L 54,27  L 54,26  L 53,26  Z  " style="fill:rgb(234, 181, 99); fill-opacity:1.000; stroke:none;" />
 <path d="  M 54,27  L 54,28  L 55,28  L 55,27  Z  " style="fill:rgb(234, 181, 99); fill-opacity:1.000; stroke:none;" />
 <path d="  M 55,30  L 56,30  L 56,28  L 55,28  Z  " style="fill:rgb(234, 181, 99); fill-opacity:1.000; stroke:none;" />
 <path d="  M 27,34  L 24,34  L 24,35  L 20,35  L 20,36  L 16,36  L 16,37  L 12,37  L 12,38  L 8,38  L 8,37  L 7,37  L 7,45  L 8,45  L 8,47  L 9,47  L 9,48  L 10,48  L 10,49  L 15,49  L 15,48  L 18,48  L 18,47  L 20,47  L 20,46  L 23,46  L 23,45  L 24,45  L 24,44  L 26,44  L 26,43  L 27,43  L 27,42  L 28,42  L 28,41  L 29,41  L 29,40  L 30,40  L 30,39  L 31,39  L 31,38  L 32,38  L 32,37  L 33,37  L 33,36  L 34,36  L 34,35  L 35,35  L 35,33  L 34,33  L 34,32  L 30,32  L 30,33  L 27,33  Z  " style="fill:rgb(219, 116, 34); fill-opacity:1.000; stroke:none;" />
 <path d="  M 7,45  L 7,46  L 8,46  L 8,45  Z  " style="fill:rgb(183, 92, 18); fill-opacity:1.000; stroke:none;" />
 <path d="  M 8,47  L 8,48  L 9,48  L 9,47  Z  " style="fill:rgb(183, 92, 18); fill-opacity:1.000; stroke:none;" />
 <path d="  M 10,48  L 9,48  L 9,49  L 10,49  Z  " style="fill:rgb(183, 92, 18); fill-opacity:1.000; stroke:none;" />
 <path d="  M 17,49  L 17,48  L 15,48  L 15,49  Z  " style="fill:rgb(183, 92, 18); fill-opacity:1.000; stroke:none;" />
 <path d="  M 19,48  L 19,47  L 18,47  L 18,48  Z  " style="fill:rgb(183, 92, 18); fill-opacity:1.000; stroke:none;" />
 <path d="  M 20,46  L 20,47  L 21,47  L 21,46  Z  " style="fill:rgb(183, 92, 18); fill-opacity:1.000; stroke:none;" />
 <path d="  M 24,46  L 24,45  L 23,45  L 23,46  Z  " style="fill:rgb(183, 92, 18); fill-opacity:1.000; stroke:none;" />
 <path d="  M 24,45  L 25,45  L 25,44  L 24,44  Z  " style="fill:rgb(183, 92, 18); fill-opacity:1.000; stroke:none;" />
 <path d="  M 7,48  L 8,48  L 8,46  L 7,46  Z  " style="fill:rgb(119, 86, 31); fill-opacity:1.000; stroke:none;" />
 <path d="  M 8,49  L 9,49  L 9,48  L 8,48  Z  " style="fill:rgb(119, 86, 31); fill-opacity:1.000; stroke:none;" />
 <path d="  M 9,49  L 9,50  L 18,50  L 18,49  Z  " style="fill:rgb(119, 86, 31); fill-opacity:1.000; stroke:none;" />
 <path d="  M 20,48  L 18,48  L 18,49  L 20,49  Z  " style="fill:rgb(119, 86, 31); fill-opacity:1.000; stroke:none;" />
 <path d="  M 20,47  L 20,48  L 22,48  L 22,47  Z  " style="fill:rgb(119, 86, 31); fill-opacity:1.000; stroke:none;" />
 <path d="  M 25,56  L 25,46  L 22,46  L 22,47  L 24,47  L 24,56  Z  " style="fill:rgb(119, 86, 31); fill-opacity:1.000; stroke:none;" />
 <path d="  M 26,56  L 25,56  L 25,57  L 26,57  Z  " style="fill:rgb(119, 86, 31); fill-opacity:1.000; stroke:none;" />
 <path d="  M 26,57  L 26,58  L 40,58  L 40,57  Z  " style="fill:rgb(119, 86, 31); fill-opacity:1.000; stroke:none;" />
 <path d="  M 40,56  L 40,57  L 44,57  L 44,56  Z  " style="fill:rgb(119, 86, 31); fill-opacity:1.000; stroke:none;" />
 <path d="  M 44,55  L 44,56  L 46,56  L 46,55  Z  " style="fill:rgb(119, 86, 31); fill-opacity:1.000; stroke:none;" />
 <path d="  M 48,55  L 48,54  L 46,54  L 46,55  Z  " style="fill:rgb(119, 86, 31); fill-opacity:1.000; stroke:none;" />
 <path d="  M 50,54  L 50,53  L 48,53  L 48,54  Z  " style="fill:rgb(119, 86, 31); fill-opacity:1.000; stroke:none;" />
 <path d="  M 52,53  L 52,52  L 50,52  L 50,53  Z  " style="fill:rgb(119, 86, 31); fill-opacity:1.000; stroke:none;" />
 <path d="  M 53,51  L 52,51  L 52,52  L 53,52  Z  " style="fill:rgb(119, 86, 31); fill-opacity:1.000; stroke:none;" />
 <path d="  M 54,50  L 53,50  L 53,51  L 54,51  Z  " style="fill:rgb(119, 86, 31); fill-opacity:1.000; stroke:none;" />
 <path d="  M 54,50  L 55,50  L 55,49  L 54,49  Z  " style="fill:rgb(119, 86, 31); fill-opacity:1.000; stroke:none;" />
 <path d="  M 55,49  L 56,49  L 56,48  L 55,48  Z  " style="fill:rgb(119, 86, 31); fill-opacity:1.000; stroke:none;" />
 <path d="  M 56,48  L 57,48  L 57,46  L 56,46  Z  " style="fill:rgb(119, 86, 31); fill-opacity:1.000; stroke:none;" />
 <path d="  M 58,30  L 57,30  L 57,46  L 58,46  Z  " style="fill:rgb(119, 86, 31); fill-opacity:1.000; stroke:none;" />
 <path d="  M 9,30  L 8,30  L 8,31  L 9,31  Z  " style="fill:rgb(234, 158, 96); fill-opacity:1.000; stroke:none;" />
 <path d="  M 8,36  L 8,37  L 9,37  L 9,36  Z  " style="fill:rgb(234, 158, 96); fill-opacity:1.000; stroke:none;" />
 <path d="  M 9,29  L 10,29  L 10,28  L 9,28  Z  " style="fill:rgb(234, 158, 96); fill-opacity:1.000; stroke:none;" />
 <path d="  M 10,27  L 10,28  L 11,28  L 11,27  Z  " style="fill:rgb(234, 158, 96); fill-opacity:1.000; stroke:none;" />
 <path d="  M 10,37  L 12,37  L 12,36  L 10,36  Z  " style="fill:rgb(234, 158, 96); fill-opacity:1.000; stroke:none;" />
 <path d="  M 12,26  L 11,26  L 11,27  L 12,27  Z  " style="fill:rgb(234, 158, 96); fill-opacity:1.000; stroke:none;" />
 <path d="  M 13,25  L 12,25  L 12,26  L 13,26  Z  " style="fill:rgb(234, 158, 96); fill-opacity:1.000; stroke:none;" />
 <path d="  M 14,24  L 14,25  L 15,25  L 15,24  Z  " style="fill:rgb(234, 158, 96); fill-opacity:1.000; stroke:none;" />
 <path d="  M 14,36  L 16,36  L 16,35  L 14,35  Z  " style="fill:rgb(234, 158, 96); fill-opacity:1.000; stroke:none;" />
 <path d="  M 17,24  L 17,23  L 16,23  L 16,24  Z  " style="fill:rgb(234, 158, 96); fill-opacity:1.000; stroke:none;" />
 <path d="  M 18,23  L 19,23  L 19,22  L 18,22  Z  " style="fill:rgb(234, 158, 96); fill-opacity:1.000; stroke:none;" />
 <path d="  M 18,34  L 18,35  L 20,35  L 20,34  Z  " style="fill:rgb(234, 158, 96); fill-opacity:1.000; stroke:none;" />
 <path d="  M 20,21  L 20,22  L 22,22  L 22,21  Z  " style="fill:rgb(234, 158, 96); fill-opacity:1.000; stroke:none;" />
 <path d="  M 24,33  L 22,33  L 22,34  L 24,34  Z  " style="fill:rgb(234, 158, 96); fill-opacity:1.000; stroke:none;" />
 <path d="  M 26,20  L 24,20  L 24,21  L 26,21  Z  " style="fill:rgb(234, 158, 96); fill-opacity:1.000; stroke:none;" />
 <path d="  M 25,32  L 25,33  L 27,33  L 27,32  Z  " style="fill:rgb(234, 158, 96); fill-opacity:1.000; stroke:none;" />
 <path d="  M 26,44  L 26,45  L 27,45  L 27,44  Z  " style="fill:rgb(234, 158, 96); fill-opacity:1.000; stroke:none;" />
 <path d="  M 28,44  L 28,43  L 27,43  L 27,44  Z  " style="fill:rgb(234, 158, 96); fill-opacity:1.000; stroke:none;" />
 <path d="  M 28,31  L 28,32  L 30,32  L 30,31  Z  " style="fill:rgb(234, 158, 96); fill-opacity:1.000; stroke:none;" />
 <path d="  M 29,43  L 29,42  L 28,42  L 28,43  Z  " style="fill:rgb(234, 158, 96); fill-opacity:1.000; stroke:none;" />
 <path d="  M 30,42  L 30,41  L 29,41  L 29,42  Z  " style="fill:rgb(234, 158, 96); fill-opacity:1.000; stroke:none;" />
 <path d="  M 34,31  L 34,30  L 30,30  L 30,31  Z  " style="fill:rgb(234, 158, 96); fill-opacity:1.000; stroke:none;" />
 <path d="  M 31,41  L 31,40  L 30,40  L 30,41  Z  " style="fill:rgb(234, 158, 96); fill-opacity:1.000; stroke:none;" />
 <path d="  M 32,40  L 32,39  L 31,39  L 31,40  Z  " style="fill:rgb(234, 158, 96); fill-opacity:1.000; stroke:none;" />
 <path d="  M 33,39  L 33,38  L 32,38  L 32,39  Z  " style="fill:rgb(234, 158, 96); fill-opacity:1.000; stroke:none;" />
 <path d="  M 34,37  L 33,37  L 33,38  L 34,38  Z  " style="fill:rgb(234, 158, 96); fill-opacity:1.000; stroke:none;" />
 <path d="  M 35,32  L 35,31  L 34,31  L 34,32  Z  " style="fill:rgb(234, 158, 96); fill-opacity:1.000; stroke:none;" />
 <path d="  M 34,37  L 35,37  L 35,36  L 34,36  Z  " style="fill:rgb(234, 158, 96); fill-opacity:1.000; stroke:none;" />
 <path d="  M 36,32  L 35,32  L 35,33  L 36,33  Z  " style="fill:rgb(234, 158, 96); fill-opacity:1.000; stroke:none;" />
 <path d="  M 36,35  L 35,35  L 35,36  L 36,36  Z  " style="fill:rgb(234, 158, 96); fill-opacity:1.000; stroke:none;" />
 <path d="  M 37,45  L 37,44  L 35,44  L 35,45  Z  " style="fill:rgb(234, 158, 96); fill-opacity:1.000; stroke:none;" />
 <path d="  M 36,33  L 36,35  L 37,35  L 37,33  Z  " style="fill:rgb(234, 158, 96); fill-opacity:1.000; stroke:none;" />
 <path d="  M 40,20  L 38,20  L 38,21  L 40,21  Z  " style="fill:rgb(234, 158, 96); fill-opacity:1.000; stroke:none;" />
 <path d="  M 40,43  L 38,43  L 38,44  L 40,44  Z  " style="fill:rgb(234, 158, 96); fill-opacity:1.000; stroke:none;" />
 <path d="  M 43,42  L 41,42  L 41,43  L 43,43  Z  " style="fill:rgb(234, 158, 96); fill-opacity:1.000; stroke:none;" />
 <path d="  M 44,22  L 44,21  L 42,21  L 42,22  Z  " style="fill:rgb(234, 158, 96); fill-opacity:1.000; stroke:none;" />
 <path d="  M 44,42  L 46,42  L 46,41  L 44,41  Z  " style="fill:rgb(234, 158, 96); fill-opacity:1.000; stroke:none;" />
 <path d="  M 45,22  L 45,23  L 46,23  L 46,22  Z  " style="fill:rgb(234, 158, 96); fill-opacity:1.000; stroke:none;" />
 <path d="  M 48,24  L 48,23  L 47,23  L 47,24  Z  " style="fill:rgb(234, 158, 96); fill-opacity:1.000; stroke:none;" />
 <path d="  M 48,41  L 48,40  L 47,40  L 47,41  Z  " style="fill:rgb(234, 158, 96); fill-opacity:1.000; stroke:none;" />
 <path d="  M 49,25  L 50,25  L 50,24  L 49,24  Z  " style="fill:rgb(234, 158, 96); fill-opacity:1.000; stroke:none;" />
 <path d="  M 49,40  L 50,40  L 50,39  L 49,39  Z  " style="fill:rgb(234, 158, 96); fill-opacity:1.000; stroke:none;" />
 <path d="  M 50,38  L 50,39  L 51,39  L 51,38  Z  " style="fill:rgb(234, 158, 96); fill-opacity:1.000; stroke:none;" />
 <path d="  M 52,26  L 52,25  L 51,25  L 51,26  Z  " style="fill:rgb(234, 158, 96); fill-opacity:1.000; stroke:none;" />
 <path d="  M 52,37  L 51,37  L 51,38  L 52,38  Z  " style="fill:rgb(234, 158, 96); fill-opacity:1.000; stroke:none;" />
 <path d="  M 52,26  L 52,27  L 53,27  L 53,26  Z  " style="fill:rgb(234, 158, 96); fill-opacity:1.000; stroke:none;" />
 <path d="  M 52,36  L 52,37  L 53,37  L 53,36  Z  " style="fill:rgb(234, 158, 96); fill-opacity:1.000; stroke:none;" />
 <path d="  M 53,27  L 53,28  L 54,28  L 54,27  Z  " style="fill:rgb(234, 158, 96); fill-opacity:1.000; stroke:none;" />
 <path d="  M 53,35  L 53,36  L 54,36  L 54,35  Z  " style="fill:rgb(234, 158, 96); fill-opacity:1.000; stroke:none;" />
 <path d="  M 55,29  L 55,28  L 54,28  L 54,29  Z  " style="fill:rgb(234, 158, 96); fill-opacity:1.000; stroke:none;" />
 <path d="  M 54,34  L 55,34  L 55,33  L 54,33  Z  " style="fill:rgb(234, 158, 96); fill-opacity:1.000; stroke:none;" />
 <path d="  M 14,36  L 14,35  L 18,35  L 18,34  L 22,34  L 22,33  L 25,33  L 25,32  L 28,32  L 28,31  L 30,31  L 30,30  L 34,30  L 34,31  L 35,31  L 35,32  L 36,32  L 36,33  L 37,33  L 37,35  L 36,35  L 36,36  L 35,36  L 35,37  L 34,37  L 34,38  L 33,38  L 33,39  L 32,39  L 32,40  L 31,40  L 31,41  L 30,41  L 30,42  L 29,42  L 29,43  L 28,43  L 28,44  L 27,44  L 27,45  L 35,45  L 35,44  L 38,44  L 38,43  L 41,43  L 41,42  L 44,42  L 44,41  L 47,41  L 47,40  L 49,40  L 49,39  L 50,39  L 50,38  L 51,38  L 51,37  L 52,37  L 52,36  L 53,36  L 53,35  L 54,35  L 54,33  L 55,33  L 55,29  L 54,29  L 54,28  L 53,28  L 53,27  L 52,27  L 52,26  L 51,26  L 51,25  L 49,25  L 49,24  L 47,24  L 47,23  L 45,23  L 45,22  L 42,22  L 42,21  L 38,21  L 38,20  L 26,20  L 26,21  L 22,21  L 22,22  L 19,22  L 19,23  L 17,23  L 17,24  L 15,24  L 15,25  L 13,25  L 13,26  L 12,26  L 12,27  L 11,27  L 11,28  L 10,28  L 10,29  L 9,29  L 9,31  L 8,31  L 8,36  L 9,36  L 9,37  L 10,37  L 10,36  Z  " style="fill:rgb(216, 139, 80); fill-opacity:1.000; stroke:none;" />
 <path d="  M 10,38  L 10,37  L 8,37  L 8,38  Z  " style="fill:rgb(238, 172, 110); fill-opacity:1.000; stroke:none;" />
 <path d="  M 12,37  L 14,37  L 14,36  L 12,36  Z  " style="fill:rgb(238, 172, 110); fill-opacity:1.000; stroke:none;" />
 <path d="  M 18,36  L 18,35  L 16,35  L 16,36  Z  " style="fill:rgb(238, 172, 110); fill-opacity:1.000; stroke:none;" />
 <path d="  M 22,35  L 22,34  L 20,34  L 20,35  Z  " style="fill:rgb(238, 172, 110); fill-opacity:1.000; stroke:none;" />
 <path d="  M 25,34  L 25,33  L 24,33  L 24,34  Z  " style="fill:rgb(238, 172, 110); fill-opacity:1.000; stroke:none;" />
 <path d="  M 27,44  L 27,43  L 26,43  L 26,44  Z  " style="fill:rgb(238, 172, 110); fill-opacity:1.000; stroke:none;" />
 <path d="  M 27,32  L 27,33  L 28,33  L 28,32  Z  " style="fill:rgb(238, 172, 110); fill-opacity:1.000; stroke:none;" />
 <path d="  M 28,42  L 27,42  L 27,43  L 28,43  Z  " style="fill:rgb(238, 172, 110); fill-opacity:1.000; stroke:none;" />
 <path d="  M 34,32  L 34,31  L 30,31  L 30,32  Z  " style="fill:rgb(238, 172, 110); fill-opacity:1.000; stroke:none;" />
 <path d="  M 30,39  L 30,40  L 31,40  L 31,39  Z  " style="fill:rgb(238, 172, 110); fill-opacity:1.000; stroke:none;" />
 <path d="  M 32,39  L 32,38  L 31,38  L 31,39  Z  " style="fill:rgb(238, 172, 110); fill-opacity:1.000; stroke:none;" />
 <path d="  M 33,37  L 32,37  L 32,38  L 33,38  Z  " style="fill:rgb(238, 172, 110); fill-opacity:1.000; stroke:none;" />
 <path d="  M 33,37  L 34,37  L 34,36  L 33,36  Z  " style="fill:rgb(238, 172, 110); fill-opacity:1.000; stroke:none;" />
 <path d="  M 34,33  L 35,33  L 35,32  L 34,32  Z  " style="fill:rgb(238, 172, 110); fill-opacity:1.000; stroke:none;" />
 <path d="  M 35,35  L 34,35  L 34,36  L 35,36  Z  " style="fill:rgb(238, 172, 110); fill-opacity:1.000; stroke:none;" />
 <path d="  M 36,33  L 35,33  L 35,35  L 36,35  Z  " style="fill:rgb(238, 172, 110); fill-opacity:1.000; stroke:none;" />
 <path d="  M 10,37  L 10,38  L 12,38  L 12,37  Z  " style="fill:rgb(241, 184, 123); fill-opacity:1.000; stroke:none;" />
 <path d="  M 14,37  L 16,37  L 16,36  L 14,36  Z  " style="fill:rgb(241, 184, 123); fill-opacity:1.000; stroke:none;" />
 <path d="  M 20,36  L 20,35  L 18,35  L 18,36  Z  " style="fill:rgb(241, 184, 123); fill-opacity:1.000; stroke:none;" />
 <path d="  M 22,35  L 24,35  L 24,34  L 22,34  Z  " style="fill:rgb(241, 184, 123); fill-opacity:1.000; stroke:none;" />
 <path d="  M 27,34  L 27,33  L 25,33  L 25,34  Z  " style="fill:rgb(241, 184, 123); fill-opacity:1.000; stroke:none;" />
 <path d="  M 28,33  L 30,33  L 30,32  L 28,32  Z  " style="fill:rgb(241, 184, 123); fill-opacity:1.000; stroke:none;" />
 <path d="  M 28,41  L 28,42  L 29,42  L 29,41  Z  " style="fill:rgb(241, 184, 123); fill-opacity:1.000; stroke:none;" />
 <path d="  M 29,40  L 29,41  L 30,41  L 30,40  Z  " style="fill:rgb(241, 184, 123); fill-opacity:1.000; stroke:none;" />
 <path d="  M 13,25  L 13,24  L 12,24  L 12,25  Z  " style="fill:rgb(254, 204, 126); fill-opacity:1.000; stroke:none;" />
 <path d="  M 14,24  L 16,24  L 16,23  L 14,23  Z  " style="fill:rgb(254, 204, 126); fill-opacity:1.000; stroke:none;" />
 <path d="  M 16,22  L 16,23  L 18,23  L 18,22  Z  " style="fill:rgb(254, 204, 126); fill-opacity:1.000; stroke:none;" />
 <path d="  M 18,21  L 18,22  L 20,22  L 20,21  Z  " style="fill:rgb(254, 204, 126); fill-opacity:1.000; stroke:none;" />
 <path d="  M 20,21  L 24,21  L 24,20  L 20,20  Z  " style="fill:rgb(254, 204, 126); fill-opacity:1.000; stroke:none;" />
 <path d="  M 24,19  L 24,20  L 29,20  L 29,19  Z  " style="fill:rgb(254, 204, 126); fill-opacity:1.000; stroke:none;" />
 <path d="  M 25,45  L 25,46  L 37,46  L 37,45  Z  " style="fill:rgb(254, 204, 126); fill-opacity:1.000; stroke:none;" />
 <path d="  M 37,44  L 37,45  L 40,45  L 40,44  Z  " style="fill:rgb(254, 204, 126); fill-opacity:1.000; stroke:none;" />
 <path d="  M 43,44  L 43,43  L 40,43  L 40,44  Z  " style="fill:rgb(254, 204, 126); fill-opacity:1.000; stroke:none;" />
 <path d="  M 46,43  L 46,42  L 43,42  L 43,43  Z  " style="fill:rgb(254, 204, 126); fill-opacity:1.000; stroke:none;" />
 <path d="  M 48,41  L 46,41  L 46,42  L 48,42  Z  " style="fill:rgb(254, 204, 126); fill-opacity:1.000; stroke:none;" />
 <path d="  M 48,40  L 48,41  L 50,41  L 50,40  Z  " style="fill:rgb(254, 204, 126); fill-opacity:1.000; stroke:none;" />
 <path d="  M 50,39  L 50,40  L 51,40  L 51,39  Z  " style="fill:rgb(254, 204, 126); fill-opacity:1.000; stroke:none;" />
 <path d="  M 52,39  L 52,38  L 51,38  L 51,39  Z  " style="fill:rgb(254, 204, 126); fill-opacity:1.000; stroke:none;" />
 <path d="  M 53,37  L 52,37  L 52,38  L 53,38  Z  " style="fill:rgb(254, 204, 126); fill-opacity:1.000; stroke:none;" />
 <path d="  M 54,37  L 54,36  L 53,36  L 53,37  Z  " style="fill:rgb(254, 204, 126); fill-opacity:1.000; stroke:none;" />
 <path d="  M 55,34  L 54,34  L 54,36  L 55,36  Z  " style="fill:rgb(254, 204, 126); fill-opacity:1.000; stroke:none;" />
 <path d="  M 55,34  L 56,34  L 56,30  L 55,30  Z  " style="fill:rgb(254, 204, 126); fill-opacity:1.000; stroke:none;" />
 <path d="  M 18,49  L 18,48  L 17,48  L 17,49  Z  " style="fill:rgb(164, 84, 19); fill-opacity:1.000; stroke:none;" />
 <path d="  M 19,47  L 19,48  L 20,48  L 20,47  Z  " style="fill:rgb(164, 84, 19); fill-opacity:1.000; stroke:none;" />
 <path d="  M 21,47  L 22,47  L 22,46  L 21,46  Z  " style="fill:rgb(164, 84, 19); fill-opacity:1.000; stroke:none;" />
 <path d="  M 24,45  L 24,46  L 25,46  L 25,45  Z  " style="fill:rgb(164, 84, 19); fill-opacity:1.000; stroke:none;" />
 <path d="  M 25,45  L 26,45  L 26,44  L 25,44  Z  " style="fill:rgb(164, 84, 19); fill-opacity:1.000; stroke:none;" />
 <path d="  M 26,46  L 25,46  L 25,56  L 26,56  Z  " style="fill:rgb(213, 159, 75); fill-opacity:1.000; stroke:none;" />
 <path d="  M 27,56  L 26,56  L 26,57  L 27,57  Z  " style="fill:rgb(213, 159, 75); fill-opacity:1.000; stroke:none;" />
 <path d="  M 40,57  L 40,56  L 38,56  L 38,57  Z  " style="fill:rgb(213, 159, 75); fill-opacity:1.000; stroke:none;" />
 <path d="  M 42,55  L 42,56  L 44,56  L 44,55  Z  " style="fill:rgb(213, 159, 75); fill-opacity:1.000; stroke:none;" />
 <path d="  M 46,54  L 45,54  L 45,55  L 46,55  Z  " style="fill:rgb(213, 159, 75); fill-opacity:1.000; stroke:none;" />
 <path d="  M 47,54  L 48,54  L 48,53  L 47,53  Z  " style="fill:rgb(213, 159, 75); fill-opacity:1.000; stroke:none;" />
 <path d="  M 49,53  L 50,53  L 50,52  L 49,52  Z  " style="fill:rgb(213, 159, 75); fill-opacity:1.000; stroke:none;" />
 <path d="  M 52,51  L 51,51  L 51,52  L 52,52  Z  " style="fill:rgb(213, 159, 75); fill-opacity:1.000; stroke:none;" />
 <path d="  M 52,50  L 52,51  L 53,51  L 53,50  Z  " style="fill:rgb(213, 159, 75); fill-opacity:1.000; stroke:none;" />
 <path d="  M 53,49  L 53,50  L 54,50  L 54,49  Z  " style="fill:rgb(213, 159, 75); fill-opacity:1.000; stroke:none;" />
 <path d="  M 55,48  L 54,48  L 54,49  L 55,49  Z  " style="fill:rgb(213, 159, 75); fill-opacity:1.000; stroke:none;" />
 <path d="  M 56,48  L 56,47  L 55,47  L 55,48  Z  " style="fill:rgb(213, 159, 75); fill-opacity:1.000; stroke:none;" />
 <path d="  M 57,45  L 56,45  L 56,46  L 57,46  Z  " style="fill:rgb(213, 159, 75); fill-opacity:1.000; stroke:none;" />
</svg>
