<?xml version="1.0" encoding="UTF-8" standalone="no"?>
<!DOCTYPE svg PUBLIC "-//W3C//DTD SVG 1.1//EN" 
  "http://www.w3.org/Graphics/SVG/1.1/DTD/svg11.dtd">
<svg width="64" height="64"
	 xmlns="http://www.w3.org/2000/svg" version="1.1">
 <path d="  M 13,42  L 12,42  L 12,43  L 13,43  Z  " style="fill:rgb(200, 212, 170); fill-opacity:1.000; stroke:none;" />
 <path d="  M 17,42  L 18,42  L 18,41  L 16,41  L 16,38  L 15,38  L 15,39  L 14,39  L 14,40  L 15,40  L 15,41  L 14,41  L 14,43  L 13,43  L 13,44  L 16,44  L 16,43  L 17,43  Z  M 16,43  L 15,43  L 15,42  L 16,42  Z  " style="fill:rgb(200, 212, 170); fill-opacity:1.000; stroke:none;" />
 <path d="  M 17,29  L 17,28  L 16,28  L 16,30  L 18,30  L 18,29  Z  " style="fill:rgb(200, 212, 170); fill-opacity:1.000; stroke:none;" />
 <path d="  M 18,30  L 18,33  L 19,33  L 19,32  L 20,32  L 20,31  L 21,31  L 21,30  Z  " style="fill:rgb(200, 212, 170); fill-opacity:1.000; stroke:none;" />
 <path d="  M 26,22  L 26,21  L 24,21  L 24,19  L 23,19  L 23,18  L 22,18  L 22,17  L 21,17  L 21,18  L 20,18  L 20,19  L 22,19  L 22,22  L 21,22  L 21,23  L 23,23  L 23,24  L 25,24  L 25,22  Z  M 24,22  L 24,23  L 23,23  L 23,22  Z  " style="fill:rgb(200, 212, 170); fill-opacity:1.000; stroke:none;" />
 <path d="  M 21,24  L 21,23  L 20,23  L 20,24  Z  " style="fill:rgb(200, 212, 170); fill-opacity:1.000; stroke:none;" />
 <path d="  M 29,48  L 29,47  L 28,47  L 28,48  Z  " style="fill:rgb(200, 212, 170); fill-opacity:1.000; stroke:none;" />
 <path d="  M 31,46  L 31,45  L 30,45  L 30,46  Z  " style="fill:rgb(200, 212, 170); fill-opacity:1.000; stroke:none;" />
 <path d="  M 31,47  L 30,47  L 30,48  L 31,48  Z  " style="fill:rgb(200, 212, 170); fill-opacity:1.000; stroke:none;" />
 <path d="  M 34,44  L 33,44  L 33,42  L 32,42  L 32,44  L 31,44  L 31,45  L 32,45  L 32,46  L 31,46  L 31,47  L 33,47  L 33,46  L 34,46  Z  " style="fill:rgb(200, 212, 170); fill-opacity:1.000; stroke:none;" />
 <path d="  M 32,32  L 34,32  L 34,30  L 33,30  L 33,31  L 32,31  Z  " style="fill:rgb(200, 212, 170); fill-opacity:1.000; stroke:none;" />
 <path d="  M 35,33  L 36,33  L 36,32  L 37,32  L 37,33  L 39,33  L 39,32  L 40,32  L 40,31  L 39,31  L 39,30  L 40,30  L 40,28  L 38,28  L 38,29  L 37,29  L 37,30  L 36,30  L 36,31  L 35,31  L 35,32  L 34,32  L 34,34  L 35,34  Z  " style="fill:rgb(200, 212, 170); fill-opacity:1.000; stroke:none;" />
 <path d="  M 41,31  L 41,30  L 40,30  L 40,31  Z  " style="fill:rgb(200, 212, 170); fill-opacity:1.000; stroke:none;" />
 <path d="  M 42,30  L 42,29  L 41,29  L 41,30  Z  " style="fill:rgb(200, 212, 170); fill-opacity:1.000; stroke:none;" />
 <path d="  M 46,43  L 46,42  L 44,42  L 44,44  L 45,44  L 45,43  Z  " style="fill:rgb(200, 212, 170); fill-opacity:1.000; stroke:none;" />
 <path d="  M 46,44  L 45,44  L 45,45  L 46,45  Z  " style="fill:rgb(200, 212, 170); fill-opacity:1.000; stroke:none;" />
 <path d="  M 48,42  L 49,42  L 49,43  L 50,43  L 50,44  L 51,44  L 51,43  L 52,43  L 52,42  L 53,42  L 53,41  L 54,41  L 54,40  L 53,40  L 53,38  L 52,38  L 52,40  L 47,40  L 47,41  L 46,41  L 46,42  L 47,42  L 47,43  L 48,43  Z  " style="fill:rgb(200, 212, 170); fill-opacity:1.000; stroke:none;" />
 <path d="  M 48,27  L 49,27  L 49,26  L 48,26  Z  " style="fill:rgb(200, 212, 170); fill-opacity:1.000; stroke:none;" />
 <path d="  M 48,44  L 49,44  L 49,43  L 48,43  Z  " style="fill:rgb(200, 212, 170); fill-opacity:1.000; stroke:none;" />
 <path d="  M 49,28  L 52,28  L 52,27  L 53,27  L 53,26  L 54,26  L 54,25  L 52,25  L 52,22  L 51,22  L 51,23  L 50,23  L 50,24  L 51,24  L 51,25  L 50,25  L 50,27  L 49,27  Z  M 52,27  L 51,27  L 51,26  L 52,26  Z  " style="fill:rgb(200, 212, 170); fill-opacity:1.000; stroke:none;" />
 <path d="  M 12,43  L 12,44  L 13,44  L 13,43  Z  " style="fill:rgb(203, 198, 141); fill-opacity:1.000; stroke:none;" />
 <path d="  M 14,41  L 13,41  L 13,43  L 14,43  Z  " style="fill:rgb(203, 198, 141); fill-opacity:1.000; stroke:none;" />
 <path d="  M 13,44  L 13,45  L 14,45  L 14,44  Z  " style="fill:rgb(203, 198, 141); fill-opacity:1.000; stroke:none;" />
 <path d="  M 14,40  L 14,41  L 15,41  L 15,40  Z  " style="fill:rgb(203, 198, 141); fill-opacity:1.000; stroke:none;" />
 <path d="  M 16,44  L 15,44  L 15,45  L 14,45  L 14,46  L 16,46  Z  " style="fill:rgb(203, 198, 141); fill-opacity:1.000; stroke:none;" />
 <path d="  M 15,42  L 15,43  L 16,43  L 16,42  Z  " style="fill:rgb(203, 198, 141); fill-opacity:1.000; stroke:none;" />
 <path d="  M 17,40  L 16,40  L 16,41  L 17,41  Z  " style="fill:rgb(203, 198, 141); fill-opacity:1.000; stroke:none;" />
 <path d="  M 17,42  L 17,43  L 16,43  L 16,44  L 17,44  L 17,45  L 19,45  L 19,44  L 18,44  L 18,42  Z  " style="fill:rgb(203, 198, 141); fill-opacity:1.000; stroke:none;" />
 <path d="  M 16,46  L 16,47  L 17,47  L 17,46  Z  " style="fill:rgb(203, 198, 141); fill-opacity:1.000; stroke:none;" />
 <path d="  M 17,31  L 18,31  L 18,30  L 17,30  Z  " style="fill:rgb(203, 198, 141); fill-opacity:1.000; stroke:none;" />
 <path d="  M 18,32  L 17,32  L 17,33  L 18,33  Z  " style="fill:rgb(203, 198, 141); fill-opacity:1.000; stroke:none;" />
 <path d="  M 18,29  L 18,30  L 19,30  L 19,29  Z  " style="fill:rgb(203, 198, 141); fill-opacity:1.000; stroke:none;" />
 <path d="  M 18,34  L 20,34  L 20,32  L 19,32  L 19,33  L 18,33  Z  " style="fill:rgb(203, 198, 141); fill-opacity:1.000; stroke:none;" />
 <path d="  M 18,41  L 18,42  L 19,42  L 19,41  Z  " style="fill:rgb(203, 198, 141); fill-opacity:1.000; stroke:none;" />
 <path d="  M 19,35  L 19,36  L 20,36  L 20,35  Z  " style="fill:rgb(203, 198, 141); fill-opacity:1.000; stroke:none;" />
 <path d="  M 20,42  L 19,42  L 19,43  L 20,43  Z  " style="fill:rgb(203, 198, 141); fill-opacity:1.000; stroke:none;" />
 <path d="  M 20,24  L 20,25  L 21,25  L 21,24  Z  " style="fill:rgb(203, 198, 141); fill-opacity:1.000; stroke:none;" />
 <path d="  M 22,30  L 21,30  L 21,31  L 20,31  L 20,32  L 21,32  L 21,33  L 22,33  Z  " style="fill:rgb(203, 198, 141); fill-opacity:1.000; stroke:none;" />
 <path d="  M 21,34  L 20,34  L 20,35  L 21,35  Z  " style="fill:rgb(203, 198, 141); fill-opacity:1.000; stroke:none;" />
 <path d="  M 21,16  L 21,17  L 22,17  L 22,16  Z  " style="fill:rgb(203, 198, 141); fill-opacity:1.000; stroke:none;" />
 <path d="  M 21,20  L 22,20  L 22,19  L 21,19  Z  " style="fill:rgb(203, 198, 141); fill-opacity:1.000; stroke:none;" />
 <path d="  M 25,25  L 25,24  L 23,24  L 23,23  L 21,23  L 21,24  L 22,24  L 22,25  L 24,25  L 24,26  L 23,26  L 23,27  L 25,27  L 25,26  L 26,26  L 26,25  Z  " style="fill:rgb(203, 198, 141); fill-opacity:1.000; stroke:none;" />
 <path d="  M 22,26  L 22,25  L 21,25  L 21,26  Z  " style="fill:rgb(203, 198, 141); fill-opacity:1.000; stroke:none;" />
 <path d="  M 22,17  L 22,18  L 23,18  L 23,17  Z  " style="fill:rgb(203, 198, 141); fill-opacity:1.000; stroke:none;" />
 <path d="  M 23,27  L 22,27  L 22,28  L 23,28  Z  " style="fill:rgb(203, 198, 141); fill-opacity:1.000; stroke:none;" />
 <path d="  M 22,33  L 22,34  L 23,34  L 23,33  Z  " style="fill:rgb(203, 198, 141); fill-opacity:1.000; stroke:none;" />
 <path d="  M 23,22  L 23,23  L 24,23  L 24,22  Z  " style="fill:rgb(203, 198, 141); fill-opacity:1.000; stroke:none;" />
 <path d="  M 25,21  L 25,20  L 24,20  L 24,21  Z  " style="fill:rgb(203, 198, 141); fill-opacity:1.000; stroke:none;" />
 <path d="  M 26,23  L 27,23  L 27,22  L 25,22  L 25,24  L 26,24  Z  " style="fill:rgb(203, 198, 141); fill-opacity:1.000; stroke:none;" />
 <path d="  M 25,27  L 25,28  L 26,28  L 26,27  Z  " style="fill:rgb(203, 198, 141); fill-opacity:1.000; stroke:none;" />
 <path d="  M 26,25  L 27,25  L 27,24  L 26,24  Z  " style="fill:rgb(203, 198, 141); fill-opacity:1.000; stroke:none;" />
 <path d="  M 29,45  L 29,46  L 28,46  L 28,47  L 29,47  L 29,48  L 30,48  L 30,47  L 31,47  L 31,46  L 30,46  L 30,45  Z  " style="fill:rgb(203, 198, 141); fill-opacity:1.000; stroke:none;" />
 <path d="  M 28,48  L 28,49  L 29,49  L 29,48  Z  " style="fill:rgb(203, 198, 141); fill-opacity:1.000; stroke:none;" />
 <path d="  M 32,49  L 32,48  L 34,48  L 34,47  L 35,47  L 35,44  L 34,44  L 34,46  L 33,46  L 33,47  L 31,47  L 31,48  L 30,48  L 30,49  L 29,49  L 29,51  L 30,51  L 30,50  L 31,50  L 31,49  Z  " style="fill:rgb(203, 198, 141); fill-opacity:1.000; stroke:none;" />
 <path d="  M 31,44  L 30,44  L 30,45  L 31,45  Z  " style="fill:rgb(203, 198, 141); fill-opacity:1.000; stroke:none;" />
 <path d="  M 31,46  L 32,46  L 32,45  L 31,45  Z  " style="fill:rgb(203, 198, 141); fill-opacity:1.000; stroke:none;" />
 <path d="  M 34,50  L 33,50  L 33,49  L 32,49  L 32,50  L 31,50  L 31,51  L 32,51  L 32,52  L 33,52  L 33,51  L 34,51  Z  " style="fill:rgb(203, 198, 141); fill-opacity:1.000; stroke:none;" />
 <path d="  M 33,42  L 33,41  L 32,41  L 32,42  Z  " style="fill:rgb(203, 198, 141); fill-opacity:1.000; stroke:none;" />
 <path d="  M 34,33  L 34,32  L 33,32  L 33,33  Z  " style="fill:rgb(203, 198, 141); fill-opacity:1.000; stroke:none;" />
 <path d="  M 33,44  L 34,44  L 34,43  L 33,43  Z  " style="fill:rgb(203, 198, 141); fill-opacity:1.000; stroke:none;" />
 <path d="  M 34,49  L 34,50  L 35,50  L 35,49  Z  " style="fill:rgb(203, 198, 141); fill-opacity:1.000; stroke:none;" />
 <path d="  M 35,33  L 35,34  L 36,34  L 36,33  Z  " style="fill:rgb(203, 198, 141); fill-opacity:1.000; stroke:none;" />
 <path d="  M 36,48  L 36,47  L 35,47  L 35,48  Z  " style="fill:rgb(203, 198, 141); fill-opacity:1.000; stroke:none;" />
 <path d="  M 37,30  L 37,29  L 36,29  L 36,30  Z  " style="fill:rgb(203, 198, 141); fill-opacity:1.000; stroke:none;" />
 <path d="  M 37,33  L 37,32  L 36,32  L 36,33  Z  " style="fill:rgb(203, 198, 141); fill-opacity:1.000; stroke:none;" />
 <path d="  M 38,29  L 38,28  L 37,28  L 37,29  Z  " style="fill:rgb(203, 198, 141); fill-opacity:1.000; stroke:none;" />
 <path d="  M 39,35  L 39,34  L 40,34  L 40,32  L 39,32  L 39,33  L 37,33  L 37,34  L 38,34  L 38,35  Z  " style="fill:rgb(203, 198, 141); fill-opacity:1.000; stroke:none;" />
 <path d="  M 39,31  L 40,31  L 40,30  L 39,30  Z  " style="fill:rgb(203, 198, 141); fill-opacity:1.000; stroke:none;" />
 <path d="  M 40,30  L 41,30  L 41,29  L 40,29  Z  " style="fill:rgb(203, 198, 141); fill-opacity:1.000; stroke:none;" />
 <path d="  M 42,30  L 41,30  L 41,31  L 40,31  L 40,32  L 41,32  L 41,34  L 42,34  L 42,33  L 43,33  L 43,32  L 42,32  Z  " style="fill:rgb(203, 198, 141); fill-opacity:1.000; stroke:none;" />
 <path d="  M 40,34  L 40,35  L 41,35  L 41,34  Z  " style="fill:rgb(203, 198, 141); fill-opacity:1.000; stroke:none;" />
 <path d="  M 43,32  L 44,32  L 44,31  L 43,31  Z  " style="fill:rgb(203, 198, 141); fill-opacity:1.000; stroke:none;" />
 <path d="  M 44,45  L 45,45  L 45,44  L 44,44  Z  " style="fill:rgb(203, 198, 141); fill-opacity:1.000; stroke:none;" />
 <path d="  M 45,41  L 45,42  L 46,42  L 46,41  Z  " style="fill:rgb(203, 198, 141); fill-opacity:1.000; stroke:none;" />
 <path d="  M 45,43  L 45,44  L 46,44  L 46,45  L 47,45  L 47,44  L 48,44  L 48,43  L 47,43  L 47,42  L 46,42  L 46,43  Z  " style="fill:rgb(203, 198, 141); fill-opacity:1.000; stroke:none;" />
 <path d="  M 46,45  L 45,45  L 45,46  L 46,46  Z  " style="fill:rgb(203, 198, 141); fill-opacity:1.000; stroke:none;" />
 <path d="  M 46,40  L 46,41  L 47,41  L 47,40  Z  " style="fill:rgb(203, 198, 141); fill-opacity:1.000; stroke:none;" />
 <path d="  M 48,44  L 48,45  L 47,45  L 47,48  L 49,48  L 49,47  L 48,47  L 48,46  L 49,46  L 49,45  L 50,45  L 50,46  L 51,46  L 51,45  L 52,45  L 52,44  L 53,44  L 53,42  L 52,42  L 52,43  L 51,43  L 51,44  L 50,44  L 50,43  L 49,43  L 49,44  Z  " style="fill:rgb(203, 198, 141); fill-opacity:1.000; stroke:none;" />
 <path d="  M 48,27  L 48,28  L 49,28  L 49,27  Z  " style="fill:rgb(203, 198, 141); fill-opacity:1.000; stroke:none;" />
 <path d="  M 48,42  L 48,43  L 49,43  L 49,42  Z  " style="fill:rgb(203, 198, 141); fill-opacity:1.000; stroke:none;" />
 <path d="  M 50,25  L 49,25  L 49,27  L 50,27  Z  " style="fill:rgb(203, 198, 141); fill-opacity:1.000; stroke:none;" />
 <path d="  M 50,29  L 50,28  L 49,28  L 49,29  Z  " style="fill:rgb(203, 198, 141); fill-opacity:1.000; stroke:none;" />
 <path d="  M 50,47  L 50,46  L 49,46  L 49,47  Z  " style="fill:rgb(203, 198, 141); fill-opacity:1.000; stroke:none;" />
 <path d="  M 51,25  L 51,24  L 50,24  L 50,25  Z  " style="fill:rgb(203, 198, 141); fill-opacity:1.000; stroke:none;" />
 <path d="  M 52,30  L 52,28  L 51,28  L 51,29  L 50,29  L 50,30  Z  " style="fill:rgb(203, 198, 141); fill-opacity:1.000; stroke:none;" />
 <path d="  M 52,27  L 52,26  L 51,26  L 51,27  Z  " style="fill:rgb(203, 198, 141); fill-opacity:1.000; stroke:none;" />
 <path d="  M 51,39  L 51,40  L 52,40  L 52,39  Z  " style="fill:rgb(203, 198, 141); fill-opacity:1.000; stroke:none;" />
 <path d="  M 53,24  L 52,24  L 52,25  L 53,25  Z  " style="fill:rgb(203, 198, 141); fill-opacity:1.000; stroke:none;" />
 <path d="  M 54,26  L 53,26  L 53,27  L 52,27  L 52,28  L 53,28  L 53,29  L 55,29  L 55,28  L 54,28  Z  " style="fill:rgb(203, 198, 141); fill-opacity:1.000; stroke:none;" />
 <path d="  M 53,31  L 53,30  L 52,30  L 52,31  Z  " style="fill:rgb(203, 198, 141); fill-opacity:1.000; stroke:none;" />
 <path d="  M 53,37  L 52,37  L 52,38  L 53,38  Z  " style="fill:rgb(203, 198, 141); fill-opacity:1.000; stroke:none;" />
 <path d="  M 53,39  L 53,40  L 54,40  L 54,39  Z  " style="fill:rgb(203, 198, 141); fill-opacity:1.000; stroke:none;" />
 <path d="  M 54,41  L 53,41  L 53,42  L 54,42  Z  " style="fill:rgb(203, 198, 141); fill-opacity:1.000; stroke:none;" />
 <path d="  M 54,26  L 55,26  L 55,25  L 54,25  Z  " style="fill:rgb(203, 198, 141); fill-opacity:1.000; stroke:none;" />
 <path d="  M 55,27  L 56,27  L 56,26  L 55,26  Z  " style="fill:rgb(203, 198, 141); fill-opacity:1.000; stroke:none;" />
 <path d="  M 13,44  L 12,44  L 12,45  L 13,45  Z  " style="fill:rgb(202, 177, 110); fill-opacity:1.000; stroke:none;" />
 <path d="  M 14,45  L 13,45  L 13,46  L 14,46  Z  " style="fill:rgb(202, 177, 110); fill-opacity:1.000; stroke:none;" />
 <path d="  M 15,45  L 15,44  L 14,44  L 14,45  Z  " style="fill:rgb(202, 177, 110); fill-opacity:1.000; stroke:none;" />
 <path d="  M 17,47  L 16,47  L 16,46  L 14,46  L 14,47  L 15,47  L 15,48  L 17,48  Z  " style="fill:rgb(202, 177, 110); fill-opacity:1.000; stroke:none;" />
 <path d="  M 17,32  L 16,32  L 16,33  L 17,33  Z  " style="fill:rgb(202, 177, 110); fill-opacity:1.000; stroke:none;" />
 <path d="  M 19,45  L 17,45  L 17,44  L 16,44  L 16,46  L 17,46  L 17,47  L 18,47  L 18,46  L 19,46  Z  " style="fill:rgb(202, 177, 110); fill-opacity:1.000; stroke:none;" />
 <path d="  M 18,33  L 17,33  L 17,34  L 18,34  Z  " style="fill:rgb(202, 177, 110); fill-opacity:1.000; stroke:none;" />
 <path d="  M 18,34  L 18,35  L 20,35  L 20,34  Z  " style="fill:rgb(202, 177, 110); fill-opacity:1.000; stroke:none;" />
 <path d="  M 19,42  L 18,42  L 18,44  L 20,44  L 20,43  L 19,43  Z  " style="fill:rgb(202, 177, 110); fill-opacity:1.000; stroke:none;" />
 <path d="  M 21,25  L 20,25  L 20,26  L 21,26  Z  " style="fill:rgb(202, 177, 110); fill-opacity:1.000; stroke:none;" />
 <path d="  M 21,32  L 20,32  L 20,34  L 21,34  L 21,35  L 22,35  L 22,33  L 21,33  Z  " style="fill:rgb(202, 177, 110); fill-opacity:1.000; stroke:none;" />
 <path d="  M 21,36  L 21,35  L 20,35  L 20,36  Z  " style="fill:rgb(202, 177, 110); fill-opacity:1.000; stroke:none;" />
 <path d="  M 22,24  L 21,24  L 21,25  L 22,25  Z  " style="fill:rgb(202, 177, 110); fill-opacity:1.000; stroke:none;" />
 <path d="  M 24,25  L 22,25  L 22,26  L 21,26  L 21,27  L 23,27  L 23,26  L 24,26  Z  " style="fill:rgb(202, 177, 110); fill-opacity:1.000; stroke:none;" />
 <path d="  M 23,32  L 23,31  L 22,31  L 22,33  L 24,33  L 24,32  Z  " style="fill:rgb(202, 177, 110); fill-opacity:1.000; stroke:none;" />
 <path d="  M 25,28  L 25,27  L 23,27  L 23,28  Z  " style="fill:rgb(202, 177, 110); fill-opacity:1.000; stroke:none;" />
 <path d="  M 26,25  L 26,24  L 25,24  L 25,25  Z  " style="fill:rgb(202, 177, 110); fill-opacity:1.000; stroke:none;" />
 <path d="  M 27,27  L 27,26  L 28,26  L 28,24  L 27,24  L 27,25  L 26,25  L 26,26  L 25,26  L 25,27  Z  " style="fill:rgb(202, 177, 110); fill-opacity:1.000; stroke:none;" />
 <path d="  M 26,24  L 27,24  L 27,23  L 26,23  Z  " style="fill:rgb(202, 177, 110); fill-opacity:1.000; stroke:none;" />
 <path d="  M 29,49  L 28,49  L 28,50  L 29,50  Z  " style="fill:rgb(202, 177, 110); fill-opacity:1.000; stroke:none;" />
 <path d="  M 30,49  L 30,48  L 29,48  L 29,49  Z  " style="fill:rgb(202, 177, 110); fill-opacity:1.000; stroke:none;" />
 <path d="  M 32,52  L 32,51  L 31,51  L 31,50  L 30,50  L 30,52  Z  " style="fill:rgb(202, 177, 110); fill-opacity:1.000; stroke:none;" />
 <path d="  M 32,50  L 32,49  L 31,49  L 31,50  Z  " style="fill:rgb(202, 177, 110); fill-opacity:1.000; stroke:none;" />
 <path d="  M 34,49  L 35,49  L 35,50  L 36,50  L 36,48  L 35,48  L 35,47  L 34,47  L 34,48  L 32,48  L 32,49  L 33,49  L 33,50  L 34,50  Z  " style="fill:rgb(202, 177, 110); fill-opacity:1.000; stroke:none;" />
 <path d="  M 33,51  L 33,52  L 34,52  L 34,51  Z  " style="fill:rgb(202, 177, 110); fill-opacity:1.000; stroke:none;" />
 <path d="  M 35,51  L 35,50  L 34,50  L 34,51  Z  " style="fill:rgb(202, 177, 110); fill-opacity:1.000; stroke:none;" />
 <path d="  M 35,46  L 35,47  L 36,47  L 36,46  Z  " style="fill:rgb(202, 177, 110); fill-opacity:1.000; stroke:none;" />
 <path d="  M 37,33  L 36,33  L 36,34  L 37,34  Z  " style="fill:rgb(202, 177, 110); fill-opacity:1.000; stroke:none;" />
 <path d="  M 37,34  L 37,35  L 38,35  L 38,34  Z  " style="fill:rgb(202, 177, 110); fill-opacity:1.000; stroke:none;" />
 <path d="  M 38,35  L 38,36  L 40,36  L 40,34  L 39,34  L 39,35  Z  " style="fill:rgb(202, 177, 110); fill-opacity:1.000; stroke:none;" />
 <path d="  M 41,32  L 40,32  L 40,34  L 41,34  Z  " style="fill:rgb(202, 177, 110); fill-opacity:1.000; stroke:none;" />
 <path d="  M 42,35  L 42,34  L 41,34  L 41,35  Z  " style="fill:rgb(202, 177, 110); fill-opacity:1.000; stroke:none;" />
 <path d="  M 43,30  L 42,30  L 42,32  L 43,32  Z  " style="fill:rgb(202, 177, 110); fill-opacity:1.000; stroke:none;" />
 <path d="  M 43,33  L 42,33  L 42,34  L 43,34  Z  " style="fill:rgb(202, 177, 110); fill-opacity:1.000; stroke:none;" />
 <path d="  M 43,32  L 43,33  L 44,33  L 44,32  Z  " style="fill:rgb(202, 177, 110); fill-opacity:1.000; stroke:none;" />
 <path d="  M 45,45  L 44,45  L 44,46  L 45,46  Z  " style="fill:rgb(202, 177, 110); fill-opacity:1.000; stroke:none;" />
 <path d="  M 46,45  L 46,46  L 45,46  L 45,47  L 46,47  L 46,48  L 47,48  L 47,45  Z  " style="fill:rgb(202, 177, 110); fill-opacity:1.000; stroke:none;" />
 <path d="  M 48,45  L 48,44  L 47,44  L 47,45  Z  " style="fill:rgb(202, 177, 110); fill-opacity:1.000; stroke:none;" />
 <path d="  M 49,28  L 48,28  L 48,29  L 49,29  Z  " style="fill:rgb(202, 177, 110); fill-opacity:1.000; stroke:none;" />
 <path d="  M 48,47  L 49,47  L 49,46  L 48,46  Z  " style="fill:rgb(202, 177, 110); fill-opacity:1.000; stroke:none;" />
 <path d="  M 50,29  L 49,29  L 49,30  L 50,30  Z  " style="fill:rgb(202, 177, 110); fill-opacity:1.000; stroke:none;" />
 <path d="  M 50,46  L 50,45  L 49,45  L 49,46  Z  " style="fill:rgb(202, 177, 110); fill-opacity:1.000; stroke:none;" />
 <path d="  M 49,48  L 50,48  L 50,47  L 49,47  Z  " style="fill:rgb(202, 177, 110); fill-opacity:1.000; stroke:none;" />
 <path d="  M 51,29  L 51,28  L 50,28  L 50,29  Z  " style="fill:rgb(202, 177, 110); fill-opacity:1.000; stroke:none;" />
 <path d="  M 50,30  L 50,31  L 51,31  L 51,32  L 53,32  L 53,31  L 52,31  L 52,30  Z  " style="fill:rgb(202, 177, 110); fill-opacity:1.000; stroke:none;" />
 <path d="  M 50,46  L 50,47  L 51,47  L 51,46  Z  " style="fill:rgb(202, 177, 110); fill-opacity:1.000; stroke:none;" />
 <path d="  M 52,46  L 52,45  L 51,45  L 51,46  Z  " style="fill:rgb(202, 177, 110); fill-opacity:1.000; stroke:none;" />
 <path d="  M 52,28  L 52,30  L 53,30  L 53,31  L 54,31  L 54,30  L 55,30  L 55,29  L 53,29  L 53,28  Z  " style="fill:rgb(202, 177, 110); fill-opacity:1.000; stroke:none;" />
 <path d="  M 54,28  L 56,28  L 56,27  L 55,27  L 55,26  L 54,26  Z  " style="fill:rgb(202, 177, 110); fill-opacity:1.000; stroke:none;" />
</svg>
