<?xml version="1.0" encoding="UTF-8" standalone="no"?>
<!DOCTYPE svg PUBLIC "-//W3C//DTD SVG 1.1//EN" 
  "http://www.w3.org/Graphics/SVG/1.1/DTD/svg11.dtd">
<svg width="64" height="64"
	 xmlns="http://www.w3.org/2000/svg" version="1.1">
 <path d="  M 9,28  L 8,28  L 8,34  L 9,34  Z  " style="fill:rgb(71, 122, 66); fill-opacity:1.000; stroke:none;" />
 <path d="  M 9,24  L 9,28  L 10,28  L 10,24  Z  " style="fill:rgb(71, 122, 66); fill-opacity:1.000; stroke:none;" />
 <path d="  M 11,22  L 10,22  L 10,24  L 11,24  Z  " style="fill:rgb(71, 122, 66); fill-opacity:1.000; stroke:none;" />
 <path d="  M 12,20  L 11,20  L 11,22  L 12,22  Z  " style="fill:rgb(71, 122, 66); fill-opacity:1.000; stroke:none;" />
 <path d="  M 13,20  L 13,18  L 12,18  L 12,20  Z  " style="fill:rgb(71, 122, 66); fill-opacity:1.000; stroke:none;" />
 <path d="  M 13,17  L 13,18  L 14,18  L 14,17  Z  " style="fill:rgb(71, 122, 66); fill-opacity:1.000; stroke:none;" />
 <path d="  M 14,43  L 13,43  L 13,44  L 14,44  Z  " style="fill:rgb(71, 122, 66); fill-opacity:1.000; stroke:none;" />
 <path d="  M 14,16  L 14,17  L 15,17  L 15,16  Z  " style="fill:rgb(71, 122, 66); fill-opacity:1.000; stroke:none;" />
 <path d="  M 15,45  L 15,44  L 14,44  L 14,45  Z  " style="fill:rgb(71, 122, 66); fill-opacity:1.000; stroke:none;" />
 <path d="  M 15,15  L 15,16  L 16,16  L 16,15  Z  " style="fill:rgb(71, 122, 66); fill-opacity:1.000; stroke:none;" />
 <path d="  M 16,45  L 15,45  L 15,46  L 16,46  Z  " style="fill:rgb(71, 122, 66); fill-opacity:1.000; stroke:none;" />
 <path d="  M 16,15  L 17,15  L 17,14  L 16,14  Z  " style="fill:rgb(71, 122, 66); fill-opacity:1.000; stroke:none;" />
 <path d="  M 16,44  L 16,45  L 17,45  L 17,44  Z  " style="fill:rgb(71, 122, 66); fill-opacity:1.000; stroke:none;" />
 <path d="  M 18,13  L 17,13  L 17,14  L 18,14  Z  " style="fill:rgb(71, 122, 66); fill-opacity:1.000; stroke:none;" />
 <path d="  M 17,48  L 18,48  L 18,47  L 17,47  Z  " style="fill:rgb(71, 122, 66); fill-opacity:1.000; stroke:none;" />
 <path d="  M 18,13  L 20,13  L 20,12  L 18,12  Z  " style="fill:rgb(71, 122, 66); fill-opacity:1.000; stroke:none;" />
 <path d="  M 18,46  L 18,47  L 19,47  L 19,46  Z  " style="fill:rgb(71, 122, 66); fill-opacity:1.000; stroke:none;" />
 <path d="  M 18,49  L 19,49  L 19,48  L 18,48  Z  " style="fill:rgb(71, 122, 66); fill-opacity:1.000; stroke:none;" />
 <path d="  M 22,12  L 22,11  L 20,11  L 20,12  Z  " style="fill:rgb(71, 122, 66); fill-opacity:1.000; stroke:none;" />
 <path d="  M 21,49  L 20,49  L 20,50  L 21,50  Z  " style="fill:rgb(71, 122, 66); fill-opacity:1.000; stroke:none;" />
 <path d="  M 21,48  L 21,49  L 22,49  L 22,48  Z  " style="fill:rgb(71, 122, 66); fill-opacity:1.000; stroke:none;" />
 <path d="  M 23,50  L 21,50  L 21,51  L 23,51  Z  " style="fill:rgb(71, 122, 66); fill-opacity:1.000; stroke:none;" />
 <path d="  M 24,11  L 24,10  L 22,10  L 22,11  Z  " style="fill:rgb(71, 122, 66); fill-opacity:1.000; stroke:none;" />
 <path d="  M 23,48  L 23,49  L 24,49  L 24,48  Z  " style="fill:rgb(71, 122, 66); fill-opacity:1.000; stroke:none;" />
 <path d="  M 28,10  L 28,9  L 24,9  L 24,10  Z  " style="fill:rgb(71, 122, 66); fill-opacity:1.000; stroke:none;" />
 <path d="  M 25,51  L 25,50  L 24,50  L 24,51  Z  " style="fill:rgb(71, 122, 66); fill-opacity:1.000; stroke:none;" />
 <path d="  M 25,51  L 25,52  L 26,52  L 26,51  Z  " style="fill:rgb(71, 122, 66); fill-opacity:1.000; stroke:none;" />
 <path d="  M 28,52  L 28,51  L 27,51  L 27,52  Z  " style="fill:rgb(71, 122, 66); fill-opacity:1.000; stroke:none;" />
 <path d="  M 36,9  L 36,8  L 28,8  L 28,9  Z  " style="fill:rgb(71, 122, 66); fill-opacity:1.000; stroke:none;" />
 <path d="  M 28,51  L 29,51  L 29,50  L 28,50  Z  " style="fill:rgb(71, 122, 66); fill-opacity:1.000; stroke:none;" />
 <path d="  M 28,53  L 28,54  L 29,54  L 29,53  Z  " style="fill:rgb(71, 122, 66); fill-opacity:1.000; stroke:none;" />
 <path d="  M 29,52  L 30,52  L 30,51  L 29,51  Z  " style="fill:rgb(71, 122, 66); fill-opacity:1.000; stroke:none;" />
 <path d="  M 34,54  L 34,53  L 33,53  L 33,52  L 30,52  L 30,54  L 31,54  L 31,53  L 32,53  L 32,54  Z  " style="fill:rgb(71, 122, 66); fill-opacity:1.000; stroke:none;" />
 <path d="  M 31,54  L 31,55  L 32,55  L 32,54  Z  " style="fill:rgb(71, 122, 66); fill-opacity:1.000; stroke:none;" />
 <path d="  M 32,51  L 33,51  L 33,50  L 32,50  Z  " style="fill:rgb(71, 122, 66); fill-opacity:1.000; stroke:none;" />
 <path d="  M 35,51  L 35,50  L 34,50  L 34,51  Z  " style="fill:rgb(71, 122, 66); fill-opacity:1.000; stroke:none;" />
 <path d="  M 35,51  L 35,54  L 36,54  L 36,51  Z  " style="fill:rgb(71, 122, 66); fill-opacity:1.000; stroke:none;" />
 <path d="  M 38,10  L 38,9  L 36,9  L 36,10  Z  " style="fill:rgb(71, 122, 66); fill-opacity:1.000; stroke:none;" />
 <path d="  M 37,50  L 36,50  L 36,51  L 37,51  Z  " style="fill:rgb(71, 122, 66); fill-opacity:1.000; stroke:none;" />
 <path d="  M 38,50  L 40,50  L 40,49  L 38,49  Z  " style="fill:rgb(71, 122, 66); fill-opacity:1.000; stroke:none;" />
 <path d="  M 41,50  L 40,50  L 40,51  L 38,51  L 38,52  L 41,52  Z  " style="fill:rgb(71, 122, 66); fill-opacity:1.000; stroke:none;" />
 <path d="  M 40,49  L 41,49  L 41,48  L 40,48  Z  " style="fill:rgb(71, 122, 66); fill-opacity:1.000; stroke:none;" />
 <path d="  M 43,48  L 43,47  L 42,47  L 42,49  L 41,49  L 41,50  L 42,50  L 42,51  L 43,51  L 43,49  L 44,49  L 44,48  Z  " style="fill:rgb(71, 122, 66); fill-opacity:1.000; stroke:none;" />
 <path d="  M 43,47  L 44,47  L 44,46  L 43,46  Z  " style="fill:rgb(71, 122, 66); fill-opacity:1.000; stroke:none;" />
 <path d="  M 44,48  L 45,48  L 45,47  L 44,47  Z  " style="fill:rgb(71, 122, 66); fill-opacity:1.000; stroke:none;" />
 <path d="  M 44,49  L 44,50  L 45,50  L 45,49  Z  " style="fill:rgb(71, 122, 66); fill-opacity:1.000; stroke:none;" />
 <path d="  M 46,44  L 45,44  L 45,45  L 46,45  Z  " style="fill:rgb(71, 122, 66); fill-opacity:1.000; stroke:none;" />
 <path d="  M 45,47  L 48,47  L 48,44  L 47,44  L 47,45  L 46,45  L 46,46  L 45,46  Z  " style="fill:rgb(71, 122, 66); fill-opacity:1.000; stroke:none;" />
 <path d="  M 48,40  L 48,41  L 50,41  L 50,40  Z  " style="fill:rgb(71, 122, 66); fill-opacity:1.000; stroke:none;" />
 <path d="  M 48,42  L 48,44  L 50,44  L 50,43  L 49,43  L 49,42  Z  " style="fill:rgb(71, 122, 66); fill-opacity:1.000; stroke:none;" />
 <path d="  M 50,39  L 50,38  L 49,38  L 49,39  Z  " style="fill:rgb(71, 122, 66); fill-opacity:1.000; stroke:none;" />
 <path d="  M 51,36  L 51,35  L 50,35  L 50,36  Z  " style="fill:rgb(71, 122, 66); fill-opacity:1.000; stroke:none;" />
 <path d="  M 51,41  L 50,41  L 50,43  L 51,43  Z  " style="fill:rgb(71, 122, 66); fill-opacity:1.000; stroke:none;" />
 <path d="  M 51,37  L 51,38  L 53,38  L 53,37  Z  " style="fill:rgb(71, 122, 66); fill-opacity:1.000; stroke:none;" />
 <path d="  M 53,40  L 53,39  L 51,39  L 51,40  Z  " style="fill:rgb(71, 122, 66); fill-opacity:1.000; stroke:none;" />
 <path d="  M 52,26  L 52,27  L 53,27  L 53,26  Z  " style="fill:rgb(71, 122, 66); fill-opacity:1.000; stroke:none;" />
 <path d="  M 52,28  L 52,29  L 53,29  L 53,28  Z  " style="fill:rgb(71, 122, 66); fill-opacity:1.000; stroke:none;" />
 <path d="  M 53,32  L 52,32  L 52,34  L 53,34  Z  " style="fill:rgb(71, 122, 66); fill-opacity:1.000; stroke:none;" />
 <path d="  M 53,26  L 54,26  L 54,24  L 53,24  Z  " style="fill:rgb(71, 122, 66); fill-opacity:1.000; stroke:none;" />
 <path d="  M 53,32  L 54,32  L 54,31  L 53,31  Z  " style="fill:rgb(71, 122, 66); fill-opacity:1.000; stroke:none;" />
 <path d="  M 53,35  L 53,36  L 54,36  L 54,35  Z  " style="fill:rgb(71, 122, 66); fill-opacity:1.000; stroke:none;" />
 <path d="  M 8,36  L 9,36  L 9,34  L 8,34  Z  " style="fill:rgb(52, 83, 47); fill-opacity:1.000; stroke:none;" />
 <path d="  M 9,40  L 10,40  L 10,36  L 9,36  Z  " style="fill:rgb(52, 83, 47); fill-opacity:1.000; stroke:none;" />
 <path d="  M 11,40  L 10,40  L 10,42  L 11,42  Z  " style="fill:rgb(52, 83, 47); fill-opacity:1.000; stroke:none;" />
 <path d="  M 12,44  L 12,42  L 11,42  L 11,44  Z  " style="fill:rgb(52, 83, 47); fill-opacity:1.000; stroke:none;" />
 <path d="  M 12,46  L 13,46  L 13,44  L 12,44  Z  " style="fill:rgb(52, 83, 47); fill-opacity:1.000; stroke:none;" />
 <path d="  M 14,46  L 13,46  L 13,47  L 14,47  Z  " style="fill:rgb(52, 83, 47); fill-opacity:1.000; stroke:none;" />
 <path d="  M 14,47  L 14,48  L 15,48  L 15,47  Z  " style="fill:rgb(52, 83, 47); fill-opacity:1.000; stroke:none;" />
 <path d="  M 16,49  L 16,48  L 15,48  L 15,49  Z  " style="fill:rgb(52, 83, 47); fill-opacity:1.000; stroke:none;" />
 <path d="  M 17,50  L 17,49  L 16,49  L 16,50  Z  " style="fill:rgb(52, 83, 47); fill-opacity:1.000; stroke:none;" />
 <path d="  M 17,50  L 17,51  L 18,51  L 18,50  Z  " style="fill:rgb(52, 83, 47); fill-opacity:1.000; stroke:none;" />
 <path d="  M 18,51  L 18,52  L 20,52  L 20,51  Z  " style="fill:rgb(52, 83, 47); fill-opacity:1.000; stroke:none;" />
 <path d="  M 22,52  L 20,52  L 20,53  L 22,53  Z  " style="fill:rgb(52, 83, 47); fill-opacity:1.000; stroke:none;" />
 <path d="  M 24,54  L 24,53  L 22,53  L 22,54  Z  " style="fill:rgb(52, 83, 47); fill-opacity:1.000; stroke:none;" />
 <path d="  M 24,54  L 24,55  L 28,55  L 28,54  Z  " style="fill:rgb(52, 83, 47); fill-opacity:1.000; stroke:none;" />
 <path d="  M 36,56  L 36,55  L 28,55  L 28,56  Z  " style="fill:rgb(52, 83, 47); fill-opacity:1.000; stroke:none;" />
 <path d="  M 40,55  L 40,54  L 36,54  L 36,55  Z  " style="fill:rgb(52, 83, 47); fill-opacity:1.000; stroke:none;" />
 <path d="  M 40,10  L 40,9  L 38,9  L 38,10  Z  " style="fill:rgb(52, 83, 47); fill-opacity:1.000; stroke:none;" />
 <path d="  M 42,11  L 42,10  L 40,10  L 40,11  Z  " style="fill:rgb(52, 83, 47); fill-opacity:1.000; stroke:none;" />
 <path d="  M 42,53  L 40,53  L 40,54  L 42,54  Z  " style="fill:rgb(52, 83, 47); fill-opacity:1.000; stroke:none;" />
 <path d="  M 42,11  L 42,12  L 44,12  L 44,11  Z  " style="fill:rgb(52, 83, 47); fill-opacity:1.000; stroke:none;" />
 <path d="  M 44,52  L 42,52  L 42,53  L 44,53  Z  " style="fill:rgb(52, 83, 47); fill-opacity:1.000; stroke:none;" />
 <path d="  M 46,12  L 44,12  L 44,13  L 46,13  Z  " style="fill:rgb(52, 83, 47); fill-opacity:1.000; stroke:none;" />
 <path d="  M 46,52  L 46,51  L 44,51  L 44,52  Z  " style="fill:rgb(52, 83, 47); fill-opacity:1.000; stroke:none;" />
 <path d="  M 47,14  L 47,13  L 46,13  L 46,14  Z  " style="fill:rgb(52, 83, 47); fill-opacity:1.000; stroke:none;" />
 <path d="  M 46,50  L 46,51  L 47,51  L 47,50  Z  " style="fill:rgb(52, 83, 47); fill-opacity:1.000; stroke:none;" />
 <path d="  M 47,15  L 48,15  L 48,14  L 47,14  Z  " style="fill:rgb(52, 83, 47); fill-opacity:1.000; stroke:none;" />
 <path d="  M 48,50  L 48,49  L 47,49  L 47,50  Z  " style="fill:rgb(52, 83, 47); fill-opacity:1.000; stroke:none;" />
 <path d="  M 48,15  L 48,16  L 49,16  L 49,15  Z  " style="fill:rgb(52, 83, 47); fill-opacity:1.000; stroke:none;" />
 <path d="  M 48,49  L 49,49  L 49,48  L 48,48  Z  " style="fill:rgb(52, 83, 47); fill-opacity:1.000; stroke:none;" />
 <path d="  M 50,17  L 50,16  L 49,16  L 49,17  Z  " style="fill:rgb(52, 83, 47); fill-opacity:1.000; stroke:none;" />
 <path d="  M 49,48  L 50,48  L 50,47  L 49,47  Z  " style="fill:rgb(52, 83, 47); fill-opacity:1.000; stroke:none;" />
 <path d="  M 51,17  L 50,17  L 50,18  L 51,18  Z  " style="fill:rgb(52, 83, 47); fill-opacity:1.000; stroke:none;" />
 <path d="  M 50,46  L 50,47  L 51,47  L 51,46  Z  " style="fill:rgb(52, 83, 47); fill-opacity:1.000; stroke:none;" />
 <path d="  M 52,18  L 51,18  L 51,20  L 52,20  Z  " style="fill:rgb(52, 83, 47); fill-opacity:1.000; stroke:none;" />
 <path d="  M 52,46  L 52,44  L 51,44  L 51,46  Z  " style="fill:rgb(52, 83, 47); fill-opacity:1.000; stroke:none;" />
 <path d="  M 52,22  L 53,22  L 53,20  L 52,20  Z  " style="fill:rgb(52, 83, 47); fill-opacity:1.000; stroke:none;" />
 <path d="  M 52,42  L 52,44  L 53,44  L 53,42  Z  " style="fill:rgb(52, 83, 47); fill-opacity:1.000; stroke:none;" />
 <path d="  M 53,22  L 53,24  L 54,24  L 54,22  Z  " style="fill:rgb(52, 83, 47); fill-opacity:1.000; stroke:none;" />
 <path d="  M 54,40  L 53,40  L 53,42  L 54,42  Z  " style="fill:rgb(52, 83, 47); fill-opacity:1.000; stroke:none;" />
 <path d="  M 55,24  L 54,24  L 54,28  L 55,28  Z  " style="fill:rgb(52, 83, 47); fill-opacity:1.000; stroke:none;" />
 <path d="  M 55,36  L 54,36  L 54,40  L 55,40  Z  " style="fill:rgb(52, 83, 47); fill-opacity:1.000; stroke:none;" />
 <path d="  M 55,36  L 56,36  L 56,28  L 55,28  Z  " style="fill:rgb(52, 83, 47); fill-opacity:1.000; stroke:none;" />
 <path d="  M 9,30  L 11,30  L 11,29  L 10,29  L 10,28  L 9,28  Z  " style="fill:rgb(130, 202, 121); fill-opacity:1.000; stroke:none;" />
 <path d="  M 9,35  L 10,35  L 10,34  L 9,34  Z  " style="fill:rgb(130, 202, 121); fill-opacity:1.000; stroke:none;" />
 <path d="  M 12,26  L 10,26  L 10,28  L 11,28  L 11,27  L 12,27  Z  " style="fill:rgb(130, 202, 121); fill-opacity:1.000; stroke:none;" />
 <path d="  M 10,31  L 10,32  L 11,32  L 11,31  Z  " style="fill:rgb(130, 202, 121); fill-opacity:1.000; stroke:none;" />
 <path d="  M 10,37  L 10,38  L 11,38  L 11,37  Z  " style="fill:rgb(130, 202, 121); fill-opacity:1.000; stroke:none;" />
 <path d="  M 11,23  L 11,25  L 12,25  L 12,23  Z  " style="fill:rgb(130, 202, 121); fill-opacity:1.000; stroke:none;" />
 <path d="  M 12,31  L 12,30  L 11,30  L 11,31  Z  " style="fill:rgb(130, 202, 121); fill-opacity:1.000; stroke:none;" />
 <path d="  M 12,34  L 12,32  L 11,32  L 11,34  Z  " style="fill:rgb(130, 202, 121); fill-opacity:1.000; stroke:none;" />
 <path d="  M 12,39  L 12,38  L 11,38  L 11,39  Z  " style="fill:rgb(130, 202, 121); fill-opacity:1.000; stroke:none;" />
 <path d="  M 13,21  L 12,21  L 12,22  L 13,22  Z  " style="fill:rgb(130, 202, 121); fill-opacity:1.000; stroke:none;" />
 <path d="  M 12,32  L 13,32  L 13,31  L 12,31  Z  " style="fill:rgb(130, 202, 121); fill-opacity:1.000; stroke:none;" />
 <path d="  M 12,36  L 13,36  L 13,35  L 12,35  Z  " style="fill:rgb(130, 202, 121); fill-opacity:1.000; stroke:none;" />
 <path d="  M 12,41  L 12,42  L 13,42  L 13,41  Z  " style="fill:rgb(130, 202, 121); fill-opacity:1.000; stroke:none;" />
 <path d="  M 15,19  L 13,19  L 13,21  L 14,21  L 14,20  L 15,20  Z  " style="fill:rgb(130, 202, 121); fill-opacity:1.000; stroke:none;" />
 <path d="  M 14,33  L 13,33  L 13,35  L 14,35  Z  " style="fill:rgb(130, 202, 121); fill-opacity:1.000; stroke:none;" />
 <path d="  M 13,36  L 13,37  L 14,37  L 14,36  Z  " style="fill:rgb(130, 202, 121); fill-opacity:1.000; stroke:none;" />
 <path d="  M 14,36  L 15,36  L 15,35  L 14,35  Z  " style="fill:rgb(130, 202, 121); fill-opacity:1.000; stroke:none;" />
 <path d="  M 15,38  L 15,37  L 14,37  L 14,38  Z  " style="fill:rgb(130, 202, 121); fill-opacity:1.000; stroke:none;" />
 <path d="  M 16,17  L 15,17  L 15,19  L 16,19  Z  " style="fill:rgb(130, 202, 121); fill-opacity:1.000; stroke:none;" />
 <path d="  M 16,32  L 15,32  L 15,33  L 16,33  Z  " style="fill:rgb(130, 202, 121); fill-opacity:1.000; stroke:none;" />
 <path d="  M 16,35  L 16,34  L 15,34  L 15,35  Z  " style="fill:rgb(130, 202, 121); fill-opacity:1.000; stroke:none;" />
 <path d="  M 16,37  L 16,36  L 15,36  L 15,37  Z  " style="fill:rgb(130, 202, 121); fill-opacity:1.000; stroke:none;" />
 <path d="  M 15,38  L 15,39  L 17,39  L 17,38  Z  " style="fill:rgb(130, 202, 121); fill-opacity:1.000; stroke:none;" />
 <path d="  M 16,17  L 17,17  L 17,16  L 16,16  Z  " style="fill:rgb(130, 202, 121); fill-opacity:1.000; stroke:none;" />
 <path d="  M 17,16  L 19,16  L 19,15  L 18,15  L 18,14  L 17,14  Z  " style="fill:rgb(130, 202, 121); fill-opacity:1.000; stroke:none;" />
 <path d="  M 17,40  L 18,40  L 18,39  L 17,39  Z  " style="fill:rgb(130, 202, 121); fill-opacity:1.000; stroke:none;" />
 <path d="  M 20,12  L 20,13  L 18,13  L 18,14  L 21,14  L 21,13  L 22,13  L 22,12  Z  " style="fill:rgb(130, 202, 121); fill-opacity:1.000; stroke:none;" />
 <path d="  M 19,38  L 18,38  L 18,39  L 19,39  Z  " style="fill:rgb(130, 202, 121); fill-opacity:1.000; stroke:none;" />
 <path d="  M 19,41  L 20,41  L 20,42  L 21,42  L 21,40  L 19,40  Z  " style="fill:rgb(130, 202, 121); fill-opacity:1.000; stroke:none;" />
 <path d="  M 22,12  L 23,12  L 23,11  L 22,11  Z  " style="fill:rgb(130, 202, 121); fill-opacity:1.000; stroke:none;" />
 <path d="  M 22,39  L 22,40  L 23,40  L 23,39  Z  " style="fill:rgb(130, 202, 121); fill-opacity:1.000; stroke:none;" />
 <path d="  M 23,42  L 22,42  L 22,43  L 23,43  Z  " style="fill:rgb(130, 202, 121); fill-opacity:1.000; stroke:none;" />
 <path d="  M 23,24  L 23,25  L 24,25  L 24,24  Z  " style="fill:rgb(130, 202, 121); fill-opacity:1.000; stroke:none;" />
 <path d="  M 24,42  L 24,43  L 25,43  L 25,41  L 23,41  L 23,42  Z  " style="fill:rgb(130, 202, 121); fill-opacity:1.000; stroke:none;" />
 <path d="  M 23,43  L 23,44  L 24,44  L 24,43  Z  " style="fill:rgb(130, 202, 121); fill-opacity:1.000; stroke:none;" />
 <path d="  M 25,10  L 24,10  L 24,12  L 25,12  Z  " style="fill:rgb(130, 202, 121); fill-opacity:1.000; stroke:none;" />
 <path d="  M 25,38  L 24,38  L 24,39  L 25,39  Z  " style="fill:rgb(130, 202, 121); fill-opacity:1.000; stroke:none;" />
 <path d="  M 25,37  L 25,38  L 26,38  L 26,37  Z  " style="fill:rgb(130, 202, 121); fill-opacity:1.000; stroke:none;" />
 <path d="  M 26,41  L 26,40  L 25,40  L 25,41  Z  " style="fill:rgb(130, 202, 121); fill-opacity:1.000; stroke:none;" />
 <path d="  M 35,36  L 35,35  L 34,35  L 34,34  L 33,34  L 33,35  L 31,35  L 31,36  L 30,36  L 30,37  L 29,37  L 29,39  L 28,39  L 28,40  L 27,40  L 27,41  L 28,41  L 28,42  L 27,42  L 27,43  L 25,43  L 25,44  L 29,44  L 29,43  L 30,43  L 30,44  L 32,44  L 32,43  L 31,43  L 31,42  L 33,42  L 33,43  L 35,43  L 35,42  L 37,42  L 37,41  L 35,41  L 35,40  L 37,40  L 37,39  L 36,39  L 36,38  L 37,38  L 37,37  L 36,37  L 36,36  Z  M 31,41  L 31,42  L 29,42  L 29,40  L 30,40  L 30,41  Z  M 34,36  L 34,37  L 33,37  L 33,36  Z  M 30,38  L 31,38  L 31,39  L 30,39  Z  M 32,40  L 33,40  L 33,41  L 32,41  Z  M 35,39  L 35,40  L 33,40  L 33,39  Z  M 32,40  L 31,40  L 31,39  L 32,39  Z  M 33,37  L 33,38  L 31,38  L 31,37  Z  " style="fill:rgb(130, 202, 121); fill-opacity:1.000; stroke:none;" />
 <path d="  M 26,11  L 27,11  L 27,10  L 26,10  Z  " style="fill:rgb(130, 202, 121); fill-opacity:1.000; stroke:none;" />
 <path d="  M 27,40  L 27,39  L 26,39  L 26,40  Z  " style="fill:rgb(130, 202, 121); fill-opacity:1.000; stroke:none;" />
 <path d="  M 26,42  L 27,42  L 27,41  L 26,41  Z  " style="fill:rgb(130, 202, 121); fill-opacity:1.000; stroke:none;" />
 <path d="  M 28,39  L 28,37  L 27,37  L 27,39  Z  " style="fill:rgb(130, 202, 121); fill-opacity:1.000; stroke:none;" />
 <path d="  M 29,11  L 30,11  L 30,10  L 31,10  L 31,9  L 28,9  L 28,10  L 29,10  Z  " style="fill:rgb(130, 202, 121); fill-opacity:1.000; stroke:none;" />
 <path d="  M 29,28  L 29,27  L 28,27  L 28,28  Z  " style="fill:rgb(130, 202, 121); fill-opacity:1.000; stroke:none;" />
 <path d="  M 29,36  L 29,35  L 28,35  L 28,36  Z  " style="fill:rgb(130, 202, 121); fill-opacity:1.000; stroke:none;" />
 <path d="  M 29,31  L 29,33  L 30,33  L 30,32  L 31,32  L 31,31  Z  " style="fill:rgb(130, 202, 121); fill-opacity:1.000; stroke:none;" />
 <path d="  M 30,11  L 30,12  L 31,12  L 31,11  Z  " style="fill:rgb(130, 202, 121); fill-opacity:1.000; stroke:none;" />
 <path d="  M 30,29  L 30,30  L 31,30  L 31,29  Z  " style="fill:rgb(130, 202, 121); fill-opacity:1.000; stroke:none;" />
 <path d="  M 30,34  L 30,35  L 31,35  L 31,34  Z  " style="fill:rgb(130, 202, 121); fill-opacity:1.000; stroke:none;" />
 <path d="  M 32,9  L 32,10  L 31,10  L 31,11  L 32,11  L 32,12  L 33,12  L 33,11  L 34,11  L 34,9  Z  " style="fill:rgb(130, 202, 121); fill-opacity:1.000; stroke:none;" />
 <path d="  M 31,14  L 32,14  L 32,13  L 31,13  Z  " style="fill:rgb(130, 202, 121); fill-opacity:1.000; stroke:none;" />
 <path d="  M 31,32  L 31,33  L 32,33  L 32,32  Z  " style="fill:rgb(130, 202, 121); fill-opacity:1.000; stroke:none;" />
 <path d="  M 32,31  L 32,32  L 33,32  L 33,31  Z  " style="fill:rgb(130, 202, 121); fill-opacity:1.000; stroke:none;" />
 <path d="  M 32,34  L 33,34  L 33,33  L 32,33  Z  " style="fill:rgb(130, 202, 121); fill-opacity:1.000; stroke:none;" />
 <path d="  M 33,14  L 33,15  L 34,15  L 34,14  Z  " style="fill:rgb(130, 202, 121); fill-opacity:1.000; stroke:none;" />
 <path d="  M 36,11  L 36,10  L 35,10  L 35,11  Z  " style="fill:rgb(130, 202, 121); fill-opacity:1.000; stroke:none;" />
 <path d="  M 36,14  L 36,13  L 35,13  L 35,14  Z  " style="fill:rgb(130, 202, 121); fill-opacity:1.000; stroke:none;" />
 <path d="  M 36,32  L 35,32  L 35,33  L 36,33  Z  " style="fill:rgb(130, 202, 121); fill-opacity:1.000; stroke:none;" />
 <path d="  M 37,12  L 37,11  L 36,11  L 36,12  Z  " style="fill:rgb(130, 202, 121); fill-opacity:1.000; stroke:none;" />
 <path d="  M 36,35  L 36,36  L 37,36  L 37,35  Z  " style="fill:rgb(130, 202, 121); fill-opacity:1.000; stroke:none;" />
 <path d="  M 38,37  L 38,36  L 37,36  L 37,37  Z  " style="fill:rgb(130, 202, 121); fill-opacity:1.000; stroke:none;" />
 <path d="  M 40,39  L 39,39  L 39,38  L 41,38  L 41,37  L 38,37  L 38,38  L 37,38  L 37,39  L 38,39  L 38,40  L 37,40  L 37,41  L 40,41  Z  " style="fill:rgb(130, 202, 121); fill-opacity:1.000; stroke:none;" />
 <path d="  M 38,12  L 38,13  L 40,13  L 40,12  Z  " style="fill:rgb(130, 202, 121); fill-opacity:1.000; stroke:none;" />
 <path d="  M 40,34  L 40,33  L 39,33  L 39,34  Z  " style="fill:rgb(130, 202, 121); fill-opacity:1.000; stroke:none;" />
 <path d="  M 40,13  L 40,14  L 41,14  L 41,13  Z  " style="fill:rgb(130, 202, 121); fill-opacity:1.000; stroke:none;" />
 <path d="  M 41,35  L 40,35  L 40,36  L 41,36  Z  " style="fill:rgb(130, 202, 121); fill-opacity:1.000; stroke:none;" />
 <path d="  M 41,13  L 42,13  L 42,12  L 41,12  Z  " style="fill:rgb(130, 202, 121); fill-opacity:1.000; stroke:none;" />
 <path d="  M 41,15  L 41,16  L 42,16  L 42,15  Z  " style="fill:rgb(130, 202, 121); fill-opacity:1.000; stroke:none;" />
 <path d="  M 41,37  L 42,37  L 42,36  L 41,36  Z  " style="fill:rgb(130, 202, 121); fill-opacity:1.000; stroke:none;" />
 <path d="  M 41,38  L 41,39  L 44,39  L 44,38  Z  " style="fill:rgb(130, 202, 121); fill-opacity:1.000; stroke:none;" />
 <path d="  M 44,14  L 43,14  L 43,13  L 42,13  L 42,15  L 44,15  Z  " style="fill:rgb(130, 202, 121); fill-opacity:1.000; stroke:none;" />
 <path d="  M 42,17  L 42,18  L 43,18  L 43,17  Z  " style="fill:rgb(130, 202, 121); fill-opacity:1.000; stroke:none;" />
 <path d="  M 43,33  L 42,33  L 42,34  L 43,34  Z  " style="fill:rgb(130, 202, 121); fill-opacity:1.000; stroke:none;" />
 <path d="  M 43,16  L 43,17  L 44,17  L 44,16  Z  " style="fill:rgb(130, 202, 121); fill-opacity:1.000; stroke:none;" />
 <path d="  M 44,35  L 44,34  L 43,34  L 43,35  Z  " style="fill:rgb(130, 202, 121); fill-opacity:1.000; stroke:none;" />
 <path d="  M 44,36  L 43,36  L 43,37  L 44,37  Z  " style="fill:rgb(130, 202, 121); fill-opacity:1.000; stroke:none;" />
 <path d="  M 45,13  L 44,13  L 44,14  L 45,14  Z  " style="fill:rgb(130, 202, 121); fill-opacity:1.000; stroke:none;" />
 <path d="  M 44,15  L 44,16  L 46,16  L 46,15  Z  " style="fill:rgb(130, 202, 121); fill-opacity:1.000; stroke:none;" />
 <path d="  M 44,37  L 44,38  L 45,38  L 45,37  Z  " style="fill:rgb(130, 202, 121); fill-opacity:1.000; stroke:none;" />
 <path d="  M 46,18  L 46,17  L 45,17  L 45,18  Z  " style="fill:rgb(130, 202, 121); fill-opacity:1.000; stroke:none;" />
 <path d="  M 46,21  L 46,20  L 45,20  L 45,21  Z  " style="fill:rgb(130, 202, 121); fill-opacity:1.000; stroke:none;" />
 <path d="  M 46,35  L 46,34  L 45,34  L 45,35  Z  " style="fill:rgb(130, 202, 121); fill-opacity:1.000; stroke:none;" />
 <path d="  M 46,32  L 47,32  L 47,31  L 46,31  Z  " style="fill:rgb(130, 202, 121); fill-opacity:1.000; stroke:none;" />
 <path d="  M 47,36  L 47,35  L 46,35  L 46,36  Z  " style="fill:rgb(130, 202, 121); fill-opacity:1.000; stroke:none;" />
 <path d="  M 47,19  L 48,19  L 48,16  L 47,16  Z  " style="fill:rgb(130, 202, 121); fill-opacity:1.000; stroke:none;" />
 <path d="  M 47,21  L 47,22  L 48,22  L 48,21  Z  " style="fill:rgb(130, 202, 121); fill-opacity:1.000; stroke:none;" />
 <path d="  M 47,26  L 47,27  L 48,27  L 48,26  Z  " style="fill:rgb(130, 202, 121); fill-opacity:1.000; stroke:none;" />
 <path d="  M 47,29  L 47,30  L 48,30  L 48,29  Z  " style="fill:rgb(130, 202, 121); fill-opacity:1.000; stroke:none;" />
 <path d="  M 48,34  L 48,33  L 47,33  L 47,34  Z  " style="fill:rgb(130, 202, 121); fill-opacity:1.000; stroke:none;" />
 <path d="  M 49,19  L 48,19  L 48,21  L 49,21  Z  " style="fill:rgb(130, 202, 121); fill-opacity:1.000; stroke:none;" />
 <path d="  M 49,28  L 48,28  L 48,29  L 49,29  Z  " style="fill:rgb(130, 202, 121); fill-opacity:1.000; stroke:none;" />
 <path d="  M 48,30  L 48,31  L 49,31  L 49,30  Z  " style="fill:rgb(130, 202, 121); fill-opacity:1.000; stroke:none;" />
 <path d="  M 49,33  L 49,32  L 48,32  L 48,33  Z  " style="fill:rgb(130, 202, 121); fill-opacity:1.000; stroke:none;" />
 <path d="  M 51,22  L 51,21  L 49,21  L 49,22  Z  " style="fill:rgb(130, 202, 121); fill-opacity:1.000; stroke:none;" />
 <path d="  M 50,24  L 50,23  L 49,23  L 49,24  Z  " style="fill:rgb(130, 202, 121); fill-opacity:1.000; stroke:none;" />
 <path d="  M 49,27  L 49,28  L 50,28  L 50,27  Z  " style="fill:rgb(130, 202, 121); fill-opacity:1.000; stroke:none;" />
 <path d="  M 51,24  L 50,24  L 50,27  L 51,27  Z  " style="fill:rgb(130, 202, 121); fill-opacity:1.000; stroke:none;" />
 <path d="  M 9,31  L 11,31  L 11,30  L 9,30  Z  " style="fill:rgb(140, 215, 130); fill-opacity:1.000; stroke:none;" />
 <path d="  M 11,25  L 11,24  L 10,24  L 10,25  Z  " style="fill:rgb(140, 215, 130); fill-opacity:1.000; stroke:none;" />
 <path d="  M 29,36  L 28,36  L 28,35  L 29,35  Z  M 12,31  L 13,31  L 13,32  L 12,32  L 12,34  L 11,34  L 11,35  L 13,35  L 13,33  L 14,33  L 14,35  L 15,35  L 15,36  L 16,36  L 16,37  L 15,37  L 15,38  L 17,38  L 17,39  L 18,39  L 18,40  L 21,40  L 21,42  L 22,42  L 22,41  L 24,41  L 24,40  L 26,40  L 26,39  L 27,39  L 27,37  L 28,37  L 28,39  L 29,39  L 29,37  L 30,37  L 30,36  L 31,36  L 31,35  L 33,35  L 33,34  L 34,34  L 34,35  L 35,35  L 35,36  L 36,36  L 36,35  L 37,35  L 37,36  L 39,36  L 39,37  L 41,37  L 41,36  L 42,36  L 42,37  L 43,37  L 43,36  L 44,36  L 44,37  L 46,37  L 46,35  L 47,35  L 47,33  L 48,33  L 48,32  L 49,32  L 49,31  L 48,31  L 48,30  L 47,30  L 47,29  L 48,29  L 48,28  L 49,28  L 49,26  L 50,26  L 50,25  L 49,25  L 49,23  L 50,23  L 50,22  L 49,22  L 49,21  L 48,21  L 48,20  L 47,20  L 47,19  L 46,19  L 46,18  L 45,18  L 45,16  L 44,16  L 44,15  L 42,15  L 42,14  L 40,14  L 40,13  L 37,13  L 37,12  L 36,12  L 36,11  L 35,11  L 35,12  L 34,12  L 34,11  L 33,11  L 33,12  L 32,12  L 32,11  L 31,11  L 31,12  L 30,12  L 30,11  L 29,11  L 29,10  L 28,10  L 28,11  L 27,11  L 27,12  L 26,12  L 26,11  L 25,11  L 25,13  L 24,13  L 24,12  L 23,12  L 23,13  L 21,13  L 21,14  L 18,14  L 18,15  L 19,15  L 19,16  L 17,16  L 17,17  L 16,17  L 16,19  L 15,19  L 15,20  L 14,20  L 14,21  L 13,21  L 13,22  L 11,22  L 11,23  L 12,23  L 12,25  L 11,25  L 11,26  L 12,26  L 12,27  L 11,27  L 11,28  L 10,28  L 10,29  L 11,29  L 11,30  L 12,30  Z  M 42,15  L 42,16  L 41,16  L 41,15  Z  M 27,18  L 27,20  L 28,20  L 28,21  L 27,21  L 27,22  L 25,22  L 25,24  L 24,24  L 24,25  L 22,25  L 22,26  L 19,26  L 19,25  L 17,25  L 17,24  L 16,24  L 16,20  L 17,20  L 17,18  L 18,18  L 18,17  L 20,17  L 20,16  L 21,16  L 21,15  L 23,15  L 23,16  L 24,16  L 24,15  L 25,15  L 25,16  L 26,16  L 26,18  Z  M 29,28  L 28,28  L 28,27  L 29,27  Z  M 15,32  L 16,32  L 16,33  L 15,33  Z  M 31,31  L 31,32  L 30,32  L 30,33  L 29,33  L 29,31  Z  M 30,34  L 31,34  L 31,35  L 30,35  Z  M 35,13  L 36,13  L 36,14  L 35,14  Z  M 40,35  L 41,35  L 41,36  L 40,36  Z  M 46,34  L 46,35  L 45,35  L 45,34  Z  M 27,25  L 27,24  L 28,24  L 28,25  Z  M 32,32  L 32,31  L 33,31  L 33,32  Z  M 42,18  L 42,17  L 43,17  L 43,18  Z  M 25,38  L 25,39  L 24,39  L 24,38  Z  M 27,18  L 27,17  L 28,17  L 28,18  Z  M 28,30  L 28,29  L 29,29  L 29,30  Z  M 43,33  L 43,34  L 42,34  L 42,33  Z  M 31,32  L 32,32  L 32,33  L 31,33  Z  M 46,21  L 45,21  L 45,20  L 46,20  Z  M 32,14  L 31,14  L 31,13  L 32,13  Z  M 35,33  L 35,32  L 36,32  L 36,33  Z  M 47,22  L 47,21  L 48,21  L 48,22  Z  M 18,38  L 19,38  L 19,39  L 18,39  Z  M 46,31  L 47,31  L 47,32  L 46,32  Z  M 47,27  L 47,26  L 48,26  L 48,27  Z  M 25,38  L 25,37  L 26,37  L 26,38  Z  M 39,34  L 39,33  L 40,33  L 40,34  Z  M 34,15  L 33,15  L 33,14  L 34,14  Z  M 16,35  L 15,35  L 15,34  L 16,34  Z  M 30,29  L 31,29  L 31,30  L 30,30  Z  M 44,35  L 43,35  L 43,34  L 44,34  Z  M 23,40  L 22,40  L 22,39  L 23,39  Z  M 44,17  L 43,17  L 43,16  L 44,16  Z  M 33,33  L 33,34  L 32,34  L 32,33  Z  " style="fill:rgb(140, 215, 130); fill-opacity:1.000; stroke:none;" />
 <path d="  M 11,32  L 10,32  L 10,33  L 11,33  Z  " style="fill:rgb(140, 215, 130); fill-opacity:1.000; stroke:none;" />
 <path d="  M 11,32  L 12,32  L 12,31  L 11,31  Z  " style="fill:rgb(140, 215, 130); fill-opacity:1.000; stroke:none;" />
 <path d="  M 12,21  L 13,21  L 13,20  L 12,20  Z  " style="fill:rgb(140, 215, 130); fill-opacity:1.000; stroke:none;" />
 <path d="  M 13,36  L 12,36  L 12,37  L 13,37  Z  " style="fill:rgb(140, 215, 130); fill-opacity:1.000; stroke:none;" />
 <path d="  M 14,18  L 13,18  L 13,19  L 14,19  Z  " style="fill:rgb(140, 215, 130); fill-opacity:1.000; stroke:none;" />
 <path d="  M 14,35  L 13,35  L 13,36  L 14,36  Z  " style="fill:rgb(140, 215, 130); fill-opacity:1.000; stroke:none;" />
 <path d="  M 15,18  L 15,17  L 14,17  L 14,18  Z  " style="fill:rgb(140, 215, 130); fill-opacity:1.000; stroke:none;" />
 <path d="  M 15,37  L 15,36  L 14,36  L 14,37  Z  " style="fill:rgb(140, 215, 130); fill-opacity:1.000; stroke:none;" />
 <path d="  M 15,40  L 15,39  L 14,39  L 14,40  Z  " style="fill:rgb(140, 215, 130); fill-opacity:1.000; stroke:none;" />
 <path d="  M 16,17  L 16,16  L 15,16  L 15,17  Z  " style="fill:rgb(140, 215, 130); fill-opacity:1.000; stroke:none;" />
 <path d="  M 17,15  L 16,15  L 16,16  L 17,16  Z  " style="fill:rgb(140, 215, 130); fill-opacity:1.000; stroke:none;" />
 <path d="  M 17,39  L 16,39  L 16,40  L 17,40  Z  " style="fill:rgb(140, 215, 130); fill-opacity:1.000; stroke:none;" />
 <path d="  M 17,20  L 17,21  L 18,21  L 18,20  Z  " style="fill:rgb(140, 215, 130); fill-opacity:1.000; stroke:none;" />
 <path d="  M 17,23  L 17,24  L 18,24  L 18,23  Z  " style="fill:rgb(140, 215, 130); fill-opacity:1.000; stroke:none;" />
 <path d="  M 17,42  L 18,42  L 18,41  L 17,41  Z  " style="fill:rgb(140, 215, 130); fill-opacity:1.000; stroke:none;" />
 <path d="  M 20,42  L 19,42  L 19,43  L 20,43  Z  " style="fill:rgb(140, 215, 130); fill-opacity:1.000; stroke:none;" />
 <path d="  M 22,24  L 21,24  L 21,25  L 22,25  Z  " style="fill:rgb(140, 215, 130); fill-opacity:1.000; stroke:none;" />
 <path d="  M 23,23  L 23,24  L 24,24  L 24,23  Z  " style="fill:rgb(140, 215, 130); fill-opacity:1.000; stroke:none;" />
 <path d="  M 24,43  L 24,42  L 23,42  L 23,43  Z  " style="fill:rgb(140, 215, 130); fill-opacity:1.000; stroke:none;" />
 <path d="  M 26,42  L 26,41  L 25,41  L 25,42  Z  " style="fill:rgb(140, 215, 130); fill-opacity:1.000; stroke:none;" />
 <path d="  M 27,40  L 26,40  L 26,41  L 27,41  Z  " style="fill:rgb(140, 215, 130); fill-opacity:1.000; stroke:none;" />
 <path d="  M 28,39  L 27,39  L 27,40  L 28,40  Z  " style="fill:rgb(140, 215, 130); fill-opacity:1.000; stroke:none;" />
 <path d="  M 28,44  L 28,45  L 30,45  L 30,44  Z  " style="fill:rgb(140, 215, 130); fill-opacity:1.000; stroke:none;" />
 <path d="  M 30,42  L 30,41  L 29,41  L 29,42  Z  " style="fill:rgb(140, 215, 130); fill-opacity:1.000; stroke:none;" />
 <path d="  M 30,10  L 30,11  L 31,11  L 31,10  Z  " style="fill:rgb(140, 215, 130); fill-opacity:1.000; stroke:none;" />
 <path d="  M 32,10  L 32,9  L 31,9  L 31,10  Z  " style="fill:rgb(140, 215, 130); fill-opacity:1.000; stroke:none;" />
 <path d="  M 31,38  L 32,38  L 32,37  L 31,37  Z  " style="fill:rgb(140, 215, 130); fill-opacity:1.000; stroke:none;" />
 <path d="  M 33,40  L 32,40  L 32,41  L 33,41  Z  " style="fill:rgb(140, 215, 130); fill-opacity:1.000; stroke:none;" />
 <path d="  M 34,40  L 34,39  L 33,39  L 33,40  Z  " style="fill:rgb(140, 215, 130); fill-opacity:1.000; stroke:none;" />
 <path d="  M 34,45  L 34,44  L 33,44  L 33,45  Z  " style="fill:rgb(140, 215, 130); fill-opacity:1.000; stroke:none;" />
 <path d="  M 35,10  L 34,10  L 34,11  L 35,11  Z  " style="fill:rgb(140, 215, 130); fill-opacity:1.000; stroke:none;" />
 <path d="  M 37,36  L 36,36  L 36,37  L 37,37  Z  " style="fill:rgb(140, 215, 130); fill-opacity:1.000; stroke:none;" />
 <path d="  M 38,12  L 38,11  L 37,11  L 37,12  Z  " style="fill:rgb(140, 215, 130); fill-opacity:1.000; stroke:none;" />
 <path d="  M 37,40  L 38,40  L 38,39  L 37,39  Z  " style="fill:rgb(140, 215, 130); fill-opacity:1.000; stroke:none;" />
 <path d="  M 40,12  L 40,11  L 39,11  L 39,12  Z  " style="fill:rgb(140, 215, 130); fill-opacity:1.000; stroke:none;" />
 <path d="  M 40,42  L 39,42  L 39,43  L 40,43  Z  " style="fill:rgb(140, 215, 130); fill-opacity:1.000; stroke:none;" />
 <path d="  M 42,38  L 42,37  L 41,37  L 41,38  Z  " style="fill:rgb(140, 215, 130); fill-opacity:1.000; stroke:none;" />
 <path d="  M 42,41  L 43,41  L 43,40  L 42,40  Z  " style="fill:rgb(140, 215, 130); fill-opacity:1.000; stroke:none;" />
 <path d="  M 43,38  L 44,38  L 44,37  L 43,37  Z  " style="fill:rgb(140, 215, 130); fill-opacity:1.000; stroke:none;" />
 <path d="  M 46,18  L 47,18  L 47,17  L 46,17  Z  " style="fill:rgb(140, 215, 130); fill-opacity:1.000; stroke:none;" />
 <path d="  M 46,37  L 46,38  L 47,38  L 47,37  Z  " style="fill:rgb(140, 215, 130); fill-opacity:1.000; stroke:none;" />
 <path d="  M 48,36  L 48,35  L 47,35  L 47,36  Z  " style="fill:rgb(140, 215, 130); fill-opacity:1.000; stroke:none;" />
 <path d="  M 49,18  L 48,18  L 48,19  L 49,19  Z  " style="fill:rgb(140, 215, 130); fill-opacity:1.000; stroke:none;" />
 <path d="  M 48,30  L 49,30  L 49,29  L 48,29  Z  " style="fill:rgb(140, 215, 130); fill-opacity:1.000; stroke:none;" />
 <path d="  M 49,33  L 48,33  L 48,34  L 49,34  Z  " style="fill:rgb(140, 215, 130); fill-opacity:1.000; stroke:none;" />
 <path d="  M 49,20  L 49,21  L 50,21  L 50,20  Z  " style="fill:rgb(140, 215, 130); fill-opacity:1.000; stroke:none;" />
 <path d="  M 49,31  L 50,31  L 50,30  L 49,30  Z  " style="fill:rgb(140, 215, 130); fill-opacity:1.000; stroke:none;" />
 <path d="  M 49,32  L 49,33  L 50,33  L 50,32  Z  " style="fill:rgb(140, 215, 130); fill-opacity:1.000; stroke:none;" />
 <path d="  M 51,23  L 50,23  L 50,24  L 51,24  Z  " style="fill:rgb(140, 215, 130); fill-opacity:1.000; stroke:none;" />
 <path d="  M 51,29  L 51,28  L 50,28  L 50,29  Z  " style="fill:rgb(140, 215, 130); fill-opacity:1.000; stroke:none;" />
 <path d="  M 9,34  L 10,34  L 10,31  L 9,31  Z  " style="fill:rgb(118, 190, 109); fill-opacity:1.000; stroke:none;" />
 <path d="  M 11,25  L 10,25  L 10,26  L 11,26  Z  " style="fill:rgb(118, 190, 109); fill-opacity:1.000; stroke:none;" />
 <path d="  M 10,36  L 11,36  L 11,34  L 10,34  Z  " style="fill:rgb(118, 190, 109); fill-opacity:1.000; stroke:none;" />
 <path d="  M 11,40  L 11,39  L 10,39  L 10,40  Z  " style="fill:rgb(118, 190, 109); fill-opacity:1.000; stroke:none;" />
 <path d="  M 11,37  L 12,37  L 12,36  L 11,36  Z  " style="fill:rgb(118, 190, 109); fill-opacity:1.000; stroke:none;" />
 <path d="  M 12,38  L 13,38  L 13,37  L 12,37  Z  " style="fill:rgb(118, 190, 109); fill-opacity:1.000; stroke:none;" />
 <path d="  M 13,38  L 13,39  L 15,39  L 15,38  Z  " style="fill:rgb(118, 190, 109); fill-opacity:1.000; stroke:none;" />
 <path d="  M 15,18  L 14,18  L 14,19  L 15,19  Z  " style="fill:rgb(118, 190, 109); fill-opacity:1.000; stroke:none;" />
 <path d="  M 16,39  L 15,39  L 15,41  L 16,41  Z  " style="fill:rgb(118, 190, 109); fill-opacity:1.000; stroke:none;" />
 <path d="  M 16,41  L 16,42  L 17,42  L 17,41  Z  " style="fill:rgb(118, 190, 109); fill-opacity:1.000; stroke:none;" />
 <path d="  M 17,41  L 19,41  L 19,40  L 17,40  Z  " style="fill:rgb(118, 190, 109); fill-opacity:1.000; stroke:none;" />
 <path d="  M 17,42  L 17,43  L 19,43  L 19,42  Z  " style="fill:rgb(118, 190, 109); fill-opacity:1.000; stroke:none;" />
 <path d="  M 20,42  L 20,41  L 19,41  L 19,42  Z  " style="fill:rgb(118, 190, 109); fill-opacity:1.000; stroke:none;" />
 <path d="  M 20,42  L 20,44  L 22,44  L 22,45  L 24,45  L 24,44  L 23,44  L 23,43  L 22,43  L 22,42  Z  " style="fill:rgb(118, 190, 109); fill-opacity:1.000; stroke:none;" />
 <path d="  M 23,13  L 23,12  L 22,12  L 22,13  Z  " style="fill:rgb(118, 190, 109); fill-opacity:1.000; stroke:none;" />
 <path d="  M 23,41  L 22,41  L 22,42  L 23,42  Z  " style="fill:rgb(118, 190, 109); fill-opacity:1.000; stroke:none;" />
 <path d="  M 23,11  L 23,12  L 24,12  L 24,11  Z  " style="fill:rgb(118, 190, 109); fill-opacity:1.000; stroke:none;" />
 <path d="  M 24,13  L 25,13  L 25,12  L 24,12  Z  " style="fill:rgb(118, 190, 109); fill-opacity:1.000; stroke:none;" />
 <path d="  M 24,40  L 24,41  L 25,41  L 25,40  Z  " style="fill:rgb(118, 190, 109); fill-opacity:1.000; stroke:none;" />
 <path d="  M 25,43  L 24,43  L 24,44  L 25,44  Z  " style="fill:rgb(118, 190, 109); fill-opacity:1.000; stroke:none;" />
 <path d="  M 26,46  L 26,45  L 27,45  L 27,46  L 28,46  L 28,44  L 25,44  L 25,45  L 24,45  L 24,46  Z  " style="fill:rgb(118, 190, 109); fill-opacity:1.000; stroke:none;" />
 <path d="  M 25,10  L 25,11  L 26,11  L 26,10  Z  " style="fill:rgb(118, 190, 109); fill-opacity:1.000; stroke:none;" />
 <path d="  M 27,43  L 27,42  L 25,42  L 25,43  Z  " style="fill:rgb(118, 190, 109); fill-opacity:1.000; stroke:none;" />
 <path d="  M 26,12  L 27,12  L 27,11  L 26,11  Z  " style="fill:rgb(118, 190, 109); fill-opacity:1.000; stroke:none;" />
 <path d="  M 28,10  L 27,10  L 27,11  L 28,11  Z  " style="fill:rgb(118, 190, 109); fill-opacity:1.000; stroke:none;" />
 <path d="  M 28,25  L 28,24  L 27,24  L 27,25  Z  " style="fill:rgb(118, 190, 109); fill-opacity:1.000; stroke:none;" />
 <path d="  M 28,41  L 27,41  L 27,42  L 28,42  Z  " style="fill:rgb(118, 190, 109); fill-opacity:1.000; stroke:none;" />
 <path d="  M 28,29  L 28,30  L 29,30  L 29,29  Z  " style="fill:rgb(118, 190, 109); fill-opacity:1.000; stroke:none;" />
 <path d="  M 29,40  L 29,41  L 30,41  L 30,40  Z  " style="fill:rgb(118, 190, 109); fill-opacity:1.000; stroke:none;" />
 <path d="  M 30,44  L 30,43  L 29,43  L 29,44  Z  " style="fill:rgb(118, 190, 109); fill-opacity:1.000; stroke:none;" />
 <path d="  M 31,38  L 30,38  L 30,39  L 31,39  Z  " style="fill:rgb(118, 190, 109); fill-opacity:1.000; stroke:none;" />
 <path d="  M 30,41  L 30,42  L 31,42  L 31,41  Z  " style="fill:rgb(118, 190, 109); fill-opacity:1.000; stroke:none;" />
 <path d="  M 33,46  L 33,45  L 32,45  L 32,44  L 30,44  L 30,46  Z  " style="fill:rgb(118, 190, 109); fill-opacity:1.000; stroke:none;" />
 <path d="  M 32,40  L 32,39  L 31,39  L 31,40  Z  " style="fill:rgb(118, 190, 109); fill-opacity:1.000; stroke:none;" />
 <path d="  M 31,42  L 31,43  L 32,43  L 32,44  L 34,44  L 34,45  L 35,45  L 35,44  L 38,44  L 38,43  L 37,43  L 37,42  L 35,42  L 35,43  L 33,43  L 33,42  Z  " style="fill:rgb(118, 190, 109); fill-opacity:1.000; stroke:none;" />
 <path d="  M 33,37  L 32,37  L 32,38  L 33,38  Z  " style="fill:rgb(118, 190, 109); fill-opacity:1.000; stroke:none;" />
 <path d="  M 33,37  L 34,37  L 34,36  L 33,36  Z  " style="fill:rgb(118, 190, 109); fill-opacity:1.000; stroke:none;" />
 <path d="  M 35,12  L 35,11  L 34,11  L 34,12  Z  " style="fill:rgb(118, 190, 109); fill-opacity:1.000; stroke:none;" />
 <path d="  M 34,40  L 35,40  L 35,39  L 34,39  Z  " style="fill:rgb(118, 190, 109); fill-opacity:1.000; stroke:none;" />
 <path d="  M 35,9  L 35,10  L 36,10  L 36,9  Z  " style="fill:rgb(118, 190, 109); fill-opacity:1.000; stroke:none;" />
 <path d="  M 37,41  L 37,40  L 35,40  L 35,41  Z  " style="fill:rgb(118, 190, 109); fill-opacity:1.000; stroke:none;" />
 <path d="  M 36,10  L 36,11  L 37,11  L 37,10  Z  " style="fill:rgb(118, 190, 109); fill-opacity:1.000; stroke:none;" />
 <path d="  M 37,12  L 37,13  L 38,13  L 38,12  Z  " style="fill:rgb(118, 190, 109); fill-opacity:1.000; stroke:none;" />
 <path d="  M 37,37  L 37,38  L 38,38  L 38,37  Z  " style="fill:rgb(118, 190, 109); fill-opacity:1.000; stroke:none;" />
 <path d="  M 37,41  L 37,42  L 38,42  L 38,43  L 39,43  L 39,42  L 40,42  L 40,41  Z  " style="fill:rgb(118, 190, 109); fill-opacity:1.000; stroke:none;" />
 <path d="  M 40,10  L 38,10  L 38,12  L 39,12  L 39,11  L 40,11  Z  " style="fill:rgb(118, 190, 109); fill-opacity:1.000; stroke:none;" />
 <path d="  M 38,36  L 38,37  L 39,37  L 39,36  Z  " style="fill:rgb(118, 190, 109); fill-opacity:1.000; stroke:none;" />
 <path d="  M 39,39  L 40,39  L 40,41  L 41,41  L 41,42  L 42,42  L 42,39  L 41,39  L 41,38  L 39,38  Z  " style="fill:rgb(118, 190, 109); fill-opacity:1.000; stroke:none;" />
 <path d="  M 41,13  L 41,11  L 40,11  L 40,13  Z  " style="fill:rgb(118, 190, 109); fill-opacity:1.000; stroke:none;" />
 <path d="  M 41,13  L 41,14  L 42,14  L 42,13  Z  " style="fill:rgb(118, 190, 109); fill-opacity:1.000; stroke:none;" />
 <path d="  M 43,12  L 42,12  L 42,13  L 43,13  Z  " style="fill:rgb(118, 190, 109); fill-opacity:1.000; stroke:none;" />
 <path d="  M 42,38  L 43,38  L 43,37  L 42,37  Z  " style="fill:rgb(118, 190, 109); fill-opacity:1.000; stroke:none;" />
 <path d="  M 44,13  L 43,13  L 43,14  L 44,14  Z  " style="fill:rgb(118, 190, 109); fill-opacity:1.000; stroke:none;" />
 <path d="  M 43,41  L 44,41  L 44,40  L 45,40  L 45,39  L 46,39  L 46,37  L 45,37  L 45,38  L 44,38  L 44,39  L 43,39  Z  " style="fill:rgb(118, 190, 109); fill-opacity:1.000; stroke:none;" />
 <path d="  M 46,15  L 46,14  L 44,14  L 44,15  Z  " style="fill:rgb(118, 190, 109); fill-opacity:1.000; stroke:none;" />
 <path d="  M 46,15  L 46,16  L 45,16  L 45,17  L 47,17  L 47,15  Z  " style="fill:rgb(118, 190, 109); fill-opacity:1.000; stroke:none;" />
 <path d="  M 47,19  L 47,18  L 46,18  L 46,19  Z  " style="fill:rgb(118, 190, 109); fill-opacity:1.000; stroke:none;" />
 <path d="  M 47,36  L 46,36  L 46,37  L 47,37  Z  " style="fill:rgb(118, 190, 109); fill-opacity:1.000; stroke:none;" />
 <path d="  M 47,19  L 47,20  L 48,20  L 48,19  Z  " style="fill:rgb(118, 190, 109); fill-opacity:1.000; stroke:none;" />
 <path d="  M 47,34  L 47,35  L 48,35  L 48,34  Z  " style="fill:rgb(118, 190, 109); fill-opacity:1.000; stroke:none;" />
 <path d="  M 49,18  L 49,17  L 48,17  L 48,18  Z  " style="fill:rgb(118, 190, 109); fill-opacity:1.000; stroke:none;" />
 <path d="  M 50,18  L 49,18  L 49,20  L 50,20  L 50,21  L 51,21  L 51,19  L 50,19  Z  " style="fill:rgb(118, 190, 109); fill-opacity:1.000; stroke:none;" />
 <path d="  M 49,25  L 50,25  L 50,24  L 49,24  Z  " style="fill:rgb(118, 190, 109); fill-opacity:1.000; stroke:none;" />
 <path d="  M 50,27  L 50,26  L 49,26  L 49,27  Z  " style="fill:rgb(118, 190, 109); fill-opacity:1.000; stroke:none;" />
 <path d="  M 50,29  L 50,28  L 49,28  L 49,29  Z  " style="fill:rgb(118, 190, 109); fill-opacity:1.000; stroke:none;" />
 <path d="  M 50,29  L 50,30  L 51,30  L 51,29  Z  " style="fill:rgb(118, 190, 109); fill-opacity:1.000; stroke:none;" />
 <path d="  M 51,25  L 52,25  L 52,21  L 51,21  Z  " style="fill:rgb(118, 190, 109); fill-opacity:1.000; stroke:none;" />
 <path d="  M 9,36  L 10,36  L 10,35  L 9,35  Z  " style="fill:rgb(108, 173, 91); fill-opacity:1.000; stroke:none;" />
 <path d="  M 11,34  L 11,33  L 10,33  L 10,34  Z  " style="fill:rgb(108, 173, 91); fill-opacity:1.000; stroke:none;" />
 <path d="  M 10,37  L 11,37  L 11,36  L 10,36  Z  " style="fill:rgb(108, 173, 91); fill-opacity:1.000; stroke:none;" />
 <path d="  M 12,36  L 12,35  L 11,35  L 11,36  Z  " style="fill:rgb(108, 173, 91); fill-opacity:1.000; stroke:none;" />
 <path d="  M 11,37  L 11,38  L 12,38  L 12,37  Z  " style="fill:rgb(108, 173, 91); fill-opacity:1.000; stroke:none;" />
 <path d="  M 15,43  L 16,43  L 16,44  L 18,44  L 18,45  L 19,45  L 19,44  L 20,44  L 20,43  L 17,43  L 17,42  L 16,42  L 16,41  L 15,41  L 15,40  L 14,40  L 14,39  L 13,39  L 13,38  L 12,38  L 12,39  L 11,39  L 11,40  L 12,40  L 12,41  L 14,41  L 14,42  L 15,42  Z  " style="fill:rgb(108, 173, 91); fill-opacity:1.000; stroke:none;" />
 <path d="  M 11,41  L 11,42  L 12,42  L 12,41  Z  " style="fill:rgb(108, 173, 91); fill-opacity:1.000; stroke:none;" />
 <path d="  M 12,43  L 12,44  L 13,44  L 13,43  Z  " style="fill:rgb(108, 173, 91); fill-opacity:1.000; stroke:none;" />
 <path d="  M 14,37  L 13,37  L 13,38  L 14,38  Z  " style="fill:rgb(108, 173, 91); fill-opacity:1.000; stroke:none;" />
 <path d="  M 13,44  L 13,45  L 14,45  L 14,44  Z  " style="fill:rgb(108, 173, 91); fill-opacity:1.000; stroke:none;" />
 <path d="  M 14,46  L 14,47  L 15,47  L 15,46  Z  " style="fill:rgb(108, 173, 91); fill-opacity:1.000; stroke:none;" />
 <path d="  M 16,48  L 16,47  L 15,47  L 15,48  Z  " style="fill:rgb(108, 173, 91); fill-opacity:1.000; stroke:none;" />
 <path d="  M 17,40  L 16,40  L 16,41  L 17,41  Z  " style="fill:rgb(108, 173, 91); fill-opacity:1.000; stroke:none;" />
 <path d="  M 16,49  L 17,49  L 17,48  L 16,48  Z  " style="fill:rgb(108, 173, 91); fill-opacity:1.000; stroke:none;" />
 <path d="  M 17,50  L 18,50  L 18,49  L 17,49  Z  " style="fill:rgb(108, 173, 91); fill-opacity:1.000; stroke:none;" />
 <path d="  M 18,41  L 18,42  L 19,42  L 19,41  Z  " style="fill:rgb(108, 173, 91); fill-opacity:1.000; stroke:none;" />
 <path d="  M 18,50  L 18,51  L 20,51  L 20,50  Z  " style="fill:rgb(108, 173, 91); fill-opacity:1.000; stroke:none;" />
 <path d="  M 47,36  L 47,38  L 46,38  L 46,39  L 45,39  L 45,40  L 44,40  L 44,41  L 42,41  L 42,42  L 41,42  L 41,41  L 40,41  L 40,43  L 38,43  L 38,44  L 35,44  L 35,45  L 33,45  L 33,46  L 30,46  L 30,45  L 28,45  L 28,46  L 27,46  L 27,45  L 26,45  L 26,46  L 24,46  L 24,45  L 22,45  L 22,44  L 20,44  L 20,45  L 21,45  L 21,46  L 23,46  L 23,47  L 26,47  L 26,48  L 27,48  L 27,49  L 28,49  L 28,48  L 29,48  L 29,47  L 30,47  L 30,48  L 31,48  L 31,47  L 32,47  L 32,49  L 33,49  L 33,48  L 35,48  L 35,47  L 36,47  L 36,46  L 37,46  L 37,45  L 38,45  L 38,46  L 39,46  L 39,45  L 40,45  L 40,44  L 42,44  L 42,43  L 43,43  L 43,42  L 46,42  L 46,41  L 47,41  L 47,40  L 48,40  L 48,38  L 49,38  L 49,37  L 50,37  L 50,35  L 51,35  L 51,34  L 50,34  L 50,33  L 49,33  L 49,34  L 48,34  L 48,36  Z  " style="fill:rgb(108, 173, 91); fill-opacity:1.000; stroke:none;" />
 <path d="  M 20,46  L 20,47  L 21,47  L 21,46  Z  " style="fill:rgb(108, 173, 91); fill-opacity:1.000; stroke:none;" />
 <path d="  M 23,47  L 22,47  L 22,48  L 23,48  Z  " style="fill:rgb(108, 173, 91); fill-opacity:1.000; stroke:none;" />
 <path d="  M 24,45  L 25,45  L 25,44  L 24,44  Z  " style="fill:rgb(108, 173, 91); fill-opacity:1.000; stroke:none;" />
 <path d="  M 26,48  L 25,48  L 25,49  L 26,49  Z  " style="fill:rgb(108, 173, 91); fill-opacity:1.000; stroke:none;" />
 <path d="  M 33,44  L 32,44  L 32,45  L 33,45  Z  " style="fill:rgb(108, 173, 91); fill-opacity:1.000; stroke:none;" />
 <path d="  M 35,9  L 34,9  L 34,10  L 35,10  Z  " style="fill:rgb(108, 173, 91); fill-opacity:1.000; stroke:none;" />
 <path d="  M 36,55  L 36,54  L 34,54  L 34,55  Z  " style="fill:rgb(108, 173, 91); fill-opacity:1.000; stroke:none;" />
 <path d="  M 35,49  L 36,49  L 36,48  L 35,48  Z  " style="fill:rgb(108, 173, 91); fill-opacity:1.000; stroke:none;" />
 <path d="  M 38,11  L 38,10  L 37,10  L 37,11  Z  " style="fill:rgb(108, 173, 91); fill-opacity:1.000; stroke:none;" />
 <path d="  M 38,43  L 38,42  L 37,42  L 37,43  Z  " style="fill:rgb(108, 173, 91); fill-opacity:1.000; stroke:none;" />
 <path d="  M 37,46  L 37,47  L 38,47  L 38,46  Z  " style="fill:rgb(108, 173, 91); fill-opacity:1.000; stroke:none;" />
 <path d="  M 39,54  L 40,54  L 40,53  L 39,53  Z  " style="fill:rgb(108, 173, 91); fill-opacity:1.000; stroke:none;" />
 <path d="  M 41,46  L 41,45  L 40,45  L 40,46  Z  " style="fill:rgb(108, 173, 91); fill-opacity:1.000; stroke:none;" />
 <path d="  M 42,52  L 41,52  L 41,53  L 42,53  Z  " style="fill:rgb(108, 173, 91); fill-opacity:1.000; stroke:none;" />
 <path d="  M 43,39  L 42,39  L 42,40  L 43,40  Z  " style="fill:rgb(108, 173, 91); fill-opacity:1.000; stroke:none;" />
 <path d="  M 42,45  L 43,45  L 43,44  L 42,44  Z  " style="fill:rgb(108, 173, 91); fill-opacity:1.000; stroke:none;" />
 <path d="  M 44,43  L 43,43  L 43,44  L 44,44  Z  " style="fill:rgb(108, 173, 91); fill-opacity:1.000; stroke:none;" />
 <path d="  M 44,52  L 44,51  L 43,51  L 43,52  Z  " style="fill:rgb(108, 173, 91); fill-opacity:1.000; stroke:none;" />
 <path d="  M 46,50  L 45,50  L 45,51  L 46,51  Z  " style="fill:rgb(108, 173, 91); fill-opacity:1.000; stroke:none;" />
 <path d="  M 46,42  L 46,43  L 47,43  L 47,42  Z  " style="fill:rgb(108, 173, 91); fill-opacity:1.000; stroke:none;" />
 <path d="  M 46,50  L 47,50  L 47,49  L 46,49  Z  " style="fill:rgb(108, 173, 91); fill-opacity:1.000; stroke:none;" />
 <path d="  M 47,49  L 48,49  L 48,48  L 47,48  Z  " style="fill:rgb(108, 173, 91); fill-opacity:1.000; stroke:none;" />
 <path d="  M 49,17  L 49,16  L 48,16  L 48,17  Z  " style="fill:rgb(108, 173, 91); fill-opacity:1.000; stroke:none;" />
 <path d="  M 49,48  L 49,47  L 48,47  L 48,48  Z  " style="fill:rgb(108, 173, 91); fill-opacity:1.000; stroke:none;" />
 <path d="  M 50,29  L 49,29  L 49,30  L 50,30  Z  " style="fill:rgb(108, 173, 91); fill-opacity:1.000; stroke:none;" />
 <path d="  M 50,30  L 50,31  L 49,31  L 49,32  L 50,32  L 50,33  L 51,33  L 51,30  Z  " style="fill:rgb(108, 173, 91); fill-opacity:1.000; stroke:none;" />
 <path d="  M 50,47  L 50,46  L 49,46  L 49,47  Z  " style="fill:rgb(108, 173, 91); fill-opacity:1.000; stroke:none;" />
 <path d="  M 50,23  L 51,23  L 51,22  L 50,22  Z  " style="fill:rgb(108, 173, 91); fill-opacity:1.000; stroke:none;" />
 <path d="  M 51,28  L 51,27  L 50,27  L 50,28  Z  " style="fill:rgb(108, 173, 91); fill-opacity:1.000; stroke:none;" />
 <path d="  M 52,27  L 52,25  L 51,25  L 51,27  Z  " style="fill:rgb(108, 173, 91); fill-opacity:1.000; stroke:none;" />
 <path d="  M 51,30  L 52,30  L 52,28  L 51,28  Z  " style="fill:rgb(108, 173, 91); fill-opacity:1.000; stroke:none;" />
 <path d="  M 51,44  L 52,44  L 52,43  L 51,43  Z  " style="fill:rgb(108, 173, 91); fill-opacity:1.000; stroke:none;" />
 <path d="  M 52,41  L 52,42  L 53,42  L 53,41  Z  " style="fill:rgb(108, 173, 91); fill-opacity:1.000; stroke:none;" />
 <path d="  M 53,40  L 54,40  L 54,38  L 53,38  Z  " style="fill:rgb(108, 173, 91); fill-opacity:1.000; stroke:none;" />
 <path d="  M 55,35  L 55,34  L 54,34  L 54,35  Z  " style="fill:rgb(108, 173, 91); fill-opacity:1.000; stroke:none;" />
 <path d="  M 11,39  L 11,38  L 10,38  L 10,39  Z  " style="fill:rgb(96, 156, 88); fill-opacity:1.000; stroke:none;" />
 <path d="  M 13,42  L 12,42  L 12,43  L 13,43  Z  " style="fill:rgb(96, 156, 88); fill-opacity:1.000; stroke:none;" />
 <path d="  M 15,46  L 15,45  L 13,45  L 13,46  Z  " style="fill:rgb(96, 156, 88); fill-opacity:1.000; stroke:none;" />
 <path d="  M 20,51  L 20,52  L 21,52  L 21,51  Z  " style="fill:rgb(96, 156, 88); fill-opacity:1.000; stroke:none;" />
 <path d="  M 22,53  L 23,53  L 23,52  L 22,52  Z  " style="fill:rgb(96, 156, 88); fill-opacity:1.000; stroke:none;" />
 <path d="  M 25,54  L 25,53  L 24,53  L 24,54  Z  " style="fill:rgb(96, 156, 88); fill-opacity:1.000; stroke:none;" />
 <path d="  M 27,53  L 26,53  L 26,54  L 27,54  Z  " style="fill:rgb(96, 156, 88); fill-opacity:1.000; stroke:none;" />
 <path d="  M 29,55  L 29,54  L 28,54  L 28,55  Z  " style="fill:rgb(96, 156, 88); fill-opacity:1.000; stroke:none;" />
 <path d="  M 30,55  L 31,55  L 31,54  L 30,54  Z  " style="fill:rgb(96, 156, 88); fill-opacity:1.000; stroke:none;" />
 <path d="  M 33,55  L 34,55  L 34,54  L 33,54  Z  " style="fill:rgb(96, 156, 88); fill-opacity:1.000; stroke:none;" />
 <path d="  M 38,53  L 38,54  L 39,54  L 39,53  Z  " style="fill:rgb(96, 156, 88); fill-opacity:1.000; stroke:none;" />
 <path d="  M 41,53  L 41,52  L 40,52  L 40,53  Z  " style="fill:rgb(96, 156, 88); fill-opacity:1.000; stroke:none;" />
 <path d="  M 42,11  L 41,11  L 41,12  L 42,12  Z  " style="fill:rgb(96, 156, 88); fill-opacity:1.000; stroke:none;" />
 <path d="  M 43,51  L 42,51  L 42,52  L 43,52  Z  " style="fill:rgb(96, 156, 88); fill-opacity:1.000; stroke:none;" />
 <path d="  M 44,13  L 44,12  L 43,12  L 43,13  Z  " style="fill:rgb(96, 156, 88); fill-opacity:1.000; stroke:none;" />
 <path d="  M 45,51  L 45,50  L 44,50  L 44,51  Z  " style="fill:rgb(96, 156, 88); fill-opacity:1.000; stroke:none;" />
 <path d="  M 46,14  L 46,13  L 45,13  L 45,14  Z  " style="fill:rgb(96, 156, 88); fill-opacity:1.000; stroke:none;" />
 <path d="  M 46,49  L 45,49  L 45,50  L 46,50  Z  " style="fill:rgb(96, 156, 88); fill-opacity:1.000; stroke:none;" />
 <path d="  M 47,14  L 46,14  L 46,15  L 47,15  Z  " style="fill:rgb(96, 156, 88); fill-opacity:1.000; stroke:none;" />
 <path d="  M 47,49  L 47,48  L 46,48  L 46,49  Z  " style="fill:rgb(96, 156, 88); fill-opacity:1.000; stroke:none;" />
 <path d="  M 48,16  L 48,15  L 47,15  L 47,16  Z  " style="fill:rgb(96, 156, 88); fill-opacity:1.000; stroke:none;" />
 <path d="  M 48,47  L 49,47  L 49,46  L 48,46  Z  " style="fill:rgb(96, 156, 88); fill-opacity:1.000; stroke:none;" />
 <path d="  M 49,18  L 50,18  L 50,17  L 49,17  Z  " style="fill:rgb(96, 156, 88); fill-opacity:1.000; stroke:none;" />
 <path d="  M 50,45  L 49,45  L 49,46  L 51,46  L 51,44  L 50,44  Z  " style="fill:rgb(96, 156, 88); fill-opacity:1.000; stroke:none;" />
 <path d="  M 51,19  L 51,18  L 50,18  L 50,19  Z  " style="fill:rgb(96, 156, 88); fill-opacity:1.000; stroke:none;" />
 <path d="  M 52,21  L 52,20  L 51,20  L 51,21  Z  " style="fill:rgb(96, 156, 88); fill-opacity:1.000; stroke:none;" />
 <path d="  M 51,42  L 51,43  L 52,43  L 52,42  Z  " style="fill:rgb(96, 156, 88); fill-opacity:1.000; stroke:none;" />
 <path d="  M 53,23  L 53,22  L 52,22  L 52,23  Z  " style="fill:rgb(96, 156, 88); fill-opacity:1.000; stroke:none;" />
 <path d="  M 52,41  L 53,41  L 53,40  L 52,40  Z  " style="fill:rgb(96, 156, 88); fill-opacity:1.000; stroke:none;" />
 <path d="  M 54,37  L 53,37  L 53,38  L 54,38  Z  " style="fill:rgb(96, 156, 88); fill-opacity:1.000; stroke:none;" />
 <path d="  M 55,28  L 54,28  L 54,31  L 55,31  Z  " style="fill:rgb(96, 156, 88); fill-opacity:1.000; stroke:none;" />
 <path d="  M 55,32  L 54,32  L 54,34  L 55,34  Z  " style="fill:rgb(96, 156, 88); fill-opacity:1.000; stroke:none;" />
 <path d="  M 12,41  L 12,40  L 11,40  L 11,41  Z  " style="fill:rgb(87, 145, 79); fill-opacity:1.000; stroke:none;" />
 <path d="  M 16,43  L 15,43  L 15,42  L 14,42  L 14,41  L 13,41  L 13,43  L 14,43  L 14,44  L 15,44  L 15,45  L 16,45  Z  " style="fill:rgb(87, 145, 79); fill-opacity:1.000; stroke:none;" />
 <path d="  M 19,45  L 18,45  L 18,44  L 17,44  L 17,45  L 16,45  L 16,46  L 15,46  L 15,47  L 16,47  L 16,48  L 17,48  L 17,47  L 18,47  L 18,48  L 19,48  L 19,49  L 18,49  L 18,50  L 20,50  L 20,49  L 21,49  L 21,48  L 22,48  L 22,47  L 23,47  L 23,46  L 21,46  L 21,45  L 20,45  L 20,44  L 19,44  Z  M 19,47  L 18,47  L 18,46  L 19,46  Z  M 20,47  L 20,46  L 21,46  L 21,47  Z  " style="fill:rgb(87, 145, 79); fill-opacity:1.000; stroke:none;" />
 <path d="  M 18,49  L 18,48  L 17,48  L 17,49  Z  " style="fill:rgb(87, 145, 79); fill-opacity:1.000; stroke:none;" />
 <path d="  M 20,51  L 21,51  L 21,50  L 20,50  Z  " style="fill:rgb(87, 145, 79); fill-opacity:1.000; stroke:none;" />
 <path d="  M 41,45  L 41,46  L 40,46  L 40,45  Z  M 37,47  L 37,46  L 36,46  L 36,47  L 35,47  L 35,48  L 33,48  L 33,49  L 32,49  L 32,47  L 31,47  L 31,48  L 30,48  L 30,47  L 29,47  L 29,48  L 28,48  L 28,49  L 27,49  L 27,48  L 26,48  L 26,47  L 23,47  L 23,48  L 22,48  L 22,49  L 21,49  L 21,50  L 23,50  L 23,51  L 24,51  L 24,50  L 25,50  L 25,51  L 26,51  L 26,52  L 27,52  L 27,51  L 28,51  L 28,50  L 29,50  L 29,51  L 30,51  L 30,52  L 31,52  L 31,51  L 32,51  L 32,52  L 35,52  L 35,51  L 36,51  L 36,50  L 37,50  L 37,51  L 38,51  L 38,49  L 40,49  L 40,48  L 41,48  L 41,49  L 42,49  L 42,47  L 43,47  L 43,46  L 44,46  L 44,47  L 45,47  L 45,46  L 46,46  L 46,45  L 47,45  L 47,44  L 48,44  L 48,42  L 49,42  L 49,41  L 48,41  L 48,40  L 47,40  L 47,41  L 46,41  L 46,42  L 43,42  L 43,43  L 44,43  L 44,44  L 43,44  L 43,45  L 42,45  L 42,44  L 40,44  L 40,45  L 39,45  L 39,46  L 38,46  L 38,47  Z  M 32,51  L 32,50  L 33,50  L 33,51  Z  M 35,51  L 34,51  L 34,50  L 35,50  Z  M 46,43  L 46,42  L 47,42  L 47,43  Z  M 36,48  L 36,49  L 35,49  L 35,48  Z  M 46,44  L 46,45  L 45,45  L 45,44  Z  M 24,49  L 23,49  L 23,48  L 24,48  Z  M 26,49  L 25,49  L 25,48  L 26,48  Z  " style="fill:rgb(87, 145, 79); fill-opacity:1.000; stroke:none;" />
 <path d="  M 21,51  L 21,52  L 23,52  L 23,51  Z  " style="fill:rgb(87, 145, 79); fill-opacity:1.000; stroke:none;" />
 <path d="  M 23,53  L 25,53  L 25,52  L 23,52  Z  " style="fill:rgb(87, 145, 79); fill-opacity:1.000; stroke:none;" />
 <path d="  M 25,54  L 26,54  L 26,53  L 25,53  Z  " style="fill:rgb(87, 145, 79); fill-opacity:1.000; stroke:none;" />
 <path d="  M 28,54  L 28,53  L 27,53  L 27,54  Z  " style="fill:rgb(87, 145, 79); fill-opacity:1.000; stroke:none;" />
 <path d="  M 29,52  L 29,51  L 28,51  L 28,52  Z  " style="fill:rgb(87, 145, 79); fill-opacity:1.000; stroke:none;" />
 <path d="  M 30,53  L 29,53  L 29,55  L 30,55  Z  " style="fill:rgb(87, 145, 79); fill-opacity:1.000; stroke:none;" />
 <path d="  M 32,54  L 32,53  L 31,53  L 31,54  Z  " style="fill:rgb(87, 145, 79); fill-opacity:1.000; stroke:none;" />
 <path d="  M 33,54  L 32,54  L 32,55  L 33,55  Z  " style="fill:rgb(87, 145, 79); fill-opacity:1.000; stroke:none;" />
 <path d="  M 35,54  L 35,53  L 34,53  L 34,54  Z  " style="fill:rgb(87, 145, 79); fill-opacity:1.000; stroke:none;" />
 <path d="  M 36,52  L 37,52  L 37,51  L 36,51  Z  " style="fill:rgb(87, 145, 79); fill-opacity:1.000; stroke:none;" />
 <path d="  M 37,52  L 37,53  L 36,53  L 36,54  L 38,54  L 38,53  L 39,53  L 39,52  Z  " style="fill:rgb(87, 145, 79); fill-opacity:1.000; stroke:none;" />
 <path d="  M 38,45  L 37,45  L 37,46  L 38,46  Z  " style="fill:rgb(87, 145, 79); fill-opacity:1.000; stroke:none;" />
 <path d="  M 41,49  L 40,49  L 40,50  L 41,50  Z  " style="fill:rgb(87, 145, 79); fill-opacity:1.000; stroke:none;" />
 <path d="  M 42,52  L 42,51  L 41,51  L 41,52  Z  " style="fill:rgb(87, 145, 79); fill-opacity:1.000; stroke:none;" />
 <path d="  M 43,44  L 43,43  L 42,43  L 42,44  Z  " style="fill:rgb(87, 145, 79); fill-opacity:1.000; stroke:none;" />
 <path d="  M 43,47  L 43,48  L 44,48  L 44,47  Z  " style="fill:rgb(87, 145, 79); fill-opacity:1.000; stroke:none;" />
 <path d="  M 44,51  L 44,49  L 43,49  L 43,51  Z  " style="fill:rgb(87, 145, 79); fill-opacity:1.000; stroke:none;" />
 <path d="  M 45,48  L 45,49  L 46,49  L 46,48  Z  " style="fill:rgb(87, 145, 79); fill-opacity:1.000; stroke:none;" />
 <path d="  M 48,47  L 46,47  L 46,48  L 48,48  Z  " style="fill:rgb(87, 145, 79); fill-opacity:1.000; stroke:none;" />
 <path d="  M 49,38  L 48,38  L 48,40  L 50,40  L 50,39  L 49,39  Z  " style="fill:rgb(87, 145, 79); fill-opacity:1.000; stroke:none;" />
 <path d="  M 49,45  L 48,45  L 48,46  L 49,46  Z  " style="fill:rgb(87, 145, 79); fill-opacity:1.000; stroke:none;" />
 <path d="  M 49,37  L 49,38  L 50,38  L 50,39  L 51,39  L 51,36  L 50,36  L 50,37  Z  " style="fill:rgb(87, 145, 79); fill-opacity:1.000; stroke:none;" />
 <path d="  M 49,45  L 50,45  L 50,44  L 49,44  Z  " style="fill:rgb(87, 145, 79); fill-opacity:1.000; stroke:none;" />
 <path d="  M 51,30  L 51,33  L 50,33  L 50,34  L 51,34  L 51,36  L 52,36  L 52,32  L 53,32  L 53,29  L 52,29  L 52,30  Z  " style="fill:rgb(87, 145, 79); fill-opacity:1.000; stroke:none;" />
 <path d="  M 50,44  L 51,44  L 51,43  L 50,43  Z  " style="fill:rgb(87, 145, 79); fill-opacity:1.000; stroke:none;" />
 <path d="  M 51,27  L 51,28  L 53,28  L 53,27  Z  " style="fill:rgb(87, 145, 79); fill-opacity:1.000; stroke:none;" />
 <path d="  M 52,42  L 52,40  L 51,40  L 51,42  Z  " style="fill:rgb(87, 145, 79); fill-opacity:1.000; stroke:none;" />
 <path d="  M 53,23  L 52,23  L 52,26  L 53,26  Z  " style="fill:rgb(87, 145, 79); fill-opacity:1.000; stroke:none;" />
 <path d="  M 52,39  L 53,39  L 53,38  L 52,38  Z  " style="fill:rgb(87, 145, 79); fill-opacity:1.000; stroke:none;" />
 <path d="  M 53,27  L 54,27  L 54,26  L 53,26  Z  " style="fill:rgb(87, 145, 79); fill-opacity:1.000; stroke:none;" />
 <path d="  M 53,34  L 53,35  L 54,35  L 54,34  Z  " style="fill:rgb(87, 145, 79); fill-opacity:1.000; stroke:none;" />
 <path d="  M 54,37  L 54,36  L 53,36  L 53,37  Z  " style="fill:rgb(87, 145, 79); fill-opacity:1.000; stroke:none;" />
 <path d="  M 55,31  L 54,31  L 54,32  L 55,32  Z  " style="fill:rgb(87, 145, 79); fill-opacity:1.000; stroke:none;" />
 <path d="  M 55,36  L 55,35  L 54,35  L 54,36  Z  " style="fill:rgb(87, 145, 79); fill-opacity:1.000; stroke:none;" />
 <path d="  M 16,22  L 17,22  L 17,20  L 16,20  Z  " style="fill:rgb(158, 227, 148); fill-opacity:1.000; stroke:none;" />
 <path d="  M 17,24  L 17,23  L 16,23  L 16,24  Z  " style="fill:rgb(158, 227, 148); fill-opacity:1.000; stroke:none;" />
 <path d="  M 18,20  L 18,19  L 17,19  L 17,20  Z  " style="fill:rgb(158, 227, 148); fill-opacity:1.000; stroke:none;" />
 <path d="  M 18,22  L 17,22  L 17,23  L 18,23  Z  " style="fill:rgb(158, 227, 148); fill-opacity:1.000; stroke:none;" />
 <path d="  M 19,19  L 19,18  L 18,18  L 18,19  Z  " style="fill:rgb(158, 227, 148); fill-opacity:1.000; stroke:none;" />
 <path d="  M 18,24  L 18,25  L 19,25  L 19,24  Z  " style="fill:rgb(158, 227, 148); fill-opacity:1.000; stroke:none;" />
 <path d="  M 20,17  L 19,17  L 19,18  L 20,18  Z  " style="fill:rgb(158, 227, 148); fill-opacity:1.000; stroke:none;" />
 <path d="  M 19,25  L 19,26  L 22,26  L 22,25  Z  " style="fill:rgb(158, 227, 148); fill-opacity:1.000; stroke:none;" />
 <path d="  M 20,16  L 20,17  L 21,17  L 21,16  Z  " style="fill:rgb(158, 227, 148); fill-opacity:1.000; stroke:none;" />
 <path d="  M 26,16  L 25,16  L 25,15  L 24,15  L 24,16  L 23,16  L 23,15  L 21,15  L 21,16  L 22,16  L 22,17  L 25,17  L 25,18  L 26,18  Z  " style="fill:rgb(158, 227, 148); fill-opacity:1.000; stroke:none;" />
 <path d="  M 22,24  L 22,25  L 23,25  L 23,24  Z  " style="fill:rgb(158, 227, 148); fill-opacity:1.000; stroke:none;" />
 <path d="  M 25,23  L 25,22  L 24,22  L 24,23  Z  " style="fill:rgb(158, 227, 148); fill-opacity:1.000; stroke:none;" />
 <path d="  M 25,22  L 27,22  L 27,21  L 28,21  L 28,20  L 27,20  L 27,18  L 26,18  L 26,21  L 25,21  Z  " style="fill:rgb(158, 227, 148); fill-opacity:1.000; stroke:none;" />
 <path d="  M 28,17  L 27,17  L 27,18  L 28,18  Z  " style="fill:rgb(158, 227, 148); fill-opacity:1.000; stroke:none;" />
 <path d="  M 17,22  L 16,22  L 16,23  L 17,23  Z  " style="fill:rgb(201, 254, 206); fill-opacity:1.000; stroke:none;" />
 <path d="  M 18,19  L 18,18  L 17,18  L 17,19  Z  " style="fill:rgb(201, 254, 206); fill-opacity:1.000; stroke:none;" />
 <path d="  M 17,22  L 18,22  L 18,21  L 17,21  Z  " style="fill:rgb(201, 254, 206); fill-opacity:1.000; stroke:none;" />
 <path d="  M 17,25  L 18,25  L 18,24  L 17,24  Z  " style="fill:rgb(201, 254, 206); fill-opacity:1.000; stroke:none;" />
 <path d="  M 18,17  L 18,18  L 19,18  L 19,17  Z  " style="fill:rgb(201, 254, 206); fill-opacity:1.000; stroke:none;" />
 <path d="  M 18,20  L 19,20  L 19,19  L 18,19  Z  " style="fill:rgb(201, 254, 206); fill-opacity:1.000; stroke:none;" />
 <path d="  M 19,24  L 19,23  L 18,23  L 18,24  Z  " style="fill:rgb(201, 254, 206); fill-opacity:1.000; stroke:none;" />
 <path d="  M 19,19  L 20,19  L 20,18  L 19,18  Z  " style="fill:rgb(201, 254, 206); fill-opacity:1.000; stroke:none;" />
 <path d="  M 19,25  L 21,25  L 21,24  L 19,24  Z  " style="fill:rgb(201, 254, 206); fill-opacity:1.000; stroke:none;" />
 <path d="  M 20,17  L 20,18  L 21,18  L 21,17  Z  " style="fill:rgb(201, 254, 206); fill-opacity:1.000; stroke:none;" />
 <path d="  M 21,16  L 21,17  L 22,17  L 22,16  Z  " style="fill:rgb(201, 254, 206); fill-opacity:1.000; stroke:none;" />
 <path d="  M 23,24  L 23,23  L 21,23  L 21,24  Z  " style="fill:rgb(201, 254, 206); fill-opacity:1.000; stroke:none;" />
 <path d="  M 23,22  L 23,23  L 24,23  L 24,22  Z  " style="fill:rgb(201, 254, 206); fill-opacity:1.000; stroke:none;" />
 <path d="  M 24,18  L 25,18  L 25,17  L 24,17  Z  " style="fill:rgb(201, 254, 206); fill-opacity:1.000; stroke:none;" />
 <path d="  M 24,21  L 24,22  L 25,22  L 25,21  Z  " style="fill:rgb(201, 254, 206); fill-opacity:1.000; stroke:none;" />
 <path d="  M 25,23  L 24,23  L 24,24  L 25,24  Z  " style="fill:rgb(201, 254, 206); fill-opacity:1.000; stroke:none;" />
 <path d="  M 25,21  L 26,21  L 26,18  L 25,18  Z  " style="fill:rgb(201, 254, 206); fill-opacity:1.000; stroke:none;" />
 <path d="  M 21,17  L 21,18  L 20,18  L 20,19  L 19,19  L 19,20  L 18,20  L 18,23  L 19,23  L 19,24  L 21,24  L 21,23  L 23,23  L 23,22  L 24,22  L 24,21  L 25,21  L 25,18  L 24,18  L 24,17  Z  " style="fill:rgb(255, 255, 255); fill-opacity:1.000; stroke:none;" />
 <path d="  M 25,52  L 25,51  L 23,51  L 23,52  Z  " style="fill:rgb(63, 111, 59); fill-opacity:1.000; stroke:none;" />
 <path d="  M 30,53  L 30,52  L 25,52  L 25,53  Z  " style="fill:rgb(63, 111, 59); fill-opacity:1.000; stroke:none;" />
 <path d="  M 32,51  L 31,51  L 31,52  L 32,52  Z  " style="fill:rgb(63, 111, 59); fill-opacity:1.000; stroke:none;" />
 <path d="  M 33,52  L 33,53  L 35,53  L 35,52  Z  " style="fill:rgb(63, 111, 59); fill-opacity:1.000; stroke:none;" />
 <path d="  M 36,53  L 37,53  L 37,52  L 36,52  Z  " style="fill:rgb(63, 111, 59); fill-opacity:1.000; stroke:none;" />
 <path d="  M 38,51  L 37,51  L 37,52  L 38,52  Z  " style="fill:rgb(63, 111, 59); fill-opacity:1.000; stroke:none;" />
 <path d="  M 38,50  L 38,51  L 40,51  L 40,50  Z  " style="fill:rgb(63, 111, 59); fill-opacity:1.000; stroke:none;" />
 <path d="  M 39,52  L 39,53  L 40,53  L 40,52  Z  " style="fill:rgb(63, 111, 59); fill-opacity:1.000; stroke:none;" />
 <path d="  M 41,50  L 41,51  L 42,51  L 42,50  Z  " style="fill:rgb(63, 111, 59); fill-opacity:1.000; stroke:none;" />
 <path d="  M 45,49  L 45,48  L 44,48  L 44,49  Z  " style="fill:rgb(63, 111, 59); fill-opacity:1.000; stroke:none;" />
 <path d="  M 46,48  L 46,47  L 45,47  L 45,48  Z  " style="fill:rgb(63, 111, 59); fill-opacity:1.000; stroke:none;" />
 <path d="  M 49,44  L 48,44  L 48,45  L 49,45  Z  " style="fill:rgb(63, 111, 59); fill-opacity:1.000; stroke:none;" />
 <path d="  M 49,43  L 50,43  L 50,41  L 49,41  Z  " style="fill:rgb(63, 111, 59); fill-opacity:1.000; stroke:none;" />
 <path d="  M 51,41  L 51,39  L 50,39  L 50,41  Z  " style="fill:rgb(63, 111, 59); fill-opacity:1.000; stroke:none;" />
 <path d="  M 53,34  L 52,34  L 52,36  L 51,36  L 51,37  L 53,37  Z  " style="fill:rgb(63, 111, 59); fill-opacity:1.000; stroke:none;" />
 <path d="  M 52,39  L 52,38  L 51,38  L 51,39  Z  " style="fill:rgb(63, 111, 59); fill-opacity:1.000; stroke:none;" />
 <path d="  M 53,31  L 54,31  L 54,27  L 53,27  Z  " style="fill:rgb(63, 111, 59); fill-opacity:1.000; stroke:none;" />
 <path d="  M 54,32  L 53,32  L 53,34  L 54,34  Z  " style="fill:rgb(63, 111, 59); fill-opacity:1.000; stroke:none;" />
 <path d="  M 36,39  L 37,39  L 37,38  L 36,38  Z  " style="fill:rgb(122, 195, 113); fill-opacity:1.000; stroke:none;" />
</svg>
