<?xml version="1.0" encoding="UTF-8" standalone="no"?>
<!DOCTYPE svg PUBLIC "-//W3C//DTD SVG 1.1//EN" 
  "http://www.w3.org/Graphics/SVG/1.1/DTD/svg11.dtd">
<svg width="64" height="64"
	 xmlns="http://www.w3.org/2000/svg" version="1.1">
 <path d="  M 7,43  L 11,43  L 11,49  L 12,49  L 12,39  L 11,39  L 11,42  L 6,42  L 6,58  L 58,58  L 58,42  L 53,42  L 53,39  L 52,39  L 52,49  L 53,49  L 53,43  L 57,43  L 57,57  L 7,57  Z  " style="fill:rgb(54, 43, 27); fill-opacity:1.000; stroke:none;" />
 <path d="  M 12,39  L 13,39  L 13,38  L 12,38  Z  " style="fill:rgb(54, 43, 27); fill-opacity:1.000; stroke:none;" />
 <path d="  M 13,49  L 12,49  L 12,50  L 13,50  Z  " style="fill:rgb(54, 43, 27); fill-opacity:1.000; stroke:none;" />
 <path d="  M 13,38  L 16,38  L 16,37  L 13,37  Z  " style="fill:rgb(54, 43, 27); fill-opacity:1.000; stroke:none;" />
 <path d="  M 23,51  L 23,50  L 13,50  L 13,51  Z  " style="fill:rgb(54, 43, 27); fill-opacity:1.000; stroke:none;" />
 <path d="  M 24,50  L 24,49  L 23,49  L 23,50  Z  " style="fill:rgb(54, 43, 27); fill-opacity:1.000; stroke:none;" />
 <path d="  M 39,47  L 39,49  L 40,49  L 40,43  L 39,43  L 39,46  L 25,46  L 25,43  L 24,43  L 24,49  L 25,49  L 25,47  Z  " style="fill:rgb(54, 43, 27); fill-opacity:1.000; stroke:none;" />
 <path d="  M 41,49  L 40,49  L 40,50  L 41,50  Z  " style="fill:rgb(54, 43, 27); fill-opacity:1.000; stroke:none;" />
 <path d="  M 51,51  L 51,50  L 41,50  L 41,51  Z  " style="fill:rgb(54, 43, 27); fill-opacity:1.000; stroke:none;" />
 <path d="  M 51,38  L 51,37  L 48,37  L 48,38  Z  " style="fill:rgb(54, 43, 27); fill-opacity:1.000; stroke:none;" />
 <path d="  M 52,39  L 52,38  L 51,38  L 51,39  Z  " style="fill:rgb(54, 43, 27); fill-opacity:1.000; stroke:none;" />
 <path d="  M 52,49  L 51,49  L 51,50  L 52,50  Z  " style="fill:rgb(54, 43, 27); fill-opacity:1.000; stroke:none;" />
 <path d="  M 7,43  L 7,44  L 8,44  L 8,43  Z  " style="fill:rgb(76, 61, 38); fill-opacity:1.000; stroke:none;" />
 <path d="  M 9,57  L 9,56  L 8,56  L 8,55  L 7,55  L 7,57  Z  " style="fill:rgb(76, 61, 38); fill-opacity:1.000; stroke:none;" />
 <path d="  M 9,44  L 8,44  L 8,45  L 9,45  Z  " style="fill:rgb(76, 61, 38); fill-opacity:1.000; stroke:none;" />
 <path d="  M 9,43  L 9,44  L 11,44  L 11,43  Z  " style="fill:rgb(76, 61, 38); fill-opacity:1.000; stroke:none;" />
 <path d="  M 11,56  L 11,57  L 12,57  L 12,56  Z  " style="fill:rgb(76, 61, 38); fill-opacity:1.000; stroke:none;" />
 <path d="  M 13,57  L 14,57  L 14,56  L 13,56  Z  " style="fill:rgb(76, 61, 38); fill-opacity:1.000; stroke:none;" />
 <path d="  M 18,56  L 18,57  L 29,57  L 29,56  Z  " style="fill:rgb(76, 61, 38); fill-opacity:1.000; stroke:none;" />
 <path d="  M 25,48  L 27,48  L 27,47  L 25,47  Z  " style="fill:rgb(76, 61, 38); fill-opacity:1.000; stroke:none;" />
 <path d="  M 31,47  L 31,48  L 34,48  L 34,47  Z  " style="fill:rgb(76, 61, 38); fill-opacity:1.000; stroke:none;" />
 <path d="  M 40,57  L 40,56  L 34,56  L 34,57  Z  " style="fill:rgb(76, 61, 38); fill-opacity:1.000; stroke:none;" />
 <path d="  M 39,48  L 39,47  L 38,47  L 38,48  Z  " style="fill:rgb(76, 61, 38); fill-opacity:1.000; stroke:none;" />
 <path d="  M 43,56  L 43,57  L 46,57  L 46,56  Z  " style="fill:rgb(76, 61, 38); fill-opacity:1.000; stroke:none;" />
 <path d="  M 57,55  L 56,55  L 56,56  L 50,56  L 50,57  L 57,57  Z  " style="fill:rgb(76, 61, 38); fill-opacity:1.000; stroke:none;" />
 <path d="  M 54,43  L 54,44  L 57,44  L 57,43  Z  " style="fill:rgb(76, 61, 38); fill-opacity:1.000; stroke:none;" />
 <path d="  M 7,47  L 8,47  L 8,46  L 9,46  L 9,45  L 8,45  L 8,44  L 7,44  Z  " style="fill:rgb(95, 74, 43); fill-opacity:1.000; stroke:none;" />
 <path d="  M 7,48  L 7,51  L 8,51  L 8,50  L 10,50  L 10,49  L 8,49  L 8,48  Z  " style="fill:rgb(95, 74, 43); fill-opacity:1.000; stroke:none;" />
 <path d="  M 8,55  L 8,54  L 9,54  L 9,53  L 7,53  L 7,55  Z  " style="fill:rgb(95, 74, 43); fill-opacity:1.000; stroke:none;" />
 <path d="  M 9,44  L 9,43  L 8,43  L 8,44  Z  " style="fill:rgb(95, 74, 43); fill-opacity:1.000; stroke:none;" />
 <path d="  M 9,45  L 10,45  L 10,44  L 9,44  Z  " style="fill:rgb(95, 74, 43); fill-opacity:1.000; stroke:none;" />
 <path d="  M 9,56  L 9,57  L 11,57  L 11,56  L 12,56  L 12,57  L 13,57  L 13,56  L 14,56  L 14,55  L 10,55  L 10,56  Z  " style="fill:rgb(95, 74, 43); fill-opacity:1.000; stroke:none;" />
 <path d="  M 10,45  L 10,46  L 11,46  L 11,45  Z  " style="fill:rgb(95, 74, 43); fill-opacity:1.000; stroke:none;" />
 <path d="  M 10,51  L 10,52  L 13,52  L 13,51  Z  " style="fill:rgb(95, 74, 43); fill-opacity:1.000; stroke:none;" />
 <path d="  M 14,54  L 14,55  L 17,55  L 17,54  Z  " style="fill:rgb(95, 74, 43); fill-opacity:1.000; stroke:none;" />
 <path d="  M 14,56  L 14,57  L 18,57  L 18,56  Z  " style="fill:rgb(95, 74, 43); fill-opacity:1.000; stroke:none;" />
 <path d="  M 18,52  L 18,51  L 15,51  L 15,52  Z  " style="fill:rgb(95, 74, 43); fill-opacity:1.000; stroke:none;" />
 <path d="  M 19,52  L 19,53  L 21,53  L 21,52  Z  " style="fill:rgb(95, 74, 43); fill-opacity:1.000; stroke:none;" />
 <path d="  M 21,51  L 21,52  L 23,52  L 23,51  Z  " style="fill:rgb(95, 74, 43); fill-opacity:1.000; stroke:none;" />
 <path d="  M 21,54  L 24,54  L 24,53  L 27,53  L 27,52  L 23,52  L 23,53  L 21,53  Z  " style="fill:rgb(95, 74, 43); fill-opacity:1.000; stroke:none;" />
 <path d="  M 24,50  L 23,50  L 23,51  L 24,51  Z  " style="fill:rgb(95, 74, 43); fill-opacity:1.000; stroke:none;" />
 <path d="  M 26,49  L 24,49  L 24,50  L 26,50  Z  " style="fill:rgb(95, 74, 43); fill-opacity:1.000; stroke:none;" />
 <path d="  M 25,55  L 24,55  L 24,56  L 25,56  Z  " style="fill:rgb(95, 74, 43); fill-opacity:1.000; stroke:none;" />
 <path d="  M 29,55  L 26,55  L 26,56  L 29,56  Z  " style="fill:rgb(95, 74, 43); fill-opacity:1.000; stroke:none;" />
 <path d="  M 30,49  L 31,49  L 31,47  L 27,47  L 27,48  L 30,48  Z  " style="fill:rgb(95, 74, 43); fill-opacity:1.000; stroke:none;" />
 <path d="  M 28,49  L 27,49  L 27,50  L 28,50  Z  " style="fill:rgb(95, 74, 43); fill-opacity:1.000; stroke:none;" />
 <path d="  M 30,52  L 30,51  L 31,51  L 31,50  L 28,50  L 28,51  L 27,51  L 27,52  Z  " style="fill:rgb(95, 74, 43); fill-opacity:1.000; stroke:none;" />
 <path d="  M 34,57  L 34,56  L 29,56  L 29,57  Z  " style="fill:rgb(95, 74, 43); fill-opacity:1.000; stroke:none;" />
 <path d="  M 33,49  L 33,48  L 32,48  L 32,49  Z  " style="fill:rgb(95, 74, 43); fill-opacity:1.000; stroke:none;" />
 <path d="  M 35,54  L 35,53  L 39,53  L 39,52  L 34,52  L 34,53  L 33,53  L 33,54  L 32,54  L 32,55  L 34,55  L 34,54  Z  " style="fill:rgb(95, 74, 43); fill-opacity:1.000; stroke:none;" />
 <path d="  M 34,56  L 37,56  L 37,55  L 34,55  Z  " style="fill:rgb(95, 74, 43); fill-opacity:1.000; stroke:none;" />
 <path d="  M 38,47  L 36,47  L 36,48  L 38,48  Z  " style="fill:rgb(95, 74, 43); fill-opacity:1.000; stroke:none;" />
 <path d="  M 37,45  L 37,46  L 39,46  L 39,45  Z  " style="fill:rgb(95, 74, 43); fill-opacity:1.000; stroke:none;" />
 <path d="  M 42,52  L 42,51  L 39,51  L 39,52  Z  " style="fill:rgb(95, 74, 43); fill-opacity:1.000; stroke:none;" />
 <path d="  M 42,55  L 42,54  L 40,54  L 40,55  Z  " style="fill:rgb(95, 74, 43); fill-opacity:1.000; stroke:none;" />
 <path d="  M 40,56  L 40,57  L 43,57  L 43,56  Z  " style="fill:rgb(95, 74, 43); fill-opacity:1.000; stroke:none;" />
 <path d="  M 46,56  L 46,57  L 50,57  L 50,56  Z  " style="fill:rgb(95, 74, 43); fill-opacity:1.000; stroke:none;" />
 <path d="  M 49,53  L 47,53  L 47,54  L 49,54  Z  " style="fill:rgb(95, 74, 43); fill-opacity:1.000; stroke:none;" />
 <path d="  M 49,53  L 50,53  L 50,52  L 49,52  Z  " style="fill:rgb(95, 74, 43); fill-opacity:1.000; stroke:none;" />
 <path d="  M 50,55  L 50,56  L 52,56  L 52,55  Z  " style="fill:rgb(95, 74, 43); fill-opacity:1.000; stroke:none;" />
 <path d="  M 52,51  L 54,51  L 54,52  L 57,52  L 57,48  L 56,48  L 56,51  L 55,51  L 55,49  L 54,49  L 54,50  L 52,50  Z  " style="fill:rgb(95, 74, 43); fill-opacity:1.000; stroke:none;" />
 <path d="  M 53,43  L 53,44  L 54,44  L 54,43  Z  " style="fill:rgb(95, 74, 43); fill-opacity:1.000; stroke:none;" />
 <path d="  M 56,45  L 57,45  L 57,44  L 54,44  L 54,45  L 53,45  L 53,46  L 56,46  Z  " style="fill:rgb(95, 74, 43); fill-opacity:1.000; stroke:none;" />
 <path d="  M 53,49  L 54,49  L 54,48  L 53,48  Z  " style="fill:rgb(95, 74, 43); fill-opacity:1.000; stroke:none;" />
 <path d="  M 53,53  L 53,54  L 54,54  L 54,55  L 55,55  L 55,54  L 56,54  L 56,53  Z  " style="fill:rgb(95, 74, 43); fill-opacity:1.000; stroke:none;" />
 <path d="  M 54,55  L 53,55  L 53,56  L 54,56  Z  " style="fill:rgb(95, 74, 43); fill-opacity:1.000; stroke:none;" />
 <path d="  M 56,47  L 57,47  L 57,46  L 56,46  Z  " style="fill:rgb(95, 74, 43); fill-opacity:1.000; stroke:none;" />
 <path d="  M 7,47  L 7,48  L 9,48  L 9,47  Z  " style="fill:rgb(116, 90, 54); fill-opacity:1.000; stroke:none;" />
 <path d="  M 8,54  L 8,56  L 10,56  L 10,54  Z  " style="fill:rgb(116, 90, 54); fill-opacity:1.000; stroke:none;" />
 <path d="  M 10,46  L 10,45  L 9,45  L 9,46  Z  " style="fill:rgb(116, 90, 54); fill-opacity:1.000; stroke:none;" />
 <path d="  M 10,52  L 10,51  L 9,51  L 9,52  Z  " style="fill:rgb(116, 90, 54); fill-opacity:1.000; stroke:none;" />
 <path d="  M 10,44  L 10,45  L 11,45  L 11,44  Z  " style="fill:rgb(116, 90, 54); fill-opacity:1.000; stroke:none;" />
 <path d="  M 13,51  L 13,50  L 11,50  L 11,51  Z  " style="fill:rgb(116, 90, 54); fill-opacity:1.000; stroke:none;" />
 <path d="  M 13,54  L 13,55  L 14,55  L 14,54  Z  " style="fill:rgb(116, 90, 54); fill-opacity:1.000; stroke:none;" />
 <path d="  M 14,52  L 15,52  L 15,51  L 14,51  Z  " style="fill:rgb(116, 90, 54); fill-opacity:1.000; stroke:none;" />
 <path d="  M 19,54  L 17,54  L 17,55  L 19,55  Z  " style="fill:rgb(116, 90, 54); fill-opacity:1.000; stroke:none;" />
 <path d="  M 18,51  L 18,52  L 21,52  L 21,51  Z  " style="fill:rgb(116, 90, 54); fill-opacity:1.000; stroke:none;" />
 <path d="  M 21,53  L 20,53  L 20,54  L 21,54  Z  " style="fill:rgb(116, 90, 54); fill-opacity:1.000; stroke:none;" />
 <path d="  M 21,52  L 21,53  L 23,53  L 23,52  Z  " style="fill:rgb(116, 90, 54); fill-opacity:1.000; stroke:none;" />
 <path d="  M 22,55  L 22,56  L 24,56  L 24,55  Z  " style="fill:rgb(116, 90, 54); fill-opacity:1.000; stroke:none;" />
 <path d="  M 27,52  L 27,51  L 23,51  L 23,52  Z  " style="fill:rgb(116, 90, 54); fill-opacity:1.000; stroke:none;" />
 <path d="  M 25,45  L 26,45  L 26,44  L 25,44  Z  " style="fill:rgb(116, 90, 54); fill-opacity:1.000; stroke:none;" />
 <path d="  M 27,50  L 27,48  L 25,48  L 25,49  L 26,49  L 26,50  Z  " style="fill:rgb(116, 90, 54); fill-opacity:1.000; stroke:none;" />
 <path d="  M 26,56  L 26,55  L 25,55  L 25,56  Z  " style="fill:rgb(116, 90, 54); fill-opacity:1.000; stroke:none;" />
 <path d="  M 27,51  L 28,51  L 28,50  L 27,50  Z  " style="fill:rgb(116, 90, 54); fill-opacity:1.000; stroke:none;" />
 <path d="  M 31,54  L 27,54  L 27,55  L 31,55  Z  " style="fill:rgb(116, 90, 54); fill-opacity:1.000; stroke:none;" />
 <path d="  M 30,50  L 30,48  L 29,48  L 29,49  L 28,49  L 28,50  Z  " style="fill:rgb(116, 90, 54); fill-opacity:1.000; stroke:none;" />
 <path d="  M 32,49  L 32,48  L 31,48  L 31,49  Z  " style="fill:rgb(116, 90, 54); fill-opacity:1.000; stroke:none;" />
 <path d="  M 31,52  L 33,52  L 33,51  L 31,51  Z  " style="fill:rgb(116, 90, 54); fill-opacity:1.000; stroke:none;" />
 <path d="  M 31,53  L 31,54  L 33,54  L 33,53  Z  " style="fill:rgb(116, 90, 54); fill-opacity:1.000; stroke:none;" />
 <path d="  M 36,48  L 36,47  L 34,47  L 34,48  L 35,48  L 35,49  L 37,49  L 37,48  Z  " style="fill:rgb(116, 90, 54); fill-opacity:1.000; stroke:none;" />
 <path d="  M 34,55  L 35,55  L 35,54  L 34,54  Z  " style="fill:rgb(116, 90, 54); fill-opacity:1.000; stroke:none;" />
 <path d="  M 38,53  L 36,53  L 36,54  L 38,54  Z  " style="fill:rgb(116, 90, 54); fill-opacity:1.000; stroke:none;" />
 <path d="  M 37,52  L 39,52  L 39,51  L 37,51  Z  " style="fill:rgb(116, 90, 54); fill-opacity:1.000; stroke:none;" />
 <path d="  M 38,56  L 38,55  L 37,55  L 37,56  Z  " style="fill:rgb(116, 90, 54); fill-opacity:1.000; stroke:none;" />
 <path d="  M 40,55  L 40,54  L 38,54  L 38,55  Z  " style="fill:rgb(116, 90, 54); fill-opacity:1.000; stroke:none;" />
 <path d="  M 40,49  L 39,49  L 39,50  L 40,50  Z  " style="fill:rgb(116, 90, 54); fill-opacity:1.000; stroke:none;" />
 <path d="  M 42,53  L 42,52  L 39,52  L 39,53  Z  " style="fill:rgb(116, 90, 54); fill-opacity:1.000; stroke:none;" />
 <path d="  M 40,51  L 41,51  L 41,50  L 40,50  Z  " style="fill:rgb(116, 90, 54); fill-opacity:1.000; stroke:none;" />
 <path d="  M 42,55  L 42,56  L 45,56  L 45,55  L 46,55  L 46,53  L 45,53  L 45,54  L 44,54  L 44,55  Z  " style="fill:rgb(116, 90, 54); fill-opacity:1.000; stroke:none;" />
 <path d="  M 44,51  L 44,52  L 45,52  L 45,51  Z  " style="fill:rgb(116, 90, 54); fill-opacity:1.000; stroke:none;" />
 <path d="  M 49,52  L 48,52  L 48,53  L 49,53  Z  " style="fill:rgb(116, 90, 54); fill-opacity:1.000; stroke:none;" />
 <path d="  M 51,54  L 51,53  L 49,53  L 49,54  Z  " style="fill:rgb(116, 90, 54); fill-opacity:1.000; stroke:none;" />
 <path d="  M 50,55  L 49,55  L 49,56  L 50,56  Z  " style="fill:rgb(116, 90, 54); fill-opacity:1.000; stroke:none;" />
 <path d="  M 51,52  L 52,52  L 52,53  L 54,53  L 54,51  L 52,51  L 52,50  L 51,50  Z  " style="fill:rgb(116, 90, 54); fill-opacity:1.000; stroke:none;" />
 <path d="  M 52,49  L 52,50  L 54,50  L 54,49  Z  " style="fill:rgb(116, 90, 54); fill-opacity:1.000; stroke:none;" />
 <path d="  M 53,55  L 52,55  L 52,56  L 53,56  Z  " style="fill:rgb(116, 90, 54); fill-opacity:1.000; stroke:none;" />
 <path d="  M 54,45  L 54,44  L 53,44  L 53,45  Z  " style="fill:rgb(116, 90, 54); fill-opacity:1.000; stroke:none;" />
 <path d="  M 57,48  L 57,47  L 56,47  L 56,46  L 53,46  L 53,47  L 55,47  L 55,48  Z  " style="fill:rgb(116, 90, 54); fill-opacity:1.000; stroke:none;" />
 <path d="  M 53,54  L 53,55  L 54,55  L 54,54  Z  " style="fill:rgb(116, 90, 54); fill-opacity:1.000; stroke:none;" />
 <path d="  M 56,51  L 56,49  L 55,49  L 55,51  Z  " style="fill:rgb(116, 90, 54); fill-opacity:1.000; stroke:none;" />
 <path d="  M 57,52  L 56,52  L 56,54  L 55,54  L 55,55  L 57,55  Z  " style="fill:rgb(116, 90, 54); fill-opacity:1.000; stroke:none;" />
 <path d="  M 57,45  L 56,45  L 56,46  L 57,46  Z  " style="fill:rgb(116, 90, 54); fill-opacity:1.000; stroke:none;" />
 <path d="  M 7,53  L 8,53  L 8,52  L 9,52  L 9,51  L 7,51  Z  " style="fill:rgb(132, 102, 62); fill-opacity:1.000; stroke:none;" />
 <path d="  M 11,46  L 8,46  L 8,47  L 9,47  L 9,48  L 11,48  Z  " style="fill:rgb(132, 102, 62); fill-opacity:1.000; stroke:none;" />
 <path d="  M 8,49  L 9,49  L 9,48  L 8,48  Z  " style="fill:rgb(132, 102, 62); fill-opacity:1.000; stroke:none;" />
 <path d="  M 11,51  L 11,50  L 9,50  L 9,51  Z  " style="fill:rgb(132, 102, 62); fill-opacity:1.000; stroke:none;" />
 <path d="  M 10,53  L 9,53  L 9,54  L 10,54  Z  " style="fill:rgb(132, 102, 62); fill-opacity:1.000; stroke:none;" />
 <path d="  M 10,52  L 10,53  L 13,53  L 13,52  Z  " style="fill:rgb(132, 102, 62); fill-opacity:1.000; stroke:none;" />
 <path d="  M 10,54  L 10,55  L 11,55  L 11,54  Z  " style="fill:rgb(132, 102, 62); fill-opacity:1.000; stroke:none;" />
 <path d="  M 13,55  L 13,54  L 12,54  L 12,55  Z  " style="fill:rgb(132, 102, 62); fill-opacity:1.000; stroke:none;" />
 <path d="  M 13,52  L 14,52  L 14,51  L 13,51  Z  " style="fill:rgb(132, 102, 62); fill-opacity:1.000; stroke:none;" />
 <path d="  M 20,54  L 20,53  L 19,53  L 19,52  L 17,52  L 17,53  L 15,53  L 15,54  L 19,54  L 19,55  L 15,55  L 15,56  L 20,56  L 20,55  L 22,55  L 22,54  Z  " style="fill:rgb(132, 102, 62); fill-opacity:1.000; stroke:none;" />
 <path d="  M 25,54  L 25,53  L 24,53  L 24,54  Z  " style="fill:rgb(132, 102, 62); fill-opacity:1.000; stroke:none;" />
 <path d="  M 27,55  L 27,54  L 26,54  L 26,55  Z  " style="fill:rgb(132, 102, 62); fill-opacity:1.000; stroke:none;" />
 <path d="  M 27,53  L 29,53  L 29,52  L 27,52  Z  " style="fill:rgb(132, 102, 62); fill-opacity:1.000; stroke:none;" />
 <path d="  M 29,53  L 29,54  L 31,54  L 31,53  Z  " style="fill:rgb(132, 102, 62); fill-opacity:1.000; stroke:none;" />
 <path d="  M 29,55  L 29,56  L 32,56  L 32,54  L 31,54  L 31,55  Z  " style="fill:rgb(132, 102, 62); fill-opacity:1.000; stroke:none;" />
 <path d="  M 30,52  L 31,52  L 31,51  L 30,51  Z  " style="fill:rgb(132, 102, 62); fill-opacity:1.000; stroke:none;" />
 <path d="  M 38,50  L 38,49  L 39,49  L 39,48  L 37,48  L 37,49  L 34,49  L 34,50  L 32,50  L 32,51  L 33,51  L 33,53  L 34,53  L 34,52  L 37,52  L 37,51  L 36,51  L 36,50  Z  M 34,50  L 35,50  L 35,51  L 34,51  Z  " style="fill:rgb(132, 102, 62); fill-opacity:1.000; stroke:none;" />
 <path d="  M 33,55  L 33,56  L 34,56  L 34,55  Z  " style="fill:rgb(132, 102, 62); fill-opacity:1.000; stroke:none;" />
 <path d="  M 38,55  L 38,54  L 36,54  L 36,53  L 35,53  L 35,55  Z  " style="fill:rgb(132, 102, 62); fill-opacity:1.000; stroke:none;" />
 <path d="  M 41,54  L 41,53  L 38,53  L 38,54  Z  " style="fill:rgb(132, 102, 62); fill-opacity:1.000; stroke:none;" />
 <path d="  M 42,56  L 42,55  L 39,55  L 39,56  Z  " style="fill:rgb(132, 102, 62); fill-opacity:1.000; stroke:none;" />
 <path d="  M 42,53  L 43,53  L 43,52  L 42,52  Z  " style="fill:rgb(132, 102, 62); fill-opacity:1.000; stroke:none;" />
 <path d="  M 44,55  L 44,54  L 42,54  L 42,55  Z  " style="fill:rgb(132, 102, 62); fill-opacity:1.000; stroke:none;" />
 <path d="  M 44,52  L 44,51  L 43,51  L 43,52  Z  " style="fill:rgb(132, 102, 62); fill-opacity:1.000; stroke:none;" />
 <path d="  M 45,54  L 45,53  L 44,53  L 44,54  Z  " style="fill:rgb(132, 102, 62); fill-opacity:1.000; stroke:none;" />
 <path d="  M 46,53  L 48,53  L 48,52  L 46,52  Z  " style="fill:rgb(132, 102, 62); fill-opacity:1.000; stroke:none;" />
 <path d="  M 48,55  L 47,55  L 47,54  L 46,54  L 46,56  L 48,56  Z  " style="fill:rgb(132, 102, 62); fill-opacity:1.000; stroke:none;" />
 <path d="  M 53,53  L 52,53  L 52,52  L 51,52  L 51,51  L 48,51  L 48,52  L 50,52  L 50,53  L 51,53  L 51,54  L 50,54  L 50,55  L 53,55  Z  " style="fill:rgb(132, 102, 62); fill-opacity:1.000; stroke:none;" />
 <path d="  M 53,48  L 55,48  L 55,47  L 53,47  Z  " style="fill:rgb(132, 102, 62); fill-opacity:1.000; stroke:none;" />
 <path d="  M 54,52  L 54,53  L 56,53  L 56,52  Z  " style="fill:rgb(132, 102, 62); fill-opacity:1.000; stroke:none;" />
 <path d="  M 55,49  L 56,49  L 56,48  L 55,48  Z  " style="fill:rgb(132, 102, 62); fill-opacity:1.000; stroke:none;" />
 <path d="  M 56,55  L 55,55  L 55,56  L 56,56  Z  " style="fill:rgb(132, 102, 62); fill-opacity:1.000; stroke:none;" />
 <path d="  M 9,50  L 8,50  L 8,51  L 9,51  Z  " style="fill:rgb(145, 113, 66); fill-opacity:1.000; stroke:none;" />
 <path d="  M 10,53  L 10,52  L 8,52  L 8,53  Z  " style="fill:rgb(145, 113, 66); fill-opacity:1.000; stroke:none;" />
 <path d="  M 9,48  L 9,49  L 10,49  L 10,50  L 12,50  L 12,49  L 11,49  L 11,48  Z  " style="fill:rgb(145, 113, 66); fill-opacity:1.000; stroke:none;" />
 <path d="  M 10,53  L 10,54  L 11,54  L 11,55  L 12,55  L 12,54  L 15,54  L 15,53  L 17,53  L 17,52  L 13,52  L 13,53  Z  " style="fill:rgb(145, 113, 66); fill-opacity:1.000; stroke:none;" />
 <path d="  M 14,55  L 14,56  L 15,56  L 15,55  Z  " style="fill:rgb(145, 113, 66); fill-opacity:1.000; stroke:none;" />
 <path d="  M 20,56  L 22,56  L 22,55  L 20,55  Z  " style="fill:rgb(145, 113, 66); fill-opacity:1.000; stroke:none;" />
 <path d="  M 22,54  L 22,55  L 26,55  L 26,54  L 29,54  L 29,53  L 25,53  L 25,54  Z  " style="fill:rgb(145, 113, 66); fill-opacity:1.000; stroke:none;" />
 <path d="  M 24,51  L 27,51  L 27,50  L 24,50  Z  " style="fill:rgb(145, 113, 66); fill-opacity:1.000; stroke:none;" />
 <path d="  M 25,46  L 27,46  L 27,45  L 25,45  Z  " style="fill:rgb(145, 113, 66); fill-opacity:1.000; stroke:none;" />
 <path d="  M 27,49  L 29,49  L 29,48  L 27,48  Z  " style="fill:rgb(145, 113, 66); fill-opacity:1.000; stroke:none;" />
 <path d="  M 33,53  L 33,52  L 29,52  L 29,53  Z  " style="fill:rgb(145, 113, 66); fill-opacity:1.000; stroke:none;" />
 <path d="  M 34,49  L 35,49  L 35,48  L 33,48  L 33,49  L 30,49  L 30,50  L 31,50  L 31,51  L 32,51  L 32,50  L 34,50  Z  " style="fill:rgb(145, 113, 66); fill-opacity:1.000; stroke:none;" />
 <path d="  M 32,56  L 33,56  L 33,55  L 32,55  Z  " style="fill:rgb(145, 113, 66); fill-opacity:1.000; stroke:none;" />
 <path d="  M 35,51  L 35,50  L 34,50  L 34,51  Z  " style="fill:rgb(145, 113, 66); fill-opacity:1.000; stroke:none;" />
 <path d="  M 36,51  L 40,51  L 40,50  L 39,50  L 39,49  L 38,49  L 38,50  L 36,50  Z  " style="fill:rgb(145, 113, 66); fill-opacity:1.000; stroke:none;" />
 <path d="  M 39,44  L 38,44  L 38,45  L 39,45  Z  " style="fill:rgb(145, 113, 66); fill-opacity:1.000; stroke:none;" />
 <path d="  M 38,55  L 38,56  L 39,56  L 39,55  Z  " style="fill:rgb(145, 113, 66); fill-opacity:1.000; stroke:none;" />
 <path d="  M 46,52  L 48,52  L 48,51  L 45,51  L 45,52  L 43,52  L 43,53  L 41,53  L 41,54  L 44,54  L 44,53  L 46,53  Z  " style="fill:rgb(145, 113, 66); fill-opacity:1.000; stroke:none;" />
 <path d="  M 43,51  L 42,51  L 42,52  L 43,52  Z  " style="fill:rgb(145, 113, 66); fill-opacity:1.000; stroke:none;" />
 <path d="  M 45,56  L 46,56  L 46,55  L 45,55  Z  " style="fill:rgb(145, 113, 66); fill-opacity:1.000; stroke:none;" />
 <path d="  M 47,53  L 46,53  L 46,54  L 47,54  Z  " style="fill:rgb(145, 113, 66); fill-opacity:1.000; stroke:none;" />
 <path d="  M 47,55  L 48,55  L 48,56  L 49,56  L 49,55  L 50,55  L 50,54  L 47,54  Z  " style="fill:rgb(145, 113, 66); fill-opacity:1.000; stroke:none;" />
 <path d="  M 55,48  L 54,48  L 54,49  L 55,49  Z  " style="fill:rgb(145, 113, 66); fill-opacity:1.000; stroke:none;" />
 <path d="  M 55,55  L 54,55  L 54,56  L 55,56  Z  " style="fill:rgb(145, 113, 66); fill-opacity:1.000; stroke:none;" />
 <path d="  M 13,38  L 13,39  L 12,39  L 12,40  L 13,40  L 13,41  L 14,41  L 14,39  L 16,39  L 16,38  Z  " style="fill:rgb(184, 148, 95); fill-opacity:1.000; stroke:none;" />
 <path d="  M 12,41  L 12,44  L 13,44  L 13,41  Z  " style="fill:rgb(184, 148, 95); fill-opacity:1.000; stroke:none;" />
 <path d="  M 13,46  L 12,46  L 12,49  L 13,49  Z  " style="fill:rgb(184, 148, 95); fill-opacity:1.000; stroke:none;" />
 <path d="  M 13,49  L 13,50  L 14,50  L 14,49  Z  " style="fill:rgb(184, 148, 95); fill-opacity:1.000; stroke:none;" />
 <path d="  M 16,44  L 15,44  L 15,43  L 14,43  L 14,45  L 15,45  L 15,47  L 16,47  L 16,48  L 20,48  L 20,46  L 18,46  L 18,47  L 17,47  L 17,46  L 16,46  Z  " style="fill:rgb(184, 148, 95); fill-opacity:1.000; stroke:none;" />
 <path d="  M 15,40  L 15,41  L 16,41  L 16,40  Z  " style="fill:rgb(184, 148, 95); fill-opacity:1.000; stroke:none;" />
 <path d="  M 17,42  L 19,42  L 19,41  L 21,41  L 21,40  L 18,40  L 18,41  L 16,41  L 16,42  L 15,42  L 15,43  L 17,43  Z  " style="fill:rgb(184, 148, 95); fill-opacity:1.000; stroke:none;" />
 <path d="  M 20,50  L 20,49  L 16,49  L 16,50  Z  " style="fill:rgb(184, 148, 95); fill-opacity:1.000; stroke:none;" />
 <path d="  M 17,38  L 17,39  L 20,39  L 20,38  Z  " style="fill:rgb(184, 148, 95); fill-opacity:1.000; stroke:none;" />
 <path d="  M 19,45  L 19,43  L 17,43  L 17,45  Z  " style="fill:rgb(184, 148, 95); fill-opacity:1.000; stroke:none;" />
 <path d="  M 20,42  L 19,42  L 19,43  L 20,43  Z  " style="fill:rgb(184, 148, 95); fill-opacity:1.000; stroke:none;" />
 <path d="  M 20,44  L 20,46  L 22,46  L 22,45  L 21,45  L 21,44  Z  " style="fill:rgb(184, 148, 95); fill-opacity:1.000; stroke:none;" />
 <path d="  M 23,39  L 21,39  L 21,40  L 22,40  L 22,41  L 23,41  Z  " style="fill:rgb(184, 148, 95); fill-opacity:1.000; stroke:none;" />
 <path d="  M 21,41  L 21,42  L 22,42  L 22,41  Z  " style="fill:rgb(184, 148, 95); fill-opacity:1.000; stroke:none;" />
 <path d="  M 23,48  L 22,48  L 22,49  L 21,49  L 21,50  L 23,50  L 23,49  L 24,49  L 24,46  L 23,46  Z  " style="fill:rgb(184, 148, 95); fill-opacity:1.000; stroke:none;" />
 <path d="  M 23,44  L 24,44  L 24,41  L 23,41  Z  " style="fill:rgb(184, 148, 95); fill-opacity:1.000; stroke:none;" />
 <path d="  M 41,40  L 41,41  L 42,41  L 42,40  L 43,40  L 43,38  L 42,38  L 42,39  L 40,39  L 40,40  Z  " style="fill:rgb(184, 148, 95); fill-opacity:1.000; stroke:none;" />
 <path d="  M 41,42  L 40,42  L 40,44  L 41,44  Z  " style="fill:rgb(184, 148, 95); fill-opacity:1.000; stroke:none;" />
 <path d="  M 40,47  L 41,47  L 41,45  L 40,45  Z  " style="fill:rgb(184, 148, 95); fill-opacity:1.000; stroke:none;" />
 <path d="  M 40,49  L 41,49  L 41,48  L 40,48  Z  " style="fill:rgb(184, 148, 95); fill-opacity:1.000; stroke:none;" />
 <path d="  M 42,47  L 41,47  L 41,48  L 42,48  Z  " style="fill:rgb(184, 148, 95); fill-opacity:1.000; stroke:none;" />
 <path d="  M 41,50  L 42,50  L 42,49  L 41,49  Z  " style="fill:rgb(184, 148, 95); fill-opacity:1.000; stroke:none;" />
 <path d="  M 42,45  L 43,45  L 43,44  L 42,44  Z  " style="fill:rgb(184, 148, 95); fill-opacity:1.000; stroke:none;" />
 <path d="  M 43,48  L 42,48  L 42,49  L 43,49  Z  " style="fill:rgb(184, 148, 95); fill-opacity:1.000; stroke:none;" />
 <path d="  M 43,40  L 43,41  L 44,41  L 44,40  Z  " style="fill:rgb(184, 148, 95); fill-opacity:1.000; stroke:none;" />
 <path d="  M 43,42  L 43,43  L 44,43  L 44,42  Z  " style="fill:rgb(184, 148, 95); fill-opacity:1.000; stroke:none;" />
 <path d="  M 44,45  L 43,45  L 43,46  L 44,46  Z  " style="fill:rgb(184, 148, 95); fill-opacity:1.000; stroke:none;" />
 <path d="  M 43,49  L 43,50  L 47,50  L 47,49  Z  " style="fill:rgb(184, 148, 95); fill-opacity:1.000; stroke:none;" />
 <path d="  M 44,38  L 44,39  L 47,39  L 47,38  Z  " style="fill:rgb(184, 148, 95); fill-opacity:1.000; stroke:none;" />
 <path d="  M 44,42  L 46,42  L 46,41  L 44,41  Z  " style="fill:rgb(184, 148, 95); fill-opacity:1.000; stroke:none;" />
 <path d="  M 44,48  L 45,48  L 45,47  L 44,47  Z  " style="fill:rgb(184, 148, 95); fill-opacity:1.000; stroke:none;" />
 <path d="  M 45,43  L 45,45  L 47,45  L 47,43  Z  " style="fill:rgb(184, 148, 95); fill-opacity:1.000; stroke:none;" />
 <path d="  M 48,46  L 45,46  L 45,47  L 46,47  L 46,48  L 48,48  Z  " style="fill:rgb(184, 148, 95); fill-opacity:1.000; stroke:none;" />
 <path d="  M 48,41  L 48,40  L 46,40  L 46,41  Z  " style="fill:rgb(184, 148, 95); fill-opacity:1.000; stroke:none;" />
 <path d="  M 48,41  L 48,42  L 47,42  L 47,43  L 49,43  L 49,44  L 50,44  L 50,41  Z  " style="fill:rgb(184, 148, 95); fill-opacity:1.000; stroke:none;" />
 <path d="  M 48,38  L 48,39  L 49,39  L 49,40  L 50,40  L 50,41  L 51,41  L 51,40  L 52,40  L 52,39  L 51,39  L 51,38  Z  " style="fill:rgb(184, 148, 95); fill-opacity:1.000; stroke:none;" />
 <path d="  M 49,44  L 48,44  L 48,45  L 49,45  Z  " style="fill:rgb(184, 148, 95); fill-opacity:1.000; stroke:none;" />
 <path d="  M 50,46  L 50,45  L 49,45  L 49,46  Z  " style="fill:rgb(184, 148, 95); fill-opacity:1.000; stroke:none;" />
 <path d="  M 49,50  L 50,50  L 50,49  L 51,49  L 51,48  L 52,48  L 52,46  L 51,46  L 51,47  L 50,47  L 50,48  L 49,48  Z  " style="fill:rgb(184, 148, 95); fill-opacity:1.000; stroke:none;" />
 <path d="  M 51,41  L 51,42  L 52,42  L 52,41  Z  " style="fill:rgb(184, 148, 95); fill-opacity:1.000; stroke:none;" />
 <path d="  M 12,40  L 12,41  L 13,41  L 13,40  Z  " style="fill:rgb(194, 157, 98); fill-opacity:1.000; stroke:none;" />
 <path d="  M 12,46  L 13,46  L 13,44  L 12,44  Z  " style="fill:rgb(194, 157, 98); fill-opacity:1.000; stroke:none;" />
 <path d="  M 14,49  L 14,50  L 16,50  L 16,49  L 15,49  L 15,48  L 14,48  L 14,47  L 13,47  L 13,49  Z  " style="fill:rgb(194, 157, 98); fill-opacity:1.000; stroke:none;" />
 <path d="  M 15,40  L 15,39  L 14,39  L 14,40  Z  " style="fill:rgb(194, 157, 98); fill-opacity:1.000; stroke:none;" />
 <path d="  M 15,42  L 16,42  L 16,41  L 14,41  L 14,43  L 15,43  Z  " style="fill:rgb(194, 157, 98); fill-opacity:1.000; stroke:none;" />
 <path d="  M 14,47  L 15,47  L 15,45  L 14,45  Z  " style="fill:rgb(194, 157, 98); fill-opacity:1.000; stroke:none;" />
 <path d="  M 16,44  L 16,43  L 15,43  L 15,44  Z  " style="fill:rgb(194, 157, 98); fill-opacity:1.000; stroke:none;" />
 <path d="  M 16,48  L 16,47  L 15,47  L 15,48  Z  " style="fill:rgb(194, 157, 98); fill-opacity:1.000; stroke:none;" />
 <path d="  M 17,38  L 16,38  L 16,39  L 17,39  Z  " style="fill:rgb(194, 157, 98); fill-opacity:1.000; stroke:none;" />
 <path d="  M 18,41  L 18,40  L 16,40  L 16,41  Z  " style="fill:rgb(194, 157, 98); fill-opacity:1.000; stroke:none;" />
 <path d="  M 17,45  L 16,45  L 16,46  L 17,46  Z  " style="fill:rgb(194, 157, 98); fill-opacity:1.000; stroke:none;" />
 <path d="  M 18,46  L 17,46  L 17,47  L 18,47  Z  " style="fill:rgb(194, 157, 98); fill-opacity:1.000; stroke:none;" />
 <path d="  M 19,41  L 19,42  L 20,42  L 20,44  L 21,44  L 21,45  L 22,45  L 22,42  L 21,42  L 21,41  Z  " style="fill:rgb(194, 157, 98); fill-opacity:1.000; stroke:none;" />
 <path d="  M 19,45  L 19,46  L 20,46  L 20,45  Z  " style="fill:rgb(194, 157, 98); fill-opacity:1.000; stroke:none;" />
 <path d="  M 20,38  L 20,39  L 23,39  L 23,38  Z  " style="fill:rgb(194, 157, 98); fill-opacity:1.000; stroke:none;" />
 <path d="  M 20,48  L 21,48  L 21,47  L 22,47  L 22,46  L 20,46  Z  " style="fill:rgb(194, 157, 98); fill-opacity:1.000; stroke:none;" />
 <path d="  M 21,49  L 20,49  L 20,50  L 21,50  Z  " style="fill:rgb(194, 157, 98); fill-opacity:1.000; stroke:none;" />
 <path d="  M 21,48  L 21,49  L 22,49  L 22,48  Z  " style="fill:rgb(194, 157, 98); fill-opacity:1.000; stroke:none;" />
 <path d="  M 23,47  L 22,47  L 22,48  L 23,48  Z  " style="fill:rgb(194, 157, 98); fill-opacity:1.000; stroke:none;" />
 <path d="  M 24,41  L 24,39  L 23,39  L 23,41  Z  " style="fill:rgb(194, 157, 98); fill-opacity:1.000; stroke:none;" />
 <path d="  M 24,44  L 23,44  L 23,46  L 24,46  Z  " style="fill:rgb(194, 157, 98); fill-opacity:1.000; stroke:none;" />
 <path d="  M 41,40  L 40,40  L 40,42  L 41,42  Z  " style="fill:rgb(194, 157, 98); fill-opacity:1.000; stroke:none;" />
 <path d="  M 41,45  L 41,44  L 40,44  L 40,45  Z  " style="fill:rgb(194, 157, 98); fill-opacity:1.000; stroke:none;" />
 <path d="  M 41,48  L 41,47  L 40,47  L 40,48  Z  " style="fill:rgb(194, 157, 98); fill-opacity:1.000; stroke:none;" />
 <path d="  M 41,39  L 42,39  L 42,38  L 41,38  Z  " style="fill:rgb(194, 157, 98); fill-opacity:1.000; stroke:none;" />
 <path d="  M 42,48  L 41,48  L 41,49  L 42,49  Z  " style="fill:rgb(194, 157, 98); fill-opacity:1.000; stroke:none;" />
 <path d="  M 43,44  L 43,45  L 44,45  L 44,43  L 43,43  L 43,42  L 44,42  L 44,41  L 42,41  L 42,44  Z  " style="fill:rgb(194, 157, 98); fill-opacity:1.000; stroke:none;" />
 <path d="  M 45,45  L 44,45  L 44,46  L 43,46  L 43,45  L 42,45  L 42,47  L 43,47  L 43,48  L 44,48  L 44,47  L 45,47  Z  " style="fill:rgb(194, 157, 98); fill-opacity:1.000; stroke:none;" />
 <path d="  M 42,49  L 42,50  L 43,50  L 43,49  Z  " style="fill:rgb(194, 157, 98); fill-opacity:1.000; stroke:none;" />
 <path d="  M 44,38  L 43,38  L 43,39  L 44,39  Z  " style="fill:rgb(194, 157, 98); fill-opacity:1.000; stroke:none;" />
 <path d="  M 44,41  L 46,41  L 46,40  L 44,40  Z  " style="fill:rgb(194, 157, 98); fill-opacity:1.000; stroke:none;" />
 <path d="  M 44,43  L 45,43  L 45,42  L 44,42  Z  " style="fill:rgb(194, 157, 98); fill-opacity:1.000; stroke:none;" />
 <path d="  M 46,48  L 46,47  L 45,47  L 45,48  Z  " style="fill:rgb(194, 157, 98); fill-opacity:1.000; stroke:none;" />
 <path d="  M 48,41  L 46,41  L 46,42  L 48,42  Z  " style="fill:rgb(194, 157, 98); fill-opacity:1.000; stroke:none;" />
 <path d="  M 47,38  L 47,39  L 48,39  L 48,38  Z  " style="fill:rgb(194, 157, 98); fill-opacity:1.000; stroke:none;" />
 <path d="  M 49,45  L 47,45  L 47,46  L 48,46  L 48,48  L 49,48  L 49,47  L 50,47  L 50,46  L 49,46  Z  " style="fill:rgb(194, 157, 98); fill-opacity:1.000; stroke:none;" />
 <path d="  M 47,49  L 47,50  L 49,50  L 49,49  Z  " style="fill:rgb(194, 157, 98); fill-opacity:1.000; stroke:none;" />
 <path d="  M 48,40  L 48,41  L 49,41  L 49,40  Z  " style="fill:rgb(194, 157, 98); fill-opacity:1.000; stroke:none;" />
 <path d="  M 48,44  L 49,44  L 49,43  L 48,43  Z  " style="fill:rgb(194, 157, 98); fill-opacity:1.000; stroke:none;" />
 <path d="  M 49,45  L 50,45  L 50,44  L 49,44  Z  " style="fill:rgb(194, 157, 98); fill-opacity:1.000; stroke:none;" />
 <path d="  M 51,50  L 51,49  L 50,49  L 50,50  Z  " style="fill:rgb(194, 157, 98); fill-opacity:1.000; stroke:none;" />
 <path d="  M 52,41  L 52,40  L 51,40  L 51,41  Z  " style="fill:rgb(194, 157, 98); fill-opacity:1.000; stroke:none;" />
 <path d="  M 52,42  L 51,42  L 51,46  L 52,46  Z  " style="fill:rgb(194, 157, 98); fill-opacity:1.000; stroke:none;" />
 <path d="  M 51,49  L 52,49  L 52,48  L 51,48  Z  " style="fill:rgb(194, 157, 98); fill-opacity:1.000; stroke:none;" />
 <path d="  M 14,41  L 13,41  L 13,43  L 14,43  Z  " style="fill:rgb(159, 132, 77); fill-opacity:1.000; stroke:none;" />
 <path d="  M 14,45  L 13,45  L 13,46  L 14,46  Z  " style="fill:rgb(159, 132, 77); fill-opacity:1.000; stroke:none;" />
 <path d="  M 14,40  L 14,41  L 15,41  L 15,40  Z  " style="fill:rgb(159, 132, 77); fill-opacity:1.000; stroke:none;" />
 <path d="  M 14,47  L 14,48  L 15,48  L 15,47  Z  " style="fill:rgb(159, 132, 77); fill-opacity:1.000; stroke:none;" />
 <path d="  M 16,49  L 16,48  L 15,48  L 15,49  Z  " style="fill:rgb(159, 132, 77); fill-opacity:1.000; stroke:none;" />
 <path d="  M 17,39  L 16,39  L 16,40  L 17,40  Z  " style="fill:rgb(159, 132, 77); fill-opacity:1.000; stroke:none;" />
 <path d="  M 16,44  L 16,45  L 17,45  L 17,44  Z  " style="fill:rgb(159, 132, 77); fill-opacity:1.000; stroke:none;" />
 <path d="  M 19,42  L 18,42  L 18,43  L 19,43  Z  " style="fill:rgb(159, 132, 77); fill-opacity:1.000; stroke:none;" />
 <path d="  M 20,43  L 19,43  L 19,44  L 20,44  Z  " style="fill:rgb(159, 132, 77); fill-opacity:1.000; stroke:none;" />
 <path d="  M 19,49  L 20,49  L 20,48  L 19,48  Z  " style="fill:rgb(159, 132, 77); fill-opacity:1.000; stroke:none;" />
 <path d="  M 22,48  L 22,47  L 21,47  L 21,48  Z  " style="fill:rgb(159, 132, 77); fill-opacity:1.000; stroke:none;" />
 <path d="  M 23,42  L 22,42  L 22,44  L 23,44  Z  " style="fill:rgb(159, 132, 77); fill-opacity:1.000; stroke:none;" />
 <path d="  M 23,47  L 23,46  L 22,46  L 22,47  Z  " style="fill:rgb(159, 132, 77); fill-opacity:1.000; stroke:none;" />
 <path d="  M 42,45  L 42,44  L 41,44  L 41,45  Z  " style="fill:rgb(159, 132, 77); fill-opacity:1.000; stroke:none;" />
 <path d="  M 42,47  L 42,46  L 41,46  L 41,47  Z  " style="fill:rgb(159, 132, 77); fill-opacity:1.000; stroke:none;" />
 <path d="  M 42,41  L 43,41  L 43,40  L 42,40  Z  " style="fill:rgb(159, 132, 77); fill-opacity:1.000; stroke:none;" />
 <path d="  M 43,48  L 43,47  L 42,47  L 42,48  Z  " style="fill:rgb(159, 132, 77); fill-opacity:1.000; stroke:none;" />
 <path d="  M 43,49  L 44,49  L 44,48  L 43,48  Z  " style="fill:rgb(159, 132, 77); fill-opacity:1.000; stroke:none;" />
 <path d="  M 46,40  L 46,39  L 44,39  L 44,40  Z  " style="fill:rgb(159, 132, 77); fill-opacity:1.000; stroke:none;" />
 <path d="  M 45,43  L 44,43  L 44,44  L 45,44  Z  " style="fill:rgb(159, 132, 77); fill-opacity:1.000; stroke:none;" />
 <path d="  M 46,43  L 46,42  L 45,42  L 45,43  Z  " style="fill:rgb(159, 132, 77); fill-opacity:1.000; stroke:none;" />
 <path d="  M 47,43  L 47,45  L 48,45  L 48,43  Z  " style="fill:rgb(159, 132, 77); fill-opacity:1.000; stroke:none;" />
 <path d="  M 47,48  L 47,49  L 49,49  L 49,48  Z  " style="fill:rgb(159, 132, 77); fill-opacity:1.000; stroke:none;" />
 <path d="  M 49,40  L 49,39  L 48,39  L 48,40  Z  " style="fill:rgb(159, 132, 77); fill-opacity:1.000; stroke:none;" />
 <path d="  M 50,41  L 50,40  L 49,40  L 49,41  Z  " style="fill:rgb(159, 132, 77); fill-opacity:1.000; stroke:none;" />
 <path d="  M 49,48  L 50,48  L 50,47  L 49,47  Z  " style="fill:rgb(159, 132, 77); fill-opacity:1.000; stroke:none;" />
 <path d="  M 51,43  L 51,42  L 50,42  L 50,43  Z  " style="fill:rgb(159, 132, 77); fill-opacity:1.000; stroke:none;" />
 <path d="  M 14,43  L 13,43  L 13,45  L 14,45  Z  " style="fill:rgb(150, 116, 65); fill-opacity:1.000; stroke:none;" />
 <path d="  M 14,46  L 13,46  L 13,47  L 14,47  Z  " style="fill:rgb(150, 116, 65); fill-opacity:1.000; stroke:none;" />
 <path d="  M 16,39  L 15,39  L 15,40  L 16,40  Z  " style="fill:rgb(150, 116, 65); fill-opacity:1.000; stroke:none;" />
 <path d="  M 17,44  L 17,43  L 16,43  L 16,44  Z  " style="fill:rgb(150, 116, 65); fill-opacity:1.000; stroke:none;" />
 <path d="  M 16,49  L 19,49  L 19,48  L 16,48  Z  " style="fill:rgb(150, 116, 65); fill-opacity:1.000; stroke:none;" />
 <path d="  M 17,39  L 17,40  L 21,40  L 21,39  Z  " style="fill:rgb(150, 116, 65); fill-opacity:1.000; stroke:none;" />
 <path d="  M 17,42  L 17,43  L 18,43  L 18,42  Z  " style="fill:rgb(150, 116, 65); fill-opacity:1.000; stroke:none;" />
 <path d="  M 19,45  L 17,45  L 17,46  L 19,46  Z  " style="fill:rgb(150, 116, 65); fill-opacity:1.000; stroke:none;" />
 <path d="  M 19,45  L 20,45  L 20,44  L 19,44  Z  " style="fill:rgb(150, 116, 65); fill-opacity:1.000; stroke:none;" />
 <path d="  M 21,48  L 20,48  L 20,49  L 21,49  Z  " style="fill:rgb(150, 116, 65); fill-opacity:1.000; stroke:none;" />
 <path d="  M 22,41  L 22,40  L 21,40  L 21,41  Z  " style="fill:rgb(150, 116, 65); fill-opacity:1.000; stroke:none;" />
 <path d="  M 23,41  L 22,41  L 22,42  L 23,42  Z  " style="fill:rgb(150, 116, 65); fill-opacity:1.000; stroke:none;" />
 <path d="  M 22,46  L 23,46  L 23,44  L 22,44  Z  " style="fill:rgb(150, 116, 65); fill-opacity:1.000; stroke:none;" />
 <path d="  M 42,41  L 41,41  L 41,44  L 42,44  Z  " style="fill:rgb(150, 116, 65); fill-opacity:1.000; stroke:none;" />
 <path d="  M 42,45  L 41,45  L 41,46  L 42,46  Z  " style="fill:rgb(150, 116, 65); fill-opacity:1.000; stroke:none;" />
 <path d="  M 44,40  L 44,39  L 43,39  L 43,40  Z  " style="fill:rgb(150, 116, 65); fill-opacity:1.000; stroke:none;" />
 <path d="  M 44,45  L 45,45  L 45,44  L 44,44  Z  " style="fill:rgb(150, 116, 65); fill-opacity:1.000; stroke:none;" />
 <path d="  M 47,49  L 47,48  L 44,48  L 44,49  Z  " style="fill:rgb(150, 116, 65); fill-opacity:1.000; stroke:none;" />
 <path d="  M 47,45  L 45,45  L 45,46  L 47,46  Z  " style="fill:rgb(150, 116, 65); fill-opacity:1.000; stroke:none;" />
 <path d="  M 46,40  L 48,40  L 48,39  L 46,39  Z  " style="fill:rgb(150, 116, 65); fill-opacity:1.000; stroke:none;" />
 <path d="  M 46,42  L 46,43  L 47,43  L 47,42  Z  " style="fill:rgb(150, 116, 65); fill-opacity:1.000; stroke:none;" />
 <path d="  M 51,42  L 51,41  L 50,41  L 50,42  Z  " style="fill:rgb(150, 116, 65); fill-opacity:1.000; stroke:none;" />
 <path d="  M 51,43  L 50,43  L 50,47  L 51,47  Z  " style="fill:rgb(150, 116, 65); fill-opacity:1.000; stroke:none;" />
 <path d="  M 17,32  L 16,32  L 16,33  L 17,33  Z  " style="fill:rgb(8, 143, 146); fill-opacity:1.000; stroke:none;" />
 <path d="  M 17,28  L 17,29  L 18,29  L 18,28  Z  " style="fill:rgb(8, 143, 146); fill-opacity:1.000; stroke:none;" />
 <path d="  M 18,33  L 17,33  L 17,34  L 18,34  Z  " style="fill:rgb(8, 143, 146); fill-opacity:1.000; stroke:none;" />
 <path d="  M 20,25  L 20,24  L 19,24  L 19,25  Z  " style="fill:rgb(8, 143, 146); fill-opacity:1.000; stroke:none;" />
 <path d="  M 21,20  L 20,20  L 20,21  L 21,21  Z  " style="fill:rgb(8, 143, 146); fill-opacity:1.000; stroke:none;" />
 <path d="  M 22,16  L 21,16  L 21,18  L 22,18  Z  " style="fill:rgb(8, 143, 146); fill-opacity:1.000; stroke:none;" />
 <path d="  M 22,19  L 23,19  L 23,18  L 22,18  Z  " style="fill:rgb(8, 143, 146); fill-opacity:1.000; stroke:none;" />
 <path d="  M 25,20  L 25,21  L 26,21  L 26,20  Z  " style="fill:rgb(8, 143, 146); fill-opacity:1.000; stroke:none;" />
 <path d="  M 26,44  L 26,45  L 27,45  L 27,44  Z  " style="fill:rgb(8, 143, 146); fill-opacity:1.000; stroke:none;" />
 <path d="  M 28,46  L 28,45  L 27,45  L 27,46  Z  " style="fill:rgb(8, 143, 146); fill-opacity:1.000; stroke:none;" />
 <path d="  M 29,18  L 29,17  L 28,17  L 28,18  Z  " style="fill:rgb(8, 143, 146); fill-opacity:1.000; stroke:none;" />
 <path d="  M 30,15  L 29,15  L 29,16  L 30,16  Z  " style="fill:rgb(8, 143, 146); fill-opacity:1.000; stroke:none;" />
 <path d="  M 32,11  L 31,11  L 31,12  L 32,12  Z  " style="fill:rgb(8, 143, 146); fill-opacity:1.000; stroke:none;" />
 <path d="  M 33,9  L 32,9  L 32,10  L 33,10  Z  " style="fill:rgb(8, 143, 146); fill-opacity:1.000; stroke:none;" />
 <path d="  M 33,7  L 33,9  L 34,9  L 34,7  Z  " style="fill:rgb(8, 143, 146); fill-opacity:1.000; stroke:none;" />
 <path d="  M 37,10  L 36,10  L 36,12  L 37,12  Z  " style="fill:rgb(8, 143, 146); fill-opacity:1.000; stroke:none;" />
 <path d="  M 37,45  L 36,45  L 36,46  L 37,46  Z  " style="fill:rgb(8, 143, 146); fill-opacity:1.000; stroke:none;" />
 <path d="  M 37,12  L 37,13  L 38,13  L 38,12  Z  " style="fill:rgb(8, 143, 146); fill-opacity:1.000; stroke:none;" />
 <path d="  M 38,15  L 39,15  L 39,14  L 38,14  Z  " style="fill:rgb(8, 143, 146); fill-opacity:1.000; stroke:none;" />
 <path d="  M 40,18  L 40,19  L 41,19  L 41,18  Z  " style="fill:rgb(8, 143, 146); fill-opacity:1.000; stroke:none;" />
 <path d="  M 42,20  L 42,21  L 43,21  L 43,20  Z  " style="fill:rgb(8, 143, 146); fill-opacity:1.000; stroke:none;" />
 <path d="  M 44,21  L 43,21  L 43,22  L 44,22  Z  " style="fill:rgb(8, 143, 146); fill-opacity:1.000; stroke:none;" />
 <path d="  M 45,23  L 44,23  L 44,25  L 45,25  Z  " style="fill:rgb(8, 143, 146); fill-opacity:1.000; stroke:none;" />
 <path d="  M 45,27  L 46,27  L 46,26  L 45,26  Z  " style="fill:rgb(8, 143, 146); fill-opacity:1.000; stroke:none;" />
 <path d="  M 46,31  L 47,31  L 47,28  L 46,28  Z  " style="fill:rgb(8, 143, 146); fill-opacity:1.000; stroke:none;" />
 <path d="  M 48,33  L 48,32  L 47,32  L 47,33  Z  " style="fill:rgb(8, 143, 146); fill-opacity:1.000; stroke:none;" />
 <path d="  M 48,38  L 48,37  L 47,37  L 47,38  Z  " style="fill:rgb(8, 143, 146); fill-opacity:1.000; stroke:none;" />
 <path d="  M 16,38  L 17,38  L 17,35  L 18,35  L 18,34  L 17,34  L 17,33  L 16,33  Z  " style="fill:rgb(19, 167, 171); fill-opacity:1.000; stroke:none;" />
 <path d="  M 18,31  L 19,31  L 19,30  L 18,30  L 18,29  L 17,29  L 17,33  L 18,33  Z  " style="fill:rgb(19, 167, 171); fill-opacity:1.000; stroke:none;" />
 <path d="  M 19,25  L 19,26  L 18,26  L 18,28  L 20,28  L 20,27  L 21,27  L 21,26  L 20,26  L 20,25  Z  " style="fill:rgb(19, 167, 171); fill-opacity:1.000; stroke:none;" />
 <path d="  M 19,34  L 19,33  L 18,33  L 18,34  Z  " style="fill:rgb(19, 167, 171); fill-opacity:1.000; stroke:none;" />
 <path d="  M 18,37  L 19,37  L 19,36  L 18,36  Z  " style="fill:rgb(19, 167, 171); fill-opacity:1.000; stroke:none;" />
 <path d="  M 19,33  L 20,33  L 20,32  L 19,32  Z  " style="fill:rgb(19, 167, 171); fill-opacity:1.000; stroke:none;" />
 <path d="  M 20,21  L 20,24  L 21,24  L 21,22  L 22,22  L 22,20  L 23,20  L 23,19  L 22,19  L 22,18  L 21,18  L 21,21  Z  " style="fill:rgb(19, 167, 171); fill-opacity:1.000; stroke:none;" />
 <path d="  M 22,26  L 22,25  L 21,25  L 21,26  Z  " style="fill:rgb(19, 167, 171); fill-opacity:1.000; stroke:none;" />
 <path d="  M 27,20  L 28,20  L 28,19  L 29,19  L 29,18  L 27,18  L 27,19  L 26,19  L 26,21  L 24,21  L 24,20  L 23,20  L 23,22  L 24,22  L 24,23  L 25,23  L 25,22  L 27,22  Z  " style="fill:rgb(19, 167, 171); fill-opacity:1.000; stroke:none;" />
 <path d="  M 23,23  L 23,24  L 24,24  L 24,23  Z  " style="fill:rgb(19, 167, 171); fill-opacity:1.000; stroke:none;" />
 <path d="  M 26,23  L 25,23  L 25,24  L 26,24  Z  " style="fill:rgb(19, 167, 171); fill-opacity:1.000; stroke:none;" />
 <path d="  M 27,44  L 27,43  L 26,43  L 26,44  Z  " style="fill:rgb(19, 167, 171); fill-opacity:1.000; stroke:none;" />
 <path d="  M 27,45  L 29,45  L 29,44  L 27,44  Z  " style="fill:rgb(19, 167, 171); fill-opacity:1.000; stroke:none;" />
 <path d="  M 29,21  L 29,20  L 28,20  L 28,21  Z  " style="fill:rgb(19, 167, 171); fill-opacity:1.000; stroke:none;" />
 <path d="  M 29,18  L 30,18  L 30,16  L 29,16  Z  " style="fill:rgb(19, 167, 171); fill-opacity:1.000; stroke:none;" />
 <path d="  M 31,13  L 30,13  L 30,15  L 31,15  L 31,14  L 32,14  L 32,12  L 31,12  Z  " style="fill:rgb(19, 167, 171); fill-opacity:1.000; stroke:none;" />
 <path d="  M 31,16  L 32,16  L 32,15  L 31,15  Z  " style="fill:rgb(19, 167, 171); fill-opacity:1.000; stroke:none;" />
 <path d="  M 33,10  L 32,10  L 32,11  L 33,11  Z  " style="fill:rgb(19, 167, 171); fill-opacity:1.000; stroke:none;" />
 <path d="  M 34,9  L 33,9  L 33,10  L 34,10  Z  " style="fill:rgb(19, 167, 171); fill-opacity:1.000; stroke:none;" />
 <path d="  M 35,8  L 34,8  L 34,9  L 35,9  Z  " style="fill:rgb(19, 167, 171); fill-opacity:1.000; stroke:none;" />
 <path d="  M 34,44  L 34,45  L 35,45  L 35,44  Z  " style="fill:rgb(19, 167, 171); fill-opacity:1.000; stroke:none;" />
 <path d="  M 36,11  L 36,9  L 35,9  L 35,11  Z  " style="fill:rgb(19, 167, 171); fill-opacity:1.000; stroke:none;" />
 <path d="  M 39,16  L 39,15  L 38,15  L 38,13  L 37,13  L 37,12  L 36,12  L 36,13  L 35,13  L 35,15  L 36,15  L 36,14  L 37,14  L 37,16  L 38,16  L 38,17  L 39,17  L 39,19  L 40,19  L 40,16  Z  " style="fill:rgb(19, 167, 171); fill-opacity:1.000; stroke:none;" />
 <path d="  M 36,46  L 36,45  L 35,45  L 35,46  Z  " style="fill:rgb(19, 167, 171); fill-opacity:1.000; stroke:none;" />
 <path d="  M 37,16  L 36,16  L 36,17  L 37,17  Z  " style="fill:rgb(19, 167, 171); fill-opacity:1.000; stroke:none;" />
 <path d="  M 38,44  L 37,44  L 37,45  L 38,45  Z  " style="fill:rgb(19, 167, 171); fill-opacity:1.000; stroke:none;" />
 <path d="  M 42,19  L 40,19  L 40,20  L 41,20  L 41,21  L 42,21  Z  " style="fill:rgb(19, 167, 171); fill-opacity:1.000; stroke:none;" />
 <path d="  M 43,22  L 43,21  L 42,21  L 42,22  Z  " style="fill:rgb(19, 167, 171); fill-opacity:1.000; stroke:none;" />
 <path d="  M 42,24  L 43,24  L 43,23  L 42,23  Z  " style="fill:rgb(19, 167, 171); fill-opacity:1.000; stroke:none;" />
 <path d="  M 44,23  L 44,22  L 43,22  L 43,23  Z  " style="fill:rgb(19, 167, 171); fill-opacity:1.000; stroke:none;" />
 <path d="  M 43,25  L 44,25  L 44,24  L 43,24  Z  " style="fill:rgb(19, 167, 171); fill-opacity:1.000; stroke:none;" />
 <path d="  M 43,27  L 44,27  L 44,26  L 43,26  Z  " style="fill:rgb(19, 167, 171); fill-opacity:1.000; stroke:none;" />
 <path d="  M 44,26  L 45,26  L 45,25  L 44,25  Z  " style="fill:rgb(19, 167, 171); fill-opacity:1.000; stroke:none;" />
 <path d="  M 44,30  L 45,30  L 45,29  L 46,29  L 46,27  L 45,27  L 45,28  L 44,28  Z  " style="fill:rgb(19, 167, 171); fill-opacity:1.000; stroke:none;" />
 <path d="  M 44,32  L 44,33  L 45,33  L 45,32  Z  " style="fill:rgb(19, 167, 171); fill-opacity:1.000; stroke:none;" />
 <path d="  M 47,33  L 47,31  L 46,31  L 46,30  L 45,30  L 45,32  L 46,32  L 46,34  L 47,34  L 47,36  L 46,36  L 46,37  L 48,37  L 48,33  Z  " style="fill:rgb(19, 167, 171); fill-opacity:1.000; stroke:none;" />
 <path d="  M 46,35  L 46,34  L 45,34  L 45,35  Z  " style="fill:rgb(19, 167, 171); fill-opacity:1.000; stroke:none;" />
 <path d="  M 17,38  L 21,38  L 21,37  L 22,37  L 22,36  L 21,36  L 21,35  L 20,35  L 20,33  L 19,33  L 19,34  L 18,34  L 18,35  L 17,35  Z  M 19,36  L 19,37  L 18,37  L 18,36  Z  M 20,35  L 20,36  L 19,36  L 19,35  Z  " style="fill:rgb(37, 198, 205); fill-opacity:1.000; stroke:none;" />
 <path d="  M 19,30  L 19,29  L 20,29  L 20,28  L 18,28  L 18,30  Z  " style="fill:rgb(37, 198, 205); fill-opacity:1.000; stroke:none;" />
 <path d="  M 19,30  L 19,31  L 18,31  L 18,33  L 19,33  L 19,32  L 20,32  L 20,33  L 21,33  L 21,32  L 22,32  L 22,31  L 23,31  L 23,29  L 24,29  L 24,28  L 23,28  L 23,25  L 22,25  L 22,27  L 20,27  L 20,28  L 21,28  L 21,29  L 20,29  L 20,30  Z  M 21,30  L 21,29  L 22,29  L 22,30  Z  " style="fill:rgb(37, 198, 205); fill-opacity:1.000; stroke:none;" />
 <path d="  M 20,24  L 20,26  L 21,26  L 21,25  L 22,25  L 22,24  L 23,24  L 23,23  L 24,23  L 24,22  L 23,22  L 23,20  L 22,20  L 22,23  L 21,23  L 21,24  Z  " style="fill:rgb(37, 198, 205); fill-opacity:1.000; stroke:none;" />
 <path d="  M 22,33  L 21,33  L 21,34  L 22,34  Z  " style="fill:rgb(37, 198, 205); fill-opacity:1.000; stroke:none;" />
 <path d="  M 23,35  L 22,35  L 22,36  L 23,36  Z  " style="fill:rgb(37, 198, 205); fill-opacity:1.000; stroke:none;" />
 <path d="  M 23,37  L 22,37  L 22,38  L 23,38  Z  " style="fill:rgb(37, 198, 205); fill-opacity:1.000; stroke:none;" />
 <path d="  M 23,24  L 23,25  L 24,25  L 24,24  Z  " style="fill:rgb(37, 198, 205); fill-opacity:1.000; stroke:none;" />
 <path d="  M 23,31  L 23,32  L 24,32  L 24,31  Z  " style="fill:rgb(37, 198, 205); fill-opacity:1.000; stroke:none;" />
 <path d="  M 23,39  L 24,39  L 24,38  L 23,38  Z  " style="fill:rgb(37, 198, 205); fill-opacity:1.000; stroke:none;" />
 <path d="  M 25,23  L 24,23  L 24,24  L 25,24  Z  " style="fill:rgb(37, 198, 205); fill-opacity:1.000; stroke:none;" />
 <path d="  M 24,26  L 26,26  L 26,25  L 24,25  Z  " style="fill:rgb(37, 198, 205); fill-opacity:1.000; stroke:none;" />
 <path d="  M 25,31  L 25,30  L 24,30  L 24,31  Z  " style="fill:rgb(37, 198, 205); fill-opacity:1.000; stroke:none;" />
 <path d="  M 24,42  L 25,42  L 25,40  L 24,40  Z  " style="fill:rgb(37, 198, 205); fill-opacity:1.000; stroke:none;" />
 <path d="  M 27,23  L 27,22  L 25,22  L 25,23  Z  " style="fill:rgb(37, 198, 205); fill-opacity:1.000; stroke:none;" />
 <path d="  M 25,27  L 25,28  L 26,28  L 26,27  Z  " style="fill:rgb(37, 198, 205); fill-opacity:1.000; stroke:none;" />
 <path d="  M 25,44  L 26,44  L 26,42  L 25,42  Z  " style="fill:rgb(37, 198, 205); fill-opacity:1.000; stroke:none;" />
 <path d="  M 26,25  L 27,25  L 27,24  L 26,24  Z  " style="fill:rgb(37, 198, 205); fill-opacity:1.000; stroke:none;" />
 <path d="  M 27,27  L 27,26  L 26,26  L 26,27  Z  " style="fill:rgb(37, 198, 205); fill-opacity:1.000; stroke:none;" />
 <path d="  M 29,23  L 29,22  L 30,22  L 30,21  L 31,21  L 31,20  L 32,20  L 32,19  L 31,19  L 31,18  L 29,18  L 29,19  L 30,19  L 30,20  L 29,20  L 29,21  L 28,21  L 28,20  L 27,20  L 27,22  L 28,22  L 28,23  Z  " style="fill:rgb(37, 198, 205); fill-opacity:1.000; stroke:none;" />
 <path d="  M 27,24  L 28,24  L 28,23  L 27,23  Z  " style="fill:rgb(37, 198, 205); fill-opacity:1.000; stroke:none;" />
 <path d="  M 28,42  L 27,42  L 27,43  L 28,43  Z  " style="fill:rgb(37, 198, 205); fill-opacity:1.000; stroke:none;" />
 <path d="  M 29,19  L 28,19  L 28,20  L 29,20  Z  " style="fill:rgb(37, 198, 205); fill-opacity:1.000; stroke:none;" />
 <path d="  M 29,43  L 28,43  L 28,44  L 29,44  Z  " style="fill:rgb(37, 198, 205); fill-opacity:1.000; stroke:none;" />
 <path d="  M 31,46  L 31,45  L 30,45  L 30,44  L 29,44  L 29,45  L 28,45  L 28,46  Z  " style="fill:rgb(37, 198, 205); fill-opacity:1.000; stroke:none;" />
 <path d="  M 30,25  L 31,25  L 31,24  L 30,24  L 30,23  L 29,23  L 29,26  L 30,26  Z  " style="fill:rgb(37, 198, 205); fill-opacity:1.000; stroke:none;" />
 <path d="  M 32,16  L 31,16  L 31,15  L 30,15  L 30,17  L 31,17  L 31,18  L 32,18  Z  " style="fill:rgb(37, 198, 205); fill-opacity:1.000; stroke:none;" />
 <path d="  M 32,15  L 32,14  L 31,14  L 31,15  Z  " style="fill:rgb(37, 198, 205); fill-opacity:1.000; stroke:none;" />
 <path d="  M 31,23  L 32,23  L 32,22  L 31,22  Z  " style="fill:rgb(37, 198, 205); fill-opacity:1.000; stroke:none;" />
 <path d="  M 34,11  L 35,11  L 35,12  L 34,12  Z  M 35,9  L 34,9  L 34,10  L 33,10  L 33,11  L 32,11  L 32,12  L 33,12  L 33,13  L 34,13  L 34,14  L 35,14  L 35,13  L 36,13  L 36,11  L 35,11  Z  " style="fill:rgb(37, 198, 205); fill-opacity:1.000; stroke:none;" />
 <path d="  M 33,14  L 33,13  L 32,13  L 32,14  Z  " style="fill:rgb(37, 198, 205); fill-opacity:1.000; stroke:none;" />
 <path d="  M 33,20  L 32,20  L 32,21  L 33,21  Z  " style="fill:rgb(37, 198, 205); fill-opacity:1.000; stroke:none;" />
 <path d="  M 32,45  L 32,46  L 35,46  L 35,45  Z  " style="fill:rgb(37, 198, 205); fill-opacity:1.000; stroke:none;" />
 <path d="  M 36,15  L 34,15  L 34,14  L 33,14  L 33,16  L 34,16  L 34,17  L 35,17  L 35,18  L 36,18  L 36,16  L 37,16  L 37,14  L 36,14  Z  " style="fill:rgb(37, 198, 205); fill-opacity:1.000; stroke:none;" />
 <path d="  M 34,19  L 35,19  L 35,18  L 34,18  Z  " style="fill:rgb(37, 198, 205); fill-opacity:1.000; stroke:none;" />
 <path d="  M 35,22  L 35,21  L 34,21  L 34,22  Z  " style="fill:rgb(37, 198, 205); fill-opacity:1.000; stroke:none;" />
 <path d="  M 37,16  L 37,18  L 36,18  L 36,19  L 35,19  L 35,20  L 37,20  L 37,19  L 38,19  L 38,18  L 39,18  L 39,17  L 38,17  L 38,16  Z  " style="fill:rgb(37, 198, 205); fill-opacity:1.000; stroke:none;" />
 <path d="  M 36,23  L 36,22  L 35,22  L 35,23  Z  " style="fill:rgb(37, 198, 205); fill-opacity:1.000; stroke:none;" />
 <path d="  M 35,24  L 35,25  L 36,25  L 36,24  Z  " style="fill:rgb(37, 198, 205); fill-opacity:1.000; stroke:none;" />
 <path d="  M 37,45  L 37,43  L 36,43  L 36,44  L 35,44  L 35,45  Z  " style="fill:rgb(37, 198, 205); fill-opacity:1.000; stroke:none;" />
 <path d="  M 36,25  L 36,26  L 38,26  L 38,25  Z  " style="fill:rgb(37, 198, 205); fill-opacity:1.000; stroke:none;" />
 <path d="  M 38,19  L 38,20  L 37,20  L 37,21  L 39,21  L 39,20  L 40,20  L 40,19  Z  " style="fill:rgb(37, 198, 205); fill-opacity:1.000; stroke:none;" />
 <path d="  M 37,28  L 38,28  L 38,27  L 37,27  Z  " style="fill:rgb(37, 198, 205); fill-opacity:1.000; stroke:none;" />
 <path d="  M 38,43  L 38,42  L 37,42  L 37,43  Z  " style="fill:rgb(37, 198, 205); fill-opacity:1.000; stroke:none;" />
 <path d="  M 38,24  L 38,25  L 39,25  L 39,24  Z  " style="fill:rgb(37, 198, 205); fill-opacity:1.000; stroke:none;" />
 <path d="  M 38,27  L 40,27  L 40,26  L 41,26  L 41,25  L 39,25  L 39,26  L 38,26  Z  " style="fill:rgb(37, 198, 205); fill-opacity:1.000; stroke:none;" />
 <path d="  M 38,28  L 38,29  L 39,29  L 39,28  Z  " style="fill:rgb(37, 198, 205); fill-opacity:1.000; stroke:none;" />
 <path d="  M 39,40  L 38,40  L 38,41  L 39,41  Z  " style="fill:rgb(37, 198, 205); fill-opacity:1.000; stroke:none;" />
 <path d="  M 38,43  L 38,44  L 39,44  L 39,43  Z  " style="fill:rgb(37, 198, 205); fill-opacity:1.000; stroke:none;" />
 <path d="  M 40,22  L 39,22  L 39,23  L 40,23  Z  " style="fill:rgb(37, 198, 205); fill-opacity:1.000; stroke:none;" />
 <path d="  M 40,42  L 39,42  L 39,43  L 40,43  Z  " style="fill:rgb(37, 198, 205); fill-opacity:1.000; stroke:none;" />
 <path d="  M 41,21  L 41,20  L 40,20  L 40,22  L 41,22  L 41,23  L 40,23  L 40,24  L 41,24  L 41,25  L 42,25  L 42,26  L 41,26  L 41,27  L 40,27  L 40,28  L 42,28  L 42,27  L 43,27  L 43,26  L 44,26  L 44,25  L 43,25  L 43,24  L 42,24  L 42,23  L 43,23  L 43,22  L 42,22  L 42,21  Z  " style="fill:rgb(37, 198, 205); fill-opacity:1.000; stroke:none;" />
 <path d="  M 41,38  L 40,38  L 40,39  L 41,39  Z  " style="fill:rgb(37, 198, 205); fill-opacity:1.000; stroke:none;" />
 <path d="  M 42,30  L 41,30  L 41,31  L 42,31  Z  " style="fill:rgb(37, 198, 205); fill-opacity:1.000; stroke:none;" />
 <path d="  M 41,32  L 41,33  L 42,33  L 42,32  Z  " style="fill:rgb(37, 198, 205); fill-opacity:1.000; stroke:none;" />
 <path d="  M 42,38  L 42,37  L 41,37  L 41,38  Z  " style="fill:rgb(37, 198, 205); fill-opacity:1.000; stroke:none;" />
 <path d="  M 45,26  L 44,26  L 44,27  L 43,27  L 43,28  L 42,28  L 42,30  L 43,30  L 43,29  L 44,29  L 44,28  L 45,28  Z  " style="fill:rgb(37, 198, 205); fill-opacity:1.000; stroke:none;" />
 <path d="  M 42,31  L 42,32  L 43,32  L 43,33  L 44,33  L 44,32  L 45,32  L 45,30  L 44,30  L 44,31  Z  " style="fill:rgb(37, 198, 205); fill-opacity:1.000; stroke:none;" />
 <path d="  M 43,33  L 42,33  L 42,34  L 43,34  Z  " style="fill:rgb(37, 198, 205); fill-opacity:1.000; stroke:none;" />
 <path d="  M 42,37  L 43,37  L 43,36  L 42,36  Z  " style="fill:rgb(37, 198, 205); fill-opacity:1.000; stroke:none;" />
 <path d="  M 44,24  L 44,23  L 43,23  L 43,24  Z  " style="fill:rgb(37, 198, 205); fill-opacity:1.000; stroke:none;" />
 <path d="  M 44,35  L 45,35  L 45,34  L 46,34  L 46,32  L 45,32  L 45,33  L 44,33  L 44,34  L 43,34  L 43,36  L 44,36  Z  " style="fill:rgb(37, 198, 205); fill-opacity:1.000; stroke:none;" />
 <path d="  M 43,38  L 44,38  L 44,37  L 43,37  Z  " style="fill:rgb(37, 198, 205); fill-opacity:1.000; stroke:none;" />
 <path d="  M 46,35  L 45,35  L 45,36  L 44,36  L 44,37  L 45,37  L 45,38  L 47,38  L 47,37  L 46,37  L 46,36  L 47,36  L 47,34  L 46,34  Z  " style="fill:rgb(37, 198, 205); fill-opacity:1.000; stroke:none;" />
 <path d="  M 45,29  L 45,30  L 46,30  L 46,29  Z  " style="fill:rgb(37, 198, 205); fill-opacity:1.000; stroke:none;" />
 <path d="  M 20,29  L 19,29  L 19,30  L 20,30  Z  " style="fill:rgb(91, 227, 232); fill-opacity:1.000; stroke:none;" />
 <path d="  M 19,35  L 19,36  L 20,36  L 20,35  Z  " style="fill:rgb(91, 227, 232); fill-opacity:1.000; stroke:none;" />
 <path d="  M 21,29  L 21,28  L 20,28  L 20,29  Z  " style="fill:rgb(91, 227, 232); fill-opacity:1.000; stroke:none;" />
 <path d="  M 21,35  L 21,33  L 20,33  L 20,35  Z  " style="fill:rgb(91, 227, 232); fill-opacity:1.000; stroke:none;" />
 <path d="  M 22,22  L 21,22  L 21,23  L 22,23  Z  " style="fill:rgb(91, 227, 232); fill-opacity:1.000; stroke:none;" />
 <path d="  M 22,27  L 22,26  L 21,26  L 21,27  Z  " style="fill:rgb(91, 227, 232); fill-opacity:1.000; stroke:none;" />
 <path d="  M 22,30  L 22,29  L 21,29  L 21,30  Z  " style="fill:rgb(91, 227, 232); fill-opacity:1.000; stroke:none;" />
 <path d="  M 23,31  L 22,31  L 22,32  L 21,32  L 21,33  L 23,33  Z  " style="fill:rgb(91, 227, 232); fill-opacity:1.000; stroke:none;" />
 <path d="  M 22,35  L 21,35  L 21,36  L 22,36  Z  " style="fill:rgb(91, 227, 232); fill-opacity:1.000; stroke:none;" />
 <path d="  M 22,37  L 21,37  L 21,38  L 22,38  Z  " style="fill:rgb(91, 227, 232); fill-opacity:1.000; stroke:none;" />
 <path d="  M 22,24  L 22,25  L 23,25  L 23,24  Z  " style="fill:rgb(91, 227, 232); fill-opacity:1.000; stroke:none;" />
 <path d="  M 22,35  L 23,35  L 23,34  L 22,34  Z  " style="fill:rgb(91, 227, 232); fill-opacity:1.000; stroke:none;" />
 <path d="  M 24,36  L 22,36  L 22,37  L 23,37  L 23,38  L 24,38  Z  " style="fill:rgb(91, 227, 232); fill-opacity:1.000; stroke:none;" />
 <path d="  M 24,26  L 24,25  L 23,25  L 23,26  Z  " style="fill:rgb(91, 227, 232); fill-opacity:1.000; stroke:none;" />
 <path d="  M 23,28  L 24,28  L 24,27  L 23,27  Z  " style="fill:rgb(91, 227, 232); fill-opacity:1.000; stroke:none;" />
 <path d="  M 25,29  L 26,29  L 26,30  L 28,30  L 28,29  L 27,29  L 27,27  L 26,27  L 26,28  L 24,28  L 24,29  L 23,29  L 23,31  L 24,31  L 24,30  L 25,30  Z  " style="fill:rgb(91, 227, 232); fill-opacity:1.000; stroke:none;" />
 <path d="  M 24,33  L 23,33  L 23,34  L 24,34  Z  " style="fill:rgb(91, 227, 232); fill-opacity:1.000; stroke:none;" />
 <path d="  M 24,25  L 25,25  L 25,24  L 24,24  Z  " style="fill:rgb(91, 227, 232); fill-opacity:1.000; stroke:none;" />
 <path d="  M 26,27  L 26,26  L 24,26  L 24,27  Z  " style="fill:rgb(91, 227, 232); fill-opacity:1.000; stroke:none;" />
 <path d="  M 24,33  L 25,33  L 25,31  L 24,31  Z  " style="fill:rgb(91, 227, 232); fill-opacity:1.000; stroke:none;" />
 <path d="  M 25,38  L 24,38  L 24,39  L 25,39  Z  " style="fill:rgb(91, 227, 232); fill-opacity:1.000; stroke:none;" />
 <path d="  M 24,42  L 24,43  L 25,43  L 25,42  Z  " style="fill:rgb(91, 227, 232); fill-opacity:1.000; stroke:none;" />
 <path d="  M 26,30  L 25,30  L 25,31  L 26,31  Z  " style="fill:rgb(91, 227, 232); fill-opacity:1.000; stroke:none;" />
 <path d="  M 25,42  L 26,42  L 26,41  L 27,41  L 27,40  L 26,40  L 26,39  L 25,39  Z  " style="fill:rgb(91, 227, 232); fill-opacity:1.000; stroke:none;" />
 <path d="  M 26,24  L 27,24  L 27,23  L 26,23  Z  " style="fill:rgb(91, 227, 232); fill-opacity:1.000; stroke:none;" />
 <path d="  M 26,25  L 26,26  L 28,26  L 28,27  L 29,27  L 29,28  L 30,28  L 30,26  L 29,26  L 29,25  L 28,25  L 28,24  L 27,24  L 27,25  Z  " style="fill:rgb(91, 227, 232); fill-opacity:1.000; stroke:none;" />
 <path d="  M 27,43  L 27,42  L 26,42  L 26,43  Z  " style="fill:rgb(91, 227, 232); fill-opacity:1.000; stroke:none;" />
 <path d="  M 28,22  L 27,22  L 27,23  L 28,23  Z  " style="fill:rgb(91, 227, 232); fill-opacity:1.000; stroke:none;" />
 <path d="  M 28,41  L 27,41  L 27,42  L 28,42  Z  " style="fill:rgb(91, 227, 232); fill-opacity:1.000; stroke:none;" />
 <path d="  M 28,44  L 28,43  L 27,43  L 27,44  Z  " style="fill:rgb(91, 227, 232); fill-opacity:1.000; stroke:none;" />
 <path d="  M 28,23  L 28,24  L 29,24  L 29,23  Z  " style="fill:rgb(91, 227, 232); fill-opacity:1.000; stroke:none;" />
 <path d="  M 29,43  L 29,42  L 28,42  L 28,43  Z  " style="fill:rgb(91, 227, 232); fill-opacity:1.000; stroke:none;" />
 <path d="  M 29,19  L 29,20  L 30,20  L 30,19  Z  " style="fill:rgb(91, 227, 232); fill-opacity:1.000; stroke:none;" />
 <path d="  M 32,23  L 31,23  L 31,22  L 29,22  L 29,23  L 30,23  L 30,24  L 32,24  Z  " style="fill:rgb(91, 227, 232); fill-opacity:1.000; stroke:none;" />
 <path d="  M 30,44  L 30,43  L 29,43  L 29,44  Z  " style="fill:rgb(91, 227, 232); fill-opacity:1.000; stroke:none;" />
 <path d="  M 30,17  L 30,18  L 31,18  L 31,17  Z  " style="fill:rgb(91, 227, 232); fill-opacity:1.000; stroke:none;" />
 <path d="  M 31,26  L 31,25  L 30,25  L 30,26  Z  " style="fill:rgb(91, 227, 232); fill-opacity:1.000; stroke:none;" />
 <path d="  M 31,44  L 30,44  L 30,45  L 31,45  Z  " style="fill:rgb(91, 227, 232); fill-opacity:1.000; stroke:none;" />
 <path d="  M 31,19  L 32,19  L 32,18  L 31,18  Z  " style="fill:rgb(91, 227, 232); fill-opacity:1.000; stroke:none;" />
 <path d="  M 31,21  L 31,22  L 33,22  L 33,21  Z  " style="fill:rgb(91, 227, 232); fill-opacity:1.000; stroke:none;" />
 <path d="  M 31,46  L 32,46  L 32,45  L 31,45  Z  " style="fill:rgb(91, 227, 232); fill-opacity:1.000; stroke:none;" />
 <path d="  M 32,12  L 32,13  L 33,13  L 33,12  Z  " style="fill:rgb(91, 227, 232); fill-opacity:1.000; stroke:none;" />
 <path d="  M 33,14  L 32,14  L 32,18  L 33,18  L 33,19  L 34,19  L 34,18  L 35,18  L 35,17  L 33,17  Z  " style="fill:rgb(91, 227, 232); fill-opacity:1.000; stroke:none;" />
 <path d="  M 32,19  L 32,20  L 33,20  L 33,19  Z  " style="fill:rgb(91, 227, 232); fill-opacity:1.000; stroke:none;" />
 <path d="  M 34,45  L 34,44  L 32,44  L 32,45  Z  " style="fill:rgb(91, 227, 232); fill-opacity:1.000; stroke:none;" />
 <path d="  M 33,14  L 34,14  L 34,13  L 33,13  Z  " style="fill:rgb(91, 227, 232); fill-opacity:1.000; stroke:none;" />
 <path d="  M 35,20  L 35,19  L 34,19  L 34,20  L 33,20  L 33,21  L 35,21  L 35,22  L 36,22  L 36,21  L 37,21  L 37,20  Z  " style="fill:rgb(91, 227, 232); fill-opacity:1.000; stroke:none;" />
 <path d="  M 35,12  L 35,11  L 34,11  L 34,12  Z  " style="fill:rgb(91, 227, 232); fill-opacity:1.000; stroke:none;" />
 <path d="  M 35,15  L 35,14  L 34,14  L 34,15  Z  " style="fill:rgb(91, 227, 232); fill-opacity:1.000; stroke:none;" />
 <path d="  M 34,23  L 35,23  L 35,22  L 34,22  Z  " style="fill:rgb(91, 227, 232); fill-opacity:1.000; stroke:none;" />
 <path d="  M 34,26  L 35,26  L 35,27  L 36,27  L 36,28  L 37,28  L 37,27  L 38,27  L 38,26  L 36,26  L 36,25  L 35,25  L 35,24  L 34,24  Z  " style="fill:rgb(91, 227, 232); fill-opacity:1.000; stroke:none;" />
 <path d="  M 36,18  L 35,18  L 35,19  L 36,19  Z  " style="fill:rgb(91, 227, 232); fill-opacity:1.000; stroke:none;" />
 <path d="  M 36,24  L 36,23  L 35,23  L 35,24  Z  " style="fill:rgb(91, 227, 232); fill-opacity:1.000; stroke:none;" />
 <path d="  M 35,43  L 35,44  L 36,44  L 36,43  Z  " style="fill:rgb(91, 227, 232); fill-opacity:1.000; stroke:none;" />
 <path d="  M 37,18  L 37,17  L 36,17  L 36,18  Z  " style="fill:rgb(91, 227, 232); fill-opacity:1.000; stroke:none;" />
 <path d="  M 37,23  L 37,22  L 36,22  L 36,23  Z  " style="fill:rgb(91, 227, 232); fill-opacity:1.000; stroke:none;" />
 <path d="  M 36,25  L 37,25  L 37,24  L 36,24  Z  " style="fill:rgb(91, 227, 232); fill-opacity:1.000; stroke:none;" />
 <path d="  M 36,41  L 36,43  L 37,43  L 37,41  Z  " style="fill:rgb(91, 227, 232); fill-opacity:1.000; stroke:none;" />
 <path d="  M 38,20  L 38,19  L 37,19  L 37,20  Z  " style="fill:rgb(91, 227, 232); fill-opacity:1.000; stroke:none;" />
 <path d="  M 38,21  L 37,21  L 37,22  L 38,22  Z  " style="fill:rgb(91, 227, 232); fill-opacity:1.000; stroke:none;" />
 <path d="  M 38,29  L 38,28  L 37,28  L 37,29  Z  " style="fill:rgb(91, 227, 232); fill-opacity:1.000; stroke:none;" />
 <path d="  M 37,41  L 38,41  L 38,40  L 37,40  Z  " style="fill:rgb(91, 227, 232); fill-opacity:1.000; stroke:none;" />
 <path d="  M 38,44  L 38,43  L 37,43  L 37,44  Z  " style="fill:rgb(91, 227, 232); fill-opacity:1.000; stroke:none;" />
 <path d="  M 38,18  L 38,19  L 39,19  L 39,18  Z  " style="fill:rgb(91, 227, 232); fill-opacity:1.000; stroke:none;" />
 <path d="  M 39,22  L 38,22  L 38,23  L 39,23  Z  " style="fill:rgb(91, 227, 232); fill-opacity:1.000; stroke:none;" />
 <path d="  M 39,26  L 39,25  L 38,25  L 38,26  Z  " style="fill:rgb(91, 227, 232); fill-opacity:1.000; stroke:none;" />
 <path d="  M 42,30  L 42,28  L 40,28  L 40,27  L 38,27  L 38,28  L 39,28  L 39,29  L 38,29  L 38,30  L 40,30  L 40,29  L 41,29  L 41,30  Z  " style="fill:rgb(91, 227, 232); fill-opacity:1.000; stroke:none;" />
 <path d="  M 39,41  L 38,41  L 38,43  L 39,43  L 39,42  L 40,42  L 40,39  L 39,39  Z  " style="fill:rgb(91, 227, 232); fill-opacity:1.000; stroke:none;" />
 <path d="  M 40,22  L 40,20  L 39,20  L 39,22  Z  " style="fill:rgb(91, 227, 232); fill-opacity:1.000; stroke:none;" />
 <path d="  M 39,24  L 40,24  L 40,23  L 39,23  Z  " style="fill:rgb(91, 227, 232); fill-opacity:1.000; stroke:none;" />
 <path d="  M 41,22  L 40,22  L 40,23  L 41,23  Z  " style="fill:rgb(91, 227, 232); fill-opacity:1.000; stroke:none;" />
 <path d="  M 40,24  L 40,25  L 41,25  L 41,24  Z  " style="fill:rgb(91, 227, 232); fill-opacity:1.000; stroke:none;" />
 <path d="  M 40,26  L 40,27  L 41,27  L 41,26  Z  " style="fill:rgb(91, 227, 232); fill-opacity:1.000; stroke:none;" />
 <path d="  M 41,31  L 41,30  L 40,30  L 40,33  L 41,33  L 41,32  L 42,32  L 42,31  Z  " style="fill:rgb(91, 227, 232); fill-opacity:1.000; stroke:none;" />
 <path d="  M 41,37  L 40,37  L 40,38  L 41,38  Z  " style="fill:rgb(91, 227, 232); fill-opacity:1.000; stroke:none;" />
 <path d="  M 42,26  L 42,25  L 41,25  L 41,26  Z  " style="fill:rgb(91, 227, 232); fill-opacity:1.000; stroke:none;" />
 <path d="  M 42,33  L 41,33  L 41,34  L 42,34  Z  " style="fill:rgb(91, 227, 232); fill-opacity:1.000; stroke:none;" />
 <path d="  M 41,37  L 42,37  L 42,36  L 41,36  Z  " style="fill:rgb(91, 227, 232); fill-opacity:1.000; stroke:none;" />
 <path d="  M 42,27  L 42,28  L 43,28  L 43,27  Z  " style="fill:rgb(91, 227, 232); fill-opacity:1.000; stroke:none;" />
 <path d="  M 43,31  L 43,30  L 42,30  L 42,31  Z  " style="fill:rgb(91, 227, 232); fill-opacity:1.000; stroke:none;" />
 <path d="  M 42,32  L 42,33  L 43,33  L 43,32  Z  " style="fill:rgb(91, 227, 232); fill-opacity:1.000; stroke:none;" />
 <path d="  M 43,36  L 43,35  L 42,35  L 42,36  Z  " style="fill:rgb(91, 227, 232); fill-opacity:1.000; stroke:none;" />
 <path d="  M 42,38  L 43,38  L 43,37  L 42,37  Z  " style="fill:rgb(91, 227, 232); fill-opacity:1.000; stroke:none;" />
 <path d="  M 44,30  L 44,29  L 43,29  L 43,30  Z  " style="fill:rgb(91, 227, 232); fill-opacity:1.000; stroke:none;" />
 <path d="  M 43,33  L 43,34  L 44,34  L 44,33  Z  " style="fill:rgb(91, 227, 232); fill-opacity:1.000; stroke:none;" />
 <path d="  M 44,36  L 43,36  L 43,37  L 44,37  Z  " style="fill:rgb(91, 227, 232); fill-opacity:1.000; stroke:none;" />
 <path d="  M 45,35  L 44,35  L 44,36  L 45,36  Z  " style="fill:rgb(91, 227, 232); fill-opacity:1.000; stroke:none;" />
 <path d="  M 44,37  L 44,38  L 45,38  L 45,37  Z  " style="fill:rgb(91, 227, 232); fill-opacity:1.000; stroke:none;" />
 <path d="  M 21,34  L 21,35  L 22,35  L 22,34  Z  " style="fill:rgb(124, 242, 245); fill-opacity:1.000; stroke:none;" />
 <path d="  M 22,33  L 22,34  L 23,34  L 23,33  Z  " style="fill:rgb(124, 242, 245); fill-opacity:1.000; stroke:none;" />
 <path d="  M 23,26  L 23,27  L 24,27  L 24,26  Z  " style="fill:rgb(124, 242, 245); fill-opacity:1.000; stroke:none;" />
 <path d="  M 24,33  L 24,32  L 23,32  L 23,33  Z  " style="fill:rgb(124, 242, 245); fill-opacity:1.000; stroke:none;" />
 <path d="  M 24,33  L 24,34  L 23,34  L 23,36  L 24,36  L 24,35  L 25,35  L 25,34  L 26,34  L 26,33  Z  " style="fill:rgb(124, 242, 245); fill-opacity:1.000; stroke:none;" />
 <path d="  M 25,27  L 24,27  L 24,28  L 25,28  Z  " style="fill:rgb(124, 242, 245); fill-opacity:1.000; stroke:none;" />
 <path d="  M 25,38  L 25,37  L 26,37  L 26,36  L 24,36  L 24,38  Z  " style="fill:rgb(124, 242, 245); fill-opacity:1.000; stroke:none;" />
 <path d="  M 25,39  L 24,39  L 24,40  L 25,40  Z  " style="fill:rgb(124, 242, 245); fill-opacity:1.000; stroke:none;" />
 <path d="  M 26,25  L 26,24  L 25,24  L 25,25  Z  " style="fill:rgb(124, 242, 245); fill-opacity:1.000; stroke:none;" />
 <path d="  M 26,29  L 25,29  L 25,30  L 26,30  Z  " style="fill:rgb(124, 242, 245); fill-opacity:1.000; stroke:none;" />
 <path d="  M 27,31  L 25,31  L 25,32  L 27,32  Z  " style="fill:rgb(124, 242, 245); fill-opacity:1.000; stroke:none;" />
 <path d="  M 26,39  L 26,38  L 25,38  L 25,39  Z  " style="fill:rgb(124, 242, 245); fill-opacity:1.000; stroke:none;" />
 <path d="  M 27,40  L 27,39  L 26,39  L 26,40  Z  " style="fill:rgb(124, 242, 245); fill-opacity:1.000; stroke:none;" />
 <path d="  M 26,42  L 27,42  L 27,41  L 26,41  Z  " style="fill:rgb(124, 242, 245); fill-opacity:1.000; stroke:none;" />
 <path d="  M 27,29  L 28,29  L 28,30  L 30,30  L 30,29  L 31,29  L 31,30  L 32,30  L 32,28  L 31,28  L 31,26  L 30,26  L 30,28  L 28,28  L 28,26  L 27,26  Z  " style="fill:rgb(124, 242, 245); fill-opacity:1.000; stroke:none;" />
 <path d="  M 27,31  L 28,31  L 28,30  L 27,30  Z  " style="fill:rgb(124, 242, 245); fill-opacity:1.000; stroke:none;" />
 <path d="  M 28,39  L 28,38  L 27,38  L 27,39  Z  " style="fill:rgb(124, 242, 245); fill-opacity:1.000; stroke:none;" />
 <path d="  M 27,40  L 27,41  L 28,41  L 28,40  Z  " style="fill:rgb(124, 242, 245); fill-opacity:1.000; stroke:none;" />
 <path d="  M 28,24  L 28,25  L 29,25  L 29,24  Z  " style="fill:rgb(124, 242, 245); fill-opacity:1.000; stroke:none;" />
 <path d="  M 28,31  L 28,32  L 29,32  L 29,33  L 30,33  L 30,32  L 31,32  L 31,30  L 30,30  L 30,31  Z  " style="fill:rgb(124, 242, 245); fill-opacity:1.000; stroke:none;" />
 <path d="  M 28,41  L 28,42  L 29,42  L 29,41  Z  " style="fill:rgb(124, 242, 245); fill-opacity:1.000; stroke:none;" />
 <path d="  M 29,42  L 29,43  L 30,43  L 30,42  Z  " style="fill:rgb(124, 242, 245); fill-opacity:1.000; stroke:none;" />
 <path d="  M 30,22  L 31,22  L 31,21  L 30,21  Z  " style="fill:rgb(124, 242, 245); fill-opacity:1.000; stroke:none;" />
 <path d="  M 30,34  L 31,34  L 31,33  L 30,33  Z  " style="fill:rgb(124, 242, 245); fill-opacity:1.000; stroke:none;" />
 <path d="  M 30,41  L 30,42  L 31,42  L 31,41  Z  " style="fill:rgb(124, 242, 245); fill-opacity:1.000; stroke:none;" />
 <path d="  M 30,44  L 31,44  L 31,45  L 32,45  L 32,43  L 30,43  Z  " style="fill:rgb(124, 242, 245); fill-opacity:1.000; stroke:none;" />
 <path d="  M 31,21  L 32,21  L 32,20  L 31,20  Z  " style="fill:rgb(124, 242, 245); fill-opacity:1.000; stroke:none;" />
 <path d="  M 34,21  L 33,21  L 33,22  L 32,22  L 32,24  L 31,24  L 31,26  L 32,26  L 32,25  L 33,25  L 33,27  L 32,27  L 32,28  L 34,28  L 34,27  L 35,27  L 35,26  L 34,26  L 34,24  L 33,24  L 33,23  L 34,23  Z  " style="fill:rgb(124, 242, 245); fill-opacity:1.000; stroke:none;" />
 <path d="  M 33,19  L 33,18  L 32,18  L 32,19  Z  " style="fill:rgb(124, 242, 245); fill-opacity:1.000; stroke:none;" />
 <path d="  M 33,17  L 34,17  L 34,16  L 33,16  Z  " style="fill:rgb(124, 242, 245); fill-opacity:1.000; stroke:none;" />
 <path d="  M 33,19  L 33,20  L 34,20  L 34,19  Z  " style="fill:rgb(124, 242, 245); fill-opacity:1.000; stroke:none;" />
 <path d="  M 34,23  L 34,24  L 35,24  L 35,23  Z  " style="fill:rgb(124, 242, 245); fill-opacity:1.000; stroke:none;" />
 <path d="  M 34,30  L 35,30  L 35,29  L 34,29  Z  " style="fill:rgb(124, 242, 245); fill-opacity:1.000; stroke:none;" />
 <path d="  M 35,43  L 34,43  L 34,44  L 35,44  Z  " style="fill:rgb(124, 242, 245); fill-opacity:1.000; stroke:none;" />
 <path d="  M 35,27  L 35,29  L 37,29  L 37,28  L 36,28  L 36,27  Z  " style="fill:rgb(124, 242, 245); fill-opacity:1.000; stroke:none;" />
 <path d="  M 36,31  L 36,30  L 35,30  L 35,31  Z  " style="fill:rgb(124, 242, 245); fill-opacity:1.000; stroke:none;" />
 <path d="  M 36,43  L 36,42  L 35,42  L 35,43  Z  " style="fill:rgb(124, 242, 245); fill-opacity:1.000; stroke:none;" />
 <path d="  M 36,21  L 36,22  L 37,22  L 37,21  Z  " style="fill:rgb(124, 242, 245); fill-opacity:1.000; stroke:none;" />
 <path d="  M 38,25  L 38,24  L 39,24  L 39,23  L 38,23  L 38,22  L 37,22  L 37,23  L 36,23  L 36,24  L 37,24  L 37,25  Z  " style="fill:rgb(124, 242, 245); fill-opacity:1.000; stroke:none;" />
 <path d="  M 37,41  L 37,40  L 36,40  L 36,41  Z  " style="fill:rgb(124, 242, 245); fill-opacity:1.000; stroke:none;" />
 <path d="  M 37,29  L 37,30  L 38,30  L 38,29  Z  " style="fill:rgb(124, 242, 245); fill-opacity:1.000; stroke:none;" />
 <path d="  M 38,41  L 37,41  L 37,42  L 38,42  Z  " style="fill:rgb(124, 242, 245); fill-opacity:1.000; stroke:none;" />
 <path d="  M 38,21  L 38,22  L 39,22  L 39,21  Z  " style="fill:rgb(124, 242, 245); fill-opacity:1.000; stroke:none;" />
 <path d="  M 38,30  L 38,31  L 39,31  L 39,32  L 40,32  L 40,30  Z  " style="fill:rgb(124, 242, 245); fill-opacity:1.000; stroke:none;" />
 <path d="  M 38,39  L 38,40  L 39,40  L 39,39  Z  " style="fill:rgb(124, 242, 245); fill-opacity:1.000; stroke:none;" />
 <path d="  M 40,25  L 40,24  L 39,24  L 39,25  Z  " style="fill:rgb(124, 242, 245); fill-opacity:1.000; stroke:none;" />
 <path d="  M 39,34  L 40,34  L 40,35  L 41,35  L 41,33  L 39,33  Z  " style="fill:rgb(124, 242, 245); fill-opacity:1.000; stroke:none;" />
 <path d="  M 39,39  L 40,39  L 40,37  L 39,37  Z  " style="fill:rgb(124, 242, 245); fill-opacity:1.000; stroke:none;" />
 <path d="  M 40,30  L 41,30  L 41,29  L 40,29  Z  " style="fill:rgb(124, 242, 245); fill-opacity:1.000; stroke:none;" />
 <path d="  M 41,37  L 41,36  L 40,36  L 40,37  Z  " style="fill:rgb(124, 242, 245); fill-opacity:1.000; stroke:none;" />
 <path d="  M 42,35  L 41,35  L 41,36  L 42,36  Z  " style="fill:rgb(124, 242, 245); fill-opacity:1.000; stroke:none;" />
 <path d="  M 42,34  L 42,35  L 43,35  L 43,34  Z  " style="fill:rgb(124, 242, 245); fill-opacity:1.000; stroke:none;" />
 <path d="  M 43,30  L 43,31  L 44,31  L 44,30  Z  " style="fill:rgb(124, 242, 245); fill-opacity:1.000; stroke:none;" />
 <path d="  M 24,36  L 26,36  L 26,35  L 27,35  L 27,34  L 25,34  L 25,35  L 24,35  Z  " style="fill:rgb(212, 254, 255); fill-opacity:1.000; stroke:none;" />
 <path d="  M 25,32  L 25,33  L 27,33  L 27,34  L 28,34  L 28,33  L 29,33  L 29,32  L 28,32  L 28,31  L 27,31  L 27,32  Z  " style="fill:rgb(212, 254, 255); fill-opacity:1.000; stroke:none;" />
 <path d="  M 29,40  L 30,40  L 30,38  L 29,38  L 29,37  L 27,37  L 27,36  L 26,36  L 26,37  L 25,37  L 25,38  L 26,38  L 26,39  L 27,39  L 27,38  L 28,38  L 28,39  L 29,39  Z  " style="fill:rgb(212, 254, 255); fill-opacity:1.000; stroke:none;" />
 <path d="  M 26,31  L 27,31  L 27,30  L 26,30  Z  " style="fill:rgb(212, 254, 255); fill-opacity:1.000; stroke:none;" />
 <path d="  M 28,39  L 27,39  L 27,40  L 28,40  Z  " style="fill:rgb(212, 254, 255); fill-opacity:1.000; stroke:none;" />
 <path d="  M 29,28  L 29,27  L 28,27  L 28,28  Z  " style="fill:rgb(212, 254, 255); fill-opacity:1.000; stroke:none;" />
 <path d="  M 30,31  L 30,30  L 28,30  L 28,31  Z  " style="fill:rgb(212, 254, 255); fill-opacity:1.000; stroke:none;" />
 <path d="  M 29,37  L 30,37  L 30,38  L 32,38  L 32,37  L 31,37  L 31,36  L 32,36  L 32,34  L 31,34  L 31,35  L 30,35  L 30,33  L 29,33  L 29,34  L 28,34  L 28,35  L 29,35  Z  " style="fill:rgb(212, 254, 255); fill-opacity:1.000; stroke:none;" />
 <path d="  M 29,41  L 29,40  L 28,40  L 28,41  Z  " style="fill:rgb(212, 254, 255); fill-opacity:1.000; stroke:none;" />
 <path d="  M 30,42  L 30,41  L 29,41  L 29,42  Z  " style="fill:rgb(212, 254, 255); fill-opacity:1.000; stroke:none;" />
 <path d="  M 30,29  L 30,30  L 31,30  L 31,29  Z  " style="fill:rgb(212, 254, 255); fill-opacity:1.000; stroke:none;" />
 <path d="  M 34,28  L 32,28  L 32,30  L 31,30  L 31,32  L 30,32  L 30,33  L 32,33  L 32,34  L 33,34  L 33,36  L 34,36  L 34,33  L 35,33  L 35,32  L 36,32  L 36,31  L 35,31  L 35,30  L 34,30  L 34,29  L 35,29  L 35,27  L 34,27  Z  M 33,31  L 33,30  L 34,30  L 34,31  Z  M 32,32  L 32,31  L 33,31  L 33,32  Z  " style="fill:rgb(212, 254, 255); fill-opacity:1.000; stroke:none;" />
 <path d="  M 31,41  L 31,40  L 30,40  L 30,41  Z  " style="fill:rgb(212, 254, 255); fill-opacity:1.000; stroke:none;" />
 <path d="  M 32,43  L 32,41  L 31,41  L 31,42  L 30,42  L 30,43  Z  " style="fill:rgb(212, 254, 255); fill-opacity:1.000; stroke:none;" />
 <path d="  M 33,27  L 33,25  L 32,25  L 32,26  L 31,26  L 31,28  L 32,28  L 32,27  Z  " style="fill:rgb(212, 254, 255); fill-opacity:1.000; stroke:none;" />
 <path d="  M 34,42  L 33,42  L 33,43  L 32,43  L 32,44  L 34,44  L 34,43  L 35,43  L 35,42  L 36,42  L 36,41  L 35,41  L 35,40  L 34,40  Z  " style="fill:rgb(212, 254, 255); fill-opacity:1.000; stroke:none;" />
 <path d="  M 34,23  L 33,23  L 33,24  L 34,24  Z  " style="fill:rgb(212, 254, 255); fill-opacity:1.000; stroke:none;" />
 <path d="  M 34,38  L 36,38  L 36,37  L 35,37  L 35,36  L 34,36  Z  " style="fill:rgb(212, 254, 255); fill-opacity:1.000; stroke:none;" />
 <path d="  M 38,35  L 38,34  L 39,34  L 39,33  L 40,33  L 40,32  L 39,32  L 39,31  L 38,31  L 38,30  L 37,30  L 37,29  L 35,29  L 35,30  L 36,30  L 36,31  L 37,31  L 37,32  L 36,32  L 36,33  L 35,33  L 35,34  L 36,34  L 36,35  Z  M 37,34  L 37,33  L 38,33  L 38,34  Z  " style="fill:rgb(212, 254, 255); fill-opacity:1.000; stroke:none;" />
 <path d="  M 36,35  L 35,35  L 35,36  L 36,36  Z  " style="fill:rgb(212, 254, 255); fill-opacity:1.000; stroke:none;" />
 <path d="  M 35,39  L 35,40  L 36,40  L 36,39  Z  " style="fill:rgb(212, 254, 255); fill-opacity:1.000; stroke:none;" />
 <path d="  M 36,39  L 37,39  L 37,38  L 36,38  Z  " style="fill:rgb(212, 254, 255); fill-opacity:1.000; stroke:none;" />
 <path d="  M 38,39  L 39,39  L 39,37  L 38,37  L 38,36  L 37,36  L 37,38  L 38,38  Z  " style="fill:rgb(212, 254, 255); fill-opacity:1.000; stroke:none;" />
 <path d="  M 37,40  L 38,40  L 38,39  L 37,39  Z  " style="fill:rgb(212, 254, 255); fill-opacity:1.000; stroke:none;" />
 <path d="  M 38,35  L 38,36  L 39,36  L 39,37  L 40,37  L 40,36  L 41,36  L 41,35  L 40,35  L 40,34  L 39,34  L 39,35  Z  " style="fill:rgb(212, 254, 255); fill-opacity:1.000; stroke:none;" />
 <path d="  M 42,35  L 42,34  L 41,34  L 41,35  Z  " style="fill:rgb(212, 254, 255); fill-opacity:1.000; stroke:none;" />
 <path d="  M 26,34  L 27,34  L 27,33  L 26,33  Z  " style="fill:rgb(255, 255, 255); fill-opacity:1.000; stroke:none;" />
 <path d="  M 29,37  L 29,35  L 28,35  L 28,34  L 27,34  L 27,35  L 26,35  L 26,36  L 27,36  L 27,37  Z  " style="fill:rgb(255, 255, 255); fill-opacity:1.000; stroke:none;" />
 <path d="  M 28,34  L 29,34  L 29,33  L 28,33  Z  " style="fill:rgb(255, 255, 255); fill-opacity:1.000; stroke:none;" />
 <path d="  M 28,39  L 28,40  L 29,40  L 29,39  Z  " style="fill:rgb(255, 255, 255); fill-opacity:1.000; stroke:none;" />
 <path d="  M 29,37  L 29,38  L 30,38  L 30,37  Z  " style="fill:rgb(255, 255, 255); fill-opacity:1.000; stroke:none;" />
 <path d="  M 29,40  L 29,41  L 30,41  L 30,40  Z  " style="fill:rgb(255, 255, 255); fill-opacity:1.000; stroke:none;" />
 <path d="  M 30,34  L 30,35  L 31,35  L 31,34  Z  " style="fill:rgb(255, 255, 255); fill-opacity:1.000; stroke:none;" />
 <path d="  M 31,40  L 31,41  L 32,41  L 32,43  L 33,43  L 33,42  L 34,42  L 34,40  L 35,40  L 35,39  L 36,39  L 36,38  L 34,38  L 34,36  L 33,36  L 33,34  L 32,34  L 32,36  L 31,36  L 31,37  L 32,37  L 32,38  L 30,38  L 30,40  Z  " style="fill:rgb(255, 255, 255); fill-opacity:1.000; stroke:none;" />
 <path d="  M 32,33  L 31,33  L 31,34  L 32,34  Z  " style="fill:rgb(255, 255, 255); fill-opacity:1.000; stroke:none;" />
 <path d="  M 32,31  L 32,32  L 33,32  L 33,31  Z  " style="fill:rgb(255, 255, 255); fill-opacity:1.000; stroke:none;" />
 <path d="  M 33,30  L 33,31  L 34,31  L 34,30  Z  " style="fill:rgb(255, 255, 255); fill-opacity:1.000; stroke:none;" />
 <path d="  M 34,36  L 35,36  L 35,35  L 36,35  L 36,34  L 35,34  L 35,33  L 34,33  Z  " style="fill:rgb(255, 255, 255); fill-opacity:1.000; stroke:none;" />
 <path d="  M 36,32  L 35,32  L 35,33  L 36,33  Z  " style="fill:rgb(255, 255, 255); fill-opacity:1.000; stroke:none;" />
 <path d="  M 35,36  L 35,37  L 36,37  L 36,38  L 37,38  L 37,36  L 38,36  L 38,35  L 36,35  L 36,36  Z  " style="fill:rgb(255, 255, 255); fill-opacity:1.000; stroke:none;" />
 <path d="  M 35,41  L 36,41  L 36,40  L 35,40  Z  " style="fill:rgb(255, 255, 255); fill-opacity:1.000; stroke:none;" />
 <path d="  M 37,31  L 36,31  L 36,32  L 37,32  Z  " style="fill:rgb(255, 255, 255); fill-opacity:1.000; stroke:none;" />
 <path d="  M 36,39  L 36,40  L 37,40  L 37,39  Z  " style="fill:rgb(255, 255, 255); fill-opacity:1.000; stroke:none;" />
 <path d="  M 38,33  L 37,33  L 37,34  L 38,34  Z  " style="fill:rgb(255, 255, 255); fill-opacity:1.000; stroke:none;" />
 <path d="  M 37,39  L 38,39  L 38,38  L 37,38  Z  " style="fill:rgb(255, 255, 255); fill-opacity:1.000; stroke:none;" />
 <path d="  M 39,34  L 38,34  L 38,35  L 39,35  Z  " style="fill:rgb(255, 255, 255); fill-opacity:1.000; stroke:none;" />
 <path d="  M 38,36  L 38,37  L 39,37  L 39,36  Z  " style="fill:rgb(255, 255, 255); fill-opacity:1.000; stroke:none;" />
</svg>
