<?xml version="1.0" encoding="UTF-8" standalone="no"?>
<!DOCTYPE svg PUBLIC "-//W3C//DTD SVG 1.1//EN" 
  "http://www.w3.org/Graphics/SVG/1.1/DTD/svg11.dtd">
<svg width="64" height="64"
	 xmlns="http://www.w3.org/2000/svg" version="1.1">
 <path d="  M 5,54  L 5,51  L 4,51  L 4,54  Z  " style="fill:rgb(85, 41, 37); fill-opacity:1.000; stroke:none;" />
 <path d="  M 6,51  L 6,50  L 5,50  L 5,51  Z  " style="fill:rgb(85, 41, 37); fill-opacity:1.000; stroke:none;" />
 <path d="  M 7,49  L 6,49  L 6,50  L 7,50  Z  " style="fill:rgb(85, 41, 37); fill-opacity:1.000; stroke:none;" />
 <path d="  M 8,49  L 8,48  L 7,48  L 7,49  Z  " style="fill:rgb(85, 41, 37); fill-opacity:1.000; stroke:none;" />
 <path d="  M 13,53  L 12,53  L 12,55  L 11,55  L 11,56  L 10,56  L 10,57  L 9,57  L 9,58  L 13,58  L 13,57  L 14,57  L 14,56  L 15,56  L 15,55  L 14,55  L 14,54  L 13,54  Z  " style="fill:rgb(85, 41, 37); fill-opacity:1.000; stroke:none;" />
 <path d="  M 18,34  L 17,34  L 17,37  L 18,37  Z  " style="fill:rgb(85, 41, 37); fill-opacity:1.000; stroke:none;" />
 <path d="  M 19,34  L 19,33  L 18,33  L 18,34  Z  " style="fill:rgb(85, 41, 37); fill-opacity:1.000; stroke:none;" />
 <path d="  M 19,38  L 18,38  L 18,39  L 19,39  Z  " style="fill:rgb(85, 41, 37); fill-opacity:1.000; stroke:none;" />
 <path d="  M 19,33  L 20,33  L 20,32  L 19,32  Z  " style="fill:rgb(85, 41, 37); fill-opacity:1.000; stroke:none;" />
 <path d="  M 20,39  L 19,39  L 19,41  L 20,41  Z  " style="fill:rgb(85, 41, 37); fill-opacity:1.000; stroke:none;" />
 <path d="  M 21,32  L 21,31  L 20,31  L 20,32  Z  " style="fill:rgb(85, 41, 37); fill-opacity:1.000; stroke:none;" />
 <path d="  M 20,41  L 20,42  L 21,42  L 21,41  Z  " style="fill:rgb(85, 41, 37); fill-opacity:1.000; stroke:none;" />
 <path d="  M 21,31  L 22,31  L 22,30  L 21,30  Z  " style="fill:rgb(85, 41, 37); fill-opacity:1.000; stroke:none;" />
 <path d="  M 21,43  L 22,43  L 22,42  L 21,42  Z  " style="fill:rgb(85, 41, 37); fill-opacity:1.000; stroke:none;" />
 <path d="  M 23,30  L 23,29  L 22,29  L 22,30  Z  " style="fill:rgb(85, 41, 37); fill-opacity:1.000; stroke:none;" />
 <path d="  M 22,44  L 23,44  L 23,43  L 22,43  Z  " style="fill:rgb(85, 41, 37); fill-opacity:1.000; stroke:none;" />
 <path d="  M 23,29  L 24,29  L 24,28  L 23,28  Z  " style="fill:rgb(85, 41, 37); fill-opacity:1.000; stroke:none;" />
 <path d="  M 25,45  L 25,44  L 23,44  L 23,45  Z  " style="fill:rgb(85, 41, 37); fill-opacity:1.000; stroke:none;" />
 <path d="  M 25,27  L 24,27  L 24,28  L 25,28  Z  " style="fill:rgb(85, 41, 37); fill-opacity:1.000; stroke:none;" />
 <path d="  M 32,43  L 32,42  L 33,42  L 33,41  L 34,41  L 34,40  L 35,40  L 35,38  L 34,38  L 34,37  L 35,37  L 35,36  L 33,36  L 33,37  L 32,37  L 32,36  L 31,36  L 31,37  L 30,37  L 30,38  L 29,38  L 29,39  L 28,39  L 28,40  L 27,40  L 27,41  L 26,41  L 26,42  L 24,42  L 24,43  L 25,43  L 25,44  L 27,44  L 27,45  L 30,45  L 30,44  L 31,44  L 31,43  Z  " style="fill:rgb(85, 41, 37); fill-opacity:1.000; stroke:none;" />
 <path d="  M 26,27  L 26,26  L 25,26  L 25,27  Z  " style="fill:rgb(85, 41, 37); fill-opacity:1.000; stroke:none;" />
 <path d="  M 25,46  L 27,46  L 27,45  L 25,45  Z  " style="fill:rgb(85, 41, 37); fill-opacity:1.000; stroke:none;" />
 <path d="  M 28,46  L 27,46  L 27,47  L 28,47  Z  " style="fill:rgb(85, 41, 37); fill-opacity:1.000; stroke:none;" />
 <path d="  M 32,34  L 31,34  L 31,35  L 32,35  Z  " style="fill:rgb(85, 41, 37); fill-opacity:1.000; stroke:none;" />
 <path d="  M 32,36  L 33,36  L 33,35  L 32,35  Z  " style="fill:rgb(85, 41, 37); fill-opacity:1.000; stroke:none;" />
 <path d="  M 37,38  L 37,37  L 35,37  L 35,38  Z  " style="fill:rgb(85, 41, 37); fill-opacity:1.000; stroke:none;" />
 <path d="  M 5,55  L 5,54  L 4,54  L 4,55  Z  " style="fill:rgb(51, 23, 18); fill-opacity:1.000; stroke:none;" />
 <path d="  M 6,55  L 5,55  L 5,57  L 6,57  Z  " style="fill:rgb(51, 23, 18); fill-opacity:1.000; stroke:none;" />
 <path d="  M 6,58  L 7,58  L 7,57  L 6,57  Z  " style="fill:rgb(51, 23, 18); fill-opacity:1.000; stroke:none;" />
 <path d="  M 7,59  L 9,59  L 9,58  L 7,58  Z  " style="fill:rgb(51, 23, 18); fill-opacity:1.000; stroke:none;" />
 <path d="  M 9,59  L 9,60  L 13,60  L 13,59  Z  " style="fill:rgb(51, 23, 18); fill-opacity:1.000; stroke:none;" />
 <path d="  M 13,58  L 13,59  L 14,59  L 14,58  Z  " style="fill:rgb(51, 23, 18); fill-opacity:1.000; stroke:none;" />
 <path d="  M 14,58  L 15,58  L 15,57  L 14,57  Z  " style="fill:rgb(51, 23, 18); fill-opacity:1.000; stroke:none;" />
 <path d="  M 15,56  L 15,57  L 16,57  L 16,56  Z  " style="fill:rgb(51, 23, 18); fill-opacity:1.000; stroke:none;" />
 <path d="  M 18,56  L 18,55  L 16,55  L 16,56  Z  " style="fill:rgb(51, 23, 18); fill-opacity:1.000; stroke:none;" />
 <path d="  M 28,47  L 30,47  L 30,46  L 28,46  Z  " style="fill:rgb(51, 23, 18); fill-opacity:1.000; stroke:none;" />
 <path d="  M 31,46  L 31,45  L 30,45  L 30,46  Z  " style="fill:rgb(51, 23, 18); fill-opacity:1.000; stroke:none;" />
 <path d="  M 32,44  L 31,44  L 31,45  L 32,45  Z  " style="fill:rgb(51, 23, 18); fill-opacity:1.000; stroke:none;" />
 <path d="  M 33,44  L 33,43  L 32,43  L 32,44  Z  " style="fill:rgb(51, 23, 18); fill-opacity:1.000; stroke:none;" />
 <path d="  M 34,43  L 34,42  L 33,42  L 33,43  Z  " style="fill:rgb(51, 23, 18); fill-opacity:1.000; stroke:none;" />
 <path d="  M 34,42  L 35,42  L 35,41  L 34,41  Z  " style="fill:rgb(51, 23, 18); fill-opacity:1.000; stroke:none;" />
 <path d="  M 35,41  L 36,41  L 36,40  L 35,40  Z  " style="fill:rgb(51, 23, 18); fill-opacity:1.000; stroke:none;" />
 <path d="  M 36,39  L 36,40  L 37,40  L 37,39  Z  " style="fill:rgb(51, 23, 18); fill-opacity:1.000; stroke:none;" />
 <path d="  M 37,39  L 38,39  L 38,38  L 37,38  Z  " style="fill:rgb(51, 23, 18); fill-opacity:1.000; stroke:none;" />
 <path d="  M 5,52  L 6,52  L 6,51  L 5,51  Z  " style="fill:rgb(126, 63, 57); fill-opacity:1.000; stroke:none;" />
 <path d="  M 5,55  L 6,55  L 6,54  L 5,54  Z  " style="fill:rgb(126, 63, 57); fill-opacity:1.000; stroke:none;" />
 <path d="  M 7,51  L 7,50  L 6,50  L 6,51  Z  " style="fill:rgb(126, 63, 57); fill-opacity:1.000; stroke:none;" />
 <path d="  M 8,56  L 6,56  L 6,57  L 7,57  L 7,58  L 9,58  L 9,57  L 10,57  L 10,56  L 11,56  L 11,55  L 12,55  L 12,52  L 11,52  L 11,53  L 10,53  L 10,54  L 9,54  L 9,55  L 8,55  Z  " style="fill:rgb(126, 63, 57); fill-opacity:1.000; stroke:none;" />
 <path d="  M 8,50  L 8,49  L 7,49  L 7,50  Z  " style="fill:rgb(126, 63, 57); fill-opacity:1.000; stroke:none;" />
 <path d="  M 8,49  L 9,49  L 9,48  L 8,48  Z  " style="fill:rgb(126, 63, 57); fill-opacity:1.000; stroke:none;" />
 <path d="  M 9,49  L 9,50  L 10,50  L 10,49  Z  " style="fill:rgb(126, 63, 57); fill-opacity:1.000; stroke:none;" />
 <path d="  M 13,59  L 13,58  L 9,58  L 9,59  Z  " style="fill:rgb(126, 63, 57); fill-opacity:1.000; stroke:none;" />
 <path d="  M 10,51  L 10,52  L 11,52  L 11,51  Z  " style="fill:rgb(126, 63, 57); fill-opacity:1.000; stroke:none;" />
 <path d="  M 13,57  L 13,58  L 14,58  L 14,57  Z  " style="fill:rgb(126, 63, 57); fill-opacity:1.000; stroke:none;" />
 <path d="  M 15,54  L 14,54  L 14,55  L 15,55  Z  " style="fill:rgb(126, 63, 57); fill-opacity:1.000; stroke:none;" />
 <path d="  M 15,57  L 15,56  L 14,56  L 14,57  Z  " style="fill:rgb(126, 63, 57); fill-opacity:1.000; stroke:none;" />
 <path d="  M 15,56  L 16,56  L 16,55  L 15,55  Z  " style="fill:rgb(126, 63, 57); fill-opacity:1.000; stroke:none;" />
 <path d="  M 19,34  L 18,34  L 18,38  L 19,38  Z  " style="fill:rgb(126, 63, 57); fill-opacity:1.000; stroke:none;" />
 <path d="  M 19,34  L 20,34  L 20,33  L 19,33  Z  " style="fill:rgb(126, 63, 57); fill-opacity:1.000; stroke:none;" />
 <path d="  M 19,38  L 19,39  L 20,39  L 20,38  Z  " style="fill:rgb(126, 63, 57); fill-opacity:1.000; stroke:none;" />
 <path d="  M 20,33  L 21,33  L 21,32  L 20,32  Z  " style="fill:rgb(126, 63, 57); fill-opacity:1.000; stroke:none;" />
 <path d="  M 20,41  L 21,41  L 21,40  L 20,40  Z  " style="fill:rgb(126, 63, 57); fill-opacity:1.000; stroke:none;" />
 <path d="  M 21,31  L 21,32  L 22,32  L 22,31  Z  " style="fill:rgb(126, 63, 57); fill-opacity:1.000; stroke:none;" />
 <path d="  M 21,41  L 21,42  L 22,42  L 22,43  L 23,43  L 23,44  L 25,44  L 25,43  L 24,43  L 24,42  L 26,42  L 26,41  L 27,41  L 27,40  L 28,40  L 28,39  L 29,39  L 29,38  L 30,38  L 30,37  L 31,37  L 31,36  L 32,36  L 32,35  L 31,35  L 31,33  L 30,33  L 30,32  L 29,32  L 29,34  L 28,34  L 28,35  L 27,35  L 27,36  L 26,36  L 26,37  L 25,37  L 25,38  L 24,38  L 24,39  L 23,39  L 23,40  L 22,40  L 22,41  Z  " style="fill:rgb(126, 63, 57); fill-opacity:1.000; stroke:none;" />
 <path d="  M 23,30  L 22,30  L 22,31  L 23,31  Z  " style="fill:rgb(126, 63, 57); fill-opacity:1.000; stroke:none;" />
 <path d="  M 23,29  L 23,30  L 24,30  L 24,29  Z  " style="fill:rgb(126, 63, 57); fill-opacity:1.000; stroke:none;" />
 <path d="  M 25,28  L 24,28  L 24,29  L 25,29  Z  " style="fill:rgb(126, 63, 57); fill-opacity:1.000; stroke:none;" />
 <path d="  M 25,27  L 25,28  L 26,28  L 26,29  L 27,29  L 27,26  L 26,26  L 26,27  Z  " style="fill:rgb(126, 63, 57); fill-opacity:1.000; stroke:none;" />
 <path d="  M 27,44  L 25,44  L 25,45  L 27,45  Z  " style="fill:rgb(126, 63, 57); fill-opacity:1.000; stroke:none;" />
 <path d="  M 27,29  L 27,30  L 28,30  L 28,29  Z  " style="fill:rgb(126, 63, 57); fill-opacity:1.000; stroke:none;" />
 <path d="  M 30,46  L 30,45  L 27,45  L 27,46  Z  " style="fill:rgb(126, 63, 57); fill-opacity:1.000; stroke:none;" />
 <path d="  M 28,31  L 28,32  L 29,32  L 29,31  Z  " style="fill:rgb(126, 63, 57); fill-opacity:1.000; stroke:none;" />
 <path d="  M 31,44  L 30,44  L 30,45  L 31,45  Z  " style="fill:rgb(126, 63, 57); fill-opacity:1.000; stroke:none;" />
 <path d="  M 32,44  L 32,43  L 31,43  L 31,44  Z  " style="fill:rgb(126, 63, 57); fill-opacity:1.000; stroke:none;" />
 <path d="  M 33,37  L 33,36  L 32,36  L 32,37  Z  " style="fill:rgb(126, 63, 57); fill-opacity:1.000; stroke:none;" />
 <path d="  M 32,42  L 32,43  L 33,43  L 33,42  Z  " style="fill:rgb(126, 63, 57); fill-opacity:1.000; stroke:none;" />
 <path d="  M 33,41  L 33,42  L 34,42  L 34,41  Z  " style="fill:rgb(126, 63, 57); fill-opacity:1.000; stroke:none;" />
 <path d="  M 34,37  L 34,38  L 35,38  L 35,37  Z  " style="fill:rgb(126, 63, 57); fill-opacity:1.000; stroke:none;" />
 <path d="  M 34,40  L 34,41  L 35,41  L 35,40  Z  " style="fill:rgb(126, 63, 57); fill-opacity:1.000; stroke:none;" />
 <path d="  M 36,40  L 36,39  L 37,39  L 37,38  L 35,38  L 35,40  Z  " style="fill:rgb(126, 63, 57); fill-opacity:1.000; stroke:none;" />
 <path d="  M 37,37  L 37,38  L 38,38  L 38,37  Z  " style="fill:rgb(126, 63, 57); fill-opacity:1.000; stroke:none;" />
 <path d="  M 10,50  L 9,50  L 9,49  L 8,49  L 8,50  L 7,50  L 7,51  L 6,51  L 6,52  L 5,52  L 5,54  L 6,54  L 6,56  L 8,56  L 8,55  L 9,55  L 9,54  L 10,54  L 10,53  L 11,53  L 11,52  L 10,52  Z  " style="fill:rgb(168, 95, 88); fill-opacity:1.000; stroke:none;" />
 <path d="  M 25,38  L 25,37  L 26,37  L 26,36  L 27,36  L 27,35  L 28,35  L 28,34  L 29,34  L 29,32  L 28,32  L 28,30  L 27,30  L 27,29  L 26,29  L 26,28  L 25,28  L 25,29  L 24,29  L 24,30  L 23,30  L 23,31  L 22,31  L 22,32  L 21,32  L 21,33  L 20,33  L 20,34  L 19,34  L 19,38  L 20,38  L 20,40  L 21,40  L 21,41  L 22,41  L 22,40  L 23,40  L 23,39  L 24,39  L 24,38  Z  " style="fill:rgb(168, 95, 88); fill-opacity:1.000; stroke:none;" />
 <path d="  M 8,48  L 9,48  L 9,45  L 8,45  Z  " style="fill:rgb(83, 43, 11); fill-opacity:1.000; stroke:none;" />
 <path d="  M 9,45  L 10,45  L 10,44  L 9,44  Z  " style="fill:rgb(83, 43, 11); fill-opacity:1.000; stroke:none;" />
 <path d="  M 10,44  L 11,44  L 11,43  L 10,43  Z  " style="fill:rgb(83, 43, 11); fill-opacity:1.000; stroke:none;" />
 <path d="  M 12,42  L 11,42  L 11,43  L 12,43  Z  " style="fill:rgb(83, 43, 11); fill-opacity:1.000; stroke:none;" />
 <path d="  M 12,41  L 12,42  L 13,42  L 13,41  Z  " style="fill:rgb(83, 43, 11); fill-opacity:1.000; stroke:none;" />
 <path d="  M 14,41  L 14,40  L 13,40  L 13,41  Z  " style="fill:rgb(83, 43, 11); fill-opacity:1.000; stroke:none;" />
 <path d="  M 15,40  L 15,39  L 14,39  L 14,40  Z  " style="fill:rgb(83, 43, 11); fill-opacity:1.000; stroke:none;" />
 <path d="  M 16,39  L 16,38  L 15,38  L 15,39  Z  " style="fill:rgb(83, 43, 11); fill-opacity:1.000; stroke:none;" />
 <path d="  M 17,38  L 17,37  L 16,37  L 16,38  Z  " style="fill:rgb(83, 43, 11); fill-opacity:1.000; stroke:none;" />
 <path d="  M 19,55  L 18,55  L 18,56  L 19,56  Z  " style="fill:rgb(83, 43, 11); fill-opacity:1.000; stroke:none;" />
 <path d="  M 19,54  L 19,55  L 20,55  L 20,54  Z  " style="fill:rgb(83, 43, 11); fill-opacity:1.000; stroke:none;" />
 <path d="  M 21,53  L 20,53  L 20,54  L 21,54  Z  " style="fill:rgb(83, 43, 11); fill-opacity:1.000; stroke:none;" />
 <path d="  M 22,52  L 21,52  L 21,53  L 22,53  Z  " style="fill:rgb(83, 43, 11); fill-opacity:1.000; stroke:none;" />
 <path d="  M 22,52  L 23,52  L 23,51  L 22,51  Z  " style="fill:rgb(83, 43, 11); fill-opacity:1.000; stroke:none;" />
 <path d="  M 24,50  L 23,50  L 23,51  L 24,51  Z  " style="fill:rgb(83, 43, 11); fill-opacity:1.000; stroke:none;" />
 <path d="  M 25,50  L 25,49  L 24,49  L 24,50  Z  " style="fill:rgb(83, 43, 11); fill-opacity:1.000; stroke:none;" />
 <path d="  M 26,48  L 25,48  L 25,49  L 26,49  Z  " style="fill:rgb(83, 43, 11); fill-opacity:1.000; stroke:none;" />
 <path d="  M 27,48  L 27,47  L 26,47  L 26,48  Z  " style="fill:rgb(83, 43, 11); fill-opacity:1.000; stroke:none;" />
 <path d="  M 43,38  L 43,37  L 38,37  L 38,38  Z  " style="fill:rgb(83, 43, 11); fill-opacity:1.000; stroke:none;" />
 <path d="  M 44,36  L 43,36  L 43,37  L 44,37  Z  " style="fill:rgb(83, 43, 11); fill-opacity:1.000; stroke:none;" />
 <path d="  M 45,35  L 44,35  L 44,36  L 45,36  Z  " style="fill:rgb(83, 43, 11); fill-opacity:1.000; stroke:none;" />
 <path d="  M 46,35  L 46,34  L 45,34  L 45,35  Z  " style="fill:rgb(83, 43, 11); fill-opacity:1.000; stroke:none;" />
 <path d="  M 47,33  L 46,33  L 46,34  L 47,34  Z  " style="fill:rgb(83, 43, 11); fill-opacity:1.000; stroke:none;" />
 <path d="  M 48,33  L 48,32  L 47,32  L 47,33  Z  " style="fill:rgb(83, 43, 11); fill-opacity:1.000; stroke:none;" />
 <path d="  M 48,32  L 49,32  L 49,31  L 48,31  Z  " style="fill:rgb(83, 43, 11); fill-opacity:1.000; stroke:none;" />
 <path d="  M 49,31  L 50,31  L 50,30  L 49,30  Z  " style="fill:rgb(83, 43, 11); fill-opacity:1.000; stroke:none;" />
 <path d="  M 50,29  L 50,30  L 51,30  L 51,29  Z  " style="fill:rgb(83, 43, 11); fill-opacity:1.000; stroke:none;" />
 <path d="  M 52,29  L 52,28  L 51,28  L 51,29  Z  " style="fill:rgb(83, 43, 11); fill-opacity:1.000; stroke:none;" />
 <path d="  M 53,28  L 53,27  L 52,27  L 52,28  Z  " style="fill:rgb(83, 43, 11); fill-opacity:1.000; stroke:none;" />
 <path d="  M 53,27  L 54,27  L 54,26  L 53,26  Z  " style="fill:rgb(83, 43, 11); fill-opacity:1.000; stroke:none;" />
 <path d="  M 54,26  L 55,26  L 55,25  L 54,25  Z  " style="fill:rgb(83, 43, 11); fill-opacity:1.000; stroke:none;" />
 <path d="  M 56,25  L 56,24  L 55,24  L 55,25  Z  " style="fill:rgb(83, 43, 11); fill-opacity:1.000; stroke:none;" />
 <path d="  M 9,49  L 10,49  L 10,45  L 9,45  Z  " style="fill:rgb(189, 106, 40); fill-opacity:1.000; stroke:none;" />
 <path d="  M 10,44  L 10,45  L 11,45  L 11,44  Z  " style="fill:rgb(189, 106, 40); fill-opacity:1.000; stroke:none;" />
 <path d="  M 10,51  L 11,51  L 11,49  L 10,49  Z  " style="fill:rgb(189, 106, 40); fill-opacity:1.000; stroke:none;" />
 <path d="  M 12,43  L 11,43  L 11,44  L 12,44  Z  " style="fill:rgb(189, 106, 40); fill-opacity:1.000; stroke:none;" />
 <path d="  M 17,47  L 16,47  L 16,48  L 15,48  L 15,49  L 14,49  L 14,50  L 13,50  L 13,51  L 11,51  L 11,52  L 13,52  L 13,53  L 16,53  L 16,52  L 17,52  L 17,51  L 18,51  L 18,50  L 19,50  L 19,49  L 20,49  L 20,48  L 21,48  L 21,47  L 22,47  L 22,46  L 23,46  L 23,45  L 22,45  L 22,44  L 21,44  L 21,43  L 20,43  L 20,44  L 19,44  L 19,45  L 18,45  L 18,46  L 17,46  Z  " style="fill:rgb(189, 106, 40); fill-opacity:1.000; stroke:none;" />
 <path d="  M 13,42  L 12,42  L 12,43  L 13,43  Z  " style="fill:rgb(189, 106, 40); fill-opacity:1.000; stroke:none;" />
 <path d="  M 13,41  L 13,42  L 14,42  L 14,41  Z  " style="fill:rgb(189, 106, 40); fill-opacity:1.000; stroke:none;" />
 <path d="  M 14,40  L 14,41  L 15,41  L 15,40  Z  " style="fill:rgb(189, 106, 40); fill-opacity:1.000; stroke:none;" />
 <path d="  M 16,39  L 15,39  L 15,40  L 16,40  Z  " style="fill:rgb(189, 106, 40); fill-opacity:1.000; stroke:none;" />
 <path d="  M 15,54  L 15,55  L 19,55  L 19,54  Z  " style="fill:rgb(189, 106, 40); fill-opacity:1.000; stroke:none;" />
 <path d="  M 17,38  L 16,38  L 16,39  L 17,39  Z  " style="fill:rgb(189, 106, 40); fill-opacity:1.000; stroke:none;" />
 <path d="  M 17,38  L 18,38  L 18,37  L 17,37  Z  " style="fill:rgb(189, 106, 40); fill-opacity:1.000; stroke:none;" />
 <path d="  M 18,39  L 18,40  L 19,40  L 19,39  Z  " style="fill:rgb(189, 106, 40); fill-opacity:1.000; stroke:none;" />
 <path d="  M 20,42  L 20,41  L 19,41  L 19,42  Z  " style="fill:rgb(189, 106, 40); fill-opacity:1.000; stroke:none;" />
 <path d="  M 20,53  L 19,53  L 19,54  L 20,54  Z  " style="fill:rgb(189, 106, 40); fill-opacity:1.000; stroke:none;" />
 <path d="  M 20,52  L 20,53  L 21,53  L 21,52  Z  " style="fill:rgb(189, 106, 40); fill-opacity:1.000; stroke:none;" />
 <path d="  M 21,51  L 21,52  L 22,52  L 22,51  Z  " style="fill:rgb(189, 106, 40); fill-opacity:1.000; stroke:none;" />
 <path d="  M 23,50  L 22,50  L 22,51  L 23,51  Z  " style="fill:rgb(189, 106, 40); fill-opacity:1.000; stroke:none;" />
 <path d="  M 24,50  L 24,49  L 23,49  L 23,50  Z  " style="fill:rgb(189, 106, 40); fill-opacity:1.000; stroke:none;" />
 <path d="  M 25,48  L 24,48  L 24,49  L 25,49  Z  " style="fill:rgb(189, 106, 40); fill-opacity:1.000; stroke:none;" />
 <path d="  M 25,48  L 26,48  L 26,47  L 25,47  Z  " style="fill:rgb(189, 106, 40); fill-opacity:1.000; stroke:none;" />
 <path d="  M 27,46  L 26,46  L 26,47  L 27,47  Z  " style="fill:rgb(189, 106, 40); fill-opacity:1.000; stroke:none;" />
 <path d="  M 27,22  L 28,22  L 28,21  L 27,21  Z  " style="fill:rgb(189, 106, 40); fill-opacity:1.000; stroke:none;" />
 <path d="  M 29,21  L 29,20  L 28,20  L 28,21  Z  " style="fill:rgb(189, 106, 40); fill-opacity:1.000; stroke:none;" />
 <path d="  M 29,19  L 29,20  L 30,20  L 30,19  Z  " style="fill:rgb(189, 106, 40); fill-opacity:1.000; stroke:none;" />
 <path d="  M 31,19  L 31,18  L 30,18  L 30,19  Z  " style="fill:rgb(189, 106, 40); fill-opacity:1.000; stroke:none;" />
 <path d="  M 31,18  L 32,18  L 32,17  L 31,17  Z  " style="fill:rgb(189, 106, 40); fill-opacity:1.000; stroke:none;" />
 <path d="  M 32,17  L 33,17  L 33,16  L 32,16  Z  " style="fill:rgb(189, 106, 40); fill-opacity:1.000; stroke:none;" />
 <path d="  M 32,34  L 32,35  L 33,35  L 33,34  Z  " style="fill:rgb(189, 106, 40); fill-opacity:1.000; stroke:none;" />
 <path d="  M 34,16  L 34,15  L 33,15  L 33,16  Z  " style="fill:rgb(189, 106, 40); fill-opacity:1.000; stroke:none;" />
 <path d="  M 41,31  L 41,30  L 42,30  L 42,29  L 43,29  L 43,28  L 44,28  L 44,27  L 45,27  L 45,26  L 46,26  L 46,25  L 45,25  L 45,23  L 43,23  L 43,24  L 44,24  L 44,25  L 43,25  L 43,26  L 42,26  L 42,27  L 41,27  L 41,28  L 40,28  L 40,29  L 39,29  L 39,30  L 38,30  L 38,31  L 37,31  L 37,32  L 36,32  L 36,33  L 35,33  L 35,34  L 34,34  L 34,35  L 33,35  L 33,36  L 35,36  L 35,37  L 42,37  L 42,36  L 36,36  L 36,35  L 37,35  L 37,34  L 38,34  L 38,33  L 39,33  L 39,32  L 40,32  L 40,31  Z  " style="fill:rgb(189, 106, 40); fill-opacity:1.000; stroke:none;" />
 <path d="  M 35,15  L 35,14  L 34,14  L 34,15  Z  " style="fill:rgb(189, 106, 40); fill-opacity:1.000; stroke:none;" />
 <path d="  M 36,14  L 36,13  L 35,13  L 35,14  Z  " style="fill:rgb(189, 106, 40); fill-opacity:1.000; stroke:none;" />
 <path d="  M 37,13  L 37,12  L 36,12  L 36,13  Z  " style="fill:rgb(189, 106, 40); fill-opacity:1.000; stroke:none;" />
 <path d="  M 38,12  L 38,11  L 37,11  L 37,12  Z  " style="fill:rgb(189, 106, 40); fill-opacity:1.000; stroke:none;" />
 <path d="  M 39,10  L 38,10  L 38,11  L 39,11  Z  " style="fill:rgb(189, 106, 40); fill-opacity:1.000; stroke:none;" />
 <path d="  M 42,7  L 41,7  L 41,8  L 40,8  L 40,10  L 41,10  L 41,9  L 42,9  Z  " style="fill:rgb(189, 106, 40); fill-opacity:1.000; stroke:none;" />
 <path d="  M 43,7  L 43,6  L 42,6  L 42,7  Z  " style="fill:rgb(189, 106, 40); fill-opacity:1.000; stroke:none;" />
 <path d="  M 43,23  L 43,22  L 42,22  L 42,23  Z  " style="fill:rgb(189, 106, 40); fill-opacity:1.000; stroke:none;" />
 <path d="  M 43,36  L 43,35  L 42,35  L 42,36  Z  " style="fill:rgb(189, 106, 40); fill-opacity:1.000; stroke:none;" />
 <path d="  M 44,35  L 44,34  L 43,34  L 43,35  Z  " style="fill:rgb(189, 106, 40); fill-opacity:1.000; stroke:none;" />
 <path d="  M 44,5  L 44,6  L 45,6  L 45,5  Z  " style="fill:rgb(189, 106, 40); fill-opacity:1.000; stroke:none;" />
 <path d="  M 44,34  L 45,34  L 45,33  L 44,33  Z  " style="fill:rgb(189, 106, 40); fill-opacity:1.000; stroke:none;" />
 <path d="  M 45,4  L 45,5  L 49,5  L 49,4  Z  " style="fill:rgb(189, 106, 40); fill-opacity:1.000; stroke:none;" />
 <path d="  M 46,33  L 46,32  L 45,32  L 45,33  Z  " style="fill:rgb(189, 106, 40); fill-opacity:1.000; stroke:none;" />
 <path d="  M 46,25  L 48,25  L 48,24  L 46,24  Z  " style="fill:rgb(189, 106, 40); fill-opacity:1.000; stroke:none;" />
 <path d="  M 46,32  L 47,32  L 47,31  L 46,31  Z  " style="fill:rgb(189, 106, 40); fill-opacity:1.000; stroke:none;" />
 <path d="  M 48,31  L 48,30  L 47,30  L 47,31  Z  " style="fill:rgb(189, 106, 40); fill-opacity:1.000; stroke:none;" />
 <path d="  M 48,30  L 49,30  L 49,29  L 48,29  Z  " style="fill:rgb(189, 106, 40); fill-opacity:1.000; stroke:none;" />
 <path d="  M 50,29  L 50,28  L 49,28  L 49,29  Z  " style="fill:rgb(189, 106, 40); fill-opacity:1.000; stroke:none;" />
 <path d="  M 52,6  L 52,5  L 50,5  L 50,6  Z  " style="fill:rgb(189, 106, 40); fill-opacity:1.000; stroke:none;" />
 <path d="  M 51,28  L 51,27  L 50,27  L 50,28  Z  " style="fill:rgb(189, 106, 40); fill-opacity:1.000; stroke:none;" />
 <path d="  M 52,27  L 52,26  L 51,26  L 51,27  Z  " style="fill:rgb(189, 106, 40); fill-opacity:1.000; stroke:none;" />
 <path d="  M 53,25  L 52,25  L 52,26  L 53,26  Z  " style="fill:rgb(189, 106, 40); fill-opacity:1.000; stroke:none;" />
 <path d="  M 54,6  L 53,6  L 53,7  L 54,7  Z  " style="fill:rgb(189, 106, 40); fill-opacity:1.000; stroke:none;" />
 <path d="  M 55,8  L 55,7  L 54,7  L 54,8  Z  " style="fill:rgb(189, 106, 40); fill-opacity:1.000; stroke:none;" />
 <path d="  M 56,8  L 55,8  L 55,9  L 56,9  Z  " style="fill:rgb(189, 106, 40); fill-opacity:1.000; stroke:none;" />
 <path d="  M 57,10  L 57,9  L 56,9  L 56,10  Z  " style="fill:rgb(189, 106, 40); fill-opacity:1.000; stroke:none;" />
 <path d="  M 57,23  L 56,23  L 56,24  L 57,24  Z  " style="fill:rgb(189, 106, 40); fill-opacity:1.000; stroke:none;" />
 <path d="  M 58,10  L 57,10  L 57,11  L 58,11  Z  " style="fill:rgb(189, 106, 40); fill-opacity:1.000; stroke:none;" />
 <path d="  M 58,13  L 58,12  L 57,12  L 57,13  Z  " style="fill:rgb(189, 106, 40); fill-opacity:1.000; stroke:none;" />
 <path d="  M 57,19  L 57,20  L 58,20  L 58,19  Z  " style="fill:rgb(189, 106, 40); fill-opacity:1.000; stroke:none;" />
 <path d="  M 58,23  L 58,22  L 57,22  L 57,23  Z  " style="fill:rgb(189, 106, 40); fill-opacity:1.000; stroke:none;" />
 <path d="  M 60,18  L 60,16  L 59,16  L 59,14  L 58,14  L 58,17  L 59,17  L 59,18  Z  " style="fill:rgb(189, 106, 40); fill-opacity:1.000; stroke:none;" />
 <path d="  M 59,18  L 58,18  L 58,19  L 59,19  Z  " style="fill:rgb(189, 106, 40); fill-opacity:1.000; stroke:none;" />
 <path d="  M 59,22  L 59,20  L 58,20  L 58,22  Z  " style="fill:rgb(189, 106, 40); fill-opacity:1.000; stroke:none;" />
 <path d="  M 60,19  L 59,19  L 59,20  L 60,20  Z  " style="fill:rgb(189, 106, 40); fill-opacity:1.000; stroke:none;" />
 <path d="  M 10,49  L 11,49  L 11,51  L 13,51  L 13,50  L 14,50  L 14,49  L 15,49  L 15,48  L 16,48  L 16,47  L 17,47  L 17,46  L 18,46  L 18,45  L 19,45  L 19,44  L 20,44  L 20,42  L 19,42  L 19,40  L 18,40  L 18,38  L 17,38  L 17,39  L 16,39  L 16,40  L 15,40  L 15,41  L 14,41  L 14,42  L 13,42  L 13,43  L 12,43  L 12,44  L 11,44  L 11,45  L 10,45  Z  " style="fill:rgb(222, 146, 58); fill-opacity:1.000; stroke:none;" />
 <path d="  M 27,24  L 28,24  L 28,22  L 27,22  Z  " style="fill:rgb(222, 146, 58); fill-opacity:1.000; stroke:none;" />
 <path d="  M 27,29  L 28,29  L 28,27  L 27,27  Z  " style="fill:rgb(222, 146, 58); fill-opacity:1.000; stroke:none;" />
 <path d="  M 28,21  L 28,22  L 29,22  L 29,21  Z  " style="fill:rgb(222, 146, 58); fill-opacity:1.000; stroke:none;" />
 <path d="  M 29,31  L 29,30  L 28,30  L 28,31  Z  " style="fill:rgb(222, 146, 58); fill-opacity:1.000; stroke:none;" />
 <path d="  M 29,21  L 30,21  L 30,20  L 29,20  Z  " style="fill:rgb(222, 146, 58); fill-opacity:1.000; stroke:none;" />
 <path d="  M 30,32  L 30,31  L 29,31  L 29,32  Z  " style="fill:rgb(222, 146, 58); fill-opacity:1.000; stroke:none;" />
 <path d="  M 30,19  L 30,20  L 31,20  L 31,19  Z  " style="fill:rgb(222, 146, 58); fill-opacity:1.000; stroke:none;" />
 <path d="  M 36,28  L 35,28  L 35,29  L 34,29  L 34,30  L 33,30  L 33,31  L 32,31  L 32,32  L 30,32  L 30,33  L 31,33  L 31,34  L 33,34  L 33,35  L 34,35  L 34,34  L 35,34  L 35,33  L 36,33  L 36,32  L 37,32  L 37,31  L 38,31  L 38,30  L 39,30  L 39,29  L 40,29  L 40,28  L 41,28  L 41,27  L 42,27  L 42,26  L 43,26  L 43,25  L 44,25  L 44,24  L 43,24  L 43,23  L 42,23  L 42,22  L 41,22  L 41,23  L 40,23  L 40,24  L 39,24  L 39,25  L 38,25  L 38,26  L 37,26  L 37,27  L 36,27  Z  " style="fill:rgb(222, 146, 58); fill-opacity:1.000; stroke:none;" />
 <path d="  M 31,19  L 32,19  L 32,18  L 31,18  Z  " style="fill:rgb(222, 146, 58); fill-opacity:1.000; stroke:none;" />
 <path d="  M 32,17  L 32,18  L 33,18  L 33,17  Z  " style="fill:rgb(222, 146, 58); fill-opacity:1.000; stroke:none;" />
 <path d="  M 33,17  L 34,17  L 34,16  L 33,16  Z  " style="fill:rgb(222, 146, 58); fill-opacity:1.000; stroke:none;" />
 <path d="  M 34,15  L 34,16  L 35,16  L 35,15  Z  " style="fill:rgb(222, 146, 58); fill-opacity:1.000; stroke:none;" />
 <path d="  M 35,15  L 36,15  L 36,14  L 35,14  Z  " style="fill:rgb(222, 146, 58); fill-opacity:1.000; stroke:none;" />
 <path d="  M 37,13  L 36,13  L 36,14  L 37,14  Z  " style="fill:rgb(222, 146, 58); fill-opacity:1.000; stroke:none;" />
 <path d="  M 37,12  L 37,13  L 38,13  L 38,12  Z  " style="fill:rgb(222, 146, 58); fill-opacity:1.000; stroke:none;" />
 <path d="  M 41,10  L 40,10  L 40,8  L 39,8  L 39,11  L 38,11  L 38,12  L 40,12  L 40,14  L 41,14  Z  " style="fill:rgb(222, 146, 58); fill-opacity:1.000; stroke:none;" />
 <path d="  M 41,8  L 41,7  L 40,7  L 40,8  Z  " style="fill:rgb(222, 146, 58); fill-opacity:1.000; stroke:none;" />
 <path d="  M 40,17  L 40,19  L 41,19  L 41,17  Z  " style="fill:rgb(222, 146, 58); fill-opacity:1.000; stroke:none;" />
 <path d="  M 41,7  L 42,7  L 42,6  L 41,6  Z  " style="fill:rgb(222, 146, 58); fill-opacity:1.000; stroke:none;" />
 <path d="  M 41,10  L 42,10  L 42,9  L 41,9  Z  " style="fill:rgb(222, 146, 58); fill-opacity:1.000; stroke:none;" />
 <path d="  M 41,15  L 41,16  L 42,16  L 42,15  Z  " style="fill:rgb(222, 146, 58); fill-opacity:1.000; stroke:none;" />
 <path d="  M 49,24  L 49,23  L 46,23  L 46,22  L 44,22  L 44,21  L 43,21  L 43,20  L 42,20  L 42,19  L 41,19  L 41,21  L 42,21  L 42,22  L 43,22  L 43,23  L 45,23  L 45,24  L 48,24  L 48,25  L 53,25  L 53,26  L 54,26  L 54,25  L 55,25  L 55,24  L 56,24  L 56,23  L 57,23  L 57,22  L 55,22  L 55,23  L 53,23  L 53,24  Z  " style="fill:rgb(222, 146, 58); fill-opacity:1.000; stroke:none;" />
 <path d="  M 42,6  L 43,6  L 43,7  L 45,7  L 45,6  L 44,6  L 44,5  L 42,5  Z  " style="fill:rgb(222, 146, 58); fill-opacity:1.000; stroke:none;" />
 <path d="  M 42,7  L 42,8  L 43,8  L 43,7  Z  " style="fill:rgb(222, 146, 58); fill-opacity:1.000; stroke:none;" />
 <path d="  M 42,17  L 42,18  L 43,18  L 43,17  Z  " style="fill:rgb(222, 146, 58); fill-opacity:1.000; stroke:none;" />
 <path d="  M 42,37  L 43,37  L 43,36  L 42,36  Z  " style="fill:rgb(222, 146, 58); fill-opacity:1.000; stroke:none;" />
 <path d="  M 44,35  L 43,35  L 43,36  L 44,36  Z  " style="fill:rgb(222, 146, 58); fill-opacity:1.000; stroke:none;" />
 <path d="  M 45,5  L 45,4  L 44,4  L 44,5  Z  " style="fill:rgb(222, 146, 58); fill-opacity:1.000; stroke:none;" />
 <path d="  M 44,35  L 45,35  L 45,34  L 44,34  Z  " style="fill:rgb(222, 146, 58); fill-opacity:1.000; stroke:none;" />
 <path d="  M 45,5  L 45,6  L 50,6  L 50,5  Z  " style="fill:rgb(222, 146, 58); fill-opacity:1.000; stroke:none;" />
 <path d="  M 45,34  L 46,34  L 46,33  L 45,33  Z  " style="fill:rgb(222, 146, 58); fill-opacity:1.000; stroke:none;" />
 <path d="  M 46,22  L 47,22  L 47,21  L 46,21  Z  " style="fill:rgb(222, 146, 58); fill-opacity:1.000; stroke:none;" />
 <path d="  M 46,32  L 46,33  L 47,33  L 47,32  Z  " style="fill:rgb(222, 146, 58); fill-opacity:1.000; stroke:none;" />
 <path d="  M 47,31  L 47,32  L 48,32  L 48,31  Z  " style="fill:rgb(222, 146, 58); fill-opacity:1.000; stroke:none;" />
 <path d="  M 48,30  L 48,31  L 49,31  L 49,30  Z  " style="fill:rgb(222, 146, 58); fill-opacity:1.000; stroke:none;" />
 <path d="  M 50,29  L 49,29  L 49,30  L 50,30  Z  " style="fill:rgb(222, 146, 58); fill-opacity:1.000; stroke:none;" />
 <path d="  M 51,29  L 51,28  L 50,28  L 50,29  Z  " style="fill:rgb(222, 146, 58); fill-opacity:1.000; stroke:none;" />
 <path d="  M 53,7  L 53,6  L 51,6  L 51,7  Z  " style="fill:rgb(222, 146, 58); fill-opacity:1.000; stroke:none;" />
 <path d="  M 51,27  L 51,28  L 52,28  L 52,27  Z  " style="fill:rgb(222, 146, 58); fill-opacity:1.000; stroke:none;" />
 <path d="  M 52,26  L 52,27  L 53,27  L 53,26  Z  " style="fill:rgb(222, 146, 58); fill-opacity:1.000; stroke:none;" />
 <path d="  M 54,8  L 54,7  L 53,7  L 53,8  Z  " style="fill:rgb(222, 146, 58); fill-opacity:1.000; stroke:none;" />
 <path d="  M 54,8  L 54,9  L 55,9  L 55,8  Z  " style="fill:rgb(222, 146, 58); fill-opacity:1.000; stroke:none;" />
 <path d="  M 56,9  L 55,9  L 55,10  L 56,10  Z  " style="fill:rgb(222, 146, 58); fill-opacity:1.000; stroke:none;" />
 <path d="  M 56,10  L 56,11  L 57,11  L 57,10  Z  " style="fill:rgb(222, 146, 58); fill-opacity:1.000; stroke:none;" />
 <path d="  M 57,11  L 57,12  L 58,12  L 58,11  Z  " style="fill:rgb(222, 146, 58); fill-opacity:1.000; stroke:none;" />
 <path d="  M 58,21  L 57,21  L 57,22  L 58,22  Z  " style="fill:rgb(222, 146, 58); fill-opacity:1.000; stroke:none;" />
 <path d="  M 58,14  L 59,14  L 59,12  L 58,12  Z  " style="fill:rgb(222, 146, 58); fill-opacity:1.000; stroke:none;" />
 <path d="  M 59,17  L 58,17  L 58,18  L 59,18  Z  " style="fill:rgb(222, 146, 58); fill-opacity:1.000; stroke:none;" />
 <path d="  M 58,20  L 59,20  L 59,19  L 58,19  Z  " style="fill:rgb(222, 146, 58); fill-opacity:1.000; stroke:none;" />
 <path d="  M 60,16  L 60,15  L 59,15  L 59,16  Z  " style="fill:rgb(222, 146, 58); fill-opacity:1.000; stroke:none;" />
 <path d="  M 59,19  L 60,19  L 60,18  L 59,18  Z  " style="fill:rgb(222, 146, 58); fill-opacity:1.000; stroke:none;" />
 <path d="  M 12,52  L 12,53  L 13,53  L 13,52  Z  " style="fill:rgb(160, 86, 17); fill-opacity:1.000; stroke:none;" />
 <path d="  M 22,47  L 21,47  L 21,48  L 20,48  L 20,49  L 19,49  L 19,50  L 18,50  L 18,51  L 17,51  L 17,52  L 16,52  L 16,53  L 13,53  L 13,54  L 19,54  L 19,53  L 20,53  L 20,52  L 21,52  L 21,51  L 22,51  L 22,50  L 23,50  L 23,49  L 24,49  L 24,48  L 25,48  L 25,47  L 26,47  L 26,46  L 25,46  L 25,45  L 23,45  L 23,46  L 22,46  Z  " style="fill:rgb(160, 86, 17); fill-opacity:1.000; stroke:none;" />
 <path d="  M 20,42  L 20,43  L 21,43  L 21,42  Z  " style="fill:rgb(160, 86, 17); fill-opacity:1.000; stroke:none;" />
 <path d="  M 21,44  L 22,44  L 22,43  L 21,43  Z  " style="fill:rgb(160, 86, 17); fill-opacity:1.000; stroke:none;" />
 <path d="  M 22,44  L 22,45  L 23,45  L 23,44  Z  " style="fill:rgb(160, 86, 17); fill-opacity:1.000; stroke:none;" />
 <path d="  M 26,26  L 27,26  L 27,21  L 26,21  Z  " style="fill:rgb(160, 86, 17); fill-opacity:1.000; stroke:none;" />
 <path d="  M 28,20  L 27,20  L 27,21  L 28,21  Z  " style="fill:rgb(160, 86, 17); fill-opacity:1.000; stroke:none;" />
 <path d="  M 29,19  L 28,19  L 28,20  L 29,20  Z  " style="fill:rgb(160, 86, 17); fill-opacity:1.000; stroke:none;" />
 <path d="  M 29,18  L 29,19  L 30,19  L 30,18  Z  " style="fill:rgb(160, 86, 17); fill-opacity:1.000; stroke:none;" />
 <path d="  M 30,17  L 30,18  L 31,18  L 31,17  Z  " style="fill:rgb(160, 86, 17); fill-opacity:1.000; stroke:none;" />
 <path d="  M 31,17  L 32,17  L 32,16  L 31,16  Z  " style="fill:rgb(160, 86, 17); fill-opacity:1.000; stroke:none;" />
 <path d="  M 33,15  L 32,15  L 32,16  L 33,16  Z  " style="fill:rgb(160, 86, 17); fill-opacity:1.000; stroke:none;" />
 <path d="  M 33,14  L 33,15  L 34,15  L 34,14  Z  " style="fill:rgb(160, 86, 17); fill-opacity:1.000; stroke:none;" />
 <path d="  M 34,13  L 34,14  L 35,14  L 35,13  Z  " style="fill:rgb(160, 86, 17); fill-opacity:1.000; stroke:none;" />
 <path d="  M 36,12  L 35,12  L 35,13  L 36,13  Z  " style="fill:rgb(160, 86, 17); fill-opacity:1.000; stroke:none;" />
 <path d="  M 37,12  L 37,11  L 36,11  L 36,12  Z  " style="fill:rgb(160, 86, 17); fill-opacity:1.000; stroke:none;" />
 <path d="  M 43,28  L 43,29  L 42,29  L 42,30  L 41,30  L 41,31  L 40,31  L 40,32  L 39,32  L 39,33  L 38,33  L 38,34  L 37,34  L 37,35  L 36,35  L 36,36  L 42,36  L 42,35  L 43,35  L 43,34  L 44,34  L 44,33  L 45,33  L 45,32  L 46,32  L 46,31  L 47,31  L 47,30  L 48,30  L 48,29  L 49,29  L 49,28  L 50,28  L 50,27  L 51,27  L 51,26  L 52,26  L 52,25  L 46,25  L 46,26  L 45,26  L 45,27  L 44,27  L 44,28  Z  " style="fill:rgb(160, 86, 17); fill-opacity:1.000; stroke:none;" />
 <path d="  M 38,11  L 38,10  L 37,10  L 37,11  Z  " style="fill:rgb(160, 86, 17); fill-opacity:1.000; stroke:none;" />
 <path d="  M 38,10  L 39,10  L 39,9  L 38,9  Z  " style="fill:rgb(160, 86, 17); fill-opacity:1.000; stroke:none;" />
 <path d="  M 46,24  L 45,24  L 45,25  L 46,25  Z  " style="fill:rgb(160, 86, 17); fill-opacity:1.000; stroke:none;" />
 <path d="  M 30,22  L 31,22  L 31,21  L 32,21  L 32,20  L 33,20  L 33,19  L 34,19  L 34,18  L 35,18  L 35,17  L 36,17  L 36,16  L 37,16  L 37,15  L 38,15  L 38,17  L 39,17  L 39,19  L 38,19  L 38,20  L 37,20  L 37,21  L 36,21  L 36,22  L 35,22  L 35,23  L 34,23  L 34,24  L 33,24  L 33,25  L 32,25  L 32,26  L 31,26  L 31,27  L 30,27  L 30,28  L 29,28  L 29,26  L 28,26  L 28,24  L 29,24  L 29,23  L 30,23  Z  M 29,31  L 30,31  L 30,32  L 32,32  L 32,31  L 33,31  L 33,30  L 34,30  L 34,29  L 35,29  L 35,28  L 36,28  L 36,27  L 37,27  L 37,26  L 38,26  L 38,25  L 39,25  L 39,24  L 40,24  L 40,23  L 41,23  L 41,22  L 42,22  L 42,21  L 41,21  L 41,19  L 42,19  L 42,20  L 43,20  L 43,21  L 44,21  L 44,22  L 46,22  L 46,21  L 45,21  L 45,20  L 44,20  L 44,19  L 43,19  L 43,18  L 42,18  L 42,16  L 41,16  L 41,14  L 40,14  L 40,12  L 38,12  L 38,13  L 37,13  L 37,14  L 36,14  L 36,15  L 35,15  L 35,16  L 34,16  L 34,17  L 33,17  L 33,18  L 32,18  L 32,19  L 31,19  L 31,20  L 30,20  L 30,21  L 29,21  L 29,22  L 28,22  L 28,24  L 27,24  L 27,27  L 28,27  L 28,30  L 29,30  Z  M 40,17  L 41,17  L 41,19  L 40,19  Z  " style="fill:rgb(244, 224, 99); fill-opacity:1.000; stroke:none;" />
 <path d="  M 49,23  L 49,22  L 46,22  L 46,23  Z  " style="fill:rgb(244, 224, 99); fill-opacity:1.000; stroke:none;" />
 <path d="  M 49,23  L 49,24  L 53,24  L 53,23  Z  " style="fill:rgb(244, 224, 99); fill-opacity:1.000; stroke:none;" />
 <path d="  M 54,22  L 54,23  L 55,23  L 55,22  Z  " style="fill:rgb(244, 224, 99); fill-opacity:1.000; stroke:none;" />
 <path d="  M 57,21  L 56,21  L 56,22  L 57,22  Z  " style="fill:rgb(244, 224, 99); fill-opacity:1.000; stroke:none;" />
 <path d="  M 58,21  L 58,20  L 57,20  L 57,21  Z  " style="fill:rgb(244, 224, 99); fill-opacity:1.000; stroke:none;" />
 <path d="  M 37,16  L 36,16  L 36,17  L 35,17  L 35,18  L 34,18  L 34,19  L 33,19  L 33,20  L 32,20  L 32,21  L 31,21  L 31,22  L 30,22  L 30,23  L 29,23  L 29,24  L 28,24  L 28,26  L 29,26  L 29,28  L 30,28  L 30,27  L 31,27  L 31,26  L 32,26  L 32,25  L 33,25  L 33,24  L 34,24  L 34,23  L 35,23  L 35,22  L 36,22  L 36,21  L 37,21  L 37,20  L 38,20  L 38,19  L 39,19  L 39,17  L 38,17  L 38,15  L 37,15  Z  " style="fill:rgb(255, 255, 255); fill-opacity:1.000; stroke:none;" />
 <path d="  M 49,8  L 49,9  L 51,9  L 51,8  Z  " style="fill:rgb(255, 255, 255); fill-opacity:1.000; stroke:none;" />
 <path d="  M 54,12  L 54,13  L 55,13  L 55,11  L 54,11  L 54,10  L 53,10  L 53,9  L 51,9  L 51,10  L 52,10  L 52,11  L 53,11  L 53,12  Z  " style="fill:rgb(255, 255, 255); fill-opacity:1.000; stroke:none;" />
 <path d="  M 56,13  L 55,13  L 55,15  L 56,15  Z  " style="fill:rgb(255, 255, 255); fill-opacity:1.000; stroke:none;" />
 <path d="  M 42,10  L 41,10  L 41,12  L 42,12  Z  " style="fill:rgb(30, 101, 102); fill-opacity:1.000; stroke:none;" />
 <path d="  M 43,14  L 42,14  L 42,13  L 41,13  L 41,15  L 42,15  L 42,17  L 43,17  Z  " style="fill:rgb(30, 101, 102); fill-opacity:1.000; stroke:none;" />
 <path d="  M 42,8  L 42,10  L 43,10  L 43,9  L 44,9  L 44,7  L 43,7  L 43,8  Z  " style="fill:rgb(30, 101, 102); fill-opacity:1.000; stroke:none;" />
 <path d="  M 44,18  L 43,18  L 43,19  L 44,19  Z  " style="fill:rgb(30, 101, 102); fill-opacity:1.000; stroke:none;" />
 <path d="  M 44,19  L 44,20  L 45,20  L 45,21  L 47,21  L 47,20  L 46,20  L 46,19  Z  " style="fill:rgb(30, 101, 102); fill-opacity:1.000; stroke:none;" />
 <path d="  M 45,7  L 46,7  L 46,6  L 45,6  Z  " style="fill:rgb(30, 101, 102); fill-opacity:1.000; stroke:none;" />
 <path d="  M 49,7  L 49,6  L 47,6  L 47,7  Z  " style="fill:rgb(30, 101, 102); fill-opacity:1.000; stroke:none;" />
 <path d="  M 49,21  L 47,21  L 47,22  L 49,22  Z  " style="fill:rgb(30, 101, 102); fill-opacity:1.000; stroke:none;" />
 <path d="  M 49,22  L 49,23  L 50,23  L 50,22  Z  " style="fill:rgb(30, 101, 102); fill-opacity:1.000; stroke:none;" />
 <path d="  M 50,6  L 50,7  L 51,7  L 51,6  Z  " style="fill:rgb(30, 101, 102); fill-opacity:1.000; stroke:none;" />
 <path d="  M 51,22  L 51,23  L 54,23  L 54,22  Z  " style="fill:rgb(30, 101, 102); fill-opacity:1.000; stroke:none;" />
 <path d="  M 56,21  L 54,21  L 54,22  L 56,22  Z  " style="fill:rgb(30, 101, 102); fill-opacity:1.000; stroke:none;" />
 <path d="  M 57,21  L 57,20  L 56,20  L 56,21  Z  " style="fill:rgb(30, 101, 102); fill-opacity:1.000; stroke:none;" />
 <path d="  M 57,13  L 57,14  L 58,14  L 58,13  Z  " style="fill:rgb(30, 101, 102); fill-opacity:1.000; stroke:none;" />
 <path d="  M 58,15  L 57,15  L 57,17  L 58,17  Z  " style="fill:rgb(30, 101, 102); fill-opacity:1.000; stroke:none;" />
 <path d="  M 58,18  L 57,18  L 57,19  L 58,19  Z  " style="fill:rgb(30, 101, 102); fill-opacity:1.000; stroke:none;" />
 <path d="  M 54,22  L 54,21  L 56,21  L 56,20  L 57,20  L 57,18  L 58,18  L 58,17  L 56,17  L 56,19  L 54,19  L 54,20  L 49,20  L 49,19  L 47,19  L 47,18  L 46,18  L 46,17  L 45,17  L 45,15  L 44,15  L 44,10  L 45,10  L 45,8  L 46,8  L 46,7  L 44,7  L 44,9  L 43,9  L 43,10  L 42,10  L 42,12  L 41,12  L 41,13  L 42,13  L 42,14  L 43,14  L 43,18  L 44,18  L 44,19  L 46,19  L 46,20  L 47,20  L 47,21  L 49,21  L 49,22  L 50,22  L 50,23  L 51,23  L 51,22  Z  " style="fill:rgb(51, 144, 144); fill-opacity:1.000; stroke:none;" />
 <path d="  M 47,6  L 46,6  L 46,7  L 47,7  Z  " style="fill:rgb(51, 144, 144); fill-opacity:1.000; stroke:none;" />
 <path d="  M 50,7  L 50,6  L 49,6  L 49,7  Z  " style="fill:rgb(51, 144, 144); fill-opacity:1.000; stroke:none;" />
 <path d="  M 51,8  L 53,8  L 53,7  L 51,7  Z  " style="fill:rgb(51, 144, 144); fill-opacity:1.000; stroke:none;" />
 <path d="  M 54,8  L 53,8  L 53,9  L 54,9  Z  " style="fill:rgb(51, 144, 144); fill-opacity:1.000; stroke:none;" />
 <path d="  M 55,9  L 54,9  L 54,10  L 55,10  Z  " style="fill:rgb(51, 144, 144); fill-opacity:1.000; stroke:none;" />
 <path d="  M 56,10  L 55,10  L 55,11  L 56,11  Z  " style="fill:rgb(51, 144, 144); fill-opacity:1.000; stroke:none;" />
 <path d="  M 57,11  L 56,11  L 56,13  L 57,13  Z  " style="fill:rgb(51, 144, 144); fill-opacity:1.000; stroke:none;" />
 <path d="  M 57,14  L 57,15  L 58,15  L 58,14  Z  " style="fill:rgb(51, 144, 144); fill-opacity:1.000; stroke:none;" />
 <path d="  M 55,13  L 54,13  L 54,12  L 53,12  L 53,11  L 52,11  L 52,10  L 51,10  L 51,9  L 49,9  L 49,8  L 51,8  L 51,7  L 46,7  L 46,8  L 45,8  L 45,10  L 44,10  L 44,15  L 45,15  L 45,17  L 46,17  L 46,18  L 47,18  L 47,19  L 49,19  L 49,20  L 54,20  L 54,19  L 56,19  L 56,17  L 57,17  L 57,13  L 56,13  L 56,15  L 55,15  Z  " style="fill:rgb(104, 189, 189); fill-opacity:1.000; stroke:none;" />
 <path d="  M 53,8  L 51,8  L 51,9  L 53,9  Z  " style="fill:rgb(104, 189, 189); fill-opacity:1.000; stroke:none;" />
 <path d="  M 54,9  L 53,9  L 53,10  L 54,10  Z  " style="fill:rgb(104, 189, 189); fill-opacity:1.000; stroke:none;" />
 <path d="  M 55,10  L 54,10  L 54,11  L 55,11  Z  " style="fill:rgb(104, 189, 189); fill-opacity:1.000; stroke:none;" />
 <path d="  M 56,13  L 56,11  L 55,11  L 55,13  Z  " style="fill:rgb(104, 189, 189); fill-opacity:1.000; stroke:none;" />
</svg>
