<?xml version="1.0" encoding="UTF-8" standalone="no"?>
<!DOCTYPE svg PUBLIC "-//W3C//DTD SVG 1.1//EN" 
  "http://www.w3.org/Graphics/SVG/1.1/DTD/svg11.dtd">
<svg width="64" height="64"
	 xmlns="http://www.w3.org/2000/svg" version="1.1">
 <path d="  M 11,18  L 10,18  L 10,15  L 9,15  L 9,29  L 10,29  L 10,20  L 11,20  Z  " style="fill:rgb(52, 52, 52); fill-opacity:1.000; stroke:none;" />
 <path d="  M 10,13  L 10,15  L 11,15  L 11,13  Z  " style="fill:rgb(52, 52, 52); fill-opacity:1.000; stroke:none;" />
 <path d="  M 11,29  L 10,29  L 10,36  L 11,36  Z  " style="fill:rgb(52, 52, 52); fill-opacity:1.000; stroke:none;" />
 <path d="  M 11,13  L 12,13  L 12,12  L 11,12  Z  " style="fill:rgb(52, 52, 52); fill-opacity:1.000; stroke:none;" />
 <path d="  M 12,21  L 12,20  L 11,20  L 11,21  Z  " style="fill:rgb(52, 52, 52); fill-opacity:1.000; stroke:none;" />
 <path d="  M 12,36  L 11,36  L 11,40  L 12,40  Z  " style="fill:rgb(52, 52, 52); fill-opacity:1.000; stroke:none;" />
 <path d="  M 12,11  L 12,12  L 14,12  L 14,11  Z  " style="fill:rgb(52, 52, 52); fill-opacity:1.000; stroke:none;" />
 <path d="  M 12,21  L 12,22  L 14,22  L 14,21  Z  " style="fill:rgb(52, 52, 52); fill-opacity:1.000; stroke:none;" />
 <path d="  M 12,43  L 13,43  L 13,40  L 12,40  Z  " style="fill:rgb(52, 52, 52); fill-opacity:1.000; stroke:none;" />
 <path d="  M 13,46  L 14,46  L 14,43  L 13,43  Z  " style="fill:rgb(52, 52, 52); fill-opacity:1.000; stroke:none;" />
 <path d="  M 16,11  L 16,10  L 14,10  L 14,11  Z  " style="fill:rgb(52, 52, 52); fill-opacity:1.000; stroke:none;" />
 <path d="  M 14,22  L 14,23  L 16,23  L 16,22  Z  " style="fill:rgb(52, 52, 52); fill-opacity:1.000; stroke:none;" />
 <path d="  M 14,46  L 14,48  L 15,48  L 15,46  Z  " style="fill:rgb(52, 52, 52); fill-opacity:1.000; stroke:none;" />
 <path d="  M 15,50  L 16,50  L 16,48  L 15,48  Z  " style="fill:rgb(52, 52, 52); fill-opacity:1.000; stroke:none;" />
 <path d="  M 16,9  L 16,10  L 18,10  L 18,9  Z  " style="fill:rgb(52, 52, 52); fill-opacity:1.000; stroke:none;" />
 <path d="  M 16,23  L 16,24  L 18,24  L 18,23  Z  " style="fill:rgb(52, 52, 52); fill-opacity:1.000; stroke:none;" />
 <path d="  M 16,52  L 17,52  L 17,50  L 16,50  Z  " style="fill:rgb(52, 52, 52); fill-opacity:1.000; stroke:none;" />
 <path d="  M 17,53  L 18,53  L 18,52  L 17,52  Z  " style="fill:rgb(52, 52, 52); fill-opacity:1.000; stroke:none;" />
 <path d="  M 18,8  L 18,9  L 21,9  L 21,8  Z  " style="fill:rgb(52, 52, 52); fill-opacity:1.000; stroke:none;" />
 <path d="  M 21,25  L 21,24  L 18,24  L 18,25  Z  " style="fill:rgb(52, 52, 52); fill-opacity:1.000; stroke:none;" />
 <path d="  M 18,54  L 19,54  L 19,53  L 18,53  Z  " style="fill:rgb(52, 52, 52); fill-opacity:1.000; stroke:none;" />
 <path d="  M 19,54  L 19,55  L 20,55  L 20,54  Z  " style="fill:rgb(52, 52, 52); fill-opacity:1.000; stroke:none;" />
 <path d="  M 20,56  L 22,56  L 22,55  L 20,55  Z  " style="fill:rgb(52, 52, 52); fill-opacity:1.000; stroke:none;" />
 <path d="  M 21,7  L 21,8  L 26,8  L 26,7  Z  " style="fill:rgb(52, 52, 52); fill-opacity:1.000; stroke:none;" />
 <path d="  M 26,26  L 26,25  L 21,25  L 21,26  Z  " style="fill:rgb(52, 52, 52); fill-opacity:1.000; stroke:none;" />
 <path d="  M 25,57  L 25,56  L 22,56  L 22,57  Z  " style="fill:rgb(52, 52, 52); fill-opacity:1.000; stroke:none;" />
 <path d="  M 25,57  L 25,58  L 38,58  L 38,57  Z  " style="fill:rgb(52, 52, 52); fill-opacity:1.000; stroke:none;" />
 <path d="  M 37,7  L 37,6  L 26,6  L 26,7  Z  " style="fill:rgb(52, 52, 52); fill-opacity:1.000; stroke:none;" />
 <path d="  M 26,27  L 37,27  L 37,26  L 26,26  Z  " style="fill:rgb(52, 52, 52); fill-opacity:1.000; stroke:none;" />
 <path d="  M 37,7  L 37,8  L 42,8  L 42,7  Z  " style="fill:rgb(52, 52, 52); fill-opacity:1.000; stroke:none;" />
 <path d="  M 37,25  L 37,26  L 42,26  L 42,25  Z  " style="fill:rgb(52, 52, 52); fill-opacity:1.000; stroke:none;" />
 <path d="  M 41,57  L 41,56  L 38,56  L 38,57  Z  " style="fill:rgb(52, 52, 52); fill-opacity:1.000; stroke:none;" />
 <path d="  M 41,55  L 41,56  L 43,56  L 43,55  Z  " style="fill:rgb(52, 52, 52); fill-opacity:1.000; stroke:none;" />
 <path d="  M 42,8  L 42,9  L 45,9  L 45,8  Z  " style="fill:rgb(52, 52, 52); fill-opacity:1.000; stroke:none;" />
 <path d="  M 45,24  L 42,24  L 42,25  L 45,25  Z  " style="fill:rgb(52, 52, 52); fill-opacity:1.000; stroke:none;" />
 <path d="  M 43,55  L 44,55  L 44,54  L 43,54  Z  " style="fill:rgb(52, 52, 52); fill-opacity:1.000; stroke:none;" />
 <path d="  M 45,54  L 45,53  L 44,53  L 44,54  Z  " style="fill:rgb(52, 52, 52); fill-opacity:1.000; stroke:none;" />
 <path d="  M 47,9  L 45,9  L 45,10  L 47,10  Z  " style="fill:rgb(52, 52, 52); fill-opacity:1.000; stroke:none;" />
 <path d="  M 47,24  L 47,23  L 45,23  L 45,24  Z  " style="fill:rgb(52, 52, 52); fill-opacity:1.000; stroke:none;" />
 <path d="  M 46,53  L 46,52  L 45,52  L 45,53  Z  " style="fill:rgb(52, 52, 52); fill-opacity:1.000; stroke:none;" />
 <path d="  M 47,50  L 46,50  L 46,52  L 47,52  Z  " style="fill:rgb(52, 52, 52); fill-opacity:1.000; stroke:none;" />
 <path d="  M 49,11  L 49,10  L 47,10  L 47,11  Z  " style="fill:rgb(52, 52, 52); fill-opacity:1.000; stroke:none;" />
 <path d="  M 49,23  L 49,22  L 47,22  L 47,23  Z  " style="fill:rgb(52, 52, 52); fill-opacity:1.000; stroke:none;" />
 <path d="  M 47,50  L 48,50  L 48,48  L 47,48  Z  " style="fill:rgb(52, 52, 52); fill-opacity:1.000; stroke:none;" />
 <path d="  M 49,48  L 49,46  L 48,46  L 48,48  Z  " style="fill:rgb(52, 52, 52); fill-opacity:1.000; stroke:none;" />
 <path d="  M 51,12  L 51,11  L 49,11  L 49,12  Z  " style="fill:rgb(52, 52, 52); fill-opacity:1.000; stroke:none;" />
 <path d="  M 51,22  L 51,21  L 49,21  L 49,22  Z  " style="fill:rgb(52, 52, 52); fill-opacity:1.000; stroke:none;" />
 <path d="  M 49,46  L 50,46  L 50,43  L 49,43  Z  " style="fill:rgb(52, 52, 52); fill-opacity:1.000; stroke:none;" />
 <path d="  M 50,40  L 50,43  L 51,43  L 51,40  Z  " style="fill:rgb(52, 52, 52); fill-opacity:1.000; stroke:none;" />
 <path d="  M 52,12  L 51,12  L 51,13  L 52,13  Z  " style="fill:rgb(52, 52, 52); fill-opacity:1.000; stroke:none;" />
 <path d="  M 52,21  L 52,20  L 51,20  L 51,21  Z  " style="fill:rgb(52, 52, 52); fill-opacity:1.000; stroke:none;" />
 <path d="  M 52,36  L 51,36  L 51,40  L 52,40  Z  " style="fill:rgb(52, 52, 52); fill-opacity:1.000; stroke:none;" />
 <path d="  M 53,13  L 52,13  L 52,15  L 53,15  Z  " style="fill:rgb(52, 52, 52); fill-opacity:1.000; stroke:none;" />
 <path d="  M 54,15  L 53,15  L 53,18  L 52,18  L 52,20  L 53,20  L 53,29  L 54,29  Z  " style="fill:rgb(52, 52, 52); fill-opacity:1.000; stroke:none;" />
 <path d="  M 53,29  L 52,29  L 52,36  L 53,36  Z  " style="fill:rgb(52, 52, 52); fill-opacity:1.000; stroke:none;" />
 <path d="  M 10,15  L 10,16  L 11,16  L 11,15  Z  " style="fill:rgb(113, 113, 113); fill-opacity:1.000; stroke:none;" />
 <path d="  M 11,29  L 11,28  L 10,28  L 10,29  Z  " style="fill:rgb(113, 113, 113); fill-opacity:1.000; stroke:none;" />
 <path d="  M 12,13  L 11,13  L 11,14  L 12,14  Z  " style="fill:rgb(113, 113, 113); fill-opacity:1.000; stroke:none;" />
 <path d="  M 12,36  L 12,35  L 11,35  L 11,36  Z  " style="fill:rgb(113, 113, 113); fill-opacity:1.000; stroke:none;" />
 <path d="  M 12,12  L 12,13  L 14,13  L 14,12  Z  " style="fill:rgb(113, 113, 113); fill-opacity:1.000; stroke:none;" />
 <path d="  M 13,40  L 13,39  L 12,39  L 12,40  Z  " style="fill:rgb(113, 113, 113); fill-opacity:1.000; stroke:none;" />
 <path d="  M 14,43  L 14,42  L 13,42  L 13,43  Z  " style="fill:rgb(113, 113, 113); fill-opacity:1.000; stroke:none;" />
 <path d="  M 14,11  L 14,12  L 16,12  L 16,11  Z  " style="fill:rgb(113, 113, 113); fill-opacity:1.000; stroke:none;" />
 <path d="  M 16,10  L 16,11  L 18,11  L 18,10  Z  " style="fill:rgb(113, 113, 113); fill-opacity:1.000; stroke:none;" />
 <path d="  M 18,9  L 18,10  L 21,10  L 21,9  Z  " style="fill:rgb(113, 113, 113); fill-opacity:1.000; stroke:none;" />
 <path d="  M 23,9  L 23,8  L 21,8  L 21,9  Z  " style="fill:rgb(113, 113, 113); fill-opacity:1.000; stroke:none;" />
 <path d="  M 41,47  L 40,47  L 40,50  L 39,50  L 39,52  L 38,52  L 38,54  L 37,54  L 37,55  L 36,55  L 36,56  L 34,56  L 34,57  L 37,57  L 37,56  L 40,56  L 40,55  L 42,55  L 42,54  L 43,54  L 43,53  L 44,53  L 44,51  L 45,51  L 45,49  L 46,49  L 46,47  L 47,47  L 47,44  L 48,44  L 48,40  L 49,40  L 49,36  L 50,36  L 50,29  L 51,29  L 51,22  L 49,22  L 49,23  L 47,23  L 47,24  L 45,24  L 45,25  L 44,25  L 44,34  L 43,34  L 43,40  L 42,40  L 42,44  L 41,44  Z  " style="fill:rgb(113, 113, 113); fill-opacity:1.000; stroke:none;" />
 <path d="  M 15,19  L 13,19  L 13,18  L 12,18  L 12,17  L 11,17  L 11,16  L 10,16  L 10,18  L 11,18  L 11,19  L 12,19  L 12,20  L 13,20  L 13,21  L 14,21  L 14,20  L 16,20  L 16,19  L 17,19  L 17,18  L 18,18  L 18,17  L 16,17  L 16,18  L 15,18  Z  " style="fill:rgb(46, 88, 211); fill-opacity:1.000; stroke:none;" />
 <path d="  M 11,15  L 11,16  L 13,16  L 13,15  L 15,15  L 15,16  L 18,16  L 18,15  L 16,15  L 16,14  L 14,14  L 14,13  L 13,13  L 13,14  L 12,14  L 12,15  Z  " style="fill:rgb(46, 88, 211); fill-opacity:1.000; stroke:none;" />
 <path d="  M 14,12  L 14,13  L 17,13  L 17,12  Z  " style="fill:rgb(46, 88, 211); fill-opacity:1.000; stroke:none;" />
 <path d="  M 16,22  L 16,21  L 15,21  L 15,22  Z  " style="fill:rgb(46, 88, 211); fill-opacity:1.000; stroke:none;" />
 <path d="  M 19,10  L 19,11  L 17,11  L 17,12  L 21,12  L 21,11  L 22,11  L 22,10  Z  " style="fill:rgb(46, 88, 211); fill-opacity:1.000; stroke:none;" />
 <path d="  M 22,20  L 22,19  L 17,19  L 17,20  L 18,20  L 18,21  L 19,21  L 19,20  Z  " style="fill:rgb(46, 88, 211); fill-opacity:1.000; stroke:none;" />
 <path d="  M 17,22  L 17,23  L 19,23  L 19,22  Z  " style="fill:rgb(46, 88, 211); fill-opacity:1.000; stroke:none;" />
 <path d="  M 19,13  L 19,14  L 18,14  L 18,15  L 20,15  L 20,14  L 21,14  L 21,13  Z  " style="fill:rgb(46, 88, 211); fill-opacity:1.000; stroke:none;" />
 <path d="  M 19,17  L 19,18  L 23,18  L 23,19  L 24,19  L 24,18  L 25,18  L 25,17  Z  " style="fill:rgb(46, 88, 211); fill-opacity:1.000; stroke:none;" />
 <path d="  M 23,24  L 23,23  L 19,23  L 19,24  Z  " style="fill:rgb(46, 88, 211); fill-opacity:1.000; stroke:none;" />
 <path d="  M 20,21  L 20,22  L 23,22  L 23,23  L 24,23  L 24,22  L 25,22  L 25,21  L 23,21  L 23,20  L 22,20  L 22,21  Z  " style="fill:rgb(46, 88, 211); fill-opacity:1.000; stroke:none;" />
 <path d="  M 21,12  L 21,13  L 23,13  L 23,14  L 26,14  L 26,13  L 24,13  L 24,12  Z  " style="fill:rgb(46, 88, 211); fill-opacity:1.000; stroke:none;" />
 <path d="  M 23,16  L 23,15  L 21,15  L 21,16  Z  " style="fill:rgb(46, 88, 211); fill-opacity:1.000; stroke:none;" />
 <path d="  M 24,10  L 24,9  L 22,9  L 22,10  Z  " style="fill:rgb(46, 88, 211); fill-opacity:1.000; stroke:none;" />
 <path d="  M 43,23  L 39,23  L 39,24  L 34,24  L 34,25  L 30,25  L 30,24  L 23,24  L 23,25  L 27,25  L 27,26  L 36,26  L 36,25  L 41,25  L 41,24  L 44,24  L 44,23  L 46,23  L 46,22  L 43,22  Z  " style="fill:rgb(46, 88, 211); fill-opacity:1.000; stroke:none;" />
 <path d="  M 29,16  L 29,15  L 24,15  L 24,16  Z  " style="fill:rgb(46, 88, 211); fill-opacity:1.000; stroke:none;" />
 <path d="  M 31,10  L 31,9  L 30,9  L 30,10  L 28,10  L 28,11  L 25,11  L 25,12  L 29,12  L 29,11  L 33,11  L 33,10  Z  " style="fill:rgb(46, 88, 211); fill-opacity:1.000; stroke:none;" />
 <path d="  M 27,18  L 25,18  L 25,19  L 27,19  Z  " style="fill:rgb(46, 88, 211); fill-opacity:1.000; stroke:none;" />
 <path d="  M 25,20  L 25,21  L 28,21  L 28,20  L 32,20  L 32,19  L 27,19  L 27,20  Z  " style="fill:rgb(46, 88, 211); fill-opacity:1.000; stroke:none;" />
 <path d="  M 28,8  L 26,8  L 26,9  L 28,9  Z  " style="fill:rgb(46, 88, 211); fill-opacity:1.000; stroke:none;" />
 <path d="  M 29,23  L 29,22  L 30,22  L 30,21  L 28,21  L 28,22  L 26,22  L 26,23  Z  " style="fill:rgb(46, 88, 211); fill-opacity:1.000; stroke:none;" />
 <path d="  M 28,14  L 29,14  L 29,13  L 28,13  Z  " style="fill:rgb(46, 88, 211); fill-opacity:1.000; stroke:none;" />
 <path d="  M 31,16  L 31,17  L 29,17  L 29,18  L 33,18  L 33,17  L 35,17  L 35,16  Z  " style="fill:rgb(46, 88, 211); fill-opacity:1.000; stroke:none;" />
 <path d="  M 30,14  L 30,15  L 34,15  L 34,14  Z  " style="fill:rgb(46, 88, 211); fill-opacity:1.000; stroke:none;" />
 <path d="  M 32,23  L 30,23  L 30,24  L 32,24  Z  " style="fill:rgb(46, 88, 211); fill-opacity:1.000; stroke:none;" />
 <path d="  M 31,12  L 31,13  L 34,13  L 34,12  Z  " style="fill:rgb(46, 88, 211); fill-opacity:1.000; stroke:none;" />
 <path d="  M 35,22  L 35,21  L 31,21  L 31,22  Z  " style="fill:rgb(46, 88, 211); fill-opacity:1.000; stroke:none;" />
 <path d="  M 36,20  L 36,19  L 35,19  L 35,18  L 33,18  L 33,19  L 34,19  L 34,20  Z  " style="fill:rgb(46, 88, 211); fill-opacity:1.000; stroke:none;" />
 <path d="  M 37,11  L 37,10  L 34,10  L 34,11  Z  " style="fill:rgb(46, 88, 211); fill-opacity:1.000; stroke:none;" />
 <path d="  M 35,8  L 35,9  L 37,9  L 37,8  Z  " style="fill:rgb(46, 88, 211); fill-opacity:1.000; stroke:none;" />
 <path d="  M 37,13  L 38,13  L 38,12  L 36,12  L 36,13  L 35,13  L 35,14  L 37,14  Z  " style="fill:rgb(46, 88, 211); fill-opacity:1.000; stroke:none;" />
 <path d="  M 42,22  L 42,21  L 39,21  L 39,20  L 41,20  L 41,19  L 42,19  L 42,20  L 43,20  L 43,19  L 45,19  L 45,18  L 40,18  L 40,19  L 37,19  L 37,20  L 38,20  L 38,21  L 36,21  L 36,22  L 35,22  L 35,23  L 37,23  L 37,22  Z  " style="fill:rgb(46, 88, 211); fill-opacity:1.000; stroke:none;" />
 <path d="  M 47,14  L 47,13  L 41,13  L 41,14  L 42,14  L 42,15  L 41,15  L 41,16  L 37,16  L 37,17  L 42,17  L 42,16  L 44,16  L 44,15  L 43,15  L 43,14  Z  " style="fill:rgb(46, 88, 211); fill-opacity:1.000; stroke:none;" />
 <path d="  M 39,10  L 38,10  L 38,11  L 39,11  Z  " style="fill:rgb(46, 88, 211); fill-opacity:1.000; stroke:none;" />
 <path d="  M 39,10  L 42,10  L 42,9  L 39,9  Z  " style="fill:rgb(46, 88, 211); fill-opacity:1.000; stroke:none;" />
 <path d="  M 42,11  L 40,11  L 40,12  L 43,12  L 43,11  L 45,11  L 45,10  L 42,10  Z  " style="fill:rgb(46, 88, 211); fill-opacity:1.000; stroke:none;" />
 <path d="  M 46,21  L 46,20  L 43,20  L 43,21  Z  " style="fill:rgb(46, 88, 211); fill-opacity:1.000; stroke:none;" />
 <path d="  M 47,12  L 47,11  L 45,11  L 45,12  Z  " style="fill:rgb(46, 88, 211); fill-opacity:1.000; stroke:none;" />
 <path d="  M 49,15  L 50,15  L 50,14  L 47,14  L 47,15  L 46,15  L 46,16  L 45,16  L 45,17  L 47,17  L 47,18  L 50,18  L 50,17  L 48,17  L 48,16  L 49,16  Z  " style="fill:rgb(46, 88, 211); fill-opacity:1.000; stroke:none;" />
 <path d="  M 47,19  L 47,18  L 46,18  L 46,19  Z  " style="fill:rgb(46, 88, 211); fill-opacity:1.000; stroke:none;" />
 <path d="  M 48,21  L 46,21  L 46,22  L 48,22  Z  " style="fill:rgb(46, 88, 211); fill-opacity:1.000; stroke:none;" />
 <path d="  M 48,13  L 49,13  L 49,12  L 48,12  Z  " style="fill:rgb(46, 88, 211); fill-opacity:1.000; stroke:none;" />
 <path d="  M 51,20  L 51,19  L 49,19  L 49,20  L 48,20  L 48,21  L 50,21  L 50,20  Z  " style="fill:rgb(46, 88, 211); fill-opacity:1.000; stroke:none;" />
 <path d="  M 51,13  L 50,13  L 50,14  L 51,14  Z  " style="fill:rgb(46, 88, 211); fill-opacity:1.000; stroke:none;" />
 <path d="  M 52,17  L 53,17  L 53,16  L 50,16  L 50,17  L 51,17  L 51,19  L 52,19  Z  " style="fill:rgb(46, 88, 211); fill-opacity:1.000; stroke:none;" />
 <path d="  M 16,49  L 17,49  L 17,51  L 18,51  L 18,52  L 19,52  L 19,53  L 20,53  L 20,54  L 21,54  L 21,55  L 23,55  L 23,56  L 26,56  L 26,57  L 29,57  L 29,56  L 28,56  L 28,54  L 27,54  L 27,52  L 26,52  L 26,49  L 25,49  L 25,45  L 24,45  L 24,37  L 23,37  L 23,26  L 20,26  L 20,25  L 17,25  L 17,24  L 15,24  L 15,23  L 13,23  L 13,22  L 12,22  L 12,21  L 11,21  L 11,20  L 10,20  L 10,27  L 11,27  L 11,34  L 12,34  L 12,38  L 13,38  L 13,41  L 14,41  L 14,45  L 15,45  L 15,47  L 16,47  Z  M 17,32  L 18,32  L 18,36  L 19,36  L 19,39  L 20,39  L 20,43  L 19,43  L 19,41  L 18,41  L 18,39  L 17,39  L 17,36  L 16,36  L 16,30  L 17,30  Z  " style="fill:rgb(215, 215, 215); fill-opacity:1.000; stroke:none;" />
 <path d="  M 10,27  L 10,28  L 11,28  L 11,27  Z  " style="fill:rgb(167, 167, 167); fill-opacity:1.000; stroke:none;" />
 <path d="  M 11,34  L 11,35  L 12,35  L 12,34  Z  " style="fill:rgb(167, 167, 167); fill-opacity:1.000; stroke:none;" />
 <path d="  M 12,39  L 13,39  L 13,38  L 12,38  Z  " style="fill:rgb(167, 167, 167); fill-opacity:1.000; stroke:none;" />
 <path d="  M 13,22  L 13,23  L 14,23  L 14,22  Z  " style="fill:rgb(167, 167, 167); fill-opacity:1.000; stroke:none;" />
 <path d="  M 13,41  L 13,42  L 14,42  L 14,41  Z  " style="fill:rgb(167, 167, 167); fill-opacity:1.000; stroke:none;" />
 <path d="  M 15,45  L 14,45  L 14,46  L 15,46  Z  " style="fill:rgb(167, 167, 167); fill-opacity:1.000; stroke:none;" />
 <path d="  M 16,23  L 15,23  L 15,24  L 16,24  Z  " style="fill:rgb(167, 167, 167); fill-opacity:1.000; stroke:none;" />
 <path d="  M 16,48  L 16,47  L 15,47  L 15,48  Z  " style="fill:rgb(167, 167, 167); fill-opacity:1.000; stroke:none;" />
 <path d="  M 17,50  L 17,49  L 16,49  L 16,50  Z  " style="fill:rgb(167, 167, 167); fill-opacity:1.000; stroke:none;" />
 <path d="  M 17,25  L 18,25  L 18,24  L 17,24  Z  " style="fill:rgb(167, 167, 167); fill-opacity:1.000; stroke:none;" />
 <path d="  M 18,52  L 18,51  L 17,51  L 17,52  Z  " style="fill:rgb(167, 167, 167); fill-opacity:1.000; stroke:none;" />
 <path d="  M 19,53  L 19,52  L 18,52  L 18,53  Z  " style="fill:rgb(167, 167, 167); fill-opacity:1.000; stroke:none;" />
 <path d="  M 20,53  L 19,53  L 19,54  L 20,54  Z  " style="fill:rgb(167, 167, 167); fill-opacity:1.000; stroke:none;" />
 <path d="  M 21,25  L 20,25  L 20,26  L 21,26  Z  " style="fill:rgb(167, 167, 167); fill-opacity:1.000; stroke:none;" />
 <path d="  M 21,54  L 20,54  L 20,55  L 21,55  Z  " style="fill:rgb(167, 167, 167); fill-opacity:1.000; stroke:none;" />
 <path d="  M 22,56  L 23,56  L 23,55  L 22,55  Z  " style="fill:rgb(167, 167, 167); fill-opacity:1.000; stroke:none;" />
 <path d="  M 38,26  L 37,26  L 37,27  L 26,27  L 26,26  L 23,26  L 23,37  L 24,37  L 24,45  L 25,45  L 25,49  L 26,49  L 26,52  L 27,52  L 27,54  L 28,54  L 28,56  L 29,56  L 29,57  L 30,57  L 30,56  L 32,56  L 32,55  L 33,55  L 33,54  L 34,54  L 34,52  L 35,52  L 35,49  L 36,49  L 36,45  L 37,45  L 37,37  L 38,37  Z  " style="fill:rgb(167, 167, 167); fill-opacity:1.000; stroke:none;" />
 <path d="  M 26,56  L 25,56  L 25,57  L 26,57  Z  " style="fill:rgb(167, 167, 167); fill-opacity:1.000; stroke:none;" />
 <path d="  M 42,8  L 40,8  L 40,9  L 42,9  Z  " style="fill:rgb(167, 167, 167); fill-opacity:1.000; stroke:none;" />
 <path d="  M 45,10  L 45,9  L 42,9  L 42,10  Z  " style="fill:rgb(167, 167, 167); fill-opacity:1.000; stroke:none;" />
 <path d="  M 46,11  L 46,10  L 45,10  L 45,11  Z  " style="fill:rgb(167, 167, 167); fill-opacity:1.000; stroke:none;" />
 <path d="  M 51,36  L 50,36  L 50,40  L 51,40  Z  " style="fill:rgb(167, 167, 167); fill-opacity:1.000; stroke:none;" />
 <path d="  M 52,29  L 51,29  L 51,36  L 52,36  Z  " style="fill:rgb(167, 167, 167); fill-opacity:1.000; stroke:none;" />
 <path d="  M 11,14  L 11,15  L 12,15  L 12,14  Z  " style="fill:rgb(35, 79, 204); fill-opacity:1.000; stroke:none;" />
 <path d="  M 12,19  L 11,19  L 11,20  L 12,20  Z  " style="fill:rgb(35, 79, 204); fill-opacity:1.000; stroke:none;" />
 <path d="  M 12,13  L 12,14  L 13,14  L 13,13  Z  " style="fill:rgb(35, 79, 204); fill-opacity:1.000; stroke:none;" />
 <path d="  M 12,21  L 13,21  L 13,20  L 12,20  Z  " style="fill:rgb(35, 79, 204); fill-opacity:1.000; stroke:none;" />
 <path d="  M 14,22  L 15,22  L 15,21  L 14,21  Z  " style="fill:rgb(35, 79, 204); fill-opacity:1.000; stroke:none;" />
 <path d="  M 17,11  L 16,11  L 16,12  L 17,12  Z  " style="fill:rgb(35, 79, 204); fill-opacity:1.000; stroke:none;" />
 <path d="  M 17,22  L 16,22  L 16,23  L 17,23  Z  " style="fill:rgb(35, 79, 204); fill-opacity:1.000; stroke:none;" />
 <path d="  M 19,11  L 19,10  L 18,10  L 18,11  Z  " style="fill:rgb(35, 79, 204); fill-opacity:1.000; stroke:none;" />
 <path d="  M 19,24  L 19,23  L 18,23  L 18,24  Z  " style="fill:rgb(35, 79, 204); fill-opacity:1.000; stroke:none;" />
 <path d="  M 21,9  L 21,10  L 22,10  L 22,9  Z  " style="fill:rgb(35, 79, 204); fill-opacity:1.000; stroke:none;" />
 <path d="  M 21,24  L 21,25  L 23,25  L 23,24  Z  " style="fill:rgb(35, 79, 204); fill-opacity:1.000; stroke:none;" />
 <path d="  M 26,26  L 27,26  L 27,25  L 26,25  Z  " style="fill:rgb(35, 79, 204); fill-opacity:1.000; stroke:none;" />
 <path d="  M 36,25  L 36,26  L 37,26  L 37,25  Z  " style="fill:rgb(35, 79, 204); fill-opacity:1.000; stroke:none;" />
 <path d="  M 42,24  L 41,24  L 41,25  L 42,25  Z  " style="fill:rgb(35, 79, 204); fill-opacity:1.000; stroke:none;" />
 <path d="  M 45,24  L 45,23  L 44,23  L 44,24  Z  " style="fill:rgb(35, 79, 204); fill-opacity:1.000; stroke:none;" />
 <path d="  M 47,22  L 46,22  L 46,23  L 47,23  Z  " style="fill:rgb(35, 79, 204); fill-opacity:1.000; stroke:none;" />
 <path d="  M 49,21  L 48,21  L 48,22  L 49,22  Z  " style="fill:rgb(35, 79, 204); fill-opacity:1.000; stroke:none;" />
 <path d="  M 51,20  L 50,20  L 50,21  L 51,21  Z  " style="fill:rgb(35, 79, 204); fill-opacity:1.000; stroke:none;" />
 <path d="  M 52,19  L 51,19  L 51,20  L 52,20  Z  " style="fill:rgb(35, 79, 204); fill-opacity:1.000; stroke:none;" />
 <path d="  M 53,18  L 53,17  L 52,17  L 52,18  Z  " style="fill:rgb(35, 79, 204); fill-opacity:1.000; stroke:none;" />
 <path d="  M 24,16  L 24,15  L 29,15  L 29,16  L 30,16  L 30,17  L 31,17  L 31,16  L 34,16  L 34,15  L 30,15  L 30,14  L 32,14  L 32,13  L 29,13  L 29,14  L 28,14  L 28,13  L 26,13  L 26,14  L 23,14  L 23,13  L 21,13  L 21,14  L 22,14  L 22,15  L 23,15  L 23,16  L 21,16  L 21,15  L 18,15  L 18,16  L 15,16  L 15,15  L 13,15  L 13,16  L 11,16  L 11,17  L 12,17  L 12,18  L 13,18  L 13,17  L 18,17  L 18,18  L 19,18  L 19,17  L 25,17  L 25,16  Z  " style="fill:rgb(52, 95, 218); fill-opacity:1.000; stroke:none;" />
 <path d="  M 13,18  L 13,19  L 15,19  L 15,18  Z  " style="fill:rgb(52, 95, 218); fill-opacity:1.000; stroke:none;" />
 <path d="  M 18,21  L 18,20  L 17,20  L 17,19  L 16,19  L 16,20  L 14,20  L 14,21  L 16,21  L 16,22  L 19,22  L 19,23  L 23,23  L 23,22  L 20,22  L 20,21  Z  " style="fill:rgb(52, 95, 218); fill-opacity:1.000; stroke:none;" />
 <path d="  M 17,12  L 17,14  L 16,14  L 16,15  L 18,15  L 18,14  L 19,14  L 19,13  L 21,13  L 21,12  Z  " style="fill:rgb(52, 95, 218); fill-opacity:1.000; stroke:none;" />
 <path d="  M 18,19  L 18,18  L 17,18  L 17,19  Z  " style="fill:rgb(52, 95, 218); fill-opacity:1.000; stroke:none;" />
 <path d="  M 22,11  L 21,11  L 21,12  L 25,12  L 25,11  L 23,11  L 23,10  L 22,10  Z  " style="fill:rgb(52, 95, 218); fill-opacity:1.000; stroke:none;" />
 <path d="  M 21,20  L 21,21  L 22,21  L 22,20  Z  " style="fill:rgb(52, 95, 218); fill-opacity:1.000; stroke:none;" />
 <path d="  M 24,18  L 24,19  L 22,19  L 22,20  L 23,20  L 23,21  L 25,21  L 25,20  L 27,20  L 27,19  L 25,19  L 25,18  Z  " style="fill:rgb(52, 95, 218); fill-opacity:1.000; stroke:none;" />
 <path d="  M 30,10  L 30,9  L 24,9  L 24,10  L 26,10  L 26,11  L 28,11  L 28,10  Z  " style="fill:rgb(52, 95, 218); fill-opacity:1.000; stroke:none;" />
 <path d="  M 24,23  L 26,23  L 26,22  L 28,22  L 28,21  L 25,21  L 25,22  L 24,22  Z  " style="fill:rgb(52, 95, 218); fill-opacity:1.000; stroke:none;" />
 <path d="  M 35,21  L 35,22  L 36,22  L 36,21  L 38,21  L 38,20  L 37,20  L 37,19  L 36,19  L 36,20  L 34,20  L 34,19  L 33,19  L 33,18  L 29,18  L 29,17  L 25,17  L 25,18  L 27,18  L 27,19  L 32,19  L 32,21  Z  " style="fill:rgb(52, 95, 218); fill-opacity:1.000; stroke:none;" />
 <path d="  M 30,24  L 30,22  L 29,22  L 29,23  L 26,23  L 26,24  Z  " style="fill:rgb(52, 95, 218); fill-opacity:1.000; stroke:none;" />
 <path d="  M 29,11  L 29,12  L 34,12  L 34,13  L 36,13  L 36,12  L 38,12  L 38,13  L 37,13  L 37,14  L 34,14  L 34,15  L 40,15  L 40,16  L 41,16  L 41,15  L 42,15  L 42,14  L 41,14  L 41,13  L 39,13  L 39,12  L 40,12  L 40,11  L 42,11  L 42,10  L 39,10  L 39,9  L 37,9  L 37,11  L 34,11  L 34,10  L 33,10  L 33,11  Z  M 38,11  L 38,10  L 39,10  L 39,11  Z  " style="fill:rgb(52, 95, 218); fill-opacity:1.000; stroke:none;" />
 <path d="  M 30,22  L 31,22  L 31,21  L 30,21  Z  " style="fill:rgb(52, 95, 218); fill-opacity:1.000; stroke:none;" />
 <path d="  M 35,23  L 35,22  L 33,22  L 33,23  L 32,23  L 32,24  L 30,24  L 30,25  L 34,25  L 34,24  L 39,24  L 39,23  Z  " style="fill:rgb(52, 95, 218); fill-opacity:1.000; stroke:none;" />
 <path d="  M 32,10  L 32,9  L 31,9  L 31,10  Z  " style="fill:rgb(52, 95, 218); fill-opacity:1.000; stroke:none;" />
 <path d="  M 32,9  L 35,9  L 35,8  L 32,8  Z  " style="fill:rgb(52, 95, 218); fill-opacity:1.000; stroke:none;" />
 <path d="  M 37,16  L 35,16  L 35,17  L 33,17  L 33,18  L 39,18  L 39,19  L 40,19  L 40,17  L 37,17  Z  " style="fill:rgb(52, 95, 218); fill-opacity:1.000; stroke:none;" />
 <path d="  M 42,21  L 42,22  L 40,22  L 40,23  L 43,23  L 43,22  L 46,22  L 46,21  L 43,21  L 43,20  L 42,20  L 42,19  L 41,19  L 41,20  L 39,20  L 39,21  Z  " style="fill:rgb(52, 95, 218); fill-opacity:1.000; stroke:none;" />
 <path d="  M 44,13  L 44,12  L 45,12  L 45,11  L 43,11  L 43,12  L 41,12  L 41,13  Z  " style="fill:rgb(52, 95, 218); fill-opacity:1.000; stroke:none;" />
 <path d="  M 44,15  L 44,16  L 42,16  L 42,17  L 45,17  L 45,16  L 46,16  L 46,15  Z  " style="fill:rgb(52, 95, 218); fill-opacity:1.000; stroke:none;" />
 <path d="  M 43,20  L 44,20  L 44,19  L 43,19  Z  " style="fill:rgb(52, 95, 218); fill-opacity:1.000; stroke:none;" />
 <path d="  M 46,19  L 46,18  L 47,18  L 47,17  L 45,17  L 45,19  Z  " style="fill:rgb(52, 95, 218); fill-opacity:1.000; stroke:none;" />
 <path d="  M 50,18  L 47,18  L 47,20  L 46,20  L 46,21  L 48,21  L 48,20  L 49,20  L 49,19  L 51,19  L 51,17  L 50,17  Z  " style="fill:rgb(52, 95, 218); fill-opacity:1.000; stroke:none;" />
 <path d="  M 47,13  L 47,14  L 50,14  L 50,13  Z  " style="fill:rgb(52, 95, 218); fill-opacity:1.000; stroke:none;" />
 <path d="  M 50,15  L 49,15  L 49,16  L 48,16  L 48,17  L 50,17  L 50,16  L 52,16  L 52,14  L 50,14  Z  " style="fill:rgb(52, 95, 218); fill-opacity:1.000; stroke:none;" />
 <path d="  M 13,17  L 13,18  L 14,18  L 14,17  Z  " style="fill:rgb(68, 111, 233); fill-opacity:1.000; stroke:none;" />
 <path d="  M 14,14  L 15,14  L 15,13  L 14,13  Z  " style="fill:rgb(68, 111, 233); fill-opacity:1.000; stroke:none;" />
 <path d="  M 16,17  L 15,17  L 15,18  L 16,18  Z  " style="fill:rgb(68, 111, 233); fill-opacity:1.000; stroke:none;" />
 <path d="  M 17,14  L 17,13  L 16,13  L 16,14  Z  " style="fill:rgb(68, 111, 233); fill-opacity:1.000; stroke:none;" />
 <path d="  M 20,18  L 18,18  L 18,19  L 20,19  Z  " style="fill:rgb(68, 111, 233); fill-opacity:1.000; stroke:none;" />
 <path d="  M 19,21  L 20,21  L 20,20  L 19,20  Z  " style="fill:rgb(68, 111, 233); fill-opacity:1.000; stroke:none;" />
 <path d="  M 22,14  L 21,14  L 21,15  L 22,15  Z  " style="fill:rgb(68, 111, 233); fill-opacity:1.000; stroke:none;" />
 <path d="  M 22,19  L 23,19  L 23,18  L 22,18  Z  " style="fill:rgb(68, 111, 233); fill-opacity:1.000; stroke:none;" />
 <path d="  M 24,11  L 24,10  L 23,10  L 23,11  Z  " style="fill:rgb(68, 111, 233); fill-opacity:1.000; stroke:none;" />
 <path d="  M 25,23  L 23,23  L 23,24  L 25,24  Z  " style="fill:rgb(68, 111, 233); fill-opacity:1.000; stroke:none;" />
 <path d="  M 25,10  L 25,11  L 26,11  L 26,10  Z  " style="fill:rgb(68, 111, 233); fill-opacity:1.000; stroke:none;" />
 <path d="  M 25,12  L 25,13  L 27,13  L 27,12  Z  " style="fill:rgb(68, 111, 233); fill-opacity:1.000; stroke:none;" />
 <path d="  M 27,17  L 27,16  L 25,16  L 25,17  Z  " style="fill:rgb(68, 111, 233); fill-opacity:1.000; stroke:none;" />
 <path d="  M 28,9  L 29,9  L 29,8  L 28,8  Z  " style="fill:rgb(68, 111, 233); fill-opacity:1.000; stroke:none;" />
 <path d="  M 28,16  L 28,17  L 30,17  L 30,16  Z  " style="fill:rgb(68, 111, 233); fill-opacity:1.000; stroke:none;" />
 <path d="  M 30,20  L 28,20  L 28,21  L 30,21  Z  " style="fill:rgb(68, 111, 233); fill-opacity:1.000; stroke:none;" />
 <path d="  M 32,9  L 32,8  L 30,8  L 30,9  Z  " style="fill:rgb(68, 111, 233); fill-opacity:1.000; stroke:none;" />
 <path d="  M 31,13  L 31,12  L 30,12  L 30,13  Z  " style="fill:rgb(68, 111, 233); fill-opacity:1.000; stroke:none;" />
 <path d="  M 31,23  L 31,22  L 30,22  L 30,23  Z  " style="fill:rgb(68, 111, 233); fill-opacity:1.000; stroke:none;" />
 <path d="  M 33,9  L 32,9  L 32,10  L 33,10  Z  " style="fill:rgb(68, 111, 233); fill-opacity:1.000; stroke:none;" />
 <path d="  M 34,14  L 34,13  L 32,13  L 32,14  Z  " style="fill:rgb(68, 111, 233); fill-opacity:1.000; stroke:none;" />
 <path d="  M 33,22  L 32,22  L 32,23  L 33,23  Z  " style="fill:rgb(68, 111, 233); fill-opacity:1.000; stroke:none;" />
 <path d="  M 34,15  L 34,16  L 35,16  L 35,15  Z  " style="fill:rgb(68, 111, 233); fill-opacity:1.000; stroke:none;" />
 <path d="  M 35,9  L 35,10  L 36,10  L 36,9  Z  " style="fill:rgb(68, 111, 233); fill-opacity:1.000; stroke:none;" />
 <path d="  M 37,19  L 37,18  L 35,18  L 35,19  Z  " style="fill:rgb(68, 111, 233); fill-opacity:1.000; stroke:none;" />
 <path d="  M 37,15  L 37,16  L 40,16  L 40,15  Z  " style="fill:rgb(68, 111, 233); fill-opacity:1.000; stroke:none;" />
 <path d="  M 39,23  L 39,22  L 37,22  L 37,23  Z  " style="fill:rgb(68, 111, 233); fill-opacity:1.000; stroke:none;" />
 <path d="  M 38,18  L 38,19  L 39,19  L 39,18  Z  " style="fill:rgb(68, 111, 233); fill-opacity:1.000; stroke:none;" />
 <path d="  M 40,12  L 39,12  L 39,13  L 40,13  Z  " style="fill:rgb(68, 111, 233); fill-opacity:1.000; stroke:none;" />
 <path d="  M 40,17  L 40,18  L 41,18  L 41,17  Z  " style="fill:rgb(68, 111, 233); fill-opacity:1.000; stroke:none;" />
 <path d="  M 44,14  L 43,14  L 43,15  L 44,15  Z  " style="fill:rgb(68, 111, 233); fill-opacity:1.000; stroke:none;" />
 <path d="  M 44,18  L 44,17  L 43,17  L 43,18  Z  " style="fill:rgb(68, 111, 233); fill-opacity:1.000; stroke:none;" />
 <path d="  M 44,13  L 45,13  L 45,12  L 44,12  Z  " style="fill:rgb(68, 111, 233); fill-opacity:1.000; stroke:none;" />
 <path d="  M 45,19  L 44,19  L 44,20  L 45,20  Z  " style="fill:rgb(68, 111, 233); fill-opacity:1.000; stroke:none;" />
 <path d="  M 47,15  L 47,14  L 45,14  L 45,15  Z  " style="fill:rgb(68, 111, 233); fill-opacity:1.000; stroke:none;" />
 <path d="  M 46,20  L 47,20  L 47,19  L 46,19  Z  " style="fill:rgb(68, 111, 233); fill-opacity:1.000; stroke:none;" />
 <path d="  M 47,12  L 47,13  L 48,13  L 48,12  Z  " style="fill:rgb(68, 111, 233); fill-opacity:1.000; stroke:none;" />
 <path d="  M 15,18  L 15,17  L 14,17  L 14,18  Z  " style="fill:rgb(90, 130, 243); fill-opacity:1.000; stroke:none;" />
 <path d="  M 15,14  L 16,14  L 16,13  L 15,13  Z  " style="fill:rgb(90, 130, 243); fill-opacity:1.000; stroke:none;" />
 <path d="  M 21,15  L 21,14  L 20,14  L 20,15  Z  " style="fill:rgb(90, 130, 243); fill-opacity:1.000; stroke:none;" />
 <path d="  M 20,18  L 20,19  L 22,19  L 22,18  Z  " style="fill:rgb(90, 130, 243); fill-opacity:1.000; stroke:none;" />
 <path d="  M 21,20  L 20,20  L 20,21  L 21,21  Z  " style="fill:rgb(90, 130, 243); fill-opacity:1.000; stroke:none;" />
 <path d="  M 25,11  L 25,10  L 24,10  L 24,11  Z  " style="fill:rgb(90, 130, 243); fill-opacity:1.000; stroke:none;" />
 <path d="  M 24,13  L 25,13  L 25,12  L 24,12  Z  " style="fill:rgb(90, 130, 243); fill-opacity:1.000; stroke:none;" />
 <path d="  M 26,23  L 25,23  L 25,24  L 26,24  Z  " style="fill:rgb(90, 130, 243); fill-opacity:1.000; stroke:none;" />
 <path d="  M 30,12  L 27,12  L 27,13  L 30,13  Z  " style="fill:rgb(90, 130, 243); fill-opacity:1.000; stroke:none;" />
 <path d="  M 28,17  L 28,16  L 27,16  L 27,17  Z  " style="fill:rgb(90, 130, 243); fill-opacity:1.000; stroke:none;" />
 <path d="  M 29,8  L 29,9  L 30,9  L 30,8  Z  " style="fill:rgb(90, 130, 243); fill-opacity:1.000; stroke:none;" />
 <path d="  M 30,20  L 30,21  L 32,21  L 32,20  Z  " style="fill:rgb(90, 130, 243); fill-opacity:1.000; stroke:none;" />
 <path d="  M 31,23  L 32,23  L 32,22  L 31,22  Z  " style="fill:rgb(90, 130, 243); fill-opacity:1.000; stroke:none;" />
 <path d="  M 35,9  L 33,9  L 33,10  L 35,10  Z  " style="fill:rgb(90, 130, 243); fill-opacity:1.000; stroke:none;" />
 <path d="  M 34,13  L 34,14  L 35,14  L 35,13  Z  " style="fill:rgb(90, 130, 243); fill-opacity:1.000; stroke:none;" />
 <path d="  M 35,15  L 35,16  L 37,16  L 37,15  Z  " style="fill:rgb(90, 130, 243); fill-opacity:1.000; stroke:none;" />
 <path d="  M 37,10  L 37,9  L 36,9  L 36,10  Z  " style="fill:rgb(90, 130, 243); fill-opacity:1.000; stroke:none;" />
 <path d="  M 38,18  L 37,18  L 37,19  L 38,19  Z  " style="fill:rgb(90, 130, 243); fill-opacity:1.000; stroke:none;" />
 <path d="  M 40,22  L 39,22  L 39,23  L 40,23  Z  " style="fill:rgb(90, 130, 243); fill-opacity:1.000; stroke:none;" />
 <path d="  M 41,12  L 40,12  L 40,13  L 41,13  Z  " style="fill:rgb(90, 130, 243); fill-opacity:1.000; stroke:none;" />
 <path d="  M 43,18  L 43,17  L 41,17  L 41,18  Z  " style="fill:rgb(90, 130, 243); fill-opacity:1.000; stroke:none;" />
 <path d="  M 45,14  L 44,14  L 44,15  L 45,15  Z  " style="fill:rgb(90, 130, 243); fill-opacity:1.000; stroke:none;" />
 <path d="  M 44,17  L 44,18  L 45,18  L 45,17  Z  " style="fill:rgb(90, 130, 243); fill-opacity:1.000; stroke:none;" />
 <path d="  M 47,13  L 47,12  L 45,12  L 45,13  Z  " style="fill:rgb(90, 130, 243); fill-opacity:1.000; stroke:none;" />
 <path d="  M 45,19  L 45,20  L 46,20  L 46,19  Z  " style="fill:rgb(90, 130, 243); fill-opacity:1.000; stroke:none;" />
 <path d="  M 18,32  L 17,32  L 17,30  L 16,30  L 16,36  L 17,36  L 17,39  L 18,39  L 18,41  L 19,41  L 19,43  L 20,43  L 20,39  L 19,39  L 19,36  L 18,36  Z  " style="fill:rgb(255, 255, 255); fill-opacity:1.000; stroke:none;" />
 <path d="  M 26,9  L 26,8  L 23,8  L 23,9  Z  " style="fill:rgb(149, 149, 149); fill-opacity:1.000; stroke:none;" />
 <path d="  M 26,8  L 37,8  L 37,7  L 26,7  Z  " style="fill:rgb(149, 149, 149); fill-opacity:1.000; stroke:none;" />
 <path d="  M 44,25  L 42,25  L 42,26  L 38,26  L 38,37  L 37,37  L 37,45  L 36,45  L 36,49  L 35,49  L 35,52  L 34,52  L 34,54  L 33,54  L 33,55  L 32,55  L 32,56  L 30,56  L 30,57  L 34,57  L 34,56  L 36,56  L 36,55  L 37,55  L 37,54  L 38,54  L 38,52  L 39,52  L 39,50  L 40,50  L 40,47  L 41,47  L 41,44  L 42,44  L 42,40  L 43,40  L 43,34  L 44,34  Z  " style="fill:rgb(149, 149, 149); fill-opacity:1.000; stroke:none;" />
 <path d="  M 37,9  L 40,9  L 40,8  L 37,8  Z  " style="fill:rgb(149, 149, 149); fill-opacity:1.000; stroke:none;" />
 <path d="  M 38,56  L 37,56  L 37,57  L 38,57  Z  " style="fill:rgb(149, 149, 149); fill-opacity:1.000; stroke:none;" />
 <path d="  M 40,56  L 41,56  L 41,55  L 40,55  Z  " style="fill:rgb(149, 149, 149); fill-opacity:1.000; stroke:none;" />
 <path d="  M 42,54  L 42,55  L 43,55  L 43,54  Z  " style="fill:rgb(149, 149, 149); fill-opacity:1.000; stroke:none;" />
 <path d="  M 44,53  L 43,53  L 43,54  L 44,54  Z  " style="fill:rgb(149, 149, 149); fill-opacity:1.000; stroke:none;" />
 <path d="  M 50,36  L 49,36  L 49,40  L 48,40  L 48,44  L 47,44  L 47,47  L 46,47  L 46,49  L 45,49  L 45,51  L 44,51  L 44,53  L 45,53  L 45,52  L 46,52  L 46,50  L 47,50  L 47,48  L 48,48  L 48,46  L 49,46  L 49,43  L 50,43  Z  " style="fill:rgb(149, 149, 149); fill-opacity:1.000; stroke:none;" />
 <path d="  M 46,10  L 46,11  L 47,11  L 47,10  Z  " style="fill:rgb(149, 149, 149); fill-opacity:1.000; stroke:none;" />
 <path d="  M 49,12  L 49,11  L 47,11  L 47,12  Z  " style="fill:rgb(149, 149, 149); fill-opacity:1.000; stroke:none;" />
 <path d="  M 49,13  L 50,13  L 50,12  L 49,12  Z  " style="fill:rgb(149, 149, 149); fill-opacity:1.000; stroke:none;" />
 <path d="  M 50,36  L 51,36  L 51,29  L 50,29  Z  " style="fill:rgb(149, 149, 149); fill-opacity:1.000; stroke:none;" />
 <path d="  M 51,29  L 53,29  L 53,20  L 52,20  L 52,21  L 51,21  Z  " style="fill:rgb(149, 149, 149); fill-opacity:1.000; stroke:none;" />
 <path d="  M 51,12  L 50,12  L 50,13  L 51,13  Z  " style="fill:rgb(94, 94, 94); fill-opacity:1.000; stroke:none;" />
 <path d="  M 52,13  L 51,13  L 51,14  L 52,14  Z  " style="fill:rgb(94, 94, 94); fill-opacity:1.000; stroke:none;" />
 <path d="  M 53,16  L 53,15  L 52,15  L 52,16  Z  " style="fill:rgb(94, 94, 94); fill-opacity:1.000; stroke:none;" />
</svg>
