<?xml version="1.0" encoding="UTF-8" standalone="no"?>
<!DOCTYPE svg PUBLIC "-//W3C//DTD SVG 1.1//EN" 
  "http://www.w3.org/Graphics/SVG/1.1/DTD/svg11.dtd">
<svg width="16" height="16"
	 xmlns="http://www.w3.org/2000/svg" version="1.1">
 <path d="  M 1,3  L 2,3  L 2,2  L 3,2  L 3,1  L 1,1  Z  " style="fill:rgb(246, 232, 203); fill-opacity:1.000; stroke:none;" />
 <path d="  M 2,13  L 1,13  L 1,15  L 3,15  L 3,14  L 2,14  Z  " style="fill:rgb(246, 232, 203); fill-opacity:1.000; stroke:none;" />
 <path d="  M 3,5  L 3,7  L 4,7  L 4,5  Z  " style="fill:rgb(246, 232, 203); fill-opacity:1.000; stroke:none;" />
 <path d="  M 5,12  L 5,13  L 6,13  L 6,12  Z  " style="fill:rgb(246, 232, 203); fill-opacity:1.000; stroke:none;" />
 <path d="  M 6,4  L 8,4  L 8,3  L 6,3  Z  " style="fill:rgb(246, 232, 203); fill-opacity:1.000; stroke:none;" />
 <path d="  M 8,11  L 8,10  L 6,10  L 6,11  Z  " style="fill:rgb(246, 232, 203); fill-opacity:1.000; stroke:none;" />
 <path d="  M 6,14  L 8,14  L 8,13  L 6,13  Z  " style="fill:rgb(246, 232, 203); fill-opacity:1.000; stroke:none;" />
 <path d="  M 12,11  L 11,11  L 11,12  L 12,12  Z  " style="fill:rgb(246, 232, 203); fill-opacity:1.000; stroke:none;" />
 <path d="  M 12,8  L 12,11  L 13,11  L 13,8  Z  " style="fill:rgb(246, 232, 203); fill-opacity:1.000; stroke:none;" />
 <path d="  M 13,2  L 14,2  L 14,3  L 15,3  L 15,1  L 13,1  Z  " style="fill:rgb(246, 232, 203); fill-opacity:1.000; stroke:none;" />
 <path d="  M 14,15  L 15,15  L 15,13  L 14,13  Z  " style="fill:rgb(246, 232, 203); fill-opacity:1.000; stroke:none;" />
 <path d="  M 2,5  L 2,3  L 1,3  L 1,5  Z  " style="fill:rgb(253, 244, 216); fill-opacity:1.000; stroke:none;" />
 <path d="  M 1,11  L 1,13  L 2,13  L 2,11  Z  " style="fill:rgb(253, 244, 216); fill-opacity:1.000; stroke:none;" />
 <path d="  M 3,3  L 3,2  L 2,2  L 2,3  Z  " style="fill:rgb(253, 244, 216); fill-opacity:1.000; stroke:none;" />
 <path d="  M 2,14  L 3,14  L 3,13  L 2,13  Z  " style="fill:rgb(253, 244, 216); fill-opacity:1.000; stroke:none;" />
 <path d="  M 3,2  L 5,2  L 5,1  L 3,1  Z  " style="fill:rgb(253, 244, 216); fill-opacity:1.000; stroke:none;" />
 <path d="  M 4,9  L 4,7  L 3,7  L 3,9  Z  " style="fill:rgb(253, 244, 216); fill-opacity:1.000; stroke:none;" />
 <path d="  M 5,15  L 5,14  L 3,14  L 3,15  Z  " style="fill:rgb(253, 244, 216); fill-opacity:1.000; stroke:none;" />
 <path d="  M 4,5  L 4,6  L 5,6  L 5,5  Z  " style="fill:rgb(253, 244, 216); fill-opacity:1.000; stroke:none;" />
 <path d="  M 5,10  L 5,9  L 4,9  L 4,10  Z  " style="fill:rgb(253, 244, 216); fill-opacity:1.000; stroke:none;" />
 <path d="  M 5,10  L 5,11  L 6,11  L 6,10  Z  " style="fill:rgb(253, 244, 216); fill-opacity:1.000; stroke:none;" />
 <path d="  M 6,4  L 6,5  L 7,5  L 7,4  Z  " style="fill:rgb(253, 244, 216); fill-opacity:1.000; stroke:none;" />
 <path d="  M 7,6  L 6,6  L 6,7  L 7,7  Z  " style="fill:rgb(253, 244, 216); fill-opacity:1.000; stroke:none;" />
 <path d="  M 7,9  L 6,9  L 6,10  L 7,10  Z  " style="fill:rgb(253, 244, 216); fill-opacity:1.000; stroke:none;" />
 <path d="  M 6,13  L 7,13  L 7,12  L 6,12  Z  " style="fill:rgb(253, 244, 216); fill-opacity:1.000; stroke:none;" />
 <path d="  M 10,4  L 10,3  L 8,3  L 8,4  Z  " style="fill:rgb(253, 244, 216); fill-opacity:1.000; stroke:none;" />
 <path d="  M 9,11  L 9,10  L 8,10  L 8,11  Z  " style="fill:rgb(253, 244, 216); fill-opacity:1.000; stroke:none;" />
 <path d="  M 8,14  L 9,14  L 9,13  L 8,13  Z  " style="fill:rgb(253, 244, 216); fill-opacity:1.000; stroke:none;" />
 <path d="  M 10,7  L 10,6  L 9,6  L 9,7  Z  " style="fill:rgb(253, 244, 216); fill-opacity:1.000; stroke:none;" />
 <path d="  M 9,10  L 10,10  L 10,9  L 9,9  Z  " style="fill:rgb(253, 244, 216); fill-opacity:1.000; stroke:none;" />
 <path d="  M 10,12  L 9,12  L 9,13  L 10,13  Z  " style="fill:rgb(253, 244, 216); fill-opacity:1.000; stroke:none;" />
 <path d="  M 11,5  L 11,4  L 10,4  L 10,5  Z  " style="fill:rgb(253, 244, 216); fill-opacity:1.000; stroke:none;" />
 <path d="  M 10,9  L 11,9  L 11,8  L 10,8  Z  " style="fill:rgb(253, 244, 216); fill-opacity:1.000; stroke:none;" />
 <path d="  M 11,2  L 13,2  L 13,1  L 11,1  Z  " style="fill:rgb(253, 244, 216); fill-opacity:1.000; stroke:none;" />
 <path d="  M 12,11  L 12,9  L 11,9  L 11,11  Z  " style="fill:rgb(253, 244, 216); fill-opacity:1.000; stroke:none;" />
 <path d="  M 12,6  L 12,8  L 13,8  L 13,6  Z  " style="fill:rgb(253, 244, 216); fill-opacity:1.000; stroke:none;" />
 <path d="  M 13,11  L 12,11  L 12,12  L 13,12  Z  " style="fill:rgb(253, 244, 216); fill-opacity:1.000; stroke:none;" />
 <path d="  M 14,15  L 14,13  L 13,13  L 13,14  L 12,14  L 12,15  Z  " style="fill:rgb(253, 244, 216); fill-opacity:1.000; stroke:none;" />
 <path d="  M 13,2  L 13,3  L 14,3  L 14,2  Z  " style="fill:rgb(253, 244, 216); fill-opacity:1.000; stroke:none;" />
 <path d="  M 15,5  L 15,3  L 14,3  L 14,5  Z  " style="fill:rgb(253, 244, 216); fill-opacity:1.000; stroke:none;" />
 <path d="  M 15,13  L 15,12  L 14,12  L 14,13  Z  " style="fill:rgb(253, 244, 216); fill-opacity:1.000; stroke:none;" />
 <path d="  M 3,13  L 3,11  L 5,11  L 5,10  L 4,10  L 4,9  L 3,9  L 3,8  L 2,8  L 2,7  L 3,7  L 3,5  L 4,5  L 4,3  L 10,3  L 10,4  L 11,4  L 11,5  L 12,5  L 12,6  L 13,6  L 13,9  L 14,9  L 14,10  L 13,10  L 13,12  L 11,12  L 11,13  L 9,13  L 9,14  L 6,14  L 6,13  Z  M 14,12  L 15,12  L 15,5  L 14,5  L 14,3  L 13,3  L 13,2  L 12,2  L 12,3  L 11,3  L 11,1  L 5,1  L 5,2  L 3,2  L 3,3  L 2,3  L 2,5  L 1,5  L 1,11  L 2,11  L 2,13  L 3,13  L 3,14  L 5,14  L 5,15  L 12,15  L 12,14  L 13,14  L 13,13  L 14,13  Z  " style="fill:rgb(255, 253, 254); fill-opacity:1.000; stroke:none;" />
 <path d="  M 10,6  L 10,8  L 11,8  L 11,9  L 12,9  L 12,6  L 11,6  L 11,5  L 10,5  L 10,4  L 7,4  L 7,5  L 5,5  L 5,6  L 4,6  L 4,9  L 5,9  L 5,10  L 6,10  L 6,6  Z  " style="fill:rgb(255, 253, 254); fill-opacity:1.000; stroke:none;" />
 <path d="  M 7,12  L 7,13  L 9,13  L 9,12  L 11,12  L 11,9  L 10,9  L 10,10  L 9,10  L 9,11  L 5,11  L 5,12  Z  " style="fill:rgb(255, 253, 254); fill-opacity:1.000; stroke:none;" />
 <path d="  M 3,7  L 2,7  L 2,8  L 3,8  Z  " style="fill:rgb(211, 33, 45); fill-opacity:1.000; stroke:none;" />
 <path d="  M 5,12  L 5,11  L 4,11  L 4,12  Z  " style="fill:rgb(211, 33, 45); fill-opacity:1.000; stroke:none;" />
 <path d="  M 5,4  L 5,5  L 6,5  L 6,4  Z  " style="fill:rgb(211, 33, 45); fill-opacity:1.000; stroke:none;" />
 <path d="  M 6,9  L 7,9  L 7,7  L 6,7  Z  " style="fill:rgb(211, 33, 45); fill-opacity:1.000; stroke:none;" />
 <path d="  M 9,7  L 9,6  L 7,6  L 7,7  Z  " style="fill:rgb(211, 33, 45); fill-opacity:1.000; stroke:none;" />
 <path d="  M 8,10  L 8,9  L 7,9  L 7,10  Z  " style="fill:rgb(211, 33, 45); fill-opacity:1.000; stroke:none;" />
 <path d="  M 9,8  L 8,8  L 8,9  L 9,9  Z  " style="fill:rgb(211, 33, 45); fill-opacity:1.000; stroke:none;" />
 <path d="  M 9,7  L 9,8  L 10,8  L 10,7  Z  " style="fill:rgb(211, 33, 45); fill-opacity:1.000; stroke:none;" />
 <path d="  M 11,2  L 11,3  L 12,3  L 12,2  Z  " style="fill:rgb(211, 33, 45); fill-opacity:1.000; stroke:none;" />
 <path d="  M 3,12  L 4,12  L 4,11  L 3,11  Z  " style="fill:rgb(240, 115, 90); fill-opacity:1.000; stroke:none;" />
 <path d="  M 5,3  L 4,3  L 4,4  L 5,4  Z  " style="fill:rgb(240, 115, 90); fill-opacity:1.000; stroke:none;" />
 <path d="  M 8,8  L 8,7  L 7,7  L 7,8  Z  " style="fill:rgb(240, 115, 90); fill-opacity:1.000; stroke:none;" />
 <path d="  M 11,13  L 11,12  L 10,12  L 10,13  Z  " style="fill:rgb(240, 115, 90); fill-opacity:1.000; stroke:none;" />
 <path d="  M 4,12  L 3,12  L 3,13  L 4,13  Z  " style="fill:rgb(232, 53, 53); fill-opacity:1.000; stroke:none;" />
 <path d="  M 4,4  L 4,5  L 5,5  L 5,4  Z  " style="fill:rgb(232, 53, 53); fill-opacity:1.000; stroke:none;" />
 <path d="  M 5,3  L 5,4  L 6,4  L 6,3  Z  " style="fill:rgb(232, 53, 53); fill-opacity:1.000; stroke:none;" />
 <path d="  M 7,8  L 7,9  L 8,9  L 8,8  Z  " style="fill:rgb(232, 53, 53); fill-opacity:1.000; stroke:none;" />
 <path d="  M 8,7  L 8,8  L 9,8  L 9,7  Z  " style="fill:rgb(232, 53, 53); fill-opacity:1.000; stroke:none;" />
 <path d="  M 4,13  L 5,13  L 5,12  L 4,12  Z  " style="fill:rgb(176, 33, 50); fill-opacity:1.000; stroke:none;" />
 <path d="  M 9,10  L 9,9  L 8,9  L 8,10  Z  " style="fill:rgb(176, 33, 50); fill-opacity:1.000; stroke:none;" />
 <path d="  M 10,8  L 9,8  L 9,9  L 10,9  Z  " style="fill:rgb(176, 33, 50); fill-opacity:1.000; stroke:none;" />
 <path d="  M 12,5  L 11,5  L 11,6  L 12,6  Z  " style="fill:rgb(176, 33, 50); fill-opacity:1.000; stroke:none;" />
 <path d="  M 13,10  L 14,10  L 14,9  L 13,9  Z  " style="fill:rgb(176, 33, 50); fill-opacity:1.000; stroke:none;" />
</svg>
