<?xml version="1.0" encoding="UTF-8" standalone="no"?>
<!DOCTYPE svg PUBLIC "-//W3C//DTD SVG 1.1//EN" 
  "http://www.w3.org/Graphics/SVG/1.1/DTD/svg11.dtd">
<svg width="16" height="16"
	 xmlns="http://www.w3.org/2000/svg" version="1.1">
 <path d="  M 1,1  L 3,1  L 3,0  L 0,0  L 0,3  L 1,3  Z  " style="fill:rgb(79, 79, 79); fill-opacity:1.000; stroke:none;" />
 <path d="  M 1,15  L 1,13  L 0,13  L 0,16  L 4,16  L 4,15  Z  " style="fill:rgb(79, 79, 79); fill-opacity:1.000; stroke:none;" />
 <path d="  M 3,6  L 2,6  L 2,11  L 3,11  Z  " style="fill:rgb(79, 79, 79); fill-opacity:1.000; stroke:none;" />
 <path d="  M 8,14  L 8,13  L 5,13  L 5,14  Z  " style="fill:rgb(79, 79, 79); fill-opacity:1.000; stroke:none;" />
 <path d="  M 7,3  L 8,3  L 8,2  L 7,2  Z  " style="fill:rgb(79, 79, 79); fill-opacity:1.000; stroke:none;" />
 <path d="  M 11,3  L 13,3  L 13,2  L 11,2  Z  " style="fill:rgb(79, 79, 79); fill-opacity:1.000; stroke:none;" />
 <path d="  M 12,13  L 11,13  L 11,14  L 12,14  Z  " style="fill:rgb(79, 79, 79); fill-opacity:1.000; stroke:none;" />
 <path d="  M 14,6  L 13,6  L 13,9  L 14,9  Z  " style="fill:rgb(79, 79, 79); fill-opacity:1.000; stroke:none;" />
 <path d="  M 13,10  L 13,11  L 14,11  L 14,10  Z  " style="fill:rgb(79, 79, 79); fill-opacity:1.000; stroke:none;" />
 <path d="  M 16,0  L 14,0  L 14,1  L 15,1  L 15,4  L 16,4  Z  " style="fill:rgb(79, 79, 79); fill-opacity:1.000; stroke:none;" />
 <path d="  M 16,16  L 16,12  L 15,12  L 15,15  L 14,15  L 14,16  Z  " style="fill:rgb(79, 79, 79); fill-opacity:1.000; stroke:none;" />
 <path d="  M 0,6  L 1,6  L 1,3  L 0,3  Z  " style="fill:rgb(89, 88, 88); fill-opacity:1.000; stroke:none;" />
 <path d="  M 0,13  L 1,13  L 1,11  L 0,11  Z  " style="fill:rgb(89, 88, 88); fill-opacity:1.000; stroke:none;" />
 <path d="  M 3,0  L 3,1  L 6,1  L 6,0  Z  " style="fill:rgb(89, 88, 88); fill-opacity:1.000; stroke:none;" />
 <path d="  M 4,16  L 8,16  L 8,15  L 4,15  Z  " style="fill:rgb(89, 88, 88); fill-opacity:1.000; stroke:none;" />
 <path d="  M 11,0  L 11,1  L 14,1  L 14,0  Z  " style="fill:rgb(89, 88, 88); fill-opacity:1.000; stroke:none;" />
 <path d="  M 11,15  L 11,16  L 14,16  L 14,15  Z  " style="fill:rgb(89, 88, 88); fill-opacity:1.000; stroke:none;" />
 <path d="  M 15,7  L 16,7  L 16,4  L 15,4  Z  " style="fill:rgb(89, 88, 88); fill-opacity:1.000; stroke:none;" />
 <path d="  M 16,9  L 15,9  L 15,12  L 16,12  Z  " style="fill:rgb(89, 88, 88); fill-opacity:1.000; stroke:none;" />
 <path d="  M 1,6  L 0,6  L 0,11  L 1,11  Z  " style="fill:rgb(103, 97, 97); fill-opacity:1.000; stroke:none;" />
 <path d="  M 6,1  L 11,1  L 11,0  L 6,0  Z  " style="fill:rgb(103, 97, 97); fill-opacity:1.000; stroke:none;" />
 <path d="  M 11,16  L 11,15  L 8,15  L 8,16  Z  " style="fill:rgb(103, 97, 97); fill-opacity:1.000; stroke:none;" />
 <path d="  M 15,9  L 16,9  L 16,7  L 15,7  Z  " style="fill:rgb(103, 97, 97); fill-opacity:1.000; stroke:none;" />
 <path d="  M 1,3  L 2,3  L 2,2  L 3,2  L 3,1  L 1,1  Z  " style="fill:rgb(45, 45, 50); fill-opacity:1.000; stroke:none;" />
 <path d="  M 2,14  L 1,14  L 1,15  L 2,15  Z  " style="fill:rgb(45, 45, 50); fill-opacity:1.000; stroke:none;" />
 <path d="  M 15,2  L 15,1  L 12,1  L 12,2  Z  " style="fill:rgb(45, 45, 50); fill-opacity:1.000; stroke:none;" />
 <path d="  M 13,15  L 15,15  L 15,14  L 13,14  Z  " style="fill:rgb(45, 45, 50); fill-opacity:1.000; stroke:none;" />
 <path d="  M 2,5  L 2,3  L 1,3  L 1,5  Z  " style="fill:rgb(52, 52, 56); fill-opacity:1.000; stroke:none;" />
 <path d="  M 1,11  L 2,11  L 2,10  L 1,10  Z  " style="fill:rgb(52, 52, 56); fill-opacity:1.000; stroke:none;" />
 <path d="  M 1,12  L 1,14  L 2,14  L 2,12  Z  " style="fill:rgb(52, 52, 56); fill-opacity:1.000; stroke:none;" />
 <path d="  M 5,15  L 5,14  L 2,14  L 2,15  Z  " style="fill:rgb(52, 52, 56); fill-opacity:1.000; stroke:none;" />
 <path d="  M 3,2  L 5,2  L 5,1  L 3,1  Z  " style="fill:rgb(52, 52, 56); fill-opacity:1.000; stroke:none;" />
 <path d="  M 7,15  L 7,14  L 6,14  L 6,15  Z  " style="fill:rgb(52, 52, 56); fill-opacity:1.000; stroke:none;" />
 <path d="  M 9,1  L 9,2  L 12,2  L 12,1  Z  " style="fill:rgb(52, 52, 56); fill-opacity:1.000; stroke:none;" />
 <path d="  M 13,15  L 13,14  L 10,14  L 10,15  Z  " style="fill:rgb(52, 52, 56); fill-opacity:1.000; stroke:none;" />
 <path d="  M 15,2  L 14,2  L 14,3  L 15,3  Z  " style="fill:rgb(52, 52, 56); fill-opacity:1.000; stroke:none;" />
 <path d="  M 15,5  L 15,4  L 14,4  L 14,5  Z  " style="fill:rgb(52, 52, 56); fill-opacity:1.000; stroke:none;" />
 <path d="  M 14,14  L 15,14  L 15,10  L 14,10  Z  " style="fill:rgb(52, 52, 56); fill-opacity:1.000; stroke:none;" />
 <path d="  M 2,5  L 1,5  L 1,10  L 2,10  Z  " style="fill:rgb(63, 62, 66); fill-opacity:1.000; stroke:none;" />
 <path d="  M 1,11  L 1,12  L 2,12  L 2,11  Z  " style="fill:rgb(63, 62, 66); fill-opacity:1.000; stroke:none;" />
 <path d="  M 9,2  L 9,1  L 5,1  L 5,2  Z  " style="fill:rgb(63, 62, 66); fill-opacity:1.000; stroke:none;" />
 <path d="  M 6,15  L 6,14  L 5,14  L 5,15  Z  " style="fill:rgb(63, 62, 66); fill-opacity:1.000; stroke:none;" />
 <path d="  M 10,14  L 7,14  L 7,15  L 10,15  Z  " style="fill:rgb(63, 62, 66); fill-opacity:1.000; stroke:none;" />
 <path d="  M 14,4  L 15,4  L 15,3  L 14,3  Z  " style="fill:rgb(63, 62, 66); fill-opacity:1.000; stroke:none;" />
 <path d="  M 15,5  L 14,5  L 14,10  L 15,10  Z  " style="fill:rgb(63, 62, 66); fill-opacity:1.000; stroke:none;" />
 <path d="  M 3,3  L 7,3  L 7,2  L 2,2  L 2,6  L 3,6  Z  " style="fill:rgb(73, 72, 72); fill-opacity:1.000; stroke:none;" />
 <path d="  M 3,13  L 3,11  L 2,11  L 2,14  L 5,14  L 5,13  Z  " style="fill:rgb(73, 72, 72); fill-opacity:1.000; stroke:none;" />
 <path d="  M 8,2  L 8,3  L 11,3  L 11,2  Z  " style="fill:rgb(73, 72, 72); fill-opacity:1.000; stroke:none;" />
 <path d="  M 11,14  L 11,13  L 8,13  L 8,14  Z  " style="fill:rgb(73, 72, 72); fill-opacity:1.000; stroke:none;" />
 <path d="  M 13,13  L 12,13  L 12,14  L 14,14  L 14,11  L 13,11  Z  " style="fill:rgb(73, 72, 72); fill-opacity:1.000; stroke:none;" />
 <path d="  M 14,2  L 13,2  L 13,6  L 14,6  Z  " style="fill:rgb(73, 72, 72); fill-opacity:1.000; stroke:none;" />
 <path d="  M 13,10  L 14,10  L 14,9  L 13,9  Z  " style="fill:rgb(73, 72, 72); fill-opacity:1.000; stroke:none;" />
</svg>
