<?xml version="1.0" encoding="UTF-8" standalone="no"?>
<!DOCTYPE svg PUBLIC "-//W3C//DTD SVG 1.1//EN" 
  "http://www.w3.org/Graphics/SVG/1.1/DTD/svg11.dtd">
<svg width="16" height="16"
	 xmlns="http://www.w3.org/2000/svg" version="1.1">
 <path d="  M 1,1  L 3,1  L 3,0  L 0,0  L 0,5  L 1,5  Z  " style="fill:rgb(78, 75, 84); fill-opacity:1.000; stroke:none;" />
 <path d="  M 1,6  L 0,6  L 0,12  L 1,12  Z  " style="fill:rgb(78, 75, 84); fill-opacity:1.000; stroke:none;" />
 <path d="  M 5,13  L 2,13  L 2,14  L 5,14  Z  " style="fill:rgb(78, 75, 84); fill-opacity:1.000; stroke:none;" />
 <path d="  M 3,3  L 3,6  L 4,6  L 4,4  L 10,4  L 10,3  Z  " style="fill:rgb(78, 75, 84); fill-opacity:1.000; stroke:none;" />
 <path d="  M 3,10  L 3,11  L 4,11  L 4,10  Z  " style="fill:rgb(78, 75, 84); fill-opacity:1.000; stroke:none;" />
 <path d="  M 12,1  L 12,0  L 4,0  L 4,1  Z  " style="fill:rgb(78, 75, 84); fill-opacity:1.000; stroke:none;" />
 <path d="  M 6,9  L 7,9  L 7,8  L 9,8  L 9,7  L 10,7  L 10,6  L 4,6  L 4,9  L 5,9  L 5,7  L 6,7  Z  " style="fill:rgb(78, 75, 84); fill-opacity:1.000; stroke:none;" />
 <path d="  M 6,14  L 10,14  L 10,13  L 6,13  Z  " style="fill:rgb(78, 75, 84); fill-opacity:1.000; stroke:none;" />
 <path d="  M 10,7  L 10,8  L 11,8  L 11,7  Z  " style="fill:rgb(78, 75, 84); fill-opacity:1.000; stroke:none;" />
 <path d="  M 12,4  L 12,3  L 11,3  L 11,4  Z  " style="fill:rgb(78, 75, 84); fill-opacity:1.000; stroke:none;" />
 <path d="  M 12,13  L 11,13  L 11,14  L 12,14  Z  " style="fill:rgb(78, 75, 84); fill-opacity:1.000; stroke:none;" />
 <path d="  M 14,4  L 14,2  L 13,2  L 13,4  Z  " style="fill:rgb(78, 75, 84); fill-opacity:1.000; stroke:none;" />
 <path d="  M 14,5  L 13,5  L 13,9  L 14,9  Z  " style="fill:rgb(78, 75, 84); fill-opacity:1.000; stroke:none;" />
 <path d="  M 14,10  L 13,10  L 13,14  L 14,14  Z  " style="fill:rgb(78, 75, 84); fill-opacity:1.000; stroke:none;" />
 <path d="  M 15,0  L 14,0  L 14,1  L 15,1  Z  " style="fill:rgb(78, 75, 84); fill-opacity:1.000; stroke:none;" />
 <path d="  M 2,4  L 1,4  L 1,5  L 0,5  L 0,6  L 1,6  L 1,9  L 2,9  Z  " style="fill:rgb(60, 57, 71); fill-opacity:1.000; stroke:none;" />
 <path d="  M 1,13  L 1,12  L 0,12  L 0,13  Z  " style="fill:rgb(60, 57, 71); fill-opacity:1.000; stroke:none;" />
 <path d="  M 1,12  L 2,12  L 2,10  L 1,10  Z  " style="fill:rgb(60, 57, 71); fill-opacity:1.000; stroke:none;" />
 <path d="  M 2,2  L 3,2  L 3,1  L 2,1  Z  " style="fill:rgb(60, 57, 71); fill-opacity:1.000; stroke:none;" />
 <path d="  M 3,0  L 3,1  L 4,1  L 4,0  Z  " style="fill:rgb(60, 57, 71); fill-opacity:1.000; stroke:none;" />
 <path d="  M 3,8  L 4,8  L 4,7  L 3,7  Z  " style="fill:rgb(60, 57, 71); fill-opacity:1.000; stroke:none;" />
 <path d="  M 7,11  L 3,11  L 3,12  L 7,12  Z  " style="fill:rgb(60, 57, 71); fill-opacity:1.000; stroke:none;" />
 <path d="  M 6,2  L 6,1  L 4,1  L 4,2  Z  " style="fill:rgb(60, 57, 71); fill-opacity:1.000; stroke:none;" />
 <path d="  M 4,5  L 5,5  L 5,6  L 6,6  L 6,5  L 10,5  L 10,4  L 4,4  Z  " style="fill:rgb(60, 57, 71); fill-opacity:1.000; stroke:none;" />
 <path d="  M 10,8  L 10,9  L 9,9  L 9,8  L 7,8  L 7,9  L 4,9  L 4,10  L 11,10  L 11,8  Z  " style="fill:rgb(60, 57, 71); fill-opacity:1.000; stroke:none;" />
 <path d="  M 5,15  L 5,14  L 4,14  L 4,15  Z  " style="fill:rgb(60, 57, 71); fill-opacity:1.000; stroke:none;" />
 <path d="  M 6,14  L 6,13  L 5,13  L 5,14  Z  " style="fill:rgb(60, 57, 71); fill-opacity:1.000; stroke:none;" />
 <path d="  M 8,14  L 6,14  L 6,15  L 8,15  Z  " style="fill:rgb(60, 57, 71); fill-opacity:1.000; stroke:none;" />
 <path d="  M 10,12  L 10,11  L 8,11  L 8,12  Z  " style="fill:rgb(60, 57, 71); fill-opacity:1.000; stroke:none;" />
 <path d="  M 11,3  L 10,3  L 10,4  L 11,4  Z  " style="fill:rgb(60, 57, 71); fill-opacity:1.000; stroke:none;" />
 <path d="  M 10,7  L 11,7  L 11,6  L 10,6  Z  " style="fill:rgb(60, 57, 71); fill-opacity:1.000; stroke:none;" />
 <path d="  M 10,14  L 11,14  L 11,13  L 10,13  Z  " style="fill:rgb(60, 57, 71); fill-opacity:1.000; stroke:none;" />
 <path d="  M 12,1  L 11,1  L 11,2  L 12,2  Z  " style="fill:rgb(60, 57, 71); fill-opacity:1.000; stroke:none;" />
 <path d="  M 11,4  L 11,6  L 12,6  L 12,4  Z  " style="fill:rgb(60, 57, 71); fill-opacity:1.000; stroke:none;" />
 <path d="  M 12,10  L 11,10  L 11,11  L 12,11  Z  " style="fill:rgb(60, 57, 71); fill-opacity:1.000; stroke:none;" />
 <path d="  M 12,1  L 14,1  L 14,0  L 12,0  Z  " style="fill:rgb(60, 57, 71); fill-opacity:1.000; stroke:none;" />
 <path d="  M 12,13  L 12,14  L 13,14  L 13,13  Z  " style="fill:rgb(60, 57, 71); fill-opacity:1.000; stroke:none;" />
 <path d="  M 15,5  L 15,3  L 14,3  L 14,4  L 13,4  L 13,5  Z  " style="fill:rgb(60, 57, 71); fill-opacity:1.000; stroke:none;" />
 <path d="  M 13,10  L 14,10  L 14,9  L 13,9  Z  " style="fill:rgb(60, 57, 71); fill-opacity:1.000; stroke:none;" />
 <path d="  M 14,1  L 14,2  L 15,2  L 15,1  Z  " style="fill:rgb(60, 57, 71); fill-opacity:1.000; stroke:none;" />
 <path d="  M 14,8  L 15,8  L 15,6  L 14,6  Z  " style="fill:rgb(60, 57, 71); fill-opacity:1.000; stroke:none;" />
 <path d="  M 14,10  L 14,11  L 15,11  L 15,10  Z  " style="fill:rgb(60, 57, 71); fill-opacity:1.000; stroke:none;" />
 <path d="  M 2,12  L 1,12  L 1,13  L 0,13  L 0,14  L 1,14  L 1,15  L 4,15  L 4,14  L 2,14  Z  " style="fill:rgb(49, 44, 54); fill-opacity:1.000; stroke:none;" />
 <path d="  M 1,4  L 2,4  L 2,1  L 1,1  Z  " style="fill:rgb(49, 44, 54); fill-opacity:1.000; stroke:none;" />
 <path d="  M 1,10  L 2,10  L 2,9  L 1,9  Z  " style="fill:rgb(49, 44, 54); fill-opacity:1.000; stroke:none;" />
 <path d="  M 4,2  L 4,1  L 3,1  L 3,2  Z  " style="fill:rgb(49, 44, 54); fill-opacity:1.000; stroke:none;" />
 <path d="  M 3,7  L 4,7  L 4,6  L 3,6  Z  " style="fill:rgb(49, 44, 54); fill-opacity:1.000; stroke:none;" />
 <path d="  M 4,8  L 3,8  L 3,10  L 4,10  Z  " style="fill:rgb(49, 44, 54); fill-opacity:1.000; stroke:none;" />
 <path d="  M 4,5  L 4,6  L 5,6  L 5,5  Z  " style="fill:rgb(49, 44, 54); fill-opacity:1.000; stroke:none;" />
 <path d="  M 4,10  L 4,11  L 6,11  L 6,10  Z  " style="fill:rgb(49, 44, 54); fill-opacity:1.000; stroke:none;" />
 <path d="  M 6,15  L 6,14  L 5,14  L 5,15  Z  " style="fill:rgb(49, 44, 54); fill-opacity:1.000; stroke:none;" />
 <path d="  M 6,1  L 6,2  L 11,2  L 11,1  Z  " style="fill:rgb(49, 44, 54); fill-opacity:1.000; stroke:none;" />
 <path d="  M 11,6  L 11,4  L 10,4  L 10,5  L 6,5  L 6,6  Z  " style="fill:rgb(49, 44, 54); fill-opacity:1.000; stroke:none;" />
 <path d="  M 7,12  L 8,12  L 8,11  L 7,11  Z  " style="fill:rgb(49, 44, 54); fill-opacity:1.000; stroke:none;" />
 <path d="  M 14,11  L 14,14  L 8,14  L 8,15  L 15,15  L 15,11  Z  " style="fill:rgb(49, 44, 54); fill-opacity:1.000; stroke:none;" />
 <path d="  M 10,10  L 10,12  L 12,12  L 12,11  L 11,11  L 11,10  Z  " style="fill:rgb(49, 44, 54); fill-opacity:1.000; stroke:none;" />
 <path d="  M 11,10  L 12,10  L 12,6  L 11,6  Z  " style="fill:rgb(49, 44, 54); fill-opacity:1.000; stroke:none;" />
 <path d="  M 14,2  L 14,1  L 12,1  L 12,2  Z  " style="fill:rgb(49, 44, 54); fill-opacity:1.000; stroke:none;" />
 <path d="  M 15,2  L 14,2  L 14,3  L 15,3  Z  " style="fill:rgb(49, 44, 54); fill-opacity:1.000; stroke:none;" />
 <path d="  M 14,6  L 15,6  L 15,5  L 14,5  Z  " style="fill:rgb(49, 44, 54); fill-opacity:1.000; stroke:none;" />
 <path d="  M 15,8  L 14,8  L 14,10  L 15,10  Z  " style="fill:rgb(49, 44, 54); fill-opacity:1.000; stroke:none;" />
 <path d="  M 2,15  L 1,15  L 1,14  L 0,14  L 0,16  L 2,16  Z  " style="fill:rgb(39, 34, 28); fill-opacity:1.000; stroke:none;" />
 <path d="  M 3,6  L 3,5  L 2,5  L 2,6  Z  " style="fill:rgb(39, 34, 28); fill-opacity:1.000; stroke:none;" />
 <path d="  M 3,7  L 2,7  L 2,12  L 3,12  Z  " style="fill:rgb(39, 34, 28); fill-opacity:1.000; stroke:none;" />
 <path d="  M 7,13  L 7,12  L 3,12  L 3,13  Z  " style="fill:rgb(39, 34, 28); fill-opacity:1.000; stroke:none;" />
 <path d="  M 3,15  L 3,16  L 4,16  L 4,15  Z  " style="fill:rgb(39, 34, 28); fill-opacity:1.000; stroke:none;" />
 <path d="  M 5,3  L 6,3  L 6,2  L 5,2  Z  " style="fill:rgb(39, 34, 28); fill-opacity:1.000; stroke:none;" />
 <path d="  M 6,10  L 6,11  L 10,11  L 10,10  Z  " style="fill:rgb(39, 34, 28); fill-opacity:1.000; stroke:none;" />
 <path d="  M 12,3  L 12,2  L 7,2  L 7,3  Z  " style="fill:rgb(39, 34, 28); fill-opacity:1.000; stroke:none;" />
 <path d="  M 8,13  L 9,13  L 9,12  L 8,12  Z  " style="fill:rgb(39, 34, 28); fill-opacity:1.000; stroke:none;" />
 <path d="  M 13,6  L 13,3  L 12,3  L 12,6  Z  " style="fill:rgb(39, 34, 28); fill-opacity:1.000; stroke:none;" />
 <path d="  M 13,8  L 13,7  L 12,7  L 12,8  Z  " style="fill:rgb(39, 34, 28); fill-opacity:1.000; stroke:none;" />
 <path d="  M 13,9  L 12,9  L 12,10  L 13,10  Z  " style="fill:rgb(39, 34, 28); fill-opacity:1.000; stroke:none;" />
 <path d="  M 12,16  L 13,16  L 13,15  L 12,15  Z  " style="fill:rgb(39, 34, 28); fill-opacity:1.000; stroke:none;" />
 <path d="  M 14,16  L 15,16  L 15,15  L 14,15  Z  " style="fill:rgb(39, 34, 28); fill-opacity:1.000; stroke:none;" />
 <path d="  M 16,1  L 16,0  L 15,0  L 15,1  Z  " style="fill:rgb(39, 34, 28); fill-opacity:1.000; stroke:none;" />
 <path d="  M 15,14  L 15,15  L 16,15  L 16,14  Z  " style="fill:rgb(39, 34, 28); fill-opacity:1.000; stroke:none;" />
 <path d="  M 3,5  L 3,3  L 5,3  L 5,2  L 2,2  L 2,5  Z  " style="fill:rgb(31, 18, 27); fill-opacity:1.000; stroke:none;" />
 <path d="  M 2,6  L 2,7  L 3,7  L 3,6  Z  " style="fill:rgb(31, 18, 27); fill-opacity:1.000; stroke:none;" />
 <path d="  M 3,12  L 2,12  L 2,13  L 3,13  Z  " style="fill:rgb(31, 18, 27); fill-opacity:1.000; stroke:none;" />
 <path d="  M 3,15  L 2,15  L 2,16  L 3,16  Z  " style="fill:rgb(31, 18, 27); fill-opacity:1.000; stroke:none;" />
 <path d="  M 5,16  L 5,15  L 4,15  L 4,16  Z  " style="fill:rgb(31, 18, 27); fill-opacity:1.000; stroke:none;" />
 <path d="  M 6,7  L 5,7  L 5,9  L 6,9  Z  " style="fill:rgb(31, 18, 27); fill-opacity:1.000; stroke:none;" />
 <path d="  M 7,2  L 6,2  L 6,3  L 7,3  Z  " style="fill:rgb(31, 18, 27); fill-opacity:1.000; stroke:none;" />
 <path d="  M 7,13  L 8,13  L 8,12  L 7,12  Z  " style="fill:rgb(31, 18, 27); fill-opacity:1.000; stroke:none;" />
 <path d="  M 10,7  L 9,7  L 9,9  L 10,9  Z  " style="fill:rgb(31, 18, 27); fill-opacity:1.000; stroke:none;" />
 <path d="  M 9,12  L 9,13  L 13,13  L 13,10  L 12,10  L 12,12  Z  " style="fill:rgb(31, 18, 27); fill-opacity:1.000; stroke:none;" />
 <path d="  M 10,15  L 10,16  L 11,16  L 11,15  Z  " style="fill:rgb(31, 18, 27); fill-opacity:1.000; stroke:none;" />
 <path d="  M 12,3  L 13,3  L 13,2  L 12,2  Z  " style="fill:rgb(31, 18, 27); fill-opacity:1.000; stroke:none;" />
 <path d="  M 13,6  L 12,6  L 12,7  L 13,7  Z  " style="fill:rgb(31, 18, 27); fill-opacity:1.000; stroke:none;" />
 <path d="  M 12,9  L 13,9  L 13,8  L 12,8  Z  " style="fill:rgb(31, 18, 27); fill-opacity:1.000; stroke:none;" />
 <path d="  M 13,15  L 13,16  L 14,16  L 14,15  Z  " style="fill:rgb(31, 18, 27); fill-opacity:1.000; stroke:none;" />
 <path d="  M 16,2  L 15,2  L 15,14  L 16,14  Z  " style="fill:rgb(31, 18, 27); fill-opacity:1.000; stroke:none;" />
 <path d="  M 15,15  L 15,16  L 16,16  L 16,15  Z  " style="fill:rgb(31, 18, 27); fill-opacity:1.000; stroke:none;" />
 <path d="  M 5,15  L 5,16  L 10,16  L 10,15  Z  " style="fill:rgb(22, 15, 16); fill-opacity:1.000; stroke:none;" />
 <path d="  M 12,16  L 12,15  L 11,15  L 11,16  Z  " style="fill:rgb(22, 15, 16); fill-opacity:1.000; stroke:none;" />
 <path d="  M 16,2  L 16,1  L 15,1  L 15,2  Z  " style="fill:rgb(22, 15, 16); fill-opacity:1.000; stroke:none;" />
</svg>
