<?xml version="1.0" encoding="UTF-8" standalone="no"?>
<!DOCTYPE svg PUBLIC "-//W3C//DTD SVG 1.1//EN" 
  "http://www.w3.org/Graphics/SVG/1.1/DTD/svg11.dtd">
<svg width="16" height="16"
	 xmlns="http://www.w3.org/2000/svg" version="1.1">
 <path d="  M 1,1  L 1,0  L 0,0  L 0,1  Z  " style="fill:rgb(180, 117, 62); fill-opacity:1.000; stroke:none;" />
 <path d="  M 6,1  L 6,0  L 2,0  L 2,1  Z  " style="fill:rgb(180, 117, 62); fill-opacity:1.000; stroke:none;" />
 <path d="  M 11,1  L 11,0  L 8,0  L 8,1  Z  " style="fill:rgb(180, 117, 62); fill-opacity:1.000; stroke:none;" />
 <path d="  M 13,0  L 13,1  L 15,1  L 15,0  Z  " style="fill:rgb(180, 117, 62); fill-opacity:1.000; stroke:none;" />
 <path d="  M 0,3  L 1,3  L 1,2  L 2,2  L 2,1  L 0,1  Z  " style="fill:rgb(135, 88, 46); fill-opacity:1.000; stroke:none;" />
 <path d="  M 2,11  L 2,10  L 1,10  L 1,9  L 0,9  L 0,11  Z  " style="fill:rgb(135, 88, 46); fill-opacity:1.000; stroke:none;" />
 <path d="  M 1,14  L 1,13  L 0,13  L 0,15  L 3,15  L 3,13  L 2,13  L 2,14  Z  " style="fill:rgb(135, 88, 46); fill-opacity:1.000; stroke:none;" />
 <path d="  M 1,6  L 2,6  L 2,5  L 1,5  Z  " style="fill:rgb(135, 88, 46); fill-opacity:1.000; stroke:none;" />
 <path d="  M 2,3  L 4,3  L 4,2  L 6,2  L 6,1  L 3,1  L 3,2  L 2,2  Z  " style="fill:rgb(135, 88, 46); fill-opacity:1.000; stroke:none;" />
 <path d="  M 2,7  L 6,7  L 6,6  L 7,6  L 7,5  L 5,5  L 5,6  L 2,6  Z  " style="fill:rgb(135, 88, 46); fill-opacity:1.000; stroke:none;" />
 <path d="  M 3,10  L 3,9  L 2,9  L 2,10  Z  " style="fill:rgb(135, 88, 46); fill-opacity:1.000; stroke:none;" />
 <path d="  M 3,10  L 3,11  L 5,11  L 5,10  Z  " style="fill:rgb(135, 88, 46); fill-opacity:1.000; stroke:none;" />
 <path d="  M 6,15  L 6,14  L 4,14  L 4,15  Z  " style="fill:rgb(135, 88, 46); fill-opacity:1.000; stroke:none;" />
 <path d="  M 7,2  L 6,2  L 6,3  L 7,3  Z  " style="fill:rgb(135, 88, 46); fill-opacity:1.000; stroke:none;" />
 <path d="  M 7,2  L 8,2  L 8,3  L 9,3  L 9,2  L 11,2  L 11,1  L 7,1  Z  " style="fill:rgb(135, 88, 46); fill-opacity:1.000; stroke:none;" />
 <path d="  M 9,10  L 7,10  L 7,11  L 11,11  L 11,10  L 10,10  L 10,9  L 9,9  Z  " style="fill:rgb(135, 88, 46); fill-opacity:1.000; stroke:none;" />
 <path d="  M 12,14  L 12,13  L 11,13  L 11,14  L 10,14  L 10,13  L 8,13  L 8,14  L 9,14  L 9,15  L 15,15  L 15,14  Z  " style="fill:rgb(135, 88, 46); fill-opacity:1.000; stroke:none;" />
 <path d="  M 13,7  L 13,6  L 12,6  L 12,5  L 11,5  L 11,6  L 9,6  L 9,7  Z  " style="fill:rgb(135, 88, 46); fill-opacity:1.000; stroke:none;" />
 <path d="  M 16,2  L 16,1  L 13,1  L 13,2  L 12,2  L 12,3  L 14,3  L 14,2  Z  " style="fill:rgb(135, 88, 46); fill-opacity:1.000; stroke:none;" />
 <path d="  M 16,10  L 16,9  L 14,9  L 14,10  L 13,10  L 13,9  L 12,9  L 12,11  L 15,11  L 15,10  Z  " style="fill:rgb(135, 88, 46); fill-opacity:1.000; stroke:none;" />
 <path d="  M 15,6  L 14,6  L 14,7  L 15,7  Z  " style="fill:rgb(135, 88, 46); fill-opacity:1.000; stroke:none;" />
 <path d="  M 16,5  L 15,5  L 15,6  L 16,6  Z  " style="fill:rgb(135, 88, 46); fill-opacity:1.000; stroke:none;" />
 <path d="  M 1,3  L 0,3  L 0,4  L 1,4  Z  " style="fill:rgb(81, 43, 10); fill-opacity:1.000; stroke:none;" />
 <path d="  M 16,8  L 16,7  L 0,7  L 0,8  Z  " style="fill:rgb(81, 43, 10); fill-opacity:1.000; stroke:none;" />
 <path d="  M 0,11  L 0,12  L 16,12  L 16,11  Z  " style="fill:rgb(81, 43, 10); fill-opacity:1.000; stroke:none;" />
 <path d="  M 0,15  L 0,16  L 16,16  L 16,15  Z  " style="fill:rgb(81, 43, 10); fill-opacity:1.000; stroke:none;" />
 <path d="  M 3,3  L 3,4  L 5,4  L 5,3  Z  " style="fill:rgb(81, 43, 10); fill-opacity:1.000; stroke:none;" />
 <path d="  M 6,4  L 10,4  L 10,3  L 6,3  Z  " style="fill:rgb(81, 43, 10); fill-opacity:1.000; stroke:none;" />
 <path d="  M 15,4  L 15,3  L 12,3  L 12,4  Z  " style="fill:rgb(81, 43, 10); fill-opacity:1.000; stroke:none;" />
 <path d="  M 1,5  L 1,4  L 0,4  L 0,5  Z  " style="fill:rgb(62, 37, 14); fill-opacity:1.000; stroke:none;" />
 <path d="  M 4,5  L 4,4  L 3,4  L 3,5  Z  " style="fill:rgb(62, 37, 14); fill-opacity:1.000; stroke:none;" />
 <path d="  M 3,9  L 4,9  L 4,8  L 3,8  Z  " style="fill:rgb(62, 37, 14); fill-opacity:1.000; stroke:none;" />
 <path d="  M 6,13  L 6,12  L 3,12  L 3,13  Z  " style="fill:rgb(62, 37, 14); fill-opacity:1.000; stroke:none;" />
 <path d="  M 5,4  L 5,5  L 6,5  L 6,4  Z  " style="fill:rgb(62, 37, 14); fill-opacity:1.000; stroke:none;" />
 <path d="  M 10,8  L 8,8  L 8,9  L 10,9  Z  " style="fill:rgb(62, 37, 14); fill-opacity:1.000; stroke:none;" />
 <path d="  M 12,9  L 13,9  L 13,8  L 12,8  Z  " style="fill:rgb(62, 37, 14); fill-opacity:1.000; stroke:none;" />
 <path d="  M 16,5  L 16,4  L 15,4  L 15,5  Z  " style="fill:rgb(62, 37, 14); fill-opacity:1.000; stroke:none;" />
 <path d="  M 16,8  L 15,8  L 15,9  L 16,9  Z  " style="fill:rgb(62, 37, 14); fill-opacity:1.000; stroke:none;" />
 <path d="  M 15,12  L 15,13  L 16,13  L 16,12  Z  " style="fill:rgb(62, 37, 14); fill-opacity:1.000; stroke:none;" />
 <path d="  M 0,5  L 0,7  L 2,7  L 2,6  L 1,6  L 1,5  Z  " style="fill:rgb(120, 73, 31); fill-opacity:1.000; stroke:none;" />
 <path d="  M 1,2  L 1,3  L 2,3  L 2,2  Z  " style="fill:rgb(120, 73, 31); fill-opacity:1.000; stroke:none;" />
 <path d="  M 1,10  L 2,10  L 2,9  L 1,9  Z  " style="fill:rgb(120, 73, 31); fill-opacity:1.000; stroke:none;" />
 <path d="  M 1,13  L 1,14  L 2,14  L 2,13  Z  " style="fill:rgb(120, 73, 31); fill-opacity:1.000; stroke:none;" />
 <path d="  M 2,2  L 3,2  L 3,1  L 2,1  Z  " style="fill:rgb(120, 73, 31); fill-opacity:1.000; stroke:none;" />
 <path d="  M 3,10  L 2,10  L 2,11  L 3,11  Z  " style="fill:rgb(120, 73, 31); fill-opacity:1.000; stroke:none;" />
 <path d="  M 3,15  L 4,15  L 4,14  L 3,14  Z  " style="fill:rgb(120, 73, 31); fill-opacity:1.000; stroke:none;" />
 <path d="  M 6,3  L 6,2  L 4,2  L 4,3  Z  " style="fill:rgb(120, 73, 31); fill-opacity:1.000; stroke:none;" />
 <path d="  M 5,10  L 5,11  L 7,11  L 7,10  Z  " style="fill:rgb(120, 73, 31); fill-opacity:1.000; stroke:none;" />
 <path d="  M 6,1  L 6,2  L 7,2  L 7,1  Z  " style="fill:rgb(120, 73, 31); fill-opacity:1.000; stroke:none;" />
 <path d="  M 6,6  L 6,7  L 9,7  L 9,6  Z  " style="fill:rgb(120, 73, 31); fill-opacity:1.000; stroke:none;" />
 <path d="  M 6,14  L 6,15  L 9,15  L 9,14  Z  " style="fill:rgb(120, 73, 31); fill-opacity:1.000; stroke:none;" />
 <path d="  M 7,3  L 8,3  L 8,2  L 7,2  Z  " style="fill:rgb(120, 73, 31); fill-opacity:1.000; stroke:none;" />
 <path d="  M 12,3  L 12,2  L 13,2  L 13,1  L 11,1  L 11,2  L 9,2  L 9,3  Z  " style="fill:rgb(120, 73, 31); fill-opacity:1.000; stroke:none;" />
 <path d="  M 11,5  L 10,5  L 10,6  L 11,6  Z  " style="fill:rgb(120, 73, 31); fill-opacity:1.000; stroke:none;" />
 <path d="  M 10,14  L 11,14  L 11,13  L 10,13  Z  " style="fill:rgb(120, 73, 31); fill-opacity:1.000; stroke:none;" />
 <path d="  M 12,10  L 11,10  L 11,11  L 12,11  Z  " style="fill:rgb(120, 73, 31); fill-opacity:1.000; stroke:none;" />
 <path d="  M 14,6  L 13,6  L 13,7  L 14,7  Z  " style="fill:rgb(120, 73, 31); fill-opacity:1.000; stroke:none;" />
 <path d="  M 13,10  L 14,10  L 14,9  L 13,9  Z  " style="fill:rgb(120, 73, 31); fill-opacity:1.000; stroke:none;" />
 <path d="  M 16,2  L 14,2  L 14,3  L 16,3  Z  " style="fill:rgb(120, 73, 31); fill-opacity:1.000; stroke:none;" />
 <path d="  M 15,7  L 16,7  L 16,6  L 15,6  Z  " style="fill:rgb(120, 73, 31); fill-opacity:1.000; stroke:none;" />
 <path d="  M 15,11  L 16,11  L 16,10  L 15,10  Z  " style="fill:rgb(120, 73, 31); fill-opacity:1.000; stroke:none;" />
 <path d="  M 15,14  L 15,15  L 16,15  L 16,14  Z  " style="fill:rgb(120, 73, 31); fill-opacity:1.000; stroke:none;" />
 <path d="  M 0,8  L 0,9  L 1,9  L 1,8  Z  " style="fill:rgb(70, 49, 14); fill-opacity:1.000; stroke:none;" />
 <path d="  M 1,13  L 1,12  L 0,12  L 0,13  Z  " style="fill:rgb(70, 49, 14); fill-opacity:1.000; stroke:none;" />
 <path d="  M 4,4  L 4,5  L 5,5  L 5,4  Z  " style="fill:rgb(70, 49, 14); fill-opacity:1.000; stroke:none;" />
 <path d="  M 7,8  L 5,8  L 5,9  L 7,9  Z  " style="fill:rgb(70, 49, 14); fill-opacity:1.000; stroke:none;" />
 <path d="  M 6,4  L 6,5  L 7,5  L 7,4  Z  " style="fill:rgb(70, 49, 14); fill-opacity:1.000; stroke:none;" />
 <path d="  M 11,5  L 11,4  L 10,4  L 10,5  Z  " style="fill:rgb(70, 49, 14); fill-opacity:1.000; stroke:none;" />
 <path d="  M 10,9  L 12,9  L 12,8  L 10,8  Z  " style="fill:rgb(70, 49, 14); fill-opacity:1.000; stroke:none;" />
 <path d="  M 11,13  L 11,12  L 10,12  L 10,13  Z  " style="fill:rgb(70, 49, 14); fill-opacity:1.000; stroke:none;" />
 <path d="  M 13,4  L 12,4  L 12,5  L 13,5  Z  " style="fill:rgb(70, 49, 14); fill-opacity:1.000; stroke:none;" />
 <path d="  M 13,12  L 12,12  L 12,13  L 13,13  Z  " style="fill:rgb(70, 49, 14); fill-opacity:1.000; stroke:none;" />
 <path d="  M 1,1  L 2,1  L 2,0  L 1,0  Z  " style="fill:rgb(163, 112, 67); fill-opacity:1.000; stroke:none;" />
 <path d="  M 5,5  L 2,5  L 2,6  L 5,6  Z  " style="fill:rgb(163, 112, 67); fill-opacity:1.000; stroke:none;" />
 <path d="  M 3,9  L 3,10  L 9,10  L 9,9  Z  " style="fill:rgb(163, 112, 67); fill-opacity:1.000; stroke:none;" />
 <path d="  M 3,13  L 3,14  L 8,14  L 8,13  Z  " style="fill:rgb(163, 112, 67); fill-opacity:1.000; stroke:none;" />
 <path d="  M 6,1  L 8,1  L 8,0  L 6,0  Z  " style="fill:rgb(163, 112, 67); fill-opacity:1.000; stroke:none;" />
 <path d="  M 10,6  L 10,5  L 7,5  L 7,6  Z  " style="fill:rgb(163, 112, 67); fill-opacity:1.000; stroke:none;" />
 <path d="  M 10,9  L 10,10  L 12,10  L 12,9  Z  " style="fill:rgb(163, 112, 67); fill-opacity:1.000; stroke:none;" />
 <path d="  M 13,1  L 13,0  L 11,0  L 11,1  Z  " style="fill:rgb(163, 112, 67); fill-opacity:1.000; stroke:none;" />
 <path d="  M 12,5  L 12,6  L 15,6  L 15,5  Z  " style="fill:rgb(163, 112, 67); fill-opacity:1.000; stroke:none;" />
 <path d="  M 12,13  L 12,14  L 16,14  L 16,13  Z  " style="fill:rgb(163, 112, 67); fill-opacity:1.000; stroke:none;" />
 <path d="  M 16,1  L 16,0  L 15,0  L 15,1  Z  " style="fill:rgb(163, 112, 67); fill-opacity:1.000; stroke:none;" />
 <path d="  M 3,4  L 3,3  L 1,3  L 1,4  Z  " style="fill:rgb(92, 52, 17); fill-opacity:1.000; stroke:none;" />
 <path d="  M 5,3  L 5,4  L 6,4  L 6,3  Z  " style="fill:rgb(92, 52, 17); fill-opacity:1.000; stroke:none;" />
 <path d="  M 10,3  L 10,4  L 12,4  L 12,3  Z  " style="fill:rgb(92, 52, 17); fill-opacity:1.000; stroke:none;" />
 <path d="  M 16,4  L 16,3  L 15,3  L 15,4  Z  " style="fill:rgb(92, 52, 17); fill-opacity:1.000; stroke:none;" />
 <path d="  M 3,5  L 3,4  L 1,4  L 1,5  Z  " style="fill:rgb(37, 20, 5); fill-opacity:1.000; stroke:none;" />
 <path d="  M 3,9  L 3,8  L 1,8  L 1,9  Z  " style="fill:rgb(37, 20, 5); fill-opacity:1.000; stroke:none;" />
 <path d="  M 1,12  L 1,13  L 3,13  L 3,12  Z  " style="fill:rgb(37, 20, 5); fill-opacity:1.000; stroke:none;" />
 <path d="  M 15,5  L 15,4  L 13,4  L 13,5  Z  " style="fill:rgb(37, 20, 5); fill-opacity:1.000; stroke:none;" />
 <path d="  M 15,9  L 15,8  L 13,8  L 13,9  Z  " style="fill:rgb(37, 20, 5); fill-opacity:1.000; stroke:none;" />
 <path d="  M 15,13  L 15,12  L 13,12  L 13,13  Z  " style="fill:rgb(37, 20, 5); fill-opacity:1.000; stroke:none;" />
 <path d="  M 5,8  L 4,8  L 4,9  L 5,9  Z  " style="fill:rgb(94, 57, 14); fill-opacity:1.000; stroke:none;" />
 <path d="  M 6,13  L 7,13  L 7,12  L 6,12  Z  " style="fill:rgb(94, 57, 14); fill-opacity:1.000; stroke:none;" />
 <path d="  M 7,5  L 8,5  L 8,4  L 7,4  Z  " style="fill:rgb(94, 57, 14); fill-opacity:1.000; stroke:none;" />
 <path d="  M 7,8  L 7,9  L 8,9  L 8,8  Z  " style="fill:rgb(94, 57, 14); fill-opacity:1.000; stroke:none;" />
 <path d="  M 9,4  L 9,5  L 10,5  L 10,4  Z  " style="fill:rgb(94, 57, 14); fill-opacity:1.000; stroke:none;" />
 <path d="  M 10,12  L 9,12  L 9,13  L 10,13  Z  " style="fill:rgb(94, 57, 14); fill-opacity:1.000; stroke:none;" />
 <path d="  M 11,4  L 11,5  L 12,5  L 12,4  Z  " style="fill:rgb(94, 57, 14); fill-opacity:1.000; stroke:none;" />
 <path d="  M 7,12  L 7,13  L 9,13  L 9,12  Z  " style="fill:rgb(126, 77, 21); fill-opacity:1.000; stroke:none;" />
 <path d="  M 8,5  L 9,5  L 9,4  L 8,4  Z  " style="fill:rgb(126, 77, 21); fill-opacity:1.000; stroke:none;" />
 <path d="  M 11,13  L 12,13  L 12,12  L 11,12  Z  " style="fill:rgb(70, 64, 6); fill-opacity:1.000; stroke:none;" />
</svg>
