<?xml version="1.0" encoding="UTF-8" standalone="no"?>
<!DOCTYPE svg PUBLIC "-//W3C//DTD SVG 1.1//EN" 
  "http://www.w3.org/Graphics/SVG/1.1/DTD/svg11.dtd">
<svg width="16" height="16"
	 xmlns="http://www.w3.org/2000/svg" version="1.1">
 <path d="  M 1,1  L 2,1  L 2,0  L 0,0  L 0,2  L 1,2  Z  " style="fill:rgb(135, 88, 46); fill-opacity:1.000; stroke:none;" />
 <path d="  M 1,7  L 1,3  L 0,3  L 0,7  Z  " style="fill:rgb(135, 88, 46); fill-opacity:1.000; stroke:none;" />
 <path d="  M 0,9  L 0,13  L 1,13  L 1,9  Z  " style="fill:rgb(135, 88, 46); fill-opacity:1.000; stroke:none;" />
 <path d="  M 2,15  L 1,15  L 1,14  L 0,14  L 0,16  L 2,16  Z  " style="fill:rgb(135, 88, 46); fill-opacity:1.000; stroke:none;" />
 <path d="  M 3,5  L 3,4  L 2,4  L 2,6  L 3,6  L 3,7  L 4,7  L 4,8  L 5,8  L 5,6  L 4,6  L 4,5  Z  " style="fill:rgb(135, 88, 46); fill-opacity:1.000; stroke:none;" />
 <path d="  M 3,8  L 2,8  L 2,14  L 3,14  Z  " style="fill:rgb(135, 88, 46); fill-opacity:1.000; stroke:none;" />
 <path d="  M 3,0  L 3,1  L 7,1  L 7,0  Z  " style="fill:rgb(135, 88, 46); fill-opacity:1.000; stroke:none;" />
 <path d="  M 3,4  L 5,4  L 5,3  L 4,3  L 4,2  L 3,2  Z  " style="fill:rgb(135, 88, 46); fill-opacity:1.000; stroke:none;" />
 <path d="  M 7,16  L 7,15  L 3,15  L 3,16  Z  " style="fill:rgb(135, 88, 46); fill-opacity:1.000; stroke:none;" />
 <path d="  M 4,13  L 5,13  L 5,9  L 4,9  Z  " style="fill:rgb(135, 88, 46); fill-opacity:1.000; stroke:none;" />
 <path d="  M 6,5  L 7,5  L 7,2  L 6,2  Z  " style="fill:rgb(135, 88, 46); fill-opacity:1.000; stroke:none;" />
 <path d="  M 9,6  L 10,6  L 10,2  L 9,2  L 9,3  L 8,3  L 8,6  L 6,6  L 6,8  L 7,8  L 7,9  L 8,9  L 8,8  L 9,8  Z  " style="fill:rgb(135, 88, 46); fill-opacity:1.000; stroke:none;" />
 <path d="  M 7,11  L 6,11  L 6,14  L 8,14  L 8,12  L 7,12  Z  " style="fill:rgb(135, 88, 46); fill-opacity:1.000; stroke:none;" />
 <path d="  M 10,9  L 9,9  L 9,10  L 8,10  L 8,11  L 9,11  L 9,14  L 10,14  Z  " style="fill:rgb(135, 88, 46); fill-opacity:1.000; stroke:none;" />
 <path d="  M 9,1  L 13,1  L 13,0  L 9,0  Z  " style="fill:rgb(135, 88, 46); fill-opacity:1.000; stroke:none;" />
 <path d="  M 13,16  L 13,15  L 9,15  L 9,16  Z  " style="fill:rgb(135, 88, 46); fill-opacity:1.000; stroke:none;" />
 <path d="  M 14,3  L 13,3  L 13,2  L 11,2  L 11,5  L 12,5  L 12,4  L 13,4  L 13,5  L 14,5  Z  " style="fill:rgb(135, 88, 46); fill-opacity:1.000; stroke:none;" />
 <path d="  M 11,7  L 11,13  L 12,13  L 12,10  L 13,10  L 13,6  L 12,6  L 12,7  Z  " style="fill:rgb(135, 88, 46); fill-opacity:1.000; stroke:none;" />
 <path d="  M 14,10  L 13,10  L 13,14  L 14,14  Z  " style="fill:rgb(135, 88, 46); fill-opacity:1.000; stroke:none;" />
 <path d="  M 16,2  L 16,0  L 14,0  L 14,1  L 15,1  L 15,2  Z  " style="fill:rgb(135, 88, 46); fill-opacity:1.000; stroke:none;" />
 <path d="  M 16,16  L 16,14  L 15,14  L 15,15  L 14,15  L 14,16  Z  " style="fill:rgb(135, 88, 46); fill-opacity:1.000; stroke:none;" />
 <path d="  M 15,7  L 16,7  L 16,3  L 15,3  Z  " style="fill:rgb(135, 88, 46); fill-opacity:1.000; stroke:none;" />
 <path d="  M 16,9  L 15,9  L 15,13  L 16,13  Z  " style="fill:rgb(135, 88, 46); fill-opacity:1.000; stroke:none;" />
 <path d="  M 1,2  L 0,2  L 0,3  L 1,3  Z  " style="fill:rgb(120, 73, 31); fill-opacity:1.000; stroke:none;" />
 <path d="  M 0,7  L 0,9  L 1,9  L 1,7  Z  " style="fill:rgb(120, 73, 31); fill-opacity:1.000; stroke:none;" />
 <path d="  M 1,14  L 1,13  L 0,13  L 0,14  Z  " style="fill:rgb(120, 73, 31); fill-opacity:1.000; stroke:none;" />
 <path d="  M 3,0  L 2,0  L 2,1  L 3,1  Z  " style="fill:rgb(120, 73, 31); fill-opacity:1.000; stroke:none;" />
 <path d="  M 2,4  L 3,4  L 3,2  L 2,2  Z  " style="fill:rgb(120, 73, 31); fill-opacity:1.000; stroke:none;" />
 <path d="  M 5,13  L 4,13  L 4,9  L 5,9  L 5,8  L 4,8  L 4,7  L 3,7  L 3,6  L 2,6  L 2,8  L 3,8  L 3,14  L 5,14  Z  " style="fill:rgb(120, 73, 31); fill-opacity:1.000; stroke:none;" />
 <path d="  M 3,15  L 2,15  L 2,16  L 3,16  Z  " style="fill:rgb(120, 73, 31); fill-opacity:1.000; stroke:none;" />
 <path d="  M 3,4  L 3,5  L 4,5  L 4,6  L 5,6  L 5,4  Z  " style="fill:rgb(120, 73, 31); fill-opacity:1.000; stroke:none;" />
 <path d="  M 4,3  L 5,3  L 5,2  L 4,2  Z  " style="fill:rgb(120, 73, 31); fill-opacity:1.000; stroke:none;" />
 <path d="  M 9,2  L 7,2  L 7,5  L 6,5  L 6,6  L 8,6  L 8,3  L 9,3  Z  " style="fill:rgb(120, 73, 31); fill-opacity:1.000; stroke:none;" />
 <path d="  M 6,8  L 6,11  L 7,11  L 7,12  L 8,12  L 8,14  L 9,14  L 9,11  L 8,11  L 8,10  L 9,10  L 9,9  L 10,9  L 10,6  L 9,6  L 9,8  L 8,8  L 8,9  L 7,9  L 7,8  Z  " style="fill:rgb(120, 73, 31); fill-opacity:1.000; stroke:none;" />
 <path d="  M 9,0  L 7,0  L 7,1  L 9,1  Z  " style="fill:rgb(120, 73, 31); fill-opacity:1.000; stroke:none;" />
 <path d="  M 7,15  L 7,16  L 9,16  L 9,15  Z  " style="fill:rgb(120, 73, 31); fill-opacity:1.000; stroke:none;" />
 <path d="  M 14,5  L 13,5  L 13,4  L 12,4  L 12,5  L 11,5  L 11,7  L 12,7  L 12,6  L 13,6  L 13,10  L 14,10  Z  " style="fill:rgb(120, 73, 31); fill-opacity:1.000; stroke:none;" />
 <path d="  M 11,14  L 13,14  L 13,10  L 12,10  L 12,13  L 11,13  Z  " style="fill:rgb(120, 73, 31); fill-opacity:1.000; stroke:none;" />
 <path d="  M 13,0  L 13,1  L 14,1  L 14,0  Z  " style="fill:rgb(120, 73, 31); fill-opacity:1.000; stroke:none;" />
 <path d="  M 13,2  L 13,3  L 14,3  L 14,2  Z  " style="fill:rgb(120, 73, 31); fill-opacity:1.000; stroke:none;" />
 <path d="  M 13,15  L 13,16  L 14,16  L 14,15  Z  " style="fill:rgb(120, 73, 31); fill-opacity:1.000; stroke:none;" />
 <path d="  M 16,2  L 15,2  L 15,3  L 16,3  Z  " style="fill:rgb(120, 73, 31); fill-opacity:1.000; stroke:none;" />
 <path d="  M 15,9  L 16,9  L 16,7  L 15,7  Z  " style="fill:rgb(120, 73, 31); fill-opacity:1.000; stroke:none;" />
 <path d="  M 15,14  L 16,14  L 16,13  L 15,13  Z  " style="fill:rgb(120, 73, 31); fill-opacity:1.000; stroke:none;" />
 <path d="  M 2,2  L 2,1  L 1,1  L 1,2  Z  " style="fill:rgb(92, 52, 17); fill-opacity:1.000; stroke:none;" />
 <path d="  M 2,3  L 1,3  L 1,6  L 2,6  Z  " style="fill:rgb(92, 52, 17); fill-opacity:1.000; stroke:none;" />
 <path d="  M 2,7  L 1,7  L 1,8  L 2,8  Z  " style="fill:rgb(92, 52, 17); fill-opacity:1.000; stroke:none;" />
 <path d="  M 1,12  L 2,12  L 2,10  L 1,10  Z  " style="fill:rgb(92, 52, 17); fill-opacity:1.000; stroke:none;" />
 <path d="  M 3,15  L 4,15  L 4,14  L 3,14  Z  " style="fill:rgb(92, 52, 17); fill-opacity:1.000; stroke:none;" />
 <path d="  M 6,2  L 6,1  L 4,1  L 4,2  Z  " style="fill:rgb(92, 52, 17); fill-opacity:1.000; stroke:none;" />
 <path d="  M 5,8  L 6,8  L 6,3  L 5,3  Z  " style="fill:rgb(92, 52, 17); fill-opacity:1.000; stroke:none;" />
 <path d="  M 5,12  L 6,12  L 6,9  L 5,9  Z  " style="fill:rgb(92, 52, 17); fill-opacity:1.000; stroke:none;" />
 <path d="  M 8,14  L 6,14  L 6,15  L 8,15  Z  " style="fill:rgb(92, 52, 17); fill-opacity:1.000; stroke:none;" />
 <path d="  M 9,2  L 9,1  L 8,1  L 8,2  Z  " style="fill:rgb(92, 52, 17); fill-opacity:1.000; stroke:none;" />
 <path d="  M 11,2  L 10,2  L 10,3  L 11,3  Z  " style="fill:rgb(92, 52, 17); fill-opacity:1.000; stroke:none;" />
 <path d="  M 10,12  L 11,12  L 11,5  L 10,5  Z  " style="fill:rgb(92, 52, 17); fill-opacity:1.000; stroke:none;" />
 <path d="  M 10,14  L 11,14  L 11,13  L 10,13  Z  " style="fill:rgb(92, 52, 17); fill-opacity:1.000; stroke:none;" />
 <path d="  M 14,2  L 14,1  L 12,1  L 12,2  Z  " style="fill:rgb(92, 52, 17); fill-opacity:1.000; stroke:none;" />
 <path d="  M 13,15  L 13,14  L 12,14  L 12,15  Z  " style="fill:rgb(92, 52, 17); fill-opacity:1.000; stroke:none;" />
 <path d="  M 15,3  L 14,3  L 14,6  L 15,6  Z  " style="fill:rgb(92, 52, 17); fill-opacity:1.000; stroke:none;" />
 <path d="  M 14,12  L 15,12  L 15,10  L 14,10  Z  " style="fill:rgb(92, 52, 17); fill-opacity:1.000; stroke:none;" />
 <path d="  M 1,2  L 1,3  L 2,3  L 2,2  Z  " style="fill:rgb(81, 43, 10); fill-opacity:1.000; stroke:none;" />
 <path d="  M 2,7  L 2,6  L 1,6  L 1,7  Z  " style="fill:rgb(81, 43, 10); fill-opacity:1.000; stroke:none;" />
 <path d="  M 1,10  L 2,10  L 2,8  L 1,8  Z  " style="fill:rgb(81, 43, 10); fill-opacity:1.000; stroke:none;" />
 <path d="  M 1,12  L 1,15  L 3,15  L 3,14  L 2,14  L 2,12  Z  " style="fill:rgb(81, 43, 10); fill-opacity:1.000; stroke:none;" />
 <path d="  M 4,2  L 4,1  L 2,1  L 2,2  Z  " style="fill:rgb(81, 43, 10); fill-opacity:1.000; stroke:none;" />
 <path d="  M 6,15  L 6,12  L 5,12  L 5,14  L 4,14  L 4,15  Z  " style="fill:rgb(81, 43, 10); fill-opacity:1.000; stroke:none;" />
 <path d="  M 5,3  L 6,3  L 6,2  L 5,2  Z  " style="fill:rgb(81, 43, 10); fill-opacity:1.000; stroke:none;" />
 <path d="  M 5,8  L 5,9  L 6,9  L 6,8  Z  " style="fill:rgb(81, 43, 10); fill-opacity:1.000; stroke:none;" />
 <path d="  M 6,1  L 6,2  L 8,2  L 8,1  Z  " style="fill:rgb(81, 43, 10); fill-opacity:1.000; stroke:none;" />
 <path d="  M 8,14  L 8,15  L 12,15  L 12,14  Z  " style="fill:rgb(81, 43, 10); fill-opacity:1.000; stroke:none;" />
 <path d="  M 9,1  L 9,2  L 12,2  L 12,1  Z  " style="fill:rgb(81, 43, 10); fill-opacity:1.000; stroke:none;" />
 <path d="  M 11,3  L 10,3  L 10,5  L 11,5  Z  " style="fill:rgb(81, 43, 10); fill-opacity:1.000; stroke:none;" />
 <path d="  M 11,13  L 11,12  L 10,12  L 10,13  Z  " style="fill:rgb(81, 43, 10); fill-opacity:1.000; stroke:none;" />
 <path d="  M 13,15  L 15,15  L 15,12  L 14,12  L 14,14  L 13,14  Z  " style="fill:rgb(81, 43, 10); fill-opacity:1.000; stroke:none;" />
 <path d="  M 15,1  L 14,1  L 14,3  L 15,3  Z  " style="fill:rgb(81, 43, 10); fill-opacity:1.000; stroke:none;" />
 <path d="  M 15,6  L 14,6  L 14,10  L 15,10  Z  " style="fill:rgb(81, 43, 10); fill-opacity:1.000; stroke:none;" />
</svg>
