<?xml version="1.0" encoding="UTF-8" standalone="no"?>
<!DOCTYPE svg PUBLIC "-//W3C//DTD SVG 1.1//EN" 
  "http://www.w3.org/Graphics/SVG/1.1/DTD/svg11.dtd">
<svg width="16" height="16"
	 xmlns="http://www.w3.org/2000/svg" version="1.1">
 <path d="  M 5,1  L 5,0  L 0,0  L 0,1  Z  " style="fill:rgb(217, 123, 48); fill-opacity:1.000; stroke:none;" />
 <path d="  M 0,3  L 0,6  L 1,6  L 1,4  L 5,4  L 5,3  Z  " style="fill:rgb(217, 123, 48); fill-opacity:1.000; stroke:none;" />
 <path d="  M 6,1  L 7,1  L 7,0  L 6,0  Z  " style="fill:rgb(217, 123, 48); fill-opacity:1.000; stroke:none;" />
 <path d="  M 0,1  L 0,2  L 1,2  L 1,1  Z  " style="fill:rgb(203, 110, 36); fill-opacity:1.000; stroke:none;" />
 <path d="  M 1,7  L 0,7  L 0,8  L 1,8  Z  " style="fill:rgb(203, 110, 36); fill-opacity:1.000; stroke:none;" />
 <path d="  M 1,14  L 1,13  L 0,13  L 0,15  L 2,15  L 2,14  Z  " style="fill:rgb(203, 110, 36); fill-opacity:1.000; stroke:none;" />
 <path d="  M 3,5  L 3,4  L 1,4  L 1,6  L 2,6  L 2,5  Z  " style="fill:rgb(203, 110, 36); fill-opacity:1.000; stroke:none;" />
 <path d="  M 1,11  L 1,13  L 2,13  L 2,11  Z  " style="fill:rgb(203, 110, 36); fill-opacity:1.000; stroke:none;" />
 <path d="  M 5,13  L 5,12  L 6,12  L 6,11  L 5,11  L 5,10  L 4,10  L 4,12  L 3,12  L 3,13  Z  " style="fill:rgb(203, 110, 36); fill-opacity:1.000; stroke:none;" />
 <path d="  M 4,4  L 4,5  L 5,5  L 5,4  Z  " style="fill:rgb(203, 110, 36); fill-opacity:1.000; stroke:none;" />
 <path d="  M 5,7  L 5,6  L 4,6  L 4,7  Z  " style="fill:rgb(203, 110, 36); fill-opacity:1.000; stroke:none;" />
 <path d="  M 5,15  L 5,14  L 4,14  L 4,15  Z  " style="fill:rgb(203, 110, 36); fill-opacity:1.000; stroke:none;" />
 <path d="  M 6,8  L 6,9  L 7,9  L 7,7  L 5,7  L 5,8  Z  " style="fill:rgb(203, 110, 36); fill-opacity:1.000; stroke:none;" />
 <path d="  M 8,14  L 6,14  L 6,15  L 8,15  Z  " style="fill:rgb(203, 110, 36); fill-opacity:1.000; stroke:none;" />
 <path d="  M 9,11  L 9,10  L 8,10  L 8,11  Z  " style="fill:rgb(203, 110, 36); fill-opacity:1.000; stroke:none;" />
 <path d="  M 11,5  L 11,4  L 9,4  L 9,5  Z  " style="fill:rgb(203, 110, 36); fill-opacity:1.000; stroke:none;" />
 <path d="  M 10,7  L 10,8  L 11,8  L 11,7  Z  " style="fill:rgb(203, 110, 36); fill-opacity:1.000; stroke:none;" />
 <path d="  M 11,12  L 11,11  L 10,11  L 10,12  Z  " style="fill:rgb(203, 110, 36); fill-opacity:1.000; stroke:none;" />
 <path d="  M 13,8  L 13,7  L 12,7  L 12,8  Z  " style="fill:rgb(203, 110, 36); fill-opacity:1.000; stroke:none;" />
 <path d="  M 13,15  L 15,15  L 15,13  L 14,13  L 14,14  L 13,14  Z  " style="fill:rgb(203, 110, 36); fill-opacity:1.000; stroke:none;" />
 <path d="  M 14,4  L 15,4  L 15,3  L 14,3  Z  " style="fill:rgb(203, 110, 36); fill-opacity:1.000; stroke:none;" />
 <path d="  M 14,7  L 15,7  L 15,5  L 14,5  Z  " style="fill:rgb(203, 110, 36); fill-opacity:1.000; stroke:none;" />
 <path d="  M 15,11  L 14,11  L 14,12  L 15,12  Z  " style="fill:rgb(203, 110, 36); fill-opacity:1.000; stroke:none;" />
 <path d="  M 16,1  L 16,0  L 15,0  L 15,1  Z  " style="fill:rgb(203, 110, 36); fill-opacity:1.000; stroke:none;" />
 <path d="  M 0,3  L 2,3  L 2,2  L 0,2  Z  " style="fill:rgb(178, 96, 31); fill-opacity:1.000; stroke:none;" />
 <path d="  M 0,11  L 0,12  L 1,12  L 1,11  Z  " style="fill:rgb(178, 96, 31); fill-opacity:1.000; stroke:none;" />
 <path d="  M 3,9  L 2,9  L 2,8  L 1,8  L 1,10  L 2,10  L 2,11  L 3,11  Z  " style="fill:rgb(178, 96, 31); fill-opacity:1.000; stroke:none;" />
 <path d="  M 3,14  L 2,14  L 2,15  L 3,15  Z  " style="fill:rgb(178, 96, 31); fill-opacity:1.000; stroke:none;" />
 <path d="  M 3,2  L 8,2  L 8,1  L 3,1  Z  " style="fill:rgb(178, 96, 31); fill-opacity:1.000; stroke:none;" />
 <path d="  M 3,6  L 4,6  L 4,5  L 3,5  Z  " style="fill:rgb(178, 96, 31); fill-opacity:1.000; stroke:none;" />
 <path d="  M 5,8  L 5,7  L 3,7  L 3,8  Z  " style="fill:rgb(178, 96, 31); fill-opacity:1.000; stroke:none;" />
 <path d="  M 5,10  L 5,11  L 6,11  L 6,10  Z  " style="fill:rgb(178, 96, 31); fill-opacity:1.000; stroke:none;" />
 <path d="  M 6,4  L 7,4  L 7,3  L 6,3  Z  " style="fill:rgb(178, 96, 31); fill-opacity:1.000; stroke:none;" />
 <path d="  M 8,5  L 9,5  L 9,4  L 8,4  Z  " style="fill:rgb(178, 96, 31); fill-opacity:1.000; stroke:none;" />
 <path d="  M 8,6  L 8,7  L 9,7  L 9,8  L 10,8  L 10,6  Z  " style="fill:rgb(178, 96, 31); fill-opacity:1.000; stroke:none;" />
 <path d="  M 8,12  L 9,12  L 9,11  L 8,11  Z  " style="fill:rgb(178, 96, 31); fill-opacity:1.000; stroke:none;" />
 <path d="  M 10,1  L 10,2  L 11,2  L 11,1  Z  " style="fill:rgb(178, 96, 31); fill-opacity:1.000; stroke:none;" />
 <path d="  M 10,9  L 10,11  L 11,11  L 11,10  L 12,10  L 12,9  Z  " style="fill:rgb(178, 96, 31); fill-opacity:1.000; stroke:none;" />
 <path d="  M 10,13  L 10,15  L 11,15  L 11,14  L 13,14  L 13,13  Z  " style="fill:rgb(178, 96, 31); fill-opacity:1.000; stroke:none;" />
 <path d="  M 11,4  L 11,5  L 12,5  L 12,4  Z  " style="fill:rgb(178, 96, 31); fill-opacity:1.000; stroke:none;" />
 <path d="  M 13,4  L 13,6  L 14,6  L 14,4  Z  " style="fill:rgb(178, 96, 31); fill-opacity:1.000; stroke:none;" />
 <path d="  M 15,9  L 14,9  L 14,10  L 13,10  L 13,11  L 15,11  Z  " style="fill:rgb(178, 96, 31); fill-opacity:1.000; stroke:none;" />
 <path d="  M 16,2  L 16,1  L 14,1  L 14,2  Z  " style="fill:rgb(178, 96, 31); fill-opacity:1.000; stroke:none;" />
 <path d="  M 15,8  L 15,7  L 14,7  L 14,8  Z  " style="fill:rgb(178, 96, 31); fill-opacity:1.000; stroke:none;" />
 <path d="  M 0,6  L 0,7  L 1,7  L 1,6  Z  " style="fill:rgb(210, 117, 43); fill-opacity:1.000; stroke:none;" />
 <path d="  M 0,11  L 1,11  L 1,8  L 0,8  Z  " style="fill:rgb(210, 117, 43); fill-opacity:1.000; stroke:none;" />
 <path d="  M 1,13  L 1,12  L 0,12  L 0,13  Z  " style="fill:rgb(210, 117, 43); fill-opacity:1.000; stroke:none;" />
 <path d="  M 5,0  L 5,1  L 6,1  L 6,0  Z  " style="fill:rgb(210, 117, 43); fill-opacity:1.000; stroke:none;" />
 <path d="  M 5,3  L 5,4  L 6,4  L 6,3  Z  " style="fill:rgb(210, 117, 43); fill-opacity:1.000; stroke:none;" />
 <path d="  M 15,1  L 15,0  L 7,0  L 7,1  Z  " style="fill:rgb(210, 117, 43); fill-opacity:1.000; stroke:none;" />
 <path d="  M 7,3  L 7,4  L 14,4  L 14,3  Z  " style="fill:rgb(210, 117, 43); fill-opacity:1.000; stroke:none;" />
 <path d="  M 1,15  L 0,15  L 0,16  L 1,16  Z  " style="fill:rgb(159, 78, 11); fill-opacity:1.000; stroke:none;" />
 <path d="  M 6,16  L 6,15  L 2,15  L 2,16  Z  " style="fill:rgb(159, 78, 11); fill-opacity:1.000; stroke:none;" />
 <path d="  M 8,15  L 8,16  L 16,16  L 16,15  Z  " style="fill:rgb(159, 78, 11); fill-opacity:1.000; stroke:none;" />
 <path d="  M 16,2  L 9,2  L 9,3  L 15,3  L 15,4  L 16,4  Z  " style="fill:rgb(159, 78, 11); fill-opacity:1.000; stroke:none;" />
 <path d="  M 16,5  L 15,5  L 15,13  L 16,13  Z  " style="fill:rgb(159, 78, 11); fill-opacity:1.000; stroke:none;" />
 <path d="  M 3,1  L 1,1  L 1,2  L 3,2  Z  " style="fill:rgb(192, 104, 34); fill-opacity:1.000; stroke:none;" />
 <path d="  M 3,13  L 3,12  L 4,12  L 4,10  L 6,10  L 6,12  L 5,12  L 5,13  Z  M 14,8  L 14,6  L 13,6  L 13,4  L 12,4  L 12,5  L 8,5  L 8,4  L 5,4  L 5,5  L 4,5  L 4,6  L 3,6  L 3,5  L 2,5  L 2,6  L 1,6  L 1,8  L 2,8  L 2,9  L 3,9  L 3,11  L 2,11  L 2,13  L 1,13  L 1,14  L 5,14  L 5,15  L 6,15  L 6,14  L 8,14  L 8,15  L 10,15  L 10,13  L 13,13  L 13,14  L 14,14  L 14,13  L 15,13  L 15,12  L 14,12  L 14,11  L 13,11  L 13,10  L 14,10  L 14,9  L 15,9  L 15,8  Z  M 8,10  L 9,10  L 9,12  L 8,12  Z  M 12,8  L 12,7  L 13,7  L 13,8  Z  M 11,7  L 11,8  L 9,8  L 9,7  L 8,7  L 8,6  L 10,6  L 10,7  Z  M 11,12  L 10,12  L 10,9  L 12,9  L 12,10  L 11,10  Z  M 7,9  L 6,9  L 6,8  L 3,8  L 3,7  L 4,7  L 4,6  L 5,6  L 5,7  L 7,7  Z  " style="fill:rgb(192, 104, 34); fill-opacity:1.000; stroke:none;" />
 <path d="  M 1,11  L 2,11  L 2,10  L 1,10  Z  " style="fill:rgb(192, 104, 34); fill-opacity:1.000; stroke:none;" />
 <path d="  M 4,5  L 4,4  L 3,4  L 3,5  Z  " style="fill:rgb(192, 104, 34); fill-opacity:1.000; stroke:none;" />
 <path d="  M 8,1  L 8,2  L 10,2  L 10,1  Z  " style="fill:rgb(192, 104, 34); fill-opacity:1.000; stroke:none;" />
 <path d="  M 14,2  L 14,1  L 11,1  L 11,2  Z  " style="fill:rgb(192, 104, 34); fill-opacity:1.000; stroke:none;" />
 <path d="  M 13,15  L 13,14  L 12,14  L 12,15  Z  " style="fill:rgb(192, 104, 34); fill-opacity:1.000; stroke:none;" />
 <path d="  M 15,5  L 15,4  L 14,4  L 14,5  Z  " style="fill:rgb(192, 104, 34); fill-opacity:1.000; stroke:none;" />
 <path d="  M 1,16  L 2,16  L 2,15  L 1,15  Z  " style="fill:rgb(172, 87, 18); fill-opacity:1.000; stroke:none;" />
 <path d="  M 9,3  L 9,2  L 2,2  L 2,3  Z  " style="fill:rgb(172, 87, 18); fill-opacity:1.000; stroke:none;" />
 <path d="  M 3,15  L 4,15  L 4,14  L 3,14  Z  " style="fill:rgb(172, 87, 18); fill-opacity:1.000; stroke:none;" />
 <path d="  M 6,15  L 6,16  L 8,16  L 8,15  Z  " style="fill:rgb(172, 87, 18); fill-opacity:1.000; stroke:none;" />
 <path d="  M 11,14  L 11,15  L 12,15  L 12,14  Z  " style="fill:rgb(172, 87, 18); fill-opacity:1.000; stroke:none;" />
 <path d="  M 16,5  L 16,4  L 15,4  L 15,5  Z  " style="fill:rgb(172, 87, 18); fill-opacity:1.000; stroke:none;" />
 <path d="  M 16,13  L 15,13  L 15,15  L 16,15  Z  " style="fill:rgb(172, 87, 18); fill-opacity:1.000; stroke:none;" />
</svg>
