<?xml version="1.0" encoding="UTF-8" standalone="no"?>
<!DOCTYPE svg PUBLIC "-//W3C//DTD SVG 1.1//EN" 
  "http://www.w3.org/Graphics/SVG/1.1/DTD/svg11.dtd">
<svg width="16" height="16"
	 xmlns="http://www.w3.org/2000/svg" version="1.1">
 <path d="  M 0,0  L 0,8  L 8,8  L 8,0  Z  M 1,1  L 7,1  L 7,7  L 1,7  Z  " style="fill:rgb(0, 0, 0); fill-opacity:1.000; stroke:none;" />
 <path d="  M 1,9  L 1,10  L 6,10  L 6,9  Z  " style="fill:rgb(0, 0, 0); fill-opacity:1.000; stroke:none;" />
 <path d="  M 6,15  L 6,14  L 1,14  L 1,15  Z  " style="fill:rgb(0, 0, 0); fill-opacity:1.000; stroke:none;" />
 <path d="  M 4,12  L 6,12  L 6,11  L 4,11  Z  " style="fill:rgb(0, 0, 0); fill-opacity:1.000; stroke:none;" />
 <path d="  M 6,11  L 7,11  L 7,10  L 6,10  Z  " style="fill:rgb(0, 0, 0); fill-opacity:1.000; stroke:none;" />
 <path d="  M 7,12  L 6,12  L 6,14  L 7,14  Z  " style="fill:rgb(0, 0, 0); fill-opacity:1.000; stroke:none;" />
 <path d="  M 14,9  L 14,10  L 15,10  L 15,15  L 9,15  L 9,10  L 10,10  L 10,9  Z  M 8,8  L 8,16  L 16,16  L 16,8  Z  " style="fill:rgb(0, 0, 0); fill-opacity:1.000; stroke:none;" />
 <path d="  M 15,1  L 9,1  L 9,7  L 10,7  L 10,2  L 12,2  L 12,5  L 13,5  L 13,2  L 14,2  L 14,7  L 15,7  Z  " style="fill:rgb(0, 0, 0); fill-opacity:1.000; stroke:none;" />
 <path d="  M 1,15  L 1,9  L 7,9  L 7,15  Z  M 8,16  L 8,8  L 0,8  L 0,16  Z  " style="fill:rgb(255, 255, 255); fill-opacity:1.000; stroke:none;" />
 <path d="  M 1,7  L 2,7  L 2,3  L 3,3  L 3,2  L 2,2  L 2,1  L 1,1  Z  " style="fill:rgb(255, 255, 255); fill-opacity:1.000; stroke:none;" />
 <path d="  M 3,2  L 6,2  L 6,1  L 3,1  Z  " style="fill:rgb(255, 255, 255); fill-opacity:1.000; stroke:none;" />
 <path d="  M 6,7  L 7,7  L 7,2  L 6,2  Z  " style="fill:rgb(255, 255, 255); fill-opacity:1.000; stroke:none;" />
 <path d="  M 8,8  L 16,8  L 16,0  L 8,0  Z  M 9,1  L 15,1  L 15,7  L 9,7  Z  " style="fill:rgb(255, 255, 255); fill-opacity:1.000; stroke:none;" />
 <path d="  M 9,11  L 10,11  L 10,10  L 9,10  Z  " style="fill:rgb(255, 255, 255); fill-opacity:1.000; stroke:none;" />
 <path d="  M 10,13  L 9,13  L 9,14  L 10,14  Z  " style="fill:rgb(255, 255, 255); fill-opacity:1.000; stroke:none;" />
 <path d="  M 10,9  L 10,10  L 14,10  L 14,9  Z  " style="fill:rgb(255, 255, 255); fill-opacity:1.000; stroke:none;" />
 <path d="  M 12,11  L 10,11  L 10,12  L 12,12  Z  " style="fill:rgb(255, 255, 255); fill-opacity:1.000; stroke:none;" />
 <path d="  M 14,15  L 14,14  L 10,14  L 10,15  Z  " style="fill:rgb(255, 255, 255); fill-opacity:1.000; stroke:none;" />
 <path d="  M 12,12  L 12,13  L 14,13  L 14,12  Z  " style="fill:rgb(255, 255, 255); fill-opacity:1.000; stroke:none;" />
 <path d="  M 14,10  L 14,11  L 15,11  L 15,10  Z  " style="fill:rgb(255, 255, 255); fill-opacity:1.000; stroke:none;" />
 <path d="  M 14,14  L 15,14  L 15,13  L 14,13  Z  " style="fill:rgb(255, 255, 255); fill-opacity:1.000; stroke:none;" />
 <path d="  M 1,11  L 2,11  L 2,10  L 1,10  Z  " style="fill:rgb(0, 0, 255); fill-opacity:1.000; stroke:none;" />
 <path d="  M 1,12  L 1,14  L 2,14  L 2,12  Z  " style="fill:rgb(0, 0, 255); fill-opacity:1.000; stroke:none;" />
 <path d="  M 1,11  L 1,12  L 2,12  L 2,11  Z  " style="fill:rgb(1, 0, 255); fill-opacity:1.000; stroke:none;" />
 <path d="  M 2,2  L 3,2  L 3,1  L 2,1  Z  " style="fill:rgb(255, 0, 0); fill-opacity:1.000; stroke:none;" />
 <path d="  M 6,1  L 6,2  L 7,2  L 7,1  Z  " style="fill:rgb(255, 0, 0); fill-opacity:1.000; stroke:none;" />
 <path d="  M 2,3  L 2,4  L 6,4  L 6,3  Z  " style="fill:rgb(168, 0, 0); fill-opacity:1.000; stroke:none;" />
 <path d="  M 2,4  L 2,5  L 6,5  L 6,4  Z  " style="fill:rgb(124, 0, 0); fill-opacity:1.000; stroke:none;" />
 <path d="  M 6,6  L 6,5  L 2,5  L 2,6  Z  " style="fill:rgb(80, 0, 0); fill-opacity:1.000; stroke:none;" />
 <path d="  M 2,6  L 2,7  L 3,7  L 3,6  Z  " style="fill:rgb(37, 0, 0); fill-opacity:1.000; stroke:none;" />
 <path d="  M 6,7  L 6,6  L 5,6  L 5,7  Z  " style="fill:rgb(37, 0, 0); fill-opacity:1.000; stroke:none;" />
 <path d="  M 3,10  L 2,10  L 2,11  L 3,11  Z  " style="fill:rgb(43, 43, 255); fill-opacity:1.000; stroke:none;" />
 <path d="  M 3,13  L 3,11  L 2,11  L 2,13  Z  " style="fill:rgb(43, 42, 255); fill-opacity:1.000; stroke:none;" />
 <path d="  M 2,14  L 3,14  L 3,13  L 2,13  Z  " style="fill:rgb(42, 42, 255); fill-opacity:1.000; stroke:none;" />
 <path d="  M 6,3  L 6,2  L 3,2  L 3,3  Z  " style="fill:rgb(212, 0, 0); fill-opacity:1.000; stroke:none;" />
 <path d="  M 3,6  L 3,7  L 5,7  L 5,6  Z  " style="fill:rgb(36, 0, 0); fill-opacity:1.000; stroke:none;" />
 <path d="  M 3,10  L 3,11  L 4,11  L 4,10  Z  " style="fill:rgb(85, 85, 255); fill-opacity:1.000; stroke:none;" />
 <path d="  M 4,12  L 3,12  L 3,13  L 4,13  Z  " style="fill:rgb(85, 85, 255); fill-opacity:1.000; stroke:none;" />
 <path d="  M 3,12  L 4,12  L 4,11  L 3,11  Z  " style="fill:rgb(85, 86, 255); fill-opacity:1.000; stroke:none;" />
 <path d="  M 3,14  L 4,14  L 4,13  L 3,13  Z  " style="fill:rgb(84, 85, 255); fill-opacity:1.000; stroke:none;" />
 <path d="  M 4,11  L 5,11  L 5,10  L 4,10  Z  " style="fill:rgb(128, 128, 255); fill-opacity:1.000; stroke:none;" />
 <path d="  M 4,13  L 5,13  L 5,12  L 4,12  Z  " style="fill:rgb(128, 128, 255); fill-opacity:1.000; stroke:none;" />
 <path d="  M 5,13  L 4,13  L 4,14  L 5,14  Z  " style="fill:rgb(128, 127, 255); fill-opacity:1.000; stroke:none;" />
 <path d="  M 5,10  L 5,11  L 6,11  L 6,10  Z  " style="fill:rgb(171, 171, 255); fill-opacity:1.000; stroke:none;" />
 <path d="  M 5,14  L 6,14  L 6,12  L 5,12  Z  " style="fill:rgb(170, 170, 255); fill-opacity:1.000; stroke:none;" />
 <path d="  M 7,9  L 6,9  L 6,10  L 7,10  Z  " style="fill:rgb(213, 213, 255); fill-opacity:1.000; stroke:none;" />
 <path d="  M 7,11  L 6,11  L 6,12  L 7,12  Z  " style="fill:rgb(213, 213, 255); fill-opacity:1.000; stroke:none;" />
 <path d="  M 7,15  L 7,14  L 6,14  L 6,15  Z  " style="fill:rgb(212, 213, 255); fill-opacity:1.000; stroke:none;" />
 <path d="  M 10,12  L 10,11  L 9,11  L 9,12  Z  " style="fill:rgb(83, 83, 0); fill-opacity:1.000; stroke:none;" />
 <path d="  M 15,12  L 15,11  L 13,11  L 13,12  Z  " style="fill:rgb(83, 83, 0); fill-opacity:1.000; stroke:none;" />
 <path d="  M 9,12  L 9,13  L 12,13  L 12,12  Z  " style="fill:rgb(127, 127, 0); fill-opacity:1.000; stroke:none;" />
 <path d="  M 15,13  L 15,12  L 14,12  L 14,13  Z  " style="fill:rgb(127, 127, 0); fill-opacity:1.000; stroke:none;" />
 <path d="  M 10,15  L 10,14  L 9,14  L 9,15  Z  " style="fill:rgb(215, 215, 0); fill-opacity:1.000; stroke:none;" />
 <path d="  M 15,14  L 14,14  L 14,15  L 15,15  Z  " style="fill:rgb(215, 215, 0); fill-opacity:1.000; stroke:none;" />
 <path d="  M 11,2  L 10,2  L 10,3  L 11,3  Z  " style="fill:rgb(212, 255, 212); fill-opacity:1.000; stroke:none;" />
 <path d="  M 11,3  L 10,3  L 10,4  L 11,4  Z  " style="fill:rgb(213, 255, 212); fill-opacity:1.000; stroke:none;" />
 <path d="  M 11,5  L 11,4  L 10,4  L 10,5  Z  " style="fill:rgb(214, 255, 213); fill-opacity:1.000; stroke:none;" />
 <path d="  M 11,5  L 10,5  L 10,7  L 11,7  Z  " style="fill:rgb(214, 255, 214); fill-opacity:1.000; stroke:none;" />
 <path d="  M 10,10  L 10,11  L 14,11  L 14,10  Z  " style="fill:rgb(39, 39, 0); fill-opacity:1.000; stroke:none;" />
 <path d="  M 10,13  L 10,14  L 14,14  L 14,13  Z  " style="fill:rgb(171, 171, 0); fill-opacity:1.000; stroke:none;" />
 <path d="  M 12,2  L 11,2  L 11,4  L 12,4  Z  " style="fill:rgb(169, 255, 170); fill-opacity:1.000; stroke:none;" />
 <path d="  M 11,4  L 11,5  L 12,5  L 12,4  Z  " style="fill:rgb(170, 255, 171); fill-opacity:1.000; stroke:none;" />
 <path d="  M 12,5  L 11,5  L 11,6  L 12,6  Z  " style="fill:rgb(171, 255, 171); fill-opacity:1.000; stroke:none;" />
 <path d="  M 12,6  L 11,6  L 11,7  L 12,7  Z  " style="fill:rgb(171, 255, 172); fill-opacity:1.000; stroke:none;" />
 <path d="  M 13,6  L 13,5  L 12,5  L 12,6  Z  " style="fill:rgb(128, 255, 128); fill-opacity:1.000; stroke:none;" />
 <path d="  M 13,6  L 12,6  L 12,7  L 13,7  Z  " style="fill:rgb(129, 255, 128); fill-opacity:1.000; stroke:none;" />
 <path d="  M 13,11  L 12,11  L 12,12  L 13,12  Z  " style="fill:rgb(83, 84, 0); fill-opacity:1.000; stroke:none;" />
 <path d="  M 14,4  L 14,2  L 13,2  L 13,4  Z  " style="fill:rgb(84, 255, 84); fill-opacity:1.000; stroke:none;" />
 <path d="  M 13,4  L 13,5  L 14,5  L 14,4  Z  " style="fill:rgb(85, 255, 85); fill-opacity:1.000; stroke:none;" />
 <path d="  M 13,5  L 13,6  L 14,6  L 14,5  Z  " style="fill:rgb(86, 255, 85); fill-opacity:1.000; stroke:none;" />
 <path d="  M 14,6  L 13,6  L 13,7  L 14,7  Z  " style="fill:rgb(86, 255, 86); fill-opacity:1.000; stroke:none;" />
</svg>
