<?xml version="1.0" encoding="UTF-8" standalone="no"?>
<!DOCTYPE svg PUBLIC "-//W3C//DTD SVG 1.1//EN" 
  "http://www.w3.org/Graphics/SVG/1.1/DTD/svg11.dtd">
<svg width="16" height="16"
	 xmlns="http://www.w3.org/2000/svg" version="1.1">
 <path d="  M 0,0  L 0,16  L 16,16  L 16,0  Z  M 7,7  L 8,7  L 8,8  L 9,8  L 9,7  L 10,7  L 10,6  L 12,6  L 12,8  L 10,8  L 10,9  L 9,9  L 9,12  L 8,12  L 8,13  L 7,13  L 7,11  L 8,11  L 8,9  L 7,9  L 7,8  L 6,8  L 6,4  L 7,4  Z  " style="fill:rgb(255, 255, 255); fill-opacity:0.004; stroke:none;" />
 <path d="  M 6,4  L 6,7  L 7,7  L 7,4  Z  " style="fill:rgb(61, 61, 61); fill-opacity:1.000; stroke:none;" />
 <path d="  M 8,8  L 8,7  L 7,7  L 7,8  Z  " style="fill:rgb(61, 61, 61); fill-opacity:1.000; stroke:none;" />
 <path d="  M 7,12  L 8,12  L 8,11  L 7,11  Z  " style="fill:rgb(61, 61, 61); fill-opacity:1.000; stroke:none;" />
 <path d="  M 9,8  L 8,8  L 8,11  L 9,11  Z  " style="fill:rgb(61, 61, 61); fill-opacity:1.000; stroke:none;" />
 <path d="  M 9,7  L 9,8  L 10,8  L 10,7  Z  " style="fill:rgb(61, 61, 61); fill-opacity:1.000; stroke:none;" />
 <path d="  M 12,7  L 12,6  L 10,6  L 10,7  Z  " style="fill:rgb(61, 61, 61); fill-opacity:1.000; stroke:none;" />
 <path d="  M 6,7  L 6,8  L 7,8  L 7,7  Z  " style="fill:rgb(155, 155, 155); fill-opacity:1.000; stroke:none;" />
 <path d="  M 7,8  L 7,9  L 8,9  L 8,8  Z  " style="fill:rgb(155, 155, 155); fill-opacity:1.000; stroke:none;" />
 <path d="  M 7,13  L 8,13  L 8,12  L 7,12  Z  " style="fill:rgb(155, 155, 155); fill-opacity:1.000; stroke:none;" />
 <path d="  M 8,12  L 9,12  L 9,11  L 8,11  Z  " style="fill:rgb(155, 155, 155); fill-opacity:1.000; stroke:none;" />
 <path d="  M 10,8  L 9,8  L 9,9  L 10,9  Z  " style="fill:rgb(155, 155, 155); fill-opacity:1.000; stroke:none;" />
 <path d="  M 12,8  L 12,7  L 10,7  L 10,8  Z  " style="fill:rgb(155, 155, 155); fill-opacity:1.000; stroke:none;" />
</svg>
