<?xml version="1.0" encoding="UTF-8" standalone="no"?>
<!DOCTYPE svg PUBLIC "-//W3C//DTD SVG 1.1//EN" 
  "http://www.w3.org/Graphics/SVG/1.1/DTD/svg11.dtd">
<svg width="16" height="16"
	 xmlns="http://www.w3.org/2000/svg" version="1.1">
 <path d="  M 0,3  L 0,4  L 16,4  L 16,3  Z  " style="fill:rgb(66, 115, 103); fill-opacity:1.000; stroke:none;" />
 <path d="  M 10,9  L 13,9  L 13,8  L 10,8  Z  " style="fill:rgb(66, 115, 103); fill-opacity:1.000; stroke:none;" />
 <path d="  M 13,7  L 13,8  L 14,8  L 14,7  Z  " style="fill:rgb(66, 115, 103); fill-opacity:1.000; stroke:none;" />
 <path d="  M 1,7  L 1,4  L 0,4  L 0,7  Z  " style="fill:rgb(47, 88, 78); fill-opacity:1.000; stroke:none;" />
 <path d="  M 10,8  L 4,8  L 4,9  L 10,9  Z  " style="fill:rgb(47, 88, 78); fill-opacity:1.000; stroke:none;" />
 <path d="  M 14,9  L 14,8  L 13,8  L 13,9  Z  " style="fill:rgb(47, 88, 78); fill-opacity:1.000; stroke:none;" />
 <path d="  M 15,7  L 16,7  L 16,4  L 15,4  Z  " style="fill:rgb(47, 88, 78); fill-opacity:1.000; stroke:none;" />
 <path d="  M 1,7  L 0,7  L 0,8  L 1,8  Z  " style="fill:rgb(24, 53, 62); fill-opacity:1.000; stroke:none;" />
 <path d="  M 1,6  L 2,6  L 2,5  L 1,5  Z  " style="fill:rgb(24, 53, 62); fill-opacity:1.000; stroke:none;" />
 <path d="  M 3,5  L 3,4  L 2,4  L 2,5  Z  " style="fill:rgb(24, 53, 62); fill-opacity:1.000; stroke:none;" />
 <path d="  M 3,7  L 2,7  L 2,8  L 3,8  Z  " style="fill:rgb(24, 53, 62); fill-opacity:1.000; stroke:none;" />
 <path d="  M 3,9  L 4,9  L 4,8  L 3,8  Z  " style="fill:rgb(24, 53, 62); fill-opacity:1.000; stroke:none;" />
 <path d="  M 13,4  L 13,5  L 14,5  L 14,4  Z  " style="fill:rgb(24, 53, 62); fill-opacity:1.000; stroke:none;" />
 <path d="  M 14,7  L 15,7  L 15,5  L 14,5  Z  " style="fill:rgb(24, 53, 62); fill-opacity:1.000; stroke:none;" />
 <path d="  M 15,7  L 15,8  L 16,8  L 16,7  Z  " style="fill:rgb(24, 53, 62); fill-opacity:1.000; stroke:none;" />
 <path d="  M 0,8  L 0,9  L 1,9  L 1,8  Z  " style="fill:rgb(184, 168, 118); fill-opacity:1.000; stroke:none;" />
 <path d="  M 1,10  L 2,10  L 2,9  L 1,9  Z  " style="fill:rgb(184, 168, 118); fill-opacity:1.000; stroke:none;" />
 <path d="  M 2,6  L 2,7  L 3,7  L 3,6  Z  " style="fill:rgb(184, 168, 118); fill-opacity:1.000; stroke:none;" />
 <path d="  M 12,6  L 12,5  L 4,5  L 4,6  Z  " style="fill:rgb(184, 168, 118); fill-opacity:1.000; stroke:none;" />
 <path d="  M 5,10  L 5,11  L 11,11  L 11,10  Z  " style="fill:rgb(184, 168, 118); fill-opacity:1.000; stroke:none;" />
 <path d="  M 14,6  L 13,6  L 13,7  L 14,7  Z  " style="fill:rgb(184, 168, 118); fill-opacity:1.000; stroke:none;" />
 <path d="  M 14,10  L 15,10  L 15,9  L 14,9  Z  " style="fill:rgb(184, 168, 118); fill-opacity:1.000; stroke:none;" />
 <path d="  M 16,8  L 15,8  L 15,9  L 16,9  Z  " style="fill:rgb(184, 168, 118); fill-opacity:1.000; stroke:none;" />
 <path d="  M 0,10  L 1,10  L 1,9  L 0,9  Z  " style="fill:rgb(197, 190, 139); fill-opacity:1.000; stroke:none;" />
 <path d="  M 2,15  L 4,15  L 4,14  L 2,14  Z  " style="fill:rgb(197, 190, 139); fill-opacity:1.000; stroke:none;" />
 <path d="  M 3,6  L 3,7  L 6,7  L 6,6  Z  " style="fill:rgb(197, 190, 139); fill-opacity:1.000; stroke:none;" />
 <path d="  M 3,10  L 3,11  L 5,11  L 5,10  Z  " style="fill:rgb(197, 190, 139); fill-opacity:1.000; stroke:none;" />
 <path d="  M 5,13  L 4,13  L 4,14  L 5,14  Z  " style="fill:rgb(197, 190, 139); fill-opacity:1.000; stroke:none;" />
 <path d="  M 9,15  L 8,15  L 8,16  L 9,16  Z  " style="fill:rgb(197, 190, 139); fill-opacity:1.000; stroke:none;" />
 <path d="  M 10,6  L 10,7  L 13,7  L 13,6  Z  " style="fill:rgb(197, 190, 139); fill-opacity:1.000; stroke:none;" />
 <path d="  M 11,11  L 13,11  L 13,10  L 11,10  Z  " style="fill:rgb(197, 190, 139); fill-opacity:1.000; stroke:none;" />
 <path d="  M 12,13  L 11,13  L 11,14  L 12,14  Z  " style="fill:rgb(197, 190, 139); fill-opacity:1.000; stroke:none;" />
 <path d="  M 13,15  L 13,14  L 12,14  L 12,15  Z  " style="fill:rgb(197, 190, 139); fill-opacity:1.000; stroke:none;" />
 <path d="  M 16,10  L 16,9  L 15,9  L 15,10  Z  " style="fill:rgb(197, 190, 139); fill-opacity:1.000; stroke:none;" />
 <path d="  M 3,11  L 3,10  L 0,10  L 0,11  Z  " style="fill:rgb(213, 218, 148); fill-opacity:1.000; stroke:none;" />
 <path d="  M 1,13  L 2,13  L 2,12  L 1,12  Z  " style="fill:rgb(213, 218, 148); fill-opacity:1.000; stroke:none;" />
 <path d="  M 2,14  L 1,14  L 1,15  L 2,15  Z  " style="fill:rgb(213, 218, 148); fill-opacity:1.000; stroke:none;" />
 <path d="  M 4,16  L 4,15  L 2,15  L 2,16  Z  " style="fill:rgb(213, 218, 148); fill-opacity:1.000; stroke:none;" />
 <path d="  M 5,7  L 4,7  L 4,8  L 5,8  Z  " style="fill:rgb(213, 218, 148); fill-opacity:1.000; stroke:none;" />
 <path d="  M 4,13  L 5,13  L 5,12  L 4,12  Z  " style="fill:rgb(213, 218, 148); fill-opacity:1.000; stroke:none;" />
 <path d="  M 6,14  L 4,14  L 4,15  L 5,15  L 5,16  L 6,16  Z  " style="fill:rgb(213, 218, 148); fill-opacity:1.000; stroke:none;" />
 <path d="  M 6,11  L 6,12  L 7,12  L 7,13  L 9,13  L 9,12  L 10,12  L 10,11  Z  " style="fill:rgb(213, 218, 148); fill-opacity:1.000; stroke:none;" />
 <path d="  M 9,7  L 9,8  L 10,8  L 10,7  Z  " style="fill:rgb(213, 218, 148); fill-opacity:1.000; stroke:none;" />
 <path d="  M 9,16  L 10,16  L 10,15  L 9,15  Z  " style="fill:rgb(213, 218, 148); fill-opacity:1.000; stroke:none;" />
 <path d="  M 10,14  L 10,15  L 11,15  L 11,14  Z  " style="fill:rgb(213, 218, 148); fill-opacity:1.000; stroke:none;" />
 <path d="  M 11,15  L 11,16  L 13,16  L 13,15  Z  " style="fill:rgb(213, 218, 148); fill-opacity:1.000; stroke:none;" />
 <path d="  M 13,8  L 13,7  L 12,7  L 12,8  Z  " style="fill:rgb(213, 218, 148); fill-opacity:1.000; stroke:none;" />
 <path d="  M 12,13  L 12,14  L 13,14  L 13,13  Z  " style="fill:rgb(213, 218, 148); fill-opacity:1.000; stroke:none;" />
 <path d="  M 16,10  L 13,10  L 13,12  L 16,12  Z  " style="fill:rgb(213, 218, 148); fill-opacity:1.000; stroke:none;" />
 <path d="  M 14,14  L 14,16  L 15,16  L 15,15  L 16,15  L 16,14  Z  " style="fill:rgb(213, 218, 148); fill-opacity:1.000; stroke:none;" />
 <path d="  M 0,11  L 0,12  L 1,12  L 1,11  Z  " style="fill:rgb(222, 230, 164); fill-opacity:1.000; stroke:none;" />
 <path d="  M 4,12  L 6,12  L 6,11  L 4,11  Z  " style="fill:rgb(222, 230, 164); fill-opacity:1.000; stroke:none;" />
 <path d="  M 5,16  L 5,15  L 4,15  L 4,16  Z  " style="fill:rgb(222, 230, 164); fill-opacity:1.000; stroke:none;" />
 <path d="  M 6,14  L 6,13  L 5,13  L 5,14  Z  " style="fill:rgb(222, 230, 164); fill-opacity:1.000; stroke:none;" />
 <path d="  M 6,7  L 6,8  L 7,8  L 7,7  Z  " style="fill:rgb(222, 230, 164); fill-opacity:1.000; stroke:none;" />
 <path d="  M 6,13  L 7,13  L 7,12  L 6,12  Z  " style="fill:rgb(222, 230, 164); fill-opacity:1.000; stroke:none;" />
 <path d="  M 6,16  L 7,16  L 7,15  L 6,15  Z  " style="fill:rgb(222, 230, 164); fill-opacity:1.000; stroke:none;" />
 <path d="  M 7,13  L 7,14  L 9,14  L 9,13  Z  " style="fill:rgb(222, 230, 164); fill-opacity:1.000; stroke:none;" />
 <path d="  M 8,7  L 8,8  L 9,8  L 9,7  Z  " style="fill:rgb(222, 230, 164); fill-opacity:1.000; stroke:none;" />
 <path d="  M 10,12  L 9,12  L 9,13  L 10,13  Z  " style="fill:rgb(222, 230, 164); fill-opacity:1.000; stroke:none;" />
 <path d="  M 11,12  L 11,11  L 10,11  L 10,12  Z  " style="fill:rgb(222, 230, 164); fill-opacity:1.000; stroke:none;" />
 <path d="  M 13,11  L 12,11  L 12,12  L 13,12  Z  " style="fill:rgb(222, 230, 164); fill-opacity:1.000; stroke:none;" />
 <path d="  M 15,13  L 15,12  L 13,12  L 13,13  Z  " style="fill:rgb(222, 230, 164); fill-opacity:1.000; stroke:none;" />
 <path d="  M 13,15  L 13,16  L 14,16  L 14,15  Z  " style="fill:rgb(222, 230, 164); fill-opacity:1.000; stroke:none;" />
 <path d="  M 15,14  L 16,14  L 16,13  L 15,13  Z  " style="fill:rgb(222, 230, 164); fill-opacity:1.000; stroke:none;" />
 <path d="  M 15,15  L 15,16  L 16,16  L 16,15  Z  " style="fill:rgb(222, 230, 164); fill-opacity:1.000; stroke:none;" />
 <path d="  M 1,13  L 1,12  L 0,12  L 0,13  Z  " style="fill:rgb(238, 246, 180); fill-opacity:1.000; stroke:none;" />
 <path d="  M 2,15  L 1,15  L 1,14  L 0,14  L 0,16  L 2,16  Z  " style="fill:rgb(238, 246, 180); fill-opacity:1.000; stroke:none;" />
 <path d="  M 1,11  L 1,12  L 4,12  L 4,11  Z  " style="fill:rgb(238, 246, 180); fill-opacity:1.000; stroke:none;" />
 <path d="  M 6,7  L 5,7  L 5,8  L 6,8  Z  " style="fill:rgb(238, 246, 180); fill-opacity:1.000; stroke:none;" />
 <path d="  M 5,12  L 5,13  L 6,13  L 6,12  Z  " style="fill:rgb(238, 246, 180); fill-opacity:1.000; stroke:none;" />
 <path d="  M 6,13  L 6,15  L 7,15  L 7,13  Z  " style="fill:rgb(238, 246, 180); fill-opacity:1.000; stroke:none;" />
 <path d="  M 10,13  L 9,13  L 9,14  L 10,14  Z  " style="fill:rgb(238, 246, 180); fill-opacity:1.000; stroke:none;" />
 <path d="  M 13,12  L 11,12  L 11,13  L 13,13  Z  " style="fill:rgb(238, 246, 180); fill-opacity:1.000; stroke:none;" />
 <path d="  M 15,14  L 15,13  L 13,13  L 13,14  Z  " style="fill:rgb(238, 246, 180); fill-opacity:1.000; stroke:none;" />
 <path d="  M 1,14  L 1,13  L 0,13  L 0,14  Z  " style="fill:rgb(246, 250, 189); fill-opacity:1.000; stroke:none;" />
 <path d="  M 8,8  L 8,7  L 7,7  L 7,8  Z  " style="fill:rgb(246, 250, 189); fill-opacity:1.000; stroke:none;" />
 <path d="  M 10,14  L 7,14  L 7,15  L 10,15  Z  " style="fill:rgb(246, 250, 189); fill-opacity:1.000; stroke:none;" />
 <path d="  M 11,13  L 11,12  L 10,12  L 10,13  Z  " style="fill:rgb(246, 250, 189); fill-opacity:1.000; stroke:none;" />
 <path d="  M 10,15  L 10,16  L 11,16  L 11,15  Z  " style="fill:rgb(246, 250, 189); fill-opacity:1.000; stroke:none;" />
 <path d="  M 12,11  L 11,11  L 11,12  L 12,12  Z  " style="fill:rgb(246, 250, 189); fill-opacity:1.000; stroke:none;" />
 <path d="  M 15,12  L 15,13  L 16,13  L 16,12  Z  " style="fill:rgb(246, 250, 189); fill-opacity:1.000; stroke:none;" />
 <path d="  M 1,4  L 1,5  L 2,5  L 2,4  Z  " style="fill:rgb(153, 198, 147); fill-opacity:1.000; stroke:none;" />
 <path d="  M 15,5  L 15,4  L 14,4  L 14,5  Z  " style="fill:rgb(153, 198, 147); fill-opacity:1.000; stroke:none;" />
 <path d="  M 2,10  L 14,10  L 14,9  L 3,9  L 3,8  L 2,8  L 2,6  L 1,6  L 1,9  L 2,9  Z  " style="fill:rgb(19, 46, 55); fill-opacity:1.000; stroke:none;" />
 <path d="  M 3,6  L 3,5  L 2,5  L 2,6  Z  " style="fill:rgb(19, 46, 55); fill-opacity:1.000; stroke:none;" />
 <path d="  M 13,5  L 13,4  L 3,4  L 3,5  Z  " style="fill:rgb(19, 46, 55); fill-opacity:1.000; stroke:none;" />
 <path d="  M 13,5  L 13,6  L 14,6  L 14,5  Z  " style="fill:rgb(19, 46, 55); fill-opacity:1.000; stroke:none;" />
 <path d="  M 14,9  L 15,9  L 15,7  L 14,7  Z  " style="fill:rgb(19, 46, 55); fill-opacity:1.000; stroke:none;" />
 <path d="  M 2,13  L 1,13  L 1,14  L 4,14  L 4,12  L 2,12  Z  " style="fill:rgb(205, 198, 139); fill-opacity:1.000; stroke:none;" />
 <path d="  M 3,8  L 4,8  L 4,7  L 3,7  Z  " style="fill:rgb(205, 198, 139); fill-opacity:1.000; stroke:none;" />
 <path d="  M 6,6  L 6,7  L 10,7  L 10,6  Z  " style="fill:rgb(205, 198, 139); fill-opacity:1.000; stroke:none;" />
 <path d="  M 7,16  L 8,16  L 8,15  L 7,15  Z  " style="fill:rgb(205, 198, 139); fill-opacity:1.000; stroke:none;" />
 <path d="  M 12,8  L 12,7  L 10,7  L 10,8  Z  " style="fill:rgb(205, 198, 139); fill-opacity:1.000; stroke:none;" />
 <path d="  M 10,14  L 11,14  L 11,13  L 10,13  Z  " style="fill:rgb(205, 198, 139); fill-opacity:1.000; stroke:none;" />
 <path d="  M 11,14  L 11,15  L 12,15  L 12,14  Z  " style="fill:rgb(205, 198, 139); fill-opacity:1.000; stroke:none;" />
 <path d="  M 13,15  L 14,15  L 14,14  L 13,14  Z  " style="fill:rgb(205, 198, 139); fill-opacity:1.000; stroke:none;" />
 <path d="  M 3,6  L 4,6  L 4,5  L 3,5  Z  " style="fill:rgb(171, 134, 95); fill-opacity:1.000; stroke:none;" />
 <path d="  M 13,6  L 13,5  L 12,5  L 12,6  Z  " style="fill:rgb(171, 134, 95); fill-opacity:1.000; stroke:none;" />
</svg>
