<?xml version="1.0" encoding="UTF-8" standalone="no"?>
<!DOCTYPE svg PUBLIC "-//W3C//DTD SVG 1.1//EN" 
  "http://www.w3.org/Graphics/SVG/1.1/DTD/svg11.dtd">
<svg width="16" height="16"
	 xmlns="http://www.w3.org/2000/svg" version="1.1">
 <path d="  M 1,1  L 1,0  L 0,0  L 0,1  Z  " style="fill:rgb(41, 36, 34); fill-opacity:1.000; stroke:none;" />
 <path d="  M 1,15  L 0,15  L 0,16  L 1,16  Z  " style="fill:rgb(41, 36, 34); fill-opacity:1.000; stroke:none;" />
 <path d="  M 15,15  L 15,16  L 16,16  L 16,15  Z  " style="fill:rgb(41, 36, 34); fill-opacity:1.000; stroke:none;" />
 <path d="  M 0,3  L 1,3  L 1,1  L 0,1  Z  " style="fill:rgb(49, 44, 40); fill-opacity:1.000; stroke:none;" />
 <path d="  M 0,9  L 0,15  L 1,15  L 1,9  Z  " style="fill:rgb(49, 44, 40); fill-opacity:1.000; stroke:none;" />
 <path d="  M 1,1  L 3,1  L 3,0  L 1,0  Z  " style="fill:rgb(49, 44, 40); fill-opacity:1.000; stroke:none;" />
 <path d="  M 1,15  L 1,16  L 3,16  L 3,15  Z  " style="fill:rgb(49, 44, 40); fill-opacity:1.000; stroke:none;" />
 <path d="  M 6,15  L 6,16  L 8,16  L 8,15  Z  " style="fill:rgb(49, 44, 40); fill-opacity:1.000; stroke:none;" />
 <path d="  M 9,1  L 15,1  L 15,0  L 9,0  Z  " style="fill:rgb(49, 44, 40); fill-opacity:1.000; stroke:none;" />
 <path d="  M 14,16  L 15,16  L 15,15  L 14,15  Z  " style="fill:rgb(49, 44, 40); fill-opacity:1.000; stroke:none;" />
 <path d="  M 16,1  L 15,1  L 15,6  L 16,6  Z  " style="fill:rgb(49, 44, 40); fill-opacity:1.000; stroke:none;" />
 <path d="  M 16,13  L 15,13  L 15,15  L 16,15  Z  " style="fill:rgb(49, 44, 40); fill-opacity:1.000; stroke:none;" />
 <path d="  M 1,3  L 0,3  L 0,9  L 1,9  Z  " style="fill:rgb(54, 50, 47); fill-opacity:1.000; stroke:none;" />
 <path d="  M 3,0  L 3,1  L 9,1  L 9,0  Z  " style="fill:rgb(54, 50, 47); fill-opacity:1.000; stroke:none;" />
 <path d="  M 14,15  L 8,15  L 8,16  L 14,16  Z  " style="fill:rgb(54, 50, 47); fill-opacity:1.000; stroke:none;" />
 <path d="  M 16,6  L 15,6  L 15,13  L 16,13  Z  " style="fill:rgb(54, 50, 47); fill-opacity:1.000; stroke:none;" />
 <path d="  M 9,1  L 1,1  L 1,2  L 7,2  L 7,3  L 9,3  Z  " style="fill:rgb(115, 64, 41); fill-opacity:1.000; stroke:none;" />
 <path d="  M 1,4  L 1,5  L 2,5  L 2,4  Z  " style="fill:rgb(115, 64, 41); fill-opacity:1.000; stroke:none;" />
 <path d="  M 1,10  L 2,10  L 2,9  L 1,9  Z  " style="fill:rgb(115, 64, 41); fill-opacity:1.000; stroke:none;" />
 <path d="  M 5,15  L 5,14  L 1,14  L 1,15  Z  " style="fill:rgb(115, 64, 41); fill-opacity:1.000; stroke:none;" />
 <path d="  M 7,13  L 7,15  L 8,15  L 8,14  L 9,14  L 9,13  Z  " style="fill:rgb(115, 64, 41); fill-opacity:1.000; stroke:none;" />
 <path d="  M 10,14  L 10,15  L 11,15  L 11,14  Z  " style="fill:rgb(115, 64, 41); fill-opacity:1.000; stroke:none;" />
 <path d="  M 11,2  L 13,2  L 13,1  L 11,1  Z  " style="fill:rgb(115, 64, 41); fill-opacity:1.000; stroke:none;" />
 <path d="  M 14,1  L 14,2  L 15,2  L 15,1  Z  " style="fill:rgb(115, 64, 41); fill-opacity:1.000; stroke:none;" />
 <path d="  M 14,6  L 15,6  L 15,5  L 14,5  Z  " style="fill:rgb(115, 64, 41); fill-opacity:1.000; stroke:none;" />
 <path d="  M 14,10  L 15,10  L 15,9  L 14,9  Z  " style="fill:rgb(115, 64, 41); fill-opacity:1.000; stroke:none;" />
 <path d="  M 14,14  L 15,14  L 15,13  L 14,13  Z  " style="fill:rgb(115, 64, 41); fill-opacity:1.000; stroke:none;" />
 <path d="  M 1,2  L 1,3  L 2,3  L 2,2  Z  " style="fill:rgb(131, 72, 41); fill-opacity:1.000; stroke:none;" />
 <path d="  M 2,6  L 1,6  L 1,9  L 2,9  Z  " style="fill:rgb(131, 72, 41); fill-opacity:1.000; stroke:none;" />
 <path d="  M 4,3  L 2,3  L 2,4  L 4,4  Z  " style="fill:rgb(131, 72, 41); fill-opacity:1.000; stroke:none;" />
 <path d="  M 2,14  L 3,14  L 3,13  L 2,13  Z  " style="fill:rgb(131, 72, 41); fill-opacity:1.000; stroke:none;" />
 <path d="  M 5,14  L 5,15  L 7,15  L 7,14  Z  " style="fill:rgb(131, 72, 41); fill-opacity:1.000; stroke:none;" />
 <path d="  M 7,2  L 6,2  L 6,3  L 7,3  Z  " style="fill:rgb(131, 72, 41); fill-opacity:1.000; stroke:none;" />
 <path d="  M 10,14  L 8,14  L 8,15  L 10,15  Z  " style="fill:rgb(131, 72, 41); fill-opacity:1.000; stroke:none;" />
 <path d="  M 10,14  L 11,14  L 11,13  L 10,13  Z  " style="fill:rgb(131, 72, 41); fill-opacity:1.000; stroke:none;" />
 <path d="  M 14,4  L 14,3  L 13,3  L 13,2  L 11,2  L 11,3  L 12,3  L 12,4  Z  " style="fill:rgb(131, 72, 41); fill-opacity:1.000; stroke:none;" />
 <path d="  M 14,15  L 14,14  L 12,14  L 12,15  Z  " style="fill:rgb(131, 72, 41); fill-opacity:1.000; stroke:none;" />
 <path d="  M 13,12  L 14,12  L 14,11  L 13,11  Z  " style="fill:rgb(131, 72, 41); fill-opacity:1.000; stroke:none;" />
 <path d="  M 15,2  L 14,2  L 14,3  L 15,3  Z  " style="fill:rgb(131, 72, 41); fill-opacity:1.000; stroke:none;" />
 <path d="  M 15,5  L 15,4  L 14,4  L 14,5  Z  " style="fill:rgb(131, 72, 41); fill-opacity:1.000; stroke:none;" />
 <path d="  M 15,6  L 14,6  L 14,7  L 15,7  Z  " style="fill:rgb(131, 72, 41); fill-opacity:1.000; stroke:none;" />
 <path d="  M 14,9  L 15,9  L 15,8  L 14,8  Z  " style="fill:rgb(131, 72, 41); fill-opacity:1.000; stroke:none;" />
 <path d="  M 15,13  L 15,12  L 14,12  L 14,13  Z  " style="fill:rgb(131, 72, 41); fill-opacity:1.000; stroke:none;" />
 <path d="  M 2,4  L 2,3  L 1,3  L 1,4  Z  " style="fill:rgb(123, 68, 41); fill-opacity:1.000; stroke:none;" />
 <path d="  M 1,6  L 2,6  L 2,5  L 1,5  Z  " style="fill:rgb(123, 68, 41); fill-opacity:1.000; stroke:none;" />
 <path d="  M 1,14  L 2,14  L 2,10  L 1,10  Z  " style="fill:rgb(123, 68, 41); fill-opacity:1.000; stroke:none;" />
 <path d="  M 6,3  L 6,2  L 2,2  L 2,3  Z  " style="fill:rgb(123, 68, 41); fill-opacity:1.000; stroke:none;" />
 <path d="  M 7,14  L 7,13  L 5,13  L 5,14  Z  " style="fill:rgb(123, 68, 41); fill-opacity:1.000; stroke:none;" />
 <path d="  M 7,13  L 8,13  L 8,12  L 7,12  Z  " style="fill:rgb(123, 68, 41); fill-opacity:1.000; stroke:none;" />
 <path d="  M 8,3  L 8,4  L 9,4  L 9,3  Z  " style="fill:rgb(123, 68, 41); fill-opacity:1.000; stroke:none;" />
 <path d="  M 9,1  L 9,2  L 11,2  L 11,1  Z  " style="fill:rgb(123, 68, 41); fill-opacity:1.000; stroke:none;" />
 <path d="  M 11,13  L 11,15  L 12,15  L 12,14  L 14,14  L 14,13  Z  " style="fill:rgb(123, 68, 41); fill-opacity:1.000; stroke:none;" />
 <path d="  M 13,2  L 14,2  L 14,1  L 13,1  Z  " style="fill:rgb(123, 68, 41); fill-opacity:1.000; stroke:none;" />
 <path d="  M 14,4  L 15,4  L 15,3  L 14,3  Z  " style="fill:rgb(123, 68, 41); fill-opacity:1.000; stroke:none;" />
 <path d="  M 15,8  L 15,7  L 14,7  L 14,8  Z  " style="fill:rgb(123, 68, 41); fill-opacity:1.000; stroke:none;" />
 <path d="  M 14,12  L 15,12  L 15,10  L 14,10  Z  " style="fill:rgb(123, 68, 41); fill-opacity:1.000; stroke:none;" />
 <path d="  M 15,14  L 14,14  L 14,15  L 15,15  Z  " style="fill:rgb(123, 68, 41); fill-opacity:1.000; stroke:none;" />
 <path d="  M 3,4  L 2,4  L 2,6  L 3,6  Z  " style="fill:rgb(162, 97, 47); fill-opacity:1.000; stroke:none;" />
 <path d="  M 2,12  L 3,12  L 3,10  L 2,10  Z  " style="fill:rgb(162, 97, 47); fill-opacity:1.000; stroke:none;" />
 <path d="  M 4,12  L 3,12  L 3,13  L 4,13  Z  " style="fill:rgb(162, 97, 47); fill-opacity:1.000; stroke:none;" />
 <path d="  M 6,4  L 8,4  L 8,3  L 6,3  Z  " style="fill:rgb(162, 97, 47); fill-opacity:1.000; stroke:none;" />
 <path d="  M 6,13  L 7,13  L 7,12  L 6,12  Z  " style="fill:rgb(162, 97, 47); fill-opacity:1.000; stroke:none;" />
 <path d="  M 10,12  L 8,12  L 8,13  L 10,13  Z  " style="fill:rgb(162, 97, 47); fill-opacity:1.000; stroke:none;" />
 <path d="  M 9,4  L 10,4  L 10,3  L 9,3  Z  " style="fill:rgb(162, 97, 47); fill-opacity:1.000; stroke:none;" />
 <path d="  M 13,4  L 13,6  L 14,6  L 14,4  Z  " style="fill:rgb(162, 97, 47); fill-opacity:1.000; stroke:none;" />
 <path d="  M 13,10  L 13,11  L 14,11  L 14,10  Z  " style="fill:rgb(162, 97, 47); fill-opacity:1.000; stroke:none;" />
 <path d="  M 3,10  L 3,6  L 2,6  L 2,10  Z  " style="fill:rgb(192, 118, 61); fill-opacity:1.000; stroke:none;" />
 <path d="  M 4,5  L 5,5  L 5,4  L 6,4  L 6,3  L 4,3  L 4,4  L 3,4  L 3,6  L 4,6  Z  " style="fill:rgb(192, 118, 61); fill-opacity:1.000; stroke:none;" />
 <path d="  M 4,13  L 6,13  L 6,12  L 5,12  L 5,11  L 4,11  L 4,10  L 3,10  L 3,12  L 4,12  Z  " style="fill:rgb(192, 118, 61); fill-opacity:1.000; stroke:none;" />
 <path d="  M 9,5  L 9,4  L 7,4  L 7,5  Z  " style="fill:rgb(192, 118, 61); fill-opacity:1.000; stroke:none;" />
 <path d="  M 7,11  L 7,12  L 9,12  L 9,11  Z  " style="fill:rgb(192, 118, 61); fill-opacity:1.000; stroke:none;" />
 <path d="  M 10,3  L 10,4  L 11,4  L 11,5  L 12,5  L 12,6  L 13,6  L 13,4  L 12,4  L 12,3  Z  " style="fill:rgb(192, 118, 61); fill-opacity:1.000; stroke:none;" />
 <path d="  M 12,12  L 13,12  L 13,10  L 12,10  L 12,11  L 11,11  L 11,12  L 10,12  L 10,13  L 12,13  Z  " style="fill:rgb(192, 118, 61); fill-opacity:1.000; stroke:none;" />
 <path d="  M 13,10  L 14,10  L 14,6  L 13,6  Z  " style="fill:rgb(192, 118, 61); fill-opacity:1.000; stroke:none;" />
 <path d="  M 3,12  L 2,12  L 2,13  L 3,13  Z  " style="fill:rgb(148, 76, 41); fill-opacity:1.000; stroke:none;" />
 <path d="  M 3,13  L 3,14  L 5,14  L 5,13  Z  " style="fill:rgb(148, 76, 41); fill-opacity:1.000; stroke:none;" />
 <path d="  M 9,2  L 9,3  L 11,3  L 11,2  Z  " style="fill:rgb(148, 76, 41); fill-opacity:1.000; stroke:none;" />
 <path d="  M 10,13  L 9,13  L 9,14  L 10,14  Z  " style="fill:rgb(148, 76, 41); fill-opacity:1.000; stroke:none;" />
 <path d="  M 12,12  L 12,13  L 14,13  L 14,12  Z  " style="fill:rgb(148, 76, 41); fill-opacity:1.000; stroke:none;" />
 <path d="  M 13,2  L 13,3  L 14,3  L 14,2  Z  " style="fill:rgb(148, 76, 41); fill-opacity:1.000; stroke:none;" />
 <path d="  M 3,10  L 4,10  L 4,11  L 5,11  L 5,12  L 7,12  L 7,11  L 6,11  L 6,10  L 5,10  L 5,9  L 4,9  L 4,7  L 5,7  L 5,6  L 6,6  L 6,5  L 7,5  L 7,4  L 5,4  L 5,5  L 4,5  L 4,6  L 3,6  Z  " style="fill:rgb(233, 165, 91); fill-opacity:1.000; stroke:none;" />
 <path d="  M 12,11  L 12,10  L 13,10  L 13,6  L 12,6  L 12,5  L 11,5  L 11,4  L 9,4  L 9,5  L 10,5  L 10,6  L 11,6  L 11,7  L 12,7  L 12,9  L 11,9  L 11,10  L 10,10  L 10,11  L 9,11  L 9,12  L 11,12  L 11,11  Z  " style="fill:rgb(233, 165, 91); fill-opacity:1.000; stroke:none;" />
 <path d="  M 3,15  L 3,16  L 4,16  L 4,15  Z  " style="fill:rgb(53, 44, 41); fill-opacity:1.000; stroke:none;" />
 <path d="  M 10,11  L 10,10  L 11,10  L 11,9  L 12,9  L 12,7  L 11,7  L 11,6  L 10,6  L 10,5  L 6,5  L 6,6  L 5,6  L 5,7  L 4,7  L 4,9  L 5,9  L 5,10  L 6,10  L 6,11  Z  M 10,9  L 9,9  L 9,10  L 7,10  L 7,9  L 6,9  L 6,7  L 7,7  L 7,6  L 9,6  L 9,7  L 10,7  Z  " style="fill:rgb(255, 209, 128); fill-opacity:1.000; stroke:none;" />
 <path d="  M 4,16  L 6,16  L 6,15  L 4,15  Z  " style="fill:rgb(51, 45, 42); fill-opacity:1.000; stroke:none;" />
 <path d="  M 6,9  L 7,9  L 7,7  L 6,7  Z  " style="fill:rgb(255, 251, 168); fill-opacity:1.000; stroke:none;" />
 <path d="  M 9,7  L 9,6  L 7,6  L 7,7  Z  " style="fill:rgb(255, 251, 168); fill-opacity:1.000; stroke:none;" />
 <path d="  M 9,10  L 9,9  L 7,9  L 7,10  Z  " style="fill:rgb(255, 251, 168); fill-opacity:1.000; stroke:none;" />
 <path d="  M 10,7  L 9,7  L 9,9  L 10,9  Z  " style="fill:rgb(255, 251, 168); fill-opacity:1.000; stroke:none;" />
 <path d="  M 7,9  L 9,9  L 9,7  L 7,7  Z  " style="fill:rgb(255, 253, 212); fill-opacity:1.000; stroke:none;" />
 <path d="  M 16,1  L 16,0  L 15,0  L 15,1  Z  " style="fill:rgb(39, 34, 32); fill-opacity:1.000; stroke:none;" />
</svg>
