<?xml version="1.0" encoding="UTF-8" standalone="no"?>
<!DOCTYPE svg PUBLIC "-//W3C//DTD SVG 1.1//EN" 
  "http://www.w3.org/Graphics/SVG/1.1/DTD/svg11.dtd">
<svg width="16" height="16"
	 xmlns="http://www.w3.org/2000/svg" version="1.1">
 <path d="  M 1,0  L 0,0  L 0,5  L 1,5  Z  " style="fill:rgb(167, 167, 167); fill-opacity:1.000; stroke:none;" />
 <path d="  M 1,7  L 0,7  L 0,8  L 1,8  Z  " style="fill:rgb(167, 167, 167); fill-opacity:1.000; stroke:none;" />
 <path d="  M 2,11  L 0,11  L 0,12  L 2,12  Z  " style="fill:rgb(167, 167, 167); fill-opacity:1.000; stroke:none;" />
 <path d="  M 2,1  L 4,1  L 4,0  L 2,0  Z  " style="fill:rgb(167, 167, 167); fill-opacity:1.000; stroke:none;" />
 <path d="  M 7,11  L 4,11  L 4,12  L 7,12  Z  " style="fill:rgb(167, 167, 167); fill-opacity:1.000; stroke:none;" />
 <path d="  M 6,1  L 8,1  L 8,0  L 6,0  Z  " style="fill:rgb(167, 167, 167); fill-opacity:1.000; stroke:none;" />
 <path d="  M 12,11  L 10,11  L 10,12  L 12,12  Z  " style="fill:rgb(167, 167, 167); fill-opacity:1.000; stroke:none;" />
 <path d="  M 11,10  L 12,10  L 12,8  L 11,8  Z  " style="fill:rgb(167, 167, 167); fill-opacity:1.000; stroke:none;" />
 <path d="  M 1,6  L 1,5  L 0,5  L 0,6  Z  " style="fill:rgb(180, 180, 180); fill-opacity:1.000; stroke:none;" />
 <path d="  M 1,1  L 2,1  L 2,0  L 1,0  Z  " style="fill:rgb(180, 180, 180); fill-opacity:1.000; stroke:none;" />
 <path d="  M 4,11  L 2,11  L 2,12  L 4,12  Z  " style="fill:rgb(180, 180, 180); fill-opacity:1.000; stroke:none;" />
 <path d="  M 6,1  L 6,0  L 4,0  L 4,1  Z  " style="fill:rgb(180, 180, 180); fill-opacity:1.000; stroke:none;" />
 <path d="  M 7,12  L 8,12  L 8,11  L 7,11  Z  " style="fill:rgb(180, 180, 180); fill-opacity:1.000; stroke:none;" />
 <path d="  M 12,0  L 11,0  L 11,4  L 12,4  Z  " style="fill:rgb(180, 180, 180); fill-opacity:1.000; stroke:none;" />
 <path d="  M 11,7  L 11,8  L 12,8  L 12,7  Z  " style="fill:rgb(180, 180, 180); fill-opacity:1.000; stroke:none;" />
 <path d="  M 12,10  L 11,10  L 11,11  L 12,11  Z  " style="fill:rgb(180, 180, 180); fill-opacity:1.000; stroke:none;" />
 <path d="  M 0,6  L 0,7  L 1,7  L 1,6  Z  " style="fill:rgb(154, 154, 154); fill-opacity:1.000; stroke:none;" />
 <path d="  M 0,11  L 1,11  L 1,8  L 0,8  Z  " style="fill:rgb(154, 154, 154); fill-opacity:1.000; stroke:none;" />
 <path d="  M 11,1  L 11,0  L 8,0  L 8,1  Z  " style="fill:rgb(154, 154, 154); fill-opacity:1.000; stroke:none;" />
 <path d="  M 10,12  L 10,11  L 8,11  L 8,12  Z  " style="fill:rgb(154, 154, 154); fill-opacity:1.000; stroke:none;" />
 <path d="  M 12,7  L 12,4  L 11,4  L 11,7  Z  " style="fill:rgb(154, 154, 154); fill-opacity:1.000; stroke:none;" />
 <path d="  M 3,1  L 1,1  L 1,2  L 3,2  Z  " style="fill:rgb(127, 127, 127); fill-opacity:1.000; stroke:none;" />
 <path d="  M 2,7  L 1,7  L 1,8  L 2,8  Z  " style="fill:rgb(127, 127, 127); fill-opacity:1.000; stroke:none;" />
 <path d="  M 1,11  L 2,11  L 2,10  L 1,10  Z  " style="fill:rgb(127, 127, 127); fill-opacity:1.000; stroke:none;" />
 <path d="  M 3,5  L 3,4  L 2,4  L 2,6  L 4,6  L 4,5  Z  " style="fill:rgb(127, 127, 127); fill-opacity:1.000; stroke:none;" />
 <path d="  M 2,8  L 2,9  L 3,9  L 3,8  Z  " style="fill:rgb(127, 127, 127); fill-opacity:1.000; stroke:none;" />
 <path d="  M 3,2  L 3,3  L 4,3  L 4,2  Z  " style="fill:rgb(127, 127, 127); fill-opacity:1.000; stroke:none;" />
 <path d="  M 4,4  L 4,5  L 5,5  L 5,4  Z  " style="fill:rgb(127, 127, 127); fill-opacity:1.000; stroke:none;" />
 <path d="  M 5,7  L 4,7  L 4,8  L 5,8  Z  " style="fill:rgb(127, 127, 127); fill-opacity:1.000; stroke:none;" />
 <path d="  M 5,10  L 5,9  L 4,9  L 4,10  Z  " style="fill:rgb(127, 127, 127); fill-opacity:1.000; stroke:none;" />
 <path d="  M 5,3  L 6,3  L 6,4  L 7,4  L 7,5  L 8,5  L 8,3  L 7,3  L 7,2  L 8,2  L 8,1  L 6,1  L 6,2  L 5,2  Z  " style="fill:rgb(127, 127, 127); fill-opacity:1.000; stroke:none;" />
 <path d="  M 5,8  L 5,9  L 6,9  L 6,8  Z  " style="fill:rgb(127, 127, 127); fill-opacity:1.000; stroke:none;" />
 <path d="  M 5,10  L 5,11  L 6,11  L 6,10  Z  " style="fill:rgb(127, 127, 127); fill-opacity:1.000; stroke:none;" />
 <path d="  M 7,8  L 9,8  L 9,7  L 7,7  Z  " style="fill:rgb(127, 127, 127); fill-opacity:1.000; stroke:none;" />
 <path d="  M 7,11  L 8,11  L 8,10  L 7,10  Z  " style="fill:rgb(127, 127, 127); fill-opacity:1.000; stroke:none;" />
 <path d="  M 9,10  L 9,9  L 8,9  L 8,10  Z  " style="fill:rgb(127, 127, 127); fill-opacity:1.000; stroke:none;" />
 <path d="  M 9,4  L 10,4  L 10,3  L 9,3  Z  " style="fill:rgb(127, 127, 127); fill-opacity:1.000; stroke:none;" />
 <path d="  M 10,7  L 10,6  L 9,6  L 9,7  Z  " style="fill:rgb(127, 127, 127); fill-opacity:1.000; stroke:none;" />
 <path d="  M 9,11  L 10,11  L 10,10  L 9,10  Z  " style="fill:rgb(127, 127, 127); fill-opacity:1.000; stroke:none;" />
 <path d="  M 10,1  L 10,2  L 11,2  L 11,1  Z  " style="fill:rgb(127, 127, 127); fill-opacity:1.000; stroke:none;" />
 <path d="  M 10,9  L 10,10  L 11,10  L 11,9  Z  " style="fill:rgb(127, 127, 127); fill-opacity:1.000; stroke:none;" />
 <path d="  M 1,4  L 2,4  L 2,2  L 1,2  Z  " style="fill:rgb(116, 116, 116); fill-opacity:1.000; stroke:none;" />
 <path d="  M 1,10  L 2,10  L 2,9  L 1,9  Z  " style="fill:rgb(116, 116, 116); fill-opacity:1.000; stroke:none;" />
 <path d="  M 3,6  L 2,6  L 2,8  L 3,8  Z  " style="fill:rgb(116, 116, 116); fill-opacity:1.000; stroke:none;" />
 <path d="  M 5,11  L 5,10  L 2,10  L 2,11  Z  " style="fill:rgb(116, 116, 116); fill-opacity:1.000; stroke:none;" />
 <path d="  M 3,3  L 3,5  L 4,5  L 4,3  Z  " style="fill:rgb(116, 116, 116); fill-opacity:1.000; stroke:none;" />
 <path d="  M 3,9  L 4,9  L 4,8  L 3,8  Z  " style="fill:rgb(116, 116, 116); fill-opacity:1.000; stroke:none;" />
 <path d="  M 4,3  L 5,3  L 5,2  L 4,2  Z  " style="fill:rgb(116, 116, 116); fill-opacity:1.000; stroke:none;" />
 <path d="  M 5,5  L 4,5  L 4,7  L 5,7  Z  " style="fill:rgb(116, 116, 116); fill-opacity:1.000; stroke:none;" />
 <path d="  M 5,5  L 7,5  L 7,4  L 5,4  Z  " style="fill:rgb(116, 116, 116); fill-opacity:1.000; stroke:none;" />
 <path d="  M 7,8  L 7,7  L 5,7  L 5,8  Z  " style="fill:rgb(116, 116, 116); fill-opacity:1.000; stroke:none;" />
 <path d="  M 5,9  L 5,10  L 8,10  L 8,9  Z  " style="fill:rgb(116, 116, 116); fill-opacity:1.000; stroke:none;" />
 <path d="  M 8,5  L 7,5  L 7,7  L 8,7  Z  " style="fill:rgb(116, 116, 116); fill-opacity:1.000; stroke:none;" />
 <path d="  M 8,1  L 8,2  L 10,2  L 10,1  Z  " style="fill:rgb(116, 116, 116); fill-opacity:1.000; stroke:none;" />
 <path d="  M 8,3  L 8,4  L 9,4  L 9,3  Z  " style="fill:rgb(116, 116, 116); fill-opacity:1.000; stroke:none;" />
 <path d="  M 9,8  L 8,8  L 8,9  L 9,9  Z  " style="fill:rgb(116, 116, 116); fill-opacity:1.000; stroke:none;" />
 <path d="  M 9,6  L 10,6  L 10,4  L 9,4  Z  " style="fill:rgb(116, 116, 116); fill-opacity:1.000; stroke:none;" />
 <path d="  M 11,2  L 10,2  L 10,3  L 11,3  Z  " style="fill:rgb(116, 116, 116); fill-opacity:1.000; stroke:none;" />
 <path d="  M 10,9  L 11,9  L 11,6  L 10,6  Z  " style="fill:rgb(116, 116, 116); fill-opacity:1.000; stroke:none;" />
 <path d="  M 10,10  L 10,11  L 11,11  L 11,10  Z  " style="fill:rgb(116, 116, 116); fill-opacity:1.000; stroke:none;" />
 <path d="  M 2,4  L 1,4  L 1,7  L 2,7  Z  " style="fill:rgb(143, 143, 143); fill-opacity:1.000; stroke:none;" />
 <path d="  M 2,9  L 2,8  L 1,8  L 1,9  Z  " style="fill:rgb(143, 143, 143); fill-opacity:1.000; stroke:none;" />
 <path d="  M 2,4  L 3,4  L 3,2  L 2,2  Z  " style="fill:rgb(143, 143, 143); fill-opacity:1.000; stroke:none;" />
 <path d="  M 2,9  L 2,10  L 4,10  L 4,9  Z  " style="fill:rgb(143, 143, 143); fill-opacity:1.000; stroke:none;" />
 <path d="  M 3,2  L 6,2  L 6,1  L 3,1  Z  " style="fill:rgb(143, 143, 143); fill-opacity:1.000; stroke:none;" />
 <path d="  M 4,6  L 3,6  L 3,8  L 4,8  Z  " style="fill:rgb(143, 143, 143); fill-opacity:1.000; stroke:none;" />
 <path d="  M 4,3  L 4,4  L 6,4  L 6,3  Z  " style="fill:rgb(143, 143, 143); fill-opacity:1.000; stroke:none;" />
 <path d="  M 5,8  L 4,8  L 4,9  L 5,9  Z  " style="fill:rgb(143, 143, 143); fill-opacity:1.000; stroke:none;" />
 <path d="  M 6,8  L 6,9  L 8,9  L 8,8  Z  " style="fill:rgb(143, 143, 143); fill-opacity:1.000; stroke:none;" />
 <path d="  M 6,11  L 7,11  L 7,10  L 6,10  Z  " style="fill:rgb(143, 143, 143); fill-opacity:1.000; stroke:none;" />
 <path d="  M 7,2  L 7,3  L 10,3  L 10,2  Z  " style="fill:rgb(143, 143, 143); fill-opacity:1.000; stroke:none;" />
 <path d="  M 9,4  L 8,4  L 8,7  L 9,7  Z  " style="fill:rgb(143, 143, 143); fill-opacity:1.000; stroke:none;" />
 <path d="  M 9,11  L 9,10  L 8,10  L 8,11  Z  " style="fill:rgb(143, 143, 143); fill-opacity:1.000; stroke:none;" />
 <path d="  M 9,10  L 10,10  L 10,7  L 9,7  Z  " style="fill:rgb(143, 143, 143); fill-opacity:1.000; stroke:none;" />
 <path d="  M 11,3  L 10,3  L 10,6  L 11,6  Z  " style="fill:rgb(143, 143, 143); fill-opacity:1.000; stroke:none;" />
 <path d="  M 7,5  L 5,5  L 5,7  L 7,7  Z  " style="fill:rgb(104, 104, 104); fill-opacity:1.000; stroke:none;" />
</svg>
