<?xml version="1.0" encoding="UTF-8" standalone="no"?>
<!DOCTYPE svg PUBLIC "-//W3C//DTD SVG 1.1//EN" 
  "http://www.w3.org/Graphics/SVG/1.1/DTD/svg11.dtd">
<svg width="16" height="16"
	 xmlns="http://www.w3.org/2000/svg" version="1.1">
 <path d="  M 1,1  L 1,0  L 0,0  L 0,1  Z  " style="fill:rgb(121, 85, 58); fill-opacity:1.000; stroke:none;" />
 <path d="  M 2,2  L 2,1  L 1,1  L 1,2  Z  " style="fill:rgb(121, 85, 58); fill-opacity:1.000; stroke:none;" />
 <path d="  M 3,0  L 2,0  L 2,1  L 3,1  Z  " style="fill:rgb(121, 85, 58); fill-opacity:1.000; stroke:none;" />
 <path d="  M 4,1  L 5,1  L 5,0  L 4,0  Z  " style="fill:rgb(121, 85, 58); fill-opacity:1.000; stroke:none;" />
 <path d="  M 8,0  L 8,1  L 9,1  L 9,0  Z  " style="fill:rgb(121, 85, 58); fill-opacity:1.000; stroke:none;" />
 <path d="  M 10,3  L 10,2  L 9,2  L 9,3  Z  " style="fill:rgb(121, 85, 58); fill-opacity:1.000; stroke:none;" />
 <path d="  M 11,2  L 11,0  L 10,0  L 10,2  Z  " style="fill:rgb(121, 85, 58); fill-opacity:1.000; stroke:none;" />
 <path d="  M 16,1  L 16,0  L 15,0  L 15,1  Z  " style="fill:rgb(121, 85, 58); fill-opacity:1.000; stroke:none;" />
 <path d="  M 2,5  L 2,3  L 1,3  L 1,5  Z  " style="fill:rgb(144, 87, 64); fill-opacity:1.000; stroke:none;" />
 <path d="  M 2,2  L 3,2  L 3,1  L 2,1  Z  " style="fill:rgb(144, 87, 64); fill-opacity:1.000; stroke:none;" />
 <path d="  M 3,6  L 4,6  L 4,5  L 3,5  Z  " style="fill:rgb(144, 87, 64); fill-opacity:1.000; stroke:none;" />
 <path d="  M 7,3  L 7,2  L 5,2  L 5,4  L 6,4  L 6,3  Z  " style="fill:rgb(144, 87, 64); fill-opacity:1.000; stroke:none;" />
 <path d="  M 5,8  L 5,9  L 6,9  L 6,8  Z  " style="fill:rgb(144, 87, 64); fill-opacity:1.000; stroke:none;" />
 <path d="  M 7,1  L 7,2  L 8,2  L 8,1  Z  " style="fill:rgb(144, 87, 64); fill-opacity:1.000; stroke:none;" />
 <path d="  M 8,5  L 7,5  L 7,7  L 8,7  Z  " style="fill:rgb(144, 87, 64); fill-opacity:1.000; stroke:none;" />
 <path d="  M 9,4  L 10,4  L 10,3  L 9,3  Z  " style="fill:rgb(144, 87, 64); fill-opacity:1.000; stroke:none;" />
 <path d="  M 11,5  L 11,4  L 10,4  L 10,5  Z  " style="fill:rgb(144, 87, 64); fill-opacity:1.000; stroke:none;" />
 <path d="  M 12,6  L 11,6  L 11,7  L 12,7  Z  " style="fill:rgb(144, 87, 64); fill-opacity:1.000; stroke:none;" />
 <path d="  M 11,9  L 11,10  L 12,10  L 12,9  Z  " style="fill:rgb(144, 87, 64); fill-opacity:1.000; stroke:none;" />
 <path d="  M 14,7  L 13,7  L 13,9  L 14,9  Z  " style="fill:rgb(144, 87, 64); fill-opacity:1.000; stroke:none;" />
 <path d="  M 15,2  L 14,2  L 14,3  L 15,3  Z  " style="fill:rgb(144, 87, 64); fill-opacity:1.000; stroke:none;" />
 <path d="  M 16,2  L 16,1  L 15,1  L 15,2  Z  " style="fill:rgb(144, 87, 64); fill-opacity:1.000; stroke:none;" />
 <path d="  M 2,3  L 2,4  L 3,4  L 3,3  Z  " style="fill:rgb(173, 125, 101); fill-opacity:1.000; stroke:none;" />
 <path d="  M 4,6  L 2,6  L 2,8  L 3,8  L 3,7  L 4,7  Z  " style="fill:rgb(173, 125, 101); fill-opacity:1.000; stroke:none;" />
 <path d="  M 4,5  L 4,6  L 5,6  L 5,5  Z  " style="fill:rgb(173, 125, 101); fill-opacity:1.000; stroke:none;" />
 <path d="  M 5,8  L 6,8  L 6,7  L 7,7  L 7,6  L 5,6  Z  " style="fill:rgb(173, 125, 101); fill-opacity:1.000; stroke:none;" />
 <path d="  M 8,10  L 8,9  L 7,9  L 7,10  Z  " style="fill:rgb(173, 125, 101); fill-opacity:1.000; stroke:none;" />
 <path d="  M 9,8  L 8,8  L 8,9  L 9,9  Z  " style="fill:rgb(173, 125, 101); fill-opacity:1.000; stroke:none;" />
 <path d="  M 9,11  L 9,10  L 8,10  L 8,11  Z  " style="fill:rgb(173, 125, 101); fill-opacity:1.000; stroke:none;" />
 <path d="  M 9,6  L 10,6  L 10,5  L 9,5  Z  " style="fill:rgb(173, 125, 101); fill-opacity:1.000; stroke:none;" />
 <path d="  M 12,5  L 11,5  L 11,6  L 12,6  Z  " style="fill:rgb(173, 125, 101); fill-opacity:1.000; stroke:none;" />
 <path d="  M 12,9  L 12,8  L 11,8  L 11,9  Z  " style="fill:rgb(173, 125, 101); fill-opacity:1.000; stroke:none;" />
 <path d="  M 13,3  L 12,3  L 12,4  L 13,4  Z  " style="fill:rgb(173, 125, 101); fill-opacity:1.000; stroke:none;" />
 <path d="  M 12,6  L 12,8  L 13,8  L 13,6  Z  " style="fill:rgb(173, 125, 101); fill-opacity:1.000; stroke:none;" />
 <path d="  M 14,3  L 14,1  L 13,1  L 13,3  Z  " style="fill:rgb(173, 125, 101); fill-opacity:1.000; stroke:none;" />
 <path d="  M 14,6  L 15,6  L 15,5  L 14,5  Z  " style="fill:rgb(173, 125, 101); fill-opacity:1.000; stroke:none;" />
 <path d="  M 15,7  L 16,7  L 16,6  L 15,6  Z  " style="fill:rgb(173, 125, 101); fill-opacity:1.000; stroke:none;" />
 <path d="  M 4,2  L 4,1  L 3,1  L 3,2  Z  " style="fill:rgb(185, 133, 92); fill-opacity:1.000; stroke:none;" />
 <path d="  M 6,1  L 7,1  L 7,0  L 6,0  Z  " style="fill:rgb(185, 133, 92); fill-opacity:1.000; stroke:none;" />
 <path d="  M 11,2  L 11,3  L 12,3  L 12,2  Z  " style="fill:rgb(185, 133, 92); fill-opacity:1.000; stroke:none;" />
 <path d="  M 13,0  L 13,1  L 14,1  L 14,0  Z  " style="fill:rgb(185, 133, 92); fill-opacity:1.000; stroke:none;" />
 <path d="  M 4,5  L 5,5  L 5,3  L 4,3  L 4,2  L 3,2  L 3,4  L 4,4  Z  " style="fill:rgb(187, 151, 137); fill-opacity:1.000; stroke:none;" />
 <path d="  M 9,4  L 8,4  L 8,3  L 7,3  L 7,5  L 8,5  L 8,6  L 9,6  Z  " style="fill:rgb(187, 151, 137); fill-opacity:1.000; stroke:none;" />
 <path d="  M 7,8  L 7,9  L 8,9  L 8,8  Z  " style="fill:rgb(187, 151, 137); fill-opacity:1.000; stroke:none;" />
 <path d="  M 8,7  L 8,8  L 10,8  L 10,6  L 9,6  L 9,7  Z  " style="fill:rgb(187, 151, 137); fill-opacity:1.000; stroke:none;" />
 <path d="  M 11,5  L 12,5  L 12,3  L 11,3  Z  " style="fill:rgb(187, 151, 137); fill-opacity:1.000; stroke:none;" />
 <path d="  M 15,5  L 15,3  L 14,3  L 14,5  Z  " style="fill:rgb(187, 151, 137); fill-opacity:1.000; stroke:none;" />
 <path d="  M 6,1  L 6,2  L 7,2  L 7,1  Z  " style="fill:rgb(150, 108, 74); fill-opacity:1.000; stroke:none;" />
 <path d="  M 8,1  L 8,0  L 7,0  L 7,1  Z  " style="fill:rgb(150, 108, 74); fill-opacity:1.000; stroke:none;" />
 <path d="  M 7,3  L 8,3  L 8,2  L 7,2  Z  " style="fill:rgb(150, 108, 74); fill-opacity:1.000; stroke:none;" />
 <path d="  M 8,3  L 8,4  L 9,4  L 9,3  Z  " style="fill:rgb(150, 108, 74); fill-opacity:1.000; stroke:none;" />
 <path d="  M 12,1  L 11,1  L 11,2  L 12,2  Z  " style="fill:rgb(150, 108, 74); fill-opacity:1.000; stroke:none;" />
 <path d="  M 13,1  L 13,0  L 12,0  L 12,1  Z  " style="fill:rgb(150, 108, 74); fill-opacity:1.000; stroke:none;" />
</svg>
