<?xml version="1.0" encoding="UTF-8" standalone="no"?>
<!DOCTYPE svg PUBLIC "-//W3C//DTD SVG 1.1//EN" 
  "http://www.w3.org/Graphics/SVG/1.1/DTD/svg11.dtd">
<svg width="16" height="16"
	 xmlns="http://www.w3.org/2000/svg" version="1.1">
 <path d="  M 1,7  L 0,7  L 0,8  L 1,8  Z  " style="fill:rgb(156, 156, 156); fill-opacity:1.000; stroke:none;" />
 <path d="  M 3,5  L 3,4  L 2,4  L 2,5  Z  " style="fill:rgb(156, 156, 156); fill-opacity:1.000; stroke:none;" />
 <path d="  M 2,12  L 3,12  L 3,10  L 2,10  Z  " style="fill:rgb(156, 156, 156); fill-opacity:1.000; stroke:none;" />
 <path d="  M 3,14  L 2,14  L 2,15  L 3,15  Z  " style="fill:rgb(156, 156, 156); fill-opacity:1.000; stroke:none;" />
 <path d="  M 4,3  L 5,3  L 5,2  L 4,2  Z  " style="fill:rgb(156, 156, 156); fill-opacity:1.000; stroke:none;" />
 <path d="  M 7,7  L 8,7  L 8,6  L 7,6  Z  " style="fill:rgb(156, 156, 156); fill-opacity:1.000; stroke:none;" />
 <path d="  M 7,11  L 8,11  L 8,9  L 7,9  Z  " style="fill:rgb(156, 156, 156); fill-opacity:1.000; stroke:none;" />
 <path d="  M 7,16  L 8,16  L 8,14  L 7,14  Z  " style="fill:rgb(156, 156, 156); fill-opacity:1.000; stroke:none;" />
 <path d="  M 8,12  L 8,13  L 11,13  L 11,12  Z  " style="fill:rgb(156, 156, 156); fill-opacity:1.000; stroke:none;" />
 <path d="  M 12,5  L 13,5  L 13,2  L 12,2  Z  " style="fill:rgb(156, 156, 156); fill-opacity:1.000; stroke:none;" />
 <path d="  M 13,15  L 13,14  L 12,14  L 12,15  Z  " style="fill:rgb(156, 156, 156); fill-opacity:1.000; stroke:none;" />
 <path d="  M 13,7  L 13,8  L 15,8  L 15,7  Z  " style="fill:rgb(156, 156, 156); fill-opacity:1.000; stroke:none;" />
 <path d="  M 0,8  L 0,9  L 1,9  L 1,8  Z  " style="fill:rgb(104, 104, 104); fill-opacity:1.000; stroke:none;" />
 <path d="  M 3,6  L 4,6  L 4,5  L 3,5  Z  " style="fill:rgb(104, 104, 104); fill-opacity:1.000; stroke:none;" />
 <path d="  M 4,11  L 3,11  L 3,16  L 4,16  Z  " style="fill:rgb(104, 104, 104); fill-opacity:1.000; stroke:none;" />
 <path d="  M 4,3  L 4,4  L 6,4  L 6,3  Z  " style="fill:rgb(104, 104, 104); fill-opacity:1.000; stroke:none;" />
 <path d="  M 9,2  L 9,0  L 8,0  L 8,2  Z  " style="fill:rgb(104, 104, 104); fill-opacity:1.000; stroke:none;" />
 <path d="  M 8,10  L 9,10  L 9,5  L 8,5  Z  " style="fill:rgb(104, 104, 104); fill-opacity:1.000; stroke:none;" />
 <path d="  M 9,15  L 8,15  L 8,16  L 9,16  Z  " style="fill:rgb(104, 104, 104); fill-opacity:1.000; stroke:none;" />
 <path d="  M 9,13  L 9,14  L 11,14  L 11,13  Z  " style="fill:rgb(104, 104, 104); fill-opacity:1.000; stroke:none;" />
 <path d="  M 14,4  L 14,0  L 13,0  L 13,4  Z  " style="fill:rgb(104, 104, 104); fill-opacity:1.000; stroke:none;" />
 <path d="  M 14,12  L 13,12  L 13,16  L 14,16  Z  " style="fill:rgb(104, 104, 104); fill-opacity:1.000; stroke:none;" />
 <path d="  M 14,9  L 16,9  L 16,8  L 14,8  Z  " style="fill:rgb(104, 104, 104); fill-opacity:1.000; stroke:none;" />
 <path d="  M 3,6  L 2,6  L 2,7  L 1,7  L 1,8  L 3,8  Z  " style="fill:rgb(197, 197, 197); fill-opacity:1.000; stroke:none;" />
 <path d="  M 2,3  L 3,3  L 3,1  L 2,1  Z  " style="fill:rgb(197, 197, 197); fill-opacity:1.000; stroke:none;" />
 <path d="  M 8,3  L 8,1  L 7,1  L 7,2  L 6,2  L 6,3  Z  " style="fill:rgb(197, 197, 197); fill-opacity:1.000; stroke:none;" />
 <path d="  M 7,11  L 7,13  L 8,13  L 8,11  Z  " style="fill:rgb(197, 197, 197); fill-opacity:1.000; stroke:none;" />
 <path d="  M 13,11  L 12,11  L 12,12  L 11,12  L 11,13  L 13,13  Z  " style="fill:rgb(197, 197, 197); fill-opacity:1.000; stroke:none;" />
 <path d="  M 12,6  L 12,8  L 13,8  L 13,6  Z  " style="fill:rgb(197, 197, 197); fill-opacity:1.000; stroke:none;" />
 <path d="  M 2,9  L 2,8  L 1,8  L 1,9  Z  " style="fill:rgb(114, 121, 110); fill-opacity:1.000; stroke:none;" />
 <path d="  M 3,6  L 3,5  L 2,5  L 2,6  Z  " style="fill:rgb(114, 121, 110); fill-opacity:1.000; stroke:none;" />
 <path d="  M 3,12  L 2,12  L 2,14  L 3,14  Z  " style="fill:rgb(114, 121, 110); fill-opacity:1.000; stroke:none;" />
 <path d="  M 3,0  L 3,2  L 4,2  L 4,0  Z  " style="fill:rgb(114, 121, 110); fill-opacity:1.000; stroke:none;" />
 <path d="  M 3,3  L 3,5  L 4,5  L 4,3  Z  " style="fill:rgb(114, 121, 110); fill-opacity:1.000; stroke:none;" />
 <path d="  M 4,6  L 3,6  L 3,11  L 4,11  Z  " style="fill:rgb(114, 121, 110); fill-opacity:1.000; stroke:none;" />
 <path d="  M 5,3  L 6,3  L 6,2  L 5,2  Z  " style="fill:rgb(114, 121, 110); fill-opacity:1.000; stroke:none;" />
 <path d="  M 6,4  L 7,4  L 7,3  L 6,3  Z  " style="fill:rgb(114, 121, 110); fill-opacity:1.000; stroke:none;" />
 <path d="  M 8,1  L 8,0  L 7,0  L 7,1  Z  " style="fill:rgb(114, 121, 110); fill-opacity:1.000; stroke:none;" />
 <path d="  M 7,9  L 8,9  L 8,7  L 7,7  Z  " style="fill:rgb(114, 121, 110); fill-opacity:1.000; stroke:none;" />
 <path d="  M 9,2  L 8,2  L 8,5  L 9,5  Z  " style="fill:rgb(114, 121, 110); fill-opacity:1.000; stroke:none;" />
 <path d="  M 9,10  L 8,10  L 8,12  L 9,12  Z  " style="fill:rgb(114, 121, 110); fill-opacity:1.000; stroke:none;" />
 <path d="  M 8,13  L 8,15  L 9,15  L 9,13  Z  " style="fill:rgb(114, 121, 110); fill-opacity:1.000; stroke:none;" />
 <path d="  M 12,13  L 11,13  L 11,14  L 12,14  Z  " style="fill:rgb(114, 121, 110); fill-opacity:1.000; stroke:none;" />
 <path d="  M 12,2  L 13,2  L 13,0  L 12,0  Z  " style="fill:rgb(114, 121, 110); fill-opacity:1.000; stroke:none;" />
 <path d="  M 12,16  L 13,16  L 13,15  L 12,15  Z  " style="fill:rgb(114, 121, 110); fill-opacity:1.000; stroke:none;" />
 <path d="  M 14,7  L 14,4  L 13,4  L 13,7  Z  " style="fill:rgb(114, 121, 110); fill-opacity:1.000; stroke:none;" />
 <path d="  M 14,8  L 13,8  L 13,12  L 14,12  Z  " style="fill:rgb(114, 121, 110); fill-opacity:1.000; stroke:none;" />
 <path d="  M 15,7  L 15,8  L 16,8  L 16,7  Z  " style="fill:rgb(114, 121, 110); fill-opacity:1.000; stroke:none;" />
 <path d="  M 3,0  L 2,0  L 2,1  L 3,1  Z  " style="fill:rgb(171, 172, 171); fill-opacity:1.000; stroke:none;" />
 <path d="  M 2,3  L 2,4  L 3,4  L 3,3  Z  " style="fill:rgb(171, 172, 171); fill-opacity:1.000; stroke:none;" />
 <path d="  M 3,10  L 3,8  L 2,8  L 2,10  Z  " style="fill:rgb(171, 172, 171); fill-opacity:1.000; stroke:none;" />
 <path d="  M 3,15  L 2,15  L 2,16  L 3,16  Z  " style="fill:rgb(171, 172, 171); fill-opacity:1.000; stroke:none;" />
 <path d="  M 3,2  L 3,3  L 4,3  L 4,2  Z  " style="fill:rgb(171, 172, 171); fill-opacity:1.000; stroke:none;" />
 <path d="  M 8,3  L 7,3  L 7,6  L 8,6  Z  " style="fill:rgb(171, 172, 171); fill-opacity:1.000; stroke:none;" />
 <path d="  M 7,13  L 7,14  L 8,14  L 8,13  Z  " style="fill:rgb(171, 172, 171); fill-opacity:1.000; stroke:none;" />
 <path d="  M 13,6  L 13,5  L 12,5  L 12,6  Z  " style="fill:rgb(171, 172, 171); fill-opacity:1.000; stroke:none;" />
 <path d="  M 12,8  L 12,11  L 13,11  L 13,8  Z  " style="fill:rgb(171, 172, 171); fill-opacity:1.000; stroke:none;" />
 <path d="  M 12,13  L 12,14  L 13,14  L 13,13  Z  " style="fill:rgb(171, 172, 171); fill-opacity:1.000; stroke:none;" />
</svg>
