<?xml version="1.0" encoding="UTF-8" standalone="no"?>
<!DOCTYPE svg PUBLIC "-//W3C//DTD SVG 1.1//EN" 
  "http://www.w3.org/Graphics/SVG/1.1/DTD/svg11.dtd">
<svg width="16" height="16"
	 xmlns="http://www.w3.org/2000/svg" version="1.1">
 <path d="  M 1,1  L 1,0  L 0,0  L 0,1  Z  " style="fill:rgb(51, 51, 51); fill-opacity:1.000; stroke:none;" />
 <path d="  M 1,15  L 0,15  L 0,16  L 1,16  Z  " style="fill:rgb(51, 51, 51); fill-opacity:1.000; stroke:none;" />
 <path d="  M 1,6  L 2,6  L 2,5  L 1,5  Z  " style="fill:rgb(51, 51, 51); fill-opacity:1.000; stroke:none;" />
 <path d="  M 2,9  L 2,8  L 1,8  L 1,9  Z  " style="fill:rgb(51, 51, 51); fill-opacity:1.000; stroke:none;" />
 <path d="  M 2,3  L 2,4  L 3,4  L 3,3  Z  " style="fill:rgb(51, 51, 51); fill-opacity:1.000; stroke:none;" />
 <path d="  M 4,2  L 5,2  L 5,1  L 4,1  Z  " style="fill:rgb(51, 51, 51); fill-opacity:1.000; stroke:none;" />
 <path d="  M 6,1  L 6,2  L 8,2  L 8,1  Z  " style="fill:rgb(51, 51, 51); fill-opacity:1.000; stroke:none;" />
 <path d="  M 8,15  L 8,14  L 7,14  L 7,15  Z  " style="fill:rgb(51, 51, 51); fill-opacity:1.000; stroke:none;" />
 <path d="  M 9,2  L 10,2  L 10,1  L 9,1  Z  " style="fill:rgb(51, 51, 51); fill-opacity:1.000; stroke:none;" />
 <path d="  M 10,14  L 10,15  L 11,15  L 11,14  Z  " style="fill:rgb(51, 51, 51); fill-opacity:1.000; stroke:none;" />
 <path d="  M 12,4  L 12,3  L 11,3  L 11,4  Z  " style="fill:rgb(51, 51, 51); fill-opacity:1.000; stroke:none;" />
 <path d="  M 13,4  L 12,4  L 12,5  L 13,5  Z  " style="fill:rgb(51, 51, 51); fill-opacity:1.000; stroke:none;" />
 <path d="  M 15,6  L 14,6  L 14,7  L 15,7  Z  " style="fill:rgb(51, 51, 51); fill-opacity:1.000; stroke:none;" />
 <path d="  M 15,15  L 15,16  L 16,16  L 16,15  Z  " style="fill:rgb(51, 51, 51); fill-opacity:1.000; stroke:none;" />
 <path d="  M 0,1  L 0,2  L 1,2  L 1,1  Z  " style="fill:rgb(53, 54, 53); fill-opacity:1.000; stroke:none;" />
 <path d="  M 1,15  L 1,14  L 0,14  L 0,15  Z  " style="fill:rgb(53, 54, 53); fill-opacity:1.000; stroke:none;" />
 <path d="  M 1,1  L 2,1  L 2,0  L 1,0  Z  " style="fill:rgb(53, 54, 53); fill-opacity:1.000; stroke:none;" />
 <path d="  M 1,13  L 2,13  L 2,12  L 1,12  Z  " style="fill:rgb(53, 54, 53); fill-opacity:1.000; stroke:none;" />
 <path d="  M 1,16  L 2,16  L 2,15  L 1,15  Z  " style="fill:rgb(53, 54, 53); fill-opacity:1.000; stroke:none;" />
 <path d="  M 3,15  L 4,15  L 4,14  L 3,14  Z  " style="fill:rgb(53, 54, 53); fill-opacity:1.000; stroke:none;" />
 <path d="  M 12,13  L 12,14  L 13,14  L 13,13  Z  " style="fill:rgb(53, 54, 53); fill-opacity:1.000; stroke:none;" />
 <path d="  M 16,2  L 16,0  L 14,0  L 14,1  L 15,1  L 15,2  Z  " style="fill:rgb(53, 54, 53); fill-opacity:1.000; stroke:none;" />
 <path d="  M 15,11  L 14,11  L 14,12  L 15,12  Z  " style="fill:rgb(53, 54, 53); fill-opacity:1.000; stroke:none;" />
 <path d="  M 14,16  L 15,16  L 15,15  L 14,15  Z  " style="fill:rgb(53, 54, 53); fill-opacity:1.000; stroke:none;" />
 <path d="  M 15,14  L 15,15  L 16,15  L 16,14  Z  " style="fill:rgb(53, 54, 53); fill-opacity:1.000; stroke:none;" />
 <path d="  M 0,14  L 1,14  L 1,12  L 2,12  L 2,9  L 1,9  L 1,5  L 2,5  L 2,3  L 1,3  L 1,2  L 0,2  Z  " style="fill:rgb(38, 29, 42); fill-opacity:1.000; stroke:none;" />
 <path d="  M 9,2  L 9,1  L 14,1  L 14,0  L 2,0  L 2,1  L 5,1  L 5,2  L 6,2  L 6,1  L 8,1  L 8,2  Z  " style="fill:rgb(38, 29, 42); fill-opacity:1.000; stroke:none;" />
 <path d="  M 14,16  L 14,15  L 13,15  L 13,14  L 11,14  L 11,15  L 7,15  L 7,14  L 4,14  L 4,15  L 2,15  L 2,16  Z  " style="fill:rgb(38, 29, 42); fill-opacity:1.000; stroke:none;" />
 <path d="  M 13,3  L 12,3  L 12,4  L 13,4  Z  " style="fill:rgb(38, 29, 42); fill-opacity:1.000; stroke:none;" />
 <path d="  M 16,2  L 15,2  L 15,7  L 14,7  L 14,11  L 15,11  L 15,14  L 16,14  Z  " style="fill:rgb(38, 29, 42); fill-opacity:1.000; stroke:none;" />
 <path d="  M 1,3  L 4,3  L 4,1  L 1,1  Z  " style="fill:rgb(16, 16, 16); fill-opacity:1.000; stroke:none;" />
 <path d="  M 3,13  L 3,10  L 5,10  L 5,8  L 3,8  L 3,5  L 6,5  L 6,3  L 8,3  L 8,5  L 11,5  L 11,8  L 13,8  L 13,10  L 11,10  L 11,13  L 8,13  L 8,11  L 6,11  L 6,13  Z  M 14,7  L 12,7  L 12,4  L 9,4  L 9,2  L 5,2  L 5,4  L 2,4  L 2,14  L 12,14  L 12,11  L 14,11  Z  " style="fill:rgb(16, 16, 16); fill-opacity:1.000; stroke:none;" />
 <path d="  M 15,1  L 10,1  L 10,3  L 13,3  L 13,6  L 15,6  Z  " style="fill:rgb(16, 16, 16); fill-opacity:1.000; stroke:none;" />
 <path d="  M 13,15  L 15,15  L 15,12  L 13,12  Z  " style="fill:rgb(16, 16, 16); fill-opacity:1.000; stroke:none;" />
 <path d="  M 2,8  L 2,6  L 1,6  L 1,8  Z  " style="fill:rgb(118, 99, 118); fill-opacity:1.000; stroke:none;" />
 <path d="  M 2,13  L 1,13  L 1,15  L 3,15  L 3,14  L 2,14  Z  " style="fill:rgb(118, 99, 118); fill-opacity:1.000; stroke:none;" />
 <path d="  M 3,3  L 3,4  L 5,4  L 5,2  L 4,2  L 4,3  Z  " style="fill:rgb(118, 99, 118); fill-opacity:1.000; stroke:none;" />
 <path d="  M 10,14  L 8,14  L 8,15  L 10,15  Z  " style="fill:rgb(118, 99, 118); fill-opacity:1.000; stroke:none;" />
 <path d="  M 11,3  L 10,3  L 10,2  L 9,2  L 9,4  L 11,4  Z  " style="fill:rgb(118, 99, 118); fill-opacity:1.000; stroke:none;" />
 <path d="  M 13,6  L 13,5  L 12,5  L 12,7  L 14,7  L 14,6  Z  " style="fill:rgb(118, 99, 118); fill-opacity:1.000; stroke:none;" />
 <path d="  M 12,11  L 12,13  L 13,13  L 13,12  L 14,12  L 14,11  Z  " style="fill:rgb(118, 99, 118); fill-opacity:1.000; stroke:none;" />
 <path d="  M 3,6  L 4,6  L 4,5  L 3,5  Z  " style="fill:rgb(194, 160, 194); fill-opacity:1.000; stroke:none;" />
 <path d="  M 5,7  L 4,7  L 4,8  L 5,8  Z  " style="fill:rgb(194, 160, 194); fill-opacity:1.000; stroke:none;" />
 <path d="  M 4,13  L 5,13  L 5,12  L 4,12  Z  " style="fill:rgb(194, 160, 194); fill-opacity:1.000; stroke:none;" />
 <path d="  M 6,12  L 6,11  L 5,11  L 5,12  Z  " style="fill:rgb(194, 160, 194); fill-opacity:1.000; stroke:none;" />
 <path d="  M 6,4  L 7,4  L 7,3  L 6,3  Z  " style="fill:rgb(194, 160, 194); fill-opacity:1.000; stroke:none;" />
 <path d="  M 8,12  L 9,12  L 9,11  L 8,11  Z  " style="fill:rgb(194, 160, 194); fill-opacity:1.000; stroke:none;" />
 <path d="  M 9,6  L 10,6  L 10,5  L 9,5  Z  " style="fill:rgb(194, 160, 194); fill-opacity:1.000; stroke:none;" />
 <path d="  M 10,12  L 9,12  L 9,13  L 10,13  Z  " style="fill:rgb(194, 160, 194); fill-opacity:1.000; stroke:none;" />
 <path d="  M 10,7  L 11,7  L 11,6  L 10,6  Z  " style="fill:rgb(194, 160, 194); fill-opacity:1.000; stroke:none;" />
 <path d="  M 11,12  L 11,11  L 10,11  L 10,12  Z  " style="fill:rgb(194, 160, 194); fill-opacity:1.000; stroke:none;" />
 <path d="  M 11,9  L 11,10  L 12,10  L 12,9  Z  " style="fill:rgb(194, 160, 194); fill-opacity:1.000; stroke:none;" />
 <path d="  M 12,9  L 13,9  L 13,8  L 12,8  Z  " style="fill:rgb(194, 160, 194); fill-opacity:1.000; stroke:none;" />
 <path d="  M 3,7  L 4,7  L 4,6  L 3,6  Z  " style="fill:rgb(215, 179, 215); fill-opacity:1.000; stroke:none;" />
 <path d="  M 6,6  L 6,5  L 4,5  L 4,6  Z  " style="fill:rgb(215, 179, 215); fill-opacity:1.000; stroke:none;" />
 <path d="  M 5,8  L 5,9  L 6,9  L 6,8  Z  " style="fill:rgb(215, 179, 215); fill-opacity:1.000; stroke:none;" />
 <path d="  M 6,4  L 6,5  L 7,5  L 7,4  Z  " style="fill:rgb(215, 179, 215); fill-opacity:1.000; stroke:none;" />
 <path d="  M 8,11  L 8,10  L 6,10  L 6,11  Z  " style="fill:rgb(215, 179, 215); fill-opacity:1.000; stroke:none;" />
 <path d="  M 8,3  L 7,3  L 7,4  L 8,4  Z  " style="fill:rgb(215, 179, 215); fill-opacity:1.000; stroke:none;" />
 <path d="  M 10,7  L 10,6  L 9,6  L 9,7  Z  " style="fill:rgb(215, 179, 215); fill-opacity:1.000; stroke:none;" />
 <path d="  M 10,10  L 11,10  L 11,9  L 12,9  L 12,8  L 11,8  L 11,7  L 10,7  Z  " style="fill:rgb(215, 179, 215); fill-opacity:1.000; stroke:none;" />
 <path d="  M 3,8  L 4,8  L 4,7  L 3,7  Z  " style="fill:rgb(150, 120, 150); fill-opacity:1.000; stroke:none;" />
 <path d="  M 4,12  L 3,12  L 3,13  L 4,13  Z  " style="fill:rgb(150, 120, 150); fill-opacity:1.000; stroke:none;" />
 <path d="  M 5,12  L 5,13  L 6,13  L 6,12  Z  " style="fill:rgb(150, 120, 150); fill-opacity:1.000; stroke:none;" />
 <path d="  M 8,13  L 9,13  L 9,12  L 8,12  Z  " style="fill:rgb(150, 120, 150); fill-opacity:1.000; stroke:none;" />
 <path d="  M 11,5  L 10,5  L 10,6  L 11,6  Z  " style="fill:rgb(150, 120, 150); fill-opacity:1.000; stroke:none;" />
 <path d="  M 11,13  L 11,12  L 10,12  L 10,13  Z  " style="fill:rgb(150, 120, 150); fill-opacity:1.000; stroke:none;" />
 <path d="  M 13,9  L 12,9  L 12,10  L 13,10  Z  " style="fill:rgb(150, 120, 150); fill-opacity:1.000; stroke:none;" />
 <path d="  M 6,8  L 6,9  L 5,9  L 5,10  L 3,10  L 3,12  L 5,12  L 5,11  L 6,11  L 6,10  L 8,10  L 8,11  L 9,11  L 9,12  L 10,12  L 10,11  L 11,11  L 11,10  L 10,10  L 10,7  L 9,7  L 9,5  L 8,5  L 8,4  L 7,4  L 7,5  L 6,5  L 6,6  L 4,6  L 4,7  L 5,7  L 5,8  Z  " style="fill:rgb(215, 194, 215); fill-opacity:1.000; stroke:none;" />
</svg>
