<?xml version="1.0" encoding="UTF-8" standalone="no"?>
<!DOCTYPE svg PUBLIC "-//W3C//DTD SVG 1.1//EN" 
  "http://www.w3.org/Graphics/SVG/1.1/DTD/svg11.dtd">
<svg width="16" height="16"
	 xmlns="http://www.w3.org/2000/svg" version="1.1">
 <path d="  M 0,0  L 0,2  L 1,2  L 1,0  Z  " style="fill:rgb(126, 98, 55); fill-opacity:1.000; stroke:none;" />
 <path d="  M 1,2  L 1,3  L 15,3  L 15,2  Z  " style="fill:rgb(126, 98, 55); fill-opacity:1.000; stroke:none;" />
 <path d="  M 2,9  L 5,9  L 5,8  L 2,8  Z  " style="fill:rgb(126, 98, 55); fill-opacity:1.000; stroke:none;" />
 <path d="  M 7,14  L 7,13  L 6,13  L 6,10  L 8,10  L 8,9  L 5,9  L 5,10  L 3,10  L 3,13  L 4,13  L 4,14  Z  " style="fill:rgb(126, 98, 55); fill-opacity:1.000; stroke:none;" />
 <path d="  M 4,16  L 7,16  L 7,15  L 4,15  Z  " style="fill:rgb(126, 98, 55); fill-opacity:1.000; stroke:none;" />
 <path d="  M 10,14  L 7,14  L 7,15  L 10,15  Z  " style="fill:rgb(126, 98, 55); fill-opacity:1.000; stroke:none;" />
 <path d="  M 16,2  L 16,0  L 15,0  L 15,2  Z  " style="fill:rgb(126, 98, 55); fill-opacity:1.000; stroke:none;" />
 <path d="  M 1,3  L 1,2  L 0,2  L 0,4  L 16,4  L 16,2  L 15,2  L 15,3  Z  " style="fill:rgb(150, 116, 65); fill-opacity:1.000; stroke:none;" />
 <path d="  M 1,7  L 0,7  L 0,8  L 1,8  Z  " style="fill:rgb(150, 116, 65); fill-opacity:1.000; stroke:none;" />
 <path d="  M 1,0  L 1,2  L 2,2  L 2,1  L 3,1  L 3,0  Z  " style="fill:rgb(150, 116, 65); fill-opacity:1.000; stroke:none;" />
 <path d="  M 4,8  L 5,8  L 5,5  L 4,5  Z  " style="fill:rgb(150, 116, 65); fill-opacity:1.000; stroke:none;" />
 <path d="  M 5,8  L 5,9  L 8,9  L 8,8  Z  " style="fill:rgb(150, 116, 65); fill-opacity:1.000; stroke:none;" />
 <path d="  M 8,9  L 8,10  L 6,10  L 6,13  L 7,13  L 7,14  L 10,14  L 10,13  L 9,13  L 9,10  L 11,10  L 11,9  Z  " style="fill:rgb(150, 116, 65); fill-opacity:1.000; stroke:none;" />
 <path d="  M 10,16  L 10,15  L 7,15  L 7,16  Z  " style="fill:rgb(150, 116, 65); fill-opacity:1.000; stroke:none;" />
 <path d="  M 12,15  L 12,14  L 10,14  L 10,15  Z  " style="fill:rgb(150, 116, 65); fill-opacity:1.000; stroke:none;" />
 <path d="  M 11,8  L 12,8  L 12,5  L 11,5  Z  " style="fill:rgb(150, 116, 65); fill-opacity:1.000; stroke:none;" />
 <path d="  M 13,0  L 13,1  L 14,1  L 14,2  L 15,2  L 15,0  Z  " style="fill:rgb(150, 116, 65); fill-opacity:1.000; stroke:none;" />
 <path d="  M 13,10  L 14,10  L 14,9  L 13,9  Z  " style="fill:rgb(150, 116, 65); fill-opacity:1.000; stroke:none;" />
 <path d="  M 15,7  L 15,8  L 16,8  L 16,7  Z  " style="fill:rgb(150, 116, 65); fill-opacity:1.000; stroke:none;" />
 <path d="  M 3,5  L 3,4  L 0,4  L 0,5  Z  " style="fill:rgb(184, 148, 95); fill-opacity:1.000; stroke:none;" />
 <path d="  M 3,5  L 3,7  L 4,7  L 4,5  Z  " style="fill:rgb(184, 148, 95); fill-opacity:1.000; stroke:none;" />
 <path d="  M 4,5  L 10,5  L 10,4  L 4,4  Z  " style="fill:rgb(184, 148, 95); fill-opacity:1.000; stroke:none;" />
 <path d="  M 11,5  L 10,5  L 10,7  L 11,7  Z  " style="fill:rgb(184, 148, 95); fill-opacity:1.000; stroke:none;" />
 <path d="  M 11,4  L 11,5  L 14,5  L 14,4  Z  " style="fill:rgb(184, 148, 95); fill-opacity:1.000; stroke:none;" />
 <path d="  M 16,5  L 15,5  L 15,7  L 16,7  Z  " style="fill:rgb(184, 148, 95); fill-opacity:1.000; stroke:none;" />
 <path d="  M 3,7  L 3,5  L 0,5  L 0,7  Z  " style="fill:rgb(181, 141, 80); fill-opacity:1.000; stroke:none;" />
 <path d="  M 4,1  L 5,1  L 5,0  L 4,0  Z  " style="fill:rgb(181, 141, 80); fill-opacity:1.000; stroke:none;" />
 <path d="  M 5,5  L 5,7  L 10,7  L 10,5  Z  " style="fill:rgb(181, 141, 80); fill-opacity:1.000; stroke:none;" />
 <path d="  M 6,1  L 8,1  L 8,0  L 6,0  Z  " style="fill:rgb(181, 141, 80); fill-opacity:1.000; stroke:none;" />
 <path d="  M 9,1  L 12,1  L 12,0  L 9,0  Z  " style="fill:rgb(181, 141, 80); fill-opacity:1.000; stroke:none;" />
 <path d="  M 14,9  L 14,15  L 12,15  L 12,16  L 15,16  L 15,8  L 10,8  L 10,9  Z  " style="fill:rgb(181, 141, 80); fill-opacity:1.000; stroke:none;" />
 <path d="  M 11,10  L 11,13  L 12,13  L 12,14  L 13,14  L 13,10  Z  " style="fill:rgb(181, 141, 80); fill-opacity:1.000; stroke:none;" />
 <path d="  M 12,5  L 12,7  L 15,7  L 15,5  Z  " style="fill:rgb(181, 141, 80); fill-opacity:1.000; stroke:none;" />
 <path d="  M 2,9  L 2,8  L 0,8  L 0,16  L 4,16  L 4,15  L 7,15  L 7,14  L 4,14  L 4,13  L 3,13  L 3,10  L 5,10  L 5,9  Z  " style="fill:rgb(103, 80, 44); fill-opacity:1.000; stroke:none;" />
 <path d="  M 14,2  L 14,1  L 2,1  L 2,2  Z  " style="fill:rgb(103, 80, 44); fill-opacity:1.000; stroke:none;" />
 <path d="  M 1,7  L 1,8  L 4,8  L 4,7  Z  " style="fill:rgb(166, 130, 77); fill-opacity:1.000; stroke:none;" />
 <path d="  M 3,0  L 3,1  L 4,1  L 4,0  Z  " style="fill:rgb(166, 130, 77); fill-opacity:1.000; stroke:none;" />
 <path d="  M 5,0  L 5,1  L 6,1  L 6,0  Z  " style="fill:rgb(166, 130, 77); fill-opacity:1.000; stroke:none;" />
 <path d="  M 5,7  L 5,8  L 8,8  L 8,9  L 10,9  L 10,8  L 11,8  L 11,7  Z  " style="fill:rgb(166, 130, 77); fill-opacity:1.000; stroke:none;" />
 <path d="  M 8,0  L 8,1  L 9,1  L 9,0  Z  " style="fill:rgb(166, 130, 77); fill-opacity:1.000; stroke:none;" />
 <path d="  M 11,10  L 9,10  L 9,13  L 10,13  L 10,14  L 12,14  L 12,13  L 11,13  Z  " style="fill:rgb(166, 130, 77); fill-opacity:1.000; stroke:none;" />
 <path d="  M 10,16  L 12,16  L 12,15  L 10,15  Z  " style="fill:rgb(166, 130, 77); fill-opacity:1.000; stroke:none;" />
 <path d="  M 13,10  L 13,9  L 11,9  L 11,10  Z  " style="fill:rgb(166, 130, 77); fill-opacity:1.000; stroke:none;" />
 <path d="  M 13,1  L 13,0  L 12,0  L 12,1  Z  " style="fill:rgb(166, 130, 77); fill-opacity:1.000; stroke:none;" />
 <path d="  M 12,7  L 12,8  L 15,8  L 15,7  Z  " style="fill:rgb(166, 130, 77); fill-opacity:1.000; stroke:none;" />
 <path d="  M 14,15  L 14,10  L 13,10  L 13,14  L 12,14  L 12,15  Z  " style="fill:rgb(166, 130, 77); fill-opacity:1.000; stroke:none;" />
 <path d="  M 16,8  L 15,8  L 15,16  L 16,16  Z  " style="fill:rgb(166, 130, 77); fill-opacity:1.000; stroke:none;" />
 <path d="  M 4,5  L 4,4  L 3,4  L 3,5  Z  " style="fill:rgb(193, 159, 106); fill-opacity:1.000; stroke:none;" />
 <path d="  M 11,5  L 11,4  L 10,4  L 10,5  Z  " style="fill:rgb(193, 159, 106); fill-opacity:1.000; stroke:none;" />
 <path d="  M 16,5  L 16,4  L 14,4  L 14,5  Z  " style="fill:rgb(193, 159, 106); fill-opacity:1.000; stroke:none;" />
</svg>
