<?xml version="1.0" encoding="UTF-8" standalone="no"?>
<!DOCTYPE svg PUBLIC "-//W3C//DTD SVG 1.1//EN" 
  "http://www.w3.org/Graphics/SVG/1.1/DTD/svg11.dtd">
<svg width="16" height="16"
	 xmlns="http://www.w3.org/2000/svg" version="1.1">
 <path d="  M 0,0  L 0,16  L 16,16  L 16,0  Z  M 15,11  L 15,13  L 14,13  L 14,14  L 15,14  L 15,15  L 1,15  L 1,1  L 15,1  L 15,4  L 14,4  L 14,5  L 15,5  L 15,7  L 14,7  L 14,8  L 15,8  L 15,10  L 14,10  L 14,11  Z  " style="fill:rgb(82, 65, 39); fill-opacity:1.000; stroke:none;" />
 <path d="  M 14,4  L 14,2  L 2,2  L 2,4  Z  " style="fill:rgb(82, 65, 39); fill-opacity:1.000; stroke:none;" />
 <path d="  M 2,5  L 2,7  L 14,7  L 14,5  Z  " style="fill:rgb(82, 65, 39); fill-opacity:1.000; stroke:none;" />
 <path d="  M 2,10  L 14,10  L 14,8  L 2,8  Z  " style="fill:rgb(82, 65, 39); fill-opacity:1.000; stroke:none;" />
 <path d="  M 2,11  L 2,13  L 14,13  L 14,11  Z  " style="fill:rgb(82, 65, 39); fill-opacity:1.000; stroke:none;" />
 <path d="  M 14,8  L 14,7  L 2,7  L 2,5  L 14,5  L 14,4  L 2,4  L 2,2  L 14,2  L 14,1  L 1,1  L 1,14  L 14,14  L 14,13  L 2,13  L 2,11  L 14,11  L 14,10  L 2,10  L 2,8  Z  " style="fill:rgb(50, 39, 24); fill-opacity:1.000; stroke:none;" />
 <path d="  M 1,14  L 1,15  L 15,15  L 15,14  Z  " style="fill:rgb(128, 99, 55); fill-opacity:1.000; stroke:none;" />
 <path d="  M 14,4  L 15,4  L 15,1  L 14,1  Z  " style="fill:rgb(105, 84, 51); fill-opacity:1.000; stroke:none;" />
 <path d="  M 14,7  L 15,7  L 15,5  L 14,5  Z  " style="fill:rgb(105, 84, 51); fill-opacity:1.000; stroke:none;" />
 <path d="  M 15,8  L 14,8  L 14,10  L 15,10  Z  " style="fill:rgb(105, 84, 51); fill-opacity:1.000; stroke:none;" />
 <path d="  M 14,13  L 15,13  L 15,11  L 14,11  Z  " style="fill:rgb(105, 84, 51); fill-opacity:1.000; stroke:none;" />
</svg>
