<?xml version="1.0" encoding="UTF-8" standalone="no"?>
<!DOCTYPE svg PUBLIC "-//W3C//DTD SVG 1.1//EN" 
  "http://www.w3.org/Graphics/SVG/1.1/DTD/svg11.dtd">
<svg width="16" height="16"
	 xmlns="http://www.w3.org/2000/svg" version="1.1">
 <path d="  M 6,7  L 6,6  L 5,6  L 5,7  Z  " style="fill:rgb(181, 181, 181); fill-opacity:1.000; stroke:none;" />
 <path d="  M 7,16  L 8,16  L 8,14  L 7,14  Z  " style="fill:rgb(181, 181, 181); fill-opacity:1.000; stroke:none;" />
 <path d="  M 6,7  L 5,7  L 5,8  L 6,8  Z  " style="fill:rgb(149, 149, 149); fill-opacity:1.000; stroke:none;" />
 <path d="  M 6,1  L 6,2  L 7,2  L 7,1  Z  " style="fill:rgb(140, 140, 140); fill-opacity:1.000; stroke:none;" />
 <path d="  M 7,2  L 6,2  L 6,3  L 7,3  Z  " style="fill:rgb(186, 186, 186); fill-opacity:1.000; stroke:none;" />
 <path d="  M 6,4  L 7,4  L 7,3  L 6,3  Z  " style="fill:rgb(177, 177, 177); fill-opacity:1.000; stroke:none;" />
 <path d="  M 8,12  L 7,12  L 7,14  L 8,14  Z  " style="fill:rgb(177, 177, 177); fill-opacity:1.000; stroke:none;" />
 <path d="  M 6,7  L 6,8  L 7,8  L 7,7  Z  " style="fill:rgb(143, 143, 143); fill-opacity:1.000; stroke:none;" />
 <path d="  M 7,9  L 7,8  L 6,8  L 6,9  Z  " style="fill:rgb(84, 84, 84); fill-opacity:1.000; stroke:none;" />
 <path d="  M 7,3  L 8,3  L 8,2  L 7,2  Z  " style="fill:rgb(84, 84, 84); fill-opacity:1.000; stroke:none;" />
 <path d="  M 8,3  L 7,3  L 7,4  L 8,4  Z  " style="fill:rgb(151, 151, 151); fill-opacity:1.000; stroke:none;" />
 <path d="  M 8,6  L 8,4  L 7,4  L 7,6  Z  " style="fill:rgb(182, 182, 182); fill-opacity:1.000; stroke:none;" />
 <path d="  M 7,7  L 8,7  L 8,6  L 7,6  Z  " style="fill:rgb(195, 195, 195); fill-opacity:1.000; stroke:none;" />
 <path d="  M 8,8  L 8,7  L 7,7  L 7,8  Z  " style="fill:rgb(200, 200, 200); fill-opacity:1.000; stroke:none;" />
 <path d="  M 7,8  L 7,9  L 8,9  L 8,8  Z  " style="fill:rgb(196, 196, 196); fill-opacity:1.000; stroke:none;" />
 <path d="  M 7,11  L 8,11  L 8,9  L 7,9  Z  " style="fill:rgb(215, 215, 215); fill-opacity:1.000; stroke:none;" />
 <path d="  M 7,12  L 8,12  L 8,11  L 7,11  Z  " style="fill:rgb(205, 205, 205); fill-opacity:1.000; stroke:none;" />
 <path d="  M 8,7  L 9,7  L 9,5  L 8,5  Z  " style="fill:rgb(144, 144, 144); fill-opacity:1.000; stroke:none;" />
 <path d="  M 8,7  L 8,8  L 9,8  L 9,7  Z  " style="fill:rgb(111, 111, 111); fill-opacity:1.000; stroke:none;" />
 <path d="  M 9,8  L 8,8  L 8,9  L 9,9  Z  " style="fill:rgb(124, 124, 124); fill-opacity:1.000; stroke:none;" />
 <path d="  M 9,9  L 8,9  L 8,11  L 9,11  Z  " style="fill:rgb(114, 114, 114); fill-opacity:1.000; stroke:none;" />
 <path d="  M 8,12  L 9,12  L 9,11  L 8,11  Z  " style="fill:rgb(147, 147, 147); fill-opacity:1.000; stroke:none;" />
 <path d="  M 9,12  L 8,12  L 8,14  L 9,14  Z  " style="fill:rgb(122, 122, 122); fill-opacity:1.000; stroke:none;" />
 <path d="  M 9,14  L 8,14  L 8,16  L 9,16  Z  " style="fill:rgb(70, 70, 70); fill-opacity:1.000; stroke:none;" />
 <path d="  M 9,9  L 9,11  L 10,11  L 10,9  Z  " style="fill:rgb(183, 183, 183); fill-opacity:1.000; stroke:none;" />
 <path d="  M 10,9  L 11,9  L 11,8  L 10,8  Z  " style="fill:rgb(133, 133, 133); fill-opacity:1.000; stroke:none;" />
</svg>
