<?xml version="1.0" encoding="UTF-8" standalone="no"?>
<!DOCTYPE svg PUBLIC "-//W3C//DTD SVG 1.1//EN" 
  "http://www.w3.org/Graphics/SVG/1.1/DTD/svg11.dtd">
<svg width="16" height="16"
	 xmlns="http://www.w3.org/2000/svg" version="1.1">
 <path d="  M 3,16  L 3,15  L 2,15  L 2,14  L 1,14  L 1,16  Z  " style="fill:rgb(22, 126, 134); fill-opacity:1.000; stroke:none;" />
 <path d="  M 6,14  L 5,14  L 5,16  L 6,16  Z  " style="fill:rgb(22, 126, 134); fill-opacity:1.000; stroke:none;" />
 <path d="  M 7,16  L 8,16  L 8,15  L 7,15  Z  " style="fill:rgb(22, 126, 134); fill-opacity:1.000; stroke:none;" />
 <path d="  M 10,14  L 9,14  L 9,16  L 10,16  Z  " style="fill:rgb(22, 126, 134); fill-opacity:1.000; stroke:none;" />
 <path d="  M 11,16  L 12,16  L 12,14  L 11,14  Z  " style="fill:rgb(22, 126, 134); fill-opacity:1.000; stroke:none;" />
 <path d="  M 14,16  L 15,16  L 15,15  L 14,15  Z  " style="fill:rgb(22, 126, 134); fill-opacity:1.000; stroke:none;" />
 <path d="  M 3,12  L 2,12  L 2,15  L 3,15  Z  " style="fill:rgb(17, 155, 133); fill-opacity:1.000; stroke:none;" />
 <path d="  M 4,16  L 5,16  L 5,14  L 4,14  Z  " style="fill:rgb(17, 155, 133); fill-opacity:1.000; stroke:none;" />
 <path d="  M 6,14  L 6,13  L 5,13  L 5,14  Z  " style="fill:rgb(17, 155, 133); fill-opacity:1.000; stroke:none;" />
 <path d="  M 8,15  L 8,14  L 7,14  L 7,15  Z  " style="fill:rgb(17, 155, 133); fill-opacity:1.000; stroke:none;" />
 <path d="  M 10,12  L 9,12  L 9,14  L 10,14  Z  " style="fill:rgb(17, 155, 133); fill-opacity:1.000; stroke:none;" />
 <path d="  M 12,13  L 11,13  L 11,14  L 12,14  Z  " style="fill:rgb(17, 155, 133); fill-opacity:1.000; stroke:none;" />
 <path d="  M 12,16  L 13,16  L 13,15  L 12,15  Z  " style="fill:rgb(17, 155, 133); fill-opacity:1.000; stroke:none;" />
 <path d="  M 15,14  L 14,14  L 14,15  L 15,15  Z  " style="fill:rgb(17, 155, 133); fill-opacity:1.000; stroke:none;" />
 <path d="  M 4,14  L 5,14  L 5,12  L 4,12  Z  " style="fill:rgb(20, 180, 133); fill-opacity:1.000; stroke:none;" />
 <path d="  M 7,14  L 8,14  L 8,11  L 7,11  Z  " style="fill:rgb(20, 180, 133); fill-opacity:1.000; stroke:none;" />
 <path d="  M 12,15  L 13,15  L 13,12  L 12,12  Z  " style="fill:rgb(20, 180, 133); fill-opacity:1.000; stroke:none;" />
</svg>
