<?xml version="1.0" encoding="UTF-8" standalone="no"?>
<!DOCTYPE svg PUBLIC "-//W3C//DTD SVG 1.1//EN" 
  "http://www.w3.org/Graphics/SVG/1.1/DTD/svg11.dtd">
<svg width="16" height="16"
	 xmlns="http://www.w3.org/2000/svg" version="1.1">
 <path d="  M 1,1  L 1,0  L 0,0  L 0,1  Z  " style="fill:rgb(232, 104, 7); fill-opacity:1.000; stroke:none;" />
 <path d="  M 7,6  L 7,5  L 6,5  L 6,6  Z  " style="fill:rgb(232, 104, 7); fill-opacity:1.000; stroke:none;" />
 <path d="  M 0,1  L 0,2  L 1,2  L 1,1  Z  " style="fill:rgb(241, 115, 18); fill-opacity:1.000; stroke:none;" />
 <path d="  M 1,3  L 0,3  L 0,4  L 1,4  Z  " style="fill:rgb(241, 115, 18); fill-opacity:1.000; stroke:none;" />
 <path d="  M 3,14  L 2,14  L 2,15  L 3,15  Z  " style="fill:rgb(241, 115, 18); fill-opacity:1.000; stroke:none;" />
 <path d="  M 4,5  L 4,4  L 3,4  L 3,5  Z  " style="fill:rgb(241, 115, 18); fill-opacity:1.000; stroke:none;" />
 <path d="  M 13,3  L 12,3  L 12,4  L 13,4  Z  " style="fill:rgb(241, 115, 18); fill-opacity:1.000; stroke:none;" />
 <path d="  M 15,11  L 16,11  L 16,10  L 15,10  Z  " style="fill:rgb(241, 115, 18); fill-opacity:1.000; stroke:none;" />
 <path d="  M 1,2  L 0,2  L 0,3  L 1,3  Z  " style="fill:rgb(249, 128, 29); fill-opacity:1.000; stroke:none;" />
 <path d="  M 4,9  L 3,9  L 3,10  L 4,10  Z  " style="fill:rgb(249, 128, 29); fill-opacity:1.000; stroke:none;" />
 <path d="  M 4,2  L 5,2  L 5,1  L 4,1  Z  " style="fill:rgb(249, 128, 29); fill-opacity:1.000; stroke:none;" />
 <path d="  M 9,7  L 9,6  L 8,6  L 8,7  Z  " style="fill:rgb(249, 128, 29); fill-opacity:1.000; stroke:none;" />
 <path d="  M 9,11  L 10,11  L 10,10  L 9,10  Z  " style="fill:rgb(249, 128, 29); fill-opacity:1.000; stroke:none;" />
 <path d="  M 10,15  L 10,14  L 9,14  L 9,15  Z  " style="fill:rgb(249, 128, 29); fill-opacity:1.000; stroke:none;" />
 <path d="  M 14,16  L 15,16  L 15,15  L 14,15  Z  " style="fill:rgb(249, 128, 29); fill-opacity:1.000; stroke:none;" />
 <path d="  M 1,5  L 1,4  L 0,4  L 0,5  Z  " style="fill:rgb(245, 120, 22); fill-opacity:1.000; stroke:none;" />
 <path d="  M 2,2  L 2,1  L 1,1  L 1,2  Z  " style="fill:rgb(245, 120, 22); fill-opacity:1.000; stroke:none;" />
 <path d="  M 7,15  L 7,14  L 6,14  L 6,15  Z  " style="fill:rgb(245, 120, 22); fill-opacity:1.000; stroke:none;" />
 <path d="  M 9,10  L 10,10  L 10,9  L 9,9  Z  " style="fill:rgb(245, 120, 22); fill-opacity:1.000; stroke:none;" />
 <path d="  M 12,11  L 11,11  L 11,12  L 12,12  Z  " style="fill:rgb(245, 120, 22); fill-opacity:1.000; stroke:none;" />
 <path d="  M 12,10  L 12,11  L 13,11  L 13,10  Z  " style="fill:rgb(245, 120, 22); fill-opacity:1.000; stroke:none;" />
 <path d="  M 13,7  L 13,8  L 14,8  L 14,7  Z  " style="fill:rgb(245, 120, 22); fill-opacity:1.000; stroke:none;" />
 <path d="  M 15,13  L 15,12  L 14,12  L 14,13  Z  " style="fill:rgb(245, 120, 22); fill-opacity:1.000; stroke:none;" />
 <path d="  M 16,2  L 15,2  L 15,3  L 16,3  Z  " style="fill:rgb(245, 120, 22); fill-opacity:1.000; stroke:none;" />
 <path d="  M 15,11  L 15,12  L 16,12  L 16,11  Z  " style="fill:rgb(245, 120, 22); fill-opacity:1.000; stroke:none;" />
 <path d="  M 1,6  L 1,5  L 0,5  L 0,6  Z  " style="fill:rgb(229, 101, 4); fill-opacity:1.000; stroke:none;" />
 <path d="  M 2,8  L 2,9  L 3,9  L 3,8  Z  " style="fill:rgb(229, 101, 4); fill-opacity:1.000; stroke:none;" />
 <path d="  M 13,2  L 14,2  L 14,1  L 13,1  Z  " style="fill:rgb(229, 101, 4); fill-opacity:1.000; stroke:none;" />
 <path d="  M 0,6  L 0,7  L 2,7  L 2,6  Z  " style="fill:rgb(249, 147, 43); fill-opacity:1.000; stroke:none;" />
 <path d="  M 4,2  L 4,1  L 2,1  L 2,2  Z  " style="fill:rgb(249, 147, 43); fill-opacity:1.000; stroke:none;" />
 <path d="  M 2,7  L 2,8  L 4,8  L 4,7  Z  " style="fill:rgb(249, 147, 43); fill-opacity:1.000; stroke:none;" />
 <path d="  M 3,14  L 4,14  L 4,13  L 3,13  Z  " style="fill:rgb(249, 147, 43); fill-opacity:1.000; stroke:none;" />
 <path d="  M 4,11  L 5,11  L 5,10  L 4,10  Z  " style="fill:rgb(249, 147, 43); fill-opacity:1.000; stroke:none;" />
 <path d="  M 8,14  L 8,15  L 9,15  L 9,14  Z  " style="fill:rgb(249, 147, 43); fill-opacity:1.000; stroke:none;" />
 <path d="  M 10,7  L 10,6  L 9,6  L 9,7  Z  " style="fill:rgb(249, 147, 43); fill-opacity:1.000; stroke:none;" />
 <path d="  M 10,9  L 10,10  L 12,10  L 12,9  Z  " style="fill:rgb(249, 147, 43); fill-opacity:1.000; stroke:none;" />
 <path d="  M 12,6  L 12,7  L 14,7  L 14,6  Z  " style="fill:rgb(249, 147, 43); fill-opacity:1.000; stroke:none;" />
 <path d="  M 12,12  L 12,13  L 14,13  L 14,12  Z  " style="fill:rgb(249, 147, 43); fill-opacity:1.000; stroke:none;" />
 <path d="  M 13,2  L 13,3  L 14,3  L 14,2  Z  " style="fill:rgb(249, 147, 43); fill-opacity:1.000; stroke:none;" />
 <path d="  M 14,4  L 15,4  L 15,3  L 14,3  Z  " style="fill:rgb(249, 147, 43); fill-opacity:1.000; stroke:none;" />
 <path d="  M 16,10  L 16,9  L 14,9  L 14,10  Z  " style="fill:rgb(249, 147, 43); fill-opacity:1.000; stroke:none;" />
 <path d="  M 15,14  L 16,14  L 16,13  L 15,13  Z  " style="fill:rgb(249, 147, 43); fill-opacity:1.000; stroke:none;" />
 <path d="  M 0,8  L 2,8  L 2,7  L 0,7  Z  " style="fill:rgb(236, 109, 11); fill-opacity:1.000; stroke:none;" />
 <path d="  M 1,1  L 2,1  L 2,0  L 1,0  Z  " style="fill:rgb(236, 109, 11); fill-opacity:1.000; stroke:none;" />
 <path d="  M 2,4  L 2,3  L 1,3  L 1,4  Z  " style="fill:rgb(236, 109, 11); fill-opacity:1.000; stroke:none;" />
 <path d="  M 1,13  L 2,13  L 2,12  L 1,12  Z  " style="fill:rgb(236, 109, 11); fill-opacity:1.000; stroke:none;" />
 <path d="  M 5,12  L 5,11  L 4,11  L 4,12  Z  " style="fill:rgb(236, 109, 11); fill-opacity:1.000; stroke:none;" />
 <path d="  M 8,5  L 7,5  L 7,6  L 8,6  Z  " style="fill:rgb(236, 109, 11); fill-opacity:1.000; stroke:none;" />
 <path d="  M 9,16  L 10,16  L 10,15  L 9,15  Z  " style="fill:rgb(236, 109, 11); fill-opacity:1.000; stroke:none;" />
 <path d="  M 11,5  L 10,5  L 10,6  L 11,6  Z  " style="fill:rgb(236, 109, 11); fill-opacity:1.000; stroke:none;" />
 <path d="  M 14,4  L 14,3  L 13,3  L 13,4  Z  " style="fill:rgb(236, 109, 11); fill-opacity:1.000; stroke:none;" />
 <path d="  M 14,1  L 14,2  L 15,2  L 15,1  Z  " style="fill:rgb(236, 109, 11); fill-opacity:1.000; stroke:none;" />
 <path d="  M 0,8  L 0,9  L 1,9  L 1,8  Z  " style="fill:rgb(247, 123, 25); fill-opacity:1.000; stroke:none;" />
 <path d="  M 4,11  L 4,10  L 2,10  L 2,11  Z  " style="fill:rgb(247, 123, 25); fill-opacity:1.000; stroke:none;" />
 <path d="  M 5,7  L 4,7  L 4,8  L 5,8  Z  " style="fill:rgb(247, 123, 25); fill-opacity:1.000; stroke:none;" />
 <path d="  M 6,2  L 6,1  L 5,1  L 5,2  Z  " style="fill:rgb(247, 123, 25); fill-opacity:1.000; stroke:none;" />
 <path d="  M 6,14  L 6,13  L 5,13  L 5,14  Z  " style="fill:rgb(247, 123, 25); fill-opacity:1.000; stroke:none;" />
 <path d="  M 6,11  L 7,11  L 7,10  L 6,10  Z  " style="fill:rgb(247, 123, 25); fill-opacity:1.000; stroke:none;" />
 <path d="  M 9,2  L 8,2  L 8,3  L 9,3  Z  " style="fill:rgb(247, 123, 25); fill-opacity:1.000; stroke:none;" />
 <path d="  M 10,1  L 10,0  L 9,0  L 9,1  Z  " style="fill:rgb(247, 123, 25); fill-opacity:1.000; stroke:none;" />
 <path d="  M 15,2  L 14,2  L 14,3  L 15,3  Z  " style="fill:rgb(247, 123, 25); fill-opacity:1.000; stroke:none;" />
 <path d="  M 15,6  L 14,6  L 14,7  L 15,7  Z  " style="fill:rgb(247, 123, 25); fill-opacity:1.000; stroke:none;" />
 <path d="  M 0,10  L 1,10  L 1,9  L 0,9  Z  " style="fill:rgb(235, 107, 10); fill-opacity:1.000; stroke:none;" />
 <path d="  M 3,9  L 4,9  L 4,8  L 3,8  Z  " style="fill:rgb(235, 107, 10); fill-opacity:1.000; stroke:none;" />
 <path d="  M 8,5  L 9,5  L 9,4  L 8,4  Z  " style="fill:rgb(235, 107, 10); fill-opacity:1.000; stroke:none;" />
 <path d="  M 9,8  L 8,8  L 8,9  L 9,9  Z  " style="fill:rgb(235, 107, 10); fill-opacity:1.000; stroke:none;" />
 <path d="  M 11,12  L 11,11  L 10,11  L 10,12  Z  " style="fill:rgb(235, 107, 10); fill-opacity:1.000; stroke:none;" />
 <path d="  M 11,14  L 11,15  L 12,15  L 12,14  Z  " style="fill:rgb(235, 107, 10); fill-opacity:1.000; stroke:none;" />
 <path d="  M 0,11  L 1,11  L 1,10  L 0,10  Z  " style="fill:rgb(249, 130, 30); fill-opacity:1.000; stroke:none;" />
 <path d="  M 3,15  L 2,15  L 2,16  L 3,16  Z  " style="fill:rgb(249, 130, 30); fill-opacity:1.000; stroke:none;" />
 <path d="  M 5,8  L 4,8  L 4,9  L 5,9  Z  " style="fill:rgb(249, 130, 30); fill-opacity:1.000; stroke:none;" />
 <path d="  M 4,14  L 5,14  L 5,12  L 4,12  Z  " style="fill:rgb(249, 130, 30); fill-opacity:1.000; stroke:none;" />
 <path d="  M 8,8  L 8,7  L 7,7  L 7,8  Z  " style="fill:rgb(249, 130, 30); fill-opacity:1.000; stroke:none;" />
 <path d="  M 12,16  L 12,15  L 11,15  L 11,16  Z  " style="fill:rgb(249, 130, 30); fill-opacity:1.000; stroke:none;" />
 <path d="  M 16,4  L 16,3  L 15,3  L 15,4  Z  " style="fill:rgb(249, 130, 30); fill-opacity:1.000; stroke:none;" />
 <path d="  M 15,7  L 15,8  L 16,8  L 16,7  Z  " style="fill:rgb(249, 130, 30); fill-opacity:1.000; stroke:none;" />
 <path d="  M 0,11  L 0,12  L 1,12  L 1,11  Z  " style="fill:rgb(231, 103, 6); fill-opacity:1.000; stroke:none;" />
 <path d="  M 12,1  L 12,0  L 11,0  L 11,1  Z  " style="fill:rgb(231, 103, 6); fill-opacity:1.000; stroke:none;" />
 <path d="  M 15,0  L 14,0  L 14,1  L 15,1  Z  " style="fill:rgb(231, 103, 6); fill-opacity:1.000; stroke:none;" />
 <path d="  M 15,5  L 15,4  L 14,4  L 14,5  Z  " style="fill:rgb(231, 103, 6); fill-opacity:1.000; stroke:none;" />
 <path d="  M 14,10  L 14,11  L 15,11  L 15,10  Z  " style="fill:rgb(231, 103, 6); fill-opacity:1.000; stroke:none;" />
 <path d="  M 1,13  L 1,12  L 0,12  L 0,13  Z  " style="fill:rgb(236, 109, 12); fill-opacity:1.000; stroke:none;" />
 <path d="  M 5,3  L 5,4  L 6,4  L 6,3  Z  " style="fill:rgb(236, 109, 12); fill-opacity:1.000; stroke:none;" />
 <path d="  M 6,12  L 6,11  L 5,11  L 5,12  Z  " style="fill:rgb(236, 109, 12); fill-opacity:1.000; stroke:none;" />
 <path d="  M 5,15  L 5,16  L 6,16  L 6,15  Z  " style="fill:rgb(236, 109, 12); fill-opacity:1.000; stroke:none;" />
 <path d="  M 7,8  L 7,9  L 8,9  L 8,8  Z  " style="fill:rgb(236, 109, 12); fill-opacity:1.000; stroke:none;" />
 <path d="  M 15,14  L 14,14  L 14,15  L 15,15  Z  " style="fill:rgb(236, 109, 12); fill-opacity:1.000; stroke:none;" />
 <path d="  M 1,14  L 1,13  L 0,13  L 0,14  Z  " style="fill:rgb(246, 123, 24); fill-opacity:1.000; stroke:none;" />
 <path d="  M 2,9  L 2,8  L 1,8  L 1,9  Z  " style="fill:rgb(246, 123, 24); fill-opacity:1.000; stroke:none;" />
 <path d="  M 7,12  L 8,12  L 8,11  L 7,11  Z  " style="fill:rgb(246, 123, 24); fill-opacity:1.000; stroke:none;" />
 <path d="  M 12,3  L 12,2  L 10,2  L 10,3  Z  " style="fill:rgb(246, 123, 24); fill-opacity:1.000; stroke:none;" />
 <path d="  M 10,14  L 11,14  L 11,13  L 10,13  Z  " style="fill:rgb(246, 123, 24); fill-opacity:1.000; stroke:none;" />
 <path d="  M 11,13  L 12,13  L 12,12  L 11,12  Z  " style="fill:rgb(246, 123, 24); fill-opacity:1.000; stroke:none;" />
 <path d="  M 13,10  L 14,10  L 14,9  L 13,9  Z  " style="fill:rgb(246, 123, 24); fill-opacity:1.000; stroke:none;" />
 <path d="  M 13,15  L 14,15  L 14,14  L 13,14  Z  " style="fill:rgb(246, 123, 24); fill-opacity:1.000; stroke:none;" />
 <path d="  M 1,15  L 1,14  L 0,14  L 0,15  Z  " style="fill:rgb(249, 142, 39); fill-opacity:1.000; stroke:none;" />
 <path d="  M 4,3  L 5,3  L 5,2  L 4,2  Z  " style="fill:rgb(249, 142, 39); fill-opacity:1.000; stroke:none;" />
 <path d="  M 5,12  L 5,13  L 6,13  L 6,12  Z  " style="fill:rgb(249, 142, 39); fill-opacity:1.000; stroke:none;" />
 <path d="  M 1,15  L 0,15  L 0,16  L 1,16  Z  " style="fill:rgb(228, 100, 3); fill-opacity:1.000; stroke:none;" />
 <path d="  M 9,2  L 10,2  L 10,1  L 9,1  Z  " style="fill:rgb(228, 100, 3); fill-opacity:1.000; stroke:none;" />
 <path d="  M 12,9  L 12,8  L 11,8  L 11,9  Z  " style="fill:rgb(228, 100, 3); fill-opacity:1.000; stroke:none;" />
 <path d="  M 13,6  L 13,5  L 12,5  L 12,6  Z  " style="fill:rgb(228, 100, 3); fill-opacity:1.000; stroke:none;" />
 <path d="  M 16,1  L 16,0  L 15,0  L 15,1  Z  " style="fill:rgb(228, 100, 3); fill-opacity:1.000; stroke:none;" />
 <path d="  M 15,12  L 15,13  L 16,13  L 16,12  Z  " style="fill:rgb(228, 100, 3); fill-opacity:1.000; stroke:none;" />
 <path d="  M 1,2  L 1,3  L 2,3  L 2,2  Z  " style="fill:rgb(249, 132, 32); fill-opacity:1.000; stroke:none;" />
 <path d="  M 3,3  L 3,4  L 4,4  L 4,3  Z  " style="fill:rgb(249, 132, 32); fill-opacity:1.000; stroke:none;" />
 <path d="  M 3,6  L 4,6  L 4,5  L 3,5  Z  " style="fill:rgb(249, 132, 32); fill-opacity:1.000; stroke:none;" />
 <path d="  M 5,15  L 5,14  L 4,14  L 4,15  Z  " style="fill:rgb(249, 132, 32); fill-opacity:1.000; stroke:none;" />
 <path d="  M 5,3  L 6,3  L 6,2  L 5,2  Z  " style="fill:rgb(249, 132, 32); fill-opacity:1.000; stroke:none;" />
 <path d="  M 5,10  L 5,11  L 6,11  L 6,10  Z  " style="fill:rgb(249, 132, 32); fill-opacity:1.000; stroke:none;" />
 <path d="  M 6,7  L 6,8  L 7,8  L 7,7  Z  " style="fill:rgb(249, 132, 32); fill-opacity:1.000; stroke:none;" />
 <path d="  M 6,16  L 7,16  L 7,15  L 6,15  Z  " style="fill:rgb(249, 132, 32); fill-opacity:1.000; stroke:none;" />
 <path d="  M 8,3  L 7,3  L 7,4  L 8,4  Z  " style="fill:rgb(249, 132, 32); fill-opacity:1.000; stroke:none;" />
 <path d="  M 10,3  L 10,2  L 9,2  L 9,3  Z  " style="fill:rgb(249, 132, 32); fill-opacity:1.000; stroke:none;" />
 <path d="  M 10,3  L 10,4  L 12,4  L 12,3  Z  " style="fill:rgb(249, 132, 32); fill-opacity:1.000; stroke:none;" />
 <path d="  M 11,7  L 11,8  L 12,8  L 12,7  Z  " style="fill:rgb(249, 132, 32); fill-opacity:1.000; stroke:none;" />
 <path d="  M 12,13  L 11,13  L 11,14  L 12,14  Z  " style="fill:rgb(249, 132, 32); fill-opacity:1.000; stroke:none;" />
 <path d="  M 14,14  L 15,14  L 15,13  L 14,13  Z  " style="fill:rgb(249, 132, 32); fill-opacity:1.000; stroke:none;" />
 <path d="  M 15,15  L 15,16  L 16,16  L 16,15  Z  " style="fill:rgb(249, 132, 32); fill-opacity:1.000; stroke:none;" />
 <path d="  M 1,4  L 1,5  L 2,5  L 2,4  Z  " style="fill:rgb(239, 113, 15); fill-opacity:1.000; stroke:none;" />
 <path d="  M 7,6  L 6,6  L 6,7  L 7,7  Z  " style="fill:rgb(239, 113, 15); fill-opacity:1.000; stroke:none;" />
 <path d="  M 9,15  L 8,15  L 8,16  L 9,16  Z  " style="fill:rgb(239, 113, 15); fill-opacity:1.000; stroke:none;" />
 <path d="  M 12,13  L 12,14  L 13,14  L 13,13  Z  " style="fill:rgb(239, 113, 15); fill-opacity:1.000; stroke:none;" />
 <path d="  M 16,2  L 16,1  L 15,1  L 15,2  Z  " style="fill:rgb(239, 113, 15); fill-opacity:1.000; stroke:none;" />
 <path d="  M 1,6  L 2,6  L 2,5  L 1,5  Z  " style="fill:rgb(227, 99, 2); fill-opacity:1.000; stroke:none;" />
 <path d="  M 4,12  L 3,12  L 3,13  L 4,13  Z  " style="fill:rgb(227, 99, 2); fill-opacity:1.000; stroke:none;" />
 <path d="  M 5,9  L 5,10  L 6,10  L 6,9  Z  " style="fill:rgb(227, 99, 2); fill-opacity:1.000; stroke:none;" />
 <path d="  M 6,4  L 6,5  L 7,5  L 7,4  Z  " style="fill:rgb(227, 99, 2); fill-opacity:1.000; stroke:none;" />
 <path d="  M 11,0  L 10,0  L 10,1  L 11,1  Z  " style="fill:rgb(227, 99, 2); fill-opacity:1.000; stroke:none;" />
 <path d="  M 13,11  L 12,11  L 12,12  L 13,12  Z  " style="fill:rgb(227, 99, 2); fill-opacity:1.000; stroke:none;" />
 <path d="  M 16,5  L 16,4  L 15,4  L 15,5  Z  " style="fill:rgb(227, 99, 2); fill-opacity:1.000; stroke:none;" />
 <path d="  M 1,10  L 2,10  L 2,9  L 1,9  Z  " style="fill:rgb(238, 112, 14); fill-opacity:1.000; stroke:none;" />
 <path d="  M 3,15  L 4,15  L 4,14  L 3,14  Z  " style="fill:rgb(238, 112, 14); fill-opacity:1.000; stroke:none;" />
 <path d="  M 6,1  L 6,2  L 7,2  L 7,1  Z  " style="fill:rgb(238, 112, 14); fill-opacity:1.000; stroke:none;" />
 <path d="  M 7,9  L 6,9  L 6,10  L 7,10  Z  " style="fill:rgb(238, 112, 14); fill-opacity:1.000; stroke:none;" />
 <path d="  M 9,4  L 10,4  L 10,3  L 9,3  Z  " style="fill:rgb(238, 112, 14); fill-opacity:1.000; stroke:none;" />
 <path d="  M 12,6  L 11,6  L 11,7  L 12,7  Z  " style="fill:rgb(238, 112, 14); fill-opacity:1.000; stroke:none;" />
 <path d="  M 14,9  L 14,8  L 13,8  L 13,9  Z  " style="fill:rgb(238, 112, 14); fill-opacity:1.000; stroke:none;" />
 <path d="  M 1,11  L 2,11  L 2,10  L 1,10  Z  " style="fill:rgb(249, 133, 33); fill-opacity:1.000; stroke:none;" />
 <path d="  M 9,11  L 9,10  L 8,10  L 8,11  Z  " style="fill:rgb(249, 133, 33); fill-opacity:1.000; stroke:none;" />
 <path d="  M 15,8  L 15,7  L 14,7  L 14,8  Z  " style="fill:rgb(249, 133, 33); fill-opacity:1.000; stroke:none;" />
 <path d="  M 1,11  L 1,12  L 2,12  L 2,11  Z  " style="fill:rgb(233, 105, 8); fill-opacity:1.000; stroke:none;" />
 <path d="  M 1,16  L 2,16  L 2,15  L 1,15  Z  " style="fill:rgb(233, 105, 8); fill-opacity:1.000; stroke:none;" />
 <path d="  M 3,5  L 3,4  L 2,4  L 2,5  Z  " style="fill:rgb(233, 105, 8); fill-opacity:1.000; stroke:none;" />
 <path d="  M 4,5  L 4,6  L 5,6  L 5,5  Z  " style="fill:rgb(233, 105, 8); fill-opacity:1.000; stroke:none;" />
 <path d="  M 6,1  L 7,1  L 7,0  L 6,0  Z  " style="fill:rgb(233, 105, 8); fill-opacity:1.000; stroke:none;" />
 <path d="  M 7,9  L 7,8  L 6,8  L 6,9  Z  " style="fill:rgb(233, 105, 8); fill-opacity:1.000; stroke:none;" />
 <path d="  M 8,3  L 8,4  L 9,4  L 9,3  Z  " style="fill:rgb(233, 105, 8); fill-opacity:1.000; stroke:none;" />
 <path d="  M 8,5  L 8,6  L 9,6  L 9,5  Z  " style="fill:rgb(233, 105, 8); fill-opacity:1.000; stroke:none;" />
 <path d="  M 9,10  L 9,9  L 8,9  L 8,10  Z  " style="fill:rgb(233, 105, 8); fill-opacity:1.000; stroke:none;" />
 <path d="  M 10,12  L 10,11  L 9,11  L 9,12  Z  " style="fill:rgb(233, 105, 8); fill-opacity:1.000; stroke:none;" />
 <path d="  M 13,15  L 13,16  L 14,16  L 14,15  Z  " style="fill:rgb(233, 105, 8); fill-opacity:1.000; stroke:none;" />
 <path d="  M 1,13  L 1,14  L 2,14  L 2,13  Z  " style="fill:rgb(245, 121, 23); fill-opacity:1.000; stroke:none;" />
 <path d="  M 6,7  L 5,7  L 5,9  L 6,9  Z  " style="fill:rgb(245, 121, 23); fill-opacity:1.000; stroke:none;" />
 <path d="  M 7,11  L 8,11  L 8,10  L 7,10  Z  " style="fill:rgb(245, 121, 23); fill-opacity:1.000; stroke:none;" />
 <path d="  M 8,0  L 8,1  L 9,1  L 9,0  Z  " style="fill:rgb(245, 121, 23); fill-opacity:1.000; stroke:none;" />
 <path d="  M 10,7  L 11,7  L 11,6  L 10,6  Z  " style="fill:rgb(245, 121, 23); fill-opacity:1.000; stroke:none;" />
 <path d="  M 10,15  L 10,16  L 11,16  L 11,15  Z  " style="fill:rgb(245, 121, 23); fill-opacity:1.000; stroke:none;" />
 <path d="  M 13,8  L 13,7  L 12,7  L 12,8  Z  " style="fill:rgb(245, 121, 23); fill-opacity:1.000; stroke:none;" />
 <path d="  M 2,14  L 1,14  L 1,15  L 2,15  Z  " style="fill:rgb(249, 138, 37); fill-opacity:1.000; stroke:none;" />
 <path d="  M 3,0  L 2,0  L 2,1  L 3,1  Z  " style="fill:rgb(230, 102, 5); fill-opacity:1.000; stroke:none;" />
 <path d="  M 14,9  L 15,9  L 15,8  L 14,8  Z  " style="fill:rgb(230, 102, 5); fill-opacity:1.000; stroke:none;" />
 <path d="  M 3,3  L 3,2  L 2,2  L 2,3  Z  " style="fill:rgb(238, 111, 14); fill-opacity:1.000; stroke:none;" />
 <path d="  M 5,3  L 4,3  L 4,4  L 5,4  Z  " style="fill:rgb(238, 111, 14); fill-opacity:1.000; stroke:none;" />
 <path d="  M 8,3  L 8,1  L 7,1  L 7,3  Z  " style="fill:rgb(238, 111, 14); fill-opacity:1.000; stroke:none;" />
 <path d="  M 7,13  L 7,14  L 8,14  L 8,13  Z  " style="fill:rgb(238, 111, 14); fill-opacity:1.000; stroke:none;" />
 <path d="  M 10,8  L 9,8  L 9,9  L 10,9  Z  " style="fill:rgb(238, 111, 14); fill-opacity:1.000; stroke:none;" />
 <path d="  M 10,10  L 10,11  L 11,11  L 11,10  Z  " style="fill:rgb(238, 111, 14); fill-opacity:1.000; stroke:none;" />
 <path d="  M 12,1  L 11,1  L 11,2  L 12,2  Z  " style="fill:rgb(238, 111, 14); fill-opacity:1.000; stroke:none;" />
 <path d="  M 12,5  L 11,5  L 11,6  L 12,6  Z  " style="fill:rgb(238, 111, 14); fill-opacity:1.000; stroke:none;" />
 <path d="  M 2,3  L 2,4  L 3,4  L 3,3  Z  " style="fill:rgb(248, 125, 26); fill-opacity:1.000; stroke:none;" />
 <path d="  M 3,7  L 4,7  L 4,6  L 3,6  Z  " style="fill:rgb(248, 125, 26); fill-opacity:1.000; stroke:none;" />
 <path d="  M 5,4  L 5,5  L 6,5  L 6,4  Z  " style="fill:rgb(248, 125, 26); fill-opacity:1.000; stroke:none;" />
 <path d="  M 8,15  L 8,14  L 7,14  L 7,15  Z  " style="fill:rgb(248, 125, 26); fill-opacity:1.000; stroke:none;" />
 <path d="  M 10,7  L 10,8  L 11,8  L 11,7  Z  " style="fill:rgb(248, 125, 26); fill-opacity:1.000; stroke:none;" />
 <path d="  M 3,6  L 3,5  L 2,5  L 2,6  Z  " style="fill:rgb(233, 106, 9); fill-opacity:1.000; stroke:none;" />
 <path d="  M 2,6  L 2,7  L 3,7  L 3,6  Z  " style="fill:rgb(249, 127, 28); fill-opacity:1.000; stroke:none;" />
 <path d="  M 3,10  L 3,9  L 2,9  L 2,10  Z  " style="fill:rgb(237, 110, 12); fill-opacity:1.000; stroke:none;" />
 <path d="  M 15,11  L 14,11  L 14,12  L 15,12  Z  " style="fill:rgb(237, 110, 12); fill-opacity:1.000; stroke:none;" />
 <path d="  M 16,5  L 15,5  L 15,6  L 16,6  Z  " style="fill:rgb(237, 110, 12); fill-opacity:1.000; stroke:none;" />
 <path d="  M 4,11  L 2,11  L 2,12  L 4,12  Z  " style="fill:rgb(244, 119, 22); fill-opacity:1.000; stroke:none;" />
 <path d="  M 8,10  L 8,9  L 7,9  L 7,10  Z  " style="fill:rgb(244, 119, 22); fill-opacity:1.000; stroke:none;" />
 <path d="  M 3,12  L 2,12  L 2,13  L 3,13  Z  " style="fill:rgb(226, 98, 1); fill-opacity:1.000; stroke:none;" />
 <path d="  M 5,10  L 5,9  L 4,9  L 4,10  Z  " style="fill:rgb(226, 98, 1); fill-opacity:1.000; stroke:none;" />
 <path d="  M 5,5  L 5,6  L 6,6  L 6,5  Z  " style="fill:rgb(226, 98, 1); fill-opacity:1.000; stroke:none;" />
 <path d="  M 7,5  L 8,5  L 8,4  L 7,4  Z  " style="fill:rgb(226, 98, 1); fill-opacity:1.000; stroke:none;" />
 <path d="  M 7,13  L 8,13  L 8,12  L 7,12  Z  " style="fill:rgb(226, 98, 1); fill-opacity:1.000; stroke:none;" />
 <path d="  M 8,14  L 9,14  L 9,13  L 8,13  Z  " style="fill:rgb(226, 98, 1); fill-opacity:1.000; stroke:none;" />
 <path d="  M 9,6  L 10,6  L 10,5  L 9,5  Z  " style="fill:rgb(226, 98, 1); fill-opacity:1.000; stroke:none;" />
 <path d="  M 2,14  L 3,14  L 3,13  L 2,13  Z  " style="fill:rgb(249, 144, 40); fill-opacity:1.000; stroke:none;" />
 <path d="  M 7,16  L 8,16  L 8,15  L 7,15  Z  " style="fill:rgb(249, 144, 40); fill-opacity:1.000; stroke:none;" />
 <path d="  M 12,3  L 13,3  L 13,2  L 12,2  Z  " style="fill:rgb(249, 144, 40); fill-opacity:1.000; stroke:none;" />
 <path d="  M 3,0  L 3,1  L 4,1  L 4,0  Z  " style="fill:rgb(231, 104, 7); fill-opacity:1.000; stroke:none;" />
 <path d="  M 5,16  L 5,15  L 4,15  L 4,16  Z  " style="fill:rgb(231, 104, 7); fill-opacity:1.000; stroke:none;" />
 <path d="  M 9,2  L 9,1  L 8,1  L 8,2  Z  " style="fill:rgb(231, 104, 7); fill-opacity:1.000; stroke:none;" />
 <path d="  M 8,7  L 8,8  L 9,8  L 9,7  Z  " style="fill:rgb(231, 104, 7); fill-opacity:1.000; stroke:none;" />
 <path d="  M 8,12  L 9,12  L 9,11  L 8,11  Z  " style="fill:rgb(231, 104, 7); fill-opacity:1.000; stroke:none;" />
 <path d="  M 12,16  L 13,16  L 13,15  L 12,15  Z  " style="fill:rgb(231, 104, 7); fill-opacity:1.000; stroke:none;" />
 <path d="  M 14,6  L 15,6  L 15,5  L 14,5  Z  " style="fill:rgb(231, 104, 7); fill-opacity:1.000; stroke:none;" />
 <path d="  M 15,14  L 15,15  L 16,15  L 16,14  Z  " style="fill:rgb(231, 104, 7); fill-opacity:1.000; stroke:none;" />
 <path d="  M 3,2  L 3,3  L 4,3  L 4,2  Z  " style="fill:rgb(240, 113, 16); fill-opacity:1.000; stroke:none;" />
 <path d="  M 10,13  L 9,13  L 9,14  L 10,14  Z  " style="fill:rgb(240, 113, 16); fill-opacity:1.000; stroke:none;" />
 <path d="  M 13,9  L 12,9  L 12,10  L 13,10  Z  " style="fill:rgb(240, 113, 16); fill-opacity:1.000; stroke:none;" />
 <path d="  M 14,14  L 14,13  L 13,13  L 13,14  Z  " style="fill:rgb(240, 113, 16); fill-opacity:1.000; stroke:none;" />
 <path d="  M 3,15  L 3,16  L 4,16  L 4,15  Z  " style="fill:rgb(243, 118, 20); fill-opacity:1.000; stroke:none;" />
 <path d="  M 7,2  L 6,2  L 6,3  L 7,3  Z  " style="fill:rgb(243, 118, 20); fill-opacity:1.000; stroke:none;" />
 <path d="  M 13,15  L 13,14  L 12,14  L 12,15  Z  " style="fill:rgb(243, 118, 20); fill-opacity:1.000; stroke:none;" />
 <path d="  M 15,7  L 16,7  L 16,6  L 15,6  Z  " style="fill:rgb(243, 118, 20); fill-opacity:1.000; stroke:none;" />
 <path d="  M 4,1  L 5,1  L 5,0  L 4,0  Z  " style="fill:rgb(241, 115, 17); fill-opacity:1.000; stroke:none;" />
 <path d="  M 6,7  L 6,6  L 4,6  L 4,7  Z  " style="fill:rgb(241, 115, 17); fill-opacity:1.000; stroke:none;" />
 <path d="  M 6,4  L 7,4  L 7,3  L 6,3  Z  " style="fill:rgb(241, 115, 17); fill-opacity:1.000; stroke:none;" />
 <path d="  M 8,13  L 9,13  L 9,12  L 8,12  Z  " style="fill:rgb(241, 115, 17); fill-opacity:1.000; stroke:none;" />
 <path d="  M 12,9  L 13,9  L 13,8  L 12,8  Z  " style="fill:rgb(241, 115, 17); fill-opacity:1.000; stroke:none;" />
 <path d="  M 13,10  L 13,11  L 14,11  L 14,10  Z  " style="fill:rgb(241, 115, 17); fill-opacity:1.000; stroke:none;" />
 <path d="  M 4,4  L 4,5  L 5,5  L 5,4  Z  " style="fill:rgb(248, 125, 27); fill-opacity:1.000; stroke:none;" />
 <path d="  M 5,0  L 5,1  L 6,1  L 6,0  Z  " style="fill:rgb(248, 125, 27); fill-opacity:1.000; stroke:none;" />
 <path d="  M 7,11  L 6,11  L 6,12  L 7,12  Z  " style="fill:rgb(248, 125, 27); fill-opacity:1.000; stroke:none;" />
 <path d="  M 10,12  L 9,12  L 9,13  L 10,13  Z  " style="fill:rgb(248, 125, 27); fill-opacity:1.000; stroke:none;" />
 <path d="  M 12,4  L 12,5  L 14,5  L 14,4  Z  " style="fill:rgb(248, 125, 27); fill-opacity:1.000; stroke:none;" />
 <path d="  M 6,15  L 6,14  L 5,14  L 5,15  Z  " style="fill:rgb(243, 117, 19); fill-opacity:1.000; stroke:none;" />
 <path d="  M 6,13  L 6,14  L 7,14  L 7,13  Z  " style="fill:rgb(243, 117, 19); fill-opacity:1.000; stroke:none;" />
 <path d="  M 7,7  L 8,7  L 8,6  L 7,6  Z  " style="fill:rgb(243, 117, 19); fill-opacity:1.000; stroke:none;" />
 <path d="  M 9,4  L 9,5  L 10,5  L 10,4  Z  " style="fill:rgb(243, 117, 19); fill-opacity:1.000; stroke:none;" />
 <path d="  M 11,13  L 11,12  L 10,12  L 10,13  Z  " style="fill:rgb(243, 117, 19); fill-opacity:1.000; stroke:none;" />
 <path d="  M 12,10  L 11,10  L 11,11  L 12,11  Z  " style="fill:rgb(243, 117, 19); fill-opacity:1.000; stroke:none;" />
 <path d="  M 12,1  L 14,1  L 14,0  L 12,0  Z  " style="fill:rgb(243, 117, 19); fill-opacity:1.000; stroke:none;" />
 <path d="  M 6,13  L 7,13  L 7,12  L 6,12  Z  " style="fill:rgb(229, 102, 4); fill-opacity:1.000; stroke:none;" />
 <path d="  M 11,4  L 11,5  L 12,5  L 12,4  Z  " style="fill:rgb(229, 102, 4); fill-opacity:1.000; stroke:none;" />
 <path d="  M 16,8  L 15,8  L 15,9  L 16,9  Z  " style="fill:rgb(229, 102, 4); fill-opacity:1.000; stroke:none;" />
 <path d="  M 8,1  L 8,0  L 7,0  L 7,1  Z  " style="fill:rgb(234, 107, 10); fill-opacity:1.000; stroke:none;" />
 <path d="  M 9,7  L 9,8  L 10,8  L 10,7  Z  " style="fill:rgb(234, 107, 10); fill-opacity:1.000; stroke:none;" />
 <path d="  M 10,1  L 10,2  L 11,2  L 11,1  Z  " style="fill:rgb(234, 107, 10); fill-opacity:1.000; stroke:none;" />
 <path d="  M 11,5  L 11,4  L 10,4  L 10,5  Z  " style="fill:rgb(234, 107, 10); fill-opacity:1.000; stroke:none;" />
 <path d="  M 10,9  L 11,9  L 11,8  L 10,8  Z  " style="fill:rgb(234, 107, 10); fill-opacity:1.000; stroke:none;" />
 <path d="  M 10,14  L 10,15  L 11,15  L 11,14  Z  " style="fill:rgb(234, 107, 10); fill-opacity:1.000; stroke:none;" />
 <path d="  M 13,5  L 13,6  L 14,6  L 14,5  Z  " style="fill:rgb(234, 107, 10); fill-opacity:1.000; stroke:none;" />
 <path d="  M 12,1  L 12,2  L 13,2  L 13,1  Z  " style="fill:rgb(225, 97, 0); fill-opacity:1.000; stroke:none;" />
 <path d="  M 13,12  L 14,12  L 14,11  L 13,11  Z  " style="fill:rgb(226, 99, 2); fill-opacity:1.000; stroke:none;" />
</svg>
