<?xml version="1.0" encoding="UTF-8" standalone="no"?>
<!DOCTYPE svg PUBLIC "-//W3C//DTD SVG 1.1//EN" 
  "http://www.w3.org/Graphics/SVG/1.1/DTD/svg11.dtd">
<svg width="16" height="16"
	 xmlns="http://www.w3.org/2000/svg" version="1.1">
 <path d="  M 5,16  L 5,15  L 4,15  L 4,16  Z  " style="fill:rgb(131, 99, 86); fill-opacity:1.000; stroke:none;" />
 <path d="  M 6,12  L 6,11  L 5,11  L 5,12  Z  " style="fill:rgb(131, 99, 86); fill-opacity:1.000; stroke:none;" />
 <path d="  M 7,6  L 6,6  L 6,7  L 7,7  Z  " style="fill:rgb(131, 99, 86); fill-opacity:1.000; stroke:none;" />
 <path d="  M 7,15  L 6,15  L 6,16  L 10,16  L 10,15  L 9,15  L 9,14  L 7,14  Z  " style="fill:rgb(131, 99, 86); fill-opacity:1.000; stroke:none;" />
 <path d="  M 8,8  L 9,8  L 9,5  L 8,5  Z  " style="fill:rgb(131, 99, 86); fill-opacity:1.000; stroke:none;" />
 <path d="  M 8,12  L 9,12  L 9,11  L 8,11  Z  " style="fill:rgb(131, 99, 86); fill-opacity:1.000; stroke:none;" />
 <path d="  M 10,12  L 9,12  L 9,13  L 10,13  Z  " style="fill:rgb(131, 99, 86); fill-opacity:1.000; stroke:none;" />
 <path d="  M 11,14  L 11,15  L 12,15  L 12,14  Z  " style="fill:rgb(131, 99, 86); fill-opacity:1.000; stroke:none;" />
 <path d="  M 8,12  L 5,12  L 5,13  L 8,13  Z  " style="fill:rgb(160, 141, 113); fill-opacity:1.000; stroke:none;" />
 <path d="  M 9,10  L 9,9  L 8,9  L 8,8  L 6,8  L 6,10  Z  " style="fill:rgb(160, 141, 113); fill-opacity:1.000; stroke:none;" />
 <path d="  M 9,12  L 8,12  L 8,13  L 5,13  L 5,16  L 6,16  L 6,15  L 7,15  L 7,14  L 9,14  Z  " style="fill:rgb(146, 121, 101); fill-opacity:1.000; stroke:none;" />
 <path d="  M 6,8  L 8,8  L 8,5  L 7,5  L 7,7  L 6,7  Z  " style="fill:rgb(146, 121, 101); fill-opacity:1.000; stroke:none;" />
 <path d="  M 9,10  L 6,10  L 6,12  L 8,12  L 8,11  L 9,11  Z  " style="fill:rgb(146, 121, 101); fill-opacity:1.000; stroke:none;" />
 <path d="  M 9,8  L 8,8  L 8,9  L 9,9  Z  " style="fill:rgb(146, 121, 101); fill-opacity:1.000; stroke:none;" />
 <path d="  M 9,12  L 10,12  L 10,13  L 9,13  L 9,15  L 10,15  L 10,16  L 12,16  L 12,15  L 11,15  L 11,11  L 10,11  L 10,8  L 9,8  Z  " style="fill:rgb(115, 84, 80); fill-opacity:1.000; stroke:none;" />
</svg>
