<?xml version="1.0" encoding="UTF-8" standalone="no"?>
<!DOCTYPE svg PUBLIC "-//W3C//DTD SVG 1.1//EN" 
  "http://www.w3.org/Graphics/SVG/1.1/DTD/svg11.dtd">
<svg width="16" height="16"
	 xmlns="http://www.w3.org/2000/svg" version="1.1">
 <path d="  M 2,11  L 0,11  L 0,12  L 2,12  Z  " style="fill:rgb(146, 121, 101); fill-opacity:1.000; stroke:none;" />
 <path d="  M 2,15  L 0,15  L 0,16  L 3,16  L 3,15  L 4,15  L 4,14  L 2,14  Z  " style="fill:rgb(146, 121, 101); fill-opacity:1.000; stroke:none;" />
 <path d="  M 3,10  L 3,9  L 2,9  L 2,8  L 4,8  L 4,7  L 2,7  L 2,6  L 3,6  L 3,5  L 4,5  L 4,4  L 2,4  L 2,2  L 3,2  L 3,0  L 2,0  L 2,1  L 1,1  L 1,10  Z  " style="fill:rgb(146, 121, 101); fill-opacity:1.000; stroke:none;" />
 <path d="  M 3,12  L 2,12  L 2,13  L 3,13  Z  " style="fill:rgb(146, 121, 101); fill-opacity:1.000; stroke:none;" />
 <path d="  M 4,0  L 4,2  L 6,2  L 6,3  L 7,3  L 7,2  L 10,2  L 10,1  L 6,1  L 6,0  Z  " style="fill:rgb(146, 121, 101); fill-opacity:1.000; stroke:none;" />
 <path d="  M 5,3  L 4,3  L 4,4  L 5,4  Z  " style="fill:rgb(146, 121, 101); fill-opacity:1.000; stroke:none;" />
 <path d="  M 4,9  L 4,10  L 6,10  L 6,9  L 7,9  L 7,8  L 5,8  L 5,9  Z  " style="fill:rgb(146, 121, 101); fill-opacity:1.000; stroke:none;" />
 <path d="  M 5,12  L 5,11  L 4,11  L 4,12  Z  " style="fill:rgb(146, 121, 101); fill-opacity:1.000; stroke:none;" />
 <path d="  M 6,11  L 7,11  L 7,10  L 6,10  Z  " style="fill:rgb(146, 121, 101); fill-opacity:1.000; stroke:none;" />
 <path d="  M 7,15  L 7,14  L 6,14  L 6,15  Z  " style="fill:rgb(146, 121, 101); fill-opacity:1.000; stroke:none;" />
 <path d="  M 9,4  L 9,3  L 7,3  L 7,4  Z  " style="fill:rgb(146, 121, 101); fill-opacity:1.000; stroke:none;" />
 <path d="  M 7,7  L 8,7  L 8,6  L 7,6  Z  " style="fill:rgb(146, 121, 101); fill-opacity:1.000; stroke:none;" />
 <path d="  M 7,13  L 7,14  L 8,14  L 8,13  Z  " style="fill:rgb(146, 121, 101); fill-opacity:1.000; stroke:none;" />
 <path d="  M 6,14  L 7,14  L 7,13  L 2,13  L 2,12  L 0,12  L 0,14  L 4,14  L 4,15  L 3,15  L 3,16  L 6,16  Z  " style="fill:rgb(160, 141, 113); fill-opacity:1.000; stroke:none;" />
 <path d="  M 6,10  L 4,10  L 4,9  L 5,9  L 5,8  L 2,8  L 2,9  L 3,9  L 3,10  L 1,10  L 1,11  L 2,11  L 2,12  L 4,12  L 4,11  L 6,11  Z  " style="fill:rgb(160, 141, 113); fill-opacity:1.000; stroke:none;" />
 <path d="  M 6,3  L 6,2  L 4,2  L 4,0  L 3,0  L 3,2  L 2,2  L 2,4  L 4,4  L 4,3  L 5,3  L 5,4  L 7,4  L 7,3  Z  " style="fill:rgb(160, 141, 113); fill-opacity:1.000; stroke:none;" />
 <path d="  M 2,7  L 7,7  L 7,6  L 5,6  L 5,5  L 3,5  L 3,6  L 2,6  Z  " style="fill:rgb(160, 141, 113); fill-opacity:1.000; stroke:none;" />
 <path d="  M 2,14  L 0,14  L 0,15  L 2,15  Z  " style="fill:rgb(131, 99, 86); fill-opacity:1.000; stroke:none;" />
 <path d="  M 7,12  L 7,13  L 8,13  L 8,14  L 9,14  L 9,11  L 10,11  L 10,10  L 7,10  L 7,11  L 5,11  L 5,12  L 3,12  L 3,13  L 6,13  L 6,12  Z  " style="fill:rgb(131, 99, 86); fill-opacity:1.000; stroke:none;" />
 <path d="  M 4,5  L 5,5  L 5,6  L 8,6  L 8,4  L 4,4  Z  " style="fill:rgb(131, 99, 86); fill-opacity:1.000; stroke:none;" />
 <path d="  M 7,8  L 7,9  L 8,9  L 8,8  L 9,8  L 9,7  L 4,7  L 4,8  Z  " style="fill:rgb(131, 99, 86); fill-opacity:1.000; stroke:none;" />
 <path d="  M 6,1  L 8,1  L 8,0  L 6,0  Z  " style="fill:rgb(131, 99, 86); fill-opacity:1.000; stroke:none;" />
 <path d="  M 6,16  L 7,16  L 7,15  L 6,15  Z  " style="fill:rgb(131, 99, 86); fill-opacity:1.000; stroke:none;" />
 <path d="  M 7,2  L 7,3  L 10,3  L 10,2  Z  " style="fill:rgb(131, 99, 86); fill-opacity:1.000; stroke:none;" />
 <path d="  M 8,15  L 8,14  L 7,14  L 7,15  Z  " style="fill:rgb(131, 99, 86); fill-opacity:1.000; stroke:none;" />
 <path d="  M 15,3  L 14,3  L 14,6  L 11,6  L 11,7  L 13,7  L 13,8  L 14,8  L 14,11  L 15,11  Z  " style="fill:rgb(131, 99, 86); fill-opacity:1.000; stroke:none;" />
 <path d="  M 12,9  L 12,8  L 11,8  L 11,9  Z  " style="fill:rgb(131, 99, 86); fill-opacity:1.000; stroke:none;" />
 <path d="  M 11,15  L 11,16  L 13,16  L 13,15  Z  " style="fill:rgb(131, 99, 86); fill-opacity:1.000; stroke:none;" />
 <path d="  M 9,10  L 9,8  L 8,8  L 8,9  L 6,9  L 6,10  Z  " style="fill:rgb(115, 84, 80); fill-opacity:1.000; stroke:none;" />
 <path d="  M 6,13  L 7,13  L 7,12  L 6,12  Z  " style="fill:rgb(115, 84, 80); fill-opacity:1.000; stroke:none;" />
 <path d="  M 8,7  L 11,7  L 11,6  L 9,6  L 9,5  L 8,5  Z  " style="fill:rgb(115, 84, 80); fill-opacity:1.000; stroke:none;" />
 <path d="  M 11,3  L 9,3  L 9,4  L 11,4  Z  " style="fill:rgb(115, 84, 80); fill-opacity:1.000; stroke:none;" />
 <path d="  M 10,12  L 10,11  L 9,11  L 9,12  Z  " style="fill:rgb(115, 84, 80); fill-opacity:1.000; stroke:none;" />
 <path d="  M 9,13  L 9,14  L 12,14  L 12,13  Z  " style="fill:rgb(115, 84, 80); fill-opacity:1.000; stroke:none;" />
 <path d="  M 14,4  L 14,3  L 15,3  L 15,2  L 14,2  L 14,0  L 12,0  L 12,1  L 10,1  L 10,2  L 12,2  L 12,3  L 13,3  L 13,4  Z  " style="fill:rgb(115, 84, 80); fill-opacity:1.000; stroke:none;" />
 <path d="  M 10,9  L 11,9  L 11,8  L 10,8  Z  " style="fill:rgb(115, 84, 80); fill-opacity:1.000; stroke:none;" />
 <path d="  M 10,10  L 10,11  L 11,11  L 11,10  Z  " style="fill:rgb(115, 84, 80); fill-opacity:1.000; stroke:none;" />
 <path d="  M 10,15  L 10,16  L 11,16  L 11,15  Z  " style="fill:rgb(115, 84, 80); fill-opacity:1.000; stroke:none;" />
 <path d="  M 13,8  L 13,7  L 12,7  L 12,8  Z  " style="fill:rgb(115, 84, 80); fill-opacity:1.000; stroke:none;" />
 <path d="  M 15,14  L 15,15  L 13,15  L 13,16  L 16,16  L 16,12  L 15,12  L 15,11  L 14,11  L 14,10  L 13,10  L 13,11  L 12,11  L 12,12  L 13,12  L 13,13  L 14,13  L 14,14  Z  " style="fill:rgb(115, 84, 80); fill-opacity:1.000; stroke:none;" />
 <path d="  M 7,15  L 7,16  L 10,16  L 10,15  L 15,15  L 15,14  L 14,14  L 14,13  L 13,13  L 13,12  L 12,12  L 12,11  L 13,11  L 13,10  L 14,10  L 14,8  L 12,8  L 12,7  L 9,7  L 9,10  L 11,10  L 11,11  L 10,11  L 10,12  L 9,12  L 9,13  L 12,13  L 12,14  L 8,14  L 8,15  Z  M 12,8  L 12,9  L 10,9  L 10,8  Z  " style="fill:rgb(99, 74, 71); fill-opacity:1.000; stroke:none;" />
 <path d="  M 12,1  L 12,0  L 8,0  L 8,1  Z  " style="fill:rgb(99, 74, 71); fill-opacity:1.000; stroke:none;" />
 <path d="  M 12,3  L 12,2  L 10,2  L 10,3  L 11,3  L 11,4  L 8,4  L 8,5  L 9,5  L 9,6  L 14,6  L 14,4  L 13,4  L 13,3  Z  " style="fill:rgb(99, 74, 71); fill-opacity:1.000; stroke:none;" />
</svg>
