<?xml version="1.0" encoding="UTF-8" standalone="no"?>
<!DOCTYPE svg PUBLIC "-//W3C//DTD SVG 1.1//EN" 
  "http://www.w3.org/Graphics/SVG/1.1/DTD/svg11.dtd">
<svg width="16" height="16"
	 xmlns="http://www.w3.org/2000/svg" version="1.1">
 <path d="  M 4,1  L 5,1  L 5,0  L 4,0  Z  " style="fill:rgb(131, 99, 86); fill-opacity:1.000; stroke:none;" />
 <path d="  M 5,4  L 5,5  L 6,5  L 6,4  Z  " style="fill:rgb(131, 99, 86); fill-opacity:1.000; stroke:none;" />
 <path d="  M 6,1  L 7,1  L 7,2  L 9,2  L 9,1  L 10,1  L 10,0  L 6,0  Z  " style="fill:rgb(131, 99, 86); fill-opacity:1.000; stroke:none;" />
 <path d="  M 7,9  L 6,9  L 6,10  L 7,10  Z  " style="fill:rgb(131, 99, 86); fill-opacity:1.000; stroke:none;" />
 <path d="  M 8,5  L 9,5  L 9,4  L 8,4  Z  " style="fill:rgb(131, 99, 86); fill-opacity:1.000; stroke:none;" />
 <path d="  M 9,8  L 8,8  L 8,11  L 9,11  Z  " style="fill:rgb(131, 99, 86); fill-opacity:1.000; stroke:none;" />
 <path d="  M 9,4  L 10,4  L 10,3  L 9,3  Z  " style="fill:rgb(131, 99, 86); fill-opacity:1.000; stroke:none;" />
 <path d="  M 12,1  L 11,1  L 11,2  L 12,2  Z  " style="fill:rgb(131, 99, 86); fill-opacity:1.000; stroke:none;" />
 <path d="  M 5,3  L 8,3  L 8,4  L 9,4  L 9,2  L 7,2  L 7,1  L 6,1  L 6,0  L 5,0  Z  " style="fill:rgb(146, 121, 101); fill-opacity:1.000; stroke:none;" />
 <path d="  M 6,4  L 6,6  L 9,6  L 9,5  L 8,5  L 8,4  Z  " style="fill:rgb(146, 121, 101); fill-opacity:1.000; stroke:none;" />
 <path d="  M 6,8  L 6,9  L 7,9  L 7,11  L 8,11  L 8,8  Z  " style="fill:rgb(146, 121, 101); fill-opacity:1.000; stroke:none;" />
 <path d="  M 8,7  L 8,8  L 9,8  L 9,7  Z  " style="fill:rgb(146, 121, 101); fill-opacity:1.000; stroke:none;" />
 <path d="  M 8,4  L 8,3  L 5,3  L 5,4  Z  " style="fill:rgb(160, 141, 113); fill-opacity:1.000; stroke:none;" />
 <path d="  M 6,6  L 6,8  L 8,8  L 8,7  L 9,7  L 9,6  Z  " style="fill:rgb(160, 141, 113); fill-opacity:1.000; stroke:none;" />
 <path d="  M 12,0  L 10,0  L 10,1  L 9,1  L 9,3  L 10,3  L 10,4  L 9,4  L 9,8  L 10,8  L 10,5  L 11,5  L 11,1  L 12,1  Z  " style="fill:rgb(115, 84, 80); fill-opacity:1.000; stroke:none;" />
</svg>
