<?xml version="1.0" encoding="UTF-8" standalone="no"?>
<!DOCTYPE svg PUBLIC "-//W3C//DTD SVG 1.1//EN" 
  "http://www.w3.org/Graphics/SVG/1.1/DTD/svg11.dtd">
<svg width="16" height="16"
	 xmlns="http://www.w3.org/2000/svg" version="1.1">
 <path d="  M 6,8  L 6,7  L 5,7  L 5,9  L 9,9  L 9,8  Z  " style="fill:rgb(237, 48, 44); fill-opacity:1.000; stroke:none;" />
 <path d="  M 7,6  L 6,6  L 6,7  L 7,7  Z  " style="fill:rgb(237, 48, 44); fill-opacity:1.000; stroke:none;" />
 <path d="  M 8,5  L 8,6  L 9,6  L 9,5  Z  " style="fill:rgb(237, 48, 44); fill-opacity:1.000; stroke:none;" />
 <path d="  M 9,8  L 10,8  L 10,6  L 9,6  Z  " style="fill:rgb(237, 48, 44); fill-opacity:1.000; stroke:none;" />
 <path d="  M 6,14  L 6,13  L 5,13  L 5,14  Z  " style="fill:rgb(32, 70, 38); fill-opacity:1.000; stroke:none;" />
 <path d="  M 7,15  L 7,14  L 6,14  L 6,15  Z  " style="fill:rgb(32, 70, 38); fill-opacity:1.000; stroke:none;" />
 <path d="  M 8,10  L 8,9  L 7,9  L 7,10  Z  " style="fill:rgb(32, 70, 38); fill-opacity:1.000; stroke:none;" />
 <path d="  M 7,16  L 8,16  L 8,15  L 7,15  Z  " style="fill:rgb(32, 70, 38); fill-opacity:1.000; stroke:none;" />
 <path d="  M 10,14  L 8,14  L 8,15  L 9,15  L 9,16  L 10,16  Z  " style="fill:rgb(32, 70, 38); fill-opacity:1.000; stroke:none;" />
 <path d="  M 6,7  L 6,8  L 7,8  L 7,7  Z  " style="fill:rgb(191, 37, 41); fill-opacity:1.000; stroke:none;" />
 <path d="  M 7,9  L 6,9  L 6,10  L 7,10  Z  " style="fill:rgb(191, 37, 41); fill-opacity:1.000; stroke:none;" />
 <path d="  M 7,7  L 8,7  L 8,6  L 7,6  Z  " style="fill:rgb(191, 37, 41); fill-opacity:1.000; stroke:none;" />
 <path d="  M 8,7  L 8,8  L 9,8  L 9,7  Z  " style="fill:rgb(191, 37, 41); fill-opacity:1.000; stroke:none;" />
 <path d="  M 10,7  L 11,7  L 11,6  L 10,6  Z  " style="fill:rgb(191, 37, 41); fill-opacity:1.000; stroke:none;" />
 <path d="  M 6,13  L 6,14  L 7,14  L 7,13  Z  " style="fill:rgb(38, 90, 37); fill-opacity:1.000; stroke:none;" />
 <path d="  M 9,10  L 9,9  L 8,9  L 8,10  Z  " style="fill:rgb(38, 90, 37); fill-opacity:1.000; stroke:none;" />
 <path d="  M 9,15  L 8,15  L 8,16  L 9,16  Z  " style="fill:rgb(38, 90, 37); fill-opacity:1.000; stroke:none;" />
 <path d="  M 10,13  L 10,14  L 12,14  L 12,13  Z  " style="fill:rgb(38, 90, 37); fill-opacity:1.000; stroke:none;" />
 <path d="  M 8,8  L 8,7  L 7,7  L 7,8  Z  " style="fill:rgb(116, 35, 3); fill-opacity:1.000; stroke:none;" />
 <path d="  M 9,7  L 9,6  L 8,6  L 8,7  Z  " style="fill:rgb(155, 34, 26); fill-opacity:1.000; stroke:none;" />
 <path d="  M 9,6  L 10,6  L 10,5  L 9,5  Z  " style="fill:rgb(155, 34, 26); fill-opacity:1.000; stroke:none;" />
 <path d="  M 10,8  L 9,8  L 9,9  L 10,9  Z  " style="fill:rgb(155, 34, 26); fill-opacity:1.000; stroke:none;" />
 <path d="  M 10,7  L 10,8  L 11,8  L 11,7  Z  " style="fill:rgb(155, 34, 26); fill-opacity:1.000; stroke:none;" />
 <path d="  M 9,10  L 8,10  L 8,13  L 9,13  Z  " style="fill:rgb(74, 143, 40); fill-opacity:1.000; stroke:none;" />
 <path d="  M 8,14  L 9,14  L 9,13  L 8,13  Z  " style="fill:rgb(43, 112, 42); fill-opacity:1.000; stroke:none;" />
</svg>
