<?xml version="1.0" encoding="UTF-8" standalone="no"?>
<!DOCTYPE svg PUBLIC "-//W3C//DTD SVG 1.1//EN" 
  "http://www.w3.org/Graphics/SVG/1.1/DTD/svg11.dtd">
<svg width="16" height="16"
	 xmlns="http://www.w3.org/2000/svg" version="1.1">
 <path d="  M 6,1  L 6,0  L 0,0  L 0,1  L 1,1  L 1,2  L 2,2  L 2,1  Z  " style="fill:rgb(238, 234, 230); fill-opacity:1.000; stroke:none;" />
 <path d="  M 4,6  L 4,7  L 0,7  L 0,9  L 3,9  L 3,8  L 7,8  L 7,7  L 8,7  L 8,6  Z  " style="fill:rgb(238, 234, 230); fill-opacity:1.000; stroke:none;" />
 <path d="  M 4,12  L 6,12  L 6,11  L 10,11  L 10,10  L 14,10  L 14,9  L 16,9  L 16,7  L 15,7  L 15,8  L 10,8  L 10,9  L 6,9  L 6,10  L 0,10  L 0,13  L 4,13  Z  " style="fill:rgb(238, 234, 230); fill-opacity:1.000; stroke:none;" />
 <path d="  M 1,15  L 1,16  L 11,16  L 11,14  L 14,14  L 14,13  L 16,13  L 16,11  L 14,11  L 14,12  L 12,12  L 12,13  L 8,13  L 8,14  L 6,14  L 6,15  Z  " style="fill:rgb(238, 234, 230); fill-opacity:1.000; stroke:none;" />
 <path d="  M 8,4  L 12,4  L 12,3  L 14,3  L 14,2  L 15,2  L 15,1  L 16,1  L 16,0  L 13,0  L 13,1  L 11,1  L 11,2  L 10,2  L 10,3  L 8,3  Z  " style="fill:rgb(238, 234, 230); fill-opacity:1.000; stroke:none;" />
 <path d="  M 3,2  L 6,2  L 6,1  L 2,1  L 2,2  L 1,2  L 1,1  L 0,1  L 0,3  L 3,3  Z  " style="fill:rgb(238, 230, 222); fill-opacity:1.000; stroke:none;" />
 <path d="  M 0,5  L 0,7  L 4,7  L 4,6  L 3,6  L 3,5  L 6,5  L 6,4  L 2,4  L 2,5  Z  " style="fill:rgb(238, 230, 222); fill-opacity:1.000; stroke:none;" />
 <path d="  M 0,13  L 0,14  L 2,14  L 2,15  L 3,15  L 3,14  L 4,14  L 4,13  Z  " style="fill:rgb(238, 230, 222); fill-opacity:1.000; stroke:none;" />
 <path d="  M 1,15  L 0,15  L 0,16  L 1,16  Z  " style="fill:rgb(238, 230, 222); fill-opacity:1.000; stroke:none;" />
 <path d="  M 3,10  L 3,9  L 1,9  L 1,10  Z  " style="fill:rgb(238, 230, 222); fill-opacity:1.000; stroke:none;" />
 <path d="  M 5,8  L 3,8  L 3,9  L 5,9  Z  " style="fill:rgb(238, 230, 222); fill-opacity:1.000; stroke:none;" />
 <path d="  M 4,13  L 6,13  L 6,12  L 4,12  Z  " style="fill:rgb(238, 230, 222); fill-opacity:1.000; stroke:none;" />
 <path d="  M 6,15  L 6,14  L 4,14  L 4,15  Z  " style="fill:rgb(238, 230, 222); fill-opacity:1.000; stroke:none;" />
 <path d="  M 5,9  L 5,10  L 6,10  L 6,9  Z  " style="fill:rgb(238, 230, 222); fill-opacity:1.000; stroke:none;" />
 <path d="  M 6,1  L 10,1  L 10,0  L 6,0  Z  " style="fill:rgb(238, 230, 222); fill-opacity:1.000; stroke:none;" />
 <path d="  M 6,4  L 8,4  L 8,3  L 6,3  Z  " style="fill:rgb(238, 230, 222); fill-opacity:1.000; stroke:none;" />
 <path d="  M 6,11  L 6,12  L 7,12  L 7,13  L 6,13  L 6,14  L 8,14  L 8,13  L 9,13  L 9,12  L 8,12  L 8,11  Z  " style="fill:rgb(238, 230, 222); fill-opacity:1.000; stroke:none;" />
 <path d="  M 12,6  L 12,7  L 7,7  L 7,8  L 8,8  L 8,9  L 10,9  L 10,8  L 15,8  L 15,7  L 16,7  L 16,5  L 15,5  L 15,6  Z  " style="fill:rgb(238, 230, 222); fill-opacity:1.000; stroke:none;" />
 <path d="  M 10,6  L 10,5  L 11,5  L 11,4  L 9,4  L 9,5  L 8,5  L 8,6  Z  " style="fill:rgb(238, 230, 222); fill-opacity:1.000; stroke:none;" />
 <path d="  M 10,3  L 10,2  L 9,2  L 9,3  Z  " style="fill:rgb(238, 230, 222); fill-opacity:1.000; stroke:none;" />
 <path d="  M 10,10  L 10,11  L 11,11  L 11,10  Z  " style="fill:rgb(238, 230, 222); fill-opacity:1.000; stroke:none;" />
 <path d="  M 10,13  L 12,13  L 12,12  L 10,12  Z  " style="fill:rgb(238, 230, 222); fill-opacity:1.000; stroke:none;" />
 <path d="  M 11,16  L 12,16  L 12,15  L 15,15  L 15,14  L 16,14  L 16,13  L 14,13  L 14,14  L 11,14  Z  " style="fill:rgb(238, 230, 222); fill-opacity:1.000; stroke:none;" />
 <path d="  M 16,1  L 15,1  L 15,2  L 14,2  L 14,3  L 12,3  L 12,4  L 15,4  L 15,3  L 16,3  Z  " style="fill:rgb(238, 230, 222); fill-opacity:1.000; stroke:none;" />
 <path d="  M 16,10  L 16,9  L 14,9  L 14,10  Z  " style="fill:rgb(238, 230, 222); fill-opacity:1.000; stroke:none;" />
 <path d="  M 13,1  L 13,0  L 10,0  L 10,1  L 6,1  L 6,2  L 3,2  L 3,3  L 0,3  L 0,5  L 2,5  L 2,4  L 6,4  L 6,3  L 9,3  L 9,2  L 11,2  L 11,1  Z  " style="fill:rgb(234, 226, 218); fill-opacity:1.000; stroke:none;" />
 <path d="  M 0,10  L 1,10  L 1,9  L 0,9  Z  " style="fill:rgb(234, 226, 218); fill-opacity:1.000; stroke:none;" />
 <path d="  M 2,14  L 0,14  L 0,15  L 2,15  Z  " style="fill:rgb(234, 226, 218); fill-opacity:1.000; stroke:none;" />
 <path d="  M 6,4  L 6,5  L 3,5  L 3,6  L 8,6  L 8,5  L 9,5  L 9,4  Z  " style="fill:rgb(234, 226, 218); fill-opacity:1.000; stroke:none;" />
 <path d="  M 3,9  L 3,10  L 5,10  L 5,9  Z  " style="fill:rgb(234, 226, 218); fill-opacity:1.000; stroke:none;" />
 <path d="  M 3,15  L 4,15  L 4,14  L 3,14  Z  " style="fill:rgb(234, 226, 218); fill-opacity:1.000; stroke:none;" />
 <path d="  M 6,14  L 6,13  L 4,13  L 4,14  Z  " style="fill:rgb(234, 226, 218); fill-opacity:1.000; stroke:none;" />
 <path d="  M 5,8  L 5,9  L 8,9  L 8,8  Z  " style="fill:rgb(234, 226, 218); fill-opacity:1.000; stroke:none;" />
 <path d="  M 6,13  L 7,13  L 7,12  L 6,12  Z  " style="fill:rgb(234, 226, 218); fill-opacity:1.000; stroke:none;" />
 <path d="  M 15,5  L 16,5  L 16,3  L 15,3  L 15,4  L 11,4  L 11,5  L 10,5  L 10,6  L 8,6  L 8,7  L 12,7  L 12,6  L 15,6  Z  " style="fill:rgb(234, 226, 218); fill-opacity:1.000; stroke:none;" />
 <path d="  M 10,13  L 10,12  L 14,12  L 14,11  L 16,11  L 16,10  L 11,10  L 11,11  L 8,11  L 8,12  L 9,12  L 9,13  Z  " style="fill:rgb(234, 226, 218); fill-opacity:1.000; stroke:none;" />
 <path d="  M 16,16  L 16,14  L 15,14  L 15,15  L 12,15  L 12,16  Z  " style="fill:rgb(234, 226, 218); fill-opacity:1.000; stroke:none;" />
</svg>
