<?xml version="1.0" encoding="UTF-8" standalone="no"?>
<!DOCTYPE svg PUBLIC "-//W3C//DTD SVG 1.1//EN" 
  "http://www.w3.org/Graphics/SVG/1.1/DTD/svg11.dtd">
<svg width="16" height="16"
	 xmlns="http://www.w3.org/2000/svg" version="1.1">
 <path d="  M 1,10  L 2,10  L 2,9  L 1,9  Z  " style="fill:rgb(149, 70, 119); fill-opacity:1.000; stroke:none;" />
 <path d="  M 3,12  L 2,12  L 2,13  L 3,13  Z  " style="fill:rgb(149, 70, 119); fill-opacity:1.000; stroke:none;" />
 <path d="  M 5,16  L 5,15  L 4,15  L 4,16  Z  " style="fill:rgb(149, 70, 119); fill-opacity:1.000; stroke:none;" />
 <path d="  M 6,15  L 6,14  L 5,14  L 5,15  Z  " style="fill:rgb(149, 70, 119); fill-opacity:1.000; stroke:none;" />
 <path d="  M 6,13  L 6,14  L 7,14  L 7,13  Z  " style="fill:rgb(149, 70, 119); fill-opacity:1.000; stroke:none;" />
 <path d="  M 10,13  L 9,13  L 9,14  L 10,14  Z  " style="fill:rgb(149, 70, 119); fill-opacity:1.000; stroke:none;" />
 <path d="  M 10,14  L 10,15  L 11,15  L 11,14  Z  " style="fill:rgb(149, 70, 119); fill-opacity:1.000; stroke:none;" />
 <path d="  M 12,16  L 12,15  L 11,15  L 11,16  Z  " style="fill:rgb(149, 70, 119); fill-opacity:1.000; stroke:none;" />
 <path d="  M 13,12  L 13,13  L 14,13  L 14,12  Z  " style="fill:rgb(149, 70, 119); fill-opacity:1.000; stroke:none;" />
 <path d="  M 14,10  L 15,10  L 15,9  L 14,9  Z  " style="fill:rgb(149, 70, 119); fill-opacity:1.000; stroke:none;" />
 <path d="  M 1,13  L 2,13  L 2,10  L 1,10  Z  " style="fill:rgb(125, 55, 97); fill-opacity:1.000; stroke:none;" />
 <path d="  M 5,15  L 5,14  L 4,14  L 4,13  L 2,13  L 2,14  L 3,14  L 3,15  Z  " style="fill:rgb(125, 55, 97); fill-opacity:1.000; stroke:none;" />
 <path d="  M 5,15  L 5,16  L 6,16  L 6,15  Z  " style="fill:rgb(125, 55, 97); fill-opacity:1.000; stroke:none;" />
 <path d="  M 7,15  L 7,14  L 6,14  L 6,15  Z  " style="fill:rgb(125, 55, 97); fill-opacity:1.000; stroke:none;" />
 <path d="  M 7,13  L 7,14  L 9,14  L 9,13  Z  " style="fill:rgb(125, 55, 97); fill-opacity:1.000; stroke:none;" />
 <path d="  M 10,15  L 10,14  L 9,14  L 9,15  Z  " style="fill:rgb(125, 55, 97); fill-opacity:1.000; stroke:none;" />
 <path d="  M 10,15  L 10,16  L 11,16  L 11,15  Z  " style="fill:rgb(125, 55, 97); fill-opacity:1.000; stroke:none;" />
 <path d="  M 12,13  L 12,14  L 11,14  L 11,15  L 13,15  L 13,14  L 14,14  L 14,13  Z  " style="fill:rgb(125, 55, 97); fill-opacity:1.000; stroke:none;" />
 <path d="  M 14,13  L 15,13  L 15,10  L 14,10  Z  " style="fill:rgb(125, 55, 97); fill-opacity:1.000; stroke:none;" />
 <path d="  M 2,9  L 2,11  L 3,11  L 3,10  L 4,10  L 4,9  Z  " style="fill:rgb(253, 135, 207); fill-opacity:1.000; stroke:none;" />
 <path d="  M 3,12  L 4,12  L 4,11  L 3,11  Z  " style="fill:rgb(253, 135, 207); fill-opacity:1.000; stroke:none;" />
 <path d="  M 4,11  L 5,11  L 5,10  L 4,10  Z  " style="fill:rgb(253, 135, 207); fill-opacity:1.000; stroke:none;" />
 <path d="  M 9,6  L 9,5  L 7,5  L 7,6  L 5,6  L 5,9  L 6,9  L 6,8  L 7,8  L 7,7  L 9,7  L 9,8  L 10,8  L 10,9  L 11,9  L 11,6  Z  " style="fill:rgb(253, 135, 207); fill-opacity:1.000; stroke:none;" />
 <path d="  M 12,10  L 11,10  L 11,11  L 12,11  Z  " style="fill:rgb(253, 135, 207); fill-opacity:1.000; stroke:none;" />
 <path d="  M 14,11  L 14,9  L 12,9  L 12,10  L 13,10  L 13,11  Z  " style="fill:rgb(253, 135, 207); fill-opacity:1.000; stroke:none;" />
 <path d="  M 13,11  L 12,11  L 12,12  L 13,12  Z  " style="fill:rgb(253, 135, 207); fill-opacity:1.000; stroke:none;" />
 <path d="  M 2,12  L 3,12  L 3,11  L 2,11  Z  " style="fill:rgb(220, 91, 170); fill-opacity:1.000; stroke:none;" />
 <path d="  M 5,7  L 5,6  L 4,6  L 4,7  Z  " style="fill:rgb(220, 91, 170); fill-opacity:1.000; stroke:none;" />
 <path d="  M 5,8  L 4,8  L 4,9  L 5,9  Z  " style="fill:rgb(220, 91, 170); fill-opacity:1.000; stroke:none;" />
 <path d="  M 5,5  L 5,6  L 6,6  L 6,5  Z  " style="fill:rgb(220, 91, 170); fill-opacity:1.000; stroke:none;" />
 <path d="  M 5,9  L 5,10  L 6,10  L 6,9  Z  " style="fill:rgb(220, 91, 170); fill-opacity:1.000; stroke:none;" />
 <path d="  M 5,12  L 5,13  L 6,13  L 6,12  Z  " style="fill:rgb(220, 91, 170); fill-opacity:1.000; stroke:none;" />
 <path d="  M 6,4  L 6,5  L 7,5  L 7,4  Z  " style="fill:rgb(220, 91, 170); fill-opacity:1.000; stroke:none;" />
 <path d="  M 7,11  L 6,11  L 6,12  L 7,12  Z  " style="fill:rgb(220, 91, 170); fill-opacity:1.000; stroke:none;" />
 <path d="  M 9,4  L 9,3  L 7,3  L 7,4  Z  " style="fill:rgb(220, 91, 170); fill-opacity:1.000; stroke:none;" />
 <path d="  M 9,10  L 7,10  L 7,11  L 9,11  Z  " style="fill:rgb(220, 91, 170); fill-opacity:1.000; stroke:none;" />
 <path d="  M 9,4  L 9,5  L 10,5  L 10,4  Z  " style="fill:rgb(220, 91, 170); fill-opacity:1.000; stroke:none;" />
 <path d="  M 10,12  L 10,11  L 9,11  L 9,12  Z  " style="fill:rgb(220, 91, 170); fill-opacity:1.000; stroke:none;" />
 <path d="  M 11,5  L 10,5  L 10,6  L 11,6  Z  " style="fill:rgb(220, 91, 170); fill-opacity:1.000; stroke:none;" />
 <path d="  M 10,9  L 10,10  L 11,10  L 11,9  Z  " style="fill:rgb(220, 91, 170); fill-opacity:1.000; stroke:none;" />
 <path d="  M 11,13  L 11,12  L 10,12  L 10,13  Z  " style="fill:rgb(220, 91, 170); fill-opacity:1.000; stroke:none;" />
 <path d="  M 12,6  L 11,6  L 11,7  L 12,7  Z  " style="fill:rgb(220, 91, 170); fill-opacity:1.000; stroke:none;" />
 <path d="  M 12,9  L 12,8  L 11,8  L 11,9  Z  " style="fill:rgb(220, 91, 170); fill-opacity:1.000; stroke:none;" />
 <path d="  M 13,12  L 14,12  L 14,11  L 13,11  Z  " style="fill:rgb(220, 91, 170); fill-opacity:1.000; stroke:none;" />
 <path d="  M 3,9  L 4,9  L 4,8  L 3,8  Z  " style="fill:rgb(244, 105, 189); fill-opacity:1.000; stroke:none;" />
 <path d="  M 3,10  L 3,11  L 4,11  L 4,10  Z  " style="fill:rgb(244, 105, 189); fill-opacity:1.000; stroke:none;" />
 <path d="  M 5,10  L 5,9  L 4,9  L 4,10  Z  " style="fill:rgb(244, 105, 189); fill-opacity:1.000; stroke:none;" />
 <path d="  M 5,10  L 5,11  L 4,11  L 4,13  L 5,13  L 5,12  L 6,12  L 6,11  L 7,11  L 7,10  L 9,10  L 9,11  L 10,11  L 10,12  L 11,12  L 11,13  L 12,13  L 12,11  L 11,11  L 11,10  L 10,10  L 10,8  L 9,8  L 9,7  L 7,7  L 7,8  L 6,8  L 6,10  Z  " style="fill:rgb(244, 105, 189); fill-opacity:1.000; stroke:none;" />
 <path d="  M 7,6  L 7,5  L 6,5  L 6,6  Z  " style="fill:rgb(244, 105, 189); fill-opacity:1.000; stroke:none;" />
 <path d="  M 9,5  L 9,4  L 7,4  L 7,5  Z  " style="fill:rgb(244, 105, 189); fill-opacity:1.000; stroke:none;" />
 <path d="  M 9,6  L 10,6  L 10,5  L 9,5  Z  " style="fill:rgb(244, 105, 189); fill-opacity:1.000; stroke:none;" />
 <path d="  M 11,9  L 11,10  L 12,10  L 12,9  Z  " style="fill:rgb(244, 105, 189); fill-opacity:1.000; stroke:none;" />
 <path d="  M 12,9  L 13,9  L 13,8  L 12,8  Z  " style="fill:rgb(244, 105, 189); fill-opacity:1.000; stroke:none;" />
 <path d="  M 12,10  L 12,11  L 13,11  L 13,10  Z  " style="fill:rgb(244, 105, 189); fill-opacity:1.000; stroke:none;" />
 <path d="  M 4,12  L 3,12  L 3,13  L 4,13  Z  " style="fill:rgb(182, 77, 144); fill-opacity:1.000; stroke:none;" />
 <path d="  M 5,7  L 4,7  L 4,8  L 5,8  Z  " style="fill:rgb(182, 77, 144); fill-opacity:1.000; stroke:none;" />
 <path d="  M 6,14  L 6,13  L 4,13  L 4,14  Z  " style="fill:rgb(182, 77, 144); fill-opacity:1.000; stroke:none;" />
 <path d="  M 10,12  L 9,12  L 9,11  L 7,11  L 7,12  L 6,12  L 6,13  L 10,13  Z  " style="fill:rgb(182, 77, 144); fill-opacity:1.000; stroke:none;" />
 <path d="  M 10,13  L 10,14  L 12,14  L 12,13  Z  " style="fill:rgb(182, 77, 144); fill-opacity:1.000; stroke:none;" />
 <path d="  M 11,7  L 11,8  L 12,8  L 12,7  Z  " style="fill:rgb(182, 77, 144); fill-opacity:1.000; stroke:none;" />
 <path d="  M 13,12  L 12,12  L 12,13  L 13,13  Z  " style="fill:rgb(182, 77, 144); fill-opacity:1.000; stroke:none;" />
 <path d="  M 6,16  L 7,16  L 7,15  L 6,15  Z  " style="fill:rgb(214, 138, 67); fill-opacity:1.000; stroke:none;" />
 <path d="  M 7,14  L 7,15  L 9,15  L 9,14  Z  " style="fill:rgb(214, 138, 67); fill-opacity:1.000; stroke:none;" />
 <path d="  M 9,16  L 10,16  L 10,15  L 9,15  Z  " style="fill:rgb(214, 138, 67); fill-opacity:1.000; stroke:none;" />
 <path d="  M 7,15  L 7,16  L 9,16  L 9,15  Z  " style="fill:rgb(237, 191, 105); fill-opacity:1.000; stroke:none;" />
</svg>
