<?xml version="1.0" encoding="UTF-8" standalone="no"?>
<!DOCTYPE svg PUBLIC "-//W3C//DTD SVG 1.1//EN" 
  "http://www.w3.org/Graphics/SVG/1.1/DTD/svg11.dtd">
<svg width="16" height="16"
	 xmlns="http://www.w3.org/2000/svg" version="1.1">
 <path d="  M 5,3  L 5,4  L 6,4  L 6,3  Z  " style="fill:rgb(144, 144, 144); fill-opacity:1.000; stroke:none;" />
 <path d="  M 6,4  L 6,5  L 7,5  L 7,4  Z  " style="fill:rgb(144, 144, 144); fill-opacity:1.000; stroke:none;" />
 <path d="  M 6,7  L 6,8  L 7,8  L 7,7  Z  " style="fill:rgb(144, 144, 144); fill-opacity:1.000; stroke:none;" />
 <path d="  M 9,4  L 9,5  L 10,5  L 10,4  Z  " style="fill:rgb(144, 144, 144); fill-opacity:1.000; stroke:none;" />
 <path d="  M 5,6  L 6,6  L 6,4  L 5,4  Z  " style="fill:rgb(137, 137, 137); fill-opacity:1.000; stroke:none;" />
 <path d="  M 6,4  L 8,4  L 8,3  L 6,3  Z  " style="fill:rgb(137, 137, 137); fill-opacity:1.000; stroke:none;" />
 <path d="  M 7,9  L 7,8  L 6,8  L 6,9  Z  " style="fill:rgb(137, 137, 137); fill-opacity:1.000; stroke:none;" />
 <path d="  M 9,4  L 10,4  L 10,3  L 9,3  Z  " style="fill:rgb(137, 137, 137); fill-opacity:1.000; stroke:none;" />
 <path d="  M 9,7  L 9,8  L 10,8  L 10,7  Z  " style="fill:rgb(137, 137, 137); fill-opacity:1.000; stroke:none;" />
 <path d="  M 11,5  L 11,4  L 10,4  L 10,5  Z  " style="fill:rgb(137, 137, 137); fill-opacity:1.000; stroke:none;" />
 <path d="  M 6,6  L 5,6  L 5,9  L 6,9  Z  " style="fill:rgb(132, 132, 132); fill-opacity:1.000; stroke:none;" />
 <path d="  M 7,8  L 7,9  L 8,9  L 8,8  Z  " style="fill:rgb(132, 132, 132); fill-opacity:1.000; stroke:none;" />
 <path d="  M 8,3  L 8,4  L 9,4  L 9,3  Z  " style="fill:rgb(132, 132, 132); fill-opacity:1.000; stroke:none;" />
 <path d="  M 11,3  L 10,3  L 10,4  L 11,4  Z  " style="fill:rgb(132, 132, 132); fill-opacity:1.000; stroke:none;" />
 <path d="  M 11,5  L 10,5  L 10,7  L 11,7  Z  " style="fill:rgb(132, 132, 132); fill-opacity:1.000; stroke:none;" />
 <path d="  M 6,7  L 7,7  L 7,5  L 6,5  Z  " style="fill:rgb(122, 122, 122); fill-opacity:1.000; stroke:none;" />
 <path d="  M 9,5  L 9,4  L 7,4  L 7,5  Z  " style="fill:rgb(122, 122, 122); fill-opacity:1.000; stroke:none;" />
 <path d="  M 11,9  L 11,7  L 10,7  L 10,8  L 8,8  L 8,9  Z  " style="fill:rgb(122, 122, 122); fill-opacity:1.000; stroke:none;" />
 <path d="  M 7,8  L 9,8  L 9,7  L 7,7  Z  " style="fill:rgb(148, 148, 148); fill-opacity:1.000; stroke:none;" />
 <path d="  M 9,5  L 9,7  L 10,7  L 10,5  Z  " style="fill:rgb(148, 148, 148); fill-opacity:1.000; stroke:none;" />
 <path d="  M 8,10  L 8,9  L 7,9  L 7,10  Z  " style="fill:rgb(159, 132, 77); fill-opacity:1.000; stroke:none;" />
 <path d="  M 8,14  L 7,14  L 7,15  L 9,15  L 9,13  L 8,13  Z  " style="fill:rgb(159, 132, 77); fill-opacity:1.000; stroke:none;" />
 <path d="  M 7,12  L 8,12  L 8,11  L 9,11  L 9,10  L 7,10  Z  " style="fill:rgb(188, 152, 98); fill-opacity:1.000; stroke:none;" />
 <path d="  M 8,12  L 7,12  L 7,14  L 8,14  L 8,13  L 9,13  L 9,11  L 8,11  Z  " style="fill:rgb(180, 144, 90); fill-opacity:1.000; stroke:none;" />
 <path d="  M 7,15  L 7,16  L 9,16  L 9,15  Z  " style="fill:rgb(115, 94, 57); fill-opacity:1.000; stroke:none;" />
 <path d="  M 9,10  L 9,9  L 8,9  L 8,10  Z  " style="fill:rgb(115, 94, 57); fill-opacity:1.000; stroke:none;" />
</svg>
