<?xml version="1.0" encoding="UTF-8" standalone="no"?>
<!DOCTYPE svg PUBLIC "-//W3C//DTD SVG 1.1//EN" 
  "http://www.w3.org/Graphics/SVG/1.1/DTD/svg11.dtd">
<svg width="16" height="16"
	 xmlns="http://www.w3.org/2000/svg" version="1.1">
 <path d="  M 4,9  L 3,9  L 3,10  L 4,10  Z  " style="fill:rgb(22, 126, 134); fill-opacity:1.000; stroke:none;" />
 <path d="  M 5,9  L 5,10  L 6,10  L 6,9  Z  " style="fill:rgb(22, 126, 134); fill-opacity:1.000; stroke:none;" />
 <path d="  M 5,12  L 5,13  L 6,13  L 6,12  Z  " style="fill:rgb(22, 126, 134); fill-opacity:1.000; stroke:none;" />
 <path d="  M 7,9  L 7,8  L 6,8  L 6,9  Z  " style="fill:rgb(22, 126, 134); fill-opacity:1.000; stroke:none;" />
 <path d="  M 7,3  L 8,3  L 8,2  L 7,2  Z  " style="fill:rgb(22, 126, 134); fill-opacity:1.000; stroke:none;" />
 <path d="  M 7,14  L 8,14  L 8,12  L 9,12  L 9,9  L 8,9  L 8,11  L 7,11  Z  " style="fill:rgb(22, 126, 134); fill-opacity:1.000; stroke:none;" />
 <path d="  M 9,2  L 9,4  L 10,4  L 10,1  L 8,1  L 8,2  Z  " style="fill:rgb(22, 126, 134); fill-opacity:1.000; stroke:none;" />
 <path d="  M 10,8  L 9,8  L 9,9  L 10,9  Z  " style="fill:rgb(22, 126, 134); fill-opacity:1.000; stroke:none;" />
 <path d="  M 13,4  L 12,4  L 12,5  L 13,5  Z  " style="fill:rgb(22, 126, 134); fill-opacity:1.000; stroke:none;" />
 <path d="  M 5,8  L 4,8  L 4,9  L 5,9  Z  " style="fill:rgb(20, 180, 133); fill-opacity:1.000; stroke:none;" />
 <path d="  M 7,12  L 6,12  L 6,13  L 4,13  L 4,15  L 5,15  L 5,16  L 6,16  L 6,14  L 7,14  Z  " style="fill:rgb(20, 180, 133); fill-opacity:1.000; stroke:none;" />
 <path d="  M 8,7  L 9,7  L 9,5  L 10,5  L 10,4  L 9,4  L 9,3  L 8,3  L 8,4  L 7,4  L 7,9  L 6,9  L 6,10  L 8,10  Z  " style="fill:rgb(20, 180, 133); fill-opacity:1.000; stroke:none;" />
 <path d="  M 12,4  L 12,3  L 11,3  L 11,4  Z  " style="fill:rgb(20, 180, 133); fill-opacity:1.000; stroke:none;" />
 <path d="  M 5,10  L 5,9  L 4,9  L 4,10  Z  " style="fill:rgb(17, 155, 133); fill-opacity:1.000; stroke:none;" />
 <path d="  M 5,8  L 5,9  L 6,9  L 6,8  Z  " style="fill:rgb(17, 155, 133); fill-opacity:1.000; stroke:none;" />
 <path d="  M 6,6  L 6,8  L 7,8  L 7,6  Z  " style="fill:rgb(17, 155, 133); fill-opacity:1.000; stroke:none;" />
 <path d="  M 7,12  L 7,11  L 8,11  L 8,10  L 6,10  L 6,12  Z  " style="fill:rgb(17, 155, 133); fill-opacity:1.000; stroke:none;" />
 <path d="  M 6,14  L 6,16  L 7,16  L 7,14  Z  " style="fill:rgb(17, 155, 133); fill-opacity:1.000; stroke:none;" />
 <path d="  M 8,3  L 7,3  L 7,4  L 8,4  Z  " style="fill:rgb(17, 155, 133); fill-opacity:1.000; stroke:none;" />
 <path d="  M 9,2  L 8,2  L 8,3  L 9,3  Z  " style="fill:rgb(17, 155, 133); fill-opacity:1.000; stroke:none;" />
 <path d="  M 8,7  L 8,9  L 9,9  L 9,8  L 10,8  L 10,5  L 9,5  L 9,7  Z  " style="fill:rgb(17, 155, 133); fill-opacity:1.000; stroke:none;" />
 <path d="  M 11,3  L 10,3  L 10,4  L 11,4  Z  " style="fill:rgb(17, 155, 133); fill-opacity:1.000; stroke:none;" />
 <path d="  M 11,4  L 11,5  L 12,5  L 12,4  Z  " style="fill:rgb(17, 155, 133); fill-opacity:1.000; stroke:none;" />
 <path d="  M 5,16  L 5,15  L 4,15  L 4,16  Z  " style="fill:rgb(22, 97, 91); fill-opacity:1.000; stroke:none;" />
 <path d="  M 5,10  L 5,12  L 6,12  L 6,10  Z  " style="fill:rgb(22, 97, 91); fill-opacity:1.000; stroke:none;" />
 <path d="  M 9,12  L 8,12  L 8,14  L 7,14  L 7,16  L 9,16  Z  " style="fill:rgb(22, 97, 91); fill-opacity:1.000; stroke:none;" />
 <path d="  M 9,9  L 9,11  L 10,11  L 10,9  Z  " style="fill:rgb(22, 97, 91); fill-opacity:1.000; stroke:none;" />
 <path d="  M 11,4  L 10,4  L 10,8  L 11,8  Z  " style="fill:rgb(22, 97, 91); fill-opacity:1.000; stroke:none;" />
</svg>
