<?xml version="1.0" encoding="UTF-8" standalone="no"?>
<!DOCTYPE svg PUBLIC "-//W3C//DTD SVG 1.1//EN" 
  "http://www.w3.org/Graphics/SVG/1.1/DTD/svg11.dtd">
<svg width="16" height="16"
	 xmlns="http://www.w3.org/2000/svg" version="1.1">
 <path d="  M 0,0  L 0,16  L 16,16  L 16,0  Z  M 15,15  L 1,15  L 1,1  L 15,1  Z  " style="fill:rgb(255, 255, 255); fill-opacity:0.639; stroke:none;" />
 <path d="  M 1,15  L 15,15  L 15,1  L 1,1  Z  M 5,3  L 4,3  L 4,2  L 5,2  Z  M 12,14  L 12,13  L 13,13  L 13,14  Z  M 3,4  L 3,5  L 2,5  L 2,4  Z  M 4,4  L 3,4  L 3,3  L 4,3  Z  M 13,12  L 14,12  L 14,13  L 13,13  Z  " style="fill:rgb(255, 255, 255); fill-opacity:0.400; stroke:none;" />
 <path d="  M 3,5  L 3,4  L 2,4  L 2,5  Z  " style="fill:rgb(255, 255, 255); fill-opacity:0.608; stroke:none;" />
 <path d="  M 3,3  L 3,4  L 4,4  L 4,3  Z  " style="fill:rgb(255, 255, 255); fill-opacity:0.608; stroke:none;" />
 <path d="  M 4,3  L 5,3  L 5,2  L 4,2  Z  " style="fill:rgb(255, 255, 255); fill-opacity:0.608; stroke:none;" />
 <path d="  M 12,13  L 12,14  L 13,14  L 13,13  Z  " style="fill:rgb(255, 255, 255); fill-opacity:0.608; stroke:none;" />
 <path d="  M 13,12  L 13,13  L 14,13  L 14,12  Z  " style="fill:rgb(255, 255, 255); fill-opacity:0.608; stroke:none;" />
</svg>
