<?xml version="1.0" encoding="UTF-8" standalone="no"?>
<!DOCTYPE svg PUBLIC "-//W3C//DTD SVG 1.1//EN" 
  "http://www.w3.org/Graphics/SVG/1.1/DTD/svg11.dtd">
<svg width="16" height="16"
	 xmlns="http://www.w3.org/2000/svg" version="1.1">
 <path d="  M 6,1  L 6,3  L 7,3  L 7,1  Z  " style="fill:rgb(37, 44, 61); fill-opacity:1.000; stroke:none;" />
 <path d="  M 6,6  L 6,8  L 7,8  L 7,6  Z  " style="fill:rgb(37, 44, 61); fill-opacity:1.000; stroke:none;" />
 <path d="  M 7,12  L 6,12  L 6,14  L 7,14  Z  " style="fill:rgb(37, 44, 61); fill-opacity:1.000; stroke:none;" />
 <path d="  M 7,5  L 8,5  L 8,4  L 7,4  Z  " style="fill:rgb(37, 44, 61); fill-opacity:1.000; stroke:none;" />
 <path d="  M 7,11  L 8,11  L 8,9  L 7,9  Z  " style="fill:rgb(37, 44, 61); fill-opacity:1.000; stroke:none;" />
 <path d="  M 9,1  L 8,1  L 8,3  L 9,3  Z  " style="fill:rgb(37, 44, 61); fill-opacity:1.000; stroke:none;" />
 <path d="  M 8,8  L 9,8  L 9,5  L 8,5  Z  " style="fill:rgb(37, 44, 61); fill-opacity:1.000; stroke:none;" />
 <path d="  M 9,13  L 9,11  L 8,11  L 8,13  Z  " style="fill:rgb(37, 44, 61); fill-opacity:1.000; stroke:none;" />
 <path d="  M 6,4  L 6,5  L 7,5  L 7,4  Z  " style="fill:rgb(73, 80, 101); fill-opacity:1.000; stroke:none;" />
 <path d="  M 7,3  L 8,3  L 8,2  L 7,2  Z  " style="fill:rgb(73, 80, 101); fill-opacity:1.000; stroke:none;" />
 <path d="  M 8,8  L 8,7  L 7,7  L 7,8  Z  " style="fill:rgb(73, 80, 101); fill-opacity:1.000; stroke:none;" />
 <path d="  M 7,13  L 7,14  L 8,14  L 8,13  Z  " style="fill:rgb(73, 80, 101); fill-opacity:1.000; stroke:none;" />
 <path d="  M 7,6  L 7,5  L 6,5  L 6,6  Z  " style="fill:rgb(62, 68, 83); fill-opacity:1.000; stroke:none;" />
 <path d="  M 7,12  L 7,10  L 6,10  L 6,12  Z  " style="fill:rgb(62, 68, 83); fill-opacity:1.000; stroke:none;" />
 <path d="  M 8,3  L 7,3  L 7,4  L 8,4  Z  " style="fill:rgb(62, 68, 83); fill-opacity:1.000; stroke:none;" />
 <path d="  M 7,8  L 7,9  L 8,9  L 8,8  Z  " style="fill:rgb(62, 68, 83); fill-opacity:1.000; stroke:none;" />
 <path d="  M 8,15  L 8,14  L 7,14  L 7,15  Z  " style="fill:rgb(62, 68, 83); fill-opacity:1.000; stroke:none;" />
 <path d="  M 8,5  L 9,5  L 9,4  L 8,4  Z  " style="fill:rgb(62, 68, 83); fill-opacity:1.000; stroke:none;" />
 <path d="  M 9,11  L 9,10  L 8,10  L 8,11  Z  " style="fill:rgb(62, 68, 83); fill-opacity:1.000; stroke:none;" />
 <path d="  M 8,14  L 9,14  L 9,13  L 8,13  Z  " style="fill:rgb(62, 68, 83); fill-opacity:1.000; stroke:none;" />
</svg>
