<?xml version="1.0" encoding="UTF-8" standalone="no"?>
<!DOCTYPE svg PUBLIC "-//W3C//DTD SVG 1.1//EN" 
  "http://www.w3.org/Graphics/SVG/1.1/DTD/svg11.dtd">
<svg width="16" height="16"
	 xmlns="http://www.w3.org/2000/svg" version="1.1">
 <path d="  M 3,8  L 2,8  L 2,11  L 3,11  Z  " style="fill:rgb(64, 68, 90); fill-opacity:1.000; stroke:none;" />
 <path d="  M 4,6  L 3,6  L 3,8  L 4,8  Z  " style="fill:rgb(64, 68, 90); fill-opacity:1.000; stroke:none;" />
 <path d="  M 3,12  L 4,12  L 4,11  L 3,11  Z  " style="fill:rgb(64, 68, 90); fill-opacity:1.000; stroke:none;" />
 <path d="  M 4,5  L 4,6  L 5,6  L 5,5  Z  " style="fill:rgb(64, 68, 90); fill-opacity:1.000; stroke:none;" />
 <path d="  M 5,4  L 5,5  L 6,5  L 6,4  Z  " style="fill:rgb(64, 68, 90); fill-opacity:1.000; stroke:none;" />
 <path d="  M 6,4  L 10,4  L 10,3  L 6,3  Z  " style="fill:rgb(64, 68, 90); fill-opacity:1.000; stroke:none;" />
 <path d="  M 11,5  L 11,4  L 10,4  L 10,5  Z  " style="fill:rgb(64, 68, 90); fill-opacity:1.000; stroke:none;" />
 <path d="  M 3,9  L 4,9  L 4,8  L 3,8  Z  " style="fill:rgb(161, 167, 177); fill-opacity:1.000; stroke:none;" />
 <path d="  M 4,8  L 6,8  L 6,7  L 5,7  L 5,6  L 4,6  Z  " style="fill:rgb(161, 167, 177); fill-opacity:1.000; stroke:none;" />
 <path d="  M 6,11  L 6,10  L 7,10  L 7,9  L 4,9  L 4,11  L 5,11  L 5,12  L 8,12  L 8,11  Z  " style="fill:rgb(161, 167, 177); fill-opacity:1.000; stroke:none;" />
 <path d="  M 6,7  L 7,7  L 7,5  L 6,5  Z  " style="fill:rgb(161, 167, 177); fill-opacity:1.000; stroke:none;" />
 <path d="  M 7,5  L 8,5  L 8,4  L 7,4  Z  " style="fill:rgb(161, 167, 177); fill-opacity:1.000; stroke:none;" />
 <path d="  M 8,5  L 8,6  L 9,6  L 9,5  Z  " style="fill:rgb(161, 167, 177); fill-opacity:1.000; stroke:none;" />
 <path d="  M 8,7  L 8,8  L 10,8  L 10,6  L 9,6  L 9,7  Z  " style="fill:rgb(161, 167, 177); fill-opacity:1.000; stroke:none;" />
 <path d="  M 8,11  L 9,11  L 9,10  L 10,10  L 10,9  L 8,9  Z  " style="fill:rgb(161, 167, 177); fill-opacity:1.000; stroke:none;" />
 <path d="  M 4,9  L 3,9  L 3,10  L 4,10  Z  " style="fill:rgb(148, 153, 164); fill-opacity:1.000; stroke:none;" />
 <path d="  M 5,8  L 4,8  L 4,9  L 5,9  Z  " style="fill:rgb(148, 153, 164); fill-opacity:1.000; stroke:none;" />
 <path d="  M 5,5  L 5,6  L 6,6  L 6,5  Z  " style="fill:rgb(148, 153, 164); fill-opacity:1.000; stroke:none;" />
 <path d="  M 6,7  L 6,8  L 7,8  L 7,7  Z  " style="fill:rgb(148, 153, 164); fill-opacity:1.000; stroke:none;" />
 <path d="  M 8,5  L 7,5  L 7,6  L 8,6  Z  " style="fill:rgb(148, 153, 164); fill-opacity:1.000; stroke:none;" />
 <path d="  M 8,10  L 8,9  L 7,9  L 7,10  Z  " style="fill:rgb(148, 153, 164); fill-opacity:1.000; stroke:none;" />
 <path d="  M 9,8  L 8,8  L 8,9  L 9,9  Z  " style="fill:rgb(148, 153, 164); fill-opacity:1.000; stroke:none;" />
 <path d="  M 3,10  L 3,11  L 4,11  L 4,10  Z  " style="fill:rgb(117, 125, 144); fill-opacity:1.000; stroke:none;" />
 <path d="  M 6,4  L 6,5  L 7,5  L 7,4  Z  " style="fill:rgb(117, 125, 144); fill-opacity:1.000; stroke:none;" />
 <path d="  M 8,12  L 6,12  L 6,13  L 8,13  Z  " style="fill:rgb(117, 125, 144); fill-opacity:1.000; stroke:none;" />
 <path d="  M 9,6  L 11,6  L 11,5  L 10,5  L 10,4  L 8,4  L 8,5  L 9,5  Z  " style="fill:rgb(117, 125, 144); fill-opacity:1.000; stroke:none;" />
 <path d="  M 10,13  L 10,12  L 11,12  L 11,11  L 12,11  L 12,10  L 11,10  L 11,8  L 9,8  L 9,9  L 10,9  L 10,11  L 8,11  L 8,12  L 9,12  L 9,13  Z  " style="fill:rgb(117, 125, 144); fill-opacity:1.000; stroke:none;" />
 <path d="  M 11,8  L 12,8  L 12,6  L 11,6  Z  " style="fill:rgb(117, 125, 144); fill-opacity:1.000; stroke:none;" />
 <path d="  M 12,10  L 13,10  L 13,8  L 12,8  Z  " style="fill:rgb(117, 125, 144); fill-opacity:1.000; stroke:none;" />
 <path d="  M 5,12  L 5,11  L 4,11  L 4,12  Z  " style="fill:rgb(94, 108, 141); fill-opacity:1.000; stroke:none;" />
 <path d="  M 8,13  L 9,13  L 9,12  L 8,12  Z  " style="fill:rgb(94, 108, 141); fill-opacity:1.000; stroke:none;" />
 <path d="  M 9,11  L 10,11  L 10,10  L 9,10  Z  " style="fill:rgb(94, 108, 141); fill-opacity:1.000; stroke:none;" />
 <path d="  M 11,8  L 11,6  L 10,6  L 10,8  Z  " style="fill:rgb(94, 108, 141); fill-opacity:1.000; stroke:none;" />
 <path d="  M 11,10  L 12,10  L 12,8  L 11,8  Z  " style="fill:rgb(94, 108, 141); fill-opacity:1.000; stroke:none;" />
 <path d="  M 12,11  L 11,11  L 11,12  L 12,12  Z  " style="fill:rgb(94, 108, 141); fill-opacity:1.000; stroke:none;" />
 <path d="  M 12,10  L 12,11  L 13,11  L 13,10  Z  " style="fill:rgb(94, 108, 141); fill-opacity:1.000; stroke:none;" />
 <path d="  M 4,13  L 6,13  L 6,12  L 4,12  Z  " style="fill:rgb(55, 57, 68); fill-opacity:1.000; stroke:none;" />
 <path d="  M 6,14  L 10,14  L 10,13  L 6,13  Z  " style="fill:rgb(55, 57, 68); fill-opacity:1.000; stroke:none;" />
 <path d="  M 10,13  L 12,13  L 12,12  L 10,12  Z  " style="fill:rgb(55, 57, 68); fill-opacity:1.000; stroke:none;" />
 <path d="  M 12,5  L 11,5  L 11,6  L 12,6  Z  " style="fill:rgb(55, 57, 68); fill-opacity:1.000; stroke:none;" />
 <path d="  M 12,6  L 12,8  L 13,8  L 13,6  Z  " style="fill:rgb(55, 57, 68); fill-opacity:1.000; stroke:none;" />
 <path d="  M 13,11  L 12,11  L 12,12  L 13,12  Z  " style="fill:rgb(55, 57, 68); fill-opacity:1.000; stroke:none;" />
 <path d="  M 14,11  L 14,8  L 13,8  L 13,11  Z  " style="fill:rgb(55, 57, 68); fill-opacity:1.000; stroke:none;" />
 <path d="  M 6,7  L 6,6  L 5,6  L 5,7  Z  " style="fill:rgb(175, 185, 214); fill-opacity:1.000; stroke:none;" />
 <path d="  M 7,8  L 6,8  L 6,9  L 8,9  L 8,7  L 7,7  Z  " style="fill:rgb(175, 185, 214); fill-opacity:1.000; stroke:none;" />
 <path d="  M 6,11  L 7,11  L 7,10  L 6,10  Z  " style="fill:rgb(175, 185, 214); fill-opacity:1.000; stroke:none;" />
 <path d="  M 9,7  L 9,6  L 8,6  L 8,7  Z  " style="fill:rgb(175, 185, 214); fill-opacity:1.000; stroke:none;" />
 <path d="  M 5,8  L 5,9  L 6,9  L 6,8  Z  " style="fill:rgb(172, 174, 189); fill-opacity:1.000; stroke:none;" />
 <path d="  M 7,7  L 8,7  L 8,6  L 7,6  Z  " style="fill:rgb(172, 174, 189); fill-opacity:1.000; stroke:none;" />
 <path d="  M 7,11  L 8,11  L 8,10  L 7,10  Z  " style="fill:rgb(172, 174, 189); fill-opacity:1.000; stroke:none;" />
</svg>
