<?xml version="1.0" encoding="UTF-8" standalone="no"?>
<!DOCTYPE svg PUBLIC "-//W3C//DTD SVG 1.1//EN" 
  "http://www.w3.org/Graphics/SVG/1.1/DTD/svg11.dtd">
<svg width="16" height="16"
	 xmlns="http://www.w3.org/2000/svg" version="1.1">
 <path d="  M 1,11  L 2,11  L 2,5  L 1,5  Z  " style="fill:rgb(24, 23, 23); fill-opacity:1.000; stroke:none;" />
 <path d="  M 3,5  L 3,4  L 2,4  L 2,5  Z  " style="fill:rgb(24, 23, 23); fill-opacity:1.000; stroke:none;" />
 <path d="  M 2,12  L 3,12  L 3,11  L 2,11  Z  " style="fill:rgb(24, 23, 23); fill-opacity:1.000; stroke:none;" />
 <path d="  M 5,13  L 5,12  L 3,12  L 3,13  Z  " style="fill:rgb(24, 23, 23); fill-opacity:1.000; stroke:none;" />
 <path d="  M 11,14  L 11,13  L 5,13  L 5,14  Z  " style="fill:rgb(24, 23, 23); fill-opacity:1.000; stroke:none;" />
 <path d="  M 13,12  L 11,12  L 11,13  L 13,13  Z  " style="fill:rgb(24, 23, 23); fill-opacity:1.000; stroke:none;" />
 <path d="  M 13,4  L 13,5  L 14,5  L 14,4  Z  " style="fill:rgb(24, 23, 23); fill-opacity:1.000; stroke:none;" />
 <path d="  M 13,12  L 14,12  L 14,11  L 13,11  Z  " style="fill:rgb(24, 23, 23); fill-opacity:1.000; stroke:none;" />
 <path d="  M 15,5  L 14,5  L 14,11  L 15,11  Z  " style="fill:rgb(24, 23, 23); fill-opacity:1.000; stroke:none;" />
 <path d="  M 3,6  L 3,5  L 2,5  L 2,6  Z  " style="fill:rgb(94, 94, 94); fill-opacity:1.000; stroke:none;" />
 <path d="  M 4,5  L 4,4  L 3,4  L 3,5  Z  " style="fill:rgb(94, 94, 94); fill-opacity:1.000; stroke:none;" />
 <path d="  M 8,3  L 8,4  L 9,4  L 9,3  Z  " style="fill:rgb(94, 94, 94); fill-opacity:1.000; stroke:none;" />
 <path d="  M 11,3  L 10,3  L 10,4  L 11,4  Z  " style="fill:rgb(94, 94, 94); fill-opacity:1.000; stroke:none;" />
 <path d="  M 12,10  L 11,10  L 11,11  L 10,11  L 10,13  L 11,13  L 11,12  L 12,12  Z  " style="fill:rgb(94, 94, 94); fill-opacity:1.000; stroke:none;" />
 <path d="  M 13,4  L 11,4  L 11,5  L 13,5  Z  " style="fill:rgb(94, 94, 94); fill-opacity:1.000; stroke:none;" />
 <path d="  M 13,5  L 13,6  L 14,6  L 14,5  Z  " style="fill:rgb(94, 94, 94); fill-opacity:1.000; stroke:none;" />
 <path d="  M 3,6  L 2,6  L 2,8  L 3,8  Z  " style="fill:rgb(53, 53, 53); fill-opacity:1.000; stroke:none;" />
 <path d="  M 3,3  L 3,4  L 5,4  L 5,3  Z  " style="fill:rgb(53, 53, 53); fill-opacity:1.000; stroke:none;" />
 <path d="  M 3,6  L 4,6  L 4,5  L 3,5  Z  " style="fill:rgb(53, 53, 53); fill-opacity:1.000; stroke:none;" />
 <path d="  M 3,9  L 4,9  L 4,8  L 3,8  Z  " style="fill:rgb(53, 53, 53); fill-opacity:1.000; stroke:none;" />
 <path d="  M 5,3  L 11,3  L 11,2  L 5,2  Z  " style="fill:rgb(53, 53, 53); fill-opacity:1.000; stroke:none;" />
 <path d="  M 5,4  L 5,5  L 6,5  L 6,4  Z  " style="fill:rgb(53, 53, 53); fill-opacity:1.000; stroke:none;" />
 <path d="  M 11,5  L 11,4  L 10,4  L 10,5  Z  " style="fill:rgb(53, 53, 53); fill-opacity:1.000; stroke:none;" />
 <path d="  M 13,4  L 13,3  L 11,3  L 11,4  Z  " style="fill:rgb(53, 53, 53); fill-opacity:1.000; stroke:none;" />
 <path d="  M 13,6  L 13,5  L 12,5  L 12,6  Z  " style="fill:rgb(53, 53, 53); fill-opacity:1.000; stroke:none;" />
 <path d="  M 12,9  L 13,9  L 13,8  L 12,8  Z  " style="fill:rgb(53, 53, 53); fill-opacity:1.000; stroke:none;" />
 <path d="  M 14,6  L 13,6  L 13,8  L 14,8  Z  " style="fill:rgb(53, 53, 53); fill-opacity:1.000; stroke:none;" />
 <path d="  M 2,8  L 2,9  L 3,9  L 3,8  Z  " style="fill:rgb(168, 168, 168); fill-opacity:1.000; stroke:none;" />
 <path d="  M 3,12  L 4,12  L 4,11  L 3,11  Z  " style="fill:rgb(168, 168, 168); fill-opacity:1.000; stroke:none;" />
 <path d="  M 7,4  L 7,3  L 5,3  L 5,4  Z  " style="fill:rgb(168, 168, 168); fill-opacity:1.000; stroke:none;" />
 <path d="  M 5,12  L 5,13  L 6,13  L 6,12  Z  " style="fill:rgb(168, 168, 168); fill-opacity:1.000; stroke:none;" />
 <path d="  M 7,11  L 8,11  L 8,10  L 7,10  Z  " style="fill:rgb(168, 168, 168); fill-opacity:1.000; stroke:none;" />
 <path d="  M 10,13  L 10,11  L 8,11  L 8,13  Z  " style="fill:rgb(168, 168, 168); fill-opacity:1.000; stroke:none;" />
 <path d="  M 3,9  L 2,9  L 2,11  L 3,11  Z  " style="fill:rgb(130, 130, 130); fill-opacity:1.000; stroke:none;" />
 <path d="  M 4,4  L 4,5  L 5,5  L 5,4  Z  " style="fill:rgb(130, 130, 130); fill-opacity:1.000; stroke:none;" />
 <path d="  M 8,3  L 7,3  L 7,4  L 8,4  Z  " style="fill:rgb(130, 130, 130); fill-opacity:1.000; stroke:none;" />
 <path d="  M 7,11  L 7,13  L 8,13  L 8,11  Z  " style="fill:rgb(130, 130, 130); fill-opacity:1.000; stroke:none;" />
 <path d="  M 9,4  L 10,4  L 10,3  L 9,3  Z  " style="fill:rgb(130, 130, 130); fill-opacity:1.000; stroke:none;" />
 <path d="  M 10,10  L 10,11  L 11,11  L 11,10  Z  " style="fill:rgb(130, 130, 130); fill-opacity:1.000; stroke:none;" />
 <path d="  M 13,10  L 13,9  L 11,9  L 11,10  Z  " style="fill:rgb(130, 130, 130); fill-opacity:1.000; stroke:none;" />
 <path d="  M 14,9  L 14,8  L 13,8  L 13,9  Z  " style="fill:rgb(130, 130, 130); fill-opacity:1.000; stroke:none;" />
 <path d="  M 9,9  L 8,9  L 8,8  L 4,8  L 4,9  L 5,9  L 5,10  L 11,10  L 11,9  L 12,9  L 12,8  L 13,8  L 13,6  L 12,6  L 12,5  L 10,5  L 10,4  L 6,4  L 6,5  L 4,5  L 4,6  L 3,6  L 3,7  L 8,7  L 8,6  L 9,6  L 9,7  L 11,7  L 11,8  L 9,8  Z  " style="fill:rgb(47, 47, 47); fill-opacity:1.000; stroke:none;" />
 <path d="  M 3,8  L 4,8  L 4,7  L 3,7  Z  " style="fill:rgb(203, 26, 26); fill-opacity:1.000; stroke:none;" />
 <path d="  M 3,9  L 3,10  L 5,10  L 5,9  Z  " style="fill:rgb(255, 255, 255); fill-opacity:1.000; stroke:none;" />
 <path d="  M 5,10  L 5,11  L 7,11  L 7,10  Z  " style="fill:rgb(255, 255, 255); fill-opacity:1.000; stroke:none;" />
 <path d="  M 7,11  L 5,11  L 5,10  L 3,10  L 3,11  L 4,11  L 4,12  L 6,12  L 6,13  L 7,13  Z  " style="fill:rgb(216, 216, 216); fill-opacity:1.000; stroke:none;" />
 <path d="  M 8,10  L 8,11  L 10,11  L 10,10  Z  " style="fill:rgb(216, 216, 216); fill-opacity:1.000; stroke:none;" />
 <path d="  M 4,8  L 9,8  L 9,7  L 4,7  Z  " style="fill:rgb(255, 20, 20); fill-opacity:1.000; stroke:none;" />
 <path d="  M 9,7  L 9,6  L 8,6  L 8,7  Z  " style="fill:rgb(100, 100, 100); fill-opacity:1.000; stroke:none;" />
 <path d="  M 9,7  L 9,8  L 10,8  L 10,7  Z  " style="fill:rgb(100, 100, 100); fill-opacity:1.000; stroke:none;" />
 <path d="  M 9,8  L 8,8  L 8,9  L 9,9  Z  " style="fill:rgb(79, 77, 77); fill-opacity:1.000; stroke:none;" />
 <path d="  M 10,7  L 10,8  L 11,8  L 11,7  Z  " style="fill:rgb(79, 77, 77); fill-opacity:1.000; stroke:none;" />
 <path d="  M 12,12  L 13,12  L 13,11  L 14,11  L 14,9  L 13,9  L 13,10  L 12,10  Z  " style="fill:rgb(79, 77, 77); fill-opacity:1.000; stroke:none;" />
</svg>
