<?xml version="1.0" encoding="UTF-8" standalone="no"?>
<!DOCTYPE svg PUBLIC "-//W3C//DTD SVG 1.1//EN" 
  "http://www.w3.org/Graphics/SVG/1.1/DTD/svg11.dtd">
<svg width="16" height="16"
	 xmlns="http://www.w3.org/2000/svg" version="1.1">
 <path d="  M 3,10  L 2,10  L 2,14  L 3,14  Z  " style="fill:rgb(62, 78, 67); fill-opacity:1.000; stroke:none;" />
 <path d="  M 4,9  L 4,8  L 3,8  L 3,10  L 5,10  L 5,9  Z  " style="fill:rgb(62, 78, 67); fill-opacity:1.000; stroke:none;" />
 <path d="  M 5,10  L 5,11  L 6,11  L 6,10  Z  " style="fill:rgb(62, 78, 67); fill-opacity:1.000; stroke:none;" />
 <path d="  M 7,12  L 6,12  L 6,13  L 8,13  L 8,11  L 7,11  Z  " style="fill:rgb(62, 78, 67); fill-opacity:1.000; stroke:none;" />
 <path d="  M 3,10  L 3,11  L 5,11  L 5,10  Z  " style="fill:rgb(93, 119, 100); fill-opacity:1.000; stroke:none;" />
 <path d="  M 4,8  L 4,9  L 5,9  L 5,10  L 6,10  L 6,8  Z  " style="fill:rgb(93, 119, 100); fill-opacity:1.000; stroke:none;" />
 <path d="  M 7,12  L 7,11  L 8,11  L 8,10  L 6,10  L 6,12  Z  " style="fill:rgb(93, 119, 100); fill-opacity:1.000; stroke:none;" />
 <path d="  M 3,12  L 4,12  L 4,11  L 3,11  Z  " style="fill:rgb(23, 23, 23); fill-opacity:1.000; stroke:none;" />
 <path d="  M 4,12  L 3,12  L 3,13  L 4,13  Z  " style="fill:rgb(76, 96, 81); fill-opacity:1.000; stroke:none;" />
 <path d="  M 4,12  L 6,12  L 6,11  L 4,11  Z  " style="fill:rgb(76, 96, 81); fill-opacity:1.000; stroke:none;" />
 <path d="  M 5,5  L 4,5  L 4,7  L 5,7  Z  " style="fill:rgb(108, 70, 39); fill-opacity:1.000; stroke:none;" />
 <path d="  M 5,5  L 7,5  L 7,4  L 5,4  Z  " style="fill:rgb(108, 70, 39); fill-opacity:1.000; stroke:none;" />
 <path d="  M 5,12  L 5,13  L 6,13  L 6,12  Z  " style="fill:rgb(108, 70, 39); fill-opacity:1.000; stroke:none;" />
 <path d="  M 6,13  L 6,14  L 7,14  L 7,13  Z  " style="fill:rgb(108, 70, 39); fill-opacity:1.000; stroke:none;" />
 <path d="  M 11,3  L 10,3  L 10,4  L 11,4  Z  " style="fill:rgb(108, 70, 39); fill-opacity:1.000; stroke:none;" />
 <path d="  M 12,3  L 12,2  L 13,2  L 13,1  L 11,1  L 11,3  Z  " style="fill:rgb(108, 70, 39); fill-opacity:1.000; stroke:none;" />
 <path d="  M 13,2  L 13,3  L 14,3  L 14,2  Z  " style="fill:rgb(108, 70, 39); fill-opacity:1.000; stroke:none;" />
 <path d="  M 5,7  L 4,7  L 4,8  L 5,8  Z  " style="fill:rgb(102, 54, 29); fill-opacity:1.000; stroke:none;" />
 <path d="  M 8,5  L 7,5  L 7,6  L 8,6  Z  " style="fill:rgb(102, 54, 29); fill-opacity:1.000; stroke:none;" />
 <path d="  M 8,4  L 8,5  L 10,5  L 10,4  Z  " style="fill:rgb(102, 54, 29); fill-opacity:1.000; stroke:none;" />
 <path d="  M 6,15  L 6,13  L 5,13  L 5,14  L 4,14  L 4,15  Z  " style="fill:rgb(188, 125, 73); fill-opacity:1.000; stroke:none;" />
 <path d="  M 6,7  L 6,6  L 5,6  L 5,7  Z  " style="fill:rgb(188, 125, 73); fill-opacity:1.000; stroke:none;" />
 <path d="  M 7,6  L 7,5  L 6,5  L 6,6  Z  " style="fill:rgb(188, 125, 73); fill-opacity:1.000; stroke:none;" />
 <path d="  M 13,4  L 12,4  L 12,5  L 13,5  Z  " style="fill:rgb(188, 125, 73); fill-opacity:1.000; stroke:none;" />
 <path d="  M 14,4  L 14,3  L 13,3  L 13,4  Z  " style="fill:rgb(188, 125, 73); fill-opacity:1.000; stroke:none;" />
 <path d="  M 5,5  L 5,6  L 6,6  L 6,5  Z  " style="fill:rgb(211, 156, 116); fill-opacity:1.000; stroke:none;" />
 <path d="  M 13,4  L 13,2  L 12,2  L 12,3  L 11,3  L 11,4  Z  " style="fill:rgb(211, 156, 116); fill-opacity:1.000; stroke:none;" />
 <path d="  M 6,6  L 6,7  L 5,7  L 5,8  L 8,8  L 8,7  L 9,7  L 9,6  Z  " style="fill:rgb(186, 79, 35); fill-opacity:1.000; stroke:none;" />
 <path d="  M 9,10  L 9,8  L 8,8  L 8,10  Z  " style="fill:rgb(186, 79, 35); fill-opacity:1.000; stroke:none;" />
 <path d="  M 9,6  L 10,6  L 10,5  L 9,5  Z  " style="fill:rgb(186, 79, 35); fill-opacity:1.000; stroke:none;" />
 <path d="  M 9,7  L 9,8  L 10,8  L 10,7  Z  " style="fill:rgb(186, 79, 35); fill-opacity:1.000; stroke:none;" />
 <path d="  M 11,5  L 11,4  L 10,4  L 10,5  Z  " style="fill:rgb(186, 79, 35); fill-opacity:1.000; stroke:none;" />
 <path d="  M 10,7  L 11,7  L 11,6  L 10,6  Z  " style="fill:rgb(186, 79, 35); fill-opacity:1.000; stroke:none;" />
 <path d="  M 7,9  L 7,8  L 6,8  L 6,9  Z  " style="fill:rgb(158, 68, 31); fill-opacity:1.000; stroke:none;" />
 <path d="  M 8,10  L 8,9  L 7,9  L 7,10  Z  " style="fill:rgb(158, 68, 31); fill-opacity:1.000; stroke:none;" />
 <path d="  M 8,5  L 8,6  L 9,6  L 9,5  Z  " style="fill:rgb(158, 68, 31); fill-opacity:1.000; stroke:none;" />
 <path d="  M 10,8  L 9,8  L 9,9  L 10,9  Z  " style="fill:rgb(158, 68, 31); fill-opacity:1.000; stroke:none;" />
 <path d="  M 10,7  L 10,8  L 11,8  L 11,7  Z  " style="fill:rgb(158, 68, 31); fill-opacity:1.000; stroke:none;" />
 <path d="  M 11,4  L 11,5  L 12,5  L 12,4  Z  " style="fill:rgb(158, 68, 31); fill-opacity:1.000; stroke:none;" />
 <path d="  M 7,9  L 6,9  L 6,10  L 7,10  Z  " style="fill:rgb(101, 148, 115); fill-opacity:1.000; stroke:none;" />
 <path d="  M 7,8  L 7,9  L 8,9  L 8,8  Z  " style="fill:rgb(223, 125, 83); fill-opacity:1.000; stroke:none;" />
 <path d="  M 8,7  L 8,8  L 9,8  L 9,7  Z  " style="fill:rgb(223, 125, 83); fill-opacity:1.000; stroke:none;" />
 <path d="  M 10,7  L 10,6  L 9,6  L 9,7  Z  " style="fill:rgb(223, 125, 83); fill-opacity:1.000; stroke:none;" />
 <path d="  M 11,5  L 10,5  L 10,6  L 11,6  Z  " style="fill:rgb(223, 125, 83); fill-opacity:1.000; stroke:none;" />
 <path d="  M 7,13  L 7,14  L 8,14  L 8,13  Z  " style="fill:rgb(27, 42, 38); fill-opacity:1.000; stroke:none;" />
 <path d="  M 8,13  L 9,13  L 9,12  L 8,12  Z  " style="fill:rgb(27, 42, 38); fill-opacity:1.000; stroke:none;" />
 <path d="  M 10,12  L 10,11  L 9,11  L 9,12  Z  " style="fill:rgb(27, 42, 38); fill-opacity:1.000; stroke:none;" />
 <path d="  M 10,9  L 10,11  L 11,11  L 11,9  Z  " style="fill:rgb(27, 42, 38); fill-opacity:1.000; stroke:none;" />
 <path d="  M 11,9  L 12,9  L 12,6  L 11,6  Z  " style="fill:rgb(27, 42, 38); fill-opacity:1.000; stroke:none;" />
 <path d="  M 9,10  L 8,10  L 8,12  L 9,12  L 9,11  L 10,11  L 10,9  L 9,9  Z  " style="fill:rgb(115, 61, 32); fill-opacity:1.000; stroke:none;" />
 <path d="  M 10,9  L 11,9  L 11,8  L 10,8  Z  " style="fill:rgb(115, 61, 32); fill-opacity:1.000; stroke:none;" />
 <path d="  M 12,5  L 11,5  L 11,6  L 12,6  Z  " style="fill:rgb(115, 61, 32); fill-opacity:1.000; stroke:none;" />
 <path d="  M 13,6  L 13,5  L 12,5  L 12,6  Z  " style="fill:rgb(61, 43, 41); fill-opacity:1.000; stroke:none;" />
 <path d="  M 15,5  L 15,3  L 14,3  L 14,4  L 13,4  L 13,5  Z  " style="fill:rgb(61, 43, 41); fill-opacity:1.000; stroke:none;" />
</svg>
