<?xml version="1.0" encoding="UTF-8" standalone="no"?>
<!DOCTYPE svg PUBLIC "-//W3C//DTD SVG 1.1//EN" 
  "http://www.w3.org/Graphics/SVG/1.1/DTD/svg11.dtd">
<svg width="16" height="16"
	 xmlns="http://www.w3.org/2000/svg" version="1.1">
 <path d="  M 1,2  L 1,7  L 2,7  L 2,3  L 5,3  L 5,4  L 6,4  L 6,2  Z  " style="fill:rgb(14, 63, 54); fill-opacity:1.000; stroke:none;" />
 <path d="  M 6,4  L 6,5  L 7,5  L 7,4  Z  " style="fill:rgb(14, 63, 54); fill-opacity:1.000; stroke:none;" />
 <path d="  M 9,6  L 9,5  L 7,5  L 7,6  Z  " style="fill:rgb(14, 63, 54); fill-opacity:1.000; stroke:none;" />
 <path d="  M 9,4  L 9,5  L 10,5  L 10,4  Z  " style="fill:rgb(14, 63, 54); fill-opacity:1.000; stroke:none;" />
 <path d="  M 15,2  L 10,2  L 10,4  L 11,4  L 11,3  L 14,3  L 14,7  L 15,7  Z  " style="fill:rgb(14, 63, 54); fill-opacity:1.000; stroke:none;" />
 <path d="  M 3,7  L 1,7  L 1,8  L 3,8  Z  " style="fill:rgb(8, 37, 32); fill-opacity:1.000; stroke:none;" />
 <path d="  M 4,8  L 3,8  L 3,13  L 4,13  Z  " style="fill:rgb(8, 37, 32); fill-opacity:1.000; stroke:none;" />
 <path d="  M 5,13  L 4,13  L 4,14  L 5,14  Z  " style="fill:rgb(8, 37, 32); fill-opacity:1.000; stroke:none;" />
 <path d="  M 5,14  L 5,15  L 11,15  L 11,14  Z  " style="fill:rgb(8, 37, 32); fill-opacity:1.000; stroke:none;" />
 <path d="  M 12,13  L 11,13  L 11,14  L 12,14  Z  " style="fill:rgb(8, 37, 32); fill-opacity:1.000; stroke:none;" />
 <path d="  M 12,8  L 12,13  L 13,13  L 13,8  Z  " style="fill:rgb(8, 37, 32); fill-opacity:1.000; stroke:none;" />
 <path d="  M 13,7  L 13,8  L 15,8  L 15,7  Z  " style="fill:rgb(8, 37, 32); fill-opacity:1.000; stroke:none;" />
 <path d="  M 2,3  L 2,4  L 3,4  L 3,3  Z  " style="fill:rgb(255, 255, 255); fill-opacity:1.000; stroke:none;" />
 <path d="  M 6,7  L 6,6  L 5,6  L 5,7  Z  " style="fill:rgb(255, 255, 255); fill-opacity:1.000; stroke:none;" />
 <path d="  M 12,4  L 12,3  L 11,3  L 11,4  Z  " style="fill:rgb(255, 255, 255); fill-opacity:1.000; stroke:none;" />
 <path d="  M 3,5  L 3,4  L 2,4  L 2,5  Z  " style="fill:rgb(161, 251, 232); fill-opacity:1.000; stroke:none;" />
 <path d="  M 3,3  L 3,4  L 4,4  L 4,3  Z  " style="fill:rgb(161, 251, 232); fill-opacity:1.000; stroke:none;" />
 <path d="  M 6,6  L 6,7  L 4,7  L 4,9  L 5,9  L 5,10  L 6,10  L 6,8  L 7,8  L 7,7  L 9,7  L 9,6  Z  " style="fill:rgb(161, 251, 232); fill-opacity:1.000; stroke:none;" />
 <path d="  M 5,5  L 5,6  L 6,6  L 6,5  Z  " style="fill:rgb(161, 251, 232); fill-opacity:1.000; stroke:none;" />
 <path d="  M 11,4  L 11,5  L 12,5  L 12,4  Z  " style="fill:rgb(161, 251, 232); fill-opacity:1.000; stroke:none;" />
 <path d="  M 13,3  L 12,3  L 12,4  L 13,4  Z  " style="fill:rgb(161, 251, 232); fill-opacity:1.000; stroke:none;" />
 <path d="  M 5,3  L 4,3  L 4,4  L 3,4  L 3,5  L 2,5  L 2,6  L 4,6  L 4,7  L 5,7  Z  " style="fill:rgb(74, 237, 217); fill-opacity:1.000; stroke:none;" />
 <path d="  M 6,8  L 6,10  L 5,10  L 5,9  L 4,9  L 4,11  L 5,11  L 5,12  L 10,12  L 10,11  L 11,11  L 11,9  L 12,9  L 12,6  L 14,6  L 14,3  L 13,3  L 13,4  L 12,4  L 12,5  L 10,5  L 10,6  L 9,6  L 9,7  L 7,7  L 7,8  Z  " style="fill:rgb(74, 237, 217); fill-opacity:1.000; stroke:none;" />
 <path d="  M 2,6  L 2,7  L 3,7  L 3,6  Z  " style="fill:rgb(26, 170, 167); fill-opacity:1.000; stroke:none;" />
 <path d="  M 3,8  L 4,8  L 4,7  L 3,7  Z  " style="fill:rgb(26, 170, 167); fill-opacity:1.000; stroke:none;" />
 <path d="  M 4,13  L 5,13  L 5,12  L 4,12  Z  " style="fill:rgb(26, 170, 167); fill-opacity:1.000; stroke:none;" />
 <path d="  M 6,14  L 6,13  L 5,13  L 5,14  Z  " style="fill:rgb(26, 170, 167); fill-opacity:1.000; stroke:none;" />
 <path d="  M 10,14  L 11,14  L 11,13  L 10,13  Z  " style="fill:rgb(26, 170, 167); fill-opacity:1.000; stroke:none;" />
 <path d="  M 11,13  L 12,13  L 12,12  L 11,12  Z  " style="fill:rgb(26, 170, 167); fill-opacity:1.000; stroke:none;" />
 <path d="  M 13,8  L 13,7  L 12,7  L 12,8  Z  " style="fill:rgb(26, 170, 167); fill-opacity:1.000; stroke:none;" />
 <path d="  M 14,6  L 13,6  L 13,7  L 14,7  Z  " style="fill:rgb(26, 170, 167); fill-opacity:1.000; stroke:none;" />
 <path d="  M 3,7  L 4,7  L 4,6  L 3,6  Z  " style="fill:rgb(32, 197, 181); fill-opacity:1.000; stroke:none;" />
 <path d="  M 5,12  L 5,11  L 4,11  L 4,12  Z  " style="fill:rgb(32, 197, 181); fill-opacity:1.000; stroke:none;" />
 <path d="  M 5,4  L 5,5  L 6,5  L 6,4  Z  " style="fill:rgb(32, 197, 181); fill-opacity:1.000; stroke:none;" />
 <path d="  M 12,9  L 11,9  L 11,11  L 10,11  L 10,12  L 5,12  L 5,13  L 6,13  L 6,14  L 10,14  L 10,13  L 11,13  L 11,12  L 12,12  Z  " style="fill:rgb(32, 197, 181); fill-opacity:1.000; stroke:none;" />
 <path d="  M 7,6  L 7,5  L 6,5  L 6,6  Z  " style="fill:rgb(32, 197, 181); fill-opacity:1.000; stroke:none;" />
 <path d="  M 9,6  L 10,6  L 10,5  L 9,5  Z  " style="fill:rgb(32, 197, 181); fill-opacity:1.000; stroke:none;" />
 <path d="  M 11,5  L 11,4  L 10,4  L 10,5  Z  " style="fill:rgb(32, 197, 181); fill-opacity:1.000; stroke:none;" />
 <path d="  M 13,6  L 12,6  L 12,7  L 13,7  Z  " style="fill:rgb(32, 197, 181); fill-opacity:1.000; stroke:none;" />
</svg>
