<?xml version="1.0" encoding="UTF-8" standalone="no"?>
<!DOCTYPE svg PUBLIC "-//W3C//DTD SVG 1.1//EN" 
  "http://www.w3.org/Graphics/SVG/1.1/DTD/svg11.dtd">
<svg width="16" height="16"
	 xmlns="http://www.w3.org/2000/svg" version="1.1">
 <path d="  M 1,11  L 2,11  L 2,10  L 1,10  Z  " style="fill:rgb(150, 139, 108); fill-opacity:1.000; stroke:none;" />
 <path d="  M 3,10  L 3,8  L 2,8  L 2,10  Z  " style="fill:rgb(150, 139, 108); fill-opacity:1.000; stroke:none;" />
 <path d="  M 2,12  L 3,12  L 3,11  L 2,11  Z  " style="fill:rgb(150, 139, 108); fill-opacity:1.000; stroke:none;" />
 <path d="  M 4,6  L 3,6  L 3,8  L 4,8  Z  " style="fill:rgb(150, 139, 108); fill-opacity:1.000; stroke:none;" />
 <path d="  M 5,13  L 5,12  L 3,12  L 3,13  Z  " style="fill:rgb(150, 139, 108); fill-opacity:1.000; stroke:none;" />
 <path d="  M 4,3  L 5,3  L 5,2  L 4,2  Z  " style="fill:rgb(150, 139, 108); fill-opacity:1.000; stroke:none;" />
 <path d="  M 4,6  L 5,6  L 5,4  L 4,4  Z  " style="fill:rgb(150, 139, 108); fill-opacity:1.000; stroke:none;" />
 <path d="  M 5,3  L 5,4  L 6,4  L 6,3  Z  " style="fill:rgb(150, 139, 108); fill-opacity:1.000; stroke:none;" />
 <path d="  M 9,4  L 9,5  L 10,5  L 10,4  Z  " style="fill:rgb(150, 139, 108); fill-opacity:1.000; stroke:none;" />
 <path d="  M 12,5  L 11,5  L 11,6  L 12,6  Z  " style="fill:rgb(150, 139, 108); fill-opacity:1.000; stroke:none;" />
 <path d="  M 13,6  L 12,6  L 12,7  L 13,7  Z  " style="fill:rgb(150, 139, 108); fill-opacity:1.000; stroke:none;" />
 <path d="  M 3,10  L 2,10  L 2,11  L 3,11  Z  " style="fill:rgb(218, 210, 188); fill-opacity:1.000; stroke:none;" />
 <path d="  M 3,9  L 4,9  L 4,8  L 3,8  Z  " style="fill:rgb(218, 210, 188); fill-opacity:1.000; stroke:none;" />
 <path d="  M 3,12  L 4,12  L 4,11  L 3,11  Z  " style="fill:rgb(218, 210, 188); fill-opacity:1.000; stroke:none;" />
 <path d="  M 5,7  L 5,6  L 4,6  L 4,7  Z  " style="fill:rgb(218, 210, 188); fill-opacity:1.000; stroke:none;" />
 <path d="  M 5,3  L 6,3  L 6,2  L 5,2  Z  " style="fill:rgb(218, 210, 188); fill-opacity:1.000; stroke:none;" />
 <path d="  M 5,6  L 7,6  L 7,7  L 10,7  L 10,6  L 9,6  L 9,5  L 6,5  L 6,4  L 5,4  Z  " style="fill:rgb(218, 210, 188); fill-opacity:1.000; stroke:none;" />
 <path d="  M 5,12  L 5,13  L 6,13  L 6,12  Z  " style="fill:rgb(218, 210, 188); fill-opacity:1.000; stroke:none;" />
 <path d="  M 6,1  L 6,2  L 8,2  L 8,1  Z  " style="fill:rgb(218, 210, 188); fill-opacity:1.000; stroke:none;" />
 <path d="  M 8,3  L 7,3  L 7,4  L 8,4  Z  " style="fill:rgb(218, 210, 188); fill-opacity:1.000; stroke:none;" />
 <path d="  M 8,13  L 9,13  L 9,12  L 8,12  Z  " style="fill:rgb(218, 210, 188); fill-opacity:1.000; stroke:none;" />
 <path d="  M 10,3  L 10,2  L 9,2  L 9,3  Z  " style="fill:rgb(218, 210, 188); fill-opacity:1.000; stroke:none;" />
 <path d="  M 10,12  L 10,11  L 9,11  L 9,12  Z  " style="fill:rgb(218, 210, 188); fill-opacity:1.000; stroke:none;" />
 <path d="  M 11,5  L 11,4  L 10,4  L 10,5  Z  " style="fill:rgb(218, 210, 188); fill-opacity:1.000; stroke:none;" />
 <path d="  M 10,7  L 10,8  L 11,8  L 11,7  Z  " style="fill:rgb(218, 210, 188); fill-opacity:1.000; stroke:none;" />
 <path d="  M 10,9  L 10,10  L 11,10  L 11,9  Z  " style="fill:rgb(218, 210, 188); fill-opacity:1.000; stroke:none;" />
 <path d="  M 12,4  L 12,3  L 11,3  L 11,4  Z  " style="fill:rgb(218, 210, 188); fill-opacity:1.000; stroke:none;" />
 <path d="  M 4,12  L 6,12  L 6,13  L 8,13  L 8,12  L 9,12  L 9,11  L 10,11  L 10,9  L 11,9  L 11,8  L 10,8  L 10,7  L 7,7  L 7,6  L 5,6  L 5,7  L 4,7  L 4,9  L 3,9  L 3,11  L 4,11  Z  " style="fill:rgb(235, 235, 235); fill-opacity:1.000; stroke:none;" />
 <path d="  M 11,3  L 9,3  L 9,2  L 6,2  L 6,3  L 8,3  L 8,4  L 11,4  Z  " style="fill:rgb(235, 235, 235); fill-opacity:1.000; stroke:none;" />
 <path d="  M 11,4  L 11,5  L 12,5  L 12,4  Z  " style="fill:rgb(235, 235, 235); fill-opacity:1.000; stroke:none;" />
 <path d="  M 4,2  L 5,2  L 5,1  L 4,1  Z  " style="fill:rgb(101, 62, 44); fill-opacity:1.000; stroke:none;" />
 <path d="  M 14,6  L 15,6  L 15,5  L 14,5  Z  " style="fill:rgb(101, 62, 44); fill-opacity:1.000; stroke:none;" />
 <path d="  M 6,2  L 6,1  L 5,1  L 5,2  Z  " style="fill:rgb(178, 166, 132); fill-opacity:1.000; stroke:none;" />
 <path d="  M 6,4  L 6,5  L 7,5  L 7,4  Z  " style="fill:rgb(178, 166, 132); fill-opacity:1.000; stroke:none;" />
 <path d="  M 8,14  L 9,14  L 9,13  L 8,13  Z  " style="fill:rgb(178, 166, 132); fill-opacity:1.000; stroke:none;" />
 <path d="  M 9,6  L 10,6  L 10,5  L 9,5  Z  " style="fill:rgb(178, 166, 132); fill-opacity:1.000; stroke:none;" />
 <path d="  M 10,12  L 9,12  L 9,13  L 10,13  Z  " style="fill:rgb(178, 166, 132); fill-opacity:1.000; stroke:none;" />
 <path d="  M 11,7  L 11,9  L 12,9  L 12,6  L 10,6  L 10,7  Z  " style="fill:rgb(178, 166, 132); fill-opacity:1.000; stroke:none;" />
 <path d="  M 10,10  L 10,11  L 11,11  L 11,10  Z  " style="fill:rgb(178, 166, 132); fill-opacity:1.000; stroke:none;" />
 <path d="  M 12,4  L 12,6  L 13,6  L 13,5  L 14,5  L 14,4  Z  " style="fill:rgb(178, 166, 132); fill-opacity:1.000; stroke:none;" />
 <path d="  M 8,14  L 8,13  L 5,13  L 5,14  Z  " style="fill:rgb(132, 118, 81); fill-opacity:1.000; stroke:none;" />
 <path d="  M 6,4  L 7,4  L 7,3  L 6,3  Z  " style="fill:rgb(132, 118, 81); fill-opacity:1.000; stroke:none;" />
 <path d="  M 9,5  L 9,4  L 7,4  L 7,5  Z  " style="fill:rgb(132, 118, 81); fill-opacity:1.000; stroke:none;" />
 <path d="  M 8,14  L 8,15  L 9,15  L 9,14  Z  " style="fill:rgb(132, 118, 81); fill-opacity:1.000; stroke:none;" />
 <path d="  M 10,13  L 9,13  L 9,14  L 10,14  Z  " style="fill:rgb(132, 118, 81); fill-opacity:1.000; stroke:none;" />
 <path d="  M 11,5  L 10,5  L 10,6  L 11,6  Z  " style="fill:rgb(132, 118, 81); fill-opacity:1.000; stroke:none;" />
 <path d="  M 10,13  L 11,13  L 11,11  L 10,11  Z  " style="fill:rgb(132, 118, 81); fill-opacity:1.000; stroke:none;" />
 <path d="  M 12,11  L 12,9  L 11,9  L 11,11  Z  " style="fill:rgb(132, 118, 81); fill-opacity:1.000; stroke:none;" />
 <path d="  M 12,9  L 13,9  L 13,7  L 12,7  Z  " style="fill:rgb(132, 118, 81); fill-opacity:1.000; stroke:none;" />
 <path d="  M 14,6  L 13,6  L 13,7  L 14,7  Z  " style="fill:rgb(132, 118, 81); fill-opacity:1.000; stroke:none;" />
 <path d="  M 13,5  L 13,6  L 14,6  L 14,5  Z  " style="fill:rgb(91, 53, 35); fill-opacity:1.000; stroke:none;" />
</svg>
