<?xml version="1.0" encoding="UTF-8" standalone="no"?>
<!DOCTYPE svg PUBLIC "-//W3C//DTD SVG 1.1//EN" 
  "http://www.w3.org/Graphics/SVG/1.1/DTD/svg11.dtd">
<svg width="16" height="16"
	 xmlns="http://www.w3.org/2000/svg" version="1.1">
 <path d="  M 4,9  L 3,9  L 3,10  L 4,10  Z  " style="fill:rgb(23, 80, 80); fill-opacity:1.000; stroke:none;" />
 <path d="  M 4,8  L 4,9  L 6,9  L 6,8  Z  " style="fill:rgb(23, 80, 80); fill-opacity:1.000; stroke:none;" />
 <path d="  M 6,8  L 9,8  L 9,7  L 6,7  Z  " style="fill:rgb(23, 80, 80); fill-opacity:1.000; stroke:none;" />
 <path d="  M 7,11  L 6,11  L 6,12  L 7,12  Z  " style="fill:rgb(23, 80, 80); fill-opacity:1.000; stroke:none;" />
 <path d="  M 9,4  L 9,5  L 10,5  L 10,4  Z  " style="fill:rgb(23, 80, 80); fill-opacity:1.000; stroke:none;" />
 <path d="  M 10,7  L 10,6  L 9,6  L 9,7  Z  " style="fill:rgb(23, 80, 80); fill-opacity:1.000; stroke:none;" />
 <path d="  M 10,3  L 10,4  L 13,4  L 13,3  Z  " style="fill:rgb(23, 80, 80); fill-opacity:1.000; stroke:none;" />
 <path d="  M 11,5  L 10,5  L 10,6  L 11,6  Z  " style="fill:rgb(23, 80, 80); fill-opacity:1.000; stroke:none;" />
 <path d="  M 10,10  L 10,11  L 11,11  L 11,10  Z  " style="fill:rgb(23, 80, 80); fill-opacity:1.000; stroke:none;" />
 <path d="  M 13,5  L 12,5  L 12,6  L 11,6  L 11,7  L 12,7  L 12,8  L 13,8  Z  " style="fill:rgb(23, 80, 80); fill-opacity:1.000; stroke:none;" />
 <path d="  M 11,9  L 11,10  L 12,10  L 12,9  Z  " style="fill:rgb(23, 80, 80); fill-opacity:1.000; stroke:none;" />
 <path d="  M 13,4  L 13,5  L 14,5  L 14,4  Z  " style="fill:rgb(23, 80, 80); fill-opacity:1.000; stroke:none;" />
 <path d="  M 3,10  L 3,11  L 4,11  L 4,10  Z  " style="fill:rgb(25, 49, 49); fill-opacity:1.000; stroke:none;" />
 <path d="  M 4,12  L 6,12  L 6,11  L 4,11  Z  " style="fill:rgb(25, 49, 49); fill-opacity:1.000; stroke:none;" />
 <path d="  M 6,12  L 6,13  L 9,13  L 9,12  Z  " style="fill:rgb(25, 49, 49); fill-opacity:1.000; stroke:none;" />
 <path d="  M 9,11  L 9,12  L 11,12  L 11,11  Z  " style="fill:rgb(25, 49, 49); fill-opacity:1.000; stroke:none;" />
 <path d="  M 12,10  L 11,10  L 11,11  L 12,11  Z  " style="fill:rgb(25, 49, 49); fill-opacity:1.000; stroke:none;" />
 <path d="  M 12,10  L 13,10  L 13,8  L 12,8  Z  " style="fill:rgb(25, 49, 49); fill-opacity:1.000; stroke:none;" />
 <path d="  M 14,5  L 13,5  L 13,8  L 14,8  Z  " style="fill:rgb(25, 49, 49); fill-opacity:1.000; stroke:none;" />
 <path d="  M 5,10  L 5,9  L 4,9  L 4,10  Z  " style="fill:rgb(50, 161, 161); fill-opacity:1.000; stroke:none;" />
 <path d="  M 4,11  L 5,11  L 5,10  L 4,10  Z  " style="fill:rgb(21, 115, 116); fill-opacity:1.000; stroke:none;" />
 <path d="  M 9,11  L 10,11  L 10,10  L 9,10  Z  " style="fill:rgb(21, 115, 116); fill-opacity:1.000; stroke:none;" />
 <path d="  M 10,7  L 11,7  L 11,6  L 10,6  Z  " style="fill:rgb(21, 115, 116); fill-opacity:1.000; stroke:none;" />
 <path d="  M 11,7  L 11,9  L 12,9  L 12,7  Z  " style="fill:rgb(21, 115, 116); fill-opacity:1.000; stroke:none;" />
 <path d="  M 9,10  L 9,9  L 10,9  L 10,8  L 8,8  L 8,9  L 5,9  L 5,10  L 6,10  L 6,11  L 7,11  L 7,10  Z  " style="fill:rgb(58, 181, 178); fill-opacity:1.000; stroke:none;" />
 <path d="  M 8,12  L 9,12  L 9,11  L 8,11  Z  " style="fill:rgb(58, 181, 178); fill-opacity:1.000; stroke:none;" />
 <path d="  M 10,7  L 10,8  L 11,8  L 11,7  Z  " style="fill:rgb(58, 181, 178); fill-opacity:1.000; stroke:none;" />
 <path d="  M 5,10  L 5,11  L 6,11  L 6,10  Z  " style="fill:rgb(47, 151, 153); fill-opacity:1.000; stroke:none;" />
 <path d="  M 7,8  L 7,9  L 8,9  L 8,8  Z  " style="fill:rgb(47, 151, 153); fill-opacity:1.000; stroke:none;" />
 <path d="  M 9,7  L 9,8  L 10,8  L 10,7  Z  " style="fill:rgb(47, 151, 153); fill-opacity:1.000; stroke:none;" />
 <path d="  M 7,9  L 7,8  L 6,8  L 6,9  Z  " style="fill:rgb(128, 255, 192); fill-opacity:1.000; stroke:none;" />
 <path d="  M 7,11  L 8,11  L 8,10  L 7,10  Z  " style="fill:rgb(128, 255, 192); fill-opacity:1.000; stroke:none;" />
 <path d="  M 7,12  L 8,12  L 8,11  L 7,11  Z  " style="fill:rgb(75, 222, 186); fill-opacity:1.000; stroke:none;" />
 <path d="  M 9,11  L 9,10  L 8,10  L 8,11  Z  " style="fill:rgb(75, 222, 186); fill-opacity:1.000; stroke:none;" />
 <path d="  M 10,9  L 10,10  L 11,10  L 11,9  Z  " style="fill:rgb(75, 222, 186); fill-opacity:1.000; stroke:none;" />
 <path d="  M 9,10  L 10,10  L 10,9  L 9,9  Z  " style="fill:rgb(18, 109, 110); fill-opacity:1.000; stroke:none;" />
 <path d="  M 10,9  L 11,9  L 11,8  L 10,8  Z  " style="fill:rgb(18, 109, 110); fill-opacity:1.000; stroke:none;" />
 <path d="  M 11,5  L 11,4  L 10,4  L 10,5  Z  " style="fill:rgb(145, 104, 95); fill-opacity:1.000; stroke:none;" />
 <path d="  M 12,5  L 11,5  L 11,6  L 12,6  Z  " style="fill:rgb(145, 104, 95); fill-opacity:1.000; stroke:none;" />
 <path d="  M 13,4  L 12,4  L 12,5  L 13,5  Z  " style="fill:rgb(145, 104, 95); fill-opacity:1.000; stroke:none;" />
 <path d="  M 11,4  L 11,5  L 12,5  L 12,4  Z  " style="fill:rgb(189, 140, 129); fill-opacity:1.000; stroke:none;" />
</svg>
