<?xml version="1.0" encoding="UTF-8" standalone="no"?>
<!DOCTYPE svg PUBLIC "-//W3C//DTD SVG 1.1//EN" 
  "http://www.w3.org/Graphics/SVG/1.1/DTD/svg11.dtd">
<svg width="16" height="16"
	 xmlns="http://www.w3.org/2000/svg" version="1.1">
 <path d="  M 4,9  L 4,4  L 3,4  L 3,9  Z  " style="fill:rgb(83, 83, 83); fill-opacity:1.000; stroke:none;" />
 <path d="  M 7,4  L 7,3  L 4,3  L 4,4  Z  " style="fill:rgb(83, 83, 83); fill-opacity:1.000; stroke:none;" />
 <path d="  M 9,3  L 9,9  L 10,9  L 10,4  L 12,4  L 12,3  Z  " style="fill:rgb(83, 83, 83); fill-opacity:1.000; stroke:none;" />
 <path d="  M 4,9  L 3,9  L 3,10  L 5,10  L 5,8  L 6,8  L 6,6  L 5,6  L 5,7  L 4,7  Z  " style="fill:rgb(179, 179, 179); fill-opacity:1.000; stroke:none;" />
 <path d="  M 10,9  L 11,9  L 11,10  L 12,10  L 12,5  L 11,5  L 11,6  L 10,6  Z  " style="fill:rgb(179, 179, 179); fill-opacity:1.000; stroke:none;" />
 <path d="  M 5,6  L 6,6  L 6,4  L 4,4  L 4,7  L 5,7  Z  " style="fill:rgb(207, 207, 207); fill-opacity:1.000; stroke:none;" />
 <path d="  M 11,6  L 11,5  L 12,5  L 12,4  L 10,4  L 10,6  Z  " style="fill:rgb(207, 207, 207); fill-opacity:1.000; stroke:none;" />
 <path d="  M 5,8  L 5,9  L 6,9  L 6,8  Z  " style="fill:rgb(150, 150, 150); fill-opacity:1.000; stroke:none;" />
 <path d="  M 13,9  L 12,9  L 12,10  L 13,10  Z  " style="fill:rgb(150, 150, 150); fill-opacity:1.000; stroke:none;" />
 <path d="  M 6,4  L 6,9  L 7,9  L 7,4  Z  " style="fill:rgb(53, 53, 53); fill-opacity:1.000; stroke:none;" />
 <path d="  M 12,9  L 13,9  L 13,4  L 12,4  Z  " style="fill:rgb(53, 53, 53); fill-opacity:1.000; stroke:none;" />
</svg>
