<?xml version="1.0" encoding="UTF-8" standalone="no"?>
<!DOCTYPE svg PUBLIC "-//W3C//DTD SVG 1.1//EN" 
  "http://www.w3.org/Graphics/SVG/1.1/DTD/svg11.dtd">
<svg width="16" height="16"
	 xmlns="http://www.w3.org/2000/svg" version="1.1">
 <path d="  M 6,4  L 6,7  L 7,7  L 7,4  Z  " style="fill:rgb(52, 33, 21); fill-opacity:1.000; stroke:none;" />
 <path d="  M 9,4  L 9,3  L 7,3  L 7,4  Z  " style="fill:rgb(52, 33, 21); fill-opacity:1.000; stroke:none;" />
 <path d="  M 7,8  L 9,8  L 9,7  L 7,7  Z  " style="fill:rgb(52, 33, 21); fill-opacity:1.000; stroke:none;" />
 <path d="  M 9,7  L 10,7  L 10,4  L 9,4  Z  " style="fill:rgb(52, 33, 21); fill-opacity:1.000; stroke:none;" />
 <path d="  M 10,8  L 6,8  L 6,11  L 10,11  Z  " style="fill:rgb(7, 4, 3); fill-opacity:1.000; stroke:none;" />
 <path d="  M 9,5  L 9,4  L 7,4  L 7,6  L 8,6  L 8,5  Z  " style="fill:rgb(149, 94, 59); fill-opacity:1.000; stroke:none;" />
 <path d="  M 7,7  L 8,7  L 8,6  L 7,6  Z  " style="fill:rgb(114, 72, 46); fill-opacity:1.000; stroke:none;" />
 <path d="  M 8,5  L 8,6  L 9,6  L 9,5  Z  " style="fill:rgb(114, 72, 46); fill-opacity:1.000; stroke:none;" />
 <path d="  M 9,7  L 9,6  L 8,6  L 8,7  Z  " style="fill:rgb(85, 53, 33); fill-opacity:1.000; stroke:none;" />
</svg>
