<?xml version="1.0" encoding="UTF-8" standalone="no"?>
<!DOCTYPE svg PUBLIC "-//W3C//DTD SVG 1.1//EN" 
  "http://www.w3.org/Graphics/SVG/1.1/DTD/svg11.dtd">
<svg width="16" height="16"
	 xmlns="http://www.w3.org/2000/svg" version="1.1">
 <path d="  M 3,3  L 3,8  L 4,8  L 4,3  Z  " style="fill:rgb(83, 83, 83); fill-opacity:1.000; stroke:none;" />
 <path d="  M 4,10  L 3,10  L 3,12  L 4,12  Z  " style="fill:rgb(83, 83, 83); fill-opacity:1.000; stroke:none;" />
 <path d="  M 11,3  L 11,2  L 4,2  L 4,3  Z  " style="fill:rgb(83, 83, 83); fill-opacity:1.000; stroke:none;" />
 <path d="  M 7,10  L 6,10  L 6,13  L 4,13  L 4,12  L 3,12  L 3,14  L 7,14  Z  " style="fill:rgb(53, 53, 53); fill-opacity:1.000; stroke:none;" />
 <path d="  M 6,7  L 6,8  L 7,8  L 7,7  Z  " style="fill:rgb(53, 53, 53); fill-opacity:1.000; stroke:none;" />
 <path d="  M 9,7  L 9,6  L 7,6  L 7,7  Z  " style="fill:rgb(53, 53, 53); fill-opacity:1.000; stroke:none;" />
 <path d="  M 9,7  L 9,8  L 10,8  L 10,7  Z  " style="fill:rgb(53, 53, 53); fill-opacity:1.000; stroke:none;" />
 <path d="  M 10,13  L 10,10  L 9,10  L 9,14  L 13,14  L 13,10  L 12,10  L 12,13  Z  " style="fill:rgb(53, 53, 53); fill-opacity:1.000; stroke:none;" />
 <path d="  M 11,2  L 11,3  L 12,3  L 12,2  Z  " style="fill:rgb(53, 53, 53); fill-opacity:1.000; stroke:none;" />
 <path d="  M 13,3  L 12,3  L 12,8  L 13,8  Z  " style="fill:rgb(53, 53, 53); fill-opacity:1.000; stroke:none;" />
 <path d="  M 6,4  L 9,4  L 9,3  L 4,3  L 4,7  L 5,7  L 5,5  L 6,5  Z  " style="fill:rgb(207, 207, 207); fill-opacity:1.000; stroke:none;" />
 <path d="  M 5,12  L 5,11  L 4,11  L 4,12  Z  " style="fill:rgb(150, 150, 150); fill-opacity:1.000; stroke:none;" />
 <path d="  M 7,6  L 6,6  L 6,7  L 7,7  Z  " style="fill:rgb(150, 150, 150); fill-opacity:1.000; stroke:none;" />
 <path d="  M 9,6  L 9,5  L 7,5  L 7,6  Z  " style="fill:rgb(150, 150, 150); fill-opacity:1.000; stroke:none;" />
 <path d="  M 11,12  L 11,11  L 10,11  L 10,12  Z  " style="fill:rgb(150, 150, 150); fill-opacity:1.000; stroke:none;" />
 <path d="  M 12,7  L 12,4  L 11,4  L 11,7  Z  " style="fill:rgb(150, 150, 150); fill-opacity:1.000; stroke:none;" />
 <path d="  M 4,13  L 6,13  L 6,11  L 5,11  L 5,12  L 4,12  Z  " style="fill:rgb(115, 115, 115); fill-opacity:1.000; stroke:none;" />
 <path d="  M 10,7  L 10,6  L 9,6  L 9,7  Z  " style="fill:rgb(115, 115, 115); fill-opacity:1.000; stroke:none;" />
 <path d="  M 12,11  L 11,11  L 11,12  L 10,12  L 10,13  L 12,13  Z  " style="fill:rgb(115, 115, 115); fill-opacity:1.000; stroke:none;" />
 <path d="  M 12,4  L 12,3  L 11,3  L 11,4  Z  " style="fill:rgb(115, 115, 115); fill-opacity:1.000; stroke:none;" />
 <path d="  M 11,3  L 9,3  L 9,4  L 6,4  L 6,5  L 5,5  L 5,7  L 6,7  L 6,6  L 7,6  L 7,5  L 9,5  L 9,6  L 10,6  L 10,7  L 11,7  Z  " style="fill:rgb(179, 179, 179); fill-opacity:1.000; stroke:none;" />
</svg>
