<?xml version="1.0" encoding="UTF-8" standalone="no"?>
<!DOCTYPE svg PUBLIC "-//W3C//DTD SVG 1.1//EN" 
  "http://www.w3.org/Graphics/SVG/1.1/DTD/svg11.dtd">
<svg width="16" height="16"
	 xmlns="http://www.w3.org/2000/svg" version="1.1">
 <path d="  M 3,5  L 3,4  L 2,4  L 2,0  L 1,0  L 1,1  L 0,1  L 0,2  L 1,2  L 1,4  L 0,4  L 0,5  Z  " style="fill:rgb(238, 190, 70); fill-opacity:1.000; stroke:none;" />
 <path d="  M 5,0  L 4,0  L 4,3  L 6,3  L 6,5  L 7,5  L 7,0  L 6,0  L 6,2  L 5,2  Z  " style="fill:rgb(238, 190, 70); fill-opacity:1.000; stroke:none;" />
 <path d="  M 2,4  L 3,4  L 3,0  L 2,0  Z  " style="fill:rgb(82, 80, 78); fill-opacity:1.000; stroke:none;" />
 <path d="  M 4,5  L 4,4  L 3,4  L 3,5  Z  " style="fill:rgb(82, 80, 78); fill-opacity:1.000; stroke:none;" />
 <path d="  M 6,0  L 5,0  L 5,2  L 6,2  Z  " style="fill:rgb(82, 80, 78); fill-opacity:1.000; stroke:none;" />
 <path d="  M 8,0  L 7,0  L 7,5  L 8,5  Z  " style="fill:rgb(82, 80, 78); fill-opacity:1.000; stroke:none;" />
 <path d="  M 6,7  L 7,7  L 7,5  L 6,5  Z  " style="fill:rgb(254, 254, 254); fill-opacity:1.000; stroke:none;" />
 <path d="  M 8,8  L 8,7  L 7,7  L 7,8  Z  " style="fill:rgb(254, 254, 254); fill-opacity:1.000; stroke:none;" />
 <path d="  M 9,5  L 9,3  L 10,3  L 10,2  L 12,2  L 12,1  L 8,1  L 8,5  Z  " style="fill:rgb(254, 254, 254); fill-opacity:1.000; stroke:none;" />
 <path d="  M 12,7  L 12,6  L 11,6  L 11,5  L 10,5  L 10,6  L 9,6  L 9,7  Z  " style="fill:rgb(254, 254, 254); fill-opacity:1.000; stroke:none;" />
 <path d="  M 13,7  L 13,8  L 14,8  L 14,7  Z  " style="fill:rgb(254, 254, 254); fill-opacity:1.000; stroke:none;" />
 <path d="  M 14,7  L 15,7  L 15,5  L 14,5  Z  " style="fill:rgb(254, 254, 254); fill-opacity:1.000; stroke:none;" />
 <path d="  M 8,7  L 8,9  L 9,9  L 9,6  L 10,6  L 10,5  L 11,5  L 11,6  L 12,6  L 12,9  L 13,9  L 13,7  L 14,7  L 14,5  L 12,5  L 12,3  L 11,3  L 11,2  L 10,2  L 10,3  L 9,3  L 9,5  L 7,5  L 7,7  Z  " style="fill:rgb(253, 230, 152); fill-opacity:1.000; stroke:none;" />
 <path d="  M 9,10  L 10,10  L 10,9  L 9,9  Z  " style="fill:rgb(253, 230, 152); fill-opacity:1.000; stroke:none;" />
 <path d="  M 10,7  L 10,8  L 11,8  L 11,7  Z  " style="fill:rgb(253, 230, 152); fill-opacity:1.000; stroke:none;" />
 <path d="  M 11,9  L 11,10  L 12,10  L 12,9  Z  " style="fill:rgb(253, 230, 152); fill-opacity:1.000; stroke:none;" />
 <path d="  M 12,1  L 12,2  L 13,2  L 13,1  Z  " style="fill:rgb(253, 230, 152); fill-opacity:1.000; stroke:none;" />
 <path d="  M 13,2  L 13,3  L 14,3  L 14,2  Z  " style="fill:rgb(253, 230, 152); fill-opacity:1.000; stroke:none;" />
 <path d="  M 15,5  L 15,3  L 14,3  L 14,5  Z  " style="fill:rgb(253, 230, 152); fill-opacity:1.000; stroke:none;" />
 <path d="  M 9,7  L 9,8  L 10,8  L 10,7  Z  " style="fill:rgb(236, 235, 214); fill-opacity:1.000; stroke:none;" />
 <path d="  M 11,7  L 11,8  L 12,8  L 12,7  Z  " style="fill:rgb(236, 235, 214); fill-opacity:1.000; stroke:none;" />
 <path d="  M 10,8  L 9,8  L 9,9  L 10,9  Z  " style="fill:rgb(191, 189, 189); fill-opacity:1.000; stroke:none;" />
 <path d="  M 9,11  L 9,12  L 11,12  L 11,11  Z  " style="fill:rgb(191, 189, 189); fill-opacity:1.000; stroke:none;" />
 <path d="  M 10,13  L 9,13  L 9,14  L 10,14  Z  " style="fill:rgb(191, 189, 189); fill-opacity:1.000; stroke:none;" />
 <path d="  M 10,9  L 10,10  L 11,10  L 11,9  Z  " style="fill:rgb(191, 189, 189); fill-opacity:1.000; stroke:none;" />
 <path d="  M 12,9  L 12,8  L 11,8  L 11,9  Z  " style="fill:rgb(191, 189, 189); fill-opacity:1.000; stroke:none;" />
 <path d="  M 9,11  L 10,11  L 10,10  L 9,10  Z  " style="fill:rgb(248, 201, 83); fill-opacity:1.000; stroke:none;" />
 <path d="  M 10,9  L 11,9  L 11,8  L 10,8  Z  " style="fill:rgb(248, 201, 83); fill-opacity:1.000; stroke:none;" />
 <path d="  M 14,3  L 13,3  L 13,2  L 11,2  L 11,3  L 12,3  L 12,5  L 14,5  Z  " style="fill:rgb(248, 201, 83); fill-opacity:1.000; stroke:none;" />
 <path d="  M 12,10  L 11,10  L 11,11  L 12,11  Z  " style="fill:rgb(248, 201, 83); fill-opacity:1.000; stroke:none;" />
 <path d="  M 10,12  L 9,12  L 9,13  L 10,13  Z  " style="fill:rgb(129, 120, 124); fill-opacity:1.000; stroke:none;" />
 <path d="  M 10,13  L 10,14  L 12,14  L 12,13  Z  " style="fill:rgb(129, 120, 124); fill-opacity:1.000; stroke:none;" />
 <path d="  M 12,11  L 11,11  L 11,12  L 12,12  Z  " style="fill:rgb(129, 120, 124); fill-opacity:1.000; stroke:none;" />
 <path d="  M 10,10  L 10,11  L 11,11  L 11,10  Z  " style="fill:rgb(83, 83, 83); fill-opacity:1.000; stroke:none;" />
 <path d="  M 10,13  L 12,13  L 12,12  L 10,12  Z  " style="fill:rgb(83, 83, 83); fill-opacity:1.000; stroke:none;" />
 <path d="  M 10,14  L 10,15  L 11,15  L 11,14  Z  " style="fill:rgb(83, 83, 83); fill-opacity:1.000; stroke:none;" />
</svg>
