<?xml version="1.0" encoding="UTF-8" standalone="no"?>
<!DOCTYPE svg PUBLIC "-//W3C//DTD SVG 1.1//EN" 
  "http://www.w3.org/Graphics/SVG/1.1/DTD/svg11.dtd">
<svg width="16" height="16"
	 xmlns="http://www.w3.org/2000/svg" version="1.1">
 <path d="  M 5,9  L 5,10  L 6,10  L 6,9  Z  " style="fill:rgb(99, 99, 99); fill-opacity:1.000; stroke:none;" />
 <path d="  M 5,12  L 5,13  L 6,13  L 6,12  Z  " style="fill:rgb(99, 99, 99); fill-opacity:1.000; stroke:none;" />
 <path d="  M 6,13  L 6,14  L 7,14  L 7,13  Z  " style="fill:rgb(99, 99, 99); fill-opacity:1.000; stroke:none;" />
 <path d="  M 10,9  L 11,9  L 11,8  L 10,8  Z  " style="fill:rgb(99, 99, 99); fill-opacity:1.000; stroke:none;" />
 <path d="  M 10,14  L 11,14  L 11,13  L 10,13  Z  " style="fill:rgb(99, 99, 99); fill-opacity:1.000; stroke:none;" />
 <path d="  M 11,9  L 11,10  L 12,10  L 12,9  Z  " style="fill:rgb(99, 99, 99); fill-opacity:1.000; stroke:none;" />
 <path d="  M 11,13  L 12,13  L 12,12  L 11,12  Z  " style="fill:rgb(99, 99, 99); fill-opacity:1.000; stroke:none;" />
 <path d="  M 5,10  L 5,12  L 6,12  L 6,10  Z  " style="fill:rgb(154, 154, 154); fill-opacity:1.000; stroke:none;" />
 <path d="  M 6,13  L 7,13  L 7,12  L 6,12  Z  " style="fill:rgb(154, 154, 154); fill-opacity:1.000; stroke:none;" />
 <path d="  M 7,13  L 7,14  L 9,14  L 9,13  Z  " style="fill:rgb(154, 154, 154); fill-opacity:1.000; stroke:none;" />
 <path d="  M 10,8  L 8,8  L 8,9  L 10,9  Z  " style="fill:rgb(154, 154, 154); fill-opacity:1.000; stroke:none;" />
 <path d="  M 10,12  L 9,12  L 9,13  L 10,13  Z  " style="fill:rgb(154, 154, 154); fill-opacity:1.000; stroke:none;" />
 <path d="  M 10,9  L 10,10  L 11,10  L 11,9  Z  " style="fill:rgb(154, 154, 154); fill-opacity:1.000; stroke:none;" />
 <path d="  M 12,10  L 11,10  L 11,11  L 12,11  Z  " style="fill:rgb(154, 154, 154); fill-opacity:1.000; stroke:none;" />
 <path d="  M 7,9  L 7,8  L 6,8  L 6,9  Z  " style="fill:rgb(255, 255, 255); fill-opacity:1.000; stroke:none;" />
 <path d="  M 7,11  L 8,11  L 8,9  L 7,9  Z  " style="fill:rgb(255, 255, 255); fill-opacity:1.000; stroke:none;" />
 <path d="  M 6,11  L 6,12  L 7,12  L 7,13  L 8,13  L 8,11  Z  " style="fill:rgb(197, 197, 197); fill-opacity:1.000; stroke:none;" />
 <path d="  M 11,10  L 10,10  L 10,9  L 8,9  L 8,10  L 9,10  L 9,12  L 10,12  L 10,11  L 11,11  Z  " style="fill:rgb(197, 197, 197); fill-opacity:1.000; stroke:none;" />
 <path d="  M 9,11  L 9,10  L 8,10  L 8,11  Z  " style="fill:rgb(170, 170, 170); fill-opacity:1.000; stroke:none;" />
 <path d="  M 8,12  L 9,12  L 9,11  L 8,11  Z  " style="fill:rgb(148, 148, 148); fill-opacity:1.000; stroke:none;" />
 <path d="  M 8,13  L 9,13  L 9,12  L 8,12  Z  " style="fill:rgb(166, 166, 166); fill-opacity:1.000; stroke:none;" />
 <path d="  M 12,11  L 11,11  L 11,12  L 12,12  Z  " style="fill:rgb(166, 166, 166); fill-opacity:1.000; stroke:none;" />
</svg>
