<?xml version="1.0" encoding="UTF-8" standalone="no"?>
<!DOCTYPE svg PUBLIC "-//W3C//DTD SVG 1.1//EN" 
  "http://www.w3.org/Graphics/SVG/1.1/DTD/svg11.dtd">
<svg width="16" height="16"
	 xmlns="http://www.w3.org/2000/svg" version="1.1">
 <path d="  M 1,6  L 0,6  L 0,9  L 1,9  Z  " style="fill:rgb(136, 63, 38); fill-opacity:1.000; stroke:none;" />
 <path d="  M 5,12  L 5,11  L 4,11  L 4,12  Z  " style="fill:rgb(136, 63, 38); fill-opacity:1.000; stroke:none;" />
 <path d="  M 5,12  L 5,13  L 6,13  L 6,12  Z  " style="fill:rgb(136, 63, 38); fill-opacity:1.000; stroke:none;" />
 <path d="  M 8,12  L 8,11  L 7,11  L 7,10  L 6,10  L 6,12  Z  " style="fill:rgb(136, 63, 38); fill-opacity:1.000; stroke:none;" />
 <path d="  M 8,7  L 8,9  L 7,9  L 7,10  L 8,10  L 8,11  L 9,11  L 9,9  L 10,9  L 10,7  L 11,7  L 11,6  L 9,6  L 9,7  Z  " style="fill:rgb(136, 63, 38); fill-opacity:1.000; stroke:none;" />
 <path d="  M 14,3  L 14,2  L 10,2  L 10,3  Z  " style="fill:rgb(136, 63, 38); fill-opacity:1.000; stroke:none;" />
 <path d="  M 12,9  L 12,8  L 11,8  L 11,9  Z  " style="fill:rgb(136, 63, 38); fill-opacity:1.000; stroke:none;" />
 <path d="  M 11,14  L 13,14  L 13,12  L 12,12  L 12,13  L 11,13  Z  " style="fill:rgb(136, 63, 38); fill-opacity:1.000; stroke:none;" />
 <path d="  M 13,5  L 13,6  L 14,6  L 14,5  Z  " style="fill:rgb(136, 63, 38); fill-opacity:1.000; stroke:none;" />
 <path d="  M 14,4  L 15,4  L 15,3  L 14,3  Z  " style="fill:rgb(136, 63, 38); fill-opacity:1.000; stroke:none;" />
 <path d="  M 0,10  L 1,10  L 1,9  L 0,9  Z  " style="fill:rgb(109, 52, 33); fill-opacity:1.000; stroke:none;" />
 <path d="  M 1,11  L 2,11  L 2,10  L 1,10  Z  " style="fill:rgb(109, 52, 33); fill-opacity:1.000; stroke:none;" />
 <path d="  M 6,14  L 6,13  L 5,13  L 5,14  Z  " style="fill:rgb(109, 52, 33); fill-opacity:1.000; stroke:none;" />
 <path d="  M 8,12  L 6,12  L 6,13  L 9,13  L 9,11  L 8,11  Z  " style="fill:rgb(109, 52, 33); fill-opacity:1.000; stroke:none;" />
 <path d="  M 10,13  L 9,13  L 9,14  L 10,14  Z  " style="fill:rgb(109, 52, 33); fill-opacity:1.000; stroke:none;" />
 <path d="  M 12,9  L 15,9  L 15,8  L 14,8  L 14,6  L 13,6  L 13,8  L 12,8  Z  " style="fill:rgb(109, 52, 33); fill-opacity:1.000; stroke:none;" />
 <path d="  M 15,4  L 14,4  L 14,6  L 15,6  Z  " style="fill:rgb(109, 52, 33); fill-opacity:1.000; stroke:none;" />
 <path d="  M 16,10  L 16,9  L 15,9  L 15,10  Z  " style="fill:rgb(109, 52, 33); fill-opacity:1.000; stroke:none;" />
 <path d="  M 2,4  L 1,4  L 1,6  L 2,6  Z  " style="fill:rgb(42, 84, 71); fill-opacity:1.000; stroke:none;" />
 <path d="  M 2,3  L 2,4  L 3,4  L 3,3  Z  " style="fill:rgb(42, 84, 71); fill-opacity:1.000; stroke:none;" />
 <path d="  M 6,3  L 6,2  L 3,2  L 3,3  Z  " style="fill:rgb(42, 84, 71); fill-opacity:1.000; stroke:none;" />
 <path d="  M 6,4  L 9,4  L 9,3  L 6,3  Z  " style="fill:rgb(42, 84, 71); fill-opacity:1.000; stroke:none;" />
 <path d="  M 10,3  L 10,2  L 9,2  L 9,3  Z  " style="fill:rgb(42, 84, 71); fill-opacity:1.000; stroke:none;" />
 <path d="  M 2,7  L 2,6  L 1,6  L 1,7  Z  " style="fill:rgb(58, 116, 99); fill-opacity:1.000; stroke:none;" />
 <path d="  M 4,12  L 3,12  L 3,13  L 4,13  Z  " style="fill:rgb(58, 116, 99); fill-opacity:1.000; stroke:none;" />
 <path d="  M 4,3  L 4,4  L 6,4  L 6,3  Z  " style="fill:rgb(58, 116, 99); fill-opacity:1.000; stroke:none;" />
 <path d="  M 5,8  L 6,8  L 6,7  L 7,7  L 7,6  L 5,6  Z  " style="fill:rgb(58, 116, 99); fill-opacity:1.000; stroke:none;" />
 <path d="  M 6,4  L 6,5  L 7,5  L 7,4  Z  " style="fill:rgb(58, 116, 99); fill-opacity:1.000; stroke:none;" />
 <path d="  M 14,11  L 14,12  L 13,12  L 13,13  L 15,13  L 15,11  Z  " style="fill:rgb(58, 116, 99); fill-opacity:1.000; stroke:none;" />
 <path d="  M 3,10  L 3,8  L 2,8  L 2,7  L 1,7  L 1,9  L 2,9  L 2,10  Z  " style="fill:rgb(252, 153, 130); fill-opacity:1.000; stroke:none;" />
 <path d="  M 9,11  L 10,11  L 10,10  L 9,10  Z  " style="fill:rgb(252, 153, 130); fill-opacity:1.000; stroke:none;" />
 <path d="  M 11,5  L 11,4  L 10,4  L 10,5  Z  " style="fill:rgb(252, 153, 130); fill-opacity:1.000; stroke:none;" />
 <path d="  M 10,9  L 10,10  L 11,10  L 11,9  Z  " style="fill:rgb(252, 153, 130); fill-opacity:1.000; stroke:none;" />
 <path d="  M 12,11  L 10,11  L 10,12  L 12,12  Z  " style="fill:rgb(252, 153, 130); fill-opacity:1.000; stroke:none;" />
 <path d="  M 12,4  L 12,5  L 13,5  L 13,3  L 11,3  L 11,4  Z  " style="fill:rgb(252, 153, 130); fill-opacity:1.000; stroke:none;" />
 <path d="  M 1,10  L 2,10  L 2,9  L 1,9  Z  " style="fill:rgb(233, 122, 82); fill-opacity:1.000; stroke:none;" />
 <path d="  M 3,7  L 2,7  L 2,8  L 3,8  Z  " style="fill:rgb(233, 122, 82); fill-opacity:1.000; stroke:none;" />
 <path d="  M 3,10  L 2,10  L 2,11  L 3,11  Z  " style="fill:rgb(233, 122, 82); fill-opacity:1.000; stroke:none;" />
 <path d="  M 3,9  L 4,9  L 4,8  L 3,8  Z  " style="fill:rgb(233, 122, 82); fill-opacity:1.000; stroke:none;" />
 <path d="  M 5,10  L 5,9  L 4,9  L 4,10  Z  " style="fill:rgb(233, 122, 82); fill-opacity:1.000; stroke:none;" />
 <path d="  M 9,4  L 9,5  L 10,5  L 10,4  Z  " style="fill:rgb(233, 122, 82); fill-opacity:1.000; stroke:none;" />
 <path d="  M 10,12  L 10,11  L 9,11  L 9,12  Z  " style="fill:rgb(233, 122, 82); fill-opacity:1.000; stroke:none;" />
 <path d="  M 11,3  L 10,3  L 10,4  L 11,4  Z  " style="fill:rgb(233, 122, 82); fill-opacity:1.000; stroke:none;" />
 <path d="  M 12,5  L 11,5  L 11,6  L 12,6  Z  " style="fill:rgb(233, 122, 82); fill-opacity:1.000; stroke:none;" />
 <path d="  M 12,10  L 11,10  L 11,11  L 12,11  Z  " style="fill:rgb(233, 122, 82); fill-opacity:1.000; stroke:none;" />
 <path d="  M 13,9  L 12,9  L 12,10  L 13,10  Z  " style="fill:rgb(233, 122, 82); fill-opacity:1.000; stroke:none;" />
 <path d="  M 13,4  L 13,5  L 14,5  L 14,4  Z  " style="fill:rgb(233, 122, 82); fill-opacity:1.000; stroke:none;" />
 <path d="  M 1,11  L 1,13  L 2,13  L 2,11  Z  " style="fill:rgb(36, 59, 52); fill-opacity:1.000; stroke:none;" />
 <path d="  M 5,13  L 2,13  L 2,14  L 5,14  Z  " style="fill:rgb(36, 59, 52); fill-opacity:1.000; stroke:none;" />
 <path d="  M 13,15  L 13,14  L 10,14  L 10,15  Z  " style="fill:rgb(36, 59, 52); fill-opacity:1.000; stroke:none;" />
 <path d="  M 15,14  L 15,13  L 13,13  L 13,14  Z  " style="fill:rgb(36, 59, 52); fill-opacity:1.000; stroke:none;" />
 <path d="  M 16,10  L 15,10  L 15,13  L 16,13  Z  " style="fill:rgb(36, 59, 52); fill-opacity:1.000; stroke:none;" />
 <path d="  M 2,4  L 2,5  L 4,5  L 4,4  Z  " style="fill:rgb(79, 186, 152); fill-opacity:1.000; stroke:none;" />
 <path d="  M 3,7  L 4,7  L 4,6  L 3,6  Z  " style="fill:rgb(79, 186, 152); fill-opacity:1.000; stroke:none;" />
 <path d="  M 5,6  L 7,6  L 7,5  L 6,5  L 6,4  L 5,4  Z  " style="fill:rgb(79, 186, 152); fill-opacity:1.000; stroke:none;" />
 <path d="  M 3,6  L 3,5  L 2,5  L 2,6  Z  " style="fill:rgb(132, 226, 197); fill-opacity:1.000; stroke:none;" />
 <path d="  M 4,5  L 4,6  L 5,6  L 5,5  Z  " style="fill:rgb(132, 226, 197); fill-opacity:1.000; stroke:none;" />
 <path d="  M 2,6  L 2,7  L 3,7  L 3,6  Z  " style="fill:rgb(148, 109, 61); fill-opacity:1.000; stroke:none;" />
 <path d="  M 5,7  L 4,7  L 4,8  L 5,8  Z  " style="fill:rgb(148, 109, 61); fill-opacity:1.000; stroke:none;" />
 <path d="  M 5,8  L 5,9  L 6,9  L 6,8  Z  " style="fill:rgb(148, 109, 61); fill-opacity:1.000; stroke:none;" />
 <path d="  M 6,7  L 6,8  L 7,8  L 7,7  Z  " style="fill:rgb(148, 109, 61); fill-opacity:1.000; stroke:none;" />
 <path d="  M 9,4  L 8,4  L 8,5  L 7,5  L 7,7  L 8,7  L 8,6  L 9,6  Z  " style="fill:rgb(148, 109, 61); fill-opacity:1.000; stroke:none;" />
 <path d="  M 9,4  L 10,4  L 10,3  L 9,3  Z  " style="fill:rgb(148, 109, 61); fill-opacity:1.000; stroke:none;" />
 <path d="  M 2,12  L 3,12  L 3,11  L 2,11  Z  " style="fill:rgb(99, 91, 64); fill-opacity:1.000; stroke:none;" />
 <path d="  M 4,13  L 5,13  L 5,12  L 4,12  Z  " style="fill:rgb(99, 91, 64); fill-opacity:1.000; stroke:none;" />
 <path d="  M 13,12  L 14,12  L 14,11  L 13,11  Z  " style="fill:rgb(99, 91, 64); fill-opacity:1.000; stroke:none;" />
 <path d="  M 14,10  L 14,11  L 15,11  L 15,10  Z  " style="fill:rgb(99, 91, 64); fill-opacity:1.000; stroke:none;" />
 <path d="  M 3,12  L 2,12  L 2,13  L 3,13  Z  " style="fill:rgb(77, 141, 121); fill-opacity:1.000; stroke:none;" />
 <path d="  M 3,3  L 3,4  L 4,4  L 4,3  Z  " style="fill:rgb(77, 141, 121); fill-opacity:1.000; stroke:none;" />
 <path d="  M 3,8  L 4,8  L 4,7  L 3,7  Z  " style="fill:rgb(77, 141, 121); fill-opacity:1.000; stroke:none;" />
 <path d="  M 4,4  L 4,5  L 5,5  L 5,4  Z  " style="fill:rgb(77, 141, 121); fill-opacity:1.000; stroke:none;" />
 <path d="  M 5,7  L 5,6  L 4,6  L 4,7  Z  " style="fill:rgb(77, 141, 121); fill-opacity:1.000; stroke:none;" />
 <path d="  M 7,5  L 8,5  L 8,4  L 7,4  Z  " style="fill:rgb(77, 141, 121); fill-opacity:1.000; stroke:none;" />
 <path d="  M 3,6  L 4,6  L 4,5  L 3,5  Z  " style="fill:rgb(201, 250, 236); fill-opacity:1.000; stroke:none;" />
 <path d="  M 4,9  L 3,9  L 3,11  L 5,11  L 5,10  L 4,10  Z  " style="fill:rgb(201, 94, 53); fill-opacity:1.000; stroke:none;" />
 <path d="  M 5,8  L 4,8  L 4,9  L 5,9  Z  " style="fill:rgb(201, 94, 53); fill-opacity:1.000; stroke:none;" />
 <path d="  M 5,9  L 5,10  L 6,10  L 6,9  Z  " style="fill:rgb(201, 94, 53); fill-opacity:1.000; stroke:none;" />
 <path d="  M 7,9  L 7,8  L 6,8  L 6,9  Z  " style="fill:rgb(201, 94, 53); fill-opacity:1.000; stroke:none;" />
 <path d="  M 9,6  L 11,6  L 11,5  L 9,5  Z  " style="fill:rgb(201, 94, 53); fill-opacity:1.000; stroke:none;" />
 <path d="  M 9,12  L 9,13  L 10,13  L 10,14  L 11,14  L 11,12  Z  " style="fill:rgb(201, 94, 53); fill-opacity:1.000; stroke:none;" />
 <path d="  M 11,9  L 11,10  L 12,10  L 12,9  Z  " style="fill:rgb(201, 94, 53); fill-opacity:1.000; stroke:none;" />
 <path d="  M 13,5  L 12,5  L 12,7  L 13,7  Z  " style="fill:rgb(201, 94, 53); fill-opacity:1.000; stroke:none;" />
 <path d="  M 12,10  L 12,11  L 13,11  L 13,10  Z  " style="fill:rgb(201, 94, 53); fill-opacity:1.000; stroke:none;" />
 <path d="  M 14,4  L 14,3  L 13,3  L 13,4  Z  " style="fill:rgb(201, 94, 53); fill-opacity:1.000; stroke:none;" />
 <path d="  M 3,12  L 4,12  L 4,11  L 3,11  Z  " style="fill:rgb(165, 73, 38); fill-opacity:1.000; stroke:none;" />
 <path d="  M 5,10  L 5,12  L 6,12  L 6,10  Z  " style="fill:rgb(165, 73, 38); fill-opacity:1.000; stroke:none;" />
 <path d="  M 7,9  L 6,9  L 6,10  L 7,10  Z  " style="fill:rgb(165, 73, 38); fill-opacity:1.000; stroke:none;" />
 <path d="  M 7,9  L 8,9  L 8,7  L 7,7  Z  " style="fill:rgb(165, 73, 38); fill-opacity:1.000; stroke:none;" />
 <path d="  M 7,11  L 8,11  L 8,10  L 7,10  Z  " style="fill:rgb(165, 73, 38); fill-opacity:1.000; stroke:none;" />
 <path d="  M 9,7  L 9,6  L 8,6  L 8,7  Z  " style="fill:rgb(165, 73, 38); fill-opacity:1.000; stroke:none;" />
 <path d="  M 9,10  L 10,10  L 10,9  L 9,9  Z  " style="fill:rgb(165, 73, 38); fill-opacity:1.000; stroke:none;" />
 <path d="  M 10,9  L 11,9  L 11,8  L 13,8  L 13,7  L 12,7  L 12,6  L 11,6  L 11,7  L 10,7  Z  " style="fill:rgb(165, 73, 38); fill-opacity:1.000; stroke:none;" />
 <path d="  M 11,13  L 12,13  L 12,12  L 11,12  Z  " style="fill:rgb(165, 73, 38); fill-opacity:1.000; stroke:none;" />
 <path d="  M 13,11  L 12,11  L 12,12  L 13,12  Z  " style="fill:rgb(165, 73, 38); fill-opacity:1.000; stroke:none;" />
 <path d="  M 14,11  L 14,10  L 15,10  L 15,9  L 13,9  L 13,11  Z  " style="fill:rgb(165, 73, 38); fill-opacity:1.000; stroke:none;" />
 <path d="  M 10,10  L 10,11  L 11,11  L 11,10  Z  " style="fill:rgb(254, 195, 182); fill-opacity:1.000; stroke:none;" />
 <path d="  M 11,4  L 11,5  L 12,5  L 12,4  Z  " style="fill:rgb(254, 195, 182); fill-opacity:1.000; stroke:none;" />
</svg>
