<?xml version="1.0" encoding="UTF-8" standalone="no"?>
<!DOCTYPE svg PUBLIC "-//W3C//DTD SVG 1.1//EN" 
  "http://www.w3.org/Graphics/SVG/1.1/DTD/svg11.dtd">
<svg width="16" height="16"
	 xmlns="http://www.w3.org/2000/svg" version="1.1">
 <path d="  M 3,10  L 3,8  L 2,8  L 2,10  Z  " style="fill:rgb(32, 106, 67); fill-opacity:1.000; stroke:none;" />
 <path d="  M 3,10  L 3,11  L 5,11  L 5,10  Z  " style="fill:rgb(32, 106, 67); fill-opacity:1.000; stroke:none;" />
 <path d="  M 5,11  L 5,12  L 11,12  L 11,11  Z  " style="fill:rgb(32, 106, 67); fill-opacity:1.000; stroke:none;" />
 <path d="  M 12,6  L 11,6  L 11,7  L 12,7  Z  " style="fill:rgb(32, 106, 67); fill-opacity:1.000; stroke:none;" />
 <path d="  M 11,11  L 13,11  L 13,10  L 11,10  Z  " style="fill:rgb(32, 106, 67); fill-opacity:1.000; stroke:none;" />
 <path d="  M 13,8  L 13,7  L 12,7  L 12,8  Z  " style="fill:rgb(32, 106, 67); fill-opacity:1.000; stroke:none;" />
 <path d="  M 13,10  L 14,10  L 14,8  L 13,8  Z  " style="fill:rgb(32, 106, 67); fill-opacity:1.000; stroke:none;" />
 <path d="  M 3,8  L 4,8  L 4,7  L 3,7  Z  " style="fill:rgb(41, 125, 73); fill-opacity:1.000; stroke:none;" />
 <path d="  M 5,7  L 5,6  L 4,6  L 4,7  Z  " style="fill:rgb(41, 125, 73); fill-opacity:1.000; stroke:none;" />
 <path d="  M 5,6  L 11,6  L 11,5  L 5,5  Z  " style="fill:rgb(41, 125, 73); fill-opacity:1.000; stroke:none;" />
 <path d="  M 13,9  L 12,9  L 12,10  L 13,10  Z  " style="fill:rgb(41, 125, 73); fill-opacity:1.000; stroke:none;" />
 <path d="  M 4,8  L 3,8  L 3,10  L 4,10  Z  " style="fill:rgb(56, 141, 58); fill-opacity:1.000; stroke:none;" />
 <path d="  M 5,7  L 4,7  L 4,8  L 5,8  Z  " style="fill:rgb(56, 141, 58); fill-opacity:1.000; stroke:none;" />
 <path d="  M 6,7  L 6,6  L 5,6  L 5,7  Z  " style="fill:rgb(56, 141, 58); fill-opacity:1.000; stroke:none;" />
 <path d="  M 5,10  L 5,11  L 6,11  L 6,10  Z  " style="fill:rgb(56, 141, 58); fill-opacity:1.000; stroke:none;" />
 <path d="  M 10,7  L 11,7  L 11,6  L 10,6  Z  " style="fill:rgb(56, 141, 58); fill-opacity:1.000; stroke:none;" />
 <path d="  M 10,10  L 10,11  L 11,11  L 11,10  Z  " style="fill:rgb(56, 141, 58); fill-opacity:1.000; stroke:none;" />
 <path d="  M 11,7  L 11,8  L 12,8  L 12,7  Z  " style="fill:rgb(56, 141, 58); fill-opacity:1.000; stroke:none;" />
 <path d="  M 12,9  L 13,9  L 13,8  L 12,8  Z  " style="fill:rgb(56, 141, 58); fill-opacity:1.000; stroke:none;" />
 <path d="  M 4,10  L 6,10  L 6,9  L 5,9  L 5,8  L 4,8  Z  " style="fill:rgb(63, 164, 66); fill-opacity:1.000; stroke:none;" />
 <path d="  M 6,7  L 5,7  L 5,8  L 6,8  Z  " style="fill:rgb(63, 164, 66); fill-opacity:1.000; stroke:none;" />
 <path d="  M 7,6  L 6,6  L 6,7  L 7,7  Z  " style="fill:rgb(63, 164, 66); fill-opacity:1.000; stroke:none;" />
 <path d="  M 6,11  L 7,11  L 7,10  L 6,10  Z  " style="fill:rgb(63, 164, 66); fill-opacity:1.000; stroke:none;" />
 <path d="  M 10,7  L 10,6  L 9,6  L 9,7  Z  " style="fill:rgb(63, 164, 66); fill-opacity:1.000; stroke:none;" />
 <path d="  M 9,11  L 10,11  L 10,10  L 9,10  Z  " style="fill:rgb(63, 164, 66); fill-opacity:1.000; stroke:none;" />
 <path d="  M 10,7  L 10,8  L 11,8  L 11,7  Z  " style="fill:rgb(63, 164, 66); fill-opacity:1.000; stroke:none;" />
 <path d="  M 10,9  L 10,10  L 12,10  L 12,8  L 11,8  L 11,9  Z  " style="fill:rgb(63, 164, 66); fill-opacity:1.000; stroke:none;" />
 <path d="  M 7,11  L 9,11  L 9,10  L 10,10  L 10,9  L 11,9  L 11,8  L 10,8  L 10,7  L 9,7  L 9,6  L 7,6  L 7,7  L 6,7  L 6,8  L 5,8  L 5,9  L 6,9  L 6,10  L 7,10  Z  " style="fill:rgb(71, 191, 74); fill-opacity:1.000; stroke:none;" />
</svg>
