<?xml version="1.0" encoding="UTF-8" standalone="no"?>
<!DOCTYPE svg PUBLIC "-//W3C//DTD SVG 1.1//EN" 
  "http://www.w3.org/Graphics/SVG/1.1/DTD/svg11.dtd">
<svg width="16" height="16"
	 xmlns="http://www.w3.org/2000/svg" version="1.1">
 <path d="  M 6,7  L 6,6  L 5,6  L 5,7  Z  " style="fill:rgb(123, 13, 39); fill-opacity:1.000; stroke:none;" />
 <path d="  M 6,6  L 8,6  L 8,5  L 6,5  Z  " style="fill:rgb(123, 13, 39); fill-opacity:1.000; stroke:none;" />
 <path d="  M 7,9  L 6,9  L 6,10  L 7,10  Z  " style="fill:rgb(123, 13, 39); fill-opacity:1.000; stroke:none;" />
 <path d="  M 9,8  L 8,8  L 8,9  L 9,9  Z  " style="fill:rgb(123, 13, 39); fill-opacity:1.000; stroke:none;" />
 <path d="  M 10,7  L 10,6  L 9,6  L 9,7  Z  " style="fill:rgb(123, 13, 39); fill-opacity:1.000; stroke:none;" />
 <path d="  M 11,12  L 11,11  L 10,11  L 10,12  Z  " style="fill:rgb(123, 13, 39); fill-opacity:1.000; stroke:none;" />
 <path d="  M 5,10  L 6,10  L 6,7  L 5,7  Z  " style="fill:rgb(85, 2, 34); fill-opacity:1.000; stroke:none;" />
 <path d="  M 10,6  L 10,5  L 8,5  L 8,6  Z  " style="fill:rgb(85, 2, 34); fill-opacity:1.000; stroke:none;" />
 <path d="  M 8,13  L 9,13  L 9,12  L 8,12  Z  " style="fill:rgb(85, 2, 34); fill-opacity:1.000; stroke:none;" />
 <path d="  M 9,10  L 10,10  L 10,9  L 9,9  Z  " style="fill:rgb(85, 2, 34); fill-opacity:1.000; stroke:none;" />
 <path d="  M 10,12  L 10,11  L 9,11  L 9,12  Z  " style="fill:rgb(85, 2, 34); fill-opacity:1.000; stroke:none;" />
 <path d="  M 10,10  L 10,11  L 11,11  L 11,10  Z  " style="fill:rgb(85, 2, 34); fill-opacity:1.000; stroke:none;" />
 <path d="  M 7,6  L 6,6  L 6,7  L 7,7  Z  " style="fill:rgb(157, 30, 45); fill-opacity:1.000; stroke:none;" />
 <path d="  M 6,8  L 6,9  L 8,9  L 8,8  Z  " style="fill:rgb(157, 30, 45); fill-opacity:1.000; stroke:none;" />
 <path d="  M 8,8  L 9,8  L 9,6  L 8,6  Z  " style="fill:rgb(157, 30, 45); fill-opacity:1.000; stroke:none;" />
 <path d="  M 10,12  L 9,12  L 9,13  L 10,13  Z  " style="fill:rgb(157, 30, 45); fill-opacity:1.000; stroke:none;" />
 <path d="  M 6,7  L 6,8  L 7,8  L 7,7  Z  " style="fill:rgb(224, 174, 180); fill-opacity:1.000; stroke:none;" />
 <path d="  M 6,10  L 6,11  L 10,11  L 10,10  Z  " style="fill:rgb(42, 0, 16); fill-opacity:1.000; stroke:none;" />
 <path d="  M 8,14  L 9,14  L 9,13  L 8,13  Z  " style="fill:rgb(42, 0, 16); fill-opacity:1.000; stroke:none;" />
 <path d="  M 10,15  L 10,14  L 9,14  L 9,15  Z  " style="fill:rgb(42, 0, 16); fill-opacity:1.000; stroke:none;" />
 <path d="  M 10,10  L 11,10  L 11,6  L 10,6  Z  " style="fill:rgb(42, 0, 16); fill-opacity:1.000; stroke:none;" />
 <path d="  M 10,14  L 11,14  L 11,13  L 10,13  Z  " style="fill:rgb(42, 0, 16); fill-opacity:1.000; stroke:none;" />
 <path d="  M 12,10  L 11,10  L 11,13  L 12,13  Z  " style="fill:rgb(42, 0, 16); fill-opacity:1.000; stroke:none;" />
 <path d="  M 7,7  L 8,7  L 8,6  L 7,6  Z  " style="fill:rgb(224, 201, 204); fill-opacity:1.000; stroke:none;" />
 <path d="  M 8,8  L 8,7  L 7,7  L 7,8  Z  " style="fill:rgb(196, 95, 107); fill-opacity:1.000; stroke:none;" />
 <path d="  M 9,10  L 9,9  L 7,9  L 7,10  Z  " style="fill:rgb(101, 6, 43); fill-opacity:1.000; stroke:none;" />
 <path d="  M 10,7  L 9,7  L 9,9  L 10,9  Z  " style="fill:rgb(101, 6, 43); fill-opacity:1.000; stroke:none;" />
 <path d="  M 10,13  L 9,13  L 9,14  L 10,14  Z  " style="fill:rgb(101, 6, 43); fill-opacity:1.000; stroke:none;" />
 <path d="  M 11,13  L 11,12  L 10,12  L 10,13  Z  " style="fill:rgb(101, 6, 43); fill-opacity:1.000; stroke:none;" />
</svg>
