<?xml version="1.0" encoding="UTF-8" standalone="no"?>
<!DOCTYPE svg PUBLIC "-//W3C//DTD SVG 1.1//EN" 
  "http://www.w3.org/Graphics/SVG/1.1/DTD/svg11.dtd">
<svg width="16" height="16"
	 xmlns="http://www.w3.org/2000/svg" version="1.1">
 <path d="  M 4,9  L 4,11  L 5,11  L 5,9  Z  " style="fill:rgb(212, 229, 247); fill-opacity:1.000; stroke:none;" />
 <path d="  M 5,8  L 5,9  L 6,9  L 6,8  Z  " style="fill:rgb(212, 229, 247); fill-opacity:1.000; stroke:none;" />
 <path d="  M 6,7  L 6,8  L 7,8  L 7,7  Z  " style="fill:rgb(212, 229, 247); fill-opacity:1.000; stroke:none;" />
 <path d="  M 4,13  L 5,13  L 5,11  L 4,11  Z  " style="fill:rgb(179, 207, 236); fill-opacity:1.000; stroke:none;" />
 <path d="  M 6,11  L 7,11  L 7,9  L 6,9  Z  " style="fill:rgb(179, 207, 236); fill-opacity:1.000; stroke:none;" />
 <path d="  M 7,7  L 8,7  L 8,6  L 7,6  Z  " style="fill:rgb(179, 207, 236); fill-opacity:1.000; stroke:none;" />
 <path d="  M 7,8  L 7,9  L 8,9  L 8,8  Z  " style="fill:rgb(179, 207, 236); fill-opacity:1.000; stroke:none;" />
 <path d="  M 8,5  L 8,6  L 9,6  L 9,5  Z  " style="fill:rgb(179, 207, 236); fill-opacity:1.000; stroke:none;" />
 <path d="  M 11,8  L 11,6  L 10,6  L 10,8  Z  " style="fill:rgb(179, 207, 236); fill-opacity:1.000; stroke:none;" />
 <path d="  M 12,9  L 12,8  L 11,8  L 11,9  Z  " style="fill:rgb(179, 207, 236); fill-opacity:1.000; stroke:none;" />
 <path d="  M 6,14  L 6,13  L 5,13  L 5,14  Z  " style="fill:rgb(93, 143, 194); fill-opacity:1.000; stroke:none;" />
 <path d="  M 6,14  L 6,15  L 11,15  L 11,14  Z  " style="fill:rgb(93, 143, 194); fill-opacity:1.000; stroke:none;" />
 <path d="  M 9,4  L 9,5  L 10,5  L 10,4  Z  " style="fill:rgb(93, 143, 194); fill-opacity:1.000; stroke:none;" />
 <path d="  M 12,13  L 11,13  L 11,14  L 12,14  Z  " style="fill:rgb(93, 143, 194); fill-opacity:1.000; stroke:none;" />
 <path d="  M 13,13  L 13,9  L 12,9  L 12,13  Z  " style="fill:rgb(93, 143, 194); fill-opacity:1.000; stroke:none;" />
 <path d="  M 10,13  L 9,13  L 9,14  L 10,14  Z  " style="fill:rgb(139, 173, 208); fill-opacity:1.000; stroke:none;" />
 <path d="  M 10,13  L 11,13  L 11,11  L 10,11  Z  " style="fill:rgb(139, 173, 208); fill-opacity:1.000; stroke:none;" />
 <path d="  M 11,3  L 10,3  L 10,4  L 12,4  L 12,3  L 13,3  L 13,2  L 11,2  Z  " style="fill:rgb(212, 109, 73); fill-opacity:1.000; stroke:none;" />
 <path d="  M 11,5  L 11,4  L 10,4  L 10,5  Z  " style="fill:rgb(151, 55, 22); fill-opacity:1.000; stroke:none;" />
 <path d="  M 13,6  L 13,5  L 11,5  L 11,7  L 12,7  L 12,6  Z  " style="fill:rgb(151, 55, 22); fill-opacity:1.000; stroke:none;" />
 <path d="  M 13,5  L 13,3  L 12,3  L 12,4  L 11,4  L 11,5  Z  " style="fill:rgb(169, 71, 37); fill-opacity:1.000; stroke:none;" />
</svg>
