<?xml version="1.0" encoding="UTF-8" standalone="no"?>
<!DOCTYPE svg PUBLIC "-//W3C//DTD SVG 1.1//EN" 
  "http://www.w3.org/Graphics/SVG/1.1/DTD/svg11.dtd">
<svg width="16" height="16"
	 xmlns="http://www.w3.org/2000/svg" version="1.1">
 <path d="  M 1,6  L 1,5  L 0,5  L 0,6  Z  " style="fill:rgb(84, 64, 44); fill-opacity:1.000; stroke:none;" />
 <path d="  M 3,5  L 3,4  L 2,4  L 2,5  Z  " style="fill:rgb(84, 64, 44); fill-opacity:1.000; stroke:none;" />
 <path d="  M 4,9  L 4,8  L 6,8  L 6,6  L 7,6  L 7,5  L 5,5  L 5,6  L 3,6  L 3,7  L 2,7  L 2,8  L 3,8  L 3,9  Z  " style="fill:rgb(84, 64, 44); fill-opacity:1.000; stroke:none;" />
 <path d="  M 3,3  L 3,4  L 4,4  L 4,3  Z  " style="fill:rgb(84, 64, 44); fill-opacity:1.000; stroke:none;" />
 <path d="  M 5,2  L 6,2  L 6,1  L 4,1  L 4,3  L 5,3  Z  " style="fill:rgb(84, 64, 44); fill-opacity:1.000; stroke:none;" />
 <path d="  M 11,5  L 11,4  L 7,4  L 7,5  Z  " style="fill:rgb(84, 64, 44); fill-opacity:1.000; stroke:none;" />
 <path d="  M 8,13  L 9,13  L 9,12  L 8,12  Z  " style="fill:rgb(84, 64, 44); fill-opacity:1.000; stroke:none;" />
 <path d="  M 12,4  L 12,3  L 11,3  L 11,4  Z  " style="fill:rgb(84, 64, 44); fill-opacity:1.000; stroke:none;" />
 <path d="  M 12,5  L 11,5  L 11,6  L 12,6  Z  " style="fill:rgb(84, 64, 44); fill-opacity:1.000; stroke:none;" />
 <path d="  M 13,4  L 12,4  L 12,5  L 13,5  Z  " style="fill:rgb(84, 64, 44); fill-opacity:1.000; stroke:none;" />
 <path d="  M 12,9  L 13,9  L 13,8  L 12,8  Z  " style="fill:rgb(84, 64, 44); fill-opacity:1.000; stroke:none;" />
 <path d="  M 13,10  L 14,10  L 14,9  L 13,9  Z  " style="fill:rgb(84, 64, 44); fill-opacity:1.000; stroke:none;" />
 <path d="  M 14,10  L 14,11  L 15,11  L 15,10  Z  " style="fill:rgb(84, 64, 44); fill-opacity:1.000; stroke:none;" />
 <path d="  M 16,11  L 15,11  L 15,14  L 16,14  Z  " style="fill:rgb(84, 64, 44); fill-opacity:1.000; stroke:none;" />
 <path d="  M 0,6  L 0,7  L 1,7  L 1,6  Z  " style="fill:rgb(71, 55, 37); fill-opacity:1.000; stroke:none;" />
 <path d="  M 1,5  L 1,6  L 3,6  L 3,5  Z  " style="fill:rgb(71, 55, 37); fill-opacity:1.000; stroke:none;" />
 <path d="  M 5,5  L 5,4  L 3,4  L 3,5  Z  " style="fill:rgb(71, 55, 37); fill-opacity:1.000; stroke:none;" />
 <path d="  M 4,10  L 8,10  L 8,8  L 4,8  Z  " style="fill:rgb(71, 55, 37); fill-opacity:1.000; stroke:none;" />
 <path d="  M 7,4  L 7,3  L 5,3  L 5,4  Z  " style="fill:rgb(71, 55, 37); fill-opacity:1.000; stroke:none;" />
 <path d="  M 12,3  L 12,2  L 7,2  L 7,3  Z  " style="fill:rgb(71, 55, 37); fill-opacity:1.000; stroke:none;" />
 <path d="  M 10,7  L 10,6  L 9,6  L 9,7  Z  " style="fill:rgb(71, 55, 37); fill-opacity:1.000; stroke:none;" />
 <path d="  M 10,7  L 10,8  L 11,8  L 11,7  Z  " style="fill:rgb(71, 55, 37); fill-opacity:1.000; stroke:none;" />
 <path d="  M 13,3  L 12,3  L 12,4  L 13,4  Z  " style="fill:rgb(71, 55, 37); fill-opacity:1.000; stroke:none;" />
 <path d="  M 14,7  L 14,4  L 13,4  L 13,7  Z  " style="fill:rgb(71, 55, 37); fill-opacity:1.000; stroke:none;" />
 <path d="  M 0,11  L 1,11  L 1,7  L 0,7  Z  " style="fill:rgb(52, 40, 27); fill-opacity:1.000; stroke:none;" />
 <path d="  M 3,7  L 3,6  L 1,6  L 1,7  Z  " style="fill:rgb(102, 79, 47); fill-opacity:1.000; stroke:none;" />
 <path d="  M 1,11  L 2,11  L 2,8  L 1,8  Z  " style="fill:rgb(102, 79, 47); fill-opacity:1.000; stroke:none;" />
 <path d="  M 3,5  L 3,6  L 5,6  L 5,5  Z  " style="fill:rgb(102, 79, 47); fill-opacity:1.000; stroke:none;" />
 <path d="  M 5,13  L 4,13  L 4,14  L 5,14  Z  " style="fill:rgb(102, 79, 47); fill-opacity:1.000; stroke:none;" />
 <path d="  M 5,5  L 7,5  L 7,4  L 5,4  Z  " style="fill:rgb(102, 79, 47); fill-opacity:1.000; stroke:none;" />
 <path d="  M 6,11  L 7,11  L 7,10  L 6,10  Z  " style="fill:rgb(102, 79, 47); fill-opacity:1.000; stroke:none;" />
 <path d="  M 7,12  L 6,12  L 6,13  L 8,13  L 8,12  L 9,12  L 9,11  L 7,11  Z  " style="fill:rgb(102, 79, 47); fill-opacity:1.000; stroke:none;" />
 <path d="  M 9,4  L 9,3  L 7,3  L 7,4  Z  " style="fill:rgb(102, 79, 47); fill-opacity:1.000; stroke:none;" />
 <path d="  M 2,7  L 1,7  L 1,8  L 2,8  Z  " style="fill:rgb(155, 111, 59); fill-opacity:1.000; stroke:none;" />
 <path d="  M 2,8  L 2,9  L 3,9  L 3,8  Z  " style="fill:rgb(155, 111, 59); fill-opacity:1.000; stroke:none;" />
 <path d="  M 4,9  L 3,9  L 3,10  L 4,10  Z  " style="fill:rgb(155, 111, 59); fill-opacity:1.000; stroke:none;" />
 <path d="  M 4,11  L 5,11  L 5,10  L 4,10  Z  " style="fill:rgb(155, 111, 59); fill-opacity:1.000; stroke:none;" />
 <path d="  M 5,3  L 6,3  L 6,2  L 5,2  Z  " style="fill:rgb(155, 111, 59); fill-opacity:1.000; stroke:none;" />
 <path d="  M 7,11  L 5,11  L 5,14  L 6,14  L 6,12  L 7,12  Z  " style="fill:rgb(155, 111, 59); fill-opacity:1.000; stroke:none;" />
 <path d="  M 7,7  L 8,7  L 8,6  L 7,6  Z  " style="fill:rgb(155, 111, 59); fill-opacity:1.000; stroke:none;" />
 <path d="  M 7,11  L 8,11  L 8,10  L 7,10  Z  " style="fill:rgb(155, 111, 59); fill-opacity:1.000; stroke:none;" />
 <path d="  M 1,11  L 1,12  L 2,12  L 2,11  Z  " style="fill:rgb(41, 23, 15); fill-opacity:1.000; stroke:none;" />
 <path d="  M 3,12  L 2,12  L 2,13  L 3,13  Z  " style="fill:rgb(41, 23, 15); fill-opacity:1.000; stroke:none;" />
 <path d="  M 3,14  L 4,14  L 4,13  L 3,13  Z  " style="fill:rgb(41, 23, 15); fill-opacity:1.000; stroke:none;" />
 <path d="  M 7,15  L 7,14  L 4,14  L 4,15  Z  " style="fill:rgb(41, 23, 15); fill-opacity:1.000; stroke:none;" />
 <path d="  M 7,13  L 7,14  L 9,14  L 9,13  Z  " style="fill:rgb(41, 23, 15); fill-opacity:1.000; stroke:none;" />
 <path d="  M 9,12  L 9,13  L 11,13  L 11,12  Z  " style="fill:rgb(41, 23, 15); fill-opacity:1.000; stroke:none;" />
 <path d="  M 12,13  L 11,13  L 11,14  L 12,14  Z  " style="fill:rgb(41, 23, 15); fill-opacity:1.000; stroke:none;" />
 <path d="  M 16,15  L 16,14  L 12,14  L 12,15  Z  " style="fill:rgb(41, 23, 15); fill-opacity:1.000; stroke:none;" />
 <path d="  M 14,9  L 14,8  L 13,8  L 13,9  Z  " style="fill:rgb(41, 23, 15); fill-opacity:1.000; stroke:none;" />
 <path d="  M 3,10  L 3,9  L 2,9  L 2,12  L 3,12  L 3,13  L 5,13  L 5,11  L 4,11  L 4,10  Z  " style="fill:rgb(128, 94, 54); fill-opacity:1.000; stroke:none;" />
 <path d="  M 9,11  L 9,10  L 8,10  L 8,11  Z  " style="fill:rgb(128, 94, 54); fill-opacity:1.000; stroke:none;" />
 <path d="  M 11,3  L 9,3  L 9,4  L 11,4  Z  " style="fill:rgb(128, 94, 54); fill-opacity:1.000; stroke:none;" />
 <path d="  M 11,4  L 11,5  L 12,5  L 12,4  Z  " style="fill:rgb(128, 94, 54); fill-opacity:1.000; stroke:none;" />
 <path d="  M 12,9  L 12,8  L 11,8  L 11,9  Z  " style="fill:rgb(128, 94, 54); fill-opacity:1.000; stroke:none;" />
 <path d="  M 13,5  L 12,5  L 12,8  L 13,8  Z  " style="fill:rgb(128, 94, 54); fill-opacity:1.000; stroke:none;" />
 <path d="  M 5,3  L 4,3  L 4,4  L 5,4  Z  " style="fill:rgb(139, 104, 37); fill-opacity:1.000; stroke:none;" />
 <path d="  M 8,7  L 8,8  L 9,8  L 9,7  Z  " style="fill:rgb(139, 104, 37); fill-opacity:1.000; stroke:none;" />
 <path d="  M 10,8  L 9,8  L 9,9  L 10,9  Z  " style="fill:rgb(139, 104, 37); fill-opacity:1.000; stroke:none;" />
 <path d="  M 10,9  L 10,10  L 11,10  L 11,9  Z  " style="fill:rgb(139, 104, 37); fill-opacity:1.000; stroke:none;" />
 <path d="  M 5,10  L 5,11  L 6,11  L 6,10  Z  " style="fill:rgb(97, 75, 45); fill-opacity:1.000; stroke:none;" />
 <path d="  M 6,13  L 6,14  L 7,14  L 7,13  Z  " style="fill:rgb(97, 75, 45); fill-opacity:1.000; stroke:none;" />
 <path d="  M 9,10  L 9,9  L 8,9  L 8,10  Z  " style="fill:rgb(97, 75, 45); fill-opacity:1.000; stroke:none;" />
 <path d="  M 9,11  L 10,11  L 10,10  L 9,10  Z  " style="fill:rgb(97, 75, 45); fill-opacity:1.000; stroke:none;" />
 <path d="  M 6,1  L 6,3  L 7,3  L 7,1  Z  " style="fill:rgb(66, 47, 11); fill-opacity:1.000; stroke:none;" />
 <path d="  M 6,6  L 6,8  L 8,8  L 8,7  L 7,7  L 7,6  Z  " style="fill:rgb(66, 47, 11); fill-opacity:1.000; stroke:none;" />
 <path d="  M 9,8  L 8,8  L 8,9  L 9,9  Z  " style="fill:rgb(66, 47, 11); fill-opacity:1.000; stroke:none;" />
 <path d="  M 9,10  L 10,10  L 10,9  L 9,9  Z  " style="fill:rgb(66, 47, 11); fill-opacity:1.000; stroke:none;" />
 <path d="  M 10,12  L 10,11  L 9,11  L 9,12  Z  " style="fill:rgb(66, 47, 11); fill-opacity:1.000; stroke:none;" />
 <path d="  M 10,10  L 10,11  L 11,11  L 11,10  Z  " style="fill:rgb(66, 47, 11); fill-opacity:1.000; stroke:none;" />
 <path d="  M 11,9  L 11,10  L 12,10  L 12,9  Z  " style="fill:rgb(66, 47, 11); fill-opacity:1.000; stroke:none;" />
 <path d="  M 13,7  L 13,8  L 14,8  L 14,7  Z  " style="fill:rgb(66, 47, 11); fill-opacity:1.000; stroke:none;" />
 <path d="  M 8,6  L 8,7  L 9,7  L 9,5  L 7,5  L 7,6  Z  " style="fill:rgb(108, 81, 29); fill-opacity:1.000; stroke:none;" />
 <path d="  M 9,7  L 9,8  L 10,8  L 10,7  Z  " style="fill:rgb(108, 81, 29); fill-opacity:1.000; stroke:none;" />
 <path d="  M 10,9  L 11,9  L 11,8  L 10,8  Z  " style="fill:rgb(108, 81, 29); fill-opacity:1.000; stroke:none;" />
 <path d="  M 12,10  L 11,10  L 11,11  L 12,11  Z  " style="fill:rgb(108, 81, 29); fill-opacity:1.000; stroke:none;" />
 <path d="  M 13,11  L 12,11  L 12,12  L 13,12  Z  " style="fill:rgb(108, 81, 29); fill-opacity:1.000; stroke:none;" />
 <path d="  M 13,12  L 13,13  L 14,13  L 14,12  Z  " style="fill:rgb(108, 81, 29); fill-opacity:1.000; stroke:none;" />
 <path d="  M 14,14  L 15,14  L 15,13  L 14,13  Z  " style="fill:rgb(108, 81, 29); fill-opacity:1.000; stroke:none;" />
 <path d="  M 11,7  L 11,8  L 12,8  L 12,6  L 11,6  L 11,5  L 9,5  L 9,6  L 10,6  L 10,7  Z  " style="fill:rgb(90, 70, 42); fill-opacity:1.000; stroke:none;" />
 <path d="  M 11,12  L 11,11  L 10,11  L 10,12  Z  " style="fill:rgb(136, 101, 36); fill-opacity:1.000; stroke:none;" />
 <path d="  M 11,13  L 12,13  L 12,12  L 11,12  Z  " style="fill:rgb(136, 101, 36); fill-opacity:1.000; stroke:none;" />
 <path d="  M 13,9  L 12,9  L 12,10  L 13,10  Z  " style="fill:rgb(136, 101, 36); fill-opacity:1.000; stroke:none;" />
 <path d="  M 12,13  L 12,14  L 14,14  L 14,13  Z  " style="fill:rgb(136, 101, 36); fill-opacity:1.000; stroke:none;" />
 <path d="  M 13,10  L 13,11  L 14,11  L 14,10  Z  " style="fill:rgb(136, 101, 36); fill-opacity:1.000; stroke:none;" />
 <path d="  M 14,13  L 15,13  L 15,11  L 14,11  Z  " style="fill:rgb(136, 101, 36); fill-opacity:1.000; stroke:none;" />
 <path d="  M 12,11  L 11,11  L 11,12  L 12,12  Z  " style="fill:rgb(118, 88, 31); fill-opacity:1.000; stroke:none;" />
 <path d="  M 12,10  L 12,11  L 13,11  L 13,10  Z  " style="fill:rgb(118, 88, 31); fill-opacity:1.000; stroke:none;" />
 <path d="  M 13,12  L 12,12  L 12,13  L 13,13  Z  " style="fill:rgb(118, 88, 31); fill-opacity:1.000; stroke:none;" />
 <path d="  M 13,12  L 14,12  L 14,11  L 13,11  Z  " style="fill:rgb(118, 88, 31); fill-opacity:1.000; stroke:none;" />
</svg>
