<?xml version="1.0" encoding="UTF-8" standalone="no"?>
<!DOCTYPE svg PUBLIC "-//W3C//DTD SVG 1.1//EN" 
  "http://www.w3.org/Graphics/SVG/1.1/DTD/svg11.dtd">
<svg width="16" height="16"
	 xmlns="http://www.w3.org/2000/svg" version="1.1">
 <path d="  M 1,13  L 2,13  L 2,12  L 1,12  Z  " style="fill:rgb(83, 43, 11); fill-opacity:1.000; stroke:none;" />
 <path d="  M 2,12  L 3,12  L 3,11  L 2,11  Z  " style="fill:rgb(83, 43, 11); fill-opacity:1.000; stroke:none;" />
 <path d="  M 3,10  L 3,11  L 4,11  L 4,10  Z  " style="fill:rgb(83, 43, 11); fill-opacity:1.000; stroke:none;" />
 <path d="  M 5,12  L 5,13  L 6,13  L 6,12  Z  " style="fill:rgb(83, 43, 11); fill-opacity:1.000; stroke:none;" />
 <path d="  M 10,9  L 10,10  L 11,10  L 11,9  Z  " style="fill:rgb(83, 43, 11); fill-opacity:1.000; stroke:none;" />
 <path d="  M 12,9  L 12,8  L 11,8  L 11,9  Z  " style="fill:rgb(83, 43, 11); fill-opacity:1.000; stroke:none;" />
 <path d="  M 13,8  L 13,7  L 12,7  L 12,8  Z  " style="fill:rgb(83, 43, 11); fill-opacity:1.000; stroke:none;" />
 <path d="  M 1,13  L 1,14  L 2,14  L 2,13  Z  " style="fill:rgb(51, 23, 18); fill-opacity:1.000; stroke:none;" />
 <path d="  M 2,15  L 4,15  L 4,14  L 2,14  Z  " style="fill:rgb(51, 23, 18); fill-opacity:1.000; stroke:none;" />
 <path d="  M 5,13  L 4,13  L 4,14  L 5,14  Z  " style="fill:rgb(51, 23, 18); fill-opacity:1.000; stroke:none;" />
 <path d="  M 5,10  L 5,11  L 6,11  L 6,10  Z  " style="fill:rgb(51, 23, 18); fill-opacity:1.000; stroke:none;" />
 <path d="  M 6,11  L 6,12  L 8,12  L 8,11  Z  " style="fill:rgb(51, 23, 18); fill-opacity:1.000; stroke:none;" />
 <path d="  M 9,11  L 9,10  L 8,10  L 8,11  Z  " style="fill:rgb(51, 23, 18); fill-opacity:1.000; stroke:none;" />
 <path d="  M 9,10  L 10,10  L 10,9  L 9,9  Z  " style="fill:rgb(51, 23, 18); fill-opacity:1.000; stroke:none;" />
 <path d="  M 3,13  L 3,12  L 2,12  L 2,14  L 4,14  L 4,13  Z  " style="fill:rgb(126, 63, 57); fill-opacity:1.000; stroke:none;" />
 <path d="  M 5,8  L 4,8  L 4,9  L 5,9  Z  " style="fill:rgb(126, 63, 57); fill-opacity:1.000; stroke:none;" />
 <path d="  M 6,7  L 5,7  L 5,8  L 6,8  Z  " style="fill:rgb(126, 63, 57); fill-opacity:1.000; stroke:none;" />
 <path d="  M 7,6  L 6,6  L 6,7  L 7,7  Z  " style="fill:rgb(126, 63, 57); fill-opacity:1.000; stroke:none;" />
 <path d="  M 7,9  L 6,9  L 6,10  L 7,10  Z  " style="fill:rgb(126, 63, 57); fill-opacity:1.000; stroke:none;" />
 <path d="  M 7,8  L 7,9  L 8,9  L 8,8  Z  " style="fill:rgb(126, 63, 57); fill-opacity:1.000; stroke:none;" />
 <path d="  M 3,11  L 3,13  L 4,13  L 4,12  L 5,12  L 5,11  Z  " style="fill:rgb(189, 106, 40); fill-opacity:1.000; stroke:none;" />
 <path d="  M 11,9  L 11,8  L 12,8  L 12,7  L 10,7  L 10,8  L 9,8  L 9,9  Z  " style="fill:rgb(189, 106, 40); fill-opacity:1.000; stroke:none;" />
 <path d="  M 11,2  L 13,2  L 13,1  L 11,1  Z  " style="fill:rgb(189, 106, 40); fill-opacity:1.000; stroke:none;" />
 <path d="  M 13,2  L 13,3  L 14,3  L 14,2  Z  " style="fill:rgb(189, 106, 40); fill-opacity:1.000; stroke:none;" />
 <path d="  M 14,4  L 15,4  L 15,3  L 14,3  Z  " style="fill:rgb(189, 106, 40); fill-opacity:1.000; stroke:none;" />
 <path d="  M 5,10  L 5,9  L 4,9  L 4,10  Z  " style="fill:rgb(85, 41, 37); fill-opacity:1.000; stroke:none;" />
 <path d="  M 9,10  L 9,9  L 7,9  L 7,10  L 6,10  L 6,11  L 8,11  L 8,10  Z  " style="fill:rgb(85, 41, 37); fill-opacity:1.000; stroke:none;" />
 <path d="  M 4,11  L 5,11  L 5,10  L 4,10  Z  " style="fill:rgb(160, 86, 17); fill-opacity:1.000; stroke:none;" />
 <path d="  M 4,13  L 5,13  L 5,12  L 4,12  Z  " style="fill:rgb(160, 86, 17); fill-opacity:1.000; stroke:none;" />
 <path d="  M 6,12  L 6,11  L 5,11  L 5,12  Z  " style="fill:rgb(160, 86, 17); fill-opacity:1.000; stroke:none;" />
 <path d="  M 7,6  L 7,5  L 6,5  L 6,6  Z  " style="fill:rgb(160, 86, 17); fill-opacity:1.000; stroke:none;" />
 <path d="  M 7,5  L 8,5  L 8,4  L 7,4  Z  " style="fill:rgb(160, 86, 17); fill-opacity:1.000; stroke:none;" />
 <path d="  M 8,3  L 8,4  L 9,4  L 9,3  Z  " style="fill:rgb(160, 86, 17); fill-opacity:1.000; stroke:none;" />
 <path d="  M 5,10  L 6,10  L 6,9  L 7,9  L 7,7  L 6,7  L 6,8  L 5,8  Z  " style="fill:rgb(168, 95, 88); fill-opacity:1.000; stroke:none;" />
 <path d="  M 8,5  L 7,5  L 7,6  L 8,6  Z  " style="fill:rgb(222, 146, 58); fill-opacity:1.000; stroke:none;" />
 <path d="  M 8,5  L 9,5  L 9,4  L 8,4  Z  " style="fill:rgb(222, 146, 58); fill-opacity:1.000; stroke:none;" />
 <path d="  M 9,8  L 8,8  L 8,9  L 9,9  Z  " style="fill:rgb(222, 146, 58); fill-opacity:1.000; stroke:none;" />
 <path d="  M 10,3  L 10,2  L 9,2  L 9,3  Z  " style="fill:rgb(222, 146, 58); fill-opacity:1.000; stroke:none;" />
 <path d="  M 9,6  L 10,6  L 10,5  L 9,5  Z  " style="fill:rgb(222, 146, 58); fill-opacity:1.000; stroke:none;" />
 <path d="  M 9,7  L 9,8  L 10,8  L 10,7  Z  " style="fill:rgb(222, 146, 58); fill-opacity:1.000; stroke:none;" />
 <path d="  M 10,1  L 10,2  L 11,2  L 11,1  Z  " style="fill:rgb(222, 146, 58); fill-opacity:1.000; stroke:none;" />
 <path d="  M 10,7  L 11,7  L 11,6  L 10,6  Z  " style="fill:rgb(222, 146, 58); fill-opacity:1.000; stroke:none;" />
 <path d="  M 14,6  L 13,6  L 13,7  L 14,7  Z  " style="fill:rgb(222, 146, 58); fill-opacity:1.000; stroke:none;" />
 <path d="  M 15,4  L 14,4  L 14,6  L 15,6  Z  " style="fill:rgb(222, 146, 58); fill-opacity:1.000; stroke:none;" />
 <path d="  M 7,8  L 9,8  L 9,7  L 8,7  L 8,6  L 7,6  Z  " style="fill:rgb(244, 224, 99); fill-opacity:1.000; stroke:none;" />
 <path d="  M 8,5  L 8,6  L 9,6  L 9,5  Z  " style="fill:rgb(244, 224, 99); fill-opacity:1.000; stroke:none;" />
 <path d="  M 9,3  L 9,5  L 10,5  L 10,3  Z  " style="fill:rgb(244, 224, 99); fill-opacity:1.000; stroke:none;" />
 <path d="  M 10,7  L 10,6  L 9,6  L 9,7  Z  " style="fill:rgb(244, 224, 99); fill-opacity:1.000; stroke:none;" />
 <path d="  M 11,5  L 10,5  L 10,6  L 11,6  Z  " style="fill:rgb(244, 224, 99); fill-opacity:1.000; stroke:none;" />
 <path d="  M 11,6  L 11,7  L 13,7  L 13,6  Z  " style="fill:rgb(244, 224, 99); fill-opacity:1.000; stroke:none;" />
 <path d="  M 9,7  L 9,6  L 8,6  L 8,7  Z  " style="fill:rgb(255, 255, 255); fill-opacity:1.000; stroke:none;" />
 <path d="  M 13,3  L 12,3  L 12,4  L 13,4  Z  " style="fill:rgb(255, 255, 255); fill-opacity:1.000; stroke:none;" />
 <path d="  M 11,2  L 10,2  L 10,3  L 11,3  Z  " style="fill:rgb(30, 101, 102); fill-opacity:1.000; stroke:none;" />
 <path d="  M 11,5  L 11,4  L 10,4  L 10,5  Z  " style="fill:rgb(30, 101, 102); fill-opacity:1.000; stroke:none;" />
 <path d="  M 12,5  L 11,5  L 11,6  L 12,6  Z  " style="fill:rgb(30, 101, 102); fill-opacity:1.000; stroke:none;" />
 <path d="  M 13,5  L 13,6  L 14,6  L 14,5  Z  " style="fill:rgb(30, 101, 102); fill-opacity:1.000; stroke:none;" />
 <path d="  M 11,3  L 10,3  L 10,4  L 11,4  Z  " style="fill:rgb(51, 144, 144); fill-opacity:1.000; stroke:none;" />
 <path d="  M 11,2  L 11,3  L 12,3  L 12,2  Z  " style="fill:rgb(51, 144, 144); fill-opacity:1.000; stroke:none;" />
 <path d="  M 11,4  L 11,5  L 12,5  L 12,4  Z  " style="fill:rgb(51, 144, 144); fill-opacity:1.000; stroke:none;" />
 <path d="  M 13,6  L 13,5  L 12,5  L 12,6  Z  " style="fill:rgb(51, 144, 144); fill-opacity:1.000; stroke:none;" />
 <path d="  M 12,4  L 12,3  L 11,3  L 11,4  Z  " style="fill:rgb(104, 189, 189); fill-opacity:1.000; stroke:none;" />
 <path d="  M 12,3  L 13,3  L 13,2  L 12,2  Z  " style="fill:rgb(104, 189, 189); fill-opacity:1.000; stroke:none;" />
 <path d="  M 14,3  L 13,3  L 13,4  L 12,4  L 12,5  L 14,5  Z  " style="fill:rgb(104, 189, 189); fill-opacity:1.000; stroke:none;" />
</svg>
