<?xml version="1.0" encoding="UTF-8" standalone="no"?>
<!DOCTYPE svg PUBLIC "-//W3C//DTD SVG 1.1//EN" 
  "http://www.w3.org/Graphics/SVG/1.1/DTD/svg11.dtd">
<svg width="16" height="16"
	 xmlns="http://www.w3.org/2000/svg" version="1.1">
 <path d="  M 3,4  L 4,4  L 4,2  L 3,2  Z  " style="fill:rgb(46, 95, 81); fill-opacity:1.000; stroke:none;" />
 <path d="  M 3,7  L 4,7  L 4,6  L 3,6  Z  " style="fill:rgb(46, 95, 81); fill-opacity:1.000; stroke:none;" />
 <path d="  M 3,10  L 3,11  L 4,11  L 4,10  Z  " style="fill:rgb(46, 95, 81); fill-opacity:1.000; stroke:none;" />
 <path d="  M 3,15  L 3,16  L 13,16  L 13,15  Z  " style="fill:rgb(46, 95, 81); fill-opacity:1.000; stroke:none;" />
 <path d="  M 4,5  L 4,4  L 3,4  L 3,5  Z  " style="fill:rgb(94, 89, 107); fill-opacity:1.000; stroke:none;" />
 <path d="  M 3,9  L 4,9  L 4,8  L 3,8  Z  " style="fill:rgb(94, 89, 107); fill-opacity:1.000; stroke:none;" />
 <path d="  M 4,12  L 3,12  L 3,13  L 4,13  Z  " style="fill:rgb(94, 89, 107); fill-opacity:1.000; stroke:none;" />
 <path d="  M 3,6  L 4,6  L 4,5  L 3,5  Z  " style="fill:rgb(72, 63, 81); fill-opacity:1.000; stroke:none;" />
 <path d="  M 4,9  L 3,9  L 3,10  L 4,10  Z  " style="fill:rgb(72, 63, 81); fill-opacity:1.000; stroke:none;" />
 <path d="  M 3,14  L 4,14  L 4,13  L 3,13  Z  " style="fill:rgb(72, 63, 81); fill-opacity:1.000; stroke:none;" />
 <path d="  M 5,8  L 5,7  L 3,7  L 3,8  Z  " style="fill:rgb(36, 167, 173); fill-opacity:1.000; stroke:none;" />
 <path d="  M 3,12  L 4,12  L 4,11  L 3,11  Z  " style="fill:rgb(36, 167, 173); fill-opacity:1.000; stroke:none;" />
 <path d="  M 3,15  L 4,15  L 4,14  L 3,14  Z  " style="fill:rgb(36, 167, 173); fill-opacity:1.000; stroke:none;" />
 <path d="  M 6,14  L 6,13  L 4,13  L 4,14  Z  " style="fill:rgb(36, 167, 173); fill-opacity:1.000; stroke:none;" />
 <path d="  M 7,15  L 7,14  L 6,14  L 6,15  Z  " style="fill:rgb(36, 167, 173); fill-opacity:1.000; stroke:none;" />
 <path d="  M 7,3  L 8,3  L 8,2  L 7,2  Z  " style="fill:rgb(36, 167, 173); fill-opacity:1.000; stroke:none;" />
 <path d="  M 7,11  L 8,11  L 8,9  L 7,9  Z  " style="fill:rgb(36, 167, 173); fill-opacity:1.000; stroke:none;" />
 <path d="  M 8,7  L 8,9  L 9,9  L 9,7  Z  " style="fill:rgb(36, 167, 173); fill-opacity:1.000; stroke:none;" />
 <path d="  M 10,9  L 12,9  L 12,8  L 10,8  Z  " style="fill:rgb(36, 167, 173); fill-opacity:1.000; stroke:none;" />
 <path d="  M 13,4  L 11,4  L 11,5  L 12,5  L 12,6  L 13,6  Z  " style="fill:rgb(36, 167, 173); fill-opacity:1.000; stroke:none;" />
 <path d="  M 12,6  L 11,6  L 11,7  L 12,7  Z  " style="fill:rgb(36, 167, 173); fill-opacity:1.000; stroke:none;" />
 <path d="  M 12,11  L 11,11  L 11,12  L 12,12  Z  " style="fill:rgb(36, 167, 173); fill-opacity:1.000; stroke:none;" />
 <path d="  M 11,15  L 13,15  L 13,14  L 11,14  Z  " style="fill:rgb(36, 167, 173); fill-opacity:1.000; stroke:none;" />
 <path d="  M 13,12  L 12,12  L 12,13  L 13,13  Z  " style="fill:rgb(36, 167, 173); fill-opacity:1.000; stroke:none;" />
 <path d="  M 5,3  L 6,3  L 6,2  L 4,2  L 4,4  L 5,4  Z  " style="fill:rgb(58, 142, 140); fill-opacity:1.000; stroke:none;" />
 <path d="  M 5,6  L 6,6  L 6,4  L 5,4  L 5,5  L 4,5  L 4,7  L 5,7  Z  " style="fill:rgb(58, 142, 140); fill-opacity:1.000; stroke:none;" />
 <path d="  M 4,10  L 6,10  L 6,7  L 5,7  L 5,8  L 4,8  Z  " style="fill:rgb(58, 142, 140); fill-opacity:1.000; stroke:none;" />
 <path d="  M 4,13  L 6,13  L 6,11  L 4,11  Z  " style="fill:rgb(58, 142, 140); fill-opacity:1.000; stroke:none;" />
 <path d="  M 6,15  L 6,14  L 4,14  L 4,15  Z  " style="fill:rgb(58, 142, 140); fill-opacity:1.000; stroke:none;" />
 <path d="  M 7,9  L 8,9  L 8,6  L 9,6  L 9,2  L 8,2  L 8,3  L 7,3  Z  " style="fill:rgb(58, 142, 140); fill-opacity:1.000; stroke:none;" />
 <path d="  M 7,14  L 8,14  L 8,13  L 9,13  L 9,9  L 8,9  L 8,11  L 7,11  Z  " style="fill:rgb(58, 142, 140); fill-opacity:1.000; stroke:none;" />
 <path d="  M 8,14  L 8,15  L 9,15  L 9,14  Z  " style="fill:rgb(58, 142, 140); fill-opacity:1.000; stroke:none;" />
 <path d="  M 12,2  L 10,2  L 10,6  L 12,6  L 12,5  L 11,5  L 11,4  L 12,4  Z  " style="fill:rgb(58, 142, 140); fill-opacity:1.000; stroke:none;" />
 <path d="  M 12,8  L 12,7  L 10,7  L 10,8  Z  " style="fill:rgb(58, 142, 140); fill-opacity:1.000; stroke:none;" />
 <path d="  M 10,10  L 10,11  L 12,11  L 12,10  Z  " style="fill:rgb(58, 142, 140); fill-opacity:1.000; stroke:none;" />
 <path d="  M 10,15  L 11,15  L 11,14  L 12,14  L 12,12  L 10,12  Z  " style="fill:rgb(58, 142, 140); fill-opacity:1.000; stroke:none;" />
 <path d="  M 4,4  L 4,5  L 5,5  L 5,4  Z  " style="fill:rgb(34, 181, 158); fill-opacity:1.000; stroke:none;" />
 <path d="  M 4,10  L 4,11  L 6,11  L 6,10  Z  " style="fill:rgb(34, 181, 158); fill-opacity:1.000; stroke:none;" />
 <path d="  M 6,4  L 6,6  L 7,6  L 7,3  L 5,3  L 5,4  Z  " style="fill:rgb(34, 181, 158); fill-opacity:1.000; stroke:none;" />
 <path d="  M 6,7  L 6,6  L 5,6  L 5,7  Z  " style="fill:rgb(34, 181, 158); fill-opacity:1.000; stroke:none;" />
 <path d="  M 7,11  L 6,11  L 6,12  L 7,12  Z  " style="fill:rgb(34, 181, 158); fill-opacity:1.000; stroke:none;" />
 <path d="  M 8,15  L 8,14  L 7,14  L 7,15  Z  " style="fill:rgb(34, 181, 158); fill-opacity:1.000; stroke:none;" />
 <path d="  M 9,7  L 9,6  L 8,6  L 8,7  Z  " style="fill:rgb(34, 181, 158); fill-opacity:1.000; stroke:none;" />
 <path d="  M 8,14  L 9,14  L 9,13  L 8,13  Z  " style="fill:rgb(34, 181, 158); fill-opacity:1.000; stroke:none;" />
 <path d="  M 9,6  L 10,6  L 10,5  L 9,5  Z  " style="fill:rgb(34, 181, 158); fill-opacity:1.000; stroke:none;" />
 <path d="  M 10,12  L 9,12  L 9,13  L 10,13  Z  " style="fill:rgb(34, 181, 158); fill-opacity:1.000; stroke:none;" />
 <path d="  M 10,7  L 11,7  L 11,6  L 10,6  Z  " style="fill:rgb(34, 181, 158); fill-opacity:1.000; stroke:none;" />
 <path d="  M 11,12  L 11,11  L 10,11  L 10,12  Z  " style="fill:rgb(34, 181, 158); fill-opacity:1.000; stroke:none;" />
 <path d="  M 7,2  L 6,2  L 6,3  L 7,3  Z  " style="fill:rgb(40, 112, 103); fill-opacity:1.000; stroke:none;" />
 <path d="  M 6,6  L 6,11  L 7,11  L 7,6  Z  " style="fill:rgb(40, 112, 103); fill-opacity:1.000; stroke:none;" />
 <path d="  M 7,12  L 6,12  L 6,14  L 7,14  Z  " style="fill:rgb(40, 112, 103); fill-opacity:1.000; stroke:none;" />
 <path d="  M 9,2  L 9,5  L 10,5  L 10,2  Z  " style="fill:rgb(40, 112, 103); fill-opacity:1.000; stroke:none;" />
 <path d="  M 9,12  L 10,12  L 10,6  L 9,6  Z  " style="fill:rgb(40, 112, 103); fill-opacity:1.000; stroke:none;" />
 <path d="  M 9,13  L 9,15  L 10,15  L 10,13  Z  " style="fill:rgb(40, 112, 103); fill-opacity:1.000; stroke:none;" />
 <path d="  M 12,4  L 13,4  L 13,2  L 12,2  Z  " style="fill:rgb(40, 112, 103); fill-opacity:1.000; stroke:none;" />
 <path d="  M 12,6  L 12,12  L 13,12  L 13,6  Z  " style="fill:rgb(40, 112, 103); fill-opacity:1.000; stroke:none;" />
 <path d="  M 12,13  L 12,14  L 13,14  L 13,13  Z  " style="fill:rgb(40, 112, 103); fill-opacity:1.000; stroke:none;" />
 <path d="  M 10,9  L 10,10  L 12,10  L 12,9  Z  " style="fill:rgb(17, 56, 53); fill-opacity:1.000; stroke:none;" />
</svg>
