<?xml version="1.0" encoding="UTF-8" standalone="no"?>
<!DOCTYPE svg PUBLIC "-//W3C//DTD SVG 1.1//EN" 
  "http://www.w3.org/Graphics/SVG/1.1/DTD/svg11.dtd">
<svg width="32" height="32"
	 xmlns="http://www.w3.org/2000/svg" version="1.1">
 <path d="  M 4,5  L 5,5  L 5,6  L 6,6  L 6,4  L 5,4  L 5,3  L 6,3  L 6,2  L 4,2  Z  " style="fill:rgb(224, 96, 148); fill-opacity:1.000; stroke:none;" />
 <path d="  M 5,8  L 4,8  L 4,9  L 5,9  Z  " style="fill:rgb(224, 96, 148); fill-opacity:1.000; stroke:none;" />
 <path d="  M 6,7  L 5,7  L 5,8  L 6,8  Z  " style="fill:rgb(224, 96, 148); fill-opacity:1.000; stroke:none;" />
 <path d="  M 7,8  L 7,9  L 5,9  L 5,10  L 8,10  L 8,8  Z  " style="fill:rgb(224, 96, 148); fill-opacity:1.000; stroke:none;" />
 <path d="  M 6,4  L 7,4  L 7,3  L 6,3  Z  " style="fill:rgb(224, 96, 148); fill-opacity:1.000; stroke:none;" />
 <path d="  M 7,5  L 8,5  L 8,4  L 7,4  Z  " style="fill:rgb(224, 96, 148); fill-opacity:1.000; stroke:none;" />
 <path d="  M 7,7  L 8,7  L 8,6  L 7,6  Z  " style="fill:rgb(224, 96, 148); fill-opacity:1.000; stroke:none;" />
 <path d="  M 9,2  L 9,1  L 10,1  L 10,0  L 8,0  L 8,2  Z  " style="fill:rgb(224, 96, 148); fill-opacity:1.000; stroke:none;" />
 <path d="  M 8,3  L 8,4  L 9,4  L 9,3  Z  " style="fill:rgb(224, 96, 148); fill-opacity:1.000; stroke:none;" />
 <path d="  M 10,3  L 10,2  L 9,2  L 9,3  Z  " style="fill:rgb(224, 96, 148); fill-opacity:1.000; stroke:none;" />
 <path d="  M 10,1  L 10,2  L 11,2  L 11,1  Z  " style="fill:rgb(224, 96, 148); fill-opacity:1.000; stroke:none;" />
 <path d="  M 11,3  L 10,3  L 10,4  L 11,4  Z  " style="fill:rgb(224, 96, 148); fill-opacity:1.000; stroke:none;" />
 <path d="  M 22,3  L 22,2  L 21,2  L 21,3  Z  " style="fill:rgb(224, 96, 148); fill-opacity:1.000; stroke:none;" />
 <path d="  M 22,3  L 22,4  L 24,4  L 24,3  Z  " style="fill:rgb(224, 96, 148); fill-opacity:1.000; stroke:none;" />
 <path d="  M 24,2  L 24,0  L 23,0  L 23,2  Z  " style="fill:rgb(224, 96, 148); fill-opacity:1.000; stroke:none;" />
 <path d="  M 25,5  L 25,4  L 24,4  L 24,5  Z  " style="fill:rgb(224, 96, 148); fill-opacity:1.000; stroke:none;" />
 <path d="  M 25,6  L 24,6  L 24,7  L 25,7  Z  " style="fill:rgb(224, 96, 148); fill-opacity:1.000; stroke:none;" />
 <path d="  M 25,9  L 25,8  L 24,8  L 24,10  L 27,10  L 27,9  Z  " style="fill:rgb(224, 96, 148); fill-opacity:1.000; stroke:none;" />
 <path d="  M 26,4  L 26,3  L 25,3  L 25,4  Z  " style="fill:rgb(224, 96, 148); fill-opacity:1.000; stroke:none;" />
 <path d="  M 28,5  L 28,2  L 26,2  L 26,3  L 27,3  L 27,4  L 26,4  L 26,6  L 27,6  L 27,5  Z  " style="fill:rgb(224, 96, 148); fill-opacity:1.000; stroke:none;" />
 <path d="  M 27,7  L 26,7  L 26,8  L 27,8  Z  " style="fill:rgb(224, 96, 148); fill-opacity:1.000; stroke:none;" />
 <path d="  M 28,9  L 28,8  L 27,8  L 27,9  Z  " style="fill:rgb(224, 96, 148); fill-opacity:1.000; stroke:none;" />
 <path d="  M 5,3  L 5,4  L 6,4  L 6,3  Z  " style="fill:rgb(242, 112, 147); fill-opacity:1.000; stroke:none;" />
 <path d="  M 7,8  L 5,8  L 5,9  L 7,9  Z  " style="fill:rgb(242, 112, 147); fill-opacity:1.000; stroke:none;" />
 <path d="  M 6,4  L 6,6  L 8,6  L 8,5  L 7,5  L 7,4  Z  " style="fill:rgb(242, 112, 147); fill-opacity:1.000; stroke:none;" />
 <path d="  M 9,2  L 8,2  L 8,3  L 9,3  Z  " style="fill:rgb(242, 112, 147); fill-opacity:1.000; stroke:none;" />
 <path d="  M 9,2  L 10,2  L 10,1  L 9,1  Z  " style="fill:rgb(242, 112, 147); fill-opacity:1.000; stroke:none;" />
 <path d="  M 9,4  L 10,4  L 10,3  L 9,3  Z  " style="fill:rgb(242, 112, 147); fill-opacity:1.000; stroke:none;" />
 <path d="  M 11,2  L 10,2  L 10,3  L 11,3  Z  " style="fill:rgb(242, 112, 147); fill-opacity:1.000; stroke:none;" />
 <path d="  M 22,3  L 21,3  L 21,4  L 22,4  Z  " style="fill:rgb(242, 112, 147); fill-opacity:1.000; stroke:none;" />
 <path d="  M 23,2  L 23,1  L 22,1  L 22,3  L 24,3  L 24,2  Z  " style="fill:rgb(242, 112, 147); fill-opacity:1.000; stroke:none;" />
 <path d="  M 26,6  L 26,4  L 25,4  L 25,5  L 24,5  L 24,6  Z  " style="fill:rgb(242, 112, 147); fill-opacity:1.000; stroke:none;" />
 <path d="  M 25,9  L 27,9  L 27,8  L 25,8  Z  " style="fill:rgb(242, 112, 147); fill-opacity:1.000; stroke:none;" />
 <path d="  M 26,3  L 26,4  L 27,4  L 27,3  Z  " style="fill:rgb(242, 112, 147); fill-opacity:1.000; stroke:none;" />
 <path d="  M 5,10  L 5,20  L 6,20  L 6,12  L 7,12  L 7,11  L 6,11  L 6,10  Z  " style="fill:rgb(53, 53, 53); fill-opacity:1.000; stroke:none;" />
 <path d="  M 7,20  L 6,20  L 6,25  L 7,25  Z  " style="fill:rgb(53, 53, 53); fill-opacity:1.000; stroke:none;" />
 <path d="  M 7,12  L 7,13  L 9,13  L 9,12  Z  " style="fill:rgb(53, 53, 53); fill-opacity:1.000; stroke:none;" />
 <path d="  M 8,28  L 8,25  L 7,25  L 7,28  Z  " style="fill:rgb(53, 53, 53); fill-opacity:1.000; stroke:none;" />
 <path d="  M 8,28  L 8,29  L 10,29  L 10,28  Z  " style="fill:rgb(53, 53, 53); fill-opacity:1.000; stroke:none;" />
 <path d="  M 10,13  L 9,13  L 9,14  L 10,14  Z  " style="fill:rgb(53, 53, 53); fill-opacity:1.000; stroke:none;" />
 <path d="  M 12,30  L 12,29  L 10,29  L 10,30  Z  " style="fill:rgb(53, 53, 53); fill-opacity:1.000; stroke:none;" />
 <path d="  M 13,15  L 13,14  L 12,14  L 12,15  Z  " style="fill:rgb(53, 53, 53); fill-opacity:1.000; stroke:none;" />
 <path d="  M 20,31  L 20,30  L 12,30  L 12,31  Z  " style="fill:rgb(53, 53, 53); fill-opacity:1.000; stroke:none;" />
 <path d="  M 20,29  L 20,30  L 22,30  L 22,29  Z  " style="fill:rgb(53, 53, 53); fill-opacity:1.000; stroke:none;" />
 <path d="  M 23,13  L 22,13  L 22,14  L 23,14  Z  " style="fill:rgb(53, 53, 53); fill-opacity:1.000; stroke:none;" />
 <path d="  M 24,29  L 24,28  L 22,28  L 22,29  Z  " style="fill:rgb(53, 53, 53); fill-opacity:1.000; stroke:none;" />
 <path d="  M 25,13  L 25,12  L 23,12  L 23,13  Z  " style="fill:rgb(53, 53, 53); fill-opacity:1.000; stroke:none;" />
 <path d="  M 24,28  L 25,28  L 25,25  L 24,25  Z  " style="fill:rgb(53, 53, 53); fill-opacity:1.000; stroke:none;" />
 <path d="  M 27,10  L 26,10  L 26,11  L 25,11  L 25,12  L 26,12  L 26,21  L 27,21  Z  " style="fill:rgb(53, 53, 53); fill-opacity:1.000; stroke:none;" />
 <path d="  M 26,25  L 26,21  L 25,21  L 25,25  Z  " style="fill:rgb(53, 53, 53); fill-opacity:1.000; stroke:none;" />
 <path d="  M 6,6  L 6,8  L 8,8  L 8,7  L 7,7  L 7,6  Z  " style="fill:rgb(214, 78, 137); fill-opacity:1.000; stroke:none;" />
 <path d="  M 12,2  L 11,2  L 11,4  L 12,4  Z  " style="fill:rgb(214, 78, 137); fill-opacity:1.000; stroke:none;" />
 <path d="  M 20,2  L 20,4  L 21,4  L 21,2  Z  " style="fill:rgb(214, 78, 137); fill-opacity:1.000; stroke:none;" />
 <path d="  M 22,2  L 22,1  L 21,1  L 21,2  Z  " style="fill:rgb(214, 78, 137); fill-opacity:1.000; stroke:none;" />
 <path d="  M 22,0  L 22,1  L 23,1  L 23,0  Z  " style="fill:rgb(214, 78, 137); fill-opacity:1.000; stroke:none;" />
 <path d="  M 26,6  L 25,6  L 25,7  L 24,7  L 24,8  L 26,8  Z  " style="fill:rgb(214, 78, 137); fill-opacity:1.000; stroke:none;" />
 <path d="  M 6,11  L 7,11  L 7,10  L 6,10  Z  " style="fill:rgb(95, 95, 95); fill-opacity:1.000; stroke:none;" />
 <path d="  M 25,10  L 25,11  L 26,11  L 26,10  Z  " style="fill:rgb(95, 95, 95); fill-opacity:1.000; stroke:none;" />
 <path d="  M 7,12  L 6,12  L 6,17  L 7,17  Z  " style="fill:rgb(168, 168, 168); fill-opacity:1.000; stroke:none;" />
 <path d="  M 7,23  L 8,23  L 8,20  L 7,20  Z  " style="fill:rgb(168, 168, 168); fill-opacity:1.000; stroke:none;" />
 <path d="  M 8,14  L 9,14  L 9,13  L 8,13  Z  " style="fill:rgb(168, 168, 168); fill-opacity:1.000; stroke:none;" />
 <path d="  M 8,25  L 8,27  L 9,27  L 9,25  Z  " style="fill:rgb(168, 168, 168); fill-opacity:1.000; stroke:none;" />
 <path d="  M 10,27  L 9,27  L 9,28  L 10,28  Z  " style="fill:rgb(168, 168, 168); fill-opacity:1.000; stroke:none;" />
 <path d="  M 11,29  L 11,28  L 10,28  L 10,29  Z  " style="fill:rgb(168, 168, 168); fill-opacity:1.000; stroke:none;" />
 <path d="  M 17,18  L 17,20  L 16,20  L 16,17  L 15,17  L 15,29  L 12,29  L 12,30  L 16,30  L 16,29  L 17,29  L 17,25  L 18,25  L 18,18  Z  M 16,21  L 17,21  L 17,22  L 16,22  Z  " style="fill:rgb(168, 168, 168); fill-opacity:1.000; stroke:none;" />
 <path d="  M 25,21  L 26,21  L 26,18  L 25,18  Z  " style="fill:rgb(168, 168, 168); fill-opacity:1.000; stroke:none;" />
 <path d="  M 7,20  L 7,17  L 6,17  L 6,20  Z  " style="fill:rgb(114, 114, 114); fill-opacity:1.000; stroke:none;" />
 <path d="  M 7,25  L 8,25  L 8,23  L 7,23  Z  " style="fill:rgb(114, 114, 114); fill-opacity:1.000; stroke:none;" />
 <path d="  M 8,27  L 8,28  L 9,28  L 9,27  Z  " style="fill:rgb(114, 114, 114); fill-opacity:1.000; stroke:none;" />
 <path d="  M 20,29  L 19,29  L 19,30  L 20,30  Z  " style="fill:rgb(114, 114, 114); fill-opacity:1.000; stroke:none;" />
 <path d="  M 20,29  L 22,29  L 22,27  L 23,27  L 23,25  L 24,25  L 24,21  L 25,21  L 25,13  L 23,13  L 23,14  L 22,14  L 22,16  L 23,16  L 23,17  L 24,17  L 24,19  L 23,19  L 23,18  L 22,18  L 22,19  L 21,19  L 21,20  L 20,20  Z  " style="fill:rgb(114, 114, 114); fill-opacity:1.000; stroke:none;" />
 <path d="  M 23,28  L 24,28  L 24,27  L 23,27  Z  " style="fill:rgb(114, 114, 114); fill-opacity:1.000; stroke:none;" />
 <path d="  M 7,12  L 8,12  L 8,10  L 7,10  Z  " style="fill:rgb(35, 79, 204); fill-opacity:1.000; stroke:none;" />
 <path d="  M 10,12  L 9,12  L 9,13  L 10,13  Z  " style="fill:rgb(35, 79, 204); fill-opacity:1.000; stroke:none;" />
 <path d="  M 12,13  L 12,14  L 17,14  L 17,13  Z  " style="fill:rgb(35, 79, 204); fill-opacity:1.000; stroke:none;" />
 <path d="  M 17,15  L 17,17  L 18,17  L 18,15  Z  " style="fill:rgb(35, 79, 204); fill-opacity:1.000; stroke:none;" />
 <path d="  M 18,13  L 18,14  L 20,14  L 20,13  Z  " style="fill:rgb(35, 79, 204); fill-opacity:1.000; stroke:none;" />
 <path d="  M 25,10  L 24,10  L 24,12  L 25,12  Z  " style="fill:rgb(35, 79, 204); fill-opacity:1.000; stroke:none;" />
 <path d="  M 15,29  L 15,16  L 14,16  L 14,15  L 12,15  L 12,16  L 13,16  L 13,17  L 14,17  L 14,19  L 13,19  L 13,18  L 12,18  L 12,25  L 11,25  L 11,22  L 10,22  L 10,18  L 9,18  L 9,19  L 8,19  L 8,17  L 9,17  L 9,16  L 10,16  L 10,14  L 8,14  L 8,13  L 7,13  L 7,20  L 8,20  L 8,25  L 9,25  L 9,27  L 10,27  L 10,28  L 11,28  L 11,29  Z  " style="fill:rgb(216, 216, 216); fill-opacity:1.000; stroke:none;" />
 <path d="  M 8,6  L 9,6  L 9,5  L 10,5  L 10,4  L 8,4  Z  " style="fill:rgb(252, 200, 231); fill-opacity:1.000; stroke:none;" />
 <path d="  M 10,10  L 10,11  L 22,11  L 22,10  L 24,10  L 24,8  L 23,8  L 23,9  L 21,9  L 21,10  L 11,10  L 11,9  L 9,9  L 9,8  L 8,8  L 8,10  Z  " style="fill:rgb(252, 200, 231); fill-opacity:1.000; stroke:none;" />
 <path d="  M 11,17  L 11,16  L 10,16  L 10,18  L 12,18  L 12,17  Z  " style="fill:rgb(252, 200, 231); fill-opacity:1.000; stroke:none;" />
 <path d="  M 17,7  L 15,7  L 15,8  L 17,8  Z  " style="fill:rgb(252, 200, 231); fill-opacity:1.000; stroke:none;" />
 <path d="  M 20,16  L 20,18  L 22,18  L 22,17  L 21,17  L 21,16  Z  " style="fill:rgb(252, 200, 231); fill-opacity:1.000; stroke:none;" />
 <path d="  M 24,6  L 24,4  L 22,4  L 22,5  L 23,5  L 23,6  Z  " style="fill:rgb(252, 200, 231); fill-opacity:1.000; stroke:none;" />
 <path d="  M 8,8  L 10,8  L 10,6  L 8,6  Z  " style="fill:rgb(58, 0, 108); fill-opacity:1.000; stroke:none;" />
 <path d="  M 24,6  L 22,6  L 22,8  L 24,8  Z  " style="fill:rgb(58, 0, 108); fill-opacity:1.000; stroke:none;" />
 <path d="  M 24,12  L 24,10  L 22,10  L 22,11  L 10,11  L 10,10  L 8,10  L 8,12  Z  " style="fill:rgb(233, 142, 213); fill-opacity:1.000; stroke:none;" />
 <path d="  M 10,13  L 10,16  L 11,16  L 11,13  Z  " style="fill:rgb(233, 142, 213); fill-opacity:1.000; stroke:none;" />
 <path d="  M 12,17  L 12,16  L 11,16  L 11,17  Z  " style="fill:rgb(233, 142, 213); fill-opacity:1.000; stroke:none;" />
 <path d="  M 20,16  L 21,16  L 21,13  L 20,13  Z  " style="fill:rgb(233, 142, 213); fill-opacity:1.000; stroke:none;" />
 <path d="  M 21,16  L 21,17  L 22,17  L 22,16  Z  " style="fill:rgb(233, 142, 213); fill-opacity:1.000; stroke:none;" />
 <path d="  M 10,18  L 10,16  L 9,16  L 9,17  L 8,17  L 8,19  L 9,19  L 9,18  Z  " style="fill:rgb(209, 54, 116); fill-opacity:1.000; stroke:none;" />
 <path d="  M 12,18  L 10,18  L 10,19  L 11,19  L 11,20  L 12,20  Z  " style="fill:rgb(209, 54, 116); fill-opacity:1.000; stroke:none;" />
 <path d="  M 13,17  L 13,16  L 12,16  L 12,18  L 13,18  L 13,19  L 14,19  L 14,17  Z  " style="fill:rgb(209, 54, 116); fill-opacity:1.000; stroke:none;" />
 <path d="  M 19,19  L 19,18  L 20,18  L 20,16  L 19,16  L 19,17  L 18,17  L 18,19  Z  " style="fill:rgb(209, 54, 116); fill-opacity:1.000; stroke:none;" />
 <path d="  M 20,18  L 20,20  L 21,20  L 21,19  L 22,19  L 22,18  Z  " style="fill:rgb(209, 54, 116); fill-opacity:1.000; stroke:none;" />
 <path d="  M 23,17  L 23,16  L 22,16  L 22,18  L 23,18  L 23,19  L 24,19  L 24,17  Z  " style="fill:rgb(209, 54, 116); fill-opacity:1.000; stroke:none;" />
 <path d="  M 10,4  L 10,5  L 9,5  L 9,6  L 10,6  L 10,8  L 9,8  L 9,9  L 11,9  L 11,10  L 21,10  L 21,9  L 23,9  L 23,8  L 22,8  L 22,6  L 23,6  L 23,5  L 22,5  L 22,4  Z  M 17,7  L 17,8  L 15,8  L 15,7  Z  " style="fill:rgb(255, 226, 243); fill-opacity:1.000; stroke:none;" />
 <path d="  M 11,16  L 12,16  L 12,12  L 10,12  L 10,13  L 11,13  Z  " style="fill:rgb(177, 87, 158); fill-opacity:1.000; stroke:none;" />
 <path d="  M 19,13  L 19,12  L 13,12  L 13,13  Z  " style="fill:rgb(177, 87, 158); fill-opacity:1.000; stroke:none;" />
 <path d="  M 20,13  L 21,13  L 21,16  L 22,16  L 22,12  L 20,12  Z  " style="fill:rgb(177, 87, 158); fill-opacity:1.000; stroke:none;" />
 <path d="  M 10,22  L 11,22  L 11,25  L 12,25  L 12,20  L 11,20  L 11,19  L 10,19  Z  " style="fill:rgb(255, 255, 255); fill-opacity:1.000; stroke:none;" />
 <path d="  M 13,12  L 12,12  L 12,13  L 13,13  Z  " style="fill:rgb(90, 130, 243); fill-opacity:1.000; stroke:none;" />
 <path d="  M 13,15  L 15,15  L 15,16  L 16,16  L 16,15  L 20,15  L 20,14  L 13,14  Z  " style="fill:rgb(90, 130, 243); fill-opacity:1.000; stroke:none;" />
 <path d="  M 14,16  L 15,16  L 15,15  L 14,15  Z  " style="fill:rgb(52, 95, 218); fill-opacity:1.000; stroke:none;" />
 <path d="  M 16,17  L 16,16  L 15,16  L 15,17  Z  " style="fill:rgb(52, 95, 218); fill-opacity:1.000; stroke:none;" />
 <path d="  M 17,15  L 16,15  L 16,16  L 17,16  Z  " style="fill:rgb(52, 95, 218); fill-opacity:1.000; stroke:none;" />
 <path d="  M 17,19  L 17,17  L 16,17  L 16,19  Z  " style="fill:rgb(52, 95, 218); fill-opacity:1.000; stroke:none;" />
 <path d="  M 18,13  L 17,13  L 17,14  L 18,14  Z  " style="fill:rgb(52, 95, 218); fill-opacity:1.000; stroke:none;" />
 <path d="  M 19,16  L 19,15  L 18,15  L 18,16  Z  " style="fill:rgb(52, 95, 218); fill-opacity:1.000; stroke:none;" />
 <path d="  M 23,13  L 23,12  L 22,12  L 22,13  Z  " style="fill:rgb(52, 95, 218); fill-opacity:1.000; stroke:none;" />
 <path d="  M 16,17  L 17,17  L 17,16  L 16,16  Z  " style="fill:rgb(46, 88, 211); fill-opacity:1.000; stroke:none;" />
 <path d="  M 16,19  L 16,20  L 17,20  L 17,19  Z  " style="fill:rgb(46, 88, 211); fill-opacity:1.000; stroke:none;" />
 <path d="  M 17,22  L 17,21  L 16,21  L 16,22  Z  " style="fill:rgb(46, 88, 211); fill-opacity:1.000; stroke:none;" />
 <path d="  M 17,18  L 18,18  L 18,17  L 17,17  Z  " style="fill:rgb(46, 88, 211); fill-opacity:1.000; stroke:none;" />
 <path d="  M 17,29  L 16,29  L 16,30  L 19,30  L 19,29  L 20,29  L 20,18  L 19,18  L 19,19  L 18,19  L 18,25  L 17,25  Z  " style="fill:rgb(150, 150, 150); fill-opacity:1.000; stroke:none;" />
 <path d="  M 19,16  L 18,16  L 18,17  L 19,17  Z  " style="fill:rgb(150, 150, 150); fill-opacity:1.000; stroke:none;" />
 <path d="  M 19,15  L 19,16  L 20,16  L 20,15  Z  " style="fill:rgb(150, 150, 150); fill-opacity:1.000; stroke:none;" />
 <path d="  M 23,27  L 22,27  L 22,28  L 23,28  Z  " style="fill:rgb(150, 150, 150); fill-opacity:1.000; stroke:none;" />
 <path d="  M 24,25  L 23,25  L 23,27  L 24,27  Z  " style="fill:rgb(150, 150, 150); fill-opacity:1.000; stroke:none;" />
 <path d="  M 25,21  L 24,21  L 24,25  L 25,25  Z  " style="fill:rgb(150, 150, 150); fill-opacity:1.000; stroke:none;" />
 <path d="  M 25,12  L 25,18  L 26,18  L 26,12  Z  " style="fill:rgb(150, 150, 150); fill-opacity:1.000; stroke:none;" />
 <path d="  M 20,12  L 19,12  L 19,13  L 20,13  Z  " style="fill:rgb(68, 111, 233); fill-opacity:1.000; stroke:none;" />
</svg>
