<?xml version="1.0" encoding="UTF-8" standalone="no"?>
<!DOCTYPE svg PUBLIC "-//W3C//DTD SVG 1.1//EN" 
  "http://www.w3.org/Graphics/SVG/1.1/DTD/svg11.dtd">
<svg width="32" height="32"
	 xmlns="http://www.w3.org/2000/svg" version="1.1">
 <path d="  M 5,6  L 5,7  L 8,7  L 8,6  Z  " style="fill:rgb(95, 53, 35); fill-opacity:1.000; stroke:none;" />
 <path d="  M 14,7  L 14,6  L 11,6  L 11,7  Z  " style="fill:rgb(95, 53, 35); fill-opacity:1.000; stroke:none;" />
 <path d="  M 19,6  L 19,7  L 22,7  L 22,6  Z  " style="fill:rgb(95, 53, 35); fill-opacity:1.000; stroke:none;" />
 <path d="  M 23,7  L 24,7  L 24,6  L 23,6  Z  " style="fill:rgb(95, 53, 35); fill-opacity:1.000; stroke:none;" />
 <path d="  M 25,6  L 25,7  L 27,7  L 27,6  Z  " style="fill:rgb(95, 53, 35); fill-opacity:1.000; stroke:none;" />
 <path d="  M 6,7  L 5,7  L 5,8  L 6,8  Z  " style="fill:rgb(64, 33, 20); fill-opacity:1.000; stroke:none;" />
 <path d="  M 8,7  L 8,8  L 15,8  L 15,7  Z  " style="fill:rgb(64, 33, 20); fill-opacity:1.000; stroke:none;" />
 <path d="  M 20,7  L 16,7  L 16,8  L 20,8  Z  " style="fill:rgb(64, 33, 20); fill-opacity:1.000; stroke:none;" />
 <path d="  M 25,8  L 25,7  L 23,7  L 23,8  Z  " style="fill:rgb(64, 33, 20); fill-opacity:1.000; stroke:none;" />
 <path d="  M 27,9  L 27,7  L 25,7  L 25,8  L 23,8  L 23,7  L 20,7  L 20,8  L 16,8  L 16,7  L 15,7  L 15,8  L 8,8  L 8,7  L 6,7  L 6,8  L 5,8  L 5,9  Z  " style="fill:rgb(51, 25, 14); fill-opacity:1.000; stroke:none;" />
 <path d="  M 8,25  L 8,24  L 7,24  L 7,25  Z  " style="fill:rgb(180, 101, 42); fill-opacity:1.000; stroke:none;" />
 <path d="  M 9,11  L 10,11  L 10,10  L 9,10  Z  " style="fill:rgb(180, 101, 42); fill-opacity:1.000; stroke:none;" />
 <path d="  M 10,21  L 10,20  L 9,20  L 9,21  Z  " style="fill:rgb(180, 101, 42); fill-opacity:1.000; stroke:none;" />
 <path d="  M 9,23  L 10,23  L 10,22  L 9,22  Z  " style="fill:rgb(180, 101, 42); fill-opacity:1.000; stroke:none;" />
 <path d="  M 10,9  L 10,10  L 11,10  L 11,9  Z  " style="fill:rgb(180, 101, 42); fill-opacity:1.000; stroke:none;" />
 <path d="  M 21,9  L 21,10  L 22,10  L 22,9  Z  " style="fill:rgb(180, 101, 42); fill-opacity:1.000; stroke:none;" />
 <path d="  M 23,23  L 23,24  L 24,24  L 24,23  Z  " style="fill:rgb(180, 101, 42); fill-opacity:1.000; stroke:none;" />
 <path d="  M 24,25  L 25,25  L 25,24  L 24,24  Z  " style="fill:rgb(180, 101, 42); fill-opacity:1.000; stroke:none;" />
 <path d="  M 7,26  L 8,26  L 8,25  L 7,25  Z  " style="fill:rgb(156, 79, 22); fill-opacity:1.000; stroke:none;" />
 <path d="  M 24,27  L 24,26  L 8,26  L 8,27  Z  " style="fill:rgb(156, 79, 22); fill-opacity:1.000; stroke:none;" />
 <path d="  M 22,23  L 23,23  L 23,10  L 22,10  Z  " style="fill:rgb(156, 79, 22); fill-opacity:1.000; stroke:none;" />
 <path d="  M 25,26  L 25,25  L 24,25  L 24,26  Z  " style="fill:rgb(156, 79, 22); fill-opacity:1.000; stroke:none;" />
 <path d="  M 8,6  L 8,7  L 11,7  L 11,6  Z  " style="fill:rgb(131, 91, 74); fill-opacity:1.000; stroke:none;" />
 <path d="  M 19,7  L 19,6  L 14,6  L 14,7  Z  " style="fill:rgb(131, 91, 74); fill-opacity:1.000; stroke:none;" />
 <path d="  M 23,7  L 23,6  L 22,6  L 22,7  Z  " style="fill:rgb(131, 91, 74); fill-opacity:1.000; stroke:none;" />
 <path d="  M 25,6  L 24,6  L 24,7  L 25,7  Z  " style="fill:rgb(131, 91, 74); fill-opacity:1.000; stroke:none;" />
 <path d="  M 9,24  L 9,23  L 8,23  L 8,24  Z  " style="fill:rgb(211, 150, 50); fill-opacity:1.000; stroke:none;" />
 <path d="  M 10,11  L 9,11  L 9,20  L 10,20  Z  " style="fill:rgb(211, 150, 50); fill-opacity:1.000; stroke:none;" />
 <path d="  M 10,21  L 9,21  L 9,22  L 10,22  Z  " style="fill:rgb(211, 150, 50); fill-opacity:1.000; stroke:none;" />
 <path d="  M 10,22  L 10,23  L 11,23  L 11,22  Z  " style="fill:rgb(211, 150, 50); fill-opacity:1.000; stroke:none;" />
 <path d="  M 11,9  L 11,10  L 21,10  L 21,9  Z  " style="fill:rgb(211, 150, 50); fill-opacity:1.000; stroke:none;" />
 <path d="  M 22,22  L 21,22  L 21,23  L 22,23  Z  " style="fill:rgb(211, 150, 50); fill-opacity:1.000; stroke:none;" />
 <path d="  M 24,25  L 24,24  L 8,24  L 8,25  Z  " style="fill:rgb(255, 236, 79); fill-opacity:1.000; stroke:none;" />
 <path d="  M 12,11  L 11,11  L 11,12  L 12,12  Z  " style="fill:rgb(255, 236, 79); fill-opacity:1.000; stroke:none;" />
 <path d="  M 20,10  L 12,10  L 12,11  L 16,11  L 16,21  L 21,21  L 21,11  L 20,11  Z  " style="fill:rgb(255, 236, 79); fill-opacity:1.000; stroke:none;" />
 <path d="  M 8,25  L 8,26  L 24,26  L 24,25  Z  " style="fill:rgb(254, 214, 57); fill-opacity:1.000; stroke:none;" />
 <path d="  M 11,11  L 10,11  L 10,21  L 11,21  Z  " style="fill:rgb(254, 214, 57); fill-opacity:1.000; stroke:none;" />
 <path d="  M 12,10  L 11,10  L 11,11  L 12,11  Z  " style="fill:rgb(254, 214, 57); fill-opacity:1.000; stroke:none;" />
 <path d="  M 11,22  L 11,23  L 21,23  L 21,22  Z  " style="fill:rgb(254, 214, 57); fill-opacity:1.000; stroke:none;" />
 <path d="  M 21,10  L 20,10  L 20,11  L 21,11  Z  " style="fill:rgb(254, 214, 57); fill-opacity:1.000; stroke:none;" />
 <path d="  M 22,11  L 21,11  L 21,21  L 22,21  Z  " style="fill:rgb(254, 214, 57); fill-opacity:1.000; stroke:none;" />
 <path d="  M 11,23  L 9,23  L 9,24  L 11,24  Z  " style="fill:rgb(255, 246, 141); fill-opacity:1.000; stroke:none;" />
 <path d="  M 11,22  L 11,21  L 10,21  L 10,22  Z  " style="fill:rgb(255, 246, 141); fill-opacity:1.000; stroke:none;" />
 <path d="  M 11,21  L 16,21  L 16,11  L 12,11  L 12,12  L 11,12  Z  " style="fill:rgb(255, 246, 141); fill-opacity:1.000; stroke:none;" />
 <path d="  M 22,22  L 22,21  L 16,21  L 16,22  Z  " style="fill:rgb(255, 246, 141); fill-opacity:1.000; stroke:none;" />
 <path d="  M 23,24  L 23,23  L 17,23  L 17,24  Z  " style="fill:rgb(255, 246, 141); fill-opacity:1.000; stroke:none;" />
 <path d="  M 10,10  L 10,11  L 11,11  L 11,10  Z  " style="fill:rgb(245, 204, 39); fill-opacity:1.000; stroke:none;" />
 <path d="  M 22,11  L 22,10  L 21,10  L 21,11  Z  " style="fill:rgb(245, 204, 39); fill-opacity:1.000; stroke:none;" />
 <path d="  M 16,22  L 16,21  L 11,21  L 11,22  Z  " style="fill:rgb(254, 255, 189); fill-opacity:1.000; stroke:none;" />
 <path d="  M 11,23  L 11,24  L 17,24  L 17,23  Z  " style="fill:rgb(254, 255, 189); fill-opacity:1.000; stroke:none;" />
</svg>
