<?xml version="1.0" encoding="UTF-8" standalone="no"?>
<!DOCTYPE svg PUBLIC "-//W3C//DTD SVG 1.1//EN" 
  "http://www.w3.org/Graphics/SVG/1.1/DTD/svg11.dtd">
<svg width="32" height="32"
	 xmlns="http://www.w3.org/2000/svg" version="1.1">
 <path d="  M 3,16  L 2,16  L 2,22  L 3,22  Z  " style="fill:rgb(149, 51, 0); fill-opacity:1.000; stroke:none;" />
 <path d="  M 3,16  L 4,16  L 4,14  L 3,14  Z  " style="fill:rgb(149, 51, 0); fill-opacity:1.000; stroke:none;" />
 <path d="  M 4,22  L 3,22  L 3,24  L 4,24  Z  " style="fill:rgb(149, 51, 0); fill-opacity:1.000; stroke:none;" />
 <path d="  M 5,13  L 4,13  L 4,14  L 5,14  Z  " style="fill:rgb(149, 51, 0); fill-opacity:1.000; stroke:none;" />
 <path d="  M 4,25  L 5,25  L 5,24  L 4,24  Z  " style="fill:rgb(149, 51, 0); fill-opacity:1.000; stroke:none;" />
 <path d="  M 5,8  L 5,9  L 6,9  L 6,8  Z  " style="fill:rgb(149, 51, 0); fill-opacity:1.000; stroke:none;" />
 <path d="  M 5,12  L 5,13  L 6,13  L 6,12  Z  " style="fill:rgb(149, 51, 0); fill-opacity:1.000; stroke:none;" />
 <path d="  M 5,25  L 5,26  L 7,26  L 7,25  Z  " style="fill:rgb(149, 51, 0); fill-opacity:1.000; stroke:none;" />
 <path d="  M 6,7  L 6,8  L 7,8  L 7,7  Z  " style="fill:rgb(149, 51, 0); fill-opacity:1.000; stroke:none;" />
 <path d="  M 7,9  L 6,9  L 6,10  L 7,10  Z  " style="fill:rgb(149, 51, 0); fill-opacity:1.000; stroke:none;" />
 <path d="  M 6,11  L 6,12  L 7,12  L 7,13  L 8,13  L 8,11  Z  " style="fill:rgb(149, 51, 0); fill-opacity:1.000; stroke:none;" />
 <path d="  M 6,13  L 6,16  L 7,16  L 7,13  Z  " style="fill:rgb(149, 51, 0); fill-opacity:1.000; stroke:none;" />
 <path d="  M 7,8  L 7,9  L 8,9  L 8,8  Z  " style="fill:rgb(149, 51, 0); fill-opacity:1.000; stroke:none;" />
 <path d="  M 8,16  L 7,16  L 7,18  L 8,18  Z  " style="fill:rgb(149, 51, 0); fill-opacity:1.000; stroke:none;" />
 <path d="  M 7,26  L 7,27  L 10,27  L 10,26  Z  " style="fill:rgb(149, 51, 0); fill-opacity:1.000; stroke:none;" />
 <path d="  M 9,11  L 9,10  L 8,10  L 8,11  Z  " style="fill:rgb(149, 51, 0); fill-opacity:1.000; stroke:none;" />
 <path d="  M 9,19  L 9,18  L 8,18  L 8,20  L 11,20  L 11,19  Z  " style="fill:rgb(149, 51, 0); fill-opacity:1.000; stroke:none;" />
 <path d="  M 11,17  L 11,16  L 10,16  L 10,17  Z  " style="fill:rgb(149, 51, 0); fill-opacity:1.000; stroke:none;" />
 <path d="  M 10,25  L 10,26  L 12,26  L 12,25  Z  " style="fill:rgb(149, 51, 0); fill-opacity:1.000; stroke:none;" />
 <path d="  M 11,4  L 11,5  L 12,5  L 12,4  Z  " style="fill:rgb(149, 51, 0); fill-opacity:1.000; stroke:none;" />
 <path d="  M 12,10  L 11,10  L 11,11  L 12,11  Z  " style="fill:rgb(149, 51, 0); fill-opacity:1.000; stroke:none;" />
 <path d="  M 11,17  L 11,19  L 12,19  L 12,18  L 13,18  L 13,17  Z  " style="fill:rgb(149, 51, 0); fill-opacity:1.000; stroke:none;" />
 <path d="  M 13,3  L 12,3  L 12,4  L 13,4  Z  " style="fill:rgb(149, 51, 0); fill-opacity:1.000; stroke:none;" />
 <path d="  M 13,6  L 13,5  L 12,5  L 12,6  Z  " style="fill:rgb(149, 51, 0); fill-opacity:1.000; stroke:none;" />
 <path d="  M 13,9  L 12,9  L 12,10  L 13,10  Z  " style="fill:rgb(149, 51, 0); fill-opacity:1.000; stroke:none;" />
 <path d="  M 13,11  L 12,11  L 12,12  L 13,12  Z  " style="fill:rgb(149, 51, 0); fill-opacity:1.000; stroke:none;" />
 <path d="  M 12,27  L 13,27  L 13,26  L 12,26  Z  " style="fill:rgb(149, 51, 0); fill-opacity:1.000; stroke:none;" />
 <path d="  M 13,4  L 13,5  L 14,5  L 14,4  Z  " style="fill:rgb(149, 51, 0); fill-opacity:1.000; stroke:none;" />
 <path d="  M 13,10  L 13,11  L 14,11  L 14,10  Z  " style="fill:rgb(149, 51, 0); fill-opacity:1.000; stroke:none;" />
 <path d="  M 13,15  L 13,16  L 14,16  L 14,15  Z  " style="fill:rgb(149, 51, 0); fill-opacity:1.000; stroke:none;" />
 <path d="  M 14,18  L 13,18  L 13,19  L 15,19  L 15,17  L 16,17  L 16,16  L 14,16  Z  " style="fill:rgb(149, 51, 0); fill-opacity:1.000; stroke:none;" />
 <path d="  M 13,27  L 13,28  L 14,28  L 14,27  Z  " style="fill:rgb(149, 51, 0); fill-opacity:1.000; stroke:none;" />
 <path d="  M 15,11  L 14,11  L 14,12  L 15,12  Z  " style="fill:rgb(149, 51, 0); fill-opacity:1.000; stroke:none;" />
 <path d="  M 16,29  L 16,28  L 14,28  L 14,29  Z  " style="fill:rgb(149, 51, 0); fill-opacity:1.000; stroke:none;" />
 <path d="  M 16,13  L 17,13  L 17,12  L 15,12  L 15,14  L 16,14  Z  " style="fill:rgb(149, 51, 0); fill-opacity:1.000; stroke:none;" />
 <path d="  M 16,16  L 17,16  L 17,14  L 16,14  Z  " style="fill:rgb(149, 51, 0); fill-opacity:1.000; stroke:none;" />
 <path d="  M 17,18  L 17,19  L 18,19  L 18,16  L 17,16  L 17,17  L 16,17  L 16,18  Z  " style="fill:rgb(149, 51, 0); fill-opacity:1.000; stroke:none;" />
 <path d="  M 16,29  L 16,30  L 23,30  L 23,29  Z  " style="fill:rgb(149, 51, 0); fill-opacity:1.000; stroke:none;" />
 <path d="  M 19,14  L 19,13  L 17,13  L 17,14  Z  " style="fill:rgb(149, 51, 0); fill-opacity:1.000; stroke:none;" />
 <path d="  M 19,15  L 20,15  L 20,14  L 19,14  Z  " style="fill:rgb(149, 51, 0); fill-opacity:1.000; stroke:none;" />
 <path d="  M 21,15  L 20,15  L 20,17  L 21,17  Z  " style="fill:rgb(149, 51, 0); fill-opacity:1.000; stroke:none;" />
 <path d="  M 21,9  L 22,9  L 22,8  L 21,8  Z  " style="fill:rgb(149, 51, 0); fill-opacity:1.000; stroke:none;" />
 <path d="  M 21,19  L 22,19  L 22,17  L 21,17  Z  " style="fill:rgb(149, 51, 0); fill-opacity:1.000; stroke:none;" />
 <path d="  M 23,7  L 22,7  L 22,8  L 23,8  Z  " style="fill:rgb(149, 51, 0); fill-opacity:1.000; stroke:none;" />
 <path d="  M 22,10  L 23,10  L 23,9  L 22,9  Z  " style="fill:rgb(149, 51, 0); fill-opacity:1.000; stroke:none;" />
 <path d="  M 23,15  L 23,14  L 22,14  L 22,15  Z  " style="fill:rgb(149, 51, 0); fill-opacity:1.000; stroke:none;" />
 <path d="  M 24,20  L 24,19  L 22,19  L 22,20  Z  " style="fill:rgb(149, 51, 0); fill-opacity:1.000; stroke:none;" />
 <path d="  M 24,8  L 23,8  L 23,9  L 24,9  Z  " style="fill:rgb(149, 51, 0); fill-opacity:1.000; stroke:none;" />
 <path d="  M 24,17  L 24,16  L 25,16  L 25,15  L 23,15  L 23,17  Z  " style="fill:rgb(149, 51, 0); fill-opacity:1.000; stroke:none;" />
 <path d="  M 23,29  L 25,29  L 25,28  L 23,28  Z  " style="fill:rgb(149, 51, 0); fill-opacity:1.000; stroke:none;" />
 <path d="  M 24,19  L 25,19  L 25,17  L 24,17  Z  " style="fill:rgb(149, 51, 0); fill-opacity:1.000; stroke:none;" />
 <path d="  M 25,17  L 26,17  L 26,16  L 25,16  Z  " style="fill:rgb(149, 51, 0); fill-opacity:1.000; stroke:none;" />
 <path d="  M 25,27  L 25,28  L 26,28  L 26,27  Z  " style="fill:rgb(149, 51, 0); fill-opacity:1.000; stroke:none;" />
 <path d="  M 26,19  L 27,19  L 27,17  L 26,17  Z  " style="fill:rgb(149, 51, 0); fill-opacity:1.000; stroke:none;" />
 <path d="  M 27,27  L 27,26  L 26,26  L 26,27  Z  " style="fill:rgb(149, 51, 0); fill-opacity:1.000; stroke:none;" />
 <path d="  M 27,19  L 27,21  L 28,21  L 28,19  Z  " style="fill:rgb(149, 51, 0); fill-opacity:1.000; stroke:none;" />
 <path d="  M 28,24  L 27,24  L 27,26  L 28,26  Z  " style="fill:rgb(149, 51, 0); fill-opacity:1.000; stroke:none;" />
 <path d="  M 28,24  L 29,24  L 29,21  L 28,21  Z  " style="fill:rgb(149, 51, 0); fill-opacity:1.000; stroke:none;" />
 <path d="  M 3,17  L 4,17  L 4,16  L 3,16  Z  " style="fill:rgb(231, 133, 0); fill-opacity:1.000; stroke:none;" />
 <path d="  M 4,16  L 6,16  L 6,14  L 5,14  L 5,15  L 4,15  Z  " style="fill:rgb(231, 133, 0); fill-opacity:1.000; stroke:none;" />
 <path d="  M 6,18  L 7,18  L 7,16  L 6,16  L 6,17  L 5,17  L 5,19  L 6,19  Z  " style="fill:rgb(231, 133, 0); fill-opacity:1.000; stroke:none;" />
 <path d="  M 6,13  L 7,13  L 7,12  L 6,12  Z  " style="fill:rgb(231, 133, 0); fill-opacity:1.000; stroke:none;" />
 <path d="  M 7,19  L 8,19  L 8,18  L 7,18  Z  " style="fill:rgb(231, 133, 0); fill-opacity:1.000; stroke:none;" />
 <path d="  M 4,17  L 3,17  L 3,18  L 4,18  Z  " style="fill:rgb(255, 163, 0); fill-opacity:1.000; stroke:none;" />
 <path d="  M 5,15  L 5,14  L 4,14  L 4,15  Z  " style="fill:rgb(255, 163, 0); fill-opacity:1.000; stroke:none;" />
 <path d="  M 5,19  L 5,18  L 4,18  L 4,19  Z  " style="fill:rgb(255, 163, 0); fill-opacity:1.000; stroke:none;" />
 <path d="  M 5,20  L 4,20  L 4,21  L 5,21  Z  " style="fill:rgb(255, 163, 0); fill-opacity:1.000; stroke:none;" />
 <path d="  M 6,14  L 6,13  L 5,13  L 5,14  Z  " style="fill:rgb(255, 163, 0); fill-opacity:1.000; stroke:none;" />
 <path d="  M 5,17  L 6,17  L 6,16  L 5,16  Z  " style="fill:rgb(255, 163, 0); fill-opacity:1.000; stroke:none;" />
 <path d="  M 6,20  L 6,19  L 5,19  L 5,20  Z  " style="fill:rgb(255, 163, 0); fill-opacity:1.000; stroke:none;" />
 <path d="  M 5,23  L 6,23  L 6,22  L 5,22  Z  " style="fill:rgb(255, 163, 0); fill-opacity:1.000; stroke:none;" />
 <path d="  M 6,18  L 6,19  L 7,19  L 7,18  Z  " style="fill:rgb(255, 163, 0); fill-opacity:1.000; stroke:none;" />
 <path d="  M 12,10  L 12,11  L 13,11  L 13,10  Z  " style="fill:rgb(255, 163, 0); fill-opacity:1.000; stroke:none;" />
 <path d="  M 16,17  L 15,17  L 15,18  L 16,18  Z  " style="fill:rgb(255, 163, 0); fill-opacity:1.000; stroke:none;" />
 <path d="  M 17,14  L 17,13  L 16,13  L 16,14  Z  " style="fill:rgb(255, 163, 0); fill-opacity:1.000; stroke:none;" />
 <path d="  M 19,15  L 19,14  L 17,14  L 17,15  Z  " style="fill:rgb(255, 163, 0); fill-opacity:1.000; stroke:none;" />
 <path d="  M 18,22  L 20,22  L 20,21  L 19,21  L 19,20  L 18,20  Z  " style="fill:rgb(255, 163, 0); fill-opacity:1.000; stroke:none;" />
 <path d="  M 19,15  L 19,16  L 20,16  L 20,15  Z  " style="fill:rgb(255, 163, 0); fill-opacity:1.000; stroke:none;" />
 <path d="  M 20,17  L 20,18  L 21,18  L 21,17  Z  " style="fill:rgb(255, 163, 0); fill-opacity:1.000; stroke:none;" />
 <path d="  M 20,24  L 22,24  L 22,22  L 21,22  L 21,23  L 20,23  Z  " style="fill:rgb(255, 163, 0); fill-opacity:1.000; stroke:none;" />
 <path d="  M 23,8  L 22,8  L 22,9  L 23,9  Z  " style="fill:rgb(255, 163, 0); fill-opacity:1.000; stroke:none;" />
 <path d="  M 22,22  L 24,22  L 24,21  L 23,21  L 23,20  L 22,20  Z  " style="fill:rgb(255, 163, 0); fill-opacity:1.000; stroke:none;" />
 <path d="  M 3,20  L 4,20  L 4,18  L 3,18  Z  " style="fill:rgb(255, 255, 181); fill-opacity:1.000; stroke:none;" />
 <path d="  M 4,18  L 5,18  L 5,16  L 4,16  Z  " style="fill:rgb(255, 255, 181); fill-opacity:1.000; stroke:none;" />
 <path d="  M 8,24  L 8,23  L 7,23  L 7,22  L 6,22  L 6,24  Z  " style="fill:rgb(255, 255, 181); fill-opacity:1.000; stroke:none;" />
 <path d="  M 11,21  L 13,21  L 13,20  L 11,20  Z  " style="fill:rgb(255, 255, 181); fill-opacity:1.000; stroke:none;" />
 <path d="  M 13,4  L 12,4  L 12,5  L 13,5  Z  " style="fill:rgb(255, 255, 181); fill-opacity:1.000; stroke:none;" />
 <path d="  M 12,23  L 13,23  L 13,22  L 12,22  Z  " style="fill:rgb(255, 255, 181); fill-opacity:1.000; stroke:none;" />
 <path d="  M 13,22  L 14,22  L 14,21  L 13,21  Z  " style="fill:rgb(255, 255, 181); fill-opacity:1.000; stroke:none;" />
 <path d="  M 17,21  L 15,21  L 15,22  L 17,22  Z  " style="fill:rgb(255, 255, 181); fill-opacity:1.000; stroke:none;" />
 <path d="  M 17,20  L 17,21  L 18,21  L 18,20  Z  " style="fill:rgb(255, 255, 181); fill-opacity:1.000; stroke:none;" />
 <path d="  M 19,16  L 19,15  L 18,15  L 18,16  Z  " style="fill:rgb(255, 255, 181); fill-opacity:1.000; stroke:none;" />
 <path d="  M 19,17  L 20,17  L 20,16  L 19,16  Z  " style="fill:rgb(255, 255, 181); fill-opacity:1.000; stroke:none;" />
 <path d="  M 21,20  L 22,20  L 22,19  L 20,19  L 20,21  L 21,21  Z  " style="fill:rgb(255, 255, 181); fill-opacity:1.000; stroke:none;" />
 <path d="  M 3,20  L 3,21  L 4,21  L 4,20  Z  " style="fill:rgb(251, 140, 0); fill-opacity:1.000; stroke:none;" />
 <path d="  M 4,22  L 4,23  L 5,23  L 5,22  Z  " style="fill:rgb(251, 140, 0); fill-opacity:1.000; stroke:none;" />
 <path d="  M 5,24  L 6,24  L 6,23  L 5,23  Z  " style="fill:rgb(251, 140, 0); fill-opacity:1.000; stroke:none;" />
 <path d="  M 7,24  L 6,24  L 6,25  L 7,25  Z  " style="fill:rgb(251, 140, 0); fill-opacity:1.000; stroke:none;" />
 <path d="  M 8,26  L 9,26  L 9,25  L 10,25  L 10,24  L 8,24  Z  " style="fill:rgb(251, 140, 0); fill-opacity:1.000; stroke:none;" />
 <path d="  M 4,22  L 4,21  L 3,21  L 3,22  Z  " style="fill:rgb(205, 101, 0); fill-opacity:1.000; stroke:none;" />
 <path d="  M 5,24  L 5,23  L 4,23  L 4,24  Z  " style="fill:rgb(205, 101, 0); fill-opacity:1.000; stroke:none;" />
 <path d="  M 6,24  L 5,24  L 5,25  L 6,25  Z  " style="fill:rgb(205, 101, 0); fill-opacity:1.000; stroke:none;" />
 <path d="  M 7,26  L 8,26  L 8,25  L 7,25  Z  " style="fill:rgb(205, 101, 0); fill-opacity:1.000; stroke:none;" />
 <path d="  M 10,26  L 10,25  L 9,25  L 9,26  Z  " style="fill:rgb(205, 101, 0); fill-opacity:1.000; stroke:none;" />
 <path d="  M 12,25  L 14,25  L 14,24  L 12,24  Z  " style="fill:rgb(205, 101, 0); fill-opacity:1.000; stroke:none;" />
 <path d="  M 14,24  L 15,24  L 15,23  L 14,23  Z  " style="fill:rgb(205, 101, 0); fill-opacity:1.000; stroke:none;" />
 <path d="  M 14,27  L 16,27  L 16,26  L 15,26  L 15,25  L 14,25  Z  " style="fill:rgb(205, 101, 0); fill-opacity:1.000; stroke:none;" />
 <path d="  M 17,24  L 17,23  L 16,23  L 16,24  Z  " style="fill:rgb(205, 101, 0); fill-opacity:1.000; stroke:none;" />
 <path d="  M 16,27  L 16,28  L 17,28  L 17,27  Z  " style="fill:rgb(205, 101, 0); fill-opacity:1.000; stroke:none;" />
 <path d="  M 17,25  L 18,25  L 18,24  L 17,24  Z  " style="fill:rgb(205, 101, 0); fill-opacity:1.000; stroke:none;" />
 <path d="  M 22,28  L 22,27  L 23,27  L 23,26  L 20,26  L 20,27  L 18,27  L 18,28  Z  " style="fill:rgb(205, 101, 0); fill-opacity:1.000; stroke:none;" />
 <path d="  M 24,23  L 24,25  L 25,25  L 25,24  L 26,24  L 26,21  L 24,21  L 24,22  L 23,22  L 23,23  Z  " style="fill:rgb(205, 101, 0); fill-opacity:1.000; stroke:none;" />
 <path d="  M 24,26  L 24,25  L 23,25  L 23,26  Z  " style="fill:rgb(205, 101, 0); fill-opacity:1.000; stroke:none;" />
 <path d="  M 25,16  L 24,16  L 24,17  L 25,17  Z  " style="fill:rgb(205, 101, 0); fill-opacity:1.000; stroke:none;" />
 <path d="  M 25,20  L 25,19  L 24,19  L 24,20  Z  " style="fill:rgb(205, 101, 0); fill-opacity:1.000; stroke:none;" />
 <path d="  M 4,19  L 4,20  L 5,20  L 5,19  Z  " style="fill:rgb(255, 217, 66); fill-opacity:1.000; stroke:none;" />
 <path d="  M 11,23  L 10,23  L 10,24  L 12,24  L 12,22  L 11,22  Z  " style="fill:rgb(255, 217, 66); fill-opacity:1.000; stroke:none;" />
 <path d="  M 13,21  L 12,21  L 12,22  L 13,22  Z  " style="fill:rgb(255, 217, 66); fill-opacity:1.000; stroke:none;" />
 <path d="  M 21,24  L 21,25  L 23,25  L 23,24  L 24,24  L 24,23  L 23,23  L 23,22  L 22,22  L 22,24  Z  " style="fill:rgb(255, 217, 66); fill-opacity:1.000; stroke:none;" />
 <path d="  M 4,21  L 4,22  L 6,22  L 6,21  L 7,21  L 7,22  L 8,22  L 8,20  L 7,20  L 7,19  L 6,19  L 6,20  L 5,20  L 5,21  Z  " style="fill:rgb(251, 191, 49); fill-opacity:1.000; stroke:none;" />
 <path d="  M 7,9  L 7,8  L 6,8  L 6,9  Z  " style="fill:rgb(255, 254, 49); fill-opacity:1.000; stroke:none;" />
 <path d="  M 20,21  L 20,23  L 21,23  L 21,22  L 22,22  L 22,20  L 21,20  L 21,21  Z  " style="fill:rgb(255, 254, 49); fill-opacity:1.000; stroke:none;" />
 <path d="  M 6,21  L 6,22  L 7,22  L 7,21  Z  " style="fill:rgb(202, 140, 9); fill-opacity:1.000; stroke:none;" />
 <path d="  M 7,20  L 8,20  L 8,19  L 7,19  Z  " style="fill:rgb(202, 140, 9); fill-opacity:1.000; stroke:none;" />
 <path d="  M 7,22  L 7,23  L 9,23  L 9,21  L 10,21  L 10,20  L 8,20  L 8,22  Z  " style="fill:rgb(202, 140, 9); fill-opacity:1.000; stroke:none;" />
 <path d="  M 14,22  L 15,22  L 15,21  L 16,21  L 16,20  L 14,20  L 14,19  L 13,19  L 13,21  L 14,21  Z  " style="fill:rgb(202, 140, 9); fill-opacity:1.000; stroke:none;" />
 <path d="  M 15,22  L 15,23  L 16,23  L 16,22  Z  " style="fill:rgb(202, 140, 9); fill-opacity:1.000; stroke:none;" />
 <path d="  M 17,19  L 17,18  L 16,18  L 16,19  Z  " style="fill:rgb(202, 140, 9); fill-opacity:1.000; stroke:none;" />
 <path d="  M 17,15  L 17,16  L 18,16  L 18,15  Z  " style="fill:rgb(202, 140, 9); fill-opacity:1.000; stroke:none;" />
 <path d="  M 18,20  L 18,19  L 17,19  L 17,20  Z  " style="fill:rgb(202, 140, 9); fill-opacity:1.000; stroke:none;" />
 <path d="  M 21,18  L 20,18  L 20,17  L 19,17  L 19,16  L 18,16  L 18,18  L 19,18  L 19,19  L 21,19  Z  " style="fill:rgb(202, 140, 9); fill-opacity:1.000; stroke:none;" />
 <path d="  M 8,25  L 8,24  L 7,24  L 7,25  Z  " style="fill:rgb(255, 203, 0); fill-opacity:1.000; stroke:none;" />
 <path d="  M 8,24  L 10,24  L 10,23  L 11,23  L 11,22  L 9,22  L 9,23  L 8,23  Z  " style="fill:rgb(255, 203, 0); fill-opacity:1.000; stroke:none;" />
 <path d="  M 16,20  L 16,21  L 17,21  L 17,19  L 16,19  L 16,18  L 15,18  L 15,19  L 14,19  L 14,20  Z  " style="fill:rgb(255, 203, 0); fill-opacity:1.000; stroke:none;" />
 <path d="  M 16,25  L 16,24  L 14,24  L 14,25  L 15,25  L 15,26  L 16,26  L 16,27  L 17,27  L 17,25  Z  " style="fill:rgb(255, 203, 0); fill-opacity:1.000; stroke:none;" />
 <path d="  M 19,23  L 19,22  L 18,22  L 18,21  L 17,21  L 17,22  L 16,22  L 16,23  L 17,23  L 17,24  L 18,24  L 18,23  Z  " style="fill:rgb(255, 203, 0); fill-opacity:1.000; stroke:none;" />
 <path d="  M 10,21  L 9,21  L 9,22  L 12,22  L 12,21  L 11,21  L 11,20  L 10,20  Z  " style="fill:rgb(255, 224, 0); fill-opacity:1.000; stroke:none;" />
 <path d="  M 14,22  L 13,22  L 13,23  L 12,23  L 12,24  L 14,24  Z  " style="fill:rgb(255, 224, 0); fill-opacity:1.000; stroke:none;" />
 <path d="  M 19,20  L 19,21  L 20,21  L 20,19  L 19,19  L 19,18  L 18,18  L 18,20  Z  " style="fill:rgb(255, 224, 0); fill-opacity:1.000; stroke:none;" />
 <path d="  M 10,24  L 10,25  L 12,25  L 12,24  Z  " style="fill:rgb(205, 86, 0); fill-opacity:1.000; stroke:none;" />
 <path d="  M 14,26  L 14,25  L 13,25  L 13,26  Z  " style="fill:rgb(205, 86, 0); fill-opacity:1.000; stroke:none;" />
 <path d="  M 15,23  L 15,22  L 14,22  L 14,23  Z  " style="fill:rgb(205, 86, 0); fill-opacity:1.000; stroke:none;" />
 <path d="  M 16,23  L 15,23  L 15,24  L 16,24  Z  " style="fill:rgb(205, 86, 0); fill-opacity:1.000; stroke:none;" />
 <path d="  M 16,25  L 17,25  L 17,24  L 16,24  Z  " style="fill:rgb(205, 86, 0); fill-opacity:1.000; stroke:none;" />
 <path d="  M 18,25  L 17,25  L 17,26  L 18,26  Z  " style="fill:rgb(205, 86, 0); fill-opacity:1.000; stroke:none;" />
 <path d="  M 13,20  L 13,18  L 12,18  L 12,19  L 11,19  L 11,20  Z  " style="fill:rgb(255, 255, 110); fill-opacity:1.000; stroke:none;" />
 <path d="  M 13,25  L 12,25  L 12,26  L 13,26  Z  " style="fill:rgb(168, 73, 0); fill-opacity:1.000; stroke:none;" />
 <path d="  M 13,27  L 14,27  L 14,26  L 13,26  Z  " style="fill:rgb(168, 73, 0); fill-opacity:1.000; stroke:none;" />
 <path d="  M 14,27  L 14,28  L 16,28  L 16,27  Z  " style="fill:rgb(168, 73, 0); fill-opacity:1.000; stroke:none;" />
 <path d="  M 20,28  L 20,29  L 23,29  L 23,28  Z  " style="fill:rgb(168, 73, 0); fill-opacity:1.000; stroke:none;" />
 <path d="  M 25,28  L 25,26  L 26,26  L 26,25  L 24,25  L 24,26  L 23,26  L 23,28  Z  " style="fill:rgb(168, 73, 0); fill-opacity:1.000; stroke:none;" />
 <path d="  M 25,21  L 26,21  L 26,19  L 25,19  Z  " style="fill:rgb(168, 73, 0); fill-opacity:1.000; stroke:none;" />
 <path d="  M 26,24  L 27,24  L 27,23  L 26,23  Z  " style="fill:rgb(168, 73, 0); fill-opacity:1.000; stroke:none;" />
 <path d="  M 18,28  L 18,27  L 17,27  L 17,28  L 16,28  L 16,29  L 20,29  L 20,28  Z  " style="fill:rgb(171, 62, 0); fill-opacity:1.000; stroke:none;" />
 <path d="  M 23,27  L 22,27  L 22,28  L 23,28  Z  " style="fill:rgb(171, 62, 0); fill-opacity:1.000; stroke:none;" />
 <path d="  M 26,17  L 25,17  L 25,19  L 26,19  Z  " style="fill:rgb(171, 62, 0); fill-opacity:1.000; stroke:none;" />
 <path d="  M 26,25  L 26,26  L 27,26  L 27,24  L 25,24  L 25,25  Z  " style="fill:rgb(171, 62, 0); fill-opacity:1.000; stroke:none;" />
 <path d="  M 26,27  L 26,26  L 25,26  L 25,27  Z  " style="fill:rgb(171, 62, 0); fill-opacity:1.000; stroke:none;" />
 <path d="  M 27,24  L 28,24  L 28,21  L 27,21  L 27,19  L 26,19  L 26,23  L 27,23  Z  " style="fill:rgb(171, 62, 0); fill-opacity:1.000; stroke:none;" />
 <path d="  M 19,27  L 19,26  L 20,26  L 20,24  L 19,24  L 19,25  L 18,25  L 18,26  L 17,26  L 17,27  Z  " style="fill:rgb(255, 234, 77); fill-opacity:1.000; stroke:none;" />
 <path d="  M 20,22  L 19,22  L 19,23  L 18,23  L 18,25  L 19,25  L 19,24  L 20,24  Z  " style="fill:rgb(202, 118, 0); fill-opacity:1.000; stroke:none;" />
 <path d="  M 19,27  L 20,27  L 20,26  L 19,26  Z  " style="fill:rgb(234, 138, 0); fill-opacity:1.000; stroke:none;" />
 <path d="  M 20,24  L 20,26  L 23,26  L 23,25  L 21,25  L 21,24  Z  " style="fill:rgb(234, 138, 0); fill-opacity:1.000; stroke:none;" />
 <path d="  M 23,24  L 23,25  L 24,25  L 24,24  Z  " style="fill:rgb(234, 138, 0); fill-opacity:1.000; stroke:none;" />
 <path d="  M 25,21  L 25,20  L 23,20  L 23,21  Z  " style="fill:rgb(210, 128, 3); fill-opacity:1.000; stroke:none;" />
</svg>
