<?xml version="1.0" encoding="UTF-8" standalone="no"?>
<!DOCTYPE svg PUBLIC "-//W3C//DTD SVG 1.1//EN" 
  "http://www.w3.org/Graphics/SVG/1.1/DTD/svg11.dtd">
<svg width="32" height="32"
	 xmlns="http://www.w3.org/2000/svg" version="1.1">
 <path d="  M 2,29  L 3,29  L 3,21  L 2,21  Z  " style="fill:rgb(73, 54, 21); fill-opacity:1.000; stroke:none;" />
 <path d="  M 4,17  L 3,17  L 3,21  L 4,21  Z  " style="fill:rgb(73, 54, 21); fill-opacity:1.000; stroke:none;" />
 <path d="  M 3,29  L 3,30  L 4,30  L 4,29  Z  " style="fill:rgb(73, 54, 21); fill-opacity:1.000; stroke:none;" />
 <path d="  M 4,17  L 5,17  L 5,15  L 4,15  Z  " style="fill:rgb(73, 54, 21); fill-opacity:1.000; stroke:none;" />
 <path d="  M 5,22  L 4,22  L 4,24  L 5,24  Z  " style="fill:rgb(73, 54, 21); fill-opacity:1.000; stroke:none;" />
 <path d="  M 6,15  L 6,13  L 5,13  L 5,15  Z  " style="fill:rgb(73, 54, 21); fill-opacity:1.000; stroke:none;" />
 <path d="  M 6,20  L 6,19  L 5,19  L 5,20  Z  " style="fill:rgb(73, 54, 21); fill-opacity:1.000; stroke:none;" />
 <path d="  M 7,11  L 6,11  L 6,13  L 7,13  Z  " style="fill:rgb(73, 54, 21); fill-opacity:1.000; stroke:none;" />
 <path d="  M 6,16  L 6,17  L 7,17  L 7,16  Z  " style="fill:rgb(73, 54, 21); fill-opacity:1.000; stroke:none;" />
 <path d="  M 8,15  L 8,14  L 7,14  L 7,15  Z  " style="fill:rgb(73, 54, 21); fill-opacity:1.000; stroke:none;" />
 <path d="  M 8,14  L 9,14  L 9,13  L 8,13  Z  " style="fill:rgb(73, 54, 21); fill-opacity:1.000; stroke:none;" />
 <path d="  M 11,6  L 11,7  L 13,7  L 13,6  Z  " style="fill:rgb(73, 54, 21); fill-opacity:1.000; stroke:none;" />
 <path d="  M 13,5  L 13,6  L 15,6  L 15,5  Z  " style="fill:rgb(73, 54, 21); fill-opacity:1.000; stroke:none;" />
 <path d="  M 14,9  L 14,8  L 13,8  L 13,9  Z  " style="fill:rgb(73, 54, 21); fill-opacity:1.000; stroke:none;" />
 <path d="  M 15,8  L 15,7  L 14,7  L 14,8  Z  " style="fill:rgb(73, 54, 21); fill-opacity:1.000; stroke:none;" />
 <path d="  M 15,5  L 17,5  L 17,4  L 15,4  Z  " style="fill:rgb(73, 54, 21); fill-opacity:1.000; stroke:none;" />
 <path d="  M 16,6  L 16,7  L 17,7  L 17,6  Z  " style="fill:rgb(73, 54, 21); fill-opacity:1.000; stroke:none;" />
 <path d="  M 17,4  L 21,4  L 21,3  L 17,3  Z  " style="fill:rgb(73, 54, 21); fill-opacity:1.000; stroke:none;" />
 <path d="  M 19,6  L 20,6  L 20,5  L 19,5  Z  " style="fill:rgb(73, 54, 21); fill-opacity:1.000; stroke:none;" />
 <path d="  M 21,2  L 21,3  L 29,3  L 29,2  Z  " style="fill:rgb(73, 54, 21); fill-opacity:1.000; stroke:none;" />
 <path d="  M 22,5  L 24,5  L 24,4  L 22,4  Z  " style="fill:rgb(73, 54, 21); fill-opacity:1.000; stroke:none;" />
 <path d="  M 30,4  L 30,3  L 29,3  L 29,4  Z  " style="fill:rgb(73, 54, 21); fill-opacity:1.000; stroke:none;" />
 <path d="  M 3,29  L 2,29  L 2,30  L 3,30  Z  " style="fill:rgb(40, 30, 11); fill-opacity:1.000; stroke:none;" />
 <path d="  M 4,30  L 3,30  L 3,31  L 4,31  Z  " style="fill:rgb(40, 30, 11); fill-opacity:1.000; stroke:none;" />
 <path d="  M 5,24  L 4,24  L 4,30  L 5,30  Z  " style="fill:rgb(40, 30, 11); fill-opacity:1.000; stroke:none;" />
 <path d="  M 5,24  L 6,24  L 6,20  L 5,20  Z  " style="fill:rgb(40, 30, 11); fill-opacity:1.000; stroke:none;" />
 <path d="  M 7,20  L 7,17  L 6,17  L 6,20  Z  " style="fill:rgb(40, 30, 11); fill-opacity:1.000; stroke:none;" />
 <path d="  M 7,17  L 8,17  L 8,15  L 7,15  Z  " style="fill:rgb(40, 30, 11); fill-opacity:1.000; stroke:none;" />
 <path d="  M 8,14  L 8,15  L 9,15  L 9,14  Z  " style="fill:rgb(40, 30, 11); fill-opacity:1.000; stroke:none;" />
 <path d="  M 14,9  L 15,9  L 15,8  L 14,8  Z  " style="fill:rgb(40, 30, 11); fill-opacity:1.000; stroke:none;" />
 <path d="  M 17,7  L 15,7  L 15,8  L 17,8  Z  " style="fill:rgb(40, 30, 11); fill-opacity:1.000; stroke:none;" />
 <path d="  M 17,6  L 17,7  L 20,7  L 20,6  Z  " style="fill:rgb(40, 30, 11); fill-opacity:1.000; stroke:none;" />
 <path d="  M 24,6  L 24,5  L 20,5  L 20,6  Z  " style="fill:rgb(40, 30, 11); fill-opacity:1.000; stroke:none;" />
 <path d="  M 24,4  L 24,5  L 30,5  L 30,4  Z  " style="fill:rgb(40, 30, 11); fill-opacity:1.000; stroke:none;" />
 <path d="  M 30,2  L 29,2  L 29,3  L 30,3  Z  " style="fill:rgb(40, 30, 11); fill-opacity:1.000; stroke:none;" />
 <path d="  M 30,4  L 31,4  L 31,3  L 30,3  Z  " style="fill:rgb(40, 30, 11); fill-opacity:1.000; stroke:none;" />
 <path d="  M 4,21  L 3,21  L 3,27  L 4,27  Z  " style="fill:rgb(137, 103, 39); fill-opacity:1.000; stroke:none;" />
 <path d="  M 4,18  L 4,21  L 5,21  L 5,18  Z  " style="fill:rgb(137, 103, 39); fill-opacity:1.000; stroke:none;" />
 <path d="  M 6,18  L 6,15  L 5,15  L 5,18  Z  " style="fill:rgb(137, 103, 39); fill-opacity:1.000; stroke:none;" />
 <path d="  M 6,13  L 6,15  L 7,15  L 7,13  Z  " style="fill:rgb(137, 103, 39); fill-opacity:1.000; stroke:none;" />
 <path d="  M 7,13  L 8,13  L 8,12  L 7,12  Z  " style="fill:rgb(137, 103, 39); fill-opacity:1.000; stroke:none;" />
 <path d="  M 13,8  L 13,7  L 12,7  L 12,8  Z  " style="fill:rgb(137, 103, 39); fill-opacity:1.000; stroke:none;" />
 <path d="  M 13,7  L 15,7  L 15,6  L 13,6  Z  " style="fill:rgb(137, 103, 39); fill-opacity:1.000; stroke:none;" />
 <path d="  M 18,6  L 18,5  L 15,5  L 15,6  Z  " style="fill:rgb(137, 103, 39); fill-opacity:1.000; stroke:none;" />
 <path d="  M 21,5  L 21,4  L 18,4  L 18,5  Z  " style="fill:rgb(137, 103, 39); fill-opacity:1.000; stroke:none;" />
 <path d="  M 21,3  L 21,4  L 27,4  L 27,3  Z  " style="fill:rgb(137, 103, 39); fill-opacity:1.000; stroke:none;" />
 <path d="  M 4,29  L 4,27  L 3,27  L 3,29  Z  " style="fill:rgb(104, 78, 30); fill-opacity:1.000; stroke:none;" />
 <path d="  M 4,18  L 5,18  L 5,17  L 4,17  Z  " style="fill:rgb(104, 78, 30); fill-opacity:1.000; stroke:none;" />
 <path d="  M 4,21  L 4,22  L 5,22  L 5,21  Z  " style="fill:rgb(104, 78, 30); fill-opacity:1.000; stroke:none;" />
 <path d="  M 6,19  L 6,18  L 5,18  L 5,19  Z  " style="fill:rgb(104, 78, 30); fill-opacity:1.000; stroke:none;" />
 <path d="  M 6,16  L 7,16  L 7,15  L 6,15  Z  " style="fill:rgb(104, 78, 30); fill-opacity:1.000; stroke:none;" />
 <path d="  M 7,13  L 7,14  L 8,14  L 8,13  Z  " style="fill:rgb(104, 78, 30); fill-opacity:1.000; stroke:none;" />
 <path d="  M 13,7  L 13,8  L 14,8  L 14,7  Z  " style="fill:rgb(104, 78, 30); fill-opacity:1.000; stroke:none;" />
 <path d="  M 15,7  L 16,7  L 16,6  L 15,6  Z  " style="fill:rgb(104, 78, 30); fill-opacity:1.000; stroke:none;" />
 <path d="  M 18,4  L 17,4  L 17,5  L 18,5  Z  " style="fill:rgb(104, 78, 30); fill-opacity:1.000; stroke:none;" />
 <path d="  M 19,6  L 19,5  L 18,5  L 18,6  Z  " style="fill:rgb(104, 78, 30); fill-opacity:1.000; stroke:none;" />
 <path d="  M 21,4  L 21,5  L 22,5  L 22,4  Z  " style="fill:rgb(104, 78, 30); fill-opacity:1.000; stroke:none;" />
 <path d="  M 29,3  L 27,3  L 27,4  L 29,4  Z  " style="fill:rgb(104, 78, 30); fill-opacity:1.000; stroke:none;" />
 <path d="  M 6,29  L 6,28  L 5,28  L 5,29  Z  " style="fill:rgb(68, 68, 68); fill-opacity:1.000; stroke:none;" />
 <path d="  M 7,28  L 7,27  L 6,27  L 6,28  Z  " style="fill:rgb(68, 68, 68); fill-opacity:1.000; stroke:none;" />
 <path d="  M 7,11  L 8,11  L 8,10  L 7,10  Z  " style="fill:rgb(68, 68, 68); fill-opacity:1.000; stroke:none;" />
 <path d="  M 8,26  L 7,26  L 7,27  L 8,27  Z  " style="fill:rgb(68, 68, 68); fill-opacity:1.000; stroke:none;" />
 <path d="  M 9,10  L 9,9  L 8,9  L 8,10  Z  " style="fill:rgb(68, 68, 68); fill-opacity:1.000; stroke:none;" />
 <path d="  M 8,25  L 8,26  L 9,26  L 9,25  Z  " style="fill:rgb(68, 68, 68); fill-opacity:1.000; stroke:none;" />
 <path d="  M 10,8  L 9,8  L 9,9  L 10,9  Z  " style="fill:rgb(68, 68, 68); fill-opacity:1.000; stroke:none;" />
 <path d="  M 10,13  L 9,13  L 9,14  L 10,14  Z  " style="fill:rgb(68, 68, 68); fill-opacity:1.000; stroke:none;" />
 <path d="  M 10,25  L 10,24  L 9,24  L 9,25  Z  " style="fill:rgb(68, 68, 68); fill-opacity:1.000; stroke:none;" />
 <path d="  M 10,7  L 10,8  L 11,8  L 11,7  Z  " style="fill:rgb(68, 68, 68); fill-opacity:1.000; stroke:none;" />
 <path d="  M 11,13  L 11,12  L 10,12  L 10,13  Z  " style="fill:rgb(68, 68, 68); fill-opacity:1.000; stroke:none;" />
 <path d="  M 11,23  L 10,23  L 10,24  L 11,24  Z  " style="fill:rgb(68, 68, 68); fill-opacity:1.000; stroke:none;" />
 <path d="  M 12,11  L 11,11  L 11,12  L 12,12  Z  " style="fill:rgb(68, 68, 68); fill-opacity:1.000; stroke:none;" />
 <path d="  M 12,22  L 11,22  L 11,23  L 12,23  Z  " style="fill:rgb(68, 68, 68); fill-opacity:1.000; stroke:none;" />
 <path d="  M 12,10  L 12,11  L 13,11  L 13,10  Z  " style="fill:rgb(68, 68, 68); fill-opacity:1.000; stroke:none;" />
 <path d="  M 13,21  L 12,21  L 12,22  L 13,22  Z  " style="fill:rgb(68, 68, 68); fill-opacity:1.000; stroke:none;" />
 <path d="  M 13,10  L 14,10  L 14,9  L 13,9  Z  " style="fill:rgb(68, 68, 68); fill-opacity:1.000; stroke:none;" />
 <path d="  M 14,21  L 14,20  L 13,20  L 13,21  Z  " style="fill:rgb(68, 68, 68); fill-opacity:1.000; stroke:none;" />
 <path d="  M 15,19  L 14,19  L 14,20  L 15,20  Z  " style="fill:rgb(68, 68, 68); fill-opacity:1.000; stroke:none;" />
 <path d="  M 16,18  L 15,18  L 15,19  L 16,19  Z  " style="fill:rgb(68, 68, 68); fill-opacity:1.000; stroke:none;" />
 <path d="  M 16,18  L 17,18  L 17,17  L 16,17  Z  " style="fill:rgb(68, 68, 68); fill-opacity:1.000; stroke:none;" />
 <path d="  M 18,17  L 18,16  L 17,16  L 17,17  Z  " style="fill:rgb(68, 68, 68); fill-opacity:1.000; stroke:none;" />
 <path d="  M 19,16  L 19,15  L 18,15  L 18,16  Z  " style="fill:rgb(68, 68, 68); fill-opacity:1.000; stroke:none;" />
 <path d="  M 19,15  L 20,15  L 20,14  L 19,14  Z  " style="fill:rgb(68, 68, 68); fill-opacity:1.000; stroke:none;" />
 <path d="  M 21,13  L 20,13  L 20,14  L 21,14  Z  " style="fill:rgb(68, 68, 68); fill-opacity:1.000; stroke:none;" />
 <path d="  M 21,12  L 21,13  L 22,13  L 22,12  Z  " style="fill:rgb(68, 68, 68); fill-opacity:1.000; stroke:none;" />
 <path d="  M 22,12  L 23,12  L 23,11  L 22,11  Z  " style="fill:rgb(68, 68, 68); fill-opacity:1.000; stroke:none;" />
 <path d="  M 24,11  L 24,10  L 23,10  L 23,11  Z  " style="fill:rgb(68, 68, 68); fill-opacity:1.000; stroke:none;" />
 <path d="  M 25,10  L 25,9  L 24,9  L 24,10  Z  " style="fill:rgb(68, 68, 68); fill-opacity:1.000; stroke:none;" />
 <path d="  M 26,8  L 25,8  L 25,9  L 26,9  Z  " style="fill:rgb(68, 68, 68); fill-opacity:1.000; stroke:none;" />
 <path d="  M 27,7  L 26,7  L 26,8  L 27,8  Z  " style="fill:rgb(68, 68, 68); fill-opacity:1.000; stroke:none;" />
 <path d="  M 27,7  L 28,7  L 28,6  L 27,6  Z  " style="fill:rgb(68, 68, 68); fill-opacity:1.000; stroke:none;" />
 <path d="  M 29,5  L 28,5  L 28,6  L 29,6  Z  " style="fill:rgb(68, 68, 68); fill-opacity:1.000; stroke:none;" />
 <path d="  M 7,12  L 8,12  L 8,11  L 7,11  Z  " style="fill:rgb(107, 107, 107); fill-opacity:1.000; stroke:none;" />
 <path d="  M 10,12  L 8,12  L 8,13  L 10,13  Z  " style="fill:rgb(107, 107, 107); fill-opacity:1.000; stroke:none;" />
 <path d="  M 9,11  L 10,11  L 10,10  L 9,10  Z  " style="fill:rgb(107, 107, 107); fill-opacity:1.000; stroke:none;" />
 <path d="  M 10,9  L 10,10  L 11,10  L 11,9  Z  " style="fill:rgb(107, 107, 107); fill-opacity:1.000; stroke:none;" />
 <path d="  M 11,12  L 11,11  L 10,11  L 10,12  Z  " style="fill:rgb(107, 107, 107); fill-opacity:1.000; stroke:none;" />
 <path d="  M 11,7  L 11,8  L 12,8  L 12,7  Z  " style="fill:rgb(107, 107, 107); fill-opacity:1.000; stroke:none;" />
 <path d="  M 12,10  L 11,10  L 11,11  L 12,11  Z  " style="fill:rgb(107, 107, 107); fill-opacity:1.000; stroke:none;" />
 <path d="  M 12,10  L 13,10  L 13,8  L 12,8  Z  " style="fill:rgb(107, 107, 107); fill-opacity:1.000; stroke:none;" />
 <path d="  M 9,10  L 8,10  L 8,12  L 10,12  L 10,11  L 9,11  Z  " style="fill:rgb(150, 150, 150); fill-opacity:1.000; stroke:none;" />
 <path d="  M 9,10  L 10,10  L 10,9  L 9,9  Z  " style="fill:rgb(150, 150, 150); fill-opacity:1.000; stroke:none;" />
 <path d="  M 10,9  L 11,9  L 11,10  L 12,10  L 12,8  L 10,8  Z  " style="fill:rgb(150, 150, 150); fill-opacity:1.000; stroke:none;" />
 <path d="  M 10,10  L 10,11  L 11,11  L 11,10  Z  " style="fill:rgb(150, 150, 150); fill-opacity:1.000; stroke:none;" />
</svg>
