<?xml version="1.0" encoding="UTF-8" standalone="no"?>
<!DOCTYPE svg PUBLIC "-//W3C//DTD SVG 1.1//EN" 
  "http://www.w3.org/Graphics/SVG/1.1/DTD/svg11.dtd">
<svg width="32" height="32"
	 xmlns="http://www.w3.org/2000/svg" version="1.1">
 <path d="  M 2,4  L 3,4  L 3,3  L 4,3  L 4,2  L 2,2  Z  " style="fill:rgb(109, 109, 109); fill-opacity:1.000; stroke:none;" />
 <path d="  M 3,6  L 4,6  L 4,4  L 3,4  Z  " style="fill:rgb(109, 109, 109); fill-opacity:1.000; stroke:none;" />
 <path d="  M 4,3  L 4,4  L 6,4  L 6,3  Z  " style="fill:rgb(109, 109, 109); fill-opacity:1.000; stroke:none;" />
 <path d="  M 4,8  L 5,8  L 5,6  L 4,6  Z  " style="fill:rgb(109, 109, 109); fill-opacity:1.000; stroke:none;" />
 <path d="  M 6,4  L 6,5  L 8,5  L 8,4  Z  " style="fill:rgb(109, 109, 109); fill-opacity:1.000; stroke:none;" />
 <path d="  M 7,12  L 8,12  L 8,11  L 7,11  Z  " style="fill:rgb(109, 109, 109); fill-opacity:1.000; stroke:none;" />
 <path d="  M 10,12  L 8,12  L 8,13  L 10,13  Z  " style="fill:rgb(109, 109, 109); fill-opacity:1.000; stroke:none;" />
 <path d="  M 11,7  L 11,8  L 12,8  L 12,7  Z  " style="fill:rgb(109, 109, 109); fill-opacity:1.000; stroke:none;" />
 <path d="  M 12,10  L 13,10  L 13,8  L 12,8  Z  " style="fill:rgb(109, 109, 109); fill-opacity:1.000; stroke:none;" />
 <path d="  M 18,22  L 19,22  L 19,20  L 18,20  Z  " style="fill:rgb(109, 109, 109); fill-opacity:1.000; stroke:none;" />
 <path d="  M 20,22  L 19,22  L 19,23  L 20,23  Z  " style="fill:rgb(109, 109, 109); fill-opacity:1.000; stroke:none;" />
 <path d="  M 20,18  L 20,19  L 22,19  L 22,18  Z  " style="fill:rgb(109, 109, 109); fill-opacity:1.000; stroke:none;" />
 <path d="  M 21,24  L 21,23  L 20,23  L 20,24  Z  " style="fill:rgb(109, 109, 109); fill-opacity:1.000; stroke:none;" />
 <path d="  M 22,24  L 21,24  L 21,25  L 22,25  Z  " style="fill:rgb(109, 109, 109); fill-opacity:1.000; stroke:none;" />
 <path d="  M 22,19  L 22,20  L 23,20  L 23,19  Z  " style="fill:rgb(109, 109, 109); fill-opacity:1.000; stroke:none;" />
 <path d="  M 24,20  L 23,20  L 23,21  L 24,21  Z  " style="fill:rgb(109, 109, 109); fill-opacity:1.000; stroke:none;" />
 <path d="  M 24,21  L 24,22  L 25,22  L 25,21  Z  " style="fill:rgb(109, 109, 109); fill-opacity:1.000; stroke:none;" />
 <path d="  M 3,3  L 3,4  L 4,4  L 4,3  Z  " style="fill:rgb(255, 255, 255); fill-opacity:1.000; stroke:none;" />
 <path d="  M 5,4  L 5,5  L 6,5  L 6,4  Z  " style="fill:rgb(255, 255, 255); fill-opacity:1.000; stroke:none;" />
 <path d="  M 8,5  L 7,5  L 7,6  L 8,6  Z  " style="fill:rgb(255, 255, 255); fill-opacity:1.000; stroke:none;" />
 <path d="  M 3,30  L 4,30  L 4,18  L 3,18  Z  " style="fill:rgb(73, 54, 21); fill-opacity:1.000; stroke:none;" />
 <path d="  M 4,18  L 5,18  L 5,15  L 4,15  Z  " style="fill:rgb(73, 54, 21); fill-opacity:1.000; stroke:none;" />
 <path d="  M 4,31  L 5,31  L 5,30  L 4,30  Z  " style="fill:rgb(73, 54, 21); fill-opacity:1.000; stroke:none;" />
 <path d="  M 6,15  L 6,13  L 5,13  L 5,15  Z  " style="fill:rgb(73, 54, 21); fill-opacity:1.000; stroke:none;" />
 <path d="  M 6,20  L 6,19  L 5,19  L 5,20  Z  " style="fill:rgb(73, 54, 21); fill-opacity:1.000; stroke:none;" />
 <path d="  M 7,11  L 6,11  L 6,13  L 7,13  Z  " style="fill:rgb(73, 54, 21); fill-opacity:1.000; stroke:none;" />
 <path d="  M 6,16  L 6,17  L 7,17  L 7,16  Z  " style="fill:rgb(73, 54, 21); fill-opacity:1.000; stroke:none;" />
 <path d="  M 8,15  L 8,14  L 7,14  L 7,15  Z  " style="fill:rgb(73, 54, 21); fill-opacity:1.000; stroke:none;" />
 <path d="  M 8,7  L 8,8  L 9,8  L 9,7  Z  " style="fill:rgb(73, 54, 21); fill-opacity:1.000; stroke:none;" />
 <path d="  M 8,14  L 9,14  L 9,13  L 8,13  Z  " style="fill:rgb(73, 54, 21); fill-opacity:1.000; stroke:none;" />
 <path d="  M 10,8  L 9,8  L 9,9  L 10,9  Z  " style="fill:rgb(73, 54, 21); fill-opacity:1.000; stroke:none;" />
 <path d="  M 10,9  L 10,10  L 11,10  L 11,9  Z  " style="fill:rgb(73, 54, 21); fill-opacity:1.000; stroke:none;" />
 <path d="  M 11,6  L 11,7  L 13,7  L 13,6  Z  " style="fill:rgb(73, 54, 21); fill-opacity:1.000; stroke:none;" />
 <path d="  M 12,10  L 11,10  L 11,11  L 12,11  Z  " style="fill:rgb(73, 54, 21); fill-opacity:1.000; stroke:none;" />
 <path d="  M 13,11  L 12,11  L 12,12  L 13,12  Z  " style="fill:rgb(73, 54, 21); fill-opacity:1.000; stroke:none;" />
 <path d="  M 13,5  L 13,6  L 15,6  L 15,5  Z  " style="fill:rgb(73, 54, 21); fill-opacity:1.000; stroke:none;" />
 <path d="  M 14,9  L 14,8  L 13,8  L 13,9  Z  " style="fill:rgb(73, 54, 21); fill-opacity:1.000; stroke:none;" />
 <path d="  M 13,12  L 13,13  L 14,13  L 14,12  Z  " style="fill:rgb(73, 54, 21); fill-opacity:1.000; stroke:none;" />
 <path d="  M 15,8  L 15,7  L 14,7  L 14,8  Z  " style="fill:rgb(73, 54, 21); fill-opacity:1.000; stroke:none;" />
 <path d="  M 14,14  L 15,14  L 15,13  L 14,13  Z  " style="fill:rgb(73, 54, 21); fill-opacity:1.000; stroke:none;" />
 <path d="  M 18,4  L 15,4  L 15,5  L 18,5  Z  " style="fill:rgb(73, 54, 21); fill-opacity:1.000; stroke:none;" />
 <path d="  M 15,14  L 15,15  L 16,15  L 16,14  Z  " style="fill:rgb(73, 54, 21); fill-opacity:1.000; stroke:none;" />
 <path d="  M 16,6  L 16,7  L 17,7  L 17,6  Z  " style="fill:rgb(73, 54, 21); fill-opacity:1.000; stroke:none;" />
 <path d="  M 17,15  L 16,15  L 16,16  L 17,16  Z  " style="fill:rgb(73, 54, 21); fill-opacity:1.000; stroke:none;" />
 <path d="  M 18,17  L 18,16  L 17,16  L 17,17  Z  " style="fill:rgb(73, 54, 21); fill-opacity:1.000; stroke:none;" />
 <path d="  M 30,4  L 30,3  L 18,3  L 18,4  Z  " style="fill:rgb(73, 54, 21); fill-opacity:1.000; stroke:none;" />
 <path d="  M 18,17  L 18,18  L 19,18  L 19,17  Z  " style="fill:rgb(73, 54, 21); fill-opacity:1.000; stroke:none;" />
 <path d="  M 19,6  L 20,6  L 20,5  L 19,5  Z  " style="fill:rgb(73, 54, 21); fill-opacity:1.000; stroke:none;" />
 <path d="  M 19,19  L 20,19  L 20,18  L 19,18  Z  " style="fill:rgb(73, 54, 21); fill-opacity:1.000; stroke:none;" />
 <path d="  M 30,4  L 30,5  L 31,5  L 31,4  Z  " style="fill:rgb(73, 54, 21); fill-opacity:1.000; stroke:none;" />
 <path d="  M 4,30  L 3,30  L 3,31  L 4,31  Z  " style="fill:rgb(42, 26, 9); fill-opacity:1.000; stroke:none;" />
 <path d="  M 5,32  L 5,31  L 4,31  L 4,32  Z  " style="fill:rgb(42, 26, 9); fill-opacity:1.000; stroke:none;" />
 <path d="  M 6,20  L 5,20  L 5,31  L 6,31  Z  " style="fill:rgb(42, 26, 9); fill-opacity:1.000; stroke:none;" />
 <path d="  M 7,20  L 7,17  L 6,17  L 6,20  Z  " style="fill:rgb(42, 26, 9); fill-opacity:1.000; stroke:none;" />
 <path d="  M 7,8  L 7,9  L 8,9  L 8,8  Z  " style="fill:rgb(42, 26, 9); fill-opacity:1.000; stroke:none;" />
 <path d="  M 7,17  L 8,17  L 8,15  L 7,15  Z  " style="fill:rgb(42, 26, 9); fill-opacity:1.000; stroke:none;" />
 <path d="  M 9,10  L 9,9  L 8,9  L 8,10  Z  " style="fill:rgb(42, 26, 9); fill-opacity:1.000; stroke:none;" />
 <path d="  M 8,14  L 8,15  L 9,15  L 9,14  Z  " style="fill:rgb(42, 26, 9); fill-opacity:1.000; stroke:none;" />
 <path d="  M 9,11  L 10,11  L 10,10  L 9,10  Z  " style="fill:rgb(42, 26, 9); fill-opacity:1.000; stroke:none;" />
 <path d="  M 11,12  L 11,11  L 10,11  L 10,12  Z  " style="fill:rgb(42, 26, 9); fill-opacity:1.000; stroke:none;" />
 <path d="  M 11,13  L 12,13  L 12,12  L 11,12  Z  " style="fill:rgb(42, 26, 9); fill-opacity:1.000; stroke:none;" />
 <path d="  M 12,13  L 12,14  L 13,14  L 13,13  Z  " style="fill:rgb(42, 26, 9); fill-opacity:1.000; stroke:none;" />
 <path d="  M 13,15  L 14,15  L 14,14  L 13,14  Z  " style="fill:rgb(42, 26, 9); fill-opacity:1.000; stroke:none;" />
 <path d="  M 14,9  L 15,9  L 15,8  L 14,8  Z  " style="fill:rgb(42, 26, 9); fill-opacity:1.000; stroke:none;" />
 <path d="  M 14,16  L 15,16  L 15,15  L 14,15  Z  " style="fill:rgb(42, 26, 9); fill-opacity:1.000; stroke:none;" />
 <path d="  M 17,7  L 15,7  L 15,8  L 17,8  Z  " style="fill:rgb(42, 26, 9); fill-opacity:1.000; stroke:none;" />
 <path d="  M 16,17  L 16,16  L 15,16  L 15,17  Z  " style="fill:rgb(42, 26, 9); fill-opacity:1.000; stroke:none;" />
 <path d="  M 16,18  L 17,18  L 17,17  L 16,17  Z  " style="fill:rgb(42, 26, 9); fill-opacity:1.000; stroke:none;" />
 <path d="  M 17,6  L 17,7  L 20,7  L 20,6  Z  " style="fill:rgb(42, 26, 9); fill-opacity:1.000; stroke:none;" />
 <path d="  M 18,19  L 18,18  L 17,18  L 17,19  Z  " style="fill:rgb(42, 26, 9); fill-opacity:1.000; stroke:none;" />
 <path d="  M 18,20  L 19,20  L 19,19  L 18,19  Z  " style="fill:rgb(42, 26, 9); fill-opacity:1.000; stroke:none;" />
 <path d="  M 20,5  L 20,6  L 31,6  L 31,5  Z  " style="fill:rgb(42, 26, 9); fill-opacity:1.000; stroke:none;" />
 <path d="  M 30,4  L 31,4  L 31,3  L 30,3  Z  " style="fill:rgb(42, 26, 9); fill-opacity:1.000; stroke:none;" />
 <path d="  M 32,5  L 32,4  L 31,4  L 31,5  Z  " style="fill:rgb(42, 26, 9); fill-opacity:1.000; stroke:none;" />
 <path d="  M 4,4  L 4,5  L 5,5  L 5,4  Z  " style="fill:rgb(216, 216, 216); fill-opacity:1.000; stroke:none;" />
 <path d="  M 5,6  L 7,6  L 7,5  L 5,5  Z  " style="fill:rgb(216, 216, 216); fill-opacity:1.000; stroke:none;" />
 <path d="  M 4,5  L 4,6  L 5,6  L 5,5  Z  " style="fill:rgb(178, 178, 178); fill-opacity:1.000; stroke:none;" />
 <path d="  M 6,7  L 6,6  L 5,6  L 5,7  Z  " style="fill:rgb(178, 178, 178); fill-opacity:1.000; stroke:none;" />
 <path d="  M 19,21  L 19,22  L 20,22  L 20,21  Z  " style="fill:rgb(178, 178, 178); fill-opacity:1.000; stroke:none;" />
 <path d="  M 21,22  L 20,22  L 20,23  L 21,23  Z  " style="fill:rgb(178, 178, 178); fill-opacity:1.000; stroke:none;" />
 <path d="  M 21,20  L 22,20  L 22,19  L 21,19  Z  " style="fill:rgb(178, 178, 178); fill-opacity:1.000; stroke:none;" />
 <path d="  M 22,23  L 21,23  L 21,24  L 22,24  Z  " style="fill:rgb(178, 178, 178); fill-opacity:1.000; stroke:none;" />
 <path d="  M 23,20  L 22,20  L 22,21  L 23,21  Z  " style="fill:rgb(178, 178, 178); fill-opacity:1.000; stroke:none;" />
 <path d="  M 5,18  L 4,18  L 4,28  L 5,28  Z  " style="fill:rgb(137, 103, 39); fill-opacity:1.000; stroke:none;" />
 <path d="  M 6,18  L 6,15  L 5,15  L 5,18  Z  " style="fill:rgb(137, 103, 39); fill-opacity:1.000; stroke:none;" />
 <path d="  M 6,13  L 6,15  L 7,15  L 7,13  Z  " style="fill:rgb(137, 103, 39); fill-opacity:1.000; stroke:none;" />
 <path d="  M 7,13  L 8,13  L 8,12  L 7,12  Z  " style="fill:rgb(137, 103, 39); fill-opacity:1.000; stroke:none;" />
 <path d="  M 10,10  L 10,11  L 11,11  L 11,10  Z  " style="fill:rgb(137, 103, 39); fill-opacity:1.000; stroke:none;" />
 <path d="  M 12,11  L 11,11  L 11,12  L 12,12  Z  " style="fill:rgb(137, 103, 39); fill-opacity:1.000; stroke:none;" />
 <path d="  M 13,8  L 13,7  L 12,7  L 12,8  Z  " style="fill:rgb(137, 103, 39); fill-opacity:1.000; stroke:none;" />
 <path d="  M 13,12  L 12,12  L 12,13  L 13,13  Z  " style="fill:rgb(137, 103, 39); fill-opacity:1.000; stroke:none;" />
 <path d="  M 13,7  L 15,7  L 15,6  L 13,6  Z  " style="fill:rgb(137, 103, 39); fill-opacity:1.000; stroke:none;" />
 <path d="  M 14,14  L 14,13  L 13,13  L 13,14  Z  " style="fill:rgb(137, 103, 39); fill-opacity:1.000; stroke:none;" />
 <path d="  M 15,14  L 14,14  L 14,15  L 15,15  Z  " style="fill:rgb(137, 103, 39); fill-opacity:1.000; stroke:none;" />
 <path d="  M 18,6  L 18,5  L 15,5  L 15,6  Z  " style="fill:rgb(137, 103, 39); fill-opacity:1.000; stroke:none;" />
 <path d="  M 15,15  L 15,16  L 16,16  L 16,15  Z  " style="fill:rgb(137, 103, 39); fill-opacity:1.000; stroke:none;" />
 <path d="  M 16,17  L 17,17  L 17,16  L 16,16  Z  " style="fill:rgb(137, 103, 39); fill-opacity:1.000; stroke:none;" />
 <path d="  M 18,4  L 18,5  L 28,5  L 28,4  Z  " style="fill:rgb(137, 103, 39); fill-opacity:1.000; stroke:none;" />
 <path d="  M 4,30  L 5,30  L 5,28  L 4,28  Z  " style="fill:rgb(104, 78, 30); fill-opacity:1.000; stroke:none;" />
 <path d="  M 6,19  L 6,18  L 5,18  L 5,19  Z  " style="fill:rgb(104, 78, 30); fill-opacity:1.000; stroke:none;" />
 <path d="  M 6,16  L 7,16  L 7,15  L 6,15  Z  " style="fill:rgb(104, 78, 30); fill-opacity:1.000; stroke:none;" />
 <path d="  M 8,8  L 8,7  L 7,7  L 7,8  Z  " style="fill:rgb(104, 78, 30); fill-opacity:1.000; stroke:none;" />
 <path d="  M 7,13  L 7,14  L 8,14  L 8,13  Z  " style="fill:rgb(104, 78, 30); fill-opacity:1.000; stroke:none;" />
 <path d="  M 9,8  L 8,8  L 8,9  L 9,9  Z  " style="fill:rgb(104, 78, 30); fill-opacity:1.000; stroke:none;" />
 <path d="  M 9,10  L 10,10  L 10,9  L 9,9  Z  " style="fill:rgb(104, 78, 30); fill-opacity:1.000; stroke:none;" />
 <path d="  M 13,7  L 13,8  L 14,8  L 14,7  Z  " style="fill:rgb(104, 78, 30); fill-opacity:1.000; stroke:none;" />
 <path d="  M 15,7  L 16,7  L 16,6  L 15,6  Z  " style="fill:rgb(104, 78, 30); fill-opacity:1.000; stroke:none;" />
 <path d="  M 17,18  L 18,18  L 18,17  L 17,17  Z  " style="fill:rgb(104, 78, 30); fill-opacity:1.000; stroke:none;" />
 <path d="  M 19,6  L 19,5  L 18,5  L 18,6  Z  " style="fill:rgb(104, 78, 30); fill-opacity:1.000; stroke:none;" />
 <path d="  M 19,19  L 19,18  L 18,18  L 18,19  Z  " style="fill:rgb(104, 78, 30); fill-opacity:1.000; stroke:none;" />
 <path d="  M 30,4  L 28,4  L 28,5  L 30,5  Z  " style="fill:rgb(104, 78, 30); fill-opacity:1.000; stroke:none;" />
 <path d="  M 6,7  L 5,7  L 5,8  L 6,8  Z  " style="fill:rgb(150, 150, 150); fill-opacity:1.000; stroke:none;" />
 <path d="  M 7,6  L 6,6  L 6,7  L 7,7  Z  " style="fill:rgb(150, 150, 150); fill-opacity:1.000; stroke:none;" />
 <path d="  M 9,10  L 8,10  L 8,12  L 10,12  L 10,11  L 9,11  Z  " style="fill:rgb(150, 150, 150); fill-opacity:1.000; stroke:none;" />
 <path d="  M 10,9  L 11,9  L 11,10  L 12,10  L 12,8  L 10,8  Z  " style="fill:rgb(150, 150, 150); fill-opacity:1.000; stroke:none;" />
 <path d="  M 20,19  L 19,19  L 19,20  L 20,20  Z  " style="fill:rgb(150, 150, 150); fill-opacity:1.000; stroke:none;" />
 <path d="  M 21,20  L 20,20  L 20,21  L 21,21  Z  " style="fill:rgb(150, 150, 150); fill-opacity:1.000; stroke:none;" />
 <path d="  M 22,21  L 21,21  L 21,22  L 22,22  Z  " style="fill:rgb(150, 150, 150); fill-opacity:1.000; stroke:none;" />
 <path d="  M 23,23  L 23,22  L 22,22  L 22,23  Z  " style="fill:rgb(150, 150, 150); fill-opacity:1.000; stroke:none;" />
 <path d="  M 5,8  L 5,9  L 6,9  L 6,8  Z  " style="fill:rgb(68, 68, 68); fill-opacity:1.000; stroke:none;" />
 <path d="  M 6,7  L 6,8  L 7,8  L 7,7  Z  " style="fill:rgb(68, 68, 68); fill-opacity:1.000; stroke:none;" />
 <path d="  M 9,29  L 9,28  L 6,28  L 6,29  Z  " style="fill:rgb(68, 68, 68); fill-opacity:1.000; stroke:none;" />
 <path d="  M 7,7  L 8,7  L 8,6  L 7,6  Z  " style="fill:rgb(68, 68, 68); fill-opacity:1.000; stroke:none;" />
 <path d="  M 7,11  L 8,11  L 8,10  L 7,10  Z  " style="fill:rgb(68, 68, 68); fill-opacity:1.000; stroke:none;" />
 <path d="  M 8,5  L 8,6  L 9,6  L 9,5  Z  " style="fill:rgb(68, 68, 68); fill-opacity:1.000; stroke:none;" />
 <path d="  M 10,13  L 9,13  L 9,14  L 10,14  Z  " style="fill:rgb(68, 68, 68); fill-opacity:1.000; stroke:none;" />
 <path d="  M 9,27  L 9,28  L 12,28  L 12,27  Z  " style="fill:rgb(68, 68, 68); fill-opacity:1.000; stroke:none;" />
 <path d="  M 10,7  L 10,8  L 11,8  L 11,7  Z  " style="fill:rgb(68, 68, 68); fill-opacity:1.000; stroke:none;" />
 <path d="  M 11,13  L 11,12  L 10,12  L 10,13  Z  " style="fill:rgb(68, 68, 68); fill-opacity:1.000; stroke:none;" />
 <path d="  M 12,10  L 12,11  L 13,11  L 13,10  Z  " style="fill:rgb(68, 68, 68); fill-opacity:1.000; stroke:none;" />
 <path d="  M 12,26  L 12,27  L 15,27  L 15,26  Z  " style="fill:rgb(68, 68, 68); fill-opacity:1.000; stroke:none;" />
 <path d="  M 13,10  L 14,10  L 14,9  L 13,9  Z  " style="fill:rgb(68, 68, 68); fill-opacity:1.000; stroke:none;" />
 <path d="  M 18,25  L 15,25  L 15,26  L 18,26  Z  " style="fill:rgb(68, 68, 68); fill-opacity:1.000; stroke:none;" />
 <path d="  M 21,25  L 21,24  L 18,24  L 18,25  Z  " style="fill:rgb(68, 68, 68); fill-opacity:1.000; stroke:none;" />
 <path d="  M 22,24  L 23,24  L 23,23  L 22,23  Z  " style="fill:rgb(68, 68, 68); fill-opacity:1.000; stroke:none;" />
 <path d="  M 24,23  L 24,21  L 23,21  L 23,23  Z  " style="fill:rgb(68, 68, 68); fill-opacity:1.000; stroke:none;" />
 <path d="  M 24,18  L 24,21  L 25,21  L 25,18  Z  " style="fill:rgb(68, 68, 68); fill-opacity:1.000; stroke:none;" />
 <path d="  M 25,18  L 26,18  L 26,15  L 25,15  Z  " style="fill:rgb(68, 68, 68); fill-opacity:1.000; stroke:none;" />
 <path d="  M 27,12  L 26,12  L 26,15  L 27,15  Z  " style="fill:rgb(68, 68, 68); fill-opacity:1.000; stroke:none;" />
 <path d="  M 27,9  L 27,12  L 28,12  L 28,9  Z  " style="fill:rgb(68, 68, 68); fill-opacity:1.000; stroke:none;" />
 <path d="  M 28,6  L 28,9  L 29,9  L 29,6  Z  " style="fill:rgb(68, 68, 68); fill-opacity:1.000; stroke:none;" />
 <path d="  M 19,21  L 20,21  L 20,20  L 19,20  Z  " style="fill:rgb(224, 224, 224); fill-opacity:1.000; stroke:none;" />
 <path d="  M 21,20  L 21,19  L 20,19  L 20,20  Z  " style="fill:rgb(224, 224, 224); fill-opacity:1.000; stroke:none;" />
 <path d="  M 20,21  L 20,22  L 21,22  L 21,21  Z  " style="fill:rgb(224, 224, 224); fill-opacity:1.000; stroke:none;" />
 <path d="  M 21,20  L 21,21  L 22,21  L 22,20  Z  " style="fill:rgb(224, 224, 224); fill-opacity:1.000; stroke:none;" />
 <path d="  M 22,22  L 21,22  L 21,23  L 22,23  Z  " style="fill:rgb(224, 224, 224); fill-opacity:1.000; stroke:none;" />
 <path d="  M 23,22  L 23,21  L 22,21  L 22,22  Z  " style="fill:rgb(224, 224, 224); fill-opacity:1.000; stroke:none;" />
</svg>
