<?xml version="1.0" encoding="UTF-8" standalone="no"?>
<!DOCTYPE svg PUBLIC "-//W3C//DTD SVG 1.1//EN" 
  "http://www.w3.org/Graphics/SVG/1.1/DTD/svg11.dtd">
<svg width="32" height="32"
	 xmlns="http://www.w3.org/2000/svg" version="1.1">
 <path d="  M 5,26  L 4,26  L 4,28  L 5,28  Z  " style="fill:rgb(172, 57, 0); fill-opacity:1.000; stroke:none;" />
 <path d="  M 5,26  L 6,26  L 6,24  L 5,24  Z  " style="fill:rgb(172, 57, 0); fill-opacity:1.000; stroke:none;" />
 <path d="  M 5,28  L 5,29  L 7,29  L 7,28  Z  " style="fill:rgb(172, 57, 0); fill-opacity:1.000; stroke:none;" />
 <path d="  M 6,24  L 7,24  L 7,22  L 6,22  Z  " style="fill:rgb(172, 57, 0); fill-opacity:1.000; stroke:none;" />
 <path d="  M 8,20  L 7,20  L 7,22  L 8,22  Z  " style="fill:rgb(172, 57, 0); fill-opacity:1.000; stroke:none;" />
 <path d="  M 9,20  L 9,18  L 8,18  L 8,20  Z  " style="fill:rgb(172, 57, 0); fill-opacity:1.000; stroke:none;" />
 <path d="  M 8,27  L 8,28  L 9,28  L 9,27  Z  " style="fill:rgb(172, 57, 0); fill-opacity:1.000; stroke:none;" />
 <path d="  M 10,18  L 10,16  L 9,16  L 9,18  Z  " style="fill:rgb(172, 57, 0); fill-opacity:1.000; stroke:none;" />
 <path d="  M 9,27  L 10,27  L 10,26  L 9,26  Z  " style="fill:rgb(172, 57, 0); fill-opacity:1.000; stroke:none;" />
 <path d="  M 10,16  L 11,16  L 11,14  L 10,14  Z  " style="fill:rgb(172, 57, 0); fill-opacity:1.000; stroke:none;" />
 <path d="  M 10,25  L 10,26  L 12,26  L 12,25  Z  " style="fill:rgb(172, 57, 0); fill-opacity:1.000; stroke:none;" />
 <path d="  M 11,14  L 12,14  L 12,12  L 11,12  Z  " style="fill:rgb(172, 57, 0); fill-opacity:1.000; stroke:none;" />
 <path d="  M 13,11  L 12,11  L 12,12  L 13,12  Z  " style="fill:rgb(172, 57, 0); fill-opacity:1.000; stroke:none;" />
 <path d="  M 13,25  L 13,24  L 12,24  L 12,25  Z  " style="fill:rgb(172, 57, 0); fill-opacity:1.000; stroke:none;" />
 <path d="  M 13,10  L 13,11  L 14,11  L 14,10  Z  " style="fill:rgb(172, 57, 0); fill-opacity:1.000; stroke:none;" />
 <path d="  M 13,23  L 13,24  L 15,24  L 15,23  Z  " style="fill:rgb(172, 57, 0); fill-opacity:1.000; stroke:none;" />
 <path d="  M 15,22  L 15,23  L 16,23  L 16,22  Z  " style="fill:rgb(172, 57, 0); fill-opacity:1.000; stroke:none;" />
 <path d="  M 16,21  L 16,22  L 18,22  L 18,21  Z  " style="fill:rgb(172, 57, 0); fill-opacity:1.000; stroke:none;" />
 <path d="  M 17,11  L 18,11  L 18,10  L 17,10  Z  " style="fill:rgb(172, 57, 0); fill-opacity:1.000; stroke:none;" />
 <path d="  M 19,21  L 19,20  L 18,20  L 18,21  Z  " style="fill:rgb(172, 57, 0); fill-opacity:1.000; stroke:none;" />
 <path d="  M 19,12  L 20,12  L 20,11  L 19,11  Z  " style="fill:rgb(172, 57, 0); fill-opacity:1.000; stroke:none;" />
 <path d="  M 22,13  L 21,13  L 21,12  L 20,12  L 20,14  L 21,14  L 21,18  L 20,18  L 20,19  L 19,19  L 19,20  L 21,20  L 21,19  L 22,19  Z  " style="fill:rgb(172, 57, 0); fill-opacity:1.000; stroke:none;" />
 <path d="  M 4,28  L 4,29  L 5,29  L 5,28  Z  " style="fill:rgb(117, 40, 2); fill-opacity:1.000; stroke:none;" />
 <path d="  M 5,30  L 7,30  L 7,29  L 5,29  Z  " style="fill:rgb(117, 40, 2); fill-opacity:1.000; stroke:none;" />
 <path d="  M 7,29  L 9,29  L 9,28  L 7,28  Z  " style="fill:rgb(117, 40, 2); fill-opacity:1.000; stroke:none;" />
 <path d="  M 10,27  L 9,27  L 9,28  L 10,28  Z  " style="fill:rgb(117, 40, 2); fill-opacity:1.000; stroke:none;" />
 <path d="  M 12,26  L 10,26  L 10,27  L 12,27  Z  " style="fill:rgb(117, 40, 2); fill-opacity:1.000; stroke:none;" />
 <path d="  M 13,25  L 12,25  L 12,26  L 13,26  Z  " style="fill:rgb(117, 40, 2); fill-opacity:1.000; stroke:none;" />
 <path d="  M 15,24  L 13,24  L 13,25  L 15,25  Z  " style="fill:rgb(117, 40, 2); fill-opacity:1.000; stroke:none;" />
 <path d="  M 16,23  L 15,23  L 15,24  L 16,24  Z  " style="fill:rgb(117, 40, 2); fill-opacity:1.000; stroke:none;" />
 <path d="  M 16,22  L 16,23  L 18,23  L 18,22  Z  " style="fill:rgb(117, 40, 2); fill-opacity:1.000; stroke:none;" />
 <path d="  M 18,21  L 18,22  L 19,22  L 19,21  Z  " style="fill:rgb(117, 40, 2); fill-opacity:1.000; stroke:none;" />
 <path d="  M 19,20  L 19,21  L 21,21  L 21,20  Z  " style="fill:rgb(117, 40, 2); fill-opacity:1.000; stroke:none;" />
 <path d="  M 21,20  L 22,20  L 22,19  L 21,19  Z  " style="fill:rgb(117, 40, 2); fill-opacity:1.000; stroke:none;" />
 <path d="  M 23,15  L 22,15  L 22,19  L 23,19  Z  " style="fill:rgb(117, 40, 2); fill-opacity:1.000; stroke:none;" />
 <path d="  M 7,26  L 7,27  L 6,27  L 6,26  L 5,26  L 5,28  L 8,28  L 8,27  L 9,27  L 9,26  Z  " style="fill:rgb(211, 106, 13); fill-opacity:1.000; stroke:none;" />
 <path d="  M 7,26  L 7,24  L 6,24  L 6,26  Z  " style="fill:rgb(211, 106, 13); fill-opacity:1.000; stroke:none;" />
 <path d="  M 7,22  L 7,23  L 8,23  L 8,22  Z  " style="fill:rgb(211, 106, 13); fill-opacity:1.000; stroke:none;" />
 <path d="  M 9,20  L 8,20  L 8,21  L 9,21  Z  " style="fill:rgb(211, 106, 13); fill-opacity:1.000; stroke:none;" />
 <path d="  M 9,20  L 10,20  L 10,18  L 9,18  Z  " style="fill:rgb(211, 106, 13); fill-opacity:1.000; stroke:none;" />
 <path d="  M 10,23  L 9,23  L 9,24  L 10,24  Z  " style="fill:rgb(211, 106, 13); fill-opacity:1.000; stroke:none;" />
 <path d="  M 10,26  L 10,25  L 9,25  L 9,26  Z  " style="fill:rgb(211, 106, 13); fill-opacity:1.000; stroke:none;" />
 <path d="  M 11,17  L 11,16  L 10,16  L 10,17  Z  " style="fill:rgb(211, 106, 13); fill-opacity:1.000; stroke:none;" />
 <path d="  M 13,24  L 13,23  L 11,23  L 11,24  L 10,24  L 10,25  L 12,25  L 12,24  Z  " style="fill:rgb(211, 106, 13); fill-opacity:1.000; stroke:none;" />
 <path d="  M 11,14  L 11,15  L 12,15  L 12,14  Z  " style="fill:rgb(211, 106, 13); fill-opacity:1.000; stroke:none;" />
 <path d="  M 13,12  L 12,12  L 12,13  L 13,13  Z  " style="fill:rgb(211, 106, 13); fill-opacity:1.000; stroke:none;" />
 <path d="  M 13,21  L 12,21  L 12,22  L 13,22  Z  " style="fill:rgb(211, 106, 13); fill-opacity:1.000; stroke:none;" />
 <path d="  M 13,12  L 14,12  L 14,11  L 13,11  Z  " style="fill:rgb(211, 106, 13); fill-opacity:1.000; stroke:none;" />
 <path d="  M 13,23  L 15,23  L 15,22  L 16,22  L 16,21  L 14,21  L 14,22  L 13,22  Z  " style="fill:rgb(211, 106, 13); fill-opacity:1.000; stroke:none;" />
 <path d="  M 17,10  L 14,10  L 14,11  L 17,11  Z  " style="fill:rgb(211, 106, 13); fill-opacity:1.000; stroke:none;" />
 <path d="  M 15,19  L 15,20  L 16,20  L 16,19  Z  " style="fill:rgb(211, 106, 13); fill-opacity:1.000; stroke:none;" />
 <path d="  M 18,21  L 18,20  L 19,20  L 19,19  L 20,19  L 20,18  L 19,18  L 19,17  L 18,17  L 18,19  L 17,19  L 17,20  L 16,20  L 16,21  Z  " style="fill:rgb(211, 106, 13); fill-opacity:1.000; stroke:none;" />
 <path d="  M 21,14  L 20,14  L 20,12  L 19,12  L 19,11  L 17,11  L 17,12  L 18,12  L 18,13  L 19,13  L 19,15  L 20,15  L 20,18  L 21,18  Z  " style="fill:rgb(211, 106, 13); fill-opacity:1.000; stroke:none;" />
 <path d="  M 18,17  L 18,16  L 17,16  L 17,17  Z  " style="fill:rgb(211, 106, 13); fill-opacity:1.000; stroke:none;" />
 <path d="  M 7,26  L 6,26  L 6,27  L 7,27  Z  " style="fill:rgb(255, 142, 9); fill-opacity:1.000; stroke:none;" />
 <path d="  M 7,24  L 8,24  L 8,23  L 7,23  Z  " style="fill:rgb(255, 142, 9); fill-opacity:1.000; stroke:none;" />
 <path d="  M 8,24  L 8,25  L 7,25  L 7,26  L 9,26  L 9,25  L 10,25  L 10,24  Z  " style="fill:rgb(255, 142, 9); fill-opacity:1.000; stroke:none;" />
 <path d="  M 8,21  L 8,23  L 9,23  L 9,21  Z  " style="fill:rgb(255, 142, 9); fill-opacity:1.000; stroke:none;" />
 <path d="  M 10,17  L 10,18  L 11,18  L 11,17  Z  " style="fill:rgb(255, 142, 9); fill-opacity:1.000; stroke:none;" />
 <path d="  M 11,20  L 11,19  L 10,19  L 10,20  Z  " style="fill:rgb(255, 142, 9); fill-opacity:1.000; stroke:none;" />
 <path d="  M 11,23  L 10,23  L 10,24  L 11,24  Z  " style="fill:rgb(255, 142, 9); fill-opacity:1.000; stroke:none;" />
 <path d="  M 11,15  L 11,17  L 12,17  L 12,15  Z  " style="fill:rgb(255, 142, 9); fill-opacity:1.000; stroke:none;" />
 <path d="  M 12,21  L 12,20  L 11,20  L 11,21  Z  " style="fill:rgb(255, 142, 9); fill-opacity:1.000; stroke:none;" />
 <path d="  M 13,23  L 13,22  L 11,22  L 11,23  Z  " style="fill:rgb(255, 142, 9); fill-opacity:1.000; stroke:none;" />
 <path d="  M 13,13  L 12,13  L 12,14  L 14,14  L 14,12  L 13,12  Z  " style="fill:rgb(255, 142, 9); fill-opacity:1.000; stroke:none;" />
 <path d="  M 14,18  L 14,17  L 12,17  L 12,18  Z  " style="fill:rgb(255, 142, 9); fill-opacity:1.000; stroke:none;" />
 <path d="  M 13,22  L 14,22  L 14,21  L 13,21  Z  " style="fill:rgb(255, 142, 9); fill-opacity:1.000; stroke:none;" />
 <path d="  M 14,11  L 14,12  L 17,12  L 17,11  Z  " style="fill:rgb(255, 142, 9); fill-opacity:1.000; stroke:none;" />
 <path d="  M 14,14  L 14,15  L 16,15  L 16,14  Z  " style="fill:rgb(255, 142, 9); fill-opacity:1.000; stroke:none;" />
 <path d="  M 15,18  L 14,18  L 14,19  L 15,19  Z  " style="fill:rgb(255, 142, 9); fill-opacity:1.000; stroke:none;" />
 <path d="  M 16,20  L 14,20  L 14,21  L 16,21  Z  " style="fill:rgb(255, 142, 9); fill-opacity:1.000; stroke:none;" />
 <path d="  M 17,15  L 16,15  L 16,16  L 17,16  Z  " style="fill:rgb(255, 142, 9); fill-opacity:1.000; stroke:none;" />
 <path d="  M 16,20  L 17,20  L 17,19  L 18,19  L 18,17  L 17,17  L 17,18  L 16,18  Z  " style="fill:rgb(255, 142, 9); fill-opacity:1.000; stroke:none;" />
 <path d="  M 18,12  L 17,12  L 17,13  L 18,13  Z  " style="fill:rgb(255, 142, 9); fill-opacity:1.000; stroke:none;" />
 <path d="  M 19,14  L 19,13  L 18,13  L 18,14  Z  " style="fill:rgb(255, 142, 9); fill-opacity:1.000; stroke:none;" />
 <path d="  M 20,15  L 19,15  L 19,16  L 18,16  L 18,17  L 19,17  L 19,18  L 20,18  Z  " style="fill:rgb(255, 142, 9); fill-opacity:1.000; stroke:none;" />
 <path d="  M 8,25  L 8,24  L 7,24  L 7,25  Z  " style="fill:rgb(255, 167, 63); fill-opacity:1.000; stroke:none;" />
 <path d="  M 9,24  L 9,23  L 8,23  L 8,24  Z  " style="fill:rgb(255, 167, 63); fill-opacity:1.000; stroke:none;" />
 <path d="  M 9,20  L 9,23  L 11,23  L 11,22  L 10,22  L 10,21  L 11,21  L 11,20  Z  " style="fill:rgb(255, 167, 63); fill-opacity:1.000; stroke:none;" />
 <path d="  M 11,18  L 10,18  L 10,19  L 11,19  Z  " style="fill:rgb(255, 167, 63); fill-opacity:1.000; stroke:none;" />
 <path d="  M 12,17  L 11,17  L 11,18  L 12,18  Z  " style="fill:rgb(255, 167, 63); fill-opacity:1.000; stroke:none;" />
 <path d="  M 12,19  L 11,19  L 11,20  L 12,20  Z  " style="fill:rgb(255, 167, 63); fill-opacity:1.000; stroke:none;" />
 <path d="  M 12,21  L 11,21  L 11,22  L 12,22  Z  " style="fill:rgb(255, 167, 63); fill-opacity:1.000; stroke:none;" />
 <path d="  M 13,17  L 13,15  L 14,15  L 14,14  L 12,14  L 12,17  Z  " style="fill:rgb(255, 167, 63); fill-opacity:1.000; stroke:none;" />
 <path d="  M 14,18  L 13,18  L 13,20  L 12,20  L 12,21  L 14,21  L 14,20  L 15,20  L 15,19  L 14,19  Z  " style="fill:rgb(255, 167, 63); fill-opacity:1.000; stroke:none;" />
 <path d="  M 14,12  L 14,14  L 15,14  L 15,12  Z  " style="fill:rgb(255, 167, 63); fill-opacity:1.000; stroke:none;" />
 <path d="  M 17,16  L 16,16  L 16,17  L 14,17  L 14,18  L 15,18  L 15,19  L 16,19  L 16,18  L 17,18  Z  " style="fill:rgb(255, 167, 63); fill-opacity:1.000; stroke:none;" />
 <path d="  M 15,15  L 15,16  L 16,16  L 16,15  Z  " style="fill:rgb(255, 167, 63); fill-opacity:1.000; stroke:none;" />
 <path d="  M 16,12  L 16,13  L 17,13  L 17,12  Z  " style="fill:rgb(255, 167, 63); fill-opacity:1.000; stroke:none;" />
 <path d="  M 17,15  L 17,16  L 19,16  L 19,14  L 18,14  L 18,13  L 17,13  L 17,14  L 16,14  L 16,15  Z  " style="fill:rgb(255, 167, 63); fill-opacity:1.000; stroke:none;" />
 <path d="  M 11,22  L 11,21  L 10,21  L 10,22  Z  " style="fill:rgb(255, 193, 119); fill-opacity:1.000; stroke:none;" />
 <path d="  M 11,18  L 11,19  L 12,19  L 12,20  L 13,20  L 13,18  Z  " style="fill:rgb(255, 193, 119); fill-opacity:1.000; stroke:none;" />
 <path d="  M 16,17  L 16,16  L 15,16  L 15,15  L 13,15  L 13,17  Z  " style="fill:rgb(255, 193, 119); fill-opacity:1.000; stroke:none;" />
 <path d="  M 17,14  L 17,13  L 16,13  L 16,12  L 15,12  L 15,14  Z  " style="fill:rgb(255, 193, 119); fill-opacity:1.000; stroke:none;" />
 <path d="  M 11,7  L 11,8  L 12,8  L 12,7  Z  " style="fill:rgb(31, 154, 28); fill-opacity:1.000; stroke:none;" />
 <path d="  M 13,6  L 12,6  L 12,7  L 13,7  Z  " style="fill:rgb(31, 154, 28); fill-opacity:1.000; stroke:none;" />
 <path d="  M 13,9  L 12,9  L 12,10  L 13,10  Z  " style="fill:rgb(31, 154, 28); fill-opacity:1.000; stroke:none;" />
 <path d="  M 15,9  L 15,7  L 14,7  L 14,8  L 13,8  L 13,9  Z  " style="fill:rgb(31, 154, 28); fill-opacity:1.000; stroke:none;" />
 <path d="  M 15,2  L 14,2  L 14,3  L 15,3  Z  " style="fill:rgb(31, 154, 28); fill-opacity:1.000; stroke:none;" />
 <path d="  M 16,4  L 16,3  L 15,3  L 15,4  Z  " style="fill:rgb(31, 154, 28); fill-opacity:1.000; stroke:none;" />
 <path d="  M 16,8  L 17,8  L 17,4  L 16,4  Z  " style="fill:rgb(31, 154, 28); fill-opacity:1.000; stroke:none;" />
 <path d="  M 18,2  L 17,2  L 17,3  L 18,3  Z  " style="fill:rgb(31, 154, 28); fill-opacity:1.000; stroke:none;" />
 <path d="  M 18,7  L 18,8  L 17,8  L 17,10  L 18,10  L 18,9  L 19,9  L 19,7  Z  " style="fill:rgb(31, 154, 28); fill-opacity:1.000; stroke:none;" />
 <path d="  M 19,4  L 19,3  L 18,3  L 18,4  Z  " style="fill:rgb(31, 154, 28); fill-opacity:1.000; stroke:none;" />
 <path d="  M 19,4  L 19,7  L 20,7  L 20,4  Z  " style="fill:rgb(31, 154, 28); fill-opacity:1.000; stroke:none;" />
 <path d="  M 21,8  L 20,8  L 20,11  L 22,11  L 22,10  L 21,10  Z  " style="fill:rgb(31, 154, 28); fill-opacity:1.000; stroke:none;" />
 <path d="  M 22,6  L 21,6  L 21,7  L 22,7  Z  " style="fill:rgb(31, 154, 28); fill-opacity:1.000; stroke:none;" />
 <path d="  M 24,6  L 24,5  L 22,5  L 22,6  Z  " style="fill:rgb(31, 154, 28); fill-opacity:1.000; stroke:none;" />
 <path d="  M 22,12  L 23,12  L 23,11  L 22,11  Z  " style="fill:rgb(31, 154, 28); fill-opacity:1.000; stroke:none;" />
 <path d="  M 24,11  L 24,9  L 23,9  L 23,11  Z  " style="fill:rgb(31, 154, 28); fill-opacity:1.000; stroke:none;" />
 <path d="  M 26,6  L 25,6  L 25,7  L 24,7  L 24,9  L 25,9  L 25,8  L 26,8  Z  " style="fill:rgb(31, 154, 28); fill-opacity:1.000; stroke:none;" />
 <path d="  M 24,14  L 24,16  L 25,16  L 25,14  Z  " style="fill:rgb(31, 154, 28); fill-opacity:1.000; stroke:none;" />
 <path d="  M 26,5  L 26,6  L 27,6  L 27,4  L 25,4  L 25,5  Z  " style="fill:rgb(31, 154, 28); fill-opacity:1.000; stroke:none;" />
 <path d="  M 25,12  L 25,13  L 28,13  L 28,12  L 27,12  L 27,11  L 26,11  L 26,12  Z  " style="fill:rgb(31, 154, 28); fill-opacity:1.000; stroke:none;" />
 <path d="  M 25,17  L 26,17  L 26,16  L 25,16  Z  " style="fill:rgb(31, 154, 28); fill-opacity:1.000; stroke:none;" />
 <path d="  M 28,14  L 29,14  L 29,13  L 28,13  Z  " style="fill:rgb(31, 154, 28); fill-opacity:1.000; stroke:none;" />
 <path d="  M 12,10  L 11,10  L 11,11  L 12,11  Z  " style="fill:rgb(3, 103, 3); fill-opacity:1.000; stroke:none;" />
 <path d="  M 13,10  L 15,10  L 15,9  L 13,9  Z  " style="fill:rgb(3, 103, 3); fill-opacity:1.000; stroke:none;" />
 <path d="  M 16,5  L 15,5  L 15,6  L 14,6  L 14,7  L 15,7  L 15,9  L 16,9  Z  " style="fill:rgb(3, 103, 3); fill-opacity:1.000; stroke:none;" />
 <path d="  M 16,10  L 17,10  L 17,9  L 16,9  Z  " style="fill:rgb(3, 103, 3); fill-opacity:1.000; stroke:none;" />
 <path d="  M 20,7  L 19,7  L 19,9  L 18,9  L 18,10  L 19,10  L 19,11  L 20,11  L 20,8  L 21,8  L 21,6  L 22,6  L 22,5  L 21,5  L 21,4  L 20,4  Z  " style="fill:rgb(3, 103, 3); fill-opacity:1.000; stroke:none;" />
 <path d="  M 19,4  L 20,4  L 20,3  L 19,3  Z  " style="fill:rgb(3, 103, 3); fill-opacity:1.000; stroke:none;" />
 <path d="  M 21,11  L 21,12  L 22,12  L 22,11  Z  " style="fill:rgb(3, 103, 3); fill-opacity:1.000; stroke:none;" />
 <path d="  M 23,3  L 22,3  L 22,5  L 23,5  Z  " style="fill:rgb(3, 103, 3); fill-opacity:1.000; stroke:none;" />
 <path d="  M 23,13  L 23,12  L 22,12  L 22,13  Z  " style="fill:rgb(3, 103, 3); fill-opacity:1.000; stroke:none;" />
 <path d="  M 23,11  L 23,12  L 24,12  L 24,11  Z  " style="fill:rgb(3, 103, 3); fill-opacity:1.000; stroke:none;" />
 <path d="  M 24,16  L 24,13  L 23,13  L 23,16  Z  " style="fill:rgb(3, 103, 3); fill-opacity:1.000; stroke:none;" />
 <path d="  M 28,10  L 28,9  L 26,9  L 26,8  L 25,8  L 25,9  L 24,9  L 24,11  L 25,11  L 25,10  L 26,10  L 26,11  L 27,11  L 27,10  Z  " style="fill:rgb(3, 103, 3); fill-opacity:1.000; stroke:none;" />
 <path d="  M 24,13  L 25,13  L 25,12  L 24,12  Z  " style="fill:rgb(3, 103, 3); fill-opacity:1.000; stroke:none;" />
 <path d="  M 25,16  L 24,16  L 24,17  L 25,17  Z  " style="fill:rgb(3, 103, 3); fill-opacity:1.000; stroke:none;" />
 <path d="  M 26,12  L 26,11  L 25,11  L 25,12  Z  " style="fill:rgb(3, 103, 3); fill-opacity:1.000; stroke:none;" />
 <path d="  M 27,14  L 28,14  L 28,13  L 25,13  L 25,14  L 26,14  L 26,15  L 27,15  Z  " style="fill:rgb(3, 103, 3); fill-opacity:1.000; stroke:none;" />
 <path d="  M 26,16  L 26,15  L 25,15  L 25,16  Z  " style="fill:rgb(3, 103, 3); fill-opacity:1.000; stroke:none;" />
 <path d="  M 26,8  L 27,8  L 27,6  L 26,6  Z  " style="fill:rgb(3, 103, 3); fill-opacity:1.000; stroke:none;" />
 <path d="  M 26,17  L 27,17  L 27,16  L 26,16  Z  " style="fill:rgb(3, 103, 3); fill-opacity:1.000; stroke:none;" />
 <path d="  M 28,4  L 27,4  L 27,6  L 28,6  Z  " style="fill:rgb(3, 103, 3); fill-opacity:1.000; stroke:none;" />
 <path d="  M 27,12  L 28,12  L 28,11  L 27,11  Z  " style="fill:rgb(3, 103, 3); fill-opacity:1.000; stroke:none;" />
 <path d="  M 28,13  L 29,13  L 29,12  L 28,12  Z  " style="fill:rgb(3, 103, 3); fill-opacity:1.000; stroke:none;" />
 <path d="  M 14,6  L 13,6  L 13,7  L 12,7  L 12,8  L 14,8  Z  " style="fill:rgb(51, 190, 48); fill-opacity:1.000; stroke:none;" />
 <path d="  M 17,8  L 18,8  L 18,7  L 19,7  L 19,4  L 18,4  L 18,3  L 17,3  L 17,2  L 15,2  L 15,3  L 16,3  L 16,4  L 17,4  Z  " style="fill:rgb(51, 190, 48); fill-opacity:1.000; stroke:none;" />
 <path d="  M 17,8  L 16,8  L 16,9  L 17,9  Z  " style="fill:rgb(51, 190, 48); fill-opacity:1.000; stroke:none;" />
 <path d="  M 25,7  L 25,6  L 26,6  L 26,5  L 24,5  L 24,6  L 22,6  L 22,7  L 21,7  L 21,10  L 22,10  L 22,11  L 23,11  L 23,9  L 24,9  L 24,7  Z  " style="fill:rgb(51, 190, 48); fill-opacity:1.000; stroke:none;" />
 <path d="  M 12,10  L 12,11  L 13,11  L 13,10  Z  " style="fill:rgb(0, 80, 0); fill-opacity:1.000; stroke:none;" />
 <path d="  M 16,10  L 16,9  L 15,9  L 15,10  Z  " style="fill:rgb(0, 80, 0); fill-opacity:1.000; stroke:none;" />
 <path d="  M 19,11  L 19,10  L 18,10  L 18,11  Z  " style="fill:rgb(0, 80, 0); fill-opacity:1.000; stroke:none;" />
 <path d="  M 21,12  L 21,11  L 20,11  L 20,12  Z  " style="fill:rgb(0, 80, 0); fill-opacity:1.000; stroke:none;" />
 <path d="  M 21,12  L 21,13  L 22,13  L 22,12  Z  " style="fill:rgb(0, 80, 0); fill-opacity:1.000; stroke:none;" />
 <path d="  M 22,13  L 22,15  L 23,15  L 23,13  Z  " style="fill:rgb(0, 80, 0); fill-opacity:1.000; stroke:none;" />
 <path d="  M 23,13  L 24,13  L 24,12  L 23,12  Z  " style="fill:rgb(0, 80, 0); fill-opacity:1.000; stroke:none;" />
 <path d="  M 23,20  L 24,20  L 24,19  L 25,19  L 25,18  L 27,18  L 27,19  L 28,19  L 28,16  L 27,16  L 27,17  L 24,17  L 24,16  L 23,16  Z  " style="fill:rgb(0, 80, 0); fill-opacity:1.000; stroke:none;" />
 <path d="  M 25,12  L 25,11  L 24,11  L 24,12  Z  " style="fill:rgb(0, 80, 0); fill-opacity:1.000; stroke:none;" />
 <path d="  M 24,13  L 24,14  L 25,14  L 25,13  Z  " style="fill:rgb(0, 80, 0); fill-opacity:1.000; stroke:none;" />
 <path d="  M 25,10  L 25,11  L 26,11  L 26,10  Z  " style="fill:rgb(0, 80, 0); fill-opacity:1.000; stroke:none;" />
 <path d="  M 25,15  L 26,15  L 26,14  L 25,14  Z  " style="fill:rgb(0, 80, 0); fill-opacity:1.000; stroke:none;" />
 <path d="  M 27,15  L 26,15  L 26,16  L 27,16  Z  " style="fill:rgb(0, 80, 0); fill-opacity:1.000; stroke:none;" />
 <path d="  M 29,15  L 29,16  L 30,16  L 30,13  L 29,13  L 29,14  L 27,14  L 27,15  Z  " style="fill:rgb(0, 80, 0); fill-opacity:1.000; stroke:none;" />
</svg>
