<?xml version="1.0" encoding="UTF-8" standalone="no"?>
<!DOCTYPE svg PUBLIC "-//W3C//DTD SVG 1.1//EN" 
  "http://www.w3.org/Graphics/SVG/1.1/DTD/svg11.dtd">
<svg width="32" height="32"
	 xmlns="http://www.w3.org/2000/svg" version="1.1">
 <path d="  M 7,19  L 6,19  L 6,22  L 7,22  Z  " style="fill:rgb(112, 68, 37); fill-opacity:1.000; stroke:none;" />
 <path d="  M 7,19  L 10,19  L 10,18  L 7,18  Z  " style="fill:rgb(112, 68, 37); fill-opacity:1.000; stroke:none;" />
 <path d="  M 7,22  L 7,23  L 8,23  L 8,22  Z  " style="fill:rgb(112, 68, 37); fill-opacity:1.000; stroke:none;" />
 <path d="  M 8,13  L 9,13  L 9,12  L 8,12  Z  " style="fill:rgb(112, 68, 37); fill-opacity:1.000; stroke:none;" />
 <path d="  M 9,20  L 8,20  L 8,22  L 10,22  L 10,21  L 9,21  Z  " style="fill:rgb(112, 68, 37); fill-opacity:1.000; stroke:none;" />
 <path d="  M 9,24  L 9,23  L 8,23  L 8,24  Z  " style="fill:rgb(112, 68, 37); fill-opacity:1.000; stroke:none;" />
 <path d="  M 10,12  L 10,11  L 9,11  L 9,12  Z  " style="fill:rgb(112, 68, 37); fill-opacity:1.000; stroke:none;" />
 <path d="  M 10,16  L 10,14  L 11,14  L 11,13  L 12,13  L 12,12  L 10,12  L 10,13  L 9,13  L 9,16  Z  " style="fill:rgb(112, 68, 37); fill-opacity:1.000; stroke:none;" />
 <path d="  M 10,25  L 10,24  L 9,24  L 9,25  Z  " style="fill:rgb(112, 68, 37); fill-opacity:1.000; stroke:none;" />
 <path d="  M 10,10  L 10,11  L 12,11  L 12,10  Z  " style="fill:rgb(112, 68, 37); fill-opacity:1.000; stroke:none;" />
 <path d="  M 11,17  L 11,16  L 10,16  L 10,17  Z  " style="fill:rgb(112, 68, 37); fill-opacity:1.000; stroke:none;" />
 <path d="  M 11,20  L 11,19  L 10,19  L 10,20  Z  " style="fill:rgb(112, 68, 37); fill-opacity:1.000; stroke:none;" />
 <path d="  M 11,23  L 10,23  L 10,24  L 11,24  Z  " style="fill:rgb(112, 68, 37); fill-opacity:1.000; stroke:none;" />
 <path d="  M 12,16  L 12,15  L 11,15  L 11,16  Z  " style="fill:rgb(112, 68, 37); fill-opacity:1.000; stroke:none;" />
 <path d="  M 13,13  L 12,13  L 12,15  L 13,15  Z  " style="fill:rgb(112, 68, 37); fill-opacity:1.000; stroke:none;" />
 <path d="  M 15,18  L 15,17  L 14,17  L 14,18  Z  " style="fill:rgb(112, 68, 37); fill-opacity:1.000; stroke:none;" />
 <path d="  M 16,17  L 16,16  L 15,16  L 15,17  Z  " style="fill:rgb(112, 68, 37); fill-opacity:1.000; stroke:none;" />
 <path d="  M 17,19  L 17,18  L 15,18  L 15,19  Z  " style="fill:rgb(112, 68, 37); fill-opacity:1.000; stroke:none;" />
 <path d="  M 17,15  L 16,15  L 16,16  L 17,16  Z  " style="fill:rgb(112, 68, 37); fill-opacity:1.000; stroke:none;" />
 <path d="  M 17,24  L 17,23  L 16,23  L 16,24  Z  " style="fill:rgb(112, 68, 37); fill-opacity:1.000; stroke:none;" />
 <path d="  M 17,26  L 17,25  L 16,25  L 16,26  Z  " style="fill:rgb(112, 68, 37); fill-opacity:1.000; stroke:none;" />
 <path d="  M 17,9  L 18,9  L 18,7  L 17,7  Z  " style="fill:rgb(112, 68, 37); fill-opacity:1.000; stroke:none;" />
 <path d="  M 18,14  L 17,14  L 17,15  L 18,15  Z  " style="fill:rgb(112, 68, 37); fill-opacity:1.000; stroke:none;" />
 <path d="  M 17,18  L 18,18  L 18,17  L 17,17  Z  " style="fill:rgb(112, 68, 37); fill-opacity:1.000; stroke:none;" />
 <path d="  M 17,22  L 17,23  L 19,23  L 19,22  Z  " style="fill:rgb(112, 68, 37); fill-opacity:1.000; stroke:none;" />
 <path d="  M 18,7  L 20,7  L 20,8  L 21,8  L 21,6  L 18,6  Z  " style="fill:rgb(112, 68, 37); fill-opacity:1.000; stroke:none;" />
 <path d="  M 18,9  L 18,10  L 19,10  L 19,9  Z  " style="fill:rgb(112, 68, 37); fill-opacity:1.000; stroke:none;" />
 <path d="  M 19,16  L 19,15  L 18,15  L 18,16  Z  " style="fill:rgb(112, 68, 37); fill-opacity:1.000; stroke:none;" />
 <path d="  M 18,25  L 18,26  L 20,26  L 20,25  Z  " style="fill:rgb(112, 68, 37); fill-opacity:1.000; stroke:none;" />
 <path d="  M 19,8  L 19,9  L 20,9  L 20,8  Z  " style="fill:rgb(112, 68, 37); fill-opacity:1.000; stroke:none;" />
 <path d="  M 21,10  L 19,10  L 19,11  L 21,11  Z  " style="fill:rgb(112, 68, 37); fill-opacity:1.000; stroke:none;" />
 <path d="  M 19,21  L 19,22  L 20,22  L 20,21  Z  " style="fill:rgb(112, 68, 37); fill-opacity:1.000; stroke:none;" />
 <path d="  M 21,22  L 20,22  L 20,23  L 21,23  Z  " style="fill:rgb(112, 68, 37); fill-opacity:1.000; stroke:none;" />
 <path d="  M 20,24  L 20,25  L 21,25  L 21,24  Z  " style="fill:rgb(112, 68, 37); fill-opacity:1.000; stroke:none;" />
 <path d="  M 22,10  L 22,8  L 21,8  L 21,10  Z  " style="fill:rgb(112, 68, 37); fill-opacity:1.000; stroke:none;" />
 <path d="  M 24,19  L 24,17  L 23,17  L 23,19  Z  " style="fill:rgb(112, 68, 37); fill-opacity:1.000; stroke:none;" />
 <path d="  M 25,17  L 25,15  L 24,15  L 24,17  Z  " style="fill:rgb(112, 68, 37); fill-opacity:1.000; stroke:none;" />
 <path d="  M 25,20  L 25,19  L 24,19  L 24,20  Z  " style="fill:rgb(112, 68, 37); fill-opacity:1.000; stroke:none;" />
 <path d="  M 27,15  L 27,14  L 25,14  L 25,15  Z  " style="fill:rgb(112, 68, 37); fill-opacity:1.000; stroke:none;" />
 <path d="  M 25,18  L 25,19  L 26,19  L 26,18  Z  " style="fill:rgb(112, 68, 37); fill-opacity:1.000; stroke:none;" />
 <path d="  M 25,20  L 25,21  L 26,21  L 26,20  Z  " style="fill:rgb(112, 68, 37); fill-opacity:1.000; stroke:none;" />
 <path d="  M 26,17  L 27,17  L 27,16  L 26,16  Z  " style="fill:rgb(112, 68, 37); fill-opacity:1.000; stroke:none;" />
 <path d="  M 27,19  L 26,19  L 26,20  L 27,20  Z  " style="fill:rgb(112, 68, 37); fill-opacity:1.000; stroke:none;" />
 <path d="  M 27,15  L 27,16  L 28,16  L 28,15  Z  " style="fill:rgb(112, 68, 37); fill-opacity:1.000; stroke:none;" />
 <path d="  M 28,17  L 27,17  L 27,18  L 28,18  Z  " style="fill:rgb(112, 68, 37); fill-opacity:1.000; stroke:none;" />
 <path d="  M 6,23  L 7,23  L 7,22  L 6,22  Z  " style="fill:rgb(76, 43, 19); fill-opacity:1.000; stroke:none;" />
 <path d="  M 7,24  L 8,24  L 8,23  L 7,23  Z  " style="fill:rgb(76, 43, 19); fill-opacity:1.000; stroke:none;" />
 <path d="  M 8,14  L 9,14  L 9,13  L 8,13  Z  " style="fill:rgb(76, 43, 19); fill-opacity:1.000; stroke:none;" />
 <path d="  M 8,24  L 8,25  L 9,25  L 9,24  Z  " style="fill:rgb(76, 43, 19); fill-opacity:1.000; stroke:none;" />
 <path d="  M 9,23  L 10,23  L 10,22  L 9,22  Z  " style="fill:rgb(76, 43, 19); fill-opacity:1.000; stroke:none;" />
 <path d="  M 10,16  L 11,16  L 11,15  L 12,15  L 12,13  L 11,13  L 11,14  L 10,14  Z  " style="fill:rgb(76, 43, 19); fill-opacity:1.000; stroke:none;" />
 <path d="  M 11,20  L 10,20  L 10,21  L 11,21  Z  " style="fill:rgb(76, 43, 19); fill-opacity:1.000; stroke:none;" />
 <path d="  M 11,25  L 11,24  L 10,24  L 10,25  Z  " style="fill:rgb(76, 43, 19); fill-opacity:1.000; stroke:none;" />
 <path d="  M 12,17  L 12,16  L 11,16  L 11,17  Z  " style="fill:rgb(76, 43, 19); fill-opacity:1.000; stroke:none;" />
 <path d="  M 12,21  L 11,21  L 11,22  L 12,22  Z  " style="fill:rgb(76, 43, 19); fill-opacity:1.000; stroke:none;" />
 <path d="  M 13,11  L 12,11  L 12,13  L 13,13  Z  " style="fill:rgb(76, 43, 19); fill-opacity:1.000; stroke:none;" />
 <path d="  M 12,16  L 13,16  L 13,15  L 12,15  Z  " style="fill:rgb(76, 43, 19); fill-opacity:1.000; stroke:none;" />
 <path d="  M 15,18  L 14,18  L 14,19  L 15,19  Z  " style="fill:rgb(76, 43, 19); fill-opacity:1.000; stroke:none;" />
 <path d="  M 15,19  L 15,20  L 16,20  L 16,19  Z  " style="fill:rgb(76, 43, 19); fill-opacity:1.000; stroke:none;" />
 <path d="  M 16,24  L 15,24  L 15,26  L 16,26  Z  " style="fill:rgb(76, 43, 19); fill-opacity:1.000; stroke:none;" />
 <path d="  M 16,18  L 17,18  L 17,17  L 16,17  Z  " style="fill:rgb(76, 43, 19); fill-opacity:1.000; stroke:none;" />
 <path d="  M 16,26  L 16,27  L 17,27  L 17,26  Z  " style="fill:rgb(76, 43, 19); fill-opacity:1.000; stroke:none;" />
 <path d="  M 18,10  L 18,9  L 17,9  L 17,10  Z  " style="fill:rgb(76, 43, 19); fill-opacity:1.000; stroke:none;" />
 <path d="  M 18,17  L 18,16  L 17,16  L 17,17  Z  " style="fill:rgb(76, 43, 19); fill-opacity:1.000; stroke:none;" />
 <path d="  M 18,19  L 18,18  L 17,18  L 17,19  Z  " style="fill:rgb(76, 43, 19); fill-opacity:1.000; stroke:none;" />
 <path d="  M 19,25  L 19,24  L 17,24  L 17,25  Z  " style="fill:rgb(76, 43, 19); fill-opacity:1.000; stroke:none;" />
 <path d="  M 19,11  L 19,10  L 18,10  L 18,11  Z  " style="fill:rgb(76, 43, 19); fill-opacity:1.000; stroke:none;" />
 <path d="  M 18,14  L 18,15  L 19,15  L 19,14  Z  " style="fill:rgb(76, 43, 19); fill-opacity:1.000; stroke:none;" />
 <path d="  M 18,17  L 18,18  L 19,18  L 19,17  Z  " style="fill:rgb(76, 43, 19); fill-opacity:1.000; stroke:none;" />
 <path d="  M 19,15  L 19,16  L 20,16  L 20,15  Z  " style="fill:rgb(76, 43, 19); fill-opacity:1.000; stroke:none;" />
 <path d="  M 19,24  L 20,24  L 20,23  L 19,23  Z  " style="fill:rgb(76, 43, 19); fill-opacity:1.000; stroke:none;" />
 <path d="  M 21,10  L 21,9  L 20,9  L 20,10  Z  " style="fill:rgb(76, 43, 19); fill-opacity:1.000; stroke:none;" />
 <path d="  M 20,21  L 20,22  L 21,22  L 21,21  Z  " style="fill:rgb(76, 43, 19); fill-opacity:1.000; stroke:none;" />
 <path d="  M 21,8  L 22,8  L 22,7  L 21,7  Z  " style="fill:rgb(76, 43, 19); fill-opacity:1.000; stroke:none;" />
 <path d="  M 22,11  L 22,10  L 21,10  L 21,11  Z  " style="fill:rgb(76, 43, 19); fill-opacity:1.000; stroke:none;" />
 <path d="  M 22,22  L 21,22  L 21,23  L 22,23  Z  " style="fill:rgb(76, 43, 19); fill-opacity:1.000; stroke:none;" />
 <path d="  M 23,8  L 22,8  L 22,9  L 23,9  Z  " style="fill:rgb(76, 43, 19); fill-opacity:1.000; stroke:none;" />
 <path d="  M 23,20  L 24,20  L 24,19  L 23,19  Z  " style="fill:rgb(76, 43, 19); fill-opacity:1.000; stroke:none;" />
 <path d="  M 25,21  L 25,20  L 24,20  L 24,21  Z  " style="fill:rgb(76, 43, 19); fill-opacity:1.000; stroke:none;" />
 <path d="  M 26,18  L 26,17  L 25,17  L 25,18  Z  " style="fill:rgb(76, 43, 19); fill-opacity:1.000; stroke:none;" />
 <path d="  M 26,20  L 26,21  L 27,21  L 27,20  Z  " style="fill:rgb(76, 43, 19); fill-opacity:1.000; stroke:none;" />
 <path d="  M 27,15  L 28,15  L 28,14  L 27,14  Z  " style="fill:rgb(76, 43, 19); fill-opacity:1.000; stroke:none;" />
 <path d="  M 27,19  L 28,19  L 28,18  L 27,18  Z  " style="fill:rgb(76, 43, 19); fill-opacity:1.000; stroke:none;" />
 <path d="  M 29,16  L 29,15  L 28,15  L 28,16  Z  " style="fill:rgb(76, 43, 19); fill-opacity:1.000; stroke:none;" />
 <path d="  M 10,19  L 7,19  L 7,22  L 8,22  L 8,20  L 9,20  L 9,21  L 10,21  Z  " style="fill:rgb(151, 103, 70); fill-opacity:1.000; stroke:none;" />
 <path d="  M 9,22  L 8,22  L 8,23  L 9,23  Z  " style="fill:rgb(151, 103, 70); fill-opacity:1.000; stroke:none;" />
 <path d="  M 10,12  L 9,12  L 9,13  L 10,13  Z  " style="fill:rgb(151, 103, 70); fill-opacity:1.000; stroke:none;" />
 <path d="  M 10,23  L 9,23  L 9,24  L 10,24  Z  " style="fill:rgb(151, 103, 70); fill-opacity:1.000; stroke:none;" />
 <path d="  M 12,11  L 10,11  L 10,12  L 12,12  Z  " style="fill:rgb(151, 103, 70); fill-opacity:1.000; stroke:none;" />
 <path d="  M 11,21  L 10,21  L 10,23  L 11,23  Z  " style="fill:rgb(151, 103, 70); fill-opacity:1.000; stroke:none;" />
 <path d="  M 16,17  L 15,17  L 15,18  L 16,18  Z  " style="fill:rgb(151, 103, 70); fill-opacity:1.000; stroke:none;" />
 <path d="  M 16,17  L 17,17  L 17,16  L 16,16  Z  " style="fill:rgb(151, 103, 70); fill-opacity:1.000; stroke:none;" />
 <path d="  M 16,25  L 17,25  L 17,24  L 16,24  Z  " style="fill:rgb(151, 103, 70); fill-opacity:1.000; stroke:none;" />
 <path d="  M 17,15  L 17,16  L 18,16  L 18,15  Z  " style="fill:rgb(151, 103, 70); fill-opacity:1.000; stroke:none;" />
 <path d="  M 19,23  L 17,23  L 17,24  L 19,24  Z  " style="fill:rgb(151, 103, 70); fill-opacity:1.000; stroke:none;" />
 <path d="  M 18,25  L 17,25  L 17,26  L 18,26  Z  " style="fill:rgb(151, 103, 70); fill-opacity:1.000; stroke:none;" />
 <path d="  M 18,7  L 18,9  L 19,9  L 19,8  L 20,8  L 20,7  Z  " style="fill:rgb(151, 103, 70); fill-opacity:1.000; stroke:none;" />
 <path d="  M 19,16  L 18,16  L 18,17  L 19,17  Z  " style="fill:rgb(151, 103, 70); fill-opacity:1.000; stroke:none;" />
 <path d="  M 20,9  L 19,9  L 19,10  L 20,10  Z  " style="fill:rgb(151, 103, 70); fill-opacity:1.000; stroke:none;" />
 <path d="  M 20,22  L 19,22  L 19,23  L 20,23  Z  " style="fill:rgb(151, 103, 70); fill-opacity:1.000; stroke:none;" />
 <path d="  M 20,25  L 20,24  L 19,24  L 19,25  Z  " style="fill:rgb(151, 103, 70); fill-opacity:1.000; stroke:none;" />
 <path d="  M 21,8  L 20,8  L 20,9  L 21,9  Z  " style="fill:rgb(151, 103, 70); fill-opacity:1.000; stroke:none;" />
 <path d="  M 21,24  L 21,23  L 20,23  L 20,24  Z  " style="fill:rgb(151, 103, 70); fill-opacity:1.000; stroke:none;" />
 <path d="  M 24,19  L 25,19  L 25,17  L 24,17  Z  " style="fill:rgb(151, 103, 70); fill-opacity:1.000; stroke:none;" />
 <path d="  M 26,16  L 27,16  L 27,15  L 25,15  L 25,17  L 26,17  Z  " style="fill:rgb(151, 103, 70); fill-opacity:1.000; stroke:none;" />
 <path d="  M 26,20  L 26,19  L 25,19  L 25,20  Z  " style="fill:rgb(151, 103, 70); fill-opacity:1.000; stroke:none;" />
 <path d="  M 26,19  L 27,19  L 27,17  L 26,17  Z  " style="fill:rgb(151, 103, 70); fill-opacity:1.000; stroke:none;" />
 <path d="  M 28,17  L 28,16  L 27,16  L 27,17  Z  " style="fill:rgb(151, 103, 70); fill-opacity:1.000; stroke:none;" />
 <path d="  M 8,25  L 8,24  L 7,24  L 7,25  Z  " style="fill:rgb(48, 26, 10); fill-opacity:1.000; stroke:none;" />
 <path d="  M 9,14  L 8,14  L 8,16  L 9,16  Z  " style="fill:rgb(48, 26, 10); fill-opacity:1.000; stroke:none;" />
 <path d="  M 8,25  L 8,26  L 11,26  L 11,25  Z  " style="fill:rgb(48, 26, 10); fill-opacity:1.000; stroke:none;" />
 <path d="  M 9,16  L 9,17  L 10,17  L 10,16  Z  " style="fill:rgb(48, 26, 10); fill-opacity:1.000; stroke:none;" />
 <path d="  M 10,17  L 10,18  L 12,18  L 12,17  Z  " style="fill:rgb(48, 26, 10); fill-opacity:1.000; stroke:none;" />
 <path d="  M 11,25  L 12,25  L 12,22  L 11,22  Z  " style="fill:rgb(48, 26, 10); fill-opacity:1.000; stroke:none;" />
 <path d="  M 13,17  L 13,16  L 12,16  L 12,17  Z  " style="fill:rgb(48, 26, 10); fill-opacity:1.000; stroke:none;" />
 <path d="  M 14,12  L 13,12  L 13,16  L 14,16  Z  " style="fill:rgb(48, 26, 10); fill-opacity:1.000; stroke:none;" />
 <path d="  M 16,19  L 16,20  L 18,20  L 18,19  Z  " style="fill:rgb(48, 26, 10); fill-opacity:1.000; stroke:none;" />
 <path d="  M 20,27  L 20,26  L 17,26  L 17,27  Z  " style="fill:rgb(48, 26, 10); fill-opacity:1.000; stroke:none;" />
 <path d="  M 19,19  L 19,18  L 18,18  L 18,19  Z  " style="fill:rgb(48, 26, 10); fill-opacity:1.000; stroke:none;" />
 <path d="  M 19,12  L 22,12  L 22,11  L 19,11  Z  " style="fill:rgb(48, 26, 10); fill-opacity:1.000; stroke:none;" />
 <path d="  M 20,18  L 20,16  L 19,16  L 19,18  Z  " style="fill:rgb(48, 26, 10); fill-opacity:1.000; stroke:none;" />
 <path d="  M 21,25  L 20,25  L 20,26  L 21,26  Z  " style="fill:rgb(48, 26, 10); fill-opacity:1.000; stroke:none;" />
 <path d="  M 21,25  L 22,25  L 22,23  L 21,23  Z  " style="fill:rgb(48, 26, 10); fill-opacity:1.000; stroke:none;" />
 <path d="  M 23,9  L 22,9  L 22,11  L 23,11  Z  " style="fill:rgb(48, 26, 10); fill-opacity:1.000; stroke:none;" />
 <path d="  M 24,20  L 23,20  L 23,21  L 24,21  Z  " style="fill:rgb(48, 26, 10); fill-opacity:1.000; stroke:none;" />
 <path d="  M 27,22  L 27,21  L 24,21  L 24,22  Z  " style="fill:rgb(48, 26, 10); fill-opacity:1.000; stroke:none;" />
 <path d="  M 27,19  L 27,21  L 28,21  L 28,19  Z  " style="fill:rgb(48, 26, 10); fill-opacity:1.000; stroke:none;" />
 <path d="  M 29,16  L 28,16  L 28,19  L 29,19  Z  " style="fill:rgb(48, 26, 10); fill-opacity:1.000; stroke:none;" />
</svg>
