<?xml version="1.0" encoding="UTF-8" standalone="no"?>
<!DOCTYPE svg PUBLIC "-//W3C//DTD SVG 1.1//EN" 
  "http://www.w3.org/Graphics/SVG/1.1/DTD/svg11.dtd">
<svg width="32" height="32"
	 xmlns="http://www.w3.org/2000/svg" version="1.1">
 <path d="  M 3,11  L 2,11  L 2,21  L 3,21  Z  " style="fill:rgb(24, 23, 23); fill-opacity:1.000; stroke:none;" />
 <path d="  M 3,10  L 3,11  L 4,11  L 4,10  Z  " style="fill:rgb(24, 23, 23); fill-opacity:1.000; stroke:none;" />
 <path d="  M 4,22  L 4,21  L 3,21  L 3,22  Z  " style="fill:rgb(24, 23, 23); fill-opacity:1.000; stroke:none;" />
 <path d="  M 5,10  L 5,9  L 4,9  L 4,10  Z  " style="fill:rgb(24, 23, 23); fill-opacity:1.000; stroke:none;" />
 <path d="  M 4,22  L 4,23  L 5,23  L 5,22  Z  " style="fill:rgb(24, 23, 23); fill-opacity:1.000; stroke:none;" />
 <path d="  M 5,8  L 5,9  L 6,9  L 6,8  Z  " style="fill:rgb(24, 23, 23); fill-opacity:1.000; stroke:none;" />
 <path d="  M 5,24  L 6,24  L 6,23  L 5,23  Z  " style="fill:rgb(24, 23, 23); fill-opacity:1.000; stroke:none;" />
 <path d="  M 8,25  L 8,24  L 6,24  L 6,25  Z  " style="fill:rgb(24, 23, 23); fill-opacity:1.000; stroke:none;" />
 <path d="  M 8,25  L 8,26  L 11,26  L 11,25  Z  " style="fill:rgb(24, 23, 23); fill-opacity:1.000; stroke:none;" />
 <path d="  M 21,27  L 21,26  L 11,26  L 11,27  Z  " style="fill:rgb(24, 23, 23); fill-opacity:1.000; stroke:none;" />
 <path d="  M 24,26  L 24,25  L 21,25  L 21,26  Z  " style="fill:rgb(24, 23, 23); fill-opacity:1.000; stroke:none;" />
 <path d="  M 26,25  L 26,24  L 24,24  L 24,25  Z  " style="fill:rgb(24, 23, 23); fill-opacity:1.000; stroke:none;" />
 <path d="  M 26,8  L 26,9  L 27,9  L 27,8  Z  " style="fill:rgb(24, 23, 23); fill-opacity:1.000; stroke:none;" />
 <path d="  M 26,24  L 27,24  L 27,23  L 26,23  Z  " style="fill:rgb(24, 23, 23); fill-opacity:1.000; stroke:none;" />
 <path d="  M 28,9  L 27,9  L 27,10  L 28,10  Z  " style="fill:rgb(24, 23, 23); fill-opacity:1.000; stroke:none;" />
 <path d="  M 28,22  L 27,22  L 27,23  L 28,23  Z  " style="fill:rgb(24, 23, 23); fill-opacity:1.000; stroke:none;" />
 <path d="  M 29,11  L 29,10  L 28,10  L 28,11  Z  " style="fill:rgb(24, 23, 23); fill-opacity:1.000; stroke:none;" />
 <path d="  M 28,21  L 28,22  L 29,22  L 29,21  Z  " style="fill:rgb(24, 23, 23); fill-opacity:1.000; stroke:none;" />
 <path d="  M 30,11  L 29,11  L 29,21  L 30,21  Z  " style="fill:rgb(24, 23, 23); fill-opacity:1.000; stroke:none;" />
 <path d="  M 4,11  L 3,11  L 3,14  L 4,14  Z  " style="fill:rgb(130, 130, 130); fill-opacity:1.000; stroke:none;" />
 <path d="  M 4,16  L 3,16  L 3,21  L 4,21  Z  " style="fill:rgb(130, 130, 130); fill-opacity:1.000; stroke:none;" />
 <path d="  M 4,11  L 5,11  L 5,10  L 4,10  Z  " style="fill:rgb(130, 130, 130); fill-opacity:1.000; stroke:none;" />
 <path d="  M 4,21  L 4,22  L 5,22  L 5,21  Z  " style="fill:rgb(130, 130, 130); fill-opacity:1.000; stroke:none;" />
 <path d="  M 5,9  L 5,10  L 6,10  L 6,9  Z  " style="fill:rgb(130, 130, 130); fill-opacity:1.000; stroke:none;" />
 <path d="  M 10,8  L 6,8  L 6,9  L 10,9  Z  " style="fill:rgb(130, 130, 130); fill-opacity:1.000; stroke:none;" />
 <path d="  M 14,8  L 16,8  L 16,7  L 14,7  Z  " style="fill:rgb(130, 130, 130); fill-opacity:1.000; stroke:none;" />
 <path d="  M 16,6  L 16,7  L 18,7  L 18,6  Z  " style="fill:rgb(130, 130, 130); fill-opacity:1.000; stroke:none;" />
 <path d="  M 17,26  L 17,21  L 16,21  L 16,26  Z  " style="fill:rgb(130, 130, 130); fill-opacity:1.000; stroke:none;" />
 <path d="  M 18,7  L 18,8  L 19,8  L 19,7  Z  " style="fill:rgb(130, 130, 130); fill-opacity:1.000; stroke:none;" />
 <path d="  M 19,6  L 19,7  L 21,7  L 21,6  Z  " style="fill:rgb(130, 130, 130); fill-opacity:1.000; stroke:none;" />
 <path d="  M 19,26  L 20,26  L 20,25  L 21,25  L 21,21  L 19,21  Z  " style="fill:rgb(130, 130, 130); fill-opacity:1.000; stroke:none;" />
 <path d="  M 21,7  L 21,8  L 24,8  L 24,7  Z  " style="fill:rgb(130, 130, 130); fill-opacity:1.000; stroke:none;" />
 <path d="  M 21,20  L 21,21  L 22,21  L 22,20  Z  " style="fill:rgb(130, 130, 130); fill-opacity:1.000; stroke:none;" />
 <path d="  M 23,20  L 24,20  L 24,19  L 23,19  Z  " style="fill:rgb(130, 130, 130); fill-opacity:1.000; stroke:none;" />
 <path d="  M 26,9  L 26,8  L 24,8  L 24,9  Z  " style="fill:rgb(130, 130, 130); fill-opacity:1.000; stroke:none;" />
 <path d="  M 24,18  L 24,19  L 26,19  L 26,18  Z  " style="fill:rgb(130, 130, 130); fill-opacity:1.000; stroke:none;" />
 <path d="  M 27,10  L 27,9  L 26,9  L 26,10  Z  " style="fill:rgb(130, 130, 130); fill-opacity:1.000; stroke:none;" />
 <path d="  M 26,18  L 27,18  L 27,17  L 26,17  Z  " style="fill:rgb(130, 130, 130); fill-opacity:1.000; stroke:none;" />
 <path d="  M 28,10  L 27,10  L 27,11  L 28,11  Z  " style="fill:rgb(130, 130, 130); fill-opacity:1.000; stroke:none;" />
 <path d="  M 28,17  L 28,16  L 27,16  L 27,17  Z  " style="fill:rgb(130, 130, 130); fill-opacity:1.000; stroke:none;" />
 <path d="  M 28,16  L 29,16  L 29,11  L 28,11  Z  " style="fill:rgb(130, 130, 130); fill-opacity:1.000; stroke:none;" />
 <path d="  M 3,16  L 4,16  L 4,14  L 3,14  Z  " style="fill:rgb(168, 168, 168); fill-opacity:1.000; stroke:none;" />
 <path d="  M 4,21  L 5,21  L 5,17  L 4,17  Z  " style="fill:rgb(168, 168, 168); fill-opacity:1.000; stroke:none;" />
 <path d="  M 5,23  L 6,23  L 6,22  L 5,22  Z  " style="fill:rgb(168, 168, 168); fill-opacity:1.000; stroke:none;" />
 <path d="  M 6,23  L 6,24  L 7,24  L 7,23  Z  " style="fill:rgb(168, 168, 168); fill-opacity:1.000; stroke:none;" />
 <path d="  M 8,7  L 8,8  L 10,8  L 10,7  Z  " style="fill:rgb(168, 168, 168); fill-opacity:1.000; stroke:none;" />
 <path d="  M 8,24  L 8,25  L 9,25  L 9,24  Z  " style="fill:rgb(168, 168, 168); fill-opacity:1.000; stroke:none;" />
 <path d="  M 10,9  L 11,9  L 11,8  L 10,8  Z  " style="fill:rgb(168, 168, 168); fill-opacity:1.000; stroke:none;" />
 <path d="  M 11,7  L 11,8  L 14,8  L 14,7  Z  " style="fill:rgb(168, 168, 168); fill-opacity:1.000; stroke:none;" />
 <path d="  M 13,21  L 12,21  L 12,25  L 11,25  L 11,26  L 13,26  Z  " style="fill:rgb(168, 168, 168); fill-opacity:1.000; stroke:none;" />
 <path d="  M 16,6  L 14,6  L 14,7  L 16,7  Z  " style="fill:rgb(168, 168, 168); fill-opacity:1.000; stroke:none;" />
 <path d="  M 16,21  L 14,21  L 14,26  L 16,26  Z  " style="fill:rgb(168, 168, 168); fill-opacity:1.000; stroke:none;" />
 <path d="  M 16,20  L 16,21  L 17,21  L 17,20  Z  " style="fill:rgb(168, 168, 168); fill-opacity:1.000; stroke:none;" />
 <path d="  M 19,21  L 17,21  L 17,26  L 19,26  Z  " style="fill:rgb(168, 168, 168); fill-opacity:1.000; stroke:none;" />
 <path d="  M 19,6  L 18,6  L 18,7  L 19,7  Z  " style="fill:rgb(168, 168, 168); fill-opacity:1.000; stroke:none;" />
 <path d="  M 19,20  L 19,21  L 21,21  L 21,20  Z  " style="fill:rgb(168, 168, 168); fill-opacity:1.000; stroke:none;" />
 <path d="  M 21,20  L 23,20  L 23,19  L 21,19  Z  " style="fill:rgb(168, 168, 168); fill-opacity:1.000; stroke:none;" />
 <path d="  M 5,12  L 5,11  L 4,11  L 4,12  Z  " style="fill:rgb(94, 94, 94); fill-opacity:1.000; stroke:none;" />
 <path d="  M 5,10  L 5,11  L 6,11  L 6,10  Z  " style="fill:rgb(94, 94, 94); fill-opacity:1.000; stroke:none;" />
 <path d="  M 8,10  L 8,9  L 6,9  L 6,10  Z  " style="fill:rgb(94, 94, 94); fill-opacity:1.000; stroke:none;" />
 <path d="  M 18,8  L 18,7  L 16,7  L 16,8  Z  " style="fill:rgb(94, 94, 94); fill-opacity:1.000; stroke:none;" />
 <path d="  M 19,7  L 19,8  L 21,8  L 21,7  Z  " style="fill:rgb(94, 94, 94); fill-opacity:1.000; stroke:none;" />
 <path d="  M 21,25  L 20,25  L 20,26  L 21,26  Z  " style="fill:rgb(94, 94, 94); fill-opacity:1.000; stroke:none;" />
 <path d="  M 21,25  L 23,25  L 23,24  L 24,24  L 24,20  L 22,20  L 22,21  L 21,21  Z  " style="fill:rgb(94, 94, 94); fill-opacity:1.000; stroke:none;" />
 <path d="  M 23,8  L 22,8  L 22,9  L 23,9  Z  " style="fill:rgb(94, 94, 94); fill-opacity:1.000; stroke:none;" />
 <path d="  M 25,23  L 26,23  L 26,19  L 25,19  Z  " style="fill:rgb(94, 94, 94); fill-opacity:1.000; stroke:none;" />
 <path d="  M 29,16  L 28,16  L 28,21  L 29,21  Z  " style="fill:rgb(94, 94, 94); fill-opacity:1.000; stroke:none;" />
 <path d="  M 4,16  L 5,16  L 5,12  L 4,12  Z  " style="fill:rgb(53, 53, 53); fill-opacity:1.000; stroke:none;" />
 <path d="  M 6,12  L 6,11  L 5,11  L 5,12  Z  " style="fill:rgb(53, 53, 53); fill-opacity:1.000; stroke:none;" />
 <path d="  M 5,17  L 6,17  L 6,16  L 5,16  Z  " style="fill:rgb(53, 53, 53); fill-opacity:1.000; stroke:none;" />
 <path d="  M 6,8  L 8,8  L 8,7  L 6,7  Z  " style="fill:rgb(53, 53, 53); fill-opacity:1.000; stroke:none;" />
 <path d="  M 6,11  L 7,11  L 7,10  L 6,10  Z  " style="fill:rgb(53, 53, 53); fill-opacity:1.000; stroke:none;" />
 <path d="  M 6,18  L 7,18  L 7,17  L 6,17  Z  " style="fill:rgb(53, 53, 53); fill-opacity:1.000; stroke:none;" />
 <path d="  M 8,6  L 8,7  L 11,7  L 11,6  Z  " style="fill:rgb(53, 53, 53); fill-opacity:1.000; stroke:none;" />
 <path d="  M 8,9  L 8,10  L 10,10  L 10,9  Z  " style="fill:rgb(53, 53, 53); fill-opacity:1.000; stroke:none;" />
 <path d="  M 8,19  L 9,19  L 9,18  L 8,18  Z  " style="fill:rgb(53, 53, 53); fill-opacity:1.000; stroke:none;" />
 <path d="  M 21,6  L 21,5  L 11,5  L 11,6  Z  " style="fill:rgb(53, 53, 53); fill-opacity:1.000; stroke:none;" />
 <path d="  M 14,9  L 14,8  L 11,8  L 11,9  Z  " style="fill:rgb(53, 53, 53); fill-opacity:1.000; stroke:none;" />
 <path d="  M 12,19  L 11,19  L 11,20  L 12,20  Z  " style="fill:rgb(53, 53, 53); fill-opacity:1.000; stroke:none;" />
 <path d="  M 18,8  L 18,9  L 21,9  L 21,8  Z  " style="fill:rgb(53, 53, 53); fill-opacity:1.000; stroke:none;" />
 <path d="  M 21,20  L 21,19  L 20,19  L 20,20  Z  " style="fill:rgb(53, 53, 53); fill-opacity:1.000; stroke:none;" />
 <path d="  M 24,7  L 24,6  L 21,6  L 21,7  Z  " style="fill:rgb(53, 53, 53); fill-opacity:1.000; stroke:none;" />
 <path d="  M 24,10  L 24,9  L 22,9  L 22,10  Z  " style="fill:rgb(53, 53, 53); fill-opacity:1.000; stroke:none;" />
 <path d="  M 24,19  L 24,18  L 22,18  L 22,19  Z  " style="fill:rgb(53, 53, 53); fill-opacity:1.000; stroke:none;" />
 <path d="  M 26,8  L 26,7  L 24,7  L 24,8  Z  " style="fill:rgb(53, 53, 53); fill-opacity:1.000; stroke:none;" />
 <path d="  M 28,16  L 28,12  L 27,12  L 27,11  L 26,11  L 26,10  L 24,10  L 24,11  L 25,11  L 25,17  L 24,17  L 24,18  L 26,18  L 26,17  L 27,17  L 27,16  Z  " style="fill:rgb(53, 53, 53); fill-opacity:1.000; stroke:none;" />
 <path d="  M 4,16  L 4,17  L 5,17  L 5,16  Z  " style="fill:rgb(216, 216, 216); fill-opacity:1.000; stroke:none;" />
 <path d="  M 8,20  L 8,19  L 6,19  L 6,18  L 5,18  L 5,22  L 6,22  L 6,23  L 7,23  L 7,24  L 9,24  L 9,25  L 12,25  L 12,21  L 11,21  L 11,20  Z  " style="fill:rgb(216, 216, 216); fill-opacity:1.000; stroke:none;" />
 <path d="  M 10,7  L 10,8  L 11,8  L 11,7  Z  " style="fill:rgb(216, 216, 216); fill-opacity:1.000; stroke:none;" />
 <path d="  M 14,7  L 14,6  L 11,6  L 11,7  Z  " style="fill:rgb(216, 216, 216); fill-opacity:1.000; stroke:none;" />
 <path d="  M 12,21  L 13,21  L 13,20  L 12,20  Z  " style="fill:rgb(216, 216, 216); fill-opacity:1.000; stroke:none;" />
 <path d="  M 13,26  L 14,26  L 14,21  L 13,21  Z  " style="fill:rgb(216, 216, 216); fill-opacity:1.000; stroke:none;" />
 <path d="  M 16,20  L 14,20  L 14,21  L 16,21  Z  " style="fill:rgb(216, 216, 216); fill-opacity:1.000; stroke:none;" />
 <path d="  M 17,20  L 17,21  L 19,21  L 19,20  Z  " style="fill:rgb(216, 216, 216); fill-opacity:1.000; stroke:none;" />
 <path d="  M 18,9  L 18,8  L 14,8  L 14,9  L 10,9  L 10,10  L 7,10  L 7,11  L 6,11  L 6,12  L 5,12  L 5,16  L 6,16  L 6,17  L 7,17  L 7,18  L 9,18  L 9,19  L 12,19  L 12,20  L 20,20  L 20,19  L 22,19  L 22,18  L 24,18  L 24,17  L 25,17  L 25,11  L 24,11  L 24,10  L 22,10  L 22,9  Z  M 14,16  L 14,15  L 11,15  L 11,14  L 8,14  L 8,13  L 18,13  L 18,14  L 21,14  L 21,15  L 24,15  L 24,16  Z  " style="fill:rgb(47, 47, 47); fill-opacity:1.000; stroke:none;" />
 <path d="  M 6,17  L 5,17  L 5,18  L 6,18  Z  " style="fill:rgb(255, 255, 255); fill-opacity:1.000; stroke:none;" />
 <path d="  M 8,19  L 8,18  L 6,18  L 6,19  Z  " style="fill:rgb(255, 255, 255); fill-opacity:1.000; stroke:none;" />
 <path d="  M 8,19  L 8,20  L 11,20  L 11,19  Z  " style="fill:rgb(255, 255, 255); fill-opacity:1.000; stroke:none;" />
 <path d="  M 12,21  L 12,20  L 11,20  L 11,21  Z  " style="fill:rgb(255, 255, 255); fill-opacity:1.000; stroke:none;" />
 <path d="  M 14,21  L 14,20  L 13,20  L 13,21  Z  " style="fill:rgb(255, 255, 255); fill-opacity:1.000; stroke:none;" />
 <path d="  M 11,14  L 11,13  L 8,13  L 8,14  Z  " style="fill:rgb(255, 20, 20); fill-opacity:1.000; stroke:none;" />
 <path d="  M 14,15  L 14,16  L 16,16  L 16,14  L 11,14  L 11,15  Z  " style="fill:rgb(255, 20, 20); fill-opacity:1.000; stroke:none;" />
 <path d="  M 16,15  L 17,15  L 17,13  L 11,13  L 11,14  L 16,14  Z  " style="fill:rgb(203, 26, 26); fill-opacity:1.000; stroke:none;" />
 <path d="  M 23,16  L 23,15  L 16,15  L 16,16  Z  " style="fill:rgb(127, 127, 127); fill-opacity:1.000; stroke:none;" />
 <path d="  M 18,13  L 17,13  L 17,15  L 21,15  L 21,14  L 18,14  Z  " style="fill:rgb(99, 99, 99); fill-opacity:1.000; stroke:none;" />
 <path d="  M 24,16  L 24,15  L 23,15  L 23,16  Z  " style="fill:rgb(99, 99, 99); fill-opacity:1.000; stroke:none;" />
 <path d="  M 21,9  L 22,9  L 22,8  L 21,8  Z  " style="fill:rgb(79, 77, 77); fill-opacity:1.000; stroke:none;" />
 <path d="  M 24,8  L 23,8  L 23,9  L 24,9  Z  " style="fill:rgb(79, 77, 77); fill-opacity:1.000; stroke:none;" />
 <path d="  M 23,24  L 23,25  L 24,25  L 24,24  Z  " style="fill:rgb(79, 77, 77); fill-opacity:1.000; stroke:none;" />
 <path d="  M 26,9  L 24,9  L 24,10  L 26,10  Z  " style="fill:rgb(79, 77, 77); fill-opacity:1.000; stroke:none;" />
 <path d="  M 25,23  L 25,19  L 24,19  L 24,24  L 26,24  L 26,23  Z  " style="fill:rgb(79, 77, 77); fill-opacity:1.000; stroke:none;" />
 <path d="  M 26,11  L 27,11  L 27,10  L 26,10  Z  " style="fill:rgb(79, 77, 77); fill-opacity:1.000; stroke:none;" />
 <path d="  M 27,22  L 28,22  L 28,17  L 27,17  L 27,18  L 26,18  L 26,23  L 27,23  Z  " style="fill:rgb(79, 77, 77); fill-opacity:1.000; stroke:none;" />
 <path d="  M 27,12  L 28,12  L 28,11  L 27,11  Z  " style="fill:rgb(79, 77, 77); fill-opacity:1.000; stroke:none;" />
</svg>
