<?xml version="1.0" encoding="UTF-8" standalone="no"?>
<!DOCTYPE svg PUBLIC "-//W3C//DTD SVG 1.1//EN" 
  "http://www.w3.org/Graphics/SVG/1.1/DTD/svg11.dtd">
<svg width="32" height="32"
	 xmlns="http://www.w3.org/2000/svg" version="1.1">
 <path d="  M 5,21  L 6,21  L 6,18  L 5,18  Z  " style="fill:rgb(153, 121, 66); fill-opacity:1.000; stroke:none;" />
 <path d="  M 6,18  L 7,18  L 7,16  L 6,16  Z  " style="fill:rgb(153, 121, 66); fill-opacity:1.000; stroke:none;" />
 <path d="  M 6,23  L 7,23  L 7,21  L 6,21  Z  " style="fill:rgb(153, 121, 66); fill-opacity:1.000; stroke:none;" />
 <path d="  M 7,16  L 8,16  L 8,15  L 7,15  Z  " style="fill:rgb(153, 121, 66); fill-opacity:1.000; stroke:none;" />
 <path d="  M 7,24  L 8,24  L 8,23  L 7,23  Z  " style="fill:rgb(153, 121, 66); fill-opacity:1.000; stroke:none;" />
 <path d="  M 10,14  L 8,14  L 8,15  L 10,15  Z  " style="fill:rgb(153, 121, 66); fill-opacity:1.000; stroke:none;" />
 <path d="  M 8,24  L 8,25  L 9,25  L 9,24  Z  " style="fill:rgb(153, 121, 66); fill-opacity:1.000; stroke:none;" />
 <path d="  M 10,26  L 10,25  L 9,25  L 9,26  Z  " style="fill:rgb(153, 121, 66); fill-opacity:1.000; stroke:none;" />
 <path d="  M 10,13  L 10,14  L 12,14  L 12,13  Z  " style="fill:rgb(153, 121, 66); fill-opacity:1.000; stroke:none;" />
 <path d="  M 16,26  L 11,26  L 11,27  L 16,27  Z  " style="fill:rgb(153, 121, 66); fill-opacity:1.000; stroke:none;" />
 <path d="  M 13,12  L 12,12  L 12,13  L 13,13  Z  " style="fill:rgb(153, 121, 66); fill-opacity:1.000; stroke:none;" />
 <path d="  M 13,12  L 14,12  L 14,11  L 13,11  Z  " style="fill:rgb(153, 121, 66); fill-opacity:1.000; stroke:none;" />
 <path d="  M 14,10  L 14,11  L 15,11  L 15,10  Z  " style="fill:rgb(153, 121, 66); fill-opacity:1.000; stroke:none;" />
 <path d="  M 16,10  L 16,9  L 15,9  L 15,10  Z  " style="fill:rgb(153, 121, 66); fill-opacity:1.000; stroke:none;" />
 <path d="  M 17,8  L 16,8  L 16,9  L 17,9  Z  " style="fill:rgb(153, 121, 66); fill-opacity:1.000; stroke:none;" />
 <path d="  M 17,8  L 18,8  L 18,7  L 17,7  Z  " style="fill:rgb(153, 121, 66); fill-opacity:1.000; stroke:none;" />
 <path d="  M 18,25  L 17,25  L 17,26  L 18,26  Z  " style="fill:rgb(153, 121, 66); fill-opacity:1.000; stroke:none;" />
 <path d="  M 18,7  L 20,7  L 20,6  L 18,6  Z  " style="fill:rgb(153, 121, 66); fill-opacity:1.000; stroke:none;" />
 <path d="  M 20,25  L 20,24  L 19,24  L 19,25  Z  " style="fill:rgb(153, 121, 66); fill-opacity:1.000; stroke:none;" />
 <path d="  M 20,5  L 20,6  L 25,6  L 25,5  Z  " style="fill:rgb(153, 121, 66); fill-opacity:1.000; stroke:none;" />
 <path d="  M 22,23  L 21,23  L 21,24  L 22,24  Z  " style="fill:rgb(153, 121, 66); fill-opacity:1.000; stroke:none;" />
 <path d="  M 23,23  L 23,22  L 22,22  L 22,23  Z  " style="fill:rgb(153, 121, 66); fill-opacity:1.000; stroke:none;" />
 <path d="  M 24,21  L 23,21  L 23,22  L 24,22  Z  " style="fill:rgb(153, 121, 66); fill-opacity:1.000; stroke:none;" />
 <path d="  M 25,21  L 25,20  L 24,20  L 24,21  Z  " style="fill:rgb(153, 121, 66); fill-opacity:1.000; stroke:none;" />
 <path d="  M 26,20  L 26,19  L 25,19  L 25,20  Z  " style="fill:rgb(153, 121, 66); fill-opacity:1.000; stroke:none;" />
 <path d="  M 27,7  L 26,7  L 26,8  L 27,8  Z  " style="fill:rgb(153, 121, 66); fill-opacity:1.000; stroke:none;" />
 <path d="  M 26,18  L 27,18  L 27,17  L 26,17  Z  " style="fill:rgb(153, 121, 66); fill-opacity:1.000; stroke:none;" />
 <path d="  M 28,9  L 28,8  L 27,8  L 27,9  Z  " style="fill:rgb(153, 121, 66); fill-opacity:1.000; stroke:none;" />
 <path d="  M 27,15  L 27,16  L 28,16  L 28,15  Z  " style="fill:rgb(153, 121, 66); fill-opacity:1.000; stroke:none;" />
 <path d="  M 6,23  L 6,21  L 5,21  L 5,23  Z  " style="fill:rgb(140, 105, 50); fill-opacity:1.000; stroke:none;" />
 <path d="  M 17,28  L 17,27  L 20,27  L 20,26  L 22,26  L 22,25  L 23,25  L 23,24  L 24,24  L 24,23  L 25,23  L 25,22  L 26,22  L 26,21  L 27,21  L 27,19  L 28,19  L 28,17  L 29,17  L 29,10  L 28,10  L 28,16  L 27,16  L 27,18  L 26,18  L 26,20  L 25,20  L 25,21  L 24,21  L 24,22  L 23,22  L 23,23  L 22,23  L 22,24  L 20,24  L 20,25  L 18,25  L 18,26  L 16,26  L 16,27  L 11,27  L 11,26  L 9,26  L 9,25  L 8,25  L 8,24  L 7,24  L 7,23  L 6,23  L 6,25  L 7,25  L 7,26  L 8,26  L 8,27  L 10,27  L 10,28  Z  " style="fill:rgb(140, 105, 50); fill-opacity:1.000; stroke:none;" />
 <path d="  M 25,6  L 25,7  L 27,7  L 27,6  Z  " style="fill:rgb(140, 105, 50); fill-opacity:1.000; stroke:none;" />
 <path d="  M 27,7  L 27,8  L 28,8  L 28,7  Z  " style="fill:rgb(140, 105, 50); fill-opacity:1.000; stroke:none;" />
 <path d="  M 5,24  L 6,24  L 6,23  L 5,23  Z  " style="fill:rgb(95, 79, 39); fill-opacity:1.000; stroke:none;" />
 <path d="  M 7,26  L 7,25  L 6,25  L 6,26  Z  " style="fill:rgb(95, 79, 39); fill-opacity:1.000; stroke:none;" />
 <path d="  M 8,26  L 7,26  L 7,27  L 8,27  Z  " style="fill:rgb(95, 79, 39); fill-opacity:1.000; stroke:none;" />
 <path d="  M 10,27  L 8,27  L 8,28  L 10,28  Z  " style="fill:rgb(95, 79, 39); fill-opacity:1.000; stroke:none;" />
 <path d="  M 17,29  L 17,28  L 10,28  L 10,29  Z  " style="fill:rgb(95, 79, 39); fill-opacity:1.000; stroke:none;" />
 <path d="  M 17,28  L 20,28  L 20,27  L 17,27  Z  " style="fill:rgb(95, 79, 39); fill-opacity:1.000; stroke:none;" />
 <path d="  M 22,27  L 22,26  L 20,26  L 20,27  Z  " style="fill:rgb(95, 79, 39); fill-opacity:1.000; stroke:none;" />
 <path d="  M 23,25  L 22,25  L 22,26  L 23,26  Z  " style="fill:rgb(95, 79, 39); fill-opacity:1.000; stroke:none;" />
 <path d="  M 23,24  L 23,25  L 24,25  L 24,24  Z  " style="fill:rgb(95, 79, 39); fill-opacity:1.000; stroke:none;" />
 <path d="  M 25,23  L 24,23  L 24,24  L 25,24  Z  " style="fill:rgb(95, 79, 39); fill-opacity:1.000; stroke:none;" />
 <path d="  M 26,22  L 25,22  L 25,23  L 26,23  Z  " style="fill:rgb(95, 79, 39); fill-opacity:1.000; stroke:none;" />
 <path d="  M 27,22  L 27,21  L 26,21  L 26,22  Z  " style="fill:rgb(95, 79, 39); fill-opacity:1.000; stroke:none;" />
 <path d="  M 27,19  L 27,21  L 28,21  L 28,19  Z  " style="fill:rgb(95, 79, 39); fill-opacity:1.000; stroke:none;" />
 <path d="  M 29,8  L 28,8  L 28,10  L 29,10  Z  " style="fill:rgb(95, 79, 39); fill-opacity:1.000; stroke:none;" />
 <path d="  M 29,17  L 28,17  L 28,19  L 29,19  Z  " style="fill:rgb(95, 79, 39); fill-opacity:1.000; stroke:none;" />
 <path d="  M 30,10  L 29,10  L 29,17  L 30,17  Z  " style="fill:rgb(95, 79, 39); fill-opacity:1.000; stroke:none;" />
 <path d="  M 6,18  L 6,19  L 7,19  L 7,18  Z  " style="fill:rgb(188, 164, 116); fill-opacity:1.000; stroke:none;" />
 <path d="  M 6,21  L 7,21  L 7,20  L 6,20  Z  " style="fill:rgb(188, 164, 116); fill-opacity:1.000; stroke:none;" />
 <path d="  M 8,16  L 7,16  L 7,17  L 8,17  Z  " style="fill:rgb(188, 164, 116); fill-opacity:1.000; stroke:none;" />
 <path d="  M 7,20  L 8,20  L 8,19  L 7,19  Z  " style="fill:rgb(188, 164, 116); fill-opacity:1.000; stroke:none;" />
 <path d="  M 7,22  L 7,23  L 8,23  L 8,22  Z  " style="fill:rgb(188, 164, 116); fill-opacity:1.000; stroke:none;" />
 <path d="  M 8,22  L 9,22  L 9,21  L 8,21  Z  " style="fill:rgb(188, 164, 116); fill-opacity:1.000; stroke:none;" />
 <path d="  M 10,25  L 10,24  L 9,24  L 9,25  Z  " style="fill:rgb(188, 164, 116); fill-opacity:1.000; stroke:none;" />
 <path d="  M 17,26  L 17,25  L 10,25  L 10,26  Z  " style="fill:rgb(188, 164, 116); fill-opacity:1.000; stroke:none;" />
 <path d="  M 15,14  L 14,14  L 14,15  L 15,15  Z  " style="fill:rgb(188, 164, 116); fill-opacity:1.000; stroke:none;" />
 <path d="  M 15,15  L 15,16  L 16,16  L 16,15  Z  " style="fill:rgb(188, 164, 116); fill-opacity:1.000; stroke:none;" />
 <path d="  M 16,18  L 15,18  L 15,19  L 16,19  Z  " style="fill:rgb(188, 164, 116); fill-opacity:1.000; stroke:none;" />
 <path d="  M 17,8  L 17,9  L 18,9  L 18,8  Z  " style="fill:rgb(188, 164, 116); fill-opacity:1.000; stroke:none;" />
 <path d="  M 17,18  L 18,18  L 18,16  L 17,16  Z  " style="fill:rgb(188, 164, 116); fill-opacity:1.000; stroke:none;" />
 <path d="  M 19,25  L 19,24  L 17,24  L 17,25  Z  " style="fill:rgb(188, 164, 116); fill-opacity:1.000; stroke:none;" />
 <path d="  M 19,11  L 20,11  L 20,10  L 19,10  Z  " style="fill:rgb(188, 164, 116); fill-opacity:1.000; stroke:none;" />
 <path d="  M 21,24  L 21,23  L 19,23  L 19,24  Z  " style="fill:rgb(188, 164, 116); fill-opacity:1.000; stroke:none;" />
 <path d="  M 21,7  L 21,6  L 20,6  L 20,7  Z  " style="fill:rgb(188, 164, 116); fill-opacity:1.000; stroke:none;" />
 <path d="  M 22,22  L 21,22  L 21,23  L 22,23  Z  " style="fill:rgb(188, 164, 116); fill-opacity:1.000; stroke:none;" />
 <path d="  M 23,22  L 23,21  L 22,21  L 22,22  Z  " style="fill:rgb(188, 164, 116); fill-opacity:1.000; stroke:none;" />
 <path d="  M 23,7  L 25,7  L 25,6  L 23,6  Z  " style="fill:rgb(188, 164, 116); fill-opacity:1.000; stroke:none;" />
 <path d="  M 24,20  L 23,20  L 23,21  L 24,21  Z  " style="fill:rgb(188, 164, 116); fill-opacity:1.000; stroke:none;" />
 <path d="  M 25,20  L 25,19  L 24,19  L 24,20  Z  " style="fill:rgb(188, 164, 116); fill-opacity:1.000; stroke:none;" />
 <path d="  M 26,7  L 25,7  L 25,8  L 26,8  Z  " style="fill:rgb(188, 164, 116); fill-opacity:1.000; stroke:none;" />
 <path d="  M 25,18  L 25,19  L 26,19  L 26,18  Z  " style="fill:rgb(188, 164, 116); fill-opacity:1.000; stroke:none;" />
 <path d="  M 26,8  L 26,9  L 27,9  L 27,8  Z  " style="fill:rgb(188, 164, 116); fill-opacity:1.000; stroke:none;" />
 <path d="  M 27,15  L 26,15  L 26,17  L 27,17  Z  " style="fill:rgb(188, 164, 116); fill-opacity:1.000; stroke:none;" />
 <path d="  M 28,9  L 27,9  L 27,10  L 28,10  Z  " style="fill:rgb(188, 164, 116); fill-opacity:1.000; stroke:none;" />
 <path d="  M 27,15  L 28,15  L 28,14  L 27,14  Z  " style="fill:rgb(188, 164, 116); fill-opacity:1.000; stroke:none;" />
 <path d="  M 7,19  L 6,19  L 6,20  L 7,20  Z  " style="fill:rgb(197, 173, 119); fill-opacity:1.000; stroke:none;" />
 <path d="  M 7,20  L 7,21  L 9,21  L 9,20  Z  " style="fill:rgb(197, 173, 119); fill-opacity:1.000; stroke:none;" />
 <path d="  M 9,15  L 8,15  L 8,16  L 9,16  Z  " style="fill:rgb(197, 173, 119); fill-opacity:1.000; stroke:none;" />
 <path d="  M 9,24  L 9,23  L 8,23  L 8,24  Z  " style="fill:rgb(197, 173, 119); fill-opacity:1.000; stroke:none;" />
 <path d="  M 9,18  L 10,18  L 10,17  L 9,17  Z  " style="fill:rgb(197, 173, 119); fill-opacity:1.000; stroke:none;" />
 <path d="  M 9,23  L 10,23  L 10,22  L 9,22  Z  " style="fill:rgb(197, 173, 119); fill-opacity:1.000; stroke:none;" />
 <path d="  M 10,14  L 10,15  L 11,15  L 11,14  Z  " style="fill:rgb(197, 173, 119); fill-opacity:1.000; stroke:none;" />
 <path d="  M 11,23  L 10,23  L 10,24  L 11,24  Z  " style="fill:rgb(197, 173, 119); fill-opacity:1.000; stroke:none;" />
 <path d="  M 12,19  L 11,19  L 11,20  L 12,20  Z  " style="fill:rgb(197, 173, 119); fill-opacity:1.000; stroke:none;" />
 <path d="  M 13,17  L 13,16  L 12,16  L 12,17  Z  " style="fill:rgb(197, 173, 119); fill-opacity:1.000; stroke:none;" />
 <path d="  M 12,21  L 13,21  L 13,20  L 12,20  Z  " style="fill:rgb(197, 173, 119); fill-opacity:1.000; stroke:none;" />
 <path d="  M 15,14  L 15,13  L 13,13  L 13,14  Z  " style="fill:rgb(197, 173, 119); fill-opacity:1.000; stroke:none;" />
 <path d="  M 13,17  L 13,18  L 14,18  L 14,17  Z  " style="fill:rgb(197, 173, 119); fill-opacity:1.000; stroke:none;" />
 <path d="  M 13,22  L 14,22  L 14,21  L 13,21  Z  " style="fill:rgb(197, 173, 119); fill-opacity:1.000; stroke:none;" />
 <path d="  M 15,18  L 14,18  L 14,19  L 15,19  Z  " style="fill:rgb(197, 173, 119); fill-opacity:1.000; stroke:none;" />
 <path d="  M 15,11  L 16,11  L 16,10  L 15,10  Z  " style="fill:rgb(197, 173, 119); fill-opacity:1.000; stroke:none;" />
 <path d="  M 15,14  L 15,15  L 16,15  L 16,14  Z  " style="fill:rgb(197, 173, 119); fill-opacity:1.000; stroke:none;" />
 <path d="  M 15,20  L 17,20  L 17,19  L 15,19  Z  " style="fill:rgb(197, 173, 119); fill-opacity:1.000; stroke:none;" />
 <path d="  M 16,17  L 17,17  L 17,15  L 16,15  Z  " style="fill:rgb(197, 173, 119); fill-opacity:1.000; stroke:none;" />
 <path d="  M 18,12  L 17,12  L 17,13  L 18,13  Z  " style="fill:rgb(197, 173, 119); fill-opacity:1.000; stroke:none;" />
 <path d="  M 19,14  L 19,13  L 18,13  L 18,14  Z  " style="fill:rgb(197, 173, 119); fill-opacity:1.000; stroke:none;" />
 <path d="  M 18,17  L 18,18  L 19,18  L 19,17  Z  " style="fill:rgb(197, 173, 119); fill-opacity:1.000; stroke:none;" />
 <path d="  M 20,16  L 21,16  L 21,17  L 22,17  L 22,15  L 21,15  L 21,14  L 19,14  L 19,15  L 20,15  Z  " style="fill:rgb(197, 173, 119); fill-opacity:1.000; stroke:none;" />
 <path d="  M 21,12  L 21,11  L 20,11  L 20,12  Z  " style="fill:rgb(197, 173, 119); fill-opacity:1.000; stroke:none;" />
 <path d="  M 21,8  L 22,8  L 22,7  L 21,7  Z  " style="fill:rgb(197, 173, 119); fill-opacity:1.000; stroke:none;" />
 <path d="  M 21,12  L 21,13  L 22,13  L 22,12  Z  " style="fill:rgb(197, 173, 119); fill-opacity:1.000; stroke:none;" />
 <path d="  M 23,8  L 22,8  L 22,9  L 23,9  Z  " style="fill:rgb(197, 173, 119); fill-opacity:1.000; stroke:none;" />
 <path d="  M 22,13  L 22,14  L 24,14  L 24,13  Z  " style="fill:rgb(197, 173, 119); fill-opacity:1.000; stroke:none;" />
 <path d="  M 22,17  L 22,18  L 23,18  L 23,17  Z  " style="fill:rgb(197, 173, 119); fill-opacity:1.000; stroke:none;" />
 <path d="  M 23,9  L 23,10  L 24,10  L 24,9  Z  " style="fill:rgb(197, 173, 119); fill-opacity:1.000; stroke:none;" />
 <path d="  M 24,11  L 26,11  L 26,10  L 24,10  Z  " style="fill:rgb(197, 173, 119); fill-opacity:1.000; stroke:none;" />
 <path d="  M 25,15  L 25,14  L 24,14  L 24,15  Z  " style="fill:rgb(197, 173, 119); fill-opacity:1.000; stroke:none;" />
 <path d="  M 26,18  L 26,17  L 25,17  L 25,18  Z  " style="fill:rgb(197, 173, 119); fill-opacity:1.000; stroke:none;" />
 <path d="  M 26,12  L 27,12  L 27,11  L 26,11  Z  " style="fill:rgb(197, 173, 119); fill-opacity:1.000; stroke:none;" />
 <path d="  M 28,10  L 27,10  L 27,11  L 28,11  Z  " style="fill:rgb(197, 173, 119); fill-opacity:1.000; stroke:none;" />
 <path d="  M 27,14  L 28,14  L 28,13  L 27,13  Z  " style="fill:rgb(197, 173, 119); fill-opacity:1.000; stroke:none;" />
 <path d="  M 8,17  L 7,17  L 7,18  L 8,18  Z  " style="fill:rgb(226, 211, 172); fill-opacity:1.000; stroke:none;" />
 <path d="  M 8,19  L 9,19  L 9,18  L 8,18  Z  " style="fill:rgb(226, 211, 172); fill-opacity:1.000; stroke:none;" />
 <path d="  M 9,16  L 10,16  L 10,15  L 9,15  Z  " style="fill:rgb(226, 211, 172); fill-opacity:1.000; stroke:none;" />
 <path d="  M 9,19  L 9,20  L 10,20  L 10,19  Z  " style="fill:rgb(226, 211, 172); fill-opacity:1.000; stroke:none;" />
 <path d="  M 11,17  L 11,16  L 10,16  L 10,17  Z  " style="fill:rgb(226, 211, 172); fill-opacity:1.000; stroke:none;" />
 <path d="  M 11,20  L 10,20  L 10,21  L 11,21  Z  " style="fill:rgb(226, 211, 172); fill-opacity:1.000; stroke:none;" />
 <path d="  M 12,17  L 11,17  L 11,18  L 12,18  Z  " style="fill:rgb(226, 211, 172); fill-opacity:1.000; stroke:none;" />
 <path d="  M 12,21  L 11,21  L 11,22  L 12,22  Z  " style="fill:rgb(226, 211, 172); fill-opacity:1.000; stroke:none;" />
 <path d="  M 13,15  L 13,14  L 12,14  L 12,15  Z  " style="fill:rgb(226, 211, 172); fill-opacity:1.000; stroke:none;" />
 <path d="  M 12,18  L 12,19  L 13,19  L 13,18  Z  " style="fill:rgb(226, 211, 172); fill-opacity:1.000; stroke:none;" />
 <path d="  M 14,23  L 13,23  L 13,22  L 12,22  L 12,24  L 13,24  L 13,25  L 14,25  Z  " style="fill:rgb(226, 211, 172); fill-opacity:1.000; stroke:none;" />
 <path d="  M 13,15  L 13,16  L 14,16  L 14,15  Z  " style="fill:rgb(226, 211, 172); fill-opacity:1.000; stroke:none;" />
 <path d="  M 13,19  L 13,20  L 14,20  L 14,19  Z  " style="fill:rgb(226, 211, 172); fill-opacity:1.000; stroke:none;" />
 <path d="  M 15,13  L 15,12  L 14,12  L 14,13  Z  " style="fill:rgb(226, 211, 172); fill-opacity:1.000; stroke:none;" />
 <path d="  M 14,16  L 14,17  L 15,17  L 15,16  Z  " style="fill:rgb(226, 211, 172); fill-opacity:1.000; stroke:none;" />
 <path d="  M 15,20  L 14,20  L 14,21  L 15,21  Z  " style="fill:rgb(226, 211, 172); fill-opacity:1.000; stroke:none;" />
 <path d="  M 17,14  L 17,13  L 15,13  L 15,14  Z  " style="fill:rgb(226, 211, 172); fill-opacity:1.000; stroke:none;" />
 <path d="  M 16,17  L 15,17  L 15,18  L 16,18  Z  " style="fill:rgb(226, 211, 172); fill-opacity:1.000; stroke:none;" />
 <path d="  M 16,22  L 16,21  L 15,21  L 15,22  Z  " style="fill:rgb(226, 211, 172); fill-opacity:1.000; stroke:none;" />
 <path d="  M 17,19  L 17,18  L 16,18  L 16,19  Z  " style="fill:rgb(226, 211, 172); fill-opacity:1.000; stroke:none;" />
 <path d="  M 17,22  L 16,22  L 16,24  L 17,24  Z  " style="fill:rgb(226, 211, 172); fill-opacity:1.000; stroke:none;" />
 <path d="  M 17,11  L 18,11  L 18,10  L 17,10  Z  " style="fill:rgb(226, 211, 172); fill-opacity:1.000; stroke:none;" />
 <path d="  M 18,14  L 17,14  L 17,15  L 18,15  Z  " style="fill:rgb(226, 211, 172); fill-opacity:1.000; stroke:none;" />
 <path d="  M 18,20  L 18,19  L 17,19  L 17,20  Z  " style="fill:rgb(226, 211, 172); fill-opacity:1.000; stroke:none;" />
 <path d="  M 18,8  L 18,9  L 20,9  L 20,8  Z  " style="fill:rgb(226, 211, 172); fill-opacity:1.000; stroke:none;" />
 <path d="  M 19,12  L 19,11  L 18,11  L 18,12  Z  " style="fill:rgb(226, 211, 172); fill-opacity:1.000; stroke:none;" />
 <path d="  M 19,16  L 19,15  L 18,15  L 18,16  Z  " style="fill:rgb(226, 211, 172); fill-opacity:1.000; stroke:none;" />
 <path d="  M 18,22  L 19,22  L 19,23  L 20,23  L 20,21  L 19,21  L 19,20  L 18,20  Z  " style="fill:rgb(226, 211, 172); fill-opacity:1.000; stroke:none;" />
 <path d="  M 20,12  L 19,12  L 19,13  L 20,13  Z  " style="fill:rgb(226, 211, 172); fill-opacity:1.000; stroke:none;" />
 <path d="  M 19,17  L 20,17  L 20,16  L 19,16  Z  " style="fill:rgb(226, 211, 172); fill-opacity:1.000; stroke:none;" />
 <path d="  M 21,10  L 21,9  L 20,9  L 20,10  Z  " style="fill:rgb(226, 211, 172); fill-opacity:1.000; stroke:none;" />
 <path d="  M 21,13  L 20,13  L 20,14  L 21,14  Z  " style="fill:rgb(226, 211, 172); fill-opacity:1.000; stroke:none;" />
 <path d="  M 20,17  L 20,18  L 21,18  L 21,17  Z  " style="fill:rgb(226, 211, 172); fill-opacity:1.000; stroke:none;" />
 <path d="  M 23,11  L 23,10  L 21,10  L 21,11  Z  " style="fill:rgb(226, 211, 172); fill-opacity:1.000; stroke:none;" />
 <path d="  M 22,14  L 21,14  L 21,15  L 22,15  Z  " style="fill:rgb(226, 211, 172); fill-opacity:1.000; stroke:none;" />
 <path d="  M 21,20  L 22,20  L 22,19  L 23,19  L 23,18  L 21,18  Z  " style="fill:rgb(226, 211, 172); fill-opacity:1.000; stroke:none;" />
 <path d="  M 23,15  L 22,15  L 22,16  L 23,16  Z  " style="fill:rgb(226, 211, 172); fill-opacity:1.000; stroke:none;" />
 <path d="  M 25,12  L 25,11  L 23,11  L 23,12  Z  " style="fill:rgb(226, 211, 172); fill-opacity:1.000; stroke:none;" />
 <path d="  M 24,18  L 25,18  L 25,16  L 23,16  L 23,17  L 24,17  Z  " style="fill:rgb(226, 211, 172); fill-opacity:1.000; stroke:none;" />
 <path d="  M 25,12  L 25,13  L 26,13  L 26,12  Z  " style="fill:rgb(226, 211, 172); fill-opacity:1.000; stroke:none;" />
 <path d="  M 25,15  L 26,15  L 26,14  L 25,14  Z  " style="fill:rgb(226, 211, 172); fill-opacity:1.000; stroke:none;" />
 <path d="  M 26,13  L 26,14  L 27,14  L 27,13  Z  " style="fill:rgb(226, 211, 172); fill-opacity:1.000; stroke:none;" />
 <path d="  M 7,19  L 8,19  L 8,18  L 7,18  Z  " style="fill:rgb(218, 203, 164); fill-opacity:1.000; stroke:none;" />
 <path d="  M 8,17  L 8,18  L 9,18  L 9,17  Z  " style="fill:rgb(218, 203, 164); fill-opacity:1.000; stroke:none;" />
 <path d="  M 8,19  L 8,20  L 9,20  L 9,19  Z  " style="fill:rgb(218, 203, 164); fill-opacity:1.000; stroke:none;" />
 <path d="  M 10,18  L 9,18  L 9,19  L 10,19  Z  " style="fill:rgb(218, 203, 164); fill-opacity:1.000; stroke:none;" />
 <path d="  M 10,21  L 10,20  L 9,20  L 9,21  Z  " style="fill:rgb(218, 203, 164); fill-opacity:1.000; stroke:none;" />
 <path d="  M 10,15  L 10,16  L 11,16  L 11,15  Z  " style="fill:rgb(218, 203, 164); fill-opacity:1.000; stroke:none;" />
 <path d="  M 11,22  L 11,21  L 10,21  L 10,23  L 11,23  L 11,24  L 12,24  L 12,22  Z  " style="fill:rgb(218, 203, 164); fill-opacity:1.000; stroke:none;" />
 <path d="  M 11,14  L 11,15  L 12,15  L 12,14  Z  " style="fill:rgb(218, 203, 164); fill-opacity:1.000; stroke:none;" />
 <path d="  M 12,17  L 12,16  L 11,16  L 11,17  Z  " style="fill:rgb(218, 203, 164); fill-opacity:1.000; stroke:none;" />
 <path d="  M 12,18  L 11,18  L 11,19  L 12,19  Z  " style="fill:rgb(218, 203, 164); fill-opacity:1.000; stroke:none;" />
 <path d="  M 12,16  L 13,16  L 13,15  L 12,15  Z  " style="fill:rgb(218, 203, 164); fill-opacity:1.000; stroke:none;" />
 <path d="  M 13,17  L 12,17  L 12,18  L 13,18  Z  " style="fill:rgb(218, 203, 164); fill-opacity:1.000; stroke:none;" />
 <path d="  M 13,25  L 13,24  L 12,24  L 12,25  Z  " style="fill:rgb(218, 203, 164); fill-opacity:1.000; stroke:none;" />
 <path d="  M 14,16  L 13,16  L 13,17  L 14,17  Z  " style="fill:rgb(218, 203, 164); fill-opacity:1.000; stroke:none;" />
 <path d="  M 14,18  L 13,18  L 13,19  L 14,19  Z  " style="fill:rgb(218, 203, 164); fill-opacity:1.000; stroke:none;" />
 <path d="  M 15,19  L 14,19  L 14,20  L 15,20  Z  " style="fill:rgb(218, 203, 164); fill-opacity:1.000; stroke:none;" />
 <path d="  M 14,24  L 15,24  L 15,23  L 14,23  Z  " style="fill:rgb(218, 203, 164); fill-opacity:1.000; stroke:none;" />
 <path d="  M 16,11  L 15,11  L 15,13  L 16,13  Z  " style="fill:rgb(218, 203, 164); fill-opacity:1.000; stroke:none;" />
 <path d="  M 15,20  L 15,21  L 16,21  L 16,20  Z  " style="fill:rgb(218, 203, 164); fill-opacity:1.000; stroke:none;" />
 <path d="  M 15,22  L 15,23  L 16,23  L 16,22  Z  " style="fill:rgb(218, 203, 164); fill-opacity:1.000; stroke:none;" />
 <path d="  M 17,11  L 17,10  L 16,10  L 16,11  Z  " style="fill:rgb(218, 203, 164); fill-opacity:1.000; stroke:none;" />
 <path d="  M 16,15  L 17,15  L 17,14  L 16,14  Z  " style="fill:rgb(218, 203, 164); fill-opacity:1.000; stroke:none;" />
 <path d="  M 17,22  L 17,21  L 16,21  L 16,22  Z  " style="fill:rgb(218, 203, 164); fill-opacity:1.000; stroke:none;" />
 <path d="  M 18,10  L 18,9  L 17,9  L 17,10  Z  " style="fill:rgb(218, 203, 164); fill-opacity:1.000; stroke:none;" />
 <path d="  M 17,11  L 17,12  L 18,12  L 18,11  Z  " style="fill:rgb(218, 203, 164); fill-opacity:1.000; stroke:none;" />
 <path d="  M 17,15  L 17,16  L 18,16  L 18,15  Z  " style="fill:rgb(218, 203, 164); fill-opacity:1.000; stroke:none;" />
 <path d="  M 18,19  L 18,18  L 17,18  L 17,19  Z  " style="fill:rgb(218, 203, 164); fill-opacity:1.000; stroke:none;" />
 <path d="  M 18,22  L 17,22  L 17,23  L 18,23  Z  " style="fill:rgb(218, 203, 164); fill-opacity:1.000; stroke:none;" />
 <path d="  M 19,11  L 19,10  L 18,10  L 18,11  Z  " style="fill:rgb(218, 203, 164); fill-opacity:1.000; stroke:none;" />
 <path d="  M 18,13  L 19,13  L 19,12  L 18,12  Z  " style="fill:rgb(218, 203, 164); fill-opacity:1.000; stroke:none;" />
 <path d="  M 19,16  L 18,16  L 18,17  L 19,17  Z  " style="fill:rgb(218, 203, 164); fill-opacity:1.000; stroke:none;" />
 <path d="  M 18,20  L 19,20  L 19,19  L 18,19  Z  " style="fill:rgb(218, 203, 164); fill-opacity:1.000; stroke:none;" />
 <path d="  M 20,8  L 20,7  L 19,7  L 19,8  Z  " style="fill:rgb(218, 203, 164); fill-opacity:1.000; stroke:none;" />
 <path d="  M 19,12  L 20,12  L 20,11  L 19,11  Z  " style="fill:rgb(218, 203, 164); fill-opacity:1.000; stroke:none;" />
 <path d="  M 19,14  L 20,14  L 20,13  L 19,13  Z  " style="fill:rgb(218, 203, 164); fill-opacity:1.000; stroke:none;" />
 <path d="  M 19,15  L 19,16  L 20,16  L 20,15  Z  " style="fill:rgb(218, 203, 164); fill-opacity:1.000; stroke:none;" />
 <path d="  M 20,17  L 19,17  L 19,18  L 20,18  Z  " style="fill:rgb(218, 203, 164); fill-opacity:1.000; stroke:none;" />
 <path d="  M 19,21  L 20,21  L 20,20  L 19,20  Z  " style="fill:rgb(218, 203, 164); fill-opacity:1.000; stroke:none;" />
 <path d="  M 21,8  L 20,8  L 20,9  L 21,9  Z  " style="fill:rgb(218, 203, 164); fill-opacity:1.000; stroke:none;" />
 <path d="  M 21,12  L 20,12  L 20,13  L 21,13  Z  " style="fill:rgb(218, 203, 164); fill-opacity:1.000; stroke:none;" />
 <path d="  M 20,16  L 20,17  L 21,17  L 21,16  Z  " style="fill:rgb(218, 203, 164); fill-opacity:1.000; stroke:none;" />
 <path d="  M 21,19  L 21,18  L 20,18  L 20,19  Z  " style="fill:rgb(218, 203, 164); fill-opacity:1.000; stroke:none;" />
 <path d="  M 20,21  L 20,22  L 21,22  L 21,21  Z  " style="fill:rgb(218, 203, 164); fill-opacity:1.000; stroke:none;" />
 <path d="  M 22,6  L 21,6  L 21,7  L 22,7  Z  " style="fill:rgb(218, 203, 164); fill-opacity:1.000; stroke:none;" />
 <path d="  M 21,9  L 21,10  L 22,10  L 22,9  Z  " style="fill:rgb(218, 203, 164); fill-opacity:1.000; stroke:none;" />
 <path d="  M 21,14  L 22,14  L 22,13  L 21,13  Z  " style="fill:rgb(218, 203, 164); fill-opacity:1.000; stroke:none;" />
 <path d="  M 21,17  L 21,18  L 22,18  L 22,17  Z  " style="fill:rgb(218, 203, 164); fill-opacity:1.000; stroke:none;" />
 <path d="  M 21,20  L 21,21  L 22,21  L 22,20  Z  " style="fill:rgb(218, 203, 164); fill-opacity:1.000; stroke:none;" />
 <path d="  M 25,9  L 25,8  L 24,8  L 24,7  L 22,7  L 22,8  L 23,8  L 23,9  Z  " style="fill:rgb(218, 203, 164); fill-opacity:1.000; stroke:none;" />
 <path d="  M 22,12  L 23,12  L 23,11  L 22,11  Z  " style="fill:rgb(218, 203, 164); fill-opacity:1.000; stroke:none;" />
 <path d="  M 23,15  L 23,14  L 22,14  L 22,15  Z  " style="fill:rgb(218, 203, 164); fill-opacity:1.000; stroke:none;" />
 <path d="  M 22,19  L 22,20  L 23,20  L 23,19  Z  " style="fill:rgb(218, 203, 164); fill-opacity:1.000; stroke:none;" />
 <path d="  M 24,11  L 24,10  L 23,10  L 23,11  Z  " style="fill:rgb(218, 203, 164); fill-opacity:1.000; stroke:none;" />
 <path d="  M 24,13  L 24,14  L 26,14  L 26,13  L 25,13  L 25,12  L 23,12  L 23,13  Z  " style="fill:rgb(218, 203, 164); fill-opacity:1.000; stroke:none;" />
 <path d="  M 23,16  L 25,16  L 25,15  L 23,15  Z  " style="fill:rgb(218, 203, 164); fill-opacity:1.000; stroke:none;" />
 <path d="  M 24,19  L 24,18  L 23,18  L 23,19  Z  " style="fill:rgb(218, 203, 164); fill-opacity:1.000; stroke:none;" />
 <path d="  M 25,9  L 25,10  L 26,10  L 26,11  L 27,11  L 27,9  Z  " style="fill:rgb(218, 203, 164); fill-opacity:1.000; stroke:none;" />
 <path d="  M 25,17  L 26,17  L 26,16  L 25,16  Z  " style="fill:rgb(218, 203, 164); fill-opacity:1.000; stroke:none;" />
 <path d="  M 8,22  L 8,21  L 7,21  L 7,22  Z  " style="fill:rgb(211, 192, 136); fill-opacity:1.000; stroke:none;" />
 <path d="  M 10,17  L 10,16  L 8,16  L 8,17  Z  " style="fill:rgb(211, 192, 136); fill-opacity:1.000; stroke:none;" />
 <path d="  M 9,22  L 8,22  L 8,23  L 9,23  Z  " style="fill:rgb(211, 192, 136); fill-opacity:1.000; stroke:none;" />
 <path d="  M 10,21  L 9,21  L 9,22  L 10,22  Z  " style="fill:rgb(211, 192, 136); fill-opacity:1.000; stroke:none;" />
 <path d="  M 10,23  L 9,23  L 9,24  L 10,24  Z  " style="fill:rgb(211, 192, 136); fill-opacity:1.000; stroke:none;" />
 <path d="  M 10,17  L 10,20  L 11,20  L 11,17  Z  " style="fill:rgb(211, 192, 136); fill-opacity:1.000; stroke:none;" />
 <path d="  M 10,24  L 10,25  L 12,25  L 12,24  Z  " style="fill:rgb(211, 192, 136); fill-opacity:1.000; stroke:none;" />
 <path d="  M 12,16  L 12,15  L 11,15  L 11,16  Z  " style="fill:rgb(211, 192, 136); fill-opacity:1.000; stroke:none;" />
 <path d="  M 12,21  L 12,20  L 11,20  L 11,21  Z  " style="fill:rgb(211, 192, 136); fill-opacity:1.000; stroke:none;" />
 <path d="  M 12,13  L 12,14  L 13,14  L 13,13  Z  " style="fill:rgb(211, 192, 136); fill-opacity:1.000; stroke:none;" />
 <path d="  M 13,19  L 12,19  L 12,20  L 13,20  Z  " style="fill:rgb(211, 192, 136); fill-opacity:1.000; stroke:none;" />
 <path d="  M 13,21  L 12,21  L 12,22  L 13,22  Z  " style="fill:rgb(211, 192, 136); fill-opacity:1.000; stroke:none;" />
 <path d="  M 13,12  L 13,13  L 14,13  L 14,12  Z  " style="fill:rgb(211, 192, 136); fill-opacity:1.000; stroke:none;" />
 <path d="  M 13,15  L 14,15  L 14,14  L 13,14  Z  " style="fill:rgb(211, 192, 136); fill-opacity:1.000; stroke:none;" />
 <path d="  M 14,21  L 14,20  L 13,20  L 13,21  Z  " style="fill:rgb(211, 192, 136); fill-opacity:1.000; stroke:none;" />
 <path d="  M 13,23  L 15,23  L 15,21  L 14,21  L 14,22  L 13,22  Z  " style="fill:rgb(211, 192, 136); fill-opacity:1.000; stroke:none;" />
 <path d="  M 15,11  L 14,11  L 14,12  L 15,12  Z  " style="fill:rgb(211, 192, 136); fill-opacity:1.000; stroke:none;" />
 <path d="  M 14,16  L 15,16  L 15,15  L 14,15  Z  " style="fill:rgb(211, 192, 136); fill-opacity:1.000; stroke:none;" />
 <path d="  M 15,18  L 15,17  L 14,17  L 14,18  Z  " style="fill:rgb(211, 192, 136); fill-opacity:1.000; stroke:none;" />
 <path d="  M 17,25  L 17,24  L 16,24  L 16,23  L 15,23  L 15,24  L 14,24  L 14,25  Z  " style="fill:rgb(211, 192, 136); fill-opacity:1.000; stroke:none;" />
 <path d="  M 16,17  L 16,16  L 15,16  L 15,17  Z  " style="fill:rgb(211, 192, 136); fill-opacity:1.000; stroke:none;" />
 <path d="  M 16,10  L 17,10  L 17,9  L 16,9  Z  " style="fill:rgb(211, 192, 136); fill-opacity:1.000; stroke:none;" />
 <path d="  M 16,13  L 17,13  L 17,11  L 16,11  Z  " style="fill:rgb(211, 192, 136); fill-opacity:1.000; stroke:none;" />
 <path d="  M 16,18  L 17,18  L 17,17  L 16,17  Z  " style="fill:rgb(211, 192, 136); fill-opacity:1.000; stroke:none;" />
 <path d="  M 18,20  L 16,20  L 16,21  L 17,21  L 17,22  L 18,22  Z  " style="fill:rgb(211, 192, 136); fill-opacity:1.000; stroke:none;" />
 <path d="  M 18,13  L 17,13  L 17,14  L 18,14  Z  " style="fill:rgb(211, 192, 136); fill-opacity:1.000; stroke:none;" />
 <path d="  M 18,23  L 17,23  L 17,24  L 19,24  L 19,22  L 18,22  Z  " style="fill:rgb(211, 192, 136); fill-opacity:1.000; stroke:none;" />
 <path d="  M 18,7  L 18,8  L 19,8  L 19,7  Z  " style="fill:rgb(211, 192, 136); fill-opacity:1.000; stroke:none;" />
 <path d="  M 20,9  L 18,9  L 18,10  L 20,10  Z  " style="fill:rgb(211, 192, 136); fill-opacity:1.000; stroke:none;" />
 <path d="  M 18,14  L 18,15  L 19,15  L 19,14  Z  " style="fill:rgb(211, 192, 136); fill-opacity:1.000; stroke:none;" />
 <path d="  M 20,18  L 18,18  L 18,19  L 19,19  L 19,20  L 20,20  L 20,21  L 21,21  L 21,19  L 20,19  Z  " style="fill:rgb(211, 192, 136); fill-opacity:1.000; stroke:none;" />
 <path d="  M 21,7  L 20,7  L 20,8  L 21,8  Z  " style="fill:rgb(211, 192, 136); fill-opacity:1.000; stroke:none;" />
 <path d="  M 21,10  L 20,10  L 20,11  L 21,11  Z  " style="fill:rgb(211, 192, 136); fill-opacity:1.000; stroke:none;" />
 <path d="  M 21,22  L 20,22  L 20,23  L 21,23  Z  " style="fill:rgb(211, 192, 136); fill-opacity:1.000; stroke:none;" />
 <path d="  M 21,9  L 22,9  L 22,8  L 21,8  Z  " style="fill:rgb(211, 192, 136); fill-opacity:1.000; stroke:none;" />
 <path d="  M 21,11  L 21,12  L 22,12  L 22,11  Z  " style="fill:rgb(211, 192, 136); fill-opacity:1.000; stroke:none;" />
 <path d="  M 22,21  L 21,21  L 21,22  L 22,22  Z  " style="fill:rgb(211, 192, 136); fill-opacity:1.000; stroke:none;" />
 <path d="  M 23,7  L 23,6  L 22,6  L 22,7  Z  " style="fill:rgb(211, 192, 136); fill-opacity:1.000; stroke:none;" />
 <path d="  M 22,10  L 23,10  L 23,9  L 22,9  Z  " style="fill:rgb(211, 192, 136); fill-opacity:1.000; stroke:none;" />
 <path d="  M 23,13  L 23,12  L 22,12  L 22,13  Z  " style="fill:rgb(211, 192, 136); fill-opacity:1.000; stroke:none;" />
 <path d="  M 22,17  L 23,17  L 23,16  L 22,16  Z  " style="fill:rgb(211, 192, 136); fill-opacity:1.000; stroke:none;" />
 <path d="  M 23,20  L 22,20  L 22,21  L 23,21  Z  " style="fill:rgb(211, 192, 136); fill-opacity:1.000; stroke:none;" />
 <path d="  M 23,14  L 23,15  L 24,15  L 24,14  Z  " style="fill:rgb(211, 192, 136); fill-opacity:1.000; stroke:none;" />
 <path d="  M 24,18  L 24,17  L 23,17  L 23,18  Z  " style="fill:rgb(211, 192, 136); fill-opacity:1.000; stroke:none;" />
 <path d="  M 23,20  L 24,20  L 24,19  L 23,19  Z  " style="fill:rgb(211, 192, 136); fill-opacity:1.000; stroke:none;" />
 <path d="  M 25,8  L 25,7  L 24,7  L 24,8  Z  " style="fill:rgb(211, 192, 136); fill-opacity:1.000; stroke:none;" />
 <path d="  M 25,10  L 25,9  L 24,9  L 24,10  Z  " style="fill:rgb(211, 192, 136); fill-opacity:1.000; stroke:none;" />
 <path d="  M 24,18  L 24,19  L 25,19  L 25,18  Z  " style="fill:rgb(211, 192, 136); fill-opacity:1.000; stroke:none;" />
 <path d="  M 26,8  L 25,8  L 25,9  L 26,9  Z  " style="fill:rgb(211, 192, 136); fill-opacity:1.000; stroke:none;" />
 <path d="  M 26,12  L 26,11  L 25,11  L 25,12  Z  " style="fill:rgb(211, 192, 136); fill-opacity:1.000; stroke:none;" />
 <path d="  M 26,16  L 26,15  L 25,15  L 25,16  Z  " style="fill:rgb(211, 192, 136); fill-opacity:1.000; stroke:none;" />
 <path d="  M 27,12  L 26,12  L 26,13  L 28,13  L 28,11  L 27,11  Z  " style="fill:rgb(211, 192, 136); fill-opacity:1.000; stroke:none;" />
 <path d="  M 27,15  L 27,14  L 26,14  L 26,15  Z  " style="fill:rgb(211, 192, 136); fill-opacity:1.000; stroke:none;" />
</svg>
