<?xml version="1.0" encoding="UTF-8" standalone="no"?>
<!DOCTYPE svg PUBLIC "-//W3C//DTD SVG 1.1//EN" 
  "http://www.w3.org/Graphics/SVG/1.1/DTD/svg11.dtd">
<svg width="32" height="32"
	 xmlns="http://www.w3.org/2000/svg" version="1.1">
 <path d="  M 4,5  L 6,5  L 6,4  L 4,4  Z  " style="fill:rgb(146, 65, 96); fill-opacity:1.000; stroke:none;" />
 <path d="  M 5,7  L 4,7  L 4,9  L 5,9  Z  " style="fill:rgb(146, 65, 96); fill-opacity:1.000; stroke:none;" />
 <path d="  M 5,12  L 5,11  L 4,11  L 4,12  Z  " style="fill:rgb(146, 65, 96); fill-opacity:1.000; stroke:none;" />
 <path d="  M 4,16  L 4,17  L 5,17  L 5,16  Z  " style="fill:rgb(146, 65, 96); fill-opacity:1.000; stroke:none;" />
 <path d="  M 4,19  L 4,20  L 5,20  L 5,19  Z  " style="fill:rgb(146, 65, 96); fill-opacity:1.000; stroke:none;" />
 <path d="  M 22,5  L 23,5  L 23,4  L 22,4  Z  " style="fill:rgb(146, 65, 96); fill-opacity:1.000; stroke:none;" />
 <path d="  M 27,5  L 27,4  L 25,4  L 25,5  Z  " style="fill:rgb(146, 65, 96); fill-opacity:1.000; stroke:none;" />
 <path d="  M 4,5  L 4,6  L 5,6  L 5,5  Z  " style="fill:rgb(134, 62, 90); fill-opacity:1.000; stroke:none;" />
 <path d="  M 5,10  L 5,9  L 4,9  L 4,10  Z  " style="fill:rgb(134, 62, 90); fill-opacity:1.000; stroke:none;" />
 <path d="  M 4,14  L 5,14  L 5,12  L 4,12  Z  " style="fill:rgb(134, 62, 90); fill-opacity:1.000; stroke:none;" />
 <path d="  M 5,16  L 5,15  L 4,15  L 4,16  Z  " style="fill:rgb(134, 62, 90); fill-opacity:1.000; stroke:none;" />
 <path d="  M 4,18  L 5,18  L 5,17  L 4,17  Z  " style="fill:rgb(134, 62, 90); fill-opacity:1.000; stroke:none;" />
 <path d="  M 6,4  L 6,5  L 8,5  L 8,4  Z  " style="fill:rgb(134, 62, 90); fill-opacity:1.000; stroke:none;" />
 <path d="  M 25,4  L 23,4  L 23,5  L 25,5  Z  " style="fill:rgb(134, 62, 90); fill-opacity:1.000; stroke:none;" />
 <path d="  M 28,5  L 28,4  L 27,4  L 27,5  Z  " style="fill:rgb(134, 62, 90); fill-opacity:1.000; stroke:none;" />
 <path d="  M 8,4  L 8,5  L 5,5  L 5,6  L 4,6  L 4,7  L 5,7  L 5,10  L 4,10  L 4,11  L 5,11  L 5,14  L 4,14  L 4,15  L 5,15  L 5,18  L 4,18  L 4,19  L 5,19  L 5,20  L 29,20  L 29,4  L 28,4  L 28,5  L 22,5  L 22,4  Z  M 7,15  L 7,16  L 8,16  L 8,14  L 9,14  L 9,15  L 10,15  L 10,17  L 6,17  L 6,15  Z  M 17,9  L 17,6  L 18,6  L 18,8  L 19,8  L 19,9  Z  M 16,17  L 14,17  L 14,16  L 15,16  L 15,14  L 16,14  Z  M 23,9  L 23,7  L 24,7  L 24,6  L 25,6  L 25,8  L 26,8  L 26,6  L 27,6  L 27,9  Z  M 22,11  L 22,12  L 24,12  L 24,11  L 25,11  L 25,13  L 20,13  L 20,11  Z  M 7,6  L 7,8  L 8,8  L 8,9  L 6,9  L 6,6  Z  M 15,13  L 15,11  L 16,11  L 16,13  Z  M 22,7  L 22,9  L 20,9  L 20,7  Z  M 6,12  L 7,12  L 7,10  L 8,10  L 8,13  L 6,13  Z  M 15,6  L 16,6  L 16,9  L 12,9  L 12,7  L 14,7  L 14,8  L 15,8  Z  M 13,17  L 11,17  L 11,16  L 13,16  Z  M 11,7  L 11,9  L 9,9  L 9,7  Z  M 17,15  L 18,15  L 18,16  L 19,16  L 19,14  L 20,14  L 20,15  L 21,15  L 21,17  L 17,17  Z  M 9,11  L 11,11  L 11,12  L 13,12  L 13,11  L 14,11  L 14,13  L 9,13  Z  M 26,16  L 26,14  L 27,14  L 27,17  L 25,17  L 25,16  Z  M 26,11  L 27,11  L 27,13  L 26,13  Z  M 18,12  L 18,10  L 19,10  L 19,13  L 17,13  L 17,12  Z  M 22,17  L 22,16  L 24,16  L 24,17  Z  " style="fill:rgb(126, 58, 86); fill-opacity:1.000; stroke:none;" />
 <path d="  M 16,23  L 15,23  L 15,31  L 16,31  Z  " style="fill:rgb(126, 58, 86); fill-opacity:1.000; stroke:none;" />
 <path d="  M 4,20  L 4,21  L 30,21  L 30,20  Z  " style="fill:rgb(106, 52, 75); fill-opacity:1.000; stroke:none;" />
 <path d="  M 15,22  L 15,23  L 16,23  L 16,22  Z  " style="fill:rgb(106, 52, 75); fill-opacity:1.000; stroke:none;" />
 <path d="  M 16,32  L 16,31  L 15,31  L 15,32  Z  " style="fill:rgb(106, 52, 75); fill-opacity:1.000; stroke:none;" />
 <path d="  M 16,23  L 16,24  L 18,24  L 18,23  Z  " style="fill:rgb(106, 52, 75); fill-opacity:1.000; stroke:none;" />
 <path d="  M 29,9  L 30,9  L 30,4  L 29,4  Z  " style="fill:rgb(106, 52, 75); fill-opacity:1.000; stroke:none;" />
 <path d="  M 30,12  L 29,12  L 29,13  L 30,13  Z  " style="fill:rgb(106, 52, 75); fill-opacity:1.000; stroke:none;" />
 <path d="  M 30,16  L 29,16  L 29,17  L 30,17  Z  " style="fill:rgb(106, 52, 75); fill-opacity:1.000; stroke:none;" />
 <path d="  M 19,32  L 19,22  L 30,22  L 30,21  L 4,21  L 4,22  L 18,22  L 18,31  L 16,31  L 16,32  Z  " style="fill:rgb(63, 30, 45); fill-opacity:1.000; stroke:none;" />
 <path d="  M 6,6  L 6,8  L 7,8  L 7,6  Z  " style="fill:rgb(97, 30, 58); fill-opacity:1.000; stroke:none;" />
 <path d="  M 6,16  L 7,16  L 7,15  L 6,15  Z  " style="fill:rgb(97, 30, 58); fill-opacity:1.000; stroke:none;" />
 <path d="  M 7,12  L 8,12  L 8,11  L 7,11  Z  " style="fill:rgb(97, 30, 58); fill-opacity:1.000; stroke:none;" />
 <path d="  M 8,16  L 7,16  L 7,17  L 8,17  Z  " style="fill:rgb(97, 30, 58); fill-opacity:1.000; stroke:none;" />
 <path d="  M 9,14  L 8,14  L 8,16  L 9,16  Z  " style="fill:rgb(97, 30, 58); fill-opacity:1.000; stroke:none;" />
 <path d="  M 9,11  L 9,12  L 11,12  L 11,11  Z  " style="fill:rgb(97, 30, 58); fill-opacity:1.000; stroke:none;" />
 <path d="  M 10,9  L 11,9  L 11,7  L 10,7  Z  " style="fill:rgb(97, 30, 58); fill-opacity:1.000; stroke:none;" />
 <path d="  M 11,13  L 12,13  L 12,12  L 11,12  Z  " style="fill:rgb(97, 30, 58); fill-opacity:1.000; stroke:none;" />
 <path d="  M 12,17  L 12,16  L 11,16  L 11,17  Z  " style="fill:rgb(97, 30, 58); fill-opacity:1.000; stroke:none;" />
 <path d="  M 13,7  L 13,8  L 14,8  L 14,7  Z  " style="fill:rgb(97, 30, 58); fill-opacity:1.000; stroke:none;" />
 <path d="  M 13,12  L 14,12  L 14,11  L 13,11  Z  " style="fill:rgb(97, 30, 58); fill-opacity:1.000; stroke:none;" />
 <path d="  M 14,9  L 15,9  L 15,8  L 14,8  Z  " style="fill:rgb(97, 30, 58); fill-opacity:1.000; stroke:none;" />
 <path d="  M 16,6  L 15,6  L 15,8  L 16,8  Z  " style="fill:rgb(97, 30, 58); fill-opacity:1.000; stroke:none;" />
 <path d="  M 15,11  L 15,12  L 16,12  L 16,11  Z  " style="fill:rgb(97, 30, 58); fill-opacity:1.000; stroke:none;" />
 <path d="  M 16,16  L 16,14  L 15,14  L 15,16  Z  " style="fill:rgb(97, 30, 58); fill-opacity:1.000; stroke:none;" />
 <path d="  M 16,22  L 16,23  L 18,23  L 18,22  Z  " style="fill:rgb(97, 30, 58); fill-opacity:1.000; stroke:none;" />
 <path d="  M 18,6  L 17,6  L 17,8  L 18,8  Z  " style="fill:rgb(97, 30, 58); fill-opacity:1.000; stroke:none;" />
 <path d="  M 17,15  L 17,16  L 18,16  L 18,15  Z  " style="fill:rgb(97, 30, 58); fill-opacity:1.000; stroke:none;" />
 <path d="  M 19,12  L 19,11  L 18,11  L 18,12  Z  " style="fill:rgb(97, 30, 58); fill-opacity:1.000; stroke:none;" />
 <path d="  M 19,16  L 18,16  L 18,17  L 19,17  Z  " style="fill:rgb(97, 30, 58); fill-opacity:1.000; stroke:none;" />
 <path d="  M 19,16  L 20,16  L 20,14  L 19,14  Z  " style="fill:rgb(97, 30, 58); fill-opacity:1.000; stroke:none;" />
 <path d="  M 22,12  L 22,11  L 20,11  L 20,12  Z  " style="fill:rgb(97, 30, 58); fill-opacity:1.000; stroke:none;" />
 <path d="  M 22,7  L 21,7  L 21,9  L 22,9  Z  " style="fill:rgb(97, 30, 58); fill-opacity:1.000; stroke:none;" />
 <path d="  M 23,13  L 23,12  L 22,12  L 22,13  Z  " style="fill:rgb(97, 30, 58); fill-opacity:1.000; stroke:none;" />
 <path d="  M 22,17  L 23,17  L 23,16  L 22,16  Z  " style="fill:rgb(97, 30, 58); fill-opacity:1.000; stroke:none;" />
 <path d="  M 25,8  L 25,6  L 24,6  L 24,8  Z  " style="fill:rgb(97, 30, 58); fill-opacity:1.000; stroke:none;" />
 <path d="  M 25,12  L 25,11  L 24,11  L 24,12  Z  " style="fill:rgb(97, 30, 58); fill-opacity:1.000; stroke:none;" />
 <path d="  M 26,8  L 25,8  L 25,9  L 26,9  Z  " style="fill:rgb(97, 30, 58); fill-opacity:1.000; stroke:none;" />
 <path d="  M 26,8  L 27,8  L 27,6  L 26,6  Z  " style="fill:rgb(97, 30, 58); fill-opacity:1.000; stroke:none;" />
 <path d="  M 26,12  L 27,12  L 27,11  L 26,11  Z  " style="fill:rgb(97, 30, 58); fill-opacity:1.000; stroke:none;" />
 <path d="  M 26,16  L 27,16  L 27,14  L 26,14  Z  " style="fill:rgb(97, 30, 58); fill-opacity:1.000; stroke:none;" />
 <path d="  M 29,12  L 30,12  L 30,10  L 29,10  Z  " style="fill:rgb(97, 30, 58); fill-opacity:1.000; stroke:none;" />
 <path d="  M 29,13  L 29,14  L 30,14  L 30,13  Z  " style="fill:rgb(97, 30, 58); fill-opacity:1.000; stroke:none;" />
 <path d="  M 29,19  L 30,19  L 30,17  L 29,17  Z  " style="fill:rgb(97, 30, 58); fill-opacity:1.000; stroke:none;" />
 <path d="  M 6,8  L 6,9  L 8,9  L 8,8  Z  " style="fill:rgb(53, 22, 36); fill-opacity:1.000; stroke:none;" />
 <path d="  M 8,12  L 6,12  L 6,13  L 8,13  Z  " style="fill:rgb(53, 22, 36); fill-opacity:1.000; stroke:none;" />
 <path d="  M 6,16  L 6,17  L 7,17  L 7,16  Z  " style="fill:rgb(53, 22, 36); fill-opacity:1.000; stroke:none;" />
 <path d="  M 7,11  L 8,11  L 8,10  L 7,10  Z  " style="fill:rgb(53, 22, 36); fill-opacity:1.000; stroke:none;" />
 <path d="  M 10,15  L 9,15  L 9,16  L 8,16  L 8,17  L 10,17  Z  " style="fill:rgb(53, 22, 36); fill-opacity:1.000; stroke:none;" />
 <path d="  M 10,7  L 9,7  L 9,9  L 10,9  Z  " style="fill:rgb(53, 22, 36); fill-opacity:1.000; stroke:none;" />
 <path d="  M 9,12  L 9,13  L 11,13  L 11,12  Z  " style="fill:rgb(53, 22, 36); fill-opacity:1.000; stroke:none;" />
 <path d="  M 12,9  L 14,9  L 14,8  L 13,8  L 13,7  L 12,7  Z  " style="fill:rgb(53, 22, 36); fill-opacity:1.000; stroke:none;" />
 <path d="  M 12,12  L 12,13  L 14,13  L 14,12  Z  " style="fill:rgb(53, 22, 36); fill-opacity:1.000; stroke:none;" />
 <path d="  M 13,17  L 13,16  L 12,16  L 12,17  Z  " style="fill:rgb(53, 22, 36); fill-opacity:1.000; stroke:none;" />
 <path d="  M 14,16  L 14,17  L 16,17  L 16,16  Z  " style="fill:rgb(53, 22, 36); fill-opacity:1.000; stroke:none;" />
 <path d="  M 16,8  L 15,8  L 15,9  L 16,9  Z  " style="fill:rgb(53, 22, 36); fill-opacity:1.000; stroke:none;" />
 <path d="  M 15,12  L 15,13  L 16,13  L 16,12  Z  " style="fill:rgb(53, 22, 36); fill-opacity:1.000; stroke:none;" />
 <path d="  M 19,8  L 17,8  L 17,9  L 19,9  Z  " style="fill:rgb(53, 22, 36); fill-opacity:1.000; stroke:none;" />
 <path d="  M 19,13  L 19,12  L 17,12  L 17,13  Z  " style="fill:rgb(53, 22, 36); fill-opacity:1.000; stroke:none;" />
 <path d="  M 18,17  L 18,16  L 17,16  L 17,17  Z  " style="fill:rgb(53, 22, 36); fill-opacity:1.000; stroke:none;" />
 <path d="  M 19,11  L 19,10  L 18,10  L 18,11  Z  " style="fill:rgb(53, 22, 36); fill-opacity:1.000; stroke:none;" />
 <path d="  M 21,15  L 20,15  L 20,16  L 19,16  L 19,17  L 21,17  Z  " style="fill:rgb(53, 22, 36); fill-opacity:1.000; stroke:none;" />
 <path d="  M 21,9  L 21,7  L 20,7  L 20,9  Z  " style="fill:rgb(53, 22, 36); fill-opacity:1.000; stroke:none;" />
 <path d="  M 20,13  L 22,13  L 22,12  L 20,12  Z  " style="fill:rgb(53, 22, 36); fill-opacity:1.000; stroke:none;" />
 <path d="  M 25,9  L 25,8  L 24,8  L 24,7  L 23,7  L 23,9  Z  " style="fill:rgb(53, 22, 36); fill-opacity:1.000; stroke:none;" />
 <path d="  M 25,13  L 25,12  L 23,12  L 23,13  Z  " style="fill:rgb(53, 22, 36); fill-opacity:1.000; stroke:none;" />
 <path d="  M 23,16  L 23,17  L 24,17  L 24,16  Z  " style="fill:rgb(53, 22, 36); fill-opacity:1.000; stroke:none;" />
 <path d="  M 27,17  L 27,16  L 25,16  L 25,17  Z  " style="fill:rgb(53, 22, 36); fill-opacity:1.000; stroke:none;" />
 <path d="  M 26,8  L 26,9  L 27,9  L 27,8  Z  " style="fill:rgb(53, 22, 36); fill-opacity:1.000; stroke:none;" />
 <path d="  M 27,12  L 26,12  L 26,13  L 27,13  Z  " style="fill:rgb(53, 22, 36); fill-opacity:1.000; stroke:none;" />
 <path d="  M 18,24  L 16,24  L 16,31  L 18,31  Z  " style="fill:rgb(92, 48, 66); fill-opacity:1.000; stroke:none;" />
 <path d="  M 30,10  L 30,9  L 29,9  L 29,10  Z  " style="fill:rgb(92, 48, 66); fill-opacity:1.000; stroke:none;" />
 <path d="  M 29,16  L 30,16  L 30,14  L 29,14  Z  " style="fill:rgb(92, 48, 66); fill-opacity:1.000; stroke:none;" />
 <path d="  M 29,19  L 29,20  L 30,20  L 30,19  Z  " style="fill:rgb(92, 48, 66); fill-opacity:1.000; stroke:none;" />
</svg>
