<?xml version="1.0" encoding="UTF-8" standalone="no"?>
<!DOCTYPE svg PUBLIC "-//W3C//DTD SVG 1.1//EN" 
  "http://www.w3.org/Graphics/SVG/1.1/DTD/svg11.dtd">
<svg width="32" height="32"
	 xmlns="http://www.w3.org/2000/svg" version="1.1">
 <path d="  M 2,25  L 3,25  L 3,21  L 2,21  Z  " style="fill:rgb(25, 32, 34); fill-opacity:1.000; stroke:none;" />
 <path d="  M 3,20  L 3,21  L 4,21  L 4,20  Z  " style="fill:rgb(25, 32, 34); fill-opacity:1.000; stroke:none;" />
 <path d="  M 3,25  L 3,26  L 9,26  L 9,25  Z  " style="fill:rgb(25, 32, 34); fill-opacity:1.000; stroke:none;" />
 <path d="  M 4,19  L 4,20  L 5,20  L 5,19  Z  " style="fill:rgb(25, 32, 34); fill-opacity:1.000; stroke:none;" />
 <path d="  M 6,19  L 6,18  L 5,18  L 5,19  Z  " style="fill:rgb(25, 32, 34); fill-opacity:1.000; stroke:none;" />
 <path d="  M 6,8  L 6,18  L 7,18  L 7,8  Z  " style="fill:rgb(25, 32, 34); fill-opacity:1.000; stroke:none;" />
 <path d="  M 8,8  L 8,7  L 7,7  L 7,8  Z  " style="fill:rgb(25, 32, 34); fill-opacity:1.000; stroke:none;" />
 <path d="  M 8,6  L 8,7  L 13,7  L 13,6  Z  " style="fill:rgb(25, 32, 34); fill-opacity:1.000; stroke:none;" />
 <path d="  M 9,24  L 9,25  L 11,25  L 11,24  Z  " style="fill:rgb(25, 32, 34); fill-opacity:1.000; stroke:none;" />
 <path d="  M 13,24  L 13,23  L 11,23  L 11,24  Z  " style="fill:rgb(25, 32, 34); fill-opacity:1.000; stroke:none;" />
 <path d="  M 13,23  L 14,23  L 14,7  L 13,7  Z  " style="fill:rgb(25, 32, 34); fill-opacity:1.000; stroke:none;" />
 <path d="  M 18,7  L 18,23  L 19,23  L 19,7  Z  " style="fill:rgb(25, 32, 34); fill-opacity:1.000; stroke:none;" />
 <path d="  M 24,7  L 24,6  L 19,6  L 19,7  Z  " style="fill:rgb(25, 32, 34); fill-opacity:1.000; stroke:none;" />
 <path d="  M 21,24  L 21,23  L 19,23  L 19,24  Z  " style="fill:rgb(25, 32, 34); fill-opacity:1.000; stroke:none;" />
 <path d="  M 21,24  L 21,25  L 23,25  L 23,24  Z  " style="fill:rgb(25, 32, 34); fill-opacity:1.000; stroke:none;" />
 <path d="  M 23,25  L 23,26  L 29,26  L 29,25  Z  " style="fill:rgb(25, 32, 34); fill-opacity:1.000; stroke:none;" />
 <path d="  M 25,8  L 25,7  L 24,7  L 24,8  Z  " style="fill:rgb(25, 32, 34); fill-opacity:1.000; stroke:none;" />
 <path d="  M 26,8  L 25,8  L 25,18  L 26,18  Z  " style="fill:rgb(25, 32, 34); fill-opacity:1.000; stroke:none;" />
 <path d="  M 26,19  L 27,19  L 27,18  L 26,18  Z  " style="fill:rgb(25, 32, 34); fill-opacity:1.000; stroke:none;" />
 <path d="  M 28,20  L 28,19  L 27,19  L 27,20  Z  " style="fill:rgb(25, 32, 34); fill-opacity:1.000; stroke:none;" />
 <path d="  M 29,21  L 29,20  L 28,20  L 28,21  Z  " style="fill:rgb(25, 32, 34); fill-opacity:1.000; stroke:none;" />
 <path d="  M 30,21  L 29,21  L 29,25  L 30,25  Z  " style="fill:rgb(25, 32, 34); fill-opacity:1.000; stroke:none;" />
</svg>
