<?xml version="1.0" encoding="UTF-8" standalone="no"?>
<!DOCTYPE svg PUBLIC "-//W3C//DTD SVG 1.1//EN" 
  "http://www.w3.org/Graphics/SVG/1.1/DTD/svg11.dtd">
<svg width="32" height="32"
	 xmlns="http://www.w3.org/2000/svg" version="1.1">
 <path d="  M 4,19  L 5,19  L 5,13  L 4,13  Z  " style="fill:rgb(12, 55, 48); fill-opacity:1.000; stroke:none;" />
 <path d="  M 5,13  L 6,13  L 6,11  L 5,11  Z  " style="fill:rgb(12, 55, 48); fill-opacity:1.000; stroke:none;" />
 <path d="  M 5,21  L 6,21  L 6,19  L 5,19  Z  " style="fill:rgb(12, 55, 48); fill-opacity:1.000; stroke:none;" />
 <path d="  M 6,11  L 7,11  L 7,9  L 6,9  Z  " style="fill:rgb(12, 55, 48); fill-opacity:1.000; stroke:none;" />
 <path d="  M 6,23  L 7,23  L 7,21  L 6,21  Z  " style="fill:rgb(12, 55, 48); fill-opacity:1.000; stroke:none;" />
 <path d="  M 7,8  L 7,9  L 8,9  L 8,8  Z  " style="fill:rgb(12, 55, 48); fill-opacity:1.000; stroke:none;" />
 <path d="  M 7,24  L 8,24  L 8,23  L 7,23  Z  " style="fill:rgb(12, 55, 48); fill-opacity:1.000; stroke:none;" />
 <path d="  M 8,7  L 8,8  L 9,8  L 9,7  Z  " style="fill:rgb(12, 55, 48); fill-opacity:1.000; stroke:none;" />
 <path d="  M 8,24  L 8,25  L 9,25  L 9,24  Z  " style="fill:rgb(12, 55, 48); fill-opacity:1.000; stroke:none;" />
 <path d="  M 11,6  L 9,6  L 9,7  L 11,7  Z  " style="fill:rgb(12, 55, 48); fill-opacity:1.000; stroke:none;" />
 <path d="  M 9,25  L 9,26  L 11,26  L 11,25  Z  " style="fill:rgb(12, 55, 48); fill-opacity:1.000; stroke:none;" />
 <path d="  M 13,6  L 13,5  L 11,5  L 11,6  Z  " style="fill:rgb(12, 55, 48); fill-opacity:1.000; stroke:none;" />
 <path d="  M 13,26  L 11,26  L 11,27  L 13,27  Z  " style="fill:rgb(12, 55, 48); fill-opacity:1.000; stroke:none;" />
 <path d="  M 13,4  L 13,5  L 19,5  L 19,4  Z  " style="fill:rgb(12, 55, 48); fill-opacity:1.000; stroke:none;" />
 <path d="  M 19,28  L 19,27  L 13,27  L 13,28  Z  " style="fill:rgb(12, 55, 48); fill-opacity:1.000; stroke:none;" />
 <path d="  M 21,5  L 19,5  L 19,6  L 21,6  Z  " style="fill:rgb(12, 55, 48); fill-opacity:1.000; stroke:none;" />
 <path d="  M 19,27  L 21,27  L 21,26  L 19,26  Z  " style="fill:rgb(12, 55, 48); fill-opacity:1.000; stroke:none;" />
 <path d="  M 23,6  L 21,6  L 21,7  L 23,7  Z  " style="fill:rgb(12, 55, 48); fill-opacity:1.000; stroke:none;" />
 <path d="  M 21,26  L 23,26  L 23,25  L 21,25  Z  " style="fill:rgb(12, 55, 48); fill-opacity:1.000; stroke:none;" />
 <path d="  M 23,8  L 24,8  L 24,7  L 23,7  Z  " style="fill:rgb(12, 55, 48); fill-opacity:1.000; stroke:none;" />
 <path d="  M 23,24  L 23,25  L 24,25  L 24,24  Z  " style="fill:rgb(12, 55, 48); fill-opacity:1.000; stroke:none;" />
 <path d="  M 25,8  L 24,8  L 24,9  L 25,9  Z  " style="fill:rgb(12, 55, 48); fill-opacity:1.000; stroke:none;" />
 <path d="  M 25,23  L 24,23  L 24,24  L 25,24  Z  " style="fill:rgb(12, 55, 48); fill-opacity:1.000; stroke:none;" />
 <path d="  M 26,9  L 25,9  L 25,11  L 26,11  Z  " style="fill:rgb(12, 55, 48); fill-opacity:1.000; stroke:none;" />
 <path d="  M 26,21  L 25,21  L 25,23  L 26,23  Z  " style="fill:rgb(12, 55, 48); fill-opacity:1.000; stroke:none;" />
 <path d="  M 27,13  L 27,11  L 26,11  L 26,13  Z  " style="fill:rgb(12, 55, 48); fill-opacity:1.000; stroke:none;" />
 <path d="  M 27,21  L 27,19  L 26,19  L 26,21  Z  " style="fill:rgb(12, 55, 48); fill-opacity:1.000; stroke:none;" />
 <path d="  M 27,19  L 28,19  L 28,13  L 27,13  Z  " style="fill:rgb(12, 55, 48); fill-opacity:1.000; stroke:none;" />
 <path d="  M 6,13  L 5,13  L 5,19  L 6,19  Z  " style="fill:rgb(52, 153, 136); fill-opacity:1.000; stroke:none;" />
 <path d="  M 7,11  L 6,11  L 6,13  L 7,13  Z  " style="fill:rgb(52, 153, 136); fill-opacity:1.000; stroke:none;" />
 <path d="  M 7,19  L 6,19  L 6,21  L 7,21  Z  " style="fill:rgb(52, 153, 136); fill-opacity:1.000; stroke:none;" />
 <path d="  M 7,11  L 8,11  L 8,9  L 7,9  Z  " style="fill:rgb(52, 153, 136); fill-opacity:1.000; stroke:none;" />
 <path d="  M 7,23  L 8,23  L 8,21  L 7,21  Z  " style="fill:rgb(52, 153, 136); fill-opacity:1.000; stroke:none;" />
 <path d="  M 9,8  L 8,8  L 8,9  L 9,9  Z  " style="fill:rgb(52, 153, 136); fill-opacity:1.000; stroke:none;" />
 <path d="  M 9,24  L 9,23  L 8,23  L 8,24  Z  " style="fill:rgb(52, 153, 136); fill-opacity:1.000; stroke:none;" />
 <path d="  M 9,7  L 9,8  L 11,8  L 11,7  Z  " style="fill:rgb(52, 153, 136); fill-opacity:1.000; stroke:none;" />
 <path d="  M 10,25  L 10,24  L 9,24  L 9,25  Z  " style="fill:rgb(52, 153, 136); fill-opacity:1.000; stroke:none;" />
 <path d="  M 11,6  L 11,7  L 13,7  L 13,6  Z  " style="fill:rgb(52, 153, 136); fill-opacity:1.000; stroke:none;" />
 <path d="  M 19,6  L 19,5  L 13,5  L 13,6  Z  " style="fill:rgb(52, 153, 136); fill-opacity:1.000; stroke:none;" />
 <path d="  M 19,24  L 19,23  L 18,23  L 18,24  Z  " style="fill:rgb(52, 153, 136); fill-opacity:1.000; stroke:none;" />
 <path d="  M 19,6  L 19,7  L 21,7  L 21,6  Z  " style="fill:rgb(52, 153, 136); fill-opacity:1.000; stroke:none;" />
 <path d="  M 21,23  L 21,22  L 19,22  L 19,23  Z  " style="fill:rgb(52, 153, 136); fill-opacity:1.000; stroke:none;" />
 <path d="  M 21,7  L 21,8  L 23,8  L 23,7  Z  " style="fill:rgb(52, 153, 136); fill-opacity:1.000; stroke:none;" />
 <path d="  M 22,19  L 22,21  L 23,21  L 23,19  Z  " style="fill:rgb(52, 153, 136); fill-opacity:1.000; stroke:none;" />
 <path d="  M 24,8  L 23,8  L 23,9  L 24,9  Z  " style="fill:rgb(52, 153, 136); fill-opacity:1.000; stroke:none;" />
 <path d="  M 24,19  L 24,18  L 23,18  L 23,19  Z  " style="fill:rgb(52, 153, 136); fill-opacity:1.000; stroke:none;" />
 <path d="  M 25,10  L 25,9  L 24,9  L 24,10  Z  " style="fill:rgb(52, 153, 136); fill-opacity:1.000; stroke:none;" />
 <path d="  M 6,13  L 6,19  L 7,19  L 7,13  Z  " style="fill:rgb(37, 132, 116); fill-opacity:1.000; stroke:none;" />
 <path d="  M 7,11  L 7,13  L 8,13  L 8,11  Z  " style="fill:rgb(37, 132, 116); fill-opacity:1.000; stroke:none;" />
 <path d="  M 8,20  L 7,20  L 7,21  L 8,21  Z  " style="fill:rgb(37, 132, 116); fill-opacity:1.000; stroke:none;" />
 <path d="  M 10,9  L 11,9  L 11,8  L 9,8  L 9,9  L 8,9  L 8,11  L 9,11  L 9,10  L 10,10  Z  " style="fill:rgb(37, 132, 116); fill-opacity:1.000; stroke:none;" />
 <path d="  M 8,21  L 8,23  L 9,23  L 9,21  Z  " style="fill:rgb(37, 132, 116); fill-opacity:1.000; stroke:none;" />
 <path d="  M 10,23  L 9,23  L 9,24  L 10,24  Z  " style="fill:rgb(37, 132, 116); fill-opacity:1.000; stroke:none;" />
 <path d="  M 11,25  L 11,24  L 10,24  L 10,25  Z  " style="fill:rgb(37, 132, 116); fill-opacity:1.000; stroke:none;" />
 <path d="  M 11,7  L 11,8  L 13,8  L 13,7  Z  " style="fill:rgb(37, 132, 116); fill-opacity:1.000; stroke:none;" />
 <path d="  M 13,25  L 11,25  L 11,26  L 13,26  Z  " style="fill:rgb(37, 132, 116); fill-opacity:1.000; stroke:none;" />
 <path d="  M 19,7  L 19,6  L 13,6  L 13,7  Z  " style="fill:rgb(37, 132, 116); fill-opacity:1.000; stroke:none;" />
 <path d="  M 17,23  L 17,24  L 18,24  L 18,23  Z  " style="fill:rgb(37, 132, 116); fill-opacity:1.000; stroke:none;" />
 <path d="  M 19,7  L 19,8  L 21,8  L 21,7  Z  " style="fill:rgb(37, 132, 116); fill-opacity:1.000; stroke:none;" />
 <path d="  M 23,9  L 23,8  L 21,8  L 21,9  Z  " style="fill:rgb(37, 132, 116); fill-opacity:1.000; stroke:none;" />
 <path d="  M 23,9  L 23,10  L 24,10  L 24,9  Z  " style="fill:rgb(37, 132, 116); fill-opacity:1.000; stroke:none;" />
 <path d="  M 24,18  L 24,17  L 23,17  L 23,18  Z  " style="fill:rgb(37, 132, 116); fill-opacity:1.000; stroke:none;" />
 <path d="  M 25,11  L 25,10  L 24,10  L 24,11  Z  " style="fill:rgb(37, 132, 116); fill-opacity:1.000; stroke:none;" />
 <path d="  M 25,13  L 26,13  L 26,11  L 25,11  Z  " style="fill:rgb(37, 132, 116); fill-opacity:1.000; stroke:none;" />
 <path d="  M 9,19  L 8,19  L 8,13  L 7,13  L 7,20  L 8,20  L 8,21  L 9,21  Z  " style="fill:rgb(16, 94, 81); fill-opacity:1.000; stroke:none;" />
 <path d="  M 9,13  L 9,11  L 8,11  L 8,13  Z  " style="fill:rgb(16, 94, 81); fill-opacity:1.000; stroke:none;" />
 <path d="  M 9,11  L 10,11  L 10,10  L 9,10  Z  " style="fill:rgb(16, 94, 81); fill-opacity:1.000; stroke:none;" />
 <path d="  M 11,22  L 10,22  L 10,21  L 9,21  L 9,23  L 10,23  L 10,24  L 11,24  L 11,25  L 13,25  L 13,26  L 20,26  L 20,25  L 22,25  L 22,24  L 23,24  L 23,23  L 24,23  L 24,22  L 25,22  L 25,20  L 26,20  L 26,13  L 25,13  L 25,11  L 24,11  L 24,10  L 23,10  L 23,9  L 21,9  L 21,10  L 22,10  L 22,11  L 23,11  L 23,13  L 24,13  L 24,19  L 23,19  L 23,21  L 22,21  L 22,22  L 21,22  L 21,23  L 19,23  L 19,24  L 13,24  L 13,23  L 11,23  Z  " style="fill:rgb(16, 94, 81); fill-opacity:1.000; stroke:none;" />
 <path d="  M 10,9  L 10,10  L 11,10  L 11,9  Z  " style="fill:rgb(16, 94, 81); fill-opacity:1.000; stroke:none;" />
 <path d="  M 13,9  L 13,8  L 11,8  L 11,9  Z  " style="fill:rgb(16, 94, 81); fill-opacity:1.000; stroke:none;" />
 <path d="  M 13,7  L 13,8  L 19,8  L 19,7  Z  " style="fill:rgb(16, 94, 81); fill-opacity:1.000; stroke:none;" />
 <path d="  M 21,9  L 21,8  L 19,8  L 19,9  Z  " style="fill:rgb(16, 94, 81); fill-opacity:1.000; stroke:none;" />
 <path d="  M 14,22  L 14,21  L 12,21  L 12,20  L 11,20  L 11,18  L 10,18  L 10,15  L 9,15  L 9,13  L 8,13  L 8,19  L 9,19  L 9,21  L 10,21  L 10,22  L 11,22  L 11,23  L 13,23  L 13,24  L 17,24  L 17,23  L 19,23  L 19,22  L 20,22  L 20,21  L 18,21  L 18,22  Z  " style="fill:rgb(11, 77, 66); fill-opacity:1.000; stroke:none;" />
 <path d="  M 10,13  L 10,11  L 9,11  L 9,13  Z  " style="fill:rgb(11, 77, 66); fill-opacity:1.000; stroke:none;" />
 <path d="  M 10,10  L 10,11  L 11,11  L 11,10  Z  " style="fill:rgb(11, 77, 66); fill-opacity:1.000; stroke:none;" />
 <path d="  M 10,14  L 11,14  L 11,13  L 10,13  Z  " style="fill:rgb(11, 77, 66); fill-opacity:1.000; stroke:none;" />
 <path d="  M 13,10  L 13,9  L 11,9  L 11,10  Z  " style="fill:rgb(11, 77, 66); fill-opacity:1.000; stroke:none;" />
 <path d="  M 24,13  L 23,13  L 23,11  L 22,11  L 22,10  L 21,10  L 21,9  L 19,9  L 19,8  L 13,8  L 13,9  L 15,9  L 15,10  L 18,10  L 18,11  L 20,11  L 20,12  L 21,12  L 21,14  L 22,14  L 22,18  L 21,18  L 21,20  L 22,20  L 22,19  L 23,19  L 23,17  L 24,17  Z  " style="fill:rgb(11, 77, 66); fill-opacity:1.000; stroke:none;" />
 <path d="  M 13,10  L 13,11  L 14,11  L 14,10  Z  " style="fill:rgb(11, 77, 66); fill-opacity:1.000; stroke:none;" />
 <path d="  M 21,20  L 20,20  L 20,21  L 21,21  Z  " style="fill:rgb(11, 77, 66); fill-opacity:1.000; stroke:none;" />
 <path d="  M 9,13  L 9,15  L 10,15  L 10,13  Z  " style="fill:rgb(44, 205, 177); fill-opacity:1.000; stroke:none;" />
 <path d="  M 11,13  L 11,12  L 10,12  L 10,13  Z  " style="fill:rgb(44, 205, 177); fill-opacity:1.000; stroke:none;" />
 <path d="  M 12,11  L 11,11  L 11,12  L 12,12  Z  " style="fill:rgb(44, 205, 177); fill-opacity:1.000; stroke:none;" />
 <path d="  M 12,10  L 12,11  L 13,11  L 13,10  Z  " style="fill:rgb(44, 205, 177); fill-opacity:1.000; stroke:none;" />
 <path d="  M 13,10  L 15,10  L 15,9  L 13,9  Z  " style="fill:rgb(44, 205, 177); fill-opacity:1.000; stroke:none;" />
 <path d="  M 20,21  L 20,22  L 21,22  L 21,21  Z  " style="fill:rgb(44, 205, 177); fill-opacity:1.000; stroke:none;" />
 <path d="  M 21,20  L 21,21  L 22,21  L 22,20  Z  " style="fill:rgb(44, 205, 177); fill-opacity:1.000; stroke:none;" />
 <path d="  M 11,12  L 11,11  L 10,11  L 10,12  Z  " style="fill:rgb(140, 244, 226); fill-opacity:1.000; stroke:none;" />
 <path d="  M 12,10  L 11,10  L 11,11  L 12,11  Z  " style="fill:rgb(140, 244, 226); fill-opacity:1.000; stroke:none;" />
 <path d="  M 22,21  L 21,21  L 21,22  L 22,22  Z  " style="fill:rgb(140, 244, 226); fill-opacity:1.000; stroke:none;" />
 <path d="  M 14,12  L 18,12  L 18,13  L 19,13  L 19,14  L 20,14  L 20,18  L 19,18  L 19,19  L 18,19  L 18,20  L 14,20  L 14,19  L 13,19  L 13,18  L 12,18  L 12,14  L 13,14  L 13,13  L 14,13  Z  M 21,12  L 20,12  L 20,11  L 18,11  L 18,10  L 14,10  L 14,11  L 12,11  L 12,12  L 11,12  L 11,14  L 10,14  L 10,18  L 11,18  L 11,20  L 12,20  L 12,21  L 14,21  L 14,22  L 18,22  L 18,21  L 20,21  L 20,20  L 21,20  L 21,18  L 22,18  L 22,14  L 21,14  Z  " style="fill:rgb(8, 67, 57); fill-opacity:1.000; stroke:none;" />
 <path d="  M 13,14  L 12,14  L 12,18  L 13,18  Z  " style="fill:rgb(6, 57, 49); fill-opacity:1.000; stroke:none;" />
 <path d="  M 14,14  L 14,13  L 13,13  L 13,14  Z  " style="fill:rgb(6, 57, 49); fill-opacity:1.000; stroke:none;" />
 <path d="  M 14,18  L 13,18  L 13,19  L 14,19  Z  " style="fill:rgb(6, 57, 49); fill-opacity:1.000; stroke:none;" />
 <path d="  M 18,12  L 14,12  L 14,13  L 18,13  Z  " style="fill:rgb(6, 57, 49); fill-opacity:1.000; stroke:none;" />
 <path d="  M 18,20  L 18,19  L 14,19  L 14,20  Z  " style="fill:rgb(6, 57, 49); fill-opacity:1.000; stroke:none;" />
 <path d="  M 19,14  L 19,13  L 18,13  L 18,14  Z  " style="fill:rgb(6, 57, 49); fill-opacity:1.000; stroke:none;" />
 <path d="  M 19,19  L 19,18  L 18,18  L 18,19  Z  " style="fill:rgb(6, 57, 49); fill-opacity:1.000; stroke:none;" />
 <path d="  M 20,14  L 19,14  L 19,18  L 20,18  Z  " style="fill:rgb(6, 57, 49); fill-opacity:1.000; stroke:none;" />
 <path d="  M 13,18  L 14,18  L 14,19  L 18,19  L 18,18  L 19,18  L 19,14  L 18,14  L 18,13  L 14,13  L 14,14  L 13,14  Z  " style="fill:rgb(3, 38, 32); fill-opacity:1.000; stroke:none;" />
 <path d="  M 19,27  L 19,26  L 13,26  L 13,27  Z  " style="fill:rgb(15, 82, 71); fill-opacity:1.000; stroke:none;" />
 <path d="  M 21,25  L 20,25  L 20,26  L 21,26  Z  " style="fill:rgb(15, 82, 71); fill-opacity:1.000; stroke:none;" />
 <path d="  M 22,24  L 22,25  L 23,25  L 23,24  Z  " style="fill:rgb(15, 82, 71); fill-opacity:1.000; stroke:none;" />
 <path d="  M 23,23  L 23,24  L 24,24  L 24,23  Z  " style="fill:rgb(15, 82, 71); fill-opacity:1.000; stroke:none;" />
 <path d="  M 25,23  L 25,22  L 24,22  L 24,23  Z  " style="fill:rgb(15, 82, 71); fill-opacity:1.000; stroke:none;" />
 <path d="  M 25,20  L 25,21  L 26,21  L 26,20  Z  " style="fill:rgb(15, 82, 71); fill-opacity:1.000; stroke:none;" />
 <path d="  M 27,13  L 26,13  L 26,19  L 27,19  Z  " style="fill:rgb(15, 82, 71); fill-opacity:1.000; stroke:none;" />
</svg>
