<?xml version="1.0" encoding="UTF-8" standalone="no"?>
<!DOCTYPE svg PUBLIC "-//W3C//DTD SVG 1.1//EN" 
  "http://www.w3.org/Graphics/SVG/1.1/DTD/svg11.dtd">
<svg width="32" height="32"
	 xmlns="http://www.w3.org/2000/svg" version="1.1">
 <path d="  M 4,22  L 4,21  L 3,21  L 3,22  Z  " style="fill:rgb(150, 139, 108); fill-opacity:1.000; stroke:none;" />
 <path d="  M 5,21  L 5,19  L 4,19  L 4,21  Z  " style="fill:rgb(150, 139, 108); fill-opacity:1.000; stroke:none;" />
 <path d="  M 6,17  L 5,17  L 5,19  L 6,19  Z  " style="fill:rgb(150, 139, 108); fill-opacity:1.000; stroke:none;" />
 <path d="  M 7,15  L 6,15  L 6,17  L 7,17  Z  " style="fill:rgb(150, 139, 108); fill-opacity:1.000; stroke:none;" />
 <path d="  M 7,13  L 7,15  L 8,15  L 8,13  Z  " style="fill:rgb(150, 139, 108); fill-opacity:1.000; stroke:none;" />
 <path d="  M 9,5  L 9,3  L 8,3  L 8,6  L 10,6  L 10,5  Z  " style="fill:rgb(150, 139, 108); fill-opacity:1.000; stroke:none;" />
 <path d="  M 9,13  L 9,11  L 8,11  L 8,13  Z  " style="fill:rgb(150, 139, 108); fill-opacity:1.000; stroke:none;" />
 <path d="  M 10,3  L 10,2  L 9,2  L 9,3  Z  " style="fill:rgb(150, 139, 108); fill-opacity:1.000; stroke:none;" />
 <path d="  M 9,9  L 9,11  L 10,11  L 10,9  Z  " style="fill:rgb(150, 139, 108); fill-opacity:1.000; stroke:none;" />
 <path d="  M 10,1  L 10,2  L 13,2  L 13,1  Z  " style="fill:rgb(150, 139, 108); fill-opacity:1.000; stroke:none;" />
 <path d="  M 10,7  L 11,7  L 11,6  L 10,6  Z  " style="fill:rgb(150, 139, 108); fill-opacity:1.000; stroke:none;" />
 <path d="  M 10,9  L 11,9  L 11,8  L 10,8  Z  " style="fill:rgb(150, 139, 108); fill-opacity:1.000; stroke:none;" />
 <path d="  M 13,8  L 13,7  L 12,7  L 12,8  Z  " style="fill:rgb(150, 139, 108); fill-opacity:1.000; stroke:none;" />
 <path d="  M 15,2  L 13,2  L 13,3  L 15,3  Z  " style="fill:rgb(150, 139, 108); fill-opacity:1.000; stroke:none;" />
 <path d="  M 14,9  L 15,9  L 15,8  L 14,8  Z  " style="fill:rgb(150, 139, 108); fill-opacity:1.000; stroke:none;" />
 <path d="  M 15,3  L 15,4  L 17,4  L 17,3  Z  " style="fill:rgb(150, 139, 108); fill-opacity:1.000; stroke:none;" />
 <path d="  M 16,10  L 17,10  L 17,9  L 16,9  Z  " style="fill:rgb(150, 139, 108); fill-opacity:1.000; stroke:none;" />
 <path d="  M 17,4  L 17,5  L 19,5  L 19,4  Z  " style="fill:rgb(150, 139, 108); fill-opacity:1.000; stroke:none;" />
 <path d="  M 19,11  L 19,10  L 18,10  L 18,11  Z  " style="fill:rgb(150, 139, 108); fill-opacity:1.000; stroke:none;" />
 <path d="  M 21,5  L 19,5  L 19,6  L 21,6  Z  " style="fill:rgb(150, 139, 108); fill-opacity:1.000; stroke:none;" />
 <path d="  M 21,12  L 21,11  L 20,11  L 20,12  Z  " style="fill:rgb(150, 139, 108); fill-opacity:1.000; stroke:none;" />
 <path d="  M 23,6  L 21,6  L 21,7  L 23,7  Z  " style="fill:rgb(150, 139, 108); fill-opacity:1.000; stroke:none;" />
 <path d="  M 23,13  L 23,12  L 22,12  L 22,13  Z  " style="fill:rgb(150, 139, 108); fill-opacity:1.000; stroke:none;" />
 <path d="  M 25,8  L 25,7  L 23,7  L 23,8  Z  " style="fill:rgb(150, 139, 108); fill-opacity:1.000; stroke:none;" />
 <path d="  M 24,11  L 24,10  L 23,10  L 23,11  Z  " style="fill:rgb(150, 139, 108); fill-opacity:1.000; stroke:none;" />
 <path d="  M 25,10  L 25,9  L 24,9  L 24,10  Z  " style="fill:rgb(150, 139, 108); fill-opacity:1.000; stroke:none;" />
 <path d="  M 25,12  L 25,11  L 24,11  L 24,12  Z  " style="fill:rgb(150, 139, 108); fill-opacity:1.000; stroke:none;" />
 <path d="  M 25,9  L 27,9  L 27,8  L 25,8  Z  " style="fill:rgb(150, 139, 108); fill-opacity:1.000; stroke:none;" />
 <path d="  M 25,10  L 25,11  L 26,11  L 26,10  Z  " style="fill:rgb(150, 139, 108); fill-opacity:1.000; stroke:none;" />
 <path d="  M 28,9  L 27,9  L 27,10  L 28,10  Z  " style="fill:rgb(150, 139, 108); fill-opacity:1.000; stroke:none;" />
 <path d="  M 29,11  L 29,10  L 28,10  L 28,11  Z  " style="fill:rgb(150, 139, 108); fill-opacity:1.000; stroke:none;" />
 <path d="  M 4,21  L 4,22  L 5,22  L 5,21  Z  " style="fill:rgb(218, 210, 188); fill-opacity:1.000; stroke:none;" />
 <path d="  M 6,20  L 6,19  L 5,19  L 5,20  Z  " style="fill:rgb(218, 210, 188); fill-opacity:1.000; stroke:none;" />
 <path d="  M 6,18  L 7,18  L 7,17  L 6,17  Z  " style="fill:rgb(218, 210, 188); fill-opacity:1.000; stroke:none;" />
 <path d="  M 6,23  L 7,23  L 7,22  L 6,22  Z  " style="fill:rgb(218, 210, 188); fill-opacity:1.000; stroke:none;" />
 <path d="  M 7,16  L 8,16  L 8,15  L 7,15  Z  " style="fill:rgb(218, 210, 188); fill-opacity:1.000; stroke:none;" />
 <path d="  M 8,14  L 9,14  L 9,13  L 8,13  Z  " style="fill:rgb(218, 210, 188); fill-opacity:1.000; stroke:none;" />
 <path d="  M 9,24  L 9,23  L 8,23  L 8,24  Z  " style="fill:rgb(218, 210, 188); fill-opacity:1.000; stroke:none;" />
 <path d="  M 11,3  L 9,3  L 9,4  L 10,4  L 10,5  L 12,5  L 12,4  L 11,4  Z  " style="fill:rgb(218, 210, 188); fill-opacity:1.000; stroke:none;" />
 <path d="  M 10,13  L 10,12  L 14,12  L 14,13  L 15,13  L 15,12  L 16,12  L 16,13  L 18,13  L 18,14  L 21,14  L 21,13  L 19,13  L 19,12  L 17,12  L 17,11  L 15,11  L 15,10  L 13,10  L 13,9  L 11,9  L 11,10  L 10,10  L 10,11  L 9,11  L 9,13  Z  " style="fill:rgb(218, 210, 188); fill-opacity:1.000; stroke:none;" />
 <path d="  M 11,25  L 11,24  L 10,24  L 10,25  Z  " style="fill:rgb(218, 210, 188); fill-opacity:1.000; stroke:none;" />
 <path d="  M 12,3  L 13,3  L 13,2  L 12,2  Z  " style="fill:rgb(218, 210, 188); fill-opacity:1.000; stroke:none;" />
 <path d="  M 12,5  L 12,6  L 14,6  L 14,5  Z  " style="fill:rgb(218, 210, 188); fill-opacity:1.000; stroke:none;" />
 <path d="  M 13,25  L 12,25  L 12,26  L 13,26  Z  " style="fill:rgb(218, 210, 188); fill-opacity:1.000; stroke:none;" />
 <path d="  M 14,4  L 15,4  L 15,3  L 14,3  Z  " style="fill:rgb(218, 210, 188); fill-opacity:1.000; stroke:none;" />
 <path d="  M 16,6  L 14,6  L 14,7  L 16,7  Z  " style="fill:rgb(218, 210, 188); fill-opacity:1.000; stroke:none;" />
 <path d="  M 14,27  L 16,27  L 16,26  L 14,26  Z  " style="fill:rgb(218, 210, 188); fill-opacity:1.000; stroke:none;" />
 <path d="  M 16,4  L 16,5  L 17,5  L 17,4  Z  " style="fill:rgb(218, 210, 188); fill-opacity:1.000; stroke:none;" />
 <path d="  M 18,8  L 18,7  L 16,7  L 16,8  Z  " style="fill:rgb(218, 210, 188); fill-opacity:1.000; stroke:none;" />
 <path d="  M 24,19  L 24,17  L 25,17  L 25,15  L 23,15  L 23,14  L 21,14  L 21,15  L 22,15  L 22,16  L 23,16  L 23,18  L 22,18  L 22,20  L 21,20  L 21,22  L 20,22  L 20,24  L 19,24  L 19,26  L 18,26  L 18,27  L 16,27  L 16,28  L 19,28  L 19,27  L 20,27  L 20,25  L 21,25  L 21,23  L 22,23  L 22,21  L 23,21  L 23,19  Z  " style="fill:rgb(218, 210, 188); fill-opacity:1.000; stroke:none;" />
 <path d="  M 19,6  L 19,5  L 18,5  L 18,6  Z  " style="fill:rgb(218, 210, 188); fill-opacity:1.000; stroke:none;" />
 <path d="  M 18,8  L 18,9  L 20,9  L 20,8  Z  " style="fill:rgb(218, 210, 188); fill-opacity:1.000; stroke:none;" />
 <path d="  M 21,7  L 21,6  L 20,6  L 20,7  Z  " style="fill:rgb(218, 210, 188); fill-opacity:1.000; stroke:none;" />
 <path d="  M 22,10  L 22,9  L 20,9  L 20,10  Z  " style="fill:rgb(218, 210, 188); fill-opacity:1.000; stroke:none;" />
 <path d="  M 23,7  L 22,7  L 22,8  L 23,8  Z  " style="fill:rgb(218, 210, 188); fill-opacity:1.000; stroke:none;" />
 <path d="  M 22,10  L 22,11  L 23,11  L 23,10  Z  " style="fill:rgb(218, 210, 188); fill-opacity:1.000; stroke:none;" />
 <path d="  M 23,9  L 23,10  L 24,10  L 24,9  Z  " style="fill:rgb(218, 210, 188); fill-opacity:1.000; stroke:none;" />
 <path d="  M 25,8  L 24,8  L 24,9  L 25,9  Z  " style="fill:rgb(218, 210, 188); fill-opacity:1.000; stroke:none;" />
 <path d="  M 4,22  L 4,23  L 5,23  L 5,22  Z  " style="fill:rgb(132, 118, 81); fill-opacity:1.000; stroke:none;" />
 <path d="  M 5,23  L 5,24  L 7,24  L 7,23  Z  " style="fill:rgb(132, 118, 81); fill-opacity:1.000; stroke:none;" />
 <path d="  M 9,25  L 9,24  L 7,24  L 7,25  Z  " style="fill:rgb(132, 118, 81); fill-opacity:1.000; stroke:none;" />
 <path d="  M 10,7  L 10,6  L 9,6  L 9,7  Z  " style="fill:rgb(132, 118, 81); fill-opacity:1.000; stroke:none;" />
 <path d="  M 9,16  L 9,17  L 10,17  L 10,16  Z  " style="fill:rgb(132, 118, 81); fill-opacity:1.000; stroke:none;" />
 <path d="  M 10,21  L 10,20  L 9,20  L 9,21  Z  " style="fill:rgb(132, 118, 81); fill-opacity:1.000; stroke:none;" />
 <path d="  M 9,25  L 9,26  L 11,26  L 11,25  Z  " style="fill:rgb(132, 118, 81); fill-opacity:1.000; stroke:none;" />
 <path d="  M 12,8  L 12,7  L 10,7  L 10,8  Z  " style="fill:rgb(132, 118, 81); fill-opacity:1.000; stroke:none;" />
 <path d="  M 12,17  L 11,17  L 11,18  L 12,18  Z  " style="fill:rgb(132, 118, 81); fill-opacity:1.000; stroke:none;" />
 <path d="  M 12,19  L 11,19  L 11,20  L 12,20  Z  " style="fill:rgb(132, 118, 81); fill-opacity:1.000; stroke:none;" />
 <path d="  M 13,26  L 11,26  L 11,27  L 13,27  Z  " style="fill:rgb(132, 118, 81); fill-opacity:1.000; stroke:none;" />
 <path d="  M 12,9  L 14,9  L 14,8  L 12,8  Z  " style="fill:rgb(132, 118, 81); fill-opacity:1.000; stroke:none;" />
 <path d="  M 12,13  L 12,14  L 13,14  L 13,13  Z  " style="fill:rgb(132, 118, 81); fill-opacity:1.000; stroke:none;" />
 <path d="  M 12,24  L 13,24  L 13,23  L 12,23  Z  " style="fill:rgb(132, 118, 81); fill-opacity:1.000; stroke:none;" />
 <path d="  M 13,15  L 13,16  L 14,16  L 14,15  Z  " style="fill:rgb(132, 118, 81); fill-opacity:1.000; stroke:none;" />
 <path d="  M 13,22  L 14,22  L 14,21  L 13,21  Z  " style="fill:rgb(132, 118, 81); fill-opacity:1.000; stroke:none;" />
 <path d="  M 15,27  L 13,27  L 13,28  L 15,28  Z  " style="fill:rgb(132, 118, 81); fill-opacity:1.000; stroke:none;" />
 <path d="  M 16,10  L 16,9  L 14,9  L 14,10  Z  " style="fill:rgb(132, 118, 81); fill-opacity:1.000; stroke:none;" />
 <path d="  M 15,15  L 15,16  L 16,16  L 16,15  Z  " style="fill:rgb(132, 118, 81); fill-opacity:1.000; stroke:none;" />
 <path d="  M 16,22  L 16,21  L 15,21  L 15,22  Z  " style="fill:rgb(132, 118, 81); fill-opacity:1.000; stroke:none;" />
 <path d="  M 15,29  L 17,29  L 17,28  L 15,28  Z  " style="fill:rgb(132, 118, 81); fill-opacity:1.000; stroke:none;" />
 <path d="  M 16,10  L 16,11  L 18,11  L 18,10  Z  " style="fill:rgb(132, 118, 81); fill-opacity:1.000; stroke:none;" />
 <path d="  M 17,14  L 17,13  L 16,13  L 16,14  Z  " style="fill:rgb(132, 118, 81); fill-opacity:1.000; stroke:none;" />
 <path d="  M 17,24  L 17,23  L 16,23  L 16,24  Z  " style="fill:rgb(132, 118, 81); fill-opacity:1.000; stroke:none;" />
 <path d="  M 17,18  L 18,18  L 18,17  L 17,17  Z  " style="fill:rgb(132, 118, 81); fill-opacity:1.000; stroke:none;" />
 <path d="  M 18,20  L 18,19  L 17,19  L 17,20  Z  " style="fill:rgb(132, 118, 81); fill-opacity:1.000; stroke:none;" />
 <path d="  M 19,29  L 17,29  L 17,30  L 19,30  Z  " style="fill:rgb(132, 118, 81); fill-opacity:1.000; stroke:none;" />
 <path d="  M 20,12  L 20,11  L 18,11  L 18,12  Z  " style="fill:rgb(132, 118, 81); fill-opacity:1.000; stroke:none;" />
 <path d="  M 19,17  L 20,17  L 20,16  L 19,16  Z  " style="fill:rgb(132, 118, 81); fill-opacity:1.000; stroke:none;" />
 <path d="  M 19,21  L 20,21  L 20,20  L 19,20  Z  " style="fill:rgb(132, 118, 81); fill-opacity:1.000; stroke:none;" />
 <path d="  M 19,29  L 20,29  L 20,28  L 19,28  Z  " style="fill:rgb(132, 118, 81); fill-opacity:1.000; stroke:none;" />
 <path d="  M 20,13  L 22,13  L 22,12  L 20,12  Z  " style="fill:rgb(132, 118, 81); fill-opacity:1.000; stroke:none;" />
 <path d="  M 20,28  L 21,28  L 21,26  L 20,26  Z  " style="fill:rgb(132, 118, 81); fill-opacity:1.000; stroke:none;" />
 <path d="  M 21,24  L 21,26  L 22,26  L 22,24  Z  " style="fill:rgb(132, 118, 81); fill-opacity:1.000; stroke:none;" />
 <path d="  M 24,15  L 26,15  L 26,16  L 27,16  L 27,15  L 28,15  L 28,14  L 25,14  L 25,13  L 24,13  L 24,11  L 23,11  L 23,13  L 22,13  L 22,14  L 24,14  Z  " style="fill:rgb(132, 118, 81); fill-opacity:1.000; stroke:none;" />
 <path d="  M 22,24  L 23,24  L 23,22  L 22,22  Z  " style="fill:rgb(132, 118, 81); fill-opacity:1.000; stroke:none;" />
 <path d="  M 23,22  L 24,22  L 24,20  L 23,20  Z  " style="fill:rgb(132, 118, 81); fill-opacity:1.000; stroke:none;" />
 <path d="  M 24,18  L 24,20  L 25,20  L 25,18  Z  " style="fill:rgb(132, 118, 81); fill-opacity:1.000; stroke:none;" />
 <path d="  M 26,16  L 25,16  L 25,18  L 26,18  Z  " style="fill:rgb(132, 118, 81); fill-opacity:1.000; stroke:none;" />
 <path d="  M 7,23  L 9,23  L 9,24  L 11,24  L 11,25  L 13,25  L 13,24  L 12,24  L 12,23  L 10,23  L 10,21  L 9,21  L 9,20  L 8,20  L 8,19  L 10,19  L 10,18  L 8,18  L 8,17  L 9,17  L 9,16  L 10,16  L 10,14  L 12,14  L 12,13  L 13,13  L 13,12  L 10,12  L 10,13  L 9,13  L 9,14  L 8,14  L 8,16  L 7,16  L 7,18  L 6,18  L 6,20  L 5,20  L 5,22  L 7,22  Z  " style="fill:rgb(235, 235, 235); fill-opacity:1.000; stroke:none;" />
 <path d="  M 12,3  L 12,2  L 10,2  L 10,3  L 11,3  L 11,4  L 12,4  L 12,5  L 14,5  L 14,6  L 16,6  L 16,7  L 18,7  L 18,8  L 20,8  L 20,9  L 22,9  L 22,10  L 23,10  L 23,9  L 24,9  L 24,8  L 22,8  L 22,7  L 20,7  L 20,6  L 18,6  L 18,5  L 16,5  L 16,4  L 14,4  L 14,3  Z  " style="fill:rgb(235, 235, 235); fill-opacity:1.000; stroke:none;" />
 <path d="  M 11,17  L 11,16  L 10,16  L 10,17  Z  " style="fill:rgb(235, 235, 235); fill-opacity:1.000; stroke:none;" />
 <path d="  M 11,20  L 10,20  L 10,21  L 11,21  Z  " style="fill:rgb(235, 235, 235); fill-opacity:1.000; stroke:none;" />
 <path d="  M 13,15  L 13,14  L 12,14  L 12,15  Z  " style="fill:rgb(235, 235, 235); fill-opacity:1.000; stroke:none;" />
 <path d="  M 12,23  L 13,23  L 13,22  L 12,22  Z  " style="fill:rgb(235, 235, 235); fill-opacity:1.000; stroke:none;" />
 <path d="  M 19,26  L 19,24  L 20,24  L 20,22  L 21,22  L 21,20  L 20,20  L 20,21  L 19,21  L 19,23  L 17,23  L 17,24  L 16,24  L 16,25  L 15,25  L 15,23  L 14,23  L 14,25  L 13,25  L 13,26  L 16,26  L 16,27  L 18,27  L 18,26  Z  " style="fill:rgb(235, 235, 235); fill-opacity:1.000; stroke:none;" />
 <path d="  M 14,14  L 15,14  L 15,13  L 14,13  Z  " style="fill:rgb(235, 235, 235); fill-opacity:1.000; stroke:none;" />
 <path d="  M 16,15  L 17,15  L 17,14  L 16,14  Z  " style="fill:rgb(235, 235, 235); fill-opacity:1.000; stroke:none;" />
 <path d="  M 17,22  L 16,22  L 16,23  L 17,23  Z  " style="fill:rgb(235, 235, 235); fill-opacity:1.000; stroke:none;" />
 <path d="  M 18,13  L 17,13  L 17,14  L 18,14  Z  " style="fill:rgb(235, 235, 235); fill-opacity:1.000; stroke:none;" />
 <path d="  M 19,16  L 18,16  L 18,17  L 19,17  Z  " style="fill:rgb(235, 235, 235); fill-opacity:1.000; stroke:none;" />
 <path d="  M 19,21  L 19,20  L 18,20  L 18,21  Z  " style="fill:rgb(235, 235, 235); fill-opacity:1.000; stroke:none;" />
 <path d="  M 22,20  L 22,18  L 23,18  L 23,16  L 22,16  L 22,15  L 21,15  L 21,14  L 19,14  L 19,16  L 20,16  L 20,17  L 21,17  L 21,18  L 19,18  L 19,19  L 21,19  L 21,20  Z  " style="fill:rgb(235, 235, 235); fill-opacity:1.000; stroke:none;" />
 <path d="  M 5,23  L 6,23  L 6,22  L 5,22  Z  " style="fill:rgb(178, 166, 132); fill-opacity:1.000; stroke:none;" />
 <path d="  M 7,24  L 8,24  L 8,23  L 7,23  Z  " style="fill:rgb(178, 166, 132); fill-opacity:1.000; stroke:none;" />
 <path d="  M 8,17  L 8,18  L 9,18  L 9,17  Z  " style="fill:rgb(178, 166, 132); fill-opacity:1.000; stroke:none;" />
 <path d="  M 8,19  L 8,20  L 9,20  L 9,19  Z  " style="fill:rgb(178, 166, 132); fill-opacity:1.000; stroke:none;" />
 <path d="  M 9,4  L 9,5  L 10,5  L 10,4  Z  " style="fill:rgb(178, 166, 132); fill-opacity:1.000; stroke:none;" />
 <path d="  M 10,25  L 10,24  L 9,24  L 9,25  Z  " style="fill:rgb(178, 166, 132); fill-opacity:1.000; stroke:none;" />
 <path d="  M 20,9  L 18,9  L 18,8  L 16,8  L 16,7  L 14,7  L 14,6  L 12,6  L 12,5  L 10,5  L 10,6  L 11,6  L 11,7  L 13,7  L 13,8  L 15,8  L 15,9  L 17,9  L 17,10  L 19,10  L 19,11  L 21,11  L 21,12  L 23,12  L 23,11  L 22,11  L 22,10  L 20,10  Z  " style="fill:rgb(178, 166, 132); fill-opacity:1.000; stroke:none;" />
 <path d="  M 10,9  L 10,10  L 11,10  L 11,9  Z  " style="fill:rgb(178, 166, 132); fill-opacity:1.000; stroke:none;" />
 <path d="  M 10,15  L 10,16  L 11,16  L 11,15  Z  " style="fill:rgb(178, 166, 132); fill-opacity:1.000; stroke:none;" />
 <path d="  M 11,22  L 11,21  L 10,21  L 10,22  Z  " style="fill:rgb(178, 166, 132); fill-opacity:1.000; stroke:none;" />
 <path d="  M 12,9  L 12,8  L 11,8  L 11,9  Z  " style="fill:rgb(178, 166, 132); fill-opacity:1.000; stroke:none;" />
 <path d="  M 11,14  L 11,15  L 12,15  L 12,14  Z  " style="fill:rgb(178, 166, 132); fill-opacity:1.000; stroke:none;" />
 <path d="  M 12,18  L 11,18  L 11,19  L 12,19  Z  " style="fill:rgb(178, 166, 132); fill-opacity:1.000; stroke:none;" />
 <path d="  M 12,22  L 11,22  L 11,23  L 12,23  Z  " style="fill:rgb(178, 166, 132); fill-opacity:1.000; stroke:none;" />
 <path d="  M 12,25  L 11,25  L 11,26  L 12,26  Z  " style="fill:rgb(178, 166, 132); fill-opacity:1.000; stroke:none;" />
 <path d="  M 13,17  L 13,16  L 12,16  L 12,17  Z  " style="fill:rgb(178, 166, 132); fill-opacity:1.000; stroke:none;" />
 <path d="  M 12,21  L 13,21  L 13,20  L 12,20  Z  " style="fill:rgb(178, 166, 132); fill-opacity:1.000; stroke:none;" />
 <path d="  M 13,10  L 14,10  L 14,9  L 13,9  Z  " style="fill:rgb(178, 166, 132); fill-opacity:1.000; stroke:none;" />
 <path d="  M 13,12  L 13,13  L 14,13  L 14,12  Z  " style="fill:rgb(178, 166, 132); fill-opacity:1.000; stroke:none;" />
 <path d="  M 13,24  L 13,25  L 14,25  L 14,24  Z  " style="fill:rgb(178, 166, 132); fill-opacity:1.000; stroke:none;" />
 <path d="  M 13,27  L 14,27  L 14,26  L 13,26  Z  " style="fill:rgb(178, 166, 132); fill-opacity:1.000; stroke:none;" />
 <path d="  M 14,16  L 15,16  L 15,15  L 14,15  Z  " style="fill:rgb(178, 166, 132); fill-opacity:1.000; stroke:none;" />
 <path d="  M 14,22  L 15,22  L 15,21  L 14,21  Z  " style="fill:rgb(178, 166, 132); fill-opacity:1.000; stroke:none;" />
 <path d="  M 15,11  L 16,11  L 16,10  L 15,10  Z  " style="fill:rgb(178, 166, 132); fill-opacity:1.000; stroke:none;" />
 <path d="  M 15,12  L 15,13  L 16,13  L 16,12  Z  " style="fill:rgb(178, 166, 132); fill-opacity:1.000; stroke:none;" />
 <path d="  M 16,25  L 16,24  L 15,24  L 15,25  Z  " style="fill:rgb(178, 166, 132); fill-opacity:1.000; stroke:none;" />
 <path d="  M 16,27  L 15,27  L 15,28  L 16,28  Z  " style="fill:rgb(178, 166, 132); fill-opacity:1.000; stroke:none;" />
 <path d="  M 16,17  L 17,17  L 17,16  L 16,16  Z  " style="fill:rgb(178, 166, 132); fill-opacity:1.000; stroke:none;" />
 <path d="  M 16,20  L 16,21  L 17,21  L 17,20  Z  " style="fill:rgb(178, 166, 132); fill-opacity:1.000; stroke:none;" />
 <path d="  M 17,11  L 17,12  L 18,12  L 18,11  Z  " style="fill:rgb(178, 166, 132); fill-opacity:1.000; stroke:none;" />
 <path d="  M 18,14  L 17,14  L 17,15  L 18,15  Z  " style="fill:rgb(178, 166, 132); fill-opacity:1.000; stroke:none;" />
 <path d="  M 18,19  L 18,18  L 17,18  L 17,19  Z  " style="fill:rgb(178, 166, 132); fill-opacity:1.000; stroke:none;" />
 <path d="  M 18,22  L 17,22  L 17,23  L 18,23  Z  " style="fill:rgb(178, 166, 132); fill-opacity:1.000; stroke:none;" />
 <path d="  M 19,29  L 19,28  L 17,28  L 17,29  Z  " style="fill:rgb(178, 166, 132); fill-opacity:1.000; stroke:none;" />
 <path d="  M 19,16  L 19,15  L 18,15  L 18,16  Z  " style="fill:rgb(178, 166, 132); fill-opacity:1.000; stroke:none;" />
 <path d="  M 18,21  L 18,22  L 19,22  L 19,21  Z  " style="fill:rgb(178, 166, 132); fill-opacity:1.000; stroke:none;" />
 <path d="  M 20,12  L 19,12  L 19,13  L 20,13  Z  " style="fill:rgb(178, 166, 132); fill-opacity:1.000; stroke:none;" />
 <path d="  M 19,28  L 20,28  L 20,27  L 19,27  Z  " style="fill:rgb(178, 166, 132); fill-opacity:1.000; stroke:none;" />
 <path d="  M 20,17  L 20,18  L 21,18  L 21,17  Z  " style="fill:rgb(178, 166, 132); fill-opacity:1.000; stroke:none;" />
 <path d="  M 21,20  L 21,19  L 20,19  L 20,20  Z  " style="fill:rgb(178, 166, 132); fill-opacity:1.000; stroke:none;" />
 <path d="  M 21,25  L 20,25  L 20,26  L 21,26  Z  " style="fill:rgb(178, 166, 132); fill-opacity:1.000; stroke:none;" />
 <path d="  M 21,14  L 22,14  L 22,13  L 21,13  Z  " style="fill:rgb(178, 166, 132); fill-opacity:1.000; stroke:none;" />
 <path d="  M 22,23  L 21,23  L 21,24  L 22,24  Z  " style="fill:rgb(178, 166, 132); fill-opacity:1.000; stroke:none;" />
 <path d="  M 23,22  L 23,21  L 22,21  L 22,22  Z  " style="fill:rgb(178, 166, 132); fill-opacity:1.000; stroke:none;" />
 <path d="  M 23,14  L 23,15  L 24,15  L 24,14  Z  " style="fill:rgb(178, 166, 132); fill-opacity:1.000; stroke:none;" />
 <path d="  M 23,20  L 24,20  L 24,19  L 23,19  Z  " style="fill:rgb(178, 166, 132); fill-opacity:1.000; stroke:none;" />
 <path d="  M 25,11  L 25,10  L 24,10  L 24,11  Z  " style="fill:rgb(178, 166, 132); fill-opacity:1.000; stroke:none;" />
 <path d="  M 24,13  L 25,13  L 25,12  L 24,12  Z  " style="fill:rgb(178, 166, 132); fill-opacity:1.000; stroke:none;" />
 <path d="  M 24,18  L 25,18  L 25,17  L 24,17  Z  " style="fill:rgb(178, 166, 132); fill-opacity:1.000; stroke:none;" />
 <path d="  M 25,9  L 25,10  L 27,10  L 27,9  Z  " style="fill:rgb(178, 166, 132); fill-opacity:1.000; stroke:none;" />
 <path d="  M 26,14  L 26,13  L 25,13  L 25,14  Z  " style="fill:rgb(178, 166, 132); fill-opacity:1.000; stroke:none;" />
 <path d="  M 26,16  L 26,15  L 25,15  L 25,16  Z  " style="fill:rgb(178, 166, 132); fill-opacity:1.000; stroke:none;" />
 <path d="  M 28,10  L 27,10  L 27,11  L 28,11  Z  " style="fill:rgb(178, 166, 132); fill-opacity:1.000; stroke:none;" />
 <path d="  M 7,2  L 6,2  L 6,3  L 7,3  Z  " style="fill:rgb(56, 28, 16); fill-opacity:1.000; stroke:none;" />
 <path d="  M 9,2  L 9,1  L 7,1  L 7,2  Z  " style="fill:rgb(56, 28, 16); fill-opacity:1.000; stroke:none;" />
 <path d="  M 8,3  L 7,3  L 7,4  L 8,4  Z  " style="fill:rgb(56, 28, 16); fill-opacity:1.000; stroke:none;" />
 <path d="  M 25,13  L 26,13  L 26,11  L 25,11  Z  " style="fill:rgb(56, 28, 16); fill-opacity:1.000; stroke:none;" />
 <path d="  M 26,11  L 27,11  L 27,10  L 26,10  Z  " style="fill:rgb(56, 28, 16); fill-opacity:1.000; stroke:none;" />
 <path d="  M 28,14  L 28,13  L 26,13  L 26,14  Z  " style="fill:rgb(56, 28, 16); fill-opacity:1.000; stroke:none;" />
 <path d="  M 29,12  L 29,11  L 27,11  L 27,12  Z  " style="fill:rgb(56, 28, 16); fill-opacity:1.000; stroke:none;" />
 <path d="  M 28,14  L 28,15  L 29,15  L 29,14  Z  " style="fill:rgb(56, 28, 16); fill-opacity:1.000; stroke:none;" />
 <path d="  M 30,12  L 29,12  L 29,14  L 30,14  Z  " style="fill:rgb(56, 28, 16); fill-opacity:1.000; stroke:none;" />
 <path d="  M 9,2  L 7,2  L 7,3  L 9,3  Z  " style="fill:rgb(101, 62, 44); fill-opacity:1.000; stroke:none;" />
 <path d="  M 29,14  L 29,12  L 27,12  L 27,13  L 28,13  L 28,14  Z  " style="fill:rgb(101, 62, 44); fill-opacity:1.000; stroke:none;" />
 <path d="  M 9,19  L 9,20  L 11,20  L 11,17  L 9,17  L 9,18  L 10,18  L 10,19  Z  " style="fill:rgb(0, 0, 0); fill-opacity:1.000; stroke:none;" />
 <path d="  M 10,14  L 10,15  L 11,15  L 11,14  Z  " style="fill:rgb(0, 0, 0); fill-opacity:1.000; stroke:none;" />
 <path d="  M 10,22  L 10,23  L 11,23  L 11,22  Z  " style="fill:rgb(0, 0, 0); fill-opacity:1.000; stroke:none;" />
 <path d="  M 11,15  L 11,17  L 12,17  L 12,16  L 13,16  L 13,15  Z  " style="fill:rgb(0, 0, 0); fill-opacity:1.000; stroke:none;" />
 <path d="  M 12,21  L 12,20  L 11,20  L 11,22  L 13,22  L 13,21  Z  " style="fill:rgb(0, 0, 0); fill-opacity:1.000; stroke:none;" />
 <path d="  M 16,16  L 13,16  L 13,17  L 12,17  L 12,20  L 13,20  L 13,21  L 16,21  L 16,20  L 17,20  L 17,17  L 16,17  Z  " style="fill:rgb(0, 0, 0); fill-opacity:1.000; stroke:none;" />
 <path d="  M 13,15  L 16,15  L 16,13  L 15,13  L 15,14  L 14,14  L 14,13  L 13,13  Z  " style="fill:rgb(0, 0, 0); fill-opacity:1.000; stroke:none;" />
 <path d="  M 13,22  L 13,24  L 14,24  L 14,23  L 15,23  L 15,24  L 16,24  L 16,22  Z  " style="fill:rgb(0, 0, 0); fill-opacity:1.000; stroke:none;" />
 <path d="  M 18,15  L 16,15  L 16,16  L 17,16  L 17,17  L 18,17  Z  " style="fill:rgb(0, 0, 0); fill-opacity:1.000; stroke:none;" />
 <path d="  M 17,20  L 17,21  L 16,21  L 16,22  L 18,22  L 18,20  Z  " style="fill:rgb(0, 0, 0); fill-opacity:1.000; stroke:none;" />
 <path d="  M 18,14  L 18,15  L 19,15  L 19,14  Z  " style="fill:rgb(0, 0, 0); fill-opacity:1.000; stroke:none;" />
 <path d="  M 20,20  L 20,19  L 19,19  L 19,18  L 20,18  L 20,17  L 18,17  L 18,20  Z  " style="fill:rgb(0, 0, 0); fill-opacity:1.000; stroke:none;" />
 <path d="  M 18,23  L 19,23  L 19,22  L 18,22  Z  " style="fill:rgb(0, 0, 0); fill-opacity:1.000; stroke:none;" />
 <path d="  M 27,13  L 27,11  L 26,11  L 26,13  Z  " style="fill:rgb(91, 53, 35); fill-opacity:1.000; stroke:none;" />
</svg>
