<?xml version="1.0" encoding="UTF-8" standalone="no"?>
<!DOCTYPE svg PUBLIC "-//W3C//DTD SVG 1.1//EN" 
  "http://www.w3.org/Graphics/SVG/1.1/DTD/svg11.dtd">
<svg width="32" height="32"
	 xmlns="http://www.w3.org/2000/svg" version="1.1">
 <path d="  M 4,11  L 3,11  L 3,19  L 4,19  Z  " style="fill:rgb(63, 66, 67); fill-opacity:1.000; stroke:none;" />
 <path d="  M 4,11  L 5,11  L 5,10  L 4,10  Z  " style="fill:rgb(63, 66, 67); fill-opacity:1.000; stroke:none;" />
 <path d="  M 4,21  L 4,19  L 3,19  L 3,21  Z  " style="fill:rgb(35, 44, 47); fill-opacity:1.000; stroke:none;" />
 <path d="  M 4,21  L 4,22  L 5,22  L 5,21  Z  " style="fill:rgb(35, 44, 47); fill-opacity:1.000; stroke:none;" />
 <path d="  M 5,23  L 6,23  L 6,22  L 5,22  Z  " style="fill:rgb(35, 44, 47); fill-opacity:1.000; stroke:none;" />
 <path d="  M 6,23  L 6,24  L 7,24  L 7,23  Z  " style="fill:rgb(35, 44, 47); fill-opacity:1.000; stroke:none;" />
 <path d="  M 8,25  L 8,24  L 7,24  L 7,25  Z  " style="fill:rgb(35, 44, 47); fill-opacity:1.000; stroke:none;" />
 <path d="  M 8,25  L 8,26  L 9,26  L 9,25  Z  " style="fill:rgb(35, 44, 47); fill-opacity:1.000; stroke:none;" />
 <path d="  M 9,27  L 10,27  L 10,26  L 9,26  Z  " style="fill:rgb(35, 44, 47); fill-opacity:1.000; stroke:none;" />
 <path d="  M 10,27  L 10,28  L 11,28  L 11,27  Z  " style="fill:rgb(35, 44, 47); fill-opacity:1.000; stroke:none;" />
 <path d="  M 14,29  L 14,28  L 11,28  L 11,29  Z  " style="fill:rgb(35, 44, 47); fill-opacity:1.000; stroke:none;" />
 <path d="  M 15,29  L 16,29  L 16,27  L 14,27  L 14,28  L 15,28  Z  " style="fill:rgb(35, 44, 47); fill-opacity:1.000; stroke:none;" />
 <path d="  M 18,27  L 18,26  L 16,26  L 16,27  Z  " style="fill:rgb(35, 44, 47); fill-opacity:1.000; stroke:none;" />
 <path d="  M 17,28  L 17,29  L 18,29  L 18,28  Z  " style="fill:rgb(35, 44, 47); fill-opacity:1.000; stroke:none;" />
 <path d="  M 18,25  L 18,26  L 20,26  L 20,25  Z  " style="fill:rgb(35, 44, 47); fill-opacity:1.000; stroke:none;" />
 <path d="  M 19,28  L 19,27  L 18,27  L 18,28  Z  " style="fill:rgb(35, 44, 47); fill-opacity:1.000; stroke:none;" />
 <path d="  M 20,24  L 20,25  L 22,25  L 22,24  Z  " style="fill:rgb(35, 44, 47); fill-opacity:1.000; stroke:none;" />
 <path d="  M 23,25  L 24,25  L 24,23  L 22,23  L 22,24  L 23,24  Z  " style="fill:rgb(35, 44, 47); fill-opacity:1.000; stroke:none;" />
 <path d="  M 24,23  L 26,23  L 26,22  L 24,22  Z  " style="fill:rgb(35, 44, 47); fill-opacity:1.000; stroke:none;" />
 <path d="  M 26,25  L 26,24  L 25,24  L 25,25  Z  " style="fill:rgb(35, 44, 47); fill-opacity:1.000; stroke:none;" />
 <path d="  M 27,10  L 27,9  L 26,9  L 26,10  Z  " style="fill:rgb(35, 44, 47); fill-opacity:1.000; stroke:none;" />
 <path d="  M 28,22  L 28,21  L 26,21  L 26,22  Z  " style="fill:rgb(35, 44, 47); fill-opacity:1.000; stroke:none;" />
 <path d="  M 26,24  L 27,24  L 27,23  L 26,23  Z  " style="fill:rgb(35, 44, 47); fill-opacity:1.000; stroke:none;" />
 <path d="  M 28,10  L 27,10  L 27,11  L 28,11  Z  " style="fill:rgb(35, 44, 47); fill-opacity:1.000; stroke:none;" />
 <path d="  M 29,11  L 28,11  L 28,21  L 29,21  Z  " style="fill:rgb(35, 44, 47); fill-opacity:1.000; stroke:none;" />
 <path d="  M 4,13  L 5,13  L 5,11  L 4,11  Z  " style="fill:rgb(169, 174, 175); fill-opacity:1.000; stroke:none;" />
 <path d="  M 6,14  L 6,13  L 5,13  L 5,14  Z  " style="fill:rgb(169, 174, 175); fill-opacity:1.000; stroke:none;" />
 <path d="  M 7,15  L 7,14  L 6,14  L 6,15  Z  " style="fill:rgb(169, 174, 175); fill-opacity:1.000; stroke:none;" />
 <path d="  M 7,16  L 8,16  L 8,15  L 7,15  Z  " style="fill:rgb(169, 174, 175); fill-opacity:1.000; stroke:none;" />
 <path d="  M 8,17  L 9,17  L 9,16  L 8,16  Z  " style="fill:rgb(169, 174, 175); fill-opacity:1.000; stroke:none;" />
 <path d="  M 9,18  L 10,18  L 10,17  L 9,17  Z  " style="fill:rgb(169, 174, 175); fill-opacity:1.000; stroke:none;" />
 <path d="  M 11,18  L 10,18  L 10,19  L 11,19  Z  " style="fill:rgb(169, 174, 175); fill-opacity:1.000; stroke:none;" />
 <path d="  M 11,19  L 11,20  L 14,20  L 14,19  Z  " style="fill:rgb(169, 174, 175); fill-opacity:1.000; stroke:none;" />
 <path d="  M 14,18  L 14,19  L 16,19  L 16,18  Z  " style="fill:rgb(169, 174, 175); fill-opacity:1.000; stroke:none;" />
 <path d="  M 18,17  L 16,17  L 16,18  L 18,18  Z  " style="fill:rgb(169, 174, 175); fill-opacity:1.000; stroke:none;" />
 <path d="  M 18,16  L 18,17  L 20,17  L 20,16  Z  " style="fill:rgb(169, 174, 175); fill-opacity:1.000; stroke:none;" />
 <path d="  M 20,16  L 22,16  L 22,15  L 20,15  Z  " style="fill:rgb(169, 174, 175); fill-opacity:1.000; stroke:none;" />
 <path d="  M 24,15  L 24,14  L 22,14  L 22,15  Z  " style="fill:rgb(169, 174, 175); fill-opacity:1.000; stroke:none;" />
 <path d="  M 24,13  L 24,14  L 26,14  L 26,13  Z  " style="fill:rgb(169, 174, 175); fill-opacity:1.000; stroke:none;" />
 <path d="  M 26,11  L 27,11  L 27,10  L 26,10  Z  " style="fill:rgb(169, 174, 175); fill-opacity:1.000; stroke:none;" />
 <path d="  M 27,12  L 26,12  L 26,13  L 28,13  L 28,11  L 27,11  Z  " style="fill:rgb(169, 174, 175); fill-opacity:1.000; stroke:none;" />
 <path d="  M 5,13  L 4,13  L 4,14  L 5,14  Z  " style="fill:rgb(148, 151, 152); fill-opacity:1.000; stroke:none;" />
 <path d="  M 5,19  L 5,18  L 4,18  L 4,19  Z  " style="fill:rgb(148, 151, 152); fill-opacity:1.000; stroke:none;" />
 <path d="  M 5,15  L 5,16  L 6,16  L 6,15  Z  " style="fill:rgb(148, 151, 152); fill-opacity:1.000; stroke:none;" />
 <path d="  M 8,22  L 8,20  L 7,20  L 7,19  L 5,19  L 5,20  L 6,20  L 6,21  L 7,21  L 7,22  Z  " style="fill:rgb(148, 151, 152); fill-opacity:1.000; stroke:none;" />
 <path d="  M 6,16  L 6,17  L 7,17  L 7,16  Z  " style="fill:rgb(148, 151, 152); fill-opacity:1.000; stroke:none;" />
 <path d="  M 8,17  L 7,17  L 7,18  L 8,18  Z  " style="fill:rgb(148, 151, 152); fill-opacity:1.000; stroke:none;" />
 <path d="  M 8,19  L 9,19  L 9,18  L 8,18  Z  " style="fill:rgb(148, 151, 152); fill-opacity:1.000; stroke:none;" />
 <path d="  M 9,22  L 8,22  L 8,23  L 9,23  Z  " style="fill:rgb(148, 151, 152); fill-opacity:1.000; stroke:none;" />
 <path d="  M 9,19  L 9,20  L 10,20  L 10,19  Z  " style="fill:rgb(148, 151, 152); fill-opacity:1.000; stroke:none;" />
 <path d="  M 10,23  L 9,23  L 9,24  L 10,24  Z  " style="fill:rgb(148, 151, 152); fill-opacity:1.000; stroke:none;" />
 <path d="  M 11,20  L 10,20  L 10,21  L 11,21  Z  " style="fill:rgb(148, 151, 152); fill-opacity:1.000; stroke:none;" />
 <path d="  M 11,25  L 11,24  L 10,24  L 10,25  Z  " style="fill:rgb(148, 151, 152); fill-opacity:1.000; stroke:none;" />
 <path d="  M 12,21  L 11,21  L 11,22  L 12,22  Z  " style="fill:rgb(148, 151, 152); fill-opacity:1.000; stroke:none;" />
 <path d="  M 12,25  L 11,25  L 11,26  L 12,26  Z  " style="fill:rgb(148, 151, 152); fill-opacity:1.000; stroke:none;" />
 <path d="  M 15,19  L 14,19  L 14,20  L 15,20  Z  " style="fill:rgb(148, 151, 152); fill-opacity:1.000; stroke:none;" />
 <path d="  M 17,19  L 17,18  L 16,18  L 16,19  Z  " style="fill:rgb(148, 151, 152); fill-opacity:1.000; stroke:none;" />
 <path d="  M 18,17  L 18,18  L 19,18  L 19,17  Z  " style="fill:rgb(148, 151, 152); fill-opacity:1.000; stroke:none;" />
 <path d="  M 20,16  L 20,17  L 21,17  L 21,16  Z  " style="fill:rgb(148, 151, 152); fill-opacity:1.000; stroke:none;" />
 <path d="  M 23,15  L 22,15  L 22,16  L 23,16  Z  " style="fill:rgb(148, 151, 152); fill-opacity:1.000; stroke:none;" />
 <path d="  M 25,15  L 25,14  L 24,14  L 24,15  Z  " style="fill:rgb(148, 151, 152); fill-opacity:1.000; stroke:none;" />
 <path d="  M 26,13  L 26,14  L 27,14  L 27,13  Z  " style="fill:rgb(148, 151, 152); fill-opacity:1.000; stroke:none;" />
 <path d="  M 6,15  L 6,14  L 4,14  L 4,15  Z  " style="fill:rgb(128, 131, 137); fill-opacity:1.000; stroke:none;" />
 <path d="  M 4,18  L 5,18  L 5,17  L 4,17  Z  " style="fill:rgb(128, 131, 137); fill-opacity:1.000; stroke:none;" />
 <path d="  M 4,19  L 4,20  L 5,20  L 5,19  Z  " style="fill:rgb(128, 131, 137); fill-opacity:1.000; stroke:none;" />
 <path d="  M 5,17  L 6,17  L 6,16  L 5,16  Z  " style="fill:rgb(128, 131, 137); fill-opacity:1.000; stroke:none;" />
 <path d="  M 6,19  L 6,18  L 5,18  L 5,19  Z  " style="fill:rgb(128, 131, 137); fill-opacity:1.000; stroke:none;" />
 <path d="  M 6,20  L 5,20  L 5,21  L 6,21  Z  " style="fill:rgb(128, 131, 137); fill-opacity:1.000; stroke:none;" />
 <path d="  M 6,16  L 7,16  L 7,15  L 6,15  Z  " style="fill:rgb(128, 131, 137); fill-opacity:1.000; stroke:none;" />
 <path d="  M 6,18  L 7,18  L 7,17  L 6,17  Z  " style="fill:rgb(128, 131, 137); fill-opacity:1.000; stroke:none;" />
 <path d="  M 6,21  L 6,22  L 7,22  L 7,21  Z  " style="fill:rgb(128, 131, 137); fill-opacity:1.000; stroke:none;" />
 <path d="  M 8,16  L 7,16  L 7,17  L 8,17  Z  " style="fill:rgb(128, 131, 137); fill-opacity:1.000; stroke:none;" />
 <path d="  M 10,20  L 9,20  L 9,19  L 8,19  L 8,18  L 7,18  L 7,20  L 8,20  L 8,22  L 9,22  L 9,21  L 10,21  Z  " style="fill:rgb(128, 131, 137); fill-opacity:1.000; stroke:none;" />
 <path d="  M 7,22  L 7,23  L 8,23  L 8,22  Z  " style="fill:rgb(128, 131, 137); fill-opacity:1.000; stroke:none;" />
 <path d="  M 8,17  L 8,18  L 9,18  L 9,17  Z  " style="fill:rgb(128, 131, 137); fill-opacity:1.000; stroke:none;" />
 <path d="  M 9,24  L 9,23  L 8,23  L 8,24  Z  " style="fill:rgb(128, 131, 137); fill-opacity:1.000; stroke:none;" />
 <path d="  M 10,18  L 9,18  L 9,19  L 10,19  Z  " style="fill:rgb(128, 131, 137); fill-opacity:1.000; stroke:none;" />
 <path d="  M 9,23  L 10,23  L 10,22  L 9,22  Z  " style="fill:rgb(128, 131, 137); fill-opacity:1.000; stroke:none;" />
 <path d="  M 10,25  L 10,24  L 9,24  L 9,25  Z  " style="fill:rgb(128, 131, 137); fill-opacity:1.000; stroke:none;" />
 <path d="  M 11,20  L 11,19  L 10,19  L 10,20  Z  " style="fill:rgb(128, 131, 137); fill-opacity:1.000; stroke:none;" />
 <path d="  M 11,22  L 11,21  L 10,21  L 10,22  Z  " style="fill:rgb(128, 131, 137); fill-opacity:1.000; stroke:none;" />
 <path d="  M 11,23  L 10,23  L 10,24  L 11,24  Z  " style="fill:rgb(128, 131, 137); fill-opacity:1.000; stroke:none;" />
 <path d="  M 11,25  L 10,25  L 10,26  L 11,26  Z  " style="fill:rgb(128, 131, 137); fill-opacity:1.000; stroke:none;" />
 <path d="  M 12,21  L 12,20  L 11,20  L 11,21  Z  " style="fill:rgb(128, 131, 137); fill-opacity:1.000; stroke:none;" />
 <path d="  M 12,22  L 11,22  L 11,23  L 12,23  Z  " style="fill:rgb(128, 131, 137); fill-opacity:1.000; stroke:none;" />
 <path d="  M 11,25  L 12,25  L 12,24  L 11,24  Z  " style="fill:rgb(128, 131, 137); fill-opacity:1.000; stroke:none;" />
 <path d="  M 12,26  L 11,26  L 11,27  L 12,27  Z  " style="fill:rgb(128, 131, 137); fill-opacity:1.000; stroke:none;" />
 <path d="  M 15,22  L 15,21  L 17,21  L 17,20  L 20,20  L 20,19  L 22,19  L 22,18  L 23,18  L 23,17  L 25,17  L 25,16  L 27,16  L 27,15  L 28,15  L 28,13  L 27,13  L 27,14  L 25,14  L 25,15  L 23,15  L 23,16  L 21,16  L 21,17  L 19,17  L 19,18  L 17,18  L 17,19  L 15,19  L 15,20  L 13,20  L 13,22  Z  " style="fill:rgb(128, 131, 137); fill-opacity:1.000; stroke:none;" />
 <path d="  M 20,21  L 20,22  L 19,22  L 19,23  L 17,23  L 17,24  L 15,24  L 15,25  L 13,25  L 13,27  L 14,27  L 14,26  L 16,26  L 16,25  L 18,25  L 18,24  L 20,24  L 20,23  L 22,23  L 22,22  L 24,22  L 24,21  L 26,21  L 26,20  L 28,20  L 28,18  L 27,18  L 27,19  L 25,19  L 25,20  L 22,20  L 22,21  Z  " style="fill:rgb(128, 131, 137); fill-opacity:1.000; stroke:none;" />
 <path d="  M 4,17  L 5,17  L 5,15  L 4,15  Z  " style="fill:rgb(103, 111, 115); fill-opacity:1.000; stroke:none;" />
 <path d="  M 5,20  L 4,20  L 4,21  L 5,21  Z  " style="fill:rgb(103, 111, 115); fill-opacity:1.000; stroke:none;" />
 <path d="  M 6,17  L 5,17  L 5,18  L 6,18  Z  " style="fill:rgb(103, 111, 115); fill-opacity:1.000; stroke:none;" />
 <path d="  M 6,22  L 6,21  L 5,21  L 5,22  Z  " style="fill:rgb(103, 111, 115); fill-opacity:1.000; stroke:none;" />
 <path d="  M 6,18  L 6,19  L 7,19  L 7,18  Z  " style="fill:rgb(103, 111, 115); fill-opacity:1.000; stroke:none;" />
 <path d="  M 6,23  L 7,23  L 7,22  L 6,22  Z  " style="fill:rgb(103, 111, 115); fill-opacity:1.000; stroke:none;" />
 <path d="  M 7,24  L 8,24  L 8,23  L 7,23  Z  " style="fill:rgb(103, 111, 115); fill-opacity:1.000; stroke:none;" />
 <path d="  M 8,24  L 8,25  L 9,25  L 9,24  Z  " style="fill:rgb(103, 111, 115); fill-opacity:1.000; stroke:none;" />
 <path d="  M 10,21  L 9,21  L 9,22  L 10,22  Z  " style="fill:rgb(103, 111, 115); fill-opacity:1.000; stroke:none;" />
 <path d="  M 10,26  L 10,25  L 9,25  L 9,26  Z  " style="fill:rgb(103, 111, 115); fill-opacity:1.000; stroke:none;" />
 <path d="  M 10,22  L 10,23  L 11,23  L 11,22  Z  " style="fill:rgb(103, 111, 115); fill-opacity:1.000; stroke:none;" />
 <path d="  M 11,26  L 10,26  L 10,27  L 11,27  Z  " style="fill:rgb(103, 111, 115); fill-opacity:1.000; stroke:none;" />
 <path d="  M 15,22  L 13,22  L 13,20  L 12,20  L 12,23  L 11,23  L 11,24  L 12,24  L 12,27  L 11,27  L 11,28  L 14,28  L 14,27  L 13,27  L 13,25  L 15,25  L 15,24  L 13,24  L 13,23  L 15,23  Z  " style="fill:rgb(103, 111, 115); fill-opacity:1.000; stroke:none;" />
 <path d="  M 15,26  L 14,26  L 14,27  L 15,27  Z  " style="fill:rgb(103, 111, 115); fill-opacity:1.000; stroke:none;" />
 <path d="  M 17,21  L 15,21  L 15,22  L 17,22  Z  " style="fill:rgb(103, 111, 115); fill-opacity:1.000; stroke:none;" />
 <path d="  M 17,23  L 15,23  L 15,24  L 17,24  Z  " style="fill:rgb(103, 111, 115); fill-opacity:1.000; stroke:none;" />
 <path d="  M 17,26  L 17,25  L 16,25  L 16,26  Z  " style="fill:rgb(103, 111, 115); fill-opacity:1.000; stroke:none;" />
 <path d="  M 24,19  L 24,18  L 25,18  L 25,17  L 23,17  L 23,18  L 22,18  L 22,19  L 20,19  L 20,20  L 17,20  L 17,21  L 18,21  L 18,22  L 17,22  L 17,23  L 19,23  L 19,22  L 20,22  L 20,21  L 22,21  L 22,20  L 25,20  L 25,19  Z  " style="fill:rgb(103, 111, 115); fill-opacity:1.000; stroke:none;" />
 <path d="  M 18,24  L 18,25  L 19,25  L 19,24  Z  " style="fill:rgb(103, 111, 115); fill-opacity:1.000; stroke:none;" />
 <path d="  M 21,24  L 21,23  L 20,23  L 20,24  Z  " style="fill:rgb(103, 111, 115); fill-opacity:1.000; stroke:none;" />
 <path d="  M 23,23  L 23,22  L 22,22  L 22,23  Z  " style="fill:rgb(103, 111, 115); fill-opacity:1.000; stroke:none;" />
 <path d="  M 24,21  L 24,22  L 25,22  L 25,21  Z  " style="fill:rgb(103, 111, 115); fill-opacity:1.000; stroke:none;" />
 <path d="  M 27,17  L 27,16  L 25,16  L 25,17  Z  " style="fill:rgb(103, 111, 115); fill-opacity:1.000; stroke:none;" />
 <path d="  M 27,18  L 25,18  L 25,19  L 27,19  Z  " style="fill:rgb(103, 111, 115); fill-opacity:1.000; stroke:none;" />
 <path d="  M 26,20  L 26,21  L 27,21  L 27,20  Z  " style="fill:rgb(103, 111, 115); fill-opacity:1.000; stroke:none;" />
 <path d="  M 27,15  L 27,16  L 28,16  L 28,15  Z  " style="fill:rgb(103, 111, 115); fill-opacity:1.000; stroke:none;" />
 <path d="  M 28,17  L 27,17  L 27,18  L 28,18  Z  " style="fill:rgb(103, 111, 115); fill-opacity:1.000; stroke:none;" />
 <path d="  M 5,13  L 6,13  L 6,7  L 5,7  Z  " style="fill:rgb(56, 56, 56); fill-opacity:1.000; stroke:none;" />
 <path d="  M 6,6  L 6,7  L 8,7  L 8,6  Z  " style="fill:rgb(56, 56, 56); fill-opacity:1.000; stroke:none;" />
 <path d="  M 10,6  L 10,5  L 8,5  L 8,6  Z  " style="fill:rgb(56, 56, 56); fill-opacity:1.000; stroke:none;" />
 <path d="  M 12,5  L 12,4  L 10,4  L 10,5  Z  " style="fill:rgb(56, 56, 56); fill-opacity:1.000; stroke:none;" />
 <path d="  M 14,4  L 14,3  L 12,3  L 12,4  Z  " style="fill:rgb(56, 56, 56); fill-opacity:1.000; stroke:none;" />
 <path d="  M 13,19  L 14,19  L 14,18  L 16,18  L 16,17  L 18,17  L 18,16  L 20,16  L 20,15  L 22,15  L 22,14  L 24,14  L 24,13  L 25,13  L 25,10  L 24,10  L 24,11  L 22,11  L 22,12  L 20,12  L 20,13  L 18,13  L 18,14  L 16,14  L 16,15  L 14,15  L 14,16  L 13,16  Z  " style="fill:rgb(56, 56, 56); fill-opacity:1.000; stroke:none;" />
 <path d="  M 16,2  L 14,2  L 14,3  L 16,3  Z  " style="fill:rgb(56, 56, 56); fill-opacity:1.000; stroke:none;" />
 <path d="  M 16,2  L 19,2  L 19,1  L 16,1  Z  " style="fill:rgb(56, 56, 56); fill-opacity:1.000; stroke:none;" />
 <path d="  M 18,4  L 17,4  L 17,6  L 18,6  L 18,7  L 19,7  L 19,8  L 20,8  L 20,9  L 22,9  L 22,8  L 21,8  L 21,7  L 20,7  L 20,6  L 19,6  L 19,5  L 18,5  Z  " style="fill:rgb(56, 56, 56); fill-opacity:1.000; stroke:none;" />
 <path d="  M 20,3  L 20,2  L 19,2  L 19,3  Z  " style="fill:rgb(56, 56, 56); fill-opacity:1.000; stroke:none;" />
 <path d="  M 20,4  L 21,4  L 21,3  L 20,3  Z  " style="fill:rgb(56, 56, 56); fill-opacity:1.000; stroke:none;" />
 <path d="  M 21,4  L 21,5  L 22,5  L 22,4  Z  " style="fill:rgb(56, 56, 56); fill-opacity:1.000; stroke:none;" />
 <path d="  M 22,5  L 22,6  L 23,6  L 23,5  Z  " style="fill:rgb(56, 56, 56); fill-opacity:1.000; stroke:none;" />
 <path d="  M 23,7  L 24,7  L 24,6  L 23,6  Z  " style="fill:rgb(56, 56, 56); fill-opacity:1.000; stroke:none;" />
 <path d="  M 25,8  L 25,7  L 24,7  L 24,8  Z  " style="fill:rgb(56, 56, 56); fill-opacity:1.000; stroke:none;" />
 <path d="  M 26,8  L 25,8  L 25,9  L 26,9  Z  " style="fill:rgb(56, 56, 56); fill-opacity:1.000; stroke:none;" />
 <path d="  M 6,7  L 6,8  L 7,8  L 7,7  Z  " style="fill:rgb(74, 76, 74); fill-opacity:1.000; stroke:none;" />
 <path d="  M 10,13  L 10,12  L 9,12  L 9,11  L 8,11  L 8,10  L 7,10  L 7,9  L 6,9  L 6,14  L 7,14  L 7,15  L 8,15  L 8,16  L 9,16  L 9,17  L 10,17  L 10,18  L 11,18  L 11,19  L 13,19  L 13,16  L 14,16  L 14,15  L 12,15  L 12,14  L 11,14  L 11,13  Z  " style="fill:rgb(74, 76, 74); fill-opacity:1.000; stroke:none;" />
 <path d="  M 9,8  L 8,8  L 8,9  L 9,9  Z  " style="fill:rgb(74, 76, 74); fill-opacity:1.000; stroke:none;" />
 <path d="  M 9,7  L 9,8  L 10,8  L 10,7  Z  " style="fill:rgb(74, 76, 74); fill-opacity:1.000; stroke:none;" />
 <path d="  M 9,10  L 10,10  L 10,9  L 9,9  Z  " style="fill:rgb(74, 76, 74); fill-opacity:1.000; stroke:none;" />
 <path d="  M 10,10  L 10,11  L 11,11  L 11,10  Z  " style="fill:rgb(74, 76, 74); fill-opacity:1.000; stroke:none;" />
 <path d="  M 12,6  L 11,6  L 11,7  L 12,7  Z  " style="fill:rgb(74, 76, 74); fill-opacity:1.000; stroke:none;" />
 <path d="  M 12,11  L 11,11  L 11,12  L 12,12  Z  " style="fill:rgb(74, 76, 74); fill-opacity:1.000; stroke:none;" />
 <path d="  M 13,12  L 12,12  L 12,13  L 13,13  Z  " style="fill:rgb(74, 76, 74); fill-opacity:1.000; stroke:none;" />
 <path d="  M 13,5  L 13,6  L 14,6  L 14,5  Z  " style="fill:rgb(74, 76, 74); fill-opacity:1.000; stroke:none;" />
 <path d="  M 14,14  L 14,13  L 13,13  L 13,14  Z  " style="fill:rgb(74, 76, 74); fill-opacity:1.000; stroke:none;" />
 <path d="  M 16,5  L 16,4  L 15,4  L 15,5  Z  " style="fill:rgb(74, 76, 74); fill-opacity:1.000; stroke:none;" />
 <path d="  M 15,12  L 15,13  L 16,13  L 16,12  Z  " style="fill:rgb(74, 76, 74); fill-opacity:1.000; stroke:none;" />
 <path d="  M 15,14  L 15,15  L 16,15  L 16,14  Z  " style="fill:rgb(74, 76, 74); fill-opacity:1.000; stroke:none;" />
 <path d="  M 17,3  L 17,4  L 18,4  L 18,3  Z  " style="fill:rgb(74, 76, 74); fill-opacity:1.000; stroke:none;" />
 <path d="  M 17,11  L 17,12  L 18,12  L 18,11  Z  " style="fill:rgb(74, 76, 74); fill-opacity:1.000; stroke:none;" />
 <path d="  M 18,13  L 17,13  L 17,14  L 18,14  Z  " style="fill:rgb(74, 76, 74); fill-opacity:1.000; stroke:none;" />
 <path d="  M 18,5  L 19,5  L 19,4  L 18,4  Z  " style="fill:rgb(74, 76, 74); fill-opacity:1.000; stroke:none;" />
 <path d="  M 19,6  L 20,6  L 20,5  L 19,5  Z  " style="fill:rgb(74, 76, 74); fill-opacity:1.000; stroke:none;" />
 <path d="  M 19,11  L 20,11  L 20,10  L 19,10  Z  " style="fill:rgb(74, 76, 74); fill-opacity:1.000; stroke:none;" />
 <path d="  M 20,12  L 19,12  L 19,13  L 20,13  Z  " style="fill:rgb(74, 76, 74); fill-opacity:1.000; stroke:none;" />
 <path d="  M 21,7  L 21,6  L 20,6  L 20,7  Z  " style="fill:rgb(74, 76, 74); fill-opacity:1.000; stroke:none;" />
 <path d="  M 21,8  L 22,8  L 22,7  L 21,7  Z  " style="fill:rgb(74, 76, 74); fill-opacity:1.000; stroke:none;" />
 <path d="  M 21,9  L 21,10  L 22,10  L 22,9  Z  " style="fill:rgb(74, 76, 74); fill-opacity:1.000; stroke:none;" />
 <path d="  M 21,11  L 21,12  L 22,12  L 22,11  Z  " style="fill:rgb(74, 76, 74); fill-opacity:1.000; stroke:none;" />
 <path d="  M 23,8  L 22,8  L 22,9  L 23,9  Z  " style="fill:rgb(74, 76, 74); fill-opacity:1.000; stroke:none;" />
 <path d="  M 24,11  L 24,10  L 23,10  L 23,11  Z  " style="fill:rgb(74, 76, 74); fill-opacity:1.000; stroke:none;" />
 <path d="  M 25,10  L 25,9  L 24,9  L 24,10  Z  " style="fill:rgb(74, 76, 74); fill-opacity:1.000; stroke:none;" />
 <path d="  M 17,14  L 17,13  L 19,13  L 19,12  L 21,12  L 21,11  L 23,11  L 23,10  L 24,10  L 24,9  L 25,9  L 25,8  L 24,8  L 24,7  L 23,7  L 23,6  L 22,6  L 22,5  L 21,5  L 21,4  L 20,4  L 20,3  L 19,3  L 19,2  L 16,2  L 16,3  L 14,3  L 14,4  L 12,4  L 12,5  L 10,5  L 10,6  L 8,6  L 8,7  L 7,7  L 7,8  L 6,8  L 6,9  L 7,9  L 7,10  L 8,10  L 8,11  L 9,11  L 9,12  L 10,12  L 10,13  L 11,13  L 11,14  L 12,14  L 12,15  L 15,15  L 15,14  Z  M 22,7  L 22,8  L 23,8  L 23,9  L 22,9  L 22,10  L 20,10  L 20,11  L 18,11  L 18,12  L 16,12  L 16,13  L 14,13  L 14,14  L 13,14  L 13,13  L 12,13  L 12,12  L 11,12  L 11,11  L 10,11  L 10,10  L 9,10  L 9,9  L 8,9  L 8,8  L 9,8  L 9,7  L 11,7  L 11,6  L 13,6  L 13,5  L 15,5  L 15,4  L 17,4  L 17,3  L 18,3  L 18,4  L 19,4  L 19,5  L 20,5  L 20,6  L 21,6  L 21,7  Z  " style="fill:rgb(98, 97, 98); fill-opacity:1.000; stroke:none;" />
 <path d="  M 12,6  L 12,7  L 10,7  L 10,8  L 9,8  L 9,9  L 10,9  L 10,10  L 13,10  L 13,9  L 15,9  L 15,8  L 17,8  L 17,7  L 18,7  L 18,6  L 17,6  L 17,4  L 16,4  L 16,5  L 14,5  L 14,6  Z  " style="fill:rgb(48, 48, 48); fill-opacity:1.000; stroke:none;" />
 <path d="  M 18,7  L 18,8  L 19,8  L 19,7  Z  " style="fill:rgb(48, 48, 48); fill-opacity:1.000; stroke:none;" />
 <path d="  M 19,8  L 19,9  L 20,9  L 20,8  Z  " style="fill:rgb(48, 48, 48); fill-opacity:1.000; stroke:none;" />
 <path d="  M 21,10  L 21,9  L 20,9  L 20,10  Z  " style="fill:rgb(48, 48, 48); fill-opacity:1.000; stroke:none;" />
 <path d="  M 20,9  L 19,9  L 19,8  L 18,8  L 18,7  L 17,7  L 17,8  L 15,8  L 15,9  L 13,9  L 13,10  L 11,10  L 11,11  L 12,11  L 12,12  L 13,12  L 13,13  L 15,13  L 15,12  L 17,12  L 17,11  L 19,11  L 19,10  L 20,10  Z  " style="fill:rgb(33, 33, 33); fill-opacity:1.000; stroke:none;" />
 <path d="  M 25,13  L 26,13  L 26,9  L 25,9  Z  " style="fill:rgb(33, 33, 33); fill-opacity:1.000; stroke:none;" />
 <path d="  M 13,23  L 13,24  L 15,24  L 15,23  Z  " style="fill:rgb(66, 79, 85); fill-opacity:1.000; stroke:none;" />
 <path d="  M 17,22  L 15,22  L 15,23  L 17,23  Z  " style="fill:rgb(66, 79, 85); fill-opacity:1.000; stroke:none;" />
 <path d="  M 16,27  L 16,26  L 15,26  L 15,27  Z  " style="fill:rgb(66, 79, 85); fill-opacity:1.000; stroke:none;" />
 <path d="  M 17,22  L 18,22  L 18,21  L 17,21  Z  " style="fill:rgb(66, 79, 85); fill-opacity:1.000; stroke:none;" />
 <path d="  M 18,25  L 17,25  L 17,26  L 18,26  Z  " style="fill:rgb(66, 79, 85); fill-opacity:1.000; stroke:none;" />
 <path d="  M 20,25  L 20,24  L 19,24  L 19,25  Z  " style="fill:rgb(66, 79, 85); fill-opacity:1.000; stroke:none;" />
 <path d="  M 22,23  L 21,23  L 21,24  L 22,24  Z  " style="fill:rgb(66, 79, 85); fill-opacity:1.000; stroke:none;" />
 <path d="  M 23,22  L 23,23  L 24,23  L 24,22  Z  " style="fill:rgb(66, 79, 85); fill-opacity:1.000; stroke:none;" />
 <path d="  M 24,18  L 24,19  L 25,19  L 25,18  Z  " style="fill:rgb(66, 79, 85); fill-opacity:1.000; stroke:none;" />
 <path d="  M 27,18  L 27,17  L 25,17  L 25,18  Z  " style="fill:rgb(66, 79, 85); fill-opacity:1.000; stroke:none;" />
 <path d="  M 25,22  L 26,22  L 26,21  L 25,21  Z  " style="fill:rgb(66, 79, 85); fill-opacity:1.000; stroke:none;" />
 <path d="  M 26,12  L 27,12  L 27,11  L 26,11  Z  " style="fill:rgb(66, 79, 85); fill-opacity:1.000; stroke:none;" />
 <path d="  M 28,17  L 28,16  L 27,16  L 27,17  Z  " style="fill:rgb(66, 79, 85); fill-opacity:1.000; stroke:none;" />
 <path d="  M 28,20  L 27,20  L 27,21  L 28,21  Z  " style="fill:rgb(66, 79, 85); fill-opacity:1.000; stroke:none;" />
 <path d="  M 17,28  L 18,28  L 18,27  L 16,27  L 16,29  L 17,29  Z  " style="fill:rgb(9, 9, 10); fill-opacity:1.000; stroke:none;" />
 <path d="  M 18,26  L 18,27  L 19,27  L 19,26  Z  " style="fill:rgb(9, 9, 10); fill-opacity:1.000; stroke:none;" />
 <path d="  M 24,23  L 24,25  L 25,25  L 25,24  L 26,24  L 26,23  Z  " style="fill:rgb(9, 9, 10); fill-opacity:1.000; stroke:none;" />
 <path d="  M 27,23  L 27,22  L 26,22  L 26,23  Z  " style="fill:rgb(9, 9, 10); fill-opacity:1.000; stroke:none;" />
</svg>
