<?xml version="1.0" encoding="UTF-8" standalone="no"?>
<!DOCTYPE svg PUBLIC "-//W3C//DTD SVG 1.1//EN" 
  "http://www.w3.org/Graphics/SVG/1.1/DTD/svg11.dtd">
<svg width="32" height="32"
	 xmlns="http://www.w3.org/2000/svg" version="1.1">
 <path d="  M 7,18  L 6,18  L 6,21  L 7,21  Z  " style="fill:rgb(53, 52, 81); fill-opacity:1.000; stroke:none;" />
 <path d="  M 8,17  L 7,17  L 7,18  L 8,18  Z  " style="fill:rgb(53, 52, 81); fill-opacity:1.000; stroke:none;" />
 <path d="  M 10,17  L 10,16  L 8,16  L 8,17  Z  " style="fill:rgb(53, 52, 81); fill-opacity:1.000; stroke:none;" />
 <path d="  M 10,16  L 13,16  L 13,15  L 10,15  Z  " style="fill:rgb(53, 52, 81); fill-opacity:1.000; stroke:none;" />
 <path d="  M 17,14  L 13,14  L 13,15  L 17,15  Z  " style="fill:rgb(53, 52, 81); fill-opacity:1.000; stroke:none;" />
 <path d="  M 19,14  L 19,13  L 17,13  L 17,14  Z  " style="fill:rgb(53, 52, 81); fill-opacity:1.000; stroke:none;" />
 <path d="  M 19,8  L 18,8  L 18,10  L 19,10  Z  " style="fill:rgb(53, 52, 81); fill-opacity:1.000; stroke:none;" />
 <path d="  M 19,7  L 19,8  L 24,8  L 24,7  Z  " style="fill:rgb(53, 52, 81); fill-opacity:1.000; stroke:none;" />
 <path d="  M 19,11  L 20,11  L 20,10  L 19,10  Z  " style="fill:rgb(53, 52, 81); fill-opacity:1.000; stroke:none;" />
 <path d="  M 20,12  L 19,12  L 19,13  L 20,13  Z  " style="fill:rgb(53, 52, 81); fill-opacity:1.000; stroke:none;" />
 <path d="  M 21,12  L 21,11  L 20,11  L 20,12  Z  " style="fill:rgb(53, 52, 81); fill-opacity:1.000; stroke:none;" />
 <path d="  M 25,8  L 24,8  L 24,9  L 25,9  Z  " style="fill:rgb(53, 52, 81); fill-opacity:1.000; stroke:none;" />
 <path d="  M 25,15  L 26,15  L 26,9  L 25,9  Z  " style="fill:rgb(53, 52, 81); fill-opacity:1.000; stroke:none;" />
 <path d="  M 7,19  L 8,19  L 8,20  L 10,20  L 10,21  L 16,21  L 16,20  L 11,20  L 11,19  L 9,19  L 9,18  L 10,18  L 10,17  L 8,17  L 8,18  L 7,18  Z  " style="fill:rgb(99, 99, 115); fill-opacity:1.000; stroke:none;" />
 <path d="  M 10,17  L 12,17  L 12,16  L 10,16  Z  " style="fill:rgb(99, 99, 115); fill-opacity:1.000; stroke:none;" />
 <path d="  M 16,16  L 16,15  L 14,15  L 14,16  Z  " style="fill:rgb(99, 99, 115); fill-opacity:1.000; stroke:none;" />
 <path d="  M 16,19  L 16,20  L 18,20  L 18,19  Z  " style="fill:rgb(99, 99, 115); fill-opacity:1.000; stroke:none;" />
 <path d="  M 18,14  L 18,15  L 20,15  L 20,14  Z  " style="fill:rgb(99, 99, 115); fill-opacity:1.000; stroke:none;" />
 <path d="  M 20,16  L 20,17  L 19,17  L 19,18  L 18,18  L 18,19  L 20,19  L 20,18  L 21,18  L 21,16  Z  " style="fill:rgb(99, 99, 115); fill-opacity:1.000; stroke:none;" />
 <path d="  M 7,20  L 8,20  L 8,19  L 7,19  Z  " style="fill:rgb(86, 86, 100); fill-opacity:1.000; stroke:none;" />
 <path d="  M 14,22  L 16,22  L 16,21  L 10,21  L 10,20  L 8,20  L 8,21  L 9,21  L 9,22  L 11,22  L 11,23  L 14,23  Z  " style="fill:rgb(86, 86, 100); fill-opacity:1.000; stroke:none;" />
 <path d="  M 13,15  L 13,16  L 14,16  L 14,15  Z  " style="fill:rgb(86, 86, 100); fill-opacity:1.000; stroke:none;" />
 <path d="  M 14,24  L 16,24  L 16,23  L 14,23  Z  " style="fill:rgb(86, 86, 100); fill-opacity:1.000; stroke:none;" />
 <path d="  M 18,21  L 18,20  L 16,20  L 16,21  Z  " style="fill:rgb(86, 86, 100); fill-opacity:1.000; stroke:none;" />
 <path d="  M 18,14  L 17,14  L 17,15  L 18,15  Z  " style="fill:rgb(86, 86, 100); fill-opacity:1.000; stroke:none;" />
 <path d="  M 20,20  L 20,19  L 18,19  L 18,20  Z  " style="fill:rgb(86, 86, 100); fill-opacity:1.000; stroke:none;" />
 <path d="  M 21,13  L 20,13  L 20,14  L 21,14  Z  " style="fill:rgb(86, 86, 100); fill-opacity:1.000; stroke:none;" />
 <path d="  M 21,19  L 21,18  L 20,18  L 20,19  Z  " style="fill:rgb(86, 86, 100); fill-opacity:1.000; stroke:none;" />
 <path d="  M 22,17  L 22,14  L 21,14  L 21,17  Z  " style="fill:rgb(86, 86, 100); fill-opacity:1.000; stroke:none;" />
 <path d="  M 8,20  L 7,20  L 7,21  L 8,21  Z  " style="fill:rgb(58, 58, 68); fill-opacity:1.000; stroke:none;" />
 <path d="  M 8,22  L 9,22  L 9,21  L 8,21  Z  " style="fill:rgb(58, 58, 68); fill-opacity:1.000; stroke:none;" />
 <path d="  M 10,22  L 10,23  L 11,23  L 11,22  Z  " style="fill:rgb(58, 58, 68); fill-opacity:1.000; stroke:none;" />
 <path d="  M 14,23  L 13,23  L 13,24  L 14,24  Z  " style="fill:rgb(58, 58, 68); fill-opacity:1.000; stroke:none;" />
 <path d="  M 17,24  L 17,23  L 16,23  L 16,24  Z  " style="fill:rgb(58, 58, 68); fill-opacity:1.000; stroke:none;" />
 <path d="  M 20,22  L 19,22  L 19,23  L 20,23  Z  " style="fill:rgb(58, 58, 68); fill-opacity:1.000; stroke:none;" />
 <path d="  M 20,21  L 20,22  L 22,22  L 22,21  L 23,21  L 23,19  L 24,19  L 24,16  L 25,16  L 25,11  L 24,11  L 24,12  L 22,12  L 22,13  L 24,13  L 24,15  L 23,15  L 23,17  L 22,17  L 22,19  L 21,19  L 21,21  Z  " style="fill:rgb(58, 58, 68); fill-opacity:1.000; stroke:none;" />
 <path d="  M 21,11  L 21,12  L 22,12  L 22,11  Z  " style="fill:rgb(58, 58, 68); fill-opacity:1.000; stroke:none;" />
 <path d="  M 8,22  L 8,21  L 7,21  L 7,22  Z  " style="fill:rgb(24, 27, 50); fill-opacity:1.000; stroke:none;" />
 <path d="  M 8,22  L 8,23  L 10,23  L 10,22  Z  " style="fill:rgb(24, 27, 50); fill-opacity:1.000; stroke:none;" />
 <path d="  M 10,23  L 10,24  L 13,24  L 13,23  Z  " style="fill:rgb(24, 27, 50); fill-opacity:1.000; stroke:none;" />
 <path d="  M 17,25  L 17,24  L 13,24  L 13,25  Z  " style="fill:rgb(24, 27, 50); fill-opacity:1.000; stroke:none;" />
 <path d="  M 20,24  L 20,23  L 17,23  L 17,24  Z  " style="fill:rgb(24, 27, 50); fill-opacity:1.000; stroke:none;" />
 <path d="  M 22,23  L 22,22  L 20,22  L 20,23  Z  " style="fill:rgb(24, 27, 50); fill-opacity:1.000; stroke:none;" />
 <path d="  M 23,22  L 23,21  L 22,21  L 22,22  Z  " style="fill:rgb(24, 27, 50); fill-opacity:1.000; stroke:none;" />
 <path d="  M 23,19  L 23,21  L 24,21  L 24,19  Z  " style="fill:rgb(24, 27, 50); fill-opacity:1.000; stroke:none;" />
 <path d="  M 24,19  L 25,19  L 25,16  L 24,16  Z  " style="fill:rgb(24, 27, 50); fill-opacity:1.000; stroke:none;" />
 <path d="  M 26,16  L 26,15  L 25,15  L 25,16  Z  " style="fill:rgb(24, 27, 50); fill-opacity:1.000; stroke:none;" />
 <path d="  M 18,19  L 18,18  L 19,18  L 19,17  L 20,17  L 20,16  L 21,16  L 21,14  L 20,14  L 20,15  L 16,15  L 16,16  L 12,16  L 12,17  L 10,17  L 10,18  L 9,18  L 9,19  L 11,19  L 11,20  L 16,20  L 16,19  Z  " style="fill:rgb(121, 101, 113); fill-opacity:1.000; stroke:none;" />
 <path d="  M 14,22  L 14,23  L 19,23  L 19,22  L 20,22  L 20,21  L 21,21  L 21,19  L 20,19  L 20,20  L 18,20  L 18,21  L 16,21  L 16,22  Z  " style="fill:rgb(74, 64, 74); fill-opacity:1.000; stroke:none;" />
 <path d="  M 19,8  L 19,9  L 20,9  L 20,8  Z  " style="fill:rgb(74, 64, 74); fill-opacity:1.000; stroke:none;" />
 <path d="  M 19,14  L 20,14  L 20,13  L 19,13  Z  " style="fill:rgb(74, 64, 74); fill-opacity:1.000; stroke:none;" />
 <path d="  M 23,17  L 23,15  L 24,15  L 24,13  L 22,13  L 22,12  L 20,12  L 20,13  L 21,13  L 21,14  L 22,14  L 22,17  Z  " style="fill:rgb(74, 64, 74); fill-opacity:1.000; stroke:none;" />
 <path d="  M 21,19  L 22,19  L 22,17  L 21,17  Z  " style="fill:rgb(74, 64, 74); fill-opacity:1.000; stroke:none;" />
 <path d="  M 20,9  L 19,9  L 19,10  L 20,10  Z  " style="fill:rgb(145, 104, 95); fill-opacity:1.000; stroke:none;" />
 <path d="  M 21,8  L 20,8  L 20,9  L 21,9  Z  " style="fill:rgb(145, 104, 95); fill-opacity:1.000; stroke:none;" />
 <path d="  M 21,10  L 20,10  L 20,11  L 21,11  Z  " style="fill:rgb(145, 104, 95); fill-opacity:1.000; stroke:none;" />
 <path d="  M 23,10  L 23,9  L 21,9  L 21,10  Z  " style="fill:rgb(145, 104, 95); fill-opacity:1.000; stroke:none;" />
 <path d="  M 22,11  L 22,12  L 24,12  L 24,11  Z  " style="fill:rgb(145, 104, 95); fill-opacity:1.000; stroke:none;" />
 <path d="  M 25,9  L 24,9  L 24,11  L 25,11  Z  " style="fill:rgb(145, 104, 95); fill-opacity:1.000; stroke:none;" />
 <path d="  M 21,10  L 21,9  L 20,9  L 20,10  Z  " style="fill:rgb(189, 140, 129); fill-opacity:1.000; stroke:none;" />
 <path d="  M 24,11  L 24,8  L 21,8  L 21,9  L 23,9  L 23,10  L 21,10  L 21,11  Z  " style="fill:rgb(189, 140, 129); fill-opacity:1.000; stroke:none;" />
</svg>
