<?xml version="1.0" encoding="UTF-8" standalone="no"?>
<!DOCTYPE svg PUBLIC "-//W3C//DTD SVG 1.1//EN" 
  "http://www.w3.org/Graphics/SVG/1.1/DTD/svg11.dtd">
<svg width="32" height="32"
	 xmlns="http://www.w3.org/2000/svg" version="1.1">
 <path d="  M 3,21  L 2,21  L 2,24  L 3,24  Z  " style="fill:rgb(52, 33, 21); fill-opacity:1.000; stroke:none;" />
 <path d="  M 3,20  L 3,21  L 4,21  L 4,20  Z  " style="fill:rgb(52, 33, 21); fill-opacity:1.000; stroke:none;" />
 <path d="  M 4,19  L 4,20  L 5,20  L 5,19  Z  " style="fill:rgb(52, 33, 21); fill-opacity:1.000; stroke:none;" />
 <path d="  M 10,19  L 10,18  L 5,18  L 5,19  Z  " style="fill:rgb(52, 33, 21); fill-opacity:1.000; stroke:none;" />
 <path d="  M 11,20  L 11,19  L 10,19  L 10,20  Z  " style="fill:rgb(52, 33, 21); fill-opacity:1.000; stroke:none;" />
 <path d="  M 18,22  L 19,22  L 19,19  L 18,19  Z  " style="fill:rgb(52, 33, 21); fill-opacity:1.000; stroke:none;" />
 <path d="  M 21,20  L 22,20  L 22,19  L 21,19  Z  " style="fill:rgb(52, 33, 21); fill-opacity:1.000; stroke:none;" />
 <path d="  M 22,18  L 22,19  L 26,19  L 26,18  Z  " style="fill:rgb(52, 33, 21); fill-opacity:1.000; stroke:none;" />
 <path d="  M 3,25  L 3,24  L 2,24  L 2,25  Z  " style="fill:rgb(33, 21, 13); fill-opacity:1.000; stroke:none;" />
 <path d="  M 3,25  L 3,26  L 9,26  L 9,25  Z  " style="fill:rgb(33, 21, 13); fill-opacity:1.000; stroke:none;" />
 <path d="  M 9,24  L 9,25  L 11,25  L 11,24  Z  " style="fill:rgb(33, 21, 13); fill-opacity:1.000; stroke:none;" />
 <path d="  M 13,24  L 13,23  L 11,23  L 11,24  Z  " style="fill:rgb(33, 21, 13); fill-opacity:1.000; stroke:none;" />
 <path d="  M 13,23  L 14,23  L 14,19  L 13,19  Z  " style="fill:rgb(33, 21, 13); fill-opacity:1.000; stroke:none;" />
 <path d="  M 18,23  L 19,23  L 19,22  L 18,22  Z  " style="fill:rgb(33, 21, 13); fill-opacity:1.000; stroke:none;" />
 <path d="  M 21,24  L 21,23  L 19,23  L 19,24  Z  " style="fill:rgb(33, 21, 13); fill-opacity:1.000; stroke:none;" />
 <path d="  M 21,24  L 21,25  L 23,25  L 23,24  Z  " style="fill:rgb(33, 21, 13); fill-opacity:1.000; stroke:none;" />
 <path d="  M 23,25  L 23,26  L 29,26  L 29,25  Z  " style="fill:rgb(33, 21, 13); fill-opacity:1.000; stroke:none;" />
 <path d="  M 26,19  L 27,19  L 27,18  L 26,18  Z  " style="fill:rgb(33, 21, 13); fill-opacity:1.000; stroke:none;" />
 <path d="  M 28,20  L 28,19  L 27,19  L 27,20  Z  " style="fill:rgb(33, 21, 13); fill-opacity:1.000; stroke:none;" />
 <path d="  M 29,21  L 29,20  L 28,20  L 28,21  Z  " style="fill:rgb(33, 21, 13); fill-opacity:1.000; stroke:none;" />
 <path d="  M 30,21  L 29,21  L 29,25  L 30,25  Z  " style="fill:rgb(33, 21, 13); fill-opacity:1.000; stroke:none;" />
 <path d="  M 12,22  L 12,20  L 10,20  L 10,19  L 5,19  L 5,20  L 4,20  L 4,21  L 3,21  L 3,23  L 4,23  L 4,24  L 9,24  L 9,23  L 11,23  L 11,22  Z  " style="fill:rgb(149, 94, 59); fill-opacity:1.000; stroke:none;" />
 <path d="  M 20,21  L 20,22  L 21,22  L 21,23  L 23,23  L 23,24  L 27,24  L 27,23  L 28,23  L 28,21  L 27,21  L 27,19  L 22,19  L 22,20  L 20,20  L 20,19  L 19,19  L 19,21  Z  " style="fill:rgb(149, 94, 59); fill-opacity:1.000; stroke:none;" />
 <path d="  M 3,24  L 4,24  L 4,23  L 3,23  Z  " style="fill:rgb(114, 72, 46); fill-opacity:1.000; stroke:none;" />
 <path d="  M 4,24  L 4,25  L 7,25  L 7,24  Z  " style="fill:rgb(114, 72, 46); fill-opacity:1.000; stroke:none;" />
 <path d="  M 10,23  L 9,23  L 9,24  L 10,24  Z  " style="fill:rgb(114, 72, 46); fill-opacity:1.000; stroke:none;" />
 <path d="  M 12,22  L 11,22  L 11,23  L 12,23  Z  " style="fill:rgb(114, 72, 46); fill-opacity:1.000; stroke:none;" />
 <path d="  M 13,19  L 12,19  L 12,22  L 13,22  Z  " style="fill:rgb(114, 72, 46); fill-opacity:1.000; stroke:none;" />
 <path d="  M 19,21  L 19,22  L 20,22  L 20,21  Z  " style="fill:rgb(114, 72, 46); fill-opacity:1.000; stroke:none;" />
 <path d="  M 21,22  L 20,22  L 20,23  L 21,23  Z  " style="fill:rgb(114, 72, 46); fill-opacity:1.000; stroke:none;" />
 <path d="  M 22,24  L 23,24  L 23,23  L 22,23  Z  " style="fill:rgb(114, 72, 46); fill-opacity:1.000; stroke:none;" />
 <path d="  M 29,21  L 28,21  L 28,23  L 27,23  L 27,24  L 25,24  L 25,25  L 28,25  L 28,24  L 29,24  Z  " style="fill:rgb(114, 72, 46); fill-opacity:1.000; stroke:none;" />
 <path d="  M 28,20  L 27,20  L 27,21  L 28,21  Z  " style="fill:rgb(114, 72, 46); fill-opacity:1.000; stroke:none;" />
 <path d="  M 3,24  L 3,25  L 4,25  L 4,24  Z  " style="fill:rgb(85, 53, 33); fill-opacity:1.000; stroke:none;" />
 <path d="  M 9,25  L 9,24  L 7,24  L 7,25  Z  " style="fill:rgb(85, 53, 33); fill-opacity:1.000; stroke:none;" />
 <path d="  M 11,23  L 10,23  L 10,24  L 11,24  Z  " style="fill:rgb(85, 53, 33); fill-opacity:1.000; stroke:none;" />
 <path d="  M 12,23  L 13,23  L 13,22  L 12,22  Z  " style="fill:rgb(85, 53, 33); fill-opacity:1.000; stroke:none;" />
 <path d="  M 20,22  L 19,22  L 19,23  L 20,23  Z  " style="fill:rgb(85, 53, 33); fill-opacity:1.000; stroke:none;" />
 <path d="  M 22,23  L 21,23  L 21,24  L 22,24  Z  " style="fill:rgb(85, 53, 33); fill-opacity:1.000; stroke:none;" />
 <path d="  M 23,25  L 25,25  L 25,24  L 23,24  Z  " style="fill:rgb(85, 53, 33); fill-opacity:1.000; stroke:none;" />
 <path d="  M 28,24  L 28,25  L 29,25  L 29,24  Z  " style="fill:rgb(85, 53, 33); fill-opacity:1.000; stroke:none;" />
</svg>
