<?xml version="1.0" encoding="UTF-8" standalone="no"?>
<!DOCTYPE svg PUBLIC "-//W3C//DTD SVG 1.1//EN" 
  "http://www.w3.org/Graphics/SVG/1.1/DTD/svg11.dtd">
<svg width="32" height="32"
	 xmlns="http://www.w3.org/2000/svg" version="1.1">
 <path d="  M 4,8  L 5,8  L 5,5  L 4,5  Z  " style="fill:rgb(84, 39, 22); fill-opacity:1.000; stroke:none;" />
 <path d="  M 5,26  L 4,26  L 4,29  L 5,29  Z  " style="fill:rgb(84, 39, 22); fill-opacity:1.000; stroke:none;" />
 <path d="  M 5,5  L 7,5  L 7,4  L 5,4  Z  " style="fill:rgb(84, 39, 22); fill-opacity:1.000; stroke:none;" />
 <path d="  M 5,8  L 5,9  L 6,9  L 6,8  Z  " style="fill:rgb(84, 39, 22); fill-opacity:1.000; stroke:none;" />
 <path d="  M 6,25  L 5,25  L 5,26  L 6,26  Z  " style="fill:rgb(84, 39, 22); fill-opacity:1.000; stroke:none;" />
 <path d="  M 5,29  L 5,30  L 6,30  L 6,29  Z  " style="fill:rgb(84, 39, 22); fill-opacity:1.000; stroke:none;" />
 <path d="  M 7,9  L 6,9  L 6,10  L 7,10  Z  " style="fill:rgb(84, 39, 22); fill-opacity:1.000; stroke:none;" />
 <path d="  M 6,25  L 7,25  L 7,22  L 6,22  Z  " style="fill:rgb(84, 39, 22); fill-opacity:1.000; stroke:none;" />
 <path d="  M 9,6  L 9,5  L 7,5  L 7,6  Z  " style="fill:rgb(84, 39, 22); fill-opacity:1.000; stroke:none;" />
 <path d="  M 7,12  L 8,12  L 8,10  L 7,10  Z  " style="fill:rgb(84, 39, 22); fill-opacity:1.000; stroke:none;" />
 <path d="  M 8,19  L 7,19  L 7,22  L 8,22  Z  " style="fill:rgb(84, 39, 22); fill-opacity:1.000; stroke:none;" />
 <path d="  M 9,12  L 8,12  L 8,19  L 9,19  Z  " style="fill:rgb(84, 39, 22); fill-opacity:1.000; stroke:none;" />
 <path d="  M 10,7  L 10,6  L 9,6  L 9,7  Z  " style="fill:rgb(84, 39, 22); fill-opacity:1.000; stroke:none;" />
 <path d="  M 11,5  L 10,5  L 10,6  L 11,6  Z  " style="fill:rgb(84, 39, 22); fill-opacity:1.000; stroke:none;" />
 <path d="  M 11,4  L 11,5  L 12,5  L 12,4  Z  " style="fill:rgb(84, 39, 22); fill-opacity:1.000; stroke:none;" />
 <path d="  M 14,4  L 14,3  L 12,3  L 12,4  Z  " style="fill:rgb(84, 39, 22); fill-opacity:1.000; stroke:none;" />
 <path d="  M 14,2  L 14,3  L 18,3  L 18,2  Z  " style="fill:rgb(84, 39, 22); fill-opacity:1.000; stroke:none;" />
 <path d="  M 18,3  L 18,4  L 20,4  L 20,3  Z  " style="fill:rgb(84, 39, 22); fill-opacity:1.000; stroke:none;" />
 <path d="  M 20,4  L 20,5  L 21,5  L 21,4  Z  " style="fill:rgb(84, 39, 22); fill-opacity:1.000; stroke:none;" />
 <path d="  M 22,5  L 21,5  L 21,6  L 22,6  Z  " style="fill:rgb(84, 39, 22); fill-opacity:1.000; stroke:none;" />
 <path d="  M 23,7  L 23,6  L 22,6  L 22,7  Z  " style="fill:rgb(84, 39, 22); fill-opacity:1.000; stroke:none;" />
 <path d="  M 25,6  L 25,5  L 23,5  L 23,6  Z  " style="fill:rgb(84, 39, 22); fill-opacity:1.000; stroke:none;" />
 <path d="  M 27,5  L 27,4  L 25,4  L 25,5  Z  " style="fill:rgb(84, 39, 22); fill-opacity:1.000; stroke:none;" />
 <path d="  M 28,5  L 27,5  L 27,6  L 28,6  Z  " style="fill:rgb(84, 39, 22); fill-opacity:1.000; stroke:none;" />
 <path d="  M 6,6  L 7,6  L 7,5  L 5,5  L 5,7  L 6,7  Z  " style="fill:rgb(137, 59, 37); fill-opacity:1.000; stroke:none;" />
 <path d="  M 6,27  L 6,26  L 5,26  L 5,27  Z  " style="fill:rgb(137, 59, 37); fill-opacity:1.000; stroke:none;" />
 <path d="  M 5,28  L 5,29  L 7,29  L 7,28  Z  " style="fill:rgb(137, 59, 37); fill-opacity:1.000; stroke:none;" />
 <path d="  M 7,9  L 7,8  L 6,8  L 6,9  Z  " style="fill:rgb(137, 59, 37); fill-opacity:1.000; stroke:none;" />
 <path d="  M 7,22  L 7,23  L 8,23  L 8,22  Z  " style="fill:rgb(137, 59, 37); fill-opacity:1.000; stroke:none;" />
 <path d="  M 7,27  L 7,28  L 9,28  L 9,27  Z  " style="fill:rgb(137, 59, 37); fill-opacity:1.000; stroke:none;" />
 <path d="  M 9,22  L 9,20  L 8,20  L 8,22  Z  " style="fill:rgb(137, 59, 37); fill-opacity:1.000; stroke:none;" />
 <path d="  M 10,15  L 10,16  L 11,16  L 11,15  Z  " style="fill:rgb(137, 59, 37); fill-opacity:1.000; stroke:none;" />
 <path d="  M 11,14  L 11,15  L 12,15  L 12,14  Z  " style="fill:rgb(137, 59, 37); fill-opacity:1.000; stroke:none;" />
 <path d="  M 14,26  L 11,26  L 11,27  L 13,27  L 13,28  L 15,28  L 15,27  L 14,27  Z  " style="fill:rgb(137, 59, 37); fill-opacity:1.000; stroke:none;" />
 <path d="  M 12,13  L 12,14  L 13,14  L 13,13  Z  " style="fill:rgb(137, 59, 37); fill-opacity:1.000; stroke:none;" />
 <path d="  M 14,11  L 13,11  L 13,13  L 14,13  Z  " style="fill:rgb(137, 59, 37); fill-opacity:1.000; stroke:none;" />
 <path d="  M 15,29  L 17,29  L 17,28  L 15,28  Z  " style="fill:rgb(137, 59, 37); fill-opacity:1.000; stroke:none;" />
 <path d="  M 17,3  L 17,4  L 18,4  L 18,3  Z  " style="fill:rgb(137, 59, 37); fill-opacity:1.000; stroke:none;" />
 <path d="  M 19,6  L 19,4  L 18,4  L 18,6  Z  " style="fill:rgb(137, 59, 37); fill-opacity:1.000; stroke:none;" />
 <path d="  M 21,15  L 21,14  L 20,14  L 20,15  Z  " style="fill:rgb(137, 59, 37); fill-opacity:1.000; stroke:none;" />
 <path d="  M 22,16  L 22,15  L 21,15  L 21,16  Z  " style="fill:rgb(137, 59, 37); fill-opacity:1.000; stroke:none;" />
 <path d="  M 25,22  L 24,22  L 24,20  L 23,20  L 23,21  L 22,21  L 22,22  L 23,22  L 23,23  L 24,23  L 24,25  L 25,25  Z  " style="fill:rgb(137, 59, 37); fill-opacity:1.000; stroke:none;" />
 <path d="  M 24,10  L 23,10  L 23,12  L 24,12  Z  " style="fill:rgb(137, 59, 37); fill-opacity:1.000; stroke:none;" />
 <path d="  M 25,10  L 25,9  L 24,9  L 24,10  Z  " style="fill:rgb(137, 59, 37); fill-opacity:1.000; stroke:none;" />
 <path d="  M 27,5  L 26,5  L 26,6  L 25,6  L 25,7  L 26,7  L 26,8  L 27,8  Z  " style="fill:rgb(137, 59, 37); fill-opacity:1.000; stroke:none;" />
 <path d="  M 26,8  L 25,8  L 25,9  L 26,9  Z  " style="fill:rgb(137, 59, 37); fill-opacity:1.000; stroke:none;" />
 <path d="  M 27,26  L 26,26  L 26,28  L 25,28  L 25,29  L 27,29  Z  " style="fill:rgb(137, 59, 37); fill-opacity:1.000; stroke:none;" />
 <path d="  M 7,8  L 7,7  L 5,7  L 5,8  Z  " style="fill:rgb(158, 73, 42); fill-opacity:1.000; stroke:none;" />
 <path d="  M 7,28  L 7,27  L 5,27  L 5,28  Z  " style="fill:rgb(158, 73, 42); fill-opacity:1.000; stroke:none;" />
 <path d="  M 7,26  L 7,25  L 6,25  L 6,26  Z  " style="fill:rgb(158, 73, 42); fill-opacity:1.000; stroke:none;" />
 <path d="  M 8,10  L 8,9  L 7,9  L 7,10  Z  " style="fill:rgb(158, 73, 42); fill-opacity:1.000; stroke:none;" />
 <path d="  M 8,25  L 8,24  L 7,24  L 7,25  Z  " style="fill:rgb(158, 73, 42); fill-opacity:1.000; stroke:none;" />
 <path d="  M 9,7  L 9,6  L 8,6  L 8,7  Z  " style="fill:rgb(158, 73, 42); fill-opacity:1.000; stroke:none;" />
 <path d="  M 9,10  L 8,10  L 8,12  L 10,12  L 10,10  L 11,10  L 11,9  L 9,9  Z  " style="fill:rgb(158, 73, 42); fill-opacity:1.000; stroke:none;" />
 <path d="  M 9,22  L 8,22  L 8,23  L 9,23  Z  " style="fill:rgb(158, 73, 42); fill-opacity:1.000; stroke:none;" />
 <path d="  M 10,15  L 9,15  L 9,17  L 10,17  Z  " style="fill:rgb(158, 73, 42); fill-opacity:1.000; stroke:none;" />
 <path d="  M 11,22  L 11,21  L 9,21  L 9,22  Z  " style="fill:rgb(158, 73, 42); fill-opacity:1.000; stroke:none;" />
 <path d="  M 9,27  L 11,27  L 11,26  L 9,26  Z  " style="fill:rgb(158, 73, 42); fill-opacity:1.000; stroke:none;" />
 <path d="  M 13,6  L 13,5  L 14,5  L 14,4  L 12,4  L 12,5  L 11,5  L 11,6  L 10,6  L 10,7  L 12,7  L 12,6  Z  " style="fill:rgb(158, 73, 42); fill-opacity:1.000; stroke:none;" />
 <path d="  M 10,14  L 10,15  L 11,15  L 11,14  Z  " style="fill:rgb(158, 73, 42); fill-opacity:1.000; stroke:none;" />
 <path d="  M 12,13  L 11,13  L 11,14  L 12,14  Z  " style="fill:rgb(158, 73, 42); fill-opacity:1.000; stroke:none;" />
 <path d="  M 13,12  L 12,12  L 12,13  L 13,13  Z  " style="fill:rgb(158, 73, 42); fill-opacity:1.000; stroke:none;" />
 <path d="  M 14,11  L 14,9  L 13,9  L 13,11  Z  " style="fill:rgb(158, 73, 42); fill-opacity:1.000; stroke:none;" />
 <path d="  M 14,18  L 13,18  L 13,19  L 14,19  L 14,22  L 15,22  L 15,16  L 14,16  Z  " style="fill:rgb(158, 73, 42); fill-opacity:1.000; stroke:none;" />
 <path d="  M 14,4  L 15,4  L 15,3  L 14,3  Z  " style="fill:rgb(158, 73, 42); fill-opacity:1.000; stroke:none;" />
 <path d="  M 17,26  L 17,27  L 15,27  L 15,28  L 19,28  L 19,27  L 23,27  L 23,26  Z  " style="fill:rgb(158, 73, 42); fill-opacity:1.000; stroke:none;" />
 <path d="  M 19,6  L 18,6  L 18,7  L 17,7  L 17,8  L 19,8  Z  " style="fill:rgb(158, 73, 42); fill-opacity:1.000; stroke:none;" />
 <path d="  M 17,9  L 17,10  L 19,10  L 19,9  Z  " style="fill:rgb(158, 73, 42); fill-opacity:1.000; stroke:none;" />
 <path d="  M 17,20  L 17,21  L 21,21  L 21,22  L 22,22  L 22,21  L 23,21  L 23,20  Z  " style="fill:rgb(158, 73, 42); fill-opacity:1.000; stroke:none;" />
 <path d="  M 18,13  L 19,13  L 19,14  L 21,14  L 21,13  L 20,13  L 20,11  L 19,11  L 19,12  L 18,12  Z  " style="fill:rgb(158, 73, 42); fill-opacity:1.000; stroke:none;" />
 <path d="  M 20,5  L 20,4  L 19,4  L 19,5  Z  " style="fill:rgb(158, 73, 42); fill-opacity:1.000; stroke:none;" />
 <path d="  M 22,14  L 21,14  L 21,15  L 22,15  Z  " style="fill:rgb(158, 73, 42); fill-opacity:1.000; stroke:none;" />
 <path d="  M 23,7  L 22,7  L 22,8  L 23,8  Z  " style="fill:rgb(158, 73, 42); fill-opacity:1.000; stroke:none;" />
 <path d="  M 23,17  L 23,15  L 22,15  L 22,17  Z  " style="fill:rgb(158, 73, 42); fill-opacity:1.000; stroke:none;" />
 <path d="  M 23,23  L 23,22  L 22,22  L 22,23  Z  " style="fill:rgb(158, 73, 42); fill-opacity:1.000; stroke:none;" />
 <path d="  M 23,7  L 24,7  L 24,6  L 23,6  Z  " style="fill:rgb(158, 73, 42); fill-opacity:1.000; stroke:none;" />
 <path d="  M 23,25  L 24,25  L 24,23  L 23,23  Z  " style="fill:rgb(158, 73, 42); fill-opacity:1.000; stroke:none;" />
 <path d="  M 26,28  L 26,25  L 24,25  L 24,26  L 25,26  L 25,27  L 23,27  L 23,28  Z  " style="fill:rgb(158, 73, 42); fill-opacity:1.000; stroke:none;" />
 <path d="  M 25,8  L 24,8  L 24,9  L 25,9  Z  " style="fill:rgb(158, 73, 42); fill-opacity:1.000; stroke:none;" />
 <path d="  M 25,5  L 25,6  L 26,6  L 26,5  Z  " style="fill:rgb(158, 73, 42); fill-opacity:1.000; stroke:none;" />
 <path d="  M 26,7  L 25,7  L 25,8  L 26,8  Z  " style="fill:rgb(158, 73, 42); fill-opacity:1.000; stroke:none;" />
 <path d="  M 7,6  L 6,6  L 6,7  L 7,7  Z  " style="fill:rgb(198, 92, 53); fill-opacity:1.000; stroke:none;" />
 <path d="  M 12,9  L 13,9  L 13,8  L 14,8  L 14,6  L 13,6  L 13,7  L 10,7  L 10,8  L 9,8  L 9,7  L 7,7  L 7,8  L 8,8  L 8,9  L 11,9  L 11,10  L 10,10  L 10,13  L 11,13  L 11,12  L 12,12  L 12,11  L 13,11  L 13,10  L 12,10  Z  " style="fill:rgb(198, 92, 53); fill-opacity:1.000; stroke:none;" />
 <path d="  M 8,26  L 15,26  L 15,25  L 14,25  L 14,24  L 15,24  L 15,22  L 14,22  L 14,19  L 13,19  L 13,18  L 14,18  L 14,15  L 15,15  L 15,16  L 16,16  L 16,14  L 15,14  L 15,11  L 14,11  L 14,14  L 12,14  L 12,15  L 11,15  L 11,16  L 10,16  L 10,17  L 9,17  L 9,19  L 8,19  L 8,20  L 9,20  L 9,21  L 10,21  L 10,20  L 11,20  L 11,19  L 12,19  L 12,22  L 11,22  L 11,23  L 10,23  L 10,22  L 9,22  L 9,23  L 7,23  L 7,24  L 8,24  Z  " style="fill:rgb(198, 92, 53); fill-opacity:1.000; stroke:none;" />
 <path d="  M 15,20  L 16,20  L 16,18  L 15,18  Z  " style="fill:rgb(198, 92, 53); fill-opacity:1.000; stroke:none;" />
 <path d="  M 20,21  L 20,22  L 19,22  L 19,21  L 18,21  L 18,22  L 17,22  L 17,23  L 18,23  L 18,24  L 16,24  L 16,26  L 15,26  L 15,27  L 17,27  L 17,26  L 23,26  L 23,27  L 24,27  L 24,25  L 23,25  L 23,23  L 22,23  L 22,22  L 21,22  L 21,21  Z  " style="fill:rgb(198, 92, 53); fill-opacity:1.000; stroke:none;" />
 <path d="  M 18,4  L 17,4  L 17,3  L 16,3  L 16,6  L 17,6  L 17,5  L 18,5  Z  " style="fill:rgb(198, 92, 53); fill-opacity:1.000; stroke:none;" />
 <path d="  M 16,20  L 16,21  L 17,21  L 17,20  Z  " style="fill:rgb(198, 92, 53); fill-opacity:1.000; stroke:none;" />
 <path d="  M 17,18  L 18,18  L 18,19  L 19,19  L 19,20  L 23,20  L 23,19  L 22,19  L 22,18  L 21,18  L 21,17  L 22,17  L 22,16  L 21,16  L 21,15  L 20,15  L 20,14  L 19,14  L 19,13  L 18,13  L 18,12  L 17,12  Z  " style="fill:rgb(198, 92, 53); fill-opacity:1.000; stroke:none;" />
 <path d="  M 19,12  L 19,11  L 18,11  L 18,12  Z  " style="fill:rgb(198, 92, 53); fill-opacity:1.000; stroke:none;" />
 <path d="  M 20,13  L 22,13  L 22,14  L 23,14  L 23,8  L 22,8  L 22,6  L 21,6  L 21,5  L 19,5  L 19,11  L 20,11  Z  " style="fill:rgb(198, 92, 53); fill-opacity:1.000; stroke:none;" />
 <path d="  M 23,8  L 24,8  L 24,7  L 23,7  Z  " style="fill:rgb(198, 92, 53); fill-opacity:1.000; stroke:none;" />
 <path d="  M 7,26  L 6,26  L 6,27  L 9,27  L 9,26  L 8,26  L 8,25  L 7,25  Z  " style="fill:rgb(215, 107, 67); fill-opacity:1.000; stroke:none;" />
 <path d="  M 7,7  L 8,7  L 8,6  L 7,6  Z  " style="fill:rgb(215, 107, 67); fill-opacity:1.000; stroke:none;" />
 <path d="  M 7,8  L 7,9  L 8,9  L 8,8  Z  " style="fill:rgb(215, 107, 67); fill-opacity:1.000; stroke:none;" />
 <path d="  M 9,10  L 9,9  L 8,9  L 8,10  Z  " style="fill:rgb(215, 107, 67); fill-opacity:1.000; stroke:none;" />
 <path d="  M 9,7  L 9,8  L 10,8  L 10,7  Z  " style="fill:rgb(215, 107, 67); fill-opacity:1.000; stroke:none;" />
 <path d="  M 10,12  L 9,12  L 9,15  L 10,15  L 10,14  L 11,14  L 11,13  L 10,13  Z  " style="fill:rgb(215, 107, 67); fill-opacity:1.000; stroke:none;" />
 <path d="  M 10,20  L 10,21  L 11,21  L 11,22  L 12,22  L 12,19  L 11,19  L 11,20  Z  " style="fill:rgb(215, 107, 67); fill-opacity:1.000; stroke:none;" />
 <path d="  M 10,22  L 10,23  L 11,23  L 11,22  Z  " style="fill:rgb(215, 107, 67); fill-opacity:1.000; stroke:none;" />
 <path d="  M 11,13  L 12,13  L 12,12  L 11,12  Z  " style="fill:rgb(215, 107, 67); fill-opacity:1.000; stroke:none;" />
 <path d="  M 13,6  L 12,6  L 12,7  L 13,7  Z  " style="fill:rgb(215, 107, 67); fill-opacity:1.000; stroke:none;" />
 <path d="  M 13,9  L 12,9  L 12,10  L 13,10  Z  " style="fill:rgb(215, 107, 67); fill-opacity:1.000; stroke:none;" />
 <path d="  M 13,11  L 12,11  L 12,12  L 13,12  Z  " style="fill:rgb(215, 107, 67); fill-opacity:1.000; stroke:none;" />
 <path d="  M 16,6  L 16,3  L 15,3  L 15,4  L 14,4  L 14,5  L 13,5  L 13,6  L 14,6  L 14,8  L 13,8  L 13,9  L 14,9  L 14,11  L 15,11  L 15,14  L 16,14  L 16,16  L 15,16  L 15,18  L 16,18  L 16,20  L 19,20  L 19,19  L 18,19  L 18,18  L 17,18  L 17,12  L 18,12  L 18,11  L 19,11  L 19,10  L 17,10  L 17,9  L 19,9  L 19,8  L 17,8  L 17,7  L 18,7  L 18,5  L 17,5  L 17,6  Z  " style="fill:rgb(215, 107, 67); fill-opacity:1.000; stroke:none;" />
 <path d="  M 14,14  L 14,13  L 13,13  L 13,14  Z  " style="fill:rgb(215, 107, 67); fill-opacity:1.000; stroke:none;" />
 <path d="  M 14,16  L 15,16  L 15,15  L 14,15  Z  " style="fill:rgb(215, 107, 67); fill-opacity:1.000; stroke:none;" />
 <path d="  M 16,24  L 18,24  L 18,23  L 17,23  L 17,22  L 18,22  L 18,21  L 16,21  L 16,20  L 15,20  L 15,24  L 14,24  L 14,25  L 15,25  L 15,26  L 16,26  Z  " style="fill:rgb(215, 107, 67); fill-opacity:1.000; stroke:none;" />
 <path d="  M 15,26  L 14,26  L 14,27  L 15,27  Z  " style="fill:rgb(215, 107, 67); fill-opacity:1.000; stroke:none;" />
 <path d="  M 19,21  L 19,22  L 20,22  L 20,21  Z  " style="fill:rgb(215, 107, 67); fill-opacity:1.000; stroke:none;" />
 <path d="  M 21,14  L 22,14  L 22,13  L 21,13  Z  " style="fill:rgb(215, 107, 67); fill-opacity:1.000; stroke:none;" />
 <path d="  M 23,17  L 21,17  L 21,18  L 22,18  L 22,19  L 23,19  Z  " style="fill:rgb(215, 107, 67); fill-opacity:1.000; stroke:none;" />
 <path d="  M 23,15  L 23,14  L 22,14  L 22,15  Z  " style="fill:rgb(215, 107, 67); fill-opacity:1.000; stroke:none;" />
 <path d="  M 24,10  L 24,8  L 23,8  L 23,10  Z  " style="fill:rgb(215, 107, 67); fill-opacity:1.000; stroke:none;" />
 <path d="  M 23,20  L 24,20  L 24,19  L 23,19  Z  " style="fill:rgb(215, 107, 67); fill-opacity:1.000; stroke:none;" />
 <path d="  M 25,8  L 25,6  L 24,6  L 24,8  Z  " style="fill:rgb(215, 107, 67); fill-opacity:1.000; stroke:none;" />
 <path d="  M 25,26  L 24,26  L 24,27  L 25,27  Z  " style="fill:rgb(215, 107, 67); fill-opacity:1.000; stroke:none;" />
 <path d="  M 6,30  L 7,30  L 7,29  L 6,29  Z  " style="fill:rgb(61, 28, 16); fill-opacity:1.000; stroke:none;" />
 <path d="  M 7,29  L 9,29  L 9,28  L 7,28  Z  " style="fill:rgb(61, 28, 16); fill-opacity:1.000; stroke:none;" />
 <path d="  M 9,27  L 9,28  L 13,28  L 13,27  Z  " style="fill:rgb(61, 28, 16); fill-opacity:1.000; stroke:none;" />
 <path d="  M 13,29  L 15,29  L 15,28  L 13,28  Z  " style="fill:rgb(61, 28, 16); fill-opacity:1.000; stroke:none;" />
 <path d="  M 15,30  L 17,30  L 17,29  L 15,29  Z  " style="fill:rgb(61, 28, 16); fill-opacity:1.000; stroke:none;" />
 <path d="  M 19,29  L 19,28  L 17,28  L 17,29  Z  " style="fill:rgb(61, 28, 16); fill-opacity:1.000; stroke:none;" />
 <path d="  M 23,28  L 23,27  L 19,27  L 19,28  Z  " style="fill:rgb(61, 28, 16); fill-opacity:1.000; stroke:none;" />
 <path d="  M 24,12  L 23,12  L 23,19  L 24,19  Z  " style="fill:rgb(61, 28, 16); fill-opacity:1.000; stroke:none;" />
 <path d="  M 23,29  L 25,29  L 25,28  L 23,28  Z  " style="fill:rgb(61, 28, 16); fill-opacity:1.000; stroke:none;" />
 <path d="  M 25,10  L 24,10  L 24,12  L 25,12  Z  " style="fill:rgb(61, 28, 16); fill-opacity:1.000; stroke:none;" />
 <path d="  M 24,19  L 24,22  L 25,22  L 25,19  Z  " style="fill:rgb(61, 28, 16); fill-opacity:1.000; stroke:none;" />
 <path d="  M 26,10  L 26,9  L 25,9  L 25,10  Z  " style="fill:rgb(61, 28, 16); fill-opacity:1.000; stroke:none;" />
 <path d="  M 26,25  L 26,22  L 25,22  L 25,25  Z  " style="fill:rgb(61, 28, 16); fill-opacity:1.000; stroke:none;" />
 <path d="  M 27,29  L 25,29  L 25,30  L 27,30  Z  " style="fill:rgb(61, 28, 16); fill-opacity:1.000; stroke:none;" />
 <path d="  M 26,8  L 26,9  L 27,9  L 27,8  Z  " style="fill:rgb(61, 28, 16); fill-opacity:1.000; stroke:none;" />
 <path d="  M 26,26  L 27,26  L 27,25  L 26,25  Z  " style="fill:rgb(61, 28, 16); fill-opacity:1.000; stroke:none;" />
 <path d="  M 28,6  L 27,6  L 27,8  L 28,8  Z  " style="fill:rgb(61, 28, 16); fill-opacity:1.000; stroke:none;" />
 <path d="  M 27,29  L 28,29  L 28,26  L 27,26  Z  " style="fill:rgb(61, 28, 16); fill-opacity:1.000; stroke:none;" />
</svg>
