<?xml version="1.0" encoding="UTF-8" standalone="no"?>
<!DOCTYPE svg PUBLIC "-//W3C//DTD SVG 1.1//EN" 
  "http://www.w3.org/Graphics/SVG/1.1/DTD/svg11.dtd">
<svg width="32" height="32"
	 xmlns="http://www.w3.org/2000/svg" version="1.1">
 <path d="  M 20,22  L 20,23  L 21,23  L 21,16  L 20,16  L 20,15  L 12,15  L 12,16  L 11,16  L 11,23  L 12,23  L 12,22  Z  " style="fill:rgb(7, 4, 3); fill-opacity:1.000; stroke:none;" />
 <path d="  M 14,7  L 13,7  L 13,14  L 14,14  Z  " style="fill:rgb(52, 33, 21); fill-opacity:1.000; stroke:none;" />
 <path d="  M 18,7  L 18,6  L 14,6  L 14,7  Z  " style="fill:rgb(52, 33, 21); fill-opacity:1.000; stroke:none;" />
 <path d="  M 14,14  L 14,15  L 18,15  L 18,14  Z  " style="fill:rgb(52, 33, 21); fill-opacity:1.000; stroke:none;" />
 <path d="  M 18,7  L 18,14  L 19,14  L 19,7  Z  " style="fill:rgb(52, 33, 21); fill-opacity:1.000; stroke:none;" />
 <path d="  M 14,13  L 17,13  L 17,8  L 18,8  L 18,7  L 14,7  Z  " style="fill:rgb(149, 94, 59); fill-opacity:1.000; stroke:none;" />
 <path d="  M 17,14  L 17,13  L 14,13  L 14,14  Z  " style="fill:rgb(114, 72, 46); fill-opacity:1.000; stroke:none;" />
 <path d="  M 17,8  L 17,13  L 18,13  L 18,8  Z  " style="fill:rgb(114, 72, 46); fill-opacity:1.000; stroke:none;" />
 <path d="  M 18,13  L 17,13  L 17,14  L 18,14  Z  " style="fill:rgb(85, 53, 33); fill-opacity:1.000; stroke:none;" />
</svg>
