<?xml version="1.0" encoding="UTF-8" standalone="no"?>
<!DOCTYPE svg PUBLIC "-//W3C//DTD SVG 1.1//EN" 
  "http://www.w3.org/Graphics/SVG/1.1/DTD/svg11.dtd">
<svg width="32" height="32"
	 xmlns="http://www.w3.org/2000/svg" version="1.1">
 <path d="  M 4,17  L 5,17  L 5,18  L 4,18  L 4,19  L 3,19  L 3,18  L 2,18  L 2,20  L 3,20  L 3,21  L 6,21  L 6,20  L 7,20  L 7,19  L 6,19  L 6,16  L 4,16  Z  " style="fill:rgb(22, 126, 134); fill-opacity:1.000; stroke:none;" />
 <path d="  M 3,16  L 4,16  L 4,14  L 3,14  Z  " style="fill:rgb(22, 126, 134); fill-opacity:1.000; stroke:none;" />
 <path d="  M 8,19  L 8,20  L 9,20  L 9,19  Z  " style="fill:rgb(22, 126, 134); fill-opacity:1.000; stroke:none;" />
 <path d="  M 10,20  L 9,20  L 9,21  L 11,21  L 11,20  L 12,20  L 12,18  L 11,18  L 11,19  L 10,19  Z  " style="fill:rgb(22, 126, 134); fill-opacity:1.000; stroke:none;" />
 <path d="  M 11,17  L 11,14  L 10,14  L 10,17  Z  " style="fill:rgb(22, 126, 134); fill-opacity:1.000; stroke:none;" />
 <path d="  M 15,19  L 14,19  L 14,17  L 13,17  L 13,16  L 12,16  L 12,18  L 13,18  L 13,20  L 14,20  L 14,21  L 16,21  L 16,20  L 18,20  L 18,21  L 20,21  L 20,20  L 21,20  L 21,19  L 20,19  L 20,15  L 19,15  L 19,17  L 18,17  L 18,19  L 17,19  L 17,18  L 16,18  L 16,15  L 15,15  Z  " style="fill:rgb(22, 126, 134); fill-opacity:1.000; stroke:none;" />
 <path d="  M 21,15  L 21,14  L 20,14  L 20,15  Z  " style="fill:rgb(22, 126, 134); fill-opacity:1.000; stroke:none;" />
 <path d="  M 23,15  L 23,14  L 22,14  L 22,15  Z  " style="fill:rgb(22, 126, 134); fill-opacity:1.000; stroke:none;" />
 <path d="  M 23,17  L 22,17  L 22,20  L 23,20  Z  " style="fill:rgb(22, 126, 134); fill-opacity:1.000; stroke:none;" />
 <path d="  M 24,19  L 24,20  L 23,20  L 23,21  L 25,21  L 25,20  L 26,20  L 26,18  L 25,18  L 25,19  Z  " style="fill:rgb(22, 126, 134); fill-opacity:1.000; stroke:none;" />
 <path d="  M 24,14  L 24,16  L 25,16  L 25,14  Z  " style="fill:rgb(22, 126, 134); fill-opacity:1.000; stroke:none;" />
 <path d="  M 30,16  L 29,16  L 29,19  L 27,19  L 27,20  L 28,20  L 28,21  L 29,21  L 29,20  L 30,20  Z  " style="fill:rgb(22, 126, 134); fill-opacity:1.000; stroke:none;" />
 <path d="  M 28,14  L 28,15  L 29,15  L 29,14  Z  " style="fill:rgb(22, 126, 134); fill-opacity:1.000; stroke:none;" />
 <path d="  M 31,15  L 30,15  L 30,16  L 31,16  Z  " style="fill:rgb(22, 126, 134); fill-opacity:1.000; stroke:none;" />
 <path d="  M 3,14  L 4,14  L 4,13  L 3,13  Z  " style="fill:rgb(17, 155, 133); fill-opacity:1.000; stroke:none;" />
 <path d="  M 4,17  L 4,16  L 3,16  L 3,19  L 4,19  L 4,18  L 5,18  L 5,17  Z  " style="fill:rgb(17, 155, 133); fill-opacity:1.000; stroke:none;" />
 <path d="  M 5,15  L 5,16  L 6,16  L 6,15  Z  " style="fill:rgb(17, 155, 133); fill-opacity:1.000; stroke:none;" />
 <path d="  M 8,13  L 9,13  L 9,12  L 8,12  Z  " style="fill:rgb(17, 155, 133); fill-opacity:1.000; stroke:none;" />
 <path d="  M 8,14  L 8,15  L 9,15  L 9,14  Z  " style="fill:rgb(17, 155, 133); fill-opacity:1.000; stroke:none;" />
 <path d="  M 9,19  L 9,20  L 10,20  L 10,19  L 11,19  L 11,17  L 10,17  L 10,18  L 9,18  L 9,17  L 8,17  L 8,19  Z  " style="fill:rgb(17, 155, 133); fill-opacity:1.000; stroke:none;" />
 <path d="  M 10,15  L 9,15  L 9,17  L 10,17  Z  " style="fill:rgb(17, 155, 133); fill-opacity:1.000; stroke:none;" />
 <path d="  M 10,14  L 11,14  L 11,13  L 10,13  Z  " style="fill:rgb(17, 155, 133); fill-opacity:1.000; stroke:none;" />
 <path d="  M 14,10  L 14,11  L 15,11  L 15,10  Z  " style="fill:rgb(17, 155, 133); fill-opacity:1.000; stroke:none;" />
 <path d="  M 14,16  L 14,19  L 15,19  L 15,16  Z  " style="fill:rgb(17, 155, 133); fill-opacity:1.000; stroke:none;" />
 <path d="  M 16,13  L 15,13  L 15,15  L 16,15  Z  " style="fill:rgb(17, 155, 133); fill-opacity:1.000; stroke:none;" />
 <path d="  M 19,12  L 19,11  L 18,11  L 18,12  Z  " style="fill:rgb(17, 155, 133); fill-opacity:1.000; stroke:none;" />
 <path d="  M 19,17  L 19,15  L 18,15  L 18,17  Z  " style="fill:rgb(17, 155, 133); fill-opacity:1.000; stroke:none;" />
 <path d="  M 19,15  L 20,15  L 20,14  L 19,14  Z  " style="fill:rgb(17, 155, 133); fill-opacity:1.000; stroke:none;" />
 <path d="  M 21,13  L 20,13  L 20,14  L 21,14  Z  " style="fill:rgb(17, 155, 133); fill-opacity:1.000; stroke:none;" />
 <path d="  M 23,13  L 22,13  L 22,14  L 23,14  Z  " style="fill:rgb(17, 155, 133); fill-opacity:1.000; stroke:none;" />
 <path d="  M 23,14  L 23,15  L 24,15  L 24,14  Z  " style="fill:rgb(17, 155, 133); fill-opacity:1.000; stroke:none;" />
 <path d="  M 23,20  L 24,20  L 24,19  L 25,19  L 25,16  L 24,16  L 24,18  L 23,18  Z  " style="fill:rgb(17, 155, 133); fill-opacity:1.000; stroke:none;" />
 <path d="  M 29,15  L 28,15  L 28,19  L 29,19  Z  " style="fill:rgb(17, 155, 133); fill-opacity:1.000; stroke:none;" />
 <path d="  M 8,14  L 9,14  L 9,13  L 8,13  Z  " style="fill:rgb(20, 180, 133); fill-opacity:1.000; stroke:none;" />
 <path d="  M 9,17  L 9,15  L 8,15  L 8,17  Z  " style="fill:rgb(20, 180, 133); fill-opacity:1.000; stroke:none;" />
 <path d="  M 10,15  L 10,14  L 9,14  L 9,15  Z  " style="fill:rgb(20, 180, 133); fill-opacity:1.000; stroke:none;" />
 <path d="  M 9,18  L 10,18  L 10,17  L 9,17  Z  " style="fill:rgb(20, 180, 133); fill-opacity:1.000; stroke:none;" />
 <path d="  M 14,16  L 15,16  L 15,11  L 14,11  Z  " style="fill:rgb(20, 180, 133); fill-opacity:1.000; stroke:none;" />
 <path d="  M 19,15  L 19,12  L 18,12  L 18,15  Z  " style="fill:rgb(20, 180, 133); fill-opacity:1.000; stroke:none;" />
 <path d="  M 24,15  L 23,15  L 23,18  L 24,18  Z  " style="fill:rgb(20, 180, 133); fill-opacity:1.000; stroke:none;" />
 <path d="  M 24,14  L 25,14  L 25,12  L 24,12  Z  " style="fill:rgb(20, 180, 133); fill-opacity:1.000; stroke:none;" />
</svg>
