<?xml version="1.0" encoding="UTF-8" standalone="no"?>
<!DOCTYPE svg PUBLIC "-//W3C//DTD SVG 1.1//EN" 
  "http://www.w3.org/Graphics/SVG/1.1/DTD/svg11.dtd">
<svg width="32" height="32"
	 xmlns="http://www.w3.org/2000/svg" version="1.1">
 <path d="  M 7,16  L 8,16  L 8,14  L 7,14  Z  " style="fill:rgb(122, 28, 36); fill-opacity:1.000; stroke:none;" />
 <path d="  M 9,10  L 9,8  L 8,8  L 8,11  L 9,11  L 9,12  L 10,12  L 10,10  Z  " style="fill:rgb(122, 28, 36); fill-opacity:1.000; stroke:none;" />
 <path d="  M 11,14  L 11,13  L 8,13  L 8,14  Z  " style="fill:rgb(122, 28, 36); fill-opacity:1.000; stroke:none;" />
 <path d="  M 8,17  L 9,17  L 9,16  L 8,16  Z  " style="fill:rgb(122, 28, 36); fill-opacity:1.000; stroke:none;" />
 <path d="  M 9,7  L 9,8  L 13,8  L 13,7  Z  " style="fill:rgb(122, 28, 36); fill-opacity:1.000; stroke:none;" />
 <path d="  M 9,19  L 9,20  L 10,20  L 10,19  Z  " style="fill:rgb(122, 28, 36); fill-opacity:1.000; stroke:none;" />
 <path d="  M 10,17  L 12,17  L 12,15  L 11,15  L 11,16  L 10,16  Z  " style="fill:rgb(122, 28, 36); fill-opacity:1.000; stroke:none;" />
 <path d="  M 10,18  L 10,19  L 13,19  L 13,18  Z  " style="fill:rgb(122, 28, 36); fill-opacity:1.000; stroke:none;" />
 <path d="  M 11,20  L 10,20  L 10,21  L 11,21  Z  " style="fill:rgb(122, 28, 36); fill-opacity:1.000; stroke:none;" />
 <path d="  M 12,11  L 11,11  L 11,13  L 12,13  L 12,14  L 13,14  L 13,12  L 12,12  Z  " style="fill:rgb(122, 28, 36); fill-opacity:1.000; stroke:none;" />
 <path d="  M 11,24  L 12,24  L 12,23  L 11,23  Z  " style="fill:rgb(122, 28, 36); fill-opacity:1.000; stroke:none;" />
 <path d="  M 12,10  L 12,11  L 13,11  L 13,10  Z  " style="fill:rgb(122, 28, 36); fill-opacity:1.000; stroke:none;" />
 <path d="  M 12,21  L 13,21  L 13,20  L 12,20  Z  " style="fill:rgb(122, 28, 36); fill-opacity:1.000; stroke:none;" />
 <path d="  M 13,25  L 13,24  L 12,24  L 12,25  Z  " style="fill:rgb(122, 28, 36); fill-opacity:1.000; stroke:none;" />
 <path d="  M 14,9  L 14,8  L 13,8  L 13,9  Z  " style="fill:rgb(122, 28, 36); fill-opacity:1.000; stroke:none;" />
 <path d="  M 13,22  L 14,22  L 14,21  L 13,21  Z  " style="fill:rgb(122, 28, 36); fill-opacity:1.000; stroke:none;" />
 <path d="  M 15,11  L 14,11  L 14,12  L 15,12  Z  " style="fill:rgb(122, 28, 36); fill-opacity:1.000; stroke:none;" />
 <path d="  M 14,14  L 15,14  L 15,13  L 14,13  Z  " style="fill:rgb(122, 28, 36); fill-opacity:1.000; stroke:none;" />
 <path d="  M 14,16  L 15,16  L 15,15  L 14,15  Z  " style="fill:rgb(122, 28, 36); fill-opacity:1.000; stroke:none;" />
 <path d="  M 15,18  L 15,17  L 14,17  L 14,18  Z  " style="fill:rgb(122, 28, 36); fill-opacity:1.000; stroke:none;" />
 <path d="  M 14,24  L 14,25  L 15,25  L 15,24  Z  " style="fill:rgb(122, 28, 36); fill-opacity:1.000; stroke:none;" />
 <path d="  M 16,9  L 15,9  L 15,11  L 16,11  Z  " style="fill:rgb(122, 28, 36); fill-opacity:1.000; stroke:none;" />
 <path d="  M 15,19  L 15,20  L 16,20  L 16,19  Z  " style="fill:rgb(122, 28, 36); fill-opacity:1.000; stroke:none;" />
 <path d="  M 19,8  L 16,8  L 16,9  L 19,9  Z  " style="fill:rgb(122, 28, 36); fill-opacity:1.000; stroke:none;" />
 <path d="  M 17,14  L 17,13  L 16,13  L 16,14  Z  " style="fill:rgb(122, 28, 36); fill-opacity:1.000; stroke:none;" />
 <path d="  M 17,21  L 16,21  L 16,23  L 17,23  Z  " style="fill:rgb(122, 28, 36); fill-opacity:1.000; stroke:none;" />
 <path d="  M 17,15  L 17,16  L 18,16  L 18,15  Z  " style="fill:rgb(122, 28, 36); fill-opacity:1.000; stroke:none;" />
 <path d="  M 17,18  L 18,18  L 18,17  L 17,17  Z  " style="fill:rgb(122, 28, 36); fill-opacity:1.000; stroke:none;" />
 <path d="  M 17,20  L 17,21  L 20,21  L 20,20  Z  " style="fill:rgb(122, 28, 36); fill-opacity:1.000; stroke:none;" />
 <path d="  M 19,12  L 19,11  L 18,11  L 18,12  Z  " style="fill:rgb(122, 28, 36); fill-opacity:1.000; stroke:none;" />
 <path d="  M 19,16  L 18,16  L 18,17  L 19,17  Z  " style="fill:rgb(122, 28, 36); fill-opacity:1.000; stroke:none;" />
 <path d="  M 20,23  L 20,22  L 18,22  L 18,23  Z  " style="fill:rgb(122, 28, 36); fill-opacity:1.000; stroke:none;" />
 <path d="  M 20,9  L 19,9  L 19,11  L 20,11  Z  " style="fill:rgb(122, 28, 36); fill-opacity:1.000; stroke:none;" />
 <path d="  M 19,14  L 20,14  L 20,13  L 19,13  Z  " style="fill:rgb(122, 28, 36); fill-opacity:1.000; stroke:none;" />
 <path d="  M 21,15  L 19,15  L 19,16  L 20,16  L 20,17  L 22,17  L 22,16  L 21,16  Z  " style="fill:rgb(122, 28, 36); fill-opacity:1.000; stroke:none;" />
 <path d="  M 20,17  L 19,17  L 19,18  L 20,18  Z  " style="fill:rgb(122, 28, 36); fill-opacity:1.000; stroke:none;" />
 <path d="  M 20,13  L 23,13  L 23,14  L 25,14  L 25,13  L 24,13  L 24,12  L 20,12  Z  " style="fill:rgb(122, 28, 36); fill-opacity:1.000; stroke:none;" />
 <path d="  M 24,16  L 24,15  L 23,15  L 23,16  Z  " style="fill:rgb(122, 28, 36); fill-opacity:1.000; stroke:none;" />
 <path d="  M 8,16  L 7,16  L 7,17  L 8,17  Z  " style="fill:rgb(92, 21, 26); fill-opacity:1.000; stroke:none;" />
 <path d="  M 12,18  L 12,17  L 8,17  L 8,18  Z  " style="fill:rgb(92, 21, 26); fill-opacity:1.000; stroke:none;" />
 <path d="  M 10,21  L 10,20  L 9,20  L 9,21  Z  " style="fill:rgb(92, 21, 26); fill-opacity:1.000; stroke:none;" />
 <path d="  M 10,13  L 11,13  L 11,11  L 10,11  Z  " style="fill:rgb(92, 21, 26); fill-opacity:1.000; stroke:none;" />
 <path d="  M 10,21  L 10,22  L 12,22  L 12,21  Z  " style="fill:rgb(92, 21, 26); fill-opacity:1.000; stroke:none;" />
 <path d="  M 12,13  L 11,13  L 11,14  L 12,14  Z  " style="fill:rgb(92, 21, 26); fill-opacity:1.000; stroke:none;" />
 <path d="  M 11,25  L 12,25  L 12,24  L 11,24  Z  " style="fill:rgb(92, 21, 26); fill-opacity:1.000; stroke:none;" />
 <path d="  M 13,11  L 12,11  L 12,12  L 13,12  Z  " style="fill:rgb(92, 21, 26); fill-opacity:1.000; stroke:none;" />
 <path d="  M 13,17  L 13,15  L 12,15  L 12,17  Z  " style="fill:rgb(92, 21, 26); fill-opacity:1.000; stroke:none;" />
 <path d="  M 12,23  L 13,23  L 13,22  L 12,22  Z  " style="fill:rgb(92, 21, 26); fill-opacity:1.000; stroke:none;" />
 <path d="  M 12,25  L 12,26  L 15,26  L 15,25  Z  " style="fill:rgb(92, 21, 26); fill-opacity:1.000; stroke:none;" />
 <path d="  M 14,11  L 14,9  L 13,9  L 13,11  Z  " style="fill:rgb(92, 21, 26); fill-opacity:1.000; stroke:none;" />
 <path d="  M 13,12  L 13,13  L 14,13  L 14,12  Z  " style="fill:rgb(92, 21, 26); fill-opacity:1.000; stroke:none;" />
 <path d="  M 13,15  L 14,15  L 14,14  L 13,14  Z  " style="fill:rgb(92, 21, 26); fill-opacity:1.000; stroke:none;" />
 <path d="  M 13,17  L 13,18  L 14,18  L 14,17  Z  " style="fill:rgb(92, 21, 26); fill-opacity:1.000; stroke:none;" />
 <path d="  M 14,21  L 14,20  L 13,20  L 13,21  Z  " style="fill:rgb(92, 21, 26); fill-opacity:1.000; stroke:none;" />
 <path d="  M 15,19  L 14,19  L 14,20  L 15,20  Z  " style="fill:rgb(92, 21, 26); fill-opacity:1.000; stroke:none;" />
 <path d="  M 14,21  L 14,23  L 15,23  L 15,21  Z  " style="fill:rgb(92, 21, 26); fill-opacity:1.000; stroke:none;" />
 <path d="  M 15,11  L 15,12  L 17,12  L 17,11  Z  " style="fill:rgb(92, 21, 26); fill-opacity:1.000; stroke:none;" />
 <path d="  M 16,19  L 16,20  L 18,20  L 18,19  L 17,19  L 17,18  L 15,18  L 15,19  Z  " style="fill:rgb(92, 21, 26); fill-opacity:1.000; stroke:none;" />
 <path d="  M 15,20  L 15,21  L 16,21  L 16,20  Z  " style="fill:rgb(92, 21, 26); fill-opacity:1.000; stroke:none;" />
 <path d="  M 16,25  L 16,23  L 15,23  L 15,25  Z  " style="fill:rgb(92, 21, 26); fill-opacity:1.000; stroke:none;" />
 <path d="  M 18,13  L 19,13  L 19,12  L 17,12  L 17,15  L 18,15  Z  " style="fill:rgb(92, 21, 26); fill-opacity:1.000; stroke:none;" />
 <path d="  M 20,24  L 20,23  L 17,23  L 17,24  Z  " style="fill:rgb(92, 21, 26); fill-opacity:1.000; stroke:none;" />
 <path d="  M 19,16  L 19,15  L 18,15  L 18,16  Z  " style="fill:rgb(92, 21, 26); fill-opacity:1.000; stroke:none;" />
 <path d="  M 18,17  L 18,18  L 19,18  L 19,17  Z  " style="fill:rgb(92, 21, 26); fill-opacity:1.000; stroke:none;" />
 <path d="  M 19,12  L 20,12  L 20,11  L 19,11  Z  " style="fill:rgb(92, 21, 26); fill-opacity:1.000; stroke:none;" />
 <path d="  M 19,15  L 20,15  L 20,14  L 19,14  Z  " style="fill:rgb(92, 21, 26); fill-opacity:1.000; stroke:none;" />
 <path d="  M 19,17  L 20,17  L 20,16  L 19,16  Z  " style="fill:rgb(92, 21, 26); fill-opacity:1.000; stroke:none;" />
 <path d="  M 19,19  L 20,19  L 20,18  L 19,18  Z  " style="fill:rgb(92, 21, 26); fill-opacity:1.000; stroke:none;" />
 <path d="  M 20,17  L 20,18  L 22,18  L 22,17  Z  " style="fill:rgb(92, 21, 26); fill-opacity:1.000; stroke:none;" />
 <path d="  M 20,21  L 20,23  L 21,23  L 21,21  Z  " style="fill:rgb(92, 21, 26); fill-opacity:1.000; stroke:none;" />
 <path d="  M 22,16  L 22,17  L 24,17  L 24,16  Z  " style="fill:rgb(92, 21, 26); fill-opacity:1.000; stroke:none;" />
 <path d="  M 24,14  L 24,16  L 25,16  L 25,14  Z  " style="fill:rgb(92, 21, 26); fill-opacity:1.000; stroke:none;" />
 <path d="  M 8,14  L 8,15  L 9,15  L 9,14  Z  " style="fill:rgb(166, 37, 48); fill-opacity:1.000; stroke:none;" />
 <path d="  M 10,8  L 9,8  L 9,9  L 10,9  Z  " style="fill:rgb(166, 37, 48); fill-opacity:1.000; stroke:none;" />
 <path d="  M 9,16  L 9,17  L 10,17  L 10,16  Z  " style="fill:rgb(166, 37, 48); fill-opacity:1.000; stroke:none;" />
 <path d="  M 10,10  L 10,11  L 12,11  L 12,10  L 13,10  L 13,8  L 12,8  L 12,9  L 11,9  L 11,10  Z  " style="fill:rgb(166, 37, 48); fill-opacity:1.000; stroke:none;" />
 <path d="  M 10,15  L 10,16  L 11,16  L 11,15  Z  " style="fill:rgb(166, 37, 48); fill-opacity:1.000; stroke:none;" />
 <path d="  M 11,20  L 11,19  L 10,19  L 10,20  Z  " style="fill:rgb(166, 37, 48); fill-opacity:1.000; stroke:none;" />
 <path d="  M 11,14  L 11,15  L 12,15  L 12,14  Z  " style="fill:rgb(166, 37, 48); fill-opacity:1.000; stroke:none;" />
 <path d="  M 12,21  L 12,20  L 11,20  L 11,21  Z  " style="fill:rgb(166, 37, 48); fill-opacity:1.000; stroke:none;" />
 <path d="  M 13,19  L 12,19  L 12,20  L 13,20  Z  " style="fill:rgb(166, 37, 48); fill-opacity:1.000; stroke:none;" />
 <path d="  M 13,22  L 13,23  L 14,23  L 14,22  Z  " style="fill:rgb(166, 37, 48); fill-opacity:1.000; stroke:none;" />
 <path d="  M 13,24  L 13,25  L 14,25  L 14,24  Z  " style="fill:rgb(166, 37, 48); fill-opacity:1.000; stroke:none;" />
 <path d="  M 14,24  L 15,24  L 15,23  L 14,23  Z  " style="fill:rgb(166, 37, 48); fill-opacity:1.000; stroke:none;" />
 <path d="  M 15,14  L 16,14  L 16,13  L 15,13  Z  " style="fill:rgb(166, 37, 48); fill-opacity:1.000; stroke:none;" />
 <path d="  M 15,15  L 15,16  L 16,16  L 16,15  Z  " style="fill:rgb(166, 37, 48); fill-opacity:1.000; stroke:none;" />
 <path d="  M 16,16  L 16,17  L 15,17  L 15,18  L 17,18  L 17,17  L 18,17  L 18,16  Z  " style="fill:rgb(166, 37, 48); fill-opacity:1.000; stroke:none;" />
 <path d="  M 16,10  L 17,10  L 17,9  L 16,9  Z  " style="fill:rgb(166, 37, 48); fill-opacity:1.000; stroke:none;" />
 <path d="  M 16,12  L 16,13  L 17,13  L 17,12  Z  " style="fill:rgb(166, 37, 48); fill-opacity:1.000; stroke:none;" />
 <path d="  M 16,20  L 16,21  L 17,21  L 17,20  Z  " style="fill:rgb(166, 37, 48); fill-opacity:1.000; stroke:none;" />
 <path d="  M 17,11  L 17,12  L 18,12  L 18,11  Z  " style="fill:rgb(166, 37, 48); fill-opacity:1.000; stroke:none;" />
 <path d="  M 18,22  L 17,22  L 17,23  L 18,23  Z  " style="fill:rgb(166, 37, 48); fill-opacity:1.000; stroke:none;" />
 <path d="  M 19,11  L 19,10  L 18,10  L 18,11  Z  " style="fill:rgb(166, 37, 48); fill-opacity:1.000; stroke:none;" />
 <path d="  M 19,21  L 19,22  L 20,22  L 20,21  Z  " style="fill:rgb(166, 37, 48); fill-opacity:1.000; stroke:none;" />
 <path d="  M 21,13  L 20,13  L 20,14  L 21,14  Z  " style="fill:rgb(166, 37, 48); fill-opacity:1.000; stroke:none;" />
 <path d="  M 23,15  L 24,15  L 24,14  L 22,14  L 22,15  L 21,15  L 21,16  L 23,16  Z  " style="fill:rgb(166, 37, 48); fill-opacity:1.000; stroke:none;" />
 <path d="  M 9,14  L 9,15  L 8,15  L 8,16  L 10,16  L 10,15  L 11,15  L 11,14  Z  " style="fill:rgb(190, 63, 74); fill-opacity:1.000; stroke:none;" />
 <path d="  M 10,8  L 10,9  L 9,9  L 9,10  L 11,10  L 11,9  L 12,9  L 12,8  Z  " style="fill:rgb(190, 63, 74); fill-opacity:1.000; stroke:none;" />
 <path d="  M 12,19  L 11,19  L 11,20  L 12,20  Z  " style="fill:rgb(190, 63, 74); fill-opacity:1.000; stroke:none;" />
 <path d="  M 14,23  L 12,23  L 12,24  L 14,24  Z  " style="fill:rgb(190, 63, 74); fill-opacity:1.000; stroke:none;" />
 <path d="  M 14,12  L 14,13  L 16,13  L 16,12  Z  " style="fill:rgb(190, 63, 74); fill-opacity:1.000; stroke:none;" />
 <path d="  M 14,16  L 14,17  L 16,17  L 16,16  Z  " style="fill:rgb(190, 63, 74); fill-opacity:1.000; stroke:none;" />
 <path d="  M 17,10  L 16,10  L 16,11  L 18,11  L 18,10  L 19,10  L 19,9  L 17,9  Z  " style="fill:rgb(190, 63, 74); fill-opacity:1.000; stroke:none;" />
 <path d="  M 17,15  L 16,15  L 16,16  L 17,16  Z  " style="fill:rgb(190, 63, 74); fill-opacity:1.000; stroke:none;" />
 <path d="  M 19,22  L 19,21  L 17,21  L 17,22  Z  " style="fill:rgb(190, 63, 74); fill-opacity:1.000; stroke:none;" />
 <path d="  M 20,14  L 20,15  L 22,15  L 22,14  L 23,14  L 23,13  L 21,13  L 21,14  Z  " style="fill:rgb(190, 63, 74); fill-opacity:1.000; stroke:none;" />
 <path d="  M 13,15  L 13,14  L 12,14  L 12,15  Z  " style="fill:rgb(78, 17, 22); fill-opacity:1.000; stroke:none;" />
 <path d="  M 13,17  L 12,17  L 12,18  L 13,18  Z  " style="fill:rgb(78, 17, 22); fill-opacity:1.000; stroke:none;" />
 <path d="  M 13,21  L 12,21  L 12,22  L 13,22  Z  " style="fill:rgb(78, 17, 22); fill-opacity:1.000; stroke:none;" />
 <path d="  M 14,14  L 14,13  L 13,13  L 13,14  Z  " style="fill:rgb(78, 17, 22); fill-opacity:1.000; stroke:none;" />
 <path d="  M 13,17  L 14,17  L 14,15  L 13,15  Z  " style="fill:rgb(78, 17, 22); fill-opacity:1.000; stroke:none;" />
 <path d="  M 13,18  L 13,20  L 14,20  L 14,19  L 15,19  L 15,18  Z  " style="fill:rgb(78, 17, 22); fill-opacity:1.000; stroke:none;" />
 <path d="  M 17,14  L 14,14  L 14,15  L 17,15  Z  " style="fill:rgb(78, 17, 22); fill-opacity:1.000; stroke:none;" />
 <path d="  M 15,20  L 14,20  L 14,21  L 15,21  Z  " style="fill:rgb(78, 17, 22); fill-opacity:1.000; stroke:none;" />
 <path d="  M 17,18  L 17,19  L 19,19  L 19,18  Z  " style="fill:rgb(78, 17, 22); fill-opacity:1.000; stroke:none;" />
</svg>
