<?xml version="1.0" encoding="UTF-8" standalone="no"?>
<!DOCTYPE svg PUBLIC "-//W3C//DTD SVG 1.1//EN" 
  "http://www.w3.org/Graphics/SVG/1.1/DTD/svg11.dtd">
<svg width="32" height="32"
	 xmlns="http://www.w3.org/2000/svg" version="1.1">
 <path d="  M 6,22  L 7,22  L 7,11  L 6,11  Z  " style="fill:rgb(36, 31, 32); fill-opacity:1.000; stroke:none;" />
 <path d="  M 7,11  L 8,11  L 8,9  L 7,9  Z  " style="fill:rgb(36, 31, 32); fill-opacity:1.000; stroke:none;" />
 <path d="  M 7,22  L 7,23  L 8,23  L 8,22  Z  " style="fill:rgb(36, 31, 32); fill-opacity:1.000; stroke:none;" />
 <path d="  M 9,8  L 8,8  L 8,9  L 9,9  Z  " style="fill:rgb(36, 31, 32); fill-opacity:1.000; stroke:none;" />
 <path d="  M 9,24  L 9,23  L 8,23  L 8,24  Z  " style="fill:rgb(36, 31, 32); fill-opacity:1.000; stroke:none;" />
 <path d="  M 9,7  L 9,8  L 11,8  L 11,7  Z  " style="fill:rgb(36, 31, 32); fill-opacity:1.000; stroke:none;" />
 <path d="  M 11,15  L 10,15  L 10,18  L 11,18  Z  " style="fill:rgb(36, 31, 32); fill-opacity:1.000; stroke:none;" />
 <path d="  M 11,6  L 11,7  L 21,7  L 21,6  Z  " style="fill:rgb(36, 31, 32); fill-opacity:1.000; stroke:none;" />
 <path d="  M 14,15  L 14,14  L 11,14  L 11,15  Z  " style="fill:rgb(36, 31, 32); fill-opacity:1.000; stroke:none;" />
 <path d="  M 12,18  L 11,18  L 11,22  L 12,22  Z  " style="fill:rgb(36, 31, 32); fill-opacity:1.000; stroke:none;" />
 <path d="  M 18,14  L 18,15  L 21,15  L 21,14  Z  " style="fill:rgb(36, 31, 32); fill-opacity:1.000; stroke:none;" />
 <path d="  M 22,15  L 21,15  L 21,18  L 22,18  Z  " style="fill:rgb(36, 31, 32); fill-opacity:1.000; stroke:none;" />
 <path d="  M 7,12  L 8,12  L 8,11  L 7,11  Z  " style="fill:rgb(71, 62, 63); fill-opacity:1.000; stroke:none;" />
 <path d="  M 8,22  L 8,21  L 7,21  L 7,22  Z  " style="fill:rgb(71, 62, 63); fill-opacity:1.000; stroke:none;" />
 <path d="  M 9,10  L 9,9  L 8,9  L 8,10  Z  " style="fill:rgb(71, 62, 63); fill-opacity:1.000; stroke:none;" />
 <path d="  M 8,22  L 8,23  L 11,23  L 11,21  L 10,21  L 10,22  Z  " style="fill:rgb(71, 62, 63); fill-opacity:1.000; stroke:none;" />
 <path d="  M 10,8  L 9,8  L 9,9  L 10,9  Z  " style="fill:rgb(71, 62, 63); fill-opacity:1.000; stroke:none;" />
 <path d="  M 11,7  L 11,8  L 12,8  L 12,7  Z  " style="fill:rgb(71, 62, 63); fill-opacity:1.000; stroke:none;" />
 <path d="  M 20,10  L 19,10  L 19,13  L 18,13  L 18,14  L 21,14  L 21,15  L 22,15  L 22,19  L 21,19  L 21,21  L 22,21  L 22,22  L 24,22  L 24,20  L 25,20  L 25,12  L 24,12  L 24,10  L 23,10  L 23,9  L 22,9  L 22,8  L 20,8  Z  " style="fill:rgb(71, 62, 63); fill-opacity:1.000; stroke:none;" />
 <path d="  M 7,12  L 7,21  L 8,21  L 8,22  L 10,22  L 10,21  L 11,21  L 11,18  L 10,18  L 10,15  L 11,15  L 11,14  L 14,14  L 14,15  L 15,15  L 15,17  L 16,17  L 16,18  L 17,18  L 17,17  L 18,17  L 18,13  L 19,13  L 19,10  L 20,10  L 20,7  L 12,7  L 12,8  L 10,8  L 10,9  L 9,9  L 9,10  L 8,10  L 8,12  Z  M 15,9  L 15,10  L 13,10  L 13,11  L 12,11  L 12,12  L 11,12  L 11,11  L 10,11  L 10,10  L 11,10  L 11,9  Z  " style="fill:rgb(77, 73, 77); fill-opacity:1.000; stroke:none;" />
 <path d="  M 22,19  L 22,18  L 21,18  L 21,19  Z  " style="fill:rgb(77, 73, 77); fill-opacity:1.000; stroke:none;" />
 <path d="  M 11,23  L 9,23  L 9,24  L 11,24  Z  " style="fill:rgb(23, 17, 17); fill-opacity:1.000; stroke:none;" />
 <path d="  M 11,15  L 11,18  L 12,18  L 12,22  L 20,22  L 20,23  L 21,23  L 21,15  L 18,15  L 18,17  L 17,17  L 17,18  L 15,18  L 15,17  L 14,17  L 14,15  Z  " style="fill:rgb(23, 17, 17); fill-opacity:1.000; stroke:none;" />
 <path d="  M 12,22  L 11,22  L 11,23  L 12,23  Z  " style="fill:rgb(23, 17, 17); fill-opacity:1.000; stroke:none;" />
 <path d="  M 21,7  L 21,8  L 23,8  L 23,7  Z  " style="fill:rgb(23, 17, 17); fill-opacity:1.000; stroke:none;" />
 <path d="  M 24,24  L 24,23  L 21,23  L 21,24  Z  " style="fill:rgb(23, 17, 17); fill-opacity:1.000; stroke:none;" />
 <path d="  M 24,8  L 23,8  L 23,9  L 24,9  Z  " style="fill:rgb(23, 17, 17); fill-opacity:1.000; stroke:none;" />
 <path d="  M 25,9  L 24,9  L 24,11  L 25,11  Z  " style="fill:rgb(23, 17, 17); fill-opacity:1.000; stroke:none;" />
 <path d="  M 25,23  L 25,22  L 24,22  L 24,23  Z  " style="fill:rgb(23, 17, 17); fill-opacity:1.000; stroke:none;" />
 <path d="  M 26,22  L 26,11  L 25,11  L 25,22  Z  " style="fill:rgb(23, 17, 17); fill-opacity:1.000; stroke:none;" />
 <path d="  M 10,10  L 10,11  L 11,11  L 11,10  Z  " style="fill:rgb(93, 86, 93); fill-opacity:1.000; stroke:none;" />
 <path d="  M 11,9  L 11,10  L 12,10  L 12,9  Z  " style="fill:rgb(93, 86, 93); fill-opacity:1.000; stroke:none;" />
 <path d="  M 12,11  L 11,11  L 11,12  L 12,12  Z  " style="fill:rgb(93, 86, 93); fill-opacity:1.000; stroke:none;" />
 <path d="  M 12,10  L 12,11  L 13,11  L 13,10  Z  " style="fill:rgb(93, 86, 93); fill-opacity:1.000; stroke:none;" />
 <path d="  M 14,10  L 15,10  L 15,9  L 14,9  Z  " style="fill:rgb(93, 86, 93); fill-opacity:1.000; stroke:none;" />
 <path d="  M 14,17  L 15,17  L 15,15  L 14,15  Z  " style="fill:rgb(93, 86, 93); fill-opacity:1.000; stroke:none;" />
 <path d="  M 16,17  L 15,17  L 15,18  L 16,18  Z  " style="fill:rgb(93, 86, 93); fill-opacity:1.000; stroke:none;" />
 <path d="  M 12,10  L 11,10  L 11,11  L 12,11  Z  " style="fill:rgb(118, 106, 118); fill-opacity:1.000; stroke:none;" />
 <path d="  M 14,10  L 14,9  L 12,9  L 12,10  Z  " style="fill:rgb(118, 106, 118); fill-opacity:1.000; stroke:none;" />
 <path d="  M 21,7  L 20,7  L 20,8  L 21,8  Z  " style="fill:rgb(53, 45, 45); fill-opacity:1.000; stroke:none;" />
 <path d="  M 21,23  L 24,23  L 24,22  L 22,22  L 22,21  L 21,21  Z  " style="fill:rgb(53, 45, 45); fill-opacity:1.000; stroke:none;" />
 <path d="  M 23,8  L 22,8  L 22,9  L 23,9  Z  " style="fill:rgb(53, 45, 45); fill-opacity:1.000; stroke:none;" />
 <path d="  M 23,9  L 23,10  L 24,10  L 24,9  Z  " style="fill:rgb(53, 45, 45); fill-opacity:1.000; stroke:none;" />
 <path d="  M 25,12  L 25,11  L 24,11  L 24,12  Z  " style="fill:rgb(53, 45, 45); fill-opacity:1.000; stroke:none;" />
 <path d="  M 24,22  L 25,22  L 25,20  L 24,20  Z  " style="fill:rgb(53, 45, 45); fill-opacity:1.000; stroke:none;" />
</svg>
