<?xml version="1.0" encoding="UTF-8" standalone="no"?>
<!DOCTYPE svg PUBLIC "-//W3C//DTD SVG 1.1//EN" 
  "http://www.w3.org/Graphics/SVG/1.1/DTD/svg11.dtd">
<svg width="32" height="32"
	 xmlns="http://www.w3.org/2000/svg" version="1.1">
 <path d="  M 5,11  L 4,11  L 4,14  L 5,14  Z  " style="fill:rgb(73, 103, 63); fill-opacity:1.000; stroke:none;" />
 <path d="  M 5,10  L 5,11  L 6,11  L 6,10  Z  " style="fill:rgb(73, 103, 63); fill-opacity:1.000; stroke:none;" />
 <path d="  M 6,15  L 6,14  L 5,14  L 5,15  Z  " style="fill:rgb(73, 103, 63); fill-opacity:1.000; stroke:none;" />
 <path d="  M 6,17  L 5,17  L 5,19  L 6,19  Z  " style="fill:rgb(73, 103, 63); fill-opacity:1.000; stroke:none;" />
 <path d="  M 9,10  L 9,9  L 6,9  L 6,10  Z  " style="fill:rgb(73, 103, 63); fill-opacity:1.000; stroke:none;" />
 <path d="  M 7,26  L 6,26  L 6,27  L 9,27  L 9,26  L 8,26  L 8,24  L 7,24  Z  " style="fill:rgb(73, 103, 63); fill-opacity:1.000; stroke:none;" />
 <path d="  M 7,16  L 8,16  L 8,15  L 7,15  Z  " style="fill:rgb(73, 103, 63); fill-opacity:1.000; stroke:none;" />
 <path d="  M 9,11  L 10,11  L 10,10  L 9,10  Z  " style="fill:rgb(73, 103, 63); fill-opacity:1.000; stroke:none;" />
 <path d="  M 10,26  L 10,25  L 9,25  L 9,26  Z  " style="fill:rgb(73, 103, 63); fill-opacity:1.000; stroke:none;" />
 <path d="  M 12,11  L 10,11  L 10,12  L 12,12  Z  " style="fill:rgb(73, 103, 63); fill-opacity:1.000; stroke:none;" />
 <path d="  M 10,14  L 11,14  L 11,13  L 10,13  Z  " style="fill:rgb(73, 103, 63); fill-opacity:1.000; stroke:none;" />
 <path d="  M 11,25  L 11,24  L 10,24  L 10,25  Z  " style="fill:rgb(73, 103, 63); fill-opacity:1.000; stroke:none;" />
 <path d="  M 16,25  L 16,24  L 14,24  L 14,25  L 13,25  L 13,26  L 14,26  L 14,27  L 15,27  L 15,25  Z  " style="fill:rgb(73, 103, 63); fill-opacity:1.000; stroke:none;" />
 <path d="  M 19,11  L 19,10  L 18,10  L 18,11  Z  " style="fill:rgb(73, 103, 63); fill-opacity:1.000; stroke:none;" />
 <path d="  M 18,20  L 19,20  L 19,19  L 18,19  Z  " style="fill:rgb(73, 103, 63); fill-opacity:1.000; stroke:none;" />
 <path d="  M 19,11  L 19,13  L 20,13  L 20,11  Z  " style="fill:rgb(73, 103, 63); fill-opacity:1.000; stroke:none;" />
 <path d="  M 19,19  L 20,19  L 20,18  L 19,18  Z  " style="fill:rgb(73, 103, 63); fill-opacity:1.000; stroke:none;" />
 <path d="  M 21,22  L 20,22  L 20,23  L 21,23  Z  " style="fill:rgb(73, 103, 63); fill-opacity:1.000; stroke:none;" />
 <path d="  M 21,9  L 21,10  L 22,10  L 22,9  Z  " style="fill:rgb(73, 103, 63); fill-opacity:1.000; stroke:none;" />
 <path d="  M 23,6  L 22,6  L 22,9  L 23,9  Z  " style="fill:rgb(73, 103, 63); fill-opacity:1.000; stroke:none;" />
 <path d="  M 22,10  L 22,11  L 23,11  L 23,10  Z  " style="fill:rgb(73, 103, 63); fill-opacity:1.000; stroke:none;" />
 <path d="  M 24,22  L 24,20  L 23,20  L 23,21  L 22,21  L 22,22  Z  " style="fill:rgb(73, 103, 63); fill-opacity:1.000; stroke:none;" />
 <path d="  M 24,5  L 23,5  L 23,6  L 24,6  Z  " style="fill:rgb(73, 103, 63); fill-opacity:1.000; stroke:none;" />
 <path d="  M 24,19  L 24,18  L 23,18  L 23,19  Z  " style="fill:rgb(73, 103, 63); fill-opacity:1.000; stroke:none;" />
 <path d="  M 25,23  L 23,23  L 23,24  L 25,24  Z  " style="fill:rgb(73, 103, 63); fill-opacity:1.000; stroke:none;" />
 <path d="  M 24,4  L 24,5  L 26,5  L 26,4  Z  " style="fill:rgb(73, 103, 63); fill-opacity:1.000; stroke:none;" />
 <path d="  M 25,12  L 25,11  L 24,11  L 24,12  Z  " style="fill:rgb(73, 103, 63); fill-opacity:1.000; stroke:none;" />
 <path d="  M 24,18  L 25,18  L 25,17  L 24,17  Z  " style="fill:rgb(73, 103, 63); fill-opacity:1.000; stroke:none;" />
 <path d="  M 25,20  L 25,19  L 24,19  L 24,20  Z  " style="fill:rgb(73, 103, 63); fill-opacity:1.000; stroke:none;" />
 <path d="  M 25,10  L 25,11  L 26,11  L 26,10  Z  " style="fill:rgb(73, 103, 63); fill-opacity:1.000; stroke:none;" />
 <path d="  M 26,16  L 26,15  L 25,15  L 25,16  Z  " style="fill:rgb(73, 103, 63); fill-opacity:1.000; stroke:none;" />
 <path d="  M 25,20  L 25,23  L 26,23  L 26,20  Z  " style="fill:rgb(73, 103, 63); fill-opacity:1.000; stroke:none;" />
 <path d="  M 27,5  L 26,5  L 26,6  L 27,6  Z  " style="fill:rgb(73, 103, 63); fill-opacity:1.000; stroke:none;" />
 <path d="  M 27,8  L 26,8  L 26,10  L 27,10  Z  " style="fill:rgb(73, 103, 63); fill-opacity:1.000; stroke:none;" />
 <path d="  M 5,13  L 6,13  L 6,11  L 5,11  Z  " style="fill:rgb(176, 200, 58); fill-opacity:1.000; stroke:none;" />
 <path d="  M 8,11  L 8,10  L 6,10  L 6,11  Z  " style="fill:rgb(176, 200, 58); fill-opacity:1.000; stroke:none;" />
 <path d="  M 6,13  L 6,14  L 7,14  L 7,13  Z  " style="fill:rgb(176, 200, 58); fill-opacity:1.000; stroke:none;" />
 <path d="  M 7,14  L 7,15  L 9,15  L 9,14  Z  " style="fill:rgb(176, 200, 58); fill-opacity:1.000; stroke:none;" />
 <path d="  M 7,19  L 8,19  L 8,18  L 7,18  Z  " style="fill:rgb(176, 200, 58); fill-opacity:1.000; stroke:none;" />
 <path d="  M 9,13  L 9,11  L 8,11  L 8,13  Z  " style="fill:rgb(176, 200, 58); fill-opacity:1.000; stroke:none;" />
 <path d="  M 9,18  L 9,16  L 8,16  L 8,18  Z  " style="fill:rgb(176, 200, 58); fill-opacity:1.000; stroke:none;" />
 <path d="  M 9,19  L 8,19  L 8,21  L 9,21  Z  " style="fill:rgb(176, 200, 58); fill-opacity:1.000; stroke:none;" />
 <path d="  M 9,16  L 10,16  L 10,15  L 9,15  Z  " style="fill:rgb(176, 200, 58); fill-opacity:1.000; stroke:none;" />
 <path d="  M 13,15  L 13,14  L 10,14  L 10,15  Z  " style="fill:rgb(176, 200, 58); fill-opacity:1.000; stroke:none;" />
 <path d="  M 11,17  L 11,16  L 10,16  L 10,17  Z  " style="fill:rgb(176, 200, 58); fill-opacity:1.000; stroke:none;" />
 <path d="  M 11,22  L 11,21  L 13,21  L 13,20  L 10,20  L 10,22  Z  " style="fill:rgb(176, 200, 58); fill-opacity:1.000; stroke:none;" />
 <path d="  M 14,18  L 13,18  L 13,19  L 14,19  Z  " style="fill:rgb(176, 200, 58); fill-opacity:1.000; stroke:none;" />
 <path d="  M 14,16  L 15,16  L 15,15  L 14,15  Z  " style="fill:rgb(176, 200, 58); fill-opacity:1.000; stroke:none;" />
 <path d="  M 15,18  L 15,17  L 14,17  L 14,18  Z  " style="fill:rgb(176, 200, 58); fill-opacity:1.000; stroke:none;" />
 <path d="  M 15,19  L 14,19  L 14,20  L 15,20  Z  " style="fill:rgb(176, 200, 58); fill-opacity:1.000; stroke:none;" />
 <path d="  M 16,18  L 15,18  L 15,19  L 16,19  Z  " style="fill:rgb(176, 200, 58); fill-opacity:1.000; stroke:none;" />
 <path d="  M 17,15  L 16,15  L 16,16  L 17,16  Z  " style="fill:rgb(176, 200, 58); fill-opacity:1.000; stroke:none;" />
 <path d="  M 16,18  L 17,18  L 17,17  L 16,17  Z  " style="fill:rgb(176, 200, 58); fill-opacity:1.000; stroke:none;" />
 <path d="  M 17,13  L 18,13  L 18,12  L 19,12  L 19,11  L 17,11  Z  " style="fill:rgb(176, 200, 58); fill-opacity:1.000; stroke:none;" />
 <path d="  M 18,14  L 17,14  L 17,15  L 18,15  Z  " style="fill:rgb(176, 200, 58); fill-opacity:1.000; stroke:none;" />
 <path d="  M 18,17  L 18,16  L 17,16  L 17,17  Z  " style="fill:rgb(176, 200, 58); fill-opacity:1.000; stroke:none;" />
 <path d="  M 18,19  L 18,18  L 17,18  L 17,19  Z  " style="fill:rgb(176, 200, 58); fill-opacity:1.000; stroke:none;" />
 <path d="  M 19,14  L 19,13  L 18,13  L 18,14  Z  " style="fill:rgb(176, 200, 58); fill-opacity:1.000; stroke:none;" />
 <path d="  M 18,17  L 18,18  L 19,18  L 19,17  Z  " style="fill:rgb(176, 200, 58); fill-opacity:1.000; stroke:none;" />
 <path d="  M 19,15  L 20,15  L 20,14  L 19,14  Z  " style="fill:rgb(176, 200, 58); fill-opacity:1.000; stroke:none;" />
 <path d="  M 22,14  L 22,13  L 20,13  L 20,14  Z  " style="fill:rgb(176, 200, 58); fill-opacity:1.000; stroke:none;" />
 <path d="  M 25,9  L 26,9  L 26,6  L 25,6  L 25,8  L 24,8  L 24,6  L 23,6  L 23,9  L 24,9  L 24,10  L 25,10  Z  " style="fill:rgb(176, 200, 58); fill-opacity:1.000; stroke:none;" />
 <path d="  M 25,6  L 25,5  L 24,5  L 24,6  Z  " style="fill:rgb(176, 200, 58); fill-opacity:1.000; stroke:none;" />
 <path d="  M 6,14  L 6,13  L 5,13  L 5,14  Z  " style="fill:rgb(107, 134, 62); fill-opacity:1.000; stroke:none;" />
 <path d="  M 7,15  L 7,14  L 6,14  L 6,15  Z  " style="fill:rgb(107, 134, 62); fill-opacity:1.000; stroke:none;" />
 <path d="  M 7,26  L 7,25  L 6,25  L 6,26  Z  " style="fill:rgb(107, 134, 62); fill-opacity:1.000; stroke:none;" />
 <path d="  M 8,16  L 7,16  L 7,17  L 8,17  Z  " style="fill:rgb(107, 134, 62); fill-opacity:1.000; stroke:none;" />
 <path d="  M 7,22  L 7,24  L 8,24  L 8,23  L 9,23  L 9,22  Z  " style="fill:rgb(107, 134, 62); fill-opacity:1.000; stroke:none;" />
 <path d="  M 9,11  L 9,10  L 8,10  L 8,11  Z  " style="fill:rgb(107, 134, 62); fill-opacity:1.000; stroke:none;" />
 <path d="  M 9,15  L 8,15  L 8,16  L 9,16  Z  " style="fill:rgb(107, 134, 62); fill-opacity:1.000; stroke:none;" />
 <path d="  M 8,25  L 10,25  L 10,24  L 8,24  Z  " style="fill:rgb(107, 134, 62); fill-opacity:1.000; stroke:none;" />
 <path d="  M 10,11  L 9,11  L 9,15  L 10,15  Z  " style="fill:rgb(107, 134, 62); fill-opacity:1.000; stroke:none;" />
 <path d="  M 11,23  L 10,23  L 10,24  L 11,24  Z  " style="fill:rgb(107, 134, 62); fill-opacity:1.000; stroke:none;" />
 <path d="  M 13,24  L 13,25  L 14,25  L 14,24  Z  " style="fill:rgb(107, 134, 62); fill-opacity:1.000; stroke:none;" />
 <path d="  M 14,24  L 15,24  L 15,23  L 14,23  Z  " style="fill:rgb(107, 134, 62); fill-opacity:1.000; stroke:none;" />
 <path d="  M 15,19  L 15,20  L 16,20  L 16,19  Z  " style="fill:rgb(107, 134, 62); fill-opacity:1.000; stroke:none;" />
 <path d="  M 16,13  L 17,13  L 17,11  L 16,11  Z  " style="fill:rgb(107, 134, 62); fill-opacity:1.000; stroke:none;" />
 <path d="  M 17,19  L 17,18  L 16,18  L 16,19  Z  " style="fill:rgb(107, 134, 62); fill-opacity:1.000; stroke:none;" />
 <path d="  M 17,11  L 18,11  L 18,10  L 17,10  Z  " style="fill:rgb(107, 134, 62); fill-opacity:1.000; stroke:none;" />
 <path d="  M 18,13  L 17,13  L 17,14  L 18,14  Z  " style="fill:rgb(107, 134, 62); fill-opacity:1.000; stroke:none;" />
 <path d="  M 18,20  L 18,19  L 17,19  L 17,20  Z  " style="fill:rgb(107, 134, 62); fill-opacity:1.000; stroke:none;" />
 <path d="  M 18,13  L 19,13  L 19,12  L 18,12  Z  " style="fill:rgb(107, 134, 62); fill-opacity:1.000; stroke:none;" />
 <path d="  M 19,16  L 18,16  L 18,17  L 19,17  Z  " style="fill:rgb(107, 134, 62); fill-opacity:1.000; stroke:none;" />
 <path d="  M 19,19  L 19,18  L 18,18  L 18,19  Z  " style="fill:rgb(107, 134, 62); fill-opacity:1.000; stroke:none;" />
 <path d="  M 19,14  L 20,14  L 20,13  L 19,13  Z  " style="fill:rgb(107, 134, 62); fill-opacity:1.000; stroke:none;" />
 <path d="  M 20,17  L 19,17  L 19,18  L 20,18  Z  " style="fill:rgb(107, 134, 62); fill-opacity:1.000; stroke:none;" />
 <path d="  M 20,22  L 19,22  L 19,23  L 20,23  Z  " style="fill:rgb(107, 134, 62); fill-opacity:1.000; stroke:none;" />
 <path d="  M 21,12  L 20,12  L 20,13  L 21,13  Z  " style="fill:rgb(107, 134, 62); fill-opacity:1.000; stroke:none;" />
 <path d="  M 20,21  L 20,22  L 22,22  L 22,21  L 23,21  L 23,20  L 24,20  L 24,19  L 23,19  L 23,18  L 22,18  L 22,20  L 21,20  L 21,21  Z  " style="fill:rgb(107, 134, 62); fill-opacity:1.000; stroke:none;" />
 <path d="  M 23,10  L 23,11  L 25,11  L 25,10  L 24,10  L 24,9  L 22,9  L 22,10  Z  " style="fill:rgb(107, 134, 62); fill-opacity:1.000; stroke:none;" />
 <path d="  M 22,12  L 23,12  L 23,11  L 22,11  Z  " style="fill:rgb(107, 134, 62); fill-opacity:1.000; stroke:none;" />
 <path d="  M 23,18  L 24,18  L 24,16  L 23,16  Z  " style="fill:rgb(107, 134, 62); fill-opacity:1.000; stroke:none;" />
 <path d="  M 25,23  L 25,21  L 24,21  L 24,22  L 23,22  L 23,23  Z  " style="fill:rgb(107, 134, 62); fill-opacity:1.000; stroke:none;" />
 <path d="  M 24,13  L 25,13  L 25,12  L 24,12  Z  " style="fill:rgb(107, 134, 62); fill-opacity:1.000; stroke:none;" />
 <path d="  M 26,15  L 26,13  L 25,13  L 25,14  L 24,14  L 24,15  Z  " style="fill:rgb(107, 134, 62); fill-opacity:1.000; stroke:none;" />
 <path d="  M 24,18  L 24,19  L 25,19  L 25,18  Z  " style="fill:rgb(107, 134, 62); fill-opacity:1.000; stroke:none;" />
 <path d="  M 25,5  L 25,6  L 26,6  L 26,5  Z  " style="fill:rgb(107, 134, 62); fill-opacity:1.000; stroke:none;" />
 <path d="  M 26,10  L 26,9  L 25,9  L 25,10  Z  " style="fill:rgb(107, 134, 62); fill-opacity:1.000; stroke:none;" />
 <path d="  M 26,8  L 27,8  L 27,6  L 26,6  Z  " style="fill:rgb(107, 134, 62); fill-opacity:1.000; stroke:none;" />
 <path d="  M 6,20  L 6,19  L 5,19  L 5,20  Z  " style="fill:rgb(154, 85, 0); fill-opacity:1.000; stroke:none;" />
 <path d="  M 12,11  L 12,12  L 14,12  L 14,11  Z  " style="fill:rgb(154, 85, 0); fill-opacity:1.000; stroke:none;" />
 <path d="  M 16,11  L 16,10  L 14,10  L 14,11  Z  " style="fill:rgb(154, 85, 0); fill-opacity:1.000; stroke:none;" />
 <path d="  M 16,9  L 16,10  L 21,10  L 21,9  Z  " style="fill:rgb(154, 85, 0); fill-opacity:1.000; stroke:none;" />
 <path d="  M 25,12  L 25,13  L 26,13  L 26,12  Z  " style="fill:rgb(154, 85, 0); fill-opacity:1.000; stroke:none;" />
 <path d="  M 26,13  L 26,14  L 27,14  L 27,13  Z  " style="fill:rgb(154, 85, 0); fill-opacity:1.000; stroke:none;" />
 <path d="  M 6,22  L 6,20  L 5,20  L 5,22  Z  " style="fill:rgb(109, 55, 1); fill-opacity:1.000; stroke:none;" />
 <path d="  M 12,26  L 10,26  L 10,27  L 12,27  Z  " style="fill:rgb(109, 55, 1); fill-opacity:1.000; stroke:none;" />
 <path d="  M 16,26  L 18,26  L 18,25  L 16,25  Z  " style="fill:rgb(109, 55, 1); fill-opacity:1.000; stroke:none;" />
 <path d="  M 20,25  L 20,24  L 18,24  L 18,25  Z  " style="fill:rgb(109, 55, 1); fill-opacity:1.000; stroke:none;" />
 <path d="  M 21,24  L 21,23  L 20,23  L 20,24  Z  " style="fill:rgb(109, 55, 1); fill-opacity:1.000; stroke:none;" />
 <path d="  M 22,22  L 21,22  L 21,23  L 22,23  Z  " style="fill:rgb(109, 55, 1); fill-opacity:1.000; stroke:none;" />
 <path d="  M 26,18  L 27,18  L 27,14  L 26,14  Z  " style="fill:rgb(109, 55, 1); fill-opacity:1.000; stroke:none;" />
 <path d="  M 5,25  L 5,27  L 6,27  L 6,25  Z  " style="fill:rgb(49, 82, 55); fill-opacity:1.000; stroke:none;" />
 <path d="  M 7,15  L 6,15  L 6,17  L 7,17  Z  " style="fill:rgb(49, 82, 55); fill-opacity:1.000; stroke:none;" />
 <path d="  M 6,25  L 7,25  L 7,22  L 6,22  Z  " style="fill:rgb(49, 82, 55); fill-opacity:1.000; stroke:none;" />
 <path d="  M 6,27  L 6,28  L 9,28  L 9,27  Z  " style="fill:rgb(49, 82, 55); fill-opacity:1.000; stroke:none;" />
 <path d="  M 8,25  L 8,26  L 9,26  L 9,25  Z  " style="fill:rgb(49, 82, 55); fill-opacity:1.000; stroke:none;" />
 <path d="  M 9,27  L 10,27  L 10,26  L 9,26  Z  " style="fill:rgb(49, 82, 55); fill-opacity:1.000; stroke:none;" />
 <path d="  M 11,13  L 11,12  L 10,12  L 10,13  Z  " style="fill:rgb(49, 82, 55); fill-opacity:1.000; stroke:none;" />
 <path d="  M 14,26  L 12,26  L 12,27  L 14,27  Z  " style="fill:rgb(49, 82, 55); fill-opacity:1.000; stroke:none;" />
 <path d="  M 15,27  L 14,27  L 14,28  L 15,28  Z  " style="fill:rgb(49, 82, 55); fill-opacity:1.000; stroke:none;" />
 <path d="  M 15,25  L 15,27  L 16,27  L 16,25  Z  " style="fill:rgb(49, 82, 55); fill-opacity:1.000; stroke:none;" />
 <path d="  M 22,24  L 23,24  L 23,22  L 22,22  Z  " style="fill:rgb(49, 82, 55); fill-opacity:1.000; stroke:none;" />
 <path d="  M 23,25  L 25,25  L 25,24  L 23,24  Z  " style="fill:rgb(49, 82, 55); fill-opacity:1.000; stroke:none;" />
 <path d="  M 25,21  L 25,20  L 24,20  L 24,21  Z  " style="fill:rgb(49, 82, 55); fill-opacity:1.000; stroke:none;" />
 <path d="  M 26,12  L 26,11  L 25,11  L 25,12  Z  " style="fill:rgb(49, 82, 55); fill-opacity:1.000; stroke:none;" />
 <path d="  M 26,18  L 25,18  L 25,20  L 26,20  Z  " style="fill:rgb(49, 82, 55); fill-opacity:1.000; stroke:none;" />
 <path d="  M 26,23  L 25,23  L 25,24  L 26,24  Z  " style="fill:rgb(49, 82, 55); fill-opacity:1.000; stroke:none;" />
 <path d="  M 26,11  L 27,11  L 27,10  L 26,10  Z  " style="fill:rgb(49, 82, 55); fill-opacity:1.000; stroke:none;" />
 <path d="  M 27,20  L 26,20  L 26,23  L 27,23  Z  " style="fill:rgb(49, 82, 55); fill-opacity:1.000; stroke:none;" />
 <path d="  M 27,10  L 28,10  L 28,6  L 27,6  Z  " style="fill:rgb(49, 82, 55); fill-opacity:1.000; stroke:none;" />
 <path d="  M 7,11  L 6,11  L 6,12  L 7,12  Z  " style="fill:rgb(210, 233, 98); fill-opacity:1.000; stroke:none;" />
 <path d="  M 7,13  L 8,13  L 8,12  L 7,12  Z  " style="fill:rgb(210, 233, 98); fill-opacity:1.000; stroke:none;" />
 <path d="  M 9,18  L 10,18  L 10,17  L 9,17  Z  " style="fill:rgb(210, 233, 98); fill-opacity:1.000; stroke:none;" />
 <path d="  M 12,18  L 10,18  L 10,19  L 12,19  Z  " style="fill:rgb(210, 233, 98); fill-opacity:1.000; stroke:none;" />
 <path d="  M 13,16  L 11,16  L 11,17  L 12,17  L 12,18  L 13,18  Z  " style="fill:rgb(210, 233, 98); fill-opacity:1.000; stroke:none;" />
 <path d="  M 16,17  L 16,16  L 15,16  L 15,17  Z  " style="fill:rgb(210, 233, 98); fill-opacity:1.000; stroke:none;" />
 <path d="  M 25,8  L 25,6  L 24,6  L 24,8  Z  " style="fill:rgb(210, 233, 98); fill-opacity:1.000; stroke:none;" />
 <path d="  M 6,13  L 7,13  L 7,12  L 6,12  Z  " style="fill:rgb(196, 217, 81); fill-opacity:1.000; stroke:none;" />
 <path d="  M 7,12  L 8,12  L 8,11  L 7,11  Z  " style="fill:rgb(196, 217, 81); fill-opacity:1.000; stroke:none;" />
 <path d="  M 7,13  L 7,14  L 9,14  L 9,13  Z  " style="fill:rgb(196, 217, 81); fill-opacity:1.000; stroke:none;" />
 <path d="  M 9,19  L 9,20  L 12,20  L 12,19  L 10,19  L 10,18  L 8,18  L 8,19  Z  " style="fill:rgb(196, 217, 81); fill-opacity:1.000; stroke:none;" />
 <path d="  M 9,16  L 9,17  L 10,17  L 10,16  Z  " style="fill:rgb(196, 217, 81); fill-opacity:1.000; stroke:none;" />
 <path d="  M 10,15  L 10,16  L 11,16  L 11,15  Z  " style="fill:rgb(196, 217, 81); fill-opacity:1.000; stroke:none;" />
 <path d="  M 10,17  L 10,18  L 12,18  L 12,17  Z  " style="fill:rgb(196, 217, 81); fill-opacity:1.000; stroke:none;" />
 <path d="  M 12,16  L 13,16  L 13,15  L 12,15  Z  " style="fill:rgb(196, 217, 81); fill-opacity:1.000; stroke:none;" />
 <path d="  M 12,18  L 12,19  L 13,19  L 13,18  Z  " style="fill:rgb(196, 217, 81); fill-opacity:1.000; stroke:none;" />
 <path d="  M 13,15  L 14,15  L 14,14  L 13,14  Z  " style="fill:rgb(196, 217, 81); fill-opacity:1.000; stroke:none;" />
 <path d="  M 14,17  L 15,17  L 15,16  L 13,16  L 13,18  L 14,18  Z  " style="fill:rgb(196, 217, 81); fill-opacity:1.000; stroke:none;" />
 <path d="  M 15,15  L 15,16  L 16,16  L 16,15  Z  " style="fill:rgb(196, 217, 81); fill-opacity:1.000; stroke:none;" />
 <path d="  M 16,17  L 15,17  L 15,18  L 16,18  Z  " style="fill:rgb(196, 217, 81); fill-opacity:1.000; stroke:none;" />
 <path d="  M 16,17  L 17,17  L 17,16  L 16,16  Z  " style="fill:rgb(196, 217, 81); fill-opacity:1.000; stroke:none;" />
 <path d="  M 17,18  L 18,18  L 18,17  L 17,17  Z  " style="fill:rgb(196, 217, 81); fill-opacity:1.000; stroke:none;" />
 <path d="  M 6,18  L 7,18  L 7,17  L 6,17  Z  " style="fill:rgb(175, 132, 68); fill-opacity:1.000; stroke:none;" />
 <path d="  M 6,21  L 7,21  L 7,20  L 6,20  Z  " style="fill:rgb(175, 132, 68); fill-opacity:1.000; stroke:none;" />
 <path d="  M 8,22  L 9,22  L 9,21  L 8,21  Z  " style="fill:rgb(175, 132, 68); fill-opacity:1.000; stroke:none;" />
 <path d="  M 10,23  L 9,23  L 9,24  L 10,24  Z  " style="fill:rgb(175, 132, 68); fill-opacity:1.000; stroke:none;" />
 <path d="  M 12,13  L 11,13  L 11,14  L 12,14  Z  " style="fill:rgb(175, 132, 68); fill-opacity:1.000; stroke:none;" />
 <path d="  M 11,25  L 12,25  L 12,24  L 11,24  Z  " style="fill:rgb(175, 132, 68); fill-opacity:1.000; stroke:none;" />
 <path d="  M 12,24  L 13,24  L 13,23  L 12,23  Z  " style="fill:rgb(175, 132, 68); fill-opacity:1.000; stroke:none;" />
 <path d="  M 16,23  L 15,23  L 15,24  L 16,24  Z  " style="fill:rgb(175, 132, 68); fill-opacity:1.000; stroke:none;" />
 <path d="  M 17,11  L 17,10  L 16,10  L 16,11  Z  " style="fill:rgb(175, 132, 68); fill-opacity:1.000; stroke:none;" />
 <path d="  M 18,21  L 18,20  L 16,20  L 16,22  L 17,22  L 17,21  Z  " style="fill:rgb(175, 132, 68); fill-opacity:1.000; stroke:none;" />
 <path d="  M 17,23  L 17,24  L 18,24  L 18,23  Z  " style="fill:rgb(175, 132, 68); fill-opacity:1.000; stroke:none;" />
 <path d="  M 18,23  L 19,23  L 19,22  L 18,22  Z  " style="fill:rgb(175, 132, 68); fill-opacity:1.000; stroke:none;" />
 <path d="  M 19,20  L 19,21  L 21,21  L 21,20  Z  " style="fill:rgb(175, 132, 68); fill-opacity:1.000; stroke:none;" />
 <path d="  M 22,11  L 22,10  L 21,10  L 21,11  Z  " style="fill:rgb(175, 132, 68); fill-opacity:1.000; stroke:none;" />
 <path d="  M 21,20  L 22,20  L 22,19  L 21,19  Z  " style="fill:rgb(175, 132, 68); fill-opacity:1.000; stroke:none;" />
 <path d="  M 23,11  L 23,12  L 24,12  L 24,11  Z  " style="fill:rgb(175, 132, 68); fill-opacity:1.000; stroke:none;" />
 <path d="  M 23,14  L 23,15  L 24,15  L 24,14  Z  " style="fill:rgb(175, 132, 68); fill-opacity:1.000; stroke:none;" />
 <path d="  M 24,13  L 24,14  L 25,14  L 25,13  Z  " style="fill:rgb(175, 132, 68); fill-opacity:1.000; stroke:none;" />
 <path d="  M 7,20  L 7,18  L 6,18  L 6,20  Z  " style="fill:rgb(200, 151, 58); fill-opacity:1.000; stroke:none;" />
 <path d="  M 8,20  L 7,20  L 7,22  L 8,22  Z  " style="fill:rgb(200, 151, 58); fill-opacity:1.000; stroke:none;" />
 <path d="  M 9,22  L 9,23  L 11,23  L 11,22  Z  " style="fill:rgb(200, 151, 58); fill-opacity:1.000; stroke:none;" />
 <path d="  M 11,13  L 12,13  L 12,12  L 11,12  Z  " style="fill:rgb(200, 151, 58); fill-opacity:1.000; stroke:none;" />
 <path d="  M 11,24  L 12,24  L 12,23  L 11,23  Z  " style="fill:rgb(200, 151, 58); fill-opacity:1.000; stroke:none;" />
 <path d="  M 12,13  L 12,14  L 13,14  L 13,13  Z  " style="fill:rgb(200, 151, 58); fill-opacity:1.000; stroke:none;" />
 <path d="  M 12,23  L 13,23  L 13,22  L 12,22  Z  " style="fill:rgb(200, 151, 58); fill-opacity:1.000; stroke:none;" />
 <path d="  M 13,25  L 13,24  L 12,24  L 12,25  Z  " style="fill:rgb(200, 151, 58); fill-opacity:1.000; stroke:none;" />
 <path d="  M 13,12  L 13,13  L 14,13  L 14,12  Z  " style="fill:rgb(200, 151, 58); fill-opacity:1.000; stroke:none;" />
 <path d="  M 13,22  L 14,22  L 14,21  L 13,21  Z  " style="fill:rgb(200, 151, 58); fill-opacity:1.000; stroke:none;" />
 <path d="  M 14,23  L 13,23  L 13,24  L 14,24  Z  " style="fill:rgb(200, 151, 58); fill-opacity:1.000; stroke:none;" />
 <path d="  M 15,11  L 14,11  L 14,12  L 15,12  Z  " style="fill:rgb(200, 151, 58); fill-opacity:1.000; stroke:none;" />
 <path d="  M 15,22  L 14,22  L 14,23  L 16,23  L 16,24  L 17,24  L 17,23  L 18,23  L 18,22  L 20,22  L 20,21  L 19,21  L 19,20  L 18,20  L 18,21  L 17,21  L 17,22  L 16,22  L 16,21  L 15,21  Z  " style="fill:rgb(200, 151, 58); fill-opacity:1.000; stroke:none;" />
 <path d="  M 16,19  L 16,20  L 17,20  L 17,19  Z  " style="fill:rgb(200, 151, 58); fill-opacity:1.000; stroke:none;" />
 <path d="  M 21,10  L 19,10  L 19,11  L 21,11  Z  " style="fill:rgb(200, 151, 58); fill-opacity:1.000; stroke:none;" />
 <path d="  M 19,20  L 21,20  L 21,19  L 19,19  Z  " style="fill:rgb(200, 151, 58); fill-opacity:1.000; stroke:none;" />
 <path d="  M 20,17  L 20,18  L 21,18  L 21,17  Z  " style="fill:rgb(200, 151, 58); fill-opacity:1.000; stroke:none;" />
 <path d="  M 23,16  L 22,16  L 22,15  L 21,15  L 21,17  L 22,17  L 22,18  L 23,18  Z  " style="fill:rgb(200, 151, 58); fill-opacity:1.000; stroke:none;" />
 <path d="  M 22,19  L 22,18  L 21,18  L 21,19  Z  " style="fill:rgb(200, 151, 58); fill-opacity:1.000; stroke:none;" />
 <path d="  M 22,13  L 22,15  L 23,15  L 23,13  Z  " style="fill:rgb(200, 151, 58); fill-opacity:1.000; stroke:none;" />
 <path d="  M 23,13  L 24,13  L 24,12  L 23,12  Z  " style="fill:rgb(200, 151, 58); fill-opacity:1.000; stroke:none;" />
 <path d="  M 24,16  L 24,15  L 23,15  L 23,16  Z  " style="fill:rgb(200, 151, 58); fill-opacity:1.000; stroke:none;" />
 <path d="  M 6,21  L 6,22  L 7,22  L 7,21  Z  " style="fill:rgb(157, 119, 46); fill-opacity:1.000; stroke:none;" />
 <path d="  M 9,24  L 9,23  L 8,23  L 8,24  Z  " style="fill:rgb(157, 119, 46); fill-opacity:1.000; stroke:none;" />
 <path d="  M 13,25  L 10,25  L 10,26  L 13,26  Z  " style="fill:rgb(157, 119, 46); fill-opacity:1.000; stroke:none;" />
 <path d="  M 16,25  L 18,25  L 18,24  L 16,24  Z  " style="fill:rgb(157, 119, 46); fill-opacity:1.000; stroke:none;" />
 <path d="  M 20,24  L 20,23  L 18,23  L 18,24  Z  " style="fill:rgb(157, 119, 46); fill-opacity:1.000; stroke:none;" />
 <path d="  M 25,16  L 25,15  L 24,15  L 24,16  Z  " style="fill:rgb(157, 119, 46); fill-opacity:1.000; stroke:none;" />
 <path d="  M 26,16  L 25,16  L 25,18  L 26,18  Z  " style="fill:rgb(157, 119, 46); fill-opacity:1.000; stroke:none;" />
 <path d="  M 8,17  L 7,17  L 7,18  L 8,18  Z  " style="fill:rgb(217, 170, 81); fill-opacity:1.000; stroke:none;" />
 <path d="  M 7,20  L 8,20  L 8,19  L 7,19  Z  " style="fill:rgb(217, 170, 81); fill-opacity:1.000; stroke:none;" />
 <path d="  M 10,21  L 9,21  L 9,22  L 10,22  Z  " style="fill:rgb(217, 170, 81); fill-opacity:1.000; stroke:none;" />
 <path d="  M 12,22  L 11,22  L 11,23  L 12,23  Z  " style="fill:rgb(217, 170, 81); fill-opacity:1.000; stroke:none;" />
 <path d="  M 13,12  L 12,12  L 12,13  L 13,13  Z  " style="fill:rgb(217, 170, 81); fill-opacity:1.000; stroke:none;" />
 <path d="  M 14,12  L 14,13  L 13,13  L 13,14  L 15,14  L 15,13  L 16,13  L 16,11  L 15,11  L 15,12  Z  " style="fill:rgb(217, 170, 81); fill-opacity:1.000; stroke:none;" />
 <path d="  M 13,22  L 13,23  L 14,23  L 14,22  Z  " style="fill:rgb(217, 170, 81); fill-opacity:1.000; stroke:none;" />
 <path d="  M 14,22  L 15,22  L 15,21  L 14,21  Z  " style="fill:rgb(217, 170, 81); fill-opacity:1.000; stroke:none;" />
 <path d="  M 15,20  L 15,21  L 16,21  L 16,20  Z  " style="fill:rgb(217, 170, 81); fill-opacity:1.000; stroke:none;" />
 <path d="  M 16,15  L 17,15  L 17,14  L 16,14  Z  " style="fill:rgb(217, 170, 81); fill-opacity:1.000; stroke:none;" />
 <path d="  M 17,15  L 17,16  L 19,16  L 19,14  L 18,14  L 18,15  Z  " style="fill:rgb(217, 170, 81); fill-opacity:1.000; stroke:none;" />
 <path d="  M 21,15  L 20,15  L 20,16  L 19,16  L 19,17  L 21,17  Z  " style="fill:rgb(217, 170, 81); fill-opacity:1.000; stroke:none;" />
 <path d="  M 21,12  L 21,13  L 23,13  L 23,12  L 22,12  L 22,11  L 20,11  L 20,12  Z  " style="fill:rgb(217, 170, 81); fill-opacity:1.000; stroke:none;" />
 <path d="  M 21,19  L 21,18  L 20,18  L 20,19  Z  " style="fill:rgb(217, 170, 81); fill-opacity:1.000; stroke:none;" />
 <path d="  M 22,14  L 21,14  L 21,15  L 22,15  Z  " style="fill:rgb(217, 170, 81); fill-opacity:1.000; stroke:none;" />
 <path d="  M 21,17  L 21,18  L 22,18  L 22,17  Z  " style="fill:rgb(217, 170, 81); fill-opacity:1.000; stroke:none;" />
 <path d="  M 23,15  L 22,15  L 22,16  L 23,16  Z  " style="fill:rgb(217, 170, 81); fill-opacity:1.000; stroke:none;" />
 <path d="  M 24,13  L 23,13  L 23,14  L 24,14  Z  " style="fill:rgb(217, 170, 81); fill-opacity:1.000; stroke:none;" />
 <path d="  M 10,21  L 10,20  L 9,20  L 9,21  Z  " style="fill:rgb(233, 186, 98); fill-opacity:1.000; stroke:none;" />
 <path d="  M 13,22  L 13,21  L 11,21  L 11,22  Z  " style="fill:rgb(233, 186, 98); fill-opacity:1.000; stroke:none;" />
 <path d="  M 13,21  L 15,21  L 15,20  L 14,20  L 14,19  L 13,19  Z  " style="fill:rgb(233, 186, 98); fill-opacity:1.000; stroke:none;" />
 <path d="  M 15,14  L 14,14  L 14,15  L 16,15  L 16,14  L 17,14  L 17,13  L 15,13  Z  " style="fill:rgb(233, 186, 98); fill-opacity:1.000; stroke:none;" />
 <path d="  M 15,18  L 14,18  L 14,19  L 15,19  Z  " style="fill:rgb(233, 186, 98); fill-opacity:1.000; stroke:none;" />
 <path d="  M 19,15  L 19,16  L 20,16  L 20,15  Z  " style="fill:rgb(233, 186, 98); fill-opacity:1.000; stroke:none;" />
 <path d="  M 21,15  L 21,14  L 20,14  L 20,15  Z  " style="fill:rgb(233, 186, 98); fill-opacity:1.000; stroke:none;" />
 <path d="  M 12,16  L 12,15  L 11,15  L 11,16  Z  " style="fill:rgb(248, 208, 134); fill-opacity:1.000; stroke:none;" />
 <path d="  M 13,19  L 12,19  L 12,20  L 13,20  Z  " style="fill:rgb(248, 208, 134); fill-opacity:1.000; stroke:none;" />
 <path d="  M 13,15  L 13,16  L 14,16  L 14,15  Z  " style="fill:rgb(248, 208, 134); fill-opacity:1.000; stroke:none;" />
 <path d="  M 25,16  L 24,16  L 24,17  L 25,17  Z  " style="fill:rgb(134, 105, 62); fill-opacity:1.000; stroke:none;" />
</svg>
