<?xml version="1.0" encoding="UTF-8" standalone="no"?>
<!DOCTYPE svg PUBLIC "-//W3C//DTD SVG 1.1//EN" 
  "http://www.w3.org/Graphics/SVG/1.1/DTD/svg11.dtd">
<svg width="32" height="32"
	 xmlns="http://www.w3.org/2000/svg" version="1.1">
 <path d="  M 6,22  L 8,22  L 8,21  L 9,21  L 9,20  L 8,20  L 8,18  L 7,18  L 7,21  L 6,21  Z  " style="fill:rgb(200, 212, 170); fill-opacity:1.000; stroke:none;" />
 <path d="  M 10,14  L 8,14  L 8,15  L 9,15  L 9,16  L 10,16  Z  " style="fill:rgb(200, 212, 170); fill-opacity:1.000; stroke:none;" />
 <path d="  M 11,8  L 10,8  L 10,10  L 11,10  L 11,11  L 13,11  L 13,10  L 12,10  L 12,9  L 11,9  Z  " style="fill:rgb(200, 212, 170); fill-opacity:1.000; stroke:none;" />
 <path d="  M 11,12  L 11,11  L 10,11  L 10,12  Z  " style="fill:rgb(200, 212, 170); fill-opacity:1.000; stroke:none;" />
 <path d="  M 14,24  L 15,24  L 15,23  L 14,23  Z  " style="fill:rgb(200, 212, 170); fill-opacity:1.000; stroke:none;" />
 <path d="  M 17,20  L 16,20  L 16,22  L 15,22  L 15,23  L 17,23  Z  " style="fill:rgb(200, 212, 170); fill-opacity:1.000; stroke:none;" />
 <path d="  M 16,17  L 18,17  L 18,16  L 17,16  L 17,15  L 16,15  Z  " style="fill:rgb(200, 212, 170); fill-opacity:1.000; stroke:none;" />
 <path d="  M 20,16  L 20,15  L 21,15  L 21,14  L 19,14  L 19,15  L 18,15  L 18,16  Z  " style="fill:rgb(200, 212, 170); fill-opacity:1.000; stroke:none;" />
 <path d="  M 23,22  L 23,21  L 22,21  L 22,22  Z  " style="fill:rgb(200, 212, 170); fill-opacity:1.000; stroke:none;" />
 <path d="  M 26,20  L 23,20  L 23,21  L 24,21  L 24,22  L 25,22  L 25,21  L 26,21  Z  " style="fill:rgb(200, 212, 170); fill-opacity:1.000; stroke:none;" />
 <path d="  M 24,13  L 24,14  L 26,14  L 26,13  L 27,13  L 27,12  L 26,12  L 26,10  L 25,10  L 25,13  Z  " style="fill:rgb(200, 212, 170); fill-opacity:1.000; stroke:none;" />
 <path d="  M 6,23  L 7,23  L 7,22  L 6,22  Z  " style="fill:rgb(202, 177, 110); fill-opacity:1.000; stroke:none;" />
 <path d="  M 9,22  L 8,22  L 8,23  L 7,23  L 7,24  L 9,24  L 9,23  L 10,23  L 10,21  L 9,21  Z  " style="fill:rgb(202, 177, 110); fill-opacity:1.000; stroke:none;" />
 <path d="  M 8,17  L 9,17  L 9,16  L 8,16  Z  " style="fill:rgb(202, 177, 110); fill-opacity:1.000; stroke:none;" />
 <path d="  M 11,18  L 11,17  L 12,17  L 12,16  L 10,16  L 10,17  L 9,17  L 9,18  Z  " style="fill:rgb(202, 177, 110); fill-opacity:1.000; stroke:none;" />
 <path d="  M 11,13  L 11,12  L 10,12  L 10,13  Z  " style="fill:rgb(202, 177, 110); fill-opacity:1.000; stroke:none;" />
 <path d="  M 11,14  L 13,14  L 13,13  L 14,13  L 14,11  L 13,11  L 13,12  L 12,12  L 12,13  L 11,13  Z  " style="fill:rgb(202, 177, 110); fill-opacity:1.000; stroke:none;" />
 <path d="  M 14,24  L 14,25  L 15,25  L 15,24  Z  " style="fill:rgb(202, 177, 110); fill-opacity:1.000; stroke:none;" />
 <path d="  M 17,26  L 17,25  L 18,25  L 18,23  L 17,23  L 17,24  L 16,24  L 16,25  L 15,25  L 15,26  Z  " style="fill:rgb(202, 177, 110); fill-opacity:1.000; stroke:none;" />
 <path d="  M 19,16  L 18,16  L 18,17  L 19,17  Z  " style="fill:rgb(202, 177, 110); fill-opacity:1.000; stroke:none;" />
 <path d="  M 20,16  L 20,17  L 19,17  L 19,18  L 21,18  L 21,17  L 22,17  L 22,15  L 21,15  L 21,16  Z  " style="fill:rgb(202, 177, 110); fill-opacity:1.000; stroke:none;" />
 <path d="  M 23,23  L 23,22  L 22,22  L 22,23  Z  " style="fill:rgb(202, 177, 110); fill-opacity:1.000; stroke:none;" />
 <path d="  M 26,21  L 25,21  L 25,22  L 24,22  L 24,23  L 23,23  L 23,24  L 25,24  L 25,23  L 26,23  Z  " style="fill:rgb(202, 177, 110); fill-opacity:1.000; stroke:none;" />
 <path d="  M 25,15  L 25,14  L 24,14  L 24,15  Z  " style="fill:rgb(202, 177, 110); fill-opacity:1.000; stroke:none;" />
 <path d="  M 27,16  L 27,15  L 28,15  L 28,13  L 27,13  L 27,14  L 26,14  L 26,15  L 25,15  L 25,16  Z  " style="fill:rgb(202, 177, 110); fill-opacity:1.000; stroke:none;" />
 <path d="  M 7,22  L 7,23  L 8,23  L 8,22  Z  " style="fill:rgb(203, 198, 141); fill-opacity:1.000; stroke:none;" />
 <path d="  M 8,22  L 9,22  L 9,21  L 8,21  Z  " style="fill:rgb(203, 198, 141); fill-opacity:1.000; stroke:none;" />
 <path d="  M 9,16  L 9,17  L 10,17  L 10,16  Z  " style="fill:rgb(203, 198, 141); fill-opacity:1.000; stroke:none;" />
 <path d="  M 10,15  L 10,16  L 11,16  L 11,15  Z  " style="fill:rgb(203, 198, 141); fill-opacity:1.000; stroke:none;" />
 <path d="  M 13,11  L 11,11  L 11,13  L 12,13  L 12,12  L 13,12  Z  " style="fill:rgb(203, 198, 141); fill-opacity:1.000; stroke:none;" />
 <path d="  M 16,25  L 16,24  L 17,24  L 17,23  L 15,23  L 15,25  Z  " style="fill:rgb(203, 198, 141); fill-opacity:1.000; stroke:none;" />
 <path d="  M 19,17  L 20,17  L 20,16  L 19,16  Z  " style="fill:rgb(203, 198, 141); fill-opacity:1.000; stroke:none;" />
 <path d="  M 20,16  L 21,16  L 21,15  L 20,15  Z  " style="fill:rgb(203, 198, 141); fill-opacity:1.000; stroke:none;" />
 <path d="  M 24,23  L 24,21  L 23,21  L 23,23  Z  " style="fill:rgb(203, 198, 141); fill-opacity:1.000; stroke:none;" />
 <path d="  M 25,15  L 26,15  L 26,14  L 25,14  Z  " style="fill:rgb(203, 198, 141); fill-opacity:1.000; stroke:none;" />
 <path d="  M 26,13  L 26,14  L 27,14  L 27,13  Z  " style="fill:rgb(203, 198, 141); fill-opacity:1.000; stroke:none;" />
 <path d="  M 27,21  L 27,19  L 26,19  L 26,21  Z  " style="fill:rgb(203, 198, 141); fill-opacity:1.000; stroke:none;" />
</svg>
