<?xml version="1.0" encoding="UTF-8" standalone="no"?>
<!DOCTYPE svg PUBLIC "-//W3C//DTD SVG 1.1//EN" 
  "http://www.w3.org/Graphics/SVG/1.1/DTD/svg11.dtd">
<svg width="32" height="32"
	 xmlns="http://www.w3.org/2000/svg" version="1.1">
 <path d="  M 0,17  L 1,17  L 1,11  L 0,11  Z  " style="fill:rgb(136, 63, 38); fill-opacity:1.000; stroke:none;" />
 <path d="  M 1,11  L 2,11  L 2,9  L 1,9  Z  " style="fill:rgb(136, 63, 38); fill-opacity:1.000; stroke:none;" />
 <path d="  M 11,25  L 11,24  L 10,24  L 10,25  Z  " style="fill:rgb(136, 63, 38); fill-opacity:1.000; stroke:none;" />
 <path d="  M 13,24  L 13,23  L 16,23  L 16,21  L 15,21  L 15,20  L 14,20  L 14,21  L 13,21  L 13,22  L 12,22  L 12,23  L 11,23  L 11,24  Z  " style="fill:rgb(136, 63, 38); fill-opacity:1.000; stroke:none;" />
 <path d="  M 12,21  L 13,21  L 13,20  L 12,20  Z  " style="fill:rgb(136, 63, 38); fill-opacity:1.000; stroke:none;" />
 <path d="  M 17,18  L 17,19  L 16,19  L 16,18  Z  M 24,15  L 24,14  L 25,14  L 25,13  L 24,13  L 24,12  L 23,12  L 23,13  L 21,13  L 21,12  L 19,12  L 19,13  L 18,13  L 18,14  L 16,14  L 16,15  L 15,15  L 15,17  L 16,17  L 16,18  L 15,18  L 15,20  L 16,20  L 16,21  L 17,21  L 17,20  L 18,20  L 18,18  L 19,18  L 19,17  L 20,17  L 20,16  L 22,16  L 22,15  Z  M 21,15  L 20,15  L 20,14  L 21,14  Z  " style="fill:rgb(136, 63, 38); fill-opacity:1.000; stroke:none;" />
 <path d="  M 17,24  L 17,23  L 16,23  L 16,24  Z  " style="fill:rgb(136, 63, 38); fill-opacity:1.000; stroke:none;" />
 <path d="  M 17,25  L 18,25  L 18,24  L 17,24  Z  " style="fill:rgb(136, 63, 38); fill-opacity:1.000; stroke:none;" />
 <path d="  M 20,3  L 20,4  L 26,4  L 26,3  Z  " style="fill:rgb(136, 63, 38); fill-opacity:1.000; stroke:none;" />
 <path d="  M 22,16  L 22,17  L 24,17  L 24,16  Z  " style="fill:rgb(136, 63, 38); fill-opacity:1.000; stroke:none;" />
 <path d="  M 24,25  L 23,25  L 23,27  L 22,27  L 22,28  L 25,28  L 25,26  L 24,26  Z  " style="fill:rgb(136, 63, 38); fill-opacity:1.000; stroke:none;" />
 <path d="  M 24,25  L 25,25  L 25,24  L 24,24  Z  " style="fill:rgb(136, 63, 38); fill-opacity:1.000; stroke:none;" />
 <path d="  M 25,12  L 25,13  L 26,13  L 26,12  Z  " style="fill:rgb(136, 63, 38); fill-opacity:1.000; stroke:none;" />
 <path d="  M 27,16  L 27,15  L 25,15  L 25,16  Z  " style="fill:rgb(136, 63, 38); fill-opacity:1.000; stroke:none;" />
 <path d="  M 26,23  L 25,23  L 25,24  L 26,24  Z  " style="fill:rgb(136, 63, 38); fill-opacity:1.000; stroke:none;" />
 <path d="  M 25,25  L 25,26  L 26,26  L 26,25  Z  " style="fill:rgb(136, 63, 38); fill-opacity:1.000; stroke:none;" />
 <path d="  M 28,5  L 28,4  L 26,4  L 26,5  Z  " style="fill:rgb(136, 63, 38); fill-opacity:1.000; stroke:none;" />
 <path d="  M 29,5  L 28,5  L 28,7  L 29,7  Z  " style="fill:rgb(136, 63, 38); fill-opacity:1.000; stroke:none;" />
 <path d="  M 28,18  L 29,18  L 29,19  L 30,19  L 30,17  L 28,17  Z  " style="fill:rgb(136, 63, 38); fill-opacity:1.000; stroke:none;" />
 <path d="  M 1,17  L 0,17  L 0,19  L 1,19  Z  " style="fill:rgb(109, 52, 33); fill-opacity:1.000; stroke:none;" />
 <path d="  M 2,19  L 1,19  L 1,21  L 2,21  Z  " style="fill:rgb(109, 52, 33); fill-opacity:1.000; stroke:none;" />
 <path d="  M 11,26  L 10,26  L 10,27  L 11,27  Z  " style="fill:rgb(109, 52, 33); fill-opacity:1.000; stroke:none;" />
 <path d="  M 12,25  L 11,25  L 11,26  L 12,26  Z  " style="fill:rgb(109, 52, 33); fill-opacity:1.000; stroke:none;" />
 <path d="  M 12,25  L 14,25  L 14,24  L 12,24  Z  " style="fill:rgb(109, 52, 33); fill-opacity:1.000; stroke:none;" />
 <path d="  M 14,24  L 15,24  L 15,23  L 14,23  Z  " style="fill:rgb(109, 52, 33); fill-opacity:1.000; stroke:none;" />
 <path d="  M 16,25  L 16,24  L 15,24  L 15,25  Z  " style="fill:rgb(109, 52, 33); fill-opacity:1.000; stroke:none;" />
 <path d="  M 16,26  L 19,26  L 19,25  L 16,25  Z  " style="fill:rgb(109, 52, 33); fill-opacity:1.000; stroke:none;" />
 <path d="  M 17,20  L 17,24  L 18,24  L 18,20  Z  " style="fill:rgb(109, 52, 33); fill-opacity:1.000; stroke:none;" />
 <path d="  M 19,27  L 20,27  L 20,26  L 19,26  Z  " style="fill:rgb(109, 52, 33); fill-opacity:1.000; stroke:none;" />
 <path d="  M 28,12  L 26,12  L 26,13  L 27,13  L 27,16  L 24,16  L 24,17  L 30,17  L 30,16  L 29,16  L 29,15  L 28,15  L 28,13  L 29,13  L 29,11  L 28,11  Z  " style="fill:rgb(109, 52, 33); fill-opacity:1.000; stroke:none;" />
 <path d="  M 30,7  L 29,7  L 29,11  L 30,11  Z  " style="fill:rgb(109, 52, 33); fill-opacity:1.000; stroke:none;" />
 <path d="  M 31,17  L 30,17  L 30,19  L 31,19  Z  " style="fill:rgb(109, 52, 33); fill-opacity:1.000; stroke:none;" />
 <path d="  M 1,11  L 1,12  L 3,12  L 3,10  L 2,10  L 2,11  Z  " style="fill:rgb(148, 109, 61); fill-opacity:1.000; stroke:none;" />
 <path d="  M 10,15  L 10,14  L 9,14  L 9,15  Z  " style="fill:rgb(148, 109, 61); fill-opacity:1.000; stroke:none;" />
 <path d="  M 10,15  L 10,16  L 11,16  L 11,15  Z  " style="fill:rgb(148, 109, 61); fill-opacity:1.000; stroke:none;" />
 <path d="  M 12,17  L 12,16  L 11,16  L 11,17  Z  " style="fill:rgb(148, 109, 61); fill-opacity:1.000; stroke:none;" />
 <path d="  M 14,12  L 14,14  L 15,14  L 15,12  Z  " style="fill:rgb(148, 109, 61); fill-opacity:1.000; stroke:none;" />
 <path d="  M 15,11  L 15,12  L 16,12  L 16,11  Z  " style="fill:rgb(148, 109, 61); fill-opacity:1.000; stroke:none;" />
 <path d="  M 16,6  L 16,7  L 17,7  L 17,6  Z  " style="fill:rgb(148, 109, 61); fill-opacity:1.000; stroke:none;" />
 <path d="  M 16,11  L 17,11  L 17,8  L 16,8  Z  " style="fill:rgb(148, 109, 61); fill-opacity:1.000; stroke:none;" />
 <path d="  M 17,6  L 19,6  L 19,5  L 17,5  Z  " style="fill:rgb(148, 109, 61); fill-opacity:1.000; stroke:none;" />
 <path d="  M 17,8  L 18,8  L 18,7  L 17,7  Z  " style="fill:rgb(148, 109, 61); fill-opacity:1.000; stroke:none;" />
 <path d="  M 19,12  L 19,11  L 18,11  L 18,12  Z  " style="fill:rgb(148, 109, 61); fill-opacity:1.000; stroke:none;" />
 <path d="  M 20,6  L 19,6  L 19,7  L 20,7  Z  " style="fill:rgb(148, 109, 61); fill-opacity:1.000; stroke:none;" />
 <path d="  M 1,13  L 2,13  L 2,12  L 1,12  Z  " style="fill:rgb(201, 94, 53); fill-opacity:1.000; stroke:none;" />
 <path d="  M 2,19  L 2,18  L 1,18  L 1,19  Z  " style="fill:rgb(201, 94, 53); fill-opacity:1.000; stroke:none;" />
 <path d="  M 2,21  L 3,21  L 3,20  L 2,20  Z  " style="fill:rgb(201, 94, 53); fill-opacity:1.000; stroke:none;" />
 <path d="  M 4,13  L 5,13  L 5,12  L 4,12  Z  " style="fill:rgb(201, 94, 53); fill-opacity:1.000; stroke:none;" />
 <path d="  M 7,20  L 6,20  L 6,21  L 10,21  L 10,20  L 11,20  L 11,19  L 12,19  L 12,20  L 13,20  L 13,19  L 14,19  L 14,18  L 13,18  L 13,17  L 14,17  L 14,15  L 12,15  L 12,17  L 10,17  L 10,19  L 9,19  L 9,20  L 8,20  L 8,19  L 7,19  Z  " style="fill:rgb(201, 94, 53); fill-opacity:1.000; stroke:none;" />
 <path d="  M 10,15  L 9,15  L 9,14  L 8,14  L 8,16  L 9,16  L 9,17  L 10,17  Z  " style="fill:rgb(201, 94, 53); fill-opacity:1.000; stroke:none;" />
 <path d="  M 8,19  L 9,19  L 9,18  L 8,18  Z  " style="fill:rgb(201, 94, 53); fill-opacity:1.000; stroke:none;" />
 <path d="  M 11,22  L 11,21  L 10,21  L 10,22  Z  " style="fill:rgb(201, 94, 53); fill-opacity:1.000; stroke:none;" />
 <path d="  M 15,14  L 16,14  L 16,13  L 15,13  Z  " style="fill:rgb(201, 94, 53); fill-opacity:1.000; stroke:none;" />
 <path d="  M 16,12  L 16,13  L 17,13  L 17,12  Z  " style="fill:rgb(201, 94, 53); fill-opacity:1.000; stroke:none;" />
 <path d="  M 19,7  L 19,6  L 17,6  L 17,7  Z  " style="fill:rgb(201, 94, 53); fill-opacity:1.000; stroke:none;" />
 <path d="  M 17,8  L 17,10  L 19,10  L 19,9  L 18,9  L 18,8  Z  " style="fill:rgb(201, 94, 53); fill-opacity:1.000; stroke:none;" />
 <path d="  M 17,11  L 17,12  L 18,12  L 18,11  Z  " style="fill:rgb(201, 94, 53); fill-opacity:1.000; stroke:none;" />
 <path d="  M 19,4  L 19,6  L 20,6  L 20,5  L 21,5  L 21,4  Z  " style="fill:rgb(201, 94, 53); fill-opacity:1.000; stroke:none;" />
 <path d="  M 19,11  L 20,11  L 20,10  L 19,10  Z  " style="fill:rgb(201, 94, 53); fill-opacity:1.000; stroke:none;" />
 <path d="  M 20,25  L 20,27  L 22,27  L 22,24  L 20,24  L 20,23  L 19,23  L 19,25  Z  " style="fill:rgb(201, 94, 53); fill-opacity:1.000; stroke:none;" />
 <path d="  M 21,16  L 21,17  L 22,17  L 22,16  Z  " style="fill:rgb(201, 94, 53); fill-opacity:1.000; stroke:none;" />
 <path d="  M 27,10  L 26,10  L 26,9  L 25,9  L 25,10  L 24,10  L 24,11  L 22,11  L 22,12  L 25,12  L 25,11  L 27,11  Z  " style="fill:rgb(201, 94, 53); fill-opacity:1.000; stroke:none;" />
 <path d="  M 24,18  L 26,18  L 26,17  L 24,17  Z  " style="fill:rgb(201, 94, 53); fill-opacity:1.000; stroke:none;" />
 <path d="  M 26,5  L 26,4  L 25,4  L 25,5  Z  " style="fill:rgb(201, 94, 53); fill-opacity:1.000; stroke:none;" />
 <path d="  M 25,20  L 25,22  L 26,22  L 26,21  L 27,21  L 27,18  L 26,18  L 26,20  Z  " style="fill:rgb(201, 94, 53); fill-opacity:1.000; stroke:none;" />
 <path d="  M 28,5  L 27,5  L 27,6  L 28,6  Z  " style="fill:rgb(201, 94, 53); fill-opacity:1.000; stroke:none;" />
 <path d="  M 28,9  L 27,9  L 27,10  L 28,10  Z  " style="fill:rgb(201, 94, 53); fill-opacity:1.000; stroke:none;" />
 <path d="  M 28,7  L 28,9  L 29,9  L 29,7  Z  " style="fill:rgb(201, 94, 53); fill-opacity:1.000; stroke:none;" />
 <path d="  M 29,11  L 29,10  L 28,10  L 28,11  Z  " style="fill:rgb(201, 94, 53); fill-opacity:1.000; stroke:none;" />
 <path d="  M 1,13  L 1,14  L 2,14  L 2,13  Z  " style="fill:rgb(233, 122, 82); fill-opacity:1.000; stroke:none;" />
 <path d="  M 1,16  L 1,17  L 2,17  L 2,16  Z  " style="fill:rgb(233, 122, 82); fill-opacity:1.000; stroke:none;" />
 <path d="  M 4,13  L 4,12  L 2,12  L 2,13  Z  " style="fill:rgb(233, 122, 82); fill-opacity:1.000; stroke:none;" />
 <path d="  M 2,20  L 3,20  L 3,19  L 2,19  Z  " style="fill:rgb(233, 122, 82); fill-opacity:1.000; stroke:none;" />
 <path d="  M 3,19  L 4,19  L 4,18  L 3,18  Z  " style="fill:rgb(233, 122, 82); fill-opacity:1.000; stroke:none;" />
 <path d="  M 7,19  L 8,19  L 8,18  L 6,18  L 6,19  L 5,19  L 5,20  L 3,20  L 3,21  L 6,21  L 6,20  L 7,20  Z  " style="fill:rgb(233, 122, 82); fill-opacity:1.000; stroke:none;" />
 <path d="  M 6,15  L 6,13  L 4,13  L 4,14  L 5,14  L 5,15  Z  " style="fill:rgb(233, 122, 82); fill-opacity:1.000; stroke:none;" />
 <path d="  M 6,16  L 7,16  L 7,15  L 6,15  Z  " style="fill:rgb(233, 122, 82); fill-opacity:1.000; stroke:none;" />
 <path d="  M 7,16  L 7,17  L 8,17  L 8,18  L 9,18  L 9,19  L 10,19  L 10,17  L 9,17  L 9,16  Z  " style="fill:rgb(233, 122, 82); fill-opacity:1.000; stroke:none;" />
 <path d="  M 8,19  L 8,20  L 9,20  L 9,19  Z  " style="fill:rgb(233, 122, 82); fill-opacity:1.000; stroke:none;" />
 <path d="  M 11,17  L 11,16  L 10,16  L 10,17  Z  " style="fill:rgb(233, 122, 82); fill-opacity:1.000; stroke:none;" />
 <path d="  M 13,15  L 14,15  L 14,14  L 13,14  Z  " style="fill:rgb(233, 122, 82); fill-opacity:1.000; stroke:none;" />
 <path d="  M 15,12  L 15,13  L 16,13  L 16,12  Z  " style="fill:rgb(233, 122, 82); fill-opacity:1.000; stroke:none;" />
 <path d="  M 17,11  L 16,11  L 16,12  L 17,12  Z  " style="fill:rgb(233, 122, 82); fill-opacity:1.000; stroke:none;" />
 <path d="  M 18,8  L 18,9  L 20,9  L 20,8  Z  " style="fill:rgb(233, 122, 82); fill-opacity:1.000; stroke:none;" />
 <path d="  M 19,11  L 19,10  L 18,10  L 18,11  Z  " style="fill:rgb(233, 122, 82); fill-opacity:1.000; stroke:none;" />
 <path d="  M 18,21  L 18,22  L 19,22  L 19,21  Z  " style="fill:rgb(233, 122, 82); fill-opacity:1.000; stroke:none;" />
 <path d="  M 18,25  L 19,25  L 19,23  L 18,23  Z  " style="fill:rgb(233, 122, 82); fill-opacity:1.000; stroke:none;" />
 <path d="  M 20,24  L 22,24  L 22,23  L 21,23  L 21,22  L 19,22  L 19,23  L 20,23  Z  " style="fill:rgb(233, 122, 82); fill-opacity:1.000; stroke:none;" />
 <path d="  M 19,25  L 19,26  L 20,26  L 20,25  Z  " style="fill:rgb(233, 122, 82); fill-opacity:1.000; stroke:none;" />
 <path d="  M 21,5  L 20,5  L 20,6  L 22,6  L 22,5  L 25,5  L 25,4  L 21,4  Z  " style="fill:rgb(233, 122, 82); fill-opacity:1.000; stroke:none;" />
 <path d="  M 20,10  L 20,11  L 21,11  L 21,12  L 22,12  L 22,10  Z  " style="fill:rgb(233, 122, 82); fill-opacity:1.000; stroke:none;" />
 <path d="  M 24,11  L 24,10  L 25,10  L 25,9  L 22,9  L 22,10  L 23,10  L 23,11  Z  " style="fill:rgb(233, 122, 82); fill-opacity:1.000; stroke:none;" />
 <path d="  M 22,26  L 23,26  L 23,24  L 22,24  Z  " style="fill:rgb(233, 122, 82); fill-opacity:1.000; stroke:none;" />
 <path d="  M 24,18  L 24,17  L 23,17  L 23,18  Z  " style="fill:rgb(233, 122, 82); fill-opacity:1.000; stroke:none;" />
 <path d="  M 25,23  L 25,21  L 24,21  L 24,22  L 23,22  L 23,23  Z  " style="fill:rgb(233, 122, 82); fill-opacity:1.000; stroke:none;" />
 <path d="  M 24,18  L 24,19  L 25,19  L 25,20  L 26,20  L 26,18  Z  " style="fill:rgb(233, 122, 82); fill-opacity:1.000; stroke:none;" />
 <path d="  M 27,5  L 26,5  L 26,6  L 27,6  Z  " style="fill:rgb(233, 122, 82); fill-opacity:1.000; stroke:none;" />
 <path d="  M 26,8  L 26,10  L 27,10  L 27,9  L 28,9  L 28,6  L 27,6  L 27,8  Z  " style="fill:rgb(233, 122, 82); fill-opacity:1.000; stroke:none;" />
 <path d="  M 2,14  L 1,14  L 1,16  L 2,16  L 2,15  L 3,15  L 3,14  L 4,14  L 4,13  L 2,13  Z  " style="fill:rgb(252, 153, 130); fill-opacity:1.000; stroke:none;" />
 <path d="  M 4,17  L 2,17  L 2,19  L 3,19  L 3,18  L 4,18  Z  " style="fill:rgb(252, 153, 130); fill-opacity:1.000; stroke:none;" />
 <path d="  M 4,18  L 4,19  L 3,19  L 3,20  L 5,20  L 5,19  L 6,19  L 6,18  L 8,18  L 8,17  L 7,17  L 7,16  L 6,16  L 6,17  L 5,17  L 5,18  Z  " style="fill:rgb(252, 153, 130); fill-opacity:1.000; stroke:none;" />
 <path d="  M 4,17  L 5,17  L 5,16  L 6,16  L 6,15  L 4,15  Z  " style="fill:rgb(252, 153, 130); fill-opacity:1.000; stroke:none;" />
 <path d="  M 7,16  L 8,16  L 8,15  L 7,15  Z  " style="fill:rgb(252, 153, 130); fill-opacity:1.000; stroke:none;" />
 <path d="  M 18,7  L 18,8  L 19,8  L 19,7  Z  " style="fill:rgb(252, 153, 130); fill-opacity:1.000; stroke:none;" />
 <path d="  M 23,17  L 20,17  L 20,18  L 19,18  L 19,19  L 18,19  L 18,21  L 19,21  L 19,20  L 20,20  L 20,19  L 22,19  L 22,18  L 23,18  Z  " style="fill:rgb(252, 153, 130); fill-opacity:1.000; stroke:none;" />
 <path d="  M 18,23  L 19,23  L 19,22  L 18,22  Z  " style="fill:rgb(252, 153, 130); fill-opacity:1.000; stroke:none;" />
 <path d="  M 20,9  L 19,9  L 19,10  L 22,10  L 22,9  L 21,9  L 21,8  L 22,8  L 22,7  L 21,7  L 21,6  L 20,6  Z  " style="fill:rgb(252, 153, 130); fill-opacity:1.000; stroke:none;" />
 <path d="  M 21,23  L 22,23  L 22,24  L 23,24  L 23,22  L 22,22  L 22,21  L 19,21  L 19,22  L 21,22  Z  " style="fill:rgb(252, 153, 130); fill-opacity:1.000; stroke:none;" />
 <path d="  M 25,7  L 25,6  L 26,6  L 26,5  L 22,5  L 22,7  Z  " style="fill:rgb(252, 153, 130); fill-opacity:1.000; stroke:none;" />
 <path d="  M 22,10  L 22,11  L 23,11  L 23,10  Z  " style="fill:rgb(252, 153, 130); fill-opacity:1.000; stroke:none;" />
 <path d="  M 23,22  L 24,22  L 24,21  L 25,21  L 25,19  L 23,19  L 23,20  L 22,20  L 22,21  L 23,21  Z  " style="fill:rgb(252, 153, 130); fill-opacity:1.000; stroke:none;" />
 <path d="  M 26,9  L 26,8  L 27,8  L 27,6  L 26,6  L 26,7  L 25,7  L 25,8  L 24,8  L 24,9  Z  " style="fill:rgb(252, 153, 130); fill-opacity:1.000; stroke:none;" />
 <path d="  M 2,17  L 1,17  L 1,18  L 2,18  Z  " style="fill:rgb(254, 195, 182); fill-opacity:1.000; stroke:none;" />
 <path d="  M 4,17  L 4,15  L 5,15  L 5,14  L 3,14  L 3,15  L 2,15  L 2,17  Z  " style="fill:rgb(254, 195, 182); fill-opacity:1.000; stroke:none;" />
 <path d="  M 4,18  L 5,18  L 5,17  L 4,17  Z  " style="fill:rgb(254, 195, 182); fill-opacity:1.000; stroke:none;" />
 <path d="  M 5,17  L 6,17  L 6,16  L 5,16  Z  " style="fill:rgb(254, 195, 182); fill-opacity:1.000; stroke:none;" />
 <path d="  M 20,8  L 20,7  L 19,7  L 19,8  Z  " style="fill:rgb(254, 195, 182); fill-opacity:1.000; stroke:none;" />
 <path d="  M 24,19  L 24,18  L 22,18  L 22,19  L 20,19  L 20,20  L 19,20  L 19,21  L 22,21  L 22,20  L 23,20  L 23,19  Z  " style="fill:rgb(254, 195, 182); fill-opacity:1.000; stroke:none;" />
 <path d="  M 22,6  L 21,6  L 21,7  L 22,7  Z  " style="fill:rgb(254, 195, 182); fill-opacity:1.000; stroke:none;" />
 <path d="  M 25,8  L 25,7  L 22,7  L 22,8  L 21,8  L 21,9  L 24,9  L 24,8  Z  " style="fill:rgb(254, 195, 182); fill-opacity:1.000; stroke:none;" />
 <path d="  M 23,22  L 23,21  L 22,21  L 22,22  Z  " style="fill:rgb(254, 195, 182); fill-opacity:1.000; stroke:none;" />
 <path d="  M 26,6  L 25,6  L 25,7  L 26,7  Z  " style="fill:rgb(254, 195, 182); fill-opacity:1.000; stroke:none;" />
 <path d="  M 2,9  L 3,9  L 3,7  L 2,7  Z  " style="fill:rgb(42, 84, 71); fill-opacity:1.000; stroke:none;" />
 <path d="  M 3,5  L 3,7  L 4,7  L 4,5  Z  " style="fill:rgb(42, 84, 71); fill-opacity:1.000; stroke:none;" />
 <path d="  M 4,5  L 6,5  L 6,4  L 4,4  Z  " style="fill:rgb(42, 84, 71); fill-opacity:1.000; stroke:none;" />
 <path d="  M 6,3  L 6,4  L 12,4  L 12,3  Z  " style="fill:rgb(42, 84, 71); fill-opacity:1.000; stroke:none;" />
 <path d="  M 13,4  L 12,4  L 12,5  L 13,5  Z  " style="fill:rgb(42, 84, 71); fill-opacity:1.000; stroke:none;" />
 <path d="  M 13,5  L 13,6  L 14,6  L 14,5  Z  " style="fill:rgb(42, 84, 71); fill-opacity:1.000; stroke:none;" />
 <path d="  M 15,6  L 14,6  L 14,7  L 15,7  Z  " style="fill:rgb(42, 84, 71); fill-opacity:1.000; stroke:none;" />
 <path d="  M 15,5  L 15,6  L 17,6  L 17,5  Z  " style="fill:rgb(42, 84, 71); fill-opacity:1.000; stroke:none;" />
 <path d="  M 17,4  L 17,5  L 19,5  L 19,4  Z  " style="fill:rgb(42, 84, 71); fill-opacity:1.000; stroke:none;" />
 <path d="  M 19,4  L 20,4  L 20,3  L 19,3  Z  " style="fill:rgb(42, 84, 71); fill-opacity:1.000; stroke:none;" />
 <path d="  M 3,10  L 3,9  L 2,9  L 2,10  Z  " style="fill:rgb(99, 91, 64); fill-opacity:1.000; stroke:none;" />
 <path d="  M 4,10  L 3,10  L 3,12  L 4,12  Z  " style="fill:rgb(99, 91, 64); fill-opacity:1.000; stroke:none;" />
 <path d="  M 4,22  L 4,21  L 3,21  L 3,22  Z  " style="fill:rgb(99, 91, 64); fill-opacity:1.000; stroke:none;" />
 <path d="  M 7,23  L 7,22  L 5,22  L 5,23  Z  " style="fill:rgb(99, 91, 64); fill-opacity:1.000; stroke:none;" />
 <path d="  M 8,22  L 8,21  L 7,21  L 7,22  Z  " style="fill:rgb(99, 91, 64); fill-opacity:1.000; stroke:none;" />
 <path d="  M 9,22  L 8,22  L 8,24  L 10,24  L 10,23  L 9,23  Z  " style="fill:rgb(99, 91, 64); fill-opacity:1.000; stroke:none;" />
 <path d="  M 9,25  L 9,26  L 11,26  L 11,25  Z  " style="fill:rgb(99, 91, 64); fill-opacity:1.000; stroke:none;" />
 <path d="  M 10,22  L 10,23  L 11,23  L 11,22  Z  " style="fill:rgb(99, 91, 64); fill-opacity:1.000; stroke:none;" />
 <path d="  M 11,25  L 12,25  L 12,24  L 11,24  Z  " style="fill:rgb(99, 91, 64); fill-opacity:1.000; stroke:none;" />
 <path d="  M 14,14  L 14,13  L 13,13  L 13,14  Z  " style="fill:rgb(99, 91, 64); fill-opacity:1.000; stroke:none;" />
 <path d="  M 16,9  L 15,9  L 15,10  L 14,10  L 14,12  L 15,12  L 15,11  L 16,11  Z  " style="fill:rgb(99, 91, 64); fill-opacity:1.000; stroke:none;" />
 <path d="  M 15,7  L 16,7  L 16,6  L 15,6  Z  " style="fill:rgb(99, 91, 64); fill-opacity:1.000; stroke:none;" />
 <path d="  M 17,8  L 17,7  L 16,7  L 16,8  Z  " style="fill:rgb(99, 91, 64); fill-opacity:1.000; stroke:none;" />
 <path d="  M 17,11  L 18,11  L 18,10  L 17,10  Z  " style="fill:rgb(99, 91, 64); fill-opacity:1.000; stroke:none;" />
 <path d="  M 25,26  L 25,25  L 24,25  L 24,26  Z  " style="fill:rgb(99, 91, 64); fill-opacity:1.000; stroke:none;" />
 <path d="  M 26,25  L 26,24  L 25,24  L 25,25  Z  " style="fill:rgb(99, 91, 64); fill-opacity:1.000; stroke:none;" />
 <path d="  M 27,24  L 27,23  L 28,23  L 28,21  L 29,21  L 29,19  L 28,19  L 28,20  L 27,20  L 27,22  L 26,22  L 26,24  Z  " style="fill:rgb(99, 91, 64); fill-opacity:1.000; stroke:none;" />
 <path d="  M 27,27  L 27,26  L 26,26  L 26,27  Z  " style="fill:rgb(99, 91, 64); fill-opacity:1.000; stroke:none;" />
 <path d="  M 27,26  L 28,26  L 28,25  L 27,25  Z  " style="fill:rgb(99, 91, 64); fill-opacity:1.000; stroke:none;" />
 <path d="  M 30,19  L 30,20  L 31,20  L 31,19  Z  " style="fill:rgb(99, 91, 64); fill-opacity:1.000; stroke:none;" />
 <path d="  M 31,24  L 31,23  L 30,23  L 30,24  Z  " style="fill:rgb(99, 91, 64); fill-opacity:1.000; stroke:none;" />
 <path d="  M 3,21  L 2,21  L 2,24  L 3,24  Z  " style="fill:rgb(36, 59, 52); fill-opacity:1.000; stroke:none;" />
 <path d="  M 3,24  L 3,25  L 4,25  L 4,24  Z  " style="fill:rgb(36, 59, 52); fill-opacity:1.000; stroke:none;" />
 <path d="  M 5,25  L 4,25  L 4,26  L 5,26  Z  " style="fill:rgb(36, 59, 52); fill-opacity:1.000; stroke:none;" />
 <path d="  M 5,26  L 5,27  L 10,27  L 10,26  Z  " style="fill:rgb(36, 59, 52); fill-opacity:1.000; stroke:none;" />
 <path d="  M 20,27  L 20,28  L 22,28  L 22,27  Z  " style="fill:rgb(36, 59, 52); fill-opacity:1.000; stroke:none;" />
 <path d="  M 25,29  L 25,28  L 22,28  L 22,29  Z  " style="fill:rgb(36, 59, 52); fill-opacity:1.000; stroke:none;" />
 <path d="  M 25,27  L 25,28  L 27,28  L 27,27  Z  " style="fill:rgb(36, 59, 52); fill-opacity:1.000; stroke:none;" />
 <path d="  M 29,26  L 27,26  L 27,27  L 29,27  Z  " style="fill:rgb(36, 59, 52); fill-opacity:1.000; stroke:none;" />
 <path d="  M 29,25  L 29,26  L 30,26  L 30,25  Z  " style="fill:rgb(36, 59, 52); fill-opacity:1.000; stroke:none;" />
 <path d="  M 31,24  L 30,24  L 30,25  L 31,25  Z  " style="fill:rgb(36, 59, 52); fill-opacity:1.000; stroke:none;" />
 <path d="  M 32,19  L 31,19  L 31,24  L 32,24  Z  " style="fill:rgb(36, 59, 52); fill-opacity:1.000; stroke:none;" />
 <path d="  M 3,8  L 4,8  L 4,7  L 3,7  Z  " style="fill:rgb(201, 250, 236); fill-opacity:1.000; stroke:none;" />
 <path d="  M 5,8  L 4,8  L 4,9  L 5,9  Z  " style="fill:rgb(201, 250, 236); fill-opacity:1.000; stroke:none;" />
 <path d="  M 5,9  L 5,10  L 6,10  L 6,11  L 8,11  L 8,10  L 10,10  L 10,9  Z  " style="fill:rgb(201, 250, 236); fill-opacity:1.000; stroke:none;" />
 <path d="  M 12,9  L 12,8  L 11,8  L 11,9  Z  " style="fill:rgb(201, 250, 236); fill-opacity:1.000; stroke:none;" />
 <path d="  M 3,9  L 4,9  L 4,8  L 3,8  Z  " style="fill:rgb(79, 186, 152); fill-opacity:1.000; stroke:none;" />
 <path d="  M 4,8  L 6,8  L 6,9  L 7,9  L 7,8  L 10,8  L 10,7  L 8,7  L 8,6  L 6,6  L 6,7  L 4,7  Z  " style="fill:rgb(79, 186, 152); fill-opacity:1.000; stroke:none;" />
 <path d="  M 7,12  L 6,12  L 6,13  L 8,13  L 8,12  L 9,12  L 9,11  L 7,11  Z  " style="fill:rgb(79, 186, 152); fill-opacity:1.000; stroke:none;" />
 <path d="  M 13,10  L 14,10  L 14,9  L 11,9  L 11,10  L 9,10  L 9,11  L 10,11  L 10,12  L 12,12  L 12,11  L 13,11  Z  " style="fill:rgb(79, 186, 152); fill-opacity:1.000; stroke:none;" />
 <path d="  M 10,9  L 11,9  L 11,8  L 10,8  Z  " style="fill:rgb(79, 186, 152); fill-opacity:1.000; stroke:none;" />
 <path d="  M 4,9  L 3,9  L 3,10  L 4,10  Z  " style="fill:rgb(58, 116, 99); fill-opacity:1.000; stroke:none;" />
 <path d="  M 3,24  L 4,24  L 4,23  L 3,23  Z  " style="fill:rgb(58, 116, 99); fill-opacity:1.000; stroke:none;" />
 <path d="  M 5,6  L 6,6  L 6,5  L 4,5  L 4,7  L 5,7  Z  " style="fill:rgb(58, 116, 99); fill-opacity:1.000; stroke:none;" />
 <path d="  M 5,12  L 5,11  L 4,11  L 4,12  Z  " style="fill:rgb(58, 116, 99); fill-opacity:1.000; stroke:none;" />
 <path d="  M 4,21  L 4,23  L 5,23  L 5,22  L 6,22  L 6,21  Z  " style="fill:rgb(58, 116, 99); fill-opacity:1.000; stroke:none;" />
 <path d="  M 8,25  L 10,25  L 10,24  L 7,24  L 7,25  L 5,25  L 5,26  L 8,26  Z  " style="fill:rgb(58, 116, 99); fill-opacity:1.000; stroke:none;" />
 <path d="  M 6,4  L 6,5  L 9,5  L 9,4  Z  " style="fill:rgb(58, 116, 99); fill-opacity:1.000; stroke:none;" />
 <path d="  M 6,23  L 6,24  L 7,24  L 7,23  Z  " style="fill:rgb(58, 116, 99); fill-opacity:1.000; stroke:none;" />
 <path d="  M 8,15  L 8,14  L 7,14  L 7,15  Z  " style="fill:rgb(58, 116, 99); fill-opacity:1.000; stroke:none;" />
 <path d="  M 7,22  L 7,23  L 8,23  L 8,22  Z  " style="fill:rgb(58, 116, 99); fill-opacity:1.000; stroke:none;" />
 <path d="  M 8,14  L 9,14  L 9,13  L 8,13  Z  " style="fill:rgb(58, 116, 99); fill-opacity:1.000; stroke:none;" />
 <path d="  M 9,6  L 12,6  L 12,4  L 10,4  L 10,5  L 9,5  Z  " style="fill:rgb(58, 116, 99); fill-opacity:1.000; stroke:none;" />
 <path d="  M 10,14  L 10,15  L 11,15  L 11,14  Z  " style="fill:rgb(58, 116, 99); fill-opacity:1.000; stroke:none;" />
 <path d="  M 11,23  L 10,23  L 10,24  L 11,24  Z  " style="fill:rgb(58, 116, 99); fill-opacity:1.000; stroke:none;" />
 <path d="  M 13,11  L 12,11  L 12,12  L 11,12  L 11,13  L 12,13  L 12,15  L 13,15  L 13,13  L 14,13  L 14,10  L 13,10  Z  " style="fill:rgb(58, 116, 99); fill-opacity:1.000; stroke:none;" />
 <path d="  M 12,16  L 12,15  L 11,15  L 11,16  Z  " style="fill:rgb(58, 116, 99); fill-opacity:1.000; stroke:none;" />
 <path d="  M 12,6  L 12,7  L 13,7  L 13,8  L 14,8  L 14,6  Z  " style="fill:rgb(58, 116, 99); fill-opacity:1.000; stroke:none;" />
 <path d="  M 14,10  L 15,10  L 15,9  L 14,9  Z  " style="fill:rgb(58, 116, 99); fill-opacity:1.000; stroke:none;" />
 <path d="  M 15,9  L 16,9  L 16,7  L 15,7  Z  " style="fill:rgb(58, 116, 99); fill-opacity:1.000; stroke:none;" />
 <path d="  M 27,22  L 27,21  L 26,21  L 26,22  Z  " style="fill:rgb(58, 116, 99); fill-opacity:1.000; stroke:none;" />
 <path d="  M 28,25  L 28,24  L 26,24  L 26,25  Z  " style="fill:rgb(58, 116, 99); fill-opacity:1.000; stroke:none;" />
 <path d="  M 28,24  L 29,24  L 29,21  L 28,21  Z  " style="fill:rgb(58, 116, 99); fill-opacity:1.000; stroke:none;" />
 <path d="  M 29,26  L 29,25  L 28,25  L 28,26  Z  " style="fill:rgb(58, 116, 99); fill-opacity:1.000; stroke:none;" />
 <path d="  M 29,19  L 29,21  L 30,21  L 30,19  Z  " style="fill:rgb(58, 116, 99); fill-opacity:1.000; stroke:none;" />
 <path d="  M 29,25  L 30,25  L 30,24  L 29,24  Z  " style="fill:rgb(58, 116, 99); fill-opacity:1.000; stroke:none;" />
 <path d="  M 4,22  L 3,22  L 3,23  L 4,23  Z  " style="fill:rgb(77, 141, 121); fill-opacity:1.000; stroke:none;" />
 <path d="  M 4,25  L 7,25  L 7,24  L 6,24  L 6,23  L 4,23  Z  " style="fill:rgb(77, 141, 121); fill-opacity:1.000; stroke:none;" />
 <path d="  M 6,7  L 6,6  L 5,6  L 5,7  Z  " style="fill:rgb(77, 141, 121); fill-opacity:1.000; stroke:none;" />
 <path d="  M 5,12  L 5,13  L 6,13  L 6,12  Z  " style="fill:rgb(77, 141, 121); fill-opacity:1.000; stroke:none;" />
 <path d="  M 12,9  L 15,9  L 15,7  L 14,7  L 14,8  L 13,8  L 13,7  L 12,7  L 12,6  L 9,6  L 9,5  L 6,5  L 6,6  L 8,6  L 8,7  L 10,7  L 10,8  L 12,8  Z  " style="fill:rgb(77, 141, 121); fill-opacity:1.000; stroke:none;" />
 <path d="  M 8,14  L 8,13  L 6,13  L 6,15  L 7,15  L 7,14  Z  " style="fill:rgb(77, 141, 121); fill-opacity:1.000; stroke:none;" />
 <path d="  M 7,24  L 8,24  L 8,23  L 7,23  Z  " style="fill:rgb(77, 141, 121); fill-opacity:1.000; stroke:none;" />
 <path d="  M 8,12  L 8,13  L 9,13  L 9,14  L 11,14  L 11,15  L 12,15  L 12,13  L 11,13  L 11,12  Z  " style="fill:rgb(77, 141, 121); fill-opacity:1.000; stroke:none;" />
 <path d="  M 8,25  L 8,26  L 9,26  L 9,25  Z  " style="fill:rgb(77, 141, 121); fill-opacity:1.000; stroke:none;" />
 <path d="  M 9,4  L 9,5  L 10,5  L 10,4  Z  " style="fill:rgb(77, 141, 121); fill-opacity:1.000; stroke:none;" />
 <path d="  M 13,6  L 13,5  L 12,5  L 12,6  Z  " style="fill:rgb(77, 141, 121); fill-opacity:1.000; stroke:none;" />
 <path d="  M 26,26  L 27,26  L 27,25  L 26,25  Z  " style="fill:rgb(77, 141, 121); fill-opacity:1.000; stroke:none;" />
 <path d="  M 27,24  L 28,24  L 28,23  L 27,23  Z  " style="fill:rgb(77, 141, 121); fill-opacity:1.000; stroke:none;" />
 <path d="  M 28,24  L 28,25  L 29,25  L 29,24  Z  " style="fill:rgb(77, 141, 121); fill-opacity:1.000; stroke:none;" />
 <path d="  M 30,23  L 31,23  L 31,20  L 30,20  L 30,21  L 29,21  L 29,24  L 30,24  Z  " style="fill:rgb(77, 141, 121); fill-opacity:1.000; stroke:none;" />
 <path d="  M 7,11  L 6,11  L 6,10  L 5,10  L 5,9  L 4,9  L 4,11  L 5,11  L 5,12  L 7,12  Z  " style="fill:rgb(132, 226, 197); fill-opacity:1.000; stroke:none;" />
 <path d="  M 5,8  L 5,9  L 6,9  L 6,8  Z  " style="fill:rgb(132, 226, 197); fill-opacity:1.000; stroke:none;" />
 <path d="  M 7,8  L 7,9  L 10,9  L 10,8  Z  " style="fill:rgb(132, 226, 197); fill-opacity:1.000; stroke:none;" />
 <path d="  M 9,11  L 9,10  L 8,10  L 8,11  Z  " style="fill:rgb(132, 226, 197); fill-opacity:1.000; stroke:none;" />
 <path d="  M 10,12  L 10,11  L 9,11  L 9,12  Z  " style="fill:rgb(132, 226, 197); fill-opacity:1.000; stroke:none;" />
 <path d="  M 10,9  L 10,10  L 11,10  L 11,9  Z  " style="fill:rgb(132, 226, 197); fill-opacity:1.000; stroke:none;" />
 <path d="  M 6,21  L 6,22  L 7,22  L 7,21  Z  " style="fill:rgb(165, 73, 38); fill-opacity:1.000; stroke:none;" />
 <path d="  M 8,21  L 8,22  L 9,22  L 9,23  L 10,23  L 10,21  Z  " style="fill:rgb(165, 73, 38); fill-opacity:1.000; stroke:none;" />
 <path d="  M 10,20  L 10,21  L 11,21  L 11,23  L 12,23  L 12,22  L 13,22  L 13,21  L 12,21  L 12,19  L 11,19  L 11,20  Z  " style="fill:rgb(165, 73, 38); fill-opacity:1.000; stroke:none;" />
 <path d="  M 13,17  L 13,18  L 14,18  L 14,19  L 13,19  L 13,21  L 14,21  L 14,20  L 15,20  L 15,18  L 16,18  L 16,17  L 15,17  L 15,15  L 16,15  L 16,14  L 14,14  L 14,17  Z  " style="fill:rgb(165, 73, 38); fill-opacity:1.000; stroke:none;" />
 <path d="  M 14,23  L 13,23  L 13,24  L 14,24  Z  " style="fill:rgb(165, 73, 38); fill-opacity:1.000; stroke:none;" />
 <path d="  M 15,20  L 15,21  L 16,21  L 16,20  Z  " style="fill:rgb(165, 73, 38); fill-opacity:1.000; stroke:none;" />
 <path d="  M 16,23  L 15,23  L 15,24  L 16,24  Z  " style="fill:rgb(165, 73, 38); fill-opacity:1.000; stroke:none;" />
 <path d="  M 18,13  L 19,13  L 19,12  L 17,12  L 17,13  L 16,13  L 16,14  L 18,14  Z  " style="fill:rgb(165, 73, 38); fill-opacity:1.000; stroke:none;" />
 <path d="  M 17,19  L 17,18  L 16,18  L 16,19  Z  " style="fill:rgb(165, 73, 38); fill-opacity:1.000; stroke:none;" />
 <path d="  M 17,21  L 16,21  L 16,23  L 17,23  Z  " style="fill:rgb(165, 73, 38); fill-opacity:1.000; stroke:none;" />
 <path d="  M 16,25  L 17,25  L 17,24  L 16,24  Z  " style="fill:rgb(165, 73, 38); fill-opacity:1.000; stroke:none;" />
 <path d="  M 19,19  L 19,18  L 18,18  L 18,19  Z  " style="fill:rgb(165, 73, 38); fill-opacity:1.000; stroke:none;" />
 <path d="  M 19,12  L 21,12  L 21,11  L 19,11  Z  " style="fill:rgb(165, 73, 38); fill-opacity:1.000; stroke:none;" />
 <path d="  M 20,17  L 19,17  L 19,18  L 20,18  Z  " style="fill:rgb(165, 73, 38); fill-opacity:1.000; stroke:none;" />
 <path d="  M 21,15  L 21,14  L 20,14  L 20,15  Z  " style="fill:rgb(165, 73, 38); fill-opacity:1.000; stroke:none;" />
 <path d="  M 20,16  L 20,17  L 21,17  L 21,16  Z  " style="fill:rgb(165, 73, 38); fill-opacity:1.000; stroke:none;" />
 <path d="  M 21,12  L 21,13  L 23,13  L 23,12  Z  " style="fill:rgb(165, 73, 38); fill-opacity:1.000; stroke:none;" />
 <path d="  M 24,14  L 24,15  L 22,15  L 22,16  L 25,16  L 25,15  L 27,15  L 27,13  L 25,13  L 25,14  Z  " style="fill:rgb(165, 73, 38); fill-opacity:1.000; stroke:none;" />
 <path d="  M 23,27  L 23,26  L 22,26  L 22,27  Z  " style="fill:rgb(165, 73, 38); fill-opacity:1.000; stroke:none;" />
 <path d="  M 25,23  L 23,23  L 23,25  L 24,25  L 24,24  L 25,24  Z  " style="fill:rgb(165, 73, 38); fill-opacity:1.000; stroke:none;" />
 <path d="  M 24,13  L 25,13  L 25,12  L 24,12  Z  " style="fill:rgb(165, 73, 38); fill-opacity:1.000; stroke:none;" />
 <path d="  M 25,11  L 25,12  L 28,12  L 28,10  L 27,10  L 27,11  Z  " style="fill:rgb(165, 73, 38); fill-opacity:1.000; stroke:none;" />
 <path d="  M 26,22  L 25,22  L 25,23  L 26,23  Z  " style="fill:rgb(165, 73, 38); fill-opacity:1.000; stroke:none;" />
 <path d="  M 26,27  L 26,26  L 25,26  L 25,27  Z  " style="fill:rgb(165, 73, 38); fill-opacity:1.000; stroke:none;" />
 <path d="  M 26,18  L 27,18  L 27,20  L 28,20  L 28,19  L 29,19  L 29,18  L 28,18  L 28,17  L 26,17  Z  " style="fill:rgb(165, 73, 38); fill-opacity:1.000; stroke:none;" />
 <path d="  M 28,10  L 29,10  L 29,9  L 28,9  Z  " style="fill:rgb(165, 73, 38); fill-opacity:1.000; stroke:none;" />
</svg>
