<?xml version="1.0" encoding="UTF-8" standalone="no"?>
<!DOCTYPE svg PUBLIC "-//W3C//DTD SVG 1.1//EN" 
  "http://www.w3.org/Graphics/SVG/1.1/DTD/svg11.dtd">
<svg width="32" height="32"
	 xmlns="http://www.w3.org/2000/svg" version="1.1">
 <path d="  M 3,25  L 3,24  L 2,24  L 2,25  Z  " style="fill:rgb(69, 20, 21); fill-opacity:1.000; stroke:none;" />
 <path d="  M 4,22  L 3,22  L 3,23  L 4,23  Z  " style="fill:rgb(69, 20, 21); fill-opacity:1.000; stroke:none;" />
 <path d="  M 6,20  L 5,20  L 5,21  L 6,21  Z  " style="fill:rgb(69, 20, 21); fill-opacity:1.000; stroke:none;" />
 <path d="  M 7,19  L 6,19  L 6,20  L 7,20  Z  " style="fill:rgb(69, 20, 21); fill-opacity:1.000; stroke:none;" />
 <path d="  M 8,19  L 9,19  L 9,18  L 8,18  Z  " style="fill:rgb(69, 20, 21); fill-opacity:1.000; stroke:none;" />
 <path d="  M 12,18  L 10,18  L 10,19  L 12,19  Z  " style="fill:rgb(69, 20, 21); fill-opacity:1.000; stroke:none;" />
 <path d="  M 12,17  L 12,16  L 11,16  L 11,17  Z  " style="fill:rgb(69, 20, 21); fill-opacity:1.000; stroke:none;" />
 <path d="  M 11,25  L 12,25  L 12,24  L 11,24  Z  " style="fill:rgb(69, 20, 21); fill-opacity:1.000; stroke:none;" />
 <path d="  M 12,13  L 12,14  L 14,14  L 14,13  Z  " style="fill:rgb(69, 20, 21); fill-opacity:1.000; stroke:none;" />
 <path d="  M 14,18  L 14,17  L 12,17  L 12,18  Z  " style="fill:rgb(69, 20, 21); fill-opacity:1.000; stroke:none;" />
 <path d="  M 12,25  L 12,26  L 14,26  L 14,25  Z  " style="fill:rgb(69, 20, 21); fill-opacity:1.000; stroke:none;" />
 <path d="  M 13,15  L 13,16  L 14,16  L 14,15  Z  " style="fill:rgb(69, 20, 21); fill-opacity:1.000; stroke:none;" />
 <path d="  M 14,14  L 14,15  L 17,15  L 17,14  L 18,14  L 18,13  L 16,13  L 16,14  Z  " style="fill:rgb(69, 20, 21); fill-opacity:1.000; stroke:none;" />
 <path d="  M 14,16  L 14,17  L 17,17  L 17,16  Z  " style="fill:rgb(69, 20, 21); fill-opacity:1.000; stroke:none;" />
 <path d="  M 14,27  L 16,27  L 16,26  L 14,26  Z  " style="fill:rgb(69, 20, 21); fill-opacity:1.000; stroke:none;" />
 <path d="  M 16,26  L 18,26  L 18,25  L 16,25  Z  " style="fill:rgb(69, 20, 21); fill-opacity:1.000; stroke:none;" />
 <path d="  M 18,19  L 18,18  L 17,18  L 17,19  Z  " style="fill:rgb(69, 20, 21); fill-opacity:1.000; stroke:none;" />
 <path d="  M 19,8  L 18,8  L 18,9  L 19,9  Z  " style="fill:rgb(69, 20, 21); fill-opacity:1.000; stroke:none;" />
 <path d="  M 18,13  L 19,13  L 19,11  L 18,11  Z  " style="fill:rgb(69, 20, 21); fill-opacity:1.000; stroke:none;" />
 <path d="  M 20,16  L 20,15  L 18,15  L 18,16  Z  " style="fill:rgb(69, 20, 21); fill-opacity:1.000; stroke:none;" />
 <path d="  M 19,21  L 19,19  L 18,19  L 18,21  Z  " style="fill:rgb(69, 20, 21); fill-opacity:1.000; stroke:none;" />
 <path d="  M 18,25  L 19,25  L 19,23  L 18,23  Z  " style="fill:rgb(69, 20, 21); fill-opacity:1.000; stroke:none;" />
 <path d="  M 20,9  L 19,9  L 19,11  L 20,11  Z  " style="fill:rgb(69, 20, 21); fill-opacity:1.000; stroke:none;" />
 <path d="  M 20,23  L 20,21  L 19,21  L 19,23  Z  " style="fill:rgb(69, 20, 21); fill-opacity:1.000; stroke:none;" />
 <path d="  M 21,13  L 20,13  L 20,14  L 21,14  Z  " style="fill:rgb(69, 20, 21); fill-opacity:1.000; stroke:none;" />
 <path d="  M 24,15  L 24,14  L 21,14  L 21,15  Z  " style="fill:rgb(69, 20, 21); fill-opacity:1.000; stroke:none;" />
 <path d="  M 28,16  L 28,15  L 24,15  L 24,16  Z  " style="fill:rgb(69, 20, 21); fill-opacity:1.000; stroke:none;" />
 <path d="  M 28,14  L 28,15  L 29,15  L 29,14  Z  " style="fill:rgb(69, 20, 21); fill-opacity:1.000; stroke:none;" />
 <path d="  M 30,10  L 29,10  L 29,14  L 30,14  Z  " style="fill:rgb(69, 20, 21); fill-opacity:1.000; stroke:none;" />
 <path d="  M 3,25  L 2,25  L 2,26  L 3,26  Z  " style="fill:rgb(56, 14, 15); fill-opacity:1.000; stroke:none;" />
 <path d="  M 3,24  L 4,24  L 4,23  L 3,23  Z  " style="fill:rgb(56, 14, 15); fill-opacity:1.000; stroke:none;" />
 <path d="  M 4,21  L 4,23  L 5,23  L 5,21  Z  " style="fill:rgb(56, 14, 15); fill-opacity:1.000; stroke:none;" />
 <path d="  M 6,21  L 7,21  L 7,20  L 6,20  Z  " style="fill:rgb(56, 14, 15); fill-opacity:1.000; stroke:none;" />
 <path d="  M 9,20  L 9,19  L 7,19  L 7,20  Z  " style="fill:rgb(56, 14, 15); fill-opacity:1.000; stroke:none;" />
 <path d="  M 10,18  L 9,18  L 9,19  L 10,19  Z  " style="fill:rgb(56, 14, 15); fill-opacity:1.000; stroke:none;" />
 <path d="  M 10,17  L 10,18  L 12,18  L 12,17  Z  " style="fill:rgb(56, 14, 15); fill-opacity:1.000; stroke:none;" />
 <path d="  M 12,17  L 14,17  L 14,16  L 12,16  Z  " style="fill:rgb(56, 14, 15); fill-opacity:1.000; stroke:none;" />
 <path d="  M 18,16  L 18,15  L 14,15  L 14,16  Z  " style="fill:rgb(56, 14, 15); fill-opacity:1.000; stroke:none;" />
 <path d="  M 18,14  L 18,15  L 21,15  L 21,14  Z  " style="fill:rgb(56, 14, 15); fill-opacity:1.000; stroke:none;" />
 <path d="  M 21,14  L 22,14  L 22,13  L 21,13  Z  " style="fill:rgb(56, 14, 15); fill-opacity:1.000; stroke:none;" />
 <path d="  M 6,11  L 6,13  L 5,13  L 5,15  L 6,15  L 6,14  L 7,14  L 7,12  L 8,12  L 8,11  Z  " style="fill:rgb(41, 82, 48); fill-opacity:1.000; stroke:none;" />
 <path d="  M 8,17  L 8,16  L 9,16  L 9,15  L 10,15  L 10,14  L 7,14  L 7,15  L 6,15  L 6,17  Z  " style="fill:rgb(41, 82, 48); fill-opacity:1.000; stroke:none;" />
 <path d="  M 8,13  L 9,13  L 9,12  L 8,12  Z  " style="fill:rgb(41, 82, 48); fill-opacity:1.000; stroke:none;" />
 <path d="  M 21,18  L 21,17  L 19,17  L 19,18  Z  " style="fill:rgb(41, 82, 48); fill-opacity:1.000; stroke:none;" />
 <path d="  M 23,17  L 23,18  L 24,18  L 24,16  L 23,16  L 23,15  L 22,15  L 22,16  L 21,16  L 21,17  Z  " style="fill:rgb(41, 82, 48); fill-opacity:1.000; stroke:none;" />
 <path d="  M 22,19  L 23,19  L 23,18  L 22,18  Z  " style="fill:rgb(41, 82, 48); fill-opacity:1.000; stroke:none;" />
 <path d="  M 24,18  L 24,19  L 25,19  L 25,18  Z  " style="fill:rgb(41, 82, 48); fill-opacity:1.000; stroke:none;" />
 <path d="  M 6,11  L 7,11  L 7,10  L 6,10  Z  " style="fill:rgb(40, 98, 64); fill-opacity:1.000; stroke:none;" />
 <path d="  M 7,15  L 7,14  L 6,14  L 6,15  Z  " style="fill:rgb(40, 98, 64); fill-opacity:1.000; stroke:none;" />
 <path d="  M 8,12  L 7,12  L 7,14  L 9,14  L 9,13  L 8,13  Z  " style="fill:rgb(40, 98, 64); fill-opacity:1.000; stroke:none;" />
 <path d="  M 8,17  L 9,17  L 9,16  L 8,16  Z  " style="fill:rgb(40, 98, 64); fill-opacity:1.000; stroke:none;" />
 <path d="  M 9,16  L 10,16  L 10,15  L 9,15  Z  " style="fill:rgb(40, 98, 64); fill-opacity:1.000; stroke:none;" />
 <path d="  M 21,17  L 21,16  L 19,16  L 19,17  Z  " style="fill:rgb(40, 98, 64); fill-opacity:1.000; stroke:none;" />
 <path d="  M 23,17  L 21,17  L 21,19  L 22,19  L 22,18  L 23,18  Z  " style="fill:rgb(40, 98, 64); fill-opacity:1.000; stroke:none;" />
 <path d="  M 24,19  L 24,18  L 23,18  L 23,19  Z  " style="fill:rgb(40, 98, 64); fill-opacity:1.000; stroke:none;" />
 <path d="  M 24,18  L 25,18  L 25,17  L 24,17  Z  " style="fill:rgb(40, 98, 64); fill-opacity:1.000; stroke:none;" />
 <path d="  M 11,17  L 11,15  L 10,15  L 10,16  L 9,16  L 9,17  L 7,17  L 7,18  L 10,18  L 10,17  Z  " style="fill:rgb(29, 56, 34); fill-opacity:1.000; stroke:none;" />
 <path d="  M 10,13  L 9,13  L 9,14  L 10,14  Z  " style="fill:rgb(29, 56, 34); fill-opacity:1.000; stroke:none;" />
 <path d="  M 19,16  L 18,16  L 18,17  L 19,17  Z  " style="fill:rgb(29, 56, 34); fill-opacity:1.000; stroke:none;" />
 <path d="  M 20,16  L 22,16  L 22,15  L 20,15  Z  " style="fill:rgb(29, 56, 34); fill-opacity:1.000; stroke:none;" />
 <path d="  M 23,20  L 26,20  L 26,19  L 23,19  Z  " style="fill:rgb(29, 56, 34); fill-opacity:1.000; stroke:none;" />
 <path d="  M 10,9  L 10,11  L 11,11  L 11,9  Z  " style="fill:rgb(105, 31, 33); fill-opacity:1.000; stroke:none;" />
 <path d="  M 11,21  L 10,21  L 10,23  L 11,23  Z  " style="fill:rgb(105, 31, 33); fill-opacity:1.000; stroke:none;" />
 <path d="  M 11,7  L 11,9  L 12,9  L 12,7  Z  " style="fill:rgb(105, 31, 33); fill-opacity:1.000; stroke:none;" />
 <path d="  M 12,11  L 11,11  L 11,13  L 12,13  Z  " style="fill:rgb(105, 31, 33); fill-opacity:1.000; stroke:none;" />
 <path d="  M 11,21  L 12,21  L 12,19  L 11,19  Z  " style="fill:rgb(105, 31, 33); fill-opacity:1.000; stroke:none;" />
 <path d="  M 11,24  L 12,24  L 12,23  L 11,23  Z  " style="fill:rgb(105, 31, 33); fill-opacity:1.000; stroke:none;" />
 <path d="  M 12,6  L 12,7  L 14,7  L 14,6  Z  " style="fill:rgb(105, 31, 33); fill-opacity:1.000; stroke:none;" />
 <path d="  M 14,18  L 12,18  L 12,19  L 14,19  Z  " style="fill:rgb(105, 31, 33); fill-opacity:1.000; stroke:none;" />
 <path d="  M 16,6  L 16,5  L 14,5  L 14,6  Z  " style="fill:rgb(105, 31, 33); fill-opacity:1.000; stroke:none;" />
 <path d="  M 16,18  L 16,17  L 14,17  L 14,18  Z  " style="fill:rgb(105, 31, 33); fill-opacity:1.000; stroke:none;" />
 <path d="  M 16,6  L 16,7  L 18,7  L 18,6  Z  " style="fill:rgb(105, 31, 33); fill-opacity:1.000; stroke:none;" />
 <path d="  M 17,19  L 17,18  L 16,18  L 16,19  Z  " style="fill:rgb(105, 31, 33); fill-opacity:1.000; stroke:none;" />
 <path d="  M 18,7  L 18,8  L 19,8  L 19,7  Z  " style="fill:rgb(105, 31, 33); fill-opacity:1.000; stroke:none;" />
 <path d="  M 23,10  L 22,10  L 22,14  L 23,14  Z  " style="fill:rgb(105, 31, 33); fill-opacity:1.000; stroke:none;" />
 <path d="  M 23,9  L 23,10  L 24,10  L 24,9  Z  " style="fill:rgb(105, 31, 33); fill-opacity:1.000; stroke:none;" />
 <path d="  M 28,9  L 28,8  L 24,8  L 24,9  Z  " style="fill:rgb(105, 31, 33); fill-opacity:1.000; stroke:none;" />
 <path d="  M 28,10  L 29,10  L 29,9  L 28,9  Z  " style="fill:rgb(105, 31, 33); fill-opacity:1.000; stroke:none;" />
 <path d="  M 15,10  L 14,10  L 14,9  L 13,9  L 13,10  L 12,10  L 12,9  L 11,9  L 11,11  L 12,11  L 12,12  L 13,12  L 13,13  L 16,13  L 16,12  L 17,12  L 17,11  L 18,11  L 18,8  L 17,8  L 17,7  L 16,7  L 16,8  L 15,8  Z  " style="fill:rgb(165, 7, 0); fill-opacity:1.000; stroke:none;" />
 <path d="  M 16,25  L 16,24  L 17,24  L 17,23  L 18,23  L 18,20  L 17,20  L 17,19  L 16,19  L 16,18  L 14,18  L 14,19  L 12,19  L 12,20  L 13,20  L 13,21  L 14,21  L 14,22  L 12,22  L 12,21  L 11,21  L 11,23  L 12,23  L 12,24  L 13,24  L 13,25  Z  M 14,22  L 15,22  L 15,23  L 14,23  Z  M 14,21  L 14,20  L 16,20  L 16,21  Z  " style="fill:rgb(165, 7, 0); fill-opacity:1.000; stroke:none;" />
 <path d="  M 12,9  L 13,9  L 13,8  L 14,8  L 14,7  L 12,7  Z  " style="fill:rgb(165, 7, 0); fill-opacity:1.000; stroke:none;" />
 <path d="  M 16,6  L 14,6  L 14,7  L 16,7  Z  " style="fill:rgb(165, 7, 0); fill-opacity:1.000; stroke:none;" />
 <path d="  M 24,10  L 23,10  L 23,12  L 24,12  Z  " style="fill:rgb(165, 7, 0); fill-opacity:1.000; stroke:none;" />
 <path d="  M 25,11  L 25,12  L 24,12  L 24,13  L 23,13  L 23,14  L 24,14  L 24,15  L 25,15  L 25,14  L 27,14  L 27,13  L 28,13  L 28,12  L 29,12  L 29,11  L 28,11  L 28,10  L 27,10  L 27,11  Z  " style="fill:rgb(165, 7, 0); fill-opacity:1.000; stroke:none;" />
 <path d="  M 24,9  L 24,10  L 27,10  L 27,9  Z  " style="fill:rgb(165, 7, 0); fill-opacity:1.000; stroke:none;" />
 <path d="  M 13,9  L 12,9  L 12,10  L 13,10  Z  " style="fill:rgb(223, 70, 126); fill-opacity:1.000; stroke:none;" />
 <path d="  M 12,22  L 14,22  L 14,21  L 13,21  L 13,20  L 12,20  Z  " style="fill:rgb(223, 70, 126); fill-opacity:1.000; stroke:none;" />
 <path d="  M 15,8  L 16,8  L 16,7  L 14,7  L 14,8  L 13,8  L 13,9  L 14,9  L 14,10  L 15,10  Z  " style="fill:rgb(223, 70, 126); fill-opacity:1.000; stroke:none;" />
 <path d="  M 16,20  L 14,20  L 14,21  L 16,21  Z  " style="fill:rgb(223, 70, 126); fill-opacity:1.000; stroke:none;" />
 <path d="  M 15,23  L 15,22  L 14,22  L 14,23  Z  " style="fill:rgb(223, 70, 126); fill-opacity:1.000; stroke:none;" />
 <path d="  M 23,13  L 24,13  L 24,12  L 23,12  Z  " style="fill:rgb(223, 70, 126); fill-opacity:1.000; stroke:none;" />
 <path d="  M 27,10  L 24,10  L 24,12  L 25,12  L 25,11  L 27,11  Z  " style="fill:rgb(223, 70, 126); fill-opacity:1.000; stroke:none;" />
 <path d="  M 13,12  L 12,12  L 12,13  L 13,13  Z  " style="fill:rgb(130, 11, 5); fill-opacity:1.000; stroke:none;" />
 <path d="  M 13,25  L 13,24  L 12,24  L 12,25  Z  " style="fill:rgb(130, 11, 5); fill-opacity:1.000; stroke:none;" />
 <path d="  M 16,14  L 16,13  L 14,13  L 14,14  Z  " style="fill:rgb(130, 11, 5); fill-opacity:1.000; stroke:none;" />
 <path d="  M 14,25  L 14,26  L 16,26  L 16,25  Z  " style="fill:rgb(130, 11, 5); fill-opacity:1.000; stroke:none;" />
 <path d="  M 16,13  L 18,13  L 18,11  L 17,11  L 17,12  L 16,12  Z  " style="fill:rgb(130, 11, 5); fill-opacity:1.000; stroke:none;" />
 <path d="  M 16,25  L 18,25  L 18,23  L 17,23  L 17,24  L 16,24  Z  " style="fill:rgb(130, 11, 5); fill-opacity:1.000; stroke:none;" />
 <path d="  M 17,8  L 18,8  L 18,7  L 17,7  Z  " style="fill:rgb(130, 11, 5); fill-opacity:1.000; stroke:none;" />
 <path d="  M 18,20  L 18,19  L 17,19  L 17,20  Z  " style="fill:rgb(130, 11, 5); fill-opacity:1.000; stroke:none;" />
 <path d="  M 18,11  L 19,11  L 19,9  L 18,9  Z  " style="fill:rgb(130, 11, 5); fill-opacity:1.000; stroke:none;" />
 <path d="  M 18,21  L 18,23  L 19,23  L 19,21  Z  " style="fill:rgb(130, 11, 5); fill-opacity:1.000; stroke:none;" />
 <path d="  M 29,14  L 29,12  L 28,12  L 28,13  L 27,13  L 27,14  L 25,14  L 25,15  L 28,15  L 28,14  Z  " style="fill:rgb(130, 11, 5); fill-opacity:1.000; stroke:none;" />
 <path d="  M 28,9  L 27,9  L 27,10  L 28,10  Z  " style="fill:rgb(130, 11, 5); fill-opacity:1.000; stroke:none;" />
 <path d="  M 29,11  L 29,10  L 28,10  L 28,11  Z  " style="fill:rgb(130, 11, 5); fill-opacity:1.000; stroke:none;" />
</svg>
