<?xml version="1.0" encoding="UTF-8" standalone="no"?>
<!DOCTYPE svg PUBLIC "-//W3C//DTD SVG 1.1//EN" 
  "http://www.w3.org/Graphics/SVG/1.1/DTD/svg11.dtd">
<svg width="32" height="32"
	 xmlns="http://www.w3.org/2000/svg" version="1.1">
 <path d="  M 6,18  L 6,19  L 7,19  L 7,18  Z  " style="fill:rgb(143, 143, 143); fill-opacity:1.000; stroke:none;" />
 <path d="  M 10,15  L 10,14  L 9,14  L 9,15  Z  " style="fill:rgb(143, 143, 143); fill-opacity:1.000; stroke:none;" />
 <path d="  M 15,11  L 15,12  L 16,12  L 16,11  Z  " style="fill:rgb(143, 143, 143); fill-opacity:1.000; stroke:none;" />
 <path d="  M 17,22  L 18,22  L 18,21  L 17,21  Z  " style="fill:rgb(143, 143, 143); fill-opacity:1.000; stroke:none;" />
 <path d="  M 23,23  L 23,22  L 22,22  L 22,23  Z  " style="fill:rgb(143, 143, 143); fill-opacity:1.000; stroke:none;" />
 <path d="  M 24,18  L 24,19  L 25,19  L 25,18  Z  " style="fill:rgb(143, 143, 143); fill-opacity:1.000; stroke:none;" />
 <path d="  M 10,13  L 9,13  L 9,14  L 10,14  Z  " style="fill:rgb(217, 217, 217); fill-opacity:1.000; stroke:none;" />
 <path d="  M 14,10  L 14,11  L 15,11  L 15,10  Z  " style="fill:rgb(217, 217, 217); fill-opacity:1.000; stroke:none;" />
 <path d="  M 16,20  L 16,21  L 17,21  L 17,20  Z  " style="fill:rgb(217, 217, 217); fill-opacity:1.000; stroke:none;" />
 <path d="  M 24,18  L 24,17  L 23,17  L 23,18  Z  " style="fill:rgb(217, 217, 217); fill-opacity:1.000; stroke:none;" />
 <path d="  M 15,11  L 16,11  L 16,10  L 15,10  Z  " style="fill:rgb(192, 192, 192); fill-opacity:1.000; stroke:none;" />
 <path d="  M 17,20  L 17,21  L 18,21  L 18,20  Z  " style="fill:rgb(192, 192, 192); fill-opacity:1.000; stroke:none;" />
 <path d="  M 24,18  L 25,18  L 25,17  L 24,17  Z  " style="fill:rgb(192, 192, 192); fill-opacity:1.000; stroke:none;" />
 <path d="  M 25,6  L 25,5  L 23,5  L 23,6  Z  " style="fill:rgb(150, 150, 150); fill-opacity:1.000; stroke:none;" />
 <path d="  M 27,5  L 27,4  L 25,4  L 25,5  Z  " style="fill:rgb(150, 150, 150); fill-opacity:1.000; stroke:none;" />
 <path d="  M 26,8  L 26,9  L 27,9  L 27,8  Z  " style="fill:rgb(150, 150, 150); fill-opacity:1.000; stroke:none;" />
 <path d="  M 28,4  L 28,3  L 27,3  L 27,4  Z  " style="fill:rgb(150, 150, 150); fill-opacity:1.000; stroke:none;" />
 <path d="  M 27,7  L 27,8  L 28,8  L 28,7  Z  " style="fill:rgb(150, 150, 150); fill-opacity:1.000; stroke:none;" />
 <path d="  M 29,5  L 28,5  L 28,6  L 29,6  Z  " style="fill:rgb(150, 150, 150); fill-opacity:1.000; stroke:none;" />
 <path d="  M 23,7  L 24,7  L 24,6  L 23,6  Z  " style="fill:rgb(68, 68, 68); fill-opacity:1.000; stroke:none;" />
 <path d="  M 28,10  L 28,8  L 27,8  L 27,9  L 26,9  L 26,10  Z  " style="fill:rgb(68, 68, 68); fill-opacity:1.000; stroke:none;" />
 <path d="  M 28,8  L 29,8  L 29,6  L 28,6  Z  " style="fill:rgb(68, 68, 68); fill-opacity:1.000; stroke:none;" />
 <path d="  M 29,6  L 30,6  L 30,3  L 29,3  Z  " style="fill:rgb(68, 68, 68); fill-opacity:1.000; stroke:none;" />
 <path d="  M 25,6  L 24,6  L 24,7  L 25,7  Z  " style="fill:rgb(216, 216, 216); fill-opacity:1.000; stroke:none;" />
 <path d="  M 25,5  L 25,6  L 26,6  L 26,5  Z  " style="fill:rgb(216, 216, 216); fill-opacity:1.000; stroke:none;" />
 <path d="  M 28,5  L 27,5  L 27,6  L 26,6  L 26,7  L 25,7  L 25,8  L 27,8  L 27,7  L 28,7  Z  " style="fill:rgb(216, 216, 216); fill-opacity:1.000; stroke:none;" />
 <path d="  M 28,5  L 29,5  L 29,4  L 28,4  Z  " style="fill:rgb(216, 216, 216); fill-opacity:1.000; stroke:none;" />
 <path d="  M 26,6  L 25,6  L 25,7  L 26,7  Z  " style="fill:rgb(255, 255, 255); fill-opacity:1.000; stroke:none;" />
 <path d="  M 27,5  L 26,5  L 26,6  L 27,6  Z  " style="fill:rgb(255, 255, 255); fill-opacity:1.000; stroke:none;" />
 <path d="  M 28,5  L 28,4  L 27,4  L 27,5  Z  " style="fill:rgb(255, 255, 255); fill-opacity:1.000; stroke:none;" />
 <path d="  M 28,4  L 29,4  L 29,3  L 28,3  Z  " style="fill:rgb(255, 255, 255); fill-opacity:1.000; stroke:none;" />
</svg>
